<svg xmlns="http://www.w3.org/2000/svg" xmlns:xlink="http://www.w3.org/1999/xlink" contentStyleType="text/css" height="981px" preserveAspectRatio="none" style="width:1176px;height:981px;background:#FFFFFF;" version="1.1" viewBox="0 0 1176 981" width="1176px" zoomAndPan="magnify"><title>Activity Diagram: Kelola Bahan Baku</title><defs/><g><text fill="#000000" font-family="sans-serif" font-size="14" font-weight="bold" lengthAdjust="spacing" textLength="245.8477" x="463.6523" y="34.5332">Activity Diagram: Kelola Bahan Baku</text><ellipse cx="583.5762" cy="58.6094" fill="#222222" rx="10" ry="10" style="stroke:#222222;stroke-width:1.0;"/><rect fill="#F1F1F1" height="35.0938" rx="12.5" ry="12.5" style="stroke:#181818;stroke-width:0.5;" width="254.8438" x="456.1543" y="88.6094"/><text fill="#000000" font-family="sans-serif" font-size="12" lengthAdjust="spacing" textLength="234.8438" x="466.1543" y="111.0664">Pengguna mengakses halaman bahan baku</text><rect fill="#F1F1F1" height="35.0938" rx="12.5" ry="12.5" style="stroke:#181818;stroke-width:0.5;" width="280.8242" x="443.1641" y="143.7031"/><text fill="#000000" font-family="sans-serif" font-size="12" lengthAdjust="spacing" textLength="260.8242" x="453.1641" y="166.1602">Sistem menampilkan daftar bahan dengan status</text><polygon fill="#F1F1F1" points="142.793,198.7969,192.3145,198.7969,204.3145,210.7969,192.3145,222.7969,142.793,222.7969,130.793,210.7969,142.793,198.7969" style="stroke:#181818;stroke-width:0.5;"/><text fill="#000000" font-family="sans-serif" font-size="11" lengthAdjust="spacing" textLength="40.353" x="171.5537" y="234.2158">Tambah</text><text fill="#000000" font-family="sans-serif" font-size="11" lengthAdjust="spacing" textLength="49.5215" x="142.793" y="215.2979">Pilih aksi?</text><rect fill="#F1F1F1" height="35.0938" rx="12.5" ry="12.5" style="stroke:#181818;stroke-width:0.5;" width="212.1055" x="61.501" y="256.6328"/><text fill="#000000" font-family="sans-serif" font-size="12" lengthAdjust="spacing" textLength="192.1055" x="71.501" y="279.0898">Tampilkan form tambah bahan baku</text><rect fill="#F1F1F1" height="35.0938" rx="12.5" ry="12.5" style="stroke:#181818;stroke-width:0.5;" width="189.459" x="72.8242" y="325.5625"/><text fill="#000000" font-family="sans-serif" font-size="12" lengthAdjust="spacing" textLength="169.459" x="82.8242" y="348.0195">Pengguna mengisi nama bahan</text><rect fill="#F1F1F1" height="35.0938" rx="12.5" ry="12.5" style="stroke:#181818;stroke-width:0.5;" width="196.748" x="69.1797" y="394.4922"/><text fill="#000000" font-family="sans-serif" font-size="12" lengthAdjust="spacing" textLength="176.748" x="79.1797" y="416.9492">Pengguna mengisi minimum stok</text><rect fill="#F1F1F1" height="35.0938" rx="12.5" ry="12.5" style="stroke:#181818;stroke-width:0.5;" width="226.1152" x="54.4961" y="464.5859"/><text fill="#000000" font-family="sans-serif" font-size="12" lengthAdjust="spacing" textLength="206.1152" x="64.4961" y="487.043">Pengguna mengisi deskripsi (opsional)</text><polygon fill="#F1F1F1" points="118.3303,534.6797,216.7771,534.6797,228.7771,546.6797,216.7771,558.6797,118.3303,558.6797,106.3303,546.6797,118.3303,534.6797" style="stroke:#181818;stroke-width:0.5;"/><text fill="#000000" font-family="sans-serif" font-size="11" lengthAdjust="spacing" textLength="98.4468" x="118.3303" y="551.1807">Validasi nama unik?</text><text fill="#000000" font-family="sans-serif" font-size="11" lengthAdjust="spacing" textLength="39.7407" x="66.5896" y="544.2627">Duplikat</text><text fill="#000000" font-family="sans-serif" font-size="11" lengthAdjust="spacing" textLength="22.0054" x="228.7771" y="544.2627">Unik</text><rect fill="#F1F1F1" height="35.0938" rx="12.5" ry="12.5" style="stroke:#181818;stroke-width:0.5;" width="140.0527" x="11" y="568.6797"/><text fill="#000000" font-family="sans-serif" font-size="12" lengthAdjust="spacing" textLength="120.0527" x="21" y="591.1367">Tampilkan pesan error</text><ellipse cx="81.0264" cy="648.6094" fill="none" rx="11" ry="11" style="stroke:#222222;stroke-width:1.0;"/><ellipse cx="81.0264" cy="648.6094" fill="#222222" rx="6" ry="6" style="stroke:#222222;stroke-width:1.0;"/><rect fill="#F1F1F1" height="35.0938" rx="12.5" ry="12.5" style="stroke:#181818;stroke-width:0.5;" width="102.6992" x="202.7314" y="568.6797"/><text fill="#000000" font-family="sans-serif" font-size="12" lengthAdjust="spacing" textLength="82.6992" x="212.7314" y="591.1367">Generate UUID</text><rect fill="#F1F1F1" height="35.0938" rx="12.5" ry="12.5" style="stroke:#181818;stroke-width:0.5;" width="153.4355" x="177.3633" y="637.6094"/><text fill="#000000" font-family="sans-serif" font-size="12" lengthAdjust="spacing" textLength="133.4355" x="187.3633" y="660.0664">Simpan data bahan baku</text><rect fill="#F1F1F1" height="35.0938" rx="12.5" ry="12.5" style="stroke:#181818;stroke-width:0.5;" width="155.75" x="176.2061" y="707.7031"/><text fill="#000000" font-family="sans-serif" font-size="12" lengthAdjust="spacing" textLength="135.75" x="186.2061" y="730.1602">Set status awal = Kosong</text><rect fill="#F1F1F1" height="35.0938" rx="12.5" ry="12.5" style="stroke:#181818;stroke-width:0.5;" width="114.7109" x="196.7256" y="762.7969"/><text fill="#000000" font-family="sans-serif" font-size="12" lengthAdjust="spacing" textLength="94.7109" x="206.7256" y="785.2539">Catat log aktivitas</text><rect fill="#F1F1F1" height="35.0938" rx="12.5" ry="12.5" style="stroke:#181818;stroke-width:0.5;" width="166.0566" x="171.0527" y="817.8906"/><text fill="#000000" font-family="sans-serif" font-size="12" lengthAdjust="spacing" textLength="146.0566" x="181.0527" y="840.3477">Tampilkan notifikasi sukses</text><polygon fill="#F1F1F1" points="525.0586,198.7969,551.3555,198.7969,563.3555,210.7969,551.3555,222.7969,525.0586,222.7969,513.0586,210.7969,525.0586,198.7969" style="stroke:#181818;stroke-width:0.5;"/><text fill="#000000" font-family="sans-serif" font-size="11" lengthAdjust="spacing" textLength="26.2969" x="525.0586" y="215.2979">Ubah</text><rect fill="#F1F1F1" height="35.0938" rx="12.5" ry="12.5" style="stroke:#181818;stroke-width:0.5;" width="125.3691" x="475.5225" y="242.7969"/><text fill="#000000" font-family="sans-serif" font-size="12" lengthAdjust="spacing" textLength="105.3691" x="485.5225" y="265.2539">Tampilkan form edit</text><rect fill="#F1F1F1" height="35.0938" rx="12.5" ry="12.5" style="stroke:#181818;stroke-width:0.5;" width="161.457" x="457.4785" y="311.7266"/><text fill="#000000" font-family="sans-serif" font-size="12" lengthAdjust="spacing" textLength="141.457" x="467.4785" y="334.1836">Pengguna mengubah data</text><polygon fill="#F1F1F1" points="503.6548,380.6563,572.7593,380.6563,584.7593,392.6563,572.7593,404.6563,503.6548,404.6563,491.6548,392.6563,503.6548,380.6563" style="stroke:#181818;stroke-width:0.5;"/><text fill="#000000" font-family="sans-serif" font-size="11" lengthAdjust="spacing" textLength="69.1045" x="503.6548" y="397.1572">Validasi data?</text><text fill="#000000" font-family="sans-serif" font-size="11" lengthAdjust="spacing" textLength="24.46" x="467.1948" y="390.2393">Valid</text><text fill="#000000" font-family="sans-serif" font-size="11" lengthAdjust="spacing" textLength="54.4146" x="584.7593" y="390.2393">Tidak Valid</text><rect fill="#F1F1F1" height="35.0938" rx="12.5" ry="12.5" style="stroke:#181818;stroke-width:0.5;" width="121.4082" x="383.7949" y="414.6563"/><text fill="#000000" font-family="sans-serif" font-size="12" lengthAdjust="spacing" textLength="101.4082" x="393.7949" y="437.1133">Simpan perubahan</text><rect fill="#F1F1F1" height="35.0938" rx="12.5" ry="12.5" style="stroke:#181818;stroke-width:0.5;" width="194.7793" x="347.1094" y="484.75"/><text fill="#000000" font-family="sans-serif" font-size="12" lengthAdjust="spacing" textLength="174.7793" x="357.1094" y="507.207">Hitung ulang status ketersediaan</text><rect fill="#F1F1F1" height="35.0938" rx="12.5" ry="12.5" style="stroke:#181818;stroke-width:0.5;" width="114.7109" x="387.1436" y="554.8438"/><text fill="#000000" font-family="sans-serif" font-size="12" lengthAdjust="spacing" textLength="94.7109" x="397.1436" y="577.3008">Catat log aktivitas</text><rect fill="#F1F1F1" height="35.0938" rx="12.5" ry="12.5" style="stroke:#181818;stroke-width:0.5;" width="166.0566" x="361.4707" y="623.7734"/><text fill="#000000" font-family="sans-serif" font-size="12" lengthAdjust="spacing" textLength="146.0566" x="371.4707" y="646.2305">Tampilkan notifikasi sukses</text><rect fill="#F1F1F1" height="35.0938" rx="12.5" ry="12.5" style="stroke:#181818;stroke-width:0.5;" width="140.0527" x="561.8887" y="414.6563"/><text fill="#000000" font-family="sans-serif" font-size="12" lengthAdjust="spacing" textLength="120.0527" x="571.8887" y="437.1133">Tampilkan pesan error</text><polygon fill="#F1F1F1" points="538.207,664.8672,550.207,676.8672,538.207,688.8672,526.207,676.8672,538.207,664.8672" style="stroke:#181818;stroke-width:0.5;"/><polygon fill="#F1F1F1" points="798.8035,198.7969,853.8411,198.7969,865.8411,210.7969,853.8411,222.7969,798.8035,222.7969,786.8035,210.7969,798.8035,198.7969" style="stroke:#181818;stroke-width:0.5;"/><text fill="#000000" font-family="sans-serif" font-size="11" lengthAdjust="spacing" textLength="55.0376" x="798.8035" y="215.2979">Lihat Batch</text><rect fill="#F1F1F1" height="35.0938" rx="12.5" ry="12.5" style="stroke:#181818;stroke-width:0.5;" width="142.0625" x="755.291" y="242.7969"/><text fill="#000000" font-family="sans-serif" font-size="12" lengthAdjust="spacing" textLength="122.0625" x="765.291" y="265.2539">Tampilkan daftar batch</text><rect fill="#F1F1F1" height="35.0938" rx="12.5" ry="12.5" style="stroke:#181818;stroke-width:0.5;" width="180.084" x="736.2803" y="311.7266"/><text fill="#000000" font-family="sans-serif" font-size="12" lengthAdjust="spacing" textLength="160.084" x="746.2803" y="334.1836">Tampilkan kuantitas per batch</text><rect fill="#F1F1F1" height="35.0938" rx="12.5" ry="12.5" style="stroke:#181818;stroke-width:0.5;" width="188.7617" x="731.9414" y="380.6563"/><text fill="#000000" font-family="sans-serif" font-size="12" lengthAdjust="spacing" textLength="168.7617" x="741.9414" y="403.1133">Tampilkan tanggal kedaluwarsa</text><polygon fill="#F1F1F1" points="1006.532,198.7969,1060.3235,198.7969,1072.3235,210.7969,1060.3235,222.7969,1006.532,222.7969,994.532,210.7969,1006.532,198.7969" style="stroke:#181818;stroke-width:0.5;"/><text fill="#000000" font-family="sans-serif" font-size="11" lengthAdjust="spacing" textLength="53.7915" x="1006.532" y="215.2979">Cetak PDF</text><text fill="#000000" font-family="sans-serif" font-size="11" lengthAdjust="spacing" textLength="25.0723" x="1072.3235" y="208.3799">Batal</text><rect fill="#F1F1F1" height="35.0938" rx="12.5" ry="12.5" style="stroke:#181818;stroke-width:0.5;" width="205.4492" x="930.7031" y="242.7969"/><text fill="#000000" font-family="sans-serif" font-size="12" lengthAdjust="spacing" textLength="185.4492" x="940.7031" y="265.2539">Sistem mengumpulkan data bahan</text><rect fill="#F1F1F1" height="35.0938" rx="12.5" ry="12.5" style="stroke:#181818;stroke-width:0.5;" width="201.4355" x="932.71" y="311.7266"/><text fill="#000000" font-family="sans-serif" font-size="12" lengthAdjust="spacing" textLength="181.4355" x="942.71" y="334.1836">Generate PDF dengan status stok</text><rect fill="#F1F1F1" height="35.0938" rx="12.5" ry="12.5" style="stroke:#181818;stroke-width:0.5;" width="119.375" x="973.7402" y="380.6563"/><text fill="#000000" font-family="sans-serif" font-size="12" lengthAdjust="spacing" textLength="99.375" x="983.7402" y="403.1133">Download file PDF</text><rect fill="#F1F1F1" height="35.0938" rx="12.5" ry="12.5" style="stroke:#181818;stroke-width:0.5;" width="162.0957" x="502.5283" y="892.9844"/><text fill="#000000" font-family="sans-serif" font-size="12" lengthAdjust="spacing" textLength="142.0957" x="512.5283" y="915.4414">Refresh daftar bahan baku</text><ellipse cx="583.5762" cy="959.0781" fill="none" rx="11" ry="11" style="stroke:#222222;stroke-width:1.0;"/><ellipse cx="583.5762" cy="959.0781" fill="#222222" rx="6" ry="6" style="stroke:#222222;stroke-width:1.0;"/><line style="stroke:#181818;stroke-width:1.0;" x1="583.5762" x2="583.5762" y1="68.6094" y2="88.6094"/><polygon fill="#181818" points="579.5762,78.6094,583.5762,88.6094,587.5762,78.6094,583.5762,82.6094" style="stroke:#181818;stroke-width:1.0;"/><line style="stroke:#181818;stroke-width:1.0;" x1="583.5762" x2="583.5762" y1="123.7031" y2="143.7031"/><polygon fill="#181818" points="579.5762,133.7031,583.5762,143.7031,587.5762,133.7031,583.5762,137.7031" style="stroke:#181818;stroke-width:1.0;"/><line style="stroke:#181818;stroke-width:1.0;" x1="167.5537" x2="167.5537" y1="291.7266" y2="325.5625"/><polygon fill="#181818" points="163.5537,315.5625,167.5537,325.5625,171.5537,315.5625,167.5537,319.5625" style="stroke:#181818;stroke-width:1.0;"/><line style="stroke:#181818;stroke-width:1.0;" x1="167.5537" x2="167.5537" y1="360.6563" y2="394.4922"/><polygon fill="#181818" points="163.5537,384.4922,167.5537,394.4922,171.5537,384.4922,167.5537,388.4922" style="stroke:#181818;stroke-width:1.0;"/><line style="stroke:#181818;stroke-width:1.0;" x1="167.5537" x2="167.5537" y1="429.5859" y2="464.5859"/><polygon fill="#181818" points="163.5537,454.5859,167.5537,464.5859,171.5537,454.5859,167.5537,458.5859" style="stroke:#181818;stroke-width:1.0;"/><line style="stroke:#181818;stroke-width:1.0;" x1="81.0264" x2="81.0264" y1="603.7734" y2="637.6094"/><polygon fill="#181818" points="77.0264,627.6094,81.0264,637.6094,85.0264,627.6094,81.0264,631.6094" style="stroke:#181818;stroke-width:1.0;"/><line style="stroke:#181818;stroke-width:1.0;" x1="254.0811" x2="254.0811" y1="603.7734" y2="637.6094"/><polygon fill="#181818" points="250.0811,627.6094,254.0811,637.6094,258.0811,627.6094,254.0811,631.6094" style="stroke:#181818;stroke-width:1.0;"/><line style="stroke:#181818;stroke-width:1.0;" x1="254.0811" x2="254.0811" y1="672.7031" y2="707.7031"/><polygon fill="#181818" points="250.0811,697.7031,254.0811,707.7031,258.0811,697.7031,254.0811,701.7031" style="stroke:#181818;stroke-width:1.0;"/><line style="stroke:#181818;stroke-width:1.0;" x1="254.0811" x2="254.0811" y1="742.7969" y2="762.7969"/><polygon fill="#181818" points="250.0811,752.7969,254.0811,762.7969,258.0811,752.7969,254.0811,756.7969" style="stroke:#181818;stroke-width:1.0;"/><line style="stroke:#181818;stroke-width:1.0;" x1="254.0811" x2="254.0811" y1="797.8906" y2="817.8906"/><polygon fill="#181818" points="250.0811,807.8906,254.0811,817.8906,258.0811,807.8906,254.0811,811.8906" style="stroke:#181818;stroke-width:1.0;"/><line style="stroke:#181818;stroke-width:1.0;" x1="106.3303" x2="81.0264" y1="546.6797" y2="546.6797"/><line style="stroke:#181818;stroke-width:1.0;" x1="81.0264" x2="81.0264" y1="546.6797" y2="568.6797"/><polygon fill="#181818" points="77.0264,558.6797,81.0264,568.6797,85.0264,558.6797,81.0264,562.6797" style="stroke:#181818;stroke-width:1.0;"/><line style="stroke:#181818;stroke-width:1.0;" x1="228.7771" x2="254.0811" y1="546.6797" y2="546.6797"/><line style="stroke:#181818;stroke-width:1.0;" x1="254.0811" x2="254.0811" y1="546.6797" y2="568.6797"/><polygon fill="#181818" points="250.0811,558.6797,254.0811,568.6797,258.0811,558.6797,254.0811,562.6797" style="stroke:#181818;stroke-width:1.0;"/><line style="stroke:#181818;stroke-width:1.0;" x1="254.0811" x2="254.0811" y1="852.9844" y2="857.9844"/><line style="stroke:#181818;stroke-width:1.0;" x1="254.0811" x2="167.5537" y1="857.9844" y2="857.9844"/><line style="stroke:#181818;stroke-width:1.0;" x1="167.5537" x2="167.5537" y1="857.9844" y2="872.9844"/><polygon fill="#181818" points="163.5537,862.9844,167.5537,872.9844,171.5537,862.9844,167.5537,866.9844" style="stroke:#181818;stroke-width:1.0;"/><line style="stroke:#181818;stroke-width:1.0;" x1="167.5537" x2="167.5537" y1="499.6797" y2="534.6797"/><polygon fill="#181818" points="163.5537,524.6797,167.5537,534.6797,171.5537,524.6797,167.5537,528.6797" style="stroke:#181818;stroke-width:1.0;"/><line style="stroke:#181818;stroke-width:1.0;" x1="538.207" x2="538.207" y1="277.8906" y2="311.7266"/><polygon fill="#181818" points="534.207,301.7266,538.207,311.7266,542.207,301.7266,538.207,305.7266" style="stroke:#181818;stroke-width:1.0;"/><line style="stroke:#181818;stroke-width:1.0;" x1="444.499" x2="444.499" y1="449.75" y2="484.75"/><polygon fill="#181818" points="440.499,474.75,444.499,484.75,448.499,474.75,444.499,478.75" style="stroke:#181818;stroke-width:1.0;"/><line style="stroke:#181818;stroke-width:1.0;" x1="444.499" x2="444.499" y1="519.8438" y2="554.8438"/><polygon fill="#181818" points="440.499,544.8438,444.499,554.8438,448.499,544.8438,444.499,548.8438" style="stroke:#181818;stroke-width:1.0;"/><line style="stroke:#181818;stroke-width:1.0;" x1="444.499" x2="444.499" y1="589.9375" y2="623.7734"/><polygon fill="#181818" points="440.499,613.7734,444.499,623.7734,448.499,613.7734,444.499,617.7734" style="stroke:#181818;stroke-width:1.0;"/><line style="stroke:#181818;stroke-width:1.0;" x1="491.6548" x2="444.499" y1="392.6563" y2="392.6563"/><line style="stroke:#181818;stroke-width:1.0;" x1="444.499" x2="444.499" y1="392.6563" y2="414.6563"/><polygon fill="#181818" points="440.499,404.6563,444.499,414.6563,448.499,404.6563,444.499,408.6563" style="stroke:#181818;stroke-width:1.0;"/><line style="stroke:#181818;stroke-width:1.0;" x1="584.7593" x2="631.915" y1="392.6563" y2="392.6563"/><line style="stroke:#181818;stroke-width:1.0;" x1="631.915" x2="631.915" y1="392.6563" y2="414.6563"/><polygon fill="#181818" points="627.915,404.6563,631.915,414.6563,635.915,404.6563,631.915,408.6563" style="stroke:#181818;stroke-width:1.0;"/><line style="stroke:#181818;stroke-width:1.0;" x1="444.499" x2="444.499" y1="658.8672" y2="676.8672"/><line style="stroke:#181818;stroke-width:1.0;" x1="444.499" x2="526.207" y1="676.8672" y2="676.8672"/><polygon fill="#181818" points="516.207,672.8672,526.207,676.8672,516.207,680.8672,520.207,676.8672" style="stroke:#181818;stroke-width:1.0;"/><line style="stroke:#181818;stroke-width:1.0;" x1="631.915" x2="631.915" y1="449.75" y2="676.8672"/><line style="stroke:#181818;stroke-width:1.0;" x1="631.915" x2="550.207" y1="676.8672" y2="676.8672"/><polygon fill="#181818" points="560.207,672.8672,550.207,676.8672,560.207,680.8672,556.207,676.8672" style="stroke:#181818;stroke-width:1.0;"/><line style="stroke:#181818;stroke-width:1.0;" x1="538.207" x2="538.207" y1="346.8203" y2="380.6563"/><polygon fill="#181818" points="534.207,370.6563,538.207,380.6563,542.207,370.6563,538.207,374.6563" style="stroke:#181818;stroke-width:1.0;"/><line style="stroke:#181818;stroke-width:1.0;" x1="826.3223" x2="826.3223" y1="277.8906" y2="311.7266"/><polygon fill="#181818" points="822.3223,301.7266,826.3223,311.7266,830.3223,301.7266,826.3223,305.7266" style="stroke:#181818;stroke-width:1.0;"/><line style="stroke:#181818;stroke-width:1.0;" x1="826.3223" x2="826.3223" y1="346.8203" y2="380.6563"/><polygon fill="#181818" points="822.3223,370.6563,826.3223,380.6563,830.3223,370.6563,826.3223,374.6563" style="stroke:#181818;stroke-width:1.0;"/><line style="stroke:#181818;stroke-width:1.0;" x1="1033.4277" x2="1033.4277" y1="277.8906" y2="311.7266"/><polygon fill="#181818" points="1029.4277,301.7266,1033.4277,311.7266,1037.4277,301.7266,1033.4277,305.7266" style="stroke:#181818;stroke-width:1.0;"/><line style="stroke:#181818;stroke-width:1.0;" x1="1033.4277" x2="1033.4277" y1="346.8203" y2="380.6563"/><polygon fill="#181818" points="1029.4277,370.6563,1033.4277,380.6563,1037.4277,370.6563,1033.4277,374.6563" style="stroke:#181818;stroke-width:1.0;"/><line style="stroke:#181818;stroke-width:1.0;" x1="167.5537" x2="167.5537" y1="222.7969" y2="256.6328"/><polygon fill="#181818" points="163.5537,246.6328,167.5537,256.6328,171.5537,246.6328,167.5537,250.6328" style="stroke:#181818;stroke-width:1.0;"/><line style="stroke:#181818;stroke-width:1.0;" x1="538.207" x2="538.207" y1="222.7969" y2="242.7969"/><polygon fill="#181818" points="534.207,232.7969,538.207,242.7969,542.207,232.7969,538.207,236.7969" style="stroke:#181818;stroke-width:1.0;"/><line style="stroke:#181818;stroke-width:1.0;" x1="538.207" x2="538.207" y1="688.8672" y2="872.9844"/><polygon fill="#181818" points="534.207,862.9844,538.207,872.9844,542.207,862.9844,538.207,866.9844" style="stroke:#181818;stroke-width:1.0;"/><line style="stroke:#181818;stroke-width:1.0;" x1="826.3223" x2="826.3223" y1="222.7969" y2="242.7969"/><polygon fill="#181818" points="822.3223,232.7969,826.3223,242.7969,830.3223,232.7969,826.3223,236.7969" style="stroke:#181818;stroke-width:1.0;"/><line style="stroke:#181818;stroke-width:1.0;" x1="826.3223" x2="826.3223" y1="415.75" y2="872.9844"/><polygon fill="#181818" points="822.3223,862.9844,826.3223,872.9844,830.3223,862.9844,826.3223,866.9844" style="stroke:#181818;stroke-width:1.0;"/><line style="stroke:#181818;stroke-width:1.0;" x1="1033.4277" x2="1033.4277" y1="222.7969" y2="242.7969"/><polygon fill="#181818" points="1029.4277,232.7969,1033.4277,242.7969,1037.4277,232.7969,1033.4277,236.7969" style="stroke:#181818;stroke-width:1.0;"/><line style="stroke:#181818;stroke-width:1.0;" x1="1033.4277" x2="1033.4277" y1="415.75" y2="872.9844"/><polygon fill="#181818" points="1029.4277,862.9844,1033.4277,872.9844,1037.4277,862.9844,1033.4277,866.9844" style="stroke:#181818;stroke-width:1.0;"/><line style="stroke:#181818;stroke-width:1.0;" x1="204.3145" x2="513.0586" y1="210.7969" y2="210.7969"/><polygon fill="#181818" points="503.0586,206.7969,513.0586,210.7969,503.0586,214.7969,507.0586,210.7969" style="stroke:#181818;stroke-width:1.0;"/><line style="stroke:#181818;stroke-width:1.0;" x1="563.3555" x2="786.8035" y1="210.7969" y2="210.7969"/><polygon fill="#181818" points="776.8035,206.7969,786.8035,210.7969,776.8035,214.7969,780.8035,210.7969" style="stroke:#181818;stroke-width:1.0;"/><line style="stroke:#181818;stroke-width:1.0;" x1="865.8411" x2="994.532" y1="210.7969" y2="210.7969"/><polygon fill="#181818" points="984.532,206.7969,994.532,210.7969,984.532,214.7969,988.532,210.7969" style="stroke:#181818;stroke-width:1.0;"/><line style="stroke:#181818;stroke-width:1.0;" x1="583.5762" x2="583.5762" y1="178.7969" y2="183.7969"/><line style="stroke:#181818;stroke-width:1.0;" x1="583.5762" x2="167.5537" y1="183.7969" y2="183.7969"/><line style="stroke:#181818;stroke-width:1.0;" x1="167.5537" x2="167.5537" y1="183.7969" y2="198.7969"/><polygon fill="#181818" points="163.5537,188.7969,167.5537,198.7969,171.5537,188.7969,167.5537,192.7969" style="stroke:#181818;stroke-width:1.0;"/><line style="stroke:#181818;stroke-width:1.0;" x1="1072.3235" x2="1150.1523" y1="210.7969" y2="210.7969"/><line style="stroke:#181818;stroke-width:1.0;" x1="1150.1523" x2="1150.1523" y1="210.7969" y2="872.9844"/><polygon fill="#181818" points="1146.1523,862.9844,1150.1523,872.9844,1154.1523,862.9844,1150.1523,866.9844" style="stroke:#181818;stroke-width:1.0;"/><line style="stroke:#181818;stroke-width:1.0;" x1="167.5537" x2="1150.1523" y1="872.9844" y2="872.9844"/><line style="stroke:#181818;stroke-width:1.0;" x1="583.5762" x2="583.5762" y1="872.9844" y2="892.9844"/><polygon fill="#181818" points="579.5762,882.9844,583.5762,892.9844,587.5762,882.9844,583.5762,886.9844" style="stroke:#181818;stroke-width:1.0;"/><line style="stroke:#181818;stroke-width:1.0;" x1="583.5762" x2="583.5762" y1="928.0781" y2="948.0781"/><polygon fill="#181818" points="579.5762,938.0781,583.5762,948.0781,587.5762,938.0781,583.5762,942.0781" style="stroke:#181818;stroke-width:1.0;"/><!--SRC=[fLJBRjj03BphAtYqVy56KJGn-a1wC1AxToQY94Bx47QvDVhtvQviHNBiNge38Ob3xd18hh0OWYzlmhzP_i2EiGreD_14nXk41-pGgUrJLKN185MrsPDhs-GGhBvW7ob2XmQj0byB_5NXMmM-S1Io6OPsODEhgyP6ivnnTOvte7abHGtW1bPxDjo1PkNFQv2E7AmEQ1M_ha2VpM5ArVXWGOflSMw1BJXoP50AECBk8Imxjiag7T_VmzGK-y23lgsyMk_Gh4TiCRc0NsYunik9oN4_5R9BW-4UPIpbgfo1ebeAmOVjv5SkG_aW4mbMHyqs2_v6ZW8AmV7uO_SUfBhReMWj-46P4K1oLXtmX0O-mPEFthKpoAC62nZVQY_AR63StgBjl72ZHMd1CULP657aQcv6OJBrBCmnDx4eSREJLBFSaZtb_kPIxkcSVPF4vU_wWnG3XJHhVd5zPqckXMHGxLcDdeH2L2guWFwl6ALv1wNRmpN1Vmp03Gr_SgT47b3UxaWvxPSYjjVEFg6JJ3xhSGSZgaQh8z5JZIQTCCIBy1SEZoHQntxtTSxWVTNRP8TqvYBBbPlcLOENopzVkfq_EUEnXePDWSxEXvNMhZjNZTfKcsTg0iLkUQ-Sxv-oF7y1]--></g></svg>