<svg xmlns="http://www.w3.org/2000/svg" xmlns:xlink="http://www.w3.org/1999/xlink" contentStyleType="text/css" height="997px" preserveAspectRatio="none" style="width:937px;height:997px;background:#FFFFFF;" version="1.1" viewBox="0 0 937 997" width="937px" zoomAndPan="magnify"><title>Activity Diagram: Kelola Supplier</title><defs/><g><text fill="#000000" font-family="sans-serif" font-size="14" font-weight="bold" lengthAdjust="spacing" textLength="220.9443" x="356.689" y="34.5332">Activity Diagram: Kelola Supplier</text><ellipse cx="469.1611" cy="58.6094" fill="#222222" rx="10" ry="10" style="stroke:#222222;stroke-width:1.0;"/><rect fill="#F1F1F1" height="35.0938" rx="12.5" ry="12.5" style="stroke:#181818;stroke-width:0.5;" width="234.1426" x="352.0898" y="88.6094"/><text fill="#000000" font-family="sans-serif" font-size="12" lengthAdjust="spacing" textLength="214.1426" x="362.0898" y="111.0664">Pengguna mengakses halaman supplier</text><rect fill="#F1F1F1" height="35.0938" rx="12.5" ry="12.5" style="stroke:#181818;stroke-width:0.5;" width="210.752" x="363.7852" y="143.7031"/><text fill="#000000" font-family="sans-serif" font-size="12" lengthAdjust="spacing" textLength="190.752" x="373.7852" y="166.1602">Sistem menampilkan daftar supplier</text><polygon fill="#F1F1F1" points="155.7949,198.7969,205.3164,198.7969,217.3164,210.7969,205.3164,222.7969,155.7949,222.7969,143.7949,210.7969,155.7949,198.7969" style="stroke:#181818;stroke-width:0.5;"/><text fill="#000000" font-family="sans-serif" font-size="11" lengthAdjust="spacing" textLength="40.353" x="184.5557" y="234.2158">Tambah</text><text fill="#000000" font-family="sans-serif" font-size="11" lengthAdjust="spacing" textLength="49.5215" x="155.7949" y="215.2979">Pilih aksi?</text><rect fill="#F1F1F1" height="35.0938" rx="12.5" ry="12.5" style="stroke:#181818;stroke-width:0.5;" width="191.4043" x="84.8535" y="256.6328"/><text fill="#000000" font-family="sans-serif" font-size="12" lengthAdjust="spacing" textLength="171.4043" x="94.8535" y="279.0898">Tampilkan form tambah supplier</text><rect fill="#F1F1F1" height="35.0938" rx="12.5" ry="12.5" style="stroke:#181818;stroke-width:0.5;" width="194.123" x="83.4941" y="325.5625"/><text fill="#000000" font-family="sans-serif" font-size="12" lengthAdjust="spacing" textLength="174.123" x="93.4941" y="348.0195">Pengguna mengisi data identitas</text><rect fill="#F1F1F1" height="35.0938" rx="12.5" ry="12.5" style="stroke:#181818;stroke-width:0.5;" width="184.7832" x="88.1641" y="394.4922"/><text fill="#000000" font-family="sans-serif" font-size="12" lengthAdjust="spacing" textLength="164.7832" x="98.1641" y="416.9492">Pengguna mengisi data kontak</text><rect fill="#F1F1F1" height="35.0938" rx="12.5" ry="12.5" style="stroke:#181818;stroke-width:0.5;" width="185.4453" x="87.833" y="464.5859"/><text fill="#000000" font-family="sans-serif" font-size="12" lengthAdjust="spacing" textLength="165.4453" x="97.833" y="487.043">Pengguna mengisi data alamat</text><rect fill="#F1F1F1" height="35.0938" rx="12.5" ry="12.5" style="stroke:#181818;stroke-width:0.5;" width="158.0762" x="101.5176" y="534.6797"/><text fill="#000000" font-family="sans-serif" font-size="12" lengthAdjust="spacing" textLength="138.0762" x="111.5176" y="557.1367">Upload gambar (opsional)</text><polygon fill="#F1F1F1" points="146.0034,604.7734,215.1079,604.7734,227.1079,616.7734,215.1079,628.7734,146.0034,628.7734,134.0034,616.7734,146.0034,604.7734" style="stroke:#181818;stroke-width:0.5;"/><text fill="#000000" font-family="sans-serif" font-size="11" lengthAdjust="spacing" textLength="69.1045" x="146.0034" y="621.2744">Validasi data?</text><text fill="#000000" font-family="sans-serif" font-size="11" lengthAdjust="spacing" textLength="24.46" x="109.5435" y="614.3564">Valid</text><text fill="#000000" font-family="sans-serif" font-size="11" lengthAdjust="spacing" textLength="54.4146" x="227.1079" y="614.3564">Tidak Valid</text><rect fill="#F1F1F1" height="35.0938" rx="12.5" ry="12.5" style="stroke:#181818;stroke-width:0.5;" width="102.6992" x="42.6787" y="638.7734"/><text fill="#000000" font-family="sans-serif" font-size="12" lengthAdjust="spacing" textLength="82.6992" x="52.6787" y="661.2305">Generate UUID</text><rect fill="#F1F1F1" height="35.0938" rx="12.5" ry="12.5" style="stroke:#181818;stroke-width:0.5;" width="132.7344" x="27.6611" y="693.8672"/><text fill="#000000" font-family="sans-serif" font-size="12" lengthAdjust="spacing" textLength="112.7344" x="37.6611" y="716.3242">Simpan data supplier</text><rect fill="#F1F1F1" height="35.0938" rx="12.5" ry="12.5" style="stroke:#181818;stroke-width:0.5;" width="114.7109" x="36.6729" y="748.9609"/><text fill="#000000" font-family="sans-serif" font-size="12" lengthAdjust="spacing" textLength="94.7109" x="46.6729" y="771.418">Catat log aktivitas</text><rect fill="#F1F1F1" height="35.0938" rx="12.5" ry="12.5" style="stroke:#181818;stroke-width:0.5;" width="166.0566" x="11" y="804.0547"/><text fill="#000000" font-family="sans-serif" font-size="12" lengthAdjust="spacing" textLength="146.0566" x="21" y="826.5117">Tampilkan notifikasi sukses</text><rect fill="#F1F1F1" height="35.0938" rx="12.5" ry="12.5" style="stroke:#181818;stroke-width:0.5;" width="140.0527" x="197.0566" y="638.7734"/><text fill="#000000" font-family="sans-serif" font-size="12" lengthAdjust="spacing" textLength="120.0527" x="207.0566" y="661.2305">Tampilkan pesan error</text><polygon fill="#F1F1F1" points="180.5557,845.1484,192.5557,857.1484,180.5557,869.1484,168.5557,857.1484,180.5557,845.1484" style="stroke:#181818;stroke-width:0.5;"/><polygon fill="#F1F1F1" points="503.5166,198.7969,529.8135,198.7969,541.8135,210.7969,529.8135,222.7969,503.5166,222.7969,491.5166,210.7969,503.5166,198.7969" style="stroke:#181818;stroke-width:0.5;"/><text fill="#000000" font-family="sans-serif" font-size="11" lengthAdjust="spacing" textLength="26.2969" x="503.5166" y="215.2979">Ubah</text><rect fill="#F1F1F1" height="35.0938" rx="12.5" ry="12.5" style="stroke:#181818;stroke-width:0.5;" width="239.457" x="396.9365" y="242.7969"/><text fill="#000000" font-family="sans-serif" font-size="12" lengthAdjust="spacing" textLength="219.457" x="406.9365" y="265.2539">Tampilkan form edit dengan data existing</text><rect fill="#F1F1F1" height="35.0938" rx="12.5" ry="12.5" style="stroke:#181818;stroke-width:0.5;" width="161.457" x="435.9365" y="311.7266"/><text fill="#000000" font-family="sans-serif" font-size="12" lengthAdjust="spacing" textLength="141.457" x="445.9365" y="334.1836">Pengguna mengubah data</text><polygon fill="#F1F1F1" points="482.1128,380.6563,551.2173,380.6563,563.2173,392.6563,551.2173,404.6563,482.1128,404.6563,470.1128,392.6563,482.1128,380.6563" style="stroke:#181818;stroke-width:0.5;"/><text fill="#000000" font-family="sans-serif" font-size="11" lengthAdjust="spacing" textLength="69.1045" x="482.1128" y="397.1572">Validasi data?</text><text fill="#000000" font-family="sans-serif" font-size="11" lengthAdjust="spacing" textLength="24.46" x="445.6528" y="390.2393">Valid</text><text fill="#000000" font-family="sans-serif" font-size="11" lengthAdjust="spacing" textLength="54.4146" x="563.2173" y="390.2393">Tidak Valid</text><rect fill="#F1F1F1" height="35.0938" rx="12.5" ry="12.5" style="stroke:#181818;stroke-width:0.5;" width="121.4082" x="369.4336" y="414.6563"/><text fill="#000000" font-family="sans-serif" font-size="12" lengthAdjust="spacing" textLength="101.4082" x="379.4336" y="437.1133">Simpan perubahan</text><rect fill="#F1F1F1" height="35.0938" rx="12.5" ry="12.5" style="stroke:#181818;stroke-width:0.5;" width="114.7109" x="372.7822" y="484.75"/><text fill="#000000" font-family="sans-serif" font-size="12" lengthAdjust="spacing" textLength="94.7109" x="382.7822" y="507.207">Catat log aktivitas</text><rect fill="#F1F1F1" height="35.0938" rx="12.5" ry="12.5" style="stroke:#181818;stroke-width:0.5;" width="166.0566" x="347.1094" y="554.8438"/><text fill="#000000" font-family="sans-serif" font-size="12" lengthAdjust="spacing" textLength="146.0566" x="357.1094" y="577.3008">Tampilkan notifikasi sukses</text><rect fill="#F1F1F1" height="35.0938" rx="12.5" ry="12.5" style="stroke:#181818;stroke-width:0.5;" width="140.0527" x="533.166" y="414.6563"/><text fill="#000000" font-family="sans-serif" font-size="12" lengthAdjust="spacing" textLength="120.0527" x="543.166" y="437.1133">Tampilkan pesan error</text><polygon fill="#F1F1F1" points="516.665,595.9375,528.665,607.9375,516.665,619.9375,504.665,607.9375,516.665,595.9375" style="stroke:#181818;stroke-width:0.5;"/><polygon fill="#F1F1F1" points="763.3748,198.7969,817.1663,198.7969,829.1663,210.7969,817.1663,222.7969,763.3748,222.7969,751.3748,210.7969,763.3748,198.7969" style="stroke:#181818;stroke-width:0.5;"/><text fill="#000000" font-family="sans-serif" font-size="11" lengthAdjust="spacing" textLength="53.7915" x="763.3748" y="215.2979">Cetak PDF</text><text fill="#000000" font-family="sans-serif" font-size="11" lengthAdjust="spacing" textLength="25.0723" x="829.1663" y="208.3799">Batal</text><rect fill="#F1F1F1" height="35.0938" rx="12.5" ry="12.5" style="stroke:#181818;stroke-width:0.5;" width="214.1035" x="683.2188" y="242.7969"/><text fill="#000000" font-family="sans-serif" font-size="12" lengthAdjust="spacing" textLength="194.1035" x="693.2188" y="265.2539">Sistem mengumpulkan data supplier</text><rect fill="#F1F1F1" height="35.0938" rx="12.5" ry="12.5" style="stroke:#181818;stroke-width:0.5;" width="193.4141" x="693.5635" y="311.7266"/><text fill="#000000" font-family="sans-serif" font-size="12" lengthAdjust="spacing" textLength="173.4141" x="703.5635" y="334.1836">Generate PDF dengan DomPDF</text><rect fill="#F1F1F1" height="35.0938" rx="12.5" ry="12.5" style="stroke:#181818;stroke-width:0.5;" width="119.375" x="730.583" y="380.6563"/><text fill="#000000" font-family="sans-serif" font-size="12" lengthAdjust="spacing" textLength="99.375" x="740.583" y="403.1133">Download file PDF</text><rect fill="#F1F1F1" height="35.0938" rx="12.5" ry="12.5" style="stroke:#181818;stroke-width:0.5;" width="141.3945" x="398.4639" y="909.1484"/><text fill="#000000" font-family="sans-serif" font-size="12" lengthAdjust="spacing" textLength="121.3945" x="408.4639" y="931.6055">Refresh daftar supplier</text><ellipse cx="469.1611" cy="975.2422" fill="none" rx="11" ry="11" style="stroke:#222222;stroke-width:1.0;"/><ellipse cx="469.1611" cy="975.2422" fill="#222222" rx="6" ry="6" style="stroke:#222222;stroke-width:1.0;"/><line style="stroke:#181818;stroke-width:1.0;" x1="469.1611" x2="469.1611" y1="68.6094" y2="88.6094"/><polygon fill="#181818" points="465.1611,78.6094,469.1611,88.6094,473.1611,78.6094,469.1611,82.6094" style="stroke:#181818;stroke-width:1.0;"/><line style="stroke:#181818;stroke-width:1.0;" x1="469.1611" x2="469.1611" y1="123.7031" y2="143.7031"/><polygon fill="#181818" points="465.1611,133.7031,469.1611,143.7031,473.1611,133.7031,469.1611,137.7031" style="stroke:#181818;stroke-width:1.0;"/><line style="stroke:#181818;stroke-width:1.0;" x1="180.5557" x2="180.5557" y1="291.7266" y2="325.5625"/><polygon fill="#181818" points="176.5557,315.5625,180.5557,325.5625,184.5557,315.5625,180.5557,319.5625" style="stroke:#181818;stroke-width:1.0;"/><line style="stroke:#181818;stroke-width:1.0;" x1="180.5557" x2="180.5557" y1="360.6563" y2="394.4922"/><polygon fill="#181818" points="176.5557,384.4922,180.5557,394.4922,184.5557,384.4922,180.5557,388.4922" style="stroke:#181818;stroke-width:1.0;"/><line style="stroke:#181818;stroke-width:1.0;" x1="180.5557" x2="180.5557" y1="429.5859" y2="464.5859"/><polygon fill="#181818" points="176.5557,454.5859,180.5557,464.5859,184.5557,454.5859,180.5557,458.5859" style="stroke:#181818;stroke-width:1.0;"/><line style="stroke:#181818;stroke-width:1.0;" x1="180.5557" x2="180.5557" y1="499.6797" y2="534.6797"/><polygon fill="#181818" points="176.5557,524.6797,180.5557,534.6797,184.5557,524.6797,180.5557,528.6797" style="stroke:#181818;stroke-width:1.0;"/><line style="stroke:#181818;stroke-width:1.0;" x1="94.0283" x2="94.0283" y1="673.8672" y2="693.8672"/><polygon fill="#181818" points="90.0283,683.8672,94.0283,693.8672,98.0283,683.8672,94.0283,687.8672" style="stroke:#181818;stroke-width:1.0;"/><line style="stroke:#181818;stroke-width:1.0;" x1="94.0283" x2="94.0283" y1="728.9609" y2="748.9609"/><polygon fill="#181818" points="90.0283,738.9609,94.0283,748.9609,98.0283,738.9609,94.0283,742.9609" style="stroke:#181818;stroke-width:1.0;"/><line style="stroke:#181818;stroke-width:1.0;" x1="94.0283" x2="94.0283" y1="784.0547" y2="804.0547"/><polygon fill="#181818" points="90.0283,794.0547,94.0283,804.0547,98.0283,794.0547,94.0283,798.0547" style="stroke:#181818;stroke-width:1.0;"/><line style="stroke:#181818;stroke-width:1.0;" x1="134.0034" x2="94.0283" y1="616.7734" y2="616.7734"/><line style="stroke:#181818;stroke-width:1.0;" x1="94.0283" x2="94.0283" y1="616.7734" y2="638.7734"/><polygon fill="#181818" points="90.0283,628.7734,94.0283,638.7734,98.0283,628.7734,94.0283,632.7734" style="stroke:#181818;stroke-width:1.0;"/><line style="stroke:#181818;stroke-width:1.0;" x1="227.1079" x2="267.083" y1="616.7734" y2="616.7734"/><line style="stroke:#181818;stroke-width:1.0;" x1="267.083" x2="267.083" y1="616.7734" y2="638.7734"/><polygon fill="#181818" points="263.083,628.7734,267.083,638.7734,271.083,628.7734,267.083,632.7734" style="stroke:#181818;stroke-width:1.0;"/><line style="stroke:#181818;stroke-width:1.0;" x1="94.0283" x2="94.0283" y1="839.1484" y2="857.1484"/><line style="stroke:#181818;stroke-width:1.0;" x1="94.0283" x2="168.5557" y1="857.1484" y2="857.1484"/><polygon fill="#181818" points="158.5557,853.1484,168.5557,857.1484,158.5557,861.1484,162.5557,857.1484" style="stroke:#181818;stroke-width:1.0;"/><line style="stroke:#181818;stroke-width:1.0;" x1="267.083" x2="267.083" y1="673.8672" y2="857.1484"/><line style="stroke:#181818;stroke-width:1.0;" x1="267.083" x2="192.5557" y1="857.1484" y2="857.1484"/><polygon fill="#181818" points="202.5557,853.1484,192.5557,857.1484,202.5557,861.1484,198.5557,857.1484" style="stroke:#181818;stroke-width:1.0;"/><line style="stroke:#181818;stroke-width:1.0;" x1="180.5557" x2="180.5557" y1="569.7734" y2="604.7734"/><polygon fill="#181818" points="176.5557,594.7734,180.5557,604.7734,184.5557,594.7734,180.5557,598.7734" style="stroke:#181818;stroke-width:1.0;"/><line style="stroke:#181818;stroke-width:1.0;" x1="516.665" x2="516.665" y1="277.8906" y2="311.7266"/><polygon fill="#181818" points="512.665,301.7266,516.665,311.7266,520.665,301.7266,516.665,305.7266" style="stroke:#181818;stroke-width:1.0;"/><line style="stroke:#181818;stroke-width:1.0;" x1="430.1377" x2="430.1377" y1="449.75" y2="484.75"/><polygon fill="#181818" points="426.1377,474.75,430.1377,484.75,434.1377,474.75,430.1377,478.75" style="stroke:#181818;stroke-width:1.0;"/><line style="stroke:#181818;stroke-width:1.0;" x1="430.1377" x2="430.1377" y1="519.8438" y2="554.8438"/><polygon fill="#181818" points="426.1377,544.8438,430.1377,554.8438,434.1377,544.8438,430.1377,548.8438" style="stroke:#181818;stroke-width:1.0;"/><line style="stroke:#181818;stroke-width:1.0;" x1="470.1128" x2="430.1377" y1="392.6563" y2="392.6563"/><line style="stroke:#181818;stroke-width:1.0;" x1="430.1377" x2="430.1377" y1="392.6563" y2="414.6563"/><polygon fill="#181818" points="426.1377,404.6563,430.1377,414.6563,434.1377,404.6563,430.1377,408.6563" style="stroke:#181818;stroke-width:1.0;"/><line style="stroke:#181818;stroke-width:1.0;" x1="563.2173" x2="603.1924" y1="392.6563" y2="392.6563"/><line style="stroke:#181818;stroke-width:1.0;" x1="603.1924" x2="603.1924" y1="392.6563" y2="414.6563"/><polygon fill="#181818" points="599.1924,404.6563,603.1924,414.6563,607.1924,404.6563,603.1924,408.6563" style="stroke:#181818;stroke-width:1.0;"/><line style="stroke:#181818;stroke-width:1.0;" x1="430.1377" x2="430.1377" y1="589.9375" y2="607.9375"/><line style="stroke:#181818;stroke-width:1.0;" x1="430.1377" x2="504.665" y1="607.9375" y2="607.9375"/><polygon fill="#181818" points="494.665,603.9375,504.665,607.9375,494.665,611.9375,498.665,607.9375" style="stroke:#181818;stroke-width:1.0;"/><line style="stroke:#181818;stroke-width:1.0;" x1="603.1924" x2="603.1924" y1="449.75" y2="607.9375"/><line style="stroke:#181818;stroke-width:1.0;" x1="603.1924" x2="528.665" y1="607.9375" y2="607.9375"/><polygon fill="#181818" points="538.665,603.9375,528.665,607.9375,538.665,611.9375,534.665,607.9375" style="stroke:#181818;stroke-width:1.0;"/><line style="stroke:#181818;stroke-width:1.0;" x1="516.665" x2="516.665" y1="346.8203" y2="380.6563"/><polygon fill="#181818" points="512.665,370.6563,516.665,380.6563,520.665,370.6563,516.665,374.6563" style="stroke:#181818;stroke-width:1.0;"/><line style="stroke:#181818;stroke-width:1.0;" x1="790.2705" x2="790.2705" y1="277.8906" y2="311.7266"/><polygon fill="#181818" points="786.2705,301.7266,790.2705,311.7266,794.2705,301.7266,790.2705,305.7266" style="stroke:#181818;stroke-width:1.0;"/><line style="stroke:#181818;stroke-width:1.0;" x1="790.2705" x2="790.2705" y1="346.8203" y2="380.6563"/><polygon fill="#181818" points="786.2705,370.6563,790.2705,380.6563,794.2705,370.6563,790.2705,374.6563" style="stroke:#181818;stroke-width:1.0;"/><line style="stroke:#181818;stroke-width:1.0;" x1="180.5557" x2="180.5557" y1="222.7969" y2="256.6328"/><polygon fill="#181818" points="176.5557,246.6328,180.5557,256.6328,184.5557,246.6328,180.5557,250.6328" style="stroke:#181818;stroke-width:1.0;"/><line style="stroke:#181818;stroke-width:1.0;" x1="180.5557" x2="180.5557" y1="869.1484" y2="889.1484"/><polygon fill="#181818" points="176.5557,879.1484,180.5557,889.1484,184.5557,879.1484,180.5557,883.1484" style="stroke:#181818;stroke-width:1.0;"/><line style="stroke:#181818;stroke-width:1.0;" x1="516.665" x2="516.665" y1="222.7969" y2="242.7969"/><polygon fill="#181818" points="512.665,232.7969,516.665,242.7969,520.665,232.7969,516.665,236.7969" style="stroke:#181818;stroke-width:1.0;"/><line style="stroke:#181818;stroke-width:1.0;" x1="516.665" x2="516.665" y1="619.9375" y2="889.1484"/><polygon fill="#181818" points="512.665,879.1484,516.665,889.1484,520.665,879.1484,516.665,883.1484" style="stroke:#181818;stroke-width:1.0;"/><line style="stroke:#181818;stroke-width:1.0;" x1="790.2705" x2="790.2705" y1="222.7969" y2="242.7969"/><polygon fill="#181818" points="786.2705,232.7969,790.2705,242.7969,794.2705,232.7969,790.2705,236.7969" style="stroke:#181818;stroke-width:1.0;"/><line style="stroke:#181818;stroke-width:1.0;" x1="790.2705" x2="790.2705" y1="415.75" y2="889.1484"/><polygon fill="#181818" points="786.2705,879.1484,790.2705,889.1484,794.2705,879.1484,790.2705,883.1484" style="stroke:#181818;stroke-width:1.0;"/><line style="stroke:#181818;stroke-width:1.0;" x1="217.3164" x2="491.5166" y1="210.7969" y2="210.7969"/><polygon fill="#181818" points="481.5166,206.7969,491.5166,210.7969,481.5166,214.7969,485.5166,210.7969" style="stroke:#181818;stroke-width:1.0;"/><line style="stroke:#181818;stroke-width:1.0;" x1="541.8135" x2="751.3748" y1="210.7969" y2="210.7969"/><polygon fill="#181818" points="741.3748,206.7969,751.3748,210.7969,741.3748,214.7969,745.3748,210.7969" style="stroke:#181818;stroke-width:1.0;"/><line style="stroke:#181818;stroke-width:1.0;" x1="469.1611" x2="469.1611" y1="178.7969" y2="183.7969"/><line style="stroke:#181818;stroke-width:1.0;" x1="469.1611" x2="180.5557" y1="183.7969" y2="183.7969"/><line style="stroke:#181818;stroke-width:1.0;" x1="180.5557" x2="180.5557" y1="183.7969" y2="198.7969"/><polygon fill="#181818" points="176.5557,188.7969,180.5557,198.7969,184.5557,188.7969,180.5557,192.7969" style="stroke:#181818;stroke-width:1.0;"/><line style="stroke:#181818;stroke-width:1.0;" x1="829.1663" x2="911.3223" y1="210.7969" y2="210.7969"/><line style="stroke:#181818;stroke-width:1.0;" x1="911.3223" x2="911.3223" y1="210.7969" y2="889.1484"/><polygon fill="#181818" points="907.3223,879.1484,911.3223,889.1484,915.3223,879.1484,911.3223,883.1484" style="stroke:#181818;stroke-width:1.0;"/><line style="stroke:#181818;stroke-width:1.0;" x1="180.5557" x2="911.3223" y1="889.1484" y2="889.1484"/><line style="stroke:#181818;stroke-width:1.0;" x1="469.1611" x2="469.1611" y1="889.1484" y2="909.1484"/><polygon fill="#181818" points="465.1611,899.1484,469.1611,909.1484,473.1611,899.1484,469.1611,903.1484" style="stroke:#181818;stroke-width:1.0;"/><line style="stroke:#181818;stroke-width:1.0;" x1="469.1611" x2="469.1611" y1="944.2422" y2="964.2422"/><polygon fill="#181818" points="465.1611,954.2422,469.1611,964.2422,473.1611,954.2422,469.1611,958.2422" style="stroke:#181818;stroke-width:1.0;"/><!--SRC=[pLFBJiGm3BptAtpS_ONT0m8g4EAoObdkXhgjrRoKk3p-7YSjT84L1qxq43NnPEmPEy9Y2CwVX9zPtg1cx2BQ3ToIyGPXFuPWc69L9S4eLRNPaUkwqI5O_S4XKO8U3Lfqa6RmLc5xJa8sWz06DeE66soLunZ5BQnsRBW79UApDKXF3bRtQ1-nNrUWt-R-ytxhemKfiIEI0lfI52VMN8B03JbXmVGhQl1ESFWLKlJ933a4ux61BXSIOUL3Ok_GhATmMRAk1pJSuCpmAQsSJieAsJKvYYW4XyDDlLtEzsn3iKopVzLQmfTwBc1yfyQLpdre_6QPyy8j3xcCDEPUJIWoYTHchM-0xnKjbmCbNIb6FwScrt0xgSmCMUKXDwfeEzajQbYWoOCoQw5NdGjstIcxnzpOZFgJaxDZWMBcGVSVtReadJJOrLV7bYqlfHjj6EUdygFlowZe_GzFQszrDmDg_-BAQBPi2cgxP8VLXLAQTJLLLMtkg8sK-XEFCeaFrJi0]--></g></svg>