<svg xmlns="http://www.w3.org/2000/svg" xmlns:xlink="http://www.w3.org/1999/xlink" contentStyleType="text/css" height="1564px" preserveAspectRatio="none" style="width:860px;height:1564px;background:#FFFFFF;" version="1.1" viewBox="0 0 860 1564" width="860px" zoomAndPan="magnify"><title>Activity Diagram: Pembuatan Laporan</title><defs/><g><text fill="#000000" font-family="sans-serif" font-size="14" font-weight="bold" lengthAdjust="spacing" textLength="253.6133" x="301.9883" y="34.5332">Activity Diagram: Pembuatan Laporan</text><ellipse cx="430.0664" cy="58.6094" fill="#222222" rx="10" ry="10" style="stroke:#222222;stroke-width:1.0;"/><rect fill="#F1F1F1" height="35.0938" rx="12.5" ry="12.5" style="stroke:#181818;stroke-width:0.5;" width="232.1504" x="313.9912" y="88.6094"/><text fill="#000000" font-family="sans-serif" font-size="12" lengthAdjust="spacing" textLength="212.1504" x="323.9912" y="111.0664">Pengguna mengakses halaman laporan</text><polygon fill="#F1F1F1" points="54.8777,143.7031,147.2122,143.7031,159.2122,155.7031,147.2122,167.7031,54.8777,167.7031,42.8777,155.7031,54.8777,143.7031" style="stroke:#181818;stroke-width:0.5;"/><text fill="#000000" font-family="sans-serif" font-size="11" lengthAdjust="spacing" textLength="68.4868" x="105.0449" y="179.1221">Laporan Kasir</text><text fill="#000000" font-family="sans-serif" font-size="11" lengthAdjust="spacing" textLength="92.3345" x="54.8777" y="160.2041">Pilih jenis laporan?</text><rect fill="#F1F1F1" height="35.0938" rx="12.5" ry="12.5" style="stroke:#181818;stroke-width:0.5;" width="180.0898" x="11" y="201.5391"/><text fill="#000000" font-family="sans-serif" font-size="12" lengthAdjust="spacing" textLength="160.0898" x="21" y="223.9961">Akses halaman Laporan Kasir</text><rect fill="#F1F1F1" height="35.0938" rx="12.5" ry="12.5" style="stroke:#181818;stroke-width:0.5;" width="170.0469" x="16.0215" y="270.4688"/><text fill="#000000" font-family="sans-serif" font-size="12" lengthAdjust="spacing" textLength="150.0469" x="26.0215" y="292.9258">Tampilkan statistik transaksi</text><polygon fill="#F1F1F1" points="267.2405,143.7031,353.4626,143.7031,365.4626,155.7031,353.4626,167.7031,267.2405,167.7031,255.2405,155.7031,267.2405,143.7031" style="stroke:#181818;stroke-width:0.5;"/><text fill="#000000" font-family="sans-serif" font-size="11" lengthAdjust="spacing" textLength="86.2222" x="267.2405" y="160.2041">Laporan Produksi</text><rect fill="#F1F1F1" height="35.0938" rx="12.5" ry="12.5" style="stroke:#181818;stroke-width:0.5;" width="199.4375" x="210.6328" y="187.7031"/><text fill="#000000" font-family="sans-serif" font-size="12" lengthAdjust="spacing" textLength="179.4375" x="220.6328" y="210.1602">Akses halaman Laporan Produksi</text><rect fill="#F1F1F1" height="35.0938" rx="12.5" ry="12.5" style="stroke:#181818;stroke-width:0.5;" width="167.3867" x="226.6582" y="256.6328"/><text fill="#000000" font-family="sans-serif" font-size="12" lengthAdjust="spacing" textLength="147.3867" x="236.6582" y="279.0898">Tampilkan statistik produksi</text><polygon fill="#F1F1F1" points="486.6504,143.7031,572.2656,143.7031,584.2656,155.7031,572.2656,167.7031,486.6504,167.7031,474.6504,155.7031,486.6504,143.7031" style="stroke:#181818;stroke-width:0.5;"/><text fill="#000000" font-family="sans-serif" font-size="11" lengthAdjust="spacing" textLength="85.6152" x="486.6504" y="160.2041">Laporan Inventori</text><text fill="#000000" font-family="sans-serif" font-size="11" lengthAdjust="spacing" textLength="53.813" x="584.2656" y="153.2861">Dashboard</text><rect fill="#F1F1F1" height="35.0938" rx="12.5" ry="12.5" style="stroke:#181818;stroke-width:0.5;" width="198.7754" x="430.0703" y="187.7031"/><text fill="#000000" font-family="sans-serif" font-size="12" lengthAdjust="spacing" textLength="178.7754" x="440.0703" y="210.1602">Akses halaman Laporan Inventori</text><rect fill="#F1F1F1" height="35.0938" rx="12.5" ry="12.5" style="stroke:#181818;stroke-width:0.5;" width="172.748" x="443.084" y="256.6328"/><text fill="#000000" font-family="sans-serif" font-size="12" lengthAdjust="spacing" textLength="152.748" x="453.084" y="279.0898">Tampilkan status stok bahan</text><rect fill="#F1F1F1" height="35.0938" rx="12.5" ry="12.5" style="stroke:#181818;stroke-width:0.5;" width="200.7441" x="648.8457" y="197.6211"/><text fill="#000000" font-family="sans-serif" font-size="12" lengthAdjust="spacing" textLength="180.7441" x="658.8457" y="220.0781">Akses halaman Ringkasan Umum</text><rect fill="#F1F1F1" height="35.0938" rx="12.5" ry="12.5" style="stroke:#181818;stroke-width:0.5;" width="164.041" x="667.1973" y="266.5508"/><text fill="#000000" font-family="sans-serif" font-size="12" lengthAdjust="spacing" textLength="144.041" x="677.1973" y="289.0078">Tampilkan overview sistem</text><rect fill="none" height="523.1836" style="stroke:#000000;stroke-width:1.5;" width="238.7539" x="315.6865" y="335.5625"/><path d="M445.5137,335.5625 L445.5137,346.1719 L435.5137,356.1719 L315.6865,356.1719 " fill="none" style="stroke:#000000;stroke-width:1.5;"/><text fill="#000000" font-family="sans-serif" font-size="14" lengthAdjust="spacing" textLength="119.8271" x="318.6865" y="351.0957">Filter dan Tampilan</text><rect fill="#F1F1F1" height="35.0938" rx="12.5" ry="12.5" style="stroke:#181818;stroke-width:0.5;" width="208.7598" x="325.6865" y="373.1719"/><text fill="#000000" font-family="sans-serif" font-size="12" lengthAdjust="spacing" textLength="188.7598" x="335.6865" y="395.6289">Atur periode tanggal (dari - sampai)</text><rect fill="#F1F1F1" height="35.0938" rx="12.5" ry="12.5" style="stroke:#181818;stroke-width:0.5;" width="184.748" x="337.6924" y="477.1836"/><text fill="#000000" font-family="sans-serif" font-size="12" lengthAdjust="spacing" textLength="164.748" x="347.6924" y="499.6406">Pilih filter berdasarkan kategori</text><rect fill="#F1F1F1" height="35.0938" rx="12.5" ry="12.5" style="stroke:#181818;stroke-width:0.5;" width="174.0723" x="343.0303" y="547.2773"/><text fill="#000000" font-family="sans-serif" font-size="12" lengthAdjust="spacing" textLength="154.0723" x="353.0303" y="569.7344">Pilih filter berdasarkan status</text><polygon fill="#F1F1F1" points="388.7949,428.2656,471.3379,428.2656,483.3379,440.2656,471.3379,452.2656,388.7949,452.2656,376.7949,440.2656,388.7949,428.2656" style="stroke:#181818;stroke-width:0.5;"/><text fill="#000000" font-family="sans-serif" font-size="11" lengthAdjust="spacing" textLength="13.4546" x="434.0664" y="463.6846">Ya</text><text fill="#000000" font-family="sans-serif" font-size="11" lengthAdjust="spacing" textLength="82.543" x="388.7949" y="444.7666">Filter tambahan?</text><text fill="#000000" font-family="sans-serif" font-size="11" lengthAdjust="spacing" textLength="26.8984" x="483.3379" y="437.8486">Tidak</text><polygon fill="#F1F1F1" points="430.0664,602.3711,442.0664,614.3711,430.0664,626.3711,418.0664,614.3711,430.0664,602.3711" style="stroke:#181818;stroke-width:0.5;"/><rect fill="#F1F1F1" height="35.0938" rx="12.5" ry="12.5" style="stroke:#181818;stroke-width:0.5;" width="83.3516" x="388.3906" y="646.3711"/><text fill="#000000" font-family="sans-serif" font-size="12" lengthAdjust="spacing" textLength="63.3516" x="398.3906" y="668.8281">Submit filter</text><rect fill="#F1F1F1" height="35.0938" rx="12.5" ry="12.5" style="stroke:#181818;stroke-width:0.5;" width="180.7402" x="339.6963" y="701.4648"/><text fill="#000000" font-family="sans-serif" font-size="12" lengthAdjust="spacing" textLength="160.7402" x="349.6963" y="723.9219">Sistem query data sesuai filter</text><rect fill="#F1F1F1" height="35.0938" rx="12.5" ry="12.5" style="stroke:#181818;stroke-width:0.5;" width="145.4082" x="357.3623" y="756.5586"/><text fill="#000000" font-family="sans-serif" font-size="12" lengthAdjust="spacing" textLength="125.4082" x="367.3623" y="779.0156">Tampilkan data laporan</text><rect fill="#F1F1F1" height="35.0938" rx="12.5" ry="12.5" style="stroke:#181818;stroke-width:0.5;" width="174.7285" x="342.7021" y="811.6523"/><text fill="#000000" font-family="sans-serif" font-size="12" lengthAdjust="spacing" textLength="154.7285" x="352.7021" y="834.1094">Tampilkan grafik dan statistik</text><rect fill="none" height="642.2773" style="stroke:#000000;stroke-width:1.5;" width="485.6719" x="198.6328" y="868.7461"/><path d="M307.4736,868.7461 L307.4736,879.3555 L297.4736,889.3555 L198.6328,889.3555 " fill="none" style="stroke:#000000;stroke-width:1.5;"/><text fill="#000000" font-family="sans-serif" font-size="14" lengthAdjust="spacing" textLength="98.8408" x="201.6328" y="884.2793">Ekspor Laporan</text><rect fill="#F1F1F1" height="35.0938" rx="12.5" ry="12.5" style="stroke:#181818;stroke-width:0.5;" width="138.7285" x="360.7021" y="955.2734"/><text fill="#000000" font-family="sans-serif" font-size="12" lengthAdjust="spacing" textLength="118.7285" x="370.7021" y="977.7305">Akses halaman export</text><rect fill="#F1F1F1" height="35.0938" rx="12.5" ry="12.5" style="stroke:#181818;stroke-width:0.5;" width="146.7383" x="356.6973" y="1010.3672"/><text fill="#000000" font-family="sans-serif" font-size="12" lengthAdjust="spacing" textLength="126.7383" x="366.6973" y="1032.8242">Konfirmasi periode data</text><polygon fill="#F1F1F1" points="399.4995,1065.4609,460.6333,1065.4609,472.6333,1077.4609,460.6333,1089.4609,399.4995,1089.4609,387.4995,1077.4609,399.4995,1065.4609" style="stroke:#181818;stroke-width:0.5;"/><text fill="#000000" font-family="sans-serif" font-size="11" lengthAdjust="spacing" textLength="61.1338" x="399.4995" y="1081.9619">Pilih format?</text><text fill="#000000" font-family="sans-serif" font-size="11" lengthAdjust="spacing" textLength="22" x="365.4995" y="1075.0439">PDF</text><text fill="#000000" font-family="sans-serif" font-size="11" lengthAdjust="spacing" textLength="26.8984" x="472.6333" y="1075.0439">Excel</text><rect fill="#F1F1F1" height="35.0938" rx="12.5" ry="12.5" style="stroke:#181818;stroke-width:0.5;" width="186.7168" x="228.1758" y="1099.4609"/><text fill="#000000" font-family="sans-serif" font-size="12" lengthAdjust="spacing" textLength="166.7168" x="238.1758" y="1121.918">Controller memanggil DomPDF</text><rect fill="#F1F1F1" height="35.0938" rx="12.5" ry="12.5" style="stroke:#181818;stroke-width:0.5;" width="130.0625" x="256.5029" y="1154.5547"/><text fill="#000000" font-family="sans-serif" font-size="12" lengthAdjust="spacing" textLength="110.0625" x="266.5029" y="1177.0117">Render view laporan</text><rect fill="#F1F1F1" height="35.0938" rx="12.5" ry="12.5" style="stroke:#181818;stroke-width:0.5;" width="116.041" x="263.5137" y="1224.6484"/><text fill="#000000" font-family="sans-serif" font-size="12" lengthAdjust="spacing" textLength="96.041" x="273.5137" y="1247.1055">Generate file PDF</text><rect fill="#F1F1F1" height="35.0938" rx="12.5" ry="12.5" style="stroke:#181818;stroke-width:0.5;" width="119.375" x="261.8467" y="1279.7422"/><text fill="#000000" font-family="sans-serif" font-size="12" lengthAdjust="spacing" textLength="99.375" x="271.8467" y="1302.1992">Download file PDF</text><rect fill="#F1F1F1" height="35.0938" rx="12.5" ry="12.5" style="stroke:#181818;stroke-width:0.5;" width="207.4121" x="434.8926" y="1099.4609"/><text fill="#000000" font-family="sans-serif" font-size="12" lengthAdjust="spacing" textLength="187.4121" x="444.8926" y="1121.918">Panggil Export class (Maatwebsite)</text><rect fill="#F1F1F1" height="35.0938" rx="12.5" ry="12.5" style="stroke:#181818;stroke-width:0.5;" width="155.4219" x="460.8877" y="1154.5547"/><text fill="#000000" font-family="sans-serif" font-size="12" lengthAdjust="spacing" textLength="135.4219" x="470.8877" y="1177.0117">Query data dari database</text><rect fill="#F1F1F1" height="35.0938" rx="12.5" ry="12.5" style="stroke:#181818;stroke-width:0.5;" width="170.082" x="453.5576" y="1224.6484"/><text fill="#000000" font-family="sans-serif" font-size="12" lengthAdjust="spacing" textLength="150.082" x="463.5576" y="1247.1055">Format data ke spreadsheet</text><rect fill="#F1F1F1" height="35.0938" rx="12.5" ry="12.5" style="stroke:#181818;stroke-width:0.5;" width="121.3848" x="477.9063" y="1279.7422"/><text fill="#000000" font-family="sans-serif" font-size="12" lengthAdjust="spacing" textLength="101.3848" x="487.9063" y="1302.1992">Generate file Excel</text><rect fill="#F1F1F1" height="35.0938" rx="12.5" ry="12.5" style="stroke:#181818;stroke-width:0.5;" width="124.7188" x="476.2393" y="1334.8359"/><text fill="#000000" font-family="sans-serif" font-size="12" lengthAdjust="spacing" textLength="104.7188" x="486.2393" y="1357.293">Download file Excel</text><polygon fill="#F1F1F1" points="430.0664,1375.9297,442.0664,1387.9297,430.0664,1399.9297,418.0664,1387.9297,430.0664,1375.9297" style="stroke:#181818;stroke-width:0.5;"/><rect fill="#F1F1F1" height="35.0938" rx="12.5" ry="12.5" style="stroke:#181818;stroke-width:0.5;" width="166.0566" x="347.0381" y="1419.9297"/><text fill="#000000" font-family="sans-serif" font-size="12" lengthAdjust="spacing" textLength="146.0566" x="357.0381" y="1442.3867">Tampilkan notifikasi sukses</text><polygon fill="#F1F1F1" points="390.0142,906.3555,470.1187,906.3555,482.1187,918.3555,470.1187,930.3555,390.0142,930.3555,378.0142,918.3555,390.0142,906.3555" style="stroke:#181818;stroke-width:0.5;"/><text fill="#000000" font-family="sans-serif" font-size="11" lengthAdjust="spacing" textLength="13.4546" x="434.0664" y="941.7744">Ya</text><text fill="#000000" font-family="sans-serif" font-size="11" lengthAdjust="spacing" textLength="80.1045" x="390.0142" y="922.8564">Ekspor laporan?</text><text fill="#000000" font-family="sans-serif" font-size="11" lengthAdjust="spacing" textLength="26.8984" x="482.1187" y="915.9385">Tidak</text><polygon fill="#F1F1F1" points="430.0664,1475.0234,442.0664,1487.0234,430.0664,1499.0234,418.0664,1487.0234,430.0664,1475.0234" style="stroke:#181818;stroke-width:0.5;"/><ellipse cx="430.0664" cy="1542.0234" fill="none" rx="11" ry="11" style="stroke:#222222;stroke-width:1.0;"/><ellipse cx="430.0664" cy="1542.0234" fill="#222222" rx="6" ry="6" style="stroke:#222222;stroke-width:1.0;"/><line style="stroke:#181818;stroke-width:1.0;" x1="430.0664" x2="430.0664" y1="68.6094" y2="88.6094"/><polygon fill="#181818" points="426.0664,78.6094,430.0664,88.6094,434.0664,78.6094,430.0664,82.6094" style="stroke:#181818;stroke-width:1.0;"/><line style="stroke:#181818;stroke-width:1.0;" x1="101.0449" x2="101.0449" y1="236.6328" y2="270.4688"/><polygon fill="#181818" points="97.0449,260.4688,101.0449,270.4688,105.0449,260.4688,101.0449,264.4688" style="stroke:#181818;stroke-width:1.0;"/><line style="stroke:#181818;stroke-width:1.0;" x1="310.3516" x2="310.3516" y1="222.7969" y2="256.6328"/><polygon fill="#181818" points="306.3516,246.6328,310.3516,256.6328,314.3516,246.6328,310.3516,250.6328" style="stroke:#181818;stroke-width:1.0;"/><line style="stroke:#181818;stroke-width:1.0;" x1="529.458" x2="529.458" y1="222.7969" y2="256.6328"/><polygon fill="#181818" points="525.458,246.6328,529.458,256.6328,533.458,246.6328,529.458,250.6328" style="stroke:#181818;stroke-width:1.0;"/><line style="stroke:#181818;stroke-width:1.0;" x1="749.2178" x2="749.2178" y1="232.7148" y2="266.5508"/><polygon fill="#181818" points="745.2178,256.5508,749.2178,266.5508,753.2178,256.5508,749.2178,260.5508" style="stroke:#181818;stroke-width:1.0;"/><line style="stroke:#181818;stroke-width:1.0;" x1="101.0449" x2="101.0449" y1="167.7031" y2="201.5391"/><polygon fill="#181818" points="97.0449,191.5391,101.0449,201.5391,105.0449,191.5391,101.0449,195.5391" style="stroke:#181818;stroke-width:1.0;"/><line style="stroke:#181818;stroke-width:1.0;" x1="101.0449" x2="101.0449" y1="305.5625" y2="325.5625"/><polygon fill="#181818" points="97.0449,315.5625,101.0449,325.5625,105.0449,315.5625,101.0449,319.5625" style="stroke:#181818;stroke-width:1.0;"/><line style="stroke:#181818;stroke-width:1.0;" x1="310.3516" x2="310.3516" y1="167.7031" y2="187.7031"/><polygon fill="#181818" points="306.3516,177.7031,310.3516,187.7031,314.3516,177.7031,310.3516,181.7031" style="stroke:#181818;stroke-width:1.0;"/><line style="stroke:#181818;stroke-width:1.0;" x1="310.3516" x2="310.3516" y1="291.7266" y2="325.5625"/><polygon fill="#181818" points="306.3516,315.5625,310.3516,325.5625,314.3516,315.5625,310.3516,319.5625" style="stroke:#181818;stroke-width:1.0;"/><line style="stroke:#181818;stroke-width:1.0;" x1="529.458" x2="529.458" y1="167.7031" y2="187.7031"/><polygon fill="#181818" points="525.458,177.7031,529.458,187.7031,533.458,177.7031,529.458,181.7031" style="stroke:#181818;stroke-width:1.0;"/><line style="stroke:#181818;stroke-width:1.0;" x1="529.458" x2="529.458" y1="291.7266" y2="325.5625"/><polygon fill="#181818" points="525.458,315.5625,529.458,325.5625,533.458,315.5625,529.458,319.5625" style="stroke:#181818;stroke-width:1.0;"/><line style="stroke:#181818;stroke-width:1.0;" x1="159.2122" x2="255.2405" y1="155.7031" y2="155.7031"/><polygon fill="#181818" points="245.2405,151.7031,255.2405,155.7031,245.2405,159.7031,249.2405,155.7031" style="stroke:#181818;stroke-width:1.0;"/><line style="stroke:#181818;stroke-width:1.0;" x1="365.4626" x2="474.6504" y1="155.7031" y2="155.7031"/><polygon fill="#181818" points="464.6504,151.7031,474.6504,155.7031,464.6504,159.7031,468.6504,155.7031" style="stroke:#181818;stroke-width:1.0;"/><line style="stroke:#181818;stroke-width:1.0;" x1="430.0664" x2="430.0664" y1="123.7031" y2="128.7031"/><line style="stroke:#181818;stroke-width:1.0;" x1="430.0664" x2="101.0449" y1="128.7031" y2="128.7031"/><line style="stroke:#181818;stroke-width:1.0;" x1="101.0449" x2="101.0449" y1="128.7031" y2="143.7031"/><polygon fill="#181818" points="97.0449,133.7031,101.0449,143.7031,105.0449,133.7031,101.0449,137.7031" style="stroke:#181818;stroke-width:1.0;"/><line style="stroke:#181818;stroke-width:1.0;" x1="584.2656" x2="749.2178" y1="155.7031" y2="155.7031"/><line style="stroke:#181818;stroke-width:1.0;" x1="749.2178" x2="749.2178" y1="155.7031" y2="197.6211"/><polygon fill="#181818" points="745.2178,187.6211,749.2178,197.6211,753.2178,187.6211,749.2178,191.6211" style="stroke:#181818;stroke-width:1.0;"/><line style="stroke:#181818;stroke-width:1.0;" x1="749.2178" x2="749.2178" y1="301.6445" y2="325.5625"/><polygon fill="#181818" points="745.2178,315.5625,749.2178,325.5625,753.2178,315.5625,749.2178,319.5625" style="stroke:#181818;stroke-width:1.0;"/><line style="stroke:#181818;stroke-width:1.0;" x1="101.0449" x2="749.2178" y1="325.5625" y2="325.5625"/><line style="stroke:#181818;stroke-width:1.0;" x1="430.0664" x2="430.0664" y1="512.2773" y2="547.2773"/><polygon fill="#181818" points="426.0664,537.2773,430.0664,547.2773,434.0664,537.2773,430.0664,541.2773" style="stroke:#181818;stroke-width:1.0;"/><line style="stroke:#181818;stroke-width:1.0;" x1="430.0664" x2="430.0664" y1="452.2656" y2="477.1836"/><polygon fill="#181818" points="426.0664,467.1836,430.0664,477.1836,434.0664,467.1836,430.0664,471.1836" style="stroke:#181818;stroke-width:1.0;"/><line style="stroke:#181818;stroke-width:1.0;" x1="483.3379" x2="532.4404" y1="440.2656" y2="440.2656"/><polygon fill="#181818" points="528.4404,519.7773,532.4404,529.7773,536.4404,519.7773,532.4404,523.7773" style="stroke:#181818;stroke-width:1.0;"/><line style="stroke:#181818;stroke-width:1.0;" x1="532.4404" x2="532.4404" y1="440.2656" y2="614.3711"/><line style="stroke:#181818;stroke-width:1.0;" x1="532.4404" x2="442.0664" y1="614.3711" y2="614.3711"/><polygon fill="#181818" points="452.0664,610.3711,442.0664,614.3711,452.0664,618.3711,448.0664,614.3711" style="stroke:#181818;stroke-width:1.0;"/><line style="stroke:#181818;stroke-width:1.0;" x1="430.0664" x2="430.0664" y1="582.3711" y2="602.3711"/><polygon fill="#181818" points="426.0664,592.3711,430.0664,602.3711,434.0664,592.3711,430.0664,596.3711" style="stroke:#181818;stroke-width:1.0;"/><line style="stroke:#181818;stroke-width:1.0;" x1="430.0664" x2="430.0664" y1="408.2656" y2="428.2656"/><polygon fill="#181818" points="426.0664,418.2656,430.0664,428.2656,434.0664,418.2656,430.0664,422.2656" style="stroke:#181818;stroke-width:1.0;"/><line style="stroke:#181818;stroke-width:1.0;" x1="430.0664" x2="430.0664" y1="626.3711" y2="646.3711"/><polygon fill="#181818" points="426.0664,636.3711,430.0664,646.3711,434.0664,636.3711,430.0664,640.3711" style="stroke:#181818;stroke-width:1.0;"/><line style="stroke:#181818;stroke-width:1.0;" x1="430.0664" x2="430.0664" y1="681.4648" y2="701.4648"/><polygon fill="#181818" points="426.0664,691.4648,430.0664,701.4648,434.0664,691.4648,430.0664,695.4648" style="stroke:#181818;stroke-width:1.0;"/><line style="stroke:#181818;stroke-width:1.0;" x1="430.0664" x2="430.0664" y1="736.5586" y2="756.5586"/><polygon fill="#181818" points="426.0664,746.5586,430.0664,756.5586,434.0664,746.5586,430.0664,750.5586" style="stroke:#181818;stroke-width:1.0;"/><line style="stroke:#181818;stroke-width:1.0;" x1="430.0664" x2="430.0664" y1="791.6523" y2="811.6523"/><polygon fill="#181818" points="426.0664,801.6523,430.0664,811.6523,434.0664,801.6523,430.0664,805.6523" style="stroke:#181818;stroke-width:1.0;"/><line style="stroke:#181818;stroke-width:1.0;" x1="430.0664" x2="430.0664" y1="325.5625" y2="373.1719"/><polygon fill="#181818" points="426.0664,363.1719,430.0664,373.1719,434.0664,363.1719,430.0664,367.1719" style="stroke:#181818;stroke-width:1.0;"/><line style="stroke:#181818;stroke-width:1.0;" x1="430.0664" x2="430.0664" y1="990.3672" y2="1010.3672"/><polygon fill="#181818" points="426.0664,1000.3672,430.0664,1010.3672,434.0664,1000.3672,430.0664,1004.3672" style="stroke:#181818;stroke-width:1.0;"/><line style="stroke:#181818;stroke-width:1.0;" x1="321.5342" x2="321.5342" y1="1134.5547" y2="1154.5547"/><polygon fill="#181818" points="317.5342,1144.5547,321.5342,1154.5547,325.5342,1144.5547,321.5342,1148.5547" style="stroke:#181818;stroke-width:1.0;"/><line style="stroke:#181818;stroke-width:1.0;" x1="321.5342" x2="321.5342" y1="1189.6484" y2="1224.6484"/><polygon fill="#181818" points="317.5342,1214.6484,321.5342,1224.6484,325.5342,1214.6484,321.5342,1218.6484" style="stroke:#181818;stroke-width:1.0;"/><line style="stroke:#181818;stroke-width:1.0;" x1="321.5342" x2="321.5342" y1="1259.7422" y2="1279.7422"/><polygon fill="#181818" points="317.5342,1269.7422,321.5342,1279.7422,325.5342,1269.7422,321.5342,1273.7422" style="stroke:#181818;stroke-width:1.0;"/><line style="stroke:#181818;stroke-width:1.0;" x1="538.5986" x2="538.5986" y1="1134.5547" y2="1154.5547"/><polygon fill="#181818" points="534.5986,1144.5547,538.5986,1154.5547,542.5986,1144.5547,538.5986,1148.5547" style="stroke:#181818;stroke-width:1.0;"/><line style="stroke:#181818;stroke-width:1.0;" x1="538.5986" x2="538.5986" y1="1189.6484" y2="1224.6484"/><polygon fill="#181818" points="534.5986,1214.6484,538.5986,1224.6484,542.5986,1214.6484,538.5986,1218.6484" style="stroke:#181818;stroke-width:1.0;"/><line style="stroke:#181818;stroke-width:1.0;" x1="538.5986" x2="538.5986" y1="1259.7422" y2="1279.7422"/><polygon fill="#181818" points="534.5986,1269.7422,538.5986,1279.7422,542.5986,1269.7422,538.5986,1273.7422" style="stroke:#181818;stroke-width:1.0;"/><line style="stroke:#181818;stroke-width:1.0;" x1="538.5986" x2="538.5986" y1="1314.8359" y2="1334.8359"/><polygon fill="#181818" points="534.5986,1324.8359,538.5986,1334.8359,542.5986,1324.8359,538.5986,1328.8359" style="stroke:#181818;stroke-width:1.0;"/><line style="stroke:#181818;stroke-width:1.0;" x1="387.4995" x2="321.5342" y1="1077.4609" y2="1077.4609"/><line style="stroke:#181818;stroke-width:1.0;" x1="321.5342" x2="321.5342" y1="1077.4609" y2="1099.4609"/><polygon fill="#181818" points="317.5342,1089.4609,321.5342,1099.4609,325.5342,1089.4609,321.5342,1093.4609" style="stroke:#181818;stroke-width:1.0;"/><line style="stroke:#181818;stroke-width:1.0;" x1="472.6333" x2="538.5986" y1="1077.4609" y2="1077.4609"/><line style="stroke:#181818;stroke-width:1.0;" x1="538.5986" x2="538.5986" y1="1077.4609" y2="1099.4609"/><polygon fill="#181818" points="534.5986,1089.4609,538.5986,1099.4609,542.5986,1089.4609,538.5986,1093.4609" style="stroke:#181818;stroke-width:1.0;"/><line style="stroke:#181818;stroke-width:1.0;" x1="321.5342" x2="321.5342" y1="1314.8359" y2="1387.9297"/><line style="stroke:#181818;stroke-width:1.0;" x1="321.5342" x2="418.0664" y1="1387.9297" y2="1387.9297"/><polygon fill="#181818" points="408.0664,1383.9297,418.0664,1387.9297,408.0664,1391.9297,412.0664,1387.9297" style="stroke:#181818;stroke-width:1.0;"/><line style="stroke:#181818;stroke-width:1.0;" x1="538.5986" x2="538.5986" y1="1369.9297" y2="1387.9297"/><line style="stroke:#181818;stroke-width:1.0;" x1="538.5986" x2="442.0664" y1="1387.9297" y2="1387.9297"/><polygon fill="#181818" points="452.0664,1383.9297,442.0664,1387.9297,452.0664,1391.9297,448.0664,1387.9297" style="stroke:#181818;stroke-width:1.0;"/><line style="stroke:#181818;stroke-width:1.0;" x1="430.0664" x2="430.0664" y1="1045.4609" y2="1065.4609"/><polygon fill="#181818" points="426.0664,1055.4609,430.0664,1065.4609,434.0664,1055.4609,430.0664,1059.4609" style="stroke:#181818;stroke-width:1.0;"/><line style="stroke:#181818;stroke-width:1.0;" x1="430.0664" x2="430.0664" y1="1399.9297" y2="1419.9297"/><polygon fill="#181818" points="426.0664,1409.9297,430.0664,1419.9297,434.0664,1409.9297,430.0664,1413.9297" style="stroke:#181818;stroke-width:1.0;"/><line style="stroke:#181818;stroke-width:1.0;" x1="430.0664" x2="430.0664" y1="930.3555" y2="955.2734"/><polygon fill="#181818" points="426.0664,945.2734,430.0664,955.2734,434.0664,945.2734,430.0664,949.2734" style="stroke:#181818;stroke-width:1.0;"/><line style="stroke:#181818;stroke-width:1.0;" x1="482.1187" x2="662.3047" y1="918.3555" y2="918.3555"/><polygon fill="#181818" points="658.3047,1195.1484,662.3047,1205.1484,666.3047,1195.1484,662.3047,1199.1484" style="stroke:#181818;stroke-width:1.0;"/><line style="stroke:#181818;stroke-width:1.0;" x1="662.3047" x2="662.3047" y1="918.3555" y2="1487.0234"/><line style="stroke:#181818;stroke-width:1.0;" x1="662.3047" x2="442.0664" y1="1487.0234" y2="1487.0234"/><polygon fill="#181818" points="452.0664,1483.0234,442.0664,1487.0234,452.0664,1491.0234,448.0664,1487.0234" style="stroke:#181818;stroke-width:1.0;"/><line style="stroke:#181818;stroke-width:1.0;" x1="430.0664" x2="430.0664" y1="1455.0234" y2="1475.0234"/><polygon fill="#181818" points="426.0664,1465.0234,430.0664,1475.0234,434.0664,1465.0234,430.0664,1469.0234" style="stroke:#181818;stroke-width:1.0;"/><line style="stroke:#181818;stroke-width:1.0;" x1="430.0664" x2="430.0664" y1="846.7461" y2="906.3555"/><polygon fill="#181818" points="426.0664,896.3555,430.0664,906.3555,434.0664,896.3555,430.0664,900.3555" style="stroke:#181818;stroke-width:1.0;"/><line style="stroke:#181818;stroke-width:1.0;" x1="430.0664" x2="430.0664" y1="1499.0234" y2="1531.0234"/><polygon fill="#181818" points="426.0664,1521.0234,430.0664,1531.0234,434.0664,1521.0234,430.0664,1525.0234" style="stroke:#181818;stroke-width:1.0;"/><!--SRC=[ZPHDRzf048Rl_XMZdE3GFm27AYgXgj9AD4aFFOxZmKoz7-xkc2IgyjyxwpK6anILWrcypyx7E-yYB8RW-b5up_82AyOwe5t0XcpPeQ23hzZwWAueec2GebXioDLrvn2iBh2956671gso9hFBek0jp3PiU0U_o74yx7oSW-p8mMo82hSOESmBqC_YUX9hGYmpyO2sPTFeMor6E0et80f5BOCpKv29bB8Vpc-2hphTpfalPJgG5vAr4-HDhYzkJqvy-8za8_fkjYxgbs-Wn5sISqm6inN6NUanLE-ATiUkRZ3gweVjx9lGVazXp_G4KTiXtITNyROeMfqi2ti7LsisGW4gfVCvT5VmPyWbNO2M0lkAGBrHrsXWLc5W-01HQUJvK6nw96M6S8AsRsMS_q_CzVTnir6s6IqfLDf1IFKsA5IF6brcisoPp58zS8LDJfFx72jRt7UbPHd233BTzvh0xux2Y_Ol2AfiXpobZcBsoEZuiqszHLlrItNgdcNnEf7wfebw-E28Wyf9jM7d_D9CH9iEdfuLbHETRhtRSh1wUSQ9fOAFnBWuNjMjrmCofjkiriTyVT1FtadmngZqbcmo01jOUQlaSahUgU9AzMQRQ3GIdybHqFacUGdUHbZv9sSyLl_O7t_aMTyyFv8vgtOp57ZJQmEF1cE4sJT4UQ8oij3yBENtu-XxKwTLYP7Ei7KlK-OQWjW6mYhkYEHYYts95viy8uwcdJHyuZBdXTLcQSYnItwuQF_Nz1_ks-8l]--></g></svg>