<svg xmlns="http://www.w3.org/2000/svg" xmlns:xlink="http://www.w3.org/1999/xlink" contentStyleType="text/css" height="1998px" preserveAspectRatio="none" style="width:743px;height:1998px;background:#FFFFFF;" version="1.1" viewBox="0 0 743 1998" width="743px" zoomAndPan="magnify"><title>Activity Diagram: Kelola Produk dan Komposisi</title><defs/><g><text fill="#000000" font-family="sans-serif" font-size="14" font-weight="bold" lengthAdjust="spacing" textLength="317.3994" x="211.4097" y="34.5332">Activity Diagram: Kelola Produk dan Komposisi</text><ellipse cx="382.1094" cy="58.6094" fill="#222222" rx="10" ry="10" style="stroke:#222222;stroke-width:1.0;"/><rect fill="#F1F1F1" height="35.0938" rx="12.5" ry="12.5" style="stroke:#181818;stroke-width:0.5;" width="228.8105" x="267.7041" y="88.6094"/><text fill="#000000" font-family="sans-serif" font-size="12" lengthAdjust="spacing" textLength="208.8105" x="277.7041" y="111.0664">Pengguna mengakses halaman produk</text><rect fill="#F1F1F1" height="35.0938" rx="12.5" ry="12.5" style="stroke:#181818;stroke-width:0.5;" width="205.4199" x="279.3994" y="143.7031"/><text fill="#000000" font-family="sans-serif" font-size="12" lengthAdjust="spacing" textLength="185.4199" x="289.3994" y="166.1602">Sistem menampilkan daftar produk</text><polygon fill="#F1F1F1" points="155.7949,198.7969,205.3164,198.7969,217.3164,210.7969,205.3164,222.7969,155.7949,222.7969,143.7949,210.7969,155.7949,198.7969" style="stroke:#181818;stroke-width:0.5;"/><text fill="#000000" font-family="sans-serif" font-size="11" lengthAdjust="spacing" textLength="40.353" x="184.5557" y="234.2158">Tambah</text><text fill="#000000" font-family="sans-serif" font-size="11" lengthAdjust="spacing" textLength="49.5215" x="155.7949" y="215.2979">Pilih aksi?</text><rect fill="#F1F1F1" height="35.0938" rx="12.5" ry="12.5" style="stroke:#181818;stroke-width:0.5;" width="186.0723" x="87.5195" y="256.6328"/><text fill="#000000" font-family="sans-serif" font-size="12" lengthAdjust="spacing" textLength="166.0723" x="97.5195" y="279.0898">Tampilkan form tambah produk</text><rect fill="none" height="373.0781" style="stroke:#000000;stroke-width:1.5;" width="218.1016" x="71.5049" y="325.5625"/><path d="M159.3252,325.5625 L159.3252,336.1719 L149.3252,346.1719 L71.5049,346.1719 " fill="none" style="stroke:#000000;stroke-width:1.5;"/><text fill="#000000" font-family="sans-serif" font-size="14" lengthAdjust="spacing" textLength="77.8203" x="74.5049" y="341.0957">Data Produk</text><rect fill="#F1F1F1" height="35.0938" rx="12.5" ry="12.5" style="stroke:#181818;stroke-width:0.5;" width="148.0684" x="106.5215" y="363.1719"/><text fill="#000000" font-family="sans-serif" font-size="12" lengthAdjust="spacing" textLength="128.0684" x="116.5215" y="385.6289">Masukkan nama produk</text><rect fill="#F1F1F1" height="35.0938" rx="12.5" ry="12.5" style="stroke:#181818;stroke-width:0.5;" width="88.7012" x="136.2051" y="433.2656"/><text fill="#000000" font-family="sans-serif" font-size="12" lengthAdjust="spacing" textLength="68.7012" x="146.2051" y="455.7227">Pilih kategori</text><rect fill="#F1F1F1" height="35.0938" rx="12.5" ry="12.5" style="stroke:#181818;stroke-width:0.5;" width="130.7305" x="115.1904" y="503.3594"/><text fill="#000000" font-family="sans-serif" font-size="12" lengthAdjust="spacing" textLength="110.7305" x="125.1904" y="525.8164">Masukkan harga jual</text><rect fill="#F1F1F1" height="35.0938" rx="12.5" ry="12.5" style="stroke:#181818;stroke-width:0.5;" width="141.418" x="109.8467" y="573.4531"/><text fill="#000000" font-family="sans-serif" font-size="12" lengthAdjust="spacing" textLength="121.418" x="119.8467" y="595.9102">Pilih metode penjualan</text><rect fill="#F1F1F1" height="35.0938" rx="12.5" ry="12.5" style="stroke:#181818;stroke-width:0.5;" width="198.1016" x="81.5049" y="643.5469"/><text fill="#000000" font-family="sans-serif" font-size="12" lengthAdjust="spacing" textLength="178.1016" x="91.5049" y="666.0039">Upload gambar produk (opsional)</text><rect fill="none" height="317.7578" style="stroke:#000000;stroke-width:1.5;" width="220.0762" x="82.5176" y="733.6406"/><path d="M201.4688,733.6406 L201.4688,744.25 L191.4688,754.25 L82.5176,754.25 " fill="none" style="stroke:#000000;stroke-width:1.5;"/><text fill="#000000" font-family="sans-serif" font-size="14" lengthAdjust="spacing" textLength="108.9512" x="85.5176" y="749.1738">Komposisi Bahan</text><rect fill="#F1F1F1" height="35.0938" rx="12.5" ry="12.5" style="stroke:#181818;stroke-width:0.5;" width="108.7344" x="126.1885" y="828.25"/><text fill="#000000" font-family="sans-serif" font-size="12" lengthAdjust="spacing" textLength="88.7344" x="136.1885" y="850.707">Pilih bahan baku</text><rect fill="#F1F1F1" height="35.0938" rx="12.5" ry="12.5" style="stroke:#181818;stroke-width:0.5;" width="82.0391" x="139.5361" y="890.2109"/><text fill="#000000" font-family="sans-serif" font-size="12" lengthAdjust="spacing" textLength="62.0391" x="149.5361" y="912.668">Pilih satuan</text><rect fill="#F1F1F1" height="35.0938" rx="12.5" ry="12.5" style="stroke:#181818;stroke-width:0.5;" width="176.0762" x="92.5176" y="960.3047"/><text fill="#000000" font-family="sans-serif" font-size="12" lengthAdjust="spacing" textLength="156.0762" x="102.5176" y="982.7617">Masukkan kuantitas per porsi</text><polygon fill="#F1F1F1" points="180.5557,771.25,192.5557,783.25,180.5557,795.25,168.5557,783.25,180.5557,771.25" style="stroke:#181818;stroke-width:0.5;"/><polygon fill="#F1F1F1" points="130.4084,1015.3984,230.7029,1015.3984,242.7029,1027.3984,230.7029,1039.3984,130.4084,1039.3984,118.4084,1027.3984,130.4084,1015.3984" style="stroke:#181818;stroke-width:0.5;"/><text fill="#000000" font-family="sans-serif" font-size="11" lengthAdjust="spacing" textLength="100.2944" x="130.4084" y="1031.8994">Tambah bahan lagi?</text><text fill="#000000" font-family="sans-serif" font-size="11" lengthAdjust="spacing" textLength="13.4546" x="242.7029" y="1024.9814">Ya</text><rect fill="none" height="336.0498" style="stroke:#000000;stroke-width:1.5;" width="221.3965" x="87.8574" y="1084.8467"/><path d="M272.167,1084.8467 L272.167,1095.4561 L262.167,1105.4561 L87.8574,1105.4561 " fill="none" style="stroke:#000000;stroke-width:1.5;"/><text fill="#000000" font-family="sans-serif" font-size="14" lengthAdjust="spacing" textLength="174.3096" x="90.8574" y="1100.3799">Biaya Tambahan (Opsional)</text><rect fill="#F1F1F1" height="35.0938" rx="12.5" ry="12.5" style="stroke:#181818;stroke-width:0.5;" width="102.7109" x="129.2002" y="1215.374"/><text fill="#000000" font-family="sans-serif" font-size="12" lengthAdjust="spacing" textLength="82.7109" x="139.2002" y="1237.8311">Pilih jenis biaya</text><rect fill="#F1F1F1" height="35.0938" rx="12.5" ry="12.5" style="stroke:#181818;stroke-width:0.5;" width="145.3965" x="107.8574" y="1281.0498"/><text fill="#000000" font-family="sans-serif" font-size="12" lengthAdjust="spacing" textLength="125.3965" x="117.8574" y="1303.5068">Masukkan jumlah biaya</text><polygon fill="#F1F1F1" points="180.5557,1171.374,192.5557,1183.374,180.5557,1195.374,168.5557,1183.374,180.5557,1171.374" style="stroke:#181818;stroke-width:0.5;"/><polygon fill="#F1F1F1" points="132.5542,1336.1436,228.5571,1336.1436,240.5571,1348.1436,228.5571,1360.1436,132.5542,1360.1436,120.5542,1348.1436,132.5542,1336.1436" style="stroke:#181818;stroke-width:0.5;"/><text fill="#000000" font-family="sans-serif" font-size="11" lengthAdjust="spacing" textLength="96.0029" x="132.5542" y="1352.6445">Tambah biaya lagi?</text><text fill="#000000" font-family="sans-serif" font-size="11" lengthAdjust="spacing" textLength="13.4546" x="240.5571" y="1345.7266">Ya</text><polygon fill="#F1F1F1" points="127.0435,1122.4561,234.0679,1122.4561,246.0679,1134.4561,234.0679,1146.4561,127.0435,1146.4561,115.0435,1134.4561,127.0435,1122.4561" style="stroke:#181818;stroke-width:0.5;"/><text fill="#000000" font-family="sans-serif" font-size="11" lengthAdjust="spacing" textLength="13.4546" x="184.5557" y="1157.875">Ya</text><text fill="#000000" font-family="sans-serif" font-size="11" lengthAdjust="spacing" textLength="107.0244" x="127.0435" y="1138.957">Ada biaya tambahan?</text><text fill="#000000" font-family="sans-serif" font-size="11" lengthAdjust="spacing" textLength="26.8984" x="246.0679" y="1132.0391">Tidak</text><polygon fill="#F1F1F1" points="180.5557,1384.8965,192.5557,1396.8965,180.5557,1408.8965,168.5557,1396.8965,180.5557,1384.8965" style="stroke:#181818;stroke-width:0.5;"/><text fill="#000000" font-family="sans-serif" font-size="11" lengthAdjust="spacing" textLength="26.8984" x="186.5557" y="1382.4795">Tidak</text><rect fill="#F1F1F1" height="35.0938" rx="12.5" ry="12.5" style="stroke:#181818;stroke-width:0.5;" width="173.416" x="93.8477" y="1440.8965"/><text fill="#000000" font-family="sans-serif" font-size="12" lengthAdjust="spacing" textLength="153.416" x="103.8477" y="1463.3535">Hitung harga modal otomatis</text><polygon fill="#F1F1F1" points="146.0034,1495.9902,215.1079,1495.9902,227.1079,1507.9902,215.1079,1519.9902,146.0034,1519.9902,134.0034,1507.9902,146.0034,1495.9902" style="stroke:#181818;stroke-width:0.5;"/><text fill="#000000" font-family="sans-serif" font-size="11" lengthAdjust="spacing" textLength="69.1045" x="146.0034" y="1512.4912">Validasi data?</text><text fill="#000000" font-family="sans-serif" font-size="11" lengthAdjust="spacing" textLength="24.46" x="109.5435" y="1505.5732">Valid</text><text fill="#000000" font-family="sans-serif" font-size="11" lengthAdjust="spacing" textLength="54.4146" x="227.1079" y="1505.5732">Tidak Valid</text><rect fill="#F1F1F1" height="35.0938" rx="12.5" ry="12.5" style="stroke:#181818;stroke-width:0.5;" width="102.6992" x="42.6787" y="1529.9902"/><text fill="#000000" font-family="sans-serif" font-size="12" lengthAdjust="spacing" textLength="82.6992" x="52.6787" y="1552.4473">Generate UUID</text><rect fill="#F1F1F1" height="35.0938" rx="12.5" ry="12.5" style="stroke:#181818;stroke-width:0.5;" width="100.7129" x="43.6719" y="1585.084"/><text fill="#000000" font-family="sans-serif" font-size="12" lengthAdjust="spacing" textLength="80.7129" x="53.6719" y="1607.541">Simpan produk</text><rect fill="#F1F1F1" height="35.0938" rx="12.5" ry="12.5" style="stroke:#181818;stroke-width:0.5;" width="117.3711" x="35.3428" y="1640.1777"/><text fill="#000000" font-family="sans-serif" font-size="12" lengthAdjust="spacing" textLength="97.3711" x="45.3428" y="1662.6348">Simpan komposisi</text><rect fill="#F1F1F1" height="35.0938" rx="12.5" ry="12.5" style="stroke:#181818;stroke-width:0.5;" width="149.416" x="19.3203" y="1695.2715"/><text fill="#000000" font-family="sans-serif" font-size="12" lengthAdjust="spacing" textLength="129.416" x="29.3203" y="1717.7285">Simpan biaya tambahan</text><rect fill="#F1F1F1" height="35.0938" rx="12.5" ry="12.5" style="stroke:#181818;stroke-width:0.5;" width="114.7109" x="36.6729" y="1750.3652"/><text fill="#000000" font-family="sans-serif" font-size="12" lengthAdjust="spacing" textLength="94.7109" x="46.6729" y="1772.8223">Catat log aktivitas</text><rect fill="#F1F1F1" height="35.0938" rx="12.5" ry="12.5" style="stroke:#181818;stroke-width:0.5;" width="166.0566" x="11" y="1805.459"/><text fill="#000000" font-family="sans-serif" font-size="12" lengthAdjust="spacing" textLength="146.0566" x="21" y="1827.916">Tampilkan notifikasi sukses</text><rect fill="#F1F1F1" height="35.0938" rx="12.5" ry="12.5" style="stroke:#181818;stroke-width:0.5;" width="140.0527" x="197.0566" y="1529.9902"/><text fill="#000000" font-family="sans-serif" font-size="12" lengthAdjust="spacing" textLength="120.0527" x="207.0566" y="1552.4473">Tampilkan pesan error</text><polygon fill="#F1F1F1" points="180.5557,1846.5527,192.5557,1858.5527,180.5557,1870.5527,168.5557,1858.5527,180.5557,1846.5527" style="stroke:#181818;stroke-width:0.5;"/><polygon fill="#F1F1F1" points="533.5166,198.7969,559.8135,198.7969,571.8135,210.7969,559.8135,222.7969,533.5166,222.7969,521.5166,210.7969,533.5166,198.7969" style="stroke:#181818;stroke-width:0.5;"/><text fill="#000000" font-family="sans-serif" font-size="11" lengthAdjust="spacing" textLength="26.2969" x="533.5166" y="215.2979">Ubah</text><text fill="#000000" font-family="sans-serif" font-size="11" lengthAdjust="spacing" textLength="25.0723" x="571.8135" y="208.3799">Batal</text><rect fill="#F1F1F1" height="35.0938" rx="12.5" ry="12.5" style="stroke:#181818;stroke-width:0.5;" width="239.457" x="426.9365" y="242.7969"/><text fill="#000000" font-family="sans-serif" font-size="12" lengthAdjust="spacing" textLength="219.457" x="436.9365" y="265.2539">Tampilkan form edit dengan data existing</text><rect fill="#F1F1F1" height="35.0938" rx="12.5" ry="12.5" style="stroke:#181818;stroke-width:0.5;" width="201.4824" x="445.9238" y="311.7266"/><text fill="#000000" font-family="sans-serif" font-size="12" lengthAdjust="spacing" textLength="181.4824" x="455.9238" y="334.1836">Pengguna mengubah data produk</text><rect fill="#F1F1F1" height="35.0938" rx="12.5" ry="12.5" style="stroke:#181818;stroke-width:0.5;" width="191.4512" x="450.9395" y="381.8203"/><text fill="#000000" font-family="sans-serif" font-size="12" lengthAdjust="spacing" textLength="171.4512" x="460.9395" y="404.2773">Pengguna mengubah komposisi</text><rect fill="#F1F1F1" height="35.0938" rx="12.5" ry="12.5" style="stroke:#181818;stroke-width:0.5;" width="223.4961" x="434.917" y="451.9141"/><text fill="#000000" font-family="sans-serif" font-size="12" lengthAdjust="spacing" textLength="203.4961" x="444.917" y="474.3711">Pengguna mengubah biaya tambahan</text><rect fill="#F1F1F1" height="35.0938" rx="12.5" ry="12.5" style="stroke:#181818;stroke-width:0.5;" width="157.4258" x="467.9521" y="522.0078"/><text fill="#000000" font-family="sans-serif" font-size="12" lengthAdjust="spacing" textLength="137.4258" x="477.9521" y="544.4648">Hitung ulang harga modal</text><polygon fill="#F1F1F1" points="512.1128,592.1016,581.2173,592.1016,593.2173,604.1016,581.2173,616.1016,512.1128,616.1016,500.1128,604.1016,512.1128,592.1016" style="stroke:#181818;stroke-width:0.5;"/><text fill="#000000" font-family="sans-serif" font-size="11" lengthAdjust="spacing" textLength="69.1045" x="512.1128" y="608.6025">Validasi data?</text><text fill="#000000" font-family="sans-serif" font-size="11" lengthAdjust="spacing" textLength="24.46" x="475.6528" y="601.6846">Valid</text><text fill="#000000" font-family="sans-serif" font-size="11" lengthAdjust="spacing" textLength="54.4146" x="593.2173" y="601.6846">Tidak Valid</text><rect fill="#F1F1F1" height="35.0938" rx="12.5" ry="12.5" style="stroke:#181818;stroke-width:0.5;" width="121.4082" x="399.4336" y="626.1016"/><text fill="#000000" font-family="sans-serif" font-size="12" lengthAdjust="spacing" textLength="101.4082" x="409.4336" y="648.5586">Simpan perubahan</text><rect fill="#F1F1F1" height="35.0938" rx="12.5" ry="12.5" style="stroke:#181818;stroke-width:0.5;" width="115.3789" x="402.4482" y="696.1953"/><text fill="#000000" font-family="sans-serif" font-size="12" lengthAdjust="spacing" textLength="95.3789" x="412.4482" y="718.6523">Update komposisi</text><rect fill="#F1F1F1" height="35.0938" rx="12.5" ry="12.5" style="stroke:#181818;stroke-width:0.5;" width="147.4238" x="386.4258" y="766.2891"/><text fill="#000000" font-family="sans-serif" font-size="12" lengthAdjust="spacing" textLength="127.4238" x="396.4258" y="788.7461">Update biaya tambahan</text><rect fill="#F1F1F1" height="35.0938" rx="12.5" ry="12.5" style="stroke:#181818;stroke-width:0.5;" width="114.7109" x="402.7822" y="821.3828"/><text fill="#000000" font-family="sans-serif" font-size="12" lengthAdjust="spacing" textLength="94.7109" x="412.7822" y="843.8398">Catat log aktivitas</text><rect fill="#F1F1F1" height="35.0938" rx="12.5" ry="12.5" style="stroke:#181818;stroke-width:0.5;" width="166.0566" x="377.1094" y="883.3438"/><text fill="#000000" font-family="sans-serif" font-size="12" lengthAdjust="spacing" textLength="146.0566" x="387.1094" y="905.8008">Tampilkan notifikasi sukses</text><rect fill="#F1F1F1" height="35.0938" rx="12.5" ry="12.5" style="stroke:#181818;stroke-width:0.5;" width="140.0527" x="563.166" y="626.1016"/><text fill="#000000" font-family="sans-serif" font-size="12" lengthAdjust="spacing" textLength="120.0527" x="573.166" y="648.5586">Tampilkan pesan error</text><polygon fill="#F1F1F1" points="546.665,924.4375,558.665,936.4375,546.665,948.4375,534.665,936.4375,546.665,924.4375" style="stroke:#181818;stroke-width:0.5;"/><rect fill="#F1F1F1" height="35.0938" rx="12.5" ry="12.5" style="stroke:#181818;stroke-width:0.5;" width="136.0625" x="314.0781" y="1910.5527"/><text fill="#000000" font-family="sans-serif" font-size="12" lengthAdjust="spacing" textLength="116.0625" x="324.0781" y="1933.0098">Refresh daftar produk</text><ellipse cx="382.1094" cy="1976.6465" fill="none" rx="11" ry="11" style="stroke:#222222;stroke-width:1.0;"/><ellipse cx="382.1094" cy="1976.6465" fill="#222222" rx="6" ry="6" style="stroke:#222222;stroke-width:1.0;"/><line style="stroke:#181818;stroke-width:1.0;" x1="382.1094" x2="382.1094" y1="68.6094" y2="88.6094"/><polygon fill="#181818" points="378.1094,78.6094,382.1094,88.6094,386.1094,78.6094,382.1094,82.6094" style="stroke:#181818;stroke-width:1.0;"/><line style="stroke:#181818;stroke-width:1.0;" x1="382.1094" x2="382.1094" y1="123.7031" y2="143.7031"/><polygon fill="#181818" points="378.1094,133.7031,382.1094,143.7031,386.1094,133.7031,382.1094,137.7031" style="stroke:#181818;stroke-width:1.0;"/><line style="stroke:#181818;stroke-width:1.0;" x1="180.5557" x2="180.5557" y1="398.2656" y2="433.2656"/><polygon fill="#181818" points="176.5557,423.2656,180.5557,433.2656,184.5557,423.2656,180.5557,427.2656" style="stroke:#181818;stroke-width:1.0;"/><line style="stroke:#181818;stroke-width:1.0;" x1="180.5557" x2="180.5557" y1="468.3594" y2="503.3594"/><polygon fill="#181818" points="176.5557,493.3594,180.5557,503.3594,184.5557,493.3594,180.5557,497.3594" style="stroke:#181818;stroke-width:1.0;"/><line style="stroke:#181818;stroke-width:1.0;" x1="180.5557" x2="180.5557" y1="538.4531" y2="573.4531"/><polygon fill="#181818" points="176.5557,563.4531,180.5557,573.4531,184.5557,563.4531,180.5557,567.4531" style="stroke:#181818;stroke-width:1.0;"/><line style="stroke:#181818;stroke-width:1.0;" x1="180.5557" x2="180.5557" y1="608.5469" y2="643.5469"/><polygon fill="#181818" points="176.5557,633.5469,180.5557,643.5469,184.5557,633.5469,180.5557,637.5469" style="stroke:#181818;stroke-width:1.0;"/><line style="stroke:#181818;stroke-width:1.0;" x1="180.5557" x2="180.5557" y1="291.7266" y2="363.1719"/><polygon fill="#181818" points="176.5557,353.1719,180.5557,363.1719,184.5557,353.1719,180.5557,357.1719" style="stroke:#181818;stroke-width:1.0;"/><line style="stroke:#181818;stroke-width:1.0;" x1="180.5557" x2="180.5557" y1="863.3438" y2="890.2109"/><polygon fill="#181818" points="176.5557,880.2109,180.5557,890.2109,184.5557,880.2109,180.5557,884.2109" style="stroke:#181818;stroke-width:1.0;"/><line style="stroke:#181818;stroke-width:1.0;" x1="180.5557" x2="180.5557" y1="925.3047" y2="960.3047"/><polygon fill="#181818" points="176.5557,950.3047,180.5557,960.3047,184.5557,950.3047,180.5557,954.3047" style="stroke:#181818;stroke-width:1.0;"/><line style="stroke:#181818;stroke-width:1.0;" x1="180.5557" x2="180.5557" y1="795.25" y2="828.25"/><polygon fill="#181818" points="176.5557,818.25,180.5557,828.25,184.5557,818.25,180.5557,822.25" style="stroke:#181818;stroke-width:1.0;"/><line style="stroke:#181818;stroke-width:1.0;" x1="242.7029" x2="280.5938" y1="1027.3984" y2="1027.3984"/><polygon fill="#181818" points="276.5938,917.7578,280.5938,907.7578,284.5938,917.7578,280.5938,913.7578" style="stroke:#181818;stroke-width:1.0;"/><line style="stroke:#181818;stroke-width:1.0;" x1="280.5938" x2="280.5938" y1="783.25" y2="1027.3984"/><line style="stroke:#181818;stroke-width:1.0;" x1="280.5938" x2="192.5557" y1="783.25" y2="783.25"/><polygon fill="#181818" points="202.5557,779.25,192.5557,783.25,202.5557,787.25,198.5557,783.25" style="stroke:#181818;stroke-width:1.0;"/><line style="stroke:#181818;stroke-width:1.0;" x1="180.5557" x2="180.5557" y1="995.3984" y2="1015.3984"/><polygon fill="#181818" points="176.5557,1005.3984,180.5557,1015.3984,184.5557,1005.3984,180.5557,1009.3984" style="stroke:#181818;stroke-width:1.0;"/><line style="stroke:#181818;stroke-width:1.0;" x1="180.5557" x2="180.5557" y1="678.6406" y2="771.25"/><polygon fill="#181818" points="176.5557,761.25,180.5557,771.25,184.5557,761.25,180.5557,765.25" style="stroke:#181818;stroke-width:1.0;"/><line style="stroke:#181818;stroke-width:1.0;" x1="180.5557" x2="180.5557" y1="1250.4678" y2="1281.0498"/><polygon fill="#181818" points="176.5557,1271.0498,180.5557,1281.0498,184.5557,1271.0498,180.5557,1275.0498" style="stroke:#181818;stroke-width:1.0;"/><line style="stroke:#181818;stroke-width:1.0;" x1="180.5557" x2="180.5557" y1="1195.374" y2="1215.374"/><polygon fill="#181818" points="176.5557,1205.374,180.5557,1215.374,184.5557,1205.374,180.5557,1209.374" style="stroke:#181818;stroke-width:1.0;"/><line style="stroke:#181818;stroke-width:1.0;" x1="240.5571" x2="265.2539" y1="1348.1436" y2="1348.1436"/><polygon fill="#181818" points="261.2539,1273.5498,265.2539,1263.5498,269.2539,1273.5498,265.2539,1269.5498" style="stroke:#181818;stroke-width:1.0;"/><line style="stroke:#181818;stroke-width:1.0;" x1="265.2539" x2="265.2539" y1="1183.374" y2="1348.1436"/><line style="stroke:#181818;stroke-width:1.0;" x1="265.2539" x2="192.5557" y1="1183.374" y2="1183.374"/><polygon fill="#181818" points="202.5557,1179.374,192.5557,1183.374,202.5557,1187.374,198.5557,1183.374" style="stroke:#181818;stroke-width:1.0;"/><line style="stroke:#181818;stroke-width:1.0;" x1="180.5557" x2="180.5557" y1="1316.1436" y2="1336.1436"/><polygon fill="#181818" points="176.5557,1326.1436,180.5557,1336.1436,184.5557,1326.1436,180.5557,1330.1436" style="stroke:#181818;stroke-width:1.0;"/><line style="stroke:#181818;stroke-width:1.0;" x1="180.5557" x2="180.5557" y1="1146.4561" y2="1171.374"/><polygon fill="#181818" points="176.5557,1161.374,180.5557,1171.374,184.5557,1161.374,180.5557,1165.374" style="stroke:#181818;stroke-width:1.0;"/><line style="stroke:#181818;stroke-width:1.0;" x1="246.0679" x2="287.2539" y1="1134.4561" y2="1134.4561"/><polygon fill="#181818" points="283.2539,1260.4678,287.2539,1270.4678,291.2539,1260.4678,287.2539,1264.4678" style="stroke:#181818;stroke-width:1.0;"/><line style="stroke:#181818;stroke-width:1.0;" x1="287.2539" x2="287.2539" y1="1134.4561" y2="1396.8965"/><line style="stroke:#181818;stroke-width:1.0;" x1="287.2539" x2="192.5557" y1="1396.8965" y2="1396.8965"/><polygon fill="#181818" points="202.5557,1392.8965,192.5557,1396.8965,202.5557,1400.8965,198.5557,1396.8965" style="stroke:#181818;stroke-width:1.0;"/><line style="stroke:#181818;stroke-width:1.0;" x1="180.5557" x2="180.5557" y1="1360.1436" y2="1384.8965"/><polygon fill="#181818" points="176.5557,1374.8965,180.5557,1384.8965,184.5557,1374.8965,180.5557,1378.8965" style="stroke:#181818;stroke-width:1.0;"/><line style="stroke:#181818;stroke-width:1.0;" x1="180.5557" x2="180.5557" y1="1039.3984" y2="1122.4561"/><polygon fill="#181818" points="176.5557,1112.4561,180.5557,1122.4561,184.5557,1112.4561,180.5557,1116.4561" style="stroke:#181818;stroke-width:1.0;"/><text fill="#000000" font-family="sans-serif" font-size="11" lengthAdjust="spacing" textLength="26.8984" x="184.5557" y="1073.7344">Tidak</text><line style="stroke:#181818;stroke-width:1.0;" x1="180.5557" x2="180.5557" y1="1408.8965" y2="1440.8965"/><polygon fill="#181818" points="176.5557,1430.8965,180.5557,1440.8965,184.5557,1430.8965,180.5557,1434.8965" style="stroke:#181818;stroke-width:1.0;"/><line style="stroke:#181818;stroke-width:1.0;" x1="94.0283" x2="94.0283" y1="1565.084" y2="1585.084"/><polygon fill="#181818" points="90.0283,1575.084,94.0283,1585.084,98.0283,1575.084,94.0283,1579.084" style="stroke:#181818;stroke-width:1.0;"/><line style="stroke:#181818;stroke-width:1.0;" x1="94.0283" x2="94.0283" y1="1620.1777" y2="1640.1777"/><polygon fill="#181818" points="90.0283,1630.1777,94.0283,1640.1777,98.0283,1630.1777,94.0283,1634.1777" style="stroke:#181818;stroke-width:1.0;"/><line style="stroke:#181818;stroke-width:1.0;" x1="94.0283" x2="94.0283" y1="1675.2715" y2="1695.2715"/><polygon fill="#181818" points="90.0283,1685.2715,94.0283,1695.2715,98.0283,1685.2715,94.0283,1689.2715" style="stroke:#181818;stroke-width:1.0;"/><line style="stroke:#181818;stroke-width:1.0;" x1="94.0283" x2="94.0283" y1="1730.3652" y2="1750.3652"/><polygon fill="#181818" points="90.0283,1740.3652,94.0283,1750.3652,98.0283,1740.3652,94.0283,1744.3652" style="stroke:#181818;stroke-width:1.0;"/><line style="stroke:#181818;stroke-width:1.0;" x1="94.0283" x2="94.0283" y1="1785.459" y2="1805.459"/><polygon fill="#181818" points="90.0283,1795.459,94.0283,1805.459,98.0283,1795.459,94.0283,1799.459" style="stroke:#181818;stroke-width:1.0;"/><line style="stroke:#181818;stroke-width:1.0;" x1="134.0034" x2="94.0283" y1="1507.9902" y2="1507.9902"/><line style="stroke:#181818;stroke-width:1.0;" x1="94.0283" x2="94.0283" y1="1507.9902" y2="1529.9902"/><polygon fill="#181818" points="90.0283,1519.9902,94.0283,1529.9902,98.0283,1519.9902,94.0283,1523.9902" style="stroke:#181818;stroke-width:1.0;"/><line style="stroke:#181818;stroke-width:1.0;" x1="227.1079" x2="267.083" y1="1507.9902" y2="1507.9902"/><line style="stroke:#181818;stroke-width:1.0;" x1="267.083" x2="267.083" y1="1507.9902" y2="1529.9902"/><polygon fill="#181818" points="263.083,1519.9902,267.083,1529.9902,271.083,1519.9902,267.083,1523.9902" style="stroke:#181818;stroke-width:1.0;"/><line style="stroke:#181818;stroke-width:1.0;" x1="94.0283" x2="94.0283" y1="1840.5527" y2="1858.5527"/><line style="stroke:#181818;stroke-width:1.0;" x1="94.0283" x2="168.5557" y1="1858.5527" y2="1858.5527"/><polygon fill="#181818" points="158.5557,1854.5527,168.5557,1858.5527,158.5557,1862.5527,162.5557,1858.5527" style="stroke:#181818;stroke-width:1.0;"/><line style="stroke:#181818;stroke-width:1.0;" x1="267.083" x2="267.083" y1="1565.084" y2="1858.5527"/><line style="stroke:#181818;stroke-width:1.0;" x1="267.083" x2="192.5557" y1="1858.5527" y2="1858.5527"/><polygon fill="#181818" points="202.5557,1854.5527,192.5557,1858.5527,202.5557,1862.5527,198.5557,1858.5527" style="stroke:#181818;stroke-width:1.0;"/><line style="stroke:#181818;stroke-width:1.0;" x1="180.5557" x2="180.5557" y1="1475.9902" y2="1495.9902"/><polygon fill="#181818" points="176.5557,1485.9902,180.5557,1495.9902,184.5557,1485.9902,180.5557,1489.9902" style="stroke:#181818;stroke-width:1.0;"/><line style="stroke:#181818;stroke-width:1.0;" x1="546.665" x2="546.665" y1="277.8906" y2="311.7266"/><polygon fill="#181818" points="542.665,301.7266,546.665,311.7266,550.665,301.7266,546.665,305.7266" style="stroke:#181818;stroke-width:1.0;"/><line style="stroke:#181818;stroke-width:1.0;" x1="546.665" x2="546.665" y1="346.8203" y2="381.8203"/><polygon fill="#181818" points="542.665,371.8203,546.665,381.8203,550.665,371.8203,546.665,375.8203" style="stroke:#181818;stroke-width:1.0;"/><line style="stroke:#181818;stroke-width:1.0;" x1="546.665" x2="546.665" y1="416.9141" y2="451.9141"/><polygon fill="#181818" points="542.665,441.9141,546.665,451.9141,550.665,441.9141,546.665,445.9141" style="stroke:#181818;stroke-width:1.0;"/><line style="stroke:#181818;stroke-width:1.0;" x1="546.665" x2="546.665" y1="487.0078" y2="522.0078"/><polygon fill="#181818" points="542.665,512.0078,546.665,522.0078,550.665,512.0078,546.665,516.0078" style="stroke:#181818;stroke-width:1.0;"/><line style="stroke:#181818;stroke-width:1.0;" x1="460.1377" x2="460.1377" y1="661.1953" y2="696.1953"/><polygon fill="#181818" points="456.1377,686.1953,460.1377,696.1953,464.1377,686.1953,460.1377,690.1953" style="stroke:#181818;stroke-width:1.0;"/><line style="stroke:#181818;stroke-width:1.0;" x1="460.1377" x2="460.1377" y1="731.2891" y2="766.2891"/><polygon fill="#181818" points="456.1377,756.2891,460.1377,766.2891,464.1377,756.2891,460.1377,760.2891" style="stroke:#181818;stroke-width:1.0;"/><line style="stroke:#181818;stroke-width:1.0;" x1="460.1377" x2="460.1377" y1="801.3828" y2="821.3828"/><polygon fill="#181818" points="456.1377,811.3828,460.1377,821.3828,464.1377,811.3828,460.1377,815.3828" style="stroke:#181818;stroke-width:1.0;"/><line style="stroke:#181818;stroke-width:1.0;" x1="460.1377" x2="460.1377" y1="856.4766" y2="883.3438"/><polygon fill="#181818" points="456.1377,873.3438,460.1377,883.3438,464.1377,873.3438,460.1377,877.3438" style="stroke:#181818;stroke-width:1.0;"/><line style="stroke:#181818;stroke-width:1.0;" x1="500.1128" x2="460.1377" y1="604.1016" y2="604.1016"/><line style="stroke:#181818;stroke-width:1.0;" x1="460.1377" x2="460.1377" y1="604.1016" y2="626.1016"/><polygon fill="#181818" points="456.1377,616.1016,460.1377,626.1016,464.1377,616.1016,460.1377,620.1016" style="stroke:#181818;stroke-width:1.0;"/><line style="stroke:#181818;stroke-width:1.0;" x1="593.2173" x2="633.1924" y1="604.1016" y2="604.1016"/><line style="stroke:#181818;stroke-width:1.0;" x1="633.1924" x2="633.1924" y1="604.1016" y2="626.1016"/><polygon fill="#181818" points="629.1924,616.1016,633.1924,626.1016,637.1924,616.1016,633.1924,620.1016" style="stroke:#181818;stroke-width:1.0;"/><line style="stroke:#181818;stroke-width:1.0;" x1="460.1377" x2="460.1377" y1="918.4375" y2="936.4375"/><line style="stroke:#181818;stroke-width:1.0;" x1="460.1377" x2="534.665" y1="936.4375" y2="936.4375"/><polygon fill="#181818" points="524.665,932.4375,534.665,936.4375,524.665,940.4375,528.665,936.4375" style="stroke:#181818;stroke-width:1.0;"/><line style="stroke:#181818;stroke-width:1.0;" x1="633.1924" x2="633.1924" y1="661.1953" y2="936.4375"/><line style="stroke:#181818;stroke-width:1.0;" x1="633.1924" x2="558.665" y1="936.4375" y2="936.4375"/><polygon fill="#181818" points="568.665,932.4375,558.665,936.4375,568.665,940.4375,564.665,936.4375" style="stroke:#181818;stroke-width:1.0;"/><line style="stroke:#181818;stroke-width:1.0;" x1="546.665" x2="546.665" y1="557.1016" y2="592.1016"/><polygon fill="#181818" points="542.665,582.1016,546.665,592.1016,550.665,582.1016,546.665,586.1016" style="stroke:#181818;stroke-width:1.0;"/><line style="stroke:#181818;stroke-width:1.0;" x1="180.5557" x2="180.5557" y1="222.7969" y2="256.6328"/><polygon fill="#181818" points="176.5557,246.6328,180.5557,256.6328,184.5557,246.6328,180.5557,250.6328" style="stroke:#181818;stroke-width:1.0;"/><line style="stroke:#181818;stroke-width:1.0;" x1="180.5557" x2="180.5557" y1="1870.5527" y2="1890.5527"/><polygon fill="#181818" points="176.5557,1880.5527,180.5557,1890.5527,184.5557,1880.5527,180.5557,1884.5527" style="stroke:#181818;stroke-width:1.0;"/><line style="stroke:#181818;stroke-width:1.0;" x1="546.665" x2="546.665" y1="222.7969" y2="242.7969"/><polygon fill="#181818" points="542.665,232.7969,546.665,242.7969,550.665,232.7969,546.665,236.7969" style="stroke:#181818;stroke-width:1.0;"/><line style="stroke:#181818;stroke-width:1.0;" x1="546.665" x2="546.665" y1="948.4375" y2="1890.5527"/><polygon fill="#181818" points="542.665,1880.5527,546.665,1890.5527,550.665,1880.5527,546.665,1884.5527" style="stroke:#181818;stroke-width:1.0;"/><line style="stroke:#181818;stroke-width:1.0;" x1="217.3164" x2="521.5166" y1="210.7969" y2="210.7969"/><polygon fill="#181818" points="511.5166,206.7969,521.5166,210.7969,511.5166,214.7969,515.5166,210.7969" style="stroke:#181818;stroke-width:1.0;"/><line style="stroke:#181818;stroke-width:1.0;" x1="382.1094" x2="382.1094" y1="178.7969" y2="183.7969"/><line style="stroke:#181818;stroke-width:1.0;" x1="382.1094" x2="180.5557" y1="183.7969" y2="183.7969"/><line style="stroke:#181818;stroke-width:1.0;" x1="180.5557" x2="180.5557" y1="183.7969" y2="198.7969"/><polygon fill="#181818" points="176.5557,188.7969,180.5557,198.7969,184.5557,188.7969,180.5557,192.7969" style="stroke:#181818;stroke-width:1.0;"/><line style="stroke:#181818;stroke-width:1.0;" x1="571.8135" x2="717.2188" y1="210.7969" y2="210.7969"/><line style="stroke:#181818;stroke-width:1.0;" x1="717.2188" x2="717.2188" y1="210.7969" y2="1890.5527"/><polygon fill="#181818" points="713.2188,1880.5527,717.2188,1890.5527,721.2188,1880.5527,717.2188,1884.5527" style="stroke:#181818;stroke-width:1.0;"/><line style="stroke:#181818;stroke-width:1.0;" x1="180.5557" x2="717.2188" y1="1890.5527" y2="1890.5527"/><line style="stroke:#181818;stroke-width:1.0;" x1="382.1094" x2="382.1094" y1="1890.5527" y2="1910.5527"/><polygon fill="#181818" points="378.1094,1900.5527,382.1094,1910.5527,386.1094,1900.5527,382.1094,1904.5527" style="stroke:#181818;stroke-width:1.0;"/><line style="stroke:#181818;stroke-width:1.0;" x1="382.1094" x2="382.1094" y1="1945.6465" y2="1965.6465"/><polygon fill="#181818" points="378.1094,1955.6465,382.1094,1965.6465,386.1094,1955.6465,382.1094,1959.6465" style="stroke:#181818;stroke-width:1.0;"/><!--SRC=[pLLDZzCm4BtdLupsb1xu0wq4sh8Ie1MYObiaZbFi9DFu8x8TO8NuxuoTZxfjbWCdSh0IpvlncpVZIQ2W9Dn_2_ITmZCy4DOEzHeUfR8AOUUiw5iGQE3HwivwybGKFg0BHR7UILFNlK7G_8AjbnuQLAWPtIN73OEUo0Uf8mHrHwfbey2A8vmnL46v8qKDS11wiuBGI0Fb7lKHcrK1_AptitTbdOQGR7E824bBnymea3Lmzu1XIk0EVYLhYlGHVT_6G4m8Bo8ayq2anI1hwsYpuDUWgn5EFQeRDos35H8wQQ8PJGOuTCgYW3eIdtA7qdQUoQ9Q3SZVYvdCqiCM6pHvDavs4iFycL4vHYYlRRzPCdiCVSxlCiMMRNmwUaw5oLhdCoM6C-57GzmwOvN6unJMiNxaeVoAgzdZrMlOay3sRqbk2PyHXcWSgVmqAPEd6plbNY0S4pYCuBbZyZDVK2UJu2GD4qsXDhUOMOjJhrLCy1QtB4IYze8GjsB4HoeV_UFc6IgDeEfQh_Lx2hsfnnRKLg026wp6G3wx1L6cBwWu8FUCu7imAvHspuUitqaZ7VSw70uV7h9kVIBTPTVuUh-TElBMT5cQpFwMUGHGjkPRdiOD-inwlj_61ggeZTIv0ZnK1bGc4bndSNRkfETLEcVTw3RBMCG8KPb3d2f9ZyNH8WK5476YcQGTo9yymiZKGy3BgTV7aYTKBjK2vagn1SIIS5EzUvub5rN_fs9FHPMkloxEeHEn2vRgEfh-xxf2kMKQQbKC-yNwiwoSzCtDlyO7snL_0000]--></g></svg>