<svg xmlns="http://www.w3.org/2000/svg" xmlns:xlink="http://www.w3.org/1999/xlink" contentStyleType="text/css" height="2438px" preserveAspectRatio="none" style="width:953px;height:2438px;background:#FFFFFF;" version="1.1" viewBox="0 0 953 2438" width="953px" zoomAndPan="magnify"><title>Activity Diagram: Stock Opname (Hitung)</title><defs/><g><text fill="#000000" font-family="sans-serif" font-size="14" font-weight="bold" lengthAdjust="spacing" textLength="274.5928" x="337.7622" y="34.5332">Activity Diagram: Stock Opname (Hitung)</text><ellipse cx="634.3867" cy="58.6094" fill="#222222" rx="10" ry="10" style="stroke:#222222;stroke-width:1.0;"/><rect fill="#F1F1F1" height="35.0938" rx="12.5" ry="12.5" style="stroke:#181818;stroke-width:0.5;" width="224.8145" x="521.9795" y="88.6094"/><text fill="#000000" font-family="sans-serif" font-size="12" lengthAdjust="spacing" textLength="204.8145" x="531.9795" y="111.0664">Pengguna mengakses halaman hitung</text><rect fill="none" height="588.1123" style="stroke:#000000;stroke-width:1.5;" width="287.0752" x="491.6826" y="133.7031"/><path d="M681.4609,133.7031 L681.4609,144.3125 L671.4609,154.3125 L491.6826,154.3125 " fill="none" style="stroke:#000000;stroke-width:1.5;"/><text fill="#000000" font-family="sans-serif" font-size="14" lengthAdjust="spacing" textLength="179.7783" x="494.6826" y="149.2363">Perencanaan Stock Opname</text><rect fill="#F1F1F1" height="35.0938" rx="12.5" ry="12.5" style="stroke:#181818;stroke-width:0.5;" width="154.7656" x="557.0039" y="171.3125"/><text fill="#000000" font-family="sans-serif" font-size="12" lengthAdjust="spacing" textLength="134.7656" x="567.0039" y="193.7695">Buat rencana hitung baru</text><rect fill="#F1F1F1" height="35.0938" rx="12.5" ry="12.5" style="stroke:#181818;stroke-width:0.5;" width="265.4082" x="501.6826" y="226.4063"/><text fill="#000000" font-family="sans-serif" font-size="12" lengthAdjust="spacing" textLength="245.4082" x="511.6826" y="248.8633">Generate nomor hitung (HC-YYMMDD-XXXX)</text><rect fill="#F1F1F1" height="35.0938" rx="12.5" ry="12.5" style="stroke:#181818;stroke-width:0.5;" width="121.4082" x="573.6826" y="281.5"/><text fill="#000000" font-family="sans-serif" font-size="12" lengthAdjust="spacing" textLength="101.4082" x="583.6826" y="303.957">Pilih tanggal hitung</text><rect fill="#F1F1F1" height="35.0938" rx="12.5" ry="12.5" style="stroke:#181818;stroke-width:0.5;" width="212.8145" x="527.9795" y="380.5938"/><text fill="#000000" font-family="sans-serif" font-size="12" lengthAdjust="spacing" textLength="192.8145" x="537.9795" y="403.0508">Pilih bahan baku yang akan dihitung</text><rect fill="#F1F1F1" height="35.0938" rx="12.5" ry="12.5" style="stroke:#181818;stroke-width:0.5;" width="220.7422" x="524.0156" y="443.1875"/><text fill="#000000" font-family="sans-serif" font-size="12" lengthAdjust="spacing" textLength="200.7422" x="534.0156" y="465.6445">Sistem menampilkan kuantitas sistem</text><polygon fill="#F1F1F1" points="634.3867,336.5938,646.3867,348.5938,634.3867,360.5938,622.3867,348.5938,634.3867,336.5938" style="stroke:#181818;stroke-width:0.5;"/><polygon fill="#F1F1F1" points="589.1433,498.2813,679.6301,498.2813,691.6301,510.2813,679.6301,522.2813,589.1433,522.2813,577.1433,510.2813,589.1433,498.2813" style="stroke:#181818;stroke-width:0.5;"/><text fill="#000000" font-family="sans-serif" font-size="11" lengthAdjust="spacing" textLength="90.4868" x="589.1433" y="514.7822">Tambah item lagi?</text><text fill="#000000" font-family="sans-serif" font-size="11" lengthAdjust="spacing" textLength="13.4546" x="691.6301" y="507.8643">Ya</text><rect fill="#F1F1F1" height="35.0938" rx="12.5" ry="12.5" style="stroke:#181818;stroke-width:0.5;" width="143.416" x="562.6787" y="564.5342"/><text fill="#000000" font-family="sans-serif" font-size="12" lengthAdjust="spacing" textLength="123.416" x="572.6787" y="586.9912">Simpan rencana hitung</text><rect fill="#F1F1F1" height="35.0938" rx="12.5" ry="12.5" style="stroke:#181818;stroke-width:0.5;" width="115.7305" x="576.5215" y="619.6279"/><text fill="#000000" font-family="sans-serif" font-size="12" lengthAdjust="spacing" textLength="95.7305" x="586.5215" y="642.085">Status = Rencana</text><rect fill="#F1F1F1" height="35.0938" rx="12.5" ry="12.5" style="stroke:#181818;stroke-width:0.5;" width="114.7109" x="577.0313" y="674.7217"/><text fill="#000000" font-family="sans-serif" font-size="12" lengthAdjust="spacing" textLength="94.7109" x="587.0313" y="697.1787">Catat log aktivitas</text><rect fill="none" height="1356.0225" style="stroke:#000000;stroke-width:1.5;" width="931.1172" x="11" y="731.8154"/><path d="M198.4404,731.8154 L198.4404,742.4248 L188.4404,752.4248 L11,752.4248 " fill="none" style="stroke:#000000;stroke-width:1.5;"/><text fill="#000000" font-family="sans-serif" font-size="14" lengthAdjust="spacing" textLength="177.4404" x="14" y="747.3486">Pelaksanaan Stock Opname</text><rect fill="#F1F1F1" height="35.0938" rx="12.5" ry="12.5" style="stroke:#181818;stroke-width:0.5;" width="125.4043" x="571.6846" y="769.4248"/><text fill="#000000" font-family="sans-serif" font-size="12" lengthAdjust="spacing" textLength="105.4043" x="581.6846" y="791.8818">Pilih rencana hitung</text><rect fill="#F1F1F1" height="35.0938" rx="12.5" ry="12.5" style="stroke:#181818;stroke-width:0.5;" width="164.0996" x="552.3369" y="824.5186"/><text fill="#000000" font-family="sans-serif" font-size="12" lengthAdjust="spacing" textLength="144.0996" x="562.3369" y="846.9756">Mulai proses penghitungan</text><rect fill="#F1F1F1" height="35.0938" rx="12.5" ry="12.5" style="stroke:#181818;stroke-width:0.5;" width="143.0527" x="562.8604" y="879.6123"/><text fill="#000000" font-family="sans-serif" font-size="12" lengthAdjust="spacing" textLength="123.0527" x="572.8604" y="902.0693">Status = Dalam Proses</text><rect fill="#F1F1F1" height="35.0938" rx="12.5" ry="12.5" style="stroke:#181818;stroke-width:0.5;" width="105.3828" x="581.6953" y="978.7061"/><text fill="#000000" font-family="sans-serif" font-size="12" lengthAdjust="spacing" textLength="85.3828" x="591.6953" y="1001.1631">Pilih item bahan</text><rect fill="#F1F1F1" height="35.0938" rx="12.5" ry="12.5" style="stroke:#181818;stroke-width:0.5;" width="220.7422" x="524.0156" y="1033.7998"/><text fill="#000000" font-family="sans-serif" font-size="12" lengthAdjust="spacing" textLength="200.7422" x="534.0156" y="1056.2568">Sistem menampilkan kuantitas sistem</text><rect fill="#F1F1F1" height="35.0938" rx="12.5" ry="12.5" style="stroke:#181818;stroke-width:0.5;" width="225.4531" x="521.6602" y="1088.8936"/><text fill="#000000" font-family="sans-serif" font-size="12" lengthAdjust="spacing" textLength="205.4531" x="531.6602" y="1111.3506">Masukkan kuantitas aktual hasil hitung</text><rect fill="#F1F1F1" height="35.0938" rx="12.5" ry="12.5" style="stroke:#181818;stroke-width:0.5;" width="208.0859" x="530.3438" y="1143.9873"/><text fill="#000000" font-family="sans-serif" font-size="12" lengthAdjust="spacing" textLength="188.0859" x="540.3438" y="1166.4443">Sistem menghitung selisih otomatis</text><polygon fill="#F1F1F1" points="604.7302,1199.0811,664.0432,1199.0811,676.0432,1211.0811,664.0432,1223.0811,604.7302,1223.0811,592.7302,1211.0811,604.7302,1199.0811" style="stroke:#181818;stroke-width:0.5;"/><text fill="#000000" font-family="sans-serif" font-size="11" lengthAdjust="spacing" textLength="59.313" x="604.7302" y="1215.582">Ada selisih?</text><text fill="#000000" font-family="sans-serif" font-size="11" lengthAdjust="spacing" textLength="13.4546" x="579.2756" y="1208.6641">Ya</text><text fill="#000000" font-family="sans-serif" font-size="11" lengthAdjust="spacing" textLength="26.8984" x="676.0432" y="1208.6641">Tidak</text><rect fill="#F1F1F1" height="35.0938" rx="12.5" ry="12.5" style="stroke:#181818;stroke-width:0.5;" width="184.1035" x="465.9692" y="1233.0811"/><text fill="#000000" font-family="sans-serif" font-size="12" lengthAdjust="spacing" textLength="164.1035" x="475.9692" y="1255.5381">Tandai item perlu penyesuaian</text><rect fill="#F1F1F1" height="35.0938" rx="12.5" ry="12.5" style="stroke:#181818;stroke-width:0.5;" width="173.416" x="471.313" y="1288.1748"/><text fill="#000000" font-family="sans-serif" font-size="12" lengthAdjust="spacing" textLength="153.416" x="481.313" y="1310.6318">Masukkan catatan (opsional)</text><rect fill="#F1F1F1" height="35.0938" rx="12.5" ry="12.5" style="stroke:#181818;stroke-width:0.5;" width="81.3594" x="670.0728" y="1233.0811"/><text fill="#000000" font-family="sans-serif" font-size="12" lengthAdjust="spacing" textLength="61.3594" x="680.0728" y="1255.5381">Item sesuai</text><polygon fill="#F1F1F1" points="634.3867,1329.2686,646.3867,1341.2686,634.3867,1353.2686,622.3867,1341.2686,634.3867,1329.2686" style="stroke:#181818;stroke-width:0.5;"/><polygon fill="#F1F1F1" points="634.3867,934.7061,646.3867,946.7061,634.3867,958.7061,622.3867,946.7061,634.3867,934.7061" style="stroke:#181818;stroke-width:0.5;"/><polygon fill="#F1F1F1" points="593.7275,1373.2686,675.0459,1373.2686,687.0459,1385.2686,675.0459,1397.2686,593.7275,1397.2686,581.7275,1385.2686,593.7275,1373.2686" style="stroke:#181818;stroke-width:0.5;"/><text fill="#000000" font-family="sans-serif" font-size="11" lengthAdjust="spacing" textLength="81.3184" x="593.7275" y="1389.7695">Item berikutnya?</text><text fill="#000000" font-family="sans-serif" font-size="11" lengthAdjust="spacing" textLength="13.4546" x="687.0459" y="1382.8516">Ya</text><polygon fill="#F1F1F1" points="586.6995,1439.5215,682.074,1439.5215,694.074,1451.5215,682.074,1463.5215,586.6995,1463.5215,574.6995,1451.5215,586.6995,1439.5215" style="stroke:#181818;stroke-width:0.5;"/><text fill="#000000" font-family="sans-serif" font-size="11" lengthAdjust="spacing" textLength="95.3745" x="586.6995" y="1456.0225">Konfirmasi selesai?</text><text fill="#000000" font-family="sans-serif" font-size="11" lengthAdjust="spacing" textLength="13.4546" x="561.2449" y="1449.1045">Ya</text><text fill="#000000" font-family="sans-serif" font-size="11" lengthAdjust="spacing" textLength="26.8984" x="694.074" y="1449.1045">Tidak</text><rect fill="#555555" height="6" rx="2.5" ry="2.5" style="stroke:#555555;stroke-width:1.0;" width="763.7148" x="23" y="1473.5215"/><rect fill="#F1F1F1" height="35.0938" rx="12.5" ry="12.5" style="stroke:#181818;stroke-width:0.5;" width="124.7305" x="35" y="1627.4863"/><text fill="#000000" font-family="sans-serif" font-size="12" lengthAdjust="spacing" textLength="104.7305" x="45" y="1649.9434">Simpan hasil hitung</text><rect fill="#F1F1F1" height="35.0938" rx="12.5" ry="12.5" style="stroke:#181818;stroke-width:0.5;" width="246.8164" x="199.252" y="1592.4395"/><text fill="#000000" font-family="sans-serif" font-size="12" lengthAdjust="spacing" textLength="226.8164" x="209.252" y="1614.8965">Update batch_quantity pada MaterialBatch</text><rect fill="#F1F1F1" height="35.0938" rx="12.5" ry="12.5" style="stroke:#181818;stroke-width:0.5;" width="283.8594" x="180.7305" y="1662.5332"/><text fill="#000000" font-family="sans-serif" font-size="12" lengthAdjust="spacing" textLength="263.8594" x="190.7305" y="1684.9902">Catat inventory_log dengan action = penyesuaian</text><polygon fill="#F1F1F1" points="293.0037,1543.5215,352.3167,1543.5215,364.3167,1555.5215,352.3167,1567.5215,293.0037,1567.5215,281.0037,1555.5215,293.0037,1543.5215" style="stroke:#181818;stroke-width:0.5;"/><text fill="#000000" font-family="sans-serif" font-size="11" lengthAdjust="spacing" textLength="13.4546" x="326.6602" y="1578.9404">Ya</text><text fill="#000000" font-family="sans-serif" font-size="11" lengthAdjust="spacing" textLength="59.313" x="293.0037" y="1560.0225">Ada selisih?</text><text fill="#000000" font-family="sans-serif" font-size="11" lengthAdjust="spacing" textLength="26.8984" x="364.3167" y="1553.1045">Tidak</text><polygon fill="#F1F1F1" points="322.6602,1717.627,334.6602,1729.627,322.6602,1741.627,310.6602,1729.627,322.6602,1717.627" style="stroke:#181818;stroke-width:0.5;"/><polygon fill="#F1F1F1" points="322.6602,1499.5215,334.6602,1511.5215,322.6602,1523.5215,310.6602,1511.5215,322.6602,1499.5215" style="stroke:#181818;stroke-width:0.5;"/><polygon fill="#F1F1F1" points="282.001,1761.627,363.3193,1761.627,375.3193,1773.627,363.3193,1785.627,282.001,1785.627,270.001,1773.627,282.001,1761.627" style="stroke:#181818;stroke-width:0.5;"/><text fill="#000000" font-family="sans-serif" font-size="11" lengthAdjust="spacing" textLength="81.3184" x="282.001" y="1778.1279">Item berikutnya?</text><text fill="#000000" font-family="sans-serif" font-size="11" lengthAdjust="spacing" textLength="13.4546" x="375.3193" y="1771.21">Ya</text><rect fill="#F1F1F1" height="35.0938" rx="12.5" ry="12.5" style="stroke:#181818;stroke-width:0.5;" width="234.125" x="538.5898" y="1627.4863"/><text fill="#000000" font-family="sans-serif" font-size="12" lengthAdjust="spacing" textLength="214.125" x="548.5898" y="1649.9434">Update status bahan (recalculateStatus)</text><rect fill="#555555" height="6" rx="2.5" ry="2.5" style="stroke:#555555;stroke-width:1.0;" width="763.7148" x="23" y="1819.4629"/><rect fill="#F1F1F1" height="35.0938" rx="12.5" ry="12.5" style="stroke:#181818;stroke-width:0.5;" width="107.0527" x="341.8311" y="1845.4629"/><text fill="#000000" font-family="sans-serif" font-size="12" lengthAdjust="spacing" textLength="87.0527" x="351.8311" y="1867.9199">Status = Selesai</text><rect fill="#F1F1F1" height="35.0938" rx="12.5" ry="12.5" style="stroke:#181818;stroke-width:0.5;" width="114.7109" x="338.002" y="1900.5566"/><text fill="#000000" font-family="sans-serif" font-size="12" lengthAdjust="spacing" textLength="94.7109" x="348.002" y="1923.0137">Catat log aktivitas</text><rect fill="#F1F1F1" height="35.0938" rx="12.5" ry="12.5" style="stroke:#181818;stroke-width:0.5;" width="194.7617" x="297.9766" y="1955.6504"/><text fill="#000000" font-family="sans-serif" font-size="12" lengthAdjust="spacing" textLength="174.7617" x="307.9766" y="1978.1074">Tampilkan ringkasan hasil hitung</text><rect fill="#F1F1F1" height="35.0938" rx="12.5" ry="12.5" style="stroke:#181818;stroke-width:0.5;" width="166.0566" x="312.3291" y="2010.7441"/><text fill="#000000" font-family="sans-serif" font-size="12" lengthAdjust="spacing" textLength="146.0566" x="322.3291" y="2033.2012">Tampilkan notifikasi sukses</text><rect fill="#F1F1F1" height="35.0938" rx="12.5" ry="12.5" style="stroke:#181818;stroke-width:0.5;" width="133.4023" x="796.7148" y="1473.5215"/><text fill="#000000" font-family="sans-serif" font-size="12" lengthAdjust="spacing" textLength="113.4023" x="806.7148" y="1495.9785">Simpan sebagai draft</text><polygon fill="#F1F1F1" points="634.3867,2051.8379,646.3867,2063.8379,634.3867,2075.8379,622.3867,2063.8379,634.3867,2051.8379" style="stroke:#181818;stroke-width:0.5;"/><rect fill="none" height="287.8086" style="stroke:#000000;stroke-width:1.5;" width="280.1016" x="500.3359" y="2097.8379"/><path d="M656.6182,2097.8379 L656.6182,2108.4473 L646.6182,2118.4473 L500.3359,2118.4473 " fill="none" style="stroke:#000000;stroke-width:1.5;"/><text fill="#000000" font-family="sans-serif" font-size="14" lengthAdjust="spacing" textLength="146.2822" x="503.3359" y="2113.3711">Riwayat Stock Opname</text><rect fill="#F1F1F1" height="35.0938" rx="12.5" ry="12.5" style="stroke:#181818;stroke-width:0.5;" width="228.1016" x="520.3359" y="2184.3652"/><text fill="#000000" font-family="sans-serif" font-size="12" lengthAdjust="spacing" textLength="208.1016" x="530.3359" y="2206.8223">Tampilkan daftar stock opname selesai</text><rect fill="#F1F1F1" height="35.0938" rx="12.5" ry="12.5" style="stroke:#181818;stroke-width:0.5;" width="149.4043" x="559.6846" y="2239.459"/><text fill="#000000" font-family="sans-serif" font-size="12" lengthAdjust="spacing" textLength="129.4043" x="569.6846" y="2261.916">Pilih untuk melihat detail</text><rect fill="#F1F1F1" height="35.0938" rx="12.5" ry="12.5" style="stroke:#181818;stroke-width:0.5;" width="186.0781" x="541.3477" y="2294.5527"/><text fill="#000000" font-family="sans-serif" font-size="12" lengthAdjust="spacing" textLength="166.0781" x="551.3477" y="2317.0098">Tampilkan hasil hitung per item</text><polygon fill="#F1F1F1" points="600.4521,2135.4473,668.3213,2135.4473,680.3213,2147.4473,668.3213,2159.4473,600.4521,2159.4473,588.4521,2147.4473,600.4521,2135.4473" style="stroke:#181818;stroke-width:0.5;"/><text fill="#000000" font-family="sans-serif" font-size="11" lengthAdjust="spacing" textLength="13.4546" x="638.3867" y="2170.8662">Ya</text><text fill="#000000" font-family="sans-serif" font-size="11" lengthAdjust="spacing" textLength="67.8691" x="600.4521" y="2151.9482">Lihat riwayat?</text><text fill="#000000" font-family="sans-serif" font-size="11" lengthAdjust="spacing" textLength="26.8984" x="680.3213" y="2145.0303">Tidak</text><polygon fill="#F1F1F1" points="634.3867,2349.6465,646.3867,2361.6465,634.3867,2373.6465,622.3867,2361.6465,634.3867,2349.6465" style="stroke:#181818;stroke-width:0.5;"/><ellipse cx="634.3867" cy="2416.6465" fill="none" rx="11" ry="11" style="stroke:#222222;stroke-width:1.0;"/><ellipse cx="634.3867" cy="2416.6465" fill="#222222" rx="6" ry="6" style="stroke:#222222;stroke-width:1.0;"/><line style="stroke:#181818;stroke-width:1.0;" x1="634.3867" x2="634.3867" y1="68.6094" y2="88.6094"/><polygon fill="#181818" points="630.3867,78.6094,634.3867,88.6094,638.3867,78.6094,634.3867,82.6094" style="stroke:#181818;stroke-width:1.0;"/><line style="stroke:#181818;stroke-width:1.0;" x1="634.3867" x2="634.3867" y1="206.4063" y2="226.4063"/><polygon fill="#181818" points="630.3867,216.4063,634.3867,226.4063,638.3867,216.4063,634.3867,220.4063" style="stroke:#181818;stroke-width:1.0;"/><line style="stroke:#181818;stroke-width:1.0;" x1="634.3867" x2="634.3867" y1="261.5" y2="281.5"/><polygon fill="#181818" points="630.3867,271.5,634.3867,281.5,638.3867,271.5,634.3867,275.5" style="stroke:#181818;stroke-width:1.0;"/><line style="stroke:#181818;stroke-width:1.0;" x1="634.3867" x2="634.3867" y1="415.6875" y2="443.1875"/><polygon fill="#181818" points="630.3867,433.1875,634.3867,443.1875,638.3867,433.1875,634.3867,437.1875" style="stroke:#181818;stroke-width:1.0;"/><line style="stroke:#181818;stroke-width:1.0;" x1="634.3867" x2="634.3867" y1="360.5938" y2="380.5938"/><polygon fill="#181818" points="630.3867,370.5938,634.3867,380.5938,638.3867,370.5938,634.3867,374.5938" style="stroke:#181818;stroke-width:1.0;"/><line style="stroke:#181818;stroke-width:1.0;" x1="691.6301" x2="756.7578" y1="510.2813" y2="510.2813"/><polygon fill="#181818" points="752.7578,435.6875,756.7578,425.6875,760.7578,435.6875,756.7578,431.6875" style="stroke:#181818;stroke-width:1.0;"/><line style="stroke:#181818;stroke-width:1.0;" x1="756.7578" x2="756.7578" y1="348.5938" y2="510.2813"/><line style="stroke:#181818;stroke-width:1.0;" x1="756.7578" x2="646.3867" y1="348.5938" y2="348.5938"/><polygon fill="#181818" points="656.3867,344.5938,646.3867,348.5938,656.3867,352.5938,652.3867,348.5938" style="stroke:#181818;stroke-width:1.0;"/><line style="stroke:#181818;stroke-width:1.0;" x1="634.3867" x2="634.3867" y1="478.2813" y2="498.2813"/><polygon fill="#181818" points="630.3867,488.2813,634.3867,498.2813,638.3867,488.2813,634.3867,492.2813" style="stroke:#181818;stroke-width:1.0;"/><line style="stroke:#181818;stroke-width:1.0;" x1="634.3867" x2="634.3867" y1="316.5938" y2="336.5938"/><polygon fill="#181818" points="630.3867,326.5938,634.3867,336.5938,638.3867,326.5938,634.3867,330.5938" style="stroke:#181818;stroke-width:1.0;"/><line style="stroke:#181818;stroke-width:1.0;" x1="634.3867" x2="634.3867" y1="522.2813" y2="564.5342"/><polygon fill="#181818" points="630.3867,554.5342,634.3867,564.5342,638.3867,554.5342,634.3867,558.5342" style="stroke:#181818;stroke-width:1.0;"/><text fill="#000000" font-family="sans-serif" font-size="11" lengthAdjust="spacing" textLength="26.8984" x="638.3867" y="544.6172">Tidak</text><line style="stroke:#181818;stroke-width:1.0;" x1="634.3867" x2="634.3867" y1="599.6279" y2="619.6279"/><polygon fill="#181818" points="630.3867,609.6279,634.3867,619.6279,638.3867,609.6279,634.3867,613.6279" style="stroke:#181818;stroke-width:1.0;"/><line style="stroke:#181818;stroke-width:1.0;" x1="634.3867" x2="634.3867" y1="654.7217" y2="674.7217"/><polygon fill="#181818" points="630.3867,664.7217,634.3867,674.7217,638.3867,664.7217,634.3867,668.7217" style="stroke:#181818;stroke-width:1.0;"/><line style="stroke:#181818;stroke-width:1.0;" x1="634.3867" x2="634.3867" y1="123.7031" y2="171.3125"/><polygon fill="#181818" points="630.3867,161.3125,634.3867,171.3125,638.3867,161.3125,634.3867,165.3125" style="stroke:#181818;stroke-width:1.0;"/><line style="stroke:#181818;stroke-width:1.0;" x1="634.3867" x2="634.3867" y1="804.5186" y2="824.5186"/><polygon fill="#181818" points="630.3867,814.5186,634.3867,824.5186,638.3867,814.5186,634.3867,818.5186" style="stroke:#181818;stroke-width:1.0;"/><line style="stroke:#181818;stroke-width:1.0;" x1="634.3867" x2="634.3867" y1="859.6123" y2="879.6123"/><polygon fill="#181818" points="630.3867,869.6123,634.3867,879.6123,638.3867,869.6123,634.3867,873.6123" style="stroke:#181818;stroke-width:1.0;"/><line style="stroke:#181818;stroke-width:1.0;" x1="634.3867" x2="634.3867" y1="1013.7998" y2="1033.7998"/><polygon fill="#181818" points="630.3867,1023.7998,634.3867,1033.7998,638.3867,1023.7998,634.3867,1027.7998" style="stroke:#181818;stroke-width:1.0;"/><line style="stroke:#181818;stroke-width:1.0;" x1="634.3867" x2="634.3867" y1="1068.8936" y2="1088.8936"/><polygon fill="#181818" points="630.3867,1078.8936,634.3867,1088.8936,638.3867,1078.8936,634.3867,1082.8936" style="stroke:#181818;stroke-width:1.0;"/><line style="stroke:#181818;stroke-width:1.0;" x1="634.3867" x2="634.3867" y1="1123.9873" y2="1143.9873"/><polygon fill="#181818" points="630.3867,1133.9873,634.3867,1143.9873,638.3867,1133.9873,634.3867,1137.9873" style="stroke:#181818;stroke-width:1.0;"/><line style="stroke:#181818;stroke-width:1.0;" x1="558.021" x2="558.021" y1="1268.1748" y2="1288.1748"/><polygon fill="#181818" points="554.021,1278.1748,558.021,1288.1748,562.021,1278.1748,558.021,1282.1748" style="stroke:#181818;stroke-width:1.0;"/><line style="stroke:#181818;stroke-width:1.0;" x1="592.7302" x2="558.021" y1="1211.0811" y2="1211.0811"/><line style="stroke:#181818;stroke-width:1.0;" x1="558.021" x2="558.021" y1="1211.0811" y2="1233.0811"/><polygon fill="#181818" points="554.021,1223.0811,558.021,1233.0811,562.021,1223.0811,558.021,1227.0811" style="stroke:#181818;stroke-width:1.0;"/><line style="stroke:#181818;stroke-width:1.0;" x1="676.0432" x2="710.7524" y1="1211.0811" y2="1211.0811"/><line style="stroke:#181818;stroke-width:1.0;" x1="710.7524" x2="710.7524" y1="1211.0811" y2="1233.0811"/><polygon fill="#181818" points="706.7524,1223.0811,710.7524,1233.0811,714.7524,1223.0811,710.7524,1227.0811" style="stroke:#181818;stroke-width:1.0;"/><line style="stroke:#181818;stroke-width:1.0;" x1="558.021" x2="558.021" y1="1323.2686" y2="1341.2686"/><line style="stroke:#181818;stroke-width:1.0;" x1="558.021" x2="622.3867" y1="1341.2686" y2="1341.2686"/><polygon fill="#181818" points="612.3867,1337.2686,622.3867,1341.2686,612.3867,1345.2686,616.3867,1341.2686" style="stroke:#181818;stroke-width:1.0;"/><line style="stroke:#181818;stroke-width:1.0;" x1="710.7524" x2="710.7524" y1="1268.1748" y2="1341.2686"/><line style="stroke:#181818;stroke-width:1.0;" x1="710.7524" x2="646.3867" y1="1341.2686" y2="1341.2686"/><polygon fill="#181818" points="656.3867,1337.2686,646.3867,1341.2686,656.3867,1345.2686,652.3867,1341.2686" style="stroke:#181818;stroke-width:1.0;"/><line style="stroke:#181818;stroke-width:1.0;" x1="634.3867" x2="634.3867" y1="1179.0811" y2="1199.0811"/><polygon fill="#181818" points="630.3867,1189.0811,634.3867,1199.0811,638.3867,1189.0811,634.3867,1193.0811" style="stroke:#181818;stroke-width:1.0;"/><line style="stroke:#181818;stroke-width:1.0;" x1="634.3867" x2="634.3867" y1="958.7061" y2="978.7061"/><polygon fill="#181818" points="630.3867,968.7061,634.3867,978.7061,638.3867,968.7061,634.3867,972.7061" style="stroke:#181818;stroke-width:1.0;"/><line style="stroke:#181818;stroke-width:1.0;" x1="687.0459" x2="773.4321" y1="1385.2686" y2="1385.2686"/><polygon fill="#181818" points="769.4321,1168.4873,773.4321,1158.4873,777.4321,1168.4873,773.4321,1164.4873" style="stroke:#181818;stroke-width:1.0;"/><line style="stroke:#181818;stroke-width:1.0;" x1="773.4321" x2="773.4321" y1="946.7061" y2="1385.2686"/><line style="stroke:#181818;stroke-width:1.0;" x1="773.4321" x2="646.3867" y1="946.7061" y2="946.7061"/><polygon fill="#181818" points="656.3867,942.7061,646.3867,946.7061,656.3867,950.7061,652.3867,946.7061" style="stroke:#181818;stroke-width:1.0;"/><line style="stroke:#181818;stroke-width:1.0;" x1="634.3867" x2="634.3867" y1="1353.2686" y2="1373.2686"/><polygon fill="#181818" points="630.3867,1363.2686,634.3867,1373.2686,638.3867,1363.2686,634.3867,1367.2686" style="stroke:#181818;stroke-width:1.0;"/><line style="stroke:#181818;stroke-width:1.0;" x1="634.3867" x2="634.3867" y1="914.7061" y2="934.7061"/><polygon fill="#181818" points="630.3867,924.7061,634.3867,934.7061,638.3867,924.7061,634.3867,928.7061" style="stroke:#181818;stroke-width:1.0;"/><line style="stroke:#181818;stroke-width:1.0;" x1="322.6602" x2="322.6602" y1="1627.5332" y2="1662.5332"/><polygon fill="#181818" points="318.6602,1652.5332,322.6602,1662.5332,326.6602,1652.5332,322.6602,1656.5332" style="stroke:#181818;stroke-width:1.0;"/><line style="stroke:#181818;stroke-width:1.0;" x1="322.6602" x2="322.6602" y1="1567.5215" y2="1592.4395"/><polygon fill="#181818" points="318.6602,1582.4395,322.6602,1592.4395,326.6602,1582.4395,322.6602,1586.4395" style="stroke:#181818;stroke-width:1.0;"/><line style="stroke:#181818;stroke-width:1.0;" x1="364.3167" x2="474.5898" y1="1555.5215" y2="1555.5215"/><polygon fill="#181818" points="470.5898,1635.0332,474.5898,1645.0332,478.5898,1635.0332,474.5898,1639.0332" style="stroke:#181818;stroke-width:1.0;"/><line style="stroke:#181818;stroke-width:1.0;" x1="474.5898" x2="474.5898" y1="1555.5215" y2="1729.627"/><line style="stroke:#181818;stroke-width:1.0;" x1="474.5898" x2="334.6602" y1="1729.627" y2="1729.627"/><polygon fill="#181818" points="344.6602,1725.627,334.6602,1729.627,344.6602,1733.627,340.6602,1729.627" style="stroke:#181818;stroke-width:1.0;"/><line style="stroke:#181818;stroke-width:1.0;" x1="322.6602" x2="322.6602" y1="1697.627" y2="1717.627"/><polygon fill="#181818" points="318.6602,1707.627,322.6602,1717.627,326.6602,1707.627,322.6602,1711.627" style="stroke:#181818;stroke-width:1.0;"/><line style="stroke:#181818;stroke-width:1.0;" x1="322.6602" x2="322.6602" y1="1523.5215" y2="1543.5215"/><polygon fill="#181818" points="318.6602,1533.5215,322.6602,1543.5215,326.6602,1533.5215,322.6602,1537.5215" style="stroke:#181818;stroke-width:1.0;"/><line style="stroke:#181818;stroke-width:1.0;" x1="375.3193" x2="498.5898" y1="1773.627" y2="1773.627"/><polygon fill="#181818" points="494.5898,1655.0332,498.5898,1645.0332,502.5898,1655.0332,498.5898,1651.0332" style="stroke:#181818;stroke-width:1.0;"/><line style="stroke:#181818;stroke-width:1.0;" x1="498.5898" x2="498.5898" y1="1511.5215" y2="1773.627"/><line style="stroke:#181818;stroke-width:1.0;" x1="498.5898" x2="334.6602" y1="1511.5215" y2="1511.5215"/><polygon fill="#181818" points="344.6602,1507.5215,334.6602,1511.5215,344.6602,1515.5215,340.6602,1511.5215" style="stroke:#181818;stroke-width:1.0;"/><line style="stroke:#181818;stroke-width:1.0;" x1="322.6602" x2="322.6602" y1="1741.627" y2="1761.627"/><polygon fill="#181818" points="318.6602,1751.627,322.6602,1761.627,326.6602,1751.627,322.6602,1755.627" style="stroke:#181818;stroke-width:1.0;"/><line style="stroke:#181818;stroke-width:1.0;" x1="97.3652" x2="97.3652" y1="1479.5215" y2="1627.4863"/><polygon fill="#181818" points="93.3652,1617.4863,97.3652,1627.4863,101.3652,1617.4863,97.3652,1621.4863" style="stroke:#181818;stroke-width:1.0;"/><line style="stroke:#181818;stroke-width:1.0;" x1="322.6602" x2="322.6602" y1="1479.5215" y2="1499.5215"/><polygon fill="#181818" points="318.6602,1489.5215,322.6602,1499.5215,326.6602,1489.5215,322.6602,1493.5215" style="stroke:#181818;stroke-width:1.0;"/><line style="stroke:#181818;stroke-width:1.0;" x1="655.6523" x2="655.6523" y1="1479.5215" y2="1627.4863"/><polygon fill="#181818" points="651.6523,1617.4863,655.6523,1627.4863,659.6523,1617.4863,655.6523,1621.4863" style="stroke:#181818;stroke-width:1.0;"/><line style="stroke:#181818;stroke-width:1.0;" x1="97.3652" x2="97.3652" y1="1662.5801" y2="1819.4629"/><polygon fill="#181818" points="93.3652,1809.4629,97.3652,1819.4629,101.3652,1809.4629,97.3652,1813.4629" style="stroke:#181818;stroke-width:1.0;"/><line style="stroke:#181818;stroke-width:1.0;" x1="322.6602" x2="322.6602" y1="1785.627" y2="1819.4629"/><polygon fill="#181818" points="318.6602,1809.4629,322.6602,1819.4629,326.6602,1809.4629,322.6602,1813.4629" style="stroke:#181818;stroke-width:1.0;"/><text fill="#000000" font-family="sans-serif" font-size="11" lengthAdjust="spacing" textLength="26.8984" x="326.6602" y="1807.0459">Tidak</text><line style="stroke:#181818;stroke-width:1.0;" x1="655.6523" x2="655.6523" y1="1662.5801" y2="1819.4629"/><polygon fill="#181818" points="651.6523,1809.4629,655.6523,1819.4629,659.6523,1809.4629,655.6523,1813.4629" style="stroke:#181818;stroke-width:1.0;"/><line style="stroke:#181818;stroke-width:1.0;" x1="395.3574" x2="395.3574" y1="1825.4629" y2="1845.4629"/><polygon fill="#181818" points="391.3574,1835.4629,395.3574,1845.4629,399.3574,1835.4629,395.3574,1839.4629" style="stroke:#181818;stroke-width:1.0;"/><line style="stroke:#181818;stroke-width:1.0;" x1="395.3574" x2="395.3574" y1="1880.5566" y2="1900.5566"/><polygon fill="#181818" points="391.3574,1890.5566,395.3574,1900.5566,399.3574,1890.5566,395.3574,1894.5566" style="stroke:#181818;stroke-width:1.0;"/><line style="stroke:#181818;stroke-width:1.0;" x1="395.3574" x2="395.3574" y1="1935.6504" y2="1955.6504"/><polygon fill="#181818" points="391.3574,1945.6504,395.3574,1955.6504,399.3574,1945.6504,395.3574,1949.6504" style="stroke:#181818;stroke-width:1.0;"/><line style="stroke:#181818;stroke-width:1.0;" x1="395.3574" x2="395.3574" y1="1990.7441" y2="2010.7441"/><polygon fill="#181818" points="391.3574,2000.7441,395.3574,2010.7441,399.3574,2000.7441,395.3574,2004.7441" style="stroke:#181818;stroke-width:1.0;"/><line style="stroke:#181818;stroke-width:1.0;" x1="574.6995" x2="395.3574" y1="1451.5215" y2="1451.5215"/><line style="stroke:#181818;stroke-width:1.0;" x1="395.3574" x2="395.3574" y1="1451.5215" y2="1473.5215"/><polygon fill="#181818" points="391.3574,1463.5215,395.3574,1473.5215,399.3574,1463.5215,395.3574,1467.5215" style="stroke:#181818;stroke-width:1.0;"/><line style="stroke:#181818;stroke-width:1.0;" x1="694.074" x2="863.416" y1="1451.5215" y2="1451.5215"/><line style="stroke:#181818;stroke-width:1.0;" x1="863.416" x2="863.416" y1="1451.5215" y2="1473.5215"/><polygon fill="#181818" points="859.416,1463.5215,863.416,1473.5215,867.416,1463.5215,863.416,1467.5215" style="stroke:#181818;stroke-width:1.0;"/><line style="stroke:#181818;stroke-width:1.0;" x1="395.3574" x2="395.3574" y1="2045.8379" y2="2063.8379"/><line style="stroke:#181818;stroke-width:1.0;" x1="395.3574" x2="622.3867" y1="2063.8379" y2="2063.8379"/><polygon fill="#181818" points="612.3867,2059.8379,622.3867,2063.8379,612.3867,2067.8379,616.3867,2063.8379" style="stroke:#181818;stroke-width:1.0;"/><line style="stroke:#181818;stroke-width:1.0;" x1="863.416" x2="863.416" y1="1508.6152" y2="2063.8379"/><line style="stroke:#181818;stroke-width:1.0;" x1="863.416" x2="646.3867" y1="2063.8379" y2="2063.8379"/><polygon fill="#181818" points="656.3867,2059.8379,646.3867,2063.8379,656.3867,2067.8379,652.3867,2063.8379" style="stroke:#181818;stroke-width:1.0;"/><line style="stroke:#181818;stroke-width:1.0;" x1="634.3867" x2="634.3867" y1="1397.2686" y2="1439.5215"/><polygon fill="#181818" points="630.3867,1429.5215,634.3867,1439.5215,638.3867,1429.5215,634.3867,1433.5215" style="stroke:#181818;stroke-width:1.0;"/><text fill="#000000" font-family="sans-serif" font-size="11" lengthAdjust="spacing" textLength="26.8984" x="638.3867" y="1419.6045">Tidak</text><line style="stroke:#181818;stroke-width:1.0;" x1="634.3867" x2="634.3867" y1="709.8154" y2="769.4248"/><polygon fill="#181818" points="630.3867,759.4248,634.3867,769.4248,638.3867,759.4248,634.3867,763.4248" style="stroke:#181818;stroke-width:1.0;"/><line style="stroke:#181818;stroke-width:1.0;" x1="634.3867" x2="634.3867" y1="2219.459" y2="2239.459"/><polygon fill="#181818" points="630.3867,2229.459,634.3867,2239.459,638.3867,2229.459,634.3867,2233.459" style="stroke:#181818;stroke-width:1.0;"/><line style="stroke:#181818;stroke-width:1.0;" x1="634.3867" x2="634.3867" y1="2274.5527" y2="2294.5527"/><polygon fill="#181818" points="630.3867,2284.5527,634.3867,2294.5527,638.3867,2284.5527,634.3867,2288.5527" style="stroke:#181818;stroke-width:1.0;"/><line style="stroke:#181818;stroke-width:1.0;" x1="634.3867" x2="634.3867" y1="2159.4473" y2="2184.3652"/><polygon fill="#181818" points="630.3867,2174.3652,634.3867,2184.3652,638.3867,2174.3652,634.3867,2178.3652" style="stroke:#181818;stroke-width:1.0;"/><line style="stroke:#181818;stroke-width:1.0;" x1="680.3213" x2="758.4375" y1="2147.4473" y2="2147.4473"/><polygon fill="#181818" points="754.4375,2247.0059,758.4375,2257.0059,762.4375,2247.0059,758.4375,2251.0059" style="stroke:#181818;stroke-width:1.0;"/><line style="stroke:#181818;stroke-width:1.0;" x1="758.4375" x2="758.4375" y1="2147.4473" y2="2361.6465"/><line style="stroke:#181818;stroke-width:1.0;" x1="758.4375" x2="646.3867" y1="2361.6465" y2="2361.6465"/><polygon fill="#181818" points="656.3867,2357.6465,646.3867,2361.6465,656.3867,2365.6465,652.3867,2361.6465" style="stroke:#181818;stroke-width:1.0;"/><line style="stroke:#181818;stroke-width:1.0;" x1="634.3867" x2="634.3867" y1="2329.6465" y2="2349.6465"/><polygon fill="#181818" points="630.3867,2339.6465,634.3867,2349.6465,638.3867,2339.6465,634.3867,2343.6465" style="stroke:#181818;stroke-width:1.0;"/><line style="stroke:#181818;stroke-width:1.0;" x1="634.3867" x2="634.3867" y1="2075.8379" y2="2135.4473"/><polygon fill="#181818" points="630.3867,2125.4473,634.3867,2135.4473,638.3867,2125.4473,634.3867,2129.4473" style="stroke:#181818;stroke-width:1.0;"/><line style="stroke:#181818;stroke-width:1.0;" x1="634.3867" x2="634.3867" y1="2373.6465" y2="2405.6465"/><polygon fill="#181818" points="630.3867,2395.6465,634.3867,2405.6465,638.3867,2395.6465,634.3867,2399.6465" style="stroke:#181818;stroke-width:1.0;"/><!--SRC=[dLNRJjj047ttLunuSXxu0I9Q0P5ArKQD29NA4vhO6tlazQwx5v1LzTyxkxOJEnWGzGCusRDpEUVCn96J0guoHq_aMbWH5WRh2zWwdLNmer5O2qXloNbLB9B4EZGkIIusGXM5LmWrls1bXOKI9TQee8pOPP8q32L7Mi7PHXYXCbJ8v-F8P_0d0NukhZqww35z1DYXySlk-8jGmg0Je7IjpG18Rs_E7nxMwzNg_1S_Ynwy8KabEEGAKHxA2KVnZn6DG1TVH_0TbbpR3YiFBTy4hFXZJkFR4RqbwqGTsiQw8HbGbKV5ZQ856m-NepJmN1BpczvZpHc0mbs91NrU05b87t0HmUUVu9voh4PbSgQwuUXJKleMjmwTjt09Tzrf__KDylSWTIW_2efscVmzKKAoN6yeqT4nctNj9H8qHWUv6nQ-EqLrMjKgM04s4VWkyv6JIF__qDmLXjPNKmmJu8FwQ6dgWPFmVGzWXIJBrMYdQtHaZ-332-qXlSfnWBA4hXJgAE8X-Zsgd8cAZJN2I1_8QeNrIECcfwLdGJl-d-h6ib8e5qUaa3PuA3Za9DNNaCF6q2Euoca_hN_gndXh9mnLtgaMtpTZQFsRLdioDHCQ610MQPQ1lJRLjCRUoFDI13XWWQGcbqwiyb493hb_DdbO6pjqMVduktD72mroZ3KV649v7SwMyzUxWIBr99JJfdqCevM7ZQS0ipXGbwzh-wPoBtNwg4p3CvNh3Ku7Ccmtfjt6Iut8K6OysKvqyxkO66cgvsY2XbdVTbuO3TVi5XeDnp3GXbHHeNtL6YEeqexsL4Nl-UgmLMRP7VncnIvm0Bd1lUlnaV3fGhoZPsovthbb6EpsdShmqzIXPWqtgZFdL6YOuH1BTp-UzWL1tTxpolcALv2C2NBXaEHiysDsmZw9Y-KL0WuTSWbDyWy0]--></g></svg>