<svg xmlns="http://www.w3.org/2000/svg" xmlns:xlink="http://www.w3.org/1999/xlink" contentStyleType="text/css" height="749px" preserveAspectRatio="none" style="width:1178px;height:749px;background:#FFFFFF;" version="1.1" viewBox="0 0 1178 749" width="1178px" zoomAndPan="magnify"><title>Activity Diagram: Kelola Kategori dan Satuan</title><defs/><g><text fill="#000000" font-family="sans-serif" font-size="14" font-weight="bold" lengthAdjust="spacing" textLength="301.0684" x="436.9941" y="34.5332">Activity Diagram: Kelola Kategori dan Satuan</text><ellipse cx="586.5283" cy="58.6094" fill="#222222" rx="10" ry="10" style="stroke:#222222;stroke-width:1.0;"/><rect fill="#F1F1F1" height="35.0938" rx="12.5" ry="12.5" style="stroke:#181818;stroke-width:0.5;" width="274.1738" x="449.4414" y="88.6094"/><text fill="#000000" font-family="sans-serif" font-size="12" lengthAdjust="spacing" textLength="254.1738" x="459.4414" y="111.0664">Pengguna mengakses halaman kategori/satuan</text><rect fill="#F1F1F1" height="35.0938" rx="12.5" ry="12.5" style="stroke:#181818;stroke-width:0.5;" width="192.084" x="490.4863" y="143.7031"/><text fill="#000000" font-family="sans-serif" font-size="12" lengthAdjust="spacing" textLength="172.084" x="500.4863" y="166.1602">Sistem menampilkan daftar data</text><polygon fill="#F1F1F1" points="142.793,198.7969,192.3145,198.7969,204.3145,210.7969,192.3145,222.7969,142.793,222.7969,130.793,210.7969,142.793,198.7969" style="stroke:#181818;stroke-width:0.5;"/><text fill="#000000" font-family="sans-serif" font-size="11" lengthAdjust="spacing" textLength="40.353" x="171.5537" y="234.2158">Tambah</text><text fill="#000000" font-family="sans-serif" font-size="11" lengthAdjust="spacing" textLength="49.5215" x="142.793" y="215.2979">Pilih aksi?</text><rect fill="#F1F1F1" height="35.0938" rx="12.5" ry="12.5" style="stroke:#181818;stroke-width:0.5;" width="146.0469" x="94.5303" y="256.6328"/><text fill="#000000" font-family="sans-serif" font-size="12" lengthAdjust="spacing" textLength="126.0469" x="104.5303" y="279.0898">Tampilkan form tambah</text><rect fill="#F1F1F1" height="35.0938" rx="12.5" ry="12.5" style="stroke:#181818;stroke-width:0.5;" width="146.0938" x="94.5068" y="326.7266"/><text fill="#000000" font-family="sans-serif" font-size="12" lengthAdjust="spacing" textLength="126.0938" x="104.5068" y="349.1836">Pengguna mengisi data</text><polygon fill="#F1F1F1" points="107.0188,395.6563,228.0886,395.6563,240.0886,407.6563,228.0886,419.6563,107.0188,419.6563,95.0188,407.6563,107.0188,395.6563" style="stroke:#181818;stroke-width:0.5;"/><text fill="#000000" font-family="sans-serif" font-size="11" lengthAdjust="spacing" textLength="121.0698" x="107.0188" y="412.1572">Validasi duplikasi nama?</text><text fill="#000000" font-family="sans-serif" font-size="11" lengthAdjust="spacing" textLength="39.7407" x="55.2781" y="405.2393">Duplikat</text><text fill="#000000" font-family="sans-serif" font-size="11" lengthAdjust="spacing" textLength="22.0054" x="240.0886" y="405.2393">Unik</text><rect fill="#F1F1F1" height="35.0938" rx="12.5" ry="12.5" style="stroke:#181818;stroke-width:0.5;" width="140.0527" x="11" y="429.6563"/><text fill="#000000" font-family="sans-serif" font-size="12" lengthAdjust="spacing" textLength="120.0527" x="21" y="452.1133">Tampilkan pesan error</text><ellipse cx="81.0264" cy="510.75" fill="none" rx="11" ry="11" style="stroke:#222222;stroke-width:1.0;"/><ellipse cx="81.0264" cy="510.75" fill="#222222" rx="6" ry="6" style="stroke:#222222;stroke-width:1.0;"/><rect fill="#F1F1F1" height="35.0938" rx="12.5" ry="12.5" style="stroke:#181818;stroke-width:0.5;" width="156.0957" x="176.0332" y="429.6563"/><text fill="#000000" font-family="sans-serif" font-size="12" lengthAdjust="spacing" textLength="136.0957" x="186.0332" y="452.1133">Simpan data ke database</text><rect fill="#F1F1F1" height="35.0938" rx="12.5" ry="12.5" style="stroke:#181818;stroke-width:0.5;" width="114.7109" x="196.7256" y="499.75"/><text fill="#000000" font-family="sans-serif" font-size="12" lengthAdjust="spacing" textLength="94.7109" x="206.7256" y="522.207">Catat log aktivitas</text><rect fill="#F1F1F1" height="35.0938" rx="12.5" ry="12.5" style="stroke:#181818;stroke-width:0.5;" width="166.0566" x="171.0527" y="569.8438"/><text fill="#000000" font-family="sans-serif" font-size="12" lengthAdjust="spacing" textLength="146.0566" x="181.0527" y="592.3008">Tampilkan notifikasi sukses</text><polygon fill="#F1F1F1" points="503.5166,198.7969,529.8135,198.7969,541.8135,210.7969,529.8135,222.7969,503.5166,222.7969,491.5166,210.7969,503.5166,198.7969" style="stroke:#181818;stroke-width:0.5;"/><text fill="#000000" font-family="sans-serif" font-size="11" lengthAdjust="spacing" textLength="26.2969" x="503.5166" y="215.2979">Ubah</text><rect fill="#F1F1F1" height="35.0938" rx="12.5" ry="12.5" style="stroke:#181818;stroke-width:0.5;" width="125.3691" x="453.9805" y="242.7969"/><text fill="#000000" font-family="sans-serif" font-size="12" lengthAdjust="spacing" textLength="105.3691" x="463.9805" y="265.2539">Tampilkan form edit</text><rect fill="#F1F1F1" height="35.0938" rx="12.5" ry="12.5" style="stroke:#181818;stroke-width:0.5;" width="161.457" x="435.9365" y="312.8906"/><text fill="#000000" font-family="sans-serif" font-size="12" lengthAdjust="spacing" textLength="141.457" x="445.9365" y="335.3477">Pengguna mengubah data</text><polygon fill="#F1F1F1" points="482.1128,381.8203,551.2173,381.8203,563.2173,393.8203,551.2173,405.8203,482.1128,405.8203,470.1128,393.8203,482.1128,381.8203" style="stroke:#181818;stroke-width:0.5;"/><text fill="#000000" font-family="sans-serif" font-size="11" lengthAdjust="spacing" textLength="69.1045" x="482.1128" y="398.3213">Validasi data?</text><text fill="#000000" font-family="sans-serif" font-size="11" lengthAdjust="spacing" textLength="24.46" x="445.6528" y="391.4033">Valid</text><text fill="#000000" font-family="sans-serif" font-size="11" lengthAdjust="spacing" textLength="54.4146" x="563.2173" y="391.4033">Tidak Valid</text><rect fill="#F1F1F1" height="35.0938" rx="12.5" ry="12.5" style="stroke:#181818;stroke-width:0.5;" width="121.4082" x="369.4336" y="415.8203"/><text fill="#000000" font-family="sans-serif" font-size="12" lengthAdjust="spacing" textLength="101.4082" x="379.4336" y="438.2773">Simpan perubahan</text><rect fill="#F1F1F1" height="35.0938" rx="12.5" ry="12.5" style="stroke:#181818;stroke-width:0.5;" width="114.7109" x="372.7822" y="485.9141"/><text fill="#000000" font-family="sans-serif" font-size="12" lengthAdjust="spacing" textLength="94.7109" x="382.7822" y="508.3711">Catat log aktivitas</text><rect fill="#F1F1F1" height="35.0938" rx="12.5" ry="12.5" style="stroke:#181818;stroke-width:0.5;" width="166.0566" x="347.1094" y="556.0078"/><text fill="#000000" font-family="sans-serif" font-size="12" lengthAdjust="spacing" textLength="146.0566" x="357.1094" y="578.4648">Tampilkan notifikasi sukses</text><rect fill="#F1F1F1" height="35.0938" rx="12.5" ry="12.5" style="stroke:#181818;stroke-width:0.5;" width="140.0527" x="533.166" y="415.8203"/><text fill="#000000" font-family="sans-serif" font-size="12" lengthAdjust="spacing" textLength="120.0527" x="543.166" y="438.2773">Tampilkan pesan error</text><polygon fill="#F1F1F1" points="516.665,597.1016,528.665,609.1016,516.665,621.1016,504.665,609.1016,516.665,597.1016" style="stroke:#181818;stroke-width:0.5;"/><polygon fill="#F1F1F1" points="916.9204,198.7969,948.7173,198.7969,960.7173,210.7969,948.7173,222.7969,916.9204,222.7969,904.9204,210.7969,916.9204,198.7969" style="stroke:#181818;stroke-width:0.5;"/><text fill="#000000" font-family="sans-serif" font-size="11" lengthAdjust="spacing" textLength="31.7969" x="916.9204" y="215.2979">Hapus</text><text fill="#000000" font-family="sans-serif" font-size="11" lengthAdjust="spacing" textLength="25.0723" x="960.7173" y="208.3799">Batal</text><polygon fill="#F1F1F1" points="893.0754,291.7148,972.5623,291.7148,984.5623,303.7148,972.5623,315.7148,893.0754,315.7148,881.0754,303.7148,893.0754,291.7148" style="stroke:#181818;stroke-width:0.5;"/><text fill="#000000" font-family="sans-serif" font-size="11" lengthAdjust="spacing" textLength="79.4868" x="893.0754" y="308.2158">Cek relasi data?</text><text fill="#000000" font-family="sans-serif" font-size="11" lengthAdjust="spacing" textLength="48.9146" x="832.1609" y="301.2979">Ada relasi</text><text fill="#000000" font-family="sans-serif" font-size="11" lengthAdjust="spacing" textLength="48.3076" x="984.5623" y="301.2979">Tidak ada</text><rect fill="#F1F1F1" height="35.0938" rx="12.5" ry="12.5" style="stroke:#181818;stroke-width:0.5;" width="210.7813" x="723.2188" y="325.7148"/><text fill="#000000" font-family="sans-serif" font-size="12" lengthAdjust="spacing" textLength="190.7813" x="733.2188" y="348.1719">Tampilkan pesan tidak bisa dihapus</text><rect fill="#F1F1F1" height="35.0938" rx="12.5" ry="12.5" style="stroke:#181818;stroke-width:0.5;" width="157.4316" x="958.3125" y="325.7148"/><text fill="#000000" font-family="sans-serif" font-size="12" lengthAdjust="spacing" textLength="137.4316" x="968.3125" y="348.1719">Hapus data dari database</text><rect fill="#F1F1F1" height="35.0938" rx="12.5" ry="12.5" style="stroke:#181818;stroke-width:0.5;" width="114.7109" x="979.6729" y="394.6445"/><text fill="#000000" font-family="sans-serif" font-size="12" lengthAdjust="spacing" textLength="94.7109" x="989.6729" y="417.1016">Catat log aktivitas</text><rect fill="#F1F1F1" height="35.0938" rx="12.5" ry="12.5" style="stroke:#181818;stroke-width:0.5;" width="166.0566" x="954" y="464.7383"/><text fill="#000000" font-family="sans-serif" font-size="12" lengthAdjust="spacing" textLength="146.0566" x="964" y="487.1953">Tampilkan notifikasi sukses</text><polygon fill="#F1F1F1" points="932.8188,505.832,944.8188,517.832,932.8188,529.832,920.8188,517.832,932.8188,505.832" style="stroke:#181818;stroke-width:0.5;"/><polygon fill="#F1F1F1" points="887.2666,242.7969,978.3711,242.7969,990.3711,254.7969,978.3711,266.7969,887.2666,266.7969,875.2666,254.7969,887.2666,242.7969" style="stroke:#181818;stroke-width:0.5;"/><text fill="#000000" font-family="sans-serif" font-size="11" lengthAdjust="spacing" textLength="13.4546" x="936.8188" y="278.2158">Ya</text><text fill="#000000" font-family="sans-serif" font-size="11" lengthAdjust="spacing" textLength="91.1045" x="887.2666" y="259.2979">Konfirmasi hapus?</text><text fill="#000000" font-family="sans-serif" font-size="11" lengthAdjust="spacing" textLength="26.8984" x="990.3711" y="252.3799">Tidak</text><polygon fill="#F1F1F1" points="932.8188,554.75,944.8188,566.75,932.8188,578.75,920.8188,566.75,932.8188,554.75" style="stroke:#181818;stroke-width:0.5;"/><rect fill="#F1F1F1" height="35.0938" rx="12.5" ry="12.5" style="stroke:#181818;stroke-width:0.5;" width="122.7266" x="525.165" y="661.1016"/><text fill="#000000" font-family="sans-serif" font-size="12" lengthAdjust="spacing" textLength="102.7266" x="535.165" y="683.5586">Refresh daftar data</text><ellipse cx="586.5283" cy="727.1953" fill="none" rx="11" ry="11" style="stroke:#222222;stroke-width:1.0;"/><ellipse cx="586.5283" cy="727.1953" fill="#222222" rx="6" ry="6" style="stroke:#222222;stroke-width:1.0;"/><line style="stroke:#181818;stroke-width:1.0;" x1="586.5283" x2="586.5283" y1="68.6094" y2="88.6094"/><polygon fill="#181818" points="582.5283,78.6094,586.5283,88.6094,590.5283,78.6094,586.5283,82.6094" style="stroke:#181818;stroke-width:1.0;"/><line style="stroke:#181818;stroke-width:1.0;" x1="586.5283" x2="586.5283" y1="123.7031" y2="143.7031"/><polygon fill="#181818" points="582.5283,133.7031,586.5283,143.7031,590.5283,133.7031,586.5283,137.7031" style="stroke:#181818;stroke-width:1.0;"/><line style="stroke:#181818;stroke-width:1.0;" x1="167.5537" x2="167.5537" y1="291.7266" y2="326.7266"/><polygon fill="#181818" points="163.5537,316.7266,167.5537,326.7266,171.5537,316.7266,167.5537,320.7266" style="stroke:#181818;stroke-width:1.0;"/><line style="stroke:#181818;stroke-width:1.0;" x1="81.0264" x2="81.0264" y1="464.75" y2="499.75"/><polygon fill="#181818" points="77.0264,489.75,81.0264,499.75,85.0264,489.75,81.0264,493.75" style="stroke:#181818;stroke-width:1.0;"/><line style="stroke:#181818;stroke-width:1.0;" x1="254.0811" x2="254.0811" y1="464.75" y2="499.75"/><polygon fill="#181818" points="250.0811,489.75,254.0811,499.75,258.0811,489.75,254.0811,493.75" style="stroke:#181818;stroke-width:1.0;"/><line style="stroke:#181818;stroke-width:1.0;" x1="254.0811" x2="254.0811" y1="534.8438" y2="569.8438"/><polygon fill="#181818" points="250.0811,559.8438,254.0811,569.8438,258.0811,559.8438,254.0811,563.8438" style="stroke:#181818;stroke-width:1.0;"/><line style="stroke:#181818;stroke-width:1.0;" x1="95.0188" x2="81.0264" y1="407.6563" y2="407.6563"/><line style="stroke:#181818;stroke-width:1.0;" x1="81.0264" x2="81.0264" y1="407.6563" y2="429.6563"/><polygon fill="#181818" points="77.0264,419.6563,81.0264,429.6563,85.0264,419.6563,81.0264,423.6563" style="stroke:#181818;stroke-width:1.0;"/><line style="stroke:#181818;stroke-width:1.0;" x1="240.0886" x2="254.0811" y1="407.6563" y2="407.6563"/><line style="stroke:#181818;stroke-width:1.0;" x1="254.0811" x2="254.0811" y1="407.6563" y2="429.6563"/><polygon fill="#181818" points="250.0811,419.6563,254.0811,429.6563,258.0811,419.6563,254.0811,423.6563" style="stroke:#181818;stroke-width:1.0;"/><line style="stroke:#181818;stroke-width:1.0;" x1="254.0811" x2="254.0811" y1="604.9375" y2="610.9375"/><line style="stroke:#181818;stroke-width:1.0;" x1="254.0811" x2="167.5537" y1="610.9375" y2="610.9375"/><line style="stroke:#181818;stroke-width:1.0;" x1="167.5537" x2="167.5537" y1="610.9375" y2="641.1016"/><polygon fill="#181818" points="163.5537,631.1016,167.5537,641.1016,171.5537,631.1016,167.5537,635.1016" style="stroke:#181818;stroke-width:1.0;"/><line style="stroke:#181818;stroke-width:1.0;" x1="167.5537" x2="167.5537" y1="361.8203" y2="395.6563"/><polygon fill="#181818" points="163.5537,385.6563,167.5537,395.6563,171.5537,385.6563,167.5537,389.6563" style="stroke:#181818;stroke-width:1.0;"/><line style="stroke:#181818;stroke-width:1.0;" x1="516.665" x2="516.665" y1="277.8906" y2="312.8906"/><polygon fill="#181818" points="512.665,302.8906,516.665,312.8906,520.665,302.8906,516.665,306.8906" style="stroke:#181818;stroke-width:1.0;"/><line style="stroke:#181818;stroke-width:1.0;" x1="430.1377" x2="430.1377" y1="450.9141" y2="485.9141"/><polygon fill="#181818" points="426.1377,475.9141,430.1377,485.9141,434.1377,475.9141,430.1377,479.9141" style="stroke:#181818;stroke-width:1.0;"/><line style="stroke:#181818;stroke-width:1.0;" x1="430.1377" x2="430.1377" y1="521.0078" y2="556.0078"/><polygon fill="#181818" points="426.1377,546.0078,430.1377,556.0078,434.1377,546.0078,430.1377,550.0078" style="stroke:#181818;stroke-width:1.0;"/><line style="stroke:#181818;stroke-width:1.0;" x1="470.1128" x2="430.1377" y1="393.8203" y2="393.8203"/><line style="stroke:#181818;stroke-width:1.0;" x1="430.1377" x2="430.1377" y1="393.8203" y2="415.8203"/><polygon fill="#181818" points="426.1377,405.8203,430.1377,415.8203,434.1377,405.8203,430.1377,409.8203" style="stroke:#181818;stroke-width:1.0;"/><line style="stroke:#181818;stroke-width:1.0;" x1="563.2173" x2="603.1924" y1="393.8203" y2="393.8203"/><line style="stroke:#181818;stroke-width:1.0;" x1="603.1924" x2="603.1924" y1="393.8203" y2="415.8203"/><polygon fill="#181818" points="599.1924,405.8203,603.1924,415.8203,607.1924,405.8203,603.1924,409.8203" style="stroke:#181818;stroke-width:1.0;"/><line style="stroke:#181818;stroke-width:1.0;" x1="430.1377" x2="430.1377" y1="591.1016" y2="609.1016"/><line style="stroke:#181818;stroke-width:1.0;" x1="430.1377" x2="504.665" y1="609.1016" y2="609.1016"/><polygon fill="#181818" points="494.665,605.1016,504.665,609.1016,494.665,613.1016,498.665,609.1016" style="stroke:#181818;stroke-width:1.0;"/><line style="stroke:#181818;stroke-width:1.0;" x1="603.1924" x2="603.1924" y1="450.9141" y2="609.1016"/><line style="stroke:#181818;stroke-width:1.0;" x1="603.1924" x2="528.665" y1="609.1016" y2="609.1016"/><polygon fill="#181818" points="538.665,605.1016,528.665,609.1016,538.665,613.1016,534.665,609.1016" style="stroke:#181818;stroke-width:1.0;"/><line style="stroke:#181818;stroke-width:1.0;" x1="516.665" x2="516.665" y1="347.9844" y2="381.8203"/><polygon fill="#181818" points="512.665,371.8203,516.665,381.8203,520.665,371.8203,516.665,375.8203" style="stroke:#181818;stroke-width:1.0;"/><line style="stroke:#181818;stroke-width:1.0;" x1="1037.0283" x2="1037.0283" y1="360.8086" y2="394.6445"/><polygon fill="#181818" points="1033.0283,384.6445,1037.0283,394.6445,1041.0283,384.6445,1037.0283,388.6445" style="stroke:#181818;stroke-width:1.0;"/><line style="stroke:#181818;stroke-width:1.0;" x1="1037.0283" x2="1037.0283" y1="429.7383" y2="464.7383"/><polygon fill="#181818" points="1033.0283,454.7383,1037.0283,464.7383,1041.0283,454.7383,1037.0283,458.7383" style="stroke:#181818;stroke-width:1.0;"/><line style="stroke:#181818;stroke-width:1.0;" x1="881.0754" x2="828.6094" y1="303.7148" y2="303.7148"/><line style="stroke:#181818;stroke-width:1.0;" x1="828.6094" x2="828.6094" y1="303.7148" y2="325.7148"/><polygon fill="#181818" points="824.6094,315.7148,828.6094,325.7148,832.6094,315.7148,828.6094,319.7148" style="stroke:#181818;stroke-width:1.0;"/><line style="stroke:#181818;stroke-width:1.0;" x1="984.5623" x2="1037.0283" y1="303.7148" y2="303.7148"/><line style="stroke:#181818;stroke-width:1.0;" x1="1037.0283" x2="1037.0283" y1="303.7148" y2="325.7148"/><polygon fill="#181818" points="1033.0283,315.7148,1037.0283,325.7148,1041.0283,315.7148,1037.0283,319.7148" style="stroke:#181818;stroke-width:1.0;"/><line style="stroke:#181818;stroke-width:1.0;" x1="828.6094" x2="828.6094" y1="360.8086" y2="517.832"/><line style="stroke:#181818;stroke-width:1.0;" x1="828.6094" x2="920.8188" y1="517.832" y2="517.832"/><polygon fill="#181818" points="910.8188,513.832,920.8188,517.832,910.8188,521.832,914.8188,517.832" style="stroke:#181818;stroke-width:1.0;"/><line style="stroke:#181818;stroke-width:1.0;" x1="1037.0283" x2="1037.0283" y1="499.832" y2="517.832"/><line style="stroke:#181818;stroke-width:1.0;" x1="1037.0283" x2="944.8188" y1="517.832" y2="517.832"/><polygon fill="#181818" points="954.8188,513.832,944.8188,517.832,954.8188,521.832,950.8188,517.832" style="stroke:#181818;stroke-width:1.0;"/><line style="stroke:#181818;stroke-width:1.0;" x1="932.8188" x2="932.8188" y1="266.7969" y2="291.7148"/><polygon fill="#181818" points="928.8188,281.7148,932.8188,291.7148,936.8188,281.7148,932.8188,285.7148" style="stroke:#181818;stroke-width:1.0;"/><line style="stroke:#181818;stroke-width:1.0;" x1="990.3711" x2="1134.0566" y1="254.7969" y2="254.7969"/><polygon fill="#181818" points="1130.0566,400.1914,1134.0566,410.1914,1138.0566,400.1914,1134.0566,404.1914" style="stroke:#181818;stroke-width:1.0;"/><line style="stroke:#181818;stroke-width:1.0;" x1="1134.0566" x2="1134.0566" y1="254.7969" y2="566.75"/><line style="stroke:#181818;stroke-width:1.0;" x1="1134.0566" x2="944.8188" y1="566.75" y2="566.75"/><polygon fill="#181818" points="954.8188,562.75,944.8188,566.75,954.8188,570.75,950.8188,566.75" style="stroke:#181818;stroke-width:1.0;"/><line style="stroke:#181818;stroke-width:1.0;" x1="932.8188" x2="932.8188" y1="529.832" y2="554.75"/><polygon fill="#181818" points="928.8188,544.75,932.8188,554.75,936.8188,544.75,932.8188,548.75" style="stroke:#181818;stroke-width:1.0;"/><line style="stroke:#181818;stroke-width:1.0;" x1="167.5537" x2="167.5537" y1="222.7969" y2="256.6328"/><polygon fill="#181818" points="163.5537,246.6328,167.5537,256.6328,171.5537,246.6328,167.5537,250.6328" style="stroke:#181818;stroke-width:1.0;"/><line style="stroke:#181818;stroke-width:1.0;" x1="516.665" x2="516.665" y1="222.7969" y2="242.7969"/><polygon fill="#181818" points="512.665,232.7969,516.665,242.7969,520.665,232.7969,516.665,236.7969" style="stroke:#181818;stroke-width:1.0;"/><line style="stroke:#181818;stroke-width:1.0;" x1="516.665" x2="516.665" y1="621.1016" y2="641.1016"/><polygon fill="#181818" points="512.665,631.1016,516.665,641.1016,520.665,631.1016,516.665,635.1016" style="stroke:#181818;stroke-width:1.0;"/><line style="stroke:#181818;stroke-width:1.0;" x1="932.8188" x2="932.8188" y1="222.7969" y2="242.7969"/><polygon fill="#181818" points="928.8188,232.7969,932.8188,242.7969,936.8188,232.7969,932.8188,236.7969" style="stroke:#181818;stroke-width:1.0;"/><line style="stroke:#181818;stroke-width:1.0;" x1="932.8188" x2="932.8188" y1="578.75" y2="641.1016"/><polygon fill="#181818" points="928.8188,631.1016,932.8188,641.1016,936.8188,631.1016,932.8188,635.1016" style="stroke:#181818;stroke-width:1.0;"/><line style="stroke:#181818;stroke-width:1.0;" x1="204.3145" x2="491.5166" y1="210.7969" y2="210.7969"/><polygon fill="#181818" points="481.5166,206.7969,491.5166,210.7969,481.5166,214.7969,485.5166,210.7969" style="stroke:#181818;stroke-width:1.0;"/><line style="stroke:#181818;stroke-width:1.0;" x1="541.8135" x2="904.9204" y1="210.7969" y2="210.7969"/><polygon fill="#181818" points="894.9204,206.7969,904.9204,210.7969,894.9204,214.7969,898.9204,210.7969" style="stroke:#181818;stroke-width:1.0;"/><line style="stroke:#181818;stroke-width:1.0;" x1="586.5283" x2="586.5283" y1="178.7969" y2="183.7969"/><line style="stroke:#181818;stroke-width:1.0;" x1="586.5283" x2="167.5537" y1="183.7969" y2="183.7969"/><line style="stroke:#181818;stroke-width:1.0;" x1="167.5537" x2="167.5537" y1="183.7969" y2="198.7969"/><polygon fill="#181818" points="163.5537,188.7969,167.5537,198.7969,171.5537,188.7969,167.5537,192.7969" style="stroke:#181818;stroke-width:1.0;"/><line style="stroke:#181818;stroke-width:1.0;" x1="960.7173" x2="1152.0566" y1="210.7969" y2="210.7969"/><line style="stroke:#181818;stroke-width:1.0;" x1="1152.0566" x2="1152.0566" y1="210.7969" y2="641.1016"/><polygon fill="#181818" points="1148.0566,631.1016,1152.0566,641.1016,1156.0566,631.1016,1152.0566,635.1016" style="stroke:#181818;stroke-width:1.0;"/><line style="stroke:#181818;stroke-width:1.0;" x1="167.5537" x2="1152.0566" y1="641.1016" y2="641.1016"/><line style="stroke:#181818;stroke-width:1.0;" x1="586.5283" x2="586.5283" y1="641.1016" y2="661.1016"/><polygon fill="#181818" points="582.5283,651.1016,586.5283,661.1016,590.5283,651.1016,586.5283,655.1016" style="stroke:#181818;stroke-width:1.0;"/><line style="stroke:#181818;stroke-width:1.0;" x1="586.5283" x2="586.5283" y1="696.1953" y2="716.1953"/><polygon fill="#181818" points="582.5283,706.1953,586.5283,716.1953,590.5283,706.1953,586.5283,710.1953" style="stroke:#181818;stroke-width:1.0;"/><!--SRC=[hLDDJyCm3BttL_YudRXt1pJWWBGBOXiIHu-uhTKahH8NYN-FaqxTLmKSwA5fxMS_lvT4M2p1-aFua-KBdXZhWAw43TdE8cnGgEu2Wq4FMvG1VL54mI15KRwGh-l18pZzm3PIX0OjEeMsnxgxc6jMYjvo5789YwvdsohAOAMjT15K15UmU67B3MWllb-2DEHXiKDtm6PPW3xbRggjkk10ScurvYx6uSZ7lYcNNwd_6resc793RxbDNpeEJcHFOrX6kYlAdgA-AOGkhAPybAxFFsGZmMBlkJqhthBhir11Q2cl1unqAYyVDIHWkrfLvqt0k9eZzvrmDKuSX-JrY29lk1erfW6IndsoA-kPzOmCovnZWvRzR9dc9gDoz5PeJo7rIJl-RmgphpkTeOLhrX_sPiQOP-o7UEPCYcqwNt5mYRH9wKdWEvvu4l2HMWXaRunO6pp6J_ZPsIGhE714C9ovJYwSQqI3LvtotECPCXXuvXJzxlFVlBuqxcogvPodi7XGIhiindXHlb8LA3PNzphVa6y0]--></g></svg>