<svg xmlns="http://www.w3.org/2000/svg" xmlns:xlink="http://www.w3.org/1999/xlink" contentStyleType="text/css" height="750px" preserveAspectRatio="none" style="width:1752px;height:750px;background:#FFFFFF;" version="1.1" viewBox="0 0 1752 750" width="1752px" zoomAndPan="magnify"><defs/><g><rect fill="none" height="22.6406" style="stroke:none;stroke-width:1.0;" width="1719.2231" x="15" y="12.4551"/><ellipse cx="468.6772" cy="50.0957" fill="#222222" rx="10" ry="10" style="stroke:#222222;stroke-width:1.0;"/><rect fill="#F1F1F1" height="35.0938" rx="12.5" ry="12.5" style="stroke:#181818;stroke-width:0.5;" width="163.4199" x="386.9673" y="80.0957"/><text fill="#000000" font-family="sans-serif" font-size="12" lengthAdjust="spacing" textLength="143.4199" x="396.9673" y="102.5527">Membuka halaman Satuan</text><polygon fill="#F1F1F1" points="91.2559,135.1895,118.1543,135.1895,130.1543,147.1895,118.1543,159.1895,91.2559,159.1895,79.2559,147.1895,91.2559,135.1895" style="stroke:#181818;stroke-width:0.5;"/><text fill="#000000" font-family="sans-serif" font-size="11" lengthAdjust="spacing" textLength="40.353" x="108.7051" y="170.6084">Tambah</text><text fill="#000000" font-family="sans-serif" font-size="11" lengthAdjust="spacing" textLength="26.8984" x="91.2559" y="151.6904">Aksi?</text><rect fill="#F1F1F1" height="35.0938" rx="12.5" ry="12.5" style="stroke:#181818;stroke-width:0.5;" width="167.4102" x="21" y="192.1084"/><text fill="#000000" font-family="sans-serif" font-size="12" lengthAdjust="spacing" textLength="147.4102" x="31" y="214.5654">Klik tombol Tambah Satuan</text><path d="M188.7285,247.2021 L188.7285,297.2568 L168.7285,301.2568 L188.7285,305.2568 L188.7285,355.3115 A0,0 0 0 0 188.7285,355.3115 L413.4629,355.3115 A0,0 0 0 0 413.4629,355.3115 L413.4629,257.2021 L403.4629,247.2021 L188.7285,247.2021 A0,0 0 0 0 188.7285,247.2021 " fill="#FEFFDD" style="stroke:#181818;stroke-width:0.5;"/><path d="M403.4629,247.2021 L403.4629,257.2021 L413.4629,257.2021 L403.4629,247.2021 " fill="#FEFFDD" style="stroke:#181818;stroke-width:0.5;"/><text fill="#000000" font-family="sans-serif" font-size="13" lengthAdjust="spacing" textLength="73.7153" x="194.7285" y="265.6973">Data satuan:</text><text fill="#000000" font-family="sans-serif" font-size="13" lengthAdjust="spacing" textLength="201.5698" x="194.7285" y="282.0488">- Nama satuan (Kilogram, Liter, dll)</text><text fill="#000000" font-family="sans-serif" font-size="13" lengthAdjust="spacing" textLength="104.0254" x="194.7285" y="298.4004">- Alias (kg, L, pcs)</text><text fill="#000000" font-family="sans-serif" font-size="13" lengthAdjust="spacing" textLength="203.7344" x="194.7285" y="314.752">- Grup konversi (Berat, Volume, dll)</text><text fill="#000000" font-family="sans-serif" font-size="13" lengthAdjust="spacing" textLength="145.9707" x="194.7285" y="331.1035">- Satuan dasar (opsional)</text><text fill="#000000" font-family="sans-serif" font-size="13" lengthAdjust="spacing" textLength="157.498" x="194.7285" y="347.4551">- Faktor konversi (opsional)</text><rect fill="#F1F1F1" height="35.0938" rx="12.5" ry="12.5" style="stroke:#181818;stroke-width:0.5;" width="128.0469" x="40.6816" y="283.71"/><text fill="#000000" font-family="sans-serif" font-size="12" lengthAdjust="spacing" textLength="108.0469" x="50.6816" y="306.167">Mengisi form satuan</text><rect fill="#F1F1F1" height="35.0938" rx="12.5" ry="12.5" style="stroke:#181818;stroke-width:0.5;" width="121.3906" x="44.0098" y="390.3115"/><text fill="#000000" font-family="sans-serif" font-size="12" lengthAdjust="spacing" textLength="101.3906" x="54.0098" y="412.7686">Menyimpan satuan</text><polygon fill="#F1F1F1" points="515.7305,135.1895,542.6289,135.1895,554.6289,147.1895,542.6289,159.1895,515.7305,159.1895,503.7305,147.1895,515.7305,135.1895" style="stroke:#181818;stroke-width:0.5;"/><text fill="#000000" font-family="sans-serif" font-size="11" lengthAdjust="spacing" textLength="18.9546" x="533.1797" y="170.6084">Edit</text><text fill="#000000" font-family="sans-serif" font-size="11" lengthAdjust="spacing" textLength="26.8984" x="515.7305" y="151.6904">Aksi?</text><text fill="#000000" font-family="sans-serif" font-size="11" lengthAdjust="spacing" textLength="31.7969" x="554.6289" y="144.7725">Hapus</text><rect fill="#F1F1F1" height="35.0938" rx="12.5" ry="12.5" style="stroke:#181818;stroke-width:0.5;" width="191.4336" x="433.4629" y="192.1084"/><text fill="#000000" font-family="sans-serif" font-size="12" lengthAdjust="spacing" textLength="171.4336" x="443.4629" y="214.5654">Memilih satuan yang akan diedit</text><rect fill="#F1F1F1" height="35.0938" rx="12.5" ry="12.5" style="stroke:#181818;stroke-width:0.5;" width="142.7656" x="457.7969" y="247.2021"/><text fill="#000000" font-family="sans-serif" font-size="12" lengthAdjust="spacing" textLength="122.7656" x="467.7969" y="269.6592">Mengubah data satuan</text><rect fill="#F1F1F1" height="35.0938" rx="12.5" ry="12.5" style="stroke:#181818;stroke-width:0.5;" width="142.748" x="457.8057" y="317.2959"/><text fill="#000000" font-family="sans-serif" font-size="12" lengthAdjust="spacing" textLength="122.748" x="467.8057" y="339.7529">Menyimpan perubahan</text><rect fill="#F1F1F1" height="35.0938" rx="12.5" ry="12.5" style="stroke:#181818;stroke-width:0.5;" width="204.7813" x="634.8965" y="279.792"/><text fill="#000000" font-family="sans-serif" font-size="12" lengthAdjust="spacing" textLength="184.7813" x="644.8965" y="302.249">Memilih satuan yang akan dihapus</text><rect fill="#F1F1F1" height="35.0938" rx="12.5" ry="12.5" style="stroke:#181818;stroke-width:0.5;" width="152.7559" x="660.9092" y="349.8857"/><text fill="#000000" font-family="sans-serif" font-size="12" lengthAdjust="spacing" textLength="132.7559" x="670.9092" y="372.3428">Konfirmasi penghapusan</text><line style="stroke:#000000;stroke-width:1.5;" x1="15" x2="15" y1="12.4551" y2="738.1123"/><rect fill="#F1F1F1" height="35.0938" rx="12.5" ry="12.5" style="stroke:#181818;stroke-width:0.5;" width="88.7129" x="974.3906" y="460.4053"/><text fill="#000000" font-family="sans-serif" font-size="12" lengthAdjust="spacing" textLength="68.7129" x="984.3906" y="482.8623">Validasi data</text><polygon fill="#F1F1F1" points="956.3779,521.9248,1081.1162,521.9248,1093.1162,533.9248,1081.1162,545.9248,956.3779,545.9248,944.3779,533.9248,956.3779,521.9248" style="stroke:#181818;stroke-width:0.5;"/><text fill="#000000" font-family="sans-serif" font-size="11" lengthAdjust="spacing" textLength="124.7383" x="956.3779" y="538.4258">Nama/simbol sudah ada?</text><text fill="#000000" font-family="sans-serif" font-size="11" lengthAdjust="spacing" textLength="13.4546" x="930.9233" y="531.5078">Ya</text><text fill="#000000" font-family="sans-serif" font-size="11" lengthAdjust="spacing" textLength="26.8984" x="1093.1162" y="531.5078">Tidak</text><rect fill="#F1F1F1" height="35.0938" rx="12.5" ry="12.5" style="stroke:#181818;stroke-width:0.5;" width="156.0664" x="849.6777" y="555.9248"/><text fill="#000000" font-family="sans-serif" font-size="12" lengthAdjust="spacing" textLength="136.0664" x="859.6777" y="578.3818">Menampilkan pesan error</text><rect fill="#F1F1F1" height="35.0938" rx="12.5" ry="12.5" style="stroke:#181818;stroke-width:0.5;" width="150.7461" x="1034.4102" y="555.9248"/><text fill="#000000" font-family="sans-serif" font-size="12" lengthAdjust="spacing" textLength="130.7461" x="1044.4102" y="578.3818">Menyimpan ke database</text><rect fill="#F1F1F1" height="35.0938" rx="12.5" ry="12.5" style="stroke:#181818;stroke-width:0.5;" width="168.0781" x="1025.7441" y="611.0186"/><text fill="#000000" font-family="sans-serif" font-size="12" lengthAdjust="spacing" textLength="148.0781" x="1035.7441" y="633.4756">Menampilkan pesan sukses</text><polygon fill="#F1F1F1" points="1018.7471,652.1123,1030.7471,664.1123,1018.7471,676.1123,1006.7471,664.1123,1018.7471,652.1123" style="stroke:#181818;stroke-width:0.5;"/><rect fill="#F1F1F1" height="35.0938" rx="12.5" ry="12.5" style="stroke:#181818;stroke-width:0.5;" width="88.7129" x="1243.5049" y="387.3896"/><text fill="#000000" font-family="sans-serif" font-size="12" lengthAdjust="spacing" textLength="68.7129" x="1253.5049" y="409.8467">Validasi data</text><rect fill="#F1F1F1" height="35.0938" rx="12.5" ry="12.5" style="stroke:#181818;stroke-width:0.5;" width="124.748" x="1225.4873" y="457.4834"/><text fill="#000000" font-family="sans-serif" font-size="12" lengthAdjust="spacing" textLength="104.748" x="1235.4873" y="479.9404">Update data satuan</text><rect fill="#F1F1F1" height="35.0938" rx="12.5" ry="12.5" style="stroke:#181818;stroke-width:0.5;" width="168.0781" x="1203.8223" y="519.0029"/><text fill="#000000" font-family="sans-serif" font-size="12" lengthAdjust="spacing" textLength="148.0781" x="1213.8223" y="541.46">Menampilkan pesan sukses</text><polygon fill="#F1F1F1" points="1482.6162,419.9795,1622.6836,419.9795,1634.6836,431.9795,1622.6836,443.9795,1482.6162,443.9795,1470.6162,431.9795,1482.6162,419.9795" style="stroke:#181818;stroke-width:0.5;"/><text fill="#000000" font-family="sans-serif" font-size="11" lengthAdjust="spacing" textLength="140.0674" x="1482.6162" y="436.4805">Satuan digunakan di bahan?</text><text fill="#000000" font-family="sans-serif" font-size="11" lengthAdjust="spacing" textLength="13.4546" x="1457.1616" y="429.5625">Ya</text><text fill="#000000" font-family="sans-serif" font-size="11" lengthAdjust="spacing" textLength="26.8984" x="1634.6836" y="429.5625">Tidak</text><rect fill="#F1F1F1" height="35.0938" rx="12.5" ry="12.5" style="stroke:#181818;stroke-width:0.5;" width="151.4141" x="1384.9092" y="453.9795"/><text fill="#000000" font-family="sans-serif" font-size="12" lengthAdjust="spacing" textLength="131.4141" x="1394.9092" y="476.4365">Menampilkan peringatan</text><rect fill="#F1F1F1" height="35.0938" rx="12.5" ry="12.5" style="stroke:#181818;stroke-width:0.5;" width="157.4316" x="1381.9004" y="515.499"/><text fill="#000000" font-family="sans-serif" font-size="12" lengthAdjust="spacing" textLength="137.4316" x="1391.9004" y="537.9561">Satuan tidak bisa dihapus</text><rect fill="#F1F1F1" height="35.0938" rx="12.5" ry="12.5" style="stroke:#181818;stroke-width:0.5;" width="94.0508" x="1597.6582" y="453.9795"/><text fill="#000000" font-family="sans-serif" font-size="12" lengthAdjust="spacing" textLength="74.0508" x="1607.6582" y="476.4365">Hapus satuan</text><rect fill="#F1F1F1" height="35.0938" rx="12.5" ry="12.5" style="stroke:#181818;stroke-width:0.5;" width="168.0781" x="1560.6445" y="515.499"/><text fill="#000000" font-family="sans-serif" font-size="12" lengthAdjust="spacing" textLength="148.0781" x="1570.6445" y="537.9561">Menampilkan pesan sukses</text><polygon fill="#F1F1F1" points="1552.6499,556.5928,1564.6499,568.5928,1552.6499,580.5928,1540.6499,568.5928,1552.6499,556.5928" style="stroke:#181818;stroke-width:0.5;"/><ellipse cx="1227.3589" cy="727.1123" fill="none" rx="11" ry="11" style="stroke:#222222;stroke-width:1.0;"/><ellipse cx="1227.3589" cy="727.1123" fill="#222222" rx="6" ry="6" style="stroke:#222222;stroke-width:1.0;"/><line style="stroke:#000000;stroke-width:1.5;" x1="843.6777" x2="843.6777" y1="12.4551" y2="738.1123"/><line style="stroke:#000000;stroke-width:1.5;" x1="1732.7227" x2="1732.7227" y1="12.4551" y2="738.1123"/><line style="stroke:#181818;stroke-width:1.0;" x1="468.6772" x2="468.6772" y1="60.0957" y2="80.0957"/><polygon fill="#181818" points="464.6772,70.0957,468.6772,80.0957,472.6772,70.0957,468.6772,74.0957" style="stroke:#181818;stroke-width:1.0;"/><line style="stroke:#181818;stroke-width:1.0;" x1="104.7051" x2="104.7051" y1="227.2021" y2="283.71"/><polygon fill="#181818" points="100.7051,273.71,104.7051,283.71,108.7051,273.71,104.7051,277.71" style="stroke:#181818;stroke-width:1.0;"/><line style="stroke:#181818;stroke-width:1.0;" x1="104.7051" x2="104.7051" y1="318.8037" y2="390.3115"/><polygon fill="#181818" points="100.7051,380.3115,104.7051,390.3115,108.7051,380.3115,104.7051,384.3115" style="stroke:#181818;stroke-width:1.0;"/><line style="stroke:#181818;stroke-width:1.0;" x1="529.1797" x2="529.1797" y1="227.2021" y2="247.2021"/><polygon fill="#181818" points="525.1797,237.2021,529.1797,247.2021,533.1797,237.2021,529.1797,241.2021" style="stroke:#181818;stroke-width:1.0;"/><line style="stroke:#181818;stroke-width:1.0;" x1="529.1797" x2="529.1797" y1="282.2959" y2="317.2959"/><polygon fill="#181818" points="525.1797,307.2959,529.1797,317.2959,533.1797,307.2959,529.1797,311.2959" style="stroke:#181818;stroke-width:1.0;"/><line style="stroke:#181818;stroke-width:1.0;" x1="737.2871" x2="737.2871" y1="314.8857" y2="349.8857"/><polygon fill="#181818" points="733.2871,339.8857,737.2871,349.8857,741.2871,339.8857,737.2871,343.8857" style="stroke:#181818;stroke-width:1.0;"/><line style="stroke:#181818;stroke-width:1.0;" x1="104.7051" x2="104.7051" y1="159.1895" y2="192.1084"/><polygon fill="#181818" points="100.7051,182.1084,104.7051,192.1084,108.7051,182.1084,104.7051,186.1084" style="stroke:#181818;stroke-width:1.0;"/><line style="stroke:#181818;stroke-width:1.0;" x1="529.1797" x2="529.1797" y1="159.1895" y2="192.1084"/><polygon fill="#181818" points="525.1797,182.1084,529.1797,192.1084,533.1797,182.1084,529.1797,186.1084" style="stroke:#181818;stroke-width:1.0;"/><line style="stroke:#181818;stroke-width:1.0;" x1="130.1543" x2="503.7305" y1="147.1895" y2="147.1895"/><polygon fill="#181818" points="493.7305,143.1895,503.7305,147.1895,493.7305,151.1895,497.7305,147.1895" style="stroke:#181818;stroke-width:1.0;"/><line style="stroke:#181818;stroke-width:1.0;" x1="468.6772" x2="468.6772" y1="115.1895" y2="120.1895"/><line style="stroke:#181818;stroke-width:1.0;" x1="468.6772" x2="104.7051" y1="120.1895" y2="120.1895"/><line style="stroke:#181818;stroke-width:1.0;" x1="104.7051" x2="104.7051" y1="120.1895" y2="135.1895"/><polygon fill="#181818" points="100.7051,125.1895,104.7051,135.1895,108.7051,125.1895,104.7051,129.1895" style="stroke:#181818;stroke-width:1.0;"/><line style="stroke:#181818;stroke-width:1.0;" x1="554.6289" x2="737.2871" y1="147.1895" y2="147.1895"/><line style="stroke:#181818;stroke-width:1.0;" x1="737.2871" x2="737.2871" y1="147.1895" y2="279.792"/><polygon fill="#181818" points="733.2871,269.792,737.2871,279.792,741.2871,269.792,737.2871,273.792" style="stroke:#181818;stroke-width:1.0;"/><line style="stroke:#181818;stroke-width:1.0;" x1="1109.7832" x2="1109.7832" y1="591.0186" y2="611.0186"/><polygon fill="#181818" points="1105.7832,601.0186,1109.7832,611.0186,1113.7832,601.0186,1109.7832,605.0186" style="stroke:#181818;stroke-width:1.0;"/><line style="stroke:#181818;stroke-width:1.0;" x1="944.3779" x2="927.7109" y1="533.9248" y2="533.9248"/><line style="stroke:#181818;stroke-width:1.0;" x1="927.7109" x2="927.7109" y1="533.9248" y2="555.9248"/><polygon fill="#181818" points="923.7109,545.9248,927.7109,555.9248,931.7109,545.9248,927.7109,549.9248" style="stroke:#181818;stroke-width:1.0;"/><line style="stroke:#181818;stroke-width:1.0;" x1="1093.1162" x2="1109.7832" y1="533.9248" y2="533.9248"/><line style="stroke:#181818;stroke-width:1.0;" x1="1109.7832" x2="1109.7832" y1="533.9248" y2="555.9248"/><polygon fill="#181818" points="1105.7832,545.9248,1109.7832,555.9248,1113.7832,545.9248,1109.7832,549.9248" style="stroke:#181818;stroke-width:1.0;"/><line style="stroke:#181818;stroke-width:1.0;" x1="927.7109" x2="927.7109" y1="591.0186" y2="664.1123"/><line style="stroke:#181818;stroke-width:1.0;" x1="927.7109" x2="1006.7471" y1="664.1123" y2="664.1123"/><polygon fill="#181818" points="996.7471,660.1123,1006.7471,664.1123,996.7471,668.1123,1000.7471,664.1123" style="stroke:#181818;stroke-width:1.0;"/><line style="stroke:#181818;stroke-width:1.0;" x1="1109.7832" x2="1109.7832" y1="646.1123" y2="664.1123"/><line style="stroke:#181818;stroke-width:1.0;" x1="1109.7832" x2="1030.7471" y1="664.1123" y2="664.1123"/><polygon fill="#181818" points="1040.7471,660.1123,1030.7471,664.1123,1040.7471,668.1123,1036.7471,664.1123" style="stroke:#181818;stroke-width:1.0;"/><line style="stroke:#181818;stroke-width:1.0;" x1="1018.7471" x2="1018.7471" y1="495.499" y2="521.9248"/><polygon fill="#181818" points="1014.7471,511.9248,1018.7471,521.9248,1022.7471,511.9248,1018.7471,515.9248" style="stroke:#181818;stroke-width:1.0;"/><line style="stroke:#181818;stroke-width:1.0;" x1="1287.8613" x2="1287.8613" y1="422.4834" y2="457.4834"/><polygon fill="#181818" points="1283.8613,447.4834,1287.8613,457.4834,1291.8613,447.4834,1287.8613,451.4834" style="stroke:#181818;stroke-width:1.0;"/><line style="stroke:#181818;stroke-width:1.0;" x1="1287.8613" x2="1287.8613" y1="492.5771" y2="519.0029"/><polygon fill="#181818" points="1283.8613,509.0029,1287.8613,519.0029,1291.8613,509.0029,1287.8613,513.0029" style="stroke:#181818;stroke-width:1.0;"/><line style="stroke:#181818;stroke-width:1.0;" x1="1460.6162" x2="1460.6162" y1="489.0732" y2="515.499"/><polygon fill="#181818" points="1456.6162,505.499,1460.6162,515.499,1464.6162,505.499,1460.6162,509.499" style="stroke:#181818;stroke-width:1.0;"/><line style="stroke:#181818;stroke-width:1.0;" x1="1644.6836" x2="1644.6836" y1="489.0732" y2="515.499"/><polygon fill="#181818" points="1640.6836,505.499,1644.6836,515.499,1648.6836,505.499,1644.6836,509.499" style="stroke:#181818;stroke-width:1.0;"/><line style="stroke:#181818;stroke-width:1.0;" x1="1470.6162" x2="1460.6162" y1="431.9795" y2="431.9795"/><line style="stroke:#181818;stroke-width:1.0;" x1="1460.6162" x2="1460.6162" y1="431.9795" y2="453.9795"/><polygon fill="#181818" points="1456.6162,443.9795,1460.6162,453.9795,1464.6162,443.9795,1460.6162,447.9795" style="stroke:#181818;stroke-width:1.0;"/><line style="stroke:#181818;stroke-width:1.0;" x1="1634.6836" x2="1644.6836" y1="431.9795" y2="431.9795"/><line style="stroke:#181818;stroke-width:1.0;" x1="1644.6836" x2="1644.6836" y1="431.9795" y2="453.9795"/><polygon fill="#181818" points="1640.6836,443.9795,1644.6836,453.9795,1648.6836,443.9795,1644.6836,447.9795" style="stroke:#181818;stroke-width:1.0;"/><line style="stroke:#181818;stroke-width:1.0;" x1="1460.6162" x2="1460.6162" y1="550.5928" y2="568.5928"/><line style="stroke:#181818;stroke-width:1.0;" x1="1460.6162" x2="1540.6499" y1="568.5928" y2="568.5928"/><polygon fill="#181818" points="1530.6499,564.5928,1540.6499,568.5928,1530.6499,572.5928,1534.6499,568.5928" style="stroke:#181818;stroke-width:1.0;"/><line style="stroke:#181818;stroke-width:1.0;" x1="1644.6836" x2="1644.6836" y1="550.5928" y2="568.5928"/><line style="stroke:#181818;stroke-width:1.0;" x1="1644.6836" x2="1564.6499" y1="568.5928" y2="568.5928"/><polygon fill="#181818" points="1574.6499,564.5928,1564.6499,568.5928,1574.6499,572.5928,1570.6499,568.5928" style="stroke:#181818;stroke-width:1.0;"/><line style="stroke:#181818;stroke-width:1.0;" x1="1018.7471" x2="1018.7471" y1="676.1123" y2="696.1123"/><polygon fill="#181818" points="1014.7471,686.1123,1018.7471,696.1123,1022.7471,686.1123,1018.7471,690.1123" style="stroke:#181818;stroke-width:1.0;"/><line style="stroke:#181818;stroke-width:1.0;" x1="1287.8613" x2="1287.8613" y1="554.0967" y2="696.1123"/><polygon fill="#181818" points="1283.8613,686.1123,1287.8613,696.1123,1291.8613,686.1123,1287.8613,690.1123" style="stroke:#181818;stroke-width:1.0;"/><line style="stroke:#181818;stroke-width:1.0;" x1="1552.6499" x2="1552.6499" y1="580.5928" y2="696.1123"/><polygon fill="#181818" points="1548.6499,686.1123,1552.6499,696.1123,1556.6499,686.1123,1552.6499,690.1123" style="stroke:#181818;stroke-width:1.0;"/><line style="stroke:#181818;stroke-width:1.0;" x1="1018.7471" x2="1552.6499" y1="696.1123" y2="696.1123"/><line style="stroke:#181818;stroke-width:1.0;" x1="104.7051" x2="104.7051" y1="425.4053" y2="442.9053"/><line style="stroke:#181818;stroke-width:1.0;" x1="104.7051" x2="1018.7471" y1="442.9053" y2="442.9053"/><line style="stroke:#181818;stroke-width:1.0;" x1="1018.7471" x2="1018.7471" y1="442.9053" y2="460.4053"/><polygon fill="#181818" points="1014.7471,450.4053,1018.7471,460.4053,1022.7471,450.4053,1018.7471,454.4053" style="stroke:#181818;stroke-width:1.0;"/><line style="stroke:#181818;stroke-width:1.0;" x1="529.1797" x2="529.1797" y1="352.3896" y2="369.8896"/><line style="stroke:#181818;stroke-width:1.0;" x1="529.1797" x2="1287.8613" y1="369.8896" y2="369.8896"/><line style="stroke:#181818;stroke-width:1.0;" x1="1287.8613" x2="1287.8613" y1="369.8896" y2="387.3896"/><polygon fill="#181818" points="1283.8613,377.3896,1287.8613,387.3896,1291.8613,377.3896,1287.8613,381.3896" style="stroke:#181818;stroke-width:1.0;"/><line style="stroke:#181818;stroke-width:1.0;" x1="737.2871" x2="737.2871" y1="384.9795" y2="402.4795"/><line style="stroke:#181818;stroke-width:1.0;" x1="737.2871" x2="1552.6499" y1="402.4795" y2="402.4795"/><line style="stroke:#181818;stroke-width:1.0;" x1="1552.6499" x2="1552.6499" y1="402.4795" y2="419.9795"/><polygon fill="#181818" points="1548.6499,409.9795,1552.6499,419.9795,1556.6499,409.9795,1552.6499,413.9795" style="stroke:#181818;stroke-width:1.0;"/><line style="stroke:#181818;stroke-width:1.0;" x1="468.6772" x2="468.6772" y1="696.1123" y2="701.1123"/><line style="stroke:#181818;stroke-width:1.0;" x1="468.6772" x2="1227.3589" y1="701.1123" y2="701.1123"/><line style="stroke:#181818;stroke-width:1.0;" x1="1227.3589" x2="1227.3589" y1="701.1123" y2="716.1123"/><polygon fill="#181818" points="1223.3589,706.1123,1227.3589,716.1123,1231.3589,706.1123,1227.3589,710.1123" style="stroke:#181818;stroke-width:1.0;"/><text fill="#000000" font-family="sans-serif" font-size="18" lengthAdjust="spacing" textLength="69.0381" x="394.8198" y="31.1406">Inventori</text><text fill="#000000" font-family="sans-serif" font-size="18" lengthAdjust="spacing" textLength="55.0107" x="1260.6948" y="31.1406">Sistem</text><!--SRC=[bLJBRjj03BphAtYK0HUzsuSWHPzmqalQ03rI5IqH-yHoLI20FhxKIdRaD0qI7nPOaJl36GuyVlD_oEUGUAmaOyhLxfPSCnY47Yqwz727UK2_hoe-GdrjXAysa7loKFz0rs2_gK1_kuDb0pcu9bYO2-UNfNvBlcDXE8RaG5OL7p91ugxFvGhm4JCk7RlbqpluhhCi7w4-i0rTGhU56ywKjj1QkpctNbj6WTfqMjv2_2sFfIzfY622QauwIls14kOjt0SxE7g2CWyFBGecg4CK3XvNzSzerBOLs6KB-ROeAvUp0m_ieeAkvPTZl6F9vCQvyHujAoyhUSPLrxI0oOVtmiLc6Lfr6LiyR-GNdWQS-T15jaOP8ucUb598Co1P8TsWyfZB9yk8XWfxWqBxbo1bC4AoFsdcupnkWVydC9zQpZFRkChTWkpOSdzQyGFw3d2YQPdqrIf4mnIjzZ4Z-wVkHafJpziCtlsCUg7dWL_GF2kjls8SvEtI-kdPmdC8_iZ9JMD5bLbA_zSmUNkAA7U3Nm2X27zD7XBxJhNwrNONl3o50XeMl9pm-SWKvHUElJefywd_Eo5MVm40]--></g></svg>