<svg xmlns="http://www.w3.org/2000/svg" xmlns:xlink="http://www.w3.org/1999/xlink" contentStyleType="text/css" height="1952px" preserveAspectRatio="none" style="width:765px;height:1952px;background:#FFFFFF;" version="1.1" viewBox="0 0 765 1952" width="765px" zoomAndPan="magnify"><title>Activity Diagram: Proses Belanja Bahan Baku</title><defs/><g><text fill="#000000" font-family="sans-serif" font-size="14" font-weight="bold" lengthAdjust="spacing" textLength="304.2197" x="229.2183" y="34.5332">Activity Diagram: Proses Belanja Bahan Baku</text><ellipse cx="486.041" cy="58.6094" fill="#222222" rx="10" ry="10" style="stroke:#222222;stroke-width:1.0;"/><rect fill="#F1F1F1" height="35.0938" rx="12.5" ry="12.5" style="stroke:#181818;stroke-width:0.5;" width="230.8203" x="370.6309" y="88.6094"/><text fill="#000000" font-family="sans-serif" font-size="12" lengthAdjust="spacing" textLength="210.8203" x="380.6309" y="111.0664">Pengguna mengakses halaman belanja</text><rect fill="none" height="580.6123" style="stroke:#000000;stroke-width:1.5;" width="290.0898" x="340.9961" y="133.7031"/><path d="M484.8779,133.7031 L484.8779,144.3125 L474.8779,154.3125 L340.9961,154.3125 " fill="none" style="stroke:#000000;stroke-width:1.5;"/><text fill="#000000" font-family="sans-serif" font-size="14" lengthAdjust="spacing" textLength="133.8818" x="343.9961" y="149.2363">Perencanaan Belanja</text><rect fill="#F1F1F1" height="35.0938" rx="12.5" ry="12.5" style="stroke:#181818;stroke-width:0.5;" width="160.7715" x="405.6553" y="171.3125"/><text fill="#000000" font-family="sans-serif" font-size="12" lengthAdjust="spacing" textLength="140.7715" x="415.6553" y="193.7695">Buat rencana belanja baru</text><rect fill="#F1F1F1" height="35.0938" rx="12.5" ry="12.5" style="stroke:#181818;stroke-width:0.5;" width="88.0332" x="442.0244" y="226.4063"/><text fill="#000000" font-family="sans-serif" font-size="12" lengthAdjust="spacing" textLength="68.0332" x="452.0244" y="248.8633">Pilih supplier</text><rect fill="#F1F1F1" height="35.0938" rx="12.5" ry="12.5" style="stroke:#181818;stroke-width:0.5;" width="270.0898" x="350.9961" y="281.5"/><text fill="#000000" font-family="sans-serif" font-size="12" lengthAdjust="spacing" textLength="250.0898" x="360.9961" y="303.957">Generate nomor belanja (BP-YYMMDD-XXXX)</text><rect fill="#F1F1F1" height="35.0938" rx="12.5" ry="12.5" style="stroke:#181818;stroke-width:0.5;" width="108.7344" x="431.6738" y="380.5938"/><text fill="#000000" font-family="sans-serif" font-size="12" lengthAdjust="spacing" textLength="88.7344" x="441.6738" y="403.0508">Pilih bahan baku</text><rect fill="#F1F1F1" height="35.0938" rx="12.5" ry="12.5" style="stroke:#181818;stroke-width:0.5;" width="172.7539" x="399.6641" y="435.6875"/><text fill="#000000" font-family="sans-serif" font-size="12" lengthAdjust="spacing" textLength="152.7539" x="409.6641" y="458.1445">Masukkan kuantitas rencana</text><rect fill="#F1F1F1" height="35.0938" rx="12.5" ry="12.5" style="stroke:#181818;stroke-width:0.5;" width="82.0391" x="445.0215" y="490.7813"/><text fill="#000000" font-family="sans-serif" font-size="12" lengthAdjust="spacing" textLength="62.0391" x="455.0215" y="513.2383">Pilih satuan</text><polygon fill="#F1F1F1" points="486.041,336.5938,498.041,348.5938,486.041,360.5938,474.041,348.5938,486.041,336.5938" style="stroke:#181818;stroke-width:0.5;"/><polygon fill="#F1F1F1" points="440.7976,545.875,531.2844,545.875,543.2844,557.875,531.2844,569.875,440.7976,569.875,428.7976,557.875,440.7976,545.875" style="stroke:#181818;stroke-width:0.5;"/><text fill="#000000" font-family="sans-serif" font-size="11" lengthAdjust="spacing" textLength="90.4868" x="440.7976" y="562.376">Tambah item lagi?</text><text fill="#000000" font-family="sans-serif" font-size="11" lengthAdjust="spacing" textLength="13.4546" x="543.2844" y="555.458">Ya</text><rect fill="#F1F1F1" height="35.0938" rx="12.5" ry="12.5" style="stroke:#181818;stroke-width:0.5;" width="149.4219" x="411.3301" y="612.1279"/><text fill="#000000" font-family="sans-serif" font-size="12" lengthAdjust="spacing" textLength="129.4219" x="421.3301" y="634.585">Simpan rencana belanja</text><rect fill="#F1F1F1" height="35.0938" rx="12.5" ry="12.5" style="stroke:#181818;stroke-width:0.5;" width="115.7305" x="428.1758" y="667.2217"/><text fill="#000000" font-family="sans-serif" font-size="12" lengthAdjust="spacing" textLength="95.7305" x="438.1758" y="689.6787">Status = Rencana</text><rect fill="none" height="916.9873" style="stroke:#000000;stroke-width:1.5;" width="743.6563" x="11" y="724.3154"/><path d="M152.5439,724.3154 L152.5439,734.9248 L142.5439,744.9248 L11,744.9248 " fill="none" style="stroke:#000000;stroke-width:1.5;"/><text fill="#000000" font-family="sans-serif" font-size="14" lengthAdjust="spacing" textLength="131.5439" x="14" y="739.8486">Pelaksanaan Belanja</text><rect fill="#F1F1F1" height="35.0938" rx="12.5" ry="12.5" style="stroke:#181818;stroke-width:0.5;" width="131.4102" x="420.3359" y="761.9248"/><text fill="#000000" font-family="sans-serif" font-size="12" lengthAdjust="spacing" textLength="111.4102" x="430.3359" y="784.3818">Pilih rencana belanja</text><rect fill="#F1F1F1" height="35.0938" rx="12.5" ry="12.5" style="stroke:#181818;stroke-width:0.5;" width="130.0625" x="421.0098" y="817.0186"/><text fill="#000000" font-family="sans-serif" font-size="12" lengthAdjust="spacing" textLength="110.0625" x="431.0098" y="839.4756">Mulai proses belanja</text><rect fill="#F1F1F1" height="35.0938" rx="12.5" ry="12.5" style="stroke:#181818;stroke-width:0.5;" width="105.3828" x="433.3496" y="916.1123"/><text fill="#000000" font-family="sans-serif" font-size="12" lengthAdjust="spacing" textLength="85.3828" x="443.3496" y="938.5693">Pilih item bahan</text><rect fill="#F1F1F1" height="35.0938" rx="12.5" ry="12.5" style="stroke:#181818;stroke-width:0.5;" width="161.4102" x="405.3359" y="971.2061"/><text fill="#000000" font-family="sans-serif" font-size="12" lengthAdjust="spacing" textLength="141.4102" x="415.3359" y="993.6631">Masukkan kuantitas aktual</text><rect fill="#F1F1F1" height="35.0938" rx="12.5" ry="12.5" style="stroke:#181818;stroke-width:0.5;" width="148.0801" x="412.001" y="1026.2998"/><text fill="#000000" font-family="sans-serif" font-size="12" lengthAdjust="spacing" textLength="128.0801" x="422.001" y="1048.7568">Masukkan harga satuan</text><rect fill="#F1F1F1" height="35.0938" rx="12.5" ry="12.5" style="stroke:#181818;stroke-width:0.5;" width="188.0996" x="391.9912" y="1081.3936"/><text fill="#000000" font-family="sans-serif" font-size="12" lengthAdjust="spacing" textLength="168.0996" x="401.9912" y="1103.8506">Masukkan tanggal kedaluwarsa</text><rect fill="#F1F1F1" height="35.0938" rx="12.5" ry="12.5" style="stroke:#181818;stroke-width:0.5;" width="148.7363" x="411.6729" y="1136.4873"/><text fill="#000000" font-family="sans-serif" font-size="12" lengthAdjust="spacing" textLength="128.7363" x="421.6729" y="1158.9443">Hitung subtotal otomatis</text><polygon fill="#F1F1F1" points="486.041,872.1123,498.041,884.1123,486.041,896.1123,474.041,884.1123,486.041,872.1123" style="stroke:#181818;stroke-width:0.5;"/><polygon fill="#F1F1F1" points="445.3818,1191.5811,526.7002,1191.5811,538.7002,1203.5811,526.7002,1215.5811,445.3818,1215.5811,433.3818,1203.5811,445.3818,1191.5811" style="stroke:#181818;stroke-width:0.5;"/><text fill="#000000" font-family="sans-serif" font-size="11" lengthAdjust="spacing" textLength="81.3184" x="445.3818" y="1208.082">Item berikutnya?</text><text fill="#000000" font-family="sans-serif" font-size="11" lengthAdjust="spacing" textLength="13.4546" x="538.7002" y="1201.1641">Ya</text><rect fill="#F1F1F1" height="35.0938" rx="12.5" ry="12.5" style="stroke:#181818;stroke-width:0.5;" width="122.7383" x="424.6719" y="1257.834"/><text fill="#000000" font-family="sans-serif" font-size="12" lengthAdjust="spacing" textLength="102.7383" x="434.6719" y="1280.291">Hitung total belanja</text><polygon fill="#F1F1F1" points="438.3538,1312.9277,533.7283,1312.9277,545.7283,1324.9277,533.7283,1336.9277,438.3538,1336.9277,426.3538,1324.9277,438.3538,1312.9277" style="stroke:#181818;stroke-width:0.5;"/><text fill="#000000" font-family="sans-serif" font-size="11" lengthAdjust="spacing" textLength="95.3745" x="438.3538" y="1329.4287">Konfirmasi selesai?</text><text fill="#000000" font-family="sans-serif" font-size="11" lengthAdjust="spacing" textLength="13.4546" x="412.8992" y="1322.5107">Ya</text><text fill="#000000" font-family="sans-serif" font-size="11" lengthAdjust="spacing" textLength="26.8984" x="545.7283" y="1322.5107">Tidak</text><rect fill="#F1F1F1" height="35.0938" rx="12.5" ry="12.5" style="stroke:#181818;stroke-width:0.5;" width="134.7441" x="228.7549" y="1346.9277"/><text fill="#000000" font-family="sans-serif" font-size="12" lengthAdjust="spacing" textLength="114.7441" x="238.7549" y="1369.3848">Simpan detail belanja</text><rect fill="#555555" height="6" rx="2.5" ry="2.5" style="stroke:#555555;stroke-width:1.0;" width="566.2539" x="23" y="1402.0215"/><rect fill="#F1F1F1" height="35.0938" rx="12.5" ry="12.5" style="stroke:#181818;stroke-width:0.5;" width="151.4082" x="35" y="1428.0215"/><text fill="#000000" font-family="sans-serif" font-size="12" lengthAdjust="spacing" textLength="131.4082" x="45" y="1450.4785">Buat batch baru per item</text><rect fill="#F1F1F1" height="35.0938" rx="12.5" ry="12.5" style="stroke:#181818;stroke-width:0.5;" width="234.125" x="196.4082" y="1428.0215"/><text fill="#000000" font-family="sans-serif" font-size="12" lengthAdjust="spacing" textLength="214.125" x="206.4082" y="1450.4785">Update status bahan (recalculateStatus)</text><rect fill="#F1F1F1" height="35.0938" rx="12.5" ry="12.5" style="stroke:#181818;stroke-width:0.5;" width="116.7207" x="458.5332" y="1428.0215"/><text fill="#000000" font-family="sans-serif" font-size="12" lengthAdjust="spacing" textLength="96.7207" x="468.5332" y="1450.4785">Catat log inventori</text><rect fill="#555555" height="6" rx="2.5" ry="2.5" style="stroke:#555555;stroke-width:1.0;" width="566.2539" x="23" y="1483.1152"/><rect fill="#F1F1F1" height="35.0938" rx="12.5" ry="12.5" style="stroke:#181818;stroke-width:0.5;" width="107.0527" x="242.6006" y="1509.1152"/><text fill="#000000" font-family="sans-serif" font-size="12" lengthAdjust="spacing" textLength="87.0527" x="252.6006" y="1531.5723">Status = Selesai</text><rect fill="#F1F1F1" height="35.0938" rx="12.5" ry="12.5" style="stroke:#181818;stroke-width:0.5;" width="166.0566" x="213.0986" y="1564.209"/><text fill="#000000" font-family="sans-serif" font-size="12" lengthAdjust="spacing" textLength="146.0566" x="223.0986" y="1586.666">Tampilkan notifikasi sukses</text><rect fill="#F1F1F1" height="35.0938" rx="12.5" ry="12.5" style="stroke:#181818;stroke-width:0.5;" width="133.4023" x="609.2539" y="1346.9277"/><text fill="#000000" font-family="sans-serif" font-size="12" lengthAdjust="spacing" textLength="113.4023" x="619.2539" y="1369.3848">Simpan sebagai draft</text><polygon fill="#F1F1F1" points="486.041,1605.3027,498.041,1617.3027,486.041,1629.3027,474.041,1617.3027,486.041,1605.3027" style="stroke:#181818;stroke-width:0.5;"/><rect fill="none" height="247.7148" style="stroke:#000000;stroke-width:1.5;" width="223.4238" x="380.3291" y="1651.3027"/><path d="M532.7422,1651.3027 L532.7422,1661.9121 L522.7422,1671.9121 L380.3291,1671.9121 " fill="none" style="stroke:#000000;stroke-width:1.5;"/><text fill="#000000" font-family="sans-serif" font-size="14" lengthAdjust="spacing" textLength="142.4131" x="383.3291" y="1666.8359">Pencetakan (Opsional)</text><rect fill="#F1F1F1" height="35.0938" rx="12.5" ry="12.5" style="stroke:#181818;stroke-width:0.5;" width="171.4238" x="400.3291" y="1737.8301"/><text fill="#000000" font-family="sans-serif" font-size="12" lengthAdjust="spacing" textLength="151.4238" x="410.3291" y="1760.2871">Generate PDF detail belanja</text><rect fill="#F1F1F1" height="35.0938" rx="12.5" ry="12.5" style="stroke:#181818;stroke-width:0.5;" width="119.375" x="426.3535" y="1807.9238"/><text fill="#000000" font-family="sans-serif" font-size="12" lengthAdjust="spacing" textLength="99.375" x="436.3535" y="1830.3809">Download file PDF</text><polygon fill="#F1F1F1" points="434.6719,1688.9121,537.4102,1688.9121,549.4102,1700.9121,537.4102,1712.9121,434.6719,1712.9121,422.6719,1700.9121,434.6719,1688.9121" style="stroke:#181818;stroke-width:0.5;"/><text fill="#000000" font-family="sans-serif" font-size="11" lengthAdjust="spacing" textLength="13.4546" x="490.041" y="1724.3311">Ya</text><text fill="#000000" font-family="sans-serif" font-size="11" lengthAdjust="spacing" textLength="102.7383" x="434.6719" y="1705.4131">Cetak detail belanja?</text><text fill="#000000" font-family="sans-serif" font-size="11" lengthAdjust="spacing" textLength="26.8984" x="549.4102" y="1698.4951">Tidak</text><polygon fill="#F1F1F1" points="486.041,1863.0176,498.041,1875.0176,486.041,1887.0176,474.041,1875.0176,486.041,1863.0176" style="stroke:#181818;stroke-width:0.5;"/><ellipse cx="486.041" cy="1930.0176" fill="none" rx="11" ry="11" style="stroke:#222222;stroke-width:1.0;"/><ellipse cx="486.041" cy="1930.0176" fill="#222222" rx="6" ry="6" style="stroke:#222222;stroke-width:1.0;"/><line style="stroke:#181818;stroke-width:1.0;" x1="486.041" x2="486.041" y1="68.6094" y2="88.6094"/><polygon fill="#181818" points="482.041,78.6094,486.041,88.6094,490.041,78.6094,486.041,82.6094" style="stroke:#181818;stroke-width:1.0;"/><line style="stroke:#181818;stroke-width:1.0;" x1="486.041" x2="486.041" y1="206.4063" y2="226.4063"/><polygon fill="#181818" points="482.041,216.4063,486.041,226.4063,490.041,216.4063,486.041,220.4063" style="stroke:#181818;stroke-width:1.0;"/><line style="stroke:#181818;stroke-width:1.0;" x1="486.041" x2="486.041" y1="261.5" y2="281.5"/><polygon fill="#181818" points="482.041,271.5,486.041,281.5,490.041,271.5,486.041,275.5" style="stroke:#181818;stroke-width:1.0;"/><line style="stroke:#181818;stroke-width:1.0;" x1="486.041" x2="486.041" y1="415.6875" y2="435.6875"/><polygon fill="#181818" points="482.041,425.6875,486.041,435.6875,490.041,425.6875,486.041,429.6875" style="stroke:#181818;stroke-width:1.0;"/><line style="stroke:#181818;stroke-width:1.0;" x1="486.041" x2="486.041" y1="470.7813" y2="490.7813"/><polygon fill="#181818" points="482.041,480.7813,486.041,490.7813,490.041,480.7813,486.041,484.7813" style="stroke:#181818;stroke-width:1.0;"/><line style="stroke:#181818;stroke-width:1.0;" x1="486.041" x2="486.041" y1="360.5938" y2="380.5938"/><polygon fill="#181818" points="482.041,370.5938,486.041,380.5938,490.041,370.5938,486.041,374.5938" style="stroke:#181818;stroke-width:1.0;"/><line style="stroke:#181818;stroke-width:1.0;" x1="543.2844" x2="584.418" y1="557.875" y2="557.875"/><polygon fill="#181818" points="580.418,463.2344,584.418,453.2344,588.418,463.2344,584.418,459.2344" style="stroke:#181818;stroke-width:1.0;"/><line style="stroke:#181818;stroke-width:1.0;" x1="584.418" x2="584.418" y1="348.5938" y2="557.875"/><line style="stroke:#181818;stroke-width:1.0;" x1="584.418" x2="498.041" y1="348.5938" y2="348.5938"/><polygon fill="#181818" points="508.041,344.5938,498.041,348.5938,508.041,352.5938,504.041,348.5938" style="stroke:#181818;stroke-width:1.0;"/><line style="stroke:#181818;stroke-width:1.0;" x1="486.041" x2="486.041" y1="525.875" y2="545.875"/><polygon fill="#181818" points="482.041,535.875,486.041,545.875,490.041,535.875,486.041,539.875" style="stroke:#181818;stroke-width:1.0;"/><line style="stroke:#181818;stroke-width:1.0;" x1="486.041" x2="486.041" y1="316.5938" y2="336.5938"/><polygon fill="#181818" points="482.041,326.5938,486.041,336.5938,490.041,326.5938,486.041,330.5938" style="stroke:#181818;stroke-width:1.0;"/><line style="stroke:#181818;stroke-width:1.0;" x1="486.041" x2="486.041" y1="569.875" y2="612.1279"/><polygon fill="#181818" points="482.041,602.1279,486.041,612.1279,490.041,602.1279,486.041,606.1279" style="stroke:#181818;stroke-width:1.0;"/><text fill="#000000" font-family="sans-serif" font-size="11" lengthAdjust="spacing" textLength="26.8984" x="490.041" y="592.2109">Tidak</text><line style="stroke:#181818;stroke-width:1.0;" x1="486.041" x2="486.041" y1="647.2217" y2="667.2217"/><polygon fill="#181818" points="482.041,657.2217,486.041,667.2217,490.041,657.2217,486.041,661.2217" style="stroke:#181818;stroke-width:1.0;"/><line style="stroke:#181818;stroke-width:1.0;" x1="486.041" x2="486.041" y1="123.7031" y2="171.3125"/><polygon fill="#181818" points="482.041,161.3125,486.041,171.3125,490.041,161.3125,486.041,165.3125" style="stroke:#181818;stroke-width:1.0;"/><line style="stroke:#181818;stroke-width:1.0;" x1="486.041" x2="486.041" y1="797.0186" y2="817.0186"/><polygon fill="#181818" points="482.041,807.0186,486.041,817.0186,490.041,807.0186,486.041,811.0186" style="stroke:#181818;stroke-width:1.0;"/><line style="stroke:#181818;stroke-width:1.0;" x1="486.041" x2="486.041" y1="951.2061" y2="971.2061"/><polygon fill="#181818" points="482.041,961.2061,486.041,971.2061,490.041,961.2061,486.041,965.2061" style="stroke:#181818;stroke-width:1.0;"/><line style="stroke:#181818;stroke-width:1.0;" x1="486.041" x2="486.041" y1="1006.2998" y2="1026.2998"/><polygon fill="#181818" points="482.041,1016.2998,486.041,1026.2998,490.041,1016.2998,486.041,1020.2998" style="stroke:#181818;stroke-width:1.0;"/><line style="stroke:#181818;stroke-width:1.0;" x1="486.041" x2="486.041" y1="1061.3936" y2="1081.3936"/><polygon fill="#181818" points="482.041,1071.3936,486.041,1081.3936,490.041,1071.3936,486.041,1075.3936" style="stroke:#181818;stroke-width:1.0;"/><line style="stroke:#181818;stroke-width:1.0;" x1="486.041" x2="486.041" y1="1116.4873" y2="1136.4873"/><polygon fill="#181818" points="482.041,1126.4873,486.041,1136.4873,490.041,1126.4873,486.041,1130.4873" style="stroke:#181818;stroke-width:1.0;"/><line style="stroke:#181818;stroke-width:1.0;" x1="486.041" x2="486.041" y1="896.1123" y2="916.1123"/><polygon fill="#181818" points="482.041,906.1123,486.041,916.1123,490.041,906.1123,486.041,910.1123" style="stroke:#181818;stroke-width:1.0;"/><line style="stroke:#181818;stroke-width:1.0;" x1="538.7002" x2="592.0908" y1="1203.5811" y2="1203.5811"/><polygon fill="#181818" points="588.0908,1053.8467,592.0908,1043.8467,596.0908,1053.8467,592.0908,1049.8467" style="stroke:#181818;stroke-width:1.0;"/><line style="stroke:#181818;stroke-width:1.0;" x1="592.0908" x2="592.0908" y1="884.1123" y2="1203.5811"/><line style="stroke:#181818;stroke-width:1.0;" x1="592.0908" x2="498.041" y1="884.1123" y2="884.1123"/><polygon fill="#181818" points="508.041,880.1123,498.041,884.1123,508.041,888.1123,504.041,884.1123" style="stroke:#181818;stroke-width:1.0;"/><line style="stroke:#181818;stroke-width:1.0;" x1="486.041" x2="486.041" y1="1171.5811" y2="1191.5811"/><polygon fill="#181818" points="482.041,1181.5811,486.041,1191.5811,490.041,1181.5811,486.041,1185.5811" style="stroke:#181818;stroke-width:1.0;"/><line style="stroke:#181818;stroke-width:1.0;" x1="486.041" x2="486.041" y1="852.1123" y2="872.1123"/><polygon fill="#181818" points="482.041,862.1123,486.041,872.1123,490.041,862.1123,486.041,866.1123" style="stroke:#181818;stroke-width:1.0;"/><line style="stroke:#181818;stroke-width:1.0;" x1="486.041" x2="486.041" y1="1215.5811" y2="1257.834"/><polygon fill="#181818" points="482.041,1247.834,486.041,1257.834,490.041,1247.834,486.041,1251.834" style="stroke:#181818;stroke-width:1.0;"/><text fill="#000000" font-family="sans-serif" font-size="11" lengthAdjust="spacing" textLength="26.8984" x="490.041" y="1237.917">Tidak</text><line style="stroke:#181818;stroke-width:1.0;" x1="110.7041" x2="110.7041" y1="1408.0215" y2="1428.0215"/><polygon fill="#181818" points="106.7041,1418.0215,110.7041,1428.0215,114.7041,1418.0215,110.7041,1422.0215" style="stroke:#181818;stroke-width:1.0;"/><line style="stroke:#181818;stroke-width:1.0;" x1="313.4707" x2="313.4707" y1="1408.0215" y2="1428.0215"/><polygon fill="#181818" points="309.4707,1418.0215,313.4707,1428.0215,317.4707,1418.0215,313.4707,1422.0215" style="stroke:#181818;stroke-width:1.0;"/><line style="stroke:#181818;stroke-width:1.0;" x1="516.8936" x2="516.8936" y1="1408.0215" y2="1428.0215"/><polygon fill="#181818" points="512.8936,1418.0215,516.8936,1428.0215,520.8936,1418.0215,516.8936,1422.0215" style="stroke:#181818;stroke-width:1.0;"/><line style="stroke:#181818;stroke-width:1.0;" x1="110.7041" x2="110.7041" y1="1463.1152" y2="1483.1152"/><polygon fill="#181818" points="106.7041,1473.1152,110.7041,1483.1152,114.7041,1473.1152,110.7041,1477.1152" style="stroke:#181818;stroke-width:1.0;"/><line style="stroke:#181818;stroke-width:1.0;" x1="313.4707" x2="313.4707" y1="1463.1152" y2="1483.1152"/><polygon fill="#181818" points="309.4707,1473.1152,313.4707,1483.1152,317.4707,1473.1152,313.4707,1477.1152" style="stroke:#181818;stroke-width:1.0;"/><line style="stroke:#181818;stroke-width:1.0;" x1="516.8936" x2="516.8936" y1="1463.1152" y2="1483.1152"/><polygon fill="#181818" points="512.8936,1473.1152,516.8936,1483.1152,520.8936,1473.1152,516.8936,1477.1152" style="stroke:#181818;stroke-width:1.0;"/><line style="stroke:#181818;stroke-width:1.0;" x1="296.127" x2="296.127" y1="1382.0215" y2="1402.0215"/><polygon fill="#181818" points="292.127,1392.0215,296.127,1402.0215,300.127,1392.0215,296.127,1396.0215" style="stroke:#181818;stroke-width:1.0;"/><line style="stroke:#181818;stroke-width:1.0;" x1="296.127" x2="296.127" y1="1489.1152" y2="1509.1152"/><polygon fill="#181818" points="292.127,1499.1152,296.127,1509.1152,300.127,1499.1152,296.127,1503.1152" style="stroke:#181818;stroke-width:1.0;"/><line style="stroke:#181818;stroke-width:1.0;" x1="296.127" x2="296.127" y1="1544.209" y2="1564.209"/><polygon fill="#181818" points="292.127,1554.209,296.127,1564.209,300.127,1554.209,296.127,1558.209" style="stroke:#181818;stroke-width:1.0;"/><line style="stroke:#181818;stroke-width:1.0;" x1="426.3538" x2="296.127" y1="1324.9277" y2="1324.9277"/><line style="stroke:#181818;stroke-width:1.0;" x1="296.127" x2="296.127" y1="1324.9277" y2="1346.9277"/><polygon fill="#181818" points="292.127,1336.9277,296.127,1346.9277,300.127,1336.9277,296.127,1340.9277" style="stroke:#181818;stroke-width:1.0;"/><line style="stroke:#181818;stroke-width:1.0;" x1="545.7283" x2="675.9551" y1="1324.9277" y2="1324.9277"/><line style="stroke:#181818;stroke-width:1.0;" x1="675.9551" x2="675.9551" y1="1324.9277" y2="1346.9277"/><polygon fill="#181818" points="671.9551,1336.9277,675.9551,1346.9277,679.9551,1336.9277,675.9551,1340.9277" style="stroke:#181818;stroke-width:1.0;"/><line style="stroke:#181818;stroke-width:1.0;" x1="296.127" x2="296.127" y1="1599.3027" y2="1617.3027"/><line style="stroke:#181818;stroke-width:1.0;" x1="296.127" x2="474.041" y1="1617.3027" y2="1617.3027"/><polygon fill="#181818" points="464.041,1613.3027,474.041,1617.3027,464.041,1621.3027,468.041,1617.3027" style="stroke:#181818;stroke-width:1.0;"/><line style="stroke:#181818;stroke-width:1.0;" x1="675.9551" x2="675.9551" y1="1382.0215" y2="1617.3027"/><line style="stroke:#181818;stroke-width:1.0;" x1="675.9551" x2="498.041" y1="1617.3027" y2="1617.3027"/><polygon fill="#181818" points="508.041,1613.3027,498.041,1617.3027,508.041,1621.3027,504.041,1617.3027" style="stroke:#181818;stroke-width:1.0;"/><line style="stroke:#181818;stroke-width:1.0;" x1="486.041" x2="486.041" y1="1292.9277" y2="1312.9277"/><polygon fill="#181818" points="482.041,1302.9277,486.041,1312.9277,490.041,1302.9277,486.041,1306.9277" style="stroke:#181818;stroke-width:1.0;"/><line style="stroke:#181818;stroke-width:1.0;" x1="486.041" x2="486.041" y1="702.3154" y2="761.9248"/><polygon fill="#181818" points="482.041,751.9248,486.041,761.9248,490.041,751.9248,486.041,755.9248" style="stroke:#181818;stroke-width:1.0;"/><line style="stroke:#181818;stroke-width:1.0;" x1="486.041" x2="486.041" y1="1772.9238" y2="1807.9238"/><polygon fill="#181818" points="482.041,1797.9238,486.041,1807.9238,490.041,1797.9238,486.041,1801.9238" style="stroke:#181818;stroke-width:1.0;"/><line style="stroke:#181818;stroke-width:1.0;" x1="486.041" x2="486.041" y1="1712.9121" y2="1737.8301"/><polygon fill="#181818" points="482.041,1727.8301,486.041,1737.8301,490.041,1727.8301,486.041,1731.8301" style="stroke:#181818;stroke-width:1.0;"/><line style="stroke:#181818;stroke-width:1.0;" x1="549.4102" x2="581.7529" y1="1700.9121" y2="1700.9121"/><polygon fill="#181818" points="577.7529,1780.4238,581.7529,1790.4238,585.7529,1780.4238,581.7529,1784.4238" style="stroke:#181818;stroke-width:1.0;"/><line style="stroke:#181818;stroke-width:1.0;" x1="581.7529" x2="581.7529" y1="1700.9121" y2="1875.0176"/><line style="stroke:#181818;stroke-width:1.0;" x1="581.7529" x2="498.041" y1="1875.0176" y2="1875.0176"/><polygon fill="#181818" points="508.041,1871.0176,498.041,1875.0176,508.041,1879.0176,504.041,1875.0176" style="stroke:#181818;stroke-width:1.0;"/><line style="stroke:#181818;stroke-width:1.0;" x1="486.041" x2="486.041" y1="1843.0176" y2="1863.0176"/><polygon fill="#181818" points="482.041,1853.0176,486.041,1863.0176,490.041,1853.0176,486.041,1857.0176" style="stroke:#181818;stroke-width:1.0;"/><line style="stroke:#181818;stroke-width:1.0;" x1="486.041" x2="486.041" y1="1629.3027" y2="1688.9121"/><polygon fill="#181818" points="482.041,1678.9121,486.041,1688.9121,490.041,1678.9121,486.041,1682.9121" style="stroke:#181818;stroke-width:1.0;"/><line style="stroke:#181818;stroke-width:1.0;" x1="486.041" x2="486.041" y1="1887.0176" y2="1919.0176"/><polygon fill="#181818" points="482.041,1909.0176,486.041,1919.0176,490.041,1909.0176,486.041,1913.0176" style="stroke:#181818;stroke-width:1.0;"/><!--SRC=[ZLJRRjim37ttLn1zIXxo0p6sOMdGRHY21Ki7h8zqJDkSPScGw0R5i7yVPUVYNDfD3u8j7bBaEQI4nH1yt0e_ixp0ah7qsCnXxLsW00ioQ7yXBB12gtlT9KaGz98aypNPikmiGgCVM4TuXGOR1MQ3MveahM9Ps5cuMvCdkqMBCT80k8FV2UYQBpeKs9iFtf2XxzB1lcR35OIkRGsJtnz-8aiUXS2wnlcZssIndZqzhLRBvUodhkc0xZTFBQ7qdwEmMLzSfiMb9zCAGrVNUbvtQBK438Vyqal_WAAOT7G3x2fMMYUFs6XmOA4639RyOGeSOFA4qnuyUm-Fd6Czod2-uQRLMo-us5Uy4Rqgm3luVaZbpmN5HeMuJV6Gw-sugyuWGpjeVcPwWxQ-gfwxjsd3Mkanjp0L-XBFw3kt2sg7eO6QSZJT3dqOa_-PfREbDaKcJXJbn3Ke76u9yQNFbJpNdTWN_0yTzj67qDUKS06JhyuMx1iC384C1OpwIaNs57aiQKw2V17h62-kmldw-7CQYmnbM_N302tvdlRqp0UmHBRddZ_QF4v661fcwF29fosQhMejD7JIzD-1xb6HO5m9R9_9YlDySYARdsSzAlhGgfk1cf5mEXKjcoYmTS85rps3NNn11XIP48SdId9DOw0ifWcvnqBsU9jpSJKATgk4nrictzgWPsYcXs68wjr7wuKej_KxlZFhvSEhAiwNRcUDGoKaTfn2Nwdbc6mGroP_0G00]--></g></svg>