<svg xmlns="http://www.w3.org/2000/svg" xmlns:xlink="http://www.w3.org/1999/xlink" contentStyleType="text/css" height="1687px" preserveAspectRatio="none" style="width:1503px;height:1687px;background:#FFFFFF;" version="1.1" viewBox="0 0 1503 1687" width="1503px" zoomAndPan="magnify"><title>Activity Diagram: Proses Produksi</title><defs/><g><text fill="#000000" font-family="sans-serif" font-size="14" font-weight="bold" lengthAdjust="spacing" textLength="229.5234" x="635.7119" y="34.5332">Activity Diagram: Proses Produksi</text><ellipse cx="828.741" cy="58.6094" fill="#222222" rx="10" ry="10" style="stroke:#222222;stroke-width:1.0;"/><rect fill="#F1F1F1" height="35.0938" rx="12.5" ry="12.5" style="stroke:#181818;stroke-width:0.5;" width="237.4766" x="710.0027" y="88.6094"/><text fill="#000000" font-family="sans-serif" font-size="12" lengthAdjust="spacing" textLength="217.4766" x="720.0027" y="111.0664">Pengguna mengakses halaman produksi</text><polygon fill="#F1F1F1" points="790.5256,143.7031,866.9563,143.7031,878.9563,155.7031,866.9563,167.7031,790.5256,167.7031,778.5256,155.7031,790.5256,143.7031" style="stroke:#181818;stroke-width:0.5;"/><text fill="#000000" font-family="sans-serif" font-size="11" lengthAdjust="spacing" textLength="76.4307" x="790.5256" y="160.2041">Jenis produksi?</text><text fill="#000000" font-family="sans-serif" font-size="11" lengthAdjust="spacing" textLength="89.2783" x="689.2473" y="153.2861">Produksi Pesanan</text><text fill="#000000" font-family="sans-serif" font-size="11" lengthAdjust="spacing" textLength="89.2676" x="878.9563" y="153.2861">Produksi Siap Beli</text><rect fill="none" height="1304.7031" style="stroke:#000000;stroke-width:1.5;" width="781.6621" x="11" y="177.7031"/><path d="M161.8613,177.7031 L161.8613,188.3125 L151.8613,198.3125 L11,198.3125 " fill="none" style="stroke:#000000;stroke-width:1.5;"/><text fill="#000000" font-family="sans-serif" font-size="14" lengthAdjust="spacing" textLength="140.8613" x="14" y="193.2363">Produksi dari Pesanan</text><rect fill="#F1F1F1" height="35.0938" rx="12.5" ry="12.5" style="stroke:#181818;stroke-width:0.5;" width="135.4238" x="393.9644" y="215.3125"/><text fill="#000000" font-family="sans-serif" font-size="12" lengthAdjust="spacing" textLength="115.4238" x="403.9644" y="237.7695">Lihat antrian pesanan</text><rect fill="#F1F1F1" height="35.0938" rx="12.5" ry="12.5" style="stroke:#181818;stroke-width:0.5;" width="182.7734" x="370.2896" y="270.4063"/><text fill="#000000" font-family="sans-serif" font-size="12" lengthAdjust="spacing" textLength="162.7734" x="380.2896" y="292.8633">Pilih pesanan untuk diproduksi</text><rect fill="#F1F1F1" height="35.0938" rx="12.5" ry="12.5" style="stroke:#181818;stroke-width:0.5;" width="252.7988" x="335.2769" y="325.5"/><text fill="#000000" font-family="sans-serif" font-size="12" lengthAdjust="spacing" textLength="232.7988" x="345.2769" y="347.957">Sistem menampilkan detail produk pesanan</text><rect fill="#F1F1F1" height="35.0938" rx="12.5" ry="12.5" style="stroke:#181818;stroke-width:0.5;" width="164.7559" x="379.2983" y="380.5938"/><text fill="#000000" font-family="sans-serif" font-size="12" lengthAdjust="spacing" textLength="144.7559" x="389.2983" y="403.0508">Pilih pekerja yang bertugas</text><polygon fill="#F1F1F1" points="398.9929,443.1875,524.3596,443.1875,536.3596,455.1875,524.3596,467.1875,398.9929,467.1875,386.9929,455.1875,398.9929,443.1875" style="stroke:#181818;stroke-width:0.5;"/><text fill="#000000" font-family="sans-serif" font-size="11" lengthAdjust="spacing" textLength="125.3667" x="398.9929" y="459.6885">Cek ketersediaan bahan?</text><text fill="#000000" font-family="sans-serif" font-size="11" lengthAdjust="spacing" textLength="31.7969" x="355.196" y="452.7705">Cukup</text><text fill="#000000" font-family="sans-serif" font-size="11" lengthAdjust="spacing" textLength="61.7515" x="536.3596" y="452.7705">Tidak Cukup</text><rect fill="#F1F1F1" height="35.0938" rx="12.5" ry="12.5" style="stroke:#181818;stroke-width:0.5;" width="296.75" x="120.3857" y="477.1875"/><text fill="#000000" font-family="sans-serif" font-size="12" lengthAdjust="spacing" textLength="276.75" x="130.3857" y="499.6445">Generate nomor produksi (PK/PR-YYMMDD-XXXX)</text><rect fill="#F1F1F1" height="35.0938" rx="12.5" ry="12.5" style="stroke:#181818;stroke-width:0.5;" width="97.3672" x="220.0771" y="547.2813"/><text fill="#000000" font-family="sans-serif" font-size="12" lengthAdjust="spacing" textLength="77.3672" x="230.0771" y="569.7383">Mulai produksi</text><rect fill="#F1F1F1" height="35.0938" rx="12.5" ry="12.5" style="stroke:#181818;stroke-width:0.5;" width="191.7441" x="172.8887" y="617.375"/><text fill="#000000" font-family="sans-serif" font-size="12" lengthAdjust="spacing" textLength="171.7441" x="182.8887" y="639.832">Status produksi = Dalam Proses</text><rect fill="#555555" height="6" rx="2.5" ry="2.5" style="stroke:#555555;stroke-width:1.0;" width="493.5215" x="23" y="687.4688"/><rect fill="#F1F1F1" height="35.0938" rx="12.5" ry="12.5" style="stroke:#181818;stroke-width:0.5;" width="181.3965" x="35" y="785.4688"/><text fill="#000000" font-family="sans-serif" font-size="12" lengthAdjust="spacing" textLength="161.3965" x="45" y="807.9258">Ambil bahan dari batch (FIFO)</text><rect fill="#F1F1F1" height="35.0938" rx="12.5" ry="12.5" style="stroke:#181818;stroke-width:0.5;" width="119.3926" x="66.002" y="850.8203"/><text fill="#000000" font-family="sans-serif" font-size="12" lengthAdjust="spacing" textLength="99.3926" x="76.002" y="873.2773">Kurangi stok batch</text><rect fill="#F1F1F1" height="35.0938" rx="12.5" ry="12.5" style="stroke:#181818;stroke-width:0.5;" width="116.7207" x="67.3379" y="916.1719"/><text fill="#000000" font-family="sans-serif" font-size="12" lengthAdjust="spacing" textLength="96.7207" x="77.3379" y="938.6289">Catat log inventori</text><polygon fill="#F1F1F1" points="125.6982,713.4688,137.6982,725.4688,125.6982,737.4688,113.6982,725.4688,125.6982,713.4688" style="stroke:#181818;stroke-width:0.5;"/><polygon fill="#F1F1F1" points="80.4414,975.9141,170.9551,975.9141,182.9551,987.9141,170.9551,999.9141,80.4414,999.9141,68.4414,987.9141,80.4414,975.9141" style="stroke:#181818;stroke-width:0.5;"/><text fill="#000000" font-family="sans-serif" font-size="11" lengthAdjust="spacing" textLength="90.5137" x="80.4414" y="992.415">Masih ada bahan?</text><text fill="#000000" font-family="sans-serif" font-size="11" lengthAdjust="spacing" textLength="13.4546" x="182.9551" y="985.4971">Ya</text><rect fill="#F1F1F1" height="35.0938" rx="12.5" ry="12.5" style="stroke:#181818;stroke-width:0.5;" width="234.125" x="268.3965" y="850.8203"/><text fill="#000000" font-family="sans-serif" font-size="12" lengthAdjust="spacing" textLength="214.125" x="278.3965" y="873.2773">Update status bahan (recalculateStatus)</text><rect fill="#555555" height="6" rx="2.5" ry="2.5" style="stroke:#555555;stroke-width:1.0;" width="493.5215" x="23" y="1033.75"/><rect fill="#F1F1F1" height="35.0938" rx="12.5" ry="12.5" style="stroke:#181818;stroke-width:0.5;" width="175.4258" x="181.0479" y="1074.75"/><text fill="#000000" font-family="sans-serif" font-size="12" lengthAdjust="spacing" textLength="155.4258" x="191.0479" y="1097.207">Proses produksi berlangsung</text><rect fill="#F1F1F1" height="35.0938" rx="12.5" ry="12.5" style="stroke:#181818;stroke-width:0.5;" width="127.3965" x="205.0625" y="1144.8438"/><text fill="#000000" font-family="sans-serif" font-size="12" lengthAdjust="spacing" textLength="107.3965" x="215.0625" y="1167.3008">Selesaikan produksi</text><rect fill="#F1F1F1" height="35.0938" rx="12.5" ry="12.5" style="stroke:#181818;stroke-width:0.5;" width="155.7441" x="190.8887" y="1211.0313"/><text fill="#000000" font-family="sans-serif" font-size="12" lengthAdjust="spacing" textLength="135.7441" x="200.8887" y="1233.4883">Status produksi = Selesai</text><rect fill="#F1F1F1" height="35.0938" rx="12.5" ry="12.5" style="stroke:#181818;stroke-width:0.5;" width="186.4063" x="175.5576" y="1281.125"/><text fill="#000000" font-family="sans-serif" font-size="12" lengthAdjust="spacing" textLength="166.4063" x="185.5576" y="1303.582">Status transaksi = Siap Diambil</text><rect fill="#F1F1F1" height="35.0938" rx="12.5" ry="12.5" style="stroke:#181818;stroke-width:0.5;" width="114.7109" x="211.4053" y="1351.2188"/><text fill="#000000" font-family="sans-serif" font-size="12" lengthAdjust="spacing" textLength="94.7109" x="221.4053" y="1373.6758">Catat log aktivitas</text><rect fill="#F1F1F1" height="35.0938" rx="12.5" ry="12.5" style="stroke:#181818;stroke-width:0.5;" width="166.0566" x="185.7324" y="1421.3125"/><text fill="#000000" font-family="sans-serif" font-size="12" lengthAdjust="spacing" textLength="146.0566" x="195.7324" y="1443.7695">Tampilkan notifikasi sukses</text><rect fill="#F1F1F1" height="35.0938" rx="12.5" ry="12.5" style="stroke:#181818;stroke-width:0.5;" width="236.1406" x="536.5215" y="477.1875"/><text fill="#000000" font-family="sans-serif" font-size="12" lengthAdjust="spacing" textLength="216.1406" x="546.5215" y="499.6445">Tampilkan peringatan bahan tidak cukup</text><rect fill="#F1F1F1" height="35.0938" rx="12.5" ry="12.5" style="stroke:#181818;stroke-width:0.5;" width="215.457" x="546.8633" y="547.2813"/><text fill="#000000" font-family="sans-serif" font-size="12" lengthAdjust="spacing" textLength="195.457" x="556.8633" y="569.7383">Tampilkan daftar bahan yang kurang</text><ellipse cx="654.5918" cy="628.375" fill="none" rx="11" ry="11" style="stroke:#222222;stroke-width:1.0;"/><ellipse cx="654.5918" cy="628.375" fill="#222222" rx="6" ry="6" style="stroke:#222222;stroke-width:1.0;"/><rect fill="none" height="1426.8906" style="stroke:#000000;stroke-width:1.5;" width="680.2852" x="812.6621" y="177.7031"/><path d="M947.1719,177.7031 L947.1719,188.3125 L937.1719,198.3125 L812.6621,198.3125 " fill="none" style="stroke:#000000;stroke-width:1.5;"/><text fill="#000000" font-family="sans-serif" font-size="14" lengthAdjust="spacing" textLength="124.5098" x="815.6621" y="193.2363">Produksi untuk Stok</text><rect fill="#F1F1F1" height="35.0938" rx="12.5" ry="12.5" style="stroke:#181818;stroke-width:0.5;" width="168.0898" x="1111.7607" y="215.3125"/><text fill="#000000" font-family="sans-serif" font-size="12" lengthAdjust="spacing" textLength="148.0898" x="1121.7607" y="237.7695">Buat produksi siap beli baru</text><rect fill="#F1F1F1" height="35.0938" rx="12.5" ry="12.5" style="stroke:#181818;stroke-width:0.5;" width="276.7461" x="1057.4326" y="270.4063"/><text fill="#000000" font-family="sans-serif" font-size="12" lengthAdjust="spacing" textLength="256.7461" x="1067.4326" y="292.8633">Generate nomor produksi (PS-YYMMDD-XXXX)</text><rect fill="#F1F1F1" height="35.0938" rx="12.5" ry="12.5" style="stroke:#181818;stroke-width:0.5;" width="82.7012" x="1154.4551" y="382.5"/><text fill="#000000" font-family="sans-serif" font-size="12" lengthAdjust="spacing" textLength="62.7012" x="1164.4551" y="404.957">Pilih produk</text><rect fill="#F1F1F1" height="35.0938" rx="12.5" ry="12.5" style="stroke:#181818;stroke-width:0.5;" width="126.0547" x="1132.7783" y="445.0938"/><text fill="#000000" font-family="sans-serif" font-size="12" lengthAdjust="spacing" textLength="106.0547" x="1142.7783" y="467.5508">Masukkan kuantitas</text><polygon fill="#F1F1F1" points="1195.8057,325.5,1207.8057,337.5,1195.8057,349.5,1183.8057,337.5,1195.8057,325.5" style="stroke:#181818;stroke-width:0.5;"/><polygon fill="#F1F1F1" points="1144.1357,528.1875,1247.4756,528.1875,1259.4756,540.1875,1247.4756,552.1875,1144.1357,552.1875,1132.1357,540.1875,1144.1357,528.1875" style="stroke:#181818;stroke-width:0.5;"/><text fill="#000000" font-family="sans-serif" font-size="11" lengthAdjust="spacing" textLength="103.3398" x="1144.1357" y="544.6885">Tambah produk lagi?</text><text fill="#000000" font-family="sans-serif" font-size="11" lengthAdjust="spacing" textLength="13.4546" x="1259.4756" y="537.7705">Ya</text><rect fill="#F1F1F1" height="35.0938" rx="12.5" ry="12.5" style="stroke:#181818;stroke-width:0.5;" width="134.0703" x="1128.7705" y="601.0234"/><text fill="#000000" font-family="sans-serif" font-size="12" lengthAdjust="spacing" textLength="114.0703" x="1138.7705" y="623.4805">Pilih tanggal produksi</text><rect fill="#F1F1F1" height="35.0938" rx="12.5" ry="12.5" style="stroke:#181818;stroke-width:0.5;" width="164.7559" x="1113.4277" y="671.1172"/><text fill="#000000" font-family="sans-serif" font-size="12" lengthAdjust="spacing" textLength="144.7559" x="1123.4277" y="693.5742">Pilih pekerja yang bertugas</text><polygon fill="#F1F1F1" points="1133.1223,741.2109,1258.489,741.2109,1270.489,753.2109,1258.489,765.2109,1133.1223,765.2109,1121.1223,753.2109,1133.1223,741.2109" style="stroke:#181818;stroke-width:0.5;"/><text fill="#000000" font-family="sans-serif" font-size="11" lengthAdjust="spacing" textLength="125.3667" x="1133.1223" y="757.7119">Cek ketersediaan bahan?</text><text fill="#000000" font-family="sans-serif" font-size="11" lengthAdjust="spacing" textLength="31.7969" x="1089.3254" y="750.7939">Cukup</text><text fill="#000000" font-family="sans-serif" font-size="11" lengthAdjust="spacing" textLength="61.7515" x="1270.489" y="750.7939">Tidak Cukup</text><rect fill="#F1F1F1" height="35.0938" rx="12.5" ry="12.5" style="stroke:#181818;stroke-width:0.5;" width="97.3672" x="980.0508" y="775.2109"/><text fill="#000000" font-family="sans-serif" font-size="12" lengthAdjust="spacing" textLength="77.3672" x="990.0508" y="797.668">Mulai produksi</text><rect fill="#F1F1F1" height="35.0938" rx="12.5" ry="12.5" style="stroke:#181818;stroke-width:0.5;" width="191.7441" x="932.8623" y="840.5625"/><text fill="#000000" font-family="sans-serif" font-size="12" lengthAdjust="spacing" textLength="171.7441" x="942.8623" y="863.0195">Status produksi = Dalam Proses</text><rect fill="#555555" height="6" rx="2.5" ry="2.5" style="stroke:#555555;stroke-width:1.0;" width="392.1445" x="832.6621" y="905.9141"/><rect fill="#F1F1F1" height="35.0938" rx="12.5" ry="12.5" style="stroke:#181818;stroke-width:0.5;" width="181.3965" x="846.6621" y="980.5625"/><text fill="#000000" font-family="sans-serif" font-size="12" lengthAdjust="spacing" textLength="161.3965" x="856.6621" y="1003.0195">Ambil bahan dari batch (FIFO)</text><rect fill="#F1F1F1" height="35.0938" rx="12.5" ry="12.5" style="stroke:#181818;stroke-width:0.5;" width="119.3926" x="877.6641" y="1050.6563"/><text fill="#000000" font-family="sans-serif" font-size="12" lengthAdjust="spacing" textLength="99.3926" x="887.6641" y="1073.1133">Kurangi stok batch</text><rect fill="#F1F1F1" height="35.0938" rx="12.5" ry="12.5" style="stroke:#181818;stroke-width:0.5;" width="116.7207" x="879" y="1120.75"/><text fill="#000000" font-family="sans-serif" font-size="12" lengthAdjust="spacing" textLength="96.7207" x="889" y="1143.207">Catat log inventori</text><polygon fill="#F1F1F1" points="937.3604,931.9141,949.3604,943.9141,937.3604,955.9141,925.3604,943.9141,937.3604,931.9141" style="stroke:#181818;stroke-width:0.5;"/><polygon fill="#F1F1F1" points="892.1035,1199.9375,982.6172,1199.9375,994.6172,1211.9375,982.6172,1223.9375,892.1035,1223.9375,880.1035,1211.9375,892.1035,1199.9375" style="stroke:#181818;stroke-width:0.5;"/><text fill="#000000" font-family="sans-serif" font-size="11" lengthAdjust="spacing" textLength="90.5137" x="892.1035" y="1216.4385">Masih ada bahan?</text><text fill="#000000" font-family="sans-serif" font-size="11" lengthAdjust="spacing" textLength="13.4546" x="994.6172" y="1209.5205">Ya</text><rect fill="#F1F1F1" height="35.0938" rx="12.5" ry="12.5" style="stroke:#181818;stroke-width:0.5;" width="130.748" x="1080.0586" y="1050.6563"/><text fill="#000000" font-family="sans-serif" font-size="12" lengthAdjust="spacing" textLength="110.748" x="1090.0586" y="1073.1133">Update status bahan</text><rect fill="#555555" height="6" rx="2.5" ry="2.5" style="stroke:#555555;stroke-width:1.0;" width="392.1445" x="832.6621" y="1257.7734"/><rect fill="#F1F1F1" height="35.0938" rx="12.5" ry="12.5" style="stroke:#181818;stroke-width:0.5;" width="127.3965" x="965.0361" y="1298.7734"/><text fill="#000000" font-family="sans-serif" font-size="12" lengthAdjust="spacing" textLength="107.3965" x="975.0361" y="1321.2305">Selesaikan produksi</text><rect fill="#F1F1F1" height="35.0938" rx="12.5" ry="12.5" style="stroke:#181818;stroke-width:0.5;" width="213.4121" x="922.0283" y="1368.8672"/><text fill="#000000" font-family="sans-serif" font-size="12" lengthAdjust="spacing" textLength="193.4121" x="932.0283" y="1391.3242">Tambah stok produk (Product.stock)</text><rect fill="#F1F1F1" height="35.0938" rx="12.5" ry="12.5" style="stroke:#181818;stroke-width:0.5;" width="155.7441" x="950.8623" y="1438.9609"/><text fill="#000000" font-family="sans-serif" font-size="12" lengthAdjust="spacing" textLength="135.7441" x="960.8623" y="1461.418">Status produksi = Selesai</text><rect fill="#F1F1F1" height="35.0938" rx="12.5" ry="12.5" style="stroke:#181818;stroke-width:0.5;" width="114.7109" x="971.3789" y="1502.4063"/><text fill="#000000" font-family="sans-serif" font-size="12" lengthAdjust="spacing" textLength="94.7109" x="981.3789" y="1524.8633">Catat log aktivitas</text><rect fill="#F1F1F1" height="35.0938" rx="12.5" ry="12.5" style="stroke:#181818;stroke-width:0.5;" width="166.0566" x="945.7061" y="1557.5"/><text fill="#000000" font-family="sans-serif" font-size="12" lengthAdjust="spacing" textLength="146.0566" x="955.7061" y="1579.957">Tampilkan notifikasi sukses</text><rect fill="#F1F1F1" height="35.0938" rx="12.5" ry="12.5" style="stroke:#181818;stroke-width:0.5;" width="236.1406" x="1244.8066" y="775.2109"/><text fill="#000000" font-family="sans-serif" font-size="12" lengthAdjust="spacing" textLength="216.1406" x="1254.8066" y="797.668">Tampilkan peringatan bahan tidak cukup</text><ellipse cx="1362.877" cy="851.5625" fill="none" rx="11" ry="11" style="stroke:#222222;stroke-width:1.0;"/><ellipse cx="1362.877" cy="851.5625" fill="#222222" rx="6" ry="6" style="stroke:#222222;stroke-width:1.0;"/><polygon fill="#F1F1F1" points="828.741,1610.5938,840.741,1622.5938,828.741,1634.5938,816.741,1622.5938,828.741,1610.5938" style="stroke:#181818;stroke-width:0.5;"/><ellipse cx="828.741" cy="1665.5938" fill="none" rx="11" ry="11" style="stroke:#222222;stroke-width:1.0;"/><ellipse cx="828.741" cy="1665.5938" fill="#222222" rx="6" ry="6" style="stroke:#222222;stroke-width:1.0;"/><line style="stroke:#181818;stroke-width:1.0;" x1="828.741" x2="828.741" y1="68.6094" y2="88.6094"/><polygon fill="#181818" points="824.741,78.6094,828.741,88.6094,832.741,78.6094,828.741,82.6094" style="stroke:#181818;stroke-width:1.0;"/><line style="stroke:#181818;stroke-width:1.0;" x1="461.6763" x2="461.6763" y1="250.4063" y2="270.4063"/><polygon fill="#181818" points="457.6763,260.4063,461.6763,270.4063,465.6763,260.4063,461.6763,264.4063" style="stroke:#181818;stroke-width:1.0;"/><line style="stroke:#181818;stroke-width:1.0;" x1="461.6763" x2="461.6763" y1="305.5" y2="325.5"/><polygon fill="#181818" points="457.6763,315.5,461.6763,325.5,465.6763,315.5,461.6763,319.5" style="stroke:#181818;stroke-width:1.0;"/><line style="stroke:#181818;stroke-width:1.0;" x1="461.6763" x2="461.6763" y1="360.5938" y2="380.5938"/><polygon fill="#181818" points="457.6763,370.5938,461.6763,380.5938,465.6763,370.5938,461.6763,374.5938" style="stroke:#181818;stroke-width:1.0;"/><line style="stroke:#181818;stroke-width:1.0;" x1="268.7607" x2="268.7607" y1="512.2813" y2="547.2813"/><polygon fill="#181818" points="264.7607,537.2813,268.7607,547.2813,272.7607,537.2813,268.7607,541.2813" style="stroke:#181818;stroke-width:1.0;"/><line style="stroke:#181818;stroke-width:1.0;" x1="268.7607" x2="268.7607" y1="582.375" y2="617.375"/><polygon fill="#181818" points="264.7607,607.375,268.7607,617.375,272.7607,607.375,268.7607,611.375" style="stroke:#181818;stroke-width:1.0;"/><line style="stroke:#181818;stroke-width:1.0;" x1="125.6982" x2="125.6982" y1="820.5625" y2="850.8203"/><polygon fill="#181818" points="121.6982,840.8203,125.6982,850.8203,129.6982,840.8203,125.6982,844.8203" style="stroke:#181818;stroke-width:1.0;"/><line style="stroke:#181818;stroke-width:1.0;" x1="125.6982" x2="125.6982" y1="885.9141" y2="916.1719"/><polygon fill="#181818" points="121.6982,906.1719,125.6982,916.1719,129.6982,906.1719,125.6982,910.1719" style="stroke:#181818;stroke-width:1.0;"/><line style="stroke:#181818;stroke-width:1.0;" x1="125.6982" x2="125.6982" y1="737.4688" y2="785.4688"/><polygon fill="#181818" points="121.6982,775.4688,125.6982,785.4688,129.6982,775.4688,125.6982,779.4688" style="stroke:#181818;stroke-width:1.0;"/><line style="stroke:#181818;stroke-width:1.0;" x1="182.9551" x2="228.3965" y1="987.9141" y2="987.9141"/><polygon fill="#181818" points="224.3965,878.3672,228.3965,868.3672,232.3965,878.3672,228.3965,874.3672" style="stroke:#181818;stroke-width:1.0;"/><line style="stroke:#181818;stroke-width:1.0;" x1="228.3965" x2="228.3965" y1="725.4688" y2="987.9141"/><line style="stroke:#181818;stroke-width:1.0;" x1="228.3965" x2="137.6982" y1="725.4688" y2="725.4688"/><polygon fill="#181818" points="147.6982,721.4688,137.6982,725.4688,147.6982,729.4688,143.6982,725.4688" style="stroke:#181818;stroke-width:1.0;"/><line style="stroke:#181818;stroke-width:1.0;" x1="125.6982" x2="125.6982" y1="951.2656" y2="975.9141"/><polygon fill="#181818" points="121.6982,965.9141,125.6982,975.9141,129.6982,965.9141,125.6982,969.9141" style="stroke:#181818;stroke-width:1.0;"/><line style="stroke:#181818;stroke-width:1.0;" x1="125.6982" x2="125.6982" y1="693.4688" y2="713.4688"/><polygon fill="#181818" points="121.6982,703.4688,125.6982,713.4688,129.6982,703.4688,125.6982,707.4688" style="stroke:#181818;stroke-width:1.0;"/><line style="stroke:#181818;stroke-width:1.0;" x1="385.459" x2="385.459" y1="693.4688" y2="850.8203"/><polygon fill="#181818" points="381.459,840.8203,385.459,850.8203,389.459,840.8203,385.459,844.8203" style="stroke:#181818;stroke-width:1.0;"/><line style="stroke:#181818;stroke-width:1.0;" x1="125.6982" x2="125.6982" y1="999.9141" y2="1033.75"/><polygon fill="#181818" points="121.6982,1023.75,125.6982,1033.75,129.6982,1023.75,125.6982,1027.75" style="stroke:#181818;stroke-width:1.0;"/><text fill="#000000" font-family="sans-serif" font-size="11" lengthAdjust="spacing" textLength="26.8984" x="129.6982" y="1021.333">Tidak</text><line style="stroke:#181818;stroke-width:1.0;" x1="385.459" x2="385.459" y1="885.9141" y2="1033.75"/><polygon fill="#181818" points="381.459,1023.75,385.459,1033.75,389.459,1023.75,385.459,1027.75" style="stroke:#181818;stroke-width:1.0;"/><line style="stroke:#181818;stroke-width:1.0;" x1="268.7607" x2="268.7607" y1="652.4688" y2="687.4688"/><polygon fill="#181818" points="264.7607,677.4688,268.7607,687.4688,272.7607,677.4688,268.7607,681.4688" style="stroke:#181818;stroke-width:1.0;"/><line style="stroke:#181818;stroke-width:1.0;" x1="268.7607" x2="268.7607" y1="1039.75" y2="1074.75"/><polygon fill="#181818" points="264.7607,1064.75,268.7607,1074.75,272.7607,1064.75,268.7607,1068.75" style="stroke:#181818;stroke-width:1.0;"/><line style="stroke:#181818;stroke-width:1.0;" x1="268.7607" x2="268.7607" y1="1109.8438" y2="1144.8438"/><polygon fill="#181818" points="264.7607,1134.8438,268.7607,1144.8438,272.7607,1134.8438,268.7607,1138.8438" style="stroke:#181818;stroke-width:1.0;"/><line style="stroke:#181818;stroke-width:1.0;" x1="268.7607" x2="268.7607" y1="1179.9375" y2="1211.0313"/><polygon fill="#181818" points="264.7607,1201.0313,268.7607,1211.0313,272.7607,1201.0313,268.7607,1205.0313" style="stroke:#181818;stroke-width:1.0;"/><line style="stroke:#181818;stroke-width:1.0;" x1="268.7607" x2="268.7607" y1="1246.125" y2="1281.125"/><polygon fill="#181818" points="264.7607,1271.125,268.7607,1281.125,272.7607,1271.125,268.7607,1275.125" style="stroke:#181818;stroke-width:1.0;"/><line style="stroke:#181818;stroke-width:1.0;" x1="268.7607" x2="268.7607" y1="1316.2188" y2="1351.2188"/><polygon fill="#181818" points="264.7607,1341.2188,268.7607,1351.2188,272.7607,1341.2188,268.7607,1345.2188" style="stroke:#181818;stroke-width:1.0;"/><line style="stroke:#181818;stroke-width:1.0;" x1="268.7607" x2="268.7607" y1="1386.3125" y2="1421.3125"/><polygon fill="#181818" points="264.7607,1411.3125,268.7607,1421.3125,272.7607,1411.3125,268.7607,1415.3125" style="stroke:#181818;stroke-width:1.0;"/><line style="stroke:#181818;stroke-width:1.0;" x1="654.5918" x2="654.5918" y1="512.2813" y2="547.2813"/><polygon fill="#181818" points="650.5918,537.2813,654.5918,547.2813,658.5918,537.2813,654.5918,541.2813" style="stroke:#181818;stroke-width:1.0;"/><line style="stroke:#181818;stroke-width:1.0;" x1="654.5918" x2="654.5918" y1="582.375" y2="617.375"/><polygon fill="#181818" points="650.5918,607.375,654.5918,617.375,658.5918,607.375,654.5918,611.375" style="stroke:#181818;stroke-width:1.0;"/><line style="stroke:#181818;stroke-width:1.0;" x1="386.9929" x2="268.7607" y1="455.1875" y2="455.1875"/><line style="stroke:#181818;stroke-width:1.0;" x1="268.7607" x2="268.7607" y1="455.1875" y2="477.1875"/><polygon fill="#181818" points="264.7607,467.1875,268.7607,477.1875,272.7607,467.1875,268.7607,471.1875" style="stroke:#181818;stroke-width:1.0;"/><line style="stroke:#181818;stroke-width:1.0;" x1="536.3596" x2="654.5918" y1="455.1875" y2="455.1875"/><line style="stroke:#181818;stroke-width:1.0;" x1="654.5918" x2="654.5918" y1="455.1875" y2="477.1875"/><polygon fill="#181818" points="650.5918,467.1875,654.5918,477.1875,658.5918,467.1875,654.5918,471.1875" style="stroke:#181818;stroke-width:1.0;"/><line style="stroke:#181818;stroke-width:1.0;" x1="268.7607" x2="268.7607" y1="1456.4063" y2="1622.5938"/><line style="stroke:#181818;stroke-width:1.0;" x1="268.7607" x2="816.741" y1="1622.5938" y2="1622.5938"/><polygon fill="#181818" points="806.741,1618.5938,816.741,1622.5938,806.741,1626.5938,810.741,1622.5938" style="stroke:#181818;stroke-width:1.0;"/><line style="stroke:#181818;stroke-width:1.0;" x1="461.6763" x2="461.6763" y1="415.6875" y2="443.1875"/><polygon fill="#181818" points="457.6763,433.1875,461.6763,443.1875,465.6763,433.1875,461.6763,437.1875" style="stroke:#181818;stroke-width:1.0;"/><line style="stroke:#181818;stroke-width:1.0;" x1="1195.8057" x2="1195.8057" y1="250.4063" y2="270.4063"/><polygon fill="#181818" points="1191.8057,260.4063,1195.8057,270.4063,1199.8057,260.4063,1195.8057,264.4063" style="stroke:#181818;stroke-width:1.0;"/><line style="stroke:#181818;stroke-width:1.0;" x1="1195.8057" x2="1195.8057" y1="417.5938" y2="445.0938"/><polygon fill="#181818" points="1191.8057,435.0938,1195.8057,445.0938,1199.8057,435.0938,1195.8057,439.0938" style="stroke:#181818;stroke-width:1.0;"/><line style="stroke:#181818;stroke-width:1.0;" x1="1195.8057" x2="1195.8057" y1="349.5" y2="382.5"/><polygon fill="#181818" points="1191.8057,372.5,1195.8057,382.5,1199.8057,372.5,1195.8057,376.5" style="stroke:#181818;stroke-width:1.0;"/><line style="stroke:#181818;stroke-width:1.0;" x1="1259.4756" x2="1271.4756" y1="540.1875" y2="540.1875"/><polygon fill="#181818" points="1267.4756,437.5938,1271.4756,427.5938,1275.4756,437.5938,1271.4756,433.5938" style="stroke:#181818;stroke-width:1.0;"/><line style="stroke:#181818;stroke-width:1.0;" x1="1271.4756" x2="1271.4756" y1="337.5" y2="540.1875"/><line style="stroke:#181818;stroke-width:1.0;" x1="1271.4756" x2="1207.8057" y1="337.5" y2="337.5"/><polygon fill="#181818" points="1217.8057,333.5,1207.8057,337.5,1217.8057,341.5,1213.8057,337.5" style="stroke:#181818;stroke-width:1.0;"/><line style="stroke:#181818;stroke-width:1.0;" x1="1195.8057" x2="1195.8057" y1="480.1875" y2="528.1875"/><polygon fill="#181818" points="1191.8057,518.1875,1195.8057,528.1875,1199.8057,518.1875,1195.8057,522.1875" style="stroke:#181818;stroke-width:1.0;"/><line style="stroke:#181818;stroke-width:1.0;" x1="1195.8057" x2="1195.8057" y1="305.5" y2="325.5"/><polygon fill="#181818" points="1191.8057,315.5,1195.8057,325.5,1199.8057,315.5,1195.8057,319.5" style="stroke:#181818;stroke-width:1.0;"/><line style="stroke:#181818;stroke-width:1.0;" x1="1195.8057" x2="1195.8057" y1="552.1875" y2="601.0234"/><polygon fill="#181818" points="1191.8057,591.0234,1195.8057,601.0234,1199.8057,591.0234,1195.8057,595.0234" style="stroke:#181818;stroke-width:1.0;"/><text fill="#000000" font-family="sans-serif" font-size="11" lengthAdjust="spacing" textLength="26.8984" x="1199.8057" y="581.1064">Tidak</text><line style="stroke:#181818;stroke-width:1.0;" x1="1195.8057" x2="1195.8057" y1="636.1172" y2="671.1172"/><polygon fill="#181818" points="1191.8057,661.1172,1195.8057,671.1172,1199.8057,661.1172,1195.8057,665.1172" style="stroke:#181818;stroke-width:1.0;"/><line style="stroke:#181818;stroke-width:1.0;" x1="1028.7344" x2="1028.7344" y1="810.3047" y2="840.5625"/><polygon fill="#181818" points="1024.7344,830.5625,1028.7344,840.5625,1032.7344,830.5625,1028.7344,834.5625" style="stroke:#181818;stroke-width:1.0;"/><line style="stroke:#181818;stroke-width:1.0;" x1="937.3604" x2="937.3604" y1="1015.6563" y2="1050.6563"/><polygon fill="#181818" points="933.3604,1040.6563,937.3604,1050.6563,941.3604,1040.6563,937.3604,1044.6563" style="stroke:#181818;stroke-width:1.0;"/><line style="stroke:#181818;stroke-width:1.0;" x1="937.3604" x2="937.3604" y1="1085.75" y2="1120.75"/><polygon fill="#181818" points="933.3604,1110.75,937.3604,1120.75,941.3604,1110.75,937.3604,1114.75" style="stroke:#181818;stroke-width:1.0;"/><line style="stroke:#181818;stroke-width:1.0;" x1="937.3604" x2="937.3604" y1="955.9141" y2="980.5625"/><polygon fill="#181818" points="933.3604,970.5625,937.3604,980.5625,941.3604,970.5625,937.3604,974.5625" style="stroke:#181818;stroke-width:1.0;"/><line style="stroke:#181818;stroke-width:1.0;" x1="994.6172" x2="1040.0586" y1="1211.9375" y2="1211.9375"/><polygon fill="#181818" points="1036.0586,1078.2031,1040.0586,1068.2031,1044.0586,1078.2031,1040.0586,1074.2031" style="stroke:#181818;stroke-width:1.0;"/><line style="stroke:#181818;stroke-width:1.0;" x1="1040.0586" x2="1040.0586" y1="943.9141" y2="1211.9375"/><line style="stroke:#181818;stroke-width:1.0;" x1="1040.0586" x2="949.3604" y1="943.9141" y2="943.9141"/><polygon fill="#181818" points="959.3604,939.9141,949.3604,943.9141,959.3604,947.9141,955.3604,943.9141" style="stroke:#181818;stroke-width:1.0;"/><line style="stroke:#181818;stroke-width:1.0;" x1="937.3604" x2="937.3604" y1="1155.8438" y2="1199.9375"/><polygon fill="#181818" points="933.3604,1189.9375,937.3604,1199.9375,941.3604,1189.9375,937.3604,1193.9375" style="stroke:#181818;stroke-width:1.0;"/><line style="stroke:#181818;stroke-width:1.0;" x1="937.3604" x2="937.3604" y1="911.9141" y2="931.9141"/><polygon fill="#181818" points="933.3604,921.9141,937.3604,931.9141,941.3604,921.9141,937.3604,925.9141" style="stroke:#181818;stroke-width:1.0;"/><line style="stroke:#181818;stroke-width:1.0;" x1="1145.4326" x2="1145.4326" y1="911.9141" y2="1050.6563"/><polygon fill="#181818" points="1141.4326,1040.6563,1145.4326,1050.6563,1149.4326,1040.6563,1145.4326,1044.6563" style="stroke:#181818;stroke-width:1.0;"/><line style="stroke:#181818;stroke-width:1.0;" x1="937.3604" x2="937.3604" y1="1223.9375" y2="1257.7734"/><polygon fill="#181818" points="933.3604,1247.7734,937.3604,1257.7734,941.3604,1247.7734,937.3604,1251.7734" style="stroke:#181818;stroke-width:1.0;"/><text fill="#000000" font-family="sans-serif" font-size="11" lengthAdjust="spacing" textLength="26.8984" x="941.3604" y="1245.3564">Tidak</text><line style="stroke:#181818;stroke-width:1.0;" x1="1145.4326" x2="1145.4326" y1="1085.75" y2="1257.7734"/><polygon fill="#181818" points="1141.4326,1247.7734,1145.4326,1257.7734,1149.4326,1247.7734,1145.4326,1251.7734" style="stroke:#181818;stroke-width:1.0;"/><line style="stroke:#181818;stroke-width:1.0;" x1="1028.7344" x2="1028.7344" y1="875.6563" y2="905.9141"/><polygon fill="#181818" points="1024.7344,895.9141,1028.7344,905.9141,1032.7344,895.9141,1028.7344,899.9141" style="stroke:#181818;stroke-width:1.0;"/><line style="stroke:#181818;stroke-width:1.0;" x1="1028.7344" x2="1028.7344" y1="1263.7734" y2="1298.7734"/><polygon fill="#181818" points="1024.7344,1288.7734,1028.7344,1298.7734,1032.7344,1288.7734,1028.7344,1292.7734" style="stroke:#181818;stroke-width:1.0;"/><line style="stroke:#181818;stroke-width:1.0;" x1="1028.7344" x2="1028.7344" y1="1333.8672" y2="1368.8672"/><polygon fill="#181818" points="1024.7344,1358.8672,1028.7344,1368.8672,1032.7344,1358.8672,1028.7344,1362.8672" style="stroke:#181818;stroke-width:1.0;"/><line style="stroke:#181818;stroke-width:1.0;" x1="1028.7344" x2="1028.7344" y1="1403.9609" y2="1438.9609"/><polygon fill="#181818" points="1024.7344,1428.9609,1028.7344,1438.9609,1032.7344,1428.9609,1028.7344,1432.9609" style="stroke:#181818;stroke-width:1.0;"/><line style="stroke:#181818;stroke-width:1.0;" x1="1028.7344" x2="1028.7344" y1="1474.0547" y2="1502.4063"/><polygon fill="#181818" points="1024.7344,1492.4063,1028.7344,1502.4063,1032.7344,1492.4063,1028.7344,1496.4063" style="stroke:#181818;stroke-width:1.0;"/><line style="stroke:#181818;stroke-width:1.0;" x1="1028.7344" x2="1028.7344" y1="1537.5" y2="1557.5"/><polygon fill="#181818" points="1024.7344,1547.5,1028.7344,1557.5,1032.7344,1547.5,1028.7344,1551.5" style="stroke:#181818;stroke-width:1.0;"/><line style="stroke:#181818;stroke-width:1.0;" x1="1362.877" x2="1362.877" y1="810.3047" y2="840.5625"/><polygon fill="#181818" points="1358.877,830.5625,1362.877,840.5625,1366.877,830.5625,1362.877,834.5625" style="stroke:#181818;stroke-width:1.0;"/><line style="stroke:#181818;stroke-width:1.0;" x1="1121.1223" x2="1028.7344" y1="753.2109" y2="753.2109"/><line style="stroke:#181818;stroke-width:1.0;" x1="1028.7344" x2="1028.7344" y1="753.2109" y2="775.2109"/><polygon fill="#181818" points="1024.7344,765.2109,1028.7344,775.2109,1032.7344,765.2109,1028.7344,769.2109" style="stroke:#181818;stroke-width:1.0;"/><line style="stroke:#181818;stroke-width:1.0;" x1="1270.489" x2="1362.877" y1="753.2109" y2="753.2109"/><line style="stroke:#181818;stroke-width:1.0;" x1="1362.877" x2="1362.877" y1="753.2109" y2="775.2109"/><polygon fill="#181818" points="1358.877,765.2109,1362.877,775.2109,1366.877,765.2109,1362.877,769.2109" style="stroke:#181818;stroke-width:1.0;"/><line style="stroke:#181818;stroke-width:1.0;" x1="1028.7344" x2="1028.7344" y1="1592.5938" y2="1622.5938"/><line style="stroke:#181818;stroke-width:1.0;" x1="1028.7344" x2="840.741" y1="1622.5938" y2="1622.5938"/><polygon fill="#181818" points="850.741,1618.5938,840.741,1622.5938,850.741,1626.5938,846.741,1622.5938" style="stroke:#181818;stroke-width:1.0;"/><line style="stroke:#181818;stroke-width:1.0;" x1="1195.8057" x2="1195.8057" y1="706.2109" y2="741.2109"/><polygon fill="#181818" points="1191.8057,731.2109,1195.8057,741.2109,1199.8057,731.2109,1195.8057,735.2109" style="stroke:#181818;stroke-width:1.0;"/><line style="stroke:#181818;stroke-width:1.0;" x1="778.5256" x2="461.6763" y1="155.7031" y2="155.7031"/><line style="stroke:#181818;stroke-width:1.0;" x1="461.6763" x2="461.6763" y1="155.7031" y2="215.3125"/><polygon fill="#181818" points="457.6763,205.3125,461.6763,215.3125,465.6763,205.3125,461.6763,209.3125" style="stroke:#181818;stroke-width:1.0;"/><line style="stroke:#181818;stroke-width:1.0;" x1="878.9563" x2="1195.8057" y1="155.7031" y2="155.7031"/><line style="stroke:#181818;stroke-width:1.0;" x1="1195.8057" x2="1195.8057" y1="155.7031" y2="215.3125"/><polygon fill="#181818" points="1191.8057,205.3125,1195.8057,215.3125,1199.8057,205.3125,1195.8057,209.3125" style="stroke:#181818;stroke-width:1.0;"/><line style="stroke:#181818;stroke-width:1.0;" x1="828.741" x2="828.741" y1="123.7031" y2="143.7031"/><polygon fill="#181818" points="824.741,133.7031,828.741,143.7031,832.741,133.7031,828.741,137.7031" style="stroke:#181818;stroke-width:1.0;"/><line style="stroke:#181818;stroke-width:1.0;" x1="828.741" x2="828.741" y1="1634.5938" y2="1654.5938"/><polygon fill="#181818" points="824.741,1644.5938,828.741,1654.5938,832.741,1644.5938,828.741,1648.5938" style="stroke:#181818;stroke-width:1.0;"/><!--SRC=[xLJ1RjD04BtxAqOz9OV2FH6Wjb4Hb8Y858aS9_R66NQzjdPdYoh4lpDUEquT9utWW432XoJUl9cTUM_cCR5HS9KoFH0_memmTrXCOE5AhtpzbGNjAKaye-CacIoKpVDW4GhvWRe6RT5WWHQg5ZnD4jh0wBsovBl3DsFWhR8msgM4XV9eqOuJa2T-L785CPKMBZfKXgw3Ni3tYAkVoGVQ8WDQTbJVtI2c-_yNP6YxEuTWEMZ8Q5zZ1roIPrNK_M1HaT62pXGZcRRsOUxX9LgvhmYFQ7DOAySXHty4NhDoepHenSfvbH7ANMlSektOkGawLECk8bxoLbdba1NOiYXTnwXGUVToyUbojPhFPxFBB_ACf_t8UJ18CEovwPkHmruWU0MpMiXM-Zwuzx8fdUuTr8zJbK8U7CURhegri1aRRVHS8wTR6Ds-k_ruK78NSnUSi4dWkTGD_WJm1gKFC6KEP1-KvTBHz4Hry6rBCksZENfH3JFio9T17QrmF8YxV0ttbA6U3WW0p97i863okSfggNn3RjFpoAaKJIfYi6fOF-XQsMp8Qb-jTY4xjMJCZ13aWysVaMgoL4QcbtHlFS-CGHjp7CSYYySMI5ZLbb7BUu3Ugu8wUWiUJDJaljisMp9jf4J9wOC-FNlAU14lwW77zcIViLAEn9rujrx0CIYjWqwMaU56FAuDYAkiumps0sGUg-I9RhI9RpyQ5sjAxCmh4dIj39qnkSQTbZBgFOkx3i9X9uolawqbcPJemXC3E-qFonFca3opjJjFYraE_GH5e9eh7SHu-wBsLqne5I9t3cemfoDRDjokGsSL1VCSpP7P_JFM-zz0_mO3_MMpFEzwxNn6SjeXRTOsvHTocEhnRzhals9yPtmi7YGHz1C0]--></g></svg>