<svg xmlns="http://www.w3.org/2000/svg" xmlns:xlink="http://www.w3.org/1999/xlink" contentStyleType="text/css" height="1280px" preserveAspectRatio="none" style="width:1770px;height:1280px;background:#FFFFFF;" version="1.1" viewBox="0 0 1770 1280" width="1770px" zoomAndPan="magnify"><title>Activity Diagram: Kelola Pengguna dan Peran</title><defs/><g><text fill="#000000" font-family="sans-serif" font-size="14" font-weight="bold" lengthAdjust="spacing" textLength="304.1855" x="731.5654" y="34.5332">Activity Diagram: Kelola Pengguna dan Peran</text><ellipse cx="885.6582" cy="58.6094" fill="#222222" rx="10" ry="10" style="stroke:#222222;stroke-width:1.0;"/><rect fill="#F1F1F1" height="35.0938" rx="12.5" ry="12.5" style="stroke:#181818;stroke-width:0.5;" width="210.7695" x="780.2734" y="88.6094"/><text fill="#000000" font-family="sans-serif" font-size="12" lengthAdjust="spacing" textLength="190.7695" x="790.2734" y="111.0664">Admin mengakses halaman pekerja</text><rect fill="#F1F1F1" height="35.0938" rx="12.5" ry="12.5" style="stroke:#181818;stroke-width:0.5;" width="222.1191" x="774.5986" y="143.7031"/><text fill="#000000" font-family="sans-serif" font-size="12" lengthAdjust="spacing" textLength="202.1191" x="784.5986" y="166.1602">Sistem menampilkan daftar pengguna</text><polygon fill="#F1F1F1" points="235.0137,198.7969,284.5352,198.7969,296.5352,210.7969,284.5352,222.7969,235.0137,222.7969,223.0137,210.7969,235.0137,198.7969" style="stroke:#181818;stroke-width:0.5;"/><text fill="#000000" font-family="sans-serif" font-size="11" lengthAdjust="spacing" textLength="40.353" x="263.7744" y="234.2158">Tambah</text><text fill="#000000" font-family="sans-serif" font-size="11" lengthAdjust="spacing" textLength="49.5215" x="235.0137" y="215.2979">Pilih aksi?</text><rect fill="none" height="895.7344" style="stroke:#000000;stroke-width:1.5;" width="496.207" x="11" y="256.6328"/><path d="M171.2334,256.6328 L171.2334,267.2422 L161.2334,277.2422 L11,277.2422 " fill="none" style="stroke:#000000;stroke-width:1.5;"/><text fill="#000000" font-family="sans-serif" font-size="14" lengthAdjust="spacing" textLength="150.2334" x="14" y="272.166">Undang Pengguna Baru</text><rect fill="#F1F1F1" height="35.0938" rx="12.5" ry="12.5" style="stroke:#181818;stroke-width:0.5;" width="188.7383" x="165.4053" y="294.2422"/><text fill="#000000" font-family="sans-serif" font-size="12" lengthAdjust="spacing" textLength="168.7383" x="175.4053" y="316.6992">Tampilkan form tambah pekerja</text><rect fill="#F1F1F1" height="35.0938" rx="12.5" ry="12.5" style="stroke:#181818;stroke-width:0.5;" width="132.0488" x="193.75" y="364.3359"/><text fill="#000000" font-family="sans-serif" font-size="12" lengthAdjust="spacing" textLength="112.0488" x="203.75" y="386.793">Admin mengisi nama</text><rect fill="#F1F1F1" height="35.0938" rx="12.5" ry="12.5" style="stroke:#181818;stroke-width:0.5;" width="130.707" x="194.4209" y="434.4297"/><text fill="#000000" font-family="sans-serif" font-size="12" lengthAdjust="spacing" textLength="110.707" x="204.4209" y="456.8867">Admin mengisi email</text><rect fill="#F1F1F1" height="35.0938" rx="12.5" ry="12.5" style="stroke:#181818;stroke-width:0.5;" width="108.0371" x="205.7559" y="504.5234"/><text fill="#000000" font-family="sans-serif" font-size="12" lengthAdjust="spacing" textLength="88.0371" x="215.7559" y="526.9805">Pilih peran (role)</text><rect fill="#F1F1F1" height="35.0938" rx="12.5" ry="12.5" style="stroke:#181818;stroke-width:0.5;" width="115.373" x="202.0879" y="574.6172"/><text fill="#000000" font-family="sans-serif" font-size="12" lengthAdjust="spacing" textLength="95.373" x="212.0879" y="597.0742">Pilih jenis kelamin</text><polygon fill="#F1F1F1" points="211.166,644.7109,308.3828,644.7109,320.3828,656.7109,308.3828,668.7109,211.166,668.7109,199.166,656.7109,211.166,644.7109" style="stroke:#181818;stroke-width:0.5;"/><text fill="#000000" font-family="sans-serif" font-size="11" lengthAdjust="spacing" textLength="97.2168" x="211.166" y="661.2119">Validasi email unik?</text><text fill="#000000" font-family="sans-serif" font-size="11" lengthAdjust="spacing" textLength="39.7407" x="159.4253" y="654.2939">Duplikat</text><text fill="#000000" font-family="sans-serif" font-size="11" lengthAdjust="spacing" textLength="22.0054" x="320.3828" y="654.2939">Unik</text><rect fill="#F1F1F1" height="35.0938" rx="12.5" ry="12.5" style="stroke:#181818;stroke-width:0.5;" width="227.4453" x="23" y="678.7109"/><text fill="#000000" font-family="sans-serif" font-size="12" lengthAdjust="spacing" textLength="207.4453" x="33" y="701.168">Tampilkan pesan email sudah terdaftar</text><ellipse cx="136.7227" cy="759.8047" fill="none" rx="11" ry="11" style="stroke:#222222;stroke-width:1.0;"/><ellipse cx="136.7227" cy="759.8047" fill="#222222" rx="6" ry="6" style="stroke:#222222;stroke-width:1.0;"/><rect fill="#F1F1F1" height="35.0938" rx="12.5" ry="12.5" style="stroke:#181818;stroke-width:0.5;" width="102.6992" x="331.4766" y="678.7109"/><text fill="#000000" font-family="sans-serif" font-size="12" lengthAdjust="spacing" textLength="82.6992" x="341.4766" y="701.168">Generate UUID</text><rect fill="#F1F1F1" height="35.0938" rx="12.5" ry="12.5" style="stroke:#181818;stroke-width:0.5;" width="114.0547" x="325.7988" y="748.8047"/><text fill="#000000" font-family="sans-serif" font-size="12" lengthAdjust="spacing" textLength="94.0547" x="335.7988" y="771.2617">Simpan data user</text><rect fill="#F1F1F1" height="35.0938" rx="12.5" ry="12.5" style="stroke:#181818;stroke-width:0.5;" width="105.7109" x="329.9707" y="818.8984"/><text fill="#000000" font-family="sans-serif" font-size="12" lengthAdjust="spacing" textLength="85.7109" x="339.9707" y="841.3555">is_active = false</text><rect fill="#F1F1F1" height="35.0938" rx="12.5" ry="12.5" style="stroke:#181818;stroke-width:0.5;" width="153.418" x="306.1172" y="888.9922"/><text fill="#000000" font-family="sans-serif" font-size="12" lengthAdjust="spacing" textLength="133.418" x="316.1172" y="911.4492">Generate invitation token</text><rect fill="#F1F1F1" height="35.0938" rx="12.5" ry="12.5" style="stroke:#181818;stroke-width:0.5;" width="136.0625" x="314.7949" y="959.0859"/><text fill="#000000" font-family="sans-serif" font-size="12" lengthAdjust="spacing" textLength="116.0625" x="324.7949" y="981.543">Kirim email undangan</text><rect fill="#F1F1F1" height="35.0938" rx="12.5" ry="12.5" style="stroke:#181818;stroke-width:0.5;" width="149.0879" x="308.2822" y="1029.1797"/><text fill="#000000" font-family="sans-serif" font-size="12" lengthAdjust="spacing" textLength="129.0879" x="318.2822" y="1051.6367">invitation_sent_at = now</text><rect fill="#F1F1F1" height="35.0938" rx="12.5" ry="12.5" style="stroke:#181818;stroke-width:0.5;" width="224.7617" x="270.4453" y="1099.2734"/><text fill="#000000" font-family="sans-serif" font-size="12" lengthAdjust="spacing" textLength="204.7617" x="280.4453" y="1121.7305">Tampilkan notifikasi undangan terkirim</text><polygon fill="#F1F1F1" points="963.4353,198.7969,1077.759,198.7969,1089.759,210.7969,1077.759,222.7969,963.4353,222.7969,951.4353,210.7969,963.4353,198.7969" style="stroke:#181818;stroke-width:0.5;"/><text fill="#000000" font-family="sans-serif" font-size="11" lengthAdjust="spacing" textLength="114.3237" x="963.4353" y="215.2979">Aktivasi oleh User Baru</text><rect fill="none" height="907.5469" style="stroke:#000000;stroke-width:1.5;" width="797.6406" x="517.207" y="242.7969"/><path d="M611.2412,242.7969 L611.2412,253.4063 L601.2412,263.4063 L517.207,263.4063 " fill="none" style="stroke:#000000;stroke-width:1.5;"/><text fill="#000000" font-family="sans-serif" font-size="14" lengthAdjust="spacing" textLength="84.0342" x="520.207" y="258.3301">Aktivasi Akun</text><rect fill="#F1F1F1" height="35.0938" rx="12.5" ry="12.5" style="stroke:#181818;stroke-width:0.5;" width="202.0742" x="919.5601" y="280.4063"/><text fill="#000000" font-family="sans-serif" font-size="12" lengthAdjust="spacing" textLength="182.0742" x="929.5601" y="302.8633">User baru mengakses link aktivasi</text><polygon fill="#F1F1F1" points="989.4126,350.5,1051.7817,350.5,1063.7817,362.5,1051.7817,374.5,989.4126,374.5,977.4126,362.5,989.4126,350.5" style="stroke:#181818;stroke-width:0.5;"/><text fill="#000000" font-family="sans-serif" font-size="11" lengthAdjust="spacing" textLength="62.3691" x="989.4126" y="367.001">Token valid?</text><text fill="#000000" font-family="sans-serif" font-size="11" lengthAdjust="spacing" textLength="13.4546" x="963.958" y="360.083">Ya</text><text fill="#000000" font-family="sans-serif" font-size="11" lengthAdjust="spacing" textLength="26.8984" x="1063.7817" y="360.083">Tidak</text><polygon fill="#F1F1F1" points="765.3613,384.5,912.0996,384.5,924.0996,396.5,912.0996,408.5,765.3613,408.5,753.3613,396.5,765.3613,384.5" style="stroke:#181818;stroke-width:0.5;"/><text fill="#000000" font-family="sans-serif" font-size="11" lengthAdjust="spacing" textLength="146.7383" x="765.3613" y="401.001">Token belum expired (7 hari)?</text><text fill="#000000" font-family="sans-serif" font-size="11" lengthAdjust="spacing" textLength="13.4546" x="739.9067" y="394.083">Ya</text><text fill="#000000" font-family="sans-serif" font-size="11" lengthAdjust="spacing" textLength="26.8984" x="924.0996" y="394.083">Tidak</text><rect fill="#F1F1F1" height="35.0938" rx="12.5" ry="12.5" style="stroke:#181818;stroke-width:0.5;" width="168.0664" x="614.7295" y="418.5"/><text fill="#000000" font-family="sans-serif" font-size="12" lengthAdjust="spacing" textLength="148.0664" x="624.7295" y="440.957">Tampilkan halaman aktivasi</text><rect fill="#F1F1F1" height="35.0938" rx="12.5" ry="12.5" style="stroke:#181818;stroke-width:0.5;" width="172.0625" x="612.7314" y="488.5938"/><text fill="#000000" font-family="sans-serif" font-size="12" lengthAdjust="spacing" textLength="152.0625" x="622.7314" y="511.0508">User mengisi password baru</text><rect fill="#F1F1F1" height="35.0938" rx="12.5" ry="12.5" style="stroke:#181818;stroke-width:0.5;" width="158.041" x="619.7422" y="558.6875"/><text fill="#000000" font-family="sans-serif" font-size="12" lengthAdjust="spacing" textLength="138.041" x="629.7422" y="581.1445">User konfirmasi password</text><polygon fill="#F1F1F1" points="658.7158,628.7813,738.8096,628.7813,750.8096,640.7813,738.8096,652.7813,658.7158,652.7813,646.7158,640.7813,658.7158,628.7813" style="stroke:#181818;stroke-width:0.5;"/><text fill="#000000" font-family="sans-serif" font-size="11" lengthAdjust="spacing" textLength="80.0938" x="658.7158" y="645.2822">Password valid?</text><text fill="#000000" font-family="sans-serif" font-size="11" lengthAdjust="spacing" textLength="13.4546" x="633.2612" y="638.3643">Ya</text><text fill="#000000" font-family="sans-serif" font-size="11" lengthAdjust="spacing" textLength="26.8984" x="750.8096" y="638.3643">Tidak</text><rect fill="#F1F1F1" height="35.0938" rx="12.5" ry="12.5" style="stroke:#181818;stroke-width:0.5;" width="102.7051" x="560.8828" y="662.7813"/><text fill="#000000" font-family="sans-serif" font-size="12" lengthAdjust="spacing" textLength="82.7051" x="570.8828" y="685.2383">Hash password</text><rect fill="#F1F1F1" height="35.0938" rx="12.5" ry="12.5" style="stroke:#181818;stroke-width:0.5;" width="101.041" x="561.7148" y="732.875"/><text fill="#000000" font-family="sans-serif" font-size="12" lengthAdjust="spacing" textLength="81.041" x="571.7148" y="755.332">is_active = true</text><rect fill="#F1F1F1" height="35.0938" rx="12.5" ry="12.5" style="stroke:#181818;stroke-width:0.5;" width="120.4004" x="552.0352" y="802.9688"/><text fill="#000000" font-family="sans-serif" font-size="12" lengthAdjust="spacing" textLength="100.4004" x="562.0352" y="825.4258">activated_at = now</text><rect fill="#F1F1F1" height="35.0938" rx="12.5" ry="12.5" style="stroke:#181818;stroke-width:0.5;" width="141.4121" x="541.5293" y="873.0625"/><text fill="#000000" font-family="sans-serif" font-size="12" lengthAdjust="spacing" textLength="121.4121" x="551.5293" y="895.5195">Hapus invitation_token</text><rect fill="#F1F1F1" height="35.0938" rx="12.5" ry="12.5" style="stroke:#181818;stroke-width:0.5;" width="166.0566" x="529.207" y="943.1563"/><text fill="#000000" font-family="sans-serif" font-size="12" lengthAdjust="spacing" textLength="146.0566" x="539.207" y="965.6133">Tampilkan notifikasi sukses</text><rect fill="#F1F1F1" height="35.0938" rx="12.5" ry="12.5" style="stroke:#181818;stroke-width:0.5;" width="158.7441" x="532.8633" y="1013.25"/><text fill="#000000" font-family="sans-serif" font-size="12" lengthAdjust="spacing" textLength="138.7441" x="542.8633" y="1035.707">Redirect ke halaman login</text><rect fill="#F1F1F1" height="35.0938" rx="12.5" ry="12.5" style="stroke:#181818;stroke-width:0.5;" width="140.0527" x="715.2637" y="662.7813"/><text fill="#000000" font-family="sans-serif" font-size="12" lengthAdjust="spacing" textLength="120.0527" x="725.2637" y="685.2383">Tampilkan pesan error</text><polygon fill="#F1F1F1" points="698.7627,1054.3438,710.7627,1066.3438,698.7627,1078.3438,686.7627,1066.3438,698.7627,1054.3438" style="stroke:#181818;stroke-width:0.5;"/><rect fill="#F1F1F1" height="35.0938" rx="12.5" ry="12.5" style="stroke:#181818;stroke-width:0.5;" width="186.7637" x="885.3164" y="418.5"/><text fill="#000000" font-family="sans-serif" font-size="12" lengthAdjust="spacing" textLength="166.7637" x="895.3164" y="440.957">Tampilkan pesan token expired</text><polygon fill="#F1F1F1" points="838.7305,1084.3438,850.7305,1096.3438,838.7305,1108.3438,826.7305,1096.3438,838.7305,1084.3438" style="stroke:#181818;stroke-width:0.5;"/><rect fill="#F1F1F1" height="35.0938" rx="12.5" ry="12.5" style="stroke:#181818;stroke-width:0.5;" width="200.7676" x="1102.0801" y="384.5"/><text fill="#000000" font-family="sans-serif" font-size="12" lengthAdjust="spacing" textLength="180.7676" x="1112.0801" y="406.957">Tampilkan pesan token tidak valid</text><polygon fill="#F1F1F1" points="1020.5972,1114.3438,1032.5972,1126.3438,1020.5972,1138.3438,1008.5972,1126.3438,1020.5972,1114.3438" style="stroke:#181818;stroke-width:0.5;"/><polygon fill="#F1F1F1" points="1373.9387,198.7969,1441.8132,198.7969,1453.8132,210.7969,1441.8132,222.7969,1373.9387,222.7969,1361.9387,210.7969,1373.9387,198.7969" style="stroke:#181818;stroke-width:0.5;"/><text fill="#000000" font-family="sans-serif" font-size="11" lengthAdjust="spacing" textLength="67.8745" x="1373.9387" y="215.2979">Toggle Status</text><rect fill="#F1F1F1" height="35.0938" rx="12.5" ry="12.5" style="stroke:#181818;stroke-width:0.5;" width="162.4063" x="1326.6729" y="242.7969"/><text fill="#000000" font-family="sans-serif" font-size="12" lengthAdjust="spacing" textLength="142.4063" x="1336.6729" y="265.2539">Ubah is_active = !is_active</text><rect fill="#F1F1F1" height="35.0938" rx="12.5" ry="12.5" style="stroke:#181818;stroke-width:0.5;" width="121.4082" x="1347.1719" y="312.8906"/><text fill="#000000" font-family="sans-serif" font-size="12" lengthAdjust="spacing" textLength="101.4082" x="1357.1719" y="335.3477">Simpan perubahan</text><rect fill="#F1F1F1" height="35.0938" rx="12.5" ry="12.5" style="stroke:#181818;stroke-width:0.5;" width="114.7109" x="1350.5205" y="382.9844"/><text fill="#000000" font-family="sans-serif" font-size="12" lengthAdjust="spacing" textLength="94.7109" x="1360.5205" y="405.4414">Catat log aktivitas</text><rect fill="#F1F1F1" height="35.0938" rx="12.5" ry="12.5" style="stroke:#181818;stroke-width:0.5;" width="166.0566" x="1324.8477" y="453.0781"/><text fill="#000000" font-family="sans-serif" font-size="12" lengthAdjust="spacing" textLength="146.0566" x="1334.8477" y="475.5352">Tampilkan notifikasi sukses</text><polygon fill="#F1F1F1" points="1581.1169,198.7969,1644.1038,198.7969,1656.1038,210.7969,1644.1038,222.7969,1581.1169,222.7969,1569.1169,210.7969,1581.1169,198.7969" style="stroke:#181818;stroke-width:0.5;"/><text fill="#000000" font-family="sans-serif" font-size="11" lengthAdjust="spacing" textLength="62.9868" x="1581.1169" y="215.2979">Kelola Peran</text><text fill="#000000" font-family="sans-serif" font-size="11" lengthAdjust="spacing" textLength="25.0723" x="1656.1038" y="208.3799">Batal</text><rect fill="none" height="611.1016" style="stroke:#000000;stroke-width:1.5;" width="229.4121" x="1500.9043" y="242.7969"/><path d="M1668.8623,242.7969 L1668.8623,253.4063 L1658.8623,263.4063 L1500.9043,263.4063 " fill="none" style="stroke:#000000;stroke-width:1.5;"/><text fill="#000000" font-family="sans-serif" font-size="14" lengthAdjust="spacing" textLength="157.958" x="1503.9043" y="258.3301">Kelola Role &amp; Permission</text><rect fill="#F1F1F1" height="35.0938" rx="12.5" ry="12.5" style="stroke:#181818;stroke-width:0.5;" width="202.1035" x="1511.5586" y="280.4063"/><text fill="#000000" font-family="sans-serif" font-size="12" lengthAdjust="spacing" textLength="182.1035" x="1521.5586" y="302.8633">Admin mengakses halaman peran</text><rect fill="#F1F1F1" height="35.0938" rx="12.5" ry="12.5" style="stroke:#181818;stroke-width:0.5;" width="188.7383" x="1518.2412" y="350.5"/><text fill="#000000" font-family="sans-serif" font-size="12" lengthAdjust="spacing" textLength="168.7383" x="1528.2412" y="372.957">Sistem menampilkan daftar role</text><rect fill="#F1F1F1" height="35.0938" rx="12.5" ry="12.5" style="stroke:#181818;stroke-width:0.5;" width="131.3867" x="1546.917" y="469.5117"/><text fill="#000000" font-family="sans-serif" font-size="12" lengthAdjust="spacing" textLength="111.3867" x="1556.917" y="491.9688">Masukkan nama role</text><rect fill="#F1F1F1" height="35.0938" rx="12.5" ry="12.5" style="stroke:#181818;stroke-width:0.5;" width="130.0215" x="1547.5996" y="539.6055"/><text fill="#000000" font-family="sans-serif" font-size="12" lengthAdjust="spacing" textLength="110.0215" x="1557.5996" y="562.0625">Atur maksimum user</text><rect fill="#F1F1F1" height="35.0938" rx="12.5" ry="12.5" style="stroke:#181818;stroke-width:0.5;" width="183.4121" x="1520.9043" y="609.6992"/><text fill="#000000" font-family="sans-serif" font-size="12" lengthAdjust="spacing" textLength="163.4121" x="1530.9043" y="632.1563">Pilih permission yang diizinkan</text><rect fill="#F1F1F1" height="35.0938" rx="12.5" ry="12.5" style="stroke:#181818;stroke-width:0.5;" width="84.0313" x="1570.5947" y="679.793"/><text fill="#000000" font-family="sans-serif" font-size="12" lengthAdjust="spacing" textLength="64.0313" x="1580.5947" y="702.25">Simpan role</text><rect fill="#F1F1F1" height="35.0938" rx="12.5" ry="12.5" style="stroke:#181818;stroke-width:0.5;" width="114.7109" x="1555.2549" y="749.8867"/><text fill="#000000" font-family="sans-serif" font-size="12" lengthAdjust="spacing" textLength="94.7109" x="1565.2549" y="772.3438">Catat log aktivitas</text><polygon fill="#F1F1F1" points="1565.53,420.5938,1659.6907,420.5938,1671.6907,432.5938,1659.6907,444.5938,1565.53,444.5938,1553.53,432.5938,1565.53,420.5938" style="stroke:#181818;stroke-width:0.5;"/><text fill="#000000" font-family="sans-serif" font-size="11" lengthAdjust="spacing" textLength="13.4546" x="1616.6104" y="456.0127">Ya</text><text fill="#000000" font-family="sans-serif" font-size="11" lengthAdjust="spacing" textLength="94.1606" x="1565.53" y="437.0947">Tambah/Edit Role?</text><text fill="#000000" font-family="sans-serif" font-size="11" lengthAdjust="spacing" textLength="26.8984" x="1671.6907" y="430.1768">Tidak</text><polygon fill="#F1F1F1" points="1612.6104,809.8984,1624.6104,821.8984,1612.6104,833.8984,1600.6104,821.8984,1612.6104,809.8984" style="stroke:#181818;stroke-width:0.5;"/><rect fill="#F1F1F1" height="35.0938" rx="12.5" ry="12.5" style="stroke:#181818;stroke-width:0.5;" width="152.7617" x="809.2773" y="1192.3672"/><text fill="#000000" font-family="sans-serif" font-size="12" lengthAdjust="spacing" textLength="132.7617" x="819.2773" y="1214.8242">Refresh daftar pengguna</text><ellipse cx="885.6582" cy="1258.4609" fill="none" rx="11" ry="11" style="stroke:#222222;stroke-width:1.0;"/><ellipse cx="885.6582" cy="1258.4609" fill="#222222" rx="6" ry="6" style="stroke:#222222;stroke-width:1.0;"/><line style="stroke:#181818;stroke-width:1.0;" x1="885.6582" x2="885.6582" y1="68.6094" y2="88.6094"/><polygon fill="#181818" points="881.6582,78.6094,885.6582,88.6094,889.6582,78.6094,885.6582,82.6094" style="stroke:#181818;stroke-width:1.0;"/><line style="stroke:#181818;stroke-width:1.0;" x1="885.6582" x2="885.6582" y1="123.7031" y2="143.7031"/><polygon fill="#181818" points="881.6582,133.7031,885.6582,143.7031,889.6582,133.7031,885.6582,137.7031" style="stroke:#181818;stroke-width:1.0;"/><line style="stroke:#181818;stroke-width:1.0;" x1="259.7744" x2="259.7744" y1="329.3359" y2="364.3359"/><polygon fill="#181818" points="255.7744,354.3359,259.7744,364.3359,263.7744,354.3359,259.7744,358.3359" style="stroke:#181818;stroke-width:1.0;"/><line style="stroke:#181818;stroke-width:1.0;" x1="259.7744" x2="259.7744" y1="399.4297" y2="434.4297"/><polygon fill="#181818" points="255.7744,424.4297,259.7744,434.4297,263.7744,424.4297,259.7744,428.4297" style="stroke:#181818;stroke-width:1.0;"/><line style="stroke:#181818;stroke-width:1.0;" x1="259.7744" x2="259.7744" y1="469.5234" y2="504.5234"/><polygon fill="#181818" points="255.7744,494.5234,259.7744,504.5234,263.7744,494.5234,259.7744,498.5234" style="stroke:#181818;stroke-width:1.0;"/><line style="stroke:#181818;stroke-width:1.0;" x1="259.7744" x2="259.7744" y1="539.6172" y2="574.6172"/><polygon fill="#181818" points="255.7744,564.6172,259.7744,574.6172,263.7744,564.6172,259.7744,568.6172" style="stroke:#181818;stroke-width:1.0;"/><line style="stroke:#181818;stroke-width:1.0;" x1="136.7227" x2="136.7227" y1="713.8047" y2="748.8047"/><polygon fill="#181818" points="132.7227,738.8047,136.7227,748.8047,140.7227,738.8047,136.7227,742.8047" style="stroke:#181818;stroke-width:1.0;"/><line style="stroke:#181818;stroke-width:1.0;" x1="382.8262" x2="382.8262" y1="713.8047" y2="748.8047"/><polygon fill="#181818" points="378.8262,738.8047,382.8262,748.8047,386.8262,738.8047,382.8262,742.8047" style="stroke:#181818;stroke-width:1.0;"/><line style="stroke:#181818;stroke-width:1.0;" x1="382.8262" x2="382.8262" y1="783.8984" y2="818.8984"/><polygon fill="#181818" points="378.8262,808.8984,382.8262,818.8984,386.8262,808.8984,382.8262,812.8984" style="stroke:#181818;stroke-width:1.0;"/><line style="stroke:#181818;stroke-width:1.0;" x1="382.8262" x2="382.8262" y1="853.9922" y2="888.9922"/><polygon fill="#181818" points="378.8262,878.9922,382.8262,888.9922,386.8262,878.9922,382.8262,882.9922" style="stroke:#181818;stroke-width:1.0;"/><line style="stroke:#181818;stroke-width:1.0;" x1="382.8262" x2="382.8262" y1="924.0859" y2="959.0859"/><polygon fill="#181818" points="378.8262,949.0859,382.8262,959.0859,386.8262,949.0859,382.8262,953.0859" style="stroke:#181818;stroke-width:1.0;"/><line style="stroke:#181818;stroke-width:1.0;" x1="382.8262" x2="382.8262" y1="994.1797" y2="1029.1797"/><polygon fill="#181818" points="378.8262,1019.1797,382.8262,1029.1797,386.8262,1019.1797,382.8262,1023.1797" style="stroke:#181818;stroke-width:1.0;"/><line style="stroke:#181818;stroke-width:1.0;" x1="382.8262" x2="382.8262" y1="1064.2734" y2="1099.2734"/><polygon fill="#181818" points="378.8262,1089.2734,382.8262,1099.2734,386.8262,1089.2734,382.8262,1093.2734" style="stroke:#181818;stroke-width:1.0;"/><line style="stroke:#181818;stroke-width:1.0;" x1="199.166" x2="136.7227" y1="656.7109" y2="656.7109"/><line style="stroke:#181818;stroke-width:1.0;" x1="136.7227" x2="136.7227" y1="656.7109" y2="678.7109"/><polygon fill="#181818" points="132.7227,668.7109,136.7227,678.7109,140.7227,668.7109,136.7227,672.7109" style="stroke:#181818;stroke-width:1.0;"/><line style="stroke:#181818;stroke-width:1.0;" x1="320.3828" x2="382.8262" y1="656.7109" y2="656.7109"/><line style="stroke:#181818;stroke-width:1.0;" x1="382.8262" x2="382.8262" y1="656.7109" y2="678.7109"/><polygon fill="#181818" points="378.8262,668.7109,382.8262,678.7109,386.8262,668.7109,382.8262,672.7109" style="stroke:#181818;stroke-width:1.0;"/><line style="stroke:#181818;stroke-width:1.0;" x1="382.8262" x2="382.8262" y1="1134.3672" y2="1140.3672"/><line style="stroke:#181818;stroke-width:1.0;" x1="382.8262" x2="259.7744" y1="1140.3672" y2="1140.3672"/><line style="stroke:#181818;stroke-width:1.0;" x1="259.7744" x2="259.7744" y1="1140.3672" y2="1172.3672"/><polygon fill="#181818" points="255.7744,1162.3672,259.7744,1172.3672,263.7744,1162.3672,259.7744,1166.3672" style="stroke:#181818;stroke-width:1.0;"/><line style="stroke:#181818;stroke-width:1.0;" x1="259.7744" x2="259.7744" y1="609.7109" y2="644.7109"/><polygon fill="#181818" points="255.7744,634.7109,259.7744,644.7109,263.7744,634.7109,259.7744,638.7109" style="stroke:#181818;stroke-width:1.0;"/><line style="stroke:#181818;stroke-width:1.0;" x1="698.7627" x2="698.7627" y1="453.5938" y2="488.5938"/><polygon fill="#181818" points="694.7627,478.5938,698.7627,488.5938,702.7627,478.5938,698.7627,482.5938" style="stroke:#181818;stroke-width:1.0;"/><line style="stroke:#181818;stroke-width:1.0;" x1="698.7627" x2="698.7627" y1="523.6875" y2="558.6875"/><polygon fill="#181818" points="694.7627,548.6875,698.7627,558.6875,702.7627,548.6875,698.7627,552.6875" style="stroke:#181818;stroke-width:1.0;"/><line style="stroke:#181818;stroke-width:1.0;" x1="612.2354" x2="612.2354" y1="697.875" y2="732.875"/><polygon fill="#181818" points="608.2354,722.875,612.2354,732.875,616.2354,722.875,612.2354,726.875" style="stroke:#181818;stroke-width:1.0;"/><line style="stroke:#181818;stroke-width:1.0;" x1="612.2354" x2="612.2354" y1="767.9688" y2="802.9688"/><polygon fill="#181818" points="608.2354,792.9688,612.2354,802.9688,616.2354,792.9688,612.2354,796.9688" style="stroke:#181818;stroke-width:1.0;"/><line style="stroke:#181818;stroke-width:1.0;" x1="612.2354" x2="612.2354" y1="838.0625" y2="873.0625"/><polygon fill="#181818" points="608.2354,863.0625,612.2354,873.0625,616.2354,863.0625,612.2354,867.0625" style="stroke:#181818;stroke-width:1.0;"/><line style="stroke:#181818;stroke-width:1.0;" x1="612.2354" x2="612.2354" y1="908.1563" y2="943.1563"/><polygon fill="#181818" points="608.2354,933.1563,612.2354,943.1563,616.2354,933.1563,612.2354,937.1563" style="stroke:#181818;stroke-width:1.0;"/><line style="stroke:#181818;stroke-width:1.0;" x1="612.2354" x2="612.2354" y1="978.25" y2="1013.25"/><polygon fill="#181818" points="608.2354,1003.25,612.2354,1013.25,616.2354,1003.25,612.2354,1007.25" style="stroke:#181818;stroke-width:1.0;"/><line style="stroke:#181818;stroke-width:1.0;" x1="646.7158" x2="612.2354" y1="640.7813" y2="640.7813"/><line style="stroke:#181818;stroke-width:1.0;" x1="612.2354" x2="612.2354" y1="640.7813" y2="662.7813"/><polygon fill="#181818" points="608.2354,652.7813,612.2354,662.7813,616.2354,652.7813,612.2354,656.7813" style="stroke:#181818;stroke-width:1.0;"/><line style="stroke:#181818;stroke-width:1.0;" x1="750.8096" x2="785.29" y1="640.7813" y2="640.7813"/><line style="stroke:#181818;stroke-width:1.0;" x1="785.29" x2="785.29" y1="640.7813" y2="662.7813"/><polygon fill="#181818" points="781.29,652.7813,785.29,662.7813,789.29,652.7813,785.29,656.7813" style="stroke:#181818;stroke-width:1.0;"/><line style="stroke:#181818;stroke-width:1.0;" x1="612.2354" x2="612.2354" y1="1048.3438" y2="1066.3438"/><line style="stroke:#181818;stroke-width:1.0;" x1="612.2354" x2="686.7627" y1="1066.3438" y2="1066.3438"/><polygon fill="#181818" points="676.7627,1062.3438,686.7627,1066.3438,676.7627,1070.3438,680.7627,1066.3438" style="stroke:#181818;stroke-width:1.0;"/><line style="stroke:#181818;stroke-width:1.0;" x1="785.29" x2="785.29" y1="697.875" y2="1066.3438"/><line style="stroke:#181818;stroke-width:1.0;" x1="785.29" x2="710.7627" y1="1066.3438" y2="1066.3438"/><polygon fill="#181818" points="720.7627,1062.3438,710.7627,1066.3438,720.7627,1070.3438,716.7627,1066.3438" style="stroke:#181818;stroke-width:1.0;"/><line style="stroke:#181818;stroke-width:1.0;" x1="698.7627" x2="698.7627" y1="593.7813" y2="628.7813"/><polygon fill="#181818" points="694.7627,618.7813,698.7627,628.7813,702.7627,618.7813,698.7627,622.7813" style="stroke:#181818;stroke-width:1.0;"/><line style="stroke:#181818;stroke-width:1.0;" x1="753.3613" x2="698.7627" y1="396.5" y2="396.5"/><line style="stroke:#181818;stroke-width:1.0;" x1="698.7627" x2="698.7627" y1="396.5" y2="418.5"/><polygon fill="#181818" points="694.7627,408.5,698.7627,418.5,702.7627,408.5,698.7627,412.5" style="stroke:#181818;stroke-width:1.0;"/><line style="stroke:#181818;stroke-width:1.0;" x1="924.0996" x2="978.6982" y1="396.5" y2="396.5"/><line style="stroke:#181818;stroke-width:1.0;" x1="978.6982" x2="978.6982" y1="396.5" y2="418.5"/><polygon fill="#181818" points="974.6982,408.5,978.6982,418.5,982.6982,408.5,978.6982,412.5" style="stroke:#181818;stroke-width:1.0;"/><line style="stroke:#181818;stroke-width:1.0;" x1="698.7627" x2="698.7627" y1="1078.3438" y2="1096.3438"/><line style="stroke:#181818;stroke-width:1.0;" x1="698.7627" x2="826.7305" y1="1096.3438" y2="1096.3438"/><polygon fill="#181818" points="816.7305,1092.3438,826.7305,1096.3438,816.7305,1100.3438,820.7305,1096.3438" style="stroke:#181818;stroke-width:1.0;"/><line style="stroke:#181818;stroke-width:1.0;" x1="978.6982" x2="978.6982" y1="453.5938" y2="1096.3438"/><line style="stroke:#181818;stroke-width:1.0;" x1="978.6982" x2="850.7305" y1="1096.3438" y2="1096.3438"/><polygon fill="#181818" points="860.7305,1092.3438,850.7305,1096.3438,860.7305,1100.3438,856.7305,1096.3438" style="stroke:#181818;stroke-width:1.0;"/><line style="stroke:#181818;stroke-width:1.0;" x1="977.4126" x2="838.7305" y1="362.5" y2="362.5"/><line style="stroke:#181818;stroke-width:1.0;" x1="838.7305" x2="838.7305" y1="362.5" y2="384.5"/><polygon fill="#181818" points="834.7305,374.5,838.7305,384.5,842.7305,374.5,838.7305,378.5" style="stroke:#181818;stroke-width:1.0;"/><line style="stroke:#181818;stroke-width:1.0;" x1="1063.7817" x2="1202.4639" y1="362.5" y2="362.5"/><line style="stroke:#181818;stroke-width:1.0;" x1="1202.4639" x2="1202.4639" y1="362.5" y2="384.5"/><polygon fill="#181818" points="1198.4639,374.5,1202.4639,384.5,1206.4639,374.5,1202.4639,378.5" style="stroke:#181818;stroke-width:1.0;"/><line style="stroke:#181818;stroke-width:1.0;" x1="838.7305" x2="838.7305" y1="1108.3438" y2="1126.3438"/><line style="stroke:#181818;stroke-width:1.0;" x1="838.7305" x2="1008.5972" y1="1126.3438" y2="1126.3438"/><polygon fill="#181818" points="998.5972,1122.3438,1008.5972,1126.3438,998.5972,1130.3438,1002.5972,1126.3438" style="stroke:#181818;stroke-width:1.0;"/><line style="stroke:#181818;stroke-width:1.0;" x1="1202.4639" x2="1202.4639" y1="419.5938" y2="1126.3438"/><line style="stroke:#181818;stroke-width:1.0;" x1="1202.4639" x2="1032.5972" y1="1126.3438" y2="1126.3438"/><polygon fill="#181818" points="1042.5972,1122.3438,1032.5972,1126.3438,1042.5972,1130.3438,1038.5972,1126.3438" style="stroke:#181818;stroke-width:1.0;"/><line style="stroke:#181818;stroke-width:1.0;" x1="1020.5972" x2="1020.5972" y1="315.5" y2="350.5"/><polygon fill="#181818" points="1016.5972,340.5,1020.5972,350.5,1024.5972,340.5,1020.5972,344.5" style="stroke:#181818;stroke-width:1.0;"/><line style="stroke:#181818;stroke-width:1.0;" x1="1407.876" x2="1407.876" y1="277.8906" y2="312.8906"/><polygon fill="#181818" points="1403.876,302.8906,1407.876,312.8906,1411.876,302.8906,1407.876,306.8906" style="stroke:#181818;stroke-width:1.0;"/><line style="stroke:#181818;stroke-width:1.0;" x1="1407.876" x2="1407.876" y1="347.9844" y2="382.9844"/><polygon fill="#181818" points="1403.876,372.9844,1407.876,382.9844,1411.876,372.9844,1407.876,376.9844" style="stroke:#181818;stroke-width:1.0;"/><line style="stroke:#181818;stroke-width:1.0;" x1="1407.876" x2="1407.876" y1="418.0781" y2="453.0781"/><polygon fill="#181818" points="1403.876,443.0781,1407.876,453.0781,1411.876,443.0781,1407.876,447.0781" style="stroke:#181818;stroke-width:1.0;"/><line style="stroke:#181818;stroke-width:1.0;" x1="1612.6104" x2="1612.6104" y1="315.5" y2="350.5"/><polygon fill="#181818" points="1608.6104,340.5,1612.6104,350.5,1616.6104,340.5,1612.6104,344.5" style="stroke:#181818;stroke-width:1.0;"/><line style="stroke:#181818;stroke-width:1.0;" x1="1612.6104" x2="1612.6104" y1="504.6055" y2="539.6055"/><polygon fill="#181818" points="1608.6104,529.6055,1612.6104,539.6055,1616.6104,529.6055,1612.6104,533.6055" style="stroke:#181818;stroke-width:1.0;"/><line style="stroke:#181818;stroke-width:1.0;" x1="1612.6104" x2="1612.6104" y1="574.6992" y2="609.6992"/><polygon fill="#181818" points="1608.6104,599.6992,1612.6104,609.6992,1616.6104,599.6992,1612.6104,603.6992" style="stroke:#181818;stroke-width:1.0;"/><line style="stroke:#181818;stroke-width:1.0;" x1="1612.6104" x2="1612.6104" y1="644.793" y2="679.793"/><polygon fill="#181818" points="1608.6104,669.793,1612.6104,679.793,1616.6104,669.793,1612.6104,673.793" style="stroke:#181818;stroke-width:1.0;"/><line style="stroke:#181818;stroke-width:1.0;" x1="1612.6104" x2="1612.6104" y1="714.8867" y2="749.8867"/><polygon fill="#181818" points="1608.6104,739.8867,1612.6104,749.8867,1616.6104,739.8867,1612.6104,743.8867" style="stroke:#181818;stroke-width:1.0;"/><line style="stroke:#181818;stroke-width:1.0;" x1="1612.6104" x2="1612.6104" y1="444.5938" y2="469.5117"/><polygon fill="#181818" points="1608.6104,459.5117,1612.6104,469.5117,1616.6104,459.5117,1612.6104,463.5117" style="stroke:#181818;stroke-width:1.0;"/><line style="stroke:#181818;stroke-width:1.0;" x1="1671.6907" x2="1714.3164" y1="432.5938" y2="432.5938"/><polygon fill="#181818" points="1710.3164,617.2461,1714.3164,627.2461,1718.3164,617.2461,1714.3164,621.2461" style="stroke:#181818;stroke-width:1.0;"/><line style="stroke:#181818;stroke-width:1.0;" x1="1714.3164" x2="1714.3164" y1="432.5938" y2="821.8984"/><line style="stroke:#181818;stroke-width:1.0;" x1="1714.3164" x2="1624.6104" y1="821.8984" y2="821.8984"/><polygon fill="#181818" points="1634.6104,817.8984,1624.6104,821.8984,1634.6104,825.8984,1630.6104,821.8984" style="stroke:#181818;stroke-width:1.0;"/><line style="stroke:#181818;stroke-width:1.0;" x1="1612.6104" x2="1612.6104" y1="784.9805" y2="809.8984"/><polygon fill="#181818" points="1608.6104,799.8984,1612.6104,809.8984,1616.6104,799.8984,1612.6104,803.8984" style="stroke:#181818;stroke-width:1.0;"/><line style="stroke:#181818;stroke-width:1.0;" x1="1612.6104" x2="1612.6104" y1="385.5938" y2="420.5938"/><polygon fill="#181818" points="1608.6104,410.5938,1612.6104,420.5938,1616.6104,410.5938,1612.6104,414.5938" style="stroke:#181818;stroke-width:1.0;"/><line style="stroke:#181818;stroke-width:1.0;" x1="259.7744" x2="259.7744" y1="222.7969" y2="294.2422"/><polygon fill="#181818" points="255.7744,284.2422,259.7744,294.2422,263.7744,284.2422,259.7744,288.2422" style="stroke:#181818;stroke-width:1.0;"/><line style="stroke:#181818;stroke-width:1.0;" x1="1020.5972" x2="1020.5972" y1="222.7969" y2="280.4063"/><polygon fill="#181818" points="1016.5972,270.4063,1020.5972,280.4063,1024.5972,270.4063,1020.5972,274.4063" style="stroke:#181818;stroke-width:1.0;"/><line style="stroke:#181818;stroke-width:1.0;" x1="1020.5972" x2="1020.5972" y1="1138.3438" y2="1172.3672"/><polygon fill="#181818" points="1016.5972,1162.3672,1020.5972,1172.3672,1024.5972,1162.3672,1020.5972,1166.3672" style="stroke:#181818;stroke-width:1.0;"/><line style="stroke:#181818;stroke-width:1.0;" x1="1407.876" x2="1407.876" y1="222.7969" y2="242.7969"/><polygon fill="#181818" points="1403.876,232.7969,1407.876,242.7969,1411.876,232.7969,1407.876,236.7969" style="stroke:#181818;stroke-width:1.0;"/><line style="stroke:#181818;stroke-width:1.0;" x1="1407.876" x2="1407.876" y1="488.1719" y2="1172.3672"/><polygon fill="#181818" points="1403.876,1162.3672,1407.876,1172.3672,1411.876,1162.3672,1407.876,1166.3672" style="stroke:#181818;stroke-width:1.0;"/><line style="stroke:#181818;stroke-width:1.0;" x1="1612.6104" x2="1612.6104" y1="222.7969" y2="280.4063"/><polygon fill="#181818" points="1608.6104,270.4063,1612.6104,280.4063,1616.6104,270.4063,1612.6104,274.4063" style="stroke:#181818;stroke-width:1.0;"/><line style="stroke:#181818;stroke-width:1.0;" x1="1612.6104" x2="1612.6104" y1="833.8984" y2="1172.3672"/><polygon fill="#181818" points="1608.6104,1162.3672,1612.6104,1172.3672,1616.6104,1162.3672,1612.6104,1166.3672" style="stroke:#181818;stroke-width:1.0;"/><line style="stroke:#181818;stroke-width:1.0;" x1="296.5352" x2="951.4353" y1="210.7969" y2="210.7969"/><polygon fill="#181818" points="941.4353,206.7969,951.4353,210.7969,941.4353,214.7969,945.4353,210.7969" style="stroke:#181818;stroke-width:1.0;"/><line style="stroke:#181818;stroke-width:1.0;" x1="1089.759" x2="1361.9387" y1="210.7969" y2="210.7969"/><polygon fill="#181818" points="1351.9387,206.7969,1361.9387,210.7969,1351.9387,214.7969,1355.9387,210.7969" style="stroke:#181818;stroke-width:1.0;"/><line style="stroke:#181818;stroke-width:1.0;" x1="1453.8132" x2="1569.1169" y1="210.7969" y2="210.7969"/><polygon fill="#181818" points="1559.1169,206.7969,1569.1169,210.7969,1559.1169,214.7969,1563.1169,210.7969" style="stroke:#181818;stroke-width:1.0;"/><line style="stroke:#181818;stroke-width:1.0;" x1="885.6582" x2="885.6582" y1="178.7969" y2="183.7969"/><line style="stroke:#181818;stroke-width:1.0;" x1="885.6582" x2="259.7744" y1="183.7969" y2="183.7969"/><line style="stroke:#181818;stroke-width:1.0;" x1="259.7744" x2="259.7744" y1="183.7969" y2="198.7969"/><polygon fill="#181818" points="255.7744,188.7969,259.7744,198.7969,263.7744,188.7969,259.7744,192.7969" style="stroke:#181818;stroke-width:1.0;"/><line style="stroke:#181818;stroke-width:1.0;" x1="1656.1038" x2="1744.3164" y1="210.7969" y2="210.7969"/><line style="stroke:#181818;stroke-width:1.0;" x1="1744.3164" x2="1744.3164" y1="210.7969" y2="1172.3672"/><polygon fill="#181818" points="1740.3164,1162.3672,1744.3164,1172.3672,1748.3164,1162.3672,1744.3164,1166.3672" style="stroke:#181818;stroke-width:1.0;"/><line style="stroke:#181818;stroke-width:1.0;" x1="259.7744" x2="1744.3164" y1="1172.3672" y2="1172.3672"/><line style="stroke:#181818;stroke-width:1.0;" x1="885.6582" x2="885.6582" y1="1172.3672" y2="1192.3672"/><polygon fill="#181818" points="881.6582,1182.3672,885.6582,1192.3672,889.6582,1182.3672,885.6582,1186.3672" style="stroke:#181818;stroke-width:1.0;"/><line style="stroke:#181818;stroke-width:1.0;" x1="885.6582" x2="885.6582" y1="1227.4609" y2="1247.4609"/><polygon fill="#181818" points="881.6582,1237.4609,885.6582,1247.4609,889.6582,1237.4609,885.6582,1241.4609" style="stroke:#181818;stroke-width:1.0;"/><!--SRC=[ZLPDRzim3BtdLt0z3Cbfnm4kXY5jXsqe1XHjCc2dWArbXxKi6vBShXlstqV9iVmLfSqXYAF7Hv5y96t9IW7h1qjFP5_WYZ3NM2PmBMGb4Mw4olD68QIe-46ZMYoCHMqNYsITbgIWP0GMHXZOeyIIORKeX7x4SuRSaR6YT1WiQv85dwQOiJs3Mc96KGRB6vAq1-QXpokmUw5WkS7o7lUh1V37VzNibYnL2iwsYk-JzxUxGDsSmLyFSvza4_nbbIx1Ugx-PW7Nnq26W6yPFnGbaXoSjbUkNKvWgIifLhF3Hw78G24uBwJwq_33HVuJ9QNOyKEZg0Wfk6fgIGNQLR2O15SBmz-jfMbI3j4AtMRuV6HZR5M7FuGq0fPRzZGX_YeKXsC5RBVVhyO4NCgozkMp28qH4_w4p0wTY0HyWWpPmVWyueSKgmvzJMrL23KXlIPDPKYCApbE8Jt3pWXbTsZv0gfwFkM-pv-gB6MSOKv_n-yoM3Y_FODGAMN-wL-hHfT0LxjrmH4xOwx-7hQS5Q_4jdn7XHiiraMZHehrrlTiFUWeIQhWfcXD8lhPkBp1arDHqCql71UsnzqBsN16VzUaHGhBZzoqcbPHmqcwkWwVNsaSHjSoDHhpNEdKnnK35vNAI9SumC-Xip_yqEZeJqSVt7r3ip_XOwPZgniHWNaCApYD26xWisxCGEUx8pgF1XbNgscSG28-RqNAvNsmF7b2oMILqn6txIZOy0GgLg-vFmmRhIjzX2Zqo9kePxG-BPqmn_HZwYXjXD8wPAkGDtJqfifpteTtNAp63FeusRhzCHJ7k_3GqdO3aXT2mzXkK2MNF32jIt_RDIo3GzbUBsouLLZ6l6jE39S3x9Qd4Rntw9ACuPFHd8blRJqShYTMjzjriM7az-o7BobPVureJoO_a2FriRFt2MLxJzlm875l12LFh2CR9-pVGvJmubu9Kg8_F3LdU-9GdIEEeWMAgkseUc1vmKHojMXF5zo5cHOySEOlF7uP_mS0]--></g></svg>