<svg xmlns="http://www.w3.org/2000/svg" xmlns:xlink="http://www.w3.org/1999/xlink" contentStyleType="text/css" height="1624px" preserveAspectRatio="none" style="width:1732px;height:1624px;background:#FFFFFF;" version="1.1" viewBox="0 0 1732 1624" width="1732px" zoomAndPan="magnify"><defs/><g><rect fill="none" height="22.6406" style="stroke:none;stroke-width:1.0;" width="1699.0269" x="15" y="12.4551"/><ellipse cx="668.978" cy="50.0957" fill="#222222" rx="10" ry="10" style="stroke:#222222;stroke-width:1.0;"/><rect fill="#F1F1F1" height="35.0938" rx="12.5" ry="12.5" style="stroke:#181818;stroke-width:0.5;" width="213.4297" x="562.2632" y="80.0957"/><text fill="#000000" font-family="sans-serif" font-size="12" lengthAdjust="spacing" textLength="193.4297" x="572.2632" y="102.5527">Membuka halaman Antrian Produksi</text><rect fill="#F1F1F1" height="35.0938" rx="12.5" ry="12.5" style="stroke:#181818;stroke-width:0.5;" width="141.3945" x="598.2808" y="135.1895"/><text fill="#000000" font-family="sans-serif" font-size="12" lengthAdjust="spacing" textLength="121.3945" x="608.2808" y="157.6465">Melihat daftar produksi</text><polygon fill="#F1F1F1" points="606.2947,190.2832,731.6614,190.2832,743.6614,202.2832,731.6614,214.2832,606.2947,214.2832,594.2947,202.2832,606.2947,190.2832" style="stroke:#181818;stroke-width:0.5;"/><text fill="#000000" font-family="sans-serif" font-size="11" lengthAdjust="spacing" textLength="125.3667" x="606.2947" y="206.7842">Ada produksi menunggu?</text><text fill="#000000" font-family="sans-serif" font-size="11" lengthAdjust="spacing" textLength="13.4546" x="580.8401" y="199.8662">Ya</text><text fill="#000000" font-family="sans-serif" font-size="11" lengthAdjust="spacing" textLength="26.8984" x="743.6614" y="199.8662">Tidak</text><rect fill="#F1F1F1" height="35.0938" rx="12.5" ry="12.5" style="stroke:#181818;stroke-width:0.5;" width="210.0898" x="350.436" y="234.2832"/><text fill="#000000" font-family="sans-serif" font-size="12" lengthAdjust="spacing" textLength="190.0898" x="360.436" y="256.7402">Memilih produksi yang akan dimulai</text><rect fill="#F1F1F1" height="35.0938" rx="12.5" ry="12.5" style="stroke:#181818;stroke-width:0.5;" width="159.3887" x="375.7866" y="289.377"/><text fill="#000000" font-family="sans-serif" font-size="12" lengthAdjust="spacing" textLength="139.3887" x="385.7866" y="311.834">Memeriksa detail produksi</text><rect fill="#F1F1F1" height="35.0938" rx="12.5" ry="12.5" style="stroke:#181818;stroke-width:0.5;" width="172.7363" x="146.8823" y="498.6582"/><text fill="#000000" font-family="sans-serif" font-size="12" lengthAdjust="spacing" textLength="152.7363" x="156.8823" y="521.1152">Memilih pekerja yang terlibat</text><rect fill="#F1F1F1" height="35.0938" rx="12.5" ry="12.5" style="stroke:#181818;stroke-width:0.5;" width="185.3984" x="140.5513" y="553.752"/><text fill="#000000" font-family="sans-serif" font-size="12" lengthAdjust="spacing" textLength="165.3984" x="150.5513" y="576.209">Mengkonfirmasi mulai produksi</text><rect fill="#F1F1F1" height="35.0938" rx="12.5" ry="12.5" style="stroke:#181818;stroke-width:0.5;" width="166.0742" x="150.2134" y="951.1348"/><text fill="#000000" font-family="sans-serif" font-size="12" lengthAdjust="spacing" textLength="146.0742" x="160.2134" y="973.5918">Melakukan proses produksi</text><polygon fill="#F1F1F1" points="190.1448,1006.2285,276.3562,1006.2285,288.3562,1018.2285,276.3562,1030.2285,190.1448,1030.2285,178.1448,1018.2285,190.1448,1006.2285" style="stroke:#181818;stroke-width:0.5;"/><text fill="#000000" font-family="sans-serif" font-size="11" lengthAdjust="spacing" textLength="86.2114" x="190.1448" y="1022.7295">Produksi selesai?</text><text fill="#000000" font-family="sans-serif" font-size="11" lengthAdjust="spacing" textLength="13.4546" x="164.6902" y="1015.8115">Ya</text><text fill="#000000" font-family="sans-serif" font-size="11" lengthAdjust="spacing" textLength="51.9761" x="288.3562" y="1015.8115">Dibatalkan</text><rect fill="#F1F1F1" height="35.0938" rx="12.5" ry="12.5" style="stroke:#181818;stroke-width:0.5;" width="162.084" x="21" y="1050.2285"/><text fill="#000000" font-family="sans-serif" font-size="12" lengthAdjust="spacing" textLength="142.084" x="31" y="1072.6855">Menandai produksi selesai</text><rect fill="#F1F1F1" height="35.0938" rx="12.5" ry="12.5" style="stroke:#181818;stroke-width:0.5;" width="140.7266" x="294.0957" y="1050.2285"/><text fill="#000000" font-family="sans-serif" font-size="12" lengthAdjust="spacing" textLength="120.7266" x="304.0957" y="1072.6855">Membatalkan produksi</text><polygon fill="#F1F1F1" points="233.2505,1478.709,245.2505,1490.709,233.2505,1502.709,221.2505,1490.709,233.2505,1478.709" style="stroke:#181818;stroke-width:0.5;"/><rect fill="#F1F1F1" height="35.0938" rx="12.5" ry="12.5" style="stroke:#181818;stroke-width:0.5;" width="118.7305" x="618.3462" y="553.752"/><text fill="#000000" font-family="sans-serif" font-size="12" lengthAdjust="spacing" textLength="98.7305" x="628.3462" y="576.209">Menunda produksi</text><rect fill="#F1F1F1" height="35.0938" rx="12.5" ry="12.5" style="stroke:#181818;stroke-width:0.5;" width="97.373" x="785.6929" y="234.2832"/><text fill="#000000" font-family="sans-serif" font-size="12" lengthAdjust="spacing" textLength="77.373" x="795.6929" y="256.7402">Tidak ada aksi</text><polygon fill="#F1F1F1" points="668.978,1546.709,680.978,1558.709,668.978,1570.709,656.978,1558.709,668.978,1546.709" style="stroke:#181818;stroke-width:0.5;"/><ellipse cx="668.978" cy="1601.709" fill="none" rx="11" ry="11" style="stroke:#222222;stroke-width:1.0;"/><ellipse cx="668.978" cy="1601.709" fill="#222222" rx="6" ry="6" style="stroke:#222222;stroke-width:1.0;"/><line style="stroke:#000000;stroke-width:1.5;" x1="15" x2="15" y1="12.4551" y2="1612.709"/><rect fill="#F1F1F1" height="35.0938" rx="12.5" ry="12.5" style="stroke:#181818;stroke-width:0.5;" width="216.7813" x="1251.8281" y="344.4707"/><text fill="#000000" font-family="sans-serif" font-size="12" lengthAdjust="spacing" textLength="196.7813" x="1261.8281" y="366.9277">Memeriksa ketersediaan bahan baku</text><polygon fill="#F1F1F1" points="1311.5969,399.5645,1408.8406,399.5645,1420.8406,411.5645,1408.8406,423.5645,1311.5969,423.5645,1299.5969,411.5645,1311.5969,399.5645" style="stroke:#181818;stroke-width:0.5;"/><text fill="#000000" font-family="sans-serif" font-size="11" lengthAdjust="spacing" textLength="97.2437" x="1311.5969" y="416.0654">Bahan baku cukup?</text><text fill="#000000" font-family="sans-serif" font-size="11" lengthAdjust="spacing" textLength="13.4546" x="1286.1423" y="409.1475">Ya</text><text fill="#000000" font-family="sans-serif" font-size="11" lengthAdjust="spacing" textLength="26.8984" x="1420.8406" y="409.1475">Tidak</text><rect fill="#F1F1F1" height="35.0938" rx="12.5" ry="12.5" style="stroke:#181818;stroke-width:0.5;" width="181.3906" x="1047.293" y="443.5645"/><text fill="#000000" font-family="sans-serif" font-size="12" lengthAdjust="spacing" textLength="161.3906" x="1057.293" y="466.0215">Menampilkan konfirmasi mulai</text><path d="M1245.376,605.041 L1245.376,622.3926 L1225.376,626.3926 L1245.376,630.3926 L1245.376,647.7441 A0,0 0 0 0 1245.376,647.7441 L1420.3257,647.7441 A0,0 0 0 0 1420.3257,647.7441 L1420.3257,615.041 L1410.3257,605.041 L1245.376,605.041 A0,0 0 0 0 1245.376,605.041 " fill="#FEFFDD" style="stroke:#181818;stroke-width:0.5;"/><path d="M1410.3257,605.041 L1410.3257,615.041 L1420.3257,615.041 L1410.3257,605.041 " fill="#FEFFDD" style="stroke:#181818;stroke-width:0.5;"/><text fill="#000000" font-family="sans-serif" font-size="13" lengthAdjust="spacing" textLength="153.9497" x="1251.376" y="623.5361">Pengurangan berdasarkan</text><text fill="#000000" font-family="sans-serif" font-size="13" lengthAdjust="spacing" textLength="143.0317" x="1251.376" y="639.8877">komposisi produk (FIFO)</text><rect fill="#F1F1F1" height="35.0938" rx="12.5" ry="12.5" style="stroke:#181818;stroke-width:0.5;" width="174.7754" x="1050.6006" y="608.8457"/><text fill="#000000" font-family="sans-serif" font-size="12" lengthAdjust="spacing" textLength="154.7754" x="1060.6006" y="631.3027">Mengurangi stok bahan baku</text><path d="M1247.7051,657.7441 L1247.7051,707.7988 L1227.7051,711.7988 L1247.7051,715.7988 L1247.7051,765.8535 A0,0 0 0 0 1247.7051,765.8535 L1436.3721,765.8535 A0,0 0 0 0 1436.3721,765.8535 L1436.3721,667.7441 L1426.3721,657.7441 L1247.7051,657.7441 A0,0 0 0 0 1247.7051,657.7441 " fill="#FEFFDD" style="stroke:#181818;stroke-width:0.5;"/><path d="M1426.3721,657.7441 L1426.3721,667.7441 L1436.3721,667.7441 L1426.3721,657.7441 " fill="#FEFFDD" style="stroke:#181818;stroke-width:0.5;"/><text fill="#000000" font-family="sans-serif" font-size="13" lengthAdjust="spacing" textLength="167.667" x="1253.7051" y="676.2393">Status berubah berdasarkan:</text><text fill="#000000" font-family="sans-serif" font-size="13" lengthAdjust="spacing" textLength="162.5952" x="1253.7051" y="692.5908">- Expired: ada batch expired</text><text fill="#000000" font-family="sans-serif" font-size="13" lengthAdjust="spacing" textLength="105.1426" x="1253.7051" y="708.9424">- Kosong: stok = 0</text><text fill="#000000" font-family="sans-serif" font-size="13" lengthAdjust="spacing" textLength="147.3735" x="1253.7051" y="725.2939">- Habis: stok &lt;= minimum</text><text fill="#000000" font-family="sans-serif" font-size="13" lengthAdjust="spacing" textLength="161.8398" x="1253.7051" y="741.6455">- Hampir Habis: stok rendah</text><text fill="#000000" font-family="sans-serif" font-size="13" lengthAdjust="spacing" textLength="127.8862" x="1253.7051" y="757.9971">- Tersedia: stok cukup</text><rect fill="#F1F1F1" height="35.0938" rx="12.5" ry="12.5" style="stroke:#181818;stroke-width:0.5;" width="179.4336" x="1048.2715" y="694.252"/><text fill="#000000" font-family="sans-serif" font-size="12" lengthAdjust="spacing" textLength="159.4336" x="1058.2715" y="716.709">Update status bahan otomatis</text><rect fill="#F1F1F1" height="35.0938" rx="12.5" ry="12.5" style="stroke:#181818;stroke-width:0.5;" width="137.3984" x="1069.2891" y="785.8535"/><text fill="#000000" font-family="sans-serif" font-size="12" lengthAdjust="spacing" textLength="117.3984" x="1079.2891" y="808.3105">Mencatat log inventori</text><rect fill="#F1F1F1" height="35.0938" rx="12.5" ry="12.5" style="stroke:#181818;stroke-width:0.5;" width="138.0605" x="1068.958" y="840.9473"/><text fill="#000000" font-family="sans-serif" font-size="12" lengthAdjust="spacing" textLength="118.0605" x="1078.958" y="863.4043">Update status: Proses</text><rect fill="#F1F1F1" height="35.0938" rx="12.5" ry="12.5" style="stroke:#181818;stroke-width:0.5;" width="196.7129" x="1039.6318" y="896.041"/><text fill="#000000" font-family="sans-serif" font-size="12" lengthAdjust="spacing" textLength="176.7129" x="1049.6318" y="918.498">Kirim notifikasi (Produksi dimulai)</text><rect fill="#F1F1F1" height="35.0938" rx="12.5" ry="12.5" style="stroke:#181818;stroke-width:0.5;" width="167.416" x="923.0718" y="1105.3223"/><text fill="#000000" font-family="sans-serif" font-size="12" lengthAdjust="spacing" textLength="147.416" x="933.0718" y="1127.7793">Menambah stok produk jadi</text><rect fill="#F1F1F1" height="35.0938" rx="12.5" ry="12.5" style="stroke:#181818;stroke-width:0.5;" width="140.0703" x="936.7446" y="1160.416"/><text fill="#000000" font-family="sans-serif" font-size="12" lengthAdjust="spacing" textLength="120.0703" x="946.7446" y="1182.873">Update status: Selesai</text><rect fill="#F1F1F1" height="35.0938" rx="12.5" ry="12.5" style="stroke:#181818;stroke-width:0.5;" width="196.0508" x="908.7544" y="1215.5098"/><text fill="#000000" font-family="sans-serif" font-size="12" lengthAdjust="spacing" textLength="176.0508" x="918.7544" y="1237.9668">Kirim notifikasi (Produksi selesai)</text><rect fill="#F1F1F1" height="35.0938" rx="12.5" ry="12.5" style="stroke:#181818;stroke-width:0.5;" width="227.4277" x="893.0659" y="1319.5215"/><text fill="#000000" font-family="sans-serif" font-size="12" lengthAdjust="spacing" textLength="207.4277" x="903.0659" y="1341.9785">Update status transaksi: Dapat Diambil</text><rect fill="#F1F1F1" height="35.0938" rx="12.5" ry="12.5" style="stroke:#181818;stroke-width:0.5;" width="144.0313" x="934.7642" y="1389.6152"/><text fill="#000000" font-family="sans-serif" font-size="12" lengthAdjust="spacing" textLength="124.0313" x="944.7642" y="1412.0723">Kirim notifikasi ke Kasir</text><polygon fill="#F1F1F1" points="971.0056,1270.6035,1042.554,1270.6035,1054.554,1282.6035,1042.554,1294.6035,971.0056,1294.6035,959.0056,1282.6035,971.0056,1270.6035" style="stroke:#181818;stroke-width:0.5;"/><text fill="#000000" font-family="sans-serif" font-size="11" lengthAdjust="spacing" textLength="13.4546" x="1010.7798" y="1306.0225">Ya</text><text fill="#000000" font-family="sans-serif" font-size="11" lengthAdjust="spacing" textLength="71.5483" x="971.0056" y="1287.1045">Dari pesanan?</text><text fill="#000000" font-family="sans-serif" font-size="11" lengthAdjust="spacing" textLength="43.4146" x="1054.554" y="1280.1865">Siap Beli</text><polygon fill="#F1F1F1" points="1006.7798,1444.709,1018.7798,1456.709,1006.7798,1468.709,994.7798,1456.709,1006.7798,1444.709" style="stroke:#181818;stroke-width:0.5;"/><rect fill="#F1F1F1" height="35.0938" rx="12.5" ry="12.5" style="stroke:#181818;stroke-width:0.5;" width="196.1152" x="1171.1392" y="1105.3223"/><text fill="#000000" font-family="sans-serif" font-size="12" lengthAdjust="spacing" textLength="176.1152" x="1181.1392" y="1127.7793">Mengembalikan stok bahan baku</text><rect fill="#F1F1F1" height="35.0938" rx="12.5" ry="12.5" style="stroke:#181818;stroke-width:0.5;" width="157.4141" x="1190.4897" y="1160.416"/><text fill="#000000" font-family="sans-serif" font-size="12" lengthAdjust="spacing" textLength="137.4141" x="1200.4897" y="1182.873">Update status: Dibatalkan</text><rect fill="#F1F1F1" height="35.0938" rx="12.5" ry="12.5" style="stroke:#181818;stroke-width:0.5;" width="213.4063" x="1162.4937" y="1215.5098"/><text fill="#000000" font-family="sans-serif" font-size="12" lengthAdjust="spacing" textLength="193.4063" x="1172.4937" y="1237.9668">Kirim notifikasi (Produksi dibatalkan)</text><rect fill="#F1F1F1" height="35.0938" rx="12.5" ry="12.5" style="stroke:#181818;stroke-width:0.5;" width="252.1543" x="1456.3721" y="443.5645"/><text fill="#000000" font-family="sans-serif" font-size="12" lengthAdjust="spacing" textLength="232.1543" x="1466.3721" y="466.0215">Menampilkan peringatan bahan tidak cukup</text><rect fill="#F1F1F1" height="35.0938" rx="12.5" ry="12.5" style="stroke:#181818;stroke-width:0.5;" width="231.4707" x="1466.7139" y="498.6582"/><text fill="#000000" font-family="sans-serif" font-size="12" lengthAdjust="spacing" textLength="211.4707" x="1476.7139" y="521.1152">Menampilkan daftar bahan yang kurang</text><polygon fill="#F1F1F1" points="1360.2188,1512.709,1372.2188,1524.709,1360.2188,1536.709,1348.2188,1524.709,1360.2188,1512.709" style="stroke:#181818;stroke-width:0.5;"/><line style="stroke:#000000;stroke-width:1.5;" x1="887.0659" x2="887.0659" y1="12.4551" y2="1612.709"/><line style="stroke:#000000;stroke-width:1.5;" x1="1712.5264" x2="1712.5264" y1="12.4551" y2="1612.709"/><line style="stroke:#181818;stroke-width:1.0;" x1="668.978" x2="668.978" y1="60.0957" y2="80.0957"/><polygon fill="#181818" points="664.978,70.0957,668.978,80.0957,672.978,70.0957,668.978,74.0957" style="stroke:#181818;stroke-width:1.0;"/><line style="stroke:#181818;stroke-width:1.0;" x1="668.978" x2="668.978" y1="115.1895" y2="135.1895"/><polygon fill="#181818" points="664.978,125.1895,668.978,135.1895,672.978,125.1895,668.978,129.1895" style="stroke:#181818;stroke-width:1.0;"/><line style="stroke:#181818;stroke-width:1.0;" x1="455.481" x2="455.481" y1="269.377" y2="289.377"/><polygon fill="#181818" points="451.481,279.377,455.481,289.377,459.481,279.377,455.481,283.377" style="stroke:#181818;stroke-width:1.0;"/><line style="stroke:#181818;stroke-width:1.0;" x1="233.2505" x2="233.2505" y1="533.752" y2="553.752"/><polygon fill="#181818" points="229.2505,543.752,233.2505,553.752,237.2505,543.752,233.2505,547.752" style="stroke:#181818;stroke-width:1.0;"/><line style="stroke:#181818;stroke-width:1.0;" x1="178.1448" x2="102.042" y1="1018.2285" y2="1018.2285"/><line style="stroke:#181818;stroke-width:1.0;" x1="102.042" x2="102.042" y1="1018.2285" y2="1050.2285"/><polygon fill="#181818" points="98.042,1040.2285,102.042,1050.2285,106.042,1040.2285,102.042,1044.2285" style="stroke:#181818;stroke-width:1.0;"/><line style="stroke:#181818;stroke-width:1.0;" x1="288.3562" x2="364.459" y1="1018.2285" y2="1018.2285"/><line style="stroke:#181818;stroke-width:1.0;" x1="364.459" x2="364.459" y1="1018.2285" y2="1050.2285"/><polygon fill="#181818" points="360.459,1040.2285,364.459,1050.2285,368.459,1040.2285,364.459,1044.2285" style="stroke:#181818;stroke-width:1.0;"/><line style="stroke:#181818;stroke-width:1.0;" x1="233.2505" x2="233.2505" y1="986.2285" y2="1006.2285"/><polygon fill="#181818" points="229.2505,996.2285,233.2505,1006.2285,237.2505,996.2285,233.2505,1000.2285" style="stroke:#181818;stroke-width:1.0;"/><line style="stroke:#181818;stroke-width:1.0;" x1="594.2947" x2="455.481" y1="202.2832" y2="202.2832"/><line style="stroke:#181818;stroke-width:1.0;" x1="455.481" x2="455.481" y1="202.2832" y2="234.2832"/><polygon fill="#181818" points="451.481,224.2832,455.481,234.2832,459.481,224.2832,455.481,228.2832" style="stroke:#181818;stroke-width:1.0;"/><line style="stroke:#181818;stroke-width:1.0;" x1="743.6614" x2="834.3794" y1="202.2832" y2="202.2832"/><line style="stroke:#181818;stroke-width:1.0;" x1="834.3794" x2="834.3794" y1="202.2832" y2="234.2832"/><polygon fill="#181818" points="830.3794,224.2832,834.3794,234.2832,838.3794,224.2832,834.3794,228.2832" style="stroke:#181818;stroke-width:1.0;"/><line style="stroke:#181818;stroke-width:1.0;" x1="834.3794" x2="834.3794" y1="269.377" y2="1558.709"/><line style="stroke:#181818;stroke-width:1.0;" x1="834.3794" x2="680.978" y1="1558.709" y2="1558.709"/><polygon fill="#181818" points="690.978,1554.709,680.978,1558.709,690.978,1562.709,686.978,1558.709" style="stroke:#181818;stroke-width:1.0;"/><line style="stroke:#181818;stroke-width:1.0;" x1="668.978" x2="668.978" y1="170.2832" y2="190.2832"/><polygon fill="#181818" points="664.978,180.2832,668.978,190.2832,672.978,180.2832,668.978,184.2832" style="stroke:#181818;stroke-width:1.0;"/><line style="stroke:#181818;stroke-width:1.0;" x1="668.978" x2="668.978" y1="1570.709" y2="1590.709"/><polygon fill="#181818" points="664.978,1580.709,668.978,1590.709,672.978,1580.709,668.978,1584.709" style="stroke:#181818;stroke-width:1.0;"/><line style="stroke:#181818;stroke-width:1.0;" x1="1137.9883" x2="1137.9883" y1="643.9395" y2="694.252"/><polygon fill="#181818" points="1133.9883,684.252,1137.9883,694.252,1141.9883,684.252,1137.9883,688.252" style="stroke:#181818;stroke-width:1.0;"/><line style="stroke:#181818;stroke-width:1.0;" x1="1137.9883" x2="1137.9883" y1="729.3457" y2="785.8535"/><polygon fill="#181818" points="1133.9883,775.8535,1137.9883,785.8535,1141.9883,775.8535,1137.9883,779.8535" style="stroke:#181818;stroke-width:1.0;"/><line style="stroke:#181818;stroke-width:1.0;" x1="1137.9883" x2="1137.9883" y1="820.9473" y2="840.9473"/><polygon fill="#181818" points="1133.9883,830.9473,1137.9883,840.9473,1141.9883,830.9473,1137.9883,834.9473" style="stroke:#181818;stroke-width:1.0;"/><line style="stroke:#181818;stroke-width:1.0;" x1="1137.9883" x2="1137.9883" y1="876.041" y2="896.041"/><polygon fill="#181818" points="1133.9883,886.041,1137.9883,896.041,1141.9883,886.041,1137.9883,890.041" style="stroke:#181818;stroke-width:1.0;"/><line style="stroke:#181818;stroke-width:1.0;" x1="1006.7798" x2="1006.7798" y1="1140.416" y2="1160.416"/><polygon fill="#181818" points="1002.7798,1150.416,1006.7798,1160.416,1010.7798,1150.416,1006.7798,1154.416" style="stroke:#181818;stroke-width:1.0;"/><line style="stroke:#181818;stroke-width:1.0;" x1="1006.7798" x2="1006.7798" y1="1195.5098" y2="1215.5098"/><polygon fill="#181818" points="1002.7798,1205.5098,1006.7798,1215.5098,1010.7798,1205.5098,1006.7798,1209.5098" style="stroke:#181818;stroke-width:1.0;"/><line style="stroke:#181818;stroke-width:1.0;" x1="1006.7798" x2="1006.7798" y1="1354.6152" y2="1389.6152"/><polygon fill="#181818" points="1002.7798,1379.6152,1006.7798,1389.6152,1010.7798,1379.6152,1006.7798,1383.6152" style="stroke:#181818;stroke-width:1.0;"/><line style="stroke:#181818;stroke-width:1.0;" x1="1006.7798" x2="1006.7798" y1="1294.6035" y2="1319.5215"/><polygon fill="#181818" points="1002.7798,1309.5215,1006.7798,1319.5215,1010.7798,1309.5215,1006.7798,1313.5215" style="stroke:#181818;stroke-width:1.0;"/><line style="stroke:#181818;stroke-width:1.0;" x1="1054.554" x2="1130.4937" y1="1282.6035" y2="1282.6035"/><polygon fill="#181818" points="1126.4937,1362.1152,1130.4937,1372.1152,1134.4937,1362.1152,1130.4937,1366.1152" style="stroke:#181818;stroke-width:1.0;"/><line style="stroke:#181818;stroke-width:1.0;" x1="1130.4937" x2="1130.4937" y1="1282.6035" y2="1456.709"/><line style="stroke:#181818;stroke-width:1.0;" x1="1130.4937" x2="1018.7798" y1="1456.709" y2="1456.709"/><polygon fill="#181818" points="1028.7798,1452.709,1018.7798,1456.709,1028.7798,1460.709,1024.7798,1456.709" style="stroke:#181818;stroke-width:1.0;"/><line style="stroke:#181818;stroke-width:1.0;" x1="1006.7798" x2="1006.7798" y1="1424.709" y2="1444.709"/><polygon fill="#181818" points="1002.7798,1434.709,1006.7798,1444.709,1010.7798,1434.709,1006.7798,1438.709" style="stroke:#181818;stroke-width:1.0;"/><line style="stroke:#181818;stroke-width:1.0;" x1="1006.7798" x2="1006.7798" y1="1250.6035" y2="1270.6035"/><polygon fill="#181818" points="1002.7798,1260.6035,1006.7798,1270.6035,1010.7798,1260.6035,1006.7798,1264.6035" style="stroke:#181818;stroke-width:1.0;"/><line style="stroke:#181818;stroke-width:1.0;" x1="1269.1968" x2="1269.1968" y1="1140.416" y2="1160.416"/><polygon fill="#181818" points="1265.1968,1150.416,1269.1968,1160.416,1273.1968,1150.416,1269.1968,1154.416" style="stroke:#181818;stroke-width:1.0;"/><line style="stroke:#181818;stroke-width:1.0;" x1="1269.1968" x2="1269.1968" y1="1195.5098" y2="1215.5098"/><polygon fill="#181818" points="1265.1968,1205.5098,1269.1968,1215.5098,1273.1968,1205.5098,1269.1968,1209.5098" style="stroke:#181818;stroke-width:1.0;"/><line style="stroke:#181818;stroke-width:1.0;" x1="1582.4492" x2="1582.4492" y1="478.6582" y2="498.6582"/><polygon fill="#181818" points="1578.4492,488.6582,1582.4492,498.6582,1586.4492,488.6582,1582.4492,492.6582" style="stroke:#181818;stroke-width:1.0;"/><line style="stroke:#181818;stroke-width:1.0;" x1="1299.5969" x2="1137.9883" y1="411.5645" y2="411.5645"/><line style="stroke:#181818;stroke-width:1.0;" x1="1137.9883" x2="1137.9883" y1="411.5645" y2="443.5645"/><polygon fill="#181818" points="1133.9883,433.5645,1137.9883,443.5645,1141.9883,433.5645,1137.9883,437.5645" style="stroke:#181818;stroke-width:1.0;"/><line style="stroke:#181818;stroke-width:1.0;" x1="1420.8406" x2="1582.4492" y1="411.5645" y2="411.5645"/><line style="stroke:#181818;stroke-width:1.0;" x1="1582.4492" x2="1582.4492" y1="411.5645" y2="443.5645"/><polygon fill="#181818" points="1578.4492,433.5645,1582.4492,443.5645,1586.4492,433.5645,1582.4492,437.5645" style="stroke:#181818;stroke-width:1.0;"/><line style="stroke:#181818;stroke-width:1.0;" x1="1360.2188" x2="1360.2188" y1="379.5645" y2="399.5645"/><polygon fill="#181818" points="1356.2188,389.5645,1360.2188,399.5645,1364.2188,389.5645,1360.2188,393.5645" style="stroke:#181818;stroke-width:1.0;"/><line style="stroke:#181818;stroke-width:1.0;" x1="455.481" x2="455.481" y1="324.4707" y2="329.4707"/><line style="stroke:#181818;stroke-width:1.0;" x1="455.481" x2="1360.2188" y1="329.4707" y2="329.4707"/><line style="stroke:#181818;stroke-width:1.0;" x1="1360.2188" x2="1360.2188" y1="329.4707" y2="344.4707"/><polygon fill="#181818" points="1356.2188,334.4707,1360.2188,344.4707,1364.2188,334.4707,1360.2188,338.4707" style="stroke:#181818;stroke-width:1.0;"/><line style="stroke:#181818;stroke-width:1.0;" x1="1137.9883" x2="1137.9883" y1="478.6582" y2="483.6582"/><line style="stroke:#181818;stroke-width:1.0;" x1="1137.9883" x2="233.2505" y1="483.6582" y2="483.6582"/><line style="stroke:#181818;stroke-width:1.0;" x1="233.2505" x2="233.2505" y1="483.6582" y2="498.6582"/><polygon fill="#181818" points="229.2505,488.6582,233.2505,498.6582,237.2505,488.6582,233.2505,492.6582" style="stroke:#181818;stroke-width:1.0;"/><line style="stroke:#181818;stroke-width:1.0;" x1="233.2505" x2="233.2505" y1="588.8457" y2="593.8457"/><line style="stroke:#181818;stroke-width:1.0;" x1="233.2505" x2="1137.9883" y1="593.8457" y2="593.8457"/><line style="stroke:#181818;stroke-width:1.0;" x1="1137.9883" x2="1137.9883" y1="593.8457" y2="608.8457"/><polygon fill="#181818" points="1133.9883,598.8457,1137.9883,608.8457,1141.9883,598.8457,1137.9883,602.8457" style="stroke:#181818;stroke-width:1.0;"/><line style="stroke:#181818;stroke-width:1.0;" x1="1137.9883" x2="1137.9883" y1="931.1348" y2="936.1348"/><line style="stroke:#181818;stroke-width:1.0;" x1="1137.9883" x2="233.2505" y1="936.1348" y2="936.1348"/><line style="stroke:#181818;stroke-width:1.0;" x1="233.2505" x2="233.2505" y1="936.1348" y2="951.1348"/><polygon fill="#181818" points="229.2505,941.1348,233.2505,951.1348,237.2505,941.1348,233.2505,945.1348" style="stroke:#181818;stroke-width:1.0;"/><line style="stroke:#181818;stroke-width:1.0;" x1="102.042" x2="102.042" y1="1085.3223" y2="1090.3223"/><line style="stroke:#181818;stroke-width:1.0;" x1="102.042" x2="1006.7798" y1="1090.3223" y2="1090.3223"/><line style="stroke:#181818;stroke-width:1.0;" x1="1006.7798" x2="1006.7798" y1="1090.3223" y2="1105.3223"/><polygon fill="#181818" points="1002.7798,1095.3223,1006.7798,1105.3223,1010.7798,1095.3223,1006.7798,1099.3223" style="stroke:#181818;stroke-width:1.0;"/><line style="stroke:#181818;stroke-width:1.0;" x1="364.459" x2="364.459" y1="1085.3223" y2="1090.3223"/><line style="stroke:#181818;stroke-width:1.0;" x1="364.459" x2="1269.1968" y1="1090.3223" y2="1090.3223"/><line style="stroke:#181818;stroke-width:1.0;" x1="1269.1968" x2="1269.1968" y1="1090.3223" y2="1105.3223"/><polygon fill="#181818" points="1265.1968,1095.3223,1269.1968,1105.3223,1273.1968,1095.3223,1269.1968,1099.3223" style="stroke:#181818;stroke-width:1.0;"/><line style="stroke:#181818;stroke-width:1.0;" x1="1006.7798" x2="1006.7798" y1="1468.709" y2="1472.709"/><line style="stroke:#181818;stroke-width:1.0;" x1="1006.7798" x2="203.2505" y1="1472.709" y2="1472.709"/><line style="stroke:#181818;stroke-width:1.0;" x1="203.2505" x2="203.2505" y1="1472.709" y2="1490.709"/><line style="stroke:#181818;stroke-width:1.0;" x1="203.2505" x2="221.2505" y1="1490.709" y2="1490.709"/><polygon fill="#181818" points="211.2505,1486.709,221.2505,1490.709,211.2505,1494.709,215.2505,1490.709" style="stroke:#181818;stroke-width:1.0;"/><line style="stroke:#181818;stroke-width:1.0;" x1="1269.1968" x2="1269.1968" y1="1250.6035" y2="1490.709"/><line style="stroke:#181818;stroke-width:1.0;" x1="1269.1968" x2="245.2505" y1="1490.709" y2="1490.709"/><polygon fill="#181818" points="255.2505,1486.709,245.2505,1490.709,255.2505,1494.709,251.2505,1490.709" style="stroke:#181818;stroke-width:1.0;"/><line style="stroke:#181818;stroke-width:1.0;" x1="1582.4492" x2="1582.4492" y1="533.752" y2="538.752"/><line style="stroke:#181818;stroke-width:1.0;" x1="1582.4492" x2="677.7114" y1="538.752" y2="538.752"/><line style="stroke:#181818;stroke-width:1.0;" x1="677.7114" x2="677.7114" y1="538.752" y2="553.752"/><polygon fill="#181818" points="673.7114,543.752,677.7114,553.752,681.7114,543.752,677.7114,547.752" style="stroke:#181818;stroke-width:1.0;"/><line style="stroke:#181818;stroke-width:1.0;" x1="233.2505" x2="233.2505" y1="1502.709" y2="1524.709"/><line style="stroke:#181818;stroke-width:1.0;" x1="233.2505" x2="1348.2188" y1="1524.709" y2="1524.709"/><polygon fill="#181818" points="1338.2188,1520.709,1348.2188,1524.709,1338.2188,1528.709,1342.2188,1524.709" style="stroke:#181818;stroke-width:1.0;"/><line style="stroke:#181818;stroke-width:1.0;" x1="677.7114" x2="677.7114" y1="588.8457" y2="1506.709"/><line style="stroke:#181818;stroke-width:1.0;" x1="677.7114" x2="1390.2188" y1="1506.709" y2="1506.709"/><line style="stroke:#181818;stroke-width:1.0;" x1="1390.2188" x2="1390.2188" y1="1506.709" y2="1524.709"/><line style="stroke:#181818;stroke-width:1.0;" x1="1390.2188" x2="1372.2188" y1="1524.709" y2="1524.709"/><polygon fill="#181818" points="1382.2188,1520.709,1372.2188,1524.709,1382.2188,1528.709,1378.2188,1524.709" style="stroke:#181818;stroke-width:1.0;"/><line style="stroke:#181818;stroke-width:1.0;" x1="1360.2188" x2="1360.2188" y1="1536.709" y2="1540.709"/><line style="stroke:#181818;stroke-width:1.0;" x1="1360.2188" x2="638.978" y1="1540.709" y2="1540.709"/><line style="stroke:#181818;stroke-width:1.0;" x1="638.978" x2="638.978" y1="1540.709" y2="1558.709"/><line style="stroke:#181818;stroke-width:1.0;" x1="638.978" x2="656.978" y1="1558.709" y2="1558.709"/><polygon fill="#181818" points="646.978,1554.709,656.978,1558.709,646.978,1562.709,650.978,1558.709" style="stroke:#181818;stroke-width:1.0;"/><text fill="#000000" font-family="sans-serif" font-size="18" lengthAdjust="spacing" textLength="70.0313" x="416.0173" y="31.1406">Produksi</text><text fill="#000000" font-family="sans-serif" font-size="18" lengthAdjust="spacing" textLength="55.0107" x="1272.2908" y="31.1406">Sistem</text><!--SRC=[ZLN9Zjim3BtxAtXC3WLwjZiePf0EMWH51yZqq2CJAJP7jcH8Sj42-VXIykvuqlYGnNfS7lL8Nbwi4OroT4cSH-kJzBkiZer2AB342ZKyQc-9ltjW5Y0b5UX1u9bje1vE4Zh3vb7Wy0eggHkTvytdBVX2QjZymcq2_8Gun6v6w5_KEQ3YK8AgfaJsrmEb9UKGXFH8vIHUE8yVbmCvBwlBqa99BwsJWf3T7h68dwgPM8QCduO3E3MggQ-IxRngh6egGuRAw3FP2WF3CTN1QKnfhEp4HSTPAcdViANC6PPqH9_DGkNB40lQyrXJ-eE7nh9x0kUDkk8U7csy14jvuOTN02-zOO1BAz2XPSOJX39LRHovFYFOF7zx_Z4MIceHNO_9_Am5SYWMc6zSbuhnfa9FxZ_f73eRQHkscsQKJb0VuCkVcgmKAI2hZujvAa2shsQmlN56vsbRamVuE3lyYaTotTcd1wX8imwh1OGLO6T8otoncA5UEyrrYAYf6-NXkpeXyuJIv43wjzJUsCarp-kNXavqSbAuT4-Mgk2KpgI2O3QzzlfMsjujq98b4XHUno2tH1SwPuZZP2aTqchd3Dt3XHfbt9jaCzpipvMinpuCOeZ5xJJuXcBXQLcrmrguMwNhyjlUI32KO8UMIJ6I-RrBVwKDF3UPGmwKmWvhllqTCIqgisl3goILX3r_spbMbax2va1OmnDFw7a6B3iwhpDfxNPX1c6ORdF35PdqiwmtM579_NUP1pyb1JVlJggr-npplVzAnSWnIzOhaumLUIM1Qdjxo0uReUQDmqFJ3tl61-kszxDrasvzjl2u2bISl7VtAg_MoQvjpKOsoHMBDFwE8nAZGGlcpM_gv1y0]--></g></svg>