<svg xmlns="http://www.w3.org/2000/svg" xmlns:xlink="http://www.w3.org/1999/xlink" contentStyleType="text/css" height="1284px" preserveAspectRatio="none" style="width:3048px;height:1284px;background:#FFFFFF;" version="1.1" viewBox="0 0 3048 1284" width="3048px" zoomAndPan="magnify"><defs/><g><rect fill="none" height="22.6406" style="stroke:none;stroke-width:1.0;" width="3015.9387" x="15" y="12.4551"/><ellipse cx="842.1516" cy="50.0957" fill="#222222" rx="10" ry="10" style="stroke:#222222;stroke-width:1.0;"/><rect fill="#F1F1F1" height="35.0938" rx="12.5" ry="12.5" style="stroke:#181818;stroke-width:0.5;" width="190.7715" x="746.7659" y="80.0957"/><text fill="#000000" font-family="sans-serif" font-size="12" lengthAdjust="spacing" textLength="170.7715" x="756.7659" y="102.5527">Membuka halaman Bahan Baku</text><polygon fill="#F1F1F1" points="151.6191,135.1895,178.5176,135.1895,190.5176,147.1895,178.5176,159.1895,151.6191,159.1895,139.6191,147.1895,151.6191,135.1895" style="stroke:#181818;stroke-width:0.5;"/><text fill="#000000" font-family="sans-serif" font-size="11" lengthAdjust="spacing" textLength="40.353" x="169.0684" y="170.6084">Tambah</text><text fill="#000000" font-family="sans-serif" font-size="11" lengthAdjust="spacing" textLength="26.8984" x="151.6191" y="151.6904">Aksi?</text><rect fill="#F1F1F1" height="35.0938" rx="12.5" ry="12.5" style="stroke:#181818;stroke-width:0.5;" width="164.0762" x="83.0303" y="192.1084"/><text fill="#000000" font-family="sans-serif" font-size="12" lengthAdjust="spacing" textLength="144.0762" x="93.0303" y="214.5654">Klik tombol Tambah Bahan</text><path d="M262.4395,247.2021 L262.4395,297.2568 L242.4395,301.2568 L262.4395,305.2568 L262.4395,355.3115 A0,0 0 0 0 262.4395,355.3115 L379.562,355.3115 A0,0 0 0 0 379.562,355.3115 L379.562,257.2021 L369.562,247.2021 L262.4395,247.2021 A0,0 0 0 0 262.4395,247.2021 " fill="#FEFFDD" style="stroke:#181818;stroke-width:0.5;"/><path d="M369.562,247.2021 L369.562,257.2021 L379.562,257.2021 L369.562,247.2021 " fill="#FEFFDD" style="stroke:#181818;stroke-width:0.5;"/><text fill="#000000" font-family="sans-serif" font-size="13" lengthAdjust="spacing" textLength="70.8335" x="268.4395" y="265.6973">Data bahan:</text><text fill="#000000" font-family="sans-serif" font-size="13" lengthAdjust="spacing" textLength="82.3799" x="268.4395" y="282.0488">- Nama bahan</text><text fill="#000000" font-family="sans-serif" font-size="13" lengthAdjust="spacing" textLength="96.1226" x="268.4395" y="298.4004">- Kategori bahan</text><text fill="#000000" font-family="sans-serif" font-size="13" lengthAdjust="spacing" textLength="90.2891" x="268.4395" y="314.752">- Stok minimum</text><text fill="#000000" font-family="sans-serif" font-size="13" lengthAdjust="spacing" textLength="61.3945" x="268.4395" y="331.1035">- Deskripsi</text><text fill="#000000" font-family="sans-serif" font-size="13" lengthAdjust="spacing" textLength="72.249" x="268.4395" y="347.4551">- Status aktif</text><rect fill="#F1F1F1" height="35.0938" rx="12.5" ry="12.5" style="stroke:#181818;stroke-width:0.5;" width="154.7422" x="87.6973" y="283.71"/><text fill="#000000" font-family="sans-serif" font-size="12" lengthAdjust="spacing" textLength="134.7422" x="97.6973" y="306.167">Mengisi form bahan baku</text><rect fill="#F1F1F1" height="35.0938" rx="12.5" ry="12.5" style="stroke:#181818;stroke-width:0.5;" width="162.1133" x="84.0117" y="390.3115"/><text fill="#000000" font-family="sans-serif" font-size="12" lengthAdjust="spacing" textLength="142.1133" x="94.0117" y="412.7686">Menentukan satuan bahan</text><rect fill="#F1F1F1" height="35.0938" rx="12.5" ry="12.5" style="stroke:#181818;stroke-width:0.5;" width="112.7129" x="108.7119" y="522.2412"/><text fill="#000000" font-family="sans-serif" font-size="12" lengthAdjust="spacing" textLength="92.7129" x="118.7119" y="544.6982">Pilih satuan (unit)</text><rect fill="#F1F1F1" height="35.0938" rx="12.5" ry="12.5" style="stroke:#181818;stroke-width:0.5;" width="216.7637" x="257.5361" y="636.335"/><text fill="#000000" font-family="sans-serif" font-size="12" lengthAdjust="spacing" textLength="196.7637" x="267.5361" y="658.792">Masukkan kuantitas konversi manual</text><rect fill="#F1F1F1" height="35.0938" rx="12.5" ry="12.5" style="stroke:#181818;stroke-width:0.5;" width="234.1367" x="48" y="797.0928"/><text fill="#000000" font-family="sans-serif" font-size="12" lengthAdjust="spacing" textLength="214.1367" x="58" y="819.5498">Tandai sebagai satuan utama (opsional)</text><polygon fill="#F1F1F1" points="113.7019,460.4053,216.4348,460.4053,228.4348,472.4053,216.4348,484.4053,113.7019,484.4053,101.7019,472.4053,113.7019,460.4053" style="stroke:#181818;stroke-width:0.5;"/><text fill="#000000" font-family="sans-serif" font-size="11" lengthAdjust="spacing" textLength="13.4546" x="169.0684" y="495.8242">Ya</text><text fill="#000000" font-family="sans-serif" font-size="11" lengthAdjust="spacing" textLength="102.7329" x="113.7019" y="476.9063">Tambah satuan lagi?</text><text fill="#000000" font-family="sans-serif" font-size="11" lengthAdjust="spacing" textLength="26.8984" x="74.8035" y="469.9883">Tidak</text><rect fill="#F1F1F1" height="35.0938" rx="12.5" ry="12.5" style="stroke:#181818;stroke-width:0.5;" width="148.0859" x="91.0254" y="891.1865"/><text fill="#000000" font-family="sans-serif" font-size="12" lengthAdjust="spacing" textLength="128.0859" x="101.0254" y="913.6436">Menyimpan bahan baku</text><polygon fill="#F1F1F1" points="583.2373,135.1895,610.1357,135.1895,622.1357,147.1895,610.1357,159.1895,583.2373,159.1895,571.2373,147.1895,583.2373,135.1895" style="stroke:#181818;stroke-width:0.5;"/><text fill="#000000" font-family="sans-serif" font-size="11" lengthAdjust="spacing" textLength="18.9546" x="600.6865" y="170.6084">Edit</text><text fill="#000000" font-family="sans-serif" font-size="11" lengthAdjust="spacing" textLength="26.8984" x="583.2373" y="151.6904">Aksi?</text><rect fill="#F1F1F1" height="35.0938" rx="12.5" ry="12.5" style="stroke:#181818;stroke-width:0.5;" width="188.7734" x="502.2998" y="192.1084"/><text fill="#000000" font-family="sans-serif" font-size="12" lengthAdjust="spacing" textLength="168.7734" x="512.2998" y="214.5654">Memilih bahan yang akan diedit</text><rect fill="#F1F1F1" height="35.0938" rx="12.5" ry="12.5" style="stroke:#181818;stroke-width:0.5;" width="140.1055" x="526.6338" y="247.2021"/><text fill="#000000" font-family="sans-serif" font-size="12" lengthAdjust="spacing" textLength="120.1055" x="536.6338" y="269.6592">Mengubah data bahan</text><rect fill="#F1F1F1" height="35.0938" rx="12.5" ry="12.5" style="stroke:#181818;stroke-width:0.5;" width="142.748" x="525.3125" y="317.2959"/><text fill="#000000" font-family="sans-serif" font-size="12" lengthAdjust="spacing" textLength="122.748" x="535.3125" y="339.7529">Menyimpan perubahan</text><polygon fill="#F1F1F1" points="800.6777,135.1895,827.5762,135.1895,839.5762,147.1895,827.5762,159.1895,800.6777,159.1895,788.6777,147.1895,800.6777,135.1895" style="stroke:#181818;stroke-width:0.5;"/><text fill="#000000" font-family="sans-serif" font-size="11" lengthAdjust="spacing" textLength="55.0376" x="818.127" y="170.6084">Lihat Batch</text><text fill="#000000" font-family="sans-serif" font-size="11" lengthAdjust="spacing" textLength="26.8984" x="800.6777" y="151.6904">Aksi?</text><rect fill="#F1F1F1" height="35.0938" rx="12.5" ry="12.5" style="stroke:#181818;stroke-width:0.5;" width="127.3965" x="750.4287" y="192.1084"/><text fill="#000000" font-family="sans-serif" font-size="12" lengthAdjust="spacing" textLength="107.3965" x="760.4287" y="214.5654">Memilih bahan baku</text><rect fill="#F1F1F1" height="35.0938" rx="12.5" ry="12.5" style="stroke:#181818;stroke-width:0.5;" width="198.1074" x="715.0732" y="422.8779"/><text fill="#000000" font-family="sans-serif" font-size="12" lengthAdjust="spacing" textLength="178.1074" x="725.0732" y="445.335">Memilih batch yang akan dihapus</text><rect fill="#F1F1F1" height="35.0938" rx="12.5" ry="12.5" style="stroke:#181818;stroke-width:0.5;" width="152.7559" x="737.749" y="492.9717"/><text fill="#000000" font-family="sans-serif" font-size="12" lengthAdjust="spacing" textLength="132.7559" x="747.749" y="515.4287">Konfirmasi penghapusan</text><polygon fill="#F1F1F1" points="780.187,373.96,848.0669,373.96,860.0669,385.96,848.0669,397.96,780.187,397.96,768.187,385.96,780.187,373.96" style="stroke:#181818;stroke-width:0.5;"/><text fill="#000000" font-family="sans-serif" font-size="11" lengthAdjust="spacing" textLength="13.4546" x="818.127" y="409.3789">Ya</text><text fill="#000000" font-family="sans-serif" font-size="11" lengthAdjust="spacing" textLength="67.8799" x="780.187" y="390.4609">Hapus batch?</text><text fill="#000000" font-family="sans-serif" font-size="11" lengthAdjust="spacing" textLength="26.8984" x="741.2886" y="383.543">Tidak</text><polygon fill="#F1F1F1" points="814.127,763.2646,826.127,775.2646,814.127,787.2646,802.127,775.2646,814.127,763.2646" style="stroke:#181818;stroke-width:0.5;"/><polygon fill="#F1F1F1" points="997.7864,135.1895,1024.6848,135.1895,1036.6848,147.1895,1024.6848,159.1895,997.7864,159.1895,985.7864,147.1895,997.7864,135.1895" style="stroke:#181818;stroke-width:0.5;"/><text fill="#000000" font-family="sans-serif" font-size="11" lengthAdjust="spacing" textLength="46.4707" x="1015.2356" y="170.6084">Lihat Alur</text><text fill="#000000" font-family="sans-serif" font-size="11" lengthAdjust="spacing" textLength="26.8984" x="997.7864" y="151.6904">Aksi?</text><text fill="#000000" font-family="sans-serif" font-size="11" lengthAdjust="spacing" textLength="31.7969" x="1036.6848" y="144.7725">Hapus</text><rect fill="#F1F1F1" height="35.0938" rx="12.5" ry="12.5" style="stroke:#181818;stroke-width:0.5;" width="127.3965" x="947.5374" y="192.1084"/><text fill="#000000" font-family="sans-serif" font-size="12" lengthAdjust="spacing" textLength="107.3965" x="957.5374" y="214.5654">Memilih bahan baku</text><rect fill="#F1F1F1" height="35.0938" rx="12.5" ry="12.5" style="stroke:#181818;stroke-width:0.5;" width="202.1211" x="1084.9338" y="530.2295"/><text fill="#000000" font-family="sans-serif" font-size="12" lengthAdjust="spacing" textLength="182.1211" x="1094.9338" y="552.6865">Memilih bahan yang akan dihapus</text><rect fill="#F1F1F1" height="35.0938" rx="12.5" ry="12.5" style="stroke:#181818;stroke-width:0.5;" width="152.7559" x="1109.6165" y="600.3232"/><text fill="#000000" font-family="sans-serif" font-size="12" lengthAdjust="spacing" textLength="132.7559" x="1119.6165" y="622.7803">Konfirmasi penghapusan</text><line style="stroke:#000000;stroke-width:1.5;" x1="15" x2="15" y1="12.4551" y2="1272.6553"/><polygon fill="#F1F1F1" points="1493.625,592.335,1693.5747,592.335,1705.5747,604.335,1693.5747,616.335,1493.625,616.335,1481.625,604.335,1493.625,592.335" style="stroke:#181818;stroke-width:0.5;"/><text fill="#000000" font-family="sans-serif" font-size="11" lengthAdjust="spacing" textLength="199.9497" x="1493.625" y="608.8359">Satuan dalam grup konversi yang sama?</text><text fill="#000000" font-family="sans-serif" font-size="11" lengthAdjust="spacing" textLength="13.4546" x="1468.1704" y="601.918">Ya</text><text fill="#000000" font-family="sans-serif" font-size="11" lengthAdjust="spacing" textLength="26.8984" x="1705.5747" y="601.918">Tidak</text><path d="M1488.4456,636.335 L1488.4456,678.2139 L1468.4456,682.2139 L1488.4456,686.2139 L1488.4456,728.0928 A0,0 0 0 0 1488.4456,728.0928 L1666.0676,728.0928 A0,0 0 0 0 1666.0676,728.0928 L1666.0676,646.335 L1656.0676,636.335 L1488.4456,636.335 A0,0 0 0 0 1488.4456,636.335 " fill="#FEFFDD" style="stroke:#181818;stroke-width:0.5;"/><path d="M1656.0676,636.335 L1656.0676,646.335 L1666.0676,646.335 L1656.0676,636.335 " fill="#FEFFDD" style="stroke:#181818;stroke-width:0.5;"/><text fill="#000000" font-family="sans-serif" font-size="13" lengthAdjust="spacing" textLength="45.5317" x="1494.4456" y="654.8301">Contoh:</text><text fill="#000000" font-family="sans-serif" font-size="13" lengthAdjust="spacing" textLength="101.8989" x="1494.4456" y="671.1816">Satuan utama: kg</text><text fill="#000000" font-family="sans-serif" font-size="13" lengthAdjust="spacing" textLength="117.0889" x="1494.4456" y="687.5332">Satuan tambahan: g</text><text fill="#000000" font-family="sans-serif" font-size="13" lengthAdjust="spacing" textLength="140.5625" x="1494.4456" y="703.8848">Konversi: 1 g = 0.001 kg</text><text fill="#000000" font-family="sans-serif" font-size="13" lengthAdjust="spacing" textLength="156.6221" x="1494.4456" y="720.2363">(otomatis dari grup "Berat")</text><rect fill="#F1F1F1" height="35.0938" rx="12.5" ry="12.5" style="stroke:#181818;stroke-width:0.5;" width="151.3906" x="1317.0549" y="664.667"/><text fill="#000000" font-family="sans-serif" font-size="12" lengthAdjust="spacing" textLength="131.3906" x="1327.0549" y="687.124">Hitung konversi otomatis</text><polygon fill="#F1F1F1" points="1593.5999,738.0928,1605.5999,750.0928,1593.5999,762.0928,1581.5999,750.0928,1593.5999,738.0928" style="stroke:#181818;stroke-width:0.5;"/><rect fill="#F1F1F1" height="35.0938" rx="12.5" ry="12.5" style="stroke:#181818;stroke-width:0.5;" width="125.416" x="1530.8918" y="946.2803"/><text fill="#000000" font-family="sans-serif" font-size="12" lengthAdjust="spacing" textLength="105.416" x="1540.8918" y="968.7373">Validasi data bahan</text><polygon fill="#F1F1F1" points="1566.0837,1001.374,1621.116,1001.374,1633.116,1013.374,1621.116,1025.374,1566.0837,1025.374,1554.0837,1013.374,1566.0837,1001.374" style="stroke:#181818;stroke-width:0.5;"/><text fill="#000000" font-family="sans-serif" font-size="11" lengthAdjust="spacing" textLength="55.0322" x="1566.0837" y="1017.875">Data valid?</text><text fill="#000000" font-family="sans-serif" font-size="11" lengthAdjust="spacing" textLength="13.4546" x="1540.6292" y="1010.957">Ya</text><text fill="#000000" font-family="sans-serif" font-size="11" lengthAdjust="spacing" textLength="26.8984" x="1633.116" y="1010.957">Tidak</text><rect fill="#F1F1F1" height="35.0938" rx="12.5" ry="12.5" style="stroke:#181818;stroke-width:0.5;" width="150.7461" x="1427.1907" y="1035.374"/><text fill="#000000" font-family="sans-serif" font-size="12" lengthAdjust="spacing" textLength="130.7461" x="1437.1907" y="1057.8311">Menyimpan ke database</text><rect fill="#F1F1F1" height="35.0938" rx="12.5" ry="12.5" style="stroke:#181818;stroke-width:0.5;" width="120.7285" x="1442.1995" y="1090.4678"/><text fill="#000000" font-family="sans-serif" font-size="12" lengthAdjust="spacing" textLength="100.7285" x="1452.1995" y="1112.9248">Set status: Kosong</text><rect fill="#F1F1F1" height="35.0938" rx="12.5" ry="12.5" style="stroke:#181818;stroke-width:0.5;" width="168.0781" x="1418.5247" y="1145.5615"/><text fill="#000000" font-family="sans-serif" font-size="12" lengthAdjust="spacing" textLength="148.0781" x="1428.5247" y="1168.0186">Menampilkan pesan sukses</text><rect fill="#F1F1F1" height="35.0938" rx="12.5" ry="12.5" style="stroke:#181818;stroke-width:0.5;" width="156.0664" x="1606.6028" y="1035.374"/><text fill="#000000" font-family="sans-serif" font-size="12" lengthAdjust="spacing" textLength="136.0664" x="1616.6028" y="1057.8311">Menampilkan pesan error</text><polygon fill="#F1F1F1" points="1593.5999,1186.6553,1605.5999,1198.6553,1593.5999,1210.6553,1581.5999,1198.6553,1593.5999,1186.6553" style="stroke:#181818;stroke-width:0.5;"/><rect fill="#F1F1F1" height="35.0938" rx="12.5" ry="12.5" style="stroke:#181818;stroke-width:0.5;" width="88.7129" x="1812.3518" y="387.3896"/><text fill="#000000" font-family="sans-serif" font-size="12" lengthAdjust="spacing" textLength="68.7129" x="1822.3518" y="409.8467">Validasi data</text><rect fill="#F1F1F1" height="35.0938" rx="12.5" ry="12.5" style="stroke:#181818;stroke-width:0.5;" width="122.0879" x="1795.6643" y="457.4834"/><text fill="#000000" font-family="sans-serif" font-size="12" lengthAdjust="spacing" textLength="102.0879" x="1805.6643" y="479.9404">Update data bahan</text><rect fill="#F1F1F1" height="35.0938" rx="12.5" ry="12.5" style="stroke:#181818;stroke-width:0.5;" width="168.0781" x="1772.6692" y="527.5771"/><text fill="#000000" font-family="sans-serif" font-size="12" lengthAdjust="spacing" textLength="148.0781" x="1782.6692" y="550.0342">Menampilkan pesan sukses</text><path d="M2128.8235,247.2021 L2128.8235,289.0811 L2108.8235,293.0811 L2128.8235,297.0811 L2128.8235,338.96 A0,0 0 0 0 2128.8235,338.96 L2253.8679,338.96 A0,0 0 0 0 2253.8679,338.96 L2253.8679,257.2021 L2243.8679,247.2021 L2128.8235,247.2021 A0,0 0 0 0 2128.8235,247.2021 " fill="#FEFFDD" style="stroke:#181818;stroke-width:0.5;"/><path d="M2243.8679,247.2021 L2243.8679,257.2021 L2253.8679,257.2021 L2243.8679,247.2021 " fill="#FEFFDD" style="stroke:#181818;stroke-width:0.5;"/><text fill="#000000" font-family="sans-serif" font-size="13" lengthAdjust="spacing" textLength="102.5845" x="2134.8235" y="265.6973">Info batch (FIFO):</text><text fill="#000000" font-family="sans-serif" font-size="13" lengthAdjust="spacing" textLength="96.8208" x="2134.8235" y="282.0488">- Tanggal masuk</text><text fill="#000000" font-family="sans-serif" font-size="13" lengthAdjust="spacing" textLength="104.0444" x="2134.8235" y="298.4004">- Kuantitas tersisa</text><text fill="#000000" font-family="sans-serif" font-size="13" lengthAdjust="spacing" textLength="101.1689" x="2134.8235" y="314.752">- Tanggal expired</text><text fill="#000000" font-family="sans-serif" font-size="13" lengthAdjust="spacing" textLength="67.1963" x="2134.8235" y="331.1035">- Harga beli</text><rect fill="#F1F1F1" height="35.0938" rx="12.5" ry="12.5" style="stroke:#181818;stroke-width:0.5;" width="158.0762" x="1950.7473" y="275.5342"/><text fill="#000000" font-family="sans-serif" font-size="12" lengthAdjust="spacing" textLength="138.0762" x="1960.7473" y="297.9912">Menampilkan daftar batch</text><rect fill="#F1F1F1" height="35.0938" rx="12.5" ry="12.5" style="stroke:#181818;stroke-width:0.5;" width="115.4023" x="1972.0842" y="563.0654"/><text fill="#000000" font-family="sans-serif" font-size="12" lengthAdjust="spacing" textLength="95.4023" x="1982.0842" y="585.5225">Menghapus batch</text><rect fill="#F1F1F1" height="35.0938" rx="12.5" ry="12.5" style="stroke:#181818;stroke-width:0.5;" width="146.7559" x="1956.4075" y="633.1592"/><text fill="#000000" font-family="sans-serif" font-size="12" lengthAdjust="spacing" textLength="126.7559" x="1966.4075" y="655.6162">Update total stok bahan</text><rect fill="#F1F1F1" height="35.0938" rx="12.5" ry="12.5" style="stroke:#181818;stroke-width:0.5;" width="116.7207" x="1971.425" y="703.2529"/><text fill="#000000" font-family="sans-serif" font-size="12" lengthAdjust="spacing" textLength="96.7207" x="1981.425" y="725.71">Catat log inventori</text><path d="M2505.9636,247.2021 L2505.9636,289.0811 L2485.9636,293.0811 L2505.9636,297.0811 L2505.9636,338.96 A0,0 0 0 0 2505.9636,338.96 L2659.9089,338.96 A0,0 0 0 0 2659.9089,338.96 L2659.9089,257.2021 L2649.9089,247.2021 L2505.9636,247.2021 A0,0 0 0 0 2505.9636,247.2021 " fill="#FEFFDD" style="stroke:#181818;stroke-width:0.5;"/><path d="M2649.9089,247.2021 L2649.9089,257.2021 L2659.9089,257.2021 L2649.9089,247.2021 " fill="#FEFFDD" style="stroke:#181818;stroke-width:0.5;"/><text fill="#000000" font-family="sans-serif" font-size="13" lengthAdjust="spacing" textLength="78.0508" x="2511.9636" y="265.6973">Log inventori:</text><text fill="#000000" font-family="sans-serif" font-size="13" lengthAdjust="spacing" textLength="125.7153" x="2511.9636" y="282.0488">- Masuk (dari belanja)</text><text fill="#000000" font-family="sans-serif" font-size="13" lengthAdjust="spacing" textLength="106.9263" x="2511.9636" y="298.4004">- Keluar (produksi)</text><text fill="#000000" font-family="sans-serif" font-size="13" lengthAdjust="spacing" textLength="132.9453" x="2511.9636" y="314.752">- Rusak/Hilang (hitung)</text><text fill="#000000" font-family="sans-serif" font-size="13" lengthAdjust="spacing" textLength="83.1099" x="2511.9636" y="331.1035">- Penyesuaian</text><rect fill="#F1F1F1" height="35.0938" rx="12.5" ry="12.5" style="stroke:#181818;stroke-width:0.5;" width="222.0957" x="2263.8679" y="275.5342"/><text fill="#000000" font-family="sans-serif" font-size="12" lengthAdjust="spacing" textLength="202.0957" x="2273.8679" y="297.9912">Menampilkan riwayat pergerakan stok</text><polygon fill="#F1F1F1" points="2787.1477,670.417,2927.2043,670.417,2939.2043,682.417,2927.2043,694.417,2787.1477,694.417,2775.1477,682.417,2787.1477,670.417" style="stroke:#181818;stroke-width:0.5;"/><text fill="#000000" font-family="sans-serif" font-size="11" lengthAdjust="spacing" textLength="140.0566" x="2787.1477" y="686.918">Bahan digunakan di produk?</text><text fill="#000000" font-family="sans-serif" font-size="11" lengthAdjust="spacing" textLength="13.4546" x="2761.6931" y="680">Ya</text><text fill="#000000" font-family="sans-serif" font-size="11" lengthAdjust="spacing" textLength="26.8984" x="2939.2043" y="680">Tidak</text><rect fill="#F1F1F1" height="35.0938" rx="12.5" ry="12.5" style="stroke:#181818;stroke-width:0.5;" width="151.4141" x="2687.5867" y="704.417"/><text fill="#000000" font-family="sans-serif" font-size="12" lengthAdjust="spacing" textLength="131.4141" x="2697.5867" y="726.874">Menampilkan peringatan</text><rect fill="#F1F1F1" height="35.0938" rx="12.5" ry="12.5" style="stroke:#181818;stroke-width:0.5;" width="186.7695" x="2669.9089" y="774.5107"/><text fill="#000000" font-family="sans-serif" font-size="12" lengthAdjust="spacing" textLength="166.7695" x="2679.9089" y="796.9678">Nonaktifkan bahan (soft delete)</text><rect fill="#F1F1F1" height="35.0938" rx="12.5" ry="12.5" style="stroke:#181818;stroke-width:0.5;" width="148.7598" x="2876.6785" y="704.417"/><text fill="#000000" font-family="sans-serif" font-size="12" lengthAdjust="spacing" textLength="128.7598" x="2886.6785" y="726.874">Hapus bahan permanen</text><polygon fill="#F1F1F1" points="2857.176,815.6045,2869.176,827.6045,2857.176,839.6045,2845.176,827.6045,2857.176,815.6045" style="stroke:#181818;stroke-width:0.5;"/><rect fill="#F1F1F1" height="35.0938" rx="12.5" ry="12.5" style="stroke:#181818;stroke-width:0.5;" width="168.0781" x="2773.137" y="874.6045"/><text fill="#000000" font-family="sans-serif" font-size="12" lengthAdjust="spacing" textLength="148.0781" x="2783.137" y="897.0615">Menampilkan pesan sukses</text><ellipse cx="2057.8101" cy="1261.6553" fill="none" rx="11" ry="11" style="stroke:#222222;stroke-width:1.0;"/><ellipse cx="2057.8101" cy="1261.6553" fill="#222222" rx="6" ry="6" style="stroke:#222222;stroke-width:1.0;"/><line style="stroke:#000000;stroke-width:1.5;" x1="1302.0549" x2="1302.0549" y1="12.4551" y2="1272.6553"/><line style="stroke:#000000;stroke-width:1.5;" x1="3029.4382" x2="3029.4382" y1="12.4551" y2="1272.6553"/><line style="stroke:#181818;stroke-width:1.0;" x1="842.1516" x2="842.1516" y1="60.0957" y2="80.0957"/><polygon fill="#181818" points="838.1516,70.0957,842.1516,80.0957,846.1516,70.0957,842.1516,74.0957" style="stroke:#181818;stroke-width:1.0;"/><line style="stroke:#181818;stroke-width:1.0;" x1="165.0684" x2="165.0684" y1="227.2021" y2="283.71"/><polygon fill="#181818" points="161.0684,273.71,165.0684,283.71,169.0684,273.71,165.0684,277.71" style="stroke:#181818;stroke-width:1.0;"/><line style="stroke:#181818;stroke-width:1.0;" x1="165.0684" x2="165.0684" y1="318.8037" y2="390.3115"/><polygon fill="#181818" points="161.0684,380.3115,165.0684,390.3115,169.0684,380.3115,165.0684,384.3115" style="stroke:#181818;stroke-width:1.0;"/><line style="stroke:#181818;stroke-width:1.0;" x1="165.0684" x2="165.0684" y1="484.4053" y2="522.2412"/><polygon fill="#181818" points="161.0684,512.2412,165.0684,522.2412,169.0684,512.2412,165.0684,516.2412" style="stroke:#181818;stroke-width:1.0;"/><line style="stroke:#181818;stroke-width:1.0;" x1="165.0684" x2="165.0684" y1="832.1865" y2="844.1865"/><line style="stroke:#181818;stroke-width:1.0;" x1="165.0684" x2="488.2998" y1="844.1865" y2="844.1865"/><polygon fill="#181818" points="484.2998,668.2959,488.2998,658.2959,492.2998,668.2959,488.2998,664.2959" style="stroke:#181818;stroke-width:1.0;"/><line style="stroke:#181818;stroke-width:1.0;" x1="488.2998" x2="488.2998" y1="472.4053" y2="844.1865"/><line style="stroke:#181818;stroke-width:1.0;" x1="488.2998" x2="228.4348" y1="472.4053" y2="472.4053"/><polygon fill="#181818" points="238.4348,468.4053,228.4348,472.4053,238.4348,476.4053,234.4348,472.4053" style="stroke:#181818;stroke-width:1.0;"/><line style="stroke:#181818;stroke-width:1.0;" x1="101.7019" x2="34" y1="472.4053" y2="472.4053"/><polygon fill="#181818" points="30,654.2959,34,664.2959,38,654.2959,34,658.2959" style="stroke:#181818;stroke-width:1.0;"/><line style="stroke:#181818;stroke-width:1.0;" x1="34" x2="34" y1="472.4053" y2="856.1865"/><line style="stroke:#181818;stroke-width:1.0;" x1="34" x2="165.0684" y1="856.1865" y2="856.1865"/><line style="stroke:#181818;stroke-width:1.0;" x1="165.0684" x2="165.0684" y1="856.1865" y2="891.1865"/><polygon fill="#181818" points="161.0684,881.1865,165.0684,891.1865,169.0684,881.1865,165.0684,885.1865" style="stroke:#181818;stroke-width:1.0;"/><line style="stroke:#181818;stroke-width:1.0;" x1="165.0684" x2="165.0684" y1="425.4053" y2="460.4053"/><polygon fill="#181818" points="161.0684,450.4053,165.0684,460.4053,169.0684,450.4053,165.0684,454.4053" style="stroke:#181818;stroke-width:1.0;"/><line style="stroke:#181818;stroke-width:1.0;" x1="596.6865" x2="596.6865" y1="227.2021" y2="247.2021"/><polygon fill="#181818" points="592.6865,237.2021,596.6865,247.2021,600.6865,237.2021,596.6865,241.2021" style="stroke:#181818;stroke-width:1.0;"/><line style="stroke:#181818;stroke-width:1.0;" x1="596.6865" x2="596.6865" y1="282.2959" y2="317.2959"/><polygon fill="#181818" points="592.6865,307.2959,596.6865,317.2959,600.6865,307.2959,596.6865,311.2959" style="stroke:#181818;stroke-width:1.0;"/><line style="stroke:#181818;stroke-width:1.0;" x1="814.127" x2="814.127" y1="457.9717" y2="492.9717"/><polygon fill="#181818" points="810.127,482.9717,814.127,492.9717,818.127,482.9717,814.127,486.9717" style="stroke:#181818;stroke-width:1.0;"/><line style="stroke:#181818;stroke-width:1.0;" x1="814.127" x2="814.127" y1="397.96" y2="422.8779"/><polygon fill="#181818" points="810.127,412.8779,814.127,422.8779,818.127,412.8779,814.127,416.8779" style="stroke:#181818;stroke-width:1.0;"/><line style="stroke:#181818;stroke-width:1.0;" x1="768.187" x2="705.0732" y1="385.96" y2="385.96"/><polygon fill="#181818" points="701.0732,570.6123,705.0732,580.6123,709.0732,570.6123,705.0732,574.6123" style="stroke:#181818;stroke-width:1.0;"/><line style="stroke:#181818;stroke-width:1.0;" x1="705.0732" x2="705.0732" y1="385.96" y2="775.2646"/><line style="stroke:#181818;stroke-width:1.0;" x1="705.0732" x2="802.127" y1="775.2646" y2="775.2646"/><polygon fill="#181818" points="792.127,771.2646,802.127,775.2646,792.127,779.2646,796.127,775.2646" style="stroke:#181818;stroke-width:1.0;"/><line style="stroke:#181818;stroke-width:1.0;" x1="1185.9944" x2="1185.9944" y1="565.3232" y2="600.3232"/><polygon fill="#181818" points="1181.9944,590.3232,1185.9944,600.3232,1189.9944,590.3232,1185.9944,594.3232" style="stroke:#181818;stroke-width:1.0;"/><line style="stroke:#181818;stroke-width:1.0;" x1="165.0684" x2="165.0684" y1="159.1895" y2="192.1084"/><polygon fill="#181818" points="161.0684,182.1084,165.0684,192.1084,169.0684,182.1084,165.0684,186.1084" style="stroke:#181818;stroke-width:1.0;"/><line style="stroke:#181818;stroke-width:1.0;" x1="596.6865" x2="596.6865" y1="159.1895" y2="192.1084"/><polygon fill="#181818" points="592.6865,182.1084,596.6865,192.1084,600.6865,182.1084,596.6865,186.1084" style="stroke:#181818;stroke-width:1.0;"/><line style="stroke:#181818;stroke-width:1.0;" x1="814.127" x2="814.127" y1="159.1895" y2="192.1084"/><polygon fill="#181818" points="810.127,182.1084,814.127,192.1084,818.127,182.1084,814.127,186.1084" style="stroke:#181818;stroke-width:1.0;"/><line style="stroke:#181818;stroke-width:1.0;" x1="814.127" x2="814.127" y1="787.2646" y2="1230.6553"/><polygon fill="#181818" points="810.127,1220.6553,814.127,1230.6553,818.127,1220.6553,814.127,1224.6553" style="stroke:#181818;stroke-width:1.0;"/><line style="stroke:#181818;stroke-width:1.0;" x1="1011.2356" x2="1011.2356" y1="159.1895" y2="192.1084"/><polygon fill="#181818" points="1007.2356,182.1084,1011.2356,192.1084,1015.2356,182.1084,1011.2356,186.1084" style="stroke:#181818;stroke-width:1.0;"/><line style="stroke:#181818;stroke-width:1.0;" x1="190.5176" x2="571.2373" y1="147.1895" y2="147.1895"/><polygon fill="#181818" points="561.2373,143.1895,571.2373,147.1895,561.2373,151.1895,565.2373,147.1895" style="stroke:#181818;stroke-width:1.0;"/><line style="stroke:#181818;stroke-width:1.0;" x1="622.1357" x2="788.6777" y1="147.1895" y2="147.1895"/><polygon fill="#181818" points="778.6777,143.1895,788.6777,147.1895,778.6777,151.1895,782.6777,147.1895" style="stroke:#181818;stroke-width:1.0;"/><line style="stroke:#181818;stroke-width:1.0;" x1="839.5762" x2="985.7864" y1="147.1895" y2="147.1895"/><polygon fill="#181818" points="975.7864,143.1895,985.7864,147.1895,975.7864,151.1895,979.7864,147.1895" style="stroke:#181818;stroke-width:1.0;"/><line style="stroke:#181818;stroke-width:1.0;" x1="842.1516" x2="842.1516" y1="115.1895" y2="120.1895"/><line style="stroke:#181818;stroke-width:1.0;" x1="842.1516" x2="165.0684" y1="120.1895" y2="120.1895"/><line style="stroke:#181818;stroke-width:1.0;" x1="165.0684" x2="165.0684" y1="120.1895" y2="135.1895"/><polygon fill="#181818" points="161.0684,125.1895,165.0684,135.1895,169.0684,125.1895,165.0684,129.1895" style="stroke:#181818;stroke-width:1.0;"/><line style="stroke:#181818;stroke-width:1.0;" x1="1036.6848" x2="1185.9944" y1="147.1895" y2="147.1895"/><line style="stroke:#181818;stroke-width:1.0;" x1="1185.9944" x2="1185.9944" y1="147.1895" y2="530.2295"/><polygon fill="#181818" points="1181.9944,520.2295,1185.9944,530.2295,1189.9944,520.2295,1185.9944,524.2295" style="stroke:#181818;stroke-width:1.0;"/><line style="stroke:#181818;stroke-width:1.0;" x1="814.127" x2="1297.0549" y1="1230.6553" y2="1230.6553"/><line style="stroke:#181818;stroke-width:1.0;" x1="1481.625" x2="1392.7502" y1="604.335" y2="604.335"/><line style="stroke:#181818;stroke-width:1.0;" x1="1392.7502" x2="1392.7502" y1="604.335" y2="664.667"/><polygon fill="#181818" points="1388.7502,654.667,1392.7502,664.667,1396.7502,654.667,1392.7502,658.667" style="stroke:#181818;stroke-width:1.0;"/><line style="stroke:#181818;stroke-width:1.0;" x1="1392.7502" x2="1392.7502" y1="699.7607" y2="750.0928"/><line style="stroke:#181818;stroke-width:1.0;" x1="1392.7502" x2="1581.5999" y1="750.0928" y2="750.0928"/><polygon fill="#181818" points="1571.5999,746.0928,1581.5999,750.0928,1571.5999,754.0928,1575.5999,750.0928" style="stroke:#181818;stroke-width:1.0;"/><line style="stroke:#181818;stroke-width:1.0;" x1="1502.5637" x2="1502.5637" y1="1070.4678" y2="1090.4678"/><polygon fill="#181818" points="1498.5637,1080.4678,1502.5637,1090.4678,1506.5637,1080.4678,1502.5637,1084.4678" style="stroke:#181818;stroke-width:1.0;"/><line style="stroke:#181818;stroke-width:1.0;" x1="1502.5637" x2="1502.5637" y1="1125.5615" y2="1145.5615"/><polygon fill="#181818" points="1498.5637,1135.5615,1502.5637,1145.5615,1506.5637,1135.5615,1502.5637,1139.5615" style="stroke:#181818;stroke-width:1.0;"/><line style="stroke:#181818;stroke-width:1.0;" x1="1554.0837" x2="1502.5637" y1="1013.374" y2="1013.374"/><line style="stroke:#181818;stroke-width:1.0;" x1="1502.5637" x2="1502.5637" y1="1013.374" y2="1035.374"/><polygon fill="#181818" points="1498.5637,1025.374,1502.5637,1035.374,1506.5637,1025.374,1502.5637,1029.374" style="stroke:#181818;stroke-width:1.0;"/><line style="stroke:#181818;stroke-width:1.0;" x1="1633.116" x2="1684.636" y1="1013.374" y2="1013.374"/><line style="stroke:#181818;stroke-width:1.0;" x1="1684.636" x2="1684.636" y1="1013.374" y2="1035.374"/><polygon fill="#181818" points="1680.636,1025.374,1684.636,1035.374,1688.636,1025.374,1684.636,1029.374" style="stroke:#181818;stroke-width:1.0;"/><line style="stroke:#181818;stroke-width:1.0;" x1="1502.5637" x2="1502.5637" y1="1180.6553" y2="1198.6553"/><line style="stroke:#181818;stroke-width:1.0;" x1="1502.5637" x2="1581.5999" y1="1198.6553" y2="1198.6553"/><polygon fill="#181818" points="1571.5999,1194.6553,1581.5999,1198.6553,1571.5999,1202.6553,1575.5999,1198.6553" style="stroke:#181818;stroke-width:1.0;"/><line style="stroke:#181818;stroke-width:1.0;" x1="1684.636" x2="1684.636" y1="1070.4678" y2="1198.6553"/><line style="stroke:#181818;stroke-width:1.0;" x1="1684.636" x2="1605.5999" y1="1198.6553" y2="1198.6553"/><polygon fill="#181818" points="1615.5999,1194.6553,1605.5999,1198.6553,1615.5999,1202.6553,1611.5999,1198.6553" style="stroke:#181818;stroke-width:1.0;"/><line style="stroke:#181818;stroke-width:1.0;" x1="1593.5999" x2="1593.5999" y1="981.374" y2="1001.374"/><polygon fill="#181818" points="1589.5999,991.374,1593.5999,1001.374,1597.5999,991.374,1593.5999,995.374" style="stroke:#181818;stroke-width:1.0;"/><line style="stroke:#181818;stroke-width:1.0;" x1="1856.7083" x2="1856.7083" y1="422.4834" y2="457.4834"/><polygon fill="#181818" points="1852.7083,447.4834,1856.7083,457.4834,1860.7083,447.4834,1856.7083,451.4834" style="stroke:#181818;stroke-width:1.0;"/><line style="stroke:#181818;stroke-width:1.0;" x1="1856.7083" x2="1856.7083" y1="492.5771" y2="527.5771"/><polygon fill="#181818" points="1852.7083,517.5771,1856.7083,527.5771,1860.7083,517.5771,1856.7083,521.5771" style="stroke:#181818;stroke-width:1.0;"/><line style="stroke:#181818;stroke-width:1.0;" x1="2029.7854" x2="2029.7854" y1="598.1592" y2="633.1592"/><polygon fill="#181818" points="2025.7854,623.1592,2029.7854,633.1592,2033.7854,623.1592,2029.7854,627.1592" style="stroke:#181818;stroke-width:1.0;"/><line style="stroke:#181818;stroke-width:1.0;" x1="2029.7854" x2="2029.7854" y1="668.2529" y2="703.2529"/><polygon fill="#181818" points="2025.7854,693.2529,2029.7854,703.2529,2033.7854,693.2529,2029.7854,697.2529" style="stroke:#181818;stroke-width:1.0;"/><line style="stroke:#181818;stroke-width:1.0;" x1="2763.2937" x2="2763.2937" y1="739.5107" y2="774.5107"/><polygon fill="#181818" points="2759.2937,764.5107,2763.2937,774.5107,2767.2937,764.5107,2763.2937,768.5107" style="stroke:#181818;stroke-width:1.0;"/><line style="stroke:#181818;stroke-width:1.0;" x1="2775.1477" x2="2763.2937" y1="682.417" y2="682.417"/><line style="stroke:#181818;stroke-width:1.0;" x1="2763.2937" x2="2763.2937" y1="682.417" y2="704.417"/><polygon fill="#181818" points="2759.2937,694.417,2763.2937,704.417,2767.2937,694.417,2763.2937,698.417" style="stroke:#181818;stroke-width:1.0;"/><line style="stroke:#181818;stroke-width:1.0;" x1="2939.2043" x2="2951.0583" y1="682.417" y2="682.417"/><line style="stroke:#181818;stroke-width:1.0;" x1="2951.0583" x2="2951.0583" y1="682.417" y2="704.417"/><polygon fill="#181818" points="2947.0583,694.417,2951.0583,704.417,2955.0583,694.417,2951.0583,698.417" style="stroke:#181818;stroke-width:1.0;"/><line style="stroke:#181818;stroke-width:1.0;" x1="2763.2937" x2="2763.2937" y1="809.6045" y2="827.6045"/><line style="stroke:#181818;stroke-width:1.0;" x1="2763.2937" x2="2845.176" y1="827.6045" y2="827.6045"/><polygon fill="#181818" points="2835.176,823.6045,2845.176,827.6045,2835.176,831.6045,2839.176,827.6045" style="stroke:#181818;stroke-width:1.0;"/><line style="stroke:#181818;stroke-width:1.0;" x1="2951.0583" x2="2951.0583" y1="739.5107" y2="827.6045"/><line style="stroke:#181818;stroke-width:1.0;" x1="2951.0583" x2="2869.176" y1="827.6045" y2="827.6045"/><polygon fill="#181818" points="2879.176,823.6045,2869.176,827.6045,2879.176,831.6045,2875.176,827.6045" style="stroke:#181818;stroke-width:1.0;"/><line style="stroke:#181818;stroke-width:1.0;" x1="2857.176" x2="2857.176" y1="839.6045" y2="874.6045"/><polygon fill="#181818" points="2853.176,864.6045,2857.176,874.6045,2861.176,864.6045,2857.176,868.6045" style="stroke:#181818;stroke-width:1.0;"/><line style="stroke:#181818;stroke-width:1.0;" x1="1593.5999" x2="1593.5999" y1="1210.6553" y2="1230.6553"/><polygon fill="#181818" points="1589.5999,1220.6553,1593.5999,1230.6553,1597.5999,1220.6553,1593.5999,1224.6553" style="stroke:#181818;stroke-width:1.0;"/><line style="stroke:#181818;stroke-width:1.0;" x1="1856.7083" x2="1856.7083" y1="562.6709" y2="1230.6553"/><polygon fill="#181818" points="1852.7083,1220.6553,1856.7083,1230.6553,1860.7083,1220.6553,1856.7083,1224.6553" style="stroke:#181818;stroke-width:1.0;"/><line style="stroke:#181818;stroke-width:1.0;" x1="2374.9158" x2="2374.9158" y1="310.6279" y2="1230.6553"/><polygon fill="#181818" points="2370.9158,1220.6553,2374.9158,1230.6553,2378.9158,1220.6553,2374.9158,1224.6553" style="stroke:#181818;stroke-width:1.0;"/><line style="stroke:#181818;stroke-width:1.0;" x1="2857.176" x2="2857.176" y1="909.6982" y2="1230.6553"/><polygon fill="#181818" points="2853.176,1220.6553,2857.176,1230.6553,2861.176,1220.6553,2857.176,1224.6553" style="stroke:#181818;stroke-width:1.0;"/><line style="stroke:#181818;stroke-width:1.0;" x1="1307.0549" x2="2857.176" y1="1230.6553" y2="1230.6553"/><line style="stroke:#181818;stroke-width:1.0;" x1="1705.5747" x2="1717.5747" y1="604.335" y2="604.335"/><line style="stroke:#181818;stroke-width:1.0;" x1="1717.5747" x2="1717.5747" y1="604.335" y2="622.335"/><line style="stroke:#181818;stroke-width:1.0;" x1="1717.5747" x2="365.918" y1="622.335" y2="622.335"/><line style="stroke:#181818;stroke-width:1.0;" x1="365.918" x2="365.918" y1="622.335" y2="636.335"/><polygon fill="#181818" points="361.918,626.335,365.918,636.335,369.918,626.335,365.918,630.335" style="stroke:#181818;stroke-width:1.0;"/><line style="stroke:#181818;stroke-width:1.0;" x1="365.918" x2="365.918" y1="671.4287" y2="732.0928"/><line style="stroke:#181818;stroke-width:1.0;" x1="365.918" x2="1623.5999" y1="732.0928" y2="732.0928"/><line style="stroke:#181818;stroke-width:1.0;" x1="1623.5999" x2="1623.5999" y1="732.0928" y2="750.0928"/><line style="stroke:#181818;stroke-width:1.0;" x1="1623.5999" x2="1605.5999" y1="750.0928" y2="750.0928"/><polygon fill="#181818" points="1615.5999,746.0928,1605.5999,750.0928,1615.5999,754.0928,1611.5999,750.0928" style="stroke:#181818;stroke-width:1.0;"/><line style="stroke:#181818;stroke-width:1.0;" x1="165.0684" x2="165.0684" y1="557.335" y2="574.835"/><line style="stroke:#181818;stroke-width:1.0;" x1="165.0684" x2="1593.5999" y1="574.835" y2="574.835"/><line style="stroke:#181818;stroke-width:1.0;" x1="1593.5999" x2="1593.5999" y1="574.835" y2="592.335"/><polygon fill="#181818" points="1589.5999,582.335,1593.5999,592.335,1597.5999,582.335,1593.5999,586.335" style="stroke:#181818;stroke-width:1.0;"/><line style="stroke:#181818;stroke-width:1.0;" x1="1593.5999" x2="1593.5999" y1="762.0928" y2="779.5928"/><line style="stroke:#181818;stroke-width:1.0;" x1="1593.5999" x2="165.0684" y1="779.5928" y2="779.5928"/><line style="stroke:#181818;stroke-width:1.0;" x1="165.0684" x2="165.0684" y1="779.5928" y2="797.0928"/><polygon fill="#181818" points="161.0684,787.0928,165.0684,797.0928,169.0684,787.0928,165.0684,791.0928" style="stroke:#181818;stroke-width:1.0;"/><line style="stroke:#181818;stroke-width:1.0;" x1="165.0684" x2="165.0684" y1="926.2803" y2="931.2803"/><line style="stroke:#181818;stroke-width:1.0;" x1="165.0684" x2="1593.5999" y1="931.2803" y2="931.2803"/><line style="stroke:#181818;stroke-width:1.0;" x1="1593.5999" x2="1593.5999" y1="931.2803" y2="946.2803"/><polygon fill="#181818" points="1589.5999,936.2803,1593.5999,946.2803,1597.5999,936.2803,1593.5999,940.2803" style="stroke:#181818;stroke-width:1.0;"/><line style="stroke:#181818;stroke-width:1.0;" x1="596.6865" x2="596.6865" y1="352.3896" y2="369.8896"/><line style="stroke:#181818;stroke-width:1.0;" x1="596.6865" x2="1856.7083" y1="369.8896" y2="369.8896"/><line style="stroke:#181818;stroke-width:1.0;" x1="1856.7083" x2="1856.7083" y1="369.8896" y2="387.3896"/><polygon fill="#181818" points="1852.7083,377.3896,1856.7083,387.3896,1860.7083,377.3896,1856.7083,381.3896" style="stroke:#181818;stroke-width:1.0;"/><line style="stroke:#181818;stroke-width:1.0;" x1="814.127" x2="814.127" y1="227.2021" y2="243.8682"/><line style="stroke:#181818;stroke-width:1.0;" x1="814.127" x2="2029.7854" y1="243.8682" y2="243.8682"/><line style="stroke:#181818;stroke-width:1.0;" x1="2029.7854" x2="2029.7854" y1="243.8682" y2="275.5342"/><polygon fill="#181818" points="2025.7854,265.5342,2029.7854,275.5342,2033.7854,265.5342,2029.7854,269.5342" style="stroke:#181818;stroke-width:1.0;"/><line style="stroke:#181818;stroke-width:1.0;" x1="814.127" x2="814.127" y1="528.0654" y2="545.5654"/><line style="stroke:#181818;stroke-width:1.0;" x1="814.127" x2="2029.7854" y1="545.5654" y2="545.5654"/><line style="stroke:#181818;stroke-width:1.0;" x1="2029.7854" x2="2029.7854" y1="545.5654" y2="563.0654"/><polygon fill="#181818" points="2025.7854,553.0654,2029.7854,563.0654,2033.7854,553.0654,2029.7854,557.0654" style="stroke:#181818;stroke-width:1.0;"/><line style="stroke:#181818;stroke-width:1.0;" x1="2029.7854" x2="2029.7854" y1="738.3467" y2="750.8057"/><line style="stroke:#181818;stroke-width:1.0;" x1="2029.7854" x2="814.127" y1="750.8057" y2="750.8057"/><line style="stroke:#181818;stroke-width:1.0;" x1="814.127" x2="814.127" y1="750.8057" y2="763.2646"/><polygon fill="#181818" points="810.127,753.2646,814.127,763.2646,818.127,753.2646,814.127,757.2646" style="stroke:#181818;stroke-width:1.0;"/><line style="stroke:#181818;stroke-width:1.0;" x1="2029.7854" x2="2029.7854" y1="310.6279" y2="342.2939"/><line style="stroke:#181818;stroke-width:1.0;" x1="2029.7854" x2="814.127" y1="342.2939" y2="342.2939"/><line style="stroke:#181818;stroke-width:1.0;" x1="814.127" x2="814.127" y1="342.2939" y2="373.96"/><polygon fill="#181818" points="810.127,363.96,814.127,373.96,818.127,363.96,814.127,367.96" style="stroke:#181818;stroke-width:1.0;"/><line style="stroke:#181818;stroke-width:1.0;" x1="1011.2356" x2="1011.2356" y1="227.2021" y2="243.8682"/><line style="stroke:#181818;stroke-width:1.0;" x1="1011.2356" x2="2374.9158" y1="243.8682" y2="243.8682"/><line style="stroke:#181818;stroke-width:1.0;" x1="2374.9158" x2="2374.9158" y1="243.8682" y2="275.5342"/><polygon fill="#181818" points="2370.9158,265.5342,2374.9158,275.5342,2378.9158,265.5342,2374.9158,269.5342" style="stroke:#181818;stroke-width:1.0;"/><line style="stroke:#181818;stroke-width:1.0;" x1="1185.9944" x2="1185.9944" y1="635.417" y2="652.917"/><line style="stroke:#181818;stroke-width:1.0;" x1="1185.9944" x2="2857.176" y1="652.917" y2="652.917"/><line style="stroke:#181818;stroke-width:1.0;" x1="2857.176" x2="2857.176" y1="652.917" y2="670.417"/><polygon fill="#181818" points="2853.176,660.417,2857.176,670.417,2861.176,660.417,2857.176,664.417" style="stroke:#181818;stroke-width:1.0;"/><line style="stroke:#181818;stroke-width:1.0;" x1="842.1516" x2="842.1516" y1="1230.6553" y2="1235.6553"/><line style="stroke:#181818;stroke-width:1.0;" x1="842.1516" x2="2057.8101" y1="1235.6553" y2="1235.6553"/><line style="stroke:#181818;stroke-width:1.0;" x1="2057.8101" x2="2057.8101" y1="1235.6553" y2="1250.6553"/><polygon fill="#181818" points="2053.8101,1240.6553,2057.8101,1250.6553,2061.8101,1240.6553,2057.8101,1244.6553" style="stroke:#181818;stroke-width:1.0;"/><text fill="#000000" font-family="sans-serif" font-size="18" lengthAdjust="spacing" textLength="69.0381" x="624.0084" y="31.1406">Inventori</text><text fill="#000000" font-family="sans-serif" font-size="18" lengthAdjust="spacing" textLength="55.0107" x="2138.2412" y="31.1406">Sistem</text><!--SRC=[hLPBZziu3BxxLn0zEOVjpbmT58i-jfZ1pBJ5JbkWHsQjoAnboT2ZtG7ouql9B-NP5jWSabWYAVBxFbBUtUflGdjZQLSuZzONrOFeDg55Q51XXnfUOPE-sx0k2jf2-R9rzDSAV2Cqb1-nss2pAe0_rPsY5hpfDaR1i35uhuVj1w4bEOAjiHriKjXD2XjtjV42BCd6fqU0D-XniAh6bJ_W7MSqhCrBT-Y5vFmFbX-zQQ4ZJLteviKtmhMMUaUP6VhW05jFsxGeT9rIIGzpsWmHGwB1iNNAUYugVNrlI8a9Yyb8eOmmaOFo2wx64pdS1r8q6vL1ar-jvztvp-wHd1VTRbw8o3yEJdLa1gGDFRI6-RECwHDgoK4xd9d93qq7tv0FR3Ix66OAFRdrdjaH3zFdjM6TDDN1wfXIy7nq1QqylUqJCima71hSZTbKS0qINi3Lywkhw-CuvPGi5yzSfzgVlH8M_RFzAlVuImlAHMgendRVSfT9Vm-d1tIXZMotdBedZsx1Z1iYe5eGu-D6uUopTo9szH5rZGHER536tmmvhezLQJIgKGiSTnBLalainoVg-ac6MGiLHyAfFgDYVqwydhifiusQIctsBPgTL4vsN2jIb0qwiG1GFGeFBdLHnMGwe-LwpncxdbH4inSkTb1edHWbTvAQ4px2McDdN4QyY-HzD8_-hhcVYbCSnC6MMc-0BJKCnaDg4koKpQWGk_WGi0o8NjXm2EK5s4V_Jpq_Y9DnBs1qfinxQj3pSFN_DhzKxKMHv1dKkELhWEqvyfd1VAktPZ20yktjs_UhPJwpnAL4nMt2DImZUkuZ7vl8uP6z-AydA-fv_GQjP9I4eZD3-R3S2D0DzZpAKsBdf3n14dFF1T14rqotF9MsPBl8OC-2IDiJOPV7T19GisII1Hq5u8tdYbsydp8P98lNh0qFoaYWgRmpdVBJFXW4yb85-__gmz9tVEB8t0EIns-w5BcKCrAvpqjPP98cB9Hfb3F9gB_EDB5QX0gimBAtfkP6e6Nd7oQX_VE6L6IkRD9rjkn-uFuKBY2DRm7xeXaGJ1BvxV6GgUEYCewXYxGCxqyroQ37U32KTdRUPkF0afOiYbmax_YQYAyhxNm3bCviFTH22IzMbqRhr27D49ilCw4Fv-g5UJGOyNkYwOiV]--></g></svg>