<svg xmlns="http://www.w3.org/2000/svg" xmlns:xlink="http://www.w3.org/1999/xlink" contentStyleType="text/css" height="1185px" preserveAspectRatio="none" style="width:3192px;height:1185px;background:#FFFFFF;" version="1.1" viewBox="0 0 3192 1185" width="3192px" zoomAndPan="magnify"><title>Class Diagram - Increment 2</title><defs/><g><text fill="#000000" font-family="sans-serif" font-size="14" font-weight="bold" lengthAdjust="spacing" textLength="188.2959" x="1494.8521" y="24.5332">Class Diagram - Increment 2</text><text fill="#000000" font-family="sans-serif" font-size="14" font-weight="bold" lengthAdjust="spacing" textLength="206.124" x="1485.938" y="42.1426">Modul Pendukung Operasional</text><!--cluster Extension: Autentikasi--><g id="cluster_Extension: Autentikasi"><path d="M200.5,149.7188 L352.417,149.7188 A3.75,3.75 0 0 1 354.917,152.2188 L361.917,173.3281 L731.5,173.3281 A2.5,2.5 0 0 1 734,175.8281 L734,363.2188 A2.5,2.5 0 0 1 731.5,365.7188 L200.5,365.7188 A2.5,2.5 0 0 1 198,363.2188 L198,152.2188 A2.5,2.5 0 0 1 200.5,149.7188 " fill="#ADD8E6" style="stroke:#000000;stroke-width:1.5;"/><line style="stroke:#000000;stroke-width:1.5;" x1="198" x2="361.917" y1="173.3281" y2="173.3281"/><text fill="#000000" font-family="sans-serif" font-size="14" font-weight="bold" lengthAdjust="spacing" textLength="150.917" x="202" y="166.252">Extension: Autentikasi</text></g><!--cluster Extension: Pelanggan & Poin--><g id="cluster_Extension: Pelanggan &amp; Poin"><path d="M497.5,514.2188 L692.9688,514.2188 A3.75,3.75 0 0 1 695.4688,516.7188 L702.4688,537.8281 L1173.5,537.8281 A2.5,2.5 0 0 1 1176,540.3281 L1176,1132.2188 A2.5,2.5 0 0 1 1173.5,1134.7188 L497.5,1134.7188 A2.5,2.5 0 0 1 495,1132.2188 L495,516.7188 A2.5,2.5 0 0 1 497.5,514.2188 " fill="#90EE90" style="stroke:#000000;stroke-width:1.5;"/><line style="stroke:#000000;stroke-width:1.5;" x1="495" x2="702.4688" y1="537.8281" y2="537.8281"/><text fill="#000000" font-family="sans-serif" font-size="14" font-weight="bold" lengthAdjust="spacing" textLength="194.4688" x="499" y="530.752">Extension: Pelanggan &amp; Poin</text></g><!--cluster Extension: Transaksi--><g id="cluster_Extension: Transaksi"><path d="M1202.5,543.7188 L1344.3271,543.7188 A3.75,3.75 0 0 1 1346.8271,546.2188 L1353.8271,567.3281 L2747.5,567.3281 A2.5,2.5 0 0 1 2750,569.8281 L2750,740.2188 A2.5,2.5 0 0 1 2747.5,742.7188 L1202.5,742.7188 A2.5,2.5 0 0 1 1200,740.2188 L1200,546.2188 A2.5,2.5 0 0 1 1202.5,543.7188 " fill="#FFB6C1" style="stroke:#000000;stroke-width:1.5;"/><line style="stroke:#000000;stroke-width:1.5;" x1="1200" x2="1353.8271" y1="567.3281" y2="567.3281"/><text fill="#000000" font-family="sans-serif" font-size="14" font-weight="bold" lengthAdjust="spacing" textLength="140.8271" x="1204" y="560.252">Extension: Transaksi</text></g><!--cluster Inventori: Stock Opname & Tracking--><g id="cluster_Inventori: Stock Opname &amp; Tracking"><path d="M8.5,461.2188 L251.4375,461.2188 A3.75,3.75 0 0 1 253.9375,463.7188 L260.9375,484.8281 L468.5,484.8281 A2.5,2.5 0 0 1 471,487.3281 L471,1158.7188 A2.5,2.5 0 0 1 468.5,1161.2188 L8.5,1161.2188 A2.5,2.5 0 0 1 6,1158.7188 L6,463.7188 A2.5,2.5 0 0 1 8.5,461.2188 " fill="#F5DEB3" style="stroke:#000000;stroke-width:1.5;"/><line style="stroke:#000000;stroke-width:1.5;" x1="6" x2="260.9375" y1="484.8281" y2="484.8281"/><text fill="#000000" font-family="sans-serif" font-size="14" font-weight="bold" lengthAdjust="spacing" textLength="241.9375" x="10" y="477.752">Inventori: Stock Opname &amp; Tracking</text></g><!--cluster Refund--><g id="cluster_Refund"><path d="M2351.5,833.2188 L2400.7139,833.2188 A3.75,3.75 0 0 1 2403.2139,835.7188 L2410.2139,856.8281 L2623.5,856.8281 A2.5,2.5 0 0 1 2626,859.3281 L2626,1175.7188 A2.5,2.5 0 0 1 2623.5,1178.2188 L2351.5,1178.2188 A2.5,2.5 0 0 1 2349,1175.7188 L2349,835.7188 A2.5,2.5 0 0 1 2351.5,833.2188 " fill="#FFE4E1" style="stroke:#000000;stroke-width:1.5;"/><line style="stroke:#000000;stroke-width:1.5;" x1="2349" x2="2410.2139" y1="856.8281" y2="856.8281"/><text fill="#000000" font-family="sans-serif" font-size="14" font-weight="bold" lengthAdjust="spacing" textLength="48.2139" x="2353" y="849.752">Refund</text></g><!--cluster Pengaturan--><g id="cluster_Pengaturan"><path d="M2776.5,62.2188 L2854.5137,62.2188 A3.75,3.75 0 0 1 2857.0137,64.7188 L2864.0137,85.8281 L3182.5,85.8281 A2.5,2.5 0 0 1 3185,88.3281 L3185,774.7188 A2.5,2.5 0 0 1 3182.5,777.2188 L2776.5,777.2188 A2.5,2.5 0 0 1 2774,774.7188 L2774,64.7188 A2.5,2.5 0 0 1 2776.5,62.2188 " fill="#D3D3D3" style="stroke:#000000;stroke-width:1.5;"/><line style="stroke:#000000;stroke-width:1.5;" x1="2774" x2="2864.0137" y1="85.8281" y2="85.8281"/><text fill="#000000" font-family="sans-serif" font-size="14" font-weight="bold" lengthAdjust="spacing" textLength="77.0137" x="2778" y="78.752">Pengaturan</text></g><!--class User--><g id="elem_User"><rect codeLine="13" fill="#F1F1F1" height="164.3594" id="User" rx="2.5" ry="2.5" style="stroke:#181818;stroke-width:0.5;" width="260.5957" x="214.5" y="185.7188"/><ellipse cx="309.5244" cy="207.0703" fill="#ADD1B2" rx="11" ry="11" style="stroke:#181818;stroke-width:1.0;"/><path d="M312.29,202.9453 Q312.4463,202.7266 312.6338,202.6172 Q312.8213,202.5078 313.04,202.5078 Q313.415,202.5078 313.6494,202.7734 Q313.8838,203.0234 313.8838,203.6328 L313.8838,205.0859 Q313.8838,205.6953 313.6494,205.9609 Q313.415,206.2266 313.04,206.2266 Q312.6963,206.2266 312.4932,206.0234 Q312.29,205.8359 312.1807,205.3203 Q312.1338,204.9609 311.9463,204.7734 Q311.6182,204.3984 311.0088,204.1797 Q310.3994,203.9609 309.7744,203.9609 Q309.0088,203.9609 308.3682,204.2891 Q307.7432,204.6172 307.2432,205.3672 Q306.7588,206.1172 306.7588,207.1484 L306.7588,208.2422 Q306.7588,209.4766 307.6494,210.3047 Q308.54,211.1172 310.1338,211.1172 Q311.0713,211.1172 311.7275,210.8672 Q312.1182,210.7109 312.54,210.2734 Q312.8057,210.0078 312.9463,209.9297 Q313.1025,209.8516 313.3057,209.8516 Q313.6338,209.8516 313.8838,210.1172 Q314.1494,210.3672 314.1494,210.7109 Q314.1494,211.0547 313.8057,211.4609 Q313.3057,212.0391 312.5088,212.3672 Q311.4307,212.8203 310.1338,212.8203 Q308.6182,212.8203 307.415,212.1953 Q306.4307,211.6953 305.7432,210.6328 Q305.0557,209.5547 305.0557,208.2734 L305.0557,207.1172 Q305.0557,205.7891 305.665,204.6484 Q306.29,203.4922 307.3838,202.8828 Q308.4775,202.2578 309.7119,202.2578 Q310.4463,202.2578 311.0869,202.4297 Q311.7432,202.5859 312.29,202.9453 Z " fill="#000000"/><text fill="#000000" font-family="sans-serif" font-size="12" font-style="italic" lengthAdjust="spacing" textLength="66.0469" x="328.0244" y="203.1758">&#171;Extension&#187;</text><text fill="#000000" font-family="sans-serif" font-size="14" lengthAdjust="spacing" textLength="29.5586" x="346.2686" y="220.3457">User</text><line style="stroke:#181818;stroke-width:0.5;" x1="215.5" x2="474.0957" y1="228.4219" y2="228.4219"/><text fill="#000000" font-family="sans-serif" font-size="14" lengthAdjust="spacing" textLength="146.3027" x="220.5" y="246.9551">-invitation_token: String</text><text fill="#000000" font-family="sans-serif" font-size="14" lengthAdjust="spacing" textLength="190.6406" x="220.5" y="264.5645">-invitation_sent_at: Timestamp</text><text fill="#000000" font-family="sans-serif" font-size="14" lengthAdjust="spacing" textLength="157.1719" x="220.5" y="282.1738">-activated_at: Timestamp</text><line style="stroke:#181818;stroke-width:1.0;" x1="215.5" x2="474.0957" y1="289.25" y2="289.25"/><text fill="#000000" font-family="sans-serif" font-size="14" lengthAdjust="spacing" textLength="137.3545" x="220.5" y="307.7832">+sendInvitation(): void</text><text fill="#000000" font-family="sans-serif" font-size="14" lengthAdjust="spacing" textLength="248.5957" x="220.5" y="325.3926">+activateWithPassword(password): void</text><text fill="#000000" font-family="sans-serif" font-size="14" lengthAdjust="spacing" textLength="225.3057" x="220.5" y="343.002">+hasValidInvitationToken(): Boolean</text></g><g id="elem_GMN4"><path d="M510.5,238.2188 L510.5,264.2188 L475.56,268.2188 L510.5,272.2188 L510.5,297.2734 A0,0 0 0 0 510.5,297.2734 L717.1943,297.2734 A0,0 0 0 0 717.1943,297.2734 L717.1943,248.2188 L707.1943,238.2188 L510.5,238.2188 A0,0 0 0 0 510.5,238.2188 " fill="#FEFFDD" style="stroke:#181818;stroke-width:0.5;"/><path d="M707.1943,238.2188 L707.1943,248.2188 L717.1943,248.2188 L707.1943,238.2188 " fill="#FEFFDD" style="stroke:#181818;stroke-width:0.5;"/><text fill="#000000" font-family="sans-serif" font-size="13" lengthAdjust="spacing" textLength="185.6943" x="516.5" y="256.7139">Extension dari User Increment 1</text><text fill="#000000" font-family="sans-serif" font-size="13" lengthAdjust="spacing" textLength="172.7134" x="516.5" y="273.0654">Menambahkan field &amp; method</text><text fill="#000000" font-family="sans-serif" font-size="13" lengthAdjust="spacing" textLength="160.3989" x="516.5" y="289.417">untuk aktivasi akun (UC-17)</text></g><!--class Customer--><g id="elem_Customer"><rect codeLine="31" fill="#F1F1F1" height="129.1406" id="Customer" rx="2.5" ry="2.5" style="stroke:#181818;stroke-width:0.5;" width="196.8369" x="690.5" y="588.7188"/><ellipse cx="753.645" cy="610.0703" fill="#ADD1B2" rx="11" ry="11" style="stroke:#181818;stroke-width:1.0;"/><path d="M756.4106,605.9453 Q756.5669,605.7266 756.7544,605.6172 Q756.9419,605.5078 757.1606,605.5078 Q757.5356,605.5078 757.77,605.7734 Q758.0044,606.0234 758.0044,606.6328 L758.0044,608.0859 Q758.0044,608.6953 757.77,608.9609 Q757.5356,609.2266 757.1606,609.2266 Q756.8169,609.2266 756.6138,609.0234 Q756.4106,608.8359 756.3013,608.3203 Q756.2544,607.9609 756.0669,607.7734 Q755.7388,607.3984 755.1294,607.1797 Q754.52,606.9609 753.895,606.9609 Q753.1294,606.9609 752.4888,607.2891 Q751.8638,607.6172 751.3638,608.3672 Q750.8794,609.1172 750.8794,610.1484 L750.8794,611.2422 Q750.8794,612.4766 751.77,613.3047 Q752.6606,614.1172 754.2544,614.1172 Q755.1919,614.1172 755.8481,613.8672 Q756.2388,613.7109 756.6606,613.2734 Q756.9263,613.0078 757.0669,612.9297 Q757.2231,612.8516 757.4263,612.8516 Q757.7544,612.8516 758.0044,613.1172 Q758.27,613.3672 758.27,613.7109 Q758.27,614.0547 757.9263,614.4609 Q757.4263,615.0391 756.6294,615.3672 Q755.5513,615.8203 754.2544,615.8203 Q752.7388,615.8203 751.5356,615.1953 Q750.5513,614.6953 749.8638,613.6328 Q749.1763,612.5547 749.1763,611.2734 L749.1763,610.1172 Q749.1763,608.7891 749.7856,607.6484 Q750.4106,606.4922 751.5044,605.8828 Q752.5981,605.2578 753.8325,605.2578 Q754.5669,605.2578 755.2075,605.4297 Q755.8638,605.5859 756.4106,605.9453 Z " fill="#000000"/><text fill="#000000" font-family="sans-serif" font-size="12" font-style="italic" lengthAdjust="spacing" textLength="66.0469" x="772.145" y="606.1758">&#171;Extension&#187;</text><text fill="#000000" font-family="sans-serif" font-size="14" lengthAdjust="spacing" textLength="60.6826" x="774.8271" y="623.3457">Customer</text><line style="stroke:#181818;stroke-width:0.5;" x1="691.5" x2="886.3369" y1="631.4219" y2="631.4219"/><text fill="#000000" font-family="sans-serif" font-size="14" lengthAdjust="spacing" textLength="100.3652" x="696.5" y="649.9551">-points: Decimal</text><line style="stroke:#181818;stroke-width:1.0;" x1="691.5" x2="886.3369" y1="657.0313" y2="657.0313"/><text fill="#000000" font-family="sans-serif" font-size="14" lengthAdjust="spacing" textLength="176.2236" x="696.5" y="675.5645">+pointsHistories(): HasMany</text><text fill="#000000" font-family="sans-serif" font-size="14" lengthAdjust="spacing" textLength="159.9268" x="696.5" y="693.1738">+addPoints(amount): void</text><text fill="#000000" font-family="sans-serif" font-size="14" lengthAdjust="spacing" textLength="184.8369" x="696.5" y="710.7832">+usePoints(amount): Boolean</text></g><g id="elem_GMN9"><path d="M922.5,623.7188 L922.5,649.2188 L887.51,653.2188 L922.5,657.2188 L922.5,682.7734 A0,0 0 0 0 922.5,682.7734 L1159.5425,682.7734 A0,0 0 0 0 1159.5425,682.7734 L1159.5425,633.7188 L1149.5425,623.7188 L922.5,623.7188 A0,0 0 0 0 922.5,623.7188 " fill="#FEFFDD" style="stroke:#181818;stroke-width:0.5;"/><path d="M1149.5425,623.7188 L1149.5425,633.7188 L1159.5425,633.7188 L1149.5425,623.7188 " fill="#FEFFDD" style="stroke:#181818;stroke-width:0.5;"/><text fill="#000000" font-family="sans-serif" font-size="13" lengthAdjust="spacing" textLength="214.5952" x="928.5" y="642.2139">Extension dari Customer Increment 1</text><text fill="#000000" font-family="sans-serif" font-size="13" lengthAdjust="spacing" textLength="151.7598" x="928.5" y="658.5654">Menambahkan field points</text><text fill="#000000" font-family="sans-serif" font-size="13" lengthAdjust="spacing" textLength="216.0425" x="928.5" y="674.917">dan manajemen poin (UC-15, UC-20)</text></g><!--class PointsHistory--><g id="elem_PointsHistory"><rect codeLine="45" fill="#F1F1F1" height="206.4844" id="PointsHistory" rx="2.5" ry="2.5" style="stroke:#181818;stroke-width:0.5;" width="172.6924" x="844.5" y="912.7188"/><ellipse cx="885.7006" cy="928.7188" fill="#ADD1B2" rx="11" ry="11" style="stroke:#181818;stroke-width:1.0;"/><path d="M888.4663,924.5938 Q888.6225,924.375 888.81,924.2656 Q888.9975,924.1563 889.2163,924.1563 Q889.5913,924.1563 889.8256,924.4219 Q890.06,924.6719 890.06,925.2813 L890.06,926.7344 Q890.06,927.3438 889.8256,927.6094 Q889.5913,927.875 889.2163,927.875 Q888.8725,927.875 888.6694,927.6719 Q888.4663,927.4844 888.3569,926.9688 Q888.31,926.6094 888.1225,926.4219 Q887.7944,926.0469 887.185,925.8281 Q886.5756,925.6094 885.9506,925.6094 Q885.185,925.6094 884.5444,925.9375 Q883.9194,926.2656 883.4194,927.0156 Q882.935,927.7656 882.935,928.7969 L882.935,929.8906 Q882.935,931.125 883.8256,931.9531 Q884.7163,932.7656 886.31,932.7656 Q887.2475,932.7656 887.9038,932.5156 Q888.2944,932.3594 888.7163,931.9219 Q888.9819,931.6563 889.1225,931.5781 Q889.2788,931.5 889.4819,931.5 Q889.81,931.5 890.06,931.7656 Q890.3256,932.0156 890.3256,932.3594 Q890.3256,932.7031 889.9819,933.1094 Q889.4819,933.6875 888.685,934.0156 Q887.6069,934.4688 886.31,934.4688 Q884.7944,934.4688 883.5913,933.8438 Q882.6069,933.3438 881.9194,932.2813 Q881.2319,931.2031 881.2319,929.9219 L881.2319,928.7656 Q881.2319,927.4375 881.8413,926.2969 Q882.4663,925.1406 883.56,924.5313 Q884.6538,923.9063 885.8881,923.9063 Q886.6225,923.9063 887.2631,924.0781 Q887.9194,924.2344 888.4663,924.5938 Z " fill="#000000"/><text fill="#000000" font-family="sans-serif" font-size="14" lengthAdjust="spacing" textLength="82.4688" x="905.523" y="934.4473">PointsHistory</text><line style="stroke:#181818;stroke-width:0.5;" x1="845.5" x2="1016.1924" y1="944.7188" y2="944.7188"/><text fill="#000000" font-family="sans-serif" font-size="14" lengthAdjust="spacing" textLength="57.5586" x="850.5" y="963.252">-id: UUID</text><text fill="#000000" font-family="sans-serif" font-size="14" lengthAdjust="spacing" textLength="87.9443" x="850.5" y="980.8613">-phone: String</text><text fill="#000000" font-family="sans-serif" font-size="14" lengthAdjust="spacing" textLength="133.8271" x="850.5" y="998.4707">-transaction_id: UUID</text><text fill="#000000" font-family="sans-serif" font-size="14" lengthAdjust="spacing" textLength="105.0547" x="850.5" y="1016.0801">-action_id: String</text><text fill="#000000" font-family="sans-serif" font-size="14" lengthAdjust="spacing" textLength="86.3721" x="850.5" y="1033.6895">-action: String</text><text fill="#000000" font-family="sans-serif" font-size="14" lengthAdjust="spacing" textLength="93.3857" x="850.5" y="1051.2988">-points: Integer</text><text fill="#000000" font-family="sans-serif" font-size="14" lengthAdjust="spacing" textLength="87.1445" x="850.5" y="1068.9082">-image: String</text><line style="stroke:#181818;stroke-width:1.0;" x1="845.5" x2="1016.1924" y1="1075.9844" y2="1075.9844"/><text fill="#000000" font-family="sans-serif" font-size="14" lengthAdjust="spacing" textLength="149.7822" x="850.5" y="1094.5176">+customer(): BelongsTo</text><text fill="#000000" font-family="sans-serif" font-size="14" lengthAdjust="spacing" textLength="160.6924" x="850.5" y="1112.127">+transaction(): BelongsTo</text></g><!--class Notification--><g id="elem_Notification"><rect codeLine="58" fill="#F1F1F1" height="206.4844" id="Notification" rx="2.5" ry="2.5" style="stroke:#181818;stroke-width:0.5;" width="143.8789" x="511" y="550.2188"/><ellipse cx="545.1808" cy="566.2188" fill="#ADD1B2" rx="11" ry="11" style="stroke:#181818;stroke-width:1.0;"/><path d="M547.9464,562.0938 Q548.1027,561.875 548.2902,561.7656 Q548.4777,561.6563 548.6964,561.6563 Q549.0714,561.6563 549.3058,561.9219 Q549.5402,562.1719 549.5402,562.7813 L549.5402,564.2344 Q549.5402,564.8438 549.3058,565.1094 Q549.0714,565.375 548.6964,565.375 Q548.3527,565.375 548.1496,565.1719 Q547.9464,564.9844 547.8371,564.4688 Q547.7902,564.1094 547.6027,563.9219 Q547.2746,563.5469 546.6652,563.3281 Q546.0558,563.1094 545.4308,563.1094 Q544.6652,563.1094 544.0246,563.4375 Q543.3996,563.7656 542.8996,564.5156 Q542.4152,565.2656 542.4152,566.2969 L542.4152,567.3906 Q542.4152,568.625 543.3058,569.4531 Q544.1964,570.2656 545.7902,570.2656 Q546.7277,570.2656 547.3839,570.0156 Q547.7746,569.8594 548.1964,569.4219 Q548.4621,569.1563 548.6027,569.0781 Q548.7589,569 548.9621,569 Q549.2902,569 549.5402,569.2656 Q549.8058,569.5156 549.8058,569.8594 Q549.8058,570.2031 549.4621,570.6094 Q548.9621,571.1875 548.1652,571.5156 Q547.0871,571.9688 545.7902,571.9688 Q544.2746,571.9688 543.0714,571.3438 Q542.0871,570.8438 541.3996,569.7813 Q540.7121,568.7031 540.7121,567.4219 L540.7121,566.2656 Q540.7121,564.9375 541.3214,563.7969 Q541.9464,562.6406 543.0402,562.0313 Q544.1339,561.4063 545.3683,561.4063 Q546.1027,561.4063 546.7433,561.5781 Q547.3996,561.7344 547.9464,562.0938 Z " fill="#000000"/><text fill="#000000" font-family="sans-serif" font-size="14" lengthAdjust="spacing" textLength="69.2549" x="563.4432" y="571.9473">Notification</text><line style="stroke:#181818;stroke-width:0.5;" x1="512" x2="653.8789" y1="582.2188" y2="582.2188"/><text fill="#000000" font-family="sans-serif" font-size="14" lengthAdjust="spacing" textLength="57.5586" x="517" y="600.752">-id: UUID</text><text fill="#000000" font-family="sans-serif" font-size="14" lengthAdjust="spacing" textLength="92.5791" x="517" y="618.3613">-user_id: UUID</text><text fill="#000000" font-family="sans-serif" font-size="14" lengthAdjust="spacing" textLength="70.7998" x="517" y="635.9707">-title: String</text><text fill="#000000" font-family="sans-serif" font-size="14" lengthAdjust="spacing" textLength="70.0273" x="517" y="653.5801">-body: Text</text><text fill="#000000" font-family="sans-serif" font-size="14" lengthAdjust="spacing" textLength="75.4756" x="517" y="671.1895">-type: String</text><text fill="#000000" font-family="sans-serif" font-size="14" lengthAdjust="spacing" textLength="109.7373" x="517" y="688.7988">-is_read: Boolean</text><text fill="#000000" font-family="sans-serif" font-size="14" lengthAdjust="spacing" textLength="119.8271" x="517" y="706.4082">-status: TinyInteger</text><line style="stroke:#181818;stroke-width:1.0;" x1="512" x2="653.8789" y1="713.4844" y2="713.4844"/><text fill="#000000" font-family="sans-serif" font-size="14" lengthAdjust="spacing" textLength="131.8789" x="517" y="732.0176">+markAsRead(): void</text><text fill="#000000" font-family="sans-serif" font-size="14" lengthAdjust="spacing" textLength="119.4443" x="517" y="749.627">+user(): BelongsTo</text></g><!--class Transaction--><g id="elem_Transaction"><rect codeLine="73" fill="#F1F1F1" height="146.75" id="Transaction" rx="2.5" ry="2.5" style="stroke:#181818;stroke-width:0.5;" width="188.2236" x="2263" y="579.7188"/><ellipse cx="2316.2896" cy="601.0703" fill="#ADD1B2" rx="11" ry="11" style="stroke:#181818;stroke-width:1.0;"/><path d="M2319.0552,596.9453 Q2319.2114,596.7266 2319.3989,596.6172 Q2319.5864,596.5078 2319.8052,596.5078 Q2320.1802,596.5078 2320.4146,596.7734 Q2320.6489,597.0234 2320.6489,597.6328 L2320.6489,599.0859 Q2320.6489,599.6953 2320.4146,599.9609 Q2320.1802,600.2266 2319.8052,600.2266 Q2319.4614,600.2266 2319.2583,600.0234 Q2319.0552,599.8359 2318.9458,599.3203 Q2318.8989,598.9609 2318.7114,598.7734 Q2318.3833,598.3984 2317.7739,598.1797 Q2317.1646,597.9609 2316.5396,597.9609 Q2315.7739,597.9609 2315.1333,598.2891 Q2314.5083,598.6172 2314.0083,599.3672 Q2313.5239,600.1172 2313.5239,601.1484 L2313.5239,602.2422 Q2313.5239,603.4766 2314.4146,604.3047 Q2315.3052,605.1172 2316.8989,605.1172 Q2317.8364,605.1172 2318.4927,604.8672 Q2318.8833,604.7109 2319.3052,604.2734 Q2319.5708,604.0078 2319.7114,603.9297 Q2319.8677,603.8516 2320.0708,603.8516 Q2320.3989,603.8516 2320.6489,604.1172 Q2320.9146,604.3672 2320.9146,604.7109 Q2320.9146,605.0547 2320.5708,605.4609 Q2320.0708,606.0391 2319.2739,606.3672 Q2318.1958,606.8203 2316.8989,606.8203 Q2315.3833,606.8203 2314.1802,606.1953 Q2313.1958,605.6953 2312.5083,604.6328 Q2311.8208,603.5547 2311.8208,602.2734 L2311.8208,601.1172 Q2311.8208,599.7891 2312.4302,598.6484 Q2313.0552,597.4922 2314.1489,596.8828 Q2315.2427,596.2578 2316.4771,596.2578 Q2317.2114,596.2578 2317.8521,596.4297 Q2318.5083,596.5859 2319.0552,596.9453 Z " fill="#000000"/><text fill="#000000" font-family="sans-serif" font-size="12" font-style="italic" lengthAdjust="spacing" textLength="66.0469" x="2340.3384" y="597.1758">&#171;Extension&#187;</text><text fill="#000000" font-family="sans-serif" font-size="14" lengthAdjust="spacing" textLength="73.1445" x="2336.7896" y="614.3457">Transaction</text><line style="stroke:#181818;stroke-width:0.5;" x1="2264" x2="2450.2236" y1="622.4219" y2="622.4219"/><text fill="#000000" font-family="sans-serif" font-size="14" lengthAdjust="spacing" textLength="131.5303" x="2269" y="640.9551">-points_used: Integer</text><text fill="#000000" font-family="sans-serif" font-size="14" lengthAdjust="spacing" textLength="160.2959" x="2269" y="658.5645">-points_discount: Decimal</text><text fill="#000000" font-family="sans-serif" font-size="14" lengthAdjust="spacing" textLength="136.9512" x="2269" y="676.1738">-total_refund: Decimal</text><line style="stroke:#181818;stroke-width:1.0;" x1="2264" x2="2450.2236" y1="683.25" y2="683.25"/><text fill="#000000" font-family="sans-serif" font-size="14" lengthAdjust="spacing" textLength="116.334" x="2269" y="701.7832">+refund(): HasOne</text><text fill="#000000" font-family="sans-serif" font-size="14" lengthAdjust="spacing" textLength="176.2236" x="2269" y="719.3926">+pointsHistories(): HasMany</text></g><g id="elem_GMN16"><path d="M2486,623.7188 L2486,649.2188 L2451.21,653.2188 L2486,657.2188 L2486,682.7734 A0,0 0 0 0 2486,682.7734 L2733.897,682.7734 A0,0 0 0 0 2733.897,682.7734 L2733.897,633.7188 L2723.897,623.7188 L2486,623.7188 A0,0 0 0 0 2486,623.7188 " fill="#FEFFDD" style="stroke:#181818;stroke-width:0.5;"/><path d="M2723.897,623.7188 L2723.897,633.7188 L2733.897,633.7188 L2723.897,623.7188 " fill="#FEFFDD" style="stroke:#181818;stroke-width:0.5;"/><text fill="#000000" font-family="sans-serif" font-size="13" lengthAdjust="spacing" textLength="226.167" x="2492" y="642.2139">Extension dari Transaction Increment 1</text><text fill="#000000" font-family="sans-serif" font-size="13" lengthAdjust="spacing" textLength="226.897" x="2492" y="658.5654">Menambahkan field untuk poin (UC-20)</text><text fill="#000000" font-family="sans-serif" font-size="13" lengthAdjust="spacing" textLength="111.998" x="2492" y="674.917">dan refund (UC-21)</text></g><!--class TransactionDetail--><g id="elem_TransactionDetail"><rect codeLine="88" fill="#F1F1F1" height="93.9219" id="TransactionDetail" rx="2.5" ry="2.5" style="stroke:#181818;stroke-width:0.5;" width="219.3887" x="1693.5" y="606.2188"/><ellipse cx="1744.4756" cy="627.5703" fill="#ADD1B2" rx="11" ry="11" style="stroke:#181818;stroke-width:1.0;"/><path d="M1747.2412,623.4453 Q1747.3975,623.2266 1747.585,623.1172 Q1747.7725,623.0078 1747.9912,623.0078 Q1748.3662,623.0078 1748.6006,623.2734 Q1748.835,623.5234 1748.835,624.1328 L1748.835,625.5859 Q1748.835,626.1953 1748.6006,626.4609 Q1748.3662,626.7266 1747.9912,626.7266 Q1747.6475,626.7266 1747.4443,626.5234 Q1747.2412,626.3359 1747.1318,625.8203 Q1747.085,625.4609 1746.8975,625.2734 Q1746.5693,624.8984 1745.96,624.6797 Q1745.3506,624.4609 1744.7256,624.4609 Q1743.96,624.4609 1743.3193,624.7891 Q1742.6943,625.1172 1742.1943,625.8672 Q1741.71,626.6172 1741.71,627.6484 L1741.71,628.7422 Q1741.71,629.9766 1742.6006,630.8047 Q1743.4912,631.6172 1745.085,631.6172 Q1746.0225,631.6172 1746.6787,631.3672 Q1747.0693,631.2109 1747.4912,630.7734 Q1747.7568,630.5078 1747.8975,630.4297 Q1748.0537,630.3516 1748.2568,630.3516 Q1748.585,630.3516 1748.835,630.6172 Q1749.1006,630.8672 1749.1006,631.2109 Q1749.1006,631.5547 1748.7568,631.9609 Q1748.2568,632.5391 1747.46,632.8672 Q1746.3818,633.3203 1745.085,633.3203 Q1743.5693,633.3203 1742.3662,632.6953 Q1741.3818,632.1953 1740.6943,631.1328 Q1740.0068,630.0547 1740.0068,628.7734 L1740.0068,627.6172 Q1740.0068,626.2891 1740.6162,625.1484 Q1741.2412,623.9922 1742.335,623.3828 Q1743.4287,622.7578 1744.6631,622.7578 Q1745.3975,622.7578 1746.0381,622.9297 Q1746.6943,623.0859 1747.2412,623.4453 Z " fill="#000000"/><text fill="#000000" font-family="sans-serif" font-size="12" font-style="italic" lengthAdjust="spacing" textLength="66.0469" x="1786.4209" y="623.6758">&#171;Extension&#187;</text><text fill="#000000" font-family="sans-serif" font-size="14" lengthAdjust="spacing" textLength="108.9375" x="1764.9756" y="640.8457">TransactionDetail</text><line style="stroke:#181818;stroke-width:0.5;" x1="1694.5" x2="1911.8887" y1="648.9219" y2="648.9219"/><text fill="#000000" font-family="sans-serif" font-size="14" lengthAdjust="spacing" textLength="187.5508" x="1699.5" y="667.4551">-refund_quantity: SmallInteger</text><line style="stroke:#181818;stroke-width:1.0;" x1="1694.5" x2="1911.8887" y1="674.5313" y2="674.5313"/><text fill="#000000" font-family="sans-serif" font-size="14" lengthAdjust="spacing" textLength="207.3887" x="1699.5" y="693.0645">+getRemainingQuantity(): Integer</text></g><g id="elem_GMN20"><path d="M1948,631.7188 L1948,649.2188 L1912.78,653.2188 L1948,657.2188 L1948,674.4219 A0,0 0 0 0 1948,674.4219 L2228.4033,674.4219 A0,0 0 0 0 2228.4033,674.4219 L2228.4033,641.7188 L2218.4033,631.7188 L1948,631.7188 A0,0 0 0 0 1948,631.7188 " fill="#FEFFDD" style="stroke:#181818;stroke-width:0.5;"/><path d="M2218.4033,631.7188 L2218.4033,641.7188 L2228.4033,641.7188 L2218.4033,631.7188 " fill="#FEFFDD" style="stroke:#181818;stroke-width:0.5;"/><text fill="#000000" font-family="sans-serif" font-size="13" lengthAdjust="spacing" textLength="259.4033" x="1954" y="650.2139">Extension dari TransactionDetail Increment 1</text><text fill="#000000" font-family="sans-serif" font-size="13" lengthAdjust="spacing" textLength="256.5278" x="1954" y="666.5654">Menambahkan field refund_quantity (UC-21)</text></g><!--class Shift--><g id="elem_Shift"><rect codeLine="99" fill="#F1F1F1" height="111.5313" id="Shift" rx="2.5" ry="2.5" style="stroke:#181818;stroke-width:0.5;" width="168.3994" x="1216" y="597.2188"/><ellipse cx="1264.9263" cy="618.5703" fill="#ADD1B2" rx="11" ry="11" style="stroke:#181818;stroke-width:1.0;"/><path d="M1267.6919,614.4453 Q1267.8481,614.2266 1268.0356,614.1172 Q1268.2231,614.0078 1268.4419,614.0078 Q1268.8169,614.0078 1269.0513,614.2734 Q1269.2856,614.5234 1269.2856,615.1328 L1269.2856,616.5859 Q1269.2856,617.1953 1269.0513,617.4609 Q1268.8169,617.7266 1268.4419,617.7266 Q1268.0981,617.7266 1267.895,617.5234 Q1267.6919,617.3359 1267.5825,616.8203 Q1267.5356,616.4609 1267.3481,616.2734 Q1267.02,615.8984 1266.4106,615.6797 Q1265.8013,615.4609 1265.1763,615.4609 Q1264.4106,615.4609 1263.77,615.7891 Q1263.145,616.1172 1262.645,616.8672 Q1262.1606,617.6172 1262.1606,618.6484 L1262.1606,619.7422 Q1262.1606,620.9766 1263.0513,621.8047 Q1263.9419,622.6172 1265.5356,622.6172 Q1266.4731,622.6172 1267.1294,622.3672 Q1267.52,622.2109 1267.9419,621.7734 Q1268.2075,621.5078 1268.3481,621.4297 Q1268.5044,621.3516 1268.7075,621.3516 Q1269.0356,621.3516 1269.2856,621.6172 Q1269.5513,621.8672 1269.5513,622.2109 Q1269.5513,622.5547 1269.2075,622.9609 Q1268.7075,623.5391 1267.9106,623.8672 Q1266.8325,624.3203 1265.5356,624.3203 Q1264.02,624.3203 1262.8169,623.6953 Q1261.8325,623.1953 1261.145,622.1328 Q1260.4575,621.0547 1260.4575,619.7734 L1260.4575,618.6172 Q1260.4575,617.2891 1261.0669,616.1484 Q1261.6919,614.9922 1262.7856,614.3828 Q1263.8794,613.7578 1265.1138,613.7578 Q1265.8481,613.7578 1266.4888,613.9297 Q1267.145,614.0859 1267.6919,614.4453 Z " fill="#000000"/><text fill="#000000" font-family="sans-serif" font-size="12" font-style="italic" lengthAdjust="spacing" textLength="66.0469" x="1283.4263" y="614.6758">&#171;Extension&#187;</text><text fill="#000000" font-family="sans-serif" font-size="14" lengthAdjust="spacing" textLength="28.0137" x="1302.4429" y="631.8457">Shift</text><line style="stroke:#181818;stroke-width:0.5;" x1="1217" x2="1383.3994" y1="639.9219" y2="639.9219"/><text fill="#000000" font-family="sans-serif" font-size="14" lengthAdjust="spacing" textLength="143.9512" x="1222" y="658.4551">-total_refunds: Decimal</text><text fill="#000000" font-family="sans-serif" font-size="14" lengthAdjust="spacing" textLength="156.3994" x="1222" y="676.0645">-total_discounts: Decimal</text><line style="stroke:#181818;stroke-width:1.0;" x1="1217" x2="1383.3994" y1="683.1406" y2="683.1406"/><text fill="#000000" font-family="sans-serif" font-size="14" lengthAdjust="spacing" textLength="144.3408" x="1222" y="701.6738">+calculateTotals(): void</text></g><g id="elem_GMN24"><path d="M1419.5,623.7188 L1419.5,649.2188 L1384.26,653.2188 L1419.5,657.2188 L1419.5,682.7734 A0,0 0 0 0 1419.5,682.7734 L1658.7451,682.7734 A0,0 0 0 0 1658.7451,682.7734 L1658.7451,633.7188 L1648.7451,623.7188 L1419.5,623.7188 A0,0 0 0 0 1419.5,623.7188 " fill="#FEFFDD" style="stroke:#181818;stroke-width:0.5;"/><path d="M1648.7451,623.7188 L1648.7451,633.7188 L1658.7451,633.7188 L1648.7451,623.7188 " fill="#FEFFDD" style="stroke:#181818;stroke-width:0.5;"/><text fill="#000000" font-family="sans-serif" font-size="13" lengthAdjust="spacing" textLength="184.2598" x="1425.5" y="642.2139">Extension dari Shift Increment 1</text><text fill="#000000" font-family="sans-serif" font-size="13" lengthAdjust="spacing" textLength="218.2451" x="1425.5" y="658.5654">Menambahkan field refund &amp; discount</text><text fill="#000000" font-family="sans-serif" font-size="13" lengthAdjust="spacing" textLength="154.6162" x="1425.5" y="674.917">dari fitur UC-20 dan UC-21</text></g><!--class Hitung--><g id="elem_Hitung"><rect codeLine="118" fill="#F1F1F1" height="312.1406" id="Hitung" rx="2.5" ry="2.5" style="stroke:#181818;stroke-width:0.5;" width="219.3818" x="235.5" y="497.2188"/><ellipse cx="320.7065" cy="513.2188" fill="#ADD1B2" rx="11" ry="11" style="stroke:#181818;stroke-width:1.0;"/><path d="M323.4722,509.0938 Q323.6284,508.875 323.8159,508.7656 Q324.0034,508.6563 324.2222,508.6563 Q324.5972,508.6563 324.8315,508.9219 Q325.0659,509.1719 325.0659,509.7813 L325.0659,511.2344 Q325.0659,511.8438 324.8315,512.1094 Q324.5972,512.375 324.2222,512.375 Q323.8784,512.375 323.6753,512.1719 Q323.4722,511.9844 323.3628,511.4688 Q323.3159,511.1094 323.1284,510.9219 Q322.8003,510.5469 322.1909,510.3281 Q321.5815,510.1094 320.9565,510.1094 Q320.1909,510.1094 319.5503,510.4375 Q318.9253,510.7656 318.4253,511.5156 Q317.9409,512.2656 317.9409,513.2969 L317.9409,514.3906 Q317.9409,515.625 318.8315,516.4531 Q319.7222,517.2656 321.3159,517.2656 Q322.2534,517.2656 322.9097,517.0156 Q323.3003,516.8594 323.7222,516.4219 Q323.9878,516.1563 324.1284,516.0781 Q324.2847,516 324.4878,516 Q324.8159,516 325.0659,516.2656 Q325.3315,516.5156 325.3315,516.8594 Q325.3315,517.2031 324.9878,517.6094 Q324.4878,518.1875 323.6909,518.5156 Q322.6128,518.9688 321.3159,518.9688 Q319.8003,518.9688 318.5972,518.3438 Q317.6128,517.8438 316.9253,516.7813 Q316.2378,515.7031 316.2378,514.4219 L316.2378,513.2656 Q316.2378,511.9375 316.8472,510.7969 Q317.4722,509.6406 318.5659,509.0313 Q319.6597,508.4063 320.894,508.4063 Q321.6284,508.4063 322.269,508.5781 Q322.9253,508.7344 323.4722,509.0938 Z " fill="#000000"/><text fill="#000000" font-family="sans-serif" font-size="14" lengthAdjust="spacing" textLength="40.4688" x="341.2065" y="518.9473">Hitung</text><line style="stroke:#181818;stroke-width:0.5;" x1="236.5" x2="453.8818" y1="529.2188" y2="529.2188"/><text fill="#000000" font-family="sans-serif" font-size="14" lengthAdjust="spacing" textLength="57.5586" x="241.5" y="547.752">-id: UUID</text><text fill="#000000" font-family="sans-serif" font-size="14" lengthAdjust="spacing" textLength="92.5791" x="241.5" y="565.3613">-user_id: UUID</text><text fill="#000000" font-family="sans-serif" font-size="14" lengthAdjust="spacing" textLength="142.4131" x="241.5" y="582.9707">-hitung_number: String</text><text fill="#000000" font-family="sans-serif" font-size="14" lengthAdjust="spacing" textLength="86.3721" x="241.5" y="600.5801">-action: String</text><text fill="#000000" font-family="sans-serif" font-size="14" lengthAdjust="spacing" textLength="76.2617" x="241.5" y="618.1895">-note: String</text><text fill="#000000" font-family="sans-serif" font-size="14" lengthAdjust="spacing" textLength="86.3652" x="241.5" y="635.7988">-status: String</text><text fill="#000000" font-family="sans-serif" font-size="14" lengthAdjust="spacing" textLength="115.1924" x="241.5" y="653.4082">-hitung_date: Date</text><text fill="#000000" font-family="sans-serif" font-size="14" lengthAdjust="spacing" textLength="155.6611" x="241.5" y="671.0176">-hitung_date_finish: Date</text><text fill="#000000" font-family="sans-serif" font-size="14" lengthAdjust="spacing" textLength="108.9443" x="241.5" y="688.627">-is_start: Boolean</text><text fill="#000000" font-family="sans-serif" font-size="14" lengthAdjust="spacing" textLength="114.3994" x="241.5" y="706.2363">-is_finish: Boolean</text><text fill="#000000" font-family="sans-serif" font-size="14" lengthAdjust="spacing" textLength="133.0615" x="241.5" y="723.8457">-grand_total: Decimal</text><text fill="#000000" font-family="sans-serif" font-size="14" lengthAdjust="spacing" textLength="165.7441" x="241.5" y="741.4551">-loss_grand_total: Decimal</text><line style="stroke:#181818;stroke-width:1.0;" x1="236.5" x2="453.8818" y1="748.5313" y2="748.5313"/><text fill="#000000" font-family="sans-serif" font-size="14" lengthAdjust="spacing" textLength="119.4443" x="241.5" y="767.0645">+user(): BelongsTo</text><text fill="#000000" font-family="sans-serif" font-size="14" lengthAdjust="spacing" textLength="124.8789" x="241.5" y="784.6738">+details(): HasMany</text><text fill="#000000" font-family="sans-serif" font-size="14" lengthAdjust="spacing" textLength="207.3818" x="241.5" y="802.2832">+generateHitungNumber(): String</text></g><!--class HitungDetail--><g id="elem_HitungDetail"><rect codeLine="137" fill="#F1F1F1" height="259.3125" id="HitungDetail" rx="2.5" ry="2.5" style="stroke:#181818;stroke-width:0.5;" width="193.3096" x="248.5" y="886.2188"/><ellipse cx="302.7739" cy="902.2188" fill="#ADD1B2" rx="11" ry="11" style="stroke:#181818;stroke-width:1.0;"/><path d="M305.5396,898.0938 Q305.6958,897.875 305.8833,897.7656 Q306.0708,897.6563 306.2896,897.6563 Q306.6646,897.6563 306.8989,897.9219 Q307.1333,898.1719 307.1333,898.7813 L307.1333,900.2344 Q307.1333,900.8438 306.8989,901.1094 Q306.6646,901.375 306.2896,901.375 Q305.9458,901.375 305.7427,901.1719 Q305.5396,900.9844 305.4302,900.4688 Q305.3833,900.1094 305.1958,899.9219 Q304.8677,899.5469 304.2583,899.3281 Q303.6489,899.1094 303.0239,899.1094 Q302.2583,899.1094 301.6177,899.4375 Q300.9927,899.7656 300.4927,900.5156 Q300.0083,901.2656 300.0083,902.2969 L300.0083,903.3906 Q300.0083,904.625 300.8989,905.4531 Q301.7896,906.2656 303.3833,906.2656 Q304.3208,906.2656 304.9771,906.0156 Q305.3677,905.8594 305.7896,905.4219 Q306.0552,905.1563 306.1958,905.0781 Q306.3521,905 306.5552,905 Q306.8833,905 307.1333,905.2656 Q307.3989,905.5156 307.3989,905.8594 Q307.3989,906.2031 307.0552,906.6094 Q306.5552,907.1875 305.7583,907.5156 Q304.6802,907.9688 303.3833,907.9688 Q301.8677,907.9688 300.6646,907.3438 Q299.6802,906.8438 298.9927,905.7813 Q298.3052,904.7031 298.3052,903.4219 L298.3052,902.2656 Q298.3052,900.9375 298.9146,899.7969 Q299.5396,898.6406 300.6333,898.0313 Q301.7271,897.4063 302.9614,897.4063 Q303.6958,897.4063 304.3364,897.5781 Q304.9927,897.7344 305.5396,898.0938 Z " fill="#000000"/><text fill="#000000" font-family="sans-serif" font-size="14" lengthAdjust="spacing" textLength="76.2617" x="323.2739" y="907.9473">HitungDetail</text><line style="stroke:#181818;stroke-width:0.5;" x1="249.5" x2="440.8096" y1="918.2188" y2="918.2188"/><text fill="#000000" font-family="sans-serif" font-size="14" lengthAdjust="spacing" textLength="57.5586" x="254.5" y="936.752">-id: UUID</text><text fill="#000000" font-family="sans-serif" font-size="14" lengthAdjust="spacing" textLength="103.4893" x="254.5" y="954.3613">-hitung_id: UUID</text><text fill="#000000" font-family="sans-serif" font-size="14" lengthAdjust="spacing" textLength="115.1377" x="254.5" y="971.9707">-material_id: UUID</text><text fill="#000000" font-family="sans-serif" font-size="14" lengthAdjust="spacing" textLength="87.917" x="254.5" y="989.5801">-unit_id: UUID</text><text fill="#000000" font-family="sans-serif" font-size="14" lengthAdjust="spacing" textLength="164.165" x="254.5" y="1007.1895">-quantity_system: Decimal</text><text fill="#000000" font-family="sans-serif" font-size="14" lengthAdjust="spacing" textLength="157.1855" x="254.5" y="1024.7988">-quantity_actual: Decimal</text><text fill="#000000" font-family="sans-serif" font-size="14" lengthAdjust="spacing" textLength="181.3096" x="254.5" y="1042.4082">-quantity_difference: Decimal</text><text fill="#000000" font-family="sans-serif" font-size="14" lengthAdjust="spacing" textLength="93.3516" x="254.5" y="1060.0176">-price: Decimal</text><text fill="#000000" font-family="sans-serif" font-size="14" lengthAdjust="spacing" textLength="122.1514" x="254.5" y="1077.627">-total_loss: Decimal</text><line style="stroke:#181818;stroke-width:1.0;" x1="249.5" x2="440.8096" y1="1084.7031" y2="1084.7031"/><text fill="#000000" font-family="sans-serif" font-size="14" lengthAdjust="spacing" textLength="130.3545" x="254.5" y="1103.2363">+hitung(): BelongsTo</text><text fill="#000000" font-family="sans-serif" font-size="14" lengthAdjust="spacing" textLength="142.0029" x="254.5" y="1120.8457">+material(): BelongsTo</text><text fill="#000000" font-family="sans-serif" font-size="14" lengthAdjust="spacing" textLength="114.7822" x="254.5" y="1138.4551">+unit(): BelongsTo</text></g><!--class InventoryLog--><g id="elem_InventoryLog"><rect codeLine="153" fill="#F1F1F1" height="276.9219" id="InventoryLog" rx="2.5" ry="2.5" style="stroke:#181818;stroke-width:0.5;" width="177.7578" x="22" y="514.7188"/><ellipse cx="66.1661" cy="530.7188" fill="#ADD1B2" rx="11" ry="11" style="stroke:#181818;stroke-width:1.0;"/><path d="M68.9317,526.5938 Q69.0879,526.375 69.2754,526.2656 Q69.4629,526.1563 69.6817,526.1563 Q70.0567,526.1563 70.2911,526.4219 Q70.5254,526.6719 70.5254,527.2813 L70.5254,528.7344 Q70.5254,529.3438 70.2911,529.6094 Q70.0567,529.875 69.6817,529.875 Q69.3379,529.875 69.1348,529.6719 Q68.9317,529.4844 68.8223,528.9688 Q68.7754,528.6094 68.5879,528.4219 Q68.2598,528.0469 67.6504,527.8281 Q67.0411,527.6094 66.4161,527.6094 Q65.6504,527.6094 65.0098,527.9375 Q64.3848,528.2656 63.8848,529.0156 Q63.4004,529.7656 63.4004,530.7969 L63.4004,531.8906 Q63.4004,533.125 64.2911,533.9531 Q65.1817,534.7656 66.7754,534.7656 Q67.7129,534.7656 68.3692,534.5156 Q68.7598,534.3594 69.1817,533.9219 Q69.4473,533.6563 69.5879,533.5781 Q69.7442,533.5 69.9473,533.5 Q70.2754,533.5 70.5254,533.7656 Q70.7911,534.0156 70.7911,534.3594 Q70.7911,534.7031 70.4473,535.1094 Q69.9473,535.6875 69.1504,536.0156 Q68.0723,536.4688 66.7754,536.4688 Q65.2598,536.4688 64.0567,535.8438 Q63.0723,535.3438 62.3848,534.2813 Q61.6973,533.2031 61.6973,531.9219 L61.6973,530.7656 Q61.6973,529.4375 62.3067,528.2969 Q62.9317,527.1406 64.0254,526.5313 Q65.1192,525.9063 66.3536,525.9063 Q67.0879,525.9063 67.7286,526.0781 Q68.3848,526.2344 68.9317,526.5938 Z " fill="#000000"/><text fill="#000000" font-family="sans-serif" font-size="14" lengthAdjust="spacing" textLength="80.9443" x="86.6474" y="536.4473">InventoryLog</text><line style="stroke:#181818;stroke-width:0.5;" x1="23" x2="198.7578" y1="546.7188" y2="546.7188"/><text fill="#000000" font-family="sans-serif" font-size="14" lengthAdjust="spacing" textLength="57.5586" x="28" y="565.252">-id: UUID</text><text fill="#000000" font-family="sans-serif" font-size="14" lengthAdjust="spacing" textLength="115.1377" x="28" y="582.8613">-material_id: UUID</text><text fill="#000000" font-family="sans-serif" font-size="14" lengthAdjust="spacing" textLength="157.1719" x="28" y="600.4707">-material_batch_id: UUID</text><text fill="#000000" font-family="sans-serif" font-size="14" lengthAdjust="spacing" textLength="92.5791" x="28" y="618.0801">-user_id: UUID</text><text fill="#000000" font-family="sans-serif" font-size="14" lengthAdjust="spacing" textLength="86.3721" x="28" y="635.6895">-action: String</text><text fill="#000000" font-family="sans-serif" font-size="14" lengthAdjust="spacing" textLength="165.7578" x="28" y="653.2988">-quantity_change: Decimal</text><text fill="#000000" font-family="sans-serif" font-size="14" lengthAdjust="spacing" textLength="147.8408" x="28" y="670.9082">-quantity_after: Decimal</text><text fill="#000000" font-family="sans-serif" font-size="14" lengthAdjust="spacing" textLength="142.4063" x="28" y="688.5176">-reference_type: String</text><text fill="#000000" font-family="sans-serif" font-size="14" lengthAdjust="spacing" textLength="126.8408" x="28" y="706.127">-reference_id: String</text><text fill="#000000" font-family="sans-serif" font-size="14" lengthAdjust="spacing" textLength="66.917" x="28" y="723.7363">-note: Text</text><line style="stroke:#181818;stroke-width:1.0;" x1="23" x2="198.7578" y1="730.8125" y2="730.8125"/><text fill="#000000" font-family="sans-serif" font-size="14" lengthAdjust="spacing" textLength="142.0029" x="28" y="749.3457">+material(): BelongsTo</text><text fill="#000000" font-family="sans-serif" font-size="14" lengthAdjust="spacing" textLength="126.458" x="28" y="766.9551">+batch(): BelongsTo</text><text fill="#000000" font-family="sans-serif" font-size="14" lengthAdjust="spacing" textLength="119.4443" x="28" y="784.5645">+user(): BelongsTo</text></g><!--class Refund--><g id="elem_Refund"><rect codeLine="172" fill="#F1F1F1" height="276.9219" id="Refund" rx="2.5" ry="2.5" style="stroke:#181818;stroke-width:0.5;" width="210.0576" x="2392" y="877.2188"/><ellipse cx="2470.2065" cy="893.2188" fill="#ADD1B2" rx="11" ry="11" style="stroke:#181818;stroke-width:1.0;"/><path d="M2472.9722,889.0938 Q2473.1284,888.875 2473.3159,888.7656 Q2473.5034,888.6563 2473.7222,888.6563 Q2474.0972,888.6563 2474.3315,888.9219 Q2474.5659,889.1719 2474.5659,889.7813 L2474.5659,891.2344 Q2474.5659,891.8438 2474.3315,892.1094 Q2474.0972,892.375 2473.7222,892.375 Q2473.3784,892.375 2473.1753,892.1719 Q2472.9722,891.9844 2472.8628,891.4688 Q2472.8159,891.1094 2472.6284,890.9219 Q2472.3003,890.5469 2471.6909,890.3281 Q2471.0815,890.1094 2470.4565,890.1094 Q2469.6909,890.1094 2469.0503,890.4375 Q2468.4253,890.7656 2467.9253,891.5156 Q2467.4409,892.2656 2467.4409,893.2969 L2467.4409,894.3906 Q2467.4409,895.625 2468.3315,896.4531 Q2469.2222,897.2656 2470.8159,897.2656 Q2471.7534,897.2656 2472.4097,897.0156 Q2472.8003,896.8594 2473.2222,896.4219 Q2473.4878,896.1563 2473.6284,896.0781 Q2473.7847,896 2473.9878,896 Q2474.3159,896 2474.5659,896.2656 Q2474.8315,896.5156 2474.8315,896.8594 Q2474.8315,897.2031 2474.4878,897.6094 Q2473.9878,898.1875 2473.1909,898.5156 Q2472.1128,898.9688 2470.8159,898.9688 Q2469.3003,898.9688 2468.0972,898.3438 Q2467.1128,897.8438 2466.4253,896.7813 Q2465.7378,895.7031 2465.7378,894.4219 L2465.7378,893.2656 Q2465.7378,891.9375 2466.3472,890.7969 Q2466.9722,889.6406 2468.0659,889.0313 Q2469.1597,888.4063 2470.394,888.4063 Q2471.1284,888.4063 2471.769,888.5781 Q2472.4253,888.7344 2472.9722,889.0938 Z " fill="#000000"/><text fill="#000000" font-family="sans-serif" font-size="14" lengthAdjust="spacing" textLength="45.1445" x="2490.7065" y="898.9473">Refund</text><line style="stroke:#181818;stroke-width:0.5;" x1="2393" x2="2601.0576" y1="909.2188" y2="909.2188"/><text fill="#000000" font-family="sans-serif" font-size="14" lengthAdjust="spacing" textLength="57.5586" x="2398" y="927.752">-id: UUID</text><text fill="#000000" font-family="sans-serif" font-size="14" lengthAdjust="spacing" textLength="133.8271" x="2398" y="945.3613">-transaction_id: UUID</text><text fill="#000000" font-family="sans-serif" font-size="14" lengthAdjust="spacing" textLength="91.8203" x="2398" y="962.9707">-reason: String</text><text fill="#000000" font-family="sans-serif" font-size="14" lengthAdjust="spacing" textLength="126.8408" x="2398" y="980.5801">-proof_image: String</text><text fill="#000000" font-family="sans-serif" font-size="14" lengthAdjust="spacing" textLength="143.1924" x="2398" y="998.1895">-refund_method: String</text><text fill="#000000" font-family="sans-serif" font-size="14" lengthAdjust="spacing" textLength="175.8682" x="2398" y="1015.7988">-payment_channel_id: UUID</text><text fill="#000000" font-family="sans-serif" font-size="14" lengthAdjust="spacing" textLength="153.3027" x="2398" y="1033.4082">-account_number: String</text><text fill="#000000" font-family="sans-serif" font-size="14" lengthAdjust="spacing" textLength="143.9512" x="2398" y="1051.0176">-total_amount: Decimal</text><text fill="#000000" font-family="sans-serif" font-size="14" lengthAdjust="spacing" textLength="142.3926" x="2398" y="1068.627">-refund_by_shift: UUID</text><text fill="#000000" font-family="sans-serif" font-size="14" lengthAdjust="spacing" textLength="147.8545" x="2398" y="1086.2363">-refunded_at: DateTime</text><line style="stroke:#181818;stroke-width:1.0;" x1="2393" x2="2601.0576" y1="1093.3125" y2="1093.3125"/><text fill="#000000" font-family="sans-serif" font-size="14" lengthAdjust="spacing" textLength="160.6924" x="2398" y="1111.8457">+transaction(): BelongsTo</text><text fill="#000000" font-family="sans-serif" font-size="14" lengthAdjust="spacing" textLength="198.0576" x="2398" y="1129.4551">+paymentChannel(): BelongsTo</text><text fill="#000000" font-family="sans-serif" font-size="14" lengthAdjust="spacing" textLength="117.8857" x="2398" y="1147.0645">+shift(): BelongsTo</text></g><!--class StoreProfile--><g id="elem_StoreProfile"><rect codeLine="191" fill="#F1F1F1" height="339.3594" id="StoreProfile" rx="2.5" ry="2.5" style="stroke:#181818;stroke-width:0.5;" width="166.0615" x="2790" y="98.2188"/><ellipse cx="2832.4126" cy="114.2188" fill="#ADD1B2" rx="11" ry="11" style="stroke:#181818;stroke-width:1.0;"/><path d="M2835.1783,110.0938 Q2835.3345,109.875 2835.522,109.7656 Q2835.7095,109.6563 2835.9283,109.6563 Q2836.3033,109.6563 2836.5376,109.9219 Q2836.772,110.1719 2836.772,110.7813 L2836.772,112.2344 Q2836.772,112.8438 2836.5376,113.1094 Q2836.3033,113.375 2835.9283,113.375 Q2835.5845,113.375 2835.3814,113.1719 Q2835.1783,112.9844 2835.0689,112.4688 Q2835.022,112.1094 2834.8345,111.9219 Q2834.5064,111.5469 2833.897,111.3281 Q2833.2876,111.1094 2832.6626,111.1094 Q2831.897,111.1094 2831.2564,111.4375 Q2830.6314,111.7656 2830.1314,112.5156 Q2829.647,113.2656 2829.647,114.2969 L2829.647,115.3906 Q2829.647,116.625 2830.5376,117.4531 Q2831.4283,118.2656 2833.022,118.2656 Q2833.9595,118.2656 2834.6158,118.0156 Q2835.0064,117.8594 2835.4283,117.4219 Q2835.6939,117.1563 2835.8345,117.0781 Q2835.9908,117 2836.1939,117 Q2836.522,117 2836.772,117.2656 Q2837.0376,117.5156 2837.0376,117.8594 Q2837.0376,118.2031 2836.6939,118.6094 Q2836.1939,119.1875 2835.397,119.5156 Q2834.3189,119.9688 2833.022,119.9688 Q2831.5064,119.9688 2830.3033,119.3438 Q2829.3189,118.8438 2828.6314,117.7813 Q2827.9439,116.7031 2827.9439,115.4219 L2827.9439,114.2656 Q2827.9439,112.9375 2828.5533,111.7969 Q2829.1783,110.6406 2830.272,110.0313 Q2831.3658,109.4063 2832.6001,109.4063 Q2833.3345,109.4063 2833.9751,109.5781 Q2834.6314,109.7344 2835.1783,110.0938 Z " fill="#000000"/><text fill="#000000" font-family="sans-serif" font-size="14" lengthAdjust="spacing" textLength="73.1445" x="2852.5043" y="119.9473">StoreProfile</text><line style="stroke:#181818;stroke-width:0.5;" x1="2791" x2="2955.0615" y1="130.2188" y2="130.2188"/><text fill="#000000" font-family="sans-serif" font-size="14" lengthAdjust="spacing" textLength="57.5586" x="2796" y="148.752">-id: UUID</text><text fill="#000000" font-family="sans-serif" font-size="14" lengthAdjust="spacing" textLength="75.4824" x="2796" y="166.3613">-logo: String</text><text fill="#000000" font-family="sans-serif" font-size="14" lengthAdjust="spacing" textLength="84.0342" x="2796" y="183.9707">-name: String</text><text fill="#000000" font-family="sans-serif" font-size="14" lengthAdjust="spacing" textLength="90.2686" x="2796" y="201.5801">-tagline: String</text><text fill="#000000" font-family="sans-serif" font-size="14" lengthAdjust="spacing" textLength="75.4756" x="2796" y="219.1895">-type: String</text><text fill="#000000" font-family="sans-serif" font-size="14" lengthAdjust="spacing" textLength="92.6064" x="2796" y="236.7988">-banner: String</text><text fill="#000000" font-family="sans-serif" font-size="14" lengthAdjust="spacing" textLength="95.71" x="2796" y="254.4082">-product: String</text><text fill="#000000" font-family="sans-serif" font-size="14" lengthAdjust="spacing" textLength="107.3721" x="2796" y="272.0176">-description: Text</text><text fill="#000000" font-family="sans-serif" font-size="14" lengthAdjust="spacing" textLength="97.2754" x="2796" y="289.627">-building: String</text><text fill="#000000" font-family="sans-serif" font-size="14" lengthAdjust="spacing" textLength="97.2686" x="2796" y="307.2363">-location: String</text><text fill="#000000" font-family="sans-serif" font-size="14" lengthAdjust="spacing" textLength="98.8203" x="2796" y="324.8457">-address: String</text><text fill="#000000" font-family="sans-serif" font-size="14" lengthAdjust="spacing" textLength="94.1514" x="2796" y="342.4551">-contact: String</text><text fill="#000000" font-family="sans-serif" font-size="14" lengthAdjust="spacing" textLength="82.4688" x="2796" y="360.0645">-email: String</text><text fill="#000000" font-family="sans-serif" font-size="14" lengthAdjust="spacing" textLength="96.4824" x="2796" y="377.6738">-website: String</text><text fill="#000000" font-family="sans-serif" font-size="14" lengthAdjust="spacing" textLength="154.0615" x="2796" y="395.2832">-social_instagram: String</text><text fill="#000000" font-family="sans-serif" font-size="14" lengthAdjust="spacing" textLength="149.4131" x="2796" y="412.8926">-social_facebook: String</text><text fill="#000000" font-family="sans-serif" font-size="14" lengthAdjust="spacing" textLength="152.5234" x="2796" y="430.502">-social_whatsapp: String</text></g><!--class StoreDocument--><g id="elem_StoreDocument"><rect codeLine="211" fill="#F1F1F1" height="145.6563" id="StoreDocument" rx="2.5" ry="2.5" style="stroke:#181818;stroke-width:0.5;" width="177.751" x="2991" y="194.7188"/><ellipse cx="3027.8171" cy="210.7188" fill="#ADD1B2" rx="11" ry="11" style="stroke:#181818;stroke-width:1.0;"/><path d="M3030.5827,206.5938 Q3030.739,206.375 3030.9265,206.2656 Q3031.114,206.1563 3031.3327,206.1563 Q3031.7077,206.1563 3031.9421,206.4219 Q3032.1765,206.6719 3032.1765,207.2813 L3032.1765,208.7344 Q3032.1765,209.3438 3031.9421,209.6094 Q3031.7077,209.875 3031.3327,209.875 Q3030.989,209.875 3030.7858,209.6719 Q3030.5827,209.4844 3030.4733,208.9688 Q3030.4265,208.6094 3030.239,208.4219 Q3029.9108,208.0469 3029.3015,207.8281 Q3028.6921,207.6094 3028.0671,207.6094 Q3027.3015,207.6094 3026.6608,207.9375 Q3026.0358,208.2656 3025.5358,209.0156 Q3025.0515,209.7656 3025.0515,210.7969 L3025.0515,211.8906 Q3025.0515,213.125 3025.9421,213.9531 Q3026.8327,214.7656 3028.4265,214.7656 Q3029.364,214.7656 3030.0202,214.5156 Q3030.4108,214.3594 3030.8327,213.9219 Q3031.0983,213.6563 3031.239,213.5781 Q3031.3952,213.5 3031.5983,213.5 Q3031.9265,213.5 3032.1765,213.7656 Q3032.4421,214.0156 3032.4421,214.3594 Q3032.4421,214.7031 3032.0983,215.1094 Q3031.5983,215.6875 3030.8015,216.0156 Q3029.7233,216.4688 3028.4265,216.4688 Q3026.9108,216.4688 3025.7077,215.8438 Q3024.7233,215.3438 3024.0358,214.2813 Q3023.3483,213.2031 3023.3483,211.9219 L3023.3483,210.7656 Q3023.3483,209.4375 3023.9577,208.2969 Q3024.5827,207.1406 3025.6765,206.5313 Q3026.7702,205.9063 3028.0046,205.9063 Q3028.739,205.9063 3029.3796,206.0781 Q3030.0358,206.2344 3030.5827,206.5938 Z " fill="#000000"/><text fill="#000000" font-family="sans-serif" font-size="14" lengthAdjust="spacing" textLength="97.2686" x="3046.6653" y="216.4473">StoreDocument</text><line style="stroke:#181818;stroke-width:0.5;" x1="2992" x2="3167.751" y1="226.7188" y2="226.7188"/><text fill="#000000" font-family="sans-serif" font-size="14" lengthAdjust="spacing" textLength="57.5586" x="2997" y="245.252">-id: UUID</text><text fill="#000000" font-family="sans-serif" font-size="14" lengthAdjust="spacing" textLength="153.3027" x="2997" y="262.8613">-document_name: String</text><text fill="#000000" font-family="sans-serif" font-size="14" lengthAdjust="spacing" textLength="165.751" x="2997" y="280.4707">-document_number: String</text><text fill="#000000" font-family="sans-serif" font-size="14" lengthAdjust="spacing" textLength="136.1787" x="2997" y="298.0801">-document_file: String</text><text fill="#000000" font-family="sans-serif" font-size="14" lengthAdjust="spacing" textLength="106.5928" x="2997" y="315.6895">-valid_from: Date</text><text fill="#000000" font-family="sans-serif" font-size="14" lengthAdjust="spacing" textLength="104.2754" x="2997" y="333.2988">-valid_until: Date</text></g><!--class ActivityLog--><g id="elem_ActivityLog"><rect codeLine="220" fill="#F1F1F1" height="216.0938" id="ActivityLog" rx="2.5" ry="2.5" style="stroke:#181818;stroke-width:0.5;" width="139.6201" x="2803" y="545.2188"/><ellipse cx="2835.9657" cy="561.2188" fill="#ADD1B2" rx="11" ry="11" style="stroke:#181818;stroke-width:1.0;"/><path d="M2838.7313,557.0938 Q2838.8876,556.875 2839.0751,556.7656 Q2839.2626,556.6563 2839.4813,556.6563 Q2839.8563,556.6563 2840.0907,556.9219 Q2840.3251,557.1719 2840.3251,557.7813 L2840.3251,559.2344 Q2840.3251,559.8438 2840.0907,560.1094 Q2839.8563,560.375 2839.4813,560.375 Q2839.1376,560.375 2838.9345,560.1719 Q2838.7313,559.9844 2838.622,559.4688 Q2838.5751,559.1094 2838.3876,558.9219 Q2838.0595,558.5469 2837.4501,558.3281 Q2836.8407,558.1094 2836.2157,558.1094 Q2835.4501,558.1094 2834.8095,558.4375 Q2834.1845,558.7656 2833.6845,559.5156 Q2833.2001,560.2656 2833.2001,561.2969 L2833.2001,562.3906 Q2833.2001,563.625 2834.0907,564.4531 Q2834.9813,565.2656 2836.5751,565.2656 Q2837.5126,565.2656 2838.1688,565.0156 Q2838.5595,564.8594 2838.9813,564.4219 Q2839.247,564.1563 2839.3876,564.0781 Q2839.5438,564 2839.747,564 Q2840.0751,564 2840.3251,564.2656 Q2840.5907,564.5156 2840.5907,564.8594 Q2840.5907,565.2031 2840.247,565.6094 Q2839.747,566.1875 2838.9501,566.5156 Q2837.872,566.9688 2836.5751,566.9688 Q2835.0595,566.9688 2833.8563,566.3438 Q2832.872,565.8438 2832.1845,564.7813 Q2831.497,563.7031 2831.497,562.4219 L2831.497,561.2656 Q2831.497,559.9375 2832.1063,558.7969 Q2832.7313,557.6406 2833.8251,557.0313 Q2834.9188,556.4063 2836.1532,556.4063 Q2836.8876,556.4063 2837.5282,556.5781 Q2838.1845,556.7344 2838.7313,557.0938 Z " fill="#000000"/><text fill="#000000" font-family="sans-serif" font-size="14" lengthAdjust="spacing" textLength="67.6963" x="2853.9581" y="566.9473">ActivityLog</text><line style="stroke:#181818;stroke-width:0.5;" x1="2804" x2="2941.6201" y1="577.2188" y2="577.2188"/><text fill="#000000" font-family="sans-serif" font-size="14" lengthAdjust="spacing" textLength="87.1582" x="2809" y="595.752">-id: BigInteger</text><text fill="#000000" font-family="sans-serif" font-size="14" lengthAdjust="spacing" textLength="110.5029" x="2809" y="613.3613">-log_name: String</text><text fill="#000000" font-family="sans-serif" font-size="14" lengthAdjust="spacing" textLength="107.3721" x="2809" y="630.9707">-description: Text</text><text fill="#000000" font-family="sans-serif" font-size="14" lengthAdjust="spacing" textLength="127.6201" x="2809" y="648.5801">-subject_type: String</text><text fill="#000000" font-family="sans-serif" font-size="14" lengthAdjust="spacing" textLength="109.7031" x="2809" y="666.1895">-subject_id: UUID</text><text fill="#000000" font-family="sans-serif" font-size="14" lengthAdjust="spacing" textLength="125.2822" x="2809" y="683.7988">-causer_type: String</text><text fill="#000000" font-family="sans-serif" font-size="14" lengthAdjust="spacing" textLength="107.3652" x="2809" y="701.4082">-causer_id: UUID</text><text fill="#000000" font-family="sans-serif" font-size="14" lengthAdjust="spacing" textLength="112.0342" x="2809" y="719.0176">-properties: JSON</text><text fill="#000000" font-family="sans-serif" font-size="14" lengthAdjust="spacing" textLength="83.2617" x="2809" y="736.627">-event: String</text><text fill="#000000" font-family="sans-serif" font-size="14" lengthAdjust="spacing" textLength="115.165" x="2809" y="754.2363">-batch_uuid: UUID</text></g><!--link Customer to PointsHistory--><g id="link_Customer_PointsHistory"><path codeLine="238" d="M866,718.0288 C866,771.9888 866,849.8488 866,912.3988 " fill="none" id="Customer-PointsHistory" style="stroke:#181818;stroke-width:1.0;"/><text fill="#000000" font-family="sans-serif" font-size="13" lengthAdjust="spacing" textLength="7.23" x="867.0606" y="739.499">1</text><text fill="#000000" font-family="sans-serif" font-size="13" lengthAdjust="spacing" textLength="5.0591" x="856.0564" y="901.7139">*</text></g><!--link Transaction to PointsHistory--><g id="link_Transaction_PointsHistory"><path codeLine="239" d="M2262.76,722.2188 C1950.58,722.2188 970,722.2188 970,722.2188 C970,722.2188 970,828.0888 970,912.6588 " fill="none" id="Transaction-PointsHistory" style="stroke:#181818;stroke-width:1.0;"/><text fill="#000000" font-family="sans-serif" font-size="13" lengthAdjust="spacing" textLength="7.23" x="2247.6662" y="724.7903">1</text><text fill="#000000" font-family="sans-serif" font-size="13" lengthAdjust="spacing" textLength="5.0591" x="967.6939" y="901.993">*</text></g><!--link Transaction to Refund--><g id="link_Transaction_Refund"><path codeLine="240" d="M2357,727.0088 C2357,752.6788 2357,782.8494 2357,813.8348 C2357,817.708 2357,821.5939 2357,825.4854 C2357,827.4311 2357,829.3782 2357,831.3258 C2357,831.8127 2357,832.2996 2357,832.7866 " fill="none" id="Transaction-Refund" style="stroke:#181818;stroke-width:1.0;"/><text fill="#000000" font-family="sans-serif" font-size="13" lengthAdjust="spacing" textLength="7.23" x="2349.6776" y="748.0716">1</text><text fill="#000000" font-family="sans-serif" font-size="13" lengthAdjust="spacing" textLength="21.6836" x="2336" y="1012.6839">0..1</text></g><!--link User to Notification--><g id="link_User_Notification"><path codeLine="242" d="M475.84,324.2188 C531.14,324.2188 583,324.2188 583,324.2188 C583,324.2188 583,453.5388 583,550.0288 " fill="none" id="User-Notification" style="stroke:#181818;stroke-width:1.0;"/><text fill="#000000" font-family="sans-serif" font-size="13" lengthAdjust="spacing" textLength="7.23" x="483.2041" y="324.366">1</text><text fill="#000000" font-family="sans-serif" font-size="13" lengthAdjust="spacing" textLength="5.0591" x="577.823" y="539.3535">*</text></g><!--link User to Hitung--><g id="link_User_Hitung"><path codeLine="243" d="M345,349.9488 C345,392.8488 345,446.7787 345,497.2188 " fill="none" id="User-Hitung" style="stroke:#181818;stroke-width:1.0;"/><text fill="#000000" font-family="sans-serif" font-size="13" lengthAdjust="spacing" textLength="7.23" x="337.7165" y="371.4796">1</text><text fill="#000000" font-family="sans-serif" font-size="13" lengthAdjust="spacing" textLength="5.0591" x="339.8628" y="486.2631">*</text></g><!--link User to InventoryLog--><g id="link_User_InventoryLog"><path codeLine="244" d="M225,349.9488 C225,463.1588 225,653.2188 225,653.2188 C225,653.2188 214.69,653.2188 200.26,653.2188 " fill="none" id="User-InventoryLog" style="stroke:#181818;stroke-width:1.0;"/><text fill="#000000" font-family="sans-serif" font-size="13" lengthAdjust="spacing" textLength="7.23" x="207.029" y="371.4796">1</text><text fill="#000000" font-family="sans-serif" font-size="13" lengthAdjust="spacing" textLength="5.0591" x="207.8713" y="650.0692">*</text></g><!--link Hitung to HitungDetail--><g id="link_Hitung_HitungDetail"><path codeLine="246" d="M345,809.3188 C345,834.9188 345,861.1988 345,886.0688 " fill="none" id="Hitung-HitungDetail" style="stroke:#181818;stroke-width:1.0;"/><text fill="#000000" font-family="sans-serif" font-size="13" lengthAdjust="spacing" textLength="7.23" x="337.8268" y="830.7676">1</text><text fill="#000000" font-family="sans-serif" font-size="13" lengthAdjust="spacing" textLength="5.0591" x="339.84" y="875.177">*</text></g><!--SRC=[dLXjRzis4FwkNq5aG9TkSz4K60O4NO6yOVNME9xjhFimGA2bayHQ8bsIIkiD-Uyxaf8iMvIYD1-IG7UaUCzppzrHQiFubafQa2YdIbreBTcwr32D15-oVu6y3bJZaZCEUhS58gJEH92n60WKMxqZ1HHha2e8DDCva2kp5xbcD3NB9cJA8ma5S4tU_CDlHLpcP0uyBZSbJydT5YHLJ72Q1y7tvDVHF-Xyy_VgPhQStit87pSVBfPaEhjQtDpUp5Rax7bR1LiQRMWAvEJcgmPkZdDEBX08hja6JtT2lll0qanVvYMG_mA2FnOmSgz0ahTlcrNltbLcypDX_85fgl5vgCK6SCyb0inJhuV2buLKdvCLAq1fMcptRZJIx85gYFiS9is_F-8-yRJPzlJbENaGBDxRwxq-CftDCOOlGiQds-gVZdT6rLyqPwqTLoOIi-sb43bGRdqVxM_xYmiDH1gqY4WiGCrk3Kmaff8vyFR9STRutGAdnPfc6yf9mY2FoGlCCKow_S5AhiiDeHiJYsBuJyd9wVtLvEoNbzO7GR0d2HxzvCuXfpnDyGKlo5mmNZFycmJW1nHVbKgBOeZcBQxNwfnSGyGAJ6CVAyxdFSEz90Dby7jFrItbknOpSJotRgUq41XWXunImR73A1Bg4Fg8Q48SHuQBfN68qL1GJZ-PbTRecFZv9u9_thm-8gG5xRm5okv0EF4vkR-VNhSmpWI7hdwqf5oPZ4O1THUr3CSBdQdxlEPooZMaBSGco6pgEK2BugX2qMe3Si5JjH9xS-keNOyMTGwQcT0iOP5Lt30oc1JI4xijnTtphaMymme2NtNB5OkwfpIfK0AD3rFCMh3sw5APEiHt7PnQW1HKRYxK0ZSvzQMozC7G8zUL1M-phyHpnZS7CbtjuNrAgI6-FFPGN5bZfYAZBe-WjT0qHrYIaiV3UdS-bSplE8ok1BqYRWNOf-Cs1kEaxCfeezbQhBMiNHJETDQluzPxhq5JblSpu7OCFvSKMwl6L5mYWlbG5gMW5r1GnZ4x_woM6T3QQyQ0vaus0hegX7407iNp95JBZ2Mw7vvsWgdU1Ampz8cU4z4yAdDizIkpIXs8i1SnUy0-bDpfduCCjjVwjAtCmgqIfalf6eHDDOjRftK_So1qO-3bnUA-DGk- -TPP46SU319LQegZY3OugsAGW25XjaGu5wTOZJvcGFL19NgFaU5W-or5ExDBGrwQUNfyqp9eTP_MPVhuUVMIc9f5r_ZRQmeJL9pAZZsmA-2-KdlQ0fhgDHqRtWHG9JPxFJcR2wN2OPV9Kwt3cc8hNVzqbGB7cuO6Hy_CGcmSM_0y1XqQgs8mI6Q5MjTGuEiaGy5w4e0pxNbSrv5GxPI6mWD4uu79K7gXQZnYbYGWWKVWyTfAvdtkAenXP9W55tGF3tNWFMOJ_8WPgDRVxeDuGau3G3UcDTLH5ewMOf_M6dIZ32yGCCXGeesAEmvO6HqjeN_osjjzawiJ- -44DnaDlKMXZvOHCzd2LdMiUxSumEmMGXtUXvrvcApXcHrdJkKTpAKGITWpXLTTsDqHFMlfphGhInc7tCksRL6zbTUfmjsw_8oQzwzHjwP3TcCovkhsRkgfkS5xsHky9BZnqSLovKBfSRAdU8hAEV0KEmI-SN_vfRi3Eh7jIPXBaR0SXadDHIeykOhjqWCcJSst98_1AuUrYLHwCo8k8zqrnA0YoRPEluT2MPSiZz6vkoWNxhBbwRfnB45v6caakAQ-0vXnDUy-_W9hnRoTMaIsU75ihUQRMQz7GYDO2x7fTVYIKQteTjlVrYobro8gxG0to6bSUOL-6lVc7j4q3YPzkkO7yrqfJAGeZeSCPq6f6HGRqq4O5-Oh5XPPJskuP6ddFe7fsHT5VxAeSlq98jrJfMjh5xU8sfxYNrOPFLyufDY2r7WbF2U_B-zchNGoRT2d2zFGol9WgyTlc9eNPcgUFdDARhuPdPoTO0aZ9p-S77xF2TgtqMSvlNxr2lzphIG8x5V2rlhsbv6EqGrjdSVjII88gW6ziwow8VuF]--></g></svg>