<svg xmlns="http://www.w3.org/2000/svg" xmlns:xlink="http://www.w3.org/1999/xlink" contentStyleType="text/css" height="1541px" preserveAspectRatio="none" style="width:2629px;height:1541px;background:#FFFFFF;" version="1.1" viewBox="0 0 2629 1541" width="2629px" zoomAndPan="magnify"><title>Class Diagram - Increment 2</title><defs/><g><text fill="#000000" font-family="sans-serif" font-size="14" font-weight="bold" lengthAdjust="spacing" textLength="188.2959" x="1213.3521" y="24.5332">Class Diagram - Increment 2</text><text fill="#000000" font-family="sans-serif" font-size="14" font-weight="bold" lengthAdjust="spacing" textLength="206.124" x="1204.438" y="42.1426">Modul Pendukung Operasional</text><!--cluster Bahan Baku--><g id="cluster_Bahan Baku"><path d="M443.5,461.2188 L525.4102,461.2188 A3.75,3.75 0 0 1 527.9102,463.7188 L534.9102,484.8281 L1356.5,484.8281 A2.5,2.5 0 0 1 1359,487.3281 L1359,1531.7188 A2.5,2.5 0 0 1 1356.5,1534.2188 L443.5,1534.2188 A2.5,2.5 0 0 1 441,1531.7188 L441,463.7188 A2.5,2.5 0 0 1 443.5,461.2188 " fill="#F08080" style="stroke:#000000;stroke-width:1.5;"/><line style="stroke:#000000;stroke-width:1.5;" x1="441" x2="534.9102" y1="484.8281" y2="484.8281"/><text fill="#000000" font-family="sans-serif" font-size="14" font-weight="bold" lengthAdjust="spacing" textLength="80.9102" x="445" y="477.752">Bahan Baku</text></g><!--cluster Supplier & Belanja--><g id="cluster_Supplier &amp; Belanja"><path d="M1385.5,119.7188 L1510.1963,119.7188 A3.75,3.75 0 0 1 1512.6963,122.2188 L1519.6963,143.3281 L1646.5,143.3281 A2.5,2.5 0 0 1 1649,145.8281 L1649,1194.7188 A2.5,2.5 0 0 1 1646.5,1197.2188 L1385.5,1197.2188 A2.5,2.5 0 0 1 1383,1194.7188 L1383,122.2188 A2.5,2.5 0 0 1 1385.5,119.7188 " fill="#E6E6FA" style="stroke:#000000;stroke-width:1.5;"/><line style="stroke:#000000;stroke-width:1.5;" x1="1383" x2="1519.6963" y1="143.3281" y2="143.3281"/><text fill="#000000" font-family="sans-serif" font-size="14" font-weight="bold" lengthAdjust="spacing" textLength="123.6963" x="1387" y="136.252">Supplier &amp; Belanja</text></g><!--cluster Produksi--><g id="cluster_Produksi"><path d="M1951.5,66.7188 L2012.4033,66.7188 A3.75,3.75 0 0 1 2014.9033,69.2188 L2021.9033,90.3281 L2353.5,90.3281 A2.5,2.5 0 0 1 2356,92.8281 L2356,769.7188 A2.5,2.5 0 0 1 2353.5,772.2188 L1951.5,772.2188 A2.5,2.5 0 0 1 1949,769.7188 L1949,69.2188 A2.5,2.5 0 0 1 1951.5,66.7188 " fill="#98FB98" style="stroke:#000000;stroke-width:1.5;"/><line style="stroke:#000000;stroke-width:1.5;" x1="1949" x2="2021.9033" y1="90.3281" y2="90.3281"/><text fill="#000000" font-family="sans-serif" font-size="14" font-weight="bold" lengthAdjust="spacing" textLength="59.9033" x="1953" y="83.252">Produksi</text></g><!--cluster Stock Opname--><g id="cluster_Stock Opname"><path d="M1675.5,461.2188 L1774.5273,461.2188 A3.75,3.75 0 0 1 1777.0273,463.7188 L1784.0273,484.8281 L1922.5,484.8281 A2.5,2.5 0 0 1 1925,487.3281 L1925,1168.2188 A2.5,2.5 0 0 1 1922.5,1170.7188 L1675.5,1170.7188 A2.5,2.5 0 0 1 1673,1168.2188 L1673,463.7188 A2.5,2.5 0 0 1 1675.5,461.2188 " fill="#F5DEB3" style="stroke:#000000;stroke-width:1.5;"/><line style="stroke:#000000;stroke-width:1.5;" x1="1673" x2="1784.0273" y1="484.8281" y2="484.8281"/><text fill="#000000" font-family="sans-serif" font-size="14" font-weight="bold" lengthAdjust="spacing" textLength="98.0273" x="1677" y="477.752">Stock Opname</text></g><!--cluster Refund--><g id="cluster_Refund"><path d="M2382.5,93.2188 L2431.7139,93.2188 A3.75,3.75 0 0 1 2434.2139,95.7188 L2441.2139,116.8281 L2619.5,116.8281 A2.5,2.5 0 0 1 2622,119.3281 L2622,419.7188 A2.5,2.5 0 0 1 2619.5,422.2188 L2382.5,422.2188 A2.5,2.5 0 0 1 2380,419.7188 L2380,95.7188 A2.5,2.5 0 0 1 2382.5,93.2188 " fill="#FFE4E1" style="stroke:#000000;stroke-width:1.5;"/><line style="stroke:#000000;stroke-width:1.5;" x1="2380" x2="2441.2139" y1="116.8281" y2="116.8281"/><text fill="#000000" font-family="sans-serif" font-size="14" font-weight="bold" lengthAdjust="spacing" textLength="48.2139" x="2384" y="109.752">Refund</text></g><!--cluster Pengaturan--><g id="cluster_Pengaturan"><path d="M8.5,62.2188 L86.5137,62.2188 A3.75,3.75 0 0 1 89.0137,64.7188 L96.0137,85.8281 L414.5,85.8281 A2.5,2.5 0 0 1 417,88.3281 L417,774.7188 A2.5,2.5 0 0 1 414.5,777.2188 L8.5,777.2188 A2.5,2.5 0 0 1 6,774.7188 L6,64.7188 A2.5,2.5 0 0 1 8.5,62.2188 " fill="#D3D3D3" style="stroke:#000000;stroke-width:1.5;"/><line style="stroke:#000000;stroke-width:1.5;" x1="6" x2="96.0137" y1="85.8281" y2="85.8281"/><text fill="#000000" font-family="sans-serif" font-size="14" font-weight="bold" lengthAdjust="spacing" textLength="77.0137" x="10" y="78.752">Pengaturan</text></g><!--class Material--><g id="elem_Material"><rect codeLine="13" fill="#F1F1F1" height="312.1406" id="Material" rx="2.5" ry="2.5" style="stroke:#181818;stroke-width:0.5;" width="232.6299" x="1098.5" y="497.2188"/><ellipse cx="1185.6685" cy="513.2188" fill="#ADD1B2" rx="11" ry="11" style="stroke:#181818;stroke-width:1.0;"/><path d="M1188.4341,509.0938 Q1188.5903,508.875 1188.7778,508.7656 Q1188.9653,508.6563 1189.1841,508.6563 Q1189.5591,508.6563 1189.7935,508.9219 Q1190.0278,509.1719 1190.0278,509.7813 L1190.0278,511.2344 Q1190.0278,511.8438 1189.7935,512.1094 Q1189.5591,512.375 1189.1841,512.375 Q1188.8403,512.375 1188.6372,512.1719 Q1188.4341,511.9844 1188.3247,511.4688 Q1188.2778,511.1094 1188.0903,510.9219 Q1187.7622,510.5469 1187.1528,510.3281 Q1186.5435,510.1094 1185.9185,510.1094 Q1185.1528,510.1094 1184.5122,510.4375 Q1183.8872,510.7656 1183.3872,511.5156 Q1182.9028,512.2656 1182.9028,513.2969 L1182.9028,514.3906 Q1182.9028,515.625 1183.7935,516.4531 Q1184.6841,517.2656 1186.2778,517.2656 Q1187.2153,517.2656 1187.8716,517.0156 Q1188.2622,516.8594 1188.6841,516.4219 Q1188.9497,516.1563 1189.0903,516.0781 Q1189.2466,516 1189.4497,516 Q1189.7778,516 1190.0278,516.2656 Q1190.2935,516.5156 1190.2935,516.8594 Q1190.2935,517.2031 1189.9497,517.6094 Q1189.4497,518.1875 1188.6528,518.5156 Q1187.5747,518.9688 1186.2778,518.9688 Q1184.7622,518.9688 1183.5591,518.3438 Q1182.5747,517.8438 1181.8872,516.7813 Q1181.1997,515.7031 1181.1997,514.4219 L1181.1997,513.2656 Q1181.1997,511.9375 1181.8091,510.7969 Q1182.4341,509.6406 1183.5278,509.0313 Q1184.6216,508.4063 1185.856,508.4063 Q1186.5903,508.4063 1187.231,508.5781 Q1187.8872,508.7344 1188.4341,509.0938 Z " fill="#000000"/><text fill="#000000" font-family="sans-serif" font-size="14" lengthAdjust="spacing" textLength="49.793" x="1206.1685" y="518.9473">Material</text><line style="stroke:#181818;stroke-width:0.5;" x1="1099.5" x2="1330.1299" y1="529.2188" y2="529.2188"/><text fill="#000000" font-family="sans-serif" font-size="14" lengthAdjust="spacing" textLength="57.5586" x="1104.5" y="547.752">-id: UUID</text><text fill="#000000" font-family="sans-serif" font-size="14" lengthAdjust="spacing" textLength="84.0342" x="1104.5" y="565.3613">-name: String</text><text fill="#000000" font-family="sans-serif" font-size="14" lengthAdjust="spacing" textLength="116.7168" x="1104.5" y="582.9707">-description: String</text><text fill="#000000" font-family="sans-serif" font-size="14" lengthAdjust="spacing" textLength="87.1445" x="1104.5" y="600.5801">-image: String</text><text fill="#000000" font-family="sans-serif" font-size="14" lengthAdjust="spacing" textLength="114.3926" x="1104.5" y="618.1895">-expiry_date: Date</text><text fill="#000000" font-family="sans-serif" font-size="14" lengthAdjust="spacing" textLength="86.3652" x="1104.5" y="635.7988">-status: String</text><text fill="#000000" font-family="sans-serif" font-size="14" lengthAdjust="spacing" textLength="118.2891" x="1104.5" y="653.4082">-is_active: Boolean</text><text fill="#000000" font-family="sans-serif" font-size="14" lengthAdjust="spacing" textLength="119.8477" x="1104.5" y="671.0176">-is_recipe: Boolean</text><text fill="#000000" font-family="sans-serif" font-size="14" lengthAdjust="spacing" textLength="119.7861" x="1104.5" y="688.627">-minimum: Decimal</text><line style="stroke:#181818;stroke-width:1.0;" x1="1099.5" x2="1330.1299" y1="695.7031" y2="695.7031"/><text fill="#000000" font-family="sans-serif" font-size="14" lengthAdjust="spacing" textLength="218.2715" x="1104.5" y="714.2363">+getTotalQuantityInUnit(unit): Float</text><text fill="#000000" font-family="sans-serif" font-size="14" lengthAdjust="spacing" textLength="220.6299" x="1104.5" y="731.8457">+reduceQuantity(qty, unit): Boolean</text><text fill="#000000" font-family="sans-serif" font-size="14" lengthAdjust="spacing" textLength="191.8027" x="1104.5" y="749.4551">+getUnitPriceInUnit(unit): Float</text><text fill="#000000" font-family="sans-serif" font-size="14" lengthAdjust="spacing" textLength="158.3545" x="1104.5" y="767.0645">+recalculateStatus(): void</text><text fill="#000000" font-family="sans-serif" font-size="14" lengthAdjust="spacing" textLength="133.4443" x="1104.5" y="784.6738">+batches(): HasMany</text><text fill="#000000" font-family="sans-serif" font-size="14" lengthAdjust="spacing" textLength="182.458" x="1104.5" y="802.2832">+material_details(): HasMany</text></g><!--class MaterialDetail--><g id="elem_MaterialDetail"><rect codeLine="32" fill="#F1F1F1" height="171.2656" id="MaterialDetail" rx="2.5" ry="2.5" style="stroke:#181818;stroke-width:0.5;" width="154.0029" x="716" y="939.7188"/><ellipse cx="747.3876" cy="955.7188" fill="#ADD1B2" rx="11" ry="11" style="stroke:#181818;stroke-width:1.0;"/><path d="M750.1533,951.5938 Q750.3095,951.375 750.497,951.2656 Q750.6845,951.1563 750.9033,951.1563 Q751.2783,951.1563 751.5126,951.4219 Q751.747,951.6719 751.747,952.2813 L751.747,953.7344 Q751.747,954.3438 751.5126,954.6094 Q751.2783,954.875 750.9033,954.875 Q750.5595,954.875 750.3564,954.6719 Q750.1533,954.4844 750.0439,953.9688 Q749.997,953.6094 749.8095,953.4219 Q749.4814,953.0469 748.872,952.8281 Q748.2626,952.6094 747.6376,952.6094 Q746.872,952.6094 746.2314,952.9375 Q745.6064,953.2656 745.1064,954.0156 Q744.622,954.7656 744.622,955.7969 L744.622,956.8906 Q744.622,958.125 745.5126,958.9531 Q746.4033,959.7656 747.997,959.7656 Q748.9345,959.7656 749.5908,959.5156 Q749.9814,959.3594 750.4033,958.9219 Q750.6689,958.6563 750.8095,958.5781 Q750.9658,958.5 751.1689,958.5 Q751.497,958.5 751.747,958.7656 Q752.0126,959.0156 752.0126,959.3594 Q752.0126,959.7031 751.6689,960.1094 Q751.1689,960.6875 750.372,961.0156 Q749.2939,961.4688 747.997,961.4688 Q746.4814,961.4688 745.2783,960.8438 Q744.2939,960.3438 743.6064,959.2813 Q742.9189,958.2031 742.9189,956.9219 L742.9189,955.7656 Q742.9189,954.4375 743.5283,953.2969 Q744.1533,952.1406 745.247,951.5313 Q746.3408,950.9063 747.5751,950.9063 Q748.3095,950.9063 748.9501,951.0781 Q749.6064,951.2344 750.1533,951.5938 Z " fill="#000000"/><text fill="#000000" font-family="sans-serif" font-size="14" lengthAdjust="spacing" textLength="85.5859" x="765.0293" y="961.4473">MaterialDetail</text><line style="stroke:#181818;stroke-width:0.5;" x1="717" x2="869.0029" y1="971.7188" y2="971.7188"/><text fill="#000000" font-family="sans-serif" font-size="14" lengthAdjust="spacing" textLength="57.5586" x="722" y="990.252">-id: UUID</text><text fill="#000000" font-family="sans-serif" font-size="14" lengthAdjust="spacing" textLength="115.1377" x="722" y="1007.8613">-material_id: UUID</text><text fill="#000000" font-family="sans-serif" font-size="14" lengthAdjust="spacing" textLength="87.917" x="722" y="1025.4707">-unit_id: UUID</text><text fill="#000000" font-family="sans-serif" font-size="14" lengthAdjust="spacing" textLength="93.3516" x="722" y="1043.0801">-price: Decimal</text><text fill="#000000" font-family="sans-serif" font-size="14" lengthAdjust="spacing" textLength="112.0615" x="722" y="1060.6895">-is_main: Boolean</text><line style="stroke:#181818;stroke-width:1.0;" x1="717" x2="869.0029" y1="1067.7656" y2="1067.7656"/><text fill="#000000" font-family="sans-serif" font-size="14" lengthAdjust="spacing" textLength="142.0029" x="722" y="1086.2988">+material(): BelongsTo</text><text fill="#000000" font-family="sans-serif" font-size="14" lengthAdjust="spacing" textLength="114.7822" x="722" y="1103.9082">+unit(): BelongsTo</text></g><!--class MaterialBatch--><g id="elem_MaterialBatch"><rect codeLine="43" fill="#F1F1F1" height="206.4844" id="MaterialBatch" rx="2.5" ry="2.5" style="stroke:#181818;stroke-width:0.5;" width="183.5752" x="905" y="922.2188"/><ellipse cx="949.7412" cy="938.2188" fill="#ADD1B2" rx="11" ry="11" style="stroke:#181818;stroke-width:1.0;"/><path d="M952.5068,934.0938 Q952.6631,933.875 952.8506,933.7656 Q953.0381,933.6563 953.2568,933.6563 Q953.6318,933.6563 953.8662,933.9219 Q954.1006,934.1719 954.1006,934.7813 L954.1006,936.2344 Q954.1006,936.8438 953.8662,937.1094 Q953.6318,937.375 953.2568,937.375 Q952.9131,937.375 952.71,937.1719 Q952.5068,936.9844 952.3975,936.4688 Q952.3506,936.1094 952.1631,935.9219 Q951.835,935.5469 951.2256,935.3281 Q950.6162,935.1094 949.9912,935.1094 Q949.2256,935.1094 948.585,935.4375 Q947.96,935.7656 947.46,936.5156 Q946.9756,937.2656 946.9756,938.2969 L946.9756,939.3906 Q946.9756,940.625 947.8662,941.4531 Q948.7568,942.2656 950.3506,942.2656 Q951.2881,942.2656 951.9443,942.0156 Q952.335,941.8594 952.7568,941.4219 Q953.0225,941.1563 953.1631,941.0781 Q953.3193,941 953.5225,941 Q953.8506,941 954.1006,941.2656 Q954.3662,941.5156 954.3662,941.8594 Q954.3662,942.2031 954.0225,942.6094 Q953.5225,943.1875 952.7256,943.5156 Q951.6475,943.9688 950.3506,943.9688 Q948.835,943.9688 947.6318,943.3438 Q946.6475,942.8438 945.96,941.7813 Q945.2725,940.7031 945.2725,939.4219 L945.2725,938.2656 Q945.2725,936.9375 945.8818,935.7969 Q946.5068,934.6406 947.6006,934.0313 Q948.6943,933.4063 949.9287,933.4063 Q950.6631,933.4063 951.3037,933.5781 Q951.96,933.7344 952.5068,934.0938 Z " fill="#000000"/><text fill="#000000" font-family="sans-serif" font-size="14" lengthAdjust="spacing" textLength="85.5928" x="970.2412" y="943.9473">MaterialBatch</text><line style="stroke:#181818;stroke-width:0.5;" x1="906" x2="1087.5752" y1="954.2188" y2="954.2188"/><text fill="#000000" font-family="sans-serif" font-size="14" lengthAdjust="spacing" textLength="57.5586" x="911" y="972.752">-id: UUID</text><text fill="#000000" font-family="sans-serif" font-size="14" lengthAdjust="spacing" textLength="115.1377" x="911" y="990.3613">-material_id: UUID</text><text fill="#000000" font-family="sans-serif" font-size="14" lengthAdjust="spacing" textLength="87.917" x="911" y="1007.9707">-unit_id: UUID</text><text fill="#000000" font-family="sans-serif" font-size="14" lengthAdjust="spacing" textLength="138.5166" x="911" y="1025.5801">-batch_number: String</text><text fill="#000000" font-family="sans-serif" font-size="14" lengthAdjust="spacing" textLength="69.2617" x="911" y="1043.1895">-date: Date</text><text fill="#000000" font-family="sans-serif" font-size="14" lengthAdjust="spacing" textLength="154.0752" x="911" y="1060.7988">-batch_quantity: Decimal</text><line style="stroke:#181818;stroke-width:1.0;" x1="906" x2="1087.5752" y1="1067.875" y2="1067.875"/><text fill="#000000" font-family="sans-serif" font-size="14" lengthAdjust="spacing" textLength="142.0029" x="911" y="1086.4082">+material(): BelongsTo</text><text fill="#000000" font-family="sans-serif" font-size="14" lengthAdjust="spacing" textLength="114.7822" x="911" y="1104.0176">+unit(): BelongsTo</text><text fill="#000000" font-family="sans-serif" font-size="14" lengthAdjust="spacing" textLength="171.5752" x="911" y="1121.627">+inventoryLogs(): HasMany</text></g><!--class ProductComposition--><g id="elem_ProductComposition"><rect codeLine="56" fill="#F1F1F1" height="188.875" id="ProductComposition" rx="2.5" ry="2.5" style="stroke:#181818;stroke-width:0.5;" width="181.6201" x="1124" y="930.7188"/><ellipse cx="1149.6014" cy="946.7188" fill="#ADD1B2" rx="11" ry="11" style="stroke:#181818;stroke-width:1.0;"/><path d="M1152.367,942.5938 Q1152.5232,942.375 1152.7107,942.2656 Q1152.8982,942.1563 1153.117,942.1563 Q1153.492,942.1563 1153.7264,942.4219 Q1153.9607,942.6719 1153.9607,943.2813 L1153.9607,944.7344 Q1153.9607,945.3438 1153.7264,945.6094 Q1153.492,945.875 1153.117,945.875 Q1152.7732,945.875 1152.5701,945.6719 Q1152.367,945.4844 1152.2576,944.9688 Q1152.2107,944.6094 1152.0232,944.4219 Q1151.6951,944.0469 1151.0857,943.8281 Q1150.4764,943.6094 1149.8514,943.6094 Q1149.0857,943.6094 1148.4451,943.9375 Q1147.8201,944.2656 1147.3201,945.0156 Q1146.8357,945.7656 1146.8357,946.7969 L1146.8357,947.8906 Q1146.8357,949.125 1147.7264,949.9531 Q1148.617,950.7656 1150.2107,950.7656 Q1151.1482,950.7656 1151.8045,950.5156 Q1152.1951,950.3594 1152.617,949.9219 Q1152.8826,949.6563 1153.0232,949.5781 Q1153.1795,949.5 1153.3826,949.5 Q1153.7107,949.5 1153.9607,949.7656 Q1154.2264,950.0156 1154.2264,950.3594 Q1154.2264,950.7031 1153.8826,951.1094 Q1153.3826,951.6875 1152.5857,952.0156 Q1151.5076,952.4688 1150.2107,952.4688 Q1148.6951,952.4688 1147.492,951.8438 Q1146.5076,951.3438 1145.8201,950.2813 Q1145.1326,949.2031 1145.1326,947.9219 L1145.1326,946.7656 Q1145.1326,945.4375 1145.742,944.2969 Q1146.367,943.1406 1147.4607,942.5313 Q1148.5545,941.9063 1149.7889,941.9063 Q1150.5232,941.9063 1151.1639,942.0781 Q1151.8201,942.2344 1152.367,942.5938 Z " fill="#000000"/><text fill="#000000" font-family="sans-serif" font-size="14" lengthAdjust="spacing" textLength="126.0615" x="1165.9572" y="952.4473">ProductComposition</text><line style="stroke:#181818;stroke-width:0.5;" x1="1125" x2="1304.6201" y1="962.7188" y2="962.7188"/><text fill="#000000" font-family="sans-serif" font-size="14" lengthAdjust="spacing" textLength="57.5586" x="1130" y="981.252">-id: UUID</text><text fill="#000000" font-family="sans-serif" font-size="14" lengthAdjust="spacing" textLength="112.041" x="1130" y="998.8613">-product_id: UUID</text><text fill="#000000" font-family="sans-serif" font-size="14" lengthAdjust="spacing" textLength="115.1377" x="1130" y="1016.4707">-material_id: UUID</text><text fill="#000000" font-family="sans-serif" font-size="14" lengthAdjust="spacing" textLength="87.917" x="1130" y="1034.0801">-unit_id: UUID</text><text fill="#000000" font-family="sans-serif" font-size="14" lengthAdjust="spacing" textLength="169.6201" x="1130" y="1051.6895">-material_quantity: Decimal</text><line style="stroke:#181818;stroke-width:1.0;" x1="1125" x2="1304.6201" y1="1058.7656" y2="1058.7656"/><text fill="#000000" font-family="sans-serif" font-size="14" lengthAdjust="spacing" textLength="138.9063" x="1130" y="1077.2988">+product(): BelongsTo</text><text fill="#000000" font-family="sans-serif" font-size="14" lengthAdjust="spacing" textLength="142.0029" x="1130" y="1094.9082">+material(): BelongsTo</text><text fill="#000000" font-family="sans-serif" font-size="14" lengthAdjust="spacing" textLength="114.7822" x="1130" y="1112.5176">+unit(): BelongsTo</text></g><!--class IngredientCategory--><g id="elem_IngredientCategory"><rect codeLine="68" fill="#F1F1F1" height="136.0469" id="IngredientCategory" rx="2.5" ry="2.5" style="stroke:#181818;stroke-width:0.5;" width="195.2373" x="471.5" y="585.2188"/><ellipse cx="506.3729" cy="601.2188" fill="#ADD1B2" rx="11" ry="11" style="stroke:#181818;stroke-width:1.0;"/><path d="M509.1386,597.0938 Q509.2948,596.875 509.4823,596.7656 Q509.6698,596.6563 509.8886,596.6563 Q510.2636,596.6563 510.4979,596.9219 Q510.7323,597.1719 510.7323,597.7813 L510.7323,599.2344 Q510.7323,599.8438 510.4979,600.1094 Q510.2636,600.375 509.8886,600.375 Q509.5448,600.375 509.3417,600.1719 Q509.1386,599.9844 509.0292,599.4688 Q508.9823,599.1094 508.7948,598.9219 Q508.4667,598.5469 507.8573,598.3281 Q507.2479,598.1094 506.6229,598.1094 Q505.8573,598.1094 505.2167,598.4375 Q504.5917,598.7656 504.0917,599.5156 Q503.6073,600.2656 503.6073,601.2969 L503.6073,602.3906 Q503.6073,603.625 504.4979,604.4531 Q505.3886,605.2656 506.9823,605.2656 Q507.9198,605.2656 508.5761,605.0156 Q508.9667,604.8594 509.3886,604.4219 Q509.6542,604.1563 509.7948,604.0781 Q509.9511,604 510.1542,604 Q510.4823,604 510.7323,604.2656 Q510.9979,604.5156 510.9979,604.8594 Q510.9979,605.2031 510.6542,605.6094 Q510.1542,606.1875 509.3573,606.5156 Q508.2792,606.9688 506.9823,606.9688 Q505.4667,606.9688 504.2636,606.3438 Q503.2792,605.8438 502.5917,604.7813 Q501.9042,603.7031 501.9042,602.4219 L501.9042,601.2656 Q501.9042,599.9375 502.5136,598.7969 Q503.1386,597.6406 504.2323,597.0313 Q505.3261,596.4063 506.5604,596.4063 Q507.2948,596.4063 507.9354,596.5781 Q508.5917,596.7344 509.1386,597.0938 Z " fill="#000000"/><text fill="#000000" font-family="sans-serif" font-size="14" lengthAdjust="spacing" textLength="119.0752" x="524.7892" y="606.9473">IngredientCategory</text><line style="stroke:#181818;stroke-width:0.5;" x1="472.5" x2="665.7373" y1="617.2188" y2="617.2188"/><text fill="#000000" font-family="sans-serif" font-size="14" lengthAdjust="spacing" textLength="57.5586" x="477.5" y="635.752">-id: UUID</text><text fill="#000000" font-family="sans-serif" font-size="14" lengthAdjust="spacing" textLength="84.0342" x="477.5" y="653.3613">-name: String</text><text fill="#000000" font-family="sans-serif" font-size="14" lengthAdjust="spacing" textLength="116.7168" x="477.5" y="670.9707">-description: String</text><line style="stroke:#181818;stroke-width:1.0;" x1="472.5" x2="665.7373" y1="678.0469" y2="678.0469"/><text fill="#000000" font-family="sans-serif" font-size="14" lengthAdjust="spacing" textLength="124.8789" x="477.5" y="696.5801">+details(): HasMany</text><text fill="#000000" font-family="sans-serif" font-size="14" lengthAdjust="spacing" textLength="183.2373" x="477.5" y="714.1895">+materials(): BelongsToMany</text></g><!--class IngredientCategoryDetail--><g id="elem_IngredientCategoryDetail"><rect codeLine="77" fill="#F1F1F1" height="136.0469" id="IngredientCategoryDetail" rx="2.5" ry="2.5" style="stroke:#181818;stroke-width:0.5;" width="222.5059" x="457.5" y="957.2188"/><ellipse cx="488.537" cy="973.2188" fill="#ADD1B2" rx="11" ry="11" style="stroke:#181818;stroke-width:1.0;"/><path d="M491.3026,969.0938 Q491.4588,968.875 491.6463,968.7656 Q491.8338,968.6563 492.0526,968.6563 Q492.4276,968.6563 492.662,968.9219 Q492.8963,969.1719 492.8963,969.7813 L492.8963,971.2344 Q492.8963,971.8438 492.662,972.1094 Q492.4276,972.375 492.0526,972.375 Q491.7088,972.375 491.5057,972.1719 Q491.3026,971.9844 491.1932,971.4688 Q491.1463,971.1094 490.9588,970.9219 Q490.6307,970.5469 490.0213,970.3281 Q489.412,970.1094 488.787,970.1094 Q488.0213,970.1094 487.3807,970.4375 Q486.7557,970.7656 486.2557,971.5156 Q485.7713,972.2656 485.7713,973.2969 L485.7713,974.3906 Q485.7713,975.625 486.662,976.4531 Q487.5526,977.2656 489.1463,977.2656 Q490.0838,977.2656 490.7401,977.0156 Q491.1307,976.8594 491.5526,976.4219 Q491.8182,976.1563 491.9588,976.0781 Q492.1151,976 492.3182,976 Q492.6463,976 492.8963,976.2656 Q493.162,976.5156 493.162,976.8594 Q493.162,977.2031 492.8182,977.6094 Q492.3182,978.1875 491.5213,978.5156 Q490.4432,978.9688 489.1463,978.9688 Q487.6307,978.9688 486.4276,978.3438 Q485.4432,977.8438 484.7557,976.7813 Q484.0682,975.7031 484.0682,974.4219 L484.0682,973.2656 Q484.0682,971.9375 484.6776,970.7969 Q485.3026,969.6406 486.3963,969.0313 Q487.4901,968.4063 488.7245,968.4063 Q489.4588,968.4063 490.0995,968.5781 Q490.7557,968.7344 491.3026,969.0938 Z " fill="#000000"/><text fill="#000000" font-family="sans-serif" font-size="14" lengthAdjust="spacing" textLength="154.8682" x="506.1007" y="978.9473">IngredientCategoryDetail</text><line style="stroke:#181818;stroke-width:0.5;" x1="458.5" x2="679.0059" y1="989.2188" y2="989.2188"/><text fill="#000000" font-family="sans-serif" font-size="14" lengthAdjust="spacing" textLength="57.5586" x="463.5" y="1007.752">-id: UUID</text><text fill="#000000" font-family="sans-serif" font-size="14" lengthAdjust="spacing" textLength="188.3164" x="463.5" y="1025.3613">-ingredient_category_id: UUID</text><text fill="#000000" font-family="sans-serif" font-size="14" lengthAdjust="spacing" textLength="115.1377" x="463.5" y="1042.9707">-material_id: UUID</text><line style="stroke:#181818;stroke-width:1.0;" x1="458.5" x2="679.0059" y1="1050.0469" y2="1050.0469"/><text fill="#000000" font-family="sans-serif" font-size="14" lengthAdjust="spacing" textLength="210.5059" x="463.5" y="1068.5801">+ingredientCategory(): BelongsTo</text><text fill="#000000" font-family="sans-serif" font-size="14" lengthAdjust="spacing" textLength="142.0029" x="463.5" y="1086.1895">+material(): BelongsTo</text></g><!--class InventoryLog--><g id="elem_InventoryLog"><rect codeLine="86" fill="#F1F1F1" height="276.9219" id="InventoryLog" rx="2.5" ry="2.5" style="stroke:#181818;stroke-width:0.5;" width="177.7578" x="1036" y="1241.2188"/><ellipse cx="1080.1661" cy="1257.2188" fill="#ADD1B2" rx="11" ry="11" style="stroke:#181818;stroke-width:1.0;"/><path d="M1082.9317,1253.0938 Q1083.0879,1252.875 1083.2754,1252.7656 Q1083.4629,1252.6563 1083.6817,1252.6563 Q1084.0567,1252.6563 1084.2911,1252.9219 Q1084.5254,1253.1719 1084.5254,1253.7813 L1084.5254,1255.2344 Q1084.5254,1255.8438 1084.2911,1256.1094 Q1084.0567,1256.375 1083.6817,1256.375 Q1083.3379,1256.375 1083.1348,1256.1719 Q1082.9317,1255.9844 1082.8223,1255.4688 Q1082.7754,1255.1094 1082.5879,1254.9219 Q1082.2598,1254.5469 1081.6504,1254.3281 Q1081.0411,1254.1094 1080.4161,1254.1094 Q1079.6504,1254.1094 1079.0098,1254.4375 Q1078.3848,1254.7656 1077.8848,1255.5156 Q1077.4004,1256.2656 1077.4004,1257.2969 L1077.4004,1258.3906 Q1077.4004,1259.625 1078.2911,1260.4531 Q1079.1817,1261.2656 1080.7754,1261.2656 Q1081.7129,1261.2656 1082.3692,1261.0156 Q1082.7598,1260.8594 1083.1817,1260.4219 Q1083.4473,1260.1563 1083.5879,1260.0781 Q1083.7442,1260 1083.9473,1260 Q1084.2754,1260 1084.5254,1260.2656 Q1084.7911,1260.5156 1084.7911,1260.8594 Q1084.7911,1261.2031 1084.4473,1261.6094 Q1083.9473,1262.1875 1083.1504,1262.5156 Q1082.0723,1262.9688 1080.7754,1262.9688 Q1079.2598,1262.9688 1078.0567,1262.3438 Q1077.0723,1261.8438 1076.3848,1260.7813 Q1075.6973,1259.7031 1075.6973,1258.4219 L1075.6973,1257.2656 Q1075.6973,1255.9375 1076.3067,1254.7969 Q1076.9317,1253.6406 1078.0254,1253.0313 Q1079.1192,1252.4063 1080.3536,1252.4063 Q1081.0879,1252.4063 1081.7286,1252.5781 Q1082.3848,1252.7344 1082.9317,1253.0938 Z " fill="#000000"/><text fill="#000000" font-family="sans-serif" font-size="14" lengthAdjust="spacing" textLength="80.9443" x="1100.6474" y="1262.9473">InventoryLog</text><line style="stroke:#181818;stroke-width:0.5;" x1="1037" x2="1212.7578" y1="1273.2188" y2="1273.2188"/><text fill="#000000" font-family="sans-serif" font-size="14" lengthAdjust="spacing" textLength="57.5586" x="1042" y="1291.752">-id: UUID</text><text fill="#000000" font-family="sans-serif" font-size="14" lengthAdjust="spacing" textLength="115.1377" x="1042" y="1309.3613">-material_id: UUID</text><text fill="#000000" font-family="sans-serif" font-size="14" lengthAdjust="spacing" textLength="157.1719" x="1042" y="1326.9707">-material_batch_id: UUID</text><text fill="#000000" font-family="sans-serif" font-size="14" lengthAdjust="spacing" textLength="92.5791" x="1042" y="1344.5801">-user_id: UUID</text><text fill="#000000" font-family="sans-serif" font-size="14" lengthAdjust="spacing" textLength="86.3721" x="1042" y="1362.1895">-action: String</text><text fill="#000000" font-family="sans-serif" font-size="14" lengthAdjust="spacing" textLength="165.7578" x="1042" y="1379.7988">-quantity_change: Decimal</text><text fill="#000000" font-family="sans-serif" font-size="14" lengthAdjust="spacing" textLength="147.8408" x="1042" y="1397.4082">-quantity_after: Decimal</text><text fill="#000000" font-family="sans-serif" font-size="14" lengthAdjust="spacing" textLength="142.4063" x="1042" y="1415.0176">-reference_type: String</text><text fill="#000000" font-family="sans-serif" font-size="14" lengthAdjust="spacing" textLength="126.8408" x="1042" y="1432.627">-reference_id: String</text><text fill="#000000" font-family="sans-serif" font-size="14" lengthAdjust="spacing" textLength="66.917" x="1042" y="1450.2363">-note: Text</text><line style="stroke:#181818;stroke-width:1.0;" x1="1037" x2="1212.7578" y1="1457.3125" y2="1457.3125"/><text fill="#000000" font-family="sans-serif" font-size="14" lengthAdjust="spacing" textLength="142.0029" x="1042" y="1475.8457">+material(): BelongsTo</text><text fill="#000000" font-family="sans-serif" font-size="14" lengthAdjust="spacing" textLength="126.458" x="1042" y="1493.4551">+batch(): BelongsTo</text><text fill="#000000" font-family="sans-serif" font-size="14" lengthAdjust="spacing" textLength="119.4443" x="1042" y="1511.0645">+user(): BelongsTo</text></g><!--class Supplier--><g id="elem_Supplier"><rect codeLine="105" fill="#F1F1F1" height="224.0938" id="Supplier" rx="2.5" ry="2.5" style="stroke:#181818;stroke-width:0.5;" width="156.3408" x="1438" y="155.7188"/><ellipse cx="1486.2378" cy="171.7188" fill="#ADD1B2" rx="11" ry="11" style="stroke:#181818;stroke-width:1.0;"/><path d="M1489.0034,167.5938 Q1489.1597,167.375 1489.3472,167.2656 Q1489.5347,167.1563 1489.7534,167.1563 Q1490.1284,167.1563 1490.3628,167.4219 Q1490.5972,167.6719 1490.5972,168.2813 L1490.5972,169.7344 Q1490.5972,170.3438 1490.3628,170.6094 Q1490.1284,170.875 1489.7534,170.875 Q1489.4097,170.875 1489.2065,170.6719 Q1489.0034,170.4844 1488.894,169.9688 Q1488.8472,169.6094 1488.6597,169.4219 Q1488.3315,169.0469 1487.7222,168.8281 Q1487.1128,168.6094 1486.4878,168.6094 Q1485.7222,168.6094 1485.0815,168.9375 Q1484.4565,169.2656 1483.9565,170.0156 Q1483.4722,170.7656 1483.4722,171.7969 L1483.4722,172.8906 Q1483.4722,174.125 1484.3628,174.9531 Q1485.2534,175.7656 1486.8472,175.7656 Q1487.7847,175.7656 1488.4409,175.5156 Q1488.8315,175.3594 1489.2534,174.9219 Q1489.519,174.6563 1489.6597,174.5781 Q1489.8159,174.5 1490.019,174.5 Q1490.3472,174.5 1490.5972,174.7656 Q1490.8628,175.0156 1490.8628,175.3594 Q1490.8628,175.7031 1490.519,176.1094 Q1490.019,176.6875 1489.2222,177.0156 Q1488.144,177.4688 1486.8472,177.4688 Q1485.3315,177.4688 1484.1284,176.8438 Q1483.144,176.3438 1482.4565,175.2813 Q1481.769,174.2031 1481.769,172.9219 L1481.769,171.7656 Q1481.769,170.4375 1482.3784,169.2969 Q1483.0034,168.1406 1484.0972,167.5313 Q1485.1909,166.9063 1486.4253,166.9063 Q1487.1597,166.9063 1487.8003,167.0781 Q1488.4565,167.2344 1489.0034,167.5938 Z " fill="#000000"/><text fill="#000000" font-family="sans-serif" font-size="14" lengthAdjust="spacing" textLength="51.3652" x="1506.7378" y="177.4473">Supplier</text><line style="stroke:#181818;stroke-width:0.5;" x1="1439" x2="1593.3408" y1="187.7188" y2="187.7188"/><text fill="#000000" font-family="sans-serif" font-size="14" lengthAdjust="spacing" textLength="57.5586" x="1444" y="206.252">-id: UUID</text><text fill="#000000" font-family="sans-serif" font-size="14" lengthAdjust="spacing" textLength="84.0342" x="1444" y="223.8613">-name: String</text><text fill="#000000" font-family="sans-serif" font-size="14" lengthAdjust="spacing" textLength="116.7168" x="1444" y="241.4707">-description: String</text><text fill="#000000" font-family="sans-serif" font-size="14" lengthAdjust="spacing" textLength="136.958" x="1444" y="259.0801">-contact_name: String</text><text fill="#000000" font-family="sans-serif" font-size="14" lengthAdjust="spacing" textLength="87.9443" x="1444" y="276.6895">-phone: String</text><text fill="#000000" font-family="sans-serif" font-size="14" lengthAdjust="spacing" textLength="84.0273" x="1444" y="294.2988">-street: String</text><text fill="#000000" font-family="sans-serif" font-size="14" lengthAdjust="spacing" textLength="106.5928" x="1444" y="311.9082">-landmark: String</text><text fill="#000000" font-family="sans-serif" font-size="14" lengthAdjust="spacing" textLength="112.041" x="1444" y="329.5176">-maps_link: String</text><text fill="#000000" font-family="sans-serif" font-size="14" lengthAdjust="spacing" textLength="87.1445" x="1444" y="347.127">-image: String</text><line style="stroke:#181818;stroke-width:1.0;" x1="1439" x2="1593.3408" y1="354.2031" y2="354.2031"/><text fill="#000000" font-family="sans-serif" font-size="14" lengthAdjust="spacing" textLength="144.3408" x="1444" y="372.7363">+expenses(): HasMany</text></g><!--class Expense--><g id="elem_Expense"><rect codeLine="119" fill="#F1F1F1" height="294.5313" id="Expense" rx="2.5" ry="2.5" style="stroke:#181818;stroke-width:0.5;" width="233.3955" x="1399.5" y="505.7188"/><ellipse cx="1484.7065" cy="521.7188" fill="#ADD1B2" rx="11" ry="11" style="stroke:#181818;stroke-width:1.0;"/><path d="M1487.4722,517.5938 Q1487.6284,517.375 1487.8159,517.2656 Q1488.0034,517.1563 1488.2222,517.1563 Q1488.5972,517.1563 1488.8315,517.4219 Q1489.0659,517.6719 1489.0659,518.2813 L1489.0659,519.7344 Q1489.0659,520.3438 1488.8315,520.6094 Q1488.5972,520.875 1488.2222,520.875 Q1487.8784,520.875 1487.6753,520.6719 Q1487.4722,520.4844 1487.3628,519.9688 Q1487.3159,519.6094 1487.1284,519.4219 Q1486.8003,519.0469 1486.1909,518.8281 Q1485.5815,518.6094 1484.9565,518.6094 Q1484.1909,518.6094 1483.5503,518.9375 Q1482.9253,519.2656 1482.4253,520.0156 Q1481.9409,520.7656 1481.9409,521.7969 L1481.9409,522.8906 Q1481.9409,524.125 1482.8315,524.9531 Q1483.7222,525.7656 1485.3159,525.7656 Q1486.2534,525.7656 1486.9097,525.5156 Q1487.3003,525.3594 1487.7222,524.9219 Q1487.9878,524.6563 1488.1284,524.5781 Q1488.2847,524.5 1488.4878,524.5 Q1488.8159,524.5 1489.0659,524.7656 Q1489.3315,525.0156 1489.3315,525.3594 Q1489.3315,525.7031 1488.9878,526.1094 Q1488.4878,526.6875 1487.6909,527.0156 Q1486.6128,527.4688 1485.3159,527.4688 Q1483.8003,527.4688 1482.5972,526.8438 Q1481.6128,526.3438 1480.9253,525.2813 Q1480.2378,524.2031 1480.2378,522.9219 L1480.2378,521.7656 Q1480.2378,520.4375 1480.8472,519.2969 Q1481.4722,518.1406 1482.5659,517.5313 Q1483.6597,516.9063 1484.894,516.9063 Q1485.6284,516.9063 1486.269,517.0781 Q1486.9253,517.2344 1487.4722,517.5938 Z " fill="#000000"/><text fill="#000000" font-family="sans-serif" font-size="14" lengthAdjust="spacing" textLength="54.4824" x="1505.2065" y="527.4473">Expense</text><line style="stroke:#181818;stroke-width:0.5;" x1="1400.5" x2="1631.8955" y1="537.7188" y2="537.7188"/><text fill="#000000" font-family="sans-serif" font-size="14" lengthAdjust="spacing" textLength="57.5586" x="1405.5" y="556.252">-id: UUID</text><text fill="#000000" font-family="sans-serif" font-size="14" lengthAdjust="spacing" textLength="157.1992" x="1405.5" y="573.8613">-expense_number: String</text><text fill="#000000" font-family="sans-serif" font-size="14" lengthAdjust="spacing" textLength="129.9785" x="1405.5" y="591.4707">-expense_date: Date</text><text fill="#000000" font-family="sans-serif" font-size="14" lengthAdjust="spacing" textLength="100.4063" x="1405.5" y="609.0801">-end_date: Date</text><text fill="#000000" font-family="sans-serif" font-size="14" lengthAdjust="spacing" textLength="114.3721" x="1405.5" y="626.6895">-supplier_id: UUID</text><text fill="#000000" font-family="sans-serif" font-size="14" lengthAdjust="spacing" textLength="76.2617" x="1405.5" y="644.2988">-note: String</text><text fill="#000000" font-family="sans-serif" font-size="14" lengthAdjust="spacing" textLength="86.3652" x="1405.5" y="661.9082">-status: String</text><text fill="#000000" font-family="sans-serif" font-size="14" lengthAdjust="spacing" textLength="182.0957" x="1405.5" y="679.5176">-grand_total_expect: Decimal</text><text fill="#000000" font-family="sans-serif" font-size="14" lengthAdjust="spacing" textLength="178.2061" x="1405.5" y="697.127">-grand_total_actual: Decimal</text><text fill="#000000" font-family="sans-serif" font-size="14" lengthAdjust="spacing" textLength="108.9443" x="1405.5" y="714.7363">-is_start: Boolean</text><text fill="#000000" font-family="sans-serif" font-size="14" lengthAdjust="spacing" textLength="114.3994" x="1405.5" y="732.3457">-is_finish: Boolean</text><line style="stroke:#181818;stroke-width:1.0;" x1="1400.5" x2="1631.8955" y1="739.4219" y2="739.4219"/><text fill="#000000" font-family="sans-serif" font-size="14" lengthAdjust="spacing" textLength="141.2373" x="1405.5" y="757.9551">+supplier(): BelongsTo</text><text fill="#000000" font-family="sans-serif" font-size="14" lengthAdjust="spacing" textLength="180.1338" x="1405.5" y="775.5645">+expenseDetails(): HasMany</text><text fill="#000000" font-family="sans-serif" font-size="14" lengthAdjust="spacing" textLength="221.3955" x="1405.5" y="793.1738">+generateExpenseNumber(): String</text></g><!--class ExpenseDetail--><g id="elem_ExpenseDetail"><rect codeLine="137" fill="#F1F1F1" height="312.1406" id="ExpenseDetail" rx="2.5" ry="2.5" style="stroke:#181818;stroke-width:0.5;" width="173.0752" x="1414.5" y="869.2188"/><ellipse cx="1452.3599" cy="885.2188" fill="#ADD1B2" rx="11" ry="11" style="stroke:#181818;stroke-width:1.0;"/><path d="M1455.1255,881.0938 Q1455.2818,880.875 1455.4693,880.7656 Q1455.6568,880.6563 1455.8755,880.6563 Q1456.2505,880.6563 1456.4849,880.9219 Q1456.7193,881.1719 1456.7193,881.7813 L1456.7193,883.2344 Q1456.7193,883.8438 1456.4849,884.1094 Q1456.2505,884.375 1455.8755,884.375 Q1455.5318,884.375 1455.3287,884.1719 Q1455.1255,883.9844 1455.0162,883.4688 Q1454.9693,883.1094 1454.7818,882.9219 Q1454.4537,882.5469 1453.8443,882.3281 Q1453.2349,882.1094 1452.6099,882.1094 Q1451.8443,882.1094 1451.2037,882.4375 Q1450.5787,882.7656 1450.0787,883.5156 Q1449.5943,884.2656 1449.5943,885.2969 L1449.5943,886.3906 Q1449.5943,887.625 1450.4849,888.4531 Q1451.3755,889.2656 1452.9693,889.2656 Q1453.9068,889.2656 1454.563,889.0156 Q1454.9537,888.8594 1455.3755,888.4219 Q1455.6412,888.1563 1455.7818,888.0781 Q1455.938,888 1456.1412,888 Q1456.4693,888 1456.7193,888.2656 Q1456.9849,888.5156 1456.9849,888.8594 Q1456.9849,889.2031 1456.6412,889.6094 Q1456.1412,890.1875 1455.3443,890.5156 Q1454.2662,890.9688 1452.9693,890.9688 Q1451.4537,890.9688 1450.2505,890.3438 Q1449.2662,889.8438 1448.5787,888.7813 Q1447.8912,887.7031 1447.8912,886.4219 L1447.8912,885.2656 Q1447.8912,883.9375 1448.5005,882.7969 Q1449.1255,881.6406 1450.2193,881.0313 Q1451.313,880.4063 1452.5474,880.4063 Q1453.2818,880.4063 1453.9224,880.5781 Q1454.5787,880.7344 1455.1255,881.0938 Z " fill="#000000"/><text fill="#000000" font-family="sans-serif" font-size="14" lengthAdjust="spacing" textLength="90.2754" x="1471.4399" y="890.9473">ExpenseDetail</text><line style="stroke:#181818;stroke-width:0.5;" x1="1415.5" x2="1586.5752" y1="901.2188" y2="901.2188"/><text fill="#000000" font-family="sans-serif" font-size="14" lengthAdjust="spacing" textLength="57.5586" x="1420.5" y="919.752">-id: UUID</text><text fill="#000000" font-family="sans-serif" font-size="14" lengthAdjust="spacing" textLength="118.2754" x="1420.5" y="937.3613">-expense_id: UUID</text><text fill="#000000" font-family="sans-serif" font-size="14" lengthAdjust="spacing" textLength="115.1377" x="1420.5" y="954.9707">-material_id: UUID</text><text fill="#000000" font-family="sans-serif" font-size="14" lengthAdjust="spacing" textLength="87.917" x="1420.5" y="972.5801">-unit_id: UUID</text><text fill="#000000" font-family="sans-serif" font-size="14" lengthAdjust="spacing" textLength="161.0752" x="1420.5" y="990.1895">-quantity_expect: Decimal</text><text fill="#000000" font-family="sans-serif" font-size="14" lengthAdjust="spacing" textLength="139.2891" x="1420.5" y="1007.7988">-quantity_get: Decimal</text><text fill="#000000" font-family="sans-serif" font-size="14" lengthAdjust="spacing" textLength="157.999" x="1420.5" y="1025.4082">-is_quantity_get: Boolean</text><text fill="#000000" font-family="sans-serif" font-size="14" lengthAdjust="spacing" textLength="142.3857" x="1420.5" y="1043.0176">-price_expect: Decimal</text><text fill="#000000" font-family="sans-serif" font-size="14" lengthAdjust="spacing" textLength="120.5996" x="1420.5" y="1060.627">-price_get: Decimal</text><text fill="#000000" font-family="sans-serif" font-size="14" lengthAdjust="spacing" textLength="138.5029" x="1420.5" y="1078.2363">-total_expect: Decimal</text><text fill="#000000" font-family="sans-serif" font-size="14" lengthAdjust="spacing" textLength="134.6133" x="1420.5" y="1095.8457">-total_actual: Decimal</text><text fill="#000000" font-family="sans-serif" font-size="14" lengthAdjust="spacing" textLength="114.3926" x="1420.5" y="1113.4551">-expiry_date: Date</text><line style="stroke:#181818;stroke-width:1.0;" x1="1415.5" x2="1586.5752" y1="1120.5313" y2="1120.5313"/><text fill="#000000" font-family="sans-serif" font-size="14" lengthAdjust="spacing" textLength="145.1406" x="1420.5" y="1139.0645">+expense(): BelongsTo</text><text fill="#000000" font-family="sans-serif" font-size="14" lengthAdjust="spacing" textLength="142.0029" x="1420.5" y="1156.6738">+material(): BelongsTo</text><text fill="#000000" font-family="sans-serif" font-size="14" lengthAdjust="spacing" textLength="114.7822" x="1420.5" y="1174.2832">+unit(): BelongsTo</text></g><!--class Production--><g id="elem_Production"><rect codeLine="158" fill="#F1F1F1" height="329.75" id="Production" rx="2.5" ry="2.5" style="stroke:#181818;stroke-width:0.5;" width="245.8438" x="2029" y="102.7188"/><ellipse cx="2114.2065" cy="118.7188" fill="#ADD1B2" rx="11" ry="11" style="stroke:#181818;stroke-width:1.0;"/><path d="M2116.9722,114.5938 Q2117.1284,114.375 2117.3159,114.2656 Q2117.5034,114.1563 2117.7222,114.1563 Q2118.0972,114.1563 2118.3315,114.4219 Q2118.5659,114.6719 2118.5659,115.2813 L2118.5659,116.7344 Q2118.5659,117.3438 2118.3315,117.6094 Q2118.0972,117.875 2117.7222,117.875 Q2117.3784,117.875 2117.1753,117.6719 Q2116.9722,117.4844 2116.8628,116.9688 Q2116.8159,116.6094 2116.6284,116.4219 Q2116.3003,116.0469 2115.6909,115.8281 Q2115.0815,115.6094 2114.4565,115.6094 Q2113.6909,115.6094 2113.0503,115.9375 Q2112.4253,116.2656 2111.9253,117.0156 Q2111.4409,117.7656 2111.4409,118.7969 L2111.4409,119.8906 Q2111.4409,121.125 2112.3315,121.9531 Q2113.2222,122.7656 2114.8159,122.7656 Q2115.7534,122.7656 2116.4097,122.5156 Q2116.8003,122.3594 2117.2222,121.9219 Q2117.4878,121.6563 2117.6284,121.5781 Q2117.7847,121.5 2117.9878,121.5 Q2118.3159,121.5 2118.5659,121.7656 Q2118.8315,122.0156 2118.8315,122.3594 Q2118.8315,122.7031 2118.4878,123.1094 Q2117.9878,123.6875 2117.1909,124.0156 Q2116.1128,124.4688 2114.8159,124.4688 Q2113.3003,124.4688 2112.0972,123.8438 Q2111.1128,123.3438 2110.4253,122.2813 Q2109.7378,121.2031 2109.7378,119.9219 L2109.7378,118.7656 Q2109.7378,117.4375 2110.3472,116.2969 Q2110.9722,115.1406 2112.0659,114.5313 Q2113.1597,113.9063 2114.394,113.9063 Q2115.1284,113.9063 2115.769,114.0781 Q2116.4253,114.2344 2116.9722,114.5938 Z " fill="#000000"/><text fill="#000000" font-family="sans-serif" font-size="14" lengthAdjust="spacing" textLength="66.9307" x="2134.7065" y="124.4473">Production</text><line style="stroke:#181818;stroke-width:0.5;" x1="2030" x2="2273.8438" y1="134.7188" y2="134.7188"/><text fill="#000000" font-family="sans-serif" font-size="14" lengthAdjust="spacing" textLength="57.5586" x="2035" y="153.252">-id: UUID</text><text fill="#000000" font-family="sans-serif" font-size="14" lengthAdjust="spacing" textLength="169.6475" x="2035" y="170.8613">-production_number: String</text><text fill="#000000" font-family="sans-serif" font-size="14" lengthAdjust="spacing" textLength="133.8271" x="2035" y="188.4707">-transaction_id: UUID</text><text fill="#000000" font-family="sans-serif" font-size="14" lengthAdjust="spacing" textLength="95.71" x="2035" y="206.0801">-method: String</text><text fill="#000000" font-family="sans-serif" font-size="14" lengthAdjust="spacing" textLength="69.2617" x="2035" y="223.6895">-date: Date</text><text fill="#000000" font-family="sans-serif" font-size="14" lengthAdjust="spacing" textLength="70" x="2035" y="241.2988">-time: Time</text><text fill="#000000" font-family="sans-serif" font-size="14" lengthAdjust="spacing" textLength="104.2754" x="2035" y="258.9082">-start_date: Date</text><text fill="#000000" font-family="sans-serif" font-size="14" lengthAdjust="spacing" textLength="100.4063" x="2035" y="276.5176">-end_date: Date</text><text fill="#000000" font-family="sans-serif" font-size="14" lengthAdjust="spacing" textLength="76.2617" x="2035" y="294.127">-note: String</text><text fill="#000000" font-family="sans-serif" font-size="14" lengthAdjust="spacing" textLength="86.3652" x="2035" y="311.7363">-status: String</text><text fill="#000000" font-family="sans-serif" font-size="14" lengthAdjust="spacing" textLength="108.9443" x="2035" y="329.3457">-is_start: Boolean</text><text fill="#000000" font-family="sans-serif" font-size="14" lengthAdjust="spacing" textLength="114.3994" x="2035" y="346.9551">-is_finish: Boolean</text><line style="stroke:#181818;stroke-width:1.0;" x1="2030" x2="2273.8438" y1="354.0313" y2="354.0313"/><text fill="#000000" font-family="sans-serif" font-size="14" lengthAdjust="spacing" textLength="160.6924" x="2035" y="372.5645">+transaction(): BelongsTo</text><text fill="#000000" font-family="sans-serif" font-size="14" lengthAdjust="spacing" textLength="124.8789" x="2035" y="390.1738">+details(): HasMany</text><text fill="#000000" font-family="sans-serif" font-size="14" lengthAdjust="spacing" textLength="133.417" x="2035" y="407.7832">+workers(): HasMany</text><text fill="#000000" font-family="sans-serif" font-size="14" lengthAdjust="spacing" textLength="233.8438" x="2035" y="425.3926">+generateProductionNumber(): String</text></g><!--class ProductionDetail--><g id="elem_ProductionDetail"><rect codeLine="178" fill="#F1F1F1" height="206.4844" id="ProductionDetail" rx="2.5" ry="2.5" style="stroke:#181818;stroke-width:0.5;" width="169.5889" x="1965" y="550.2188"/><ellipse cx="1995.6894" cy="566.2188" fill="#ADD1B2" rx="11" ry="11" style="stroke:#181818;stroke-width:1.0;"/><path d="M1998.455,562.0938 Q1998.6112,561.875 1998.7987,561.7656 Q1998.9862,561.6563 1999.205,561.6563 Q1999.58,561.6563 1999.8144,561.9219 Q2000.0487,562.1719 2000.0487,562.7813 L2000.0487,564.2344 Q2000.0487,564.8438 1999.8144,565.1094 Q1999.58,565.375 1999.205,565.375 Q1998.8612,565.375 1998.6581,565.1719 Q1998.455,564.9844 1998.3456,564.4688 Q1998.2987,564.1094 1998.1112,563.9219 Q1997.7831,563.5469 1997.1737,563.3281 Q1996.5644,563.1094 1995.9394,563.1094 Q1995.1737,563.1094 1994.5331,563.4375 Q1993.9081,563.7656 1993.4081,564.5156 Q1992.9237,565.2656 1992.9237,566.2969 L1992.9237,567.3906 Q1992.9237,568.625 1993.8144,569.4531 Q1994.705,570.2656 1996.2987,570.2656 Q1997.2362,570.2656 1997.8925,570.0156 Q1998.2831,569.8594 1998.705,569.4219 Q1998.9706,569.1563 1999.1112,569.0781 Q1999.2675,569 1999.4706,569 Q1999.7987,569 2000.0487,569.2656 Q2000.3144,569.5156 2000.3144,569.8594 Q2000.3144,570.2031 1999.9706,570.6094 Q1999.4706,571.1875 1998.6737,571.5156 Q1997.5956,571.9688 1996.2987,571.9688 Q1994.7831,571.9688 1993.58,571.3438 Q1992.5956,570.8438 1991.9081,569.7813 Q1991.2206,568.7031 1991.2206,567.4219 L1991.2206,566.2656 Q1991.2206,564.9375 1991.83,563.7969 Q1992.455,562.6406 1993.5487,562.0313 Q1994.6425,561.4063 1995.8769,561.4063 Q1996.6112,561.4063 1997.2519,561.5781 Q1997.9081,561.7344 1998.455,562.0938 Z " fill="#000000"/><text fill="#000000" font-family="sans-serif" font-size="14" lengthAdjust="spacing" textLength="102.7236" x="2013.1759" y="571.9473">ProductionDetail</text><line style="stroke:#181818;stroke-width:0.5;" x1="1966" x2="2133.5889" y1="582.2188" y2="582.2188"/><text fill="#000000" font-family="sans-serif" font-size="14" lengthAdjust="spacing" textLength="57.5586" x="1971" y="600.752">-id: UUID</text><text fill="#000000" font-family="sans-serif" font-size="14" lengthAdjust="spacing" textLength="130.7236" x="1971" y="618.3613">-production_id: UUID</text><text fill="#000000" font-family="sans-serif" font-size="14" lengthAdjust="spacing" textLength="112.041" x="1971" y="635.9707">-product_id: UUID</text><text fill="#000000" font-family="sans-serif" font-size="14" lengthAdjust="spacing" textLength="146.2959" x="1971" y="653.5801">-quantity_plan: Decimal</text><text fill="#000000" font-family="sans-serif" font-size="14" lengthAdjust="spacing" textLength="139.2891" x="1971" y="671.1895">-quantity_get: Decimal</text><text fill="#000000" font-family="sans-serif" font-size="14" lengthAdjust="spacing" textLength="137.7236" x="1971" y="688.7988">-quantity_fail: Decimal</text><text fill="#000000" font-family="sans-serif" font-size="14" lengthAdjust="spacing" textLength="94.9033" x="1971" y="706.4082">-cycle: Decimal</text><line style="stroke:#181818;stroke-width:1.0;" x1="1966" x2="2133.5889" y1="713.4844" y2="713.4844"/><text fill="#000000" font-family="sans-serif" font-size="14" lengthAdjust="spacing" textLength="157.5889" x="1971" y="732.0176">+production(): BelongsTo</text><text fill="#000000" font-family="sans-serif" font-size="14" lengthAdjust="spacing" textLength="138.9063" x="1971" y="749.627">+product(): BelongsTo</text></g><!--class ProductionWorker--><g id="elem_ProductionWorker"><rect codeLine="191" fill="#F1F1F1" height="136.0469" id="ProductionWorker" rx="2.5" ry="2.5" style="stroke:#181818;stroke-width:0.5;" width="169.5889" x="2170" y="585.2188"/><ellipse cx="2196.4965" cy="601.2188" fill="#ADD1B2" rx="11" ry="11" style="stroke:#181818;stroke-width:1.0;"/><path d="M2199.2622,597.0938 Q2199.4184,596.875 2199.6059,596.7656 Q2199.7934,596.6563 2200.0122,596.6563 Q2200.3872,596.6563 2200.6215,596.9219 Q2200.8559,597.1719 2200.8559,597.7813 L2200.8559,599.2344 Q2200.8559,599.8438 2200.6215,600.1094 Q2200.3872,600.375 2200.0122,600.375 Q2199.6684,600.375 2199.4653,600.1719 Q2199.2622,599.9844 2199.1528,599.4688 Q2199.1059,599.1094 2198.9184,598.9219 Q2198.5903,598.5469 2197.9809,598.3281 Q2197.3715,598.1094 2196.7465,598.1094 Q2195.9809,598.1094 2195.3403,598.4375 Q2194.7153,598.7656 2194.2153,599.5156 Q2193.7309,600.2656 2193.7309,601.2969 L2193.7309,602.3906 Q2193.7309,603.625 2194.6215,604.4531 Q2195.5122,605.2656 2197.1059,605.2656 Q2198.0434,605.2656 2198.6997,605.0156 Q2199.0903,604.8594 2199.5122,604.4219 Q2199.7778,604.1563 2199.9184,604.0781 Q2200.0747,604 2200.2778,604 Q2200.6059,604 2200.8559,604.2656 Q2201.1215,604.5156 2201.1215,604.8594 Q2201.1215,605.2031 2200.7778,605.6094 Q2200.2778,606.1875 2199.4809,606.5156 Q2198.4028,606.9688 2197.1059,606.9688 Q2195.5903,606.9688 2194.3872,606.3438 Q2193.4028,605.8438 2192.7153,604.7813 Q2192.0278,603.7031 2192.0278,602.4219 L2192.0278,601.2656 Q2192.0278,599.9375 2192.6372,598.7969 Q2193.2622,597.6406 2194.3559,597.0313 Q2195.4497,596.4063 2196.684,596.4063 Q2197.4184,596.4063 2198.059,596.5781 Q2198.7153,596.7344 2199.2622,597.0938 Z " fill="#000000"/><text fill="#000000" font-family="sans-serif" font-size="14" lengthAdjust="spacing" textLength="112.041" x="2213.0513" y="606.9473">ProductionWorker</text><line style="stroke:#181818;stroke-width:0.5;" x1="2171" x2="2338.5889" y1="617.2188" y2="617.2188"/><text fill="#000000" font-family="sans-serif" font-size="14" lengthAdjust="spacing" textLength="57.5586" x="2176" y="635.752">-id: UUID</text><text fill="#000000" font-family="sans-serif" font-size="14" lengthAdjust="spacing" textLength="130.7236" x="2176" y="653.3613">-production_id: UUID</text><text fill="#000000" font-family="sans-serif" font-size="14" lengthAdjust="spacing" textLength="92.5791" x="2176" y="670.9707">-user_id: UUID</text><line style="stroke:#181818;stroke-width:1.0;" x1="2171" x2="2338.5889" y1="678.0469" y2="678.0469"/><text fill="#000000" font-family="sans-serif" font-size="14" lengthAdjust="spacing" textLength="157.5889" x="2176" y="696.5801">+production(): BelongsTo</text><text fill="#000000" font-family="sans-serif" font-size="14" lengthAdjust="spacing" textLength="119.4443" x="2176" y="714.1895">+user(): BelongsTo</text></g><!--class Hitung--><g id="elem_Hitung"><rect codeLine="202" fill="#F1F1F1" height="312.1406" id="Hitung" rx="2.5" ry="2.5" style="stroke:#181818;stroke-width:0.5;" width="219.3818" x="1689.5" y="497.2188"/><ellipse cx="1774.7065" cy="513.2188" fill="#ADD1B2" rx="11" ry="11" style="stroke:#181818;stroke-width:1.0;"/><path d="M1777.4722,509.0938 Q1777.6284,508.875 1777.8159,508.7656 Q1778.0034,508.6563 1778.2222,508.6563 Q1778.5972,508.6563 1778.8315,508.9219 Q1779.0659,509.1719 1779.0659,509.7813 L1779.0659,511.2344 Q1779.0659,511.8438 1778.8315,512.1094 Q1778.5972,512.375 1778.2222,512.375 Q1777.8784,512.375 1777.6753,512.1719 Q1777.4722,511.9844 1777.3628,511.4688 Q1777.3159,511.1094 1777.1284,510.9219 Q1776.8003,510.5469 1776.1909,510.3281 Q1775.5815,510.1094 1774.9565,510.1094 Q1774.1909,510.1094 1773.5503,510.4375 Q1772.9253,510.7656 1772.4253,511.5156 Q1771.9409,512.2656 1771.9409,513.2969 L1771.9409,514.3906 Q1771.9409,515.625 1772.8315,516.4531 Q1773.7222,517.2656 1775.3159,517.2656 Q1776.2534,517.2656 1776.9097,517.0156 Q1777.3003,516.8594 1777.7222,516.4219 Q1777.9878,516.1563 1778.1284,516.0781 Q1778.2847,516 1778.4878,516 Q1778.8159,516 1779.0659,516.2656 Q1779.3315,516.5156 1779.3315,516.8594 Q1779.3315,517.2031 1778.9878,517.6094 Q1778.4878,518.1875 1777.6909,518.5156 Q1776.6128,518.9688 1775.3159,518.9688 Q1773.8003,518.9688 1772.5972,518.3438 Q1771.6128,517.8438 1770.9253,516.7813 Q1770.2378,515.7031 1770.2378,514.4219 L1770.2378,513.2656 Q1770.2378,511.9375 1770.8472,510.7969 Q1771.4722,509.6406 1772.5659,509.0313 Q1773.6597,508.4063 1774.894,508.4063 Q1775.6284,508.4063 1776.269,508.5781 Q1776.9253,508.7344 1777.4722,509.0938 Z " fill="#000000"/><text fill="#000000" font-family="sans-serif" font-size="14" lengthAdjust="spacing" textLength="40.4688" x="1795.2065" y="518.9473">Hitung</text><line style="stroke:#181818;stroke-width:0.5;" x1="1690.5" x2="1907.8818" y1="529.2188" y2="529.2188"/><text fill="#000000" font-family="sans-serif" font-size="14" lengthAdjust="spacing" textLength="57.5586" x="1695.5" y="547.752">-id: UUID</text><text fill="#000000" font-family="sans-serif" font-size="14" lengthAdjust="spacing" textLength="92.5791" x="1695.5" y="565.3613">-user_id: UUID</text><text fill="#000000" font-family="sans-serif" font-size="14" lengthAdjust="spacing" textLength="142.4131" x="1695.5" y="582.9707">-hitung_number: String</text><text fill="#000000" font-family="sans-serif" font-size="14" lengthAdjust="spacing" textLength="86.3721" x="1695.5" y="600.5801">-action: String</text><text fill="#000000" font-family="sans-serif" font-size="14" lengthAdjust="spacing" textLength="76.2617" x="1695.5" y="618.1895">-note: String</text><text fill="#000000" font-family="sans-serif" font-size="14" lengthAdjust="spacing" textLength="86.3652" x="1695.5" y="635.7988">-status: String</text><text fill="#000000" font-family="sans-serif" font-size="14" lengthAdjust="spacing" textLength="115.1924" x="1695.5" y="653.4082">-hitung_date: Date</text><text fill="#000000" font-family="sans-serif" font-size="14" lengthAdjust="spacing" textLength="155.6611" x="1695.5" y="671.0176">-hitung_date_finish: Date</text><text fill="#000000" font-family="sans-serif" font-size="14" lengthAdjust="spacing" textLength="108.9443" x="1695.5" y="688.627">-is_start: Boolean</text><text fill="#000000" font-family="sans-serif" font-size="14" lengthAdjust="spacing" textLength="114.3994" x="1695.5" y="706.2363">-is_finish: Boolean</text><text fill="#000000" font-family="sans-serif" font-size="14" lengthAdjust="spacing" textLength="133.0615" x="1695.5" y="723.8457">-grand_total: Decimal</text><text fill="#000000" font-family="sans-serif" font-size="14" lengthAdjust="spacing" textLength="165.7441" x="1695.5" y="741.4551">-loss_grand_total: Decimal</text><line style="stroke:#181818;stroke-width:1.0;" x1="1690.5" x2="1907.8818" y1="748.5313" y2="748.5313"/><text fill="#000000" font-family="sans-serif" font-size="14" lengthAdjust="spacing" textLength="119.4443" x="1695.5" y="767.0645">+user(): BelongsTo</text><text fill="#000000" font-family="sans-serif" font-size="14" lengthAdjust="spacing" textLength="124.8789" x="1695.5" y="784.6738">+details(): HasMany</text><text fill="#000000" font-family="sans-serif" font-size="14" lengthAdjust="spacing" textLength="207.3818" x="1695.5" y="802.2832">+generateHitungNumber(): String</text></g><!--class HitungDetail--><g id="elem_HitungDetail"><rect codeLine="221" fill="#F1F1F1" height="259.3125" id="HitungDetail" rx="2.5" ry="2.5" style="stroke:#181818;stroke-width:0.5;" width="193.3096" x="1695.5" y="895.7188"/><ellipse cx="1749.7739" cy="911.7188" fill="#ADD1B2" rx="11" ry="11" style="stroke:#181818;stroke-width:1.0;"/><path d="M1752.5396,907.5938 Q1752.6958,907.375 1752.8833,907.2656 Q1753.0708,907.1563 1753.2896,907.1563 Q1753.6646,907.1563 1753.8989,907.4219 Q1754.1333,907.6719 1754.1333,908.2813 L1754.1333,909.7344 Q1754.1333,910.3438 1753.8989,910.6094 Q1753.6646,910.875 1753.2896,910.875 Q1752.9458,910.875 1752.7427,910.6719 Q1752.5396,910.4844 1752.4302,909.9688 Q1752.3833,909.6094 1752.1958,909.4219 Q1751.8677,909.0469 1751.2583,908.8281 Q1750.6489,908.6094 1750.0239,908.6094 Q1749.2583,908.6094 1748.6177,908.9375 Q1747.9927,909.2656 1747.4927,910.0156 Q1747.0083,910.7656 1747.0083,911.7969 L1747.0083,912.8906 Q1747.0083,914.125 1747.8989,914.9531 Q1748.7896,915.7656 1750.3833,915.7656 Q1751.3208,915.7656 1751.9771,915.5156 Q1752.3677,915.3594 1752.7896,914.9219 Q1753.0552,914.6563 1753.1958,914.5781 Q1753.3521,914.5 1753.5552,914.5 Q1753.8833,914.5 1754.1333,914.7656 Q1754.3989,915.0156 1754.3989,915.3594 Q1754.3989,915.7031 1754.0552,916.1094 Q1753.5552,916.6875 1752.7583,917.0156 Q1751.6802,917.4688 1750.3833,917.4688 Q1748.8677,917.4688 1747.6646,916.8438 Q1746.6802,916.3438 1745.9927,915.2813 Q1745.3052,914.2031 1745.3052,912.9219 L1745.3052,911.7656 Q1745.3052,910.4375 1745.9146,909.2969 Q1746.5396,908.1406 1747.6333,907.5313 Q1748.7271,906.9063 1749.9614,906.9063 Q1750.6958,906.9063 1751.3364,907.0781 Q1751.9927,907.2344 1752.5396,907.5938 Z " fill="#000000"/><text fill="#000000" font-family="sans-serif" font-size="14" lengthAdjust="spacing" textLength="76.2617" x="1770.2739" y="917.4473">HitungDetail</text><line style="stroke:#181818;stroke-width:0.5;" x1="1696.5" x2="1887.8096" y1="927.7188" y2="927.7188"/><text fill="#000000" font-family="sans-serif" font-size="14" lengthAdjust="spacing" textLength="57.5586" x="1701.5" y="946.252">-id: UUID</text><text fill="#000000" font-family="sans-serif" font-size="14" lengthAdjust="spacing" textLength="103.4893" x="1701.5" y="963.8613">-hitung_id: UUID</text><text fill="#000000" font-family="sans-serif" font-size="14" lengthAdjust="spacing" textLength="115.1377" x="1701.5" y="981.4707">-material_id: UUID</text><text fill="#000000" font-family="sans-serif" font-size="14" lengthAdjust="spacing" textLength="87.917" x="1701.5" y="999.0801">-unit_id: UUID</text><text fill="#000000" font-family="sans-serif" font-size="14" lengthAdjust="spacing" textLength="164.165" x="1701.5" y="1016.6895">-quantity_system: Decimal</text><text fill="#000000" font-family="sans-serif" font-size="14" lengthAdjust="spacing" textLength="157.1855" x="1701.5" y="1034.2988">-quantity_actual: Decimal</text><text fill="#000000" font-family="sans-serif" font-size="14" lengthAdjust="spacing" textLength="181.3096" x="1701.5" y="1051.9082">-quantity_difference: Decimal</text><text fill="#000000" font-family="sans-serif" font-size="14" lengthAdjust="spacing" textLength="93.3516" x="1701.5" y="1069.5176">-price: Decimal</text><text fill="#000000" font-family="sans-serif" font-size="14" lengthAdjust="spacing" textLength="122.1514" x="1701.5" y="1087.127">-total_loss: Decimal</text><line style="stroke:#181818;stroke-width:1.0;" x1="1696.5" x2="1887.8096" y1="1094.2031" y2="1094.2031"/><text fill="#000000" font-family="sans-serif" font-size="14" lengthAdjust="spacing" textLength="130.3545" x="1701.5" y="1112.7363">+hitung(): BelongsTo</text><text fill="#000000" font-family="sans-serif" font-size="14" lengthAdjust="spacing" textLength="142.0029" x="1701.5" y="1130.3457">+material(): BelongsTo</text><text fill="#000000" font-family="sans-serif" font-size="14" lengthAdjust="spacing" textLength="114.7822" x="1701.5" y="1147.9551">+unit(): BelongsTo</text></g><!--class Refund--><g id="elem_Refund"><rect codeLine="239" fill="#F1F1F1" height="276.9219" id="Refund" rx="2.5" ry="2.5" style="stroke:#181818;stroke-width:0.5;" width="210.0576" x="2396" y="129.2188"/><ellipse cx="2474.2065" cy="145.2188" fill="#ADD1B2" rx="11" ry="11" style="stroke:#181818;stroke-width:1.0;"/><path d="M2476.9722,141.0938 Q2477.1284,140.875 2477.3159,140.7656 Q2477.5034,140.6563 2477.7222,140.6563 Q2478.0972,140.6563 2478.3315,140.9219 Q2478.5659,141.1719 2478.5659,141.7813 L2478.5659,143.2344 Q2478.5659,143.8438 2478.3315,144.1094 Q2478.0972,144.375 2477.7222,144.375 Q2477.3784,144.375 2477.1753,144.1719 Q2476.9722,143.9844 2476.8628,143.4688 Q2476.8159,143.1094 2476.6284,142.9219 Q2476.3003,142.5469 2475.6909,142.3281 Q2475.0815,142.1094 2474.4565,142.1094 Q2473.6909,142.1094 2473.0503,142.4375 Q2472.4253,142.7656 2471.9253,143.5156 Q2471.4409,144.2656 2471.4409,145.2969 L2471.4409,146.3906 Q2471.4409,147.625 2472.3315,148.4531 Q2473.2222,149.2656 2474.8159,149.2656 Q2475.7534,149.2656 2476.4097,149.0156 Q2476.8003,148.8594 2477.2222,148.4219 Q2477.4878,148.1563 2477.6284,148.0781 Q2477.7847,148 2477.9878,148 Q2478.3159,148 2478.5659,148.2656 Q2478.8315,148.5156 2478.8315,148.8594 Q2478.8315,149.2031 2478.4878,149.6094 Q2477.9878,150.1875 2477.1909,150.5156 Q2476.1128,150.9688 2474.8159,150.9688 Q2473.3003,150.9688 2472.0972,150.3438 Q2471.1128,149.8438 2470.4253,148.7813 Q2469.7378,147.7031 2469.7378,146.4219 L2469.7378,145.2656 Q2469.7378,143.9375 2470.3472,142.7969 Q2470.9722,141.6406 2472.0659,141.0313 Q2473.1597,140.4063 2474.394,140.4063 Q2475.1284,140.4063 2475.769,140.5781 Q2476.4253,140.7344 2476.9722,141.0938 Z " fill="#000000"/><text fill="#000000" font-family="sans-serif" font-size="14" lengthAdjust="spacing" textLength="45.1445" x="2494.7065" y="150.9473">Refund</text><line style="stroke:#181818;stroke-width:0.5;" x1="2397" x2="2605.0576" y1="161.2188" y2="161.2188"/><text fill="#000000" font-family="sans-serif" font-size="14" lengthAdjust="spacing" textLength="57.5586" x="2402" y="179.752">-id: UUID</text><text fill="#000000" font-family="sans-serif" font-size="14" lengthAdjust="spacing" textLength="133.8271" x="2402" y="197.3613">-transaction_id: UUID</text><text fill="#000000" font-family="sans-serif" font-size="14" lengthAdjust="spacing" textLength="91.8203" x="2402" y="214.9707">-reason: String</text><text fill="#000000" font-family="sans-serif" font-size="14" lengthAdjust="spacing" textLength="126.8408" x="2402" y="232.5801">-proof_image: String</text><text fill="#000000" font-family="sans-serif" font-size="14" lengthAdjust="spacing" textLength="143.1924" x="2402" y="250.1895">-refund_method: String</text><text fill="#000000" font-family="sans-serif" font-size="14" lengthAdjust="spacing" textLength="175.8682" x="2402" y="267.7988">-payment_channel_id: UUID</text><text fill="#000000" font-family="sans-serif" font-size="14" lengthAdjust="spacing" textLength="153.3027" x="2402" y="285.4082">-account_number: String</text><text fill="#000000" font-family="sans-serif" font-size="14" lengthAdjust="spacing" textLength="143.9512" x="2402" y="303.0176">-total_amount: Decimal</text><text fill="#000000" font-family="sans-serif" font-size="14" lengthAdjust="spacing" textLength="142.3926" x="2402" y="320.627">-refund_by_shift: UUID</text><text fill="#000000" font-family="sans-serif" font-size="14" lengthAdjust="spacing" textLength="147.8545" x="2402" y="338.2363">-refunded_at: DateTime</text><line style="stroke:#181818;stroke-width:1.0;" x1="2397" x2="2605.0576" y1="345.3125" y2="345.3125"/><text fill="#000000" font-family="sans-serif" font-size="14" lengthAdjust="spacing" textLength="160.6924" x="2402" y="363.8457">+transaction(): BelongsTo</text><text fill="#000000" font-family="sans-serif" font-size="14" lengthAdjust="spacing" textLength="198.0576" x="2402" y="381.4551">+paymentChannel(): BelongsTo</text><text fill="#000000" font-family="sans-serif" font-size="14" lengthAdjust="spacing" textLength="117.8857" x="2402" y="399.0645">+shift(): BelongsTo</text></g><!--class StoreProfile--><g id="elem_StoreProfile"><rect codeLine="258" fill="#F1F1F1" height="339.3594" id="StoreProfile" rx="2.5" ry="2.5" style="stroke:#181818;stroke-width:0.5;" width="166.0615" x="22" y="98.2188"/><ellipse cx="64.4126" cy="114.2188" fill="#ADD1B2" rx="11" ry="11" style="stroke:#181818;stroke-width:1.0;"/><path d="M67.1783,110.0938 Q67.3345,109.875 67.522,109.7656 Q67.7095,109.6563 67.9283,109.6563 Q68.3033,109.6563 68.5376,109.9219 Q68.772,110.1719 68.772,110.7813 L68.772,112.2344 Q68.772,112.8438 68.5376,113.1094 Q68.3033,113.375 67.9283,113.375 Q67.5845,113.375 67.3814,113.1719 Q67.1783,112.9844 67.0689,112.4688 Q67.022,112.1094 66.8345,111.9219 Q66.5064,111.5469 65.897,111.3281 Q65.2876,111.1094 64.6626,111.1094 Q63.897,111.1094 63.2564,111.4375 Q62.6314,111.7656 62.1314,112.5156 Q61.647,113.2656 61.647,114.2969 L61.647,115.3906 Q61.647,116.625 62.5376,117.4531 Q63.4283,118.2656 65.022,118.2656 Q65.9595,118.2656 66.6158,118.0156 Q67.0064,117.8594 67.4283,117.4219 Q67.6939,117.1563 67.8345,117.0781 Q67.9908,117 68.1939,117 Q68.522,117 68.772,117.2656 Q69.0376,117.5156 69.0376,117.8594 Q69.0376,118.2031 68.6939,118.6094 Q68.1939,119.1875 67.397,119.5156 Q66.3189,119.9688 65.022,119.9688 Q63.5064,119.9688 62.3033,119.3438 Q61.3189,118.8438 60.6314,117.7813 Q59.9439,116.7031 59.9439,115.4219 L59.9439,114.2656 Q59.9439,112.9375 60.5533,111.7969 Q61.1783,110.6406 62.272,110.0313 Q63.3658,109.4063 64.6001,109.4063 Q65.3345,109.4063 65.9751,109.5781 Q66.6314,109.7344 67.1783,110.0938 Z " fill="#000000"/><text fill="#000000" font-family="sans-serif" font-size="14" lengthAdjust="spacing" textLength="73.1445" x="84.5043" y="119.9473">StoreProfile</text><line style="stroke:#181818;stroke-width:0.5;" x1="23" x2="187.0615" y1="130.2188" y2="130.2188"/><text fill="#000000" font-family="sans-serif" font-size="14" lengthAdjust="spacing" textLength="57.5586" x="28" y="148.752">-id: UUID</text><text fill="#000000" font-family="sans-serif" font-size="14" lengthAdjust="spacing" textLength="75.4824" x="28" y="166.3613">-logo: String</text><text fill="#000000" font-family="sans-serif" font-size="14" lengthAdjust="spacing" textLength="84.0342" x="28" y="183.9707">-name: String</text><text fill="#000000" font-family="sans-serif" font-size="14" lengthAdjust="spacing" textLength="90.2686" x="28" y="201.5801">-tagline: String</text><text fill="#000000" font-family="sans-serif" font-size="14" lengthAdjust="spacing" textLength="75.4756" x="28" y="219.1895">-type: String</text><text fill="#000000" font-family="sans-serif" font-size="14" lengthAdjust="spacing" textLength="92.6064" x="28" y="236.7988">-banner: String</text><text fill="#000000" font-family="sans-serif" font-size="14" lengthAdjust="spacing" textLength="95.71" x="28" y="254.4082">-product: String</text><text fill="#000000" font-family="sans-serif" font-size="14" lengthAdjust="spacing" textLength="107.3721" x="28" y="272.0176">-description: Text</text><text fill="#000000" font-family="sans-serif" font-size="14" lengthAdjust="spacing" textLength="97.2754" x="28" y="289.627">-building: String</text><text fill="#000000" font-family="sans-serif" font-size="14" lengthAdjust="spacing" textLength="97.2686" x="28" y="307.2363">-location: String</text><text fill="#000000" font-family="sans-serif" font-size="14" lengthAdjust="spacing" textLength="98.8203" x="28" y="324.8457">-address: String</text><text fill="#000000" font-family="sans-serif" font-size="14" lengthAdjust="spacing" textLength="94.1514" x="28" y="342.4551">-contact: String</text><text fill="#000000" font-family="sans-serif" font-size="14" lengthAdjust="spacing" textLength="82.4688" x="28" y="360.0645">-email: String</text><text fill="#000000" font-family="sans-serif" font-size="14" lengthAdjust="spacing" textLength="96.4824" x="28" y="377.6738">-website: String</text><text fill="#000000" font-family="sans-serif" font-size="14" lengthAdjust="spacing" textLength="154.0615" x="28" y="395.2832">-social_instagram: String</text><text fill="#000000" font-family="sans-serif" font-size="14" lengthAdjust="spacing" textLength="149.4131" x="28" y="412.8926">-social_facebook: String</text><text fill="#000000" font-family="sans-serif" font-size="14" lengthAdjust="spacing" textLength="152.5234" x="28" y="430.502">-social_whatsapp: String</text></g><!--class StoreDocument--><g id="elem_StoreDocument"><rect codeLine="278" fill="#F1F1F1" height="145.6563" id="StoreDocument" rx="2.5" ry="2.5" style="stroke:#181818;stroke-width:0.5;" width="177.751" x="223" y="194.7188"/><ellipse cx="259.8171" cy="210.7188" fill="#ADD1B2" rx="11" ry="11" style="stroke:#181818;stroke-width:1.0;"/><path d="M262.5827,206.5938 Q262.739,206.375 262.9265,206.2656 Q263.114,206.1563 263.3327,206.1563 Q263.7077,206.1563 263.9421,206.4219 Q264.1765,206.6719 264.1765,207.2813 L264.1765,208.7344 Q264.1765,209.3438 263.9421,209.6094 Q263.7077,209.875 263.3327,209.875 Q262.989,209.875 262.7858,209.6719 Q262.5827,209.4844 262.4733,208.9688 Q262.4265,208.6094 262.239,208.4219 Q261.9108,208.0469 261.3015,207.8281 Q260.6921,207.6094 260.0671,207.6094 Q259.3015,207.6094 258.6608,207.9375 Q258.0358,208.2656 257.5358,209.0156 Q257.0515,209.7656 257.0515,210.7969 L257.0515,211.8906 Q257.0515,213.125 257.9421,213.9531 Q258.8327,214.7656 260.4265,214.7656 Q261.364,214.7656 262.0202,214.5156 Q262.4108,214.3594 262.8327,213.9219 Q263.0983,213.6563 263.239,213.5781 Q263.3952,213.5 263.5983,213.5 Q263.9265,213.5 264.1765,213.7656 Q264.4421,214.0156 264.4421,214.3594 Q264.4421,214.7031 264.0983,215.1094 Q263.5983,215.6875 262.8015,216.0156 Q261.7233,216.4688 260.4265,216.4688 Q258.9108,216.4688 257.7077,215.8438 Q256.7233,215.3438 256.0358,214.2813 Q255.3483,213.2031 255.3483,211.9219 L255.3483,210.7656 Q255.3483,209.4375 255.9577,208.2969 Q256.5827,207.1406 257.6765,206.5313 Q258.7702,205.9063 260.0046,205.9063 Q260.739,205.9063 261.3796,206.0781 Q262.0358,206.2344 262.5827,206.5938 Z " fill="#000000"/><text fill="#000000" font-family="sans-serif" font-size="14" lengthAdjust="spacing" textLength="97.2686" x="278.6653" y="216.4473">StoreDocument</text><line style="stroke:#181818;stroke-width:0.5;" x1="224" x2="399.751" y1="226.7188" y2="226.7188"/><text fill="#000000" font-family="sans-serif" font-size="14" lengthAdjust="spacing" textLength="57.5586" x="229" y="245.252">-id: UUID</text><text fill="#000000" font-family="sans-serif" font-size="14" lengthAdjust="spacing" textLength="153.3027" x="229" y="262.8613">-document_name: String</text><text fill="#000000" font-family="sans-serif" font-size="14" lengthAdjust="spacing" textLength="165.751" x="229" y="280.4707">-document_number: String</text><text fill="#000000" font-family="sans-serif" font-size="14" lengthAdjust="spacing" textLength="136.1787" x="229" y="298.0801">-document_file: String</text><text fill="#000000" font-family="sans-serif" font-size="14" lengthAdjust="spacing" textLength="106.5928" x="229" y="315.6895">-valid_from: Date</text><text fill="#000000" font-family="sans-serif" font-size="14" lengthAdjust="spacing" textLength="104.2754" x="229" y="333.2988">-valid_until: Date</text></g><!--class ActivityLog--><g id="elem_ActivityLog"><rect codeLine="287" fill="#F1F1F1" height="216.0938" id="ActivityLog" rx="2.5" ry="2.5" style="stroke:#181818;stroke-width:0.5;" width="139.6201" x="35" y="545.2188"/><ellipse cx="67.9657" cy="561.2188" fill="#ADD1B2" rx="11" ry="11" style="stroke:#181818;stroke-width:1.0;"/><path d="M70.7313,557.0938 Q70.8876,556.875 71.0751,556.7656 Q71.2626,556.6563 71.4813,556.6563 Q71.8563,556.6563 72.0907,556.9219 Q72.3251,557.1719 72.3251,557.7813 L72.3251,559.2344 Q72.3251,559.8438 72.0907,560.1094 Q71.8563,560.375 71.4813,560.375 Q71.1376,560.375 70.9345,560.1719 Q70.7313,559.9844 70.622,559.4688 Q70.5751,559.1094 70.3876,558.9219 Q70.0595,558.5469 69.4501,558.3281 Q68.8407,558.1094 68.2157,558.1094 Q67.4501,558.1094 66.8095,558.4375 Q66.1845,558.7656 65.6845,559.5156 Q65.2001,560.2656 65.2001,561.2969 L65.2001,562.3906 Q65.2001,563.625 66.0907,564.4531 Q66.9813,565.2656 68.5751,565.2656 Q69.5126,565.2656 70.1688,565.0156 Q70.5595,564.8594 70.9813,564.4219 Q71.247,564.1563 71.3876,564.0781 Q71.5438,564 71.747,564 Q72.0751,564 72.3251,564.2656 Q72.5907,564.5156 72.5907,564.8594 Q72.5907,565.2031 72.247,565.6094 Q71.747,566.1875 70.9501,566.5156 Q69.872,566.9688 68.5751,566.9688 Q67.0595,566.9688 65.8563,566.3438 Q64.872,565.8438 64.1845,564.7813 Q63.497,563.7031 63.497,562.4219 L63.497,561.2656 Q63.497,559.9375 64.1063,558.7969 Q64.7313,557.6406 65.8251,557.0313 Q66.9188,556.4063 68.1532,556.4063 Q68.8876,556.4063 69.5282,556.5781 Q70.1845,556.7344 70.7313,557.0938 Z " fill="#000000"/><text fill="#000000" font-family="sans-serif" font-size="14" lengthAdjust="spacing" textLength="67.6963" x="85.9581" y="566.9473">ActivityLog</text><line style="stroke:#181818;stroke-width:0.5;" x1="36" x2="173.6201" y1="577.2188" y2="577.2188"/><text fill="#000000" font-family="sans-serif" font-size="14" lengthAdjust="spacing" textLength="87.1582" x="41" y="595.752">-id: BigInteger</text><text fill="#000000" font-family="sans-serif" font-size="14" lengthAdjust="spacing" textLength="110.5029" x="41" y="613.3613">-log_name: String</text><text fill="#000000" font-family="sans-serif" font-size="14" lengthAdjust="spacing" textLength="107.3721" x="41" y="630.9707">-description: Text</text><text fill="#000000" font-family="sans-serif" font-size="14" lengthAdjust="spacing" textLength="127.6201" x="41" y="648.5801">-subject_type: String</text><text fill="#000000" font-family="sans-serif" font-size="14" lengthAdjust="spacing" textLength="109.7031" x="41" y="666.1895">-subject_id: UUID</text><text fill="#000000" font-family="sans-serif" font-size="14" lengthAdjust="spacing" textLength="125.2822" x="41" y="683.7988">-causer_type: String</text><text fill="#000000" font-family="sans-serif" font-size="14" lengthAdjust="spacing" textLength="107.3652" x="41" y="701.4082">-causer_id: UUID</text><text fill="#000000" font-family="sans-serif" font-size="14" lengthAdjust="spacing" textLength="112.0342" x="41" y="719.0176">-properties: JSON</text><text fill="#000000" font-family="sans-serif" font-size="14" lengthAdjust="spacing" textLength="83.2617" x="41" y="736.627">-event: String</text><text fill="#000000" font-family="sans-serif" font-size="14" lengthAdjust="spacing" textLength="115.165" x="41" y="754.2363">-batch_uuid: UUID</text></g><!--link Material to MaterialDetail--><g id="link_Material_MaterialDetail"><path codeLine="305" d="M1098.29,793.2188 C973.39,793.2188 793,793.2188 793,793.2188 C793,793.2188 793,873.3988 793,939.4888 " fill="none" id="Material-MaterialDetail" style="stroke:#181818;stroke-width:1.0;"/><text fill="#000000" font-family="sans-serif" font-size="13" lengthAdjust="spacing" textLength="7.23" x="1083.2336" y="799.5897">1</text><text fill="#000000" font-family="sans-serif" font-size="13" lengthAdjust="spacing" textLength="5.0591" x="787.7876" y="928.9326">*</text></g><!--link Material to MaterialBatch--><g id="link_Material_MaterialBatch"><path codeLine="306" d="M1107,809.4288 C1107,870.9588 1107,927.2188 1107,927.2188 C1107,927.2188 1099.91,927.2188 1089.33,927.2188 " fill="none" id="Material-MaterialBatch" style="stroke:#181818;stroke-width:1.0;"/><text fill="#000000" font-family="sans-serif" font-size="13" lengthAdjust="spacing" textLength="7.23" x="1094.6138" y="830.8829">1</text><text fill="#000000" font-family="sans-serif" font-size="13" lengthAdjust="spacing" textLength="5.0591" x="1096.6089" y="916.5932">*</text></g><!--link Material to ProductComposition--><g id="link_Material_ProductComposition"><path codeLine="307" d="M1215,809.3588 C1215,850.5188 1215,893.6788 1215,930.4988 " fill="none" id="Material-ProductComposition" style="stroke:#181818;stroke-width:1.0;"/><text fill="#000000" font-family="sans-serif" font-size="13" lengthAdjust="spacing" textLength="7.23" x="1207.845" y="830.8095">1</text><text fill="#000000" font-family="sans-serif" font-size="13" lengthAdjust="spacing" textLength="5.0591" x="1209.8183" y="919.8274">*</text></g><!--link Material to ExpenseDetail--><g id="link_Material_ExpenseDetail"><path codeLine="308" d="M1323,809.5188 C1323,856.6888 1323,896.2188 1323,896.2188 C1323,896.2188 1369.08,896.2188 1414.35,896.2188 " fill="none" id="Material-ExpenseDetail" style="stroke:#181818;stroke-width:1.0;"/><text fill="#000000" font-family="sans-serif" font-size="13" lengthAdjust="spacing" textLength="7.23" x="1321.0763" y="830.9773">1</text><text fill="#000000" font-family="sans-serif" font-size="13" lengthAdjust="spacing" textLength="5.0591" x="1401.4094" y="881.5217">*</text></g><!--link Material to IngredientCategoryDetail--><g id="link_Material_IngredientCategoryDetail"><path codeLine="309" d="M1098.17,777.2188 C938.98,777.2188 673.5,777.2188 673.5,777.2188 C673.5,777.2188 673.5,883.7088 673.5,957.1188 " fill="none" id="Material-IngredientCategoryDetail" style="stroke:#181818;stroke-width:1.0;"/><text fill="#000000" font-family="sans-serif" font-size="13" lengthAdjust="spacing" textLength="7.23" x="1083.1055" y="782.5147">1</text><text fill="#000000" font-family="sans-serif" font-size="13" lengthAdjust="spacing" textLength="5.0591" x="679.6865" y="946.3071">*</text></g><!--link Material to HitungDetail--><g id="link_Material_HitungDetail"><path codeLine="310" d="M1314.5,809.3388 C1314.5,827.2288 1314.5,839.2188 1314.5,839.2188 C1314.5,839.2188 1759.83,839.2188 1759.83,839.2188 C1759.83,839.2188 1759.83,864.0288 1759.83,895.5288 " fill="none" id="Material-HitungDetail" style="stroke:#181818;stroke-width:1.0;"/><text fill="#000000" font-family="sans-serif" font-size="13" lengthAdjust="spacing" textLength="7.23" x="1312.1645" y="830.7885">1</text><text fill="#000000" font-family="sans-serif" font-size="13" lengthAdjust="spacing" textLength="5.0591" x="1752.8184" y="885.0648">*</text></g><!--link Material to InventoryLog--><g id="link_Material_InventoryLog"><path codeLine="311" d="M1115.5,809.5188 C1115.5,937.8588 1115.5,1117.9188 1115.5,1241.1588 " fill="none" id="Material-InventoryLog" style="stroke:#181818;stroke-width:1.0;"/><text fill="#000000" font-family="sans-serif" font-size="13" lengthAdjust="spacing" textLength="7.23" x="1103.5255" y="830.9773">1</text><text fill="#000000" font-family="sans-serif" font-size="13" lengthAdjust="spacing" textLength="5.0591" x="1109.815" y="1230.1933">*</text></g><!--link MaterialBatch to InventoryLog--><g id="link_MaterialBatch_InventoryLog"><path codeLine="312" d="M1062.5,1128.2288 C1062.5,1163.4988 1062.5,1203.5388 1062.5,1241.1488 " fill="none" id="MaterialBatch-InventoryLog" style="stroke:#181818;stroke-width:1.0;"/><text fill="#000000" font-family="sans-serif" font-size="13" lengthAdjust="spacing" textLength="7.23" x="1060.2719" y="1150.218">1</text><text fill="#000000" font-family="sans-serif" font-size="13" lengthAdjust="spacing" textLength="5.0591" x="1053.7509" y="1230.1827">*</text></g><!--link IngredientCategory to IngredientCategoryDetail--><g id="link_IngredientCategory_IngredientCategoryDetail"><path codeLine="314" d="M569,721.4488 C569,788.4688 569,890.1288 569,957.1088 " fill="none" id="IngredientCategory-IngredientCategoryDetail" style="stroke:#181818;stroke-width:1.0;"/><text fill="#000000" font-family="sans-serif" font-size="13" lengthAdjust="spacing" textLength="7.23" x="561.6387" y="742.8208">1</text><text fill="#000000" font-family="sans-serif" font-size="13" lengthAdjust="spacing" textLength="5.0591" x="563.7568" y="946.296">*</text></g><!--link Supplier to Expense--><g id="link_Supplier_Expense"><path codeLine="316" d="M1516,379.7388 C1516,418.9788 1516,463.6588 1516,505.3688 " fill="none" id="Supplier-Expense" style="stroke:#181818;stroke-width:1.0;"/><text fill="#000000" font-family="sans-serif" font-size="13" lengthAdjust="spacing" textLength="7.23" x="1508.7611" y="401.3064">1</text><text fill="#000000" font-family="sans-serif" font-size="13" lengthAdjust="spacing" textLength="5.0591" x="1510.8624" y="494.849">*</text></g><!--link Expense to ExpenseDetail--><g id="link_Expense_ExpenseDetail"><path codeLine="317" d="M1501,800.7788 C1501,823.1888 1501,846.3888 1501,868.9788 " fill="none" id="Expense-ExpenseDetail" style="stroke:#181818;stroke-width:1.0;"/><text fill="#000000" font-family="sans-serif" font-size="13" lengthAdjust="spacing" textLength="7.23" x="1493.0999" y="821.8287">1</text><text fill="#000000" font-family="sans-serif" font-size="13" lengthAdjust="spacing" textLength="5.0591" x="1495.8785" y="858.5236">*</text></g><!--link Production to ProductionDetail--><g id="link_Production_ProductionDetail"><path codeLine="319" d="M2082,432.8788 C2082,472.6288 2082,513.9788 2082,549.9688 " fill="none" id="Production-ProductionDetail" style="stroke:#181818;stroke-width:1.0;"/><text fill="#000000" font-family="sans-serif" font-size="13" lengthAdjust="spacing" textLength="7.23" x="2071.6783" y="454.2338">1</text><text fill="#000000" font-family="sans-serif" font-size="13" lengthAdjust="spacing" textLength="5.0591" x="2079.1837" y="539.2891">*</text></g><!--link Production to ProductionWorker--><g id="link_Production_ProductionWorker"><path codeLine="320" d="M2222.5,432.8788 C2222.5,486.2188 2222.5,542.4388 2222.5,584.7388 " fill="none" id="Production-ProductionWorker" style="stroke:#181818;stroke-width:1.0;"/><text fill="#000000" font-family="sans-serif" font-size="13" lengthAdjust="spacing" textLength="7.23" x="2218.5447" y="454.2338">1</text><text fill="#000000" font-family="sans-serif" font-size="13" lengthAdjust="spacing" textLength="5.0591" x="2213.9149" y="574.3626">*</text></g><!--link Hitung to HitungDetail--><g id="link_Hitung_HitungDetail"><path codeLine="322" d="M1824.17,809.3588 C1824.17,838.0988 1824.17,867.7988 1824.17,895.6488 " fill="none" id="Hitung-HitungDetail" style="stroke:#181818;stroke-width:1.0;"/><text fill="#000000" font-family="sans-serif" font-size="13" lengthAdjust="spacing" textLength="7.23" x="1818.216" y="830.8095">1</text><text fill="#000000" font-family="sans-serif" font-size="13" lengthAdjust="spacing" textLength="5.0591" x="1820.9704" y="884.7619">*</text></g><!--SRC=[jLbPZzis47xNho2sGBjfkq2RnmNwa3sQkCqUtQDvAI3GqbXcB94AIMtY5Fdl7Kgo3cieoxlkFXY9vXF9kR-Xp4h8d6kUiIZbnhonLejvOM4MANallWBx9J0D91KIx3e7fhHTgc0fOc2GvNRDCiZce4qGM65JOETkBNOXUE9UEs4p6Md8G5hs-XzvfU8YPRSWus9Lo8JTvA2v4KhoD0X-OBzD_aFmdvVltzopsVNVbzSFDtSpTZoxFh-xlCB_iTUlzbiio7cquWcmepE-v9ATyLLnnBvxBvAbFLUQf-pVWE5VQITsnIreqJnqVoSYFcMFZxEBzeda6PooUxIfJDgdCPX8YzoYoaEXoF0CmyVm9HTw7SQuxIcxmDzMP2otXI5MCY6Fh7Z25ywKIe7Bdan3979AbWafiYB3RH2HeLCQoKdppvyIi0_AylIlWalq-Nec7wMmnmN-l3fblwUAsnQi8IuYs42FFzdrpwn6Rk_k5dOhtMeHmOv58vv6HOgsk2yjS8oO9oNY5ZBdDbf2ANZ7pHMNwrQMrGuCOx1Sf0FGju3mzaM97VTvi_1Gv1GX7kTELyBSwAIC2qcuw6IeXpl_6QHA9kP1jMAtvL14AdVch7LetKeNXB9mvO7812ASgpS-rS4o7eNFKhuK2Vc4vKZfzNkLZFl-LcEzYh04PBaomYNjk8to2XyUmdhD6zFCKM_jKVdbaJAJ2QQoGCETure9Mk_WvQ-ZZISnUxgOtebf1mvFFIMDHVDM6DMlxUVIaswmRPzWRnTjQTG6xxCJjX5L2KV4f05DF7OzXVBS9aJ32BjdGjMp1i4NrbM30K330ZJ824B7CePRj79th6sfLAwOFC0N-vnQKLh1bnfe2SebtpgauRx8yrI0Pjyx69SVkICF71qLuyCkTMYGXyuTf6mMlHFIh-PB9Od7nce0EtoEAiGPrwkX9EEv2P4AhYQJbuuNaCU0D31USYyhqBY1wfMylMKZfteCEeMcKhLhYB2lecjeFPfx8U_5BQnZIA4xI6I9SE-2q6y5JsaIW9jeIvEu1N8rinnd21kbFC5Ts-bYfDec896YMwZzSbrQt24xQbCEd59dDsuwHBji2epNv0qY0KiRkuyOsBNaQlxrAp6z-8ves1478mF0CBqEom2wPQvaGoiZiBZTyXJUOl6GlUfMqwMfD0bntWosc1-cQZTKU03EeF4qJcc5guWF-DjBNMttgWxxbO2N9sv7Vu_7nYZIPwLNE9AF9dJhhDqvtMAdf7N7lVjGv2RxSkm_- -Tl8rxW0Gbvj8vIcCIX_JRtacoFjJwKVdY1jJmyR9ypJo8mLaKhTfCxze3P_M49tFOo-vsmxhfcL17FMPVbgzv4zr7A_HAkteJAt8weoRm-ufdPscdXH5YbofXm77AooqaxytoJovLxTkTnXPkImxNL3jgPpTfOo4Q70ry7R12nMDHpWAy3UzkhyyYu5ogb_xy6UWUBGiQOO5V2sFMTQcXkvPrAFEwNyRweWHigcR18g4NeOUYwt3RqzTIShxDo4iRHJa9AJeMHAX3XxUKLkyaSY9xytFvp392bMDYXJauCSSXjbRZzLhvNpwnrEQzKyO3AK-paGY0JB4Muu-QU-Atcw_wiXrEwwx8BaUuOPrALAA82agESvOcxYYS4vDWyTvfgCY9SszWnPVO7wdaXqXZ1nC2e8awNSHx76epn3gp4x9QL_NlxyMUO6q6s11MLvKXY3NUV7Bo81OzWhjJA2_YyvDRmFFVNpzAb5oegokyPepwDQvHd8c_5lklH3S25pr3yn5CHXmkjikrkLaamrKeMj17rr7ZZFWrWDIMkaCv4CfCM4j2zy0mdN4dqWyKKyuyux7XkSpRIeTqYNl88-hLQI9Ae7BGLW97sn_tDTIUSt7KPbHVkugieUakLARxdLwWxznLgjkVdfkOBqj6lHrZ2sD6FHrlV6KOXvMqzYHXUM9EmtenE8dmNfoIuIoiygxMNba7_cuCF5H0NpbFE5pHNR4DzWytbajSKGMU47PgrcNzsmYhY7mGrR_RPwZy0]--></g></svg>