<svg xmlns="http://www.w3.org/2000/svg" xmlns:xlink="http://www.w3.org/1999/xlink" contentStyleType="text/css" height="1230px" preserveAspectRatio="none" style="width:2190px;height:1230px;background:#FFFFFF;" version="1.1" viewBox="0 0 2190 1230" width="2190px" zoomAndPan="magnify"><title>Class Diagram - Increment 1</title><defs/><g><text fill="#000000" font-family="sans-serif" font-size="14" font-weight="bold" lengthAdjust="spacing" textLength="188.2959" x="993.8521" y="24.5332">Class Diagram - Increment 1</text><text fill="#000000" font-family="sans-serif" font-size="14" font-weight="bold" lengthAdjust="spacing" textLength="150.8965" x="1012.5518" y="42.1426">Modul Inti Operasional</text><!--cluster Autentikasi & Pengguna--><g id="cluster_Autentikasi &amp; Pengguna"><path d="M8.5,62.2188 L170.5205,62.2188 A3.75,3.75 0 0 1 173.0205,64.7188 L180.0205,85.8281 L428.5,85.8281 A2.5,2.5 0 0 1 431,88.3281 L431,1167.7188 A2.5,2.5 0 0 1 428.5,1170.2188 L8.5,1170.2188 A2.5,2.5 0 0 1 6,1167.7188 L6,64.7188 A2.5,2.5 0 0 1 8.5,62.2188 " fill="#ADD8E6" style="stroke:#000000;stroke-width:1.5;"/><line style="stroke:#000000;stroke-width:1.5;" x1="6" x2="180.0205" y1="85.8281" y2="85.8281"/><text fill="#000000" font-family="sans-serif" font-size="14" font-weight="bold" lengthAdjust="spacing" textLength="161.0205" x="10" y="78.752">Autentikasi &amp; Pengguna</text></g><!--cluster Pelanggan--><g id="cluster_Pelanggan"><path d="M457.5,592.7188 L529.293,592.7188 A3.75,3.75 0 0 1 531.793,595.2188 L538.793,616.3281 L672.5,616.3281 A2.5,2.5 0 0 1 675,618.8281 L675,1211.7188 A2.5,2.5 0 0 1 672.5,1214.2188 L457.5,1214.2188 A2.5,2.5 0 0 1 455,1211.7188 L455,595.2188 A2.5,2.5 0 0 1 457.5,592.7188 " fill="#90EE90" style="stroke:#000000;stroke-width:1.5;"/><line style="stroke:#000000;stroke-width:1.5;" x1="455" x2="538.793" y1="616.3281" y2="616.3281"/><text fill="#000000" font-family="sans-serif" font-size="14" font-weight="bold" lengthAdjust="spacing" textLength="70.793" x="459" y="609.252">Pelanggan</text></g><!--cluster Produk & Kategori--><g id="cluster_Produk &amp; Kategori"><path d="M1228.5,513.7188 L1352.4033,513.7188 A3.75,3.75 0 0 1 1354.9033,516.2188 L1361.9033,537.3281 L2180.5,537.3281 A2.5,2.5 0 0 1 2183,539.8281 L2183,1185.7188 A2.5,2.5 0 0 1 2180.5,1188.2188 L1228.5,1188.2188 A2.5,2.5 0 0 1 1226,1185.7188 L1226,516.2188 A2.5,2.5 0 0 1 1228.5,513.7188 " fill="#FFFFE0" style="stroke:#000000;stroke-width:1.5;"/><line style="stroke:#000000;stroke-width:1.5;" x1="1226" x2="1361.9033" y1="537.3281" y2="537.3281"/><text fill="#000000" font-family="sans-serif" font-size="14" font-weight="bold" lengthAdjust="spacing" textLength="122.9033" x="1230" y="530.252">Produk &amp; Kategori</text></g><!--cluster Transaksi--><g id="cluster_Transaksi"><path d="M701.5,71.2188 L767.8721,71.2188 A3.75,3.75 0 0 1 770.3721,73.7188 L777.3721,94.8281 L1199.5,94.8281 A2.5,2.5 0 0 1 1202,97.3281 L1202,1220.7188 A2.5,2.5 0 0 1 1199.5,1223.2188 L701.5,1223.2188 A2.5,2.5 0 0 1 699,1220.7188 L699,73.7188 A2.5,2.5 0 0 1 701.5,71.2188 " fill="#FFB6C1" style="stroke:#000000;stroke-width:1.5;"/><line style="stroke:#000000;stroke-width:1.5;" x1="699" x2="777.3721" y1="94.8281" y2="94.8281"/><text fill="#000000" font-family="sans-serif" font-size="14" font-weight="bold" lengthAdjust="spacing" textLength="65.3721" x="703" y="87.752">Transaksi</text></g><!--class User--><g id="elem_User"><rect codeLine="13" fill="#F1F1F1" height="329.75" id="User" rx="2.5" ry="2.5" style="stroke:#181818;stroke-width:0.5;" width="260.5957" x="153.5" y="98.2188"/><ellipse cx="264.7686" cy="114.2188" fill="#ADD1B2" rx="11" ry="11" style="stroke:#181818;stroke-width:1.0;"/><path d="M267.5342,110.0938 Q267.6904,109.875 267.8779,109.7656 Q268.0654,109.6563 268.2842,109.6563 Q268.6592,109.6563 268.8936,109.9219 Q269.1279,110.1719 269.1279,110.7813 L269.1279,112.2344 Q269.1279,112.8438 268.8936,113.1094 Q268.6592,113.375 268.2842,113.375 Q267.9404,113.375 267.7373,113.1719 Q267.5342,112.9844 267.4248,112.4688 Q267.3779,112.1094 267.1904,111.9219 Q266.8623,111.5469 266.2529,111.3281 Q265.6436,111.1094 265.0186,111.1094 Q264.2529,111.1094 263.6123,111.4375 Q262.9873,111.7656 262.4873,112.5156 Q262.0029,113.2656 262.0029,114.2969 L262.0029,115.3906 Q262.0029,116.625 262.8936,117.4531 Q263.7842,118.2656 265.3779,118.2656 Q266.3154,118.2656 266.9717,118.0156 Q267.3623,117.8594 267.7842,117.4219 Q268.0498,117.1563 268.1904,117.0781 Q268.3467,117 268.5498,117 Q268.8779,117 269.1279,117.2656 Q269.3936,117.5156 269.3936,117.8594 Q269.3936,118.2031 269.0498,118.6094 Q268.5498,119.1875 267.7529,119.5156 Q266.6748,119.9688 265.3779,119.9688 Q263.8623,119.9688 262.6592,119.3438 Q261.6748,118.8438 260.9873,117.7813 Q260.2998,116.7031 260.2998,115.4219 L260.2998,114.2656 Q260.2998,112.9375 260.9092,111.7969 Q261.5342,110.6406 262.6279,110.0313 Q263.7217,109.4063 264.9561,109.4063 Q265.6904,109.4063 266.3311,109.5781 Q266.9873,109.7344 267.5342,110.0938 Z " fill="#000000"/><text fill="#000000" font-family="sans-serif" font-size="14" lengthAdjust="spacing" textLength="29.5586" x="285.2686" y="119.9473">User</text><line style="stroke:#181818;stroke-width:0.5;" x1="154.5" x2="413.0957" y1="130.2188" y2="130.2188"/><text fill="#000000" font-family="sans-serif" font-size="14" lengthAdjust="spacing" textLength="57.5586" x="159.5" y="148.752">-id: UUID</text><text fill="#000000" font-family="sans-serif" font-size="14" lengthAdjust="spacing" textLength="84.0342" x="159.5" y="166.3613">-name: String</text><text fill="#000000" font-family="sans-serif" font-size="14" lengthAdjust="spacing" textLength="82.4688" x="159.5" y="183.9707">-email: String</text><text fill="#000000" font-family="sans-serif" font-size="14" lengthAdjust="spacing" textLength="87.9443" x="159.5" y="201.5801">-phone: String</text><text fill="#000000" font-family="sans-serif" font-size="14" lengthAdjust="spacing" textLength="108.9307" x="159.5" y="219.1895">-password: String</text><text fill="#000000" font-family="sans-serif" font-size="14" lengthAdjust="spacing" textLength="87.1445" x="159.5" y="236.7988">-image: String</text><text fill="#000000" font-family="sans-serif" font-size="14" lengthAdjust="spacing" textLength="92.6064" x="159.5" y="254.4082">-gender: String</text><text fill="#000000" font-family="sans-serif" font-size="14" lengthAdjust="spacing" textLength="118.2891" x="159.5" y="272.0176">-is_active: Boolean</text><text fill="#000000" font-family="sans-serif" font-size="14" lengthAdjust="spacing" textLength="146.3027" x="159.5" y="289.627">-invitation_token: String</text><text fill="#000000" font-family="sans-serif" font-size="14" lengthAdjust="spacing" textLength="190.6406" x="159.5" y="307.2363">-invitation_sent_at: Timestamp</text><text fill="#000000" font-family="sans-serif" font-size="14" lengthAdjust="spacing" textLength="157.1719" x="159.5" y="324.8457">-activated_at: Timestamp</text><line style="stroke:#181818;stroke-width:1.0;" x1="154.5" x2="413.0957" y1="331.9219" y2="331.9219"/><text fill="#000000" font-family="sans-serif" font-size="14" lengthAdjust="spacing" textLength="137.3545" x="159.5" y="350.4551">+sendInvitation(): void</text><text fill="#000000" font-family="sans-serif" font-size="14" lengthAdjust="spacing" textLength="248.5957" x="159.5" y="368.0645">+activateWithPassword(password): void</text><text fill="#000000" font-family="sans-serif" font-size="14" lengthAdjust="spacing" textLength="225.3057" x="159.5" y="385.6738">+hasValidInvitationToken(): Boolean</text><text fill="#000000" font-family="sans-serif" font-size="14" lengthAdjust="spacing" textLength="127.2305" x="159.5" y="403.2832">+toggleActive(): void</text><text fill="#000000" font-family="sans-serif" font-size="14" lengthAdjust="spacing" textLength="100.7549" x="159.5" y="420.8926">+initials(): String</text></g><!--class Role--><g id="elem_Role"><rect codeLine="33" fill="#F1F1F1" height="153.6563" id="Role" rx="2.5" ry="2.5" style="stroke:#181818;stroke-width:0.5;" width="213.1338" x="22.5" y="628.7188"/><ellipse cx="110.4204" cy="644.7188" fill="#ADD1B2" rx="11" ry="11" style="stroke:#181818;stroke-width:1.0;"/><path d="M113.186,640.5938 Q113.3423,640.375 113.5298,640.2656 Q113.7173,640.1563 113.936,640.1563 Q114.311,640.1563 114.5454,640.4219 Q114.7798,640.6719 114.7798,641.2813 L114.7798,642.7344 Q114.7798,643.3438 114.5454,643.6094 Q114.311,643.875 113.936,643.875 Q113.5923,643.875 113.3892,643.6719 Q113.186,643.4844 113.0767,642.9688 Q113.0298,642.6094 112.8423,642.4219 Q112.5142,642.0469 111.9048,641.8281 Q111.2954,641.6094 110.6704,641.6094 Q109.9048,641.6094 109.2642,641.9375 Q108.6392,642.2656 108.1392,643.0156 Q107.6548,643.7656 107.6548,644.7969 L107.6548,645.8906 Q107.6548,647.125 108.5454,647.9531 Q109.436,648.7656 111.0298,648.7656 Q111.9673,648.7656 112.6235,648.5156 Q113.0142,648.3594 113.436,647.9219 Q113.7017,647.6563 113.8423,647.5781 Q113.9985,647.5 114.2017,647.5 Q114.5298,647.5 114.7798,647.7656 Q115.0454,648.0156 115.0454,648.3594 Q115.0454,648.7031 114.7017,649.1094 Q114.2017,649.6875 113.4048,650.0156 Q112.3267,650.4688 111.0298,650.4688 Q109.5142,650.4688 108.311,649.8438 Q107.3267,649.3438 106.6392,648.2813 Q105.9517,647.2031 105.9517,645.9219 L105.9517,644.7656 Q105.9517,643.4375 106.561,642.2969 Q107.186,641.1406 108.2798,640.5313 Q109.3735,639.9063 110.6079,639.9063 Q111.3423,639.9063 111.9829,640.0781 Q112.6392,640.2344 113.186,640.5938 Z " fill="#000000"/><text fill="#000000" font-family="sans-serif" font-size="14" lengthAdjust="spacing" textLength="28.793" x="130.9204" y="650.4473">Role</text><line style="stroke:#181818;stroke-width:0.5;" x1="23.5" x2="234.6338" y1="660.7188" y2="660.7188"/><text fill="#000000" font-family="sans-serif" font-size="14" lengthAdjust="spacing" textLength="87.1582" x="28.5" y="679.252">-id: BigInteger</text><text fill="#000000" font-family="sans-serif" font-size="14" lengthAdjust="spacing" textLength="84.0342" x="28.5" y="696.8613">-name: String</text><text fill="#000000" font-family="sans-serif" font-size="14" lengthAdjust="spacing" textLength="127.627" x="28.5" y="714.4707">-guard_name: String</text><text fill="#000000" font-family="sans-serif" font-size="14" lengthAdjust="spacing" textLength="124.4961" x="28.5" y="732.0801">-max_users: Integer</text><line style="stroke:#181818;stroke-width:1.0;" x1="23.5" x2="234.6338" y1="739.1563" y2="739.1563"/><text fill="#000000" font-family="sans-serif" font-size="14" lengthAdjust="spacing" textLength="201.1338" x="28.5" y="757.6895">+permissions(): BelongsToMany</text><text fill="#000000" font-family="sans-serif" font-size="14" lengthAdjust="spacing" textLength="160.6787" x="28.5" y="775.2988">+users(): BelongsToMany</text></g><!--class Permission--><g id="elem_Permission"><rect codeLine="43" fill="#F1F1F1" height="118.4375" id="Permission" rx="2.5" ry="2.5" style="stroke:#181818;stroke-width:0.5;" width="168.7891" x="44.5" y="1036.2188"/><ellipse cx="90.0239" cy="1052.2188" fill="#ADD1B2" rx="11" ry="11" style="stroke:#181818;stroke-width:1.0;"/><path d="M92.7896,1048.0938 Q92.9458,1047.875 93.1333,1047.7656 Q93.3208,1047.6563 93.5396,1047.6563 Q93.9146,1047.6563 94.1489,1047.9219 Q94.3833,1048.1719 94.3833,1048.7813 L94.3833,1050.2344 Q94.3833,1050.8438 94.1489,1051.1094 Q93.9146,1051.375 93.5396,1051.375 Q93.1958,1051.375 92.9927,1051.1719 Q92.7896,1050.9844 92.6802,1050.4688 Q92.6333,1050.1094 92.4458,1049.9219 Q92.1177,1049.5469 91.5083,1049.3281 Q90.8989,1049.1094 90.2739,1049.1094 Q89.5083,1049.1094 88.8677,1049.4375 Q88.2427,1049.7656 87.7427,1050.5156 Q87.2583,1051.2656 87.2583,1052.2969 L87.2583,1053.3906 Q87.2583,1054.625 88.1489,1055.4531 Q89.0396,1056.2656 90.6333,1056.2656 Q91.5708,1056.2656 92.2271,1056.0156 Q92.6177,1055.8594 93.0396,1055.4219 Q93.3052,1055.1563 93.4458,1055.0781 Q93.6021,1055 93.8052,1055 Q94.1333,1055 94.3833,1055.2656 Q94.6489,1055.5156 94.6489,1055.8594 Q94.6489,1056.2031 94.3052,1056.6094 Q93.8052,1057.1875 93.0083,1057.5156 Q91.9302,1057.9688 90.6333,1057.9688 Q89.1177,1057.9688 87.9146,1057.3438 Q86.9302,1056.8438 86.2427,1055.7813 Q85.5552,1054.7031 85.5552,1053.4219 L85.5552,1052.2656 Q85.5552,1050.9375 86.1646,1049.7969 Q86.7896,1048.6406 87.8833,1048.0313 Q88.9771,1047.4063 90.2114,1047.4063 Q90.9458,1047.4063 91.5864,1047.5781 Q92.2427,1047.7344 92.7896,1048.0938 Z " fill="#000000"/><text fill="#000000" font-family="sans-serif" font-size="14" lengthAdjust="spacing" textLength="69.2412" x="110.5239" y="1057.9473">Permission</text><line style="stroke:#181818;stroke-width:0.5;" x1="45.5" x2="212.2891" y1="1068.2188" y2="1068.2188"/><text fill="#000000" font-family="sans-serif" font-size="14" lengthAdjust="spacing" textLength="87.1582" x="50.5" y="1086.752">-id: BigInteger</text><text fill="#000000" font-family="sans-serif" font-size="14" lengthAdjust="spacing" textLength="84.0342" x="50.5" y="1104.3613">-name: String</text><text fill="#000000" font-family="sans-serif" font-size="14" lengthAdjust="spacing" textLength="127.627" x="50.5" y="1121.9707">-guard_name: String</text><line style="stroke:#181818;stroke-width:1.0;" x1="45.5" x2="212.2891" y1="1129.0469" y2="1129.0469"/><text fill="#000000" font-family="sans-serif" font-size="14" lengthAdjust="spacing" textLength="156.7891" x="50.5" y="1147.5801">+roles(): BelongsToMany</text></g><!--class Notification--><g id="elem_Notification"><rect codeLine="51" fill="#F1F1F1" height="188.875" id="Notification" rx="2.5" ry="2.5" style="stroke:#181818;stroke-width:0.5;" width="143.8789" x="271" y="611.2188"/><ellipse cx="305.1808" cy="627.2188" fill="#ADD1B2" rx="11" ry="11" style="stroke:#181818;stroke-width:1.0;"/><path d="M307.9464,623.0938 Q308.1027,622.875 308.2902,622.7656 Q308.4777,622.6563 308.6964,622.6563 Q309.0714,622.6563 309.3058,622.9219 Q309.5402,623.1719 309.5402,623.7813 L309.5402,625.2344 Q309.5402,625.8438 309.3058,626.1094 Q309.0714,626.375 308.6964,626.375 Q308.3527,626.375 308.1496,626.1719 Q307.9464,625.9844 307.8371,625.4688 Q307.7902,625.1094 307.6027,624.9219 Q307.2746,624.5469 306.6652,624.3281 Q306.0558,624.1094 305.4308,624.1094 Q304.6652,624.1094 304.0246,624.4375 Q303.3996,624.7656 302.8996,625.5156 Q302.4152,626.2656 302.4152,627.2969 L302.4152,628.3906 Q302.4152,629.625 303.3058,630.4531 Q304.1964,631.2656 305.7902,631.2656 Q306.7277,631.2656 307.3839,631.0156 Q307.7746,630.8594 308.1964,630.4219 Q308.4621,630.1563 308.6027,630.0781 Q308.7589,630 308.9621,630 Q309.2902,630 309.5402,630.2656 Q309.8058,630.5156 309.8058,630.8594 Q309.8058,631.2031 309.4621,631.6094 Q308.9621,632.1875 308.1652,632.5156 Q307.0871,632.9688 305.7902,632.9688 Q304.2746,632.9688 303.0714,632.3438 Q302.0871,631.8438 301.3996,630.7813 Q300.7121,629.7031 300.7121,628.4219 L300.7121,627.2656 Q300.7121,625.9375 301.3214,624.7969 Q301.9464,623.6406 303.0402,623.0313 Q304.1339,622.4063 305.3683,622.4063 Q306.1027,622.4063 306.7433,622.5781 Q307.3996,622.7344 307.9464,623.0938 Z " fill="#000000"/><text fill="#000000" font-family="sans-serif" font-size="14" lengthAdjust="spacing" textLength="69.2549" x="323.4432" y="632.9473">Notification</text><line style="stroke:#181818;stroke-width:0.5;" x1="272" x2="413.8789" y1="643.2188" y2="643.2188"/><text fill="#000000" font-family="sans-serif" font-size="14" lengthAdjust="spacing" textLength="57.5586" x="277" y="661.752">-id: UUID</text><text fill="#000000" font-family="sans-serif" font-size="14" lengthAdjust="spacing" textLength="92.5791" x="277" y="679.3613">-user_id: UUID</text><text fill="#000000" font-family="sans-serif" font-size="14" lengthAdjust="spacing" textLength="70.7998" x="277" y="696.9707">-title: String</text><text fill="#000000" font-family="sans-serif" font-size="14" lengthAdjust="spacing" textLength="96.4756" x="277" y="714.5801">-message: Text</text><text fill="#000000" font-family="sans-serif" font-size="14" lengthAdjust="spacing" textLength="75.4756" x="277" y="732.1895">-type: String</text><text fill="#000000" font-family="sans-serif" font-size="14" lengthAdjust="spacing" textLength="109.7373" x="277" y="749.7988">-is_read: Boolean</text><text fill="#000000" font-family="sans-serif" font-size="14" lengthAdjust="spacing" textLength="77.0273" x="277" y="767.4082">-data: JSON</text><line style="stroke:#181818;stroke-width:1.0;" x1="272" x2="413.8789" y1="774.4844" y2="774.4844"/><text fill="#000000" font-family="sans-serif" font-size="14" lengthAdjust="spacing" textLength="131.8789" x="277" y="793.0176">+markAsRead(): void</text></g><!--class Customer--><g id="elem_Customer"><rect codeLine="65" fill="#F1F1F1" height="153.6563" id="Customer" rx="2.5" ry="2.5" style="stroke:#181818;stroke-width:0.5;" width="188.2236" x="471" y="628.7188"/><ellipse cx="530.5205" cy="644.7188" fill="#ADD1B2" rx="11" ry="11" style="stroke:#181818;stroke-width:1.0;"/><path d="M533.2861,640.5938 Q533.4424,640.375 533.6299,640.2656 Q533.8174,640.1563 534.0361,640.1563 Q534.4111,640.1563 534.6455,640.4219 Q534.8799,640.6719 534.8799,641.2813 L534.8799,642.7344 Q534.8799,643.3438 534.6455,643.6094 Q534.4111,643.875 534.0361,643.875 Q533.6924,643.875 533.4893,643.6719 Q533.2861,643.4844 533.1768,642.9688 Q533.1299,642.6094 532.9424,642.4219 Q532.6143,642.0469 532.0049,641.8281 Q531.3955,641.6094 530.7705,641.6094 Q530.0049,641.6094 529.3643,641.9375 Q528.7393,642.2656 528.2393,643.0156 Q527.7549,643.7656 527.7549,644.7969 L527.7549,645.8906 Q527.7549,647.125 528.6455,647.9531 Q529.5361,648.7656 531.1299,648.7656 Q532.0674,648.7656 532.7236,648.5156 Q533.1143,648.3594 533.5361,647.9219 Q533.8018,647.6563 533.9424,647.5781 Q534.0986,647.5 534.3018,647.5 Q534.6299,647.5 534.8799,647.7656 Q535.1455,648.0156 535.1455,648.3594 Q535.1455,648.7031 534.8018,649.1094 Q534.3018,649.6875 533.5049,650.0156 Q532.4268,650.4688 531.1299,650.4688 Q529.6143,650.4688 528.4111,649.8438 Q527.4268,649.3438 526.7393,648.2813 Q526.0518,647.2031 526.0518,645.9219 L526.0518,644.7656 Q526.0518,643.4375 526.6611,642.2969 Q527.2861,641.1406 528.3799,640.5313 Q529.4736,639.9063 530.708,639.9063 Q531.4424,639.9063 532.083,640.0781 Q532.7393,640.2344 533.2861,640.5938 Z " fill="#000000"/><text fill="#000000" font-family="sans-serif" font-size="14" lengthAdjust="spacing" textLength="60.6826" x="551.0205" y="650.4473">Customer</text><line style="stroke:#181818;stroke-width:0.5;" x1="472" x2="658.2236" y1="660.7188" y2="660.7188"/><text fill="#000000" font-family="sans-serif" font-size="14" lengthAdjust="spacing" textLength="57.5586" x="477" y="679.252">-id: UUID</text><text fill="#000000" font-family="sans-serif" font-size="14" lengthAdjust="spacing" textLength="87.9443" x="477" y="696.8613">-phone: String</text><text fill="#000000" font-family="sans-serif" font-size="14" lengthAdjust="spacing" textLength="84.0342" x="477" y="714.4707">-name: String</text><text fill="#000000" font-family="sans-serif" font-size="14" lengthAdjust="spacing" textLength="100.3652" x="477" y="732.0801">-points: Decimal</text><line style="stroke:#181818;stroke-width:1.0;" x1="472" x2="658.2236" y1="739.1563" y2="739.1563"/><text fill="#000000" font-family="sans-serif" font-size="14" lengthAdjust="spacing" textLength="159.8926" x="477" y="757.6895">+transactions(): HasMany</text><text fill="#000000" font-family="sans-serif" font-size="14" lengthAdjust="spacing" textLength="176.2236" x="477" y="775.2988">+pointsHistories(): HasMany</text></g><!--class PointsHistory--><g id="elem_PointsHistory"><rect codeLine="75" fill="#F1F1F1" height="206.4844" id="PointsHistory" rx="2.5" ry="2.5" style="stroke:#181818;stroke-width:0.5;" width="172.6924" x="481.5" y="992.2188"/><ellipse cx="522.7006" cy="1008.2188" fill="#ADD1B2" rx="11" ry="11" style="stroke:#181818;stroke-width:1.0;"/><path d="M525.4663,1004.0938 Q525.6225,1003.875 525.81,1003.7656 Q525.9975,1003.6563 526.2163,1003.6563 Q526.5913,1003.6563 526.8256,1003.9219 Q527.06,1004.1719 527.06,1004.7813 L527.06,1006.2344 Q527.06,1006.8438 526.8256,1007.1094 Q526.5913,1007.375 526.2163,1007.375 Q525.8725,1007.375 525.6694,1007.1719 Q525.4663,1006.9844 525.3569,1006.4688 Q525.31,1006.1094 525.1225,1005.9219 Q524.7944,1005.5469 524.185,1005.3281 Q523.5756,1005.1094 522.9506,1005.1094 Q522.185,1005.1094 521.5444,1005.4375 Q520.9194,1005.7656 520.4194,1006.5156 Q519.935,1007.2656 519.935,1008.2969 L519.935,1009.3906 Q519.935,1010.625 520.8256,1011.4531 Q521.7163,1012.2656 523.31,1012.2656 Q524.2475,1012.2656 524.9038,1012.0156 Q525.2944,1011.8594 525.7163,1011.4219 Q525.9819,1011.1563 526.1225,1011.0781 Q526.2788,1011 526.4819,1011 Q526.81,1011 527.06,1011.2656 Q527.3256,1011.5156 527.3256,1011.8594 Q527.3256,1012.2031 526.9819,1012.6094 Q526.4819,1013.1875 525.685,1013.5156 Q524.6069,1013.9688 523.31,1013.9688 Q521.7944,1013.9688 520.5913,1013.3438 Q519.6069,1012.8438 518.9194,1011.7813 Q518.2319,1010.7031 518.2319,1009.4219 L518.2319,1008.2656 Q518.2319,1006.9375 518.8413,1005.7969 Q519.4663,1004.6406 520.56,1004.0313 Q521.6538,1003.4063 522.8881,1003.4063 Q523.6225,1003.4063 524.2631,1003.5781 Q524.9194,1003.7344 525.4663,1004.0938 Z " fill="#000000"/><text fill="#000000" font-family="sans-serif" font-size="14" lengthAdjust="spacing" textLength="82.4688" x="542.523" y="1013.9473">PointsHistory</text><line style="stroke:#181818;stroke-width:0.5;" x1="482.5" x2="653.1924" y1="1024.2188" y2="1024.2188"/><text fill="#000000" font-family="sans-serif" font-size="14" lengthAdjust="spacing" textLength="57.5586" x="487.5" y="1042.752">-id: UUID</text><text fill="#000000" font-family="sans-serif" font-size="14" lengthAdjust="spacing" textLength="87.9443" x="487.5" y="1060.3613">-phone: String</text><text fill="#000000" font-family="sans-serif" font-size="14" lengthAdjust="spacing" textLength="133.8271" x="487.5" y="1077.9707">-transaction_id: UUID</text><text fill="#000000" font-family="sans-serif" font-size="14" lengthAdjust="spacing" textLength="105.0547" x="487.5" y="1095.5801">-action_id: String</text><text fill="#000000" font-family="sans-serif" font-size="14" lengthAdjust="spacing" textLength="86.3721" x="487.5" y="1113.1895">-action: String</text><text fill="#000000" font-family="sans-serif" font-size="14" lengthAdjust="spacing" textLength="93.3857" x="487.5" y="1130.7988">-points: Integer</text><text fill="#000000" font-family="sans-serif" font-size="14" lengthAdjust="spacing" textLength="87.1445" x="487.5" y="1148.4082">-image: String</text><line style="stroke:#181818;stroke-width:1.0;" x1="482.5" x2="653.1924" y1="1155.4844" y2="1155.4844"/><text fill="#000000" font-family="sans-serif" font-size="14" lengthAdjust="spacing" textLength="149.7822" x="487.5" y="1174.0176">+customer(): BelongsTo</text><text fill="#000000" font-family="sans-serif" font-size="14" lengthAdjust="spacing" textLength="160.6924" x="487.5" y="1191.627">+transaction(): BelongsTo</text></g><!--class Category--><g id="elem_Category"><rect codeLine="90" fill="#F1F1F1" height="136.0469" id="Category" rx="2.5" ry="2.5" style="stroke:#181818;stroke-width:0.5;" width="210.8096" x="1955.5" y="637.7188"/><ellipse cx="2028.2515" cy="653.7188" fill="#ADD1B2" rx="11" ry="11" style="stroke:#181818;stroke-width:1.0;"/><path d="M2031.0171,649.5938 Q2031.1733,649.375 2031.3608,649.2656 Q2031.5483,649.1563 2031.7671,649.1563 Q2032.1421,649.1563 2032.3765,649.4219 Q2032.6108,649.6719 2032.6108,650.2813 L2032.6108,651.7344 Q2032.6108,652.3438 2032.3765,652.6094 Q2032.1421,652.875 2031.7671,652.875 Q2031.4233,652.875 2031.2202,652.6719 Q2031.0171,652.4844 2030.9077,651.9688 Q2030.8608,651.6094 2030.6733,651.4219 Q2030.3452,651.0469 2029.7358,650.8281 Q2029.1265,650.6094 2028.5015,650.6094 Q2027.7358,650.6094 2027.0952,650.9375 Q2026.4702,651.2656 2025.9702,652.0156 Q2025.4858,652.7656 2025.4858,653.7969 L2025.4858,654.8906 Q2025.4858,656.125 2026.3765,656.9531 Q2027.2671,657.7656 2028.8608,657.7656 Q2029.7983,657.7656 2030.4546,657.5156 Q2030.8452,657.3594 2031.2671,656.9219 Q2031.5327,656.6563 2031.6733,656.5781 Q2031.8296,656.5 2032.0327,656.5 Q2032.3608,656.5 2032.6108,656.7656 Q2032.8765,657.0156 2032.8765,657.3594 Q2032.8765,657.7031 2032.5327,658.1094 Q2032.0327,658.6875 2031.2358,659.0156 Q2030.1577,659.4688 2028.8608,659.4688 Q2027.3452,659.4688 2026.1421,658.8438 Q2025.1577,658.3438 2024.4702,657.2813 Q2023.7827,656.2031 2023.7827,654.9219 L2023.7827,653.7656 Q2023.7827,652.4375 2024.3921,651.2969 Q2025.0171,650.1406 2026.1108,649.5313 Q2027.2046,648.9063 2028.439,648.9063 Q2029.1733,648.9063 2029.814,649.0781 Q2030.4702,649.2344 2031.0171,649.5938 Z " fill="#000000"/><text fill="#000000" font-family="sans-serif" font-size="14" lengthAdjust="spacing" textLength="56.8066" x="2048.7515" y="659.4473">Category</text><line style="stroke:#181818;stroke-width:0.5;" x1="1956.5" x2="2165.3096" y1="669.7188" y2="669.7188"/><text fill="#000000" font-family="sans-serif" font-size="14" lengthAdjust="spacing" textLength="57.5586" x="1961.5" y="688.252">-id: UUID</text><text fill="#000000" font-family="sans-serif" font-size="14" lengthAdjust="spacing" textLength="84.0342" x="1961.5" y="705.8613">-name: String</text><text fill="#000000" font-family="sans-serif" font-size="14" lengthAdjust="spacing" textLength="118.2891" x="1961.5" y="723.4707">-is_active: Boolean</text><line style="stroke:#181818;stroke-width:1.0;" x1="1956.5" x2="2165.3096" y1="730.5469" y2="730.5469"/><text fill="#000000" font-family="sans-serif" font-size="14" lengthAdjust="spacing" textLength="180.1406" x="1961.5" y="749.0801">+products(): BelongsToMany</text><text fill="#000000" font-family="sans-serif" font-size="14" lengthAdjust="spacing" textLength="198.8096" x="1961.5" y="766.6895">+productCategories(): HasMany</text></g><!--class Product--><g id="elem_Product"><rect codeLine="99" fill="#F1F1F1" height="312.1406" id="Product" rx="2.5" ry="2.5" style="stroke:#181818;stroke-width:0.5;" width="192.1543" x="1529" y="549.7188"/><ellipse cx="1596.7031" cy="565.7188" fill="#ADD1B2" rx="11" ry="11" style="stroke:#181818;stroke-width:1.0;"/><path d="M1599.4688,561.5938 Q1599.625,561.375 1599.8125,561.2656 Q1600,561.1563 1600.2188,561.1563 Q1600.5938,561.1563 1600.8281,561.4219 Q1601.0625,561.6719 1601.0625,562.2813 L1601.0625,563.7344 Q1601.0625,564.3438 1600.8281,564.6094 Q1600.5938,564.875 1600.2188,564.875 Q1599.875,564.875 1599.6719,564.6719 Q1599.4688,564.4844 1599.3594,563.9688 Q1599.3125,563.6094 1599.125,563.4219 Q1598.7969,563.0469 1598.1875,562.8281 Q1597.5781,562.6094 1596.9531,562.6094 Q1596.1875,562.6094 1595.5469,562.9375 Q1594.9219,563.2656 1594.4219,564.0156 Q1593.9375,564.7656 1593.9375,565.7969 L1593.9375,566.8906 Q1593.9375,568.125 1594.8281,568.9531 Q1595.7188,569.7656 1597.3125,569.7656 Q1598.25,569.7656 1598.9063,569.5156 Q1599.2969,569.3594 1599.7188,568.9219 Q1599.9844,568.6563 1600.125,568.5781 Q1600.2813,568.5 1600.4844,568.5 Q1600.8125,568.5 1601.0625,568.7656 Q1601.3281,569.0156 1601.3281,569.3594 Q1601.3281,569.7031 1600.9844,570.1094 Q1600.4844,570.6875 1599.6875,571.0156 Q1598.6094,571.4688 1597.3125,571.4688 Q1595.7969,571.4688 1594.5938,570.8438 Q1593.6094,570.3438 1592.9219,569.2813 Q1592.2344,568.2031 1592.2344,566.9219 L1592.2344,565.7656 Q1592.2344,564.4375 1592.8438,563.2969 Q1593.4688,562.1406 1594.5625,561.5313 Q1595.6563,560.9063 1596.8906,560.9063 Q1597.625,560.9063 1598.2656,561.0781 Q1598.9219,561.2344 1599.4688,561.5938 Z " fill="#000000"/><text fill="#000000" font-family="sans-serif" font-size="14" lengthAdjust="spacing" textLength="48.248" x="1617.2031" y="571.4473">Product</text><line style="stroke:#181818;stroke-width:0.5;" x1="1530" x2="1720.1543" y1="581.7188" y2="581.7188"/><text fill="#000000" font-family="sans-serif" font-size="14" lengthAdjust="spacing" textLength="57.5586" x="1535" y="600.252">-id: UUID</text><text fill="#000000" font-family="sans-serif" font-size="14" lengthAdjust="spacing" textLength="84.0342" x="1535" y="617.8613">-name: String</text><text fill="#000000" font-family="sans-serif" font-size="14" lengthAdjust="spacing" textLength="116.7168" x="1535" y="635.4707">-description: String</text><text fill="#000000" font-family="sans-serif" font-size="14" lengthAdjust="spacing" textLength="93.3516" x="1535" y="653.0801">-price: Decimal</text><text fill="#000000" font-family="sans-serif" font-size="14" lengthAdjust="spacing" textLength="95.6826" x="1535" y="670.6895">-stock: Decimal</text><text fill="#000000" font-family="sans-serif" font-size="14" lengthAdjust="spacing" textLength="96.4756" x="1535" y="688.2988">-method: JSON</text><text fill="#000000" font-family="sans-serif" font-size="14" lengthAdjust="spacing" textLength="141.627" x="1535" y="705.9082">-product_image: String</text><text fill="#000000" font-family="sans-serif" font-size="14" lengthAdjust="spacing" textLength="119.8477" x="1535" y="723.5176">-is_recipe: Boolean</text><text fill="#000000" font-family="sans-serif" font-size="14" lengthAdjust="spacing" textLength="118.2891" x="1535" y="741.127">-is_active: Boolean</text><text fill="#000000" font-family="sans-serif" font-size="14" lengthAdjust="spacing" textLength="171.2061" x="1535" y="758.7363">-is_recommended: Boolean</text><text fill="#000000" font-family="sans-serif" font-size="14" lengthAdjust="spacing" textLength="103.4756" x="1535" y="776.3457">-capital: Decimal</text><text fill="#000000" font-family="sans-serif" font-size="14" lengthAdjust="spacing" textLength="84.793" x="1535" y="793.9551">-pcs: Decimal</text><text fill="#000000" font-family="sans-serif" font-size="14" lengthAdjust="spacing" textLength="133.0479" x="1535" y="811.5645">-pcs_capital: Decimal</text><line style="stroke:#181818;stroke-width:1.0;" x1="1530" x2="1720.1543" y1="818.6406" y2="818.6406"/><text fill="#000000" font-family="sans-serif" font-size="14" lengthAdjust="spacing" textLength="180.1543" x="1535" y="837.1738">+getAvailableStock(): Integer</text><text fill="#000000" font-family="sans-serif" font-size="14" lengthAdjust="spacing" textLength="152.1064" x="1535" y="854.7832">+otherCosts(): HasMany</text></g><!--class ProductCategory--><g id="elem_ProductCategory"><rect codeLine="118" fill="#F1F1F1" height="92.8281" id="ProductCategory" rx="2.5" ry="2.5" style="stroke:#181818;stroke-width:0.5;" width="137.0547" x="1928.5" y="1048.7188"/><ellipse cx="1943.5" cy="1064.7188" fill="#ADD1B2" rx="11" ry="11" style="stroke:#181818;stroke-width:1.0;"/><path d="M1946.2656,1060.5938 Q1946.4219,1060.375 1946.6094,1060.2656 Q1946.7969,1060.1563 1947.0156,1060.1563 Q1947.3906,1060.1563 1947.625,1060.4219 Q1947.8594,1060.6719 1947.8594,1061.2813 L1947.8594,1062.7344 Q1947.8594,1063.3438 1947.625,1063.6094 Q1947.3906,1063.875 1947.0156,1063.875 Q1946.6719,1063.875 1946.4688,1063.6719 Q1946.2656,1063.4844 1946.1563,1062.9688 Q1946.1094,1062.6094 1945.9219,1062.4219 Q1945.5938,1062.0469 1944.9844,1061.8281 Q1944.375,1061.6094 1943.75,1061.6094 Q1942.9844,1061.6094 1942.3438,1061.9375 Q1941.7188,1062.2656 1941.2188,1063.0156 Q1940.7344,1063.7656 1940.7344,1064.7969 L1940.7344,1065.8906 Q1940.7344,1067.125 1941.625,1067.9531 Q1942.5156,1068.7656 1944.1094,1068.7656 Q1945.0469,1068.7656 1945.7031,1068.5156 Q1946.0938,1068.3594 1946.5156,1067.9219 Q1946.7813,1067.6563 1946.9219,1067.5781 Q1947.0781,1067.5 1947.2813,1067.5 Q1947.6094,1067.5 1947.8594,1067.7656 Q1948.125,1068.0156 1948.125,1068.3594 Q1948.125,1068.7031 1947.7813,1069.1094 Q1947.2813,1069.6875 1946.4844,1070.0156 Q1945.4063,1070.4688 1944.1094,1070.4688 Q1942.5938,1070.4688 1941.3906,1069.8438 Q1940.4063,1069.3438 1939.7188,1068.2813 Q1939.0313,1067.2031 1939.0313,1065.9219 L1939.0313,1064.7656 Q1939.0313,1063.4375 1939.6406,1062.2969 Q1940.2656,1061.1406 1941.3594,1060.5313 Q1942.4531,1059.9063 1943.6875,1059.9063 Q1944.4219,1059.9063 1945.0625,1060.0781 Q1945.7188,1060.2344 1946.2656,1060.5938 Z " fill="#000000"/><text fill="#000000" font-family="sans-serif" font-size="14" lengthAdjust="spacing" textLength="105.0547" x="1957.5" y="1070.4473">ProductCategory</text><line style="stroke:#181818;stroke-width:0.5;" x1="1929.5" x2="2064.5547" y1="1080.7188" y2="1080.7188"/><text fill="#000000" font-family="sans-serif" font-size="14" lengthAdjust="spacing" textLength="57.5586" x="1934.5" y="1099.252">-id: UUID</text><text fill="#000000" font-family="sans-serif" font-size="14" lengthAdjust="spacing" textLength="112.041" x="1934.5" y="1116.8613">-product_id: UUID</text><text fill="#000000" font-family="sans-serif" font-size="14" lengthAdjust="spacing" textLength="119.041" x="1934.5" y="1134.4707">-category_id: UUID</text></g><!--class TypeCost--><g id="elem_TypeCost"><rect codeLine="124" fill="#F1F1F1" height="100.8281" id="TypeCost" rx="2.5" ry="2.5" style="stroke:#181818;stroke-width:0.5;" width="164.1064" x="1756" y="655.2188"/><ellipse cx="1803.8481" cy="671.2188" fill="#ADD1B2" rx="11" ry="11" style="stroke:#181818;stroke-width:1.0;"/><path d="M1806.6138,667.0938 Q1806.77,666.875 1806.9575,666.7656 Q1807.145,666.6563 1807.3638,666.6563 Q1807.7388,666.6563 1807.9731,666.9219 Q1808.2075,667.1719 1808.2075,667.7813 L1808.2075,669.2344 Q1808.2075,669.8438 1807.9731,670.1094 Q1807.7388,670.375 1807.3638,670.375 Q1807.02,670.375 1806.8169,670.1719 Q1806.6138,669.9844 1806.5044,669.4688 Q1806.4575,669.1094 1806.27,668.9219 Q1805.9419,668.5469 1805.3325,668.3281 Q1804.7231,668.1094 1804.0981,668.1094 Q1803.3325,668.1094 1802.6919,668.4375 Q1802.0669,668.7656 1801.5669,669.5156 Q1801.0825,670.2656 1801.0825,671.2969 L1801.0825,672.3906 Q1801.0825,673.625 1801.9731,674.4531 Q1802.8638,675.2656 1804.4575,675.2656 Q1805.395,675.2656 1806.0513,675.0156 Q1806.4419,674.8594 1806.8638,674.4219 Q1807.1294,674.1563 1807.27,674.0781 Q1807.4263,674 1807.6294,674 Q1807.9575,674 1808.2075,674.2656 Q1808.4731,674.5156 1808.4731,674.8594 Q1808.4731,675.2031 1808.1294,675.6094 Q1807.6294,676.1875 1806.8325,676.5156 Q1805.7544,676.9688 1804.4575,676.9688 Q1802.9419,676.9688 1801.7388,676.3438 Q1800.7544,675.8438 1800.0669,674.7813 Q1799.3794,673.7031 1799.3794,672.4219 L1799.3794,671.2656 Q1799.3794,669.9375 1799.9888,668.7969 Q1800.6138,667.6406 1801.7075,667.0313 Q1802.8013,666.4063 1804.0356,666.4063 Q1804.77,666.4063 1805.4106,666.5781 Q1806.0669,666.7344 1806.6138,667.0938 Z " fill="#000000"/><text fill="#000000" font-family="sans-serif" font-size="14" lengthAdjust="spacing" textLength="59.9102" x="1824.3481" y="676.9473">TypeCost</text><line style="stroke:#181818;stroke-width:0.5;" x1="1757" x2="1919.1064" y1="687.2188" y2="687.2188"/><text fill="#000000" font-family="sans-serif" font-size="14" lengthAdjust="spacing" textLength="57.5586" x="1762" y="705.752">-id: UUID</text><text fill="#000000" font-family="sans-serif" font-size="14" lengthAdjust="spacing" textLength="84.0342" x="1762" y="723.3613">-name: String</text><line style="stroke:#181818;stroke-width:1.0;" x1="1757" x2="1919.1064" y1="730.4375" y2="730.4375"/><text fill="#000000" font-family="sans-serif" font-size="14" lengthAdjust="spacing" textLength="152.1064" x="1762" y="748.9707">+otherCosts(): HasMany</text></g><!--class OtherCost--><g id="elem_OtherCost"><rect codeLine="131" fill="#F1F1F1" height="153.6563" id="OtherCost" rx="2.5" ry="2.5" style="stroke:#181818;stroke-width:0.5;" width="159.458" x="1608.5" y="1018.2188"/><ellipse cx="1652.1462" cy="1034.2188" fill="#ADD1B2" rx="11" ry="11" style="stroke:#181818;stroke-width:1.0;"/><path d="M1654.9118,1030.0938 Q1655.0681,1029.875 1655.2556,1029.7656 Q1655.4431,1029.6563 1655.6618,1029.6563 Q1656.0368,1029.6563 1656.2712,1029.9219 Q1656.5056,1030.1719 1656.5056,1030.7813 L1656.5056,1032.2344 Q1656.5056,1032.8438 1656.2712,1033.1094 Q1656.0368,1033.375 1655.6618,1033.375 Q1655.3181,1033.375 1655.1149,1033.1719 Q1654.9118,1032.9844 1654.8024,1032.4688 Q1654.7556,1032.1094 1654.5681,1031.9219 Q1654.2399,1031.5469 1653.6306,1031.3281 Q1653.0212,1031.1094 1652.3962,1031.1094 Q1651.6306,1031.1094 1650.9899,1031.4375 Q1650.3649,1031.7656 1649.8649,1032.5156 Q1649.3806,1033.2656 1649.3806,1034.2969 L1649.3806,1035.3906 Q1649.3806,1036.625 1650.2712,1037.4531 Q1651.1618,1038.2656 1652.7556,1038.2656 Q1653.6931,1038.2656 1654.3493,1038.0156 Q1654.7399,1037.8594 1655.1618,1037.4219 Q1655.4274,1037.1563 1655.5681,1037.0781 Q1655.7243,1037 1655.9274,1037 Q1656.2556,1037 1656.5056,1037.2656 Q1656.7712,1037.5156 1656.7712,1037.8594 Q1656.7712,1038.2031 1656.4274,1038.6094 Q1655.9274,1039.1875 1655.1306,1039.5156 Q1654.0524,1039.9688 1652.7556,1039.9688 Q1651.2399,1039.9688 1650.0368,1039.3438 Q1649.0524,1038.8438 1648.3649,1037.7813 Q1647.6774,1036.7031 1647.6774,1035.4219 L1647.6774,1034.2656 Q1647.6774,1032.9375 1648.2868,1031.7969 Q1648.9118,1030.6406 1650.0056,1030.0313 Q1651.0993,1029.4063 1652.3337,1029.4063 Q1653.0681,1029.4063 1653.7087,1029.5781 Q1654.3649,1029.7344 1654.9118,1030.0938 Z " fill="#000000"/><text fill="#000000" font-family="sans-serif" font-size="14" lengthAdjust="spacing" textLength="63.7998" x="1672.512" y="1039.9473">OtherCost</text><line style="stroke:#181818;stroke-width:0.5;" x1="1609.5" x2="1766.958" y1="1050.2188" y2="1050.2188"/><text fill="#000000" font-family="sans-serif" font-size="14" lengthAdjust="spacing" textLength="57.5586" x="1614.5" y="1068.752">-id: UUID</text><text fill="#000000" font-family="sans-serif" font-size="14" lengthAdjust="spacing" textLength="112.041" x="1614.5" y="1086.3613">-product_id: UUID</text><text fill="#000000" font-family="sans-serif" font-size="14" lengthAdjust="spacing" textLength="125.2686" x="1614.5" y="1103.9707">-type_cost_id: UUID</text><text fill="#000000" font-family="sans-serif" font-size="14" lengthAdjust="spacing" textLength="93.3516" x="1614.5" y="1121.5801">-price: Decimal</text><line style="stroke:#181818;stroke-width:1.0;" x1="1609.5" x2="1766.958" y1="1128.6563" y2="1128.6563"/><text fill="#000000" font-family="sans-serif" font-size="14" lengthAdjust="spacing" textLength="138.9063" x="1614.5" y="1147.1895">+product(): BelongsTo</text><text fill="#000000" font-family="sans-serif" font-size="14" lengthAdjust="spacing" textLength="147.458" x="1614.5" y="1164.7988">+typeCost(): BelongsTo</text></g><!--class Unit--><g id="elem_Unit"><rect codeLine="141" fill="#F1F1F1" height="206.4844" id="Unit" rx="2.5" ry="2.5" style="stroke:#181818;stroke-width:0.5;" width="232.5957" x="1242.5" y="602.7188"/><ellipse cx="1342.0996" cy="618.7188" fill="#ADD1B2" rx="11" ry="11" style="stroke:#181818;stroke-width:1.0;"/><path d="M1344.8652,614.5938 Q1345.0215,614.375 1345.209,614.2656 Q1345.3965,614.1563 1345.6152,614.1563 Q1345.9902,614.1563 1346.2246,614.4219 Q1346.459,614.6719 1346.459,615.2813 L1346.459,616.7344 Q1346.459,617.3438 1346.2246,617.6094 Q1345.9902,617.875 1345.6152,617.875 Q1345.2715,617.875 1345.0684,617.6719 Q1344.8652,617.4844 1344.7559,616.9688 Q1344.709,616.6094 1344.5215,616.4219 Q1344.1934,616.0469 1343.584,615.8281 Q1342.9746,615.6094 1342.3496,615.6094 Q1341.584,615.6094 1340.9434,615.9375 Q1340.3184,616.2656 1339.8184,617.0156 Q1339.334,617.7656 1339.334,618.7969 L1339.334,619.8906 Q1339.334,621.125 1340.2246,621.9531 Q1341.1152,622.7656 1342.709,622.7656 Q1343.6465,622.7656 1344.3027,622.5156 Q1344.6934,622.3594 1345.1152,621.9219 Q1345.3809,621.6563 1345.5215,621.5781 Q1345.6777,621.5 1345.8809,621.5 Q1346.209,621.5 1346.459,621.7656 Q1346.7246,622.0156 1346.7246,622.3594 Q1346.7246,622.7031 1346.3809,623.1094 Q1345.8809,623.6875 1345.084,624.0156 Q1344.0059,624.4688 1342.709,624.4688 Q1341.1934,624.4688 1339.9902,623.8438 Q1339.0059,623.3438 1338.3184,622.2813 Q1337.6309,621.2031 1337.6309,619.9219 L1337.6309,618.7656 Q1337.6309,617.4375 1338.2402,616.2969 Q1338.8652,615.1406 1339.959,614.5313 Q1341.0527,613.9063 1342.2871,613.9063 Q1343.0215,613.9063 1343.6621,614.0781 Q1344.3184,614.2344 1344.8652,614.5938 Z " fill="#000000"/><text fill="#000000" font-family="sans-serif" font-size="14" lengthAdjust="spacing" textLength="24.8965" x="1362.5996" y="624.4473">Unit</text><line style="stroke:#181818;stroke-width:0.5;" x1="1243.5" x2="1474.0957" y1="634.7188" y2="634.7188"/><text fill="#000000" font-family="sans-serif" font-size="14" lengthAdjust="spacing" textLength="57.5586" x="1248.5" y="653.252">-id: UUID</text><text fill="#000000" font-family="sans-serif" font-size="14" lengthAdjust="spacing" textLength="84.0342" x="1248.5" y="670.8613">-name: String</text><text fill="#000000" font-family="sans-serif" font-size="14" lengthAdjust="spacing" textLength="77.8066" x="1248.5" y="688.4707">-alias: String</text><text fill="#000000" font-family="sans-serif" font-size="14" lengthAdjust="spacing" textLength="84.8203" x="1248.5" y="706.0801">-group: String</text><text fill="#000000" font-family="sans-serif" font-size="14" lengthAdjust="spacing" textLength="126.0615" x="1248.5" y="723.6895">-base_unit_id: UUID</text><text fill="#000000" font-family="sans-serif" font-size="14" lengthAdjust="spacing" textLength="173.5098" x="1248.5" y="741.2988">-conversion_factor: Decimal</text><line style="stroke:#181818;stroke-width:1.0;" x1="1243.5" x2="1474.0957" y1="748.375" y2="748.375"/><text fill="#000000" font-family="sans-serif" font-size="14" lengthAdjust="spacing" textLength="147.4648" x="1248.5" y="766.9082">+baseUnit(): BelongsTo</text><text fill="#000000" font-family="sans-serif" font-size="14" lengthAdjust="spacing" textLength="133.4375" x="1248.5" y="784.5176">+children(): HasMany</text><text fill="#000000" font-family="sans-serif" font-size="14" lengthAdjust="spacing" textLength="220.5957" x="1248.5" y="802.127">+convertTo(targetUnit, value): Float</text></g><!--class Transaction--><g id="elem_Transaction"><rect codeLine="156" fill="#F1F1F1" height="435.4063" id="Transaction" rx="2.5" ry="2.5" style="stroke:#181818;stroke-width:0.5;" width="223.2715" x="915.5" y="488.2188"/><ellipse cx="986.3135" cy="504.2188" fill="#ADD1B2" rx="11" ry="11" style="stroke:#181818;stroke-width:1.0;"/><path d="M989.0791,500.0938 Q989.2354,499.875 989.4229,499.7656 Q989.6104,499.6563 989.8291,499.6563 Q990.2041,499.6563 990.4385,499.9219 Q990.6729,500.1719 990.6729,500.7813 L990.6729,502.2344 Q990.6729,502.8438 990.4385,503.1094 Q990.2041,503.375 989.8291,503.375 Q989.4854,503.375 989.2822,503.1719 Q989.0791,502.9844 988.9697,502.4688 Q988.9229,502.1094 988.7354,501.9219 Q988.4072,501.5469 987.7979,501.3281 Q987.1885,501.1094 986.5635,501.1094 Q985.7979,501.1094 985.1572,501.4375 Q984.5322,501.7656 984.0322,502.5156 Q983.5479,503.2656 983.5479,504.2969 L983.5479,505.3906 Q983.5479,506.625 984.4385,507.4531 Q985.3291,508.2656 986.9229,508.2656 Q987.8604,508.2656 988.5166,508.0156 Q988.9072,507.8594 989.3291,507.4219 Q989.5947,507.1563 989.7354,507.0781 Q989.8916,507 990.0947,507 Q990.4229,507 990.6729,507.2656 Q990.9385,507.5156 990.9385,507.8594 Q990.9385,508.2031 990.5947,508.6094 Q990.0947,509.1875 989.2979,509.5156 Q988.2197,509.9688 986.9229,509.9688 Q985.4072,509.9688 984.2041,509.3438 Q983.2197,508.8438 982.5322,507.7813 Q981.8447,506.7031 981.8447,505.4219 L981.8447,504.2656 Q981.8447,502.9375 982.4541,501.7969 Q983.0791,500.6406 984.1729,500.0313 Q985.2666,499.4063 986.501,499.4063 Q987.2354,499.4063 987.876,499.5781 Q988.5322,499.7344 989.0791,500.0938 Z " fill="#000000"/><text fill="#000000" font-family="sans-serif" font-size="14" lengthAdjust="spacing" textLength="73.1445" x="1006.8135" y="509.9473">Transaction</text><line style="stroke:#181818;stroke-width:0.5;" x1="916.5" x2="1137.7715" y1="520.2188" y2="520.2188"/><text fill="#000000" font-family="sans-serif" font-size="14" lengthAdjust="spacing" textLength="57.5586" x="921.5" y="538.752">-id: UUID</text><text fill="#000000" font-family="sans-serif" font-size="14" lengthAdjust="spacing" textLength="92.5791" x="921.5" y="556.3613">-user_id: UUID</text><text fill="#000000" font-family="sans-serif" font-size="14" lengthAdjust="spacing" textLength="122.917" x="921.5" y="573.9707">-customer_id: UUID</text><text fill="#000000" font-family="sans-serif" font-size="14" lengthAdjust="spacing" textLength="147.8477" x="921.5" y="591.5801">-invoice_number: String</text><text fill="#000000" font-family="sans-serif" font-size="14" lengthAdjust="spacing" textLength="84.0342" x="921.5" y="609.1895">-name: String</text><text fill="#000000" font-family="sans-serif" font-size="14" lengthAdjust="spacing" textLength="87.9443" x="921.5" y="626.7988">-phone: String</text><text fill="#000000" font-family="sans-serif" font-size="14" lengthAdjust="spacing" textLength="69.2617" x="921.5" y="644.4082">-date: Date</text><text fill="#000000" font-family="sans-serif" font-size="14" lengthAdjust="spacing" textLength="70" x="921.5" y="662.0176">-time: Time</text><text fill="#000000" font-family="sans-serif" font-size="14" lengthAdjust="spacing" textLength="104.2754" x="921.5" y="679.627">-start_date: Date</text><text fill="#000000" font-family="sans-serif" font-size="14" lengthAdjust="spacing" textLength="100.4063" x="921.5" y="697.2363">-end_date: Date</text><text fill="#000000" font-family="sans-serif" font-size="14" lengthAdjust="spacing" textLength="66.917" x="921.5" y="714.8457">-note: Text</text><text fill="#000000" font-family="sans-serif" font-size="14" lengthAdjust="spacing" textLength="147.8477" x="921.5" y="732.4551">-payment_status: String</text><text fill="#000000" font-family="sans-serif" font-size="14" lengthAdjust="spacing" textLength="86.3652" x="921.5" y="750.0645">-status: String</text><text fill="#000000" font-family="sans-serif" font-size="14" lengthAdjust="spacing" textLength="95.71" x="921.5" y="767.6738">-method: String</text><text fill="#000000" font-family="sans-serif" font-size="14" lengthAdjust="spacing" textLength="143.9512" x="921.5" y="785.2832">-total_amount: Decimal</text><text fill="#000000" font-family="sans-serif" font-size="14" lengthAdjust="spacing" textLength="131.5303" x="921.5" y="802.8926">-points_used: Integer</text><text fill="#000000" font-family="sans-serif" font-size="14" lengthAdjust="spacing" textLength="160.2959" x="921.5" y="820.502">-points_discount: Decimal</text><text fill="#000000" font-family="sans-serif" font-size="14" lengthAdjust="spacing" textLength="136.9512" x="921.5" y="838.1113">-total_refund: Decimal</text><text fill="#000000" font-family="sans-serif" font-size="14" lengthAdjust="spacing" textLength="149.3926" x="921.5" y="855.7207">-created_by_shift: UUID</text><line style="stroke:#181818;stroke-width:1.0;" x1="916.5" x2="1137.7715" y1="862.7969" y2="862.7969"/><text fill="#000000" font-family="sans-serif" font-size="14" lengthAdjust="spacing" textLength="211.2715" x="921.5" y="881.3301">+generateInvoiceNumber(): String</text><text fill="#000000" font-family="sans-serif" font-size="14" lengthAdjust="spacing" textLength="124.8789" x="921.5" y="898.9395">+details(): HasMany</text><text fill="#000000" font-family="sans-serif" font-size="14" lengthAdjust="spacing" textLength="145.1064" x="921.5" y="916.5488">+payments(): HasMany</text></g><!--class TransactionDetail--><g id="elem_TransactionDetail"><rect codeLine="182" fill="#F1F1F1" height="206.4844" id="TransactionDetail" rx="2.5" ry="2.5" style="stroke:#181818;stroke-width:0.5;" width="209.6543" x="976" y="992.2188"/><ellipse cx="1022.1084" cy="1008.2188" fill="#ADD1B2" rx="11" ry="11" style="stroke:#181818;stroke-width:1.0;"/><path d="M1024.874,1004.0938 Q1025.0303,1003.875 1025.2178,1003.7656 Q1025.4053,1003.6563 1025.624,1003.6563 Q1025.999,1003.6563 1026.2334,1003.9219 Q1026.4678,1004.1719 1026.4678,1004.7813 L1026.4678,1006.2344 Q1026.4678,1006.8438 1026.2334,1007.1094 Q1025.999,1007.375 1025.624,1007.375 Q1025.2803,1007.375 1025.0771,1007.1719 Q1024.874,1006.9844 1024.7646,1006.4688 Q1024.7178,1006.1094 1024.5303,1005.9219 Q1024.2021,1005.5469 1023.5928,1005.3281 Q1022.9834,1005.1094 1022.3584,1005.1094 Q1021.5928,1005.1094 1020.9521,1005.4375 Q1020.3271,1005.7656 1019.8271,1006.5156 Q1019.3428,1007.2656 1019.3428,1008.2969 L1019.3428,1009.3906 Q1019.3428,1010.625 1020.2334,1011.4531 Q1021.124,1012.2656 1022.7178,1012.2656 Q1023.6553,1012.2656 1024.3115,1012.0156 Q1024.7021,1011.8594 1025.124,1011.4219 Q1025.3896,1011.1563 1025.5303,1011.0781 Q1025.6865,1011 1025.8896,1011 Q1026.2178,1011 1026.4678,1011.2656 Q1026.7334,1011.5156 1026.7334,1011.8594 Q1026.7334,1012.2031 1026.3896,1012.6094 Q1025.8896,1013.1875 1025.0928,1013.5156 Q1024.0146,1013.9688 1022.7178,1013.9688 Q1021.2021,1013.9688 1019.999,1013.3438 Q1019.0146,1012.8438 1018.3271,1011.7813 Q1017.6396,1010.7031 1017.6396,1009.4219 L1017.6396,1008.2656 Q1017.6396,1006.9375 1018.249,1005.7969 Q1018.874,1004.6406 1019.9678,1004.0313 Q1021.0615,1003.4063 1022.2959,1003.4063 Q1023.0303,1003.4063 1023.6709,1003.5781 Q1024.3271,1003.7344 1024.874,1004.0938 Z " fill="#000000"/><text fill="#000000" font-family="sans-serif" font-size="14" lengthAdjust="spacing" textLength="108.9375" x="1042.6084" y="1013.9473">TransactionDetail</text><line style="stroke:#181818;stroke-width:0.5;" x1="977" x2="1184.6543" y1="1024.2188" y2="1024.2188"/><text fill="#000000" font-family="sans-serif" font-size="14" lengthAdjust="spacing" textLength="57.5586" x="982" y="1042.752">-id: UUID</text><text fill="#000000" font-family="sans-serif" font-size="14" lengthAdjust="spacing" textLength="133.8271" x="982" y="1060.3613">-transaction_id: UUID</text><text fill="#000000" font-family="sans-serif" font-size="14" lengthAdjust="spacing" textLength="112.041" x="982" y="1077.9707">-product_id: UUID</text><text fill="#000000" font-family="sans-serif" font-size="14" lengthAdjust="spacing" textLength="140.0684" x="982" y="1095.5801">-quantity: SmallInteger</text><text fill="#000000" font-family="sans-serif" font-size="14" lengthAdjust="spacing" textLength="93.3516" x="982" y="1113.1895">-price: Decimal</text><text fill="#000000" font-family="sans-serif" font-size="14" lengthAdjust="spacing" textLength="187.5508" x="982" y="1130.7988">-refund_quantity: SmallInteger</text><text fill="#000000" font-family="sans-serif" font-size="14" lengthAdjust="spacing" textLength="197.6543" x="982" y="1148.4082">-pcs_capital_snapshot: Decimal</text><line style="stroke:#181818;stroke-width:1.0;" x1="977" x2="1184.6543" y1="1155.4844" y2="1155.4844"/><text fill="#000000" font-family="sans-serif" font-size="14" lengthAdjust="spacing" textLength="160.6924" x="982" y="1174.0176">+transaction(): BelongsTo</text><text fill="#000000" font-family="sans-serif" font-size="14" lengthAdjust="spacing" textLength="138.9063" x="982" y="1191.627">+product(): BelongsTo</text></g><!--class Payment--><g id="elem_Payment"><rect codeLine="195" fill="#F1F1F1" height="224.0938" id="Payment" rx="2.5" ry="2.5" style="stroke:#181818;stroke-width:0.5;" width="226.3818" x="715" y="983.2188"/><ellipse cx="796.3169" cy="999.2188" fill="#ADD1B2" rx="11" ry="11" style="stroke:#181818;stroke-width:1.0;"/><path d="M799.0825,995.0938 Q799.2388,994.875 799.4263,994.7656 Q799.6138,994.6563 799.8325,994.6563 Q800.2075,994.6563 800.4419,994.9219 Q800.6763,995.1719 800.6763,995.7813 L800.6763,997.2344 Q800.6763,997.8438 800.4419,998.1094 Q800.2075,998.375 799.8325,998.375 Q799.4888,998.375 799.2856,998.1719 Q799.0825,997.9844 798.9731,997.4688 Q798.9263,997.1094 798.7388,996.9219 Q798.4106,996.5469 797.8013,996.3281 Q797.1919,996.1094 796.5669,996.1094 Q795.8013,996.1094 795.1606,996.4375 Q794.5356,996.7656 794.0356,997.5156 Q793.5513,998.2656 793.5513,999.2969 L793.5513,1000.3906 Q793.5513,1001.625 794.4419,1002.4531 Q795.3325,1003.2656 796.9263,1003.2656 Q797.8638,1003.2656 798.52,1003.0156 Q798.9106,1002.8594 799.3325,1002.4219 Q799.5981,1002.1563 799.7388,1002.0781 Q799.895,1002 800.0981,1002 Q800.4263,1002 800.6763,1002.2656 Q800.9419,1002.5156 800.9419,1002.8594 Q800.9419,1003.2031 800.5981,1003.6094 Q800.0981,1004.1875 799.3013,1004.5156 Q798.2231,1004.9688 796.9263,1004.9688 Q795.4106,1004.9688 794.2075,1004.3438 Q793.2231,1003.8438 792.5356,1002.7813 Q791.8481,1001.7031 791.8481,1000.4219 L791.8481,999.2656 Q791.8481,997.9375 792.4575,996.7969 Q793.0825,995.6406 794.1763,995.0313 Q795.27,994.4063 796.5044,994.4063 Q797.2388,994.4063 797.8794,994.5781 Q798.5356,994.7344 799.0825,995.0938 Z " fill="#000000"/><text fill="#000000" font-family="sans-serif" font-size="14" lengthAdjust="spacing" textLength="55.248" x="816.8169" y="1004.9473">Payment</text><line style="stroke:#181818;stroke-width:0.5;" x1="716" x2="940.3818" y1="1015.2188" y2="1015.2188"/><text fill="#000000" font-family="sans-serif" font-size="14" lengthAdjust="spacing" textLength="57.5586" x="721" y="1033.752">-id: UUID</text><text fill="#000000" font-family="sans-serif" font-size="14" lengthAdjust="spacing" textLength="146.2891" x="721" y="1051.3613">-receipt_number: String</text><text fill="#000000" font-family="sans-serif" font-size="14" lengthAdjust="spacing" textLength="133.8271" x="721" y="1068.9707">-transaction_id: UUID</text><text fill="#000000" font-family="sans-serif" font-size="14" lengthAdjust="spacing" textLength="175.8682" x="721" y="1086.5801">-payment_channel_id: UUID</text><text fill="#000000" font-family="sans-serif" font-size="14" lengthAdjust="spacing" textLength="157.1924" x="721" y="1104.1895">-payment_method: String</text><text fill="#000000" font-family="sans-serif" font-size="14" lengthAdjust="spacing" textLength="146.3027" x="721" y="1121.7988">-payment_group: String</text><text fill="#000000" font-family="sans-serif" font-size="14" lengthAdjust="spacing" textLength="143.958" x="721" y="1139.4082">-paid_amount: Decimal</text><text fill="#000000" font-family="sans-serif" font-size="14" lengthAdjust="spacing" textLength="87.1445" x="721" y="1157.0176">-image: String</text><text fill="#000000" font-family="sans-serif" font-size="14" lengthAdjust="spacing" textLength="127.6064" x="721" y="1174.627">-paid_at: Timestamp</text><line style="stroke:#181818;stroke-width:1.0;" x1="716" x2="940.3818" y1="1181.7031" y2="1181.7031"/><text fill="#000000" font-family="sans-serif" font-size="14" lengthAdjust="spacing" textLength="214.3818" x="721" y="1200.2363">+generateReceiptNumber(): String</text></g><!--class PaymentChannel--><g id="elem_PaymentChannel"><rect codeLine="209" fill="#F1F1F1" height="206.4844" id="PaymentChannel" rx="2.5" ry="2.5" style="stroke:#181818;stroke-width:0.5;" width="165.3027" x="715.5" y="602.7188"/><ellipse cx="742.1565" cy="618.7188" fill="#ADD1B2" rx="11" ry="11" style="stroke:#181818;stroke-width:1.0;"/><path d="M744.9221,614.5938 Q745.0784,614.375 745.2659,614.2656 Q745.4534,614.1563 745.6721,614.1563 Q746.0471,614.1563 746.2815,614.4219 Q746.5159,614.6719 746.5159,615.2813 L746.5159,616.7344 Q746.5159,617.3438 746.2815,617.6094 Q746.0471,617.875 745.6721,617.875 Q745.3284,617.875 745.1252,617.6719 Q744.9221,617.4844 744.8127,616.9688 Q744.7659,616.6094 744.5784,616.4219 Q744.2502,616.0469 743.6409,615.8281 Q743.0315,615.6094 742.4065,615.6094 Q741.6409,615.6094 741.0002,615.9375 Q740.3752,616.2656 739.8752,617.0156 Q739.3909,617.7656 739.3909,618.7969 L739.3909,619.8906 Q739.3909,621.125 740.2815,621.9531 Q741.1721,622.7656 742.7659,622.7656 Q743.7034,622.7656 744.3596,622.5156 Q744.7502,622.3594 745.1721,621.9219 Q745.4377,621.6563 745.5784,621.5781 Q745.7346,621.5 745.9377,621.5 Q746.2659,621.5 746.5159,621.7656 Q746.7815,622.0156 746.7815,622.3594 Q746.7815,622.7031 746.4377,623.1094 Q745.9377,623.6875 745.1409,624.0156 Q744.0627,624.4688 742.7659,624.4688 Q741.2502,624.4688 740.0471,623.8438 Q739.0627,623.3438 738.3752,622.2813 Q737.6877,621.2031 737.6877,619.9219 L737.6877,618.7656 Q737.6877,617.4375 738.2971,616.2969 Q738.9221,615.1406 740.0159,614.5313 Q741.1096,613.9063 742.344,613.9063 Q743.0784,613.9063 743.719,614.0781 Q744.3752,614.2344 744.9221,614.5938 Z " fill="#000000"/><text fill="#000000" font-family="sans-serif" font-size="14" lengthAdjust="spacing" textLength="107.3994" x="758.7468" y="624.4473">PaymentChannel</text><line style="stroke:#181818;stroke-width:0.5;" x1="716.5" x2="879.8027" y1="634.7188" y2="634.7188"/><text fill="#000000" font-family="sans-serif" font-size="14" lengthAdjust="spacing" textLength="57.5586" x="721.5" y="653.252">-id: UUID</text><text fill="#000000" font-family="sans-serif" font-size="14" lengthAdjust="spacing" textLength="75.4756" x="721.5" y="670.8613">-type: String</text><text fill="#000000" font-family="sans-serif" font-size="14" lengthAdjust="spacing" textLength="84.8203" x="721.5" y="688.4707">-group: String</text><text fill="#000000" font-family="sans-serif" font-size="14" lengthAdjust="spacing" textLength="122.1787" x="721.5" y="706.0801">-bank_name: String</text><text fill="#000000" font-family="sans-serif" font-size="14" lengthAdjust="spacing" textLength="153.3027" x="721.5" y="723.6895">-account_number: String</text><text fill="#000000" font-family="sans-serif" font-size="14" lengthAdjust="spacing" textLength="140.8545" x="721.5" y="741.2988">-account_name: String</text><text fill="#000000" font-family="sans-serif" font-size="14" lengthAdjust="spacing" textLength="117.4893" x="721.5" y="758.9082">-qris_image: String</text><text fill="#000000" font-family="sans-serif" font-size="14" lengthAdjust="spacing" textLength="118.2891" x="721.5" y="776.5176">-is_active: Boolean</text><line style="stroke:#181818;stroke-width:1.0;" x1="716.5" x2="879.8027" y1="783.5938" y2="783.5938"/><text fill="#000000" font-family="sans-serif" font-size="14" lengthAdjust="spacing" textLength="145.1064" x="721.5" y="802.127">+payments(): HasMany</text></g><!--class Shift--><g id="elem_Shift"><rect codeLine="222" fill="#F1F1F1" height="312.1406" id="Shift" rx="2.5" ry="2.5" style="stroke:#181818;stroke-width:0.5;" width="171.8926" x="941" y="107.2188"/><ellipse cx="1008.6895" cy="123.2188" fill="#ADD1B2" rx="11" ry="11" style="stroke:#181818;stroke-width:1.0;"/><path d="M1011.4551,119.0938 Q1011.6113,118.875 1011.7988,118.7656 Q1011.9863,118.6563 1012.2051,118.6563 Q1012.5801,118.6563 1012.8145,118.9219 Q1013.0488,119.1719 1013.0488,119.7813 L1013.0488,121.2344 Q1013.0488,121.8438 1012.8145,122.1094 Q1012.5801,122.375 1012.2051,122.375 Q1011.8613,122.375 1011.6582,122.1719 Q1011.4551,121.9844 1011.3457,121.4688 Q1011.2988,121.1094 1011.1113,120.9219 Q1010.7832,120.5469 1010.1738,120.3281 Q1009.5645,120.1094 1008.9395,120.1094 Q1008.1738,120.1094 1007.5332,120.4375 Q1006.9082,120.7656 1006.4082,121.5156 Q1005.9238,122.2656 1005.9238,123.2969 L1005.9238,124.3906 Q1005.9238,125.625 1006.8145,126.4531 Q1007.7051,127.2656 1009.2988,127.2656 Q1010.2363,127.2656 1010.8926,127.0156 Q1011.2832,126.8594 1011.7051,126.4219 Q1011.9707,126.1563 1012.1113,126.0781 Q1012.2676,126 1012.4707,126 Q1012.7988,126 1013.0488,126.2656 Q1013.3145,126.5156 1013.3145,126.8594 Q1013.3145,127.2031 1012.9707,127.6094 Q1012.4707,128.1875 1011.6738,128.5156 Q1010.5957,128.9688 1009.2988,128.9688 Q1007.7832,128.9688 1006.5801,128.3438 Q1005.5957,127.8438 1004.9082,126.7813 Q1004.2207,125.7031 1004.2207,124.4219 L1004.2207,123.2656 Q1004.2207,121.9375 1004.8301,120.7969 Q1005.4551,119.6406 1006.5488,119.0313 Q1007.6426,118.4063 1008.877,118.4063 Q1009.6113,118.4063 1010.252,118.5781 Q1010.9082,118.7344 1011.4551,119.0938 Z " fill="#000000"/><text fill="#000000" font-family="sans-serif" font-size="14" lengthAdjust="spacing" textLength="28.0137" x="1029.1895" y="128.9473">Shift</text><line style="stroke:#181818;stroke-width:0.5;" x1="942" x2="1111.8926" y1="139.2188" y2="139.2188"/><text fill="#000000" font-family="sans-serif" font-size="14" lengthAdjust="spacing" textLength="57.5586" x="947" y="157.752">-id: UUID</text><text fill="#000000" font-family="sans-serif" font-size="14" lengthAdjust="spacing" textLength="129.9443" x="947" y="175.3613">-shift_number: String</text><text fill="#000000" font-family="sans-serif" font-size="14" lengthAdjust="spacing" textLength="115.9512" x="947" y="192.9707">-opened_by: UUID</text><text fill="#000000" font-family="sans-serif" font-size="14" lengthAdjust="spacing" textLength="109.7031" x="947" y="210.5801">-closed_by: UUID</text><text fill="#000000" font-family="sans-serif" font-size="14" lengthAdjust="spacing" textLength="134.5859" x="947" y="228.1895">-start_time: DateTime</text><text fill="#000000" font-family="sans-serif" font-size="14" lengthAdjust="spacing" textLength="130.7168" x="947" y="245.7988">-end_time: DateTime</text><text fill="#000000" font-family="sans-serif" font-size="14" lengthAdjust="spacing" textLength="86.3652" x="947" y="263.4082">-status: String</text><text fill="#000000" font-family="sans-serif" font-size="14" lengthAdjust="spacing" textLength="132.2686" x="947" y="281.0176">-initial_cash: Decimal</text><text fill="#000000" font-family="sans-serif" font-size="14" lengthAdjust="spacing" textLength="126.0479" x="947" y="298.627">-final_cash: Decimal</text><text fill="#000000" font-family="sans-serif" font-size="14" lengthAdjust="spacing" textLength="129.9375" x="947" y="316.2363">-total_sales: Decimal</text><text fill="#000000" font-family="sans-serif" font-size="14" lengthAdjust="spacing" textLength="143.9512" x="947" y="333.8457">-total_refunds: Decimal</text><text fill="#000000" font-family="sans-serif" font-size="14" lengthAdjust="spacing" textLength="156.3994" x="947" y="351.4551">-total_discounts: Decimal</text><line style="stroke:#181818;stroke-width:1.0;" x1="942" x2="1111.8926" y1="358.5313" y2="358.5313"/><text fill="#000000" font-family="sans-serif" font-size="14" lengthAdjust="spacing" textLength="155.2646" x="947" y="377.0645">+openedBy(): BelongsTo</text><text fill="#000000" font-family="sans-serif" font-size="14" lengthAdjust="spacing" textLength="149.0166" x="947" y="394.6738">+closedBy(): BelongsTo</text><text fill="#000000" font-family="sans-serif" font-size="14" lengthAdjust="spacing" textLength="159.8926" x="947" y="412.2832">+transactions(): HasMany</text></g><!--link User to Role--><g id="link_User_Role"><path codeLine="246" d="M194.5,428.3088 C194.5,496.9488 194.5,573.3188 194.5,628.5188 " fill="none" id="User-Role" style="stroke:#181818;stroke-width:1.0;"/><text fill="#000000" font-family="sans-serif" font-size="13" lengthAdjust="spacing" textLength="20.96" x="173.5" y="524.9039">has</text><text fill="#000000" font-family="sans-serif" font-size="13" lengthAdjust="spacing" textLength="7.23" x="183.3003" y="449.6606">1</text><text fill="#000000" font-family="sans-serif" font-size="13" lengthAdjust="spacing" textLength="5.0591" x="195.5011" y="617.9264">*</text></g><!--link Role to Permission--><g id="link_Role_Permission"><path codeLine="247" d="M129,783.1388 C129,857.5688 129,968.4588 129,1036.0688 " fill="none" id="Role-Permission" style="stroke:#181818;stroke-width:1.0;"/><text fill="#000000" font-family="sans-serif" font-size="13" lengthAdjust="spacing" textLength="20.96" x="108" y="906.0939">has</text><text fill="#000000" font-family="sans-serif" font-size="13" lengthAdjust="spacing" textLength="7.23" x="121.7141" y="803.7365">1</text><text fill="#000000" font-family="sans-serif" font-size="13" lengthAdjust="spacing" textLength="5.0591" x="123.7118" y="1025.3747">*</text></g><!--link User to Notification--><g id="link_User_Notification"><path codeLine="248" d="M342.75,428.3088 C342.75,489.9488 342.75,557.8288 342.75,611.0088 " fill="none" id="User-Notification" style="stroke:#181818;stroke-width:1.0;"/><text fill="#000000" font-family="sans-serif" font-size="13" lengthAdjust="spacing" textLength="7.23" x="338.2679" y="449.6606">1</text><text fill="#000000" font-family="sans-serif" font-size="13" lengthAdjust="spacing" textLength="5.0591" x="337.538" y="600.3382">*</text></g><!--link Customer to Transaction--><g id="link_Customer_Transaction"><path codeLine="250" d="M611.25,783.0888 C611.25,816.1288 611.25,847.2188 611.25,847.2188 C611.25,847.2188 792.17,847.2188 915.31,847.2188 " fill="none" id="Customer-Transaction" style="stroke:#181818;stroke-width:1.0;"/><text fill="#000000" font-family="sans-serif" font-size="13" lengthAdjust="spacing" textLength="7.23" x="607.9241" y="803.9502">1</text><text fill="#000000" font-family="sans-serif" font-size="13" lengthAdjust="spacing" textLength="5.0591" x="902.2735" y="854.0987">*</text></g><!--link Customer to PointsHistory--><g id="link_Customer_PointsHistory"><path codeLine="251" d="M524.75,783.1388 C524.75,843.0387 524.75,926.5487 524.75,992.1088 " fill="none" id="Customer-PointsHistory" style="stroke:#181818;stroke-width:1.0;"/><text fill="#000000" font-family="sans-serif" font-size="13" lengthAdjust="spacing" textLength="7.23" x="514.1272" y="803.7365">1</text><text fill="#000000" font-family="sans-serif" font-size="13" lengthAdjust="spacing" textLength="5.0591" x="516.4037" y="981.4393">*</text></g><!--link Transaction to PointsHistory--><g id="link_Transaction_PointsHistory"><path codeLine="252" d="M915.3,885.2188 C779.44,885.2188 568,885.2188 568,885.2188 C568,885.2188 568,938.9588 568,992.0688 " fill="none" id="Transaction-PointsHistory" style="stroke:#181818;stroke-width:1.0;"/><text fill="#000000" font-family="sans-serif" font-size="13" lengthAdjust="spacing" textLength="7.23" x="900.1985" y="894.7705">1</text><text fill="#000000" font-family="sans-serif" font-size="13" lengthAdjust="spacing" textLength="5.0591" x="562.8299" y="981.3964">*</text></g><!--link Category to ProductCategory--><g id="link_Category_ProductCategory"><path codeLine="254" d="M2010.5,774.0088 C2010.5,852.8788 2010.5,980.5088 2010.5,1048.7188 " fill="none" id="Category-ProductCategory" style="stroke:#181818;stroke-width:1.0;"/><text fill="#000000" font-family="sans-serif" font-size="13" lengthAdjust="spacing" textLength="7.23" x="1997.9529" y="795.387">1</text><text fill="#000000" font-family="sans-serif" font-size="13" lengthAdjust="spacing" textLength="5.0591" x="2007.1847" y="1037.9086">*</text></g><!--link Product to ProductCategory--><g id="link_Product_ProductCategory"><path codeLine="255" d="M1721.4,818.2188 C1814.66,818.2188 1942,818.2188 1942,818.2188 C1942,818.2188 1942,969.5988 1942,1048.5388 " fill="none" id="Product-ProductCategory" style="stroke:#181818;stroke-width:1.0;"/><text fill="#000000" font-family="sans-serif" font-size="13" lengthAdjust="spacing" textLength="7.23" x="1729.0515" y="823.7227">1</text><text fill="#000000" font-family="sans-serif" font-size="13" lengthAdjust="spacing" textLength="5.0591" x="1928.1956" y="1037.7011">*</text></g><!--link Product to TransactionDetail--><g id="link_Product_TransactionDetail"><path codeLine="256" d="M1528.84,844.2188 C1393.26,844.2188 1162.25,844.2188 1162.25,844.2188 C1162.25,844.2188 1162.25,922.8087 1162.25,992.0387 " fill="none" id="Product-TransactionDetail" style="stroke:#181818;stroke-width:1.0;"/><text fill="#000000" font-family="sans-serif" font-size="13" lengthAdjust="spacing" textLength="7.23" x="1513.9014" y="852.1215">1</text><text fill="#000000" font-family="sans-serif" font-size="13" lengthAdjust="spacing" textLength="5.0591" x="1163.0481" y="981.3642">*</text></g><!--link Product to OtherCost--><g id="link_Product_OtherCost"><path codeLine="257" d="M1664.75,861.8988 C1664.75,915.6588 1664.75,973.4988 1664.75,1018.1388 " fill="none" id="Product-OtherCost" style="stroke:#181818;stroke-width:1.0;"/><text fill="#000000" font-family="sans-serif" font-size="13" lengthAdjust="spacing" textLength="7.23" x="1659.5077" y="883.3514">1</text><text fill="#000000" font-family="sans-serif" font-size="13" lengthAdjust="spacing" textLength="5.0591" x="1657.1956" y="1007.293">*</text></g><!--link TypeCost to OtherCost--><g id="link_TypeCost_OtherCost"><path codeLine="258" d="M1761.75,756.2388 C1761.75,822.7288 1761.75,940.2288 1761.75,1017.9288 " fill="none" id="TypeCost-OtherCost" style="stroke:#181818;stroke-width:1.0;"/><text fill="#000000" font-family="sans-serif" font-size="13" lengthAdjust="spacing" textLength="7.23" x="1744.0419" y="777.6327">1</text><text fill="#000000" font-family="sans-serif" font-size="13" lengthAdjust="spacing" textLength="5.0591" x="1763.522" y="1007.3278">*</text></g><!--link Unit to Unit--><g id="link_Unit_Unit"><path codeLine="259" d="M1359,602.4288 C1359,587.0388 1359,576.2188 1359,576.2188 C1359,576.2188 1502.25,576.2188 1502.25,576.2188 C1502.25,576.2188 1502.25,827.2188 1502.25,827.2188 C1502.25,827.2188 1359,827.2188 1359,827.2188 C1359,827.2188 1359,819.8588 1359,808.7688 " fill="none" id="Unit-Unit" style="stroke:#181818;stroke-width:1.0;"/><text fill="#000000" font-family="sans-serif" font-size="13" lengthAdjust="spacing" textLength="56.3799" x="1474.25" y="717.3339">base_unit</text><text fill="#000000" font-family="sans-serif" font-size="13" lengthAdjust="spacing" textLength="21.6836" x="1337.2689" y="591.7461">0..1</text><text fill="#000000" font-family="sans-serif" font-size="13" lengthAdjust="spacing" textLength="5.0591" x="1353.8263" y="830.761">*</text></g><!--link User to Transaction--><g id="link_User_Transaction"><path codeLine="261" d="M414.76,424.2188 C603.07,424.2188 928.25,424.2188 928.25,424.2188 C928.25,424.2188 928.25,451.0287 928.25,488.0988 " fill="none" id="User-Transaction" style="stroke:#181818;stroke-width:1.0;"/><text fill="#000000" font-family="sans-serif" font-size="13" lengthAdjust="spacing" textLength="7.23" x="422.1197" y="430.0975">1</text><text fill="#000000" font-family="sans-serif" font-size="13" lengthAdjust="spacing" textLength="5.0591" x="919.6075" y="477.4847">*</text></g><!--link Transaction to TransactionDetail--><g id="link_Transaction_TransactionDetail"><path codeLine="262" d="M1057.25,923.2488 C1057.25,947.1188 1057.25,970.5288 1057.25,992.0188 " fill="none" id="Transaction-TransactionDetail" style="stroke:#181818;stroke-width:1.0;"/><text fill="#000000" font-family="sans-serif" font-size="13" lengthAdjust="spacing" textLength="7.23" x="1051.2106" y="944.8479">1</text><text fill="#000000" font-family="sans-serif" font-size="13" lengthAdjust="spacing" textLength="5.0591" x="1050.3371" y="981.3427">*</text></g><!--link Transaction to Payment--><g id="link_Transaction_Payment"><path codeLine="263" d="M928.25,923.2488 C928.25,943.8087 928.25,964.0288 928.25,982.9688 " fill="none" id="Transaction-Payment" style="stroke:#181818;stroke-width:1.0;"/><text fill="#000000" font-family="sans-serif" font-size="13" lengthAdjust="spacing" textLength="7.23" x="917.5746" y="944.8479">1</text><text fill="#000000" font-family="sans-serif" font-size="13" lengthAdjust="spacing" textLength="5.0591" x="929.8067" y="972.3932">*</text></g><!--link Shift to Transaction--><g id="link_Shift_Transaction"><path codeLine="264" d="M1027,419.2288 C1027,441.4988 1027,464.7388 1027,487.9188 " fill="none" id="Shift-Transaction" style="stroke:#181818;stroke-width:1.0;"/><text fill="#000000" font-family="sans-serif" font-size="13" lengthAdjust="spacing" textLength="7.23" x="1019.8386" y="440.6732">1</text><text fill="#000000" font-family="sans-serif" font-size="13" lengthAdjust="spacing" textLength="5.0591" x="1021.9063" y="477.2982">*</text></g><!--link PaymentChannel to Payment--><g id="link_PaymentChannel_Payment"><path codeLine="265" d="M798,808.8188 C798,862.4588 798,928.1188 798,983.0288 " fill="none" id="PaymentChannel-Payment" style="stroke:#181818;stroke-width:1.0;"/><text fill="#000000" font-family="sans-serif" font-size="13" lengthAdjust="spacing" textLength="7.23" x="790.7292" y="830.8149">1</text><text fill="#000000" font-family="sans-serif" font-size="13" lengthAdjust="spacing" textLength="5.0591" x="790.8056" y="972.4573">*</text></g><!--SRC=[jLZTRzis47_NNq5um9OkIz6y6jY3yx7LQ-C4iRDXm03X8Z4IOObKISgjE-H_tv6oPSeYPSV0_104lEFfFdztHxLal0899KaAK6gYjMJFjQRJHF0v-qx9XqYrB0NZLAyhIeJKkOXobb92oqglIKdBPofL56cc2qgkZInomo0prox8b2UIbfHhSlaFlnDfNU2HPkI-eX8K4noAAFg9_7hq3va_tNwUpCbqjfYIi-di-l7sxdQs89VltYOdgY1PGaR9Q89MeqvBr8VyI1uepxAQmuZyy9bbkRugQah-ZGZ-hAF8aw9oSs1-5omTawUdwStkX4D9nsIE3kNPxfIMm8h-SPKBxk6ky5DVXKpx55QYrltZZFAKIW-xYY7HR8LNheGeA727nbTCWyOmn5eiAVVStd4eT58CUamMhAHAGrdjsEmNGDCqn73H_dkESj9fA_RitPYi14jtzAsilvZE7pPUEDkweyUTW_eJ2kP8N1XBZDXzSy-roBA2Jgmt-jzbd6a6XJ8KnmslaHFxHvIu7_ihbc5AqupAGncGrI3Js4yhuLjSOsQfCUb9Svo7PLCoPGh7wdb52y4pjH1tmDSxBYl8J- -Oyz1A-t-CSXINwBbZL9e9pLvOOYCvN6N6oBX_R778ur-gbAsR1Vsc7Mu4DM_DI0gffs9Iq30cVyplPruhIv3BYNh4kvtyUerU7Rnve0KWnW3VGiplabBUmPZhMcbH7iAP07JuOr49nZLcrmrD444Ah_fQ0bUc_ZRfzH5KDx4Q8HyPQYSPxV5qaylXNPzaYAEE9z0EOVzYGmhxe9VQ0KnrN9Di8j99OQ_d-XnxuPVO1fVOQJuXo6NensqQ_4sBGdpjva73iZwbtmm1luieHfr43y79XcMZpC6uDzodg9nIbKXM1O8dMK8z-OjnIPQUyvBYg9Bk5-l6bZWGSLlv2QkytNAeazfxeYnD5_O1Hm8LzgV2esULAFzf7BxZn2-ZUhB2oGAU2pethZ31sK_mSw5pAg-5qaV5xhYqQrtPeoIR-rrIvqiB15wZpobfSl5ck-wtRATQPFf4dA20s7VBdvZz8Wk1nyONFkHm1qySK4vn5uv7e3oDMugwwXy_Ww9nZP_onLNm5KuM1dPVi1I47BRQY39A1ynESbQaifdLUfsc-PHUY3CD4dFSoFc5h02dSMJ_hH2WFTYwi32yL2scFZ2-x23gOWVK9uqNspxW8U6iB30JObwRbUZelkplVJXec9p2l-veOmIOwTf5Fv0wzd4Z4ddFkT2zCQY2jLdIOfIcQq-kXCwt6Dlht09nAuPIr5pxmCtsOJFlffvclA6cJ2M1-uruILzgddh8k7BQNUHv7QkSlUZzG7NGa-CYYbjl4xkP3TtU1c0PKweHP0DJKUEzOGXo4k_6oXfEl-7P9mnKNsh0NLQlqGBqIT5tRW2i6cV61w_lsbAiE5Gg5_hecJA00q5mxBQcnid3NiCUJ75-29RW0QzkgY39WNDQ3724ydvB3s1h1ImDLqLW96ak7LohjvdysBZ0cya-XrutnXx8Hk-Q5EmWV1bO226n9HsCJqlttluYSSmA3sv7JRl7bEhSWCQmGook1CqG5GR3u4-lUnH2UGaDZ3S0R-2w2_86oaEq43HldZEmMbNkIRONniF41byLuCf-07t3z2ry7rWv6rTThKCpWdLOa3oqiDh9u8rFYu_cQN7wneT4-o0ukXoXNMJqywXv91gJ75Ha_tL8peDBmx1_rtt-YABs6S3XSFg8bzvPkoDtt0aoHUsyxx9qLu5ekzQzZQNNzNnCxNGUjLk1bse7uD67z-ztH7iq9ktGse-6ww-0D_fAXjpMe4VK04JW8tkuwhd-7m00]--></g></svg>