<svg xmlns="http://www.w3.org/2000/svg" xmlns:xlink="http://www.w3.org/1999/xlink" contentStyleType="text/css" height="1635px" preserveAspectRatio="none" style="width:1359px;height:1635px;background:#FFFFFF;" version="1.1" viewBox="0 0 1359 1635" width="1359px" zoomAndPan="magnify"><title>Sequence Diagram: Transaksi Siap Beli</title><defs/><g><text fill="#000000" font-family="sans-serif" font-size="14" font-weight="bold" lengthAdjust="spacing" textLength="262.9922" x="549.8428" y="29.5332">Sequence Diagram: Transaksi Siap Beli</text><rect fill="#FFFFFF" height="228.8125" style="stroke:#181818;stroke-width:1.0;" width="10" x="231.9253" y="153.5703"/><rect fill="#FFFFFF" height="1153.4922" style="stroke:#181818;stroke-width:1.0;" width="10" x="409.6211" y="382.3828"/><rect fill="#FFFFFF" height="194.1094" style="stroke:#181818;stroke-width:1.0;" width="10" x="747.4282" y="1080.6016"/><rect fill="#FFFFFF" height="60.7031" style="stroke:#181818;stroke-width:1.0;" width="10" x="931.0171" y="1330.4141"/><rect fill="#FFFFFF" height="60.7031" style="stroke:#181818;stroke-width:1.0;" width="10" x="1033.6099" y="1421.4688"/><rect fill="none" height="287.6484" style="stroke:#000000;stroke-width:1.5;" width="539.0537" x="10" y="549.1406"/><rect fill="none" height="151.2422" style="stroke:#000000;stroke-width:1.5;" width="515.3428" x="20" y="678.5469"/><rect fill="none" height="170.1094" style="stroke:#000000;stroke-width:1.5;" width="1333.6777" x="20" y="850.7891"/><rect fill="none" height="200.4609" style="stroke:#000000;stroke-width:1.5;" width="1045.5527" x="308.125" y="1289.7109"/><line style="stroke:#181818;stroke-width:0.5;stroke-dasharray:5.0,5.0;" x1="48" x2="48" y1="121.2188" y2="1553.875"/><line style="stroke:#181818;stroke-width:0.5;stroke-dasharray:5.0,5.0;" x1="236.7256" x2="236.7256" y1="121.2188" y2="1553.875"/><line style="stroke:#181818;stroke-width:0.5;stroke-dasharray:5.0,5.0;" x1="414.125" x2="414.125" y1="121.2188" y2="1553.875"/><line style="stroke:#181818;stroke-width:0.5;stroke-dasharray:5.0,5.0;" x1="751.856" x2="751.856" y1="121.2188" y2="1553.875"/><line style="stroke:#181818;stroke-width:0.5;stroke-dasharray:5.0,5.0;" x1="935.5483" x2="935.5483" y1="121.2188" y2="1553.875"/><line style="stroke:#181818;stroke-width:0.5;stroke-dasharray:5.0,5.0;" x1="1038.4858" x2="1038.4858" y1="121.2188" y2="1553.875"/><line style="stroke:#181818;stroke-width:0.5;stroke-dasharray:5.0,5.0;" x1="1116.7339" x2="1116.7339" y1="121.2188" y2="1553.875"/><line style="stroke:#181818;stroke-width:0.5;stroke-dasharray:5.0,5.0;" x1="1309.7471" x2="1309.7471" y1="121.2188" y2="1553.875"/><text fill="#000000" font-family="sans-serif" font-size="14" lengthAdjust="spacing" textLength="31.8965" x="30" y="118.1426">Kasir</text><ellipse cx="48.9482" cy="52.1094" fill="#E2E2F0" rx="8" ry="8" style="stroke:#181818;stroke-width:0.5;"/><path d="M48.9482,60.1094 L48.9482,87.1094 M35.9482,68.1094 L61.9482,68.1094 M48.9482,87.1094 L35.9482,102.1094 M48.9482,87.1094 L61.9482,102.1094 " fill="none" style="stroke:#181818;stroke-width:0.5;"/><text fill="#000000" font-family="sans-serif" font-size="14" lengthAdjust="spacing" textLength="31.8965" x="30" y="1567.4082">Kasir</text><ellipse cx="48.9482" cy="1578.9844" fill="#E2E2F0" rx="8" ry="8" style="stroke:#181818;stroke-width:0.5;"/><path d="M48.9482,1586.9844 L48.9482,1613.9844 M35.9482,1594.9844 L61.9482,1594.9844 M48.9482,1613.9844 L35.9482,1628.9844 M48.9482,1613.9844 L61.9482,1628.9844 " fill="none" style="stroke:#181818;stroke-width:0.5;"/><rect fill="#E2E2F0" height="49.2188" rx="2.5" ry="2.5" style="stroke:#181818;stroke-width:0.5;" width="142.3994" x="165.7256" y="71"/><text fill="#000000" font-family="sans-serif" font-size="14" lengthAdjust="spacing" textLength="128.3994" x="172.7256" y="92.5332">Transaction/SiapBeli</text><text fill="#000000" font-family="sans-serif" font-size="14" lengthAdjust="spacing" textLength="60.6758" x="206.5874" y="110.1426">(Livewire)</text><rect fill="#E2E2F0" height="49.2188" rx="2.5" ry="2.5" style="stroke:#181818;stroke-width:0.5;" width="142.3994" x="165.7256" y="1552.875"/><text fill="#000000" font-family="sans-serif" font-size="14" lengthAdjust="spacing" textLength="128.3994" x="172.7256" y="1574.4082">Transaction/SiapBeli</text><text fill="#000000" font-family="sans-serif" font-size="14" lengthAdjust="spacing" textLength="60.6758" x="206.5874" y="1592.0176">(Livewire)</text><rect fill="#E2E2F0" height="49.2188" rx="2.5" ry="2.5" style="stroke:#181818;stroke-width:0.5;" width="192.9922" x="318.125" y="71"/><text fill="#000000" font-family="sans-serif" font-size="14" lengthAdjust="spacing" textLength="178.9922" x="325.125" y="92.5332">Transaction/TanggalSiapBeli</text><text fill="#000000" font-family="sans-serif" font-size="14" lengthAdjust="spacing" textLength="60.6758" x="384.2832" y="110.1426">(Livewire)</text><rect fill="#E2E2F0" height="49.2188" rx="2.5" ry="2.5" style="stroke:#181818;stroke-width:0.5;" width="192.9922" x="318.125" y="1552.875"/><text fill="#000000" font-family="sans-serif" font-size="14" lengthAdjust="spacing" textLength="178.9922" x="325.125" y="1574.4082">Transaction/TanggalSiapBeli</text><text fill="#000000" font-family="sans-serif" font-size="14" lengthAdjust="spacing" textLength="60.6758" x="384.2832" y="1592.0176">(Livewire)</text><rect fill="#E2E2F0" height="49.2188" rx="2.5" ry="2.5" style="stroke:#181818;stroke-width:0.5;" width="87.1445" x="708.856" y="71"/><text fill="#000000" font-family="sans-serif" font-size="14" lengthAdjust="spacing" textLength="73.1445" x="715.856" y="92.5332">Transaction</text><text fill="#000000" font-family="sans-serif" font-size="14" lengthAdjust="spacing" textLength="47.4551" x="728.7007" y="110.1426">(Model)</text><rect fill="#E2E2F0" height="49.2188" rx="2.5" ry="2.5" style="stroke:#181818;stroke-width:0.5;" width="87.1445" x="708.856" y="1552.875"/><text fill="#000000" font-family="sans-serif" font-size="14" lengthAdjust="spacing" textLength="73.1445" x="715.856" y="1574.4082">Transaction</text><text fill="#000000" font-family="sans-serif" font-size="14" lengthAdjust="spacing" textLength="47.4551" x="728.7007" y="1592.0176">(Model)</text><rect fill="#E2E2F0" height="49.2188" rx="2.5" ry="2.5" style="stroke:#181818;stroke-width:0.5;" width="122.9375" x="874.5483" y="71"/><text fill="#000000" font-family="sans-serif" font-size="14" lengthAdjust="spacing" textLength="108.9375" x="881.5483" y="92.5332">TransactionDetail</text><text fill="#000000" font-family="sans-serif" font-size="14" lengthAdjust="spacing" textLength="47.4551" x="912.2896" y="110.1426">(Model)</text><rect fill="#E2E2F0" height="49.2188" rx="2.5" ry="2.5" style="stroke:#181818;stroke-width:0.5;" width="122.9375" x="874.5483" y="1552.875"/><text fill="#000000" font-family="sans-serif" font-size="14" lengthAdjust="spacing" textLength="108.9375" x="881.5483" y="1574.4082">TransactionDetail</text><text fill="#000000" font-family="sans-serif" font-size="14" lengthAdjust="spacing" textLength="47.4551" x="912.2896" y="1592.0176">(Model)</text><rect fill="#E2E2F0" height="49.2188" rx="2.5" ry="2.5" style="stroke:#181818;stroke-width:0.5;" width="62.248" x="1007.4858" y="71"/><text fill="#000000" font-family="sans-serif" font-size="14" lengthAdjust="spacing" textLength="48.248" x="1014.4858" y="92.5332">Product</text><text fill="#000000" font-family="sans-serif" font-size="14" lengthAdjust="spacing" textLength="47.4551" x="1014.8823" y="110.1426">(Model)</text><rect fill="#E2E2F0" height="49.2188" rx="2.5" ry="2.5" style="stroke:#181818;stroke-width:0.5;" width="62.248" x="1007.4858" y="1552.875"/><text fill="#000000" font-family="sans-serif" font-size="14" lengthAdjust="spacing" textLength="48.248" x="1014.4858" y="1574.4082">Product</text><text fill="#000000" font-family="sans-serif" font-size="14" lengthAdjust="spacing" textLength="47.4551" x="1014.8823" y="1592.0176">(Model)</text><rect fill="#E2E2F0" height="49.2188" rx="2.5" ry="2.5" style="stroke:#181818;stroke-width:0.5;" width="74.6826" x="1079.7339" y="71"/><text fill="#000000" font-family="sans-serif" font-size="14" lengthAdjust="spacing" textLength="60.6826" x="1086.7339" y="92.5332">Customer</text><text fill="#000000" font-family="sans-serif" font-size="14" lengthAdjust="spacing" textLength="47.4551" x="1093.3477" y="110.1426">(Model)</text><rect fill="#E2E2F0" height="49.2188" rx="2.5" ry="2.5" style="stroke:#181818;stroke-width:0.5;" width="74.6826" x="1079.7339" y="1552.875"/><text fill="#000000" font-family="sans-serif" font-size="14" lengthAdjust="spacing" textLength="60.6826" x="1086.7339" y="1574.4082">Customer</text><text fill="#000000" font-family="sans-serif" font-size="14" lengthAdjust="spacing" textLength="47.4551" x="1093.3477" y="1592.0176">(Model)</text><text fill="#000000" font-family="sans-serif" font-size="14" lengthAdjust="spacing" textLength="59.9307" x="1277.7471" y="118.1426">Database</text><path d="M1292.7124,67.6094 C1292.7124,57.6094 1310.7124,57.6094 1310.7124,57.6094 C1310.7124,57.6094 1328.7124,57.6094 1328.7124,67.6094 L1328.7124,93.6094 C1328.7124,103.6094 1310.7124,103.6094 1310.7124,103.6094 C1310.7124,103.6094 1292.7124,103.6094 1292.7124,93.6094 L1292.7124,67.6094 " fill="#E2E2F0" style="stroke:#181818;stroke-width:1.5;"/><path d="M1292.7124,67.6094 C1292.7124,77.6094 1310.7124,77.6094 1310.7124,77.6094 C1310.7124,77.6094 1328.7124,77.6094 1328.7124,67.6094 " fill="none" style="stroke:#181818;stroke-width:1.5;"/><text fill="#000000" font-family="sans-serif" font-size="14" lengthAdjust="spacing" textLength="59.9307" x="1277.7471" y="1567.4082">Database</text><path d="M1292.7124,1580.4844 C1292.7124,1570.4844 1310.7124,1570.4844 1310.7124,1570.4844 C1310.7124,1570.4844 1328.7124,1570.4844 1328.7124,1580.4844 L1328.7124,1606.4844 C1328.7124,1616.4844 1310.7124,1616.4844 1310.7124,1616.4844 C1310.7124,1616.4844 1292.7124,1616.4844 1292.7124,1606.4844 L1292.7124,1580.4844 " fill="#E2E2F0" style="stroke:#181818;stroke-width:1.5;"/><path d="M1292.7124,1580.4844 C1292.7124,1590.4844 1310.7124,1590.4844 1310.7124,1590.4844 C1310.7124,1590.4844 1328.7124,1590.4844 1328.7124,1580.4844 " fill="none" style="stroke:#181818;stroke-width:1.5;"/><rect fill="#FFFFFF" height="228.8125" style="stroke:#181818;stroke-width:1.0;" width="10" x="231.9253" y="153.5703"/><rect fill="#FFFFFF" height="1153.4922" style="stroke:#181818;stroke-width:1.0;" width="10" x="409.6211" y="382.3828"/><rect fill="#FFFFFF" height="194.1094" style="stroke:#181818;stroke-width:1.0;" width="10" x="747.4282" y="1080.6016"/><rect fill="#FFFFFF" height="60.7031" style="stroke:#181818;stroke-width:1.0;" width="10" x="931.0171" y="1330.4141"/><rect fill="#FFFFFF" height="60.7031" style="stroke:#181818;stroke-width:1.0;" width="10" x="1033.6099" y="1421.4688"/><polygon fill="#181818" points="219.9253,149.5703,229.9253,153.5703,219.9253,157.5703,223.9253,153.5703" style="stroke:#181818;stroke-width:1.0;"/><line style="stroke:#181818;stroke-width:1.0;" x1="48.9482" x2="225.9253" y1="153.5703" y2="153.5703"/><text fill="#000000" font-family="sans-serif" font-size="13" lengthAdjust="spacing" textLength="140.188" x="55.9482" y="148.7139">Akses halaman siap beli</text><polygon fill="#181818" points="1026.6099,196.2734,1036.6099,200.2734,1026.6099,204.2734,1030.6099,200.2734" style="stroke:#181818;stroke-width:1.0;"/><line style="stroke:#181818;stroke-width:1.0;" x1="241.9253" x2="1032.6099" y1="200.2734" y2="200.2734"/><text fill="#000000" font-family="sans-serif" font-size="13" lengthAdjust="spacing" textLength="96.4526" x="248.9253" y="179.0654">where(stock &gt; 0)</text><text fill="#000000" font-family="sans-serif" font-size="13" lengthAdjust="spacing" textLength="150.3188" x="248.9253" y="195.417">groupBy(production_date)</text><polygon fill="#181818" points="1298.7124,226.625,1308.7124,230.625,1298.7124,234.625,1302.7124,230.625" style="stroke:#181818;stroke-width:1.0;"/><line style="stroke:#181818;stroke-width:1.0;" x1="1038.6099" x2="1304.7124" y1="230.625" y2="230.625"/><text fill="#000000" font-family="sans-serif" font-size="13" lengthAdjust="spacing" textLength="154.5972" x="1045.6099" y="225.7686">SELECT * FROM products</text><polygon fill="#181818" points="1049.6099,256.9766,1039.6099,260.9766,1049.6099,264.9766,1045.6099,260.9766" style="stroke:#181818;stroke-width:1.0;"/><line style="stroke:#181818;stroke-width:1.0;stroke-dasharray:2.0,2.0;" x1="1043.6099" x2="1309.7124" y1="260.9766" y2="260.9766"/><text fill="#000000" font-family="sans-serif" font-size="13" lengthAdjust="spacing" textLength="147.437" x="1055.6099" y="256.1201">products grouped by date</text><polygon fill="#181818" points="252.9253,287.3281,242.9253,291.3281,252.9253,295.3281,248.9253,291.3281" style="stroke:#181818;stroke-width:1.0;"/><line style="stroke:#181818;stroke-width:1.0;stroke-dasharray:2.0,2.0;" x1="246.9253" x2="1037.6099" y1="291.3281" y2="291.3281"/><text fill="#000000" font-family="sans-serif" font-size="13" lengthAdjust="spacing" textLength="152.4834" x="258.9253" y="286.4717">Available products by date</text><polygon fill="#181818" points="59.9482,317.6797,49.9482,321.6797,59.9482,325.6797,55.9482,321.6797" style="stroke:#181818;stroke-width:1.0;"/><line style="stroke:#181818;stroke-width:1.0;stroke-dasharray:2.0,2.0;" x1="53.9482" x2="230.9253" y1="321.6797" y2="321.6797"/><text fill="#000000" font-family="sans-serif" font-size="13" lengthAdjust="spacing" textLength="158.9771" x="65.9482" y="316.8232">Tampilkan tanggal produksi</text><polygon fill="#181818" points="219.9253,348.0313,229.9253,352.0313,219.9253,356.0313,223.9253,352.0313" style="stroke:#181818;stroke-width:1.0;"/><line style="stroke:#181818;stroke-width:1.0;" x1="48.9482" x2="225.9253" y1="352.0313" y2="352.0313"/><text fill="#000000" font-family="sans-serif" font-size="13" lengthAdjust="spacing" textLength="123.5762" x="55.9482" y="347.1748">Pilih tanggal produksi</text><polygon fill="#181818" points="397.6211,378.3828,407.6211,382.3828,397.6211,386.3828,401.6211,382.3828" style="stroke:#181818;stroke-width:1.0;"/><line style="stroke:#181818;stroke-width:1.0;" x1="236.9253" x2="403.6211" y1="382.3828" y2="382.3828"/><text fill="#000000" font-family="sans-serif" font-size="13" lengthAdjust="spacing" textLength="77.3081" x="243.9253" y="377.5264">redirect(date)</text><polygon fill="#181818" points="1026.6099,408.7344,1036.6099,412.7344,1026.6099,416.7344,1030.6099,412.7344" style="stroke:#181818;stroke-width:1.0;"/><line style="stroke:#181818;stroke-width:1.0;" x1="419.6211" x2="1032.6099" y1="412.7344" y2="412.7344"/><text fill="#000000" font-family="sans-serif" font-size="13" lengthAdjust="spacing" textLength="196.917" x="426.6211" y="407.8779">where(production_date, stock &gt; 0)</text><polygon fill="#181818" points="1298.7124,439.0859,1308.7124,443.0859,1298.7124,447.0859,1302.7124,443.0859" style="stroke:#181818;stroke-width:1.0;"/><line style="stroke:#181818;stroke-width:1.0;" x1="1038.6099" x2="1304.7124" y1="443.0859" y2="443.0859"/><text fill="#000000" font-family="sans-serif" font-size="13" lengthAdjust="spacing" textLength="154.5972" x="1045.6099" y="438.2295">SELECT * FROM products</text><polygon fill="#181818" points="1049.6099,469.4375,1039.6099,473.4375,1049.6099,477.4375,1045.6099,473.4375" style="stroke:#181818;stroke-width:1.0;"/><line style="stroke:#181818;stroke-width:1.0;stroke-dasharray:2.0,2.0;" x1="1043.6099" x2="1309.7124" y1="473.4375" y2="473.4375"/><text fill="#000000" font-family="sans-serif" font-size="13" lengthAdjust="spacing" textLength="104.7871" x="1055.6099" y="468.5811">available products</text><polygon fill="#181818" points="430.6211,499.7891,420.6211,503.7891,430.6211,507.7891,426.6211,503.7891" style="stroke:#181818;stroke-width:1.0;"/><line style="stroke:#181818;stroke-width:1.0;stroke-dasharray:2.0,2.0;" x1="424.6211" x2="1037.6099" y1="503.7891" y2="503.7891"/><text fill="#000000" font-family="sans-serif" font-size="13" lengthAdjust="spacing" textLength="51.3018" x="436.6211" y="498.9326">Products</text><polygon fill="#181818" points="59.9482,530.1406,49.9482,534.1406,59.9482,538.1406,55.9482,534.1406" style="stroke:#181818;stroke-width:1.0;"/><line style="stroke:#181818;stroke-width:1.0;stroke-dasharray:2.0,2.0;" x1="53.9482" x2="408.6211" y1="534.1406" y2="534.1406"/><text fill="#000000" font-family="sans-serif" font-size="13" lengthAdjust="spacing" textLength="153.188" x="65.9482" y="529.2842">Tampilkan produk tersedia</text><path d="M10,549.1406 L82.4346,549.1406 L82.4346,557.4922 L72.4346,567.4922 L10,567.4922 L10,549.1406 " fill="#EEEEEE" style="stroke:#000000;stroke-width:1.5;"/><rect fill="none" height="287.6484" style="stroke:#000000;stroke-width:1.5;" width="539.0537" x="10" y="549.1406"/><text fill="#000000" font-family="sans-serif" font-size="13" font-weight="bold" lengthAdjust="spacing" textLength="27.4346" x="25" y="563.6357">loop</text><text fill="#000000" font-family="sans-serif" font-size="11" font-weight="bold" lengthAdjust="spacing" textLength="70.8823" x="97.4346" y="562.5596">[Pilih produk]</text><polygon fill="#181818" points="397.6211,585.8438,407.6211,589.8438,397.6211,593.8438,401.6211,589.8438" style="stroke:#181818;stroke-width:1.0;"/><line style="stroke:#181818;stroke-width:1.0;" x1="48.9482" x2="403.6211" y1="589.8438" y2="589.8438"/><text fill="#000000" font-family="sans-serif" font-size="13" lengthAdjust="spacing" textLength="67.9263" x="55.9482" y="584.9873">Pilih produk</text><polygon fill="#181818" points="397.6211,616.1953,407.6211,620.1953,397.6211,624.1953,401.6211,620.1953" style="stroke:#181818;stroke-width:1.0;"/><line style="stroke:#181818;stroke-width:1.0;" x1="48.9482" x2="403.6211" y1="620.1953" y2="620.1953"/><text fill="#000000" font-family="sans-serif" font-size="13" lengthAdjust="spacing" textLength="84.5571" x="55.9482" y="615.3389">Input kuantitas</text><line style="stroke:#181818;stroke-width:1.0;" x1="419.6211" x2="461.6211" y1="650.5469" y2="650.5469"/><line style="stroke:#181818;stroke-width:1.0;" x1="461.6211" x2="461.6211" y1="650.5469" y2="663.5469"/><line style="stroke:#181818;stroke-width:1.0;" x1="420.6211" x2="461.6211" y1="663.5469" y2="663.5469"/><polygon fill="#181818" points="430.6211,659.5469,420.6211,663.5469,430.6211,667.5469,426.6211,663.5469" style="stroke:#181818;stroke-width:1.0;"/><text fill="#000000" font-family="sans-serif" font-size="13" lengthAdjust="spacing" textLength="100.4326" x="426.6211" y="645.6904">Cek stok tersedia</text><path d="M20,678.5469 L80.1709,678.5469 L80.1709,686.8984 L70.1709,696.8984 L20,696.8984 L20,678.5469 " fill="#EEEEEE" style="stroke:#000000;stroke-width:1.5;"/><rect fill="none" height="151.2422" style="stroke:#000000;stroke-width:1.5;" width="515.3428" x="20" y="678.5469"/><text fill="#000000" font-family="sans-serif" font-size="13" font-weight="bold" lengthAdjust="spacing" textLength="15.1709" x="35" y="693.042">alt</text><text fill="#000000" font-family="sans-serif" font-size="11" font-weight="bold" lengthAdjust="spacing" textLength="66.6123" x="95.1709" y="691.9658">[Stok cukup]</text><line style="stroke:#181818;stroke-width:1.0;" x1="419.6211" x2="461.6211" y1="719.25" y2="719.25"/><line style="stroke:#181818;stroke-width:1.0;" x1="461.6211" x2="461.6211" y1="719.25" y2="732.25"/><line style="stroke:#181818;stroke-width:1.0;" x1="420.6211" x2="461.6211" y1="732.25" y2="732.25"/><polygon fill="#181818" points="430.6211,728.25,420.6211,732.25,430.6211,736.25,426.6211,732.25" style="stroke:#181818;stroke-width:1.0;"/><text fill="#000000" font-family="sans-serif" font-size="13" lengthAdjust="spacing" textLength="86.7217" x="426.6211" y="714.3936">Hitung subtotal</text><line style="stroke:#181818;stroke-width:1.0;" x1="419.6211" x2="461.6211" y1="762.6016" y2="762.6016"/><line style="stroke:#181818;stroke-width:1.0;" x1="461.6211" x2="461.6211" y1="762.6016" y2="775.6016"/><line style="stroke:#181818;stroke-width:1.0;" x1="420.6211" x2="461.6211" y1="775.6016" y2="775.6016"/><polygon fill="#181818" points="430.6211,771.6016,420.6211,775.6016,430.6211,779.6016,426.6211,775.6016" style="stroke:#181818;stroke-width:1.0;"/><text fill="#000000" font-family="sans-serif" font-size="13" lengthAdjust="spacing" textLength="70.1035" x="426.6211" y="757.7451">Update total</text><line style="stroke:#000000;stroke-width:1.0;stroke-dasharray:2.0,2.0;" x1="20" x2="535.3428" y1="784.6016" y2="784.6016"/><text fill="#000000" font-family="sans-serif" font-size="11" font-weight="bold" lengthAdjust="spacing" textLength="95.3423" x="25" y="796.0205">[Stok tidak cukup]</text><polygon fill="#181818" points="59.9482,817.7891,49.9482,821.7891,59.9482,825.7891,55.9482,821.7891" style="stroke:#181818;stroke-width:1.0;"/><line style="stroke:#181818;stroke-width:1.0;stroke-dasharray:2.0,2.0;" x1="53.9482" x2="408.6211" y1="821.7891" y2="821.7891"/><text fill="#000000" font-family="sans-serif" font-size="13" lengthAdjust="spacing" textLength="159.707" x="65.9482" y="816.9326">Peringatan stok tidak cukup</text><path d="M20,850.7891 L85.2109,850.7891 L85.2109,859.1406 L75.2109,869.1406 L20,869.1406 L20,850.7891 " fill="#EEEEEE" style="stroke:#000000;stroke-width:1.5;"/><rect fill="none" height="170.1094" style="stroke:#000000;stroke-width:1.5;" width="1333.6777" x="20" y="850.7891"/><text fill="#000000" font-family="sans-serif" font-size="13" font-weight="bold" lengthAdjust="spacing" textLength="20.2109" x="35" y="865.2842">opt</text><text fill="#000000" font-family="sans-serif" font-size="11" font-weight="bold" lengthAdjust="spacing" textLength="111.8423" x="100.2109" y="864.208">[Ada data pelanggan]</text><polygon fill="#181818" points="397.6211,887.4922,407.6211,891.4922,397.6211,895.4922,401.6211,891.4922" style="stroke:#181818;stroke-width:1.0;"/><line style="stroke:#181818;stroke-width:1.0;" x1="48.9482" x2="403.6211" y1="891.4922" y2="891.4922"/><text fill="#000000" font-family="sans-serif" font-size="13" lengthAdjust="spacing" textLength="115.6353" x="55.9482" y="886.6357">Input nomor telepon</text><polygon fill="#181818" points="1105.0752,917.8438,1115.0752,921.8438,1105.0752,925.8438,1109.0752,921.8438" style="stroke:#181818;stroke-width:1.0;"/><line style="stroke:#181818;stroke-width:1.0;" x1="419.6211" x2="1111.0752" y1="921.8438" y2="921.8438"/><text fill="#000000" font-family="sans-serif" font-size="13" lengthAdjust="spacing" textLength="158.9707" x="426.6211" y="916.9873">findOrCreate(phone, name)</text><polygon fill="#181818" points="1298.7124,948.1953,1308.7124,952.1953,1298.7124,956.1953,1302.7124,952.1953" style="stroke:#181818;stroke-width:1.0;"/><line style="stroke:#181818;stroke-width:1.0;" x1="1117.0752" x2="1304.7124" y1="952.1953" y2="952.1953"/><text fill="#000000" font-family="sans-serif" font-size="13" lengthAdjust="spacing" textLength="101.8545" x="1124.0752" y="947.3389">SELECT/INSERT</text><polygon fill="#181818" points="1128.0752,978.5469,1118.0752,982.5469,1128.0752,986.5469,1124.0752,982.5469" style="stroke:#181818;stroke-width:1.0;"/><line style="stroke:#181818;stroke-width:1.0;stroke-dasharray:2.0,2.0;" x1="1122.0752" x2="1309.7124" y1="982.5469" y2="982.5469"/><text fill="#000000" font-family="sans-serif" font-size="13" lengthAdjust="spacing" textLength="56.3481" x="1134.0752" y="977.6904">Customer</text><polygon fill="#181818" points="430.6211,1008.8984,420.6211,1012.8984,430.6211,1016.8984,426.6211,1012.8984" style="stroke:#181818;stroke-width:1.0;"/><line style="stroke:#181818;stroke-width:1.0;stroke-dasharray:2.0,2.0;" x1="424.6211" x2="1116.0752" y1="1012.8984" y2="1012.8984"/><text fill="#000000" font-family="sans-serif" font-size="13" lengthAdjust="spacing" textLength="94.6499" x="436.6211" y="1008.042">Customer object</text><polygon fill="#181818" points="397.6211,1046.25,407.6211,1050.25,397.6211,1054.25,401.6211,1050.25" style="stroke:#181818;stroke-width:1.0;"/><line style="stroke:#181818;stroke-width:1.0;" x1="48.9482" x2="403.6211" y1="1050.25" y2="1050.25"/><text fill="#000000" font-family="sans-serif" font-size="13" lengthAdjust="spacing" textLength="96.0908" x="55.9482" y="1045.3936">Submit transaksi</text><polygon fill="#181818" points="735.4282,1076.6016,745.4282,1080.6016,735.4282,1084.6016,739.4282,1080.6016" style="stroke:#181818;stroke-width:1.0;"/><line style="stroke:#181818;stroke-width:1.0;" x1="419.6211" x2="741.4282" y1="1080.6016" y2="1080.6016"/><text fill="#000000" font-family="sans-serif" font-size="13" lengthAdjust="spacing" textLength="308.8071" x="426.6211" y="1075.7451">create(user_id, customer_id, method='siap-beli', total)</text><line style="stroke:#181818;stroke-width:1.0;" x1="757.4282" x2="799.4282" y1="1110.9531" y2="1110.9531"/><line style="stroke:#181818;stroke-width:1.0;" x1="799.4282" x2="799.4282" y1="1110.9531" y2="1123.9531"/><line style="stroke:#181818;stroke-width:1.0;" x1="758.4282" x2="799.4282" y1="1123.9531" y2="1123.9531"/><polygon fill="#181818" points="768.4282,1119.9531,758.4282,1123.9531,768.4282,1127.9531,764.4282,1123.9531" style="stroke:#181818;stroke-width:1.0;"/><text fill="#000000" font-family="sans-serif" font-size="13" lengthAdjust="spacing" textLength="89.5908" x="764.4282" y="1106.0967">Generate UUID</text><line style="stroke:#181818;stroke-width:1.0;" x1="757.4282" x2="799.4282" y1="1170.6563" y2="1170.6563"/><line style="stroke:#181818;stroke-width:1.0;" x1="799.4282" x2="799.4282" y1="1170.6563" y2="1183.6563"/><line style="stroke:#181818;stroke-width:1.0;" x1="758.4282" x2="799.4282" y1="1183.6563" y2="1183.6563"/><polygon fill="#181818" points="768.4282,1179.6563,758.4282,1183.6563,768.4282,1187.6563,764.4282,1183.6563" style="stroke:#181818;stroke-width:1.0;"/><text fill="#000000" font-family="sans-serif" font-size="13" lengthAdjust="spacing" textLength="149.5889" x="764.4282" y="1149.4482">Generate invoice_number</text><text fill="#000000" font-family="sans-serif" font-size="13" lengthAdjust="spacing" textLength="128.5591" x="764.4282" y="1165.7998">(OS-YYMMDD-XXXX)</text><polygon fill="#181818" points="1298.7124,1210.0078,1308.7124,1214.0078,1298.7124,1218.0078,1302.7124,1214.0078" style="stroke:#181818;stroke-width:1.0;"/><line style="stroke:#181818;stroke-width:1.0;" x1="757.4282" x2="1304.7124" y1="1214.0078" y2="1214.0078"/><text fill="#000000" font-family="sans-serif" font-size="13" lengthAdjust="spacing" textLength="156.0381" x="764.4282" y="1209.1514">INSERT INTO transactions</text><polygon fill="#181818" points="768.4282,1240.3594,758.4282,1244.3594,768.4282,1248.3594,764.4282,1244.3594" style="stroke:#181818;stroke-width:1.0;"/><line style="stroke:#181818;stroke-width:1.0;stroke-dasharray:2.0,2.0;" x1="762.4282" x2="1309.7124" y1="1244.3594" y2="1244.3594"/><text fill="#000000" font-family="sans-serif" font-size="13" lengthAdjust="spacing" textLength="18.7827" x="774.4282" y="1239.5029">OK</text><polygon fill="#181818" points="430.6211,1270.7109,420.6211,1274.7109,430.6211,1278.7109,426.6211,1274.7109" style="stroke:#181818;stroke-width:1.0;"/><line style="stroke:#181818;stroke-width:1.0;stroke-dasharray:2.0,2.0;" x1="424.6211" x2="751.4282" y1="1274.7109" y2="1274.7109"/><text fill="#000000" font-family="sans-serif" font-size="13" lengthAdjust="spacing" textLength="114.8926" x="436.6211" y="1269.8545">Transaction created</text><path d="M308.125,1289.7109 L380.5596,1289.7109 L380.5596,1298.0625 L370.5596,1308.0625 L308.125,1308.0625 L308.125,1289.7109 " fill="#EEEEEE" style="stroke:#000000;stroke-width:1.5;"/><rect fill="none" height="200.4609" style="stroke:#000000;stroke-width:1.5;" width="1045.5527" x="308.125" y="1289.7109"/><text fill="#000000" font-family="sans-serif" font-size="13" font-weight="bold" lengthAdjust="spacing" textLength="27.4346" x="323.125" y="1304.2061">loop</text><text fill="#000000" font-family="sans-serif" font-size="11" font-weight="bold" lengthAdjust="spacing" textLength="113.6685" x="395.5596" y="1303.1299">[Untuk setiap produk]</text><polygon fill="#181818" points="919.0171,1326.4141,929.0171,1330.4141,919.0171,1334.4141,923.0171,1330.4141" style="stroke:#181818;stroke-width:1.0;"/><line style="stroke:#181818;stroke-width:1.0;" x1="419.6211" x2="925.0171" y1="1330.4141" y2="1330.4141"/><text fill="#000000" font-family="sans-serif" font-size="13" lengthAdjust="spacing" textLength="253.627" x="426.6211" y="1325.5576">create(transaction_id, product_id, qty, price)</text><polygon fill="#181818" points="1298.7124,1356.7656,1308.7124,1360.7656,1298.7124,1364.7656,1302.7124,1360.7656" style="stroke:#181818;stroke-width:1.0;"/><line style="stroke:#181818;stroke-width:1.0;" x1="941.0171" x2="1304.7124" y1="1360.7656" y2="1360.7656"/><text fill="#000000" font-family="sans-serif" font-size="13" lengthAdjust="spacing" textLength="194.3462" x="948.0171" y="1355.9092">INSERT INTO transaction_details</text><polygon fill="#181818" points="947.0171,1387.1172,937.0171,1391.1172,947.0171,1395.1172,943.0171,1391.1172" style="stroke:#181818;stroke-width:1.0;"/><line style="stroke:#181818;stroke-width:1.0;stroke-dasharray:2.0,2.0;" x1="941.0171" x2="1309.7124" y1="1391.1172" y2="1391.1172"/><text fill="#000000" font-family="sans-serif" font-size="13" lengthAdjust="spacing" textLength="18.7827" x="953.0171" y="1386.2607">OK</text><polygon fill="#181818" points="1021.6099,1417.4688,1031.6099,1421.4688,1021.6099,1425.4688,1025.6099,1421.4688" style="stroke:#181818;stroke-width:1.0;"/><line style="stroke:#181818;stroke-width:1.0;" x1="419.6211" x2="1027.6099" y1="1421.4688" y2="1421.4688"/><text fill="#000000" font-family="sans-serif" font-size="13" lengthAdjust="spacing" textLength="124.9854" x="426.6211" y="1416.6123">decrement(stock, qty)</text><polygon fill="#181818" points="1298.7124,1447.8203,1308.7124,1451.8203,1298.7124,1455.8203,1302.7124,1451.8203" style="stroke:#181818;stroke-width:1.0;"/><line style="stroke:#181818;stroke-width:1.0;" x1="1043.6099" x2="1304.7124" y1="1451.8203" y2="1451.8203"/><text fill="#000000" font-family="sans-serif" font-size="13" lengthAdjust="spacing" textLength="243.1025" x="1050.6099" y="1446.9639">UPDATE products SET stock = stock - qty</text><polygon fill="#181818" points="1049.6099,1478.1719,1039.6099,1482.1719,1049.6099,1486.1719,1045.6099,1482.1719" style="stroke:#181818;stroke-width:1.0;"/><line style="stroke:#181818;stroke-width:1.0;stroke-dasharray:2.0,2.0;" x1="1043.6099" x2="1309.7124" y1="1482.1719" y2="1482.1719"/><text fill="#000000" font-family="sans-serif" font-size="13" lengthAdjust="spacing" textLength="18.7827" x="1055.6099" y="1477.3154">OK</text><polygon fill="#181818" points="59.9482,1531.875,49.9482,1535.875,59.9482,1539.875,55.9482,1535.875" style="stroke:#181818;stroke-width:1.0;"/><line style="stroke:#181818;stroke-width:1.0;stroke-dasharray:2.0,2.0;" x1="53.9482" x2="413.6211" y1="1535.875" y2="1535.875"/><text fill="#000000" font-family="sans-serif" font-size="13" lengthAdjust="spacing" textLength="105.4854" x="65.9482" y="1514.667">Transaksi berhasil</text><text fill="#000000" font-family="sans-serif" font-size="13" lengthAdjust="spacing" textLength="128.6416" x="65.9482" y="1531.0186">Lanjut ke pembayaran</text><!--SRC=[dLRRRk8m47tFLrYy55P5tUTAhTG2krkrBAY0j9KgeKao1PV4Jcs7Yh_VyIKauRAL5ga5x7F6PqvcnXXkCcGp_2XH9CY675OAycisLo0qR3HdCmu5kyUCHn4aHYhMUGJDLOU1PgL65HMW34zu0SAmZkSbXajnPPcM-2gwJtoBdrnXpz4ohirvsXp4QWNPMVQRLFbPDg77CiNCGutTE8iTeW6UjHcfMsjJfagcPMBQmC8ljf63KXkPesf34rgDKZ0GWqRM6OPF_hmuYgoBh7_hR67Nx6wZKRCrP923ODhQ7rlxhUWj6FJsHGvDh224Y9zhLDWb1Sc6tRBllLUnKh8ixdVTWA6SbwG3Ur558duQ4tKsUXeDvkmR-_4y6LSXTKHx_TOHrGvpaJ5byOxPY7N0HXvRSX9YAgyzgq87yOHrkLEvGLxmR4Fv6l_qFOVgxyYUAS_u-WIiyiEM1y4KfbGnYUdwX5Cyi6__rPMJ8vqmyy2uIrQx-zyUmf4lBVU2_ccr5xITyiedpmmgJTa2UI1b4GpoUn6ZLsLW5VcB_GTHb8PjIgfeRa0xYFjNcHHm0znOEnhdxv6G6JQpMqcvAGktT2B0BsvAiMAwZ8qqa9s3BGfhFQinc54RkV26ft3waDgkAIekLjHp8gWzuA188_iNoSAmknHiXG8hC7CL9iux96HEqz1WXeKKBODimnFiZOjqeWOAINwtM4j1zICWfsgqO0TgryxLm-_Pw7dkjaFPX53LO6am6myYR38PlrF5-smE9C_AEEV63qHm_LA9TKk4IBnEorlozDATOgEwBpcQjKnlBkmqwjjfT77f7qYlRYG_R2CVhn7u9mfK5h1OF0p_iSt5Ll84bwBCOpT29xF-oyjuF1ps_z2hLrETPTuhUfjFGbgkJ_SDLyMVF5R4set69H3o9iSQ8oAaujff8Gprc4PZ1t6ZQoh__8rH6zZGugmBlUq-VvYTNQ0iVGti3mpNZdlmFjuNQIuzJ3ThPQ-4KlQHJiLlYQ-dKegaFqTX_0NYj1w8hAuyktWu_1RJuTryL4_wsMWUPkLDUE_RY4svzTd7UgkZN2aV3S3zRnEgapNz6A4x_0d4kvrQHCKyXXqGflL8tPZ_2m00]--></g></svg>