<svg xmlns="http://www.w3.org/2000/svg" xmlns:xlink="http://www.w3.org/1999/xlink" contentStyleType="text/css" height="1586px" preserveAspectRatio="none" style="width:1341px;height:1586px;background:#FFFFFF;" version="1.1" viewBox="0 0 1341 1586" width="1341px" zoomAndPan="magnify"><title>Sequence Diagram: Transaksi Pesanan (Kotak/Reguler)</title><defs/><g><text fill="#000000" font-family="sans-serif" font-size="14" font-weight="bold" lengthAdjust="spacing" textLength="369.5713" x="487.2983" y="29.5332">Sequence Diagram: Transaksi Pesanan (Kotak/Reguler)</text><rect fill="#FFFFFF" height="30.3516" style="stroke:#181818;stroke-width:1.0;" width="10" x="192.978" y="169.9219"/><rect fill="#FFFFFF" height="1285.8984" style="stroke:#181818;stroke-width:1.0;" width="10" x="363.6807" y="200.2734"/><rect fill="#FFFFFF" height="210.4609" style="stroke:#181818;stroke-width:1.0;" width="10" x="640.5186" y="911.4922"/><rect fill="#FFFFFF" height="104.0547" style="stroke:#181818;stroke-width:1.0;" width="10" x="826.1895" y="1177.6563"/><rect fill="#FFFFFF" height="134.4063" style="stroke:#181818;stroke-width:1.0;" width="10" x="949.7803" y="522.625"/><rect fill="#FFFFFF" height="120.4063" style="stroke:#181818;stroke-width:1.0;" width="10" x="1073.3711" y="1319.0625"/><rect fill="none" height="413.4063" style="stroke:#000000;stroke-width:1.5;" width="1325.168" x="10" y="258.625"/><rect fill="none" height="259.6484" style="stroke:#000000;stroke-width:1.5;" width="1305.168" x="20" y="405.3828"/><rect fill="none" height="165.7578" style="stroke:#000000;stroke-width:1.5;" width="469.4023" x="20" y="686.0313"/><rect fill="none" height="152.7578" style="stroke:#000000;stroke-width:1.5;" width="1054.0386" x="271.1294" y="1136.9531"/><line style="stroke:#181818;stroke-width:0.5;stroke-dasharray:5.0,5.0;" x1="48" x2="48" y1="121.2188" y2="1504.1719"/><line style="stroke:#181818;stroke-width:0.5;stroke-dasharray:5.0,5.0;" x1="197.8267" x2="197.8267" y1="121.2188" y2="1504.1719"/><line style="stroke:#181818;stroke-width:0.5;stroke-dasharray:5.0,5.0;" x1="368.1294" x2="368.1294" y1="121.2188" y2="1504.1719"/><line style="stroke:#181818;stroke-width:0.5;stroke-dasharray:5.0,5.0;" x1="644.9463" x2="644.9463" y1="121.2188" y2="1504.1719"/><line style="stroke:#181818;stroke-width:0.5;stroke-dasharray:5.0,5.0;" x1="830.7207" x2="830.7207" y1="121.2188" y2="1504.1719"/><line style="stroke:#181818;stroke-width:0.5;stroke-dasharray:5.0,5.0;" x1="954.439" x2="954.439" y1="121.2188" y2="1504.1719"/><line style="stroke:#181818;stroke-width:0.5;stroke-dasharray:5.0,5.0;" x1="1077.9058" x2="1077.9058" y1="121.2188" y2="1504.1719"/><line style="stroke:#181818;stroke-width:0.5;stroke-dasharray:5.0,5.0;" x1="1281.2373" x2="1281.2373" y1="121.2188" y2="1504.1719"/><text fill="#000000" font-family="sans-serif" font-size="14" lengthAdjust="spacing" textLength="31.8965" x="30" y="118.1426">Kasir</text><ellipse cx="48.9482" cy="52.1094" fill="#E2E2F0" rx="8" ry="8" style="stroke:#181818;stroke-width:0.5;"/><path d="M48.9482,60.1094 L48.9482,87.1094 M35.9482,68.1094 L61.9482,68.1094 M48.9482,87.1094 L35.9482,102.1094 M48.9482,87.1094 L61.9482,102.1094 " fill="none" style="stroke:#181818;stroke-width:0.5;"/><text fill="#000000" font-family="sans-serif" font-size="14" lengthAdjust="spacing" textLength="31.8965" x="30" y="1517.7051">Kasir</text><ellipse cx="48.9482" cy="1529.2813" fill="#E2E2F0" rx="8" ry="8" style="stroke:#181818;stroke-width:0.5;"/><path d="M48.9482,1537.2813 L48.9482,1564.2813 M35.9482,1545.2813 L61.9482,1545.2813 M48.9482,1564.2813 L35.9482,1579.2813 M48.9482,1564.2813 L61.9482,1579.2813 " fill="none" style="stroke:#181818;stroke-width:0.5;"/><rect fill="#E2E2F0" height="49.2188" rx="2.5" ry="2.5" style="stroke:#181818;stroke-width:0.5;" width="146.3027" x="124.8267" y="71"/><text fill="#000000" font-family="sans-serif" font-size="14" lengthAdjust="spacing" textLength="132.3027" x="131.8267" y="92.5332">Transaction/Pesanan</text><text fill="#000000" font-family="sans-serif" font-size="14" lengthAdjust="spacing" textLength="60.6758" x="167.6401" y="110.1426">(Livewire)</text><rect fill="#E2E2F0" height="49.2188" rx="2.5" ry="2.5" style="stroke:#181818;stroke-width:0.5;" width="146.3027" x="124.8267" y="1503.1719"/><text fill="#000000" font-family="sans-serif" font-size="14" lengthAdjust="spacing" textLength="132.3027" x="131.8267" y="1524.7051">Transaction/Pesanan</text><text fill="#000000" font-family="sans-serif" font-size="14" lengthAdjust="spacing" textLength="60.6758" x="167.6401" y="1542.3145">(Livewire)</text><rect fill="#E2E2F0" height="49.2188" rx="2.5" ry="2.5" style="stroke:#181818;stroke-width:0.5;" width="175.1025" x="281.1294" y="71"/><text fill="#000000" font-family="sans-serif" font-size="14" lengthAdjust="spacing" textLength="161.1025" x="288.1294" y="92.5332">Transaction/BuatPesanan</text><text fill="#000000" font-family="sans-serif" font-size="14" lengthAdjust="spacing" textLength="60.6758" x="338.3428" y="110.1426">(Livewire)</text><rect fill="#E2E2F0" height="49.2188" rx="2.5" ry="2.5" style="stroke:#181818;stroke-width:0.5;" width="175.1025" x="281.1294" y="1503.1719"/><text fill="#000000" font-family="sans-serif" font-size="14" lengthAdjust="spacing" textLength="161.1025" x="288.1294" y="1524.7051">Transaction/BuatPesanan</text><text fill="#000000" font-family="sans-serif" font-size="14" lengthAdjust="spacing" textLength="60.6758" x="338.3428" y="1542.3145">(Livewire)</text><rect fill="#E2E2F0" height="49.2188" rx="2.5" ry="2.5" style="stroke:#181818;stroke-width:0.5;" width="87.1445" x="601.9463" y="71"/><text fill="#000000" font-family="sans-serif" font-size="14" lengthAdjust="spacing" textLength="73.1445" x="608.9463" y="92.5332">Transaction</text><text fill="#000000" font-family="sans-serif" font-size="14" lengthAdjust="spacing" textLength="47.4551" x="621.791" y="110.1426">(Model)</text><rect fill="#E2E2F0" height="49.2188" rx="2.5" ry="2.5" style="stroke:#181818;stroke-width:0.5;" width="87.1445" x="601.9463" y="1503.1719"/><text fill="#000000" font-family="sans-serif" font-size="14" lengthAdjust="spacing" textLength="73.1445" x="608.9463" y="1524.7051">Transaction</text><text fill="#000000" font-family="sans-serif" font-size="14" lengthAdjust="spacing" textLength="47.4551" x="621.791" y="1542.3145">(Model)</text><rect fill="#E2E2F0" height="49.2188" rx="2.5" ry="2.5" style="stroke:#181818;stroke-width:0.5;" width="122.9375" x="769.7207" y="71"/><text fill="#000000" font-family="sans-serif" font-size="14" lengthAdjust="spacing" textLength="108.9375" x="776.7207" y="92.5332">TransactionDetail</text><text fill="#000000" font-family="sans-serif" font-size="14" lengthAdjust="spacing" textLength="47.4551" x="807.4619" y="110.1426">(Model)</text><rect fill="#E2E2F0" height="49.2188" rx="2.5" ry="2.5" style="stroke:#181818;stroke-width:0.5;" width="122.9375" x="769.7207" y="1503.1719"/><text fill="#000000" font-family="sans-serif" font-size="14" lengthAdjust="spacing" textLength="108.9375" x="776.7207" y="1524.7051">TransactionDetail</text><text fill="#000000" font-family="sans-serif" font-size="14" lengthAdjust="spacing" textLength="47.4551" x="807.4619" y="1542.3145">(Model)</text><rect fill="#E2E2F0" height="49.2188" rx="2.5" ry="2.5" style="stroke:#181818;stroke-width:0.5;" width="74.6826" x="917.439" y="71"/><text fill="#000000" font-family="sans-serif" font-size="14" lengthAdjust="spacing" textLength="60.6826" x="924.439" y="92.5332">Customer</text><text fill="#000000" font-family="sans-serif" font-size="14" lengthAdjust="spacing" textLength="47.4551" x="931.0527" y="110.1426">(Model)</text><rect fill="#E2E2F0" height="49.2188" rx="2.5" ry="2.5" style="stroke:#181818;stroke-width:0.5;" width="74.6826" x="917.439" y="1503.1719"/><text fill="#000000" font-family="sans-serif" font-size="14" lengthAdjust="spacing" textLength="60.6826" x="924.439" y="1524.7051">Customer</text><text fill="#000000" font-family="sans-serif" font-size="14" lengthAdjust="spacing" textLength="47.4551" x="931.0527" y="1542.3145">(Model)</text><rect fill="#E2E2F0" height="49.2188" rx="2.5" ry="2.5" style="stroke:#181818;stroke-width:0.5;" width="80.9307" x="1037.9058" y="71"/><text fill="#000000" font-family="sans-serif" font-size="14" lengthAdjust="spacing" textLength="66.9307" x="1044.9058" y="92.5332">Production</text><text fill="#000000" font-family="sans-serif" font-size="14" lengthAdjust="spacing" textLength="47.4551" x="1054.6436" y="110.1426">(Model)</text><rect fill="#E2E2F0" height="49.2188" rx="2.5" ry="2.5" style="stroke:#181818;stroke-width:0.5;" width="80.9307" x="1037.9058" y="1503.1719"/><text fill="#000000" font-family="sans-serif" font-size="14" lengthAdjust="spacing" textLength="66.9307" x="1044.9058" y="1524.7051">Production</text><text fill="#000000" font-family="sans-serif" font-size="14" lengthAdjust="spacing" textLength="47.4551" x="1054.6436" y="1542.3145">(Model)</text><text fill="#000000" font-family="sans-serif" font-size="14" lengthAdjust="spacing" textLength="59.9307" x="1249.2373" y="118.1426">Database</text><path d="M1264.2026,67.6094 C1264.2026,57.6094 1282.2026,57.6094 1282.2026,57.6094 C1282.2026,57.6094 1300.2026,57.6094 1300.2026,67.6094 L1300.2026,93.6094 C1300.2026,103.6094 1282.2026,103.6094 1282.2026,103.6094 C1282.2026,103.6094 1264.2026,103.6094 1264.2026,93.6094 L1264.2026,67.6094 " fill="#E2E2F0" style="stroke:#181818;stroke-width:1.5;"/><path d="M1264.2026,67.6094 C1264.2026,77.6094 1282.2026,77.6094 1282.2026,77.6094 C1282.2026,77.6094 1300.2026,77.6094 1300.2026,67.6094 " fill="none" style="stroke:#181818;stroke-width:1.5;"/><text fill="#000000" font-family="sans-serif" font-size="14" lengthAdjust="spacing" textLength="59.9307" x="1249.2373" y="1517.7051">Database</text><path d="M1264.2026,1530.7813 C1264.2026,1520.7813 1282.2026,1520.7813 1282.2026,1520.7813 C1282.2026,1520.7813 1300.2026,1520.7813 1300.2026,1530.7813 L1300.2026,1556.7813 C1300.2026,1566.7813 1282.2026,1566.7813 1282.2026,1566.7813 C1282.2026,1566.7813 1264.2026,1566.7813 1264.2026,1556.7813 L1264.2026,1530.7813 " fill="#E2E2F0" style="stroke:#181818;stroke-width:1.5;"/><path d="M1264.2026,1530.7813 C1264.2026,1540.7813 1282.2026,1540.7813 1282.2026,1540.7813 C1282.2026,1540.7813 1300.2026,1540.7813 1300.2026,1530.7813 " fill="none" style="stroke:#181818;stroke-width:1.5;"/><rect fill="#FFFFFF" height="30.3516" style="stroke:#181818;stroke-width:1.0;" width="10" x="192.978" y="169.9219"/><rect fill="#FFFFFF" height="1285.8984" style="stroke:#181818;stroke-width:1.0;" width="10" x="363.6807" y="200.2734"/><rect fill="#FFFFFF" height="210.4609" style="stroke:#181818;stroke-width:1.0;" width="10" x="640.5186" y="911.4922"/><rect fill="#FFFFFF" height="104.0547" style="stroke:#181818;stroke-width:1.0;" width="10" x="826.1895" y="1177.6563"/><rect fill="#FFFFFF" height="134.4063" style="stroke:#181818;stroke-width:1.0;" width="10" x="949.7803" y="522.625"/><rect fill="#FFFFFF" height="120.4063" style="stroke:#181818;stroke-width:1.0;" width="10" x="1073.3711" y="1319.0625"/><polygon fill="#181818" points="180.978,165.9219,190.978,169.9219,180.978,173.9219,184.978,169.9219" style="stroke:#181818;stroke-width:1.0;"/><line style="stroke:#181818;stroke-width:1.0;" x1="48.9482" x2="186.978" y1="169.9219" y2="169.9219"/><text fill="#000000" font-family="sans-serif" font-size="13" lengthAdjust="spacing" textLength="125.0298" x="55.9482" y="148.7139">Pilih metode pesanan</text><text fill="#000000" font-family="sans-serif" font-size="13" lengthAdjust="spacing" textLength="83.8081" x="55.9482" y="165.0654">(kotak/reguler)</text><polygon fill="#181818" points="351.6807,196.2734,361.6807,200.2734,351.6807,204.2734,355.6807,200.2734" style="stroke:#181818;stroke-width:1.0;"/><line style="stroke:#181818;stroke-width:1.0;" x1="197.978" x2="357.6807" y1="200.2734" y2="200.2734"/><text fill="#000000" font-family="sans-serif" font-size="13" lengthAdjust="spacing" textLength="137.3125" x="204.978" y="195.417">redirect dengan method</text><line style="stroke:#181818;stroke-width:1.0;" x1="373.6807" x2="415.6807" y1="230.625" y2="230.625"/><line style="stroke:#181818;stroke-width:1.0;" x1="415.6807" x2="415.6807" y1="230.625" y2="243.625"/><line style="stroke:#181818;stroke-width:1.0;" x1="374.6807" x2="415.6807" y1="243.625" y2="243.625"/><polygon fill="#181818" points="384.6807,239.625,374.6807,243.625,384.6807,247.625,380.6807,243.625" style="stroke:#181818;stroke-width:1.0;"/><text fill="#000000" font-family="sans-serif" font-size="13" lengthAdjust="spacing" textLength="125.7407" x="380.6807" y="225.7686">Render form pesanan</text><path d="M10,258.625 L75.2109,258.625 L75.2109,266.9766 L65.2109,276.9766 L10,276.9766 L10,258.625 " fill="#EEEEEE" style="stroke:#000000;stroke-width:1.5;"/><rect fill="none" height="413.4063" style="stroke:#000000;stroke-width:1.5;" width="1325.168" x="10" y="258.625"/><text fill="#000000" font-family="sans-serif" font-size="13" font-weight="bold" lengthAdjust="spacing" textLength="20.2109" x="25" y="273.1201">opt</text><text fill="#000000" font-family="sans-serif" font-size="11" font-weight="bold" lengthAdjust="spacing" textLength="111.8423" x="90.2109" y="272.0439">[Ada data pelanggan]</text><polygon fill="#181818" points="351.6807,295.3281,361.6807,299.3281,351.6807,303.3281,355.6807,299.3281" style="stroke:#181818;stroke-width:1.0;"/><line style="stroke:#181818;stroke-width:1.0;" x1="48.9482" x2="357.6807" y1="299.3281" y2="299.3281"/><text fill="#000000" font-family="sans-serif" font-size="13" lengthAdjust="spacing" textLength="115.6353" x="55.9482" y="294.4717">Input nomor telepon</text><polygon fill="#181818" points="942.7803,325.6797,952.7803,329.6797,942.7803,333.6797,946.7803,329.6797" style="stroke:#181818;stroke-width:1.0;"/><line style="stroke:#181818;stroke-width:1.0;" x1="373.6807" x2="948.7803" y1="329.6797" y2="329.6797"/><text fill="#000000" font-family="sans-serif" font-size="13" lengthAdjust="spacing" textLength="80.2153" x="380.6807" y="324.8232">where(phone)</text><polygon fill="#181818" points="1270.2026,356.0313,1280.2026,360.0313,1270.2026,364.0313,1274.2026,360.0313" style="stroke:#181818;stroke-width:1.0;"/><line style="stroke:#181818;stroke-width:1.0;" x1="954.7803" x2="1276.2026" y1="360.0313" y2="360.0313"/><text fill="#000000" font-family="sans-serif" font-size="13" lengthAdjust="spacing" textLength="164.6963" x="961.7803" y="355.1748">SELECT * FROM customers</text><polygon fill="#181818" points="965.7803,386.3828,955.7803,390.3828,965.7803,394.3828,961.7803,390.3828" style="stroke:#181818;stroke-width:1.0;"/><line style="stroke:#181818;stroke-width:1.0;stroke-dasharray:2.0,2.0;" x1="959.7803" x2="1281.2026" y1="390.3828" y2="390.3828"/><text fill="#000000" font-family="sans-serif" font-size="13" lengthAdjust="spacing" textLength="84.5317" x="971.7803" y="385.5264">customer / null</text><path d="M20,405.3828 L80.1709,405.3828 L80.1709,413.7344 L70.1709,423.7344 L20,423.7344 L20,405.3828 " fill="#EEEEEE" style="stroke:#000000;stroke-width:1.5;"/><rect fill="none" height="259.6484" style="stroke:#000000;stroke-width:1.5;" width="1305.168" x="20" y="405.3828"/><text fill="#000000" font-family="sans-serif" font-size="13" font-weight="bold" lengthAdjust="spacing" textLength="15.1709" x="35" y="419.8779">alt</text><text fill="#000000" font-family="sans-serif" font-size="11" font-weight="bold" lengthAdjust="spacing" textLength="121.0161" x="95.1709" y="418.8018">[Pelanggan ditemukan]</text><polygon fill="#181818" points="384.6807,442.0859,374.6807,446.0859,384.6807,450.0859,380.6807,446.0859" style="stroke:#181818;stroke-width:1.0;"/><line style="stroke:#181818;stroke-width:1.0;stroke-dasharray:2.0,2.0;" x1="378.6807" x2="953.7803" y1="446.0859" y2="446.0859"/><text fill="#000000" font-family="sans-serif" font-size="13" lengthAdjust="spacing" textLength="94.6499" x="390.6807" y="441.2295">Customer object</text><polygon fill="#181818" points="59.9482,472.4375,49.9482,476.4375,59.9482,480.4375,55.9482,476.4375" style="stroke:#181818;stroke-width:1.0;"/><line style="stroke:#181818;stroke-width:1.0;stroke-dasharray:2.0,2.0;" x1="53.9482" x2="362.6807" y1="476.4375" y2="476.4375"/><text fill="#000000" font-family="sans-serif" font-size="13" lengthAdjust="spacing" textLength="153.2197" x="65.9482" y="471.5811">Tampilkan data pelanggan</text><line style="stroke:#000000;stroke-width:1.0;stroke-dasharray:2.0,2.0;" x1="20" x2="1325.168" y1="485.4375" y2="485.4375"/><text fill="#000000" font-family="sans-serif" font-size="11" font-weight="bold" lengthAdjust="spacing" textLength="89.8423" x="25" y="496.8564">[Pelanggan baru]</text><polygon fill="#181818" points="937.7803,518.625,947.7803,522.625,937.7803,526.625,941.7803,522.625" style="stroke:#181818;stroke-width:1.0;"/><line style="stroke:#181818;stroke-width:1.0;" x1="373.6807" x2="943.7803" y1="522.625" y2="522.625"/><text fill="#000000" font-family="sans-serif" font-size="13" lengthAdjust="spacing" textLength="120.6816" x="380.6807" y="517.7686">create(name, phone)</text><line style="stroke:#181818;stroke-width:1.0;" x1="959.7803" x2="1001.7803" y1="552.9766" y2="552.9766"/><line style="stroke:#181818;stroke-width:1.0;" x1="1001.7803" x2="1001.7803" y1="552.9766" y2="565.9766"/><line style="stroke:#181818;stroke-width:1.0;" x1="960.7803" x2="1001.7803" y1="565.9766" y2="565.9766"/><polygon fill="#181818" points="970.7803,561.9766,960.7803,565.9766,970.7803,569.9766,966.7803,565.9766" style="stroke:#181818;stroke-width:1.0;"/><text fill="#000000" font-family="sans-serif" font-size="13" lengthAdjust="spacing" textLength="89.5908" x="966.7803" y="548.1201">Generate UUID</text><polygon fill="#181818" points="1270.2026,592.3281,1280.2026,596.3281,1270.2026,600.3281,1274.2026,596.3281" style="stroke:#181818;stroke-width:1.0;"/><line style="stroke:#181818;stroke-width:1.0;" x1="959.7803" x2="1276.2026" y1="596.3281" y2="596.3281"/><text fill="#000000" font-family="sans-serif" font-size="13" lengthAdjust="spacing" textLength="145.9072" x="966.7803" y="591.4717">INSERT INTO customers</text><polygon fill="#181818" points="970.7803,622.6797,960.7803,626.6797,970.7803,630.6797,966.7803,626.6797" style="stroke:#181818;stroke-width:1.0;"/><line style="stroke:#181818;stroke-width:1.0;stroke-dasharray:2.0,2.0;" x1="964.7803" x2="1281.2026" y1="626.6797" y2="626.6797"/><text fill="#000000" font-family="sans-serif" font-size="13" lengthAdjust="spacing" textLength="18.7827" x="976.7803" y="621.8232">OK</text><polygon fill="#181818" points="384.6807,653.0313,374.6807,657.0313,384.6807,661.0313,380.6807,657.0313" style="stroke:#181818;stroke-width:1.0;"/><line style="stroke:#181818;stroke-width:1.0;stroke-dasharray:2.0,2.0;" x1="378.6807" x2="953.7803" y1="657.0313" y2="657.0313"/><text fill="#000000" font-family="sans-serif" font-size="13" lengthAdjust="spacing" textLength="103.3208" x="390.6807" y="652.1748">Customer created</text><path d="M20,686.0313 L92.4346,686.0313 L92.4346,694.3828 L82.4346,704.3828 L20,704.3828 L20,686.0313 " fill="#EEEEEE" style="stroke:#000000;stroke-width:1.5;"/><rect fill="none" height="165.7578" style="stroke:#000000;stroke-width:1.5;" width="469.4023" x="20" y="686.0313"/><text fill="#000000" font-family="sans-serif" font-size="13" font-weight="bold" lengthAdjust="spacing" textLength="27.4346" x="35" y="700.5264">loop</text><text fill="#000000" font-family="sans-serif" font-size="11" font-weight="bold" lengthAdjust="spacing" textLength="152.8076" x="107.4346" y="699.4502">[Tambah produk ke pesanan]</text><polygon fill="#181818" points="351.6807,722.7344,361.6807,726.7344,351.6807,730.7344,355.6807,726.7344" style="stroke:#181818;stroke-width:1.0;"/><line style="stroke:#181818;stroke-width:1.0;" x1="48.9482" x2="357.6807" y1="726.7344" y2="726.7344"/><text fill="#000000" font-family="sans-serif" font-size="13" lengthAdjust="spacing" textLength="67.9263" x="55.9482" y="721.8779">Pilih produk</text><polygon fill="#181818" points="351.6807,753.0859,361.6807,757.0859,351.6807,761.0859,355.6807,757.0859" style="stroke:#181818;stroke-width:1.0;"/><line style="stroke:#181818;stroke-width:1.0;" x1="48.9482" x2="357.6807" y1="757.0859" y2="757.0859"/><text fill="#000000" font-family="sans-serif" font-size="13" lengthAdjust="spacing" textLength="84.5571" x="55.9482" y="752.2295">Input kuantitas</text><line style="stroke:#181818;stroke-width:1.0;" x1="373.6807" x2="415.6807" y1="787.4375" y2="787.4375"/><line style="stroke:#181818;stroke-width:1.0;" x1="415.6807" x2="415.6807" y1="787.4375" y2="800.4375"/><line style="stroke:#181818;stroke-width:1.0;" x1="374.6807" x2="415.6807" y1="800.4375" y2="800.4375"/><polygon fill="#181818" points="384.6807,796.4375,374.6807,800.4375,384.6807,804.4375,380.6807,800.4375" style="stroke:#181818;stroke-width:1.0;"/><text fill="#000000" font-family="sans-serif" font-size="13" lengthAdjust="spacing" textLength="86.7217" x="380.6807" y="782.5811">Hitung subtotal</text><line style="stroke:#181818;stroke-width:1.0;" x1="373.6807" x2="415.6807" y1="830.7891" y2="830.7891"/><line style="stroke:#181818;stroke-width:1.0;" x1="415.6807" x2="415.6807" y1="830.7891" y2="843.7891"/><line style="stroke:#181818;stroke-width:1.0;" x1="374.6807" x2="415.6807" y1="843.7891" y2="843.7891"/><polygon fill="#181818" points="384.6807,839.7891,374.6807,843.7891,384.6807,847.7891,380.6807,843.7891" style="stroke:#181818;stroke-width:1.0;"/><text fill="#000000" font-family="sans-serif" font-size="13" lengthAdjust="spacing" textLength="70.1035" x="380.6807" y="825.9326">Update total</text><polygon fill="#181818" points="351.6807,877.1406,361.6807,881.1406,351.6807,885.1406,355.6807,881.1406" style="stroke:#181818;stroke-width:1.0;"/><line style="stroke:#181818;stroke-width:1.0;" x1="48.9482" x2="357.6807" y1="881.1406" y2="881.1406"/><text fill="#000000" font-family="sans-serif" font-size="13" lengthAdjust="spacing" textLength="93.9517" x="55.9482" y="876.2842">Submit pesanan</text><polygon fill="#181818" points="628.5186,907.4922,638.5186,911.4922,628.5186,915.4922,632.5186,911.4922" style="stroke:#181818;stroke-width:1.0;"/><line style="stroke:#181818;stroke-width:1.0;" x1="373.6807" x2="634.5186" y1="911.4922" y2="911.4922"/><text fill="#000000" font-family="sans-serif" font-size="13" lengthAdjust="spacing" textLength="247.8379" x="380.6807" y="906.6357">create(user_id, customer_id, method, total)</text><line style="stroke:#181818;stroke-width:1.0;" x1="650.5186" x2="692.5186" y1="958.1953" y2="958.1953"/><line style="stroke:#181818;stroke-width:1.0;" x1="692.5186" x2="692.5186" y1="958.1953" y2="971.1953"/><line style="stroke:#181818;stroke-width:1.0;" x1="651.5186" x2="692.5186" y1="971.1953" y2="971.1953"/><polygon fill="#181818" points="661.5186,967.1953,651.5186,971.1953,661.5186,975.1953,657.5186,971.1953" style="stroke:#181818;stroke-width:1.0;"/><text fill="#000000" font-family="sans-serif" font-size="13" lengthAdjust="spacing" textLength="33.96" x="657.5186" y="936.9873">boot()</text><text fill="#000000" font-family="sans-serif" font-size="13" lengthAdjust="spacing" textLength="89.5908" x="657.5186" y="953.3389">Generate UUID</text><line style="stroke:#181818;stroke-width:1.0;" x1="650.5186" x2="692.5186" y1="1017.8984" y2="1017.8984"/><line style="stroke:#181818;stroke-width:1.0;" x1="692.5186" x2="692.5186" y1="1017.8984" y2="1030.8984"/><line style="stroke:#181818;stroke-width:1.0;" x1="651.5186" x2="692.5186" y1="1030.8984" y2="1030.8984"/><polygon fill="#181818" points="661.5186,1026.8984,651.5186,1030.8984,661.5186,1034.8984,657.5186,1030.8984" style="stroke:#181818;stroke-width:1.0;"/><text fill="#000000" font-family="sans-serif" font-size="13" lengthAdjust="spacing" textLength="149.5889" x="657.5186" y="996.6904">Generate invoice_number</text><text fill="#000000" font-family="sans-serif" font-size="13" lengthAdjust="spacing" textLength="151.6709" x="657.5186" y="1013.042">(OK/OR-YYMMDD-XXXX)</text><polygon fill="#181818" points="1270.2026,1057.25,1280.2026,1061.25,1270.2026,1065.25,1274.2026,1061.25" style="stroke:#181818;stroke-width:1.0;"/><line style="stroke:#181818;stroke-width:1.0;" x1="650.5186" x2="1276.2026" y1="1061.25" y2="1061.25"/><text fill="#000000" font-family="sans-serif" font-size="13" lengthAdjust="spacing" textLength="156.0381" x="657.5186" y="1056.3936">INSERT INTO transactions</text><polygon fill="#181818" points="661.5186,1087.6016,651.5186,1091.6016,661.5186,1095.6016,657.5186,1091.6016" style="stroke:#181818;stroke-width:1.0;"/><line style="stroke:#181818;stroke-width:1.0;stroke-dasharray:2.0,2.0;" x1="655.5186" x2="1281.2026" y1="1091.6016" y2="1091.6016"/><text fill="#000000" font-family="sans-serif" font-size="13" lengthAdjust="spacing" textLength="18.7827" x="667.5186" y="1086.7451">OK</text><polygon fill="#181818" points="384.6807,1117.9531,374.6807,1121.9531,384.6807,1125.9531,380.6807,1121.9531" style="stroke:#181818;stroke-width:1.0;"/><line style="stroke:#181818;stroke-width:1.0;stroke-dasharray:2.0,2.0;" x1="378.6807" x2="644.5186" y1="1121.9531" y2="1121.9531"/><text fill="#000000" font-family="sans-serif" font-size="13" lengthAdjust="spacing" textLength="208.1016" x="390.6807" y="1117.0967">Transaction created (transaction_id)</text><path d="M271.1294,1136.9531 L343.564,1136.9531 L343.564,1145.3047 L333.564,1155.3047 L271.1294,1155.3047 L271.1294,1136.9531 " fill="#EEEEEE" style="stroke:#000000;stroke-width:1.5;"/><rect fill="none" height="152.7578" style="stroke:#000000;stroke-width:1.5;" width="1054.0386" x="271.1294" y="1136.9531"/><text fill="#000000" font-family="sans-serif" font-size="13" font-weight="bold" lengthAdjust="spacing" textLength="27.4346" x="286.1294" y="1151.4482">loop</text><text fill="#000000" font-family="sans-serif" font-size="11" font-weight="bold" lengthAdjust="spacing" textLength="113.6685" x="358.564" y="1150.3721">[Untuk setiap produk]</text><polygon fill="#181818" points="814.1895,1173.6563,824.1895,1177.6563,814.1895,1181.6563,818.1895,1177.6563" style="stroke:#181818;stroke-width:1.0;"/><line style="stroke:#181818;stroke-width:1.0;" x1="373.6807" x2="820.1895" y1="1177.6563" y2="1177.6563"/><text fill="#000000" font-family="sans-serif" font-size="13" lengthAdjust="spacing" textLength="253.627" x="380.6807" y="1172.7998">create(transaction_id, product_id, qty, price)</text><line style="stroke:#181818;stroke-width:1.0;" x1="836.1895" x2="878.1895" y1="1208.0078" y2="1208.0078"/><line style="stroke:#181818;stroke-width:1.0;" x1="878.1895" x2="878.1895" y1="1208.0078" y2="1221.0078"/><line style="stroke:#181818;stroke-width:1.0;" x1="837.1895" x2="878.1895" y1="1221.0078" y2="1221.0078"/><polygon fill="#181818" points="847.1895,1217.0078,837.1895,1221.0078,847.1895,1225.0078,843.1895,1221.0078" style="stroke:#181818;stroke-width:1.0;"/><text fill="#000000" font-family="sans-serif" font-size="13" lengthAdjust="spacing" textLength="89.5908" x="843.1895" y="1203.1514">Generate UUID</text><polygon fill="#181818" points="1270.2026,1247.3594,1280.2026,1251.3594,1270.2026,1255.3594,1274.2026,1251.3594" style="stroke:#181818;stroke-width:1.0;"/><line style="stroke:#181818;stroke-width:1.0;" x1="836.1895" x2="1276.2026" y1="1251.3594" y2="1251.3594"/><text fill="#000000" font-family="sans-serif" font-size="13" lengthAdjust="spacing" textLength="194.3462" x="843.1895" y="1246.5029">INSERT INTO transaction_details</text><polygon fill="#181818" points="842.1895,1277.7109,832.1895,1281.7109,842.1895,1285.7109,838.1895,1281.7109" style="stroke:#181818;stroke-width:1.0;"/><line style="stroke:#181818;stroke-width:1.0;stroke-dasharray:2.0,2.0;" x1="836.1895" x2="1281.2026" y1="1281.7109" y2="1281.7109"/><text fill="#000000" font-family="sans-serif" font-size="13" lengthAdjust="spacing" textLength="18.7827" x="848.1895" y="1276.8545">OK</text><polygon fill="#181818" points="1061.3711,1315.0625,1071.3711,1319.0625,1061.3711,1323.0625,1065.3711,1319.0625" style="stroke:#181818;stroke-width:1.0;"/><line style="stroke:#181818;stroke-width:1.0;" x1="373.6807" x2="1067.3711" y1="1319.0625" y2="1319.0625"/><text fill="#000000" font-family="sans-serif" font-size="13" lengthAdjust="spacing" textLength="176.3125" x="380.6807" y="1314.2061">create(transaction_id, method)</text><line style="stroke:#181818;stroke-width:1.0;" x1="1083.3711" x2="1125.3711" y1="1365.7656" y2="1365.7656"/><line style="stroke:#181818;stroke-width:1.0;" x1="1125.3711" x2="1125.3711" y1="1365.7656" y2="1378.7656"/><line style="stroke:#181818;stroke-width:1.0;" x1="1084.3711" x2="1125.3711" y1="1378.7656" y2="1378.7656"/><polygon fill="#181818" points="1094.3711,1374.7656,1084.3711,1378.7656,1094.3711,1382.7656,1090.3711,1378.7656" style="stroke:#181818;stroke-width:1.0;"/><text fill="#000000" font-family="sans-serif" font-size="13" lengthAdjust="spacing" textLength="169.8315" x="1090.3711" y="1344.5576">Generate production_number</text><text fill="#000000" font-family="sans-serif" font-size="13" lengthAdjust="spacing" textLength="148.7891" x="1090.3711" y="1360.9092">(PK/PR-YYMMDD-XXXX)</text><polygon fill="#181818" points="1270.2026,1405.1172,1280.2026,1409.1172,1270.2026,1413.1172,1274.2026,1409.1172" style="stroke:#181818;stroke-width:1.0;"/><line style="stroke:#181818;stroke-width:1.0;" x1="1083.3711" x2="1276.2026" y1="1409.1172" y2="1409.1172"/><text fill="#000000" font-family="sans-serif" font-size="13" lengthAdjust="spacing" textLength="153.1563" x="1090.3711" y="1404.2607">INSERT INTO productions</text><polygon fill="#181818" points="1089.3711,1435.4688,1079.3711,1439.4688,1089.3711,1443.4688,1085.3711,1439.4688" style="stroke:#181818;stroke-width:1.0;"/><line style="stroke:#181818;stroke-width:1.0;stroke-dasharray:2.0,2.0;" x1="1083.3711" x2="1281.2026" y1="1439.4688" y2="1439.4688"/><text fill="#000000" font-family="sans-serif" font-size="13" lengthAdjust="spacing" textLength="18.7827" x="1095.3711" y="1434.6123">OK</text><polygon fill="#181818" points="59.9482,1482.1719,49.9482,1486.1719,59.9482,1490.1719,55.9482,1486.1719" style="stroke:#181818;stroke-width:1.0;"/><line style="stroke:#181818;stroke-width:1.0;stroke-dasharray:2.0,2.0;" x1="53.9482" x2="367.6807" y1="1486.1719" y2="1486.1719"/><text fill="#000000" font-family="sans-serif" font-size="13" lengthAdjust="spacing" textLength="139.4897" x="65.9482" y="1464.9639">Pesanan berhasil dibuat</text><text fill="#000000" font-family="sans-serif" font-size="13" lengthAdjust="spacing" textLength="134.3989" x="65.9482" y="1481.3154">Masuk antrian produksi</text><!--SRC=[XLRRRjim37tNLmXvIeO6UU_3W6tfjYBD4kG2h421GhQvHBCikRgqsD-FacpBZfijG2wMo4Fo75AAvLO0tSEB0va3NN9sqgowfGVDf66buNGBXaacwNIbB2iNEpWv0Nf62CkjqdIoOeRh2MM6EWEQr4nRdlEQIKid4IMtNCb5W_Cafm_y5TwuXbdm4jpOwrwV7RFNF7yfNLtrHEkrAa14K-ithjekmJ8kXXv5M1kwV776gWhqq39tbmLijIhSErdKk4uAPbd63D39ilaLusM4U0Bf_6EWXDxIBHVyJ2kmY43hZeGowA1R7Nm9hyn29984NyJmv226XWBvoYtM8q-e8gATVH9muTOz1bA3SmBPWImmi_3Kv468gYtzL33gwy5LmUG90n2AhxQEnlrUrivIgIfi5mi2QXNDmaSRohE8jczdq32jpqh2BEo7TTmlCjpTtptSVJdG3_JhRhCEMruE4mpHO9vmsZsweD89aU8nOR6bcsnfmIrKhcpoJl5IygtcL6M_aSVEBkQDTg5O71XMrLoK7dDC20ZKEqNDc7ONG2bn3IZ3LB8ARcYFXv1xAr9ekM767S0taA2zqV5ulnmP1HhlV-plTWVyEcmkI1mJkLdzdvgOSv4GO9mfjX3nRoAKgZrR6Jk7WN0bBRlsVgzzuXX4q-ljLJeSFMwP6NHLO_ATMoTFrBZCul28zqoETU7pZViXqOimUvTLtAR-R_t3qPA4yrxFlBZfY0qFSUnk8dnlPkEvH2963onJoavdJt8eviYis-RoLV4SdgMhid0-RLQBpMx- -BXUBvVpd_YQ9UzH3zXq51hIoD-6GFqRnqH5x-XijQVJ7WYMZFT3hmkQCeFqHsbHSWEMixglQijdF7WJeKFSc-YIs_3xnVxn2rXv798kO7DwnsOCU7tayOZqZFv1pdCq6vmt7MWpABsgcoH2CxNL-UolrnRRfDSVuSO8Fictoxxkhfca-tQrs5xethgFAal-dUfD2AobLqT8WbmUUEt_0enxnhy00i_I32_h9xbc1WN6QTGSjwF2XW_w8LmoVm40]--></g></svg>