<svg xmlns="http://www.w3.org/2000/svg" xmlns:xlink="http://www.w3.org/1999/xlink" contentStyleType="text/css" height="2103px" preserveAspectRatio="none" style="width:1336px;height:2103px;background:#FFFFFF;" version="1.1" viewBox="0 0 1336 2103" width="1336px" zoomAndPan="magnify"><title>Sequence Diagram: Stock Opname</title><defs/><g><text fill="#000000" font-family="sans-serif" font-size="14" font-weight="bold" lengthAdjust="spacing" textLength="232.627" x="547.689" y="29.5332">Sequence Diagram: Stock Opname</text><rect fill="#FFFFFF" height="713.0859" style="stroke:#181818;stroke-width:1.0;" width="10" x="267.4736" y="197.9219"/><rect fill="#FFFFFF" height="1018.0859" style="stroke:#181818;stroke-width:1.0;" width="10" x="373.7227" y="985.7109"/><rect fill="#FFFFFF" height="210.4609" style="stroke:#181818;stroke-width:1.0;" width="10" x="587.2427" y="546.7891"/><rect fill="#FFFFFF" height="60.7031" style="stroke:#181818;stroke-width:1.0;" width="10" x="765.7852" y="812.9531"/><rect fill="#FFFFFF" height="195.5938" style="stroke:#181818;stroke-width:1.0;" width="10" x="870.7124" y="1588.7422"/><rect fill="#FFFFFF" height="60.7031" style="stroke:#181818;stroke-width:1.0;" width="10" x="1072.2651" y="1814.6875"/><rect fill="none" height="200.4609" style="stroke:#000000;stroke-width:1.5;" width="1309.0049" x="10" y="286.625"/><rect fill="none" height="109.4063" style="stroke:#000000;stroke-width:1.5;" width="1102.0415" x="216.9634" y="772.25"/><rect fill="none" height="260.1641" style="stroke:#000000;stroke-width:1.5;" width="1309.0049" x="10" y="1243.5234"/><rect fill="none" height="335.3516" style="stroke:#000000;stroke-width:1.5;" width="996.189" x="322.8159" y="1548.0391"/><rect fill="none" height="120.8906" style="stroke:#000000;stroke-width:1.5;" width="261.3491" x="815.916" y="1603.7422"/><line style="stroke:#181818;stroke-width:0.5;stroke-dasharray:5.0,5.0;" x1="73" x2="73" y1="121.2188" y2="2021.7969"/><line style="stroke:#181818;stroke-width:0.5;stroke-dasharray:5.0,5.0;" x1="271.9634" x2="271.9634" y1="121.2188" y2="2021.7969"/><line style="stroke:#181818;stroke-width:0.5;stroke-dasharray:5.0,5.0;" x1="377.8159" x2="377.8159" y1="121.2188" y2="2021.7969"/><line style="stroke:#181818;stroke-width:0.5;stroke-dasharray:5.0,5.0;" x1="591.5151" x2="591.5151" y1="121.2188" y2="2021.7969"/><line style="stroke:#181818;stroke-width:0.5;stroke-dasharray:5.0,5.0;" x1="770.6543" x2="770.6543" y1="121.2188" y2="2021.7969"/><line style="stroke:#181818;stroke-width:0.5;stroke-dasharray:5.0,5.0;" x1="874.916" x2="874.916" y1="121.2188" y2="2021.7969"/><line style="stroke:#181818;stroke-width:0.5;stroke-dasharray:5.0,5.0;" x1="1076.793" x2="1076.793" y1="121.2188" y2="2021.7969"/><line style="stroke:#181818;stroke-width:0.5;stroke-dasharray:5.0,5.0;" x1="1275.0742" x2="1275.0742" y1="121.2188" y2="2021.7969"/><text fill="#000000" font-family="sans-serif" font-size="14" lengthAdjust="spacing" textLength="101.1787" x="20" y="118.1426">Bagian Inventori</text><ellipse cx="73.5894" cy="52.1094" fill="#E2E2F0" rx="8" ry="8" style="stroke:#181818;stroke-width:0.5;"/><path d="M73.5894,60.1094 L73.5894,87.1094 M60.5894,68.1094 L86.5894,68.1094 M73.5894,87.1094 L60.5894,102.1094 M73.5894,87.1094 L86.5894,102.1094 " fill="none" style="stroke:#181818;stroke-width:0.5;"/><text fill="#000000" font-family="sans-serif" font-size="14" lengthAdjust="spacing" textLength="101.1787" x="20" y="2035.3301">Bagian Inventori</text><ellipse cx="73.5894" cy="2046.9063" fill="#E2E2F0" rx="8" ry="8" style="stroke:#181818;stroke-width:0.5;"/><path d="M73.5894,2054.9063 L73.5894,2081.9063 M60.5894,2062.9063 L86.5894,2062.9063 M73.5894,2081.9063 L60.5894,2096.9063 M73.5894,2081.9063 L86.5894,2096.9063 " fill="none" style="stroke:#181818;stroke-width:0.5;"/><rect fill="#E2E2F0" height="49.2188" rx="2.5" ry="2.5" style="stroke:#181818;stroke-width:0.5;" width="91.0205" x="226.9634" y="71"/><text fill="#000000" font-family="sans-serif" font-size="14" lengthAdjust="spacing" textLength="77.0205" x="233.9634" y="92.5332">Hitung/Form</text><text fill="#000000" font-family="sans-serif" font-size="14" lengthAdjust="spacing" textLength="60.6758" x="242.1357" y="110.1426">(Livewire)</text><rect fill="#E2E2F0" height="49.2188" rx="2.5" ry="2.5" style="stroke:#181818;stroke-width:0.5;" width="91.0205" x="226.9634" y="2020.7969"/><text fill="#000000" font-family="sans-serif" font-size="14" lengthAdjust="spacing" textLength="77.0205" x="233.9634" y="2042.3301">Hitung/Form</text><text fill="#000000" font-family="sans-serif" font-size="14" lengthAdjust="spacing" textLength="60.6758" x="242.1357" y="2059.9395">(Livewire)</text><rect fill="#E2E2F0" height="49.2188" rx="2.5" ry="2.5" style="stroke:#181818;stroke-width:0.5;" width="91.8135" x="332.8159" y="71"/><text fill="#000000" font-family="sans-serif" font-size="14" lengthAdjust="spacing" textLength="77.8135" x="339.8159" y="92.5332">Hitung/Mulai</text><text fill="#000000" font-family="sans-serif" font-size="14" lengthAdjust="spacing" textLength="60.6758" x="348.3848" y="110.1426">(Livewire)</text><rect fill="#E2E2F0" height="49.2188" rx="2.5" ry="2.5" style="stroke:#181818;stroke-width:0.5;" width="91.8135" x="332.8159" y="2020.7969"/><text fill="#000000" font-family="sans-serif" font-size="14" lengthAdjust="spacing" textLength="77.8135" x="339.8159" y="2042.3301">Hitung/Mulai</text><text fill="#000000" font-family="sans-serif" font-size="14" lengthAdjust="spacing" textLength="60.6758" x="348.3848" y="2059.9395">(Livewire)</text><rect fill="#E2E2F0" height="49.2188" rx="2.5" ry="2.5" style="stroke:#181818;stroke-width:0.5;" width="61.4551" x="561.5151" y="71"/><text fill="#000000" font-family="sans-serif" font-size="14" lengthAdjust="spacing" textLength="40.4688" x="572.0083" y="92.5332">Hitung</text><text fill="#000000" font-family="sans-serif" font-size="14" lengthAdjust="spacing" textLength="47.4551" x="568.5151" y="110.1426">(Model)</text><rect fill="#E2E2F0" height="49.2188" rx="2.5" ry="2.5" style="stroke:#181818;stroke-width:0.5;" width="61.4551" x="561.5151" y="2020.7969"/><text fill="#000000" font-family="sans-serif" font-size="14" lengthAdjust="spacing" textLength="40.4688" x="572.0083" y="2042.3301">Hitung</text><text fill="#000000" font-family="sans-serif" font-size="14" lengthAdjust="spacing" textLength="47.4551" x="568.5151" y="2059.9395">(Model)</text><rect fill="#E2E2F0" height="49.2188" rx="2.5" ry="2.5" style="stroke:#181818;stroke-width:0.5;" width="90.2617" x="725.6543" y="71"/><text fill="#000000" font-family="sans-serif" font-size="14" lengthAdjust="spacing" textLength="76.2617" x="732.6543" y="92.5332">HitungDetail</text><text fill="#000000" font-family="sans-serif" font-size="14" lengthAdjust="spacing" textLength="47.4551" x="747.0576" y="110.1426">(Model)</text><rect fill="#E2E2F0" height="49.2188" rx="2.5" ry="2.5" style="stroke:#181818;stroke-width:0.5;" width="90.2617" x="725.6543" y="2020.7969"/><text fill="#000000" font-family="sans-serif" font-size="14" lengthAdjust="spacing" textLength="76.2617" x="732.6543" y="2042.3301">HitungDetail</text><text fill="#000000" font-family="sans-serif" font-size="14" lengthAdjust="spacing" textLength="47.4551" x="747.0576" y="2059.9395">(Model)</text><rect fill="#E2E2F0" height="49.2188" rx="2.5" ry="2.5" style="stroke:#181818;stroke-width:0.5;" width="99.5928" x="825.916" y="71"/><text fill="#000000" font-family="sans-serif" font-size="14" lengthAdjust="spacing" textLength="85.5928" x="832.916" y="92.5332">MaterialBatch</text><text fill="#000000" font-family="sans-serif" font-size="14" lengthAdjust="spacing" textLength="47.4551" x="851.9849" y="110.1426">(Model)</text><rect fill="#E2E2F0" height="49.2188" rx="2.5" ry="2.5" style="stroke:#181818;stroke-width:0.5;" width="99.5928" x="825.916" y="2020.7969"/><text fill="#000000" font-family="sans-serif" font-size="14" lengthAdjust="spacing" textLength="85.5928" x="832.916" y="2042.3301">MaterialBatch</text><text fill="#000000" font-family="sans-serif" font-size="14" lengthAdjust="spacing" textLength="47.4551" x="851.9849" y="2059.9395">(Model)</text><rect fill="#E2E2F0" height="49.2188" rx="2.5" ry="2.5" style="stroke:#181818;stroke-width:0.5;" width="94.9443" x="1029.793" y="71"/><text fill="#000000" font-family="sans-serif" font-size="14" lengthAdjust="spacing" textLength="80.9443" x="1036.793" y="92.5332">InventoryLog</text><text fill="#000000" font-family="sans-serif" font-size="14" lengthAdjust="spacing" textLength="47.4551" x="1053.5376" y="110.1426">(Model)</text><rect fill="#E2E2F0" height="49.2188" rx="2.5" ry="2.5" style="stroke:#181818;stroke-width:0.5;" width="94.9443" x="1029.793" y="2020.7969"/><text fill="#000000" font-family="sans-serif" font-size="14" lengthAdjust="spacing" textLength="80.9443" x="1036.793" y="2042.3301">InventoryLog</text><text fill="#000000" font-family="sans-serif" font-size="14" lengthAdjust="spacing" textLength="47.4551" x="1053.5376" y="2059.9395">(Model)</text><text fill="#000000" font-family="sans-serif" font-size="14" lengthAdjust="spacing" textLength="59.9307" x="1243.0742" y="118.1426">Database</text><path d="M1258.0396,67.6094 C1258.0396,57.6094 1276.0396,57.6094 1276.0396,57.6094 C1276.0396,57.6094 1294.0396,57.6094 1294.0396,67.6094 L1294.0396,93.6094 C1294.0396,103.6094 1276.0396,103.6094 1276.0396,103.6094 C1276.0396,103.6094 1258.0396,103.6094 1258.0396,93.6094 L1258.0396,67.6094 " fill="#E2E2F0" style="stroke:#181818;stroke-width:1.5;"/><path d="M1258.0396,67.6094 C1258.0396,77.6094 1276.0396,77.6094 1276.0396,77.6094 C1276.0396,77.6094 1294.0396,77.6094 1294.0396,67.6094 " fill="none" style="stroke:#181818;stroke-width:1.5;"/><text fill="#000000" font-family="sans-serif" font-size="14" lengthAdjust="spacing" textLength="59.9307" x="1243.0742" y="2035.3301">Database</text><path d="M1258.0396,2048.4063 C1258.0396,2038.4063 1276.0396,2038.4063 1276.0396,2038.4063 C1276.0396,2038.4063 1294.0396,2038.4063 1294.0396,2048.4063 L1294.0396,2074.4063 C1294.0396,2084.4063 1276.0396,2084.4063 1276.0396,2084.4063 C1276.0396,2084.4063 1258.0396,2084.4063 1258.0396,2074.4063 L1258.0396,2048.4063 " fill="#E2E2F0" style="stroke:#181818;stroke-width:1.5;"/><path d="M1258.0396,2048.4063 C1258.0396,2058.4063 1276.0396,2058.4063 1276.0396,2058.4063 C1276.0396,2058.4063 1294.0396,2058.4063 1294.0396,2048.4063 " fill="none" style="stroke:#181818;stroke-width:1.5;"/><rect fill="#FFFFFF" height="713.0859" style="stroke:#181818;stroke-width:1.0;" width="10" x="267.4736" y="197.9219"/><rect fill="#FFFFFF" height="1018.0859" style="stroke:#181818;stroke-width:1.0;" width="10" x="373.7227" y="985.7109"/><rect fill="#FFFFFF" height="210.4609" style="stroke:#181818;stroke-width:1.0;" width="10" x="587.2427" y="546.7891"/><rect fill="#FFFFFF" height="60.7031" style="stroke:#181818;stroke-width:1.0;" width="10" x="765.7852" y="812.9531"/><rect fill="#FFFFFF" height="195.5938" style="stroke:#181818;stroke-width:1.0;" width="10" x="870.7124" y="1588.7422"/><rect fill="#FFFFFF" height="60.7031" style="stroke:#181818;stroke-width:1.0;" width="10" x="1072.2651" y="1814.6875"/><rect fill="#EEEEEE" height="3" style="stroke:#EEEEEE;stroke-width:1.0;" width="1329.0049" x="0" y="152.3945"/><line style="stroke:#000000;stroke-width:1.0;" x1="0" x2="1329.0049" y1="152.3945" y2="152.3945"/><line style="stroke:#000000;stroke-width:1.0;" x1="0" x2="1329.0049" y1="155.3945" y2="155.3945"/><rect fill="#EEEEEE" height="24.3516" style="stroke:#000000;stroke-width:2.0;" width="198.939" x="565.033" y="141.2188"/><text fill="#000000" font-family="sans-serif" font-size="13" font-weight="bold" lengthAdjust="spacing" textLength="181.3271" x="571.033" y="158.7139">Buat Rencana Stock Opname</text><polygon fill="#181818" points="255.4736,193.9219,265.4736,197.9219,255.4736,201.9219,259.4736,197.9219" style="stroke:#181818;stroke-width:1.0;"/><line style="stroke:#181818;stroke-width:1.0;" x1="73.5894" x2="261.4736" y1="197.9219" y2="197.9219"/><text fill="#000000" font-family="sans-serif" font-size="13" lengthAdjust="spacing" textLength="174.8843" x="80.5894" y="193.0654">Akses halaman tambah hitung</text><line style="stroke:#181818;stroke-width:1.0;" x1="277.4736" x2="319.4736" y1="228.2734" y2="228.2734"/><line style="stroke:#181818;stroke-width:1.0;" x1="319.4736" x2="319.4736" y1="228.2734" y2="241.2734"/><line style="stroke:#181818;stroke-width:1.0;" x1="278.4736" x2="319.4736" y1="241.2734" y2="241.2734"/><polygon fill="#181818" points="288.4736,237.2734,278.4736,241.2734,288.4736,245.2734,284.4736,241.2734" style="stroke:#181818;stroke-width:1.0;"/><text fill="#000000" font-family="sans-serif" font-size="13" lengthAdjust="spacing" textLength="72.249" x="284.4736" y="223.417">Render form</text><polygon fill="#181818" points="255.4736,267.625,265.4736,271.625,255.4736,275.625,259.4736,271.625" style="stroke:#181818;stroke-width:1.0;"/><line style="stroke:#181818;stroke-width:1.0;" x1="73.5894" x2="261.4736" y1="271.625" y2="271.625"/><text fill="#000000" font-family="sans-serif" font-size="13" lengthAdjust="spacing" textLength="109.8589" x="80.5894" y="266.7686">Pilih tanggal hitung</text><path d="M10,286.625 L82.4346,286.625 L82.4346,294.9766 L72.4346,304.9766 L10,304.9766 L10,286.625 " fill="#EEEEEE" style="stroke:#000000;stroke-width:1.5;"/><rect fill="none" height="200.4609" style="stroke:#000000;stroke-width:1.5;" width="1309.0049" x="10" y="286.625"/><text fill="#000000" font-family="sans-serif" font-size="13" font-weight="bold" lengthAdjust="spacing" textLength="27.4346" x="25" y="301.1201">loop</text><text fill="#000000" font-family="sans-serif" font-size="11" font-weight="bold" lengthAdjust="spacing" textLength="110.623" x="97.4346" y="300.0439">[Tambah item bahan]</text><polygon fill="#181818" points="255.4736,323.3281,265.4736,327.3281,255.4736,331.3281,259.4736,327.3281" style="stroke:#181818;stroke-width:1.0;"/><line style="stroke:#181818;stroke-width:1.0;" x1="73.5894" x2="261.4736" y1="327.3281" y2="327.3281"/><text fill="#000000" font-family="sans-serif" font-size="13" lengthAdjust="spacing" textLength="96.1289" x="80.5894" y="322.4717">Pilih bahan baku</text><polygon fill="#181818" points="863.7124,353.6797,873.7124,357.6797,863.7124,361.6797,867.7124,357.6797" style="stroke:#181818;stroke-width:1.0;"/><line style="stroke:#181818;stroke-width:1.0;" x1="277.4736" x2="869.7124" y1="357.6797" y2="357.6797"/><text fill="#000000" font-family="sans-serif" font-size="13" lengthAdjust="spacing" textLength="237.3516" x="284.4736" y="352.8232">where(material_id)-&gt;sum(batch_quantity)</text><polygon fill="#181818" points="1264.0396,384.0313,1274.0396,388.0313,1264.0396,392.0313,1268.0396,388.0313" style="stroke:#181818;stroke-width:1.0;"/><line style="stroke:#181818;stroke-width:1.0;" x1="875.7124" x2="1270.0396" y1="388.0313" y2="388.0313"/><text fill="#000000" font-family="sans-serif" font-size="13" lengthAdjust="spacing" textLength="176.2935" x="882.7124" y="383.1748">SELECT SUM(batch_quantity)</text><polygon fill="#181818" points="886.7124,414.3828,876.7124,418.3828,886.7124,422.3828,882.7124,418.3828" style="stroke:#181818;stroke-width:1.0;"/><line style="stroke:#181818;stroke-width:1.0;stroke-dasharray:2.0,2.0;" x1="880.7124" x2="1275.0396" y1="418.3828" y2="418.3828"/><text fill="#000000" font-family="sans-serif" font-size="13" lengthAdjust="spacing" textLength="90.3145" x="892.7124" y="413.5264">system quantity</text><polygon fill="#181818" points="288.4736,444.7344,278.4736,448.7344,288.4736,452.7344,284.4736,448.7344" style="stroke:#181818;stroke-width:1.0;"/><line style="stroke:#181818;stroke-width:1.0;stroke-dasharray:2.0,2.0;" x1="282.4736" x2="874.7124" y1="448.7344" y2="448.7344"/><text fill="#000000" font-family="sans-serif" font-size="13" lengthAdjust="spacing" textLength="95.3735" x="294.4736" y="443.8779">Kuantitas sistem</text><polygon fill="#181818" points="84.5894,475.0859,74.5894,479.0859,84.5894,483.0859,80.5894,479.0859" style="stroke:#181818;stroke-width:1.0;"/><line style="stroke:#181818;stroke-width:1.0;stroke-dasharray:2.0,2.0;" x1="78.5894" x2="266.4736" y1="479.0859" y2="479.0859"/><text fill="#000000" font-family="sans-serif" font-size="13" lengthAdjust="spacing" textLength="156.7808" x="90.5894" y="474.2295">Tampilkan kuantitas sistem</text><polygon fill="#181818" points="255.4736,512.4375,265.4736,516.4375,255.4736,520.4375,259.4736,516.4375" style="stroke:#181818;stroke-width:1.0;"/><line style="stroke:#181818;stroke-width:1.0;" x1="73.5894" x2="261.4736" y1="516.4375" y2="516.4375"/><text fill="#000000" font-family="sans-serif" font-size="13" lengthAdjust="spacing" textLength="94.6689" x="80.5894" y="511.5811">Simpan rencana</text><polygon fill="#181818" points="575.2427,542.7891,585.2427,546.7891,575.2427,550.7891,579.2427,546.7891" style="stroke:#181818;stroke-width:1.0;"/><line style="stroke:#181818;stroke-width:1.0;" x1="277.4736" x2="581.2427" y1="546.7891" y2="546.7891"/><text fill="#000000" font-family="sans-serif" font-size="13" lengthAdjust="spacing" textLength="161.8589" x="284.4736" y="541.9326">create(user_id, date, status)</text><line style="stroke:#181818;stroke-width:1.0;" x1="597.2427" x2="639.2427" y1="593.4922" y2="593.4922"/><line style="stroke:#181818;stroke-width:1.0;" x1="639.2427" x2="639.2427" y1="593.4922" y2="606.4922"/><line style="stroke:#181818;stroke-width:1.0;" x1="598.2427" x2="639.2427" y1="606.4922" y2="606.4922"/><polygon fill="#181818" points="608.2427,602.4922,598.2427,606.4922,608.2427,610.4922,604.2427,606.4922" style="stroke:#181818;stroke-width:1.0;"/><text fill="#000000" font-family="sans-serif" font-size="13" lengthAdjust="spacing" textLength="33.96" x="604.2427" y="572.2842">boot()</text><text fill="#000000" font-family="sans-serif" font-size="13" lengthAdjust="spacing" textLength="89.5908" x="604.2427" y="588.6357">Generate UUID</text><line style="stroke:#181818;stroke-width:1.0;" x1="597.2427" x2="639.2427" y1="653.1953" y2="653.1953"/><line style="stroke:#181818;stroke-width:1.0;" x1="639.2427" x2="639.2427" y1="653.1953" y2="666.1953"/><line style="stroke:#181818;stroke-width:1.0;" x1="598.2427" x2="639.2427" y1="666.1953" y2="666.1953"/><polygon fill="#181818" points="608.2427,662.1953,598.2427,666.1953,608.2427,670.1953,604.2427,666.1953" style="stroke:#181818;stroke-width:1.0;"/><text fill="#000000" font-family="sans-serif" font-size="13" lengthAdjust="spacing" textLength="144.5425" x="604.2427" y="631.9873">Generate hitung_number</text><text fill="#000000" font-family="sans-serif" font-size="13" lengthAdjust="spacing" textLength="128.5527" x="604.2427" y="648.3389">(HC-YYMMDD-XXXX)</text><polygon fill="#181818" points="1264.0396,692.5469,1274.0396,696.5469,1264.0396,700.5469,1268.0396,696.5469" style="stroke:#181818;stroke-width:1.0;"/><line style="stroke:#181818;stroke-width:1.0;" x1="597.2427" x2="1270.0396" y1="696.5469" y2="696.5469"/><text fill="#000000" font-family="sans-serif" font-size="13" lengthAdjust="spacing" textLength="127.8672" x="604.2427" y="691.6904">INSERT INTO hitungs</text><polygon fill="#181818" points="608.2427,722.8984,598.2427,726.8984,608.2427,730.8984,604.2427,726.8984" style="stroke:#181818;stroke-width:1.0;"/><line style="stroke:#181818;stroke-width:1.0;stroke-dasharray:2.0,2.0;" x1="602.2427" x2="1275.0396" y1="726.8984" y2="726.8984"/><text fill="#000000" font-family="sans-serif" font-size="13" lengthAdjust="spacing" textLength="18.7827" x="614.2427" y="722.042">OK</text><polygon fill="#181818" points="288.4736,753.25,278.4736,757.25,288.4736,761.25,284.4736,757.25" style="stroke:#181818;stroke-width:1.0;"/><line style="stroke:#181818;stroke-width:1.0;stroke-dasharray:2.0,2.0;" x1="282.4736" x2="591.2427" y1="757.25" y2="757.25"/><text fill="#000000" font-family="sans-serif" font-size="13" lengthAdjust="spacing" textLength="149.5889" x="294.4736" y="752.3936">Hitung created (hitung_id)</text><path d="M216.9634,772.25 L289.3979,772.25 L289.3979,780.6016 L279.3979,790.6016 L216.9634,790.6016 L216.9634,772.25 " fill="#EEEEEE" style="stroke:#000000;stroke-width:1.5;"/><rect fill="none" height="109.4063" style="stroke:#000000;stroke-width:1.5;" width="1102.0415" x="216.9634" y="772.25"/><text fill="#000000" font-family="sans-serif" font-size="13" font-weight="bold" lengthAdjust="spacing" textLength="27.4346" x="231.9634" y="786.7451">loop</text><text fill="#000000" font-family="sans-serif" font-size="11" font-weight="bold" lengthAdjust="spacing" textLength="99.0107" x="304.3979" y="785.6689">[Untuk setiap item]</text><polygon fill="#181818" points="753.7852,808.9531,763.7852,812.9531,753.7852,816.9531,757.7852,812.9531" style="stroke:#181818;stroke-width:1.0;"/><line style="stroke:#181818;stroke-width:1.0;" x1="277.4736" x2="759.7852" y1="812.9531" y2="812.9531"/><text fill="#000000" font-family="sans-serif" font-size="13" lengthAdjust="spacing" textLength="241.3315" x="284.4736" y="808.0967">create(hitung_id, material_id, system_qty)</text><polygon fill="#181818" points="1264.0396,839.3047,1274.0396,843.3047,1264.0396,847.3047,1268.0396,843.3047" style="stroke:#181818;stroke-width:1.0;"/><line style="stroke:#181818;stroke-width:1.0;" x1="775.7852" x2="1270.0396" y1="843.3047" y2="843.3047"/><text fill="#000000" font-family="sans-serif" font-size="13" lengthAdjust="spacing" textLength="166.1753" x="782.7852" y="838.4482">INSERT INTO hitung_details</text><polygon fill="#181818" points="781.7852,869.6563,771.7852,873.6563,781.7852,877.6563,777.7852,873.6563" style="stroke:#181818;stroke-width:1.0;"/><line style="stroke:#181818;stroke-width:1.0;stroke-dasharray:2.0,2.0;" x1="775.7852" x2="1275.0396" y1="873.6563" y2="873.6563"/><text fill="#000000" font-family="sans-serif" font-size="13" lengthAdjust="spacing" textLength="18.7827" x="787.7852" y="868.7998">OK</text><polygon fill="#181818" points="84.5894,907.0078,74.5894,911.0078,84.5894,915.0078,80.5894,911.0078" style="stroke:#181818;stroke-width:1.0;"/><line style="stroke:#181818;stroke-width:1.0;stroke-dasharray:2.0,2.0;" x1="78.5894" x2="271.4736" y1="911.0078" y2="911.0078"/><text fill="#000000" font-family="sans-serif" font-size="13" lengthAdjust="spacing" textLength="151.7598" x="90.5894" y="906.1514">Rencana hitung tersimpan</text><rect fill="#EEEEEE" height="3" style="stroke:#EEEEEE;stroke-width:1.0;" width="1329.0049" x="0" y="940.1836"/><line style="stroke:#000000;stroke-width:1.0;" x1="0" x2="1329.0049" y1="940.1836" y2="940.1836"/><line style="stroke:#000000;stroke-width:1.0;" x1="0" x2="1329.0049" y1="943.1836" y2="943.1836"/><rect fill="#EEEEEE" height="24.3516" style="stroke:#000000;stroke-width:2.0;" width="191.0234" x="568.9907" y="929.0078"/><text fill="#000000" font-family="sans-serif" font-size="13" font-weight="bold" lengthAdjust="spacing" textLength="173.4116" x="574.9907" y="946.5029">Pelaksanaan Stock Opname</text><polygon fill="#181818" points="361.7227,981.7109,371.7227,985.7109,361.7227,989.7109,365.7227,985.7109" style="stroke:#181818;stroke-width:1.0;"/><line style="stroke:#181818;stroke-width:1.0;" x1="73.5894" x2="367.7227" y1="985.7109" y2="985.7109"/><text fill="#000000" font-family="sans-serif" font-size="13" lengthAdjust="spacing" textLength="113.4771" x="80.5894" y="980.8545">Mulai penghitungan</text><polygon fill="#181818" points="580.2427,1012.0625,590.2427,1016.0625,580.2427,1020.0625,584.2427,1016.0625" style="stroke:#181818;stroke-width:1.0;"/><line style="stroke:#181818;stroke-width:1.0;" x1="383.7227" x2="586.2427" y1="1016.0625" y2="1016.0625"/><text fill="#000000" font-family="sans-serif" font-size="13" lengthAdjust="spacing" textLength="170.8599" x="390.7227" y="1011.2061">find(id)-&gt;with(details.material)</text><polygon fill="#181818" points="1264.0396,1042.4141,1274.0396,1046.4141,1264.0396,1050.4141,1268.0396,1046.4141" style="stroke:#181818;stroke-width:1.0;"/><line style="stroke:#181818;stroke-width:1.0;" x1="592.2427" x2="1270.0396" y1="1046.4141" y2="1046.4141"/><text fill="#000000" font-family="sans-serif" font-size="13" lengthAdjust="spacing" textLength="194.3271" x="599.2427" y="1041.5576">SELECT * FROM hitungs JOIN ...</text><polygon fill="#181818" points="603.2427,1072.7656,593.2427,1076.7656,603.2427,1080.7656,599.2427,1076.7656" style="stroke:#181818;stroke-width:1.0;"/><line style="stroke:#181818;stroke-width:1.0;stroke-dasharray:2.0,2.0;" x1="597.2427" x2="1275.0396" y1="1076.7656" y2="1076.7656"/><text fill="#000000" font-family="sans-serif" font-size="13" lengthAdjust="spacing" textLength="103.3398" x="609.2427" y="1071.9092">hitung with details</text><polygon fill="#181818" points="394.7227,1103.1172,384.7227,1107.1172,394.7227,1111.1172,390.7227,1107.1172" style="stroke:#181818;stroke-width:1.0;"/><line style="stroke:#181818;stroke-width:1.0;stroke-dasharray:2.0,2.0;" x1="388.7227" x2="591.2427" y1="1107.1172" y2="1107.1172"/><text fill="#000000" font-family="sans-serif" font-size="13" lengthAdjust="spacing" textLength="75.8799" x="400.7227" y="1102.2607">Hitung object</text><polygon fill="#181818" points="580.2427,1133.4688,590.2427,1137.4688,580.2427,1141.4688,584.2427,1137.4688" style="stroke:#181818;stroke-width:1.0;"/><line style="stroke:#181818;stroke-width:1.0;" x1="383.7227" x2="586.2427" y1="1137.4688" y2="1137.4688"/><text fill="#000000" font-family="sans-serif" font-size="13" lengthAdjust="spacing" textLength="184.52" x="390.7227" y="1132.6123">update(status = 'Dalam Proses')</text><polygon fill="#181818" points="1264.0396,1163.8203,1274.0396,1167.8203,1264.0396,1171.8203,1268.0396,1167.8203" style="stroke:#181818;stroke-width:1.0;"/><line style="stroke:#181818;stroke-width:1.0;" x1="592.2427" x2="1270.0396" y1="1167.8203" y2="1167.8203"/><text fill="#000000" font-family="sans-serif" font-size="13" lengthAdjust="spacing" textLength="165.4517" x="599.2427" y="1162.9639">UPDATE hitungs SET status</text><polygon fill="#181818" points="603.2427,1194.1719,593.2427,1198.1719,603.2427,1202.1719,599.2427,1198.1719" style="stroke:#181818;stroke-width:1.0;"/><line style="stroke:#181818;stroke-width:1.0;stroke-dasharray:2.0,2.0;" x1="597.2427" x2="1275.0396" y1="1198.1719" y2="1198.1719"/><text fill="#000000" font-family="sans-serif" font-size="13" lengthAdjust="spacing" textLength="18.7827" x="609.2427" y="1193.3154">OK</text><polygon fill="#181818" points="84.5894,1224.5234,74.5894,1228.5234,84.5894,1232.5234,80.5894,1228.5234" style="stroke:#181818;stroke-width:1.0;"/><line style="stroke:#181818;stroke-width:1.0;stroke-dasharray:2.0,2.0;" x1="78.5894" x2="372.7227" y1="1228.5234" y2="1228.5234"/><text fill="#000000" font-family="sans-serif" font-size="13" lengthAdjust="spacing" textLength="124.9917" x="90.5894" y="1223.667">Tampilkan daftar item</text><path d="M10,1243.5234 L82.4346,1243.5234 L82.4346,1251.875 L72.4346,1261.875 L10,1261.875 L10,1243.5234 " fill="#EEEEEE" style="stroke:#000000;stroke-width:1.5;"/><rect fill="none" height="260.1641" style="stroke:#000000;stroke-width:1.5;" width="1309.0049" x="10" y="1243.5234"/><text fill="#000000" font-family="sans-serif" font-size="13" font-weight="bold" lengthAdjust="spacing" textLength="27.4346" x="25" y="1258.0186">loop</text><text fill="#000000" font-family="sans-serif" font-size="11" font-weight="bold" lengthAdjust="spacing" textLength="99.0107" x="97.4346" y="1256.9424">[Untuk setiap item]</text><polygon fill="#181818" points="84.5894,1280.2266,74.5894,1284.2266,84.5894,1288.2266,80.5894,1284.2266" style="stroke:#181818;stroke-width:1.0;"/><line style="stroke:#181818;stroke-width:1.0;stroke-dasharray:2.0,2.0;" x1="78.5894" x2="372.7227" y1="1284.2266" y2="1284.2266"/><text fill="#000000" font-family="sans-serif" font-size="13" lengthAdjust="spacing" textLength="221.8442" x="90.5894" y="1279.3701">Tampilkan bahan dan kuantitas sistem</text><polygon fill="#181818" points="361.7227,1310.5781,371.7227,1314.5781,361.7227,1318.5781,365.7227,1314.5781" style="stroke:#181818;stroke-width:1.0;"/><line style="stroke:#181818;stroke-width:1.0;" x1="73.5894" x2="367.7227" y1="1314.5781" y2="1314.5781"/><text fill="#000000" font-family="sans-serif" font-size="13" lengthAdjust="spacing" textLength="122.8589" x="80.5894" y="1309.7217">Input kuantitas aktual</text><line style="stroke:#181818;stroke-width:1.0;" x1="383.7227" x2="425.7227" y1="1361.2813" y2="1361.2813"/><line style="stroke:#181818;stroke-width:1.0;" x1="425.7227" x2="425.7227" y1="1361.2813" y2="1374.2813"/><line style="stroke:#181818;stroke-width:1.0;" x1="384.7227" x2="425.7227" y1="1374.2813" y2="1374.2813"/><polygon fill="#181818" points="394.7227,1370.2813,384.7227,1374.2813,394.7227,1378.2813,390.7227,1374.2813" style="stroke:#181818;stroke-width:1.0;"/><text fill="#000000" font-family="sans-serif" font-size="13" lengthAdjust="spacing" textLength="77.3145" x="390.7227" y="1340.0732">Hitung selisih</text><text fill="#000000" font-family="sans-serif" font-size="13" lengthAdjust="spacing" textLength="92.46" x="390.7227" y="1356.4248">(aktual - sistem)</text><polygon fill="#181818" points="758.7852,1400.6328,768.7852,1404.6328,758.7852,1408.6328,762.7852,1404.6328" style="stroke:#181818;stroke-width:1.0;"/><line style="stroke:#181818;stroke-width:1.0;" x1="383.7227" x2="764.7852" y1="1404.6328" y2="1404.6328"/><text fill="#000000" font-family="sans-serif" font-size="13" lengthAdjust="spacing" textLength="171.9961" x="390.7227" y="1399.7764">update(actual_qty, difference)</text><polygon fill="#181818" points="1264.0396,1430.9844,1274.0396,1434.9844,1264.0396,1438.9844,1268.0396,1434.9844" style="stroke:#181818;stroke-width:1.0;"/><line style="stroke:#181818;stroke-width:1.0;" x1="770.7852" x2="1270.0396" y1="1434.9844" y2="1434.9844"/><text fill="#000000" font-family="sans-serif" font-size="13" lengthAdjust="spacing" textLength="136.5698" x="777.7852" y="1430.1279">UPDATE hitung_details</text><polygon fill="#181818" points="781.7852,1461.3359,771.7852,1465.3359,781.7852,1469.3359,777.7852,1465.3359" style="stroke:#181818;stroke-width:1.0;"/><line style="stroke:#181818;stroke-width:1.0;stroke-dasharray:2.0,2.0;" x1="775.7852" x2="1275.0396" y1="1465.3359" y2="1465.3359"/><text fill="#000000" font-family="sans-serif" font-size="13" lengthAdjust="spacing" textLength="18.7827" x="787.7852" y="1460.4795">OK</text><polygon fill="#181818" points="84.5894,1491.6875,74.5894,1495.6875,84.5894,1499.6875,80.5894,1495.6875" style="stroke:#181818;stroke-width:1.0;"/><line style="stroke:#181818;stroke-width:1.0;stroke-dasharray:2.0,2.0;" x1="78.5894" x2="372.7227" y1="1495.6875" y2="1495.6875"/><text fill="#000000" font-family="sans-serif" font-size="13" lengthAdjust="spacing" textLength="99.7026" x="90.5894" y="1490.8311">Tampilkan selisih</text><polygon fill="#181818" points="361.7227,1529.0391,371.7227,1533.0391,361.7227,1537.0391,365.7227,1533.0391" style="stroke:#181818;stroke-width:1.0;"/><line style="stroke:#181818;stroke-width:1.0;" x1="73.5894" x2="367.7227" y1="1533.0391" y2="1533.0391"/><text fill="#000000" font-family="sans-serif" font-size="13" lengthAdjust="spacing" textLength="105.4854" x="80.5894" y="1528.1826">Konfirmasi selesai</text><path d="M322.8159,1548.0391 L395.2505,1548.0391 L395.2505,1556.3906 L385.2505,1566.3906 L322.8159,1566.3906 L322.8159,1548.0391 " fill="#EEEEEE" style="stroke:#000000;stroke-width:1.5;"/><rect fill="none" height="335.3516" style="stroke:#000000;stroke-width:1.5;" width="996.189" x="322.8159" y="1548.0391"/><text fill="#000000" font-family="sans-serif" font-size="13" font-weight="bold" lengthAdjust="spacing" textLength="27.4346" x="337.8159" y="1562.5342">loop</text><text fill="#000000" font-family="sans-serif" font-size="11" font-weight="bold" lengthAdjust="spacing" textLength="178.4761" x="410.2505" y="1561.458">[Untuk setiap item dengan selisih]</text><polygon fill="#181818" points="858.7124,1584.7422,868.7124,1588.7422,858.7124,1592.7422,862.7124,1588.7422" style="stroke:#181818;stroke-width:1.0;"/><line style="stroke:#181818;stroke-width:1.0;" x1="383.7227" x2="864.7124" y1="1588.7422" y2="1588.7422"/><text fill="#000000" font-family="sans-serif" font-size="13" lengthAdjust="spacing" textLength="148.8525" x="390.7227" y="1583.8857">adjustQuantity(difference)</text><path d="M815.916,1603.7422 L876.0869,1603.7422 L876.0869,1612.0938 L866.0869,1622.0938 L815.916,1622.0938 L815.916,1603.7422 " fill="#EEEEEE" style="stroke:#000000;stroke-width:1.5;"/><rect fill="none" height="120.8906" style="stroke:#000000;stroke-width:1.5;" width="261.3491" x="815.916" y="1603.7422"/><text fill="#000000" font-family="sans-serif" font-size="13" font-weight="bold" lengthAdjust="spacing" textLength="15.1709" x="830.916" y="1618.2373">alt</text><text fill="#000000" font-family="sans-serif" font-size="11" font-weight="bold" lengthAdjust="spacing" textLength="140.5615" x="891.0869" y="1617.1611">[Selisih positif (stok lebih)]</text><line style="stroke:#181818;stroke-width:1.0;" x1="880.7124" x2="922.7124" y1="1644.4453" y2="1644.4453"/><line style="stroke:#181818;stroke-width:1.0;" x1="922.7124" x2="922.7124" y1="1644.4453" y2="1657.4453"/><line style="stroke:#181818;stroke-width:1.0;" x1="881.7124" x2="922.7124" y1="1657.4453" y2="1657.4453"/><polygon fill="#181818" points="891.7124,1653.4453,881.7124,1657.4453,891.7124,1661.4453,887.7124,1657.4453" style="stroke:#181818;stroke-width:1.0;"/><text fill="#000000" font-family="sans-serif" font-size="13" lengthAdjust="spacing" textLength="164.0615" x="887.7124" y="1639.5889">batch_quantity += difference</text><line style="stroke:#000000;stroke-width:1.0;stroke-dasharray:2.0,2.0;" x1="815.916" x2="1077.2651" y1="1666.4453" y2="1666.4453"/><text fill="#000000" font-family="sans-serif" font-size="11" font-weight="bold" lengthAdjust="spacing" textLength="154.6284" x="820.916" y="1677.8643">[Selisih negatif (stok kurang)]</text><line style="stroke:#181818;stroke-width:1.0;" x1="880.7124" x2="922.7124" y1="1703.6328" y2="1703.6328"/><line style="stroke:#181818;stroke-width:1.0;" x1="922.7124" x2="922.7124" y1="1703.6328" y2="1716.6328"/><line style="stroke:#181818;stroke-width:1.0;" x1="881.7124" x2="922.7124" y1="1716.6328" y2="1716.6328"/><polygon fill="#181818" points="891.7124,1712.6328,881.7124,1716.6328,891.7124,1720.6328,887.7124,1716.6328" style="stroke:#181818;stroke-width:1.0;"/><text fill="#000000" font-family="sans-serif" font-size="13" lengthAdjust="spacing" textLength="167.5527" x="887.7124" y="1698.7764">batch_quantity -= |difference|</text><polygon fill="#181818" points="1264.0396,1749.9844,1274.0396,1753.9844,1264.0396,1757.9844,1268.0396,1753.9844" style="stroke:#181818;stroke-width:1.0;"/><line style="stroke:#181818;stroke-width:1.0;" x1="880.7124" x2="1270.0396" y1="1753.9844" y2="1753.9844"/><text fill="#000000" font-family="sans-serif" font-size="13" lengthAdjust="spacing" textLength="155.3398" x="887.7124" y="1749.1279">UPDATE material_batches</text><polygon fill="#181818" points="886.7124,1780.3359,876.7124,1784.3359,886.7124,1788.3359,882.7124,1784.3359" style="stroke:#181818;stroke-width:1.0;"/><line style="stroke:#181818;stroke-width:1.0;stroke-dasharray:2.0,2.0;" x1="880.7124" x2="1275.0396" y1="1784.3359" y2="1784.3359"/><text fill="#000000" font-family="sans-serif" font-size="13" lengthAdjust="spacing" textLength="18.7827" x="892.7124" y="1779.4795">OK</text><polygon fill="#181818" points="1060.2651,1810.6875,1070.2651,1814.6875,1060.2651,1818.6875,1064.2651,1814.6875" style="stroke:#181818;stroke-width:1.0;"/><line style="stroke:#181818;stroke-width:1.0;" x1="383.7227" x2="1066.2651" y1="1814.6875" y2="1814.6875"/><text fill="#000000" font-family="sans-serif" font-size="13" lengthAdjust="spacing" textLength="165.7627" x="390.7227" y="1809.8311">create(action='penyesuaian')</text><polygon fill="#181818" points="1264.0396,1841.0391,1274.0396,1845.0391,1264.0396,1849.0391,1268.0396,1845.0391" style="stroke:#181818;stroke-width:1.0;"/><line style="stroke:#181818;stroke-width:1.0;" x1="1082.2651" x2="1270.0396" y1="1845.0391" y2="1845.0391"/><text fill="#000000" font-family="sans-serif" font-size="13" lengthAdjust="spacing" textLength="169.7744" x="1089.2651" y="1840.1826">INSERT INTO inventory_logs</text><polygon fill="#181818" points="1088.2651,1871.3906,1078.2651,1875.3906,1088.2651,1879.3906,1084.2651,1875.3906" style="stroke:#181818;stroke-width:1.0;"/><line style="stroke:#181818;stroke-width:1.0;stroke-dasharray:2.0,2.0;" x1="1082.2651" x2="1275.0396" y1="1875.3906" y2="1875.3906"/><text fill="#000000" font-family="sans-serif" font-size="13" lengthAdjust="spacing" textLength="18.7827" x="1094.2651" y="1870.5342">OK</text><polygon fill="#181818" points="580.2427,1908.7422,590.2427,1912.7422,580.2427,1916.7422,584.2427,1912.7422" style="stroke:#181818;stroke-width:1.0;"/><line style="stroke:#181818;stroke-width:1.0;" x1="383.7227" x2="586.2427" y1="1912.7422" y2="1912.7422"/><text fill="#000000" font-family="sans-serif" font-size="13" lengthAdjust="spacing" textLength="145.52" x="390.7227" y="1907.8857">update(status = 'Selesai')</text><polygon fill="#181818" points="1264.0396,1939.0938,1274.0396,1943.0938,1264.0396,1947.0938,1268.0396,1943.0938" style="stroke:#181818;stroke-width:1.0;"/><line style="stroke:#181818;stroke-width:1.0;" x1="592.2427" x2="1270.0396" y1="1943.0938" y2="1943.0938"/><text fill="#000000" font-family="sans-serif" font-size="13" lengthAdjust="spacing" textLength="165.4517" x="599.2427" y="1938.2373">UPDATE hitungs SET status</text><polygon fill="#181818" points="603.2427,1969.4453,593.2427,1973.4453,603.2427,1977.4453,599.2427,1973.4453" style="stroke:#181818;stroke-width:1.0;"/><line style="stroke:#181818;stroke-width:1.0;stroke-dasharray:2.0,2.0;" x1="597.2427" x2="1275.0396" y1="1973.4453" y2="1973.4453"/><text fill="#000000" font-family="sans-serif" font-size="13" lengthAdjust="spacing" textLength="18.7827" x="609.2427" y="1968.5889">OK</text><polygon fill="#181818" points="84.5894,1999.7969,74.5894,2003.7969,84.5894,2007.7969,80.5894,2003.7969" style="stroke:#181818;stroke-width:1.0;"/><line style="stroke:#181818;stroke-width:1.0;stroke-dasharray:2.0,2.0;" x1="78.5894" x2="377.7227" y1="2003.7969" y2="2003.7969"/><text fill="#000000" font-family="sans-serif" font-size="13" lengthAdjust="spacing" textLength="127.1816" x="90.5894" y="1998.9404">Stock opname selesai</text><!--SRC=[hLPDR-984BtxLvHoYTaDsNiaHfeCp0wRC6G3I3lIIAZ01VJORZlkTg98y-Et-iEVEBCvB0T0xLUlgrw_ghOMEY5OqLD9Saym5NWiCBs1bSxsCInpYIa50UvrLi35BHu5IfZBPvAy82u05PIAYY37Gekzo55gkFWYT2cFVtpEYlIx3E_5Cxs8WaOMVU35GVIYJ52SmPLcw12UaOiieiJ1JdPj23SbZIBfeYExraKlK5CXCBb5lJzruJkpr4LN2hpUPxrCakmOHAXnXuhWOkh_kMrtGJ2Pm6s96XvPRPJOaHacao0mQiBuWzK9Rk1Zh8ZBmmHJ5bvZkiDJLIqVYdZcj9scWOre8dc7YAdSinxhWqZ4YTdayOX9HHSaMPR3scqXDALS-0bb0FmPZBUF-JikBQRQtyh5e9SJ5HIcNjUjY4RZ3wfCG_jy-rIoa4A_ZcoiY-7WQCUHgzdzxDCQLfl589WnuzO-wbMPP2jCcw_9-CuzDOuI1jxAc46sl1jJUowIc8kA-t0Myqp5bKZP3L2uesmEmEd9W7r1N7remhZyAs1Vq9Mnj2xLg3c-IdyVrsROPPaEHz_bdoIfCDZDPZuT0jO0jxALPRgZWgtvvTFusxV5OZeT_yEVKIlMIZt_kfezhlbdlVIXAl3wrjpBkpggATvrboynWj3lowSS116TrMQzjP6wZ46H5fXRXtLyuxgoaQrcl8AMYQxyUM-VAZlKU_csjXPnN6zNkNK8rJPKdG0Nx4ZwrDO5VTTKhUmruaoLDKP71zU6tFqFb62i6C_EURFvxTHZQZiJ8ITvTEHCMZEwoHWuQFku3a96eUss5w5FeI_qkjBmp0A-stw3pu_BHMK2-6iv_mhNrzTdRl1_33TK8hRiKQNk_P7jVj1-CCqoD-qGkcw02LnEpP23XoBZYNTvbkNcOVfnFQlJMytMlf66x5fjDzJQ4HxueRFVhspv2met-AAXEM4YEnEpqcCkyrAty1Zh4fC6NmlK4r1H8fGmDvABWB7VQZGGMplOYyjcuH3JAZnynE50PbRHQAX5Elg-fpl-IoIVU7ToLiNTPV8WYXILC3XIADuw2zxN-BwcwzHRNG4O_IYL_jlV066_rBfdt4rUPu-9vZSVomjvfeGM1s13PZ4aj1Cd5zovdgeDkzSI_3vfoMkZA55KSqiwOiCTbmLVlEyd7q_WPyF-qz6pg7KPtSlJ7sGzCkrJKaCtv_cSwmbK2yrlDSrWDkXCJYvvBhsIAf5V2IzxGfkt8BDWueQ6iAZUdxQCwEJcTZhFp31QAxrZagoSfVxt8UBcTURcTUtRLf9k9lyB]--></g></svg>