<svg xmlns="http://www.w3.org/2000/svg" xmlns:xlink="http://www.w3.org/1999/xlink" contentStyleType="text/css" height="2179px" preserveAspectRatio="none" style="width:1053px;height:2179px;background:#FFFFFF;" version="1.1" viewBox="0 0 1053 2179" width="1053px" zoomAndPan="magnify"><title>Sequence Diagram: Mengelola Satuan</title><defs/><g><text fill="#000000" font-family="sans-serif" font-size="14" font-weight="bold" lengthAdjust="spacing" textLength="253.6201" x="396.1741" y="29.5332">Sequence Diagram: Mengelola Satuan</text><rect fill="#FFFFFF" height="242.8125" style="stroke:#181818;stroke-width:1.0;" width="10" x="185.3716" y="197.9219"/><rect fill="#FFFFFF" height="182.1094" style="stroke:#181818;stroke-width:1.0;" width="10" x="423.2476" y="228.2734"/><rect fill="#FFFFFF" height="346.8672" style="stroke:#181818;stroke-width:1.0;" width="10" x="423.2476" y="727.8984"/><rect fill="#FFFFFF" height="74.2305" style="stroke:#181818;stroke-width:1.0;" width="10" x="423.2476" y="1179.8203"/><rect fill="#FFFFFF" height="195.1094" style="stroke:#181818;stroke-width:1.0;" width="10" x="423.2476" y="1358.6328"/><rect fill="#FFFFFF" height="398.4063" style="stroke:#181818;stroke-width:1.0;" width="10" x="423.2476" y="1689.1484"/><rect fill="#FFFFFF" height="121.4063" style="stroke:#181818;stroke-width:1.0;" width="10" x="645.4067" y="258.625"/><rect fill="#FFFFFF" height="91.0547" style="stroke:#181818;stroke-width:1.0;" width="10" x="645.4067" y="801.6016"/><rect fill="#FFFFFF" height="91.0547" style="stroke:#181818;stroke-width:1.0;" width="10" x="645.4067" y="923.0078"/><rect fill="#FFFFFF" height="91.0547" style="stroke:#181818;stroke-width:1.0;" width="10" x="645.4067" y="1432.3359"/><rect fill="#FFFFFF" height="91.0547" style="stroke:#181818;stroke-width:1.0;" width="10" x="645.4067" y="1719.5"/><rect fill="#FFFFFF" height="91.0547" style="stroke:#181818;stroke-width:1.0;" width="10" x="645.4067" y="1866.2578"/><rect fill="none" height="255" style="stroke:#000000;stroke-width:1.5;" width="915.7412" x="121.2271" y="1825.5547"/><line style="stroke:#181818;stroke-width:0.5;stroke-dasharray:5.0,5.0;" x1="34" x2="34" y1="121.2188" y2="2097.5547"/><line style="stroke:#181818;stroke-width:0.5;stroke-dasharray:5.0,5.0;" x1="190.2271" x2="190.2271" y1="121.2188" y2="2097.5547"/><line style="stroke:#181818;stroke-width:0.5;stroke-dasharray:5.0,5.0;" x1="428.0581" x2="428.0581" y1="121.2188" y2="2097.5547"/><line style="stroke:#181818;stroke-width:0.5;stroke-dasharray:5.0,5.0;" x1="650.3413" x2="650.3413" y1="121.2188" y2="2097.5547"/><line style="stroke:#181818;stroke-width:0.5;stroke-dasharray:5.0,5.0;" x1="993.0376" x2="993.0376" y1="121.2188" y2="2097.5547"/><text fill="#000000" font-family="sans-serif" font-size="14" lengthAdjust="spacing" textLength="53.6963" x="5" y="118.1426">Inventori</text><ellipse cx="34.8481" cy="52.1094" fill="#E2E2F0" rx="8" ry="8" style="stroke:#181818;stroke-width:0.5;"/><path d="M34.8481,60.1094 L34.8481,87.1094 M21.8481,68.1094 L47.8481,68.1094 M34.8481,87.1094 L21.8481,102.1094 M34.8481,87.1094 L47.8481,102.1094 " fill="none" style="stroke:#181818;stroke-width:0.5;"/><text fill="#000000" font-family="sans-serif" font-size="14" lengthAdjust="spacing" textLength="53.6963" x="5" y="2111.0879">Inventori</text><ellipse cx="34.8481" cy="2122.6641" fill="#E2E2F0" rx="8" ry="8" style="stroke:#181818;stroke-width:0.5;"/><path d="M34.8481,2130.6641 L34.8481,2157.6641 M21.8481,2138.6641 L47.8481,2138.6641 M34.8481,2157.6641 L21.8481,2172.6641 M34.8481,2157.6641 L47.8481,2172.6641 " fill="none" style="stroke:#181818;stroke-width:0.5;"/><rect fill="#E2E2F0" height="31.6094" rx="2.5" ry="2.5" style="stroke:#181818;stroke-width:0.5;" width="118.2891" x="131.2271" y="88.6094"/><text fill="#000000" font-family="sans-serif" font-size="14" lengthAdjust="spacing" textLength="104.2891" x="138.2271" y="110.1426">Halaman Satuan</text><rect fill="#E2E2F0" height="31.6094" rx="2.5" ry="2.5" style="stroke:#181818;stroke-width:0.5;" width="118.2891" x="131.2271" y="2096.5547"/><text fill="#000000" font-family="sans-serif" font-size="14" lengthAdjust="spacing" textLength="104.2891" x="138.2271" y="2118.0879">Halaman Satuan</text><rect fill="#E2E2F0" height="49.2188" rx="2.5" ry="2.5" style="stroke:#181818;stroke-width:0.5;" width="86.3789" x="385.0581" y="71"/><text fill="#000000" font-family="sans-serif" font-size="14" lengthAdjust="spacing" textLength="59.1445" x="398.6753" y="92.5332">UnitIndex</text><text fill="#000000" font-family="sans-serif" font-size="14" lengthAdjust="spacing" textLength="72.3789" x="392.0581" y="110.1426">Component</text><rect fill="#E2E2F0" height="49.2188" rx="2.5" ry="2.5" style="stroke:#181818;stroke-width:0.5;" width="86.3789" x="385.0581" y="2096.5547"/><text fill="#000000" font-family="sans-serif" font-size="14" lengthAdjust="spacing" textLength="59.1445" x="398.6753" y="2118.0879">UnitIndex</text><text fill="#000000" font-family="sans-serif" font-size="14" lengthAdjust="spacing" textLength="72.3789" x="392.0581" y="2135.6973">Component</text><rect fill="#E2E2F0" height="49.2188" rx="2.5" ry="2.5" style="stroke:#181818;stroke-width:0.5;" width="52.1309" x="624.3413" y="71"/><text fill="#000000" font-family="sans-serif" font-size="14" lengthAdjust="spacing" textLength="24.8965" x="637.9585" y="92.5332">Unit</text><text fill="#000000" font-family="sans-serif" font-size="14" lengthAdjust="spacing" textLength="38.1309" x="631.3413" y="110.1426">Model</text><rect fill="#E2E2F0" height="49.2188" rx="2.5" ry="2.5" style="stroke:#181818;stroke-width:0.5;" width="52.1309" x="624.3413" y="2096.5547"/><text fill="#000000" font-family="sans-serif" font-size="14" lengthAdjust="spacing" textLength="24.8965" x="637.9585" y="2118.0879">Unit</text><text fill="#000000" font-family="sans-serif" font-size="14" lengthAdjust="spacing" textLength="38.1309" x="631.3413" y="2135.6973">Model</text><text fill="#000000" font-family="sans-serif" font-size="14" lengthAdjust="spacing" textLength="59.9307" x="961.0376" y="118.1426">Database</text><path d="M976.0029,67.6094 C976.0029,57.6094 994.0029,57.6094 994.0029,57.6094 C994.0029,57.6094 1012.0029,57.6094 1012.0029,67.6094 L1012.0029,93.6094 C1012.0029,103.6094 994.0029,103.6094 994.0029,103.6094 C994.0029,103.6094 976.0029,103.6094 976.0029,93.6094 L976.0029,67.6094 " fill="#E2E2F0" style="stroke:#181818;stroke-width:1.5;"/><path d="M976.0029,67.6094 C976.0029,77.6094 994.0029,77.6094 994.0029,77.6094 C994.0029,77.6094 1012.0029,77.6094 1012.0029,67.6094 " fill="none" style="stroke:#181818;stroke-width:1.5;"/><text fill="#000000" font-family="sans-serif" font-size="14" lengthAdjust="spacing" textLength="59.9307" x="961.0376" y="2111.0879">Database</text><path d="M976.0029,2124.1641 C976.0029,2114.1641 994.0029,2114.1641 994.0029,2114.1641 C994.0029,2114.1641 1012.0029,2114.1641 1012.0029,2124.1641 L1012.0029,2150.1641 C1012.0029,2160.1641 994.0029,2160.1641 994.0029,2160.1641 C994.0029,2160.1641 976.0029,2160.1641 976.0029,2150.1641 L976.0029,2124.1641 " fill="#E2E2F0" style="stroke:#181818;stroke-width:1.5;"/><path d="M976.0029,2124.1641 C976.0029,2134.1641 994.0029,2134.1641 994.0029,2134.1641 C994.0029,2134.1641 1012.0029,2134.1641 1012.0029,2124.1641 " fill="none" style="stroke:#181818;stroke-width:1.5;"/><rect fill="#FFFFFF" height="242.8125" style="stroke:#181818;stroke-width:1.0;" width="10" x="185.3716" y="197.9219"/><rect fill="#FFFFFF" height="182.1094" style="stroke:#181818;stroke-width:1.0;" width="10" x="423.2476" y="228.2734"/><rect fill="#FFFFFF" height="346.8672" style="stroke:#181818;stroke-width:1.0;" width="10" x="423.2476" y="727.8984"/><rect fill="#FFFFFF" height="74.2305" style="stroke:#181818;stroke-width:1.0;" width="10" x="423.2476" y="1179.8203"/><rect fill="#FFFFFF" height="195.1094" style="stroke:#181818;stroke-width:1.0;" width="10" x="423.2476" y="1358.6328"/><rect fill="#FFFFFF" height="398.4063" style="stroke:#181818;stroke-width:1.0;" width="10" x="423.2476" y="1689.1484"/><rect fill="#FFFFFF" height="121.4063" style="stroke:#181818;stroke-width:1.0;" width="10" x="645.4067" y="258.625"/><rect fill="#FFFFFF" height="91.0547" style="stroke:#181818;stroke-width:1.0;" width="10" x="645.4067" y="801.6016"/><rect fill="#FFFFFF" height="91.0547" style="stroke:#181818;stroke-width:1.0;" width="10" x="645.4067" y="923.0078"/><rect fill="#FFFFFF" height="91.0547" style="stroke:#181818;stroke-width:1.0;" width="10" x="645.4067" y="1432.3359"/><rect fill="#FFFFFF" height="91.0547" style="stroke:#181818;stroke-width:1.0;" width="10" x="645.4067" y="1719.5"/><rect fill="#FFFFFF" height="91.0547" style="stroke:#181818;stroke-width:1.0;" width="10" x="645.4067" y="1866.2578"/><rect fill="#EEEEEE" height="3" style="stroke:#EEEEEE;stroke-width:1.0;" width="1046.9683" x="0" y="152.3945"/><line style="stroke:#000000;stroke-width:1.0;" x1="0" x2="1046.9683" y1="152.3945" y2="152.3945"/><line style="stroke:#000000;stroke-width:1.0;" x1="0" x2="1046.9683" y1="155.3945" y2="155.3945"/><rect fill="#EEEEEE" height="24.3516" style="stroke:#000000;stroke-width:2.0;" width="150.5254" x="448.2214" y="141.2188"/><text fill="#000000" font-family="sans-serif" font-size="13" font-weight="bold" lengthAdjust="spacing" textLength="132.9136" x="454.2214" y="158.7139">Melihat Daftar Satuan</text><polygon fill="#181818" points="173.3716,193.9219,183.3716,197.9219,173.3716,201.9219,177.3716,197.9219" style="stroke:#181818;stroke-width:1.0;"/><line style="stroke:#181818;stroke-width:1.0;" x1="34.8481" x2="179.3716" y1="197.9219" y2="197.9219"/><text fill="#000000" font-family="sans-serif" font-size="13" lengthAdjust="spacing" textLength="131.5234" x="41.8481" y="193.0654">Akses halaman satuan</text><polygon fill="#181818" points="411.2476,224.2734,421.2476,228.2734,411.2476,232.2734,415.2476,228.2734" style="stroke:#181818;stroke-width:1.0;"/><line style="stroke:#181818;stroke-width:1.0;" x1="195.3716" x2="417.2476" y1="228.2734" y2="228.2734"/><text fill="#000000" font-family="sans-serif" font-size="13" lengthAdjust="spacing" textLength="44.7891" x="202.3716" y="223.417">mount()</text><polygon fill="#181818" points="633.4067,254.625,643.4067,258.625,633.4067,262.625,637.4067,258.625" style="stroke:#181818;stroke-width:1.0;"/><line style="stroke:#181818;stroke-width:1.0;" x1="433.2476" x2="639.4067" y1="258.625" y2="258.625"/><text fill="#000000" font-family="sans-serif" font-size="13" lengthAdjust="spacing" textLength="193.1592" x="440.2476" y="253.7686">Unit::withCount('materials')-&gt;get()</text><polygon fill="#181818" points="982.0029,284.9766,992.0029,288.9766,982.0029,292.9766,986.0029,288.9766" style="stroke:#181818;stroke-width:1.0;"/><line style="stroke:#181818;stroke-width:1.0;" x1="655.4067" x2="988.0029" y1="288.9766" y2="288.9766"/><text fill="#000000" font-family="sans-serif" font-size="13" lengthAdjust="spacing" textLength="132.1963" x="662.4067" y="284.1201">SELECT * FROM units</text><polygon fill="#181818" points="982.0029,315.3281,992.0029,319.3281,982.0029,323.3281,986.0029,319.3281" style="stroke:#181818;stroke-width:1.0;"/><line style="stroke:#181818;stroke-width:1.0;" x1="655.4067" x2="988.0029" y1="319.3281" y2="319.3281"/><text fill="#000000" font-family="sans-serif" font-size="13" lengthAdjust="spacing" textLength="156.749" x="662.4067" y="314.4717">SELECT COUNT materials</text><polygon fill="#181818" points="666.4067,345.6797,656.4067,349.6797,666.4067,353.6797,662.4067,349.6797" style="stroke:#181818;stroke-width:1.0;"/><line style="stroke:#181818;stroke-width:1.0;stroke-dasharray:2.0,2.0;" x1="660.4067" x2="993.0029" y1="349.6797" y2="349.6797"/><text fill="#000000" font-family="sans-serif" font-size="13" lengthAdjust="spacing" textLength="70.1035" x="672.4067" y="344.8232">Data satuan</text><polygon fill="#181818" points="444.2476,376.0313,434.2476,380.0313,444.2476,384.0313,440.2476,380.0313" style="stroke:#181818;stroke-width:1.0;"/><line style="stroke:#181818;stroke-width:1.0;stroke-dasharray:2.0,2.0;" x1="438.2476" x2="649.4067" y1="380.0313" y2="380.0313"/><text fill="#000000" font-family="sans-serif" font-size="13" lengthAdjust="spacing" textLength="99.728" x="450.2476" y="375.1748">Collection satuan</text><polygon fill="#181818" points="206.3716,406.3828,196.3716,410.3828,206.3716,414.3828,202.3716,410.3828" style="stroke:#181818;stroke-width:1.0;"/><line style="stroke:#181818;stroke-width:1.0;stroke-dasharray:2.0,2.0;" x1="200.3716" x2="427.2476" y1="410.3828" y2="410.3828"/><text fill="#000000" font-family="sans-serif" font-size="13" lengthAdjust="spacing" textLength="79.4917" x="212.3716" y="405.5264">Render daftar</text><polygon fill="#181818" points="45.8481,436.7344,35.8481,440.7344,45.8481,444.7344,41.8481,440.7344" style="stroke:#181818;stroke-width:1.0;"/><line style="stroke:#181818;stroke-width:1.0;stroke-dasharray:2.0,2.0;" x1="39.8481" x2="189.3716" y1="440.7344" y2="440.7344"/><text fill="#000000" font-family="sans-serif" font-size="13" lengthAdjust="spacing" textLength="113.4453" x="51.8481" y="435.8779">Tampilkan halaman</text><rect fill="#EEEEEE" height="3" style="stroke:#EEEEEE;stroke-width:1.0;" width="1046.9683" x="0" y="469.9102"/><line style="stroke:#000000;stroke-width:1.0;" x1="0" x2="1046.9683" y1="469.9102" y2="469.9102"/><line style="stroke:#000000;stroke-width:1.0;" x1="0" x2="1046.9683" y1="472.9102" y2="472.9102"/><rect fill="#EEEEEE" height="24.3516" style="stroke:#000000;stroke-width:2.0;" width="132.4663" x="457.251" y="458.7344"/><text fill="#000000" font-family="sans-serif" font-size="13" font-weight="bold" lengthAdjust="spacing" textLength="114.8545" x="463.251" y="476.2295">Menambah Satuan</text><polygon fill="#181818" points="178.3716,511.4375,188.3716,515.4375,178.3716,519.4375,182.3716,515.4375" style="stroke:#181818;stroke-width:1.0;"/><line style="stroke:#181818;stroke-width:1.0;" x1="34.8481" x2="184.3716" y1="515.4375" y2="515.4375"/><text fill="#000000" font-family="sans-serif" font-size="13" lengthAdjust="spacing" textLength="114.8799" x="41.8481" y="510.5811">Klik tombol Tambah</text><polygon fill="#181818" points="45.8481,541.7891,35.8481,545.7891,45.8481,549.7891,41.8481,545.7891" style="stroke:#181818;stroke-width:1.0;"/><line style="stroke:#181818;stroke-width:1.0;stroke-dasharray:2.0,2.0;" x1="39.8481" x2="189.3716" y1="545.7891" y2="545.7891"/><text fill="#000000" font-family="sans-serif" font-size="13" lengthAdjust="spacing" textLength="128.5972" x="51.8481" y="540.9326">Tampilkan modal form</text><polygon fill="#181818" points="416.2476,572.1406,426.2476,576.1406,416.2476,580.1406,420.2476,576.1406" style="stroke:#181818;stroke-width:1.0;"/><line style="stroke:#181818;stroke-width:1.0;" x1="34.8481" x2="422.2476" y1="576.1406" y2="576.1406"/><text fill="#000000" font-family="sans-serif" font-size="13" lengthAdjust="spacing" textLength="126.9658" x="41.8481" y="571.2842">set('name', 'Kilogram')</text><polygon fill="#181818" points="416.2476,602.4922,426.2476,606.4922,416.2476,610.4922,420.2476,606.4922" style="stroke:#181818;stroke-width:1.0;"/><line style="stroke:#181818;stroke-width:1.0;" x1="34.8481" x2="422.2476" y1="606.4922" y2="606.4922"/><text fill="#000000" font-family="sans-serif" font-size="13" lengthAdjust="spacing" textLength="83.6177" x="41.8481" y="601.6357">set('alias', 'kg')</text><polygon fill="#181818" points="416.2476,632.8438,426.2476,636.8438,416.2476,640.8438,420.2476,636.8438" style="stroke:#181818;stroke-width:1.0;"/><line style="stroke:#181818;stroke-width:1.0;" x1="34.8481" x2="422.2476" y1="636.8438" y2="636.8438"/><text fill="#000000" font-family="sans-serif" font-size="13" lengthAdjust="spacing" textLength="107.4722" x="41.8481" y="631.9873">set('group', 'Berat')</text><polygon fill="#181818" points="416.2476,663.1953,426.2476,667.1953,416.2476,671.1953,420.2476,667.1953" style="stroke:#181818;stroke-width:1.0;"/><line style="stroke:#181818;stroke-width:1.0;" x1="34.8481" x2="422.2476" y1="667.1953" y2="667.1953"/><text fill="#000000" font-family="sans-serif" font-size="13" lengthAdjust="spacing" textLength="132.1519" x="41.8481" y="662.3389">set('base_unit_id', null)</text><polygon fill="#181818" points="416.2476,693.5469,426.2476,697.5469,416.2476,701.5469,420.2476,697.5469" style="stroke:#181818;stroke-width:1.0;"/><line style="stroke:#181818;stroke-width:1.0;" x1="34.8481" x2="422.2476" y1="697.5469" y2="697.5469"/><text fill="#000000" font-family="sans-serif" font-size="13" lengthAdjust="spacing" textLength="148.0273" x="41.8481" y="692.6904">set('conversion_factor', 1)</text><polygon fill="#181818" points="411.2476,723.8984,421.2476,727.8984,411.2476,731.8984,415.2476,727.8984" style="stroke:#181818;stroke-width:1.0;"/><line style="stroke:#181818;stroke-width:1.0;" x1="34.8481" x2="417.2476" y1="727.8984" y2="727.8984"/><text fill="#000000" font-family="sans-serif" font-size="13" lengthAdjust="spacing" textLength="36.1182" x="41.8481" y="723.042">save()</text><line style="stroke:#181818;stroke-width:1.0;" x1="433.2476" x2="475.2476" y1="758.25" y2="758.25"/><line style="stroke:#181818;stroke-width:1.0;" x1="475.2476" x2="475.2476" y1="758.25" y2="771.25"/><line style="stroke:#181818;stroke-width:1.0;" x1="434.2476" x2="475.2476" y1="771.25" y2="771.25"/><polygon fill="#181818" points="444.2476,767.25,434.2476,771.25,444.2476,775.25,440.2476,771.25" style="stroke:#181818;stroke-width:1.0;"/><text fill="#000000" font-family="sans-serif" font-size="13" lengthAdjust="spacing" textLength="53.4663" x="440.2476" y="753.3936">validate()</text><polygon fill="#181818" points="633.4067,797.6016,643.4067,801.6016,633.4067,805.6016,637.4067,801.6016" style="stroke:#181818;stroke-width:1.0;"/><line style="stroke:#181818;stroke-width:1.0;" x1="433.2476" x2="639.4067" y1="801.6016" y2="801.6016"/><text fill="#000000" font-family="sans-serif" font-size="13" lengthAdjust="spacing" textLength="180.1528" x="440.2476" y="796.7451">Unit::where('name', ?)-&gt;exists()</text><polygon fill="#181818" points="982.0029,827.9531,992.0029,831.9531,982.0029,835.9531,986.0029,831.9531" style="stroke:#181818;stroke-width:1.0;"/><line style="stroke:#181818;stroke-width:1.0;" x1="655.4067" x2="988.0029" y1="831.9531" y2="831.9531"/><text fill="#000000" font-family="sans-serif" font-size="13" lengthAdjust="spacing" textLength="242.3726" x="662.4067" y="827.0967">SELECT * FROM units WHERE name = ?</text><polygon fill="#181818" points="666.4067,858.3047,656.4067,862.3047,666.4067,866.3047,662.4067,862.3047" style="stroke:#181818;stroke-width:1.0;"/><line style="stroke:#181818;stroke-width:1.0;stroke-dasharray:2.0,2.0;" x1="660.4067" x2="993.0029" y1="862.3047" y2="862.3047"/><text fill="#000000" font-family="sans-serif" font-size="13" lengthAdjust="spacing" textLength="27.46" x="672.4067" y="857.4482">false</text><polygon fill="#181818" points="444.2476,888.6563,434.2476,892.6563,444.2476,896.6563,440.2476,892.6563" style="stroke:#181818;stroke-width:1.0;"/><line style="stroke:#181818;stroke-width:1.0;stroke-dasharray:2.0,2.0;" x1="438.2476" x2="649.4067" y1="892.6563" y2="892.6563"/><text fill="#000000" font-family="sans-serif" font-size="13" lengthAdjust="spacing" textLength="105.5107" x="450.2476" y="887.7998">Tidak ada duplikat</text><polygon fill="#181818" points="633.4067,919.0078,643.4067,923.0078,633.4067,927.0078,637.4067,923.0078" style="stroke:#181818;stroke-width:1.0;"/><line style="stroke:#181818;stroke-width:1.0;" x1="433.2476" x2="639.4067" y1="923.0078" y2="923.0078"/><text fill="#000000" font-family="sans-serif" font-size="13" lengthAdjust="spacing" textLength="93.1899" x="440.2476" y="918.1514">Unit::create([...])</text><polygon fill="#181818" points="982.0029,949.3594,992.0029,953.3594,982.0029,957.3594,986.0029,953.3594" style="stroke:#181818;stroke-width:1.0;"/><line style="stroke:#181818;stroke-width:1.0;" x1="655.4067" x2="988.0029" y1="953.3594" y2="953.3594"/><text fill="#000000" font-family="sans-serif" font-size="13" lengthAdjust="spacing" textLength="113.4072" x="662.4067" y="948.5029">INSERT INTO units</text><polygon fill="#181818" points="666.4067,979.7109,656.4067,983.7109,666.4067,987.7109,662.4067,983.7109" style="stroke:#181818;stroke-width:1.0;"/><line style="stroke:#181818;stroke-width:1.0;stroke-dasharray:2.0,2.0;" x1="660.4067" x2="993.0029" y1="983.7109" y2="983.7109"/><text fill="#000000" font-family="sans-serif" font-size="13" lengthAdjust="spacing" textLength="49.1309" x="672.4067" y="978.8545">Success</text><polygon fill="#181818" points="444.2476,1010.0625,434.2476,1014.0625,444.2476,1018.0625,440.2476,1014.0625" style="stroke:#181818;stroke-width:1.0;"/><line style="stroke:#181818;stroke-width:1.0;stroke-dasharray:2.0,2.0;" x1="438.2476" x2="649.4067" y1="1014.0625" y2="1014.0625"/><text fill="#000000" font-family="sans-serif" font-size="13" lengthAdjust="spacing" textLength="70.8335" x="450.2476" y="1009.2061">Satuan baru</text><polygon fill="#181818" points="201.3716,1040.4141,191.3716,1044.4141,201.3716,1048.4141,197.3716,1044.4141" style="stroke:#181818;stroke-width:1.0;"/><line style="stroke:#181818;stroke-width:1.0;stroke-dasharray:2.0,2.0;" x1="195.3716" x2="422.2476" y1="1044.4141" y2="1044.4141"/><text fill="#000000" font-family="sans-serif" font-size="13" lengthAdjust="spacing" textLength="72.2617" x="207.3716" y="1039.5576">Tutup modal</text><polygon fill="#181818" points="201.3716,1070.7656,191.3716,1074.7656,201.3716,1078.7656,197.3716,1074.7656" style="stroke:#181818;stroke-width:1.0;"/><line style="stroke:#181818;stroke-width:1.0;stroke-dasharray:2.0,2.0;" x1="195.3716" x2="427.2476" y1="1074.7656" y2="1074.7656"/><text fill="#000000" font-family="sans-serif" font-size="13" lengthAdjust="spacing" textLength="132.2217" x="207.3716" y="1069.9092">Flash message sukses</text><rect fill="#EEEEEE" height="3" style="stroke:#EEEEEE;stroke-width:1.0;" width="1046.9683" x="0" y="1103.9414"/><line style="stroke:#000000;stroke-width:1.0;" x1="0" x2="1046.9683" y1="1103.9414" y2="1103.9414"/><line style="stroke:#000000;stroke-width:1.0;" x1="0" x2="1046.9683" y1="1106.9414" y2="1106.9414"/><rect fill="#EEEEEE" height="24.3516" style="stroke:#000000;stroke-width:2.0;" width="121.6182" x="462.675" y="1092.7656"/><text fill="#000000" font-family="sans-serif" font-size="13" font-weight="bold" lengthAdjust="spacing" textLength="104.0063" x="468.675" y="1110.2607">Mengedit Satuan</text><polygon fill="#181818" points="178.3716,1145.4688,188.3716,1149.4688,178.3716,1153.4688,182.3716,1149.4688" style="stroke:#181818;stroke-width:1.0;"/><line style="stroke:#181818;stroke-width:1.0;" x1="34.8481" x2="184.3716" y1="1149.4688" y2="1149.4688"/><text fill="#000000" font-family="sans-serif" font-size="13" lengthAdjust="spacing" textLength="89.5908" x="41.8481" y="1144.6123">Klik tombol Edit</text><polygon fill="#181818" points="411.2476,1175.8203,421.2476,1179.8203,411.2476,1183.8203,415.2476,1179.8203" style="stroke:#181818;stroke-width:1.0;"/><line style="stroke:#181818;stroke-width:1.0;" x1="190.3716" x2="417.2476" y1="1179.8203" y2="1179.8203"/><text fill="#000000" font-family="sans-serif" font-size="13" lengthAdjust="spacing" textLength="50.5781" x="197.3716" y="1174.9639">edit(unit)</text><polygon fill="#181818" points="201.3716,1250.0508,191.3716,1254.0508,201.3716,1258.0508,197.3716,1254.0508" style="stroke:#181818;stroke-width:1.0;"/><line style="stroke:#181818;stroke-width:1.0;stroke-dasharray:2.0,2.0;" x1="195.3716" x2="427.2476" y1="1254.0508" y2="1254.0508"/><text fill="#000000" font-family="sans-serif" font-size="13" lengthAdjust="spacing" textLength="114.1499" x="207.3716" y="1249.1943">Tampilkan form edit</text><path d="M438,1192.8203 L438,1300.8203 L572,1300.8203 L572,1202.8203 L562,1192.8203 L438,1192.8203 " fill="#FEFFDD" style="stroke:#181818;stroke-width:0.5;"/><path d="M562,1192.8203 L562,1202.8203 L572,1202.8203 L562,1192.8203 " fill="#FEFFDD" style="stroke:#181818;stroke-width:0.5;"/><text fill="#000000" font-family="sans-serif" font-size="13" lengthAdjust="spacing" textLength="111.9917" x="444" y="1211.3154">Form terisi dengan:</text><text fill="#000000" font-family="sans-serif" font-size="13" lengthAdjust="spacing" textLength="101.1372" x="444" y="1227.667">- Nama: Kilogram</text><text fill="#000000" font-family="sans-serif" font-size="13" lengthAdjust="spacing" textLength="57.0718" x="444" y="1244.0186">- Alias: kg</text><text fill="#000000" font-family="sans-serif" font-size="13" lengthAdjust="spacing" textLength="75.1372" x="444" y="1260.3701">- Grup: Berat</text><text fill="#000000" font-family="sans-serif" font-size="13" lengthAdjust="spacing" textLength="98.9854" x="444" y="1276.7217">- Satuan Dasar: -</text><text fill="#000000" font-family="sans-serif" font-size="13" lengthAdjust="spacing" textLength="113.4263" x="444" y="1293.0732">- Faktor Konversi: 1</text><polygon fill="#181818" points="416.2476,1324.2813,426.2476,1328.2813,416.2476,1332.2813,420.2476,1328.2813" style="stroke:#181818;stroke-width:1.0;"/><line style="stroke:#181818;stroke-width:1.0;" x1="34.8481" x2="422.2476" y1="1328.2813" y2="1328.2813"/><text fill="#000000" font-family="sans-serif" font-size="13" lengthAdjust="spacing" textLength="85.7886" x="41.8481" y="1323.4248">set('alias', 'Kg')</text><polygon fill="#181818" points="411.2476,1354.6328,421.2476,1358.6328,411.2476,1362.6328,415.2476,1358.6328" style="stroke:#181818;stroke-width:1.0;"/><line style="stroke:#181818;stroke-width:1.0;" x1="34.8481" x2="417.2476" y1="1358.6328" y2="1358.6328"/><text fill="#000000" font-family="sans-serif" font-size="13" lengthAdjust="spacing" textLength="48.4199" x="41.8481" y="1353.7764">update()</text><line style="stroke:#181818;stroke-width:1.0;" x1="433.2476" x2="475.2476" y1="1388.9844" y2="1388.9844"/><line style="stroke:#181818;stroke-width:1.0;" x1="475.2476" x2="475.2476" y1="1388.9844" y2="1401.9844"/><line style="stroke:#181818;stroke-width:1.0;" x1="434.2476" x2="475.2476" y1="1401.9844" y2="1401.9844"/><polygon fill="#181818" points="444.2476,1397.9844,434.2476,1401.9844,444.2476,1405.9844,440.2476,1401.9844" style="stroke:#181818;stroke-width:1.0;"/><text fill="#000000" font-family="sans-serif" font-size="13" lengthAdjust="spacing" textLength="53.4663" x="440.2476" y="1384.1279">validate()</text><polygon fill="#181818" points="633.4067,1428.3359,643.4067,1432.3359,633.4067,1436.3359,637.4067,1432.3359" style="stroke:#181818;stroke-width:1.0;"/><line style="stroke:#181818;stroke-width:1.0;" x1="433.2476" x2="639.4067" y1="1432.3359" y2="1432.3359"/><text fill="#000000" font-family="sans-serif" font-size="13" lengthAdjust="spacing" textLength="99.3599" x="440.2476" y="1427.4795">unit-&gt;update([...])</text><polygon fill="#181818" points="982.0029,1458.6875,992.0029,1462.6875,982.0029,1466.6875,986.0029,1462.6875" style="stroke:#181818;stroke-width:1.0;"/><line style="stroke:#181818;stroke-width:1.0;" x1="655.4067" x2="988.0029" y1="1462.6875" y2="1462.6875"/><text fill="#000000" font-family="sans-serif" font-size="13" lengthAdjust="spacing" textLength="178.7246" x="662.4067" y="1457.8311">UPDATE units SET alias = 'Kg'</text><polygon fill="#181818" points="666.4067,1489.0391,656.4067,1493.0391,666.4067,1497.0391,662.4067,1493.0391" style="stroke:#181818;stroke-width:1.0;"/><line style="stroke:#181818;stroke-width:1.0;stroke-dasharray:2.0,2.0;" x1="660.4067" x2="993.0029" y1="1493.0391" y2="1493.0391"/><text fill="#000000" font-family="sans-serif" font-size="13" lengthAdjust="spacing" textLength="49.1309" x="672.4067" y="1488.1826">Success</text><polygon fill="#181818" points="444.2476,1519.3906,434.2476,1523.3906,444.2476,1527.3906,440.2476,1523.3906" style="stroke:#181818;stroke-width:1.0;"/><line style="stroke:#181818;stroke-width:1.0;stroke-dasharray:2.0,2.0;" x1="438.2476" x2="649.4067" y1="1523.3906" y2="1523.3906"/><text fill="#000000" font-family="sans-serif" font-size="13" lengthAdjust="spacing" textLength="49.1499" x="450.2476" y="1518.5342">Updated</text><polygon fill="#181818" points="201.3716,1549.7422,191.3716,1553.7422,201.3716,1557.7422,197.3716,1553.7422" style="stroke:#181818;stroke-width:1.0;"/><line style="stroke:#181818;stroke-width:1.0;stroke-dasharray:2.0,2.0;" x1="195.3716" x2="427.2476" y1="1553.7422" y2="1553.7422"/><text fill="#000000" font-family="sans-serif" font-size="13" lengthAdjust="spacing" textLength="132.2217" x="207.3716" y="1548.8857">Flash message sukses</text><rect fill="#EEEEEE" height="3" style="stroke:#EEEEEE;stroke-width:1.0;" width="1046.9683" x="0" y="1582.918"/><line style="stroke:#000000;stroke-width:1.0;" x1="0" x2="1046.9683" y1="1582.918" y2="1582.918"/><line style="stroke:#000000;stroke-width:1.0;" x1="0" x2="1046.9683" y1="1585.918" y2="1585.918"/><rect fill="#EEEEEE" height="24.3516" style="stroke:#000000;stroke-width:2.0;" width="136.7891" x="455.0896" y="1571.7422"/><text fill="#000000" font-family="sans-serif" font-size="13" font-weight="bold" lengthAdjust="spacing" textLength="119.1772" x="461.0896" y="1589.2373">Menghapus Satuan</text><polygon fill="#181818" points="178.3716,1624.4453,188.3716,1628.4453,178.3716,1632.4453,182.3716,1628.4453" style="stroke:#181818;stroke-width:1.0;"/><line style="stroke:#181818;stroke-width:1.0;" x1="34.8481" x2="184.3716" y1="1628.4453" y2="1628.4453"/><text fill="#000000" font-family="sans-serif" font-size="13" lengthAdjust="spacing" textLength="104.7681" x="41.8481" y="1623.5889">Klik tombol Hapus</text><polygon fill="#181818" points="45.8481,1654.7969,35.8481,1658.7969,45.8481,1662.7969,41.8481,1658.7969" style="stroke:#181818;stroke-width:1.0;"/><line style="stroke:#181818;stroke-width:1.0;stroke-dasharray:2.0,2.0;" x1="39.8481" x2="189.3716" y1="1658.7969" y2="1658.7969"/><text fill="#000000" font-family="sans-serif" font-size="13" lengthAdjust="spacing" textLength="100.439" x="51.8481" y="1653.9404">Konfirmasi hapus</text><polygon fill="#181818" points="411.2476,1685.1484,421.2476,1689.1484,411.2476,1693.1484,415.2476,1689.1484" style="stroke:#181818;stroke-width:1.0;"/><line style="stroke:#181818;stroke-width:1.0;" x1="34.8481" x2="417.2476" y1="1689.1484" y2="1689.1484"/><text fill="#000000" font-family="sans-serif" font-size="13" lengthAdjust="spacing" textLength="65.0381" x="41.8481" y="1684.292">delete(unit)</text><polygon fill="#181818" points="633.4067,1715.5,643.4067,1719.5,633.4067,1723.5,637.4067,1719.5" style="stroke:#181818;stroke-width:1.0;"/><line style="stroke:#181818;stroke-width:1.0;" x1="433.2476" x2="639.4067" y1="1719.5" y2="1719.5"/><text fill="#000000" font-family="sans-serif" font-size="13" lengthAdjust="spacing" textLength="146.6563" x="440.2476" y="1714.6436">unit-&gt;materials()-&gt;count()</text><polygon fill="#181818" points="982.0029,1745.8516,992.0029,1749.8516,982.0029,1753.8516,986.0029,1749.8516" style="stroke:#181818;stroke-width:1.0;"/><line style="stroke:#181818;stroke-width:1.0;" x1="655.4067" x2="988.0029" y1="1749.8516" y2="1749.8516"/><text fill="#000000" font-family="sans-serif" font-size="13" lengthAdjust="spacing" textLength="314.5962" x="662.4067" y="1744.9951">SELECT COUNT FROM materials WHERE unit_id = ?</text><polygon fill="#181818" points="666.4067,1776.2031,656.4067,1780.2031,666.4067,1784.2031,662.4067,1780.2031" style="stroke:#181818;stroke-width:1.0;"/><line style="stroke:#181818;stroke-width:1.0;stroke-dasharray:2.0,2.0;" x1="660.4067" x2="993.0029" y1="1780.2031" y2="1780.2031"/><text fill="#000000" font-family="sans-serif" font-size="13" lengthAdjust="spacing" textLength="31.8018" x="672.4067" y="1775.3467">count</text><polygon fill="#181818" points="444.2476,1806.5547,434.2476,1810.5547,444.2476,1814.5547,440.2476,1810.5547" style="stroke:#181818;stroke-width:1.0;"/><line style="stroke:#181818;stroke-width:1.0;stroke-dasharray:2.0,2.0;" x1="438.2476" x2="649.4067" y1="1810.5547" y2="1810.5547"/><text fill="#000000" font-family="sans-serif" font-size="13" lengthAdjust="spacing" textLength="78.0571" x="450.2476" y="1805.6982">jumlah bahan</text><path d="M121.2271,1825.5547 L181.3979,1825.5547 L181.3979,1833.9063 L171.3979,1843.9063 L121.2271,1843.9063 L121.2271,1825.5547 " fill="#EEEEEE" style="stroke:#000000;stroke-width:1.5;"/><rect fill="none" height="255" style="stroke:#000000;stroke-width:1.5;" width="915.7412" x="121.2271" y="1825.5547"/><text fill="#000000" font-family="sans-serif" font-size="13" font-weight="bold" lengthAdjust="spacing" textLength="15.1709" x="136.2271" y="1840.0498">alt</text><text fill="#000000" font-family="sans-serif" font-size="11" font-weight="bold" lengthAdjust="spacing" textLength="225.5376" x="196.3979" y="1838.9736">[Tidak ada bahan menggunakan satuan ini]</text><polygon fill="#181818" points="633.4067,1862.2578,643.4067,1866.2578,633.4067,1870.2578,637.4067,1866.2578" style="stroke:#181818;stroke-width:1.0;"/><line style="stroke:#181818;stroke-width:1.0;" x1="433.2476" x2="639.4067" y1="1866.2578" y2="1866.2578"/><text fill="#000000" font-family="sans-serif" font-size="13" lengthAdjust="spacing" textLength="76.959" x="440.2476" y="1861.4014">unit-&gt;delete()</text><polygon fill="#181818" points="982.0029,1892.6094,992.0029,1896.6094,982.0029,1900.6094,986.0029,1896.6094" style="stroke:#181818;stroke-width:1.0;"/><line style="stroke:#181818;stroke-width:1.0;" x1="655.4067" x2="988.0029" y1="1896.6094" y2="1896.6094"/><text fill="#000000" font-family="sans-serif" font-size="13" lengthAdjust="spacing" textLength="123.5254" x="662.4067" y="1891.7529">DELETE FROM units</text><polygon fill="#181818" points="666.4067,1922.9609,656.4067,1926.9609,666.4067,1930.9609,662.4067,1926.9609" style="stroke:#181818;stroke-width:1.0;"/><line style="stroke:#181818;stroke-width:1.0;stroke-dasharray:2.0,2.0;" x1="660.4067" x2="993.0029" y1="1926.9609" y2="1926.9609"/><text fill="#000000" font-family="sans-serif" font-size="13" lengthAdjust="spacing" textLength="49.1309" x="672.4067" y="1922.1045">Success</text><polygon fill="#181818" points="444.2476,1953.3125,434.2476,1957.3125,444.2476,1961.3125,440.2476,1957.3125" style="stroke:#181818;stroke-width:1.0;"/><line style="stroke:#181818;stroke-width:1.0;stroke-dasharray:2.0,2.0;" x1="438.2476" x2="649.4067" y1="1957.3125" y2="1957.3125"/><text fill="#000000" font-family="sans-serif" font-size="13" lengthAdjust="spacing" textLength="44.8081" x="450.2476" y="1952.4561">Deleted</text><polygon fill="#181818" points="201.3716,1983.6641,191.3716,1987.6641,201.3716,1991.6641,197.3716,1987.6641" style="stroke:#181818;stroke-width:1.0;"/><line style="stroke:#181818;stroke-width:1.0;stroke-dasharray:2.0,2.0;" x1="195.3716" x2="422.2476" y1="1987.6641" y2="1987.6641"/><text fill="#000000" font-family="sans-serif" font-size="13" lengthAdjust="spacing" textLength="132.2217" x="207.3716" y="1982.8076">Flash message sukses</text><line style="stroke:#000000;stroke-width:1.0;stroke-dasharray:2.0,2.0;" x1="121.2271" x2="1036.9683" y1="1996.6641" y2="1996.6641"/><text fill="#000000" font-family="sans-serif" font-size="11" font-weight="bold" lengthAdjust="spacing" textLength="179.6899" x="126.2271" y="2008.083">[Ada bahan menggunakan satuan]</text><polygon fill="#181818" points="201.3716,2049.2031,191.3716,2053.2031,201.3716,2057.2031,197.3716,2053.2031" style="stroke:#181818;stroke-width:1.0;"/><line style="stroke:#181818;stroke-width:1.0;stroke-dasharray:2.0,2.0;" x1="195.3716" x2="422.2476" y1="2053.2031" y2="2053.2031"/><text fill="#000000" font-family="sans-serif" font-size="13" lengthAdjust="spacing" textLength="208.876" x="207.3716" y="2048.3467">Error: Satuan digunakan oleh bahan</text><path d="M438,2016.5 L438,2075.5 L720,2075.5 L720,2026.5 L710,2016.5 L438,2016.5 " fill="#FEFFDD" style="stroke:#181818;stroke-width:0.5;"/><path d="M710,2016.5 L710,2026.5 L720,2026.5 L710,2016.5 " fill="#FEFFDD" style="stroke:#181818;stroke-width:0.5;"/><text fill="#000000" font-family="sans-serif" font-size="13" lengthAdjust="spacing" textLength="102.6099" x="444" y="2034.9951">Tampilkan pesan:</text><text fill="#000000" font-family="sans-serif" font-size="13" lengthAdjust="spacing" textLength="209.8916" x="444" y="2051.3467">"Satuan ini digunakan oleh X bahan.</text><text fill="#000000" font-family="sans-serif" font-size="13" lengthAdjust="spacing" textLength="261.1934" x="444" y="2067.6982">Ubah satuan bahan tersebut terlebih dahulu."</text><!--SRC=[ZLLDRzj83BthLn2-E2dM1deLu1I9vQoDh9CYbh0BR1S1ROsbMOz6wdoa_VdbZ2Uof3XfVB4qVEGyae-KuKOmsB3lbiaTWuHZeR2AOSramKGj43PeBCeemfsf5QpaCvFqm04rhA86bU4xtg0qC5gYm0fby1WvnBAFo2GtAvcpdz_alAwQMb8iZyjUuxx9TPqpuSthA4U3MzGCHabuyeRa9efcCs8hU8a64jmRL840p6PHj8B95InZk3vefg4C3FKn9qg9FwDXH7FfS5aCLMsbkRWycR8eSwPr38vK7F_WffnxqBWYk-8ezFXoSbMmdjiwMZktv2Q6pUAlnJo5Jt3x-B06Ir7qA-Fy8RjFeGqO9JSmETxgqdtXk_Q7n79U2y7eghfD9MUTgpEFewmV6HLRGUxBqiLaBc72h698iMguE51LGdMwk6KehyHgY-Mvmju9VW1JLzjQk524EXUwgdCKiAzLTNIa73GLR4nnsVWF6DznKJlXZI_xTXGSjGCSYg6fKBLjdEc6AJH3grF8awlr4yy99AqG0yIk9YahJJLysdjj4-np1uFFx8mEoF9Cf4YEpZgGHiaKQtFwGg9WFxas-kEwWB-NYyS5k0WmWoyT6Un95UmaW9GO701pXDmsr04qVGKCcEqKSuJ_dKwd_vqdixhVB1vJ-aiVWaHFTs_iRiUqFjqUPB15PTyGNcgDROvTFntU2jGbL1GA2mRQkf7iYpA8hM0vDxyJsu8mxTWwXml7UzYnGASLefEWHmykbZNzArwK9WAuTI0tYff3JdHGndGwWNiQ3o8HjEgFhfr0OpWK_krFPPiOl23zUqWXGOqgXea_kyM3MwHtGNunV8veIi4HYDuG_rrN_BO9ulkOD5rH9bV1wHq1P5-JwtGHPBXPfE1l9nMwszyJG-P3vsy8uUCzBx6n-dTDNphGQS5G4VTSLKXzykvjaUZ3mIZVSuheLANTjnSqgxlXvb-_iQNzkBQkOMJ3gXbChOzvAjN_jXAqHMb73ZTsXC9qXjeZg6goAAp4G_l50YuvYGYWdqV8zjAREb7TQvj3GZbGWpiV8MT-tTZWT6IS-CYvF-mH3YJUQJAZXGNNxoJJZx5GgbRjQidv2xOMxALY3j-RK_SxZNR3z75GtM-qQGis3FRFCTmq83FtOTCl6yrHfSvgjhN6FGYsvILzG4ihx7JaNTfffOUeh-LV]--></g></svg>