<svg xmlns="http://www.w3.org/2000/svg" xmlns:xlink="http://www.w3.org/1999/xlink" contentStyleType="text/css" height="898px" preserveAspectRatio="none" style="width:867px;height:898px;background:#FFFFFF;" version="1.1" viewBox="0 0 867 898" width="867px" zoomAndPan="magnify"><title>Sequence Diagram: Tambah Bahan Baku</title><defs/><g><text fill="#000000" font-family="sans-serif" font-size="14" font-weight="bold" lengthAdjust="spacing" textLength="273.0752" x="298.1282" y="29.5332">Sequence Diagram: Tambah Bahan Baku</text><rect fill="#FFFFFF" height="652.5156" style="stroke:#181818;stroke-width:1.0;" width="10" x="268.2036" y="153.5703"/><rect fill="#FFFFFF" height="328.5156" style="stroke:#181818;stroke-width:1.0;" width="10" x="444.5688" y="388.8672"/><rect fill="#FFFFFF" height="60.7031" style="stroke:#181818;stroke-width:1.0;" width="10" x="633.1108" y="626.3281"/><rect fill="none" height="497.1094" style="stroke:#000000;stroke-width:1.5;" width="850.3315" x="10" y="301.9766"/><line style="stroke:#181818;stroke-width:0.5;stroke-dasharray:5.0,5.0;" x1="73" x2="73" y1="121.2188" y2="816.0859"/><line style="stroke:#181818;stroke-width:0.5;stroke-dasharray:5.0,5.0;" x1="273.0313" x2="273.0313" y1="121.2188" y2="816.0859"/><line style="stroke:#181818;stroke-width:0.5;stroke-dasharray:5.0,5.0;" x1="448.6724" x2="448.6724" y1="121.2188" y2="816.0859"/><line style="stroke:#181818;stroke-width:0.5;stroke-dasharray:5.0,5.0;" x1="637.6387" x2="637.6387" y1="121.2188" y2="816.0859"/><line style="stroke:#181818;stroke-width:0.5;stroke-dasharray:5.0,5.0;" x1="816.4009" x2="816.4009" y1="121.2188" y2="816.0859"/><text fill="#000000" font-family="sans-serif" font-size="14" lengthAdjust="spacing" textLength="101.1787" x="20" y="118.1426">Bagian Inventori</text><ellipse cx="73.5894" cy="52.1094" fill="#E2E2F0" rx="8" ry="8" style="stroke:#181818;stroke-width:0.5;"/><path d="M73.5894,60.1094 L73.5894,87.1094 M60.5894,68.1094 L86.5894,68.1094 M73.5894,87.1094 L60.5894,102.1094 M73.5894,87.1094 L86.5894,102.1094 " fill="none" style="stroke:#181818;stroke-width:0.5;"/><text fill="#000000" font-family="sans-serif" font-size="14" lengthAdjust="spacing" textLength="101.1787" x="20" y="829.6191">Bagian Inventori</text><ellipse cx="73.5894" cy="841.1953" fill="#E2E2F0" rx="8" ry="8" style="stroke:#181818;stroke-width:0.5;"/><path d="M73.5894,849.1953 L73.5894,876.1953 M60.5894,857.1953 L86.5894,857.1953 M73.5894,876.1953 L60.5894,891.1953 M73.5894,876.1953 L86.5894,891.1953 " fill="none" style="stroke:#181818;stroke-width:0.5;"/><rect fill="#E2E2F0" height="49.2188" rx="2.5" ry="2.5" style="stroke:#181818;stroke-width:0.5;" width="100.3447" x="223.0313" y="71"/><text fill="#000000" font-family="sans-serif" font-size="14" lengthAdjust="spacing" textLength="86.3447" x="230.0313" y="92.5332">Material/Form</text><text fill="#000000" font-family="sans-serif" font-size="14" lengthAdjust="spacing" textLength="60.6758" x="242.8657" y="110.1426">(Livewire)</text><rect fill="#E2E2F0" height="49.2188" rx="2.5" ry="2.5" style="stroke:#181818;stroke-width:0.5;" width="100.3447" x="223.0313" y="815.0859"/><text fill="#000000" font-family="sans-serif" font-size="14" lengthAdjust="spacing" textLength="86.3447" x="230.0313" y="836.6191">Material/Form</text><text fill="#000000" font-family="sans-serif" font-size="14" lengthAdjust="spacing" textLength="60.6758" x="242.8657" y="854.2285">(Livewire)</text><rect fill="#E2E2F0" height="49.2188" rx="2.5" ry="2.5" style="stroke:#181818;stroke-width:0.5;" width="63.793" x="417.6724" y="71"/><text fill="#000000" font-family="sans-serif" font-size="14" lengthAdjust="spacing" textLength="49.793" x="424.6724" y="92.5332">Material</text><text fill="#000000" font-family="sans-serif" font-size="14" lengthAdjust="spacing" textLength="47.4551" x="425.8413" y="110.1426">(Model)</text><rect fill="#E2E2F0" height="49.2188" rx="2.5" ry="2.5" style="stroke:#181818;stroke-width:0.5;" width="63.793" x="417.6724" y="815.0859"/><text fill="#000000" font-family="sans-serif" font-size="14" lengthAdjust="spacing" textLength="49.793" x="424.6724" y="836.6191">Material</text><text fill="#000000" font-family="sans-serif" font-size="14" lengthAdjust="spacing" textLength="47.4551" x="425.8413" y="854.2285">(Model)</text><rect fill="#E2E2F0" height="49.2188" rx="2.5" ry="2.5" style="stroke:#181818;stroke-width:0.5;" width="94.9443" x="590.6387" y="71"/><text fill="#000000" font-family="sans-serif" font-size="14" lengthAdjust="spacing" textLength="80.9443" x="597.6387" y="92.5332">InventoryLog</text><text fill="#000000" font-family="sans-serif" font-size="14" lengthAdjust="spacing" textLength="47.4551" x="614.3833" y="110.1426">(Model)</text><rect fill="#E2E2F0" height="49.2188" rx="2.5" ry="2.5" style="stroke:#181818;stroke-width:0.5;" width="94.9443" x="590.6387" y="815.0859"/><text fill="#000000" font-family="sans-serif" font-size="14" lengthAdjust="spacing" textLength="80.9443" x="597.6387" y="836.6191">InventoryLog</text><text fill="#000000" font-family="sans-serif" font-size="14" lengthAdjust="spacing" textLength="47.4551" x="614.3833" y="854.2285">(Model)</text><text fill="#000000" font-family="sans-serif" font-size="14" lengthAdjust="spacing" textLength="59.9307" x="784.4009" y="118.1426">Database</text><path d="M799.3662,67.6094 C799.3662,57.6094 817.3662,57.6094 817.3662,57.6094 C817.3662,57.6094 835.3662,57.6094 835.3662,67.6094 L835.3662,93.6094 C835.3662,103.6094 817.3662,103.6094 817.3662,103.6094 C817.3662,103.6094 799.3662,103.6094 799.3662,93.6094 L799.3662,67.6094 " fill="#E2E2F0" style="stroke:#181818;stroke-width:1.5;"/><path d="M799.3662,67.6094 C799.3662,77.6094 817.3662,77.6094 817.3662,77.6094 C817.3662,77.6094 835.3662,77.6094 835.3662,67.6094 " fill="none" style="stroke:#181818;stroke-width:1.5;"/><text fill="#000000" font-family="sans-serif" font-size="14" lengthAdjust="spacing" textLength="59.9307" x="784.4009" y="829.6191">Database</text><path d="M799.3662,842.6953 C799.3662,832.6953 817.3662,832.6953 817.3662,832.6953 C817.3662,832.6953 835.3662,832.6953 835.3662,842.6953 L835.3662,868.6953 C835.3662,878.6953 817.3662,878.6953 817.3662,878.6953 C817.3662,878.6953 799.3662,878.6953 799.3662,868.6953 L799.3662,842.6953 " fill="#E2E2F0" style="stroke:#181818;stroke-width:1.5;"/><path d="M799.3662,842.6953 C799.3662,852.6953 817.3662,852.6953 817.3662,852.6953 C817.3662,852.6953 835.3662,852.6953 835.3662,842.6953 " fill="none" style="stroke:#181818;stroke-width:1.5;"/><rect fill="#FFFFFF" height="652.5156" style="stroke:#181818;stroke-width:1.0;" width="10" x="268.2036" y="153.5703"/><rect fill="#FFFFFF" height="328.5156" style="stroke:#181818;stroke-width:1.0;" width="10" x="444.5688" y="388.8672"/><rect fill="#FFFFFF" height="60.7031" style="stroke:#181818;stroke-width:1.0;" width="10" x="633.1108" y="626.3281"/><polygon fill="#181818" points="256.2036,149.5703,266.2036,153.5703,256.2036,157.5703,260.2036,153.5703" style="stroke:#181818;stroke-width:1.0;"/><line style="stroke:#181818;stroke-width:1.0;" x1="73.5894" x2="262.2036" y1="153.5703" y2="153.5703"/><text fill="#000000" font-family="sans-serif" font-size="13" lengthAdjust="spacing" textLength="175.6143" x="80.5894" y="148.7139">Akses halaman tambah bahan</text><line style="stroke:#181818;stroke-width:1.0;" x1="278.2036" x2="320.2036" y1="183.9219" y2="183.9219"/><line style="stroke:#181818;stroke-width:1.0;" x1="320.2036" x2="320.2036" y1="183.9219" y2="196.9219"/><line style="stroke:#181818;stroke-width:1.0;" x1="279.2036" x2="320.2036" y1="196.9219" y2="196.9219"/><polygon fill="#181818" points="289.2036,192.9219,279.2036,196.9219,289.2036,200.9219,285.2036,196.9219" style="stroke:#181818;stroke-width:1.0;"/><text fill="#000000" font-family="sans-serif" font-size="13" lengthAdjust="spacing" textLength="104.0508" x="285.2036" y="179.0654">Render form input</text><polygon fill="#181818" points="256.2036,239.625,266.2036,243.625,256.2036,247.625,260.2036,243.625" style="stroke:#181818;stroke-width:1.0;"/><line style="stroke:#181818;stroke-width:1.0;" x1="73.5894" x2="262.2036" y1="243.625" y2="243.625"/><text fill="#000000" font-family="sans-serif" font-size="13" lengthAdjust="spacing" textLength="113.4771" x="80.5894" y="222.417">Isi data bahan baku</text><text fill="#000000" font-family="sans-serif" font-size="13" lengthAdjust="spacing" textLength="159.6436" x="80.5894" y="238.7686">(nama, minimum, deskripsi)</text><line style="stroke:#181818;stroke-width:1.0;" x1="278.2036" x2="320.2036" y1="273.9766" y2="273.9766"/><line style="stroke:#181818;stroke-width:1.0;" x1="320.2036" x2="320.2036" y1="273.9766" y2="286.9766"/><line style="stroke:#181818;stroke-width:1.0;" x1="279.2036" x2="320.2036" y1="286.9766" y2="286.9766"/><polygon fill="#181818" points="289.2036,282.9766,279.2036,286.9766,289.2036,290.9766,285.2036,286.9766" style="stroke:#181818;stroke-width:1.0;"/><text fill="#000000" font-family="sans-serif" font-size="13" lengthAdjust="spacing" textLength="77.3271" x="285.2036" y="269.1201">Validasi input</text><path d="M10,301.9766 L70.1709,301.9766 L70.1709,310.3281 L60.1709,320.3281 L10,320.3281 L10,301.9766 " fill="#EEEEEE" style="stroke:#000000;stroke-width:1.5;"/><rect fill="none" height="497.1094" style="stroke:#000000;stroke-width:1.5;" width="850.3315" x="10" y="301.9766"/><text fill="#000000" font-family="sans-serif" font-size="13" font-weight="bold" lengthAdjust="spacing" textLength="15.1709" x="25" y="316.4717">alt</text><text fill="#000000" font-family="sans-serif" font-size="11" font-weight="bold" lengthAdjust="spacing" textLength="80.6899" x="85.1709" y="315.3955">[Validasi gagal]</text><polygon fill="#181818" points="84.5894,338.6797,74.5894,342.6797,84.5894,346.6797,80.5894,342.6797" style="stroke:#181818;stroke-width:1.0;"/><line style="stroke:#181818;stroke-width:1.0;stroke-dasharray:2.0,2.0;" x1="78.5894" x2="267.2036" y1="342.6797" y2="342.6797"/><text fill="#000000" font-family="sans-serif" font-size="13" lengthAdjust="spacing" textLength="130.0571" x="90.5894" y="337.8232">Tampilkan pesan error</text><line style="stroke:#000000;stroke-width:1.0;stroke-dasharray:2.0,2.0;" x1="10" x2="860.3315" y1="351.6797" y2="351.6797"/><text fill="#000000" font-family="sans-serif" font-size="11" font-weight="bold" lengthAdjust="spacing" textLength="94.1445" x="15" y="363.0986">[Validasi berhasil]</text><polygon fill="#181818" points="432.5688,384.8672,442.5688,388.8672,432.5688,392.8672,436.5688,388.8672" style="stroke:#181818;stroke-width:1.0;"/><line style="stroke:#181818;stroke-width:1.0;" x1="278.2036" x2="438.5688" y1="388.8672" y2="388.8672"/><text fill="#000000" font-family="sans-serif" font-size="13" lengthAdjust="spacing" textLength="70.0908" x="285.2036" y="384.0107">create(data)</text><line style="stroke:#181818;stroke-width:1.0;" x1="454.5688" x2="496.5688" y1="435.5703" y2="435.5703"/><line style="stroke:#181818;stroke-width:1.0;" x1="496.5688" x2="496.5688" y1="435.5703" y2="448.5703"/><line style="stroke:#181818;stroke-width:1.0;" x1="455.5688" x2="496.5688" y1="448.5703" y2="448.5703"/><polygon fill="#181818" points="465.5688,444.5703,455.5688,448.5703,465.5688,452.5703,461.5688,448.5703" style="stroke:#181818;stroke-width:1.0;"/><text fill="#000000" font-family="sans-serif" font-size="13" lengthAdjust="spacing" textLength="33.96" x="461.5688" y="414.3623">boot()</text><text fill="#000000" font-family="sans-serif" font-size="13" lengthAdjust="spacing" textLength="89.5908" x="461.5688" y="430.7139">Generate UUID</text><line style="stroke:#181818;stroke-width:1.0;" x1="454.5688" x2="496.5688" y1="478.9219" y2="478.9219"/><line style="stroke:#181818;stroke-width:1.0;" x1="496.5688" x2="496.5688" y1="478.9219" y2="491.9219"/><line style="stroke:#181818;stroke-width:1.0;" x1="455.5688" x2="496.5688" y1="491.9219" y2="491.9219"/><polygon fill="#181818" points="465.5688,487.9219,455.5688,491.9219,465.5688,495.9219,461.5688,491.9219" style="stroke:#181818;stroke-width:1.0;"/><text fill="#000000" font-family="sans-serif" font-size="13" lengthAdjust="spacing" textLength="121.6782" x="461.5688" y="474.0654">Set status = 'Kosong'</text><polygon fill="#181818" points="805.3662,518.2734,815.3662,522.2734,805.3662,526.2734,809.3662,522.2734" style="stroke:#181818;stroke-width:1.0;"/><line style="stroke:#181818;stroke-width:1.0;" x1="454.5688" x2="811.3662" y1="522.2734" y2="522.2734"/><text fill="#000000" font-family="sans-serif" font-size="13" lengthAdjust="spacing" textLength="138.6836" x="461.5688" y="517.417">INSERT INTO materials</text><polygon fill="#181818" points="465.5688,548.625,455.5688,552.625,465.5688,556.625,461.5688,552.625" style="stroke:#181818;stroke-width:1.0;"/><line style="stroke:#181818;stroke-width:1.0;stroke-dasharray:2.0,2.0;" x1="459.5688" x2="816.3662" y1="552.625" y2="552.625"/><text fill="#000000" font-family="sans-serif" font-size="13" lengthAdjust="spacing" textLength="18.7827" x="471.5688" y="547.7686">OK</text><line style="stroke:#181818;stroke-width:1.0;" x1="454.5688" x2="496.5688" y1="582.9766" y2="582.9766"/><line style="stroke:#181818;stroke-width:1.0;" x1="496.5688" x2="496.5688" y1="582.9766" y2="595.9766"/><line style="stroke:#181818;stroke-width:1.0;" x1="455.5688" x2="496.5688" y1="595.9766" y2="595.9766"/><polygon fill="#181818" points="465.5688,591.9766,455.5688,595.9766,465.5688,599.9766,461.5688,595.9766" style="stroke:#181818;stroke-width:1.0;"/><text fill="#000000" font-family="sans-serif" font-size="13" lengthAdjust="spacing" textLength="130.0508" x="461.5688" y="578.1201">getActivitylogOptions()</text><polygon fill="#181818" points="621.1108,622.3281,631.1108,626.3281,621.1108,630.3281,625.1108,626.3281" style="stroke:#181818;stroke-width:1.0;"/><line style="stroke:#181818;stroke-width:1.0;" x1="454.5688" x2="627.1108" y1="626.3281" y2="626.3281"/><text fill="#000000" font-family="sans-serif" font-size="13" lengthAdjust="spacing" textLength="159.542" x="461.5688" y="621.4717">Log aktivitas "ditambahkan"</text><polygon fill="#181818" points="805.3662,652.6797,815.3662,656.6797,805.3662,660.6797,809.3662,656.6797" style="stroke:#181818;stroke-width:1.0;"/><line style="stroke:#181818;stroke-width:1.0;" x1="643.1108" x2="811.3662" y1="656.6797" y2="656.6797"/><text fill="#000000" font-family="sans-serif" font-size="13" lengthAdjust="spacing" textLength="150.2554" x="650.1108" y="651.8232">INSERT INTO activity_log</text><polygon fill="#181818" points="649.1108,683.0313,639.1108,687.0313,649.1108,691.0313,645.1108,687.0313" style="stroke:#181818;stroke-width:1.0;"/><line style="stroke:#181818;stroke-width:1.0;stroke-dasharray:2.0,2.0;" x1="643.1108" x2="816.3662" y1="687.0313" y2="687.0313"/><text fill="#000000" font-family="sans-serif" font-size="13" lengthAdjust="spacing" textLength="18.7827" x="655.1108" y="682.1748">OK</text><polygon fill="#181818" points="289.2036,713.3828,279.2036,717.3828,289.2036,721.3828,285.2036,717.3828" style="stroke:#181818;stroke-width:1.0;"/><line style="stroke:#181818;stroke-width:1.0;stroke-dasharray:2.0,2.0;" x1="283.2036" x2="448.5688" y1="717.3828" y2="717.3828"/><text fill="#000000" font-family="sans-serif" font-size="13" lengthAdjust="spacing" textLength="93.209" x="295.2036" y="712.5264">Material created</text><polygon fill="#181818" points="84.5894,743.7344,74.5894,747.7344,84.5894,751.7344,80.5894,747.7344" style="stroke:#181818;stroke-width:1.0;"/><line style="stroke:#181818;stroke-width:1.0;stroke-dasharray:2.0,2.0;" x1="78.5894" x2="267.2036" y1="747.7344" y2="747.7344"/><text fill="#000000" font-family="sans-serif" font-size="13" lengthAdjust="spacing" textLength="158.228" x="90.5894" y="742.8779">Tampilkan notifikasi sukses</text><line style="stroke:#181818;stroke-width:1.0;" x1="278.2036" x2="320.2036" y1="778.0859" y2="778.0859"/><line style="stroke:#181818;stroke-width:1.0;" x1="320.2036" x2="320.2036" y1="778.0859" y2="791.0859"/><line style="stroke:#181818;stroke-width:1.0;" x1="279.2036" x2="320.2036" y1="791.0859" y2="791.0859"/><polygon fill="#181818" points="289.2036,787.0859,279.2036,791.0859,289.2036,795.0859,285.2036,791.0859" style="stroke:#181818;stroke-width:1.0;"/><text fill="#000000" font-family="sans-serif" font-size="13" lengthAdjust="spacing" textLength="142.3652" x="285.2036" y="773.2295">Redirect ke daftar bahan</text><!--SRC=[XLF1Rjim3BtxAmXV6WCjTY-m0Yso5a7R1MZIdGeCjCKuX6t9a-GC_VjHikFKSRVv8DlKUuyKzUZPrmGR-jMHBWYMZAN5vXgssEIuXplSevQrwf842syif7TOiiHM-a1Q0fm2EkWSsQH5wxdW5hM7z1azMSRwoxsnpPjUFF61VhEbBE9t4lmSBz1dewZkSSqGdMAFkT-VJ3d5rwPC57hCqH6ao-4hRgayIKAPS7KJqyCrt5QE7EonnaPEvFiZv-78uR1yaEHzfKaad8Wlf9KenJ_MRUTdqYl740hfvMIjEgbKIw9BQ5XpqpMNeCXLbbl7sNc27rYpGj4OrB7sfrY9fNG4vEbPGelPuwsrN5UIi2KdArbhR4ArD6DavsJtylueS3FsMJGAI_Ap2CLd4JEsOhoC48tBI9jAvCRuHVQc7qYJ3SpNrzNoNuGDUN0UVUVWArmy6cTqUJ4Zg3mqzllcsyjMNjlrkEaYLBQlfhBhn_-MMfA_3UTZ_oxUMRUUZNQBR4QHJK6Btm2h21T7fOfxpqZ3qschWWz38D0-gno7d3-FmA7uFirGjwAPtbbT9yCSnsUuFdKkCB-xltj76yyxhe9PN1T6P6ALSGIKJ7FXeI8n-iwZ7IP7HYD9FcIE0_G7]--></g></svg>