<svg xmlns="http://www.w3.org/2000/svg" xmlns:xlink="http://www.w3.org/1999/xlink" contentStyleType="text/css" height="1660px" preserveAspectRatio="none" style="width:1555px;height:1660px;background:#FFFFFF;" version="1.1" viewBox="0 0 1555 1660" width="1555px" zoomAndPan="magnify"><title>Sequence Diagram: Proses Produksi</title><defs/><g><text fill="#000000" font-family="sans-serif" font-size="14" font-weight="bold" lengthAdjust="spacing" textLength="245.0889" x="656.6577" y="29.5332">Sequence Diagram: Proses Produksi</text><rect fill="#FFFFFF" height="1407.1719" style="stroke:#181818;stroke-width:1.0;" width="10" x="239.7944" y="153.5703"/><rect fill="#FFFFFF" height="167.1094" style="stroke:#181818;stroke-width:1.0;" width="10" x="473.2441" y="396.3828"/><rect fill="#FFFFFF" height="60.7031" style="stroke:#181818;stroke-width:1.0;" width="10" x="677.0757" y="742.6016"/><rect fill="#FFFFFF" height="60.7031" style="stroke:#181818;stroke-width:1.0;" width="10" x="808.458" y="619.1953"/><rect fill="#FFFFFF" height="438.9219" style="stroke:#181818;stroke-width:1.0;" width="10" x="913.375" y="895.3594"/><rect fill="#FFFFFF" height="60.7031" style="stroke:#181818;stroke-width:1.0;" width="10" x="1181.5674" y="1132.1719"/><rect fill="none" height="109.4063" style="stroke:#000000;stroke-width:1.5;" width="1353.7476" x="175.6567" y="578.4922"/><rect fill="none" height="647.3828" style="stroke:#000000;stroke-width:1.5;" width="1383.7476" x="165.6567" y="701.8984"/><rect fill="none" height="487.625" style="stroke:#000000;stroke-width:1.5;" width="1363.7476" x="175.6567" y="854.6563"/><rect fill="none" height="186.4609" style="stroke:#000000;stroke-width:1.5;" width="652.9258" x="876.4785" y="1014.4141"/><line style="stroke:#181818;stroke-width:0.5;stroke-dasharray:5.0,5.0;" x1="58" x2="58" y1="121.2188" y2="1578.7422"/><line style="stroke:#181818;stroke-width:0.5;stroke-dasharray:5.0,5.0;" x1="244.6567" x2="244.6567" y1="121.2188" y2="1578.7422"/><line style="stroke:#181818;stroke-width:0.5;stroke-dasharray:5.0,5.0;" x1="477.7788" x2="477.7788" y1="121.2188" y2="1578.7422"/><line style="stroke:#181818;stroke-width:0.5;stroke-dasharray:5.0,5.0;" x1="681.7139" x2="681.7139" y1="121.2188" y2="1578.7422"/><line style="stroke:#181818;stroke-width:0.5;stroke-dasharray:5.0,5.0;" x1="813.4375" x2="813.4375" y1="121.2188" y2="1578.7422"/><line style="stroke:#181818;stroke-width:0.5;stroke-dasharray:5.0,5.0;" x1="917.4785" x2="917.4785" y1="121.2188" y2="1578.7422"/><line style="stroke:#181818;stroke-width:0.5;stroke-dasharray:5.0,5.0;" x1="1186.0952" x2="1186.0952" y1="121.2188" y2="1578.7422"/><line style="stroke:#181818;stroke-width:0.5;stroke-dasharray:5.0,5.0;" x1="1287.0396" x2="1287.0396" y1="121.2188" y2="1578.7422"/><line style="stroke:#181818;stroke-width:0.5;stroke-dasharray:5.0,5.0;" x1="1485.4736" x2="1485.4736" y1="121.2188" y2="1578.7422"/><text fill="#000000" font-family="sans-serif" font-size="14" lengthAdjust="spacing" textLength="101.9512" x="5" y="118.1426">Bagian Produksi</text><ellipse cx="58.9756" cy="52.1094" fill="#E2E2F0" rx="8" ry="8" style="stroke:#181818;stroke-width:0.5;"/><path d="M58.9756,60.1094 L58.9756,87.1094 M45.9756,68.1094 L71.9756,68.1094 M58.9756,87.1094 L45.9756,102.1094 M58.9756,87.1094 L71.9756,102.1094 " fill="none" style="stroke:#181818;stroke-width:0.5;"/><text fill="#000000" font-family="sans-serif" font-size="14" lengthAdjust="spacing" textLength="101.9512" x="5" y="1592.2754">Bagian Produksi</text><ellipse cx="58.9756" cy="1603.8516" fill="#E2E2F0" rx="8" ry="8" style="stroke:#181818;stroke-width:0.5;"/><path d="M58.9756,1611.8516 L58.9756,1638.8516 M45.9756,1619.8516 L71.9756,1619.8516 M58.9756,1638.8516 L45.9756,1653.8516 M58.9756,1638.8516 L71.9756,1653.8516 " fill="none" style="stroke:#181818;stroke-width:0.5;"/><rect fill="#E2E2F0" height="49.2188" rx="2.5" ry="2.5" style="stroke:#181818;stroke-width:0.5;" width="118.2754" x="185.6567" y="71"/><text fill="#000000" font-family="sans-serif" font-size="14" lengthAdjust="spacing" textLength="104.2754" x="192.6567" y="92.5332">Production/Mulai</text><text fill="#000000" font-family="sans-serif" font-size="14" lengthAdjust="spacing" textLength="60.6758" x="214.4565" y="110.1426">(Livewire)</text><rect fill="#E2E2F0" height="49.2188" rx="2.5" ry="2.5" style="stroke:#181818;stroke-width:0.5;" width="118.2754" x="185.6567" y="1577.7422"/><text fill="#000000" font-family="sans-serif" font-size="14" lengthAdjust="spacing" textLength="104.2754" x="192.6567" y="1599.2754">Production/Mulai</text><text fill="#000000" font-family="sans-serif" font-size="14" lengthAdjust="spacing" textLength="60.6758" x="214.4565" y="1616.8848">(Livewire)</text><rect fill="#E2E2F0" height="49.2188" rx="2.5" ry="2.5" style="stroke:#181818;stroke-width:0.5;" width="80.9307" x="437.7788" y="71"/><text fill="#000000" font-family="sans-serif" font-size="14" lengthAdjust="spacing" textLength="66.9307" x="444.7788" y="92.5332">Production</text><text fill="#000000" font-family="sans-serif" font-size="14" lengthAdjust="spacing" textLength="47.4551" x="454.5166" y="110.1426">(Model)</text><rect fill="#E2E2F0" height="49.2188" rx="2.5" ry="2.5" style="stroke:#181818;stroke-width:0.5;" width="80.9307" x="437.7788" y="1577.7422"/><text fill="#000000" font-family="sans-serif" font-size="14" lengthAdjust="spacing" textLength="66.9307" x="444.7788" y="1599.2754">Production</text><text fill="#000000" font-family="sans-serif" font-size="14" lengthAdjust="spacing" textLength="47.4551" x="454.5166" y="1616.8848">(Model)</text><rect fill="#E2E2F0" height="49.2188" rx="2.5" ry="2.5" style="stroke:#181818;stroke-width:0.5;" width="116.7236" x="623.7139" y="71"/><text fill="#000000" font-family="sans-serif" font-size="14" lengthAdjust="spacing" textLength="102.7236" x="630.7139" y="92.5332">ProductionDetail</text><text fill="#000000" font-family="sans-serif" font-size="14" lengthAdjust="spacing" textLength="47.4551" x="658.3481" y="110.1426">(Model)</text><rect fill="#E2E2F0" height="49.2188" rx="2.5" ry="2.5" style="stroke:#181818;stroke-width:0.5;" width="116.7236" x="623.7139" y="1577.7422"/><text fill="#000000" font-family="sans-serif" font-size="14" lengthAdjust="spacing" textLength="102.7236" x="630.7139" y="1599.2754">ProductionDetail</text><text fill="#000000" font-family="sans-serif" font-size="14" lengthAdjust="spacing" textLength="47.4551" x="658.3481" y="1616.8848">(Model)</text><rect fill="#E2E2F0" height="49.2188" rx="2.5" ry="2.5" style="stroke:#181818;stroke-width:0.5;" width="126.041" x="750.4375" y="71"/><text fill="#000000" font-family="sans-serif" font-size="14" lengthAdjust="spacing" textLength="112.041" x="757.4375" y="92.5332">ProductionWorker</text><text fill="#000000" font-family="sans-serif" font-size="14" lengthAdjust="spacing" textLength="47.4551" x="789.7305" y="110.1426">(Model)</text><rect fill="#E2E2F0" height="49.2188" rx="2.5" ry="2.5" style="stroke:#181818;stroke-width:0.5;" width="126.041" x="750.4375" y="1577.7422"/><text fill="#000000" font-family="sans-serif" font-size="14" lengthAdjust="spacing" textLength="112.041" x="757.4375" y="1599.2754">ProductionWorker</text><text fill="#000000" font-family="sans-serif" font-size="14" lengthAdjust="spacing" textLength="47.4551" x="789.7305" y="1616.8848">(Model)</text><rect fill="#E2E2F0" height="49.2188" rx="2.5" ry="2.5" style="stroke:#181818;stroke-width:0.5;" width="63.793" x="886.4785" y="71"/><text fill="#000000" font-family="sans-serif" font-size="14" lengthAdjust="spacing" textLength="49.793" x="893.4785" y="92.5332">Material</text><text fill="#000000" font-family="sans-serif" font-size="14" lengthAdjust="spacing" textLength="47.4551" x="894.6475" y="110.1426">(Model)</text><rect fill="#E2E2F0" height="49.2188" rx="2.5" ry="2.5" style="stroke:#181818;stroke-width:0.5;" width="63.793" x="886.4785" y="1577.7422"/><text fill="#000000" font-family="sans-serif" font-size="14" lengthAdjust="spacing" textLength="49.793" x="893.4785" y="1599.2754">Material</text><text fill="#000000" font-family="sans-serif" font-size="14" lengthAdjust="spacing" textLength="47.4551" x="894.6475" y="1616.8848">(Model)</text><rect fill="#E2E2F0" height="49.2188" rx="2.5" ry="2.5" style="stroke:#181818;stroke-width:0.5;" width="94.9443" x="1139.0952" y="71"/><text fill="#000000" font-family="sans-serif" font-size="14" lengthAdjust="spacing" textLength="80.9443" x="1146.0952" y="92.5332">InventoryLog</text><text fill="#000000" font-family="sans-serif" font-size="14" lengthAdjust="spacing" textLength="47.4551" x="1162.8398" y="110.1426">(Model)</text><rect fill="#E2E2F0" height="49.2188" rx="2.5" ry="2.5" style="stroke:#181818;stroke-width:0.5;" width="94.9443" x="1139.0952" y="1577.7422"/><text fill="#000000" font-family="sans-serif" font-size="14" lengthAdjust="spacing" textLength="80.9443" x="1146.0952" y="1599.2754">InventoryLog</text><text fill="#000000" font-family="sans-serif" font-size="14" lengthAdjust="spacing" textLength="47.4551" x="1162.8398" y="1616.8848">(Model)</text><rect fill="#E2E2F0" height="49.2188" rx="2.5" ry="2.5" style="stroke:#181818;stroke-width:0.5;" width="87.1445" x="1244.0396" y="71"/><text fill="#000000" font-family="sans-serif" font-size="14" lengthAdjust="spacing" textLength="73.1445" x="1251.0396" y="92.5332">Transaction</text><text fill="#000000" font-family="sans-serif" font-size="14" lengthAdjust="spacing" textLength="47.4551" x="1263.8843" y="110.1426">(Model)</text><rect fill="#E2E2F0" height="49.2188" rx="2.5" ry="2.5" style="stroke:#181818;stroke-width:0.5;" width="87.1445" x="1244.0396" y="1577.7422"/><text fill="#000000" font-family="sans-serif" font-size="14" lengthAdjust="spacing" textLength="73.1445" x="1251.0396" y="1599.2754">Transaction</text><text fill="#000000" font-family="sans-serif" font-size="14" lengthAdjust="spacing" textLength="47.4551" x="1263.8843" y="1616.8848">(Model)</text><text fill="#000000" font-family="sans-serif" font-size="14" lengthAdjust="spacing" textLength="59.9307" x="1453.4736" y="118.1426">Database</text><path d="M1468.439,67.6094 C1468.439,57.6094 1486.439,57.6094 1486.439,57.6094 C1486.439,57.6094 1504.439,57.6094 1504.439,67.6094 L1504.439,93.6094 C1504.439,103.6094 1486.439,103.6094 1486.439,103.6094 C1486.439,103.6094 1468.439,103.6094 1468.439,93.6094 L1468.439,67.6094 " fill="#E2E2F0" style="stroke:#181818;stroke-width:1.5;"/><path d="M1468.439,67.6094 C1468.439,77.6094 1486.439,77.6094 1486.439,77.6094 C1486.439,77.6094 1504.439,77.6094 1504.439,67.6094 " fill="none" style="stroke:#181818;stroke-width:1.5;"/><text fill="#000000" font-family="sans-serif" font-size="14" lengthAdjust="spacing" textLength="59.9307" x="1453.4736" y="1592.2754">Database</text><path d="M1468.439,1605.3516 C1468.439,1595.3516 1486.439,1595.3516 1486.439,1595.3516 C1486.439,1595.3516 1504.439,1595.3516 1504.439,1605.3516 L1504.439,1631.3516 C1504.439,1641.3516 1486.439,1641.3516 1486.439,1641.3516 C1486.439,1641.3516 1468.439,1641.3516 1468.439,1631.3516 L1468.439,1605.3516 " fill="#E2E2F0" style="stroke:#181818;stroke-width:1.5;"/><path d="M1468.439,1605.3516 C1468.439,1615.3516 1486.439,1615.3516 1486.439,1615.3516 C1486.439,1615.3516 1504.439,1615.3516 1504.439,1605.3516 " fill="none" style="stroke:#181818;stroke-width:1.5;"/><rect fill="#FFFFFF" height="1407.1719" style="stroke:#181818;stroke-width:1.0;" width="10" x="239.7944" y="153.5703"/><rect fill="#FFFFFF" height="167.1094" style="stroke:#181818;stroke-width:1.0;" width="10" x="473.2441" y="396.3828"/><rect fill="#FFFFFF" height="60.7031" style="stroke:#181818;stroke-width:1.0;" width="10" x="677.0757" y="742.6016"/><rect fill="#FFFFFF" height="60.7031" style="stroke:#181818;stroke-width:1.0;" width="10" x="808.458" y="619.1953"/><rect fill="#FFFFFF" height="438.9219" style="stroke:#181818;stroke-width:1.0;" width="10" x="913.375" y="895.3594"/><rect fill="#FFFFFF" height="60.7031" style="stroke:#181818;stroke-width:1.0;" width="10" x="1181.5674" y="1132.1719"/><polygon fill="#181818" points="227.7944,149.5703,237.7944,153.5703,227.7944,157.5703,231.7944,153.5703" style="stroke:#181818;stroke-width:1.0;"/><line style="stroke:#181818;stroke-width:1.0;" x1="58.9756" x2="233.7944" y1="153.5703" y2="153.5703"/><text fill="#000000" font-family="sans-serif" font-size="13" lengthAdjust="spacing" textLength="146.707" x="65.9756" y="148.7139">Pilih pesanan dari antrian</text><polygon fill="#181818" points="1275.6118,179.9219,1285.6118,183.9219,1275.6118,187.9219,1279.6118,183.9219" style="stroke:#181818;stroke-width:1.0;"/><line style="stroke:#181818;stroke-width:1.0;" x1="249.7944" x2="1281.6118" y1="183.9219" y2="183.9219"/><text fill="#000000" font-family="sans-serif" font-size="13" lengthAdjust="spacing" textLength="110.5571" x="256.7944" y="179.0654">find(transaction_id)</text><polygon fill="#181818" points="1474.439,210.2734,1484.439,214.2734,1474.439,218.2734,1478.439,214.2734" style="stroke:#181818;stroke-width:1.0;"/><line style="stroke:#181818;stroke-width:1.0;" x1="1287.6118" x2="1480.439" y1="214.2734" y2="214.2734"/><text fill="#000000" font-family="sans-serif" font-size="13" lengthAdjust="spacing" textLength="174.8271" x="1294.6118" y="209.417">SELECT * FROM transactions</text><polygon fill="#181818" points="1298.6118,240.625,1288.6118,244.625,1298.6118,248.625,1294.6118,244.625" style="stroke:#181818;stroke-width:1.0;"/><line style="stroke:#181818;stroke-width:1.0;stroke-dasharray:2.0,2.0;" x1="1292.6118" x2="1485.439" y1="244.625" y2="244.625"/><text fill="#000000" font-family="sans-serif" font-size="13" lengthAdjust="spacing" textLength="92.5044" x="1304.6118" y="239.7686">transaction data</text><polygon fill="#181818" points="260.7944,270.9766,250.7944,274.9766,260.7944,278.9766,256.7944,274.9766" style="stroke:#181818;stroke-width:1.0;"/><line style="stroke:#181818;stroke-width:1.0;stroke-dasharray:2.0,2.0;" x1="254.7944" x2="1286.6118" y1="274.9766" y2="274.9766"/><text fill="#000000" font-family="sans-serif" font-size="13" lengthAdjust="spacing" textLength="106.2217" x="266.7944" y="270.1201">Transaction object</text><polygon fill="#181818" points="69.9756,301.3281,59.9756,305.3281,69.9756,309.3281,65.9756,305.3281" style="stroke:#181818;stroke-width:1.0;"/><line style="stroke:#181818;stroke-width:1.0;stroke-dasharray:2.0,2.0;" x1="63.9756" x2="238.7944" y1="305.3281" y2="305.3281"/><text fill="#000000" font-family="sans-serif" font-size="13" lengthAdjust="spacing" textLength="148.1479" x="75.9756" y="300.4717">Tampilkan detail pesanan</text><polygon fill="#181818" points="227.7944,331.6797,237.7944,335.6797,227.7944,339.6797,231.7944,335.6797" style="stroke:#181818;stroke-width:1.0;"/><line style="stroke:#181818;stroke-width:1.0;" x1="58.9756" x2="233.7944" y1="335.6797" y2="335.6797"/><text fill="#000000" font-family="sans-serif" font-size="13" lengthAdjust="spacing" textLength="156.8188" x="65.9756" y="330.8232">Pilih pekerja yang bertugas</text><polygon fill="#181818" points="227.7944,362.0313,237.7944,366.0313,227.7944,370.0313,231.7944,366.0313" style="stroke:#181818;stroke-width:1.0;"/><line style="stroke:#181818;stroke-width:1.0;" x1="58.9756" x2="233.7944" y1="366.0313" y2="366.0313"/><text fill="#000000" font-family="sans-serif" font-size="13" lengthAdjust="spacing" textLength="109.8145" x="65.9756" y="361.1748">Klik Mulai Produksi</text><polygon fill="#181818" points="461.2441,392.3828,471.2441,396.3828,461.2441,400.3828,465.2441,396.3828" style="stroke:#181818;stroke-width:1.0;"/><line style="stroke:#181818;stroke-width:1.0;" x1="249.7944" x2="467.2441" y1="396.3828" y2="396.3828"/><text fill="#000000" font-family="sans-serif" font-size="13" lengthAdjust="spacing" textLength="176.3125" x="256.7944" y="391.5264">create(transaction_id, method)</text><line style="stroke:#181818;stroke-width:1.0;" x1="483.2441" x2="525.2441" y1="459.4375" y2="459.4375"/><line style="stroke:#181818;stroke-width:1.0;" x1="525.2441" x2="525.2441" y1="459.4375" y2="472.4375"/><line style="stroke:#181818;stroke-width:1.0;" x1="484.2441" x2="525.2441" y1="472.4375" y2="472.4375"/><polygon fill="#181818" points="494.2441,468.4375,484.2441,472.4375,494.2441,476.4375,490.2441,472.4375" style="stroke:#181818;stroke-width:1.0;"/><text fill="#000000" font-family="sans-serif" font-size="13" lengthAdjust="spacing" textLength="33.96" x="490.2441" y="421.8779">boot()</text><text fill="#000000" font-family="sans-serif" font-size="13" lengthAdjust="spacing" textLength="89.5908" x="490.2441" y="438.2295">Generate UUID</text><text fill="#000000" font-family="sans-serif" font-size="13" lengthAdjust="spacing" textLength="169.8315" x="490.2441" y="454.5811">Generate production_number</text><polygon fill="#181818" points="1474.439,498.7891,1484.439,502.7891,1474.439,506.7891,1478.439,502.7891" style="stroke:#181818;stroke-width:1.0;"/><line style="stroke:#181818;stroke-width:1.0;" x1="483.2441" x2="1480.439" y1="502.7891" y2="502.7891"/><text fill="#000000" font-family="sans-serif" font-size="13" lengthAdjust="spacing" textLength="153.1563" x="490.2441" y="497.9326">INSERT INTO productions</text><polygon fill="#181818" points="494.2441,529.1406,484.2441,533.1406,494.2441,537.1406,490.2441,533.1406" style="stroke:#181818;stroke-width:1.0;"/><line style="stroke:#181818;stroke-width:1.0;stroke-dasharray:2.0,2.0;" x1="488.2441" x2="1485.439" y1="533.1406" y2="533.1406"/><text fill="#000000" font-family="sans-serif" font-size="13" lengthAdjust="spacing" textLength="18.7827" x="500.2441" y="528.2842">OK</text><polygon fill="#181818" points="260.7944,559.4922,250.7944,563.4922,260.7944,567.4922,256.7944,563.4922" style="stroke:#181818;stroke-width:1.0;"/><line style="stroke:#181818;stroke-width:1.0;stroke-dasharray:2.0,2.0;" x1="254.7944" x2="477.2441" y1="563.4922" y2="563.4922"/><text fill="#000000" font-family="sans-serif" font-size="13" lengthAdjust="spacing" textLength="199.4497" x="266.7944" y="558.6357">Production created (production_id)</text><path d="M175.6567,578.4922 L248.0913,578.4922 L248.0913,586.8438 L238.0913,596.8438 L175.6567,596.8438 L175.6567,578.4922 " fill="#EEEEEE" style="stroke:#000000;stroke-width:1.5;"/><rect fill="none" height="109.4063" style="stroke:#000000;stroke-width:1.5;" width="1353.7476" x="175.6567" y="578.4922"/><text fill="#000000" font-family="sans-serif" font-size="13" font-weight="bold" lengthAdjust="spacing" textLength="27.4346" x="190.6567" y="592.9873">loop</text><text fill="#000000" font-family="sans-serif" font-size="11" font-weight="bold" lengthAdjust="spacing" textLength="114.9199" x="263.0913" y="591.9111">[Untuk setiap pekerja]</text><polygon fill="#181818" points="796.458,615.1953,806.458,619.1953,796.458,623.1953,800.458,619.1953" style="stroke:#181818;stroke-width:1.0;"/><line style="stroke:#181818;stroke-width:1.0;" x1="249.7944" x2="802.458" y1="619.1953" y2="619.1953"/><text fill="#000000" font-family="sans-serif" font-size="13" lengthAdjust="spacing" textLength="172.707" x="256.7944" y="614.3389">create(production_id, user_id)</text><polygon fill="#181818" points="1474.439,645.5469,1484.439,649.5469,1474.439,653.5469,1478.439,649.5469" style="stroke:#181818;stroke-width:1.0;"/><line style="stroke:#181818;stroke-width:1.0;" x1="818.458" x2="1480.439" y1="649.5469" y2="649.5469"/><text fill="#000000" font-family="sans-serif" font-size="13" lengthAdjust="spacing" textLength="199.3926" x="825.458" y="644.6904">INSERT INTO production_workers</text><polygon fill="#181818" points="824.458,675.8984,814.458,679.8984,824.458,683.8984,820.458,679.8984" style="stroke:#181818;stroke-width:1.0;"/><line style="stroke:#181818;stroke-width:1.0;stroke-dasharray:2.0,2.0;" x1="818.458" x2="1485.439" y1="679.8984" y2="679.8984"/><text fill="#000000" font-family="sans-serif" font-size="13" lengthAdjust="spacing" textLength="18.7827" x="830.458" y="675.042">OK</text><path d="M165.6567,701.8984 L238.0913,701.8984 L238.0913,710.25 L228.0913,720.25 L165.6567,720.25 L165.6567,701.8984 " fill="#EEEEEE" style="stroke:#000000;stroke-width:1.5;"/><rect fill="none" height="647.3828" style="stroke:#000000;stroke-width:1.5;" width="1383.7476" x="165.6567" y="701.8984"/><text fill="#000000" font-family="sans-serif" font-size="13" font-weight="bold" lengthAdjust="spacing" textLength="27.4346" x="180.6567" y="716.3936">loop</text><text fill="#000000" font-family="sans-serif" font-size="11" font-weight="bold" lengthAdjust="spacing" textLength="196.2007" x="253.0913" y="715.3174">[Untuk setiap produk dalam pesanan]</text><polygon fill="#181818" points="665.0757,738.6016,675.0757,742.6016,665.0757,746.6016,669.0757,742.6016" style="stroke:#181818;stroke-width:1.0;"/><line style="stroke:#181818;stroke-width:1.0;" x1="249.7944" x2="671.0757" y1="742.6016" y2="742.6016"/><text fill="#000000" font-family="sans-serif" font-size="13" lengthAdjust="spacing" textLength="215.3442" x="256.7944" y="737.7451">create(production_id, product_id, qty)</text><polygon fill="#181818" points="1474.439,768.9531,1484.439,772.9531,1474.439,776.9531,1478.439,772.9531" style="stroke:#181818;stroke-width:1.0;"/><line style="stroke:#181818;stroke-width:1.0;" x1="687.0757" x2="1480.439" y1="772.9531" y2="772.9531"/><text fill="#000000" font-family="sans-serif" font-size="13" lengthAdjust="spacing" textLength="191.4644" x="694.0757" y="768.0967">INSERT INTO production_details</text><polygon fill="#181818" points="693.0757,799.3047,683.0757,803.3047,693.0757,807.3047,689.0757,803.3047" style="stroke:#181818;stroke-width:1.0;"/><line style="stroke:#181818;stroke-width:1.0;stroke-dasharray:2.0,2.0;" x1="687.0757" x2="1485.439" y1="803.3047" y2="803.3047"/><text fill="#000000" font-family="sans-serif" font-size="13" lengthAdjust="spacing" textLength="18.7827" x="699.0757" y="798.4482">OK</text><path d="M254,816.3047 L254,842.3047 L534,842.3047 L534,826.3047 L524,816.3047 L254,816.3047 " fill="#FEFFDD" style="stroke:#181818;stroke-width:0.5;"/><path d="M524,816.3047 L524,826.3047 L534,826.3047 L524,816.3047 " fill="#FEFFDD" style="stroke:#181818;stroke-width:0.5;"/><text fill="#000000" font-family="sans-serif" font-size="13" lengthAdjust="spacing" textLength="259.4224" x="260" y="834.7998">Untuk setiap bahan dalam komposisi produk:</text><path d="M175.6567,854.6563 L248.0913,854.6563 L248.0913,863.0078 L238.0913,873.0078 L175.6567,873.0078 L175.6567,854.6563 " fill="#EEEEEE" style="stroke:#000000;stroke-width:1.5;"/><rect fill="none" height="487.625" style="stroke:#000000;stroke-width:1.5;" width="1363.7476" x="175.6567" y="854.6563"/><text fill="#000000" font-family="sans-serif" font-size="13" font-weight="bold" lengthAdjust="spacing" textLength="27.4346" x="190.6567" y="869.1514">loop</text><text fill="#000000" font-family="sans-serif" font-size="11" font-weight="bold" lengthAdjust="spacing" textLength="173.5723" x="263.0913" y="868.0752">[Untuk setiap bahan (komposisi)]</text><polygon fill="#181818" points="901.375,891.3594,911.375,895.3594,901.375,899.3594,905.375,895.3594" style="stroke:#181818;stroke-width:1.0;"/><line style="stroke:#181818;stroke-width:1.0;" x1="249.7944" x2="907.375" y1="895.3594" y2="895.3594"/><text fill="#000000" font-family="sans-serif" font-size="13" lengthAdjust="spacing" textLength="194.3779" x="256.7944" y="890.5029">reduceQuantity(qty, unit, logData)</text><line style="stroke:#181818;stroke-width:1.0;" x1="923.375" x2="965.375" y1="925.7109" y2="925.7109"/><line style="stroke:#181818;stroke-width:1.0;" x1="965.375" x2="965.375" y1="925.7109" y2="938.7109"/><line style="stroke:#181818;stroke-width:1.0;" x1="924.375" x2="965.375" y1="938.7109" y2="938.7109"/><polygon fill="#181818" points="934.375,934.7109,924.375,938.7109,934.375,942.7109,930.375,938.7109" style="stroke:#181818;stroke-width:1.0;"/><text fill="#000000" font-family="sans-serif" font-size="13" lengthAdjust="spacing" textLength="138.0044" x="930.375" y="920.8545">getTotalQuantityInUnit()</text><polygon fill="#181818" points="1474.439,965.0625,1484.439,969.0625,1474.439,973.0625,1478.439,969.0625" style="stroke:#181818;stroke-width:1.0;"/><line style="stroke:#181818;stroke-width:1.0;" x1="923.375" x2="1480.439" y1="969.0625" y2="969.0625"/><text fill="#000000" font-family="sans-serif" font-size="13" lengthAdjust="spacing" textLength="200.1416" x="930.375" y="964.2061">SELECT batches ORDER BY date</text><polygon fill="#181818" points="934.375,995.4141,924.375,999.4141,934.375,1003.4141,930.375,999.4141" style="stroke:#181818;stroke-width:1.0;"/><line style="stroke:#181818;stroke-width:1.0;stroke-dasharray:2.0,2.0;" x1="928.375" x2="1485.439" y1="999.4141" y2="999.4141"/><text fill="#000000" font-family="sans-serif" font-size="13" lengthAdjust="spacing" textLength="121.3672" x="940.375" y="994.5576">batches (FIFO order)</text><path d="M876.4785,1014.4141 L948.9131,1014.4141 L948.9131,1022.7656 L938.9131,1032.7656 L876.4785,1032.7656 L876.4785,1014.4141 " fill="#EEEEEE" style="stroke:#000000;stroke-width:1.5;"/><rect fill="none" height="186.4609" style="stroke:#000000;stroke-width:1.5;" width="652.9258" x="876.4785" y="1014.4141"/><text fill="#000000" font-family="sans-serif" font-size="13" font-weight="bold" lengthAdjust="spacing" textLength="27.4346" x="891.4785" y="1028.9092">loop</text><text fill="#000000" font-family="sans-serif" font-size="11" font-weight="bold" lengthAdjust="spacing" textLength="139.9385" x="963.9131" y="1027.833">[Kurangi dari batch (FIFO)]</text><polygon fill="#181818" points="1474.439,1067.4688,1484.439,1071.4688,1474.439,1075.4688,1478.439,1071.4688" style="stroke:#181818;stroke-width:1.0;"/><line style="stroke:#181818;stroke-width:1.0;" x1="923.375" x2="1480.439" y1="1071.4688" y2="1071.4688"/><text fill="#000000" font-family="sans-serif" font-size="13" lengthAdjust="spacing" textLength="155.3398" x="930.375" y="1050.2607">UPDATE material_batches</text><text fill="#000000" font-family="sans-serif" font-size="13" lengthAdjust="spacing" textLength="185.3579" x="930.375" y="1066.6123">SET batch_quantity = qty - used</text><polygon fill="#181818" points="934.375,1097.8203,924.375,1101.8203,934.375,1105.8203,930.375,1101.8203" style="stroke:#181818;stroke-width:1.0;"/><line style="stroke:#181818;stroke-width:1.0;stroke-dasharray:2.0,2.0;" x1="928.375" x2="1485.439" y1="1101.8203" y2="1101.8203"/><text fill="#000000" font-family="sans-serif" font-size="13" lengthAdjust="spacing" textLength="18.7827" x="940.375" y="1096.9639">OK</text><polygon fill="#181818" points="1169.5674,1128.1719,1179.5674,1132.1719,1169.5674,1136.1719,1173.5674,1132.1719" style="stroke:#181818;stroke-width:1.0;"/><line style="stroke:#181818;stroke-width:1.0;" x1="923.375" x2="1175.5674" y1="1132.1719" y2="1132.1719"/><text fill="#000000" font-family="sans-serif" font-size="13" lengthAdjust="spacing" textLength="239.1924" x="930.375" y="1127.3154">create(material_id, batch_id, qty_change)</text><polygon fill="#181818" points="1474.439,1158.5234,1484.439,1162.5234,1474.439,1166.5234,1478.439,1162.5234" style="stroke:#181818;stroke-width:1.0;"/><line style="stroke:#181818;stroke-width:1.0;" x1="1191.5674" x2="1480.439" y1="1162.5234" y2="1162.5234"/><text fill="#000000" font-family="sans-serif" font-size="13" lengthAdjust="spacing" textLength="169.7744" x="1198.5674" y="1157.667">INSERT INTO inventory_logs</text><polygon fill="#181818" points="1197.5674,1188.875,1187.5674,1192.875,1197.5674,1196.875,1193.5674,1192.875" style="stroke:#181818;stroke-width:1.0;"/><line style="stroke:#181818;stroke-width:1.0;stroke-dasharray:2.0,2.0;" x1="1191.5674" x2="1485.439" y1="1192.875" y2="1192.875"/><text fill="#000000" font-family="sans-serif" font-size="13" lengthAdjust="spacing" textLength="18.7827" x="1203.5674" y="1188.0186">OK</text><line style="stroke:#181818;stroke-width:1.0;" x1="923.375" x2="965.375" y1="1230.2266" y2="1230.2266"/><line style="stroke:#181818;stroke-width:1.0;" x1="965.375" x2="965.375" y1="1230.2266" y2="1243.2266"/><line style="stroke:#181818;stroke-width:1.0;" x1="924.375" x2="965.375" y1="1243.2266" y2="1243.2266"/><polygon fill="#181818" points="934.375,1239.2266,924.375,1243.2266,934.375,1247.2266,930.375,1243.2266" style="stroke:#181818;stroke-width:1.0;"/><text fill="#000000" font-family="sans-serif" font-size="13" lengthAdjust="spacing" textLength="108.3799" x="930.375" y="1225.3701">recalculateStatus()</text><polygon fill="#181818" points="1474.439,1269.5781,1484.439,1273.5781,1474.439,1277.5781,1478.439,1273.5781" style="stroke:#181818;stroke-width:1.0;"/><line style="stroke:#181818;stroke-width:1.0;" x1="923.375" x2="1480.439" y1="1273.5781" y2="1273.5781"/><text fill="#000000" font-family="sans-serif" font-size="13" lengthAdjust="spacing" textLength="176.2681" x="930.375" y="1268.7217">UPDATE materials SET status</text><polygon fill="#181818" points="934.375,1299.9297,924.375,1303.9297,934.375,1307.9297,930.375,1303.9297" style="stroke:#181818;stroke-width:1.0;"/><line style="stroke:#181818;stroke-width:1.0;stroke-dasharray:2.0,2.0;" x1="928.375" x2="1485.439" y1="1303.9297" y2="1303.9297"/><text fill="#000000" font-family="sans-serif" font-size="13" lengthAdjust="spacing" textLength="18.7827" x="940.375" y="1299.0732">OK</text><polygon fill="#181818" points="260.7944,1330.2813,250.7944,1334.2813,260.7944,1338.2813,256.7944,1334.2813" style="stroke:#181818;stroke-width:1.0;"/><line style="stroke:#181818;stroke-width:1.0;stroke-dasharray:2.0,2.0;" x1="254.7944" x2="917.375" y1="1334.2813" y2="1334.2813"/><text fill="#000000" font-family="sans-serif" font-size="13" lengthAdjust="spacing" textLength="80.1963" x="266.7944" y="1329.4248">true (berhasil)</text><polygon fill="#181818" points="466.2441,1374.6328,476.2441,1378.6328,466.2441,1382.6328,470.2441,1378.6328" style="stroke:#181818;stroke-width:1.0;"/><line style="stroke:#181818;stroke-width:1.0;" x1="249.7944" x2="472.2441" y1="1378.6328" y2="1378.6328"/><text fill="#000000" font-family="sans-serif" font-size="13" lengthAdjust="spacing" textLength="145.52" x="256.7944" y="1373.7764">update(status = 'Selesai')</text><polygon fill="#181818" points="1474.439,1404.9844,1484.439,1408.9844,1474.439,1412.9844,1478.439,1408.9844" style="stroke:#181818;stroke-width:1.0;"/><line style="stroke:#181818;stroke-width:1.0;" x1="478.2441" x2="1480.439" y1="1408.9844" y2="1408.9844"/><text fill="#000000" font-family="sans-serif" font-size="13" lengthAdjust="spacing" textLength="123.5508" x="485.2441" y="1404.1279">UPDATE productions</text><polygon fill="#181818" points="489.2441,1435.3359,479.2441,1439.3359,489.2441,1443.3359,485.2441,1439.3359" style="stroke:#181818;stroke-width:1.0;"/><line style="stroke:#181818;stroke-width:1.0;stroke-dasharray:2.0,2.0;" x1="483.2441" x2="1485.439" y1="1439.3359" y2="1439.3359"/><text fill="#000000" font-family="sans-serif" font-size="13" lengthAdjust="spacing" textLength="18.7827" x="495.2441" y="1434.4795">OK</text><polygon fill="#181818" points="1275.6118,1465.6875,1285.6118,1469.6875,1275.6118,1473.6875,1279.6118,1469.6875" style="stroke:#181818;stroke-width:1.0;"/><line style="stroke:#181818;stroke-width:1.0;" x1="249.7944" x2="1281.6118" y1="1469.6875" y2="1469.6875"/><text fill="#000000" font-family="sans-serif" font-size="13" lengthAdjust="spacing" textLength="175.8555" x="256.7944" y="1464.8311">update(status = 'Siap Diambil')</text><polygon fill="#181818" points="1474.439,1496.0391,1484.439,1500.0391,1474.439,1504.0391,1478.439,1500.0391" style="stroke:#181818;stroke-width:1.0;"/><line style="stroke:#181818;stroke-width:1.0;" x1="1287.6118" x2="1480.439" y1="1500.0391" y2="1500.0391"/><text fill="#000000" font-family="sans-serif" font-size="13" lengthAdjust="spacing" textLength="126.4326" x="1294.6118" y="1495.1826">UPDATE transactions</text><polygon fill="#181818" points="1298.6118,1526.3906,1288.6118,1530.3906,1298.6118,1534.3906,1294.6118,1530.3906" style="stroke:#181818;stroke-width:1.0;"/><line style="stroke:#181818;stroke-width:1.0;stroke-dasharray:2.0,2.0;" x1="1292.6118" x2="1485.439" y1="1530.3906" y2="1530.3906"/><text fill="#000000" font-family="sans-serif" font-size="13" lengthAdjust="spacing" textLength="18.7827" x="1304.6118" y="1525.5342">OK</text><polygon fill="#181818" points="69.9756,1556.7422,59.9756,1560.7422,69.9756,1564.7422,65.9756,1560.7422" style="stroke:#181818;stroke-width:1.0;"/><line style="stroke:#181818;stroke-width:1.0;stroke-dasharray:2.0,2.0;" x1="63.9756" x2="243.7944" y1="1560.7422" y2="1560.7422"/><text fill="#000000" font-family="sans-serif" font-size="13" lengthAdjust="spacing" textLength="94.6563" x="75.9756" y="1555.8857">Produksi selesai</text><!--SRC=[ZLPDRziu4BthLmnoYLmaw3t0Bh1TEmiZITsDRHGB130eQI8pbaY5f5BattT8KHGbszduOClaVBptPZYKuQP2MEDhYo97c7DMAbRVm0ybDMhxKxG7pPE4vKOgkFZ6Iiv4MBy0fg7Lg9A6ASDptZ1XuC9jvuPByVMXhHX_4kazVyDVNE7CkJnBLPzp8UC7MM3LMJQqVivoZeRnQcnVkBLp7Z-bEg0QU_noQsEF1sPGSJQ9NVlLiUrIlA4WSTxlPJcshsGvDjqe9ZGxmTBOZQHWXcLC8rpC_LD7AKiIgp5S_-c40oeFh_WU6jHCK3KAfZXG0i8cRA7u6m7jD4wS0pcw3EJvp4MHcW77ZXUpfDiago8Za_NYVl7t1hx0xUFg0I9RGfZ1THGisWCBlWyq08qOWynUC3Sz9B9nfCY6rGsl3fQ8ArxFwonhAjSBWtScIiXGcRPaUcfwL_43kDwBUhZNmlOKsUGAIQU965TGezbB4YK8sRMWzHbyCobDEdiI_w10POsss-Ky-jk4bjk9jiviV_a0JkBbz_NYSKC_crLa6lJrILPttYkI81Xx-0MaKIvRp0B7o9DAoWQsmhG7q6WuQte94w1FBqft30PPHb6lNArSUEiJ4lYpOzUy_ySCTvsLTXwUR4XCTDqoJiEZECt25POQhs9rw9cOac-dSvJyN_VyQjudrFmWwH2vEFz3hRCQKGi0Zgb5uTsNaBIeUBat89-ximl-CoATiRqxyPRpGTQDr5npByMDSo6rNBGXzh5qNPGq19Y5PBrs_QmZy0g98lxRqeJXvZqbgQWT13TNTi3PIJLu1tfXLFOxuI447YSfqMoaOLMVPYcsb2ATdVIBnrJ6JBwdgshrE5yymhV_x232uEKB4INgxTFRvUqAf2fGpOvHEidkMXeD9U_cg_Fhl0Rxay2sF-P_RHPXVUSpFedrmiFTlNgMy8VjFBYsnwiOHJq6xdle2EeK0nLbQFa0mZPvbzkt-owd5YXnp2NKprvTyOODUgh_UN_vxSX2dsBGmPc0Zmv2dCaUzCysZCASLJbDU8DhmqohF-gLIKaqs59evvPyIl4JeOUXR5IBaDAGtpFDgm56n79q7YnDDzCc5rBRsDvDErpK6fThh6YiySlP-FRmR3wyE8uk_kFWTX3G2r-TyUfo-WxWKtnq-Gz9XgkylsjfpZZaINmRkQ7s6m00]--></g></svg>