<svg xmlns="http://www.w3.org/2000/svg" xmlns:xlink="http://www.w3.org/1999/xlink" contentStyleType="text/css" height="2103px" preserveAspectRatio="none" style="width:1144px;height:2103px;background:#FFFFFF;" version="1.1" viewBox="0 0 1144 2103" width="1144px" zoomAndPan="magnify"><title>Sequence Diagram: Registrasi dan Aktivasi User</title><defs/><g><text fill="#000000" font-family="sans-serif" font-size="14" font-weight="bold" lengthAdjust="spacing" textLength="323.6816" x="406.4338" y="29.5332">Sequence Diagram: Registrasi dan Aktivasi User</text><rect fill="#FFFFFF" height="720.0859" style="stroke:#181818;stroke-width:1.0;" width="10" x="228.9429" y="197.9219"/><rect fill="#FFFFFF" height="1018.7031" style="stroke:#181818;stroke-width:1.0;" width="10" x="385.7954" y="992.7109"/><rect fill="#FFFFFF" height="194.1094" style="stroke:#181818;stroke-width:1.0;" width="10" x="606.9707" y="361.6797"/><rect fill="#FFFFFF" height="301.5156" style="stroke:#181818;stroke-width:1.0;" width="10" x="606.9707" y="586.1406"/><rect fill="#FFFFFF" height="264.4609" style="stroke:#181818;stroke-width:1.0;" width="10" x="606.9707" y="1475.3359"/><rect fill="#FFFFFF" height="77.0547" style="stroke:#181818;stroke-width:1.0;" width="10" x="819.4878" y="780.25"/><rect fill="none" height="905.6484" style="stroke:#000000;stroke-width:1.5;" width="1096.8667" x="30.6826" y="1098.7656"/><rect fill="none" height="706.7031" style="stroke:#000000;stroke-width:1.5;" width="1076.8667" x="40.6826" y="1244.5234"/><rect fill="none" height="433.0547" style="stroke:#000000;stroke-width:1.5;" width="1056.8667" x="50.6826" y="1434.6328"/><line style="stroke:#181818;stroke-width:0.5;stroke-dasharray:5.0,5.0;" x1="27" x2="27" y1="121.2188" y2="2021.4141"/><line style="stroke:#181818;stroke-width:0.5;stroke-dasharray:5.0,5.0;" x1="94.6826" x2="94.6826" y1="121.2188" y2="2021.4141"/><line style="stroke:#181818;stroke-width:0.5;stroke-dasharray:5.0,5.0;" x1="233.8877" x2="233.8877" y1="121.2188" y2="2021.4141"/><line style="stroke:#181818;stroke-width:0.5;stroke-dasharray:5.0,5.0;" x1="390.6025" x2="390.6025" y1="121.2188" y2="2021.4141"/><line style="stroke:#181818;stroke-width:0.5;stroke-dasharray:5.0,5.0;" x1="611.2432" x2="611.2432" y1="121.2188" y2="2021.4141"/><line style="stroke:#181818;stroke-width:0.5;stroke-dasharray:5.0,5.0;" x1="824.064" x2="824.064" y1="121.2188" y2="2021.4141"/><line style="stroke:#181818;stroke-width:0.5;stroke-dasharray:5.0,5.0;" x1="978.8257" x2="978.8257" y1="121.2188" y2="2021.4141"/><line style="stroke:#181818;stroke-width:0.5;stroke-dasharray:5.0,5.0;" x1="1063.6187" x2="1063.6187" y1="121.2188" y2="2021.4141"/><text fill="#000000" font-family="sans-serif" font-size="14" lengthAdjust="spacing" textLength="39.6826" x="5" y="118.1426">Admin</text><ellipse cx="27.8413" cy="52.1094" fill="#E2E2F0" rx="8" ry="8" style="stroke:#181818;stroke-width:0.5;"/><path d="M27.8413,60.1094 L27.8413,87.1094 M14.8413,68.1094 L40.8413,68.1094 M27.8413,87.1094 L14.8413,102.1094 M27.8413,87.1094 L40.8413,102.1094 " fill="none" style="stroke:#181818;stroke-width:0.5;"/><text fill="#000000" font-family="sans-serif" font-size="14" lengthAdjust="spacing" textLength="39.6826" x="5" y="2034.9473">Admin</text><ellipse cx="27.8413" cy="2046.5234" fill="#E2E2F0" rx="8" ry="8" style="stroke:#181818;stroke-width:0.5;"/><path d="M27.8413,2054.5234 L27.8413,2081.5234 M14.8413,2062.5234 L40.8413,2062.5234 M27.8413,2081.5234 L14.8413,2096.5234 M27.8413,2081.5234 L40.8413,2096.5234 " fill="none" style="stroke:#181818;stroke-width:0.5;"/><text fill="#000000" font-family="sans-serif" font-size="14" lengthAdjust="spacing" textLength="63.0205" x="60.6826" y="118.1426">User Baru</text><ellipse cx="95.1929" cy="52.1094" fill="#E2E2F0" rx="8" ry="8" style="stroke:#181818;stroke-width:0.5;"/><path d="M95.1929,60.1094 L95.1929,87.1094 M82.1929,68.1094 L108.1929,68.1094 M95.1929,87.1094 L82.1929,102.1094 M95.1929,87.1094 L108.1929,102.1094 " fill="none" style="stroke:#181818;stroke-width:0.5;"/><text fill="#000000" font-family="sans-serif" font-size="14" lengthAdjust="spacing" textLength="63.0205" x="60.6826" y="2034.9473">User Baru</text><ellipse cx="95.1929" cy="2046.5234" fill="#E2E2F0" rx="8" ry="8" style="stroke:#181818;stroke-width:0.5;"/><path d="M95.1929,2054.5234 L95.1929,2081.5234 M82.1929,2062.5234 L108.1929,2062.5234 M95.1929,2081.5234 L82.1929,2096.5234 M95.1929,2081.5234 L108.1929,2096.5234 " fill="none" style="stroke:#181818;stroke-width:0.5;"/><rect fill="#E2E2F0" height="49.2188" rx="2.5" ry="2.5" style="stroke:#181818;stroke-width:0.5;" width="80.1104" x="193.8877" y="71"/><text fill="#000000" font-family="sans-serif" font-size="14" lengthAdjust="spacing" textLength="66.1104" x="200.8877" y="92.5332">User/Form</text><text fill="#000000" font-family="sans-serif" font-size="14" lengthAdjust="spacing" textLength="60.6758" x="203.605" y="110.1426">(Livewire)</text><rect fill="#E2E2F0" height="49.2188" rx="2.5" ry="2.5" style="stroke:#181818;stroke-width:0.5;" width="80.1104" x="193.8877" y="2020.4141"/><text fill="#000000" font-family="sans-serif" font-size="14" lengthAdjust="spacing" textLength="66.1104" x="200.8877" y="2041.9473">User/Form</text><text fill="#000000" font-family="sans-serif" font-size="14" lengthAdjust="spacing" textLength="60.6758" x="203.605" y="2059.5566">(Livewire)</text><rect fill="#E2E2F0" height="49.2188" rx="2.5" ry="2.5" style="stroke:#181818;stroke-width:0.5;" width="114.3857" x="333.6025" y="71"/><text fill="#000000" font-family="sans-serif" font-size="14" lengthAdjust="spacing" textLength="100.3857" x="340.6025" y="92.5332">ActivateAccount</text><text fill="#000000" font-family="sans-serif" font-size="14" lengthAdjust="spacing" textLength="60.6758" x="360.4575" y="110.1426">(Livewire)</text><rect fill="#E2E2F0" height="49.2188" rx="2.5" ry="2.5" style="stroke:#181818;stroke-width:0.5;" width="114.3857" x="333.6025" y="2020.4141"/><text fill="#000000" font-family="sans-serif" font-size="14" lengthAdjust="spacing" textLength="100.3857" x="340.6025" y="2041.9473">ActivateAccount</text><text fill="#000000" font-family="sans-serif" font-size="14" lengthAdjust="spacing" textLength="60.6758" x="360.4575" y="2059.5566">(Livewire)</text><rect fill="#E2E2F0" height="49.2188" rx="2.5" ry="2.5" style="stroke:#181818;stroke-width:0.5;" width="61.4551" x="581.2432" y="71"/><text fill="#000000" font-family="sans-serif" font-size="14" lengthAdjust="spacing" textLength="29.5586" x="597.1914" y="92.5332">User</text><text fill="#000000" font-family="sans-serif" font-size="14" lengthAdjust="spacing" textLength="47.4551" x="588.2432" y="110.1426">(Model)</text><rect fill="#E2E2F0" height="49.2188" rx="2.5" ry="2.5" style="stroke:#181818;stroke-width:0.5;" width="61.4551" x="581.2432" y="2020.4141"/><text fill="#000000" font-family="sans-serif" font-size="14" lengthAdjust="spacing" textLength="29.5586" x="597.1914" y="2041.9473">User</text><text fill="#000000" font-family="sans-serif" font-size="14" lengthAdjust="spacing" textLength="47.4551" x="588.2432" y="2059.5566">(Model)</text><rect fill="#E2E2F0" height="49.2188" rx="2.5" ry="2.5" style="stroke:#181818;stroke-width:0.5;" width="168.8477" x="740.064" y="71"/><text fill="#000000" font-family="sans-serif" font-size="14" lengthAdjust="spacing" textLength="154.8477" x="747.064" y="92.5332">UserInvitationNotification</text><text fill="#000000" font-family="sans-serif" font-size="14" lengthAdjust="spacing" textLength="78.5791" x="785.1982" y="110.1426">(Notification)</text><rect fill="#E2E2F0" height="49.2188" rx="2.5" ry="2.5" style="stroke:#181818;stroke-width:0.5;" width="168.8477" x="740.064" y="2020.4141"/><text fill="#000000" font-family="sans-serif" font-size="14" lengthAdjust="spacing" textLength="154.8477" x="747.064" y="2041.9473">UserInvitationNotification</text><text fill="#000000" font-family="sans-serif" font-size="14" lengthAdjust="spacing" textLength="78.5791" x="785.1982" y="2059.5566">(Notification)</text><rect fill="#E2E2F0" height="31.6094" rx="2.5" ry="2.5" style="stroke:#181818;stroke-width:0.5;" width="84.793" x="936.8257" y="88.6094"/><text fill="#000000" font-family="sans-serif" font-size="14" lengthAdjust="spacing" textLength="70.793" x="943.8257" y="110.1426">Mail Server</text><rect fill="#E2E2F0" height="31.6094" rx="2.5" ry="2.5" style="stroke:#181818;stroke-width:0.5;" width="84.793" x="936.8257" y="2020.4141"/><text fill="#000000" font-family="sans-serif" font-size="14" lengthAdjust="spacing" textLength="70.793" x="943.8257" y="2041.9473">Mail Server</text><text fill="#000000" font-family="sans-serif" font-size="14" lengthAdjust="spacing" textLength="59.9307" x="1031.6187" y="118.1426">Database</text><path d="M1046.584,67.6094 C1046.584,57.6094 1064.584,57.6094 1064.584,57.6094 C1064.584,57.6094 1082.584,57.6094 1082.584,67.6094 L1082.584,93.6094 C1082.584,103.6094 1064.584,103.6094 1064.584,103.6094 C1064.584,103.6094 1046.584,103.6094 1046.584,93.6094 L1046.584,67.6094 " fill="#E2E2F0" style="stroke:#181818;stroke-width:1.5;"/><path d="M1046.584,67.6094 C1046.584,77.6094 1064.584,77.6094 1064.584,77.6094 C1064.584,77.6094 1082.584,77.6094 1082.584,67.6094 " fill="none" style="stroke:#181818;stroke-width:1.5;"/><text fill="#000000" font-family="sans-serif" font-size="14" lengthAdjust="spacing" textLength="59.9307" x="1031.6187" y="2034.9473">Database</text><path d="M1046.584,2048.0234 C1046.584,2038.0234 1064.584,2038.0234 1064.584,2038.0234 C1064.584,2038.0234 1082.584,2038.0234 1082.584,2048.0234 L1082.584,2074.0234 C1082.584,2084.0234 1064.584,2084.0234 1064.584,2084.0234 C1064.584,2084.0234 1046.584,2084.0234 1046.584,2074.0234 L1046.584,2048.0234 " fill="#E2E2F0" style="stroke:#181818;stroke-width:1.5;"/><path d="M1046.584,2048.0234 C1046.584,2058.0234 1064.584,2058.0234 1064.584,2058.0234 C1064.584,2058.0234 1082.584,2058.0234 1082.584,2048.0234 " fill="none" style="stroke:#181818;stroke-width:1.5;"/><rect fill="#FFFFFF" height="720.0859" style="stroke:#181818;stroke-width:1.0;" width="10" x="228.9429" y="197.9219"/><rect fill="#FFFFFF" height="1018.7031" style="stroke:#181818;stroke-width:1.0;" width="10" x="385.7954" y="992.7109"/><rect fill="#FFFFFF" height="194.1094" style="stroke:#181818;stroke-width:1.0;" width="10" x="606.9707" y="361.6797"/><rect fill="#FFFFFF" height="301.5156" style="stroke:#181818;stroke-width:1.0;" width="10" x="606.9707" y="586.1406"/><rect fill="#FFFFFF" height="264.4609" style="stroke:#181818;stroke-width:1.0;" width="10" x="606.9707" y="1475.3359"/><rect fill="#FFFFFF" height="77.0547" style="stroke:#181818;stroke-width:1.0;" width="10" x="819.4878" y="780.25"/><rect fill="#EEEEEE" height="3" style="stroke:#EEEEEE;stroke-width:1.0;" width="1137.5493" x="0" y="152.3945"/><line style="stroke:#000000;stroke-width:1.0;" x1="0" x2="1137.5493" y1="152.3945" y2="152.3945"/><line style="stroke:#000000;stroke-width:1.0;" x1="0" x2="1137.5493" y1="155.3945" y2="155.3945"/><rect fill="#EEEEEE" height="24.3516" style="stroke:#000000;stroke-width:2.0;" width="195.3145" x="471.1174" y="141.2188"/><text fill="#000000" font-family="sans-serif" font-size="13" font-weight="bold" lengthAdjust="spacing" textLength="177.7026" x="477.1174" y="158.7139">Admin Menambah User Baru</text><polygon fill="#181818" points="216.9429,193.9219,226.9429,197.9219,216.9429,201.9219,220.9429,197.9219" style="stroke:#181818;stroke-width:1.0;"/><line style="stroke:#181818;stroke-width:1.0;" x1="27.8413" x2="222.9429" y1="197.9219" y2="197.9219"/><text fill="#000000" font-family="sans-serif" font-size="13" lengthAdjust="spacing" textLength="182.1016" x="34.8413" y="193.0654">Akses halaman tambah pekerja</text><line style="stroke:#181818;stroke-width:1.0;" x1="238.9429" x2="280.9429" y1="228.2734" y2="228.2734"/><line style="stroke:#181818;stroke-width:1.0;" x1="280.9429" x2="280.9429" y1="228.2734" y2="241.2734"/><line style="stroke:#181818;stroke-width:1.0;" x1="239.9429" x2="280.9429" y1="241.2734" y2="241.2734"/><polygon fill="#181818" points="249.9429,237.2734,239.9429,241.2734,249.9429,245.2734,245.9429,241.2734" style="stroke:#181818;stroke-width:1.0;"/><text fill="#000000" font-family="sans-serif" font-size="13" lengthAdjust="spacing" textLength="72.249" x="245.9429" y="223.417">Render form</text><polygon fill="#181818" points="216.9429,283.9766,226.9429,287.9766,216.9429,291.9766,220.9429,287.9766" style="stroke:#181818;stroke-width:1.0;"/><line style="stroke:#181818;stroke-width:1.0;" x1="27.8413" x2="222.9429" y1="287.9766" y2="287.9766"/><text fill="#000000" font-family="sans-serif" font-size="13" lengthAdjust="spacing" textLength="70.8145" x="34.8413" y="266.7686">Isi data user</text><text fill="#000000" font-family="sans-serif" font-size="13" lengthAdjust="spacing" textLength="167.6416" x="34.8413" y="283.1201">(nama, email, peran, gender)</text><line style="stroke:#181818;stroke-width:1.0;" x1="238.9429" x2="280.9429" y1="318.3281" y2="318.3281"/><line style="stroke:#181818;stroke-width:1.0;" x1="280.9429" x2="280.9429" y1="318.3281" y2="331.3281"/><line style="stroke:#181818;stroke-width:1.0;" x1="239.9429" x2="280.9429" y1="331.3281" y2="331.3281"/><polygon fill="#181818" points="249.9429,327.3281,239.9429,331.3281,249.9429,335.3281,245.9429,331.3281" style="stroke:#181818;stroke-width:1.0;"/><text fill="#000000" font-family="sans-serif" font-size="13" lengthAdjust="spacing" textLength="122.8525" x="245.9429" y="313.4717">Validasi email unique</text><polygon fill="#181818" points="594.9707,357.6797,604.9707,361.6797,594.9707,365.6797,598.9707,361.6797" style="stroke:#181818;stroke-width:1.0;"/><line style="stroke:#181818;stroke-width:1.0;" x1="238.9429" x2="600.9707" y1="361.6797" y2="361.6797"/><text fill="#000000" font-family="sans-serif" font-size="13" lengthAdjust="spacing" textLength="97.5381" x="245.9429" y="356.8232">create(userData)</text><line style="stroke:#181818;stroke-width:1.0;" x1="616.9707" x2="658.9707" y1="408.3828" y2="408.3828"/><line style="stroke:#181818;stroke-width:1.0;" x1="658.9707" x2="658.9707" y1="408.3828" y2="421.3828"/><line style="stroke:#181818;stroke-width:1.0;" x1="617.9707" x2="658.9707" y1="421.3828" y2="421.3828"/><polygon fill="#181818" points="627.9707,417.3828,617.9707,421.3828,627.9707,425.3828,623.9707,421.3828" style="stroke:#181818;stroke-width:1.0;"/><text fill="#000000" font-family="sans-serif" font-size="13" lengthAdjust="spacing" textLength="33.96" x="623.9707" y="387.1748">boot()</text><text fill="#000000" font-family="sans-serif" font-size="13" lengthAdjust="spacing" textLength="89.5908" x="623.9707" y="403.5264">Generate UUID</text><line style="stroke:#181818;stroke-width:1.0;" x1="616.9707" x2="658.9707" y1="451.7344" y2="451.7344"/><line style="stroke:#181818;stroke-width:1.0;" x1="658.9707" x2="658.9707" y1="451.7344" y2="464.7344"/><line style="stroke:#181818;stroke-width:1.0;" x1="617.9707" x2="658.9707" y1="464.7344" y2="464.7344"/><polygon fill="#181818" points="627.9707,460.7344,617.9707,464.7344,627.9707,468.7344,623.9707,464.7344" style="stroke:#181818;stroke-width:1.0;"/><text fill="#000000" font-family="sans-serif" font-size="13" lengthAdjust="spacing" textLength="92.8535" x="623.9707" y="446.8779">is_active = false</text><polygon fill="#181818" points="1052.584,491.0859,1062.584,495.0859,1052.584,499.0859,1056.584,495.0859" style="stroke:#181818;stroke-width:1.0;"/><line style="stroke:#181818;stroke-width:1.0;" x1="616.9707" x2="1058.584" y1="495.0859" y2="495.0859"/><text fill="#000000" font-family="sans-serif" font-size="13" lengthAdjust="spacing" textLength="117.7363" x="623.9707" y="490.2295">INSERT INTO users</text><polygon fill="#181818" points="627.9707,521.4375,617.9707,525.4375,627.9707,529.4375,623.9707,525.4375" style="stroke:#181818;stroke-width:1.0;"/><line style="stroke:#181818;stroke-width:1.0;stroke-dasharray:2.0,2.0;" x1="621.9707" x2="1063.584" y1="525.4375" y2="525.4375"/><text fill="#000000" font-family="sans-serif" font-size="13" lengthAdjust="spacing" textLength="18.7827" x="633.9707" y="520.5811">OK</text><polygon fill="#181818" points="249.9429,551.7891,239.9429,555.7891,249.9429,559.7891,245.9429,555.7891" style="stroke:#181818;stroke-width:1.0;"/><line style="stroke:#181818;stroke-width:1.0;stroke-dasharray:2.0,2.0;" x1="243.9429" x2="610.9707" y1="555.7891" y2="555.7891"/><text fill="#000000" font-family="sans-serif" font-size="13" lengthAdjust="spacing" textLength="74.4199" x="255.9429" y="550.9326">User created</text><polygon fill="#181818" points="594.9707,582.1406,604.9707,586.1406,594.9707,590.1406,598.9707,586.1406" style="stroke:#181818;stroke-width:1.0;"/><line style="stroke:#181818;stroke-width:1.0;" x1="238.9429" x2="600.9707" y1="586.1406" y2="586.1406"/><text fill="#000000" font-family="sans-serif" font-size="13" lengthAdjust="spacing" textLength="88.8799" x="245.9429" y="581.2842">sendInvitation()</text><line style="stroke:#181818;stroke-width:1.0;" x1="616.9707" x2="658.9707" y1="632.8438" y2="632.8438"/><line style="stroke:#181818;stroke-width:1.0;" x1="658.9707" x2="658.9707" y1="632.8438" y2="645.8438"/><line style="stroke:#181818;stroke-width:1.0;" x1="617.9707" x2="658.9707" y1="645.8438" y2="645.8438"/><polygon fill="#181818" points="627.9707,641.8438,617.9707,645.8438,627.9707,649.8438,623.9707,645.8438" style="stroke:#181818;stroke-width:1.0;"/><text fill="#000000" font-family="sans-serif" font-size="13" lengthAdjust="spacing" textLength="148.1543" x="623.9707" y="611.6357">Generate invitation_token</text><text fill="#000000" font-family="sans-serif" font-size="13" lengthAdjust="spacing" textLength="99.709" x="623.9707" y="627.9873">(random 64 char)</text><line style="stroke:#181818;stroke-width:1.0;" x1="616.9707" x2="658.9707" y1="676.1953" y2="676.1953"/><line style="stroke:#181818;stroke-width:1.0;" x1="658.9707" x2="658.9707" y1="676.1953" y2="689.1953"/><line style="stroke:#181818;stroke-width:1.0;" x1="617.9707" x2="658.9707" y1="689.1953" y2="689.1953"/><polygon fill="#181818" points="627.9707,685.1953,617.9707,689.1953,627.9707,693.1953,623.9707,689.1953" style="stroke:#181818;stroke-width:1.0;"/><text fill="#000000" font-family="sans-serif" font-size="13" lengthAdjust="spacing" textLength="148.5034" x="623.9707" y="671.3389">invitation_sent_at = now()</text><polygon fill="#181818" points="1052.584,715.5469,1062.584,719.5469,1052.584,723.5469,1056.584,719.5469" style="stroke:#181818;stroke-width:1.0;"/><line style="stroke:#181818;stroke-width:1.0;" x1="616.9707" x2="1058.584" y1="719.5469" y2="719.5469"/><text fill="#000000" font-family="sans-serif" font-size="13" lengthAdjust="spacing" textLength="202.3062" x="623.9707" y="714.6904">UPDATE users SET token, sent_at</text><polygon fill="#181818" points="627.9707,745.8984,617.9707,749.8984,627.9707,753.8984,623.9707,749.8984" style="stroke:#181818;stroke-width:1.0;"/><line style="stroke:#181818;stroke-width:1.0;stroke-dasharray:2.0,2.0;" x1="621.9707" x2="1063.584" y1="749.8984" y2="749.8984"/><text fill="#000000" font-family="sans-serif" font-size="13" lengthAdjust="spacing" textLength="18.7827" x="633.9707" y="745.042">OK</text><polygon fill="#181818" points="807.4878,776.25,817.4878,780.25,807.4878,784.25,811.4878,780.25" style="stroke:#181818;stroke-width:1.0;"/><line style="stroke:#181818;stroke-width:1.0;" x1="616.9707" x2="813.4878" y1="780.25" y2="780.25"/><text fill="#000000" font-family="sans-serif" font-size="13" lengthAdjust="spacing" textLength="183.5171" x="623.9707" y="775.3936">notify(UserInvitationNotification)</text><polygon fill="#181818" points="967.2222,822.9531,977.2222,826.9531,967.2222,830.9531,971.2222,826.9531" style="stroke:#181818;stroke-width:1.0;"/><line style="stroke:#181818;stroke-width:1.0;" x1="829.4878" x2="973.2222" y1="826.9531" y2="826.9531"/><text fill="#000000" font-family="sans-serif" font-size="13" lengthAdjust="spacing" textLength="125.7344" x="836.4878" y="805.7451">Kirim email undangan</text><text fill="#000000" font-family="sans-serif" font-size="13" lengthAdjust="spacing" textLength="122.1162" x="836.4878" y="822.0967">(dengan link aktivasi)</text><polygon fill="#181818" points="835.4878,853.3047,825.4878,857.3047,835.4878,861.3047,831.4878,857.3047" style="stroke:#181818;stroke-width:1.0;"/><line style="stroke:#181818;stroke-width:1.0;stroke-dasharray:2.0,2.0;" x1="829.4878" x2="978.2222" y1="857.3047" y2="857.3047"/><text fill="#000000" font-family="sans-serif" font-size="13" lengthAdjust="spacing" textLength="18.7827" x="841.4878" y="852.4482">OK</text><polygon fill="#181818" points="249.9429,883.6563,239.9429,887.6563,249.9429,891.6563,245.9429,887.6563" style="stroke:#181818;stroke-width:1.0;"/><line style="stroke:#181818;stroke-width:1.0;stroke-dasharray:2.0,2.0;" x1="243.9429" x2="610.9707" y1="887.6563" y2="887.6563"/><text fill="#000000" font-family="sans-serif" font-size="13" lengthAdjust="spacing" textLength="106.2153" x="255.9429" y="882.7998">Undangan terkirim</text><polygon fill="#181818" points="38.8413,914.0078,28.8413,918.0078,38.8413,922.0078,34.8413,918.0078" style="stroke:#181818;stroke-width:1.0;"/><line style="stroke:#181818;stroke-width:1.0;stroke-dasharray:2.0,2.0;" x1="32.8413" x2="232.9429" y1="918.0078" y2="918.0078"/><text fill="#000000" font-family="sans-serif" font-size="13" lengthAdjust="spacing" textLength="160.4053" x="44.8413" y="913.1514">Notifikasi undangan terkirim</text><rect fill="#EEEEEE" height="3" style="stroke:#EEEEEE;stroke-width:1.0;" width="1137.5493" x="0" y="947.1836"/><line style="stroke:#000000;stroke-width:1.0;" x1="0" x2="1137.5493" y1="947.1836" y2="947.1836"/><line style="stroke:#000000;stroke-width:1.0;" x1="0" x2="1137.5493" y1="950.1836" y2="950.1836"/><rect fill="#EEEEEE" height="24.3516" style="stroke:#000000;stroke-width:2.0;" width="169.3335" x="484.1079" y="936.0078"/><text fill="#000000" font-family="sans-serif" font-size="13" font-weight="bold" lengthAdjust="spacing" textLength="151.7217" x="490.1079" y="953.5029">User Baru Aktivasi Akun</text><polygon fill="#181818" points="373.7954,988.7109,383.7954,992.7109,373.7954,996.7109,377.7954,992.7109" style="stroke:#181818;stroke-width:1.0;"/><line style="stroke:#181818;stroke-width:1.0;" x1="95.1929" x2="379.7954" y1="992.7109" y2="992.7109"/><text fill="#000000" font-family="sans-serif" font-size="13" lengthAdjust="spacing" textLength="150.9917" x="102.1929" y="987.8545">Klik link aktivasi dari email</text><polygon fill="#181818" points="599.9707,1019.0625,609.9707,1023.0625,599.9707,1027.0625,603.9707,1023.0625" style="stroke:#181818;stroke-width:1.0;"/><line style="stroke:#181818;stroke-width:1.0;" x1="395.7954" x2="605.9707" y1="1023.0625" y2="1023.0625"/><text fill="#000000" font-family="sans-serif" font-size="13" lengthAdjust="spacing" textLength="134.4053" x="402.7954" y="1018.2061">where(invitation_token)</text><polygon fill="#181818" points="1052.584,1049.4141,1062.584,1053.4141,1052.584,1057.4141,1056.584,1053.4141" style="stroke:#181818;stroke-width:1.0;"/><line style="stroke:#181818;stroke-width:1.0;" x1="611.9707" x2="1058.584" y1="1053.4141" y2="1053.4141"/><text fill="#000000" font-family="sans-serif" font-size="13" lengthAdjust="spacing" textLength="245.9844" x="618.9707" y="1048.5576">SELECT * FROM users WHERE token = ?</text><polygon fill="#181818" points="622.9707,1079.7656,612.9707,1083.7656,622.9707,1087.7656,618.9707,1083.7656" style="stroke:#181818;stroke-width:1.0;"/><line style="stroke:#181818;stroke-width:1.0;stroke-dasharray:2.0,2.0;" x1="616.9707" x2="1063.584" y1="1083.7656" y2="1083.7656"/><text fill="#000000" font-family="sans-serif" font-size="13" lengthAdjust="spacing" textLength="56.3608" x="628.9707" y="1078.9092">user / null</text><path d="M30.6826,1098.7656 L90.8535,1098.7656 L90.8535,1107.1172 L80.8535,1117.1172 L30.6826,1117.1172 L30.6826,1098.7656 " fill="#EEEEEE" style="stroke:#000000;stroke-width:1.5;"/><rect fill="none" height="905.6484" style="stroke:#000000;stroke-width:1.5;" width="1096.8667" x="30.6826" y="1098.7656"/><text fill="#000000" font-family="sans-serif" font-size="13" font-weight="bold" lengthAdjust="spacing" textLength="15.1709" x="45.6826" y="1113.2607">alt</text><text fill="#000000" font-family="sans-serif" font-size="11" font-weight="bold" lengthAdjust="spacing" textLength="97.7861" x="105.8535" y="1112.1846">[Token ditemukan]</text><polygon fill="#181818" points="406.7954,1135.4688,396.7954,1139.4688,406.7954,1143.4688,402.7954,1139.4688" style="stroke:#181818;stroke-width:1.0;"/><line style="stroke:#181818;stroke-width:1.0;stroke-dasharray:2.0,2.0;" x1="400.7954" x2="610.9707" y1="1139.4688" y2="1139.4688"/><text fill="#000000" font-family="sans-serif" font-size="13" lengthAdjust="spacing" textLength="65.749" x="412.7954" y="1134.6123">User object</text><polygon fill="#181818" points="599.9707,1165.8203,609.9707,1169.8203,599.9707,1173.8203,603.9707,1169.8203" style="stroke:#181818;stroke-width:1.0;"/><line style="stroke:#181818;stroke-width:1.0;" x1="395.7954" x2="605.9707" y1="1169.8203" y2="1169.8203"/><text fill="#000000" font-family="sans-serif" font-size="13" lengthAdjust="spacing" textLength="146.688" x="402.7954" y="1164.9639">hasValidInvitationToken()</text><line style="stroke:#181818;stroke-width:1.0;" x1="611.9707" x2="653.9707" y1="1216.5234" y2="1216.5234"/><line style="stroke:#181818;stroke-width:1.0;" x1="653.9707" x2="653.9707" y1="1216.5234" y2="1229.5234"/><line style="stroke:#181818;stroke-width:1.0;" x1="612.9707" x2="653.9707" y1="1229.5234" y2="1229.5234"/><polygon fill="#181818" points="622.9707,1225.5234,612.9707,1229.5234,622.9707,1233.5234,618.9707,1229.5234" style="stroke:#181818;stroke-width:1.0;"/><text fill="#000000" font-family="sans-serif" font-size="13" lengthAdjust="spacing" textLength="118.5107" x="618.9707" y="1195.3154">Check token expired</text><text fill="#000000" font-family="sans-serif" font-size="13" lengthAdjust="spacing" textLength="162.957" x="618.9707" y="1211.667">(invitation_sent_at + 7 days)</text><path d="M40.6826,1244.5234 L100.8535,1244.5234 L100.8535,1252.875 L90.8535,1262.875 L40.6826,1262.875 L40.6826,1244.5234 " fill="#EEEEEE" style="stroke:#000000;stroke-width:1.5;"/><rect fill="none" height="706.7031" style="stroke:#000000;stroke-width:1.5;" width="1076.8667" x="40.6826" y="1244.5234"/><text fill="#000000" font-family="sans-serif" font-size="13" font-weight="bold" lengthAdjust="spacing" textLength="15.1709" x="55.6826" y="1259.0186">alt</text><text fill="#000000" font-family="sans-serif" font-size="11" font-weight="bold" lengthAdjust="spacing" textLength="102.6899" x="115.8535" y="1257.9424">[Token masih valid]</text><polygon fill="#181818" points="406.7954,1281.2266,396.7954,1285.2266,406.7954,1289.2266,402.7954,1285.2266" style="stroke:#181818;stroke-width:1.0;"/><line style="stroke:#181818;stroke-width:1.0;stroke-dasharray:2.0,2.0;" x1="400.7954" x2="610.9707" y1="1285.2266" y2="1285.2266"/><text fill="#000000" font-family="sans-serif" font-size="13" lengthAdjust="spacing" textLength="22.4009" x="412.7954" y="1280.3701">true</text><polygon fill="#181818" points="106.1929,1311.5781,96.1929,1315.5781,106.1929,1319.5781,102.1929,1315.5781" style="stroke:#181818;stroke-width:1.0;"/><line style="stroke:#181818;stroke-width:1.0;stroke-dasharray:2.0,2.0;" x1="100.1929" x2="384.7954" y1="1315.5781" y2="1315.5781"/><text fill="#000000" font-family="sans-serif" font-size="13" lengthAdjust="spacing" textLength="169.7808" x="112.1929" y="1310.7217">Tampilkan form set password</text><polygon fill="#181818" points="373.7954,1341.9297,383.7954,1345.9297,373.7954,1349.9297,377.7954,1345.9297" style="stroke:#181818;stroke-width:1.0;"/><line style="stroke:#181818;stroke-width:1.0;" x1="95.1929" x2="379.7954" y1="1345.9297" y2="1345.9297"/><text fill="#000000" font-family="sans-serif" font-size="13" lengthAdjust="spacing" textLength="117.7935" x="102.1929" y="1341.0732">Input password baru</text><polygon fill="#181818" points="373.7954,1372.2813,383.7954,1376.2813,373.7954,1380.2813,377.7954,1376.2813" style="stroke:#181818;stroke-width:1.0;"/><line style="stroke:#181818;stroke-width:1.0;" x1="95.1929" x2="379.7954" y1="1376.2813" y2="1376.2813"/><text fill="#000000" font-family="sans-serif" font-size="13" lengthAdjust="spacing" textLength="120.6563" x="102.1929" y="1371.4248">Konfirmasi password</text><line style="stroke:#181818;stroke-width:1.0;" x1="395.7954" x2="437.7954" y1="1406.6328" y2="1406.6328"/><line style="stroke:#181818;stroke-width:1.0;" x1="437.7954" x2="437.7954" y1="1406.6328" y2="1419.6328"/><line style="stroke:#181818;stroke-width:1.0;" x1="396.7954" x2="437.7954" y1="1419.6328" y2="1419.6328"/><polygon fill="#181818" points="406.7954,1415.6328,396.7954,1419.6328,406.7954,1423.6328,402.7954,1419.6328" style="stroke:#181818;stroke-width:1.0;"/><text fill="#000000" font-family="sans-serif" font-size="13" lengthAdjust="spacing" textLength="104.7744" x="402.7954" y="1401.7764">Validasi password</text><path d="M50.6826,1434.6328 L110.8535,1434.6328 L110.8535,1442.9844 L100.8535,1452.9844 L50.6826,1452.9844 L50.6826,1434.6328 " fill="#EEEEEE" style="stroke:#000000;stroke-width:1.5;"/><rect fill="none" height="433.0547" style="stroke:#000000;stroke-width:1.5;" width="1056.8667" x="50.6826" y="1434.6328"/><text fill="#000000" font-family="sans-serif" font-size="13" font-weight="bold" lengthAdjust="spacing" textLength="15.1709" x="65.6826" y="1449.1279">alt</text><text fill="#000000" font-family="sans-serif" font-size="11" font-weight="bold" lengthAdjust="spacing" textLength="87.4146" x="125.8535" y="1448.0518">[Password valid]</text><polygon fill="#181818" points="594.9707,1471.3359,604.9707,1475.3359,594.9707,1479.3359,598.9707,1475.3359" style="stroke:#181818;stroke-width:1.0;"/><line style="stroke:#181818;stroke-width:1.0;" x1="395.7954" x2="600.9707" y1="1475.3359" y2="1475.3359"/><text fill="#000000" font-family="sans-serif" font-size="13" lengthAdjust="spacing" textLength="192.1753" x="402.7954" y="1470.4795">activateWithPassword(password)</text><line style="stroke:#181818;stroke-width:1.0;" x1="616.9707" x2="658.9707" y1="1505.6875" y2="1505.6875"/><line style="stroke:#181818;stroke-width:1.0;" x1="658.9707" x2="658.9707" y1="1505.6875" y2="1518.6875"/><line style="stroke:#181818;stroke-width:1.0;" x1="617.9707" x2="658.9707" y1="1518.6875" y2="1518.6875"/><polygon fill="#181818" points="627.9707,1514.6875,617.9707,1518.6875,627.9707,1522.6875,623.9707,1518.6875" style="stroke:#181818;stroke-width:1.0;"/><text fill="#000000" font-family="sans-serif" font-size="13" lengthAdjust="spacing" textLength="170.1489" x="623.9707" y="1500.8311">password = bcrypt(password)</text><line style="stroke:#181818;stroke-width:1.0;" x1="616.9707" x2="658.9707" y1="1549.0391" y2="1549.0391"/><line style="stroke:#181818;stroke-width:1.0;" x1="658.9707" x2="658.9707" y1="1549.0391" y2="1562.0391"/><line style="stroke:#181818;stroke-width:1.0;" x1="617.9707" x2="658.9707" y1="1562.0391" y2="1562.0391"/><polygon fill="#181818" points="627.9707,1558.0391,617.9707,1562.0391,627.9707,1566.0391,623.9707,1562.0391" style="stroke:#181818;stroke-width:1.0;"/><text fill="#000000" font-family="sans-serif" font-size="13" lengthAdjust="spacing" textLength="87.7944" x="623.9707" y="1544.1826">is_active = true</text><line style="stroke:#181818;stroke-width:1.0;" x1="616.9707" x2="658.9707" y1="1592.3906" y2="1592.3906"/><line style="stroke:#181818;stroke-width:1.0;" x1="658.9707" x2="658.9707" y1="1592.3906" y2="1605.3906"/><line style="stroke:#181818;stroke-width:1.0;" x1="617.9707" x2="658.9707" y1="1605.3906" y2="1605.3906"/><polygon fill="#181818" points="627.9707,1601.3906,617.9707,1605.3906,627.9707,1609.3906,623.9707,1605.3906" style="stroke:#181818;stroke-width:1.0;"/><text fill="#000000" font-family="sans-serif" font-size="13" lengthAdjust="spacing" textLength="117.4253" x="623.9707" y="1587.5342">activated_at = now()</text><line style="stroke:#181818;stroke-width:1.0;" x1="616.9707" x2="658.9707" y1="1635.7422" y2="1635.7422"/><line style="stroke:#181818;stroke-width:1.0;" x1="658.9707" x2="658.9707" y1="1635.7422" y2="1648.7422"/><line style="stroke:#181818;stroke-width:1.0;" x1="617.9707" x2="658.9707" y1="1648.7422" y2="1648.7422"/><polygon fill="#181818" points="627.9707,1644.7422,617.9707,1648.7422,627.9707,1652.7422,623.9707,1648.7422" style="stroke:#181818;stroke-width:1.0;"/><text fill="#000000" font-family="sans-serif" font-size="13" lengthAdjust="spacing" textLength="125.3916" x="623.9707" y="1630.8857">invitation_token = null</text><polygon fill="#181818" points="1052.584,1675.0938,1062.584,1679.0938,1052.584,1683.0938,1056.584,1679.0938" style="stroke:#181818;stroke-width:1.0;"/><line style="stroke:#181818;stroke-width:1.0;" x1="616.9707" x2="1058.584" y1="1679.0938" y2="1679.0938"/><text fill="#000000" font-family="sans-serif" font-size="13" lengthAdjust="spacing" textLength="88.1309" x="623.9707" y="1674.2373">UPDATE users</text><polygon fill="#181818" points="627.9707,1705.4453,617.9707,1709.4453,627.9707,1713.4453,623.9707,1709.4453" style="stroke:#181818;stroke-width:1.0;"/><line style="stroke:#181818;stroke-width:1.0;stroke-dasharray:2.0,2.0;" x1="621.9707" x2="1063.584" y1="1709.4453" y2="1709.4453"/><text fill="#000000" font-family="sans-serif" font-size="13" lengthAdjust="spacing" textLength="18.7827" x="633.9707" y="1704.5889">OK</text><polygon fill="#181818" points="406.7954,1735.7969,396.7954,1739.7969,406.7954,1743.7969,402.7954,1739.7969" style="stroke:#181818;stroke-width:1.0;"/><line style="stroke:#181818;stroke-width:1.0;stroke-dasharray:2.0,2.0;" x1="400.7954" x2="610.9707" y1="1739.7969" y2="1739.7969"/><text fill="#000000" font-family="sans-serif" font-size="13" lengthAdjust="spacing" textLength="86.709" x="412.7954" y="1734.9404">Akun diaktivasi</text><polygon fill="#181818" points="106.1929,1766.1484,96.1929,1770.1484,106.1929,1774.1484,102.1929,1770.1484" style="stroke:#181818;stroke-width:1.0;"/><line style="stroke:#181818;stroke-width:1.0;stroke-dasharray:2.0,2.0;" x1="100.1929" x2="384.7954" y1="1770.1484" y2="1770.1484"/><text fill="#000000" font-family="sans-serif" font-size="13" lengthAdjust="spacing" textLength="135.8462" x="112.1929" y="1765.292">Akun berhasil diaktivasi</text><line style="stroke:#181818;stroke-width:1.0;" x1="395.7954" x2="437.7954" y1="1800.5" y2="1800.5"/><line style="stroke:#181818;stroke-width:1.0;" x1="437.7954" x2="437.7954" y1="1800.5" y2="1813.5"/><line style="stroke:#181818;stroke-width:1.0;" x1="396.7954" x2="437.7954" y1="1813.5" y2="1813.5"/><polygon fill="#181818" points="406.7954,1809.5,396.7954,1813.5,406.7954,1817.5,402.7954,1813.5" style="stroke:#181818;stroke-width:1.0;"/><text fill="#000000" font-family="sans-serif" font-size="13" lengthAdjust="spacing" textLength="96.8271" x="402.7954" y="1795.6436">Redirect ke login</text><line style="stroke:#000000;stroke-width:1.0;stroke-dasharray:2.0,2.0;" x1="50.6826" x2="1107.5493" y1="1822.5" y2="1822.5"/><text fill="#000000" font-family="sans-serif" font-size="11" font-weight="bold" lengthAdjust="spacing" textLength="116.1445" x="55.6826" y="1833.9189">[Password tidak valid]</text><polygon fill="#181818" points="106.1929,1855.6875,96.1929,1859.6875,106.1929,1863.6875,102.1929,1859.6875" style="stroke:#181818;stroke-width:1.0;"/><line style="stroke:#181818;stroke-width:1.0;stroke-dasharray:2.0,2.0;" x1="100.1929" x2="384.7954" y1="1859.6875" y2="1859.6875"/><text fill="#000000" font-family="sans-serif" font-size="13" lengthAdjust="spacing" textLength="150.2744" x="112.1929" y="1854.8311">Tampilkan error password</text><line style="stroke:#000000;stroke-width:1.0;stroke-dasharray:2.0,2.0;" x1="40.6826" x2="1117.5493" y1="1875.6875" y2="1875.6875"/><text fill="#000000" font-family="sans-serif" font-size="11" font-weight="bold" lengthAdjust="spacing" textLength="81.9038" x="45.6826" y="1887.1064">[Token expired]</text><polygon fill="#181818" points="406.7954,1908.875,396.7954,1912.875,406.7954,1916.875,402.7954,1912.875" style="stroke:#181818;stroke-width:1.0;"/><line style="stroke:#181818;stroke-width:1.0;stroke-dasharray:2.0,2.0;" x1="400.7954" x2="610.9707" y1="1912.875" y2="1912.875"/><text fill="#000000" font-family="sans-serif" font-size="13" lengthAdjust="spacing" textLength="27.46" x="412.7954" y="1908.0186">false</text><polygon fill="#181818" points="106.1929,1939.2266,96.1929,1943.2266,106.1929,1947.2266,102.1929,1943.2266" style="stroke:#181818;stroke-width:1.0;"/><line style="stroke:#181818;stroke-width:1.0;stroke-dasharray:2.0,2.0;" x1="100.1929" x2="384.7954" y1="1943.2266" y2="1943.2266"/><text fill="#000000" font-family="sans-serif" font-size="13" lengthAdjust="spacing" textLength="151.7598" x="112.1929" y="1938.3701">Token sudah kedaluwarsa</text><line style="stroke:#000000;stroke-width:1.0;stroke-dasharray:2.0,2.0;" x1="30.6826" x2="1127.5493" y1="1959.2266" y2="1959.2266"/><text fill="#000000" font-family="sans-serif" font-size="11" font-weight="bold" lengthAdjust="spacing" textLength="126.5161" x="35.6826" y="1970.6455">[Token tidak ditemukan]</text><polygon fill="#181818" points="106.1929,1992.4141,96.1929,1996.4141,106.1929,2000.4141,102.1929,1996.4141" style="stroke:#181818;stroke-width:1.0;"/><line style="stroke:#181818;stroke-width:1.0;stroke-dasharray:2.0,2.0;" x1="100.1929" x2="384.7954" y1="1996.4141" y2="1996.4141"/><text fill="#000000" font-family="sans-serif" font-size="13" lengthAdjust="spacing" textLength="97.5508" x="112.1929" y="1991.5576">Token tidak valid</text><!--SRC=[ZLPDRzj64BtpLmnyabeRkHGj840fb5Xf3STn8ClD9O0nv8wb3ScbkbnAzR_lx2x99IbHYWyMkPmt7s_U36caoGYUwD-AL49mAt6ZCP_1YZQoD1fB2G8LB58Zz_RckIGTHPYOGiFLGkHING6MWFQgEROsy05rvHufEbGMj4DjP29tg8mtUVUfqFbtDVaiztIGcgRE_9KF-xQBnCOsj4YIebBc287ry-C8RFfG2CgytUaixjHU6ZIoK5yA8rzbuguPsRtr3fGzwNjuG9anUtfFsfdaV1y9D1XZIN1rMr-vPoAEelaS76dmG0hp6BVGaWNpEHFh7jwyTpJ0Z7algOGjPfXp5uo7x2Wb_GEZfd3FMUGW0ReY9TYrVpRqU-VwQj2HmiLoCdWDPDE_PlyQrJLid8FfaUD_C9F2Qi6PGwKaYoTOMOzibMZYr2Rsph8m3TcwFaJEB9Z7HM4cq-_gBr8SdQsUd-zkXqQoV75U2ERmYbb9hO68RL5VdfQhDV-i7nsYZFZu9i0VxvkmeHX7lyzLH886IGvgAfcHe9V9fPhQMcIBUJ55IbPTpB0eSlZzDqYso2GFAmq83cfUq739gZXCflsIdx_UBjPBNoqyBTVW_5z33HebuBqNCv-vtxV9-2XqglG3u97imhL_1lTIoxmL0s-B3TeA1TaBoAHA0UlrCOsSrKqdFkVKeTr7EEvIxHOCwTI66siLGxpKP-1hIArGgoDu5-ydX2SpZ6AxxXPffTnWrblCbjq2kVHCflqAUQfqFHc1jtP3XQFGbCEMD4s64Xdq-MdvUVbn3R_0fzNZGztkRtylLqlVS1R7duDUkvzteAeiux2PWRKp5D9GNgMe8k2_bkTEJOw58lv1YN4sxj-9lBTOkaqGLECYi4A3vzRuuvQIjCwL_jlnxXOiaHCg_nN-O0hVocadTfjypWHlOM-ZkYTZ9HZD2wan2AbRrTLjdC4QyvtCc0YliP8CxB0i3uKEljkBqzs_Kxige21cvLn0t1VgLMfRnfbWNQuxs7Rjda4oKr-RTFeqZJInEVecpRP1Jfe0qzDeDs_T9xsRGUDRTkOG9_fjPqQydzdqlMwUi6qI4zqjUSxtODGinax9nPAEDcxFwcZLNl3NxwvRD48sQwJlcNwI-n6fEzynQPvONhuZGKPKjoB1mveOI0coOYFLwUZ4B-CWFSD2JSyAS6GKIMl-W3mIEBzs-s9tuTRTRN9s7_XlXKjPE7Tb9VWBAoM1MNL0NMBKJI3g1FP5zlVfMTTTLgp3xZkeVKFy3m00]--></g></svg>