<svg xmlns="http://www.w3.org/2000/svg" xmlns:xlink="http://www.w3.org/1999/xlink" contentStyleType="text/css" height="1275px" preserveAspectRatio="none" style="width:1072px;height:1275px;background:#FFFFFF;" version="1.1" viewBox="0 0 1072 1275" width="1072px" zoomAndPan="magnify"><title>Sequence Diagram: Kelola Pelanggan</title><defs/><g><text fill="#000000" font-family="sans-serif" font-size="14" font-weight="bold" lengthAdjust="spacing" textLength="251.2959" x="406.4055" y="29.5332">Sequence Diagram: Kelola Pelanggan</text><rect fill="#FFFFFF" height="390.5703" style="stroke:#181818;stroke-width:1.0;" width="10" x="224.1089" y="197.9219"/><rect fill="#FFFFFF" height="520.3281" style="stroke:#181818;stroke-width:1.0;" width="10" x="347.3154" y="655.1953"/><rect fill="none" height="200.4609" style="stroke:#000000;stroke-width:1.5;" width="1045.1069" x="10" y="381.0313"/><rect fill="none" height="261.1641" style="stroke:#000000;stroke-width:1.5;" width="769.5879" x="285.519" y="838.3047"/><line style="stroke:#181818;stroke-width:0.5;stroke-dasharray:5.0,5.0;" x1="38" x2="38" y1="121.2188" y2="1193.5234"/><line style="stroke:#181818;stroke-width:0.5;stroke-dasharray:5.0,5.0;" x1="228.6987" x2="228.6987" y1="121.2188" y2="1193.5234"/><line style="stroke:#181818;stroke-width:0.5;stroke-dasharray:5.0,5.0;" x1="351.519" x2="351.519" y1="121.2188" y2="1193.5234"/><line style="stroke:#181818;stroke-width:0.5;stroke-dasharray:5.0,5.0;" x1="475.624" x2="475.624" y1="121.2188" y2="1193.5234"/><line style="stroke:#181818;stroke-width:0.5;stroke-dasharray:5.0,5.0;" x1="576.8921" x2="576.8921" y1="121.2188" y2="1193.5234"/><line style="stroke:#181818;stroke-width:0.5;stroke-dasharray:5.0,5.0;" x1="679.0366" x2="679.0366" y1="121.2188" y2="1193.5234"/><line style="stroke:#181818;stroke-width:0.5;stroke-dasharray:5.0,5.0;" x1="1011.1763" x2="1011.1763" y1="121.2188" y2="1193.5234"/><text fill="#000000" font-family="sans-serif" font-size="14" lengthAdjust="spacing" textLength="31.8965" x="20" y="118.1426">Kasir</text><ellipse cx="38.9482" cy="52.1094" fill="#E2E2F0" rx="8" ry="8" style="stroke:#181818;stroke-width:0.5;"/><path d="M38.9482,60.1094 L38.9482,87.1094 M25.9482,68.1094 L51.9482,68.1094 M38.9482,87.1094 L25.9482,102.1094 M38.9482,87.1094 L51.9482,102.1094 " fill="none" style="stroke:#181818;stroke-width:0.5;"/><text fill="#000000" font-family="sans-serif" font-size="14" lengthAdjust="spacing" textLength="31.8965" x="20" y="1207.0566">Kasir</text><ellipse cx="38.9482" cy="1218.6328" fill="#E2E2F0" rx="8" ry="8" style="stroke:#181818;stroke-width:0.5;"/><path d="M38.9482,1226.6328 L38.9482,1253.6328 M25.9482,1234.6328 L51.9482,1234.6328 M38.9482,1253.6328 L25.9482,1268.6328 M38.9482,1253.6328 L51.9482,1268.6328 " fill="none" style="stroke:#181818;stroke-width:0.5;"/><rect fill="#E2E2F0" height="49.2188" rx="2.5" ry="2.5" style="stroke:#181818;stroke-width:0.5;" width="112.8203" x="172.6987" y="71"/><text fill="#000000" font-family="sans-serif" font-size="14" lengthAdjust="spacing" textLength="98.8203" x="179.6987" y="92.5332">Customer/Index</text><text fill="#000000" font-family="sans-serif" font-size="14" lengthAdjust="spacing" textLength="60.6758" x="198.771" y="110.1426">(Livewire)</text><rect fill="#E2E2F0" height="49.2188" rx="2.5" ry="2.5" style="stroke:#181818;stroke-width:0.5;" width="112.8203" x="172.6987" y="1192.5234"/><text fill="#000000" font-family="sans-serif" font-size="14" lengthAdjust="spacing" textLength="98.8203" x="179.6987" y="1214.0566">Customer/Index</text><text fill="#000000" font-family="sans-serif" font-size="14" lengthAdjust="spacing" textLength="60.6758" x="198.771" y="1231.666">(Livewire)</text><rect fill="#E2E2F0" height="49.2188" rx="2.5" ry="2.5" style="stroke:#181818;stroke-width:0.5;" width="113.5928" x="295.519" y="71"/><text fill="#000000" font-family="sans-serif" font-size="14" lengthAdjust="spacing" textLength="99.5928" x="302.519" y="92.5332">Customer/Show</text><text fill="#000000" font-family="sans-serif" font-size="14" lengthAdjust="spacing" textLength="60.6758" x="321.9775" y="110.1426">(Livewire)</text><rect fill="#E2E2F0" height="49.2188" rx="2.5" ry="2.5" style="stroke:#181818;stroke-width:0.5;" width="113.5928" x="295.519" y="1192.5234"/><text fill="#000000" font-family="sans-serif" font-size="14" lengthAdjust="spacing" textLength="99.5928" x="302.519" y="1214.0566">Customer/Show</text><text fill="#000000" font-family="sans-serif" font-size="14" lengthAdjust="spacing" textLength="60.6758" x="321.9775" y="1231.666">(Livewire)</text><rect fill="#E2E2F0" height="49.2188" rx="2.5" ry="2.5" style="stroke:#181818;stroke-width:0.5;" width="74.6826" x="438.624" y="71"/><text fill="#000000" font-family="sans-serif" font-size="14" lengthAdjust="spacing" textLength="60.6826" x="445.624" y="92.5332">Customer</text><text fill="#000000" font-family="sans-serif" font-size="14" lengthAdjust="spacing" textLength="47.4551" x="452.2378" y="110.1426">(Model)</text><rect fill="#E2E2F0" height="49.2188" rx="2.5" ry="2.5" style="stroke:#181818;stroke-width:0.5;" width="74.6826" x="438.624" y="1192.5234"/><text fill="#000000" font-family="sans-serif" font-size="14" lengthAdjust="spacing" textLength="60.6826" x="445.624" y="1214.0566">Customer</text><text fill="#000000" font-family="sans-serif" font-size="14" lengthAdjust="spacing" textLength="47.4551" x="452.2378" y="1231.666">(Model)</text><rect fill="#E2E2F0" height="49.2188" rx="2.5" ry="2.5" style="stroke:#181818;stroke-width:0.5;" width="87.1445" x="533.8921" y="71"/><text fill="#000000" font-family="sans-serif" font-size="14" lengthAdjust="spacing" textLength="73.1445" x="540.8921" y="92.5332">Transaction</text><text fill="#000000" font-family="sans-serif" font-size="14" lengthAdjust="spacing" textLength="47.4551" x="553.7368" y="110.1426">(Model)</text><rect fill="#E2E2F0" height="49.2188" rx="2.5" ry="2.5" style="stroke:#181818;stroke-width:0.5;" width="87.1445" x="533.8921" y="1192.5234"/><text fill="#000000" font-family="sans-serif" font-size="14" lengthAdjust="spacing" textLength="73.1445" x="540.8921" y="1214.0566">Transaction</text><text fill="#000000" font-family="sans-serif" font-size="14" lengthAdjust="spacing" textLength="47.4551" x="553.7368" y="1231.666">(Model)</text><rect fill="#E2E2F0" height="49.2188" rx="2.5" ry="2.5" style="stroke:#181818;stroke-width:0.5;" width="96.4688" x="631.0366" y="71"/><text fill="#000000" font-family="sans-serif" font-size="14" lengthAdjust="spacing" textLength="82.4688" x="638.0366" y="92.5332">PointsHistory</text><text fill="#000000" font-family="sans-serif" font-size="14" lengthAdjust="spacing" textLength="47.4551" x="655.5435" y="110.1426">(Model)</text><rect fill="#E2E2F0" height="49.2188" rx="2.5" ry="2.5" style="stroke:#181818;stroke-width:0.5;" width="96.4688" x="631.0366" y="1192.5234"/><text fill="#000000" font-family="sans-serif" font-size="14" lengthAdjust="spacing" textLength="82.4688" x="638.0366" y="1214.0566">PointsHistory</text><text fill="#000000" font-family="sans-serif" font-size="14" lengthAdjust="spacing" textLength="47.4551" x="655.5435" y="1231.666">(Model)</text><text fill="#000000" font-family="sans-serif" font-size="14" lengthAdjust="spacing" textLength="59.9307" x="979.1763" y="118.1426">Database</text><path d="M994.1416,67.6094 C994.1416,57.6094 1012.1416,57.6094 1012.1416,57.6094 C1012.1416,57.6094 1030.1416,57.6094 1030.1416,67.6094 L1030.1416,93.6094 C1030.1416,103.6094 1012.1416,103.6094 1012.1416,103.6094 C1012.1416,103.6094 994.1416,103.6094 994.1416,93.6094 L994.1416,67.6094 " fill="#E2E2F0" style="stroke:#181818;stroke-width:1.5;"/><path d="M994.1416,67.6094 C994.1416,77.6094 1012.1416,77.6094 1012.1416,77.6094 C1012.1416,77.6094 1030.1416,77.6094 1030.1416,67.6094 " fill="none" style="stroke:#181818;stroke-width:1.5;"/><text fill="#000000" font-family="sans-serif" font-size="14" lengthAdjust="spacing" textLength="59.9307" x="979.1763" y="1207.0566">Database</text><path d="M994.1416,1220.1328 C994.1416,1210.1328 1012.1416,1210.1328 1012.1416,1210.1328 C1012.1416,1210.1328 1030.1416,1210.1328 1030.1416,1220.1328 L1030.1416,1246.1328 C1030.1416,1256.1328 1012.1416,1256.1328 1012.1416,1256.1328 C1012.1416,1256.1328 994.1416,1256.1328 994.1416,1246.1328 L994.1416,1220.1328 " fill="#E2E2F0" style="stroke:#181818;stroke-width:1.5;"/><path d="M994.1416,1220.1328 C994.1416,1230.1328 1012.1416,1230.1328 1012.1416,1230.1328 C1012.1416,1230.1328 1030.1416,1230.1328 1030.1416,1220.1328 " fill="none" style="stroke:#181818;stroke-width:1.5;"/><rect fill="#FFFFFF" height="390.5703" style="stroke:#181818;stroke-width:1.0;" width="10" x="224.1089" y="197.9219"/><rect fill="#FFFFFF" height="520.3281" style="stroke:#181818;stroke-width:1.0;" width="10" x="347.3154" y="655.1953"/><rect fill="#EEEEEE" height="3" style="stroke:#EEEEEE;stroke-width:1.0;" width="1065.1069" x="0" y="152.3945"/><line style="stroke:#000000;stroke-width:1.0;" x1="0" x2="1065.1069" y1="152.3945" y2="152.3945"/><line style="stroke:#000000;stroke-width:1.0;" x1="0" x2="1065.1069" y1="155.3945" y2="155.3945"/><rect fill="#EEEEEE" height="24.3516" style="stroke:#000000;stroke-width:2.0;" width="159.1899" x="452.9585" y="141.2188"/><text fill="#000000" font-family="sans-serif" font-size="13" font-weight="bold" lengthAdjust="spacing" textLength="141.5781" x="458.9585" y="158.7139">Lihat Daftar Pelanggan</text><polygon fill="#181818" points="212.1089,193.9219,222.1089,197.9219,212.1089,201.9219,216.1089,197.9219" style="stroke:#181818;stroke-width:1.0;"/><line style="stroke:#181818;stroke-width:1.0;" x1="38.9482" x2="218.1089" y1="197.9219" y2="197.9219"/><text fill="#000000" font-family="sans-serif" font-size="13" lengthAdjust="spacing" textLength="153.2197" x="45.9482" y="193.0654">Akses halaman pelanggan</text><polygon fill="#181818" points="463.9653,224.2734,473.9653,228.2734,463.9653,232.2734,467.9653,228.2734" style="stroke:#181818;stroke-width:1.0;"/><line style="stroke:#181818;stroke-width:1.0;" x1="234.1089" x2="469.9653" y1="228.2734" y2="228.2734"/><text fill="#000000" font-family="sans-serif" font-size="13" lengthAdjust="spacing" textLength="172.3262" x="241.1089" y="223.417">with(transactions)-&gt;paginate()</text><polygon fill="#181818" points="1000.1416,254.625,1010.1416,258.625,1000.1416,262.625,1004.1416,258.625" style="stroke:#181818;stroke-width:1.0;"/><line style="stroke:#181818;stroke-width:1.0;" x1="475.9653" x2="1006.1416" y1="258.625" y2="258.625"/><text fill="#000000" font-family="sans-serif" font-size="13" lengthAdjust="spacing" textLength="164.6963" x="482.9653" y="253.7686">SELECT * FROM customers</text><polygon fill="#181818" points="486.9653,284.9766,476.9653,288.9766,486.9653,292.9766,482.9653,288.9766" style="stroke:#181818;stroke-width:1.0;"/><line style="stroke:#181818;stroke-width:1.0;stroke-dasharray:2.0,2.0;" x1="480.9653" x2="1011.1416" y1="288.9766" y2="288.9766"/><text fill="#000000" font-family="sans-serif" font-size="13" lengthAdjust="spacing" textLength="88.8735" x="492.9653" y="284.1201">customers data</text><polygon fill="#181818" points="245.1089,315.3281,235.1089,319.3281,245.1089,323.3281,241.1089,319.3281" style="stroke:#181818;stroke-width:1.0;"/><line style="stroke:#181818;stroke-width:1.0;stroke-dasharray:2.0,2.0;" x1="239.1089" x2="474.9653" y1="319.3281" y2="319.3281"/><text fill="#000000" font-family="sans-serif" font-size="13" lengthAdjust="spacing" textLength="57.0845" x="251.1089" y="314.4717">Collection</text><polygon fill="#181818" points="49.9482,362.0313,39.9482,366.0313,49.9482,370.0313,45.9482,366.0313" style="stroke:#181818;stroke-width:1.0;"/><line style="stroke:#181818;stroke-width:1.0;stroke-dasharray:2.0,2.0;" x1="43.9482" x2="223.1089" y1="366.0313" y2="366.0313"/><text fill="#000000" font-family="sans-serif" font-size="13" lengthAdjust="spacing" textLength="161.1606" x="55.9482" y="344.8232">Tampilkan daftar pelanggan</text><text fill="#000000" font-family="sans-serif" font-size="13" lengthAdjust="spacing" textLength="151.0361" x="55.9482" y="361.1748">(nama, telepon, total poin)</text><path d="M10,381.0313 L75.2109,381.0313 L75.2109,389.3828 L65.2109,399.3828 L10,399.3828 L10,381.0313 " fill="#EEEEEE" style="stroke:#000000;stroke-width:1.5;"/><rect fill="none" height="200.4609" style="stroke:#000000;stroke-width:1.5;" width="1045.1069" x="10" y="381.0313"/><text fill="#000000" font-family="sans-serif" font-size="13" font-weight="bold" lengthAdjust="spacing" textLength="20.2109" x="25" y="395.5264">opt</text><text fill="#000000" font-family="sans-serif" font-size="11" font-weight="bold" lengthAdjust="spacing" textLength="59.9092" x="90.2109" y="394.4502">[Pencarian]</text><polygon fill="#181818" points="212.1089,417.7344,222.1089,421.7344,212.1089,425.7344,216.1089,421.7344" style="stroke:#181818;stroke-width:1.0;"/><line style="stroke:#181818;stroke-width:1.0;" x1="38.9482" x2="218.1089" y1="421.7344" y2="421.7344"/><text fill="#000000" font-family="sans-serif" font-size="13" lengthAdjust="spacing" textLength="115.6353" x="45.9482" y="416.8779">Input nomor telepon</text><polygon fill="#181818" points="463.9653,448.0859,473.9653,452.0859,463.9653,456.0859,467.9653,452.0859" style="stroke:#181818;stroke-width:1.0;"/><line style="stroke:#181818;stroke-width:1.0;" x1="234.1089" x2="469.9653" y1="452.0859" y2="452.0859"/><text fill="#000000" font-family="sans-serif" font-size="13" lengthAdjust="spacing" textLength="115.6226" x="241.1089" y="447.2295">where(phone, LIKE)</text><polygon fill="#181818" points="1000.1416,478.4375,1010.1416,482.4375,1000.1416,486.4375,1004.1416,482.4375" style="stroke:#181818;stroke-width:1.0;"/><line style="stroke:#181818;stroke-width:1.0;" x1="475.9653" x2="1006.1416" y1="482.4375" y2="482.4375"/><text fill="#000000" font-family="sans-serif" font-size="13" lengthAdjust="spacing" textLength="193.6416" x="482.9653" y="477.5811">SELECT * WHERE phone LIKE ?</text><polygon fill="#181818" points="486.9653,508.7891,476.9653,512.7891,486.9653,516.7891,482.9653,512.7891" style="stroke:#181818;stroke-width:1.0;"/><line style="stroke:#181818;stroke-width:1.0;stroke-dasharray:2.0,2.0;" x1="480.9653" x2="1011.1416" y1="512.7891" y2="512.7891"/><text fill="#000000" font-family="sans-serif" font-size="13" lengthAdjust="spacing" textLength="80.9199" x="492.9653" y="507.9326">filtered results</text><polygon fill="#181818" points="245.1089,539.1406,235.1089,543.1406,245.1089,547.1406,241.1089,543.1406" style="stroke:#181818;stroke-width:1.0;"/><line style="stroke:#181818;stroke-width:1.0;stroke-dasharray:2.0,2.0;" x1="239.1089" x2="474.9653" y1="543.1406" y2="543.1406"/><text fill="#000000" font-family="sans-serif" font-size="13" lengthAdjust="spacing" textLength="57.0845" x="251.1089" y="538.2842">Collection</text><polygon fill="#181818" points="49.9482,569.4922,39.9482,573.4922,49.9482,577.4922,45.9482,573.4922" style="stroke:#181818;stroke-width:1.0;"/><line style="stroke:#181818;stroke-width:1.0;stroke-dasharray:2.0,2.0;" x1="43.9482" x2="223.1089" y1="573.4922" y2="573.4922"/><text fill="#000000" font-family="sans-serif" font-size="13" lengthAdjust="spacing" textLength="151.0234" x="55.9482" y="568.6357">Tampilkan hasil pencarian</text><rect fill="#EEEEEE" height="3" style="stroke:#EEEEEE;stroke-width:1.0;" width="1065.1069" x="0" y="609.668"/><line style="stroke:#000000;stroke-width:1.0;" x1="0" x2="1065.1069" y1="609.668" y2="609.668"/><line style="stroke:#000000;stroke-width:1.0;" x1="0" x2="1065.1069" y1="612.668" y2="612.668"/><rect fill="#EEEEEE" height="24.3516" style="stroke:#000000;stroke-width:2.0;" width="157.0254" x="454.0408" y="598.4922"/><text fill="#000000" font-family="sans-serif" font-size="13" font-weight="bold" lengthAdjust="spacing" textLength="139.4136" x="460.0408" y="615.9873">Lihat Detail Pelanggan</text><polygon fill="#181818" points="335.3154,651.1953,345.3154,655.1953,335.3154,659.1953,339.3154,655.1953" style="stroke:#181818;stroke-width:1.0;"/><line style="stroke:#181818;stroke-width:1.0;" x1="38.9482" x2="341.3154" y1="655.1953" y2="655.1953"/><text fill="#000000" font-family="sans-serif" font-size="13" lengthAdjust="spacing" textLength="88.9053" x="45.9482" y="650.3389">Pilih pelanggan</text><polygon fill="#181818" points="463.9653,681.5469,473.9653,685.5469,463.9653,689.5469,467.9653,685.5469" style="stroke:#181818;stroke-width:1.0;"/><line style="stroke:#181818;stroke-width:1.0;" x1="357.3154" x2="469.9653" y1="685.5469" y2="685.5469"/><text fill="#000000" font-family="sans-serif" font-size="13" lengthAdjust="spacing" textLength="39.7363" x="364.3154" y="680.6904">find(id)</text><polygon fill="#181818" points="1000.1416,711.8984,1010.1416,715.8984,1000.1416,719.8984,1004.1416,715.8984" style="stroke:#181818;stroke-width:1.0;"/><line style="stroke:#181818;stroke-width:1.0;" x1="475.9653" x2="1006.1416" y1="715.8984" y2="715.8984"/><text fill="#000000" font-family="sans-serif" font-size="13" lengthAdjust="spacing" textLength="252.4717" x="482.9653" y="711.042">SELECT * FROM customers WHERE id = ?</text><polygon fill="#181818" points="486.9653,742.25,476.9653,746.25,486.9653,750.25,482.9653,746.25" style="stroke:#181818;stroke-width:1.0;"/><line style="stroke:#181818;stroke-width:1.0;stroke-dasharray:2.0,2.0;" x1="480.9653" x2="1011.1416" y1="746.25" y2="746.25"/><text fill="#000000" font-family="sans-serif" font-size="13" lengthAdjust="spacing" textLength="82.3735" x="492.9653" y="741.3936">customer data</text><polygon fill="#181818" points="368.3154,772.6016,358.3154,776.6016,368.3154,780.6016,364.3154,776.6016" style="stroke:#181818;stroke-width:1.0;"/><line style="stroke:#181818;stroke-width:1.0;stroke-dasharray:2.0,2.0;" x1="362.3154" x2="474.9653" y1="776.6016" y2="776.6016"/><text fill="#000000" font-family="sans-serif" font-size="13" lengthAdjust="spacing" textLength="94.6499" x="374.3154" y="771.7451">Customer object</text><polygon fill="#181818" points="49.9482,819.3047,39.9482,823.3047,49.9482,827.3047,45.9482,823.3047" style="stroke:#181818;stroke-width:1.0;"/><line style="stroke:#181818;stroke-width:1.0;stroke-dasharray:2.0,2.0;" x1="43.9482" x2="346.3154" y1="823.3047" y2="823.3047"/><text fill="#000000" font-family="sans-serif" font-size="13" lengthAdjust="spacing" textLength="153.2197" x="55.9482" y="802.0967">Tampilkan data pelanggan</text><text fill="#000000" font-family="sans-serif" font-size="13" lengthAdjust="spacing" textLength="122.8525" x="55.9482" y="818.4482">(nama, telepon, poin)</text><path d="M285.519,838.3047 L350.749,838.3047 L350.749,846.6563 L340.749,856.6563 L285.519,856.6563 L285.519,838.3047 " fill="#EEEEEE" style="stroke:#000000;stroke-width:1.5;"/><rect fill="none" height="261.1641" style="stroke:#000000;stroke-width:1.5;" width="769.5879" x="285.519" y="838.3047"/><text fill="#000000" font-family="sans-serif" font-size="13" font-weight="bold" lengthAdjust="spacing" textLength="20.23" x="300.519" y="852.7998">par</text><text fill="#000000" font-family="sans-serif" font-size="11" font-weight="bold" lengthAdjust="spacing" textLength="97.7969" x="365.749" y="851.7236">[Load data paralel]</text><polygon fill="#181818" points="565.4644,875.0078,575.4644,879.0078,565.4644,883.0078,569.4644,879.0078" style="stroke:#181818;stroke-width:1.0;"/><line style="stroke:#181818;stroke-width:1.0;" x1="357.3154" x2="571.4644" y1="879.0078" y2="879.0078"/><text fill="#000000" font-family="sans-serif" font-size="13" lengthAdjust="spacing" textLength="196.1489" x="364.3154" y="874.1514">where(customer_id)-&gt;with(details)</text><polygon fill="#181818" points="1000.1416,905.3594,1010.1416,909.3594,1000.1416,913.3594,1004.1416,909.3594" style="stroke:#181818;stroke-width:1.0;"/><line style="stroke:#181818;stroke-width:1.0;" x1="577.4644" x2="1006.1416" y1="909.3594" y2="909.3594"/><text fill="#000000" font-family="sans-serif" font-size="13" lengthAdjust="spacing" textLength="323.2925" x="584.4644" y="904.5029">SELECT * FROM transactions WHERE customer_id = ?</text><polygon fill="#181818" points="588.4644,935.7109,578.4644,939.7109,588.4644,943.7109,584.4644,939.7109" style="stroke:#181818;stroke-width:1.0;"/><line style="stroke:#181818;stroke-width:1.0;stroke-dasharray:2.0,2.0;" x1="582.4644" x2="1011.1416" y1="939.7109" y2="939.7109"/><text fill="#000000" font-family="sans-serif" font-size="13" lengthAdjust="spacing" textLength="70.0908" x="594.4644" y="934.8545">transactions</text><polygon fill="#181818" points="368.3154,966.0625,358.3154,970.0625,368.3154,974.0625,364.3154,970.0625" style="stroke:#181818;stroke-width:1.0;"/><line style="stroke:#181818;stroke-width:1.0;stroke-dasharray:2.0,2.0;" x1="362.3154" x2="576.4644" y1="970.0625" y2="970.0625"/><text fill="#000000" font-family="sans-serif" font-size="13" lengthAdjust="spacing" textLength="135.1162" x="374.3154" y="965.2061">Transactions Collection</text><polygon fill="#181818" points="667.271,996.4141,677.271,1000.4141,667.271,1004.4141,671.271,1000.4141" style="stroke:#181818;stroke-width:1.0;"/><line style="stroke:#181818;stroke-width:1.0;" x1="357.3154" x2="673.271" y1="1000.4141" y2="1000.4141"/><text fill="#000000" font-family="sans-serif" font-size="13" lengthAdjust="spacing" textLength="207.7461" x="364.3154" y="995.5576">where(phone)-&gt;orderBy(created_at)</text><polygon fill="#181818" points="1000.1416,1026.7656,1010.1416,1030.7656,1000.1416,1034.7656,1004.1416,1030.7656" style="stroke:#181818;stroke-width:1.0;"/><line style="stroke:#181818;stroke-width:1.0;" x1="679.271" x2="1006.1416" y1="1030.7656" y2="1030.7656"/><text fill="#000000" font-family="sans-serif" font-size="13" lengthAdjust="spacing" textLength="308.8706" x="686.271" y="1025.9092">SELECT * FROM points_histories WHERE phone = ?</text><polygon fill="#181818" points="690.271,1057.1172,680.271,1061.1172,690.271,1065.1172,686.271,1061.1172" style="stroke:#181818;stroke-width:1.0;"/><line style="stroke:#181818;stroke-width:1.0;stroke-dasharray:2.0,2.0;" x1="684.271" x2="1011.1416" y1="1061.1172" y2="1061.1172"/><text fill="#000000" font-family="sans-serif" font-size="13" lengthAdjust="spacing" textLength="76.5908" x="696.271" y="1056.2607">points history</text><polygon fill="#181818" points="368.3154,1087.4688,358.3154,1091.4688,368.3154,1095.4688,364.3154,1091.4688" style="stroke:#181818;stroke-width:1.0;"/><line style="stroke:#181818;stroke-width:1.0;stroke-dasharray:2.0,2.0;" x1="362.3154" x2="678.271" y1="1091.4688" y2="1091.4688"/><text fill="#000000" font-family="sans-serif" font-size="13" lengthAdjust="spacing" textLength="137.2744" x="374.3154" y="1086.6123">PointsHistory Collection</text><polygon fill="#181818" points="49.9482,1124.8203,39.9482,1128.8203,49.9482,1132.8203,45.9482,1128.8203" style="stroke:#181818;stroke-width:1.0;"/><line style="stroke:#181818;stroke-width:1.0;stroke-dasharray:2.0,2.0;" x1="43.9482" x2="346.3154" y1="1128.8203" y2="1128.8203"/><text fill="#000000" font-family="sans-serif" font-size="13" lengthAdjust="spacing" textLength="160.3862" x="55.9482" y="1123.9639">Tampilkan riwayat transaksi</text><polygon fill="#181818" points="49.9482,1171.5234,39.9482,1175.5234,49.9482,1179.5234,45.9482,1175.5234" style="stroke:#181818;stroke-width:1.0;"/><line style="stroke:#181818;stroke-width:1.0;stroke-dasharray:2.0,2.0;" x1="43.9482" x2="351.3154" y1="1175.5234" y2="1175.5234"/><text fill="#000000" font-family="sans-serif" font-size="13" lengthAdjust="spacing" textLength="132.9453" x="55.9482" y="1154.3154">Tampilkan riwayat poin</text><text fill="#000000" font-family="sans-serif" font-size="13" lengthAdjust="spacing" textLength="167.6987" x="55.9482" y="1170.667">(perolehan dan penggunaan)</text><!--SRC=[ZPH1Zzem48Nl_XKZJb0jwXq9gXQe5i6gQ1UfbqfemBF4nTYfRPRoxpjnGd3OK2sdA7updlVn9a45JV12VuvajWGJXJk7Xm7CILkDi2IDPhT38mHkWtNGcQDNhWFeuUZ9YHnTK5kLemdG6Hzzi0TodsT6qjzVfhjGRtHIZdgnG1LlxrIyPFRqhi3potOzIv-i95tgjjNRfdRbq7YUMbdJb8VYeAbTMcM2VrJSnvsRwZmU2Oa1D-W9EfFgAPxAZH338InKXW4c-1hGNQ71S2X4WGdwez8z3E3htfE733KUM97NW8j9tp1GXKcKUYwykEFQamfPDrnz-Lv_bEDE6QxhzaIjv2gvOVtBT34Th-0JV7_-yLGtOZCRw3SxrsTG64qw9PEFhTOKxwsduzFeRm0hFEHAxzcIB2dKpXYdOQyF44XJRWq_s80wWkq9OVF0nCmMdM8AmBzROZEJ7mCOU-3yLJsYhfLGHewwUMODFS1YDf_selG-cP-Fq-Sfn8AeXo-nu3sXLwK3zvRWo1yr9wBPjvrJCcORgeoNYK7Kxib88IJTHk4QC0h81Uq1AxQ5ko-LLbbRhk8sYQYwTMPaLycFvwU2fYGC6TVzCBLagHhoiiTWDxyPrMMizZW5_5-OgXZnEiF2egpqw52JZlmlZkFUr16vJBLcu_rHN2mPwVeoCQMw7KIwWHMBf5s4acJeSczQbLvnfR9A-zwag66b_2Oruyukh9FalfsxMqVyXyirXj9B9MytKnwki_ZjK-GR6t5ZfRwtUYYBperBaYIc7zNKJupv_N_SgHEUEUqbiBrN7z0MjtCsSd9MKnPZKtnSEJD7WrW495chk0d_0000]--></g></svg>