<svg xmlns="http://www.w3.org/2000/svg" xmlns:xlink="http://www.w3.org/1999/xlink" contentStyleType="text/css" height="1340px" preserveAspectRatio="none" style="width:1005px;height:1340px;background:#FFFFFF;" version="1.1" viewBox="0 0 1005 1340" width="1005px" zoomAndPan="magnify"><title>Sequence Diagram: Tambah Produk dengan Komposisi</title><defs/><g><text fill="#000000" font-family="sans-serif" font-size="14" font-weight="bold" lengthAdjust="spacing" textLength="369.5166" x="318.8159" y="29.5332">Sequence Diagram: Tambah Produk dengan Komposisi</text><rect fill="#FFFFFF" height="1094.4922" style="stroke:#181818;stroke-width:1.0;" width="10" x="302.0981" y="153.5703"/><rect fill="#FFFFFF" height="150.7578" style="stroke:#181818;stroke-width:1.0;" width="10" x="500.8516" y="573.6797"/><rect fill="#FFFFFF" height="104.0547" style="stroke:#181818;stroke-width:1.0;" width="10" x="624.4424" y="780.1406"/><rect fill="#FFFFFF" height="104.0547" style="stroke:#181818;stroke-width:1.0;" width="10" x="748.0332" y="972.25"/><rect fill="none" height="754.2734" style="stroke:#000000;stroke-width:1.5;" width="988.1484" x="10" y="486.7891"/><rect fill="none" height="152.7578" style="stroke:#000000;stroke-width:1.5;" width="730.4502" x="247.6982" y="739.4375"/><rect fill="none" height="185.1094" style="stroke:#000000;stroke-width:1.5;" width="750.4502" x="237.6982" y="906.1953"/><rect fill="none" height="152.7578" style="stroke:#000000;stroke-width:1.5;" width="730.4502" x="247.6982" y="931.5469"/><line style="stroke:#181818;stroke-width:0.5;stroke-dasharray:5.0,5.0;" x1="73" x2="73" y1="121.2188" y2="1258.0625"/><line style="stroke:#181818;stroke-width:0.5;stroke-dasharray:5.0,5.0;" x1="306.6982" x2="306.6982" y1="121.2188" y2="1258.0625"/><line style="stroke:#181818;stroke-width:0.5;stroke-dasharray:5.0,5.0;" x1="505.7275" x2="505.7275" y1="121.2188" y2="1258.0625"/><line style="stroke:#181818;stroke-width:0.5;stroke-dasharray:5.0,5.0;" x1="629.4116" x2="629.4116" y1="121.2188" y2="1258.0625"/><line style="stroke:#181818;stroke-width:0.5;stroke-dasharray:5.0,5.0;" x1="752.1333" x2="752.1333" y1="121.2188" y2="1258.0625"/><line style="stroke:#181818;stroke-width:0.5;stroke-dasharray:5.0,5.0;" x1="934.2178" x2="934.2178" y1="121.2188" y2="1258.0625"/><text fill="#000000" font-family="sans-serif" font-size="14" lengthAdjust="spacing" textLength="101.1787" x="20" y="118.1426">Bagian Inventori</text><ellipse cx="73.5894" cy="52.1094" fill="#E2E2F0" rx="8" ry="8" style="stroke:#181818;stroke-width:0.5;"/><path d="M73.5894,60.1094 L73.5894,87.1094 M60.5894,68.1094 L86.5894,68.1094 M73.5894,87.1094 L60.5894,102.1094 M73.5894,87.1094 L86.5894,102.1094 " fill="none" style="stroke:#181818;stroke-width:0.5;"/><text fill="#000000" font-family="sans-serif" font-size="14" lengthAdjust="spacing" textLength="101.1787" x="20" y="1271.5957">Bagian Inventori</text><ellipse cx="73.5894" cy="1283.1719" fill="#E2E2F0" rx="8" ry="8" style="stroke:#181818;stroke-width:0.5;"/><path d="M73.5894,1291.1719 L73.5894,1318.1719 M60.5894,1299.1719 L86.5894,1299.1719 M73.5894,1318.1719 L60.5894,1333.1719 M73.5894,1318.1719 L86.5894,1333.1719 " fill="none" style="stroke:#181818;stroke-width:0.5;"/><rect fill="#E2E2F0" height="49.2188" rx="2.5" ry="2.5" style="stroke:#181818;stroke-width:0.5;" width="98.7998" x="257.6982" y="71"/><text fill="#000000" font-family="sans-serif" font-size="14" lengthAdjust="spacing" textLength="84.7998" x="264.6982" y="92.5332">Product/Form</text><text fill="#000000" font-family="sans-serif" font-size="14" lengthAdjust="spacing" textLength="60.6758" x="276.7603" y="110.1426">(Livewire)</text><rect fill="#E2E2F0" height="49.2188" rx="2.5" ry="2.5" style="stroke:#181818;stroke-width:0.5;" width="98.7998" x="257.6982" y="1257.0625"/><text fill="#000000" font-family="sans-serif" font-size="14" lengthAdjust="spacing" textLength="84.7998" x="264.6982" y="1278.5957">Product/Form</text><text fill="#000000" font-family="sans-serif" font-size="14" lengthAdjust="spacing" textLength="60.6758" x="276.7603" y="1296.2051">(Livewire)</text><rect fill="#E2E2F0" height="49.2188" rx="2.5" ry="2.5" style="stroke:#181818;stroke-width:0.5;" width="62.248" x="474.7275" y="71"/><text fill="#000000" font-family="sans-serif" font-size="14" lengthAdjust="spacing" textLength="48.248" x="481.7275" y="92.5332">Product</text><text fill="#000000" font-family="sans-serif" font-size="14" lengthAdjust="spacing" textLength="47.4551" x="482.124" y="110.1426">(Model)</text><rect fill="#E2E2F0" height="49.2188" rx="2.5" ry="2.5" style="stroke:#181818;stroke-width:0.5;" width="62.248" x="474.7275" y="1257.0625"/><text fill="#000000" font-family="sans-serif" font-size="14" lengthAdjust="spacing" textLength="48.248" x="481.7275" y="1278.5957">Product</text><text fill="#000000" font-family="sans-serif" font-size="14" lengthAdjust="spacing" textLength="47.4551" x="482.124" y="1296.2051">(Model)</text><rect fill="#E2E2F0" height="49.2188" rx="2.5" ry="2.5" style="stroke:#181818;stroke-width:0.5;" width="140.0615" x="559.4116" y="71"/><text fill="#000000" font-family="sans-serif" font-size="14" lengthAdjust="spacing" textLength="126.0615" x="566.4116" y="92.5332">ProductComposition</text><text fill="#000000" font-family="sans-serif" font-size="14" lengthAdjust="spacing" textLength="47.4551" x="605.7148" y="110.1426">(Model)</text><rect fill="#E2E2F0" height="49.2188" rx="2.5" ry="2.5" style="stroke:#181818;stroke-width:0.5;" width="140.0615" x="559.4116" y="1257.0625"/><text fill="#000000" font-family="sans-serif" font-size="14" lengthAdjust="spacing" textLength="126.0615" x="566.4116" y="1278.5957">ProductComposition</text><text fill="#000000" font-family="sans-serif" font-size="14" lengthAdjust="spacing" textLength="47.4551" x="605.7148" y="1296.2051">(Model)</text><rect fill="#E2E2F0" height="49.2188" rx="2.5" ry="2.5" style="stroke:#181818;stroke-width:0.5;" width="77.7998" x="714.1333" y="71"/><text fill="#000000" font-family="sans-serif" font-size="14" lengthAdjust="spacing" textLength="63.7998" x="721.1333" y="92.5332">OtherCost</text><text fill="#000000" font-family="sans-serif" font-size="14" lengthAdjust="spacing" textLength="47.4551" x="729.3057" y="110.1426">(Model)</text><rect fill="#E2E2F0" height="49.2188" rx="2.5" ry="2.5" style="stroke:#181818;stroke-width:0.5;" width="77.7998" x="714.1333" y="1257.0625"/><text fill="#000000" font-family="sans-serif" font-size="14" lengthAdjust="spacing" textLength="63.7998" x="721.1333" y="1278.5957">OtherCost</text><text fill="#000000" font-family="sans-serif" font-size="14" lengthAdjust="spacing" textLength="47.4551" x="729.3057" y="1296.2051">(Model)</text><text fill="#000000" font-family="sans-serif" font-size="14" lengthAdjust="spacing" textLength="59.9307" x="902.2178" y="118.1426">Database</text><path d="M917.1831,67.6094 C917.1831,57.6094 935.1831,57.6094 935.1831,57.6094 C935.1831,57.6094 953.1831,57.6094 953.1831,67.6094 L953.1831,93.6094 C953.1831,103.6094 935.1831,103.6094 935.1831,103.6094 C935.1831,103.6094 917.1831,103.6094 917.1831,93.6094 L917.1831,67.6094 " fill="#E2E2F0" style="stroke:#181818;stroke-width:1.5;"/><path d="M917.1831,67.6094 C917.1831,77.6094 935.1831,77.6094 935.1831,77.6094 C935.1831,77.6094 953.1831,77.6094 953.1831,67.6094 " fill="none" style="stroke:#181818;stroke-width:1.5;"/><text fill="#000000" font-family="sans-serif" font-size="14" lengthAdjust="spacing" textLength="59.9307" x="902.2178" y="1271.5957">Database</text><path d="M917.1831,1284.6719 C917.1831,1274.6719 935.1831,1274.6719 935.1831,1274.6719 C935.1831,1274.6719 953.1831,1274.6719 953.1831,1284.6719 L953.1831,1310.6719 C953.1831,1320.6719 935.1831,1320.6719 935.1831,1320.6719 C935.1831,1320.6719 917.1831,1320.6719 917.1831,1310.6719 L917.1831,1284.6719 " fill="#E2E2F0" style="stroke:#181818;stroke-width:1.5;"/><path d="M917.1831,1284.6719 C917.1831,1294.6719 935.1831,1294.6719 935.1831,1294.6719 C935.1831,1294.6719 953.1831,1294.6719 953.1831,1284.6719 " fill="none" style="stroke:#181818;stroke-width:1.5;"/><rect fill="#FFFFFF" height="1094.4922" style="stroke:#181818;stroke-width:1.0;" width="10" x="302.0981" y="153.5703"/><rect fill="#FFFFFF" height="150.7578" style="stroke:#181818;stroke-width:1.0;" width="10" x="500.8516" y="573.6797"/><rect fill="#FFFFFF" height="104.0547" style="stroke:#181818;stroke-width:1.0;" width="10" x="624.4424" y="780.1406"/><rect fill="#FFFFFF" height="104.0547" style="stroke:#181818;stroke-width:1.0;" width="10" x="748.0332" y="972.25"/><polygon fill="#181818" points="290.0981,149.5703,300.0981,153.5703,290.0981,157.5703,294.0981,153.5703" style="stroke:#181818;stroke-width:1.0;"/><line style="stroke:#181818;stroke-width:1.0;" x1="73.5894" x2="296.0981" y1="153.5703" y2="153.5703"/><text fill="#000000" font-family="sans-serif" font-size="13" lengthAdjust="spacing" textLength="179.2134" x="80.5894" y="148.7139">Akses halaman tambah produk</text><line style="stroke:#181818;stroke-width:1.0;" x1="312.0981" x2="354.0981" y1="183.9219" y2="183.9219"/><line style="stroke:#181818;stroke-width:1.0;" x1="354.0981" x2="354.0981" y1="183.9219" y2="196.9219"/><line style="stroke:#181818;stroke-width:1.0;" x1="313.0981" x2="354.0981" y1="196.9219" y2="196.9219"/><polygon fill="#181818" points="323.0981,192.9219,313.0981,196.9219,323.0981,200.9219,319.0981,196.9219" style="stroke:#181818;stroke-width:1.0;"/><text fill="#000000" font-family="sans-serif" font-size="13" lengthAdjust="spacing" textLength="72.249" x="319.0981" y="179.0654">Render form</text><polygon fill="#181818" points="290.0981,239.625,300.0981,243.625,290.0981,247.625,294.0981,243.625" style="stroke:#181818;stroke-width:1.0;"/><line style="stroke:#181818;stroke-width:1.0;" x1="73.5894" x2="296.0981" y1="243.625" y2="243.625"/><text fill="#000000" font-family="sans-serif" font-size="13" lengthAdjust="spacing" textLength="85.2744" x="80.5894" y="222.417">Isi data produk</text><text fill="#000000" font-family="sans-serif" font-size="13" lengthAdjust="spacing" textLength="185.707" x="80.5894" y="238.7686">(nama, kategori, harga, metode)</text><polygon fill="#181818" points="290.0981,269.9766,300.0981,273.9766,290.0981,277.9766,294.0981,273.9766" style="stroke:#181818;stroke-width:1.0;"/><line style="stroke:#181818;stroke-width:1.0;" x1="73.5894" x2="296.0981" y1="273.9766" y2="273.9766"/><text fill="#000000" font-family="sans-serif" font-size="13" lengthAdjust="spacing" textLength="149.5825" x="80.5894" y="269.1201">Upload gambar (opsional)</text><polygon fill="#181818" points="290.0981,327.8555,300.0981,331.8555,290.0981,335.8555,294.0981,331.8555" style="stroke:#181818;stroke-width:1.0;"/><line style="stroke:#181818;stroke-width:1.0;" x1="73.5894" x2="296.0981" y1="331.8555" y2="331.8555"/><text fill="#000000" font-family="sans-serif" font-size="13" lengthAdjust="spacing" textLength="148.8589" x="80.5894" y="326.999">Tambah komposisi bahan</text><path d="M317,286.9766 L317,361.9766 L473,361.9766 L473,296.9766 L463,286.9766 L317,286.9766 " fill="#FEFFDD" style="stroke:#181818;stroke-width:0.5;"/><path d="M463,286.9766 L463,296.9766 L473,296.9766 L463,286.9766 " fill="#FEFFDD" style="stroke:#181818;stroke-width:0.5;"/><text fill="#000000" font-family="sans-serif" font-size="13" lengthAdjust="spacing" textLength="120.6689" x="323" y="305.4717">User menambahkan:</text><text fill="#000000" font-family="sans-serif" font-size="13" lengthAdjust="spacing" textLength="135.8398" x="323" y="321.8232">- Bahan baku (material)</text><text fill="#000000" font-family="sans-serif" font-size="13" lengthAdjust="spacing" textLength="82.3735" x="323" y="338.1748">- Satuan (unit)</text><text fill="#000000" font-family="sans-serif" font-size="13" lengthAdjust="spacing" textLength="116.3335" x="323" y="354.5264">- Kuantitas per porsi</text><polygon fill="#181818" points="290.0981,405.0859,300.0981,409.0859,290.0981,413.0859,294.0981,409.0859" style="stroke:#181818;stroke-width:1.0;"/><line style="stroke:#181818;stroke-width:1.0;" x1="73.5894" x2="296.0981" y1="409.0859" y2="409.0859"/><text fill="#000000" font-family="sans-serif" font-size="13" lengthAdjust="spacing" textLength="204.5088" x="80.5894" y="404.2295">Tambah biaya tambahan (opsional)</text><path d="M317,372.3828 L317,431.3828 L458,431.3828 L458,382.3828 L448,372.3828 L317,372.3828 " fill="#FEFFDD" style="stroke:#181818;stroke-width:0.5;"/><path d="M448,372.3828 L448,382.3828 L458,382.3828 L448,372.3828 " fill="#FEFFDD" style="stroke:#181818;stroke-width:0.5;"/><text fill="#000000" font-family="sans-serif" font-size="13" lengthAdjust="spacing" textLength="120.6689" x="323" y="390.8779">User menambahkan:</text><text fill="#000000" font-family="sans-serif" font-size="13" lengthAdjust="spacing" textLength="72.979" x="323" y="407.2295">- Jenis biaya</text><text fill="#000000" font-family="sans-serif" font-size="13" lengthAdjust="spacing" textLength="84.5381" x="323" y="423.5811">- Jumlah biaya</text><line style="stroke:#181818;stroke-width:1.0;" x1="312.0981" x2="354.0981" y1="458.7891" y2="458.7891"/><line style="stroke:#181818;stroke-width:1.0;" x1="354.0981" x2="354.0981" y1="458.7891" y2="471.7891"/><line style="stroke:#181818;stroke-width:1.0;" x1="313.0981" x2="354.0981" y1="471.7891" y2="471.7891"/><polygon fill="#181818" points="323.0981,467.7891,313.0981,471.7891,323.0981,475.7891,319.0981,471.7891" style="stroke:#181818;stroke-width:1.0;"/><text fill="#000000" font-family="sans-serif" font-size="13" lengthAdjust="spacing" textLength="77.3271" x="319.0981" y="453.9326">Validasi input</text><path d="M10,486.7891 L70.1709,486.7891 L70.1709,495.1406 L60.1709,505.1406 L10,505.1406 L10,486.7891 " fill="#EEEEEE" style="stroke:#000000;stroke-width:1.5;"/><rect fill="none" height="754.2734" style="stroke:#000000;stroke-width:1.5;" width="988.1484" x="10" y="486.7891"/><text fill="#000000" font-family="sans-serif" font-size="13" font-weight="bold" lengthAdjust="spacing" textLength="15.1709" x="25" y="501.2842">alt</text><text fill="#000000" font-family="sans-serif" font-size="11" font-weight="bold" lengthAdjust="spacing" textLength="80.6899" x="85.1709" y="500.208">[Validasi gagal]</text><polygon fill="#181818" points="84.5894,523.4922,74.5894,527.4922,84.5894,531.4922,80.5894,527.4922" style="stroke:#181818;stroke-width:1.0;"/><line style="stroke:#181818;stroke-width:1.0;stroke-dasharray:2.0,2.0;" x1="78.5894" x2="301.0981" y1="527.4922" y2="527.4922"/><text fill="#000000" font-family="sans-serif" font-size="13" lengthAdjust="spacing" textLength="130.0571" x="90.5894" y="522.6357">Tampilkan pesan error</text><line style="stroke:#000000;stroke-width:1.0;stroke-dasharray:2.0,2.0;" x1="10" x2="998.1484" y1="536.4922" y2="536.4922"/><text fill="#000000" font-family="sans-serif" font-size="11" font-weight="bold" lengthAdjust="spacing" textLength="94.1445" x="15" y="547.9111">[Validasi berhasil]</text><polygon fill="#181818" points="488.8516,569.6797,498.8516,573.6797,488.8516,577.6797,492.8516,573.6797" style="stroke:#181818;stroke-width:1.0;"/><line style="stroke:#181818;stroke-width:1.0;" x1="312.0981" x2="494.8516" y1="573.6797" y2="573.6797"/><text fill="#000000" font-family="sans-serif" font-size="13" lengthAdjust="spacing" textLength="115.6099" x="319.0981" y="568.8232">create(productData)</text><line style="stroke:#181818;stroke-width:1.0;" x1="510.8516" x2="552.8516" y1="620.3828" y2="620.3828"/><line style="stroke:#181818;stroke-width:1.0;" x1="552.8516" x2="552.8516" y1="620.3828" y2="633.3828"/><line style="stroke:#181818;stroke-width:1.0;" x1="511.8516" x2="552.8516" y1="633.3828" y2="633.3828"/><polygon fill="#181818" points="521.8516,629.3828,511.8516,633.3828,521.8516,637.3828,517.8516,633.3828" style="stroke:#181818;stroke-width:1.0;"/><text fill="#000000" font-family="sans-serif" font-size="13" lengthAdjust="spacing" textLength="33.96" x="517.8516" y="599.1748">boot()</text><text fill="#000000" font-family="sans-serif" font-size="13" lengthAdjust="spacing" textLength="89.5908" x="517.8516" y="615.5264">Generate UUID</text><polygon fill="#181818" points="923.1831,659.7344,933.1831,663.7344,923.1831,667.7344,927.1831,663.7344" style="stroke:#181818;stroke-width:1.0;"/><line style="stroke:#181818;stroke-width:1.0;" x1="510.8516" x2="929.1831" y1="663.7344" y2="663.7344"/><text fill="#000000" font-family="sans-serif" font-size="13" lengthAdjust="spacing" textLength="135.8081" x="517.8516" y="658.8779">INSERT INTO products</text><polygon fill="#181818" points="521.8516,690.0859,511.8516,694.0859,521.8516,698.0859,517.8516,694.0859" style="stroke:#181818;stroke-width:1.0;"/><line style="stroke:#181818;stroke-width:1.0;stroke-dasharray:2.0,2.0;" x1="515.8516" x2="934.1831" y1="694.0859" y2="694.0859"/><text fill="#000000" font-family="sans-serif" font-size="13" lengthAdjust="spacing" textLength="18.7827" x="527.8516" y="689.2295">OK</text><polygon fill="#181818" points="323.0981,720.4375,313.0981,724.4375,323.0981,728.4375,319.0981,724.4375" style="stroke:#181818;stroke-width:1.0;"/><line style="stroke:#181818;stroke-width:1.0;stroke-dasharray:2.0,2.0;" x1="317.0981" x2="504.8516" y1="724.4375" y2="724.4375"/><text fill="#000000" font-family="sans-serif" font-size="13" lengthAdjust="spacing" textLength="164.7534" x="329.0981" y="719.5811">Product created (product_id)</text><path d="M247.6982,739.4375 L320.1328,739.4375 L320.1328,747.7891 L310.1328,757.7891 L247.6982,757.7891 L247.6982,739.4375 " fill="#EEEEEE" style="stroke:#000000;stroke-width:1.5;"/><rect fill="none" height="152.7578" style="stroke:#000000;stroke-width:1.5;" width="730.4502" x="247.6982" y="739.4375"/><text fill="#000000" font-family="sans-serif" font-size="13" font-weight="bold" lengthAdjust="spacing" textLength="27.4346" x="262.6982" y="753.9326">loop</text><text fill="#000000" font-family="sans-serif" font-size="11" font-weight="bold" lengthAdjust="spacing" textLength="166.2461" x="335.1328" y="752.8564">[Untuk setiap komposisi bahan]</text><polygon fill="#181818" points="612.4424,776.1406,622.4424,780.1406,612.4424,784.1406,616.4424,780.1406" style="stroke:#181818;stroke-width:1.0;"/><line style="stroke:#181818;stroke-width:1.0;" x1="312.0981" x2="618.4424" y1="780.1406" y2="780.1406"/><text fill="#000000" font-family="sans-serif" font-size="13" lengthAdjust="spacing" textLength="246.4033" x="319.0981" y="775.2842">create(product_id, material_id, unit_id, qty)</text><line style="stroke:#181818;stroke-width:1.0;" x1="634.4424" x2="676.4424" y1="810.4922" y2="810.4922"/><line style="stroke:#181818;stroke-width:1.0;" x1="676.4424" x2="676.4424" y1="810.4922" y2="823.4922"/><line style="stroke:#181818;stroke-width:1.0;" x1="635.4424" x2="676.4424" y1="823.4922" y2="823.4922"/><polygon fill="#181818" points="645.4424,819.4922,635.4424,823.4922,645.4424,827.4922,641.4424,823.4922" style="stroke:#181818;stroke-width:1.0;"/><text fill="#000000" font-family="sans-serif" font-size="13" lengthAdjust="spacing" textLength="89.5908" x="641.4424" y="805.6357">Generate UUID</text><polygon fill="#181818" points="923.1831,849.8438,933.1831,853.8438,923.1831,857.8438,927.1831,853.8438" style="stroke:#181818;stroke-width:1.0;"/><line style="stroke:#181818;stroke-width:1.0;" x1="634.4424" x2="929.1831" y1="853.8438" y2="853.8438"/><text fill="#000000" font-family="sans-serif" font-size="13" lengthAdjust="spacing" textLength="212.4053" x="641.4424" y="848.9873">INSERT INTO product_compositions</text><polygon fill="#181818" points="640.4424,880.1953,630.4424,884.1953,640.4424,888.1953,636.4424,884.1953" style="stroke:#181818;stroke-width:1.0;"/><line style="stroke:#181818;stroke-width:1.0;stroke-dasharray:2.0,2.0;" x1="634.4424" x2="934.1831" y1="884.1953" y2="884.1953"/><text fill="#000000" font-family="sans-serif" font-size="13" lengthAdjust="spacing" textLength="18.7827" x="646.4424" y="879.3389">OK</text><path d="M237.6982,906.1953 L302.9092,906.1953 L302.9092,914.5469 L292.9092,924.5469 L237.6982,924.5469 L237.6982,906.1953 " fill="#EEEEEE" style="stroke:#000000;stroke-width:1.5;"/><rect fill="none" height="185.1094" style="stroke:#000000;stroke-width:1.5;" width="750.4502" x="237.6982" y="906.1953"/><text fill="#000000" font-family="sans-serif" font-size="13" font-weight="bold" lengthAdjust="spacing" textLength="20.2109" x="252.6982" y="920.6904">opt</text><text fill="#000000" font-family="sans-serif" font-size="11" font-weight="bold" lengthAdjust="spacing" textLength="114.3022" x="317.9092" y="919.6143">[Ada biaya tambahan]</text><path d="M247.6982,931.5469 L320.1328,931.5469 L320.1328,939.8984 L310.1328,949.8984 L247.6982,949.8984 L247.6982,931.5469 " fill="#EEEEEE" style="stroke:#000000;stroke-width:1.5;"/><rect fill="none" height="152.7578" style="stroke:#000000;stroke-width:1.5;" width="730.4502" x="247.6982" y="931.5469"/><text fill="#000000" font-family="sans-serif" font-size="13" font-weight="bold" lengthAdjust="spacing" textLength="27.4346" x="262.6982" y="946.042">loop</text><text fill="#000000" font-family="sans-serif" font-size="11" font-weight="bold" lengthAdjust="spacing" textLength="104.5215" x="335.1328" y="944.9658">[Untuk setiap biaya]</text><polygon fill="#181818" points="736.0332,968.25,746.0332,972.25,736.0332,976.25,740.0332,972.25" style="stroke:#181818;stroke-width:1.0;"/><line style="stroke:#181818;stroke-width:1.0;" x1="312.0981" x2="742.0332" y1="972.25" y2="972.25"/><text fill="#000000" font-family="sans-serif" font-size="13" lengthAdjust="spacing" textLength="236.2979" x="319.0981" y="967.3936">create(product_id, type_cost_id, amount)</text><line style="stroke:#181818;stroke-width:1.0;" x1="758.0332" x2="800.0332" y1="1002.6016" y2="1002.6016"/><line style="stroke:#181818;stroke-width:1.0;" x1="800.0332" x2="800.0332" y1="1002.6016" y2="1015.6016"/><line style="stroke:#181818;stroke-width:1.0;" x1="759.0332" x2="800.0332" y1="1015.6016" y2="1015.6016"/><polygon fill="#181818" points="769.0332,1011.6016,759.0332,1015.6016,769.0332,1019.6016,765.0332,1015.6016" style="stroke:#181818;stroke-width:1.0;"/><text fill="#000000" font-family="sans-serif" font-size="13" lengthAdjust="spacing" textLength="89.5908" x="765.0332" y="997.7451">Generate UUID</text><polygon fill="#181818" points="923.1831,1041.9531,933.1831,1045.9531,923.1831,1049.9531,927.1831,1045.9531" style="stroke:#181818;stroke-width:1.0;"/><line style="stroke:#181818;stroke-width:1.0;" x1="758.0332" x2="929.1831" y1="1045.9531" y2="1045.9531"/><text fill="#000000" font-family="sans-serif" font-size="13" lengthAdjust="spacing" textLength="153.1499" x="765.0332" y="1041.0967">INSERT INTO other_costs</text><polygon fill="#181818" points="764.0332,1072.3047,754.0332,1076.3047,764.0332,1080.3047,760.0332,1076.3047" style="stroke:#181818;stroke-width:1.0;"/><line style="stroke:#181818;stroke-width:1.0;stroke-dasharray:2.0,2.0;" x1="758.0332" x2="934.1831" y1="1076.3047" y2="1076.3047"/><text fill="#000000" font-family="sans-serif" font-size="13" lengthAdjust="spacing" textLength="18.7827" x="770.0332" y="1071.4482">OK</text><line style="stroke:#181818;stroke-width:1.0;" x1="312.0981" x2="354.0981" y1="1133.5078" y2="1133.5078"/><line style="stroke:#181818;stroke-width:1.0;" x1="354.0981" x2="354.0981" y1="1133.5078" y2="1146.5078"/><line style="stroke:#181818;stroke-width:1.0;" x1="313.0981" x2="354.0981" y1="1146.5078" y2="1146.5078"/><polygon fill="#181818" points="323.0981,1142.5078,313.0981,1146.5078,323.0981,1150.5078,319.0981,1146.5078" style="stroke:#181818;stroke-width:1.0;"/><text fill="#000000" font-family="sans-serif" font-size="13" lengthAdjust="spacing" textLength="113.458" x="319.0981" y="1128.6514">Hitung harga modal</text><path d="M454.458,1103.3047 L454.458,1162.3047 L666.458,1162.3047 L666.458,1113.3047 L656.458,1103.3047 L454.458,1103.3047 " fill="#FEFFDD" style="stroke:#181818;stroke-width:0.5;"/><path d="M656.458,1103.3047 L656.458,1113.3047 L666.458,1113.3047 L656.458,1103.3047 " fill="#FEFFDD" style="stroke:#181818;stroke-width:0.5;"/><text fill="#000000" font-family="sans-serif" font-size="13" lengthAdjust="spacing" textLength="85.6299" x="460.458" y="1121.7998">Harga modal =</text><text fill="#000000" font-family="sans-serif" font-size="13" lengthAdjust="spacing" textLength="191.8389" x="460.458" y="1138.1514">SUM(komposisi * harga bahan) +</text><text fill="#000000" font-family="sans-serif" font-size="13" lengthAdjust="spacing" textLength="130.0571" x="460.458" y="1154.5029">SUM(biaya tambahan)</text><polygon fill="#181818" points="84.5894,1185.7109,74.5894,1189.7109,84.5894,1193.7109,80.5894,1189.7109" style="stroke:#181818;stroke-width:1.0;"/><line style="stroke:#181818;stroke-width:1.0;stroke-dasharray:2.0,2.0;" x1="78.5894" x2="301.0981" y1="1189.7109" y2="1189.7109"/><text fill="#000000" font-family="sans-serif" font-size="13" lengthAdjust="spacing" textLength="158.228" x="90.5894" y="1184.8545">Tampilkan notifikasi sukses</text><line style="stroke:#181818;stroke-width:1.0;" x1="312.0981" x2="354.0981" y1="1220.0625" y2="1220.0625"/><line style="stroke:#181818;stroke-width:1.0;" x1="354.0981" x2="354.0981" y1="1220.0625" y2="1233.0625"/><line style="stroke:#181818;stroke-width:1.0;" x1="313.0981" x2="354.0981" y1="1233.0625" y2="1233.0625"/><polygon fill="#181818" points="323.0981,1229.0625,313.0981,1233.0625,323.0981,1237.0625,319.0981,1233.0625" style="stroke:#181818;stroke-width:1.0;"/><text fill="#000000" font-family="sans-serif" font-size="13" lengthAdjust="spacing" textLength="145.9644" x="319.0981" y="1215.2061">Redirect ke daftar produk</text><!--SRC=[ZLNRJjmm47tFLupsQTE2-evK92vjePHIiInFI6WsDbahYHti2HL_tx7Z99iBKlEmcypb-FXuPaoAIWaR-Tf8dKcuL9XRh4xW0QiTxk6FDQ8fG4YTeuORKzN6AQUI13Co5bRdc2jsNEitgTcWLe0E6YTjKgCbbQaQDS4gm6JqvRknrPDU_r9lyg-oCWtXBsnS3EV8MoDasORLhN4nyg8bHiheSLB6Zd767UsblJ2Efe6E4e64EtGILfVnBVZ4Badydk3uD9254pWhd7Imnn8htZwrOWM6XPT6lI79TcD9o1WoxwKM3DNw9gZNJe7d496OeMRy8oWOBMTrZtX5cxEXaiJKqsd-jYuD2iWz7GjhKpiM1Cjqjb0ytQ8xJ-0lr8aspDggV4y9yBFrIPNK8RX0VHAint3kWpcbQ61TCJMh_1gjRuFKi7FTQ4MTxOOjfCYV8GFMnd81iGhWb_k8saxXEqPXFTwmb_ya-LDgvLgOpj9KPOTyiFxaV1wnL09P4gNhXhZGInfiEUPO1hWsYzC2_K2xLYMlptjq_2kjDJQH9HTJdxsJTi__BS01ocbNsuoJMScAhgF1bs6hObzKNHjuOvSsGjWPG-lqIV-GMbgViTrUNqx3nSwNs-_Dj_i7_dkuwtmk1BBtU8HvTpC66EIA3HXv2-YOFolH4XToaNhuAOsfOQk99uoJfB2ULIJ4fnFAz_DC9LwBMo8MOlZmrHTUNkazxK5w8c4gTDO0EK3FPJiC-aYtvsoOGAxFYZf6v2ZYH9IU2rVae8of2Su4JjgWpvyBDnJwN397ovBHUosVlJjyOMKQJUa8uu2bev4de0xeoweT1iwKCtuGX-NTAA4NpT5Oj9bm1vGwyKOYJZhxIb6ZytQ4GcL4xEJ9FF7FrH02Nw4tRxQtww50FqMaS38fV1w5ZSyjxRYr8sT2S6c8S9nwKOMV6gxnTytIXkwbu4kKcw-GV6sy4C_yU0Lv6P83hS9jymy0]--></g></svg>