<svg xmlns="http://www.w3.org/2000/svg" xmlns:xlink="http://www.w3.org/1999/xlink" contentStyleType="text/css" height="1558px" preserveAspectRatio="none" style="width:995px;height:1558px;background:#FFFFFF;" version="1.1" viewBox="0 0 995 1558" width="995px" zoomAndPan="magnify"><title>Sequence Diagram: Penggunaan Poin Pelanggan</title><defs/><g><text fill="#000000" font-family="sans-serif" font-size="14" font-weight="bold" lengthAdjust="spacing" textLength="327.5098" x="330.2122" y="29.5332">Sequence Diagram: Penggunaan Poin Pelanggan</text><rect fill="#FFFFFF" height="1312.7344" style="stroke:#181818;stroke-width:1.0;" width="10" x="258.6616" y="153.5703"/><rect fill="#FFFFFF" height="234.1094" style="stroke:#181818;stroke-width:1.0;" width="10" x="649.7124" y="1071.1172"/><rect fill="none" height="1169.3281" style="stroke:#000000;stroke-width:1.5;" width="968.9341" x="10" y="289.9766"/><rect fill="none" height="818.625" style="stroke:#000000;stroke-width:1.5;" width="948.9341" x="20" y="571.1406"/><line style="stroke:#181818;stroke-width:0.5;stroke-dasharray:5.0,5.0;" x1="48" x2="48" y1="121.2188" y2="1476.3047"/><line style="stroke:#181818;stroke-width:0.5;stroke-dasharray:5.0,5.0;" x1="263.1655" x2="263.1655" y1="121.2188" y2="1476.3047"/><line style="stroke:#181818;stroke-width:0.5;stroke-dasharray:5.0,5.0;" x1="467.6509" x2="467.6509" y1="121.2188" y2="1476.3047"/><line style="stroke:#181818;stroke-width:0.5;stroke-dasharray:5.0,5.0;" x1="558.7954" x2="558.7954" y1="121.2188" y2="1476.3047"/><line style="stroke:#181818;stroke-width:0.5;stroke-dasharray:5.0,5.0;" x1="654.478" x2="654.478" y1="121.2188" y2="1476.3047"/><line style="stroke:#181818;stroke-width:0.5;stroke-dasharray:5.0,5.0;" x1="925.0034" x2="925.0034" y1="121.2188" y2="1476.3047"/><text fill="#000000" font-family="sans-serif" font-size="14" lengthAdjust="spacing" textLength="31.8965" x="30" y="118.1426">Kasir</text><ellipse cx="48.9482" cy="52.1094" fill="#E2E2F0" rx="8" ry="8" style="stroke:#181818;stroke-width:0.5;"/><path d="M48.9482,60.1094 L48.9482,87.1094 M35.9482,68.1094 L61.9482,68.1094 M48.9482,87.1094 L35.9482,102.1094 M48.9482,87.1094 L61.9482,102.1094 " fill="none" style="stroke:#181818;stroke-width:0.5;"/><text fill="#000000" font-family="sans-serif" font-size="14" lengthAdjust="spacing" textLength="31.8965" x="30" y="1489.8379">Kasir</text><ellipse cx="48.9482" cy="1501.4141" fill="#E2E2F0" rx="8" ry="8" style="stroke:#181818;stroke-width:0.5;"/><path d="M48.9482,1509.4141 L48.9482,1536.4141 M35.9482,1517.4141 L61.9482,1517.4141 M48.9482,1536.4141 L35.9482,1551.4141 M48.9482,1536.4141 L61.9482,1551.4141 " fill="none" style="stroke:#181818;stroke-width:0.5;"/><rect fill="#E2E2F0" height="49.2188" rx="2.5" ry="2.5" style="stroke:#181818;stroke-width:0.5;" width="192.9922" x="167.1655" y="71"/><text fill="#000000" font-family="sans-serif" font-size="14" lengthAdjust="spacing" textLength="178.9922" x="174.1655" y="92.5332">Transaction/RincianPesanan</text><text fill="#000000" font-family="sans-serif" font-size="14" lengthAdjust="spacing" textLength="60.6758" x="233.3237" y="110.1426">(Livewire)</text><rect fill="#E2E2F0" height="49.2188" rx="2.5" ry="2.5" style="stroke:#181818;stroke-width:0.5;" width="192.9922" x="167.1655" y="1475.3047"/><text fill="#000000" font-family="sans-serif" font-size="14" lengthAdjust="spacing" textLength="178.9922" x="174.1655" y="1496.8379">Transaction/RincianPesanan</text><text fill="#000000" font-family="sans-serif" font-size="14" lengthAdjust="spacing" textLength="60.6758" x="233.3237" y="1514.4473">(Livewire)</text><rect fill="#E2E2F0" height="49.2188" rx="2.5" ry="2.5" style="stroke:#181818;stroke-width:0.5;" width="87.1445" x="424.6509" y="71"/><text fill="#000000" font-family="sans-serif" font-size="14" lengthAdjust="spacing" textLength="73.1445" x="431.6509" y="92.5332">Transaction</text><text fill="#000000" font-family="sans-serif" font-size="14" lengthAdjust="spacing" textLength="47.4551" x="444.4956" y="110.1426">(Model)</text><rect fill="#E2E2F0" height="49.2188" rx="2.5" ry="2.5" style="stroke:#181818;stroke-width:0.5;" width="87.1445" x="424.6509" y="1475.3047"/><text fill="#000000" font-family="sans-serif" font-size="14" lengthAdjust="spacing" textLength="73.1445" x="431.6509" y="1496.8379">Transaction</text><text fill="#000000" font-family="sans-serif" font-size="14" lengthAdjust="spacing" textLength="47.4551" x="444.4956" y="1514.4473">(Model)</text><rect fill="#E2E2F0" height="49.2188" rx="2.5" ry="2.5" style="stroke:#181818;stroke-width:0.5;" width="74.6826" x="521.7954" y="71"/><text fill="#000000" font-family="sans-serif" font-size="14" lengthAdjust="spacing" textLength="60.6826" x="528.7954" y="92.5332">Customer</text><text fill="#000000" font-family="sans-serif" font-size="14" lengthAdjust="spacing" textLength="47.4551" x="535.4092" y="110.1426">(Model)</text><rect fill="#E2E2F0" height="49.2188" rx="2.5" ry="2.5" style="stroke:#181818;stroke-width:0.5;" width="74.6826" x="521.7954" y="1475.3047"/><text fill="#000000" font-family="sans-serif" font-size="14" lengthAdjust="spacing" textLength="60.6826" x="528.7954" y="1496.8379">Customer</text><text fill="#000000" font-family="sans-serif" font-size="14" lengthAdjust="spacing" textLength="47.4551" x="535.4092" y="1514.4473">(Model)</text><rect fill="#E2E2F0" height="49.2188" rx="2.5" ry="2.5" style="stroke:#181818;stroke-width:0.5;" width="96.4688" x="606.478" y="71"/><text fill="#000000" font-family="sans-serif" font-size="14" lengthAdjust="spacing" textLength="82.4688" x="613.478" y="92.5332">PointsHistory</text><text fill="#000000" font-family="sans-serif" font-size="14" lengthAdjust="spacing" textLength="47.4551" x="630.9849" y="110.1426">(Model)</text><rect fill="#E2E2F0" height="49.2188" rx="2.5" ry="2.5" style="stroke:#181818;stroke-width:0.5;" width="96.4688" x="606.478" y="1475.3047"/><text fill="#000000" font-family="sans-serif" font-size="14" lengthAdjust="spacing" textLength="82.4688" x="613.478" y="1496.8379">PointsHistory</text><text fill="#000000" font-family="sans-serif" font-size="14" lengthAdjust="spacing" textLength="47.4551" x="630.9849" y="1514.4473">(Model)</text><text fill="#000000" font-family="sans-serif" font-size="14" lengthAdjust="spacing" textLength="59.9307" x="893.0034" y="118.1426">Database</text><path d="M907.9688,67.6094 C907.9688,57.6094 925.9688,57.6094 925.9688,57.6094 C925.9688,57.6094 943.9688,57.6094 943.9688,67.6094 L943.9688,93.6094 C943.9688,103.6094 925.9688,103.6094 925.9688,103.6094 C925.9688,103.6094 907.9688,103.6094 907.9688,93.6094 L907.9688,67.6094 " fill="#E2E2F0" style="stroke:#181818;stroke-width:1.5;"/><path d="M907.9688,67.6094 C907.9688,77.6094 925.9688,77.6094 925.9688,77.6094 C925.9688,77.6094 943.9688,77.6094 943.9688,67.6094 " fill="none" style="stroke:#181818;stroke-width:1.5;"/><text fill="#000000" font-family="sans-serif" font-size="14" lengthAdjust="spacing" textLength="59.9307" x="893.0034" y="1489.8379">Database</text><path d="M907.9688,1502.9141 C907.9688,1492.9141 925.9688,1492.9141 925.9688,1492.9141 C925.9688,1492.9141 943.9688,1492.9141 943.9688,1502.9141 L943.9688,1528.9141 C943.9688,1538.9141 925.9688,1538.9141 925.9688,1538.9141 C925.9688,1538.9141 907.9688,1538.9141 907.9688,1528.9141 L907.9688,1502.9141 " fill="#E2E2F0" style="stroke:#181818;stroke-width:1.5;"/><path d="M907.9688,1502.9141 C907.9688,1512.9141 925.9688,1512.9141 925.9688,1512.9141 C925.9688,1512.9141 943.9688,1512.9141 943.9688,1502.9141 " fill="none" style="stroke:#181818;stroke-width:1.5;"/><rect fill="#FFFFFF" height="1312.7344" style="stroke:#181818;stroke-width:1.0;" width="10" x="258.6616" y="153.5703"/><rect fill="#FFFFFF" height="234.1094" style="stroke:#181818;stroke-width:1.0;" width="10" x="649.7124" y="1071.1172"/><polygon fill="#181818" points="246.6616,149.5703,256.6616,153.5703,246.6616,157.5703,250.6616,153.5703" style="stroke:#181818;stroke-width:1.0;"/><line style="stroke:#181818;stroke-width:1.0;" x1="48.9482" x2="252.6616" y1="153.5703" y2="153.5703"/><text fill="#000000" font-family="sans-serif" font-size="13" lengthAdjust="spacing" textLength="166.9116" x="55.9482" y="148.7139">Akses pembayaran transaksi</text><polygon fill="#181818" points="456.2231,179.9219,466.2231,183.9219,456.2231,187.9219,460.2231,183.9219" style="stroke:#181818;stroke-width:1.0;"/><line style="stroke:#181818;stroke-width:1.0;" x1="268.6616" x2="462.2231" y1="183.9219" y2="183.9219"/><text fill="#000000" font-family="sans-serif" font-size="13" lengthAdjust="spacing" textLength="136.8936" x="275.6616" y="179.0654">find(id)-&gt;with(customer)</text><polygon fill="#181818" points="913.9688,210.2734,923.9688,214.2734,913.9688,218.2734,917.9688,214.2734" style="stroke:#181818;stroke-width:1.0;"/><line style="stroke:#181818;stroke-width:1.0;" x1="468.2231" x2="919.9688" y1="214.2734" y2="214.2734"/><text fill="#000000" font-family="sans-serif" font-size="13" lengthAdjust="spacing" textLength="271.6226" x="475.2231" y="209.417">SELECT * FROM transactions JOIN customers</text><polygon fill="#181818" points="479.2231,240.625,469.2231,244.625,479.2231,248.625,475.2231,244.625" style="stroke:#181818;stroke-width:1.0;"/><line style="stroke:#181818;stroke-width:1.0;stroke-dasharray:2.0,2.0;" x1="473.2231" x2="924.9688" y1="244.625" y2="244.625"/><text fill="#000000" font-family="sans-serif" font-size="13" lengthAdjust="spacing" textLength="147.3926" x="485.2231" y="239.7686">transaction with customer</text><polygon fill="#181818" points="279.6616,270.9766,269.6616,274.9766,279.6616,278.9766,275.6616,274.9766" style="stroke:#181818;stroke-width:1.0;"/><line style="stroke:#181818;stroke-width:1.0;stroke-dasharray:2.0,2.0;" x1="273.6616" x2="467.2231" y1="274.9766" y2="274.9766"/><text fill="#000000" font-family="sans-serif" font-size="13" lengthAdjust="spacing" textLength="106.2217" x="285.6616" y="270.1201">Transaction object</text><path d="M10,289.9766 L70.1709,289.9766 L70.1709,298.3281 L60.1709,308.3281 L10,308.3281 L10,289.9766 " fill="#EEEEEE" style="stroke:#000000;stroke-width:1.5;"/><rect fill="none" height="1169.3281" style="stroke:#000000;stroke-width:1.5;" width="968.9341" x="10" y="289.9766"/><text fill="#000000" font-family="sans-serif" font-size="13" font-weight="bold" lengthAdjust="spacing" textLength="15.1709" x="25" y="304.4717">alt</text><text fill="#000000" font-family="sans-serif" font-size="11" font-weight="bold" lengthAdjust="spacing" textLength="86.1685" x="85.1709" y="303.3955">[Ada pelanggan]</text><polygon fill="#181818" points="547.1367,326.6797,557.1367,330.6797,547.1367,334.6797,551.1367,330.6797" style="stroke:#181818;stroke-width:1.0;"/><line style="stroke:#181818;stroke-width:1.0;" x1="268.6616" x2="553.1367" y1="330.6797" y2="330.6797"/><text fill="#000000" font-family="sans-serif" font-size="13" lengthAdjust="spacing" textLength="100.4263" x="275.6616" y="325.8232">find(customer_id)</text><polygon fill="#181818" points="913.9688,357.0313,923.9688,361.0313,913.9688,365.0313,917.9688,361.0313" style="stroke:#181818;stroke-width:1.0;"/><line style="stroke:#181818;stroke-width:1.0;" x1="559.1367" x2="919.9688" y1="361.0313" y2="361.0313"/><text fill="#000000" font-family="sans-serif" font-size="13" lengthAdjust="spacing" textLength="164.6963" x="566.1367" y="356.1748">SELECT * FROM customers</text><polygon fill="#181818" points="570.1367,387.3828,560.1367,391.3828,570.1367,395.3828,566.1367,391.3828" style="stroke:#181818;stroke-width:1.0;"/><line style="stroke:#181818;stroke-width:1.0;stroke-dasharray:2.0,2.0;" x1="564.1367" x2="924.9688" y1="391.3828" y2="391.3828"/><text fill="#000000" font-family="sans-serif" font-size="13" lengthAdjust="spacing" textLength="82.3735" x="576.1367" y="386.5264">customer data</text><polygon fill="#181818" points="279.6616,417.7344,269.6616,421.7344,279.6616,425.7344,275.6616,421.7344" style="stroke:#181818;stroke-width:1.0;"/><line style="stroke:#181818;stroke-width:1.0;stroke-dasharray:2.0,2.0;" x1="273.6616" x2="558.1367" y1="421.7344" y2="421.7344"/><text fill="#000000" font-family="sans-serif" font-size="13" lengthAdjust="spacing" textLength="143.0571" x="285.6616" y="416.8779">Customer (poin tersedia)</text><polygon fill="#181818" points="59.9482,448.0859,49.9482,452.0859,59.9482,456.0859,55.9482,452.0859" style="stroke:#181818;stroke-width:1.0;"/><line style="stroke:#181818;stroke-width:1.0;stroke-dasharray:2.0,2.0;" x1="53.9482" x2="257.6616" y1="452.0859" y2="452.0859"/><text fill="#000000" font-family="sans-serif" font-size="13" lengthAdjust="spacing" textLength="185.7134" x="65.9482" y="447.2295">Tampilkan poin tersedia : X poin</text><polygon fill="#181818" points="246.6616,478.4375,256.6616,482.4375,246.6616,486.4375,250.6616,482.4375" style="stroke:#181818;stroke-width:1.0;"/><line style="stroke:#181818;stroke-width:1.0;" x1="48.9482" x2="252.6616" y1="482.4375" y2="482.4375"/><text fill="#000000" font-family="sans-serif" font-size="13" lengthAdjust="spacing" textLength="102.6289" x="55.9482" y="477.5811">Klik gunakan poin</text><polygon fill="#181818" points="246.6616,508.7891,256.6616,512.7891,246.6616,516.7891,250.6616,512.7891" style="stroke:#181818;stroke-width:1.0;"/><line style="stroke:#181818;stroke-width:1.0;" x1="48.9482" x2="252.6616" y1="512.7891" y2="512.7891"/><text fill="#000000" font-family="sans-serif" font-size="13" lengthAdjust="spacing" textLength="99.0107" x="55.9482" y="507.9326">Input jumlah poin</text><line style="stroke:#181818;stroke-width:1.0;" x1="268.6616" x2="310.6616" y1="543.1406" y2="543.1406"/><line style="stroke:#181818;stroke-width:1.0;" x1="310.6616" x2="310.6616" y1="543.1406" y2="556.1406"/><line style="stroke:#181818;stroke-width:1.0;" x1="269.6616" x2="310.6616" y1="556.1406" y2="556.1406"/><polygon fill="#181818" points="279.6616,552.1406,269.6616,556.1406,279.6616,560.1406,275.6616,556.1406" style="stroke:#181818;stroke-width:1.0;"/><text fill="#000000" font-family="sans-serif" font-size="13" lengthAdjust="spacing" textLength="170.5615" x="275.6616" y="538.2842">Validasi poin &lt;= poin tersedia</text><path d="M20,571.1406 L80.1709,571.1406 L80.1709,579.4922 L70.1709,589.4922 L20,589.4922 L20,571.1406 " fill="#EEEEEE" style="stroke:#000000;stroke-width:1.5;"/><rect fill="none" height="818.625" style="stroke:#000000;stroke-width:1.5;" width="948.9341" x="20" y="571.1406"/><text fill="#000000" font-family="sans-serif" font-size="13" font-weight="bold" lengthAdjust="spacing" textLength="15.1709" x="35" y="585.6357">alt</text><text fill="#000000" font-family="sans-serif" font-size="11" font-weight="bold" lengthAdjust="spacing" textLength="59.2808" x="95.1709" y="584.5596">[Poin valid]</text><line style="stroke:#181818;stroke-width:1.0;" x1="268.6616" x2="310.6616" y1="628.1953" y2="628.1953"/><line style="stroke:#181818;stroke-width:1.0;" x1="310.6616" x2="310.6616" y1="628.1953" y2="641.1953"/><line style="stroke:#181818;stroke-width:1.0;" x1="269.6616" x2="310.6616" y1="641.1953" y2="641.1953"/><polygon fill="#181818" points="279.6616,637.1953,269.6616,641.1953,279.6616,645.1953,275.6616,641.1953" style="stroke:#181818;stroke-width:1.0;"/><text fill="#000000" font-family="sans-serif" font-size="13" lengthAdjust="spacing" textLength="105.5044" x="275.6616" y="606.9873">Hitung nilai diskon</text><text fill="#000000" font-family="sans-serif" font-size="13" lengthAdjust="spacing" textLength="100.8135" x="275.6616" y="623.3389">(1 poin = Rp 100)</text><path d="M273,654.1953 L273,696.1953 L459,696.1953 L459,664.1953 L449,654.1953 L273,654.1953 " fill="#FEFFDD" style="stroke:#181818;stroke-width:0.5;"/><path d="M449,654.1953 L449,664.1953 L459,664.1953 L449,654.1953 " fill="#FEFFDD" style="stroke:#181818;stroke-width:0.5;"/><text fill="#000000" font-family="sans-serif" font-size="13" lengthAdjust="spacing" textLength="45.5317" x="279" y="672.6904">Contoh:</text><text fill="#000000" font-family="sans-serif" font-size="13" lengthAdjust="spacing" textLength="165.877" x="279" y="689.042">100 poin = Rp 10.000 diskon</text><line style="stroke:#181818;stroke-width:1.0;" x1="268.6616" x2="310.6616" y1="740.6016" y2="740.6016"/><line style="stroke:#181818;stroke-width:1.0;" x1="310.6616" x2="310.6616" y1="740.6016" y2="753.6016"/><line style="stroke:#181818;stroke-width:1.0;" x1="269.6616" x2="310.6616" y1="753.6016" y2="753.6016"/><polygon fill="#181818" points="279.6616,749.6016,269.6616,753.6016,279.6616,757.6016,275.6616,753.6016" style="stroke:#181818;stroke-width:1.0;"/><text fill="#000000" font-family="sans-serif" font-size="13" lengthAdjust="spacing" textLength="116.3652" x="275.6616" y="719.3936">Update total tagihan</text><text fill="#000000" font-family="sans-serif" font-size="13" lengthAdjust="spacing" textLength="82.3608" x="275.6616" y="735.7451">(total - diskon)</text><polygon fill="#181818" points="59.9482,779.9531,49.9482,783.9531,59.9482,787.9531,55.9482,783.9531" style="stroke:#181818;stroke-width:1.0;"/><line style="stroke:#181818;stroke-width:1.0;stroke-dasharray:2.0,2.0;" x1="53.9482" x2="257.6616" y1="783.9531" y2="783.9531"/><text fill="#000000" font-family="sans-serif" font-size="13" lengthAdjust="spacing" textLength="184.2725" x="65.9482" y="779.0967">Tampilkan diskon dan total baru</text><rect fill="#EEEEEE" height="3" style="stroke:#EEEEEE;stroke-width:1.0;" width="988.9341" x="0" y="813.1289"/><line style="stroke:#000000;stroke-width:1.0;" x1="0" x2="988.9341" y1="813.1289" y2="813.1289"/><line style="stroke:#000000;stroke-width:1.0;" x1="0" x2="988.9341" y1="816.1289" y2="816.1289"/><rect fill="#EEEEEE" height="24.3516" style="stroke:#000000;stroke-width:2.0;" width="174.4307" x="407.2517" y="801.9531"/><text fill="#000000" font-family="sans-serif" font-size="13" font-weight="bold" lengthAdjust="spacing" textLength="156.8188" x="413.2517" y="819.4482">Saat Pembayaran Selesai</text><polygon fill="#181818" points="246.6616,854.6563,256.6616,858.6563,246.6616,862.6563,250.6616,858.6563" style="stroke:#181818;stroke-width:1.0;"/><line style="stroke:#181818;stroke-width:1.0;" x1="48.9482" x2="252.6616" y1="858.6563" y2="858.6563"/><text fill="#000000" font-family="sans-serif" font-size="13" lengthAdjust="spacing" textLength="137.2871" x="55.9482" y="853.7998">Konfirmasi pembayaran</text><polygon fill="#181818" points="456.2231,885.0078,466.2231,889.0078,456.2231,893.0078,460.2231,889.0078" style="stroke:#181818;stroke-width:1.0;"/><line style="stroke:#181818;stroke-width:1.0;" x1="268.6616" x2="462.2231" y1="889.0078" y2="889.0078"/><text fill="#000000" font-family="sans-serif" font-size="13" lengthAdjust="spacing" textLength="142.0161" x="275.6616" y="884.1514">update(points_used = X)</text><polygon fill="#181818" points="913.9688,915.3594,923.9688,919.3594,913.9688,923.3594,917.9688,919.3594" style="stroke:#181818;stroke-width:1.0;"/><line style="stroke:#181818;stroke-width:1.0;" x1="468.2231" x2="919.9688" y1="919.3594" y2="919.3594"/><text fill="#000000" font-family="sans-serif" font-size="13" lengthAdjust="spacing" textLength="229.0488" x="475.2231" y="914.5029">UPDATE transactions SET points_used</text><polygon fill="#181818" points="479.2231,945.7109,469.2231,949.7109,479.2231,953.7109,475.2231,949.7109" style="stroke:#181818;stroke-width:1.0;"/><line style="stroke:#181818;stroke-width:1.0;stroke-dasharray:2.0,2.0;" x1="473.2231" x2="924.9688" y1="949.7109" y2="949.7109"/><text fill="#000000" font-family="sans-serif" font-size="13" lengthAdjust="spacing" textLength="18.7827" x="485.2231" y="944.8545">OK</text><polygon fill="#181818" points="547.1367,976.0625,557.1367,980.0625,547.1367,984.0625,551.1367,980.0625" style="stroke:#181818;stroke-width:1.0;"/><line style="stroke:#181818;stroke-width:1.0;" x1="268.6616" x2="553.1367" y1="980.0625" y2="980.0625"/><text fill="#000000" font-family="sans-serif" font-size="13" lengthAdjust="spacing" textLength="120.6626" x="275.6616" y="975.2061">decrement(points, X)</text><polygon fill="#181818" points="913.9688,1006.4141,923.9688,1010.4141,913.9688,1014.4141,917.9688,1010.4141" style="stroke:#181818;stroke-width:1.0;"/><line style="stroke:#181818;stroke-width:1.0;" x1="559.1367" x2="919.9688" y1="1010.4141" y2="1010.4141"/><text fill="#000000" font-family="sans-serif" font-size="13" lengthAdjust="spacing" textLength="253.2271" x="566.1367" y="1005.5576">UPDATE customers SET points = points - X</text><polygon fill="#181818" points="570.1367,1036.7656,560.1367,1040.7656,570.1367,1044.7656,566.1367,1040.7656" style="stroke:#181818;stroke-width:1.0;"/><line style="stroke:#181818;stroke-width:1.0;stroke-dasharray:2.0,2.0;" x1="564.1367" x2="924.9688" y1="1040.7656" y2="1040.7656"/><text fill="#000000" font-family="sans-serif" font-size="13" lengthAdjust="spacing" textLength="18.7827" x="576.1367" y="1035.9092">OK</text><polygon fill="#181818" points="637.7124,1067.1172,647.7124,1071.1172,637.7124,1075.1172,641.7124,1071.1172" style="stroke:#181818;stroke-width:1.0;"/><line style="stroke:#181818;stroke-width:1.0;" x1="268.6616" x2="643.7124" y1="1071.1172" y2="1071.1172"/><text fill="#000000" font-family="sans-serif" font-size="13" lengthAdjust="spacing" textLength="117.0889" x="275.6616" y="1066.2607">create(penggunaan)</text><line style="stroke:#181818;stroke-width:1.0;" x1="659.7124" x2="701.7124" y1="1101.4688" y2="1101.4688"/><line style="stroke:#181818;stroke-width:1.0;" x1="701.7124" x2="701.7124" y1="1101.4688" y2="1114.4688"/><line style="stroke:#181818;stroke-width:1.0;" x1="660.7124" x2="701.7124" y1="1114.4688" y2="1114.4688"/><polygon fill="#181818" points="670.7124,1110.4688,660.7124,1114.4688,670.7124,1118.4688,666.7124,1114.4688" style="stroke:#181818;stroke-width:1.0;"/><text fill="#000000" font-family="sans-serif" font-size="13" lengthAdjust="spacing" textLength="144.187" x="666.7124" y="1096.6123">phone = customer.phone</text><line style="stroke:#181818;stroke-width:1.0;" x1="659.7124" x2="701.7124" y1="1144.8203" y2="1144.8203"/><line style="stroke:#181818;stroke-width:1.0;" x1="701.7124" x2="701.7124" y1="1144.8203" y2="1157.8203"/><line style="stroke:#181818;stroke-width:1.0;" x1="660.7124" x2="701.7124" y1="1157.8203" y2="1157.8203"/><polygon fill="#181818" points="670.7124,1153.8203,660.7124,1157.8203,670.7124,1161.8203,666.7124,1157.8203" style="stroke:#181818;stroke-width:1.0;"/><text fill="#000000" font-family="sans-serif" font-size="13" lengthAdjust="spacing" textLength="138.3853" x="666.7124" y="1139.9639">transaction_id = trans.id</text><line style="stroke:#181818;stroke-width:1.0;" x1="659.7124" x2="701.7124" y1="1188.1719" y2="1188.1719"/><line style="stroke:#181818;stroke-width:1.0;" x1="701.7124" x2="701.7124" y1="1188.1719" y2="1201.1719"/><line style="stroke:#181818;stroke-width:1.0;" x1="660.7124" x2="701.7124" y1="1201.1719" y2="1201.1719"/><polygon fill="#181818" points="670.7124,1197.1719,660.7124,1201.1719,670.7124,1205.1719,666.7124,1201.1719" style="stroke:#181818;stroke-width:1.0;"/><text fill="#000000" font-family="sans-serif" font-size="13" lengthAdjust="spacing" textLength="112.3853" x="666.7124" y="1183.3154">points_change = -X</text><line style="stroke:#181818;stroke-width:1.0;" x1="659.7124" x2="701.7124" y1="1231.5234" y2="1231.5234"/><line style="stroke:#181818;stroke-width:1.0;" x1="701.7124" x2="701.7124" y1="1231.5234" y2="1244.5234"/><line style="stroke:#181818;stroke-width:1.0;" x1="660.7124" x2="701.7124" y1="1244.5234" y2="1244.5234"/><polygon fill="#181818" points="670.7124,1240.5234,660.7124,1244.5234,670.7124,1248.5234,666.7124,1244.5234" style="stroke:#181818;stroke-width:1.0;"/><text fill="#000000" font-family="sans-serif" font-size="13" lengthAdjust="spacing" textLength="237.2563" x="666.7124" y="1226.667">description = "Penggunaan untuk diskon"</text><polygon fill="#181818" points="913.9688,1270.875,923.9688,1274.875,913.9688,1278.875,917.9688,1274.875" style="stroke:#181818;stroke-width:1.0;"/><line style="stroke:#181818;stroke-width:1.0;" x1="659.7124" x2="919.9688" y1="1274.875" y2="1274.875"/><text fill="#000000" font-family="sans-serif" font-size="13" lengthAdjust="spacing" textLength="176.2744" x="666.7124" y="1270.0186">INSERT INTO points_histories</text><polygon fill="#181818" points="665.7124,1301.2266,655.7124,1305.2266,665.7124,1309.2266,661.7124,1305.2266" style="stroke:#181818;stroke-width:1.0;"/><line style="stroke:#181818;stroke-width:1.0;stroke-dasharray:2.0,2.0;" x1="659.7124" x2="924.9688" y1="1305.2266" y2="1305.2266"/><text fill="#000000" font-family="sans-serif" font-size="13" lengthAdjust="spacing" textLength="18.7827" x="671.7124" y="1300.3701">OK</text><polygon fill="#181818" points="59.9482,1331.5781,49.9482,1335.5781,59.9482,1339.5781,55.9482,1335.5781" style="stroke:#181818;stroke-width:1.0;"/><line style="stroke:#181818;stroke-width:1.0;stroke-dasharray:2.0,2.0;" x1="53.9482" x2="257.6616" y1="1335.5781" y2="1335.5781"/><text fill="#000000" font-family="sans-serif" font-size="13" lengthAdjust="spacing" textLength="138.7661" x="65.9482" y="1330.7217">Poin berhasil digunakan</text><line style="stroke:#000000;stroke-width:1.0;stroke-dasharray:2.0,2.0;" x1="20" x2="968.9341" y1="1344.5781" y2="1344.5781"/><text fill="#000000" font-family="sans-serif" font-size="11" font-weight="bold" lengthAdjust="spacing" textLength="110.623" x="25" y="1355.9971">[Poin melebihi saldo]</text><polygon fill="#181818" points="59.9482,1377.7656,49.9482,1381.7656,59.9482,1385.7656,55.9482,1381.7656" style="stroke:#181818;stroke-width:1.0;"/><line style="stroke:#181818;stroke-width:1.0;stroke-dasharray:2.0,2.0;" x1="53.9482" x2="257.6616" y1="1381.7656" y2="1381.7656"/><text fill="#000000" font-family="sans-serif" font-size="13" lengthAdjust="spacing" textLength="159.6816" x="65.9482" y="1376.9092">Error: Poin tidak mencukupi</text><line style="stroke:#000000;stroke-width:1.0;stroke-dasharray:2.0,2.0;" x1="10" x2="978.9341" y1="1397.7656" y2="1397.7656"/><text fill="#000000" font-family="sans-serif" font-size="11" font-weight="bold" lengthAdjust="spacing" textLength="116.1284" x="15" y="1409.1846">[Tidak ada pelanggan]</text><polygon fill="#181818" points="59.9482,1447.3047,49.9482,1451.3047,59.9482,1455.3047,55.9482,1451.3047" style="stroke:#181818;stroke-width:1.0;"/><line style="stroke:#181818;stroke-width:1.0;stroke-dasharray:2.0,2.0;" x1="53.9482" x2="257.6616" y1="1451.3047" y2="1451.3047"/><text fill="#000000" font-family="sans-serif" font-size="13" lengthAdjust="spacing" textLength="135.1226" x="65.9482" y="1430.0967">Fitur poin tidak tersedia</text><text fill="#000000" font-family="sans-serif" font-size="13" lengthAdjust="spacing" textLength="161.1606" x="65.9482" y="1446.4482">(transaksi tanpa pelanggan)</text><!--SRC=[XLNBRjim4BphAnO-sKMT9jUW3X0a3fBcOSDs2XyA12kHjZQIA9Ma4kJlkwBUVjK7MwPcXhExtAKb6qjOoh-vL864MyAjnkGIvb9jjxb2L31FYRzaZBo2olCmiAc6mICQqWD00xcHsijGMmeeGsLXiDAe3ECeLJyMf092DPS65Qe_QlX47_AJj1mvyYRLoL4oevzJ8UCIQeiNVUnDRcoQIDq71jLg7rl4OSqzyJlzrIU4vQ8dqAAFHiBWjdfohuNlUKMGCBvoVk4IhYCZ3MGoyV4BsLTf3YD3HNxe0wqiG_CSWOaEmCmDAJ4aCHfVVP8DXxNNaLS262byXYsdJzER5No3kyNikL9tEJ7mQ_RmqiHeF8QFE_eTA1GxjDceDcY3w6GQKlzT1fQh6rku5iYXrGK7_jH1r5fr7FN_Dmx80Hl0uJXQrmMuSjuHRHwBIkm8jhxhgiCmAywcPJqf24i77R_CS6NZI379A8wuJZq6lrcx5S-nTchy65C4HHFKl4EW1vNb5jxp9CQm1VMILY5_Oqo2cwQqy7FIjzBIYWgudlie26xfWDezsLnjGL6C189CvBhbeXITm2A3Y_FpKSDk7bJA9rFJDhIGRieZ2ftFJQfi6bxsrbYe9tjspWlbbWrEAk6azpVSyVsQYQ8tR6en1ejR2jrGAF-FAzdHCPb35IqfV69KfUgZplS59XDO8d9gsvvTofYd4l6hVVZkMKZLXdJYojS870-sRiRSHUkEgJLlh2auYUisl7xFlyvlhrVJVhClfoleq1lcJjVF7e-RwVINa86MYLIsilIzQsQlToi_JTDspC2aVXZ3UjTKPyDJlggfMxIzbYvDpQNJccgcQJsZz-HgcPvY5gPAiidQofbRECtfv9td6PFTmbcd1mzlLLOdu8EyBROShq_ZXJI1finDtGbVI-rDcokRHzLv7fmCr9NduMKvNQpuPpMhJPGGacQt9EtsXoeYvF_JlDk0RaJvKeVS4p6RhWPbdoXZlamTCk5UyoaaC1YBzAZgLEjKL-AMnsN4H1NaKPwHLysPSb8wvPL3u97hgbMzus6fgtdhAFNKBIPFVN7pD59PHsda5PjvdTouQVaF]--></g></svg>