<svg xmlns="http://www.w3.org/2000/svg" xmlns:xlink="http://www.w3.org/1999/xlink" contentStyleType="text/css" height="1614px" preserveAspectRatio="none" style="width:1447px;height:1614px;background:#FFFFFF;" version="1.1" viewBox="0 0 1447 1614" width="1447px" zoomAndPan="magnify"><title>Sequence Diagram: Proses Belanja dari Supplier</title><defs/><g><text fill="#000000" font-family="sans-serif" font-size="14" font-weight="bold" lengthAdjust="spacing" textLength="324.4473" x="557.6147" y="29.5332">Sequence Diagram: Proses Belanja dari Supplier</text><rect fill="#FFFFFF" height="455.2734" style="stroke:#181818;stroke-width:1.0;" width="10" x="273.98" y="197.9219"/><rect fill="#FFFFFF" height="786.7891" style="stroke:#181818;stroke-width:1.0;" width="10" x="389.4106" y="727.8984"/><rect fill="#FFFFFF" height="167.1094" style="stroke:#181818;stroke-width:1.0;" width="10" x="595.7261" y="332.3281"/><rect fill="#FFFFFF" height="60.7031" style="stroke:#181818;stroke-width:1.0;" width="10" x="918.7285" y="555.1406"/><rect fill="#FFFFFF" height="104.0547" style="stroke:#181818;stroke-width:1.0;" width="10" x="1030.6626" y="1056.7656"/><rect fill="#FFFFFF" height="195.1094" style="stroke:#181818;stroke-width:1.0;" width="10" x="1177.4434" y="1191.1719"/><rect fill="none" height="109.4063" style="stroke:#000000;stroke-width:1.5;" width="1214.2139" x="216.4629" y="514.4375"/><rect fill="none" height="408.5703" style="stroke:#000000;stroke-width:1.5;" width="1420.6768" x="10" y="985.7109"/><line style="stroke:#181818;stroke-width:0.5;stroke-dasharray:5.0,5.0;" x1="73" x2="73" y1="121.2188" y2="1532.6875"/><line style="stroke:#181818;stroke-width:0.5;stroke-dasharray:5.0,5.0;" x1="278.4629" x2="278.4629" y1="121.2188" y2="1532.6875"/><line style="stroke:#181818;stroke-width:0.5;stroke-dasharray:5.0,5.0;" x1="393.4971" x2="393.4971" y1="121.2188" y2="1532.6875"/><line style="stroke:#181818;stroke-width:0.5;stroke-dasharray:5.0,5.0;" x1="600.4849" x2="600.4849" y1="121.2188" y2="1532.6875"/><line style="stroke:#181818;stroke-width:0.5;stroke-dasharray:5.0,5.0;" x1="923.5908" x2="923.5908" y1="121.2188" y2="1532.6875"/><line style="stroke:#181818;stroke-width:0.5;stroke-dasharray:5.0,5.0;" x1="1034.8662" x2="1034.8662" y1="121.2188" y2="1532.6875"/><line style="stroke:#181818;stroke-width:0.5;stroke-dasharray:5.0,5.0;" x1="1181.5469" x2="1181.5469" y1="121.2188" y2="1532.6875"/><line style="stroke:#181818;stroke-width:0.5;stroke-dasharray:5.0,5.0;" x1="1386.7461" x2="1386.7461" y1="121.2188" y2="1532.6875"/><text fill="#000000" font-family="sans-serif" font-size="14" lengthAdjust="spacing" textLength="101.1787" x="20" y="118.1426">Bagian Inventori</text><ellipse cx="73.5894" cy="52.1094" fill="#E2E2F0" rx="8" ry="8" style="stroke:#181818;stroke-width:0.5;"/><path d="M73.5894,60.1094 L73.5894,87.1094 M60.5894,68.1094 L86.5894,68.1094 M73.5894,87.1094 L60.5894,102.1094 M73.5894,87.1094 L86.5894,102.1094 " fill="none" style="stroke:#181818;stroke-width:0.5;"/><text fill="#000000" font-family="sans-serif" font-size="14" lengthAdjust="spacing" textLength="101.1787" x="20" y="1546.2207">Bagian Inventori</text><ellipse cx="73.5894" cy="1557.7969" fill="#E2E2F0" rx="8" ry="8" style="stroke:#181818;stroke-width:0.5;"/><path d="M73.5894,1565.7969 L73.5894,1592.7969 M60.5894,1573.7969 L86.5894,1573.7969 M73.5894,1592.7969 L60.5894,1607.7969 M73.5894,1592.7969 L86.5894,1607.7969 " fill="none" style="stroke:#181818;stroke-width:0.5;"/><rect fill="#E2E2F0" height="49.2188" rx="2.5" ry="2.5" style="stroke:#181818;stroke-width:0.5;" width="105.0342" x="226.4629" y="71"/><text fill="#000000" font-family="sans-serif" font-size="14" lengthAdjust="spacing" textLength="91.0342" x="233.4629" y="92.5332">Expense/Form</text><text fill="#000000" font-family="sans-serif" font-size="14" lengthAdjust="spacing" textLength="60.6758" x="248.6421" y="110.1426">(Livewire)</text><rect fill="#E2E2F0" height="49.2188" rx="2.5" ry="2.5" style="stroke:#181818;stroke-width:0.5;" width="105.0342" x="226.4629" y="1531.6875"/><text fill="#000000" font-family="sans-serif" font-size="14" lengthAdjust="spacing" textLength="91.0342" x="233.4629" y="1553.2207">Expense/Form</text><text fill="#000000" font-family="sans-serif" font-size="14" lengthAdjust="spacing" textLength="60.6758" x="248.6421" y="1570.8301">(Livewire)</text><rect fill="#E2E2F0" height="49.2188" rx="2.5" ry="2.5" style="stroke:#181818;stroke-width:0.5;" width="105.8271" x="341.4971" y="71"/><text fill="#000000" font-family="sans-serif" font-size="14" lengthAdjust="spacing" textLength="91.8271" x="348.4971" y="92.5332">Expense/Mulai</text><text fill="#000000" font-family="sans-serif" font-size="14" lengthAdjust="spacing" textLength="60.6758" x="364.0728" y="110.1426">(Livewire)</text><rect fill="#E2E2F0" height="49.2188" rx="2.5" ry="2.5" style="stroke:#181818;stroke-width:0.5;" width="105.8271" x="341.4971" y="1531.6875"/><text fill="#000000" font-family="sans-serif" font-size="14" lengthAdjust="spacing" textLength="91.8271" x="348.4971" y="1553.2207">Expense/Mulai</text><text fill="#000000" font-family="sans-serif" font-size="14" lengthAdjust="spacing" textLength="60.6758" x="364.0728" y="1570.8301">(Livewire)</text><rect fill="#E2E2F0" height="49.2188" rx="2.5" ry="2.5" style="stroke:#181818;stroke-width:0.5;" width="68.4824" x="566.4849" y="71"/><text fill="#000000" font-family="sans-serif" font-size="14" lengthAdjust="spacing" textLength="54.4824" x="573.4849" y="92.5332">Expense</text><text fill="#000000" font-family="sans-serif" font-size="14" lengthAdjust="spacing" textLength="47.4551" x="576.9985" y="110.1426">(Model)</text><rect fill="#E2E2F0" height="49.2188" rx="2.5" ry="2.5" style="stroke:#181818;stroke-width:0.5;" width="68.4824" x="566.4849" y="1531.6875"/><text fill="#000000" font-family="sans-serif" font-size="14" lengthAdjust="spacing" textLength="54.4824" x="573.4849" y="1553.2207">Expense</text><text fill="#000000" font-family="sans-serif" font-size="14" lengthAdjust="spacing" textLength="47.4551" x="576.9985" y="1570.8301">(Model)</text><rect fill="#E2E2F0" height="49.2188" rx="2.5" ry="2.5" style="stroke:#181818;stroke-width:0.5;" width="104.2754" x="871.5908" y="71"/><text fill="#000000" font-family="sans-serif" font-size="14" lengthAdjust="spacing" textLength="90.2754" x="878.5908" y="92.5332">ExpenseDetail</text><text fill="#000000" font-family="sans-serif" font-size="14" lengthAdjust="spacing" textLength="47.4551" x="900.001" y="110.1426">(Model)</text><rect fill="#E2E2F0" height="49.2188" rx="2.5" ry="2.5" style="stroke:#181818;stroke-width:0.5;" width="104.2754" x="871.5908" y="1531.6875"/><text fill="#000000" font-family="sans-serif" font-size="14" lengthAdjust="spacing" textLength="90.2754" x="878.5908" y="1553.2207">ExpenseDetail</text><text fill="#000000" font-family="sans-serif" font-size="14" lengthAdjust="spacing" textLength="47.4551" x="900.001" y="1570.8301">(Model)</text><rect fill="#E2E2F0" height="49.2188" rx="2.5" ry="2.5" style="stroke:#181818;stroke-width:0.5;" width="99.5928" x="985.8662" y="71"/><text fill="#000000" font-family="sans-serif" font-size="14" lengthAdjust="spacing" textLength="85.5928" x="992.8662" y="92.5332">MaterialBatch</text><text fill="#000000" font-family="sans-serif" font-size="14" lengthAdjust="spacing" textLength="47.4551" x="1011.9351" y="110.1426">(Model)</text><rect fill="#E2E2F0" height="49.2188" rx="2.5" ry="2.5" style="stroke:#181818;stroke-width:0.5;" width="99.5928" x="985.8662" y="1531.6875"/><text fill="#000000" font-family="sans-serif" font-size="14" lengthAdjust="spacing" textLength="85.5928" x="992.8662" y="1553.2207">MaterialBatch</text><text fill="#000000" font-family="sans-serif" font-size="14" lengthAdjust="spacing" textLength="47.4551" x="1011.9351" y="1570.8301">(Model)</text><rect fill="#E2E2F0" height="49.2188" rx="2.5" ry="2.5" style="stroke:#181818;stroke-width:0.5;" width="63.793" x="1150.5469" y="71"/><text fill="#000000" font-family="sans-serif" font-size="14" lengthAdjust="spacing" textLength="49.793" x="1157.5469" y="92.5332">Material</text><text fill="#000000" font-family="sans-serif" font-size="14" lengthAdjust="spacing" textLength="47.4551" x="1158.7158" y="110.1426">(Model)</text><rect fill="#E2E2F0" height="49.2188" rx="2.5" ry="2.5" style="stroke:#181818;stroke-width:0.5;" width="63.793" x="1150.5469" y="1531.6875"/><text fill="#000000" font-family="sans-serif" font-size="14" lengthAdjust="spacing" textLength="49.793" x="1157.5469" y="1553.2207">Material</text><text fill="#000000" font-family="sans-serif" font-size="14" lengthAdjust="spacing" textLength="47.4551" x="1158.7158" y="1570.8301">(Model)</text><text fill="#000000" font-family="sans-serif" font-size="14" lengthAdjust="spacing" textLength="59.9307" x="1354.7461" y="118.1426">Database</text><path d="M1369.7114,67.6094 C1369.7114,57.6094 1387.7114,57.6094 1387.7114,57.6094 C1387.7114,57.6094 1405.7114,57.6094 1405.7114,67.6094 L1405.7114,93.6094 C1405.7114,103.6094 1387.7114,103.6094 1387.7114,103.6094 C1387.7114,103.6094 1369.7114,103.6094 1369.7114,93.6094 L1369.7114,67.6094 " fill="#E2E2F0" style="stroke:#181818;stroke-width:1.5;"/><path d="M1369.7114,67.6094 C1369.7114,77.6094 1387.7114,77.6094 1387.7114,77.6094 C1387.7114,77.6094 1405.7114,77.6094 1405.7114,67.6094 " fill="none" style="stroke:#181818;stroke-width:1.5;"/><text fill="#000000" font-family="sans-serif" font-size="14" lengthAdjust="spacing" textLength="59.9307" x="1354.7461" y="1546.2207">Database</text><path d="M1369.7114,1559.2969 C1369.7114,1549.2969 1387.7114,1549.2969 1387.7114,1549.2969 C1387.7114,1549.2969 1405.7114,1549.2969 1405.7114,1559.2969 L1405.7114,1585.2969 C1405.7114,1595.2969 1387.7114,1595.2969 1387.7114,1595.2969 C1387.7114,1595.2969 1369.7114,1595.2969 1369.7114,1585.2969 L1369.7114,1559.2969 " fill="#E2E2F0" style="stroke:#181818;stroke-width:1.5;"/><path d="M1369.7114,1559.2969 C1369.7114,1569.2969 1387.7114,1569.2969 1387.7114,1569.2969 C1387.7114,1569.2969 1405.7114,1569.2969 1405.7114,1559.2969 " fill="none" style="stroke:#181818;stroke-width:1.5;"/><rect fill="#FFFFFF" height="455.2734" style="stroke:#181818;stroke-width:1.0;" width="10" x="273.98" y="197.9219"/><rect fill="#FFFFFF" height="786.7891" style="stroke:#181818;stroke-width:1.0;" width="10" x="389.4106" y="727.8984"/><rect fill="#FFFFFF" height="167.1094" style="stroke:#181818;stroke-width:1.0;" width="10" x="595.7261" y="332.3281"/><rect fill="#FFFFFF" height="60.7031" style="stroke:#181818;stroke-width:1.0;" width="10" x="918.7285" y="555.1406"/><rect fill="#FFFFFF" height="104.0547" style="stroke:#181818;stroke-width:1.0;" width="10" x="1030.6626" y="1056.7656"/><rect fill="#FFFFFF" height="195.1094" style="stroke:#181818;stroke-width:1.0;" width="10" x="1177.4434" y="1191.1719"/><rect fill="#EEEEEE" height="3" style="stroke:#EEEEEE;stroke-width:1.0;" width="1440.6768" x="0" y="152.3945"/><line style="stroke:#000000;stroke-width:1.0;" x1="0" x2="1440.6768" y1="152.3945" y2="152.3945"/><line style="stroke:#000000;stroke-width:1.0;" x1="0" x2="1440.6768" y1="155.3945" y2="155.3945"/><rect fill="#EEEEEE" height="24.3516" style="stroke:#000000;stroke-width:2.0;" width="154.1563" x="643.2603" y="141.2188"/><text fill="#000000" font-family="sans-serif" font-size="13" font-weight="bold" lengthAdjust="spacing" textLength="136.5444" x="649.2603" y="158.7139">Buat Rencana Belanja</text><polygon fill="#181818" points="261.98,193.9219,271.98,197.9219,261.98,201.9219,265.98,197.9219" style="stroke:#181818;stroke-width:1.0;"/><line style="stroke:#181818;stroke-width:1.0;" x1="73.5894" x2="267.98" y1="197.9219" y2="197.9219"/><text fill="#000000" font-family="sans-serif" font-size="13" lengthAdjust="spacing" textLength="181.3906" x="80.5894" y="193.0654">Akses halaman tambah belanja</text><line style="stroke:#181818;stroke-width:1.0;" x1="283.98" x2="325.98" y1="228.2734" y2="228.2734"/><line style="stroke:#181818;stroke-width:1.0;" x1="325.98" x2="325.98" y1="228.2734" y2="241.2734"/><line style="stroke:#181818;stroke-width:1.0;" x1="284.98" x2="325.98" y1="241.2734" y2="241.2734"/><polygon fill="#181818" points="294.98,237.2734,284.98,241.2734,294.98,245.2734,290.98,241.2734" style="stroke:#181818;stroke-width:1.0;"/><text fill="#000000" font-family="sans-serif" font-size="13" lengthAdjust="spacing" textLength="72.249" x="290.98" y="223.417">Render form</text><polygon fill="#181818" points="261.98,267.625,271.98,271.625,261.98,275.625,265.98,271.625" style="stroke:#181818;stroke-width:1.0;"/><line style="stroke:#181818;stroke-width:1.0;" x1="73.5894" x2="267.98" y1="271.625" y2="271.625"/><text fill="#000000" font-family="sans-serif" font-size="13" lengthAdjust="spacing" textLength="73.7026" x="80.5894" y="266.7686">Pilih supplier</text><polygon fill="#181818" points="261.98,297.9766,271.98,301.9766,261.98,305.9766,265.98,301.9766" style="stroke:#181818;stroke-width:1.0;"/><line style="stroke:#181818;stroke-width:1.0;" x1="73.5894" x2="267.98" y1="301.9766" y2="301.9766"/><text fill="#000000" font-family="sans-serif" font-size="13" lengthAdjust="spacing" textLength="169.7935" x="80.5894" y="297.1201">Tambah item bahan (n items)</text><polygon fill="#181818" points="583.7261,328.3281,593.7261,332.3281,583.7261,336.3281,587.7261,332.3281" style="stroke:#181818;stroke-width:1.0;"/><line style="stroke:#181818;stroke-width:1.0;" x1="283.98" x2="589.7261" y1="332.3281" y2="332.3281"/><text fill="#000000" font-family="sans-serif" font-size="13" lengthAdjust="spacing" textLength="70.0908" x="290.98" y="327.4717">create(data)</text><line style="stroke:#181818;stroke-width:1.0;" x1="605.7261" x2="647.7261" y1="395.3828" y2="395.3828"/><line style="stroke:#181818;stroke-width:1.0;" x1="647.7261" x2="647.7261" y1="395.3828" y2="408.3828"/><line style="stroke:#181818;stroke-width:1.0;" x1="606.7261" x2="647.7261" y1="408.3828" y2="408.3828"/><polygon fill="#181818" points="616.7261,404.3828,606.7261,408.3828,616.7261,412.3828,612.7261,408.3828" style="stroke:#181818;stroke-width:1.0;"/><text fill="#000000" font-family="sans-serif" font-size="13" lengthAdjust="spacing" textLength="33.96" x="612.7261" y="357.8232">boot()</text><text fill="#000000" font-family="sans-serif" font-size="13" lengthAdjust="spacing" textLength="89.5908" x="612.7261" y="374.1748">Generate UUID</text><text fill="#000000" font-family="sans-serif" font-size="13" lengthAdjust="spacing" textLength="289.0024" x="612.7261" y="390.5264">Generate expense_number (BP-YYMMDD-XXXX)</text><polygon fill="#181818" points="1375.7114,434.7344,1385.7114,438.7344,1375.7114,442.7344,1379.7114,438.7344" style="stroke:#181818;stroke-width:1.0;"/><line style="stroke:#181818;stroke-width:1.0;" x1="605.7261" x2="1381.7114" y1="438.7344" y2="438.7344"/><text fill="#000000" font-family="sans-serif" font-size="13" lengthAdjust="spacing" textLength="141.5972" x="612.7261" y="433.8779">INSERT INTO expenses</text><polygon fill="#181818" points="616.7261,465.0859,606.7261,469.0859,616.7261,473.0859,612.7261,469.0859" style="stroke:#181818;stroke-width:1.0;"/><line style="stroke:#181818;stroke-width:1.0;stroke-dasharray:2.0,2.0;" x1="610.7261" x2="1386.7114" y1="469.0859" y2="469.0859"/><text fill="#000000" font-family="sans-serif" font-size="13" lengthAdjust="spacing" textLength="18.7827" x="622.7261" y="464.2295">OK</text><polygon fill="#181818" points="294.98,495.4375,284.98,499.4375,294.98,503.4375,290.98,499.4375" style="stroke:#181818;stroke-width:1.0;"/><line style="stroke:#181818;stroke-width:1.0;stroke-dasharray:2.0,2.0;" x1="288.98" x2="599.7261" y1="499.4375" y2="499.4375"/><text fill="#000000" font-family="sans-serif" font-size="13" lengthAdjust="spacing" textLength="97.5635" x="300.98" y="494.5811">Expense created</text><path d="M216.4629,514.4375 L288.8975,514.4375 L288.8975,522.7891 L278.8975,532.7891 L216.4629,532.7891 L216.4629,514.4375 " fill="#EEEEEE" style="stroke:#000000;stroke-width:1.5;"/><rect fill="none" height="109.4063" style="stroke:#000000;stroke-width:1.5;" width="1214.2139" x="216.4629" y="514.4375"/><text fill="#000000" font-family="sans-serif" font-size="13" font-weight="bold" lengthAdjust="spacing" textLength="27.4346" x="231.4629" y="528.9326">loop</text><text fill="#000000" font-family="sans-serif" font-size="11" font-weight="bold" lengthAdjust="spacing" textLength="99.0107" x="303.8975" y="527.8564">[Untuk setiap item]</text><polygon fill="#181818" points="906.7285,551.1406,916.7285,555.1406,906.7285,559.1406,910.7285,555.1406" style="stroke:#181818;stroke-width:1.0;"/><line style="stroke:#181818;stroke-width:1.0;" x1="283.98" x2="912.7285" y1="555.1406" y2="555.1406"/><text fill="#000000" font-family="sans-serif" font-size="13" lengthAdjust="spacing" textLength="206.6606" x="290.98" y="550.2842">create(expense_id, material_id, qty)</text><polygon fill="#181818" points="1375.7114,581.4922,1385.7114,585.4922,1375.7114,589.4922,1379.7114,585.4922" style="stroke:#181818;stroke-width:1.0;"/><line style="stroke:#181818;stroke-width:1.0;" x1="928.7285" x2="1381.7114" y1="585.4922" y2="585.4922"/><text fill="#000000" font-family="sans-serif" font-size="13" lengthAdjust="spacing" textLength="179.9053" x="935.7285" y="580.6357">INSERT INTO expense_details</text><polygon fill="#181818" points="934.7285,611.8438,924.7285,615.8438,934.7285,619.8438,930.7285,615.8438" style="stroke:#181818;stroke-width:1.0;"/><line style="stroke:#181818;stroke-width:1.0;stroke-dasharray:2.0,2.0;" x1="928.7285" x2="1386.7114" y1="615.8438" y2="615.8438"/><text fill="#000000" font-family="sans-serif" font-size="13" lengthAdjust="spacing" textLength="18.7827" x="940.7285" y="610.9873">OK</text><polygon fill="#181818" points="84.5894,649.1953,74.5894,653.1953,84.5894,657.1953,80.5894,653.1953" style="stroke:#181818;stroke-width:1.0;"/><line style="stroke:#181818;stroke-width:1.0;stroke-dasharray:2.0,2.0;" x1="78.5894" x2="277.98" y1="653.1953" y2="653.1953"/><text fill="#000000" font-family="sans-serif" font-size="13" lengthAdjust="spacing" textLength="158.2661" x="90.5894" y="648.3389">Rencana belanja tersimpan</text><rect fill="#EEEEEE" height="3" style="stroke:#EEEEEE;stroke-width:1.0;" width="1440.6768" x="0" y="682.3711"/><line style="stroke:#000000;stroke-width:1.0;" x1="0" x2="1440.6768" y1="682.3711" y2="682.3711"/><line style="stroke:#000000;stroke-width:1.0;" x1="0" x2="1440.6768" y1="685.3711" y2="685.3711"/><rect fill="#EEEEEE" height="24.3516" style="stroke:#000000;stroke-width:2.0;" width="100.6899" x="669.9934" y="671.1953"/><text fill="#000000" font-family="sans-serif" font-size="13" font-weight="bold" lengthAdjust="spacing" textLength="83.0781" x="675.9934" y="688.6904">Mulai Belanja</text><polygon fill="#181818" points="377.4106,723.8984,387.4106,727.8984,377.4106,731.8984,381.4106,727.8984" style="stroke:#181818;stroke-width:1.0;"/><line style="stroke:#181818;stroke-width:1.0;" x1="73.5894" x2="383.4106" y1="727.8984" y2="727.8984"/><text fill="#000000" font-family="sans-serif" font-size="13" lengthAdjust="spacing" textLength="169.0952" x="80.5894" y="723.042">Akses halaman mulai belanja</text><polygon fill="#181818" points="588.7261,754.25,598.7261,758.25,588.7261,762.25,592.7261,758.25" style="stroke:#181818;stroke-width:1.0;"/><line style="stroke:#181818;stroke-width:1.0;" x1="399.4106" x2="594.7261" y1="758.25" y2="758.25"/><text fill="#000000" font-family="sans-serif" font-size="13" lengthAdjust="spacing" textLength="39.7363" x="406.4106" y="753.3936">find(id)</text><polygon fill="#181818" points="1375.7114,784.6016,1385.7114,788.6016,1375.7114,792.6016,1379.7114,788.6016" style="stroke:#181818;stroke-width:1.0;"/><line style="stroke:#181818;stroke-width:1.0;" x1="600.7261" x2="1381.7114" y1="788.6016" y2="788.6016"/><text fill="#000000" font-family="sans-serif" font-size="13" lengthAdjust="spacing" textLength="160.3862" x="607.7261" y="783.7451">SELECT * FROM expenses</text><polygon fill="#181818" points="611.7261,814.9531,601.7261,818.9531,611.7261,822.9531,607.7261,818.9531" style="stroke:#181818;stroke-width:1.0;"/><line style="stroke:#181818;stroke-width:1.0;stroke-dasharray:2.0,2.0;" x1="605.7261" x2="1386.7114" y1="818.9531" y2="818.9531"/><text fill="#000000" font-family="sans-serif" font-size="13" lengthAdjust="spacing" textLength="78.0635" x="617.7261" y="814.0967">expense data</text><polygon fill="#181818" points="410.4106,845.3047,400.4106,849.3047,410.4106,853.3047,406.4106,849.3047" style="stroke:#181818;stroke-width:1.0;"/><line style="stroke:#181818;stroke-width:1.0;stroke-dasharray:2.0,2.0;" x1="404.4106" x2="599.7261" y1="849.3047" y2="849.3047"/><text fill="#000000" font-family="sans-serif" font-size="13" lengthAdjust="spacing" textLength="88.8926" x="416.4106" y="844.4482">Expense object</text><polygon fill="#181818" points="911.7285,875.6563,921.7285,879.6563,911.7285,883.6563,915.7285,879.6563" style="stroke:#181818;stroke-width:1.0;"/><line style="stroke:#181818;stroke-width:1.0;" x1="399.4106" x2="917.7285" y1="879.6563" y2="879.6563"/><text fill="#000000" font-family="sans-serif" font-size="13" lengthAdjust="spacing" textLength="110.5635" x="406.4106" y="874.7998">where(expense_id)</text><polygon fill="#181818" points="1375.7114,906.0078,1385.7114,910.0078,1375.7114,914.0078,1379.7114,910.0078" style="stroke:#181818;stroke-width:1.0;"/><line style="stroke:#181818;stroke-width:1.0;" x1="923.7285" x2="1381.7114" y1="910.0078" y2="910.0078"/><text fill="#000000" font-family="sans-serif" font-size="13" lengthAdjust="spacing" textLength="198.6943" x="930.7285" y="905.1514">SELECT * FROM expense_details</text><polygon fill="#181818" points="934.7285,936.3594,924.7285,940.3594,934.7285,944.3594,930.7285,940.3594" style="stroke:#181818;stroke-width:1.0;"/><line style="stroke:#181818;stroke-width:1.0;stroke-dasharray:2.0,2.0;" x1="928.7285" x2="1386.7114" y1="940.3594" y2="940.3594"/><text fill="#000000" font-family="sans-serif" font-size="13" lengthAdjust="spacing" textLength="37.5781" x="940.7285" y="935.5029">details</text><polygon fill="#181818" points="84.5894,966.7109,74.5894,970.7109,84.5894,974.7109,80.5894,970.7109" style="stroke:#181818;stroke-width:1.0;"/><line style="stroke:#181818;stroke-width:1.0;stroke-dasharray:2.0,2.0;" x1="78.5894" x2="388.4106" y1="970.7109" y2="970.7109"/><text fill="#000000" font-family="sans-serif" font-size="13" lengthAdjust="spacing" textLength="124.9917" x="90.5894" y="965.8545">Tampilkan daftar item</text><path d="M10,985.7109 L82.4346,985.7109 L82.4346,994.0625 L72.4346,1004.0625 L10,1004.0625 L10,985.7109 " fill="#EEEEEE" style="stroke:#000000;stroke-width:1.5;"/><rect fill="none" height="408.5703" style="stroke:#000000;stroke-width:1.5;" width="1420.6768" x="10" y="985.7109"/><text fill="#000000" font-family="sans-serif" font-size="13" font-weight="bold" lengthAdjust="spacing" textLength="27.4346" x="25" y="1000.2061">loop</text><text fill="#000000" font-family="sans-serif" font-size="11" font-weight="bold" lengthAdjust="spacing" textLength="99.0107" x="97.4346" y="999.1299">[Untuk setiap item]</text><polygon fill="#181818" points="377.4106,1022.4141,387.4106,1026.4141,377.4106,1030.4141,381.4106,1026.4141" style="stroke:#181818;stroke-width:1.0;"/><line style="stroke:#181818;stroke-width:1.0;" x1="73.5894" x2="383.4106" y1="1026.4141" y2="1026.4141"/><text fill="#000000" font-family="sans-serif" font-size="13" lengthAdjust="spacing" textLength="203.0869" x="80.5894" y="1021.5576">Input harga, qty aktual, tanggal exp</text><polygon fill="#181818" points="1018.6626,1052.7656,1028.6626,1056.7656,1018.6626,1060.7656,1022.6626,1056.7656" style="stroke:#181818;stroke-width:1.0;"/><line style="stroke:#181818;stroke-width:1.0;" x1="399.4106" x2="1024.6626" y1="1056.7656" y2="1056.7656"/><text fill="#000000" font-family="sans-serif" font-size="13" lengthAdjust="spacing" textLength="210.9961" x="406.4106" y="1051.9092">create(material_id, unit_id, qty, date)</text><line style="stroke:#181818;stroke-width:1.0;" x1="1040.6626" x2="1082.6626" y1="1087.1172" y2="1087.1172"/><line style="stroke:#181818;stroke-width:1.0;" x1="1082.6626" x2="1082.6626" y1="1087.1172" y2="1100.1172"/><line style="stroke:#181818;stroke-width:1.0;" x1="1041.6626" x2="1082.6626" y1="1100.1172" y2="1100.1172"/><polygon fill="#181818" points="1051.6626,1096.1172,1041.6626,1100.1172,1051.6626,1104.1172,1047.6626,1100.1172" style="stroke:#181818;stroke-width:1.0;"/><text fill="#000000" font-family="sans-serif" font-size="13" lengthAdjust="spacing" textLength="89.5908" x="1047.6626" y="1082.2607">Generate UUID</text><polygon fill="#181818" points="1375.7114,1126.4688,1385.7114,1130.4688,1375.7114,1134.4688,1379.7114,1130.4688" style="stroke:#181818;stroke-width:1.0;"/><line style="stroke:#181818;stroke-width:1.0;" x1="1040.6626" x2="1381.7114" y1="1130.4688" y2="1130.4688"/><text fill="#000000" font-family="sans-serif" font-size="13" lengthAdjust="spacing" textLength="184.9453" x="1047.6626" y="1125.6123">INSERT INTO material_batches</text><polygon fill="#181818" points="1046.6626,1156.8203,1036.6626,1160.8203,1046.6626,1164.8203,1042.6626,1160.8203" style="stroke:#181818;stroke-width:1.0;"/><line style="stroke:#181818;stroke-width:1.0;stroke-dasharray:2.0,2.0;" x1="1040.6626" x2="1386.7114" y1="1160.8203" y2="1160.8203"/><text fill="#000000" font-family="sans-serif" font-size="13" lengthAdjust="spacing" textLength="18.7827" x="1052.6626" y="1155.9639">OK</text><polygon fill="#181818" points="1165.4434,1187.1719,1175.4434,1191.1719,1165.4434,1195.1719,1169.4434,1191.1719" style="stroke:#181818;stroke-width:1.0;"/><line style="stroke:#181818;stroke-width:1.0;" x1="399.4106" x2="1171.4434" y1="1191.1719" y2="1191.1719"/><text fill="#000000" font-family="sans-serif" font-size="13" lengthAdjust="spacing" textLength="108.3799" x="406.4106" y="1186.3154">recalculateStatus()</text><polygon fill="#181818" points="1046.6626,1217.5234,1036.6626,1221.5234,1046.6626,1225.5234,1042.6626,1221.5234" style="stroke:#181818;stroke-width:1.0;"/><line style="stroke:#181818;stroke-width:1.0;" x1="1040.6626" x2="1176.4434" y1="1221.5234" y2="1221.5234"/><text fill="#000000" font-family="sans-serif" font-size="13" lengthAdjust="spacing" textLength="117.7808" x="1052.6626" y="1216.667">sum(batch_quantity)</text><polygon fill="#181818" points="1375.7114,1247.875,1385.7114,1251.875,1375.7114,1255.875,1379.7114,1251.875" style="stroke:#181818;stroke-width:1.0;"/><line style="stroke:#181818;stroke-width:1.0;" x1="1035.6626" x2="1381.7114" y1="1251.875" y2="1251.875"/><text fill="#000000" font-family="sans-serif" font-size="13" lengthAdjust="spacing" textLength="176.2935" x="1042.6626" y="1247.0186">SELECT SUM(batch_quantity)</text><polygon fill="#181818" points="1046.6626,1278.2266,1036.6626,1282.2266,1046.6626,1286.2266,1042.6626,1282.2266" style="stroke:#181818;stroke-width:1.0;"/><line style="stroke:#181818;stroke-width:1.0;stroke-dasharray:2.0,2.0;" x1="1040.6626" x2="1386.7114" y1="1282.2266" y2="1282.2266"/><text fill="#000000" font-family="sans-serif" font-size="13" lengthAdjust="spacing" textLength="24.5718" x="1052.6626" y="1277.3701">total</text><line style="stroke:#181818;stroke-width:1.0;" x1="1187.4434" x2="1229.4434" y1="1312.5781" y2="1312.5781"/><line style="stroke:#181818;stroke-width:1.0;" x1="1229.4434" x2="1229.4434" y1="1312.5781" y2="1325.5781"/><line style="stroke:#181818;stroke-width:1.0;" x1="1188.4434" x2="1229.4434" y1="1325.5781" y2="1325.5781"/><polygon fill="#181818" points="1198.4434,1321.5781,1188.4434,1325.5781,1198.4434,1329.5781,1194.4434,1325.5781" style="stroke:#181818;stroke-width:1.0;"/><text fill="#000000" font-family="sans-serif" font-size="13" lengthAdjust="spacing" textLength="122.1289" x="1194.4434" y="1307.7217">Tentukan status baru</text><polygon fill="#181818" points="1375.7114,1351.9297,1385.7114,1355.9297,1375.7114,1359.9297,1379.7114,1355.9297" style="stroke:#181818;stroke-width:1.0;"/><line style="stroke:#181818;stroke-width:1.0;" x1="1187.4434" x2="1381.7114" y1="1355.9297" y2="1355.9297"/><text fill="#000000" font-family="sans-serif" font-size="13" lengthAdjust="spacing" textLength="176.2681" x="1194.4434" y="1351.0732">UPDATE materials SET status</text><polygon fill="#181818" points="1193.4434,1382.2813,1183.4434,1386.2813,1193.4434,1390.2813,1189.4434,1386.2813" style="stroke:#181818;stroke-width:1.0;"/><line style="stroke:#181818;stroke-width:1.0;stroke-dasharray:2.0,2.0;" x1="1187.4434" x2="1386.7114" y1="1386.2813" y2="1386.2813"/><text fill="#000000" font-family="sans-serif" font-size="13" lengthAdjust="spacing" textLength="18.7827" x="1199.4434" y="1381.4248">OK</text><polygon fill="#181818" points="588.7261,1419.6328,598.7261,1423.6328,588.7261,1427.6328,592.7261,1423.6328" style="stroke:#181818;stroke-width:1.0;"/><line style="stroke:#181818;stroke-width:1.0;" x1="399.4106" x2="594.7261" y1="1423.6328" y2="1423.6328"/><text fill="#000000" font-family="sans-serif" font-size="13" lengthAdjust="spacing" textLength="177.3154" x="406.4106" y="1418.7764">update(status = 'Selesai', total)</text><polygon fill="#181818" points="1375.7114,1449.9844,1385.7114,1453.9844,1375.7114,1457.9844,1379.7114,1453.9844" style="stroke:#181818;stroke-width:1.0;"/><line style="stroke:#181818;stroke-width:1.0;" x1="600.7261" x2="1381.7114" y1="1453.9844" y2="1453.9844"/><text fill="#000000" font-family="sans-serif" font-size="13" lengthAdjust="spacing" textLength="111.9917" x="607.7261" y="1449.1279">UPDATE expenses</text><polygon fill="#181818" points="611.7261,1480.3359,601.7261,1484.3359,611.7261,1488.3359,607.7261,1484.3359" style="stroke:#181818;stroke-width:1.0;"/><line style="stroke:#181818;stroke-width:1.0;stroke-dasharray:2.0,2.0;" x1="605.7261" x2="1386.7114" y1="1484.3359" y2="1484.3359"/><text fill="#000000" font-family="sans-serif" font-size="13" lengthAdjust="spacing" textLength="18.7827" x="617.7261" y="1479.4795">OK</text><polygon fill="#181818" points="84.5894,1510.6875,74.5894,1514.6875,84.5894,1518.6875,80.5894,1514.6875" style="stroke:#181818;stroke-width:1.0;"/><line style="stroke:#181818;stroke-width:1.0;stroke-dasharray:2.0,2.0;" x1="78.5894" x2="393.4106" y1="1514.6875" y2="1514.6875"/><text fill="#000000" font-family="sans-serif" font-size="13" lengthAdjust="spacing" textLength="87.4453" x="90.5894" y="1509.8311">Belanja selesai</text><!--SRC=[VLJRRjf047ttLwnuYQb0VOz4fL98XHeQ541gf4ZHs9x0XlNQsLqdxTztlElrNV2GsECpjpDdnd0ZaEtnlK0P8rjnE2b8RzbEPHerMw80-GOi0SNPliXpmL450SGcKsooX1C7oJRo0oKP-8I1PeKcH0xAy9Zd80sRhF_cA3L-lSjK-Yp3U_w1drpXrC9VoJWEtnO2-02l3M577GYwpH8K3eVEE8fSeG4kklZ4shhmBHXK7CGIJ7pkmgFID8xk0jFA6YHW80ADRBAgdbpUA0WM2xOimB17cW58g5bVB8AWf9FDlrcUs2txVYd7SWO1AJ5l88tWp2A7ByV2FoYV8pMmBeqhHKyebllM2xlZWf-PzWFkVJsuDDnWIesVAN4exPkUDbagmWaUAwGYmhBXQLEJ7qZWWHsVACjCE7sMFr6YAk77usRLUgsGBx988wejNExcJq_RxMer_qE_QJje4b6ypU_z-l50_muFtbS7z6NUoVhmgt5isgrKKlMH1462mov4bkNiA4rnOHeDXzmI4Z3wUKQSf1f2V0yycTMoi2_lvj_KUjPfAZMMjYhAbSPU74GxkEknpaqjkYZzsAG6Fpp2sudVrWgi5CMeICrJqdUR0wSW4gtTq56rsYqTo3Mr-85QtKe7pgSpdrSkav0dm_7kr_Vh7mVsXTqzFcol3DW_bLhiZDeNw6UTHMyOjuke2VmyeshFRXhq9Z9QIpsJ_ZoylKhKK4zBbdDn8PeIUAMFJa_NTDOdUoFpmX3PwWHMKmmkfW0nepCXJoSGPMtMqVwfExMdh55fHvc5vCPBT5QoY3sXkZjOcboOLhpEAdSX0oNNIIq4ErBsyOPARf9tE_BHo4bX328ctHdS6p253diDrFUvjDQEhRIwI4Fx_F9Uq9tdVbUxpLGYs1-te-1UAoOp8nbRPH-md3XfGTkYoL4L0xnDVDojlX_MjLrJ9OVAgvsv5Nl8Oys1lGaZUrZavUZ3gfW5kzcZG0tyPkPQ6IveLTRLqplS0NzAj0lVkRpkIlm7]--></g></svg>