<svg xmlns="http://www.w3.org/2000/svg" xmlns:xlink="http://www.w3.org/1999/xlink" contentStyleType="text/css" height="2661px" preserveAspectRatio="none" style="width:1411px;height:2661px;background:#FFFFFF;" version="1.1" viewBox="0 0 1411 2661" width="1411px" zoomAndPan="magnify"><defs/><g><!--cluster Sistem Informasi Manajemen Toko Kue--><g id="cluster_Sistem Informasi Manajemen Toko Kue"><rect fill="none" height="1869" rx="2.5" ry="2.5" style="stroke:#181818;stroke-width:1.0;" width="1285" x="120" y="786.77"/><text fill="#000000" font-family="sans-serif" font-size="14" font-weight="bold" lengthAdjust="spacing" textLength="260.6201" x="632.1899" y="803.3032">Sistem Informasi Manajemen Toko Kue</text></g><!--cluster Modul Kasir--><g id="cluster_Modul Kasir"><rect fill="none" height="323" rx="2.5" ry="2.5" style="stroke:#181818;stroke-width:1.0;" width="567.5" x="160.5" y="1804.77"/><text fill="#000000" font-family="sans-serif" font-size="14" font-weight="bold" lengthAdjust="spacing" textLength="80.1172" x="404.1914" y="1821.3032">Modul Kasir</text></g><!--cluster Modul Produksi--><g id="cluster_Modul Produksi"><rect fill="none" height="480" rx="2.5" ry="2.5" style="stroke:#181818;stroke-width:1.0;" width="230" x="499" y="2151.77"/><text fill="#000000" font-family="sans-serif" font-size="14" font-weight="bold" lengthAdjust="spacing" textLength="105" x="561.5" y="2168.3032">Modul Produksi</text></g><!--cluster Modul Inventori--><g id="cluster_Modul Inventori"><rect fill="none" height="632" rx="2.5" ry="2.5" style="stroke:#181818;stroke-width:1.0;" width="563" x="818" y="830.77"/><text fill="#000000" font-family="sans-serif" font-size="14" font-weight="bold" lengthAdjust="spacing" textLength="104.2139" x="1047.3931" y="847.3032">Modul Inventori</text></g><!--cluster Modul Manajemen--><g id="cluster_Modul Manajemen"><rect fill="none" height="414" rx="2.5" ry="2.5" style="stroke:#181818;stroke-width:1.0;" width="266" x="144" y="1366.77"/><text fill="#000000" font-family="sans-serif" font-size="14" font-weight="bold" lengthAdjust="spacing" textLength="121.3447" x="216.3276" y="1383.3032">Modul Manajemen</text></g><!--cluster Modul Notifikasi--><g id="cluster_Modul Notifikasi"><rect fill="none" height="248" rx="2.5" ry="2.5" style="stroke:#181818;stroke-width:1.0;" width="249" x="152.5" y="1094.77"/><text fill="#000000" font-family="sans-serif" font-size="14" font-weight="bold" lengthAdjust="spacing" textLength="108.1104" x="222.9448" y="1111.3032">Modul Notifikasi</text></g><!--cluster Modul Landing Page--><g id="cluster_Modul Landing Page"><rect fill="none" height="240" rx="2.5" ry="2.5" style="stroke:#181818;stroke-width:1.0;" width="229" x="162.5" y="830.77"/><text fill="#000000" font-family="sans-serif" font-size="14" font-weight="bold" lengthAdjust="spacing" textLength="136.8828" x="208.5586" y="847.3032">Modul Landing Page</text></g><g id="elem_UC_ORDER"><ellipse cx="276.9049" cy="2015.951" fill="#F1F1F1" rx="83.9049" ry="19.181" style="stroke:#181818;stroke-width:0.5;"/><text fill="#000000" font-family="sans-serif" font-size="14" lengthAdjust="spacing" textLength="123.7578" x="215.026" y="2019.6795">Mengelola Pesanan</text></g><g id="elem_UC_PAYMENT"><ellipse cx="614.014" cy="1998.7728" fill="#F1F1F1" rx="98.014" ry="22.0028" style="stroke:#181818;stroke-width:0.5;"/><text fill="#000000" font-family="sans-serif" font-size="14" lengthAdjust="spacing" textLength="156.3994" x="535.8143" y="2002.5013">Memproses Pembayaran</text></g><g id="elem_UC_RECEIPT"><ellipse cx="613.9718" cy="2079.8644" fill="#F1F1F1" rx="73.4718" ry="17.0944" style="stroke:#181818;stroke-width:0.5;"/><text fill="#000000" font-family="sans-serif" font-size="14" lengthAdjust="spacing" textLength="97.2617" x="562.341" y="2084.381">Mencetak Struk</text></g><g id="elem_UC_CANCEL_ORDER"><ellipse cx="277.2175" cy="2090.6135" fill="#F1F1F1" rx="92.2175" ry="20.8435" style="stroke:#181818;stroke-width:0.5;"/><text fill="#000000" font-family="sans-serif" font-size="14" lengthAdjust="spacing" textLength="143.1992" x="205.6179" y="2094.342">Membatalkan Pesanan</text></g><g id="elem_UC_SHIFT"><ellipse cx="276.9545" cy="1938.7609" fill="#F1F1F1" rx="100.4545" ry="22.4909" style="stroke:#181818;stroke-width:0.5;"/><text fill="#000000" font-family="sans-serif" font-size="14" lengthAdjust="spacing" textLength="161.8887" x="196.0102" y="1942.4894">Mengelola Sesi Penjualan</text></g><g id="elem_UC_REPORT_CASHIER"><ellipse cx="277.1847" cy="1861.0069" fill="#F1F1F1" rx="89.1847" ry="20.2369" style="stroke:#181818;stroke-width:0.5;"/><text fill="#000000" font-family="sans-serif" font-size="14" lengthAdjust="spacing" textLength="136.1855" x="209.0919" y="1864.7355">Melihat Laporan Kasir</text></g><g id="elem_UC_PLAN_PROD"><ellipse cx="614.1175" cy="2593.7935" fill="#F1F1F1" rx="95.6175" ry="21.5235" style="stroke:#181818;stroke-width:0.5;"/><text fill="#000000" font-family="sans-serif" font-size="14" lengthAdjust="spacing" textLength="150.9717" x="538.6317" y="2597.522">Merencanakan Produksi</text></g><g id="elem_UC_START_PROD"><ellipse cx="613.7855" cy="2441.9271" fill="#F1F1F1" rx="78.7855" ry="18.1571" style="stroke:#181818;stroke-width:0.5;"/><text fill="#000000" font-family="sans-serif" font-size="14" lengthAdjust="spacing" textLength="111.2617" x="556.6157" y="2446.0865">Memulai Produksi</text></g><g id="elem_UC_FINISH_PROD"><ellipse cx="613.9575" cy="2366.8615" fill="#F1F1F1" rx="95.9575" ry="21.5915" style="stroke:#181818;stroke-width:0.5;"/><text fill="#000000" font-family="sans-serif" font-size="14" lengthAdjust="spacing" textLength="151.7441" x="538.0854" y="2370.59">Menyelesaikan Produksi</text></g><g id="elem_UC_CANCEL_PROD"><ellipse cx="613.8699" cy="2515.544" fill="#F1F1F1" rx="91.8699" ry="20.774" style="stroke:#181818;stroke-width:0.5;"/><text fill="#000000" font-family="sans-serif" font-size="14" lengthAdjust="spacing" textLength="142.3994" x="542.6702" y="2519.2725">Membatalkan Produksi</text></g><g id="elem_UC_QUEUE_PROD"><ellipse cx="613.9545" cy="2288.8609" fill="#F1F1F1" rx="95.9545" ry="21.5909" style="stroke:#181818;stroke-width:0.5;"/><text fill="#000000" font-family="sans-serif" font-size="14" lengthAdjust="spacing" textLength="151.7373" x="538.0858" y="2292.5894">Melihat Antrian Produksi</text></g><g id="elem_UC_REPORT_PROD"><ellipse cx="614.0605" cy="2209.9821" fill="#F1F1F1" rx="99.0605" ry="22.2121" style="stroke:#181818;stroke-width:0.5;"/><text fill="#000000" font-family="sans-serif" font-size="14" lengthAdjust="spacing" textLength="158.7578" x="534.6816" y="2213.7106">Melihat Laporan Produksi</text></g><g id="elem_UC_PRODUCT"><ellipse cx="949.4166" cy="1350.5533" fill="#F1F1F1" rx="79.4166" ry="18.2833" style="stroke:#181818;stroke-width:0.5;"/><text fill="#000000" font-family="sans-serif" font-size="14" lengthAdjust="spacing" textLength="112.8477" x="891.7436" y="1354.6361">Mengelola Produk</text></g><g id="elem_UC_MATERIAL"><ellipse cx="949.4021" cy="1425.7504" fill="#F1F1F1" rx="92.9021" ry="20.9804" style="stroke:#181818;stroke-width:0.5;"/><text fill="#000000" font-family="sans-serif" font-size="14" lengthAdjust="spacing" textLength="144.7715" x="877.0164" y="1429.4789">Mengelola Bahan Baku</text></g><g id="elem_UC_EXPENSE"><ellipse cx="949.3606" cy="885.7421" fill="#F1F1F1" rx="80.3606" ry="18.4721" style="stroke:#181818;stroke-width:0.5;"/><text fill="#000000" font-family="sans-serif" font-size="14" lengthAdjust="spacing" textLength="115.1924" x="890.935" y="889.7103">Mengelola Belanja</text></g><g id="elem_UC_PLAN_EXP"><ellipse cx="1272.7205" cy="1035.6141" fill="#F1F1F1" rx="92.2205" ry="20.8441" style="stroke:#181818;stroke-width:0.5;"/><text fill="#000000" font-family="sans-serif" font-size="14" lengthAdjust="spacing" textLength="143.2061" x="1201.1174" y="1039.3426">Merencanakan Belanja</text></g><g id="elem_UC_START_EXP"><ellipse cx="1272.2865" cy="961.8273" fill="#F1F1F1" rx="75.7865" ry="17.5573" style="stroke:#181818;stroke-width:0.5;"/><text fill="#000000" font-family="sans-serif" font-size="14" lengthAdjust="spacing" textLength="103.4961" x="1217.5385" y="966.3439">Memulai Belanja</text></g><g id="elem_UC_FINISH_EXP"><ellipse cx="1272.5566" cy="887.6813" fill="#F1F1F1" rx="92.5566" ry="20.9113" style="stroke:#181818;stroke-width:0.5;"/><text fill="#000000" font-family="sans-serif" font-size="14" lengthAdjust="spacing" textLength="143.9785" x="1200.5674" y="891.4098">Menyelesaikan Belanja</text></g><g id="elem_UC_STOCK_COUNT"><ellipse cx="949.7027" cy="959.9105" fill="#F1F1F1" rx="91.2027" ry="20.6405" style="stroke:#181818;stroke-width:0.5;"/><text fill="#000000" font-family="sans-serif" font-size="14" lengthAdjust="spacing" textLength="140.8613" x="879.272" y="963.639">Mengelola Stok Hitung</text></g><g id="elem_UC_INVENTORY_FLOW"><ellipse cx="949.5908" cy="1036.5882" fill="#F1F1F1" rx="94.5908" ry="21.3182" style="stroke:#181818;stroke-width:0.5;"/><text fill="#000000" font-family="sans-serif" font-size="14" lengthAdjust="spacing" textLength="148.6338" x="875.2739" y="1040.3167">Melihat Alur Persediaan</text></g><g id="elem_UC_REPORT_INV"><ellipse cx="949.7174" cy="1201.9135" fill="#F1F1F1" rx="98.7174" ry="22.1435" style="stroke:#181818;stroke-width:0.5;"/><text fill="#000000" font-family="sans-serif" font-size="14" lengthAdjust="spacing" textLength="157.9854" x="870.7247" y="1205.642">Melihat Laporan Inventori</text></g><g id="elem_UC_CAT_INV"><ellipse cx="949.6349" cy="1118.797" fill="#F1F1F1" rx="115.6349" ry="25.527" style="stroke:#181818;stroke-width:0.5;"/><text fill="#000000" font-family="sans-serif" font-size="14" lengthAdjust="spacing" textLength="195.3506" x="851.9596" y="1122.5255">Mengelola Kategori Persediaan</text></g><g id="elem_UC_SUPPLIER"><ellipse cx="949.2746" cy="1277.6249" fill="#F1F1F1" rx="82.2746" ry="18.8549" style="stroke:#181818;stroke-width:0.5;"/><text fill="#000000" font-family="sans-serif" font-size="14" lengthAdjust="spacing" textLength="119.8545" x="889.3231" y="1281.3607">Mengelola Supplier</text></g><g id="elem_UC_WORKER"><ellipse cx="277.1716" cy="1745.8043" fill="#F1F1F1" rx="80.6716" ry="18.5343" style="stroke:#181818;stroke-width:0.5;"/><text fill="#000000" font-family="sans-serif" font-size="14" lengthAdjust="spacing" textLength="115.958" x="218.498" y="1749.7347">Mengelola Pekerja</text></g><g id="elem_UC_ROLE"><ellipse cx="277.1201" cy="1427.794" fill="#F1F1F1" rx="113.1201" ry="25.024" style="stroke:#181818;stroke-width:0.5;"/><text fill="#000000" font-family="sans-serif" font-size="14" lengthAdjust="spacing" textLength="189.875" x="182.1826" y="1431.5225">Mengelola Peran &amp; Hak Akses</text></g><g id="elem_UC_CUSTOMER"><ellipse cx="276.8646" cy="1507.9429" fill="#F1F1F1" rx="88.8646" ry="20.1729" style="stroke:#181818;stroke-width:0.5;"/><text fill="#000000" font-family="sans-serif" font-size="14" lengthAdjust="spacing" textLength="135.4404" x="209.1444" y="1511.6714">Mengelola Pelanggan</text></g><g id="elem_UC_STORE_PROFILE"><ellipse cx="276.8902" cy="1583.748" fill="#F1F1F1" rx="92.8902" ry="20.978" style="stroke:#181818;stroke-width:0.5;"/><text fill="#000000" font-family="sans-serif" font-size="14" lengthAdjust="spacing" textLength="144.7441" x="204.5181" y="1587.4766">Mengelola Profil Usaha</text></g><g id="elem_UC_PAYMENT_METHOD"><ellipse cx="277.0649" cy="1665.583" fill="#F1F1F1" rx="117.0649" ry="25.813" style="stroke:#181818;stroke-width:0.5;"/><text fill="#000000" font-family="sans-serif" font-size="14" lengthAdjust="spacing" textLength="198.4541" x="177.8378" y="1669.3115">Mengelola Metode Pembayaran</text></g><g id="elem_UC_NOTIF"><ellipse cx="277.165" cy="1309.003" fill="#F1F1F1" rx="76.665" ry="17.733" style="stroke:#181818;stroke-width:0.5;"/><text fill="#000000" font-family="sans-serif" font-size="14" lengthAdjust="spacing" textLength="105.8135" x="221.6861" y="1313.4198">Melihat Notifikasi</text></g><g id="elem_UC_LOW_STOCK"><ellipse cx="276.9996" cy="1154.8699" fill="#F1F1F1" rx="108.4996" ry="24.0999" style="stroke:#181818;stroke-width:0.5;"/><text fill="#000000" font-family="sans-serif" font-size="14" lengthAdjust="spacing" textLength="179.751" x="187.1241" y="1158.5984">Menerima Alert Stok Rendah</text></g><g id="elem_UC_EXPIRED"><ellipse cx="277.0585" cy="1234.8817" fill="#F1F1F1" rx="93.5585" ry="21.1117" style="stroke:#181818;stroke-width:0.5;"/><text fill="#000000" font-family="sans-serif" font-size="14" lengthAdjust="spacing" textLength="146.2754" x="203.9208" y="1238.6102">Menerima Alert Expired</text></g><g id="elem_UC_CATALOG"><ellipse cx="276.8932" cy="887.7486" fill="#F1F1F1" rx="92.8932" ry="20.9786" style="stroke:#181818;stroke-width:0.5;"/><text fill="#000000" font-family="sans-serif" font-size="14" lengthAdjust="spacing" textLength="144.751" x="204.5177" y="891.4771">Melihat Katalog Produk</text></g><g id="elem_UC_HOW_ORDER"><ellipse cx="277.2113" cy="965.9123" fill="#F1F1F1" rx="98.7113" ry="22.1423" style="stroke:#181818;stroke-width:0.5;"/><text fill="#000000" font-family="sans-serif" font-size="14" lengthAdjust="spacing" textLength="157.9717" x="198.2255" y="969.6408">Melihat Cara Pemesanan</text></g><g id="elem_UC_FAQ"><ellipse cx="277.1878" cy="1039.0076" fill="#F1F1F1" rx="66.6878" ry="15.7376" style="stroke:#181818;stroke-width:0.5;"/><text fill="#000000" font-family="sans-serif" font-size="14" lengthAdjust="spacing" textLength="77.7998" x="235.2879" y="1043.5242">Melihat FAQ</text></g><!--entity owner--><g id="elem_owner"><ellipse cx="39.5" cy="1519.77" fill="#F1F1F1" rx="16" ry="16" style="stroke:#181818;stroke-width:0.5;"/><path d="M39.5,1539.77 C43.5,1539.77 46.5,1539.77 50.5,1535.77 C58.5,1535.77 66.5,1543.77 66.5,1551.77 L66.5,1555.77 C66.5,1559.77 62.5,1563.77 58.5,1563.77 L20.5,1563.77 C16.5,1563.77 12.5,1559.77 12.5,1555.77 L12.5,1551.77 C12.5,1543.77 20.5,1535.77 28.5,1535.77 C32.5,1539.77 35.5,1539.77 39.5,1539.77 " fill="#F1F1F1" style="stroke:#181818;stroke-width:0.5;"/><text fill="#000000" font-family="sans-serif" font-size="14" lengthAdjust="spacing" textLength="45.1172" x="16.9414" y="1578.8032">Pemilik</text></g><!--entity cashier--><g id="elem_cashier"><ellipse cx="39.5" cy="1992.77" fill="#F1F1F1" rx="16" ry="16" style="stroke:#181818;stroke-width:0.5;"/><path d="M39.5,2012.77 C43.5,2012.77 46.5,2012.77 50.5,2008.77 C58.5,2008.77 66.5,2016.77 66.5,2024.77 L66.5,2028.77 C66.5,2032.77 62.5,2036.77 58.5,2036.77 L20.5,2036.77 C16.5,2036.77 12.5,2032.77 12.5,2028.77 L12.5,2024.77 C12.5,2016.77 20.5,2008.77 28.5,2008.77 C32.5,2012.77 35.5,2012.77 39.5,2012.77 " fill="#F1F1F1" style="stroke:#181818;stroke-width:0.5;"/><text fill="#000000" font-family="sans-serif" font-size="14" lengthAdjust="spacing" textLength="31.8965" x="23.5518" y="2051.8032">Kasir</text></g><!--entity production--><g id="elem_production"><ellipse cx="39.5" cy="2425.77" fill="#F1F1F1" rx="16" ry="16" style="stroke:#181818;stroke-width:0.5;"/><path d="M39.5,2445.77 C43.5,2445.77 46.5,2445.77 50.5,2441.77 C58.5,2441.77 66.5,2449.77 66.5,2457.77 L66.5,2461.77 C66.5,2465.77 62.5,2469.77 58.5,2469.77 L20.5,2469.77 C16.5,2469.77 12.5,2465.77 12.5,2461.77 L12.5,2457.77 C12.5,2449.77 20.5,2441.77 28.5,2441.77 C32.5,2445.77 35.5,2445.77 39.5,2445.77 " fill="#F1F1F1" style="stroke:#181818;stroke-width:0.5;"/><text fill="#000000" font-family="sans-serif" font-size="14" lengthAdjust="spacing" textLength="54.4688" x="12.2656" y="2484.8032">Produksi</text></g><!--entity inventory--><g id="elem_inventory"><ellipse cx="39.5" cy="489.77" fill="#F1F1F1" rx="16" ry="16" style="stroke:#181818;stroke-width:0.5;"/><path d="M39.5,509.77 C43.5,509.77 46.5,509.77 50.5,505.77 C58.5,505.77 66.5,513.77 66.5,521.77 L66.5,525.77 C66.5,529.77 62.5,533.77 58.5,533.77 L20.5,533.77 C16.5,533.77 12.5,529.77 12.5,525.77 L12.5,521.77 C12.5,513.77 20.5,505.77 28.5,505.77 C32.5,509.77 35.5,509.77 39.5,509.77 " fill="#F1F1F1" style="stroke:#181818;stroke-width:0.5;"/><text fill="#000000" font-family="sans-serif" font-size="14" lengthAdjust="spacing" textLength="53.6963" x="12.6519" y="548.8032">Inventori</text></g><!--entity customer--><g id="elem_customer"><ellipse cx="39.4756" cy="942.77" fill="#F1F1F1" rx="16" ry="16" style="stroke:#181818;stroke-width:0.5;"/><path d="M39.4756,962.77 C43.4756,962.77 46.4756,962.77 50.4756,958.77 C58.4756,958.77 66.4756,966.77 66.4756,974.77 L66.4756,978.77 C66.4756,982.77 62.4756,986.77 58.4756,986.77 L20.4756,986.77 C16.4756,986.77 12.4756,982.77 12.4756,978.77 L12.4756,974.77 C12.4756,966.77 20.4756,958.77 28.4756,958.77 C32.4756,962.77 35.4756,962.77 39.4756,962.77 " fill="#F1F1F1" style="stroke:#181818;stroke-width:0.5;"/><text fill="#000000" font-family="sans-serif" font-size="14" lengthAdjust="spacing" textLength="66.9512" x="6" y="1001.8032">Pelanggan</text></g><!--link owner to UC_REPORT_CASHIER--><g id="link_owner_UC_REPORT_CASHIER"><path d="M42.8,1582.33 C47.74,1633.66 63.25,1723.4 112,1780.77 C139.49,1813.12 177.4532,1831.5774 212.8132,1843.6774 " fill="none" id="owner-to-UC_REPORT_CASHIER" style="stroke:#181818;stroke-width:1.0;"/><polygon fill="#181818" points="218.49,1845.62,211.2698,1838.9216,213.7593,1844.0012,208.6797,1846.4907,218.49,1845.62" style="stroke:#181818;stroke-width:1.0;"/></g><!--link owner to UC_REPORT_PROD--><g id="link_owner_UC_REPORT_PROD"><path d="M43.14,1503.01 C52.9,1359.12 87.56,872.81 112,850.77 C212.99,759.68 318.68,757.86 418,850.77 C497.21,924.87 477.96,1716.42 483,1824.77 C483.78,1841.59 482.89,2113.01 491,2127.77 C506.86,2156.62 532.3522,2174.5291 559.0622,2187.8691 " fill="none" id="owner-to-UC_REPORT_PROD" style="stroke:#181818;stroke-width:1.0;"/><polygon fill="#181818" points="564.43,2190.55,558.1656,2182.9502,559.9569,2188.3159,554.5911,2190.1072,564.43,2190.55" style="stroke:#181818;stroke-width:1.0;"/></g><!--link owner to UC_REPORT_INV--><g id="link_owner_UC_REPORT_INV"><path d="M42.75,1503.22 C51.58,1351.54 84.7,814.28 112,790.77 C215.05,702.02 291.65,740.46 418,790.77 C640.86,879.51 601.77,1042.68 810,1161.77 C829.77,1173.08 847.2089,1179.7943 868.9189,1185.8243 " fill="none" id="owner-to-UC_REPORT_INV" style="stroke:#181818;stroke-width:1.0;"/><polygon fill="#181818" points="874.7,1187.43,867.0988,1181.1673,869.8824,1186.0919,864.9578,1188.8755,874.7,1187.43" style="stroke:#181818;stroke-width:1.0;"/></g><!--link owner to UC_WORKER--><g id="link_owner_UC_WORKER"><path d="M46.98,1582.48 C55.33,1620.58 73.62,1676.9 112,1708.77 C135.69,1728.44 161.7837,1737.2423 191.2337,1741.9023 " fill="none" id="owner-to-UC_WORKER" style="stroke:#181818;stroke-width:1.0;"/><polygon fill="#181818" points="197.16,1742.84,188.8958,1737.4825,192.2214,1742.0586,187.6454,1745.3842,197.16,1742.84" style="stroke:#181818;stroke-width:1.0;"/></g><!--link owner to UC_ROLE--><g id="link_owner_UC_ROLE"><path d="M67.25,1508.14 C79.52,1494.37 95.1,1479.52 112,1469.77 C133.89,1457.14 153.7756,1449.7409 178.2356,1443.5109 " fill="none" id="owner-to-UC_ROLE" style="stroke:#181818;stroke-width:1.0;"/><polygon fill="#181818" points="184.05,1442.03,174.3412,1440.3751,179.2047,1443.2641,176.3157,1448.1276,184.05,1442.03" style="stroke:#181818;stroke-width:1.0;"/></g><!--link owner to UC_CUSTOMER--><g id="link_owner_UC_CUSTOMER"><path d="M67.06,1538.82 C99.66,1533.98 150.3452,1526.442 196.4352,1519.592 " fill="none" id="owner-to-UC_CUSTOMER" style="stroke:#181818;stroke-width:1.0;"/><polygon fill="#181818" points="202.37,1518.71,192.8798,1516.0765,197.4243,1519.445,194.0558,1523.9896,202.37,1518.71" style="stroke:#181818;stroke-width:1.0;"/></g><!--link owner to UC_STORE_PROFILE--><g id="link_owner_UC_STORE_PROFILE"><path d="M67.06,1547.39 C99.78,1553.09 150.7889,1561.9709 196.9689,1570.0109 " fill="none" id="owner-to-UC_STORE_PROFILE" style="stroke:#181818;stroke-width:1.0;"/><polygon fill="#181818" points="202.88,1571.04,194.6995,1565.5556,197.9541,1570.1824,193.3273,1573.437,202.88,1571.04" style="stroke:#181818;stroke-width:1.0;"/></g><!--link owner to UC_PAYMENT_METHOD--><g id="link_owner_UC_PAYMENT_METHOD"><path d="M67.13,1580.6 C79.28,1595.37 94.8,1611.25 112,1621.77 C133.13,1634.68 152.2595,1642.2885 176.2095,1648.7885 " fill="none" id="owner-to-UC_PAYMENT_METHOD" style="stroke:#181818;stroke-width:1.0;"/><polygon fill="#181818" points="182,1650.36,174.3619,1644.1423,177.1746,1649.0504,172.2665,1651.863,182,1650.36" style="stroke:#181818;stroke-width:1.0;"/></g><!--link owner to UC_NOTIF--><g id="link_owner_UC_NOTIF"><path d="M50.37,1503.09 C60.71,1468.61 80,1419.23 112,1386.77 C143.65,1354.66 185.4279,1335.9874 221.1579,1324.0774 " fill="none" id="owner-to-UC_NOTIF" style="stroke:#181818;stroke-width:1.0;"/><polygon fill="#181818" points="226.85,1322.18,217.0469,1321.2313,222.1066,1323.7611,219.5768,1328.8208,226.85,1322.18" style="stroke:#181818;stroke-width:1.0;"/></g><!--link cashier to UC_ORDER--><g id="link_cashier_UC_ORDER"><path d="M67.06,2015.77 C97.43,2015.77 142.66,2015.77 186.79,2015.77 " fill="none" id="cashier-to-UC_ORDER" style="stroke:#181818;stroke-width:1.0;"/><polygon fill="#181818" points="192.79,2015.77,183.79,2011.77,187.79,2015.77,183.79,2019.77,192.79,2015.77" style="stroke:#181818;stroke-width:1.0;"/></g><!--link cashier to UC_PAYMENT--><g id="link_cashier_UC_PAYMENT"><path d="M54.18,2055.5 C65.38,2081.49 84.02,2113.52 112,2129.77 C183.34,2171.19 422.32,2198.65 483,2142.77 C498.91,2128.12 478.04,2063.08 491,2045.77 C502.63,2030.24 514.4994,2021.9824 532.6094,2015.0224 " fill="none" id="cashier-to-UC_PAYMENT" style="stroke:#181818;stroke-width:1.0;"/><polygon fill="#181818" points="538.21,2012.87,528.3741,2012.3649,533.5428,2014.6637,531.244,2019.8324,538.21,2012.87" style="stroke:#181818;stroke-width:1.0;"/></g><!--link cashier to UC_RECEIPT--><g id="link_cashier_UC_RECEIPT"><path d="M45.23,2055.54 C52.29,2095.14 69.67,2153.91 112,2181.77 C249.76,2272.43 329.19,2234.28 483,2174.77 C528.88,2157.02 568.7848,2122.9181 591.9548,2100.7481 " fill="none" id="cashier-to-UC_RECEIPT" style="stroke:#181818;stroke-width:1.0;"/><polygon fill="#181818" points="596.29,2096.6,587.0219,2099.932,592.6774,2100.0567,592.5526,2105.7122,596.29,2096.6" style="stroke:#181818;stroke-width:1.0;"/></g><!--link cashier to UC_CANCEL_ORDER--><g id="link_cashier_UC_CANCEL_ORDER"><path d="M67.27,2031.65 C80.4,2038.91 96.65,2047.12 112,2052.77 C141.21,2063.52 168.6304,2070.6559 197.5504,2076.7859 " fill="none" id="cashier-to-UC_CANCEL_ORDER" style="stroke:#181818;stroke-width:1.0;"/><polygon fill="#181818" points="203.42,2078.03,195.445,2072.2507,198.5287,2076.9932,193.7862,2080.0768,203.42,2078.03" style="stroke:#181818;stroke-width:1.0;"/></g><!--link cashier to UC_SHIFT--><g id="link_cashier_UC_SHIFT"><path d="M67.03,2000.64 C80.24,1993.58 96.63,1985.48 112,1979.77 C140.61,1969.14 167.1977,1961.7466 195.6277,1955.0966 " fill="none" id="cashier-to-UC_SHIFT" style="stroke:#181818;stroke-width:1.0;"/><polygon fill="#181818" points="201.47,1953.73,191.7955,1951.885,196.6014,1954.8688,193.6176,1959.6747,201.47,1953.73" style="stroke:#181818;stroke-width:1.0;"/></g><!--link cashier to UC_REPORT_CASHIER--><g id="link_cashier_UC_REPORT_CASHIER"><path d="M55.21,1976.08 C66.8,1950.25 85.45,1917.92 112,1898.77 C135.23,1882.01 158.8198,1873.6625 186.3498,1868.3225 " fill="none" id="cashier-to-UC_REPORT_CASHIER" style="stroke:#181818;stroke-width:1.0;"/><polygon fill="#181818" points="192.24,1867.18,182.643,1864.967,187.3315,1868.1321,184.1664,1872.8206,192.24,1867.18" style="stroke:#181818;stroke-width:1.0;"/></g><!--link cashier to UC_NOTIF--><g id="link_cashier_UC_NOTIF"><path d="M43.93,1976.27 C55.71,1842.11 94.76,1410.92 112,1386.77 C137.37,1351.23 177.5327,1333.0092 214.3427,1322.2092 " fill="none" id="cashier-to-UC_NOTIF" style="stroke:#181818;stroke-width:1.0;"/><polygon fill="#181818" points="220.1,1320.52,210.3379,1319.2156,215.3022,1321.9277,212.5902,1326.892,220.1,1320.52" style="stroke:#181818;stroke-width:1.0;"/></g><!--link production to UC_PLAN_PROD--><g id="link_production_UC_PLAN_PROD"><path d="M58.96,2488.27 C70.97,2509.33 88.75,2533.55 112,2546.77 C244.52,2622.12 423.1942,2617.2299 527.3242,2606.0599 " fill="none" id="production-to-UC_PLAN_PROD" style="stroke:#181818;stroke-width:1.0;"/><polygon fill="#181818" points="533.29,2605.42,523.9147,2602.4027,528.3185,2605.9533,524.768,2610.3571,533.29,2605.42" style="stroke:#181818;stroke-width:1.0;"/></g><!--link production to UC_START_PROD--><g id="link_production_UC_START_PROD"><path d="M67.15,2462.58 C77.97,2467.45 90.78,2472.33 103,2474.77 C268.62,2507.84 315.41,2495.71 483,2474.77 C511.42,2471.22 536.774,2465.1194 561.444,2458.0194 " fill="none" id="production-to-UC_START_PROD" style="stroke:#181818;stroke-width:1.0;"/><polygon fill="#181818" points="567.21,2456.36,557.4548,2455.0052,562.405,2457.7429,559.6674,2462.6931,567.21,2456.36" style="stroke:#181818;stroke-width:1.0;"/></g><!--link production to UC_FINISH_PROD--><g id="link_production_UC_FINISH_PROD"><path d="M67.17,2447.69 C136.37,2444.55 327.15,2433.63 483,2403.77 C508.24,2398.93 529.9252,2393.2011 553.0552,2386.2311 " fill="none" id="production-to-UC_FINISH_PROD" style="stroke:#181818;stroke-width:1.0;"/><polygon fill="#181818" points="558.8,2384.5,549.0286,2383.2668,554.0126,2385.9426,551.3368,2390.9266,558.8,2384.5" style="stroke:#181818;stroke-width:1.0;"/></g><!--link production to UC_CANCEL_PROD--><g id="link_production_UC_CANCEL_PROD"><path d="M67.31,2475.35 C79.81,2485.96 95.55,2497.02 112,2502.77 C255.94,2553.1 431.6389,2541.3744 531.9189,2528.4944 " fill="none" id="production-to-UC_CANCEL_PROD" style="stroke:#181818;stroke-width:1.0;"/><polygon fill="#181818" points="537.87,2527.73,528.4338,2524.9091,532.9107,2528.367,529.4529,2532.844,537.87,2527.73" style="stroke:#181818;stroke-width:1.0;"/></g><!--link production to UC_QUEUE_PROD--><g id="link_production_UC_QUEUE_PROD"><path d="M67.06,2428.71 C80.01,2419.83 96.17,2410.01 112,2403.77 C268.19,2342.22 326.71,2394.08 483,2332.77 C486.9,2331.24 487.2,2329.53 491,2327.77 C510.07,2318.93 525.9498,2313.089 545.6298,2306.979 " fill="none" id="production-to-UC_QUEUE_PROD" style="stroke:#181818;stroke-width:1.0;"/><polygon fill="#181818" points="551.36,2305.2,541.5787,2304.0484,546.5848,2306.6825,543.9507,2311.6887,551.36,2305.2" style="stroke:#181818;stroke-width:1.0;"/></g><!--link production to UC_REPORT_PROD--><g id="link_production_UC_REPORT_PROD"><path d="M61.61,2409.24 C73.92,2389.65 91.14,2367.18 112,2352.77 C181.87,2304.52 412.8591,2251.3678 534.1891,2225.7878 " fill="none" id="production-to-UC_REPORT_PROD" style="stroke:#181818;stroke-width:1.0;"/><polygon fill="#181818" points="540.06,2224.55,530.4284,2222.4927,535.1676,2225.5815,532.0788,2230.3206,540.06,2224.55" style="stroke:#181818;stroke-width:1.0;"/></g><!--link production to UC_NOTIF--><g id="link_production_UC_NOTIF"><path d="M44.32,2409.01 C50.83,2340.44 64.21,2195.47 73,2072.77 C74.36,2053.73 101.35,1402.61 112,1386.77 C136.18,1350.79 175.9346,1332.6213 212.8946,1321.9713 " fill="none" id="production-to-UC_NOTIF" style="stroke:#181818;stroke-width:1.0;"/><polygon fill="#181818" points="218.66,1320.31,208.9043,1318.9583,213.8555,1321.6944,211.1194,1326.6456,218.66,1320.31" style="stroke:#181818;stroke-width:1.0;"/></g><!--link inventory to UC_PRODUCT--><g id="link_inventory_UC_PRODUCT"><path d="M67.17,534.87 C80.01,544.47 96.05,555.05 112,561.77 C256.08,622.53 702.08,579.49 802,699.77 C823.8,726.01 789.05,1286.85 810,1313.77 C824.68,1332.62 841.9562,1341.2687 865.1562,1346.2987 " fill="none" id="inventory-to-UC_PRODUCT" style="stroke:#181818;stroke-width:1.0;"/><polygon fill="#181818" points="871.02,1347.57,863.0719,1341.7538,866.1335,1346.5106,861.3768,1349.5722,871.02,1347.57" style="stroke:#181818;stroke-width:1.0;"/></g><!--link inventory to UC_MATERIAL--><g id="link_inventory_UC_MATERIAL"><path d="M63.25,552.36 C75.89,572.1 92.9,595.39 112,612.77 C228.35,718.68 303.73,682.61 418,790.77 C648.26,1008.72 554.14,1199.54 810,1386.77 C827.84,1399.83 844.1107,1406.9438 865.3407,1412.7238 " fill="none" id="inventory-to-UC_MATERIAL" style="stroke:#181818;stroke-width:1.0;"/><polygon fill="#181818" points="871.13,1414.3,863.4969,1408.0762,866.3056,1412.9865,861.3953,1415.7953,871.13,1414.3" style="stroke:#181818;stroke-width:1.0;"/></g><!--link inventory to UC_EXPENSE--><g id="link_inventory_UC_EXPENSE"><path d="M42.45,473.26 C47.11,397.55 61.74,236.54 103,202.77 C343.4,6 560.39,7.48 802,202.77 C909.88,289.96 941.6062,760.6793 947.2062,861.1693 " fill="none" id="inventory-to-UC_EXPENSE" style="stroke:#181818;stroke-width:1.0;"/><polygon fill="#181818" points="947.54,867.16,951.033,857.9514,947.2618,862.1677,943.0454,858.3965,947.54,867.16" style="stroke:#181818;stroke-width:1.0;"/></g><!--link inventory to UC_STOCK_COUNT--><g id="link_inventory_UC_STOCK_COUNT"><path d="M45.07,472.91 C53.04,411.42 71.68,297.95 103,273.77 C164.47,226.3 746.74,219.19 802,273.77 C814.81,286.42 799,907.52 810,921.77 C822.8,938.35 836.3446,946.5036 856.5146,952.1836 " fill="none" id="inventory-to-UC_STOCK_COUNT" style="stroke:#181818;stroke-width:1.0;"/><polygon fill="#181818" points="862.29,953.81,854.7112,947.5202,857.4772,952.4547,852.5427,955.2207,862.29,953.81" style="stroke:#181818;stroke-width:1.0;"/></g><!--link inventory to UC_INVENTORY_FLOW--><g id="link_inventory_UC_INVENTORY_FLOW"><path d="M42.85,473.09 C47.57,433.17 61.6,373.54 103,344.77 C166.78,300.45 746.75,290.19 802,344.77 C814.91,357.52 798.96,983.38 810,997.77 C822.31,1013.83 834.959,1021.8861 854.349,1027.7761 " fill="none" id="inventory-to-UC_INVENTORY_FLOW" style="stroke:#181818;stroke-width:1.0;"/><polygon fill="#181818" points="860.09,1029.52,852.6411,1023.0768,855.3059,1028.0667,850.3159,1030.7315,860.09,1029.52" style="stroke:#181818;stroke-width:1.0;"/></g><!--link inventory to UC_REPORT_INV--><g id="link_inventory_UC_REPORT_INV"><path d="M67.26,477.14 C77.47,467.68 90.05,460.19 104,460.77 C273.88,467.79 353.99,402.02 483,512.77 C651.71,657.6 640.12,743.64 737,943.77 C771.88,1015.83 781.12,1034.48 802,1111.77 C807.87,1133.5 795.09,1144.91 810,1161.77 C823.18,1176.67 835.8091,1184.3712 854.8491,1190.3912 " fill="none" id="inventory-to-UC_REPORT_INV" style="stroke:#181818;stroke-width:1.0;"/><polygon fill="#181818" points="860.57,1192.2,853.1946,1185.6729,855.8026,1190.6927,850.7828,1193.3007,860.57,1192.2" style="stroke:#181818;stroke-width:1.0;"/></g><!--link inventory to UC_CAT_INV--><g id="link_inventory_UC_CAT_INV"><path d="M67.15,498.96 C77.97,494.09 90.78,489.21 103,486.77 C269.01,453.62 354.55,402.5 483,512.77 C651.71,657.6 626.74,750.69 737,943.77 C770.24,1001.99 758.01,1033.44 810,1075.77 C824.55,1087.61 836.6817,1094.2327 854.6317,1100.4627 " fill="none" id="inventory-to-UC_CAT_INV" style="stroke:#181818;stroke-width:1.0;"/><polygon fill="#181818" points="860.3,1102.43,853.1091,1095.7001,855.5764,1100.7906,850.486,1103.2579,860.3,1102.43" style="stroke:#181818;stroke-width:1.0;"/></g><!--link inventory to UC_SUPPLIER--><g id="link_inventory_UC_SUPPLIER"><path d="M67.12,515.35 C128.92,521.47 286.84,537.85 418,557.77 C503.8,570.8 746.06,562.43 802,628.77 C823.92,654.77 789.11,1213.94 810,1240.77 C824.14,1258.94 840.2956,1267.4522 862.6356,1272.6422 " fill="none" id="inventory-to-UC_SUPPLIER" style="stroke:#181818;stroke-width:1.0;"/><polygon fill="#181818" points="868.48,1274,860.6186,1268.0671,863.6097,1272.8685,858.8083,1275.8596,868.48,1274" style="stroke:#181818;stroke-width:1.0;"/></g><!--link inventory to UC_NOTIF--><g id="link_inventory_UC_NOTIF"><path d="M43.92,552.43 C57.33,707.67 105.95,1265.93 112,1272.77 C134.02,1297.66 162.9813,1306.9076 194.9513,1310.1876 " fill="none" id="inventory-to-UC_NOTIF" style="stroke:#181818;stroke-width:1.0;"/><polygon fill="#181818" points="200.92,1310.8,192.3752,1305.9023,195.9461,1310.2897,191.5588,1313.8606,200.92,1310.8" style="stroke:#181818;stroke-width:1.0;"/></g><!--link inventory to UC_LOW_STOCK--><g id="link_inventory_UC_LOW_STOCK"><path d="M43.44,552.38 C52.67,672.7 82.21,1028.36 112,1070.77 C134.53,1102.83 167.4321,1121.3431 201.4821,1134.1131 " fill="none" id="inventory-to-UC_LOW_STOCK" style="stroke:#181818;stroke-width:1.0;"/><polygon fill="#181818" points="207.1,1136.22,200.0778,1129.3143,202.4184,1134.4642,197.2685,1136.8049,207.1,1136.22" style="stroke:#181818;stroke-width:1.0;"/></g><!--link inventory to UC_EXPIRED--><g id="link_inventory_UC_EXPIRED"><path d="M44.05,552.64 C56.97,696.86 101.28,1183.57 112,1195.77 C130.16,1216.44 151.2047,1226.0226 178.0247,1231.3426 " fill="none" id="inventory-to-UC_EXPIRED" style="stroke:#181818;stroke-width:1.0;"/><polygon fill="#181818" points="183.91,1232.51,175.8603,1226.8353,179.0056,1231.5372,174.3037,1234.6824,183.91,1232.51" style="stroke:#181818;stroke-width:1.0;"/></g><!--link customer to UC_CATALOG--><g id="link_customer_UC_CATALOG"><path d="M73.01,945.03 C84.92,938.12 98.73,930.9 112,925.77 C140.62,914.7 167.4886,907.5558 196.1386,901.5258 " fill="none" id="customer-to-UC_CATALOG" style="stroke:#181818;stroke-width:1.0;"/><polygon fill="#181818" points="202.01,900.29,192.3791,898.2294,197.1172,901.3198,194.0268,906.0579,202.01,900.29" style="stroke:#181818;stroke-width:1.0;"/></g><!--link customer to UC_HOW_ORDER--><g id="link_customer_UC_HOW_ORDER"><path d="M73.25,965.77 C100.54,965.77 134.9,965.77 172.43,965.77 " fill="none" id="customer-to-UC_HOW_ORDER" style="stroke:#181818;stroke-width:1.0;"/><polygon fill="#181818" points="178.43,965.77,169.43,961.77,173.43,965.77,169.43,969.77,178.43,965.77" style="stroke:#181818;stroke-width:1.0;"/></g><!--link customer to UC_FAQ--><g id="link_customer_UC_FAQ"><path d="M73.01,986.14 C84.91,992.88 98.73,999.9 112,1004.77 C146.39,1017.4 180.7408,1024.8487 212.7708,1030.1587 " fill="none" id="customer-to-UC_FAQ" style="stroke:#181818;stroke-width:1.0;"/><polygon fill="#181818" points="218.69,1031.14,210.4654,1025.7219,213.7573,1030.3223,209.157,1033.6142,218.69,1031.14" style="stroke:#181818;stroke-width:1.0;"/></g><!--reverse link UC_EXPENSE to UC_PLAN_EXP--><g id="link_UC_EXPENSE_UC_PLAN_EXP"><path d="M1028.7944,902.8071 C1047.0344,908.2271 1049.13,910.83 1065,921.77 C1082.72,933.98 1077.96,946.64 1095,959.77 C1127.64,984.92 1142.16,980.47 1180,996.77 C1195.54,1003.46 1212.59,1010.75 1227.72,1017.19 " fill="none" id="UC_EXPENSE-backto-UC_PLAN_EXP" style="stroke:#181818;stroke-width:1.0;"/><polygon fill="none" points="1011.54,897.68,1027.0853,908.5586,1030.5034,897.0557,1011.54,897.68" style="stroke:#181818;stroke-width:1.0;"/><text fill="#000000" font-family="sans-serif" font-size="13" lengthAdjust="spacing" textLength="53.4917" x="1096" y="956.2651">&#171;extend&#187;</text></g><!--reverse link UC_EXPENSE to UC_START_EXP--><g id="link_UC_EXPENSE_UC_START_EXP"><path d="M1023.926,903.1562 C1083.746,917.3162 1160.37,935.46 1218.89,949.31 " fill="none" id="UC_EXPENSE-backto-UC_START_EXP" style="stroke:#181818;stroke-width:1.0;"/><polygon fill="none" points="1006.41,899.01,1022.5439,908.9949,1025.308,897.3176,1006.41,899.01" style="stroke:#181818;stroke-width:1.0;"/><text fill="#000000" font-family="sans-serif" font-size="13" lengthAdjust="spacing" textLength="53.4917" x="1096" y="918.2651">&#171;extend&#187;</text></g><!--reverse link UC_EXPENSE to UC_FINISH_EXP--><g id="link_UC_EXPENSE_UC_FINISH_EXP"><path d="M1048.2597,886.381 C1093.6597,886.661 1132.71,886.91 1179.94,887.2 " fill="none" id="UC_EXPENSE-backto-UC_FINISH_EXP" style="stroke:#181818;stroke-width:1.0;"/><polygon fill="none" points="1030.26,886.27,1048.2227,892.3809,1048.2967,880.3811,1030.26,886.27" style="stroke:#181818;stroke-width:1.0;"/><text fill="#000000" font-family="sans-serif" font-size="13" lengthAdjust="spacing" textLength="53.4917" x="1096" y="883.2651">&#171;extend&#187;</text></g><!--link UC_ORDER to UC_PAYMENT--><g id="link_UC_ORDER_UC_PAYMENT"><path d="M359.09,2011.65 C407.02,2009.22 461.9477,2006.4334 512.1077,2003.8934 " fill="none" id="UC_ORDER-to-UC_PAYMENT" style="stroke:#181818;stroke-width:1.0;stroke-dasharray:7.0,7.0;"/><polygon fill="#181818" points="518.1,2003.59,508.9092,2000.0503,513.1064,2003.8429,509.3138,2008.04,518.1,2003.59" style="stroke:#181818;stroke-width:1.0;"/><text fill="#000000" font-family="sans-serif" font-size="13" lengthAdjust="spacing" textLength="55.6563" x="427" y="2001.2651">&#171;include&#187;</text></g><!--link UC_ORDER to UC_RECEIPT--><g id="link_UC_ORDER_UC_RECEIPT"><path d="M341.8,2027.96 C403.88,2039.82 491.3866,2056.5339 550.7866,2067.8839 " fill="none" id="UC_ORDER-to-UC_RECEIPT" style="stroke:#181818;stroke-width:1.0;stroke-dasharray:7.0,7.0;"/><polygon fill="#181818" points="556.68,2069.01,548.5907,2063.3919,551.7689,2068.0716,547.0892,2071.2498,556.68,2069.01" style="stroke:#181818;stroke-width:1.0;"/><text fill="#000000" font-family="sans-serif" font-size="13" lengthAdjust="spacing" textLength="55.6563" x="427" y="2042.2651">&#171;include&#187;</text></g><!--link UC_ORDER to UC_QUEUE_PROD--><g id="link_UC_ORDER_UC_QUEUE_PROD"><path d="M356.22,2022.14 C378.55,2027.46 401.32,2036.75 418,2052.77 C426.72,2061.15 422.07,2067.34 426,2078.77 C452.41,2155.67 431.98,2193.85 491,2249.77 C503.67,2261.78 514.3701,2268.1272 530.9801,2273.8772 " fill="none" id="UC_ORDER-to-UC_QUEUE_PROD" style="stroke:#181818;stroke-width:1.0;stroke-dasharray:7.0,7.0;"/><polygon fill="#181818" points="536.65,2275.84,529.4537,2269.1159,531.9251,2274.2043,526.8367,2276.6757,536.65,2275.84" style="stroke:#181818;stroke-width:1.0;"/><text fill="#000000" font-family="sans-serif" font-size="13" lengthAdjust="spacing" textLength="55.6563" x="427" y="2075.2651">&#171;include&#187;</text></g><!--link UC_START_PROD to UC_MATERIAL--><g id="link_UC_START_PROD_UC_MATERIAL"><path d="M685.95,2434.19 C704.81,2428.91 723.63,2420.17 737,2405.77 C874.07,2258.11 935.6975,1582.0898 946.3375,1452.8998 " fill="none" id="UC_START_PROD-to-UC_MATERIAL" style="stroke:#181818;stroke-width:1.0;stroke-dasharray:7.0,7.0;"/><polygon fill="#181818" points="946.83,1446.92,942.1048,1455.5613,946.4196,1451.9031,950.0778,1456.218,946.83,1446.92" style="stroke:#181818;stroke-width:1.0;"/><text fill="#000000" font-family="sans-serif" font-size="13" lengthAdjust="spacing" textLength="55.6563" x="746" y="2299.2651">&#171;include&#187;</text></g><!--link UC_FINISH_PROD to UC_PRODUCT--><g id="link_UC_FINISH_PROD_UC_PRODUCT"><path d="M696.2,2355.46 C711.9,2349.61 726.65,2340.85 737,2327.77 C753.27,2307.21 793.17,1406.87 810,1386.77 C825.15,1368.67 842.2653,1360.3171 865.1753,1355.3671 " fill="none" id="UC_FINISH_PROD-to-UC_PRODUCT" style="stroke:#181818;stroke-width:1.0;stroke-dasharray:7.0,7.0;"/><polygon fill="#181818" points="871.04,1354.1,861.3982,1352.0909,866.1528,1355.1559,863.0878,1359.9105,871.04,1354.1" style="stroke:#181818;stroke-width:1.0;"/><text fill="#000000" font-family="sans-serif" font-size="13" lengthAdjust="spacing" textLength="55.6563" x="746" y="1439.2651">&#171;include&#187;</text></g><!--SRC=[XLVBafiu5Dtp5QfUJ6OMdG-OwkugWkKsOruDU9AiN8gjjjLWe7XCqfNat-TAGhm4jZSsElUW-xxNANsjKPsZaftEDJgoaXvgbcT6bR2i82Mve88S4dAYKVsUKiHXafrIEX0WXpel9Ko-qog_KCFuW1uV7v6vZVsG_pA43BeBw8MbBBb3f4BvzuoM2jYIYfNY-42gC-k1eCoFJL8nWHNyGUhNmdRs7ytWbyHP-_JUtvU2jYUIoLStLGtQbKgzo8vYx0hzEhlGNSIgcbwGdRtcvGNKGYx9o1kzq0p5UPAZRKFlq4_3GF3vWExlxv7hhtOEsfgH7V9dWRHUGtSkg9oYrhwV0kEVfg9WASTfTg9fdX8Kq0fkaghkhBqVhd0u9ty1DrIq0ldBD_8E8UWeWVdLnLuyUyc1rYH1KLqsYH8FiONjO5OStboJD27PL2lBz2piB2kdZ8aeU2wWsLj3qfuTRUprx7qfEvCQEQJ8mHpKPuFGCl3362u6SdldRztxGGXVsyXU2a2VHxCnAC51OAOmU9XntAcEwUtvwsVzrAI4QPGeDa7Z9KxsJbDmAfkxR6rxThHPlguFouJOncM9AFrhPdN9PiWlExp3DxWgDbDk6vwEF1CRs_iNij8F5uCpgEBh5IBkxWB3Gsx5rmYVo1bK_aIIHf5SCyQXRJfNMRnhl155mLy2x4NuHjfCI29hWBcSD1E2p9a5nZ1b9hmsOvQ8gXphF44RLZVPgR_GjxPxozzvLohIJ9iIohYiw96HlevLHB_krux_-NRIZDjqdpNmdcjQRqbDJy2QqS0oRxAZfYXI62MTmRiWSAwq4DVqp7ymDD2bDEq6mSr6dj2oZz1dFznURvPW7ZZf3xI13cqcqDixD_aElauSpZVkbXs4rRrnMvc_iXJjAYYEGJA4eWEixUitkhJEZtHvzknT76-MMu7dn_RQvgDooSbUNhDNIFJ5LYqpQoWc5H2ldbMTbkn289LfMSj226bs96T5X0oMnN2JZ7yKi20T1ut13l6YhT01LhRtZ0Bp6IzPwv3ioB8J2k3ighrRtlZpqwG5GXMOZl-yJBCWH3nOuo6-0OiN9xWahisNhiEOBws9lzNc56A7Xr3kT_Te5s44yncBLGf4sZKF4CAp6HKqQyw6MFZ04KypKtqE4oDb3k1rFpflAsmioqjdTDBLnkXqdFaZQ9BI8qnc6zWgTXMZtLeLAfqxELJRsUHORM6Juz6YDS7a6gMzP-JH2Thfg-QtqI_JdOBTfgDZWvL61uTRYuuELnCT7UmUEZZC11tjREh6Yz7z0-XiQfS43UWM0GrHyru3XXDJ0oSZKSC7kQjXQfZfDwgHfI7ITksuxsLpPebk9Ugp7HlepwBv1fNwbw7-6mrK4frbUjwtZYd2syIuFU0lCVPMCDTipt9sgwuzQ9iMeZzgQCcLqNiVFVo2HZfOfD3VwE51oZqzpGbs2zHDoNvb6ekAJ3gapP7_pqq9JpMeeKAe9Mn67pyEArcmcMJ8cqPIRM7VaEhpNnViYqv9gwpLPGSrsAafStyY-py0]--></g></svg>