<svg xmlns="http://www.w3.org/2000/svg" xmlns:xlink="http://www.w3.org/1999/xlink" contentStyleType="text/css" height="2842px" preserveAspectRatio="none" style="width:1409px;height:2842px;background:#FFFFFF;" version="1.1" viewBox="0 0 1409 2842" width="1409px" zoomAndPan="magnify"><defs/><g><!--cluster Sistem Informasi Manajemen Toko Kue--><g id="cluster_Sistem Informasi Manajemen Toko Kue"><rect fill="none" height="1597" rx="2.5" ry="2.5" style="stroke:#181818;stroke-width:1.0;" width="1283" x="120" y="252.94"/><text fill="#000000" font-family="sans-serif" font-size="14" font-weight="bold" lengthAdjust="spacing" textLength="260.6201" x="631.1899" y="269.4732">Sistem Informasi Manajemen Toko Kue</text></g><!--cluster Modul Kasir--><g id="cluster_Modul Kasir"><rect fill="none" height="323" rx="2.5" ry="2.5" style="stroke:#181818;stroke-width:1.0;" width="565.5" x="160.5" y="998.94"/><text fill="#000000" font-family="sans-serif" font-size="14" font-weight="bold" lengthAdjust="spacing" textLength="80.1172" x="403.1914" y="1015.4732">Modul Kasir</text></g><!--cluster Modul Produksi--><g id="cluster_Modul Produksi"><rect fill="none" height="480" rx="2.5" ry="2.5" style="stroke:#181818;stroke-width:1.0;" width="230" x="497" y="1345.94"/><text fill="#000000" font-family="sans-serif" font-size="14" font-weight="bold" lengthAdjust="spacing" textLength="105" x="559.5" y="1362.4732">Modul Produksi</text></g><!--cluster Modul Inventori--><g id="cluster_Modul Inventori"><rect fill="none" height="632" rx="2.5" ry="2.5" style="stroke:#181818;stroke-width:1.0;" width="563" x="816" y="952.94"/><text fill="#000000" font-family="sans-serif" font-size="14" font-weight="bold" lengthAdjust="spacing" textLength="104.2139" x="1045.3931" y="969.4732">Modul Inventori</text></g><!--cluster Modul Manajemen--><g id="cluster_Modul Manajemen"><rect fill="none" height="414" rx="2.5" ry="2.5" style="stroke:#181818;stroke-width:1.0;" width="572" x="144" y="296.94"/><text fill="#000000" font-family="sans-serif" font-size="14" font-weight="bold" lengthAdjust="spacing" textLength="121.3447" x="369.3276" y="313.4732">Modul Manajemen</text></g><!--cluster Modul Autentikasi--><g id="cluster_Modul Autentikasi"><rect fill="none" height="217" rx="2.5" ry="2.5" style="stroke:#181818;stroke-width:1.0;" width="170" x="862.5" y="1608.94"/><text fill="#000000" font-family="sans-serif" font-size="14" font-weight="bold" lengthAdjust="spacing" textLength="120.5586" x="887.2207" y="1625.4732">Modul Autentikasi</text></g><!--cluster Modul Notifikasi--><g id="cluster_Modul Notifikasi"><rect fill="none" height="248" rx="2.5" ry="2.5" style="stroke:#181818;stroke-width:1.0;" width="249" x="152.5" y="1345.94"/><text fill="#000000" font-family="sans-serif" font-size="14" font-weight="bold" lengthAdjust="spacing" textLength="108.1104" x="222.9448" y="1362.4732">Modul Notifikasi</text></g><!--cluster Modul Landing Page--><g id="cluster_Modul Landing Page"><rect fill="none" height="240" rx="2.5" ry="2.5" style="stroke:#181818;stroke-width:1.0;" width="229" x="162.5" y="734.94"/><text fill="#000000" font-family="sans-serif" font-size="14" font-weight="bold" lengthAdjust="spacing" textLength="136.8828" x="208.5586" y="751.4732">Modul Landing Page</text></g><g id="elem_UC_ORDER"><ellipse cx="276.9049" cy="1210.121" fill="#F1F1F1" rx="83.9049" ry="19.181" style="stroke:#181818;stroke-width:0.5;"/><text fill="#000000" font-family="sans-serif" font-size="14" lengthAdjust="spacing" textLength="123.7578" x="215.026" y="1213.8495">Mengelola Pesanan</text></g><g id="elem_UC_PAYMENT"><ellipse cx="612.014" cy="1283.9428" fill="#F1F1F1" rx="98.014" ry="22.0028" style="stroke:#181818;stroke-width:0.5;"/><text fill="#000000" font-family="sans-serif" font-size="14" lengthAdjust="spacing" textLength="156.3994" x="533.8143" y="1287.6713">Memproses Pembayaran</text></g><g id="elem_UC_RECEIPT"><ellipse cx="611.9718" cy="1210.0344" fill="#F1F1F1" rx="73.4718" ry="17.0944" style="stroke:#181818;stroke-width:0.5;"/><text fill="#000000" font-family="sans-serif" font-size="14" lengthAdjust="spacing" textLength="97.2617" x="560.341" y="1214.551">Mencetak Struk</text></g><g id="elem_UC_CANCEL_ORDER"><ellipse cx="277.2175" cy="1284.7835" fill="#F1F1F1" rx="92.2175" ry="20.8435" style="stroke:#181818;stroke-width:0.5;"/><text fill="#000000" font-family="sans-serif" font-size="14" lengthAdjust="spacing" textLength="143.1992" x="205.6179" y="1288.512">Membatalkan Pesanan</text></g><g id="elem_UC_SHIFT"><ellipse cx="276.9545" cy="1132.9309" fill="#F1F1F1" rx="100.4545" ry="22.4909" style="stroke:#181818;stroke-width:0.5;"/><text fill="#000000" font-family="sans-serif" font-size="14" lengthAdjust="spacing" textLength="161.8887" x="196.0102" y="1136.6594">Mengelola Sesi Penjualan</text></g><g id="elem_UC_REPORT_CASHIER"><ellipse cx="277.1847" cy="1055.1769" fill="#F1F1F1" rx="89.1847" ry="20.2369" style="stroke:#181818;stroke-width:0.5;"/><text fill="#000000" font-family="sans-serif" font-size="14" lengthAdjust="spacing" textLength="136.1855" x="209.0919" y="1058.9055">Melihat Laporan Kasir</text></g><g id="elem_UC_PLAN_PROD"><ellipse cx="612.1175" cy="1560.9635" fill="#F1F1F1" rx="95.6175" ry="21.5235" style="stroke:#181818;stroke-width:0.5;"/><text fill="#000000" font-family="sans-serif" font-size="14" lengthAdjust="spacing" textLength="150.9717" x="536.6317" y="1564.692">Merencanakan Produksi</text></g><g id="elem_UC_START_PROD"><ellipse cx="611.7855" cy="1636.0971" fill="#F1F1F1" rx="78.7855" ry="18.1571" style="stroke:#181818;stroke-width:0.5;"/><text fill="#000000" font-family="sans-serif" font-size="14" lengthAdjust="spacing" textLength="111.2617" x="554.6157" y="1640.2565">Memulai Produksi</text></g><g id="elem_UC_FINISH_PROD"><ellipse cx="611.9575" cy="1711.0315" fill="#F1F1F1" rx="95.9575" ry="21.5915" style="stroke:#181818;stroke-width:0.5;"/><text fill="#000000" font-family="sans-serif" font-size="14" lengthAdjust="spacing" textLength="151.7441" x="536.0854" y="1714.76">Menyelesaikan Produksi</text></g><g id="elem_UC_CANCEL_PROD"><ellipse cx="611.8699" cy="1788.714" fill="#F1F1F1" rx="91.8699" ry="20.774" style="stroke:#181818;stroke-width:0.5;"/><text fill="#000000" font-family="sans-serif" font-size="14" lengthAdjust="spacing" textLength="142.3994" x="540.6702" y="1792.4425">Membatalkan Produksi</text></g><g id="elem_UC_QUEUE_PROD"><ellipse cx="611.9545" cy="1483.0309" fill="#F1F1F1" rx="95.9545" ry="21.5909" style="stroke:#181818;stroke-width:0.5;"/><text fill="#000000" font-family="sans-serif" font-size="14" lengthAdjust="spacing" textLength="151.7373" x="536.0858" y="1486.7594">Melihat Antrian Produksi</text></g><g id="elem_UC_REPORT_PROD"><ellipse cx="612.0605" cy="1404.1521" fill="#F1F1F1" rx="99.0605" ry="22.2121" style="stroke:#181818;stroke-width:0.5;"/><text fill="#000000" font-family="sans-serif" font-size="14" lengthAdjust="spacing" textLength="158.7578" x="532.6816" y="1407.8806">Melihat Laporan Produksi</text></g><g id="elem_UC_PRODUCT"><ellipse cx="947.4166" cy="1163.7233" fill="#F1F1F1" rx="79.4166" ry="18.2833" style="stroke:#181818;stroke-width:0.5;"/><text fill="#000000" font-family="sans-serif" font-size="14" lengthAdjust="spacing" textLength="112.8477" x="889.7436" y="1167.8061">Mengelola Produk</text></g><g id="elem_UC_MATERIAL"><ellipse cx="947.4021" cy="1088.9204" fill="#F1F1F1" rx="92.9021" ry="20.9804" style="stroke:#181818;stroke-width:0.5;"/><text fill="#000000" font-family="sans-serif" font-size="14" lengthAdjust="spacing" textLength="144.7715" x="875.0164" y="1092.6489">Mengelola Bahan Baku</text></g><g id="elem_UC_EXPENSE"><ellipse cx="947.3606" cy="1549.9121" fill="#F1F1F1" rx="80.3606" ry="18.4721" style="stroke:#181818;stroke-width:0.5;"/><text fill="#000000" font-family="sans-serif" font-size="14" lengthAdjust="spacing" textLength="115.1924" x="888.935" y="1553.8803">Mengelola Belanja</text></g><g id="elem_UC_PLAN_EXP"><ellipse cx="1270.7205" cy="1547.7841" fill="#F1F1F1" rx="92.2205" ry="20.8441" style="stroke:#181818;stroke-width:0.5;"/><text fill="#000000" font-family="sans-serif" font-size="14" lengthAdjust="spacing" textLength="143.2061" x="1199.1174" y="1551.5126">Merencanakan Belanja</text></g><g id="elem_UC_START_EXP"><ellipse cx="1270.2865" cy="1473.9973" fill="#F1F1F1" rx="75.7865" ry="17.5573" style="stroke:#181818;stroke-width:0.5;"/><text fill="#000000" font-family="sans-serif" font-size="14" lengthAdjust="spacing" textLength="103.4961" x="1215.5385" y="1478.5139">Memulai Belanja</text></g><g id="elem_UC_FINISH_EXP"><ellipse cx="1270.5566" cy="1399.8513" fill="#F1F1F1" rx="92.5566" ry="20.9113" style="stroke:#181818;stroke-width:0.5;"/><text fill="#000000" font-family="sans-serif" font-size="14" lengthAdjust="spacing" textLength="143.9785" x="1198.5674" y="1403.5798">Menyelesaikan Belanja</text></g><g id="elem_UC_STOCK_COUNT"><ellipse cx="947.7027" cy="1238.0805" fill="#F1F1F1" rx="91.2027" ry="20.6405" style="stroke:#181818;stroke-width:0.5;"/><text fill="#000000" font-family="sans-serif" font-size="14" lengthAdjust="spacing" textLength="140.8613" x="877.272" y="1241.809">Mengelola Stok Hitung</text></g><g id="elem_UC_INVENTORY_FLOW"><ellipse cx="947.5908" cy="1314.7582" fill="#F1F1F1" rx="94.5908" ry="21.3182" style="stroke:#181818;stroke-width:0.5;"/><text fill="#000000" font-family="sans-serif" font-size="14" lengthAdjust="spacing" textLength="148.6338" x="873.2739" y="1318.4867">Melihat Alur Persediaan</text></g><g id="elem_UC_REPORT_INV"><ellipse cx="947.7174" cy="1011.0835" fill="#F1F1F1" rx="98.7174" ry="22.1435" style="stroke:#181818;stroke-width:0.5;"/><text fill="#000000" font-family="sans-serif" font-size="14" lengthAdjust="spacing" textLength="157.9854" x="868.7247" y="1014.812">Melihat Laporan Inventori</text></g><g id="elem_UC_CAT_INV"><ellipse cx="947.6349" cy="1396.967" fill="#F1F1F1" rx="115.6349" ry="25.527" style="stroke:#181818;stroke-width:0.5;"/><text fill="#000000" font-family="sans-serif" font-size="14" lengthAdjust="spacing" textLength="195.3506" x="849.9596" y="1400.6955">Mengelola Kategori Persediaan</text></g><g id="elem_UC_SUPPLIER"><ellipse cx="947.2746" cy="1476.7949" fill="#F1F1F1" rx="82.2746" ry="18.8549" style="stroke:#181818;stroke-width:0.5;"/><text fill="#000000" font-family="sans-serif" font-size="14" lengthAdjust="spacing" textLength="119.8545" x="887.3231" y="1480.5307">Mengelola Supplier</text></g><g id="elem_UC_WORKER"><ellipse cx="277.1716" cy="438.9743" fill="#F1F1F1" rx="80.6716" ry="18.5343" style="stroke:#181818;stroke-width:0.5;"/><text fill="#000000" font-family="sans-serif" font-size="14" lengthAdjust="spacing" textLength="115.958" x="218.498" y="442.9047">Mengelola Pekerja</text></g><g id="elem_UC_INVITE"><ellipse cx="611.8602" cy="363.912" fill="#F1F1F1" rx="87.8602" ry="19.972" style="stroke:#181818;stroke-width:0.5;"/><text fill="#000000" font-family="sans-serif" font-size="14" lengthAdjust="spacing" textLength="133.0957" x="545.3124" y="367.6406">Mengundang Pekerja</text></g><g id="elem_UC_TOGGLE_ACTIVE"><ellipse cx="612.0455" cy="438.7491" fill="#F1F1F1" rx="84.5455" ry="19.3091" style="stroke:#181818;stroke-width:0.5;"/><text fill="#000000" font-family="sans-serif" font-size="14" lengthAdjust="spacing" textLength="125.2822" x="549.4044" y="442.4776">Toggle Aktif Pekerja</text></g><g id="elem_UC_ROLE"><ellipse cx="277.1201" cy="517.964" fill="#F1F1F1" rx="113.1201" ry="25.024" style="stroke:#181818;stroke-width:0.5;"/><text fill="#000000" font-family="sans-serif" font-size="14" lengthAdjust="spacing" textLength="189.875" x="182.1826" y="521.6925">Mengelola Peran &amp; Hak Akses</text></g><g id="elem_UC_CUSTOMER"><ellipse cx="276.8646" cy="598.1129" fill="#F1F1F1" rx="88.8646" ry="20.1729" style="stroke:#181818;stroke-width:0.5;"/><text fill="#000000" font-family="sans-serif" font-size="14" lengthAdjust="spacing" textLength="135.4404" x="209.1444" y="601.8414">Mengelola Pelanggan</text></g><g id="elem_UC_STORE_PROFILE"><ellipse cx="276.8902" cy="673.918" fill="#F1F1F1" rx="92.8902" ry="20.978" style="stroke:#181818;stroke-width:0.5;"/><text fill="#000000" font-family="sans-serif" font-size="14" lengthAdjust="spacing" textLength="144.7441" x="204.5181" y="677.6466">Mengelola Profil Usaha</text></g><g id="elem_UC_PAYMENT_METHOD"><ellipse cx="277.0649" cy="358.753" fill="#F1F1F1" rx="117.0649" ry="25.813" style="stroke:#181818;stroke-width:0.5;"/><text fill="#000000" font-family="sans-serif" font-size="14" lengthAdjust="spacing" textLength="198.4541" x="177.8378" y="362.4815">Mengelola Metode Pembayaran</text></g><g id="elem_UC_LOGIN"><ellipse cx="947.7071" cy="1793.8917" fill="#F1F1F1" rx="35.7071" ry="15.4517" style="stroke:#181818;stroke-width:0.5;"/><text fill="#000000" font-family="sans-serif" font-size="14" lengthAdjust="spacing" textLength="34.2549" x="930.5797" y="1797.6202">Login</text></g><g id="elem_UC_ACTIVATE"><ellipse cx="947.2805" cy="1661.0961" fill="#F1F1F1" rx="68.7805" ry="16.1561" style="stroke:#181818;stroke-width:0.5;"/><text fill="#000000" font-family="sans-serif" font-size="14" lengthAdjust="spacing" textLength="84.0342" x="902.2634" y="1665.6127">Aktivasi Akun</text></g><g id="elem_UC_LOGOUT"><ellipse cx="947.2638" cy="1727.8917" fill="#F1F1F1" rx="41.7638" ry="15.4517" style="stroke:#181818;stroke-width:0.5;"/><text fill="#000000" font-family="sans-serif" font-size="14" lengthAdjust="spacing" textLength="42.8203" x="925.8468" y="1731.6224">Logout</text></g><g id="elem_UC_NOTIF"><ellipse cx="277.165" cy="1400.173" fill="#F1F1F1" rx="76.665" ry="17.733" style="stroke:#181818;stroke-width:0.5;"/><text fill="#000000" font-family="sans-serif" font-size="14" lengthAdjust="spacing" textLength="105.8135" x="221.6861" y="1404.5898">Melihat Notifikasi</text></g><g id="elem_UC_LOW_STOCK"><ellipse cx="276.9996" cy="1477.0399" fill="#F1F1F1" rx="108.4996" ry="24.0999" style="stroke:#181818;stroke-width:0.5;"/><text fill="#000000" font-family="sans-serif" font-size="14" lengthAdjust="spacing" textLength="179.751" x="187.1241" y="1480.7684">Menerima Alert Stok Rendah</text></g><g id="elem_UC_EXPIRED"><ellipse cx="277.0585" cy="1557.0517" fill="#F1F1F1" rx="93.5585" ry="21.1117" style="stroke:#181818;stroke-width:0.5;"/><text fill="#000000" font-family="sans-serif" font-size="14" lengthAdjust="spacing" textLength="146.2754" x="203.9208" y="1560.7802">Menerima Alert Expired</text></g><g id="elem_UC_CATALOG"><ellipse cx="276.8932" cy="937.9186" fill="#F1F1F1" rx="92.8932" ry="20.9786" style="stroke:#181818;stroke-width:0.5;"/><text fill="#000000" font-family="sans-serif" font-size="14" lengthAdjust="spacing" textLength="144.751" x="204.5177" y="941.6471">Melihat Katalog Produk</text></g><g id="elem_UC_HOW_ORDER"><ellipse cx="277.2113" cy="793.0823" fill="#F1F1F1" rx="98.7113" ry="22.1423" style="stroke:#181818;stroke-width:0.5;"/><text fill="#000000" font-family="sans-serif" font-size="14" lengthAdjust="spacing" textLength="157.9717" x="198.2255" y="796.8108">Melihat Cara Pemesanan</text></g><g id="elem_UC_FAQ"><ellipse cx="277.1878" cy="866.1776" fill="#F1F1F1" rx="66.6878" ry="15.7376" style="stroke:#181818;stroke-width:0.5;"/><text fill="#000000" font-family="sans-serif" font-size="14" lengthAdjust="spacing" textLength="77.7998" x="235.2879" y="870.6942">Melihat FAQ</text></g><!--entity owner--><g id="elem_owner"><ellipse cx="39.5" cy="415.94" fill="#F1F1F1" rx="16" ry="16" style="stroke:#181818;stroke-width:0.5;"/><path d="M39.5,435.94 C43.5,435.94 46.5,435.94 50.5,431.94 C58.5,431.94 66.5,439.94 66.5,447.94 L66.5,451.94 C66.5,455.94 62.5,459.94 58.5,459.94 L20.5,459.94 C16.5,459.94 12.5,455.94 12.5,451.94 L12.5,447.94 C12.5,439.94 20.5,431.94 28.5,431.94 C32.5,435.94 35.5,435.94 39.5,435.94 " fill="#F1F1F1" style="stroke:#181818;stroke-width:0.5;"/><text fill="#000000" font-family="sans-serif" font-size="14" lengthAdjust="spacing" textLength="45.1172" x="16.9414" y="474.9732">Pemilik</text></g><!--entity cashier--><g id="elem_cashier"><ellipse cx="39.5" cy="1261.94" fill="#F1F1F1" rx="16" ry="16" style="stroke:#181818;stroke-width:0.5;"/><path d="M39.5,1281.94 C43.5,1281.94 46.5,1281.94 50.5,1277.94 C58.5,1277.94 66.5,1285.94 66.5,1293.94 L66.5,1297.94 C66.5,1301.94 62.5,1305.94 58.5,1305.94 L20.5,1305.94 C16.5,1305.94 12.5,1301.94 12.5,1297.94 L12.5,1293.94 C12.5,1285.94 20.5,1277.94 28.5,1277.94 C32.5,1281.94 35.5,1281.94 39.5,1281.94 " fill="#F1F1F1" style="stroke:#181818;stroke-width:0.5;"/><text fill="#000000" font-family="sans-serif" font-size="14" lengthAdjust="spacing" textLength="31.8965" x="23.5518" y="1320.9732">Kasir</text></g><!--entity production--><g id="elem_production"><ellipse cx="39.5" cy="1891.94" fill="#F1F1F1" rx="16" ry="16" style="stroke:#181818;stroke-width:0.5;"/><path d="M39.5,1911.94 C43.5,1911.94 46.5,1911.94 50.5,1907.94 C58.5,1907.94 66.5,1915.94 66.5,1923.94 L66.5,1927.94 C66.5,1931.94 62.5,1935.94 58.5,1935.94 L20.5,1935.94 C16.5,1935.94 12.5,1931.94 12.5,1927.94 L12.5,1923.94 C12.5,1915.94 20.5,1907.94 28.5,1907.94 C32.5,1911.94 35.5,1911.94 39.5,1911.94 " fill="#F1F1F1" style="stroke:#181818;stroke-width:0.5;"/><text fill="#000000" font-family="sans-serif" font-size="14" lengthAdjust="spacing" textLength="54.4688" x="12.2656" y="1950.9732">Produksi</text></g><!--entity inventory--><g id="elem_inventory"><ellipse cx="39.5" cy="2317.94" fill="#F1F1F1" rx="16" ry="16" style="stroke:#181818;stroke-width:0.5;"/><path d="M39.5,2337.94 C43.5,2337.94 46.5,2337.94 50.5,2333.94 C58.5,2333.94 66.5,2341.94 66.5,2349.94 L66.5,2353.94 C66.5,2357.94 62.5,2361.94 58.5,2361.94 L20.5,2361.94 C16.5,2361.94 12.5,2357.94 12.5,2353.94 L12.5,2349.94 C12.5,2341.94 20.5,2333.94 28.5,2333.94 C32.5,2337.94 35.5,2337.94 39.5,2337.94 " fill="#F1F1F1" style="stroke:#181818;stroke-width:0.5;"/><text fill="#000000" font-family="sans-serif" font-size="14" lengthAdjust="spacing" textLength="53.6963" x="12.6519" y="2376.9732">Inventori</text></g><!--entity customer--><g id="elem_customer"><ellipse cx="39.4756" cy="842.94" fill="#F1F1F1" rx="16" ry="16" style="stroke:#181818;stroke-width:0.5;"/><path d="M39.4756,862.94 C43.4756,862.94 46.4756,862.94 50.4756,858.94 C58.4756,858.94 66.4756,866.94 66.4756,874.94 L66.4756,878.94 C66.4756,882.94 62.4756,886.94 58.4756,886.94 L20.4756,886.94 C16.4756,886.94 12.4756,882.94 12.4756,878.94 L12.4756,874.94 C12.4756,866.94 20.4756,858.94 28.4756,858.94 C32.4756,862.94 35.4756,862.94 39.4756,862.94 " fill="#F1F1F1" style="stroke:#181818;stroke-width:0.5;"/><text fill="#000000" font-family="sans-serif" font-size="14" lengthAdjust="spacing" textLength="66.9512" x="6" y="901.9732">Pelanggan</text></g><!--entity worker--><g id="elem_worker"><ellipse cx="612" cy="2765.94" fill="#F1F1F1" rx="16" ry="16" style="stroke:#181818;stroke-width:0.5;"/><path d="M612,2785.94 C616,2785.94 619,2785.94 623,2781.94 C631,2781.94 639,2789.94 639,2797.94 L639,2801.94 C639,2805.94 635,2809.94 631,2809.94 L593,2809.94 C589,2809.94 585,2805.94 585,2801.94 L585,2797.94 C585,2789.94 593,2781.94 601,2781.94 C605,2785.94 608,2785.94 612,2785.94 " fill="#F1F1F1" style="stroke:#181818;stroke-width:0.5;"/><text fill="#000000" font-family="sans-serif" font-size="14" lengthAdjust="spacing" textLength="47.4688" x="588.2656" y="2824.9732">Pekerja</text></g><!--link worker to UC_ACTIVATE--><g id="link_worker_UC_ACTIVATE"><path d="M639.77,2782.27 C686.83,2769.95 781.2,2742.37 800,2714.94 C816.02,2691.57 790.43,1717.17 808,1694.94 C824.74,1673.77 846.3891,1665.2999 872.5591,1661.5999 " fill="none" id="worker-to-UC_ACTIVATE" style="stroke:#181818;stroke-width:1.0;"/><polygon fill="#181818" points="878.5,1660.76,869.0287,1658.0593,873.5492,1661.46,870.1486,1665.9805,878.5,1660.76" style="stroke:#181818;stroke-width:1.0;"/></g><!--link worker to UC_LOGIN--><g id="link_worker_UC_LOGIN"><path d="M639.63,2800.25 C679.62,2815.26 755.26,2835.62 800,2796.94 C878.63,2728.96 936.4838,1938.2255 945.0038,1815.6955 " fill="none" id="worker-to-UC_LOGIN" style="stroke:#181818;stroke-width:1.0;"/><polygon fill="#181818" points="945.42,1809.71,940.8053,1818.4109,945.0732,1814.698,948.7861,1818.9658,945.42,1809.71" style="stroke:#181818;stroke-width:1.0;"/></g><!--link worker to UC_LOGOUT--><g id="link_worker_UC_LOGOUT"><path d="M639.76,2793.57 C681.36,2799.04 760.83,2802.25 800,2755.94 C817.85,2734.84 790.78,1782.56 808,1760.94 C830.87,1732.22 867.8105,1725.7949 899.8405,1725.3949 " fill="none" id="worker-to-UC_LOGOUT" style="stroke:#181818;stroke-width:1.0;"/><polygon fill="#181818" points="905.84,1725.32,896.7908,1721.4327,900.8404,1725.3824,896.8907,1729.4321,905.84,1725.32" style="stroke:#181818;stroke-width:1.0;"/></g><!--link owner to UC_REPORT_CASHIER--><g id="link_owner_UC_REPORT_CASHIER"><path d="M43.63,478.66 C53.17,595.89 83,934.73 112,974.94 C136.37,1008.73 173.2659,1027.0491 208.9459,1038.6891 " fill="none" id="owner-to-UC_REPORT_CASHIER" style="stroke:#181818;stroke-width:1.0;"/><polygon fill="#181818" points="214.65,1040.55,207.3344,1033.9559,209.8966,1038.9993,204.8532,1041.5614,214.65,1040.55" style="stroke:#181818;stroke-width:1.0;"/></g><!--link owner to UC_REPORT_PROD--><g id="link_owner_UC_REPORT_PROD"><path d="M51.97,399.41 C62.54,370.92 81.33,334.52 112,316.94 C254.29,235.4 364.57,201.44 481,316.94 C500.82,336.6 475.78,1297.35 489,1321.94 C504.59,1350.93 530.0762,1368.8612 556.8562,1382.1612 " fill="none" id="owner-to-UC_REPORT_PROD" style="stroke:#181818;stroke-width:1.0;"/><polygon fill="#181818" points="562.23,1384.83,555.9486,1377.2443,557.7519,1382.606,552.3901,1384.4093,562.23,1384.83" style="stroke:#181818;stroke-width:1.0;"/></g><!--link owner to UC_REPORT_INV--><g id="link_owner_UC_REPORT_INV"><path d="M43.03,399.27 C49.01,319.65 67.08,144.87 112,108.94 C240.67,6 338.9,61.52 481,144.94 C635.87,235.85 718.65,232.84 800,392.94 C909.15,607.73 938.2434,900.0874 944.5634,982.8874 " fill="none" id="owner-to-UC_REPORT_INV" style="stroke:#181818;stroke-width:1.0;"/><polygon fill="#181818" points="945.02,988.87,948.3234,979.5917,944.6395,983.8845,940.3466,980.2005,945.02,988.87" style="stroke:#181818;stroke-width:1.0;"/></g><!--link owner to UC_WORKER--><g id="link_owner_UC_WORKER"><path d="M67.06,438.94 C98.27,438.94 145.52,438.94 190.45,438.94 " fill="none" id="owner-to-UC_WORKER" style="stroke:#181818;stroke-width:1.0;"/><polygon fill="#181818" points="196.45,438.94,187.45,434.94,191.45,438.94,187.45,442.94,196.45,438.94" style="stroke:#181818;stroke-width:1.0;"/></g><!--link owner to UC_INVITE--><g id="link_owner_UC_INVITE"><path d="M44.99,399.26 C53.67,330.62 75.2,194.34 112,165.94 C242.08,65.54 347.41,93.26 481,188.94 C539.77,231.03 580.5084,302.3726 598.7784,338.6026 " fill="none" id="owner-to-UC_INVITE" style="stroke:#181818;stroke-width:1.0;"/><polygon fill="#181818" points="601.48,343.96,600.9992,334.1229,599.2287,339.4955,593.856,337.725,601.48,343.96" style="stroke:#181818;stroke-width:1.0;"/></g><!--link owner to UC_TOGGLE_ACTIVE--><g id="link_owner_UC_TOGGLE_ACTIVE"><path d="M39.89,399.24 C41.56,351.81 52.48,274.19 103,236.94 C238.22,137.24 359.35,121.08 481,236.94 C494.21,249.52 477.83,386.51 489,400.94 C500.48,415.76 511.9479,423.135 529.8279,428.775 " fill="none" id="owner-to-UC_TOGGLE_ACTIVE" style="stroke:#181818;stroke-width:1.0;"/><polygon fill="#181818" points="535.55,430.58,528.1702,424.0579,530.7816,429.0759,525.7636,431.6873,535.55,430.58" style="stroke:#181818;stroke-width:1.0;"/></g><!--link owner to UC_ROLE--><g id="link_owner_UC_ROLE"><path d="M67.06,453.99 C80.27,461.04 96.66,469.14 112,474.94 C138.71,485.04 162.903,492.1796 189.883,498.9996 " fill="none" id="owner-to-UC_ROLE" style="stroke:#181818;stroke-width:1.0;"/><polygon fill="#181818" points="195.7,500.47,187.9547,494.3863,190.8525,499.2446,185.9942,502.1424,195.7,500.47" style="stroke:#181818;stroke-width:1.0;"/></g><!--link owner to UC_CUSTOMER--><g id="link_owner_UC_CUSTOMER"><path d="M54.26,478.52 C65.65,505.45 84.45,539.75 112,559.94 C135.1,576.87 158.6588,585.2724 186.2088,590.5924 " fill="none" id="owner-to-UC_CUSTOMER" style="stroke:#181818;stroke-width:1.0;"/><polygon fill="#181818" points="192.1,591.73,184.0217,586.0961,187.1907,590.782,182.5048,593.951,192.1,591.73" style="stroke:#181818;stroke-width:1.0;"/></g><!--link owner to UC_STORE_PROFILE--><g id="link_owner_UC_STORE_PROFILE"><path d="M43.98,478.56 C50.05,523.14 66.68,594.61 112,634.94 C132.55,653.23 154.2424,662.1445 180.9124,667.6145 " fill="none" id="owner-to-UC_STORE_PROFILE" style="stroke:#181818;stroke-width:1.0;"/><polygon fill="#181818" points="186.79,668.82,178.7772,663.0933,181.892,667.8154,177.1699,670.9302,186.79,668.82" style="stroke:#181818;stroke-width:1.0;"/></g><!--link owner to UC_PAYMENT_METHOD--><g id="link_owner_UC_PAYMENT_METHOD"><path d="M67.07,423.93 C80.29,416.89 96.68,408.78 112,402.94 C138.17,392.96 161.6936,385.8418 188.2336,378.9318 " fill="none" id="owner-to-UC_PAYMENT_METHOD" style="stroke:#181818;stroke-width:1.0;"/><polygon fill="#181818" points="194.04,377.42,184.3225,375.8167,189.2013,378.6798,186.3382,383.5586,194.04,377.42" style="stroke:#181818;stroke-width:1.0;"/></g><!--link owner to UC_NOTIF--><g id="link_owner_UC_NOTIF"><path d="M44.14,478.62 C50.32,546.35 63.14,688.6 73,808.94 C75.33,837.43 95.83,1298.37 112,1321.94 C136.62,1357.82 176.5866,1376.0117 213.5166,1386.7017 " fill="none" id="owner-to-UC_NOTIF" style="stroke:#181818;stroke-width:1.0;"/><polygon fill="#181818" points="219.28,1388.37,211.7471,1382.0253,214.4772,1386.9797,209.5227,1389.7098,219.28,1388.37" style="stroke:#181818;stroke-width:1.0;"/></g><!--link cashier to UC_ORDER--><g id="link_cashier_UC_ORDER"><path d="M67.14,1268.06 C80.24,1260.38 96.5,1251.73 112,1245.94 C142.31,1234.61 171.2786,1227.4763 201.0386,1221.7363 " fill="none" id="cashier-to-UC_ORDER" style="stroke:#181818;stroke-width:1.0;"/><polygon fill="#181818" points="206.93,1220.6,197.3353,1218.3769,202.0205,1221.5469,198.8504,1226.2321,206.93,1220.6" style="stroke:#181818;stroke-width:1.0;"/></g><!--link cashier to UC_PAYMENT--><g id="link_cashier_UC_PAYMENT"><path d="M41.99,1324.54 C46.18,1411.56 61.3,1615.05 112,1656.94 C238.44,1761.39 363.45,1771.3 481,1656.94 C492.59,1645.66 481.2,1380.11 489,1365.94 C504.94,1336.99 530.5986,1319.0136 557.3786,1305.6836 " fill="none" id="cashier-to-UC_PAYMENT" style="stroke:#181818;stroke-width:1.0;"/><polygon fill="#181818" points="562.75,1303.01,552.9105,1303.4396,558.2739,1305.238,556.4754,1310.6014,562.75,1303.01" style="stroke:#181818;stroke-width:1.0;"/></g><!--link cashier to UC_RECEIPT--><g id="link_cashier_UC_RECEIPT"><path d="M43.69,1324.69 C50.69,1400.39 70.19,1560.7 112,1593.94 C215.5,1676.22 298.89,1666.38 409.5,1593.94 C476.02,1550.38 463.1,1507.41 481,1429.94 C485.66,1409.79 476.14,1260.14 489,1243.94 C501.65,1228.01 515.2517,1220.5752 534.9217,1215.7652 " fill="none" id="cashier-to-UC_RECEIPT" style="stroke:#181818;stroke-width:1.0;"/><polygon fill="#181818" points="540.75,1214.34,531.0574,1212.5923,535.8931,1215.5277,532.9577,1220.3633,540.75,1214.34" style="stroke:#181818;stroke-width:1.0;"/></g><!--link cashier to UC_CANCEL_ORDER--><g id="link_cashier_UC_CANCEL_ORDER"><path d="M67.06,1284.94 C95.63,1284.94 136.65,1284.94 178.86,1284.94 " fill="none" id="cashier-to-UC_CANCEL_ORDER" style="stroke:#181818;stroke-width:1.0;"/><polygon fill="#181818" points="184.86,1284.94,175.86,1280.94,179.86,1284.94,175.86,1288.94,184.86,1284.94" style="stroke:#181818;stroke-width:1.0;"/></g><!--link cashier to UC_SHIFT--><g id="link_cashier_UC_SHIFT"><path d="M56.48,1245.4 C68.31,1220.99 86.76,1190.99 112,1172.94 C133.33,1157.68 153.9542,1149.5515 179.3442,1143.6815 " fill="none" id="cashier-to-UC_SHIFT" style="stroke:#181818;stroke-width:1.0;"/><polygon fill="#181818" points="185.19,1142.33,175.5203,1140.4601,180.3185,1143.4563,177.3223,1148.2545,185.19,1142.33" style="stroke:#181818;stroke-width:1.0;"/></g><!--link cashier to UC_REPORT_CASHIER--><g id="link_cashier_UC_REPORT_CASHIER"><path d="M44.3,1245.28 C50.65,1201.49 67.51,1132.04 112,1092.94 C133.29,1074.23 156.1045,1065.3551 183.5445,1060.1651 " fill="none" id="cashier-to-UC_REPORT_CASHIER" style="stroke:#181818;stroke-width:1.0;"/><polygon fill="#181818" points="189.44,1059.05,179.8534,1056.7923,184.5271,1059.9792,181.3402,1064.6529,189.44,1059.05" style="stroke:#181818;stroke-width:1.0;"/></g><!--link cashier to UC_NOTIF--><g id="link_cashier_UC_NOTIF"><path d="M67.21,1299.03 C80.6,1306.03 97.1,1314.55 112,1321.94 C156.76,1344.16 203.5225,1366.2235 236.7925,1381.7435 " fill="none" id="cashier-to-UC_NOTIF" style="stroke:#181818;stroke-width:1.0;"/><polygon fill="#181818" points="242.23,1384.28,235.7648,1376.8503,237.6988,1382.1662,232.3828,1384.1002,242.23,1384.28" style="stroke:#181818;stroke-width:1.0;"/></g><!--link production to UC_PLAN_PROD--><g id="link_production_UC_PLAN_PROD"><path d="M67.05,1916.53 C153.54,1921.1 424.84,1930.3 481,1869.94 C501.44,1847.97 470.94,1623.91 489,1599.94 C499.03,1586.62 508.0417,1579.856 523.7017,1573.986 " fill="none" id="production-to-UC_PLAN_PROD" style="stroke:#181818;stroke-width:1.0;"/><polygon fill="#181818" points="529.32,1571.88,519.4886,1571.2934,524.6381,1573.635,522.2966,1578.7844,529.32,1571.88" style="stroke:#181818;stroke-width:1.0;"/></g><!--link production to UC_START_PROD--><g id="link_production_UC_START_PROD"><path d="M67.15,1928.14 C143.63,1963.93 365.7,2052.86 481,1940.94 C502.46,1920.11 470.74,1695.62 489,1671.94 C500.87,1656.55 513.2154,1649.1191 531.8954,1643.8491 " fill="none" id="production-to-UC_START_PROD" style="stroke:#181818;stroke-width:1.0;"/><polygon fill="#181818" points="537.67,1642.22,527.922,1640.814,532.8578,1643.5776,530.0942,1648.5134,537.67,1642.22" style="stroke:#181818;stroke-width:1.0;"/></g><!--link production to UC_FINISH_PROD--><g id="link_production_UC_FINISH_PROD"><path d="M55.1,1954.73 C65.11,1975.79 80.66,1999.76 103,2011.94 C250.5,2092.37 360.41,2128.91 481,2011.94 C501.91,1991.66 471.47,1773.2 489,1749.94 C499.04,1736.62 508.0517,1729.866 523.7117,1723.996 " fill="none" id="production-to-UC_FINISH_PROD" style="stroke:#181818;stroke-width:1.0;"/><polygon fill="#181818" points="529.33,1721.89,519.4986,1721.3034,524.6481,1723.645,522.3066,1728.7944,529.33,1721.89" style="stroke:#181818;stroke-width:1.0;"/></g><!--link production to UC_CANCEL_PROD--><g id="link_production_UC_CANCEL_PROD"><path d="M42.85,1954.62 C47.57,1994.54 61.6,2054.17 103,2082.94 C240.96,2178.81 340.22,2174.62 481,2082.94 C577.81,2019.9 602.4136,1872.5451 608.5236,1816.1651 " fill="none" id="production-to-UC_CANCEL_PROD" style="stroke:#181818;stroke-width:1.0;"/><polygon fill="#181818" points="609.17,1810.2,604.2236,1818.7166,608.6313,1815.1709,612.177,1819.5786,609.17,1810.2" style="stroke:#181818;stroke-width:1.0;"/></g><!--link production to UC_QUEUE_PROD--><g id="link_production_UC_QUEUE_PROD"><path d="M67.3,1902.93 C80.57,1897.27 96.94,1890.74 112,1885.94 C272.55,1834.79 374.52,1929.53 481,1798.94 C500.46,1775.08 470.49,1546.54 489,1521.94 C499.03,1508.61 508.0313,1501.8548 523.7013,1495.9848 " fill="none" id="production-to-UC_QUEUE_PROD" style="stroke:#181818;stroke-width:1.0;"/><polygon fill="#181818" points="529.32,1493.88,519.4887,1493.2914,524.6377,1495.634,522.2951,1500.783,529.32,1493.88" style="stroke:#181818;stroke-width:1.0;"/></g><!--link production to UC_REPORT_PROD--><g id="link_production_UC_REPORT_PROD"><path d="M67.3,1883.97 C79.81,1871.07 95.55,1856.82 112,1846.94 C261.98,1756.88 388.64,1858.51 481,1709.94 C496.61,1684.83 471.29,1467.62 489,1443.94 C498.81,1430.82 507.4524,1424.1161 522.7624,1418.1261 " fill="none" id="production-to-UC_REPORT_PROD" style="stroke:#181818;stroke-width:1.0;"/><polygon fill="#181818" points="528.35,1415.94,518.5112,1415.4941,523.6937,1417.7618,521.4261,1422.9442,528.35,1415.94" style="stroke:#181818;stroke-width:1.0;"/></g><!--link production to UC_NOTIF--><g id="link_production_UC_NOTIF"><path d="M40.81,1875.15 C42.44,1771.78 52.44,1498.34 112,1434.94 C134.53,1410.96 163.1518,1401.9472 194.7718,1398.6772 " fill="none" id="production-to-UC_NOTIF" style="stroke:#181818;stroke-width:1.0;"/><polygon fill="#181818" points="200.74,1398.06,191.3763,1395.007,195.7665,1398.5743,192.1992,1402.9646,200.74,1398.06" style="stroke:#181818;stroke-width:1.0;"/></g><!--link inventory to UC_PRODUCT--><g id="link_inventory_UC_PRODUCT"><path d="M67.12,2343.9 C189.66,2356.91 697.8,2403.59 800,2295.94 C820.96,2273.86 789.29,1223.96 808,1199.94 C822.58,1181.22 839.6898,1172.7012 862.7698,1167.8212 " fill="none" id="inventory-to-UC_PRODUCT" style="stroke:#181818;stroke-width:1.0;"/><polygon fill="#181818" points="868.64,1166.58,859.0072,1164.5283,863.7482,1167.6143,860.6621,1172.3553,868.64,1166.58" style="stroke:#181818;stroke-width:1.0;"/></g><!--link inventory to UC_MATERIAL--><g id="link_inventory_UC_MATERIAL"><path d="M67.02,2331.87 C78.05,2328.37 91.04,2324.57 103,2321.94 C255.72,2288.32 696.9,2342.52 800,2224.94 C820.09,2202.03 789.51,1152.17 808,1127.94 C820.58,1111.46 833.8026,1103.2488 853.7126,1097.4088 " fill="none" id="inventory-to-UC_MATERIAL" style="stroke:#181818;stroke-width:1.0;"/><polygon fill="#181818" points="859.47,1095.72,849.708,1094.4149,854.6721,1097.1273,851.9597,1102.0914,859.47,1095.72" style="stroke:#181818;stroke-width:1.0;"/></g><!--link inventory to UC_EXPENSE--><g id="link_inventory_UC_EXPENSE"><path d="M42.45,2380.45 C47.11,2456.16 61.74,2617.17 103,2650.94 C222.86,2749.04 690.05,2760.03 800,2650.94 C820.15,2630.94 793.64,1653.43 808,1628.94 C827.04,1596.46 859.3182,1578.313 890.6682,1566.453 " fill="none" id="inventory-to-UC_EXPENSE" style="stroke:#181818;stroke-width:1.0;"/><polygon fill="#181818" points="896.28,1564.33,886.4469,1563.7733,891.6035,1566.0992,889.2776,1571.2558,896.28,1564.33" style="stroke:#181818;stroke-width:1.0;"/></g><!--link inventory to UC_STOCK_COUNT--><g id="link_inventory_UC_STOCK_COUNT"><path d="M67.15,2354.75 C77.97,2359.62 90.78,2364.5 103,2366.94 C254.89,2397.27 690.08,2476.06 800,2366.94 C821.51,2345.59 789.53,1299.97 808,1275.94 C820.76,1259.33 834.2839,1251.1537 854.4539,1245.4837 " fill="none" id="inventory-to-UC_STOCK_COUNT" style="stroke:#181818;stroke-width:1.0;"/><polygon fill="#181818" points="860.23,1243.86,850.4833,1242.4448,855.4166,1245.2131,852.6483,1250.1463,860.23,1243.86" style="stroke:#181818;stroke-width:1.0;"/></g><!--link inventory to UC_INVENTORY_FLOW--><g id="link_inventory_UC_INVENTORY_FLOW"><path d="M55.1,2380.73 C65.11,2401.79 80.66,2425.76 103,2437.94 C238.99,2512.09 690.07,2547.06 800,2437.94 C821.37,2416.73 789.73,1377.88 808,1353.94 C820.28,1337.85 832.9093,1329.7847 852.2893,1323.8947 " fill="none" id="inventory-to-UC_INVENTORY_FLOW" style="stroke:#181818;stroke-width:1.0;"/><polygon fill="#181818" points="858.03,1322.15,848.2558,1320.9399,853.2461,1323.6039,850.5821,1328.5942,858.03,1322.15" style="stroke:#181818;stroke-width:1.0;"/></g><!--link inventory to UC_REPORT_INV--><g id="link_inventory_UC_REPORT_INV"><path d="M67.3,2318.7 C80.3,2308.55 96.44,2296.83 112,2287.94 C236.67,2216.68 280.2,2224.4 409.5,2161.94 C596.72,2071.51 625.71,2002.82 735,1825.94 C774.05,1762.74 784.79,1744.66 800,1671.94 C803.54,1655.03 797.48,1063.65 808,1049.94 C819.79,1034.58 831.4211,1026.7963 849.8811,1020.8263 " fill="none" id="inventory-to-UC_REPORT_INV" style="stroke:#181818;stroke-width:1.0;"/><polygon fill="#181818" points="855.59,1018.98,845.7958,1017.9435,850.8326,1020.5186,848.2575,1025.5553,855.59,1018.98" style="stroke:#181818;stroke-width:1.0;"/></g><!--link inventory to UC_CAT_INV--><g id="link_inventory_UC_CAT_INV"><path d="M42.85,2380.62 C47.57,2420.54 61.6,2480.17 103,2508.94 C230.19,2597.33 690.07,2618.05 800,2508.94 C821.08,2488.02 790.3,1463.78 808,1439.94 C818.21,1426.19 827.2084,1418.9959 843.0884,1412.4859 " fill="none" id="inventory-to-UC_CAT_INV" style="stroke:#181818;stroke-width:1.0;"/><polygon fill="#181818" points="848.64,1410.21,838.7953,1409.9227,844.0137,1412.1066,841.8298,1417.3249,848.64,1410.21" style="stroke:#181818;stroke-width:1.0;"/></g><!--link inventory to UC_SUPPLIER--><g id="link_inventory_UC_SUPPLIER"><path d="M45.07,2380.8 C53.04,2442.29 71.68,2555.76 103,2579.94 C225.6,2674.6 690.07,2689.05 800,2579.94 C821.02,2559.08 789.88,1537.36 808,1513.94 C822.09,1495.73 838.2356,1487.2078 860.5756,1482.0178 " fill="none" id="inventory-to-UC_SUPPLIER" style="stroke:#181818;stroke-width:1.0;"/><polygon fill="#181818" points="866.42,1480.66,856.7483,1478.8004,861.5497,1481.7915,858.5586,1486.5929,866.42,1480.66" style="stroke:#181818;stroke-width:1.0;"/></g><!--link inventory to UC_NOTIF--><g id="link_inventory_UC_NOTIF"><path d="M44.19,2301.37 C50.43,2233.83 63.36,2091.97 73,1971.94 C75.4,1942.12 92.35,1457.5 112,1434.94 C133.89,1409.8 163.0358,1400.706 195.1658,1397.716 " fill="none" id="inventory-to-UC_NOTIF" style="stroke:#181818;stroke-width:1.0;"/><polygon fill="#181818" points="201.14,1397.16,191.8081,1394.0111,196.1615,1397.6233,192.5494,1401.9767,201.14,1397.16" style="stroke:#181818;stroke-width:1.0;"/></g><!--link inventory to UC_LOW_STOCK--><g id="link_inventory_UC_LOW_STOCK"><path d="M44.01,2301.35 C50.01,2233.8 62.56,2091.91 73,1971.94 C73.27,1968.79 109.95,1520.35 112,1517.94 C127.23,1500.07 143.1669,1490.9588 165.8469,1484.6888 " fill="none" id="inventory-to-UC_LOW_STOCK" style="stroke:#181818;stroke-width:1.0;"/><polygon fill="#181818" points="171.63,1483.09,161.8895,1481.6328,166.8108,1484.4223,164.0212,1489.3435,171.63,1483.09" style="stroke:#181818;stroke-width:1.0;"/></g><!--link inventory to UC_EXPIRED--><g id="link_inventory_UC_EXPIRED"><path d="M52.42,2301.25 C94.87,2159.93 236.1036,1689.7463 267.9536,1583.7363 " fill="none" id="inventory-to-UC_EXPIRED" style="stroke:#181818;stroke-width:1.0;"/><polygon fill="#181818" points="269.68,1577.99,263.2595,1585.4584,268.2413,1582.7785,270.9212,1587.7603,269.68,1577.99" style="stroke:#181818;stroke-width:1.0;"/></g><!--link customer to UC_CATALOG--><g id="link_customer_UC_CATALOG"><path d="M73.04,882.62 C85.07,888.34 98.95,894.43 112,898.94 C142.15,909.37 170.5004,916.6898 199.8404,923.1498 " fill="none" id="customer-to-UC_CATALOG" style="stroke:#181818;stroke-width:1.0;"/><polygon fill="#181818" points="205.7,924.44,197.7706,918.5983,200.817,923.3649,196.0504,926.4112,205.7,924.44" style="stroke:#181818;stroke-width:1.0;"/></g><!--link customer to UC_HOW_ORDER--><g id="link_customer_UC_HOW_ORDER"><path d="M73.06,849.3 C85.08,843.59 98.96,837.49 112,832.94 C141.19,822.75 168.3318,815.5113 197.0218,808.9313 " fill="none" id="customer-to-UC_HOW_ORDER" style="stroke:#181818;stroke-width:1.0;"/><polygon fill="#181818" points="202.87,807.59,193.2036,805.7031,197.9965,808.7077,194.9919,813.5007,202.87,807.59" style="stroke:#181818;stroke-width:1.0;"/></g><!--link customer to UC_FAQ--><g id="link_customer_UC_FAQ"><path d="M73.25,865.94 C108.51,865.94 159.54,865.94 204.16,865.94 " fill="none" id="customer-to-UC_FAQ" style="stroke:#181818;stroke-width:1.0;"/><polygon fill="#181818" points="210.16,865.94,201.16,861.94,205.16,865.94,201.16,869.94,210.16,865.94" style="stroke:#181818;stroke-width:1.0;"/></g><!--reverse link UC_WORKER to UC_INVITE--><g id="link_UC_WORKER_UC_INVITE"><path d="M352.7997,422.0931 C412.3097,408.6831 487.59,391.73 548.85,377.94 " fill="none" id="UC_WORKER-backto-UC_INVITE" style="stroke:#181818;stroke-width:1.0;"/><polygon fill="none" points="335.24,426.05,354.1187,427.9463,351.4807,416.2399,335.24,426.05" style="stroke:#181818;stroke-width:1.0;"/><text fill="#000000" font-family="sans-serif" font-size="13" lengthAdjust="spacing" textLength="53.4917" x="426" y="391.4351">&#171;extend&#187;</text></g><!--reverse link UC_WORKER to UC_TOGGLE_ACTIVE--><g id="link_UC_WORKER_UC_TOGGLE_ACTIVE"><path d="M375.76,438.94 C426.94,438.94 475.3,438.94 527.24,438.94 " fill="none" id="UC_WORKER-backto-UC_TOGGLE_ACTIVE" style="stroke:#181818;stroke-width:1.0;"/><polygon fill="none" points="357.76,438.94,375.76,444.94,375.76,432.94,357.76,438.94" style="stroke:#181818;stroke-width:1.0;"/><text fill="#000000" font-family="sans-serif" font-size="13" lengthAdjust="spacing" textLength="53.4917" x="426" y="435.4351">&#171;extend&#187;</text></g><!--reverse link UC_EXPENSE to UC_PLAN_EXP--><g id="link_UC_EXPENSE_UC_PLAN_EXP"><path d="M1046.2597,1549.3295 C1091.8497,1549.0495 1131.18,1548.8 1178.51,1548.51 " fill="none" id="UC_EXPENSE-backto-UC_PLAN_EXP" style="stroke:#181818;stroke-width:1.0;"/><polygon fill="none" points="1028.26,1549.44,1046.2965,1555.3293,1046.2228,1543.3296,1028.26,1549.44" style="stroke:#181818;stroke-width:1.0;"/><text fill="#000000" font-family="sans-serif" font-size="13" lengthAdjust="spacing" textLength="53.4917" x="1094" y="1545.4351">&#171;extend&#187;</text></g><!--reverse link UC_EXPENSE to UC_START_EXP--><g id="link_UC_EXPENSE_UC_START_EXP"><path d="M1021.926,1532.5538 C1081.746,1518.3938 1158.37,1500.25 1216.89,1486.4 " fill="none" id="UC_EXPENSE-backto-UC_START_EXP" style="stroke:#181818;stroke-width:1.0;"/><polygon fill="none" points="1004.41,1536.7,1023.308,1538.3924,1020.5439,1526.7151,1004.41,1536.7" style="stroke:#181818;stroke-width:1.0;"/><text fill="#000000" font-family="sans-serif" font-size="13" lengthAdjust="spacing" textLength="53.4917" x="1094" y="1499.4351">&#171;extend&#187;</text></g><!--reverse link UC_EXPENSE to UC_FINISH_EXP--><g id="link_UC_EXPENSE_UC_FINISH_EXP"><path d="M1025.1253,1532.4391 C1043.7853,1526.8191 1046.56,1524.05 1063,1512.94 C1080.26,1501.28 1076.4,1489.52 1093,1476.94 C1125.99,1451.96 1140.08,1455.5 1178,1438.94 C1193.51,1432.17 1210.55,1424.87 1225.68,1418.43 " fill="none" id="UC_EXPENSE-backto-UC_FINISH_EXP" style="stroke:#181818;stroke-width:1.0;"/><polygon fill="none" points="1007.89,1537.63,1026.8556,1538.1842,1023.395,1526.694,1007.89,1537.63" style="stroke:#181818;stroke-width:1.0;"/><text fill="#000000" font-family="sans-serif" font-size="13" lengthAdjust="spacing" textLength="53.4917" x="1094" y="1447.4351">&#171;extend&#187;</text></g><!--link UC_ORDER to UC_PAYMENT--><g id="link_UC_ORDER_UC_PAYMENT"><path d="M337.53,1223.17 C394.78,1235.89 475.4229,1253.8083 535.7629,1267.2183 " fill="none" id="UC_ORDER-to-UC_PAYMENT" style="stroke:#181818;stroke-width:1.0;stroke-dasharray:7.0,7.0;"/><polygon fill="#181818" points="541.62,1268.52,533.7021,1262.6627,536.7391,1267.4353,531.9666,1270.4722,541.62,1268.52" style="stroke:#181818;stroke-width:1.0;"/><text fill="#000000" font-family="sans-serif" font-size="13" lengthAdjust="spacing" textLength="55.6563" x="425" y="1239.4351">&#171;include&#187;</text></g><!--link UC_ORDER to UC_RECEIPT--><g id="link_UC_ORDER_UC_RECEIPT"><path d="M361.17,1209.94 C415.69,1209.94 480.27,1209.94 532.49,1209.94 " fill="none" id="UC_ORDER-to-UC_RECEIPT" style="stroke:#181818;stroke-width:1.0;stroke-dasharray:7.0,7.0;"/><polygon fill="#181818" points="538.49,1209.94,529.49,1205.94,533.49,1209.94,529.49,1213.94,538.49,1209.94" style="stroke:#181818;stroke-width:1.0;"/><text fill="#000000" font-family="sans-serif" font-size="13" lengthAdjust="spacing" textLength="55.6563" x="425" y="1206.4351">&#171;include&#187;</text></g><!--link UC_ORDER to UC_QUEUE_PROD--><g id="link_UC_ORDER_UC_QUEUE_PROD"><path d="M353.12,1218.12 C373.31,1223.41 393.85,1232.01 409.5,1245.94 C411.7,1247.9 486.85,1440.92 489,1442.94 C502.1,1455.2 513.3599,1461.7379 530.4099,1467.6379 " fill="none" id="UC_ORDER-to-UC_QUEUE_PROD" style="stroke:#181818;stroke-width:1.0;stroke-dasharray:7.0,7.0;"/><polygon fill="#181818" points="536.08,1469.6,528.8829,1462.8768,531.3549,1467.9649,526.2668,1470.4369,536.08,1469.6" style="stroke:#181818;stroke-width:1.0;"/><text fill="#000000" font-family="sans-serif" font-size="13" lengthAdjust="spacing" textLength="55.6563" x="425" y="1281.4351">&#171;include&#187;</text></g><!--link UC_START_PROD to UC_MATERIAL--><g id="link_UC_START_PROD_UC_MATERIAL"><path d="M685.01,1628.94 C703.78,1623.67 722.29,1614.78 735,1599.94 C743.75,1589.72 741.06,1553.25 743,1539.94 C769.7,1356.5 684.88,1266.52 808,1127.94 C821.85,1112.35 835.6376,1104.4518 855.6976,1098.6318 " fill="none" id="UC_START_PROD-to-UC_MATERIAL" style="stroke:#181818;stroke-width:1.0;stroke-dasharray:7.0,7.0;"/><polygon fill="#181818" points="861.46,1096.96,851.7019,1095.6262,856.658,1098.3532,853.931,1103.3093,861.46,1096.96" style="stroke:#181818;stroke-width:1.0;"/><text fill="#000000" font-family="sans-serif" font-size="13" lengthAdjust="spacing" textLength="55.6563" x="744" y="1141.4351">&#171;include&#187;</text></g><!--link UC_FINISH_PROD to UC_PRODUCT--><g id="link_UC_FINISH_PROD_UC_PRODUCT"><path d="M684.29,1696.71 C702.09,1690.8 720.29,1682.52 735,1670.94 C778.13,1637 784.41,1618.56 800,1565.94 C805.78,1546.44 795.38,1215.89 808,1199.94 C822.72,1181.33 839.8609,1172.8466 862.9309,1167.9466 " fill="none" id="UC_FINISH_PROD-to-UC_PRODUCT" style="stroke:#181818;stroke-width:1.0;stroke-dasharray:7.0,7.0;"/><polygon fill="#181818" points="868.8,1166.7,859.1653,1164.6571,863.9091,1167.7388,860.8274,1172.4826,868.8,1166.7" style="stroke:#181818;stroke-width:1.0;"/><text fill="#000000" font-family="sans-serif" font-size="13" lengthAdjust="spacing" textLength="55.6563" x="744" y="1562.4351">&#171;include&#187;</text></g><!--link UC_INVITE to UC_ACTIVATE--><g id="link_UC_INVITE_UC_ACTIVATE"><path d="M689.94,373.24 C707.14,378.92 723.64,387.88 735,401.94 C835.55,526.38 791.4,959.18 800,1118.94 C800.7,1131.87 801.31,1573.86 808,1584.94 C828.2,1618.4 863.1415,1636.2223 895.2015,1647.1623 " fill="none" id="UC_INVITE-to-UC_ACTIVATE" style="stroke:#181818;stroke-width:1.0;stroke-dasharray:7.0,7.0;"/><polygon fill="#181818" points="900.88,1649.1,893.6541,1642.4078,896.1479,1647.4852,891.0705,1649.9791,900.88,1649.1" style="stroke:#181818;stroke-width:1.0;"/><text fill="#000000" font-family="sans-serif" font-size="13" lengthAdjust="spacing" textLength="55.6563" x="744" y="415.4351">&#171;include&#187;</text></g><!--SRC=[XLZRSjiu37tNLt3oiEq-f1-masI6TUXOQrbIT6dQ9mzZCmuZMVBeqZJJxRylI8dKXPATbyG4G004S72SbBrKgCfHmG-l5ThpWkqgdcTMcV3iH0jwH2UwI-Y1XTL7of0Gq-oGifu2tLLvqOZfEolp8xEiJ-ZszXRXTUG5uYzBwg0hdnrvofChH4kKlsUiK88rBNaXZtUqVEMTm2_oVPsKNCfEuaCJNoksivyiWxyQEMy_VNJ-KeZsGBFcwhgi8Bf2XHVQOKGsCZwT5xeAULcn8xApbxmuGbXeGpFwneuiGr6Uv6XTiolqsx8G_7n2rzVNQEFTnmvQuz0En6SfQLyDNMqWv1Ir-VsMCl5Jbmmo5NAM7LYQfnJvh0HFJQZnOki5zoIOqZ_2CvIi1FtZC_s04cWJ7__O43UQTB9Z5KrGM1LrejG3iY2sFwaEDrSqJMWsZcg1tGLnveDJoOGCNivdsLjDqyuwNDdBINyfVwKLSkWfXtHGrmqoIjyB8d0CngtFF-Rh-m7yMeVsN06wFfgiGG4F16dAXFiT9nxLmUvMN3_vJdLAkM4IHXWYdhF9FbWAZygdd2rjrmvNy-wwiemCsxhC6JRlYxEgu1F6Zp69oGLRLPknRLiURJnH6zlz1btf1RF5wKtn-GcHldLXHCaNqJc3h_GLGlvAarePRN140XixPwq4QhnHPKA- -yGDoOMs6Hd9hW7B-QOP6JGzCsFHRvcHNTinSuPg7AiyGIjUrTcXS-Wjrjk55xjd9XAdTG5ZN9HipsatnwgYFxPBntkwt3H3cEww1kuv5_MQLkm0LXCHBF15wx0-dL9O9JhXsFUTCn2omIx-bm20phMfNWGNWJnXHLUX9ozOpu5bdUrXxOmj834xccYuA3-85OMJYh-CRIBluS4XMxo8x6_aV7IY8d-X5Qm3dC0YqJNnd0k6_MKgQX133stExm4OsHUUehY4IUnrNY3XPccVzxXXLRvdyujkko7HQXvtS1o1aYqMyrn9SLr1Oy9SpMm69pzmxTNn7cpNr17b-2c80avghIlhWAUA25VcTTMxqukZkGnSBxANPnDmS-Y5-VZL8FRL6iVowid7PmK_KfXyLbGDRWGCklIrY_YfmOwBnkJN2VZaleUZTa1cgmM0UM-x3yZ73sGkMuTcUoxc1SxEvhiMUp8_Z3O6W0Q61vytMq2JYNORSfuLP3nBU1h39NxKW8mVsnJ_AA8P44UKiA73roWE2G8wGoJp19Lsaj7daZspj0RANMSV51Kvp7fv0Y85bVkxexJTsB_d1Nomcb_mPdU3pXiUDyrhd8dcao58OWx1KG49wCIo-jMI55qfZtZOb4oIW2c1GEh1UOk9WxCMzGPdGrGRNYtWQd2YyMXmEaIRWMW48mDPCn_mD9ACMktN4YLjsc5qgEZtw5ZHxD7nW4cFP0rFDkuP560arV4gWcPrtvPqW9hAch8UPpM5VLfgIllSqvJsoAKfx3UEATKvQVvWwQzuEgUM1He2pVGCYI9qXg1FYGpXYFCOybwh6pB5LaoFYfCOaYPtuxX3twcq9BxASMvNDVfygfzJ0H_gosyl98c5u_CExCOI0Mn3G2FVOS7U0vUmtOKJtsj0CwWGOhzWp-vBIuy-klaFa5zFFVe7tTmqIdTt4re371Wg3_orvBZlhwsslaenSyFbM54pyekQ7GStGhEpNLhlnJzEKYfQ6sRs9CEIRuo-VEaZXxJcZKNZQQ3L0ia5hMxUJCLko9MscX9JjpVpEincrapTjeYjcjf08xt_0G00]--></g></svg>