<svg xmlns="http://www.w3.org/2000/svg" xmlns:xlink="http://www.w3.org/1999/xlink" contentStyleType="text/css" height="2922px" preserveAspectRatio="none" style="width:1744px;height:2922px;background:#FFFFFF;" version="1.1" viewBox="0 0 1744 2922" width="1744px" zoomAndPan="magnify"><defs/><g><!--cluster Sistem Informasi Manajemen Toko Kue--><g id="cluster_Sistem Informasi Manajemen Toko Kue"><rect fill="none" height="1452" rx="2.5" ry="2.5" style="stroke:#181818;stroke-width:1.0;" width="1618" x="120" y="878.32"/><text fill="#000000" font-family="sans-serif" font-size="14" font-weight="bold" lengthAdjust="spacing" textLength="260.6201" x="798.6899" y="894.8532">Sistem Informasi Manajemen Toko Kue</text></g><!--cluster Modul Kasir--><g id="cluster_Modul Kasir"><rect fill="none" height="410" rx="2.5" ry="2.5" style="stroke:#181818;stroke-width:1.0;" width="582.5" x="160.5" y="1194.32"/><text fill="#000000" font-family="sans-serif" font-size="14" font-weight="bold" lengthAdjust="spacing" textLength="80.1172" x="411.6914" y="1210.8532">Modul Kasir</text></g><!--cluster Modul Produksi--><g id="cluster_Modul Produksi"><rect fill="none" height="481" rx="2.5" ry="2.5" style="stroke:#181818;stroke-width:1.0;" width="230" x="832" y="1825.32"/><text fill="#000000" font-family="sans-serif" font-size="14" font-weight="bold" lengthAdjust="spacing" textLength="105" x="894.5" y="1841.8532">Modul Produksi</text></g><!--cluster Modul Inventori--><g id="cluster_Modul Inventori"><rect fill="none" height="633" rx="2.5" ry="2.5" style="stroke:#181818;stroke-width:1.0;" width="563" x="1151" y="922.32"/><text fill="#000000" font-family="sans-serif" font-size="14" font-weight="bold" lengthAdjust="spacing" textLength="104.2139" x="1380.3931" y="938.8532">Modul Inventori</text></g><!--cluster Modul Manajemen--><g id="cluster_Modul Manajemen"><rect fill="none" height="414" rx="2.5" ry="2.5" style="stroke:#181818;stroke-width:1.0;" width="266" x="144" y="1892.32"/><text fill="#000000" font-family="sans-serif" font-size="14" font-weight="bold" lengthAdjust="spacing" textLength="121.3447" x="216.3276" y="1908.8532">Modul Manajemen</text></g><!--cluster Modul Notifikasi--><g id="cluster_Modul Notifikasi"><rect fill="none" height="248" rx="2.5" ry="2.5" style="stroke:#181818;stroke-width:1.0;" width="249" x="152.5" y="922.32"/><text fill="#000000" font-family="sans-serif" font-size="14" font-weight="bold" lengthAdjust="spacing" textLength="108.1104" x="222.9448" y="938.8532">Modul Notifikasi</text></g><!--cluster Modul Landing Page--><g id="cluster_Modul Landing Page"><rect fill="none" height="240" rx="2.5" ry="2.5" style="stroke:#181818;stroke-width:1.0;" width="229" x="162.5" y="1628.32"/><text fill="#000000" font-family="sans-serif" font-size="14" font-weight="bold" lengthAdjust="spacing" textLength="136.8828" x="208.5586" y="1644.8532">Modul Landing Page</text></g><g id="elem_UC_ORDER"><ellipse cx="276.9049" cy="1352.501" fill="#F1F1F1" rx="83.9049" ry="19.181" style="stroke:#181818;stroke-width:0.5;"/><text fill="#000000" font-family="sans-serif" font-size="14" lengthAdjust="spacing" textLength="123.7578" x="215.026" y="1356.2295">Mengelola Pesanan</text></g><g id="elem_UC_ORDER_REG"><ellipse cx="619.7846" cy="1564.0769" fill="#F1F1F1" rx="104.2846" ry="23.2569" style="stroke:#181818;stroke-width:0.5;"/><text fill="#000000" font-family="sans-serif" font-size="14" lengthAdjust="spacing" textLength="170.4336" x="534.5678" y="1567.8054">Membuat Pesanan Reguler</text></g><g id="elem_UC_ORDER_BOX"><ellipse cx="619.8716" cy="1483.3943" fill="#F1F1F1" rx="98.3716" ry="22.0743" style="stroke:#181818;stroke-width:0.5;"/><text fill="#000000" font-family="sans-serif" font-size="14" lengthAdjust="spacing" textLength="157.2061" x="541.2685" y="1487.1228">Membuat Pesanan Kotak</text></g><g id="elem_UC_ORDER_READY"><ellipse cx="620.0976" cy="1402.1395" fill="#F1F1F1" rx="107.0976" ry="23.8195" style="stroke:#181818;stroke-width:0.5;"/><text fill="#000000" font-family="sans-serif" font-size="14" lengthAdjust="spacing" textLength="176.6611" x="531.7671" y="1405.868">Membuat Pesanan Siap Beli</text></g><g id="elem_UC_PAYMENT"><ellipse cx="620.014" cy="1321.3228" fill="#F1F1F1" rx="98.014" ry="22.0028" style="stroke:#181818;stroke-width:0.5;"/><text fill="#000000" font-family="sans-serif" font-size="14" lengthAdjust="spacing" textLength="156.3994" x="541.8143" y="1325.0513">Memproses Pembayaran</text></g><g id="elem_UC_RECEIPT"><ellipse cx="619.9718" cy="1247.4144" fill="#F1F1F1" rx="73.4718" ry="17.0944" style="stroke:#181818;stroke-width:0.5;"/><text fill="#000000" font-family="sans-serif" font-size="14" lengthAdjust="spacing" textLength="97.2617" x="568.341" y="1251.931">Mencetak Struk</text></g><g id="elem_UC_CANCEL_ORDER"><ellipse cx="277.2175" cy="1427.1635" fill="#F1F1F1" rx="92.2175" ry="20.8435" style="stroke:#181818;stroke-width:0.5;"/><text fill="#000000" font-family="sans-serif" font-size="14" lengthAdjust="spacing" textLength="143.1992" x="205.6179" y="1430.892">Membatalkan Pesanan</text></g><g id="elem_UC_SHIFT"><ellipse cx="276.9545" cy="1253.3109" fill="#F1F1F1" rx="100.4545" ry="22.4909" style="stroke:#181818;stroke-width:0.5;"/><text fill="#000000" font-family="sans-serif" font-size="14" lengthAdjust="spacing" textLength="161.8887" x="196.0102" y="1257.0394">Mengelola Sesi Penjualan</text></g><g id="elem_UC_REPORT_CASHIER"><ellipse cx="277.1847" cy="1546.5569" fill="#F1F1F1" rx="89.1847" ry="20.2369" style="stroke:#181818;stroke-width:0.5;"/><text fill="#000000" font-family="sans-serif" font-size="14" lengthAdjust="spacing" textLength="136.1855" x="209.0919" y="1550.2855">Melihat Laporan Kasir</text></g><g id="elem_UC_PLAN_PROD"><ellipse cx="947.1175" cy="2268.3435" fill="#F1F1F1" rx="95.6175" ry="21.5235" style="stroke:#181818;stroke-width:0.5;"/><text fill="#000000" font-family="sans-serif" font-size="14" lengthAdjust="spacing" textLength="150.9717" x="871.6317" y="2272.072">Merencanakan Produksi</text></g><g id="elem_UC_START_PROD"><ellipse cx="946.7855" cy="2037.4771" fill="#F1F1F1" rx="78.7855" ry="18.1571" style="stroke:#181818;stroke-width:0.5;"/><text fill="#000000" font-family="sans-serif" font-size="14" lengthAdjust="spacing" textLength="111.2617" x="889.6157" y="2041.6365">Memulai Produksi</text></g><g id="elem_UC_FINISH_PROD"><ellipse cx="946.9575" cy="2112.4115" fill="#F1F1F1" rx="95.9575" ry="21.5915" style="stroke:#181818;stroke-width:0.5;"/><text fill="#000000" font-family="sans-serif" font-size="14" lengthAdjust="spacing" textLength="151.7441" x="871.0854" y="2116.14">Menyelesaikan Produksi</text></g><g id="elem_UC_CANCEL_PROD"><ellipse cx="946.8699" cy="2190.094" fill="#F1F1F1" rx="91.8699" ry="20.774" style="stroke:#181818;stroke-width:0.5;"/><text fill="#000000" font-family="sans-serif" font-size="14" lengthAdjust="spacing" textLength="142.3994" x="875.6702" y="2193.8225">Membatalkan Produksi</text></g><g id="elem_UC_QUEUE_PROD"><ellipse cx="946.9545" cy="1883.4109" fill="#F1F1F1" rx="95.9545" ry="21.5909" style="stroke:#181818;stroke-width:0.5;"/><text fill="#000000" font-family="sans-serif" font-size="14" lengthAdjust="spacing" textLength="151.7373" x="871.0858" y="1887.1394">Melihat Antrian Produksi</text></g><g id="elem_UC_REPORT_PROD"><ellipse cx="947.0605" cy="1962.5321" fill="#F1F1F1" rx="99.0605" ry="22.2121" style="stroke:#181818;stroke-width:0.5;"/><text fill="#000000" font-family="sans-serif" font-size="14" lengthAdjust="spacing" textLength="158.7578" x="867.6816" y="1966.2606">Melihat Laporan Produksi</text></g><g id="elem_UC_PRODUCT"><ellipse cx="1282.4166" cy="1520.1033" fill="#F1F1F1" rx="79.4166" ry="18.2833" style="stroke:#181818;stroke-width:0.5;"/><text fill="#000000" font-family="sans-serif" font-size="14" lengthAdjust="spacing" textLength="112.8477" x="1224.7436" y="1524.1861">Mengelola Produk</text></g><g id="elem_UC_MATERIAL"><ellipse cx="1282.4021" cy="1206.3004" fill="#F1F1F1" rx="92.9021" ry="20.9804" style="stroke:#181818;stroke-width:0.5;"/><text fill="#000000" font-family="sans-serif" font-size="14" lengthAdjust="spacing" textLength="144.7715" x="1210.0164" y="1210.0289">Mengelola Bahan Baku</text></g><g id="elem_UC_EXPENSE"><ellipse cx="1282.3606" cy="977.2921" fill="#F1F1F1" rx="80.3606" ry="18.4721" style="stroke:#181818;stroke-width:0.5;"/><text fill="#000000" font-family="sans-serif" font-size="14" lengthAdjust="spacing" textLength="115.1924" x="1223.935" y="981.2603">Mengelola Belanja</text></g><g id="elem_UC_PLAN_EXP"><ellipse cx="1605.7205" cy="1127.1641" fill="#F1F1F1" rx="92.2205" ry="20.8441" style="stroke:#181818;stroke-width:0.5;"/><text fill="#000000" font-family="sans-serif" font-size="14" lengthAdjust="spacing" textLength="143.2061" x="1534.1174" y="1130.8926">Merencanakan Belanja</text></g><g id="elem_UC_START_EXP"><ellipse cx="1605.2865" cy="1053.3773" fill="#F1F1F1" rx="75.7865" ry="17.5573" style="stroke:#181818;stroke-width:0.5;"/><text fill="#000000" font-family="sans-serif" font-size="14" lengthAdjust="spacing" textLength="103.4961" x="1550.5385" y="1057.8939">Memulai Belanja</text></g><g id="elem_UC_FINISH_EXP"><ellipse cx="1605.5566" cy="979.2313" fill="#F1F1F1" rx="92.5566" ry="20.9113" style="stroke:#181818;stroke-width:0.5;"/><text fill="#000000" font-family="sans-serif" font-size="14" lengthAdjust="spacing" textLength="143.9785" x="1533.5674" y="982.9598">Menyelesaikan Belanja</text></g><g id="elem_UC_STOCK_COUNT"><ellipse cx="1282.7027" cy="1051.4605" fill="#F1F1F1" rx="91.2027" ry="20.6405" style="stroke:#181818;stroke-width:0.5;"/><text fill="#000000" font-family="sans-serif" font-size="14" lengthAdjust="spacing" textLength="140.8613" x="1212.272" y="1055.189">Mengelola Stok Hitung</text></g><g id="elem_UC_INVENTORY_FLOW"><ellipse cx="1282.5908" cy="1128.1382" fill="#F1F1F1" rx="94.5908" ry="21.3182" style="stroke:#181818;stroke-width:0.5;"/><text fill="#000000" font-family="sans-serif" font-size="14" lengthAdjust="spacing" textLength="148.6338" x="1208.2739" y="1131.8667">Melihat Alur Persediaan</text></g><g id="elem_UC_REPORT_INV"><ellipse cx="1282.7174" cy="1371.4635" fill="#F1F1F1" rx="98.7174" ry="22.1435" style="stroke:#181818;stroke-width:0.5;"/><text fill="#000000" font-family="sans-serif" font-size="14" lengthAdjust="spacing" textLength="157.9854" x="1203.7247" y="1375.192">Melihat Laporan Inventori</text></g><g id="elem_UC_CAT_INV"><ellipse cx="1282.6349" cy="1288.347" fill="#F1F1F1" rx="115.6349" ry="25.527" style="stroke:#181818;stroke-width:0.5;"/><text fill="#000000" font-family="sans-serif" font-size="14" lengthAdjust="spacing" textLength="195.3506" x="1184.9596" y="1292.0755">Mengelola Kategori Persediaan</text></g><g id="elem_UC_SUPPLIER"><ellipse cx="1282.2746" cy="1447.1749" fill="#F1F1F1" rx="82.2746" ry="18.8549" style="stroke:#181818;stroke-width:0.5;"/><text fill="#000000" font-family="sans-serif" font-size="14" lengthAdjust="spacing" textLength="119.8545" x="1222.3231" y="1450.9107">Mengelola Supplier</text></g><g id="elem_UC_WORKER"><ellipse cx="277.1716" cy="1947.3543" fill="#F1F1F1" rx="80.6716" ry="18.5343" style="stroke:#181818;stroke-width:0.5;"/><text fill="#000000" font-family="sans-serif" font-size="14" lengthAdjust="spacing" textLength="115.958" x="218.498" y="1951.2847">Mengelola Pekerja</text></g><g id="elem_UC_ROLE"><ellipse cx="277.1201" cy="2026.344" fill="#F1F1F1" rx="113.1201" ry="25.024" style="stroke:#181818;stroke-width:0.5;"/><text fill="#000000" font-family="sans-serif" font-size="14" lengthAdjust="spacing" textLength="189.875" x="182.1826" y="2030.0725">Mengelola Peran &amp; Hak Akses</text></g><g id="elem_UC_CUSTOMER"><ellipse cx="276.8646" cy="2106.4929" fill="#F1F1F1" rx="88.8646" ry="20.1729" style="stroke:#181818;stroke-width:0.5;"/><text fill="#000000" font-family="sans-serif" font-size="14" lengthAdjust="spacing" textLength="135.4404" x="209.1444" y="2110.2214">Mengelola Pelanggan</text></g><g id="elem_UC_STORE_PROFILE"><ellipse cx="276.8902" cy="2182.298" fill="#F1F1F1" rx="92.8902" ry="20.978" style="stroke:#181818;stroke-width:0.5;"/><text fill="#000000" font-family="sans-serif" font-size="14" lengthAdjust="spacing" textLength="144.7441" x="204.5181" y="2186.0266">Mengelola Profil Usaha</text></g><g id="elem_UC_PAYMENT_METHOD"><ellipse cx="277.0649" cy="2264.133" fill="#F1F1F1" rx="117.0649" ry="25.813" style="stroke:#181818;stroke-width:0.5;"/><text fill="#000000" font-family="sans-serif" font-size="14" lengthAdjust="spacing" textLength="198.4541" x="177.8378" y="2267.8615">Mengelola Metode Pembayaran</text></g><g id="elem_UC_NOTIF"><ellipse cx="277.165" cy="1136.553" fill="#F1F1F1" rx="76.665" ry="17.733" style="stroke:#181818;stroke-width:0.5;"/><text fill="#000000" font-family="sans-serif" font-size="14" lengthAdjust="spacing" textLength="105.8135" x="221.6861" y="1140.9698">Melihat Notifikasi</text></g><g id="elem_UC_LOW_STOCK"><ellipse cx="276.9996" cy="982.4199" fill="#F1F1F1" rx="108.4996" ry="24.0999" style="stroke:#181818;stroke-width:0.5;"/><text fill="#000000" font-family="sans-serif" font-size="14" lengthAdjust="spacing" textLength="179.751" x="187.1241" y="986.1484">Menerima Alert Stok Rendah</text></g><g id="elem_UC_EXPIRED"><ellipse cx="277.0585" cy="1062.4317" fill="#F1F1F1" rx="93.5585" ry="21.1117" style="stroke:#181818;stroke-width:0.5;"/><text fill="#000000" font-family="sans-serif" font-size="14" lengthAdjust="spacing" textLength="146.2754" x="203.9208" y="1066.1602">Menerima Alert Expired</text></g><g id="elem_UC_CATALOG"><ellipse cx="276.8932" cy="1685.2986" fill="#F1F1F1" rx="92.8932" ry="20.9786" style="stroke:#181818;stroke-width:0.5;"/><text fill="#000000" font-family="sans-serif" font-size="14" lengthAdjust="spacing" textLength="144.751" x="204.5177" y="1689.0271">Melihat Katalog Produk</text></g><g id="elem_UC_HOW_ORDER"><ellipse cx="277.2113" cy="1763.4623" fill="#F1F1F1" rx="98.7113" ry="22.1423" style="stroke:#181818;stroke-width:0.5;"/><text fill="#000000" font-family="sans-serif" font-size="14" lengthAdjust="spacing" textLength="157.9717" x="198.2255" y="1767.1908">Melihat Cara Pemesanan</text></g><g id="elem_UC_FAQ"><ellipse cx="277.1878" cy="1836.5576" fill="#F1F1F1" rx="66.6878" ry="15.7376" style="stroke:#181818;stroke-width:0.5;"/><text fill="#000000" font-family="sans-serif" font-size="14" lengthAdjust="spacing" textLength="77.7998" x="235.2879" y="1841.0742">Melihat FAQ</text></g><!--entity owner--><g id="elem_owner"><ellipse cx="39.5" cy="2003.32" fill="#F1F1F1" rx="16" ry="16" style="stroke:#181818;stroke-width:0.5;"/><path d="M39.5,2023.32 C43.5,2023.32 46.5,2023.32 50.5,2019.32 C58.5,2019.32 66.5,2027.32 66.5,2035.32 L66.5,2039.32 C66.5,2043.32 62.5,2047.32 58.5,2047.32 L20.5,2047.32 C16.5,2047.32 12.5,2043.32 12.5,2039.32 L12.5,2035.32 C12.5,2027.32 20.5,2019.32 28.5,2019.32 C32.5,2023.32 35.5,2023.32 39.5,2023.32 " fill="#F1F1F1" style="stroke:#181818;stroke-width:0.5;"/><text fill="#000000" font-family="sans-serif" font-size="14" lengthAdjust="spacing" textLength="45.1172" x="16.9414" y="2062.3532">Pemilik</text></g><!--entity cashier--><g id="elem_cashier"><ellipse cx="39.5" cy="1206.32" fill="#F1F1F1" rx="16" ry="16" style="stroke:#181818;stroke-width:0.5;"/><path d="M39.5,1226.32 C43.5,1226.32 46.5,1226.32 50.5,1222.32 C58.5,1222.32 66.5,1230.32 66.5,1238.32 L66.5,1242.32 C66.5,1246.32 62.5,1250.32 58.5,1250.32 L20.5,1250.32 C16.5,1250.32 12.5,1246.32 12.5,1242.32 L12.5,1238.32 C12.5,1230.32 20.5,1222.32 28.5,1222.32 C32.5,1226.32 35.5,1226.32 39.5,1226.32 " fill="#F1F1F1" style="stroke:#181818;stroke-width:0.5;"/><text fill="#000000" font-family="sans-serif" font-size="14" lengthAdjust="spacing" textLength="31.8965" x="23.5518" y="1265.3532">Kasir</text></g><!--entity production--><g id="elem_production"><ellipse cx="39.5" cy="2533.32" fill="#F1F1F1" rx="16" ry="16" style="stroke:#181818;stroke-width:0.5;"/><path d="M39.5,2553.32 C43.5,2553.32 46.5,2553.32 50.5,2549.32 C58.5,2549.32 66.5,2557.32 66.5,2565.32 L66.5,2569.32 C66.5,2573.32 62.5,2577.32 58.5,2577.32 L20.5,2577.32 C16.5,2577.32 12.5,2573.32 12.5,2569.32 L12.5,2565.32 C12.5,2557.32 20.5,2549.32 28.5,2549.32 C32.5,2553.32 35.5,2553.32 39.5,2553.32 " fill="#F1F1F1" style="stroke:#181818;stroke-width:0.5;"/><text fill="#000000" font-family="sans-serif" font-size="14" lengthAdjust="spacing" textLength="54.4688" x="12.2656" y="2592.3532">Produksi</text></g><!--entity inventory--><g id="elem_inventory"><ellipse cx="39.5" cy="510.32" fill="#F1F1F1" rx="16" ry="16" style="stroke:#181818;stroke-width:0.5;"/><path d="M39.5,530.32 C43.5,530.32 46.5,530.32 50.5,526.32 C58.5,526.32 66.5,534.32 66.5,542.32 L66.5,546.32 C66.5,550.32 62.5,554.32 58.5,554.32 L20.5,554.32 C16.5,554.32 12.5,550.32 12.5,546.32 L12.5,542.32 C12.5,534.32 20.5,526.32 28.5,526.32 C32.5,530.32 35.5,530.32 39.5,530.32 " fill="#F1F1F1" style="stroke:#181818;stroke-width:0.5;"/><text fill="#000000" font-family="sans-serif" font-size="14" lengthAdjust="spacing" textLength="53.6963" x="12.6519" y="569.3532">Inventori</text></g><!--entity customer--><g id="elem_customer"><ellipse cx="39.4756" cy="1744.32" fill="#F1F1F1" rx="16" ry="16" style="stroke:#181818;stroke-width:0.5;"/><path d="M39.4756,1764.32 C43.4756,1764.32 46.4756,1764.32 50.4756,1760.32 C58.4756,1760.32 66.4756,1768.32 66.4756,1776.32 L66.4756,1780.32 C66.4756,1784.32 62.4756,1788.32 58.4756,1788.32 L20.4756,1788.32 C16.4756,1788.32 12.4756,1784.32 12.4756,1780.32 L12.4756,1776.32 C12.4756,1768.32 20.4756,1760.32 28.4756,1760.32 C32.4756,1764.32 35.4756,1764.32 39.4756,1764.32 " fill="#F1F1F1" style="stroke:#181818;stroke-width:0.5;"/><text fill="#000000" font-family="sans-serif" font-size="14" lengthAdjust="spacing" textLength="66.9512" x="6" y="1803.3532">Pelanggan</text></g><!--link owner to UC_REPORT_CASHIER--><g id="link_owner_UC_REPORT_CASHIER"><path d="M47.13,1986.57 C62.98,1892.36 102.41,1662.32 112,1648.32 C140.24,1607.11 185.6398,1581.6609 223.2798,1565.6309 " fill="none" id="owner-to-UC_REPORT_CASHIER" style="stroke:#181818;stroke-width:1.0;"/><polygon fill="#181818" points="228.8,1563.28,218.9523,1563.1263,224.1998,1565.2391,222.0869,1570.4866,228.8,1563.28" style="stroke:#181818;stroke-width:1.0;"/></g><!--link owner to UC_REPORT_PROD--><g id="link_owner_UC_REPORT_PROD"><path d="M44.7,2065.9 C53.04,2135.9 74.21,2276.97 112,2306.32 C219.41,2389.75 289,2349.38 418,2306.32 C632.08,2234.87 623.49,2104.91 824,2001.32 C841.68,1992.19 856.1851,1986.4659 875.0251,1980.5559 " fill="none" id="owner-to-UC_REPORT_PROD" style="stroke:#181818;stroke-width:1.0;"/><polygon fill="#181818" points="880.75,1978.76,870.9654,1977.6372,875.9792,1980.2566,873.3599,1985.2704,880.75,1978.76" style="stroke:#181818;stroke-width:1.0;"/></g><!--link owner to UC_REPORT_INV--><g id="link_owner_UC_REPORT_INV"><path d="M48.27,1986.64 C55.9,1946.03 67.2,1881.03 73,1824.32 C82.97,1726.73 52.14,1020.03 112,942.32 C253.96,758.03 969.44,556.91 1135,720.32 C1147.08,732.24 1132.71,1317.82 1143,1331.32 C1154.91,1346.94 1166.8334,1354.8966 1185.5534,1360.9766 " fill="none" id="owner-to-UC_REPORT_INV" style="stroke:#181818;stroke-width:1.0;"/><polygon fill="#181818" points="1191.26,1362.83,1183.9358,1356.2455,1186.5045,1361.2855,1181.4645,1363.8543,1191.26,1362.83" style="stroke:#181818;stroke-width:1.0;"/></g><!--link owner to UC_WORKER--><g id="link_owner_UC_WORKER"><path d="M67.26,2007.38 C80.24,1998.94 96.39,1989.53 112,1983.32 C142.6,1971.14 172.2519,1963.8014 202.4019,1958.1714 " fill="none" id="owner-to-UC_WORKER" style="stroke:#181818;stroke-width:1.0;"/><polygon fill="#181818" points="208.3,1957.07,198.7187,1954.79,203.385,1957.9878,200.1872,1962.6541,208.3,1957.07" style="stroke:#181818;stroke-width:1.0;"/></g><!--link owner to UC_ROLE--><g id="link_owner_UC_ROLE"><path d="M67.06,2026.32 C90.93,2026.32 121.7,2026.32 157.78,2026.32 " fill="none" id="owner-to-UC_ROLE" style="stroke:#181818;stroke-width:1.0;"/><polygon fill="#181818" points="163.78,2026.32,154.78,2022.32,158.78,2026.32,154.78,2030.32,163.78,2026.32" style="stroke:#181818;stroke-width:1.0;"/></g><!--link owner to UC_CUSTOMER--><g id="link_owner_UC_CUSTOMER"><path d="M67.01,2044.5 C80.07,2052.77 96.35,2062.08 112,2068.32 C141.32,2080.01 169.2132,2087.3905 198.4632,2093.4105 " fill="none" id="owner-to-UC_CUSTOMER" style="stroke:#181818;stroke-width:1.0;"/><polygon fill="#181818" points="204.34,2094.62,196.3311,2088.8878,199.4426,2093.6121,194.7184,2096.7236,204.34,2094.62" style="stroke:#181818;stroke-width:1.0;"/></g><!--link owner to UC_STORE_PROFILE--><g id="link_owner_UC_STORE_PROFILE"><path d="M55.25,2065.96 C66.85,2091.77 85.51,2124.09 112,2143.32 C134.5,2159.65 157.0164,2168.0049 183.8164,2173.5949 " fill="none" id="owner-to-UC_STORE_PROFILE" style="stroke:#181818;stroke-width:1.0;"/><polygon fill="#181818" points="189.69,2174.82,181.6964,2169.0666,184.7953,2173.7991,180.0629,2176.898,189.69,2174.82" style="stroke:#181818;stroke-width:1.0;"/></g><!--link owner to UC_PAYMENT_METHOD--><g id="link_owner_UC_PAYMENT_METHOD"><path d="M44.42,2066.1 C50.89,2110.08 67.86,2180.03 112,2220.32 C128.87,2235.72 144.8129,2244.1064 166.8529,2250.7164 " fill="none" id="owner-to-UC_PAYMENT_METHOD" style="stroke:#181818;stroke-width:1.0;"/><polygon fill="#181818" points="172.6,2252.44,165.1284,2246.0232,167.8107,2251.0037,162.8303,2253.686,172.6,2252.44" style="stroke:#181818;stroke-width:1.0;"/></g><!--link owner to UC_NOTIF--><g id="link_owner_UC_NOTIF"><path d="M48.13,1986.62 C55.64,1946.01 66.86,1881 73,1824.32 C80.32,1756.8 72.49,1269.56 112,1214.32 C137.4,1178.8 177.5632,1160.581 214.3632,1149.771 " fill="none" id="owner-to-UC_NOTIF" style="stroke:#181818;stroke-width:1.0;"/><polygon fill="#181818" points="220.12,1148.08,210.3575,1146.7787,215.3227,1149.4892,212.6122,1154.4544,220.12,1148.08" style="stroke:#181818;stroke-width:1.0;"/></g><!--link cashier to UC_ORDER--><g id="link_cashier_UC_ORDER"><path d="M67.04,1257.57 C79.73,1269.84 95.69,1283.59 112,1293.32 C145.79,1313.47 181.7984,1326.6613 214.7184,1336.4413 " fill="none" id="cashier-to-UC_ORDER" style="stroke:#181818;stroke-width:1.0;"/><polygon fill="#181818" points="220.47,1338.15,212.9818,1331.7526,215.677,1336.7261,210.7035,1339.4213,220.47,1338.15" style="stroke:#181818;stroke-width:1.0;"/></g><!--link cashier to UC_PAYMENT--><g id="link_cashier_UC_PAYMENT"><path d="M44.45,1189.61 C52.47,1118.17 73.26,972.59 112,942.32 C219.16,858.58 309.63,860.15 418,942.32 C542.68,1036.86 407.31,1165.94 513,1281.32 C522.96,1292.2 530.6606,1297.8106 544.3806,1303.5906 " fill="none" id="cashier-to-UC_PAYMENT" style="stroke:#181818;stroke-width:1.0;"/><polygon fill="#181818" points="549.91,1305.92,543.1689,1298.7396,545.3022,1303.9788,540.063,1306.1121,549.91,1305.92" style="stroke:#181818;stroke-width:1.0;"/></g><!--link cashier to UC_RECEIPT--><g id="link_cashier_UC_RECEIPT"><path d="M41.09,1189.66 C43.3,1103.56 53.73,903.91 103,862.32 C232.06,753.38 345.12,764.79 483,862.32 C609.17,951.56 619.0646,1162 619.2246,1224.29 " fill="none" id="cashier-to-UC_RECEIPT" style="stroke:#181818;stroke-width:1.0;"/><polygon fill="#181818" points="619.24,1230.29,623.2169,1221.2798,619.2272,1225.29,615.2169,1221.3003,619.24,1230.29" style="stroke:#181818;stroke-width:1.0;"/></g><!--link cashier to UC_CANCEL_ORDER--><g id="link_cashier_UC_CANCEL_ORDER"><path d="M47.96,1269.03 C56.9,1305.44 75.49,1358.14 112,1388.32 C133.43,1406.04 155.6618,1414.7672 182.5418,1420.2672 " fill="none" id="cashier-to-UC_CANCEL_ORDER" style="stroke:#181818;stroke-width:1.0;"/><polygon fill="#181818" points="188.42,1421.47,180.4045,1415.7471,183.5215,1420.4677,178.8008,1423.5847,188.42,1421.47" style="stroke:#181818;stroke-width:1.0;"/></g><!--link cashier to UC_SHIFT--><g id="link_cashier_UC_SHIFT"><path d="M67.06,1232.03 C95.69,1234.94 136.8809,1239.1415 179.1609,1243.4515 " fill="none" id="cashier-to-UC_SHIFT" style="stroke:#181818;stroke-width:1.0;"/><polygon fill="#181818" points="185.13,1244.06,176.5821,1239.1679,180.1558,1243.5529,175.7707,1247.1267,185.13,1244.06" style="stroke:#181818;stroke-width:1.0;"/></g><!--link cashier to UC_REPORT_CASHIER--><g id="link_cashier_UC_REPORT_CASHIER"><path d="M42.98,1268.96 C48.11,1319.89 63.83,1408.49 112,1465.32 C139.72,1498.02 178.1408,1516.7952 213.6308,1529.0952 " fill="none" id="cashier-to-UC_REPORT_CASHIER" style="stroke:#181818;stroke-width:1.0;"/><polygon fill="#181818" points="219.3,1531.06,212.1061,1524.3333,214.5757,1529.4227,209.4864,1531.8922,219.3,1531.06" style="stroke:#181818;stroke-width:1.0;"/></g><!--link cashier to UC_NOTIF--><g id="link_cashier_UC_NOTIF"><path d="M67.06,1218.83 C108.8,1202.35 184.3494,1172.5138 232.3094,1153.5738 " fill="none" id="cashier-to-UC_NOTIF" style="stroke:#181818;stroke-width:1.0;"/><polygon fill="#181818" points="237.89,1151.37,228.0499,1150.9554,233.2395,1153.2065,230.9883,1158.3962,237.89,1151.37" style="stroke:#181818;stroke-width:1.0;"/></g><!--link production to UC_PLAN_PROD--><g id="link_production_UC_PLAN_PROD"><path d="M42.85,2596 C47.57,2635.92 61.6,2695.55 103,2724.32 C363.22,2905.16 563.07,2915.22 816,2724.32 C888.19,2669.83 931.4504,2378.8378 942.4704,2295.8278 " fill="none" id="production-to-UC_PLAN_PROD" style="stroke:#181818;stroke-width:1.0;"/><polygon fill="#181818" points="943.26,2289.88,938.1104,2298.2753,942.602,2294.8365,946.0408,2299.3281,943.26,2289.88" style="stroke:#181818;stroke-width:1.0;"/></g><!--link production to UC_START_PROD--><g id="link_production_UC_START_PROD"><path d="M67.24,2559.31 C191.48,2572.57 710.87,2620.71 816,2511.32 C832.86,2493.77 809.25,2092.68 824,2073.32 C835.78,2057.86 848.0954,2050.4091 866.7754,2045.1391 " fill="none" id="production-to-UC_START_PROD" style="stroke:#181818;stroke-width:1.0;"/><polygon fill="#181818" points="872.55,2043.51,862.802,2042.104,867.7378,2044.8676,864.9742,2049.8034,872.55,2043.51" style="stroke:#181818;stroke-width:1.0;"/></g><!--link production to UC_FINISH_PROD--><g id="link_production_UC_FINISH_PROD"><path d="M67.15,2570.13 C77.97,2575 90.78,2579.88 103,2582.32 C258.38,2613.35 702.93,2693.31 816,2582.32 C833.09,2565.54 809.7,2170.53 824,2151.32 C833.89,2138.03 842.7483,2131.3034 858.2883,2125.4234 " fill="none" id="production-to-UC_FINISH_PROD" style="stroke:#181818;stroke-width:1.0;"/><polygon fill="#181818" points="863.9,2123.3,854.0669,2122.7439,859.2236,2125.0695,856.898,2130.2262,863.9,2123.3" style="stroke:#181818;stroke-width:1.0;"/></g><!--link production to UC_CANCEL_PROD--><g id="link_production_UC_CANCEL_PROD"><path d="M55.1,2596.11 C65.11,2617.17 80.66,2641.14 103,2653.32 C242.11,2729.17 702.91,2764.3 816,2653.32 C832.82,2636.82 809.93,2248.22 824,2229.32 C834.36,2215.41 844.0821,2208.3852 860.4521,2202.5152 " fill="none" id="production-to-UC_CANCEL_PROD" style="stroke:#181818;stroke-width:1.0;"/><polygon fill="#181818" points="866.1,2200.49,856.278,2199.7626,861.3934,2202.1777,858.9783,2207.2931,866.1,2200.49" style="stroke:#181818;stroke-width:1.0;"/></g><!--link production to UC_QUEUE_PROD--><g id="link_production_UC_QUEUE_PROD"><path d="M67.08,2534.54 C80.16,2524.37 96.43,2512.51 112,2503.32 C240.78,2427.26 290.65,2441.74 418,2363.32 C644.86,2223.63 601.19,2068.37 824,1922.32 C839.99,1911.84 853.2924,1905.809 871.4924,1900.019 " fill="none" id="production-to-UC_QUEUE_PROD" style="stroke:#181818;stroke-width:1.0;"/><polygon fill="#181818" points="877.21,1898.2,867.4209,1897.1167,872.4453,1899.7158,869.8462,1904.7402,877.21,1898.2" style="stroke:#181818;stroke-width:1.0;"/></g><!--link production to UC_REPORT_PROD--><g id="link_production_UC_REPORT_PROD"><path d="M67.02,2547.23 C78.04,2543.73 91.03,2539.94 103,2537.32 C259.22,2503.18 709.73,2559.81 816,2440.32 C832.21,2422.09 809.44,2020.89 824,2001.32 C833.56,1988.48 841.8051,1981.9629 856.7551,1976.0929 " fill="none" id="production-to-UC_REPORT_PROD" style="stroke:#181818;stroke-width:1.0;"/><polygon fill="#181818" points="862.34,1973.9,852.5007,1973.466,857.6859,1975.7274,855.4245,1980.9126,862.34,1973.9" style="stroke:#181818;stroke-width:1.0;"/></g><!--link production to UC_NOTIF--><g id="link_production_UC_NOTIF"><path d="M43.54,2516.78 C49.7,2435.6 63.86,2244.19 73,2083.32 C75.74,2035.07 85.28,1254.59 112,1214.32 C135.97,1178.2 175.7322,1160.0331 212.7522,1149.4231 " fill="none" id="production-to-UC_NOTIF" style="stroke:#181818;stroke-width:1.0;"/><polygon fill="#181818" points="218.52,1147.77,208.7663,1146.4044,213.7135,1149.1475,210.9704,1154.0948,218.52,1147.77" style="stroke:#181818;stroke-width:1.0;"/></g><!--link inventory to UC_PRODUCT--><g id="link_inventory_UC_PRODUCT"><path d="M67.28,571.7 C79.66,587.69 95.32,605.67 112,619.32 C256.97,737.95 322.62,722.53 483,819.32 C781.88,999.69 965.4,952.2 1135,1257.32 C1147.21,1279.28 1127.35,1463.67 1143,1483.32 C1157.89,1502.01 1175.2169,1510.6157 1198.4069,1515.6557 " fill="none" id="inventory-to-UC_PRODUCT" style="stroke:#181818;stroke-width:1.0;"/><polygon fill="#181818" points="1204.27,1516.93,1196.3248,1511.1099,1199.3841,1515.8681,1194.6258,1518.9274,1204.27,1516.93" style="stroke:#181818;stroke-width:1.0;"/></g><!--link inventory to UC_MATERIAL--><g id="link_inventory_UC_MATERIAL"><path d="M43.93,493.8 C50.65,426.93 68.02,296.01 103,268.32 C314.98,100.52 1086.88,441.82 1135,507.32 C1156.71,536.87 1120.69,1138.22 1143,1167.32 C1155.62,1183.77 1168.8526,1191.9712 1188.7626,1197.8112 " fill="none" id="inventory-to-UC_MATERIAL" style="stroke:#181818;stroke-width:1.0;"/><polygon fill="#181818" points="1194.52,1199.5,1187.0097,1193.1286,1189.7221,1198.0927,1184.758,1200.8051,1194.52,1199.5" style="stroke:#181818;stroke-width:1.0;"/></g><!--link inventory to UC_EXPENSE--><g id="link_inventory_UC_EXPENSE"><path d="M45.07,493.46 C53.04,431.97 71.68,318.5 103,294.32 C466.04,14.01 778.28,6 1135,294.32 C1242.88,381.51 1274.6062,852.2293 1280.2062,952.7193 " fill="none" id="inventory-to-UC_EXPENSE" style="stroke:#181818;stroke-width:1.0;"/><polygon fill="#181818" points="1280.54,958.71,1284.033,949.5014,1280.2618,953.7177,1276.0454,949.9465,1280.54,958.71" style="stroke:#181818;stroke-width:1.0;"/></g><!--link inventory to UC_STOCK_COUNT--><g id="link_inventory_UC_STOCK_COUNT"><path d="M44.8,493.52 C51.06,455.26 66.28,398.48 103,365.32 C161.96,312.07 196.55,320.32 276,320.32 C276,320.32 276,320.32 948,320.32 C1033.48,320.32 1081.68,298.5 1135,365.32 C1157.46,393.46 1120.99,984.83 1143,1013.32 C1155.8,1029.9 1169.3446,1038.0536 1189.5146,1043.7336 " fill="none" id="inventory-to-UC_STOCK_COUNT" style="stroke:#181818;stroke-width:1.0;"/><polygon fill="#181818" points="1195.29,1045.36,1187.7112,1039.0702,1190.4772,1044.0047,1185.5427,1046.7707,1195.29,1045.36" style="stroke:#181818;stroke-width:1.0;"/></g><!--link inventory to UC_INVENTORY_FLOW--><g id="link_inventory_UC_INVENTORY_FLOW"><path d="M57.42,493.68 C67.83,473.72 83.04,450.77 103,436.32 C167.36,389.74 196.55,391.32 276,391.32 C276,391.32 276,391.32 948,391.32 C1045.8,391.32 1086.86,422.19 1135,507.32 C1150.92,535.47 1123.3,1063.68 1143,1089.32 C1155.33,1105.37 1167.9801,1113.4126 1187.3601,1119.3126 " fill="none" id="inventory-to-UC_INVENTORY_FLOW" style="stroke:#181818;stroke-width:1.0;"/><polygon fill="#181818" points="1193.1,1121.06,1185.6551,1114.6122,1188.3168,1119.6038,1183.3252,1122.2654,1193.1,1121.06" style="stroke:#181818;stroke-width:1.0;"/></g><!--link inventory to UC_REPORT_INV--><g id="link_inventory_UC_REPORT_INV"><path d="M67.07,516.23 C78.11,510.81 91.29,506.42 104,507.32 C219.81,515.55 1073.06,579.12 1135,677.32 C1154.39,708.05 1120.98,1302.41 1143,1331.32 C1154.9,1346.95 1166.8243,1354.8938 1185.5443,1360.9838 " fill="none" id="inventory-to-UC_REPORT_INV" style="stroke:#181818;stroke-width:1.0;"/><polygon fill="#181818" points="1191.25,1362.84,1183.9289,1356.252,1186.4953,1361.2932,1181.4541,1363.8595,1191.25,1362.84" style="stroke:#181818;stroke-width:1.0;"/></g><!--link inventory to UC_CAT_INV--><g id="link_inventory_UC_CAT_INV"><path d="M67.34,533.32 C111.06,533.32 200.36,533.32 276,533.32 C276,533.32 276,533.32 948,533.32 C1033.48,533.32 1081.69,511.49 1135,578.32 C1158.07,607.25 1120.97,1214.59 1143,1244.32 C1153.44,1258.41 1162.8631,1265.827 1179.1431,1272.457 " fill="none" id="inventory-to-UC_CAT_INV" style="stroke:#181818;stroke-width:1.0;"/><polygon fill="#181818" points="1184.7,1274.72,1177.8734,1267.6209,1180.0693,1272.8341,1174.856,1275.03,1184.7,1274.72" style="stroke:#181818;stroke-width:1.0;"/></g><!--link inventory to UC_SUPPLIER--><g id="link_inventory_UC_SUPPLIER"><path d="M67.15,538.64 C231.33,571.53 1099.61,747.21 1135,791.32 C1156.52,818.15 1121.88,1383.18 1143,1410.32 C1157.14,1428.49 1173.2956,1437.0022 1195.6356,1442.1922 " fill="none" id="inventory-to-UC_SUPPLIER" style="stroke:#181818;stroke-width:1.0;"/><polygon fill="#181818" points="1201.48,1443.55,1193.6186,1437.6171,1196.6097,1442.4185,1191.8083,1445.4096,1201.48,1443.55" style="stroke:#181818;stroke-width:1.0;"/></g><!--link inventory to UC_NOTIF--><g id="link_inventory_UC_NOTIF"><path d="M39.8,572.97 C38.62,688.76 41.5,1023.12 112,1100.32 C134.21,1124.64 162.8049,1133.864 194.4749,1137.294 " fill="none" id="inventory-to-UC_NOTIF" style="stroke:#181818;stroke-width:1.0;"/><polygon fill="#181818" points="200.44,1137.94,191.923,1132.9942,195.4691,1137.4016,191.0616,1140.9477,200.44,1137.94" style="stroke:#181818;stroke-width:1.0;"/></g><!--link inventory to UC_LOW_STOCK--><g id="link_inventory_UC_LOW_STOCK"><path d="M52.79,572.92 C64.11,607.55 82.25,658.81 103,701.32 C151.74,801.2 222.5235,906.1516 255.6135,953.5116 " fill="none" id="inventory-to-UC_LOW_STOCK" style="stroke:#181818;stroke-width:1.0;"/><polygon fill="#181818" points="259.05,958.43,257.1743,948.7614,256.1863,954.3313,250.6164,953.3433,259.05,958.43" style="stroke:#181818;stroke-width:1.0;"/></g><!--link inventory to UC_EXPIRED--><g id="link_inventory_UC_EXPIRED"><path d="M40.75,573.09 C42.26,677.82 51.93,957.68 112,1023.32 C130.47,1043.51 151.4486,1052.9627 178.0986,1058.3427 " fill="none" id="inventory-to-UC_EXPIRED" style="stroke:#181818;stroke-width:1.0;"/><polygon fill="#181818" points="183.98,1059.53,175.9495,1053.8281,179.0789,1058.5406,174.3664,1061.6699,183.98,1059.53" style="stroke:#181818;stroke-width:1.0;"/></g><!--link customer to UC_CATALOG--><g id="link_customer_UC_CATALOG"><path d="M73.13,1744.16 C84.94,1736.62 98.65,1728.8 112,1723.32 C139.98,1711.83 166.2676,1704.6507 194.6576,1698.7007 " fill="none" id="customer-to-UC_CATALOG" style="stroke:#181818;stroke-width:1.0;"/><polygon fill="#181818" points="200.53,1697.47,190.9009,1695.4012,195.6363,1698.4956,192.5419,1703.2311,200.53,1697.47" style="stroke:#181818;stroke-width:1.0;"/></g><!--link customer to UC_HOW_ORDER--><g id="link_customer_UC_HOW_ORDER"><path d="M73.25,1766.76 C100.61,1766.3 135.0809,1765.7121 172.6909,1765.0721 " fill="none" id="customer-to-UC_HOW_ORDER" style="stroke:#181818;stroke-width:1.0;"/><polygon fill="#181818" points="178.69,1764.97,169.6232,1761.1237,173.6907,1765.0551,169.7594,1769.1225,178.69,1764.97" style="stroke:#181818;stroke-width:1.0;"/></g><!--link customer to UC_FAQ--><g id="link_customer_UC_FAQ"><path d="M73.23,1785.48 C85.15,1791.52 98.92,1797.84 112,1802.32 C147.08,1814.33 181.9757,1821.7997 214.1157,1827.2897 " fill="none" id="customer-to-UC_FAQ" style="stroke:#181818;stroke-width:1.0;"/><polygon fill="#181818" points="220.03,1828.3,211.832,1822.8417,215.1014,1827.4581,210.485,1830.7275,220.03,1828.3" style="stroke:#181818;stroke-width:1.0;"/></g><!--reverse link UC_ORDER to UC_ORDER_REG--><g id="link_UC_ORDER_UC_ORDER_REG"><path d="M376.7579,1360.5757 C398.7979,1365.7257 403.12,1371.16 418,1388.32 C428.69,1400.65 417.69,1447.27 426,1461.32 C452.3,1505.78 505.13,1532.07 548.87,1546.95 " fill="none" id="UC_ORDER-backto-UC_ORDER_REG" style="stroke:#181818;stroke-width:1.0;"/><polygon fill="none" points="359.23,1356.48,375.3926,1366.4183,378.1231,1354.733,359.23,1356.48" style="stroke:#181818;stroke-width:1.0;"/><text fill="#000000" font-family="sans-serif" font-size="13" lengthAdjust="spacing" textLength="53.4917" x="428" y="1457.8151">&#171;extend&#187;</text></g><!--reverse link UC_ORDER to UC_ORDER_BOX--><g id="link_UC_ORDER_UC_ORDER_BOX"><path d="M373.2835,1363.1443 C395.4735,1368.3543 400.75,1373.16 418,1388.32 C425.19,1394.64 419.24,1401.54 426,1408.32 C455.44,1437.82 474.17,1428.18 513,1443.32 C531.05,1450.36 550.9,1457.9 568.5,1464.52 " fill="none" id="UC_ORDER-backto-UC_ORDER_BOX" style="stroke:#181818;stroke-width:1.0;"/><polygon fill="none" points="355.76,1359.03,371.912,1368.9855,374.6549,1357.3032,355.76,1359.03" style="stroke:#181818;stroke-width:1.0;"/><text fill="#000000" font-family="sans-serif" font-size="13" lengthAdjust="spacing" textLength="53.4917" x="428" y="1404.8151">&#171;extend&#187;</text></g><!--reverse link UC_ORDER to UC_ORDER_READY--><g id="link_UC_ORDER_UC_ORDER_READY"><path d="M365.6395,1365.1718 C418.3495,1372.9018 473.24,1380.95 530.1,1389.28 " fill="none" id="UC_ORDER-backto-UC_ORDER_READY" style="stroke:#181818;stroke-width:1.0;"/><polygon fill="none" points="347.83,1362.56,364.7689,1371.1083,366.5101,1359.2353,347.83,1362.56" style="stroke:#181818;stroke-width:1.0;"/><text fill="#000000" font-family="sans-serif" font-size="13" lengthAdjust="spacing" textLength="53.4917" x="428" y="1371.8151">&#171;extend&#187;</text></g><!--reverse link UC_EXPENSE to UC_PLAN_EXP--><g id="link_UC_EXPENSE_UC_PLAN_EXP"><path d="M1361.7944,994.3571 C1380.0344,999.7771 1382.13,1002.38 1398,1013.32 C1415.72,1025.53 1410.96,1038.19 1428,1051.32 C1460.64,1076.47 1475.16,1072.02 1513,1088.32 C1528.54,1095.01 1545.59,1102.3 1560.72,1108.74 " fill="none" id="UC_EXPENSE-backto-UC_PLAN_EXP" style="stroke:#181818;stroke-width:1.0;"/><polygon fill="none" points="1344.54,989.23,1360.0853,1000.1086,1363.5034,988.6057,1344.54,989.23" style="stroke:#181818;stroke-width:1.0;"/><text fill="#000000" font-family="sans-serif" font-size="13" lengthAdjust="spacing" textLength="53.4917" x="1429" y="1047.8151">&#171;extend&#187;</text></g><!--reverse link UC_EXPENSE to UC_START_EXP--><g id="link_UC_EXPENSE_UC_START_EXP"><path d="M1356.926,994.7062 C1416.746,1008.8662 1493.37,1027.01 1551.89,1040.86 " fill="none" id="UC_EXPENSE-backto-UC_START_EXP" style="stroke:#181818;stroke-width:1.0;"/><polygon fill="none" points="1339.41,990.56,1355.5439,1000.5449,1358.308,988.8676,1339.41,990.56" style="stroke:#181818;stroke-width:1.0;"/><text fill="#000000" font-family="sans-serif" font-size="13" lengthAdjust="spacing" textLength="53.4917" x="1429" y="1009.8151">&#171;extend&#187;</text></g><!--reverse link UC_EXPENSE to UC_FINISH_EXP--><g id="link_UC_EXPENSE_UC_FINISH_EXP"><path d="M1381.2597,977.931 C1426.6597,978.211 1465.71,978.46 1512.94,978.75 " fill="none" id="UC_EXPENSE-backto-UC_FINISH_EXP" style="stroke:#181818;stroke-width:1.0;"/><polygon fill="none" points="1363.26,977.82,1381.2227,983.9309,1381.2967,971.9311,1363.26,977.82" style="stroke:#181818;stroke-width:1.0;"/><text fill="#000000" font-family="sans-serif" font-size="13" lengthAdjust="spacing" textLength="53.4917" x="1429" y="974.8151">&#171;extend&#187;</text></g><!--link UC_ORDER to UC_PAYMENT--><g id="link_UC_ORDER_UC_PAYMENT"><path d="M355.38,1345.29 C406.96,1340.6 468.9746,1334.9633 522.9746,1330.0533 " fill="none" id="UC_ORDER-to-UC_PAYMENT" style="stroke:#181818;stroke-width:1.0;stroke-dasharray:7.0,7.0;"/><polygon fill="#181818" points="528.95,1329.51,519.6248,1326.3414,523.9705,1329.9628,520.3492,1334.3085,528.95,1329.51" style="stroke:#181818;stroke-width:1.0;"/><text fill="#000000" font-family="sans-serif" font-size="13" lengthAdjust="spacing" textLength="55.6563" x="427" y="1330.8151">&#171;include&#187;</text></g><!--link UC_ORDER to UC_RECEIPT--><g id="link_UC_ORDER_UC_RECEIPT"><path d="M327.58,1337.05 C394.18,1316.55 505.7257,1282.1957 569.3157,1262.6157 " fill="none" id="UC_ORDER-to-UC_RECEIPT" style="stroke:#181818;stroke-width:1.0;stroke-dasharray:7.0,7.0;"/><polygon fill="#181818" points="575.05,1260.85,565.2714,1259.6756,570.2714,1262.3214,567.6256,1267.3214,575.05,1260.85" style="stroke:#181818;stroke-width:1.0;"/><text fill="#000000" font-family="sans-serif" font-size="13" lengthAdjust="spacing" textLength="55.6563" x="427" y="1287.8151">&#171;include&#187;</text></g><!--link UC_ORDER_REG to UC_QUEUE_PROD--><g id="link_UC_ORDER_REG_UC_QUEUE_PROD"><path d="M640.9,1587.48 C667.14,1617.69 715.12,1671.81 759,1715.32 C814.94,1770.78 880.3912,1827.6608 916.8312,1858.6808 " fill="none" id="UC_ORDER_REG-to-UC_QUEUE_PROD" style="stroke:#181818;stroke-width:1.0;stroke-dasharray:7.0,7.0;"/><polygon fill="#181818" points="921.4,1862.57,917.1396,1853.6903,917.5927,1859.329,911.954,1859.782,921.4,1862.57" style="stroke:#181818;stroke-width:1.0;"/><text fill="#000000" font-family="sans-serif" font-size="13" lengthAdjust="spacing" textLength="55.6563" x="760" y="1711.8151">&#171;include&#187;</text></g><!--link UC_ORDER_BOX to UC_QUEUE_PROD--><g id="link_UC_ORDER_BOX_UC_QUEUE_PROD"><path d="M698.77,1496.63 C717.3,1502.53 736.02,1511.05 751,1523.32 C866.46,1617.92 922.1416,1793.7786 938.9916,1855.9986 " fill="none" id="UC_ORDER_BOX-to-UC_QUEUE_PROD" style="stroke:#181818;stroke-width:1.0;stroke-dasharray:7.0,7.0;"/><polygon fill="#181818" points="940.56,1861.79,942.0683,1852.0573,939.253,1856.9638,934.3465,1854.1485,940.56,1861.79" style="stroke:#181818;stroke-width:1.0;"/><text fill="#000000" font-family="sans-serif" font-size="13" lengthAdjust="spacing" textLength="55.6563" x="760" y="1527.8151">&#171;include&#187;</text></g><!--link UC_START_PROD to UC_MATERIAL--><g id="link_UC_START_PROD_UC_MATERIAL"><path d="M1020.36,2030.61 C1039.14,2025.35 1057.56,2016.39 1070,2001.32 C1096.86,1968.78 1115.94,1277.69 1143,1245.32 C1156.3,1229.41 1169.7716,1221.4053 1189.6916,1215.5753 " fill="none" id="UC_START_PROD-to-UC_MATERIAL" style="stroke:#181818;stroke-width:1.0;stroke-dasharray:7.0,7.0;"/><polygon fill="#181818" points="1195.45,1213.89,1185.6888,1212.579,1190.6513,1215.2944,1187.9359,1220.257,1195.45,1213.89" style="stroke:#181818;stroke-width:1.0;"/><text fill="#000000" font-family="sans-serif" font-size="13" lengthAdjust="spacing" textLength="55.6563" x="1079" y="1279.8151">&#171;include&#187;</text></g><!--link UC_FINISH_PROD to UC_PRODUCT--><g id="link_UC_FINISH_PROD_UC_PRODUCT"><path d="M1023.07,2099.14 C1040.12,2093.24 1057,2084.69 1070,2072.32 C1234.82,1915.4 1272.2425,1622.124 1279.4525,1544.864 " fill="none" id="UC_FINISH_PROD-to-UC_PRODUCT" style="stroke:#181818;stroke-width:1.0;stroke-dasharray:7.0,7.0;"/><polygon fill="#181818" points="1280.01,1538.89,1275.191,1547.4794,1279.5454,1543.8684,1283.1564,1548.2227,1280.01,1538.89" style="stroke:#181818;stroke-width:1.0;"/><text fill="#000000" font-family="sans-serif" font-size="13" lengthAdjust="spacing" textLength="55.6563" x="1079" y="1996.8151">&#171;include&#187;</text></g><!--SRC=[ZLZDSgCu4Bxp5AeSTdOFcGVOIb95R3bcZO41l9ESN8gjs0eONFpiJ6fctdrR0Wc1m1vVOklh3_L_DqdfMuMg71NiSApGdXLqLx4yiyg4PMTIa1Cwarr23ZIgFbAAE4ooGqer0RAhygA1oJTQvYTgMP_G_VqzibUn7_9lbf11Dm4ziPGbDuYKAF-MqK82ArAoGXplI7ba7H0K-RvEIYQmC__HwDV2JlOVpU1RWxFsrqTtNmhQ7aZMFBekAz2kaEf5JXJZjT1FsOLk8bPMz8ISx2qlJg0MMfEClDCJpL2S9pbQrVG6_R0i19zFwFRs5gtz-SP5ApjoGlvR8AtNqCqQL4vHQzyFWV5FNLAmbECqEz0qJmaAQ0atDQfkPbi_dEDmJFxqMfDAIgEG7kgK5ZtMDiHFrvchl299d_VeFr_dHOoSqIDDsV1EU_uooeQmbRG4_kcLV43AA1C3-sMDlNZKAJiAsg6eAcgbOuXds0dYSGr9HT84j1juSMPxC-nEErCwFw8GwO1cxpL9EtQqT1QZzwNi21vnoJalk2TLzWej0p-CuM8WjtV-ChCb2E7FAdAc4gRB-z6SAS11OAOmMAyGxbJNzhRyyQD-gbF234eKsw3n52Vxe2aubOrTjd0y9rfENzU5PK1iup95RFnhPrN1HiXVDdY3ht1bR8RSDZoAF18Rn_iNij8F9uEZTPtB5ItkLe7X8P_5bmYFv0WgFvAabgIr7UFGiTsBBDxbtecauES0Un6-aZO3aiWQO4udpO3GvCm4Gq-P0Q_Dc2cYBCSgJz2ILNLsw2xqPwljpDzu5ohIJki2ohWewPwHhevbH5-s2zV_UZrf-cEbonfupYMjLwIY1s2DQ32phxAZ-dnEMTVAeqqGk1TQoDhsx7ymDD2fD5M3w-hWIMZHHUYh7wukDqim3vpq1rf2XxOJwEtAJRwBBnFrUSpTie6mhg_SLkHlB4MR4ef3IuPGT825S_d6DQtoFPsUFTirZfVJhS3pOsVXyD4-vMGlhzWR9FfagsuoInTh512F7bMT5kn489LfKJM54D9iJuwI21dS5CDLClv-XeLkhpK69yIJja87c3lU4mhi9pnbhKkoFSiEA82pY_QkUEFF3uCM25LWk_xJD6q68UB1wW_n9LWyES4RuiB-eZgC_QKryPVSz4BiyX0s- -WjsaGOmNp6OlK3aNOj1OJmR4PdcjL7Iooeu8Y7aQa-XecHCWRmkk-TjnNMb-MbqpjHjT4xxMT-3ngaT0zhiWri5RkArMxP4csSEpYKszdWM6vXW-FUeZN0cZNAU4xFemDKwIldjzKj_qf1jUcOcBRIcA2-jPYelfgOgBPxcA2U2IQgR5BZnL9lBCgcTaam0BK868YSzmQWJqm378n40zTory3aC3Dlb2FBG1hRZUEkbusP9RgLgCzsRA0_p_KhLEfVbdoNqrGIdMLuthME8SBRHByzuESOUtEOQuutSpTprHwCLpH4lrVGaajBbWww-mbjL7_zGd-Zkxj6xE5XIWvUjtvBJhnQzILxQhKhbgvMcnJgGNA_C-uR2ggzxgfajyaPgZdPBgtt_Dy5AU4L0ALzrhpr-RFUO0IRDGpT1wrKssycf8IlMyckDAU4kSD_GxXh7b9QLfyfg_KIPLTJmmFP_m40]--></g></svg>