<svg xmlns="http://www.w3.org/2000/svg" xmlns:xlink="http://www.w3.org/1999/xlink" contentStyleType="text/css" height="4042px" preserveAspectRatio="none" style="width:1534px;height:4042px;background:#FFFFFF;" version="1.1" viewBox="0 0 1534 4042" width="1534px" zoomAndPan="magnify"><title>Use Case Diagram - Increment 1</title><defs/><g><text fill="#000000" font-family="sans-serif" font-size="14" font-weight="bold" lengthAdjust="spacing" textLength="213.9785" x="653.0107" y="24.5332">Use Case Diagram - Increment 1</text><text fill="#000000" font-family="sans-serif" font-size="14" font-weight="bold" lengthAdjust="spacing" textLength="260.6201" x="629.6899" y="42.1426">Sistem Manajemen Toko Kue Pawon3D</text><text fill="#000000" font-family="sans-serif" font-size="14" font-weight="bold" lengthAdjust="spacing" textLength="150.8965" x="684.5518" y="59.752">Modul Inti Operasional</text><!--cluster Sistem Pawon3D - Increment 1--><g id="cluster_Sistem Pawon3D - Increment 1"><rect fill="none" height="3365" rx="2.5" ry="2.5" style="stroke:#181818;stroke-width:1.0;" width="1373" x="155" y="424.6581"/><text fill="#000000" font-family="sans-serif" font-size="14" font-weight="bold" lengthAdjust="spacing" textLength="203.8408" x="739.5796" y="441.1913">Sistem Pawon3D - Increment 1</text></g><!--cluster Autentikasi--><g id="cluster_Autentikasi"><rect fill="none" height="160" rx="2.5" ry="2.5" style="stroke:#181818;stroke-width:1.0;" width="194" x="233" y="2360.6581"/><text fill="#000000" font-family="sans-serif" font-size="14" font-weight="bold" lengthAdjust="spacing" textLength="75.4619" x="292.269" y="2377.1913">Autentikasi</text></g><!--cluster Pengelolaan Kategori--><g id="cluster_Pengelolaan Kategori"><rect fill="none" height="337" rx="2.5" ry="2.5" style="stroke:#181818;stroke-width:1.0;" width="256" x="202" y="1999.6581"/><text fill="#000000" font-family="sans-serif" font-size="14" font-weight="bold" lengthAdjust="spacing" textLength="143.1445" x="258.4277" y="2016.1913">Pengelolaan Kategori</text></g><!--cluster Pengelolaan Satuan--><g id="cluster_Pengelolaan Satuan"><rect fill="none" height="263" rx="2.5" ry="2.5" style="stroke:#181818;stroke-width:1.0;" width="249" x="205.5" y="468.6581"/><text fill="#000000" font-family="sans-serif" font-size="14" font-weight="bold" lengthAdjust="spacing" textLength="133.0342" x="263.4829" y="485.1913">Pengelolaan Satuan</text></g><!--cluster Pengelolaan Supplier--><g id="cluster_Pengelolaan Supplier"><rect fill="none" height="255" rx="2.5" ry="2.5" style="stroke:#181818;stroke-width:1.0;" width="255" x="202.5" y="755.6581"/><text fill="#000000" font-family="sans-serif" font-size="14" font-weight="bold" lengthAdjust="spacing" textLength="142.3652" x="258.8174" y="772.1913">Pengelolaan Supplier</text></g><!--cluster Pengelolaan Bahan Baku--><g id="cluster_Pengelolaan Bahan Baku"><rect fill="none" height="268" rx="2.5" ry="2.5" style="stroke:#181818;stroke-width:1.0;" width="278" x="191" y="1034.6581"/><text fill="#000000" font-family="sans-serif" font-size="14" font-weight="bold" lengthAdjust="spacing" textLength="167.2686" x="246.3657" y="1051.1913">Pengelolaan Bahan Baku</text></g><!--cluster Pengelolaan Belanja--><g id="cluster_Pengelolaan Belanja"><rect fill="none" height="262" rx="2.5" ry="2.5" style="stroke:#181818;stroke-width:1.0;" width="961" x="204.5" y="1326.6581"/><text fill="#000000" font-family="sans-serif" font-size="14" font-weight="bold" lengthAdjust="spacing" textLength="136.1582" x="616.9209" y="1343.1913">Pengelolaan Belanja</text></g><!--cluster Pengelolaan Produk--><g id="cluster_Pengelolaan Produk"><rect fill="none" height="363" rx="2.5" ry="2.5" style="stroke:#181818;stroke-width:1.0;" width="302" x="179" y="1612.6581"/><text fill="#000000" font-family="sans-serif" font-size="14" font-weight="bold" lengthAdjust="spacing" textLength="134.5859" x="262.707" y="1629.1913">Pengelolaan Produk</text></g><!--cluster Pengelolaan Produksi--><g id="cluster_Pengelolaan Produksi"><rect fill="none" height="685" rx="2.5" ry="2.5" style="stroke:#181818;stroke-width:1.0;" width="278" x="191" y="2544.6581"/><text fill="#000000" font-family="sans-serif" font-size="14" font-weight="bold" lengthAdjust="spacing" textLength="146.2617" x="256.8691" y="2561.1913">Pengelolaan Produksi</text></g><!--cluster Transaksi Penjualan--><g id="cluster_Transaksi Penjualan"><rect fill="none" height="512" rx="2.5" ry="2.5" style="stroke:#181818;stroke-width:1.0;" width="1302" x="202" y="3253.6581"/><text fill="#000000" font-family="sans-serif" font-size="14" font-weight="bold" lengthAdjust="spacing" textLength="135.3926" x="785.3037" y="3270.1913">Transaksi Penjualan</text></g><g id="elem_UC001"><ellipse cx="329.8352" cy="2414.4252" fill="#F1F1F1" rx="74.3352" ry="17.267" style="stroke:#181818;stroke-width:0.5;"/><text fill="#000000" font-family="sans-serif" font-size="14" lengthAdjust="spacing" textLength="99.6064" x="277.032" y="2418.9418">Login ke Sistem</text></g><g id="elem_UC002"><ellipse cx="329.9867" cy="2485.7555" fill="#F1F1F1" rx="80.9867" ry="18.5973" style="stroke:#181818;stroke-width:0.5;"/><text fill="#000000" font-family="sans-serif" font-size="14" lengthAdjust="spacing" textLength="116.7305" x="271.0619" y="2489.6476">Logout dari Sistem</text></g><g id="elem_UC003"><ellipse cx="330.0528" cy="2060.4687" fill="#F1F1F1" rx="112.0528" ry="24.8106" style="stroke:#181818;stroke-width:0.5;"/><text fill="#000000" font-family="sans-serif" font-size="14" lengthAdjust="spacing" textLength="187.5439" x="236.2808" y="2064.1972">Mengakses Halaman Kategori</text></g><g id="elem_UC004"><ellipse cx="329.907" cy="2143.4395" fill="#F1F1F1" rx="99.407" ry="22.2814" style="stroke:#181818;stroke-width:0.5;"/><text fill="#000000" font-family="sans-serif" font-size="14" lengthAdjust="spacing" textLength="159.5371" x="250.1384" y="2147.168">Menambah Kategori Baru</text></g><g id="elem_UC005"><ellipse cx="330.187" cy="2223.5955" fill="#F1F1F1" rx="97.687" ry="21.9374" style="stroke:#181818;stroke-width:0.5;"/><text fill="#000000" font-family="sans-serif" font-size="14" lengthAdjust="spacing" textLength="155.6611" x="252.3564" y="2227.324">Mengubah Data Kategori</text></g><g id="elem_UC006"><ellipse cx="330.2008" cy="2300.7983" fill="#F1F1F1" rx="86.2008" ry="19.6402" style="stroke:#181818;stroke-width:0.5;"/><text fill="#000000" font-family="sans-serif" font-size="14" lengthAdjust="spacing" textLength="129.1992" x="265.6012" y="2304.5268">Menghapus Kategori</text></g><g id="elem_UC007"><ellipse cx="330.009" cy="528.7599" fill="#F1F1F1" rx="108.509" ry="24.1018" style="stroke:#181818;stroke-width:0.5;"/><text fill="#000000" font-family="sans-serif" font-size="14" lengthAdjust="spacing" textLength="179.7715" x="240.1232" y="532.4884">Mengakses Halaman Satuan</text></g><g id="elem_UC008"><ellipse cx="329.907" cy="610.4395" fill="#F1F1F1" rx="99.407" ry="22.2814" style="stroke:#181818;stroke-width:0.5;"/><text fill="#000000" font-family="sans-serif" font-size="14" lengthAdjust="spacing" textLength="159.5371" x="250.1384" y="614.168">Menambah Satuan Dasar</text></g><g id="elem_UC009"><ellipse cx="330.0457" cy="691.7673" fill="#F1F1F1" rx="106.0457" ry="23.6091" style="stroke:#181818;stroke-width:0.5;"/><text fill="#000000" font-family="sans-serif" font-size="14" lengthAdjust="spacing" textLength="174.3369" x="242.8773" y="695.4958">Menambah Satuan Turunan</text></g><g id="elem_UC010"><ellipse cx="330.1964" cy="816.8974" fill="#F1F1F1" rx="111.6964" ry="24.7393" style="stroke:#181818;stroke-width:0.5;"/><text fill="#000000" font-family="sans-serif" font-size="14" lengthAdjust="spacing" textLength="186.7646" x="236.8141" y="820.6259">Mengakses Halaman Supplier</text></g><g id="elem_UC011"><ellipse cx="330.0512" cy="895.4684" fill="#F1F1F1" rx="84.5512" ry="19.3102" style="stroke:#181818;stroke-width:0.5;"/><text fill="#000000" font-family="sans-serif" font-size="14" lengthAdjust="spacing" textLength="125.2959" x="267.4033" y="899.1969">Menambah Supplier</text></g><g id="elem_UC012"><ellipse cx="329.8422" cy="972.5266" fill="#F1F1F1" rx="97.3422" ry="21.8684" style="stroke:#181818;stroke-width:0.5;"/><text fill="#000000" font-family="sans-serif" font-size="14" lengthAdjust="spacing" textLength="154.8818" x="252.4013" y="976.2551">Mengubah Data Supplier</text></g><g id="elem_UC013"><ellipse cx="330.1933" cy="1097.6968" fill="#F1F1F1" rx="123.1933" ry="27.0387" style="stroke:#181818;stroke-width:0.5;"/><text fill="#000000" font-family="sans-serif" font-size="14" lengthAdjust="spacing" textLength="211.6816" x="224.3525" y="1101.4253">Mengakses Halaman Bahan Baku</text></g><g id="elem_UC014"><ellipse cx="329.7839" cy="1181.6149" fill="#F1F1F1" rx="95.2839" ry="21.4568" style="stroke:#181818;stroke-width:0.5;"/><text fill="#000000" font-family="sans-serif" font-size="14" lengthAdjust="spacing" textLength="150.2129" x="254.6775" y="1185.3434">Menambah Bahan Baku</text></g><g id="elem_UC015"><ellipse cx="330.0214" cy="1262.7624" fill="#F1F1F1" rx="108.5214" ry="24.1043" style="stroke:#181818;stroke-width:0.5;"/><text fill="#000000" font-family="sans-serif" font-size="14" lengthAdjust="spacing" textLength="179.7988" x="240.122" y="1266.4909">Mengubah Data Bahan Baku</text></g><g id="elem_UC016"><ellipse cx="330.0693" cy="1387.472" fill="#F1F1F1" rx="109.5693" ry="24.3139" style="stroke:#181818;stroke-width:0.5;"/><text fill="#000000" font-family="sans-serif" font-size="14" lengthAdjust="spacing" textLength="182.1025" x="239.018" y="1391.2005">Mengakses Halaman Belanja</text></g><g id="elem_UC017"><ellipse cx="330.0864" cy="1470.7754" fill="#F1F1F1" rx="103.5864" ry="23.1173" style="stroke:#181818;stroke-width:0.5;"/><text fill="#000000" font-family="sans-serif" font-size="14" lengthAdjust="spacing" textLength="168.8818" x="245.6455" y="1474.5039">Membuat Rencana Belanja</text></g><g id="elem_UC018"><ellipse cx="713.1115" cy="1384.6804" fill="#F1F1F1" rx="95.6115" ry="21.5223" style="stroke:#181818;stroke-width:0.5;"/><text fill="#000000" font-family="sans-serif" font-size="14" lengthAdjust="spacing" textLength="150.958" x="637.6325" y="1388.4089">Memulai Proses Belanja</text></g><g id="elem_UC019"><ellipse cx="1057.0566" cy="1384.5694" fill="#F1F1F1" rx="92.5566" ry="20.9113" style="stroke:#181818;stroke-width:0.5;"/><text fill="#000000" font-family="sans-serif" font-size="14" lengthAdjust="spacing" textLength="143.9785" x="985.0674" y="1388.298">Menyelesaikan Belanja</text></g><g id="elem_UC020"><ellipse cx="329.9296" cy="1550.5441" fill="#F1F1F1" rx="94.9296" ry="21.3859" style="stroke:#181818;stroke-width:0.5;"/><text fill="#000000" font-family="sans-serif" font-size="14" lengthAdjust="spacing" textLength="149.4063" x="255.2265" y="1554.2726">Melihat Riwayat Belanja</text></g><g id="elem_UC021"><ellipse cx="330.0027" cy="1672.7587" fill="#F1F1F1" rx="108.5027" ry="24.1005" style="stroke:#181818;stroke-width:0.5;"/><text fill="#000000" font-family="sans-serif" font-size="14" lengthAdjust="spacing" textLength="179.7578" x="240.1238" y="1676.4872">Mengakses Halaman Produk</text></g><g id="elem_UC022"><ellipse cx="330.2259" cy="1761.6033" fill="#F1F1F1" rx="135.2259" ry="29.4452" style="stroke:#181818;stroke-width:0.5;"/><text fill="#000000" font-family="sans-serif" font-size="14" lengthAdjust="spacing" textLength="237.3643" x="211.5438" y="1765.3318">Menambah Produk dengan Komposisi</text></g><g id="elem_UC023"><ellipse cx="330.009" cy="1850.7599" fill="#F1F1F1" rx="108.509" ry="24.1018" style="stroke:#181818;stroke-width:0.5;"/><text fill="#000000" font-family="sans-serif" font-size="14" lengthAdjust="spacing" textLength="179.7715" x="240.1232" y="1854.4884">Menambah Biaya Tambahan</text></g><g id="elem_UC024"><ellipse cx="329.9243" cy="1934.543" fill="#F1F1F1" rx="109.9243" ry="24.3849" style="stroke:#181818;stroke-width:0.5;"/><text fill="#000000" font-family="sans-serif" font-size="14" lengthAdjust="spacing" textLength="182.8818" x="238.4833" y="1938.2715">Mengubah Komposisi Produk</text></g><g id="elem_UC027"><ellipse cx="330.117" cy="2773.6815" fill="#F1F1F1" rx="113.117" ry="25.0234" style="stroke:#181818;stroke-width:0.5;"/><text fill="#000000" font-family="sans-serif" font-size="14" lengthAdjust="spacing" textLength="189.8682" x="235.1829" y="2777.41">Mengakses Halaman Produksi</text></g><g id="elem_UC028"><ellipse cx="329.795" cy="2857.6171" fill="#F1F1F1" rx="107.795" ry="23.959" style="stroke:#181818;stroke-width:0.5;"/><text fill="#000000" font-family="sans-serif" font-size="14" lengthAdjust="spacing" textLength="178.1992" x="240.6954" y="2861.3456">Mengakses Antrian Produksi</text></g><g id="elem_UC029"><ellipse cx="330.0732" cy="2943.4728" fill="#F1F1F1" rx="119.5732" ry="26.3146" style="stroke:#181818;stroke-width:0.5;"/><text fill="#000000" font-family="sans-serif" font-size="14" lengthAdjust="spacing" textLength="203.8818" x="228.1323" y="2947.2013">Memilih Pesanan untuk Produksi</text></g><g id="elem_UC030"><ellipse cx="329.7855" cy="3023.8152" fill="#F1F1F1" rx="78.7855" ry="18.1571" style="stroke:#181818;stroke-width:0.5;"/><text fill="#000000" font-family="sans-serif" font-size="14" lengthAdjust="spacing" textLength="111.2617" x="272.6157" y="3027.9746">Memulai Produksi</text></g><g id="elem_UC031"><ellipse cx="329.8308" cy="3103.6243" fill="#F1F1F1" rx="122.8308" ry="26.9662" style="stroke:#181818;stroke-width:0.5;"/><text fill="#000000" font-family="sans-serif" font-size="14" lengthAdjust="spacing" textLength="210.9023" x="224.3797" y="3107.3528">Menyelesaikan Produksi Pesanan</text></g><g id="elem_UC032"><ellipse cx="330.2354" cy="3189.9052" fill="#F1F1F1" rx="106.7354" ry="23.7471" style="stroke:#181818;stroke-width:0.5;"/><text fill="#000000" font-family="sans-serif" font-size="14" lengthAdjust="spacing" textLength="175.8613" x="242.3047" y="3193.6337">Membuat Produksi Siap Beli</text></g><g id="elem_UC033"><ellipse cx="329.8245" cy="2607.623" fill="#F1F1F1" rx="122.8245" ry="26.9649" style="stroke:#181818;stroke-width:0.5;"/><text fill="#000000" font-family="sans-serif" font-size="14" lengthAdjust="spacing" textLength="210.8887" x="224.3801" y="2611.3515">Menyelesaikan Produksi Siap Beli</text></g><g id="elem_UC034"><ellipse cx="329.8564" cy="2691.7294" fill="#F1F1F1" rx="98.3564" ry="22.0713" style="stroke:#181818;stroke-width:0.5;"/><text fill="#000000" font-family="sans-serif" font-size="14" lengthAdjust="spacing" textLength="157.1719" x="251.2705" y="2695.4579">Melihat Riwayat Produksi</text></g><g id="elem_UC037"><ellipse cx="329.7857" cy="3725.6153" fill="#F1F1F1" rx="107.7857" ry="23.9571" style="stroke:#181818;stroke-width:0.5;"/><text fill="#000000" font-family="sans-serif" font-size="14" lengthAdjust="spacing" textLength="178.1787" x="240.6964" y="3729.3438">Mengakses Daftar Transaksi</text></g><g id="elem_UC038"><ellipse cx="329.8716" cy="3311.7324" fill="#F1F1F1" rx="98.3716" ry="22.0743" style="stroke:#181818;stroke-width:0.5;"/><text fill="#000000" font-family="sans-serif" font-size="14" lengthAdjust="spacing" textLength="157.2061" x="251.2685" y="3315.461">Membuat Pesanan Kotak</text></g><g id="elem_UC039"><ellipse cx="329.7846" cy="3392.415" fill="#F1F1F1" rx="104.2846" ry="23.2569" style="stroke:#181818;stroke-width:0.5;"/><text fill="#000000" font-family="sans-serif" font-size="14" lengthAdjust="spacing" textLength="170.4336" x="244.5678" y="3396.1436">Membuat Pesanan Reguler</text></g><g id="elem_UC040"><ellipse cx="330.0568" cy="3475.4695" fill="#F1F1F1" rx="109.5568" ry="24.3114" style="stroke:#181818;stroke-width:0.5;"/><text fill="#000000" font-family="sans-serif" font-size="14" lengthAdjust="spacing" textLength="182.0752" x="239.0192" y="3479.198">Membuat Transaksi Siap Beli</text></g><g id="elem_UC041"><ellipse cx="712.9959" cy="3475.8573" fill="#F1F1F1" rx="128.9959" ry="28.1992" style="stroke:#181818;stroke-width:0.5;"/><text fill="#000000" font-family="sans-serif" font-size="14" lengthAdjust="spacing" textLength="224.1094" x="600.9412" y="3479.5858">Menambahkan Produk ke Transaksi</text></g><g id="elem_UC042"><ellipse cx="330.059" cy="3560.4699" fill="#F1F1F1" rx="112.059" ry="24.8118" style="stroke:#181818;stroke-width:0.5;"/><text fill="#000000" font-family="sans-serif" font-size="14" lengthAdjust="spacing" textLength="187.5576" x="236.2802" y="3564.1984">Memasukkan Data Pelanggan</text></g><g id="elem_UC043"><ellipse cx="1057.014" cy="3714.6609" fill="#F1F1F1" rx="98.014" ry="22.0028" style="stroke:#181818;stroke-width:0.5;"/><text fill="#000000" font-family="sans-serif" font-size="14" lengthAdjust="spacing" textLength="156.3994" x="978.8143" y="3718.3894">Memproses Pembayaran</text></g><g id="elem_UC044"><ellipse cx="1378.8539" cy="3720.8289" fill="#F1F1F1" rx="108.8539" ry="24.1708" style="stroke:#181818;stroke-width:0.5;"/><text fill="#000000" font-family="sans-serif" font-size="14" lengthAdjust="spacing" textLength="180.5303" x="1288.5887" y="3724.5574">Mencetak Struk Pembayaran</text></g><g id="elem_UC045"><ellipse cx="330.1229" cy="3643.7827" fill="#F1F1F1" rx="101.1229" ry="22.6246" style="stroke:#181818;stroke-width:0.5;"/><text fill="#000000" font-family="sans-serif" font-size="14" lengthAdjust="spacing" textLength="163.3857" x="248.43" y="3647.5112">Melihat Riwayat Transaksi</text></g><!--entity Inventory--><g id="elem_Inventory"><ellipse cx="57.0894" cy="1406.6581" fill="#F1F1F1" rx="16" ry="16" style="stroke:#181818;stroke-width:0.5;"/><path d="M57.0894,1426.6581 C61.0894,1426.6581 64.0894,1426.6581 68.0894,1422.6581 C76.0894,1422.6581 84.0894,1430.6581 84.0894,1438.6581 L84.0894,1442.6581 C84.0894,1446.6581 80.0894,1450.6581 76.0894,1450.6581 L38.0894,1450.6581 C34.0894,1450.6581 30.0894,1446.6581 30.0894,1442.6581 L30.0894,1438.6581 C30.0894,1430.6581 38.0894,1422.6581 46.0894,1422.6581 C50.0894,1426.6581 53.0894,1426.6581 57.0894,1426.6581 " fill="#F1F1F1" style="stroke:#181818;stroke-width:0.5;"/><text fill="#000000" font-family="sans-serif" font-size="14" lengthAdjust="spacing" textLength="101.1787" x="6.5" y="1465.6913">Bagian Inventori</text></g><!--entity Production--><g id="elem_Production"><ellipse cx="56.9756" cy="2777.6581" fill="#F1F1F1" rx="16" ry="16" style="stroke:#181818;stroke-width:0.5;"/><path d="M56.9756,2797.6581 C60.9756,2797.6581 63.9756,2797.6581 67.9756,2793.6581 C75.9756,2793.6581 83.9756,2801.6581 83.9756,2809.6581 L83.9756,2813.6581 C83.9756,2817.6581 79.9756,2821.6581 75.9756,2821.6581 L37.9756,2821.6581 C33.9756,2821.6581 29.9756,2817.6581 29.9756,2813.6581 L29.9756,2809.6581 C29.9756,2801.6581 37.9756,2793.6581 45.9756,2793.6581 C49.9756,2797.6581 52.9756,2797.6581 56.9756,2797.6581 " fill="#F1F1F1" style="stroke:#181818;stroke-width:0.5;"/><text fill="#000000" font-family="sans-serif" font-size="14" lengthAdjust="spacing" textLength="101.9512" x="6" y="2836.6913">Bagian Produksi</text></g><!--entity Cashier--><g id="elem_Cashier"><ellipse cx="57" cy="3537.6581" fill="#F1F1F1" rx="16" ry="16" style="stroke:#181818;stroke-width:0.5;"/><path d="M57,3557.6581 C61,3557.6581 64,3557.6581 68,3553.6581 C76,3553.6581 84,3561.6581 84,3569.6581 L84,3573.6581 C84,3577.6581 80,3581.6581 76,3581.6581 L38,3581.6581 C34,3581.6581 30,3577.6581 30,3573.6581 L30,3569.6581 C30,3561.6581 38,3553.6581 46,3553.6581 C50,3557.6581 53,3557.6581 57,3557.6581 " fill="#F1F1F1" style="stroke:#181818;stroke-width:0.5;"/><text fill="#000000" font-family="sans-serif" font-size="14" lengthAdjust="spacing" textLength="31.8965" x="41.0518" y="3596.6913">Kasir</text></g><!--link Inventory to UC001--><g id="link_Inventory_UC001"><path d="M59.51,1469.3981 C66.12,1635.1581 94.55,2266.1681 147,2336.6581 C175.63,2375.1381 221.2705,2393.4178 262.1905,2403.3878 " fill="none" id="Inventory-to-UC001" style="stroke:#181818;stroke-width:1.0;"/><polygon fill="#181818" points="268.02,2404.8081,260.2227,2398.7913,263.1621,2403.6245,258.3289,2406.5639,268.02,2404.8081" style="stroke:#181818;stroke-width:1.0;"/></g><!--link Inventory to UC002--><g id="link_Inventory_UC002"><path d="M58.7,1469.4181 C62.2,1648.5781 80.45,2375.4881 147,2449.6581 C172.81,2478.4281 208.4306,2487.7811 245.3406,2489.9811 " fill="none" id="Inventory-to-UC002" style="stroke:#181818;stroke-width:1.0;"/><polygon fill="#181818" points="251.33,2490.3381,242.5839,2485.8097,246.3389,2490.0406,242.1079,2493.7955,251.33,2490.3381" style="stroke:#181818;stroke-width:1.0;"/></g><!--link Inventory to UC003--><g id="link_Inventory_UC003"><path d="M69.67,1469.3381 C88.12,1534.0581 123.54,1666.6881 139,1781.6581 C141.88,1803.0481 135.04,1957.7081 147,1975.6581 C170,2010.1981 205.2561,2029.1063 242.4861,2041.4763 " fill="none" id="Inventory-to-UC003" style="stroke:#181818;stroke-width:1.0;"/><polygon fill="#181818" points="248.18,2043.3681,240.9003,2036.7344,243.4351,2041.7916,238.3779,2044.3263,248.18,2043.3681" style="stroke:#181818;stroke-width:1.0;"/></g><!--link Inventory to UC004--><g id="link_Inventory_UC004"><path d="M67.05,1469.3881 C84.49,1547.8681 122.5,1728.5481 139,1882.6581 C140.3,1894.8281 139.19,2093.2481 147,2102.6581 C167.38,2127.2081 193.0997,2137.9634 224.3197,2143.1034 " fill="none" id="Inventory-to-UC004" style="stroke:#181818;stroke-width:1.0;"/><polygon fill="#181818" points="230.24,2144.0781,222.0094,2138.6692,225.3064,2143.2659,220.7097,2146.5629,230.24,2144.0781" style="stroke:#181818;stroke-width:1.0;"/></g><!--link Inventory to UC005--><g id="link_Inventory_UC005"><path d="M64.28,1469.4181 C79.48,1566.9681 118.46,1826.0981 139,2043.6581 C140.46,2059.1781 136.89,2171.8081 147,2183.6581 C168.09,2208.4081 194.7378,2218.989 226.5378,2223.809 " fill="none" id="Inventory-to-UC005" style="stroke:#181818;stroke-width:1.0;"/><polygon fill="#181818" points="232.47,2224.7081,224.1711,2219.4046,227.5265,2223.9588,222.9722,2227.3142,232.47,2224.7081" style="stroke:#181818;stroke-width:1.0;"/></g><!--link Inventory to UC006--><g id="link_Inventory_UC006"><path d="M59.53,1469.3081 C65.99,1626.8781 93.13,2203.1581 147,2262.6581 C171.48,2289.7081 203.8373,2299.706 239.0173,2303.076 " fill="none" id="Inventory-to-UC006" style="stroke:#181818;stroke-width:1.0;"/><polygon fill="#181818" points="244.99,2303.6481,236.4124,2298.8081,240.0128,2303.1713,235.6496,2306.7717,244.99,2303.6481" style="stroke:#181818;stroke-width:1.0;"/></g><!--link Inventory to UC007--><g id="link_Inventory_UC007"><path d="M59.38,1390.1481 C65.36,1229.6381 91.24,632.1181 147,570.6581 C166.28,549.4081 188.1254,539.0957 216.1154,533.0457 " fill="none" id="Inventory-to-UC007" style="stroke:#181818;stroke-width:1.0;"/><polygon fill="#181818" points="221.98,531.7781,212.3381,529.7698,217.0929,532.8345,214.0282,537.5893,221.98,531.7781" style="stroke:#181818;stroke-width:1.0;"/></g><!--link Inventory to UC008--><g id="link_Inventory_UC008"><path d="M59.86,1390.0481 C67.3,1239.1781 96.96,706.1181 147,650.6581 C168.13,627.2481 193.6508,616.8395 224.4708,611.7295 " fill="none" id="Inventory-to-UC008" style="stroke:#181818;stroke-width:1.0;"/><polygon fill="#181818" points="230.39,610.7481,220.8569,608.2741,225.4573,611.566,222.1655,616.1664,230.39,610.7481" style="stroke:#181818;stroke-width:1.0;"/></g><!--link Inventory to UC009--><g id="link_Inventory_UC009"><path d="M58.52,1390.1481 C60.92,1264.1081 74.18,874.1281 147,775.6581 C172.56,741.1081 210.0999,722.1908 248.0299,709.9508 " fill="none" id="Inventory-to-UC009" style="stroke:#181818;stroke-width:1.0;"/><polygon fill="#181818" points="253.74,708.1081,243.9465,707.0654,248.9816,709.6437,246.4033,714.6788,253.74,708.1081" style="stroke:#181818;stroke-width:1.0;"/></g><!--link Inventory to UC010--><g id="link_Inventory_UC010"><path d="M58.6,1390.1181 C61.19,1273.8081 74.9,936.1581 147,858.6581 C166,838.2481 186.9198,828.1405 214.0998,821.9505 " fill="none" id="Inventory-to-UC010" style="stroke:#181818;stroke-width:1.0;"/><polygon fill="#181818" points="219.95,820.6181,210.2865,818.7165,215.0748,821.7284,212.0629,826.5168,219.95,820.6181" style="stroke:#181818;stroke-width:1.0;"/></g><!--link Inventory to UC011--><g id="link_Inventory_UC011"><path d="M59.53,1389.9081 C64.45,1283.8381 83.45,997.7181 147,932.6581 C172.46,906.5981 204.9371,896.9081 239.9371,893.5681 " fill="none" id="Inventory-to-UC011" style="stroke:#181818;stroke-width:1.0;"/><polygon fill="#181818" points="245.91,892.9981,236.5707,889.8712,240.9326,893.4731,237.3307,897.835,245.91,892.9981" style="stroke:#181818;stroke-width:1.0;"/></g><!--link Inventory to UC012--><g id="link_Inventory_UC012"><path d="M62.92,1390.1281 C74.27,1304.6181 104.55,1106.0681 147,1054.6581 C175.25,1020.4581 215.0206,1001.7397 253.4506,989.7897 " fill="none" id="Inventory-to-UC012" style="stroke:#181818;stroke-width:1.0;"/><polygon fill="#181818" points="259.18,988.0081,249.3982,986.8609,254.4055,989.4928,251.7736,994.5001,259.18,988.0081" style="stroke:#181818;stroke-width:1.0;"/></g><!--link Inventory to UC013--><g id="link_Inventory_UC013"><path d="M58.59,1389.9581 C61.75,1327.9781 77.18,1208.5281 147,1142.6581 C165.59,1125.1281 184.1066,1115.7158 208.8666,1108.8758 " fill="none" id="Inventory-to-UC013" style="stroke:#181818;stroke-width:1.0;"/><polygon fill="#181818" points="214.65,1107.2781,204.9098,1105.819,209.8305,1108.6095,207.04,1113.5302,214.65,1107.2781" style="stroke:#181818;stroke-width:1.0;"/></g><!--link Inventory to UC014--><g id="link_Inventory_UC014"><path d="M63.71,1390.0281 C72.74,1342.4081 94.97,1263.5681 147,1220.6581 C171.68,1200.3081 198.5716,1190.8545 229.5316,1185.6945 " fill="none" id="Inventory-to-UC014" style="stroke:#181818;stroke-width:1.0;"/><polygon fill="#181818" points="235.45,1184.7081,225.9149,1182.2421,230.518,1185.5301,227.2301,1190.1333,235.45,1184.7081" style="stroke:#181818;stroke-width:1.0;"/></g><!--link Inventory to UC015--><g id="link_Inventory_UC015"><path d="M95.14,1390.0081 C110.3,1375.2181 128.58,1359.0281 147,1346.6581 C186.43,1320.1781 229.9882,1300.2841 267.2582,1285.3941 " fill="none" id="Inventory-to-UC015" style="stroke:#181818;stroke-width:1.0;"/><polygon fill="#181818" points="272.83,1283.1681,262.9883,1282.7926,268.1868,1285.0231,265.9563,1290.2217,272.83,1283.1681" style="stroke:#181818;stroke-width:1.0;"/></g><!--link Inventory to UC016--><g id="link_Inventory_UC016"><path d="M107.71,1421.9581 C144.53,1416.2481 189.7908,1409.2372 233.6608,1402.4372 " fill="none" id="Inventory-to-UC016" style="stroke:#181818;stroke-width:1.0;"/><polygon fill="#181818" points="239.59,1401.5181,230.0835,1398.9439,234.649,1402.284,231.3089,1406.8495,239.59,1401.5181" style="stroke:#181818;stroke-width:1.0;"/></g><!--link Inventory to UC017--><g id="link_Inventory_UC017"><path d="M107.71,1437.1781 C145.75,1442.9381 193.1974,1450.1216 237.9974,1456.8916 " fill="none" id="Inventory-to-UC017" style="stroke:#181818;stroke-width:1.0;"/><polygon fill="#181818" points="243.93,1457.7881,235.6287,1452.4883,238.9861,1457.041,234.4334,1460.3984,243.93,1457.7881" style="stroke:#181818;stroke-width:1.0;"/></g><!--link Inventory to UC018--><g id="link_Inventory_UC018"><path d="M58.63,1390.0881 C61.74,1219.0281 78.27,549.1181 147,488.6581 C261.13,388.2681 369.24,395.0581 489,488.6581 C634.56,602.4381 698.2388,1231.7426 709.5988,1357.1726 " fill="none" id="Inventory-to-UC018" style="stroke:#181818;stroke-width:1.0;"/><polygon fill="#181818" points="710.14,1363.1481,713.3119,1353.824,709.689,1358.1685,705.3445,1354.5456,710.14,1363.1481" style="stroke:#181818;stroke-width:1.0;"/></g><!--link Inventory to UC019--><g id="link_Inventory_UC019"><path d="M58.29,1390.0981 C60,1211.8281 71.58,489.2581 147,426.6581 C564.92,79.8281 985.6631,1189.4045 1046.5031,1357.9745 " fill="none" id="Inventory-to-UC019" style="stroke:#181818;stroke-width:1.0;"/><polygon fill="#181818" points="1048.54,1363.6181,1049.2471,1353.7947,1046.8426,1358.9151,1041.7222,1356.5106,1048.54,1363.6181" style="stroke:#181818;stroke-width:1.0;"/></g><!--link Inventory to UC020--><g id="link_Inventory_UC020"><path d="M92.75,1469.1881 C107.99,1484.2581 126.96,1500.2981 147,1510.6581 C176.74,1526.0481 206.2795,1534.4401 237.9495,1540.2801 " fill="none" id="Inventory-to-UC020" style="stroke:#181818;stroke-width:1.0;"/><polygon fill="#181818" points="243.85,1541.3681,235.7246,1535.8023,238.9329,1540.4614,234.2738,1543.6697,243.85,1541.3681" style="stroke:#181818;stroke-width:1.0;"/></g><!--link Inventory to UC021--><g id="link_Inventory_UC021"><path d="M84.49,1469.2581 C101.5,1495.7881 123.28,1531.9081 139,1565.6581 C143.57,1575.4781 139.73,1580.6481 147,1588.6581 C176.34,1621.0181 214.9717,1639.9 252.5317,1652.72 " fill="none" id="Inventory-to-UC021" style="stroke:#181818;stroke-width:1.0;"/><polygon fill="#181818" points="258.21,1654.6581,250.9846,1647.9654,253.478,1653.043,248.4004,1655.5365,258.21,1654.6581" style="stroke:#181818;stroke-width:1.0;"/></g><!--link Inventory to UC022--><g id="link_Inventory_UC022"><path d="M80.88,1469.4181 C100,1504.7481 126.15,1558.4381 139,1608.6581 C144.8,1631.3381 132.02,1695.6781 147,1713.6581 C161.85,1731.4881 176.7799,1741.1852 198.8199,1748.6852 " fill="none" id="Inventory-to-UC022" style="stroke:#181818;stroke-width:1.0;"/><polygon fill="#181818" points="204.5,1750.6181,197.2684,1743.932,199.7666,1749.0074,194.6912,1751.5055,204.5,1750.6181" style="stroke:#181818;stroke-width:1.0;"/></g><!--link Inventory to UC023--><g id="link_Inventory_UC023"><path d="M76.3,1469.2881 C95.74,1513.4481 125.48,1587.5081 139,1654.6581 C142.38,1671.4581 135.99,1795.5381 147,1808.6581 C165.65,1830.8981 187.6389,1841.4813 215.9789,1847.4513 " fill="none" id="Inventory-to-UC023" style="stroke:#181818;stroke-width:1.0;"/><polygon fill="#181818" points="221.85,1848.6881,213.8678,1842.9188,216.9574,1847.6575,212.2188,1850.747,221.85,1848.6881" style="stroke:#181818;stroke-width:1.0;"/></g><!--link Inventory to UC024--><g id="link_Inventory_UC024"><path d="M72.72,1469.4581 C91.87,1523.2981 124.59,1622.7281 139,1710.6581 C142.26,1730.5281 134.16,1876.1581 147,1891.6581 C165.22,1913.6681 186.5643,1924.3203 214.4143,1930.5403 " fill="none" id="Inventory-to-UC024" style="stroke:#181818;stroke-width:1.0;"/><polygon fill="#181818" points="220.27,1931.8481,212.3583,1925.9826,215.3902,1930.7583,210.6145,1933.7902,220.27,1931.8481" style="stroke:#181818;stroke-width:1.0;"/></g><!--link Production to UC001--><g id="link_Production_UC001"><path d="M60.77,2760.8681 C67.67,2674.4581 88.75,2473.9281 138,2430.6581 C174.38,2398.7081 225.1462,2397.1646 267.3462,2402.4346 " fill="none" id="Production-to-UC001" style="stroke:#181818;stroke-width:1.0;"/><polygon fill="#181818" points="273.3,2403.1781,264.865,2398.0937,268.3385,2402.5585,263.8737,2406.032,273.3,2403.1781" style="stroke:#181818;stroke-width:1.0;"/></g><!--link Production to UC002--><g id="link_Production_UC002"><path d="M61.08,2761.1581 C67.48,2707.8381 87.09,2613.8381 147,2564.6581 C185.34,2533.1881 232.4144,2513.9534 271.2744,2501.5434 " fill="none" id="Production-to-UC002" style="stroke:#181818;stroke-width:1.0;"/><polygon fill="#181818" points="276.99,2499.7181,267.1997,2498.6456,272.227,2501.2392,269.6334,2506.2665,276.99,2499.7181" style="stroke:#181818;stroke-width:1.0;"/></g><!--link Production to UC027--><g id="link_Production_UC027"><path d="M108.02,2795.6781 C141.29,2792.3681 180.1996,2788.4934 220.8196,2784.4434 " fill="none" id="Production-to-UC027" style="stroke:#181818;stroke-width:1.0;"/><polygon fill="#181818" points="226.79,2783.8481,217.4376,2780.7608,221.8147,2784.3442,218.2313,2788.7213,226.79,2783.8481" style="stroke:#181818;stroke-width:1.0;"/></g><!--link Production to UC028--><g id="link_Production_UC028"><path d="M108.02,2811.1881 C148.09,2819.6081 199.1484,2830.3533 245.1784,2840.0333 " fill="none" id="Production-to-UC028" style="stroke:#181818;stroke-width:1.0;"/><polygon fill="#181818" points="251.05,2841.2681,243.0658,2835.5016,246.157,2840.2391,241.4195,2843.3303,251.05,2841.2681" style="stroke:#181818;stroke-width:1.0;"/></g><!--link Production to UC029--><g id="link_Production_UC029"><path d="M85.06,2840.3081 C100.88,2860.6081 122.53,2884.0581 147,2898.6581 C171.46,2913.2581 194.6286,2921.7157 222.2086,2928.3957 " fill="none" id="Production-to-UC029" style="stroke:#181818;stroke-width:1.0;"/><polygon fill="#181818" points="228.04,2929.8081,220.2345,2923.8019,223.1805,2928.6311,218.3513,2931.5771,228.04,2929.8081" style="stroke:#181818;stroke-width:1.0;"/></g><!--link Production to UC030--><g id="link_Production_UC030"><path d="M65.8,2840.1681 C76.45,2883.2781 99.88,2951.0281 147,2987.6581 C176.24,3010.3981 209.9726,3019.3533 244.8326,3023.0033 " fill="none" id="Production-to-UC030" style="stroke:#181818;stroke-width:1.0;"/><polygon fill="#181818" points="250.8,3023.6281,242.2655,3018.7127,245.8272,3023.1074,241.4324,3026.6692,250.8,3023.6281" style="stroke:#181818;stroke-width:1.0;"/></g><!--link Production to UC031--><g id="link_Production_UC031"><path d="M60.23,2840.1681 C65.62,2896.9481 84.05,3001.1181 147,3058.6581 C165.98,3076.0081 184.7925,3085.3555 209.7325,3092.1755 " fill="none" id="Production-to-UC031" style="stroke:#181818;stroke-width:1.0;"/><polygon fill="#181818" points="215.52,3093.7581,207.8938,3087.5258,210.6971,3092.4393,205.7836,3095.2425,215.52,3093.7581" style="stroke:#181818;stroke-width:1.0;"/></g><!--link Production to UC032--><g id="link_Production_UC032"><path d="M62.98,2840.3281 C74.01,2921.9881 103.1,3104.8181 147,3147.6581 C167.89,3168.0481 190.7097,3178.0472 219.1397,3184.0572 " fill="none" id="Production-to-UC032" style="stroke:#181818;stroke-width:1.0;"/><polygon fill="#181818" points="225.01,3185.2981,217.0319,3179.5232,220.1181,3184.264,215.3773,3187.3502,225.01,3185.2981" style="stroke:#181818;stroke-width:1.0;"/></g><!--link Production to UC033--><g id="link_Production_UC033"><path d="M71.6,2760.9881 C85.34,2726.8881 109.88,2678.9981 147,2651.6581 C167.94,2636.2381 187.7622,2627.6645 213.0922,2621.0945 " fill="none" id="Production-to-UC033" style="stroke:#181818;stroke-width:1.0;"/><polygon fill="#181818" points="218.9,2619.5881,209.184,2617.9759,214.0602,2620.8435,211.1925,2625.7196,218.9,2619.5881" style="stroke:#181818;stroke-width:1.0;"/></g><!--link Production to UC034--><g id="link_Production_UC034"><path d="M100.17,2761.1081 C114.18,2749.7881 130.45,2738.4281 147,2730.6581 C176.69,2716.7281 205.5514,2708.8068 236.6914,2703.0068 " fill="none" id="Production-to-UC034" style="stroke:#181818;stroke-width:1.0;"/><polygon fill="#181818" points="242.59,2701.9081,233.0097,2699.6237,237.6745,2702.8237,234.4746,2707.4885,242.59,2701.9081" style="stroke:#181818;stroke-width:1.0;"/></g><!--link Cashier to UC001--><g id="link_Cashier_UC001"><path d="M60.86,3520.8681 C75.09,3323.6181 137.85,2459.8781 147,2449.6581 C174.58,2418.8581 214.3321,2410.3276 253.0621,2409.2976 " fill="none" id="Cashier-to-UC001" style="stroke:#181818;stroke-width:1.0;"/><polygon fill="#181818" points="259.06,2409.1381,249.9568,2405.3788,254.0618,2409.271,250.1695,2413.376,259.06,2409.1381" style="stroke:#181818;stroke-width:1.0;"/></g><!--link Cashier to UC002--><g id="link_Cashier_UC002"><path d="M60.42,3520.9281 C71.54,3340.3581 118.49,2604.1681 147,2564.6581 C174.32,2526.8181 217.8876,2508.3868 258.3376,2498.0268 " fill="none" id="Cashier-to-UC002" style="stroke:#181818;stroke-width:1.0;"/><polygon fill="#181818" points="264.15,2496.5381,254.439,2494.8962,259.3063,2497.7787,256.4239,2502.646,264.15,2496.5381" style="stroke:#181818;stroke-width:1.0;"/></g><!--link Cashier to UC037--><g id="link_Cashier_UC037"><path d="M76.99,3600.3881 C92.17,3627.8981 116.03,3663.1181 147,3683.6581 C171.59,3699.9681 195.8338,3708.7383 224.4238,3714.8783 " fill="none" id="Cashier-to-UC037" style="stroke:#181818;stroke-width:1.0;"/><polygon fill="#181818" points="230.29,3716.1381,222.3305,3710.3375,225.4015,3715.0883,220.6507,3718.1592,230.29,3716.1381" style="stroke:#181818;stroke-width:1.0;"/></g><!--link Cashier to UC038--><g id="link_Cashier_UC038"><path d="M63.75,3521.0781 C72.82,3473.4981 95.09,3394.7081 147,3351.6581 C171.03,3331.7381 196.9053,3322.2135 227.1653,3316.7535 " fill="none" id="Cashier-to-UC038" style="stroke:#181818;stroke-width:1.0;"/><polygon fill="#181818" points="233.07,3315.6881,223.5027,3313.3498,228.1495,3316.576,224.9233,3321.2227,233.07,3315.6881" style="stroke:#181818;stroke-width:1.0;"/></g><!--link Cashier to UC039--><g id="link_Cashier_UC039"><path d="M75.86,3521.1081 C90.83,3492.4781 114.91,3455.1781 147,3433.6581 C172.02,3416.8881 197.0007,3408.0958 226.1607,3402.1558 " fill="none" id="Cashier-to-UC039" style="stroke:#181818;stroke-width:1.0;"/><polygon fill="#181818" points="232.04,3400.9581,222.4227,3398.8351,227.1406,3401.9561,224.0195,3406.6741,232.04,3400.9581" style="stroke:#181818;stroke-width:1.0;"/></g><!--link Cashier to UC040--><g id="link_Cashier_UC040"><path d="M84.59,3545.8781 C101.94,3536.7181 125.31,3525.2981 147,3517.6581 C178.2,3506.6781 207.5657,3499.0471 238.6657,3492.3171 " fill="none" id="Cashier-to-UC040" style="stroke:#181818;stroke-width:1.0;"/><polygon fill="#181818" points="244.53,3491.0481,234.8876,3489.0421,239.6431,3492.1056,236.5796,3496.8612,244.53,3491.0481" style="stroke:#181818;stroke-width:1.0;"/></g><!--link Cashier to UC041--><g id="link_Cashier_UC041"><path d="M62.3,3600.3281 C69.96,3649.0481 90.84,3729.7481 147,3766.6581 C274.02,3850.1481 352.7,3833.9381 489,3766.6581 C602.87,3710.4681 672.3385,3570.6481 698.4985,3509.2381 " fill="none" id="Cashier-to-UC041" style="stroke:#181818;stroke-width:1.0;"/><polygon fill="#181818" points="700.85,3503.7181,693.6428,3510.4305,698.8904,3508.3181,701.0028,3513.5658,700.85,3503.7181" style="stroke:#181818;stroke-width:1.0;"/></g><!--link Cashier to UC042--><g id="link_Cashier_UC042"><path d="M84.98,3560.6581 C116.04,3560.6581 163.05,3560.6581 211.75,3560.6581 " fill="none" id="Cashier-to-UC042" style="stroke:#181818;stroke-width:1.0;"/><polygon fill="#181818" points="217.75,3560.6581,208.75,3556.6581,212.75,3560.6581,208.75,3564.6581,217.75,3560.6581" style="stroke:#181818;stroke-width:1.0;"/></g><!--link Cashier to UC043--><g id="link_Cashier_UC043"><path d="M57.65,3600.2281 C59.51,3661.5981 73.2,3778.2181 147,3831.6581 C427.94,4035.1081 884.3155,3810.1148 1015.1755,3737.9748 " fill="none" id="Cashier-to-UC043" style="stroke:#181818;stroke-width:1.0;"/><polygon fill="#181818" points="1020.43,3735.0781,1010.6172,3735.9201,1016.0513,3737.492,1014.4794,3742.9261,1020.43,3735.0781" style="stroke:#181818;stroke-width:1.0;"/></g><!--link Cashier to UC044--><g id="link_Cashier_UC044"><path d="M62.14,3600.4781 C71.82,3685.3981 98.86,3880.0181 147,3922.6581 C207.99,3976.6981 247.52,3944.6581 329,3944.6581 C329,3944.6581 329,3944.6581 1058,3944.6581 C1196.34,3944.6581 1313.7923,3807.2123 1357.2723,3749.4323 " fill="none" id="Cashier-to-UC044" style="stroke:#181818;stroke-width:1.0;"/><polygon fill="#181818" points="1360.88,3744.6381,1352.2723,3749.4243,1357.8736,3748.6333,1358.6646,3754.2346,1360.88,3744.6381" style="stroke:#181818;stroke-width:1.0;"/></g><!--link Cashier to UC045--><g id="link_Cashier_UC045"><path d="M84.62,3575.1181 C101.98,3584.0581 125.35,3595.2181 147,3602.6581 C180.08,3614.0381 211.7642,3621.9038 244.1342,3628.5938 " fill="none" id="Cashier-to-UC045" style="stroke:#181818;stroke-width:1.0;"/><polygon fill="#181818" points="250.01,3629.8081,242.0058,3624.0693,245.1135,3628.7961,240.3867,3631.9038,250.01,3629.8081" style="stroke:#181818;stroke-width:1.0;"/></g><!--link UC017 to UC018--><g id="link_UC017_UC018"><path d="M403.56,1454.2881 C473.08,1438.5881 571.2972,1416.4188 638.9672,1401.1488 " fill="none" id="UC017-to-UC018" style="stroke:#181818;stroke-width:1.0;stroke-dasharray:7.0,7.0;"/><polygon fill="#181818" points="644.82,1399.8281,635.1603,1397.9073,639.9426,1400.9287,636.9212,1405.7111,644.82,1399.8281" style="stroke:#181818;stroke-width:1.0;"/><text fill="#000000" font-family="sans-serif" font-size="13" lengthAdjust="spacing" textLength="53.4917" x="499" y="1418.1532">&#171;extend&#187;</text></g><!--link UC018 to UC019--><g id="link_UC018_UC019"><path d="M808.81,1384.6581 C857.34,1384.6581 910.17,1384.6581 958.25,1384.6581 " fill="none" id="UC018-to-UC019" style="stroke:#181818;stroke-width:1.0;stroke-dasharray:7.0,7.0;"/><polygon fill="#181818" points="964.25,1384.6581,955.25,1380.6581,959.25,1384.6581,955.25,1388.6581,964.25,1384.6581" style="stroke:#181818;stroke-width:1.0;"/><text fill="#000000" font-family="sans-serif" font-size="13" lengthAdjust="spacing" textLength="53.4917" x="874" y="1381.1532">&#171;extend&#187;</text></g><!--link UC038 to UC041--><g id="link_UC038_UC041"><path d="M404.61,3326.1181 C431.64,3332.5081 462.17,3341.0181 489,3351.6581 C556.12,3378.2881 623.11,3418.0537 666.61,3445.7737 " fill="none" id="UC038-to-UC041" style="stroke:#181818;stroke-width:1.0;stroke-dasharray:7.0,7.0;"/><polygon fill="#181818" points="671.67,3448.9981,666.2297,3440.7882,667.4534,3446.3111,661.9305,3447.5348,671.67,3448.9981" style="stroke:#181818;stroke-width:1.0;"/><text fill="#000000" font-family="sans-serif" font-size="13" lengthAdjust="spacing" textLength="55.6563" x="498" y="3354.1532">&#171;include&#187;</text></g><!--link UC039 to UC041--><g id="link_UC039_UC041"><path d="M405.82,3408.9581 C467.58,3422.4181 549.5975,3440.2808 615.3675,3454.6108 " fill="none" id="UC039-to-UC041" style="stroke:#181818;stroke-width:1.0;stroke-dasharray:7.0,7.0;"/><polygon fill="#181818" points="621.23,3455.8881,613.2879,3450.0638,616.3446,3454.8237,611.5848,3457.8805,621.23,3455.8881" style="stroke:#181818;stroke-width:1.0;"/><text fill="#000000" font-family="sans-serif" font-size="13" lengthAdjust="spacing" textLength="55.6563" x="498" y="3426.1532">&#171;include&#187;</text></g><!--link UC040 to UC041--><g id="link_UC040_UC041"><path d="M439.67,3475.6581 C484.65,3475.6581 531.14,3475.6581 577.97,3475.6581 " fill="none" id="UC040-to-UC041" style="stroke:#181818;stroke-width:1.0;stroke-dasharray:7.0,7.0;"/><polygon fill="#181818" points="583.97,3475.6581,574.97,3471.6581,578.97,3475.6581,574.97,3479.6581,583.97,3475.6581" style="stroke:#181818;stroke-width:1.0;"/><text fill="#000000" font-family="sans-serif" font-size="13" lengthAdjust="spacing" textLength="55.6563" x="498" y="3472.1532">&#171;include&#187;</text></g><!--link UC041 to UC043--><g id="link_UC041_UC043"><path d="M752.24,3502.3881 C820.91,3550.3781 958.8518,3646.7714 1021.0618,3690.2414 " fill="none" id="UC041-to-UC043" style="stroke:#181818;stroke-width:1.0;stroke-dasharray:7.0,7.0;"/><polygon fill="#181818" points="1025.98,3693.6781,1020.8938,3685.2443,1021.8815,3690.8142,1016.3115,3691.8019,1025.98,3693.6781" style="stroke:#181818;stroke-width:1.0;"/><text fill="#000000" font-family="sans-serif" font-size="13" lengthAdjust="spacing" textLength="55.6563" x="873" y="3585.1532">&#171;include&#187;</text></g><!--link UC043 to UC044--><g id="link_UC043_UC044"><path d="M1154.88,3716.4781 C1191.3,3717.1581 1226.9211,3717.8257 1264.2711,3718.5257 " fill="none" id="UC043-to-UC044" style="stroke:#181818;stroke-width:1.0;stroke-dasharray:7.0,7.0;"/><polygon fill="#181818" points="1270.27,3718.6381,1261.3465,3714.4702,1265.2709,3718.5444,1261.1966,3722.4688,1270.27,3718.6381" style="stroke:#181818;stroke-width:1.0;"/><text fill="#000000" font-family="sans-serif" font-size="13" lengthAdjust="spacing" textLength="53.4917" x="1186" y="3714.1532">&#171;extend&#187;</text></g><!--SRC=[bLTDRziu4BthLn2-z9IkzP74Aje0ILsWHJPO8qvllKnjLcOaKGO_cWqM_UyxacZ95gUIwuDjlPdHp1i-3IcT2xa71IM3ZQdKshmMdC4BrrN90zqPzx398UEjMV6D0PaLF0YCC0XyrPnz1FnQ2iXgzmlsHMuKBxaqBFmcrq8RNh87aF1SW-ofoYjsRpbRmKibu-Kt-L1jRO5HHh1_zbo15fM48WWA_iCmKp4bifrXMr7dHbCGl64VFh3R76l6Fq5JF9lTGIP0ucr-OkPAYHa3tLsz3hnM2dFckdLgBjfREwzxh44rDgIs4rovd8uC9ktwm6OET7HE-S_OVm73J_FrXbrSi5jhq29op82N3UuQp6P7jaDW_R6QR-eEp_wkCY5PpbqTJO5VFyxd8UbQMMmQA37qZXhlNuEwLbnclAWAmExSW-4Pjj0ha78YAtr0HyWrr-mp552UkBioOZ8Aok-mwmku0sMxY8JEO-k89HZmSrpI4JlOM-rxNqqsPWt6uizOMrgNCvjoS7O5N8-qnALUWWRL1Ioc0vwiil8eHpfDqkxt1Mf-dAPpEfTevzwM4Sx7AXywXrCBxqLCQ_mETirtRaTvzcvdCZqESCMCAPrmdvGv4NCvpPSN89zXd6phSoxJWxUhuOeAAhzRCEoHomrk05u8AVZI5Y3geLmd6qRGYd_b1TU0WzElAgK22h6hgn8ly8g_Wv1eFjdCTliOxMNhScOh3ywkW714C2xrjhu7JjMgt5TQw6w8HT6Os0JoPK_DHJyIedX4S5s2OOt9cKtIuemsQV57ZJgYUpqMTIkD4bGKgQ9Ie2oGWKQbIcQbmJPxaUceOazyu_cKLhiEkQHTPFZxHwcBMGlOrzBjyqLdv_DZu-d7nED7I-19WTJGifBF5XVEtp09dma1BE670TNVl2lYUgHLRYdlAmETSEF5TC0ZpspHxoPn-lkGdedNqsHaZ-jNepxEUQmIMW2WRPutXm3S1LRrrCgoNZK9kVxblXsaAomObr4T-TFF_OPZjzZQg5h-Vb0oBHIVpc5x-kNEqOzOkwvFTwT7zlfWtPtOKJGtxdJhOn61nGIM4DWbWLqHs3M1BGWizJ4ytlWOmICaU8G4Zv3W4H8yGe97IF082HuXmICYU4G4ZuZW4H4ySDUW1D3D9Lp__cNiI004614WxWO4kA30b01nO1CWbJscikCC9S01u-RDikRfNYoFI0wHQ8ZWh1iY2mz9XmYEeI7YvKgyN3WSXaZY8PUE6xxm5dRB__hqBxw_RcjsZUxOsxTERUmTU_-UDzQRcw253iRKCyQTCGaResZlxwpfc3MPZrh3pXeJrhYp9gT5_Gy0]--></g></svg>