<svg xmlns="http://www.w3.org/2000/svg" xmlns:xlink="http://www.w3.org/1999/xlink" contentStyleType="text/css" height="3830px" preserveAspectRatio="none" style="width:1582px;height:3830px;background:#FFFFFF;" version="1.1" viewBox="0 0 1582 3830" width="1582px" zoomAndPan="magnify"><title>Use Case Diagram - Increment 2</title><defs/><g><text fill="#000000" font-family="sans-serif" font-size="14" font-weight="bold" lengthAdjust="spacing" textLength="213.9785" x="677.0107" y="24.5332">Use Case Diagram - Increment 2</text><text fill="#000000" font-family="sans-serif" font-size="14" font-weight="bold" lengthAdjust="spacing" textLength="260.6201" x="653.6899" y="42.1426">Sistem Manajemen Toko Kue Pawon3D</text><text fill="#000000" font-family="sans-serif" font-size="14" font-weight="bold" lengthAdjust="spacing" textLength="206.124" x="680.938" y="59.752">Modul Pendukung Operasional</text><!--cluster Sistem Pawon3D - Increment 2--><g id="cluster_Sistem Pawon3D - Increment 2"><rect fill="none" height="2592" rx="2.5" ry="2.5" style="stroke:#181818;stroke-width:1.0;" width="1421" x="155" y="506.5881"/><text fill="#000000" font-family="sans-serif" font-size="14" font-weight="bold" lengthAdjust="spacing" textLength="203.8408" x="763.5796" y="523.1213">Sistem Pawon3D - Increment 2</text></g><!--cluster Autentikasi--><g id="cluster_Autentikasi"><rect fill="none" height="160" rx="2.5" ry="2.5" style="stroke:#181818;stroke-width:1.0;" width="194" x="246.5" y="2428.5881"/><text fill="#000000" font-family="sans-serif" font-size="14" font-weight="bold" lengthAdjust="spacing" textLength="75.4619" x="305.769" y="2445.1213">Autentikasi</text></g><!--cluster Pengelolaan Pengguna--><g id="cluster_Pengelolaan Pengguna"><rect fill="none" height="354" rx="2.5" ry="2.5" style="stroke:#181818;stroke-width:1.0;" width="276" x="205.5" y="1278.5881"/><text fill="#000000" font-family="sans-serif" font-size="14" font-weight="bold" lengthAdjust="spacing" textLength="154.0273" x="266.4863" y="1295.1213">Pengelolaan Pengguna</text></g><!--cluster Pengelolaan Peran--><g id="cluster_Pengelolaan Peran"><rect fill="none" height="260" rx="2.5" ry="2.5" style="stroke:#181818;stroke-width:1.0;" width="250" x="218.5" y="1656.5881"/><text fill="#000000" font-family="sans-serif" font-size="14" font-weight="bold" lengthAdjust="spacing" textLength="125.2686" x="280.8657" y="1673.1213">Pengelolaan Peran</text></g><!--cluster Pengaturan Sistem--><g id="cluster_Pengaturan Sistem"><rect fill="none" height="464" rx="2.5" ry="2.5" style="stroke:#181818;stroke-width:1.0;" width="329" x="179" y="1940.5881"/><text fill="#000000" font-family="sans-serif" font-size="14" font-weight="bold" lengthAdjust="spacing" textLength="126.8135" x="280.0933" y="1957.1213">Pengaturan Sistem</text></g><!--cluster Pengelolaan Pelanggan--><g id="cluster_Pengelolaan Pelanggan"><rect fill="none" height="256" rx="2.5" ry="2.5" style="stroke:#181818;stroke-width:1.0;" width="270" x="208.5" y="550.5881"/><text fill="#000000" font-family="sans-serif" font-size="14" font-weight="bold" lengthAdjust="spacing" textLength="157.1514" x="264.9243" y="567.1213">Pengelolaan Pelanggan</text></g><!--cluster Fitur Umum--><g id="cluster_Fitur Umum"><rect fill="none" height="424" rx="2.5" ry="2.5" style="stroke:#181818;stroke-width:1.0;" width="639.5" x="213.5" y="830.5881"/><text fill="#000000" font-family="sans-serif" font-size="14" font-weight="bold" lengthAdjust="spacing" textLength="78.5518" x="493.9741" y="847.1213">Fitur Umum</text></g><!--cluster Aktivasi Akun--><g id="cluster_Aktivasi Akun"><rect fill="none" height="105" rx="2.5" ry="2.5" style="stroke:#181818;stroke-width:1.0;" width="571.5" x="611.5" y="2609.5881"/><text fill="#000000" font-family="sans-serif" font-size="14" font-weight="bold" lengthAdjust="spacing" textLength="92.5859" x="850.957" y="2626.1213">Aktivasi Akun</text></g><!--cluster Stock Opname--><g id="cluster_Stock Opname"><rect fill="none" height="336" rx="2.5" ry="2.5" style="stroke:#181818;stroke-width:1.0;" width="1331" x="221" y="2738.5881"/><text fill="#000000" font-family="sans-serif" font-size="14" font-weight="bold" lengthAdjust="spacing" textLength="98.0273" x="837.4863" y="2755.1213">Stock Opname</text></g><!--cluster Poin Pelanggan--><g id="cluster_Poin Pelanggan"><rect fill="none" height="102" rx="2.5" ry="2.5" style="stroke:#181818;stroke-width:1.0;" width="260" x="213.5" y="2612.5881"/><text fill="#000000" font-family="sans-serif" font-size="14" font-weight="bold" lengthAdjust="spacing" textLength="105.0137" x="290.9932" y="2629.1213">Poin Pelanggan</text></g><g id="elem_UC046"><ellipse cx="343.3352" cy="2482.3552" fill="#F1F1F1" rx="74.3352" ry="17.267" style="stroke:#181818;stroke-width:0.5;"/><text fill="#000000" font-family="sans-serif" font-size="14" lengthAdjust="spacing" textLength="99.6064" x="290.532" y="2486.8718">Login ke Sistem</text></g><g id="elem_UC047"><ellipse cx="343.4867" cy="2553.6855" fill="#F1F1F1" rx="80.9867" ry="18.5973" style="stroke:#181818;stroke-width:0.5;"/><text fill="#000000" font-family="sans-serif" font-size="14" lengthAdjust="spacing" textLength="116.7305" x="284.5619" y="2557.5776">Logout dari Sistem</text></g><g id="elem_UC048"><ellipse cx="343.418" cy="1509.4717" fill="#F1F1F1" rx="109.918" ry="24.3836" style="stroke:#181818;stroke-width:0.5;"/><text fill="#000000" font-family="sans-serif" font-size="14" lengthAdjust="spacing" textLength="182.8682" x="251.9839" y="1513.2002">Mengakses Halaman Pekerja</text></g><g id="elem_UC049"><ellipse cx="343.6449" cy="1592.4171" fill="#F1F1F1" rx="104.6449" ry="23.329" style="stroke:#181818;stroke-width:0.5;"/><text fill="#000000" font-family="sans-serif" font-size="14" lengthAdjust="spacing" textLength="171.2334" x="258.0282" y="1596.1456">Menambah Pengguna Baru</text></g><g id="elem_UC050"><ellipse cx="343.4016" cy="1337.5684" fill="#F1F1F1" rx="102.9016" ry="22.9803" style="stroke:#181818;stroke-width:0.5;"/><text fill="#000000" font-family="sans-serif" font-size="14" lengthAdjust="spacing" textLength="167.3574" x="259.7229" y="1341.297">Mengubah Data Pengguna</text></g><g id="elem_UC051"><ellipse cx="343.2571" cy="1422.3395" fill="#F1F1F1" rx="121.7571" ry="26.7514" style="stroke:#181818;stroke-width:0.5;"/><text fill="#000000" font-family="sans-serif" font-size="14" lengthAdjust="spacing" textLength="208.5918" x="238.9612" y="1426.0681">Mengubah Status Aktif Pengguna</text></g><g id="elem_UC052"><ellipse cx="343.3324" cy="1716.5546" fill="#F1F1F1" rx="105.3324" ry="23.4665" style="stroke:#181818;stroke-width:0.5;"/><text fill="#000000" font-family="sans-serif" font-size="14" lengthAdjust="spacing" textLength="172.7578" x="256.9535" y="1720.2831">Mengakses Halaman Peran</text></g><g id="elem_UC053"><ellipse cx="343.3932" cy="1796.5668" fill="#F1F1F1" rx="92.8932" ry="20.9786" style="stroke:#181818;stroke-width:0.5;"/><text fill="#000000" font-family="sans-serif" font-size="14" lengthAdjust="spacing" textLength="144.751" x="271.0177" y="1800.2953">Menambah Peran Baru</text></g><g id="elem_UC054"><ellipse cx="343.3601" cy="1876.7601" fill="#F1F1F1" rx="108.8601" ry="24.172" style="stroke:#181818;stroke-width:0.5;"/><text fill="#000000" font-family="sans-serif" font-size="14" lengthAdjust="spacing" textLength="180.5439" x="253.0881" y="1880.4887">Mengubah Permission Peran</text></g><g id="elem_UC055"><ellipse cx="343.3858" cy="2003.7653" fill="#F1F1F1" rx="121.3858" ry="26.6772" style="stroke:#181818;stroke-width:0.5;"/><text fill="#000000" font-family="sans-serif" font-size="14" lengthAdjust="spacing" textLength="207.792" x="239.4898" y="2007.4938">Mengakses Halaman Pengaturan</text></g><g id="elem_UC056"><ellipse cx="343.5734" cy="2086.7028" fill="#F1F1F1" rx="93.5734" ry="21.1147" style="stroke:#181818;stroke-width:0.5;"/><text fill="#000000" font-family="sans-serif" font-size="14" lengthAdjust="spacing" textLength="146.3096" x="270.4186" y="2090.4313">Mengubah Profil Usaha</text></g><g id="elem_UC057"><ellipse cx="343.5019" cy="2174.6885" fill="#F1F1F1" rx="148.5019" ry="32.1004" style="stroke:#181818;stroke-width:0.5;"/><text fill="#000000" font-family="sans-serif" font-size="14" lengthAdjust="spacing" textLength="265.3643" x="210.8197" y="2178.417">Mengakses Halaman Metode Pembayaran</text></g><g id="elem_UC058"><ellipse cx="343.5795" cy="2268.404" fill="#F1F1F1" rx="119.5795" ry="26.3159" style="stroke:#181818;stroke-width:0.5;"/><text fill="#000000" font-family="sans-serif" font-size="14" lengthAdjust="spacing" textLength="203.8955" x="241.6317" y="2272.1325">Menambah Metode Pembayaran</text></g><g id="elem_UC059"><ellipse cx="343.3969" cy="2359.6675" fill="#F1F1F1" rx="133.3969" ry="29.0794" style="stroke:#181818;stroke-width:0.5;"/><text fill="#000000" font-family="sans-serif" font-size="14" lengthAdjust="spacing" textLength="233.4814" x="226.6562" y="2363.396">Mengubah Data Metode Pembayaran</text></g><g id="elem_UC060"><ellipse cx="343.3646" cy="612.761" fill="#F1F1F1" rx="118.8646" ry="26.1729" style="stroke:#181818;stroke-width:0.5;"/><text fill="#000000" font-family="sans-serif" font-size="14" lengthAdjust="spacing" textLength="202.3506" x="242.1893" y="616.4896">Mengakses Halaman Pelanggan</text></g><g id="elem_UC061"><ellipse cx="343.599" cy="692.5079" fill="#F1F1F1" rx="82.599" ry="18.9198" style="stroke:#181818;stroke-width:0.5;"/><text fill="#000000" font-family="sans-serif" font-size="14" lengthAdjust="spacing" textLength="120.6338" x="283.2821" y="696.2364">Mencari Pelanggan</text></g><g id="elem_UC062"><ellipse cx="343.684" cy="768.5249" fill="#F1F1F1" rx="97.684" ry="21.9368" style="stroke:#181818;stroke-width:0.5;"/><text fill="#000000" font-family="sans-serif" font-size="14" lengthAdjust="spacing" textLength="155.6543" x="265.8568" y="772.2534">Melihat Detail Pelanggan</text></g><g id="elem_UC063"><ellipse cx="343.374" cy="889.5629" fill="#F1F1F1" rx="102.874" ry="22.9748" style="stroke:#181818;stroke-width:0.5;"/><text fill="#000000" font-family="sans-serif" font-size="14" lengthAdjust="spacing" textLength="167.2959" x="259.7261" y="893.2914">Mengakses Halaman Profil</text></g><g id="elem_UC064"><ellipse cx="343.3529" cy="967.7587" fill="#F1F1F1" rx="88.8529" ry="20.1706" style="stroke:#181818;stroke-width:0.5;"/><text fill="#000000" font-family="sans-serif" font-size="14" lengthAdjust="spacing" textLength="135.4131" x="275.6463" y="971.4872">Mengubah Data Profil</text></g><g id="elem_UC065"><ellipse cx="343.6832" cy="1047.8248" fill="#F1F1F1" rx="114.1832" ry="25.2366" style="stroke:#181818;stroke-width:0.5;"/><text fill="#000000" font-family="sans-serif" font-size="14" lengthAdjust="spacing" textLength="192.1924" x="247.587" y="1051.5533">Mengakses Halaman Notifikasi</text></g><g id="elem_UC066"><ellipse cx="343.4277" cy="1130.7737" fill="#F1F1F1" rx="103.9277" ry="23.1855" style="stroke:#181818;stroke-width:0.5;"/><text fill="#000000" font-family="sans-serif" font-size="14" lengthAdjust="spacing" textLength="169.6406" x="258.6073" y="1134.5022">Menandai Notifikasi Dibaca</text></g><g id="elem_UC067"><ellipse cx="343.7027" cy="1213.8287" fill="#F1F1F1" rx="111.7027" ry="24.7405" style="stroke:#181818;stroke-width:0.5;"/><text fill="#000000" font-family="sans-serif" font-size="14" lengthAdjust="spacing" textLength="186.7783" x="250.3135" y="1217.5572">Mengakses Halaman Laporan</text></g><g id="elem_UC068"><ellipse cx="723.9084" cy="1219.3698" fill="#F1F1F1" rx="79.4084" ry="18.2817" style="stroke:#181818;stroke-width:0.5;"/><text fill="#000000" font-family="sans-serif" font-size="14" lengthAdjust="spacing" textLength="112.8271" x="666.242" y="1223.4536">Memfilter Laporan</text></g><g id="elem_UC069"><ellipse cx="723.9211" cy="1055.4724" fill="#F1F1F1" rx="109.9211" ry="24.3842" style="stroke:#181818;stroke-width:0.5;"/><text fill="#000000" font-family="sans-serif" font-size="14" lengthAdjust="spacing" textLength="182.875" x="632.4836" y="1059.2009">Mengekspor Laporan ke PDF</text></g><g id="elem_UC070"><ellipse cx="723.7693" cy="1140.542" fill="#F1F1F1" rx="112.7693" ry="24.9539" style="stroke:#181818;stroke-width:0.5;"/><text fill="#000000" font-family="sans-serif" font-size="14" lengthAdjust="spacing" textLength="189.1094" x="629.2147" y="1144.2705">Mengekspor Laporan ke Excel</text></g><g id="elem_UC071"><ellipse cx="724.1386" cy="2667.8158" fill="#F1F1F1" rx="96.6386" ry="21.7277" style="stroke:#181818;stroke-width:0.5;"/><text fill="#000000" font-family="sans-serif" font-size="14" lengthAdjust="spacing" textLength="153.2891" x="647.494" y="2671.5444">Mengakses Link Aktivasi</text></g><g id="elem_UC072"><ellipse cx="1068.7083" cy="2672.7298" fill="#F1F1F1" rx="98.7083" ry="22.1417" style="stroke:#181818;stroke-width:0.5;"/><text fill="#000000" font-family="sans-serif" font-size="14" lengthAdjust="spacing" textLength="157.9648" x="989.7259" y="2676.4583">Mengatur Password Baru</text></g><g id="elem_UC073"><ellipse cx="343.7385" cy="2798.8358" fill="#F1F1F1" rx="106.7385" ry="23.7477" style="stroke:#181818;stroke-width:0.5;"/><text fill="#000000" font-family="sans-serif" font-size="14" lengthAdjust="spacing" textLength="175.8682" x="255.8044" y="2802.5643">Mengakses Halaman Hitung</text></g><g id="elem_UC074"><ellipse cx="343.2931" cy="2879.6468" fill="#F1F1F1" rx="100.7931" ry="22.5586" style="stroke:#181818;stroke-width:0.5;"/><text fill="#000000" font-family="sans-serif" font-size="14" lengthAdjust="spacing" textLength="162.6475" x="261.9694" y="2883.3753">Membuat Rencana Hitung</text></g><g id="elem_UC075"><ellipse cx="723.8951" cy="3023.7671" fill="#F1F1F1" rx="106.3951" ry="23.679" style="stroke:#181818;stroke-width:0.5;"/><text fill="#000000" font-family="sans-serif" font-size="14" lengthAdjust="spacing" textLength="175.1094" x="636.3404" y="3027.4957">Memulai Penghitungan Stok</text></g><g id="elem_UC076"><ellipse cx="1068.4063" cy="3023.4694" fill="#F1F1F1" rx="112.4063" ry="24.8813" style="stroke:#181818;stroke-width:0.5;"/><text fill="#000000" font-family="sans-serif" font-size="14" lengthAdjust="spacing" textLength="188.3164" x="974.2481" y="3027.1979">Memasukkan Kuantitas Aktual</text></g><g id="elem_UC077"><ellipse cx="1415.9436" cy="3027.4768" fill="#F1F1F1" rx="119.9436" ry="26.3887" style="stroke:#181818;stroke-width:0.5;"/><text fill="#000000" font-family="sans-serif" font-size="14" lengthAdjust="spacing" textLength="204.6816" x="1313.6027" y="3031.2054">Menyelesaikan Perhitungan Stok</text></g><g id="elem_UC078"><ellipse cx="343.7056" cy="2958.4292" fill="#F1F1F1" rx="92.2056" ry="20.8411" style="stroke:#181818;stroke-width:0.5;"/><text fill="#000000" font-family="sans-serif" font-size="14" lengthAdjust="spacing" textLength="143.1719" x="272.1197" y="2962.1578">Melihat Riwayat Hitung</text></g><g id="elem_UC079"><ellipse cx="343.5908" cy="3036.4063" fill="#F1F1F1" rx="94.5908" ry="21.3182" style="stroke:#181818;stroke-width:0.5;"/><text fill="#000000" font-family="sans-serif" font-size="14" lengthAdjust="spacing" textLength="148.6338" x="269.2739" y="3040.1348">Melihat Alur Persediaan</text></g><g id="elem_UC088"><ellipse cx="343.36" cy="2673.7601" fill="#F1F1F1" rx="113.86" ry="25.172" style="stroke:#181818;stroke-width:0.5;"/><text fill="#000000" font-family="sans-serif" font-size="14" lengthAdjust="spacing" textLength="191.4883" x="247.6158" y="2677.4886">Menggunakan Poin Pelanggan</text></g><!--entity Admin--><g id="elem_Admin"><ellipse cx="57" cy="1609.5881" fill="#F1F1F1" rx="16" ry="16" style="stroke:#181818;stroke-width:0.5;"/><path d="M57,1629.5881 C61,1629.5881 64,1629.5881 68,1625.5881 C76,1625.5881 84,1633.5881 84,1641.5881 L84,1645.5881 C84,1649.5881 80,1653.5881 76,1653.5881 L38,1653.5881 C34,1653.5881 30,1649.5881 30,1645.5881 L30,1641.5881 C30,1633.5881 38,1625.5881 46,1625.5881 C50,1629.5881 53,1629.5881 57,1629.5881 " fill="#F1F1F1" style="stroke:#181818;stroke-width:0.5;"/><text fill="#000000" font-family="sans-serif" font-size="14" lengthAdjust="spacing" textLength="39.6826" x="37.1587" y="1668.6213">Admin</text></g><!--entity NewUser--><g id="elem_NewUser"><ellipse cx="343.6514" cy="3536.5881" fill="#F1F1F1" rx="16" ry="16" style="stroke:#181818;stroke-width:0.5;"/><path d="M343.6514,3556.5881 C347.6514,3556.5881 350.6514,3556.5881 354.6514,3552.5881 C362.6514,3552.5881 370.6514,3560.5881 370.6514,3568.5881 L370.6514,3572.5881 C370.6514,3576.5881 366.6514,3580.5881 362.6514,3580.5881 L324.6514,3580.5881 C320.6514,3580.5881 316.6514,3576.5881 316.6514,3572.5881 L316.6514,3568.5881 C316.6514,3560.5881 324.6514,3552.5881 332.6514,3552.5881 C336.6514,3556.5881 339.6514,3556.5881 343.6514,3556.5881 " fill="#F1F1F1" style="stroke:#181818;stroke-width:0.5;"/><text fill="#000000" font-family="sans-serif" font-size="14" lengthAdjust="spacing" textLength="97.3027" x="295" y="3595.6213">Pengguna Baru</text></g><!--entity Inventory--><g id="elem_Inventory"><ellipse cx="57.0894" cy="2903.5881" fill="#F1F1F1" rx="16" ry="16" style="stroke:#181818;stroke-width:0.5;"/><path d="M57.0894,2923.5881 C61.0894,2923.5881 64.0894,2923.5881 68.0894,2919.5881 C76.0894,2919.5881 84.0894,2927.5881 84.0894,2935.5881 L84.0894,2939.5881 C84.0894,2943.5881 80.0894,2947.5881 76.0894,2947.5881 L38.0894,2947.5881 C34.0894,2947.5881 30.0894,2943.5881 30.0894,2939.5881 L30.0894,2935.5881 C30.0894,2927.5881 38.0894,2919.5881 46.0894,2919.5881 C50.0894,2923.5881 53.0894,2923.5881 57.0894,2923.5881 " fill="#F1F1F1" style="stroke:#181818;stroke-width:0.5;"/><text fill="#000000" font-family="sans-serif" font-size="14" lengthAdjust="spacing" textLength="101.1787" x="6.5" y="2962.6213">Bagian Inventori</text></g><!--entity Cashier--><g id="elem_Cashier"><ellipse cx="57" cy="2418.5881" fill="#F1F1F1" rx="16" ry="16" style="stroke:#181818;stroke-width:0.5;"/><path d="M57,2438.5881 C61,2438.5881 64,2438.5881 68,2434.5881 C76,2434.5881 84,2442.5881 84,2450.5881 L84,2454.5881 C84,2458.5881 80,2462.5881 76,2462.5881 L38,2462.5881 C34,2462.5881 30,2458.5881 30,2454.5881 L30,2450.5881 C30,2442.5881 38,2434.5881 46,2434.5881 C50,2438.5881 53,2438.5881 57,2438.5881 " fill="#F1F1F1" style="stroke:#181818;stroke-width:0.5;"/><text fill="#000000" font-family="sans-serif" font-size="14" lengthAdjust="spacing" textLength="31.8965" x="41.0518" y="2477.6213">Kasir</text></g><!--entity Production--><g id="elem_Production"><ellipse cx="56.9756" cy="830.5881" fill="#F1F1F1" rx="16" ry="16" style="stroke:#181818;stroke-width:0.5;"/><path d="M56.9756,850.5881 C60.9756,850.5881 63.9756,850.5881 67.9756,846.5881 C75.9756,846.5881 83.9756,854.5881 83.9756,862.5881 L83.9756,866.5881 C83.9756,870.5881 79.9756,874.5881 75.9756,874.5881 L37.9756,874.5881 C33.9756,874.5881 29.9756,870.5881 29.9756,866.5881 L29.9756,862.5881 C29.9756,854.5881 37.9756,846.5881 45.9756,846.5881 C49.9756,850.5881 52.9756,850.5881 56.9756,850.5881 " fill="#F1F1F1" style="stroke:#181818;stroke-width:0.5;"/><text fill="#000000" font-family="sans-serif" font-size="14" lengthAdjust="spacing" textLength="101.9512" x="6" y="889.6213">Bagian Produksi</text></g><!--link Admin to UC046--><g id="link_Admin_UC046"><path d="M57.38,1672.2881 C55.95,1813.3681 57.96,2288.1781 147,2404.5881 C178.19,2445.3681 228.1595,2463.6384 272.1995,2472.9384 " fill="none" id="Admin-to-UC046" style="stroke:#181818;stroke-width:1.0;"/><polygon fill="#181818" points="278.07,2474.1781,270.0907,2468.4049,273.1779,2473.145,268.4377,2476.2323,278.07,2474.1781" style="stroke:#181818;stroke-width:1.0;"/></g><!--link Admin to UC047--><g id="link_Admin_UC047"><path d="M59.23,1672.2081 C64.67,1836.0081 88.96,2454.5881 147,2517.5881 C176.93,2550.0681 219.8114,2558.9406 261.2014,2559.8206 " fill="none" id="Admin-to-UC047" style="stroke:#181818;stroke-width:1.0;"/><polygon fill="#181818" points="267.2,2559.9481,258.2871,2555.7577,262.2011,2559.8418,258.117,2563.7559,267.2,2559.9481" style="stroke:#181818;stroke-width:1.0;"/></g><!--link Admin to UC048--><g id="link_Admin_UC048"><path d="M84.81,1649.7881 C102.28,1658.6181 124.46,1665.0081 139,1651.5881 C155.38,1636.4581 132.31,1568.3481 147,1551.5881 C168.68,1526.8481 195.1764,1515.6828 227.4064,1510.1528 " fill="none" id="Admin-to-UC048" style="stroke:#181818;stroke-width:1.0;"/><polygon fill="#181818" points="233.32,1509.1381,223.7732,1506.7177,228.392,1509.9837,225.1261,1514.6025,233.32,1509.1381" style="stroke:#181818;stroke-width:1.0;"/></g><!--link Admin to UC049--><g id="link_Admin_UC049"><path d="M84.57,1671.8381 C100.01,1689.5881 120.09,1704.2681 139,1692.5881 C145.76,1688.4081 141.22,1682.0381 147,1676.5881 C181.79,1643.7481 225.6904,1624.4511 266.2304,1611.6011 " fill="none" id="Admin-to-UC049" style="stroke:#181818;stroke-width:1.0;"/><polygon fill="#181818" points="271.95,1609.7881,262.1621,1608.6945,267.1837,1611.2989,264.5793,1616.3206,271.95,1609.7881" style="stroke:#181818;stroke-width:1.0;"/></g><!--link Admin to UC050--><g id="link_Admin_UC050"><path d="M84.56,1597.8481 C103.38,1571.1481 127.28,1532.5381 139,1494.5881 C142.84,1482.1281 138.42,1387.3881 147,1377.5881 C170.38,1350.8581 200.429,1339.8834 235.189,1335.4134 " fill="none" id="Admin-to-UC050" style="stroke:#181818;stroke-width:1.0;"/><polygon fill="#181818" points="241.14,1334.6481,231.7033,1331.8287,236.1808,1335.2859,232.7237,1339.7634,241.14,1334.6481" style="stroke:#181818;stroke-width:1.0;"/></g><!--link Admin to UC051--><g id="link_Admin_UC051"><path d="M84.52,1632.9181 C102.81,1631.5981 126.07,1626.5481 139,1610.5881 C159.03,1585.8481 126.49,1491.9181 147,1467.5881 C165.96,1445.0781 187.8684,1433.8978 216.5284,1427.1778 " fill="none" id="Admin-to-UC051" style="stroke:#181818;stroke-width:1.0;"/><polygon fill="#181818" points="222.37,1425.8081,212.6945,1423.9683,217.502,1426.9495,214.5208,1431.757,222.37,1425.8081" style="stroke:#181818;stroke-width:1.0;"/></g><!--link Admin to UC052--><g id="link_Admin_UC052"><path d="M84.62,1662.7081 C98.94,1676.7781 117.78,1692.2381 138,1700.5881 C169.6,1713.6181 200.2687,1718.806 233.7487,1720.606 " fill="none" id="Admin-to-UC052" style="stroke:#181818;stroke-width:1.0;"/><polygon fill="#181818" points="239.74,1720.9281,230.9677,1716.4507,234.7472,1720.6597,230.5382,1724.4392,239.74,1720.9281" style="stroke:#181818;stroke-width:1.0;"/></g><!--link Admin to UC053--><g id="link_Admin_UC053"><path d="M76.18,1672.3481 C91.17,1700.5581 115.13,1736.9581 147,1757.5881 C177.94,1777.6081 211.0297,1786.8839 246.0697,1791.8639 " fill="none" id="Admin-to-UC053" style="stroke:#181818;stroke-width:1.0;"/><polygon fill="#181818" points="252.01,1792.7081,243.6624,1787.4815,247.0597,1792.0046,242.5367,1795.4019,252.01,1792.7081" style="stroke:#181818;stroke-width:1.0;"/></g><!--link Admin to UC054--><g id="link_Admin_UC054"><path d="M64.37,1672.1281 C73.95,1718.2981 96.64,1793.5481 147,1834.5881 C172.1,1855.0281 198.9519,1865.0571 230.4519,1870.9371 " fill="none" id="Admin-to-UC054" style="stroke:#181818;stroke-width:1.0;"/><polygon fill="#181818" points="236.35,1872.0381,228.2368,1866.4546,231.4349,1871.1206,226.7688,1874.3187,236.35,1872.0381" style="stroke:#181818;stroke-width:1.0;"/></g><!--link Admin to UC055--><g id="link_Admin_UC055"><path d="M60.33,1672.4581 C65.85,1732.4481 84.44,1846.3781 147,1916.5881 C176.54,1949.7281 215.4123,1968.9777 254.5323,1982.1177 " fill="none" id="Admin-to-UC055" style="stroke:#181818;stroke-width:1.0;"/><polygon fill="#181818" points="260.22,1984.0281,252.962,1977.3706,255.4802,1982.4361,250.4148,1984.9543,260.22,1984.0281" style="stroke:#181818;stroke-width:1.0;"/></g><!--link Admin to UC056--><g id="link_Admin_UC056"><path d="M69.54,1672.3081 C87.18,1734.5181 120.72,1858.9381 139,1966.5881 C142.03,1984.4181 134.86,2034.1781 147,2047.5881 C173.14,2076.4381 208.0829,2086.9345 245.7529,2090.2345 " fill="none" id="Admin-to-UC056" style="stroke:#181818;stroke-width:1.0;"/><polygon fill="#181818" points="251.73,2090.7581,243.1134,2085.988,246.7491,2090.3218,242.4153,2093.9574,251.73,2090.7581" style="stroke:#181818;stroke-width:1.0;"/></g><!--link Admin to UC057--><g id="link_Admin_UC057"><path d="M67.19,1672.1281 C83.8,1744.8681 118.94,1904.9681 139,2041.5881 C141.69,2059.9181 134.95,2110.5081 147,2124.5881 C162.38,2142.5481 177.5906,2152.5154 199.9706,2160.3954 " fill="none" id="Admin-to-UC057" style="stroke:#181818;stroke-width:1.0;"/><polygon fill="#181818" points="205.63,2162.3881,198.4693,2155.6261,200.9138,2160.7276,195.8124,2163.1721,205.63,2162.3881" style="stroke:#181818;stroke-width:1.0;"/></g><!--link Admin to UC058--><g id="link_Admin_UC058"><path d="M64.8,1672.2181 C79.54,1758.9381 115.04,1972.1581 139,2151.5881 C141.13,2167.5381 136.29,2211.5581 147,2223.5881 C166.98,2246.0181 189.8377,2257.115 219.1177,2263.735 " fill="none" id="Admin-to-UC058" style="stroke:#181818;stroke-width:1.0;"/><polygon fill="#181818" points="224.97,2265.0581,217.0737,2259.1719,220.0931,2263.9555,215.3095,2266.9749,224.97,2265.0581" style="stroke:#181818;stroke-width:1.0;"/></g><!--link Admin to UC059--><g id="link_Admin_UC059"><path d="M57.53,1672.4581 C56.82,1803.4381 61.51,2217.5281 147,2312.5881 C164.74,2332.3081 183.4126,2342.8138 209.0026,2350.1538 " fill="none" id="Admin-to-UC059" style="stroke:#181818;stroke-width:1.0;"/><polygon fill="#181818" points="214.77,2351.8081,207.2217,2345.4817,209.9638,2350.4296,205.016,2353.1717,214.77,2351.8081" style="stroke:#181818;stroke-width:1.0;"/></g><!--link Admin to UC060--><g id="link_Admin_UC060"><path d="M60.28,1592.8581 C70.72,1414.0181 114.8,690.8381 147,655.5881 C167.16,633.5181 189.9666,622.7012 219.1666,616.3612 " fill="none" id="Admin-to-UC060" style="stroke:#181818;stroke-width:1.0;"/><polygon fill="#181818" points="225.03,615.0881,215.3862,613.0888,220.1438,616.149,217.0836,620.9067,225.03,615.0881" style="stroke:#181818;stroke-width:1.0;"/></g><!--link Admin to UC061--><g id="link_Admin_UC061"><path d="M60.52,1592.9581 C71.52,1422.6281 116.18,759.9281 147,728.5881 C177,698.0681 217.8146,688.9032 258.1046,687.3232 " fill="none" id="Admin-to-UC061" style="stroke:#181818;stroke-width:1.0;"/><polygon fill="#181818" points="264.1,687.0881,254.9502,683.4439,259.1038,687.2841,255.2637,691.4377,264.1,687.0881" style="stroke:#181818;stroke-width:1.0;"/></g><!--link Admin to UC062--><g id="link_Admin_UC062"><path d="M60.53,1593.0581 C70.94,1432.7281 111.26,838.0281 138,808.5881 C165.54,778.2481 202.7595,767.4114 242.3595,764.2114 " fill="none" id="Admin-to-UC062" style="stroke:#181818;stroke-width:1.0;"/><polygon fill="#181818" points="248.34,763.7281,239.0471,760.466,243.3562,764.1309,239.6914,768.44,248.34,763.7281" style="stroke:#181818;stroke-width:1.0;"/></g><!--link Admin to UC063--><g id="link_Admin_UC063"><path d="M58.93,1592.9881 C62.93,1439.0081 81.18,885.9881 138,834.5881 C187.75,789.5681 265.605,833.2184 309.015,863.9884 " fill="none" id="Admin-to-UC063" style="stroke:#181818;stroke-width:1.0;"/><polygon fill="#181818" points="313.91,867.4581,308.8806,858.9902,309.8308,864.5667,304.2543,865.5169,313.91,867.4581" style="stroke:#181818;stroke-width:1.0;"/></g><!--link Admin to UC064--><g id="link_Admin_UC064"><path d="M60.27,1592.7481 C68.17,1460.4181 96.31,1041.3181 138,998.5881 C170.09,965.6781 215.2204,957.8613 258.3204,958.3413 " fill="none" id="Admin-to-UC064" style="stroke:#181818;stroke-width:1.0;"/><polygon fill="#181818" points="264.32,958.4081,255.3651,954.3081,259.3203,958.3524,255.276,962.3077,264.32,958.4081" style="stroke:#181818;stroke-width:1.0;"/></g><!--link Admin to UC065--><g id="link_Admin_UC065"><path d="M58.9,1592.9181 C62.29,1480.3281 77.92,1162.1481 147,1089.5881 C168.54,1066.9581 193.2098,1056.1907 223.7798,1050.2607 " fill="none" id="Admin-to-UC065" style="stroke:#181818;stroke-width:1.0;"/><polygon fill="#181818" points="229.67,1049.1181,220.073,1046.9052,224.7615,1050.0703,221.5964,1054.7588,229.67,1049.1181" style="stroke:#181818;stroke-width:1.0;"/></g><!--link Admin to UC066--><g id="link_Admin_UC066"><path d="M60.17,1592.8081 C66.47,1492.1981 88.25,1231.2781 147,1171.5881 C171.08,1147.1081 199.8389,1136.3446 233.3389,1131.2246 " fill="none" id="Admin-to-UC066" style="stroke:#181818;stroke-width:1.0;"/><polygon fill="#181818" points="239.27,1130.3181,229.769,1127.7238,234.3274,1131.0735,230.9776,1135.6319,239.27,1130.3181" style="stroke:#181818;stroke-width:1.0;"/></g><!--link Admin to UC067--><g id="link_Admin_UC067"><path d="M68.83,1593.0681 C84.57,1535.4281 114.56,1424.9081 139,1330.5881 C142.68,1316.3881 137.52,1309.7681 147,1298.5881 C176.31,1263.9881 216.6003,1244.8187 256.6303,1232.3787 " fill="none" id="Admin-to-UC067" style="stroke:#181818;stroke-width:1.0;"/><polygon fill="#181818" points="262.36,1230.5981,252.5784,1229.4492,257.5853,1232.082,254.9525,1237.0888,262.36,1230.5981" style="stroke:#181818;stroke-width:1.0;"/></g><!--link Admin to UC068--><g id="link_Admin_UC068"><path d="M60.58,1592.9681 C73.08,1402.3481 127.55,588.0381 147,570.5881 C269.06,461.0481 392.1,463.1381 516,570.5881 C541.95,593.0881 581.21,1156.4581 603.5,1182.5881 C615.9,1197.1281 628.1492,1204.3267 646.4292,1209.7667 " fill="none" id="Admin-to-UC068" style="stroke:#181818;stroke-width:1.0;"/><polygon fill="#181818" points="652.18,1211.4781,644.6948,1205.0772,647.3877,1210.052,642.4129,1212.7449,652.18,1211.4781" style="stroke:#181818;stroke-width:1.0;"/></g><!--link Admin to UC069--><g id="link_Admin_UC069"><path d="M60.77,1593.0681 C75.21,1386.9781 141.55,444.5881 147,439.5881 C267.73,328.5881 382.58,344.2181 516,439.5881 C618.22,512.6481 698.1923,919.0357 717.5223,1024.9057 " fill="none" id="Admin-to-UC069" style="stroke:#181818;stroke-width:1.0;"/><polygon fill="#181818" points="718.6,1030.8081,720.9184,1021.236,717.7019,1025.8894,713.0485,1022.6729,718.6,1030.8081" style="stroke:#181818;stroke-width:1.0;"/></g><!--link Admin to UC070--><g id="link_Admin_UC070"><path d="M60.77,1592.7981 C74.67,1393.6081 136.62,513.8881 147,504.5881 C269.13,395.1281 388.05,401.9881 516,504.5881 C619.72,587.7581 561.55,665.0581 581,796.5881 C585.91,829.7581 583.2,1070.8881 603.5,1097.5881 C612.44,1109.3481 619.4391,1115.3907 632.9391,1121.6007 " fill="none" id="Admin-to-UC070" style="stroke:#181818;stroke-width:1.0;"/><polygon fill="#181818" points="638.39,1124.1081,631.8852,1116.713,633.8475,1122.0186,628.542,1123.9809,638.39,1124.1081" style="stroke:#181818;stroke-width:1.0;"/></g><!--link NewUser to UC071--><g id="link_NewUser_UC071"><path d="M392.09,3551.9781 C454.27,3540.9681 557.95,3518.5881 581,3488.5881 C630.43,3424.2281 566.36,2830.7381 603.5,2758.5881 C620.09,2726.3581 648.6463,2705.2143 676.0863,2689.9543 " fill="none" id="NewUser-to-UC071" style="stroke:#181818;stroke-width:1.0;"/><polygon fill="#181818" points="681.33,2687.0381,671.5204,2687.9165,676.9603,2689.4682,675.4086,2694.9081,681.33,2687.0381" style="stroke:#181818;stroke-width:1.0;"/></g><!--link NewUser to UC072--><g id="link_NewUser_UC072"><path d="M392.35,3563.4381 C442.71,3565.2481 522.63,3561.5581 581,3527.5881 C799.71,3400.2581 833.83,3310.2781 926,3074.5881 C977.38,2943.1981 887.84,2882.0981 956,2758.5881 C971.94,2729.6881 996.9071,2710.388 1021.8371,2695.738 " fill="none" id="NewUser-to-UC072" style="stroke:#181818;stroke-width:1.0;"/><polygon fill="#181818" points="1027.01,2692.6981,1017.224,2693.8093,1022.6992,2695.2313,1021.2772,2700.7065,1027.01,2692.6981" style="stroke:#181818;stroke-width:1.0;"/></g><!--link Inventory to UC046--><g id="link_Inventory_UC046"><path d="M61.12,2886.8081 C69.23,2794.2781 94.08,2568.5681 147,2517.5881 C179.78,2485.9981 224.7307,2477.7817 266.4007,2477.1317 " fill="none" id="Inventory-to-UC046" style="stroke:#181818;stroke-width:1.0;"/><polygon fill="#181818" points="272.4,2477.0381,263.3387,2473.179,267.4006,2477.1161,263.4635,2481.178,272.4,2477.0381" style="stroke:#181818;stroke-width:1.0;"/></g><!--link Inventory to UC047--><g id="link_Inventory_UC047"><path d="M59.47,2886.8381 C63.84,2824.8881 80.9,2704.9281 147,2632.5881 C181.08,2595.2881 229.3956,2576.6892 272.0756,2566.1292 " fill="none" id="Inventory-to-UC047" style="stroke:#181818;stroke-width:1.0;"/><polygon fill="#181818" points="277.9,2564.6881,268.2027,2562.9668,273.0464,2565.889,270.1242,2570.7327,277.9,2564.6881" style="stroke:#181818;stroke-width:1.0;"/></g><!--link Inventory to UC073--><g id="link_Inventory_UC073"><path d="M89.71,2886.6781 C105.24,2869.7081 125.27,2851.1881 147,2839.5881 C176.98,2823.5781 206.7574,2814.8951 239.3674,2808.9451 " fill="none" id="Inventory-to-UC073" style="stroke:#181818;stroke-width:1.0;"/><polygon fill="#181818" points="245.27,2807.8681,235.6982,2805.5486,240.3512,2808.7656,237.1342,2813.4186,245.27,2807.8681" style="stroke:#181818;stroke-width:1.0;"/></g><!--link Inventory to UC074--><g id="link_Inventory_UC074"><path d="M107.56,2918.3981 C150.06,2911.3781 206.2102,2902.0956 255.8702,2893.8956 " fill="none" id="Inventory-to-UC074" style="stroke:#181818;stroke-width:1.0;"/><polygon fill="#181818" points="261.79,2892.9181,252.2586,2890.4378,256.8568,2893.7327,253.5619,2898.3309,261.79,2892.9181" style="stroke:#181818;stroke-width:1.0;"/></g><!--link Inventory to UC075--><g id="link_Inventory_UC075"><path d="M60.11,2966.2481 C67.99,3106.5481 97.74,3573.2681 147,3616.5881 C270.16,3724.8781 369.78,3690.8581 516,3616.5881 C624.64,3561.3981 700.3462,3156.4919 718.0762,3053.0719 " fill="none" id="Inventory-to-UC075" style="stroke:#181818;stroke-width:1.0;"/><polygon fill="#181818" points="719.09,3047.1581,713.6268,3055.3528,718.2451,3052.0862,721.5117,3056.7046,719.09,3047.1581" style="stroke:#181818;stroke-width:1.0;"/></g><!--link Inventory to UC076--><g id="link_Inventory_UC076"><path d="M59.57,2966.1881 C65.94,3116.3581 92.1,3644.6881 147,3693.5881 C269.47,3802.6581 356.45,3731.5381 516,3693.5881 C683.07,3653.8381 744.06,3645.3481 861,3519.5881 C996.14,3374.2581 1048.2269,3133.825 1062.3269,3054.735 " fill="none" id="Inventory-to-UC076" style="stroke:#181818;stroke-width:1.0;"/><polygon fill="#181818" points="1063.38,3048.8281,1057.8625,3056.9864,1062.5024,3053.7505,1065.7383,3058.3905,1063.38,3048.8281" style="stroke:#181818;stroke-width:1.0;"/></g><!--link Inventory to UC077--><g id="link_Inventory_UC077"><path d="M59.45,2966.3081 C65.58,3124.1781 91.66,3701.4481 147,3759.5881 C207.86,3823.5181 254.23,3794.5881 342.5,3794.5881 C342.5,3794.5881 342.5,3794.5881 1069.5,3794.5881 C1401.39,3794.5881 1416.3371,3196.188 1415.4971,3060.428 " fill="none" id="Inventory-to-UC077" style="stroke:#181818;stroke-width:1.0;"/><polygon fill="#181818" points="1415.46,3054.4281,1411.5158,3063.4527,1415.4909,3059.428,1419.5156,3063.4032,1415.46,3054.4281" style="stroke:#181818;stroke-width:1.0;"/></g><!--link Inventory to UC078--><g id="link_Inventory_UC078"><path d="M107.68,2939.7581 C117.66,2942.0181 128.12,2944.1081 138,2945.5881 C175.12,2951.1281 210.3879,2954.0007 246.0579,2955.8307 " fill="none" id="Inventory-to-UC078" style="stroke:#181818;stroke-width:1.0;"/><polygon fill="#181818" points="252.05,2956.1381,243.2668,2951.6823,247.0566,2955.8819,242.8569,2959.6717,252.05,2956.1381" style="stroke:#181818;stroke-width:1.0;"/></g><!--link Inventory to UC079--><g id="link_Inventory_UC079"><path d="M100.12,2966.2281 C114.13,2977.5481 130.41,2988.8981 147,2996.5881 C181.26,3012.4681 215.8697,3021.1037 251.1097,3026.9037 " fill="none" id="Inventory-to-UC079" style="stroke:#181818;stroke-width:1.0;"/><polygon fill="#181818" points="257.03,3027.8781,248.7991,3022.4696,252.0964,3027.0661,247.4999,3030.3634,257.03,3027.8781" style="stroke:#181818;stroke-width:1.0;"/></g><!--link Inventory to UC063--><g id="link_Inventory_UC063"><path d="M63.93,2886.8681 C74.91,2811.4281 98.17,2642.0681 108,2498.5881 C152.42,1850.1881 104.08,1685.6081 138,1036.5881 C140.49,988.9281 115.3,965.2581 147,929.5881 C170.53,903.0981 200.5004,892.174 235.1604,887.654 " fill="none" id="Inventory-to-UC063" style="stroke:#181818;stroke-width:1.0;"/><polygon fill="#181818" points="241.11,886.8781,231.6683,884.0755,236.152,887.5247,232.7028,892.0084,241.11,886.8781" style="stroke:#181818;stroke-width:1.0;"/></g><!--link Inventory to UC064--><g id="link_Inventory_UC064"><path d="M63.89,2886.8681 C74.8,2811.4181 97.97,2642.0581 108,2498.5881 C110.9,2457.1681 119.84,1035.9781 147,1004.5881 C174.24,973.1081 213.1562,963.3415 253.0662,961.5215 " fill="none" id="Inventory-to-UC064" style="stroke:#181818;stroke-width:1.0;"/><polygon fill="#181818" points="259.06,961.2481,249.8871,957.6623,254.0652,961.4759,250.2516,965.654,259.06,961.2481" style="stroke:#181818;stroke-width:1.0;"/></g><!--link Inventory to UC065--><g id="link_Inventory_UC065"><path d="M63.87,2886.8681 C74.75,2811.4181 97.86,2642.0481 108,2498.5881 C109.38,2479.0581 134.35,1104.5281 147,1089.5881 C167.52,1065.3381 192.4504,1054.1513 223.5904,1048.3813 " fill="none" id="Inventory-to-UC065" style="stroke:#181818;stroke-width:1.0;"/><polygon fill="#181818" points="229.49,1047.2881,219.9119,1044.9948,224.5737,1048.1991,221.3694,1052.8609,229.49,1047.2881" style="stroke:#181818;stroke-width:1.0;"/></g><!--link Inventory to UC066--><g id="link_Inventory_UC066"><path d="M63.84,2886.8681 C74.66,2811.4081 97.67,2642.0381 108,2498.5881 C109.32,2480.1881 135.11,1185.6781 147,1171.5881 C169.82,1144.5481 199.5433,1133.3459 234.2033,1128.6959 " fill="none" id="Inventory-to-UC066" style="stroke:#181818;stroke-width:1.0;"/><polygon fill="#181818" points="240.15,1127.8981,230.698,1125.1304,235.1944,1128.563,231.7618,1133.0593,240.15,1127.8981" style="stroke:#181818;stroke-width:1.0;"/></g><!--link Inventory to UC067--><g id="link_Inventory_UC067"><path d="M63.77,2886.8581 C74.48,2811.3981 97.31,2642.0081 108,2498.5881 C110.48,2465.3281 128.26,1326.1781 147,1298.5881 C171.9,1261.9181 210.5281,1242.6655 250.7181,1230.7355 " fill="none" id="Inventory-to-UC067" style="stroke:#181818;stroke-width:1.0;"/><polygon fill="#181818" points="256.47,1229.0281,246.7038,1227.7546,251.6767,1230.451,248.9804,1235.4239,256.47,1229.0281" style="stroke:#181818;stroke-width:1.0;"/></g><!--link Inventory to UC068--><g id="link_Inventory_UC068"><path d="M58.12,2966.4581 C59.36,3073.4981 69.15,3362.9681 138,3421.5881 C212.96,3485.3981 510.41,3490.1981 581,3421.5881 C596.78,3406.2481 602.26,2651.5581 603.5,2629.5881 C635.78,2058.6981 707.5107,1366.335 720.3907,1244.205 " fill="none" id="Inventory-to-UC068" style="stroke:#181818;stroke-width:1.0;"/><polygon fill="#181818" points="721.02,1238.2381,716.0981,1246.769,720.4956,1243.2105,724.054,1247.608,721.02,1238.2381" style="stroke:#181818;stroke-width:1.0;"/></g><!--link Inventory to UC069--><g id="link_Inventory_UC069"><path d="M62.3,2966.2481 C69.96,3014.9681 90.84,3095.6681 147,3132.5881 C308.36,3238.6481 465.42,3267.2581 581,3112.5881 C614.51,3067.7481 570.89,1143.0781 603.5,1097.5881 C612.08,1085.6081 618.9034,1079.5232 632.3534,1073.3732 " fill="none" id="Inventory-to-UC069" style="stroke:#181818;stroke-width:1.0;"/><polygon fill="#181818" points="637.81,1070.8781,627.9617,1070.9829,633.2628,1072.9573,631.2884,1078.2584,637.81,1070.8781" style="stroke:#181818;stroke-width:1.0;"/></g><!--link Inventory to UC070--><g id="link_Inventory_UC070"><path d="M61.96,2966.1781 C71.26,3050.0281 97.52,3241.0281 147,3279.5881 C299.15,3398.1381 443.88,3415.2381 581,3279.5881 C622.39,3238.6381 569.76,1231.0381 603.5,1183.5881 C612,1171.6381 618.7075,1165.5353 632.0375,1159.2853 " fill="none" id="Inventory-to-UC070" style="stroke:#181818;stroke-width:1.0;"/><polygon fill="#181818" points="637.47,1156.7381,627.6232,1156.9371,632.9429,1158.8607,631.0193,1164.1805,637.47,1156.7381" style="stroke:#181818;stroke-width:1.0;"/></g><!--link Cashier to UC046--><g id="link_Cashier_UC046"><path d="M84.51,2445.4081 C128.65,2451.7681 212.4514,2463.8418 273.5514,2472.6518 " fill="none" id="Cashier-to-UC046" style="stroke:#181818;stroke-width:1.0;"/><polygon fill="#181818" points="279.49,2473.5081,271.153,2468.2646,274.5412,2472.7946,270.0113,2476.1828,279.49,2473.5081" style="stroke:#181818;stroke-width:1.0;"/></g><!--link Cashier to UC047--><g id="link_Cashier_UC047"><path d="M78.29,2481.1881 C91.94,2503.3881 112.17,2529.2281 138,2542.5881 C179.84,2564.2281 227.1747,2566.8272 268.8747,2563.9072 " fill="none" id="Cashier-to-UC047" style="stroke:#181818;stroke-width:1.0;"/><polygon fill="#181818" points="274.86,2563.4881,265.6026,2560.1266,269.8722,2563.8374,266.1614,2568.107,274.86,2563.4881" style="stroke:#181818;stroke-width:1.0;"/></g><!--link Cashier to UC088--><g id="link_Cashier_UC088"><path d="M73.81,2481.1781 C88.54,2513.7281 113.3,2559.1381 147,2588.5881 C182.39,2619.5181 225.097,2638.7538 264.877,2652.2238 " fill="none" id="Cashier-to-UC088" style="stroke:#181818;stroke-width:1.0;"/><polygon fill="#181818" points="270.56,2654.1481,263.3183,2647.4729,265.8241,2652.5445,260.7525,2655.0503,270.56,2654.1481" style="stroke:#181818;stroke-width:1.0;"/></g><!--link Cashier to UC063--><g id="link_Cashier_UC063"><path d="M61.04,2402.0681 C69.55,2290.2981 93.91,1962.3581 108,1689.5881 C110.33,1644.3881 105.42,906.9881 138,875.5881 C179.38,835.6981 244.3157,849.6182 290.7657,866.8782 " fill="none" id="Cashier-to-UC063" style="stroke:#181818;stroke-width:1.0;"/><polygon fill="#181818" points="296.39,868.9681,289.3468,862.0838,291.7031,867.2266,286.5603,869.5828,296.39,868.9681" style="stroke:#181818;stroke-width:1.0;"/></g><!--link Cashier to UC064--><g id="link_Cashier_UC064"><path d="M60.91,2402.0581 C69.08,2290.2781 92.64,1962.2881 108,1689.5881 C124.26,1400.8481 95.1,1325.5781 138,1039.5881 C140.38,1023.6981 135.28,1015.5681 147,1004.5881 C175.73,977.6481 211.6605,967.8635 249.3205,964.7435 " fill="none" id="Cashier-to-UC064" style="stroke:#181818;stroke-width:1.0;"/><polygon fill="#181818" points="255.3,964.2481,246.0005,961.0049,250.3171,964.6609,246.661,968.9775,255.3,964.2481" style="stroke:#181818;stroke-width:1.0;"/></g><!--link Cashier to UC065--><g id="link_Cashier_UC065"><path d="M60.7,2402.0481 C68.3,2290.2281 90.53,1962.1581 108,1689.5881 C121.85,1473.6181 122.82,1419.4581 138,1203.5881 C139.78,1178.2381 130.26,1108.7081 147,1089.5881 C167.81,1065.8081 192.6236,1054.7485 223.5836,1048.9185 " fill="none" id="Cashier-to-UC065" style="stroke:#181818;stroke-width:1.0;"/><polygon fill="#181818" points="229.48,1047.8081,219.8952,1045.5427,224.5664,1048.7334,221.3757,1053.4045,229.48,1047.8081" style="stroke:#181818;stroke-width:1.0;"/></g><!--link Cashier to UC066--><g id="link_Cashier_UC066"><path d="M60.61,2402.0281 C74.76,2187.9781 141.81,1177.5381 147,1171.5881 C170.07,1145.1181 199.537,1133.9929 233.907,1129.2229 " fill="none" id="Cashier-to-UC066" style="stroke:#181818;stroke-width:1.0;"/><polygon fill="#181818" points="239.85,1128.3981,230.3856,1125.6733,234.8975,1129.0855,231.4853,1133.5973,239.85,1128.3981" style="stroke:#181818;stroke-width:1.0;"/></g><!--link Cashier to UC067--><g id="link_Cashier_UC067"><path d="M60.54,2401.7881 C73.31,2202.4981 130.61,1321.5781 147,1298.5881 C172.88,1262.2681 211.9715,1243.027 252.1715,1231.007 " fill="none" id="Cashier-to-UC067" style="stroke:#181818;stroke-width:1.0;"/><polygon fill="#181818" points="257.92,1229.2881,248.1513,1228.034,253.1296,1230.7205,250.4431,1235.6987,257.92,1229.2881" style="stroke:#181818;stroke-width:1.0;"/></g><!--link Cashier to UC068--><g id="link_Cashier_UC068"><path d="M63.03,2481.3681 C72.49,2556.9481 93.32,2726.5081 108,2869.5881 C111.86,2907.1981 112.54,3180.6181 138,3208.5881 C272.24,3356.0281 437.58,3418.1181 581,3279.5881 C606.99,3254.4781 601.35,2665.6481 603.5,2629.5881 C637.54,2058.7981 707.8444,1366.3565 720.4444,1244.2065 " fill="none" id="Cashier-to-UC068" style="stroke:#181818;stroke-width:1.0;"/><polygon fill="#181818" points="721.06,1238.2381,716.1576,1246.7802,720.547,1243.2117,724.1154,1247.6011,721.06,1238.2381" style="stroke:#181818;stroke-width:1.0;"/></g><!--link Cashier to UC069--><g id="link_Cashier_UC069"><path d="M62.89,2481.4381 C79.85,2618.8081 135.67,3064.7281 147,3074.5881 C219.79,3137.8581 512.42,3142.3881 581,3074.5881 C620.05,3035.9681 571.5,1142.2181 603.5,1097.5881 C612.09,1085.6081 618.9034,1079.5232 632.3534,1073.3732 " fill="none" id="Cashier-to-UC069" style="stroke:#181818;stroke-width:1.0;"/><polygon fill="#181818" points="637.81,1070.8781,627.9617,1070.9829,633.2628,1072.9573,631.2884,1078.2584,637.81,1070.8781" style="stroke:#181818;stroke-width:1.0;"/></g><!--link Cashier to UC070--><g id="link_Cashier_UC070"><path d="M62.71,2481.1581 C80.2,2627.7881 140.75,3132.0781 147,3137.5881 C291.78,3265.0281 443.82,3273.1881 581,3137.5881 C619.6,3099.4181 572.03,1227.8081 603.5,1183.5881 C612,1171.6381 618.7175,1165.5453 632.0475,1159.2953 " fill="none" id="Cashier-to-UC070" style="stroke:#181818;stroke-width:1.0;"/><polygon fill="#181818" points="637.48,1156.7481,627.6332,1156.9471,632.9529,1158.8707,631.0293,1164.1905,637.48,1156.7481" style="stroke:#181818;stroke-width:1.0;"/></g><!--link Production to UC046--><g id="link_Production_UC046"><path d="M61.04,893.0881 C69.36,1001.8681 92.85,1314.9881 108,1575.5881 C109.34,1598.5981 133.62,2385.8081 147,2404.5881 C176.69,2446.2481 226.491,2464.469 270.861,2473.519 " fill="none" id="Production-to-UC046" style="stroke:#181818;stroke-width:1.0;"/><polygon fill="#181818" points="276.74,2474.7181,268.721,2469.0002,271.8409,2473.7189,267.1222,2476.8388,276.74,2474.7181" style="stroke:#181818;stroke-width:1.0;"/></g><!--link Production to UC047--><g id="link_Production_UC047"><path d="M61.18,893.4781 C69.79,1002.5981 93.84,1315.2481 108,1575.5881 C109.42,1601.7381 129.75,2497.8781 147,2517.5881 C176.43,2551.2181 220.1204,2559.9665 262.0304,2560.4665 " fill="none" id="Production-to-UC047" style="stroke:#181818;stroke-width:1.0;"/><polygon fill="#181818" points="268.03,2560.5381,259.0784,2556.431,263.0304,2560.4785,258.9829,2564.4305,268.03,2560.5381" style="stroke:#181818;stroke-width:1.0;"/></g><!--link Production to UC063--><g id="link_Production_UC063"><path d="M70.02,813.7781 C84.23,773.2681 109.67,719.8481 139,745.5881 C159.55,763.6181 130.46,784.8181 147,806.5881 C174.67,842.9881 215.6276,861.9614 256.4676,873.5414 " fill="none" id="Production-to-UC063" style="stroke:#181818;stroke-width:1.0;"/><polygon fill="#181818" points="262.24,875.1781,254.6725,868.8747,257.4296,873.8142,252.4902,876.5713,262.24,875.1781" style="stroke:#181818;stroke-width:1.0;"/></g><!--link Production to UC064--><g id="link_Production_UC064"><path d="M108.12,881.4281 C119.36,889.4081 130.47,898.8881 139,909.5881 C144.97,917.0681 139.62,923.4781 147,929.5881 C176.71,954.1581 211.6532,963.9078 248.3832,967.7878 " fill="none" id="Production-to-UC064" style="stroke:#181818;stroke-width:1.0;"/><polygon fill="#181818" points="254.35,968.4181,245.82,963.4948,249.3777,967.8929,244.9796,971.4505,254.35,968.4181" style="stroke:#181818;stroke-width:1.0;"/></g><!--link Production to UC065--><g id="link_Production_UC065"><path d="M71.06,893.2981 C84.56,928.0181 109.06,977.0781 147,1004.5881 C172.39,1022.9981 198.3013,1032.5677 228.8113,1038.7977 " fill="none" id="Production-to-UC065" style="stroke:#181818;stroke-width:1.0;"/><polygon fill="#181818" points="234.69,1039.9981,226.6722,1034.2784,229.7911,1038.9978,225.0717,1042.1167,234.69,1039.9981" style="stroke:#181818;stroke-width:1.0;"/></g><!--link Production to UC066--><g id="link_Production_UC066"><path d="M61.44,893.1781 C68.24,946.1681 88.31,1039.2981 147,1089.5881 C172.68,1111.5881 201.2303,1121.7896 234.0803,1127.2196 " fill="none" id="Production-to-UC066" style="stroke:#181818;stroke-width:1.0;"/><polygon fill="#181818" points="240,1128.1981,231.7728,1122.7839,235.0669,1127.3827,230.4682,1130.6768,240,1128.1981" style="stroke:#181818;stroke-width:1.0;"/></g><!--link Production to UC067--><g id="link_Production_UC067"><path d="M63.99,893.3681 C76.28,969.6781 106.64,1132.4681 147,1170.5881 C170.18,1192.4781 195.9697,1203.0561 227.0697,1209.0861 " fill="none" id="Production-to-UC067" style="stroke:#181818;stroke-width:1.0;"/><polygon fill="#181818" points="232.96,1210.2281,224.8859,1204.5881,228.0514,1209.2764,223.3632,1212.4419,232.96,1210.2281" style="stroke:#181818;stroke-width:1.0;"/></g><!--link Production to UC068--><g id="link_Production_UC068"><path d="M61.68,813.8581 C70.54,728.1681 96.14,530.4781 147,490.5881 C298.77,371.5281 442.41,356.4281 581,490.5881 C636.27,544.0881 556.85,1121.4081 603.5,1182.5881 C615.02,1197.6981 626.8816,1205.079 645.0716,1210.519 " fill="none" id="Production-to-UC068" style="stroke:#181818;stroke-width:1.0;"/><polygon fill="#181818" points="650.82,1212.2381,643.3435,1205.8271,646.0296,1210.8055,641.0512,1213.4917,650.82,1212.2381" style="stroke:#181818;stroke-width:1.0;"/></g><!--link Production to UC069--><g id="link_Production_UC069"><path d="M60.46,814.0781 C69.22,679.7681 100.85,246.8181 147,206.5881 C292.39,79.8281 433.79,81.9481 581,206.5881 C710.88,316.5481 722.0083,896.8183 722.8983,1024.8683 " fill="none" id="Production-to-UC069" style="stroke:#181818;stroke-width:1.0;"/><polygon fill="#181818" points="722.94,1030.8681,726.8774,1021.8405,722.9052,1025.8682,718.8775,1021.8961,722.94,1030.8681" style="stroke:#181818;stroke-width:1.0;"/></g><!--link Production to UC070--><g id="link_Production_UC070"><path d="M57.68,813.9881 C57.72,702.4781 64.49,389.7781 138,326.5881 C287.49,198.0781 442.99,207.8281 581,348.5881 C639.29,408.0381 554.6,1030.1981 603.5,1097.5881 C612.11,1109.4481 618.8729,1115.5208 632.2229,1121.7508 " fill="none" id="Production-to-UC070" style="stroke:#181818;stroke-width:1.0;"/><polygon fill="#181818" points="637.66,1124.2881,631.1959,1116.8574,633.1291,1122.1737,627.8128,1124.1069,637.66,1124.2881" style="stroke:#181818;stroke-width:1.0;"/></g><!--link UC049 to UC071--><g id="link_UC049_UC071"><path d="M412.86,1610.1981 C448.75,1622.8981 490.47,1643.7281 516,1676.5881 C640.7,1837.0481 708.4655,2510.2838 720.5155,2640.1138 " fill="none" id="UC049-to-UC071" style="stroke:#181818;stroke-width:1.0;stroke-dasharray:7.0,7.0;"/><polygon fill="#181818" points="721.07,2646.0881,724.2211,2636.757,720.6079,2641.1095,716.2554,2637.4963,721.07,2646.0881" style="stroke:#181818;stroke-width:1.0;"/><text fill="#000000" font-family="sans-serif" font-size="13" lengthAdjust="spacing" textLength="55.6563" x="525" y="1685.0832">&#171;include&#187;</text></g><!--link UC071 to UC072--><g id="link_UC071_UC072"><path d="M820.41,2668.9781 C867.02,2669.6581 917.0306,2670.3911 963.9306,2671.0711 " fill="none" id="UC071-to-UC072" style="stroke:#181818;stroke-width:1.0;stroke-dasharray:7.0,7.0;"/><polygon fill="#181818" points="969.93,2671.1581,960.9889,2667.0281,964.9305,2671.0856,960.873,2675.0272,969.93,2671.1581" style="stroke:#181818;stroke-width:1.0;"/><text fill="#000000" font-family="sans-serif" font-size="13" lengthAdjust="spacing" textLength="53.4917" x="871" y="2667.0832">&#171;extend&#187;</text></g><!--link UC074 to UC075--><g id="link_UC074_UC075"><path d="M422.46,2893.6981 C452.19,2900.1281 486.1,2908.7581 516,2919.5881 C577.83,2941.9681 639.9149,2975.1937 680.4649,2998.4437 " fill="none" id="UC074-to-UC075" style="stroke:#181818;stroke-width:1.0;stroke-dasharray:7.0,7.0;"/><polygon fill="#181818" points="685.67,3001.4281,679.852,2993.4814,681.3324,2998.9411,675.8727,3000.4215,685.67,3001.4281" style="stroke:#181818;stroke-width:1.0;"/><text fill="#000000" font-family="sans-serif" font-size="13" lengthAdjust="spacing" textLength="53.4917" x="526" y="2921.0832">&#171;extend&#187;</text></g><!--link UC075 to UC076--><g id="link_UC075_UC076"><path d="M830.56,3023.5881 C870.26,3023.5881 909.52,3023.5881 949.76,3023.5881 " fill="none" id="UC075-to-UC076" style="stroke:#181818;stroke-width:1.0;stroke-dasharray:7.0,7.0;"/><polygon fill="#181818" points="955.76,3023.5881,946.76,3019.5881,950.76,3023.5881,946.76,3027.5881,955.76,3023.5881" style="stroke:#181818;stroke-width:1.0;"/><text fill="#000000" font-family="sans-serif" font-size="13" lengthAdjust="spacing" textLength="55.6563" x="870" y="3020.0832">&#171;include&#187;</text></g><!--link UC076 to UC077--><g id="link_UC076_UC077"><path d="M1181.2,3024.8781 C1217.87,3025.2981 1252.7504,3025.7088 1289.9504,3026.1388 " fill="none" id="UC076-to-UC077" style="stroke:#181818;stroke-width:1.0;stroke-dasharray:7.0,7.0;"/><polygon fill="#181818" points="1295.95,3026.2081,1286.9968,3022.1044,1290.9503,3026.1503,1286.9044,3030.1038,1295.95,3026.2081" style="stroke:#181818;stroke-width:1.0;"/><text fill="#000000" font-family="sans-serif" font-size="13" lengthAdjust="spacing" textLength="53.4917" x="1212" y="3022.0832">&#171;extend&#187;</text></g><!--link UC067 to UC068--><g id="link_UC067_UC068"><path d="M454.74,1215.3281 C515.52,1216.2981 583.5508,1217.373 638.4308,1218.243 " fill="none" id="UC067-to-UC068" style="stroke:#181818;stroke-width:1.0;stroke-dasharray:7.0,7.0;"/><polygon fill="#181818" points="644.43,1218.3381,635.4945,1214.196,639.4306,1218.2589,635.3677,1222.195,644.43,1218.3381" style="stroke:#181818;stroke-width:1.0;"/><text fill="#000000" font-family="sans-serif" font-size="13" lengthAdjust="spacing" textLength="55.6563" x="525" y="1213.0832">&#171;include&#187;</text></g><!--link UC067 to UC069--><g id="link_UC067_UC069"><path d="M448.97,1205.3681 C473.52,1198.9181 497.8,1188.1981 516,1170.5881 C525.3,1161.5781 515.99,1152.7481 524,1142.5881 C549.12,1110.6881 566.54,1114.3781 603.5,1097.5881 C621.32,1089.4881 635.5237,1083.9113 653.8737,1077.5213 " fill="none" id="UC067-to-UC069" style="stroke:#181818;stroke-width:1.0;stroke-dasharray:7.0,7.0;"/><polygon fill="#181818" points="659.54,1075.5481,649.7252,1074.7303,654.8181,1077.1924,652.356,1082.2854,659.54,1075.5481" style="stroke:#181818;stroke-width:1.0;"/><text fill="#000000" font-family="sans-serif" font-size="13" lengthAdjust="spacing" textLength="53.4917" x="526" y="1104.0832">&#171;extend&#187;</text></g><!--link UC067 to UC070--><g id="link_UC067_UC070"><path d="M428.03,1197.4681 C490.51,1185.4181 569.7386,1170.1443 632.4786,1158.0443 " fill="none" id="UC067-to-UC070" style="stroke:#181818;stroke-width:1.0;stroke-dasharray:7.0,7.0;"/><polygon fill="#181818" points="638.37,1156.9081,628.7754,1154.6848,633.4605,1157.855,630.2903,1162.5401,638.37,1156.9081" style="stroke:#181818;stroke-width:1.0;"/><text fill="#000000" font-family="sans-serif" font-size="13" lengthAdjust="spacing" textLength="53.4917" x="526" y="1165.0832">&#171;extend&#187;</text></g><!--SRC=[ZLVBRjiw4DthAmXlkaeREnPbNxG1tBf5YoIzHdApwsPYCJAh1mE9QXeK_VSxf2LP8iUEl13CcJEQCmyEnIgLnHEKa3FOQbNUwPTCC7WMbSf5K7NA9zYca8YzkXHR3KMIYI3GKgFWlXBi4-1ZBI4ny3FshTYM8XU5PhCVnPsijCZP3HJmqmZPVofLxAeMR0FFghXO_oXkL5ndR2EAk4xh8c7_FeaIAgaAo88W4u-QQSLAcUmqYwKXWAeWUCC-V62h58dZdy16m2QhE9V5X475xBzMZEzEahe0zX7Asgg_YsTaNhQ0Zv18A93vBwIjIcanxUgbHLqXgzAgCEATzCmt9KQILdjhk-XpRJA1PBiaiaaZR78nJDw4_GaO_kpZ3JixOwjQeqQco0ENLjvK1qC_w5f3ywihiJNbcLohH1Oi5GqFo_7-q_cSar1LOxAXb2uwikY_3Y-JNv6f34mIsbox12aGoVG6bP1Mec9V8OFSmbDH_eIEnO8qWlm1TioljR5OqcvgOx463Jr6Uulm_8J5dGPTLwRxvADlEHsHenAVfnE4YD7PiTZ6- -naRepVVcB2YnDX8ZoNbTc9Ze_vqGWnByP5qzPKX0F4w0XRkuv2U8ftgHvbXgC9TeUgy36EReHMCOucWUbwWRw_w4HQZrijNckxuwRB4LsKuHH9Nksa1ZKwrnr-puJJEs5hfeCFdbBWJEv0ixNG83F2PaQ6-aLYnTbzNkVxOUv5UG2C3StsHUVsujMPCCJFn_Zuhd0cD5EuiQDR5OeOP0-E1-W3RBj-vQFwzHgULAzfEDcbEGQXHUc1ZpIdI2l4jMXpOcpMNpgZvLYZpx-teijTT4wMs0pGNoRs5Hxy_edMrxvIucjPfDthEg_J8oQcRpPGLS-gZ0VZCA9RyKwhROhV9RZVXKUphnpPY5-nSukaSqesOlvGuvwvDHiD3pF7Wcp5lCv0sWcnisWpPRLAEoEo3tEewZH5w5KD-FcWmHvhDHnAHpVYYyX41JBTdp-qm-ZuBBYLppZlj1lNuhZ5AZD54sKbOWc7BewEp4abJmx8WVferSonRYDqu7lNYqNZ-c_pXNUB2DEkTbhXTruxjYwR3wtXEdBM2sUz7AxnWsIudZhhcRE-SDPpPnqwQuTVwF0B7NwXmuyx_BZ3ZplykCEFE_oumuyx_BZ3ZplykCCFHz2WIeFlH5EjvahGuQUUP3PyWtjfC2_fxWozilkoo9VX4F1bSq8M4ZB2HqJvM12ofI_Z11TESE445qvmuGGNJd3X11UtRFOEPZBTNC5wUNObaIl13Uj8C59NClSaeIVnV77F5_TzBLs96vjpZJHH7cwHlK09OKG8CJX2EAU48IMa777IqO8IBWbX5p5USxCw5ky-_yPRQsmYjIEFlNtRR3xs3tl_NkvHbvV1NjPgPrOhh6sZd7VAq5U6dP8Jx-MTDl9CUTGg-S8txMcN9qoZyw7oVm00]--></g></svg>