<svg xmlns="http://www.w3.org/2000/svg" xmlns:xlink="http://www.w3.org/1999/xlink" contentStyleType="text/css" height="2315px" preserveAspectRatio="none" style="width:755px;height:2315px;background:#FFFFFF;" version="1.1" viewBox="0 0 755 2315" width="755px" zoomAndPan="magnify"><title>Use Case Diagram - Increment 2: Fungsionalitas Pendukung</title><defs/><g><text fill="#000000" font-family="sans-serif" font-size="14" font-weight="bold" lengthAdjust="spacing" textLength="401.4268" x="169.7866" y="24.5332">Use Case Diagram - Increment 2: Fungsionalitas Pendukung</text><!--cluster Sistem Pawon3D - Increment 2--><g id="cluster_Sistem Pawon3D - Increment 2"><rect fill="none" height="2129" rx="2.5" ry="2.5" style="stroke:#181818;stroke-width:1.0;" width="584" x="165" y="45.6094"/><text fill="#000000" font-family="sans-serif" font-size="14" font-weight="bold" lengthAdjust="spacing" textLength="203.8408" x="355.0796" y="62.1426">Sistem Pawon3D - Increment 2</text></g><!--cluster Pengguna & Peran--><g id="cluster_Pengguna &amp; Peran"><rect fill="none" height="439" rx="2.5" ry="2.5" style="stroke:#181818;stroke-width:1.0;" width="200" x="210.5" y="89.6094"/><text fill="#000000" font-family="sans-serif" font-size="14" font-weight="bold" lengthAdjust="spacing" textLength="124.4688" x="248.2656" y="106.1426">Pengguna &amp; Peran</text></g><!--cluster Pelanggan & Poin--><g id="cluster_Pelanggan &amp; Poin"><rect fill="none" height="311" rx="2.5" ry="2.5" style="stroke:#181818;stroke-width:1.0;" width="216" x="202.5" y="820.6094"/><text fill="#000000" font-family="sans-serif" font-size="14" font-weight="bold" lengthAdjust="spacing" textLength="119.0137" x="250.9932" y="837.1426">Pelanggan &amp; Poin</text></g><!--cluster Stock Opname--><g id="cluster_Stock Opname"><rect fill="none" height="313" rx="2.5" ry="2.5" style="stroke:#181818;stroke-width:1.0;" width="209" x="206" y="1155.6094"/><text fill="#000000" font-family="sans-serif" font-size="14" font-weight="bold" lengthAdjust="spacing" textLength="98.0273" x="261.4863" y="1172.1426">Stock Opname</text></g><!--cluster Dashboard & Laporan--><g id="cluster_Dashboard &amp; Laporan"><rect fill="none" height="395" rx="2.5" ry="2.5" style="stroke:#181818;stroke-width:1.0;" width="523.5" x="201.5" y="1492.6094"/><text fill="#000000" font-family="sans-serif" font-size="14" font-weight="bold" lengthAdjust="spacing" textLength="146.2412" x="390.1294" y="1509.1426">Dashboard &amp; Laporan</text></g><!--cluster Notifikasi & Log--><g id="cluster_Notifikasi &amp; Log"><rect fill="none" height="239" rx="2.5" ry="2.5" style="stroke:#181818;stroke-width:1.0;" width="223" x="199" y="1911.6094"/><text fill="#000000" font-family="sans-serif" font-size="14" font-weight="bold" lengthAdjust="spacing" textLength="106.5586" x="257.2207" y="1928.1426">Notifikasi &amp; Log</text></g><!--cluster Pengaturan--><g id="cluster_Pengaturan"><rect fill="none" height="244" rx="2.5" ry="2.5" style="stroke:#181818;stroke-width:1.0;" width="243" x="189" y="552.6094"/><text fill="#000000" font-family="sans-serif" font-size="14" font-weight="bold" lengthAdjust="spacing" textLength="77.0137" x="271.9932" y="569.1426">Pengaturan</text></g><g id="elem_UC38"><ellipse cx="310.3935" cy="493.7881" fill="#FFFFFF" rx="83.8935" ry="19.1787" style="stroke:#000000;stroke-width:0.5;"/><text fill="#000000" font-family="sans-serif" font-size="14" lengthAdjust="spacing" textLength="123.7305" x="248.5282" y="497.5166">Lihat Daftar Pekerja</text></g><g id="elem_UC39"><ellipse cx="310.4939" cy="354.6082" fill="#FFFFFF" rx="75.4939" ry="17.4988" style="stroke:#000000;stroke-width:0.5;"/><text fill="#000000" font-family="sans-serif" font-size="14" lengthAdjust="spacing" textLength="102.7168" x="256.1355" y="359.1248">Tambah Pekerja</text></g><g id="elem_UC40"><ellipse cx="310.6266" cy="283.8347" fill="#FFFFFF" rx="81.6266" ry="18.7253" style="stroke:#000000;stroke-width:0.5;"/><text fill="#000000" font-family="sans-serif" font-size="14" lengthAdjust="spacing" textLength="118.2891" x="251.1917" y="287.6492">Ubah Data Pekerja</text></g><g id="elem_UC41"><ellipse cx="310.3032" cy="211.77" fill="#FFFFFF" rx="81.3032" ry="18.6606" style="stroke:#000000;stroke-width:0.5;"/><text fill="#000000" font-family="sans-serif" font-size="14" lengthAdjust="spacing" textLength="117.5029" x="251.1261" y="215.6237">Toggle Status Aktif</text></g><g id="elem_UC42"><ellipse cx="310.472" cy="423.5038" fill="#FFFFFF" rx="67.472" ry="15.8944" style="stroke:#000000;stroke-width:0.5;"/><text fill="#000000" font-family="sans-serif" font-size="14" lengthAdjust="spacing" textLength="80.165" x="267.3895" y="428.0204">Kelola Peran</text></g><g id="elem_UC43"><ellipse cx="310.2805" cy="141.7655" fill="#FFFFFF" rx="68.7805" ry="16.1561" style="stroke:#000000;stroke-width:0.5;"/><text fill="#000000" font-family="sans-serif" font-size="14" lengthAdjust="spacing" textLength="84.0342" x="265.2634" y="146.2821">Aktivasi Akun</text></g><g id="elem_UC44"><ellipse cx="310.7234" cy="877.4541" fill="#FFFFFF" rx="92.2234" ry="20.8447" style="stroke:#000000;stroke-width:0.5;"/><text fill="#000000" font-family="sans-serif" font-size="14" lengthAdjust="spacing" textLength="143.2129" x="239.117" y="881.1826">Lihat Daftar Pelanggan</text></g><g id="elem_UC45"><ellipse cx="310.7115" cy="954.7517" fill="#FFFFFF" rx="91.2115" ry="20.6423" style="stroke:#000000;stroke-width:0.5;"/><text fill="#000000" font-family="sans-serif" font-size="14" lengthAdjust="spacing" textLength="140.8818" x="240.2706" y="958.4802">Lihat Detail Pelanggan</text></g><g id="elem_UC46"><ellipse cx="310.4092" cy="1026.5912" fill="#FFFFFF" rx="70.4092" ry="16.4818" style="stroke:#000000;stroke-width:0.5;"/><text fill="#000000" font-family="sans-serif" font-size="14" lengthAdjust="spacing" textLength="88.7305" x="263.0439" y="1031.1078">Gunakan Poin</text></g><g id="elem_UC47"><ellipse cx="310.6688" cy="1096.6431" fill="#FFFFFF" rx="80.6688" ry="18.5338" style="stroke:#000000;stroke-width:0.5;"/><text fill="#000000" font-family="sans-serif" font-size="14" lengthAdjust="spacing" textLength="115.9512" x="251.9975" y="1100.5739">Lihat Riwayat Poin</text></g><g id="elem_UC48"><ellipse cx="310.5245" cy="1211.7143" fill="#FFFFFF" rx="88.5245" ry="20.1049" style="stroke:#000000;stroke-width:0.5;"/><text fill="#000000" font-family="sans-serif" font-size="14" lengthAdjust="spacing" textLength="134.6475" x="243.2007" y="1215.4428">Lihat Rencana Hitung</text></g><g id="elem_UC49"><ellipse cx="310.3573" cy="1286.5808" fill="#FFFFFF" rx="87.8573" ry="19.9715" style="stroke:#000000;stroke-width:0.5;"/><text fill="#000000" font-family="sans-serif" font-size="14" lengthAdjust="spacing" textLength="133.0889" x="243.8128" y="1290.3093">Buat Rencana Hitung</text></g><g id="elem_UC50"><ellipse cx="310.6765" cy="1359.6447" fill="#FFFFFF" rx="78.1765" ry="18.0353" style="stroke:#000000;stroke-width:0.5;"/><text fill="#000000" font-family="sans-serif" font-size="14" lengthAdjust="spacing" textLength="109.7168" x="253.9923" y="1363.878">Mulai Hitung Stok</text></g><g id="elem_UC51"><ellipse cx="310.3617" cy="1432.6817" fill="#FFFFFF" rx="85.8617" ry="19.5723" style="stroke:#000000;stroke-width:0.5;"/><text fill="#000000" font-family="sans-serif" font-size="14" lengthAdjust="spacing" textLength="128.3994" x="246.162" y="1436.4102">Lihat Riwayat Hitung</text></g><g id="elem_UC52"><ellipse cx="310.7241" cy="1850.6542" fill="#FFFFFF" rx="93.2241" ry="21.0448" style="stroke:#000000;stroke-width:0.5;"/><text fill="#000000" font-family="sans-serif" font-size="14" lengthAdjust="spacing" textLength="145.5098" x="237.9693" y="1854.3827">Lihat Ringkasan Umum</text></g><g id="elem_UC53"><ellipse cx="310.4239" cy="1547.5942" fill="#FFFFFF" rx="82.9239" ry="18.9848" style="stroke:#000000;stroke-width:0.5;"/><text fill="#000000" font-family="sans-serif" font-size="14" lengthAdjust="spacing" textLength="121.4131" x="249.7173" y="1551.3227">Lihat Laporan Kasir</text></g><g id="elem_UC54"><ellipse cx="310.5596" cy="1756.5213" fill="#FFFFFF" rx="92.5596" ry="20.9119" style="stroke:#000000;stroke-width:0.5;"/><text fill="#000000" font-family="sans-serif" font-size="14" lengthAdjust="spacing" textLength="143.9854" x="238.5669" y="1760.2498">Lihat Laporan Produksi</text></g><g id="elem_UC55"><ellipse cx="310.7234" cy="1662.4541" fill="#FFFFFF" rx="92.2234" ry="20.8447" style="stroke:#000000;stroke-width:0.5;"/><text fill="#000000" font-family="sans-serif" font-size="14" lengthAdjust="spacing" textLength="143.2129" x="239.117" y="1666.1826">Lihat Laporan Inventori</text></g><g id="elem_UC56"><ellipse cx="621.0319" cy="1807.6157" fill="#FFFFFF" rx="85.5319" ry="19.5064" style="stroke:#000000;stroke-width:0.5;"/><text fill="#000000" font-family="sans-serif" font-size="14" lengthAdjust="spacing" textLength="127.6201" x="557.2218" y="1811.3443">Export Laporan PDF</text></g><g id="elem_UC57"><ellipse cx="621.1848" cy="1691.6463" fill="#FFFFFF" rx="88.1848" ry="20.037" style="stroke:#000000;stroke-width:0.5;"/><text fill="#000000" font-family="sans-serif" font-size="14" lengthAdjust="spacing" textLength="133.8545" x="554.2575" y="1695.3748">Export Laporan Excel</text></g><g id="elem_UC58"><ellipse cx="310.7259" cy="2039.7546" fill="#FFFFFF" rx="71.2259" ry="16.6452" style="stroke:#000000;stroke-width:0.5;"/><text fill="#000000" font-family="sans-serif" font-size="14" lengthAdjust="spacing" textLength="91.041" x="262.2054" y="2044.2712">Lihat Notifikasi</text></g><g id="elem_UC59"><ellipse cx="310.6115" cy="2112.6317" fill="#FFFFFF" rx="95.6115" ry="21.5223" style="stroke:#000000;stroke-width:0.5;"/><text fill="#000000" font-family="sans-serif" font-size="14" lengthAdjust="spacing" textLength="150.958" x="235.1325" y="2116.3602">Tandai Notifikasi Dibaca</text></g><g id="elem_UC60"><ellipse cx="310.6877" cy="1967.6469" fill="#FFFFFF" rx="88.1877" ry="20.0375" style="stroke:#000000;stroke-width:0.5;"/><text fill="#000000" font-family="sans-serif" font-size="14" lengthAdjust="spacing" textLength="133.8613" x="243.757" y="1971.3754">Lihat Alur Persediaan</text></g><g id="elem_UC61"><ellipse cx="310.4457" cy="690.3985" fill="#FFFFFF" rx="81.9457" ry="18.7891" style="stroke:#000000;stroke-width:0.5;"/><text fill="#000000" font-family="sans-serif" font-size="14" lengthAdjust="spacing" textLength="119.0615" x="250.7564" y="694.1742">Kelola Profil Usaha</text></g><g id="elem_UC62"><ellipse cx="310.3386" cy="612.5771" fill="#FFFFFF" rx="105.3386" ry="23.4677" style="stroke:#000000;stroke-width:0.5;"/><text fill="#000000" font-family="sans-serif" font-size="14" lengthAdjust="spacing" textLength="172.7715" x="223.9529" y="616.3056">Kelola Metode Pembayaran</text></g><g id="elem_UC63"><ellipse cx="310.3758" cy="762.7845" fill="#FFFFFF" rx="76.3758" ry="17.6752" style="stroke:#000000;stroke-width:0.5;"/><text fill="#000000" font-family="sans-serif" font-size="14" lengthAdjust="spacing" textLength="105.0547" x="255.1275" y="767.2365">Ubah Profil Saya</text></g><!--entity admin--><g id="elem_admin"><ellipse cx="62" cy="400.6094" fill="#F1F1F1" rx="16" ry="16" style="stroke:#181818;stroke-width:0.5;"/><path d="M62,420.6094 C66,420.6094 69,420.6094 73,416.6094 C81,416.6094 89,424.6094 89,432.6094 L89,436.6094 C89,440.6094 85,444.6094 81,444.6094 L43,444.6094 C39,444.6094 35,440.6094 35,436.6094 L35,432.6094 C35,424.6094 43,416.6094 51,416.6094 C55,420.6094 58,420.6094 62,420.6094 " fill="#F1F1F1" style="stroke:#181818;stroke-width:0.5;"/><text fill="#000000" font-family="sans-serif" font-size="14" lengthAdjust="spacing" textLength="39.6826" x="42.1587" y="459.6426">Admin</text></g><!--entity cashier--><g id="elem_cashier"><ellipse cx="62" cy="1003.6094" fill="#F1F1F1" rx="16" ry="16" style="stroke:#181818;stroke-width:0.5;"/><path d="M62,1023.6094 C66,1023.6094 69,1023.6094 73,1019.6094 C81,1019.6094 89,1027.6094 89,1035.6094 L89,1039.6094 C89,1043.6094 85,1047.6094 81,1047.6094 L43,1047.6094 C39,1047.6094 35,1043.6094 35,1039.6094 L35,1035.6094 C35,1027.6094 43,1019.6094 51,1019.6094 C55,1023.6094 58,1023.6094 62,1023.6094 " fill="#F1F1F1" style="stroke:#181818;stroke-width:0.5;"/><text fill="#000000" font-family="sans-serif" font-size="14" lengthAdjust="spacing" textLength="31.8965" x="46.0518" y="1062.6426">Kasir</text></g><!--entity inventory--><g id="elem_inventory"><ellipse cx="62.0894" cy="1373.6094" fill="#F1F1F1" rx="16" ry="16" style="stroke:#181818;stroke-width:0.5;"/><path d="M62.0894,1393.6094 C66.0894,1393.6094 69.0894,1393.6094 73.0894,1389.6094 C81.0894,1389.6094 89.0894,1397.6094 89.0894,1405.6094 L89.0894,1409.6094 C89.0894,1413.6094 85.0894,1417.6094 81.0894,1417.6094 L43.0894,1417.6094 C39.0894,1417.6094 35.0894,1413.6094 35.0894,1409.6094 L35.0894,1405.6094 C35.0894,1397.6094 43.0894,1389.6094 51.0894,1389.6094 C55.0894,1393.6094 58.0894,1393.6094 62.0894,1393.6094 " fill="#F1F1F1" style="stroke:#181818;stroke-width:0.5;"/><text fill="#000000" font-family="sans-serif" font-size="14" lengthAdjust="spacing" textLength="101.1787" x="11.5" y="1432.6426">Bagian Inventori</text></g><!--entity alluser--><g id="elem_alluser"><ellipse cx="62.0444" cy="2051.6094" fill="#F1F1F1" rx="16" ry="16" style="stroke:#181818;stroke-width:0.5;"/><path d="M62.0444,2071.6094 C66.0444,2071.6094 69.0444,2071.6094 73.0444,2067.6094 C81.0444,2067.6094 89.0444,2075.6094 89.0444,2083.6094 L89.0444,2087.6094 C89.0444,2091.6094 85.0444,2095.6094 81.0444,2095.6094 L43.0444,2095.6094 C39.0444,2095.6094 35.0444,2091.6094 35.0444,2087.6094 L35.0444,2083.6094 C35.0444,2075.6094 43.0444,2067.6094 51.0444,2067.6094 C55.0444,2071.6094 58.0444,2071.6094 62.0444,2071.6094 " fill="#F1F1F1" style="stroke:#181818;stroke-width:0.5;"/><text fill="#000000" font-family="sans-serif" font-size="14" lengthAdjust="spacing" textLength="112.0889" x="6" y="2110.6426">Semua Pengguna</text></g><!--entity newuser--><g id="elem_newuser"><ellipse cx="62.1514" cy="118.6094" fill="#F1F1F1" rx="16" ry="16" style="stroke:#181818;stroke-width:0.5;"/><path d="M62.1514,138.6094 C66.1514,138.6094 69.1514,138.6094 73.1514,134.6094 C81.1514,134.6094 89.1514,142.6094 89.1514,150.6094 L89.1514,154.6094 C89.1514,158.6094 85.1514,162.6094 81.1514,162.6094 L43.1514,162.6094 C39.1514,162.6094 35.1514,158.6094 35.1514,154.6094 L35.1514,150.6094 C35.1514,142.6094 43.1514,134.6094 51.1514,134.6094 C55.1514,138.6094 58.1514,138.6094 62.1514,138.6094 " fill="#F1F1F1" style="stroke:#181818;stroke-width:0.5;"/><text fill="#000000" font-family="sans-serif" font-size="14" lengthAdjust="spacing" textLength="97.3027" x="13.5" y="177.6426">Pengguna Baru</text></g><!--link admin to UC38--><g id="link_admin_UC38"><path d="M89.51,433.7094 C108.22,440.6394 133.95,449.7794 157,456.6094 C187.17,465.5394 215.3149,472.5848 243.5349,479.1248 " fill="none" id="admin-to-UC38" style="stroke:#181818;stroke-width:1.0;"/><polygon fill="#181818" points="249.38,480.4794,241.5154,474.5507,244.5091,479.3505,239.7093,482.3442,249.38,480.4794" style="stroke:#181818;stroke-width:1.0;"/></g><!--link admin to UC39--><g id="link_admin_UC39"><path d="M89.86,412.9094 C108.51,405.7194 134.03,396.3694 157,389.6094 C188.27,380.3994 217.863,373.3857 246.723,367.2057 " fill="none" id="admin-to-UC39" style="stroke:#181818;stroke-width:1.0;"/><polygon fill="#181818" points="252.59,365.9494,242.9519,363.9226,247.7008,366.9963,244.6271,371.7452,252.59,365.9494" style="stroke:#181818;stroke-width:1.0;"/></g><!--link admin to UC40--><g id="link_admin_UC40"><path d="M89.49,384.0094 C106.32,361.8594 129.97,335.5794 157,319.6094 C181,305.4194 204.3433,297.9798 230.7733,292.7698 " fill="none" id="admin-to-UC40" style="stroke:#181818;stroke-width:1.0;"/><polygon fill="#181818" points="236.66,291.6094,227.0563,289.4255,231.7544,292.5764,228.6035,297.2745,236.66,291.6094" style="stroke:#181818;stroke-width:1.0;"/></g><!--link admin to UC41--><g id="link_admin_UC41"><path d="M73.61,384.0594 C86.54,343.5994 112.39,281.9394 157,247.6094 C178.45,231.0994 200.3668,223.1063 226.3568,218.1363 " fill="none" id="admin-to-UC41" style="stroke:#181818;stroke-width:1.0;"/><polygon fill="#181818" points="232.25,217.0094,222.6589,214.771,227.339,217.9485,224.1615,222.6286,232.25,217.0094" style="stroke:#181818;stroke-width:1.0;"/></g><!--link admin to UC42--><g id="link_admin_UC42"><path d="M89.85,423.6094 C126.28,423.6094 186.6,423.6094 236.87,423.6094 " fill="none" id="admin-to-UC42" style="stroke:#181818;stroke-width:1.0;"/><polygon fill="#181818" points="242.87,423.6094,233.87,419.6094,237.87,423.6094,233.87,427.6094,242.87,423.6094" style="stroke:#181818;stroke-width:1.0;"/></g><!--link admin to UC61--><g id="link_admin_UC61"><path d="M68.09,463.3294 C76.86,514.9694 99.77,604.3794 157,653.6094 C177.45,671.1994 199.0008,679.5615 224.9608,684.6215 " fill="none" id="admin-to-UC61" style="stroke:#181818;stroke-width:1.0;"/><polygon fill="#181818" points="230.85,685.7694,222.7815,680.1214,225.9424,684.8128,221.251,687.9737,230.85,685.7694" style="stroke:#181818;stroke-width:1.0;"/></g><!--link admin to UC62--><g id="link_admin_UC62"><path d="M89.61,458.9994 C107.16,480.7994 131.54,508.3494 157,528.6094 C189.29,554.2894 225.0921,573.8704 256.5321,588.9804 " fill="none" id="admin-to-UC62" style="stroke:#181818;stroke-width:1.0;"/><polygon fill="#181818" points="261.94,591.5794,255.5609,584.0756,257.4334,589.4135,252.0955,591.2861,261.94,591.5794" style="stroke:#181818;stroke-width:1.0;"/></g><!--link newuser to UC43--><g id="link_newuser_UC43"><path d="M110.53,141.6094 C147.6,141.6094 193.6,141.6094 235.14,141.6094 " fill="none" id="newuser-to-UC43" style="stroke:#181818;stroke-width:1.0;"/><polygon fill="#181818" points="241.14,141.6094,232.14,137.6094,236.14,141.6094,232.14,145.6094,241.14,141.6094" style="stroke:#181818;stroke-width:1.0;"/></g><!--link cashier to UC44--><g id="link_cashier_UC44"><path d="M87.61,987.0594 C104.38,963.2694 128.64,934.2694 157,916.6094 C179.04,902.8794 199.8761,895.3292 224.7161,889.5492 " fill="none" id="cashier-to-UC44" style="stroke:#181818;stroke-width:1.0;"/><polygon fill="#181818" points="230.56,888.1894,220.8876,886.3332,225.6901,889.3225,222.7007,894.125,230.56,888.1894" style="stroke:#181818;stroke-width:1.0;"/></g><!--link cashier to UC45--><g id="link_cashier_UC45"><path d="M89.9,1016.0394 C108.56,1008.9194 134.09,999.5794 157,992.6094 C185.71,983.8594 212.0756,977.0194 239.4556,970.4494 " fill="none" id="cashier-to-UC45" style="stroke:#181818;stroke-width:1.0;"/><polygon fill="#181818" points="245.29,969.0494,235.6051,967.2598,240.428,970.216,237.4718,975.039,245.29,969.0494" style="stroke:#181818;stroke-width:1.0;"/></g><!--link cashier to UC46--><g id="link_cashier_UC46"><path d="M89.85,1026.6094 C125.54,1026.6094 183.89,1026.6094 233.75,1026.6094 " fill="none" id="cashier-to-UC46" style="stroke:#181818;stroke-width:1.0;"/><polygon fill="#181818" points="239.75,1026.6094,230.75,1022.6094,234.75,1026.6094,230.75,1030.6094,239.75,1026.6094" style="stroke:#181818;stroke-width:1.0;"/></g><!--link cashier to UC47--><g id="link_cashier_UC47"><path d="M89.87,1037.2594 C108.53,1044.4194 134.05,1053.7694 157,1060.6094 C187.37,1069.6494 215.8235,1076.6152 244.2035,1082.9352 " fill="none" id="cashier-to-UC47" style="stroke:#181818;stroke-width:1.0;"/><polygon fill="#181818" points="250.06,1084.2394,242.1447,1078.3787,245.1796,1083.1525,240.4057,1086.1874,250.06,1084.2394" style="stroke:#181818;stroke-width:1.0;"/></g><!--link cashier to UC53--><g id="link_cashier_UC53"><path d="M69.43,1066.1794 C86.34,1168.5494 132.45,1436.3894 157,1468.6094 C181.58,1500.8594 217.4275,1519.127 250.9375,1531.057 " fill="none" id="cashier-to-UC53" style="stroke:#181818;stroke-width:1.0;"/><polygon fill="#181818" points="256.59,1533.0694,249.4529,1526.2825,251.8796,1531.3924,246.7697,1533.8192,256.59,1533.0694" style="stroke:#181818;stroke-width:1.0;"/></g><!--link inventory to UC48--><g id="link_inventory_UC48"><path d="M78.16,1356.8494 C93.13,1322.9794 119.26,1275.6294 157,1248.6094 C177.82,1233.6994 198.0466,1226.0223 222.7366,1220.6623 " fill="none" id="inventory-to-UC48" style="stroke:#181818;stroke-width:1.0;"/><polygon fill="#181818" points="228.6,1219.3894,218.9563,1217.3898,223.7138,1220.4501,220.6535,1225.2077,228.6,1219.3894" style="stroke:#181818;stroke-width:1.0;"/></g><!--link inventory to UC49--><g id="link_inventory_UC49"><path d="M106.32,1356.7994 C121.45,1344.6394 139.13,1332.2194 157,1323.6094 C181.91,1311.5994 205.1759,1304.5693 231.2659,1298.9193 " fill="none" id="inventory-to-UC49" style="stroke:#181818;stroke-width:1.0;"/><polygon fill="#181818" points="237.13,1297.6494,227.4873,1295.6449,232.2433,1298.7076,229.1805,1303.4636,237.13,1297.6494" style="stroke:#181818;stroke-width:1.0;"/></g><!--link inventory to UC50--><g id="link_inventory_UC50"><path d="M112.59,1389.1594 C150.55,1383.4694 197.2966,1376.4511 238.6166,1370.2411 " fill="none" id="inventory-to-UC50" style="stroke:#181818;stroke-width:1.0;"/><polygon fill="#181818" points="244.55,1369.3494,235.0555,1366.7314,239.6055,1370.0925,236.2444,1374.6425,244.55,1369.3494" style="stroke:#181818;stroke-width:1.0;"/></g><!--link inventory to UC51--><g id="link_inventory_UC51"><path d="M112.59,1403.8494 C148.44,1409.0794 191.4829,1415.3726 231.6229,1421.2326 " fill="none" id="inventory-to-UC51" style="stroke:#181818;stroke-width:1.0;"/><polygon fill="#181818" points="237.56,1422.0994,229.2322,1416.8412,232.6124,1421.3771,228.0766,1424.7573,237.56,1422.0994" style="stroke:#181818;stroke-width:1.0;"/></g><!--link inventory to UC55--><g id="link_inventory_UC55"><path d="M74.85,1436.4094 C88.81,1477.5694 115.5,1541.5994 157,1583.6094 C185.08,1612.0294 219.9812,1630.106 252.1712,1643.016 " fill="none" id="inventory-to-UC55" style="stroke:#181818;stroke-width:1.0;"/><polygon fill="#181818" points="257.74,1645.2494,250.8757,1638.1867,253.0993,1643.3882,247.8978,1645.6118,257.74,1645.2494" style="stroke:#181818;stroke-width:1.0;"/></g><!--link inventory to UC60--><g id="link_inventory_UC60"><path d="M66.16,1436.1294 C75.12,1539.6294 103.53,1815.5594 157,1887.6094 C180.7,1919.5394 215.2971,1937.8129 248.4971,1949.9929 " fill="none" id="inventory-to-UC60" style="stroke:#181818;stroke-width:1.0;"/><polygon fill="#181818" points="254.13,1952.0594,247.0583,1945.2043,249.4359,1950.3373,244.303,1952.7148,254.13,1952.0594" style="stroke:#181818;stroke-width:1.0;"/></g><!--link alluser to UC52--><g id="link_alluser_UC52"><path d="M82.05,2034.8994 C98.51,2003.7994 124.71,1961.0094 157,1931.6094 C187.59,1903.7494 223.9952,1884.7531 256.1452,1870.9731 " fill="none" id="alluser-to-UC52" style="stroke:#181818;stroke-width:1.0;"/><polygon fill="#181818" points="261.66,1868.6094,251.812,1868.4784,257.0643,1870.5791,254.9636,1875.8315,261.66,1868.6094" style="stroke:#181818;stroke-width:1.0;"/></g><!--link alluser to UC56--><g id="link_alluser_UC56"><path d="M75.12,2114.3794 C87.56,2147.5194 110.5,2192.5794 148,2213.6094 C285.62,2290.7594 376.93,2308.4794 503,2213.6094 C567.25,2165.2494 606.4603,1907.8645 616.6203,1833.2645 " fill="none" id="alluser-to-UC56" style="stroke:#181818;stroke-width:1.0;"/><polygon fill="#181818" points="617.43,1827.3194,612.2521,1835.6973,616.7553,1832.2736,620.1789,1836.7768,617.43,1827.3194" style="stroke:#181818;stroke-width:1.0;"/></g><!--link alluser to UC57--><g id="link_alluser_UC57"><path d="M99.95,2114.2594 C115.94,2128.6094 135.83,2143.1194 157,2150.6094 C275.58,2192.5494 341.05,2228.2594 440,2150.6094 C508.39,2096.9294 488.54,1845.3194 533,1770.6094 C547.5,1746.2394 567.0785,1728.6105 586.3585,1714.3305 " fill="none" id="alluser-to-UC57" style="stroke:#181818;stroke-width:1.0;"/><polygon fill="#181818" points="591.18,1710.7594,581.567,1712.9017,587.1621,1713.7353,586.3285,1719.3304,591.18,1710.7594" style="stroke:#181818;stroke-width:1.0;"/></g><!--link alluser to UC58--><g id="link_alluser_UC58"><path d="M118.01,2066.7894 C157.03,2061.2494 203.4395,2054.6623 243.5395,2048.9723 " fill="none" id="alluser-to-UC58" style="stroke:#181818;stroke-width:1.0;"/><polygon fill="#181818" points="249.48,2048.1294,240.0073,2045.4334,244.5296,2048.8318,241.1312,2053.3541,249.48,2048.1294" style="stroke:#181818;stroke-width:1.0;"/></g><!--link alluser to UC59--><g id="link_alluser_UC59"><path d="M118.01,2083.0894 C151.36,2088.2294 188.5,2093.9553 225.35,2099.6353 " fill="none" id="alluser-to-UC59" style="stroke:#181818;stroke-width:1.0;"/><polygon fill="#181818" points="231.28,2100.5494,222.9944,2095.225,226.3384,2099.7877,221.7757,2103.1316,231.28,2100.5494" style="stroke:#181818;stroke-width:1.0;"/></g><!--link alluser to UC63--><g id="link_alluser_UC63"><path d="M66.85,2035.0394 C76.33,1936.7394 101.27,1673.4994 118,1453.6094 C123.18,1385.5494 119.55,897.6594 157,840.6094 C179.52,806.2994 216.3606,788.154 250.8106,777.024 " fill="none" id="alluser-to-UC63" style="stroke:#181818;stroke-width:1.0;"/><polygon fill="#181818" points="256.52,775.1794,246.7261,774.14,251.7621,776.7165,249.1856,781.7525,256.52,775.1794" style="stroke:#181818;stroke-width:1.0;"/></g><!--link UC53 to UC56--><g id="link_UC53_UC56"><path d="M349.9,1564.3794 C399.23,1586.5694 481.1,1625.7494 503,1650.6094 C527.55,1678.4694 512.02,1697.9594 533,1728.6094 C549.48,1752.6794 569.9353,1770.8627 588.9853,1785.4427 " fill="none" id="UC53-to-UC56" style="stroke:#181818;stroke-width:1.0;stroke-dasharray:7.0,7.0;"/><polygon fill="#181818" points="593.75,1789.0894,589.0341,1780.443,589.7795,1786.0505,584.1719,1786.7958,593.75,1789.0894" style="stroke:#181818;stroke-width:1.0;"/><text fill="#000000" font-family="sans-serif" font-size="13" lengthAdjust="spacing" textLength="53.4917" x="449" y="1612.1045">&#171;extend&#187;</text></g><!--link UC53 to UC57--><g id="link_UC53_UC57"><path d="M389.63,1553.4894 C425.63,1558.5594 468.03,1568.0194 503,1585.6094 C545.12,1606.7894 579.5706,1642.7823 600.2006,1667.1223 " fill="none" id="UC53-to-UC57" style="stroke:#181818;stroke-width:1.0;stroke-dasharray:7.0,7.0;"/><polygon fill="#181818" points="604.08,1671.6994,601.3122,1662.2474,600.8471,1667.8851,595.2094,1667.42,604.08,1671.6994" style="stroke:#181818;stroke-width:1.0;"/><text fill="#000000" font-family="sans-serif" font-size="13" lengthAdjust="spacing" textLength="53.4917" x="449" y="1562.1045">&#171;extend&#187;</text></g><!--link UC54 to UC56--><g id="link_UC54_UC56"><path d="M375.63,1771.5994 C398.74,1779.9194 423.23,1792.5794 440,1811.6094 C448.56,1821.3194 437.67,1831.8094 448,1839.6094 C489.71,1871.0694 547.728,1848.6556 584.788,1828.6856 " fill="none" id="UC54-to-UC56" style="stroke:#181818;stroke-width:1.0;stroke-dasharray:7.0,7.0;"/><polygon fill="#181818" points="590.07,1825.8394,580.2496,1826.5874,585.6684,1828.2112,584.0445,1833.63,590.07,1825.8394" style="stroke:#181818;stroke-width:1.0;"/><text fill="#000000" font-family="sans-serif" font-size="13" lengthAdjust="spacing" textLength="53.4917" x="449" y="1836.1045">&#171;extend&#187;</text></g><!--link UC54 to UC57--><g id="link_UC54_UC57"><path d="M378.82,1742.4194 C431.48,1731.3294 498.3291,1717.2473 550.1191,1706.3273 " fill="none" id="UC54-to-UC57" style="stroke:#181818;stroke-width:1.0;stroke-dasharray:7.0,7.0;"/><polygon fill="#181818" points="555.99,1705.0894,546.3584,1703.0323,551.0976,1706.121,548.0089,1710.8602,555.99,1705.0894" style="stroke:#181818;stroke-width:1.0;"/><text fill="#000000" font-family="sans-serif" font-size="13" lengthAdjust="spacing" textLength="53.4917" x="449" y="1713.1045">&#171;extend&#187;</text></g><!--link UC55 to UC56--><g id="link_UC55_UC56"><path d="M376.5,1677.2594 C399.59,1685.5194 423.83,1698.2294 440,1717.6094 C450.23,1729.8594 437.21,1740.8494 448,1752.6094 C472.18,1778.9294 503.0653,1791.4425 536.3953,1798.6425 " fill="none" id="UC55-to-UC56" style="stroke:#181818;stroke-width:1.0;stroke-dasharray:7.0,7.0;"/><polygon fill="#181818" points="542.26,1799.9094,534.3075,1794.0992,537.3727,1798.8536,532.6183,1801.9188,542.26,1799.9094" style="stroke:#181818;stroke-width:1.0;"/><text fill="#000000" font-family="sans-serif" font-size="13" lengthAdjust="spacing" textLength="53.4917" x="449" y="1749.1045">&#171;extend&#187;</text></g><!--link UC55 to UC57--><g id="link_UC55_UC57"><path d="M395.8,1670.5294 C440.58,1674.7394 489.3563,1679.3284 533.5463,1683.4784 " fill="none" id="UC55-to-UC57" style="stroke:#181818;stroke-width:1.0;stroke-dasharray:7.0,7.0;"/><polygon fill="#181818" points="539.52,1684.0394,530.9334,1679.2154,534.5419,1683.5719,530.1854,1687.1803,539.52,1684.0394" style="stroke:#181818;stroke-width:1.0;"/><text fill="#000000" font-family="sans-serif" font-size="13" lengthAdjust="spacing" textLength="53.4917" x="449" y="1673.1045">&#171;extend&#187;</text></g><!--SRC=[ZPPVJzim4C3Vyoai7iOJ2DecK8IGe8LjOh2gNRNd8p6f5yUkR8TIJNptdPsuDFzWF02- -ztvVBuxHsTCh451JY0sKYtCbbC26wfbJWEzKwuXpY2bfLhHs818-JvGQ1g3fkHlGF3d1l5KoK8a4ycb8hzNpD1I8rL2LIczuOW5Rq5Wc46tIpIVM1zJ1gdrUKI-YrZHd0f31XVahX2fPb80PmOqcL6H51dAWe3JPqEC98gbAqCIPWD4C0WEoRKzbGxSuSZ1TP8pSK3G6kn_NdmFcYadnZEi65LUSGCf0u5Xl60CKZ77i6grzTI2vWNOUDAq452wvnmpilFZTPWOLJX0q8q3CCJ5LXkQaoURBa2lk_IYP-PKCzX8CPpM4t9GvThzEhJPK-G11DwIqy_A6tFQwlRsulY2uIeGteVzyJTuy8Ejm90fF1jGY6LK_IaFjPmCpzluByYVODK4nsrmQR4f66YmevCEfpAr2LWOC8KcrvbXpvu-RTFtb4iE_aWbDcXZriqBNZNwAtRSq75l-wcS5DfW-Qk-77AydHJB0fCesN_biBBmUuvw3QW1nji6OTlWArvZXa6K8PHOrETtpZQmnR_xy5dxu0iZuupyN0l8QVVXzuaF3Zwd8iPI9D-OmGRrEtOKpqtHItTKq4F1WLMO3JQhsF3aiuFNN8UdxQDFiV6V9AW4RtLErr8PXdjqvc0V_G68VjX7S_IJWSQRMkP5xYCOzE6LG_8-af0UVaRFbCHPg9at67rcK9zeQD5HORUlDWtlUqplF1nz2j- -nfHxlAFI7YLsD8l1ZkdkB9T4PjiLqopJ3rByZleTEySKJbUsn-8pymIn7qBXkC_xDIzi2ojD4mQxbenEEjg76birkd_suZJhgnO_mvHynWcmrB3oeKNz4- -16fbWgr8SmLjudtxHe6VyLkuNI7lK3y0tzrpQPv74KeZo2SMNqqcEZgxAyLzRZcjBdEErvMbzEQWjexeM0yRT7-d6ngjg0LGlfNSpjE2aVAPhNFLqUsxK58HDGTGKd3K4eTlBjygsjjlk8y0RdxT5uvO81rLBTDeMXIqHbfkz7SxR-Qa-DRpje2c8ceApfk2yAHWt195BnEshmKyk_FhZhcqnKsiTs2oHu-Do9t91BY-fmwwkQggpbchKRpNgjmhxhS8Ugty0]--></g></svg>