<svg xmlns="http://www.w3.org/2000/svg" xmlns:xlink="http://www.w3.org/1999/xlink" contentStyleType="text/css" height="3082px" preserveAspectRatio="none" style="width:735px;height:3082px;background:#FFFFFF;" version="1.1" viewBox="0 0 735 3082" width="735px" zoomAndPan="magnify"><title>Use Case Diagram - Increment 1: Fungsionalitas Inti Operasional</title><defs/><g><text fill="#000000" font-family="sans-serif" font-size="14" font-weight="bold" lengthAdjust="spacing" textLength="431.0059" x="144.9971" y="24.5332">Use Case Diagram - Increment 1: Fungsionalitas Inti Operasional</text><!--cluster Sistem Pawon3D - Increment 1--><g id="cluster_Sistem Pawon3D - Increment 1"><rect fill="none" height="2907" rx="2.5" ry="2.5" style="stroke:#181818;stroke-width:1.0;" width="574" x="155" y="112.0494"/><text fill="#000000" font-family="sans-serif" font-size="14" font-weight="bold" lengthAdjust="spacing" textLength="203.8408" x="340.0796" y="128.5826">Sistem Pawon3D - Increment 1</text></g><!--cluster Landing Page--><g id="cluster_Landing Page"><rect fill="none" height="306" rx="2.5" ry="2.5" style="stroke:#181818;stroke-width:1.0;" width="210" x="193.5" y="156.0494"/><text fill="#000000" font-family="sans-serif" font-size="14" font-weight="bold" lengthAdjust="spacing" textLength="91.7861" x="252.6069" y="172.5826">Landing Page</text></g><!--cluster Kategori & Satuan--><g id="cluster_Kategori &amp; Satuan"><rect fill="none" height="308" rx="2.5" ry="2.5" style="stroke:#181818;stroke-width:1.0;" width="213" x="192" y="2352.0494"/><text fill="#000000" font-family="sans-serif" font-size="14" font-weight="bold" lengthAdjust="spacing" textLength="121.3516" x="237.8242" y="2368.5826">Kategori &amp; Satuan</text></g><!--cluster Supplier--><g id="cluster_Supplier"><rect fill="none" height="311" rx="2.5" ry="2.5" style="stroke:#181818;stroke-width:1.0;" width="203" x="197" y="2684.0494"/><text fill="#000000" font-family="sans-serif" font-size="14" font-weight="bold" lengthAdjust="spacing" textLength="56.0068" x="270.4966" y="2700.5826">Supplier</text></g><!--cluster Bahan Baku--><g id="cluster_Bahan Baku"><rect fill="none" height="327" rx="2.5" ry="2.5" style="stroke:#181818;stroke-width:1.0;" width="225" x="186" y="1331.0494"/><text fill="#000000" font-family="sans-serif" font-size="14" font-weight="bold" lengthAdjust="spacing" textLength="80.9102" x="258.0449" y="1347.5826">Bahan Baku</text></g><!--cluster Belanja--><g id="cluster_Belanja"><rect fill="none" height="312" rx="2.5" ry="2.5" style="stroke:#181818;stroke-width:1.0;" width="513.5" x="191.5" y="1682.0494"/><text fill="#000000" font-family="sans-serif" font-size="14" font-weight="bold" lengthAdjust="spacing" textLength="49.7998" x="423.3501" y="1698.5826">Belanja</text></g><!--cluster Produk--><g id="cluster_Produk"><rect fill="none" height="310" rx="2.5" ry="2.5" style="stroke:#181818;stroke-width:1.0;" width="216" x="190.5" y="2018.0494"/><text fill="#000000" font-family="sans-serif" font-size="14" font-weight="bold" lengthAdjust="spacing" textLength="48.2275" x="274.3862" y="2034.5826">Produk</text></g><!--cluster Produksi--><g id="cluster_Produksi"><rect fill="none" height="331" rx="2.5" ry="2.5" style="stroke:#181818;stroke-width:1.0;" width="526" x="179" y="976.0494"/><text fill="#000000" font-family="sans-serif" font-size="14" font-weight="bold" lengthAdjust="spacing" textLength="59.9033" x="412.0483" y="992.5826">Produksi</text></g><!--cluster Transaksi/Kasir--><g id="cluster_Transaksi/Kasir"><rect fill="none" height="466" rx="2.5" ry="2.5" style="stroke:#181818;stroke-width:1.0;" width="519" x="186" y="486.0494"/><text fill="#000000" font-family="sans-serif" font-size="14" font-weight="bold" lengthAdjust="spacing" textLength="104.2822" x="393.3589" y="502.5826">Transaksi/Kasir</text></g><g id="elem_UC34"><ellipse cx="298.347" cy="279.2188" fill="#FFFFFF" rx="88.847" ry="20.1694" style="stroke:#000000;stroke-width:0.5;"/><text fill="#000000" font-family="sans-serif" font-size="14" lengthAdjust="spacing" textLength="135.3994" x="230.6473" y="282.9473">Lihat Halaman Utama</text></g><g id="elem_UC35"><ellipse cx="298.5317" cy="354.2557" fill="#FFFFFF" rx="86.5317" ry="19.7063" style="stroke:#000000;stroke-width:0.5;"/><text fill="#000000" font-family="sans-serif" font-size="14" lengthAdjust="spacing" textLength="129.9785" x="233.5424" y="357.9842">Lihat Katalog Produk</text></g><g id="elem_UC36"><ellipse cx="298.6266" cy="427.2747" fill="#FFFFFF" rx="81.6266" ry="18.7253" style="stroke:#000000;stroke-width:0.5;"/><text fill="#000000" font-family="sans-serif" font-size="14" lengthAdjust="spacing" textLength="118.2891" x="239.1917" y="431.0892">Lihat Detail Produk</text></g><g id="elem_UC37"><ellipse cx="298.4946" cy="208.1049" fill="#FFFFFF" rx="56.4946" ry="15.5555" style="stroke:#000000;stroke-width:0.5;"/><text fill="#000000" font-family="sans-serif" font-size="14" lengthAdjust="spacing" textLength="63.0273" x="263.9809" y="212.6215">Lihat FAQ</text></g><g id="elem_UC01"><ellipse cx="298.6299" cy="2404.9753" fill="#FFFFFF" rx="72.6299" ry="16.926" style="stroke:#000000;stroke-width:0.5;"/><text fill="#000000" font-family="sans-serif" font-size="14" lengthAdjust="spacing" textLength="94.9512" x="248.1543" y="2409.4919">Kelola Kategori</text></g><g id="elem_UC02"><ellipse cx="298.5961" cy="2475.9686" fill="#FFFFFF" rx="82.5961" ry="18.9192" style="stroke:#000000;stroke-width:0.5;"/><text fill="#000000" font-family="sans-serif" font-size="14" lengthAdjust="spacing" textLength="120.627" x="238.2826" y="2479.6971">Kelola Satuan Ukur</text></g><g id="elem_UC03"><ellipse cx="298.5399" cy="2548.9574" fill="#FFFFFF" rx="80.0399" ry="18.408" style="stroke:#000000;stroke-width:0.5;"/><text fill="#000000" font-family="sans-serif" font-size="14" lengthAdjust="spacing" textLength="114.3994" x="240.37" y="2552.9644">Kelola Jenis Biaya</text></g><g id="elem_UC04"><ellipse cx="298.5371" cy="2623.0568" fill="#FFFFFF" rx="90.5371" ry="20.5074" style="stroke:#000000;stroke-width:0.5;"/><text fill="#000000" font-family="sans-serif" font-size="14" lengthAdjust="spacing" textLength="139.3232" x="228.8755" y="2626.7853">Kelola Kategori Bahan</text></g><g id="elem_UC05"><ellipse cx="298.5347" cy="2740.0563" fill="#FFFFFF" rx="85.5347" ry="19.5069" style="stroke:#000000;stroke-width:0.5;"/><text fill="#000000" font-family="sans-serif" font-size="14" lengthAdjust="spacing" textLength="127.627" x="234.7213" y="2743.7848">Lihat Daftar Supplier</text></g><g id="elem_UC06"><ellipse cx="298.4715" cy="2812.8437" fill="#FFFFFF" rx="76.9715" ry="17.7943" style="stroke:#000000;stroke-width:0.5;"/><text fill="#000000" font-family="sans-serif" font-size="14" lengthAdjust="spacing" textLength="106.6133" x="242.7482" y="2817.2233">Tambah Supplier</text></g><g id="elem_UC07"><ellipse cx="298.7465" cy="2885.0987" fill="#FFFFFF" rx="83.2465" ry="19.0493" style="stroke:#000000;stroke-width:0.5;"/><text fill="#000000" font-family="sans-serif" font-size="14" lengthAdjust="spacing" textLength="122.1855" x="237.6537" y="2888.8272">Ubah Data Supplier</text></g><g id="elem_UC08"><ellipse cx="298.5484" cy="2958.859" fill="#FFFFFF" rx="84.5484" ry="19.3097" style="stroke:#000000;stroke-width:0.5;"/><text fill="#000000" font-family="sans-serif" font-size="14" lengthAdjust="spacing" textLength="125.2891" x="235.9038" y="2962.5876">Cetak Data Supplier</text></g><g id="elem_UC09"><ellipse cx="298.3099" cy="1389.2114" fill="#FFFFFF" rx="96.3099" ry="21.662" style="stroke:#000000;stroke-width:0.5;"/><text fill="#000000" font-family="sans-serif" font-size="14" lengthAdjust="spacing" textLength="152.5439" x="222.0379" y="1392.9399">Lihat Daftar Bahan Baku</text></g><g id="elem_UC10"><ellipse cx="298.692" cy="1465.8878" fill="#FFFFFF" rx="87.192" ry="19.8384" style="stroke:#000000;stroke-width:0.5;"/><text fill="#000000" font-family="sans-serif" font-size="14" lengthAdjust="spacing" textLength="131.5303" x="232.9269" y="1469.6163">Tambah Bahan Baku</text></g><g id="elem_UC11"><ellipse cx="298.4201" cy="1542.2334" fill="#FFFFFF" rx="93.9201" ry="21.184" style="stroke:#000000;stroke-width:0.5;"/><text fill="#000000" font-family="sans-serif" font-size="14" lengthAdjust="spacing" textLength="147.1025" x="224.8688" y="1545.9619">Ubah Data Bahan Baku</text></g><g id="elem_UC12"><ellipse cx="298.2809" cy="1620.0056" fill="#FFFFFF" rx="95.2809" ry="21.4562" style="stroke:#000000;stroke-width:0.5;"/><text fill="#000000" font-family="sans-serif" font-size="14" lengthAdjust="spacing" textLength="150.2061" x="223.1779" y="1623.7341">Cetak Data Bahan Baku</text></g><g id="elem_UC13"><ellipse cx="298.7115" cy="1881.1917" fill="#FFFFFF" rx="91.2115" ry="20.6423" style="stroke:#000000;stroke-width:0.5;"/><text fill="#000000" font-family="sans-serif" font-size="14" lengthAdjust="spacing" textLength="140.8818" x="228.2706" y="1884.9202">Lihat Rencana Belanja</text></g><g id="elem_UC14"><ellipse cx="298.5371" cy="1957.0568" fill="#FFFFFF" rx="90.5371" ry="20.5074" style="stroke:#000000;stroke-width:0.5;"/><text fill="#000000" font-family="sans-serif" font-size="14" lengthAdjust="spacing" textLength="139.3232" x="228.8755" y="1960.7853">Buat Rencana Belanja</text></g><g id="elem_UC15"><ellipse cx="298.2852" cy="1734.2064" fill="#FFFFFF" rx="68.7852" ry="16.157" style="stroke:#000000;stroke-width:0.5;"/><text fill="#000000" font-family="sans-serif" font-size="14" lengthAdjust="spacing" textLength="84.0479" x="253.2612" y="1738.723">Mulai Belanja</text></g><g id="elem_UC16"><ellipse cx="298.5186" cy="1805.1531" fill="#FFFFFF" rx="88.5186" ry="20.1037" style="stroke:#000000;stroke-width:0.5;"/><text fill="#000000" font-family="sans-serif" font-size="14" lengthAdjust="spacing" textLength="134.6338" x="231.2017" y="1808.8816">Lihat Riwayat Belanja</text></g><g id="elem_UC17"><ellipse cx="604.2054" cy="1898.9905" fill="#FFFFFF" rx="85.2054" ry="19.4411" style="stroke:#000000;stroke-width:0.5;"/><text fill="#000000" font-family="sans-serif" font-size="14" lengthAdjust="spacing" textLength="126.8477" x="540.7816" y="1902.719">Cetak Detail Belanja</text></g><g id="elem_UC18"><ellipse cx="298.5933" cy="2072.968" fill="#FFFFFF" rx="82.5933" ry="18.9187" style="stroke:#000000;stroke-width:0.5;"/><text fill="#000000" font-family="sans-serif" font-size="14" lengthAdjust="spacing" textLength="120.6201" x="238.2832" y="2076.6965">Lihat Daftar Produk</text></g><g id="elem_UC19"><ellipse cx="298.3352" cy="2144.8164" fill="#FFFFFF" rx="74.3352" ry="17.267" style="stroke:#000000;stroke-width:0.5;"/><text fill="#000000" font-family="sans-serif" font-size="14" lengthAdjust="spacing" textLength="99.6064" x="245.532" y="2149.333">Tambah Produk</text></g><g id="elem_UC20"><ellipse cx="298.3551" cy="2216.0204" fill="#FFFFFF" rx="80.3551" ry="18.471" style="stroke:#000000;stroke-width:0.5;"/><text fill="#000000" font-family="sans-serif" font-size="14" lengthAdjust="spacing" textLength="115.1787" x="239.9339" y="2219.9892">Ubah Data Produk</text></g><g id="elem_UC21"><ellipse cx="298.3669" cy="2290.8228" fill="#FFFFFF" rx="91.8669" ry="20.7734" style="stroke:#000000;stroke-width:0.5;"/><text fill="#000000" font-family="sans-serif" font-size="14" lengthAdjust="spacing" textLength="142.3926" x="227.1706" y="2294.5513">Atur Komposisi Produk</text></g><g id="elem_UC22"><ellipse cx="298.5199" cy="1032.8534" fill="#FFFFFF" rx="89.5199" ry="20.304" style="stroke:#000000;stroke-width:0.5;"/><text fill="#000000" font-family="sans-serif" font-size="14" lengthAdjust="spacing" textLength="136.9648" x="230.0375" y="1036.5819">Lihat Antrian Produksi</text></g><g id="elem_UC23"><ellipse cx="298.6175" cy="1192.0729" fill="#FFFFFF" rx="95.6175" ry="21.5235" style="stroke:#000000;stroke-width:0.5;"/><text fill="#000000" font-family="sans-serif" font-size="14" lengthAdjust="spacing" textLength="150.9717" x="223.1317" y="1195.8014">Mulai Produksi Pesanan</text></g><g id="elem_UC24"><ellipse cx="298.5772" cy="1112.1648" fill="#FFFFFF" rx="103.5772" ry="23.1154" style="stroke:#000000;stroke-width:0.5;"/><text fill="#000000" font-family="sans-serif" font-size="14" lengthAdjust="spacing" textLength="168.8613" x="214.1465" y="1115.8933">Tambah Produksi Siap Beli</text></g><g id="elem_UC25"><ellipse cx="604.2054" cy="1111.9905" fill="#FFFFFF" rx="85.2054" ry="19.4411" style="stroke:#000000;stroke-width:0.5;"/><text fill="#000000" font-family="sans-serif" font-size="14" lengthAdjust="spacing" textLength="126.8477" x="540.7816" y="1115.719">Selesaikan Produksi</text></g><g id="elem_UC26"><ellipse cx="298.3699" cy="1269.8234" fill="#FFFFFF" rx="91.8699" ry="20.774" style="stroke:#000000;stroke-width:0.5;"/><text fill="#000000" font-family="sans-serif" font-size="14" lengthAdjust="spacing" textLength="142.3994" x="227.1702" y="1273.5519">Lihat Riwayat Produksi</text></g><g id="elem_UC27"><ellipse cx="298.5111" cy="620.8516" fill="#FFFFFF" rx="89.5111" ry="20.3022" style="stroke:#000000;stroke-width:0.5;"/><text fill="#000000" font-family="sans-serif" font-size="14" lengthAdjust="spacing" textLength="136.9443" x="230.0389" y="624.5801">Lihat Daftar Transaksi</text></g><g id="elem_UC28"><ellipse cx="298.5434" cy="696.0581" fill="#FFFFFF" rx="85.5434" ry="19.5087" style="stroke:#000000;stroke-width:0.5;"/><text fill="#000000" font-family="sans-serif" font-size="14" lengthAdjust="spacing" textLength="127.6475" x="234.7197" y="699.7866">Buat Pesanan Kotak</text></g><g id="elem_UC29"><ellipse cx="298.7086" cy="771.1911" fill="#FFFFFF" rx="91.2086" ry="20.6417" style="stroke:#000000;stroke-width:0.5;"/><text fill="#000000" font-family="sans-serif" font-size="14" lengthAdjust="spacing" textLength="140.875" x="228.2711" y="774.9196">Buat Pesanan Reguler</text></g><g id="elem_UC30"><ellipse cx="298.2979" cy="848.2089" fill="#FFFFFF" rx="96.2979" ry="21.6596" style="stroke:#000000;stroke-width:0.5;"/><text fill="#000000" font-family="sans-serif" font-size="14" lengthAdjust="spacing" textLength="152.5166" x="222.0396" y="851.9375">Buat Transaksi Siap Beli</text></g><g id="elem_UC31"><ellipse cx="604.2025" cy="733.9899" fill="#FFFFFF" rx="85.2025" ry="19.4405" style="stroke:#000000;stroke-width:0.5;"/><text fill="#000000" font-family="sans-serif" font-size="14" lengthAdjust="spacing" textLength="126.8408" x="540.7821" y="737.7184">Proses Pembayaran</text></g><g id="elem_UC32"><ellipse cx="298.4648" cy="920.159" fill="#FFFFFF" rx="63.9648" ry="15.6096" style="stroke:#000000;stroke-width:0.5;"/><text fill="#000000" font-family="sans-serif" font-size="14" lengthAdjust="spacing" textLength="73.1377" x="258.896" y="924.6756">Cetak Struk</text></g><g id="elem_UC33"><ellipse cx="298.5818" cy="543.8657" fill="#FFFFFF" rx="94.5818" ry="21.3164" style="stroke:#000000;stroke-width:0.5;"/><text fill="#000000" font-family="sans-serif" font-size="14" lengthAdjust="spacing" textLength="148.6133" x="224.2751" y="547.5942">Lihat Riwayat Transaksi</text></g><!--entity visitor--><g id="elem_visitor"><ellipse cx="56.8687" cy="294.0494" fill="#F1F1F1" rx="16" ry="16" style="stroke:#181818;stroke-width:0.5;"/><path d="M56.8687,314.0494 C60.8687,314.0494 63.8687,314.0494 67.8687,310.0494 C75.8687,310.0494 83.8687,318.0494 83.8687,326.0494 L83.8687,330.0494 C83.8687,334.0494 79.8687,338.0494 75.8687,338.0494 L37.8687,338.0494 C33.8687,338.0494 29.8687,334.0494 29.8687,330.0494 L29.8687,326.0494 C29.8687,318.0494 37.8687,310.0494 45.8687,310.0494 C49.8687,314.0494 52.8687,314.0494 56.8687,314.0494 " fill="#F1F1F1" style="stroke:#181818;stroke-width:0.5;"/><text fill="#000000" font-family="sans-serif" font-size="14" lengthAdjust="spacing" textLength="74.7373" x="19.5" y="353.0826">Pengunjung</text></g><!--entity cashier--><g id="elem_cashier"><ellipse cx="57" cy="673.0494" fill="#F1F1F1" rx="16" ry="16" style="stroke:#181818;stroke-width:0.5;"/><path d="M57,693.0494 C61,693.0494 64,693.0494 68,689.0494 C76,689.0494 84,697.0494 84,705.0494 L84,709.0494 C84,713.0494 80,717.0494 76,717.0494 L38,717.0494 C34,717.0494 30,713.0494 30,709.0494 L30,705.0494 C30,697.0494 38,689.0494 46,689.0494 C50,693.0494 53,693.0494 57,693.0494 " fill="#F1F1F1" style="stroke:#181818;stroke-width:0.5;"/><text fill="#000000" font-family="sans-serif" font-size="14" lengthAdjust="spacing" textLength="31.8965" x="41.0518" y="732.0826">Kasir</text></g><!--entity production--><g id="elem_production"><ellipse cx="56.9756" cy="1089.0494" fill="#F1F1F1" rx="16" ry="16" style="stroke:#181818;stroke-width:0.5;"/><path d="M56.9756,1109.0494 C60.9756,1109.0494 63.9756,1109.0494 67.9756,1105.0494 C75.9756,1105.0494 83.9756,1113.0494 83.9756,1121.0494 L83.9756,1125.0494 C83.9756,1129.0494 79.9756,1133.0494 75.9756,1133.0494 L37.9756,1133.0494 C33.9756,1133.0494 29.9756,1129.0494 29.9756,1125.0494 L29.9756,1121.0494 C29.9756,1113.0494 37.9756,1105.0494 45.9756,1105.0494 C49.9756,1109.0494 52.9756,1109.0494 56.9756,1109.0494 " fill="#F1F1F1" style="stroke:#181818;stroke-width:0.5;"/><text fill="#000000" font-family="sans-serif" font-size="14" lengthAdjust="spacing" textLength="101.9512" x="6" y="1148.0826">Bagian Produksi</text></g><!--entity inventory--><g id="elem_inventory"><ellipse cx="57.0894" cy="2193.0494" fill="#F1F1F1" rx="16" ry="16" style="stroke:#181818;stroke-width:0.5;"/><path d="M57.0894,2213.0494 C61.0894,2213.0494 64.0894,2213.0494 68.0894,2209.0494 C76.0894,2209.0494 84.0894,2217.0494 84.0894,2225.0494 L84.0894,2229.0494 C84.0894,2233.0494 80.0894,2237.0494 76.0894,2237.0494 L38.0894,2237.0494 C34.0894,2237.0494 30.0894,2233.0494 30.0894,2229.0494 L30.0894,2225.0494 C30.0894,2217.0494 38.0894,2209.0494 46.0894,2209.0494 C50.0894,2213.0494 53.0894,2213.0494 57.0894,2213.0494 " fill="#F1F1F1" style="stroke:#181818;stroke-width:0.5;"/><text fill="#000000" font-family="sans-serif" font-size="14" lengthAdjust="spacing" textLength="101.1787" x="6.5" y="2252.0826">Bagian Inventori</text></g><!--link visitor to UC34--><g id="link_visitor_UC34"><path d="M94.64,311.2294 C129.23,305.7494 176.1542,298.3 219.2442,291.46 " fill="none" id="visitor-to-UC34" style="stroke:#181818;stroke-width:1.0;"/><polygon fill="#181818" points="225.17,290.5194,215.6542,287.9798,220.2318,291.3032,216.9084,295.8809,225.17,290.5194" style="stroke:#181818;stroke-width:1.0;"/></g><!--link visitor to UC35--><g id="link_visitor_UC35"><path d="M94.64,322.7094 C129.62,328.1094 177.3604,335.4829 220.7104,342.1829 " fill="none" id="visitor-to-UC35" style="stroke:#181818;stroke-width:1.0;"/><polygon fill="#181818" points="226.64,343.0994,218.3566,337.7716,221.6987,342.3357,217.1346,345.6778,226.64,343.0994" style="stroke:#181818;stroke-width:1.0;"/></g><!--link visitor to UC36--><g id="link_visitor_UC36"><path d="M94.67,354.0494 C109.77,367.4494 128.13,381.5994 147,391.0494 C172.22,403.6794 196.1927,410.7923 222.6327,416.2223 " fill="none" id="visitor-to-UC36" style="stroke:#181818;stroke-width:1.0;"/><polygon fill="#181818" points="228.51,417.4294,220.4987,411.7006,223.6122,416.4235,218.8893,419.5371,228.51,417.4294" style="stroke:#181818;stroke-width:1.0;"/></g><!--link visitor to UC37--><g id="link_visitor_UC37"><path d="M94.86,278.4294 C109.84,264.7594 128.08,250.4494 147,241.0494 C177.54,225.8694 209.0554,218.5026 238.9554,214.0526 " fill="none" id="visitor-to-UC37" style="stroke:#181818;stroke-width:1.0;"/><polygon fill="#181818" points="244.89,213.1694,235.3992,210.5378,239.9445,213.9054,236.5769,218.4507,244.89,213.1694" style="stroke:#181818;stroke-width:1.0;"/></g><!--link inventory to UC01--><g id="link_inventory_UC01"><path d="M83.12,2255.5994 C99.29,2278.8094 121.92,2307.5094 147,2328.0494 C181.06,2355.9394 221.3272,2375.3064 253.4272,2388.4464 " fill="none" id="inventory-to-UC01" style="stroke:#181818;stroke-width:1.0;"/><polygon fill="#181818" points="258.98,2390.7194,252.1662,2383.608,254.3527,2388.8252,249.1355,2391.0117,258.98,2390.7194" style="stroke:#181818;stroke-width:1.0;"/></g><!--link inventory to UC02--><g id="link_inventory_UC02"><path d="M85.05,2255.8494 C103.46,2285.0394 126.66,2326.3394 139,2366.0494 C143.91,2381.8394 136.07,2427.6294 147,2440.0494 C164.4,2459.8094 184.6284,2468.6371 210.2584,2473.3371 " fill="none" id="inventory-to-UC02" style="stroke:#181818;stroke-width:1.0;"/><polygon fill="#181818" points="216.16,2474.4194,208.0291,2468.8616,211.242,2473.5175,206.5861,2476.7304,216.16,2474.4194" style="stroke:#181818;stroke-width:1.0;"/></g><!--link inventory to UC03--><g id="link_inventory_UC03"><path d="M78.11,2255.8994 C97.26,2295.8194 125.15,2359.5894 139,2418.0494 C143.89,2438.6594 133.19,2496.9794 147,2513.0494 C164.69,2533.6194 185.9252,2542.5616 212.3352,2547.0616 " fill="none" id="inventory-to-UC03" style="stroke:#181818;stroke-width:1.0;"/><polygon fill="#181818" points="218.25,2548.0694,210.0497,2542.6145,213.321,2547.2295,208.706,2550.5008,218.25,2548.0694" style="stroke:#181818;stroke-width:1.0;"/></g><!--link inventory to UC04--><g id="link_inventory_UC04"><path d="M73.14,2255.9194 C91.96,2307.3594 123.51,2399.9794 139,2482.0494 C141.13,2493.3294 139.6,2576.2694 147,2585.0494 C162.63,2603.5894 180.0332,2612.4424 203.6032,2617.8724 " fill="none" id="inventory-to-UC04" style="stroke:#181818;stroke-width:1.0;"/><polygon fill="#181818" points="209.45,2619.2194,201.5777,2613.301,204.5776,2618.0969,199.7817,2621.0968,209.45,2619.2194" style="stroke:#181818;stroke-width:1.0;"/></g><!--link inventory to UC05--><g id="link_inventory_UC05"><path d="M68.96,2255.7794 C86.5,2320.9094 120.76,2454.6894 139,2570.0494 C142.14,2589.8794 135.91,2643.3094 147,2660.0494 C168.83,2692.9694 203.1721,2711.2842 236.4421,2723.2142 " fill="none" id="inventory-to-UC05" style="stroke:#181818;stroke-width:1.0;"/><polygon fill="#181818" points="242.09,2725.2394,234.9683,2718.4363,237.3834,2723.5517,232.268,2725.9668,242.09,2725.2394" style="stroke:#181818;stroke-width:1.0;"/></g><!--link inventory to UC06--><g id="link_inventory_UC06"><path d="M65.36,2255.7894 C80.58,2338.8194 115.98,2536.8694 139,2704.0494 C141.23,2720.2094 136.21,2764.8094 147,2777.0494 C165.57,2798.1094 188.1235,2807.0332 215.3435,2811.3332 " fill="none" id="inventory-to-UC06" style="stroke:#181818;stroke-width:1.0;"/><polygon fill="#181818" points="221.27,2812.2694,213.0044,2806.914,216.3312,2811.4892,211.7561,2814.816,221.27,2812.2694" style="stroke:#181818;stroke-width:1.0;"/></g><!--link inventory to UC07--><g id="link_inventory_UC07"><path d="M57.96,2255.7794 C58.66,2380.5694 67.4,2761.4894 147,2849.0494 C164.53,2868.3294 184.4839,2877.0576 209.8339,2881.8376 " fill="none" id="inventory-to-UC07" style="stroke:#181818;stroke-width:1.0;"/><polygon fill="#181818" points="215.73,2882.9494,207.627,2877.351,210.8166,2882.0229,206.1447,2885.2125,215.73,2882.9494" style="stroke:#181818;stroke-width:1.0;"/></g><!--link inventory to UC08--><g id="link_inventory_UC08"><path d="M57.33,2255.9994 C55.92,2390.3094 58.47,2822.6394 147,2922.0494 C164.18,2941.3394 183.7555,2950.1876 208.8655,2955.1876 " fill="none" id="inventory-to-UC08" style="stroke:#181818;stroke-width:1.0;"/><polygon fill="#181818" points="214.75,2956.3594,206.7044,2950.6788,209.8463,2955.3829,205.1421,2958.5247,214.75,2956.3594" style="stroke:#181818;stroke-width:1.0;"/></g><!--link inventory to UC09--><g id="link_inventory_UC09"><path d="M59.82,2176.5194 C67.16,2024.6694 96.65,1484.4894 147,1428.0494 C162.18,1411.0294 177.9377,1402.5269 200.0077,1396.7169 " fill="none" id="inventory-to-UC09" style="stroke:#181818;stroke-width:1.0;"/><polygon fill="#181818" points="205.81,1395.1894,196.0882,1393.6124,200.9747,1396.4623,198.1249,1401.3488,205.81,1395.1894" style="stroke:#181818;stroke-width:1.0;"/></g><!--link inventory to UC10--><g id="link_inventory_UC10"><path d="M60.31,2176.4194 C68.97,2033.9294 101.36,1553.3394 147,1503.0494 C163.82,1484.5194 182.4106,1475.8142 206.7406,1470.6542 " fill="none" id="inventory-to-UC10" style="stroke:#181818;stroke-width:1.0;"/><polygon fill="#181818" points="212.61,1469.4094,202.9759,1467.3636,207.7188,1470.4467,204.6357,1475.1896,212.61,1469.4094" style="stroke:#181818;stroke-width:1.0;"/></g><!--link inventory to UC11--><g id="link_inventory_UC11"><path d="M58.01,2176.2494 C58.86,2051.2594 68,1669.6394 147,1581.0494 C162.63,1563.5194 179.2013,1554.863 201.9413,1549.143 " fill="none" id="inventory-to-UC11" style="stroke:#181818;stroke-width:1.0;"/><polygon fill="#181818" points="207.76,1547.6794,198.0561,1545.9957,202.911,1548.8991,200.0076,1553.754,207.76,1547.6794" style="stroke:#181818;stroke-width:1.0;"/></g><!--link inventory to UC12--><g id="link_inventory_UC12"><path d="M60.43,2176.2794 C67.64,2069.3094 91.96,1778.3394 147,1702.0494 C169.63,1670.6794 202.5063,1652.2153 234.8763,1639.4853 " fill="none" id="inventory-to-UC12" style="stroke:#181818;stroke-width:1.0;"/><polygon fill="#181818" points="240.46,1637.2894,230.6205,1636.8607,235.8069,1639.1193,233.5483,1644.3057,240.46,1637.2894" style="stroke:#181818;stroke-width:1.0;"/></g><!--link inventory to UC13--><g id="link_inventory_UC13"><path d="M58.13,2176.3294 C60.58,2112.6794 74.96,1987.9994 147,1919.0494 C164.42,1902.3694 182.2201,1894.0863 205.5901,1888.5763 " fill="none" id="inventory-to-UC13" style="stroke:#181818;stroke-width:1.0;"/><polygon fill="#181818" points="211.43,1887.1994,201.7523,1885.3714,206.5634,1888.3468,203.5881,1893.158,211.43,1887.1994" style="stroke:#181818;stroke-width:1.0;"/></g><!--link inventory to UC14--><g id="link_inventory_UC14"><path d="M69.92,2176.4594 C83.36,2137.3294 108.5,2077.7194 147,2038.0494 C175.41,2008.7694 211.1779,1989.8683 243.3379,1976.5283 " fill="none" id="inventory-to-UC14" style="stroke:#181818;stroke-width:1.0;"/><polygon fill="#181818" points="248.88,1974.2294,239.0342,1973.9829,244.2616,1976.1451,242.0994,1981.3724,248.88,1974.2294" style="stroke:#181818;stroke-width:1.0;"/></g><!--link inventory to UC15--><g id="link_inventory_UC15"><path d="M60.46,2176.3594 C67.39,2077.9094 90.35,1826.1894 147,1768.0494 C168.22,1746.2694 194.2417,1737.8252 223.2817,1734.3852 " fill="none" id="inventory-to-UC15" style="stroke:#181818;stroke-width:1.0;"/><polygon fill="#181818" points="229.24,1733.6794,219.8319,1730.7659,224.2747,1734.2675,220.773,1738.7103,229.24,1733.6794" style="stroke:#181818;stroke-width:1.0;"/></g><!--link inventory to UC16--><g id="link_inventory_UC16"><path d="M62.28,2176.4694 C72.36,2090.4294 100.35,1890.3094 147,1843.0494 C164.42,1825.3994 182.896,1816.8449 206.926,1811.4449 " fill="none" id="inventory-to-UC16" style="stroke:#181818;stroke-width:1.0;"/><polygon fill="#181818" points="212.78,1810.1294,203.122,1808.2,207.9017,1811.2256,204.876,1816.0053,212.78,1810.1294" style="stroke:#181818;stroke-width:1.0;"/></g><!--link inventory to UC17--><g id="link_inventory_UC17"><path d="M59.5,2255.7494 C65.62,2407.5894 91.13,2945.3994 147,2995.0494 C237.37,3075.3494 326.71,3073.1294 419,2995.0494 C591.33,2849.2394 602.3221,2060.2693 602.9521,1924.7093 " fill="none" id="inventory-to-UC17" style="stroke:#181818;stroke-width:1.0;"/><polygon fill="#181818" points="602.98,1918.7094,598.9382,1927.6907,602.9568,1923.7093,606.9381,1927.7279,602.98,1918.7094" style="stroke:#181818;stroke-width:1.0;"/></g><!--link inventory to UC18--><g id="link_inventory_UC18"><path d="M82,2176.5494 C97.77,2153.8394 120.38,2126.6194 147,2110.0494 C170.07,2095.6894 192.4863,2088.1237 218.2963,2082.7437 " fill="none" id="inventory-to-UC18" style="stroke:#181818;stroke-width:1.0;"/><polygon fill="#181818" points="224.17,2081.5194,214.5431,2079.4401,219.2752,2082.5397,216.1756,2087.2718,224.17,2081.5194" style="stroke:#181818;stroke-width:1.0;"/></g><!--link inventory to UC19--><g id="link_inventory_UC19"><path d="M107.86,2194.2894 C120.49,2189.2194 134.13,2184.1194 147,2180.0494 C177.44,2170.4194 206.2323,2163.4323 234.6123,2157.3723 " fill="none" id="inventory-to-UC19" style="stroke:#181818;stroke-width:1.0;"/><polygon fill="#181818" points="240.48,2156.1194,230.8431,2154.087,235.5902,2157.1635,232.5137,2161.9106,240.48,2156.1194" style="stroke:#181818;stroke-width:1.0;"/></g><!--link inventory to UC20--><g id="link_inventory_UC20"><path d="M107.62,2216.0494 C139.41,2216.0494 175.38,2216.0494 211.77,2216.0494 " fill="none" id="inventory-to-UC20" style="stroke:#181818;stroke-width:1.0;"/><polygon fill="#181818" points="217.77,2216.0494,208.77,2212.0494,212.77,2216.0494,208.77,2220.0494,217.77,2216.0494" style="stroke:#181818;stroke-width:1.0;"/></g><!--link inventory to UC21--><g id="link_inventory_UC21"><path d="M107.94,2237.5794 C120.56,2242.6594 134.18,2247.8094 147,2252.0494 C174.81,2261.2294 200.2556,2268.1985 227.0556,2274.8285 " fill="none" id="inventory-to-UC21" style="stroke:#181818;stroke-width:1.0;"/><polygon fill="#181818" points="232.88,2276.2694,225.104,2270.2251,228.0263,2275.0686,223.1828,2277.991,232.88,2276.2694" style="stroke:#181818;stroke-width:1.0;"/></g><!--link production to UC22--><g id="link_production_UC22"><path d="M108.16,1086.9794 C120.66,1081.2794 134.17,1075.5794 147,1071.0494 C174.32,1061.3994 199.3917,1054.5329 226.0617,1048.2129 " fill="none" id="production-to-UC22" style="stroke:#181818;stroke-width:1.0;"/><polygon fill="#181818" points="231.9,1046.8294,222.2202,1045.0124,227.0347,1047.9823,224.0649,1052.7968,231.9,1046.8294" style="stroke:#181818;stroke-width:1.0;"/></g><!--link production to UC23--><g id="link_production_UC23"><path d="M108.25,1136.3394 C120.75,1141.9094 134.23,1147.5094 147,1152.0494 C174.01,1161.6294 198.6332,1168.6681 225.0432,1175.3481 " fill="none" id="production-to-UC23" style="stroke:#181818;stroke-width:1.0;"/><polygon fill="#181818" points="230.86,1176.8194,223.1156,1170.7346,226.0127,1175.5933,221.1539,1178.4903,230.86,1176.8194" style="stroke:#181818;stroke-width:1.0;"/></g><!--link production to UC24--><g id="link_production_UC24"><path d="M108.21,1112.0494 C133.31,1112.0494 158.65,1112.0494 188.56,1112.0494 " fill="none" id="production-to-UC24" style="stroke:#181818;stroke-width:1.0;"/><polygon fill="#181818" points="194.56,1112.0494,185.56,1108.0494,189.56,1112.0494,185.56,1116.0494,194.56,1112.0494" style="stroke:#181818;stroke-width:1.0;"/></g><!--link production to UC25--><g id="link_production_UC25"><path d="M64.47,1072.3194 C75.03,1006.2294 95.97,869.4694 108,753.0494 C114.6,689.1294 100.06,219.9294 147,176.0494 C235.32,93.4994 325.07,99.9494 419,176.0494 C554.1,285.4994 471.73,784.7194 519,952.0494 C534.35,1006.3894 566.285,1058.4451 585.885,1087.5051 " fill="none" id="production-to-UC25" style="stroke:#181818;stroke-width:1.0;"/><polygon fill="#181818" points="589.24,1092.4794,587.5237,1082.7812,586.4442,1088.3341,580.8913,1087.2546,589.24,1092.4794" style="stroke:#181818;stroke-width:1.0;"/></g><!--link production to UC26--><g id="link_production_UC26"><path d="M78.29,1151.6594 C93.72,1177.9394 117.33,1211.1394 147,1231.0494 C167.96,1245.1094 187.8424,1252.7129 212.0524,1258.4629 " fill="none" id="production-to-UC26" style="stroke:#181818;stroke-width:1.0;"/><polygon fill="#181818" points="217.89,1259.8494,210.0579,1253.8779,213.0253,1258.694,208.2093,1261.6614,217.89,1259.8494" style="stroke:#181818;stroke-width:1.0;"/></g><!--link cashier to UC27--><g id="link_cashier_UC27"><path d="M84.87,683.6594 C102.33,675.9194 125.72,666.1094 147,659.0494 C174.88,649.7894 200.465,642.9268 227.355,636.4868 " fill="none" id="cashier-to-UC27" style="stroke:#181818;stroke-width:1.0;"/><polygon fill="#181818" points="233.19,635.0894,223.5059,633.2956,228.3275,636.2539,225.3691,641.0755,233.19,635.0894" style="stroke:#181818;stroke-width:1.0;"/></g><!--link cashier to UC28--><g id="link_cashier_UC28"><path d="M84.55,696.0494 C115.36,696.0494 161.72,696.0494 206.81,696.0494 " fill="none" id="cashier-to-UC28" style="stroke:#181818;stroke-width:1.0;"/><polygon fill="#181818" points="212.81,696.0494,203.81,692.0494,207.81,696.0494,203.81,700.0494,212.81,696.0494" style="stroke:#181818;stroke-width:1.0;"/></g><!--link cashier to UC29--><g id="link_cashier_UC29"><path d="M84.87,708.4294 C102.33,716.1694 125.72,725.9794 147,733.0494 C174.62,742.2194 199.8854,749.0202 226.6154,755.4302 " fill="none" id="cashier-to-UC29" style="stroke:#181818;stroke-width:1.0;"/><polygon fill="#181818" points="232.45,756.8294,224.6309,750.8409,227.5878,755.6634,222.7654,758.6203,232.45,756.8294" style="stroke:#181818;stroke-width:1.0;"/></g><!--link cashier to UC30--><g id="link_cashier_UC30"><path d="M79.94,735.5594 C95.57,760.1994 118.78,790.6094 147,809.0494 C167.45,822.4094 186.4234,829.7575 209.9434,835.5375 " fill="none" id="cashier-to-UC30" style="stroke:#181818;stroke-width:1.0;"/><polygon fill="#181818" points="215.77,836.9694,207.9846,830.9371,210.9145,835.7761,206.0755,838.706,215.77,836.9694" style="stroke:#181818;stroke-width:1.0;"/></g><!--link cashier to UC31--><g id="link_cashier_UC31"><path d="M64.3,656.4094 C73.93,595.6694 92.79,475.8794 108,374.0494 C121.87,281.2394 121.92,257.4994 138,165.0494 C141.42,145.3794 131.54,133.6694 147,121.0494 C240.66,44.6094 314.28,60.6494 419,121.0494 C528.13,183.9894 587.5409,610.3963 599.8709,708.3763 " fill="none" id="cashier-to-UC31" style="stroke:#181818;stroke-width:1.0;"/><polygon fill="#181818" points="600.62,714.3294,603.465,704.9004,599.9957,709.3685,595.5276,705.8992,600.62,714.3294" style="stroke:#181818;stroke-width:1.0;"/></g><!--link cashier to UC32--><g id="link_cashier_UC32"><path d="M65.6,735.7994 C76.11,779.6294 99.46,848.9694 147,887.0494 C171.53,906.6994 199.2926,914.5457 228.5926,918.0557 " fill="none" id="cashier-to-UC32" style="stroke:#181818;stroke-width:1.0;"/><polygon fill="#181818" points="234.55,918.7694,226.0897,913.7273,229.5855,918.1747,225.1381,921.6705,234.55,918.7694" style="stroke:#181818;stroke-width:1.0;"/></g><!--link cashier to UC33--><g id="link_cashier_UC33"><path d="M79.94,656.5294 C95.57,631.8994 118.78,601.4794 147,583.0494 C167.68,569.5394 186.9702,562.1282 210.7202,556.3482 " fill="none" id="cashier-to-UC33" style="stroke:#181818;stroke-width:1.0;"/><polygon fill="#181818" points="216.55,554.9294,206.8594,553.171,211.6918,556.1117,208.7511,560.9441,216.55,554.9294" style="stroke:#181818;stroke-width:1.0;"/></g><!--link UC28 to UC31--><g id="link_UC28_UC31"><path d="M373.74,705.3394 C420.95,711.2494 475.8864,718.1345 523.0464,724.0345 " fill="none" id="UC28-to-UC31" style="stroke:#181818;stroke-width:1.0;stroke-dasharray:7.0,7.0;"/><polygon fill="#181818" points="529,724.7794,520.5662,719.6931,524.0387,724.1587,519.5731,727.6312,529,724.7794" style="stroke:#181818;stroke-width:1.0;"/><text fill="#000000" font-family="sans-serif" font-size="13" lengthAdjust="spacing" textLength="55.6563" x="433" y="709.5445">&#171;include&#187;</text></g><!--link UC29 to UC31--><g id="link_UC29_UC31"><path d="M389.49,770.3294 C421.08,769.1394 456.73,766.7294 489,762.0494 C509.27,759.0994 525.3793,755.6545 544.5393,750.7245 " fill="none" id="UC29-to-UC31" style="stroke:#181818;stroke-width:1.0;stroke-dasharray:7.0,7.0;"/><polygon fill="#181818" points="550.35,749.2294,540.6371,747.5983,545.5077,750.4753,542.6307,755.3459,550.35,749.2294" style="stroke:#181818;stroke-width:1.0;"/><text fill="#000000" font-family="sans-serif" font-size="13" lengthAdjust="spacing" textLength="55.6563" x="433" y="758.5445">&#171;include&#187;</text></g><!--link UC30 to UC31--><g id="link_UC30_UC31"><path d="M366.4,832.5894 C403.2,823.1994 449.31,809.9494 489,794.0494 C518.27,782.3194 544.6768,768.2972 567.1768,755.3772 " fill="none" id="UC30-to-UC31" style="stroke:#181818;stroke-width:1.0;stroke-dasharray:7.0,7.0;"/><polygon fill="#181818" points="572.38,752.3894,562.5834,753.4023,568.044,754.8792,566.5671,760.3398,572.38,752.3894" style="stroke:#181818;stroke-width:1.0;"/><text fill="#000000" font-family="sans-serif" font-size="13" lengthAdjust="spacing" textLength="55.6563" x="433" y="790.5445">&#171;include&#187;</text></g><!--link UC23 to UC25--><g id="link_UC23_UC25"><path d="M361.28,1175.7594 C415.88,1161.3694 488.9883,1142.0992 541.6283,1128.2192 " fill="none" id="UC23-to-UC25" style="stroke:#181818;stroke-width:1.0;stroke-dasharray:7.0,7.0;"/><polygon fill="#181818" points="547.43,1126.6894,537.7076,1125.1162,542.5952,1127.9642,539.7473,1132.8518,547.43,1126.6894" style="stroke:#181818;stroke-width:1.0;"/><text fill="#000000" font-family="sans-serif" font-size="13" lengthAdjust="spacing" textLength="55.6563" x="433" y="1139.5445">&#171;include&#187;</text></g><!--link UC24 to UC25--><g id="link_UC24_UC25"><path d="M402.25,1112.0494 C440.26,1112.0494 476.85,1112.0494 513,1112.0494 " fill="none" id="UC24-to-UC25" style="stroke:#181818;stroke-width:1.0;stroke-dasharray:7.0,7.0;"/><polygon fill="#181818" points="519,1112.0494,510,1108.0494,514,1112.0494,510,1116.0494,519,1112.0494" style="stroke:#181818;stroke-width:1.0;"/><text fill="#000000" font-family="sans-serif" font-size="13" lengthAdjust="spacing" textLength="55.6563" x="433" y="1108.5445">&#171;include&#187;</text></g><!--link UC15 to UC17--><g id="link_UC15_UC17"><path d="M350.9,1744.5794 C372.54,1750.0494 397.61,1757.7694 419,1768.0494 C483.15,1798.8694 544.2816,1847.9263 577.0716,1876.1363 " fill="none" id="UC15-to-UC17" style="stroke:#181818;stroke-width:1.0;stroke-dasharray:7.0,7.0;"/><polygon fill="#181818" points="581.62,1880.0494,577.4061,1871.1475,577.8297,1876.7885,572.1887,1877.212,581.62,1880.0494" style="stroke:#181818;stroke-width:1.0;"/><text fill="#000000" font-family="sans-serif" font-size="13" lengthAdjust="spacing" textLength="53.4917" x="434" y="1772.5445">&#171;extend&#187;</text></g><!--SRC=[XPTRRzis5CVVzIa8FwnFQIF9rw884DihrgN3qhZUdazjLcPDKm99DJM6VFSTYf8SysBxmO7_vqUUgoX6xPceGCA1m4QNSgMFd19ufgeyq4JrnWesUoYeDKkwqI0A_Xge5Ts0ekI_XE1dZdWXorfi5oKl9VbtnpIrbb9kgRJgd2EMl2I9PXgtNUFoXTbZoQ0mUzwGJs8ZwO4AJTBtv6Cj2iLA0PnfK6ZJZFnTKGbMJ19ElskYIo9PiTDaoqoSQ4gID-JU9AUI9aSoUAIYgCKFt6z0SAUVJ37KE-i3RYWR0sQqOxGtpA5W8CYZBBVrNh46gSmFw-QS-YH-Ojobj1XhVnrDCAkZqlH0lfdw04fzFSbWnHhJ8poN8b-ULs3G5hVvUaC-WzWoKI1RKFng-jEOsbwHmMkYMsm-NQy6dzaEDFa3E1mmuhN6FqsqwqK-ZD4Fe86NHLk53X_5y2NLmBX3ZsFqn_il7JDfc9VN6QDhMc15oMza1ReshGYbxM71t1yeBpdqUxPkRzCesRfSxslPmLaK_fCAfiYSmR6hw6r-DGPyR7OcMiiF_GAiwghYE93Xl3lhXLOluRi6IKwaTHNetbSuV8ETHmOwjpRS4gV2WoS-lC1ns8VfgPzlKm_ytjVXZ4_swpc_Pgt3MJHhZqrlB-Nju-d5p7q-2-HEEOWV44dS6Yza_KJ51WIGdhIE0aCuh-Duu1Jug-R0N2xw-3-nPtm4jCkFe_MnnuM31yu2Uw24gzCTDjT6uknGIgVHSJZdPfT6uGpD0bDphsj97if3LIfywpXy6ilJaF5CpQieckkzqD9xQw6lBDRQaqUgS2IwyoZBhzG7LwmOLAPtlPF0_AmenttPFX3IrIbo5upzUdsL81H42zQRtxLl-MipqY_eV4uYJr1RBUmjpd47Jw_0JxIeUNy4PhC8VahAhN0U636iag8AVM1pZdWvwpgOHq-bbPQdbtDshGjkIVAyRSEBkTpyOozJP5CAOUzVAcalMEJcvixUBHnXv0fZLvYOhRihrV5iy_vgrRBu2lUap9ToNnhwqiYNnhuqyQMfByqy2LyhdkH7d_hHftxqgHzzwaUV-j6dVlIf7ttgHv_vqUC9bhHdLjETiqQThieTdGMqFA0D0zeee8sDzuMzj9-vRY_o7JTnXQahp1m1dpD7I5qXSuNSpko6rrlpFnE79fOTgrHYN9AtR-r6v3tvy85PxkxEs6PnMtvxOLtUshAHRnl6R1Zaxxyq5LilndJKhaadpHhQOBZaVm00]--></g></svg>