<svg xmlns="http://www.w3.org/2000/svg" xmlns:xlink="http://www.w3.org/1999/xlink" contentStyleType="text/css" height="4350px" preserveAspectRatio="none" style="width:1582px;height:4350px;background:#FFFFFF;" version="1.1" viewBox="0 0 1582 4350" width="1582px" zoomAndPan="magnify"><title>Use Case Diagram - Increment 2</title><defs/><g><text fill="#000000" font-family="sans-serif" font-size="14" font-weight="bold" lengthAdjust="spacing" textLength="213.9785" x="677.0107" y="24.5332">Use Case Diagram - Increment 2</text><text fill="#000000" font-family="sans-serif" font-size="14" font-weight="bold" lengthAdjust="spacing" textLength="260.6201" x="653.6899" y="42.1426">Sistem Manajemen Toko Kue Pawon3D</text><text fill="#000000" font-family="sans-serif" font-size="14" font-weight="bold" lengthAdjust="spacing" textLength="206.124" x="680.938" y="59.752">Modul Pendukung Operasional</text><!--cluster Sistem Pawon3D - Increment 2--><g id="cluster_Sistem Pawon3D - Increment 2"><rect fill="none" height="2915" rx="2.5" ry="2.5" style="stroke:#181818;stroke-width:1.0;" width="1421" x="155" y="694.1181"/><text fill="#000000" font-family="sans-serif" font-size="14" font-weight="bold" lengthAdjust="spacing" textLength="203.8408" x="763.5796" y="710.6513">Sistem Pawon3D - Increment 2</text></g><!--cluster Autentikasi--><g id="cluster_Autentikasi"><rect fill="none" height="160" rx="2.5" ry="2.5" style="stroke:#181818;stroke-width:1.0;" width="194" x="246.5" y="1800.1181"/><text fill="#000000" font-family="sans-serif" font-size="14" font-weight="bold" lengthAdjust="spacing" textLength="75.4619" x="305.769" y="1816.6513">Autentikasi</text></g><!--cluster Pengelolaan Pengguna--><g id="cluster_Pengelolaan Pengguna"><rect fill="none" height="354" rx="2.5" ry="2.5" style="stroke:#181818;stroke-width:1.0;" width="276" x="205.5" y="2264.1181"/><text fill="#000000" font-family="sans-serif" font-size="14" font-weight="bold" lengthAdjust="spacing" textLength="154.0273" x="266.4863" y="2280.6513">Pengelolaan Pengguna</text></g><!--cluster Pengelolaan Peran--><g id="cluster_Pengelolaan Peran"><rect fill="none" height="260" rx="2.5" ry="2.5" style="stroke:#181818;stroke-width:1.0;" width="250" x="218.5" y="2642.1181"/><text fill="#000000" font-family="sans-serif" font-size="14" font-weight="bold" lengthAdjust="spacing" textLength="125.2686" x="280.8657" y="2658.6513">Pengelolaan Peran</text></g><!--cluster Pengaturan Sistem--><g id="cluster_Pengaturan Sistem"><rect fill="none" height="464" rx="2.5" ry="2.5" style="stroke:#181818;stroke-width:1.0;" width="329" x="179" y="1312.1181"/><text fill="#000000" font-family="sans-serif" font-size="14" font-weight="bold" lengthAdjust="spacing" textLength="126.8135" x="280.0933" y="1328.6513">Pengaturan Sistem</text></g><!--cluster Pengelolaan Pelanggan--><g id="cluster_Pengelolaan Pelanggan"><rect fill="none" height="256" rx="2.5" ry="2.5" style="stroke:#181818;stroke-width:1.0;" width="270" x="208.5" y="1984.1181"/><text fill="#000000" font-family="sans-serif" font-size="14" font-weight="bold" lengthAdjust="spacing" textLength="157.1514" x="264.9243" y="2000.6513">Pengelolaan Pelanggan</text></g><!--cluster Fitur Umum--><g id="cluster_Fitur Umum"><rect fill="none" height="424" rx="2.5" ry="2.5" style="stroke:#181818;stroke-width:1.0;" width="639.5" x="213.5" y="864.1181"/><text fill="#000000" font-family="sans-serif" font-size="14" font-weight="bold" lengthAdjust="spacing" textLength="78.5518" x="493.9741" y="880.6513">Fitur Umum</text></g><!--cluster Aktivasi Akun--><g id="cluster_Aktivasi Akun"><rect fill="none" height="105" rx="2.5" ry="2.5" style="stroke:#181818;stroke-width:1.0;" width="571.5" x="611.5" y="3285.1181"/><text fill="#000000" font-family="sans-serif" font-size="14" font-weight="bold" lengthAdjust="spacing" textLength="92.5859" x="850.957" y="3301.6513">Aktivasi Akun</text></g><!--cluster Stock Opname--><g id="cluster_Stock Opname"><rect fill="none" height="335" rx="2.5" ry="2.5" style="stroke:#181818;stroke-width:1.0;" width="1331" x="221" y="2926.1181"/><text fill="#000000" font-family="sans-serif" font-size="14" font-weight="bold" lengthAdjust="spacing" textLength="98.0273" x="837.4863" y="2942.6513">Stock Opname</text></g><!--cluster Poin Pelanggan--><g id="cluster_Poin Pelanggan"><rect fill="none" height="102" rx="2.5" ry="2.5" style="stroke:#181818;stroke-width:1.0;" width="260" x="213.5" y="738.1181"/><text fill="#000000" font-family="sans-serif" font-size="14" font-weight="bold" lengthAdjust="spacing" textLength="105.0137" x="290.9932" y="754.6513">Poin Pelanggan</text></g><!--cluster Landing Page--><g id="cluster_Landing Page"><rect fill="none" height="171" rx="2.5" ry="2.5" style="stroke:#181818;stroke-width:1.0;" width="952" x="220.5" y="3414.1181"/><text fill="#000000" font-family="sans-serif" font-size="14" font-weight="bold" lengthAdjust="spacing" textLength="91.7861" x="650.6069" y="3430.6513">Landing Page</text></g><g id="elem_UC046"><ellipse cx="343.3352" cy="1925.8852" fill="#F1F1F1" rx="74.3352" ry="17.267" style="stroke:#181818;stroke-width:0.5;"/><text fill="#000000" font-family="sans-serif" font-size="14" lengthAdjust="spacing" textLength="99.6064" x="290.532" y="1930.4018">Login ke Sistem</text></g><g id="elem_UC047"><ellipse cx="343.4867" cy="1855.2155" fill="#F1F1F1" rx="80.9867" ry="18.5973" style="stroke:#181818;stroke-width:0.5;"/><text fill="#000000" font-family="sans-serif" font-size="14" lengthAdjust="spacing" textLength="116.7305" x="284.5619" y="1859.1076">Logout dari Sistem</text></g><g id="elem_UC048"><ellipse cx="343.418" cy="2325.0017" fill="#F1F1F1" rx="109.918" ry="24.3836" style="stroke:#181818;stroke-width:0.5;"/><text fill="#000000" font-family="sans-serif" font-size="14" lengthAdjust="spacing" textLength="182.8682" x="251.9839" y="2328.7302">Mengakses Halaman Pekerja</text></g><g id="elem_UC049"><ellipse cx="343.6449" cy="2407.9471" fill="#F1F1F1" rx="104.6449" ry="23.329" style="stroke:#181818;stroke-width:0.5;"/><text fill="#000000" font-family="sans-serif" font-size="14" lengthAdjust="spacing" textLength="171.2334" x="258.0282" y="2411.6756">Menambah Pengguna Baru</text></g><g id="elem_UC050"><ellipse cx="343.4016" cy="2490.0984" fill="#F1F1F1" rx="102.9016" ry="22.9803" style="stroke:#181818;stroke-width:0.5;"/><text fill="#000000" font-family="sans-serif" font-size="14" lengthAdjust="spacing" textLength="167.3574" x="259.7229" y="2493.827">Mengubah Data Pengguna</text></g><g id="elem_UC051"><ellipse cx="343.2571" cy="2574.8695" fill="#F1F1F1" rx="121.7571" ry="26.7514" style="stroke:#181818;stroke-width:0.5;"/><text fill="#000000" font-family="sans-serif" font-size="14" lengthAdjust="spacing" textLength="208.5918" x="238.9612" y="2578.5981">Mengubah Status Aktif Pengguna</text></g><g id="elem_UC052"><ellipse cx="343.3324" cy="2702.0846" fill="#F1F1F1" rx="105.3324" ry="23.4665" style="stroke:#181818;stroke-width:0.5;"/><text fill="#000000" font-family="sans-serif" font-size="14" lengthAdjust="spacing" textLength="172.7578" x="256.9535" y="2705.8131">Mengakses Halaman Peran</text></g><g id="elem_UC053"><ellipse cx="343.3932" cy="2782.0968" fill="#F1F1F1" rx="92.8932" ry="20.9786" style="stroke:#181818;stroke-width:0.5;"/><text fill="#000000" font-family="sans-serif" font-size="14" lengthAdjust="spacing" textLength="144.751" x="271.0177" y="2785.8253">Menambah Peran Baru</text></g><g id="elem_UC054"><ellipse cx="343.3601" cy="2862.2901" fill="#F1F1F1" rx="108.8601" ry="24.172" style="stroke:#181818;stroke-width:0.5;"/><text fill="#000000" font-family="sans-serif" font-size="14" lengthAdjust="spacing" textLength="180.5439" x="253.0881" y="2866.0187">Mengubah Permission Peran</text></g><g id="elem_UC055"><ellipse cx="343.3858" cy="1557.2953" fill="#F1F1F1" rx="121.3858" ry="26.6772" style="stroke:#181818;stroke-width:0.5;"/><text fill="#000000" font-family="sans-serif" font-size="14" lengthAdjust="spacing" textLength="207.792" x="239.4898" y="1561.0238">Mengakses Halaman Pengaturan</text></g><g id="elem_UC056"><ellipse cx="343.5734" cy="1640.2328" fill="#F1F1F1" rx="93.5734" ry="21.1147" style="stroke:#181818;stroke-width:0.5;"/><text fill="#000000" font-family="sans-serif" font-size="14" lengthAdjust="spacing" textLength="146.3096" x="270.4186" y="1643.9613">Mengubah Profil Usaha</text></g><g id="elem_UC057"><ellipse cx="343.5019" cy="1728.2185" fill="#F1F1F1" rx="148.5019" ry="32.1004" style="stroke:#181818;stroke-width:0.5;"/><text fill="#000000" font-family="sans-serif" font-size="14" lengthAdjust="spacing" textLength="265.3643" x="210.8197" y="1731.947">Mengakses Halaman Metode Pembayaran</text></g><g id="elem_UC058"><ellipse cx="343.5795" cy="1374.934" fill="#F1F1F1" rx="119.5795" ry="26.3159" style="stroke:#181818;stroke-width:0.5;"/><text fill="#000000" font-family="sans-serif" font-size="14" lengthAdjust="spacing" textLength="203.8955" x="241.6317" y="1378.6625">Menambah Metode Pembayaran</text></g><g id="elem_UC059"><ellipse cx="343.3969" cy="1466.1975" fill="#F1F1F1" rx="133.3969" ry="29.0794" style="stroke:#181818;stroke-width:0.5;"/><text fill="#000000" font-family="sans-serif" font-size="14" lengthAdjust="spacing" textLength="233.4814" x="226.6562" y="1469.926">Mengubah Data Metode Pembayaran</text></g><g id="elem_UC060"><ellipse cx="343.3646" cy="2046.291" fill="#F1F1F1" rx="118.8646" ry="26.1729" style="stroke:#181818;stroke-width:0.5;"/><text fill="#000000" font-family="sans-serif" font-size="14" lengthAdjust="spacing" textLength="202.3506" x="242.1893" y="2050.0196">Mengakses Halaman Pelanggan</text></g><g id="elem_UC061"><ellipse cx="343.599" cy="2126.0379" fill="#F1F1F1" rx="82.599" ry="18.9198" style="stroke:#181818;stroke-width:0.5;"/><text fill="#000000" font-family="sans-serif" font-size="14" lengthAdjust="spacing" textLength="120.6338" x="283.2821" y="2129.7664">Mencari Pelanggan</text></g><g id="elem_UC062"><ellipse cx="343.684" cy="2202.0549" fill="#F1F1F1" rx="97.684" ry="21.9368" style="stroke:#181818;stroke-width:0.5;"/><text fill="#000000" font-family="sans-serif" font-size="14" lengthAdjust="spacing" textLength="155.6543" x="265.8568" y="2205.7834">Melihat Detail Pelanggan</text></g><g id="elem_UC063"><ellipse cx="343.374" cy="923.0929" fill="#F1F1F1" rx="102.874" ry="22.9748" style="stroke:#181818;stroke-width:0.5;"/><text fill="#000000" font-family="sans-serif" font-size="14" lengthAdjust="spacing" textLength="167.2959" x="259.7261" y="926.8214">Mengakses Halaman Profil</text></g><g id="elem_UC064"><ellipse cx="343.3529" cy="1001.2887" fill="#F1F1F1" rx="88.8529" ry="20.1706" style="stroke:#181818;stroke-width:0.5;"/><text fill="#000000" font-family="sans-serif" font-size="14" lengthAdjust="spacing" textLength="135.4131" x="275.6463" y="1005.0172">Mengubah Data Profil</text></g><g id="elem_UC065"><ellipse cx="343.6832" cy="1081.3548" fill="#F1F1F1" rx="114.1832" ry="25.2366" style="stroke:#181818;stroke-width:0.5;"/><text fill="#000000" font-family="sans-serif" font-size="14" lengthAdjust="spacing" textLength="192.1924" x="247.587" y="1085.0833">Mengakses Halaman Notifikasi</text></g><g id="elem_UC066"><ellipse cx="343.4277" cy="1164.3037" fill="#F1F1F1" rx="103.9277" ry="23.1855" style="stroke:#181818;stroke-width:0.5;"/><text fill="#000000" font-family="sans-serif" font-size="14" lengthAdjust="spacing" textLength="169.6406" x="258.6073" y="1168.0322">Menandai Notifikasi Dibaca</text></g><g id="elem_UC067"><ellipse cx="343.7027" cy="1247.3587" fill="#F1F1F1" rx="111.7027" ry="24.7405" style="stroke:#181818;stroke-width:0.5;"/><text fill="#000000" font-family="sans-serif" font-size="14" lengthAdjust="spacing" textLength="186.7783" x="250.3135" y="1251.0872">Mengakses Halaman Laporan</text></g><g id="elem_UC068"><ellipse cx="723.9084" cy="918.8998" fill="#F1F1F1" rx="79.4084" ry="18.2817" style="stroke:#181818;stroke-width:0.5;"/><text fill="#000000" font-family="sans-serif" font-size="14" lengthAdjust="spacing" textLength="112.8271" x="666.242" y="922.9836">Memfilter Laporan</text></g><g id="elem_UC069"><ellipse cx="723.9211" cy="997.0024" fill="#F1F1F1" rx="109.9211" ry="24.3842" style="stroke:#181818;stroke-width:0.5;"/><text fill="#000000" font-family="sans-serif" font-size="14" lengthAdjust="spacing" textLength="182.875" x="632.4836" y="1000.7309">Mengekspor Laporan ke PDF</text></g><g id="elem_UC070"><ellipse cx="723.7693" cy="1082.072" fill="#F1F1F1" rx="112.7693" ry="24.9539" style="stroke:#181818;stroke-width:0.5;"/><text fill="#000000" font-family="sans-serif" font-size="14" lengthAdjust="spacing" textLength="189.1094" x="629.2147" y="1085.8005">Mengekspor Laporan ke Excel</text></g><g id="elem_UC071"><ellipse cx="724.1386" cy="3343.3458" fill="#F1F1F1" rx="96.6386" ry="21.7277" style="stroke:#181818;stroke-width:0.5;"/><text fill="#000000" font-family="sans-serif" font-size="14" lengthAdjust="spacing" textLength="153.2891" x="647.494" y="3347.0744">Mengakses Link Aktivasi</text></g><g id="elem_UC072"><ellipse cx="1068.7083" cy="3348.2598" fill="#F1F1F1" rx="98.7083" ry="22.1417" style="stroke:#181818;stroke-width:0.5;"/><text fill="#000000" font-family="sans-serif" font-size="14" lengthAdjust="spacing" textLength="157.9648" x="989.7259" y="3351.9883">Mengatur Password Baru</text></g><g id="elem_UC073"><ellipse cx="343.7385" cy="3064.3658" fill="#F1F1F1" rx="106.7385" ry="23.7477" style="stroke:#181818;stroke-width:0.5;"/><text fill="#000000" font-family="sans-serif" font-size="14" lengthAdjust="spacing" textLength="175.8682" x="255.8044" y="3068.0943">Mengakses Halaman Hitung</text></g><g id="elem_UC074"><ellipse cx="343.2931" cy="3145.1768" fill="#F1F1F1" rx="100.7931" ry="22.5586" style="stroke:#181818;stroke-width:0.5;"/><text fill="#000000" font-family="sans-serif" font-size="14" lengthAdjust="spacing" textLength="162.6475" x="261.9694" y="3148.9053">Membuat Rencana Hitung</text></g><g id="elem_UC075"><ellipse cx="723.8951" cy="3210.2971" fill="#F1F1F1" rx="106.3951" ry="23.679" style="stroke:#181818;stroke-width:0.5;"/><text fill="#000000" font-family="sans-serif" font-size="14" lengthAdjust="spacing" textLength="175.1094" x="636.3404" y="3214.0257">Memulai Penghitungan Stok</text></g><g id="elem_UC076"><ellipse cx="1068.4063" cy="3209.9994" fill="#F1F1F1" rx="112.4063" ry="24.8813" style="stroke:#181818;stroke-width:0.5;"/><text fill="#000000" font-family="sans-serif" font-size="14" lengthAdjust="spacing" textLength="188.3164" x="974.2481" y="3213.7279">Memasukkan Kuantitas Aktual</text></g><g id="elem_UC077"><ellipse cx="1415.9436" cy="3214.0068" fill="#F1F1F1" rx="119.9436" ry="26.3887" style="stroke:#181818;stroke-width:0.5;"/><text fill="#000000" font-family="sans-serif" font-size="14" lengthAdjust="spacing" textLength="204.6816" x="1313.6027" y="3217.7354">Menyelesaikan Perhitungan Stok</text></g><g id="elem_UC078"><ellipse cx="343.7056" cy="3223.9592" fill="#F1F1F1" rx="92.2056" ry="20.8411" style="stroke:#181818;stroke-width:0.5;"/><text fill="#000000" font-family="sans-serif" font-size="14" lengthAdjust="spacing" textLength="143.1719" x="272.1197" y="3227.6878">Melihat Riwayat Hitung</text></g><g id="elem_UC079"><ellipse cx="343.5908" cy="2983.9363" fill="#F1F1F1" rx="94.5908" ry="21.3182" style="stroke:#181818;stroke-width:0.5;"/><text fill="#000000" font-family="sans-serif" font-size="14" lengthAdjust="spacing" textLength="148.6338" x="269.2739" y="2987.6648">Melihat Alur Persediaan</text></g><g id="elem_UC088"><ellipse cx="343.36" cy="799.2901" fill="#F1F1F1" rx="113.86" ry="25.172" style="stroke:#181818;stroke-width:0.5;"/><text fill="#000000" font-family="sans-serif" font-size="14" lengthAdjust="spacing" textLength="191.4883" x="247.6158" y="803.0186">Menggunakan Poin Pelanggan</text></g><g id="elem_UC089"><ellipse cx="343.5853" cy="3544.9352" fill="#F1F1F1" rx="107.0853" ry="23.8171" style="stroke:#181818;stroke-width:0.5;"/><text fill="#000000" font-family="sans-serif" font-size="14" lengthAdjust="spacing" textLength="176.6338" x="255.2684" y="3548.6637">Mengakses Halaman Utama</text></g><g id="elem_UC090"><ellipse cx="723.8932" cy="3534.0968" fill="#F1F1F1" rx="92.8932" ry="20.9786" style="stroke:#181818;stroke-width:0.5;"/><text fill="#000000" font-family="sans-serif" font-size="14" lengthAdjust="spacing" textLength="144.751" x="651.5177" y="3537.8253">Melihat Katalog Produk</text></g><g id="elem_UC091"><ellipse cx="1068.3456" cy="3542.0872" fill="#F1F1F1" rx="87.8456" ry="19.9691" style="stroke:#181818;stroke-width:0.5;"/><text fill="#000000" font-family="sans-serif" font-size="14" lengthAdjust="spacing" textLength="133.0615" x="1001.8148" y="3545.8158">Melihat Detail Produk</text></g><g id="elem_UC092"><ellipse cx="343.5752" cy="3468.2332" fill="#F1F1F1" rx="76.0752" ry="17.615" style="stroke:#181818;stroke-width:0.5;"/><text fill="#000000" font-family="sans-serif" font-size="14" lengthAdjust="spacing" textLength="104.2617" x="288.5667" y="3472.7216">Mengakses FAQ</text></g><!--entity Admin--><g id="elem_Admin"><ellipse cx="57" cy="1705.1181" fill="#F1F1F1" rx="16" ry="16" style="stroke:#181818;stroke-width:0.5;"/><path d="M57,1725.1181 C61,1725.1181 64,1725.1181 68,1721.1181 C76,1721.1181 84,1729.1181 84,1737.1181 L84,1741.1181 C84,1745.1181 80,1749.1181 76,1749.1181 L38,1749.1181 C34,1749.1181 30,1745.1181 30,1741.1181 L30,1737.1181 C30,1729.1181 38,1721.1181 46,1721.1181 C50,1725.1181 53,1725.1181 57,1725.1181 " fill="#F1F1F1" style="stroke:#181818;stroke-width:0.5;"/><text fill="#000000" font-family="sans-serif" font-size="14" lengthAdjust="spacing" textLength="39.6826" x="37.1587" y="1764.1513">Admin</text></g><!--entity NewUser--><g id="elem_NewUser"><ellipse cx="343.6514" cy="4047.1181" fill="#F1F1F1" rx="16" ry="16" style="stroke:#181818;stroke-width:0.5;"/><path d="M343.6514,4067.1181 C347.6514,4067.1181 350.6514,4067.1181 354.6514,4063.1181 C362.6514,4063.1181 370.6514,4071.1181 370.6514,4079.1181 L370.6514,4083.1181 C370.6514,4087.1181 366.6514,4091.1181 362.6514,4091.1181 L324.6514,4091.1181 C320.6514,4091.1181 316.6514,4087.1181 316.6514,4083.1181 L316.6514,4079.1181 C316.6514,4071.1181 324.6514,4063.1181 332.6514,4063.1181 C336.6514,4067.1181 339.6514,4067.1181 343.6514,4067.1181 " fill="#F1F1F1" style="stroke:#181818;stroke-width:0.5;"/><text fill="#000000" font-family="sans-serif" font-size="14" lengthAdjust="spacing" textLength="97.3027" x="295" y="4106.1513">Pengguna Baru</text></g><!--entity Inventory--><g id="elem_Inventory"><ellipse cx="57.0894" cy="3041.1181" fill="#F1F1F1" rx="16" ry="16" style="stroke:#181818;stroke-width:0.5;"/><path d="M57.0894,3061.1181 C61.0894,3061.1181 64.0894,3061.1181 68.0894,3057.1181 C76.0894,3057.1181 84.0894,3065.1181 84.0894,3073.1181 L84.0894,3077.1181 C84.0894,3081.1181 80.0894,3085.1181 76.0894,3085.1181 L38.0894,3085.1181 C34.0894,3085.1181 30.0894,3081.1181 30.0894,3077.1181 L30.0894,3073.1181 C30.0894,3065.1181 38.0894,3057.1181 46.0894,3057.1181 C50.0894,3061.1181 53.0894,3061.1181 57.0894,3061.1181 " fill="#F1F1F1" style="stroke:#181818;stroke-width:0.5;"/><text fill="#000000" font-family="sans-serif" font-size="14" lengthAdjust="spacing" textLength="101.1787" x="6.5" y="3100.1513">Bagian Inventori</text></g><!--entity Cashier--><g id="elem_Cashier"><ellipse cx="57" cy="490.1181" fill="#F1F1F1" rx="16" ry="16" style="stroke:#181818;stroke-width:0.5;"/><path d="M57,510.1181 C61,510.1181 64,510.1181 68,506.1181 C76,506.1181 84,514.1181 84,522.1181 L84,526.1181 C84,530.1181 80,534.1181 76,534.1181 L38,534.1181 C34,534.1181 30,530.1181 30,526.1181 L30,522.1181 C30,514.1181 38,506.1181 46,506.1181 C50,510.1181 53,510.1181 57,510.1181 " fill="#F1F1F1" style="stroke:#181818;stroke-width:0.5;"/><text fill="#000000" font-family="sans-serif" font-size="14" lengthAdjust="spacing" textLength="31.8965" x="41.0518" y="549.1513">Kasir</text></g><!--entity Production--><g id="elem_Production"><ellipse cx="56.9756" cy="921.1181" fill="#F1F1F1" rx="16" ry="16" style="stroke:#181818;stroke-width:0.5;"/><path d="M56.9756,941.1181 C60.9756,941.1181 63.9756,941.1181 67.9756,937.1181 C75.9756,937.1181 83.9756,945.1181 83.9756,953.1181 L83.9756,957.1181 C83.9756,961.1181 79.9756,965.1181 75.9756,965.1181 L37.9756,965.1181 C33.9756,965.1181 29.9756,961.1181 29.9756,957.1181 L29.9756,953.1181 C29.9756,945.1181 37.9756,937.1181 45.9756,937.1181 C49.9756,941.1181 52.9756,941.1181 56.9756,941.1181 " fill="#F1F1F1" style="stroke:#181818;stroke-width:0.5;"/><text fill="#000000" font-family="sans-serif" font-size="14" lengthAdjust="spacing" textLength="101.9512" x="6" y="980.1513">Bagian Produksi</text></g><!--entity Visitor--><g id="elem_Visitor"><ellipse cx="56.8687" cy="4026.1181" fill="#F1F1F1" rx="16" ry="16" style="stroke:#181818;stroke-width:0.5;"/><path d="M56.8687,4046.1181 C60.8687,4046.1181 63.8687,4046.1181 67.8687,4042.1181 C75.8687,4042.1181 83.8687,4050.1181 83.8687,4058.1181 L83.8687,4062.1181 C83.8687,4066.1181 79.8687,4070.1181 75.8687,4070.1181 L37.8687,4070.1181 C33.8687,4070.1181 29.8687,4066.1181 29.8687,4062.1181 L29.8687,4058.1181 C29.8687,4050.1181 37.8687,4042.1181 45.8687,4042.1181 C49.8687,4046.1181 52.8687,4046.1181 56.8687,4046.1181 " fill="#F1F1F1" style="stroke:#181818;stroke-width:0.5;"/><text fill="#000000" font-family="sans-serif" font-size="14" lengthAdjust="spacing" textLength="74.7373" x="19.5" y="4085.1513">Pengunjung</text></g><!--link Admin to UC046--><g id="link_Admin_UC046"><path d="M84.78,1754.2181 C103.19,1773.8481 126.49,1802.3781 139,1832.1181 C149.26,1856.5081 128.69,1872.0181 147,1891.1181 C179.09,1924.5981 225.43,1932.5553 267.88,1932.5753 " fill="none" id="Admin-to-UC046" style="stroke:#181818;stroke-width:1.0;"/><polygon fill="#181818" points="273.88,1932.5781,264.88,1928.5781,268.88,1932.5781,264.88,1936.5781,273.88,1932.5781" style="stroke:#181818;stroke-width:1.0;"/></g><!--link Admin to UC047--><g id="link_Admin_UC047"><path d="M84.87,1743.6181 C102.32,1753.4381 125.71,1766.1181 147,1776.1181 C198.68,1800.4081 254.3654,1822.3123 294.3554,1837.3823 " fill="none" id="Admin-to-UC047" style="stroke:#181818;stroke-width:1.0;"/><polygon fill="#181818" points="299.97,1839.4981,292.9587,1832.5814,295.2912,1837.7349,290.1376,1840.0674,299.97,1839.4981" style="stroke:#181818;stroke-width:1.0;"/></g><!--link Admin to UC048--><g id="link_Admin_UC048"><path d="M73.55,1767.7581 C92.97,1819.3881 125.3,1912.9081 139,1996.1181 C141.2,2009.5081 139.38,2228.8981 147,2240.1181 C172.06,2277.0081 211.0842,2296.3137 251.4742,2308.2037 " fill="none" id="Admin-to-UC048" style="stroke:#181818;stroke-width:1.0;"/><polygon fill="#181818" points="257.23,2309.8981,249.7259,2303.5194,252.4335,2308.4861,247.4667,2311.1937,257.23,2309.8981" style="stroke:#181818;stroke-width:1.0;"/></g><!--link Admin to UC049--><g id="link_Admin_UC049"><path d="M71.65,1768.0081 C90.86,1826.2981 125.08,1938.5481 139,2037.1181 C141.56,2055.2781 135.27,2353.0281 147,2367.1181 C169.57,2394.2381 199.1437,2405.4773 233.7437,2410.1373 " fill="none" id="Admin-to-UC049" style="stroke:#181818;stroke-width:1.0;"/><polygon fill="#181818" points="239.69,2410.9381,231.3044,2405.7726,234.7347,2410.2707,230.2366,2413.701,239.69,2410.9381" style="stroke:#181818;stroke-width:1.0;"/></g><!--link Admin to UC050--><g id="link_Admin_UC050"><path d="M70.01,1767.7981 C88.85,1832.1881 124.69,1963.7881 139,2078.1181 C141.56,2098.5781 133.83,2433.2581 147,2449.1181 C169.87,2476.6681 200.139,2487.9033 235.229,2492.4133 " fill="none" id="Admin-to-UC050" style="stroke:#181818;stroke-width:1.0;"/><polygon fill="#181818" points="241.18,2493.1781,232.7633,2488.0635,236.2208,2492.5407,231.7435,2495.9982,241.18,2493.1781" style="stroke:#181818;stroke-width:1.0;"/></g><!--link Admin to UC051--><g id="link_Admin_UC051"><path d="M68.73,1767.6981 C87.19,1837.8481 124.37,1988.9181 139,2119.1181 C140.27,2130.4681 139.8,2521.2581 147,2530.1181 C165.61,2553.0381 187.477,2564.3444 216.227,2571.0544 " fill="none" id="Admin-to-UC051" style="stroke:#181818;stroke-width:1.0;"/><polygon fill="#181818" points="222.07,2572.4181,214.2147,2566.4773,217.2009,2571.2817,212.3964,2574.2679,222.07,2572.4181" style="stroke:#181818;stroke-width:1.0;"/></g><!--link Admin to UC052--><g id="link_Admin_UC052"><path d="M67.73,1767.6981 C85.82,1843.3581 124.13,2013.9881 139,2160.1181 C140.29,2172.7781 139.91,2607.5581 147,2618.1181 C172.17,2655.6181 212.1055,2674.8288 253.0055,2686.3688 " fill="none" id="Admin-to-UC052" style="stroke:#181818;stroke-width:1.0;"/><polygon fill="#181818" points="258.78,2687.9981,251.2044,2681.7045,253.9679,2686.6404,249.032,2689.4039,258.78,2687.9981" style="stroke:#181818;stroke-width:1.0;"/></g><!--link Admin to UC053--><g id="link_Admin_UC053"><path d="M66.92,1767.7981 C84.67,1848.8681 124,2039.5981 139,2202.1181 C140.38,2217.0881 137.38,2731.5681 147,2743.1181 C172.58,2773.8381 208.8852,2784.3515 247.6052,2787.1115 " fill="none" id="Admin-to-UC053" style="stroke:#181818;stroke-width:1.0;"/><polygon fill="#181818" points="253.59,2787.5381,244.8972,2782.9083,248.6027,2787.1826,244.3284,2790.8881,253.59,2787.5381" style="stroke:#181818;stroke-width:1.0;"/></g><!--link Admin to UC054--><g id="link_Admin_UC054"><path d="M58.48,1767.8081 C61.11,1954.4881 76.31,2739.5681 147,2820.1181 C168.92,2845.1081 195.8823,2856.2876 228.4423,2861.7376 " fill="none" id="Admin-to-UC054" style="stroke:#181818;stroke-width:1.0;"/><polygon fill="#181818" points="234.36,2862.7281,226.1438,2857.2972,229.4286,2861.9027,224.8231,2865.1875,234.36,2862.7281" style="stroke:#181818;stroke-width:1.0;"/></g><!--link Admin to UC055--><g id="link_Admin_UC055"><path d="M75.86,1688.5581 C90.83,1659.9281 114.91,1622.6281 147,1601.1181 C171.93,1584.4181 196.3929,1575.2697 225.6429,1568.7697 " fill="none" id="Admin-to-UC055" style="stroke:#181818;stroke-width:1.0;"/><polygon fill="#181818" points="231.5,1567.4681,221.8466,1565.5158,226.6191,1568.5528,223.582,1573.3252,231.5,1567.4681" style="stroke:#181818;stroke-width:1.0;"/></g><!--link Admin to UC056--><g id="link_Admin_UC056"><path d="M84.57,1710.2081 C101.72,1699.4281 124.87,1686.2481 147,1678.1181 C183.19,1664.8281 219.0191,1656.8794 254.6191,1651.0394 " fill="none" id="Admin-to-UC056" style="stroke:#181818;stroke-width:1.0;"/><polygon fill="#181818" points="260.54,1650.0681,251.0112,1647.5778,255.6059,1650.8775,252.3062,1655.4723,260.54,1650.0681" style="stroke:#181818;stroke-width:1.0;"/></g><!--link Admin to UC057--><g id="link_Admin_UC057"><path d="M84.51,1728.1181 C110.51,1728.1181 146.34,1728.1181 188.81,1728.1181 " fill="none" id="Admin-to-UC057" style="stroke:#181818;stroke-width:1.0;"/><polygon fill="#181818" points="194.81,1728.1181,185.81,1724.1181,189.81,1728.1181,185.81,1732.1181,194.81,1728.1181" style="stroke:#181818;stroke-width:1.0;"/></g><!--link Admin to UC058--><g id="link_Admin_UC058"><path d="M73.48,1688.2081 C91.77,1639.5581 121.87,1554.4781 139,1479.1181 C141.98,1466.0081 137.92,1429.0481 147,1419.1181 C167.14,1397.1081 189.8638,1386.2138 218.9738,1379.7238 " fill="none" id="Admin-to-UC058" style="stroke:#181818;stroke-width:1.0;"/><polygon fill="#181818" points="224.83,1378.4181,215.1752,1376.4724,219.9498,1379.5061,216.9161,1384.2807,224.83,1378.4181" style="stroke:#181818;stroke-width:1.0;"/></g><!--link Admin to UC059--><g id="link_Admin_UC059"><path d="M73.29,1688.5881 C96.82,1628.1781 139.92,1519.1781 147,1513.1181 C167.57,1495.5481 187.8096,1485.8801 214.1096,1478.7401 " fill="none" id="Admin-to-UC059" style="stroke:#181818;stroke-width:1.0;"/><polygon fill="#181818" points="219.9,1477.1681,210.1664,1475.6658,215.0747,1478.4781,212.2624,1483.3864,219.9,1477.1681" style="stroke:#181818;stroke-width:1.0;"/></g><!--link Admin to UC060--><g id="link_Admin_UC060"><path d="M84.67,1765.5081 C103.28,1793.6781 126.88,1834.0081 139,1873.1181 C144.75,1891.6681 135.66,1944.3681 147,1960.1181 C172.35,1995.3281 209.6393,2014.5089 248.8793,2026.9189 " fill="none" id="Admin-to-UC060" style="stroke:#181818;stroke-width:1.0;"/><polygon fill="#181818" points="254.6,2028.7281,247.2251,2022.2005,249.8327,2027.2204,244.8128,2029.8281,254.6,2028.7281" style="stroke:#181818;stroke-width:1.0;"/></g><!--link Admin to UC061--><g id="link_Admin_UC061"><path d="M80.3,1767.6581 C99.74,1804.3381 126.69,1861.1181 139,1914.1181 C143.4,1933.0781 134.24,2074.4181 147,2089.1181 C175.87,2122.3881 218.4716,2131.5595 260.0016,2132.5195 " fill="none" id="Admin-to-UC061" style="stroke:#181818;stroke-width:1.0;"/><polygon fill="#181818" points="266,2132.6581,257.0948,2128.4512,261.0013,2132.5426,256.91,2136.4491,266,2132.6581" style="stroke:#181818;stroke-width:1.0;"/></g><!--link Admin to UC062--><g id="link_Admin_UC062"><path d="M76.29,1767.6781 C95.87,1812.1781 125.87,1887.1281 139,1955.1181 C141.18,1966.4181 139.55,2153.3481 147,2162.1181 C171.49,2190.9781 204.7203,2201.886 241.6003,2205.606 " fill="none" id="Admin-to-UC062" style="stroke:#181818;stroke-width:1.0;"/><polygon fill="#181818" points="247.57,2206.2081,239.0169,2201.3251,242.5952,2205.7063,238.214,2209.2847,247.57,2206.2081" style="stroke:#181818;stroke-width:1.0;"/></g><!--link Admin to UC063--><g id="link_Admin_UC063"><path d="M67.05,1688.5781 C84.67,1609.5781 123.23,1426.3781 139,1270.1181 C140.71,1253.1481 136.04,976.1981 147,963.1181 C170.03,935.6381 200.4444,924.5667 235.5944,920.2667 " fill="none" id="Admin-to-UC063" style="stroke:#181818;stroke-width:1.0;"/><polygon fill="#181818" points="241.55,919.5381,232.1309,916.6606,236.587,920.1453,233.1023,924.6014,241.55,919.5381" style="stroke:#181818;stroke-width:1.0;"/></g><!--link Admin to UC064--><g id="link_Admin_UC064"><path d="M67.94,1688.4881 C85.92,1614.7681 123.44,1451.3081 139,1311.1181 C140.67,1296.0381 137.15,1049.6581 147,1038.1181 C174.02,1006.4581 212.9259,996.6736 252.8859,994.9036 " fill="none" id="Admin-to-UC064" style="stroke:#181818;stroke-width:1.0;"/><polygon fill="#181818" points="258.88,994.6381,249.7118,991.0403,253.8849,994.8594,250.0658,999.0325,258.88,994.6381" style="stroke:#181818;stroke-width:1.0;"/></g><!--link Admin to UC065--><g id="link_Admin_UC065"><path d="M68.98,1688.4581 C87.29,1620.3181 123.57,1476.3681 139,1352.1181 C140.57,1339.4881 138.83,1132.8781 147,1123.1181 C167.39,1098.7681 192.2804,1087.5509 223.4304,1081.7809 " fill="none" id="Admin-to-UC065" style="stroke:#181818;stroke-width:1.0;"/><polygon fill="#181818" points="229.33,1080.6881,219.752,1078.3942,224.4136,1081.5988,221.2091,1086.2604,229.33,1080.6881" style="stroke:#181818;stroke-width:1.0;"/></g><!--link Admin to UC066--><g id="link_Admin_UC066"><path d="M70.28,1688.5081 C88.91,1626.4581 123.75,1502.2381 139,1394.1181 C141.94,1373.3081 133.41,1221.1581 147,1205.1181 C169.82,1178.2081 199.4342,1167.013 234.0042,1162.333 " fill="none" id="Admin-to-UC066" style="stroke:#181818;stroke-width:1.0;"/><polygon fill="#181818" points="239.95,1161.5281,230.4947,1158.7717,234.9952,1162.1989,231.568,1166.6994,239.95,1161.5281" style="stroke:#181818;stroke-width:1.0;"/></g><!--link Admin to UC067--><g id="link_Admin_UC067"><path d="M71.63,1688.5381 C90.16,1632.9081 122.86,1528.0981 139,1436.1181 C143.01,1413.2881 133.56,1351.0081 147,1332.1181 C172.81,1295.8681 211.7621,1276.6389 251.9121,1264.6189 " fill="none" id="Admin-to-UC067" style="stroke:#181818;stroke-width:1.0;"/><polygon fill="#181818" points="257.66,1262.8981,247.8909,1261.6474,252.87,1264.3321,250.1853,1269.3113,257.66,1262.8981" style="stroke:#181818;stroke-width:1.0;"/></g><!--link Admin to UC068--><g id="link_Admin_UC068"><path d="M60.54,1688.5581 C72.94,1496.3081 127.47,668.1081 147,650.1181 C267.64,539.0281 368.86,577.6881 516,650.1181 C626.23,704.3881 691.9218,843.1557 713.3518,894.8357 " fill="none" id="Admin-to-UC068" style="stroke:#181818;stroke-width:1.0;"/><polygon fill="#181818" points="715.65,900.3781,715.8976,890.5324,713.7348,895.7595,708.5077,893.5967,715.65,900.3781" style="stroke:#181818;stroke-width:1.0;"/></g><!--link Admin to UC069--><g id="link_Admin_UC069"><path d="M65.81,1688.3681 C82.9,1599.2581 123.35,1376.5981 139,1188.1181 C140.09,1174.9681 137.59,722.3781 147,713.1181 C263.94,598.1381 374.35,630.4681 516,713.1181 C566.71,742.7081 561.15,772.8681 581,828.1181 C600.38,882.0681 566.39,911.4281 603.5,955.1181 C613.32,966.6881 621.0229,972.6867 635.0829,978.7667 " fill="none" id="Admin-to-UC069" style="stroke:#181818;stroke-width:1.0;"/><polygon fill="#181818" points="640.59,981.1481,633.9169,973.9045,636.0007,979.1636,630.7416,981.2474,640.59,981.1481" style="stroke:#181818;stroke-width:1.0;"/></g><!--link Admin to UC070--><g id="link_Admin_UC070"><path d="M66.41,1688.5881 C83.85,1604.5181 123.62,1401.5581 139,1229.1181 C140.16,1216.0881 137.67,767.2981 147,758.1181 C205.47,700.6381 449.09,710.7181 516,758.1181 C587.11,808.5081 556.58,859.4681 581,943.1181 C593.28,985.1881 574.35,1006.3981 603.5,1039.1181 C613.62,1050.4781 621.471,1056.4379 635.561,1062.5879 " fill="none" id="Admin-to-UC070" style="stroke:#181818;stroke-width:1.0;"/><polygon fill="#181818" points="641.06,1064.9881,634.4116,1057.7218,636.4775,1062.988,631.2114,1065.0538,641.06,1064.9881" style="stroke:#181818;stroke-width:1.0;"/></g><!--link NewUser to UC071--><g id="link_NewUser_UC071"><path d="M392.43,4043.9081 C448.96,4010.0281 540.38,3945.2481 581,3861.1181 C622.32,3775.5581 559.09,3518.1281 603.5,3434.1181 C620.5,3401.9581 649.2223,3380.755 676.6023,3365.455 " fill="none" id="NewUser-to-UC071" style="stroke:#181818;stroke-width:1.0;"/><polygon fill="#181818" points="681.84,3362.5281,672.0322,3363.4266,677.4752,3364.9672,675.9347,3370.4102,681.84,3362.5281" style="stroke:#181818;stroke-width:1.0;"/></g><!--link NewUser to UC072--><g id="link_NewUser_UC072"><path d="M392.36,4075.6381 C505.65,4085.6981 790.81,4092.9581 926,3932.1181 C997.34,3847.2481 904.12,3532.0981 956,3434.1181 C971.44,3404.9581 996.4248,3385.657 1021.4848,3371.067 " fill="none" id="NewUser-to-UC072" style="stroke:#181818;stroke-width:1.0;"/><polygon fill="#181818" points="1026.67,3368.0481,1016.8796,3369.1196,1022.349,3370.5638,1020.9047,3376.0332,1026.67,3368.0481" style="stroke:#181818;stroke-width:1.0;"/></g><!--link Inventory to UC046--><g id="link_Inventory_UC046"><path d="M69.99,3024.4081 C88.97,2959.2981 125.23,2825.4181 139,2709.1181 C141.3,2689.6681 135.92,2020.2681 147,2004.1181 C175.84,1962.0881 225.4175,1943.8799 269.9175,1934.9399 " fill="none" id="Inventory-to-UC046" style="stroke:#181818;stroke-width:1.0;"/><polygon fill="#181818" points="275.8,1933.7581,266.1884,1931.6092,270.8979,1934.7429,267.7642,1939.4524,275.8,1933.7581" style="stroke:#181818;stroke-width:1.0;"/></g><!--link Inventory to UC047--><g id="link_Inventory_UC047"><path d="M66.41,3024.4381 C83.94,2939.5481 124.02,2733.8481 139,2559.1181 C140.58,2540.6281 135.04,1905.3081 147,1891.1181 C176.14,1856.5481 220.6501,1847.9636 263.0301,1847.7836 " fill="none" id="Inventory-to-UC047" style="stroke:#181818;stroke-width:1.0;"/><polygon fill="#181818" points="269.03,1847.7581,260.0131,1843.7964,264.03,1847.7794,260.0471,1851.7963,269.03,1847.7581" style="stroke:#181818;stroke-width:1.0;"/></g><!--link Inventory to UC073--><g id="link_Inventory_UC073"><path d="M107.56,3064.1181 C143.22,3064.1181 186.64,3064.1181 230.97,3064.1181 " fill="none" id="Inventory-to-UC073" style="stroke:#181818;stroke-width:1.0;"/><polygon fill="#181818" points="236.97,3064.1181,227.97,3060.1181,231.97,3064.1181,227.97,3068.1181,236.97,3064.1181" style="stroke:#181818;stroke-width:1.0;"/></g><!--link Inventory to UC074--><g id="link_Inventory_UC074"><path d="M107.55,3089.3881 C120.19,3095.1481 133.91,3100.8281 147,3105.1181 C183.21,3116.9881 218.4989,3124.9635 253.6989,3131.4335 " fill="none" id="Inventory-to-UC074" style="stroke:#181818;stroke-width:1.0;"/><polygon fill="#181818" points="259.6,3132.5181,251.4714,3126.957,254.6824,3131.6142,250.0252,3134.8252,259.6,3132.5181" style="stroke:#181818;stroke-width:1.0;"/></g><!--link Inventory to UC075--><g id="link_Inventory_UC075"><path d="M59.34,3103.8181 C64.66,3248.8281 86.47,3743.9581 138,3790.1181 C211.32,3855.8081 509.79,3858.0981 581,3790.1181 C620.02,3752.8681 578.94,3353.1481 603.5,3305.1181 C620.03,3272.7981 647.9357,3250.9295 675.1057,3234.7395 " fill="none" id="Inventory-to-UC075" style="stroke:#181818;stroke-width:1.0;"/><polygon fill="#181818" points="680.26,3231.6681,670.481,3232.8389,675.9647,3234.2276,674.5761,3239.7113,680.26,3231.6681" style="stroke:#181818;stroke-width:1.0;"/></g><!--link Inventory to UC076--><g id="link_Inventory_UC076"><path d="M59.37,3103.7081 C65.04,3256.3581 89.24,3800.6681 147,3849.1181 C427.05,4084.0781 740.58,3900.1681 926,3585.1181 C989.48,3477.2581 897.55,3415.7881 956,3305.1181 C972.03,3274.7681 997.1705,3253.3405 1022.0705,3236.7105 " fill="none" id="Inventory-to-UC076" style="stroke:#181818;stroke-width:1.0;"/><polygon fill="#181818" points="1027.06,3233.3781,1017.3541,3235.0503,1022.9021,3236.1551,1021.7973,3241.703,1027.06,3233.3781" style="stroke:#181818;stroke-width:1.0;"/></g><!--link Inventory to UC077--><g id="link_Inventory_UC077"><path d="M59.91,3103.8981 C69.13,3292.6281 110.16,4090.0881 147,4127.1181 C274.29,4255.0781 371.01,4163.1181 551.5,4163.1181 C551.5,4163.1181 551.5,4163.1181 1069.5,4163.1181 C1271.47,4163.1181 1388.8939,3400.5396 1410.5439,3246.6896 " fill="none" id="Inventory-to-UC077" style="stroke:#181818;stroke-width:1.0;"/><polygon fill="#181818" points="1411.38,3240.7481,1406.1649,3249.1029,1410.6833,3245.6993,1414.0868,3250.2177,1411.38,3240.7481" style="stroke:#181818;stroke-width:1.0;"/></g><!--link Inventory to UC078--><g id="link_Inventory_UC078"><path d="M77.13,3103.7781 C92.3,3130.9281 116.09,3165.4481 147,3185.1181 C178.39,3205.0981 211.9485,3214.3423 247.2085,3219.3023 " fill="none" id="Inventory-to-UC078" style="stroke:#181818;stroke-width:1.0;"/><polygon fill="#181818" points="253.15,3220.1381,244.7949,3214.9234,248.1987,3219.4416,243.6806,3222.8454,253.15,3220.1381" style="stroke:#181818;stroke-width:1.0;"/></g><!--link Inventory to UC079--><g id="link_Inventory_UC079"><path d="M107.54,3038.8081 C120.17,3033.0481 133.9,3027.3781 147,3023.1181 C184.52,3010.9281 221.48,3002.8934 257.5,2996.5834 " fill="none" id="Inventory-to-UC079" style="stroke:#181818;stroke-width:1.0;"/><polygon fill="#181818" points="263.41,2995.5481,253.8548,2993.1611,258.485,2996.4109,255.2352,3001.0411,263.41,2995.5481" style="stroke:#181818;stroke-width:1.0;"/></g><!--link Inventory to UC063--><g id="link_Inventory_UC063"><path d="M60.09,3024.5381 C70.16,2832.4681 114.23,1978.3881 139,1278.1181 C139.31,1269.3781 141.38,969.8281 147,963.1181 C170.02,935.6281 200.4244,924.5565 235.5844,920.2565 " fill="none" id="Inventory-to-UC063" style="stroke:#181818;stroke-width:1.0;"/><polygon fill="#181818" points="241.54,919.5281,232.121,916.6502,236.577,920.1351,233.0921,924.5911,241.54,919.5281" style="stroke:#181818;stroke-width:1.0;"/></g><!--link Inventory to UC064--><g id="link_Inventory_UC064"><path d="M63.55,3024.5081 C79.17,2910.9381 123.37,2574.3181 139,2293.1181 C139.97,2275.7181 135.84,1051.5081 147,1038.1181 C173.88,1005.8881 213.2846,996.1532 253.5746,994.5732 " fill="none" id="Inventory-to-UC064" style="stroke:#181818;stroke-width:1.0;"/><polygon fill="#181818" points="259.57,994.3381,250.4202,990.6939,254.5738,994.5341,250.7337,998.6877,259.57,994.3381" style="stroke:#181818;stroke-width:1.0;"/></g><!--link Inventory to UC065--><g id="link_Inventory_UC065"><path d="M63.95,3024.2781 C79.92,2915.2581 123.53,2602.7481 139,2341.1181 C140,2324.2381 136.32,1136.2481 147,1123.1181 C167.15,1098.3481 192.1672,1087.0236 223.5072,1081.3136 " fill="none" id="Inventory-to-UC065" style="stroke:#181818;stroke-width:1.0;"/><polygon fill="#181818" points="229.41,1080.2381,219.8388,1077.9161,224.491,1081.1343,221.2727,1085.7865,229.41,1080.2381" style="stroke:#181818;stroke-width:1.0;"/></g><!--link Inventory to UC066--><g id="link_Inventory_UC066"><path d="M64.43,3024.3581 C80.78,2921.0881 123.72,2635.7081 139,2396.1181 C140.05,2379.6081 136.53,1217.9281 147,1205.1181 C169.55,1177.5381 199.55,1166.261 234.5,1161.721 " fill="none" id="Inventory-to-UC066" style="stroke:#181818;stroke-width:1.0;"/><polygon fill="#181818" points="240.45,1160.9481,231.0097,1158.1408,235.4917,1161.5922,232.0403,1166.0742,240.45,1160.9481" style="stroke:#181818;stroke-width:1.0;"/></g><!--link Inventory to UC067--><g id="link_Inventory_UC067"><path d="M65.17,3024.2781 C82.04,2928.2881 123.98,2676.4381 139,2464.1181 C140.11,2448.4381 138.33,1345.2381 147,1332.1181 C171.38,1295.2181 209.8454,1275.9465 250.0654,1264.0765 " fill="none" id="Inventory-to-UC067" style="stroke:#181818;stroke-width:1.0;"/><polygon fill="#181818" points="255.82,1262.3781,246.0558,1261.0892,251.0245,1263.7934,248.3203,1268.7621,255.82,1262.3781" style="stroke:#181818;stroke-width:1.0;"/></g><!--link Inventory to UC068--><g id="link_Inventory_UC068"><path d="M58.48,3103.7081 C60.74,3214.4181 73.62,3523.2181 147,3585.1181 C220.71,3647.3081 512.51,3653.0281 581,3585.1181 C632.88,3533.6781 559.67,1013.5781 603.5,955.1181 C614.68,940.2081 626.0797,932.971 643.9397,927.651 " fill="none" id="Inventory-to-UC068" style="stroke:#181818;stroke-width:1.0;"/><polygon fill="#181818" points="649.69,925.9381,639.9226,924.6739,644.8981,927.3655,642.2064,932.341,649.69,925.9381" style="stroke:#181818;stroke-width:1.0;"/></g><!--link Inventory to UC069--><g id="link_Inventory_UC069"><path d="M60.45,3103.6581 C68.62,3229.1181 96.79,3612.1681 138,3648.1181 C212.18,3712.8381 511.09,3717.4281 581,3648.1181 C632.47,3597.0981 561.35,1098.0781 603.5,1039.1181 C612.07,1027.1381 618.8841,1021.0447 632.3241,1014.8947 " fill="none" id="Inventory-to-UC069" style="stroke:#181818;stroke-width:1.0;"/><polygon fill="#181818" points="637.78,1012.3981,627.9317,1012.5057,633.2334,1014.4786,631.2605,1019.7803,637.78,1012.3981" style="stroke:#181818;stroke-width:1.0;"/></g><!--link Inventory to UC070--><g id="link_Inventory_UC070"><path d="M59.83,3103.6281 C66.51,3238.9881 91.63,3678.0681 138,3719.1181 C211.71,3784.3781 510.38,3787.7081 581,3719.1181 C596.41,3704.1581 602.5,2967.5781 603.5,2946.1181 C638.59,2192.9981 708.0499,1276.3505 720.5899,1113.3005 " fill="none" id="Inventory-to-UC070" style="stroke:#181818;stroke-width:1.0;"/><polygon fill="#181818" points="721.05,1107.3181,716.3716,1115.9849,720.6666,1112.3034,724.3481,1116.5984,721.05,1107.3181" style="stroke:#181818;stroke-width:1.0;"/></g><!--link Cashier to UC046--><g id="link_Cashier_UC046"><path d="M64.56,552.8381 C75.54,620.9981 97.47,764.7481 108,887.1181 C109.2,901.0281 137.84,1880.5981 147,1891.1181 C178.13,1926.8781 226.2209,1934.4346 269.6209,1933.6646 " fill="none" id="Cashier-to-UC046" style="stroke:#181818;stroke-width:1.0;"/><polygon fill="#181818" points="275.62,1933.5581,266.5505,1929.7184,270.6208,1933.6468,266.6924,1937.7171,275.62,1933.5581" style="stroke:#181818;stroke-width:1.0;"/></g><!--link Cashier to UC047--><g id="link_Cashier_UC047"><path d="M80.97,552.9081 C100.72,589.5281 127.74,646.0581 139,699.1181 C142.1,713.7581 138.59,1763.7481 147,1776.1181 C174.89,1817.1381 222.1658,1835.5987 266.0058,1845.0887 " fill="none" id="Cashier-to-UC047" style="stroke:#181818;stroke-width:1.0;"/><polygon fill="#181818" points="271.87,1846.3581,263.92,1840.5446,266.9832,1845.3003,262.2275,1848.3635,271.87,1846.3581" style="stroke:#181818;stroke-width:1.0;"/></g><!--link Cashier to UC088--><g id="link_Cashier_UC088"><path d="M84.64,473.9481 C99.94,456.5381 119.86,442.1781 139,453.1181 C264.22,524.7481 318.5352,700.9372 335.2952,767.9972 " fill="none" id="Cashier-to-UC088" style="stroke:#181818;stroke-width:1.0;"/><polygon fill="#181818" points="336.75,773.8181,338.4484,764.1168,335.5377,768.9673,330.6872,766.0566,336.75,773.8181" style="stroke:#181818;stroke-width:1.0;"/></g><!--link Cashier to UC063--><g id="link_Cashier_UC063"><path d="M84.68,495.8481 C102.32,486.7981 124.74,480.1881 139,494.1181 C152.75,507.5581 136.2,824.2081 147,840.1181 C172.52,877.7281 212.9941,896.7695 254.1141,908.0595 " fill="none" id="Cashier-to-UC063" style="stroke:#181818;stroke-width:1.0;"/><polygon fill="#181818" points="259.9,909.6481,252.2802,903.408,255.0784,908.3243,250.1621,911.1225,259.9,909.6481" style="stroke:#181818;stroke-width:1.0;"/></g><!--link Cashier to UC064--><g id="link_Cashier_UC064"><path d="M84.7,512.6381 C103.08,513.8881 126.37,518.9181 139,535.1181 C153.62,553.8781 131.7,944.9081 147,963.1181 C173.8,995.0181 212.6972,1005.0145 252.6972,1006.9745 " fill="none" id="Cashier-to-UC064" style="stroke:#181818;stroke-width:1.0;"/><polygon fill="#181818" points="258.69,1007.2681,249.8966,1002.8324,253.696,1007.0234,249.505,1010.8229,258.69,1007.2681" style="stroke:#181818;stroke-width:1.0;"/></g><!--link Cashier to UC065--><g id="link_Cashier_UC065"><path d="M84.76,525.7881 C103.67,536.3481 127.61,553.3381 139,576.1181 C150.48,599.0881 130.74,1018.2581 147,1038.1181 C167.19,1062.7981 192.1242,1074.195 223.3742,1080.095 " fill="none" id="Cashier-to-UC065" style="stroke:#181818;stroke-width:1.0;"/><polygon fill="#181818" points="229.27,1081.2081,221.1683,1075.6079,224.3568,1080.2805,219.6841,1083.469,229.27,1081.2081" style="stroke:#181818;stroke-width:1.0;"/></g><!--link Cashier to UC066--><g id="link_Cashier_UC066"><path d="M84.66,537.5781 C103.79,557.0181 128.05,586.0381 139,617.1181 C148.34,643.6381 129.11,1101.4381 147,1123.1181 C169.62,1150.5381 199.5211,1161.7865 234.3811,1166.3665 " fill="none" id="Cashier-to-UC066" style="stroke:#181818;stroke-width:1.0;"/><polygon fill="#181818" points="240.33,1167.1481,231.9277,1162.0098,235.3726,1166.4968,230.8856,1169.9417,240.33,1167.1481" style="stroke:#181818;stroke-width:1.0;"/></g><!--link Cashier to UC067--><g id="link_Cashier_UC067"><path d="M84.57,548.7781 C103.79,576.8681 128.21,617.8781 139,658.1181 C142.93,672.7681 137.41,1192.3681 147,1204.1181 C167.71,1229.4981 193.762,1240.9715 225.882,1246.6615 " fill="none" id="Cashier-to-UC067" style="stroke:#181818;stroke-width:1.0;"/><polygon fill="#181818" points="231.79,1247.7081,223.6257,1242.1996,226.8667,1246.836,222.2302,1250.0769,231.79,1247.7081" style="stroke:#181818;stroke-width:1.0;"/></g><!--link Cashier to UC068--><g id="link_Cashier_UC068"><path d="M63.45,473.4281 C74.8,397.3881 103.56,235.8481 147,203.1181 C301.12,87.0281 442.46,79.8281 581,214.1181 C683.65,313.6181 715.9407,793.2477 721.6807,894.5777 " fill="none" id="Cashier-to-UC068" style="stroke:#181818;stroke-width:1.0;"/><polygon fill="#181818" points="722.02,900.5681,725.5046,891.3563,721.7372,895.5761,717.5174,891.8088,722.02,900.5681" style="stroke:#181818;stroke-width:1.0;"/></g><!--link Cashier to UC069--><g id="link_Cashier_UC069"><path d="M68.17,473.5981 C79.21,439.7281 100.5,393.0381 138,371.1181 C308.22,271.6481 442.42,253.8881 581,394.1181 C624.85,438.4981 566.42,904.9481 603.5,955.1181 C612.26,966.9681 619.1574,973.0162 632.6274,979.1362 " fill="none" id="Cashier-to-UC069" style="stroke:#181818;stroke-width:1.0;"/><polygon fill="#181818" points="638.09,981.6181,631.5507,974.2535,633.5378,979.5499,628.2415,981.537,638.09,981.6181" style="stroke:#181818;stroke-width:1.0;"/></g><!--link Cashier to UC070--><g id="link_Cashier_UC070"><path d="M74.96,473.4481 C88.74,448.0381 110.55,420.8981 139,427.1181 C350.18,473.2981 459.37,451.4181 581,630.1181 C632.22,705.3681 549.13,966.1181 603.5,1039.1181 C612.32,1050.9681 619.2628,1057.0425 632.7528,1063.2725 " fill="none" id="Cashier-to-UC070" style="stroke:#181818;stroke-width:1.0;"/><polygon fill="#181818" points="638.2,1065.7881,631.7063,1058.3832,633.6607,1063.6918,628.3522,1065.6461,638.2,1065.7881" style="stroke:#181818;stroke-width:1.0;"/></g><!--link Production to UC046--><g id="link_Production_UC046"><path d="M61.74,983.9081 C78.63,1163.6481 147,1891.1181 147,1891.1181 C178.75,1925.6381 225.9402,1933.4071 268.8302,1933.0571 " fill="none" id="Production-to-UC046" style="stroke:#181818;stroke-width:1.0;"/><polygon fill="#181818" points="274.83,1933.0081,265.7977,1929.0817,269.8302,1933.0489,265.8629,1937.0814,274.83,1933.0081" style="stroke:#181818;stroke-width:1.0;"/></g><!--link Production to UC047--><g id="link_Production_UC047"><path d="M83.83,983.8981 C103.19,1016.1881 128.15,1063.6481 139,1109.1181 C143.3,1127.1481 136.55,1760.8181 147,1776.1181 C174.98,1817.0781 222.2462,1835.5369 266.0662,1845.0369 " fill="none" id="Production-to-UC047" style="stroke:#181818;stroke-width:1.0;"/><polygon fill="#181818" points="271.93,1846.3081,263.9818,1840.4921,267.0435,1845.2488,262.2868,1848.3104,271.93,1846.3081" style="stroke:#181818;stroke-width:1.0;"/></g><!--link Production to UC063--><g id="link_Production_UC063"><path d="M108.31,914.6181 C117.88,910.2781 128.03,906.4781 138,904.1181 C182.77,893.5581 228.4412,897.3609 268.6012,904.8309 " fill="none" id="Production-to-UC063" style="stroke:#181818;stroke-width:1.0;"/><polygon fill="#181818" points="274.5,905.9281,266.3832,900.3498,269.5843,905.0138,264.9203,908.2148,274.5,905.9281" style="stroke:#181818;stroke-width:1.0;"/></g><!--link Production to UC064--><g id="link_Production_UC064"><path d="M108.16,936.1681 C119.03,936.6981 129.96,939.1681 139,945.1181 C146.31,949.9381 140.15,957.6681 147,963.1181 C177.03,987.0181 211.806,996.6816 248.326,1000.7016 " fill="none" id="Production-to-UC064" style="stroke:#181818;stroke-width:1.0;"/><polygon fill="#181818" points="254.29,1001.3581,245.7817,996.3974,249.32,1000.811,244.9064,1004.3494,254.29,1001.3581" style="stroke:#181818;stroke-width:1.0;"/></g><!--link Production to UC065--><g id="link_Production_UC065"><path d="M108.05,960.8881 C119.85,967.0781 131.24,975.3081 139,986.1181 C152.63,1005.1181 131,1021.0681 147,1038.1181 C168.46,1060.9981 193.1938,1071.9251 223.8638,1077.9851 " fill="none" id="Production-to-UC065" style="stroke:#181818;stroke-width:1.0;"/><polygon fill="#181818" points="229.75,1079.1481,221.6961,1073.4794,224.8448,1078.1789,220.1453,1081.3277,229.75,1079.1481" style="stroke:#181818;stroke-width:1.0;"/></g><!--link Production to UC066--><g id="link_Production_UC066"><path d="M107.78,984.0481 C120.04,996.4981 131.73,1011.1881 139,1027.1181 C147.89,1046.5981 132.83,1107.0781 147,1123.1181 C170.19,1149.3681 199.5682,1160.4542 233.8382,1165.2642 " fill="none" id="Production-to-UC066" style="stroke:#181818;stroke-width:1.0;"/><polygon fill="#181818" points="239.78,1166.0981,231.4233,1160.886,234.8285,1165.4032,230.3114,1168.8084,239.78,1166.0981" style="stroke:#181818;stroke-width:1.0;"/></g><!--link Production to UC067--><g id="link_Production_UC067"><path d="M91.6,983.7681 C109.07,1006.8381 128.85,1037.3581 139,1068.1181 C143.74,1082.4981 137.17,1192.6081 147,1204.1181 C168.15,1228.8981 194.1254,1240.2323 226.0354,1245.9923 " fill="none" id="Production-to-UC067" style="stroke:#181818;stroke-width:1.0;"/><polygon fill="#181818" points="231.94,1247.0581,223.7937,1241.523,227.0195,1246.1699,222.3726,1249.3958,231.94,1247.0581" style="stroke:#181818;stroke-width:1.0;"/></g><!--link Production to UC068--><g id="link_Production_UC068"><path d="M63.43,904.5581 C72.77,836.3381 92.37,692.1181 108,570.1181 C117.05,499.4981 93.68,299.2981 147,252.1181 C219.23,188.2081 506.04,191.4381 581,252.1181 C686.02,337.1381 716.3243,794.797 721.7343,894.317 " fill="none" id="Production-to-UC068" style="stroke:#181818;stroke-width:1.0;"/><polygon fill="#181818" points="722.06,900.3081,725.5656,891.1043,721.7886,895.3155,717.5774,891.5385,722.06,900.3081" style="stroke:#181818;stroke-width:1.0;"/></g><!--link Production to UC069--><g id="link_Production_UC069"><path d="M60.52,904.4881 C67.36,811.2181 89.76,582.2181 147,536.1181 C297.23,415.1281 441,403.4381 581,536.1181 C614.84,568.1881 575.54,917.8181 603.5,955.1181 C612.4,966.9981 619.45,973.0626 633.05,979.1926 " fill="none" id="Production-to-UC069" style="stroke:#181818;stroke-width:1.0;"/><polygon fill="#181818" points="638.52,981.6581,631.9587,974.3131,633.9616,979.6035,628.6713,981.6065,638.52,981.6581" style="stroke:#181818;stroke-width:1.0;"/></g><!--link Production to UC070--><g id="link_Production_UC070"><path d="M57.94,904.2681 C60.27,843.7381 74.68,730.1881 147,678.1181 C303.54,565.4281 440.43,546.0381 581,678.1181 C639.58,733.1581 555.25,974.8381 603.5,1039.1181 C612.37,1050.9381 619.3328,1056.9925 632.8228,1063.2225 " fill="none" id="Production-to-UC070" style="stroke:#181818;stroke-width:1.0;"/><polygon fill="#181818" points="638.27,1065.7381,631.7763,1058.3332,633.7307,1063.6418,628.4222,1065.5961,638.27,1065.7381" style="stroke:#181818;stroke-width:1.0;"/></g><!--link Visitor to UC089--><g id="link_Visitor_UC089"><path d="M94.64,4038.6181 C110.74,4032.1381 128.37,4022.1081 139,4007.1181 C153.55,3986.6181 139.68,3975.1781 147,3951.1181 C193.56,3798.0581 287.3805,3635.5895 324.4905,3574.3495 " fill="none" id="Visitor-to-UC089" style="stroke:#181818;stroke-width:1.0;"/><polygon fill="#181818" points="327.6,3569.2181,319.5148,3574.8422,325.0088,3573.4943,326.3567,3578.9882,327.6,3569.2181" style="stroke:#181818;stroke-width:1.0;"/></g><!--link Visitor to UC090--><g id="link_Visitor_UC090"><path d="M94.84,4033.9581 C212.4,3985.5381 571.45,3837.2081 581,3828.1181 C664.98,3748.2181 703.9852,3614.1989 716.8552,3561.1589 " fill="none" id="Visitor-to-UC090" style="stroke:#181818;stroke-width:1.0;"/><polygon fill="#181818" points="718.27,3555.3281,712.2606,3563.1311,717.091,3560.1871,720.035,3565.0175,718.27,3555.3281" style="stroke:#181818;stroke-width:1.0;"/></g><!--link Visitor to UC091--><g id="link_Visitor_UC091"><path d="M71,4088.8981 C84.29,4122.3481 108.5,4167.9781 147,4189.1181 C428.25,4343.5981 608.08,4279.5881 861,4082.1181 C1035.64,3945.7681 1062.3336,3649.0303 1066.4636,3568.2503 " fill="none" id="Visitor-to-UC091" style="stroke:#181818;stroke-width:1.0;"/><polygon fill="#181818" points="1066.77,3562.2581,1062.3157,3571.0421,1066.5147,3567.2516,1070.3052,3571.4506,1066.77,3562.2581" style="stroke:#181818;stroke-width:1.0;"/></g><!--link Visitor to UC092--><g id="link_Visitor_UC092"><path d="M58.73,4009.5281 C61.68,3896.3581 76.25,3574.9781 147,3503.1181 C179.05,3470.5681 224.3002,3462.391 266.2802,3462.021 " fill="none" id="Visitor-to-UC092" style="stroke:#181818;stroke-width:1.0;"/><polygon fill="#181818" points="272.28,3461.9681,263.2451,3458.0476,267.2802,3462.0122,263.3156,3466.0473,272.28,3461.9681" style="stroke:#181818;stroke-width:1.0;"/></g><!--link UC049 to UC071--><g id="link_UC049_UC071"><path d="M446.74,2412.2581 C472.66,2418.2581 498.18,2429.3281 516,2449.1181 C665.07,2614.6681 558.61,2724.4781 581,2946.1181 C588.05,3015.9481 568.61,3200.2281 603.5,3261.1181 C619.95,3289.8281 645.6896,3307.9431 672.0296,3321.4331 " fill="none" id="UC049-to-UC071" style="stroke:#181818;stroke-width:1.0;stroke-dasharray:7.0,7.0;"/><polygon fill="#181818" points="677.37,3324.1681,671.1828,3316.5053,672.9197,3321.8889,667.5361,3323.6258,677.37,3324.1681" style="stroke:#181818;stroke-width:1.0;"/><text fill="#000000" font-family="sans-serif" font-size="13" lengthAdjust="spacing" textLength="55.6563" x="525" y="2455.6132">&#171;include&#187;</text></g><!--link UC071 to UC072--><g id="link_UC071_UC072"><path d="M820.41,3344.5181 C867.02,3345.1981 917.0306,3345.9199 963.9306,3346.6099 " fill="none" id="UC071-to-UC072" style="stroke:#181818;stroke-width:1.0;stroke-dasharray:7.0,7.0;"/><polygon fill="#181818" points="969.93,3346.6981,960.9898,3342.5662,964.9305,3346.6246,960.8721,3350.5653,969.93,3346.6981" style="stroke:#181818;stroke-width:1.0;"/><text fill="#000000" font-family="sans-serif" font-size="13" lengthAdjust="spacing" textLength="53.4917" x="871" y="3342.6132">&#171;extend&#187;</text></g><!--link UC074 to UC075--><g id="link_UC074_UC075"><path d="M424.31,3158.8281 C487.42,3169.6681 569.3665,3183.7432 633.4565,3194.7432 " fill="none" id="UC074-to-UC075" style="stroke:#181818;stroke-width:1.0;stroke-dasharray:7.0,7.0;"/><polygon fill="#181818" points="639.37,3195.7581,631.1763,3190.2933,634.4421,3194.9123,629.8231,3198.178,639.37,3195.7581" style="stroke:#181818;stroke-width:1.0;"/><text fill="#000000" font-family="sans-serif" font-size="13" lengthAdjust="spacing" textLength="53.4917" x="526" y="3174.6132">&#171;extend&#187;</text></g><!--link UC075 to UC076--><g id="link_UC075_UC076"><path d="M830.56,3210.1181 C870.26,3210.1181 909.52,3210.1181 949.76,3210.1181 " fill="none" id="UC075-to-UC076" style="stroke:#181818;stroke-width:1.0;stroke-dasharray:7.0,7.0;"/><polygon fill="#181818" points="955.76,3210.1181,946.76,3206.1181,950.76,3210.1181,946.76,3214.1181,955.76,3210.1181" style="stroke:#181818;stroke-width:1.0;"/><text fill="#000000" font-family="sans-serif" font-size="13" lengthAdjust="spacing" textLength="55.6563" x="870" y="3206.6132">&#171;include&#187;</text></g><!--link UC076 to UC077--><g id="link_UC076_UC077"><path d="M1181.2,3211.4181 C1217.87,3211.8381 1252.7504,3212.2388 1289.9504,3212.6688 " fill="none" id="UC076-to-UC077" style="stroke:#181818;stroke-width:1.0;stroke-dasharray:7.0,7.0;"/><polygon fill="#181818" points="1295.95,3212.7381,1286.9968,3208.6344,1290.9503,3212.6803,1286.9044,3216.6338,1295.95,3212.7381" style="stroke:#181818;stroke-width:1.0;"/><text fill="#000000" font-family="sans-serif" font-size="13" lengthAdjust="spacing" textLength="53.4917" x="1212" y="3208.6132">&#171;extend&#187;</text></g><!--link UC067 to UC068--><g id="link_UC067_UC068"><path d="M452.39,1241.5281 C476.73,1235.0181 500.06,1223.5981 516,1204.1181 C528.12,1189.3181 516.13,1049.5581 524,1032.1181 C544.23,987.2881 561.08,980.0281 603.5,955.1181 C621.72,944.4181 637.6091,938.2549 657.4691,932.7349 " fill="none" id="UC067-to-UC068" style="stroke:#181818;stroke-width:1.0;stroke-dasharray:7.0,7.0;"/><polygon fill="#181818" points="663.25,931.1281,653.5075,929.6844,658.4326,932.4671,655.6499,937.3922,663.25,931.1281" style="stroke:#181818;stroke-width:1.0;"/><text fill="#000000" font-family="sans-serif" font-size="13" lengthAdjust="spacing" textLength="55.6563" x="525" y="965.6132">&#171;include&#187;</text></g><!--link UC067 to UC069--><g id="link_UC067_UC069"><path d="M451.06,1240.3881 C475.43,1233.8881 499.1,1222.7781 516,1204.1181 C532.29,1186.1381 514.9,1172.6181 524,1150.1181 C546.75,1093.8681 554.96,1075.5381 603.5,1039.1181 C616.96,1029.0281 627.4246,1023.3318 643.3646,1017.3318 " fill="none" id="UC067-to-UC069" style="stroke:#181818;stroke-width:1.0;stroke-dasharray:7.0,7.0;"/><polygon fill="#181818" points="648.98,1015.2181,639.1478,1014.6451,644.3005,1016.9795,641.9661,1022.1322,648.98,1015.2181" style="stroke:#181818;stroke-width:1.0;"/><text fill="#000000" font-family="sans-serif" font-size="13" lengthAdjust="spacing" textLength="53.4917" x="526" y="1054.6132">&#171;extend&#187;</text></g><!--link UC067 to UC070--><g id="link_UC067_UC070"><path d="M428.47,1231.1381 C456.83,1224.4181 488.31,1215.4781 516,1204.1181 C580.84,1177.5381 644.7842,1136.695 684.4742,1109.435 " fill="none" id="UC067-to-UC070" style="stroke:#181818;stroke-width:1.0;stroke-dasharray:7.0,7.0;"/><polygon fill="#181818" points="689.42,1106.0381,679.7367,1107.8363,685.2985,1108.8689,684.2659,1114.4307,689.42,1106.0381" style="stroke:#181818;stroke-width:1.0;"/><text fill="#000000" font-family="sans-serif" font-size="13" lengthAdjust="spacing" textLength="53.4917" x="526" y="1172.6132">&#171;extend&#187;</text></g><!--link UC089 to UC090--><g id="link_UC089_UC090"><path d="M449.68,3542.0681 C506.78,3540.4081 570.6926,3538.5532 625.5126,3536.9532 " fill="none" id="UC089-to-UC090" style="stroke:#181818;stroke-width:1.0;stroke-dasharray:7.0,7.0;"/><polygon fill="#181818" points="631.51,3536.7781,622.3971,3533.0424,626.5121,3536.924,622.6305,3541.039,631.51,3536.7781" style="stroke:#181818;stroke-width:1.0;"/><text fill="#000000" font-family="sans-serif" font-size="13" lengthAdjust="spacing" textLength="53.4917" x="526" y="3535.6132">&#171;extend&#187;</text></g><!--link UC090 to UC091--><g id="link_UC090_UC091"><path d="M816.78,3536.2681 C867.71,3537.4581 924.6816,3538.788 974.7716,3539.958 " fill="none" id="UC090-to-UC091" style="stroke:#181818;stroke-width:1.0;stroke-dasharray:7.0,7.0;"/><polygon fill="#181818" points="980.77,3540.0981,971.8659,3535.8891,975.7714,3539.9814,971.679,3543.8869,980.77,3540.0981" style="stroke:#181818;stroke-width:1.0;"/><text fill="#000000" font-family="sans-serif" font-size="13" lengthAdjust="spacing" textLength="53.4917" x="871" y="3534.6132">&#171;extend&#187;</text></g><!--SRC=[ZLXBSziu3BxxLt1owIdTsB4eQwVDZDiqqqwIhZVPxAaNn6PaHg-CHDNDxFI_BqX9j4J2Zd9mp0-0yE51a7ALoFm5IiWOh5LHtglNL33OYQh8nAIomXTO9n2BHboAjO8yJiLaegH2uA4Ix3FWnwM4MAkVic_vkXIPo1MR_SZlPQL4ncuXXsSDid-Af63NjM0hs1Nv-UMF_BROr2bRYNnJ9tKUixzUH0cLB7989vDKF2cc2bRAUAlOHce2A9fCth6F7zaoGUBuPM8YO2VBJIRp4mOLCzyw69yTntKEx1EKjH5_5pjaNdOAdo2Ma2FpdqYxAANHwLQldTOriYgD22FUIizyLM8aITLOcqN3jSUYpfynHAFmhwmaucqaRPum59jYTjA2RQQ6gJrX_qqO_fcFT-pqb2rhXHAP84jS6hoj7IPcB-iCzLzTYRKktibD4SkS9QBbOGW-V3wRSrArgB4KK4fNEpJQlnrUEcwH5Yde57MLS0bIIYJJMnH2KecAVOKKCgEUYF8PB8i5QGJP8soPtmdQ8gBTrDhY4XJq63KMmTaHYti5ggvqRyedtt8w8aSbVXvF46gCpexHRRtFZkP6- -qd9ZW_4YQgPxBI-zJnCJyO8UP5ksZRcefme34wmixEKWYEyIwB9vdYu8BjlYfyZADReOeD3Yw1wNg5lh_mI5eFMotUQhl3fj68BafnYiHlTbAhDJhNLhzXmkcTiDRJmLUUKigft89YbqA1J0cR6HdgbSIAiuUipffHxqMvLnWRckaBw_RypPamr9-FyV6zm9dGJk7MZcvLo3SWU-ful3x2slOh7zMlD_1Iz9g6arsQOH1Ab9xoWUOKIOLwdRO-CLQNLzOe6clqvTTQsDo5PsI9zG3zgMDVuhN0Fz7wqZTAV2Fpn3xEUfqUCD5ziuAgsXNbPZ0EGxeLxrMnJl3MWljTU3Jxmf6D-1KxjxqZQATa8sQFDUwPExtHy31pBCXMpEeKf9aGMwEjfwmg4cj4zc46LPqag7fT0ruV59XZhOPzwUX6V1Mfg40cpVb3EmmFpu8xkSDvfzou5eSjbgakcYWhiP6mx-Bmm9mivD41EH0Vh9e-ras4ZdhZUh4WNT_WpfPuoLrfJwxZld1aipme_6TzHeSpT8qpAotYzfBQMKHdRq_aeS7q6AkhvTzMiTiilziRxXrcI6zNCwtndjkDxOlseZbSXyvwuQoZuHelPCFrr5dFdFMvivuxwy1PE_m2Xr_Wy0iSVjpXnnr-tE777NxSuSSTVjpXnnr-tE777NuuWWTL6joJTRNQ5oQhF_MGsV09xYkLVeXze-gLtST27yCXw6Dp0Wi8ZF0HKZuM11Rv62UuS88B9xXmWWidk7222oUuk6KpRwWwq-qBQY_FBXAw20ui1y58NMJk8O67UBwuvulxlY8NSMDpNh9rbFjtx5wW11WI80P7W7CA32YGSiH9HmiAZ0YGseJD3mOwsFRt0bkko4Lmbhl8r4EwNVejNwVrHlpnvPSI-KO_tqnLzlvzkx_Pd-p31zbeNLnC6goJpenK6DjMEBV2m1S6LiY9vt8h3JrJ7dP2ll1DUzBeY6buvWaNDjJ85oBK2QT3uVy0]--></g></svg>