<?xml version="1.0" encoding="us-ascii" standalone="no"?><svg xmlns="http://www.w3.org/2000/svg" xmlns:xlink="http://www.w3.org/1999/xlink" contentStyleType="text/css" height="2404px" preserveAspectRatio="none" style="width:1256px;height:2404px;background:#FFFFFF;" version="1.1" viewBox="0 0 1256 2404" width="1256px" zoomAndPan="magnify"><defs/><g><text fill="#000000" font-family="sans-serif" font-size="14" font-weight="bold" lengthAdjust="spacing" textLength="324" x="459.25" y="24.5332">Class Diagram - Increment 1 (UC-01 s.d. UC-10)</text><!--class User--><g id="elem_User"><rect codeLine="7" fill="#F1F1F1" height="171.2656" id="User" rx="2.5" ry="2.5" style="stroke:#181818;stroke-width:0.5;" width="123" x="732.5" y="1166.1094"/><ellipse cx="773.6" cy="1182.1094" fill="#ADD1B2" rx="11" ry="11" style="stroke:#181818;stroke-width:1.0;"/><path d="M776.3656,1177.9844 Q776.5219,1177.7656 776.7094,1177.6563 Q776.8969,1177.5469 777.1156,1177.5469 Q777.4906,1177.5469 777.725,1177.8125 Q777.9594,1178.0625 777.9594,1178.6719 L777.9594,1180.125 Q777.9594,1180.7344 777.725,1181 Q777.4906,1181.2656 777.1156,1181.2656 Q776.7719,1181.2656 776.5688,1181.0625 Q776.3656,1180.875 776.2563,1180.3594 Q776.2094,1180 776.0219,1179.8125 Q775.6938,1179.4375 775.0844,1179.2188 Q774.475,1179 773.85,1179 Q773.0844,1179 772.4438,1179.3281 Q771.8188,1179.6563 771.3188,1180.4063 Q770.8344,1181.1563 770.8344,1182.1875 L770.8344,1183.2813 Q770.8344,1184.5156 771.725,1185.3438 Q772.6156,1186.1563 774.2094,1186.1563 Q775.1469,1186.1563 775.8031,1185.9063 Q776.1938,1185.75 776.6156,1185.3125 Q776.8813,1185.0469 777.0219,1184.9688 Q777.1781,1184.8906 777.3813,1184.8906 Q777.7094,1184.8906 777.9594,1185.1563 Q778.225,1185.4063 778.225,1185.75 Q778.225,1186.0938 777.8813,1186.5 Q777.3813,1187.0781 776.5844,1187.4063 Q775.5063,1187.8594 774.2094,1187.8594 Q772.6938,1187.8594 771.4906,1187.2344 Q770.5063,1186.7344 769.8188,1185.6719 Q769.1313,1184.5938 769.1313,1183.3125 L769.1313,1182.1563 Q769.1313,1180.8281 769.7406,1179.6875 Q770.3656,1178.5313 771.4594,1177.9219 Q772.5531,1177.2969 773.7875,1177.2969 Q774.5219,1177.2969 775.1625,1177.4688 Q775.8188,1177.625 776.3656,1177.9844 Z " fill="#000000"/><text fill="#000000" font-family="sans-serif" font-size="14" font-weight="bold" lengthAdjust="spacing" textLength="33" x="793.4" y="1187.8379">User</text><line style="stroke:#181818;stroke-width:0.5;" x1="733.5" x2="854.5" y1="1198.1094" y2="1198.1094"/><text fill="#000000" font-family="sans-serif" font-size="14" lengthAdjust="spacing" textLength="42" x="738.5" y="1216.6426">+id: int</text><text fill="#000000" font-family="sans-serif" font-size="14" lengthAdjust="spacing" textLength="86" x="738.5" y="1234.252">+name: string</text><text fill="#000000" font-family="sans-serif" font-size="14" lengthAdjust="spacing" textLength="84" x="738.5" y="1251.8613">+email: string</text><text fill="#000000" font-family="sans-serif" font-size="14" lengthAdjust="spacing" textLength="111" x="738.5" y="1269.4707">+password: string</text><text fill="#000000" font-family="sans-serif" font-size="14" lengthAdjust="spacing" textLength="98" x="738.5" y="1287.0801">+is_active: bool</text><line style="stroke:#181818;stroke-width:0.5;" x1="733.5" x2="854.5" y1="1294.1563" y2="1294.1563"/><text fill="#000000" font-family="sans-serif" font-size="14" lengthAdjust="spacing" textLength="83" x="738.5" y="1312.6895">+login(): bool</text><text fill="#000000" font-family="sans-serif" font-size="14" lengthAdjust="spacing" textLength="91" x="738.5" y="1330.2988">+logout(): void</text></g><!--class Category--><g id="elem_Category"><rect codeLine="18" fill="#F1F1F1" height="100.8281" id="Category" rx="2.5" ry="2.5" style="stroke:#181818;stroke-width:0.5;" width="110" x="7" y="1512.1094"/><ellipse cx="28.75" cy="1528.1094" fill="#ADD1B2" rx="11" ry="11" style="stroke:#181818;stroke-width:1.0;"/><path d="M31.5156,1523.9844 Q31.6719,1523.7656 31.8594,1523.6563 Q32.0469,1523.5469 32.2656,1523.5469 Q32.6406,1523.5469 32.875,1523.8125 Q33.1094,1524.0625 33.1094,1524.6719 L33.1094,1526.125 Q33.1094,1526.7344 32.875,1527 Q32.6406,1527.2656 32.2656,1527.2656 Q31.9219,1527.2656 31.7188,1527.0625 Q31.5156,1526.875 31.4063,1526.3594 Q31.3594,1526 31.1719,1525.8125 Q30.8438,1525.4375 30.2344,1525.2188 Q29.625,1525 29,1525 Q28.2344,1525 27.5938,1525.3281 Q26.9688,1525.6563 26.4688,1526.4063 Q25.9844,1527.1563 25.9844,1528.1875 L25.9844,1529.2813 Q25.9844,1530.5156 26.875,1531.3438 Q27.7656,1532.1563 29.3594,1532.1563 Q30.2969,1532.1563 30.9531,1531.9063 Q31.3438,1531.75 31.7656,1531.3125 Q32.0313,1531.0469 32.1719,1530.9688 Q32.3281,1530.8906 32.5313,1530.8906 Q32.8594,1530.8906 33.1094,1531.1563 Q33.375,1531.4063 33.375,1531.75 Q33.375,1532.0938 33.0313,1532.5 Q32.5313,1533.0781 31.7344,1533.4063 Q30.6563,1533.8594 29.3594,1533.8594 Q27.8438,1533.8594 26.6406,1533.2344 Q25.6563,1532.7344 24.9688,1531.6719 Q24.2813,1530.5938 24.2813,1529.3125 L24.2813,1528.1563 Q24.2813,1526.8281 24.8906,1525.6875 Q25.5156,1524.5313 26.6094,1523.9219 Q27.7031,1523.2969 28.9375,1523.2969 Q29.6719,1523.2969 30.3125,1523.4688 Q30.9688,1523.625 31.5156,1523.9844 Z " fill="#000000"/><text fill="#000000" font-family="sans-serif" font-size="14" font-weight="bold" lengthAdjust="spacing" textLength="63" x="44.25" y="1533.8379">Category</text><line style="stroke:#181818;stroke-width:0.5;" x1="8" x2="116" y1="1544.1094" y2="1544.1094"/><text fill="#000000" font-family="sans-serif" font-size="14" lengthAdjust="spacing" textLength="42" x="13" y="1562.6426">+id: int</text><text fill="#000000" font-family="sans-serif" font-size="14" lengthAdjust="spacing" textLength="86" x="13" y="1580.252">+name: string</text><text fill="#000000" font-family="sans-serif" font-size="14" lengthAdjust="spacing" textLength="98" x="13" y="1597.8613">+is_active: bool</text><line style="stroke:#181818;stroke-width:0.5;" x1="8" x2="116" y1="1604.9375" y2="1604.9375"/></g><!--class Unit--><g id="elem_Unit"><rect codeLine="24" fill="#F1F1F1" height="153.6563" id="Unit" rx="2.5" ry="2.5" style="stroke:#181818;stroke-width:0.5;" width="193" x="523.5" y="2243.6094"/><ellipse cx="601.75" cy="2259.6094" fill="#ADD1B2" rx="11" ry="11" style="stroke:#181818;stroke-width:1.0;"/><path d="M604.5156,2255.4844 Q604.6719,2255.2656 604.8594,2255.1563 Q605.0469,2255.0469 605.2656,2255.0469 Q605.6406,2255.0469 605.875,2255.3125 Q606.1094,2255.5625 606.1094,2256.1719 L606.1094,2257.625 Q606.1094,2258.2344 605.875,2258.5 Q605.6406,2258.7656 605.2656,2258.7656 Q604.9219,2258.7656 604.7188,2258.5625 Q604.5156,2258.375 604.4063,2257.8594 Q604.3594,2257.5 604.1719,2257.3125 Q603.8438,2256.9375 603.2344,2256.7188 Q602.625,2256.5 602,2256.5 Q601.2344,2256.5 600.5938,2256.8281 Q599.9688,2257.1563 599.4688,2257.9063 Q598.9844,2258.6563 598.9844,2259.6875 L598.9844,2260.7813 Q598.9844,2262.0156 599.875,2262.8438 Q600.7656,2263.6563 602.3594,2263.6563 Q603.2969,2263.6563 603.9531,2263.4063 Q604.3438,2263.25 604.7656,2262.8125 Q605.0313,2262.5469 605.1719,2262.4688 Q605.3281,2262.3906 605.5313,2262.3906 Q605.8594,2262.3906 606.1094,2262.6563 Q606.375,2262.9063 606.375,2263.25 Q606.375,2263.5938 606.0313,2264 Q605.5313,2264.5781 604.7344,2264.9063 Q603.6563,2265.3594 602.3594,2265.3594 Q600.8438,2265.3594 599.6406,2264.7344 Q598.6563,2264.2344 597.9688,2263.1719 Q597.2813,2262.0938 597.2813,2260.8125 L597.2813,2259.6563 Q597.2813,2258.3281 597.8906,2257.1875 Q598.5156,2256.0313 599.6094,2255.4219 Q600.7031,2254.7969 601.9375,2254.7969 Q602.6719,2254.7969 603.3125,2254.9688 Q603.9688,2255.125 604.5156,2255.4844 Z " fill="#000000"/><text fill="#000000" font-family="sans-serif" font-size="14" font-weight="bold" lengthAdjust="spacing" textLength="28" x="622.25" y="2265.3379">Unit</text><line style="stroke:#181818;stroke-width:0.5;" x1="524.5" x2="715.5" y1="2275.6094" y2="2275.6094"/><text fill="#000000" font-family="sans-serif" font-size="14" lengthAdjust="spacing" textLength="42" x="529.5" y="2294.1426">+id: int</text><text fill="#000000" font-family="sans-serif" font-size="14" lengthAdjust="spacing" textLength="86" x="529.5" y="2311.752">+name: string</text><text fill="#000000" font-family="sans-serif" font-size="14" lengthAdjust="spacing" textLength="80" x="529.5" y="2329.3613">+alias: string</text><text fill="#000000" font-family="sans-serif" font-size="14" lengthAdjust="spacing" textLength="88" x="529.5" y="2346.9707">+group: string</text><text fill="#000000" font-family="sans-serif" font-size="14" lengthAdjust="spacing" textLength="137" x="529.5" y="2364.5801">+base_unit_id: int|null</text><text fill="#000000" font-family="sans-serif" font-size="14" lengthAdjust="spacing" textLength="181" x="529.5" y="2382.1895">+conversion_factor: float|null</text><line style="stroke:#181818;stroke-width:0.5;" x1="524.5" x2="715.5" y1="2389.2656" y2="2389.2656"/></g><!--class Supplier--><g id="elem_Supplier"><rect codeLine="35" fill="#F1F1F1" height="206.4844" id="Supplier" rx="2.5" ry="2.5" style="stroke:#181818;stroke-width:0.5;" width="152" x="724" y="1459.6094"/><ellipse cx="766.45" cy="1475.6094" fill="#ADD1B2" rx="11" ry="11" style="stroke:#181818;stroke-width:1.0;"/><path d="M769.2156,1471.4844 Q769.3719,1471.2656 769.5594,1471.1563 Q769.7469,1471.0469 769.9656,1471.0469 Q770.3406,1471.0469 770.575,1471.3125 Q770.8094,1471.5625 770.8094,1472.1719 L770.8094,1473.625 Q770.8094,1474.2344 770.575,1474.5 Q770.3406,1474.7656 769.9656,1474.7656 Q769.6219,1474.7656 769.4188,1474.5625 Q769.2156,1474.375 769.1063,1473.8594 Q769.0594,1473.5 768.8719,1473.3125 Q768.5438,1472.9375 767.9344,1472.7188 Q767.325,1472.5 766.7,1472.5 Q765.9344,1472.5 765.2938,1472.8281 Q764.6688,1473.1563 764.1688,1473.9063 Q763.6844,1474.6563 763.6844,1475.6875 L763.6844,1476.7813 Q763.6844,1478.0156 764.575,1478.8438 Q765.4656,1479.6563 767.0594,1479.6563 Q767.9969,1479.6563 768.6531,1479.4063 Q769.0438,1479.25 769.4656,1478.8125 Q769.7313,1478.5469 769.8719,1478.4688 Q770.0281,1478.3906 770.2313,1478.3906 Q770.5594,1478.3906 770.8094,1478.6563 Q771.075,1478.9063 771.075,1479.25 Q771.075,1479.5938 770.7313,1480 Q770.2313,1480.5781 769.4344,1480.9063 Q768.3563,1481.3594 767.0594,1481.3594 Q765.5438,1481.3594 764.3406,1480.7344 Q763.3563,1480.2344 762.6688,1479.1719 Q761.9813,1478.0938 761.9813,1476.8125 L761.9813,1475.6563 Q761.9813,1474.3281 762.5906,1473.1875 Q763.2156,1472.0313 764.3094,1471.4219 Q765.4031,1470.7969 766.6375,1470.7969 Q767.3719,1470.7969 768.0125,1470.9688 Q768.6688,1471.125 769.2156,1471.4844 Z " fill="#000000"/><text fill="#000000" font-family="sans-serif" font-size="14" font-weight="bold" lengthAdjust="spacing" textLength="59" x="786.55" y="1481.3379">Supplier</text><line style="stroke:#181818;stroke-width:0.5;" x1="725" x2="875" y1="1491.6094" y2="1491.6094"/><text fill="#000000" font-family="sans-serif" font-size="14" lengthAdjust="spacing" textLength="42" x="730" y="1510.1426">+id: int</text><text fill="#000000" font-family="sans-serif" font-size="14" lengthAdjust="spacing" textLength="86" x="730" y="1527.752">+name: string</text><text fill="#000000" font-family="sans-serif" font-size="14" lengthAdjust="spacing" textLength="120" x="730" y="1545.3613">+description: string</text><text fill="#000000" font-family="sans-serif" font-size="14" lengthAdjust="spacing" textLength="140" x="730" y="1562.9707">+contact_name: string</text><text fill="#000000" font-family="sans-serif" font-size="14" lengthAdjust="spacing" textLength="91" x="730" y="1580.5801">+phone: string</text><text fill="#000000" font-family="sans-serif" font-size="14" lengthAdjust="spacing" textLength="87" x="730" y="1598.1895">+street: string</text><text fill="#000000" font-family="sans-serif" font-size="14" lengthAdjust="spacing" textLength="109" x="730" y="1615.7988">+landmark: string</text><text fill="#000000" font-family="sans-serif" font-size="14" lengthAdjust="spacing" textLength="114" x="730" y="1633.4082">+maps_link: string</text><text fill="#000000" font-family="sans-serif" font-size="14" lengthAdjust="spacing" textLength="89" x="730" y="1651.0176">+image: string</text><line style="stroke:#181818;stroke-width:0.5;" x1="725" x2="875" y1="1658.0938" y2="1658.0938"/></g><!--class Material--><g id="elem_Material"><rect codeLine="48" fill="#F1F1F1" height="188.875" id="Material" rx="2.5" ry="2.5" style="stroke:#181818;stroke-width:0.5;" width="132" x="642" y="1744.6094"/><ellipse cx="676.35" cy="1760.6094" fill="#ADD1B2" rx="11" ry="11" style="stroke:#181818;stroke-width:1.0;"/><path d="M679.1156,1756.4844 Q679.2719,1756.2656 679.4594,1756.1563 Q679.6469,1756.0469 679.8656,1756.0469 Q680.2406,1756.0469 680.475,1756.3125 Q680.7094,1756.5625 680.7094,1757.1719 L680.7094,1758.625 Q680.7094,1759.2344 680.475,1759.5 Q680.2406,1759.7656 679.8656,1759.7656 Q679.5219,1759.7656 679.3188,1759.5625 Q679.1156,1759.375 679.0063,1758.8594 Q678.9594,1758.5 678.7719,1758.3125 Q678.4438,1757.9375 677.8344,1757.7188 Q677.225,1757.5 676.6,1757.5 Q675.8344,1757.5 675.1938,1757.8281 Q674.5688,1758.1563 674.0688,1758.9063 Q673.5844,1759.6563 673.5844,1760.6875 L673.5844,1761.7813 Q673.5844,1763.0156 674.475,1763.8438 Q675.3656,1764.6563 676.9594,1764.6563 Q677.8969,1764.6563 678.5531,1764.4063 Q678.9438,1764.25 679.3656,1763.8125 Q679.6313,1763.5469 679.7719,1763.4688 Q679.9281,1763.3906 680.1313,1763.3906 Q680.4594,1763.3906 680.7094,1763.6563 Q680.975,1763.9063 680.975,1764.25 Q680.975,1764.5938 680.6313,1765 Q680.1313,1765.5781 679.3344,1765.9063 Q678.2563,1766.3594 676.9594,1766.3594 Q675.4438,1766.3594 674.2406,1765.7344 Q673.2563,1765.2344 672.5688,1764.1719 Q671.8813,1763.0938 671.8813,1761.8125 L671.8813,1760.6563 Q671.8813,1759.3281 672.4906,1758.1875 Q673.1156,1757.0313 674.2094,1756.4219 Q675.3031,1755.7969 676.5375,1755.7969 Q677.2719,1755.7969 677.9125,1755.9688 Q678.5688,1756.125 679.1156,1756.4844 Z " fill="#000000"/><text fill="#000000" font-family="sans-serif" font-size="14" font-weight="bold" lengthAdjust="spacing" textLength="57" x="694.65" y="1766.3379">Material</text><line style="stroke:#181818;stroke-width:0.5;" x1="643" x2="773" y1="1776.6094" y2="1776.6094"/><text fill="#000000" font-family="sans-serif" font-size="14" lengthAdjust="spacing" textLength="42" x="648" y="1795.1426">+id: int</text><text fill="#000000" font-family="sans-serif" font-size="14" lengthAdjust="spacing" textLength="86" x="648" y="1812.752">+name: string</text><text fill="#000000" font-family="sans-serif" font-size="14" lengthAdjust="spacing" textLength="120" x="648" y="1830.3613">+description: string</text><text fill="#000000" font-family="sans-serif" font-size="14" lengthAdjust="spacing" textLength="89" x="648" y="1847.9707">+image: string</text><text fill="#000000" font-family="sans-serif" font-size="14" lengthAdjust="spacing" textLength="89" x="648" y="1865.5801">+status: string</text><text fill="#000000" font-family="sans-serif" font-size="14" lengthAdjust="spacing" textLength="98" x="648" y="1883.1895">+is_active: bool</text><text fill="#000000" font-family="sans-serif" font-size="14" lengthAdjust="spacing" textLength="100" x="648" y="1900.7988">+is_recipe: bool</text><text fill="#000000" font-family="sans-serif" font-size="14" lengthAdjust="spacing" textLength="98" x="648" y="1918.4082">+minimum: float</text><line style="stroke:#181818;stroke-width:0.5;" x1="643" x2="773" y1="1925.4844" y2="1925.4844"/></g><!--class MaterialDetail--><g id="elem_MaterialDetail"><rect codeLine="59" fill="#F1F1F1" height="171.2656" id="MaterialDetail" rx="2.5" ry="2.5" style="stroke:#181818;stroke-width:0.5;" width="156" x="455" y="2011.6094"/><ellipse cx="482.15" cy="2027.6094" fill="#ADD1B2" rx="11" ry="11" style="stroke:#181818;stroke-width:1.0;"/><path d="M484.9156,2023.4844 Q485.0719,2023.2656 485.2594,2023.1563 Q485.4469,2023.0469 485.6656,2023.0469 Q486.0406,2023.0469 486.275,2023.3125 Q486.5094,2023.5625 486.5094,2024.1719 L486.5094,2025.625 Q486.5094,2026.2344 486.275,2026.5 Q486.0406,2026.7656 485.6656,2026.7656 Q485.3219,2026.7656 485.1188,2026.5625 Q484.9156,2026.375 484.8063,2025.8594 Q484.7594,2025.5 484.5719,2025.3125 Q484.2438,2024.9375 483.6344,2024.7188 Q483.025,2024.5 482.4,2024.5 Q481.6344,2024.5 480.9938,2024.8281 Q480.3688,2025.1563 479.8688,2025.9063 Q479.3844,2026.6563 479.3844,2027.6875 L479.3844,2028.7813 Q479.3844,2030.0156 480.275,2030.8438 Q481.1656,2031.6563 482.7594,2031.6563 Q483.6969,2031.6563 484.3531,2031.4063 Q484.7438,2031.25 485.1656,2030.8125 Q485.4313,2030.5469 485.5719,2030.4688 Q485.7281,2030.3906 485.9313,2030.3906 Q486.2594,2030.3906 486.5094,2030.6563 Q486.775,2030.9063 486.775,2031.25 Q486.775,2031.5938 486.4313,2032 Q485.9313,2032.5781 485.1344,2032.9063 Q484.0563,2033.3594 482.7594,2033.3594 Q481.2438,2033.3594 480.0406,2032.7344 Q479.0563,2032.2344 478.3688,2031.1719 Q477.6813,2030.0938 477.6813,2028.8125 L477.6813,2027.6563 Q477.6813,2026.3281 478.2906,2025.1875 Q478.9156,2024.0313 480.0094,2023.4219 Q481.1031,2022.7969 482.3375,2022.7969 Q483.0719,2022.7969 483.7125,2022.9688 Q484.3688,2023.125 484.9156,2023.4844 Z " fill="#000000"/><text fill="#000000" font-family="sans-serif" font-size="14" font-weight="bold" lengthAdjust="spacing" textLength="97" x="498.85" y="2033.3379">MaterialDetail</text><line style="stroke:#181818;stroke-width:0.5;" x1="456" x2="610" y1="2043.6094" y2="2043.6094"/><text fill="#000000" font-family="sans-serif" font-size="14" lengthAdjust="spacing" textLength="42" x="461" y="2062.1426">+id: int</text><text fill="#000000" font-family="sans-serif" font-size="14" lengthAdjust="spacing" textLength="100" x="461" y="2079.752">+material_id: int</text><text fill="#000000" font-family="sans-serif" font-size="14" lengthAdjust="spacing" textLength="73" x="461" y="2097.3613">+unit_id: int</text><text fill="#000000" font-family="sans-serif" font-size="14" lengthAdjust="spacing" textLength="91" x="461" y="2114.9707">+is_main: bool</text><text fill="#000000" font-family="sans-serif" font-size="14" lengthAdjust="spacing" textLength="93" x="461" y="2132.5801">+quantity: float</text><text fill="#000000" font-family="sans-serif" font-size="14" lengthAdjust="spacing" textLength="142" x="461" y="2150.1895">+supply_quantity: float</text><text fill="#000000" font-family="sans-serif" font-size="14" lengthAdjust="spacing" textLength="144" x="461" y="2167.7988">+supply_price: decimal</text><line style="stroke:#181818;stroke-width:0.5;" x1="456" x2="610" y1="2174.875" y2="2174.875"/></g><!--class MaterialBatch--><g id="elem_MaterialBatch"><rect codeLine="69" fill="#F1F1F1" height="153.6563" id="MaterialBatch" rx="2.5" ry="2.5" style="stroke:#181818;stroke-width:0.5;" width="154" x="646" y="2020.1094"/><ellipse cx="672.25" cy="2036.1094" fill="#ADD1B2" rx="11" ry="11" style="stroke:#181818;stroke-width:1.0;"/><path d="M675.0156,2031.9844 Q675.1719,2031.7656 675.3594,2031.6563 Q675.5469,2031.5469 675.7656,2031.5469 Q676.1406,2031.5469 676.375,2031.8125 Q676.6094,2032.0625 676.6094,2032.6719 L676.6094,2034.125 Q676.6094,2034.7344 676.375,2035 Q676.1406,2035.2656 675.7656,2035.2656 Q675.4219,2035.2656 675.2188,2035.0625 Q675.0156,2034.875 674.9063,2034.3594 Q674.8594,2034 674.6719,2033.8125 Q674.3438,2033.4375 673.7344,2033.2188 Q673.125,2033 672.5,2033 Q671.7344,2033 671.0938,2033.3281 Q670.4688,2033.6563 669.9688,2034.4063 Q669.4844,2035.1563 669.4844,2036.1875 L669.4844,2037.2813 Q669.4844,2038.5156 670.375,2039.3438 Q671.2656,2040.1563 672.8594,2040.1563 Q673.7969,2040.1563 674.4531,2039.9063 Q674.8438,2039.75 675.2656,2039.3125 Q675.5313,2039.0469 675.6719,2038.9688 Q675.8281,2038.8906 676.0313,2038.8906 Q676.3594,2038.8906 676.6094,2039.1563 Q676.875,2039.4063 676.875,2039.75 Q676.875,2040.0938 676.5313,2040.5 Q676.0313,2041.0781 675.2344,2041.4063 Q674.1563,2041.8594 672.8594,2041.8594 Q671.3438,2041.8594 670.1406,2041.2344 Q669.1563,2040.7344 668.4688,2039.6719 Q667.7813,2038.5938 667.7813,2037.3125 L667.7813,2036.1563 Q667.7813,2034.8281 668.3906,2033.6875 Q669.0156,2032.5313 670.1094,2031.9219 Q671.2031,2031.2969 672.4375,2031.2969 Q673.1719,2031.2969 673.8125,2031.4688 Q674.4688,2031.625 675.0156,2031.9844 Z " fill="#000000"/><text fill="#000000" font-family="sans-serif" font-size="14" font-weight="bold" lengthAdjust="spacing" textLength="97" x="688.75" y="2041.8379">MaterialBatch</text><line style="stroke:#181818;stroke-width:0.5;" x1="647" x2="799" y1="2052.1094" y2="2052.1094"/><text fill="#000000" font-family="sans-serif" font-size="14" lengthAdjust="spacing" textLength="42" x="652" y="2070.6426">+id: int</text><text fill="#000000" font-family="sans-serif" font-size="14" lengthAdjust="spacing" textLength="100" x="652" y="2088.252">+material_id: int</text><text fill="#000000" font-family="sans-serif" font-size="14" lengthAdjust="spacing" textLength="73" x="652" y="2105.8613">+unit_id: int</text><text fill="#000000" font-family="sans-serif" font-size="14" lengthAdjust="spacing" textLength="142" x="652" y="2123.4707">+batch_number: string</text><text fill="#000000" font-family="sans-serif" font-size="14" lengthAdjust="spacing" textLength="72" x="652" y="2141.0801">+date: date</text><text fill="#000000" font-family="sans-serif" font-size="14" lengthAdjust="spacing" textLength="136" x="652" y="2158.6895">+batch_quantity: float</text><line style="stroke:#181818;stroke-width:0.5;" x1="647" x2="799" y1="2165.7656" y2="2165.7656"/></g><!--class Expense--><g id="elem_Expense"><rect codeLine="79" fill="#F1F1F1" height="206.4844" id="Expense" rx="2.5" ry="2.5" style="stroke:#181818;stroke-width:0.5;" width="197" x="890.5" y="1148.6094"/><ellipse cx="954.25" cy="1164.6094" fill="#ADD1B2" rx="11" ry="11" style="stroke:#181818;stroke-width:1.0;"/><path d="M957.0156,1160.4844 Q957.1719,1160.2656 957.3594,1160.1563 Q957.5469,1160.0469 957.7656,1160.0469 Q958.1406,1160.0469 958.375,1160.3125 Q958.6094,1160.5625 958.6094,1161.1719 L958.6094,1162.625 Q958.6094,1163.2344 958.375,1163.5 Q958.1406,1163.7656 957.7656,1163.7656 Q957.4219,1163.7656 957.2188,1163.5625 Q957.0156,1163.375 956.9063,1162.8594 Q956.8594,1162.5 956.6719,1162.3125 Q956.3438,1161.9375 955.7344,1161.7188 Q955.125,1161.5 954.5,1161.5 Q953.7344,1161.5 953.0938,1161.8281 Q952.4688,1162.1563 951.9688,1162.9063 Q951.4844,1163.6563 951.4844,1164.6875 L951.4844,1165.7813 Q951.4844,1167.0156 952.375,1167.8438 Q953.2656,1168.6563 954.8594,1168.6563 Q955.7969,1168.6563 956.4531,1168.4063 Q956.8438,1168.25 957.2656,1167.8125 Q957.5313,1167.5469 957.6719,1167.4688 Q957.8281,1167.3906 958.0313,1167.3906 Q958.3594,1167.3906 958.6094,1167.6563 Q958.875,1167.9063 958.875,1168.25 Q958.875,1168.5938 958.5313,1169 Q958.0313,1169.5781 957.2344,1169.9063 Q956.1563,1170.3594 954.8594,1170.3594 Q953.3438,1170.3594 952.1406,1169.7344 Q951.1563,1169.2344 950.4688,1168.1719 Q949.7813,1167.0938 949.7813,1165.8125 L949.7813,1164.6563 Q949.7813,1163.3281 950.3906,1162.1875 Q951.0156,1161.0313 952.1094,1160.4219 Q953.2031,1159.7969 954.4375,1159.7969 Q955.1719,1159.7969 955.8125,1159.9688 Q956.4688,1160.125 957.0156,1160.4844 Z " fill="#000000"/><text fill="#000000" font-family="sans-serif" font-size="14" font-weight="bold" lengthAdjust="spacing" textLength="61" x="974.75" y="1170.3379">Expense</text><line style="stroke:#181818;stroke-width:0.5;" x1="891.5" x2="1086.5" y1="1180.6094" y2="1180.6094"/><text fill="#000000" font-family="sans-serif" font-size="14" lengthAdjust="spacing" textLength="42" x="896.5" y="1199.1426">+id: int</text><text fill="#000000" font-family="sans-serif" font-size="14" lengthAdjust="spacing" textLength="160" x="896.5" y="1216.752">+expense_number: string</text><text fill="#000000" font-family="sans-serif" font-size="14" lengthAdjust="spacing" textLength="133" x="896.5" y="1234.3613">+expense_date: date</text><text fill="#000000" font-family="sans-serif" font-size="14" lengthAdjust="spacing" textLength="100" x="896.5" y="1251.9707">+supplier_id: int</text><text fill="#000000" font-family="sans-serif" font-size="14" lengthAdjust="spacing" textLength="89" x="896.5" y="1269.5801">+status: string</text><text fill="#000000" font-family="sans-serif" font-size="14" lengthAdjust="spacing" textLength="185" x="896.5" y="1287.1895">+grand_total_expect: decimal</text><text fill="#000000" font-family="sans-serif" font-size="14" lengthAdjust="spacing" textLength="182" x="896.5" y="1304.7988">+grand_total_actual: decimal</text><text fill="#000000" font-family="sans-serif" font-size="14" lengthAdjust="spacing" textLength="89" x="896.5" y="1322.4082">+is_start: bool</text><text fill="#000000" font-family="sans-serif" font-size="14" lengthAdjust="spacing" textLength="94" x="896.5" y="1340.0176">+is_finish: bool</text><line style="stroke:#181818;stroke-width:0.5;" x1="891.5" x2="1086.5" y1="1347.0938" y2="1347.0938"/></g><!--class ExpenseDetail--><g id="elem_ExpenseDetail"><rect codeLine="91" fill="#F1F1F1" height="241.7031" id="ExpenseDetail" rx="2.5" ry="2.5" style="stroke:#181818;stroke-width:0.5;" width="156" x="911" y="1441.6094"/><ellipse cx="936.35" cy="1457.6094" fill="#ADD1B2" rx="11" ry="11" style="stroke:#181818;stroke-width:1.0;"/><path d="M939.1156,1453.4844 Q939.2719,1453.2656 939.4594,1453.1563 Q939.6469,1453.0469 939.8656,1453.0469 Q940.2406,1453.0469 940.475,1453.3125 Q940.7094,1453.5625 940.7094,1454.1719 L940.7094,1455.625 Q940.7094,1456.2344 940.475,1456.5 Q940.2406,1456.7656 939.8656,1456.7656 Q939.5219,1456.7656 939.3188,1456.5625 Q939.1156,1456.375 939.0063,1455.8594 Q938.9594,1455.5 938.7719,1455.3125 Q938.4438,1454.9375 937.8344,1454.7188 Q937.225,1454.5 936.6,1454.5 Q935.8344,1454.5 935.1938,1454.8281 Q934.5688,1455.1563 934.0688,1455.9063 Q933.5844,1456.6563 933.5844,1457.6875 L933.5844,1458.7813 Q933.5844,1460.0156 934.475,1460.8438 Q935.3656,1461.6563 936.9594,1461.6563 Q937.8969,1461.6563 938.5531,1461.4063 Q938.9438,1461.25 939.3656,1460.8125 Q939.6313,1460.5469 939.7719,1460.4688 Q939.9281,1460.3906 940.1313,1460.3906 Q940.4594,1460.3906 940.7094,1460.6563 Q940.975,1460.9063 940.975,1461.25 Q940.975,1461.5938 940.6313,1462 Q940.1313,1462.5781 939.3344,1462.9063 Q938.2563,1463.3594 936.9594,1463.3594 Q935.4438,1463.3594 934.2406,1462.7344 Q933.2563,1462.2344 932.5688,1461.1719 Q931.8813,1460.0938 931.8813,1458.8125 L931.8813,1457.6563 Q931.8813,1456.3281 932.4906,1455.1875 Q933.1156,1454.0313 934.2094,1453.4219 Q935.3031,1452.7969 936.5375,1452.7969 Q937.2719,1452.7969 937.9125,1452.9688 Q938.5688,1453.125 939.1156,1453.4844 Z " fill="#000000"/><text fill="#000000" font-family="sans-serif" font-size="14" font-weight="bold" lengthAdjust="spacing" textLength="101" x="952.65" y="1463.3379">ExpenseDetail</text><line style="stroke:#181818;stroke-width:0.5;" x1="912" x2="1066" y1="1473.6094" y2="1473.6094"/><text fill="#000000" font-family="sans-serif" font-size="14" lengthAdjust="spacing" textLength="42" x="917" y="1492.1426">+id: int</text><text fill="#000000" font-family="sans-serif" font-size="14" lengthAdjust="spacing" textLength="103" x="917" y="1509.752">+expense_id: int</text><text fill="#000000" font-family="sans-serif" font-size="14" lengthAdjust="spacing" textLength="100" x="917" y="1527.3613">+material_id: int</text><text fill="#000000" font-family="sans-serif" font-size="14" lengthAdjust="spacing" textLength="73" x="917" y="1544.9707">+unit_id: int</text><text fill="#000000" font-family="sans-serif" font-size="14" lengthAdjust="spacing" textLength="142" x="917" y="1562.5801">+quantity_expect: float</text><text fill="#000000" font-family="sans-serif" font-size="14" lengthAdjust="spacing" textLength="121" x="917" y="1580.1895">+quantity_get: float</text><text fill="#000000" font-family="sans-serif" font-size="14" lengthAdjust="spacing" textLength="144" x="917" y="1597.7988">+price_expect: decimal</text><text fill="#000000" font-family="sans-serif" font-size="14" lengthAdjust="spacing" textLength="123" x="917" y="1615.4082">+price_get: decimal</text><text fill="#000000" font-family="sans-serif" font-size="14" lengthAdjust="spacing" textLength="140" x="917" y="1633.0176">+total_expect: decimal</text><text fill="#000000" font-family="sans-serif" font-size="14" lengthAdjust="spacing" textLength="137" x="917" y="1650.627">+total_actual: decimal</text><text fill="#000000" font-family="sans-serif" font-size="14" lengthAdjust="spacing" textLength="117" x="917" y="1668.2363">+expiry_date: date</text><line style="stroke:#181818;stroke-width:0.5;" x1="912" x2="1066" y1="1675.3125" y2="1675.3125"/></g><!--class Product--><g id="elem_Product"><rect codeLine="106" fill="#F1F1F1" height="224.0938" id="Product" rx="2.5" ry="2.5" style="stroke:#181818;stroke-width:0.5;" width="147" x="120.5" y="1139.6094"/><ellipse cx="162.5" cy="1155.6094" fill="#ADD1B2" rx="11" ry="11" style="stroke:#181818;stroke-width:1.0;"/><path d="M165.2656,1151.4844 Q165.4219,1151.2656 165.6094,1151.1563 Q165.7969,1151.0469 166.0156,1151.0469 Q166.3906,1151.0469 166.625,1151.3125 Q166.8594,1151.5625 166.8594,1152.1719 L166.8594,1153.625 Q166.8594,1154.2344 166.625,1154.5 Q166.3906,1154.7656 166.0156,1154.7656 Q165.6719,1154.7656 165.4688,1154.5625 Q165.2656,1154.375 165.1563,1153.8594 Q165.1094,1153.5 164.9219,1153.3125 Q164.5938,1152.9375 163.9844,1152.7188 Q163.375,1152.5 162.75,1152.5 Q161.9844,1152.5 161.3438,1152.8281 Q160.7188,1153.1563 160.2188,1153.9063 Q159.7344,1154.6563 159.7344,1155.6875 L159.7344,1156.7813 Q159.7344,1158.0156 160.625,1158.8438 Q161.5156,1159.6563 163.1094,1159.6563 Q164.0469,1159.6563 164.7031,1159.4063 Q165.0938,1159.25 165.5156,1158.8125 Q165.7813,1158.5469 165.9219,1158.4688 Q166.0781,1158.3906 166.2813,1158.3906 Q166.6094,1158.3906 166.8594,1158.6563 Q167.125,1158.9063 167.125,1159.25 Q167.125,1159.5938 166.7813,1160 Q166.2813,1160.5781 165.4844,1160.9063 Q164.4063,1161.3594 163.1094,1161.3594 Q161.5938,1161.3594 160.3906,1160.7344 Q159.4063,1160.2344 158.7188,1159.1719 Q158.0313,1158.0938 158.0313,1156.8125 L158.0313,1155.6563 Q158.0313,1154.3281 158.6406,1153.1875 Q159.2656,1152.0313 160.3594,1151.4219 Q161.4531,1150.7969 162.6875,1150.7969 Q163.4219,1150.7969 164.0625,1150.9688 Q164.7188,1151.125 165.2656,1151.4844 Z " fill="#000000"/><text fill="#000000" font-family="sans-serif" font-size="14" font-weight="bold" lengthAdjust="spacing" textLength="55" x="182.5" y="1161.3379">Product</text><line style="stroke:#181818;stroke-width:0.5;" x1="121.5" x2="266.5" y1="1171.6094" y2="1171.6094"/><text fill="#000000" font-family="sans-serif" font-size="14" lengthAdjust="spacing" textLength="42" x="126.5" y="1190.1426">+id: int</text><text fill="#000000" font-family="sans-serif" font-size="14" lengthAdjust="spacing" textLength="86" x="126.5" y="1207.752">+name: string</text><text fill="#000000" font-family="sans-serif" font-size="14" lengthAdjust="spacing" textLength="120" x="126.5" y="1225.3613">+description: string</text><text fill="#000000" font-family="sans-serif" font-size="14" lengthAdjust="spacing" textLength="95" x="126.5" y="1242.9707">+price: decimal</text><text fill="#000000" font-family="sans-serif" font-size="14" lengthAdjust="spacing" textLength="64" x="126.5" y="1260.5801">+stock: int</text><text fill="#000000" font-family="sans-serif" font-size="14" lengthAdjust="spacing" textLength="89" x="126.5" y="1278.1895">+method: json</text><text fill="#000000" font-family="sans-serif" font-size="14" lengthAdjust="spacing" textLength="98" x="126.5" y="1295.7988">+is_active: bool</text><text fill="#000000" font-family="sans-serif" font-size="14" lengthAdjust="spacing" textLength="53" x="126.5" y="1313.4082">+pcs: int</text><text fill="#000000" font-family="sans-serif" font-size="14" lengthAdjust="spacing" textLength="135" x="126.5" y="1331.0176">+pcs_capital: decimal</text><text fill="#000000" font-family="sans-serif" font-size="14" lengthAdjust="spacing" textLength="105" x="126.5" y="1348.627">+capital: decimal</text><line style="stroke:#181818;stroke-width:0.5;" x1="121.5" x2="266.5" y1="1355.7031" y2="1355.7031"/></g><!--class ProductComposition--><g id="elem_ProductComposition"><rect codeLine="119" fill="#F1F1F1" height="136.0469" id="ProductComposition" rx="2.5" ry="2.5" style="stroke:#181818;stroke-width:0.5;" width="175" x="314.5" y="1494.6094"/><ellipse cx="329.5" cy="1510.6094" fill="#ADD1B2" rx="11" ry="11" style="stroke:#181818;stroke-width:1.0;"/><path d="M332.2656,1506.4844 Q332.4219,1506.2656 332.6094,1506.1563 Q332.7969,1506.0469 333.0156,1506.0469 Q333.3906,1506.0469 333.625,1506.3125 Q333.8594,1506.5625 333.8594,1507.1719 L333.8594,1508.625 Q333.8594,1509.2344 333.625,1509.5 Q333.3906,1509.7656 333.0156,1509.7656 Q332.6719,1509.7656 332.4688,1509.5625 Q332.2656,1509.375 332.1563,1508.8594 Q332.1094,1508.5 331.9219,1508.3125 Q331.5938,1507.9375 330.9844,1507.7188 Q330.375,1507.5 329.75,1507.5 Q328.9844,1507.5 328.3438,1507.8281 Q327.7188,1508.1563 327.2188,1508.9063 Q326.7344,1509.6563 326.7344,1510.6875 L326.7344,1511.7813 Q326.7344,1513.0156 327.625,1513.8438 Q328.5156,1514.6563 330.1094,1514.6563 Q331.0469,1514.6563 331.7031,1514.4063 Q332.0938,1514.25 332.5156,1513.8125 Q332.7813,1513.5469 332.9219,1513.4688 Q333.0781,1513.3906 333.2813,1513.3906 Q333.6094,1513.3906 333.8594,1513.6563 Q334.125,1513.9063 334.125,1514.25 Q334.125,1514.5938 333.7813,1515 Q333.2813,1515.5781 332.4844,1515.9063 Q331.4063,1516.3594 330.1094,1516.3594 Q328.5938,1516.3594 327.3906,1515.7344 Q326.4063,1515.2344 325.7188,1514.1719 Q325.0313,1513.0938 325.0313,1511.8125 L325.0313,1510.6563 Q325.0313,1509.3281 325.6406,1508.1875 Q326.2656,1507.0313 327.3594,1506.4219 Q328.4531,1505.7969 329.6875,1505.7969 Q330.4219,1505.7969 331.0625,1505.9688 Q331.7188,1506.125 332.2656,1506.4844 Z " fill="#000000"/><text fill="#000000" font-family="sans-serif" font-size="14" font-weight="bold" lengthAdjust="spacing" textLength="143" x="343.5" y="1516.3379">ProductComposition</text><line style="stroke:#181818;stroke-width:0.5;" x1="315.5" x2="488.5" y1="1526.6094" y2="1526.6094"/><text fill="#000000" font-family="sans-serif" font-size="14" lengthAdjust="spacing" textLength="42" x="320.5" y="1545.1426">+id: int</text><text fill="#000000" font-family="sans-serif" font-size="14" lengthAdjust="spacing" textLength="98" x="320.5" y="1562.752">+product_id: int</text><text fill="#000000" font-family="sans-serif" font-size="14" lengthAdjust="spacing" textLength="100" x="320.5" y="1580.3613">+material_id: int</text><text fill="#000000" font-family="sans-serif" font-size="14" lengthAdjust="spacing" textLength="73" x="320.5" y="1597.9707">+unit_id: int</text><text fill="#000000" font-family="sans-serif" font-size="14" lengthAdjust="spacing" textLength="151" x="320.5" y="1615.5801">+material_quantity: float</text><line style="stroke:#181818;stroke-width:0.5;" x1="315.5" x2="488.5" y1="1622.6563" y2="1622.6563"/></g><!--class OtherCost--><g id="elem_OtherCost"><rect codeLine="127" fill="#F1F1F1" height="118.4375" id="OtherCost" rx="2.5" ry="2.5" style="stroke:#181818;stroke-width:0.5;" width="123" x="152.5" y="1503.6094"/><ellipse cx="176.05" cy="1519.6094" fill="#ADD1B2" rx="11" ry="11" style="stroke:#181818;stroke-width:1.0;"/><path d="M178.8156,1515.4844 Q178.9719,1515.2656 179.1594,1515.1563 Q179.3469,1515.0469 179.5656,1515.0469 Q179.9406,1515.0469 180.175,1515.3125 Q180.4094,1515.5625 180.4094,1516.1719 L180.4094,1517.625 Q180.4094,1518.2344 180.175,1518.5 Q179.9406,1518.7656 179.5656,1518.7656 Q179.2219,1518.7656 179.0188,1518.5625 Q178.8156,1518.375 178.7063,1517.8594 Q178.6594,1517.5 178.4719,1517.3125 Q178.1438,1516.9375 177.5344,1516.7188 Q176.925,1516.5 176.3,1516.5 Q175.5344,1516.5 174.8938,1516.8281 Q174.2688,1517.1563 173.7688,1517.9063 Q173.2844,1518.6563 173.2844,1519.6875 L173.2844,1520.7813 Q173.2844,1522.0156 174.175,1522.8438 Q175.0656,1523.6563 176.6594,1523.6563 Q177.5969,1523.6563 178.2531,1523.4063 Q178.6438,1523.25 179.0656,1522.8125 Q179.3313,1522.5469 179.4719,1522.4688 Q179.6281,1522.3906 179.8313,1522.3906 Q180.1594,1522.3906 180.4094,1522.6563 Q180.675,1522.9063 180.675,1523.25 Q180.675,1523.5938 180.3313,1524 Q179.8313,1524.5781 179.0344,1524.9063 Q177.9563,1525.3594 176.6594,1525.3594 Q175.1438,1525.3594 173.9406,1524.7344 Q172.9563,1524.2344 172.2688,1523.1719 Q171.5813,1522.0938 171.5813,1520.8125 L171.5813,1519.6563 Q171.5813,1518.3281 172.1906,1517.1875 Q172.8156,1516.0313 173.9094,1515.4219 Q175.0031,1514.7969 176.2375,1514.7969 Q176.9719,1514.7969 177.6125,1514.9688 Q178.2688,1515.125 178.8156,1515.4844 Z " fill="#000000"/><text fill="#000000" font-family="sans-serif" font-size="14" font-weight="bold" lengthAdjust="spacing" textLength="72" x="191.95" y="1525.3379">OtherCost</text><line style="stroke:#181818;stroke-width:0.5;" x1="153.5" x2="274.5" y1="1535.6094" y2="1535.6094"/><text fill="#000000" font-family="sans-serif" font-size="14" lengthAdjust="spacing" textLength="42" x="158.5" y="1554.1426">+id: int</text><text fill="#000000" font-family="sans-serif" font-size="14" lengthAdjust="spacing" textLength="98" x="158.5" y="1571.752">+product_id: int</text><text fill="#000000" font-family="sans-serif" font-size="14" lengthAdjust="spacing" textLength="111" x="158.5" y="1589.3613">+type_cost_id: int</text><text fill="#000000" font-family="sans-serif" font-size="14" lengthAdjust="spacing" textLength="95" x="158.5" y="1606.9707">+price: decimal</text><line style="stroke:#181818;stroke-width:0.5;" x1="153.5" x2="274.5" y1="1614.0469" y2="1614.0469"/></g><!--class TypeCost--><g id="elem_TypeCost"><rect codeLine="134" fill="#F1F1F1" height="83.2188" id="TypeCost" rx="2.5" ry="2.5" style="stroke:#181818;stroke-width:0.5;" width="98" x="165" y="1797.6094"/><ellipse cx="180.45" cy="1813.6094" fill="#ADD1B2" rx="11" ry="11" style="stroke:#181818;stroke-width:1.0;"/><path d="M183.2156,1809.4844 Q183.3719,1809.2656 183.5594,1809.1563 Q183.7469,1809.0469 183.9656,1809.0469 Q184.3406,1809.0469 184.575,1809.3125 Q184.8094,1809.5625 184.8094,1810.1719 L184.8094,1811.625 Q184.8094,1812.2344 184.575,1812.5 Q184.3406,1812.7656 183.9656,1812.7656 Q183.6219,1812.7656 183.4188,1812.5625 Q183.2156,1812.375 183.1063,1811.8594 Q183.0594,1811.5 182.8719,1811.3125 Q182.5438,1810.9375 181.9344,1810.7188 Q181.325,1810.5 180.7,1810.5 Q179.9344,1810.5 179.2938,1810.8281 Q178.6688,1811.1563 178.1688,1811.9063 Q177.6844,1812.6563 177.6844,1813.6875 L177.6844,1814.7813 Q177.6844,1816.0156 178.575,1816.8438 Q179.4656,1817.6563 181.0594,1817.6563 Q181.9969,1817.6563 182.6531,1817.4063 Q183.0438,1817.25 183.4656,1816.8125 Q183.7313,1816.5469 183.8719,1816.4688 Q184.0281,1816.3906 184.2313,1816.3906 Q184.5594,1816.3906 184.8094,1816.6563 Q185.075,1816.9063 185.075,1817.25 Q185.075,1817.5938 184.7313,1818 Q184.2313,1818.5781 183.4344,1818.9063 Q182.3563,1819.3594 181.0594,1819.3594 Q179.5438,1819.3594 178.3406,1818.7344 Q177.3563,1818.2344 176.6688,1817.1719 Q175.9813,1816.0938 175.9813,1814.8125 L175.9813,1813.6563 Q175.9813,1812.3281 176.5906,1811.1875 Q177.2156,1810.0313 178.3094,1809.4219 Q179.4031,1808.7969 180.6375,1808.7969 Q181.3719,1808.7969 182.0125,1808.9688 Q182.6688,1809.125 183.2156,1809.4844 Z " fill="#000000"/><text fill="#000000" font-family="sans-serif" font-size="14" font-weight="bold" lengthAdjust="spacing" textLength="65" x="194.55" y="1819.3379">TypeCost</text><line style="stroke:#181818;stroke-width:0.5;" x1="166" x2="262" y1="1829.6094" y2="1829.6094"/><text fill="#000000" font-family="sans-serif" font-size="14" lengthAdjust="spacing" textLength="42" x="171" y="1848.1426">+id: int</text><text fill="#000000" font-family="sans-serif" font-size="14" lengthAdjust="spacing" textLength="86" x="171" y="1865.752">+name: string</text><line style="stroke:#181818;stroke-width:0.5;" x1="166" x2="262" y1="1872.8281" y2="1872.8281"/></g><!--class Production--><g id="elem_Production"><rect codeLine="140" fill="#F1F1F1" height="206.4844" id="Production" rx="2.5" ry="2.5" style="stroke:#181818;stroke-width:0.5;" width="186" x="554" y="45.6094"/><ellipse cx="604.25" cy="61.6094" fill="#ADD1B2" rx="11" ry="11" style="stroke:#181818;stroke-width:1.0;"/><path d="M607.0156,57.4844 Q607.1719,57.2656 607.3594,57.1563 Q607.5469,57.0469 607.7656,57.0469 Q608.1406,57.0469 608.375,57.3125 Q608.6094,57.5625 608.6094,58.1719 L608.6094,59.625 Q608.6094,60.2344 608.375,60.5 Q608.1406,60.7656 607.7656,60.7656 Q607.4219,60.7656 607.2188,60.5625 Q607.0156,60.375 606.9063,59.8594 Q606.8594,59.5 606.6719,59.3125 Q606.3438,58.9375 605.7344,58.7188 Q605.125,58.5 604.5,58.5 Q603.7344,58.5 603.0938,58.8281 Q602.4688,59.1563 601.9688,59.9063 Q601.4844,60.6563 601.4844,61.6875 L601.4844,62.7813 Q601.4844,64.0156 602.375,64.8438 Q603.2656,65.6563 604.8594,65.6563 Q605.7969,65.6563 606.4531,65.4063 Q606.8438,65.25 607.2656,64.8125 Q607.5313,64.5469 607.6719,64.4688 Q607.8281,64.3906 608.0313,64.3906 Q608.3594,64.3906 608.6094,64.6563 Q608.875,64.9063 608.875,65.25 Q608.875,65.5938 608.5313,66 Q608.0313,66.5781 607.2344,66.9063 Q606.1563,67.3594 604.8594,67.3594 Q603.3438,67.3594 602.1406,66.7344 Q601.1563,66.2344 600.4688,65.1719 Q599.7813,64.0938 599.7813,62.8125 L599.7813,61.6563 Q599.7813,60.3281 600.3906,59.1875 Q601.0156,58.0313 602.1094,57.4219 Q603.2031,56.7969 604.4375,56.7969 Q605.1719,56.7969 605.8125,56.9688 Q606.4688,57.125 607.0156,57.4844 Z " fill="#000000"/><text fill="#000000" font-family="sans-serif" font-size="14" font-weight="bold" lengthAdjust="spacing" textLength="77" x="624.75" y="67.3379">Production</text><line style="stroke:#181818;stroke-width:0.5;" x1="555" x2="739" y1="77.6094" y2="77.6094"/><text fill="#000000" font-family="sans-serif" font-size="14" lengthAdjust="spacing" textLength="42" x="560" y="96.1426">+id: int</text><text fill="#000000" font-family="sans-serif" font-size="14" lengthAdjust="spacing" textLength="174" x="560" y="113.752">+production_number: string</text><text fill="#000000" font-family="sans-serif" font-size="14" lengthAdjust="spacing" textLength="145" x="560" y="131.3613">+transaction_id: int|null</text><text fill="#000000" font-family="sans-serif" font-size="14" lengthAdjust="spacing" textLength="98" x="560" y="148.9707">+method: string</text><text fill="#000000" font-family="sans-serif" font-size="14" lengthAdjust="spacing" textLength="72" x="560" y="166.5801">+date: date</text><text fill="#000000" font-family="sans-serif" font-size="14" lengthAdjust="spacing" textLength="68" x="560" y="184.1895">+time: time</text><text fill="#000000" font-family="sans-serif" font-size="14" lengthAdjust="spacing" textLength="89" x="560" y="201.7988">+status: string</text><text fill="#000000" font-family="sans-serif" font-size="14" lengthAdjust="spacing" textLength="89" x="560" y="219.4082">+is_start: bool</text><text fill="#000000" font-family="sans-serif" font-size="14" lengthAdjust="spacing" textLength="94" x="560" y="237.0176">+is_finish: bool</text><line style="stroke:#181818;stroke-width:0.5;" x1="555" x2="739" y1="244.0938" y2="244.0938"/></g><!--class ProductionDetail--><g id="elem_ProductionDetail"><rect codeLine="152" fill="#F1F1F1" height="171.2656" id="ProductionDetail" rx="2.5" ry="2.5" style="stroke:#181818;stroke-width:0.5;" width="149" x="208.5" y="601.6094"/><ellipse cx="223.5" cy="617.6094" fill="#ADD1B2" rx="11" ry="11" style="stroke:#181818;stroke-width:1.0;"/><path d="M226.2656,613.4844 Q226.4219,613.2656 226.6094,613.1563 Q226.7969,613.0469 227.0156,613.0469 Q227.3906,613.0469 227.625,613.3125 Q227.8594,613.5625 227.8594,614.1719 L227.8594,615.625 Q227.8594,616.2344 227.625,616.5 Q227.3906,616.7656 227.0156,616.7656 Q226.6719,616.7656 226.4688,616.5625 Q226.2656,616.375 226.1563,615.8594 Q226.1094,615.5 225.9219,615.3125 Q225.5938,614.9375 224.9844,614.7188 Q224.375,614.5 223.75,614.5 Q222.9844,614.5 222.3438,614.8281 Q221.7188,615.1563 221.2188,615.9063 Q220.7344,616.6563 220.7344,617.6875 L220.7344,618.7813 Q220.7344,620.0156 221.625,620.8438 Q222.5156,621.6563 224.1094,621.6563 Q225.0469,621.6563 225.7031,621.4063 Q226.0938,621.25 226.5156,620.8125 Q226.7813,620.5469 226.9219,620.4688 Q227.0781,620.3906 227.2813,620.3906 Q227.6094,620.3906 227.8594,620.6563 Q228.125,620.9063 228.125,621.25 Q228.125,621.5938 227.7813,622 Q227.2813,622.5781 226.4844,622.9063 Q225.4063,623.3594 224.1094,623.3594 Q222.5938,623.3594 221.3906,622.7344 Q220.4063,622.2344 219.7188,621.1719 Q219.0313,620.0938 219.0313,618.8125 L219.0313,617.6563 Q219.0313,616.3281 219.6406,615.1875 Q220.2656,614.0313 221.3594,613.4219 Q222.4531,612.7969 223.6875,612.7969 Q224.4219,612.7969 225.0625,612.9688 Q225.7188,613.125 226.2656,613.4844 Z " fill="#000000"/><text fill="#000000" font-family="sans-serif" font-size="14" font-weight="bold" lengthAdjust="spacing" textLength="117" x="237.5" y="623.3379">ProductionDetail</text><line style="stroke:#181818;stroke-width:0.5;" x1="209.5" x2="356.5" y1="633.6094" y2="633.6094"/><text fill="#000000" font-family="sans-serif" font-size="14" lengthAdjust="spacing" textLength="42" x="214.5" y="652.1426">+id: int</text><text fill="#000000" font-family="sans-serif" font-size="14" lengthAdjust="spacing" textLength="117" x="214.5" y="669.752">+production_id: int</text><text fill="#000000" font-family="sans-serif" font-size="14" lengthAdjust="spacing" textLength="98" x="214.5" y="687.3613">+product_id: int</text><text fill="#000000" font-family="sans-serif" font-size="14" lengthAdjust="spacing" textLength="128" x="214.5" y="704.9707">+quantity_plan: float</text><text fill="#000000" font-family="sans-serif" font-size="14" lengthAdjust="spacing" textLength="121" x="214.5" y="722.5801">+quantity_get: float</text><text fill="#000000" font-family="sans-serif" font-size="14" lengthAdjust="spacing" textLength="119" x="214.5" y="740.1895">+quantity_fail: float</text><text fill="#000000" font-family="sans-serif" font-size="14" lengthAdjust="spacing" textLength="63" x="214.5" y="757.7988">+cycle: int</text><line style="stroke:#181818;stroke-width:0.5;" x1="209.5" x2="356.5" y1="764.875" y2="764.875"/></g><!--class ProductionWorker--><g id="elem_ProductionWorker"><rect codeLine="162" fill="#F1F1F1" height="100.8281" id="ProductionWorker" rx="2.5" ry="2.5" style="stroke:#181818;stroke-width:0.5;" width="160" x="775" y="98.1094"/><ellipse cx="790" cy="114.1094" fill="#ADD1B2" rx="11" ry="11" style="stroke:#181818;stroke-width:1.0;"/><path d="M792.7656,109.9844 Q792.9219,109.7656 793.1094,109.6563 Q793.2969,109.5469 793.5156,109.5469 Q793.8906,109.5469 794.125,109.8125 Q794.3594,110.0625 794.3594,110.6719 L794.3594,112.125 Q794.3594,112.7344 794.125,113 Q793.8906,113.2656 793.5156,113.2656 Q793.1719,113.2656 792.9688,113.0625 Q792.7656,112.875 792.6563,112.3594 Q792.6094,112 792.4219,111.8125 Q792.0938,111.4375 791.4844,111.2188 Q790.875,111 790.25,111 Q789.4844,111 788.8438,111.3281 Q788.2188,111.6563 787.7188,112.4063 Q787.2344,113.1563 787.2344,114.1875 L787.2344,115.2813 Q787.2344,116.5156 788.125,117.3438 Q789.0156,118.1563 790.6094,118.1563 Q791.5469,118.1563 792.2031,117.9063 Q792.5938,117.75 793.0156,117.3125 Q793.2813,117.0469 793.4219,116.9688 Q793.5781,116.8906 793.7813,116.8906 Q794.1094,116.8906 794.3594,117.1563 Q794.625,117.4063 794.625,117.75 Q794.625,118.0938 794.2813,118.5 Q793.7813,119.0781 792.9844,119.4063 Q791.9063,119.8594 790.6094,119.8594 Q789.0938,119.8594 787.8906,119.2344 Q786.9063,118.7344 786.2188,117.6719 Q785.5313,116.5938 785.5313,115.3125 L785.5313,114.1563 Q785.5313,112.8281 786.1406,111.6875 Q786.7656,110.5313 787.8594,109.9219 Q788.9531,109.2969 790.1875,109.2969 Q790.9219,109.2969 791.5625,109.4688 Q792.2188,109.625 792.7656,109.9844 Z " fill="#000000"/><text fill="#000000" font-family="sans-serif" font-size="14" font-weight="bold" lengthAdjust="spacing" textLength="128" x="804" y="119.8379">ProductionWorker</text><line style="stroke:#181818;stroke-width:0.5;" x1="776" x2="934" y1="130.1094" y2="130.1094"/><text fill="#000000" font-family="sans-serif" font-size="14" lengthAdjust="spacing" textLength="42" x="781" y="148.6426">+id: int</text><text fill="#000000" font-family="sans-serif" font-size="14" lengthAdjust="spacing" textLength="117" x="781" y="166.252">+production_id: int</text><text fill="#000000" font-family="sans-serif" font-size="14" lengthAdjust="spacing" textLength="78" x="781" y="183.8613">+user_id: int</text><line style="stroke:#181818;stroke-width:0.5;" x1="776" x2="934" y1="190.9375" y2="190.9375"/></g><!--class Transaction--><g id="elem_Transaction"><rect codeLine="169" fill="#F1F1F1" height="259.3125" id="Transaction" rx="2.5" ry="2.5" style="stroke:#181818;stroke-width:0.5;" width="163" x="743.5" y="312.6094"/><ellipse cx="780.55" cy="328.6094" fill="#ADD1B2" rx="11" ry="11" style="stroke:#181818;stroke-width:1.0;"/><path d="M783.3156,324.4844 Q783.4719,324.2656 783.6594,324.1563 Q783.8469,324.0469 784.0656,324.0469 Q784.4406,324.0469 784.675,324.3125 Q784.9094,324.5625 784.9094,325.1719 L784.9094,326.625 Q784.9094,327.2344 784.675,327.5 Q784.4406,327.7656 784.0656,327.7656 Q783.7219,327.7656 783.5188,327.5625 Q783.3156,327.375 783.2063,326.8594 Q783.1594,326.5 782.9719,326.3125 Q782.6438,325.9375 782.0344,325.7188 Q781.425,325.5 780.8,325.5 Q780.0344,325.5 779.3938,325.8281 Q778.7688,326.1563 778.2688,326.9063 Q777.7844,327.6563 777.7844,328.6875 L777.7844,329.7813 Q777.7844,331.0156 778.675,331.8438 Q779.5656,332.6563 781.1594,332.6563 Q782.0969,332.6563 782.7531,332.4063 Q783.1438,332.25 783.5656,331.8125 Q783.8313,331.5469 783.9719,331.4688 Q784.1281,331.3906 784.3313,331.3906 Q784.6594,331.3906 784.9094,331.6563 Q785.175,331.9063 785.175,332.25 Q785.175,332.5938 784.8313,333 Q784.3313,333.5781 783.5344,333.9063 Q782.4563,334.3594 781.1594,334.3594 Q779.6438,334.3594 778.4406,333.7344 Q777.4563,333.2344 776.7688,332.1719 Q776.0813,331.0938 776.0813,329.8125 L776.0813,328.6563 Q776.0813,327.3281 776.6906,326.1875 Q777.3156,325.0313 778.4094,324.4219 Q779.5031,323.7969 780.7375,323.7969 Q781.4719,323.7969 782.1125,323.9688 Q782.7688,324.125 783.3156,324.4844 Z " fill="#000000"/><text fill="#000000" font-family="sans-serif" font-size="14" font-weight="bold" lengthAdjust="spacing" textLength="82" x="799.45" y="334.3379">Transaction</text><line style="stroke:#181818;stroke-width:0.5;" x1="744.5" x2="905.5" y1="344.6094" y2="344.6094"/><text fill="#000000" font-family="sans-serif" font-size="14" lengthAdjust="spacing" textLength="42" x="749.5" y="363.1426">+id: int</text><text fill="#000000" font-family="sans-serif" font-size="14" lengthAdjust="spacing" textLength="78" x="749.5" y="380.752">+user_id: int</text><text fill="#000000" font-family="sans-serif" font-size="14" lengthAdjust="spacing" textLength="151" x="749.5" y="398.3613">+invoice_number: string</text><text fill="#000000" font-family="sans-serif" font-size="14" lengthAdjust="spacing" textLength="86" x="749.5" y="415.9707">+name: string</text><text fill="#000000" font-family="sans-serif" font-size="14" lengthAdjust="spacing" textLength="91" x="749.5" y="433.5801">+phone: string</text><text fill="#000000" font-family="sans-serif" font-size="14" lengthAdjust="spacing" textLength="72" x="749.5" y="451.1895">+date: date</text><text fill="#000000" font-family="sans-serif" font-size="14" lengthAdjust="spacing" textLength="68" x="749.5" y="468.7988">+time: time</text><text fill="#000000" font-family="sans-serif" font-size="14" lengthAdjust="spacing" textLength="151" x="749.5" y="486.4082">+payment_status: string</text><text fill="#000000" font-family="sans-serif" font-size="14" lengthAdjust="spacing" textLength="89" x="749.5" y="504.0176">+status: string</text><text fill="#000000" font-family="sans-serif" font-size="14" lengthAdjust="spacing" textLength="98" x="749.5" y="521.627">+method: string</text><text fill="#000000" font-family="sans-serif" font-size="14" lengthAdjust="spacing" textLength="146" x="749.5" y="539.2363">+total_amount: decimal</text><text fill="#000000" font-family="sans-serif" font-size="14" lengthAdjust="spacing" textLength="136" x="749.5" y="556.8457">+created_by_shift: int</text><line style="stroke:#181818;stroke-width:0.5;" x1="744.5" x2="905.5" y1="563.9219" y2="563.9219"/></g><!--class TransactionDetail--><g id="elem_TransactionDetail"><rect codeLine="184" fill="#F1F1F1" height="153.6563" id="TransactionDetail" rx="2.5" ry="2.5" style="stroke:#181818;stroke-width:0.5;" width="213" x="87.5" y="855.1094"/><ellipse cx="129.05" cy="871.1094" fill="#ADD1B2" rx="11" ry="11" style="stroke:#181818;stroke-width:1.0;"/><path d="M131.8156,866.9844 Q131.9719,866.7656 132.1594,866.6563 Q132.3469,866.5469 132.5656,866.5469 Q132.9406,866.5469 133.175,866.8125 Q133.4094,867.0625 133.4094,867.6719 L133.4094,869.125 Q133.4094,869.7344 133.175,870 Q132.9406,870.2656 132.5656,870.2656 Q132.2219,870.2656 132.0188,870.0625 Q131.8156,869.875 131.7063,869.3594 Q131.6594,869 131.4719,868.8125 Q131.1438,868.4375 130.5344,868.2188 Q129.925,868 129.3,868 Q128.5344,868 127.8938,868.3281 Q127.2688,868.6563 126.7688,869.4063 Q126.2844,870.1563 126.2844,871.1875 L126.2844,872.2813 Q126.2844,873.5156 127.175,874.3438 Q128.0656,875.1563 129.6594,875.1563 Q130.5969,875.1563 131.2531,874.9063 Q131.6438,874.75 132.0656,874.3125 Q132.3313,874.0469 132.4719,873.9688 Q132.6281,873.8906 132.8313,873.8906 Q133.1594,873.8906 133.4094,874.1563 Q133.675,874.4063 133.675,874.75 Q133.675,875.0938 133.3313,875.5 Q132.8313,876.0781 132.0344,876.4063 Q130.9563,876.8594 129.6594,876.8594 Q128.1438,876.8594 126.9406,876.2344 Q125.9563,875.7344 125.2688,874.6719 Q124.5813,873.5938 124.5813,872.3125 L124.5813,871.1563 Q124.5813,869.8281 125.1906,868.6875 Q125.8156,867.5313 126.9094,866.9219 Q128.0031,866.2969 129.2375,866.2969 Q129.9719,866.2969 130.6125,866.4688 Q131.2688,866.625 131.8156,866.9844 Z " fill="#000000"/><text fill="#000000" font-family="sans-serif" font-size="14" font-weight="bold" lengthAdjust="spacing" textLength="122" x="148.95" y="876.8379">TransactionDetail</text><line style="stroke:#181818;stroke-width:0.5;" x1="88.5" x2="299.5" y1="887.1094" y2="887.1094"/><text fill="#000000" font-family="sans-serif" font-size="14" lengthAdjust="spacing" textLength="42" x="93.5" y="905.6426">+id: int</text><text fill="#000000" font-family="sans-serif" font-size="14" lengthAdjust="spacing" textLength="120" x="93.5" y="923.252">+transaction_id: int</text><text fill="#000000" font-family="sans-serif" font-size="14" lengthAdjust="spacing" textLength="98" x="93.5" y="940.8613">+product_id: int</text><text fill="#000000" font-family="sans-serif" font-size="14" lengthAdjust="spacing" textLength="81" x="93.5" y="958.4707">+quantity: int</text><text fill="#000000" font-family="sans-serif" font-size="14" lengthAdjust="spacing" textLength="95" x="93.5" y="976.0801">+price: decimal</text><text fill="#000000" font-family="sans-serif" font-size="14" lengthAdjust="spacing" textLength="201" x="93.5" y="993.6895">+pcs_capital_snapshot: decimal</text><line style="stroke:#181818;stroke-width:0.5;" x1="88.5" x2="299.5" y1="1000.7656" y2="1000.7656"/></g><!--class Payment--><g id="elem_Payment"><rect codeLine="193" fill="#F1F1F1" height="188.875" id="Payment" rx="2.5" ry="2.5" style="stroke:#181818;stroke-width:0.5;" width="174" x="336" y="837.6094"/><ellipse cx="389.25" cy="853.6094" fill="#ADD1B2" rx="11" ry="11" style="stroke:#181818;stroke-width:1.0;"/><path d="M392.0156,849.4844 Q392.1719,849.2656 392.3594,849.1563 Q392.5469,849.0469 392.7656,849.0469 Q393.1406,849.0469 393.375,849.3125 Q393.6094,849.5625 393.6094,850.1719 L393.6094,851.625 Q393.6094,852.2344 393.375,852.5 Q393.1406,852.7656 392.7656,852.7656 Q392.4219,852.7656 392.2188,852.5625 Q392.0156,852.375 391.9063,851.8594 Q391.8594,851.5 391.6719,851.3125 Q391.3438,850.9375 390.7344,850.7188 Q390.125,850.5 389.5,850.5 Q388.7344,850.5 388.0938,850.8281 Q387.4688,851.1563 386.9688,851.9063 Q386.4844,852.6563 386.4844,853.6875 L386.4844,854.7813 Q386.4844,856.0156 387.375,856.8438 Q388.2656,857.6563 389.8594,857.6563 Q390.7969,857.6563 391.4531,857.4063 Q391.8438,857.25 392.2656,856.8125 Q392.5313,856.5469 392.6719,856.4688 Q392.8281,856.3906 393.0313,856.3906 Q393.3594,856.3906 393.6094,856.6563 Q393.875,856.9063 393.875,857.25 Q393.875,857.5938 393.5313,858 Q393.0313,858.5781 392.2344,858.9063 Q391.1563,859.3594 389.8594,859.3594 Q388.3438,859.3594 387.1406,858.7344 Q386.1563,858.2344 385.4688,857.1719 Q384.7813,856.0938 384.7813,854.8125 L384.7813,853.6563 Q384.7813,852.3281 385.3906,851.1875 Q386.0156,850.0313 387.1094,849.4219 Q388.2031,848.7969 389.4375,848.7969 Q390.1719,848.7969 390.8125,848.9688 Q391.4688,849.125 392.0156,849.4844 Z " fill="#000000"/><text fill="#000000" font-family="sans-serif" font-size="14" font-weight="bold" lengthAdjust="spacing" textLength="59" x="409.75" y="859.3379">Payment</text><line style="stroke:#181818;stroke-width:0.5;" x1="337" x2="509" y1="869.6094" y2="869.6094"/><text fill="#000000" font-family="sans-serif" font-size="14" lengthAdjust="spacing" textLength="42" x="342" y="888.1426">+id: int</text><text fill="#000000" font-family="sans-serif" font-size="14" lengthAdjust="spacing" textLength="150" x="342" y="905.752">+receipt_number: string</text><text fill="#000000" font-family="sans-serif" font-size="14" lengthAdjust="spacing" textLength="120" x="342" y="923.3613">+transaction_id: int</text><text fill="#000000" font-family="sans-serif" font-size="14" lengthAdjust="spacing" textLength="162" x="342" y="940.9707">+payment_channel_id: int</text><text fill="#000000" font-family="sans-serif" font-size="14" lengthAdjust="spacing" textLength="160" x="342" y="958.5801">+payment_method: string</text><text fill="#000000" font-family="sans-serif" font-size="14" lengthAdjust="spacing" textLength="150" x="342" y="976.1895">+payment_group: string</text><text fill="#000000" font-family="sans-serif" font-size="14" lengthAdjust="spacing" textLength="146" x="342" y="993.7988">+paid_amount: decimal</text><text fill="#000000" font-family="sans-serif" font-size="14" lengthAdjust="spacing" textLength="117" x="342" y="1011.4082">+paid_at: datetime</text><line style="stroke:#181818;stroke-width:0.5;" x1="337" x2="509" y1="1018.4844" y2="1018.4844"/></g><!--class PaymentChannel--><g id="elem_PaymentChannel"><rect codeLine="204" fill="#F1F1F1" height="188.875" id="PaymentChannel" rx="2.5" ry="2.5" style="stroke:#181818;stroke-width:0.5;" width="169" x="338.5" y="1157.1094"/><ellipse cx="362.5" cy="1173.1094" fill="#ADD1B2" rx="11" ry="11" style="stroke:#181818;stroke-width:1.0;"/><path d="M365.2656,1168.9844 Q365.4219,1168.7656 365.6094,1168.6563 Q365.7969,1168.5469 366.0156,1168.5469 Q366.3906,1168.5469 366.625,1168.8125 Q366.8594,1169.0625 366.8594,1169.6719 L366.8594,1171.125 Q366.8594,1171.7344 366.625,1172 Q366.3906,1172.2656 366.0156,1172.2656 Q365.6719,1172.2656 365.4688,1172.0625 Q365.2656,1171.875 365.1563,1171.3594 Q365.1094,1171 364.9219,1170.8125 Q364.5938,1170.4375 363.9844,1170.2188 Q363.375,1170 362.75,1170 Q361.9844,1170 361.3438,1170.3281 Q360.7188,1170.6563 360.2188,1171.4063 Q359.7344,1172.1563 359.7344,1173.1875 L359.7344,1174.2813 Q359.7344,1175.5156 360.625,1176.3438 Q361.5156,1177.1563 363.1094,1177.1563 Q364.0469,1177.1563 364.7031,1176.9063 Q365.0938,1176.75 365.5156,1176.3125 Q365.7813,1176.0469 365.9219,1175.9688 Q366.0781,1175.8906 366.2813,1175.8906 Q366.6094,1175.8906 366.8594,1176.1563 Q367.125,1176.4063 367.125,1176.75 Q367.125,1177.0938 366.7813,1177.5 Q366.2813,1178.0781 365.4844,1178.4063 Q364.4063,1178.8594 363.1094,1178.8594 Q361.5938,1178.8594 360.3906,1178.2344 Q359.4063,1177.7344 358.7188,1176.6719 Q358.0313,1175.5938 358.0313,1174.3125 L358.0313,1173.1563 Q358.0313,1171.8281 358.6406,1170.6875 Q359.2656,1169.5313 360.3594,1168.9219 Q361.4531,1168.2969 362.6875,1168.2969 Q363.4219,1168.2969 364.0625,1168.4688 Q364.7188,1168.625 365.2656,1168.9844 Z " fill="#000000"/><text fill="#000000" font-family="sans-serif" font-size="14" font-weight="bold" lengthAdjust="spacing" textLength="117" x="378.5" y="1178.8379">PaymentChannel</text><line style="stroke:#181818;stroke-width:0.5;" x1="339.5" x2="506.5" y1="1189.1094" y2="1189.1094"/><text fill="#000000" font-family="sans-serif" font-size="14" lengthAdjust="spacing" textLength="42" x="344.5" y="1207.6426">+id: int</text><text fill="#000000" font-family="sans-serif" font-size="14" lengthAdjust="spacing" textLength="78" x="344.5" y="1225.252">+type: string</text><text fill="#000000" font-family="sans-serif" font-size="14" lengthAdjust="spacing" textLength="88" x="344.5" y="1242.8613">+group: string</text><text fill="#000000" font-family="sans-serif" font-size="14" lengthAdjust="spacing" textLength="125" x="344.5" y="1260.4707">+bank_name: string</text><text fill="#000000" font-family="sans-serif" font-size="14" lengthAdjust="spacing" textLength="157" x="344.5" y="1278.0801">+account_number: string</text><text fill="#000000" font-family="sans-serif" font-size="14" lengthAdjust="spacing" textLength="144" x="344.5" y="1295.6895">+account_name: string</text><text fill="#000000" font-family="sans-serif" font-size="14" lengthAdjust="spacing" textLength="120" x="344.5" y="1313.2988">+qris_image: string</text><text fill="#000000" font-family="sans-serif" font-size="14" lengthAdjust="spacing" textLength="98" x="344.5" y="1330.9082">+is_active: bool</text><line style="stroke:#181818;stroke-width:0.5;" x1="339.5" x2="506.5" y1="1337.9844" y2="1337.9844"/></g><!--class Shift--><g id="elem_Shift"><rect codeLine="216" fill="#F1F1F1" height="259.3125" id="Shift" rx="2.5" ry="2.5" style="stroke:#181818;stroke-width:0.5;" width="171" x="1078.5" y="802.6094"/><ellipse cx="1143.75" cy="818.6094" fill="#ADD1B2" rx="11" ry="11" style="stroke:#181818;stroke-width:1.0;"/><path d="M1146.5156,814.4844 Q1146.6719,814.2656 1146.8594,814.1563 Q1147.0469,814.0469 1147.2656,814.0469 Q1147.6406,814.0469 1147.875,814.3125 Q1148.1094,814.5625 1148.1094,815.1719 L1148.1094,816.625 Q1148.1094,817.2344 1147.875,817.5 Q1147.6406,817.7656 1147.2656,817.7656 Q1146.9219,817.7656 1146.7188,817.5625 Q1146.5156,817.375 1146.4063,816.8594 Q1146.3594,816.5 1146.1719,816.3125 Q1145.8438,815.9375 1145.2344,815.7188 Q1144.625,815.5 1144,815.5 Q1143.2344,815.5 1142.5938,815.8281 Q1141.9688,816.1563 1141.4688,816.9063 Q1140.9844,817.6563 1140.9844,818.6875 L1140.9844,819.7813 Q1140.9844,821.0156 1141.875,821.8438 Q1142.7656,822.6563 1144.3594,822.6563 Q1145.2969,822.6563 1145.9531,822.4063 Q1146.3438,822.25 1146.7656,821.8125 Q1147.0313,821.5469 1147.1719,821.4688 Q1147.3281,821.3906 1147.5313,821.3906 Q1147.8594,821.3906 1148.1094,821.6563 Q1148.375,821.9063 1148.375,822.25 Q1148.375,822.5938 1148.0313,823 Q1147.5313,823.5781 1146.7344,823.9063 Q1145.6563,824.3594 1144.3594,824.3594 Q1142.8438,824.3594 1141.6406,823.7344 Q1140.6563,823.2344 1139.9688,822.1719 Q1139.2813,821.0938 1139.2813,819.8125 L1139.2813,818.6563 Q1139.2813,817.3281 1139.8906,816.1875 Q1140.5156,815.0313 1141.6094,814.4219 Q1142.7031,813.7969 1143.9375,813.7969 Q1144.6719,813.7969 1145.3125,813.9688 Q1145.9688,814.125 1146.5156,814.4844 Z " fill="#000000"/><text fill="#000000" font-family="sans-serif" font-size="14" font-weight="bold" lengthAdjust="spacing" textLength="32" x="1164.25" y="824.3379">Shift</text><line style="stroke:#181818;stroke-width:0.5;" x1="1079.5" x2="1248.5" y1="834.6094" y2="834.6094"/><text fill="#000000" font-family="sans-serif" font-size="14" lengthAdjust="spacing" textLength="42" x="1084.5" y="853.1426">+id: int</text><text fill="#000000" font-family="sans-serif" font-size="14" lengthAdjust="spacing" textLength="133" x="1084.5" y="870.752">+shift_number: string</text><text fill="#000000" font-family="sans-serif" font-size="14" lengthAdjust="spacing" textLength="102" x="1084.5" y="888.3613">+opened_by: int</text><text fill="#000000" font-family="sans-serif" font-size="14" lengthAdjust="spacing" textLength="120" x="1084.5" y="905.9707">+closed_by: int|null</text><text fill="#000000" font-family="sans-serif" font-size="14" lengthAdjust="spacing" textLength="132" x="1084.5" y="923.5801">+start_time: datetime</text><text fill="#000000" font-family="sans-serif" font-size="14" lengthAdjust="spacing" textLength="153" x="1084.5" y="941.1895">+end_time: datetime|null</text><text fill="#000000" font-family="sans-serif" font-size="14" lengthAdjust="spacing" textLength="89" x="1084.5" y="958.7988">+status: string</text><text fill="#000000" font-family="sans-serif" font-size="14" lengthAdjust="spacing" textLength="134" x="1084.5" y="976.4082">+initial_cash: decimal</text><text fill="#000000" font-family="sans-serif" font-size="14" lengthAdjust="spacing" textLength="153" x="1084.5" y="994.0176">+final_cash: decimal|null</text><text fill="#000000" font-family="sans-serif" font-size="14" lengthAdjust="spacing" textLength="132" x="1084.5" y="1011.627">+total_sales: decimal</text><text fill="#000000" font-family="sans-serif" font-size="14" lengthAdjust="spacing" textLength="147" x="1084.5" y="1029.2363">+total_refunds: decimal</text><text fill="#000000" font-family="sans-serif" font-size="14" lengthAdjust="spacing" textLength="159" x="1084.5" y="1046.8457">+total_discounts: decimal</text><line style="stroke:#181818;stroke-width:0.5;" x1="1079.5" x2="1248.5" y1="1053.9219" y2="1053.9219"/></g><!--class InventoryLog--><g id="elem_InventoryLog"><rect codeLine="232" fill="#F1F1F1" height="224.0938" id="InventoryLog" rx="2.5" ry="2.5" style="stroke:#181818;stroke-width:0.5;" width="180" x="545" y="820.1094"/><ellipse cx="584.75" cy="836.1094" fill="#ADD1B2" rx="11" ry="11" style="stroke:#181818;stroke-width:1.0;"/><path d="M587.5156,831.9844 Q587.6719,831.7656 587.8594,831.6563 Q588.0469,831.5469 588.2656,831.5469 Q588.6406,831.5469 588.875,831.8125 Q589.1094,832.0625 589.1094,832.6719 L589.1094,834.125 Q589.1094,834.7344 588.875,835 Q588.6406,835.2656 588.2656,835.2656 Q587.9219,835.2656 587.7188,835.0625 Q587.5156,834.875 587.4063,834.3594 Q587.3594,834 587.1719,833.8125 Q586.8438,833.4375 586.2344,833.2188 Q585.625,833 585,833 Q584.2344,833 583.5938,833.3281 Q582.9688,833.6563 582.4688,834.4063 Q581.9844,835.1563 581.9844,836.1875 L581.9844,837.2813 Q581.9844,838.5156 582.875,839.3438 Q583.7656,840.1563 585.3594,840.1563 Q586.2969,840.1563 586.9531,839.9063 Q587.3438,839.75 587.7656,839.3125 Q588.0313,839.0469 588.1719,838.9688 Q588.3281,838.8906 588.5313,838.8906 Q588.8594,838.8906 589.1094,839.1563 Q589.375,839.4063 589.375,839.75 Q589.375,840.0938 589.0313,840.5 Q588.5313,841.0781 587.7344,841.4063 Q586.6563,841.8594 585.3594,841.8594 Q583.8438,841.8594 582.6406,841.2344 Q581.6563,840.7344 580.9688,839.6719 Q580.2813,838.5938 580.2813,837.3125 L580.2813,836.1563 Q580.2813,834.8281 580.8906,833.6875 Q581.5156,832.5313 582.6094,831.9219 Q583.7031,831.2969 584.9375,831.2969 Q585.6719,831.2969 586.3125,831.4688 Q586.9688,831.625 587.5156,831.9844 Z " fill="#000000"/><text fill="#000000" font-family="sans-serif" font-size="14" font-weight="bold" lengthAdjust="spacing" textLength="93" x="604.25" y="841.8379">InventoryLog</text><line style="stroke:#181818;stroke-width:0.5;" x1="546" x2="724" y1="852.1094" y2="852.1094"/><text fill="#000000" font-family="sans-serif" font-size="14" lengthAdjust="spacing" textLength="42" x="551" y="870.6426">+id: int</text><text fill="#000000" font-family="sans-serif" font-size="14" lengthAdjust="spacing" textLength="100" x="551" y="888.252">+material_id: int</text><text fill="#000000" font-family="sans-serif" font-size="14" lengthAdjust="spacing" textLength="168" x="551" y="905.8613">+material_batch_id: int|null</text><text fill="#000000" font-family="sans-serif" font-size="14" lengthAdjust="spacing" textLength="78" x="551" y="923.4707">+user_id: int</text><text fill="#000000" font-family="sans-serif" font-size="14" lengthAdjust="spacing" textLength="89" x="551" y="941.0801">+action: string</text><text fill="#000000" font-family="sans-serif" font-size="14" lengthAdjust="spacing" textLength="148" x="551" y="958.6895">+quantity_change: float</text><text fill="#000000" font-family="sans-serif" font-size="14" lengthAdjust="spacing" textLength="130" x="551" y="976.2988">+quantity_after: float</text><text fill="#000000" font-family="sans-serif" font-size="14" lengthAdjust="spacing" textLength="147" x="551" y="993.9082">+reference_type: string</text><text fill="#000000" font-family="sans-serif" font-size="14" lengthAdjust="spacing" textLength="111" x="551" y="1011.5176">+reference_id: int</text><text fill="#000000" font-family="sans-serif" font-size="14" lengthAdjust="spacing" textLength="79" x="551" y="1029.127">+note: string</text><line style="stroke:#181818;stroke-width:0.5;" x1="546" x2="724" y1="1036.2031" y2="1036.2031"/></g><!--class Notification--><g id="elem_Notification"><rect codeLine="245" fill="#F1F1F1" height="171.2656" id="Notification" rx="2.5" ry="2.5" style="stroke:#181818;stroke-width:0.5;" width="112" x="931" y="846.6094"/><ellipse cx="946" cy="862.6094" fill="#ADD1B2" rx="11" ry="11" style="stroke:#181818;stroke-width:1.0;"/><path d="M948.7656,858.4844 Q948.9219,858.2656 949.1094,858.1563 Q949.2969,858.0469 949.5156,858.0469 Q949.8906,858.0469 950.125,858.3125 Q950.3594,858.5625 950.3594,859.1719 L950.3594,860.625 Q950.3594,861.2344 950.125,861.5 Q949.8906,861.7656 949.5156,861.7656 Q949.1719,861.7656 948.9688,861.5625 Q948.7656,861.375 948.6563,860.8594 Q948.6094,860.5 948.4219,860.3125 Q948.0938,859.9375 947.4844,859.7188 Q946.875,859.5 946.25,859.5 Q945.4844,859.5 944.8438,859.8281 Q944.2188,860.1563 943.7188,860.9063 Q943.2344,861.6563 943.2344,862.6875 L943.2344,863.7813 Q943.2344,865.0156 944.125,865.8438 Q945.0156,866.6563 946.6094,866.6563 Q947.5469,866.6563 948.2031,866.4063 Q948.5938,866.25 949.0156,865.8125 Q949.2813,865.5469 949.4219,865.4688 Q949.5781,865.3906 949.7813,865.3906 Q950.1094,865.3906 950.3594,865.6563 Q950.625,865.9063 950.625,866.25 Q950.625,866.5938 950.2813,867 Q949.7813,867.5781 948.9844,867.9063 Q947.9063,868.3594 946.6094,868.3594 Q945.0938,868.3594 943.8906,867.7344 Q942.9063,867.2344 942.2188,866.1719 Q941.5313,865.0938 941.5313,863.8125 L941.5313,862.6563 Q941.5313,861.3281 942.1406,860.1875 Q942.7656,859.0313 943.8594,858.4219 Q944.9531,857.7969 946.1875,857.7969 Q946.9219,857.7969 947.5625,857.9688 Q948.2188,858.125 948.7656,858.4844 Z " fill="#000000"/><text fill="#000000" font-family="sans-serif" font-size="14" font-weight="bold" lengthAdjust="spacing" textLength="80" x="960" y="868.3379">Notification</text><line style="stroke:#181818;stroke-width:0.5;" x1="932" x2="1042" y1="878.6094" y2="878.6094"/><text fill="#000000" font-family="sans-serif" font-size="14" lengthAdjust="spacing" textLength="42" x="937" y="897.1426">+id: int</text><text fill="#000000" font-family="sans-serif" font-size="14" lengthAdjust="spacing" textLength="78" x="937" y="914.752">+user_id: int</text><text fill="#000000" font-family="sans-serif" font-size="14" lengthAdjust="spacing" textLength="73" x="937" y="932.3613">+title: string</text><text fill="#000000" font-family="sans-serif" font-size="14" lengthAdjust="spacing" textLength="82" x="937" y="949.9707">+body: string</text><text fill="#000000" font-family="sans-serif" font-size="14" lengthAdjust="spacing" textLength="78" x="937" y="967.5801">+type: string</text><text fill="#000000" font-family="sans-serif" font-size="14" lengthAdjust="spacing" textLength="90" x="937" y="985.1895">+is_read: bool</text><text fill="#000000" font-family="sans-serif" font-size="14" lengthAdjust="spacing" textLength="89" x="937" y="1002.7988">+status: string</text><line style="stroke:#181818;stroke-width:0.5;" x1="932" x2="1042" y1="1009.875" y2="1009.875"/></g><!--link Unit to Unit--><g id="link_Unit_Unit"><path codeLine="32" d="M716.62,2301.3994 C736.89,2303.3894 751.5,2309.7894 751.5,2320.6094 C751.5,2331.4294 742.8613,2337.2431 722.5913,2339.2331 " fill="none" id="Unit-to-Unit" style="stroke:#181818;stroke-width:1.0;"/><polygon fill="#181818" points="716.62,2339.8194,725.9678,2342.9209,721.5961,2339.3309,725.1861,2334.9592,716.62,2339.8194" style="stroke:#181818;stroke-width:1.0;"/><text fill="#000000" font-family="sans-serif" font-size="13" lengthAdjust="spacing" textLength="67" x="757.5" y="2326.1045">base unit of</text><text fill="#000000" font-family="sans-serif" font-size="13" lengthAdjust="spacing" textLength="5" x="724.5186" y="2296.7539">*</text><text fill="#000000" font-family="sans-serif" font-size="13" lengthAdjust="spacing" textLength="22" x="724.5233" y="2338.1633">0..1</text></g><!--reverse link Material to MaterialDetail--><g id="link_Material_MaterialDetail"><path codeLine="256" d="M637.3071,1943.5254 C619.9271,1968.9454 607.98,1986.4294 590.95,2011.3394 " fill="none" id="Material-backto-MaterialDetail" style="stroke:#181818;stroke-width:1.0;"/><polygon fill="#181818" points="644.08,1933.6194,637.3916,1936.3147,637.3071,1943.5254,643.9956,1940.83,644.08,1933.6194" style="stroke:#181818;stroke-width:1.0;"/><text fill="#000000" font-family="sans-serif" font-size="13" lengthAdjust="spacing" textLength="21" x="622" y="1978.1045">has</text><text fill="#000000" font-family="sans-serif" font-size="13" lengthAdjust="spacing" textLength="7" x="631.9182" y="1954.9812">1</text><text fill="#000000" font-family="sans-serif" font-size="13" lengthAdjust="spacing" textLength="20" x="575.0707" y="2000.7798">0..*</text></g><!--reverse link Material to MaterialBatch--><g id="link_Material_MaterialBatch"><path codeLine="257" d="M714.1797,1945.599 C715.8397,1974.019 716.95,1992.9194 718.54,2020.0494 " fill="none" id="Material-backto-MaterialBatch" style="stroke:#181818;stroke-width:1.0;"/><polygon fill="#181818" points="713.48,1933.6194,709.8367,1939.8424,714.1797,1945.599,717.8231,1939.3759,713.48,1933.6194" style="stroke:#181818;stroke-width:1.0;"/><text fill="#000000" font-family="sans-serif" font-size="13" lengthAdjust="spacing" textLength="21" x="717" y="1978.1045">has</text><text fill="#000000" font-family="sans-serif" font-size="13" lengthAdjust="spacing" textLength="7" x="706.6316" y="1954.9812">1</text><text fill="#000000" font-family="sans-serif" font-size="13" lengthAdjust="spacing" textLength="20" x="697.1166" y="2009.2056">0..*</text></g><!--link MaterialDetail to Unit--><g id="link_MaterialDetail_Unit"><path codeLine="258" d="M566.26,2182.7994 C574.08,2202.6994 580.1782,2218.214 587.8382,2237.734 " fill="none" id="MaterialDetail-to-Unit" style="stroke:#181818;stroke-width:1.0;"/><polygon fill="#181818" points="590.03,2243.3194,590.4659,2233.4802,588.2035,2238.6649,583.0188,2236.4026,590.03,2243.3194" style="stroke:#181818;stroke-width:1.0;"/><text fill="#000000" font-family="sans-serif" font-size="13" lengthAdjust="spacing" textLength="5" x="563.9034" y="2204.3497">*</text><text fill="#000000" font-family="sans-serif" font-size="13" lengthAdjust="spacing" textLength="7" x="579.8399" y="2232.7184">1</text></g><!--link MaterialBatch to Unit--><g id="link_MaterialBatch_Unit"><path codeLine="259" d="M687.55,2174.3394 C677.2,2196.6094 668.3998,2215.5188 658.0398,2237.7988 " fill="none" id="MaterialBatch-to-Unit" style="stroke:#181818;stroke-width:1.0;"/><polygon fill="#181818" points="655.51,2243.2394,662.9318,2236.765,657.6182,2238.7056,655.6777,2233.3919,655.51,2243.2394" style="stroke:#181818;stroke-width:1.0;"/><text fill="#000000" font-family="sans-serif" font-size="13" lengthAdjust="spacing" textLength="5" x="679.2887" y="2195.1888">*</text><text fill="#000000" font-family="sans-serif" font-size="13" lengthAdjust="spacing" textLength="7" x="651.561" y="2232.6308">1</text></g><!--link Expense to Supplier--><g id="link_Expense_Supplier"><path codeLine="261" d="M926.59,1354.6394 C906,1388.3094 886.2296,1420.6202 865.6396,1454.3002 " fill="none" id="Expense-to-Supplier" style="stroke:#181818;stroke-width:1.0;"/><polygon fill="#181818" points="862.51,1459.4194,870.6171,1453.827,865.118,1455.1534,863.7916,1449.6543,862.51,1459.4194" style="stroke:#181818;stroke-width:1.0;"/><text fill="#000000" font-family="sans-serif" font-size="13" lengthAdjust="spacing" textLength="5" x="916.6203" y="1376.6301">*</text><text fill="#000000" font-family="sans-serif" font-size="13" lengthAdjust="spacing" textLength="7" x="859.8435" y="1448.7441">1</text></g><!--reverse link Expense to ExpenseDetail--><g id="link_Expense_ExpenseDetail"><path codeLine="262" d="M989,1366.6394 C989,1394.4194 989,1412.7594 989,1441.4394 " fill="none" id="Expense-backto-ExpenseDetail" style="stroke:#181818;stroke-width:1.0;"/><polygon fill="#181818" points="989,1354.6394,985,1360.6394,989,1366.6394,993,1360.6394,989,1354.6394" style="stroke:#181818;stroke-width:1.0;"/><text fill="#000000" font-family="sans-serif" font-size="13" lengthAdjust="spacing" textLength="7" x="981.732" y="1376.6301">1</text><text fill="#000000" font-family="sans-serif" font-size="13" lengthAdjust="spacing" textLength="20" x="968.3594" y="1430.6803">1..*</text></g><!--link ExpenseDetail to Material--><g id="link_ExpenseDetail_Material"><path codeLine="263" d="M910.84,1664.4394 C904.95,1671.0594 898.97,1677.5094 893,1683.6094 C856.11,1721.2794 815.4291,1755.5813 778.8391,1784.4713 " fill="none" id="ExpenseDetail-to-Material" style="stroke:#181818;stroke-width:1.0;"/><polygon fill="#181818" points="774.13,1788.1894,783.6724,1785.7516,778.0542,1785.0909,778.7149,1779.4728,774.13,1788.1894" style="stroke:#181818;stroke-width:1.0;"/><text fill="#000000" font-family="sans-serif" font-size="13" lengthAdjust="spacing" textLength="5" x="897.9" y="1671.2028">*</text><text fill="#000000" font-family="sans-serif" font-size="13" lengthAdjust="spacing" textLength="7" x="782.181" y="1778.8994">1</text></g><!--link ExpenseDetail to Unit--><g id="link_ExpenseDetail_Unit"><path codeLine="264" d="M979.86,1683.6394 C964.59,1816.4894 924.06,2031.7194 817,2182.6094 C791.27,2218.8794 757.837,2245.5538 721.657,2268.0238 " fill="none" id="ExpenseDetail-to-Unit" style="stroke:#181818;stroke-width:1.0;"/><polygon fill="#181818" points="716.56,2271.1894,726.3159,2269.8391,720.8075,2268.5514,722.0951,2263.0431,716.56,2271.1894" style="stroke:#181818;stroke-width:1.0;"/><text fill="#000000" font-family="sans-serif" font-size="13" lengthAdjust="spacing" textLength="5" x="974.1871" y="1704.6128">*</text><text fill="#000000" font-family="sans-serif" font-size="13" lengthAdjust="spacing" textLength="7" x="724.5335" y="2264.1365">1</text></g><!--reverse link Product to ProductComposition--><g id="link_Product_ProductComposition"><path codeLine="266" d="M274.3311,1371.944 C304.0111,1416.034 330.61,1455.5594 356.64,1494.2194 " fill="none" id="Product-backto-ProductComposition" style="stroke:#181818;stroke-width:1.0;"/><polygon fill="#181818" points="267.63,1361.9894,267.6624,1369.2004,274.3311,1371.944,274.2988,1364.733,267.63,1361.9894" style="stroke:#181818;stroke-width:1.0;"/><text fill="#000000" font-family="sans-serif" font-size="13" lengthAdjust="spacing" textLength="7" x="275.584" y="1370.0557">1</text><text fill="#000000" font-family="sans-serif" font-size="13" lengthAdjust="spacing" textLength="20" x="330.931" y="1483.8525">0..*</text></g><!--reverse link Product to OtherCost--><g id="link_Product_OtherCost"><path codeLine="267" d="M201.9658,1375.7043 C205.0258,1422.9343 207.69,1464.0894 210.23,1503.3894 " fill="none" id="Product-backto-OtherCost" style="stroke:#181818;stroke-width:1.0;"/><polygon fill="#181818" points="201.19,1363.7294,197.5863,1369.9754,201.9658,1375.7043,205.5696,1369.4582,201.19,1363.7294" style="stroke:#181818;stroke-width:1.0;"/><text fill="#000000" font-family="sans-serif" font-size="13" lengthAdjust="spacing" textLength="7" x="194.4379" y="1385.3037">1</text><text fill="#000000" font-family="sans-serif" font-size="13" lengthAdjust="spacing" textLength="20" x="188.5518" y="1492.6868">0..*</text></g><!--link Product to Category--><g id="link_Product_Category"><path codeLine="268" d="M120.27,1332.1794 C106.15,1351.1294 92.99,1372.1294 84,1393.6094 C68.21,1431.3294 63.3338,1471.6243 61.9338,1506.0543 " fill="none" id="Product-to-Category" style="stroke:#181818;stroke-width:1.0;"/><polygon fill="#181818" points="61.69,1512.0494,66.0524,1503.2193,61.8931,1507.0535,58.059,1502.8943,61.69,1512.0494" style="stroke:#181818;stroke-width:1.0;"/><text fill="#000000" font-family="sans-serif" font-size="13" lengthAdjust="spacing" textLength="110" x="85" y="1408.1045">product_categories</text><text fill="#000000" font-family="sans-serif" font-size="13" lengthAdjust="spacing" textLength="5" x="107.4088" y="1337.1716">*</text><text fill="#000000" font-family="sans-serif" font-size="13" lengthAdjust="spacing" textLength="5" x="56.2948" y="1501.3463">*</text></g><!--link ProductComposition to Material--><g id="link_ProductComposition_Material"><path codeLine="269" d="M476.86,1630.7594 C527.37,1676.0794 588.9536,1731.323 637.5036,1774.873 " fill="none" id="ProductComposition-to-Material" style="stroke:#181818;stroke-width:1.0;"/><polygon fill="#181818" points="641.97,1778.8794,637.9414,1769.8922,638.248,1775.5407,632.5995,1775.8473,641.97,1778.8794" style="stroke:#181818;stroke-width:1.0;"/><text fill="#000000" font-family="sans-serif" font-size="13" lengthAdjust="spacing" textLength="5" x="479.3221" y="1652.1232">*</text><text fill="#000000" font-family="sans-serif" font-size="13" lengthAdjust="spacing" textLength="7" x="626.9306" y="1768.5129">1</text></g><!--link ProductComposition to Unit--><g id="link_ProductComposition_Unit"><path codeLine="270" d="M388.34,1630.8294 C367.73,1750.0494 340.59,2002.8594 437,2182.6094 C456.42,2218.8094 485.0456,2244.8043 518.2256,2266.8943 " fill="none" id="ProductComposition-to-Unit" style="stroke:#181818;stroke-width:1.0;"/><polygon fill="#181818" points="523.22,2270.2194,517.9451,2261.9022,519.058,2267.4485,513.5117,2268.5614,523.22,2270.2194" style="stroke:#181818;stroke-width:1.0;"/><text fill="#000000" font-family="sans-serif" font-size="13" lengthAdjust="spacing" textLength="5" x="381.6735" y="1652.2004">*</text><text fill="#000000" font-family="sans-serif" font-size="13" lengthAdjust="spacing" textLength="7" x="508.5423" y="2263.2706">1</text></g><!--link OtherCost to TypeCost--><g id="link_OtherCost_TypeCost"><path codeLine="271" d="M214,1621.8194 C214,1674.5494 214,1744.8694 214,1791.3394 " fill="none" id="OtherCost-to-TypeCost" style="stroke:#181818;stroke-width:1.0;"/><polygon fill="#181818" points="214,1797.3394,218,1788.3394,214,1792.3394,210,1788.3394,214,1797.3394" style="stroke:#181818;stroke-width:1.0;"/><text fill="#000000" font-family="sans-serif" font-size="13" lengthAdjust="spacing" textLength="5" x="208.6953" y="1643.5005">*</text><text fill="#000000" font-family="sans-serif" font-size="13" lengthAdjust="spacing" textLength="7" x="206.4203" y="1786.6023">1</text></g><!--reverse link Production to ProductionDetail--><g id="link_Production_ProductionDetail"><path codeLine="273" d="M570.9431,261.7099 C502.1531,363.1099 404.69,506.7594 340.39,601.5194 " fill="none" id="Production-backto-ProductionDetail" style="stroke:#181818;stroke-width:1.0;"/><polygon fill="#181818" points="577.68,251.7794,571.0014,254.499,570.9431,261.7099,577.6217,258.9902,577.68,251.7794" style="stroke:#181818;stroke-width:1.0;"/><text fill="#000000" font-family="sans-serif" font-size="13" lengthAdjust="spacing" textLength="7" x="565.3323" y="273.4337">1</text><text fill="#000000" font-family="sans-serif" font-size="13" lengthAdjust="spacing" textLength="20" x="324.6107" y="590.683">1..*</text></g><!--link Production to User--><g id="link_Production_User"><path codeLine="274" d="M644.96,251.6994 C645.63,377.9594 657.34,597.6094 722,772.6094 C727.55,787.6394 736.48,787.5694 742,802.6094 C786.31,923.3394 795.127,1067.5695 795.787,1159.7495 " fill="none" id="Production-to-User" style="stroke:#181818;stroke-width:1.0;"/><polygon fill="#181818" points="795.83,1165.7494,799.7655,1156.721,795.7942,1160.7495,791.7657,1156.7782,795.83,1165.7494" style="stroke:#181818;stroke-width:1.0;"/><text fill="#000000" font-family="sans-serif" font-size="13" lengthAdjust="spacing" textLength="112" x="723" y="692.6045">production_workers</text><text fill="#000000" font-family="sans-serif" font-size="13" lengthAdjust="spacing" textLength="5" x="639.6124" y="273.6947">*</text><text fill="#000000" font-family="sans-serif" font-size="13" lengthAdjust="spacing" textLength="20" x="775.1279" y="1155.1821">0..*</text></g><!--link Production to Transaction--><g id="link_Production_Transaction"><path codeLine="275" d="M709.51,251.9694 C721.43,271.4894 730.9125,287.0389 743.2625,307.2589 " fill="none" id="Production-to-Transaction" style="stroke:#181818;stroke-width:1.0;"/><polygon fill="#181818" points="746.39,312.3794,745.1124,302.6137,743.7838,308.1123,738.2852,306.7837,746.39,312.3794" style="stroke:#181818;stroke-width:1.0;"/><text fill="#000000" font-family="sans-serif" font-size="13" lengthAdjust="spacing" textLength="5" x="708.917" y="273.6376">*</text><text fill="#000000" font-family="sans-serif" font-size="13" lengthAdjust="spacing" textLength="22" x="719.2094" y="301.9131">0..1</text></g><!--link ProductionDetail to Product--><g id="link_ProductionDetail_Product"><path codeLine="276" d="M208.43,706.7894 C159.73,723.2794 99.83,752.6994 70,802.6094 C10.94,901.4094 37.05,951.3194 70,1061.6094 C80.5,1096.7694 96.5006,1126.5016 116.8606,1156.3716 " fill="none" id="ProductionDetail-to-Product" style="stroke:#181818;stroke-width:1.0;"/><polygon fill="#181818" points="120.24,1161.3294,118.4762,1151.6397,117.4239,1157.1979,111.8658,1156.1455,120.24,1161.3294" style="stroke:#181818;stroke-width:1.0;"/><text fill="#000000" font-family="sans-serif" font-size="13" lengthAdjust="spacing" textLength="5" x="195.4822" y="705.4934">*</text><text fill="#000000" font-family="sans-serif" font-size="13" lengthAdjust="spacing" textLength="7" x="105.2726" y="1148.7027">1</text></g><!--link Transaction to User--><g id="link_Transaction_User"><path codeLine="278" d="M841.74,571.8794 C842.65,581.9294 843.42,591.9294 844,601.6094 C856.1,804.2394 827.4943,1036.0964 808.8243,1159.9564 " fill="none" id="Transaction-to-User" style="stroke:#181818;stroke-width:1.0;"/><polygon fill="#181818" points="807.93,1165.8894,813.2268,1157.5861,808.6753,1160.9452,805.3161,1156.3937,807.93,1165.8894" style="stroke:#181818;stroke-width:1.0;"/><text fill="#000000" font-family="sans-serif" font-size="13" lengthAdjust="spacing" textLength="28" x="846" y="937.6045">kasir</text><text fill="#000000" font-family="sans-serif" font-size="13" lengthAdjust="spacing" textLength="5" x="837.5633" y="593.3404">*</text><text fill="#000000" font-family="sans-serif" font-size="13" lengthAdjust="spacing" textLength="7" x="801.8263" y="1155.3341">1</text></g><!--link Transaction to Shift--><g id="link_Transaction_Shift"><path codeLine="279" d="M906.63,560.6194 C958.55,635.3594 1022.2467,727.0518 1074.9267,802.8818 " fill="none" id="Transaction-to-Shift" style="stroke:#181818;stroke-width:1.0;"/><polygon fill="#181818" points="1078.35,807.8094,1076.5002,798.1358,1075.4973,803.703,1069.93,802.7001,1078.35,807.8094" style="stroke:#181818;stroke-width:1.0;"/><text fill="#000000" font-family="sans-serif" font-size="13" lengthAdjust="spacing" textLength="5" x="914.3857" y="568.3039">*</text><text fill="#000000" font-family="sans-serif" font-size="13" lengthAdjust="spacing" textLength="22" x="1048.6482" y="794.7634">0..1</text></g><!--reverse link Transaction to TransactionDetail--><g id="link_Transaction_TransactionDetail"><path codeLine="280" d="M806.2472,583.7421 C793.5572,670.1921 777.53,758.8594 762,772.6094 C687.96,838.1594 407.67,760.9094 318,802.6094 C292.28,814.5694 269.1,834.3994 249.94,854.9394 " fill="none" id="Transaction-backto-TransactionDetail" style="stroke:#181818;stroke-width:1.0;"/><polygon fill="#181818" points="807.99,571.8694,803.161,577.2248,806.2472,583.7421,811.0762,578.3867,807.99,571.8694" style="stroke:#181818;stroke-width:1.0;"/><text fill="#000000" font-family="sans-serif" font-size="13" lengthAdjust="spacing" textLength="7" x="799.8043" y="593.3299">1</text><text fill="#000000" font-family="sans-serif" font-size="13" lengthAdjust="spacing" textLength="20" x="234.3187" y="844.3499">1..*</text></g><!--reverse link Transaction to Payment--><g id="link_Transaction_Payment"><path codeLine="281" d="M833.0434,583.6963 C834.8634,663.5563 830.24,744.2194 803,772.6094 C760.29,817.1294 581.16,773.0694 527,802.6094 C510.87,811.4094 496.31,823.8294 483.54,837.5294 " fill="none" id="Transaction-backto-Payment" style="stroke:#181818;stroke-width:1.0;"/><polygon fill="#181818" points="832.77,571.6994,828.9077,577.789,833.0434,583.6963,836.9057,577.6067,832.77,571.6994" style="stroke:#181818;stroke-width:1.0;"/><text fill="#000000" font-family="sans-serif" font-size="13" lengthAdjust="spacing" textLength="7" x="826.0302" y="593.5801">1</text><text fill="#000000" font-family="sans-serif" font-size="13" lengthAdjust="spacing" textLength="20" x="467.5674" y="826.8691">1..*</text></g><!--link TransactionDetail to Product--><g id="link_TransactionDetail_Product"><path codeLine="282" d="M194,1009.1594 C194,1048.1394 194,1090.3594 194,1133.4294 " fill="none" id="TransactionDetail-to-Product" style="stroke:#181818;stroke-width:1.0;"/><polygon fill="#181818" points="194,1139.4294,198,1130.4294,194,1134.4294,190,1130.4294,194,1139.4294" style="stroke:#181818;stroke-width:1.0;"/><text fill="#000000" font-family="sans-serif" font-size="13" lengthAdjust="spacing" textLength="5" x="188.7773" y="1030.2602">*</text><text fill="#000000" font-family="sans-serif" font-size="13" lengthAdjust="spacing" textLength="7" x="186.7648" y="1128.8586">1</text></g><!--link Payment to PaymentChannel--><g id="link_Payment_PaymentChannel"><path codeLine="283" d="M423,1026.6494 C423,1067.7194 423,1109.8294 423,1150.9094 " fill="none" id="Payment-to-PaymentChannel" style="stroke:#181818;stroke-width:1.0;"/><polygon fill="#181818" points="423,1156.9094,427,1147.9094,423,1151.9094,419,1147.9094,423,1156.9094" style="stroke:#181818;stroke-width:1.0;"/><text fill="#000000" font-family="sans-serif" font-size="13" lengthAdjust="spacing" textLength="5" x="417.8086" y="1048.0135">*</text><text fill="#000000" font-family="sans-serif" font-size="13" lengthAdjust="spacing" textLength="7" x="415.7211" y="1146.2396">1</text></g><!--link Shift to User--><g id="link_Shift_User"><path codeLine="285" d="M1078.37,1047.0894 C1072.74,1052.2594 1066.94,1057.1494 1061,1061.6094 C988.67,1115.9394 943.75,1083.2394 873,1139.6094 C863.38,1147.2694 858.2854,1151.8289 850.0954,1161.5089 " fill="none" id="Shift-to-User" style="stroke:#181818;stroke-width:1.0;"/><polygon fill="#181818" points="846.22,1166.0894,855.0868,1161.8023,849.4495,1162.2723,848.9795,1156.635,846.22,1166.0894" style="stroke:#181818;stroke-width:1.0;"/><text fill="#000000" font-family="sans-serif" font-size="13" lengthAdjust="spacing" textLength="63" x="1002" y="1106.1045">opened_by</text><text fill="#000000" font-family="sans-serif" font-size="13" lengthAdjust="spacing" textLength="5" x="1065.5209" y="1054.1141">*</text><text fill="#000000" font-family="sans-serif" font-size="13" lengthAdjust="spacing" textLength="7" x="843.5591" y="1155.2592">1</text></g><!--link InventoryLog to Material--><g id="link_InventoryLog_Material"><path codeLine="286" d="M643.99,1044.5294 C658.52,1224.6594 686.4176,1570.5688 699.9676,1738.5388 " fill="none" id="InventoryLog-to-Material" style="stroke:#181818;stroke-width:1.0;"/><polygon fill="#181818" points="700.45,1744.5194,703.7134,1735.2269,700.048,1739.5356,695.7393,1735.8701,700.45,1744.5194" style="stroke:#181818;stroke-width:1.0;"/><text fill="#000000" font-family="sans-serif" font-size="13" lengthAdjust="spacing" textLength="5" x="639.4058" y="1065.7472">*</text><text fill="#000000" font-family="sans-serif" font-size="13" lengthAdjust="spacing" textLength="7" x="692.5695" y="1733.8583">1</text></g><!--link InventoryLog to MaterialBatch--><g id="link_InventoryLog_MaterialBatch"><path codeLine="287" d="M610.92,1044.2094 C599.79,1104.8994 589,1181.5494 589,1250.6094 C589,1250.6094 589,1250.6094 589,1840.1094 C589,1905.9494 620.7449,1966.6782 655.0749,2014.9982 " fill="none" id="InventoryLog-to-MaterialBatch" style="stroke:#181818;stroke-width:1.0;"/><polygon fill="#181818" points="658.55,2019.8894,656.5982,2010.2359,655.6541,2015.8134,650.0766,2014.8693,658.55,2019.8894" style="stroke:#181818;stroke-width:1.0;"/><text fill="#000000" font-family="sans-serif" font-size="13" lengthAdjust="spacing" textLength="5" x="604.1342" y="1065.7824">*</text><text fill="#000000" font-family="sans-serif" font-size="13" lengthAdjust="spacing" textLength="22" x="629.3587" y="2009.2951">0..1</text></g><!--link InventoryLog to User--><g id="link_InventoryLog_User"><path codeLine="288" d="M690.61,1044.1594 C710.63,1084.1194 730.1833,1123.1745 748.8933,1160.5345 " fill="none" id="InventoryLog-to-User" style="stroke:#181818;stroke-width:1.0;"/><polygon fill="#181818" points="751.58,1165.8994,751.1265,1156.061,749.3411,1161.4287,743.9733,1159.6433,751.58,1165.8994" style="stroke:#181818;stroke-width:1.0;"/><text fill="#000000" font-family="sans-serif" font-size="13" lengthAdjust="spacing" textLength="5" x="689.1783" y="1065.729">*</text><text fill="#000000" font-family="sans-serif" font-size="13" lengthAdjust="spacing" textLength="7" x="740.6338" y="1155.345">1</text></g><!--link Notification to User--><g id="link_Notification_User"><path codeLine="289" d="M943.97,1017.7094 C928.32,1047.1994 910.02,1080.2494 892,1109.6094 C880.61,1128.1594 871.1458,1142.6428 858.5758,1160.9528 " fill="none" id="Notification-to-User" style="stroke:#181818;stroke-width:1.0;"/><polygon fill="#181818" points="855.18,1165.8994,863.5715,1160.7435,858.0099,1161.7773,856.9761,1156.2157,855.18,1165.8994" style="stroke:#181818;stroke-width:1.0;"/><text fill="#000000" font-family="sans-serif" font-size="13" lengthAdjust="spacing" textLength="5" x="935.0573" y="1039.2519">*</text><text fill="#000000" font-family="sans-serif" font-size="13" lengthAdjust="spacing" textLength="7" x="853.1369" y="1155.345">1</text></g><!--SRC=[dLXBSzis4BxpLs1yQ9DqvB6ldcbdPDbELBkoHuzsUk9092IX8W4609EoRVvx5tpYHKkn3xQyky1- -rv8KPKHDCkmbEYEuht0EPgWEKi4oGbJw1gzsymcLzT8NgQN23vUNxsF8dcahC1QDj4dfqe9kYqLcIUShUW_15sv8W-SgPMgGDSjpz8e-X7zh7_GTBE-NwpdZzFLlA54jJZQI2BGln52Fz7q1b6cz4U6StA392XZU_q_oJ7DJ481HxzoaPeqAcESAFe5JcuvppGfutlAthst2BnKclA5qpJwDk1xdAxlFpulv-W7j9gkDzE5XNA65TbpKPr4we803QsTZAgJft56iJG9Uy7BmYHiiIHn2NV5xJN_iJAhJOE8V252KixY7K3WuWRjCevRWMzH3U3YmmMQJ7v15rUNbzSN3IX02fSYVIdYky4ZgytBozFyVcavObKMHKRF25bAP29eeG2FIGQK2j35hdXnuCmYm2T2b4d9C4jpB8ucBSU5Z3FAB2BDyNwuouZnxVGJnFLs-hYnRFeDWYiepjvgawslnevLAK_a9f04IMXXa7BAQ5xcRU26tEa0tX45TU31p5jsRD3C56crGGsnGTVd4ZD5LTKfqx1rRAjud5C8cW3S563dEFFntMAL7Du4RwjFngpCjqHO7eUpe11-3r8kFZF0zq_JnQzJAxhtVnU4GNwxi4X33oZjEBPosMQ-2TiFDFHLbiQAAx1NtvEemLyE6nAYn9d5XYZ1bK9PMRA3h907jv-qPesaH6V2TuQXSsqFlS-0dhCd9hdEY92X3QCMDgYZVXdr2CXIKPcXCCBzido-spnQqNuHF2qJzTPITZAy3Z5FZeCJYJfmkFKloTb8NHU9xCNXSvpWWYh7Ae_MXxN5F-DvmINLy3nJYaRaUsFRomJgfz7zh0v4pBXKvwXKLK7Y18HZIoxS8DOW7BpO2eiNMMTLQ7tpYa_qyFFhMK7HITnmtQdP1NIivIYg0UhVeutzt8eTu8yKhM74wxxlYx60cNYwI7lohjwYUdfI9HbfBWs0_8EBOs3EXq6MqcYCHXpNo-bYDNK3kHu2ujrltQHP33Qr9DIcJwuGhqMom9LUUsC_eZx5pv6sNUMyP7OVWsqQrANnjehbWUwKurt3y94S2EJgYIGOApwx_SIImQfqu2hKSnfVU5XWFI7G8i-hADEfoG4pHh8Go_Tbn_5MtGBJDEJZXgwQoDRnT2sPDVfzvrO5ER5TiwEtck8aqHW2RkWvpedF0fg0jnK6dWRzglrf_h2szsoTFPu1TKu5W72OzdNMzP99nkL0wTjTtQlYfXHwz-angxSIYseUSNiUJ1OzI1AicvmH6UXxBhc_fYaPYJCY0vDVa5t9qX0dfR9sihGIjtFSVF4xl2gVbt-Yf-UFy7HRFA_d3_uZSmvF8mPFekg9xy_QJtjQitAwKyDjKaqfM2dGzLnT2peF_6wCTue8Wm4-888mw7LkdWuSStHoPOtEnj85LtH74tnMRrNwEm4h_tbQMNNk0AdVB3WTXfsJ74Pabh2Azr7eNrWNyEZyC9dKxqzuYZeFcnjqmFAaSFFAi6NR2_hdRVksZUmp7Zlg7WScftlY3imEntMDmzgy8tiFD-_fTByYqe3eTbR7NdyL79Fi5xT1e5C2V_llBcvGDqQIXaI9Z08BPz284tAr9SC2QRAwvQytj3vh-zJTZInHupiB-5X_OTIReYVGrtfJaMDdD8HXNaNU6cPYRPbHPAuebfsDzYEML8I56err_xO5R8kzLU0ruNQkHVx-40BVpNEBPqt6A6hcIy2oVfH4LjCCvaHOed60LNdZTscjaTMqFEx_]--></g></svg>