<?xml version="1.0" encoding="us-ascii" standalone="no"?><svg xmlns="http://www.w3.org/2000/svg" xmlns:xlink="http://www.w3.org/1999/xlink" contentStyleType="text/css" height="1201px" preserveAspectRatio="none" style="width:503px;height:1201px;background:#FFFFFF;" version="1.1" viewBox="0 0 503 1201" width="503px" zoomAndPan="magnify"><defs/><g><text fill="#000000" font-family="sans-serif" font-size="14" font-weight="bold" lengthAdjust="spacing" textLength="399.4375" x="44.7813" y="24.5332">Use Case Diagram &#8212; Increment 1: Modul Inti Operasional</text><!--cluster Sistem Manajemen Bisnis Pawon3D ? Increment 1--><g id="cluster_Sistem Manajemen Bisnis Pawon3D &#8212; Increment 1"><rect fill="none" height="1150" rx="2.5" ry="2.5" style="stroke:#181818;stroke-width:1.0;" width="368" x="129" y="45.6094"/><text fill="#000000" font-family="sans-serif" font-size="14" font-weight="bold" lengthAdjust="spacing" textLength="352.4375" x="136.7813" y="62.1426">Sistem Manajemen Bisnis Pawon3D &#8212; Increment 1</text></g><!--cluster Autentikasi--><g id="cluster_Autentikasi"><rect fill="none" height="108" rx="2.5" ry="2.5" style="stroke:#181818;stroke-width:1.0;" width="212" x="206.5" y="814.6094"/><text fill="#000000" font-family="sans-serif" font-size="14" font-weight="bold" lengthAdjust="spacing" textLength="78" x="273.5" y="831.1426">Autentikasi</text></g><!--cluster Modul Inventori--><g id="cluster_Modul Inventori"><rect fill="none" height="569" rx="2.5" ry="2.5" style="stroke:#181818;stroke-width:1.0;" width="301" x="162" y="89.6094"/><text fill="#000000" font-family="sans-serif" font-size="14" font-weight="bold" lengthAdjust="spacing" textLength="112" x="256.5" y="106.1426">Modul Inventori</text></g><!--cluster Modul Produksi--><g id="cluster_Modul Produksi"><rect fill="none" height="108" rx="2.5" ry="2.5" style="stroke:#181818;stroke-width:1.0;" width="194" x="215.5" y="682.6094"/><text fill="#000000" font-family="sans-serif" font-size="14" font-weight="bold" lengthAdjust="spacing" textLength="110" x="257.5" y="699.1426">Modul Produksi</text></g><!--cluster Modul Kasir--><g id="cluster_Modul Kasir"><rect fill="none" height="225" rx="2.5" ry="2.5" style="stroke:#181818;stroke-width:1.0;" width="222" x="201.5" y="946.6094"/><text fill="#000000" font-family="sans-serif" font-size="14" font-weight="bold" lengthAdjust="spacing" textLength="84" x="270.5" y="963.1426">Modul Kasir</text></g><g id="elem_UC01"><ellipse cx="312.4741" cy="878.5128" fill="#FFFFFF" rx="89.9741" ry="27.9034" style="stroke:#336699;stroke-width:0.5;"/><text fill="#000000" font-family="sans-serif" font-size="14" lengthAdjust="spacing" textLength="40" x="292.4741" y="873.4366">UC-01</text><text fill="#000000" font-family="sans-serif" font-size="14" lengthAdjust="spacing" textLength="111" x="256.9741" y="891.046">Login dan Logout</text></g><g id="elem_UC02"><ellipse cx="312.5158" cy="339.5128" fill="#FFFFFF" rx="114.0158" ry="27.9034" style="stroke:#336699;stroke-width:0.5;"/><text fill="#000000" font-family="sans-serif" font-size="14" lengthAdjust="spacing" textLength="40" x="292.5158" y="334.4366">UC-02</text><text fill="#000000" font-family="sans-serif" font-size="14" lengthAdjust="spacing" textLength="145" x="240.0158" y="352.046">Kelola Kategori Produk</text></g><g id="elem_UC03"><ellipse cx="312.4309" cy="431.7956" fill="#FFFFFF" rx="131.4309" ry="28.6862" style="stroke:#336699;stroke-width:0.5;"/><text fill="#000000" font-family="sans-serif" font-size="14" lengthAdjust="spacing" textLength="40" x="292.4309" y="426.7194">UC-03</text><text fill="#000000" font-family="sans-serif" font-size="14" lengthAdjust="spacing" textLength="175" x="224.9309" y="444.3288">Kelola Satuan dan Konversi</text></g><g id="elem_UC04"><ellipse cx="312.6604" cy="523.5128" fill="#FFFFFF" rx="78.6604" ry="27.9034" style="stroke:#336699;stroke-width:0.5;"/><text fill="#000000" font-family="sans-serif" font-size="14" lengthAdjust="spacing" textLength="40" x="292.6604" y="518.4366">UC-04</text><text fill="#000000" font-family="sans-serif" font-size="14" lengthAdjust="spacing" textLength="95" x="265.1604" y="536.046">Kelola Supplier</text></g><g id="elem_UC05"><ellipse cx="312.3381" cy="614.5128" fill="#FFFFFF" rx="96.3381" ry="27.9034" style="stroke:#336699;stroke-width:0.5;"/><text fill="#000000" font-family="sans-serif" font-size="14" lengthAdjust="spacing" textLength="40" x="292.3381" y="609.4366">UC-05</text><text fill="#000000" font-family="sans-serif" font-size="14" lengthAdjust="spacing" textLength="120" x="252.3381" y="627.046">Kelola Bahan Baku</text></g><g id="elem_UC06"><ellipse cx="312.6249" cy="153.5128" fill="#FFFFFF" rx="75.1249" ry="27.9034" style="stroke:#336699;stroke-width:0.5;"/><text fill="#000000" font-family="sans-serif" font-size="14" lengthAdjust="spacing" textLength="40" x="292.6249" y="148.4366">UC-06</text><text fill="#000000" font-family="sans-serif" font-size="14" lengthAdjust="spacing" textLength="90" x="267.6249" y="166.046">Kelola Belanja</text></g><g id="elem_UC07"><ellipse cx="312.7431" cy="246.458" fill="#FFFFFF" rx="134.7431" ry="29.3486" style="stroke:#336699;stroke-width:0.5;"/><text fill="#000000" font-family="sans-serif" font-size="14" lengthAdjust="spacing" textLength="40" x="292.7431" y="241.3818">UC-07</text><text fill="#000000" font-family="sans-serif" font-size="14" lengthAdjust="spacing" textLength="184" x="220.7431" y="258.9912">Kelola Produk dan Komposisi</text></g><g id="elem_UC08"><ellipse cx="312.2817" cy="746.5128" fill="#FFFFFF" rx="80.7817" ry="27.9034" style="stroke:#336699;stroke-width:0.5;"/><text fill="#000000" font-family="sans-serif" font-size="14" lengthAdjust="spacing" textLength="40" x="292.2817" y="741.4366">UC-08</text><text fill="#000000" font-family="sans-serif" font-size="14" lengthAdjust="spacing" textLength="98" x="263.2817" y="759.046">Kelola Produksi</text></g><g id="elem_UC09"><ellipse cx="312.4239" cy="1023.4645" fill="#FFFFFF" rx="94.9239" ry="40.3551" style="stroke:#336699;stroke-width:0.5;"/><text fill="#000000" font-family="sans-serif" font-size="14" lengthAdjust="spacing" textLength="40" x="292.4239" y="1009.5836">UC-09</text><text fill="#000000" font-family="sans-serif" font-size="14" lengthAdjust="spacing" textLength="118" x="253.4239" y="1027.193">Membuat Pesanan</text><text fill="#000000" font-family="sans-serif" font-size="14" lengthAdjust="spacing" textLength="108" x="258.4239" y="1044.8024">dan Pembayaran</text></g><g id="elem_UC10"><ellipse cx="312.6457" cy="1127.5128" fill="#FFFFFF" rx="87.1457" ry="27.9034" style="stroke:#336699;stroke-width:0.5;"/><text fill="#000000" font-family="sans-serif" font-size="14" lengthAdjust="spacing" textLength="40" x="292.6457" y="1122.4366">UC-10</text><text fill="#000000" font-family="sans-serif" font-size="14" lengthAdjust="spacing" textLength="107" x="259.1457" y="1140.046">Kelola Shift Kasir</text></g><!--entity INV--><g id="elem_INV"><ellipse cx="57.5" cy="401.1094" fill="#D4E8FF" rx="8" ry="8" style="stroke:#336699;stroke-width:0.5;"/><path d="M57.5,409.1094 L57.5,436.1094 M44.5,417.1094 L70.5,417.1094 M57.5,436.1094 L44.5,451.1094 M57.5,436.1094 L70.5,451.1094 " fill="none" style="stroke:#336699;stroke-width:0.5;"/><text fill="#000000" font-family="sans-serif" font-size="14" lengthAdjust="spacing" textLength="102" x="6.5" y="467.1426">Bagian Inventori</text></g><!--entity PRD--><g id="elem_PRD"><ellipse cx="57.5" cy="782.1094" fill="#D4E8FF" rx="8" ry="8" style="stroke:#336699;stroke-width:0.5;"/><path d="M57.5,790.1094 L57.5,817.1094 M44.5,798.1094 L70.5,798.1094 M57.5,817.1094 L44.5,832.1094 M57.5,817.1094 L70.5,832.1094 " fill="none" style="stroke:#336699;stroke-width:0.5;"/><text fill="#000000" font-family="sans-serif" font-size="14" lengthAdjust="spacing" textLength="103" x="6" y="848.1426">Bagian Produksi</text></g><!--entity KSR--><g id="elem_KSR"><ellipse cx="57.5" cy="993.1094" fill="#D4E8FF" rx="8" ry="8" style="stroke:#336699;stroke-width:0.5;"/><path d="M57.5,1001.1094 L57.5,1028.1094 M44.5,1009.1094 L70.5,1009.1094 M57.5,1028.1094 L44.5,1043.1094 M57.5,1028.1094 L70.5,1043.1094 " fill="none" style="stroke:#336699;stroke-width:0.5;"/><text fill="#000000" font-family="sans-serif" font-size="14" lengthAdjust="spacing" textLength="32" x="41.5" y="1059.1426">Kasir</text></g><!--link INV to UC01--><g id="link_INV_UC01"><path d="M64.32,470.7694 C77.9,561.2094 111.25,777.9294 121,790.6094 C149.64,827.8694 192.0524,848.142 232.7824,860.852 " fill="none" id="INV-to-UC01" style="stroke:#181818;stroke-width:1.0;"/><polygon fill="#181818" points="238.51,862.6394,231.1101,856.14,233.737,861.1499,228.727,863.7768,238.51,862.6394" style="stroke:#181818;stroke-width:1.0;"/></g><!--link INV to UC02--><g id="link_INV_UC02"><path d="M108.26,392.3994 C112.45,389.9094 116.73,387.5994 121,385.6094 C150.77,371.7494 179.3054,363.1224 210.6054,356.1024 " fill="none" id="INV-to-UC02" style="stroke:#181818;stroke-width:1.0;"/><polygon fill="#181818" points="216.46,354.7894,206.8028,352.8559,211.5812,355.8836,208.5535,360.662,216.46,354.7894" style="stroke:#181818;stroke-width:1.0;"/></g><!--link INV to UC03--><g id="link_INV_UC03"><path d="M108.79,431.6094 C129.75,431.6094 149.18,431.6094 174.83,431.6094 " fill="none" id="INV-to-UC03" style="stroke:#181818;stroke-width:1.0;"/><polygon fill="#181818" points="180.83,431.6094,171.83,427.6094,175.83,431.6094,171.83,435.6094,180.83,431.6094" style="stroke:#181818;stroke-width:1.0;"/></g><!--link INV to UC04--><g id="link_INV_UC04"><path d="M108.26,470.8194 C112.45,473.3094 116.73,475.6194 121,477.6094 C158.32,494.9894 197.0268,505.0825 233.6868,512.0925 " fill="none" id="INV-to-UC04" style="stroke:#181818;stroke-width:1.0;"/><polygon fill="#181818" points="239.58,513.2194,231.4914,507.6002,234.669,512.2803,229.9889,515.4579,239.58,513.2194" style="stroke:#181818;stroke-width:1.0;"/></g><!--link INV to UC05--><g id="link_INV_UC05"><path d="M66.47,470.7194 C74.82,501.7594 91.06,543.8994 121,568.6094 C148.03,590.9094 178.2482,601.6383 211.7682,607.7783 " fill="none" id="INV-to-UC05" style="stroke:#181818;stroke-width:1.0;"/><polygon fill="#181818" points="217.67,608.8594,209.538,603.3032,212.7518,607.9585,208.0966,611.1723,217.67,608.8594" style="stroke:#181818;stroke-width:1.0;"/></g><!--link INV to UC06--><g id="link_INV_UC06"><path d="M64.18,392.2694 C73.47,333.3494 93.66,226.2394 121,199.6094 C151.59,169.8194 192.0027,158.8045 231.3327,154.6845 " fill="none" id="INV-to-UC06" style="stroke:#181818;stroke-width:1.0;"/><polygon fill="#181818" points="237.3,154.0594,227.9322,151.0188,232.3272,154.5803,228.7657,158.9753,237.3,154.0594" style="stroke:#181818;stroke-width:1.0;"/></g><!--link INV to UC07--><g id="link_INV_UC07"><path d="M66.34,392.5694 C74.64,361.2994 90.87,318.6694 121,293.6094 C140.77,277.1694 159.6786,267.9698 184.6586,260.8698 " fill="none" id="INV-to-UC07" style="stroke:#181818;stroke-width:1.0;"/><polygon fill="#181818" points="190.43,259.2294,180.6793,257.8424,185.6205,260.5964,182.8665,265.5376,190.43,259.2294" style="stroke:#181818;stroke-width:1.0;"/></g><!--link PRD to UC01--><g id="link_PRD_UC01"><path d="M109.09,825.8094 C147.45,835.8094 194.7739,848.1663 236.9839,859.1663 " fill="none" id="PRD-to-UC01" style="stroke:#181818;stroke-width:1.0;"/><polygon fill="#181818" points="242.79,860.6794,235.0896,854.539,237.9516,859.4185,233.0722,862.2805,242.79,860.6794" style="stroke:#181818;stroke-width:1.0;"/></g><!--link PRD to UC08--><g id="link_PRD_UC08"><path d="M109.09,799.4094 C148.75,789.0694 198.3942,776.1135 241.2242,764.9435 " fill="none" id="PRD-to-UC08" style="stroke:#181818;stroke-width:1.0;"/><polygon fill="#181818" points="247.03,763.4294,237.3119,761.8301,242.1918,764.6912,239.3307,769.5711,247.03,763.4294" style="stroke:#181818;stroke-width:1.0;"/></g><!--link KSR to UC01--><g id="link_KSR_UC01"><path d="M73.56,1007.3994 C85.56,995.1094 103.26,978.3894 121,966.6094 C162.73,938.8994 209.0207,917.8017 248.0907,902.1417 " fill="none" id="KSR-to-UC01" style="stroke:#181818;stroke-width:1.0;"/><polygon fill="#181818" points="253.66,899.9094,243.8179,899.5449,249.0189,901.7696,246.7943,906.9706,253.66,899.9094" style="stroke:#181818;stroke-width:1.0;"/></g><!--link KSR to UC09--><g id="link_KSR_UC09"><path d="M73.57,1023.6094 C101.55,1023.6094 157.56,1023.6094 211.26,1023.6094 " fill="none" id="KSR-to-UC09" style="stroke:#181818;stroke-width:1.0;"/><polygon fill="#181818" points="217.26,1023.6094,208.26,1019.6094,212.26,1023.6094,208.26,1027.6094,217.26,1023.6094" style="stroke:#181818;stroke-width:1.0;"/></g><!--link KSR to UC10--><g id="link_KSR_UC10"><path d="M73.62,1041.9594 C85.27,1054.9094 102.48,1071.6694 121,1081.6094 C154.73,1099.7094 189.7066,1109.6536 224.9366,1116.3836 " fill="none" id="KSR-to-UC10" style="stroke:#181818;stroke-width:1.0;"/><polygon fill="#181818" points="230.83,1117.5094,222.7404,1111.8917,225.9188,1116.5712,221.2393,1119.7496,230.83,1117.5094" style="stroke:#181818;stroke-width:1.0;"/></g><!--SRC=[TLF1Zjem4BtxAqRPItD08WG2z52fG5TQfRHe4Us5onJSu4rYHxRJQbMjr8_e5_PBEjb0x4QGGvJnytipRp9ZXIqux0o79T9h9J3JMCBVtt_WGHuqBxcq4Bs5jJhM1HrP0Pyhhj489R5W1VzkmIhG8ZjPE0hD3vOGnamkP8MDL8M773E-jS-KgC5HPWNtBjI67vhSlnZ0WYvdMjNok5I5ql3r92nlpfK-SjsUtSLnaipdxCNJm8Cbv9h2tMhyONP_VrE3jTHWWPb0IGv_a6EbHG1euE7Jbnw-qTI8tBJmvd5rWLFgY0x0FGIdsqV6EiSGR8Mnl8GrIdng6WiBOQGW6VofPBpgDpqWFrIs9_2-jeI879lyZLc0DxlbO1ZjvKUL2Gb7gf2-L6t3fe3TSXZHhPUUpELVTauzgT5UfhnG1KAAbcS4dos7lZCI7ZbEt76sQ6jioqWLwMiZGeyJEyxOSUggAWJN8Vp_j9IneqmwoW9Fb661UHrUeKmS9N4KNg1ymdwICoLnb6b7QNsVpPILCg9rqrAcDnlhHiJhwwmdsqYrGhERGkUPybJcUxdcvRSQBMoueJcIUzdKjw53VAPDa1VLUKUAXgxL9q7h-YfxfN7HyBKIgeN67WQ3T-tyUC783s8_6Fl1n0yIFvWoHZlZjBrWnXZjYuEyOEu5LEG_]--></g></svg>