<svg xmlns="http://www.w3.org/2000/svg" xmlns:xlink="http://www.w3.org/1999/xlink" contentStyleType="text/css" height="1459px" preserveAspectRatio="none" style="width:1171px;height:1459px;background:#FFFFFF;" version="1.1" viewBox="0 0 1171 1459" width="1171px" zoomAndPan="magnify"><title>Sequence Diagram</title><defs/><g><text fill="#000000" font-family="sans-serif" font-size="14" font-weight="bold" lengthAdjust="spacing" textLength="126.0479" x="523.6738" y="29.5332">Sequence Diagram</text><text fill="#000000" font-family="sans-serif" font-size="14" font-weight="bold" lengthAdjust="spacing" textLength="170.3789" x="501.5083" y="47.1426">Kelola Satuan &amp; Konversi</text><rect fill="none" height="125.2422" style="stroke:#000000;stroke-width:1.5;" width="753.2686" x="411.127" y="381.2891"/><rect fill="none" height="201.7813" style="stroke:#000000;stroke-width:1.5;" width="753.2686" x="411.127" y="624.5859"/><rect fill="none" height="125.2422" style="stroke:#000000;stroke-width:1.5;" width="753.2686" x="411.127" y="974.7734"/><rect fill="none" height="125.2422" style="stroke:#000000;stroke-width:1.5;" width="753.2686" x="411.127" y="1235.4219"/><line style="stroke:#181818;stroke-width:0.5;stroke-dasharray:5.0,5.0;" x1="58" x2="58" y1="138.8281" y2="1377.6641"/><line style="stroke:#181818;stroke-width:0.5;stroke-dasharray:5.0,5.0;" x1="456.127" x2="456.127" y1="138.8281" y2="1377.6641"/><line style="stroke:#181818;stroke-width:0.5;stroke-dasharray:5.0,5.0;" x1="812.4238" x2="812.4238" y1="138.8281" y2="1377.6641"/><line style="stroke:#181818;stroke-width:0.5;stroke-dasharray:5.0,5.0;" x1="1134.499" x2="1134.499" y1="138.8281" y2="1377.6641"/><text fill="#000000" font-family="sans-serif" font-size="14" lengthAdjust="spacing" textLength="101.1787" x="5" y="135.752">Bagian Inventori</text><ellipse cx="58.5894" cy="69.7188" fill="#E2E2F0" rx="8" ry="8" style="stroke:#181818;stroke-width:0.5;"/><path d="M58.5894,77.7188 L58.5894,104.7188 M45.5894,85.7188 L71.5894,85.7188 M58.5894,104.7188 L45.5894,119.7188 M58.5894,104.7188 L71.5894,119.7188 " fill="none" style="stroke:#181818;stroke-width:0.5;"/><text fill="#000000" font-family="sans-serif" font-size="14" lengthAdjust="spacing" textLength="101.1787" x="5" y="1391.1973">Bagian Inventori</text><ellipse cx="58.5894" cy="1402.7734" fill="#E2E2F0" rx="8" ry="8" style="stroke:#181818;stroke-width:0.5;"/><path d="M58.5894,1410.7734 L58.5894,1437.7734 M45.5894,1418.7734 L71.5894,1418.7734 M58.5894,1437.7734 L45.5894,1452.7734 M58.5894,1437.7734 L71.5894,1452.7734 " fill="none" style="stroke:#181818;stroke-width:0.5;"/><rect fill="#E2E2F0" height="31.6094" rx="2.5" ry="2.5" style="stroke:#181818;stroke-width:0.5;" width="71.5928" x="421.127" y="106.2188"/><text fill="#000000" font-family="sans-serif" font-size="14" lengthAdjust="spacing" textLength="57.5928" x="428.127" y="127.752">UnitPage</text><rect fill="#E2E2F0" height="31.6094" rx="2.5" ry="2.5" style="stroke:#181818;stroke-width:0.5;" width="71.5928" x="421.127" y="1376.6641"/><text fill="#000000" font-family="sans-serif" font-size="14" lengthAdjust="spacing" textLength="57.5928" x="428.127" y="1398.1973">UnitPage</text><rect fill="#E2E2F0" height="31.6094" rx="2.5" ry="2.5" style="stroke:#181818;stroke-width:0.5;" width="99.5859" x="763.4238" y="106.2188"/><text fill="#000000" font-family="sans-serif" font-size="14" lengthAdjust="spacing" textLength="85.5859" x="770.4238" y="127.752">UnitController</text><rect fill="#E2E2F0" height="31.6094" rx="2.5" ry="2.5" style="stroke:#181818;stroke-width:0.5;" width="99.5859" x="763.4238" y="1376.6641"/><text fill="#000000" font-family="sans-serif" font-size="14" lengthAdjust="spacing" textLength="85.5859" x="770.4238" y="1398.1973">UnitController</text><rect fill="#E2E2F0" height="31.6094" rx="2.5" ry="2.5" style="stroke:#181818;stroke-width:0.5;" width="38.8965" x="1115.499" y="106.2188"/><text fill="#000000" font-family="sans-serif" font-size="14" lengthAdjust="spacing" textLength="24.8965" x="1122.499" y="127.752">Unit</text><rect fill="#E2E2F0" height="31.6094" rx="2.5" ry="2.5" style="stroke:#181818;stroke-width:0.5;" width="38.8965" x="1115.499" y="1376.6641"/><text fill="#000000" font-family="sans-serif" font-size="14" lengthAdjust="spacing" textLength="24.8965" x="1122.499" y="1398.1973">Unit</text><polygon fill="#181818" points="444.9233,167.1797,454.9233,171.1797,444.9233,175.1797,448.9233,171.1797" style="stroke:#181818;stroke-width:1.0;"/><line style="stroke:#181818;stroke-width:1.0;" x1="58.5894" x2="450.9233" y1="171.1797" y2="171.1797"/><text fill="#000000" font-family="sans-serif" font-size="13" lengthAdjust="spacing" textLength="162.6016" x="176.4556" y="166.3232">Mengakses halaman satuan</text><polygon fill="#181818" points="801.2168,197.5313,811.2168,201.5313,801.2168,205.5313,805.2168,201.5313" style="stroke:#181818;stroke-width:1.0;"/><line style="stroke:#181818;stroke-width:1.0;" x1="456.9233" x2="807.2168" y1="201.5313" y2="201.5313"/><text fill="#000000" font-family="sans-serif" font-size="13" lengthAdjust="spacing" textLength="44.7891" x="612.6755" y="196.6748">mount()</text><polygon fill="#181818" points="1122.9473,227.8828,1132.9473,231.8828,1122.9473,235.8828,1126.9473,231.8828" style="stroke:#181818;stroke-width:1.0;"/><line style="stroke:#181818;stroke-width:1.0;" x1="813.2168" x2="1128.9473" y1="231.8828" y2="231.8828"/><text fill="#000000" font-family="sans-serif" font-size="13" lengthAdjust="spacing" textLength="21.6646" x="963.2498" y="227.0264">all()</text><polygon fill="#181818" points="467.9233,258.2344,457.9233,262.2344,467.9233,266.2344,463.9233,262.2344" style="stroke:#181818;stroke-width:1.0;"/><line style="stroke:#181818;stroke-width:1.0;stroke-dasharray:2.0,2.0;" x1="461.9233" x2="812.2168" y1="262.2344" y2="262.2344"/><text fill="#000000" font-family="sans-serif" font-size="13" lengthAdjust="spacing" textLength="78.7427" x="595.6987" y="257.3779">displayUnits()</text><polygon fill="#181818" points="444.9233,288.5859,454.9233,292.5859,444.9233,296.5859,448.9233,292.5859" style="stroke:#181818;stroke-width:1.0;"/><line style="stroke:#181818;stroke-width:1.0;" x1="58.5894" x2="450.9233" y1="292.5859" y2="292.5859"/><text fill="#000000" font-family="sans-serif" font-size="13" lengthAdjust="spacing" textLength="242.0742" x="136.7192" y="287.7295">Tambah satuan dasar(nama, alias, group)</text><polygon fill="#181818" points="801.2168,318.9375,811.2168,322.9375,801.2168,326.9375,805.2168,322.9375" style="stroke:#181818;stroke-width:1.0;"/><line style="stroke:#181818;stroke-width:1.0;" x1="456.9233" x2="807.2168" y1="322.9375" y2="322.9375"/><text fill="#000000" font-family="sans-serif" font-size="13" lengthAdjust="spacing" textLength="290.5005" x="489.8198" y="318.0811">store(nama, alias, group, base_unit=null, factor=1)</text><line style="stroke:#181818;stroke-width:1.0;" x1="813.2168" x2="855.2168" y1="353.2891" y2="353.2891"/><line style="stroke:#181818;stroke-width:1.0;" x1="855.2168" x2="855.2168" y1="353.2891" y2="366.2891"/><line style="stroke:#181818;stroke-width:1.0;" x1="814.2168" x2="855.2168" y1="366.2891" y2="366.2891"/><polygon fill="#181818" points="824.2168,362.2891,814.2168,366.2891,824.2168,370.2891,820.2168,366.2891" style="stroke:#181818;stroke-width:1.0;"/><text fill="#000000" font-family="sans-serif" font-size="13" lengthAdjust="spacing" textLength="119.9453" x="820.2168" y="348.4326">validate(nama, alias)</text><path d="M411.127,381.2891 L471.2979,381.2891 L471.2979,389.6406 L461.2979,399.6406 L411.127,399.6406 L411.127,381.2891 " fill="#EEEEEE" style="stroke:#000000;stroke-width:1.5;"/><rect fill="none" height="125.2422" style="stroke:#000000;stroke-width:1.5;" width="753.2686" x="411.127" y="381.2891"/><text fill="#000000" font-family="sans-serif" font-size="13" font-weight="bold" lengthAdjust="spacing" textLength="15.1709" x="426.127" y="395.7842">alt</text><text fill="#000000" font-family="sans-serif" font-size="11" font-weight="bold" lengthAdjust="spacing" textLength="95.3691" x="486.2979" y="394.708">[Validasi Berhasil]</text><polygon fill="#181818" points="1122.9473,417.9922,1132.9473,421.9922,1122.9473,425.9922,1126.9473,421.9922" style="stroke:#181818;stroke-width:1.0;"/><line style="stroke:#181818;stroke-width:1.0;" x1="813.2168" x2="1128.9473" y1="421.9922" y2="421.9922"/><text fill="#000000" font-family="sans-serif" font-size="13" lengthAdjust="spacing" textLength="297.7305" x="825.2168" y="417.1357">create(nama, alias, group, base_unit=null, factor=1)</text><polygon fill="#181818" points="467.9233,448.3438,457.9233,452.3438,467.9233,456.3438,463.9233,452.3438" style="stroke:#181818;stroke-width:1.0;"/><line style="stroke:#181818;stroke-width:1.0;stroke-dasharray:2.0,2.0;" x1="461.9233" x2="812.2168" y1="452.3438" y2="452.3438"/><text fill="#000000" font-family="sans-serif" font-size="13" lengthAdjust="spacing" textLength="301.8882" x="484.126" y="447.4873">showSuccess("Satuan dasar berhasil ditambahkan")</text><line style="stroke:#000000;stroke-width:1.0;stroke-dasharray:2.0,2.0;" x1="411.127" x2="1164.3955" y1="461.3438" y2="461.3438"/><text fill="#000000" font-family="sans-serif" font-size="11" font-weight="bold" lengthAdjust="spacing" textLength="82.5269" x="416.127" y="472.7627">[Validasi Gagal]</text><polygon fill="#181818" points="467.9233,494.5313,457.9233,498.5313,467.9233,502.5313,463.9233,498.5313" style="stroke:#181818;stroke-width:1.0;"/><line style="stroke:#181818;stroke-width:1.0;stroke-dasharray:2.0,2.0;" x1="461.9233" x2="812.2168" y1="498.5313" y2="498.5313"/><text fill="#000000" font-family="sans-serif" font-size="13" lengthAdjust="spacing" textLength="166.0039" x="552.0681" y="493.6748">showError("Data tidak valid")</text><polygon fill="#181818" points="444.9233,531.8828,454.9233,535.8828,444.9233,539.8828,448.9233,535.8828" style="stroke:#181818;stroke-width:1.0;"/><line style="stroke:#181818;stroke-width:1.0;" x1="58.5894" x2="450.9233" y1="535.8828" y2="535.8828"/><text fill="#000000" font-family="sans-serif" font-size="13" lengthAdjust="spacing" textLength="374.334" x="70.5894" y="531.0264">Tambah satuan turunan(nama, alias, group, base_unit_id, factor)</text><polygon fill="#181818" points="801.2168,562.2344,811.2168,566.2344,801.2168,570.2344,805.2168,566.2344" style="stroke:#181818;stroke-width:1.0;"/><line style="stroke:#181818;stroke-width:1.0;" x1="456.9233" x2="807.2168" y1="566.2344" y2="566.2344"/><text fill="#000000" font-family="sans-serif" font-size="13" lengthAdjust="spacing" textLength="265.1987" x="502.4707" y="561.3779">store(nama, alias, group, base_unit_id, factor)</text><line style="stroke:#181818;stroke-width:1.0;" x1="813.2168" x2="855.2168" y1="596.5859" y2="596.5859"/><line style="stroke:#181818;stroke-width:1.0;" x1="855.2168" x2="855.2168" y1="596.5859" y2="609.5859"/><line style="stroke:#181818;stroke-width:1.0;" x1="814.2168" x2="855.2168" y1="609.5859" y2="609.5859"/><polygon fill="#181818" points="824.2168,605.5859,814.2168,609.5859,824.2168,613.5859,820.2168,609.5859" style="stroke:#181818;stroke-width:1.0;"/><text fill="#000000" font-family="sans-serif" font-size="13" lengthAdjust="spacing" textLength="240.6333" x="820.2168" y="591.7295">validate(nama, alias, base_unit_id, factor)</text><path d="M411.127,624.5859 L471.2979,624.5859 L471.2979,632.9375 L461.2979,642.9375 L411.127,642.9375 L411.127,624.5859 " fill="#EEEEEE" style="stroke:#000000;stroke-width:1.5;"/><rect fill="none" height="201.7813" style="stroke:#000000;stroke-width:1.5;" width="753.2686" x="411.127" y="624.5859"/><text fill="#000000" font-family="sans-serif" font-size="13" font-weight="bold" lengthAdjust="spacing" textLength="15.1709" x="426.127" y="639.0811">alt</text><text fill="#000000" font-family="sans-serif" font-size="11" font-weight="bold" lengthAdjust="spacing" textLength="161.6968" x="486.2979" y="638.0049">[Validasi Berhasil &amp; Factor &gt; 0]</text><polygon fill="#181818" points="1122.9473,661.2891,1132.9473,665.2891,1122.9473,669.2891,1126.9473,665.2891" style="stroke:#181818;stroke-width:1.0;"/><line style="stroke:#181818;stroke-width:1.0;" x1="813.2168" x2="1128.9473" y1="665.2891" y2="665.2891"/><text fill="#000000" font-family="sans-serif" font-size="13" lengthAdjust="spacing" textLength="103.3462" x="922.4089" y="660.4326">find(base_unit_id)</text><polygon fill="#181818" points="1122.9473,691.6406,1132.9473,695.6406,1122.9473,699.6406,1126.9473,695.6406" style="stroke:#181818;stroke-width:1.0;"/><line style="stroke:#181818;stroke-width:1.0;" x1="813.2168" x2="1128.9473" y1="695.6406" y2="695.6406"/><text fill="#000000" font-family="sans-serif" font-size="13" lengthAdjust="spacing" textLength="272.4287" x="837.8677" y="690.7842">create(nama, alias, group, base_unit_id, factor)</text><polygon fill="#181818" points="467.9233,721.9922,457.9233,725.9922,467.9233,729.9922,463.9233,725.9922" style="stroke:#181818;stroke-width:1.0;"/><line style="stroke:#181818;stroke-width:1.0;stroke-dasharray:2.0,2.0;" x1="461.9233" x2="812.2168" y1="725.9922" y2="725.9922"/><text fill="#000000" font-family="sans-serif" font-size="13" lengthAdjust="spacing" textLength="317.7764" x="476.1819" y="721.1357">showSuccess("Satuan konversi berhasil ditambahkan")</text><line style="stroke:#000000;stroke-width:1.0;stroke-dasharray:2.0,2.0;" x1="411.127" x2="1164.3955" y1="734.9922" y2="734.9922"/><text fill="#000000" font-family="sans-serif" font-size="11" font-weight="bold" lengthAdjust="spacing" textLength="127.73" x="416.127" y="746.4111">[Factor Nol atau Negatif]</text><polygon fill="#181818" points="467.9233,768.1797,457.9233,772.1797,467.9233,776.1797,463.9233,772.1797" style="stroke:#181818;stroke-width:1.0;"/><line style="stroke:#181818;stroke-width:1.0;stroke-dasharray:2.0,2.0;" x1="461.9233" x2="812.2168" y1="772.1797" y2="772.1797"/><text fill="#000000" font-family="sans-serif" font-size="13" lengthAdjust="spacing" textLength="265.7192" x="502.2104" y="767.3232">showError("Rasio konversi harus lebih dari 0")</text><line style="stroke:#000000;stroke-width:1.0;stroke-dasharray:2.0,2.0;" x1="411.127" x2="1164.3955" y1="781.1797" y2="781.1797"/><text fill="#000000" font-family="sans-serif" font-size="11" font-weight="bold" lengthAdjust="spacing" textLength="82.5269" x="416.127" y="792.5986">[Validasi Gagal]</text><polygon fill="#181818" points="467.9233,814.3672,457.9233,818.3672,467.9233,822.3672,463.9233,818.3672" style="stroke:#181818;stroke-width:1.0;"/><line style="stroke:#181818;stroke-width:1.0;stroke-dasharray:2.0,2.0;" x1="461.9233" x2="812.2168" y1="818.3672" y2="818.3672"/><text fill="#000000" font-family="sans-serif" font-size="13" lengthAdjust="spacing" textLength="166.0039" x="552.0681" y="813.5107">showError("Data tidak valid")</text><polygon fill="#181818" points="444.9233,851.7188,454.9233,855.7188,444.9233,859.7188,448.9233,855.7188" style="stroke:#181818;stroke-width:1.0;"/><line style="stroke:#181818;stroke-width:1.0;" x1="58.5894" x2="450.9233" y1="855.7188" y2="855.7188"/><text fill="#000000" font-family="sans-serif" font-size="13" lengthAdjust="spacing" textLength="237.7324" x="138.8901" y="850.8623">Edit satuan(id, nama, alias, group, factor)</text><polygon fill="#181818" points="801.2168,882.0703,811.2168,886.0703,801.2168,890.0703,805.2168,886.0703" style="stroke:#181818;stroke-width:1.0;"/><line style="stroke:#181818;stroke-width:1.0;" x1="456.9233" x2="807.2168" y1="886.0703" y2="886.0703"/><text fill="#000000" font-family="sans-serif" font-size="13" lengthAdjust="spacing" textLength="212.4497" x="528.8452" y="881.2139">update(id, nama, alias, group, factor)</text><polygon fill="#181818" points="1122.9473,912.4219,1132.9473,916.4219,1122.9473,920.4219,1126.9473,916.4219" style="stroke:#181818;stroke-width:1.0;"/><line style="stroke:#181818;stroke-width:1.0;" x1="813.2168" x2="1128.9473" y1="916.4219" y2="916.4219"/><text fill="#000000" font-family="sans-serif" font-size="13" lengthAdjust="spacing" textLength="39.7363" x="954.2139" y="911.5654">find(id)</text><line style="stroke:#181818;stroke-width:1.0;" x1="813.2168" x2="855.2168" y1="946.7734" y2="946.7734"/><line style="stroke:#181818;stroke-width:1.0;" x1="855.2168" x2="855.2168" y1="946.7734" y2="959.7734"/><line style="stroke:#181818;stroke-width:1.0;" x1="814.2168" x2="855.2168" y1="959.7734" y2="959.7734"/><polygon fill="#181818" points="824.2168,955.7734,814.2168,959.7734,824.2168,963.7734,820.2168,959.7734" style="stroke:#181818;stroke-width:1.0;"/><text fill="#000000" font-family="sans-serif" font-size="13" lengthAdjust="spacing" textLength="159.6816" x="820.2168" y="941.917">validate(nama, alias, factor)</text><path d="M411.127,974.7734 L471.2979,974.7734 L471.2979,983.125 L461.2979,993.125 L411.127,993.125 L411.127,974.7734 " fill="#EEEEEE" style="stroke:#000000;stroke-width:1.5;"/><rect fill="none" height="125.2422" style="stroke:#000000;stroke-width:1.5;" width="753.2686" x="411.127" y="974.7734"/><text fill="#000000" font-family="sans-serif" font-size="13" font-weight="bold" lengthAdjust="spacing" textLength="15.1709" x="426.127" y="989.2686">alt</text><text fill="#000000" font-family="sans-serif" font-size="11" font-weight="bold" lengthAdjust="spacing" textLength="95.3691" x="486.2979" y="988.1924">[Validasi Berhasil]</text><polygon fill="#181818" points="1122.9473,1011.4766,1132.9473,1015.4766,1122.9473,1019.4766,1126.9473,1015.4766" style="stroke:#181818;stroke-width:1.0;"/><line style="stroke:#181818;stroke-width:1.0;" x1="813.2168" x2="1128.9473" y1="1015.4766" y2="1015.4766"/><text fill="#000000" font-family="sans-serif" font-size="13" lengthAdjust="spacing" textLength="195.1079" x="876.5281" y="1010.6201">update(nama, alias, group, factor)</text><polygon fill="#181818" points="467.9233,1041.8281,457.9233,1045.8281,467.9233,1049.8281,463.9233,1045.8281" style="stroke:#181818;stroke-width:1.0;"/><line style="stroke:#181818;stroke-width:1.0;stroke-dasharray:2.0,2.0;" x1="461.9233" x2="812.2168" y1="1045.8281" y2="1045.8281"/><text fill="#000000" font-family="sans-serif" font-size="13" lengthAdjust="spacing" textLength="249.1328" x="510.5037" y="1040.9717">showSuccess("Satuan berhasil diperbarui")</text><line style="stroke:#000000;stroke-width:1.0;stroke-dasharray:2.0,2.0;" x1="411.127" x2="1164.3955" y1="1054.8281" y2="1054.8281"/><text fill="#000000" font-family="sans-serif" font-size="11" font-weight="bold" lengthAdjust="spacing" textLength="82.5269" x="416.127" y="1066.2471">[Validasi Gagal]</text><polygon fill="#181818" points="467.9233,1088.0156,457.9233,1092.0156,467.9233,1096.0156,463.9233,1092.0156" style="stroke:#181818;stroke-width:1.0;"/><line style="stroke:#181818;stroke-width:1.0;stroke-dasharray:2.0,2.0;" x1="461.9233" x2="812.2168" y1="1092.0156" y2="1092.0156"/><text fill="#000000" font-family="sans-serif" font-size="13" lengthAdjust="spacing" textLength="166.0039" x="552.0681" y="1087.1592">showError("Data tidak valid")</text><polygon fill="#181818" points="444.9233,1125.3672,454.9233,1129.3672,444.9233,1133.3672,448.9233,1129.3672" style="stroke:#181818;stroke-width:1.0;"/><line style="stroke:#181818;stroke-width:1.0;" x1="58.5894" x2="450.9233" y1="1129.3672" y2="1129.3672"/><text fill="#000000" font-family="sans-serif" font-size="13" lengthAdjust="spacing" textLength="98.998" x="208.2573" y="1124.5107">Hapus satuan(id)</text><polygon fill="#181818" points="801.2168,1155.7188,811.2168,1159.7188,801.2168,1163.7188,805.2168,1159.7188" style="stroke:#181818;stroke-width:1.0;"/><line style="stroke:#181818;stroke-width:1.0;" x1="456.9233" x2="807.2168" y1="1159.7188" y2="1159.7188"/><text fill="#000000" font-family="sans-serif" font-size="13" lengthAdjust="spacing" textLength="61.4072" x="604.3665" y="1154.8623">destroy(id)</text><polygon fill="#181818" points="1122.9473,1186.0703,1132.9473,1190.0703,1122.9473,1194.0703,1126.9473,1190.0703" style="stroke:#181818;stroke-width:1.0;"/><line style="stroke:#181818;stroke-width:1.0;" x1="813.2168" x2="1128.9473" y1="1190.0703" y2="1190.0703"/><text fill="#000000" font-family="sans-serif" font-size="13" lengthAdjust="spacing" textLength="39.7363" x="954.2139" y="1185.2139">find(id)</text><polygon fill="#181818" points="1122.9473,1216.4219,1132.9473,1220.4219,1122.9473,1224.4219,1126.9473,1220.4219" style="stroke:#181818;stroke-width:1.0;"/><line style="stroke:#181818;stroke-width:1.0;" x1="813.2168" x2="1128.9473" y1="1220.4219" y2="1220.4219"/><text fill="#000000" font-family="sans-serif" font-size="13" lengthAdjust="spacing" textLength="90.3145" x="928.9248" y="1215.5654">checkUsage(id)</text><path d="M411.127,1235.4219 L471.2979,1235.4219 L471.2979,1243.7734 L461.2979,1253.7734 L411.127,1253.7734 L411.127,1235.4219 " fill="#EEEEEE" style="stroke:#000000;stroke-width:1.5;"/><rect fill="none" height="125.2422" style="stroke:#000000;stroke-width:1.5;" width="753.2686" x="411.127" y="1235.4219"/><text fill="#000000" font-family="sans-serif" font-size="13" font-weight="bold" lengthAdjust="spacing" textLength="15.1709" x="426.127" y="1249.917">alt</text><text fill="#000000" font-family="sans-serif" font-size="11" font-weight="bold" lengthAdjust="spacing" textLength="146.0723" x="486.2979" y="1248.8408">[Satuan Sedang Digunakan]</text><polygon fill="#181818" points="467.9233,1272.125,457.9233,1276.125,467.9233,1280.125,463.9233,1276.125" style="stroke:#181818;stroke-width:1.0;"/><line style="stroke:#181818;stroke-width:1.0;stroke-dasharray:2.0,2.0;" x1="461.9233" x2="812.2168" y1="1276.125" y2="1276.125"/><text fill="#000000" font-family="sans-serif" font-size="13" lengthAdjust="spacing" textLength="332.2935" x="468.9233" y="1271.2686">showError("Satuan sedang digunakan pada bahan baku")</text><line style="stroke:#000000;stroke-width:1.0;stroke-dasharray:2.0,2.0;" x1="411.127" x2="1164.3955" y1="1285.125" y2="1285.125"/><text fill="#000000" font-family="sans-serif" font-size="11" font-weight="bold" lengthAdjust="spacing" textLength="135.0723" x="416.127" y="1296.5439">[Satuan Tidak Digunakan]</text><polygon fill="#181818" points="1122.9473,1318.3125,1132.9473,1322.3125,1122.9473,1326.3125,1126.9473,1322.3125" style="stroke:#181818;stroke-width:1.0;"/><line style="stroke:#181818;stroke-width:1.0;" x1="813.2168" x2="1128.9473" y1="1322.3125" y2="1322.3125"/><text fill="#000000" font-family="sans-serif" font-size="13" lengthAdjust="spacing" textLength="44.0781" x="952.043" y="1317.4561">delete()</text><polygon fill="#181818" points="467.9233,1348.6641,457.9233,1352.6641,467.9233,1356.6641,463.9233,1352.6641" style="stroke:#181818;stroke-width:1.0;"/><line style="stroke:#181818;stroke-width:1.0;stroke-dasharray:2.0,2.0;" x1="461.9233" x2="812.2168" y1="1352.6641" y2="1352.6641"/><text fill="#000000" font-family="sans-serif" font-size="13" lengthAdjust="spacing" textLength="236.8564" x="516.6418" y="1347.8076">showSuccess("Satuan berhasil dihapus")</text><!--SRC=[jLLDQzj04BtlhnXq23Aua5uB2JHEcfRW4Egufq0OIsDfqNfNtO-K_FkEv5KYswhY5EABqSxCcpVlpKgkahf6Ynjmz3kGpcXEpc51NvKiD6IaFLaXlFIAO15Ju59YmJKF-eQKKGWBz04rdC2DqKzadHG2Csyi91TOI8xyu6FD1p81TCsJuAPUPh96xI5PQkdlk6aRNTuT1cT6UskK8hjDcHscR0Dp8HWTFfqp37o1EUa2AqSEIbIuOIQkfIeuskJCE6TZWlRfHF13SpJd8rGg7dH0kNIrmkUcaUFGJfDxtAomZCYGeqERQcusPHo9RWg5DQ6Uz7iwre86agQmGaUFWTkSwQ3K5DQja6UVN_WrvKzSawFVGM1Ig3pyQaDEmWNPal-L0FxrPiiixLKUqRl3w4PsfVcp25d6kv8cYzxWi8fjMJ7VwbAXJYQ2bADNRjTOe1e4lRBMs3IvH8_WERdQpjeWw7nCTXziqAZ7vtgKUJVLU-tOBHstubzbmmRnjVcslItdSBhlrbhgFEsZJVx7pnqMntXPnNiyQcTaVMiKi5q1Rgb0BzTZllvaBFEANg8D3XIjPCdhOoMSViogN37xk2Xf8yMGM0Dh4UhMsJShzkngJ7fpGyPtOj_ao6ICnJ6szjoioQvOVVanWd_7cerzKNn7rPmSlykV-p8DITVkTabPjMm-HssarIgEig0STS5VeeAlFI_b6EDOuhObULS2DUR8bwHibC4gT5B4zFjsnCC6aLjEYjYITmjVDj94pVu2]--></g></svg>