<svg xmlns="http://www.w3.org/2000/svg" xmlns:xlink="http://www.w3.org/1999/xlink" contentStyleType="text/css" height="635px" preserveAspectRatio="none" style="width:550px;height:635px;background:#FFFFFF;" version="1.1" viewBox="0 0 550 635" width="550px" zoomAndPan="magnify"><title>Sequence Diagram</title><defs/><g><text fill="#000000" font-family="sans-serif" font-size="14" font-weight="bold" lengthAdjust="spacing" textLength="126.0479" x="211.3535" y="29.5332">Sequence Diagram</text><text fill="#000000" font-family="sans-serif" font-size="14" font-weight="bold" lengthAdjust="spacing" textLength="128.3516" x="210.2017" y="47.1426">Mengelola Supplier</text><line style="stroke:#181818;stroke-width:0.5;stroke-dasharray:5.0,5.0;" x1="58" x2="58" y1="138.8281" y2="553.3984"/><line style="stroke:#181818;stroke-width:0.5;stroke-dasharray:5.0,5.0;" x1="242.2529" x2="242.2529" y1="138.8281" y2="553.3984"/><line style="stroke:#181818;stroke-width:0.5;stroke-dasharray:5.0,5.0;" x1="364.3145" x2="364.3145" y1="138.8281" y2="553.3984"/><line style="stroke:#181818;stroke-width:0.5;stroke-dasharray:5.0,5.0;" x1="490.3691" x2="490.3691" y1="138.8281" y2="553.3984"/><text fill="#000000" font-family="sans-serif" font-size="14" lengthAdjust="spacing" textLength="101.1787" x="5" y="135.752">Bagian Inventori</text><ellipse cx="58.5894" cy="69.7188" fill="#E2E2F0" rx="8" ry="8" style="stroke:#181818;stroke-width:0.5;"/><path d="M58.5894,77.7188 L58.5894,104.7188 M45.5894,85.7188 L71.5894,85.7188 M58.5894,104.7188 L45.5894,119.7188 M58.5894,104.7188 L71.5894,119.7188 " fill="none" style="stroke:#181818;stroke-width:0.5;"/><text fill="#000000" font-family="sans-serif" font-size="14" lengthAdjust="spacing" textLength="101.1787" x="5" y="566.9316">Bagian Inventori</text><ellipse cx="58.5894" cy="578.5078" fill="#E2E2F0" rx="8" ry="8" style="stroke:#181818;stroke-width:0.5;"/><path d="M58.5894,586.5078 L58.5894,613.5078 M45.5894,594.5078 L71.5894,594.5078 M58.5894,613.5078 L45.5894,628.5078 M58.5894,613.5078 L71.5894,628.5078 " fill="none" style="stroke:#181818;stroke-width:0.5;"/><rect fill="#E2E2F0" height="31.6094" rx="2.5" ry="2.5" style="stroke:#181818;stroke-width:0.5;" width="98.0615" x="193.2529" y="106.2188"/><text fill="#000000" font-family="sans-serif" font-size="14" lengthAdjust="spacing" textLength="84.0615" x="200.2529" y="127.752">SupplierPage</text><rect fill="#E2E2F0" height="31.6094" rx="2.5" ry="2.5" style="stroke:#181818;stroke-width:0.5;" width="98.0615" x="193.2529" y="552.3984"/><text fill="#000000" font-family="sans-serif" font-size="14" lengthAdjust="spacing" textLength="84.0615" x="200.2529" y="573.9316">SupplierPage</text><rect fill="#E2E2F0" height="31.6094" rx="2.5" ry="2.5" style="stroke:#181818;stroke-width:0.5;" width="126.0547" x="301.3145" y="106.2188"/><text fill="#000000" font-family="sans-serif" font-size="14" lengthAdjust="spacing" textLength="112.0547" x="308.3145" y="127.752">SupplierController</text><rect fill="#E2E2F0" height="31.6094" rx="2.5" ry="2.5" style="stroke:#181818;stroke-width:0.5;" width="126.0547" x="301.3145" y="552.3984"/><text fill="#000000" font-family="sans-serif" font-size="14" lengthAdjust="spacing" textLength="112.0547" x="308.3145" y="573.9316">SupplierController</text><rect fill="#E2E2F0" height="31.6094" rx="2.5" ry="2.5" style="stroke:#181818;stroke-width:0.5;" width="107.3857" x="437.3691" y="106.2188"/><text fill="#000000" font-family="sans-serif" font-size="14" lengthAdjust="spacing" textLength="93.3857" x="444.3691" y="127.752">Supplier Model</text><rect fill="#E2E2F0" height="31.6094" rx="2.5" ry="2.5" style="stroke:#181818;stroke-width:0.5;" width="107.3857" x="437.3691" y="552.3984"/><text fill="#000000" font-family="sans-serif" font-size="14" lengthAdjust="spacing" textLength="93.3857" x="444.3691" y="573.9316">Supplier Model</text><polygon fill="#181818" points="230.2837,167.1797,240.2837,171.1797,230.2837,175.1797,234.2837,171.1797" style="stroke:#181818;stroke-width:1.0;"/><line style="stroke:#181818;stroke-width:1.0;" x1="58.5894" x2="236.2837" y1="171.1797" y2="171.1797"/><text fill="#000000" font-family="sans-serif" font-size="13" lengthAdjust="spacing" textLength="159.6943" x="70.5894" y="166.3232">Membuka halaman supplier</text><polygon fill="#181818" points="352.3418,197.5313,362.3418,201.5313,352.3418,205.5313,356.3418,201.5313" style="stroke:#181818;stroke-width:1.0;"/><line style="stroke:#181818;stroke-width:1.0;" x1="242.2837" x2="358.3418" y1="201.5313" y2="201.5313"/><text fill="#000000" font-family="sans-serif" font-size="13" lengthAdjust="spacing" textLength="44.7891" x="280.9182" y="196.6748">mount()</text><polygon fill="#181818" points="479.062,227.8828,489.062,231.8828,479.062,235.8828,483.062,231.8828" style="stroke:#181818;stroke-width:1.0;"/><line style="stroke:#181818;stroke-width:1.0;" x1="364.3418" x2="485.062" y1="231.8828" y2="231.8828"/><text fill="#000000" font-family="sans-serif" font-size="13" lengthAdjust="spacing" textLength="21.6646" x="416.8696" y="227.0264">all()</text><polygon fill="#181818" points="253.2837,258.2344,243.2837,262.2344,253.2837,266.2344,249.2837,262.2344" style="stroke:#181818;stroke-width:1.0;"/><line style="stroke:#181818;stroke-width:1.0;stroke-dasharray:2.0,2.0;" x1="247.2837" x2="363.3418" y1="262.2344" y2="262.2344"/><text fill="#000000" font-family="sans-serif" font-size="13" lengthAdjust="spacing" textLength="63.5845" x="271.5205" y="257.3779">listSupplier</text><polygon fill="#181818" points="230.2837,288.5859,240.2837,292.5859,230.2837,296.5859,234.2837,292.5859" style="stroke:#181818;stroke-width:1.0;"/><line style="stroke:#181818;stroke-width:1.0;" x1="58.5894" x2="236.2837" y1="292.5859" y2="292.5859"/><text fill="#000000" font-family="sans-serif" font-size="13" lengthAdjust="spacing" textLength="157.5171" x="71.678" y="287.7295">Klik Tambah Supplier(data)</text><polygon fill="#181818" points="352.3418,318.9375,362.3418,322.9375,352.3418,326.9375,356.3418,322.9375" style="stroke:#181818;stroke-width:1.0;"/><line style="stroke:#181818;stroke-width:1.0;" x1="242.2837" x2="358.3418" y1="322.9375" y2="322.9375"/><text fill="#000000" font-family="sans-serif" font-size="13" lengthAdjust="spacing" textLength="62.8608" x="271.8823" y="318.0811">store(data)</text><polygon fill="#181818" points="479.062,349.2891,489.062,353.2891,479.062,357.2891,483.062,353.2891" style="stroke:#181818;stroke-width:1.0;"/><line style="stroke:#181818;stroke-width:1.0;" x1="364.3418" x2="485.062" y1="353.2891" y2="353.2891"/><text fill="#000000" font-family="sans-serif" font-size="13" lengthAdjust="spacing" textLength="70.0908" x="392.6565" y="348.4326">create(data)</text><polygon fill="#181818" points="253.2837,379.6406,243.2837,383.6406,253.2837,387.6406,249.2837,383.6406" style="stroke:#181818;stroke-width:1.0;"/><line style="stroke:#181818;stroke-width:1.0;stroke-dasharray:2.0,2.0;" x1="247.2837" x2="363.3418" y1="383.6406" y2="383.6406"/><text fill="#000000" font-family="sans-serif" font-size="13" lengthAdjust="spacing" textLength="88.1372" x="259.2441" y="378.7842">showSuccess()</text><polygon fill="#181818" points="230.2837,409.9922,240.2837,413.9922,230.2837,417.9922,234.2837,413.9922" style="stroke:#181818;stroke-width:1.0;"/><line style="stroke:#181818;stroke-width:1.0;" x1="58.5894" x2="236.2837" y1="413.9922" y2="413.9922"/><text fill="#000000" font-family="sans-serif" font-size="13" lengthAdjust="spacing" textLength="149.5698" x="75.6516" y="409.1357">Klik Edit Supplier(id, data)</text><polygon fill="#181818" points="352.3418,440.3438,362.3418,444.3438,352.3418,448.3438,356.3418,444.3438" style="stroke:#181818;stroke-width:1.0;"/><line style="stroke:#181818;stroke-width:1.0;" x1="242.2837" x2="358.3418" y1="444.3438" y2="444.3438"/><text fill="#000000" font-family="sans-serif" font-size="13" lengthAdjust="spacing" textLength="91.0635" x="257.781" y="439.4873">update(id, data)</text><polygon fill="#181818" points="479.062,470.6953,489.062,474.6953,479.062,478.6953,483.062,474.6953" style="stroke:#181818;stroke-width:1.0;"/><line style="stroke:#181818;stroke-width:1.0;" x1="364.3418" x2="485.062" y1="474.6953" y2="474.6953"/><text fill="#000000" font-family="sans-serif" font-size="13" lengthAdjust="spacing" textLength="39.7363" x="407.8337" y="469.8389">find(id)</text><polygon fill="#181818" points="479.062,501.0469,489.062,505.0469,479.062,509.0469,483.062,505.0469" style="stroke:#181818;stroke-width:1.0;"/><line style="stroke:#181818;stroke-width:1.0;" x1="364.3418" x2="485.062" y1="505.0469" y2="505.0469"/><text fill="#000000" font-family="sans-serif" font-size="13" lengthAdjust="spacing" textLength="73.7217" x="390.8411" y="500.1904">update(data)</text><polygon fill="#181818" points="253.2837,531.3984,243.2837,535.3984,253.2837,539.3984,249.2837,535.3984" style="stroke:#181818;stroke-width:1.0;"/><line style="stroke:#181818;stroke-width:1.0;stroke-dasharray:2.0,2.0;" x1="247.2837" x2="363.3418" y1="535.3984" y2="535.3984"/><text fill="#000000" font-family="sans-serif" font-size="13" lengthAdjust="spacing" textLength="88.1372" x="259.2441" y="530.542">showSuccess()</text><!--SRC=[XP7BJeH044Nt_HKLLZE9_e0B4qKNPa8o2IxTr3GbL2YwiH_w-nOE26OcSTctJjzJDB5dDsB00I9zP7AMAeeHMteGRXrOSec2COcJ4DGp0a-ChTvvSnMvbiGBGft7KNXYqIOVe7Z4bj71Y_lK3X-u08pJoQWkiUKHNO9YkNPKvGzH7wy3fNSfU14APwoyZa7b6v8pKXcZFhYzrrAuWug6K-uHEXGSTBEuRApJYIcL6NnsQRStUfYYIYCKcOEbI3YczNEtYeDm3wyudB3xVP1TWmdtMqdKvw0bNaKs4APjlhJ6pd_LsLhzCRh9fV2vuRJgkBc12sKUcwbxCrkzx-mQdVp9Plw_NRu1]--></g></svg>