<svg xmlns="http://www.w3.org/2000/svg" xmlns:xlink="http://www.w3.org/1999/xlink" contentStyleType="text/css" height="1061px" preserveAspectRatio="none" style="width:1384px;height:1061px;background:#FFFFFF;" version="1.1" viewBox="0 0 1384 1061" width="1384px" zoomAndPan="magnify"><defs/><g><line style="stroke:#181818;stroke-width:0.5;stroke-dasharray:5.0,5.0;" x1="23" x2="23" y1="82.6094" y2="979.5078"/><line style="stroke:#181818;stroke-width:0.5;stroke-dasharray:5.0,5.0;" x1="209.6211" x2="209.6211" y1="82.6094" y2="979.5078"/><line style="stroke:#181818;stroke-width:0.5;stroke-dasharray:5.0,5.0;" x1="547.4438" x2="547.4438" y1="82.6094" y2="979.5078"/><line style="stroke:#181818;stroke-width:0.5;stroke-dasharray:5.0,5.0;" x1="662.5884" x2="662.5884" y1="82.6094" y2="979.5078"/><line style="stroke:#181818;stroke-width:0.5;stroke-dasharray:5.0,5.0;" x1="768.5259" x2="768.5259" y1="82.6094" y2="979.5078"/><line style="stroke:#181818;stroke-width:0.5;stroke-dasharray:5.0,5.0;" x1="856.7739" x2="856.7739" y1="82.6094" y2="979.5078"/><line style="stroke:#181818;stroke-width:0.5;stroke-dasharray:5.0,5.0;" x1="957.9185" x2="957.9185" y1="82.6094" y2="979.5078"/><line style="stroke:#181818;stroke-width:0.5;stroke-dasharray:5.0,5.0;" x1="1159.6665" x2="1159.6665" y1="82.6094" y2="979.5078"/><line style="stroke:#181818;stroke-width:0.5;stroke-dasharray:5.0,5.0;" x1="1338.2671" x2="1338.2671" y1="82.6094" y2="979.5078"/><text fill="#000000" font-family="sans-serif" font-size="14" lengthAdjust="spacing" textLength="31.8965" x="5" y="79.5332">Kasir</text><ellipse cx="23.9482" cy="13.5" fill="#E2E2F0" rx="8" ry="8" style="stroke:#181818;stroke-width:0.5;"/><path d="M23.9482,21.5 L23.9482,48.5 M10.9482,29.5 L36.9482,29.5 M23.9482,48.5 L10.9482,63.5 M23.9482,48.5 L36.9482,63.5 " fill="none" style="stroke:#181818;stroke-width:0.5;"/><text fill="#000000" font-family="sans-serif" font-size="14" lengthAdjust="spacing" textLength="31.8965" x="5" y="993.041">Kasir</text><ellipse cx="23.9482" cy="1004.6172" fill="#E2E2F0" rx="8" ry="8" style="stroke:#181818;stroke-width:0.5;"/><path d="M23.9482,1012.6172 L23.9482,1039.6172 M10.9482,1020.6172 L36.9482,1020.6172 M23.9482,1039.6172 L10.9482,1054.6172 M23.9482,1039.6172 L36.9482,1054.6172 " fill="none" style="stroke:#181818;stroke-width:0.5;"/><rect fill="#E2E2F0" height="49.2188" rx="2.5" ry="2.5" style="stroke:#181818;stroke-width:0.5;" width="98.0547" x="160.6211" y="32.3906"/><text fill="#000000" font-family="sans-serif" font-size="14" lengthAdjust="spacing" textLength="84.0547" x="167.6211" y="53.9238">Receipt Page</text><text fill="#000000" font-family="sans-serif" font-size="14" lengthAdjust="spacing" textLength="60.6758" x="179.3105" y="71.5332">(Livewire)</text><rect fill="#E2E2F0" height="49.2188" rx="2.5" ry="2.5" style="stroke:#181818;stroke-width:0.5;" width="98.0547" x="160.6211" y="978.5078"/><text fill="#000000" font-family="sans-serif" font-size="14" lengthAdjust="spacing" textLength="84.0547" x="167.6211" y="1000.041">Receipt Page</text><text fill="#000000" font-family="sans-serif" font-size="14" lengthAdjust="spacing" textLength="60.6758" x="179.3105" y="1017.6504">(Livewire)</text><rect fill="#E2E2F0" height="49.2188" rx="2.5" ry="2.5" style="stroke:#181818;stroke-width:0.5;" width="87.1445" x="504.4438" y="32.3906"/><text fill="#000000" font-family="sans-serif" font-size="14" lengthAdjust="spacing" textLength="73.1445" x="511.4438" y="53.9238">Transaction</text><text fill="#000000" font-family="sans-serif" font-size="14" lengthAdjust="spacing" textLength="38.1309" x="528.9507" y="71.5332">Model</text><rect fill="#E2E2F0" height="49.2188" rx="2.5" ry="2.5" style="stroke:#181818;stroke-width:0.5;" width="87.1445" x="504.4438" y="978.5078"/><text fill="#000000" font-family="sans-serif" font-size="14" lengthAdjust="spacing" textLength="73.1445" x="511.4438" y="1000.041">Transaction</text><text fill="#000000" font-family="sans-serif" font-size="14" lengthAdjust="spacing" textLength="38.1309" x="528.9507" y="1017.6504">Model</text><rect fill="#E2E2F0" height="49.2188" rx="2.5" ry="2.5" style="stroke:#181818;stroke-width:0.5;" width="122.9375" x="601.5884" y="32.3906"/><text fill="#000000" font-family="sans-serif" font-size="14" lengthAdjust="spacing" textLength="108.9375" x="608.5884" y="53.9238">TransactionDetail</text><text fill="#000000" font-family="sans-serif" font-size="14" lengthAdjust="spacing" textLength="38.1309" x="643.9917" y="71.5332">Model</text><rect fill="#E2E2F0" height="49.2188" rx="2.5" ry="2.5" style="stroke:#181818;stroke-width:0.5;" width="122.9375" x="601.5884" y="978.5078"/><text fill="#000000" font-family="sans-serif" font-size="14" lengthAdjust="spacing" textLength="108.9375" x="608.5884" y="1000.041">TransactionDetail</text><text fill="#000000" font-family="sans-serif" font-size="14" lengthAdjust="spacing" textLength="38.1309" x="643.9917" y="1017.6504">Model</text><rect fill="#E2E2F0" height="49.2188" rx="2.5" ry="2.5" style="stroke:#181818;stroke-width:0.5;" width="69.248" x="734.5259" y="32.3906"/><text fill="#000000" font-family="sans-serif" font-size="14" lengthAdjust="spacing" textLength="55.248" x="741.5259" y="53.9238">Payment</text><text fill="#000000" font-family="sans-serif" font-size="14" lengthAdjust="spacing" textLength="38.1309" x="750.0845" y="71.5332">Model</text><rect fill="#E2E2F0" height="49.2188" rx="2.5" ry="2.5" style="stroke:#181818;stroke-width:0.5;" width="69.248" x="734.5259" y="978.5078"/><text fill="#000000" font-family="sans-serif" font-size="14" lengthAdjust="spacing" textLength="55.248" x="741.5259" y="1000.041">Payment</text><text fill="#000000" font-family="sans-serif" font-size="14" lengthAdjust="spacing" textLength="38.1309" x="750.0845" y="1017.6504">Model</text><rect fill="#E2E2F0" height="49.2188" rx="2.5" ry="2.5" style="stroke:#181818;stroke-width:0.5;" width="87.1445" x="813.7739" y="32.3906"/><text fill="#000000" font-family="sans-serif" font-size="14" lengthAdjust="spacing" textLength="73.1445" x="820.7739" y="53.9238">StoreProfile</text><text fill="#000000" font-family="sans-serif" font-size="14" lengthAdjust="spacing" textLength="38.1309" x="838.2808" y="71.5332">Model</text><rect fill="#E2E2F0" height="49.2188" rx="2.5" ry="2.5" style="stroke:#181818;stroke-width:0.5;" width="87.1445" x="813.7739" y="978.5078"/><text fill="#000000" font-family="sans-serif" font-size="14" lengthAdjust="spacing" textLength="73.1445" x="820.7739" y="1000.041">StoreProfile</text><text fill="#000000" font-family="sans-serif" font-size="14" lengthAdjust="spacing" textLength="38.1309" x="838.2808" y="1017.6504">Model</text><rect fill="#E2E2F0" height="31.6094" rx="2.5" ry="2.5" style="stroke:#181818;stroke-width:0.5;" width="95.7031" x="910.9185" y="50"/><text fill="#000000" font-family="sans-serif" font-size="14" lengthAdjust="spacing" textLength="81.7031" x="917.9185" y="71.5332">PdfController</text><rect fill="#E2E2F0" height="31.6094" rx="2.5" ry="2.5" style="stroke:#181818;stroke-width:0.5;" width="95.7031" x="910.9185" y="978.5078"/><text fill="#000000" font-family="sans-serif" font-size="14" lengthAdjust="spacing" textLength="81.7031" x="917.9185" y="1000.041">PdfController</text><rect fill="#E2E2F0" height="31.6094" rx="2.5" ry="2.5" style="stroke:#181818;stroke-width:0.5;" width="129.9375" x="1095.6665" y="50"/><text fill="#000000" font-family="sans-serif" font-size="14" lengthAdjust="spacing" textLength="115.9375" x="1102.6665" y="71.5332">NotificationService</text><rect fill="#E2E2F0" height="31.6094" rx="2.5" ry="2.5" style="stroke:#181818;stroke-width:0.5;" width="129.9375" x="1095.6665" y="978.5078"/><text fill="#000000" font-family="sans-serif" font-size="14" lengthAdjust="spacing" textLength="115.9375" x="1102.6665" y="1000.041">NotificationService</text><text fill="#000000" font-family="sans-serif" font-size="14" lengthAdjust="spacing" textLength="59.9307" x="1306.2671" y="79.5332">Database</text><path d="M1321.2324,29 C1321.2324,19 1339.2324,19 1339.2324,19 C1339.2324,19 1357.2324,19 1357.2324,29 L1357.2324,55 C1357.2324,65 1339.2324,65 1339.2324,65 C1339.2324,65 1321.2324,65 1321.2324,55 L1321.2324,29 " fill="#E2E2F0" style="stroke:#181818;stroke-width:1.5;"/><path d="M1321.2324,29 C1321.2324,39 1339.2324,39 1339.2324,39 C1339.2324,39 1357.2324,39 1357.2324,29 " fill="none" style="stroke:#181818;stroke-width:1.5;"/><text fill="#000000" font-family="sans-serif" font-size="14" lengthAdjust="spacing" textLength="59.9307" x="1306.2671" y="993.041">Database</text><path d="M1321.2324,1006.1172 C1321.2324,996.1172 1339.2324,996.1172 1339.2324,996.1172 C1339.2324,996.1172 1357.2324,996.1172 1357.2324,1006.1172 L1357.2324,1032.1172 C1357.2324,1042.1172 1339.2324,1042.1172 1339.2324,1042.1172 C1339.2324,1042.1172 1321.2324,1042.1172 1321.2324,1032.1172 L1321.2324,1006.1172 " fill="#E2E2F0" style="stroke:#181818;stroke-width:1.5;"/><path d="M1321.2324,1006.1172 C1321.2324,1016.1172 1339.2324,1016.1172 1339.2324,1016.1172 C1339.2324,1016.1172 1357.2324,1016.1172 1357.2324,1006.1172 " fill="none" style="stroke:#181818;stroke-width:1.5;"/><rect fill="#EEEEEE" height="3" style="stroke:#EEEEEE;stroke-width:1.0;" width="1377.1978" x="0" y="113.7852"/><line style="stroke:#000000;stroke-width:1.0;" x1="0" x2="1377.1978" y1="113.7852" y2="113.7852"/><line style="stroke:#000000;stroke-width:1.0;" x1="0" x2="1377.1978" y1="116.7852" y2="116.7852"/><rect fill="#EEEEEE" height="24.3516" style="stroke:#000000;stroke-width:2.0;" width="183.0635" x="597.0671" y="102.6094"/><text fill="#000000" font-family="sans-serif" font-size="13" font-weight="bold" lengthAdjust="spacing" textLength="165.4517" x="603.0671" y="120.1045">Buka Halaman Cetak Struk</text><polygon fill="#181818" points="197.6484,155.3125,207.6484,159.3125,197.6484,163.3125,201.6484,159.3125" style="stroke:#181818;stroke-width:1.0;"/><line style="stroke:#181818;stroke-width:1.0;" x1="23.9482" x2="203.6484" y1="159.3125" y2="159.3125"/><text fill="#000000" font-family="sans-serif" font-size="13" lengthAdjust="spacing" textLength="119.9326" x="30.9482" y="154.4561">GET /cetak-struk/{id}</text><polygon fill="#181818" points="536.0161,185.6641,546.0161,189.6641,536.0161,193.6641,540.0161,189.6641" style="stroke:#181818;stroke-width:1.0;"/><line style="stroke:#181818;stroke-width:1.0;" x1="209.6484" x2="542.0161" y1="189.6641" y2="189.6641"/><text fill="#000000" font-family="sans-serif" font-size="13" lengthAdjust="spacing" textLength="314.3677" x="216.6484" y="184.8076">find(id)-&gt;with(['details.product', 'payments', 'customer'])</text><polygon fill="#181818" points="1327.2324,216.0156,1337.2324,220.0156,1327.2324,224.0156,1331.2324,220.0156" style="stroke:#181818;stroke-width:1.0;"/><line style="stroke:#181818;stroke-width:1.0;" x1="548.0161" x2="1333.2324" y1="220.0156" y2="220.0156"/><text fill="#000000" font-family="sans-serif" font-size="13" lengthAdjust="spacing" textLength="153.8989" x="555.0161" y="215.1592">SELECT with relationships</text><polygon fill="#181818" points="559.0161,246.3672,549.0161,250.3672,559.0161,254.3672,555.0161,250.3672" style="stroke:#181818;stroke-width:1.0;"/><line style="stroke:#181818;stroke-width:1.0;stroke-dasharray:2.0,2.0;" x1="553.0161" x2="1338.2324" y1="250.3672" y2="250.3672"/><text fill="#000000" font-family="sans-serif" font-size="13" lengthAdjust="spacing" textLength="92.5044" x="565.0161" y="245.5107">transaction data</text><polygon fill="#181818" points="845.3462,276.7188,855.3462,280.7188,845.3462,284.7188,849.3462,280.7188" style="stroke:#181818;stroke-width:1.0;"/><line style="stroke:#181818;stroke-width:1.0;" x1="209.6484" x2="851.3462" y1="280.7188" y2="280.7188"/><text fill="#000000" font-family="sans-serif" font-size="13" lengthAdjust="spacing" textLength="29.5991" x="216.6484" y="275.8623">first()</text><polygon fill="#181818" points="1327.2324,307.0703,1337.2324,311.0703,1327.2324,315.0703,1331.2324,311.0703" style="stroke:#181818;stroke-width:1.0;"/><line style="stroke:#181818;stroke-width:1.0;" x1="857.3462" x2="1333.2324" y1="311.0703" y2="311.0703"/><text fill="#000000" font-family="sans-serif" font-size="13" lengthAdjust="spacing" textLength="230.4517" x="864.3462" y="306.2139">SELECT * FROM store_profiles LIMIT 1</text><polygon fill="#181818" points="868.3462,337.4219,858.3462,341.4219,868.3462,345.4219,864.3462,341.4219" style="stroke:#181818;stroke-width:1.0;"/><line style="stroke:#181818;stroke-width:1.0;stroke-dasharray:2.0,2.0;" x1="862.3462" x2="1338.2324" y1="341.4219" y2="341.4219"/><text fill="#000000" font-family="sans-serif" font-size="13" lengthAdjust="spacing" textLength="67.9199" x="874.3462" y="336.5654">store profile</text><polygon fill="#181818" points="220.6484,367.7734,210.6484,371.7734,220.6484,375.7734,216.6484,371.7734" style="stroke:#181818;stroke-width:1.0;"/><line style="stroke:#181818;stroke-width:1.0;stroke-dasharray:2.0,2.0;" x1="214.6484" x2="856.3462" y1="371.7734" y2="371.7734"/><text fill="#000000" font-family="sans-serif" font-size="13" lengthAdjust="spacing" textLength="57.8145" x="226.6484" y="366.917">store data</text><polygon fill="#181818" points="34.9482,398.125,24.9482,402.125,34.9482,406.125,30.9482,402.125" style="stroke:#181818;stroke-width:1.0;"/><line style="stroke:#181818;stroke-width:1.0;stroke-dasharray:2.0,2.0;" x1="28.9482" x2="208.6484" y1="402.125" y2="402.125"/><text fill="#000000" font-family="sans-serif" font-size="13" lengthAdjust="spacing" textLength="140.1563" x="40.9482" y="397.2686">Tampilkan preview struk</text><rect fill="#EEEEEE" height="3" style="stroke:#EEEEEE;stroke-width:1.0;" width="1377.1978" x="0" y="431.3008"/><line style="stroke:#000000;stroke-width:1.0;" x1="0" x2="1377.1978" y1="431.3008" y2="431.3008"/><line style="stroke:#000000;stroke-width:1.0;" x1="0" x2="1377.1978" y1="434.3008" y2="434.3008"/><rect fill="#EEEEEE" height="24.3516" style="stroke:#000000;stroke-width:2.0;" width="103.5845" x="636.8066" y="420.125"/><text fill="#000000" font-family="sans-serif" font-size="13" font-weight="bold" lengthAdjust="spacing" textLength="85.9727" x="642.8066" y="437.6201">Generate PDF</text><polygon fill="#181818" points="946.77,472.8281,956.77,476.8281,946.77,480.8281,950.77,476.8281" style="stroke:#181818;stroke-width:1.0;"/><line style="stroke:#181818;stroke-width:1.0;" x1="23.9482" x2="952.77" y1="476.8281" y2="476.8281"/><text fill="#000000" font-family="sans-serif" font-size="13" lengthAdjust="spacing" textLength="143.0635" x="30.9482" y="471.9717">GET /transaksi/cetak/{id}</text><polygon fill="#181818" points="559.0161,503.1797,549.0161,507.1797,559.0161,511.1797,555.0161,507.1797" style="stroke:#181818;stroke-width:1.0;"/><line style="stroke:#181818;stroke-width:1.0;" x1="553.0161" x2="957.77" y1="507.1797" y2="507.1797"/><text fill="#000000" font-family="sans-serif" font-size="13" lengthAdjust="spacing" textLength="94.269" x="565.0161" y="502.3232">find(id)-&gt;with(...)</text><polygon fill="#181818" points="946.77,533.5313,956.77,537.5313,946.77,541.5313,950.77,537.5313" style="stroke:#181818;stroke-width:1.0;"/><line style="stroke:#181818;stroke-width:1.0;stroke-dasharray:2.0,2.0;" x1="548.0161" x2="952.77" y1="537.5313" y2="537.5313"/><text fill="#000000" font-family="sans-serif" font-size="13" lengthAdjust="spacing" textLength="115.9844" x="555.0161" y="532.6748">transaction + details</text><polygon fill="#181818" points="868.3462,563.8828,858.3462,567.8828,868.3462,571.8828,864.3462,567.8828" style="stroke:#181818;stroke-width:1.0;"/><line style="stroke:#181818;stroke-width:1.0;" x1="862.3462" x2="957.77" y1="567.8828" y2="567.8828"/><text fill="#000000" font-family="sans-serif" font-size="13" lengthAdjust="spacing" textLength="29.5991" x="874.3462" y="563.0264">first()</text><polygon fill="#181818" points="946.77,594.2344,956.77,598.2344,946.77,602.2344,950.77,598.2344" style="stroke:#181818;stroke-width:1.0;"/><line style="stroke:#181818;stroke-width:1.0;stroke-dasharray:2.0,2.0;" x1="857.3462" x2="952.77" y1="598.2344" y2="598.2344"/><text fill="#000000" font-family="sans-serif" font-size="13" lengthAdjust="spacing" textLength="67.9199" x="864.3462" y="593.3779">store profile</text><line style="stroke:#181818;stroke-width:1.0;" x1="958.77" x2="1000.77" y1="690.4922" y2="690.4922"/><line style="stroke:#181818;stroke-width:1.0;" x1="1000.77" x2="1000.77" y1="690.4922" y2="703.4922"/><line style="stroke:#181818;stroke-width:1.0;" x1="959.77" x2="1000.77" y1="703.4922" y2="703.4922"/><polygon fill="#181818" points="969.77,699.4922,959.77,703.4922,969.77,707.4922,965.77,703.4922" style="stroke:#181818;stroke-width:1.0;"/><text fill="#000000" font-family="sans-serif" font-size="13" lengthAdjust="spacing" textLength="187.8652" x="965.77" y="685.6357">Generate PDF dengan DomPDF</text><path d="M1164.8652,611.2344 L1164.8652,768.2344 L1312.8652,768.2344 L1312.8652,621.2344 L1302.8652,611.2344 L1164.8652,611.2344 " fill="#FEFFDD" style="stroke:#181818;stroke-width:0.5;"/><path d="M1302.8652,611.2344 L1302.8652,621.2344 L1312.8652,621.2344 L1302.8652,611.2344 " fill="#FEFFDD" style="stroke:#181818;stroke-width:0.5;"/><text fill="#000000" font-family="sans-serif" font-size="13" lengthAdjust="spacing" textLength="62.8545" x="1170.8652" y="629.7295">Data struk:</text><text fill="#000000" font-family="sans-serif" font-size="13" lengthAdjust="spacing" textLength="113.458" x="1170.8652" y="646.0811">- Logo &amp; nama toko</text><text fill="#000000" font-family="sans-serif" font-size="13" lengthAdjust="spacing" textLength="76.5845" x="1170.8652" y="662.4326">- Alamat toko</text><text fill="#000000" font-family="sans-serif" font-size="13" lengthAdjust="spacing" textLength="72.9727" x="1170.8652" y="678.7842">- No. Invoice</text><text fill="#000000" font-family="sans-serif" font-size="13" lengthAdjust="spacing" textLength="54.9199" x="1170.8652" y="695.1357">- Tanggal</text><text fill="#000000" font-family="sans-serif" font-size="13" lengthAdjust="spacing" textLength="86.7153" x="1170.8652" y="711.4873">- Item pesanan</text><text fill="#000000" font-family="sans-serif" font-size="13" lengthAdjust="spacing" textLength="36.8418" x="1170.8652" y="727.8389">- Total</text><text fill="#000000" font-family="sans-serif" font-size="13" lengthAdjust="spacing" textLength="127.1816" x="1170.8652" y="744.1904">- Metode pembayaran</text><text fill="#000000" font-family="sans-serif" font-size="13" lengthAdjust="spacing" textLength="37.5591" x="1170.8652" y="760.542">- Kasir</text><polygon fill="#181818" points="34.9482,791.75,24.9482,795.75,34.9482,799.75,30.9482,795.75" style="stroke:#181818;stroke-width:1.0;"/><line style="stroke:#181818;stroke-width:1.0;stroke-dasharray:2.0,2.0;" x1="28.9482" x2="957.77" y1="795.75" y2="795.75"/><text fill="#000000" font-family="sans-serif" font-size="13" lengthAdjust="spacing" textLength="146.6753" x="40.9482" y="790.8936">Download/tampilkan PDF</text><rect fill="#EEEEEE" height="3" style="stroke:#EEEEEE;stroke-width:1.0;" width="1377.1978" x="0" y="824.9258"/><line style="stroke:#000000;stroke-width:1.0;" x1="0" x2="1377.1978" y1="824.9258" y2="824.9258"/><line style="stroke:#000000;stroke-width:1.0;" x1="0" x2="1377.1978" y1="827.9258" y2="827.9258"/><rect fill="#EEEEEE" height="24.3516" style="stroke:#000000;stroke-width:2.0;" width="178.6836" x="599.2571" y="813.75"/><text fill="#000000" font-family="sans-serif" font-size="13" font-weight="bold" lengthAdjust="spacing" textLength="161.0718" x="605.2571" y="831.2451">Kirim Notifikasi (opsional)</text><polygon fill="#181818" points="197.6484,866.4531,207.6484,870.4531,197.6484,874.4531,201.6484,870.4531" style="stroke:#181818;stroke-width:1.0;"/><line style="stroke:#181818;stroke-width:1.0;" x1="23.9482" x2="203.6484" y1="870.4531" y2="870.4531"/><text fill="#000000" font-family="sans-serif" font-size="13" lengthAdjust="spacing" textLength="161.7002" x="30.9482" y="865.5967">Klik "Tandai Sudah Dicetak"</text><polygon fill="#181818" points="1148.6353,896.8047,1158.6353,900.8047,1148.6353,904.8047,1152.6353,900.8047" style="stroke:#181818;stroke-width:1.0;"/><line style="stroke:#181818;stroke-width:1.0;" x1="209.6484" x2="1154.6353" y1="900.8047" y2="900.8047"/><text fill="#000000" font-family="sans-serif" font-size="13" lengthAdjust="spacing" textLength="278.1924" x="216.6484" y="895.9482">receiptPrinted(receipt_number, invoice_number)</text><polygon fill="#181818" points="1327.2324,927.1563,1337.2324,931.1563,1327.2324,935.1563,1331.2324,931.1563" style="stroke:#181818;stroke-width:1.0;"/><line style="stroke:#181818;stroke-width:1.0;" x1="1160.6353" x2="1333.2324" y1="931.1563" y2="931.1563"/><text fill="#000000" font-family="sans-serif" font-size="13" lengthAdjust="spacing" textLength="154.5972" x="1167.6353" y="926.2998">INSERT INTO notifications</text><polygon fill="#181818" points="34.9482,957.5078,24.9482,961.5078,34.9482,965.5078,30.9482,961.5078" style="stroke:#181818;stroke-width:1.0;"/><line style="stroke:#181818;stroke-width:1.0;stroke-dasharray:2.0,2.0;" x1="28.9482" x2="208.6484" y1="961.5078" y2="961.5078"/><text fill="#000000" font-family="sans-serif" font-size="13" lengthAdjust="spacing" textLength="124.2808" x="40.9482" y="956.6514">Struk berhasil dicetak</text><!--SRC=[XLHDRzim3BtxLn0zBCdMfDWrG0eiTTe5JTeWyMqT2jPI4iAoP4XAicBOVvy-xDOEEknaaNoaoFTeOMwLXdiqf9CAjQMSAfGMBjOyvrHPME6EFyd-WexyH9eFBW0DrC5kHgPH6imjAVaabufn4R0jzp_nART8efFrA_gwAIjyBRcqRM3jwk8sRYY-qcfBWhV1mNzMacrlbBHQ2S5rh9ZUTY4FojAMSlITRhW-Kiu3CFWJXXPVq718cuCBfTCacKnWUYWGlgF04YNSk84Aru8-532P985p65utP8xXRfR1LUvHG-DHLx-9_KcIHWa7RL4sXYr9rYSs65wVoExxFteiC6P6bLRiaDlU9VIgo8xnv_nWh2gvxlqS9Ar2lcuw7SDcjfZTPE1hWUOYJ6lsL9aadSBm_7BRAk0PwBGPQFODQcFxWoIOPzTyXjlrunAC3prNKIa3Y_bodi7NviQwJW113MggjOcBWBCs721GF8OCouf4uIIeD3yIFq6WDoXqnoNNQBbNlQEAisj5ugY5eQXDhOh7_qUHqMXqndHJjytU5wXrUwlvCNrDRfUD9YUssnw6SRbp8wUgz0ijbNDhskrj0c5J8mTZPmrXeNOAFe5qQmfM5Ieul_cjjU_sWnh1N1wLs_vWPoXtEnJXFBUyX8eRb2XZKDawjEJM_NukMBxWA-ew7XySBXdunkeftXLBrKaAXUpAladdX_22tPEcClvwL3Wqz5Lb78ye1X__LVU22lVOe6H8i3amt4DAGScBziw6YcEt-S6pqYGjP_tQV9Q7yeNhIw18G6qFaf3LhFRyOJDRP-wJFVgntjuCy-5MneV0LTaxMm2BFIL_0G00]--></g></svg>