<svg xmlns="http://www.w3.org/2000/svg" xmlns:xlink="http://www.w3.org/1999/xlink" contentStyleType="text/css" height="2040px" preserveAspectRatio="none" style="width:1138px;height:2040px;background:#FFFFFF;" version="1.1" viewBox="0 0 1138 2040" width="1138px" zoomAndPan="magnify"><title>Sequence Diagram</title><defs/><g><text fill="#000000" font-family="sans-serif" font-size="14" font-weight="bold" lengthAdjust="spacing" textLength="126.0479" x="502.4517" y="29.5332">Sequence Diagram</text><text fill="#000000" font-family="sans-serif" font-size="14" font-weight="bold" lengthAdjust="spacing" textLength="187.5234" x="471.7139" y="47.1426">Proses Pembayaran (UC-10)</text><rect fill="none" height="347.8672" style="stroke:#000000;stroke-width:1.5;" width="1018.6963" x="10" y="465.3438"/><rect fill="none" height="159.5938" style="stroke:#000000;stroke-width:1.5;" width="437.8672" x="142.3257" y="975.6172"/><rect fill="none" height="48.7031" style="stroke:#000000;stroke-width:1.5;" width="417.8672" x="152.3257" y="1000.9688"/><rect fill="none" height="48.7031" style="stroke:#000000;stroke-width:1.5;" width="417.8672" x="152.3257" y="1079.5078"/><rect fill="none" height="242.4844" style="stroke:#000000;stroke-width:1.5;" width="669.6367" x="381.4351" y="1179.5625"/><rect fill="none" height="94.8906" style="stroke:#000000;stroke-width:1.5;" width="354.3657" x="391.4351" y="1273.9688"/><rect fill="none" height="94.8906" style="stroke:#000000;stroke-width:1.5;" width="730.5161" x="391.4351" y="1466.3984"/><rect fill="none" height="261.1641" style="stroke:#000000;stroke-width:1.5;" width="815.0488" x="10" y="1680.3438"/><line style="stroke:#181818;stroke-width:0.5;stroke-dasharray:5.0,5.0;" x1="38" x2="38" y1="138.8281" y2="1958.5078"/><line style="stroke:#181818;stroke-width:0.5;stroke-dasharray:5.0,5.0;" x1="227.3257" x2="227.3257" y1="138.8281" y2="1958.5078"/><line style="stroke:#181818;stroke-width:0.5;stroke-dasharray:5.0,5.0;" x1="480.4351" x2="480.4351" y1="138.8281" y2="1958.5078"/><line style="stroke:#181818;stroke-width:0.5;stroke-dasharray:5.0,5.0;" x1="691.6563" x2="691.6563" y1="138.8281" y2="1958.5078"/><line style="stroke:#181818;stroke-width:0.5;stroke-dasharray:5.0,5.0;" x1="779.8008" x2="779.8008" y1="138.8281" y2="1958.5078"/><line style="stroke:#181818;stroke-width:0.5;stroke-dasharray:5.0,5.0;" x1="856.0488" x2="856.0488" y1="138.8281" y2="1958.5078"/><line style="stroke:#181818;stroke-width:0.5;stroke-dasharray:5.0,5.0;" x1="957.2969" x2="957.2969" y1="138.8281" y2="1958.5078"/><line style="stroke:#181818;stroke-width:0.5;stroke-dasharray:5.0,5.0;" x1="1069.6963" x2="1069.6963" y1="138.8281" y2="1958.5078"/><text fill="#000000" font-family="sans-serif" font-size="14" lengthAdjust="spacing" textLength="31.8965" x="20" y="135.752">Kasir</text><ellipse cx="38.9482" cy="69.7188" fill="#E2E2F0" rx="8" ry="8" style="stroke:#181818;stroke-width:0.5;"/><path d="M38.9482,77.7188 L38.9482,104.7188 M25.9482,85.7188 L51.9482,85.7188 M38.9482,104.7188 L25.9482,119.7188 M38.9482,104.7188 L51.9482,119.7188 " fill="none" style="stroke:#181818;stroke-width:0.5;"/><text fill="#000000" font-family="sans-serif" font-size="14" lengthAdjust="spacing" textLength="31.8965" x="20" y="1972.041">Kasir</text><ellipse cx="38.9482" cy="1983.6172" fill="#E2E2F0" rx="8" ry="8" style="stroke:#181818;stroke-width:0.5;"/><path d="M38.9482,1991.6172 L38.9482,2018.6172 M25.9482,1999.6172 L51.9482,1999.6172 M38.9482,2018.6172 L25.9482,2033.6172 M38.9482,2018.6172 L51.9482,2033.6172 " fill="none" style="stroke:#181818;stroke-width:0.5;"/><rect fill="#E2E2F0" height="31.6094" rx="2.5" ry="2.5" style="stroke:#181818;stroke-width:0.5;" width="130.7646" x="162.3257" y="106.2188"/><text fill="#000000" font-family="sans-serif" font-size="14" lengthAdjust="spacing" textLength="116.7646" x="169.3257" y="127.752">BuatPesananPage</text><rect fill="#E2E2F0" height="31.6094" rx="2.5" ry="2.5" style="stroke:#181818;stroke-width:0.5;" width="130.7646" x="162.3257" y="1957.5078"/><text fill="#000000" font-family="sans-serif" font-size="14" lengthAdjust="spacing" textLength="116.7646" x="169.3257" y="1979.041">BuatPesananPage</text><rect fill="#E2E2F0" height="31.6094" rx="2.5" ry="2.5" style="stroke:#181818;stroke-width:0.5;" width="158.7578" x="401.4351" y="106.2188"/><text fill="#000000" font-family="sans-serif" font-size="14" lengthAdjust="spacing" textLength="144.7578" x="408.4351" y="127.752">BuatPesananController</text><rect fill="#E2E2F0" height="31.6094" rx="2.5" ry="2.5" style="stroke:#181818;stroke-width:0.5;" width="158.7578" x="401.4351" y="1957.5078"/><text fill="#000000" font-family="sans-serif" font-size="14" lengthAdjust="spacing" textLength="144.7578" x="408.4351" y="1979.041">BuatPesananController</text><rect fill="#E2E2F0" height="31.6094" rx="2.5" ry="2.5" style="stroke:#181818;stroke-width:0.5;" width="87.1445" x="648.6563" y="106.2188"/><text fill="#000000" font-family="sans-serif" font-size="14" lengthAdjust="spacing" textLength="73.1445" x="655.6563" y="127.752">Transaction</text><rect fill="#E2E2F0" height="31.6094" rx="2.5" ry="2.5" style="stroke:#181818;stroke-width:0.5;" width="87.1445" x="648.6563" y="1957.5078"/><text fill="#000000" font-family="sans-serif" font-size="14" lengthAdjust="spacing" textLength="73.1445" x="655.6563" y="1979.041">Transaction</text><rect fill="#E2E2F0" height="31.6094" rx="2.5" ry="2.5" style="stroke:#181818;stroke-width:0.5;" width="69.248" x="745.8008" y="106.2188"/><text fill="#000000" font-family="sans-serif" font-size="14" lengthAdjust="spacing" textLength="55.248" x="752.8008" y="127.752">Payment</text><rect fill="#E2E2F0" height="31.6094" rx="2.5" ry="2.5" style="stroke:#181818;stroke-width:0.5;" width="69.248" x="745.8008" y="1957.5078"/><text fill="#000000" font-family="sans-serif" font-size="14" lengthAdjust="spacing" textLength="55.248" x="752.8008" y="1979.041">Payment</text><rect fill="#E2E2F0" height="31.6094" rx="2.5" ry="2.5" style="stroke:#181818;stroke-width:0.5;" width="62.248" x="825.0488" y="106.2188"/><text fill="#000000" font-family="sans-serif" font-size="14" lengthAdjust="spacing" textLength="48.248" x="832.0488" y="127.752">Product</text><rect fill="#E2E2F0" height="31.6094" rx="2.5" ry="2.5" style="stroke:#181818;stroke-width:0.5;" width="62.248" x="825.0488" y="1957.5078"/><text fill="#000000" font-family="sans-serif" font-size="14" lengthAdjust="spacing" textLength="48.248" x="832.0488" y="1979.041">Product</text><rect fill="#E2E2F0" height="31.6094" rx="2.5" ry="2.5" style="stroke:#181818;stroke-width:0.5;" width="121.3994" x="897.2969" y="106.2188"/><text fill="#000000" font-family="sans-serif" font-size="14" lengthAdjust="spacing" textLength="107.3994" x="904.2969" y="127.752">PaymentChannel</text><rect fill="#E2E2F0" height="31.6094" rx="2.5" ry="2.5" style="stroke:#181818;stroke-width:0.5;" width="121.3994" x="897.2969" y="1957.5078"/><text fill="#000000" font-family="sans-serif" font-size="14" lengthAdjust="spacing" textLength="107.3994" x="904.2969" y="1979.041">PaymentChannel</text><rect fill="#E2E2F0" height="31.6094" rx="2.5" ry="2.5" style="stroke:#181818;stroke-width:0.5;" width="83.2549" x="1028.6963" y="106.2188"/><text fill="#000000" font-family="sans-serif" font-size="14" lengthAdjust="spacing" textLength="69.2549" x="1035.6963" y="127.752">Notification</text><rect fill="#E2E2F0" height="31.6094" rx="2.5" ry="2.5" style="stroke:#181818;stroke-width:0.5;" width="83.2549" x="1028.6963" y="1957.5078"/><text fill="#000000" font-family="sans-serif" font-size="14" lengthAdjust="spacing" textLength="69.2549" x="1035.6963" y="1979.041">Notification</text><rect fill="#EEEEEE" height="3" style="stroke:#EEEEEE;stroke-width:1.0;" width="1131.9512" x="0" y="170.0039"/><line style="stroke:#000000;stroke-width:1.0;" x1="0" x2="1131.9512" y1="170.0039" y2="170.0039"/><line style="stroke:#000000;stroke-width:1.0;" x1="0" x2="1131.9512" y1="173.0039" y2="173.0039"/><rect fill="#EEEEEE" height="24.3516" style="stroke:#000000;stroke-width:2.0;" width="161.3926" x="485.2793" y="158.8281"/><text fill="#000000" font-family="sans-serif" font-size="13" font-weight="bold" lengthAdjust="spacing" textLength="143.7808" x="491.2793" y="176.3232">Fase 1: Load Transaksi</text><polygon fill="#181818" points="215.708,211.5313,225.708,215.5313,215.708,219.5313,219.708,215.5313" style="stroke:#181818;stroke-width:1.0;"/><line style="stroke:#181818;stroke-width:1.0;" x1="38.9482" x2="221.708" y1="215.5313" y2="215.5313"/><text fill="#000000" font-family="sans-serif" font-size="13" lengthAdjust="spacing" textLength="164.7598" x="50.9482" y="210.6748">Akses halaman pembayaran</text><polygon fill="#181818" points="468.814,241.8828,478.814,245.8828,468.814,249.8828,472.814,245.8828" style="stroke:#181818;stroke-width:1.0;"/><line style="stroke:#181818;stroke-width:1.0;" x1="227.708" x2="474.814" y1="245.8828" y2="245.8828"/><text fill="#000000" font-family="sans-serif" font-size="13" lengthAdjust="spacing" textLength="125.728" x="291.397" y="241.0264">mount(transaction_id)</text><polygon fill="#181818" points="680.2285,272.2344,690.2285,276.2344,680.2285,280.2344,684.2285,276.2344" style="stroke:#181818;stroke-width:1.0;"/><line style="stroke:#181818;stroke-width:1.0;" x1="480.814" x2="686.2285" y1="276.2344" y2="276.2344"/><text fill="#000000" font-family="sans-serif" font-size="13" lengthAdjust="spacing" textLength="110.5571" x="531.2427" y="271.3779">find(transaction_id)</text><polygon fill="#181818" points="238.708,321.9375,228.708,325.9375,238.708,329.9375,234.708,325.9375" style="stroke:#181818;stroke-width:1.0;"/><line style="stroke:#181818;stroke-width:1.0;stroke-dasharray:2.0,2.0;" x1="232.708" x2="479.814" y1="325.9375" y2="325.9375"/><text fill="#000000" font-family="sans-serif" font-size="13" lengthAdjust="spacing" textLength="156.7808" x="275.8706" y="321.0811">displayTransactionDetails()</text><path d="M485,289.2344 L485,348.2344 L688,348.2344 L688,299.2344 L678,289.2344 L485,289.2344 " fill="#FEFFDD" style="stroke:#181818;stroke-width:0.5;"/><path d="M678,289.2344 L678,299.2344 L688,299.2344 L678,289.2344 " fill="#FEFFDD" style="stroke:#181818;stroke-width:0.5;"/><text fill="#000000" font-family="sans-serif" font-size="13" lengthAdjust="spacing" textLength="154.6035" x="491" y="307.7295">Transaction harus memiliki</text><text fill="#000000" font-family="sans-serif" font-size="13" lengthAdjust="spacing" textLength="182.019" x="491" y="324.0811">status 'Menunggu Pembayaran'</text><text fill="#000000" font-family="sans-serif" font-size="13" lengthAdjust="spacing" textLength="110.5444" x="491" y="340.4326">(dibuat dari UC-09)</text><rect fill="#EEEEEE" height="3" style="stroke:#EEEEEE;stroke-width:1.0;" width="1131.9512" x="0" y="374.4648"/><line style="stroke:#000000;stroke-width:1.0;" x1="0" x2="1131.9512" y1="374.4648" y2="374.4648"/><line style="stroke:#000000;stroke-width:1.0;" x1="0" x2="1131.9512" y1="377.4648" y2="377.4648"/><rect fill="#EEEEEE" height="24.3516" style="stroke:#000000;stroke-width:2.0;" width="223.5171" x="454.217" y="363.2891"/><text fill="#000000" font-family="sans-serif" font-size="13" font-weight="bold" lengthAdjust="spacing" textLength="205.9053" x="460.217" y="380.7842">Fase 2: Pilih Metode Pembayaran</text><polygon fill="#181818" points="215.708,415.9922,225.708,419.9922,215.708,423.9922,219.708,419.9922" style="stroke:#181818;stroke-width:1.0;"/><line style="stroke:#181818;stroke-width:1.0;" x1="38.9482" x2="221.708" y1="419.9922" y2="419.9922"/><text fill="#000000" font-family="sans-serif" font-size="13" lengthAdjust="spacing" textLength="130.0762" x="68.29" y="415.1357">Pilih grup pembayaran</text><polygon fill="#181818" points="468.814,446.3438,478.814,450.3438,468.814,454.3438,472.814,450.3438" style="stroke:#181818;stroke-width:1.0;"/><line style="stroke:#181818;stroke-width:1.0;" x1="227.708" x2="474.814" y1="450.3438" y2="450.3438"/><text fill="#000000" font-family="sans-serif" font-size="13" lengthAdjust="spacing" textLength="176.3315" x="266.0952" y="445.4873">updatedPaymentGroup(group)</text><path d="M10,465.3438 L70.1709,465.3438 L70.1709,473.6953 L60.1709,483.6953 L10,483.6953 L10,465.3438 " fill="#EEEEEE" style="stroke:#000000;stroke-width:1.5;"/><rect fill="none" height="347.8672" style="stroke:#000000;stroke-width:1.5;" width="1018.6963" x="10" y="465.3438"/><text fill="#000000" font-family="sans-serif" font-size="13" font-weight="bold" lengthAdjust="spacing" textLength="15.1709" x="25" y="479.8389">alt</text><text fill="#000000" font-family="sans-serif" font-size="11" font-weight="bold" lengthAdjust="spacing" textLength="61.7031" x="85.1709" y="478.7627">[Non-Tunai]</text><line style="stroke:#181818;stroke-width:1.0;" x1="480.814" x2="522.814" y1="506.0469" y2="506.0469"/><line style="stroke:#181818;stroke-width:1.0;" x1="522.814" x2="522.814" y1="506.0469" y2="519.0469"/><line style="stroke:#181818;stroke-width:1.0;" x1="481.814" x2="522.814" y1="519.0469" y2="519.0469"/><polygon fill="#181818" points="491.814,515.0469,481.814,519.0469,491.814,523.0469,487.814,519.0469" style="stroke:#181818;stroke-width:1.0;"/><text fill="#000000" font-family="sans-serif" font-size="13" lengthAdjust="spacing" textLength="119.939" x="487.814" y="501.1904">loadPaymentTypes()</text><polygon fill="#181818" points="238.708,545.3984,228.708,549.3984,238.708,553.3984,234.708,549.3984" style="stroke:#181818;stroke-width:1.0;"/><line style="stroke:#181818;stroke-width:1.0;stroke-dasharray:2.0,2.0;" x1="232.708" x2="479.814" y1="549.3984" y2="549.3984"/><text fill="#000000" font-family="sans-serif" font-size="13" lengthAdjust="spacing" textLength="135.8271" x="286.3474" y="544.542">displayPaymentTypes()</text><polygon fill="#181818" points="215.708,575.75,225.708,579.75,215.708,583.75,219.708,579.75" style="stroke:#181818;stroke-width:1.0;"/><line style="stroke:#181818;stroke-width:1.0;" x1="38.9482" x2="221.708" y1="579.75" y2="579.75"/><text fill="#000000" font-family="sans-serif" font-size="13" lengthAdjust="spacing" textLength="125.0171" x="70.8196" y="574.8936">Pilih tipe pembayaran</text><polygon fill="#181818" points="468.814,606.1016,478.814,610.1016,468.814,614.1016,472.814,610.1016" style="stroke:#181818;stroke-width:1.0;"/><line style="stroke:#181818;stroke-width:1.0;" x1="227.708" x2="474.814" y1="610.1016" y2="610.1016"/><text fill="#000000" font-family="sans-serif" font-size="13" lengthAdjust="spacing" textLength="174.8843" x="266.8188" y="605.2451">updatedPaymentMethod(type)</text><line style="stroke:#181818;stroke-width:1.0;" x1="480.814" x2="522.814" y1="640.4531" y2="640.4531"/><line style="stroke:#181818;stroke-width:1.0;" x1="522.814" x2="522.814" y1="640.4531" y2="653.4531"/><line style="stroke:#181818;stroke-width:1.0;" x1="481.814" x2="522.814" y1="653.4531" y2="653.4531"/><polygon fill="#181818" points="491.814,649.4531,481.814,653.4531,491.814,657.4531,487.814,653.4531" style="stroke:#181818;stroke-width:1.0;"/><text fill="#000000" font-family="sans-serif" font-size="13" lengthAdjust="spacing" textLength="139.4644" x="487.814" y="635.5967">loadPaymentChannels()</text><polygon fill="#181818" points="238.708,679.8047,228.708,683.8047,238.708,687.8047,234.708,683.8047" style="stroke:#181818;stroke-width:1.0;"/><line style="stroke:#181818;stroke-width:1.0;stroke-dasharray:2.0,2.0;" x1="232.708" x2="479.814" y1="683.8047" y2="683.8047"/><text fill="#000000" font-family="sans-serif" font-size="13" lengthAdjust="spacing" textLength="155.3525" x="276.5847" y="678.9482">displayPaymentChannels()</text><polygon fill="#181818" points="215.708,710.1563,225.708,714.1563,215.708,718.1563,219.708,714.1563" style="stroke:#181818;stroke-width:1.0;"/><line style="stroke:#181818;stroke-width:1.0;" x1="38.9482" x2="221.708" y1="714.1563" y2="714.1563"/><text fill="#000000" font-family="sans-serif" font-size="13" lengthAdjust="spacing" textLength="73.7153" x="96.4705" y="709.2998">Pilih channel</text><polygon fill="#181818" points="468.814,740.5078,478.814,744.5078,468.814,748.5078,472.814,744.5078" style="stroke:#181818;stroke-width:1.0;"/><line style="stroke:#181818;stroke-width:1.0;" x1="227.708" x2="474.814" y1="744.5078" y2="744.5078"/><text fill="#000000" font-family="sans-serif" font-size="13" lengthAdjust="spacing" textLength="229.106" x="239.708" y="739.6514">updatedPaymentChannelId(channel_id)</text><polygon fill="#181818" points="945.9966,770.8594,955.9966,774.8594,945.9966,778.8594,949.9966,774.8594" style="stroke:#181818;stroke-width:1.0;"/><line style="stroke:#181818;stroke-width:1.0;" x1="480.814" x2="951.9966" y1="774.8594" y2="774.8594"/><text fill="#000000" font-family="sans-serif" font-size="13" lengthAdjust="spacing" textLength="92.5044" x="673.1531" y="770.0029">find(channel_id)</text><polygon fill="#181818" points="238.708,801.2109,228.708,805.2109,238.708,809.2109,234.708,805.2109" style="stroke:#181818;stroke-width:1.0;"/><line style="stroke:#181818;stroke-width:1.0;stroke-dasharray:2.0,2.0;" x1="232.708" x2="479.814" y1="805.2109" y2="805.2109"/><text fill="#000000" font-family="sans-serif" font-size="13" lengthAdjust="spacing" textLength="118.4917" x="295.0151" y="800.3545">displayBankDetails()</text><rect fill="#EEEEEE" height="3" style="stroke:#EEEEEE;stroke-width:1.0;" width="1131.9512" x="0" y="841.3867"/><line style="stroke:#000000;stroke-width:1.0;" x1="0" x2="1131.9512" y1="841.3867" y2="841.3867"/><line style="stroke:#000000;stroke-width:1.0;" x1="0" x2="1131.9512" y1="844.3867" y2="844.3867"/><rect fill="#EEEEEE" height="24.3516" style="stroke:#000000;stroke-width:2.0;" width="190.3188" x="470.8162" y="830.2109"/><text fill="#000000" font-family="sans-serif" font-size="13" font-weight="bold" lengthAdjust="spacing" textLength="172.707" x="476.8162" y="847.7061">Fase 3: Proses Pembayaran</text><polygon fill="#181818" points="215.708,882.9141,225.708,886.9141,215.708,890.9141,219.708,886.9141" style="stroke:#181818;stroke-width:1.0;"/><line style="stroke:#181818;stroke-width:1.0;" x1="38.9482" x2="221.708" y1="886.9141" y2="886.9141"/><text fill="#000000" font-family="sans-serif" font-size="13" lengthAdjust="spacing" textLength="156.8252" x="54.9155" y="882.0576">Input jumlah &amp; upload bukti</text><polygon fill="#181818" points="468.814,913.2656,478.814,917.2656,468.814,921.2656,472.814,917.2656" style="stroke:#181818;stroke-width:1.0;"/><line style="stroke:#181818;stroke-width:1.0;" x1="227.708" x2="474.814" y1="917.2656" y2="917.2656"/><text fill="#000000" font-family="sans-serif" font-size="13" lengthAdjust="spacing" textLength="115.6099" x="296.4561" y="912.4092">pay(amount, image)</text><line style="stroke:#181818;stroke-width:1.0;" x1="480.814" x2="522.814" y1="947.6172" y2="947.6172"/><line style="stroke:#181818;stroke-width:1.0;" x1="522.814" x2="522.814" y1="947.6172" y2="960.6172"/><line style="stroke:#181818;stroke-width:1.0;" x1="481.814" x2="522.814" y1="960.6172" y2="960.6172"/><polygon fill="#181818" points="491.814,956.6172,481.814,960.6172,491.814,964.6172,487.814,960.6172" style="stroke:#181818;stroke-width:1.0;"/><text fill="#000000" font-family="sans-serif" font-size="13" lengthAdjust="spacing" textLength="53.4663" x="487.814" y="942.7607">validate()</text><path d="M142.3257,975.6172 L202.4966,975.6172 L202.4966,983.9688 L192.4966,993.9688 L142.3257,993.9688 L142.3257,975.6172 " fill="#EEEEEE" style="stroke:#000000;stroke-width:1.5;"/><rect fill="none" height="159.5938" style="stroke:#000000;stroke-width:1.5;" width="437.8672" x="142.3257" y="975.6172"/><text fill="#000000" font-family="sans-serif" font-size="13" font-weight="bold" lengthAdjust="spacing" textLength="15.1709" x="157.3257" y="990.1123">alt</text><text fill="#000000" font-family="sans-serif" font-size="11" font-weight="bold" lengthAdjust="spacing" textLength="105.4238" x="217.4966" y="989.0361">[Method = Siap Beli]</text><path d="M152.3257,1000.9688 L212.4966,1000.9688 L212.4966,1009.3203 L202.4966,1019.3203 L152.3257,1019.3203 L152.3257,1000.9688 " fill="#EEEEEE" style="stroke:#000000;stroke-width:1.5;"/><rect fill="none" height="48.7031" style="stroke:#000000;stroke-width:1.5;" width="417.8672" x="152.3257" y="1000.9688"/><text fill="#000000" font-family="sans-serif" font-size="13" font-weight="bold" lengthAdjust="spacing" textLength="15.1709" x="167.3257" y="1015.4639">alt</text><text fill="#000000" font-family="sans-serif" font-size="11" font-weight="bold" lengthAdjust="spacing" textLength="111.563" x="227.4966" y="1014.3877">[Pembayaran &lt; Total]</text><polygon fill="#181818" points="238.708,1037.6719,228.708,1041.6719,238.708,1045.6719,234.708,1041.6719" style="stroke:#181818;stroke-width:1.0;"/><line style="stroke:#181818;stroke-width:1.0;stroke-dasharray:2.0,2.0;" x1="232.708" x2="479.814" y1="1041.6719" y2="1041.6719"/><text fill="#000000" font-family="sans-serif" font-size="13" lengthAdjust="spacing" textLength="183.3521" x="262.585" y="1036.8154">showError("Harus lunas 100%")</text><line style="stroke:#000000;stroke-width:1.0;stroke-dasharray:2.0,2.0;" x1="142.3257" x2="580.1929" y1="1057.6719" y2="1057.6719"/><text fill="#000000" font-family="sans-serif" font-size="11" font-weight="bold" lengthAdjust="spacing" textLength="133.5361" x="147.3257" y="1069.0908">[Method = Reguler/Kotak]</text><path d="M152.3257,1079.5078 L212.4966,1079.5078 L212.4966,1087.8594 L202.4966,1097.8594 L152.3257,1097.8594 L152.3257,1079.5078 " fill="#EEEEEE" style="stroke:#000000;stroke-width:1.5;"/><rect fill="none" height="48.7031" style="stroke:#000000;stroke-width:1.5;" width="417.8672" x="152.3257" y="1079.5078"/><text fill="#000000" font-family="sans-serif" font-size="13" font-weight="bold" lengthAdjust="spacing" textLength="15.1709" x="167.3257" y="1094.0029">alt</text><text fill="#000000" font-family="sans-serif" font-size="11" font-weight="bold" lengthAdjust="spacing" textLength="136.6353" x="227.4966" y="1092.9268">[Pembayaran &lt; 50% Total]</text><polygon fill="#181818" points="238.708,1116.2109,228.708,1120.2109,238.708,1124.2109,234.708,1120.2109" style="stroke:#181818;stroke-width:1.0;"/><line style="stroke:#181818;stroke-width:1.0;stroke-dasharray:2.0,2.0;" x1="232.708" x2="479.814" y1="1120.2109" y2="1120.2109"/><text fill="#000000" font-family="sans-serif" font-size="13" lengthAdjust="spacing" textLength="181.1494" x="263.6863" y="1115.3545">showError("Minimum DP 50%")</text><polygon fill="#181818" points="768.4248,1160.5625,778.4248,1164.5625,768.4248,1168.5625,772.4248,1164.5625" style="stroke:#181818;stroke-width:1.0;"/><line style="stroke:#181818;stroke-width:1.0;" x1="480.814" x2="774.4248" y1="1164.5625" y2="1164.5625"/><text fill="#000000" font-family="sans-serif" font-size="13" lengthAdjust="spacing" textLength="269.5278" x="495.8555" y="1159.7061">create(transaction_id, amount, method, image)</text><path d="M381.4351,1179.5625 L441.606,1179.5625 L441.606,1187.9141 L431.606,1197.9141 L381.4351,1197.9141 L381.4351,1179.5625 " fill="#EEEEEE" style="stroke:#000000;stroke-width:1.5;"/><rect fill="none" height="242.4844" style="stroke:#000000;stroke-width:1.5;" width="669.6367" x="381.4351" y="1179.5625"/><text fill="#000000" font-family="sans-serif" font-size="13" font-weight="bold" lengthAdjust="spacing" textLength="15.1709" x="396.4351" y="1194.0576">alt</text><text fill="#000000" font-family="sans-serif" font-size="11" font-weight="bold" lengthAdjust="spacing" textLength="105.4238" x="456.606" y="1192.9814">[Method = Siap Beli]</text><polygon fill="#181818" points="844.1729,1235.6172,854.1729,1239.6172,844.1729,1243.6172,848.1729,1239.6172" style="stroke:#181818;stroke-width:1.0;"/><line style="stroke:#181818;stroke-width:1.0;" x1="480.814" x2="850.1729" y1="1239.6172" y2="1239.6172"/><text fill="#000000" font-family="sans-serif" font-size="13" lengthAdjust="spacing" textLength="80.9199" x="628.0334" y="1234.7607">reduceStock()</text><path d="M861,1202.9141 L861,1261.9141 L1035,1261.9141 L1035,1212.9141 L1025,1202.9141 L861,1202.9141 " fill="#FEFFDD" style="stroke:#181818;stroke-width:0.5;"/><path d="M1025,1202.9141 L1025,1212.9141 L1035,1212.9141 L1025,1202.9141 " fill="#FEFFDD" style="stroke:#181818;stroke-width:0.5;"/><text fill="#000000" font-family="sans-serif" font-size="13" lengthAdjust="spacing" textLength="117.7871" x="867" y="1221.4092">Reduce stock untuk:</text><text fill="#000000" font-family="sans-serif" font-size="13" lengthAdjust="spacing" textLength="101.8799" x="867" y="1237.7607">- Recipe products</text><text fill="#000000" font-family="sans-serif" font-size="13" lengthAdjust="spacing" textLength="153.8989" x="867" y="1254.1123">- Ready-to-sell via batches</text><path d="M391.4351,1273.9688 L451.606,1273.9688 L451.606,1282.3203 L441.606,1292.3203 L391.4351,1292.3203 L391.4351,1273.9688 " fill="#EEEEEE" style="stroke:#000000;stroke-width:1.5;"/><rect fill="none" height="94.8906" style="stroke:#000000;stroke-width:1.5;" width="354.3657" x="391.4351" y="1273.9688"/><text fill="#000000" font-family="sans-serif" font-size="13" font-weight="bold" lengthAdjust="spacing" textLength="15.1709" x="406.4351" y="1288.4639">alt</text><text fill="#000000" font-family="sans-serif" font-size="11" font-weight="bold" lengthAdjust="spacing" textLength="154.3384" x="466.606" y="1287.3877">[Pembayaran = Total (Lunas)]</text><polygon fill="#181818" points="680.2285,1310.6719,690.2285,1314.6719,680.2285,1318.6719,684.2285,1314.6719" style="stroke:#181818;stroke-width:1.0;"/><line style="stroke:#181818;stroke-width:1.0;" x1="480.814" x2="686.2285" y1="1314.6719" y2="1314.6719"/><text fill="#000000" font-family="sans-serif" font-size="13" lengthAdjust="spacing" textLength="138.2964" x="517.373" y="1309.8154">update(status='Selesai')</text><line style="stroke:#000000;stroke-width:1.0;stroke-dasharray:2.0,2.0;" x1="391.4351" x2="745.8008" y1="1323.6719" y2="1323.6719"/><text fill="#000000" font-family="sans-serif" font-size="11" font-weight="bold" lengthAdjust="spacing" textLength="111.563" x="396.4351" y="1335.0908">[Pembayaran &lt; Total]</text><polygon fill="#181818" points="680.2285,1356.8594,690.2285,1360.8594,680.2285,1364.8594,684.2285,1360.8594" style="stroke:#181818;stroke-width:1.0;"/><line style="stroke:#181818;stroke-width:1.0;" x1="480.814" x2="686.2285" y1="1360.8594" y2="1360.8594"/><text fill="#000000" font-family="sans-serif" font-size="13" lengthAdjust="spacing" textLength="187.4146" x="492.814" y="1356.0029">update(status='Belum Diproses')</text><line style="stroke:#000000;stroke-width:1.0;stroke-dasharray:2.0,2.0;" x1="381.4351" x2="1051.0718" y1="1376.8594" y2="1376.8594"/><text fill="#000000" font-family="sans-serif" font-size="11" font-weight="bold" lengthAdjust="spacing" textLength="91.0508" x="386.4351" y="1388.2783">[Method Lainnya]</text><polygon fill="#181818" points="680.2285,1410.0469,690.2285,1414.0469,680.2285,1418.0469,684.2285,1414.0469" style="stroke:#181818;stroke-width:1.0;"/><line style="stroke:#181818;stroke-width:1.0;" x1="480.814" x2="686.2285" y1="1414.0469" y2="1414.0469"/><text fill="#000000" font-family="sans-serif" font-size="13" lengthAdjust="spacing" textLength="187.4146" x="492.814" y="1409.1904">update(status='Belum Diproses')</text><polygon fill="#181818" points="1058.3237,1447.3984,1068.3237,1451.3984,1058.3237,1455.3984,1062.3237,1451.3984" style="stroke:#181818;stroke-width:1.0;"/><line style="stroke:#181818;stroke-width:1.0;" x1="480.814" x2="1064.3237" y1="1451.3984" y2="1451.3984"/><text fill="#000000" font-family="sans-serif" font-size="13" lengthAdjust="spacing" textLength="129.1812" x="710.9783" y="1446.542">send("Order Queued")</text><path d="M391.4351,1466.3984 L451.606,1466.3984 L451.606,1474.75 L441.606,1484.75 L391.4351,1484.75 L391.4351,1466.3984 " fill="#EEEEEE" style="stroke:#000000;stroke-width:1.5;"/><rect fill="none" height="94.8906" style="stroke:#000000;stroke-width:1.5;" width="730.5161" x="391.4351" y="1466.3984"/><text fill="#000000" font-family="sans-serif" font-size="13" font-weight="bold" lengthAdjust="spacing" textLength="15.1709" x="406.4351" y="1480.8936">alt</text><text fill="#000000" font-family="sans-serif" font-size="11" font-weight="bold" lengthAdjust="spacing" textLength="117.9868" x="466.606" y="1479.8174">[Pembayaran &gt;= Total]</text><polygon fill="#181818" points="1058.3237,1503.1016,1068.3237,1507.1016,1058.3237,1511.1016,1062.3237,1507.1016" style="stroke:#181818;stroke-width:1.0;"/><line style="stroke:#181818;stroke-width:1.0;" x1="480.814" x2="1064.3237" y1="1507.1016" y2="1507.1016"/><text fill="#000000" font-family="sans-serif" font-size="13" lengthAdjust="spacing" textLength="163.8584" x="693.6396" y="1502.2451">send("Payment Completed")</text><line style="stroke:#000000;stroke-width:1.0;stroke-dasharray:2.0,2.0;" x1="391.4351" x2="1121.9512" y1="1516.1016" y2="1516.1016"/><text fill="#000000" font-family="sans-serif" font-size="11" font-weight="bold" lengthAdjust="spacing" textLength="111.563" x="396.4351" y="1527.5205">[Pembayaran &lt; Total]</text><polygon fill="#181818" points="1058.3237,1549.2891,1068.3237,1553.2891,1058.3237,1557.2891,1062.3237,1553.2891" style="stroke:#181818;stroke-width:1.0;"/><line style="stroke:#181818;stroke-width:1.0;" x1="480.814" x2="1064.3237" y1="1553.2891" y2="1553.2891"/><text fill="#000000" font-family="sans-serif" font-size="13" lengthAdjust="spacing" textLength="189.1411" x="680.9983" y="1548.4326">send("Payment Down Payment")</text><polygon fill="#181818" points="238.708,1586.6406,228.708,1590.6406,238.708,1594.6406,234.708,1590.6406" style="stroke:#181818;stroke-width:1.0;"/><line style="stroke:#181818;stroke-width:1.0;stroke-dasharray:2.0,2.0;" x1="232.708" x2="479.814" y1="1590.6406" y2="1590.6406"/><text fill="#000000" font-family="sans-serif" font-size="13" lengthAdjust="spacing" textLength="88.1372" x="310.1924" y="1585.7842">showSuccess()</text><polygon fill="#181818" points="238.708,1616.9922,228.708,1620.9922,238.708,1624.9922,234.708,1620.9922" style="stroke:#181818;stroke-width:1.0;"/><line style="stroke:#181818;stroke-width:1.0;stroke-dasharray:2.0,2.0;" x1="232.708" x2="479.814" y1="1620.9922" y2="1620.9922"/><text fill="#000000" font-family="sans-serif" font-size="13" lengthAdjust="spacing" textLength="140.1943" x="284.1638" y="1616.1357">redirect(detail_pesanan)</text><rect fill="#EEEEEE" height="3" style="stroke:#EEEEEE;stroke-width:1.0;" width="1131.9512" x="0" y="1650.168"/><line style="stroke:#000000;stroke-width:1.0;" x1="0" x2="1131.9512" y1="1650.168" y2="1650.168"/><line style="stroke:#000000;stroke-width:1.0;" x1="0" x2="1131.9512" y1="1653.168" y2="1653.168"/><rect fill="#EEEEEE" height="24.3516" style="stroke:#000000;stroke-width:2.0;" width="214.8081" x="458.5715" y="1638.9922"/><text fill="#000000" font-family="sans-serif" font-size="13" font-weight="bold" lengthAdjust="spacing" textLength="197.1963" x="464.5715" y="1656.4873">Fase 4: Lihat Riwayat (Optional)</text><path d="M10,1680.3438 L75.2109,1680.3438 L75.2109,1688.6953 L65.2109,1698.6953 L10,1698.6953 L10,1680.3438 " fill="#EEEEEE" style="stroke:#000000;stroke-width:1.5;"/><rect fill="none" height="261.1641" style="stroke:#000000;stroke-width:1.5;" width="815.0488" x="10" y="1680.3438"/><text fill="#000000" font-family="sans-serif" font-size="13" font-weight="bold" lengthAdjust="spacing" textLength="20.2109" x="25" y="1694.8389">opt</text><text fill="#000000" font-family="sans-serif" font-size="11" font-weight="bold" lengthAdjust="spacing" textLength="114.9414" x="90.2109" y="1693.7627">[Kasir Akses Riwayat]</text><polygon fill="#181818" points="215.708,1717.0469,225.708,1721.0469,215.708,1725.0469,219.708,1721.0469" style="stroke:#181818;stroke-width:1.0;"/><line style="stroke:#181818;stroke-width:1.0;" x1="38.9482" x2="221.708" y1="1721.0469" y2="1721.0469"/><text fill="#000000" font-family="sans-serif" font-size="13" lengthAdjust="spacing" textLength="156.0698" x="55.2932" y="1716.1904">Akses riwayat pembayaran</text><polygon fill="#181818" points="468.814,1747.3984,478.814,1751.3984,468.814,1755.3984,472.814,1751.3984" style="stroke:#181818;stroke-width:1.0;"/><line style="stroke:#181818;stroke-width:1.0;" x1="227.708" x2="474.814" y1="1751.3984" y2="1751.3984"/><text fill="#000000" font-family="sans-serif" font-size="13" lengthAdjust="spacing" textLength="118.479" x="295.0215" y="1746.542">getPaymentHistory()</text><polygon fill="#181818" points="768.4248,1777.75,778.4248,1781.75,768.4248,1785.75,772.4248,1781.75" style="stroke:#181818;stroke-width:1.0;"/><line style="stroke:#181818;stroke-width:1.0;" x1="480.814" x2="774.4248" y1="1781.75" y2="1781.75"/><text fill="#000000" font-family="sans-serif" font-size="13" lengthAdjust="spacing" textLength="121.3735" x="569.9326" y="1776.8936">getAllWithRelations()</text><polygon fill="#181818" points="238.708,1808.1016,228.708,1812.1016,238.708,1816.1016,234.708,1812.1016" style="stroke:#181818;stroke-width:1.0;"/><line style="stroke:#181818;stroke-width:1.0;stroke-dasharray:2.0,2.0;" x1="232.708" x2="479.814" y1="1812.1016" y2="1812.1016"/><text fill="#000000" font-family="sans-serif" font-size="13" lengthAdjust="spacing" textLength="106.9263" x="300.7979" y="1807.2451">displayPayments()</text><polygon fill="#181818" points="215.708,1838.4531,225.708,1842.4531,215.708,1846.4531,219.708,1842.4531" style="stroke:#181818;stroke-width:1.0;"/><line style="stroke:#181818;stroke-width:1.0;" x1="38.9482" x2="221.708" y1="1842.4531" y2="1842.4531"/><text fill="#000000" font-family="sans-serif" font-size="13" lengthAdjust="spacing" textLength="73.6899" x="96.4832" y="1837.5967">Filter/Search</text><polygon fill="#181818" points="468.814,1868.8047,478.814,1872.8047,468.814,1876.8047,472.814,1872.8047" style="stroke:#181818;stroke-width:1.0;"/><line style="stroke:#181818;stroke-width:1.0;" x1="227.708" x2="474.814" y1="1872.8047" y2="1872.8047"/><text fill="#000000" font-family="sans-serif" font-size="13" lengthAdjust="spacing" textLength="76.5654" x="315.9783" y="1867.9482">filter(params)</text><polygon fill="#181818" points="768.4248,1899.1563,778.4248,1903.1563,768.4248,1907.1563,772.4248,1903.1563" style="stroke:#181818;stroke-width:1.0;"/><line style="stroke:#181818;stroke-width:1.0;" x1="480.814" x2="774.4248" y1="1903.1563" y2="1903.1563"/><text fill="#000000" font-family="sans-serif" font-size="13" lengthAdjust="spacing" textLength="134.3672" x="563.4358" y="1898.2998">filterPayments(params)</text><polygon fill="#181818" points="238.708,1929.5078,228.708,1933.5078,238.708,1937.5078,234.708,1933.5078" style="stroke:#181818;stroke-width:1.0;"/><line style="stroke:#181818;stroke-width:1.0;stroke-dasharray:2.0,2.0;" x1="232.708" x2="479.814" y1="1933.5078" y2="1933.5078"/><text fill="#000000" font-family="sans-serif" font-size="13" lengthAdjust="spacing" textLength="150.2744" x="279.1238" y="1928.6514">displayFilteredPayments()</text><!--SRC=[bLRRRXit47tVhnW8IBK28aJkvQ565C2Icpg8vIYMYi90WM2yIsjPSSajBp7qznrU9AtabTpgGGyxXpE7Pmw7D6ik6zHOWs7_E2OBDcF6u8fT2RwIK31fcSuoowrWi4WGkEQueZL_oRbMXXcOi_eHDvH6Glx7T7Wn6cGP5bPfw7r6mtKFqC0KJSKf6PMplE0DIWkzYKCxPmOboZbL3S39_2HcggJLIWWMKqwcXyWbCJ1Kc2iPuilPONoEcvfs56BpXwEOLgKhKgnxtRH2APc8aEdD8UPEMVx42zmLlrjcsNWC7z4mkBY4MuKbH89hms4yphAa20m_q9xX4gxMNimA1TQaPBCJDQEenqm9KoidRMxt6_t6oq568G8iPmHuuhBiZ6-hbDmq0ZSjhQwPHIvCJbsJoZBGV5NP3A058LRQ6QXPpGLVSmeQYvQ-z6TCEhbQkPO9-XJEI_v8VOCIDGVonEZNGSPa2Rx0NfSVBs5E2IkOCQjArZPIbq0HkzAkEQ6EQqgqh4pz-bqhr-Gh_-yDAIpSAJbSEeb-0m1HjR1GK7VIgkMcOLwBBU98jmvK-ElcQdd3sbn3qbDyIOHAKVCezU0CmMJ3rpaU0S_GB2BoFBsKxbEP9tYmrfud7Ocj_xe0HnmdADTxuv4rzgxuYMYz62nTVlWa6sVXRrSBhE07ekjLWaUtjhpjYWOtEOQ3ynPuJMDcUs12z3iAxhUP9u_4Bi0O5XmRc30HpU93BJhlOQaiHiMETsWgzVoRrahdlPjmR0HPpi35QFIc5_NmswN6i7snUxPoDDRUVQQiw-w2lupU_BUYCovvxMgudlirxP9UvTIi1rfJQEOtVZWjti9MgpgGssbsJfsKr0yWpMYEieLLnJePxs2e-DzzWD088GnGARU-J94XnOfmPk8uDgtlM6w6LWqD4mA-SuH7j4N5p7PtSRJiZ7uatpXA1_cjxyNWGC8qEQFRypZOnlq54tJfy7wIptVhbVvtvo6DV2zu4opTxpR0BN8fDvZzprIjXjujlGdeGzxxeaiw95yTSwpifRwrg7yOjxY_M9mEEqnLtGXcGuPpcp-Pu5ezIzZUk2sgRSCkN57GUoC_lA78GLopmkPbc0_VcdZv3_OJucUwJtb5ryizVoPE5l8lZRSlYa4O5Agn45uUwKvDiCu9614w9JezgrVCfjtSS7AktkG7m-yXGgw4-9FRwfw9y19uVKYVdSuVkQ3trxi5GrrKnuIUGZ0FppVpWakCxeeSeux8n4AxKRyToVy2]--></g></svg>