<svg xmlns="http://www.w3.org/2000/svg" xmlns:xlink="http://www.w3.org/1999/xlink" contentStyleType="text/css" height="2057px" preserveAspectRatio="none" style="width:1199px;height:2057px;background:#FFFFFF;" version="1.1" viewBox="0 0 1199 2057" width="1199px" zoomAndPan="magnify"><defs/><g><rect fill="none" height="269.5156" style="stroke:#000000;stroke-width:1.5;" width="957.1841" x="204.9414" y="381.125"/><rect fill="none" height="79.0547" style="stroke:#000000;stroke-width:1.5;" width="957.1841" x="204.9414" y="1056.8594"/><rect fill="none" height="552" style="stroke:#000000;stroke-width:1.5;" width="997.1841" x="184.9414" y="1224.6172"/><rect fill="none" height="422.5938" style="stroke:#000000;stroke-width:1.5;" width="977.1841" x="194.9414" y="1286.3203"/><rect fill="none" height="261" style="stroke:#000000;stroke-width:1.5;" width="957.1841" x="204.9414" y="1311.6719"/><line style="stroke:#181818;stroke-width:0.5;stroke-dasharray:5.0,5.0;" x1="34" x2="34" y1="82.6094" y2="1975.7266"/><line style="stroke:#181818;stroke-width:0.5;stroke-dasharray:5.0,5.0;" x1="259.9414" x2="259.9414" y1="82.6094" y2="1975.7266"/><line style="stroke:#181818;stroke-width:0.5;stroke-dasharray:5.0,5.0;" x1="449.5337" x2="449.5337" y1="82.6094" y2="1975.7266"/><line style="stroke:#181818;stroke-width:0.5;stroke-dasharray:5.0,5.0;" x1="532.0024" x2="532.0024" y1="82.6094" y2="1975.7266"/><line style="stroke:#181818;stroke-width:0.5;stroke-dasharray:5.0,5.0;" x1="618.2642" x2="618.2642" y1="82.6094" y2="1975.7266"/><line style="stroke:#181818;stroke-width:0.5;stroke-dasharray:5.0,5.0;" x1="710.0571" x2="710.0571" y1="82.6094" y2="1975.7266"/><line style="stroke:#181818;stroke-width:0.5;stroke-dasharray:5.0,5.0;" x1="817.6499" x2="817.6499" y1="82.6094" y2="1975.7266"/><line style="stroke:#181818;stroke-width:0.5;stroke-dasharray:5.0,5.0;" x1="939.5942" x2="939.5942" y1="82.6094" y2="1975.7266"/><line style="stroke:#181818;stroke-width:0.5;stroke-dasharray:5.0,5.0;" x1="1118.1948" x2="1118.1948" y1="82.6094" y2="1975.7266"/><text fill="#000000" font-family="sans-serif" font-size="14" lengthAdjust="spacing" textLength="53.6963" x="5" y="79.5332">Inventori</text><ellipse cx="34.8481" cy="13.5" fill="#E2E2F0" rx="8" ry="8" style="stroke:#181818;stroke-width:0.5;"/><path d="M34.8481,21.5 L34.8481,48.5 M21.8481,29.5 L47.8481,29.5 M34.8481,48.5 L21.8481,63.5 M34.8481,48.5 L47.8481,63.5 " fill="none" style="stroke:#181818;stroke-width:0.5;"/><text fill="#000000" font-family="sans-serif" font-size="14" lengthAdjust="spacing" textLength="53.6963" x="5" y="1989.2598">Inventori</text><ellipse cx="34.8481" cy="2000.8359" fill="#E2E2F0" rx="8" ry="8" style="stroke:#181818;stroke-width:0.5;"/><path d="M34.8481,2008.8359 L34.8481,2035.8359 M21.8481,2016.8359 L47.8481,2016.8359 M34.8481,2035.8359 L21.8481,2050.8359 M34.8481,2035.8359 L47.8481,2050.8359 " fill="none" style="stroke:#181818;stroke-width:0.5;"/><rect fill="#E2E2F0" height="49.2188" rx="2.5" ry="2.5" style="stroke:#181818;stroke-width:0.5;" width="91.0547" x="214.9414" y="32.3906"/><text fill="#000000" font-family="sans-serif" font-size="14" lengthAdjust="spacing" textLength="77.0547" x="221.9414" y="53.9238">Hitung Page</text><text fill="#000000" font-family="sans-serif" font-size="14" lengthAdjust="spacing" textLength="60.6758" x="230.1309" y="71.5332">(Livewire)</text><rect fill="#E2E2F0" height="49.2188" rx="2.5" ry="2.5" style="stroke:#181818;stroke-width:0.5;" width="91.0547" x="214.9414" y="1974.7266"/><text fill="#000000" font-family="sans-serif" font-size="14" lengthAdjust="spacing" textLength="77.0547" x="221.9414" y="1996.2598">Hitung Page</text><text fill="#000000" font-family="sans-serif" font-size="14" lengthAdjust="spacing" textLength="60.6758" x="230.1309" y="2013.8691">(Livewire)</text><rect fill="#E2E2F0" height="49.2188" rx="2.5" ry="2.5" style="stroke:#181818;stroke-width:0.5;" width="54.4688" x="422.5337" y="32.3906"/><text fill="#000000" font-family="sans-serif" font-size="14" lengthAdjust="spacing" textLength="40.4688" x="429.5337" y="53.9238">Hitung</text><text fill="#000000" font-family="sans-serif" font-size="14" lengthAdjust="spacing" textLength="38.1309" x="430.7026" y="71.5332">Model</text><rect fill="#E2E2F0" height="49.2188" rx="2.5" ry="2.5" style="stroke:#181818;stroke-width:0.5;" width="54.4688" x="422.5337" y="1974.7266"/><text fill="#000000" font-family="sans-serif" font-size="14" lengthAdjust="spacing" textLength="40.4688" x="429.5337" y="1996.2598">Hitung</text><text fill="#000000" font-family="sans-serif" font-size="14" lengthAdjust="spacing" textLength="38.1309" x="430.7026" y="2013.8691">Model</text><rect fill="#E2E2F0" height="49.2188" rx="2.5" ry="2.5" style="stroke:#181818;stroke-width:0.5;" width="90.2617" x="487.0024" y="32.3906"/><text fill="#000000" font-family="sans-serif" font-size="14" lengthAdjust="spacing" textLength="76.2617" x="494.0024" y="53.9238">HitungDetail</text><text fill="#000000" font-family="sans-serif" font-size="14" lengthAdjust="spacing" textLength="38.1309" x="513.0679" y="71.5332">Model</text><rect fill="#E2E2F0" height="49.2188" rx="2.5" ry="2.5" style="stroke:#181818;stroke-width:0.5;" width="90.2617" x="487.0024" y="1974.7266"/><text fill="#000000" font-family="sans-serif" font-size="14" lengthAdjust="spacing" textLength="76.2617" x="494.0024" y="1996.2598">HitungDetail</text><text fill="#000000" font-family="sans-serif" font-size="14" lengthAdjust="spacing" textLength="38.1309" x="513.0679" y="2013.8691">Model</text><rect fill="#E2E2F0" height="49.2188" rx="2.5" ry="2.5" style="stroke:#181818;stroke-width:0.5;" width="63.793" x="587.2642" y="32.3906"/><text fill="#000000" font-family="sans-serif" font-size="14" lengthAdjust="spacing" textLength="49.793" x="594.2642" y="53.9238">Material</text><text fill="#000000" font-family="sans-serif" font-size="14" lengthAdjust="spacing" textLength="38.1309" x="600.0952" y="71.5332">Model</text><rect fill="#E2E2F0" height="49.2188" rx="2.5" ry="2.5" style="stroke:#181818;stroke-width:0.5;" width="63.793" x="587.2642" y="1974.7266"/><text fill="#000000" font-family="sans-serif" font-size="14" lengthAdjust="spacing" textLength="49.793" x="594.2642" y="1996.2598">Material</text><text fill="#000000" font-family="sans-serif" font-size="14" lengthAdjust="spacing" textLength="38.1309" x="600.0952" y="2013.8691">Model</text><rect fill="#E2E2F0" height="49.2188" rx="2.5" ry="2.5" style="stroke:#181818;stroke-width:0.5;" width="99.5928" x="661.0571" y="32.3906"/><text fill="#000000" font-family="sans-serif" font-size="14" lengthAdjust="spacing" textLength="85.5928" x="668.0571" y="53.9238">MaterialBatch</text><text fill="#000000" font-family="sans-serif" font-size="14" lengthAdjust="spacing" textLength="38.1309" x="691.7881" y="71.5332">Model</text><rect fill="#E2E2F0" height="49.2188" rx="2.5" ry="2.5" style="stroke:#181818;stroke-width:0.5;" width="99.5928" x="661.0571" y="1974.7266"/><text fill="#000000" font-family="sans-serif" font-size="14" lengthAdjust="spacing" textLength="85.5928" x="668.0571" y="1996.2598">MaterialBatch</text><text fill="#000000" font-family="sans-serif" font-size="14" lengthAdjust="spacing" textLength="38.1309" x="691.7881" y="2013.8691">Model</text><rect fill="#E2E2F0" height="49.2188" rx="2.5" ry="2.5" style="stroke:#181818;stroke-width:0.5;" width="94.9443" x="770.6499" y="32.3906"/><text fill="#000000" font-family="sans-serif" font-size="14" lengthAdjust="spacing" textLength="80.9443" x="777.6499" y="53.9238">InventoryLog</text><text fill="#000000" font-family="sans-serif" font-size="14" lengthAdjust="spacing" textLength="38.1309" x="799.0566" y="71.5332">Model</text><rect fill="#E2E2F0" height="49.2188" rx="2.5" ry="2.5" style="stroke:#181818;stroke-width:0.5;" width="94.9443" x="770.6499" y="1974.7266"/><text fill="#000000" font-family="sans-serif" font-size="14" lengthAdjust="spacing" textLength="80.9443" x="777.6499" y="1996.2598">InventoryLog</text><text fill="#000000" font-family="sans-serif" font-size="14" lengthAdjust="spacing" textLength="38.1309" x="799.0566" y="2013.8691">Model</text><rect fill="#E2E2F0" height="31.6094" rx="2.5" ry="2.5" style="stroke:#181818;stroke-width:0.5;" width="129.9375" x="875.5942" y="50"/><text fill="#000000" font-family="sans-serif" font-size="14" lengthAdjust="spacing" textLength="115.9375" x="882.5942" y="71.5332">NotificationService</text><rect fill="#E2E2F0" height="31.6094" rx="2.5" ry="2.5" style="stroke:#181818;stroke-width:0.5;" width="129.9375" x="875.5942" y="1974.7266"/><text fill="#000000" font-family="sans-serif" font-size="14" lengthAdjust="spacing" textLength="115.9375" x="882.5942" y="1996.2598">NotificationService</text><text fill="#000000" font-family="sans-serif" font-size="14" lengthAdjust="spacing" textLength="59.9307" x="1086.1948" y="79.5332">Database</text><path d="M1101.1602,29 C1101.1602,19 1119.1602,19 1119.1602,19 C1119.1602,19 1137.1602,19 1137.1602,29 L1137.1602,55 C1137.1602,65 1119.1602,65 1119.1602,65 C1119.1602,65 1101.1602,65 1101.1602,55 L1101.1602,29 " fill="#E2E2F0" style="stroke:#181818;stroke-width:1.5;"/><path d="M1101.1602,29 C1101.1602,39 1119.1602,39 1119.1602,39 C1119.1602,39 1137.1602,39 1137.1602,29 " fill="none" style="stroke:#181818;stroke-width:1.5;"/><text fill="#000000" font-family="sans-serif" font-size="14" lengthAdjust="spacing" textLength="59.9307" x="1086.1948" y="1989.2598">Database</text><path d="M1101.1602,2002.3359 C1101.1602,1992.3359 1119.1602,1992.3359 1119.1602,1992.3359 C1119.1602,1992.3359 1137.1602,1992.3359 1137.1602,2002.3359 L1137.1602,2028.3359 C1137.1602,2038.3359 1119.1602,2038.3359 1119.1602,2038.3359 C1119.1602,2038.3359 1101.1602,2038.3359 1101.1602,2028.3359 L1101.1602,2002.3359 " fill="#E2E2F0" style="stroke:#181818;stroke-width:1.5;"/><path d="M1101.1602,2002.3359 C1101.1602,2012.3359 1119.1602,2012.3359 1119.1602,2012.3359 C1119.1602,2012.3359 1137.1602,2012.3359 1137.1602,2002.3359 " fill="none" style="stroke:#181818;stroke-width:1.5;"/><rect fill="#EEEEEE" height="3" style="stroke:#EEEEEE;stroke-width:1.0;" width="1192.1255" x="0" y="113.7852"/><line style="stroke:#000000;stroke-width:1.0;" x1="0" x2="1192.1255" y1="113.7852" y2="113.7852"/><line style="stroke:#000000;stroke-width:1.0;" x1="0" x2="1192.1255" y1="116.7852" y2="116.7852"/><rect fill="#EEEEEE" height="24.3516" style="stroke:#000000;stroke-width:2.0;" width="177.2363" x="507.4446" y="102.6094"/><text fill="#000000" font-family="sans-serif" font-size="13" font-weight="bold" lengthAdjust="spacing" textLength="159.6245" x="513.4446" y="120.1045">Membuat Rencana Hitung</text><polygon fill="#181818" points="248.4688,155.3125,258.4688,159.3125,248.4688,163.3125,252.4688,159.3125" style="stroke:#181818;stroke-width:1.0;"/><line style="stroke:#181818;stroke-width:1.0;" x1="34.8481" x2="254.4688" y1="159.3125" y2="159.3125"/><text fill="#000000" font-family="sans-serif" font-size="13" lengthAdjust="spacing" textLength="169.1143" x="41.8481" y="154.4561">Buka halaman tambah hitung</text><polygon fill="#181818" points="248.4688,185.6641,258.4688,189.6641,248.4688,193.6641,252.4688,189.6641" style="stroke:#181818;stroke-width:1.0;"/><line style="stroke:#181818;stroke-width:1.0;" x1="34.8481" x2="254.4688" y1="189.6641" y2="189.6641"/><text fill="#000000" font-family="sans-serif" font-size="13" lengthAdjust="spacing" textLength="172.6943" x="41.8481" y="184.8076">Pilih aksi (hitung/rusak/hilang)</text><polygon fill="#181818" points="248.4688,216.0156,258.4688,220.0156,248.4688,224.0156,252.4688,220.0156" style="stroke:#181818;stroke-width:1.0;"/><line style="stroke:#181818;stroke-width:1.0;" x1="34.8481" x2="254.4688" y1="220.0156" y2="220.0156"/><text fill="#000000" font-family="sans-serif" font-size="13" lengthAdjust="spacing" textLength="104.8062" x="41.8481" y="215.1592">Pilih bahan-bahan</text><polygon fill="#181818" points="437.7681,273.8945,447.7681,277.8945,437.7681,281.8945,441.7681,277.8945" style="stroke:#181818;stroke-width:1.0;"/><line style="stroke:#181818;stroke-width:1.0;" x1="260.4688" x2="443.7681" y1="277.8945" y2="277.8945"/><text fill="#000000" font-family="sans-serif" font-size="13" lengthAdjust="spacing" textLength="112.7407" x="267.4688" y="273.0381">create(hitung_data)</text><path d="M454,233.0156 L454,308.0156 L649,308.0156 L649,243.0156 L639,233.0156 L454,233.0156 " fill="#FEFFDD" style="stroke:#181818;stroke-width:0.5;"/><path d="M639,233.0156 L639,243.0156 L649,243.0156 L639,233.0156 " fill="#FEFFDD" style="stroke:#181818;stroke-width:0.5;"/><text fill="#000000" font-family="sans-serif" font-size="13" lengthAdjust="spacing" textLength="174.9033" x="460" y="251.5107">hitung_number: auto-generate</text><text fill="#000000" font-family="sans-serif" font-size="13" lengthAdjust="spacing" textLength="165.9341" x="460" y="267.8623">action: 'hitung'/'rusak'/'hilang'</text><text fill="#000000" font-family="sans-serif" font-size="13" lengthAdjust="spacing" textLength="98.9092" x="460" y="284.2139">status: 'Rencana'</text><text fill="#000000" font-family="sans-serif" font-size="13" lengthAdjust="spacing" textLength="42.6372" x="460" y="300.5654">user_id</text><polygon fill="#181818" points="1107.1602,331.7734,1117.1602,335.7734,1107.1602,339.7734,1111.1602,335.7734" style="stroke:#181818;stroke-width:1.0;"/><line style="stroke:#181818;stroke-width:1.0;" x1="449.7681" x2="1113.1602" y1="335.7734" y2="335.7734"/><text fill="#000000" font-family="sans-serif" font-size="13" lengthAdjust="spacing" textLength="127.8672" x="456.7681" y="330.917">INSERT INTO hitungs</text><polygon fill="#181818" points="460.7681,362.125,450.7681,366.125,460.7681,370.125,456.7681,366.125" style="stroke:#181818;stroke-width:1.0;"/><line style="stroke:#181818;stroke-width:1.0;stroke-dasharray:2.0,2.0;" x1="454.7681" x2="1118.1602" y1="366.125" y2="366.125"/><text fill="#000000" font-family="sans-serif" font-size="13" lengthAdjust="spacing" textLength="35.4199" x="466.7681" y="361.2686">hitung</text><path d="M204.9414,381.125 L277.376,381.125 L277.376,389.4766 L267.376,399.4766 L204.9414,399.4766 L204.9414,381.125 " fill="#EEEEEE" style="stroke:#000000;stroke-width:1.5;"/><rect fill="none" height="269.5156" style="stroke:#000000;stroke-width:1.5;" width="957.1841" x="204.9414" y="381.125"/><text fill="#000000" font-family="sans-serif" font-size="13" font-weight="bold" lengthAdjust="spacing" textLength="27.4346" x="219.9414" y="395.6201">loop</text><text fill="#000000" font-family="sans-serif" font-size="11" font-weight="bold" lengthAdjust="spacing" textLength="108.7861" x="292.376" y="394.5439">[Untuk setiap bahan]</text><polygon fill="#181818" points="607.1606,417.8281,617.1606,421.8281,607.1606,425.8281,611.1606,421.8281" style="stroke:#181818;stroke-width:1.0;"/><line style="stroke:#181818;stroke-width:1.0;" x1="260.4688" x2="613.1606" y1="421.8281" y2="421.8281"/><text fill="#000000" font-family="sans-serif" font-size="13" lengthAdjust="spacing" textLength="39.7363" x="267.4688" y="416.9717">find(id)</text><polygon fill="#181818" points="1107.1602,448.1797,1117.1602,452.1797,1107.1602,456.1797,1111.1602,452.1797" style="stroke:#181818;stroke-width:1.0;"/><line style="stroke:#181818;stroke-width:1.0;" x1="619.1606" x2="1113.1602" y1="452.1797" y2="452.1797"/><text fill="#000000" font-family="sans-serif" font-size="13" lengthAdjust="spacing" textLength="157.4727" x="626.1606" y="447.3232">SELECT * FROM materials</text><polygon fill="#181818" points="698.8535,478.5313,708.8535,482.5313,698.8535,486.5313,702.8535,482.5313" style="stroke:#181818;stroke-width:1.0;"/><line style="stroke:#181818;stroke-width:1.0;" x1="260.4688" x2="704.8535" y1="482.5313" y2="482.5313"/><text fill="#000000" font-family="sans-serif" font-size="13" lengthAdjust="spacing" textLength="225.5894" x="267.4688" y="477.6748">where('material_id', id)-&gt;sum('quantity')</text><polygon fill="#181818" points="1107.1602,508.8828,1117.1602,512.8828,1107.1602,516.8828,1111.1602,512.8828" style="stroke:#181818;stroke-width:1.0;"/><line style="stroke:#181818;stroke-width:1.0;" x1="710.8535" x2="1113.1602" y1="512.8828" y2="512.8828"/><text fill="#000000" font-family="sans-serif" font-size="13" lengthAdjust="spacing" textLength="83.0781" x="717.8535" y="508.0264">SUM(quantity)</text><polygon fill="#181818" points="721.8535,539.2344,711.8535,543.2344,721.8535,547.2344,717.8535,543.2344" style="stroke:#181818;stroke-width:1.0;"/><line style="stroke:#181818;stroke-width:1.0;stroke-dasharray:2.0,2.0;" x1="715.8535" x2="1118.1602" y1="543.2344" y2="543.2344"/><text fill="#000000" font-family="sans-serif" font-size="13" lengthAdjust="spacing" textLength="78.0317" x="727.8535" y="538.3779">current_stock</text><polygon fill="#181818" points="520.1333,588.9375,530.1333,592.9375,520.1333,596.9375,524.1333,592.9375" style="stroke:#181818;stroke-width:1.0;"/><line style="stroke:#181818;stroke-width:1.0;" x1="260.4688" x2="526.1333" y1="592.9375" y2="592.9375"/><text fill="#000000" font-family="sans-serif" font-size="13" lengthAdjust="spacing" textLength="75.8672" x="267.4688" y="588.0811">create(detail)</text><path d="M537,556.2344 L537,615.2344 L768,615.2344 L768,566.2344 L758,556.2344 L537,556.2344 " fill="#FEFFDD" style="stroke:#181818;stroke-width:0.5;"/><path d="M758,556.2344 L758,566.2344 L768,566.2344 L758,556.2344 " fill="#FEFFDD" style="stroke:#181818;stroke-width:0.5;"/><text fill="#000000" font-family="sans-serif" font-size="13" lengthAdjust="spacing" textLength="63.5845" x="543" y="574.7295">material_id</text><text fill="#000000" font-family="sans-serif" font-size="13" lengthAdjust="spacing" textLength="210.9707" x="543" y="591.0811">quantity_system: stok sistem saat ini</text><text fill="#000000" font-family="sans-serif" font-size="13" lengthAdjust="spacing" textLength="181.3779" x="543" y="607.4326">quantity_actual: null (diisi nanti)</text><polygon fill="#181818" points="1107.1602,638.6406,1117.1602,642.6406,1107.1602,646.6406,1111.1602,642.6406" style="stroke:#181818;stroke-width:1.0;"/><line style="stroke:#181818;stroke-width:1.0;" x1="532.1333" x2="1113.1602" y1="642.6406" y2="642.6406"/><text fill="#000000" font-family="sans-serif" font-size="13" lengthAdjust="spacing" textLength="166.1753" x="539.1333" y="637.7842">INSERT INTO hitung_details</text><polygon fill="#181818" points="928.563,675.9922,938.563,679.9922,928.563,683.9922,932.563,679.9922" style="stroke:#181818;stroke-width:1.0;"/><line style="stroke:#181818;stroke-width:1.0;" x1="260.4688" x2="934.563" y1="679.9922" y2="679.9922"/><text fill="#000000" font-family="sans-serif" font-size="13" lengthAdjust="spacing" textLength="208.127" x="267.4688" y="675.1357">stockCountPlanned(hitung_number)</text><polygon fill="#181818" points="1107.1602,706.3438,1117.1602,710.3438,1107.1602,714.3438,1111.1602,710.3438" style="stroke:#181818;stroke-width:1.0;"/><line style="stroke:#181818;stroke-width:1.0;" x1="940.563" x2="1113.1602" y1="710.3438" y2="710.3438"/><text fill="#000000" font-family="sans-serif" font-size="13" lengthAdjust="spacing" textLength="154.5972" x="947.563" y="705.4873">INSERT INTO notifications</text><polygon fill="#181818" points="45.8481,736.6953,35.8481,740.6953,45.8481,744.6953,41.8481,740.6953" style="stroke:#181818;stroke-width:1.0;"/><line style="stroke:#181818;stroke-width:1.0;stroke-dasharray:2.0,2.0;" x1="39.8481" x2="259.4688" y1="740.6953" y2="740.6953"/><text fill="#000000" font-family="sans-serif" font-size="13" lengthAdjust="spacing" textLength="151.7598" x="51.8481" y="735.8389">Rencana hitung tersimpan</text><rect fill="#EEEEEE" height="3" style="stroke:#EEEEEE;stroke-width:1.0;" width="1192.1255" x="0" y="769.8711"/><line style="stroke:#000000;stroke-width:1.0;" x1="0" x2="1192.1255" y1="769.8711" y2="769.8711"/><line style="stroke:#000000;stroke-width:1.0;" x1="0" x2="1192.1255" y1="772.8711" y2="772.8711"/><rect fill="#EEEEEE" height="24.3516" style="stroke:#000000;stroke-width:2.0;" width="114.3882" x="538.8687" y="758.6953"/><text fill="#000000" font-family="sans-serif" font-size="13" font-weight="bold" lengthAdjust="spacing" textLength="96.7764" x="544.8687" y="776.1904">Memulai Hitung</text><polygon fill="#181818" points="248.4688,811.3984,258.4688,815.3984,248.4688,819.3984,252.4688,815.3984" style="stroke:#181818;stroke-width:1.0;"/><line style="stroke:#181818;stroke-width:1.0;" x1="34.8481" x2="254.4688" y1="815.3984" y2="815.3984"/><text fill="#000000" font-family="sans-serif" font-size="13" lengthAdjust="spacing" textLength="123.5762" x="41.8481" y="810.542">Pilih hitung dan mulai</text><polygon fill="#181818" points="437.7681,841.75,447.7681,845.75,437.7681,849.75,441.7681,845.75" style="stroke:#181818;stroke-width:1.0;"/><line style="stroke:#181818;stroke-width:1.0;" x1="260.4688" x2="443.7681" y1="845.75" y2="845.75"/><text fill="#000000" font-family="sans-serif" font-size="13" lengthAdjust="spacing" textLength="163.1221" x="267.4688" y="840.8936">update(['status' =&gt; 'Proses'])</text><polygon fill="#181818" points="1107.1602,872.1016,1117.1602,876.1016,1107.1602,880.1016,1111.1602,876.1016" style="stroke:#181818;stroke-width:1.0;"/><line style="stroke:#181818;stroke-width:1.0;" x1="449.7681" x2="1113.1602" y1="876.1016" y2="876.1016"/><text fill="#000000" font-family="sans-serif" font-size="13" lengthAdjust="spacing" textLength="98.2617" x="456.7681" y="871.2451">UPDATE hitungs</text><polygon fill="#181818" points="460.7681,902.4531,450.7681,906.4531,460.7681,910.4531,456.7681,906.4531" style="stroke:#181818;stroke-width:1.0;"/><line style="stroke:#181818;stroke-width:1.0;stroke-dasharray:2.0,2.0;" x1="454.7681" x2="1118.1602" y1="906.4531" y2="906.4531"/><text fill="#000000" font-family="sans-serif" font-size="13" lengthAdjust="spacing" textLength="46.9917" x="466.7681" y="901.5967">updated</text><polygon fill="#181818" points="928.563,932.8047,938.563,936.8047,928.563,940.8047,932.563,936.8047" style="stroke:#181818;stroke-width:1.0;"/><line style="stroke:#181818;stroke-width:1.0;" x1="260.4688" x2="934.563" y1="936.8047" y2="936.8047"/><text fill="#000000" font-family="sans-serif" font-size="13" lengthAdjust="spacing" textLength="224.7261" x="267.4688" y="931.9482">stockCountProcessing(hitung_number)</text><polygon fill="#181818" points="45.8481,963.1563,35.8481,967.1563,45.8481,971.1563,41.8481,967.1563" style="stroke:#181818;stroke-width:1.0;"/><line style="stroke:#181818;stroke-width:1.0;stroke-dasharray:2.0,2.0;" x1="39.8481" x2="259.4688" y1="967.1563" y2="967.1563"/><text fill="#000000" font-family="sans-serif" font-size="13" lengthAdjust="spacing" textLength="124.2871" x="51.8481" y="962.2998">Proses hitung dimulai</text><rect fill="#EEEEEE" height="3" style="stroke:#EEEEEE;stroke-width:1.0;" width="1192.1255" x="0" y="996.332"/><line style="stroke:#000000;stroke-width:1.0;" x1="0" x2="1192.1255" y1="996.332" y2="996.332"/><line style="stroke:#000000;stroke-width:1.0;" x1="0" x2="1192.1255" y1="999.332" y2="999.332"/><rect fill="#EEEEEE" height="24.3516" style="stroke:#000000;stroke-width:2.0;" width="128.8228" x="531.6514" y="985.1563"/><text fill="#000000" font-family="sans-serif" font-size="13" font-weight="bold" lengthAdjust="spacing" textLength="111.2109" x="537.6514" y="1002.6514">Input Hasil Hitung</text><polygon fill="#181818" points="248.4688,1037.8594,258.4688,1041.8594,248.4688,1045.8594,252.4688,1041.8594" style="stroke:#181818;stroke-width:1.0;"/><line style="stroke:#181818;stroke-width:1.0;" x1="34.8481" x2="254.4688" y1="1041.8594" y2="1041.8594"/><text fill="#000000" font-family="sans-serif" font-size="13" lengthAdjust="spacing" textLength="201.6206" x="41.8481" y="1037.0029">Masukkan jumlah aktual per bahan</text><path d="M204.9414,1056.8594 L277.376,1056.8594 L277.376,1065.2109 L267.376,1075.2109 L204.9414,1075.2109 L204.9414,1056.8594 " fill="#EEEEEE" style="stroke:#000000;stroke-width:1.5;"/><rect fill="none" height="79.0547" style="stroke:#000000;stroke-width:1.5;" width="957.1841" x="204.9414" y="1056.8594"/><text fill="#000000" font-family="sans-serif" font-size="13" font-weight="bold" lengthAdjust="spacing" textLength="27.4346" x="219.9414" y="1071.3545">loop</text><text fill="#000000" font-family="sans-serif" font-size="11" font-weight="bold" lengthAdjust="spacing" textLength="105.123" x="292.376" y="1070.2783">[Untuk setiap detail]</text><polygon fill="#181818" points="520.1333,1093.5625,530.1333,1097.5625,520.1333,1101.5625,524.1333,1097.5625" style="stroke:#181818;stroke-width:1.0;"/><line style="stroke:#181818;stroke-width:1.0;" x1="260.4688" x2="526.1333" y1="1097.5625" y2="1097.5625"/><text fill="#000000" font-family="sans-serif" font-size="13" lengthAdjust="spacing" textLength="198.6563" x="267.4688" y="1092.7061">update(['quantity_actual' =&gt; input])</text><polygon fill="#181818" points="1107.1602,1123.9141,1117.1602,1127.9141,1107.1602,1131.9141,1111.1602,1127.9141" style="stroke:#181818;stroke-width:1.0;"/><line style="stroke:#181818;stroke-width:1.0;" x1="532.1333" x2="1113.1602" y1="1127.9141" y2="1127.9141"/><text fill="#000000" font-family="sans-serif" font-size="13" lengthAdjust="spacing" textLength="136.5698" x="539.1333" y="1123.0576">UPDATE hitung_details</text><rect fill="#EEEEEE" height="3" style="stroke:#EEEEEE;stroke-width:1.0;" width="1192.1255" x="0" y="1164.0898"/><line style="stroke:#000000;stroke-width:1.0;" x1="0" x2="1192.1255" y1="1164.0898" y2="1164.0898"/><line style="stroke:#000000;stroke-width:1.0;" x1="0" x2="1192.1255" y1="1167.0898" y2="1167.0898"/><rect fill="#EEEEEE" height="24.3516" style="stroke:#000000;stroke-width:2.0;" width="154.1499" x="518.9878" y="1152.9141"/><text fill="#000000" font-family="sans-serif" font-size="13" font-weight="bold" lengthAdjust="spacing" textLength="136.5381" x="524.9878" y="1170.4092">Menyelesaikan Hitung</text><polygon fill="#181818" points="248.4688,1205.6172,258.4688,1209.6172,248.4688,1213.6172,252.4688,1209.6172" style="stroke:#181818;stroke-width:1.0;"/><line style="stroke:#181818;stroke-width:1.0;" x1="34.8481" x2="254.4688" y1="1209.6172" y2="1209.6172"/><text fill="#000000" font-family="sans-serif" font-size="13" lengthAdjust="spacing" textLength="102.6289" x="41.8481" y="1204.7607">Selesaikan hitung</text><path d="M184.9414,1224.6172 L257.376,1224.6172 L257.376,1232.9688 L247.376,1242.9688 L184.9414,1242.9688 L184.9414,1224.6172 " fill="#EEEEEE" style="stroke:#000000;stroke-width:1.5;"/><rect fill="none" height="552" style="stroke:#000000;stroke-width:1.5;" width="997.1841" x="184.9414" y="1224.6172"/><text fill="#000000" font-family="sans-serif" font-size="13" font-weight="bold" lengthAdjust="spacing" textLength="27.4346" x="199.9414" y="1239.1123">loop</text><text fill="#000000" font-family="sans-serif" font-size="11" font-weight="bold" lengthAdjust="spacing" textLength="105.123" x="272.376" y="1238.0361">[Untuk setiap detail]</text><polygon fill="#181818" points="520.1333,1264.3203,530.1333,1268.3203,520.1333,1272.3203,524.1333,1268.3203" style="stroke:#181818;stroke-width:1.0;"/><line style="stroke:#181818;stroke-width:1.0;" x1="260.4688" x2="526.1333" y1="1268.3203" y2="1268.3203"/><text fill="#000000" font-family="sans-serif" font-size="13" lengthAdjust="spacing" textLength="77.3145" x="267.4688" y="1263.4639">Hitung selisih</text><path d="M537,1247.9688 L537,1273.9688 L801,1273.9688 L801,1257.9688 L791,1247.9688 L537,1247.9688 " fill="#FEFFDD" style="stroke:#181818;stroke-width:0.5;"/><path d="M791,1247.9688 L791,1257.9688 L801,1257.9688 L791,1247.9688 " fill="#FEFFDD" style="stroke:#181818;stroke-width:0.5;"/><text fill="#000000" font-family="sans-serif" font-size="13" lengthAdjust="spacing" textLength="243.877" x="543" y="1266.4639">selisih = quantity_actual - quantity_system</text><path d="M194.9414,1286.3203 L255.1123,1286.3203 L255.1123,1294.6719 L245.1123,1304.6719 L194.9414,1304.6719 L194.9414,1286.3203 " fill="#EEEEEE" style="stroke:#000000;stroke-width:1.5;"/><rect fill="none" height="422.5938" style="stroke:#000000;stroke-width:1.5;" width="977.1841" x="194.9414" y="1286.3203"/><text fill="#000000" font-family="sans-serif" font-size="13" font-weight="bold" lengthAdjust="spacing" textLength="15.1709" x="209.9414" y="1300.8154">alt</text><text fill="#000000" font-family="sans-serif" font-size="11" font-weight="bold" lengthAdjust="spacing" textLength="159.5054" x="270.1123" y="1299.7393">[Aksi: Hitung (Stock Opname)]</text><path d="M204.9414,1311.6719 L265.1123,1311.6719 L265.1123,1320.0234 L255.1123,1330.0234 L204.9414,1330.0234 L204.9414,1311.6719 " fill="#EEEEEE" style="stroke:#000000;stroke-width:1.5;"/><rect fill="none" height="261" style="stroke:#000000;stroke-width:1.5;" width="957.1841" x="204.9414" y="1311.6719"/><text fill="#000000" font-family="sans-serif" font-size="13" font-weight="bold" lengthAdjust="spacing" textLength="15.1709" x="219.9414" y="1326.167">alt</text><text fill="#000000" font-family="sans-serif" font-size="11" font-weight="bold" lengthAdjust="spacing" textLength="124.3892" x="280.1123" y="1325.0908">[Selisih &gt; 0 (Kelebihan)]</text><polygon fill="#181818" points="698.8535,1348.375,708.8535,1352.375,698.8535,1356.375,702.8535,1352.375" style="stroke:#181818;stroke-width:1.0;"/><line style="stroke:#181818;stroke-width:1.0;" x1="260.4688" x2="704.8535" y1="1352.375" y2="1352.375"/><text fill="#000000" font-family="sans-serif" font-size="13" lengthAdjust="spacing" textLength="143.7935" x="267.4688" y="1347.5186">create(adjustment batch)</text><polygon fill="#181818" points="1107.1602,1378.7266,1117.1602,1382.7266,1107.1602,1386.7266,1111.1602,1382.7266" style="stroke:#181818;stroke-width:1.0;"/><line style="stroke:#181818;stroke-width:1.0;" x1="710.8535" x2="1113.1602" y1="1382.7266" y2="1382.7266"/><text fill="#000000" font-family="sans-serif" font-size="13" lengthAdjust="spacing" textLength="150.2808" x="717.8535" y="1377.8701">INSERT material_batches</text><polygon fill="#181818" points="806.1221,1420.2539,816.1221,1424.2539,806.1221,1428.2539,810.1221,1424.2539" style="stroke:#181818;stroke-width:1.0;"/><line style="stroke:#181818;stroke-width:1.0;" x1="260.4688" x2="812.1221" y1="1424.2539" y2="1424.2539"/><text fill="#000000" font-family="sans-serif" font-size="13" lengthAdjust="spacing" textLength="62.1372" x="267.4688" y="1419.3975">create(log)</text><path d="M823,1395.7266 L823,1437.7266 L964,1437.7266 L964,1405.7266 L954,1395.7266 L823,1395.7266 " fill="#FEFFDD" style="stroke:#181818;stroke-width:0.5;"/><path d="M954,1395.7266 L954,1405.7266 L964,1405.7266 L954,1395.7266 " fill="#FEFFDD" style="stroke:#181818;stroke-width:0.5;"/><text fill="#000000" font-family="sans-serif" font-size="13" lengthAdjust="spacing" textLength="120.6055" x="829" y="1414.2217">action: 'penyesuaian'</text><text fill="#000000" font-family="sans-serif" font-size="13" lengthAdjust="spacing" textLength="46.8774" x="829" y="1430.5732">type: 'in'</text><line style="stroke:#000000;stroke-width:1.0;stroke-dasharray:2.0,2.0;" x1="204.9414" x2="1162.1255" y1="1444.4297" y2="1444.4297"/><text fill="#000000" font-family="sans-serif" font-size="11" font-weight="bold" lengthAdjust="spacing" textLength="135.3945" x="209.9414" y="1455.8486">[Selisih &lt; 0 (Kekurangan)]</text><polygon fill="#181818" points="698.8535,1477.6172,708.8535,1481.6172,698.8535,1485.6172,702.8535,1481.6172" style="stroke:#181818;stroke-width:1.0;"/><line style="stroke:#181818;stroke-width:1.0;" x1="260.4688" x2="704.8535" y1="1481.6172" y2="1481.6172"/><text fill="#000000" font-family="sans-serif" font-size="13" lengthAdjust="spacing" textLength="114.1372" x="267.4688" y="1476.7607">Kurangi stok (FIFO)</text><polygon fill="#181818" points="1107.1602,1507.9688,1117.1602,1511.9688,1107.1602,1515.9688,1111.1602,1511.9688" style="stroke:#181818;stroke-width:1.0;"/><line style="stroke:#181818;stroke-width:1.0;" x1="710.8535" x2="1113.1602" y1="1511.9688" y2="1511.9688"/><text fill="#000000" font-family="sans-serif" font-size="13" lengthAdjust="spacing" textLength="209.5234" x="717.8535" y="1507.1123">UPDATE/DELETE material_batches</text><polygon fill="#181818" points="806.1221,1549.4961,816.1221,1553.4961,806.1221,1557.4961,810.1221,1553.4961" style="stroke:#181818;stroke-width:1.0;"/><line style="stroke:#181818;stroke-width:1.0;" x1="260.4688" x2="812.1221" y1="1553.4961" y2="1553.4961"/><text fill="#000000" font-family="sans-serif" font-size="13" lengthAdjust="spacing" textLength="62.1372" x="267.4688" y="1548.6396">create(log)</text><path d="M823,1524.9688 L823,1566.9688 L964,1566.9688 L964,1534.9688 L954,1524.9688 L823,1524.9688 " fill="#FEFFDD" style="stroke:#181818;stroke-width:0.5;"/><path d="M954,1524.9688 L954,1534.9688 L964,1534.9688 L954,1524.9688 " fill="#FEFFDD" style="stroke:#181818;stroke-width:0.5;"/><text fill="#000000" font-family="sans-serif" font-size="13" lengthAdjust="spacing" textLength="120.6055" x="829" y="1543.4639">action: 'penyesuaian'</text><text fill="#000000" font-family="sans-serif" font-size="13" lengthAdjust="spacing" textLength="54.8311" x="829" y="1559.8154">type: 'out'</text><line style="stroke:#000000;stroke-width:1.0;stroke-dasharray:2.0,2.0;" x1="194.9414" x2="1172.1255" y1="1580.6719" y2="1580.6719"/><text fill="#000000" font-family="sans-serif" font-size="11" font-weight="bold" lengthAdjust="spacing" textLength="106.9653" x="199.9414" y="1592.0908">[Aksi: Rusak/Hilang]</text><polygon fill="#181818" points="698.8535,1613.8594,708.8535,1617.8594,698.8535,1621.8594,702.8535,1617.8594" style="stroke:#181818;stroke-width:1.0;"/><line style="stroke:#181818;stroke-width:1.0;" x1="260.4688" x2="704.8535" y1="1617.8594" y2="1617.8594"/><text fill="#000000" font-family="sans-serif" font-size="13" lengthAdjust="spacing" textLength="213.186" x="267.4688" y="1613.0029">Kurangi stok sebesar quantity_actual</text><polygon fill="#181818" points="1107.1602,1644.2109,1117.1602,1648.2109,1107.1602,1652.2109,1111.1602,1648.2109" style="stroke:#181818;stroke-width:1.0;"/><line style="stroke:#181818;stroke-width:1.0;" x1="710.8535" x2="1113.1602" y1="1648.2109" y2="1648.2109"/><text fill="#000000" font-family="sans-serif" font-size="13" lengthAdjust="spacing" textLength="209.5234" x="717.8535" y="1643.3545">UPDATE/DELETE material_batches</text><polygon fill="#181818" points="806.1221,1685.7383,816.1221,1689.7383,806.1221,1693.7383,810.1221,1689.7383" style="stroke:#181818;stroke-width:1.0;"/><line style="stroke:#181818;stroke-width:1.0;" x1="260.4688" x2="812.1221" y1="1689.7383" y2="1689.7383"/><text fill="#000000" font-family="sans-serif" font-size="13" lengthAdjust="spacing" textLength="62.1372" x="267.4688" y="1684.8818">create(log)</text><path d="M823,1661.2109 L823,1703.2109 L965,1703.2109 L965,1671.2109 L955,1661.2109 L823,1661.2109 " fill="#FEFFDD" style="stroke:#181818;stroke-width:0.5;"/><path d="M955,1661.2109 L955,1671.2109 L965,1671.2109 L955,1661.2109 " fill="#FEFFDD" style="stroke:#181818;stroke-width:0.5;"/><text fill="#000000" font-family="sans-serif" font-size="13" lengthAdjust="spacing" textLength="121.9385" x="829" y="1679.7061">action: 'rusak'/'hilang'</text><text fill="#000000" font-family="sans-serif" font-size="13" lengthAdjust="spacing" textLength="54.8311" x="829" y="1696.0576">type: 'out'</text><polygon fill="#181818" points="607.1606,1734.2656,617.1606,1738.2656,607.1606,1742.2656,611.1606,1738.2656" style="stroke:#181818;stroke-width:1.0;"/><line style="stroke:#181818;stroke-width:1.0;" x1="260.4688" x2="613.1606" y1="1738.2656" y2="1738.2656"/><text fill="#000000" font-family="sans-serif" font-size="13" lengthAdjust="spacing" textLength="80.2153" x="267.4688" y="1733.4092">Update status</text><polygon fill="#181818" points="1107.1602,1764.6172,1117.1602,1768.6172,1107.1602,1772.6172,1111.1602,1768.6172" style="stroke:#181818;stroke-width:1.0;"/><line style="stroke:#181818;stroke-width:1.0;" x1="619.1606" x2="1113.1602" y1="1768.6172" y2="1768.6172"/><text fill="#000000" font-family="sans-serif" font-size="13" lengthAdjust="spacing" textLength="109.0781" x="626.1606" y="1763.7607">UPDATE materials</text><polygon fill="#181818" points="437.7681,1801.9688,447.7681,1805.9688,437.7681,1809.9688,441.7681,1805.9688" style="stroke:#181818;stroke-width:1.0;"/><line style="stroke:#181818;stroke-width:1.0;" x1="260.4688" x2="443.7681" y1="1805.9688" y2="1805.9688"/><text fill="#000000" font-family="sans-serif" font-size="13" lengthAdjust="spacing" textLength="165.2993" x="267.4688" y="1801.1123">update(['status' =&gt; 'Selesai'])</text><polygon fill="#181818" points="1107.1602,1832.3203,1117.1602,1836.3203,1107.1602,1840.3203,1111.1602,1836.3203" style="stroke:#181818;stroke-width:1.0;"/><line style="stroke:#181818;stroke-width:1.0;" x1="449.7681" x2="1113.1602" y1="1836.3203" y2="1836.3203"/><text fill="#000000" font-family="sans-serif" font-size="13" lengthAdjust="spacing" textLength="98.2617" x="456.7681" y="1831.4639">UPDATE hitungs</text><polygon fill="#181818" points="460.7681,1862.6719,450.7681,1866.6719,460.7681,1870.6719,456.7681,1866.6719" style="stroke:#181818;stroke-width:1.0;"/><line style="stroke:#181818;stroke-width:1.0;stroke-dasharray:2.0,2.0;" x1="454.7681" x2="1118.1602" y1="1866.6719" y2="1866.6719"/><text fill="#000000" font-family="sans-serif" font-size="13" lengthAdjust="spacing" textLength="46.9917" x="466.7681" y="1861.8154">updated</text><polygon fill="#181818" points="928.563,1893.0234,938.563,1897.0234,928.563,1901.0234,932.563,1897.0234" style="stroke:#181818;stroke-width:1.0;"/><line style="stroke:#181818;stroke-width:1.0;" x1="260.4688" x2="934.563" y1="1897.0234" y2="1897.0234"/><text fill="#000000" font-family="sans-serif" font-size="13" lengthAdjust="spacing" textLength="223.2852" x="267.4688" y="1892.167">stockCountCompleted(hitung_number)</text><polygon fill="#181818" points="1107.1602,1923.375,1117.1602,1927.375,1107.1602,1931.375,1111.1602,1927.375" style="stroke:#181818;stroke-width:1.0;"/><line style="stroke:#181818;stroke-width:1.0;" x1="940.563" x2="1113.1602" y1="1927.375" y2="1927.375"/><text fill="#000000" font-family="sans-serif" font-size="13" lengthAdjust="spacing" textLength="154.5972" x="947.563" y="1922.5186">INSERT INTO notifications</text><polygon fill="#181818" points="45.8481,1953.7266,35.8481,1957.7266,45.8481,1961.7266,41.8481,1957.7266" style="stroke:#181818;stroke-width:1.0;"/><line style="stroke:#181818;stroke-width:1.0;stroke-dasharray:2.0,2.0;" x1="39.8481" x2="259.4688" y1="1957.7266" y2="1957.7266"/><text fill="#000000" font-family="sans-serif" font-size="13" lengthAdjust="spacing" textLength="171.2661" x="51.8481" y="1952.8701">Hitung selesai, stok terupdate</text><!--SRC=[pLPDRziu4BthLmnwaRoeaJqRwm1rd211uyQ8urDR66E9jLX9b5OaK_ZVx_13iYNBJXQx2smEZirvvCoycJSanggiuK6yCa5VEA24jMHrK66jUCmh50e-t7EbnGwMk6FVHFJ8NzalNhFH1uDsDcCQslDDBCg4vKV88TISAUJvATQjTtSiKB6QOmVTh0qZPwZYz1Xk5xhOXe3zOzc9cNvsWLzAnN_m61KlnOhLhpnc5cZNWmGLRb4oc3TVo3IV1S5q2WjMR3KgU6OYHe4-HPXE0qCuZA-Fg9p0J6S8AUPOe025nHPJI1s1G_0bptaAc4aEaODTrLfYTfNo7CLkT64JdOnYR3-3u60-W2SGruouz0TlJ9AZG9IAGSrtgGh0HxOHkjYoUWAeLJdUCS5gsaPcZ0rT4mWTBhmARN3qtuKN4aOgL5eInlDZrZG5lU59m4G2nfyFpuGsdqtWuSlgzlc5_hqy-GXaC9_1-2XoJrcGbsK5Qw5q1f8fZfLBctm0T7DkkcO2FxX88fwCBAXPRdolRXzlRrxWDxXxVbf0uQtIOWTEjIqtWLyfgraKDd3ABVm8v69yBNKHXNzgwZ6kzg7pQJUr3jUBgB4xiq_L7nthkgOMtaXLnjcvC8vbrPOriJ_TcPsgch-ZKFrA4yH6xgLYnOGgLnAhtFm0YTJXNF0-bZf06qw5pdE84iwfKOMnERTjWGyXko3FbthZmfQcEVfzQyLe0ukpcr8BjQGk4oo9Edqw2Ynko8KuKhdidaveewL9gsDt9X1DaXUL4P4JkywHlo5o9q1_G492jvlEY51NYQdMrz0f9OJfDOJBkfHCXjz7FMcib_DFBxVdLE6EUWTjTHapARdOzPaRfiH5qoR4NJg6ZmTHQGNtAAcabpbPeDHPHbpyr4MEPgQPpe6Aa7v6dMhPjSAR_Tuos6jBIoKt4NuVdUt03gFTvhFr5dkMCudSX7uvmzK1U7uylJCbxqcod1IL3alO6s7QboEC-s8-5QFzm5p19xfRMd_HolG8F5K22pRoVXnkvRrTm-yGVQPKjvogTi2SdOr-6c7oKqjLq2YZUfEXkxCp4hrYsn5byKnsDbpmItTxwpKlTrr79oosEJPtMMLABZLo564Fe_OLrJdaFKE7MBkGqmkX8UmFHrYcQxeHtyNOPmlbRW17TmztJnV8SlrxDQTxYzhuVyjPgTLRf8aaw4HgMNJj-MpVFFVsKH6ydpl9jgJ8kg-Fu9yG6VnD0WV9QuaxVIzTugt3MSFNnRVEsev6_mWRVF3u-NTuwGpSknUlAZ_s_gkxwgOigfofV_cIFynN4_j7rox4W8ig-0i0]--></g></svg>