<svg xmlns="http://www.w3.org/2000/svg" xmlns:xlink="http://www.w3.org/1999/xlink" contentStyleType="text/css" height="1200px" preserveAspectRatio="none" style="width:1258px;height:1200px;background:#FFFFFF;" version="1.1" viewBox="0 0 1258 1200" width="1258px" zoomAndPan="magnify"><title>Sequence Diagram</title><defs/><g><text fill="#000000" font-family="sans-serif" font-size="14" font-weight="bold" lengthAdjust="spacing" textLength="126.0479" x="567.8525" y="29.5332">Sequence Diagram</text><text fill="#000000" font-family="sans-serif" font-size="14" font-weight="bold" lengthAdjust="spacing" textLength="155.5586" x="553.0972" y="47.1426">Stock Opname (Hitung)</text><rect fill="none" height="109.4063" style="stroke:#000000;stroke-width:1.5;" width="954.4229" x="10" y="441.9922"/><rect fill="none" height="170.1094" style="stroke:#000000;stroke-width:1.5;" width="954.4229" x="10" y="656.4531"/><rect fill="none" height="109.4063" style="stroke:#000000;stroke-width:1.5;" width="796.9805" x="455.7725" y="901.2656"/><line style="stroke:#181818;stroke-width:0.5;stroke-dasharray:5.0,5.0;" x1="73" x2="73" y1="138.8281" y2="1118.7266"/><line style="stroke:#181818;stroke-width:0.5;stroke-dasharray:5.0,5.0;" x1="311.6084" x2="311.6084" y1="138.8281" y2="1118.7266"/><line style="stroke:#181818;stroke-width:0.5;stroke-dasharray:5.0,5.0;" x1="522.7725" x2="522.7725" y1="138.8281" y2="1118.7266"/><line style="stroke:#181818;stroke-width:0.5;stroke-dasharray:5.0,5.0;" x1="723.2583" x2="723.2583" y1="138.8281" y2="1118.7266"/><line style="stroke:#181818;stroke-width:0.5;stroke-dasharray:5.0,5.0;" x1="909.1611" x2="909.1611" y1="138.8281" y2="1118.7266"/><line style="stroke:#181818;stroke-width:0.5;stroke-dasharray:5.0,5.0;" x1="995.4229" x2="995.4229" y1="138.8281" y2="1118.7266"/><line style="stroke:#181818;stroke-width:0.5;stroke-dasharray:5.0,5.0;" x1="1087.2158" x2="1087.2158" y1="138.8281" y2="1118.7266"/><line style="stroke:#181818;stroke-width:0.5;stroke-dasharray:5.0,5.0;" x1="1194.8086" x2="1194.8086" y1="138.8281" y2="1118.7266"/><text fill="#000000" font-family="sans-serif" font-size="14" lengthAdjust="spacing" textLength="101.1787" x="20" y="135.752">Bagian Inventori</text><ellipse cx="73.5894" cy="69.7188" fill="#E2E2F0" rx="8" ry="8" style="stroke:#181818;stroke-width:0.5;"/><path d="M73.5894,77.7188 L73.5894,104.7188 M60.5894,85.7188 L86.5894,85.7188 M73.5894,104.7188 L60.5894,119.7188 M73.5894,104.7188 L86.5894,119.7188 " fill="none" style="stroke:#181818;stroke-width:0.5;"/><text fill="#000000" font-family="sans-serif" font-size="14" lengthAdjust="spacing" textLength="101.1787" x="20" y="1132.2598">Bagian Inventori</text><ellipse cx="73.5894" cy="1143.8359" fill="#E2E2F0" rx="8" ry="8" style="stroke:#181818;stroke-width:0.5;"/><path d="M73.5894,1151.8359 L73.5894,1178.8359 M60.5894,1159.8359 L86.5894,1159.8359 M73.5894,1178.8359 L60.5894,1193.8359 M73.5894,1178.8359 L86.5894,1193.8359 " fill="none" style="stroke:#181818;stroke-width:0.5;"/><rect fill="#E2E2F0" height="31.6094" rx="2.5" ry="2.5" style="stroke:#181818;stroke-width:0.5;" width="87.165" x="268.6084" y="106.2188"/><text fill="#000000" font-family="sans-serif" font-size="14" lengthAdjust="spacing" textLength="73.165" x="275.6084" y="127.752">HitungPage</text><rect fill="#E2E2F0" height="31.6094" rx="2.5" ry="2.5" style="stroke:#181818;stroke-width:0.5;" width="87.165" x="268.6084" y="1117.7266"/><text fill="#000000" font-family="sans-serif" font-size="14" lengthAdjust="spacing" textLength="73.165" x="275.6084" y="1139.2598">HitungPage</text><rect fill="#E2E2F0" height="31.6094" rx="2.5" ry="2.5" style="stroke:#181818;stroke-width:0.5;" width="115.1582" x="465.7725" y="106.2188"/><text fill="#000000" font-family="sans-serif" font-size="14" lengthAdjust="spacing" textLength="101.1582" x="472.7725" y="127.752">HitungController</text><rect fill="#E2E2F0" height="31.6094" rx="2.5" ry="2.5" style="stroke:#181818;stroke-width:0.5;" width="115.1582" x="465.7725" y="1117.7266"/><text fill="#000000" font-family="sans-serif" font-size="14" lengthAdjust="spacing" textLength="101.1582" x="472.7725" y="1139.2598">HitungController</text><rect fill="#E2E2F0" height="31.6094" rx="2.5" ry="2.5" style="stroke:#181818;stroke-width:0.5;" width="54.4688" x="696.2583" y="106.2188"/><text fill="#000000" font-family="sans-serif" font-size="14" lengthAdjust="spacing" textLength="40.4688" x="703.2583" y="127.752">Hitung</text><rect fill="#E2E2F0" height="31.6094" rx="2.5" ry="2.5" style="stroke:#181818;stroke-width:0.5;" width="54.4688" x="696.2583" y="1117.7266"/><text fill="#000000" font-family="sans-serif" font-size="14" lengthAdjust="spacing" textLength="40.4688" x="703.2583" y="1139.2598">Hitung</text><rect fill="#E2E2F0" height="31.6094" rx="2.5" ry="2.5" style="stroke:#181818;stroke-width:0.5;" width="90.2617" x="864.1611" y="106.2188"/><text fill="#000000" font-family="sans-serif" font-size="14" lengthAdjust="spacing" textLength="76.2617" x="871.1611" y="127.752">HitungDetail</text><rect fill="#E2E2F0" height="31.6094" rx="2.5" ry="2.5" style="stroke:#181818;stroke-width:0.5;" width="90.2617" x="864.1611" y="1117.7266"/><text fill="#000000" font-family="sans-serif" font-size="14" lengthAdjust="spacing" textLength="76.2617" x="871.1611" y="1139.2598">HitungDetail</text><rect fill="#E2E2F0" height="31.6094" rx="2.5" ry="2.5" style="stroke:#181818;stroke-width:0.5;" width="63.793" x="964.4229" y="106.2188"/><text fill="#000000" font-family="sans-serif" font-size="14" lengthAdjust="spacing" textLength="49.793" x="971.4229" y="127.752">Material</text><rect fill="#E2E2F0" height="31.6094" rx="2.5" ry="2.5" style="stroke:#181818;stroke-width:0.5;" width="63.793" x="964.4229" y="1117.7266"/><text fill="#000000" font-family="sans-serif" font-size="14" lengthAdjust="spacing" textLength="49.793" x="971.4229" y="1139.2598">Material</text><rect fill="#E2E2F0" height="31.6094" rx="2.5" ry="2.5" style="stroke:#181818;stroke-width:0.5;" width="99.5928" x="1038.2158" y="106.2188"/><text fill="#000000" font-family="sans-serif" font-size="14" lengthAdjust="spacing" textLength="85.5928" x="1045.2158" y="127.752">MaterialBatch</text><rect fill="#E2E2F0" height="31.6094" rx="2.5" ry="2.5" style="stroke:#181818;stroke-width:0.5;" width="99.5928" x="1038.2158" y="1117.7266"/><text fill="#000000" font-family="sans-serif" font-size="14" lengthAdjust="spacing" textLength="85.5928" x="1045.2158" y="1139.2598">MaterialBatch</text><rect fill="#E2E2F0" height="31.6094" rx="2.5" ry="2.5" style="stroke:#181818;stroke-width:0.5;" width="94.9443" x="1147.8086" y="106.2188"/><text fill="#000000" font-family="sans-serif" font-size="14" lengthAdjust="spacing" textLength="80.9443" x="1154.8086" y="127.752">InventoryLog</text><rect fill="#E2E2F0" height="31.6094" rx="2.5" ry="2.5" style="stroke:#181818;stroke-width:0.5;" width="94.9443" x="1147.8086" y="1117.7266"/><text fill="#000000" font-family="sans-serif" font-size="14" lengthAdjust="spacing" textLength="80.9443" x="1154.8086" y="1139.2598">InventoryLog</text><polygon fill="#181818" points="300.1909,167.1797,310.1909,171.1797,300.1909,175.1797,304.1909,171.1797" style="stroke:#181818;stroke-width:1.0;"/><line style="stroke:#181818;stroke-width:1.0;" x1="73.5894" x2="306.1909" y1="171.1797" y2="171.1797"/><text fill="#000000" font-family="sans-serif" font-size="13" lengthAdjust="spacing" textLength="158.9897" x="113.3953" y="166.3232">Mengakses halaman hitung</text><polygon fill="#181818" points="511.3516,197.5313,521.3516,201.5313,511.3516,205.5313,515.3516,201.5313" style="stroke:#181818;stroke-width:1.0;"/><line style="stroke:#181818;stroke-width:1.0;" x1="312.1909" x2="517.3516" y1="201.5313" y2="201.5313"/><text fill="#000000" font-family="sans-serif" font-size="13" lengthAdjust="spacing" textLength="44.7891" x="395.3767" y="196.6748">mount()</text><polygon fill="#181818" points="711.4927,227.8828,721.4927,231.8828,711.4927,235.8828,715.4927,231.8828" style="stroke:#181818;stroke-width:1.0;"/><line style="stroke:#181818;stroke-width:1.0;" x1="523.3516" x2="717.4927" y1="231.8828" y2="231.8828"/><text fill="#000000" font-family="sans-serif" font-size="13" lengthAdjust="spacing" textLength="41.1772" x="602.8335" y="227.0264">getAll()</text><polygon fill="#181818" points="323.1909,258.2344,313.1909,262.2344,323.1909,266.2344,319.1909,262.2344" style="stroke:#181818;stroke-width:1.0;"/><line style="stroke:#181818;stroke-width:1.0;stroke-dasharray:2.0,2.0;" x1="317.1909" x2="522.3516" y1="262.2344" y2="262.2344"/><text fill="#000000" font-family="sans-serif" font-size="13" lengthAdjust="spacing" textLength="106.9326" x="364.3049" y="257.3779">displayHitungList()</text><polygon fill="#181818" points="300.1909,288.5859,310.1909,292.5859,300.1909,296.5859,304.1909,292.5859" style="stroke:#181818;stroke-width:1.0;"/><line style="stroke:#181818;stroke-width:1.0;" x1="73.5894" x2="306.1909" y1="292.5859" y2="292.5859"/><text fill="#000000" font-family="sans-serif" font-size="13" lengthAdjust="spacing" textLength="143.8125" x="120.9839" y="287.7295">Membuat rencana hitung</text><polygon fill="#181818" points="511.3516,318.9375,521.3516,322.9375,511.3516,326.9375,515.3516,322.9375" style="stroke:#181818;stroke-width:1.0;"/><line style="stroke:#181818;stroke-width:1.0;" x1="312.1909" x2="517.3516" y1="322.9375" y2="322.9375"/><text fill="#000000" font-family="sans-serif" font-size="13" lengthAdjust="spacing" textLength="82.3672" x="376.5876" y="318.0811">createHitung()</text><polygon fill="#181818" points="711.4927,349.2891,721.4927,353.2891,711.4927,357.2891,715.4927,353.2891" style="stroke:#181818;stroke-width:1.0;"/><line style="stroke:#181818;stroke-width:1.0;" x1="523.3516" x2="717.4927" y1="353.2891" y2="353.2891"/><text fill="#000000" font-family="sans-serif" font-size="13" lengthAdjust="spacing" textLength="119.9517" x="563.4463" y="348.4326">create(user_id, date)</text><line style="stroke:#181818;stroke-width:1.0;" x1="723.4927" x2="765.4927" y1="383.6406" y2="383.6406"/><line style="stroke:#181818;stroke-width:1.0;" x1="765.4927" x2="765.4927" y1="383.6406" y2="396.6406"/><line style="stroke:#181818;stroke-width:1.0;" x1="724.4927" x2="765.4927" y1="396.6406" y2="396.6406"/><polygon fill="#181818" points="734.4927,392.6406,724.4927,396.6406,734.4927,400.6406,730.4927,396.6406" style="stroke:#181818;stroke-width:1.0;"/><text fill="#000000" font-family="sans-serif" font-size="13" lengthAdjust="spacing" textLength="171.7993" x="730.4927" y="378.7842">generateHitungNumber("HC")</text><polygon fill="#181818" points="323.1909,422.9922,313.1909,426.9922,323.1909,430.9922,319.1909,426.9922" style="stroke:#181818;stroke-width:1.0;"/><line style="stroke:#181818;stroke-width:1.0;stroke-dasharray:2.0,2.0;" x1="317.1909" x2="522.3516" y1="426.9922" y2="426.9922"/><text fill="#000000" font-family="sans-serif" font-size="13" lengthAdjust="spacing" textLength="106.9136" x="364.3145" y="422.1357">showHitungForm()</text><path d="M10,441.9922 L82.4346,441.9922 L82.4346,450.3438 L72.4346,460.3438 L10,460.3438 L10,441.9922 " fill="#EEEEEE" style="stroke:#000000;stroke-width:1.5;"/><rect fill="none" height="109.4063" style="stroke:#000000;stroke-width:1.5;" width="954.4229" x="10" y="441.9922"/><text fill="#000000" font-family="sans-serif" font-size="13" font-weight="bold" lengthAdjust="spacing" textLength="27.4346" x="25" y="456.4873">loop</text><text fill="#000000" font-family="sans-serif" font-size="11" font-weight="bold" lengthAdjust="spacing" textLength="109.4092" x="97.4346" y="455.4111">[Menambahkan Item]</text><polygon fill="#181818" points="300.1909,478.6953,310.1909,482.6953,300.1909,486.6953,304.1909,482.6953" style="stroke:#181818;stroke-width:1.0;"/><line style="stroke:#181818;stroke-width:1.0;" x1="73.5894" x2="306.1909" y1="482.6953" y2="482.6953"/><text fill="#000000" font-family="sans-serif" font-size="13" lengthAdjust="spacing" textLength="164.7471" x="110.5166" y="477.8389">addItem(material_id, unit_id)</text><polygon fill="#181818" points="511.3516,509.0469,521.3516,513.0469,511.3516,517.0469,515.3516,513.0469" style="stroke:#181818;stroke-width:1.0;"/><line style="stroke:#181818;stroke-width:1.0;" x1="312.1909" x2="517.3516" y1="513.0469" y2="513.0469"/><text fill="#000000" font-family="sans-serif" font-size="13" lengthAdjust="spacing" textLength="187.1606" x="324.1909" y="508.1904">addDetail(hitung_id, material_id)</text><polygon fill="#181818" points="897.292,539.3984,907.292,543.3984,897.292,547.3984,901.292,543.3984" style="stroke:#181818;stroke-width:1.0;"/><line style="stroke:#181818;stroke-width:1.0;" x1="523.3516" x2="903.292" y1="543.3984" y2="543.3984"/><text fill="#000000" font-family="sans-serif" font-size="13" lengthAdjust="spacing" textLength="213.897" x="609.3733" y="538.542">create(hitung_id, material_id, unit_id)</text><polygon fill="#181818" points="300.1909,576.75,310.1909,580.75,300.1909,584.75,304.1909,580.75" style="stroke:#181818;stroke-width:1.0;"/><line style="stroke:#181818;stroke-width:1.0;" x1="73.5894" x2="306.1909" y1="580.75" y2="580.75"/><text fill="#000000" font-family="sans-serif" font-size="13" lengthAdjust="spacing" textLength="158.9897" x="113.3953" y="575.8936">Memulai penghitungan stok</text><polygon fill="#181818" points="511.3516,607.1016,521.3516,611.1016,511.3516,615.1016,515.3516,611.1016" style="stroke:#181818;stroke-width:1.0;"/><line style="stroke:#181818;stroke-width:1.0;" x1="312.1909" x2="517.3516" y1="611.1016" y2="611.1016"/><text fill="#000000" font-family="sans-serif" font-size="13" lengthAdjust="spacing" textLength="124.2871" x="355.6277" y="606.2451">startHitung(hitung_id)</text><polygon fill="#181818" points="711.4927,637.4531,721.4927,641.4531,711.4927,645.4531,715.4927,641.4531" style="stroke:#181818;stroke-width:1.0;"/><line style="stroke:#181818;stroke-width:1.0;" x1="523.3516" x2="717.4927" y1="641.4531" y2="641.4531"/><text fill="#000000" font-family="sans-serif" font-size="13" lengthAdjust="spacing" textLength="176.1411" x="535.3516" y="636.5967">updateStatus("Dalam Proses")</text><path d="M10,656.4531 L82.4346,656.4531 L82.4346,664.8047 L72.4346,674.8047 L10,674.8047 L10,656.4531 " fill="#EEEEEE" style="stroke:#000000;stroke-width:1.5;"/><rect fill="none" height="170.1094" style="stroke:#000000;stroke-width:1.5;" width="954.4229" x="10" y="656.4531"/><text fill="#000000" font-family="sans-serif" font-size="13" font-weight="bold" lengthAdjust="spacing" textLength="27.4346" x="25" y="670.9482">loop</text><text fill="#000000" font-family="sans-serif" font-size="11" font-weight="bold" lengthAdjust="spacing" textLength="100.23" x="97.4346" y="669.8721">[Untuk Setiap Item]</text><polygon fill="#181818" points="897.292,693.1563,907.292,697.1563,897.292,701.1563,901.292,697.1563" style="stroke:#181818;stroke-width:1.0;"/><line style="stroke:#181818;stroke-width:1.0;" x1="523.3516" x2="903.292" y1="697.1563" y2="697.1563"/><text fill="#000000" font-family="sans-serif" font-size="13" lengthAdjust="spacing" textLength="118.4854" x="657.0791" y="692.2998">getSystemQuantity()</text><polygon fill="#181818" points="323.1909,723.5078,313.1909,727.5078,323.1909,731.5078,319.1909,727.5078" style="stroke:#181818;stroke-width:1.0;"/><line style="stroke:#181818;stroke-width:1.0;stroke-dasharray:2.0,2.0;" x1="317.1909" x2="522.3516" y1="727.5078" y2="727.5078"/><text fill="#000000" font-family="sans-serif" font-size="13" lengthAdjust="spacing" textLength="140.8799" x="347.3313" y="722.6514">displaySystemQuantity()</text><polygon fill="#181818" points="300.1909,753.8594,310.1909,757.8594,300.1909,761.8594,304.1909,757.8594" style="stroke:#181818;stroke-width:1.0;"/><line style="stroke:#181818;stroke-width:1.0;" x1="73.5894" x2="306.1909" y1="757.8594" y2="757.8594"/><text fill="#000000" font-family="sans-serif" font-size="13" lengthAdjust="spacing" textLength="214.6016" x="85.5894" y="753.0029">Memasukkan kuantitas aktual(actual)</text><polygon fill="#181818" points="511.3516,784.2109,521.3516,788.2109,511.3516,792.2109,515.3516,788.2109" style="stroke:#181818;stroke-width:1.0;"/><line style="stroke:#181818;stroke-width:1.0;" x1="312.1909" x2="517.3516" y1="788.2109" y2="788.2109"/><text fill="#000000" font-family="sans-serif" font-size="13" lengthAdjust="spacing" textLength="174.8906" x="330.3259" y="783.3545">updateActual(detail_id, actual)</text><polygon fill="#181818" points="897.292,814.5625,907.292,818.5625,897.292,822.5625,901.292,818.5625" style="stroke:#181818;stroke-width:1.0;"/><line style="stroke:#181818;stroke-width:1.0;" x1="523.3516" x2="903.292" y1="818.5625" y2="818.5625"/><text fill="#000000" font-family="sans-serif" font-size="13" lengthAdjust="spacing" textLength="119.2153" x="656.7141" y="813.7061">calculateDifference()</text><polygon fill="#181818" points="300.1909,851.9141,310.1909,855.9141,300.1909,859.9141,304.1909,855.9141" style="stroke:#181818;stroke-width:1.0;"/><line style="stroke:#181818;stroke-width:1.0;" x1="73.5894" x2="306.1909" y1="855.9141" y2="855.9141"/><text fill="#000000" font-family="sans-serif" font-size="13" lengthAdjust="spacing" textLength="186.4497" x="99.6653" y="851.0576">Menyelesaikan perhitungan stok</text><polygon fill="#181818" points="511.3516,882.2656,521.3516,886.2656,511.3516,890.2656,515.3516,886.2656" style="stroke:#181818;stroke-width:1.0;"/><line style="stroke:#181818;stroke-width:1.0;" x1="312.1909" x2="517.3516" y1="886.2656" y2="886.2656"/><text fill="#000000" font-family="sans-serif" font-size="13" lengthAdjust="spacing" textLength="129.3525" x="353.095" y="881.4092">finishHitung(hitung_id)</text><path d="M455.7725,901.2656 L528.207,901.2656 L528.207,909.6172 L518.207,919.6172 L455.7725,919.6172 L455.7725,901.2656 " fill="#EEEEEE" style="stroke:#000000;stroke-width:1.5;"/><rect fill="none" height="109.4063" style="stroke:#000000;stroke-width:1.5;" width="796.9805" x="455.7725" y="901.2656"/><text fill="#000000" font-family="sans-serif" font-size="13" font-weight="bold" lengthAdjust="spacing" textLength="27.4346" x="470.7725" y="915.7607">loop</text><text fill="#000000" font-family="sans-serif" font-size="11" font-weight="bold" lengthAdjust="spacing" textLength="180.9146" x="543.207" y="914.6846">[Untuk Setiap Item dengan Selisih]</text><polygon fill="#181818" points="1076.0122,937.9688,1086.0122,941.9688,1076.0122,945.9688,1080.0122,941.9688" style="stroke:#181818;stroke-width:1.0;"/><line style="stroke:#181818;stroke-width:1.0;" x1="523.3516" x2="1082.0122" y1="941.9688" y2="941.9688"/><text fill="#000000" font-family="sans-serif" font-size="13" lengthAdjust="spacing" textLength="148.8525" x="731.2556" y="937.1123">adjustQuantity(difference)</text><polygon fill="#181818" points="1183.2808,968.3203,1193.2808,972.3203,1183.2808,976.3203,1187.2808,972.3203" style="stroke:#181818;stroke-width:1.0;"/><line style="stroke:#181818;stroke-width:1.0;" x1="523.3516" x2="1189.2808" y1="972.3203" y2="972.3203"/><text fill="#000000" font-family="sans-serif" font-size="13" lengthAdjust="spacing" textLength="131.7202" x="793.4561" y="967.4639">create(action="hitung")</text><polygon fill="#181818" points="984.3193,998.6719,994.3193,1002.6719,984.3193,1006.6719,988.3193,1002.6719" style="stroke:#181818;stroke-width:1.0;"/><line style="stroke:#181818;stroke-width:1.0;" x1="523.3516" x2="990.3193" y1="1002.6719" y2="1002.6719"/><text fill="#000000" font-family="sans-serif" font-size="13" lengthAdjust="spacing" textLength="108.3799" x="705.6455" y="997.8154">recalculateStatus()</text><polygon fill="#181818" points="711.4927,1036.0234,721.4927,1040.0234,711.4927,1044.0234,715.4927,1040.0234" style="stroke:#181818;stroke-width:1.0;"/><line style="stroke:#181818;stroke-width:1.0;" x1="523.3516" x2="717.4927" y1="1040.0234" y2="1040.0234"/><text fill="#000000" font-family="sans-serif" font-size="13" lengthAdjust="spacing" textLength="95.3672" x="575.7385" y="1035.167">calculateTotals()</text><polygon fill="#181818" points="711.4927,1066.375,721.4927,1070.375,711.4927,1074.375,715.4927,1070.375" style="stroke:#181818;stroke-width:1.0;"/><line style="stroke:#181818;stroke-width:1.0;" x1="523.3516" x2="717.4927" y1="1070.375" y2="1070.375"/><text fill="#000000" font-family="sans-serif" font-size="13" lengthAdjust="spacing" textLength="137.1411" x="554.8516" y="1065.5186">updateStatus("Selesai")</text><polygon fill="#181818" points="323.1909,1096.7266,313.1909,1100.7266,323.1909,1104.7266,319.1909,1100.7266" style="stroke:#181818;stroke-width:1.0;"/><line style="stroke:#181818;stroke-width:1.0;stroke-dasharray:2.0,2.0;" x1="317.1909" x2="522.3516" y1="1100.7266" y2="1100.7266"/><text fill="#000000" font-family="sans-serif" font-size="13" lengthAdjust="spacing" textLength="94.6245" x="370.459" y="1095.8701">showSummary()</text><!--SRC=[VLF1Rjim3BtxAmIV763xWG4Rq2GOMY3UChYx3HXOcxKvov8dKHlozwCi9t5QTxau8Xz5liSdtvCPmS6WFFuEQ6eiqNjeyKvJQrIDXj5b6HDhLDKCKNk2Lcf-c8fjtQkleu41LN5F74oxoJAesJgLRw4bCEh1_95hhADSWO-dJ3eorJI2OPMdggFqdFBtnxNqpXfsLcjq2RHR0wLKkPRQ8mFf1DZV0aeGYWGfMJwk9xV0TPSGsrl4cTtfODC03uSiaw1w_qcug0-gHDD2xz6h3ZGC8aWtZPH9Dc9sWXbiC5niCZd4K2cX5lbEwpbslgiXFseu9Ku7yh7cHRFXAG0h9ti20okjQeV2ATrmsp5bYk3H_QJcdMha981oCP91Tod-4eOdT4L-lyjlX_IT_PiWdwqRueJQsZ7g0CCJT7sq1EEGAVajPuUcYV5Yc3MVXWY6MFvi9lI2Xe3JJej4SG8lAkU2n6v_PRUENlH1qxoID6WWDSeUKxKGy6pxfQgUnHEpg9SMD-g6CUfPCN3mHRwFLb17PyKN-LcXxuP3Bw-C2SQhH0iEuedgv2NnBOZtY4_5bUOBYwpYNj027_guZJwXnBlGSm1ToFkLpolD4uMxALaqa_gJTZVmXUAWQr6ESK_FpnWTYSMglkQ46ZrGd6L4zwR8psJ8TwzLVaCzrU1qJOMQF7MByShjvA1VmVD5eUOov9B8m-5g7Q59rdpCK-Ty2IiV1URmmdXUyyns-SREY4VBe7tn7ujKIPILnrM5OG0Nb_eF]--></g></svg>