<svg xmlns="http://www.w3.org/2000/svg" xmlns:xlink="http://www.w3.org/1999/xlink" contentStyleType="text/css" height="2229px" preserveAspectRatio="none" style="width:1077px;height:2229px;background:#FFFFFF;" version="1.1" viewBox="0 0 1077 2229" width="1077px" zoomAndPan="magnify"><title>Sequence Diagram: Mengelola Supplier</title><defs/><g><text fill="#000000" font-family="sans-serif" font-size="14" font-weight="bold" lengthAdjust="spacing" textLength="262.9512" x="403.4136" y="29.5332">Sequence Diagram: Mengelola Supplier</text><rect fill="#FFFFFF" height="242.8125" style="stroke:#181818;stroke-width:1.0;" width="10" x="191.8652" y="197.9219"/><rect fill="#FFFFFF" height="182.1094" style="stroke:#181818;stroke-width:1.0;" width="10" x="400.0151" y="228.2734"/><rect fill="#FFFFFF" height="225.4609" style="stroke:#181818;stroke-width:1.0;" width="10" x="400.0151" y="667.1953"/><rect fill="#FFFFFF" height="217.8125" style="stroke:#181818;stroke-width:1.0;" width="10" x="400.0151" y="997.7109"/><rect fill="#FFFFFF" height="30.3516" style="stroke:#181818;stroke-width:1.0;" width="10" x="400.0151" y="1356.2813"/><rect fill="#FFFFFF" height="195.1094" style="stroke:#181818;stroke-width:1.0;" width="10" x="400.0151" y="1447.3359"/><rect fill="#FFFFFF" height="359.7031" style="stroke:#181818;stroke-width:1.0;" width="10" x="400.0151" y="1777.8516"/><rect fill="#FFFFFF" height="121.4063" style="stroke:#181818;stroke-width:1.0;" width="10" x="679.2778" y="258.625"/><rect fill="#FFFFFF" height="91.0547" style="stroke:#181818;stroke-width:1.0;" width="10" x="679.2778" y="740.8984"/><rect fill="#FFFFFF" height="121.4063" style="stroke:#181818;stroke-width:1.0;" width="10" x="679.2778" y="1028.0625"/><rect fill="#FFFFFF" height="91.0547" style="stroke:#181818;stroke-width:1.0;" width="10" x="679.2778" y="1521.0391"/><rect fill="#FFFFFF" height="91.0547" style="stroke:#181818;stroke-width:1.0;" width="10" x="679.2778" y="1808.2031"/><rect fill="#FFFFFF" height="91.0547" style="stroke:#181818;stroke-width:1.0;" width="10" x="679.2778" y="1954.9609"/><rect fill="none" height="216.2969" style="stroke:#000000;stroke-width:1.5;" width="936.5542" x="124.2241" y="1914.2578"/><line style="stroke:#181818;stroke-width:0.5;stroke-dasharray:5.0,5.0;" x1="34" x2="34" y1="121.2188" y2="2147.5547"/><line style="stroke:#181818;stroke-width:0.5;stroke-dasharray:5.0,5.0;" x1="196.2241" x2="196.2241" y1="121.2188" y2="2147.5547"/><line style="stroke:#181818;stroke-width:0.5;stroke-dasharray:5.0,5.0;" x1="404.2085" x2="404.2085" y1="121.2188" y2="2147.5547"/><line style="stroke:#181818;stroke-width:0.5;stroke-dasharray:5.0,5.0;" x1="683.5952" x2="683.5952" y1="121.2188" y2="2147.5547"/><line style="stroke:#181818;stroke-width:0.5;stroke-dasharray:5.0,5.0;" x1="1016.8477" x2="1016.8477" y1="121.2188" y2="2147.5547"/><text fill="#000000" font-family="sans-serif" font-size="14" lengthAdjust="spacing" textLength="53.6963" x="5" y="118.1426">Inventori</text><ellipse cx="34.8481" cy="52.1094" fill="#E2E2F0" rx="8" ry="8" style="stroke:#181818;stroke-width:0.5;"/><path d="M34.8481,60.1094 L34.8481,87.1094 M21.8481,68.1094 L47.8481,68.1094 M34.8481,87.1094 L21.8481,102.1094 M34.8481,87.1094 L47.8481,102.1094 " fill="none" style="stroke:#181818;stroke-width:0.5;"/><text fill="#000000" font-family="sans-serif" font-size="14" lengthAdjust="spacing" textLength="53.6963" x="5" y="2161.0879">Inventori</text><ellipse cx="34.8481" cy="2172.6641" fill="#E2E2F0" rx="8" ry="8" style="stroke:#181818;stroke-width:0.5;"/><path d="M34.8481,2180.6641 L34.8481,2207.6641 M21.8481,2188.6641 L47.8481,2188.6641 M34.8481,2207.6641 L21.8481,2222.6641 M34.8481,2207.6641 L47.8481,2222.6641 " fill="none" style="stroke:#181818;stroke-width:0.5;"/><rect fill="#E2E2F0" height="31.6094" rx="2.5" ry="2.5" style="stroke:#181818;stroke-width:0.5;" width="125.2822" x="134.2241" y="88.6094"/><text fill="#000000" font-family="sans-serif" font-size="14" lengthAdjust="spacing" textLength="111.2822" x="141.2241" y="110.1426">Halaman Supplier</text><rect fill="#E2E2F0" height="31.6094" rx="2.5" ry="2.5" style="stroke:#181818;stroke-width:0.5;" width="125.2822" x="134.2241" y="2146.5547"/><text fill="#000000" font-family="sans-serif" font-size="14" lengthAdjust="spacing" textLength="111.2822" x="141.2241" y="2168.0879">Halaman Supplier</text><rect fill="#E2E2F0" height="49.2188" rx="2.5" ry="2.5" style="stroke:#181818;stroke-width:0.5;" width="99.6133" x="355.2085" y="71"/><text fill="#000000" font-family="sans-serif" font-size="14" lengthAdjust="spacing" textLength="85.6133" x="362.2085" y="92.5332">SupplierIndex</text><text fill="#000000" font-family="sans-serif" font-size="14" lengthAdjust="spacing" textLength="72.3789" x="368.8257" y="110.1426">Component</text><rect fill="#E2E2F0" height="49.2188" rx="2.5" ry="2.5" style="stroke:#181818;stroke-width:0.5;" width="99.6133" x="355.2085" y="2146.5547"/><text fill="#000000" font-family="sans-serif" font-size="14" lengthAdjust="spacing" textLength="85.6133" x="362.2085" y="2168.0879">SupplierIndex</text><text fill="#000000" font-family="sans-serif" font-size="14" lengthAdjust="spacing" textLength="72.3789" x="368.8257" y="2185.6973">Component</text><rect fill="#E2E2F0" height="49.2188" rx="2.5" ry="2.5" style="stroke:#181818;stroke-width:0.5;" width="65.3652" x="651.5952" y="71"/><text fill="#000000" font-family="sans-serif" font-size="14" lengthAdjust="spacing" textLength="51.3652" x="658.5952" y="92.5332">Supplier</text><text fill="#000000" font-family="sans-serif" font-size="14" lengthAdjust="spacing" textLength="38.1309" x="665.2124" y="110.1426">Model</text><rect fill="#E2E2F0" height="49.2188" rx="2.5" ry="2.5" style="stroke:#181818;stroke-width:0.5;" width="65.3652" x="651.5952" y="2146.5547"/><text fill="#000000" font-family="sans-serif" font-size="14" lengthAdjust="spacing" textLength="51.3652" x="658.5952" y="2168.0879">Supplier</text><text fill="#000000" font-family="sans-serif" font-size="14" lengthAdjust="spacing" textLength="38.1309" x="665.2124" y="2185.6973">Model</text><text fill="#000000" font-family="sans-serif" font-size="14" lengthAdjust="spacing" textLength="59.9307" x="984.8477" y="118.1426">Database</text><path d="M999.813,67.6094 C999.813,57.6094 1017.813,57.6094 1017.813,57.6094 C1017.813,57.6094 1035.813,57.6094 1035.813,67.6094 L1035.813,93.6094 C1035.813,103.6094 1017.813,103.6094 1017.813,103.6094 C1017.813,103.6094 999.813,103.6094 999.813,93.6094 L999.813,67.6094 " fill="#E2E2F0" style="stroke:#181818;stroke-width:1.5;"/><path d="M999.813,67.6094 C999.813,77.6094 1017.813,77.6094 1017.813,77.6094 C1017.813,77.6094 1035.813,77.6094 1035.813,67.6094 " fill="none" style="stroke:#181818;stroke-width:1.5;"/><text fill="#000000" font-family="sans-serif" font-size="14" lengthAdjust="spacing" textLength="59.9307" x="984.8477" y="2161.0879">Database</text><path d="M999.813,2174.1641 C999.813,2164.1641 1017.813,2164.1641 1017.813,2164.1641 C1017.813,2164.1641 1035.813,2164.1641 1035.813,2174.1641 L1035.813,2200.1641 C1035.813,2210.1641 1017.813,2210.1641 1017.813,2210.1641 C1017.813,2210.1641 999.813,2210.1641 999.813,2200.1641 L999.813,2174.1641 " fill="#E2E2F0" style="stroke:#181818;stroke-width:1.5;"/><path d="M999.813,2174.1641 C999.813,2184.1641 1017.813,2184.1641 1017.813,2184.1641 C1017.813,2184.1641 1035.813,2184.1641 1035.813,2174.1641 " fill="none" style="stroke:#181818;stroke-width:1.5;"/><rect fill="#FFFFFF" height="242.8125" style="stroke:#181818;stroke-width:1.0;" width="10" x="191.8652" y="197.9219"/><rect fill="#FFFFFF" height="182.1094" style="stroke:#181818;stroke-width:1.0;" width="10" x="400.0151" y="228.2734"/><rect fill="#FFFFFF" height="225.4609" style="stroke:#181818;stroke-width:1.0;" width="10" x="400.0151" y="667.1953"/><rect fill="#FFFFFF" height="217.8125" style="stroke:#181818;stroke-width:1.0;" width="10" x="400.0151" y="997.7109"/><rect fill="#FFFFFF" height="30.3516" style="stroke:#181818;stroke-width:1.0;" width="10" x="400.0151" y="1356.2813"/><rect fill="#FFFFFF" height="195.1094" style="stroke:#181818;stroke-width:1.0;" width="10" x="400.0151" y="1447.3359"/><rect fill="#FFFFFF" height="359.7031" style="stroke:#181818;stroke-width:1.0;" width="10" x="400.0151" y="1777.8516"/><rect fill="#FFFFFF" height="121.4063" style="stroke:#181818;stroke-width:1.0;" width="10" x="679.2778" y="258.625"/><rect fill="#FFFFFF" height="91.0547" style="stroke:#181818;stroke-width:1.0;" width="10" x="679.2778" y="740.8984"/><rect fill="#FFFFFF" height="121.4063" style="stroke:#181818;stroke-width:1.0;" width="10" x="679.2778" y="1028.0625"/><rect fill="#FFFFFF" height="91.0547" style="stroke:#181818;stroke-width:1.0;" width="10" x="679.2778" y="1521.0391"/><rect fill="#FFFFFF" height="91.0547" style="stroke:#181818;stroke-width:1.0;" width="10" x="679.2778" y="1808.2031"/><rect fill="#FFFFFF" height="91.0547" style="stroke:#181818;stroke-width:1.0;" width="10" x="679.2778" y="1954.9609"/><rect fill="#EEEEEE" height="3" style="stroke:#EEEEEE;stroke-width:1.0;" width="1070.7783" x="0" y="152.3945"/><line style="stroke:#000000;stroke-width:1.0;" x1="0" x2="1070.7783" y1="152.3945" y2="152.3945"/><line style="stroke:#000000;stroke-width:1.0;" x1="0" x2="1070.7783" y1="155.3945" y2="155.3945"/><rect fill="#EEEEEE" height="24.3516" style="stroke:#000000;stroke-width:2.0;" width="159.1899" x="455.7942" y="141.2188"/><text fill="#000000" font-family="sans-serif" font-size="13" font-weight="bold" lengthAdjust="spacing" textLength="141.5781" x="461.7942" y="158.7139">Melihat Daftar Supplier</text><polygon fill="#181818" points="179.8652,193.9219,189.8652,197.9219,179.8652,201.9219,183.8652,197.9219" style="stroke:#181818;stroke-width:1.0;"/><line style="stroke:#181818;stroke-width:1.0;" x1="34.8481" x2="185.8652" y1="197.9219" y2="197.9219"/><text fill="#000000" font-family="sans-serif" font-size="13" lengthAdjust="spacing" textLength="138.0171" x="41.8481" y="193.0654">Akses halaman supplier</text><polygon fill="#181818" points="388.0151,224.2734,398.0151,228.2734,388.0151,232.2734,392.0151,228.2734" style="stroke:#181818;stroke-width:1.0;"/><line style="stroke:#181818;stroke-width:1.0;" x1="201.8652" x2="394.0151" y1="228.2734" y2="228.2734"/><text fill="#000000" font-family="sans-serif" font-size="13" lengthAdjust="spacing" textLength="44.7891" x="208.8652" y="223.417">mount()</text><polygon fill="#181818" points="667.2778,254.625,677.2778,258.625,667.2778,262.625,671.2778,258.625" style="stroke:#181818;stroke-width:1.0;"/><line style="stroke:#181818;stroke-width:1.0;" x1="410.0151" x2="673.2778" y1="258.625" y2="258.625"/><text fill="#000000" font-family="sans-serif" font-size="13" lengthAdjust="spacing" textLength="224.269" x="417.0151" y="253.7686">Supplier::withCount('shoppings')-&gt;get()</text><polygon fill="#181818" points="1005.813,284.9766,1015.813,288.9766,1005.813,292.9766,1009.813,288.9766" style="stroke:#181818;stroke-width:1.0;"/><line style="stroke:#181818;stroke-width:1.0;" x1="689.2778" x2="1011.813" y1="288.9766" y2="288.9766"/><text fill="#000000" font-family="sans-serif" font-size="13" lengthAdjust="spacing" textLength="156.7617" x="696.2778" y="284.1201">SELECT * FROM suppliers</text><polygon fill="#181818" points="1005.813,315.3281,1015.813,319.3281,1005.813,323.3281,1009.813,319.3281" style="stroke:#181818;stroke-width:1.0;"/><line style="stroke:#181818;stroke-width:1.0;" x1="689.2778" x2="1011.813" y1="319.3281" y2="319.3281"/><text fill="#000000" font-family="sans-serif" font-size="13" lengthAdjust="spacing" textLength="163.2808" x="696.2778" y="314.4717">SELECT COUNT shoppings</text><polygon fill="#181818" points="700.2778,345.6797,690.2778,349.6797,700.2778,353.6797,696.2778,349.6797" style="stroke:#181818;stroke-width:1.0;"/><line style="stroke:#181818;stroke-width:1.0;stroke-dasharray:2.0,2.0;" x1="694.2778" x2="1016.813" y1="349.6797" y2="349.6797"/><text fill="#000000" font-family="sans-serif" font-size="13" lengthAdjust="spacing" textLength="76.5972" x="706.2778" y="344.8232">Data supplier</text><polygon fill="#181818" points="421.0151,376.0313,411.0151,380.0313,421.0151,384.0313,417.0151,380.0313" style="stroke:#181818;stroke-width:1.0;"/><line style="stroke:#181818;stroke-width:1.0;stroke-dasharray:2.0,2.0;" x1="415.0151" x2="683.2778" y1="380.0313" y2="380.0313"/><text fill="#000000" font-family="sans-serif" font-size="13" lengthAdjust="spacing" textLength="106.2217" x="427.0151" y="375.1748">Collection supplier</text><polygon fill="#181818" points="212.8652,406.3828,202.8652,410.3828,212.8652,414.3828,208.8652,410.3828" style="stroke:#181818;stroke-width:1.0;"/><line style="stroke:#181818;stroke-width:1.0;stroke-dasharray:2.0,2.0;" x1="206.8652" x2="404.0151" y1="410.3828" y2="410.3828"/><text fill="#000000" font-family="sans-serif" font-size="13" lengthAdjust="spacing" textLength="79.4917" x="218.8652" y="405.5264">Render daftar</text><polygon fill="#181818" points="45.8481,436.7344,35.8481,440.7344,45.8481,444.7344,41.8481,440.7344" style="stroke:#181818;stroke-width:1.0;"/><line style="stroke:#181818;stroke-width:1.0;stroke-dasharray:2.0,2.0;" x1="39.8481" x2="195.8652" y1="440.7344" y2="440.7344"/><text fill="#000000" font-family="sans-serif" font-size="13" lengthAdjust="spacing" textLength="113.4453" x="51.8481" y="435.8779">Tampilkan halaman</text><rect fill="#EEEEEE" height="3" style="stroke:#EEEEEE;stroke-width:1.0;" width="1070.7783" x="0" y="469.9102"/><line style="stroke:#000000;stroke-width:1.0;" x1="0" x2="1070.7783" y1="469.9102" y2="469.9102"/><line style="stroke:#000000;stroke-width:1.0;" x1="0" x2="1070.7783" y1="472.9102" y2="472.9102"/><rect fill="#EEEEEE" height="24.3516" style="stroke:#000000;stroke-width:2.0;" width="141.1309" x="464.8237" y="458.7344"/><text fill="#000000" font-family="sans-serif" font-size="13" font-weight="bold" lengthAdjust="spacing" textLength="123.519" x="470.8237" y="476.2295">Menambah Supplier</text><polygon fill="#181818" points="184.8652,511.4375,194.8652,515.4375,184.8652,519.4375,188.8652,515.4375" style="stroke:#181818;stroke-width:1.0;"/><line style="stroke:#181818;stroke-width:1.0;" x1="34.8481" x2="190.8652" y1="515.4375" y2="515.4375"/><text fill="#000000" font-family="sans-serif" font-size="13" lengthAdjust="spacing" textLength="114.8799" x="41.8481" y="510.5811">Klik tombol Tambah</text><polygon fill="#181818" points="45.8481,541.7891,35.8481,545.7891,45.8481,549.7891,41.8481,545.7891" style="stroke:#181818;stroke-width:1.0;"/><line style="stroke:#181818;stroke-width:1.0;stroke-dasharray:2.0,2.0;" x1="39.8481" x2="195.8652" y1="545.7891" y2="545.7891"/><text fill="#000000" font-family="sans-serif" font-size="13" lengthAdjust="spacing" textLength="128.5972" x="51.8481" y="540.9326">Tampilkan modal form</text><polygon fill="#181818" points="393.0151,572.1406,403.0151,576.1406,393.0151,580.1406,397.0151,576.1406" style="stroke:#181818;stroke-width:1.0;"/><line style="stroke:#181818;stroke-width:1.0;" x1="34.8481" x2="399.0151" y1="576.1406" y2="576.1406"/><text fill="#000000" font-family="sans-serif" font-size="13" lengthAdjust="spacing" textLength="172.5166" x="41.8481" y="571.2842">set('name', 'Toko Bahan Kue')</text><polygon fill="#181818" points="393.0151,602.4922,403.0151,606.4922,393.0151,610.4922,397.0151,606.4922" style="stroke:#181818;stroke-width:1.0;"/><line style="stroke:#181818;stroke-width:1.0;" x1="34.8481" x2="399.0151" y1="606.4922" y2="606.4922"/><text fill="#000000" font-family="sans-serif" font-size="13" lengthAdjust="spacing" textLength="158.8311" x="41.8481" y="601.6357">set('phone', '08123456789')</text><polygon fill="#181818" points="393.0151,632.8438,403.0151,636.8438,393.0151,640.8438,397.0151,636.8438" style="stroke:#181818;stroke-width:1.0;"/><line style="stroke:#181818;stroke-width:1.0;" x1="34.8481" x2="399.0151" y1="636.8438" y2="636.8438"/><text fill="#000000" font-family="sans-serif" font-size="13" lengthAdjust="spacing" textLength="150.8076" x="41.8481" y="631.9873">set('address', 'Jl. Pasar...')</text><polygon fill="#181818" points="388.0151,663.1953,398.0151,667.1953,388.0151,671.1953,392.0151,667.1953" style="stroke:#181818;stroke-width:1.0;"/><line style="stroke:#181818;stroke-width:1.0;" x1="34.8481" x2="394.0151" y1="667.1953" y2="667.1953"/><text fill="#000000" font-family="sans-serif" font-size="13" lengthAdjust="spacing" textLength="36.1182" x="41.8481" y="662.3389">save()</text><line style="stroke:#181818;stroke-width:1.0;" x1="410.0151" x2="452.0151" y1="697.5469" y2="697.5469"/><line style="stroke:#181818;stroke-width:1.0;" x1="452.0151" x2="452.0151" y1="697.5469" y2="710.5469"/><line style="stroke:#181818;stroke-width:1.0;" x1="411.0151" x2="452.0151" y1="710.5469" y2="710.5469"/><polygon fill="#181818" points="421.0151,706.5469,411.0151,710.5469,421.0151,714.5469,417.0151,710.5469" style="stroke:#181818;stroke-width:1.0;"/><text fill="#000000" font-family="sans-serif" font-size="13" lengthAdjust="spacing" textLength="53.4663" x="417.0151" y="692.6904">validate()</text><polygon fill="#181818" points="667.2778,736.8984,677.2778,740.8984,667.2778,744.8984,671.2778,740.8984" style="stroke:#181818;stroke-width:1.0;"/><line style="stroke:#181818;stroke-width:1.0;" x1="410.0151" x2="673.2778" y1="740.8984" y2="740.8984"/><text fill="#000000" font-family="sans-serif" font-size="13" lengthAdjust="spacing" textLength="117.7681" x="417.0151" y="736.042">Supplier::create([...])</text><polygon fill="#181818" points="1005.813,767.25,1015.813,771.25,1005.813,775.25,1009.813,771.25" style="stroke:#181818;stroke-width:1.0;"/><line style="stroke:#181818;stroke-width:1.0;" x1="689.2778" x2="1011.813" y1="771.25" y2="771.25"/><text fill="#000000" font-family="sans-serif" font-size="13" lengthAdjust="spacing" textLength="137.9727" x="696.2778" y="766.3936">INSERT INTO suppliers</text><polygon fill="#181818" points="700.2778,797.6016,690.2778,801.6016,700.2778,805.6016,696.2778,801.6016" style="stroke:#181818;stroke-width:1.0;"/><line style="stroke:#181818;stroke-width:1.0;stroke-dasharray:2.0,2.0;" x1="694.2778" x2="1016.813" y1="801.6016" y2="801.6016"/><text fill="#000000" font-family="sans-serif" font-size="13" lengthAdjust="spacing" textLength="49.1309" x="706.2778" y="796.7451">Success</text><polygon fill="#181818" points="421.0151,827.9531,411.0151,831.9531,421.0151,835.9531,417.0151,831.9531" style="stroke:#181818;stroke-width:1.0;"/><line style="stroke:#181818;stroke-width:1.0;stroke-dasharray:2.0,2.0;" x1="415.0151" x2="683.2778" y1="831.9531" y2="831.9531"/><text fill="#000000" font-family="sans-serif" font-size="13" lengthAdjust="spacing" textLength="77.3271" x="427.0151" y="827.0967">Supplier baru</text><polygon fill="#181818" points="207.8652,858.3047,197.8652,862.3047,207.8652,866.3047,203.8652,862.3047" style="stroke:#181818;stroke-width:1.0;"/><line style="stroke:#181818;stroke-width:1.0;stroke-dasharray:2.0,2.0;" x1="201.8652" x2="399.0151" y1="862.3047" y2="862.3047"/><text fill="#000000" font-family="sans-serif" font-size="13" lengthAdjust="spacing" textLength="72.2617" x="213.8652" y="857.4482">Tutup modal</text><polygon fill="#181818" points="207.8652,888.6563,197.8652,892.6563,207.8652,896.6563,203.8652,892.6563" style="stroke:#181818;stroke-width:1.0;"/><line style="stroke:#181818;stroke-width:1.0;stroke-dasharray:2.0,2.0;" x1="201.8652" x2="404.0151" y1="892.6563" y2="892.6563"/><text fill="#000000" font-family="sans-serif" font-size="13" lengthAdjust="spacing" textLength="132.2217" x="213.8652" y="887.7998">Flash message sukses</text><rect fill="#EEEEEE" height="3" style="stroke:#EEEEEE;stroke-width:1.0;" width="1070.7783" x="0" y="921.832"/><line style="stroke:#000000;stroke-width:1.0;" x1="0" x2="1070.7783" y1="921.832" y2="921.832"/><line style="stroke:#000000;stroke-width:1.0;" x1="0" x2="1070.7783" y1="924.832" y2="924.832"/><rect fill="#EEEEEE" height="24.3516" style="stroke:#000000;stroke-width:2.0;" width="164.9917" x="452.8933" y="910.6563"/><text fill="#000000" font-family="sans-serif" font-size="13" font-weight="bold" lengthAdjust="spacing" textLength="147.3799" x="458.8933" y="928.1514">Melihat Riwayat Belanja</text><polygon fill="#181818" points="184.8652,963.3594,194.8652,967.3594,184.8652,971.3594,188.8652,967.3594" style="stroke:#181818;stroke-width:1.0;"/><line style="stroke:#181818;stroke-width:1.0;" x1="34.8481" x2="190.8652" y1="967.3594" y2="967.3594"/><text fill="#000000" font-family="sans-serif" font-size="13" lengthAdjust="spacing" textLength="106.2153" x="41.8481" y="962.5029">Klik nama supplier</text><polygon fill="#181818" points="388.0151,993.7109,398.0151,997.7109,388.0151,1001.7109,392.0151,997.7109" style="stroke:#181818;stroke-width:1.0;"/><line style="stroke:#181818;stroke-width:1.0;" x1="196.8652" x2="394.0151" y1="997.7109" y2="997.7109"/><text fill="#000000" font-family="sans-serif" font-size="13" lengthAdjust="spacing" textLength="124.979" x="203.8652" y="992.8545">showHistory(supplier)</text><polygon fill="#181818" points="667.2778,1024.0625,677.2778,1028.0625,667.2778,1032.0625,671.2778,1028.0625" style="stroke:#181818;stroke-width:1.0;"/><line style="stroke:#181818;stroke-width:1.0;" x1="410.0151" x2="673.2778" y1="1028.0625" y2="1028.0625"/><text fill="#000000" font-family="sans-serif" font-size="13" lengthAdjust="spacing" textLength="250.2627" x="417.0151" y="1023.2061">supplier-&gt;shoppings()-&gt;with('details')-&gt;get()</text><polygon fill="#181818" points="1005.813,1054.4141,1015.813,1058.4141,1005.813,1062.4141,1009.813,1058.4141" style="stroke:#181818;stroke-width:1.0;"/><line style="stroke:#181818;stroke-width:1.0;" x1="689.2778" x2="1011.813" y1="1058.4141" y2="1058.4141"/><text fill="#000000" font-family="sans-serif" font-size="13" lengthAdjust="spacing" textLength="304.5352" x="696.2778" y="1053.5576">SELECT * FROM shoppings WHERE supplier_id = ?</text><polygon fill="#181818" points="1005.813,1084.7656,1015.813,1088.7656,1005.813,1092.7656,1009.813,1088.7656" style="stroke:#181818;stroke-width:1.0;"/><line style="stroke:#181818;stroke-width:1.0;" x1="689.2778" x2="1011.813" y1="1088.7656" y2="1088.7656"/><text fill="#000000" font-family="sans-serif" font-size="13" lengthAdjust="spacing" textLength="202.3125" x="696.2778" y="1083.9092">SELECT * FROM shopping_details</text><polygon fill="#181818" points="700.2778,1115.1172,690.2778,1119.1172,700.2778,1123.1172,696.2778,1119.1172" style="stroke:#181818;stroke-width:1.0;"/><line style="stroke:#181818;stroke-width:1.0;stroke-dasharray:2.0,2.0;" x1="694.2778" x2="1016.813" y1="1119.1172" y2="1119.1172"/><text fill="#000000" font-family="sans-serif" font-size="13" lengthAdjust="spacing" textLength="91.7744" x="706.2778" y="1114.2607">Riwayat belanja</text><polygon fill="#181818" points="421.0151,1145.4688,411.0151,1149.4688,421.0151,1153.4688,417.0151,1149.4688" style="stroke:#181818;stroke-width:1.0;"/><line style="stroke:#181818;stroke-width:1.0;stroke-dasharray:2.0,2.0;" x1="415.0151" x2="683.2778" y1="1149.4688" y2="1149.4688"/><text fill="#000000" font-family="sans-serif" font-size="13" lengthAdjust="spacing" textLength="113.4644" x="427.0151" y="1144.6123">Collection shopping</text><polygon fill="#181818" points="207.8652,1211.5234,197.8652,1215.5234,207.8652,1219.5234,203.8652,1215.5234" style="stroke:#181818;stroke-width:1.0;"/><line style="stroke:#181818;stroke-width:1.0;stroke-dasharray:2.0,2.0;" x1="201.8652" x2="404.0151" y1="1215.5234" y2="1215.5234"/><text fill="#000000" font-family="sans-serif" font-size="13" lengthAdjust="spacing" textLength="143.7744" x="213.8652" y="1210.667">Tampilkan modal riwayat</text><path d="M415,1162.4688 L415,1253.4688 L566,1253.4688 L566,1172.4688 L556,1162.4688 L415,1162.4688 " fill="#FEFFDD" style="stroke:#181818;stroke-width:0.5;"/><path d="M556,1162.4688 L556,1172.4688 L566,1172.4688 L556,1162.4688 " fill="#FEFFDD" style="stroke:#181818;stroke-width:0.5;"/><text fill="#000000" font-family="sans-serif" font-size="13" lengthAdjust="spacing" textLength="130.7744" x="421" y="1180.9639">Riwayat menampilkan:</text><text fill="#000000" font-family="sans-serif" font-size="13" lengthAdjust="spacing" textLength="100.458" x="421" y="1197.3154">- Tanggal belanja</text><text fill="#000000" font-family="sans-serif" font-size="13" lengthAdjust="spacing" textLength="100.439" x="421" y="1213.667">- Total pembelian</text><text fill="#000000" font-family="sans-serif" font-size="13" lengthAdjust="spacing" textLength="111.2998" x="421" y="1230.0186">- Bahan yang dibeli</text><text fill="#000000" font-family="sans-serif" font-size="13" lengthAdjust="spacing" textLength="120.6753" x="421" y="1246.3701">- Status pembayaran</text><rect fill="#EEEEEE" height="3" style="stroke:#EEEEEE;stroke-width:1.0;" width="1070.7783" x="0" y="1280.4023"/><line style="stroke:#000000;stroke-width:1.0;" x1="0" x2="1070.7783" y1="1280.4023" y2="1280.4023"/><line style="stroke:#000000;stroke-width:1.0;" x1="0" x2="1070.7783" y1="1283.4023" y2="1283.4023"/><rect fill="#EEEEEE" height="24.3516" style="stroke:#000000;stroke-width:2.0;" width="130.2827" x="470.2478" y="1269.2266"/><text fill="#000000" font-family="sans-serif" font-size="13" font-weight="bold" lengthAdjust="spacing" textLength="112.6709" x="476.2478" y="1286.7217">Mengedit Supplier</text><polygon fill="#181818" points="184.8652,1321.9297,194.8652,1325.9297,184.8652,1329.9297,188.8652,1325.9297" style="stroke:#181818;stroke-width:1.0;"/><line style="stroke:#181818;stroke-width:1.0;" x1="34.8481" x2="190.8652" y1="1325.9297" y2="1325.9297"/><text fill="#000000" font-family="sans-serif" font-size="13" lengthAdjust="spacing" textLength="89.5908" x="41.8481" y="1321.0732">Klik tombol Edit</text><polygon fill="#181818" points="388.0151,1352.2813,398.0151,1356.2813,388.0151,1360.2813,392.0151,1356.2813" style="stroke:#181818;stroke-width:1.0;"/><line style="stroke:#181818;stroke-width:1.0;" x1="196.8652" x2="394.0151" y1="1356.2813" y2="1356.2813"/><text fill="#000000" font-family="sans-serif" font-size="13" lengthAdjust="spacing" textLength="75.1436" x="203.8652" y="1351.4248">edit(supplier)</text><polygon fill="#181818" points="207.8652,1382.6328,197.8652,1386.6328,207.8652,1390.6328,203.8652,1386.6328" style="stroke:#181818;stroke-width:1.0;"/><line style="stroke:#181818;stroke-width:1.0;stroke-dasharray:2.0,2.0;" x1="201.8652" x2="404.0151" y1="1386.6328" y2="1386.6328"/><text fill="#000000" font-family="sans-serif" font-size="13" lengthAdjust="spacing" textLength="114.1499" x="213.8652" y="1381.7764">Tampilkan form edit</text><polygon fill="#181818" points="393.0151,1412.9844,403.0151,1416.9844,393.0151,1420.9844,397.0151,1416.9844" style="stroke:#181818;stroke-width:1.0;"/><line style="stroke:#181818;stroke-width:1.0;" x1="34.8481" x2="399.0151" y1="1416.9844" y2="1416.9844"/><text fill="#000000" font-family="sans-serif" font-size="13" lengthAdjust="spacing" textLength="59.9917" x="41.8481" y="1412.1279">Ubah data</text><polygon fill="#181818" points="388.0151,1443.3359,398.0151,1447.3359,388.0151,1451.3359,392.0151,1447.3359" style="stroke:#181818;stroke-width:1.0;"/><line style="stroke:#181818;stroke-width:1.0;" x1="34.8481" x2="394.0151" y1="1447.3359" y2="1447.3359"/><text fill="#000000" font-family="sans-serif" font-size="13" lengthAdjust="spacing" textLength="48.4199" x="41.8481" y="1442.4795">update()</text><line style="stroke:#181818;stroke-width:1.0;" x1="410.0151" x2="452.0151" y1="1477.6875" y2="1477.6875"/><line style="stroke:#181818;stroke-width:1.0;" x1="452.0151" x2="452.0151" y1="1477.6875" y2="1490.6875"/><line style="stroke:#181818;stroke-width:1.0;" x1="411.0151" x2="452.0151" y1="1490.6875" y2="1490.6875"/><polygon fill="#181818" points="421.0151,1486.6875,411.0151,1490.6875,421.0151,1494.6875,417.0151,1490.6875" style="stroke:#181818;stroke-width:1.0;"/><text fill="#000000" font-family="sans-serif" font-size="13" lengthAdjust="spacing" textLength="53.4663" x="417.0151" y="1472.8311">validate()</text><polygon fill="#181818" points="667.2778,1517.0391,677.2778,1521.0391,667.2778,1525.0391,671.2778,1521.0391" style="stroke:#181818;stroke-width:1.0;"/><line style="stroke:#181818;stroke-width:1.0;" x1="410.0151" x2="673.2778" y1="1521.0391" y2="1521.0391"/><text fill="#000000" font-family="sans-serif" font-size="13" lengthAdjust="spacing" textLength="123.9253" x="417.0151" y="1516.1826">supplier-&gt;update([...])</text><polygon fill="#181818" points="1005.813,1547.3906,1015.813,1551.3906,1005.813,1555.3906,1009.813,1551.3906" style="stroke:#181818;stroke-width:1.0;"/><line style="stroke:#181818;stroke-width:1.0;" x1="689.2778" x2="1011.813" y1="1551.3906" y2="1551.3906"/><text fill="#000000" font-family="sans-serif" font-size="13" lengthAdjust="spacing" textLength="151.709" x="696.2778" y="1546.5342">UPDATE suppliers SET ...</text><polygon fill="#181818" points="700.2778,1577.7422,690.2778,1581.7422,700.2778,1585.7422,696.2778,1581.7422" style="stroke:#181818;stroke-width:1.0;"/><line style="stroke:#181818;stroke-width:1.0;stroke-dasharray:2.0,2.0;" x1="694.2778" x2="1016.813" y1="1581.7422" y2="1581.7422"/><text fill="#000000" font-family="sans-serif" font-size="13" lengthAdjust="spacing" textLength="49.1309" x="706.2778" y="1576.8857">Success</text><polygon fill="#181818" points="421.0151,1608.0938,411.0151,1612.0938,421.0151,1616.0938,417.0151,1612.0938" style="stroke:#181818;stroke-width:1.0;"/><line style="stroke:#181818;stroke-width:1.0;stroke-dasharray:2.0,2.0;" x1="415.0151" x2="683.2778" y1="1612.0938" y2="1612.0938"/><text fill="#000000" font-family="sans-serif" font-size="13" lengthAdjust="spacing" textLength="49.1499" x="427.0151" y="1607.2373">Updated</text><polygon fill="#181818" points="207.8652,1638.4453,197.8652,1642.4453,207.8652,1646.4453,203.8652,1642.4453" style="stroke:#181818;stroke-width:1.0;"/><line style="stroke:#181818;stroke-width:1.0;stroke-dasharray:2.0,2.0;" x1="201.8652" x2="404.0151" y1="1642.4453" y2="1642.4453"/><text fill="#000000" font-family="sans-serif" font-size="13" lengthAdjust="spacing" textLength="132.2217" x="213.8652" y="1637.5889">Flash message sukses</text><rect fill="#EEEEEE" height="3" style="stroke:#EEEEEE;stroke-width:1.0;" width="1070.7783" x="0" y="1671.6211"/><line style="stroke:#000000;stroke-width:1.0;" x1="0" x2="1070.7783" y1="1671.6211" y2="1671.6211"/><line style="stroke:#000000;stroke-width:1.0;" x1="0" x2="1070.7783" y1="1674.6211" y2="1674.6211"/><rect fill="#EEEEEE" height="24.3516" style="stroke:#000000;stroke-width:2.0;" width="145.4536" x="462.6624" y="1660.4453"/><text fill="#000000" font-family="sans-serif" font-size="13" font-weight="bold" lengthAdjust="spacing" textLength="127.8418" x="468.6624" y="1677.9404">Menghapus Supplier</text><polygon fill="#181818" points="184.8652,1713.1484,194.8652,1717.1484,184.8652,1721.1484,188.8652,1717.1484" style="stroke:#181818;stroke-width:1.0;"/><line style="stroke:#181818;stroke-width:1.0;" x1="34.8481" x2="190.8652" y1="1717.1484" y2="1717.1484"/><text fill="#000000" font-family="sans-serif" font-size="13" lengthAdjust="spacing" textLength="104.7681" x="41.8481" y="1712.292">Klik tombol Hapus</text><polygon fill="#181818" points="45.8481,1743.5,35.8481,1747.5,45.8481,1751.5,41.8481,1747.5" style="stroke:#181818;stroke-width:1.0;"/><line style="stroke:#181818;stroke-width:1.0;stroke-dasharray:2.0,2.0;" x1="39.8481" x2="195.8652" y1="1747.5" y2="1747.5"/><text fill="#000000" font-family="sans-serif" font-size="13" lengthAdjust="spacing" textLength="100.439" x="51.8481" y="1742.6436">Konfirmasi hapus</text><polygon fill="#181818" points="388.0151,1773.8516,398.0151,1777.8516,388.0151,1781.8516,392.0151,1777.8516" style="stroke:#181818;stroke-width:1.0;"/><line style="stroke:#181818;stroke-width:1.0;" x1="34.8481" x2="394.0151" y1="1777.8516" y2="1777.8516"/><text fill="#000000" font-family="sans-serif" font-size="13" lengthAdjust="spacing" textLength="89.6035" x="41.8481" y="1772.9951">delete(supplier)</text><polygon fill="#181818" points="667.2778,1804.2031,677.2778,1808.2031,667.2778,1812.2031,671.2778,1808.2031" style="stroke:#181818;stroke-width:1.0;"/><line style="stroke:#181818;stroke-width:1.0;" x1="410.0151" x2="673.2778" y1="1808.2031" y2="1808.2031"/><text fill="#000000" font-family="sans-serif" font-size="13" lengthAdjust="spacing" textLength="177.7534" x="417.0151" y="1803.3467">supplier-&gt;shoppings()-&gt;count()</text><polygon fill="#181818" points="1005.813,1834.5547,1015.813,1838.5547,1005.813,1842.5547,1009.813,1838.5547" style="stroke:#181818;stroke-width:1.0;"/><line style="stroke:#181818;stroke-width:1.0;" x1="689.2778" x2="1011.813" y1="1838.5547" y2="1838.5547"/><text fill="#000000" font-family="sans-serif" font-size="13" lengthAdjust="spacing" textLength="205.1626" x="696.2778" y="1833.6982">SELECT COUNT FROM shoppings</text><polygon fill="#181818" points="700.2778,1864.9063,690.2778,1868.9063,700.2778,1872.9063,696.2778,1868.9063" style="stroke:#181818;stroke-width:1.0;"/><line style="stroke:#181818;stroke-width:1.0;stroke-dasharray:2.0,2.0;" x1="694.2778" x2="1016.813" y1="1868.9063" y2="1868.9063"/><text fill="#000000" font-family="sans-serif" font-size="13" lengthAdjust="spacing" textLength="31.8018" x="706.2778" y="1864.0498">count</text><polygon fill="#181818" points="421.0151,1895.2578,411.0151,1899.2578,421.0151,1903.2578,417.0151,1899.2578" style="stroke:#181818;stroke-width:1.0;"/><line style="stroke:#181818;stroke-width:1.0;stroke-dasharray:2.0,2.0;" x1="415.0151" x2="683.2778" y1="1899.2578" y2="1899.2578"/><text fill="#000000" font-family="sans-serif" font-size="13" lengthAdjust="spacing" textLength="83.8335" x="427.0151" y="1894.4014">jumlah belanja</text><path d="M124.2241,1914.2578 L184.395,1914.2578 L184.395,1922.6094 L174.395,1932.6094 L124.2241,1932.6094 L124.2241,1914.2578 " fill="#EEEEEE" style="stroke:#000000;stroke-width:1.5;"/><rect fill="none" height="216.2969" style="stroke:#000000;stroke-width:1.5;" width="936.5542" x="124.2241" y="1914.2578"/><text fill="#000000" font-family="sans-serif" font-size="13" font-weight="bold" lengthAdjust="spacing" textLength="15.1709" x="139.2241" y="1928.7529">alt</text><text fill="#000000" font-family="sans-serif" font-size="11" font-weight="bold" lengthAdjust="spacing" textLength="139.9922" x="199.395" y="1927.6768">[Tidak ada riwayat belanja]</text><polygon fill="#181818" points="667.2778,1950.9609,677.2778,1954.9609,667.2778,1958.9609,671.2778,1954.9609" style="stroke:#181818;stroke-width:1.0;"/><line style="stroke:#181818;stroke-width:1.0;" x1="410.0151" x2="673.2778" y1="1954.9609" y2="1954.9609"/><text fill="#000000" font-family="sans-serif" font-size="13" lengthAdjust="spacing" textLength="101.5244" x="417.0151" y="1950.1045">supplier-&gt;delete()</text><polygon fill="#181818" points="1005.813,1981.3125,1015.813,1985.3125,1005.813,1989.3125,1009.813,1985.3125" style="stroke:#181818;stroke-width:1.0;"/><line style="stroke:#181818;stroke-width:1.0;" x1="689.2778" x2="1011.813" y1="1985.3125" y2="1985.3125"/><text fill="#000000" font-family="sans-serif" font-size="13" lengthAdjust="spacing" textLength="148.0908" x="696.2778" y="1980.4561">DELETE FROM suppliers</text><polygon fill="#181818" points="700.2778,2011.6641,690.2778,2015.6641,700.2778,2019.6641,696.2778,2015.6641" style="stroke:#181818;stroke-width:1.0;"/><line style="stroke:#181818;stroke-width:1.0;stroke-dasharray:2.0,2.0;" x1="694.2778" x2="1016.813" y1="2015.6641" y2="2015.6641"/><text fill="#000000" font-family="sans-serif" font-size="13" lengthAdjust="spacing" textLength="49.1309" x="706.2778" y="2010.8076">Success</text><polygon fill="#181818" points="421.0151,2042.0156,411.0151,2046.0156,421.0151,2050.0156,417.0151,2046.0156" style="stroke:#181818;stroke-width:1.0;"/><line style="stroke:#181818;stroke-width:1.0;stroke-dasharray:2.0,2.0;" x1="415.0151" x2="683.2778" y1="2046.0156" y2="2046.0156"/><text fill="#000000" font-family="sans-serif" font-size="13" lengthAdjust="spacing" textLength="44.8081" x="427.0151" y="2041.1592">Deleted</text><polygon fill="#181818" points="207.8652,2072.3672,197.8652,2076.3672,207.8652,2080.3672,203.8652,2076.3672" style="stroke:#181818;stroke-width:1.0;"/><line style="stroke:#181818;stroke-width:1.0;stroke-dasharray:2.0,2.0;" x1="201.8652" x2="399.0151" y1="2076.3672" y2="2076.3672"/><text fill="#000000" font-family="sans-serif" font-size="13" lengthAdjust="spacing" textLength="132.2217" x="213.8652" y="2071.5107">Flash message sukses</text><line style="stroke:#000000;stroke-width:1.0;stroke-dasharray:2.0,2.0;" x1="124.2241" x2="1060.7783" y1="2085.3672" y2="2085.3672"/><text fill="#000000" font-family="sans-serif" font-size="11" font-weight="bold" lengthAdjust="spacing" textLength="110.0322" x="129.2241" y="2096.7861">[Ada riwayat belanja]</text><polygon fill="#181818" points="207.8652,2118.5547,197.8652,2122.5547,207.8652,2126.5547,203.8652,2122.5547" style="stroke:#181818;stroke-width:1.0;"/><line style="stroke:#181818;stroke-width:1.0;stroke-dasharray:2.0,2.0;" x1="201.8652" x2="399.0151" y1="2122.5547" y2="2122.5547"/><text fill="#000000" font-family="sans-serif" font-size="13" lengthAdjust="spacing" textLength="179.1499" x="213.8652" y="2117.6982">Error: Supplier memiliki riwayat</text><!--SRC=[dLRRSjiu37tNLs3oucHddUdUkvvnTcBB7NkpQZgMClkmxNHWYv5OKwIMefBcxmjITr-IjazoW0CGmC4XOxWH34BsVydabe7FCT6OJI1WCc522OImp7F1cVOyt1gbOIKVcAGV7B20bPUZDdpBSvG6pfOeC4FPnfnPp7A8QNmh6RFFx-LSPRcIbD5Xm-FOzp9GCHCE4dWn6jnWmU3ChtyvXp_plEcKAXSyHGC-tXlKRIamdNhU2iPNi9p0zQvW1QHrjKNJ8JN87z0mAdbfaU44CbLAStxHkK8ljAvWqcQUJ1wvIUSEE2fIbUTS9iNeOdoLi45eu0Ksr9zHxEAVnJo27-3D-ZPe2oWE0FFRkxSHj4azVmRZwdJRUbTvuCnKxrm9mUX0rMihPhqIGeUa6QmP4Q0XTcFgOqBRF65M4uWmoxdOqOpgMVLnothS4hCDfiS7VIFu3epADahOP8GxbZnJCGguLpgh0gcFWaOteiniz2EC8hLJCCEKe3Sb6rqCKNbA-sDXhrx_zFCll_xs-n-l_zp7O1nhLXGMzRUuX7TOeBwylEp3y84TuPay3oWuhPpr7bA_rSow_gDa7uvJlNeRBjOHVQBR7j4TaM6vtL9f7ONj83UeonFaHQKfysfkdV6Dm2A5Z99XmkWik-H3OllwMFD7VABlZ0cKd_2GDff-RyCQGT0kFYvvGHV0qtdZF2gFnZc-QjVtd3HXjN8-Yfb1BhvD94qM-7UvM2_Q_1zv35FuwwMmZ_MHlSat4zXK4pWkeZhy50zxEwohb7jJbug-cYUfyQ0zDRF2gO8dP1vJBfaabACfnzcK8KlECZ9oaf-rLK9u8ZJ4tDgTDJHeoi91ARqcBEaRxCcDJ1CMS_EoJ1U4Qjcs8ITftX-15R2B6BRVAEpEtXBsxcujPLxhwkjKrsrK7VYCwkxU-TTHjoJqiYmY8FXpmhjpMUCJL7-jkcIIOavCl3ZefOLrr-6DalTSPrXmS0dQAT73nwZPxn7RTl_r2awyC4E5zORaCdGZ-bHcWbXiLdGmAG-5WOX8sm76s4YXjyu0X-NMpLquTo-P_RCjrQTIYSozjz923jci0wjoVPSzTiP1hNKnpp3B1Fs3SNswZofqeRNIlIixOnadYdbx4P08lU6MV040]--></g></svg>