<svg xmlns="http://www.w3.org/2000/svg" xmlns:xlink="http://www.w3.org/1999/xlink" contentStyleType="text/css" height="908px" preserveAspectRatio="none" style="width:982px;height:908px;background:#FFFFFF;" version="1.1" viewBox="0 0 982 908" width="982px" zoomAndPan="magnify"><title>Sequence Diagram</title><defs/><g><text fill="#000000" font-family="sans-serif" font-size="14" font-weight="bold" lengthAdjust="spacing" textLength="126.0479" x="427.3274" y="29.5332">Sequence Diagram</text><text fill="#000000" font-family="sans-serif" font-size="14" font-weight="bold" lengthAdjust="spacing" textLength="192.1855" x="394.2585" y="47.1426">Melihat Riwayat Pembayaran</text><line style="stroke:#181818;stroke-width:0.5;stroke-dasharray:5.0,5.0;" x1="23" x2="23" y1="138.8281" y2="826.5625"/><line style="stroke:#181818;stroke-width:0.5;stroke-dasharray:5.0,5.0;" x1="260.8604" x2="260.8604" y1="138.8281" y2="826.5625"/><line style="stroke:#181818;stroke-width:0.5;stroke-dasharray:5.0,5.0;" x1="435.1382" x2="435.1382" y1="138.8281" y2="826.5625"/><line style="stroke:#181818;stroke-width:0.5;stroke-dasharray:5.0,5.0;" x1="676.7759" x2="676.7759" y1="138.8281" y2="826.5625"/><line style="stroke:#181818;stroke-width:0.5;stroke-dasharray:5.0,5.0;" x1="801.1587" x2="801.1587" y1="138.8281" y2="826.5625"/><line style="stroke:#181818;stroke-width:0.5;stroke-dasharray:5.0,5.0;" x1="915.3032" x2="915.3032" y1="138.8281" y2="826.5625"/><text fill="#000000" font-family="sans-serif" font-size="14" lengthAdjust="spacing" textLength="31.8965" x="5" y="135.752">Kasir</text><ellipse cx="23.9482" cy="69.7188" fill="#E2E2F0" rx="8" ry="8" style="stroke:#181818;stroke-width:0.5;"/><path d="M23.9482,77.7188 L23.9482,104.7188 M10.9482,85.7188 L36.9482,85.7188 M23.9482,104.7188 L10.9482,119.7188 M23.9482,104.7188 L36.9482,119.7188 " fill="none" style="stroke:#181818;stroke-width:0.5;"/><text fill="#000000" font-family="sans-serif" font-size="14" lengthAdjust="spacing" textLength="31.8965" x="5" y="840.0957">Kasir</text><ellipse cx="23.9482" cy="851.6719" fill="#E2E2F0" rx="8" ry="8" style="stroke:#181818;stroke-width:0.5;"/><path d="M23.9482,859.6719 L23.9482,886.6719 M10.9482,867.6719 L36.9482,867.6719 M23.9482,886.6719 L10.9482,901.6719 M23.9482,886.6719 L36.9482,901.6719 " fill="none" style="stroke:#181818;stroke-width:0.5;"/><rect fill="#E2E2F0" height="31.6094" rx="2.5" ry="2.5" style="stroke:#181818;stroke-width:0.5;" width="101.9443" x="210.8604" y="106.2188"/><text fill="#000000" font-family="sans-serif" font-size="14" lengthAdjust="spacing" textLength="87.9443" x="217.8604" y="127.752">PaymentPage</text><rect fill="#E2E2F0" height="31.6094" rx="2.5" ry="2.5" style="stroke:#181818;stroke-width:0.5;" width="101.9443" x="210.8604" y="825.5625"/><text fill="#000000" font-family="sans-serif" font-size="14" lengthAdjust="spacing" textLength="87.9443" x="217.8604" y="847.0957">PaymentPage</text><rect fill="#E2E2F0" height="31.6094" rx="2.5" ry="2.5" style="stroke:#181818;stroke-width:0.5;" width="129.9375" x="371.1382" y="106.2188"/><text fill="#000000" font-family="sans-serif" font-size="14" lengthAdjust="spacing" textLength="115.9375" x="378.1382" y="127.752">PaymentController</text><rect fill="#E2E2F0" height="31.6094" rx="2.5" ry="2.5" style="stroke:#181818;stroke-width:0.5;" width="129.9375" x="371.1382" y="825.5625"/><text fill="#000000" font-family="sans-serif" font-size="14" lengthAdjust="spacing" textLength="115.9375" x="378.1382" y="847.0957">PaymentController</text><rect fill="#E2E2F0" height="31.6094" rx="2.5" ry="2.5" style="stroke:#181818;stroke-width:0.5;" width="69.248" x="642.7759" y="106.2188"/><text fill="#000000" font-family="sans-serif" font-size="14" lengthAdjust="spacing" textLength="55.248" x="649.7759" y="127.752">Payment</text><rect fill="#E2E2F0" height="31.6094" rx="2.5" ry="2.5" style="stroke:#181818;stroke-width:0.5;" width="69.248" x="642.7759" y="825.5625"/><text fill="#000000" font-family="sans-serif" font-size="14" lengthAdjust="spacing" textLength="55.248" x="649.7759" y="847.0957">Payment</text><rect fill="#E2E2F0" height="31.6094" rx="2.5" ry="2.5" style="stroke:#181818;stroke-width:0.5;" width="87.1445" x="758.1587" y="106.2188"/><text fill="#000000" font-family="sans-serif" font-size="14" lengthAdjust="spacing" textLength="73.1445" x="765.1587" y="127.752">Transaction</text><rect fill="#E2E2F0" height="31.6094" rx="2.5" ry="2.5" style="stroke:#181818;stroke-width:0.5;" width="87.1445" x="758.1587" y="825.5625"/><text fill="#000000" font-family="sans-serif" font-size="14" lengthAdjust="spacing" textLength="73.1445" x="765.1587" y="847.0957">Transaction</text><rect fill="#E2E2F0" height="31.6094" rx="2.5" ry="2.5" style="stroke:#181818;stroke-width:0.5;" width="121.3994" x="855.3032" y="106.2188"/><text fill="#000000" font-family="sans-serif" font-size="14" lengthAdjust="spacing" textLength="107.3994" x="862.3032" y="127.752">PaymentChannel</text><rect fill="#E2E2F0" height="31.6094" rx="2.5" ry="2.5" style="stroke:#181818;stroke-width:0.5;" width="121.3994" x="855.3032" y="825.5625"/><text fill="#000000" font-family="sans-serif" font-size="14" lengthAdjust="spacing" textLength="107.3994" x="862.3032" y="847.0957">PaymentChannel</text><polygon fill="#181818" points="249.8325,167.1797,259.8325,171.1797,249.8325,175.1797,253.8325,171.1797" style="stroke:#181818;stroke-width:1.0;"/><line style="stroke:#181818;stroke-width:1.0;" x1="23.9482" x2="255.8325" y1="171.1797" y2="171.1797"/><text fill="#000000" font-family="sans-serif" font-size="13" lengthAdjust="spacing" textLength="187.1479" x="49.3164" y="166.3232">Mengakses riwayat pembayaran</text><polygon fill="#181818" points="424.1069,197.5313,434.1069,201.5313,424.1069,205.5313,428.1069,201.5313" style="stroke:#181818;stroke-width:1.0;"/><line style="stroke:#181818;stroke-width:1.0;" x1="261.8325" x2="430.1069" y1="201.5313" y2="201.5313"/><text fill="#000000" font-family="sans-serif" font-size="13" lengthAdjust="spacing" textLength="44.7891" x="326.5752" y="196.6748">mount()</text><polygon fill="#181818" points="665.3999,227.8828,675.3999,231.8828,665.3999,235.8828,669.3999,231.8828" style="stroke:#181818;stroke-width:1.0;"/><line style="stroke:#181818;stroke-width:1.0;" x1="436.1069" x2="671.3999" y1="231.8828" y2="231.8828"/><text fill="#000000" font-family="sans-serif" font-size="13" lengthAdjust="spacing" textLength="121.3735" x="496.0667" y="227.0264">getAllWithRelations()</text><polygon fill="#181818" points="789.731,258.2344,799.731,262.2344,789.731,266.2344,793.731,262.2344" style="stroke:#181818;stroke-width:1.0;"/><line style="stroke:#181818;stroke-width:1.0;" x1="677.3999" x2="795.731" y1="262.2344" y2="262.2344"/><text fill="#000000" font-family="sans-serif" font-size="13" lengthAdjust="spacing" textLength="100.3311" x="689.3999" y="257.3779">with('transaction')</text><polygon fill="#181818" points="904.0029,288.5859,914.0029,292.5859,904.0029,296.5859,908.0029,292.5859" style="stroke:#181818;stroke-width:1.0;"/><line style="stroke:#181818;stroke-width:1.0;" x1="677.3999" x2="910.0029" y1="292.5859" y2="292.5859"/><text fill="#000000" font-family="sans-serif" font-size="13" lengthAdjust="spacing" textLength="135.0273" x="729.1877" y="287.7295">with('paymentChannel')</text><polygon fill="#181818" points="272.8325,318.9375,262.8325,322.9375,272.8325,326.9375,268.8325,322.9375" style="stroke:#181818;stroke-width:1.0;"/><line style="stroke:#181818;stroke-width:1.0;stroke-dasharray:2.0,2.0;" x1="266.8325" x2="435.1069" y1="322.9375" y2="322.9375"/><text fill="#000000" font-family="sans-serif" font-size="13" lengthAdjust="spacing" textLength="106.9263" x="295.5066" y="318.0811">displayPayments()</text><polygon fill="#181818" points="249.8325,349.2891,259.8325,353.2891,249.8325,357.2891,253.8325,353.2891" style="stroke:#181818;stroke-width:1.0;"/><line style="stroke:#181818;stroke-width:1.0;" x1="23.9482" x2="255.8325" y1="353.2891" y2="353.2891"/><text fill="#000000" font-family="sans-serif" font-size="13" lengthAdjust="spacing" textLength="213.8843" x="35.9482" y="348.4326">Filter berdasarkan tanggal(start, end)</text><polygon fill="#181818" points="424.1069,379.6406,434.1069,383.6406,424.1069,387.6406,428.1069,383.6406" style="stroke:#181818;stroke-width:1.0;"/><line style="stroke:#181818;stroke-width:1.0;" x1="261.8325" x2="430.1069" y1="383.6406" y2="383.6406"/><text fill="#000000" font-family="sans-serif" font-size="13" lengthAdjust="spacing" textLength="87.4136" x="305.2629" y="378.7842">filter(start, end)</text><polygon fill="#181818" points="665.3999,409.9922,675.3999,413.9922,665.3999,417.9922,669.3999,413.9922" style="stroke:#181818;stroke-width:1.0;"/><line style="stroke:#181818;stroke-width:1.0;" x1="436.1069" x2="671.3999" y1="413.9922" y2="413.9922"/><text fill="#000000" font-family="sans-serif" font-size="13" lengthAdjust="spacing" textLength="181.2954" x="466.1057" y="409.1357">whereBetween('paid_at', dates)</text><polygon fill="#181818" points="272.8325,440.3438,262.8325,444.3438,272.8325,448.3438,268.8325,444.3438" style="stroke:#181818;stroke-width:1.0;"/><line style="stroke:#181818;stroke-width:1.0;stroke-dasharray:2.0,2.0;" x1="266.8325" x2="435.1069" y1="444.3438" y2="444.3438"/><text fill="#000000" font-family="sans-serif" font-size="13" lengthAdjust="spacing" textLength="150.2744" x="273.8325" y="439.4873">displayFilteredPayments()</text><polygon fill="#181818" points="249.8325,470.6953,259.8325,474.6953,249.8325,478.6953,253.8325,474.6953" style="stroke:#181818;stroke-width:1.0;"/><line style="stroke:#181818;stroke-width:1.0;" x1="23.9482" x2="255.8325" y1="474.6953" y2="474.6953"/><text fill="#000000" font-family="sans-serif" font-size="13" lengthAdjust="spacing" textLength="203.7598" x="41.0105" y="469.8389">Filter berdasarkan metode(method)</text><polygon fill="#181818" points="424.1069,501.0469,434.1069,505.0469,424.1069,509.0469,428.1069,505.0469" style="stroke:#181818;stroke-width:1.0;"/><line style="stroke:#181818;stroke-width:1.0;" x1="261.8325" x2="430.1069" y1="505.0469" y2="505.0469"/><text fill="#000000" font-family="sans-serif" font-size="13" lengthAdjust="spacing" textLength="135.1099" x="281.4148" y="500.1904">filterByMethod(method)</text><polygon fill="#181818" points="665.3999,531.3984,675.3999,535.3984,665.3999,539.3984,669.3999,535.3984" style="stroke:#181818;stroke-width:1.0;"/><line style="stroke:#181818;stroke-width:1.0;" x1="436.1069" x2="671.3999" y1="535.3984" y2="535.3984"/><text fill="#000000" font-family="sans-serif" font-size="13" lengthAdjust="spacing" textLength="200.0654" x="456.7207" y="530.542">where('payment_method', method)</text><polygon fill="#181818" points="272.8325,561.75,262.8325,565.75,272.8325,569.75,268.8325,565.75" style="stroke:#181818;stroke-width:1.0;"/><line style="stroke:#181818;stroke-width:1.0;stroke-dasharray:2.0,2.0;" x1="266.8325" x2="435.1069" y1="565.75" y2="565.75"/><text fill="#000000" font-family="sans-serif" font-size="13" lengthAdjust="spacing" textLength="150.2744" x="273.8325" y="560.8936">displayFilteredPayments()</text><polygon fill="#181818" points="249.8325,592.1016,259.8325,596.1016,249.8325,600.1016,253.8325,596.1016" style="stroke:#181818;stroke-width:1.0;"/><line style="stroke:#181818;stroke-width:1.0;" x1="23.9482" x2="255.8325" y1="596.1016" y2="596.1016"/><text fill="#000000" font-family="sans-serif" font-size="13" lengthAdjust="spacing" textLength="190.0361" x="47.8723" y="591.2451">Cari berdasarkan receipt number</text><polygon fill="#181818" points="424.1069,622.4531,434.1069,626.4531,424.1069,630.4531,428.1069,626.4531" style="stroke:#181818;stroke-width:1.0;"/><line style="stroke:#181818;stroke-width:1.0;" x1="261.8325" x2="430.1069" y1="626.4531" y2="626.4531"/><text fill="#000000" font-family="sans-serif" font-size="13" lengthAdjust="spacing" textLength="138.0044" x="279.9675" y="621.5967">search(receipt_number)</text><polygon fill="#181818" points="665.3999,652.8047,675.3999,656.8047,665.3999,660.8047,669.3999,656.8047" style="stroke:#181818;stroke-width:1.0;"/><line style="stroke:#181818;stroke-width:1.0;" x1="436.1069" x2="671.3999" y1="656.8047" y2="656.8047"/><text fill="#000000" font-family="sans-serif" font-size="13" lengthAdjust="spacing" textLength="217.293" x="448.1069" y="651.9482">where('receipt_number', 'like', search)</text><polygon fill="#181818" points="272.8325,683.1563,262.8325,687.1563,272.8325,691.1563,268.8325,687.1563" style="stroke:#181818;stroke-width:1.0;"/><line style="stroke:#181818;stroke-width:1.0;stroke-dasharray:2.0,2.0;" x1="266.8325" x2="435.1069" y1="687.1563" y2="687.1563"/><text fill="#000000" font-family="sans-serif" font-size="13" lengthAdjust="spacing" textLength="133.6626" x="282.1384" y="682.2998">displaySearchResults()</text><polygon fill="#181818" points="249.8325,713.5078,259.8325,717.5078,249.8325,721.5078,253.8325,717.5078" style="stroke:#181818;stroke-width:1.0;"/><line style="stroke:#181818;stroke-width:1.0;" x1="23.9482" x2="255.8325" y1="717.5078" y2="717.5078"/><text fill="#000000" font-family="sans-serif" font-size="13" lengthAdjust="spacing" textLength="157.5361" x="64.1223" y="712.6514">Lihat detail pembayaran(id)</text><polygon fill="#181818" points="424.1069,743.8594,434.1069,747.8594,424.1069,751.8594,428.1069,747.8594" style="stroke:#181818;stroke-width:1.0;"/><line style="stroke:#181818;stroke-width:1.0;" x1="261.8325" x2="430.1069" y1="747.8594" y2="747.8594"/><text fill="#000000" font-family="sans-serif" font-size="13" lengthAdjust="spacing" textLength="49.1245" x="324.4075" y="743.0029">show(id)</text><polygon fill="#181818" points="665.3999,774.2109,675.3999,778.2109,665.3999,782.2109,669.3999,778.2109" style="stroke:#181818;stroke-width:1.0;"/><line style="stroke:#181818;stroke-width:1.0;" x1="436.1069" x2="671.3999" y1="778.2109" y2="778.2109"/><text fill="#000000" font-family="sans-serif" font-size="13" lengthAdjust="spacing" textLength="133.6563" x="489.9253" y="773.3545">findWithTransaction(id)</text><polygon fill="#181818" points="272.8325,804.5625,262.8325,808.5625,272.8325,812.5625,268.8325,808.5625" style="stroke:#181818;stroke-width:1.0;"/><line style="stroke:#181818;stroke-width:1.0;stroke-dasharray:2.0,2.0;" x1="266.8325" x2="435.1069" y1="808.5625" y2="808.5625"/><text fill="#000000" font-family="sans-serif" font-size="13" lengthAdjust="spacing" textLength="123.5444" x="287.1975" y="803.7061">showPaymentDetail()</text><!--SRC=[dPF1Rfj048RlFCNA5uYKla0FbHAYg5ABX1nBlLIo9Z21aPU1xew5_FQT1MmWuPAS5k__xSmtQ_0duWuSDCRZlpDoWHbw3nK-MAhO5CY2Beg4nA9vcH3pH53fcR-SeQKQnEofXukkEJQl-k20emWAQPtP_G9FRcV0cnHyJLfD-maLr06BsULmQRH9hYq7ACytyxHbSQsrE9RAqqrgpB9rTb0RhpBKyf0VikqEDJ2ZdSh_ZA99rtpxeLBckycGApXvzCPDqtRpj4e4BbMkQSyioLsaFy9MfbiLoeErVqZgFLe89Zu0MG0E0UWrIcAPJUDhh2gtl5kPncEBgrv9lhDmcQO9zJzCy4nM_qtpYgu43-u4R0Iugi0cNlHAxWroURUSvMquiKxdiVeQ7JwYz8WSxAWyWiJtfWH1lsat6c3vISi6fIqnqQLkjmGVBzaGpSGxoTlT7KT29PVe5onJSBHoT5WWTMButEZsqj4ZkA9E9k0u0bkEQq8TOqidr7MiiEdwCaHxz6UxBVfx-41B522xU6CJMb-ahzj-t9krteZByD8klg0RSYqVpattz3JqK8V_]--></g></svg>