<svg xmlns="http://www.w3.org/2000/svg" xmlns:xlink="http://www.w3.org/1999/xlink" contentStyleType="text/css" height="2403px" preserveAspectRatio="none" style="width:1814px;height:2403px;background:#FFFFFF;" version="1.1" viewBox="0 0 1814 2403" width="1814px" zoomAndPan="magnify"><defs/><g><rect fill="none" height="371.0547" style="stroke:#000000;stroke-width:1.5;" width="1787.6777" x="10" y="565.5313"/><rect fill="none" height="247.6484" style="stroke:#000000;stroke-width:1.5;" width="1767.6777" x="20" y="681.9375"/><rect fill="none" height="107.8906" style="stroke:#000000;stroke-width:1.5;" width="345.1978" x="30" y="814.6953"/><rect fill="none" height="322.2188" style="stroke:#000000;stroke-width:1.5;" width="1519.5005" x="268.1772" y="1146.6953"/><rect fill="none" height="109.4063" style="stroke:#000000;stroke-width:1.5;" width="1519.5005" x="268.1772" y="1875.1328"/><rect fill="none" height="170.1094" style="stroke:#000000;stroke-width:1.5;" width="1519.5005" x="268.1772" y="2042.8906"/><line style="stroke:#181818;stroke-width:0.5;stroke-dasharray:5.0,5.0;" x1="70" x2="70" y1="82.6094" y2="2321.0547"/><line style="stroke:#181818;stroke-width:0.5;stroke-dasharray:5.0,5.0;" x1="220.2329" x2="220.2329" y1="82.6094" y2="2321.0547"/><line style="stroke:#181818;stroke-width:0.5;stroke-dasharray:5.0,5.0;" x1="320.1772" x2="320.1772" y1="82.6094" y2="2321.0547"/><line style="stroke:#181818;stroke-width:0.5;stroke-dasharray:5.0,5.0;" x1="612.9937" x2="612.9937" y1="82.6094" y2="2321.0547"/><line style="stroke:#181818;stroke-width:0.5;stroke-dasharray:5.0,5.0;" x1="721.9243" x2="721.9243" y1="82.6094" y2="2321.0547"/><line style="stroke:#181818;stroke-width:0.5;stroke-dasharray:5.0,5.0;" x1="853.6479" x2="853.6479" y1="82.6094" y2="2321.0547"/><line style="stroke:#181818;stroke-width:0.5;stroke-dasharray:5.0,5.0;" x1="957.689" x2="957.689" y1="82.6094" y2="2321.0547"/><line style="stroke:#181818;stroke-width:0.5;stroke-dasharray:5.0,5.0;" x1="1068.937" x2="1068.937" y1="82.6094" y2="2321.0547"/><line style="stroke:#181818;stroke-width:0.5;stroke-dasharray:5.0,5.0;" x1="1197.9985" x2="1197.9985" y1="82.6094" y2="2321.0547"/><line style="stroke:#181818;stroke-width:0.5;stroke-dasharray:5.0,5.0;" x1="1305.5913" x2="1305.5913" y1="82.6094" y2="2321.0547"/><line style="stroke:#181818;stroke-width:0.5;stroke-dasharray:5.0,5.0;" x1="1406.5356" x2="1406.5356" y1="82.6094" y2="2321.0547"/><line style="stroke:#181818;stroke-width:0.5;stroke-dasharray:5.0,5.0;" x1="1524.6802" x2="1524.6802" y1="82.6094" y2="2321.0547"/><line style="stroke:#181818;stroke-width:0.5;stroke-dasharray:5.0,5.0;" x1="1743.7471" x2="1743.7471" y1="82.6094" y2="2321.0547"/><text fill="#000000" font-family="sans-serif" font-size="14" lengthAdjust="spacing" textLength="54.4688" x="40" y="79.5332">Produksi</text><ellipse cx="70.2344" cy="13.5" fill="#E2E2F0" rx="8" ry="8" style="stroke:#181818;stroke-width:0.5;"/><path d="M70.2344,21.5 L70.2344,48.5 M57.2344,29.5 L83.2344,29.5 M70.2344,48.5 L57.2344,63.5 M70.2344,48.5 L83.2344,63.5 " fill="none" style="stroke:#181818;stroke-width:0.5;"/><text fill="#000000" font-family="sans-serif" font-size="14" lengthAdjust="spacing" textLength="54.4688" x="40" y="2334.5879">Produksi</text><ellipse cx="70.2344" cy="2346.1641" fill="#E2E2F0" rx="8" ry="8" style="stroke:#181818;stroke-width:0.5;"/><path d="M70.2344,2354.1641 L70.2344,2381.1641 M57.2344,2362.1641 L83.2344,2362.1641 M70.2344,2381.1641 L57.2344,2396.1641 M70.2344,2381.1641 L83.2344,2396.1641 " fill="none" style="stroke:#181818;stroke-width:0.5;"/><rect fill="#E2E2F0" height="49.2188" rx="2.5" ry="2.5" style="stroke:#181818;stroke-width:0.5;" width="94.9443" x="173.2329" y="32.3906"/><text fill="#000000" font-family="sans-serif" font-size="14" lengthAdjust="spacing" textLength="80.9443" x="180.2329" y="53.9238">Antrian Page</text><text fill="#000000" font-family="sans-serif" font-size="14" lengthAdjust="spacing" textLength="60.6758" x="190.3672" y="71.5332">(Livewire)</text><rect fill="#E2E2F0" height="49.2188" rx="2.5" ry="2.5" style="stroke:#181818;stroke-width:0.5;" width="94.9443" x="173.2329" y="2320.0547"/><text fill="#000000" font-family="sans-serif" font-size="14" lengthAdjust="spacing" textLength="80.9443" x="180.2329" y="2341.5879">Antrian Page</text><text fill="#000000" font-family="sans-serif" font-size="14" lengthAdjust="spacing" textLength="60.6758" x="190.3672" y="2359.1973">(Livewire)</text><rect fill="#E2E2F0" height="49.2188" rx="2.5" ry="2.5" style="stroke:#181818;stroke-width:0.5;" width="84.041" x="278.1772" y="32.3906"/><text fill="#000000" font-family="sans-serif" font-size="14" lengthAdjust="spacing" textLength="70.041" x="285.1772" y="53.9238">Mulai Page</text><text fill="#000000" font-family="sans-serif" font-size="14" lengthAdjust="spacing" textLength="60.6758" x="289.8599" y="71.5332">(Livewire)</text><rect fill="#E2E2F0" height="49.2188" rx="2.5" ry="2.5" style="stroke:#181818;stroke-width:0.5;" width="84.041" x="278.1772" y="2320.0547"/><text fill="#000000" font-family="sans-serif" font-size="14" lengthAdjust="spacing" textLength="70.041" x="285.1772" y="2341.5879">Mulai Page</text><text fill="#000000" font-family="sans-serif" font-size="14" lengthAdjust="spacing" textLength="60.6758" x="289.8599" y="2359.1973">(Livewire)</text><rect fill="#E2E2F0" height="49.2188" rx="2.5" ry="2.5" style="stroke:#181818;stroke-width:0.5;" width="80.9307" x="572.9937" y="32.3906"/><text fill="#000000" font-family="sans-serif" font-size="14" lengthAdjust="spacing" textLength="66.9307" x="579.9937" y="53.9238">Production</text><text fill="#000000" font-family="sans-serif" font-size="14" lengthAdjust="spacing" textLength="38.1309" x="594.3936" y="71.5332">Model</text><rect fill="#E2E2F0" height="49.2188" rx="2.5" ry="2.5" style="stroke:#181818;stroke-width:0.5;" width="80.9307" x="572.9937" y="2320.0547"/><text fill="#000000" font-family="sans-serif" font-size="14" lengthAdjust="spacing" textLength="66.9307" x="579.9937" y="2341.5879">Production</text><text fill="#000000" font-family="sans-serif" font-size="14" lengthAdjust="spacing" textLength="38.1309" x="594.3936" y="2359.1973">Model</text><rect fill="#E2E2F0" height="49.2188" rx="2.5" ry="2.5" style="stroke:#181818;stroke-width:0.5;" width="116.7236" x="663.9243" y="32.3906"/><text fill="#000000" font-family="sans-serif" font-size="14" lengthAdjust="spacing" textLength="102.7236" x="670.9243" y="53.9238">ProductionDetail</text><text fill="#000000" font-family="sans-serif" font-size="14" lengthAdjust="spacing" textLength="38.1309" x="703.2207" y="71.5332">Model</text><rect fill="#E2E2F0" height="49.2188" rx="2.5" ry="2.5" style="stroke:#181818;stroke-width:0.5;" width="116.7236" x="663.9243" y="2320.0547"/><text fill="#000000" font-family="sans-serif" font-size="14" lengthAdjust="spacing" textLength="102.7236" x="670.9243" y="2341.5879">ProductionDetail</text><text fill="#000000" font-family="sans-serif" font-size="14" lengthAdjust="spacing" textLength="38.1309" x="703.2207" y="2359.1973">Model</text><rect fill="#E2E2F0" height="49.2188" rx="2.5" ry="2.5" style="stroke:#181818;stroke-width:0.5;" width="126.041" x="790.6479" y="32.3906"/><text fill="#000000" font-family="sans-serif" font-size="14" lengthAdjust="spacing" textLength="112.041" x="797.6479" y="53.9238">ProductionWorker</text><text fill="#000000" font-family="sans-serif" font-size="14" lengthAdjust="spacing" textLength="38.1309" x="834.603" y="71.5332">Model</text><rect fill="#E2E2F0" height="49.2188" rx="2.5" ry="2.5" style="stroke:#181818;stroke-width:0.5;" width="126.041" x="790.6479" y="2320.0547"/><text fill="#000000" font-family="sans-serif" font-size="14" lengthAdjust="spacing" textLength="112.041" x="797.6479" y="2341.5879">ProductionWorker</text><text fill="#000000" font-family="sans-serif" font-size="14" lengthAdjust="spacing" textLength="38.1309" x="834.603" y="2359.1973">Model</text><rect fill="#E2E2F0" height="49.2188" rx="2.5" ry="2.5" style="stroke:#181818;stroke-width:0.5;" width="62.248" x="926.689" y="32.3906"/><text fill="#000000" font-family="sans-serif" font-size="14" lengthAdjust="spacing" textLength="48.248" x="933.689" y="53.9238">Product</text><text fill="#000000" font-family="sans-serif" font-size="14" lengthAdjust="spacing" textLength="38.1309" x="938.7476" y="71.5332">Model</text><rect fill="#E2E2F0" height="49.2188" rx="2.5" ry="2.5" style="stroke:#181818;stroke-width:0.5;" width="62.248" x="926.689" y="2320.0547"/><text fill="#000000" font-family="sans-serif" font-size="14" lengthAdjust="spacing" textLength="48.248" x="933.689" y="2341.5879">Product</text><text fill="#000000" font-family="sans-serif" font-size="14" lengthAdjust="spacing" textLength="38.1309" x="938.7476" y="2359.1973">Model</text><rect fill="#E2E2F0" height="49.2188" rx="2.5" ry="2.5" style="stroke:#181818;stroke-width:0.5;" width="140.0615" x="998.937" y="32.3906"/><text fill="#000000" font-family="sans-serif" font-size="14" lengthAdjust="spacing" textLength="126.0615" x="1005.937" y="53.9238">ProductComposition</text><text fill="#000000" font-family="sans-serif" font-size="14" lengthAdjust="spacing" textLength="38.1309" x="1049.9023" y="71.5332">Model</text><rect fill="#E2E2F0" height="49.2188" rx="2.5" ry="2.5" style="stroke:#181818;stroke-width:0.5;" width="140.0615" x="998.937" y="2320.0547"/><text fill="#000000" font-family="sans-serif" font-size="14" lengthAdjust="spacing" textLength="126.0615" x="1005.937" y="2341.5879">ProductComposition</text><text fill="#000000" font-family="sans-serif" font-size="14" lengthAdjust="spacing" textLength="38.1309" x="1049.9023" y="2359.1973">Model</text><rect fill="#E2E2F0" height="49.2188" rx="2.5" ry="2.5" style="stroke:#181818;stroke-width:0.5;" width="99.5928" x="1148.9985" y="32.3906"/><text fill="#000000" font-family="sans-serif" font-size="14" lengthAdjust="spacing" textLength="85.5928" x="1155.9985" y="53.9238">MaterialBatch</text><text fill="#000000" font-family="sans-serif" font-size="14" lengthAdjust="spacing" textLength="38.1309" x="1179.7295" y="71.5332">Model</text><rect fill="#E2E2F0" height="49.2188" rx="2.5" ry="2.5" style="stroke:#181818;stroke-width:0.5;" width="99.5928" x="1148.9985" y="2320.0547"/><text fill="#000000" font-family="sans-serif" font-size="14" lengthAdjust="spacing" textLength="85.5928" x="1155.9985" y="2341.5879">MaterialBatch</text><text fill="#000000" font-family="sans-serif" font-size="14" lengthAdjust="spacing" textLength="38.1309" x="1179.7295" y="2359.1973">Model</text><rect fill="#E2E2F0" height="49.2188" rx="2.5" ry="2.5" style="stroke:#181818;stroke-width:0.5;" width="94.9443" x="1258.5913" y="32.3906"/><text fill="#000000" font-family="sans-serif" font-size="14" lengthAdjust="spacing" textLength="80.9443" x="1265.5913" y="53.9238">InventoryLog</text><text fill="#000000" font-family="sans-serif" font-size="14" lengthAdjust="spacing" textLength="38.1309" x="1286.998" y="71.5332">Model</text><rect fill="#E2E2F0" height="49.2188" rx="2.5" ry="2.5" style="stroke:#181818;stroke-width:0.5;" width="94.9443" x="1258.5913" y="2320.0547"/><text fill="#000000" font-family="sans-serif" font-size="14" lengthAdjust="spacing" textLength="80.9443" x="1265.5913" y="2341.5879">InventoryLog</text><text fill="#000000" font-family="sans-serif" font-size="14" lengthAdjust="spacing" textLength="38.1309" x="1286.998" y="2359.1973">Model</text><rect fill="#E2E2F0" height="49.2188" rx="2.5" ry="2.5" style="stroke:#181818;stroke-width:0.5;" width="87.1445" x="1363.5356" y="32.3906"/><text fill="#000000" font-family="sans-serif" font-size="14" lengthAdjust="spacing" textLength="73.1445" x="1370.5356" y="53.9238">Transaction</text><text fill="#000000" font-family="sans-serif" font-size="14" lengthAdjust="spacing" textLength="38.1309" x="1388.0425" y="71.5332">Model</text><rect fill="#E2E2F0" height="49.2188" rx="2.5" ry="2.5" style="stroke:#181818;stroke-width:0.5;" width="87.1445" x="1363.5356" y="2320.0547"/><text fill="#000000" font-family="sans-serif" font-size="14" lengthAdjust="spacing" textLength="73.1445" x="1370.5356" y="2341.5879">Transaction</text><text fill="#000000" font-family="sans-serif" font-size="14" lengthAdjust="spacing" textLength="38.1309" x="1388.0425" y="2359.1973">Model</text><rect fill="#E2E2F0" height="31.6094" rx="2.5" ry="2.5" style="stroke:#181818;stroke-width:0.5;" width="129.9375" x="1460.6802" y="50"/><text fill="#000000" font-family="sans-serif" font-size="14" lengthAdjust="spacing" textLength="115.9375" x="1467.6802" y="71.5332">NotificationService</text><rect fill="#E2E2F0" height="31.6094" rx="2.5" ry="2.5" style="stroke:#181818;stroke-width:0.5;" width="129.9375" x="1460.6802" y="2320.0547"/><text fill="#000000" font-family="sans-serif" font-size="14" lengthAdjust="spacing" textLength="115.9375" x="1467.6802" y="2341.5879">NotificationService</text><text fill="#000000" font-family="sans-serif" font-size="14" lengthAdjust="spacing" textLength="59.9307" x="1711.7471" y="79.5332">Database</text><path d="M1726.7124,29 C1726.7124,19 1744.7124,19 1744.7124,19 C1744.7124,19 1762.7124,19 1762.7124,29 L1762.7124,55 C1762.7124,65 1744.7124,65 1744.7124,65 C1744.7124,65 1726.7124,65 1726.7124,55 L1726.7124,29 " fill="#E2E2F0" style="stroke:#181818;stroke-width:1.5;"/><path d="M1726.7124,29 C1726.7124,39 1744.7124,39 1744.7124,39 C1744.7124,39 1762.7124,39 1762.7124,29 " fill="none" style="stroke:#181818;stroke-width:1.5;"/><text fill="#000000" font-family="sans-serif" font-size="14" lengthAdjust="spacing" textLength="59.9307" x="1711.7471" y="2334.5879">Database</text><path d="M1726.7124,2347.6641 C1726.7124,2337.6641 1744.7124,2337.6641 1744.7124,2337.6641 C1744.7124,2337.6641 1762.7124,2337.6641 1762.7124,2347.6641 L1762.7124,2373.6641 C1762.7124,2383.6641 1744.7124,2383.6641 1744.7124,2383.6641 C1744.7124,2383.6641 1726.7124,2383.6641 1726.7124,2373.6641 L1726.7124,2347.6641 " fill="#E2E2F0" style="stroke:#181818;stroke-width:1.5;"/><path d="M1726.7124,2347.6641 C1726.7124,2357.6641 1744.7124,2357.6641 1744.7124,2357.6641 C1744.7124,2357.6641 1762.7124,2357.6641 1762.7124,2347.6641 " fill="none" style="stroke:#181818;stroke-width:1.5;"/><rect fill="#EEEEEE" height="3" style="stroke:#EEEEEE;stroke-width:1.0;" width="1807.6777" x="0" y="113.7852"/><line style="stroke:#000000;stroke-width:1.0;" x1="0" x2="1807.6777" y1="113.7852" y2="113.7852"/><line style="stroke:#000000;stroke-width:1.0;" x1="0" x2="1807.6777" y1="116.7852" y2="116.7852"/><rect fill="#EEEEEE" height="24.3516" style="stroke:#000000;stroke-width:2.0;" width="111.5063" x="848.0857" y="102.6094"/><text fill="#000000" font-family="sans-serif" font-size="13" font-weight="bold" lengthAdjust="spacing" textLength="93.8945" x="854.0857" y="120.1045">Melihat Antrian</text><polygon fill="#181818" points="208.7051,155.3125,218.7051,159.3125,208.7051,163.3125,212.7051,159.3125" style="stroke:#181818;stroke-width:1.0;"/><line style="stroke:#181818;stroke-width:1.0;" x1="70.2344" x2="214.7051" y1="159.3125" y2="159.3125"/><text fill="#000000" font-family="sans-serif" font-size="13" lengthAdjust="spacing" textLength="126.4707" x="77.2344" y="154.4561">Buka halaman antrian</text><polygon fill="#181818" points="601.459,185.6641,611.459,189.6641,601.459,193.6641,605.459,189.6641" style="stroke:#181818;stroke-width:1.0;"/><line style="stroke:#181818;stroke-width:1.0;" x1="220.7051" x2="607.459" y1="189.6641" y2="189.6641"/><text fill="#000000" font-family="sans-serif" font-size="13" lengthAdjust="spacing" textLength="175.7412" x="227.7051" y="184.8076">where('status', 'Antrian')-&gt;get()</text><polygon fill="#181818" points="1732.7124,216.0156,1742.7124,220.0156,1732.7124,224.0156,1736.7124,220.0156" style="stroke:#181818;stroke-width:1.0;"/><line style="stroke:#181818;stroke-width:1.0;" x1="613.459" x2="1738.7124" y1="220.0156" y2="220.0156"/><text fill="#000000" font-family="sans-serif" font-size="13" lengthAdjust="spacing" textLength="171.9453" x="620.459" y="215.1592">SELECT * FROM productions</text><polygon fill="#181818" points="624.459,246.3672,614.459,250.3672,624.459,254.3672,620.459,250.3672" style="stroke:#181818;stroke-width:1.0;"/><line style="stroke:#181818;stroke-width:1.0;stroke-dasharray:2.0,2.0;" x1="618.459" x2="1743.7124" y1="250.3672" y2="250.3672"/><text fill="#000000" font-family="sans-serif" font-size="13" lengthAdjust="spacing" textLength="86.709" x="630.459" y="245.5107">productions list</text><polygon fill="#181818" points="231.7051,276.7188,221.7051,280.7188,231.7051,284.7188,227.7051,280.7188" style="stroke:#181818;stroke-width:1.0;"/><line style="stroke:#181818;stroke-width:1.0;stroke-dasharray:2.0,2.0;" x1="225.7051" x2="612.459" y1="280.7188" y2="280.7188"/><text fill="#000000" font-family="sans-serif" font-size="13" lengthAdjust="spacing" textLength="92.498" x="237.7051" y="275.8623">antrian produksi</text><polygon fill="#181818" points="81.2344,307.0703,71.2344,311.0703,81.2344,315.0703,77.2344,311.0703" style="stroke:#181818;stroke-width:1.0;"/><line style="stroke:#181818;stroke-width:1.0;stroke-dasharray:2.0,2.0;" x1="75.2344" x2="219.7051" y1="311.0703" y2="311.0703"/><text fill="#000000" font-family="sans-serif" font-size="13" lengthAdjust="spacing" textLength="103.3271" x="87.2344" y="306.2139">Tampilkan antrian</text><rect fill="#EEEEEE" height="3" style="stroke:#EEEEEE;stroke-width:1.0;" width="1807.6777" x="0" y="340.2461"/><line style="stroke:#000000;stroke-width:1.0;" x1="0" x2="1807.6777" y1="340.2461" y2="340.2461"/><line style="stroke:#000000;stroke-width:1.0;" x1="0" x2="1807.6777" y1="343.2461" y2="343.2461"/><rect fill="#EEEEEE" height="24.3516" style="stroke:#000000;stroke-width:2.0;" width="128.8608" x="839.4084" y="329.0703"/><text fill="#000000" font-family="sans-serif" font-size="13" font-weight="bold" lengthAdjust="spacing" textLength="111.249" x="845.4084" y="346.5654">Memulai Produksi</text><polygon fill="#181818" points="308.1978,381.7734,318.1978,385.7734,308.1978,389.7734,312.1978,385.7734" style="stroke:#181818;stroke-width:1.0;"/><line style="stroke:#181818;stroke-width:1.0;" x1="70.2344" x2="314.1978" y1="385.7734" y2="385.7734"/><text fill="#000000" font-family="sans-serif" font-size="13" lengthAdjust="spacing" textLength="77.3145" x="77.2344" y="380.917">Pilih produksi</text><polygon fill="#181818" points="601.459,412.125,611.459,416.125,601.459,420.125,605.459,416.125" style="stroke:#181818;stroke-width:1.0;"/><line style="stroke:#181818;stroke-width:1.0;" x1="320.1978" x2="607.459" y1="416.125" y2="416.125"/><text fill="#000000" font-family="sans-serif" font-size="13" lengthAdjust="spacing" textLength="172.9482" x="327.1978" y="411.2686">find(id)-&gt;with('details.product')</text><polygon fill="#181818" points="1732.7124,442.4766,1742.7124,446.4766,1732.7124,450.4766,1736.7124,446.4766" style="stroke:#181818;stroke-width:1.0;"/><line style="stroke:#181818;stroke-width:1.0;" x1="613.459" x2="1738.7124" y1="446.4766" y2="446.4766"/><text fill="#000000" font-family="sans-serif" font-size="13" lengthAdjust="spacing" textLength="153.8989" x="620.459" y="441.6201">SELECT with relationships</text><polygon fill="#181818" points="624.459,472.8281,614.459,476.8281,624.459,480.8281,620.459,476.8281" style="stroke:#181818;stroke-width:1.0;"/><line style="stroke:#181818;stroke-width:1.0;stroke-dasharray:2.0,2.0;" x1="618.459" x2="1743.7124" y1="476.8281" y2="476.8281"/><text fill="#000000" font-family="sans-serif" font-size="13" lengthAdjust="spacing" textLength="113.1025" x="630.459" y="471.9717">production + details</text><polygon fill="#181818" points="331.1978,503.1797,321.1978,507.1797,331.1978,511.1797,327.1978,507.1797" style="stroke:#181818;stroke-width:1.0;"/><line style="stroke:#181818;stroke-width:1.0;stroke-dasharray:2.0,2.0;" x1="325.1978" x2="612.459" y1="507.1797" y2="507.1797"/><text fill="#000000" font-family="sans-serif" font-size="13" lengthAdjust="spacing" textLength="89.6226" x="337.1978" y="502.3232">production data</text><line style="stroke:#181818;stroke-width:1.0;" x1="320.1978" x2="362.1978" y1="537.5313" y2="537.5313"/><line style="stroke:#181818;stroke-width:1.0;" x1="362.1978" x2="362.1978" y1="537.5313" y2="550.5313"/><line style="stroke:#181818;stroke-width:1.0;" x1="321.1978" x2="362.1978" y1="550.5313" y2="550.5313"/><polygon fill="#181818" points="331.1978,546.5313,321.1978,550.5313,331.1978,554.5313,327.1978,550.5313" style="stroke:#181818;stroke-width:1.0;"/><text fill="#000000" font-family="sans-serif" font-size="13" lengthAdjust="spacing" textLength="140.9307" x="327.1978" y="532.6748">Cek ketersediaan bahan</text><path d="M10,565.5313 L82.4346,565.5313 L82.4346,573.8828 L72.4346,583.8828 L10,583.8828 L10,565.5313 " fill="#EEEEEE" style="stroke:#000000;stroke-width:1.5;"/><rect fill="none" height="371.0547" style="stroke:#000000;stroke-width:1.5;" width="1787.6777" x="10" y="565.5313"/><text fill="#000000" font-family="sans-serif" font-size="13" font-weight="bold" lengthAdjust="spacing" textLength="27.4346" x="25" y="580.0264">loop</text><text fill="#000000" font-family="sans-serif" font-size="11" font-weight="bold" lengthAdjust="spacing" textLength="227.9546" x="97.4346" y="578.9502">[Untuk setiap produk di production_details]</text><polygon fill="#181818" points="1056.9678,602.2344,1066.9678,606.2344,1056.9678,610.2344,1060.9678,606.2344" style="stroke:#181818;stroke-width:1.0;"/><line style="stroke:#181818;stroke-width:1.0;" x1="320.1978" x2="1062.9678" y1="606.2344" y2="606.2344"/><text fill="#000000" font-family="sans-serif" font-size="13" lengthAdjust="spacing" textLength="165.731" x="327.1978" y="601.3779">where('product_id', id)-&gt;get()</text><polygon fill="#181818" points="1732.7124,632.5859,1742.7124,636.5859,1732.7124,640.5859,1736.7124,636.5859" style="stroke:#181818;stroke-width:1.0;"/><line style="stroke:#181818;stroke-width:1.0;" x1="1068.9678" x2="1738.7124" y1="636.5859" y2="636.5859"/><text fill="#000000" font-family="sans-serif" font-size="13" lengthAdjust="spacing" textLength="231.1943" x="1075.9678" y="631.7295">SELECT * FROM product_compositions</text><polygon fill="#181818" points="1079.9678,662.9375,1069.9678,666.9375,1079.9678,670.9375,1075.9678,666.9375" style="stroke:#181818;stroke-width:1.0;"/><line style="stroke:#181818;stroke-width:1.0;stroke-dasharray:2.0,2.0;" x1="1073.9678" x2="1743.7124" y1="666.9375" y2="666.9375"/><text fill="#000000" font-family="sans-serif" font-size="13" lengthAdjust="spacing" textLength="97.5571" x="1085.9678" y="662.0811">komposisi bahan</text><path d="M20,681.9375 L92.4346,681.9375 L92.4346,690.2891 L82.4346,700.2891 L20,700.2891 L20,681.9375 " fill="#EEEEEE" style="stroke:#000000;stroke-width:1.5;"/><rect fill="none" height="247.6484" style="stroke:#000000;stroke-width:1.5;" width="1767.6777" x="20" y="681.9375"/><text fill="#000000" font-family="sans-serif" font-size="13" font-weight="bold" lengthAdjust="spacing" textLength="27.4346" x="35" y="696.4326">loop</text><text fill="#000000" font-family="sans-serif" font-size="11" font-weight="bold" lengthAdjust="spacing" textLength="108.7861" x="107.4346" y="695.3564">[Untuk setiap bahan]</text><polygon fill="#181818" points="1186.7949,734.9922,1196.7949,738.9922,1186.7949,742.9922,1190.7949,738.9922" style="stroke:#181818;stroke-width:1.0;"/><line style="stroke:#181818;stroke-width:1.0;" x1="320.1978" x2="1192.7949" y1="738.9922" y2="738.9922"/><text fill="#000000" font-family="sans-serif" font-size="13" lengthAdjust="spacing" textLength="129.9556" x="327.1978" y="717.7842">where('material_id', id)</text><text fill="#000000" font-family="sans-serif" font-size="13" lengthAdjust="spacing" textLength="95.6338" x="327.1978" y="734.1357">-&gt;sum('quantity')</text><polygon fill="#181818" points="1732.7124,765.3438,1742.7124,769.3438,1732.7124,773.3438,1736.7124,769.3438" style="stroke:#181818;stroke-width:1.0;"/><line style="stroke:#181818;stroke-width:1.0;" x1="1198.7949" x2="1738.7124" y1="769.3438" y2="769.3438"/><text fill="#000000" font-family="sans-serif" font-size="13" lengthAdjust="spacing" textLength="227.5698" x="1205.7949" y="764.4873">SUM(quantity) FROM material_batches</text><polygon fill="#181818" points="1209.7949,795.6953,1199.7949,799.6953,1209.7949,803.6953,1205.7949,799.6953" style="stroke:#181818;stroke-width:1.0;"/><line style="stroke:#181818;stroke-width:1.0;stroke-dasharray:2.0,2.0;" x1="1203.7949" x2="1743.7124" y1="799.6953" y2="799.6953"/><text fill="#000000" font-family="sans-serif" font-size="13" lengthAdjust="spacing" textLength="52.0254" x="1215.7949" y="794.8389">total stok</text><path d="M30,814.6953 L90.1709,814.6953 L90.1709,823.0469 L80.1709,833.0469 L30,833.0469 L30,814.6953 " fill="#EEEEEE" style="stroke:#000000;stroke-width:1.5;"/><rect fill="none" height="107.8906" style="stroke:#000000;stroke-width:1.5;" width="345.1978" x="30" y="814.6953"/><text fill="#000000" font-family="sans-serif" font-size="13" font-weight="bold" lengthAdjust="spacing" textLength="15.1709" x="45" y="829.1904">alt</text><text fill="#000000" font-family="sans-serif" font-size="11" font-weight="bold" lengthAdjust="spacing" textLength="68.4385" x="105.1709" y="828.1143">[Stok Cukup]</text><line style="stroke:#181818;stroke-width:1.0;" x1="320.1978" x2="362.1978" y1="855.3984" y2="855.3984"/><line style="stroke:#181818;stroke-width:1.0;" x1="362.1978" x2="362.1978" y1="855.3984" y2="868.3984"/><line style="stroke:#181818;stroke-width:1.0;" x1="321.1978" x2="362.1978" y1="868.3984" y2="868.3984"/><polygon fill="#181818" points="331.1978,864.3984,321.1978,868.3984,331.1978,872.3984,327.1978,868.3984" style="stroke:#181818;stroke-width:1.0;"/><text fill="#000000" font-family="sans-serif" font-size="13" lengthAdjust="spacing" textLength="18.7827" x="327.1978" y="850.542">OK</text><line style="stroke:#000000;stroke-width:1.0;stroke-dasharray:2.0,2.0;" x1="30" x2="375.1978" y1="877.3984" y2="877.3984"/><text fill="#000000" font-family="sans-serif" font-size="11" font-weight="bold" lengthAdjust="spacing" textLength="100.2246" x="35" y="888.8174">[Stok Tidak Cukup]</text><polygon fill="#181818" points="81.2344,910.5859,71.2344,914.5859,81.2344,918.5859,77.2344,914.5859" style="stroke:#181818;stroke-width:1.0;"/><line style="stroke:#181818;stroke-width:1.0;stroke-dasharray:2.0,2.0;" x1="75.2344" x2="319.1978" y1="914.5859" y2="914.5859"/><text fill="#000000" font-family="sans-serif" font-size="13" lengthAdjust="spacing" textLength="151.0552" x="87.2344" y="909.7295">Peringatan: Bahan kurang</text><polygon fill="#181818" points="308.1978,961.9375,318.1978,965.9375,308.1978,969.9375,312.1978,965.9375" style="stroke:#181818;stroke-width:1.0;"/><line style="stroke:#181818;stroke-width:1.0;" x1="70.2344" x2="314.1978" y1="965.9375" y2="965.9375"/><text fill="#000000" font-family="sans-serif" font-size="13" lengthAdjust="spacing" textLength="113.4453" x="77.2344" y="961.0811">Pilih pekerja terlibat</text><polygon fill="#181818" points="308.1978,992.2891,318.1978,996.2891,308.1978,1000.2891,312.1978,996.2891" style="stroke:#181818;stroke-width:1.0;"/><line style="stroke:#181818;stroke-width:1.0;" x1="70.2344" x2="314.1978" y1="996.2891" y2="996.2891"/><text fill="#000000" font-family="sans-serif" font-size="13" lengthAdjust="spacing" textLength="148.8335" x="77.2344" y="991.4326">Konfirmasi mulai produksi</text><polygon fill="#181818" points="841.6685,1022.6406,851.6685,1026.6406,841.6685,1030.6406,845.6685,1026.6406" style="stroke:#181818;stroke-width:1.0;"/><line style="stroke:#181818;stroke-width:1.0;" x1="320.1978" x2="847.6685" y1="1026.6406" y2="1026.6406"/><text fill="#000000" font-family="sans-serif" font-size="13" lengthAdjust="spacing" textLength="122.0845" x="327.1978" y="1021.7842">createMany(workers)</text><polygon fill="#181818" points="1732.7124,1052.9922,1742.7124,1056.9922,1732.7124,1060.9922,1736.7124,1056.9922" style="stroke:#181818;stroke-width:1.0;"/><line style="stroke:#181818;stroke-width:1.0;" x1="853.6685" x2="1738.7124" y1="1056.9922" y2="1056.9922"/><text fill="#000000" font-family="sans-serif" font-size="13" lengthAdjust="spacing" textLength="199.3926" x="860.6685" y="1052.1357">INSERT INTO production_workers</text><polygon fill="#181818" points="864.6685,1083.3438,854.6685,1087.3438,864.6685,1091.3438,860.6685,1087.3438" style="stroke:#181818;stroke-width:1.0;"/><line style="stroke:#181818;stroke-width:1.0;stroke-dasharray:2.0,2.0;" x1="858.6685" x2="1743.7124" y1="1087.3438" y2="1087.3438"/><text fill="#000000" font-family="sans-serif" font-size="13" lengthAdjust="spacing" textLength="92.479" x="870.6685" y="1082.4873">workers created</text><rect fill="#EEEEEE" height="3" style="stroke:#EEEEEE;stroke-width:1.0;" width="1807.6777" x="0" y="1116.5195"/><line style="stroke:#000000;stroke-width:1.0;" x1="0" x2="1807.6777" y1="1116.5195" y2="1116.5195"/><line style="stroke:#000000;stroke-width:1.0;" x1="0" x2="1807.6777" y1="1119.5195" y2="1119.5195"/><rect fill="#EEEEEE" height="24.3516" style="stroke:#000000;stroke-width:2.0;" width="183.7236" x="811.9771" y="1105.3438"/><text fill="#000000" font-family="sans-serif" font-size="13" font-weight="bold" lengthAdjust="spacing" textLength="166.1118" x="817.9771" y="1122.8389">Kurangi Stok Bahan (FIFO)</text><path d="M268.1772,1146.6953 L340.6118,1146.6953 L340.6118,1155.0469 L330.6118,1165.0469 L268.1772,1165.0469 L268.1772,1146.6953 " fill="#EEEEEE" style="stroke:#000000;stroke-width:1.5;"/><rect fill="none" height="322.2188" style="stroke:#000000;stroke-width:1.5;" width="1519.5005" x="268.1772" y="1146.6953"/><text fill="#000000" font-family="sans-serif" font-size="13" font-weight="bold" lengthAdjust="spacing" textLength="27.4346" x="283.1772" y="1161.1904">loop</text><text fill="#000000" font-family="sans-serif" font-size="11" font-weight="bold" lengthAdjust="spacing" textLength="108.7861" x="355.6118" y="1160.1143">[Untuk setiap bahan]</text><polygon fill="#181818" points="1186.7949,1210.9258,1196.7949,1214.9258,1186.7949,1218.9258,1190.7949,1214.9258" style="stroke:#181818;stroke-width:1.0;"/><line style="stroke:#181818;stroke-width:1.0;" x1="320.1978" x2="1192.7949" y1="1214.9258" y2="1214.9258"/><text fill="#000000" font-family="sans-serif" font-size="13" lengthAdjust="spacing" textLength="152.2676" x="327.1978" y="1193.7178">orderBy('expired_at', 'asc')</text><text fill="#000000" font-family="sans-serif" font-size="13" lengthAdjust="spacing" textLength="164.9121" x="327.1978" y="1210.0693">-&gt;orderBy('created_at', 'asc')</text><path d="M1203,1170.0469 L1203,1229.0469 L1341,1229.0469 L1341,1180.0469 L1331,1170.0469 L1203,1170.0469 " fill="#FEFFDD" style="stroke:#181818;stroke-width:0.5;"/><path d="M1331,1170.0469 L1331,1180.0469 L1341,1180.0469 L1331,1170.0469 " fill="#FEFFDD" style="stroke:#181818;stroke-width:0.5;"/><text fill="#000000" font-family="sans-serif" font-size="13" lengthAdjust="spacing" textLength="117.0635" x="1209" y="1188.542">FIFO: Batch dengan</text><text fill="#000000" font-family="sans-serif" font-size="13" lengthAdjust="spacing" textLength="93.2217" x="1209" y="1204.8936">expired terdekat</text><text fill="#000000" font-family="sans-serif" font-size="13" lengthAdjust="spacing" textLength="102.6479" x="1209" y="1221.2451">digunakan duluan</text><polygon fill="#181818" points="1732.7124,1252.4531,1742.7124,1256.4531,1732.7124,1260.4531,1736.7124,1256.4531" style="stroke:#181818;stroke-width:1.0;"/><line style="stroke:#181818;stroke-width:1.0;" x1="1198.7949" x2="1738.7124" y1="1256.4531" y2="1256.4531"/><text fill="#000000" font-family="sans-serif" font-size="13" lengthAdjust="spacing" textLength="195.0635" x="1205.7949" y="1251.5967">SELECT FROM material_batches</text><polygon fill="#181818" points="1209.7949,1282.8047,1199.7949,1286.8047,1209.7949,1290.8047,1205.7949,1286.8047" style="stroke:#181818;stroke-width:1.0;"/><line style="stroke:#181818;stroke-width:1.0;stroke-dasharray:2.0,2.0;" x1="1203.7949" x2="1743.7124" y1="1286.8047" y2="1286.8047"/><text fill="#000000" font-family="sans-serif" font-size="13" lengthAdjust="spacing" textLength="85.2744" x="1215.7949" y="1281.9482">batches sorted</text><polygon fill="#181818" points="1186.7949,1313.1563,1196.7949,1317.1563,1186.7949,1321.1563,1190.7949,1317.1563" style="stroke:#181818;stroke-width:1.0;"/><line style="stroke:#181818;stroke-width:1.0;" x1="320.1978" x2="1192.7949" y1="1317.1563" y2="1317.1563"/><text fill="#000000" font-family="sans-serif" font-size="13" lengthAdjust="spacing" textLength="100.4517" x="327.1978" y="1312.2998">decrement/delete</text><polygon fill="#181818" points="1732.7124,1343.5078,1742.7124,1347.5078,1732.7124,1351.5078,1736.7124,1347.5078" style="stroke:#181818;stroke-width:1.0;"/><line style="stroke:#181818;stroke-width:1.0;" x1="1198.7949" x2="1738.7124" y1="1347.5078" y2="1347.5078"/><text fill="#000000" font-family="sans-serif" font-size="13" lengthAdjust="spacing" textLength="209.5234" x="1205.7949" y="1342.6514">UPDATE/DELETE material_batches</text><polygon fill="#181818" points="1209.7949,1373.8594,1199.7949,1377.8594,1209.7949,1381.8594,1205.7949,1377.8594" style="stroke:#181818;stroke-width:1.0;"/><line style="stroke:#181818;stroke-width:1.0;stroke-dasharray:2.0,2.0;" x1="1203.7949" x2="1743.7124" y1="1377.8594" y2="1377.8594"/><text fill="#000000" font-family="sans-serif" font-size="13" lengthAdjust="spacing" textLength="46.9917" x="1215.7949" y="1373.0029">updated</text><polygon fill="#181818" points="1294.0635,1415.3867,1304.0635,1419.3867,1294.0635,1423.3867,1298.0635,1419.3867" style="stroke:#181818;stroke-width:1.0;"/><line style="stroke:#181818;stroke-width:1.0;" x1="320.1978" x2="1300.0635" y1="1419.3867" y2="1419.3867"/><text fill="#000000" font-family="sans-serif" font-size="13" lengthAdjust="spacing" textLength="94.6689" x="327.1978" y="1414.5303">create(log_data)</text><path d="M1311,1390.8594 L1311,1432.8594 L1428,1432.8594 L1428,1400.8594 L1418,1390.8594 L1311,1390.8594 " fill="#FEFFDD" style="stroke:#181818;stroke-width:0.5;"/><path d="M1418,1390.8594 L1418,1400.8594 L1428,1400.8594 L1418,1390.8594 " fill="#FEFFDD" style="stroke:#181818;stroke-width:0.5;"/><text fill="#000000" font-family="sans-serif" font-size="13" lengthAdjust="spacing" textLength="96.0146" x="1317" y="1409.3545">action: 'produksi'</text><text fill="#000000" font-family="sans-serif" font-size="13" lengthAdjust="spacing" textLength="54.8311" x="1317" y="1425.7061">type: 'out'</text><polygon fill="#181818" points="1732.7124,1456.9141,1742.7124,1460.9141,1732.7124,1464.9141,1736.7124,1460.9141" style="stroke:#181818;stroke-width:1.0;"/><line style="stroke:#181818;stroke-width:1.0;" x1="1306.0635" x2="1738.7124" y1="1460.9141" y2="1460.9141"/><text fill="#000000" font-family="sans-serif" font-size="13" lengthAdjust="spacing" textLength="169.7744" x="1313.0635" y="1456.0576">INSERT INTO inventory_logs</text><polygon fill="#181818" points="601.459,1494.2656,611.459,1498.2656,601.459,1502.2656,605.459,1498.2656" style="stroke:#181818;stroke-width:1.0;"/><line style="stroke:#181818;stroke-width:1.0;" x1="320.1978" x2="607.459" y1="1498.2656" y2="1498.2656"/><text fill="#000000" font-family="sans-serif" font-size="13" lengthAdjust="spacing" textLength="262.0186" x="327.1978" y="1493.4092">update(['status' =&gt; 'Proses', 'is_start' =&gt; true])</text><polygon fill="#181818" points="1732.7124,1524.6172,1742.7124,1528.6172,1732.7124,1532.6172,1736.7124,1528.6172" style="stroke:#181818;stroke-width:1.0;"/><line style="stroke:#181818;stroke-width:1.0;" x1="613.459" x2="1738.7124" y1="1528.6172" y2="1528.6172"/><text fill="#000000" font-family="sans-serif" font-size="13" lengthAdjust="spacing" textLength="123.5508" x="620.459" y="1523.7607">UPDATE productions</text><polygon fill="#181818" points="624.459,1554.9688,614.459,1558.9688,624.459,1562.9688,620.459,1558.9688" style="stroke:#181818;stroke-width:1.0;"/><line style="stroke:#181818;stroke-width:1.0;stroke-dasharray:2.0,2.0;" x1="618.459" x2="1743.7124" y1="1558.9688" y2="1558.9688"/><text fill="#000000" font-family="sans-serif" font-size="13" lengthAdjust="spacing" textLength="46.9917" x="630.459" y="1554.1123">updated</text><polygon fill="#181818" points="1513.6489,1585.3203,1523.6489,1589.3203,1513.6489,1593.3203,1517.6489,1589.3203" style="stroke:#181818;stroke-width:1.0;"/><line style="stroke:#181818;stroke-width:1.0;" x1="320.1978" x2="1519.6489" y1="1589.3203" y2="1589.3203"/><text fill="#000000" font-family="sans-serif" font-size="13" lengthAdjust="spacing" textLength="245.6924" x="327.1978" y="1584.4639">productionProcessing(production_number)</text><polygon fill="#181818" points="1732.7124,1615.6719,1742.7124,1619.6719,1732.7124,1623.6719,1736.7124,1619.6719" style="stroke:#181818;stroke-width:1.0;"/><line style="stroke:#181818;stroke-width:1.0;" x1="1525.6489" x2="1738.7124" y1="1619.6719" y2="1619.6719"/><text fill="#000000" font-family="sans-serif" font-size="13" lengthAdjust="spacing" textLength="154.5972" x="1532.6489" y="1614.8154">INSERT INTO notifications</text><polygon fill="#181818" points="81.2344,1646.0234,71.2344,1650.0234,81.2344,1654.0234,77.2344,1650.0234" style="stroke:#181818;stroke-width:1.0;"/><line style="stroke:#181818;stroke-width:1.0;stroke-dasharray:2.0,2.0;" x1="75.2344" x2="319.1978" y1="1650.0234" y2="1650.0234"/><text fill="#000000" font-family="sans-serif" font-size="13" lengthAdjust="spacing" textLength="95.3735" x="87.2344" y="1645.167">Produksi dimulai</text><rect fill="#EEEEEE" height="3" style="stroke:#EEEEEE;stroke-width:1.0;" width="1807.6777" x="0" y="1679.1992"/><line style="stroke:#000000;stroke-width:1.0;" x1="0" x2="1807.6777" y1="1679.1992" y2="1679.1992"/><line style="stroke:#000000;stroke-width:1.0;" x1="0" x2="1807.6777" y1="1682.1992" y2="1682.1992"/><rect fill="#EEEEEE" height="24.3516" style="stroke:#000000;stroke-width:2.0;" width="168.6226" x="819.5276" y="1668.0234"/><text fill="#000000" font-family="sans-serif" font-size="13" font-weight="bold" lengthAdjust="spacing" textLength="151.0107" x="825.5276" y="1685.5186">Menyelesaikan Produksi</text><polygon fill="#181818" points="308.1978,1720.7266,318.1978,1724.7266,308.1978,1728.7266,312.1978,1724.7266" style="stroke:#181818;stroke-width:1.0;"/><line style="stroke:#181818;stroke-width:1.0;" x1="70.2344" x2="314.1978" y1="1724.7266" y2="1724.7266"/><text fill="#000000" font-family="sans-serif" font-size="13" lengthAdjust="spacing" textLength="117.7744" x="77.2344" y="1719.8701">Klik selesai produksi</text><polygon fill="#181818" points="601.459,1751.0781,611.459,1755.0781,601.459,1759.0781,605.459,1755.0781" style="stroke:#181818;stroke-width:1.0;"/><line style="stroke:#181818;stroke-width:1.0;" x1="320.1978" x2="607.459" y1="1755.0781" y2="1755.0781"/><text fill="#000000" font-family="sans-serif" font-size="13" lengthAdjust="spacing" textLength="269.2612" x="327.1978" y="1750.2217">update(['status' =&gt; 'Selesai', 'is_finish' =&gt; true])</text><polygon fill="#181818" points="1732.7124,1781.4297,1742.7124,1785.4297,1732.7124,1789.4297,1736.7124,1785.4297" style="stroke:#181818;stroke-width:1.0;"/><line style="stroke:#181818;stroke-width:1.0;" x1="613.459" x2="1738.7124" y1="1785.4297" y2="1785.4297"/><text fill="#000000" font-family="sans-serif" font-size="13" lengthAdjust="spacing" textLength="123.5508" x="620.459" y="1780.5732">UPDATE productions</text><polygon fill="#181818" points="624.459,1811.7813,614.459,1815.7813,624.459,1819.7813,620.459,1815.7813" style="stroke:#181818;stroke-width:1.0;"/><line style="stroke:#181818;stroke-width:1.0;stroke-dasharray:2.0,2.0;" x1="618.459" x2="1743.7124" y1="1815.7813" y2="1815.7813"/><text fill="#000000" font-family="sans-serif" font-size="13" lengthAdjust="spacing" textLength="46.9917" x="630.459" y="1810.9248">updated</text><rect fill="#EEEEEE" height="3" style="stroke:#EEEEEE;stroke-width:1.0;" width="1807.6777" x="0" y="1844.957"/><line style="stroke:#000000;stroke-width:1.0;" x1="0" x2="1807.6777" y1="1844.957" y2="1844.957"/><line style="stroke:#000000;stroke-width:1.0;" x1="0" x2="1807.6777" y1="1847.957" y2="1847.957"/><rect fill="#EEEEEE" height="24.3516" style="stroke:#000000;stroke-width:2.0;" width="147.6309" x="830.0234" y="1833.7813"/><text fill="#000000" font-family="sans-serif" font-size="13" font-weight="bold" lengthAdjust="spacing" textLength="130.019" x="836.0234" y="1851.2764">Tambah Stok Produk</text><path d="M268.1772,1875.1328 L340.6118,1875.1328 L340.6118,1883.4844 L330.6118,1893.4844 L268.1772,1893.4844 L268.1772,1875.1328 " fill="#EEEEEE" style="stroke:#000000;stroke-width:1.5;"/><rect fill="none" height="109.4063" style="stroke:#000000;stroke-width:1.5;" width="1519.5005" x="268.1772" y="1875.1328"/><text fill="#000000" font-family="sans-serif" font-size="13" font-weight="bold" lengthAdjust="spacing" textLength="27.4346" x="283.1772" y="1889.6279">loop</text><text fill="#000000" font-family="sans-serif" font-size="11" font-weight="bold" lengthAdjust="spacing" textLength="168.6738" x="355.6118" y="1888.5518">[Untuk setiap production_detail]</text><polygon fill="#181818" points="945.813,1911.8359,955.813,1915.8359,945.813,1919.8359,949.813,1915.8359" style="stroke:#181818;stroke-width:1.0;"/><line style="stroke:#181818;stroke-width:1.0;" x1="320.1978" x2="951.813" y1="1915.8359" y2="1915.8359"/><text fill="#000000" font-family="sans-serif" font-size="13" lengthAdjust="spacing" textLength="125.6074" x="327.1978" y="1910.9795">increment('stock', qty)</text><polygon fill="#181818" points="1732.7124,1942.1875,1742.7124,1946.1875,1732.7124,1950.1875,1736.7124,1946.1875" style="stroke:#181818;stroke-width:1.0;"/><line style="stroke:#181818;stroke-width:1.0;" x1="957.813" x2="1738.7124" y1="1946.1875" y2="1946.1875"/><text fill="#000000" font-family="sans-serif" font-size="13" lengthAdjust="spacing" textLength="246.3652" x="964.813" y="1941.3311">UPDATE products SET stock = stock + qty</text><polygon fill="#181818" points="968.813,1972.5391,958.813,1976.5391,968.813,1980.5391,964.813,1976.5391" style="stroke:#181818;stroke-width:1.0;"/><line style="stroke:#181818;stroke-width:1.0;stroke-dasharray:2.0,2.0;" x1="962.813" x2="1743.7124" y1="1976.5391" y2="1976.5391"/><text fill="#000000" font-family="sans-serif" font-size="13" lengthAdjust="spacing" textLength="46.9917" x="974.813" y="1971.6826">updated</text><rect fill="#EEEEEE" height="3" style="stroke:#EEEEEE;stroke-width:1.0;" width="1807.6777" x="0" y="2012.7148"/><line style="stroke:#000000;stroke-width:1.0;" x1="0" x2="1807.6777" y1="2012.7148" y2="2012.7148"/><line style="stroke:#000000;stroke-width:1.0;" x1="0" x2="1807.6777" y1="2015.7148" y2="2015.7148"/><rect fill="#EEEEEE" height="24.3516" style="stroke:#000000;stroke-width:2.0;" width="287.0889" x="760.2944" y="2001.5391"/><text fill="#000000" font-family="sans-serif" font-size="13" font-weight="bold" lengthAdjust="spacing" textLength="269.4771" x="766.2944" y="2019.0342">Update Status Transaksi (jika dari pesanan)</text><path d="M268.1772,2042.8906 L328.3481,2042.8906 L328.3481,2051.2422 L318.3481,2061.2422 L268.1772,2061.2422 L268.1772,2042.8906 " fill="#EEEEEE" style="stroke:#000000;stroke-width:1.5;"/><rect fill="none" height="170.1094" style="stroke:#000000;stroke-width:1.5;" width="1519.5005" x="268.1772" y="2042.8906"/><text fill="#000000" font-family="sans-serif" font-size="13" font-weight="bold" lengthAdjust="spacing" textLength="15.1709" x="283.1772" y="2057.3857">alt</text><text fill="#000000" font-family="sans-serif" font-size="11" font-weight="bold" lengthAdjust="spacing" textLength="106.3477" x="343.3481" y="2056.3096">[Ada transaction_id]</text><polygon fill="#181818" points="1395.1079,2079.5938,1405.1079,2083.5938,1395.1079,2087.5938,1399.1079,2083.5938" style="stroke:#181818;stroke-width:1.0;"/><line style="stroke:#181818;stroke-width:1.0;" x1="320.1978" x2="1401.1079" y1="2083.5938" y2="2083.5938"/><text fill="#000000" font-family="sans-serif" font-size="13" lengthAdjust="spacing" textLength="204.3057" x="327.1978" y="2078.7373">update(['status' =&gt; 'Dapat Diambil'])</text><polygon fill="#181818" points="1732.7124,2109.9453,1742.7124,2113.9453,1732.7124,2117.9453,1736.7124,2113.9453" style="stroke:#181818;stroke-width:1.0;"/><line style="stroke:#181818;stroke-width:1.0;" x1="1407.1079" x2="1738.7124" y1="2113.9453" y2="2113.9453"/><text fill="#000000" font-family="sans-serif" font-size="13" lengthAdjust="spacing" textLength="126.4326" x="1414.1079" y="2109.0889">UPDATE transactions</text><polygon fill="#181818" points="1418.1079,2140.2969,1408.1079,2144.2969,1418.1079,2148.2969,1414.1079,2144.2969" style="stroke:#181818;stroke-width:1.0;"/><line style="stroke:#181818;stroke-width:1.0;stroke-dasharray:2.0,2.0;" x1="1412.1079" x2="1743.7124" y1="2144.2969" y2="2144.2969"/><text fill="#000000" font-family="sans-serif" font-size="13" lengthAdjust="spacing" textLength="46.9917" x="1424.1079" y="2139.4404">updated</text><polygon fill="#181818" points="1513.6489,2170.6484,1523.6489,2174.6484,1513.6489,2178.6484,1517.6489,2174.6484" style="stroke:#181818;stroke-width:1.0;"/><line style="stroke:#181818;stroke-width:1.0;" x1="320.1978" x2="1519.6489" y1="2174.6484" y2="2174.6484"/><text fill="#000000" font-family="sans-serif" font-size="13" lengthAdjust="spacing" textLength="226.8779" x="327.1978" y="2169.792">orderReadyForPickup(invoice_number)</text><polygon fill="#181818" points="1732.7124,2201,1742.7124,2205,1732.7124,2209,1736.7124,2205" style="stroke:#181818;stroke-width:1.0;"/><line style="stroke:#181818;stroke-width:1.0;" x1="1525.6489" x2="1738.7124" y1="2205" y2="2205"/><text fill="#000000" font-family="sans-serif" font-size="13" lengthAdjust="spacing" textLength="195.0635" x="1532.6489" y="2200.1436">INSERT notifications (untuk kasir)</text><polygon fill="#181818" points="1513.6489,2238.3516,1523.6489,2242.3516,1513.6489,2246.3516,1517.6489,2242.3516" style="stroke:#181818;stroke-width:1.0;"/><line style="stroke:#181818;stroke-width:1.0;" x1="320.1978" x2="1519.6489" y1="2242.3516" y2="2242.3516"/><text fill="#000000" font-family="sans-serif" font-size="13" lengthAdjust="spacing" textLength="244.2515" x="327.1978" y="2237.4951">productionCompleted(production_number)</text><polygon fill="#181818" points="1732.7124,2268.7031,1742.7124,2272.7031,1732.7124,2276.7031,1736.7124,2272.7031" style="stroke:#181818;stroke-width:1.0;"/><line style="stroke:#181818;stroke-width:1.0;" x1="1525.6489" x2="1738.7124" y1="2272.7031" y2="2272.7031"/><text fill="#000000" font-family="sans-serif" font-size="13" lengthAdjust="spacing" textLength="154.5972" x="1532.6489" y="2267.8467">INSERT INTO notifications</text><polygon fill="#181818" points="81.2344,2299.0547,71.2344,2303.0547,81.2344,2307.0547,77.2344,2303.0547" style="stroke:#181818;stroke-width:1.0;"/><line style="stroke:#181818;stroke-width:1.0;stroke-dasharray:2.0,2.0;" x1="75.2344" x2="319.1978" y1="2303.0547" y2="2303.0547"/><text fill="#000000" font-family="sans-serif" font-size="13" lengthAdjust="spacing" textLength="94.6563" x="87.2344" y="2298.1982">Produksi selesai</text><!--SRC=[hLRVJ-Cu47xFNs7jIzBRu_QzKf4eBHA2BZqekeTZLGsnQRr9xQpjmFM_t_6F94wRmacxI51gV-EP-VpDZ24tKf6bahGkD2UWoQDcAgb06Pxp2eGXdow4KHm4MSA6FOdibh-oDwxOw9E5_rspclNnYxe4Fen-C0Zievtlt70fdiH2KbOwOBTw2ZrZ1dXvQEDNJzdy8rN1L6pZLmRn0-4CuYxbhfAQ7sOGBH_G0uOXd-KKJBwDBTn27tijNfd06zhVoaqCnQzzu4g1q714OxJSnt-LXh_m7EpE0rElF6VEmAqd50myWsParlo3MxDfaamcPC5AlWL36bLC9ecL33axzreOasbT0Db22JlS1WzBt9u5TRSn9czRfbYMQWEcrkcV90s7fgEpymqpsIZfqDPsDXsJX_dj_795_Y1NztSBKhNxEfbDoTc1WsYRb5oRtdbTn2583ySwQA95XCrjJ5QmgtXPHFbuAdPUwatvH5mufO_9aYDRtRbkzP255ovenYdc_CRDDakfqx3-AmIVliE2DI2AbUuUzPPN7x10FfDm-Y4J8Tu8QaMGT147m2KhIC5GmPfH3aZ8Csmj7QMK5NaKfYw8PeP35P8cb4U7hXll17_QewDIQJKHRDQSeYuSELuGrZ32lwkATTu1lSj0JizXuR_WzVbKBCxzEKwf0_JYTuNRHhuBzTs6_YJEpdMzoz8VDQg7ctqwQizmfcqIZukimOny9krXpnR8T6iOCWckZJHG4craqGBQVw0q6Aeio6LTr5MxtCiWNExTJRlDIgnwPxRY5DunRcjaYO6A3Oe6EPrQeaXHO_lPT4SAcZIVzlT4hJ1ioD-1ODubnwmFKJTIl72r0xmlNtrjSNLQzLrzJ7B5aBy5Y7tsvfRqAF5x3UNNNn_czolyMDt5CWteffYQyy9oE9Uw9d3ZakIUAvztTdLzTJUotU0z2HtAHohAr7IVfUo_2WScNOEnBH5qdZe9jVl1Uxpl3XJICABuPci2vJQCSP0OPNWtZNQ31yinPGKqUCetjG3RvMXTrW6DD-LEJexbwclkj4xx6WqxH4jbkMirUiW3PPZW3iVU5vnYRCZnut9siPf_cQ7_rVp_kAuh2iC-SP0sCibAkLdRfdU2JGZTD6q4buODiwzmXgIoDkanO-XWI6ky6UnhzAfzEGmE1nzwzcyp9CdadAG8qCmDJAxNsfgvTQDgzcreMdZ2FXgM3KjT8Eur40y5XETCQwppBAeMKU-UcHeb3ZwKhOXU6pevQXpD-AJSLNIOhMAFrw-1Mps-Cs5lIcwBoq67Ui67P3vusy0c3cEkjx-LJim6tmzO-Bv7-5o6kyFHfEohDHm_Hlc46h6F9vaN6FmFd1aE7K33mU8JVBuYpePCmkTdQnjNJUkcIS794zDuTDzjFCXUU5pQMyc-uotXWq7X3I2N0eJhVdRoN51ivTqh58TYFwNeXNhYVcPGuNDpnf52NgRVV9AHsK6YaRDUAnXmDDGGWkHTixrdGFTNKYrvZiClmvgL-4vkvMxjXYJVKpl9QdV11GuijEaN-b5zsOU9xNdq5yhhT7s5Aab-0W00]--></g></svg>