<svg xmlns="http://www.w3.org/2000/svg" xmlns:xlink="http://www.w3.org/1999/xlink" contentStyleType="text/css" height="544px" preserveAspectRatio="none" style="width:782px;height:544px;background:#FFFFFF;" version="1.1" viewBox="0 0 782 544" width="782px" zoomAndPan="magnify"><title>Sequence Diagram</title><defs/><g><text fill="#000000" font-family="sans-serif" font-size="14" font-weight="bold" lengthAdjust="spacing" textLength="126.0479" x="329.4243" y="29.5332">Sequence Diagram</text><text fill="#000000" font-family="sans-serif" font-size="14" font-weight="bold" lengthAdjust="spacing" textLength="160.2412" x="312.3276" y="47.1426">Proses Login Pengguna</text><rect fill="none" height="125.2422" style="stroke:#000000;stroke-width:1.5;" width="565.9155" x="209.981" y="320.5859"/><line style="stroke:#181818;stroke-width:0.5;stroke-dasharray:5.0,5.0;" x1="39" x2="39" y1="138.8281" y2="462.8281"/><line style="stroke:#181818;stroke-width:0.5;stroke-dasharray:5.0,5.0;" x1="259.981" x2="259.981" y1="138.8281" y2="462.8281"/><line style="stroke:#181818;stroke-width:0.5;stroke-dasharray:5.0,5.0;" x1="516.1948" x2="516.1948" y1="138.8281" y2="462.8281"/><line style="stroke:#181818;stroke-width:0.5;stroke-dasharray:5.0,5.0;" x1="648.5107" x2="648.5107" y1="138.8281" y2="462.8281"/><line style="stroke:#181818;stroke-width:0.5;stroke-dasharray:5.0,5.0;" x1="733.0898" x2="733.0898" y1="138.8281" y2="462.8281"/><text fill="#000000" font-family="sans-serif" font-size="14" lengthAdjust="spacing" textLength="63.8408" x="5" y="135.752">Pengguna</text><ellipse cx="39.9204" cy="69.7188" fill="#E2E2F0" rx="8" ry="8" style="stroke:#181818;stroke-width:0.5;"/><path d="M39.9204,77.7188 L39.9204,104.7188 M26.9204,85.7188 L52.9204,85.7188 M39.9204,104.7188 L26.9204,119.7188 M39.9204,104.7188 L52.9204,119.7188 " fill="none" style="stroke:#181818;stroke-width:0.5;"/><text fill="#000000" font-family="sans-serif" font-size="14" lengthAdjust="spacing" textLength="63.8408" x="5" y="476.3613">Pengguna</text><ellipse cx="39.9204" cy="487.9375" fill="#E2E2F0" rx="8" ry="8" style="stroke:#181818;stroke-width:0.5;"/><path d="M39.9204,495.9375 L39.9204,522.9375 M26.9204,503.9375 L52.9204,503.9375 M39.9204,522.9375 L26.9204,537.9375 M39.9204,522.9375 L52.9204,537.9375 " fill="none" style="stroke:#181818;stroke-width:0.5;"/><rect fill="#E2E2F0" height="31.6094" rx="2.5" ry="2.5" style="stroke:#181818;stroke-width:0.5;" width="80.9512" x="219.981" y="106.2188"/><text fill="#000000" font-family="sans-serif" font-size="14" lengthAdjust="spacing" textLength="66.9512" x="226.981" y="127.752">LoginPage</text><rect fill="#E2E2F0" height="31.6094" rx="2.5" ry="2.5" style="stroke:#181818;stroke-width:0.5;" width="80.9512" x="219.981" y="461.8281"/><text fill="#000000" font-family="sans-serif" font-size="14" lengthAdjust="spacing" textLength="66.9512" x="226.981" y="483.3613">LoginPage</text><rect fill="#E2E2F0" height="31.6094" rx="2.5" ry="2.5" style="stroke:#181818;stroke-width:0.5;" width="103.4893" x="465.1948" y="106.2188"/><text fill="#000000" font-family="sans-serif" font-size="14" lengthAdjust="spacing" textLength="89.4893" x="472.1948" y="127.752">AuthController</text><rect fill="#E2E2F0" height="31.6094" rx="2.5" ry="2.5" style="stroke:#181818;stroke-width:0.5;" width="103.4893" x="465.1948" y="461.8281"/><text fill="#000000" font-family="sans-serif" font-size="14" lengthAdjust="spacing" textLength="89.4893" x="472.1948" y="483.3613">AuthController</text><rect fill="#E2E2F0" height="31.6094" rx="2.5" ry="2.5" style="stroke:#181818;stroke-width:0.5;" width="85.5791" x="606.5107" y="106.2188"/><text fill="#000000" font-family="sans-serif" font-size="14" lengthAdjust="spacing" textLength="71.5791" x="613.5107" y="127.752">User Model</text><rect fill="#E2E2F0" height="31.6094" rx="2.5" ry="2.5" style="stroke:#181818;stroke-width:0.5;" width="85.5791" x="606.5107" y="461.8281"/><text fill="#000000" font-family="sans-serif" font-size="14" lengthAdjust="spacing" textLength="71.5791" x="613.5107" y="483.3613">User Model</text><rect fill="#E2E2F0" height="31.6094" rx="2.5" ry="2.5" style="stroke:#181818;stroke-width:0.5;" width="63.8066" x="702.0898" y="106.2188"/><text fill="#000000" font-family="sans-serif" font-size="14" lengthAdjust="spacing" textLength="49.8066" x="709.0898" y="127.752">Session</text><rect fill="#E2E2F0" height="31.6094" rx="2.5" ry="2.5" style="stroke:#181818;stroke-width:0.5;" width="63.8066" x="702.0898" y="461.8281"/><text fill="#000000" font-family="sans-serif" font-size="14" lengthAdjust="spacing" textLength="49.8066" x="709.0898" y="483.3613">Session</text><polygon fill="#181818" points="248.4565,167.1797,258.4565,171.1797,248.4565,175.1797,252.4565,171.1797" style="stroke:#181818;stroke-width:1.0;"/><line style="stroke:#181818;stroke-width:1.0;" x1="39.9204" x2="254.4565" y1="171.1797" y2="171.1797"/><text fill="#000000" font-family="sans-serif" font-size="13" lengthAdjust="spacing" textLength="196.5361" x="51.9204" y="166.3232">Memasukkan email dan password</text><polygon fill="#181818" points="504.9395,197.5313,514.9395,201.5313,504.9395,205.5313,508.9395,201.5313" style="stroke:#181818;stroke-width:1.0;"/><line style="stroke:#181818;stroke-width:1.0;" x1="260.4565" x2="510.9395" y1="201.5313" y2="201.5313"/><text fill="#000000" font-family="sans-serif" font-size="13" lengthAdjust="spacing" textLength="172.6816" x="302.3572" y="196.6748">submitLogin(email, password)</text><polygon fill="#181818" points="637.3003,227.8828,647.3003,231.8828,637.3003,235.8828,641.3003,231.8828" style="stroke:#181818;stroke-width:1.0;"/><line style="stroke:#181818;stroke-width:1.0;" x1="516.9395" x2="643.3003" y1="231.8828" y2="231.8828"/><text fill="#000000" font-family="sans-serif" font-size="13" lengthAdjust="spacing" textLength="108.3608" x="528.9395" y="227.0264">findByEmail(email)</text><polygon fill="#181818" points="527.9395,258.2344,517.9395,262.2344,527.9395,266.2344,523.9395,262.2344" style="stroke:#181818;stroke-width:1.0;"/><line style="stroke:#181818;stroke-width:1.0;stroke-dasharray:2.0,2.0;" x1="521.9395" x2="648.3003" y1="262.2344" y2="262.2344"/><text fill="#000000" font-family="sans-serif" font-size="13" lengthAdjust="spacing" textLength="62.8608" x="551.6895" y="257.3779">return user</text><line style="stroke:#181818;stroke-width:1.0;" x1="516.9395" x2="558.9395" y1="292.5859" y2="292.5859"/><line style="stroke:#181818;stroke-width:1.0;" x1="558.9395" x2="558.9395" y1="292.5859" y2="305.5859"/><line style="stroke:#181818;stroke-width:1.0;" x1="517.9395" x2="558.9395" y1="305.5859" y2="305.5859"/><polygon fill="#181818" points="527.9395,301.5859,517.9395,305.5859,527.9395,309.5859,523.9395,305.5859" style="stroke:#181818;stroke-width:1.0;"/><text fill="#000000" font-family="sans-serif" font-size="13" lengthAdjust="spacing" textLength="110.5444" x="523.9395" y="287.7295">validatePassword()</text><path d="M209.981,320.5859 L270.1519,320.5859 L270.1519,328.9375 L260.1519,338.9375 L209.981,338.9375 L209.981,320.5859 " fill="#EEEEEE" style="stroke:#000000;stroke-width:1.5;"/><rect fill="none" height="125.2422" style="stroke:#000000;stroke-width:1.5;" width="565.9155" x="209.981" y="320.5859"/><text fill="#000000" font-family="sans-serif" font-size="13" font-weight="bold" lengthAdjust="spacing" textLength="15.1709" x="224.981" y="335.0811">alt</text><text fill="#000000" font-family="sans-serif" font-size="11" font-weight="bold" lengthAdjust="spacing" textLength="92.9146" x="285.1519" y="334.0049">[Kredensial Valid]</text><polygon fill="#181818" points="721.9932,357.2891,731.9932,361.2891,721.9932,365.2891,725.9932,361.2891" style="stroke:#181818;stroke-width:1.0;"/><line style="stroke:#181818;stroke-width:1.0;" x1="516.9395" x2="727.9932" y1="361.2891" y2="361.2891"/><text fill="#000000" font-family="sans-serif" font-size="13" lengthAdjust="spacing" textLength="116.3271" x="567.3027" y="356.4326">createSession(user)</text><polygon fill="#181818" points="271.4565,387.6406,261.4565,391.6406,271.4565,395.6406,267.4565,391.6406" style="stroke:#181818;stroke-width:1.0;"/><line style="stroke:#181818;stroke-width:1.0;stroke-dasharray:2.0,2.0;" x1="265.4565" x2="515.9395" y1="391.6406" y2="391.6406"/><text fill="#000000" font-family="sans-serif" font-size="13" lengthAdjust="spacing" textLength="130.7744" x="323.3108" y="386.7842">redirectToDashboard()</text><line style="stroke:#000000;stroke-width:1.0;stroke-dasharray:2.0,2.0;" x1="209.981" x2="775.8965" y1="400.6406" y2="400.6406"/><text fill="#000000" font-family="sans-serif" font-size="11" font-weight="bold" lengthAdjust="spacing" textLength="124.7007" x="214.981" y="412.0596">[Kredensial Tidak Valid]</text><polygon fill="#181818" points="271.4565,433.8281,261.4565,437.8281,271.4565,441.8281,267.4565,437.8281" style="stroke:#181818;stroke-width:1.0;"/><line style="stroke:#181818;stroke-width:1.0;stroke-dasharray:2.0,2.0;" x1="265.4565" x2="515.9395" y1="437.8281" y2="437.8281"/><text fill="#000000" font-family="sans-serif" font-size="13" lengthAdjust="spacing" textLength="232.4829" x="272.4565" y="432.9717">showError("Email atau password salah")</text><!--SRC=[NP2nRiCm34HtVGNXoGQQ7-XGm4qoDGOCEEdKXR5PHx12fQBSe7zVMew3ffe4yjsTJZ9Olc30CmXzZSGjLII2FPNEzWmjSQHWJBJH4JGt13OMUzLyS1syaC3EzvQX9kxxaT4ORACFa2s3353W86gaKT6sze8S8KkgMhFIVbS_RiindjQUO_3EKKX8kNv49akeV4TkJgWUruqsiPxJhccCIVZgHPFW6Ieweup3W0nwimuwlLrGvEf3PnHHi5mhAEFnR6DwQvx8fpjM62MKErJAVLhkNd-s4p5pXT7vQh495CV0C4w_CAlI-1kTxJ1IVRFC2_qz5-4jK4Si5XsyJuW1FREkQLJN1bBLhM4-kHPtPAce5ZPG6_T-Wt8wUapsv8J-skyrV_WNiZZ8oL-t8VYGPwaOOCJnNXy47PuojUJE_080]--></g></svg>