<svg xmlns="http://www.w3.org/2000/svg" xmlns:xlink="http://www.w3.org/1999/xlink" contentStyleType="text/css" height="969px" preserveAspectRatio="none" style="width:1091px;height:969px;background:#FFFFFF;" version="1.1" viewBox="0 0 1091 969" width="1091px" zoomAndPan="magnify"><title>Sequence Diagram</title><defs/><g><text fill="#000000" font-family="sans-serif" font-size="14" font-weight="bold" lengthAdjust="spacing" textLength="126.0479" x="481.511" y="29.5332">Sequence Diagram</text><text fill="#000000" font-family="sans-serif" font-size="14" font-weight="bold" lengthAdjust="spacing" textLength="153.2549" x="467.9075" y="47.1426">Mengelola Bahan Baku</text><line style="stroke:#181818;stroke-width:0.5;stroke-dasharray:5.0,5.0;" x1="58" x2="58" y1="138.8281" y2="887.2656"/><line style="stroke:#181818;stroke-width:0.5;stroke-dasharray:5.0,5.0;" x1="367.8115" x2="367.8115" y1="138.8281" y2="887.2656"/><line style="stroke:#181818;stroke-width:0.5;stroke-dasharray:5.0,5.0;" x1="685.7622" x2="685.7622" y1="138.8281" y2="887.2656"/><line style="stroke:#181818;stroke-width:0.5;stroke-dasharray:5.0,5.0;" x1="821.0986" x2="821.0986" y1="138.8281" y2="887.2656"/><line style="stroke:#181818;stroke-width:0.5;stroke-dasharray:5.0,5.0;" x1="985.5874" x2="985.5874" y1="138.8281" y2="887.2656"/><line style="stroke:#181818;stroke-width:0.5;stroke-dasharray:5.0,5.0;" x1="1065.1733" x2="1065.1733" y1="138.8281" y2="887.2656"/><text fill="#000000" font-family="sans-serif" font-size="14" lengthAdjust="spacing" textLength="101.1787" x="5" y="135.752">Bagian Inventori</text><ellipse cx="58.5894" cy="69.7188" fill="#E2E2F0" rx="8" ry="8" style="stroke:#181818;stroke-width:0.5;"/><path d="M58.5894,77.7188 L58.5894,104.7188 M45.5894,85.7188 L71.5894,85.7188 M58.5894,104.7188 L45.5894,119.7188 M58.5894,104.7188 L71.5894,119.7188 " fill="none" style="stroke:#181818;stroke-width:0.5;"/><text fill="#000000" font-family="sans-serif" font-size="14" lengthAdjust="spacing" textLength="101.1787" x="5" y="900.7988">Bagian Inventori</text><ellipse cx="58.5894" cy="912.375" fill="#E2E2F0" rx="8" ry="8" style="stroke:#181818;stroke-width:0.5;"/><path d="M58.5894,920.375 L58.5894,947.375 M45.5894,928.375 L71.5894,928.375 M58.5894,947.375 L45.5894,962.375 M58.5894,947.375 L71.5894,962.375 " fill="none" style="stroke:#181818;stroke-width:0.5;"/><rect fill="#E2E2F0" height="31.6094" rx="2.5" ry="2.5" style="stroke:#181818;stroke-width:0.5;" width="96.4893" x="319.8115" y="106.2188"/><text fill="#000000" font-family="sans-serif" font-size="14" lengthAdjust="spacing" textLength="82.4893" x="326.8115" y="127.752">MaterialPage</text><rect fill="#E2E2F0" height="31.6094" rx="2.5" ry="2.5" style="stroke:#181818;stroke-width:0.5;" width="96.4893" x="319.8115" y="886.2656"/><text fill="#000000" font-family="sans-serif" font-size="14" lengthAdjust="spacing" textLength="82.4893" x="326.8115" y="907.7988">MaterialPage</text><rect fill="#E2E2F0" height="31.6094" rx="2.5" ry="2.5" style="stroke:#181818;stroke-width:0.5;" width="124.4824" x="623.7622" y="106.2188"/><text fill="#000000" font-family="sans-serif" font-size="14" lengthAdjust="spacing" textLength="110.4824" x="630.7622" y="127.752">MaterialController</text><rect fill="#E2E2F0" height="31.6094" rx="2.5" ry="2.5" style="stroke:#181818;stroke-width:0.5;" width="124.4824" x="623.7622" y="886.2656"/><text fill="#000000" font-family="sans-serif" font-size="14" lengthAdjust="spacing" textLength="110.4824" x="630.7622" y="907.7988">MaterialController</text><rect fill="#E2E2F0" height="31.6094" rx="2.5" ry="2.5" style="stroke:#181818;stroke-width:0.5;" width="63.793" x="790.0986" y="106.2188"/><text fill="#000000" font-family="sans-serif" font-size="14" lengthAdjust="spacing" textLength="49.793" x="797.0986" y="127.752">Material</text><rect fill="#E2E2F0" height="31.6094" rx="2.5" ry="2.5" style="stroke:#181818;stroke-width:0.5;" width="63.793" x="790.0986" y="886.2656"/><text fill="#000000" font-family="sans-serif" font-size="14" lengthAdjust="spacing" textLength="49.793" x="797.0986" y="907.7988">Material</text><rect fill="#E2E2F0" height="31.6094" rx="2.5" ry="2.5" style="stroke:#181818;stroke-width:0.5;" width="99.5859" x="936.5874" y="106.2188"/><text fill="#000000" font-family="sans-serif" font-size="14" lengthAdjust="spacing" textLength="85.5859" x="943.5874" y="127.752">MaterialDetail</text><rect fill="#E2E2F0" height="31.6094" rx="2.5" ry="2.5" style="stroke:#181818;stroke-width:0.5;" width="99.5859" x="936.5874" y="886.2656"/><text fill="#000000" font-family="sans-serif" font-size="14" lengthAdjust="spacing" textLength="85.5859" x="943.5874" y="907.7988">MaterialDetail</text><rect fill="#E2E2F0" height="31.6094" rx="2.5" ry="2.5" style="stroke:#181818;stroke-width:0.5;" width="38.8965" x="1046.1733" y="106.2188"/><text fill="#000000" font-family="sans-serif" font-size="14" lengthAdjust="spacing" textLength="24.8965" x="1053.1733" y="127.752">Unit</text><rect fill="#E2E2F0" height="31.6094" rx="2.5" ry="2.5" style="stroke:#181818;stroke-width:0.5;" width="38.8965" x="1046.1733" y="886.2656"/><text fill="#000000" font-family="sans-serif" font-size="14" lengthAdjust="spacing" textLength="24.8965" x="1053.1733" y="907.7988">Unit</text><polygon fill="#181818" points="356.0562,167.1797,366.0562,171.1797,356.0562,175.1797,360.0562,171.1797" style="stroke:#181818;stroke-width:1.0;"/><line style="stroke:#181818;stroke-width:1.0;" x1="58.5894" x2="362.0562" y1="171.1797" y2="171.1797"/><text fill="#000000" font-family="sans-serif" font-size="13" lengthAdjust="spacing" textLength="191.5215" x="117.562" y="166.3232">Mengakses halaman bahan baku</text><polygon fill="#181818" points="674.0034,197.5313,684.0034,201.5313,674.0034,205.5313,678.0034,201.5313" style="stroke:#181818;stroke-width:1.0;"/><line style="stroke:#181818;stroke-width:1.0;" x1="368.0562" x2="680.0034" y1="201.5313" y2="201.5313"/><text fill="#000000" font-family="sans-serif" font-size="13" lengthAdjust="spacing" textLength="44.7891" x="504.6353" y="196.6748">mount()</text><polygon fill="#181818" points="809.9951,227.8828,819.9951,231.8828,809.9951,235.8828,813.9951,231.8828" style="stroke:#181818;stroke-width:1.0;"/><line style="stroke:#181818;stroke-width:1.0;" x1="686.0034" x2="815.9951" y1="231.8828" y2="231.8828"/><text fill="#000000" font-family="sans-serif" font-size="13" lengthAdjust="spacing" textLength="21.6646" x="743.167" y="227.0264">all()</text><polygon fill="#181818" points="379.0562,258.2344,369.0562,262.2344,379.0562,266.2344,375.0562,262.2344" style="stroke:#181818;stroke-width:1.0;"/><line style="stroke:#181818;stroke-width:1.0;stroke-dasharray:2.0,2.0;" x1="373.0562" x2="685.0034" y1="262.2344" y2="262.2344"/><text fill="#000000" font-family="sans-serif" font-size="13" lengthAdjust="spacing" textLength="101.8608" x="476.0994" y="257.3779">displayMaterials()</text><polygon fill="#181818" points="356.0562,288.5859,366.0562,292.5859,356.0562,296.5859,360.0562,292.5859" style="stroke:#181818;stroke-width:1.0;"/><line style="stroke:#181818;stroke-width:1.0;" x1="58.5894" x2="362.0562" y1="292.5859" y2="292.5859"/><text fill="#000000" font-family="sans-serif" font-size="13" lengthAdjust="spacing" textLength="146.6943" x="139.9756" y="287.7295">Klik Tambah Bahan Baku</text><polygon fill="#181818" points="69.5894,318.9375,59.5894,322.9375,69.5894,326.9375,65.5894,322.9375" style="stroke:#181818;stroke-width:1.0;"/><line style="stroke:#181818;stroke-width:1.0;stroke-dasharray:2.0,2.0;" x1="63.5894" x2="367.0562" y1="322.9375" y2="322.9375"/><text fill="#000000" font-family="sans-serif" font-size="13" lengthAdjust="spacing" textLength="100.4199" x="163.1128" y="318.0811">Tampil form input</text><polygon fill="#181818" points="356.0562,349.2891,366.0562,353.2891,356.0562,357.2891,360.0562,353.2891" style="stroke:#181818;stroke-width:1.0;"/><line style="stroke:#181818;stroke-width:1.0;" x1="58.5894" x2="362.0562" y1="353.2891" y2="353.2891"/><text fill="#000000" font-family="sans-serif" font-size="13" lengthAdjust="spacing" textLength="285.4668" x="70.5894" y="348.4326">Input data bahan(nama, desc, unit_utama, harga)</text><polygon fill="#181818" points="674.0034,379.6406,684.0034,383.6406,674.0034,387.6406,678.0034,383.6406" style="stroke:#181818;stroke-width:1.0;"/><line style="stroke:#181818;stroke-width:1.0;" x1="368.0562" x2="680.0034" y1="383.6406" y2="383.6406"/><text fill="#000000" font-family="sans-serif" font-size="13" lengthAdjust="spacing" textLength="62.8608" x="495.5994" y="378.7842">store(data)</text><polygon fill="#181818" points="809.9951,409.9922,819.9951,413.9922,809.9951,417.9922,813.9951,413.9922" style="stroke:#181818;stroke-width:1.0;"/><line style="stroke:#181818;stroke-width:1.0;" x1="686.0034" x2="815.9951" y1="413.9922" y2="413.9922"/><text fill="#000000" font-family="sans-serif" font-size="13" lengthAdjust="spacing" textLength="111.9917" x="698.0034" y="409.1357">create(nama, desc)</text><polygon fill="#181818" points="1053.6216,440.3438,1063.6216,444.3438,1053.6216,448.3438,1057.6216,444.3438" style="stroke:#181818;stroke-width:1.0;"/><line style="stroke:#181818;stroke-width:1.0;" x1="686.0034" x2="1059.6216" y1="444.3438" y2="444.3438"/><text fill="#000000" font-family="sans-serif" font-size="13" lengthAdjust="spacing" textLength="91.7744" x="829.9253" y="439.4873">validate(unit_id)</text><polygon fill="#181818" points="974.3804,470.6953,984.3804,474.6953,974.3804,478.6953,978.3804,474.6953" style="stroke:#181818;stroke-width:1.0;"/><line style="stroke:#181818;stroke-width:1.0;" x1="686.0034" x2="980.3804" y1="474.6953" y2="474.6953"/><text fill="#000000" font-family="sans-serif" font-size="13" lengthAdjust="spacing" textLength="271.3179" x="700.533" y="469.8389">create(material_id, unit_id, price, is_main=true)</text><polygon fill="#181818" points="379.0562,501.0469,369.0562,505.0469,379.0562,509.0469,375.0562,505.0469" style="stroke:#181818;stroke-width:1.0;"/><line style="stroke:#181818;stroke-width:1.0;stroke-dasharray:2.0,2.0;" x1="373.0562" x2="685.0034" y1="505.0469" y2="505.0469"/><text fill="#000000" font-family="sans-serif" font-size="13" lengthAdjust="spacing" textLength="293.9473" x="380.0562" y="500.1904">showSuccess("Bahan baku berhasil ditambahkan")</text><polygon fill="#181818" points="356.0562,531.3984,366.0562,535.3984,356.0562,539.3984,360.0562,535.3984" style="stroke:#181818;stroke-width:1.0;"/><line style="stroke:#181818;stroke-width:1.0;" x1="58.5894" x2="362.0562" y1="535.3984" y2="535.3984"/><text fill="#000000" font-family="sans-serif" font-size="13" lengthAdjust="spacing" textLength="277.4561" x="74.5947" y="530.542">Tambah unit konversi(material_id, unit_id, price)</text><polygon fill="#181818" points="674.0034,561.75,684.0034,565.75,674.0034,569.75,678.0034,565.75" style="stroke:#181818;stroke-width:1.0;"/><line style="stroke:#181818;stroke-width:1.0;" x1="368.0562" x2="680.0034" y1="565.75" y2="565.75"/><text fill="#000000" font-family="sans-serif" font-size="13" lengthAdjust="spacing" textLength="197.9834" x="428.0381" y="560.8936">addUnit(material_id, unit_id, price)</text><polygon fill="#181818" points="974.3804,592.1016,984.3804,596.1016,974.3804,600.1016,978.3804,596.1016" style="stroke:#181818;stroke-width:1.0;"/><line style="stroke:#181818;stroke-width:1.0;" x1="686.0034" x2="980.3804" y1="596.1016" y2="596.1016"/><text fill="#000000" font-family="sans-serif" font-size="13" lengthAdjust="spacing" textLength="276.377" x="698.0034" y="591.2451">create(material_id, unit_id, price, is_main=false)</text><polygon fill="#181818" points="379.0562,622.4531,369.0562,626.4531,379.0562,630.4531,375.0562,626.4531" style="stroke:#181818;stroke-width:1.0;"/><line style="stroke:#181818;stroke-width:1.0;stroke-dasharray:2.0,2.0;" x1="373.0562" x2="685.0034" y1="626.4531" y2="626.4531"/><text fill="#000000" font-family="sans-serif" font-size="13" lengthAdjust="spacing" textLength="250.5547" x="401.7524" y="621.5967">showSuccess("Unit konversi ditambahkan")</text><polygon fill="#181818" points="356.0562,652.8047,366.0562,656.8047,356.0562,660.8047,360.0562,656.8047" style="stroke:#181818;stroke-width:1.0;"/><line style="stroke:#181818;stroke-width:1.0;" x1="58.5894" x2="362.0562" y1="656.8047" y2="656.8047"/><text fill="#000000" font-family="sans-serif" font-size="13" lengthAdjust="spacing" textLength="145.2661" x="140.6897" y="651.9482">Edit bahan baku(id, data)</text><polygon fill="#181818" points="674.0034,683.1563,684.0034,687.1563,674.0034,691.1563,678.0034,687.1563" style="stroke:#181818;stroke-width:1.0;"/><line style="stroke:#181818;stroke-width:1.0;" x1="368.0562" x2="680.0034" y1="687.1563" y2="687.1563"/><text fill="#000000" font-family="sans-serif" font-size="13" lengthAdjust="spacing" textLength="91.0635" x="481.498" y="682.2998">update(id, data)</text><polygon fill="#181818" points="809.9951,713.5078,819.9951,717.5078,809.9951,721.5078,813.9951,717.5078" style="stroke:#181818;stroke-width:1.0;"/><line style="stroke:#181818;stroke-width:1.0;" x1="686.0034" x2="815.9951" y1="717.5078" y2="717.5078"/><text fill="#000000" font-family="sans-serif" font-size="13" lengthAdjust="spacing" textLength="91.0635" x="708.4675" y="712.6514">update(id, data)</text><polygon fill="#181818" points="379.0562,743.8594,369.0562,747.8594,379.0562,751.8594,375.0562,747.8594" style="stroke:#181818;stroke-width:1.0;"/><line style="stroke:#181818;stroke-width:1.0;stroke-dasharray:2.0,2.0;" x1="373.0562" x2="685.0034" y1="747.8594" y2="747.8594"/><text fill="#000000" font-family="sans-serif" font-size="13" lengthAdjust="spacing" textLength="258.5464" x="397.7566" y="743.0029">showSuccess("Bahan baku berhasil diubah")</text><polygon fill="#181818" points="356.0562,774.2109,366.0562,778.2109,356.0562,782.2109,360.0562,778.2109" style="stroke:#181818;stroke-width:1.0;"/><line style="stroke:#181818;stroke-width:1.0;" x1="58.5894" x2="362.0562" y1="778.2109" y2="778.2109"/><text fill="#000000" font-family="sans-serif" font-size="13" lengthAdjust="spacing" textLength="115.6035" x="155.521" y="773.3545">Ubah status aktif(id)</text><polygon fill="#181818" points="674.0034,804.5625,684.0034,808.5625,674.0034,812.5625,678.0034,808.5625" style="stroke:#181818;stroke-width:1.0;"/><line style="stroke:#181818;stroke-width:1.0;" x1="368.0562" x2="680.0034" y1="808.5625" y2="808.5625"/><text fill="#000000" font-family="sans-serif" font-size="13" lengthAdjust="spacing" textLength="89.5972" x="482.2312" y="803.7061">toggleActive(id)</text><polygon fill="#181818" points="809.9951,834.9141,819.9951,838.9141,809.9951,842.9141,813.9951,838.9141" style="stroke:#181818;stroke-width:1.0;"/><line style="stroke:#181818;stroke-width:1.0;" x1="686.0034" x2="815.9951" y1="838.9141" y2="838.9141"/><text fill="#000000" font-family="sans-serif" font-size="13" lengthAdjust="spacing" textLength="99.709" x="704.1448" y="834.0576">toggleIsActive(id)</text><polygon fill="#181818" points="379.0562,865.2656,369.0562,869.2656,379.0562,873.2656,375.0562,869.2656" style="stroke:#181818;stroke-width:1.0;"/><line style="stroke:#181818;stroke-width:1.0;stroke-dasharray:2.0,2.0;" x1="373.0562" x2="685.0034" y1="869.2656" y2="869.2656"/><text fill="#000000" font-family="sans-serif" font-size="13" lengthAdjust="spacing" textLength="257.1055" x="398.4771" y="864.4092">showSuccess("Status bahan baku berubah")</text><!--SRC=[dL9Dgzj03BpxLuYS_23z0mzQU4bw2CNm8FMjy53MYYsytdNt8wN_lbh7IUnWKjfBY3MpcXb9lcNJeyCEFFsCP1GLv3tMzAQvDg38179P5ZXeWiD8WHrZBMz-c89CJTfgX0qsQEItZLc6AbW7gmtMBBMzEKiNwtW5wDDN9eA15VTe0gmA50L6_IwY0wDuNoPihGdEQatkGjikqovWiGpkA22FbDsSKXeE0r0MMIOkuTCNiGAla39Ywyb3WnexINGSiXvJLc4atbPudOqcv2-PVAHI8INKUYnScrNiUus_htwym3EnRvfR-8wTI4n7ccI4afYl2UvPmycw3cHxCSnRx5C9AWnuCPeRCRs6YhnQGvIK7p4CbGPTZI_J25xMH7bwEekX78dVIPyhMYRqZ9ghX0-zkReztTsVTcDUWKSFwK_lMD4Qs7zqoEPpS97cq_AD_NM8Iib9vglDRUfm9DUWbnbK78PPjMXM3vCSXvZ4eBLoWyxpCn-pGM1LfNlu2___OfvaxSzobbF7pn9-5MnoYtdI6dTtJnBxOJSJxBxNHUmVPXz5_D5KcORk0uRe0Tl0ftouYBkXOEjQqviAVAPySYt53Tlx1tJHqk6YSPmv6ntz0G00]--></g></svg>