<svg xmlns="http://www.w3.org/2000/svg" xmlns:xlink="http://www.w3.org/1999/xlink" contentStyleType="text/css" height="652px" preserveAspectRatio="none" style="width:938px;height:652px;background:#FFFFFF;" version="1.1" viewBox="0 0 938 652" width="938px" zoomAndPan="magnify"><title>Sequence Diagram</title><defs/><g><text fill="#000000" font-family="sans-serif" font-size="14" font-weight="bold" lengthAdjust="spacing" textLength="126.0479" x="407.7888" y="29.5332">Sequence Diagram</text><text fill="#000000" font-family="sans-serif" font-size="14" font-weight="bold" lengthAdjust="spacing" textLength="210.0273" x="365.7991" y="47.1426">Mengelola Produk &amp; Komposisi</text><rect fill="none" height="245.8125" style="stroke:#000000;stroke-width:1.5;" width="922.6255" x="10" y="277.2344"/><rect fill="none" height="183.1094" style="stroke:#000000;stroke-width:1.5;" width="902.6255" x="20" y="302.5859"/><line style="stroke:#181818;stroke-width:0.5;stroke-dasharray:5.0,5.0;" x1="83" x2="83" y1="138.8281" y2="570.3984"/><line style="stroke:#181818;stroke-width:0.5;stroke-dasharray:5.0,5.0;" x1="319.5605" x2="319.5605" y1="138.8281" y2="570.3984"/><line style="stroke:#181818;stroke-width:0.5;stroke-dasharray:5.0,5.0;" x1="539.4019" x2="539.4019" y1="138.8281" y2="570.3984"/><line style="stroke:#181818;stroke-width:0.5;stroke-dasharray:5.0,5.0;" x1="704.751" x2="704.751" y1="138.8281" y2="570.3984"/><line style="stroke:#181818;stroke-width:0.5;stroke-dasharray:5.0,5.0;" x1="792.019" x2="792.019" y1="138.8281" y2="570.3984"/><line style="stroke:#181818;stroke-width:0.5;stroke-dasharray:5.0,5.0;" x1="879.8325" x2="879.8325" y1="138.8281" y2="570.3984"/><text fill="#000000" font-family="sans-serif" font-size="14" lengthAdjust="spacing" textLength="101.1787" x="30" y="135.752">Bagian Inventori</text><ellipse cx="83.5894" cy="69.7188" fill="#E2E2F0" rx="8" ry="8" style="stroke:#181818;stroke-width:0.5;"/><path d="M83.5894,77.7188 L83.5894,104.7188 M70.5894,85.7188 L96.5894,85.7188 M83.5894,104.7188 L70.5894,119.7188 M83.5894,104.7188 L96.5894,119.7188 " fill="none" style="stroke:#181818;stroke-width:0.5;"/><text fill="#000000" font-family="sans-serif" font-size="14" lengthAdjust="spacing" textLength="101.1787" x="30" y="583.9316">Bagian Inventori</text><ellipse cx="83.5894" cy="595.5078" fill="#E2E2F0" rx="8" ry="8" style="stroke:#181818;stroke-width:0.5;"/><path d="M83.5894,603.5078 L83.5894,630.5078 M70.5894,611.5078 L96.5894,611.5078 M83.5894,630.5078 L70.5894,645.5078 M83.5894,630.5078 L96.5894,645.5078 " fill="none" style="stroke:#181818;stroke-width:0.5;"/><rect fill="#E2E2F0" height="31.6094" rx="2.5" ry="2.5" style="stroke:#181818;stroke-width:0.5;" width="94.9443" x="272.5605" y="106.2188"/><text fill="#000000" font-family="sans-serif" font-size="14" lengthAdjust="spacing" textLength="80.9443" x="279.5605" y="127.752">ProductPage</text><rect fill="#E2E2F0" height="31.6094" rx="2.5" ry="2.5" style="stroke:#181818;stroke-width:0.5;" width="94.9443" x="272.5605" y="569.3984"/><text fill="#000000" font-family="sans-serif" font-size="14" lengthAdjust="spacing" textLength="80.9443" x="279.5605" y="590.9316">ProductPage</text><rect fill="#E2E2F0" height="31.6094" rx="2.5" ry="2.5" style="stroke:#181818;stroke-width:0.5;" width="122.9375" x="478.4019" y="106.2188"/><text fill="#000000" font-family="sans-serif" font-size="14" lengthAdjust="spacing" textLength="108.9375" x="485.4019" y="127.752">ProductController</text><rect fill="#E2E2F0" height="31.6094" rx="2.5" ry="2.5" style="stroke:#181818;stroke-width:0.5;" width="122.9375" x="478.4019" y="569.3984"/><text fill="#000000" font-family="sans-serif" font-size="14" lengthAdjust="spacing" textLength="108.9375" x="485.4019" y="590.9316">ProductController</text><rect fill="#E2E2F0" height="31.6094" rx="2.5" ry="2.5" style="stroke:#181818;stroke-width:0.5;" width="62.248" x="673.751" y="106.2188"/><text fill="#000000" font-family="sans-serif" font-size="14" lengthAdjust="spacing" textLength="48.248" x="680.751" y="127.752">Product</text><rect fill="#E2E2F0" height="31.6094" rx="2.5" ry="2.5" style="stroke:#181818;stroke-width:0.5;" width="62.248" x="673.751" y="569.3984"/><text fill="#000000" font-family="sans-serif" font-size="14" lengthAdjust="spacing" textLength="48.248" x="680.751" y="590.9316">Product</text><rect fill="#E2E2F0" height="31.6094" rx="2.5" ry="2.5" style="stroke:#181818;stroke-width:0.5;" width="91.8135" x="747.019" y="106.2188"/><text fill="#000000" font-family="sans-serif" font-size="14" lengthAdjust="spacing" textLength="77.8135" x="754.019" y="127.752">Composition</text><rect fill="#E2E2F0" height="31.6094" rx="2.5" ry="2.5" style="stroke:#181818;stroke-width:0.5;" width="91.8135" x="747.019" y="569.3984"/><text fill="#000000" font-family="sans-serif" font-size="14" lengthAdjust="spacing" textLength="77.8135" x="754.019" y="590.9316">Composition</text><rect fill="#E2E2F0" height="31.6094" rx="2.5" ry="2.5" style="stroke:#181818;stroke-width:0.5;" width="63.793" x="848.8325" y="106.2188"/><text fill="#000000" font-family="sans-serif" font-size="14" lengthAdjust="spacing" textLength="49.793" x="855.8325" y="127.752">Material</text><rect fill="#E2E2F0" height="31.6094" rx="2.5" ry="2.5" style="stroke:#181818;stroke-width:0.5;" width="63.793" x="848.8325" y="569.3984"/><text fill="#000000" font-family="sans-serif" font-size="14" lengthAdjust="spacing" textLength="49.793" x="855.8325" y="590.9316">Material</text><polygon fill="#181818" points="308.0327,167.1797,318.0327,171.1797,308.0327,175.1797,312.0327,171.1797" style="stroke:#181818;stroke-width:1.0;"/><line style="stroke:#181818;stroke-width:1.0;" x1="83.5894" x2="314.0327" y1="171.1797" y2="171.1797"/><text fill="#000000" font-family="sans-serif" font-size="13" lengthAdjust="spacing" textLength="171.9897" x="115.8162" y="166.3232">Menambah produk baru(data)</text><polygon fill="#181818" points="527.8706,197.5313,537.8706,201.5313,527.8706,205.5313,531.8706,201.5313" style="stroke:#181818;stroke-width:1.0;"/><line style="stroke:#181818;stroke-width:1.0;" x1="320.0327" x2="533.8706" y1="201.5313" y2="201.5313"/><text fill="#000000" font-family="sans-serif" font-size="13" lengthAdjust="spacing" textLength="62.8608" x="398.5212" y="196.6748">store(data)</text><polygon fill="#181818" points="692.875,227.8828,702.875,231.8828,692.875,235.8828,696.875,231.8828" style="stroke:#181818;stroke-width:1.0;"/><line style="stroke:#181818;stroke-width:1.0;" x1="539.8706" x2="698.875" y1="231.8828" y2="231.8828"/><text fill="#000000" font-family="sans-serif" font-size="13" lengthAdjust="spacing" textLength="70.0908" x="587.3274" y="227.0264">create(data)</text><polygon fill="#181818" points="550.8706,258.2344,540.8706,262.2344,550.8706,266.2344,546.8706,262.2344" style="stroke:#181818;stroke-width:1.0;"/><line style="stroke:#181818;stroke-width:1.0;stroke-dasharray:2.0,2.0;" x1="544.8706" x2="703.875" y1="262.2344" y2="262.2344"/><text fill="#000000" font-family="sans-serif" font-size="13" lengthAdjust="spacing" textLength="60.709" x="592.0183" y="257.3779">product_id</text><path d="M10,277.2344 L70.1709,277.2344 L70.1709,285.5859 L60.1709,295.5859 L10,295.5859 L10,277.2344 " fill="#EEEEEE" style="stroke:#000000;stroke-width:1.5;"/><rect fill="none" height="245.8125" style="stroke:#000000;stroke-width:1.5;" width="922.6255" x="10" y="277.2344"/><text fill="#000000" font-family="sans-serif" font-size="13" font-weight="bold" lengthAdjust="spacing" textLength="15.1709" x="25" y="291.7295">alt</text><text fill="#000000" font-family="sans-serif" font-size="11" font-weight="bold" lengthAdjust="spacing" textLength="110.0161" x="85.1709" y="290.6533">[Memiliki Komposisi]</text><path d="M20,302.5859 L92.4346,302.5859 L92.4346,310.9375 L82.4346,320.9375 L20,320.9375 L20,302.5859 " fill="#EEEEEE" style="stroke:#000000;stroke-width:1.5;"/><rect fill="none" height="183.1094" style="stroke:#000000;stroke-width:1.5;" width="902.6255" x="20" y="302.5859"/><text fill="#000000" font-family="sans-serif" font-size="13" font-weight="bold" lengthAdjust="spacing" textLength="27.4346" x="35" y="317.0811">loop</text><text fill="#000000" font-family="sans-serif" font-size="11" font-weight="bold" lengthAdjust="spacing" textLength="111.23" x="107.4346" y="316.0049">[Untuk Setiap Bahan]</text><polygon fill="#181818" points="308.0327,339.2891,318.0327,343.2891,308.0327,347.2891,312.0327,343.2891" style="stroke:#181818;stroke-width:1.0;"/><line style="stroke:#181818;stroke-width:1.0;" x1="83.5894" x2="314.0327" y1="343.2891" y2="343.2891"/><text fill="#000000" font-family="sans-serif" font-size="13" lengthAdjust="spacing" textLength="212.4434" x="95.5894" y="338.4326">Tambah bahan(material_id, qty, unit)</text><polygon fill="#181818" points="527.8706,369.6406,537.8706,373.6406,527.8706,377.6406,531.8706,373.6406" style="stroke:#181818;stroke-width:1.0;"/><line style="stroke:#181818;stroke-width:1.0;" x1="320.0327" x2="533.8706" y1="373.6406" y2="373.6406"/><text fill="#000000" font-family="sans-serif" font-size="13" lengthAdjust="spacing" textLength="195.8379" x="332.0327" y="368.7842">addComposition(product_id, data)</text><polygon fill="#181818" points="868.729,399.9922,878.729,403.9922,868.729,407.9922,872.729,403.9922" style="stroke:#181818;stroke-width:1.0;"/><line style="stroke:#181818;stroke-width:1.0;" x1="539.8706" x2="874.729" y1="403.9922" y2="403.9922"/><text fill="#000000" font-family="sans-serif" font-size="13" lengthAdjust="spacing" textLength="117.0508" x="651.7744" y="399.1357">validate(material_id)</text><polygon fill="#181818" points="780.9258,430.3438,790.9258,434.3438,780.9258,438.3438,784.9258,434.3438" style="stroke:#181818;stroke-width:1.0;"/><line style="stroke:#181818;stroke-width:1.0;" x1="539.8706" x2="786.9258" y1="434.3438" y2="434.3438"/><text fill="#000000" font-family="sans-serif" font-size="13" lengthAdjust="spacing" textLength="229.0552" x="551.8706" y="429.4873">create(product_id, material_id, qty, unit)</text><line style="stroke:#181818;stroke-width:1.0;" x1="539.8706" x2="581.8706" y1="464.6953" y2="464.6953"/><line style="stroke:#181818;stroke-width:1.0;" x1="581.8706" x2="581.8706" y1="464.6953" y2="477.6953"/><line style="stroke:#181818;stroke-width:1.0;" x1="540.8706" x2="581.8706" y1="477.6953" y2="477.6953"/><polygon fill="#181818" points="550.8706,473.6953,540.8706,477.6953,550.8706,481.6953,546.8706,477.6953" style="stroke:#181818;stroke-width:1.0;"/><text fill="#000000" font-family="sans-serif" font-size="13" lengthAdjust="spacing" textLength="151.0044" x="546.8706" y="459.8389">calculateEstimateCapital()</text><polygon fill="#181818" points="692.875,511.0469,702.875,515.0469,692.875,519.0469,696.875,515.0469" style="stroke:#181818;stroke-width:1.0;"/><line style="stroke:#181818;stroke-width:1.0;" x1="539.8706" x2="698.875" y1="515.0469" y2="515.0469"/><text fill="#000000" font-family="sans-serif" font-size="13" lengthAdjust="spacing" textLength="113.458" x="565.6438" y="510.1904">updateCapital(total)</text><polygon fill="#181818" points="331.0327,548.3984,321.0327,552.3984,331.0327,556.3984,327.0327,552.3984" style="stroke:#181818;stroke-width:1.0;"/><line style="stroke:#181818;stroke-width:1.0;stroke-dasharray:2.0,2.0;" x1="325.0327" x2="538.8706" y1="552.3984" y2="552.3984"/><text fill="#000000" font-family="sans-serif" font-size="13" lengthAdjust="spacing" textLength="88.1372" x="385.8831" y="547.542">showSuccess()</text><!--SRC=[XPB1QiCm38RlVWhHmsYXVO4T1cksmnY6GBlROAYEIKKTsxMLZhtzbAHfirAO3u5Od_J_lv9y81ynOGFP7blhZTKsPwpjiwFQWx6URLAAYPs5pHc15y9QUZwzjhwsBZY4CeMgFS03l8ScXaoPb4B38S5iZJMXXpT_acaXqGmmTszAX9aCHVGCitw0uLAqUw0ixzQBu3a5vsmQgE8kDTJqtrenE6CA_jnx0sYKi8Ikh-gjKc8ILazY1Hv1ecApmpt48UaEKpkla76XfDvHXL1P0jhnkkYljLoRP6NsUAzXDV9nyFj5bQpBiQWqvEX0apM271T2X0_FehknJ1XXZNlqVQqxKwFRmUQk0-RDEP88BE78FqjeFV7YqZYnZbKrsT3ywcm9W-zBJvzBRwNdX8wgBjb4vnQKDLytC9twhxVYuisWCwqJ_ZKpTNq5Hc9qyu6slbAJZawlZTK4uo3FXUgu_hECkyhxyBrfZP5_NaRz0W00]--></g></svg>