<svg xmlns="http://www.w3.org/2000/svg" xmlns:xlink="http://www.w3.org/1999/xlink" contentStyleType="text/css" height="2039px" preserveAspectRatio="none" style="width:1053px;height:2039px;background:#FFFFFF;" version="1.1" viewBox="0 0 1053 2039" width="1053px" zoomAndPan="magnify"><title>Sequence Diagram: Mengelola Satuan</title><defs/><g><text fill="#000000" font-family="sans-serif" font-size="14" font-weight="bold" lengthAdjust="spacing" textLength="253.6201" x="396.1741" y="29.5332">Sequence Diagram: Mengelola Satuan</text><rect fill="#FFFFFF" height="242.8125" style="stroke:#181818;stroke-width:1.0;" width="10" x="185.3716" y="197.9219"/><rect fill="#FFFFFF" height="182.1094" style="stroke:#181818;stroke-width:1.0;" width="10" x="423.2476" y="228.2734"/><rect fill="#FFFFFF" height="346.8672" style="stroke:#181818;stroke-width:1.0;" width="10" x="423.2476" y="636.8438"/><rect fill="#FFFFFF" height="49.7031" style="stroke:#181818;stroke-width:1.0;" width="10" x="423.2476" y="1088.7656"/><rect fill="#FFFFFF" height="195.1094" style="stroke:#181818;stroke-width:1.0;" width="10" x="423.2476" y="1218.5234"/><rect fill="#FFFFFF" height="398.4063" style="stroke:#181818;stroke-width:1.0;" width="10" x="423.2476" y="1549.0391"/><rect fill="#FFFFFF" height="121.4063" style="stroke:#181818;stroke-width:1.0;" width="10" x="645.4067" y="258.625"/><rect fill="#FFFFFF" height="91.0547" style="stroke:#181818;stroke-width:1.0;" width="10" x="645.4067" y="710.5469"/><rect fill="#FFFFFF" height="91.0547" style="stroke:#181818;stroke-width:1.0;" width="10" x="645.4067" y="831.9531"/><rect fill="#FFFFFF" height="91.0547" style="stroke:#181818;stroke-width:1.0;" width="10" x="645.4067" y="1292.2266"/><rect fill="#FFFFFF" height="91.0547" style="stroke:#181818;stroke-width:1.0;" width="10" x="645.4067" y="1579.3906"/><rect fill="#FFFFFF" height="91.0547" style="stroke:#181818;stroke-width:1.0;" width="10" x="645.4067" y="1726.1484"/><rect fill="none" height="255" style="stroke:#000000;stroke-width:1.5;" width="915.7412" x="121.2271" y="1685.4453"/><line style="stroke:#181818;stroke-width:0.5;stroke-dasharray:5.0,5.0;" x1="34" x2="34" y1="121.2188" y2="1957.4453"/><line style="stroke:#181818;stroke-width:0.5;stroke-dasharray:5.0,5.0;" x1="190.2271" x2="190.2271" y1="121.2188" y2="1957.4453"/><line style="stroke:#181818;stroke-width:0.5;stroke-dasharray:5.0,5.0;" x1="428.0581" x2="428.0581" y1="121.2188" y2="1957.4453"/><line style="stroke:#181818;stroke-width:0.5;stroke-dasharray:5.0,5.0;" x1="650.3413" x2="650.3413" y1="121.2188" y2="1957.4453"/><line style="stroke:#181818;stroke-width:0.5;stroke-dasharray:5.0,5.0;" x1="993.0376" x2="993.0376" y1="121.2188" y2="1957.4453"/><text fill="#000000" font-family="sans-serif" font-size="14" lengthAdjust="spacing" textLength="53.6963" x="5" y="118.1426">Inventori</text><ellipse cx="34.8481" cy="52.1094" fill="#E2E2F0" rx="8" ry="8" style="stroke:#181818;stroke-width:0.5;"/><path d="M34.8481,60.1094 L34.8481,87.1094 M21.8481,68.1094 L47.8481,68.1094 M34.8481,87.1094 L21.8481,102.1094 M34.8481,87.1094 L47.8481,102.1094 " fill="none" style="stroke:#181818;stroke-width:0.5;"/><text fill="#000000" font-family="sans-serif" font-size="14" lengthAdjust="spacing" textLength="53.6963" x="5" y="1970.9785">Inventori</text><ellipse cx="34.8481" cy="1982.5547" fill="#E2E2F0" rx="8" ry="8" style="stroke:#181818;stroke-width:0.5;"/><path d="M34.8481,1990.5547 L34.8481,2017.5547 M21.8481,1998.5547 L47.8481,1998.5547 M34.8481,2017.5547 L21.8481,2032.5547 M34.8481,2017.5547 L47.8481,2032.5547 " fill="none" style="stroke:#181818;stroke-width:0.5;"/><rect fill="#E2E2F0" height="31.6094" rx="2.5" ry="2.5" style="stroke:#181818;stroke-width:0.5;" width="118.2891" x="131.2271" y="88.6094"/><text fill="#000000" font-family="sans-serif" font-size="14" lengthAdjust="spacing" textLength="104.2891" x="138.2271" y="110.1426">Halaman Satuan</text><rect fill="#E2E2F0" height="31.6094" rx="2.5" ry="2.5" style="stroke:#181818;stroke-width:0.5;" width="118.2891" x="131.2271" y="1956.4453"/><text fill="#000000" font-family="sans-serif" font-size="14" lengthAdjust="spacing" textLength="104.2891" x="138.2271" y="1977.9785">Halaman Satuan</text><rect fill="#E2E2F0" height="49.2188" rx="2.5" ry="2.5" style="stroke:#181818;stroke-width:0.5;" width="86.3789" x="385.0581" y="71"/><text fill="#000000" font-family="sans-serif" font-size="14" lengthAdjust="spacing" textLength="59.1445" x="398.6753" y="92.5332">UnitIndex</text><text fill="#000000" font-family="sans-serif" font-size="14" lengthAdjust="spacing" textLength="72.3789" x="392.0581" y="110.1426">Component</text><rect fill="#E2E2F0" height="49.2188" rx="2.5" ry="2.5" style="stroke:#181818;stroke-width:0.5;" width="86.3789" x="385.0581" y="1956.4453"/><text fill="#000000" font-family="sans-serif" font-size="14" lengthAdjust="spacing" textLength="59.1445" x="398.6753" y="1977.9785">UnitIndex</text><text fill="#000000" font-family="sans-serif" font-size="14" lengthAdjust="spacing" textLength="72.3789" x="392.0581" y="1995.5879">Component</text><rect fill="#E2E2F0" height="49.2188" rx="2.5" ry="2.5" style="stroke:#181818;stroke-width:0.5;" width="52.1309" x="624.3413" y="71"/><text fill="#000000" font-family="sans-serif" font-size="14" lengthAdjust="spacing" textLength="24.8965" x="637.9585" y="92.5332">Unit</text><text fill="#000000" font-family="sans-serif" font-size="14" lengthAdjust="spacing" textLength="38.1309" x="631.3413" y="110.1426">Model</text><rect fill="#E2E2F0" height="49.2188" rx="2.5" ry="2.5" style="stroke:#181818;stroke-width:0.5;" width="52.1309" x="624.3413" y="1956.4453"/><text fill="#000000" font-family="sans-serif" font-size="14" lengthAdjust="spacing" textLength="24.8965" x="637.9585" y="1977.9785">Unit</text><text fill="#000000" font-family="sans-serif" font-size="14" lengthAdjust="spacing" textLength="38.1309" x="631.3413" y="1995.5879">Model</text><text fill="#000000" font-family="sans-serif" font-size="14" lengthAdjust="spacing" textLength="59.9307" x="961.0376" y="118.1426">Database</text><path d="M976.0029,67.6094 C976.0029,57.6094 994.0029,57.6094 994.0029,57.6094 C994.0029,57.6094 1012.0029,57.6094 1012.0029,67.6094 L1012.0029,93.6094 C1012.0029,103.6094 994.0029,103.6094 994.0029,103.6094 C994.0029,103.6094 976.0029,103.6094 976.0029,93.6094 L976.0029,67.6094 " fill="#E2E2F0" style="stroke:#181818;stroke-width:1.5;"/><path d="M976.0029,67.6094 C976.0029,77.6094 994.0029,77.6094 994.0029,77.6094 C994.0029,77.6094 1012.0029,77.6094 1012.0029,67.6094 " fill="none" style="stroke:#181818;stroke-width:1.5;"/><text fill="#000000" font-family="sans-serif" font-size="14" lengthAdjust="spacing" textLength="59.9307" x="961.0376" y="1970.9785">Database</text><path d="M976.0029,1984.0547 C976.0029,1974.0547 994.0029,1974.0547 994.0029,1974.0547 C994.0029,1974.0547 1012.0029,1974.0547 1012.0029,1984.0547 L1012.0029,2010.0547 C1012.0029,2020.0547 994.0029,2020.0547 994.0029,2020.0547 C994.0029,2020.0547 976.0029,2020.0547 976.0029,2010.0547 L976.0029,1984.0547 " fill="#E2E2F0" style="stroke:#181818;stroke-width:1.5;"/><path d="M976.0029,1984.0547 C976.0029,1994.0547 994.0029,1994.0547 994.0029,1994.0547 C994.0029,1994.0547 1012.0029,1994.0547 1012.0029,1984.0547 " fill="none" style="stroke:#181818;stroke-width:1.5;"/><rect fill="#FFFFFF" height="242.8125" style="stroke:#181818;stroke-width:1.0;" width="10" x="185.3716" y="197.9219"/><rect fill="#FFFFFF" height="182.1094" style="stroke:#181818;stroke-width:1.0;" width="10" x="423.2476" y="228.2734"/><rect fill="#FFFFFF" height="346.8672" style="stroke:#181818;stroke-width:1.0;" width="10" x="423.2476" y="636.8438"/><rect fill="#FFFFFF" height="49.7031" style="stroke:#181818;stroke-width:1.0;" width="10" x="423.2476" y="1088.7656"/><rect fill="#FFFFFF" height="195.1094" style="stroke:#181818;stroke-width:1.0;" width="10" x="423.2476" y="1218.5234"/><rect fill="#FFFFFF" height="398.4063" style="stroke:#181818;stroke-width:1.0;" width="10" x="423.2476" y="1549.0391"/><rect fill="#FFFFFF" height="121.4063" style="stroke:#181818;stroke-width:1.0;" width="10" x="645.4067" y="258.625"/><rect fill="#FFFFFF" height="91.0547" style="stroke:#181818;stroke-width:1.0;" width="10" x="645.4067" y="710.5469"/><rect fill="#FFFFFF" height="91.0547" style="stroke:#181818;stroke-width:1.0;" width="10" x="645.4067" y="831.9531"/><rect fill="#FFFFFF" height="91.0547" style="stroke:#181818;stroke-width:1.0;" width="10" x="645.4067" y="1292.2266"/><rect fill="#FFFFFF" height="91.0547" style="stroke:#181818;stroke-width:1.0;" width="10" x="645.4067" y="1579.3906"/><rect fill="#FFFFFF" height="91.0547" style="stroke:#181818;stroke-width:1.0;" width="10" x="645.4067" y="1726.1484"/><rect fill="#EEEEEE" height="3" style="stroke:#EEEEEE;stroke-width:1.0;" width="1046.9683" x="0" y="152.3945"/><line style="stroke:#000000;stroke-width:1.0;" x1="0" x2="1046.9683" y1="152.3945" y2="152.3945"/><line style="stroke:#000000;stroke-width:1.0;" x1="0" x2="1046.9683" y1="155.3945" y2="155.3945"/><rect fill="#EEEEEE" height="24.3516" style="stroke:#000000;stroke-width:2.0;" width="150.5254" x="448.2214" y="141.2188"/><text fill="#000000" font-family="sans-serif" font-size="13" font-weight="bold" lengthAdjust="spacing" textLength="132.9136" x="454.2214" y="158.7139">Melihat Daftar Satuan</text><polygon fill="#181818" points="173.3716,193.9219,183.3716,197.9219,173.3716,201.9219,177.3716,197.9219" style="stroke:#181818;stroke-width:1.0;"/><line style="stroke:#181818;stroke-width:1.0;" x1="34.8481" x2="179.3716" y1="197.9219" y2="197.9219"/><text fill="#000000" font-family="sans-serif" font-size="13" lengthAdjust="spacing" textLength="131.5234" x="41.8481" y="193.0654">Akses halaman satuan</text><polygon fill="#181818" points="411.2476,224.2734,421.2476,228.2734,411.2476,232.2734,415.2476,228.2734" style="stroke:#181818;stroke-width:1.0;"/><line style="stroke:#181818;stroke-width:1.0;" x1="195.3716" x2="417.2476" y1="228.2734" y2="228.2734"/><text fill="#000000" font-family="sans-serif" font-size="13" lengthAdjust="spacing" textLength="44.7891" x="202.3716" y="223.417">mount()</text><polygon fill="#181818" points="633.4067,254.625,643.4067,258.625,633.4067,262.625,637.4067,258.625" style="stroke:#181818;stroke-width:1.0;"/><line style="stroke:#181818;stroke-width:1.0;" x1="433.2476" x2="639.4067" y1="258.625" y2="258.625"/><text fill="#000000" font-family="sans-serif" font-size="13" lengthAdjust="spacing" textLength="193.1592" x="440.2476" y="253.7686">Unit::withCount('materials')-&gt;get()</text><polygon fill="#181818" points="982.0029,284.9766,992.0029,288.9766,982.0029,292.9766,986.0029,288.9766" style="stroke:#181818;stroke-width:1.0;"/><line style="stroke:#181818;stroke-width:1.0;" x1="655.4067" x2="988.0029" y1="288.9766" y2="288.9766"/><text fill="#000000" font-family="sans-serif" font-size="13" lengthAdjust="spacing" textLength="132.1963" x="662.4067" y="284.1201">SELECT * FROM units</text><polygon fill="#181818" points="982.0029,315.3281,992.0029,319.3281,982.0029,323.3281,986.0029,319.3281" style="stroke:#181818;stroke-width:1.0;"/><line style="stroke:#181818;stroke-width:1.0;" x1="655.4067" x2="988.0029" y1="319.3281" y2="319.3281"/><text fill="#000000" font-family="sans-serif" font-size="13" lengthAdjust="spacing" textLength="156.749" x="662.4067" y="314.4717">SELECT COUNT materials</text><polygon fill="#181818" points="666.4067,345.6797,656.4067,349.6797,666.4067,353.6797,662.4067,349.6797" style="stroke:#181818;stroke-width:1.0;"/><line style="stroke:#181818;stroke-width:1.0;stroke-dasharray:2.0,2.0;" x1="660.4067" x2="993.0029" y1="349.6797" y2="349.6797"/><text fill="#000000" font-family="sans-serif" font-size="13" lengthAdjust="spacing" textLength="70.1035" x="672.4067" y="344.8232">Data satuan</text><polygon fill="#181818" points="444.2476,376.0313,434.2476,380.0313,444.2476,384.0313,440.2476,380.0313" style="stroke:#181818;stroke-width:1.0;"/><line style="stroke:#181818;stroke-width:1.0;stroke-dasharray:2.0,2.0;" x1="438.2476" x2="649.4067" y1="380.0313" y2="380.0313"/><text fill="#000000" font-family="sans-serif" font-size="13" lengthAdjust="spacing" textLength="99.728" x="450.2476" y="375.1748">Collection satuan</text><polygon fill="#181818" points="206.3716,406.3828,196.3716,410.3828,206.3716,414.3828,202.3716,410.3828" style="stroke:#181818;stroke-width:1.0;"/><line style="stroke:#181818;stroke-width:1.0;stroke-dasharray:2.0,2.0;" x1="200.3716" x2="427.2476" y1="410.3828" y2="410.3828"/><text fill="#000000" font-family="sans-serif" font-size="13" lengthAdjust="spacing" textLength="79.4917" x="212.3716" y="405.5264">Render daftar</text><polygon fill="#181818" points="45.8481,436.7344,35.8481,440.7344,45.8481,444.7344,41.8481,440.7344" style="stroke:#181818;stroke-width:1.0;"/><line style="stroke:#181818;stroke-width:1.0;stroke-dasharray:2.0,2.0;" x1="39.8481" x2="189.3716" y1="440.7344" y2="440.7344"/><text fill="#000000" font-family="sans-serif" font-size="13" lengthAdjust="spacing" textLength="113.4453" x="51.8481" y="435.8779">Tampilkan halaman</text><rect fill="#EEEEEE" height="3" style="stroke:#EEEEEE;stroke-width:1.0;" width="1046.9683" x="0" y="469.9102"/><line style="stroke:#000000;stroke-width:1.0;" x1="0" x2="1046.9683" y1="469.9102" y2="469.9102"/><line style="stroke:#000000;stroke-width:1.0;" x1="0" x2="1046.9683" y1="472.9102" y2="472.9102"/><rect fill="#EEEEEE" height="24.3516" style="stroke:#000000;stroke-width:2.0;" width="132.4663" x="457.251" y="458.7344"/><text fill="#000000" font-family="sans-serif" font-size="13" font-weight="bold" lengthAdjust="spacing" textLength="114.8545" x="463.251" y="476.2295">Menambah Satuan</text><polygon fill="#181818" points="178.3716,511.4375,188.3716,515.4375,178.3716,519.4375,182.3716,515.4375" style="stroke:#181818;stroke-width:1.0;"/><line style="stroke:#181818;stroke-width:1.0;" x1="34.8481" x2="184.3716" y1="515.4375" y2="515.4375"/><text fill="#000000" font-family="sans-serif" font-size="13" lengthAdjust="spacing" textLength="114.8799" x="41.8481" y="510.5811">Klik tombol Tambah</text><polygon fill="#181818" points="45.8481,541.7891,35.8481,545.7891,45.8481,549.7891,41.8481,545.7891" style="stroke:#181818;stroke-width:1.0;"/><line style="stroke:#181818;stroke-width:1.0;stroke-dasharray:2.0,2.0;" x1="39.8481" x2="189.3716" y1="545.7891" y2="545.7891"/><text fill="#000000" font-family="sans-serif" font-size="13" lengthAdjust="spacing" textLength="128.5972" x="51.8481" y="540.9326">Tampilkan modal form</text><polygon fill="#181818" points="416.2476,572.1406,426.2476,576.1406,416.2476,580.1406,420.2476,576.1406" style="stroke:#181818;stroke-width:1.0;"/><line style="stroke:#181818;stroke-width:1.0;" x1="34.8481" x2="422.2476" y1="576.1406" y2="576.1406"/><text fill="#000000" font-family="sans-serif" font-size="13" lengthAdjust="spacing" textLength="126.9658" x="41.8481" y="571.2842">set('name', 'Kilogram')</text><polygon fill="#181818" points="416.2476,602.4922,426.2476,606.4922,416.2476,610.4922,420.2476,606.4922" style="stroke:#181818;stroke-width:1.0;"/><line style="stroke:#181818;stroke-width:1.0;" x1="34.8481" x2="422.2476" y1="606.4922" y2="606.4922"/><text fill="#000000" font-family="sans-serif" font-size="13" lengthAdjust="spacing" textLength="83.6177" x="41.8481" y="601.6357">set('alias', 'kg')</text><polygon fill="#181818" points="411.2476,632.8438,421.2476,636.8438,411.2476,640.8438,415.2476,636.8438" style="stroke:#181818;stroke-width:1.0;"/><line style="stroke:#181818;stroke-width:1.0;" x1="34.8481" x2="417.2476" y1="636.8438" y2="636.8438"/><text fill="#000000" font-family="sans-serif" font-size="13" lengthAdjust="spacing" textLength="36.1182" x="41.8481" y="631.9873">save()</text><line style="stroke:#181818;stroke-width:1.0;" x1="433.2476" x2="475.2476" y1="667.1953" y2="667.1953"/><line style="stroke:#181818;stroke-width:1.0;" x1="475.2476" x2="475.2476" y1="667.1953" y2="680.1953"/><line style="stroke:#181818;stroke-width:1.0;" x1="434.2476" x2="475.2476" y1="680.1953" y2="680.1953"/><polygon fill="#181818" points="444.2476,676.1953,434.2476,680.1953,444.2476,684.1953,440.2476,680.1953" style="stroke:#181818;stroke-width:1.0;"/><text fill="#000000" font-family="sans-serif" font-size="13" lengthAdjust="spacing" textLength="53.4663" x="440.2476" y="662.3389">validate()</text><polygon fill="#181818" points="633.4067,706.5469,643.4067,710.5469,633.4067,714.5469,637.4067,710.5469" style="stroke:#181818;stroke-width:1.0;"/><line style="stroke:#181818;stroke-width:1.0;" x1="433.2476" x2="639.4067" y1="710.5469" y2="710.5469"/><text fill="#000000" font-family="sans-serif" font-size="13" lengthAdjust="spacing" textLength="180.1528" x="440.2476" y="705.6904">Unit::where('name', ?)-&gt;exists()</text><polygon fill="#181818" points="982.0029,736.8984,992.0029,740.8984,982.0029,744.8984,986.0029,740.8984" style="stroke:#181818;stroke-width:1.0;"/><line style="stroke:#181818;stroke-width:1.0;" x1="655.4067" x2="988.0029" y1="740.8984" y2="740.8984"/><text fill="#000000" font-family="sans-serif" font-size="13" lengthAdjust="spacing" textLength="242.3726" x="662.4067" y="736.042">SELECT * FROM units WHERE name = ?</text><polygon fill="#181818" points="666.4067,767.25,656.4067,771.25,666.4067,775.25,662.4067,771.25" style="stroke:#181818;stroke-width:1.0;"/><line style="stroke:#181818;stroke-width:1.0;stroke-dasharray:2.0,2.0;" x1="660.4067" x2="993.0029" y1="771.25" y2="771.25"/><text fill="#000000" font-family="sans-serif" font-size="13" lengthAdjust="spacing" textLength="27.46" x="672.4067" y="766.3936">false</text><polygon fill="#181818" points="444.2476,797.6016,434.2476,801.6016,444.2476,805.6016,440.2476,801.6016" style="stroke:#181818;stroke-width:1.0;"/><line style="stroke:#181818;stroke-width:1.0;stroke-dasharray:2.0,2.0;" x1="438.2476" x2="649.4067" y1="801.6016" y2="801.6016"/><text fill="#000000" font-family="sans-serif" font-size="13" lengthAdjust="spacing" textLength="105.5107" x="450.2476" y="796.7451">Tidak ada duplikat</text><polygon fill="#181818" points="633.4067,827.9531,643.4067,831.9531,633.4067,835.9531,637.4067,831.9531" style="stroke:#181818;stroke-width:1.0;"/><line style="stroke:#181818;stroke-width:1.0;" x1="433.2476" x2="639.4067" y1="831.9531" y2="831.9531"/><text fill="#000000" font-family="sans-serif" font-size="13" lengthAdjust="spacing" textLength="93.1899" x="440.2476" y="827.0967">Unit::create([...])</text><polygon fill="#181818" points="982.0029,858.3047,992.0029,862.3047,982.0029,866.3047,986.0029,862.3047" style="stroke:#181818;stroke-width:1.0;"/><line style="stroke:#181818;stroke-width:1.0;" x1="655.4067" x2="988.0029" y1="862.3047" y2="862.3047"/><text fill="#000000" font-family="sans-serif" font-size="13" lengthAdjust="spacing" textLength="113.4072" x="662.4067" y="857.4482">INSERT INTO units</text><polygon fill="#181818" points="666.4067,888.6563,656.4067,892.6563,666.4067,896.6563,662.4067,892.6563" style="stroke:#181818;stroke-width:1.0;"/><line style="stroke:#181818;stroke-width:1.0;stroke-dasharray:2.0,2.0;" x1="660.4067" x2="993.0029" y1="892.6563" y2="892.6563"/><text fill="#000000" font-family="sans-serif" font-size="13" lengthAdjust="spacing" textLength="49.1309" x="672.4067" y="887.7998">Success</text><polygon fill="#181818" points="444.2476,919.0078,434.2476,923.0078,444.2476,927.0078,440.2476,923.0078" style="stroke:#181818;stroke-width:1.0;"/><line style="stroke:#181818;stroke-width:1.0;stroke-dasharray:2.0,2.0;" x1="438.2476" x2="649.4067" y1="923.0078" y2="923.0078"/><text fill="#000000" font-family="sans-serif" font-size="13" lengthAdjust="spacing" textLength="70.8335" x="450.2476" y="918.1514">Satuan baru</text><polygon fill="#181818" points="201.3716,949.3594,191.3716,953.3594,201.3716,957.3594,197.3716,953.3594" style="stroke:#181818;stroke-width:1.0;"/><line style="stroke:#181818;stroke-width:1.0;stroke-dasharray:2.0,2.0;" x1="195.3716" x2="422.2476" y1="953.3594" y2="953.3594"/><text fill="#000000" font-family="sans-serif" font-size="13" lengthAdjust="spacing" textLength="72.2617" x="207.3716" y="948.5029">Tutup modal</text><polygon fill="#181818" points="201.3716,979.7109,191.3716,983.7109,201.3716,987.7109,197.3716,983.7109" style="stroke:#181818;stroke-width:1.0;"/><line style="stroke:#181818;stroke-width:1.0;stroke-dasharray:2.0,2.0;" x1="195.3716" x2="427.2476" y1="983.7109" y2="983.7109"/><text fill="#000000" font-family="sans-serif" font-size="13" lengthAdjust="spacing" textLength="132.2217" x="207.3716" y="978.8545">Flash message sukses</text><rect fill="#EEEEEE" height="3" style="stroke:#EEEEEE;stroke-width:1.0;" width="1046.9683" x="0" y="1012.8867"/><line style="stroke:#000000;stroke-width:1.0;" x1="0" x2="1046.9683" y1="1012.8867" y2="1012.8867"/><line style="stroke:#000000;stroke-width:1.0;" x1="0" x2="1046.9683" y1="1015.8867" y2="1015.8867"/><rect fill="#EEEEEE" height="24.3516" style="stroke:#000000;stroke-width:2.0;" width="121.6182" x="462.675" y="1001.7109"/><text fill="#000000" font-family="sans-serif" font-size="13" font-weight="bold" lengthAdjust="spacing" textLength="104.0063" x="468.675" y="1019.2061">Mengedit Satuan</text><polygon fill="#181818" points="178.3716,1054.4141,188.3716,1058.4141,178.3716,1062.4141,182.3716,1058.4141" style="stroke:#181818;stroke-width:1.0;"/><line style="stroke:#181818;stroke-width:1.0;" x1="34.8481" x2="184.3716" y1="1058.4141" y2="1058.4141"/><text fill="#000000" font-family="sans-serif" font-size="13" lengthAdjust="spacing" textLength="89.5908" x="41.8481" y="1053.5576">Klik tombol Edit</text><polygon fill="#181818" points="411.2476,1084.7656,421.2476,1088.7656,411.2476,1092.7656,415.2476,1088.7656" style="stroke:#181818;stroke-width:1.0;"/><line style="stroke:#181818;stroke-width:1.0;" x1="190.3716" x2="417.2476" y1="1088.7656" y2="1088.7656"/><text fill="#000000" font-family="sans-serif" font-size="13" lengthAdjust="spacing" textLength="50.5781" x="197.3716" y="1083.9092">edit(unit)</text><polygon fill="#181818" points="201.3716,1134.4688,191.3716,1138.4688,201.3716,1142.4688,197.3716,1138.4688" style="stroke:#181818;stroke-width:1.0;"/><line style="stroke:#181818;stroke-width:1.0;stroke-dasharray:2.0,2.0;" x1="195.3716" x2="427.2476" y1="1138.4688" y2="1138.4688"/><text fill="#000000" font-family="sans-serif" font-size="13" lengthAdjust="spacing" textLength="114.1499" x="207.3716" y="1133.6123">Tampilkan form edit</text><path d="M438,1101.7656 L438,1160.7656 L570,1160.7656 L570,1111.7656 L560,1101.7656 L438,1101.7656 " fill="#FEFFDD" style="stroke:#181818;stroke-width:0.5;"/><path d="M560,1101.7656 L560,1111.7656 L570,1111.7656 L560,1101.7656 " fill="#FEFFDD" style="stroke:#181818;stroke-width:0.5;"/><text fill="#000000" font-family="sans-serif" font-size="13" lengthAdjust="spacing" textLength="111.9917" x="444" y="1120.2607">Form terisi dengan:</text><text fill="#000000" font-family="sans-serif" font-size="13" lengthAdjust="spacing" textLength="101.1372" x="444" y="1136.6123">- Nama: Kilogram</text><text fill="#000000" font-family="sans-serif" font-size="13" lengthAdjust="spacing" textLength="57.0718" x="444" y="1152.9639">- Alias: kg</text><polygon fill="#181818" points="416.2476,1184.1719,426.2476,1188.1719,416.2476,1192.1719,420.2476,1188.1719" style="stroke:#181818;stroke-width:1.0;"/><line style="stroke:#181818;stroke-width:1.0;" x1="34.8481" x2="422.2476" y1="1188.1719" y2="1188.1719"/><text fill="#000000" font-family="sans-serif" font-size="13" lengthAdjust="spacing" textLength="85.7886" x="41.8481" y="1183.3154">set('alias', 'Kg')</text><polygon fill="#181818" points="411.2476,1214.5234,421.2476,1218.5234,411.2476,1222.5234,415.2476,1218.5234" style="stroke:#181818;stroke-width:1.0;"/><line style="stroke:#181818;stroke-width:1.0;" x1="34.8481" x2="417.2476" y1="1218.5234" y2="1218.5234"/><text fill="#000000" font-family="sans-serif" font-size="13" lengthAdjust="spacing" textLength="48.4199" x="41.8481" y="1213.667">update()</text><line style="stroke:#181818;stroke-width:1.0;" x1="433.2476" x2="475.2476" y1="1248.875" y2="1248.875"/><line style="stroke:#181818;stroke-width:1.0;" x1="475.2476" x2="475.2476" y1="1248.875" y2="1261.875"/><line style="stroke:#181818;stroke-width:1.0;" x1="434.2476" x2="475.2476" y1="1261.875" y2="1261.875"/><polygon fill="#181818" points="444.2476,1257.875,434.2476,1261.875,444.2476,1265.875,440.2476,1261.875" style="stroke:#181818;stroke-width:1.0;"/><text fill="#000000" font-family="sans-serif" font-size="13" lengthAdjust="spacing" textLength="53.4663" x="440.2476" y="1244.0186">validate()</text><polygon fill="#181818" points="633.4067,1288.2266,643.4067,1292.2266,633.4067,1296.2266,637.4067,1292.2266" style="stroke:#181818;stroke-width:1.0;"/><line style="stroke:#181818;stroke-width:1.0;" x1="433.2476" x2="639.4067" y1="1292.2266" y2="1292.2266"/><text fill="#000000" font-family="sans-serif" font-size="13" lengthAdjust="spacing" textLength="99.3599" x="440.2476" y="1287.3701">unit-&gt;update([...])</text><polygon fill="#181818" points="982.0029,1318.5781,992.0029,1322.5781,982.0029,1326.5781,986.0029,1322.5781" style="stroke:#181818;stroke-width:1.0;"/><line style="stroke:#181818;stroke-width:1.0;" x1="655.4067" x2="988.0029" y1="1322.5781" y2="1322.5781"/><text fill="#000000" font-family="sans-serif" font-size="13" lengthAdjust="spacing" textLength="178.7246" x="662.4067" y="1317.7217">UPDATE units SET alias = 'Kg'</text><polygon fill="#181818" points="666.4067,1348.9297,656.4067,1352.9297,666.4067,1356.9297,662.4067,1352.9297" style="stroke:#181818;stroke-width:1.0;"/><line style="stroke:#181818;stroke-width:1.0;stroke-dasharray:2.0,2.0;" x1="660.4067" x2="993.0029" y1="1352.9297" y2="1352.9297"/><text fill="#000000" font-family="sans-serif" font-size="13" lengthAdjust="spacing" textLength="49.1309" x="672.4067" y="1348.0732">Success</text><polygon fill="#181818" points="444.2476,1379.2813,434.2476,1383.2813,444.2476,1387.2813,440.2476,1383.2813" style="stroke:#181818;stroke-width:1.0;"/><line style="stroke:#181818;stroke-width:1.0;stroke-dasharray:2.0,2.0;" x1="438.2476" x2="649.4067" y1="1383.2813" y2="1383.2813"/><text fill="#000000" font-family="sans-serif" font-size="13" lengthAdjust="spacing" textLength="49.1499" x="450.2476" y="1378.4248">Updated</text><polygon fill="#181818" points="201.3716,1409.6328,191.3716,1413.6328,201.3716,1417.6328,197.3716,1413.6328" style="stroke:#181818;stroke-width:1.0;"/><line style="stroke:#181818;stroke-width:1.0;stroke-dasharray:2.0,2.0;" x1="195.3716" x2="427.2476" y1="1413.6328" y2="1413.6328"/><text fill="#000000" font-family="sans-serif" font-size="13" lengthAdjust="spacing" textLength="132.2217" x="207.3716" y="1408.7764">Flash message sukses</text><rect fill="#EEEEEE" height="3" style="stroke:#EEEEEE;stroke-width:1.0;" width="1046.9683" x="0" y="1442.8086"/><line style="stroke:#000000;stroke-width:1.0;" x1="0" x2="1046.9683" y1="1442.8086" y2="1442.8086"/><line style="stroke:#000000;stroke-width:1.0;" x1="0" x2="1046.9683" y1="1445.8086" y2="1445.8086"/><rect fill="#EEEEEE" height="24.3516" style="stroke:#000000;stroke-width:2.0;" width="136.7891" x="455.0896" y="1431.6328"/><text fill="#000000" font-family="sans-serif" font-size="13" font-weight="bold" lengthAdjust="spacing" textLength="119.1772" x="461.0896" y="1449.1279">Menghapus Satuan</text><polygon fill="#181818" points="178.3716,1484.3359,188.3716,1488.3359,178.3716,1492.3359,182.3716,1488.3359" style="stroke:#181818;stroke-width:1.0;"/><line style="stroke:#181818;stroke-width:1.0;" x1="34.8481" x2="184.3716" y1="1488.3359" y2="1488.3359"/><text fill="#000000" font-family="sans-serif" font-size="13" lengthAdjust="spacing" textLength="104.7681" x="41.8481" y="1483.4795">Klik tombol Hapus</text><polygon fill="#181818" points="45.8481,1514.6875,35.8481,1518.6875,45.8481,1522.6875,41.8481,1518.6875" style="stroke:#181818;stroke-width:1.0;"/><line style="stroke:#181818;stroke-width:1.0;stroke-dasharray:2.0,2.0;" x1="39.8481" x2="189.3716" y1="1518.6875" y2="1518.6875"/><text fill="#000000" font-family="sans-serif" font-size="13" lengthAdjust="spacing" textLength="100.439" x="51.8481" y="1513.8311">Konfirmasi hapus</text><polygon fill="#181818" points="411.2476,1545.0391,421.2476,1549.0391,411.2476,1553.0391,415.2476,1549.0391" style="stroke:#181818;stroke-width:1.0;"/><line style="stroke:#181818;stroke-width:1.0;" x1="34.8481" x2="417.2476" y1="1549.0391" y2="1549.0391"/><text fill="#000000" font-family="sans-serif" font-size="13" lengthAdjust="spacing" textLength="65.0381" x="41.8481" y="1544.1826">delete(unit)</text><polygon fill="#181818" points="633.4067,1575.3906,643.4067,1579.3906,633.4067,1583.3906,637.4067,1579.3906" style="stroke:#181818;stroke-width:1.0;"/><line style="stroke:#181818;stroke-width:1.0;" x1="433.2476" x2="639.4067" y1="1579.3906" y2="1579.3906"/><text fill="#000000" font-family="sans-serif" font-size="13" lengthAdjust="spacing" textLength="146.6563" x="440.2476" y="1574.5342">unit-&gt;materials()-&gt;count()</text><polygon fill="#181818" points="982.0029,1605.7422,992.0029,1609.7422,982.0029,1613.7422,986.0029,1609.7422" style="stroke:#181818;stroke-width:1.0;"/><line style="stroke:#181818;stroke-width:1.0;" x1="655.4067" x2="988.0029" y1="1609.7422" y2="1609.7422"/><text fill="#000000" font-family="sans-serif" font-size="13" lengthAdjust="spacing" textLength="314.5962" x="662.4067" y="1604.8857">SELECT COUNT FROM materials WHERE unit_id = ?</text><polygon fill="#181818" points="666.4067,1636.0938,656.4067,1640.0938,666.4067,1644.0938,662.4067,1640.0938" style="stroke:#181818;stroke-width:1.0;"/><line style="stroke:#181818;stroke-width:1.0;stroke-dasharray:2.0,2.0;" x1="660.4067" x2="993.0029" y1="1640.0938" y2="1640.0938"/><text fill="#000000" font-family="sans-serif" font-size="13" lengthAdjust="spacing" textLength="31.8018" x="672.4067" y="1635.2373">count</text><polygon fill="#181818" points="444.2476,1666.4453,434.2476,1670.4453,444.2476,1674.4453,440.2476,1670.4453" style="stroke:#181818;stroke-width:1.0;"/><line style="stroke:#181818;stroke-width:1.0;stroke-dasharray:2.0,2.0;" x1="438.2476" x2="649.4067" y1="1670.4453" y2="1670.4453"/><text fill="#000000" font-family="sans-serif" font-size="13" lengthAdjust="spacing" textLength="78.0571" x="450.2476" y="1665.5889">jumlah bahan</text><path d="M121.2271,1685.4453 L181.3979,1685.4453 L181.3979,1693.7969 L171.3979,1703.7969 L121.2271,1703.7969 L121.2271,1685.4453 " fill="#EEEEEE" style="stroke:#000000;stroke-width:1.5;"/><rect fill="none" height="255" style="stroke:#000000;stroke-width:1.5;" width="915.7412" x="121.2271" y="1685.4453"/><text fill="#000000" font-family="sans-serif" font-size="13" font-weight="bold" lengthAdjust="spacing" textLength="15.1709" x="136.2271" y="1699.9404">alt</text><text fill="#000000" font-family="sans-serif" font-size="11" font-weight="bold" lengthAdjust="spacing" textLength="225.5376" x="196.3979" y="1698.8643">[Tidak ada bahan menggunakan satuan ini]</text><polygon fill="#181818" points="633.4067,1722.1484,643.4067,1726.1484,633.4067,1730.1484,637.4067,1726.1484" style="stroke:#181818;stroke-width:1.0;"/><line style="stroke:#181818;stroke-width:1.0;" x1="433.2476" x2="639.4067" y1="1726.1484" y2="1726.1484"/><text fill="#000000" font-family="sans-serif" font-size="13" lengthAdjust="spacing" textLength="76.959" x="440.2476" y="1721.292">unit-&gt;delete()</text><polygon fill="#181818" points="982.0029,1752.5,992.0029,1756.5,982.0029,1760.5,986.0029,1756.5" style="stroke:#181818;stroke-width:1.0;"/><line style="stroke:#181818;stroke-width:1.0;" x1="655.4067" x2="988.0029" y1="1756.5" y2="1756.5"/><text fill="#000000" font-family="sans-serif" font-size="13" lengthAdjust="spacing" textLength="123.5254" x="662.4067" y="1751.6436">DELETE FROM units</text><polygon fill="#181818" points="666.4067,1782.8516,656.4067,1786.8516,666.4067,1790.8516,662.4067,1786.8516" style="stroke:#181818;stroke-width:1.0;"/><line style="stroke:#181818;stroke-width:1.0;stroke-dasharray:2.0,2.0;" x1="660.4067" x2="993.0029" y1="1786.8516" y2="1786.8516"/><text fill="#000000" font-family="sans-serif" font-size="13" lengthAdjust="spacing" textLength="49.1309" x="672.4067" y="1781.9951">Success</text><polygon fill="#181818" points="444.2476,1813.2031,434.2476,1817.2031,444.2476,1821.2031,440.2476,1817.2031" style="stroke:#181818;stroke-width:1.0;"/><line style="stroke:#181818;stroke-width:1.0;stroke-dasharray:2.0,2.0;" x1="438.2476" x2="649.4067" y1="1817.2031" y2="1817.2031"/><text fill="#000000" font-family="sans-serif" font-size="13" lengthAdjust="spacing" textLength="44.8081" x="450.2476" y="1812.3467">Deleted</text><polygon fill="#181818" points="201.3716,1843.5547,191.3716,1847.5547,201.3716,1851.5547,197.3716,1847.5547" style="stroke:#181818;stroke-width:1.0;"/><line style="stroke:#181818;stroke-width:1.0;stroke-dasharray:2.0,2.0;" x1="195.3716" x2="422.2476" y1="1847.5547" y2="1847.5547"/><text fill="#000000" font-family="sans-serif" font-size="13" lengthAdjust="spacing" textLength="132.2217" x="207.3716" y="1842.6982">Flash message sukses</text><line style="stroke:#000000;stroke-width:1.0;stroke-dasharray:2.0,2.0;" x1="121.2271" x2="1036.9683" y1="1856.5547" y2="1856.5547"/><text fill="#000000" font-family="sans-serif" font-size="11" font-weight="bold" lengthAdjust="spacing" textLength="179.6899" x="126.2271" y="1867.9736">[Ada bahan menggunakan satuan]</text><polygon fill="#181818" points="201.3716,1909.0938,191.3716,1913.0938,201.3716,1917.0938,197.3716,1913.0938" style="stroke:#181818;stroke-width:1.0;"/><line style="stroke:#181818;stroke-width:1.0;stroke-dasharray:2.0,2.0;" x1="195.3716" x2="422.2476" y1="1913.0938" y2="1913.0938"/><text fill="#000000" font-family="sans-serif" font-size="13" lengthAdjust="spacing" textLength="208.876" x="207.3716" y="1908.2373">Error: Satuan digunakan oleh bahan</text><path d="M438,1876.3906 L438,1935.3906 L720,1935.3906 L720,1886.3906 L710,1876.3906 L438,1876.3906 " fill="#FEFFDD" style="stroke:#181818;stroke-width:0.5;"/><path d="M710,1876.3906 L710,1886.3906 L720,1886.3906 L710,1876.3906 " fill="#FEFFDD" style="stroke:#181818;stroke-width:0.5;"/><text fill="#000000" font-family="sans-serif" font-size="13" lengthAdjust="spacing" textLength="102.6099" x="444" y="1894.8857">Tampilkan pesan:</text><text fill="#000000" font-family="sans-serif" font-size="13" lengthAdjust="spacing" textLength="209.8916" x="444" y="1911.2373">"Satuan ini digunakan oleh X bahan.</text><text fill="#000000" font-family="sans-serif" font-size="13" lengthAdjust="spacing" textLength="261.1934" x="444" y="1927.5889">Ubah satuan bahan tersebut terlebih dahulu."</text><!--SRC=[ZLNHRjiw37ttLn1vINjnamyma0vjx291vtPeREm2TnS34wks5bdoBAdRvrzAKHqxJRlcnOvuI94yXxJXHZ3Oi9-MoHs3X6FLOHD3ncJ5X1886pGMPHJXpgWErlAPINhXW1hMKOkTuJlUeZGmMQ701cNmc3Z4Qeme93ThMRBVt-HIDQsI5ClZYjUuRp9J9HFUd4Kb6joYPZ19mfit93THj5XGjeBNQ2319uDTI00MYoXQm-mALZ5SxpNJK8SCzQ4cAea_es6KvihXYXWQPQMvk3oQYgXmfYm6brGS_-AcNdhGj25xnr7ewUNigc8ZjopAd5jo4yCc_PmkS_WBRXyVCh0KHRyoBX-A-npwW55o0xF3hQxSbtmpVqXPBfKGZAvIVIab6rnTU1nL_SYesHsKlYr3JE4A9imwXXoRbeizTILqPuXRXVPARBPOdslidU1xCAhPAk524UfSw4QLAE19TSt1aMhGrB0fnMNJls5wnuLomfjUZkqeE6e7s5T34pwpCnoHvPaSI2hEUa9RpJhMt_U926E_kJRwuvp1rrNwc8AB00luDA3eYHXZHt9ooc0FM2AKjgNke1cpSvBPhcCkuN_dy_b_vvDPts_InvmU-KEGp_7kZTtjcDR7smD5M-pi6wB8hR7jWP7ZuQr0NKD3eR1YeAqRbx5WWX0gLdBp9o6aXEb7oZbSkBnF6Glfz29nyl3eaukbecV7gzf40BSEvCP4SoWf7PGndSxWdgHBIGGT-QDh9vuOzbL4Om0kIlI6kkw6wh9jKD37zEKgcrq5ftTOBBuartaQjBH9S_2tavJSxUynMlZGvHjiVfou6bkh_yJSoe6E4todv1Fl6gHcU_U-IRIP6TLxZjP1L_g5Ta43jpjThTaRQz3FNEyQviu5_CxBaz7pCO-j-c4RGMkAbj3fIenGcC5aUWHrJLQLbRZlFmd09IVj08ph2DLUUjCWgllRrv1G3KJmOCixysjYWzCXuyH7BltXAE6Gn3iaCzewSFrECUCOQTUfhjyF9N_1Ai5UEkRmes5pl-DyjamVfitz9fk-OQV1_Zc4cmTauRuS-cKjkLI9MSssrhWNmRQyfYzKROMTJxnBFwtq4esr_3y0]--></g></svg>