<svg xmlns="http://www.w3.org/2000/svg" xmlns:xlink="http://www.w3.org/1999/xlink" contentStyleType="text/css" height="2233px" preserveAspectRatio="none" style="width:1088px;height:2233px;background:#FFFFFF;" version="1.1" viewBox="0 0 1088 2233" width="1088px" zoomAndPan="magnify"><defs/><g><rect fill="none" height="525.9766" style="stroke:#000000;stroke-width:1.5;" width="1061.6943" x="10" y="295.7188"/><rect fill="none" height="243.8125" style="stroke:#000000;stroke-width:1.5;" width="1041.6943" x="20" y="351.4219"/><rect fill="none" height="122.4063" style="stroke:#000000;stroke-width:1.5;" width="420.3086" x="20" y="639.5859"/><rect fill="none" height="111.4063" style="stroke:#000000;stroke-width:1.5;" width="852.7544" x="218.9399" y="1001.4531"/><rect fill="none" height="79.0547" style="stroke:#000000;stroke-width:1.5;" width="832.7544" x="228.9399" y="1026.8047"/><rect fill="none" height="111.4063" style="stroke:#000000;stroke-width:1.5;" width="852.7544" x="218.9399" y="1126.8594"/><rect fill="none" height="79.0547" style="stroke:#000000;stroke-width:1.5;" width="832.7544" x="228.9399" y="1152.2109"/><rect fill="none" height="155.5938" style="stroke:#000000;stroke-width:1.5;" width="1041.6943" x="20" y="1948"/><line style="stroke:#181818;stroke-width:0.5;stroke-dasharray:5.0,5.0;" x1="59" x2="59" y1="82.6094" y2="2150.9453"/><line style="stroke:#181818;stroke-width:0.5;stroke-dasharray:5.0,5.0;" x1="287.9399" x2="287.9399" y1="82.6094" y2="2150.9453"/><line style="stroke:#181818;stroke-width:0.5;stroke-dasharray:5.0,5.0;" x1="526.2505" x2="526.2505" y1="82.6094" y2="2150.9453"/><line style="stroke:#181818;stroke-width:0.5;stroke-dasharray:5.0,5.0;" x1="637.4985" x2="637.4985" y1="82.6094" y2="2150.9453"/><line style="stroke:#181818;stroke-width:0.5;stroke-dasharray:5.0,5.0;" x1="755.5601" x2="755.5601" y1="82.6094" y2="2150.9453"/><line style="stroke:#181818;stroke-width:0.5;stroke-dasharray:5.0,5.0;" x1="836.3599" x2="836.3599" y1="82.6094" y2="2150.9453"/><line style="stroke:#181818;stroke-width:0.5;stroke-dasharray:5.0,5.0;" x1="1017.7637" x2="1017.7637" y1="82.6094" y2="2150.9453"/><text fill="#000000" font-family="sans-serif" font-size="14" lengthAdjust="spacing" textLength="53.6963" x="30" y="79.5332">Inventori</text><ellipse cx="59.8481" cy="13.5" fill="#E2E2F0" rx="8" ry="8" style="stroke:#181818;stroke-width:0.5;"/><path d="M59.8481,21.5 L59.8481,48.5 M46.8481,29.5 L72.8481,29.5 M59.8481,48.5 L46.8481,63.5 M59.8481,48.5 L72.8481,63.5 " fill="none" style="stroke:#181818;stroke-width:0.5;"/><text fill="#000000" font-family="sans-serif" font-size="14" lengthAdjust="spacing" textLength="53.6963" x="30" y="2164.4785">Inventori</text><ellipse cx="59.8481" cy="2176.0547" fill="#E2E2F0" rx="8" ry="8" style="stroke:#181818;stroke-width:0.5;"/><path d="M59.8481,2184.0547 L59.8481,2211.0547 M46.8481,2192.0547 L72.8481,2192.0547 M59.8481,2211.0547 L46.8481,2226.0547 M59.8481,2211.0547 L72.8481,2226.0547 " fill="none" style="stroke:#181818;stroke-width:0.5;"/><rect fill="#E2E2F0" height="49.2188" rx="2.5" ry="2.5" style="stroke:#181818;stroke-width:0.5;" width="98.834" x="238.9399" y="32.3906"/><text fill="#000000" font-family="sans-serif" font-size="14" lengthAdjust="spacing" textLength="84.834" x="245.9399" y="53.9238">Product Page</text><text fill="#000000" font-family="sans-serif" font-size="14" lengthAdjust="spacing" textLength="60.6758" x="258.019" y="71.5332">(Livewire)</text><rect fill="#E2E2F0" height="49.2188" rx="2.5" ry="2.5" style="stroke:#181818;stroke-width:0.5;" width="98.834" x="238.9399" y="2149.9453"/><text fill="#000000" font-family="sans-serif" font-size="14" lengthAdjust="spacing" textLength="84.834" x="245.9399" y="2171.4785">Product Page</text><text fill="#000000" font-family="sans-serif" font-size="14" lengthAdjust="spacing" textLength="60.6758" x="258.019" y="2189.0879">(Livewire)</text><rect fill="#E2E2F0" height="49.2188" rx="2.5" ry="2.5" style="stroke:#181818;stroke-width:0.5;" width="62.248" x="495.2505" y="32.3906"/><text fill="#000000" font-family="sans-serif" font-size="14" lengthAdjust="spacing" textLength="48.248" x="502.2505" y="53.9238">Product</text><text fill="#000000" font-family="sans-serif" font-size="14" lengthAdjust="spacing" textLength="38.1309" x="507.3091" y="71.5332">Model</text><rect fill="#E2E2F0" height="49.2188" rx="2.5" ry="2.5" style="stroke:#181818;stroke-width:0.5;" width="62.248" x="495.2505" y="2149.9453"/><text fill="#000000" font-family="sans-serif" font-size="14" lengthAdjust="spacing" textLength="48.248" x="502.2505" y="2171.4785">Product</text><text fill="#000000" font-family="sans-serif" font-size="14" lengthAdjust="spacing" textLength="38.1309" x="507.3091" y="2189.0879">Model</text><rect fill="#E2E2F0" height="49.2188" rx="2.5" ry="2.5" style="stroke:#181818;stroke-width:0.5;" width="140.0615" x="567.4985" y="32.3906"/><text fill="#000000" font-family="sans-serif" font-size="14" lengthAdjust="spacing" textLength="126.0615" x="574.4985" y="53.9238">ProductComposition</text><text fill="#000000" font-family="sans-serif" font-size="14" lengthAdjust="spacing" textLength="38.1309" x="618.4639" y="71.5332">Model</text><rect fill="#E2E2F0" height="49.2188" rx="2.5" ry="2.5" style="stroke:#181818;stroke-width:0.5;" width="140.0615" x="567.4985" y="2149.9453"/><text fill="#000000" font-family="sans-serif" font-size="14" lengthAdjust="spacing" textLength="126.0615" x="574.4985" y="2171.4785">ProductComposition</text><text fill="#000000" font-family="sans-serif" font-size="14" lengthAdjust="spacing" textLength="38.1309" x="618.4639" y="2189.0879">Model</text><rect fill="#E2E2F0" height="49.2188" rx="2.5" ry="2.5" style="stroke:#181818;stroke-width:0.5;" width="77.7998" x="717.5601" y="32.3906"/><text fill="#000000" font-family="sans-serif" font-size="14" lengthAdjust="spacing" textLength="63.7998" x="724.5601" y="53.9238">OtherCost</text><text fill="#000000" font-family="sans-serif" font-size="14" lengthAdjust="spacing" textLength="38.1309" x="737.3945" y="71.5332">Model</text><rect fill="#E2E2F0" height="49.2188" rx="2.5" ry="2.5" style="stroke:#181818;stroke-width:0.5;" width="77.7998" x="717.5601" y="2149.9453"/><text fill="#000000" font-family="sans-serif" font-size="14" lengthAdjust="spacing" textLength="63.7998" x="724.5601" y="2171.4785">OtherCost</text><text fill="#000000" font-family="sans-serif" font-size="14" lengthAdjust="spacing" textLength="38.1309" x="737.3945" y="2189.0879">Model</text><rect fill="#E2E2F0" height="49.2188" rx="2.5" ry="2.5" style="stroke:#181818;stroke-width:0.5;" width="63.793" x="805.3599" y="32.3906"/><text fill="#000000" font-family="sans-serif" font-size="14" lengthAdjust="spacing" textLength="49.793" x="812.3599" y="53.9238">Material</text><text fill="#000000" font-family="sans-serif" font-size="14" lengthAdjust="spacing" textLength="38.1309" x="818.1909" y="71.5332">Model</text><rect fill="#E2E2F0" height="49.2188" rx="2.5" ry="2.5" style="stroke:#181818;stroke-width:0.5;" width="63.793" x="805.3599" y="2149.9453"/><text fill="#000000" font-family="sans-serif" font-size="14" lengthAdjust="spacing" textLength="49.793" x="812.3599" y="2171.4785">Material</text><text fill="#000000" font-family="sans-serif" font-size="14" lengthAdjust="spacing" textLength="38.1309" x="818.1909" y="2189.0879">Model</text><text fill="#000000" font-family="sans-serif" font-size="14" lengthAdjust="spacing" textLength="59.9307" x="985.7637" y="79.5332">Database</text><path d="M1000.729,29 C1000.729,19 1018.729,19 1018.729,19 C1018.729,19 1036.729,19 1036.729,29 L1036.729,55 C1036.729,65 1018.729,65 1018.729,65 C1018.729,65 1000.729,65 1000.729,55 L1000.729,29 " fill="#E2E2F0" style="stroke:#181818;stroke-width:1.5;"/><path d="M1000.729,29 C1000.729,39 1018.729,39 1018.729,39 C1018.729,39 1036.729,39 1036.729,29 " fill="none" style="stroke:#181818;stroke-width:1.5;"/><text fill="#000000" font-family="sans-serif" font-size="14" lengthAdjust="spacing" textLength="59.9307" x="985.7637" y="2164.4785">Database</text><path d="M1000.729,2177.5547 C1000.729,2167.5547 1018.729,2167.5547 1018.729,2167.5547 C1018.729,2167.5547 1036.729,2167.5547 1036.729,2177.5547 L1036.729,2203.5547 C1036.729,2213.5547 1018.729,2213.5547 1018.729,2213.5547 C1018.729,2213.5547 1000.729,2213.5547 1000.729,2203.5547 L1000.729,2177.5547 " fill="#E2E2F0" style="stroke:#181818;stroke-width:1.5;"/><path d="M1000.729,2177.5547 C1000.729,2187.5547 1018.729,2187.5547 1018.729,2187.5547 C1018.729,2187.5547 1036.729,2187.5547 1036.729,2177.5547 " fill="none" style="stroke:#181818;stroke-width:1.5;"/><rect fill="#EEEEEE" height="3" style="stroke:#EEEEEE;stroke-width:1.0;" width="1081.6943" x="0" y="113.7852"/><line style="stroke:#000000;stroke-width:1.0;" x1="0" x2="1081.6943" y1="113.7852" y2="113.7852"/><line style="stroke:#000000;stroke-width:1.0;" x1="0" x2="1081.6943" y1="116.7852" y2="116.7852"/><rect fill="#EEEEEE" height="24.3516" style="stroke:#000000;stroke-width:2.0;" width="167.1372" x="457.2786" y="102.6094"/><text fill="#000000" font-family="sans-serif" font-size="13" font-weight="bold" lengthAdjust="spacing" textLength="149.5254" x="463.2786" y="120.1045">Menambah Produk Baru</text><polygon fill="#181818" points="276.3569,155.3125,286.3569,159.3125,276.3569,163.3125,280.3569,159.3125" style="stroke:#181818;stroke-width:1.0;"/><line style="stroke:#181818;stroke-width:1.0;" x1="59.8481" x2="282.3569" y1="159.3125" y2="159.3125"/><text fill="#000000" font-family="sans-serif" font-size="13" lengthAdjust="spacing" textLength="126.2803" x="66.8481" y="154.4561">Klik "Tambah Produk"</text><polygon fill="#181818" points="70.8481,185.6641,60.8481,189.6641,70.8481,193.6641,66.8481,189.6641" style="stroke:#181818;stroke-width:1.0;"/><line style="stroke:#181818;stroke-width:1.0;stroke-dasharray:2.0,2.0;" x1="64.8481" x2="287.3569" y1="189.6641" y2="189.6641"/><text fill="#000000" font-family="sans-serif" font-size="13" lengthAdjust="spacing" textLength="132.939" x="76.8481" y="184.8076">Tampilkan form produk</text><polygon fill="#181818" points="276.3569,216.0156,286.3569,220.0156,276.3569,224.0156,280.3569,220.0156" style="stroke:#181818;stroke-width:1.0;"/><line style="stroke:#181818;stroke-width:1.0;" x1="59.8481" x2="282.3569" y1="220.0156" y2="220.0156"/><text fill="#000000" font-family="sans-serif" font-size="13" lengthAdjust="spacing" textLength="85.2744" x="66.8481" y="215.1592">Isi data produk</text><polygon fill="#181818" points="276.3569,246.3672,286.3569,250.3672,276.3569,254.3672,280.3569,250.3672" style="stroke:#181818;stroke-width:1.0;"/><line style="stroke:#181818;stroke-width:1.0;" x1="59.8481" x2="282.3569" y1="250.3672" y2="250.3672"/><text fill="#000000" font-family="sans-serif" font-size="13" lengthAdjust="spacing" textLength="74.4263" x="66.8481" y="245.5107">Pilih kategori</text><polygon fill="#181818" points="276.3569,276.7188,286.3569,280.7188,276.3569,284.7188,280.3569,280.7188" style="stroke:#181818;stroke-width:1.0;"/><line style="stroke:#181818;stroke-width:1.0;" x1="59.8481" x2="282.3569" y1="280.7188" y2="280.7188"/><text fill="#000000" font-family="sans-serif" font-size="13" lengthAdjust="spacing" textLength="149.5825" x="66.8481" y="275.8623">Upload gambar (opsional)</text><path d="M10,295.7188 L70.1709,295.7188 L70.1709,304.0703 L60.1709,314.0703 L10,314.0703 L10,295.7188 " fill="#EEEEEE" style="stroke:#000000;stroke-width:1.5;"/><rect fill="none" height="525.9766" style="stroke:#000000;stroke-width:1.5;" width="1061.6943" x="10" y="295.7188"/><text fill="#000000" font-family="sans-serif" font-size="13" font-weight="bold" lengthAdjust="spacing" textLength="15.1709" x="25" y="310.2139">alt</text><text fill="#000000" font-family="sans-serif" font-size="11" font-weight="bold" lengthAdjust="spacing" textLength="123.46" x="85.1709" y="309.1377">[Produk dengan Resep]</text><polygon fill="#181818" points="276.3569,332.4219,286.3569,336.4219,276.3569,340.4219,280.3569,336.4219" style="stroke:#181818;stroke-width:1.0;"/><line style="stroke:#181818;stroke-width:1.0;" x1="59.8481" x2="282.3569" y1="336.4219" y2="336.4219"/><text fill="#000000" font-family="sans-serif" font-size="13" lengthAdjust="spacing" textLength="148.8589" x="66.8481" y="331.5654">Tambah komposisi bahan</text><path d="M20,351.4219 L92.4346,351.4219 L92.4346,359.7734 L82.4346,369.7734 L20,369.7734 L20,351.4219 " fill="#EEEEEE" style="stroke:#000000;stroke-width:1.5;"/><rect fill="none" height="243.8125" style="stroke:#000000;stroke-width:1.5;" width="1041.6943" x="20" y="351.4219"/><text fill="#000000" font-family="sans-serif" font-size="13" font-weight="bold" lengthAdjust="spacing" textLength="27.4346" x="35" y="365.917">loop</text><text fill="#000000" font-family="sans-serif" font-size="11" font-weight="bold" lengthAdjust="spacing" textLength="108.7861" x="107.4346" y="364.8408">[Untuk setiap bahan]</text><polygon fill="#181818" points="276.3569,388.125,286.3569,392.125,276.3569,396.125,280.3569,392.125" style="stroke:#181818;stroke-width:1.0;"/><line style="stroke:#181818;stroke-width:1.0;" x1="59.8481" x2="282.3569" y1="392.125" y2="392.125"/><text fill="#000000" font-family="sans-serif" font-size="13" lengthAdjust="spacing" textLength="96.1289" x="66.8481" y="387.2686">Pilih bahan baku</text><polygon fill="#181818" points="825.2563,418.4766,835.2563,422.4766,825.2563,426.4766,829.2563,422.4766" style="stroke:#181818;stroke-width:1.0;"/><line style="stroke:#181818;stroke-width:1.0;" x1="288.3569" x2="831.2563" y1="422.4766" y2="422.4766"/><text fill="#000000" font-family="sans-serif" font-size="13" lengthAdjust="spacing" textLength="182.3301" x="295.3569" y="417.6201">query()-&gt;where('is_active', true)</text><polygon fill="#181818" points="1006.729,448.8281,1016.729,452.8281,1006.729,456.8281,1010.729,452.8281" style="stroke:#181818;stroke-width:1.0;"/><line style="stroke:#181818;stroke-width:1.0;" x1="837.2563" x2="1012.729" y1="452.8281" y2="452.8281"/><text fill="#000000" font-family="sans-serif" font-size="13" lengthAdjust="spacing" textLength="157.4727" x="844.2563" y="447.9717">SELECT * FROM materials</text><polygon fill="#181818" points="848.2563,479.1797,838.2563,483.1797,848.2563,487.1797,844.2563,483.1797" style="stroke:#181818;stroke-width:1.0;"/><line style="stroke:#181818;stroke-width:1.0;stroke-dasharray:2.0,2.0;" x1="842.2563" x2="1017.729" y1="483.1797" y2="483.1797"/><text fill="#000000" font-family="sans-serif" font-size="13" lengthAdjust="spacing" textLength="72.2363" x="854.2563" y="478.3232">materials list</text><polygon fill="#181818" points="299.3569,509.5313,289.3569,513.5313,299.3569,517.5313,295.3569,513.5313" style="stroke:#181818;stroke-width:1.0;"/><line style="stroke:#181818;stroke-width:1.0;stroke-dasharray:2.0,2.0;" x1="293.3569" x2="836.2563" y1="513.5313" y2="513.5313"/><text fill="#000000" font-family="sans-serif" font-size="13" lengthAdjust="spacing" textLength="107.6626" x="305.3569" y="508.6748">available materials</text><polygon fill="#181818" points="276.3569,539.8828,286.3569,543.8828,276.3569,547.8828,280.3569,543.8828" style="stroke:#181818;stroke-width:1.0;"/><line style="stroke:#181818;stroke-width:1.0;" x1="59.8481" x2="282.3569" y1="543.8828" y2="543.8828"/><text fill="#000000" font-family="sans-serif" font-size="13" lengthAdjust="spacing" textLength="156.0825" x="66.8481" y="539.0264">Masukkan jumlah &amp; satuan</text><line style="stroke:#181818;stroke-width:1.0;" x1="288.3569" x2="330.3569" y1="574.2344" y2="574.2344"/><line style="stroke:#181818;stroke-width:1.0;" x1="330.3569" x2="330.3569" y1="574.2344" y2="587.2344"/><line style="stroke:#181818;stroke-width:1.0;" x1="289.3569" x2="330.3569" y1="587.2344" y2="587.2344"/><polygon fill="#181818" points="299.3569,583.2344,289.3569,587.2344,299.3569,591.2344,295.3569,587.2344" style="stroke:#181818;stroke-width:1.0;"/><text fill="#000000" font-family="sans-serif" font-size="13" lengthAdjust="spacing" textLength="159.6689" x="295.3569" y="569.3779">Tambah ke array komposisi</text><polygon fill="#181818" points="276.3569,620.5859,286.3569,624.5859,276.3569,628.5859,280.3569,624.5859" style="stroke:#181818;stroke-width:1.0;"/><line style="stroke:#181818;stroke-width:1.0;" x1="59.8481" x2="282.3569" y1="624.5859" y2="624.5859"/><text fill="#000000" font-family="sans-serif" font-size="13" lengthAdjust="spacing" textLength="204.5088" x="66.8481" y="619.7295">Tambah biaya tambahan (opsional)</text><path d="M20,639.5859 L92.4346,639.5859 L92.4346,647.9375 L82.4346,657.9375 L20,657.9375 L20,639.5859 " fill="#EEEEEE" style="stroke:#000000;stroke-width:1.5;"/><rect fill="none" height="122.4063" style="stroke:#000000;stroke-width:1.5;" width="420.3086" x="20" y="639.5859"/><text fill="#000000" font-family="sans-serif" font-size="13" font-weight="bold" lengthAdjust="spacing" textLength="27.4346" x="35" y="654.0811">loop</text><text fill="#000000" font-family="sans-serif" font-size="11" font-weight="bold" lengthAdjust="spacing" textLength="104.5215" x="107.4346" y="653.0049">[Untuk setiap biaya]</text><polygon fill="#181818" points="276.3569,676.2891,286.3569,680.2891,276.3569,684.2891,280.3569,680.2891" style="stroke:#181818;stroke-width:1.0;"/><line style="stroke:#181818;stroke-width:1.0;" x1="59.8481" x2="282.3569" y1="680.2891" y2="680.2891"/><text fill="#000000" font-family="sans-serif" font-size="13" lengthAdjust="spacing" textLength="89.6035" x="66.8481" y="675.4326">Pilih jenis biaya</text><polygon fill="#181818" points="276.3569,706.6406,286.3569,710.6406,276.3569,714.6406,280.3569,710.6406" style="stroke:#181818;stroke-width:1.0;"/><line style="stroke:#181818;stroke-width:1.0;" x1="59.8481" x2="282.3569" y1="710.6406" y2="710.6406"/><text fill="#000000" font-family="sans-serif" font-size="13" lengthAdjust="spacing" textLength="108.3862" x="66.8481" y="705.7842">Masukkan nominal</text><line style="stroke:#181818;stroke-width:1.0;" x1="288.3569" x2="330.3569" y1="740.9922" y2="740.9922"/><line style="stroke:#181818;stroke-width:1.0;" x1="330.3569" x2="330.3569" y1="740.9922" y2="753.9922"/><line style="stroke:#181818;stroke-width:1.0;" x1="289.3569" x2="330.3569" y1="753.9922" y2="753.9922"/><polygon fill="#181818" points="299.3569,749.9922,289.3569,753.9922,299.3569,757.9922,295.3569,753.9922" style="stroke:#181818;stroke-width:1.0;"/><text fill="#000000" font-family="sans-serif" font-size="13" lengthAdjust="spacing" textLength="132.9517" x="295.3569" y="736.1357">Tambah ke array biaya</text><line style="stroke:#181818;stroke-width:1.0;" x1="288.3569" x2="330.3569" y1="796.0195" y2="796.0195"/><line style="stroke:#181818;stroke-width:1.0;" x1="330.3569" x2="330.3569" y1="796.0195" y2="809.0195"/><line style="stroke:#181818;stroke-width:1.0;" x1="289.3569" x2="330.3569" y1="809.0195" y2="809.0195"/><polygon fill="#181818" points="299.3569,805.0195,289.3569,809.0195,299.3569,813.0195,295.3569,809.0195" style="stroke:#181818;stroke-width:1.0;"/><text fill="#000000" font-family="sans-serif" font-size="13" lengthAdjust="spacing" textLength="119.958" x="295.3569" y="791.1631">Hitung modal produk</text><path d="M426.958,773.9922 L426.958,815.9922 L622.958,815.9922 L622.958,783.9922 L612.958,773.9922 L426.958,773.9922 " fill="#FEFFDD" style="stroke:#181818;stroke-width:0.5;"/><path d="M612.958,773.9922 L612.958,783.9922 L622.958,783.9922 L612.958,773.9922 " fill="#FEFFDD" style="stroke:#181818;stroke-width:0.5;"/><text fill="#000000" font-family="sans-serif" font-size="13" lengthAdjust="spacing" textLength="175.7031" x="432.958" y="792.4873">modal = &#931;(harga_bahan &#215; qty)</text><text fill="#000000" font-family="sans-serif" font-size="13" lengthAdjust="spacing" textLength="124.0269" x="454.6289" y="808.8389">+ &#931;(biaya_tambahan)</text><polygon fill="#181818" points="276.3569,847.0469,286.3569,851.0469,276.3569,855.0469,280.3569,851.0469" style="stroke:#181818;stroke-width:1.0;"/><line style="stroke:#181818;stroke-width:1.0;" x1="59.8481" x2="282.3569" y1="851.0469" y2="851.0469"/><text fill="#000000" font-family="sans-serif" font-size="13" lengthAdjust="spacing" textLength="87.439" x="66.8481" y="846.1904">Simpan produk</text><rect fill="#EEEEEE" height="3" style="stroke:#EEEEEE;stroke-width:1.0;" width="1081.6943" x="0" y="880.2227"/><line style="stroke:#000000;stroke-width:1.0;" x1="0" x2="1081.6943" y1="880.2227" y2="880.2227"/><line style="stroke:#000000;stroke-width:1.0;" x1="0" x2="1081.6943" y1="883.2227" y2="883.2227"/><rect fill="#EEEEEE" height="24.3516" style="stroke:#000000;stroke-width:2.0;" width="168.6162" x="456.5391" y="869.0469"/><text fill="#000000" font-family="sans-serif" font-size="13" font-weight="bold" lengthAdjust="spacing" textLength="151.0044" x="462.5391" y="886.542">Menyimpan ke Database</text><polygon fill="#181818" points="514.3745,921.75,524.3745,925.75,514.3745,929.75,518.3745,925.75" style="stroke:#181818;stroke-width:1.0;"/><line style="stroke:#181818;stroke-width:1.0;" x1="288.3569" x2="520.3745" y1="925.75" y2="925.75"/><text fill="#000000" font-family="sans-serif" font-size="13" lengthAdjust="spacing" textLength="115.6099" x="295.3569" y="920.8936">create(productData)</text><polygon fill="#181818" points="1006.729,952.1016,1016.729,956.1016,1006.729,960.1016,1010.729,956.1016" style="stroke:#181818;stroke-width:1.0;"/><line style="stroke:#181818;stroke-width:1.0;" x1="526.3745" x2="1012.729" y1="956.1016" y2="956.1016"/><text fill="#000000" font-family="sans-serif" font-size="13" lengthAdjust="spacing" textLength="135.8081" x="533.3745" y="951.2451">INSERT INTO products</text><polygon fill="#181818" points="537.3745,982.4531,527.3745,986.4531,537.3745,990.4531,533.3745,986.4531" style="stroke:#181818;stroke-width:1.0;"/><line style="stroke:#181818;stroke-width:1.0;stroke-dasharray:2.0,2.0;" x1="531.3745" x2="1017.729" y1="986.4531" y2="986.4531"/><text fill="#000000" font-family="sans-serif" font-size="13" lengthAdjust="spacing" textLength="90.3335" x="543.3745" y="981.5967">product created</text><path d="M218.9399,1001.4531 L279.1108,1001.4531 L279.1108,1009.8047 L269.1108,1019.8047 L218.9399,1019.8047 L218.9399,1001.4531 " fill="#EEEEEE" style="stroke:#000000;stroke-width:1.5;"/><rect fill="none" height="111.4063" style="stroke:#000000;stroke-width:1.5;" width="852.7544" x="218.9399" y="1001.4531"/><text fill="#000000" font-family="sans-serif" font-size="13" font-weight="bold" lengthAdjust="spacing" textLength="15.1709" x="233.9399" y="1015.9482">alt</text><text fill="#000000" font-family="sans-serif" font-size="11" font-weight="bold" lengthAdjust="spacing" textLength="87.3931" x="294.1108" y="1014.8721">[Ada Komposisi]</text><path d="M228.9399,1026.8047 L301.3745,1026.8047 L301.3745,1035.1563 L291.3745,1045.1563 L228.9399,1045.1563 L228.9399,1026.8047 " fill="#EEEEEE" style="stroke:#000000;stroke-width:1.5;"/><rect fill="none" height="79.0547" style="stroke:#000000;stroke-width:1.5;" width="832.7544" x="228.9399" y="1026.8047"/><text fill="#000000" font-family="sans-serif" font-size="13" font-weight="bold" lengthAdjust="spacing" textLength="27.4346" x="243.9399" y="1041.2998">loop</text><text fill="#000000" font-family="sans-serif" font-size="11" font-weight="bold" lengthAdjust="spacing" textLength="130.7969" x="316.3745" y="1040.2236">[Untuk setiap komposisi]</text><polygon fill="#181818" points="625.5293,1063.5078,635.5293,1067.5078,625.5293,1071.5078,629.5293,1067.5078" style="stroke:#181818;stroke-width:1.0;"/><line style="stroke:#181818;stroke-width:1.0;" x1="288.3569" x2="631.5293" y1="1067.5078" y2="1067.5078"/><text fill="#000000" font-family="sans-serif" font-size="13" lengthAdjust="spacing" textLength="141.6162" x="295.3569" y="1062.6514">create(compositionData)</text><polygon fill="#181818" points="1006.729,1093.8594,1016.729,1097.8594,1006.729,1101.8594,1010.729,1097.8594" style="stroke:#181818;stroke-width:1.0;"/><line style="stroke:#181818;stroke-width:1.0;" x1="637.5293" x2="1012.729" y1="1097.8594" y2="1097.8594"/><text fill="#000000" font-family="sans-serif" font-size="13" lengthAdjust="spacing" textLength="212.4053" x="644.5293" y="1093.0029">INSERT INTO product_compositions</text><path d="M218.9399,1126.8594 L279.1108,1126.8594 L279.1108,1135.2109 L269.1108,1145.2109 L218.9399,1145.2109 L218.9399,1126.8594 " fill="#EEEEEE" style="stroke:#000000;stroke-width:1.5;"/><rect fill="none" height="111.4063" style="stroke:#000000;stroke-width:1.5;" width="852.7544" x="218.9399" y="1126.8594"/><text fill="#000000" font-family="sans-serif" font-size="13" font-weight="bold" lengthAdjust="spacing" textLength="15.1709" x="233.9399" y="1141.3545">alt</text><text fill="#000000" font-family="sans-serif" font-size="11" font-weight="bold" lengthAdjust="spacing" textLength="118.583" x="294.1108" y="1140.2783">[Ada Biaya Tambahan]</text><path d="M228.9399,1152.2109 L301.3745,1152.2109 L301.3745,1160.5625 L291.3745,1170.5625 L228.9399,1170.5625 L228.9399,1152.2109 " fill="#EEEEEE" style="stroke:#000000;stroke-width:1.5;"/><rect fill="none" height="79.0547" style="stroke:#000000;stroke-width:1.5;" width="832.7544" x="228.9399" y="1152.2109"/><text fill="#000000" font-family="sans-serif" font-size="13" font-weight="bold" lengthAdjust="spacing" textLength="27.4346" x="243.9399" y="1166.7061">loop</text><text fill="#000000" font-family="sans-serif" font-size="11" font-weight="bold" lengthAdjust="spacing" textLength="104.5215" x="316.3745" y="1165.6299">[Untuk setiap biaya]</text><polygon fill="#181818" points="744.46,1188.9141,754.46,1192.9141,744.46,1196.9141,748.46,1192.9141" style="stroke:#181818;stroke-width:1.0;"/><line style="stroke:#181818;stroke-width:1.0;" x1="288.3569" x2="750.46" y1="1192.9141" y2="1192.9141"/><text fill="#000000" font-family="sans-serif" font-size="13" lengthAdjust="spacing" textLength="96.0908" x="295.3569" y="1188.0576">create(costData)</text><polygon fill="#181818" points="1006.729,1219.2656,1016.729,1223.2656,1006.729,1227.2656,1010.729,1223.2656" style="stroke:#181818;stroke-width:1.0;"/><line style="stroke:#181818;stroke-width:1.0;" x1="756.46" x2="1012.729" y1="1223.2656" y2="1223.2656"/><text fill="#000000" font-family="sans-serif" font-size="13" lengthAdjust="spacing" textLength="153.1499" x="763.46" y="1218.4092">INSERT INTO other_costs</text><polygon fill="#181818" points="70.8481,1263.6172,60.8481,1267.6172,70.8481,1271.6172,66.8481,1267.6172" style="stroke:#181818;stroke-width:1.0;"/><line style="stroke:#181818;stroke-width:1.0;stroke-dasharray:2.0,2.0;" x1="64.8481" x2="287.3569" y1="1267.6172" y2="1267.6172"/><text fill="#000000" font-family="sans-serif" font-size="13" lengthAdjust="spacing" textLength="168.3779" x="76.8481" y="1262.7607">Produk berhasil ditambahkan</text><rect fill="#EEEEEE" height="3" style="stroke:#EEEEEE;stroke-width:1.0;" width="1081.6943" x="0" y="1296.793"/><line style="stroke:#000000;stroke-width:1.0;" x1="0" x2="1081.6943" y1="1296.793" y2="1296.793"/><line style="stroke:#000000;stroke-width:1.0;" x1="0" x2="1081.6943" y1="1299.793" y2="1299.793"/><rect fill="#EEEEEE" height="24.3516" style="stroke:#000000;stroke-width:2.0;" width="123.0591" x="479.3176" y="1285.6172"/><text fill="#000000" font-family="sans-serif" font-size="13" font-weight="bold" lengthAdjust="spacing" textLength="105.4473" x="485.3176" y="1303.1123">Mengedit Produk</text><polygon fill="#181818" points="276.3569,1338.3203,286.3569,1342.3203,276.3569,1346.3203,280.3569,1342.3203" style="stroke:#181818;stroke-width:1.0;"/><line style="stroke:#181818;stroke-width:1.0;" x1="59.8481" x2="282.3569" y1="1342.3203" y2="1342.3203"/><text fill="#000000" font-family="sans-serif" font-size="13" lengthAdjust="spacing" textLength="67.9263" x="66.8481" y="1337.4639">Pilih produk</text><polygon fill="#181818" points="514.3745,1368.6719,524.3745,1372.6719,514.3745,1376.6719,518.3745,1372.6719" style="stroke:#181818;stroke-width:1.0;"/><line style="stroke:#181818;stroke-width:1.0;" x1="288.3569" x2="520.3745" y1="1372.6719" y2="1372.6719"/><text fill="#000000" font-family="sans-serif" font-size="13" lengthAdjust="spacing" textLength="214.0176" x="295.3569" y="1367.8154">find(id)-&gt;with(['compositions', 'costs'])</text><polygon fill="#181818" points="1006.729,1399.0234,1016.729,1403.0234,1006.729,1407.0234,1010.729,1403.0234" style="stroke:#181818;stroke-width:1.0;"/><line style="stroke:#181818;stroke-width:1.0;" x1="526.3745" x2="1012.729" y1="1403.0234" y2="1403.0234"/><text fill="#000000" font-family="sans-serif" font-size="13" lengthAdjust="spacing" textLength="132.2407" x="533.3745" y="1398.167">SELECT dengan relasi</text><polygon fill="#181818" points="537.3745,1429.375,527.3745,1433.375,537.3745,1437.375,533.3745,1433.375" style="stroke:#181818;stroke-width:1.0;"/><line style="stroke:#181818;stroke-width:1.0;stroke-dasharray:2.0,2.0;" x1="531.3745" x2="1017.729" y1="1433.375" y2="1433.375"/><text fill="#000000" font-family="sans-serif" font-size="13" lengthAdjust="spacing" textLength="72.2744" x="543.3745" y="1428.5186">product data</text><polygon fill="#181818" points="299.3569,1459.7266,289.3569,1463.7266,299.3569,1467.7266,295.3569,1463.7266" style="stroke:#181818;stroke-width:1.0;"/><line style="stroke:#181818;stroke-width:1.0;stroke-dasharray:2.0,2.0;" x1="293.3569" x2="525.3745" y1="1463.7266" y2="1463.7266"/><text fill="#000000" font-family="sans-serif" font-size="13" lengthAdjust="spacing" textLength="122.8398" x="305.3569" y="1458.8701">product with relations</text><polygon fill="#181818" points="70.8481,1490.0781,60.8481,1494.0781,70.8481,1498.0781,66.8481,1494.0781" style="stroke:#181818;stroke-width:1.0;"/><line style="stroke:#181818;stroke-width:1.0;stroke-dasharray:2.0,2.0;" x1="64.8481" x2="287.3569" y1="1494.0781" y2="1494.0781"/><text fill="#000000" font-family="sans-serif" font-size="13" lengthAdjust="spacing" textLength="114.1499" x="76.8481" y="1489.2217">Tampilkan form edit</text><polygon fill="#181818" points="276.3569,1520.4297,286.3569,1524.4297,276.3569,1528.4297,280.3569,1524.4297" style="stroke:#181818;stroke-width:1.0;"/><line style="stroke:#181818;stroke-width:1.0;" x1="59.8481" x2="282.3569" y1="1524.4297" y2="1524.4297"/><text fill="#000000" font-family="sans-serif" font-size="13" lengthAdjust="spacing" textLength="59.9917" x="66.8481" y="1519.5732">Ubah data</text><polygon fill="#181818" points="276.3569,1550.7813,286.3569,1554.7813,276.3569,1558.7813,280.3569,1554.7813" style="stroke:#181818;stroke-width:1.0;"/><line style="stroke:#181818;stroke-width:1.0;" x1="59.8481" x2="282.3569" y1="1554.7813" y2="1554.7813"/><text fill="#000000" font-family="sans-serif" font-size="13" lengthAdjust="spacing" textLength="109.8589" x="66.8481" y="1549.9248">Simpan perubahan</text><polygon fill="#181818" points="514.3745,1581.1328,524.3745,1585.1328,514.3745,1589.1328,518.3745,1585.1328" style="stroke:#181818;stroke-width:1.0;"/><line style="stroke:#181818;stroke-width:1.0;" x1="288.3569" x2="520.3745" y1="1585.1328" y2="1585.1328"/><text fill="#000000" font-family="sans-serif" font-size="13" lengthAdjust="spacing" textLength="73.7217" x="295.3569" y="1580.2764">update(data)</text><polygon fill="#181818" points="1006.729,1611.4844,1016.729,1615.4844,1006.729,1619.4844,1010.729,1615.4844" style="stroke:#181818;stroke-width:1.0;"/><line style="stroke:#181818;stroke-width:1.0;" x1="526.3745" x2="1012.729" y1="1615.4844" y2="1615.4844"/><text fill="#000000" font-family="sans-serif" font-size="13" lengthAdjust="spacing" textLength="106.2026" x="533.3745" y="1610.6279">UPDATE products</text><polygon fill="#181818" points="537.3745,1641.8359,527.3745,1645.8359,537.3745,1649.8359,533.3745,1645.8359" style="stroke:#181818;stroke-width:1.0;"/><line style="stroke:#181818;stroke-width:1.0;stroke-dasharray:2.0,2.0;" x1="531.3745" x2="1017.729" y1="1645.8359" y2="1645.8359"/><text fill="#000000" font-family="sans-serif" font-size="13" lengthAdjust="spacing" textLength="46.9917" x="543.3745" y="1640.9795">updated</text><polygon fill="#181818" points="625.5293,1672.1875,635.5293,1676.1875,625.5293,1680.1875,629.5293,1676.1875" style="stroke:#181818;stroke-width:1.0;"/><line style="stroke:#181818;stroke-width:1.0;" x1="288.3569" x2="631.5293" y1="1676.1875" y2="1676.1875"/><text fill="#000000" font-family="sans-serif" font-size="13" lengthAdjust="spacing" textLength="137.9917" x="295.3569" y="1671.3311">sync(newCompositions)</text><polygon fill="#181818" points="744.46,1702.5391,754.46,1706.5391,744.46,1710.5391,748.46,1706.5391" style="stroke:#181818;stroke-width:1.0;"/><line style="stroke:#181818;stroke-width:1.0;" x1="288.3569" x2="750.46" y1="1706.5391" y2="1706.5391"/><text fill="#000000" font-family="sans-serif" font-size="13" lengthAdjust="spacing" textLength="92.4663" x="295.3569" y="1701.6826">sync(newCosts)</text><polygon fill="#181818" points="70.8481,1732.8906,60.8481,1736.8906,70.8481,1740.8906,66.8481,1736.8906" style="stroke:#181818;stroke-width:1.0;"/><line style="stroke:#181818;stroke-width:1.0;stroke-dasharray:2.0,2.0;" x1="64.8481" x2="287.3569" y1="1736.8906" y2="1736.8906"/><text fill="#000000" font-family="sans-serif" font-size="13" lengthAdjust="spacing" textLength="143.8188" x="76.8481" y="1732.0342">Produk berhasil diupdate</text><rect fill="#EEEEEE" height="3" style="stroke:#EEEEEE;stroke-width:1.0;" width="1081.6943" x="0" y="1766.0664"/><line style="stroke:#000000;stroke-width:1.0;" x1="0" x2="1081.6943" y1="1766.0664" y2="1766.0664"/><line style="stroke:#000000;stroke-width:1.0;" x1="0" x2="1081.6943" y1="1769.0664" y2="1769.0664"/><rect fill="#EEEEEE" height="24.3516" style="stroke:#000000;stroke-width:2.0;" width="138.23" x="471.7322" y="1754.8906"/><text fill="#000000" font-family="sans-serif" font-size="13" font-weight="bold" lengthAdjust="spacing" textLength="120.6182" x="477.7322" y="1772.3857">Menghapus Produk</text><polygon fill="#181818" points="276.3569,1807.5938,286.3569,1811.5938,276.3569,1815.5938,280.3569,1811.5938" style="stroke:#181818;stroke-width:1.0;"/><line style="stroke:#181818;stroke-width:1.0;" x1="59.8481" x2="282.3569" y1="1811.5938" y2="1811.5938"/><text fill="#000000" font-family="sans-serif" font-size="13" lengthAdjust="spacing" textLength="106.958" x="66.8481" y="1806.7373">Pilih hapus produk</text><polygon fill="#181818" points="70.8481,1837.9453,60.8481,1841.9453,70.8481,1845.9453,66.8481,1841.9453" style="stroke:#181818;stroke-width:1.0;"/><line style="stroke:#181818;stroke-width:1.0;stroke-dasharray:2.0,2.0;" x1="64.8481" x2="287.3569" y1="1841.9453" y2="1841.9453"/><text fill="#000000" font-family="sans-serif" font-size="13" lengthAdjust="spacing" textLength="107.6689" x="76.8481" y="1837.0889">Konfirmasi hapus?</text><polygon fill="#181818" points="276.3569,1868.2969,286.3569,1872.2969,276.3569,1876.2969,280.3569,1872.2969" style="stroke:#181818;stroke-width:1.0;"/><line style="stroke:#181818;stroke-width:1.0;" x1="59.8481" x2="282.3569" y1="1872.2969" y2="1872.2969"/><text fill="#000000" font-family="sans-serif" font-size="13" lengthAdjust="spacing" textLength="61.4072" x="66.8481" y="1867.4404">Konfirmasi</text><polygon fill="#181818" points="514.3745,1898.6484,524.3745,1902.6484,514.3745,1906.6484,518.3745,1902.6484" style="stroke:#181818;stroke-width:1.0;"/><line style="stroke:#181818;stroke-width:1.0;" x1="288.3569" x2="520.3745" y1="1902.6484" y2="1902.6484"/><text fill="#000000" font-family="sans-serif" font-size="13" lengthAdjust="spacing" textLength="127.1563" x="295.3569" y="1897.792">checkTransactions(id)</text><polygon fill="#181818" points="1006.729,1929,1016.729,1933,1006.729,1937,1010.729,1933" style="stroke:#181818;stroke-width:1.0;"/><line style="stroke:#181818;stroke-width:1.0;" x1="526.3745" x2="1012.729" y1="1933" y2="1933"/><text fill="#000000" font-family="sans-serif" font-size="13" lengthAdjust="spacing" textLength="342.8306" x="533.3745" y="1928.1436">SELECT FROM transaction_details WHERE product_id = ?</text><path d="M20,1948 L80.1709,1948 L80.1709,1956.3516 L70.1709,1966.3516 L20,1966.3516 L20,1948 " fill="#EEEEEE" style="stroke:#000000;stroke-width:1.5;"/><rect fill="none" height="155.5938" style="stroke:#000000;stroke-width:1.5;" width="1041.6943" x="20" y="1948"/><text fill="#000000" font-family="sans-serif" font-size="13" font-weight="bold" lengthAdjust="spacing" textLength="15.1709" x="35" y="1962.4951">alt</text><text fill="#000000" font-family="sans-serif" font-size="11" font-weight="bold" lengthAdjust="spacing" textLength="149.1445" x="95.1709" y="1961.4189">[Produk pernah di transaksi]</text><polygon fill="#181818" points="70.8481,1984.7031,60.8481,1988.7031,70.8481,1992.7031,66.8481,1988.7031" style="stroke:#181818;stroke-width:1.0;"/><line style="stroke:#181818;stroke-width:1.0;stroke-dasharray:2.0,2.0;" x1="64.8481" x2="287.3569" y1="1988.7031" y2="1988.7031"/><text fill="#000000" font-family="sans-serif" font-size="13" lengthAdjust="spacing" textLength="177.7788" x="76.8481" y="1983.8467">Peringatan: Akan di-soft delete</text><polygon fill="#181818" points="514.3745,2015.0547,524.3745,2019.0547,514.3745,2023.0547,518.3745,2019.0547" style="stroke:#181818;stroke-width:1.0;"/><line style="stroke:#181818;stroke-width:1.0;" x1="288.3569" x2="520.3745" y1="2019.0547" y2="2019.0547"/><text fill="#000000" font-family="sans-serif" font-size="13" lengthAdjust="spacing" textLength="161.0527" x="295.3569" y="2014.1982">update(['is_active' =&gt; false])</text><line style="stroke:#000000;stroke-width:1.0;stroke-dasharray:2.0,2.0;" x1="20" x2="1061.6943" y1="2028.0547" y2="2028.0547"/><text fill="#000000" font-family="sans-serif" font-size="11" font-weight="bold" lengthAdjust="spacing" textLength="109.4307" x="25" y="2039.4736">[Tidak ada transaksi]</text><polygon fill="#181818" points="514.3745,2061.2422,524.3745,2065.2422,514.3745,2069.2422,518.3745,2065.2422" style="stroke:#181818;stroke-width:1.0;"/><line style="stroke:#181818;stroke-width:1.0;" x1="288.3569" x2="520.3745" y1="2065.2422" y2="2065.2422"/><text fill="#000000" font-family="sans-serif" font-size="13" lengthAdjust="spacing" textLength="54.1963" x="295.3569" y="2060.3857">delete(id)</text><polygon fill="#181818" points="1006.729,2091.5938,1016.729,2095.5938,1006.729,2099.5938,1010.729,2095.5938" style="stroke:#181818;stroke-width:1.0;"/><line style="stroke:#181818;stroke-width:1.0;" x1="526.3745" x2="1012.729" y1="2095.5938" y2="2095.5938"/><text fill="#000000" font-family="sans-serif" font-size="13" lengthAdjust="spacing" textLength="145.9263" x="533.3745" y="2090.7373">DELETE FROM products</text><polygon fill="#181818" points="70.8481,2128.9453,60.8481,2132.9453,70.8481,2136.9453,66.8481,2132.9453" style="stroke:#181818;stroke-width:1.0;"/><line style="stroke:#181818;stroke-width:1.0;stroke-dasharray:2.0,2.0;" x1="64.8481" x2="287.3569" y1="2132.9453" y2="2132.9453"/><text fill="#000000" font-family="sans-serif" font-size="13" lengthAdjust="spacing" textLength="139.4771" x="76.8481" y="2128.0889">Produk berhasil dihapus</text><!--SRC=[bLPHRkCs4FtNAGRvgELkSm43pYAENMoGTHCa3lgnkp368crn9LDQaahWa_G0FKh_UwOEIOcIOZdh-iEso3V3cNblXiB450fkvGkNz4T49IeZ4b6YD73ne0fM9GOUSCU_olYpUE6lGl7n1Q1sYuFmht9PC9vxa5yQnDqK-xBGmeX2TaqwotspUvDoTLDeqqVhDzwNQBWIc7THpLh4qE06DOTvyuTsvxCecavXoINkDvZwe3EOeQfWEer2SU3oocKzWRjSP72nwi8l8hi5buG91XCWI2do32Li2xM7qa6Z8PUtMe2Dhi4CG1v4BbB8A9UTfMe0yLpc1JBOsS0Kn4MfgOgOZwC8SzFanRZSKK2FNFCo0leCEAfJopmN51ezeNHezvKNHGdFqf0xpOt0iWCuuT97xs3qdLK1w-js5KYQm8-AgqCylhnw9SPvF19wZOaXzOr-0wCgFWwsZOsrdyycyBJulBXPmQ_m- -Fz4lRrhWxu-Smnr1uL890BKjAntn0_lg38SPFp0RVlvRr4NMLM0T-hVKur_GKqcgfJgoR_VkL9cKhXeQN0uRbaBGcdUTi8F20Ozq0dTuJm7eFMwESCVkTIw9-3Gzgos0iw-inqMx-zLFj6duIfv0xs1IE6wdwnA5aO3ahiqeP8ZvZ2lt_7AQeThdqz_laBVfX3goBx-M11xlHrKxTn4uTp7Dc0XfhkIUnfyeJUzfFau1UppgIXKHBIy1Dm0edY9AQuzCyMEewQgLjB-lQFfyNZYdvMzr3ZT5JhEFYfDsf_pFVxDKEuwyddcFI-lBgbxipX46VIhlbO6wCE-9surnrx7KXsTMtYdJdbhce6pb9g6x0sdKYrUHkY7gnfOQ-LjSM_2MbedjSZTCDLYbham8GN2mczONx7QR413byVlf5gmHnfOYiaYmMpuq-ODFuowbQD9k38nJhwTgIKUlZLyrtnd48ygHHxrxGEGcZDjZtQkV1SdN6tsRG7- -FPDhWxxftcuQhoZ1_NeogPPPGDDSVpm_nwjJZT5zwMjLvxgjO7cSIIltOMzJZgwwd5KD77vwh2dniaaM9PwNCquO4zPVIFkYlaLgWz7UEn7mTVJm9ee9n9ofDifL1gUwTInbPh9wJaRb7JOjUC6xe5DVpvQV4OohuMZ6RinzvB1X4gBUsYDi_g2JDOFhfDIR86YP9hgoScBdMn9Otod5CLUnV06rLywRmSmFGAjdGjSseDJZ-m4WmpG1ehGq5qdFc3N27SVhyOSoe6YSmL8oZjVum8HrJq7m00]--></g></svg>