<svg xmlns="http://www.w3.org/2000/svg" xmlns:xlink="http://www.w3.org/1999/xlink" contentStyleType="text/css" height="1761px" preserveAspectRatio="none" style="width:1102px;height:1761px;background:#FFFFFF;" version="1.1" viewBox="0 0 1102 1761" width="1102px" zoomAndPan="magnify"><title>Sequence Diagram</title><defs/><g><text fill="#000000" font-family="sans-serif" font-size="14" font-weight="bold" lengthAdjust="spacing" textLength="126.0479" x="489.2493" y="29.5332">Sequence Diagram</text><text fill="#000000" font-family="sans-serif" font-size="14" font-weight="bold" lengthAdjust="spacing" textLength="216.2549" x="444.1458" y="47.1426">Melihat dan Mengelola Notifikasi</text><rect fill="none" height="48.7031" style="stroke:#000000;stroke-width:1.5;" width="498.4434" x="597.103" y="775.8594"/><rect fill="none" height="125.2422" style="stroke:#000000;stroke-width:1.5;" width="869.5903" x="225.9561" y="1263.4844"/><line style="stroke:#181818;stroke-width:0.5;stroke-dasharray:5.0,5.0;" x1="22" x2="22" y1="138.8281" y2="1678.8906"/><line style="stroke:#181818;stroke-width:0.5;stroke-dasharray:5.0,5.0;" x1="292.9561" x2="292.9561" y1="138.8281" y2="1678.8906"/><line style="stroke:#181818;stroke-width:0.5;stroke-dasharray:5.0,5.0;" x1="678.103" x2="678.103" y1="138.8281" y2="1678.8906"/><line style="stroke:#181818;stroke-width:0.5;stroke-dasharray:5.0,5.0;" x1="1043.2915" x2="1043.2915" y1="138.8281" y2="1678.8906"/><text fill="#000000" font-family="sans-serif" font-size="14" lengthAdjust="spacing" textLength="29.5586" x="5" y="135.752">User</text><ellipse cx="22.7793" cy="69.7188" fill="#E2E2F0" rx="8" ry="8" style="stroke:#181818;stroke-width:0.5;"/><path d="M22.7793,77.7188 L22.7793,104.7188 M9.7793,85.7188 L35.7793,85.7188 M22.7793,104.7188 L9.7793,119.7188 M22.7793,104.7188 L35.7793,119.7188 " fill="none" style="stroke:#181818;stroke-width:0.5;"/><text fill="#000000" font-family="sans-serif" font-size="14" lengthAdjust="spacing" textLength="29.5586" x="5" y="1692.4238">User</text><ellipse cx="22.7793" cy="1704" fill="#E2E2F0" rx="8" ry="8" style="stroke:#181818;stroke-width:0.5;"/><path d="M22.7793,1712 L22.7793,1739 M9.7793,1720 L35.7793,1720 M22.7793,1739 L9.7793,1754 M22.7793,1739 L35.7793,1754 " fill="none" style="stroke:#181818;stroke-width:0.5;"/><rect fill="#E2E2F0" height="31.6094" rx="2.5" ry="2.5" style="stroke:#181818;stroke-width:0.5;" width="115.9512" x="235.9561" y="106.2188"/><text fill="#000000" font-family="sans-serif" font-size="14" lengthAdjust="spacing" textLength="101.9512" x="242.9561" y="127.752">NotificationPage</text><rect fill="#E2E2F0" height="31.6094" rx="2.5" ry="2.5" style="stroke:#181818;stroke-width:0.5;" width="115.9512" x="235.9561" y="1677.8906"/><text fill="#000000" font-family="sans-serif" font-size="14" lengthAdjust="spacing" textLength="101.9512" x="242.9561" y="1699.4238">NotificationPage</text><rect fill="#E2E2F0" height="31.6094" rx="2.5" ry="2.5" style="stroke:#181818;stroke-width:0.5;" width="143.9443" x="607.103" y="106.2188"/><text fill="#000000" font-family="sans-serif" font-size="14" lengthAdjust="spacing" textLength="129.9443" x="614.103" y="127.752">NotificationController</text><rect fill="#E2E2F0" height="31.6094" rx="2.5" ry="2.5" style="stroke:#181818;stroke-width:0.5;" width="143.9443" x="607.103" y="1677.8906"/><text fill="#000000" font-family="sans-serif" font-size="14" lengthAdjust="spacing" textLength="129.9443" x="614.103" y="1699.4238">NotificationController</text><rect fill="#E2E2F0" height="31.6094" rx="2.5" ry="2.5" style="stroke:#181818;stroke-width:0.5;" width="83.2549" x="1002.2915" y="106.2188"/><text fill="#000000" font-family="sans-serif" font-size="14" lengthAdjust="spacing" textLength="69.2549" x="1009.2915" y="127.752">Notification</text><rect fill="#E2E2F0" height="31.6094" rx="2.5" ry="2.5" style="stroke:#181818;stroke-width:0.5;" width="83.2549" x="1002.2915" y="1677.8906"/><text fill="#000000" font-family="sans-serif" font-size="14" lengthAdjust="spacing" textLength="69.2549" x="1009.2915" y="1699.4238">Notification</text><polygon fill="#181818" points="281.9316,167.1797,291.9316,171.1797,281.9316,175.1797,285.9316,171.1797" style="stroke:#181818;stroke-width:1.0;"/><line style="stroke:#181818;stroke-width:1.0;" x1="22.7793" x2="287.9316" y1="171.1797" y2="171.1797"/><text fill="#000000" font-family="sans-serif" font-size="13" lengthAdjust="spacing" textLength="120.6689" x="98.021" y="166.3232">Mengakses notifikasi</text><polygon fill="#181818" points="667.0752,197.5313,677.0752,201.5313,667.0752,205.5313,671.0752,201.5313" style="stroke:#181818;stroke-width:1.0;"/><line style="stroke:#181818;stroke-width:1.0;" x1="293.9316" x2="673.0752" y1="201.5313" y2="201.5313"/><text fill="#000000" font-family="sans-serif" font-size="13" lengthAdjust="spacing" textLength="44.7891" x="464.1089" y="196.6748">mount()</text><line style="stroke:#181818;stroke-width:1.0;" x1="679.0752" x2="721.0752" y1="231.8828" y2="231.8828"/><line style="stroke:#181818;stroke-width:1.0;" x1="721.0752" x2="721.0752" y1="231.8828" y2="244.8828"/><line style="stroke:#181818;stroke-width:1.0;" x1="680.0752" x2="721.0752" y1="244.8828" y2="244.8828"/><polygon fill="#181818" points="690.0752,240.8828,680.0752,244.8828,690.0752,248.8828,686.0752,244.8828" style="stroke:#181818;stroke-width:1.0;"/><text fill="#000000" font-family="sans-serif" font-size="13" lengthAdjust="spacing" textLength="79.8281" x="686.0752" y="227.0264">auth()-&gt;user()</text><polygon fill="#181818" points="1031.9189,271.2344,1041.9189,275.2344,1031.9189,279.2344,1035.9189,275.2344" style="stroke:#181818;stroke-width:1.0;"/><line style="stroke:#181818;stroke-width:1.0;" x1="679.0752" x2="1037.9189" y1="275.2344" y2="275.2344"/><text fill="#000000" font-family="sans-serif" font-size="13" lengthAdjust="spacing" textLength="193.1782" x="764.908" y="270.3779">where('user_id', user_id)-&gt;latest()</text><polygon fill="#181818" points="304.9316,301.5859,294.9316,305.5859,304.9316,309.5859,300.9316,305.5859" style="stroke:#181818;stroke-width:1.0;"/><line style="stroke:#181818;stroke-width:1.0;stroke-dasharray:2.0,2.0;" x1="298.9316" x2="678.0752" y1="305.5859" y2="305.5859"/><text fill="#000000" font-family="sans-serif" font-size="13" lengthAdjust="spacing" textLength="119.9326" x="426.5371" y="300.7295">displayNotifications()</text><polygon fill="#181818" points="281.9316,331.9375,291.9316,335.9375,281.9316,339.9375,285.9316,335.9375" style="stroke:#181818;stroke-width:1.0;"/><line style="stroke:#181818;stroke-width:1.0;" x1="22.7793" x2="287.9316" y1="335.9375" y2="335.9375"/><text fill="#000000" font-family="sans-serif" font-size="13" lengthAdjust="spacing" textLength="164.0171" x="76.3469" y="331.0811">Filter notifikasi belum dibaca</text><polygon fill="#181818" points="667.0752,362.2891,677.0752,366.2891,667.0752,370.2891,671.0752,366.2891" style="stroke:#181818;stroke-width:1.0;"/><line style="stroke:#181818;stroke-width:1.0;" x1="293.9316" x2="673.0752" y1="366.2891" y2="366.2891"/><text fill="#000000" font-family="sans-serif" font-size="13" lengthAdjust="spacing" textLength="75.8545" x="448.5762" y="361.4326">filterUnread()</text><polygon fill="#181818" points="1031.9189,392.6406,1041.9189,396.6406,1031.9189,400.6406,1035.9189,396.6406" style="stroke:#181818;stroke-width:1.0;"/><line style="stroke:#181818;stroke-width:1.0;" x1="679.0752" x2="1037.9189" y1="396.6406" y2="396.6406"/><text fill="#000000" font-family="sans-serif" font-size="13" lengthAdjust="spacing" textLength="325.6792" x="698.6575" y="391.7842">where('user_id', user_id)-&gt;where('read_at', null)-&gt;latest()</text><polygon fill="#181818" points="304.9316,422.9922,294.9316,426.9922,304.9316,430.9922,300.9316,426.9922" style="stroke:#181818;stroke-width:1.0;"/><line style="stroke:#181818;stroke-width:1.0;stroke-dasharray:2.0,2.0;" x1="298.9316" x2="678.0752" y1="426.9922" y2="426.9922"/><text fill="#000000" font-family="sans-serif" font-size="13" lengthAdjust="spacing" textLength="162.5698" x="405.2185" y="422.1357">displayUnreadNotifications()</text><polygon fill="#181818" points="281.9316,453.3438,291.9316,457.3438,281.9316,461.3438,285.9316,457.3438" style="stroke:#181818;stroke-width:1.0;"/><line style="stroke:#181818;stroke-width:1.0;" x1="22.7793" x2="287.9316" y1="457.3438" y2="457.3438"/><text fill="#000000" font-family="sans-serif" font-size="13" lengthAdjust="spacing" textLength="164.0298" x="76.3406" y="452.4873">Filter notifikasi sudah dibaca</text><polygon fill="#181818" points="667.0752,483.6953,677.0752,487.6953,667.0752,491.6953,671.0752,487.6953" style="stroke:#181818;stroke-width:1.0;"/><line style="stroke:#181818;stroke-width:1.0;" x1="293.9316" x2="673.0752" y1="487.6953" y2="487.6953"/><text fill="#000000" font-family="sans-serif" font-size="13" lengthAdjust="spacing" textLength="64.2954" x="454.3557" y="482.8389">filterRead()</text><polygon fill="#181818" points="1031.9189,514.0469,1041.9189,518.0469,1031.9189,522.0469,1035.9189,518.0469" style="stroke:#181818;stroke-width:1.0;"/><line style="stroke:#181818;stroke-width:1.0;" x1="679.0752" x2="1037.9189" y1="518.0469" y2="518.0469"/><text fill="#000000" font-family="sans-serif" font-size="13" lengthAdjust="spacing" textLength="340.8438" x="691.0752" y="513.1904">where('user_id', user_id)-&gt;whereNotNull('read_at')-&gt;latest()</text><polygon fill="#181818" points="304.9316,544.3984,294.9316,548.3984,304.9316,552.3984,300.9316,548.3984" style="stroke:#181818;stroke-width:1.0;"/><line style="stroke:#181818;stroke-width:1.0;stroke-dasharray:2.0,2.0;" x1="298.9316" x2="678.0752" y1="548.3984" y2="548.3984"/><text fill="#000000" font-family="sans-serif" font-size="13" lengthAdjust="spacing" textLength="151.0107" x="410.998" y="543.542">displayReadNotifications()</text><polygon fill="#181818" points="281.9316,574.75,291.9316,578.75,281.9316,582.75,285.9316,578.75" style="stroke:#181818;stroke-width:1.0;"/><line style="stroke:#181818;stroke-width:1.0;" x1="22.7793" x2="287.9316" y1="578.75" y2="578.75"/><text fill="#000000" font-family="sans-serif" font-size="13" lengthAdjust="spacing" textLength="162.5698" x="77.0706" y="573.8936">Filter berdasarkan tipe(type)</text><polygon fill="#181818" points="667.0752,605.1016,677.0752,609.1016,667.0752,613.1016,671.0752,609.1016" style="stroke:#181818;stroke-width:1.0;"/><line style="stroke:#181818;stroke-width:1.0;" x1="293.9316" x2="673.0752" y1="609.1016" y2="609.1016"/><text fill="#000000" font-family="sans-serif" font-size="13" lengthAdjust="spacing" textLength="101.8608" x="435.573" y="604.2451">filterByType(type)</text><polygon fill="#181818" points="1031.9189,635.4531,1041.9189,639.4531,1031.9189,643.4531,1035.9189,639.4531" style="stroke:#181818;stroke-width:1.0;"/><line style="stroke:#181818;stroke-width:1.0;" x1="679.0752" x2="1037.9189" y1="639.4531" y2="639.4531"/><text fill="#000000" font-family="sans-serif" font-size="13" lengthAdjust="spacing" textLength="310.4956" x="706.2493" y="634.5967">where('user_id', user_id)-&gt;where('type', type)-&gt;latest()</text><polygon fill="#181818" points="304.9316,665.8047,294.9316,669.8047,304.9316,673.8047,300.9316,669.8047" style="stroke:#181818;stroke-width:1.0;"/><line style="stroke:#181818;stroke-width:1.0;stroke-dasharray:2.0,2.0;" x1="298.9316" x2="678.0752" y1="669.8047" y2="669.8047"/><text fill="#000000" font-family="sans-serif" font-size="13" lengthAdjust="spacing" textLength="163.2808" x="404.863" y="664.9482">displayFilteredNotifications()</text><polygon fill="#181818" points="281.9316,696.1563,291.9316,700.1563,281.9316,704.1563,285.9316,700.1563" style="stroke:#181818;stroke-width:1.0;"/><line style="stroke:#181818;stroke-width:1.0;" x1="22.7793" x2="287.9316" y1="700.1563" y2="700.1563"/><text fill="#000000" font-family="sans-serif" font-size="13" lengthAdjust="spacing" textLength="135.8462" x="90.4324" y="695.2998">Lihat detail notifikasi(id)</text><polygon fill="#181818" points="667.0752,726.5078,677.0752,730.5078,667.0752,734.5078,671.0752,730.5078" style="stroke:#181818;stroke-width:1.0;"/><line style="stroke:#181818;stroke-width:1.0;" x1="293.9316" x2="673.0752" y1="730.5078" y2="730.5078"/><text fill="#000000" font-family="sans-serif" font-size="13" lengthAdjust="spacing" textLength="49.1245" x="461.9412" y="725.6514">show(id)</text><polygon fill="#181818" points="1031.9189,756.8594,1041.9189,760.8594,1031.9189,764.8594,1035.9189,760.8594" style="stroke:#181818;stroke-width:1.0;"/><line style="stroke:#181818;stroke-width:1.0;" x1="679.0752" x2="1037.9189" y1="760.8594" y2="760.8594"/><text fill="#000000" font-family="sans-serif" font-size="13" lengthAdjust="spacing" textLength="39.7363" x="841.6289" y="756.0029">find(id)</text><path d="M597.103,775.8594 L657.2739,775.8594 L657.2739,784.2109 L647.2739,794.2109 L597.103,794.2109 L597.103,775.8594 " fill="#EEEEEE" style="stroke:#000000;stroke-width:1.5;"/><rect fill="none" height="48.7031" style="stroke:#000000;stroke-width:1.5;" width="498.4434" x="597.103" y="775.8594"/><text fill="#000000" font-family="sans-serif" font-size="13" font-weight="bold" lengthAdjust="spacing" textLength="15.1709" x="612.103" y="790.3545">alt</text><text fill="#000000" font-family="sans-serif" font-size="11" font-weight="bold" lengthAdjust="spacing" textLength="132.6392" x="672.2739" y="789.2783">[Notifikasi Belum Dibaca]</text><polygon fill="#181818" points="1031.9189,812.5625,1041.9189,816.5625,1031.9189,820.5625,1035.9189,816.5625" style="stroke:#181818;stroke-width:1.0;"/><line style="stroke:#181818;stroke-width:1.0;" x1="679.0752" x2="1037.9189" y1="816.5625" y2="816.5625"/><text fill="#000000" font-family="sans-serif" font-size="13" lengthAdjust="spacing" textLength="132.6089" x="795.1926" y="811.7061">update(read_at=now())</text><polygon fill="#181818" points="304.9316,849.9141,294.9316,853.9141,304.9316,857.9141,300.9316,853.9141" style="stroke:#181818;stroke-width:1.0;"/><line style="stroke:#181818;stroke-width:1.0;stroke-dasharray:2.0,2.0;" x1="298.9316" x2="678.0752" y1="853.9141" y2="853.9141"/><text fill="#000000" font-family="sans-serif" font-size="13" lengthAdjust="spacing" textLength="136.5508" x="418.228" y="849.0576">showNotificationDetail()</text><polygon fill="#181818" points="281.9316,880.2656,291.9316,884.2656,281.9316,888.2656,285.9316,884.2656" style="stroke:#181818;stroke-width:1.0;"/><line style="stroke:#181818;stroke-width:1.0;" x1="22.7793" x2="287.9316" y1="884.2656" y2="884.2656"/><text fill="#000000" font-family="sans-serif" font-size="13" lengthAdjust="spacing" textLength="188.627" x="64.042" y="879.4092">Tandai sebagai sudah dibaca(id)</text><polygon fill="#181818" points="667.0752,910.6172,677.0752,914.6172,667.0752,918.6172,671.0752,914.6172" style="stroke:#181818;stroke-width:1.0;"/><line style="stroke:#181818;stroke-width:1.0;" x1="293.9316" x2="673.0752" y1="914.6172" y2="914.6172"/><text fill="#000000" font-family="sans-serif" font-size="13" lengthAdjust="spacing" textLength="93.9136" x="439.5466" y="909.7607">markAsRead(id)</text><polygon fill="#181818" points="1031.9189,940.9688,1041.9189,944.9688,1031.9189,948.9688,1035.9189,944.9688" style="stroke:#181818;stroke-width:1.0;"/><line style="stroke:#181818;stroke-width:1.0;" x1="679.0752" x2="1037.9189" y1="944.9688" y2="944.9688"/><text fill="#000000" font-family="sans-serif" font-size="13" lengthAdjust="spacing" textLength="39.7363" x="841.6289" y="940.1123">find(id)</text><polygon fill="#181818" points="1031.9189,971.3203,1041.9189,975.3203,1031.9189,979.3203,1035.9189,975.3203" style="stroke:#181818;stroke-width:1.0;"/><line style="stroke:#181818;stroke-width:1.0;" x1="679.0752" x2="1037.9189" y1="975.3203" y2="975.3203"/><text fill="#000000" font-family="sans-serif" font-size="13" lengthAdjust="spacing" textLength="132.6089" x="795.1926" y="970.4639">update(read_at=now())</text><polygon fill="#181818" points="304.9316,1001.6719,294.9316,1005.6719,304.9316,1009.6719,300.9316,1005.6719" style="stroke:#181818;stroke-width:1.0;"/><line style="stroke:#181818;stroke-width:1.0;stroke-dasharray:2.0,2.0;" x1="298.9316" x2="678.0752" y1="1005.6719" y2="1005.6719"/><text fill="#000000" font-family="sans-serif" font-size="13" lengthAdjust="spacing" textLength="280.2046" x="346.4011" y="1000.8154">showSuccess("Notifikasi ditandai sudah dibaca")</text><polygon fill="#181818" points="281.9316,1032.0234,291.9316,1036.0234,281.9316,1040.0234,285.9316,1036.0234" style="stroke:#181818;stroke-width:1.0;"/><line style="stroke:#181818;stroke-width:1.0;" x1="22.7793" x2="287.9316" y1="1036.0234" y2="1036.0234"/><text fill="#000000" font-family="sans-serif" font-size="13" lengthAdjust="spacing" textLength="212.4814" x="52.1147" y="1031.167">Tandai semua sebagai sudah dibaca</text><polygon fill="#181818" points="667.0752,1062.375,677.0752,1066.375,667.0752,1070.375,671.0752,1066.375" style="stroke:#181818;stroke-width:1.0;"/><line style="stroke:#181818;stroke-width:1.0;" x1="293.9316" x2="673.0752" y1="1066.375" y2="1066.375"/><text fill="#000000" font-family="sans-serif" font-size="13" lengthAdjust="spacing" textLength="98.2427" x="437.3821" y="1061.5186">markAllAsRead()</text><polygon fill="#181818" points="1031.9189,1092.7266,1041.9189,1096.7266,1031.9189,1100.7266,1035.9189,1096.7266" style="stroke:#181818;stroke-width:1.0;"/><line style="stroke:#181818;stroke-width:1.0;" x1="679.0752" x2="1037.9189" y1="1096.7266" y2="1096.7266"/><text fill="#000000" font-family="sans-serif" font-size="13" lengthAdjust="spacing" textLength="274.0283" x="724.4829" y="1091.8701">where('user_id', user_id)-&gt;where('read_at', null)</text><polygon fill="#181818" points="1031.9189,1123.0781,1041.9189,1127.0781,1031.9189,1131.0781,1035.9189,1127.0781" style="stroke:#181818;stroke-width:1.0;"/><line style="stroke:#181818;stroke-width:1.0;" x1="679.0752" x2="1037.9189" y1="1127.0781" y2="1127.0781"/><text fill="#000000" font-family="sans-serif" font-size="13" lengthAdjust="spacing" textLength="132.6089" x="795.1926" y="1122.2217">update(read_at=now())</text><polygon fill="#181818" points="304.9316,1153.4297,294.9316,1157.4297,304.9316,1161.4297,300.9316,1157.4297" style="stroke:#181818;stroke-width:1.0;"/><line style="stroke:#181818;stroke-width:1.0;stroke-dasharray:2.0,2.0;" x1="298.9316" x2="678.0752" y1="1157.4297" y2="1157.4297"/><text fill="#000000" font-family="sans-serif" font-size="13" lengthAdjust="spacing" textLength="322.8481" x="325.0793" y="1152.5732">showSuccess("Semua notifikasi ditandai sudah dibaca")</text><polygon fill="#181818" points="281.9316,1183.7813,291.9316,1187.7813,281.9316,1191.7813,285.9316,1187.7813" style="stroke:#181818;stroke-width:1.0;"/><line style="stroke:#181818;stroke-width:1.0;" x1="22.7793" x2="287.9316" y1="1187.7813" y2="1187.7813"/><text fill="#000000" font-family="sans-serif" font-size="13" lengthAdjust="spacing" textLength="110.5444" x="103.0833" y="1182.9248">Hapus notifikasi(id)</text><polygon fill="#181818" points="667.0752,1214.1328,677.0752,1218.1328,667.0752,1222.1328,671.0752,1218.1328" style="stroke:#181818;stroke-width:1.0;"/><line style="stroke:#181818;stroke-width:1.0;" x1="293.9316" x2="673.0752" y1="1218.1328" y2="1218.1328"/><text fill="#000000" font-family="sans-serif" font-size="13" lengthAdjust="spacing" textLength="61.4072" x="455.7998" y="1213.2764">destroy(id)</text><polygon fill="#181818" points="1031.9189,1244.4844,1041.9189,1248.4844,1031.9189,1252.4844,1035.9189,1248.4844" style="stroke:#181818;stroke-width:1.0;"/><line style="stroke:#181818;stroke-width:1.0;" x1="679.0752" x2="1037.9189" y1="1248.4844" y2="1248.4844"/><text fill="#000000" font-family="sans-serif" font-size="13" lengthAdjust="spacing" textLength="39.7363" x="841.6289" y="1243.6279">find(id)</text><path d="M225.9561,1263.4844 L286.127,1263.4844 L286.127,1271.8359 L276.127,1281.8359 L225.9561,1281.8359 L225.9561,1263.4844 " fill="#EEEEEE" style="stroke:#000000;stroke-width:1.5;"/><rect fill="none" height="125.2422" style="stroke:#000000;stroke-width:1.5;" width="869.5903" x="225.9561" y="1263.4844"/><text fill="#000000" font-family="sans-serif" font-size="13" font-weight="bold" lengthAdjust="spacing" textLength="15.1709" x="240.9561" y="1277.9795">alt</text><text fill="#000000" font-family="sans-serif" font-size="11" font-weight="bold" lengthAdjust="spacing" textLength="161.9922" x="301.127" y="1276.9033">[User adalah pemilik notifikasi]</text><polygon fill="#181818" points="1031.9189,1300.1875,1041.9189,1304.1875,1031.9189,1308.1875,1035.9189,1304.1875" style="stroke:#181818;stroke-width:1.0;"/><line style="stroke:#181818;stroke-width:1.0;" x1="679.0752" x2="1037.9189" y1="1304.1875" y2="1304.1875"/><text fill="#000000" font-family="sans-serif" font-size="13" lengthAdjust="spacing" textLength="44.0781" x="839.458" y="1299.3311">delete()</text><polygon fill="#181818" points="304.9316,1330.5391,294.9316,1334.5391,304.9316,1338.5391,300.9316,1334.5391" style="stroke:#181818;stroke-width:1.0;"/><line style="stroke:#181818;stroke-width:1.0;stroke-dasharray:2.0,2.0;" x1="298.9316" x2="678.0752" y1="1334.5391" y2="1334.5391"/><text fill="#000000" font-family="sans-serif" font-size="13" lengthAdjust="spacing" textLength="248.3901" x="362.3083" y="1329.6826">showSuccess("Notifikasi berhasil dihapus")</text><line style="stroke:#000000;stroke-width:1.0;stroke-dasharray:2.0,2.0;" x1="225.9561" x2="1095.5464" y1="1343.5391" y2="1343.5391"/><text fill="#000000" font-family="sans-serif" font-size="11" font-weight="bold" lengthAdjust="spacing" textLength="108.1953" x="230.9561" y="1354.958">[User bukan pemilik]</text><polygon fill="#181818" points="304.9316,1376.7266,294.9316,1380.7266,304.9316,1384.7266,300.9316,1380.7266" style="stroke:#181818;stroke-width:1.0;"/><line style="stroke:#181818;stroke-width:1.0;stroke-dasharray:2.0,2.0;" x1="298.9316" x2="678.0752" y1="1380.7266" y2="1380.7266"/><text fill="#000000" font-family="sans-serif" font-size="13" lengthAdjust="spacing" textLength="171.7866" x="400.6101" y="1375.8701">showError("Tidak ada akses")</text><polygon fill="#181818" points="281.9316,1414.0781,291.9316,1418.0781,281.9316,1422.0781,285.9316,1418.0781" style="stroke:#181818;stroke-width:1.0;"/><line style="stroke:#181818;stroke-width:1.0;" x1="22.7793" x2="287.9316" y1="1418.0781" y2="1418.0781"/><text fill="#000000" font-family="sans-serif" font-size="13" lengthAdjust="spacing" textLength="247.1523" x="34.7793" y="1413.2217">Hapus semua notifikasi yang sudah dibaca</text><polygon fill="#181818" points="667.0752,1444.4297,677.0752,1448.4297,667.0752,1452.4297,671.0752,1448.4297" style="stroke:#181818;stroke-width:1.0;"/><line style="stroke:#181818;stroke-width:1.0;" x1="293.9316" x2="673.0752" y1="1448.4297" y2="1448.4297"/><text fill="#000000" font-family="sans-serif" font-size="13" lengthAdjust="spacing" textLength="89.6035" x="441.7017" y="1443.5732">deleteAllRead()</text><polygon fill="#181818" points="1031.9189,1474.7813,1041.9189,1478.7813,1031.9189,1482.7813,1035.9189,1478.7813" style="stroke:#181818;stroke-width:1.0;"/><line style="stroke:#181818;stroke-width:1.0;" x1="679.0752" x2="1037.9189" y1="1478.7813" y2="1478.7813"/><text fill="#000000" font-family="sans-serif" font-size="13" lengthAdjust="spacing" textLength="289.1929" x="716.9006" y="1473.9248">where('user_id', user_id)-&gt;whereNotNull('read_at')</text><polygon fill="#181818" points="1031.9189,1505.1328,1041.9189,1509.1328,1031.9189,1513.1328,1035.9189,1509.1328" style="stroke:#181818;stroke-width:1.0;"/><line style="stroke:#181818;stroke-width:1.0;" x1="679.0752" x2="1037.9189" y1="1509.1328" y2="1509.1328"/><text fill="#000000" font-family="sans-serif" font-size="13" lengthAdjust="spacing" textLength="44.0781" x="839.458" y="1504.2764">delete()</text><polygon fill="#181818" points="304.9316,1535.4844,294.9316,1539.4844,304.9316,1543.4844,300.9316,1539.4844" style="stroke:#181818;stroke-width:1.0;"/><line style="stroke:#181818;stroke-width:1.0;stroke-dasharray:2.0,2.0;" x1="298.9316" x2="678.0752" y1="1539.4844" y2="1539.4844"/><text fill="#000000" font-family="sans-serif" font-size="13" lengthAdjust="spacing" textLength="361.1436" x="305.9316" y="1534.6279">showSuccess("Notifikasi yang sudah dibaca berhasil dihapus")</text><polygon fill="#181818" points="281.9316,1565.8359,291.9316,1569.8359,281.9316,1573.8359,285.9316,1569.8359" style="stroke:#181818;stroke-width:1.0;"/><line style="stroke:#181818;stroke-width:1.0;" x1="22.7793" x2="287.9316" y1="1569.8359" y2="1569.8359"/><text fill="#000000" font-family="sans-serif" font-size="13" lengthAdjust="spacing" textLength="205.2261" x="55.7424" y="1564.9795">Lihat jumlah notifikasi belum dibaca</text><polygon fill="#181818" points="667.0752,1596.1875,677.0752,1600.1875,667.0752,1604.1875,671.0752,1600.1875" style="stroke:#181818;stroke-width:1.0;"/><line style="stroke:#181818;stroke-width:1.0;" x1="293.9316" x2="673.0752" y1="1600.1875" y2="1600.1875"/><text fill="#000000" font-family="sans-serif" font-size="13" lengthAdjust="spacing" textLength="104.0571" x="434.4749" y="1595.3311">getUnreadCount()</text><polygon fill="#181818" points="1031.9189,1626.5391,1041.9189,1630.5391,1031.9189,1634.5391,1035.9189,1630.5391" style="stroke:#181818;stroke-width:1.0;"/><line style="stroke:#181818;stroke-width:1.0;" x1="679.0752" x2="1037.9189" y1="1630.5391" y2="1630.5391"/><text fill="#000000" font-family="sans-serif" font-size="13" lengthAdjust="spacing" textLength="326.4092" x="698.2925" y="1625.6826">where('user_id', user_id)-&gt;where('read_at', null)-&gt;count()</text><polygon fill="#181818" points="304.9316,1656.8906,294.9316,1660.8906,304.9316,1664.8906,300.9316,1660.8906" style="stroke:#181818;stroke-width:1.0;"/><line style="stroke:#181818;stroke-width:1.0;stroke-dasharray:2.0,2.0;" x1="298.9316" x2="678.0752" y1="1660.8906" y2="1660.8906"/><text fill="#000000" font-family="sans-serif" font-size="13" lengthAdjust="spacing" textLength="126.4517" x="423.2776" y="1656.0342">displayUnreadCount()</text><!--SRC=[hPNRRjim38RlzHI2Rse3wmiCM84ssR2B9IYQz6v0mLYChLcMFHrG-Er77x8eYPt3kjma4Id-7obAj8NKDHWekSNV7dMA2xGMCdnKCjCyHUtGCEQaKyXNWmkVIyXepq-zG2LpS5o0vWlK6QfA0LzMJcvb0LOo1gch38zUBPg8W-Nj3qQAJgQo1krur7kdu6IbdqcvSri-JplDAkrCfTGGSJcRTkqTreorilp-WUBopnqf51OjrtjIihJs6TdBociN9up-x9R0kpnExXyynTbRrcHvpz5WVDSQtgIu-yI7N-IimA7T1Tg92sbh1Kr8QSdbaF2RL5Jt08zlKFcIDcyWXP1rstc-QeCWhWORJEsUDt1aqbwf2y2znAtOrWl89x5VReOc_IMnxjalKBzSoxn18y22AQYJdQmnTasDoIdoKxDkzjPRgjrkeVLkvtde7WalWF_eRnuwa2eeUKoQ8RRDg_T-RG-xbLfqQmoK2wuhV-gwRDuV5wTFiCdNWfZZeV1VD8LD4ePQi8CSMhqGVDu1dj2lGGkW_i0DP73O9ySPb7GgZxRhbQayBc8U4wvycj935qT1yaAw0Ig0YIR1Im-Z-2VeIWtq7xkU7qXorS7gMrFz3hMtPrfBK0URgZdVNLr44A18fyPIAbc4p-vHambKI8abVzSl7HhTsvo-5UMGjxYK12gBlUp6jzTvK1qD-TMOoiJHMWeeMahUpOLewEkHQjZZKZQWiydpxzEX3lWVBnqRgzCrDJf17AlQsEFoovVjiLqnXZ9q_O2O7SxEVnn4QH1bT0xjPFu0]--></g></svg>