<svg xmlns="http://www.w3.org/2000/svg" xmlns:xlink="http://www.w3.org/1999/xlink" contentStyleType="text/css" height="1361px" preserveAspectRatio="none" style="width:1329px;height:1361px;background:#FFFFFF;" version="1.1" viewBox="0 0 1329 1361" width="1329px" zoomAndPan="magnify"><title>Sequence Diagram</title><defs/><g><text fill="#000000" font-family="sans-serif" font-size="14" font-weight="bold" lengthAdjust="spacing" textLength="126.0479" x="602.939" y="29.5332">Sequence Diagram</text><text fill="#000000" font-family="sans-serif" font-size="14" font-weight="bold" lengthAdjust="spacing" textLength="135.3926" x="598.2666" y="47.1426">Transaksi Penjualan</text><rect fill="none" height="180.0781" style="stroke:#000000;stroke-width:1.5;" width="202.4707" x="693.1382" y="368.2891"/><rect fill="none" height="213.4609" style="stroke:#000000;stroke-width:1.5;" width="1024.3257" x="10" y="592.7188"/><rect fill="none" height="198.9453" style="stroke:#000000;stroke-width:1.5;" width="1074.7856" x="248.1401" y="971.9375"/><line style="stroke:#181818;stroke-width:0.5;stroke-dasharray:5.0,5.0;" x1="38" x2="38" y1="138.8281" y2="1278.9375"/><line style="stroke:#181818;stroke-width:0.5;stroke-dasharray:5.0,5.0;" x1="317.1401" x2="317.1401" y1="138.8281" y2="1278.9375"/><line style="stroke:#181818;stroke-width:0.5;stroke-dasharray:5.0,5.0;" x1="540.5679" x2="540.5679" y1="138.8281" y2="1278.9375"/><line style="stroke:#181818;stroke-width:0.5;stroke-dasharray:5.0,5.0;" x1="746.1382" x2="746.1382" y1="138.8281" y2="1278.9375"/><line style="stroke:#181818;stroke-width:0.5;stroke-dasharray:5.0,5.0;" x1="890.1401" x2="890.1401" y1="138.8281" y2="1278.9375"/><line style="stroke:#181818;stroke-width:0.5;stroke-dasharray:5.0,5.0;" x1="993.0776" x2="993.0776" y1="138.8281" y2="1278.9375"/><line style="stroke:#181818;stroke-width:0.5;stroke-dasharray:5.0,5.0;" x1="1071.3257" x2="1071.3257" y1="138.8281" y2="1278.9375"/><line style="stroke:#181818;stroke-width:0.5;stroke-dasharray:5.0,5.0;" x1="1153.0083" x2="1153.0083" y1="138.8281" y2="1278.9375"/><text fill="#000000" font-family="sans-serif" font-size="14" lengthAdjust="spacing" textLength="31.8965" x="20" y="135.752">Kasir</text><ellipse cx="38.9482" cy="69.7188" fill="#E2E2F0" rx="8" ry="8" style="stroke:#181818;stroke-width:0.5;"/><path d="M38.9482,77.7188 L38.9482,104.7188 M25.9482,85.7188 L51.9482,85.7188 M38.9482,104.7188 L25.9482,119.7188 M38.9482,104.7188 L51.9482,119.7188 " fill="none" style="stroke:#181818;stroke-width:0.5;"/><text fill="#000000" font-family="sans-serif" font-size="14" lengthAdjust="spacing" textLength="31.8965" x="20" y="1292.4707">Kasir</text><ellipse cx="38.9482" cy="1304.0469" fill="#E2E2F0" rx="8" ry="8" style="stroke:#181818;stroke-width:0.5;"/><path d="M38.9482,1312.0469 L38.9482,1339.0469 M25.9482,1320.0469 L51.9482,1320.0469 M38.9482,1339.0469 L25.9482,1354.0469 M38.9482,1339.0469 L51.9482,1354.0469 " fill="none" style="stroke:#181818;stroke-width:0.5;"/><rect fill="#E2E2F0" height="31.6094" rx="2.5" ry="2.5" style="stroke:#181818;stroke-width:0.5;" width="119.8408" x="258.1401" y="106.2188"/><text fill="#000000" font-family="sans-serif" font-size="14" lengthAdjust="spacing" textLength="105.8408" x="265.1401" y="127.752">TransactionPage</text><rect fill="#E2E2F0" height="31.6094" rx="2.5" ry="2.5" style="stroke:#181818;stroke-width:0.5;" width="119.8408" x="258.1401" y="1277.9375"/><text fill="#000000" font-family="sans-serif" font-size="14" lengthAdjust="spacing" textLength="105.8408" x="265.1401" y="1299.4707">TransactionPage</text><rect fill="#E2E2F0" height="31.6094" rx="2.5" ry="2.5" style="stroke:#181818;stroke-width:0.5;" width="147.834" x="467.5679" y="106.2188"/><text fill="#000000" font-family="sans-serif" font-size="14" lengthAdjust="spacing" textLength="133.834" x="474.5679" y="127.752">TransactionController</text><rect fill="#E2E2F0" height="31.6094" rx="2.5" ry="2.5" style="stroke:#181818;stroke-width:0.5;" width="147.834" x="467.5679" y="1277.9375"/><text fill="#000000" font-family="sans-serif" font-size="14" lengthAdjust="spacing" textLength="133.834" x="474.5679" y="1299.4707">TransactionController</text><rect fill="#E2E2F0" height="31.6094" rx="2.5" ry="2.5" style="stroke:#181818;stroke-width:0.5;" width="87.1445" x="703.1382" y="106.2188"/><text fill="#000000" font-family="sans-serif" font-size="14" lengthAdjust="spacing" textLength="73.1445" x="710.1382" y="127.752">Transaction</text><rect fill="#E2E2F0" height="31.6094" rx="2.5" ry="2.5" style="stroke:#181818;stroke-width:0.5;" width="87.1445" x="703.1382" y="1277.9375"/><text fill="#000000" font-family="sans-serif" font-size="14" lengthAdjust="spacing" textLength="73.1445" x="710.1382" y="1299.4707">Transaction</text><rect fill="#E2E2F0" height="31.6094" rx="2.5" ry="2.5" style="stroke:#181818;stroke-width:0.5;" width="122.9375" x="829.1401" y="106.2188"/><text fill="#000000" font-family="sans-serif" font-size="14" lengthAdjust="spacing" textLength="108.9375" x="836.1401" y="127.752">TransactionDetail</text><rect fill="#E2E2F0" height="31.6094" rx="2.5" ry="2.5" style="stroke:#181818;stroke-width:0.5;" width="122.9375" x="829.1401" y="1277.9375"/><text fill="#000000" font-family="sans-serif" font-size="14" lengthAdjust="spacing" textLength="108.9375" x="836.1401" y="1299.4707">TransactionDetail</text><rect fill="#E2E2F0" height="31.6094" rx="2.5" ry="2.5" style="stroke:#181818;stroke-width:0.5;" width="62.248" x="962.0776" y="106.2188"/><text fill="#000000" font-family="sans-serif" font-size="14" lengthAdjust="spacing" textLength="48.248" x="969.0776" y="127.752">Product</text><rect fill="#E2E2F0" height="31.6094" rx="2.5" ry="2.5" style="stroke:#181818;stroke-width:0.5;" width="62.248" x="962.0776" y="1277.9375"/><text fill="#000000" font-family="sans-serif" font-size="14" lengthAdjust="spacing" textLength="48.248" x="969.0776" y="1299.4707">Product</text><rect fill="#E2E2F0" height="31.6094" rx="2.5" ry="2.5" style="stroke:#181818;stroke-width:0.5;" width="74.6826" x="1034.3257" y="106.2188"/><text fill="#000000" font-family="sans-serif" font-size="14" lengthAdjust="spacing" textLength="60.6826" x="1041.3257" y="127.752">Customer</text><rect fill="#E2E2F0" height="31.6094" rx="2.5" ry="2.5" style="stroke:#181818;stroke-width:0.5;" width="74.6826" x="1034.3257" y="1277.9375"/><text fill="#000000" font-family="sans-serif" font-size="14" lengthAdjust="spacing" textLength="60.6826" x="1041.3257" y="1299.4707">Customer</text><rect fill="#E2E2F0" height="31.6094" rx="2.5" ry="2.5" style="stroke:#181818;stroke-width:0.5;" width="69.248" x="1119.0083" y="106.2188"/><text fill="#000000" font-family="sans-serif" font-size="14" lengthAdjust="spacing" textLength="55.248" x="1126.0083" y="127.752">Payment</text><rect fill="#E2E2F0" height="31.6094" rx="2.5" ry="2.5" style="stroke:#181818;stroke-width:0.5;" width="69.248" x="1119.0083" y="1277.9375"/><text fill="#000000" font-family="sans-serif" font-size="14" lengthAdjust="spacing" textLength="55.248" x="1126.0083" y="1299.4707">Payment</text><polygon fill="#181818" points="306.0605,167.1797,316.0605,171.1797,306.0605,175.1797,310.0605,171.1797" style="stroke:#181818;stroke-width:1.0;"/><line style="stroke:#181818;stroke-width:1.0;" x1="38.9482" x2="312.0605" y1="171.1797" y2="171.1797"/><text fill="#000000" font-family="sans-serif" font-size="13" lengthAdjust="spacing" textLength="158.9644" x="99.0222" y="166.3232">Mengakses daftar transaksi</text><polygon fill="#181818" points="529.4849,197.5313,539.4849,201.5313,529.4849,205.5313,533.4849,201.5313" style="stroke:#181818;stroke-width:1.0;"/><line style="stroke:#181818;stroke-width:1.0;" x1="318.0605" x2="535.4849" y1="201.5313" y2="201.5313"/><text fill="#000000" font-family="sans-serif" font-size="13" lengthAdjust="spacing" textLength="101.1499" x="379.1978" y="196.6748">getTransactions()</text><polygon fill="#181818" points="734.7104,227.8828,744.7104,231.8828,734.7104,235.8828,738.7104,231.8828" style="stroke:#181818;stroke-width:1.0;"/><line style="stroke:#181818;stroke-width:1.0;" x1="541.4849" x2="740.7104" y1="231.8828" y2="231.8828"/><text fill="#000000" font-family="sans-serif" font-size="13" lengthAdjust="spacing" textLength="41.1772" x="623.509" y="227.0264">getAll()</text><polygon fill="#181818" points="329.0605,258.2344,319.0605,262.2344,329.0605,266.2344,325.0605,262.2344" style="stroke:#181818;stroke-width:1.0;"/><line style="stroke:#181818;stroke-width:1.0;stroke-dasharray:2.0,2.0;" x1="323.0605" x2="540.4849" y1="262.2344" y2="262.2344"/><text fill="#000000" font-family="sans-serif" font-size="13" lengthAdjust="spacing" textLength="123.5444" x="368.0005" y="257.3779">displayTransactions()</text><polygon fill="#181818" points="306.0605,288.5859,316.0605,292.5859,306.0605,296.5859,310.0605,292.5859" style="stroke:#181818;stroke-width:1.0;"/><line style="stroke:#181818;stroke-width:1.0;" x1="38.9482" x2="312.0605" y1="292.5859" y2="292.5859"/><text fill="#000000" font-family="sans-serif" font-size="13" lengthAdjust="spacing" textLength="189.3315" x="83.8386" y="287.7295">Membuat pesanan baru(method)</text><polygon fill="#181818" points="529.4849,318.9375,539.4849,322.9375,529.4849,326.9375,533.4849,322.9375" style="stroke:#181818;stroke-width:1.0;"/><line style="stroke:#181818;stroke-width:1.0;" x1="318.0605" x2="535.4849" y1="322.9375" y2="322.9375"/><text fill="#000000" font-family="sans-serif" font-size="13" lengthAdjust="spacing" textLength="121.3799" x="369.0828" y="318.0811">createOrder(method)</text><polygon fill="#181818" points="734.7104,349.2891,744.7104,353.2891,734.7104,357.2891,738.7104,353.2891" style="stroke:#181818;stroke-width:1.0;"/><line style="stroke:#181818;stroke-width:1.0;" x1="541.4849" x2="740.7104" y1="353.2891" y2="353.2891"/><text fill="#000000" font-family="sans-serif" font-size="13" lengthAdjust="spacing" textLength="88.1499" x="600.0227" y="348.4326">create(method)</text><path d="M693.1382,368.2891 L753.3091,368.2891 L753.3091,376.6406 L743.3091,386.6406 L693.1382,386.6406 L693.1382,368.2891 " fill="#EEEEEE" style="stroke:#000000;stroke-width:1.5;"/><rect fill="none" height="180.0781" style="stroke:#000000;stroke-width:1.5;" width="202.4707" x="693.1382" y="368.2891"/><text fill="#000000" font-family="sans-serif" font-size="13" font-weight="bold" lengthAdjust="spacing" textLength="15.1709" x="708.1382" y="382.7842">alt</text><text fill="#000000" font-family="sans-serif" font-size="11" font-weight="bold" lengthAdjust="spacing" textLength="86.1899" x="768.3091" y="381.708">[Pesanan Kotak]</text><line style="stroke:#181818;stroke-width:1.0;" x1="746.7104" x2="788.7104" y1="408.9922" y2="408.9922"/><line style="stroke:#181818;stroke-width:1.0;" x1="788.7104" x2="788.7104" y1="408.9922" y2="421.9922"/><line style="stroke:#181818;stroke-width:1.0;" x1="747.7104" x2="788.7104" y1="421.9922" y2="421.9922"/><polygon fill="#181818" points="757.7104,417.9922,747.7104,421.9922,757.7104,425.9922,753.7104,421.9922" style="stroke:#181818;stroke-width:1.0;"/><text fill="#000000" font-family="sans-serif" font-size="13" lengthAdjust="spacing" textLength="129.1812" x="753.7104" y="404.1357">generateInvoice("OK")</text><line style="stroke:#000000;stroke-width:1.0;stroke-dasharray:2.0,2.0;" x1="693.1382" x2="895.6089" y1="430.9922" y2="430.9922"/><text fill="#000000" font-family="sans-serif" font-size="11" font-weight="bold" lengthAdjust="spacing" textLength="96.583" x="698.1382" y="442.4111">[Pesanan Reguler]</text><line style="stroke:#181818;stroke-width:1.0;" x1="746.7104" x2="788.7104" y1="468.1797" y2="468.1797"/><line style="stroke:#181818;stroke-width:1.0;" x1="788.7104" x2="788.7104" y1="468.1797" y2="481.1797"/><line style="stroke:#181818;stroke-width:1.0;" x1="747.7104" x2="788.7104" y1="481.1797" y2="481.1797"/><polygon fill="#181818" points="757.7104,477.1797,747.7104,481.1797,757.7104,485.1797,753.7104,481.1797" style="stroke:#181818;stroke-width:1.0;"/><text fill="#000000" font-family="sans-serif" font-size="13" lengthAdjust="spacing" textLength="129.8984" x="753.7104" y="463.3232">generateInvoice("OR")</text><line style="stroke:#000000;stroke-width:1.0;stroke-dasharray:2.0,2.0;" x1="693.1382" x2="895.6089" y1="490.1797" y2="490.1797"/><text fill="#000000" font-family="sans-serif" font-size="11" font-weight="bold" lengthAdjust="spacing" textLength="53.7861" x="698.1382" y="501.5986">[Siap Beli]</text><line style="stroke:#181818;stroke-width:1.0;" x1="746.7104" x2="788.7104" y1="527.3672" y2="527.3672"/><line style="stroke:#181818;stroke-width:1.0;" x1="788.7104" x2="788.7104" y1="527.3672" y2="540.3672"/><line style="stroke:#181818;stroke-width:1.0;" x1="747.7104" x2="788.7104" y1="540.3672" y2="540.3672"/><polygon fill="#181818" points="757.7104,536.3672,747.7104,540.3672,757.7104,544.3672,753.7104,540.3672" style="stroke:#181818;stroke-width:1.0;"/><text fill="#000000" font-family="sans-serif" font-size="13" lengthAdjust="spacing" textLength="129.1812" x="753.7104" y="522.5107">generateInvoice("OS")</text><polygon fill="#181818" points="329.0605,573.7188,319.0605,577.7188,329.0605,581.7188,325.0605,577.7188" style="stroke:#181818;stroke-width:1.0;"/><line style="stroke:#181818;stroke-width:1.0;stroke-dasharray:2.0,2.0;" x1="323.0605" x2="540.4849" y1="577.7188" y2="577.7188"/><text fill="#000000" font-family="sans-serif" font-size="13" lengthAdjust="spacing" textLength="102.5654" x="378.49" y="572.8623">showOrderForm()</text><path d="M10,592.7188 L82.4346,592.7188 L82.4346,601.0703 L72.4346,611.0703 L10,611.0703 L10,592.7188 " fill="#EEEEEE" style="stroke:#000000;stroke-width:1.5;"/><rect fill="none" height="213.4609" style="stroke:#000000;stroke-width:1.5;" width="1024.3257" x="10" y="592.7188"/><text fill="#000000" font-family="sans-serif" font-size="13" font-weight="bold" lengthAdjust="spacing" textLength="27.4346" x="25" y="607.2139">loop</text><text fill="#000000" font-family="sans-serif" font-size="11" font-weight="bold" lengthAdjust="spacing" textLength="124.6846" x="97.4346" y="606.1377">[Menambahkan Produk]</text><polygon fill="#181818" points="306.0605,629.4219,316.0605,633.4219,306.0605,637.4219,310.0605,633.4219" style="stroke:#181818;stroke-width:1.0;"/><line style="stroke:#181818;stroke-width:1.0;" x1="38.9482" x2="312.0605" y1="633.4219" y2="633.4219"/><text fill="#000000" font-family="sans-serif" font-size="13" lengthAdjust="spacing" textLength="172.6943" x="92.1572" y="628.5654">selectProduct(product_id, qty)</text><polygon fill="#181818" points="529.4849,659.7734,539.4849,663.7734,529.4849,667.7734,533.4849,663.7734" style="stroke:#181818;stroke-width:1.0;"/><line style="stroke:#181818;stroke-width:1.0;" x1="318.0605" x2="535.4849" y1="663.7734" y2="663.7734"/><text fill="#000000" font-family="sans-serif" font-size="13" lengthAdjust="spacing" textLength="155.3525" x="352.0964" y="658.917">addToCart(product_id, qty)</text><polygon fill="#181818" points="981.2017,690.125,991.2017,694.125,981.2017,698.125,985.2017,694.125" style="stroke:#181818;stroke-width:1.0;"/><line style="stroke:#181818;stroke-width:1.0;" x1="541.4849" x2="987.2017" y1="694.125" y2="694.125"/><text fill="#000000" font-family="sans-serif" font-size="13" lengthAdjust="spacing" textLength="90.3271" x="722.1797" y="689.2686">find(product_id)</text><polygon fill="#181818" points="878.6089,720.4766,888.6089,724.4766,878.6089,728.4766,882.6089,724.4766" style="stroke:#181818;stroke-width:1.0;"/><line style="stroke:#181818;stroke-width:1.0;" x1="541.4849" x2="884.6089" y1="724.4766" y2="724.4766"/><text fill="#000000" font-family="sans-serif" font-size="13" lengthAdjust="spacing" textLength="253.627" x="589.2334" y="719.6201">create(transaction_id, product_id, qty, price)</text><line style="stroke:#181818;stroke-width:1.0;" x1="541.4849" x2="583.4849" y1="754.8281" y2="754.8281"/><line style="stroke:#181818;stroke-width:1.0;" x1="583.4849" x2="583.4849" y1="754.8281" y2="767.8281"/><line style="stroke:#181818;stroke-width:1.0;" x1="542.4849" x2="583.4849" y1="767.8281" y2="767.8281"/><polygon fill="#181818" points="552.4849,763.8281,542.4849,767.8281,552.4849,771.8281,548.4849,767.8281" style="stroke:#181818;stroke-width:1.0;"/><text fill="#000000" font-family="sans-serif" font-size="13" lengthAdjust="spacing" textLength="88.8672" x="548.4849" y="749.9717">calculateTotal()</text><polygon fill="#181818" points="329.0605,794.1797,319.0605,798.1797,329.0605,802.1797,325.0605,798.1797" style="stroke:#181818;stroke-width:1.0;"/><line style="stroke:#181818;stroke-width:1.0;stroke-dasharray:2.0,2.0;" x1="323.0605" x2="540.4849" y1="798.1797" y2="798.1797"/><text fill="#000000" font-family="sans-serif" font-size="13" lengthAdjust="spacing" textLength="72.979" x="393.2832" y="793.3232">updateCart()</text><polygon fill="#181818" points="306.0605,831.5313,316.0605,835.5313,306.0605,839.5313,310.0605,835.5313" style="stroke:#181818;stroke-width:1.0;"/><line style="stroke:#181818;stroke-width:1.0;" x1="38.9482" x2="312.0605" y1="835.5313" y2="835.5313"/><text fill="#000000" font-family="sans-serif" font-size="13" lengthAdjust="spacing" textLength="255.1123" x="50.9482" y="830.6748">Memasukkan data pelanggan(phone, name)</text><polygon fill="#181818" points="529.4849,861.8828,539.4849,865.8828,529.4849,869.8828,533.4849,865.8828" style="stroke:#181818;stroke-width:1.0;"/><line style="stroke:#181818;stroke-width:1.0;" x1="318.0605" x2="535.4849" y1="865.8828" y2="865.8828"/><text fill="#000000" font-family="sans-serif" font-size="13" lengthAdjust="spacing" textLength="158.2407" x="350.6523" y="861.0264">setCustomer(phone, name)</text><polygon fill="#181818" points="1059.667,892.2344,1069.667,896.2344,1059.667,900.2344,1063.667,896.2344" style="stroke:#181818;stroke-width:1.0;"/><line style="stroke:#181818;stroke-width:1.0;" x1="541.4849" x2="1065.667" y1="896.2344" y2="896.2344"/><text fill="#000000" font-family="sans-serif" font-size="13" lengthAdjust="spacing" textLength="158.9517" x="727.1001" y="891.3779">firstOrCreate(phone, name)</text><polygon fill="#181818" points="306.0605,922.5859,316.0605,926.5859,306.0605,930.5859,310.0605,926.5859" style="stroke:#181818;stroke-width:1.0;"/><line style="stroke:#181818;stroke-width:1.0;" x1="38.9482" x2="312.0605" y1="926.5859" y2="926.5859"/><text fill="#000000" font-family="sans-serif" font-size="13" lengthAdjust="spacing" textLength="246.3906" x="55.3091" y="921.7295">Memproses pembayaran(amount, method)</text><polygon fill="#181818" points="529.4849,952.9375,539.4849,956.9375,529.4849,960.9375,533.4849,956.9375" style="stroke:#181818;stroke-width:1.0;"/><line style="stroke:#181818;stroke-width:1.0;" x1="318.0605" x2="535.4849" y1="956.9375" y2="956.9375"/><text fill="#000000" font-family="sans-serif" font-size="13" lengthAdjust="spacing" textLength="199.4243" x="330.0605" y="952.0811">processPayment(amount, method)</text><path d="M248.1401,971.9375 L308.311,971.9375 L308.311,980.2891 L298.311,990.2891 L248.1401,990.2891 L248.1401,971.9375 " fill="#EEEEEE" style="stroke:#000000;stroke-width:1.5;"/><rect fill="none" height="198.9453" style="stroke:#000000;stroke-width:1.5;" width="1074.7856" x="248.1401" y="971.9375"/><text fill="#000000" font-family="sans-serif" font-size="13" font-weight="bold" lengthAdjust="spacing" textLength="15.1709" x="263.1401" y="986.4326">alt</text><text fill="#000000" font-family="sans-serif" font-size="11" font-weight="bold" lengthAdjust="spacing" textLength="83.1123" x="323.311" y="985.3564">[Jumlah Cukup]</text><polygon fill="#181818" points="1141.6323,1008.6406,1151.6323,1012.6406,1141.6323,1016.6406,1145.6323,1012.6406" style="stroke:#181818;stroke-width:1.0;"/><line style="stroke:#181818;stroke-width:1.0;" x1="541.4849" x2="1147.6323" y1="1012.6406" y2="1012.6406"/><text fill="#000000" font-family="sans-serif" font-size="13" lengthAdjust="spacing" textLength="226.897" x="734.1101" y="1007.7842">create(transaction_id, amount, method)</text><line style="stroke:#181818;stroke-width:1.0;" x1="1153.6323" x2="1195.6323" y1="1042.9922" y2="1042.9922"/><line style="stroke:#181818;stroke-width:1.0;" x1="1195.6323" x2="1195.6323" y1="1042.9922" y2="1055.9922"/><line style="stroke:#181818;stroke-width:1.0;" x1="1154.6323" x2="1195.6323" y1="1055.9922" y2="1055.9922"/><polygon fill="#181818" points="1164.6323,1051.9922,1154.6323,1055.9922,1164.6323,1059.9922,1160.6323,1055.9922" style="stroke:#181818;stroke-width:1.0;"/><text fill="#000000" font-family="sans-serif" font-size="13" lengthAdjust="spacing" textLength="150.2935" x="1160.6323" y="1038.1357">generateReceiptNumber()</text><polygon fill="#181818" points="734.7104,1082.3438,744.7104,1086.3438,734.7104,1090.3438,738.7104,1086.3438" style="stroke:#181818;stroke-width:1.0;"/><line style="stroke:#181818;stroke-width:1.0;" x1="541.4849" x2="740.7104" y1="1086.3438" y2="1086.3438"/><text fill="#000000" font-family="sans-serif" font-size="13" lengthAdjust="spacing" textLength="181.2256" x="553.4849" y="1081.4873">updatePaymentStatus("Lunas")</text><polygon fill="#181818" points="329.0605,1112.6953,319.0605,1116.6953,329.0605,1120.6953,325.0605,1116.6953" style="stroke:#181818;stroke-width:1.0;"/><line style="stroke:#181818;stroke-width:1.0;stroke-dasharray:2.0,2.0;" x1="323.0605" x2="540.4849" y1="1116.6953" y2="1116.6953"/><text fill="#000000" font-family="sans-serif" font-size="13" lengthAdjust="spacing" textLength="83.0845" x="388.2305" y="1111.8389">showReceipt()</text><line style="stroke:#000000;stroke-width:1.0;stroke-dasharray:2.0,2.0;" x1="248.1401" x2="1322.9258" y1="1125.6953" y2="1125.6953"/><text fill="#000000" font-family="sans-serif" font-size="11" font-weight="bold" lengthAdjust="spacing" textLength="87.3931" x="253.1401" y="1137.1143">[Jumlah Kurang]</text><polygon fill="#181818" points="329.0605,1158.8828,319.0605,1162.8828,329.0605,1166.8828,325.0605,1162.8828" style="stroke:#181818;stroke-width:1.0;"/><line style="stroke:#181818;stroke-width:1.0;stroke-dasharray:2.0,2.0;" x1="323.0605" x2="540.4849" y1="1162.8828" y2="1162.8828"/><text fill="#000000" font-family="sans-serif" font-size="13" lengthAdjust="spacing" textLength="194.1938" x="332.6758" y="1158.0264">showError("Pembayaran kurang")</text><polygon fill="#181818" points="306.0605,1196.2344,316.0605,1200.2344,306.0605,1204.2344,310.0605,1200.2344" style="stroke:#181818;stroke-width:1.0;"/><line style="stroke:#181818;stroke-width:1.0;" x1="38.9482" x2="312.0605" y1="1200.2344" y2="1200.2344"/><text fill="#000000" font-family="sans-serif" font-size="13" lengthAdjust="spacing" textLength="88.1436" x="134.4326" y="1195.3779">Mencetak struk</text><polygon fill="#181818" points="529.4849,1226.5859,539.4849,1230.5859,529.4849,1234.5859,533.4849,1230.5859" style="stroke:#181818;stroke-width:1.0;"/><line style="stroke:#181818;stroke-width:1.0;" x1="318.0605" x2="535.4849" y1="1230.5859" y2="1230.5859"/><text fill="#000000" font-family="sans-serif" font-size="13" lengthAdjust="spacing" textLength="78.0254" x="390.76" y="1225.7295">printReceipt()</text><polygon fill="#181818" points="329.0605,1256.9375,319.0605,1260.9375,329.0605,1264.9375,325.0605,1260.9375" style="stroke:#181818;stroke-width:1.0;"/><line style="stroke:#181818;stroke-width:1.0;stroke-dasharray:2.0,2.0;" x1="323.0605" x2="540.4849" y1="1260.9375" y2="1260.9375"/><text fill="#000000" font-family="sans-serif" font-size="13" lengthAdjust="spacing" textLength="108.3926" x="375.5764" y="1256.0811">downloadReceipt()</text><!--SRC=[XLJ1Zfim4Btp5HOd8cr_e8TAMz9AspGDId9PgL8rWLbmCJPhZxlAttV040ARQ7E9n7jl_ERDsAwMkWKBZN3uwb7dk4NdeCH79KijSjI4Def8aa9n62XYBQ5apMzzjA0Tr4wA3FLV3mfq545Enefu0qxQM80JARXASXa-Y6GkMz0auY3DIHgTyNazyPZTvQH6apLAOIXvJEyo0xwzYw-HGAh0MizPcJM5pwd7iaM5r3iopN1ykW0pE3SSLH0-Hz7GiVZqXNiIdyKMTSaneHC5l11OGMDm4UCTAsLMYNJbqoMhY3ztu3Q0ZqeDtyQwXNIjWlD2TUFuvkI1H8iED6Xn0kkJ1gaonUhQG6uH27UsG3l1auK0Nv085F7SGycD8QWZmJ-cJfurMfOywNz6vfZ4kqsyYb0vlEZsM7eUwiVA_QWyI6Z5LrJoOysXq-WYccNcAlFMj_ZTsAPBIndJTXE2vWHLpPxwDGZDB9Dqg32dOK-IDlp_aSM3UANpAZYQyeIYE9gK5-KEiuyswxo_I5rSaQxnutgAdgP1zwKMPRiFtFbCtSyLLEuL5pZobBeT6l6nBTyMZFPEXyHkh10uNtVnC1LubVYkboNefAsCnWV1yU5icHpIU6SMdDvO6jgsZdOs3TtDMBSSSBlT7MfvdU7ChvPEe35UquEuiSnCplaj6wxcEsQ_lJzyew0IgQzzUpsIv_kHB-jqAkQFgd49zvYZREcNRqxS_smYsqlWWxS30NcNn3-z1XU_dqwtiKEzPBW4W_6DPtVbJS4tQurDukoIbQXxSdntmFooynqMZYml_on8gMawV_R-c3Uj31GJ-Xy0]--></g></svg>