<svg xmlns="http://www.w3.org/2000/svg" xmlns:xlink="http://www.w3.org/1999/xlink" contentStyleType="text/css" height="1928px" preserveAspectRatio="none" style="width:1683px;height:1928px;background:#FFFFFF;" version="1.1" viewBox="0 0 1683 1928" width="1683px" zoomAndPan="magnify"><title>Sequence Diagram</title><defs/><g><text fill="#000000" font-family="sans-serif" font-size="14" font-weight="bold" lengthAdjust="spacing" textLength="126.0479" x="780.2026" y="29.5332">Sequence Diagram</text><text fill="#000000" font-family="sans-serif" font-size="14" font-weight="bold" lengthAdjust="spacing" textLength="164.917" x="760.7681" y="47.1426">Kelola Pelanggan &amp; Poin</text><rect fill="none" height="125.2422" style="stroke:#000000;stroke-width:1.5;" width="1051.1494" x="446.8008" y="381.2891"/><rect fill="none" height="125.2422" style="stroke:#000000;stroke-width:1.5;" width="1051.1494" x="446.8008" y="654.9375"/><rect fill="none" height="109.4063" style="stroke:#000000;stroke-width:1.5;" width="733.6567" x="943.7964" y="1141.0469"/><rect fill="none" height="109.4063" style="stroke:#000000;stroke-width:1.5;" width="733.6567" x="943.7964" y="1264.4531"/><line style="stroke:#181818;stroke-width:0.5;stroke-dasharray:5.0,5.0;" x1="45" x2="45" y1="138.8281" y2="1846.1328"/><line style="stroke:#181818;stroke-width:0.5;stroke-dasharray:5.0,5.0;" x1="509.8008" x2="509.8008" y1="138.8281" y2="1846.1328"/><line style="stroke:#181818;stroke-width:0.5;stroke-dasharray:5.0,5.0;" x1="1020.7964" x2="1020.7964" y1="138.8281" y2="1846.1328"/><line style="stroke:#181818;stroke-width:0.5;stroke-dasharray:5.0,5.0;" x1="1450.2676" x2="1450.2676" y1="138.8281" y2="1846.1328"/><line style="stroke:#181818;stroke-width:0.5;stroke-dasharray:5.0,5.0;" x1="1545.9502" x2="1545.9502" y1="138.8281" y2="1846.1328"/><line style="stroke:#181818;stroke-width:0.5;stroke-dasharray:5.0,5.0;" x1="1635.4189" x2="1635.4189" y1="138.8281" y2="1846.1328"/><text fill="#000000" font-family="sans-serif" font-size="14" lengthAdjust="spacing" textLength="75.4688" x="5" y="135.752">Kasir/Admin</text><ellipse cx="45.7344" cy="69.7188" fill="#E2E2F0" rx="8" ry="8" style="stroke:#181818;stroke-width:0.5;"/><path d="M45.7344,77.7188 L45.7344,104.7188 M32.7344,85.7188 L58.7344,85.7188 M45.7344,104.7188 L32.7344,119.7188 M45.7344,104.7188 L58.7344,119.7188 " fill="none" style="stroke:#181818;stroke-width:0.5;"/><text fill="#000000" font-family="sans-serif" font-size="14" lengthAdjust="spacing" textLength="75.4688" x="5" y="1859.666">Kasir/Admin</text><ellipse cx="45.7344" cy="1871.2422" fill="#E2E2F0" rx="8" ry="8" style="stroke:#181818;stroke-width:0.5;"/><path d="M45.7344,1879.2422 L45.7344,1906.2422 M32.7344,1887.2422 L58.7344,1887.2422 M45.7344,1906.2422 L32.7344,1921.2422 M45.7344,1906.2422 L58.7344,1921.2422 " fill="none" style="stroke:#181818;stroke-width:0.5;"/><rect fill="#E2E2F0" height="31.6094" rx="2.5" ry="2.5" style="stroke:#181818;stroke-width:0.5;" width="107.3789" x="456.8008" y="106.2188"/><text fill="#000000" font-family="sans-serif" font-size="14" lengthAdjust="spacing" textLength="93.3789" x="463.8008" y="127.752">CustomerPage</text><rect fill="#E2E2F0" height="31.6094" rx="2.5" ry="2.5" style="stroke:#181818;stroke-width:0.5;" width="107.3789" x="456.8008" y="1845.1328"/><text fill="#000000" font-family="sans-serif" font-size="14" lengthAdjust="spacing" textLength="93.3789" x="463.8008" y="1866.666">CustomerPage</text><rect fill="#E2E2F0" height="31.6094" rx="2.5" ry="2.5" style="stroke:#181818;stroke-width:0.5;" width="135.3721" x="953.7964" y="106.2188"/><text fill="#000000" font-family="sans-serif" font-size="14" lengthAdjust="spacing" textLength="121.3721" x="960.7964" y="127.752">CustomerController</text><rect fill="#E2E2F0" height="31.6094" rx="2.5" ry="2.5" style="stroke:#181818;stroke-width:0.5;" width="135.3721" x="953.7964" y="1845.1328"/><text fill="#000000" font-family="sans-serif" font-size="14" lengthAdjust="spacing" textLength="121.3721" x="960.7964" y="1866.666">CustomerController</text><rect fill="#E2E2F0" height="31.6094" rx="2.5" ry="2.5" style="stroke:#181818;stroke-width:0.5;" width="74.6826" x="1413.2676" y="106.2188"/><text fill="#000000" font-family="sans-serif" font-size="14" lengthAdjust="spacing" textLength="60.6826" x="1420.2676" y="127.752">Customer</text><rect fill="#E2E2F0" height="31.6094" rx="2.5" ry="2.5" style="stroke:#181818;stroke-width:0.5;" width="74.6826" x="1413.2676" y="1845.1328"/><text fill="#000000" font-family="sans-serif" font-size="14" lengthAdjust="spacing" textLength="60.6826" x="1420.2676" y="1866.666">Customer</text><rect fill="#E2E2F0" height="31.6094" rx="2.5" ry="2.5" style="stroke:#181818;stroke-width:0.5;" width="96.4688" x="1497.9502" y="106.2188"/><text fill="#000000" font-family="sans-serif" font-size="14" lengthAdjust="spacing" textLength="82.4688" x="1504.9502" y="127.752">PointsHistory</text><rect fill="#E2E2F0" height="31.6094" rx="2.5" ry="2.5" style="stroke:#181818;stroke-width:0.5;" width="96.4688" x="1497.9502" y="1845.1328"/><text fill="#000000" font-family="sans-serif" font-size="14" lengthAdjust="spacing" textLength="82.4688" x="1504.9502" y="1866.666">PointsHistory</text><rect fill="#E2E2F0" height="31.6094" rx="2.5" ry="2.5" style="stroke:#181818;stroke-width:0.5;" width="63.0342" x="1604.4189" y="106.2188"/><text fill="#000000" font-family="sans-serif" font-size="14" lengthAdjust="spacing" textLength="49.0342" x="1611.4189" y="127.752">Storage</text><rect fill="#E2E2F0" height="31.6094" rx="2.5" ry="2.5" style="stroke:#181818;stroke-width:0.5;" width="63.0342" x="1604.4189" y="1845.1328"/><text fill="#000000" font-family="sans-serif" font-size="14" lengthAdjust="spacing" textLength="49.0342" x="1611.4189" y="1866.666">Storage</text><polygon fill="#181818" points="498.4902,167.1797,508.4902,171.1797,498.4902,175.1797,502.4902,171.1797" style="stroke:#181818;stroke-width:1.0;"/><line style="stroke:#181818;stroke-width:1.0;" x1="45.7344" x2="504.4902" y1="171.1797" y2="171.1797"/><text fill="#000000" font-family="sans-serif" font-size="13" lengthAdjust="spacing" textLength="167.6733" x="194.2756" y="166.3232">Mengakses daftar pelanggan</text><polygon fill="#181818" points="1009.4824,197.5313,1019.4824,201.5313,1009.4824,205.5313,1013.4824,201.5313" style="stroke:#181818;stroke-width:1.0;"/><line style="stroke:#181818;stroke-width:1.0;" x1="510.4902" x2="1015.4824" y1="201.5313" y2="201.5313"/><text fill="#000000" font-family="sans-serif" font-size="13" lengthAdjust="spacing" textLength="44.7891" x="743.5918" y="196.6748">mount()</text><polygon fill="#181818" points="1438.6089,227.8828,1448.6089,231.8828,1438.6089,235.8828,1442.6089,231.8828" style="stroke:#181818;stroke-width:1.0;"/><line style="stroke:#181818;stroke-width:1.0;" x1="1021.4824" x2="1444.6089" y1="231.8828" y2="231.8828"/><text fill="#000000" font-family="sans-serif" font-size="13" lengthAdjust="spacing" textLength="198.8721" x="1136.6096" y="227.0264">orderBy('created_at', 'desc')-&gt;get()</text><polygon fill="#181818" points="521.4902,258.2344,511.4902,262.2344,521.4902,266.2344,517.4902,262.2344" style="stroke:#181818;stroke-width:1.0;"/><line style="stroke:#181818;stroke-width:1.0;stroke-dasharray:2.0,2.0;" x1="515.4902" x2="1020.4824" y1="262.2344" y2="262.2344"/><text fill="#000000" font-family="sans-serif" font-size="13" lengthAdjust="spacing" textLength="111.9727" x="710" y="257.3779">displayCustomers()</text><polygon fill="#181818" points="498.4902,288.5859,508.4902,292.5859,498.4902,296.5859,502.4902,292.5859" style="stroke:#181818;stroke-width:1.0;"/><line style="stroke:#181818;stroke-width:1.0;" x1="45.7344" x2="504.4902" y1="292.5859" y2="292.5859"/><text fill="#000000" font-family="sans-serif" font-size="13" lengthAdjust="spacing" textLength="226.2114" x="165.0066" y="287.7295">Tambah pelanggan baru(name, phone)</text><polygon fill="#181818" points="1009.4824,318.9375,1019.4824,322.9375,1009.4824,326.9375,1013.4824,322.9375" style="stroke:#181818;stroke-width:1.0;"/><line style="stroke:#181818;stroke-width:1.0;" x1="510.4902" x2="1015.4824" y1="322.9375" y2="322.9375"/><text fill="#000000" font-family="sans-serif" font-size="13" lengthAdjust="spacing" textLength="113.4517" x="709.2605" y="318.0811">store(name, phone)</text><line style="stroke:#181818;stroke-width:1.0;" x1="1021.4824" x2="1063.4824" y1="353.2891" y2="353.2891"/><line style="stroke:#181818;stroke-width:1.0;" x1="1063.4824" x2="1063.4824" y1="353.2891" y2="366.2891"/><line style="stroke:#181818;stroke-width:1.0;" x1="1022.4824" x2="1063.4824" y1="366.2891" y2="366.2891"/><polygon fill="#181818" points="1032.4824,362.2891,1022.4824,366.2891,1032.4824,370.2891,1028.4824,366.2891" style="stroke:#181818;stroke-width:1.0;"/><text fill="#000000" font-family="sans-serif" font-size="13" lengthAdjust="spacing" textLength="129.3589" x="1028.4824" y="348.4326">validate(name, phone)</text><path d="M446.8008,381.2891 L506.9717,381.2891 L506.9717,389.6406 L496.9717,399.6406 L446.8008,399.6406 L446.8008,381.2891 " fill="#EEEEEE" style="stroke:#000000;stroke-width:1.5;"/><rect fill="none" height="125.2422" style="stroke:#000000;stroke-width:1.5;" width="1051.1494" x="446.8008" y="381.2891"/><text fill="#000000" font-family="sans-serif" font-size="13" font-weight="bold" lengthAdjust="spacing" textLength="15.1709" x="461.8008" y="395.7842">alt</text><text fill="#000000" font-family="sans-serif" font-size="11" font-weight="bold" lengthAdjust="spacing" textLength="128.3423" x="521.9717" y="394.708">[Phone Sudah Terdaftar]</text><polygon fill="#181818" points="521.4902,417.9922,511.4902,421.9922,521.4902,425.9922,517.4902,421.9922" style="stroke:#181818;stroke-width:1.0;"/><line style="stroke:#181818;stroke-width:1.0;stroke-dasharray:2.0,2.0;" x1="515.4902" x2="1020.4824" y1="421.9922" y2="421.9922"/><text fill="#000000" font-family="sans-serif" font-size="13" lengthAdjust="spacing" textLength="253.4492" x="639.2617" y="417.1357">showError("Nomor telepon sudah terdaftar")</text><line style="stroke:#000000;stroke-width:1.0;stroke-dasharray:2.0,2.0;" x1="446.8008" x2="1497.9502" y1="430.9922" y2="430.9922"/><text fill="#000000" font-family="sans-serif" font-size="11" font-weight="bold" lengthAdjust="spacing" textLength="95.3691" x="451.8008" y="442.4111">[Validasi Berhasil]</text><polygon fill="#181818" points="1438.6089,464.1797,1448.6089,468.1797,1438.6089,472.1797,1442.6089,468.1797" style="stroke:#181818;stroke-width:1.0;"/><line style="stroke:#181818;stroke-width:1.0;" x1="1021.4824" x2="1444.6089" y1="468.1797" y2="468.1797"/><text fill="#000000" font-family="sans-serif" font-size="13" lengthAdjust="spacing" textLength="177.417" x="1147.3372" y="463.3232">create(name, phone, points=0)</text><polygon fill="#181818" points="521.4902,494.5313,511.4902,498.5313,521.4902,502.5313,517.4902,498.5313" style="stroke:#181818;stroke-width:1.0;"/><line style="stroke:#181818;stroke-width:1.0;stroke-dasharray:2.0,2.0;" x1="515.4902" x2="1020.4824" y1="498.5313" y2="498.5313"/><text fill="#000000" font-family="sans-serif" font-size="13" lengthAdjust="spacing" textLength="286.7236" x="622.6245" y="493.6748">showSuccess("Pelanggan berhasil ditambahkan")</text><polygon fill="#181818" points="498.4902,531.8828,508.4902,535.8828,498.4902,539.8828,502.4902,535.8828" style="stroke:#181818;stroke-width:1.0;"/><line style="stroke:#181818;stroke-width:1.0;" x1="45.7344" x2="504.4902" y1="535.8828" y2="535.8828"/><text fill="#000000" font-family="sans-serif" font-size="13" lengthAdjust="spacing" textLength="188.6333" x="183.7957" y="531.0264">Edit pelanggan(id, name, phone)</text><polygon fill="#181818" points="1009.4824,562.2344,1019.4824,566.2344,1009.4824,570.2344,1013.4824,566.2344" style="stroke:#181818;stroke-width:1.0;"/><line style="stroke:#181818;stroke-width:1.0;" x1="510.4902" x2="1015.4824" y1="566.2344" y2="566.2344"/><text fill="#000000" font-family="sans-serif" font-size="13" lengthAdjust="spacing" textLength="141.6543" x="695.1592" y="561.3779">update(id, name, phone)</text><polygon fill="#181818" points="1438.6089,592.5859,1448.6089,596.5859,1438.6089,600.5859,1442.6089,596.5859" style="stroke:#181818;stroke-width:1.0;"/><line style="stroke:#181818;stroke-width:1.0;" x1="1021.4824" x2="1444.6089" y1="596.5859" y2="596.5859"/><text fill="#000000" font-family="sans-serif" font-size="13" lengthAdjust="spacing" textLength="39.7363" x="1216.1775" y="591.7295">find(id)</text><line style="stroke:#181818;stroke-width:1.0;" x1="1021.4824" x2="1063.4824" y1="626.9375" y2="626.9375"/><line style="stroke:#181818;stroke-width:1.0;" x1="1063.4824" x2="1063.4824" y1="626.9375" y2="639.9375"/><line style="stroke:#181818;stroke-width:1.0;" x1="1022.4824" x2="1063.4824" y1="639.9375" y2="639.9375"/><polygon fill="#181818" points="1032.4824,635.9375,1022.4824,639.9375,1032.4824,643.9375,1028.4824,639.9375" style="stroke:#181818;stroke-width:1.0;"/><text fill="#000000" font-family="sans-serif" font-size="13" lengthAdjust="spacing" textLength="129.3589" x="1028.4824" y="622.0811">validate(name, phone)</text><path d="M446.8008,654.9375 L506.9717,654.9375 L506.9717,663.2891 L496.9717,673.2891 L446.8008,673.2891 L446.8008,654.9375 " fill="#EEEEEE" style="stroke:#000000;stroke-width:1.5;"/><rect fill="none" height="125.2422" style="stroke:#000000;stroke-width:1.5;" width="1051.1494" x="446.8008" y="654.9375"/><text fill="#000000" font-family="sans-serif" font-size="13" font-weight="bold" lengthAdjust="spacing" textLength="15.1709" x="461.8008" y="669.4326">alt</text><text fill="#000000" font-family="sans-serif" font-size="11" font-weight="bold" lengthAdjust="spacing" textLength="95.3691" x="521.9717" y="668.3564">[Validasi Berhasil]</text><polygon fill="#181818" points="1438.6089,691.6406,1448.6089,695.6406,1438.6089,699.6406,1442.6089,695.6406" style="stroke:#181818;stroke-width:1.0;"/><line style="stroke:#181818;stroke-width:1.0;" x1="1021.4824" x2="1444.6089" y1="695.6406" y2="695.6406"/><text fill="#000000" font-family="sans-serif" font-size="13" lengthAdjust="spacing" textLength="124.3125" x="1173.8894" y="690.7842">update(name, phone)</text><polygon fill="#181818" points="521.4902,721.9922,511.4902,725.9922,521.4902,729.9922,517.4902,725.9922" style="stroke:#181818;stroke-width:1.0;"/><line style="stroke:#181818;stroke-width:1.0;stroke-dasharray:2.0,2.0;" x1="515.4902" x2="1020.4824" y1="725.9922" y2="725.9922"/><text fill="#000000" font-family="sans-serif" font-size="13" lengthAdjust="spacing" textLength="299.73" x="616.1213" y="721.1357">showSuccess("Data pelanggan berhasil diperbarui")</text><line style="stroke:#000000;stroke-width:1.0;stroke-dasharray:2.0,2.0;" x1="446.8008" x2="1497.9502" y1="734.9922" y2="734.9922"/><text fill="#000000" font-family="sans-serif" font-size="11" font-weight="bold" lengthAdjust="spacing" textLength="82.5269" x="451.8008" y="746.4111">[Validasi Gagal]</text><polygon fill="#181818" points="521.4902,768.1797,511.4902,772.1797,521.4902,776.1797,517.4902,772.1797" style="stroke:#181818;stroke-width:1.0;"/><line style="stroke:#181818;stroke-width:1.0;stroke-dasharray:2.0,2.0;" x1="515.4902" x2="1020.4824" y1="772.1797" y2="772.1797"/><text fill="#000000" font-family="sans-serif" font-size="13" lengthAdjust="spacing" textLength="166.0039" x="682.9844" y="767.3232">showError("Data tidak valid")</text><polygon fill="#181818" points="498.4902,805.5313,508.4902,809.5313,498.4902,813.5313,502.4902,809.5313" style="stroke:#181818;stroke-width:1.0;"/><line style="stroke:#181818;stroke-width:1.0;" x1="45.7344" x2="504.4902" y1="809.5313" y2="809.5313"/><text fill="#000000" font-family="sans-serif" font-size="13" lengthAdjust="spacing" textLength="145.9961" x="205.1143" y="804.6748">Lihat detail pelanggan(id)</text><polygon fill="#181818" points="1009.4824,835.8828,1019.4824,839.8828,1009.4824,843.8828,1013.4824,839.8828" style="stroke:#181818;stroke-width:1.0;"/><line style="stroke:#181818;stroke-width:1.0;" x1="510.4902" x2="1015.4824" y1="839.8828" y2="839.8828"/><text fill="#000000" font-family="sans-serif" font-size="13" lengthAdjust="spacing" textLength="49.1245" x="741.4241" y="835.0264">show(id)</text><polygon fill="#181818" points="1438.6089,866.2344,1448.6089,870.2344,1438.6089,874.2344,1442.6089,870.2344" style="stroke:#181818;stroke-width:1.0;"/><line style="stroke:#181818;stroke-width:1.0;" x1="1021.4824" x2="1444.6089" y1="870.2344" y2="870.2344"/><text fill="#000000" font-family="sans-serif" font-size="13" lengthAdjust="spacing" textLength="39.7363" x="1216.1775" y="865.3779">find(id)</text><polygon fill="#181818" points="1438.6089,896.5859,1448.6089,900.5859,1438.6089,904.5859,1442.6089,900.5859" style="stroke:#181818;stroke-width:1.0;"/><line style="stroke:#181818;stroke-width:1.0;" x1="1021.4824" x2="1444.6089" y1="900.5859" y2="900.5859"/><text fill="#000000" font-family="sans-serif" font-size="13" lengthAdjust="spacing" textLength="131.1299" x="1170.4807" y="895.7295">transactions()-&gt;count()</text><polygon fill="#181818" points="1438.6089,926.9375,1448.6089,930.9375,1438.6089,934.9375,1442.6089,930.9375" style="stroke:#181818;stroke-width:1.0;"/><line style="stroke:#181818;stroke-width:1.0;" x1="1021.4824" x2="1444.6089" y1="930.9375" y2="930.9375"/><text fill="#000000" font-family="sans-serif" font-size="13" lengthAdjust="spacing" textLength="171.9199" x="1150.0857" y="926.0811">transactions()-&gt;latest()-&gt;first()</text><polygon fill="#181818" points="1534.1846,957.2891,1544.1846,961.2891,1534.1846,965.2891,1538.1846,961.2891" style="stroke:#181818;stroke-width:1.0;"/><line style="stroke:#181818;stroke-width:1.0;" x1="1021.4824" x2="1540.1846" y1="961.2891" y2="961.2891"/><text fill="#000000" font-family="sans-serif" font-size="13" lengthAdjust="spacing" textLength="275.9263" x="1145.8704" y="956.4326">where('phone', customer.phone)-&gt;latest()-&gt;get()</text><polygon fill="#181818" points="521.4902,987.6406,511.4902,991.6406,521.4902,995.6406,517.4902,991.6406" style="stroke:#181818;stroke-width:1.0;"/><line style="stroke:#181818;stroke-width:1.0;stroke-dasharray:2.0,2.0;" x1="515.4902" x2="1020.4824" y1="991.6406" y2="991.6406"/><text fill="#000000" font-family="sans-serif" font-size="13" lengthAdjust="spacing" textLength="486.9922" x="522.4902" y="986.7842">showCustomerDetail(customer, total_transactions, last_transaction, points_histories)</text><polygon fill="#181818" points="498.4902,1017.9922,508.4902,1021.9922,498.4902,1025.9922,502.4902,1021.9922" style="stroke:#181818;stroke-width:1.0;"/><line style="stroke:#181818;stroke-width:1.0;" x1="45.7344" x2="504.4902" y1="1021.9922" y2="1021.9922"/><text fill="#000000" font-family="sans-serif" font-size="13" lengthAdjust="spacing" textLength="440.7559" x="57.7344" y="1017.1357">Tambah poin dari aktivitas marketing(customer_id, ig_image, gmaps_image)</text><polygon fill="#181818" points="1009.4824,1048.3438,1019.4824,1052.3438,1009.4824,1056.3438,1013.4824,1052.3438" style="stroke:#181818;stroke-width:1.0;"/><line style="stroke:#181818;stroke-width:1.0;" x1="510.4902" x2="1015.4824" y1="1052.3438" y2="1052.3438"/><text fill="#000000" font-family="sans-serif" font-size="13" lengthAdjust="spacing" textLength="286.146" x="622.9133" y="1047.4873">addPoints(customer_id, ig_image, gmaps_image)</text><polygon fill="#181818" points="1438.6089,1078.6953,1448.6089,1082.6953,1438.6089,1086.6953,1442.6089,1082.6953" style="stroke:#181818;stroke-width:1.0;"/><line style="stroke:#181818;stroke-width:1.0;" x1="1021.4824" x2="1444.6089" y1="1082.6953" y2="1082.6953"/><text fill="#000000" font-family="sans-serif" font-size="13" lengthAdjust="spacing" textLength="100.4263" x="1185.8325" y="1077.8389">find(customer_id)</text><line style="stroke:#181818;stroke-width:1.0;" x1="1021.4824" x2="1063.4824" y1="1113.0469" y2="1113.0469"/><line style="stroke:#181818;stroke-width:1.0;" x1="1063.4824" x2="1063.4824" y1="1113.0469" y2="1126.0469"/><line style="stroke:#181818;stroke-width:1.0;" x1="1022.4824" x2="1063.4824" y1="1126.0469" y2="1126.0469"/><polygon fill="#181818" points="1032.4824,1122.0469,1022.4824,1126.0469,1032.4824,1130.0469,1028.4824,1126.0469" style="stroke:#181818;stroke-width:1.0;"/><text fill="#000000" font-family="sans-serif" font-size="13" lengthAdjust="spacing" textLength="195.1016" x="1028.4824" y="1108.1904">validate(ig_image, gmaps_image)</text><path d="M943.7964,1141.0469 L1003.9673,1141.0469 L1003.9673,1149.3984 L993.9673,1159.3984 L943.7964,1159.3984 L943.7964,1141.0469 " fill="#EEEEEE" style="stroke:#000000;stroke-width:1.5;"/><rect fill="none" height="109.4063" style="stroke:#000000;stroke-width:1.5;" width="733.6567" x="943.7964" y="1141.0469"/><text fill="#000000" font-family="sans-serif" font-size="13" font-weight="bold" lengthAdjust="spacing" textLength="15.1709" x="958.7964" y="1155.542">alt</text><text fill="#000000" font-family="sans-serif" font-size="11" font-weight="bold" lengthAdjust="spacing" textLength="131.4038" x="1018.9673" y="1154.4658">[Upload Story Instagram]</text><polygon fill="#181818" points="1623.936,1177.75,1633.936,1181.75,1623.936,1185.75,1627.936,1181.75" style="stroke:#181818;stroke-width:1.0;"/><line style="stroke:#181818;stroke-width:1.0;" x1="1021.4824" x2="1629.936" y1="1181.75" y2="1181.75"/><text fill="#000000" font-family="sans-serif" font-size="13" lengthAdjust="spacing" textLength="150.9219" x="1253.2483" y="1176.8936">store(ig_image, 'points/ig')</text><polygon fill="#181818" points="1534.1846,1208.1016,1544.1846,1212.1016,1534.1846,1216.1016,1538.1846,1212.1016" style="stroke:#181818;stroke-width:1.0;"/><line style="stroke:#181818;stroke-width:1.0;" x1="1021.4824" x2="1540.1846" y1="1212.1016" y2="1212.1016"/><text fill="#000000" font-family="sans-serif" font-size="13" lengthAdjust="spacing" textLength="359.4233" x="1104.1218" y="1207.2451">create(phone, action='Story Instagram', points=5, image=path)</text><polygon fill="#181818" points="1438.6089,1238.4531,1448.6089,1242.4531,1438.6089,1246.4531,1442.6089,1242.4531" style="stroke:#181818;stroke-width:1.0;"/><line style="stroke:#181818;stroke-width:1.0;" x1="1021.4824" x2="1444.6089" y1="1242.4531" y2="1242.4531"/><text fill="#000000" font-family="sans-serif" font-size="13" lengthAdjust="spacing" textLength="119.8438" x="1176.1238" y="1237.5967">increment('points', 5)</text><path d="M943.7964,1264.4531 L1003.9673,1264.4531 L1003.9673,1272.8047 L993.9673,1282.8047 L943.7964,1282.8047 L943.7964,1264.4531 " fill="#EEEEEE" style="stroke:#000000;stroke-width:1.5;"/><rect fill="none" height="109.4063" style="stroke:#000000;stroke-width:1.5;" width="733.6567" x="943.7964" y="1264.4531"/><text fill="#000000" font-family="sans-serif" font-size="13" font-weight="bold" lengthAdjust="spacing" textLength="15.1709" x="958.7964" y="1278.9482">alt</text><text fill="#000000" font-family="sans-serif" font-size="11" font-weight="bold" lengthAdjust="spacing" textLength="153.9946" x="1018.9673" y="1277.8721">[Upload Rating Google Maps]</text><polygon fill="#181818" points="1623.936,1301.1563,1633.936,1305.1563,1623.936,1309.1563,1627.936,1305.1563" style="stroke:#181818;stroke-width:1.0;"/><line style="stroke:#181818;stroke-width:1.0;" x1="1021.4824" x2="1629.936" y1="1305.1563" y2="1305.1563"/><text fill="#000000" font-family="sans-serif" font-size="13" lengthAdjust="spacing" textLength="208.7236" x="1224.3474" y="1300.2998">store(gmaps_image, 'points/gmaps')</text><polygon fill="#181818" points="1534.1846,1331.5078,1544.1846,1335.5078,1534.1846,1339.5078,1538.1846,1335.5078" style="stroke:#181818;stroke-width:1.0;"/><line style="stroke:#181818;stroke-width:1.0;" x1="1021.4824" x2="1540.1846" y1="1335.5078" y2="1335.5078"/><text fill="#000000" font-family="sans-serif" font-size="13" lengthAdjust="spacing" textLength="357.9888" x="1104.8391" y="1330.6514">create(phone, action='Rating Gmaps', points=10, image=path)</text><polygon fill="#181818" points="1438.6089,1361.8594,1448.6089,1365.8594,1438.6089,1369.8594,1442.6089,1365.8594" style="stroke:#181818;stroke-width:1.0;"/><line style="stroke:#181818;stroke-width:1.0;" x1="1021.4824" x2="1444.6089" y1="1365.8594" y2="1365.8594"/><text fill="#000000" font-family="sans-serif" font-size="13" lengthAdjust="spacing" textLength="127.0737" x="1172.5088" y="1361.0029">increment('points', 10)</text><polygon fill="#181818" points="521.4902,1399.2109,511.4902,1403.2109,521.4902,1407.2109,517.4902,1403.2109" style="stroke:#181818;stroke-width:1.0;"/><line style="stroke:#181818;stroke-width:1.0;stroke-dasharray:2.0,2.0;" x1="515.4902" x2="1020.4824" y1="1403.2109" y2="1403.2109"/><text fill="#000000" font-family="sans-serif" font-size="13" lengthAdjust="spacing" textLength="361.1626" x="585.405" y="1398.3545">showSuccess("Poin berhasil ditambahkan: {total_points} poin")</text><polygon fill="#181818" points="498.4902,1429.5625,508.4902,1433.5625,498.4902,1437.5625,502.4902,1433.5625" style="stroke:#181818;stroke-width:1.0;"/><line style="stroke:#181818;stroke-width:1.0;" x1="45.7344" x2="504.4902" y1="1433.5625" y2="1433.5625"/><text fill="#000000" font-family="sans-serif" font-size="13" lengthAdjust="spacing" textLength="180.6353" x="187.7947" y="1428.7061">Lihat riwayat poin(customer_id)</text><polygon fill="#181818" points="1009.4824,1459.9141,1019.4824,1463.9141,1009.4824,1467.9141,1013.4824,1463.9141" style="stroke:#181818;stroke-width:1.0;"/><line style="stroke:#181818;stroke-width:1.0;" x1="510.4902" x2="1015.4824" y1="1463.9141" y2="1463.9141"/><text fill="#000000" font-family="sans-serif" font-size="13" lengthAdjust="spacing" textLength="174.1162" x="678.9282" y="1459.0576">getPointsHistory(customer_id)</text><polygon fill="#181818" points="1438.6089,1490.2656,1448.6089,1494.2656,1438.6089,1498.2656,1442.6089,1494.2656" style="stroke:#181818;stroke-width:1.0;"/><line style="stroke:#181818;stroke-width:1.0;" x1="1021.4824" x2="1444.6089" y1="1494.2656" y2="1494.2656"/><text fill="#000000" font-family="sans-serif" font-size="13" lengthAdjust="spacing" textLength="100.4263" x="1185.8325" y="1489.4092">find(customer_id)</text><polygon fill="#181818" points="1534.1846,1520.6172,1544.1846,1524.6172,1534.1846,1528.6172,1538.1846,1524.6172" style="stroke:#181818;stroke-width:1.0;"/><line style="stroke:#181818;stroke-width:1.0;" x1="1021.4824" x2="1540.1846" y1="1524.6172" y2="1524.6172"/><text fill="#000000" font-family="sans-serif" font-size="13" lengthAdjust="spacing" textLength="275.9263" x="1145.8704" y="1519.7607">where('phone', customer.phone)-&gt;latest()-&gt;get()</text><polygon fill="#181818" points="521.4902,1550.9688,511.4902,1554.9688,521.4902,1558.9688,517.4902,1554.9688" style="stroke:#181818;stroke-width:1.0;"/><line style="stroke:#181818;stroke-width:1.0;stroke-dasharray:2.0,2.0;" x1="515.4902" x2="1020.4824" y1="1554.9688" y2="1554.9688"/><text fill="#000000" font-family="sans-serif" font-size="13" lengthAdjust="spacing" textLength="89.5718" x="721.2004" y="1550.1123">displayHistory()</text><polygon fill="#181818" points="498.4902,1581.3203,508.4902,1585.3203,498.4902,1589.3203,502.4902,1585.3203" style="stroke:#181818;stroke-width:1.0;"/><line style="stroke:#181818;stroke-width:1.0;" x1="45.7344" x2="504.4902" y1="1585.3203" y2="1585.3203"/><text fill="#000000" font-family="sans-serif" font-size="13" lengthAdjust="spacing" textLength="120.6943" x="217.7651" y="1580.4639">Hapus pelanggan(id)</text><polygon fill="#181818" points="1009.4824,1611.6719,1019.4824,1615.6719,1009.4824,1619.6719,1013.4824,1615.6719" style="stroke:#181818;stroke-width:1.0;"/><line style="stroke:#181818;stroke-width:1.0;" x1="510.4902" x2="1015.4824" y1="1615.6719" y2="1615.6719"/><text fill="#000000" font-family="sans-serif" font-size="13" lengthAdjust="spacing" textLength="61.4072" x="735.2827" y="1610.8154">destroy(id)</text><polygon fill="#181818" points="1438.6089,1642.0234,1448.6089,1646.0234,1438.6089,1650.0234,1442.6089,1646.0234" style="stroke:#181818;stroke-width:1.0;"/><line style="stroke:#181818;stroke-width:1.0;" x1="1021.4824" x2="1444.6089" y1="1646.0234" y2="1646.0234"/><text fill="#000000" font-family="sans-serif" font-size="13" lengthAdjust="spacing" textLength="39.7363" x="1216.1775" y="1641.167">find(id)</text><polygon fill="#181818" points="1438.6089,1672.375,1448.6089,1676.375,1438.6089,1680.375,1442.6089,1676.375" style="stroke:#181818;stroke-width:1.0;"/><line style="stroke:#181818;stroke-width:1.0;" x1="1021.4824" x2="1444.6089" y1="1676.375" y2="1676.375"/><text fill="#000000" font-family="sans-serif" font-size="13" lengthAdjust="spacing" textLength="44.0781" x="1214.0066" y="1671.5186">delete()</text><polygon fill="#181818" points="521.4902,1702.7266,511.4902,1706.7266,521.4902,1710.7266,517.4902,1706.7266" style="stroke:#181818;stroke-width:1.0;"/><line style="stroke:#181818;stroke-width:1.0;stroke-dasharray:2.0,2.0;" x1="515.4902" x2="1020.4824" y1="1706.7266" y2="1706.7266"/><text fill="#000000" font-family="sans-serif" font-size="13" lengthAdjust="spacing" textLength="257.8228" x="637.075" y="1701.8701">showSuccess("Pelanggan berhasil dihapus")</text><polygon fill="#181818" points="498.4902,1733.0781,508.4902,1737.0781,498.4902,1741.0781,502.4902,1737.0781" style="stroke:#181818;stroke-width:1.0;"/><line style="stroke:#181818;stroke-width:1.0;" x1="45.7344" x2="504.4902" y1="1737.0781" y2="1737.0781"/><text fill="#000000" font-family="sans-serif" font-size="13" lengthAdjust="spacing" textLength="135.8525" x="210.186" y="1732.2217">Cari pelanggan(search)</text><polygon fill="#181818" points="1009.4824,1763.4297,1019.4824,1767.4297,1009.4824,1771.4297,1013.4824,1767.4297" style="stroke:#181818;stroke-width:1.0;"/><line style="stroke:#181818;stroke-width:1.0;" x1="510.4902" x2="1015.4824" y1="1767.4297" y2="1767.4297"/><text fill="#000000" font-family="sans-serif" font-size="13" lengthAdjust="spacing" textLength="86.6963" x="722.6382" y="1762.5732">search(search)</text><polygon fill="#181818" points="1438.6089,1793.7813,1448.6089,1797.7813,1438.6089,1801.7813,1442.6089,1797.7813" style="stroke:#181818;stroke-width:1.0;"/><line style="stroke:#181818;stroke-width:1.0;" x1="1021.4824" x2="1444.6089" y1="1797.7813" y2="1797.7813"/><text fill="#000000" font-family="sans-serif" font-size="13" lengthAdjust="spacing" textLength="405.1265" x="1033.4824" y="1792.9248">where('name', 'like', '%search%')-&gt;orWhere('phone', 'like', '%search%')</text><polygon fill="#181818" points="521.4902,1824.1328,511.4902,1828.1328,521.4902,1832.1328,517.4902,1828.1328" style="stroke:#181818;stroke-width:1.0;"/><line style="stroke:#181818;stroke-width:1.0;stroke-dasharray:2.0,2.0;" x1="515.4902" x2="1020.4824" y1="1828.1328" y2="1828.1328"/><text fill="#000000" font-family="sans-serif" font-size="13" lengthAdjust="spacing" textLength="133.6626" x="699.155" y="1823.2764">displaySearchResults()</text><!--SRC=[fLPDRziu4BthLmmCjB80PviUUYcG0ArJD4NNXL6dkvS2naIQI8GfKajI3OnY__iEAScIR3bDiRx88jzyFRuPokw4gj1W2PR-gKcbj29hCQTtKkGAKbAEJ1GvuIJ1feN0ZS2SRRwhpoIrH5YJH9NdgE0bhBLGKOIfqmPcdz4Ay-fTLWer0xJmpR8tZkT4AYfK3cRBsZfTabbpp01PhgS1IwsSqLAIQM3BQLYpkHfl-foSlHKCCVk0MD-E4HlUwJBOt4MHJnGkhZaRU0ihKZdkB5d8yC6XWQghD-9zZreogjIrSlCauXU_jE8bRJ8ox_VpE3M4Zh8jkdW1SKOsZPEBwvmwV1Sf4xQIkE-AiRmzJkKEotii-WJW7aqzLrZI0gf2Aqg6AVbwwMXtUTZzWL9adDOO4A5qiFR_OLDd7EkEJ5Ds1FmRPciB_VZ166tcio-wvFDs9AdI2cmmT9tXB8b8MeA_Ga0hu3sPWf_ouB7bgw5fc0y_mjbTNIQJuJTrch9WvxDUWlUjSoRJ1RPsg7m6AZlYyWC3UYRd8bl0EIBhAX1r2kbpVn0gOy1p6Vub5st8aUMJ3DoWmw4mUXegCbucukGSFcAEygbZ3JuTWtTDBPCy_YaAT92HGuusv7EiHVOwv6UACx_c32hBuqDenVA_k4vFs-eO8faew_o_1s5i3rxVClYn8Ew1E338pPUshVL7G-dG-BGTVSvTBzw4-kQT_GASTYYtmrmM8D6wuL8dtsqHPeyWUwwX6SRJnGZ0dHC_MBaMIZGxSaBbXw1RBq2HRqN9ise1UOcLRLv6L6EMDHFlUOP7vp6mcHRp6Jz1rjyggJ43Fqxty4bP5owAWROtTuUvrFk96vPUYJnE1jXmVkrCQAT1G-jLV1GWFio9DrodTtfLeIkIuwOIYjsLVAdDsv1i-ARLz23zh-XfXuzQvtpjhRZ8wGe6zVT5XCNdrj552ZQ78bvV_dOLho_RCivFI2-ngU7u5dusMcwS_Hkoc2MJNMx48-xvwI57Ikdrnuqqkd4d9VMKtlvtuxRtQ1V_k9PRh6fxVbJn_SoV6lldJAkCRpm-rIJwlOkfy0cSKBpq_TzdPGbDMeo7Q5ZgT_f4MhRyTU4_CQJOXUUB1lh2Vsvey_UOqWdK58kRiFcLR2sT_oBv3m00]--></g></svg>