<svg xmlns="http://www.w3.org/2000/svg" xmlns:xlink="http://www.w3.org/1999/xlink" contentStyleType="text/css" height="735px" preserveAspectRatio="none" style="width:808px;height:735px;background:#FFFFFF;" version="1.1" viewBox="0 0 808 735" width="808px" zoomAndPan="magnify"><title>Sequence Diagram</title><defs/><g><text fill="#000000" font-family="sans-serif" font-size="14" font-weight="bold" lengthAdjust="spacing" textLength="126.0479" x="342.4221" y="29.5332">Sequence Diagram</text><text fill="#000000" font-family="sans-serif" font-size="14" font-weight="bold" lengthAdjust="spacing" textLength="199.9307" x="305.4807" y="47.1426">Aktivasi Akun Pengguna Baru</text><rect fill="none" height="389.7031" style="stroke:#000000;stroke-width:1.5;" width="791.8921" x="10" y="246.8828"/><line style="stroke:#181818;stroke-width:0.5;stroke-dasharray:5.0,5.0;" x1="71" x2="71" y1="138.8281" y2="653.5859"/><line style="stroke:#181818;stroke-width:0.5;stroke-dasharray:5.0,5.0;" x1="273.4194" x2="273.4194" y1="138.8281" y2="653.5859"/><line style="stroke:#181818;stroke-width:0.5;stroke-dasharray:5.0,5.0;" x1="472.5459" x2="472.5459" y1="138.8281" y2="653.5859"/><line style="stroke:#181818;stroke-width:0.5;stroke-dasharray:5.0,5.0;" x1="688.1763" x2="688.1763" y1="138.8281" y2="653.5859"/><text fill="#000000" font-family="sans-serif" font-size="14" lengthAdjust="spacing" textLength="97.3027" x="20" y="135.752">Pengguna Baru</text><ellipse cx="71.6514" cy="69.7188" fill="#E2E2F0" rx="8" ry="8" style="stroke:#181818;stroke-width:0.5;"/><path d="M71.6514,77.7188 L71.6514,104.7188 M58.6514,85.7188 L84.6514,85.7188 M71.6514,104.7188 L58.6514,119.7188 M71.6514,104.7188 L84.6514,119.7188 " fill="none" style="stroke:#181818;stroke-width:0.5;"/><text fill="#000000" font-family="sans-serif" font-size="14" lengthAdjust="spacing" textLength="97.3027" x="20" y="667.1191">Pengguna Baru</text><ellipse cx="71.6514" cy="678.6953" fill="#E2E2F0" rx="8" ry="8" style="stroke:#181818;stroke-width:0.5;"/><path d="M71.6514,686.6953 L71.6514,713.6953 M58.6514,694.6953 L84.6514,694.6953 M71.6514,713.6953 L58.6514,728.6953 M71.6514,713.6953 L84.6514,728.6953 " fill="none" style="stroke:#181818;stroke-width:0.5;"/><rect fill="#E2E2F0" height="31.6094" rx="2.5" ry="2.5" style="stroke:#181818;stroke-width:0.5;" width="107.3926" x="220.4194" y="106.2188"/><text fill="#000000" font-family="sans-serif" font-size="14" lengthAdjust="spacing" textLength="93.3926" x="227.4194" y="127.752">ActivationPage</text><rect fill="#E2E2F0" height="31.6094" rx="2.5" ry="2.5" style="stroke:#181818;stroke-width:0.5;" width="107.3926" x="220.4194" y="652.5859"/><text fill="#000000" font-family="sans-serif" font-size="14" lengthAdjust="spacing" textLength="93.3926" x="227.4194" y="674.1191">ActivationPage</text><rect fill="#E2E2F0" height="31.6094" rx="2.5" ry="2.5" style="stroke:#181818;stroke-width:0.5;" width="124.4893" x="410.5459" y="106.2188"/><text fill="#000000" font-family="sans-serif" font-size="14" lengthAdjust="spacing" textLength="110.4893" x="417.5459" y="127.752">ActivateController</text><rect fill="#E2E2F0" height="31.6094" rx="2.5" ry="2.5" style="stroke:#181818;stroke-width:0.5;" width="124.4893" x="410.5459" y="652.5859"/><text fill="#000000" font-family="sans-serif" font-size="14" lengthAdjust="spacing" textLength="110.4893" x="417.5459" y="674.1191">ActivateController</text><rect fill="#E2E2F0" height="31.6094" rx="2.5" ry="2.5" style="stroke:#181818;stroke-width:0.5;" width="85.5791" x="646.1763" y="106.2188"/><text fill="#000000" font-family="sans-serif" font-size="14" lengthAdjust="spacing" textLength="71.5791" x="653.1763" y="127.752">User Model</text><rect fill="#E2E2F0" height="31.6094" rx="2.5" ry="2.5" style="stroke:#181818;stroke-width:0.5;" width="85.5791" x="646.1763" y="652.5859"/><text fill="#000000" font-family="sans-serif" font-size="14" lengthAdjust="spacing" textLength="71.5791" x="653.1763" y="674.1191">User Model</text><polygon fill="#181818" points="262.1157,167.1797,272.1157,171.1797,262.1157,175.1797,266.1157,171.1797" style="stroke:#181818;stroke-width:1.0;"/><line style="stroke:#181818;stroke-width:1.0;" x1="71.6514" x2="268.1157" y1="171.1797" y2="171.1797"/><text fill="#000000" font-family="sans-serif" font-size="13" lengthAdjust="spacing" textLength="177.0171" x="84.375" y="166.3232">Mengakses link aktivasi(token)</text><polygon fill="#181818" points="460.7905,197.5313,470.7905,201.5313,460.7905,205.5313,464.7905,201.5313" style="stroke:#181818;stroke-width:1.0;"/><line style="stroke:#181818;stroke-width:1.0;" x1="274.1157" x2="466.7905" y1="201.5313" y2="201.5313"/><text fill="#000000" font-family="sans-serif" font-size="13" lengthAdjust="spacing" textLength="76.5908" x="335.1577" y="196.6748">mount(token)</text><polygon fill="#181818" points="676.9658,227.8828,686.9658,231.8828,676.9658,235.8828,680.9658,231.8828" style="stroke:#181818;stroke-width:1.0;"/><line style="stroke:#181818;stroke-width:1.0;" x1="472.7905" x2="682.9658" y1="231.8828" y2="231.8828"/><text fill="#000000" font-family="sans-serif" font-size="13" lengthAdjust="spacing" textLength="112.7217" x="524.5173" y="227.0264">findByToken(token)</text><path d="M10,246.8828 L70.1709,246.8828 L70.1709,255.2344 L60.1709,265.2344 L10,265.2344 L10,246.8828 " fill="#EEEEEE" style="stroke:#000000;stroke-width:1.5;"/><rect fill="none" height="389.7031" style="stroke:#000000;stroke-width:1.5;" width="791.8921" x="10" y="246.8828"/><text fill="#000000" font-family="sans-serif" font-size="13" font-weight="bold" lengthAdjust="spacing" textLength="15.1709" x="25" y="261.3779">alt</text><text fill="#000000" font-family="sans-serif" font-size="11" font-weight="bold" lengthAdjust="spacing" textLength="69.0615" x="85.1709" y="260.3018">[Token Valid]</text><line style="stroke:#181818;stroke-width:1.0;" x1="472.7905" x2="514.7905" y1="287.5859" y2="287.5859"/><line style="stroke:#181818;stroke-width:1.0;" x1="514.7905" x2="514.7905" y1="287.5859" y2="300.5859"/><line style="stroke:#181818;stroke-width:1.0;" x1="473.7905" x2="514.7905" y1="300.5859" y2="300.5859"/><polygon fill="#181818" points="483.7905,296.5859,473.7905,300.5859,483.7905,304.5859,479.7905,300.5859" style="stroke:#181818;stroke-width:1.0;"/><text fill="#000000" font-family="sans-serif" font-size="13" lengthAdjust="spacing" textLength="114.8672" x="479.7905" y="282.7295">checkTokenExpiry()</text><polygon fill="#181818" points="285.1157,326.9375,275.1157,330.9375,285.1157,334.9375,281.1157,330.9375" style="stroke:#181818;stroke-width:1.0;"/><line style="stroke:#181818;stroke-width:1.0;stroke-dasharray:2.0,2.0;" x1="279.1157" x2="471.7905" y1="330.9375" y2="330.9375"/><text fill="#000000" font-family="sans-serif" font-size="13" lengthAdjust="spacing" textLength="126.4136" x="310.2463" y="326.0811">showPasswordForm()</text><polygon fill="#181818" points="262.1157,357.2891,272.1157,361.2891,262.1157,365.2891,266.1157,361.2891" style="stroke:#181818;stroke-width:1.0;"/><line style="stroke:#181818;stroke-width:1.0;" x1="71.6514" x2="268.1157" y1="361.2891" y2="361.2891"/><text fill="#000000" font-family="sans-serif" font-size="13" lengthAdjust="spacing" textLength="178.4644" x="83.6514" y="356.4326">Mengatur password(password)</text><polygon fill="#181818" points="460.7905,387.6406,470.7905,391.6406,460.7905,395.6406,464.7905,391.6406" style="stroke:#181818;stroke-width:1.0;"/><line style="stroke:#181818;stroke-width:1.0;" x1="274.1157" x2="466.7905" y1="391.6406" y2="391.6406"/><text fill="#000000" font-family="sans-serif" font-size="13" lengthAdjust="spacing" textLength="138.7153" x="304.0955" y="386.7842">setPassword(password)</text><polygon fill="#181818" points="676.9658,417.9922,686.9658,421.9922,676.9658,425.9922,680.9658,421.9922" style="stroke:#181818;stroke-width:1.0;"/><line style="stroke:#181818;stroke-width:1.0;" x1="472.7905" x2="682.9658" y1="421.9922" y2="421.9922"/><text fill="#000000" font-family="sans-serif" font-size="13" lengthAdjust="spacing" textLength="192.1753" x="484.7905" y="417.1357">activateWithPassword(password)</text><line style="stroke:#181818;stroke-width:1.0;" x1="688.9658" x2="730.9658" y1="452.3438" y2="452.3438"/><line style="stroke:#181818;stroke-width:1.0;" x1="730.9658" x2="730.9658" y1="452.3438" y2="465.3438"/><line style="stroke:#181818;stroke-width:1.0;" x1="689.9658" x2="730.9658" y1="465.3438" y2="465.3438"/><polygon fill="#181818" points="699.9658,461.3438,689.9658,465.3438,699.9658,469.3438,695.9658,465.3438" style="stroke:#181818;stroke-width:1.0;"/><text fill="#000000" font-family="sans-serif" font-size="13" lengthAdjust="spacing" textLength="93.9263" x="695.9658" y="447.4873">hashPassword()</text><line style="stroke:#181818;stroke-width:1.0;" x1="688.9658" x2="730.9658" y1="495.6953" y2="495.6953"/><line style="stroke:#181818;stroke-width:1.0;" x1="730.9658" x2="730.9658" y1="495.6953" y2="508.6953"/><line style="stroke:#181818;stroke-width:1.0;" x1="689.9658" x2="730.9658" y1="508.6953" y2="508.6953"/><polygon fill="#181818" points="699.9658,504.6953,689.9658,508.6953,699.9658,512.6953,695.9658,508.6953" style="stroke:#181818;stroke-width:1.0;"/><text fill="#000000" font-family="sans-serif" font-size="13" lengthAdjust="spacing" textLength="93.9136" x="695.9658" y="490.8389">setIsActive(true)</text><line style="stroke:#181818;stroke-width:1.0;" x1="688.9658" x2="730.9658" y1="539.0469" y2="539.0469"/><line style="stroke:#181818;stroke-width:1.0;" x1="730.9658" x2="730.9658" y1="539.0469" y2="552.0469"/><line style="stroke:#181818;stroke-width:1.0;" x1="689.9658" x2="730.9658" y1="552.0469" y2="552.0469"/><polygon fill="#181818" points="699.9658,548.0469,689.9658,552.0469,699.9658,556.0469,695.9658,552.0469" style="stroke:#181818;stroke-width:1.0;"/><text fill="#000000" font-family="sans-serif" font-size="13" lengthAdjust="spacing" textLength="72.9663" x="695.9658" y="534.1904">clearToken()</text><polygon fill="#181818" points="285.1157,578.3984,275.1157,582.3984,285.1157,586.3984,281.1157,582.3984" style="stroke:#181818;stroke-width:1.0;"/><line style="stroke:#181818;stroke-width:1.0;stroke-dasharray:2.0,2.0;" x1="279.1157" x2="471.7905" y1="582.3984" y2="582.3984"/><text fill="#000000" font-family="sans-serif" font-size="13" lengthAdjust="spacing" textLength="130.7744" x="308.0659" y="577.542">redirectToDashboard()</text><line style="stroke:#000000;stroke-width:1.0;stroke-dasharray:2.0,2.0;" x1="10" x2="801.8921" y1="591.3984" y2="591.3984"/><text fill="#000000" font-family="sans-serif" font-size="11" font-weight="bold" lengthAdjust="spacing" textLength="100.8477" x="15" y="602.8174">[Token Tidak Valid]</text><polygon fill="#181818" points="285.1157,624.5859,275.1157,628.5859,285.1157,632.5859,281.1157,628.5859" style="stroke:#181818;stroke-width:1.0;"/><line style="stroke:#181818;stroke-width:1.0;stroke-dasharray:2.0,2.0;" x1="279.1157" x2="471.7905" y1="628.5859" y2="628.5859"/><text fill="#000000" font-family="sans-serif" font-size="13" lengthAdjust="spacing" textLength="174.6748" x="286.1157" y="623.7295">showError("Token tidak valid")</text><!--SRC=[TP7DJiCm48JlVefLJkc15-20bFuWSGYAH0eNBekpf5PSkwmtBNrxdDIbBIqvHD7Evndl97J6RP1n3O6-UdAQIWe1MogiQHreSaAib1Yn12y9WRd1DfvvTqKdPel1GD7r3YfoRTixX2bohnHgyGpPnJG33F1CksM8jZ5OZ3ORT09PeGShCTvLCNxaYkecGZFlXBsrn0UidbroWpcKlY4xwijIgHG9Tm_H5UwXZ9V2Bb00Qrm7cFR8nNVa9Yeo0rdF8hhslPDV8OwYiYoZy6bSCztNWt2K5Lg1SGAlQ4sZ83xfpC5DhqXt8x7utXZUvvCJSxnSMFbTXI7iF3UFdjU96Lyt5v6UOPCEvCUFP7osII2f_g7EriBKyfkHrJzuv8xq2iE9kb9ZubCOVnlbmZrT0TeIyg726qKmDOP9I-tdCUR3uvX1Db0gkJODTd-hFgznmUmvpmwqZFHseBDeunhr0m00]--></g></svg>