<svg xmlns="http://www.w3.org/2000/svg" xmlns:xlink="http://www.w3.org/1999/xlink" contentStyleType="text/css" height="2383px" preserveAspectRatio="none" style="width:1142px;height:2383px;background:#FFFFFF;" version="1.1" viewBox="0 0 1142 2383" width="1142px" zoomAndPan="magnify"><title>Sequence Diagram: Mengelola Metode Pembayaran</title><defs/><g><text fill="#000000" font-family="sans-serif" font-size="14" font-weight="bold" lengthAdjust="spacing" textLength="343.1025" x="395.4768" y="29.5332">Sequence Diagram: Mengelola Metode Pembayaran</text><rect fill="#FFFFFF" height="248.1641" style="stroke:#181818;stroke-width:1.0;" width="10" x="241.061" y="197.9219"/><rect fill="#FFFFFF" height="151.7578" style="stroke:#181818;stroke-width:1.0;" width="10" x="441.1685" y="228.2734"/><rect fill="#FFFFFF" height="225.4609" style="stroke:#181818;stroke-width:1.0;" width="10" x="441.1685" y="768.9531"/><rect fill="#FFFFFF" height="283" style="stroke:#181818;stroke-width:1.0;" width="10" x="441.1685" y="1099.4688"/><rect fill="#FFFFFF" height="30.3516" style="stroke:#181818;stroke-width:1.0;" width="10" x="441.1685" y="1479.5234"/><rect fill="#FFFFFF" height="195.1094" style="stroke:#181818;stroke-width:1.0;" width="10" x="441.1685" y="1570.5781"/><rect fill="#FFFFFF" height="390.0547" style="stroke:#181818;stroke-width:1.0;" width="10" x="441.1685" y="1901.0938"/><rect fill="#FFFFFF" height="91.0547" style="stroke:#181818;stroke-width:1.0;" width="10" x="705.292" y="258.625"/><rect fill="#FFFFFF" height="91.0547" style="stroke:#181818;stroke-width:1.0;" width="10" x="705.292" y="842.6563"/><rect fill="#FFFFFF" height="91.0547" style="stroke:#181818;stroke-width:1.0;" width="10" x="705.292" y="1129.8203"/><rect fill="#FFFFFF" height="91.0547" style="stroke:#181818;stroke-width:1.0;" width="10" x="705.292" y="1644.2813"/><rect fill="#FFFFFF" height="91.0547" style="stroke:#181818;stroke-width:1.0;" width="10" x="705.292" y="1931.4453"/><rect fill="#FFFFFF" height="91.0547" style="stroke:#181818;stroke-width:1.0;" width="10" x="705.292" y="2078.2031"/><rect fill="none" height="139.5938" style="stroke:#000000;stroke-width:1.5;" width="473.9434" x="171.4785" y="1235.875"/><rect fill="none" height="246.6484" style="stroke:#000000;stroke-width:1.5;" width="953.5776" x="171.4785" y="2037.5"/><line style="stroke:#181818;stroke-width:0.5;stroke-dasharray:5.0,5.0;" x1="30" x2="30" y1="121.2188" y2="2301.1484"/><line style="stroke:#181818;stroke-width:0.5;stroke-dasharray:5.0,5.0;" x1="245.4785" x2="245.4785" y1="121.2188" y2="2301.1484"/><line style="stroke:#181818;stroke-width:0.5;stroke-dasharray:5.0,5.0;" x1="445.4688" x2="445.4688" y1="121.2188" y2="2301.1484"/><line style="stroke:#181818;stroke-width:0.5;stroke-dasharray:5.0,5.0;" x1="709.5923" x2="709.5923" y1="121.2188" y2="2301.1484"/><line style="stroke:#181818;stroke-width:0.5;stroke-dasharray:5.0,5.0;" x1="1081.1255" x2="1081.1255" y1="121.2188" y2="2301.1484"/><text fill="#000000" font-family="sans-serif" font-size="14" lengthAdjust="spacing" textLength="45.1172" x="5" y="118.1426">Pemilik</text><ellipse cx="30.5586" cy="52.1094" fill="#E2E2F0" rx="8" ry="8" style="stroke:#181818;stroke-width:0.5;"/><path d="M30.5586,60.1094 L30.5586,87.1094 M17.5586,68.1094 L43.5586,68.1094 M30.5586,87.1094 L17.5586,102.1094 M30.5586,87.1094 L43.5586,102.1094 " fill="none" style="stroke:#181818;stroke-width:0.5;"/><text fill="#000000" font-family="sans-serif" font-size="14" lengthAdjust="spacing" textLength="45.1172" x="5" y="2314.6816">Pemilik</text><ellipse cx="30.5586" cy="2326.2578" fill="#E2E2F0" rx="8" ry="8" style="stroke:#181818;stroke-width:0.5;"/><path d="M30.5586,2334.2578 L30.5586,2361.2578 M17.5586,2342.2578 L43.5586,2342.2578 M30.5586,2361.2578 L17.5586,2376.2578 M30.5586,2361.2578 L43.5586,2376.2578 " fill="none" style="stroke:#181818;stroke-width:0.5;"/><rect fill="#E2E2F0" height="49.2188" rx="2.5" ry="2.5" style="stroke:#181818;stroke-width:0.5;" width="129.165" x="181.4785" y="71"/><text fill="#000000" font-family="sans-serif" font-size="14" lengthAdjust="spacing" textLength="115.165" x="188.4785" y="92.5332">Halaman Payment</text><text fill="#000000" font-family="sans-serif" font-size="14" lengthAdjust="spacing" textLength="52.1514" x="219.9854" y="110.1426">Channel</text><rect fill="#E2E2F0" height="49.2188" rx="2.5" ry="2.5" style="stroke:#181818;stroke-width:0.5;" width="129.165" x="181.4785" y="2300.1484"/><text fill="#000000" font-family="sans-serif" font-size="14" lengthAdjust="spacing" textLength="115.165" x="188.4785" y="2321.6816">Halaman Payment</text><text fill="#000000" font-family="sans-serif" font-size="14" lengthAdjust="spacing" textLength="52.1514" x="219.9854" y="2339.291">Channel</text><rect fill="#E2E2F0" height="49.2188" rx="2.5" ry="2.5" style="stroke:#181818;stroke-width:0.5;" width="121.3994" x="385.4688" y="71"/><text fill="#000000" font-family="sans-serif" font-size="14" lengthAdjust="spacing" textLength="107.3994" x="392.4688" y="92.5332">PaymentChannel</text><text fill="#000000" font-family="sans-serif" font-size="14" lengthAdjust="spacing" textLength="72.3789" x="409.979" y="110.1426">Component</text><rect fill="#E2E2F0" height="49.2188" rx="2.5" ry="2.5" style="stroke:#181818;stroke-width:0.5;" width="121.3994" x="385.4688" y="2300.1484"/><text fill="#000000" font-family="sans-serif" font-size="14" lengthAdjust="spacing" textLength="107.3994" x="392.4688" y="2321.6816">PaymentChannel</text><text fill="#000000" font-family="sans-serif" font-size="14" lengthAdjust="spacing" textLength="72.3789" x="409.979" y="2339.291">Component</text><rect fill="#E2E2F0" height="49.2188" rx="2.5" ry="2.5" style="stroke:#181818;stroke-width:0.5;" width="121.3994" x="649.5923" y="71"/><text fill="#000000" font-family="sans-serif" font-size="14" lengthAdjust="spacing" textLength="107.3994" x="656.5923" y="92.5332">PaymentChannel</text><text fill="#000000" font-family="sans-serif" font-size="14" lengthAdjust="spacing" textLength="38.1309" x="691.2266" y="110.1426">Model</text><rect fill="#E2E2F0" height="49.2188" rx="2.5" ry="2.5" style="stroke:#181818;stroke-width:0.5;" width="121.3994" x="649.5923" y="2300.1484"/><text fill="#000000" font-family="sans-serif" font-size="14" lengthAdjust="spacing" textLength="107.3994" x="656.5923" y="2321.6816">PaymentChannel</text><text fill="#000000" font-family="sans-serif" font-size="14" lengthAdjust="spacing" textLength="38.1309" x="691.2266" y="2339.291">Model</text><text fill="#000000" font-family="sans-serif" font-size="14" lengthAdjust="spacing" textLength="59.9307" x="1049.1255" y="118.1426">Database</text><path d="M1064.0908,67.6094 C1064.0908,57.6094 1082.0908,57.6094 1082.0908,57.6094 C1082.0908,57.6094 1100.0908,57.6094 1100.0908,67.6094 L1100.0908,93.6094 C1100.0908,103.6094 1082.0908,103.6094 1082.0908,103.6094 C1082.0908,103.6094 1064.0908,103.6094 1064.0908,93.6094 L1064.0908,67.6094 " fill="#E2E2F0" style="stroke:#181818;stroke-width:1.5;"/><path d="M1064.0908,67.6094 C1064.0908,77.6094 1082.0908,77.6094 1082.0908,77.6094 C1082.0908,77.6094 1100.0908,77.6094 1100.0908,67.6094 " fill="none" style="stroke:#181818;stroke-width:1.5;"/><text fill="#000000" font-family="sans-serif" font-size="14" lengthAdjust="spacing" textLength="59.9307" x="1049.1255" y="2314.6816">Database</text><path d="M1064.0908,2327.7578 C1064.0908,2317.7578 1082.0908,2317.7578 1082.0908,2317.7578 C1082.0908,2317.7578 1100.0908,2317.7578 1100.0908,2327.7578 L1100.0908,2353.7578 C1100.0908,2363.7578 1082.0908,2363.7578 1082.0908,2363.7578 C1082.0908,2363.7578 1064.0908,2363.7578 1064.0908,2353.7578 L1064.0908,2327.7578 " fill="#E2E2F0" style="stroke:#181818;stroke-width:1.5;"/><path d="M1064.0908,2327.7578 C1064.0908,2337.7578 1082.0908,2337.7578 1082.0908,2337.7578 C1082.0908,2337.7578 1100.0908,2337.7578 1100.0908,2327.7578 " fill="none" style="stroke:#181818;stroke-width:1.5;"/><rect fill="#FFFFFF" height="248.1641" style="stroke:#181818;stroke-width:1.0;" width="10" x="241.061" y="197.9219"/><rect fill="#FFFFFF" height="151.7578" style="stroke:#181818;stroke-width:1.0;" width="10" x="441.1685" y="228.2734"/><rect fill="#FFFFFF" height="225.4609" style="stroke:#181818;stroke-width:1.0;" width="10" x="441.1685" y="768.9531"/><rect fill="#FFFFFF" height="283" style="stroke:#181818;stroke-width:1.0;" width="10" x="441.1685" y="1099.4688"/><rect fill="#FFFFFF" height="30.3516" style="stroke:#181818;stroke-width:1.0;" width="10" x="441.1685" y="1479.5234"/><rect fill="#FFFFFF" height="195.1094" style="stroke:#181818;stroke-width:1.0;" width="10" x="441.1685" y="1570.5781"/><rect fill="#FFFFFF" height="390.0547" style="stroke:#181818;stroke-width:1.0;" width="10" x="441.1685" y="1901.0938"/><rect fill="#FFFFFF" height="91.0547" style="stroke:#181818;stroke-width:1.0;" width="10" x="705.292" y="258.625"/><rect fill="#FFFFFF" height="91.0547" style="stroke:#181818;stroke-width:1.0;" width="10" x="705.292" y="842.6563"/><rect fill="#FFFFFF" height="91.0547" style="stroke:#181818;stroke-width:1.0;" width="10" x="705.292" y="1129.8203"/><rect fill="#FFFFFF" height="91.0547" style="stroke:#181818;stroke-width:1.0;" width="10" x="705.292" y="1644.2813"/><rect fill="#FFFFFF" height="91.0547" style="stroke:#181818;stroke-width:1.0;" width="10" x="705.292" y="1931.4453"/><rect fill="#FFFFFF" height="91.0547" style="stroke:#181818;stroke-width:1.0;" width="10" x="705.292" y="2078.2031"/><rect fill="#EEEEEE" height="3" style="stroke:#EEEEEE;stroke-width:1.0;" width="1135.0562" x="0" y="152.3945"/><line style="stroke:#000000;stroke-width:1.0;" x1="0" x2="1135.0562" y1="152.3945" y2="152.3945"/><line style="stroke:#000000;stroke-width:1.0;" x1="0" x2="1135.0562" y1="155.3945" y2="155.3945"/><rect fill="#EEEEEE" height="24.3516" style="stroke:#000000;stroke-width:2.0;" width="239.3989" x="447.8286" y="141.2188"/><text fill="#000000" font-family="sans-serif" font-size="13" font-weight="bold" lengthAdjust="spacing" textLength="221.7871" x="453.8286" y="158.7139">Melihat Daftar Channel Pembayaran</text><polygon fill="#181818" points="229.061,193.9219,239.061,197.9219,229.061,201.9219,233.061,197.9219" style="stroke:#181818;stroke-width:1.0;"/><line style="stroke:#181818;stroke-width:1.0;" x1="30.5586" x2="235.061" y1="197.9219" y2="197.9219"/><text fill="#000000" font-family="sans-serif" font-size="13" lengthAdjust="spacing" textLength="191.5024" x="37.5586" y="193.0654">Akses halaman payment channel</text><polygon fill="#181818" points="429.1685,224.2734,439.1685,228.2734,429.1685,232.2734,433.1685,228.2734" style="stroke:#181818;stroke-width:1.0;"/><line style="stroke:#181818;stroke-width:1.0;" x1="251.061" x2="435.1685" y1="228.2734" y2="228.2734"/><text fill="#000000" font-family="sans-serif" font-size="13" lengthAdjust="spacing" textLength="44.7891" x="258.061" y="223.417">mount()</text><polygon fill="#181818" points="693.292,254.625,703.292,258.625,693.292,262.625,697.292,258.625" style="stroke:#181818;stroke-width:1.0;"/><line style="stroke:#181818;stroke-width:1.0;" x1="451.1685" x2="699.292" y1="258.625" y2="258.625"/><text fill="#000000" font-family="sans-serif" font-size="13" lengthAdjust="spacing" textLength="128.6162" x="458.1685" y="253.7686">PaymentChannel::all()</text><polygon fill="#181818" points="1070.0908,284.9766,1080.0908,288.9766,1070.0908,292.9766,1074.0908,288.9766" style="stroke:#181818;stroke-width:1.0;"/><line style="stroke:#181818;stroke-width:1.0;" x1="715.292" x2="1076.0908" y1="288.9766" y2="288.9766"/><text fill="#000000" font-family="sans-serif" font-size="13" lengthAdjust="spacing" textLength="213.8652" x="722.292" y="284.1201">SELECT * FROM payment_channels</text><polygon fill="#181818" points="726.292,315.3281,716.292,319.3281,726.292,323.3281,722.292,319.3281" style="stroke:#181818;stroke-width:1.0;"/><line style="stroke:#181818;stroke-width:1.0;stroke-dasharray:2.0,2.0;" x1="720.292" x2="1081.0908" y1="319.3281" y2="319.3281"/><text fill="#000000" font-family="sans-serif" font-size="13" lengthAdjust="spacing" textLength="76.6099" x="732.292" y="314.4717">Data channel</text><polygon fill="#181818" points="462.1685,345.6797,452.1685,349.6797,462.1685,353.6797,458.1685,349.6797" style="stroke:#181818;stroke-width:1.0;"/><line style="stroke:#181818;stroke-width:1.0;stroke-dasharray:2.0,2.0;" x1="456.1685" x2="709.292" y1="349.6797" y2="349.6797"/><text fill="#000000" font-family="sans-serif" font-size="13" lengthAdjust="spacing" textLength="106.2344" x="468.1685" y="344.8232">Collection channel</text><polygon fill="#181818" points="262.061,376.0313,252.061,380.0313,262.061,384.0313,258.061,380.0313" style="stroke:#181818;stroke-width:1.0;"/><line style="stroke:#181818;stroke-width:1.0;stroke-dasharray:2.0,2.0;" x1="256.061" x2="445.1685" y1="380.0313" y2="380.0313"/><text fill="#000000" font-family="sans-serif" font-size="13" lengthAdjust="spacing" textLength="79.4917" x="268.061" y="375.1748">Render daftar</text><polygon fill="#181818" points="41.5586,442.0859,31.5586,446.0859,41.5586,450.0859,37.5586,446.0859" style="stroke:#181818;stroke-width:1.0;"/><line style="stroke:#181818;stroke-width:1.0;stroke-dasharray:2.0,2.0;" x1="35.5586" x2="245.061" y1="446.0859" y2="446.0859"/><text fill="#000000" font-family="sans-serif" font-size="13" lengthAdjust="spacing" textLength="113.4453" x="47.5586" y="441.2295">Tampilkan halaman</text><path d="M256,393.0313 L256,484.0313 L398,484.0313 L398,403.0313 L388,393.0313 L256,393.0313 " fill="#FEFFDD" style="stroke:#181818;stroke-width:0.5;"/><path d="M388,393.0313 L388,403.0313 L398,403.0313 L388,393.0313 " fill="#FEFFDD" style="stroke:#181818;stroke-width:0.5;"/><text fill="#000000" font-family="sans-serif" font-size="13" lengthAdjust="spacing" textLength="119.939" x="262" y="411.5264">Daftar menampilkan:</text><text fill="#000000" font-family="sans-serif" font-size="13" lengthAdjust="spacing" textLength="65.0444" x="262" y="427.8779">- Logo/Icon</text><text fill="#000000" font-family="sans-serif" font-size="13" lengthAdjust="spacing" textLength="91.7681" x="262" y="444.2295">- Nama channel</text><text fill="#000000" font-family="sans-serif" font-size="13" lengthAdjust="spacing" textLength="100.4263" x="262" y="460.5811">- Nomor rekening</text><text fill="#000000" font-family="sans-serif" font-size="13" lengthAdjust="spacing" textLength="121.3926" x="262" y="476.9326">- Status aktif/nonaktif</text><rect fill="#EEEEEE" height="3" style="stroke:#EEEEEE;stroke-width:1.0;" width="1135.0562" x="0" y="510.9648"/><line style="stroke:#000000;stroke-width:1.0;" x1="0" x2="1135.0562" y1="510.9648" y2="510.9648"/><line style="stroke:#000000;stroke-width:1.0;" x1="0" x2="1135.0562" y1="513.9648" y2="513.9648"/><rect fill="#EEEEEE" height="24.3516" style="stroke:#000000;stroke-width:2.0;" width="140.4072" x="497.3245" y="499.7891"/><text fill="#000000" font-family="sans-serif" font-size="13" font-weight="bold" lengthAdjust="spacing" textLength="122.7954" x="503.3245" y="517.2842">Menambah Channel</text><polygon fill="#181818" points="234.061,552.4922,244.061,556.4922,234.061,560.4922,238.061,556.4922" style="stroke:#181818;stroke-width:1.0;"/><line style="stroke:#181818;stroke-width:1.0;" x1="30.5586" x2="240.061" y1="556.4922" y2="556.4922"/><text fill="#000000" font-family="sans-serif" font-size="13" lengthAdjust="spacing" textLength="114.8799" x="37.5586" y="551.6357">Klik tombol Tambah</text><polygon fill="#181818" points="41.5586,582.8438,31.5586,586.8438,41.5586,590.8438,37.5586,586.8438" style="stroke:#181818;stroke-width:1.0;"/><line style="stroke:#181818;stroke-width:1.0;stroke-dasharray:2.0,2.0;" x1="35.5586" x2="245.061" y1="586.8438" y2="586.8438"/><text fill="#000000" font-family="sans-serif" font-size="13" lengthAdjust="spacing" textLength="128.5972" x="47.5586" y="581.9873">Tampilkan modal form</text><polygon fill="#181818" points="434.1685,613.1953,444.1685,617.1953,434.1685,621.1953,438.1685,617.1953" style="stroke:#181818;stroke-width:1.0;"/><line style="stroke:#181818;stroke-width:1.0;" x1="30.5586" x2="440.1685" y1="617.1953" y2="617.1953"/><text fill="#000000" font-family="sans-serif" font-size="13" lengthAdjust="spacing" textLength="102.4004" x="37.5586" y="612.3389">set('name', 'BCA')</text><polygon fill="#181818" points="434.1685,643.5469,444.1685,647.5469,434.1685,651.5469,438.1685,647.5469" style="stroke:#181818;stroke-width:1.0;"/><line style="stroke:#181818;stroke-width:1.0;" x1="30.5586" x2="440.1685" y1="647.5469" y2="647.5469"/><text fill="#000000" font-family="sans-serif" font-size="13" lengthAdjust="spacing" textLength="149.3667" x="37.5586" y="642.6904">set('type', 'Bank Transfer')</text><polygon fill="#181818" points="434.1685,673.8984,444.1685,677.8984,434.1685,681.8984,438.1685,677.8984" style="stroke:#181818;stroke-width:1.0;"/><line style="stroke:#181818;stroke-width:1.0;" x1="30.5586" x2="440.1685" y1="677.8984" y2="677.8984"/><text fill="#000000" font-family="sans-serif" font-size="13" lengthAdjust="spacing" textLength="212.291" x="37.5586" y="673.042">set('account_number', '1234567890')</text><polygon fill="#181818" points="434.1685,704.25,444.1685,708.25,434.1685,712.25,438.1685,708.25" style="stroke:#181818;stroke-width:1.0;"/><line style="stroke:#181818;stroke-width:1.0;" x1="30.5586" x2="440.1685" y1="708.25" y2="708.25"/><text fill="#000000" font-family="sans-serif" font-size="13" lengthAdjust="spacing" textLength="184.0757" x="37.5586" y="703.3936">set('account_name', 'Toko Kue')</text><polygon fill="#181818" points="434.1685,734.6016,444.1685,738.6016,434.1685,742.6016,438.1685,738.6016" style="stroke:#181818;stroke-width:1.0;"/><line style="stroke:#181818;stroke-width:1.0;" x1="30.5586" x2="440.1685" y1="738.6016" y2="738.6016"/><text fill="#000000" font-family="sans-serif" font-size="13" lengthAdjust="spacing" textLength="111.1665" x="37.5586" y="733.7451">set('is_active', true)</text><polygon fill="#181818" points="429.1685,764.9531,439.1685,768.9531,429.1685,772.9531,433.1685,768.9531" style="stroke:#181818;stroke-width:1.0;"/><line style="stroke:#181818;stroke-width:1.0;" x1="30.5586" x2="435.1685" y1="768.9531" y2="768.9531"/><text fill="#000000" font-family="sans-serif" font-size="13" lengthAdjust="spacing" textLength="36.1182" x="37.5586" y="764.0967">save()</text><line style="stroke:#181818;stroke-width:1.0;" x1="451.1685" x2="493.1685" y1="799.3047" y2="799.3047"/><line style="stroke:#181818;stroke-width:1.0;" x1="493.1685" x2="493.1685" y1="799.3047" y2="812.3047"/><line style="stroke:#181818;stroke-width:1.0;" x1="452.1685" x2="493.1685" y1="812.3047" y2="812.3047"/><polygon fill="#181818" points="462.1685,808.3047,452.1685,812.3047,462.1685,816.3047,458.1685,812.3047" style="stroke:#181818;stroke-width:1.0;"/><text fill="#000000" font-family="sans-serif" font-size="13" lengthAdjust="spacing" textLength="53.4663" x="458.1685" y="794.4482">validate()</text><polygon fill="#181818" points="693.292,838.6563,703.292,842.6563,693.292,846.6563,697.292,842.6563" style="stroke:#181818;stroke-width:1.0;"/><line style="stroke:#181818;stroke-width:1.0;" x1="451.1685" x2="699.292" y1="842.6563" y2="842.6563"/><text fill="#000000" font-family="sans-serif" font-size="13" lengthAdjust="spacing" textLength="169.7998" x="458.1685" y="837.7998">PaymentChannel::create([...])</text><polygon fill="#181818" points="1070.0908,869.0078,1080.0908,873.0078,1070.0908,877.0078,1074.0908,873.0078" style="stroke:#181818;stroke-width:1.0;"/><line style="stroke:#181818;stroke-width:1.0;" x1="715.292" x2="1076.0908" y1="873.0078" y2="873.0078"/><text fill="#000000" font-family="sans-serif" font-size="13" lengthAdjust="spacing" textLength="195.0762" x="722.292" y="868.1514">INSERT INTO payment_channels</text><polygon fill="#181818" points="726.292,899.3594,716.292,903.3594,726.292,907.3594,722.292,903.3594" style="stroke:#181818;stroke-width:1.0;"/><line style="stroke:#181818;stroke-width:1.0;stroke-dasharray:2.0,2.0;" x1="720.292" x2="1081.0908" y1="903.3594" y2="903.3594"/><text fill="#000000" font-family="sans-serif" font-size="13" lengthAdjust="spacing" textLength="49.1309" x="732.292" y="898.5029">Success</text><polygon fill="#181818" points="462.1685,929.7109,452.1685,933.7109,462.1685,937.7109,458.1685,933.7109" style="stroke:#181818;stroke-width:1.0;"/><line style="stroke:#181818;stroke-width:1.0;stroke-dasharray:2.0,2.0;" x1="456.1685" x2="709.292" y1="933.7109" y2="933.7109"/><text fill="#000000" font-family="sans-serif" font-size="13" lengthAdjust="spacing" textLength="78.0571" x="468.1685" y="928.8545">Channel baru</text><polygon fill="#181818" points="257.061,960.0625,247.061,964.0625,257.061,968.0625,253.061,964.0625" style="stroke:#181818;stroke-width:1.0;"/><line style="stroke:#181818;stroke-width:1.0;stroke-dasharray:2.0,2.0;" x1="251.061" x2="440.1685" y1="964.0625" y2="964.0625"/><text fill="#000000" font-family="sans-serif" font-size="13" lengthAdjust="spacing" textLength="72.2617" x="263.061" y="959.2061">Tutup modal</text><polygon fill="#181818" points="257.061,990.4141,247.061,994.4141,257.061,998.4141,253.061,994.4141" style="stroke:#181818;stroke-width:1.0;"/><line style="stroke:#181818;stroke-width:1.0;stroke-dasharray:2.0,2.0;" x1="251.061" x2="445.1685" y1="994.4141" y2="994.4141"/><text fill="#000000" font-family="sans-serif" font-size="13" lengthAdjust="spacing" textLength="132.2217" x="263.061" y="989.5576">Flash message sukses</text><rect fill="#EEEEEE" height="3" style="stroke:#EEEEEE;stroke-width:1.0;" width="1135.0562" x="0" y="1023.5898"/><line style="stroke:#000000;stroke-width:1.0;" x1="0" x2="1135.0562" y1="1023.5898" y2="1023.5898"/><line style="stroke:#000000;stroke-width:1.0;" x1="0" x2="1135.0562" y1="1026.5898" y2="1026.5898"/><rect fill="#EEEEEE" height="24.3516" style="stroke:#000000;stroke-width:2.0;" width="191.6709" x="471.6926" y="1012.4141"/><text fill="#000000" font-family="sans-serif" font-size="13" font-weight="bold" lengthAdjust="spacing" textLength="174.0591" x="477.6926" y="1029.9092">Toggle Status Aktif/Nonaktif</text><polygon fill="#181818" points="234.061,1065.1172,244.061,1069.1172,234.061,1073.1172,238.061,1069.1172" style="stroke:#181818;stroke-width:1.0;"/><line style="stroke:#181818;stroke-width:1.0;" x1="30.5586" x2="240.061" y1="1069.1172" y2="1069.1172"/><text fill="#000000" font-family="sans-serif" font-size="13" lengthAdjust="spacing" textLength="98.2744" x="37.5586" y="1064.2607">Klik toggle status</text><polygon fill="#181818" points="429.1685,1095.4688,439.1685,1099.4688,429.1685,1103.4688,433.1685,1099.4688" style="stroke:#181818;stroke-width:1.0;"/><line style="stroke:#181818;stroke-width:1.0;" x1="246.061" x2="435.1685" y1="1099.4688" y2="1099.4688"/><text fill="#000000" font-family="sans-serif" font-size="13" lengthAdjust="spacing" textLength="126.4707" x="253.061" y="1094.6123">toggleStatus(channel)</text><polygon fill="#181818" points="693.292,1125.8203,703.292,1129.8203,693.292,1133.8203,697.292,1129.8203" style="stroke:#181818;stroke-width:1.0;"/><line style="stroke:#181818;stroke-width:1.0;" x1="451.1685" x2="699.292" y1="1129.8203" y2="1129.8203"/><text fill="#000000" font-family="sans-serif" font-size="13" lengthAdjust="spacing" textLength="235.1235" x="458.1685" y="1124.9639">channel-&gt;update(['is_active' =&gt; !current])</text><polygon fill="#181818" points="1070.0908,1156.1719,1080.0908,1160.1719,1070.0908,1164.1719,1074.0908,1160.1719" style="stroke:#181818;stroke-width:1.0;"/><line style="stroke:#181818;stroke-width:1.0;" x1="715.292" x2="1076.0908" y1="1160.1719" y2="1160.1719"/><text fill="#000000" font-family="sans-serif" font-size="13" lengthAdjust="spacing" textLength="270.6006" x="722.292" y="1155.3154">UPDATE payment_channels SET is_active = ?</text><polygon fill="#181818" points="726.292,1186.5234,716.292,1190.5234,726.292,1194.5234,722.292,1190.5234" style="stroke:#181818;stroke-width:1.0;"/><line style="stroke:#181818;stroke-width:1.0;stroke-dasharray:2.0,2.0;" x1="720.292" x2="1081.0908" y1="1190.5234" y2="1190.5234"/><text fill="#000000" font-family="sans-serif" font-size="13" lengthAdjust="spacing" textLength="49.1309" x="732.292" y="1185.667">Success</text><polygon fill="#181818" points="462.1685,1216.875,452.1685,1220.875,462.1685,1224.875,458.1685,1220.875" style="stroke:#181818;stroke-width:1.0;"/><line style="stroke:#181818;stroke-width:1.0;stroke-dasharray:2.0,2.0;" x1="456.1685" x2="709.292" y1="1220.875" y2="1220.875"/><text fill="#000000" font-family="sans-serif" font-size="13" lengthAdjust="spacing" textLength="49.1499" x="468.1685" y="1216.0186">Updated</text><path d="M171.4785,1235.875 L231.6494,1235.875 L231.6494,1244.2266 L221.6494,1254.2266 L171.4785,1254.2266 L171.4785,1235.875 " fill="#EEEEEE" style="stroke:#000000;stroke-width:1.5;"/><rect fill="none" height="139.5938" style="stroke:#000000;stroke-width:1.5;" width="473.9434" x="171.4785" y="1235.875"/><text fill="#000000" font-family="sans-serif" font-size="13" font-weight="bold" lengthAdjust="spacing" textLength="15.1709" x="186.4785" y="1250.3701">alt</text><text fill="#000000" font-family="sans-serif" font-size="11" font-weight="bold" lengthAdjust="spacing" textLength="111.2407" x="246.6494" y="1249.2939">[Status menjadi aktif]</text><polygon fill="#181818" points="257.061,1283.7539,247.061,1287.7539,257.061,1291.7539,253.061,1287.7539" style="stroke:#181818;stroke-width:1.0;"/><line style="stroke:#181818;stroke-width:1.0;stroke-dasharray:2.0,2.0;" x1="251.061" x2="440.1685" y1="1287.7539" y2="1287.7539"/><text fill="#000000" font-family="sans-serif" font-size="13" lengthAdjust="spacing" textLength="116.1875" x="263.061" y="1282.8975">"Channel diaktifkan"</text><path d="M456,1259.2266 L456,1301.2266 L635,1301.2266 L635,1269.2266 L625,1259.2266 L456,1259.2266 " fill="#FEFFDD" style="stroke:#181818;stroke-width:0.5;"/><path d="M625,1259.2266 L625,1269.2266 L635,1269.2266 L625,1259.2266 " fill="#FEFFDD" style="stroke:#181818;stroke-width:0.5;"/><text fill="#000000" font-family="sans-serif" font-size="13" lengthAdjust="spacing" textLength="125.7471" x="462" y="1277.7217">Channel akan muncul</text><text fill="#000000" font-family="sans-serif" font-size="13" lengthAdjust="spacing" textLength="158.2534" x="462" y="1294.0732">di pilihan pembayaran kasir</text><line style="stroke:#000000;stroke-width:1.0;stroke-dasharray:2.0,2.0;" x1="171.4785" x2="645.4219" y1="1307.9297" y2="1307.9297"/><text fill="#000000" font-family="sans-serif" font-size="11" font-weight="bold" lengthAdjust="spacing" textLength="131.3984" x="176.4785" y="1319.3486">[Status menjadi nonaktif]</text><polygon fill="#181818" points="257.061,1352.293,247.061,1356.293,257.061,1360.293,253.061,1356.293" style="stroke:#181818;stroke-width:1.0;"/><line style="stroke:#181818;stroke-width:1.0;stroke-dasharray:2.0,2.0;" x1="251.061" x2="440.1685" y1="1356.293" y2="1356.293"/><text fill="#000000" font-family="sans-serif" font-size="13" lengthAdjust="spacing" textLength="137.8774" x="263.061" y="1351.4365">"Channel dinonaktifkan"</text><path d="M456,1327.7656 L456,1369.7656 L635,1369.7656 L635,1337.7656 L625,1327.7656 L456,1327.7656 " fill="#FEFFDD" style="stroke:#181818;stroke-width:0.5;"/><path d="M625,1327.7656 L625,1337.7656 L635,1337.7656 L625,1327.7656 " fill="#FEFFDD" style="stroke:#181818;stroke-width:0.5;"/><text fill="#000000" font-family="sans-serif" font-size="13" lengthAdjust="spacing" textLength="125.0171" x="462" y="1346.2607">Channel tidak muncul</text><text fill="#000000" font-family="sans-serif" font-size="13" lengthAdjust="spacing" textLength="158.2534" x="462" y="1362.6123">di pilihan pembayaran kasir</text><rect fill="#EEEEEE" height="3" style="stroke:#EEEEEE;stroke-width:1.0;" width="1135.0562" x="0" y="1403.6445"/><line style="stroke:#000000;stroke-width:1.0;" x1="0" x2="1135.0562" y1="1403.6445" y2="1403.6445"/><line style="stroke:#000000;stroke-width:1.0;" x1="0" x2="1135.0562" y1="1406.6445" y2="1406.6445"/><rect fill="#EEEEEE" height="24.3516" style="stroke:#000000;stroke-width:2.0;" width="129.5591" x="502.7485" y="1392.4688"/><text fill="#000000" font-family="sans-serif" font-size="13" font-weight="bold" lengthAdjust="spacing" textLength="111.9473" x="508.7485" y="1409.9639">Mengedit Channel</text><polygon fill="#181818" points="234.061,1445.1719,244.061,1449.1719,234.061,1453.1719,238.061,1449.1719" style="stroke:#181818;stroke-width:1.0;"/><line style="stroke:#181818;stroke-width:1.0;" x1="30.5586" x2="240.061" y1="1449.1719" y2="1449.1719"/><text fill="#000000" font-family="sans-serif" font-size="13" lengthAdjust="spacing" textLength="89.5908" x="37.5586" y="1444.3154">Klik tombol Edit</text><polygon fill="#181818" points="429.1685,1475.5234,439.1685,1479.5234,429.1685,1483.5234,433.1685,1479.5234" style="stroke:#181818;stroke-width:1.0;"/><line style="stroke:#181818;stroke-width:1.0;" x1="246.061" x2="435.1685" y1="1479.5234" y2="1479.5234"/><text fill="#000000" font-family="sans-serif" font-size="13" lengthAdjust="spacing" textLength="75.1563" x="253.061" y="1474.667">edit(channel)</text><polygon fill="#181818" points="257.061,1505.875,247.061,1509.875,257.061,1513.875,253.061,1509.875" style="stroke:#181818;stroke-width:1.0;"/><line style="stroke:#181818;stroke-width:1.0;stroke-dasharray:2.0,2.0;" x1="251.061" x2="445.1685" y1="1509.875" y2="1509.875"/><text fill="#000000" font-family="sans-serif" font-size="13" lengthAdjust="spacing" textLength="114.1499" x="263.061" y="1505.0186">Tampilkan form edit</text><polygon fill="#181818" points="434.1685,1536.2266,444.1685,1540.2266,434.1685,1544.2266,438.1685,1540.2266" style="stroke:#181818;stroke-width:1.0;"/><line style="stroke:#181818;stroke-width:1.0;" x1="30.5586" x2="440.1685" y1="1540.2266" y2="1540.2266"/><text fill="#000000" font-family="sans-serif" font-size="13" lengthAdjust="spacing" textLength="125.0171" x="37.5586" y="1535.3701">Ubah nomor rekening</text><polygon fill="#181818" points="429.1685,1566.5781,439.1685,1570.5781,429.1685,1574.5781,433.1685,1570.5781" style="stroke:#181818;stroke-width:1.0;"/><line style="stroke:#181818;stroke-width:1.0;" x1="30.5586" x2="435.1685" y1="1570.5781" y2="1570.5781"/><text fill="#000000" font-family="sans-serif" font-size="13" lengthAdjust="spacing" textLength="48.4199" x="37.5586" y="1565.7217">update()</text><line style="stroke:#181818;stroke-width:1.0;" x1="451.1685" x2="493.1685" y1="1600.9297" y2="1600.9297"/><line style="stroke:#181818;stroke-width:1.0;" x1="493.1685" x2="493.1685" y1="1600.9297" y2="1613.9297"/><line style="stroke:#181818;stroke-width:1.0;" x1="452.1685" x2="493.1685" y1="1613.9297" y2="1613.9297"/><polygon fill="#181818" points="462.1685,1609.9297,452.1685,1613.9297,462.1685,1617.9297,458.1685,1613.9297" style="stroke:#181818;stroke-width:1.0;"/><text fill="#000000" font-family="sans-serif" font-size="13" lengthAdjust="spacing" textLength="53.4663" x="458.1685" y="1596.0732">validate()</text><polygon fill="#181818" points="693.292,1640.2813,703.292,1644.2813,693.292,1648.2813,697.292,1644.2813" style="stroke:#181818;stroke-width:1.0;"/><line style="stroke:#181818;stroke-width:1.0;" x1="451.1685" x2="699.292" y1="1644.2813" y2="1644.2813"/><text fill="#000000" font-family="sans-serif" font-size="13" lengthAdjust="spacing" textLength="123.938" x="458.1685" y="1639.4248">channel-&gt;update([...])</text><polygon fill="#181818" points="1070.0908,1670.6328,1080.0908,1674.6328,1070.0908,1678.6328,1074.0908,1674.6328" style="stroke:#181818;stroke-width:1.0;"/><line style="stroke:#181818;stroke-width:1.0;" x1="715.292" x2="1076.0908" y1="1674.6328" y2="1674.6328"/><text fill="#000000" font-family="sans-serif" font-size="13" lengthAdjust="spacing" textLength="208.8125" x="722.292" y="1669.7764">UPDATE payment_channels SET ...</text><polygon fill="#181818" points="726.292,1700.9844,716.292,1704.9844,726.292,1708.9844,722.292,1704.9844" style="stroke:#181818;stroke-width:1.0;"/><line style="stroke:#181818;stroke-width:1.0;stroke-dasharray:2.0,2.0;" x1="720.292" x2="1081.0908" y1="1704.9844" y2="1704.9844"/><text fill="#000000" font-family="sans-serif" font-size="13" lengthAdjust="spacing" textLength="49.1309" x="732.292" y="1700.1279">Success</text><polygon fill="#181818" points="462.1685,1731.3359,452.1685,1735.3359,462.1685,1739.3359,458.1685,1735.3359" style="stroke:#181818;stroke-width:1.0;"/><line style="stroke:#181818;stroke-width:1.0;stroke-dasharray:2.0,2.0;" x1="456.1685" x2="709.292" y1="1735.3359" y2="1735.3359"/><text fill="#000000" font-family="sans-serif" font-size="13" lengthAdjust="spacing" textLength="49.1499" x="468.1685" y="1730.4795">Updated</text><polygon fill="#181818" points="257.061,1761.6875,247.061,1765.6875,257.061,1769.6875,253.061,1765.6875" style="stroke:#181818;stroke-width:1.0;"/><line style="stroke:#181818;stroke-width:1.0;stroke-dasharray:2.0,2.0;" x1="251.061" x2="445.1685" y1="1765.6875" y2="1765.6875"/><text fill="#000000" font-family="sans-serif" font-size="13" lengthAdjust="spacing" textLength="132.2217" x="263.061" y="1760.8311">Flash message sukses</text><rect fill="#EEEEEE" height="3" style="stroke:#EEEEEE;stroke-width:1.0;" width="1135.0562" x="0" y="1794.8633"/><line style="stroke:#000000;stroke-width:1.0;" x1="0" x2="1135.0562" y1="1794.8633" y2="1794.8633"/><line style="stroke:#000000;stroke-width:1.0;" x1="0" x2="1135.0562" y1="1797.8633" y2="1797.8633"/><rect fill="#EEEEEE" height="24.3516" style="stroke:#000000;stroke-width:2.0;" width="144.73" x="495.1631" y="1783.6875"/><text fill="#000000" font-family="sans-serif" font-size="13" font-weight="bold" lengthAdjust="spacing" textLength="127.1182" x="501.1631" y="1801.1826">Menghapus Channel</text><polygon fill="#181818" points="234.061,1836.3906,244.061,1840.3906,234.061,1844.3906,238.061,1840.3906" style="stroke:#181818;stroke-width:1.0;"/><line style="stroke:#181818;stroke-width:1.0;" x1="30.5586" x2="240.061" y1="1840.3906" y2="1840.3906"/><text fill="#000000" font-family="sans-serif" font-size="13" lengthAdjust="spacing" textLength="104.7681" x="37.5586" y="1835.5342">Klik tombol Hapus</text><polygon fill="#181818" points="41.5586,1866.7422,31.5586,1870.7422,41.5586,1874.7422,37.5586,1870.7422" style="stroke:#181818;stroke-width:1.0;"/><line style="stroke:#181818;stroke-width:1.0;stroke-dasharray:2.0,2.0;" x1="35.5586" x2="245.061" y1="1870.7422" y2="1870.7422"/><text fill="#000000" font-family="sans-serif" font-size="13" lengthAdjust="spacing" textLength="100.439" x="47.5586" y="1865.8857">Konfirmasi hapus</text><polygon fill="#181818" points="429.1685,1897.0938,439.1685,1901.0938,429.1685,1905.0938,433.1685,1901.0938" style="stroke:#181818;stroke-width:1.0;"/><line style="stroke:#181818;stroke-width:1.0;" x1="30.5586" x2="435.1685" y1="1901.0938" y2="1901.0938"/><text fill="#000000" font-family="sans-serif" font-size="13" lengthAdjust="spacing" textLength="89.6162" x="37.5586" y="1896.2373">delete(channel)</text><polygon fill="#181818" points="693.292,1927.4453,703.292,1931.4453,693.292,1935.4453,697.292,1931.4453" style="stroke:#181818;stroke-width:1.0;"/><line style="stroke:#181818;stroke-width:1.0;" x1="451.1685" x2="699.292" y1="1931.4453" y2="1931.4453"/><text fill="#000000" font-family="sans-serif" font-size="13" lengthAdjust="spacing" textLength="174.8589" x="458.1685" y="1926.5889">channel-&gt;payments()-&gt;count()</text><polygon fill="#181818" points="1070.0908,1957.7969,1080.0908,1961.7969,1070.0908,1965.7969,1074.0908,1961.7969" style="stroke:#181818;stroke-width:1.0;"/><line style="stroke:#181818;stroke-width:1.0;" x1="715.292" x2="1076.0908" y1="1961.7969" y2="1961.7969"/><text fill="#000000" font-family="sans-serif" font-size="13" lengthAdjust="spacing" textLength="342.7988" x="722.292" y="1956.9404">SELECT COUNT FROM payments WHERE channel_id = ?</text><polygon fill="#181818" points="726.292,1988.1484,716.292,1992.1484,726.292,1996.1484,722.292,1992.1484" style="stroke:#181818;stroke-width:1.0;"/><line style="stroke:#181818;stroke-width:1.0;stroke-dasharray:2.0,2.0;" x1="720.292" x2="1081.0908" y1="1992.1484" y2="1992.1484"/><text fill="#000000" font-family="sans-serif" font-size="13" lengthAdjust="spacing" textLength="31.8018" x="732.292" y="1987.292">count</text><polygon fill="#181818" points="462.1685,2018.5,452.1685,2022.5,462.1685,2026.5,458.1685,2022.5" style="stroke:#181818;stroke-width:1.0;"/><line style="stroke:#181818;stroke-width:1.0;stroke-dasharray:2.0,2.0;" x1="456.1685" x2="709.292" y1="2022.5" y2="2022.5"/><text fill="#000000" font-family="sans-serif" font-size="13" lengthAdjust="spacing" textLength="91.7681" x="468.1685" y="2017.6436">jumlah payment</text><path d="M171.4785,2037.5 L231.6494,2037.5 L231.6494,2045.8516 L221.6494,2055.8516 L171.4785,2055.8516 L171.4785,2037.5 " fill="#EEEEEE" style="stroke:#000000;stroke-width:1.5;"/><rect fill="none" height="246.6484" style="stroke:#000000;stroke-width:1.5;" width="953.5776" x="171.4785" y="2037.5"/><text fill="#000000" font-family="sans-serif" font-size="13" font-weight="bold" lengthAdjust="spacing" textLength="15.1709" x="186.4785" y="2051.9951">alt</text><text fill="#000000" font-family="sans-serif" font-size="11" font-weight="bold" lengthAdjust="spacing" textLength="231.6768" x="246.6494" y="2050.9189">[Tidak ada transaksi menggunakan channel]</text><polygon fill="#181818" points="693.292,2074.2031,703.292,2078.2031,693.292,2082.2031,697.292,2078.2031" style="stroke:#181818;stroke-width:1.0;"/><line style="stroke:#181818;stroke-width:1.0;" x1="451.1685" x2="699.292" y1="2078.2031" y2="2078.2031"/><text fill="#000000" font-family="sans-serif" font-size="13" lengthAdjust="spacing" textLength="101.5371" x="458.1685" y="2073.3467">channel-&gt;delete()</text><polygon fill="#181818" points="1070.0908,2104.5547,1080.0908,2108.5547,1070.0908,2112.5547,1074.0908,2108.5547" style="stroke:#181818;stroke-width:1.0;"/><line style="stroke:#181818;stroke-width:1.0;" x1="715.292" x2="1076.0908" y1="2108.5547" y2="2108.5547"/><text fill="#000000" font-family="sans-serif" font-size="13" lengthAdjust="spacing" textLength="205.1943" x="722.292" y="2103.6982">DELETE FROM payment_channels</text><polygon fill="#181818" points="726.292,2134.9063,716.292,2138.9063,726.292,2142.9063,722.292,2138.9063" style="stroke:#181818;stroke-width:1.0;"/><line style="stroke:#181818;stroke-width:1.0;stroke-dasharray:2.0,2.0;" x1="720.292" x2="1081.0908" y1="2138.9063" y2="2138.9063"/><text fill="#000000" font-family="sans-serif" font-size="13" lengthAdjust="spacing" textLength="49.1309" x="732.292" y="2134.0498">Success</text><polygon fill="#181818" points="462.1685,2165.2578,452.1685,2169.2578,462.1685,2173.2578,458.1685,2169.2578" style="stroke:#181818;stroke-width:1.0;"/><line style="stroke:#181818;stroke-width:1.0;stroke-dasharray:2.0,2.0;" x1="456.1685" x2="709.292" y1="2169.2578" y2="2169.2578"/><text fill="#000000" font-family="sans-serif" font-size="13" lengthAdjust="spacing" textLength="44.8081" x="468.1685" y="2164.4014">Deleted</text><polygon fill="#181818" points="257.061,2195.6094,247.061,2199.6094,257.061,2203.6094,253.061,2199.6094" style="stroke:#181818;stroke-width:1.0;"/><line style="stroke:#181818;stroke-width:1.0;stroke-dasharray:2.0,2.0;" x1="251.061" x2="440.1685" y1="2199.6094" y2="2199.6094"/><text fill="#000000" font-family="sans-serif" font-size="13" lengthAdjust="spacing" textLength="132.2217" x="263.061" y="2194.7529">Flash message sukses</text><line style="stroke:#000000;stroke-width:1.0;stroke-dasharray:2.0,2.0;" x1="171.4785" x2="1125.0562" y1="2208.6094" y2="2208.6094"/><text fill="#000000" font-family="sans-serif" font-size="11" font-weight="bold" lengthAdjust="spacing" textLength="201.7168" x="176.4785" y="2220.0283">[Ada transaksi menggunakan channel]</text><polygon fill="#181818" points="257.061,2241.7969,247.061,2245.7969,257.061,2249.7969,253.061,2245.7969" style="stroke:#181818;stroke-width:1.0;"/><line style="stroke:#181818;stroke-width:1.0;stroke-dasharray:2.0,2.0;" x1="251.061" x2="440.1685" y1="2245.7969" y2="2245.7969"/><text fill="#000000" font-family="sans-serif" font-size="13" lengthAdjust="spacing" textLength="148.1479" x="263.061" y="2240.9404">Error: Channel digunakan</text><polygon fill="#181818" points="257.061,2272.1484,247.061,2276.1484,257.061,2280.1484,253.061,2276.1484" style="stroke:#181818;stroke-width:1.0;"/><line style="stroke:#181818;stroke-width:1.0;stroke-dasharray:2.0,2.0;" x1="251.061" x2="440.1685" y1="2276.1484" y2="2276.1484"/><text fill="#000000" font-family="sans-serif" font-size="13" lengthAdjust="spacing" textLength="171.1074" x="263.061" y="2271.292">"Nonaktifkan saja channel ini"</text><!--SRC=[dLRRRjiu47tNLypw9SbYdUxzOi0f7Dk5YzIE4IlOXxO8nX8jCw98Bqa5oD_laA8b-POqzOibpk5mBkSCPRaL31RilvB9XC68OwQnwC6KoOm99P2Uh4ePp5cnn6VKAAC84wkqM-62vu06vj46jUK9tw2qq9cWm08bpF6vOD9-aSCrIib4ns4dkzY02GY2gcAZ9Aruy7puCdfAeLLkfr6A5fTe67H6uSaRHjTHrEzJ6eAlqS88LnOr10-jjA3VZw8vTAzWqeD1RfY1TSXZKvqAIRN9vS-Vq3BAPU8sp8SzA5GfxVb5OwFGvqDddVPWD-nU3uLeGwVHr057rprOZ3-DXp7y21_kRgVRWn_2mIOQNKEtSkboh0EQ-bKNnb09mSYlahKnPQs3N4XLYdTCfan3wklH1b7WayfV3s8iDbpaL8DGYpPm4aLIqR_csTf6i2qjHRpTrQFLBdnIcNhtCL7Ilyt8JHsRNr05iKcpd4akCx-qi6XB0vXRldedbVGF4GKCxi3GJpfbYUkwa-tstJXUMbKibN0f4EnOIeLAKS1AwQBQwEfdc3q_8y_ix2SuknuEpYxsRFPvKzbGvX0JRyoAwGCK9edZmuCiYoMP2V_Bhx_z_iUVV_tzpy-dmU7OMEKARafs0EJcmHVVeQmkMTkEJ-me-vpn2GKdTJZ0IKeccZd4vylBow_7gVbnjXZVnVGNtxv4p4MP9CoODYT3XvQeorDiZ4jRRggEj5O_23Hh8fGnc34mfLFb7bKT5sALPMwALQmPUDRC0ckEySAZZKSt0gwMAn_d8QyJSWxMxbMvyMNztEeCzA_WXwJKcifpef3tyz4W7X_KaBGVG-q8-l3-nQhU-xFJtO96AEos3kJy4LDUgOXa1T0KjhFjISgzcUJGyP0TGRlV5eXUCQLCIX4iv9g4H4EL1cGpHNCqN7j4BLVAZUq7LOlwP5nRnEkXMI9t_hsnoJGwmYX__QNSlZfTnWHgEEIsdEPEO7ezVzpayLls0gX5VU_cczmTZxKnSEyjcZ_WxMcnlyHHslLsPhvPrAu5QzmGPrxhmSIXcW5_e-IAwu9w3Nv_KpBwLc2KzZUAE-HkpY-wLyd-xNvuPGzlxsVnphLjuD_9-6wyzVZ0qprHUw-jmZsMXQ2EX-r7b1rxfcEADFxfvi6SSYHebfNIwxEvLYjHxIOKqh_mvfPhzrfdCw9igF77FpySyh3pONz8OkHFIVtgJWQxIZ_A0Zyf1j-SNkLfhBNIpIsJyW3V7ospPg3GTVbOVuG0bxnpR13y3m00]--></g></svg>