<svg xmlns="http://www.w3.org/2000/svg" xmlns:xlink="http://www.w3.org/1999/xlink" contentStyleType="text/css" height="1151px" preserveAspectRatio="none" style="width:1232px;height:1151px;background:#FFFFFF;" version="1.1" viewBox="0 0 1232 1151" width="1232px" zoomAndPan="magnify"><title>Sequence Diagram</title><defs/><g><text fill="#000000" font-family="sans-serif" font-size="14" font-weight="bold" lengthAdjust="spacing" textLength="126.0479" x="552.2322" y="29.5332">Sequence Diagram</text><text fill="#000000" font-family="sans-serif" font-size="14" font-weight="bold" lengthAdjust="spacing" textLength="152.5029" x="539.0046" y="47.1426">Kelola Alur Persediaan</text><line style="stroke:#181818;stroke-width:0.5;stroke-dasharray:5.0,5.0;" x1="58" x2="58" y1="138.8281" y2="1069.375"/><line style="stroke:#181818;stroke-width:0.5;stroke-dasharray:5.0,5.0;" x1="360.7168" x2="360.7168" y1="138.8281" y2="1069.375"/><line style="stroke:#181818;stroke-width:0.5;stroke-dasharray:5.0,5.0;" x1="579.8281" x2="579.8281" y1="138.8281" y2="1069.375"/><line style="stroke:#181818;stroke-width:0.5;stroke-dasharray:5.0,5.0;" x1="1055.8784" x2="1055.8784" y1="138.8281" y2="1069.375"/><line style="stroke:#181818;stroke-width:0.5;stroke-dasharray:5.0,5.0;" x1="1144.8228" x2="1144.8228" y1="138.8281" y2="1069.375"/><line style="stroke:#181818;stroke-width:0.5;stroke-dasharray:5.0,5.0;" x1="1206.6157" x2="1206.6157" y1="138.8281" y2="1069.375"/><text fill="#000000" font-family="sans-serif" font-size="14" lengthAdjust="spacing" textLength="101.1787" x="5" y="135.752">Bagian Inventori</text><ellipse cx="58.5894" cy="69.7188" fill="#E2E2F0" rx="8" ry="8" style="stroke:#181818;stroke-width:0.5;"/><path d="M58.5894,77.7188 L58.5894,104.7188 M45.5894,85.7188 L71.5894,85.7188 M58.5894,104.7188 L45.5894,119.7188 M58.5894,104.7188 L71.5894,119.7188 " fill="none" style="stroke:#181818;stroke-width:0.5;"/><text fill="#000000" font-family="sans-serif" font-size="14" lengthAdjust="spacing" textLength="101.1787" x="5" y="1082.9082">Bagian Inventori</text><ellipse cx="58.5894" cy="1094.4844" fill="#E2E2F0" rx="8" ry="8" style="stroke:#181818;stroke-width:0.5;"/><path d="M58.5894,1102.4844 L58.5894,1129.4844 M45.5894,1110.4844 L71.5894,1110.4844 M58.5894,1129.4844 L45.5894,1144.4844 M58.5894,1129.4844 L71.5894,1144.4844 " fill="none" style="stroke:#181818;stroke-width:0.5;"/><rect fill="#E2E2F0" height="31.6094" rx="2.5" ry="2.5" style="stroke:#181818;stroke-width:0.5;" width="127.6406" x="297.7168" y="106.2188"/><text fill="#000000" font-family="sans-serif" font-size="14" lengthAdjust="spacing" textLength="113.6406" x="304.7168" y="127.752">InventoryLogPage</text><rect fill="#E2E2F0" height="31.6094" rx="2.5" ry="2.5" style="stroke:#181818;stroke-width:0.5;" width="127.6406" x="297.7168" y="1068.375"/><text fill="#000000" font-family="sans-serif" font-size="14" lengthAdjust="spacing" textLength="113.6406" x="304.7168" y="1089.9082">InventoryLogPage</text><rect fill="#E2E2F0" height="31.6094" rx="2.5" ry="2.5" style="stroke:#181818;stroke-width:0.5;" width="155.6338" x="502.8281" y="106.2188"/><text fill="#000000" font-family="sans-serif" font-size="14" lengthAdjust="spacing" textLength="141.6338" x="509.8281" y="127.752">InventoryLogController</text><rect fill="#E2E2F0" height="31.6094" rx="2.5" ry="2.5" style="stroke:#181818;stroke-width:0.5;" width="155.6338" x="502.8281" y="1068.375"/><text fill="#000000" font-family="sans-serif" font-size="14" lengthAdjust="spacing" textLength="141.6338" x="509.8281" y="1089.9082">InventoryLogController</text><rect fill="#E2E2F0" height="31.6094" rx="2.5" ry="2.5" style="stroke:#181818;stroke-width:0.5;" width="94.9443" x="1008.8784" y="106.2188"/><text fill="#000000" font-family="sans-serif" font-size="14" lengthAdjust="spacing" textLength="80.9443" x="1015.8784" y="127.752">InventoryLog</text><rect fill="#E2E2F0" height="31.6094" rx="2.5" ry="2.5" style="stroke:#181818;stroke-width:0.5;" width="94.9443" x="1008.8784" y="1068.375"/><text fill="#000000" font-family="sans-serif" font-size="14" lengthAdjust="spacing" textLength="80.9443" x="1015.8784" y="1089.9082">InventoryLog</text><rect fill="#E2E2F0" height="31.6094" rx="2.5" ry="2.5" style="stroke:#181818;stroke-width:0.5;" width="63.793" x="1113.8228" y="106.2188"/><text fill="#000000" font-family="sans-serif" font-size="14" lengthAdjust="spacing" textLength="49.793" x="1120.8228" y="127.752">Material</text><rect fill="#E2E2F0" height="31.6094" rx="2.5" ry="2.5" style="stroke:#181818;stroke-width:0.5;" width="63.793" x="1113.8228" y="1068.375"/><text fill="#000000" font-family="sans-serif" font-size="14" lengthAdjust="spacing" textLength="49.793" x="1120.8228" y="1089.9082">Material</text><rect fill="#E2E2F0" height="31.6094" rx="2.5" ry="2.5" style="stroke:#181818;stroke-width:0.5;" width="38.8965" x="1187.6157" y="106.2188"/><text fill="#000000" font-family="sans-serif" font-size="14" lengthAdjust="spacing" textLength="24.8965" x="1194.6157" y="127.752">Unit</text><rect fill="#E2E2F0" height="31.6094" rx="2.5" ry="2.5" style="stroke:#181818;stroke-width:0.5;" width="38.8965" x="1187.6157" y="1068.375"/><text fill="#000000" font-family="sans-serif" font-size="14" lengthAdjust="spacing" textLength="24.8965" x="1194.6157" y="1089.9082">Unit</text><polygon fill="#181818" points="349.5371,167.1797,359.5371,171.1797,349.5371,175.1797,353.5371,171.1797" style="stroke:#181818;stroke-width:1.0;"/><line style="stroke:#181818;stroke-width:1.0;" x1="58.5894" x2="355.5371" y1="171.1797" y2="171.1797"/><text fill="#000000" font-family="sans-serif" font-size="13" lengthAdjust="spacing" textLength="155.3779" x="132.3743" y="166.3232">Mengakses log persediaan</text><polygon fill="#181818" points="568.645,197.5313,578.645,201.5313,568.645,205.5313,572.645,201.5313" style="stroke:#181818;stroke-width:1.0;"/><line style="stroke:#181818;stroke-width:1.0;" x1="361.5371" x2="574.645" y1="201.5313" y2="201.5313"/><text fill="#000000" font-family="sans-serif" font-size="13" lengthAdjust="spacing" textLength="44.7891" x="448.6965" y="196.6748">mount()</text><polygon fill="#181818" points="1044.3506,227.8828,1054.3506,231.8828,1044.3506,235.8828,1048.3506,231.8828" style="stroke:#181818;stroke-width:1.0;"/><line style="stroke:#181818;stroke-width:1.0;" x1="580.645" x2="1050.3506" y1="231.8828" y2="231.8828"/><text fill="#000000" font-family="sans-serif" font-size="13" lengthAdjust="spacing" textLength="196.6758" x="720.1599" y="227.0264">with('material.unit', 'user')-&gt;latest()</text><polygon fill="#181818" points="372.5371,258.2344,362.5371,262.2344,372.5371,266.2344,368.5371,262.2344" style="stroke:#181818;stroke-width:1.0;"/><line style="stroke:#181818;stroke-width:1.0;stroke-dasharray:2.0,2.0;" x1="366.5371" x2="579.645" y1="262.2344" y2="262.2344"/><text fill="#000000" font-family="sans-serif" font-size="13" lengthAdjust="spacing" textLength="77.3145" x="432.4338" y="257.3779">displayLogs()</text><polygon fill="#181818" points="349.5371,288.5859,359.5371,292.5859,349.5371,296.5859,353.5371,292.5859" style="stroke:#181818;stroke-width:1.0;"/><line style="stroke:#181818;stroke-width:1.0;" x1="58.5894" x2="355.5371" y1="292.5859" y2="292.5859"/><text fill="#000000" font-family="sans-serif" font-size="13" lengthAdjust="spacing" textLength="216.7725" x="101.677" y="287.7295">Filter berdasarkan bahan(material_id)</text><polygon fill="#181818" points="568.645,318.9375,578.645,322.9375,568.645,326.9375,572.645,322.9375" style="stroke:#181818;stroke-width:1.0;"/><line style="stroke:#181818;stroke-width:1.0;" x1="361.5371" x2="574.645" y1="322.9375" y2="322.9375"/><text fill="#000000" font-family="sans-serif" font-size="13" lengthAdjust="spacing" textLength="158.209" x="391.9866" y="318.0811">filterByMaterial(material_id)</text><polygon fill="#181818" points="1044.3506,349.2891,1054.3506,353.2891,1044.3506,357.2891,1048.3506,353.2891" style="stroke:#181818;stroke-width:1.0;"/><line style="stroke:#181818;stroke-width:1.0;" x1="580.645" x2="1050.3506" y1="353.2891" y2="353.2891"/><text fill="#000000" font-family="sans-serif" font-size="13" lengthAdjust="spacing" textLength="340.3677" x="648.314" y="348.4326">where('material_id', material_id)-&gt;with('material.unit', 'user')</text><polygon fill="#181818" points="372.5371,379.6406,362.5371,383.6406,372.5371,387.6406,368.5371,383.6406" style="stroke:#181818;stroke-width:1.0;"/><line style="stroke:#181818;stroke-width:1.0;stroke-dasharray:2.0,2.0;" x1="366.5371" x2="579.645" y1="383.6406" y2="383.6406"/><text fill="#000000" font-family="sans-serif" font-size="13" lengthAdjust="spacing" textLength="120.6626" x="410.7598" y="378.7842">displayFilteredLogs()</text><polygon fill="#181818" points="349.5371,409.9922,359.5371,413.9922,349.5371,417.9922,353.5371,413.9922" style="stroke:#181818;stroke-width:1.0;"/><line style="stroke:#181818;stroke-width:1.0;" x1="58.5894" x2="355.5371" y1="413.9922" y2="413.9922"/><text fill="#000000" font-family="sans-serif" font-size="13" lengthAdjust="spacing" textLength="162.5698" x="128.7783" y="409.1357">Filter berdasarkan tipe(type)</text><polygon fill="#181818" points="568.645,440.3438,578.645,444.3438,568.645,448.3438,572.645,444.3438" style="stroke:#181818;stroke-width:1.0;"/><line style="stroke:#181818;stroke-width:1.0;" x1="361.5371" x2="574.645" y1="444.3438" y2="444.3438"/><text fill="#000000" font-family="sans-serif" font-size="13" lengthAdjust="spacing" textLength="101.8608" x="420.1606" y="439.4873">filterByType(type)</text><polygon fill="#181818" points="1044.3506,470.6953,1054.3506,474.6953,1044.3506,478.6953,1048.3506,474.6953" style="stroke:#181818;stroke-width:1.0;"/><line style="stroke:#181818;stroke-width:1.0;" x1="580.645" x2="1050.3506" y1="474.6953" y2="474.6953"/><text fill="#000000" font-family="sans-serif" font-size="13" lengthAdjust="spacing" textLength="262.3423" x="687.3267" y="469.8389">where('type', type)-&gt;with('material.unit', 'user')</text><polygon fill="#181818" points="372.5371,501.0469,362.5371,505.0469,372.5371,509.0469,368.5371,505.0469" style="stroke:#181818;stroke-width:1.0;"/><line style="stroke:#181818;stroke-width:1.0;stroke-dasharray:2.0,2.0;" x1="366.5371" x2="579.645" y1="505.0469" y2="505.0469"/><text fill="#000000" font-family="sans-serif" font-size="13" lengthAdjust="spacing" textLength="120.6626" x="410.7598" y="500.1904">displayFilteredLogs()</text><polygon fill="#181818" points="349.5371,531.3984,359.5371,535.3984,349.5371,539.3984,353.5371,535.3984" style="stroke:#181818;stroke-width:1.0;"/><line style="stroke:#181818;stroke-width:1.0;" x1="58.5894" x2="355.5371" y1="535.3984" y2="535.3984"/><text fill="#000000" font-family="sans-serif" font-size="13" lengthAdjust="spacing" textLength="278.9478" x="70.5894" y="530.542">Filter berdasarkan tanggal(start_date, end_date)</text><polygon fill="#181818" points="568.645,561.75,578.645,565.75,568.645,569.75,572.645,565.75" style="stroke:#181818;stroke-width:1.0;"/><line style="stroke:#181818;stroke-width:1.0;" x1="361.5371" x2="574.645" y1="565.75" y2="565.75"/><text fill="#000000" font-family="sans-serif" font-size="13" lengthAdjust="spacing" textLength="195.1079" x="373.5371" y="560.8936">filterByDate(start_date, end_date)</text><polygon fill="#181818" points="1044.3506,592.1016,1054.3506,596.1016,1044.3506,600.1016,1048.3506,596.1016" style="stroke:#181818;stroke-width:1.0;"/><line style="stroke:#181818;stroke-width:1.0;" x1="580.645" x2="1050.3506" y1="596.1016" y2="596.1016"/><text fill="#000000" font-family="sans-serif" font-size="13" lengthAdjust="spacing" textLength="451.7056" x="592.645" y="591.2451">whereBetween('created_at', [start_date, end_date])-&gt;with('material.unit', 'user')</text><polygon fill="#181818" points="372.5371,622.4531,362.5371,626.4531,372.5371,630.4531,368.5371,626.4531" style="stroke:#181818;stroke-width:1.0;"/><line style="stroke:#181818;stroke-width:1.0;stroke-dasharray:2.0,2.0;" x1="366.5371" x2="579.645" y1="626.4531" y2="626.4531"/><text fill="#000000" font-family="sans-serif" font-size="13" lengthAdjust="spacing" textLength="120.6626" x="410.7598" y="621.5967">displayFilteredLogs()</text><polygon fill="#181818" points="349.5371,652.8047,359.5371,656.8047,349.5371,660.8047,353.5371,656.8047" style="stroke:#181818;stroke-width:1.0;"/><line style="stroke:#181818;stroke-width:1.0;" x1="58.5894" x2="355.5371" y1="656.8047" y2="656.8047"/><text fill="#000000" font-family="sans-serif" font-size="13" lengthAdjust="spacing" textLength="202.2998" x="108.9133" y="651.9482">Cari berdasarkan deskripsi(search)</text><polygon fill="#181818" points="568.645,683.1563,578.645,687.1563,568.645,691.1563,572.645,687.1563" style="stroke:#181818;stroke-width:1.0;"/><line style="stroke:#181818;stroke-width:1.0;" x1="361.5371" x2="574.645" y1="687.1563" y2="687.1563"/><text fill="#000000" font-family="sans-serif" font-size="13" lengthAdjust="spacing" textLength="86.6963" x="427.7429" y="682.2998">search(search)</text><polygon fill="#181818" points="1044.3506,713.5078,1054.3506,717.5078,1044.3506,721.5078,1048.3506,717.5078" style="stroke:#181818;stroke-width:1.0;"/><line style="stroke:#181818;stroke-width:1.0;" x1="580.645" x2="1050.3506" y1="717.5078" y2="717.5078"/><text fill="#000000" font-family="sans-serif" font-size="13" lengthAdjust="spacing" textLength="374.8608" x="631.0674" y="712.6514">where('description', 'like', '%search%')-&gt;with('material.unit', 'user')</text><polygon fill="#181818" points="372.5371,743.8594,362.5371,747.8594,372.5371,751.8594,368.5371,747.8594" style="stroke:#181818;stroke-width:1.0;"/><line style="stroke:#181818;stroke-width:1.0;stroke-dasharray:2.0,2.0;" x1="366.5371" x2="579.645" y1="747.8594" y2="747.8594"/><text fill="#000000" font-family="sans-serif" font-size="13" lengthAdjust="spacing" textLength="133.6626" x="404.2598" y="743.0029">displaySearchResults()</text><polygon fill="#181818" points="349.5371,774.2109,359.5371,778.2109,349.5371,782.2109,353.5371,778.2109" style="stroke:#181818;stroke-width:1.0;"/><line style="stroke:#181818;stroke-width:1.0;" x1="58.5894" x2="355.5371" y1="778.2109" y2="778.2109"/><text fill="#000000" font-family="sans-serif" font-size="13" lengthAdjust="spacing" textLength="102.6162" x="158.7551" y="773.3545">Lihat detail log(id)</text><polygon fill="#181818" points="568.645,804.5625,578.645,808.5625,568.645,812.5625,572.645,808.5625" style="stroke:#181818;stroke-width:1.0;"/><line style="stroke:#181818;stroke-width:1.0;" x1="361.5371" x2="574.645" y1="808.5625" y2="808.5625"/><text fill="#000000" font-family="sans-serif" font-size="13" lengthAdjust="spacing" textLength="49.1245" x="446.5288" y="803.7061">show(id)</text><polygon fill="#181818" points="1044.3506,834.9141,1054.3506,838.9141,1044.3506,842.9141,1048.3506,838.9141" style="stroke:#181818;stroke-width:1.0;"/><line style="stroke:#181818;stroke-width:1.0;" x1="580.645" x2="1050.3506" y1="838.9141" y2="838.9141"/><text fill="#000000" font-family="sans-serif" font-size="13" lengthAdjust="spacing" textLength="196.6821" x="720.1567" y="834.0576">with('material.unit', 'user')-&gt;find(id)</text><polygon fill="#181818" points="1133.7192,865.2656,1143.7192,869.2656,1133.7192,873.2656,1137.7192,869.2656" style="stroke:#181818;stroke-width:1.0;"/><line style="stroke:#181818;stroke-width:1.0;" x1="580.645" x2="1139.7192" y1="869.2656" y2="869.2656"/><text fill="#000000" font-family="sans-serif" font-size="13" lengthAdjust="spacing" textLength="93.2026" x="816.5808" y="864.4092">find(material_id)</text><polygon fill="#181818" points="1195.064,895.6172,1205.064,899.6172,1195.064,903.6172,1199.064,899.6172" style="stroke:#181818;stroke-width:1.0;"/><line style="stroke:#181818;stroke-width:1.0;" x1="580.645" x2="1201.064" y1="899.6172" y2="899.6172"/><text fill="#000000" font-family="sans-serif" font-size="13" lengthAdjust="spacing" textLength="67.9263" x="859.8914" y="894.7607">find(unit_id)</text><polygon fill="#181818" points="372.5371,925.9688,362.5371,929.9688,372.5371,933.9688,368.5371,929.9688" style="stroke:#181818;stroke-width:1.0;"/><line style="stroke:#181818;stroke-width:1.0;stroke-dasharray:2.0,2.0;" x1="366.5371" x2="579.645" y1="929.9688" y2="929.9688"/><text fill="#000000" font-family="sans-serif" font-size="13" lengthAdjust="spacing" textLength="93.9326" x="424.1248" y="925.1123">showLogDetail()</text><polygon fill="#181818" points="349.5371,956.3203,359.5371,960.3203,349.5371,964.3203,353.5371,960.3203" style="stroke:#181818;stroke-width:1.0;"/><line style="stroke:#181818;stroke-width:1.0;" x1="58.5894" x2="355.5371" y1="960.3203" y2="960.3203"/><text fill="#000000" font-family="sans-serif" font-size="13" lengthAdjust="spacing" textLength="62.1309" x="178.9978" y="955.4639">Reset filter</text><polygon fill="#181818" points="568.645,986.6719,578.645,990.6719,568.645,994.6719,572.645,990.6719" style="stroke:#181818;stroke-width:1.0;"/><line style="stroke:#181818;stroke-width:1.0;" x1="361.5371" x2="574.645" y1="990.6719" y2="990.6719"/><text fill="#000000" font-family="sans-serif" font-size="13" lengthAdjust="spacing" textLength="72.9473" x="434.6174" y="985.8154">resetFilters()</text><polygon fill="#181818" points="1044.3506,1017.0234,1054.3506,1021.0234,1044.3506,1025.0234,1048.3506,1021.0234" style="stroke:#181818;stroke-width:1.0;"/><line style="stroke:#181818;stroke-width:1.0;" x1="580.645" x2="1050.3506" y1="1021.0234" y2="1021.0234"/><text fill="#000000" font-family="sans-serif" font-size="13" lengthAdjust="spacing" textLength="196.6758" x="720.1599" y="1016.167">with('material.unit', 'user')-&gt;latest()</text><polygon fill="#181818" points="372.5371,1047.375,362.5371,1051.375,372.5371,1055.375,368.5371,1051.375" style="stroke:#181818;stroke-width:1.0;"/><line style="stroke:#181818;stroke-width:1.0;stroke-dasharray:2.0,2.0;" x1="366.5371" x2="579.645" y1="1051.375" y2="1051.375"/><text fill="#000000" font-family="sans-serif" font-size="13" lengthAdjust="spacing" textLength="91.7617" x="425.2102" y="1046.5186">displayAllLogs()</text><!--SRC=[lPJTYjim48Nl_HGYiDY1JH-W5u7yK5WQBw6RNBKbp5gpzc15TYMv8M_VaUCaTXmlfRIzitNEp7p7acnpqYKOs0kBFohK2SPeBQGuKvHgaQ1sQ8B0aLCeNXgBM1AaNFDDVqPLA10pLHcnHcDH4e0E0aXSOSHe3Yc15a_w9_Sf38q4MB6rt95dEage1Et4wAmVLqMwvjcrxMcr7dOj2krCeHIQnhiOzZQEhY46paMWQZ7UTCMj9dT2VGu2ZoicKyyZFeeOTGgvHIjKaOho6jdBjMl1hdrHQHUD0_zMB_BQWLmMXVjcxeUAPuIF8gouVJYUJ1KBzb9pcIV9bWfy3ClQ3SmdKjnDlAAHOC7a_AbV8GCTdQViI8wxP6zroVnupdzhRV5cQF0Ap3hZjjsJwRkHxWSv8QFyxK2EIepSiSI189jZI-_HUu6HQlq_yO9EK_wkrl69sacUzIXGo_ff8CAIfK7_JQGvkWEYZiB483la3do4h_Ugl_-Bn0imrCahqUQ6IakHHJ19TfFnjDZIUbl43H9kuAZG7arHxdSiV3YLF8H_bkAbhlw2jbBkJemLPU2OtG4fVvEZtaMnMN68UdVY_JlyHbgsQ-9DlSkyUE-MRP_FgkzpLIwG7e5tOLbJzZDmE7JD8Ugo6w-Szj7-pR_GJAdcLFm2]--></g></svg>