<svg xmlns="http://www.w3.org/2000/svg" xmlns:xlink="http://www.w3.org/1999/xlink" contentStyleType="text/css" height="967px" preserveAspectRatio="none" style="width:1260px;height:967px;background:#FFFFFF;" version="1.1" viewBox="0 0 1260 967" width="1260px" zoomAndPan="magnify"><title>Sequence Diagram</title><defs/><g><text fill="#000000" font-family="sans-serif" font-size="14" font-weight="bold" lengthAdjust="spacing" textLength="126.0479" x="568.8894" y="29.5332">Sequence Diagram</text><text fill="#000000" font-family="sans-serif" font-size="14" font-weight="bold" lengthAdjust="spacing" textLength="210.0273" x="526.8997" y="47.1426">Mengelola Produk &amp; Komposisi</text><rect fill="none" height="378.5703" style="stroke:#000000;stroke-width:1.5;" width="1244.8267" x="10" y="337.9375"/><rect fill="none" height="139.7578" style="stroke:#000000;stroke-width:1.5;" width="1224.8267" x="20" y="363.2891"/><rect fill="none" height="109.4063" style="stroke:#000000;stroke-width:1.5;" width="1151.0337" x="20" y="517.0469"/><line style="stroke:#181818;stroke-width:0.5;stroke-dasharray:5.0,5.0;" x1="83" x2="83" y1="138.8281" y2="885.2656"/><line style="stroke:#181818;stroke-width:0.5;stroke-dasharray:5.0,5.0;" x1="479.9976" x2="479.9976" y1="138.8281" y2="885.2656"/><line style="stroke:#181818;stroke-width:0.5;stroke-dasharray:5.0,5.0;" x1="699.8389" x2="699.8389" y1="138.8281" y2="885.2656"/><line style="stroke:#181818;stroke-width:0.5;stroke-dasharray:5.0,5.0;" x1="891.9243" x2="891.9243" y1="138.8281" y2="885.2656"/><line style="stroke:#181818;stroke-width:0.5;stroke-dasharray:5.0,5.0;" x1="1003.1724" x2="1003.1724" y1="138.8281" y2="885.2656"/><line style="stroke:#181818;stroke-width:0.5;stroke-dasharray:5.0,5.0;" x1="1121.2339" x2="1121.2339" y1="138.8281" y2="885.2656"/><line style="stroke:#181818;stroke-width:0.5;stroke-dasharray:5.0,5.0;" x1="1202.0337" x2="1202.0337" y1="138.8281" y2="885.2656"/><text fill="#000000" font-family="sans-serif" font-size="14" lengthAdjust="spacing" textLength="101.1787" x="30" y="135.752">Bagian Inventori</text><ellipse cx="83.5894" cy="69.7188" fill="#E2E2F0" rx="8" ry="8" style="stroke:#181818;stroke-width:0.5;"/><path d="M83.5894,77.7188 L83.5894,104.7188 M70.5894,85.7188 L96.5894,85.7188 M83.5894,104.7188 L70.5894,119.7188 M83.5894,104.7188 L96.5894,119.7188 " fill="none" style="stroke:#181818;stroke-width:0.5;"/><text fill="#000000" font-family="sans-serif" font-size="14" lengthAdjust="spacing" textLength="101.1787" x="30" y="898.7988">Bagian Inventori</text><ellipse cx="83.5894" cy="910.375" fill="#E2E2F0" rx="8" ry="8" style="stroke:#181818;stroke-width:0.5;"/><path d="M83.5894,918.375 L83.5894,945.375 M70.5894,926.375 L96.5894,926.375 M83.5894,945.375 L70.5894,960.375 M83.5894,945.375 L96.5894,960.375 " fill="none" style="stroke:#181818;stroke-width:0.5;"/><rect fill="#E2E2F0" height="31.6094" rx="2.5" ry="2.5" style="stroke:#181818;stroke-width:0.5;" width="94.9443" x="432.9976" y="106.2188"/><text fill="#000000" font-family="sans-serif" font-size="14" lengthAdjust="spacing" textLength="80.9443" x="439.9976" y="127.752">ProductPage</text><rect fill="#E2E2F0" height="31.6094" rx="2.5" ry="2.5" style="stroke:#181818;stroke-width:0.5;" width="94.9443" x="432.9976" y="884.2656"/><text fill="#000000" font-family="sans-serif" font-size="14" lengthAdjust="spacing" textLength="80.9443" x="439.9976" y="905.7988">ProductPage</text><rect fill="#E2E2F0" height="31.6094" rx="2.5" ry="2.5" style="stroke:#181818;stroke-width:0.5;" width="122.9375" x="638.8389" y="106.2188"/><text fill="#000000" font-family="sans-serif" font-size="14" lengthAdjust="spacing" textLength="108.9375" x="645.8389" y="127.752">ProductController</text><rect fill="#E2E2F0" height="31.6094" rx="2.5" ry="2.5" style="stroke:#181818;stroke-width:0.5;" width="122.9375" x="638.8389" y="884.2656"/><text fill="#000000" font-family="sans-serif" font-size="14" lengthAdjust="spacing" textLength="108.9375" x="645.8389" y="905.7988">ProductController</text><rect fill="#E2E2F0" height="31.6094" rx="2.5" ry="2.5" style="stroke:#181818;stroke-width:0.5;" width="62.248" x="860.9243" y="106.2188"/><text fill="#000000" font-family="sans-serif" font-size="14" lengthAdjust="spacing" textLength="48.248" x="867.9243" y="127.752">Product</text><rect fill="#E2E2F0" height="31.6094" rx="2.5" ry="2.5" style="stroke:#181818;stroke-width:0.5;" width="62.248" x="860.9243" y="884.2656"/><text fill="#000000" font-family="sans-serif" font-size="14" lengthAdjust="spacing" textLength="48.248" x="867.9243" y="905.7988">Product</text><rect fill="#E2E2F0" height="31.6094" rx="2.5" ry="2.5" style="stroke:#181818;stroke-width:0.5;" width="140.0615" x="933.1724" y="106.2188"/><text fill="#000000" font-family="sans-serif" font-size="14" lengthAdjust="spacing" textLength="126.0615" x="940.1724" y="127.752">ProductComposition</text><rect fill="#E2E2F0" height="31.6094" rx="2.5" ry="2.5" style="stroke:#181818;stroke-width:0.5;" width="140.0615" x="933.1724" y="884.2656"/><text fill="#000000" font-family="sans-serif" font-size="14" lengthAdjust="spacing" textLength="126.0615" x="940.1724" y="905.7988">ProductComposition</text><rect fill="#E2E2F0" height="31.6094" rx="2.5" ry="2.5" style="stroke:#181818;stroke-width:0.5;" width="77.7998" x="1083.2339" y="106.2188"/><text fill="#000000" font-family="sans-serif" font-size="14" lengthAdjust="spacing" textLength="63.7998" x="1090.2339" y="127.752">OtherCost</text><rect fill="#E2E2F0" height="31.6094" rx="2.5" ry="2.5" style="stroke:#181818;stroke-width:0.5;" width="77.7998" x="1083.2339" y="884.2656"/><text fill="#000000" font-family="sans-serif" font-size="14" lengthAdjust="spacing" textLength="63.7998" x="1090.2339" y="905.7988">OtherCost</text><rect fill="#E2E2F0" height="31.6094" rx="2.5" ry="2.5" style="stroke:#181818;stroke-width:0.5;" width="63.793" x="1171.0337" y="106.2188"/><text fill="#000000" font-family="sans-serif" font-size="14" lengthAdjust="spacing" textLength="49.793" x="1178.0337" y="127.752">Material</text><rect fill="#E2E2F0" height="31.6094" rx="2.5" ry="2.5" style="stroke:#181818;stroke-width:0.5;" width="63.793" x="1171.0337" y="884.2656"/><text fill="#000000" font-family="sans-serif" font-size="14" lengthAdjust="spacing" textLength="49.793" x="1178.0337" y="905.7988">Material</text><polygon fill="#181818" points="468.4697,167.1797,478.4697,171.1797,468.4697,175.1797,472.4697,171.1797" style="stroke:#181818;stroke-width:1.0;"/><line style="stroke:#181818;stroke-width:1.0;" x1="83.5894" x2="474.4697" y1="171.1797" y2="171.1797"/><text fill="#000000" font-family="sans-serif" font-size="13" lengthAdjust="spacing" textLength="138.0298" x="213.0146" y="166.3232">Menambah produk baru</text><polygon fill="#181818" points="94.5894,197.5313,84.5894,201.5313,94.5894,205.5313,90.5894,201.5313" style="stroke:#181818;stroke-width:1.0;"/><line style="stroke:#181818;stroke-width:1.0;stroke-dasharray:2.0,2.0;" x1="88.5894" x2="479.4697" y1="201.5313" y2="201.5313"/><text fill="#000000" font-family="sans-serif" font-size="13" lengthAdjust="spacing" textLength="121.3799" x="221.3396" y="196.6748">Tampilkan form input</text><polygon fill="#181818" points="468.4697,227.8828,478.4697,231.8828,468.4697,235.8828,472.4697,231.8828" style="stroke:#181818;stroke-width:1.0;"/><line style="stroke:#181818;stroke-width:1.0;" x1="83.5894" x2="474.4697" y1="231.8828" y2="231.8828"/><text fill="#000000" font-family="sans-serif" font-size="13" lengthAdjust="spacing" textLength="372.8804" x="95.5894" y="227.0264">Input data produk(nama, deskripsi, kategori, harga_jual, metode)</text><polygon fill="#181818" points="688.3076,258.2344,698.3076,262.2344,688.3076,266.2344,692.3076,262.2344" style="stroke:#181818;stroke-width:1.0;"/><line style="stroke:#181818;stroke-width:1.0;" x1="480.4697" x2="694.3076" y1="262.2344" y2="262.2344"/><text fill="#000000" font-family="sans-serif" font-size="13" lengthAdjust="spacing" textLength="62.8608" x="558.9583" y="257.3779">store(data)</text><polygon fill="#181818" points="880.0483,288.5859,890.0483,292.5859,880.0483,296.5859,884.0483,292.5859" style="stroke:#181818;stroke-width:1.0;"/><line style="stroke:#181818;stroke-width:1.0;" x1="700.3076" x2="886.0483" y1="292.5859" y2="292.5859"/><text fill="#000000" font-family="sans-serif" font-size="13" lengthAdjust="spacing" textLength="70.0908" x="761.1326" y="287.7295">create(data)</text><polygon fill="#181818" points="711.3076,318.9375,701.3076,322.9375,711.3076,326.9375,707.3076,322.9375" style="stroke:#181818;stroke-width:1.0;"/><line style="stroke:#181818;stroke-width:1.0;stroke-dasharray:2.0,2.0;" x1="705.3076" x2="891.0483" y1="322.9375" y2="322.9375"/><text fill="#000000" font-family="sans-serif" font-size="13" lengthAdjust="spacing" textLength="60.709" x="765.8235" y="318.0811">product_id</text><path d="M10,337.9375 L70.1709,337.9375 L70.1709,346.2891 L60.1709,356.2891 L10,356.2891 L10,337.9375 " fill="#EEEEEE" style="stroke:#000000;stroke-width:1.5;"/><rect fill="none" height="378.5703" style="stroke:#000000;stroke-width:1.5;" width="1244.8267" x="10" y="337.9375"/><text fill="#000000" font-family="sans-serif" font-size="13" font-weight="bold" lengthAdjust="spacing" textLength="15.1709" x="25" y="352.4326">alt</text><text fill="#000000" font-family="sans-serif" font-size="11" font-weight="bold" lengthAdjust="spacing" textLength="190.0938" x="85.1709" y="351.3564">[Semua Produk Memiliki Komposisi]</text><path d="M20,363.2891 L92.4346,363.2891 L92.4346,371.6406 L82.4346,381.6406 L20,381.6406 L20,363.2891 " fill="#EEEEEE" style="stroke:#000000;stroke-width:1.5;"/><rect fill="none" height="139.7578" style="stroke:#000000;stroke-width:1.5;" width="1224.8267" x="20" y="363.2891"/><text fill="#000000" font-family="sans-serif" font-size="13" font-weight="bold" lengthAdjust="spacing" textLength="27.4346" x="35" y="377.7842">loop</text><text fill="#000000" font-family="sans-serif" font-size="11" font-weight="bold" lengthAdjust="spacing" textLength="141.1846" x="107.4346" y="376.708">[Untuk Setiap Bahan Baku]</text><polygon fill="#181818" points="468.4697,399.9922,478.4697,403.9922,468.4697,407.9922,472.4697,403.9922" style="stroke:#181818;stroke-width:1.0;"/><line style="stroke:#181818;stroke-width:1.0;" x1="83.5894" x2="474.4697" y1="403.9922" y2="403.9922"/><text fill="#000000" font-family="sans-serif" font-size="13" lengthAdjust="spacing" textLength="212.4434" x="175.8079" y="399.1357">Tambah bahan(material_id, qty, unit)</text><polygon fill="#181818" points="688.3076,430.3438,698.3076,434.3438,688.3076,438.3438,692.3076,434.3438" style="stroke:#181818;stroke-width:1.0;"/><line style="stroke:#181818;stroke-width:1.0;" x1="480.4697" x2="694.3076" y1="434.3438" y2="434.3438"/><text fill="#000000" font-family="sans-serif" font-size="13" lengthAdjust="spacing" textLength="195.8379" x="492.4697" y="429.4873">addComposition(product_id, data)</text><polygon fill="#181818" points="1190.9302,460.6953,1200.9302,464.6953,1190.9302,468.6953,1194.9302,464.6953" style="stroke:#181818;stroke-width:1.0;"/><line style="stroke:#181818;stroke-width:1.0;" x1="700.3076" x2="1196.9302" y1="464.6953" y2="464.6953"/><text fill="#000000" font-family="sans-serif" font-size="13" lengthAdjust="spacing" textLength="117.0508" x="893.0935" y="459.8389">validate(material_id)</text><polygon fill="#181818" points="991.2031,491.0469,1001.2031,495.0469,991.2031,499.0469,995.2031,495.0469" style="stroke:#181818;stroke-width:1.0;"/><line style="stroke:#181818;stroke-width:1.0;" x1="700.3076" x2="997.2031" y1="495.0469" y2="495.0469"/><text fill="#000000" font-family="sans-serif" font-size="13" lengthAdjust="spacing" textLength="229.0552" x="737.2278" y="490.1904">create(product_id, material_id, qty, unit)</text><path d="M20,517.0469 L92.4346,517.0469 L92.4346,525.3984 L82.4346,535.3984 L20,535.3984 L20,517.0469 " fill="#EEEEEE" style="stroke:#000000;stroke-width:1.5;"/><rect fill="none" height="109.4063" style="stroke:#000000;stroke-width:1.5;" width="1151.0337" x="20" y="517.0469"/><text fill="#000000" font-family="sans-serif" font-size="13" font-weight="bold" lengthAdjust="spacing" textLength="27.4346" x="35" y="531.542">loop</text><text fill="#000000" font-family="sans-serif" font-size="11" font-weight="bold" lengthAdjust="spacing" textLength="132.6338" x="107.4346" y="530.4658">[Untuk Setiap Biaya Lain]</text><polygon fill="#181818" points="468.4697,553.75,478.4697,557.75,468.4697,561.75,472.4697,557.75" style="stroke:#181818;stroke-width:1.0;"/><line style="stroke:#181818;stroke-width:1.0;" x1="83.5894" x2="474.4697" y1="557.75" y2="557.75"/><text fill="#000000" font-family="sans-serif" font-size="13" lengthAdjust="spacing" textLength="244.2451" x="159.907" y="552.8936">Tambah biaya(type_cost_id, nama, harga)</text><polygon fill="#181818" points="688.3076,584.1016,698.3076,588.1016,688.3076,592.1016,692.3076,588.1016" style="stroke:#181818;stroke-width:1.0;"/><line style="stroke:#181818;stroke-width:1.0;" x1="480.4697" x2="694.3076" y1="588.1016" y2="588.1016"/><text fill="#000000" font-family="sans-serif" font-size="13" lengthAdjust="spacing" textLength="182.8252" x="498.9761" y="583.2451">addOtherCost(product_id, data)</text><polygon fill="#181818" points="1110.1338,614.4531,1120.1338,618.4531,1110.1338,622.4531,1114.1338,618.4531" style="stroke:#181818;stroke-width:1.0;"/><line style="stroke:#181818;stroke-width:1.0;" x1="700.3076" x2="1116.1338" y1="618.4531" y2="618.4531"/><text fill="#000000" font-family="sans-serif" font-size="13" lengthAdjust="spacing" textLength="265.9287" x="778.2563" y="613.5967">create(product_id, type_cost_id, nama, harga)</text><line style="stroke:#181818;stroke-width:1.0;" x1="700.3076" x2="742.3076" y1="660.4805" y2="660.4805"/><line style="stroke:#181818;stroke-width:1.0;" x1="742.3076" x2="742.3076" y1="660.4805" y2="673.4805"/><line style="stroke:#181818;stroke-width:1.0;" x1="701.3076" x2="742.3076" y1="673.4805" y2="673.4805"/><polygon fill="#181818" points="711.3076,669.4805,701.3076,673.4805,711.3076,677.4805,707.3076,673.4805" style="stroke:#181818;stroke-width:1.0;"/><text fill="#000000" font-family="sans-serif" font-size="13" lengthAdjust="spacing" textLength="177.7407" x="707.3076" y="655.624">calculateCapitalAutomatically()</text><path d="M896.7407,638.4531 L896.7407,680.4531 L1108.7407,680.4531 L1108.7407,648.4531 L1098.7407,638.4531 L896.7407,638.4531 " fill="#FEFFDD" style="stroke:#181818;stroke-width:0.5;"/><path d="M1098.7407,638.4531 L1098.7407,648.4531 L1108.7407,648.4531 L1098.7407,638.4531 " fill="#FEFFDD" style="stroke:#181818;stroke-width:0.5;"/><text fill="#000000" font-family="sans-serif" font-size="13" lengthAdjust="spacing" textLength="164.0234" x="902.7407" y="656.9482">Sistem otomatis menghitung</text><text fill="#000000" font-family="sans-serif" font-size="13" lengthAdjust="spacing" textLength="191.8452" x="902.7407" y="673.2998">modal dari komposisi + biaya lain</text><polygon fill="#181818" points="880.0483,704.5078,890.0483,708.5078,880.0483,712.5078,884.0483,708.5078" style="stroke:#181818;stroke-width:1.0;"/><line style="stroke:#181818;stroke-width:1.0;" x1="700.3076" x2="886.0483" y1="708.5078" y2="708.5078"/><text fill="#000000" font-family="sans-serif" font-size="13" lengthAdjust="spacing" textLength="156.0952" x="718.1304" y="703.6514">updateCapital(total_modal)</text><polygon fill="#181818" points="468.4697,741.8594,478.4697,745.8594,468.4697,749.8594,472.4697,745.8594" style="stroke:#181818;stroke-width:1.0;"/><line style="stroke:#181818;stroke-width:1.0;" x1="83.5894" x2="474.4697" y1="745.8594" y2="745.8594"/><text fill="#000000" font-family="sans-serif" font-size="13" lengthAdjust="spacing" textLength="89.6226" x="237.2183" y="741.0029">Input harga jual</text><polygon fill="#181818" points="688.3076,772.2109,698.3076,776.2109,688.3076,780.2109,692.3076,776.2109" style="stroke:#181818;stroke-width:1.0;"/><line style="stroke:#181818;stroke-width:1.0;" x1="480.4697" x2="694.3076" y1="776.2109" y2="776.2109"/><text fill="#000000" font-family="sans-serif" font-size="13" lengthAdjust="spacing" textLength="174.1479" x="503.3147" y="771.3545">updatePrice(product_id, price)</text><polygon fill="#181818" points="880.0483,802.5625,890.0483,806.5625,880.0483,810.5625,884.0483,806.5625" style="stroke:#181818;stroke-width:1.0;"/><line style="stroke:#181818;stroke-width:1.0;" x1="700.3076" x2="886.0483" y1="806.5625" y2="806.5625"/><text fill="#000000" font-family="sans-serif" font-size="13" lengthAdjust="spacing" textLength="76.5972" x="757.8794" y="801.7061">update(price)</text><polygon fill="#181818" points="491.4697,832.9141,481.4697,836.9141,491.4697,840.9141,487.4697,836.9141" style="stroke:#181818;stroke-width:1.0;"/><line style="stroke:#181818;stroke-width:1.0;stroke-dasharray:2.0,2.0;" x1="485.4697" x2="699.3076" y1="836.9141" y2="836.9141"/><text fill="#000000" font-family="sans-serif" font-size="13" lengthAdjust="spacing" textLength="88.1372" x="546.3201" y="832.0576">showSuccess()</text><polygon fill="#181818" points="94.5894,863.2656,84.5894,867.2656,94.5894,871.2656,90.5894,867.2656" style="stroke:#181818;stroke-width:1.0;"/><line style="stroke:#181818;stroke-width:1.0;stroke-dasharray:2.0,2.0;" x1="88.5894" x2="479.4697" y1="867.2656" y2="867.2656"/><text fill="#000000" font-family="sans-serif" font-size="13" lengthAdjust="spacing" textLength="168.3779" x="197.8406" y="862.4092">Produk berhasil ditambahkan</text><!--SRC=[XLJ1Rjim3BtxAuWU1WTpVw270QrtAJQZ0PBT2WIChTcSPKcLg0xv-r5oaZf5klfW8-JZ8_b89ena77gS8AYNg4oh6XK2zkfUKs-WLOQLBmecrWesHmXy9-mbvjaqolHAMusmzhQB8to17tPoDb2Wei2MhOUR1-m93JoQLs6pdcu0G_fLI6AcbXmQXfjCqF9QScV0UdtLNrl3tcgj_8oghw9cN_C1GowGoPeZnJlS4m_ArpRCB4_lCZGeYX3gx6osHI6TmEqtgHVkGFJ0QOy3k5cEFVfOYETM00bt1rkS7EbHzFXj_GIYVkHBZiTaWWuPZoobS685dGgZ9nUeWb5gw4N92WRqFUx-HDGLJ8fjfrOvdt3LmXL4RrKcBZ7NsTo8kVLA64xs9fUNyMwMQ4UTJ4-pJ7oAvzasQY9D8or63F9eQntyCYo8ZM921myuI7yFECOCIC-omUqiqJwXokaefwIiu8KF5KH3l3e7Bfh1hblChdohjOAvatDCxhJPIimhQkfIhuiyxu6o06-QB5d_LvioNVv-907X0U4dalcl10bLyi6fNIlxblFCmyvp_KY5yu9-gi5JVRspJr9UD7SIAJ6XRgCMiXeTCUhxo5P48h7hGpd76iiAFFK3ty660gi9x8mAig6c7uYZwP_DP3lKKhGd64_x15zdIK2VX5iiRNJTM-QIhRntcMHLf7glt53k2D9nB6zYvbbxQYyrSSboSIOpiZmwikUK80psxoQshVnPbglB2pzUorxv0GD9Yr9lchRSVF4F]--></g></svg>