<svg xmlns="http://www.w3.org/2000/svg" xmlns:xlink="http://www.w3.org/1999/xlink" contentStyleType="text/css" height="2037px" preserveAspectRatio="none" style="width:1497px;height:2037px;background:#FFFFFF;" version="1.1" viewBox="0 0 1497 2037" width="1497px" zoomAndPan="magnify"><title>Sequence Diagram</title><defs/><g><text fill="#000000" font-family="sans-serif" font-size="14" font-weight="bold" lengthAdjust="spacing" textLength="126.0479" x="686.645" y="29.5332">Sequence Diagram</text><text fill="#000000" font-family="sans-serif" font-size="14" font-weight="bold" lengthAdjust="spacing" textLength="136.9375" x="681.2002" y="47.1426">Profil &amp; Pembayaran</text><rect fill="none" height="278.3203" style="stroke:#000000;stroke-width:1.5;" width="1076.5737" x="413.7642" y="411.6406"/><rect fill="none" height="232.1328" style="stroke:#000000;stroke-width:1.5;" width="1076.5737" x="413.7642" y="929.4219"/><rect fill="none" height="216.2969" style="stroke:#000000;stroke-width:1.5;" width="1076.5737" x="413.7642" y="1309.9609"/><rect fill="none" height="155.5938" style="stroke:#000000;stroke-width:1.5;" width="1076.5737" x="413.7642" y="1783.0703"/><line style="stroke:#181818;stroke-width:0.5;stroke-dasharray:5.0,5.0;" x1="27" x2="27" y1="138.8281" y2="1955.6641"/><line style="stroke:#181818;stroke-width:0.5;stroke-dasharray:5.0,5.0;" x1="471.7642" x2="471.7642" y1="138.8281" y2="1955.6641"/><line style="stroke:#181818;stroke-width:0.5;stroke-dasharray:5.0,5.0;" x1="900.4434" x2="900.4434" y1="138.8281" y2="1955.6641"/><line style="stroke:#181818;stroke-width:0.5;stroke-dasharray:5.0,5.0;" x1="1220.415" x2="1220.415" y1="138.8281" y2="1955.6641"/><line style="stroke:#181818;stroke-width:0.5;stroke-dasharray:5.0,5.0;" x1="1345.9043" x2="1345.9043" y1="138.8281" y2="1955.6641"/><line style="stroke:#181818;stroke-width:0.5;stroke-dasharray:5.0,5.0;" x1="1448.3037" x2="1448.3037" y1="138.8281" y2="1955.6641"/><text fill="#000000" font-family="sans-serif" font-size="14" lengthAdjust="spacing" textLength="39.6826" x="5" y="135.752">Admin</text><ellipse cx="27.8413" cy="69.7188" fill="#E2E2F0" rx="8" ry="8" style="stroke:#181818;stroke-width:0.5;"/><path d="M27.8413,77.7188 L27.8413,104.7188 M14.8413,85.7188 L40.8413,85.7188 M27.8413,104.7188 L14.8413,119.7188 M27.8413,104.7188 L40.8413,119.7188 " fill="none" style="stroke:#181818;stroke-width:0.5;"/><text fill="#000000" font-family="sans-serif" font-size="14" lengthAdjust="spacing" textLength="39.6826" x="5" y="1969.1973">Admin</text><ellipse cx="27.8413" cy="1980.7734" fill="#E2E2F0" rx="8" ry="8" style="stroke:#181818;stroke-width:0.5;"/><path d="M27.8413,1988.7734 L27.8413,2015.7734 M14.8413,1996.7734 L40.8413,1996.7734 M27.8413,2015.7734 L14.8413,2030.7734 M27.8413,2015.7734 L40.8413,2030.7734 " fill="none" style="stroke:#181818;stroke-width:0.5;"/><rect fill="#E2E2F0" height="31.6094" rx="2.5" ry="2.5" style="stroke:#181818;stroke-width:0.5;" width="97.2822" x="423.7642" y="106.2188"/><text fill="#000000" font-family="sans-serif" font-size="14" lengthAdjust="spacing" textLength="83.2822" x="430.7642" y="127.752">SettingsPage</text><rect fill="#E2E2F0" height="31.6094" rx="2.5" ry="2.5" style="stroke:#181818;stroke-width:0.5;" width="97.2822" x="423.7642" y="1954.6641"/><text fill="#000000" font-family="sans-serif" font-size="14" lengthAdjust="spacing" textLength="83.2822" x="430.7642" y="1976.1973">SettingsPage</text><rect fill="#E2E2F0" height="31.6094" rx="2.5" ry="2.5" style="stroke:#181818;stroke-width:0.5;" width="125.2754" x="838.4434" y="106.2188"/><text fill="#000000" font-family="sans-serif" font-size="14" lengthAdjust="spacing" textLength="111.2754" x="845.4434" y="127.752">SettingsController</text><rect fill="#E2E2F0" height="31.6094" rx="2.5" ry="2.5" style="stroke:#181818;stroke-width:0.5;" width="125.2754" x="838.4434" y="1954.6641"/><text fill="#000000" font-family="sans-serif" font-size="14" lengthAdjust="spacing" textLength="111.2754" x="845.4434" y="1976.1973">SettingsController</text><rect fill="#E2E2F0" height="31.6094" rx="2.5" ry="2.5" style="stroke:#181818;stroke-width:0.5;" width="110.4893" x="1165.415" y="106.2188"/><text fill="#000000" font-family="sans-serif" font-size="14" lengthAdjust="spacing" textLength="96.4893" x="1172.415" y="127.752">BusinessProfile</text><rect fill="#E2E2F0" height="31.6094" rx="2.5" ry="2.5" style="stroke:#181818;stroke-width:0.5;" width="110.4893" x="1165.415" y="1954.6641"/><text fill="#000000" font-family="sans-serif" font-size="14" lengthAdjust="spacing" textLength="96.4893" x="1172.415" y="1976.1973">BusinessProfile</text><rect fill="#E2E2F0" height="31.6094" rx="2.5" ry="2.5" style="stroke:#181818;stroke-width:0.5;" width="121.3994" x="1285.9043" y="106.2188"/><text fill="#000000" font-family="sans-serif" font-size="14" lengthAdjust="spacing" textLength="107.3994" x="1292.9043" y="127.752">PaymentChannel</text><rect fill="#E2E2F0" height="31.6094" rx="2.5" ry="2.5" style="stroke:#181818;stroke-width:0.5;" width="121.3994" x="1285.9043" y="1954.6641"/><text fill="#000000" font-family="sans-serif" font-size="14" lengthAdjust="spacing" textLength="107.3994" x="1292.9043" y="1976.1973">PaymentChannel</text><rect fill="#E2E2F0" height="31.6094" rx="2.5" ry="2.5" style="stroke:#181818;stroke-width:0.5;" width="63.0342" x="1417.3037" y="106.2188"/><text fill="#000000" font-family="sans-serif" font-size="14" lengthAdjust="spacing" textLength="49.0342" x="1424.3037" y="127.752">Storage</text><rect fill="#E2E2F0" height="31.6094" rx="2.5" ry="2.5" style="stroke:#181818;stroke-width:0.5;" width="63.0342" x="1417.3037" y="1954.6641"/><text fill="#000000" font-family="sans-serif" font-size="14" lengthAdjust="spacing" textLength="49.0342" x="1424.3037" y="1976.1973">Storage</text><polygon fill="#181818" points="460.4053,167.1797,470.4053,171.1797,460.4053,175.1797,464.4053,171.1797" style="stroke:#181818;stroke-width:1.0;"/><line style="stroke:#181818;stroke-width:1.0;" x1="27.8413" x2="466.4053" y1="171.1797" y2="171.1797"/><text fill="#000000" font-family="sans-serif" font-size="13" lengthAdjust="spacing" textLength="189.3506" x="155.448" y="166.3232">Mengakses halaman pengaturan</text><polygon fill="#181818" points="889.0811,197.5313,899.0811,201.5313,889.0811,205.5313,893.0811,201.5313" style="stroke:#181818;stroke-width:1.0;"/><line style="stroke:#181818;stroke-width:1.0;" x1="472.4053" x2="895.0811" y1="201.5313" y2="201.5313"/><text fill="#000000" font-family="sans-serif" font-size="13" lengthAdjust="spacing" textLength="44.7891" x="664.3486" y="196.6748">mount()</text><polygon fill="#181818" points="1208.6597,227.8828,1218.6597,231.8828,1208.6597,235.8828,1212.6597,231.8828" style="stroke:#181818;stroke-width:1.0;"/><line style="stroke:#181818;stroke-width:1.0;" x1="901.0811" x2="1214.6597" y1="231.8828" y2="231.8828"/><text fill="#000000" font-family="sans-serif" font-size="13" lengthAdjust="spacing" textLength="29.5991" x="1046.0708" y="227.0264">first()</text><polygon fill="#181818" points="1334.604,258.2344,1344.604,262.2344,1334.604,266.2344,1338.604,262.2344" style="stroke:#181818;stroke-width:1.0;"/><line style="stroke:#181818;stroke-width:1.0;" x1="901.0811" x2="1340.604" y1="262.2344" y2="262.2344"/><text fill="#000000" font-family="sans-serif" font-size="13" lengthAdjust="spacing" textLength="21.6646" x="1113.0103" y="257.3779">all()</text><polygon fill="#181818" points="483.4053,288.5859,473.4053,292.5859,483.4053,296.5859,479.4053,292.5859" style="stroke:#181818;stroke-width:1.0;"/><line style="stroke:#181818;stroke-width:1.0;stroke-dasharray:2.0,2.0;" x1="477.4053" x2="900.0811" y1="292.5859" y2="292.5859"/><text fill="#000000" font-family="sans-serif" font-size="13" lengthAdjust="spacing" textLength="96.0972" x="638.6946" y="287.7295">displaySettings()</text><polygon fill="#181818" points="460.4053,318.9375,470.4053,322.9375,460.4053,326.9375,464.4053,322.9375" style="stroke:#181818;stroke-width:1.0;"/><line style="stroke:#181818;stroke-width:1.0;" x1="27.8413" x2="466.4053" y1="322.9375" y2="322.9375"/><text fill="#000000" font-family="sans-serif" font-size="13" lengthAdjust="spacing" textLength="282.5659" x="108.8403" y="318.0811">Update profil usaha(name, address, phone, logo)</text><polygon fill="#181818" points="889.0811,349.2891,899.0811,353.2891,889.0811,357.2891,893.0811,353.2891" style="stroke:#181818;stroke-width:1.0;"/><line style="stroke:#181818;stroke-width:1.0;" x1="472.4053" x2="895.0811" y1="353.2891" y2="353.2891"/><text fill="#000000" font-family="sans-serif" font-size="13" lengthAdjust="spacing" textLength="246.4351" x="563.5256" y="348.4326">updateProfile(name, address, phone, logo)</text><line style="stroke:#181818;stroke-width:1.0;" x1="901.0811" x2="943.0811" y1="383.6406" y2="383.6406"/><line style="stroke:#181818;stroke-width:1.0;" x1="943.0811" x2="943.0811" y1="383.6406" y2="396.6406"/><line style="stroke:#181818;stroke-width:1.0;" x1="902.0811" x2="943.0811" y1="396.6406" y2="396.6406"/><polygon fill="#181818" points="912.0811,392.6406,902.0811,396.6406,912.0811,400.6406,908.0811,396.6406" style="stroke:#181818;stroke-width:1.0;"/><text fill="#000000" font-family="sans-serif" font-size="13" lengthAdjust="spacing" textLength="161.1606" x="908.0811" y="378.7842">validate(name, phone, logo)</text><path d="M413.7642,411.6406 L473.9351,411.6406 L473.9351,419.9922 L463.9351,429.9922 L413.7642,429.9922 L413.7642,411.6406 " fill="#EEEEEE" style="stroke:#000000;stroke-width:1.5;"/><rect fill="none" height="278.3203" style="stroke:#000000;stroke-width:1.5;" width="1076.5737" x="413.7642" y="411.6406"/><text fill="#000000" font-family="sans-serif" font-size="13" font-weight="bold" lengthAdjust="spacing" textLength="15.1709" x="428.7642" y="426.1357">alt</text><text fill="#000000" font-family="sans-serif" font-size="11" font-weight="bold" lengthAdjust="spacing" textLength="156.4331" x="488.9351" y="425.0596">[Logo Baru Diunggah &amp; Valid]</text><polygon fill="#181818" points="1436.8208,448.3438,1446.8208,452.3438,1436.8208,456.3438,1440.8208,452.3438" style="stroke:#181818;stroke-width:1.0;"/><line style="stroke:#181818;stroke-width:1.0;" x1="901.0811" x2="1442.8208" y1="452.3438" y2="452.3438"/><text fill="#000000" font-family="sans-serif" font-size="13" lengthAdjust="spacing" textLength="125.6328" x="1112.1345" y="447.4873">store(logo, 'business')</text><polygon fill="#181818" points="1208.6597,478.6953,1218.6597,482.6953,1208.6597,486.6953,1212.6597,482.6953" style="stroke:#181818;stroke-width:1.0;"/><line style="stroke:#181818;stroke-width:1.0;" x1="901.0811" x2="1214.6597" y1="482.6953" y2="482.6953"/><text fill="#000000" font-family="sans-serif" font-size="13" lengthAdjust="spacing" textLength="295.5786" x="913.0811" y="477.8389">updateOrCreate(name, address, phone, logo_path)</text><polygon fill="#181818" points="483.4053,509.0469,473.4053,513.0469,483.4053,517.0469,479.4053,513.0469" style="stroke:#181818;stroke-width:1.0;"/><line style="stroke:#181818;stroke-width:1.0;stroke-dasharray:2.0,2.0;" x1="477.4053" x2="900.0811" y1="513.0469" y2="513.0469"/><text fill="#000000" font-family="sans-serif" font-size="13" lengthAdjust="spacing" textLength="276.5801" x="548.4531" y="508.1904">showSuccess("Profil usaha berhasil diperbarui")</text><line style="stroke:#000000;stroke-width:1.0;stroke-dasharray:2.0,2.0;" x1="413.7642" x2="1490.3379" y1="522.0469" y2="522.0469"/><text fill="#000000" font-family="sans-serif" font-size="11" font-weight="bold" lengthAdjust="spacing" textLength="160.0962" x="418.7642" y="533.4658">[Format Logo Tidak Didukung]</text><polygon fill="#181818" points="483.4053,555.2344,473.4053,559.2344,483.4053,563.2344,479.4053,559.2344" style="stroke:#181818;stroke-width:1.0;"/><line style="stroke:#181818;stroke-width:1.0;stroke-dasharray:2.0,2.0;" x1="477.4053" x2="900.0811" y1="559.2344" y2="559.2344"/><text fill="#000000" font-family="sans-serif" font-size="13" lengthAdjust="spacing" textLength="293.2046" x="540.1409" y="554.3779">showError("Format logo harus jpg, jpeg, atau png")</text><line style="stroke:#000000;stroke-width:1.0;stroke-dasharray:2.0,2.0;" x1="413.7642" x2="1490.3379" y1="568.2344" y2="568.2344"/><text fill="#000000" font-family="sans-serif" font-size="11" font-weight="bold" lengthAdjust="spacing" textLength="155.2354" x="418.7642" y="579.6533">[Ukuran Logo Melebihi Batas]</text><polygon fill="#181818" points="483.4053,601.4219,473.4053,605.4219,483.4053,609.4219,479.4053,605.4219" style="stroke:#181818;stroke-width:1.0;"/><line style="stroke:#181818;stroke-width:1.0;stroke-dasharray:2.0,2.0;" x1="477.4053" x2="900.0811" y1="605.4219" y2="605.4219"/><text fill="#000000" font-family="sans-serif" font-size="13" lengthAdjust="spacing" textLength="236.0693" x="568.7085" y="600.5654">showError("Ukuran logo maksimal 2MB")</text><line style="stroke:#000000;stroke-width:1.0;stroke-dasharray:2.0,2.0;" x1="413.7642" x2="1490.3379" y1="614.4219" y2="614.4219"/><text fill="#000000" font-family="sans-serif" font-size="11" font-weight="bold" lengthAdjust="spacing" textLength="106.3208" x="418.7642" y="625.8408">[Logo Tidak Diubah]</text><polygon fill="#181818" points="1208.6597,647.6094,1218.6597,651.6094,1208.6597,655.6094,1212.6597,651.6094" style="stroke:#181818;stroke-width:1.0;"/><line style="stroke:#181818;stroke-width:1.0;" x1="901.0811" x2="1214.6597" y1="651.6094" y2="651.6094"/><text fill="#000000" font-family="sans-serif" font-size="13" lengthAdjust="spacing" textLength="231.2451" x="945.2478" y="646.7529">updateOrCreate(name, address, phone)</text><polygon fill="#181818" points="483.4053,677.9609,473.4053,681.9609,483.4053,685.9609,479.4053,681.9609" style="stroke:#181818;stroke-width:1.0;"/><line style="stroke:#181818;stroke-width:1.0;stroke-dasharray:2.0,2.0;" x1="477.4053" x2="900.0811" y1="681.9609" y2="681.9609"/><text fill="#000000" font-family="sans-serif" font-size="13" lengthAdjust="spacing" textLength="276.5801" x="548.4531" y="677.1045">showSuccess("Profil usaha berhasil diperbarui")</text><polygon fill="#181818" points="460.4053,715.3125,470.4053,719.3125,460.4053,723.3125,464.4053,719.3125" style="stroke:#181818;stroke-width:1.0;"/><line style="stroke:#181818;stroke-width:1.0;" x1="27.8413" x2="466.4053" y1="719.3125" y2="719.3125"/><text fill="#000000" font-family="sans-serif" font-size="13" lengthAdjust="spacing" textLength="190.0742" x="155.0862" y="714.4561">Lihat daftar channel pembayaran</text><polygon fill="#181818" points="889.0811,745.6641,899.0811,749.6641,889.0811,753.6641,893.0811,749.6641" style="stroke:#181818;stroke-width:1.0;"/><line style="stroke:#181818;stroke-width:1.0;" x1="472.4053" x2="895.0811" y1="749.6641" y2="749.6641"/><text fill="#000000" font-family="sans-serif" font-size="13" lengthAdjust="spacing" textLength="132.958" x="620.2642" y="744.8076">getPaymentChannels()</text><polygon fill="#181818" points="1334.604,776.0156,1344.604,780.0156,1334.604,784.0156,1338.604,780.0156" style="stroke:#181818;stroke-width:1.0;"/><line style="stroke:#181818;stroke-width:1.0;" x1="901.0811" x2="1340.604" y1="780.0156" y2="780.0156"/><text fill="#000000" font-family="sans-serif" font-size="13" lengthAdjust="spacing" textLength="21.6646" x="1113.0103" y="775.1592">all()</text><polygon fill="#181818" points="483.4053,806.3672,473.4053,810.3672,483.4053,814.3672,479.4053,810.3672" style="stroke:#181818;stroke-width:1.0;"/><line style="stroke:#181818;stroke-width:1.0;stroke-dasharray:2.0,2.0;" x1="477.4053" x2="900.0811" y1="810.3672" y2="810.3672"/><text fill="#000000" font-family="sans-serif" font-size="13" lengthAdjust="spacing" textLength="155.3525" x="609.0669" y="805.5107">displayPaymentChannels()</text><polygon fill="#181818" points="460.4053,836.7188,470.4053,840.7188,460.4053,844.7188,464.4053,840.7188" style="stroke:#181818;stroke-width:1.0;"/><line style="stroke:#181818;stroke-width:1.0;" x1="27.8413" x2="466.4053" y1="840.7188" y2="840.7188"/><text fill="#000000" font-family="sans-serif" font-size="13" lengthAdjust="spacing" textLength="420.564" x="39.8413" y="835.8623">Tambah channel pembayaran(name, type, account_number, qris_image)</text><polygon fill="#181818" points="889.0811,867.0703,899.0811,871.0703,889.0811,875.0703,893.0811,871.0703" style="stroke:#181818;stroke-width:1.0;"/><line style="stroke:#181818;stroke-width:1.0;" x1="472.4053" x2="895.0811" y1="871.0703" y2="871.0703"/><text fill="#000000" font-family="sans-serif" font-size="13" lengthAdjust="spacing" textLength="376.4731" x="498.5066" y="866.2139">storePaymentChannel(name, type, account_number, qris_image)</text><line style="stroke:#181818;stroke-width:1.0;" x1="901.0811" x2="943.0811" y1="901.4219" y2="901.4219"/><line style="stroke:#181818;stroke-width:1.0;" x1="943.0811" x2="943.0811" y1="901.4219" y2="914.4219"/><line style="stroke:#181818;stroke-width:1.0;" x1="902.0811" x2="943.0811" y1="914.4219" y2="914.4219"/><polygon fill="#181818" points="912.0811,910.4219,902.0811,914.4219,912.0811,918.4219,908.0811,914.4219" style="stroke:#181818;stroke-width:1.0;"/><text fill="#000000" font-family="sans-serif" font-size="13" lengthAdjust="spacing" textLength="292.6523" x="908.0811" y="896.5654">validate(name, type, account_number, qris_image)</text><path d="M413.7642,929.4219 L473.9351,929.4219 L473.9351,937.7734 L463.9351,947.7734 L413.7642,947.7734 L413.7642,929.4219 " fill="#EEEEEE" style="stroke:#000000;stroke-width:1.5;"/><rect fill="none" height="232.1328" style="stroke:#000000;stroke-width:1.5;" width="1076.5737" x="413.7642" y="929.4219"/><text fill="#000000" font-family="sans-serif" font-size="13" font-weight="bold" lengthAdjust="spacing" textLength="15.1709" x="428.7642" y="943.917">alt</text><text fill="#000000" font-family="sans-serif" font-size="11" font-weight="bold" lengthAdjust="spacing" textLength="147.6191" x="488.9351" y="942.8408">[Type = QRIS &amp; Image Valid]</text><polygon fill="#181818" points="1436.8208,966.125,1446.8208,970.125,1436.8208,974.125,1440.8208,970.125" style="stroke:#181818;stroke-width:1.0;"/><line style="stroke:#181818;stroke-width:1.0;" x1="901.0811" x2="1442.8208" y1="970.125" y2="970.125"/><text fill="#000000" font-family="sans-serif" font-size="13" lengthAdjust="spacing" textLength="134.2783" x="1107.8118" y="965.2686">store(qris_image, 'qris')</text><polygon fill="#181818" points="1334.604,996.4766,1344.604,1000.4766,1334.604,1004.4766,1338.604,1000.4766" style="stroke:#181818;stroke-width:1.0;"/><line style="stroke:#181818;stroke-width:1.0;" x1="901.0811" x2="1340.604" y1="1000.4766" y2="1000.4766"/><text fill="#000000" font-family="sans-serif" font-size="13" lengthAdjust="spacing" textLength="361.6641" x="943.0105" y="995.6201">create(name, type, account_number, qris_path, is_active=true)</text><polygon fill="#181818" points="483.4053,1026.8281,473.4053,1030.8281,483.4053,1034.8281,479.4053,1030.8281" style="stroke:#181818;stroke-width:1.0;"/><line style="stroke:#181818;stroke-width:1.0;stroke-dasharray:2.0,2.0;" x1="477.4053" x2="900.0811" y1="1030.8281" y2="1030.8281"/><text fill="#000000" font-family="sans-serif" font-size="13" lengthAdjust="spacing" textLength="348.8608" x="512.3127" y="1025.9717">showSuccess("Channel pembayaran berhasil ditambahkan")</text><line style="stroke:#000000;stroke-width:1.0;stroke-dasharray:2.0,2.0;" x1="413.7642" x2="1490.3379" y1="1039.8281" y2="1039.8281"/><text fill="#000000" font-family="sans-serif" font-size="11" font-weight="bold" lengthAdjust="spacing" textLength="76.0923" x="418.7642" y="1051.2471">[Type != QRIS]</text><polygon fill="#181818" points="1334.604,1073.0156,1344.604,1077.0156,1334.604,1081.0156,1338.604,1077.0156" style="stroke:#181818;stroke-width:1.0;"/><line style="stroke:#181818;stroke-width:1.0;" x1="901.0811" x2="1340.604" y1="1077.0156" y2="1077.0156"/><text fill="#000000" font-family="sans-serif" font-size="13" lengthAdjust="spacing" textLength="300.9614" x="973.3618" y="1072.1592">create(name, type, account_number, is_active=true)</text><polygon fill="#181818" points="483.4053,1103.3672,473.4053,1107.3672,483.4053,1111.3672,479.4053,1107.3672" style="stroke:#181818;stroke-width:1.0;"/><line style="stroke:#181818;stroke-width:1.0;stroke-dasharray:2.0,2.0;" x1="477.4053" x2="900.0811" y1="1107.3672" y2="1107.3672"/><text fill="#000000" font-family="sans-serif" font-size="13" lengthAdjust="spacing" textLength="348.8608" x="512.3127" y="1102.5107">showSuccess("Channel pembayaran berhasil ditambahkan")</text><line style="stroke:#000000;stroke-width:1.0;stroke-dasharray:2.0,2.0;" x1="413.7642" x2="1490.3379" y1="1116.3672" y2="1116.3672"/><text fill="#000000" font-family="sans-serif" font-size="11" font-weight="bold" lengthAdjust="spacing" textLength="82.5269" x="418.7642" y="1127.7861">[Validasi Gagal]</text><polygon fill="#181818" points="483.4053,1149.5547,473.4053,1153.5547,483.4053,1157.5547,479.4053,1153.5547" style="stroke:#181818;stroke-width:1.0;"/><line style="stroke:#181818;stroke-width:1.0;stroke-dasharray:2.0,2.0;" x1="477.4053" x2="900.0811" y1="1153.5547" y2="1153.5547"/><text fill="#000000" font-family="sans-serif" font-size="13" lengthAdjust="spacing" textLength="166.0039" x="603.7412" y="1148.6982">showError("Data tidak valid")</text><polygon fill="#181818" points="460.4053,1186.9063,470.4053,1190.9063,460.4053,1194.9063,464.4053,1190.9063" style="stroke:#181818;stroke-width:1.0;"/><line style="stroke:#181818;stroke-width:1.0;" x1="27.8413" x2="466.4053" y1="1190.9063" y2="1190.9063"/><text fill="#000000" font-family="sans-serif" font-size="13" lengthAdjust="spacing" textLength="412.6167" x="43.8149" y="1186.0498">Edit channel pembayaran(id, name, type, account_number, qris_image)</text><polygon fill="#181818" points="889.0811,1217.2578,899.0811,1221.2578,889.0811,1225.2578,893.0811,1221.2578" style="stroke:#181818;stroke-width:1.0;"/><line style="stroke:#181818;stroke-width:1.0;" x1="472.4053" x2="895.0811" y1="1221.2578" y2="1221.2578"/><text fill="#000000" font-family="sans-serif" font-size="13" lengthAdjust="spacing" textLength="404.6758" x="484.4053" y="1216.4014">updatePaymentChannel(id, name, type, account_number, qris_image)</text><polygon fill="#181818" points="1334.604,1247.6094,1344.604,1251.6094,1334.604,1255.6094,1338.604,1251.6094" style="stroke:#181818;stroke-width:1.0;"/><line style="stroke:#181818;stroke-width:1.0;" x1="901.0811" x2="1340.604" y1="1251.6094" y2="1251.6094"/><text fill="#000000" font-family="sans-serif" font-size="13" lengthAdjust="spacing" textLength="39.7363" x="1103.9744" y="1246.7529">find(id)</text><line style="stroke:#181818;stroke-width:1.0;" x1="901.0811" x2="943.0811" y1="1281.9609" y2="1281.9609"/><line style="stroke:#181818;stroke-width:1.0;" x1="943.0811" x2="943.0811" y1="1281.9609" y2="1294.9609"/><line style="stroke:#181818;stroke-width:1.0;" x1="902.0811" x2="943.0811" y1="1294.9609" y2="1294.9609"/><polygon fill="#181818" points="912.0811,1290.9609,902.0811,1294.9609,912.0811,1298.9609,908.0811,1294.9609" style="stroke:#181818;stroke-width:1.0;"/><text fill="#000000" font-family="sans-serif" font-size="13" lengthAdjust="spacing" textLength="292.6523" x="908.0811" y="1277.1045">validate(name, type, account_number, qris_image)</text><path d="M413.7642,1309.9609 L473.9351,1309.9609 L473.9351,1318.3125 L463.9351,1328.3125 L413.7642,1328.3125 L413.7642,1309.9609 " fill="#EEEEEE" style="stroke:#000000;stroke-width:1.5;"/><rect fill="none" height="216.2969" style="stroke:#000000;stroke-width:1.5;" width="1076.5737" x="413.7642" y="1309.9609"/><text fill="#000000" font-family="sans-serif" font-size="13" font-weight="bold" lengthAdjust="spacing" textLength="15.1709" x="428.7642" y="1324.4561">alt</text><text fill="#000000" font-family="sans-serif" font-size="11" font-weight="bold" lengthAdjust="spacing" textLength="116.1069" x="488.9351" y="1323.3799">[QRIS Baru Diunggah]</text><polygon fill="#181818" points="1436.8208,1346.6641,1446.8208,1350.6641,1436.8208,1354.6641,1440.8208,1350.6641" style="stroke:#181818;stroke-width:1.0;"/><line style="stroke:#181818;stroke-width:1.0;" x1="901.0811" x2="1442.8208" y1="1350.6641" y2="1350.6641"/><text fill="#000000" font-family="sans-serif" font-size="13" lengthAdjust="spacing" textLength="122.1353" x="1113.8833" y="1345.8076">delete(old_qris_path)</text><polygon fill="#181818" points="1436.8208,1377.0156,1446.8208,1381.0156,1436.8208,1385.0156,1440.8208,1381.0156" style="stroke:#181818;stroke-width:1.0;"/><line style="stroke:#181818;stroke-width:1.0;" x1="901.0811" x2="1442.8208" y1="1381.0156" y2="1381.0156"/><text fill="#000000" font-family="sans-serif" font-size="13" lengthAdjust="spacing" textLength="134.2783" x="1107.8118" y="1376.1592">store(qris_image, 'qris')</text><polygon fill="#181818" points="1334.604,1407.3672,1344.604,1411.3672,1334.604,1415.3672,1338.604,1411.3672" style="stroke:#181818;stroke-width:1.0;"/><line style="stroke:#181818;stroke-width:1.0;" x1="901.0811" x2="1340.604" y1="1411.3672" y2="1411.3672"/><text fill="#000000" font-family="sans-serif" font-size="13" lengthAdjust="spacing" textLength="277.5005" x="985.0923" y="1406.5107">update(name, type, account_number, qris_path)</text><polygon fill="#181818" points="483.4053,1437.7188,473.4053,1441.7188,483.4053,1445.7188,479.4053,1441.7188" style="stroke:#181818;stroke-width:1.0;"/><line style="stroke:#181818;stroke-width:1.0;stroke-dasharray:2.0,2.0;" x1="477.4053" x2="900.0811" y1="1441.7188" y2="1441.7188"/><text fill="#000000" font-family="sans-serif" font-size="13" lengthAdjust="spacing" textLength="332.2363" x="520.625" y="1436.8623">showSuccess("Channel pembayaran berhasil diperbarui")</text><line style="stroke:#000000;stroke-width:1.0;stroke-dasharray:2.0,2.0;" x1="413.7642" x2="1490.3379" y1="1450.7188" y2="1450.7188"/><text fill="#000000" font-family="sans-serif" font-size="11" font-weight="bold" lengthAdjust="spacing" textLength="106.3369" x="418.7642" y="1462.1377">[QRIS Tidak Diubah]</text><polygon fill="#181818" points="1334.604,1483.9063,1344.604,1487.9063,1334.604,1491.9063,1338.604,1487.9063" style="stroke:#181818;stroke-width:1.0;"/><line style="stroke:#181818;stroke-width:1.0;" x1="901.0811" x2="1340.604" y1="1487.9063" y2="1487.9063"/><text fill="#000000" font-family="sans-serif" font-size="13" lengthAdjust="spacing" textLength="216.7979" x="1015.4436" y="1483.0498">update(name, type, account_number)</text><polygon fill="#181818" points="483.4053,1514.2578,473.4053,1518.2578,483.4053,1522.2578,479.4053,1518.2578" style="stroke:#181818;stroke-width:1.0;"/><line style="stroke:#181818;stroke-width:1.0;stroke-dasharray:2.0,2.0;" x1="477.4053" x2="900.0811" y1="1518.2578" y2="1518.2578"/><text fill="#000000" font-family="sans-serif" font-size="13" lengthAdjust="spacing" textLength="332.2363" x="520.625" y="1513.4014">showSuccess("Channel pembayaran berhasil diperbarui")</text><polygon fill="#181818" points="460.4053,1551.6094,470.4053,1555.6094,460.4053,1559.6094,464.4053,1555.6094" style="stroke:#181818;stroke-width:1.0;"/><line style="stroke:#181818;stroke-width:1.0;" x1="27.8413" x2="466.4053" y1="1555.6094" y2="1555.6094"/><text fill="#000000" font-family="sans-serif" font-size="13" lengthAdjust="spacing" textLength="145.9707" x="177.1379" y="1550.7529">Toggle status channel(id)</text><polygon fill="#181818" points="889.0811,1581.9609,899.0811,1585.9609,889.0811,1589.9609,893.0811,1585.9609" style="stroke:#181818;stroke-width:1.0;"/><line style="stroke:#181818;stroke-width:1.0;" x1="472.4053" x2="895.0811" y1="1585.9609" y2="1585.9609"/><text fill="#000000" font-family="sans-serif" font-size="13" lengthAdjust="spacing" textLength="139.4771" x="617.0046" y="1581.1045">toggleChannelStatus(id)</text><polygon fill="#181818" points="1334.604,1612.3125,1344.604,1616.3125,1334.604,1620.3125,1338.604,1616.3125" style="stroke:#181818;stroke-width:1.0;"/><line style="stroke:#181818;stroke-width:1.0;" x1="901.0811" x2="1340.604" y1="1616.3125" y2="1616.3125"/><text fill="#000000" font-family="sans-serif" font-size="13" lengthAdjust="spacing" textLength="39.7363" x="1103.9744" y="1611.4561">find(id)</text><polygon fill="#181818" points="1334.604,1642.6641,1344.604,1646.6641,1334.604,1650.6641,1338.604,1646.6641" style="stroke:#181818;stroke-width:1.0;"/><line style="stroke:#181818;stroke-width:1.0;" x1="901.0811" x2="1340.604" y1="1646.6641" y2="1646.6641"/><text fill="#000000" font-family="sans-serif" font-size="13" lengthAdjust="spacing" textLength="160.7798" x="1043.4526" y="1641.8076">update(is_active=!is_active)</text><polygon fill="#181818" points="483.4053,1673.0156,473.4053,1677.0156,483.4053,1681.0156,479.4053,1677.0156" style="stroke:#181818;stroke-width:1.0;"/><line style="stroke:#181818;stroke-width:1.0;stroke-dasharray:2.0,2.0;" x1="477.4053" x2="900.0811" y1="1677.0156" y2="1677.0156"/><text fill="#000000" font-family="sans-serif" font-size="13" lengthAdjust="spacing" textLength="275.1582" x="549.1641" y="1672.1592">showSuccess("Status channel berhasil diubah")</text><polygon fill="#181818" points="460.4053,1703.3672,470.4053,1707.3672,460.4053,1711.3672,464.4053,1707.3672" style="stroke:#181818;stroke-width:1.0;"/><line style="stroke:#181818;stroke-width:1.0;" x1="27.8413" x2="466.4053" y1="1707.3672" y2="1707.3672"/><text fill="#000000" font-family="sans-serif" font-size="13" lengthAdjust="spacing" textLength="181.3843" x="159.4312" y="1702.5107">Hapus channel pembayaran(id)</text><polygon fill="#181818" points="889.0811,1733.7188,899.0811,1737.7188,889.0811,1741.7188,893.0811,1737.7188" style="stroke:#181818;stroke-width:1.0;"/><line style="stroke:#181818;stroke-width:1.0;" x1="472.4053" x2="895.0811" y1="1737.7188" y2="1737.7188"/><text fill="#000000" font-family="sans-serif" font-size="13" lengthAdjust="spacing" textLength="161.1353" x="606.1755" y="1732.8623">destroyPaymentChannel(id)</text><polygon fill="#181818" points="1334.604,1764.0703,1344.604,1768.0703,1334.604,1772.0703,1338.604,1768.0703" style="stroke:#181818;stroke-width:1.0;"/><line style="stroke:#181818;stroke-width:1.0;" x1="901.0811" x2="1340.604" y1="1768.0703" y2="1768.0703"/><text fill="#000000" font-family="sans-serif" font-size="13" lengthAdjust="spacing" textLength="39.7363" x="1103.9744" y="1763.2139">find(id)</text><path d="M413.7642,1783.0703 L473.9351,1783.0703 L473.9351,1791.4219 L463.9351,1801.4219 L413.7642,1801.4219 L413.7642,1783.0703 " fill="#EEEEEE" style="stroke:#000000;stroke-width:1.5;"/><rect fill="none" height="155.5938" style="stroke:#000000;stroke-width:1.5;" width="1076.5737" x="413.7642" y="1783.0703"/><text fill="#000000" font-family="sans-serif" font-size="13" font-weight="bold" lengthAdjust="spacing" textLength="15.1709" x="428.7642" y="1797.5654">alt</text><text fill="#000000" font-family="sans-serif" font-size="11" font-weight="bold" lengthAdjust="spacing" textLength="220.043" x="488.9351" y="1796.4893">[Channel Sedang Digunakan di Transaksi]</text><polygon fill="#181818" points="483.4053,1819.7734,473.4053,1823.7734,483.4053,1827.7734,479.4053,1823.7734" style="stroke:#181818;stroke-width:1.0;"/><line style="stroke:#181818;stroke-width:1.0;stroke-dasharray:2.0,2.0;" x1="477.4053" x2="900.0811" y1="1823.7734" y2="1823.7734"/><text fill="#000000" font-family="sans-serif" font-size="13" lengthAdjust="spacing" textLength="323.5845" x="524.9509" y="1818.917">showError("Channel sedang digunakan pada transaksi")</text><line style="stroke:#000000;stroke-width:1.0;stroke-dasharray:2.0,2.0;" x1="413.7642" x2="1490.3379" y1="1832.7734" y2="1832.7734"/><text fill="#000000" font-family="sans-serif" font-size="11" font-weight="bold" lengthAdjust="spacing" textLength="141.7915" x="418.7642" y="1844.1924">[Channel Tidak Digunakan]</text><polygon fill="#181818" points="1436.8208,1865.9609,1446.8208,1869.9609,1436.8208,1873.9609,1440.8208,1869.9609" style="stroke:#181818;stroke-width:1.0;"/><line style="stroke:#181818;stroke-width:1.0;" x1="901.0811" x2="1442.8208" y1="1869.9609" y2="1869.9609"/><text fill="#000000" font-family="sans-serif" font-size="13" lengthAdjust="spacing" textLength="97.5571" x="1126.1724" y="1865.1045">delete(qris_path)</text><polygon fill="#181818" points="1334.604,1896.3125,1344.604,1900.3125,1334.604,1904.3125,1338.604,1900.3125" style="stroke:#181818;stroke-width:1.0;"/><line style="stroke:#181818;stroke-width:1.0;" x1="901.0811" x2="1340.604" y1="1900.3125" y2="1900.3125"/><text fill="#000000" font-family="sans-serif" font-size="13" lengthAdjust="spacing" textLength="44.0781" x="1101.8035" y="1895.4561">delete()</text><polygon fill="#181818" points="483.4053,1926.6641,473.4053,1930.6641,483.4053,1934.6641,479.4053,1930.6641" style="stroke:#181818;stroke-width:1.0;"/><line style="stroke:#181818;stroke-width:1.0;stroke-dasharray:2.0,2.0;" x1="477.4053" x2="900.0811" y1="1930.6641" y2="1930.6641"/><text fill="#000000" font-family="sans-serif" font-size="13" lengthAdjust="spacing" textLength="319.96" x="526.7632" y="1925.8076">showSuccess("Channel pembayaran berhasil dihapus")</text><!--SRC=[jLPTRvim57tdLzpcOKsax6MFapgfIRkjKgknaUvfKdI3NUF566gRJldtkpQGG4BJhkto466u7-SUdsEmQwbBD9Y3vVSLroc_uTQYuETA2WqfruwRA7BIAGv94m8N4WNb_DAnAUwaWdSGyto56ogaemXJLnWOdRDSwX6WXN0LKHidKrcYTZ1Ak7DI2njJgn2JnCC1yq8xKoZ5JHqsxuVDAYir8Qw1rALcUwLYtEGqnpn3hRaA8V5UcOGGRv4ieYWWXlUV21PyX1kk1Qujjv2XmXmrbFwEg_ou5E7ZvXIN5vLsuqb42xerywbtqjZThTX7eLBDZRO-axPKk6b7fgTx06vBXev3MRDTMSnmh37dKq3638q_XJ8hDArL8Of95rCLKXjwZYVDjqaFgAHFQ-9xOH4g1zTq2JCq5KcXqa9WHXhuwRCYe5zJQa6bB37Bnpvr2gUhPhTE9vsmm5CDyvkP6xxhEuHpMQBBTkajGpOh_YHLcbBuU1HtU88LDnbQMZ9PShCYp78qYRYo73uN9iTcc0KDlAPfMBMcWGRhNnfJcF6eoV9WI0-cil2x55Fwu_IF3YiejMXRtAwzIEeMDrpnbSma4UVG7clHP8KMEIbFvgZWmysihTf3NAqmUm6TRy2XPlj2lPOPKSFmpg61j3OScMLxDdI4ARZh6zC-qoQ7MNiW5aZzie7s3GzkKtesqjJRTQchdCQRmhsHTab42zxpJz1ll-NpoppggATpWyqM50PdyFt7LKB-kl9FZhbibqzUyukUpmAhQLSGHr1ubqs1BkWmbm_yp9dgASNC3_ZkwiQ5JLcZRZKSPZkfXti1oly9BL1C3-4B2bJ7Z7f1JWONZ1XsUDWLbzHZI8wIJU45acoEzBuc_wdMZkaxgHdble5MWqXxhuHzaJ8w_wXgeTXogx79YvLSi_0y9RzA7ljlZJ3e8uVlyv2z6Pn3gIqA8UXBpJhwEh6jvkeDtWd8XQ2cJH92EneOqaLthftpJhQN_OEwDqtIWzATn7CtEZYzlsBP2U-vfJS4uvO-33S7DXWU8qYq9JRX3BMWtHELHl8zOO45jR3-LNlCxcq1MnTWsm8bCZe7sXAjKjhmLYnDz2E-6FH4FDy5l4escQUrqSnV]--></g></svg>