<svg xmlns="http://www.w3.org/2000/svg" xmlns:xlink="http://www.w3.org/1999/xlink" contentStyleType="text/css" height="1840px" preserveAspectRatio="none" style="width:952px;height:1840px;background:#FFFFFF;" version="1.1" viewBox="0 0 952 1840" width="952px" zoomAndPan="magnify"><title>Sequence Diagram: Mengelola Kategori Produk</title><defs/><g><text fill="#000000" font-family="sans-serif" font-size="14" font-weight="bold" lengthAdjust="spacing" textLength="315.8477" x="314.3235" y="29.5332">Sequence Diagram: Mengelola Kategori Produk</text><rect fill="#FFFFFF" height="242.8125" style="stroke:#181818;stroke-width:1.0;" width="10" x="192.5889" y="197.9219"/><rect fill="#FFFFFF" height="182.1094" style="stroke:#181818;stroke-width:1.0;" width="10" x="400.0342" y="228.2734"/><rect fill="#FFFFFF" height="225.4609" style="stroke:#181818;stroke-width:1.0;" width="10" x="400.0342" y="636.8438"/><rect fill="#FFFFFF" height="30.3516" style="stroke:#181818;stroke-width:1.0;" width="10" x="400.0342" y="967.3594"/><rect fill="#FFFFFF" height="195.1094" style="stroke:#181818;stroke-width:1.0;" width="10" x="400.0342" y="1058.4141"/><rect fill="#FFFFFF" height="359.7031" style="stroke:#181818;stroke-width:1.0;" width="10" x="400.0342" y="1388.9297"/><rect fill="#FFFFFF" height="121.4063" style="stroke:#181818;stroke-width:1.0;" width="10" x="648.9487" y="258.625"/><rect fill="#FFFFFF" height="91.0547" style="stroke:#181818;stroke-width:1.0;" width="10" x="648.9487" y="710.5469"/><rect fill="#FFFFFF" height="91.0547" style="stroke:#181818;stroke-width:1.0;" width="10" x="648.9487" y="1132.1172"/><rect fill="#FFFFFF" height="91.0547" style="stroke:#181818;stroke-width:1.0;" width="10" x="648.9487" y="1419.2813"/><rect fill="#FFFFFF" height="91.0547" style="stroke:#181818;stroke-width:1.0;" width="10" x="648.9487" y="1566.0391"/><rect fill="none" height="216.2969" style="stroke:#000000;stroke-width:1.5;" width="810.9365" x="124.5581" y="1525.3359"/><line style="stroke:#181818;stroke-width:0.5;stroke-dasharray:5.0,5.0;" x1="34" x2="34" y1="121.2188" y2="1758.6328"/><line style="stroke:#181818;stroke-width:0.5;stroke-dasharray:5.0,5.0;" x1="197.5581" x2="197.5581" y1="121.2188" y2="1758.6328"/><line style="stroke:#181818;stroke-width:0.5;stroke-dasharray:5.0,5.0;" x1="404.5068" x2="404.5068" y1="121.2188" y2="1758.6328"/><line style="stroke:#181818;stroke-width:0.5;stroke-dasharray:5.0,5.0;" x1="653.5454" x2="653.5454" y1="121.2188" y2="1758.6328"/><line style="stroke:#181818;stroke-width:0.5;stroke-dasharray:5.0,5.0;" x1="891.564" x2="891.564" y1="121.2188" y2="1758.6328"/><text fill="#000000" font-family="sans-serif" font-size="14" lengthAdjust="spacing" textLength="53.6963" x="5" y="118.1426">Inventori</text><ellipse cx="34.8481" cy="52.1094" fill="#E2E2F0" rx="8" ry="8" style="stroke:#181818;stroke-width:0.5;"/><path d="M34.8481,60.1094 L34.8481,87.1094 M21.8481,68.1094 L47.8481,68.1094 M34.8481,87.1094 L21.8481,102.1094 M34.8481,87.1094 L47.8481,102.1094 " fill="none" style="stroke:#181818;stroke-width:0.5;"/><text fill="#000000" font-family="sans-serif" font-size="14" lengthAdjust="spacing" textLength="53.6963" x="5" y="1772.166">Inventori</text><ellipse cx="34.8481" cy="1783.7422" fill="#E2E2F0" rx="8" ry="8" style="stroke:#181818;stroke-width:0.5;"/><path d="M34.8481,1791.7422 L34.8481,1818.7422 M21.8481,1799.7422 L47.8481,1799.7422 M34.8481,1818.7422 L21.8481,1833.7422 M34.8481,1818.7422 L47.8481,1833.7422 " fill="none" style="stroke:#181818;stroke-width:0.5;"/><rect fill="#E2E2F0" height="31.6094" rx="2.5" ry="2.5" style="stroke:#181818;stroke-width:0.5;" width="126.0615" x="134.5581" y="88.6094"/><text fill="#000000" font-family="sans-serif" font-size="14" lengthAdjust="spacing" textLength="112.0615" x="141.5581" y="110.1426">Halaman Kategori</text><rect fill="#E2E2F0" height="31.6094" rx="2.5" ry="2.5" style="stroke:#181818;stroke-width:0.5;" width="126.0615" x="134.5581" y="1757.6328"/><text fill="#000000" font-family="sans-serif" font-size="14" lengthAdjust="spacing" textLength="112.0615" x="141.5581" y="1779.166">Halaman Kategori</text><rect fill="#E2E2F0" height="49.2188" rx="2.5" ry="2.5" style="stroke:#181818;stroke-width:0.5;" width="105.0547" x="352.5068" y="71"/><text fill="#000000" font-family="sans-serif" font-size="14" lengthAdjust="spacing" textLength="91.0547" x="359.5068" y="92.5332">CategoryIndex</text><text fill="#000000" font-family="sans-serif" font-size="14" lengthAdjust="spacing" textLength="72.3789" x="368.8447" y="110.1426">Component</text><rect fill="#E2E2F0" height="49.2188" rx="2.5" ry="2.5" style="stroke:#181818;stroke-width:0.5;" width="105.0547" x="352.5068" y="1757.6328"/><text fill="#000000" font-family="sans-serif" font-size="14" lengthAdjust="spacing" textLength="91.0547" x="359.5068" y="1779.166">CategoryIndex</text><text fill="#000000" font-family="sans-serif" font-size="14" lengthAdjust="spacing" textLength="72.3789" x="368.8447" y="1796.7754">Component</text><rect fill="#E2E2F0" height="49.2188" rx="2.5" ry="2.5" style="stroke:#181818;stroke-width:0.5;" width="70.8066" x="618.5454" y="71"/><text fill="#000000" font-family="sans-serif" font-size="14" lengthAdjust="spacing" textLength="56.8066" x="625.5454" y="92.5332">Category</text><text fill="#000000" font-family="sans-serif" font-size="14" lengthAdjust="spacing" textLength="38.1309" x="634.8833" y="110.1426">Model</text><rect fill="#E2E2F0" height="49.2188" rx="2.5" ry="2.5" style="stroke:#181818;stroke-width:0.5;" width="70.8066" x="618.5454" y="1757.6328"/><text fill="#000000" font-family="sans-serif" font-size="14" lengthAdjust="spacing" textLength="56.8066" x="625.5454" y="1779.166">Category</text><text fill="#000000" font-family="sans-serif" font-size="14" lengthAdjust="spacing" textLength="38.1309" x="634.8833" y="1796.7754">Model</text><text fill="#000000" font-family="sans-serif" font-size="14" lengthAdjust="spacing" textLength="59.9307" x="859.564" y="118.1426">Database</text><path d="M874.5293,67.6094 C874.5293,57.6094 892.5293,57.6094 892.5293,57.6094 C892.5293,57.6094 910.5293,57.6094 910.5293,67.6094 L910.5293,93.6094 C910.5293,103.6094 892.5293,103.6094 892.5293,103.6094 C892.5293,103.6094 874.5293,103.6094 874.5293,93.6094 L874.5293,67.6094 " fill="#E2E2F0" style="stroke:#181818;stroke-width:1.5;"/><path d="M874.5293,67.6094 C874.5293,77.6094 892.5293,77.6094 892.5293,77.6094 C892.5293,77.6094 910.5293,77.6094 910.5293,67.6094 " fill="none" style="stroke:#181818;stroke-width:1.5;"/><text fill="#000000" font-family="sans-serif" font-size="14" lengthAdjust="spacing" textLength="59.9307" x="859.564" y="1772.166">Database</text><path d="M874.5293,1785.2422 C874.5293,1775.2422 892.5293,1775.2422 892.5293,1775.2422 C892.5293,1775.2422 910.5293,1775.2422 910.5293,1785.2422 L910.5293,1811.2422 C910.5293,1821.2422 892.5293,1821.2422 892.5293,1821.2422 C892.5293,1821.2422 874.5293,1821.2422 874.5293,1811.2422 L874.5293,1785.2422 " fill="#E2E2F0" style="stroke:#181818;stroke-width:1.5;"/><path d="M874.5293,1785.2422 C874.5293,1795.2422 892.5293,1795.2422 892.5293,1795.2422 C892.5293,1795.2422 910.5293,1795.2422 910.5293,1785.2422 " fill="none" style="stroke:#181818;stroke-width:1.5;"/><rect fill="#FFFFFF" height="242.8125" style="stroke:#181818;stroke-width:1.0;" width="10" x="192.5889" y="197.9219"/><rect fill="#FFFFFF" height="182.1094" style="stroke:#181818;stroke-width:1.0;" width="10" x="400.0342" y="228.2734"/><rect fill="#FFFFFF" height="225.4609" style="stroke:#181818;stroke-width:1.0;" width="10" x="400.0342" y="636.8438"/><rect fill="#FFFFFF" height="30.3516" style="stroke:#181818;stroke-width:1.0;" width="10" x="400.0342" y="967.3594"/><rect fill="#FFFFFF" height="195.1094" style="stroke:#181818;stroke-width:1.0;" width="10" x="400.0342" y="1058.4141"/><rect fill="#FFFFFF" height="359.7031" style="stroke:#181818;stroke-width:1.0;" width="10" x="400.0342" y="1388.9297"/><rect fill="#FFFFFF" height="121.4063" style="stroke:#181818;stroke-width:1.0;" width="10" x="648.9487" y="258.625"/><rect fill="#FFFFFF" height="91.0547" style="stroke:#181818;stroke-width:1.0;" width="10" x="648.9487" y="710.5469"/><rect fill="#FFFFFF" height="91.0547" style="stroke:#181818;stroke-width:1.0;" width="10" x="648.9487" y="1132.1172"/><rect fill="#FFFFFF" height="91.0547" style="stroke:#181818;stroke-width:1.0;" width="10" x="648.9487" y="1419.2813"/><rect fill="#FFFFFF" height="91.0547" style="stroke:#181818;stroke-width:1.0;" width="10" x="648.9487" y="1566.0391"/><rect fill="#EEEEEE" height="3" style="stroke:#EEEEEE;stroke-width:1.0;" width="945.4946" x="0" y="152.3945"/><line style="stroke:#000000;stroke-width:1.0;" x1="0" x2="945.4946" y1="152.3945" y2="152.3945"/><line style="stroke:#000000;stroke-width:1.0;" x1="0" x2="945.4946" y1="155.3945" y2="155.3945"/><rect fill="#EEEEEE" height="24.3516" style="stroke:#000000;stroke-width:2.0;" width="159.9136" x="392.7905" y="141.2188"/><text fill="#000000" font-family="sans-serif" font-size="13" font-weight="bold" lengthAdjust="spacing" textLength="142.3018" x="398.7905" y="158.7139">Melihat Daftar Kategori</text><polygon fill="#181818" points="180.5889,193.9219,190.5889,197.9219,180.5889,201.9219,184.5889,197.9219" style="stroke:#181818;stroke-width:1.0;"/><line style="stroke:#181818;stroke-width:1.0;" x1="34.8481" x2="186.5889" y1="197.9219" y2="197.9219"/><text fill="#000000" font-family="sans-serif" font-size="13" lengthAdjust="spacing" textLength="138.7407" x="41.8481" y="193.0654">Akses halaman kategori</text><polygon fill="#181818" points="388.0342,224.2734,398.0342,228.2734,388.0342,232.2734,392.0342,228.2734" style="stroke:#181818;stroke-width:1.0;"/><line style="stroke:#181818;stroke-width:1.0;" x1="202.5889" x2="394.0342" y1="228.2734" y2="228.2734"/><text fill="#000000" font-family="sans-serif" font-size="13" lengthAdjust="spacing" textLength="44.7891" x="209.5889" y="223.417">mount()</text><polygon fill="#181818" points="636.9487,254.625,646.9487,258.625,636.9487,262.625,640.9487,258.625" style="stroke:#181818;stroke-width:1.0;"/><line style="stroke:#181818;stroke-width:1.0;" x1="410.0342" x2="642.9487" y1="258.625" y2="258.625"/><text fill="#000000" font-family="sans-serif" font-size="13" lengthAdjust="spacing" textLength="219.9146" x="417.0342" y="253.7686">Category::withCount('products')-&gt;get()</text><polygon fill="#181818" points="880.5293,284.9766,890.5293,288.9766,880.5293,292.9766,884.5293,288.9766" style="stroke:#181818;stroke-width:1.0;"/><line style="stroke:#181818;stroke-width:1.0;" x1="658.9487" x2="886.5293" y1="288.9766" y2="288.9766"/><text fill="#000000" font-family="sans-serif" font-size="13" lengthAdjust="spacing" textLength="164.7153" x="665.9487" y="284.1201">SELECT * FROM categories</text><polygon fill="#181818" points="880.5293,315.3281,890.5293,319.3281,880.5293,323.3281,884.5293,319.3281" style="stroke:#181818;stroke-width:1.0;"/><line style="stroke:#181818;stroke-width:1.0;" x1="658.9487" x2="886.5293" y1="319.3281" y2="319.3281"/><text fill="#000000" font-family="sans-serif" font-size="13" lengthAdjust="spacing" textLength="153.8735" x="665.9487" y="314.4717">SELECT COUNT products</text><polygon fill="#181818" points="669.9487,345.6797,659.9487,349.6797,669.9487,353.6797,665.9487,349.6797" style="stroke:#181818;stroke-width:1.0;"/><line style="stroke:#181818;stroke-width:1.0;stroke-dasharray:2.0,2.0;" x1="663.9487" x2="891.5293" y1="349.6797" y2="349.6797"/><text fill="#000000" font-family="sans-serif" font-size="13" lengthAdjust="spacing" textLength="209.5806" x="675.9487" y="344.8232">Data kategori dengan jumlah produk</text><polygon fill="#181818" points="421.0342,376.0313,411.0342,380.0313,421.0342,384.0313,417.0342,380.0313" style="stroke:#181818;stroke-width:1.0;"/><line style="stroke:#181818;stroke-width:1.0;stroke-dasharray:2.0,2.0;" x1="415.0342" x2="652.9487" y1="380.0313" y2="380.0313"/><text fill="#000000" font-family="sans-serif" font-size="13" lengthAdjust="spacing" textLength="106.9453" x="427.0342" y="375.1748">Collection kategori</text><polygon fill="#181818" points="213.5889,406.3828,203.5889,410.3828,213.5889,414.3828,209.5889,410.3828" style="stroke:#181818;stroke-width:1.0;"/><line style="stroke:#181818;stroke-width:1.0;stroke-dasharray:2.0,2.0;" x1="207.5889" x2="404.0342" y1="410.3828" y2="410.3828"/><text fill="#000000" font-family="sans-serif" font-size="13" lengthAdjust="spacing" textLength="129.3525" x="219.5889" y="405.5264">Render daftar kategori</text><polygon fill="#181818" points="45.8481,436.7344,35.8481,440.7344,45.8481,444.7344,41.8481,440.7344" style="stroke:#181818;stroke-width:1.0;"/><line style="stroke:#181818;stroke-width:1.0;stroke-dasharray:2.0,2.0;" x1="39.8481" x2="196.5889" y1="440.7344" y2="440.7344"/><text fill="#000000" font-family="sans-serif" font-size="13" lengthAdjust="spacing" textLength="113.4453" x="51.8481" y="435.8779">Tampilkan halaman</text><rect fill="#EEEEEE" height="3" style="stroke:#EEEEEE;stroke-width:1.0;" width="945.4946" x="0" y="469.9102"/><line style="stroke:#000000;stroke-width:1.0;" x1="0" x2="945.4946" y1="469.9102" y2="469.9102"/><line style="stroke:#000000;stroke-width:1.0;" x1="0" x2="945.4946" y1="472.9102" y2="472.9102"/><rect fill="#EEEEEE" height="24.3516" style="stroke:#000000;stroke-width:2.0;" width="141.8545" x="401.8201" y="458.7344"/><text fill="#000000" font-family="sans-serif" font-size="13" font-weight="bold" lengthAdjust="spacing" textLength="124.2427" x="407.8201" y="476.2295">Menambah Kategori</text><polygon fill="#181818" points="185.5889,511.4375,195.5889,515.4375,185.5889,519.4375,189.5889,515.4375" style="stroke:#181818;stroke-width:1.0;"/><line style="stroke:#181818;stroke-width:1.0;" x1="34.8481" x2="191.5889" y1="515.4375" y2="515.4375"/><text fill="#000000" font-family="sans-serif" font-size="13" lengthAdjust="spacing" textLength="114.8799" x="41.8481" y="510.5811">Klik tombol Tambah</text><polygon fill="#181818" points="45.8481,541.7891,35.8481,545.7891,45.8481,549.7891,41.8481,545.7891" style="stroke:#181818;stroke-width:1.0;"/><line style="stroke:#181818;stroke-width:1.0;stroke-dasharray:2.0,2.0;" x1="39.8481" x2="196.5889" y1="545.7891" y2="545.7891"/><text fill="#000000" font-family="sans-serif" font-size="13" lengthAdjust="spacing" textLength="136.5508" x="51.8481" y="540.9326">Tampilkan form tambah</text><polygon fill="#181818" points="393.0342,572.1406,403.0342,576.1406,393.0342,580.1406,397.0342,576.1406" style="stroke:#181818;stroke-width:1.0;"/><line style="stroke:#181818;stroke-width:1.0;" x1="34.8481" x2="399.0342" y1="576.1406" y2="576.1406"/><text fill="#000000" font-family="sans-serif" font-size="13" lengthAdjust="spacing" textLength="139.2739" x="41.8481" y="571.2842">set('name', 'Kue Basah')</text><polygon fill="#181818" points="393.0342,602.4922,403.0342,606.4922,393.0342,610.4922,397.0342,606.4922" style="stroke:#181818;stroke-width:1.0;"/><line style="stroke:#181818;stroke-width:1.0;" x1="34.8481" x2="399.0342" y1="606.4922" y2="606.4922"/><text fill="#000000" font-family="sans-serif" font-size="13" lengthAdjust="spacing" textLength="186.9766" x="41.8481" y="601.6357">set('description', 'Kue dengan...')</text><polygon fill="#181818" points="388.0342,632.8438,398.0342,636.8438,388.0342,640.8438,392.0342,636.8438" style="stroke:#181818;stroke-width:1.0;"/><line style="stroke:#181818;stroke-width:1.0;" x1="34.8481" x2="394.0342" y1="636.8438" y2="636.8438"/><text fill="#000000" font-family="sans-serif" font-size="13" lengthAdjust="spacing" textLength="36.1182" x="41.8481" y="631.9873">save()</text><line style="stroke:#181818;stroke-width:1.0;" x1="410.0342" x2="452.0342" y1="667.1953" y2="667.1953"/><line style="stroke:#181818;stroke-width:1.0;" x1="452.0342" x2="452.0342" y1="667.1953" y2="680.1953"/><line style="stroke:#181818;stroke-width:1.0;" x1="411.0342" x2="452.0342" y1="680.1953" y2="680.1953"/><polygon fill="#181818" points="421.0342,676.1953,411.0342,680.1953,421.0342,684.1953,417.0342,680.1953" style="stroke:#181818;stroke-width:1.0;"/><text fill="#000000" font-family="sans-serif" font-size="13" lengthAdjust="spacing" textLength="53.4663" x="417.0342" y="662.3389">validate()</text><polygon fill="#181818" points="636.9487,706.5469,646.9487,710.5469,636.9487,714.5469,640.9487,710.5469" style="stroke:#181818;stroke-width:1.0;"/><line style="stroke:#181818;stroke-width:1.0;" x1="410.0342" x2="642.9487" y1="710.5469" y2="710.5469"/><text fill="#000000" font-family="sans-serif" font-size="13" lengthAdjust="spacing" textLength="122.8208" x="417.0342" y="705.6904">Category::create([...])</text><polygon fill="#181818" points="880.5293,736.8984,890.5293,740.8984,880.5293,744.8984,884.5293,740.8984" style="stroke:#181818;stroke-width:1.0;"/><line style="stroke:#181818;stroke-width:1.0;" x1="658.9487" x2="886.5293" y1="740.8984" y2="740.8984"/><text fill="#000000" font-family="sans-serif" font-size="13" lengthAdjust="spacing" textLength="145.9263" x="665.9487" y="736.042">INSERT INTO categories</text><polygon fill="#181818" points="669.9487,767.25,659.9487,771.25,669.9487,775.25,665.9487,771.25" style="stroke:#181818;stroke-width:1.0;"/><line style="stroke:#181818;stroke-width:1.0;stroke-dasharray:2.0,2.0;" x1="663.9487" x2="891.5293" y1="771.25" y2="771.25"/><text fill="#000000" font-family="sans-serif" font-size="13" lengthAdjust="spacing" textLength="49.1309" x="675.9487" y="766.3936">Success</text><polygon fill="#181818" points="421.0342,797.6016,411.0342,801.6016,421.0342,805.6016,417.0342,801.6016" style="stroke:#181818;stroke-width:1.0;"/><line style="stroke:#181818;stroke-width:1.0;stroke-dasharray:2.0,2.0;" x1="415.0342" x2="652.9487" y1="801.6016" y2="801.6016"/><text fill="#000000" font-family="sans-serif" font-size="13" lengthAdjust="spacing" textLength="78.0508" x="427.0342" y="796.7451">Kategori baru</text><polygon fill="#181818" points="208.5889,827.9531,198.5889,831.9531,208.5889,835.9531,204.5889,831.9531" style="stroke:#181818;stroke-width:1.0;"/><line style="stroke:#181818;stroke-width:1.0;stroke-dasharray:2.0,2.0;" x1="202.5889" x2="399.0342" y1="831.9531" y2="831.9531"/><text fill="#000000" font-family="sans-serif" font-size="13" lengthAdjust="spacing" textLength="132.2217" x="214.5889" y="827.0967">Flash message sukses</text><polygon fill="#181818" points="208.5889,858.3047,198.5889,862.3047,208.5889,866.3047,204.5889,862.3047" style="stroke:#181818;stroke-width:1.0;"/><line style="stroke:#181818;stroke-width:1.0;stroke-dasharray:2.0,2.0;" x1="202.5889" x2="404.0342" y1="862.3047" y2="862.3047"/><text fill="#000000" font-family="sans-serif" font-size="13" lengthAdjust="spacing" textLength="82.3735" x="214.5889" y="857.4482">Refresh daftar</text><rect fill="#EEEEEE" height="3" style="stroke:#EEEEEE;stroke-width:1.0;" width="945.4946" x="0" y="891.4805"/><line style="stroke:#000000;stroke-width:1.0;" x1="0" x2="945.4946" y1="891.4805" y2="891.4805"/><line style="stroke:#000000;stroke-width:1.0;" x1="0" x2="945.4946" y1="894.4805" y2="894.4805"/><rect fill="#EEEEEE" height="24.3516" style="stroke:#000000;stroke-width:2.0;" width="131.0063" x="407.2441" y="880.3047"/><text fill="#000000" font-family="sans-serif" font-size="13" font-weight="bold" lengthAdjust="spacing" textLength="113.3945" x="413.2441" y="897.7998">Mengedit Kategori</text><polygon fill="#181818" points="185.5889,933.0078,195.5889,937.0078,185.5889,941.0078,189.5889,937.0078" style="stroke:#181818;stroke-width:1.0;"/><line style="stroke:#181818;stroke-width:1.0;" x1="34.8481" x2="191.5889" y1="937.0078" y2="937.0078"/><text fill="#000000" font-family="sans-serif" font-size="13" lengthAdjust="spacing" textLength="89.5908" x="41.8481" y="932.1514">Klik tombol Edit</text><polygon fill="#181818" points="388.0342,963.3594,398.0342,967.3594,388.0342,971.3594,392.0342,967.3594" style="stroke:#181818;stroke-width:1.0;"/><line style="stroke:#181818;stroke-width:1.0;" x1="197.5889" x2="394.0342" y1="967.3594" y2="967.3594"/><text fill="#000000" font-family="sans-serif" font-size="13" lengthAdjust="spacing" textLength="79.479" x="204.5889" y="962.5029">edit(category)</text><polygon fill="#181818" points="208.5889,993.7109,198.5889,997.7109,208.5889,1001.7109,204.5889,997.7109" style="stroke:#181818;stroke-width:1.0;"/><line style="stroke:#181818;stroke-width:1.0;stroke-dasharray:2.0,2.0;" x1="202.5889" x2="404.0342" y1="997.7109" y2="997.7109"/><text fill="#000000" font-family="sans-serif" font-size="13" lengthAdjust="spacing" textLength="114.1499" x="214.5889" y="992.8545">Tampilkan form edit</text><polygon fill="#181818" points="393.0342,1024.0625,403.0342,1028.0625,393.0342,1032.0625,397.0342,1028.0625" style="stroke:#181818;stroke-width:1.0;"/><line style="stroke:#181818;stroke-width:1.0;" x1="34.8481" x2="399.0342" y1="1028.0625" y2="1028.0625"/><text fill="#000000" font-family="sans-serif" font-size="13" lengthAdjust="spacing" textLength="59.9917" x="41.8481" y="1023.2061">Ubah data</text><polygon fill="#181818" points="388.0342,1054.4141,398.0342,1058.4141,388.0342,1062.4141,392.0342,1058.4141" style="stroke:#181818;stroke-width:1.0;"/><line style="stroke:#181818;stroke-width:1.0;" x1="34.8481" x2="394.0342" y1="1058.4141" y2="1058.4141"/><text fill="#000000" font-family="sans-serif" font-size="13" lengthAdjust="spacing" textLength="48.4199" x="41.8481" y="1053.5576">update()</text><line style="stroke:#181818;stroke-width:1.0;" x1="410.0342" x2="452.0342" y1="1088.7656" y2="1088.7656"/><line style="stroke:#181818;stroke-width:1.0;" x1="452.0342" x2="452.0342" y1="1088.7656" y2="1101.7656"/><line style="stroke:#181818;stroke-width:1.0;" x1="411.0342" x2="452.0342" y1="1101.7656" y2="1101.7656"/><polygon fill="#181818" points="421.0342,1097.7656,411.0342,1101.7656,421.0342,1105.7656,417.0342,1101.7656" style="stroke:#181818;stroke-width:1.0;"/><text fill="#000000" font-family="sans-serif" font-size="13" lengthAdjust="spacing" textLength="53.4663" x="417.0342" y="1083.9092">validate()</text><polygon fill="#181818" points="636.9487,1128.1172,646.9487,1132.1172,636.9487,1136.1172,640.9487,1132.1172" style="stroke:#181818;stroke-width:1.0;"/><line style="stroke:#181818;stroke-width:1.0;" x1="410.0342" x2="642.9487" y1="1132.1172" y2="1132.1172"/><text fill="#000000" font-family="sans-serif" font-size="13" lengthAdjust="spacing" textLength="128.2607" x="417.0342" y="1127.2607">category-&gt;update([...])</text><polygon fill="#181818" points="880.5293,1158.4688,890.5293,1162.4688,880.5293,1166.4688,884.5293,1162.4688" style="stroke:#181818;stroke-width:1.0;"/><line style="stroke:#181818;stroke-width:1.0;" x1="658.9487" x2="886.5293" y1="1162.4688" y2="1162.4688"/><text fill="#000000" font-family="sans-serif" font-size="13" lengthAdjust="spacing" textLength="159.6626" x="665.9487" y="1157.6123">UPDATE categories SET ...</text><polygon fill="#181818" points="669.9487,1188.8203,659.9487,1192.8203,669.9487,1196.8203,665.9487,1192.8203" style="stroke:#181818;stroke-width:1.0;"/><line style="stroke:#181818;stroke-width:1.0;stroke-dasharray:2.0,2.0;" x1="663.9487" x2="891.5293" y1="1192.8203" y2="1192.8203"/><text fill="#000000" font-family="sans-serif" font-size="13" lengthAdjust="spacing" textLength="49.1309" x="675.9487" y="1187.9639">Success</text><polygon fill="#181818" points="421.0342,1219.1719,411.0342,1223.1719,421.0342,1227.1719,417.0342,1223.1719" style="stroke:#181818;stroke-width:1.0;"/><line style="stroke:#181818;stroke-width:1.0;stroke-dasharray:2.0,2.0;" x1="415.0342" x2="652.9487" y1="1223.1719" y2="1223.1719"/><text fill="#000000" font-family="sans-serif" font-size="13" lengthAdjust="spacing" textLength="49.1499" x="427.0342" y="1218.3154">Updated</text><polygon fill="#181818" points="208.5889,1249.5234,198.5889,1253.5234,208.5889,1257.5234,204.5889,1253.5234" style="stroke:#181818;stroke-width:1.0;"/><line style="stroke:#181818;stroke-width:1.0;stroke-dasharray:2.0,2.0;" x1="202.5889" x2="404.0342" y1="1253.5234" y2="1253.5234"/><text fill="#000000" font-family="sans-serif" font-size="13" lengthAdjust="spacing" textLength="132.2217" x="214.5889" y="1248.667">Flash message sukses</text><rect fill="#EEEEEE" height="3" style="stroke:#EEEEEE;stroke-width:1.0;" width="945.4946" x="0" y="1282.6992"/><line style="stroke:#000000;stroke-width:1.0;" x1="0" x2="945.4946" y1="1282.6992" y2="1282.6992"/><line style="stroke:#000000;stroke-width:1.0;" x1="0" x2="945.4946" y1="1285.6992" y2="1285.6992"/><rect fill="#EEEEEE" height="24.3516" style="stroke:#000000;stroke-width:2.0;" width="146.1772" x="399.6587" y="1271.5234"/><text fill="#000000" font-family="sans-serif" font-size="13" font-weight="bold" lengthAdjust="spacing" textLength="128.5654" x="405.6587" y="1289.0186">Menghapus Kategori</text><polygon fill="#181818" points="185.5889,1324.2266,195.5889,1328.2266,185.5889,1332.2266,189.5889,1328.2266" style="stroke:#181818;stroke-width:1.0;"/><line style="stroke:#181818;stroke-width:1.0;" x1="34.8481" x2="191.5889" y1="1328.2266" y2="1328.2266"/><text fill="#000000" font-family="sans-serif" font-size="13" lengthAdjust="spacing" textLength="104.7681" x="41.8481" y="1323.3701">Klik tombol Hapus</text><polygon fill="#181818" points="45.8481,1354.5781,35.8481,1358.5781,45.8481,1362.5781,41.8481,1358.5781" style="stroke:#181818;stroke-width:1.0;"/><line style="stroke:#181818;stroke-width:1.0;stroke-dasharray:2.0,2.0;" x1="39.8481" x2="196.5889" y1="1358.5781" y2="1358.5781"/><text fill="#000000" font-family="sans-serif" font-size="13" lengthAdjust="spacing" textLength="100.439" x="51.8481" y="1353.7217">Konfirmasi hapus</text><polygon fill="#181818" points="388.0342,1384.9297,398.0342,1388.9297,388.0342,1392.9297,392.0342,1388.9297" style="stroke:#181818;stroke-width:1.0;"/><line style="stroke:#181818;stroke-width:1.0;" x1="34.8481" x2="394.0342" y1="1388.9297" y2="1388.9297"/><text fill="#000000" font-family="sans-serif" font-size="13" lengthAdjust="spacing" textLength="93.939" x="41.8481" y="1384.0732">delete(category)</text><polygon fill="#181818" points="636.9487,1415.2813,646.9487,1419.2813,636.9487,1423.2813,640.9487,1419.2813" style="stroke:#181818;stroke-width:1.0;"/><line style="stroke:#181818;stroke-width:1.0;" x1="410.0342" x2="642.9487" y1="1419.2813" y2="1419.2813"/><text fill="#000000" font-family="sans-serif" font-size="13" lengthAdjust="spacing" textLength="172.6816" x="417.0342" y="1414.4248">category-&gt;products()-&gt;count()</text><polygon fill="#181818" points="880.5293,1445.6328,890.5293,1449.6328,880.5293,1453.6328,884.5293,1449.6328" style="stroke:#181818;stroke-width:1.0;"/><line style="stroke:#181818;stroke-width:1.0;" x1="658.9487" x2="886.5293" y1="1449.6328" y2="1449.6328"/><text fill="#000000" font-family="sans-serif" font-size="13" lengthAdjust="spacing" textLength="195.7554" x="665.9487" y="1444.7764">SELECT COUNT FROM products</text><polygon fill="#181818" points="669.9487,1475.9844,659.9487,1479.9844,669.9487,1483.9844,665.9487,1479.9844" style="stroke:#181818;stroke-width:1.0;"/><line style="stroke:#181818;stroke-width:1.0;stroke-dasharray:2.0,2.0;" x1="663.9487" x2="891.5293" y1="1479.9844" y2="1479.9844"/><text fill="#000000" font-family="sans-serif" font-size="13" lengthAdjust="spacing" textLength="53.8472" x="675.9487" y="1475.1279">count = 0</text><polygon fill="#181818" points="421.0342,1506.3359,411.0342,1510.3359,421.0342,1514.3359,417.0342,1510.3359" style="stroke:#181818;stroke-width:1.0;"/><line style="stroke:#181818;stroke-width:1.0;stroke-dasharray:2.0,2.0;" x1="415.0342" x2="652.9487" y1="1510.3359" y2="1510.3359"/><text fill="#000000" font-family="sans-serif" font-size="13" lengthAdjust="spacing" textLength="50.5908" x="427.0342" y="1505.4795">0 produk</text><path d="M124.5581,1525.3359 L184.729,1525.3359 L184.729,1533.6875 L174.729,1543.6875 L124.5581,1543.6875 L124.5581,1525.3359 " fill="#EEEEEE" style="stroke:#000000;stroke-width:1.5;"/><rect fill="none" height="216.2969" style="stroke:#000000;stroke-width:1.5;" width="810.9365" x="124.5581" y="1525.3359"/><text fill="#000000" font-family="sans-serif" font-size="13" font-weight="bold" lengthAdjust="spacing" textLength="15.1709" x="139.5581" y="1539.8311">alt</text><text fill="#000000" font-family="sans-serif" font-size="11" font-weight="bold" lengthAdjust="spacing" textLength="156.4546" x="199.729" y="1538.7549">[Kategori tidak punya produk]</text><polygon fill="#181818" points="636.9487,1562.0391,646.9487,1566.0391,636.9487,1570.0391,640.9487,1566.0391" style="stroke:#181818;stroke-width:1.0;"/><line style="stroke:#181818;stroke-width:1.0;" x1="410.0342" x2="642.9487" y1="1566.0391" y2="1566.0391"/><text fill="#000000" font-family="sans-serif" font-size="13" lengthAdjust="spacing" textLength="105.8599" x="417.0342" y="1561.1826">category-&gt;delete()</text><polygon fill="#181818" points="880.5293,1592.3906,890.5293,1596.3906,880.5293,1600.3906,884.5293,1596.3906" style="stroke:#181818;stroke-width:1.0;"/><line style="stroke:#181818;stroke-width:1.0;" x1="658.9487" x2="886.5293" y1="1596.3906" y2="1596.3906"/><text fill="#000000" font-family="sans-serif" font-size="13" lengthAdjust="spacing" textLength="156.0444" x="665.9487" y="1591.5342">DELETE FROM categories</text><polygon fill="#181818" points="669.9487,1622.7422,659.9487,1626.7422,669.9487,1630.7422,665.9487,1626.7422" style="stroke:#181818;stroke-width:1.0;"/><line style="stroke:#181818;stroke-width:1.0;stroke-dasharray:2.0,2.0;" x1="663.9487" x2="891.5293" y1="1626.7422" y2="1626.7422"/><text fill="#000000" font-family="sans-serif" font-size="13" lengthAdjust="spacing" textLength="49.1309" x="675.9487" y="1621.8857">Success</text><polygon fill="#181818" points="421.0342,1653.0938,411.0342,1657.0938,421.0342,1661.0938,417.0342,1657.0938" style="stroke:#181818;stroke-width:1.0;"/><line style="stroke:#181818;stroke-width:1.0;stroke-dasharray:2.0,2.0;" x1="415.0342" x2="652.9487" y1="1657.0938" y2="1657.0938"/><text fill="#000000" font-family="sans-serif" font-size="13" lengthAdjust="spacing" textLength="44.8081" x="427.0342" y="1652.2373">Deleted</text><polygon fill="#181818" points="208.5889,1683.4453,198.5889,1687.4453,208.5889,1691.4453,204.5889,1687.4453" style="stroke:#181818;stroke-width:1.0;"/><line style="stroke:#181818;stroke-width:1.0;stroke-dasharray:2.0,2.0;" x1="202.5889" x2="399.0342" y1="1687.4453" y2="1687.4453"/><text fill="#000000" font-family="sans-serif" font-size="13" lengthAdjust="spacing" textLength="132.2217" x="214.5889" y="1682.5889">Flash message sukses</text><line style="stroke:#000000;stroke-width:1.0;stroke-dasharray:2.0,2.0;" x1="124.5581" x2="935.4946" y1="1696.4453" y2="1696.4453"/><text fill="#000000" font-family="sans-serif" font-size="11" font-weight="bold" lengthAdjust="spacing" textLength="127.7246" x="129.5581" y="1707.8643">[Kategori punya produk]</text><polygon fill="#181818" points="208.5889,1729.6328,198.5889,1733.6328,208.5889,1737.6328,204.5889,1733.6328" style="stroke:#181818;stroke-width:1.0;"/><line style="stroke:#181818;stroke-width:1.0;stroke-dasharray:2.0,2.0;" x1="202.5889" x2="399.0342" y1="1733.6328" y2="1733.6328"/><text fill="#000000" font-family="sans-serif" font-size="13" lengthAdjust="spacing" textLength="178.4453" x="214.5889" y="1728.7764">Error: Kategori memiliki produk</text><!--SRC=[bLLDSzem4BtxL-paGkYKJCwU8JF19WD3dMI2EJKzBBO0rRBbIZ9j_drN_i869scvWBrlLs_VMos66y5WpNuLB8iO-1pt2bCN0fRjcP02OOM6xQNYyAnaN2IEWv6H2fRPaMN6laSDIoT7PNZ4SymCN2rGO8fPctfbCOi-ngjYRyiiPdzUCq-ckSoeOedrXh6lMI1Z9af8uCHeS8kQmPLV_oe3_innfbDgGF036l1nPr2TkfXE7MS9apjOk72VQARXKBDDQeXja1_fWIWlBD9p8PL5Pgx7fv3dU3OKkD2GSztVt1oy4ZZAhLQHqQFnv6xFUfc14zXCV-R2UlvjxeNm1HvUdWA8wlEPla1uJvl749gYZZ-3INMuxRmb3Z6PHetyB5A1XmgUs5fL3vuKWX4BsMarPXrUNeaaNLuOcQ8WhgGR0djM6G8lNGWnpRb8wDnQo2vkKNkHORebIeCkh0HFmCXqAuKjHhYXuZkfKZ1LU5cxeadP4PLcewymMXKCPgZnC1ht0J7JaUAvRRp1LKBTtDnqiNXa0mvJv8Y2qx3PwANfaM8sz9sA_HXsUVcudh-4z1K-TJq-cRWkeeXfVNAgbMcBgdZ7emU1-W0fvU6UWIxiA7STt2b6ySh2ldEr8tiMS_Ev8tD2jTV0fbpNFRoTQrNbdZbcC_h7Dtflx43OEzo-AV9QvN_peE4nkQiJF_1Wy-pVX_EE_7IpGY3yHpPiohBn_nWmAFG1yq9_hlJ2mawZlvBPZgiKDOUoG2iJRK16tRvdmvaspTAufaqKdM-nu9rDK-wZWNLJ5e0ft9v4kctsJ4yb1qLdjWnPbq1UP6_Oe84-bsJhriPbk5FEFhPCVM9ANfxlJ8kvDBFEhBZwPVcuVDcZMxFvm5Wcw8-cRMYebIfvhfHKdHkSifIJnxm1qsPr-bFo5m00]--></g></svg>