<svg xmlns="http://www.w3.org/2000/svg" xmlns:xlink="http://www.w3.org/1999/xlink" contentStyleType="text/css" height="908px" preserveAspectRatio="none" style="width:743px;height:908px;background:#FFFFFF;" version="1.1" viewBox="0 0 743 908" width="743px" zoomAndPan="magnify"><title>Sequence Diagram</title><defs/><g><text fill="#000000" font-family="sans-serif" font-size="14" font-weight="bold" lengthAdjust="spacing" textLength="126.0479" x="307.9551" y="29.5332">Sequence Diagram</text><text fill="#000000" font-family="sans-serif" font-size="14" font-weight="bold" lengthAdjust="spacing" textLength="181.248" x="280.355" y="47.1426">Mengelola Kategori Produk</text><line style="stroke:#181818;stroke-width:0.5;stroke-dasharray:5.0,5.0;" x1="58" x2="58" y1="138.8281" y2="826.5625"/><line style="stroke:#181818;stroke-width:0.5;stroke-dasharray:5.0,5.0;" x1="251.6567" x2="251.6567" y1="138.8281" y2="826.5625"/><line style="stroke:#181818;stroke-width:0.5;stroke-dasharray:5.0,5.0;" x1="548.6348" x2="548.6348" y1="138.8281" y2="826.5625"/><line style="stroke:#181818;stroke-width:0.5;stroke-dasharray:5.0,5.0;" x1="681.1309" x2="681.1309" y1="138.8281" y2="826.5625"/><text fill="#000000" font-family="sans-serif" font-size="14" lengthAdjust="spacing" textLength="101.1787" x="5" y="135.752">Bagian Inventori</text><ellipse cx="58.5894" cy="69.7188" fill="#E2E2F0" rx="8" ry="8" style="stroke:#181818;stroke-width:0.5;"/><path d="M58.5894,77.7188 L58.5894,104.7188 M45.5894,85.7188 L71.5894,85.7188 M58.5894,104.7188 L45.5894,119.7188 M58.5894,104.7188 L71.5894,119.7188 " fill="none" style="stroke:#181818;stroke-width:0.5;"/><text fill="#000000" font-family="sans-serif" font-size="14" lengthAdjust="spacing" textLength="101.1787" x="5" y="840.0957">Bagian Inventori</text><ellipse cx="58.5894" cy="851.6719" fill="#E2E2F0" rx="8" ry="8" style="stroke:#181818;stroke-width:0.5;"/><path d="M58.5894,859.6719 L58.5894,886.6719 M45.5894,867.6719 L71.5894,867.6719 M58.5894,886.6719 L45.5894,901.6719 M58.5894,886.6719 L71.5894,901.6719 " fill="none" style="stroke:#181818;stroke-width:0.5;"/><rect fill="#E2E2F0" height="31.6094" rx="2.5" ry="2.5" style="stroke:#181818;stroke-width:0.5;" width="103.5029" x="200.6567" y="106.2188"/><text fill="#000000" font-family="sans-serif" font-size="14" lengthAdjust="spacing" textLength="89.5029" x="207.6567" y="127.752">CategoryPage</text><rect fill="#E2E2F0" height="31.6094" rx="2.5" ry="2.5" style="stroke:#181818;stroke-width:0.5;" width="103.5029" x="200.6567" y="825.5625"/><text fill="#000000" font-family="sans-serif" font-size="14" lengthAdjust="spacing" textLength="89.5029" x="207.6567" y="847.0957">CategoryPage</text><rect fill="#E2E2F0" height="31.6094" rx="2.5" ry="2.5" style="stroke:#181818;stroke-width:0.5;" width="131.4961" x="483.6348" y="106.2188"/><text fill="#000000" font-family="sans-serif" font-size="14" lengthAdjust="spacing" textLength="117.4961" x="490.6348" y="127.752">CategoryController</text><rect fill="#E2E2F0" height="31.6094" rx="2.5" ry="2.5" style="stroke:#181818;stroke-width:0.5;" width="131.4961" x="483.6348" y="825.5625"/><text fill="#000000" font-family="sans-serif" font-size="14" lengthAdjust="spacing" textLength="117.4961" x="490.6348" y="847.0957">CategoryController</text><rect fill="#E2E2F0" height="31.6094" rx="2.5" ry="2.5" style="stroke:#181818;stroke-width:0.5;" width="112.8271" x="625.1309" y="106.2188"/><text fill="#000000" font-family="sans-serif" font-size="14" lengthAdjust="spacing" textLength="98.8271" x="632.1309" y="127.752">Category Model</text><rect fill="#E2E2F0" height="31.6094" rx="2.5" ry="2.5" style="stroke:#181818;stroke-width:0.5;" width="112.8271" x="625.1309" y="825.5625"/><text fill="#000000" font-family="sans-serif" font-size="14" lengthAdjust="spacing" textLength="98.8271" x="632.1309" y="847.0957">Category Model</text><polygon fill="#181818" points="240.4082,167.1797,250.4082,171.1797,240.4082,175.1797,244.4082,171.1797" style="stroke:#181818;stroke-width:1.0;"/><line style="stroke:#181818;stroke-width:1.0;" x1="58.5894" x2="246.4082" y1="171.1797" y2="171.1797"/><text fill="#000000" font-family="sans-serif" font-size="13" lengthAdjust="spacing" textLength="169.8188" x="70.5894" y="166.3232">Mengakses halaman kategori</text><polygon fill="#181818" points="537.3828,197.5313,547.3828,201.5313,537.3828,205.5313,541.3828,201.5313" style="stroke:#181818;stroke-width:1.0;"/><line style="stroke:#181818;stroke-width:1.0;" x1="252.4082" x2="543.3828" y1="201.5313" y2="201.5313"/><text fill="#000000" font-family="sans-serif" font-size="13" lengthAdjust="spacing" textLength="44.7891" x="378.501" y="196.6748">mount()</text><polygon fill="#181818" points="669.5444,227.8828,679.5444,231.8828,669.5444,235.8828,673.5444,231.8828" style="stroke:#181818;stroke-width:1.0;"/><line style="stroke:#181818;stroke-width:1.0;" x1="549.3828" x2="675.5444" y1="231.8828" y2="231.8828"/><text fill="#000000" font-family="sans-serif" font-size="13" lengthAdjust="spacing" textLength="21.6646" x="604.6313" y="227.0264">all()</text><polygon fill="#181818" points="263.4082,258.2344,253.4082,262.2344,263.4082,266.2344,259.4082,262.2344" style="stroke:#181818;stroke-width:1.0;"/><line style="stroke:#181818;stroke-width:1.0;stroke-dasharray:2.0,2.0;" x1="257.4082" x2="548.3828" y1="262.2344" y2="262.2344"/><text fill="#000000" font-family="sans-serif" font-size="13" lengthAdjust="spacing" textLength="111.9917" x="344.8997" y="257.3779">displayCategories()</text><polygon fill="#181818" points="240.4082,288.5859,250.4082,292.5859,240.4082,296.5859,244.4082,292.5859" style="stroke:#181818;stroke-width:1.0;"/><line style="stroke:#181818;stroke-width:1.0;" x1="58.5894" x2="246.4082" y1="292.5859" y2="292.5859"/><text fill="#000000" font-family="sans-serif" font-size="13" lengthAdjust="spacing" textLength="124.2808" x="93.3584" y="287.7295">Klik Tambah Kategori</text><polygon fill="#181818" points="69.5894,318.9375,59.5894,322.9375,69.5894,326.9375,65.5894,322.9375" style="stroke:#181818;stroke-width:1.0;"/><line style="stroke:#181818;stroke-width:1.0;stroke-dasharray:2.0,2.0;" x1="63.5894" x2="251.4082" y1="322.9375" y2="322.9375"/><text fill="#000000" font-family="sans-serif" font-size="13" lengthAdjust="spacing" textLength="100.4199" x="105.2888" y="318.0811">Tampil form input</text><polygon fill="#181818" points="240.4082,349.2891,250.4082,353.2891,240.4082,357.2891,244.4082,353.2891" style="stroke:#181818;stroke-width:1.0;"/><line style="stroke:#181818;stroke-width:1.0;" x1="58.5894" x2="246.4082" y1="353.2891" y2="353.2891"/><text fill="#000000" font-family="sans-serif" font-size="13" lengthAdjust="spacing" textLength="114.9053" x="98.0461" y="348.4326">Input nama kategori</text><polygon fill="#181818" points="537.3828,379.6406,547.3828,383.6406,537.3828,387.6406,541.3828,383.6406" style="stroke:#181818;stroke-width:1.0;"/><line style="stroke:#181818;stroke-width:1.0;" x1="252.4082" x2="543.3828" y1="383.6406" y2="383.6406"/><text fill="#000000" font-family="sans-serif" font-size="13" lengthAdjust="spacing" textLength="70.0781" x="365.8564" y="378.7842">store(name)</text><polygon fill="#181818" points="669.5444,409.9922,679.5444,413.9922,669.5444,417.9922,673.5444,413.9922" style="stroke:#181818;stroke-width:1.0;"/><line style="stroke:#181818;stroke-width:1.0;" x1="549.3828" x2="675.5444" y1="413.9922" y2="413.9922"/><text fill="#000000" font-family="sans-serif" font-size="13" lengthAdjust="spacing" textLength="77.3081" x="576.8096" y="409.1357">create(name)</text><polygon fill="#181818" points="263.4082,440.3438,253.4082,444.3438,263.4082,448.3438,259.4082,444.3438" style="stroke:#181818;stroke-width:1.0;"/><line style="stroke:#181818;stroke-width:1.0;stroke-dasharray:2.0,2.0;" x1="257.4082" x2="548.3828" y1="444.3438" y2="444.3438"/><text fill="#000000" font-family="sans-serif" font-size="13" lengthAdjust="spacing" textLength="272.9746" x="264.4082" y="439.4873">showSuccess("Kategori berhasil ditambahkan")</text><polygon fill="#181818" points="240.4082,470.6953,250.4082,474.6953,240.4082,478.6953,244.4082,474.6953" style="stroke:#181818;stroke-width:1.0;"/><line style="stroke:#181818;stroke-width:1.0;" x1="58.5894" x2="246.4082" y1="474.6953" y2="474.6953"/><text fill="#000000" font-family="sans-serif" font-size="13" lengthAdjust="spacing" textLength="117.7681" x="96.6147" y="469.8389">Klik Edit Kategori(id)</text><polygon fill="#181818" points="537.3828,501.0469,547.3828,505.0469,537.3828,509.0469,541.3828,505.0469" style="stroke:#181818;stroke-width:1.0;"/><line style="stroke:#181818;stroke-width:1.0;" x1="252.4082" x2="543.3828" y1="505.0469" y2="505.0469"/><text fill="#000000" font-family="sans-serif" font-size="13" lengthAdjust="spacing" textLength="39.7363" x="381.0273" y="500.1904">edit(id)</text><polygon fill="#181818" points="669.5444,531.3984,679.5444,535.3984,669.5444,539.3984,673.5444,535.3984" style="stroke:#181818;stroke-width:1.0;"/><line style="stroke:#181818;stroke-width:1.0;" x1="549.3828" x2="675.5444" y1="535.3984" y2="535.3984"/><text fill="#000000" font-family="sans-serif" font-size="13" lengthAdjust="spacing" textLength="39.7363" x="595.5955" y="530.542">find(id)</text><polygon fill="#181818" points="263.4082,561.75,253.4082,565.75,263.4082,569.75,259.4082,565.75" style="stroke:#181818;stroke-width:1.0;"/><line style="stroke:#181818;stroke-width:1.0;stroke-dasharray:2.0,2.0;" x1="257.4082" x2="548.3828" y1="565.75" y2="565.75"/><text fill="#000000" font-family="sans-serif" font-size="13" lengthAdjust="spacing" textLength="117.0381" x="342.3765" y="560.8936">showEditForm(data)</text><polygon fill="#181818" points="240.4082,592.1016,250.4082,596.1016,240.4082,600.1016,244.4082,596.1016" style="stroke:#181818;stroke-width:1.0;"/><line style="stroke:#181818;stroke-width:1.0;" x1="58.5894" x2="246.4082" y1="596.1016" y2="596.1016"/><text fill="#000000" font-family="sans-serif" font-size="13" lengthAdjust="spacing" textLength="127.9116" x="91.543" y="591.2451">Update nama kategori</text><polygon fill="#181818" points="537.3828,622.4531,547.3828,626.4531,537.3828,630.4531,541.3828,626.4531" style="stroke:#181818;stroke-width:1.0;"/><line style="stroke:#181818;stroke-width:1.0;" x1="252.4082" x2="543.3828" y1="626.4531" y2="626.4531"/><text fill="#000000" font-family="sans-serif" font-size="13" lengthAdjust="spacing" textLength="98.2808" x="351.7551" y="621.5967">update(id, name)</text><polygon fill="#181818" points="669.5444,652.8047,679.5444,656.8047,669.5444,660.8047,673.5444,656.8047" style="stroke:#181818;stroke-width:1.0;"/><line style="stroke:#181818;stroke-width:1.0;" x1="549.3828" x2="675.5444" y1="656.8047" y2="656.8047"/><text fill="#000000" font-family="sans-serif" font-size="13" lengthAdjust="spacing" textLength="98.2808" x="566.3232" y="651.9482">update(id, name)</text><polygon fill="#181818" points="263.4082,683.1563,253.4082,687.1563,263.4082,691.1563,259.4082,687.1563" style="stroke:#181818;stroke-width:1.0;"/><line style="stroke:#181818;stroke-width:1.0;stroke-dasharray:2.0,2.0;" x1="257.4082" x2="548.3828" y1="687.1563" y2="687.1563"/><text fill="#000000" font-family="sans-serif" font-size="13" lengthAdjust="spacing" textLength="237.5737" x="282.1086" y="682.2998">showSuccess("Kategori berhasil diubah")</text><polygon fill="#181818" points="240.4082,713.5078,250.4082,717.5078,240.4082,721.5078,244.4082,717.5078" style="stroke:#181818;stroke-width:1.0;"/><line style="stroke:#181818;stroke-width:1.0;" x1="58.5894" x2="246.4082" y1="717.5078" y2="717.5078"/><text fill="#000000" font-family="sans-serif" font-size="13" lengthAdjust="spacing" textLength="115.6035" x="97.697" y="712.6514">Ubah status aktif(id)</text><polygon fill="#181818" points="537.3828,743.8594,547.3828,747.8594,537.3828,751.8594,541.3828,747.8594" style="stroke:#181818;stroke-width:1.0;"/><line style="stroke:#181818;stroke-width:1.0;" x1="252.4082" x2="543.3828" y1="747.8594" y2="747.8594"/><text fill="#000000" font-family="sans-serif" font-size="13" lengthAdjust="spacing" textLength="89.5972" x="356.0969" y="743.0029">toggleActive(id)</text><polygon fill="#181818" points="669.5444,774.2109,679.5444,778.2109,669.5444,782.2109,673.5444,778.2109" style="stroke:#181818;stroke-width:1.0;"/><line style="stroke:#181818;stroke-width:1.0;" x1="549.3828" x2="675.5444" y1="778.2109" y2="778.2109"/><text fill="#000000" font-family="sans-serif" font-size="13" lengthAdjust="spacing" textLength="99.709" x="565.6091" y="773.3545">toggleIsActive(id)</text><polygon fill="#181818" points="263.4082,804.5625,253.4082,808.5625,263.4082,812.5625,259.4082,808.5625" style="stroke:#181818;stroke-width:1.0;"/><line style="stroke:#181818;stroke-width:1.0;stroke-dasharray:2.0,2.0;" x1="257.4082" x2="548.3828" y1="808.5625" y2="808.5625"/><text fill="#000000" font-family="sans-serif" font-size="13" lengthAdjust="spacing" textLength="235.4028" x="283.1941" y="803.7061">showSuccess("Status kategori berubah")</text><!--SRC=[ZL7BJiCm4BpxArOv1Gb-W0CI192gAbAbmetBacpJLHmxs1iGVy-w2QKDGUBecV4yxDYowp5W1v7U1d8LbHGZDdHhkN5GaHCAnWYB9TXE4hXdRFJEYol9DMIzHLYZKEC3moRuUcYDmKfyWEmE6qO7A_UkLifdW36TZAOALzoZ4yYAyVRdHfCFYcApB2Yya-2jfJ3AYcKPbBucEqfAOpGFhcxK5AuXLSOsKeGzMkoqMpjLDyedLQ6gpWzEyWkZXmIL2g6r4_1jLNFiBNvEeKnH-REijUKMdh1xnVtnWGufAaYwwqJsR67dGmVw4uES6wmI14vhBhQC-gAKAqrdJQj0AZx1l-tYtdziXwhIBywpuu-zKjXZr1Orow5hYovRMlAWWkEEdEkBqowav8Zz5Dcngu_OQOdazAYRyne5Pr7FlOBqz-ZXmAlj9VnQliZzU_sWs-V3dzFVHK4P8c0hl9ll5jyqbcuhuNUQxn-vLPonYuMsOqPxqclgymK0]--></g></svg>