<svg xmlns="http://www.w3.org/2000/svg" xmlns:xlink="http://www.w3.org/1999/xlink" contentStyleType="text/css" height="1963px" preserveAspectRatio="none" style="width:1368px;height:1963px;background:#FFFFFF;" version="1.1" viewBox="0 0 1368 1963" width="1368px" zoomAndPan="magnify"><defs/><g><rect fill="none" height="71.0547" style="stroke:#000000;stroke-width:1.5;" width="884.3447" x="466.6738" y="395.125"/><rect fill="none" height="117.7578" style="stroke:#000000;stroke-width:1.5;" width="983.0342" x="182.7764" y="993.8047"/><rect fill="none" height="247.5156" style="stroke:#000000;stroke-width:1.5;" width="983.0342" x="182.7764" y="1200.2656"/><rect fill="none" height="109.4063" style="stroke:#000000;stroke-width:1.5;" width="983.0342" x="182.7764" y="1506.1328"/><line style="stroke:#181818;stroke-width:0.5;stroke-dasharray:5.0,5.0;" x1="34" x2="34" y1="82.6094" y2="1881.3516"/><line style="stroke:#181818;stroke-width:0.5;stroke-dasharray:5.0,5.0;" x1="244.7764" x2="244.7764" y1="82.6094" y2="1881.3516"/><line style="stroke:#181818;stroke-width:0.5;stroke-dasharray:5.0,5.0;" x1="432.1914" x2="432.1914" y1="82.6094" y2="1881.3516"/><line style="stroke:#181818;stroke-width:0.5;stroke-dasharray:5.0,5.0;" x1="528.6738" x2="528.6738" y1="82.6094" y2="1881.3516"/><line style="stroke:#181818;stroke-width:0.5;stroke-dasharray:5.0,5.0;" x1="621.9492" x2="621.9492" y1="82.6094" y2="1881.3516"/><line style="stroke:#181818;stroke-width:0.5;stroke-dasharray:5.0,5.0;" x1="713.7422" x2="713.7422" y1="82.6094" y2="1881.3516"/><line style="stroke:#181818;stroke-width:0.5;stroke-dasharray:5.0,5.0;" x1="821.335" x2="821.335" y1="82.6094" y2="1881.3516"/><line style="stroke:#181818;stroke-width:0.5;stroke-dasharray:5.0,5.0;" x1="943.2793" x2="943.2793" y1="82.6094" y2="1881.3516"/><line style="stroke:#181818;stroke-width:0.5;stroke-dasharray:5.0,5.0;" x1="1121.8799" x2="1121.8799" y1="82.6094" y2="1881.3516"/><text fill="#000000" font-family="sans-serif" font-size="14" lengthAdjust="spacing" textLength="53.6963" x="5" y="79.5332">Inventori</text><ellipse cx="34.8481" cy="13.5" fill="#E2E2F0" rx="8" ry="8" style="stroke:#181818;stroke-width:0.5;"/><path d="M34.8481,21.5 L34.8481,48.5 M21.8481,29.5 L47.8481,29.5 M34.8481,48.5 L21.8481,63.5 M34.8481,48.5 L47.8481,63.5 " fill="none" style="stroke:#181818;stroke-width:0.5;"/><text fill="#000000" font-family="sans-serif" font-size="14" lengthAdjust="spacing" textLength="53.6963" x="5" y="1894.8848">Inventori</text><ellipse cx="34.8481" cy="1906.4609" fill="#E2E2F0" rx="8" ry="8" style="stroke:#181818;stroke-width:0.5;"/><path d="M34.8481,1914.4609 L34.8481,1941.4609 M21.8481,1922.4609 L47.8481,1922.4609 M34.8481,1941.4609 L21.8481,1956.4609 M34.8481,1941.4609 L47.8481,1956.4609 " fill="none" style="stroke:#181818;stroke-width:0.5;"/><rect fill="#E2E2F0" height="49.2188" rx="2.5" ry="2.5" style="stroke:#181818;stroke-width:0.5;" width="105.0684" x="192.7764" y="32.3906"/><text fill="#000000" font-family="sans-serif" font-size="14" lengthAdjust="spacing" textLength="91.0684" x="199.7764" y="53.9238">Expense Page</text><text fill="#000000" font-family="sans-serif" font-size="14" lengthAdjust="spacing" textLength="60.6758" x="214.9727" y="71.5332">(Livewire)</text><rect fill="#E2E2F0" height="49.2188" rx="2.5" ry="2.5" style="stroke:#181818;stroke-width:0.5;" width="105.0684" x="192.7764" y="1880.3516"/><text fill="#000000" font-family="sans-serif" font-size="14" lengthAdjust="spacing" textLength="91.0684" x="199.7764" y="1901.8848">Expense Page</text><text fill="#000000" font-family="sans-serif" font-size="14" lengthAdjust="spacing" textLength="60.6758" x="214.9727" y="1919.4941">(Livewire)</text><rect fill="#E2E2F0" height="49.2188" rx="2.5" ry="2.5" style="stroke:#181818;stroke-width:0.5;" width="68.4824" x="398.1914" y="32.3906"/><text fill="#000000" font-family="sans-serif" font-size="14" lengthAdjust="spacing" textLength="54.4824" x="405.1914" y="53.9238">Expense</text><text fill="#000000" font-family="sans-serif" font-size="14" lengthAdjust="spacing" textLength="38.1309" x="413.3672" y="71.5332">Model</text><rect fill="#E2E2F0" height="49.2188" rx="2.5" ry="2.5" style="stroke:#181818;stroke-width:0.5;" width="68.4824" x="398.1914" y="1880.3516"/><text fill="#000000" font-family="sans-serif" font-size="14" lengthAdjust="spacing" textLength="54.4824" x="405.1914" y="1901.8848">Expense</text><text fill="#000000" font-family="sans-serif" font-size="14" lengthAdjust="spacing" textLength="38.1309" x="413.3672" y="1919.4941">Model</text><rect fill="#E2E2F0" height="49.2188" rx="2.5" ry="2.5" style="stroke:#181818;stroke-width:0.5;" width="104.2754" x="476.6738" y="32.3906"/><text fill="#000000" font-family="sans-serif" font-size="14" lengthAdjust="spacing" textLength="90.2754" x="483.6738" y="53.9238">ExpenseDetail</text><text fill="#000000" font-family="sans-serif" font-size="14" lengthAdjust="spacing" textLength="38.1309" x="509.7461" y="71.5332">Model</text><rect fill="#E2E2F0" height="49.2188" rx="2.5" ry="2.5" style="stroke:#181818;stroke-width:0.5;" width="104.2754" x="476.6738" y="1880.3516"/><text fill="#000000" font-family="sans-serif" font-size="14" lengthAdjust="spacing" textLength="90.2754" x="483.6738" y="1901.8848">ExpenseDetail</text><text fill="#000000" font-family="sans-serif" font-size="14" lengthAdjust="spacing" textLength="38.1309" x="509.7461" y="1919.4941">Model</text><rect fill="#E2E2F0" height="49.2188" rx="2.5" ry="2.5" style="stroke:#181818;stroke-width:0.5;" width="63.793" x="590.9492" y="32.3906"/><text fill="#000000" font-family="sans-serif" font-size="14" lengthAdjust="spacing" textLength="49.793" x="597.9492" y="53.9238">Material</text><text fill="#000000" font-family="sans-serif" font-size="14" lengthAdjust="spacing" textLength="38.1309" x="603.7803" y="71.5332">Model</text><rect fill="#E2E2F0" height="49.2188" rx="2.5" ry="2.5" style="stroke:#181818;stroke-width:0.5;" width="63.793" x="590.9492" y="1880.3516"/><text fill="#000000" font-family="sans-serif" font-size="14" lengthAdjust="spacing" textLength="49.793" x="597.9492" y="1901.8848">Material</text><text fill="#000000" font-family="sans-serif" font-size="14" lengthAdjust="spacing" textLength="38.1309" x="603.7803" y="1919.4941">Model</text><rect fill="#E2E2F0" height="49.2188" rx="2.5" ry="2.5" style="stroke:#181818;stroke-width:0.5;" width="99.5928" x="664.7422" y="32.3906"/><text fill="#000000" font-family="sans-serif" font-size="14" lengthAdjust="spacing" textLength="85.5928" x="671.7422" y="53.9238">MaterialBatch</text><text fill="#000000" font-family="sans-serif" font-size="14" lengthAdjust="spacing" textLength="38.1309" x="695.4731" y="71.5332">Model</text><rect fill="#E2E2F0" height="49.2188" rx="2.5" ry="2.5" style="stroke:#181818;stroke-width:0.5;" width="99.5928" x="664.7422" y="1880.3516"/><text fill="#000000" font-family="sans-serif" font-size="14" lengthAdjust="spacing" textLength="85.5928" x="671.7422" y="1901.8848">MaterialBatch</text><text fill="#000000" font-family="sans-serif" font-size="14" lengthAdjust="spacing" textLength="38.1309" x="695.4731" y="1919.4941">Model</text><rect fill="#E2E2F0" height="49.2188" rx="2.5" ry="2.5" style="stroke:#181818;stroke-width:0.5;" width="94.9443" x="774.335" y="32.3906"/><text fill="#000000" font-family="sans-serif" font-size="14" lengthAdjust="spacing" textLength="80.9443" x="781.335" y="53.9238">InventoryLog</text><text fill="#000000" font-family="sans-serif" font-size="14" lengthAdjust="spacing" textLength="38.1309" x="802.7417" y="71.5332">Model</text><rect fill="#E2E2F0" height="49.2188" rx="2.5" ry="2.5" style="stroke:#181818;stroke-width:0.5;" width="94.9443" x="774.335" y="1880.3516"/><text fill="#000000" font-family="sans-serif" font-size="14" lengthAdjust="spacing" textLength="80.9443" x="781.335" y="1901.8848">InventoryLog</text><text fill="#000000" font-family="sans-serif" font-size="14" lengthAdjust="spacing" textLength="38.1309" x="802.7417" y="1919.4941">Model</text><rect fill="#E2E2F0" height="31.6094" rx="2.5" ry="2.5" style="stroke:#181818;stroke-width:0.5;" width="129.9375" x="879.2793" y="50"/><text fill="#000000" font-family="sans-serif" font-size="14" lengthAdjust="spacing" textLength="115.9375" x="886.2793" y="71.5332">NotificationService</text><rect fill="#E2E2F0" height="31.6094" rx="2.5" ry="2.5" style="stroke:#181818;stroke-width:0.5;" width="129.9375" x="879.2793" y="1880.3516"/><text fill="#000000" font-family="sans-serif" font-size="14" lengthAdjust="spacing" textLength="115.9375" x="886.2793" y="1901.8848">NotificationService</text><text fill="#000000" font-family="sans-serif" font-size="14" lengthAdjust="spacing" textLength="59.9307" x="1089.8799" y="79.5332">Database</text><path d="M1104.8452,29 C1104.8452,19 1122.8452,19 1122.8452,19 C1122.8452,19 1140.8452,19 1140.8452,29 L1140.8452,55 C1140.8452,65 1122.8452,65 1122.8452,65 C1122.8452,65 1104.8452,65 1104.8452,55 L1104.8452,29 " fill="#E2E2F0" style="stroke:#181818;stroke-width:1.5;"/><path d="M1104.8452,29 C1104.8452,39 1122.8452,39 1122.8452,39 C1122.8452,39 1140.8452,39 1140.8452,29 " fill="none" style="stroke:#181818;stroke-width:1.5;"/><text fill="#000000" font-family="sans-serif" font-size="14" lengthAdjust="spacing" textLength="59.9307" x="1089.8799" y="1894.8848">Database</text><path d="M1104.8452,1907.9609 C1104.8452,1897.9609 1122.8452,1897.9609 1122.8452,1897.9609 C1122.8452,1897.9609 1140.8452,1897.9609 1140.8452,1907.9609 L1140.8452,1933.9609 C1140.8452,1943.9609 1122.8452,1943.9609 1122.8452,1943.9609 C1122.8452,1943.9609 1104.8452,1943.9609 1104.8452,1933.9609 L1104.8452,1907.9609 " fill="#E2E2F0" style="stroke:#181818;stroke-width:1.5;"/><path d="M1104.8452,1907.9609 C1104.8452,1917.9609 1122.8452,1917.9609 1122.8452,1917.9609 C1122.8452,1917.9609 1140.8452,1917.9609 1140.8452,1907.9609 " fill="none" style="stroke:#181818;stroke-width:1.5;"/><rect fill="#EEEEEE" height="3" style="stroke:#EEEEEE;stroke-width:1.0;" width="1361.0186" x="0" y="113.7852"/><line style="stroke:#000000;stroke-width:1.0;" x1="0" x2="1361.0186" y1="113.7852" y2="113.7852"/><line style="stroke:#000000;stroke-width:1.0;" x1="0" x2="1361.0186" y1="116.7852" y2="116.7852"/><rect fill="#EEEEEE" height="24.3516" style="stroke:#000000;stroke-width:2.0;" width="182.3271" x="589.3457" y="102.6094"/><text fill="#000000" font-family="sans-serif" font-size="13" font-weight="bold" lengthAdjust="spacing" textLength="164.7153" x="595.3457" y="120.1045">Membuat Rencana Belanja</text><polygon fill="#181818" points="233.3105,155.3125,243.3105,159.3125,233.3105,163.3125,237.3105,159.3125" style="stroke:#181818;stroke-width:1.0;"/><line style="stroke:#181818;stroke-width:1.0;" x1="34.8481" x2="239.3105" y1="159.3125" y2="159.3125"/><text fill="#000000" font-family="sans-serif" font-size="13" lengthAdjust="spacing" textLength="175.6206" x="41.8481" y="154.4561">Buka halaman tambah belanja</text><polygon fill="#181818" points="233.3105,185.6641,243.3105,189.6641,233.3105,193.6641,237.3105,189.6641" style="stroke:#181818;stroke-width:1.0;"/><line style="stroke:#181818;stroke-width:1.0;" x1="34.8481" x2="239.3105" y1="189.6641" y2="189.6641"/><text fill="#000000" font-family="sans-serif" font-size="13" lengthAdjust="spacing" textLength="73.7026" x="41.8481" y="184.8076">Pilih supplier</text><polygon fill="#181818" points="233.3105,216.0156,243.3105,220.0156,233.3105,224.0156,237.3105,220.0156" style="stroke:#181818;stroke-width:1.0;"/><line style="stroke:#181818;stroke-width:1.0;" x1="34.8481" x2="239.3105" y1="220.0156" y2="220.0156"/><text fill="#000000" font-family="sans-serif" font-size="13" lengthAdjust="spacing" textLength="186.4624" x="41.8481" y="215.1592">Tambah bahan baku dan jumlah</text><polygon fill="#181818" points="420.4326,265.7188,430.4326,269.7188,420.4326,273.7188,424.4326,269.7188" style="stroke:#181818;stroke-width:1.0;"/><line style="stroke:#181818;stroke-width:1.0;" x1="245.3105" x2="426.4326" y1="269.7188" y2="269.7188"/><text fill="#000000" font-family="sans-serif" font-size="13" lengthAdjust="spacing" textLength="126.4707" x="252.3105" y="264.8623">create(expense_data)</text><path d="M437,233.0156 L437,292.0156 L658,292.0156 L658,243.0156 L648,233.0156 L437,233.0156 " fill="#FEFFDD" style="stroke:#181818;stroke-width:0.5;"/><path d="M648,233.0156 L648,243.0156 L658,243.0156 L648,233.0156 " fill="#FEFFDD" style="stroke:#181818;stroke-width:0.5;"/><text fill="#000000" font-family="sans-serif" font-size="13" lengthAdjust="spacing" textLength="188.6333" x="443" y="251.5107">expense_number: auto-generate</text><text fill="#000000" font-family="sans-serif" font-size="13" lengthAdjust="spacing" textLength="98.9092" x="443" y="267.8623">status: 'Rencana'</text><text fill="#000000" font-family="sans-serif" font-size="13" lengthAdjust="spacing" textLength="200.186" x="443" y="284.2139">grand_total_expect: total perkiraan</text><polygon fill="#181818" points="1110.8452,315.4219,1120.8452,319.4219,1110.8452,323.4219,1114.8452,319.4219" style="stroke:#181818;stroke-width:1.0;"/><line style="stroke:#181818;stroke-width:1.0;" x1="432.4326" x2="1116.8452" y1="319.4219" y2="319.4219"/><text fill="#000000" font-family="sans-serif" font-size="13" lengthAdjust="spacing" textLength="141.5972" x="439.4326" y="314.5654">INSERT INTO expenses</text><polygon fill="#181818" points="443.4326,345.7734,433.4326,349.7734,443.4326,353.7734,439.4326,349.7734" style="stroke:#181818;stroke-width:1.0;"/><line style="stroke:#181818;stroke-width:1.0;stroke-dasharray:2.0,2.0;" x1="437.4326" x2="1121.8452" y1="349.7734" y2="349.7734"/><text fill="#000000" font-family="sans-serif" font-size="13" lengthAdjust="spacing" textLength="49.1499" x="449.4326" y="344.917">expense</text><polygon fill="#181818" points="516.8115,376.125,526.8115,380.125,516.8115,384.125,520.8115,380.125" style="stroke:#181818;stroke-width:1.0;"/><line style="stroke:#181818;stroke-width:1.0;" x1="245.3105" x2="522.8115" y1="380.125" y2="380.125"/><text fill="#000000" font-family="sans-serif" font-size="13" lengthAdjust="spacing" textLength="114.1563" x="252.3105" y="375.2686">createMany(details)</text><path d="M466.6738,395.125 L539.1084,395.125 L539.1084,403.4766 L529.1084,413.4766 L466.6738,413.4766 L466.6738,395.125 " fill="#EEEEEE" style="stroke:#000000;stroke-width:1.5;"/><rect fill="none" height="71.0547" style="stroke:#000000;stroke-width:1.5;" width="884.3447" x="466.6738" y="395.125"/><text fill="#000000" font-family="sans-serif" font-size="13" font-weight="bold" lengthAdjust="spacing" textLength="27.4346" x="481.6738" y="409.6201">loop</text><text fill="#000000" font-family="sans-serif" font-size="11" font-weight="bold" lengthAdjust="spacing" textLength="108.7861" x="554.1084" y="408.5439">[Untuk setiap bahan]</text><polygon fill="#181818" points="1110.8452,443.0039,1120.8452,447.0039,1110.8452,451.0039,1114.8452,447.0039" style="stroke:#181818;stroke-width:1.0;"/><line style="stroke:#181818;stroke-width:1.0;" x1="528.8115" x2="1116.8452" y1="447.0039" y2="447.0039"/><text fill="#000000" font-family="sans-serif" font-size="13" lengthAdjust="spacing" textLength="179.9053" x="535.8115" y="442.1475">INSERT INTO expense_details</text><path d="M1127,418.4766 L1127,460.4766 L1335,460.4766 L1335,428.4766 L1325,418.4766 L1127,418.4766 " fill="#FEFFDD" style="stroke:#181818;stroke-width:0.5;"/><path d="M1325,418.4766 L1325,428.4766 L1335,428.4766 L1325,418.4766 " fill="#FEFFDD" style="stroke:#181818;stroke-width:0.5;"/><text fill="#000000" font-family="sans-serif" font-size="13" lengthAdjust="spacing" textLength="187.1733" x="1133" y="436.9717">quantity_expect: jumlah rencana</text><text fill="#000000" font-family="sans-serif" font-size="13" lengthAdjust="spacing" textLength="171.9897" x="1133" y="453.3232">price_expect: harga perkiraan</text><polygon fill="#181818" points="539.8115,491.5313,529.8115,495.5313,539.8115,499.5313,535.8115,495.5313" style="stroke:#181818;stroke-width:1.0;"/><line style="stroke:#181818;stroke-width:1.0;stroke-dasharray:2.0,2.0;" x1="533.8115" x2="1121.8452" y1="495.5313" y2="495.5313"/><text fill="#000000" font-family="sans-serif" font-size="13" lengthAdjust="spacing" textLength="37.5781" x="545.8115" y="490.6748">details</text><polygon fill="#181818" points="932.248,521.8828,942.248,525.8828,932.248,529.8828,936.248,525.8828" style="stroke:#181818;stroke-width:1.0;"/><line style="stroke:#181818;stroke-width:1.0;" x1="245.3105" x2="938.248" y1="525.8828" y2="525.8828"/><text fill="#000000" font-family="sans-serif" font-size="13" lengthAdjust="spacing" textLength="205.9751" x="252.3105" y="521.0264">expensePlanned(expense_number)</text><polygon fill="#181818" points="1110.8452,552.2344,1120.8452,556.2344,1110.8452,560.2344,1114.8452,556.2344" style="stroke:#181818;stroke-width:1.0;"/><line style="stroke:#181818;stroke-width:1.0;" x1="944.248" x2="1116.8452" y1="556.2344" y2="556.2344"/><text fill="#000000" font-family="sans-serif" font-size="13" lengthAdjust="spacing" textLength="154.5972" x="951.248" y="551.3779">INSERT INTO notifications</text><polygon fill="#181818" points="45.8481,582.5859,35.8481,586.5859,45.8481,590.5859,41.8481,586.5859" style="stroke:#181818;stroke-width:1.0;"/><line style="stroke:#181818;stroke-width:1.0;stroke-dasharray:2.0,2.0;" x1="39.8481" x2="244.3105" y1="586.5859" y2="586.5859"/><text fill="#000000" font-family="sans-serif" font-size="13" lengthAdjust="spacing" textLength="158.2661" x="51.8481" y="581.7295">Rencana belanja tersimpan</text><rect fill="#EEEEEE" height="3" style="stroke:#EEEEEE;stroke-width:1.0;" width="1361.0186" x="0" y="615.7617"/><line style="stroke:#000000;stroke-width:1.0;" x1="0" x2="1361.0186" y1="615.7617" y2="615.7617"/><line style="stroke:#000000;stroke-width:1.0;" x1="0" x2="1361.0186" y1="618.7617" y2="618.7617"/><rect fill="#EEEEEE" height="24.3516" style="stroke:#000000;stroke-width:2.0;" width="119.479" x="620.7698" y="604.5859"/><text fill="#000000" font-family="sans-serif" font-size="13" font-weight="bold" lengthAdjust="spacing" textLength="101.8672" x="626.7698" y="622.0811">Memulai Belanja</text><polygon fill="#181818" points="233.3105,657.2891,243.3105,661.2891,233.3105,665.2891,237.3105,661.2891" style="stroke:#181818;stroke-width:1.0;"/><line style="stroke:#181818;stroke-width:1.0;" x1="34.8481" x2="239.3105" y1="661.2891" y2="661.2891"/><text fill="#000000" font-family="sans-serif" font-size="13" lengthAdjust="spacing" textLength="130.0825" x="41.8481" y="656.4326">Pilih belanja dan mulai</text><polygon fill="#181818" points="420.4326,687.6406,430.4326,691.6406,420.4326,695.6406,424.4326,691.6406" style="stroke:#181818;stroke-width:1.0;"/><line style="stroke:#181818;stroke-width:1.0;" x1="245.3105" x2="426.4326" y1="691.6406" y2="691.6406"/><text fill="#000000" font-family="sans-serif" font-size="13" lengthAdjust="spacing" textLength="163.1221" x="252.3105" y="686.7842">update(['status' =&gt; 'Proses'])</text><polygon fill="#181818" points="1110.8452,717.9922,1120.8452,721.9922,1110.8452,725.9922,1114.8452,721.9922" style="stroke:#181818;stroke-width:1.0;"/><line style="stroke:#181818;stroke-width:1.0;" x1="432.4326" x2="1116.8452" y1="721.9922" y2="721.9922"/><text fill="#000000" font-family="sans-serif" font-size="13" lengthAdjust="spacing" textLength="111.9917" x="439.4326" y="717.1357">UPDATE expenses</text><polygon fill="#181818" points="443.4326,748.3438,433.4326,752.3438,443.4326,756.3438,439.4326,752.3438" style="stroke:#181818;stroke-width:1.0;"/><line style="stroke:#181818;stroke-width:1.0;stroke-dasharray:2.0,2.0;" x1="437.4326" x2="1121.8452" y1="752.3438" y2="752.3438"/><text fill="#000000" font-family="sans-serif" font-size="13" lengthAdjust="spacing" textLength="46.9917" x="449.4326" y="747.4873">updated</text><polygon fill="#181818" points="932.248,778.6953,942.248,782.6953,932.248,786.6953,936.248,782.6953" style="stroke:#181818;stroke-width:1.0;"/><line style="stroke:#181818;stroke-width:1.0;" x1="245.3105" x2="938.248" y1="782.6953" y2="782.6953"/><text fill="#000000" font-family="sans-serif" font-size="13" lengthAdjust="spacing" textLength="222.5742" x="252.3105" y="777.8389">expenseProcessing(expense_number)</text><polygon fill="#181818" points="1110.8452,809.0469,1120.8452,813.0469,1110.8452,817.0469,1114.8452,813.0469" style="stroke:#181818;stroke-width:1.0;"/><line style="stroke:#181818;stroke-width:1.0;" x1="944.248" x2="1116.8452" y1="813.0469" y2="813.0469"/><text fill="#000000" font-family="sans-serif" font-size="13" lengthAdjust="spacing" textLength="154.5972" x="951.248" y="808.1904">INSERT INTO notifications</text><polygon fill="#181818" points="45.8481,839.3984,35.8481,843.3984,45.8481,847.3984,41.8481,843.3984" style="stroke:#181818;stroke-width:1.0;"/><line style="stroke:#181818;stroke-width:1.0;stroke-dasharray:2.0,2.0;" x1="39.8481" x2="244.3105" y1="843.3984" y2="843.3984"/><text fill="#000000" font-family="sans-serif" font-size="13" lengthAdjust="spacing" textLength="88.1626" x="51.8481" y="838.542">Belanja dimulai</text><rect fill="#EEEEEE" height="3" style="stroke:#EEEEEE;stroke-width:1.0;" width="1361.0186" x="0" y="872.5742"/><line style="stroke:#000000;stroke-width:1.0;" x1="0" x2="1361.0186" y1="872.5742" y2="872.5742"/><line style="stroke:#000000;stroke-width:1.0;" x1="0" x2="1361.0186" y1="875.5742" y2="875.5742"/><rect fill="#EEEEEE" height="24.3516" style="stroke:#000000;stroke-width:2.0;" width="159.2407" x="600.8889" y="861.3984"/><text fill="#000000" font-family="sans-serif" font-size="13" font-weight="bold" lengthAdjust="spacing" textLength="141.6289" x="606.8889" y="878.8936">Menyelesaikan Belanja</text><polygon fill="#181818" points="233.3105,914.1016,243.3105,918.1016,233.3105,922.1016,237.3105,918.1016" style="stroke:#181818;stroke-width:1.0;"/><line style="stroke:#181818;stroke-width:1.0;" x1="34.8481" x2="239.3105" y1="918.1016" y2="918.1016"/><text fill="#000000" font-family="sans-serif" font-size="13" lengthAdjust="spacing" textLength="157.5425" x="41.8481" y="913.2451">Isi jumlah aktual tiap bahan</text><polygon fill="#181818" points="233.3105,944.4531,243.3105,948.4531,233.3105,952.4531,237.3105,948.4531" style="stroke:#181818;stroke-width:1.0;"/><line style="stroke:#181818;stroke-width:1.0;" x1="34.8481" x2="239.3105" y1="948.4531" y2="948.4531"/><text fill="#000000" font-family="sans-serif" font-size="13" lengthAdjust="spacing" textLength="152.4961" x="41.8481" y="943.5967">Isi harga aktual tiap bahan</text><polygon fill="#181818" points="233.3105,974.8047,243.3105,978.8047,233.3105,982.8047,237.3105,978.8047" style="stroke:#181818;stroke-width:1.0;"/><line style="stroke:#181818;stroke-width:1.0;" x1="34.8481" x2="239.3105" y1="978.8047" y2="978.8047"/><text fill="#000000" font-family="sans-serif" font-size="13" lengthAdjust="spacing" textLength="166.207" x="41.8481" y="973.9482">Isi tanggal expired (opsional)</text><path d="M182.7764,993.8047 L255.2109,993.8047 L255.2109,1002.1563 L245.2109,1012.1563 L182.7764,1012.1563 L182.7764,993.8047 " fill="#EEEEEE" style="stroke:#000000;stroke-width:1.5;"/><rect fill="none" height="117.7578" style="stroke:#000000;stroke-width:1.5;" width="983.0342" x="182.7764" y="993.8047"/><text fill="#000000" font-family="sans-serif" font-size="13" font-weight="bold" lengthAdjust="spacing" textLength="27.4346" x="197.7764" y="1008.2998">loop</text><text fill="#000000" font-family="sans-serif" font-size="11" font-weight="bold" lengthAdjust="spacing" textLength="105.123" x="270.2109" y="1007.2236">[Untuk setiap detail]</text><polygon fill="#181818" points="516.8115,1049.8594,526.8115,1053.8594,516.8115,1057.8594,520.8115,1053.8594" style="stroke:#181818;stroke-width:1.0;"/><line style="stroke:#181818;stroke-width:1.0;" x1="245.3105" x2="522.8115" y1="1053.8594" y2="1053.8594"/><text fill="#000000" font-family="sans-serif" font-size="13" lengthAdjust="spacing" textLength="115.6416" x="252.3105" y="1049.0029">update(actual_data)</text><path d="M533,1017.1563 L533,1076.1563 L712,1076.1563 L712,1027.1563 L702,1017.1563 L533,1017.1563 " fill="#FEFFDD" style="stroke:#181818;stroke-width:0.5;"/><path d="M702,1017.1563 L702,1027.1563 L712,1027.1563 L702,1017.1563 " fill="#FEFFDD" style="stroke:#181818;stroke-width:0.5;"/><text fill="#000000" font-family="sans-serif" font-size="13" lengthAdjust="spacing" textLength="158.2598" x="539" y="1035.6514">quantity_actual: jumlah real</text><text fill="#000000" font-family="sans-serif" font-size="13" lengthAdjust="spacing" textLength="135.8589" x="539" y="1052.0029">price_actual: harga real</text><text fill="#000000" font-family="sans-serif" font-size="13" lengthAdjust="spacing" textLength="156.8315" x="539" y="1068.3545">expired_at: tanggal expired</text><polygon fill="#181818" points="1110.8452,1099.5625,1120.8452,1103.5625,1110.8452,1107.5625,1114.8452,1103.5625" style="stroke:#181818;stroke-width:1.0;"/><line style="stroke:#181818;stroke-width:1.0;" x1="528.8115" x2="1116.8452" y1="1103.5625" y2="1103.5625"/><text fill="#000000" font-family="sans-serif" font-size="13" lengthAdjust="spacing" textLength="150.2998" x="535.8115" y="1098.7061">UPDATE expense_details</text><polygon fill="#181818" points="233.3105,1136.9141,243.3105,1140.9141,233.3105,1144.9141,237.3105,1140.9141" style="stroke:#181818;stroke-width:1.0;"/><line style="stroke:#181818;stroke-width:1.0;" x1="34.8481" x2="239.3105" y1="1140.9141" y2="1140.9141"/><text fill="#000000" font-family="sans-serif" font-size="13" lengthAdjust="spacing" textLength="109.1353" x="41.8481" y="1136.0576">Selesaikan belanja</text><rect fill="#EEEEEE" height="3" style="stroke:#EEEEEE;stroke-width:1.0;" width="1361.0186" x="0" y="1170.0898"/><line style="stroke:#000000;stroke-width:1.0;" x1="0" x2="1361.0186" y1="1170.0898" y2="1170.0898"/><line style="stroke:#000000;stroke-width:1.0;" x1="0" x2="1361.0186" y1="1173.0898" y2="1173.0898"/><rect fill="#EEEEEE" height="24.3516" style="stroke:#000000;stroke-width:2.0;" width="119.46" x="620.7793" y="1158.9141"/><text fill="#000000" font-family="sans-serif" font-size="13" font-weight="bold" lengthAdjust="spacing" textLength="101.8481" x="626.7793" y="1176.4092">Buat Batch Baru</text><path d="M182.7764,1200.2656 L255.2109,1200.2656 L255.2109,1208.6172 L245.2109,1218.6172 L182.7764,1218.6172 L182.7764,1200.2656 " fill="#EEEEEE" style="stroke:#000000;stroke-width:1.5;"/><rect fill="none" height="247.5156" style="stroke:#000000;stroke-width:1.5;" width="983.0342" x="182.7764" y="1200.2656"/><text fill="#000000" font-family="sans-serif" font-size="13" font-weight="bold" lengthAdjust="spacing" textLength="27.4346" x="197.7764" y="1214.7607">loop</text><text fill="#000000" font-family="sans-serif" font-size="11" font-weight="bold" lengthAdjust="spacing" textLength="108.7861" x="270.2109" y="1213.6846">[Untuk setiap bahan]</text><polygon fill="#181818" points="702.5386,1264.4961,712.5386,1268.4961,702.5386,1272.4961,706.5386,1268.4961" style="stroke:#181818;stroke-width:1.0;"/><line style="stroke:#181818;stroke-width:1.0;" x1="245.3105" x2="708.5386" y1="1268.4961" y2="1268.4961"/><text fill="#000000" font-family="sans-serif" font-size="13" lengthAdjust="spacing" textLength="109.1226" x="252.3105" y="1263.6396">create(batch_data)</text><path d="M719,1223.6172 L719,1298.6172 L869,1298.6172 L869,1233.6172 L859,1223.6172 L719,1223.6172 " fill="#FEFFDD" style="stroke:#181818;stroke-width:0.5;"/><path d="M859,1223.6172 L859,1233.6172 L869,1233.6172 L859,1223.6172 " fill="#FEFFDD" style="stroke:#181818;stroke-width:0.5;"/><text fill="#000000" font-family="sans-serif" font-size="13" lengthAdjust="spacing" textLength="63.5845" x="725" y="1242.1123">material_id</text><text fill="#000000" font-family="sans-serif" font-size="13" lengthAdjust="spacing" textLength="129.3525" x="725" y="1258.4639">quantity: jumlah aktual</text><text fill="#000000" font-family="sans-serif" font-size="13" lengthAdjust="spacing" textLength="60.709" x="725" y="1274.8154">expired_at</text><text fill="#000000" font-family="sans-serif" font-size="13" lengthAdjust="spacing" textLength="115.6226" x="725" y="1291.167">price: harga per unit</text><polygon fill="#181818" points="1110.8452,1322.375,1120.8452,1326.375,1110.8452,1330.375,1114.8452,1326.375" style="stroke:#181818;stroke-width:1.0;"/><line style="stroke:#181818;stroke-width:1.0;" x1="714.5386" x2="1116.8452" y1="1326.375" y2="1326.375"/><text fill="#000000" font-family="sans-serif" font-size="13" lengthAdjust="spacing" textLength="184.9453" x="721.5386" y="1321.5186">INSERT INTO material_batches</text><polygon fill="#181818" points="725.5386,1352.7266,715.5386,1356.7266,725.5386,1360.7266,721.5386,1356.7266" style="stroke:#181818;stroke-width:1.0;"/><line style="stroke:#181818;stroke-width:1.0;stroke-dasharray:2.0,2.0;" x1="719.5386" x2="1121.8452" y1="1356.7266" y2="1356.7266"/><text fill="#000000" font-family="sans-serif" font-size="13" lengthAdjust="spacing" textLength="78.7744" x="731.5386" y="1351.8701">batch created</text><polygon fill="#181818" points="809.8071,1394.2539,819.8071,1398.2539,809.8071,1402.2539,813.8071,1398.2539" style="stroke:#181818;stroke-width:1.0;"/><line style="stroke:#181818;stroke-width:1.0;" x1="245.3105" x2="815.8071" y1="1398.2539" y2="1398.2539"/><text fill="#000000" font-family="sans-serif" font-size="13" lengthAdjust="spacing" textLength="94.6689" x="252.3105" y="1393.3975">create(log_data)</text><path d="M826,1369.7266 L826,1411.7266 L935,1411.7266 L935,1379.7266 L925,1369.7266 L826,1369.7266 " fill="#FEFFDD" style="stroke:#181818;stroke-width:0.5;"/><path d="M925,1369.7266 L925,1379.7266 L935,1379.7266 L925,1369.7266 " fill="#FEFFDD" style="stroke:#181818;stroke-width:0.5;"/><text fill="#000000" font-family="sans-serif" font-size="13" lengthAdjust="spacing" textLength="88.8037" x="832" y="1388.2217">action: 'belanja'</text><text fill="#000000" font-family="sans-serif" font-size="13" lengthAdjust="spacing" textLength="46.8774" x="832" y="1404.5732">type: 'in'</text><polygon fill="#181818" points="1110.8452,1435.7813,1120.8452,1439.7813,1110.8452,1443.7813,1114.8452,1439.7813" style="stroke:#181818;stroke-width:1.0;"/><line style="stroke:#181818;stroke-width:1.0;" x1="821.8071" x2="1116.8452" y1="1439.7813" y2="1439.7813"/><text fill="#000000" font-family="sans-serif" font-size="13" lengthAdjust="spacing" textLength="169.7744" x="828.8071" y="1434.9248">INSERT INTO inventory_logs</text><rect fill="#EEEEEE" height="3" style="stroke:#EEEEEE;stroke-width:1.0;" width="1361.0186" x="0" y="1475.957"/><line style="stroke:#000000;stroke-width:1.0;" x1="0" x2="1361.0186" y1="1475.957" y2="1475.957"/><line style="stroke:#000000;stroke-width:1.0;" x1="0" x2="1361.0186" y1="1478.957" y2="1478.957"/><rect fill="#EEEEEE" height="24.3516" style="stroke:#000000;stroke-width:2.0;" width="148.3545" x="606.332" y="1464.7813"/><text fill="#000000" font-family="sans-serif" font-size="13" font-weight="bold" lengthAdjust="spacing" textLength="130.7427" x="612.332" y="1482.2764">Update Status Bahan</text><path d="M182.7764,1506.1328 L255.2109,1506.1328 L255.2109,1514.4844 L245.2109,1524.4844 L182.7764,1524.4844 L182.7764,1506.1328 " fill="#EEEEEE" style="stroke:#000000;stroke-width:1.5;"/><rect fill="none" height="109.4063" style="stroke:#000000;stroke-width:1.5;" width="983.0342" x="182.7764" y="1506.1328"/><text fill="#000000" font-family="sans-serif" font-size="13" font-weight="bold" lengthAdjust="spacing" textLength="27.4346" x="197.7764" y="1520.6279">loop</text><text fill="#000000" font-family="sans-serif" font-size="11" font-weight="bold" lengthAdjust="spacing" textLength="108.7861" x="270.2109" y="1519.5518">[Untuk setiap bahan]</text><polygon fill="#181818" points="610.8457,1542.8359,620.8457,1546.8359,610.8457,1550.8359,614.8457,1546.8359" style="stroke:#181818;stroke-width:1.0;"/><line style="stroke:#181818;stroke-width:1.0;" x1="245.3105" x2="616.8457" y1="1546.8359" y2="1546.8359"/><text fill="#000000" font-family="sans-serif" font-size="13" lengthAdjust="spacing" textLength="93.2153" x="252.3105" y="1541.9795">Hitung total stok</text><polygon fill="#181818" points="610.8457,1573.1875,620.8457,1577.1875,610.8457,1581.1875,614.8457,1577.1875" style="stroke:#181818;stroke-width:1.0;"/><line style="stroke:#181818;stroke-width:1.0;" x1="245.3105" x2="616.8457" y1="1577.1875" y2="1577.1875"/><text fill="#000000" font-family="sans-serif" font-size="13" lengthAdjust="spacing" textLength="173.2402" x="252.3105" y="1572.3311">update(['status' =&gt; 'Tersedia'])</text><polygon fill="#181818" points="1110.8452,1603.5391,1120.8452,1607.5391,1110.8452,1611.5391,1114.8452,1607.5391" style="stroke:#181818;stroke-width:1.0;"/><line style="stroke:#181818;stroke-width:1.0;" x1="622.8457" x2="1116.8452" y1="1607.5391" y2="1607.5391"/><text fill="#000000" font-family="sans-serif" font-size="13" lengthAdjust="spacing" textLength="109.0781" x="629.8457" y="1602.6826">UPDATE materials</text><rect fill="#EEEEEE" height="3" style="stroke:#EEEEEE;stroke-width:1.0;" width="1361.0186" x="0" y="1643.7148"/><line style="stroke:#000000;stroke-width:1.0;" x1="0" x2="1361.0186" y1="1643.7148" y2="1643.7148"/><line style="stroke:#000000;stroke-width:1.0;" x1="0" x2="1361.0186" y1="1646.7148" y2="1646.7148"/><rect fill="#EEEEEE" height="24.3516" style="stroke:#000000;stroke-width:2.0;" width="118.7554" x="621.1316" y="1632.5391"/><text fill="#000000" font-family="sans-serif" font-size="13" font-weight="bold" lengthAdjust="spacing" textLength="101.1436" x="627.1316" y="1650.0342">Update Expense</text><polygon fill="#181818" points="420.4326,1696.418,430.4326,1700.418,420.4326,1704.418,424.4326,1700.418" style="stroke:#181818;stroke-width:1.0;"/><line style="stroke:#181818;stroke-width:1.0;" x1="245.3105" x2="426.4326" y1="1700.418" y2="1700.418"/><text fill="#000000" font-family="sans-serif" font-size="13" lengthAdjust="spacing" textLength="104.7998" x="252.3105" y="1695.5615">update(final_data)</text><path d="M437,1671.8906 L437,1713.8906 L635,1713.8906 L635,1681.8906 L625,1671.8906 L437,1671.8906 " fill="#FEFFDD" style="stroke:#181818;stroke-width:0.5;"/><path d="M625,1671.8906 L625,1681.8906 L635,1681.8906 L625,1671.8906 " fill="#FEFFDD" style="stroke:#181818;stroke-width:0.5;"/><text fill="#000000" font-family="sans-serif" font-size="13" lengthAdjust="spacing" textLength="89.5083" x="443" y="1690.3857">status: 'Selesai'</text><text fill="#000000" font-family="sans-serif" font-size="13" lengthAdjust="spacing" textLength="177.0679" x="443" y="1706.7373">grand_total_actual: total aktual</text><polygon fill="#181818" points="1110.8452,1737.9453,1120.8452,1741.9453,1110.8452,1745.9453,1114.8452,1741.9453" style="stroke:#181818;stroke-width:1.0;"/><line style="stroke:#181818;stroke-width:1.0;" x1="432.4326" x2="1116.8452" y1="1741.9453" y2="1741.9453"/><text fill="#000000" font-family="sans-serif" font-size="13" lengthAdjust="spacing" textLength="111.9917" x="439.4326" y="1737.0889">UPDATE expenses</text><polygon fill="#181818" points="443.4326,1768.2969,433.4326,1772.2969,443.4326,1776.2969,439.4326,1772.2969" style="stroke:#181818;stroke-width:1.0;"/><line style="stroke:#181818;stroke-width:1.0;stroke-dasharray:2.0,2.0;" x1="437.4326" x2="1121.8452" y1="1772.2969" y2="1772.2969"/><text fill="#000000" font-family="sans-serif" font-size="13" lengthAdjust="spacing" textLength="46.9917" x="449.4326" y="1767.4404">updated</text><polygon fill="#181818" points="932.248,1798.6484,942.248,1802.6484,932.248,1806.6484,936.248,1802.6484" style="stroke:#181818;stroke-width:1.0;"/><line style="stroke:#181818;stroke-width:1.0;" x1="245.3105" x2="938.248" y1="1802.6484" y2="1802.6484"/><text fill="#000000" font-family="sans-serif" font-size="13" lengthAdjust="spacing" textLength="221.1333" x="252.3105" y="1797.792">expenseCompleted(expense_number)</text><polygon fill="#181818" points="1110.8452,1829,1120.8452,1833,1110.8452,1837,1114.8452,1833" style="stroke:#181818;stroke-width:1.0;"/><line style="stroke:#181818;stroke-width:1.0;" x1="944.248" x2="1116.8452" y1="1833" y2="1833"/><text fill="#000000" font-family="sans-serif" font-size="13" lengthAdjust="spacing" textLength="154.5972" x="951.248" y="1828.1436">INSERT INTO notifications</text><polygon fill="#181818" points="45.8481,1859.3516,35.8481,1863.3516,45.8481,1867.3516,41.8481,1863.3516" style="stroke:#181818;stroke-width:1.0;"/><line style="stroke:#181818;stroke-width:1.0;stroke-dasharray:2.0,2.0;" x1="39.8481" x2="244.3105" y1="1863.3516" y2="1863.3516"/><text fill="#000000" font-family="sans-serif" font-size="13" lengthAdjust="spacing" textLength="177.0552" x="51.8481" y="1858.4951">Belanja selesai, stok terupdate</text><!--SRC=[hLR1Rjim3BtxAuXTd03h3nX8WMKfi09D5pJ9QHq2nbPjDOxaINAt_FqeItBjnFKAh3sqjlGaypq-aiNKI0MtueK9Uk206hQQgQX2PNZAAnG6FjtygPZG35QOiqSnkUClx3TNRFh9mcdJhW-UU1HBcR4ouEpI86x13FBo3EqM-_Wb6gOuzg1XRHWvHvCMNNYpqCS6-gSxcNUXzDe7tal3dtYAXaknPkg5fwm1DkjHXWRtI3ejmWDjBUPHD9l1aXttDHfuO295WJ1d9OfdXDaiidh3rNKGCe5vVK0eiCGZ2Z1ut6C1UuU_1AzuoGlGTLMLdF9siR_nvx6Wo_Pug26ZX-VwM68HHHxcJzXK990gHjfDc7lVMLRJI4Z3GF6yC150s1BrSSzK0bWRUPKpmHGTf7rjqDGwWTYpZMajLoYodP46ovqzdve4cZUec3fmXIWY9ZAm7ug2uIYinJo1s_lrpSE6_co-Xs_hQ367gsxOVkESatDHOBL4SPfapPAUHgMK5Mo5gG-WcU5OEPaeMdWzEXB4pj_K7EWfP7z-rUGPRaujNISwA2UAHrMAJDH22bGvTXInY5OLUkYm3iH235tUZHzRILPa7S6oIJzjqwX13T4J7PjtBoQezLVIkjYx4gZKD3zIZGIlroNoKOyxsuRprfBDcK53rbLc3VaZThwAONODyKf9Sa7yStfkbkrgyMLpyxPFt6tPc5vAfanhBl8Fb2o8aN57r0abJgna6lc111YJwrRpO1yyc9ggfcFNGRHpqZl11aMU4uxeKb_FO28hJKImd4O3HU8S5wfaeDPymZ2r7_SDPBn47BHJ8bZswYFiErQTRH_n3cqxwRFe5yzWJVUzqfQpBRHBeTQlgGhTs2PnRjjwCrJejwfj-lxHLu9YpQ6st-xjsvXOHp_HTZmxao_fU-D2cgwKdHu3jU3cKYN7PS3ZRG1DgCorFLzUdakpuncvACz9qqnjAPSo7oDCIISJqXZnSiT-tPmgeX5p4Ly6JzSFXSx3XD_HDts2ANVRngYmRleASR0pyltv2_zY9F2DcrhaVfvf8mzlGmURsORw9yiusdPcJmRucKz30Yu8X1P8iOyqq2SksdBiYTtEQs_nytaTgi_nyoPxQrZ_V__zAezLoSo7JgpGNBLZ-Bd9afrRBfpeBm00]--></g></svg>