<svg xmlns="http://www.w3.org/2000/svg" xmlns:xlink="http://www.w3.org/1999/xlink" contentStyleType="text/css" height="2575px" preserveAspectRatio="none" style="width:1019px;height:2575px;background:#FFFFFF;" version="1.1" viewBox="0 0 1019 2575" width="1019px" zoomAndPan="magnify"><defs/><g><rect fill="none" height="185.9453" style="stroke:#000000;stroke-width:1.5;" width="972.4077" x="20" y="378.7734"/><rect fill="none" height="554.3516" style="stroke:#000000;stroke-width:1.5;" width="992.4077" x="10" y="1177.75"/><rect fill="none" height="255" style="stroke:#000000;stroke-width:1.5;" width="972.4077" x="20" y="1470.1016"/><rect fill="none" height="155.5938" style="stroke:#000000;stroke-width:1.5;" width="972.4077" x="20" y="2320.4297"/><line style="stroke:#181818;stroke-width:0.5;stroke-dasharray:5.0,5.0;" x1="55" x2="55" y1="82.6094" y2="2493.0234"/><line style="stroke:#181818;stroke-width:0.5;stroke-dasharray:5.0,5.0;" x1="291.3613" x2="291.3613" y1="82.6094" y2="2493.0234"/><line style="stroke:#181818;stroke-width:0.5;stroke-dasharray:5.0,5.0;" x1="498.0161" x2="498.0161" y1="82.6094" y2="2493.0234"/><line style="stroke:#181818;stroke-width:0.5;stroke-dasharray:5.0,5.0;" x1="593.6987" x2="593.6987" y1="82.6094" y2="2493.0234"/><line style="stroke:#181818;stroke-width:0.5;stroke-dasharray:5.0,5.0;" x1="695.1675" x2="695.1675" y1="82.6094" y2="2493.0234"/><line style="stroke:#181818;stroke-width:0.5;stroke-dasharray:5.0,5.0;" x1="948.4771" x2="948.4771" y1="82.6094" y2="2493.0234"/><text fill="#000000" font-family="sans-serif" font-size="14" lengthAdjust="spacing" textLength="45.1172" x="30" y="79.5332">Pemilik</text><ellipse cx="55.5586" cy="13.5" fill="#E2E2F0" rx="8" ry="8" style="stroke:#181818;stroke-width:0.5;"/><path d="M55.5586,21.5 L55.5586,48.5 M42.5586,29.5 L68.5586,29.5 M55.5586,48.5 L42.5586,63.5 M55.5586,48.5 L68.5586,63.5 " fill="none" style="stroke:#181818;stroke-width:0.5;"/><text fill="#000000" font-family="sans-serif" font-size="14" lengthAdjust="spacing" textLength="45.1172" x="30" y="2506.5566">Pemilik</text><ellipse cx="55.5586" cy="2518.1328" fill="#E2E2F0" rx="8" ry="8" style="stroke:#181818;stroke-width:0.5;"/><path d="M55.5586,2526.1328 L55.5586,2553.1328 M42.5586,2534.1328 L68.5586,2534.1328 M55.5586,2553.1328 L42.5586,2568.1328 M55.5586,2553.1328 L68.5586,2568.1328 " fill="none" style="stroke:#181818;stroke-width:0.5;"/><rect fill="#E2E2F0" height="49.2188" rx="2.5" ry="2.5" style="stroke:#181818;stroke-width:0.5;" width="111.2686" x="236.3613" y="32.3906"/><text fill="#000000" font-family="sans-serif" font-size="14" lengthAdjust="spacing" textLength="97.2686" x="243.3613" y="53.9238">Customer Page</text><text fill="#000000" font-family="sans-serif" font-size="14" lengthAdjust="spacing" textLength="60.6758" x="261.6577" y="71.5332">(Livewire)</text><rect fill="#E2E2F0" height="49.2188" rx="2.5" ry="2.5" style="stroke:#181818;stroke-width:0.5;" width="111.2686" x="236.3613" y="2492.0234"/><text fill="#000000" font-family="sans-serif" font-size="14" lengthAdjust="spacing" textLength="97.2686" x="243.3613" y="2513.5566">Customer Page</text><text fill="#000000" font-family="sans-serif" font-size="14" lengthAdjust="spacing" textLength="60.6758" x="261.6577" y="2531.166">(Livewire)</text><rect fill="#E2E2F0" height="49.2188" rx="2.5" ry="2.5" style="stroke:#181818;stroke-width:0.5;" width="74.6826" x="461.0161" y="32.3906"/><text fill="#000000" font-family="sans-serif" font-size="14" lengthAdjust="spacing" textLength="60.6826" x="468.0161" y="53.9238">Customer</text><text fill="#000000" font-family="sans-serif" font-size="14" lengthAdjust="spacing" textLength="38.1309" x="479.292" y="71.5332">Model</text><rect fill="#E2E2F0" height="49.2188" rx="2.5" ry="2.5" style="stroke:#181818;stroke-width:0.5;" width="74.6826" x="461.0161" y="2492.0234"/><text fill="#000000" font-family="sans-serif" font-size="14" lengthAdjust="spacing" textLength="60.6826" x="468.0161" y="2513.5566">Customer</text><text fill="#000000" font-family="sans-serif" font-size="14" lengthAdjust="spacing" textLength="38.1309" x="479.292" y="2531.166">Model</text><rect fill="#E2E2F0" height="49.2188" rx="2.5" ry="2.5" style="stroke:#181818;stroke-width:0.5;" width="96.4688" x="545.6987" y="32.3906"/><text fill="#000000" font-family="sans-serif" font-size="14" lengthAdjust="spacing" textLength="82.4688" x="552.6987" y="53.9238">PointsHistory</text><text fill="#000000" font-family="sans-serif" font-size="14" lengthAdjust="spacing" textLength="38.1309" x="574.8677" y="71.5332">Model</text><rect fill="#E2E2F0" height="49.2188" rx="2.5" ry="2.5" style="stroke:#181818;stroke-width:0.5;" width="96.4688" x="545.6987" y="2492.0234"/><text fill="#000000" font-family="sans-serif" font-size="14" lengthAdjust="spacing" textLength="82.4688" x="552.6987" y="2513.5566">PointsHistory</text><text fill="#000000" font-family="sans-serif" font-size="14" lengthAdjust="spacing" textLength="38.1309" x="574.8677" y="2531.166">Model</text><rect fill="#E2E2F0" height="49.2188" rx="2.5" ry="2.5" style="stroke:#181818;stroke-width:0.5;" width="87.1445" x="652.1675" y="32.3906"/><text fill="#000000" font-family="sans-serif" font-size="14" lengthAdjust="spacing" textLength="73.1445" x="659.1675" y="53.9238">Transaction</text><text fill="#000000" font-family="sans-serif" font-size="14" lengthAdjust="spacing" textLength="38.1309" x="676.6743" y="71.5332">Model</text><rect fill="#E2E2F0" height="49.2188" rx="2.5" ry="2.5" style="stroke:#181818;stroke-width:0.5;" width="87.1445" x="652.1675" y="2492.0234"/><text fill="#000000" font-family="sans-serif" font-size="14" lengthAdjust="spacing" textLength="73.1445" x="659.1675" y="2513.5566">Transaction</text><text fill="#000000" font-family="sans-serif" font-size="14" lengthAdjust="spacing" textLength="38.1309" x="676.6743" y="2531.166">Model</text><text fill="#000000" font-family="sans-serif" font-size="14" lengthAdjust="spacing" textLength="59.9307" x="916.4771" y="79.5332">Database</text><path d="M931.4424,29 C931.4424,19 949.4424,19 949.4424,19 C949.4424,19 967.4424,19 967.4424,29 L967.4424,55 C967.4424,65 949.4424,65 949.4424,65 C949.4424,65 931.4424,65 931.4424,55 L931.4424,29 " fill="#E2E2F0" style="stroke:#181818;stroke-width:1.5;"/><path d="M931.4424,29 C931.4424,39 949.4424,39 949.4424,39 C949.4424,39 967.4424,39 967.4424,29 " fill="none" style="stroke:#181818;stroke-width:1.5;"/><text fill="#000000" font-family="sans-serif" font-size="14" lengthAdjust="spacing" textLength="59.9307" x="916.4771" y="2506.5566">Database</text><path d="M931.4424,2519.6328 C931.4424,2509.6328 949.4424,2509.6328 949.4424,2509.6328 C949.4424,2509.6328 967.4424,2509.6328 967.4424,2519.6328 L967.4424,2545.6328 C967.4424,2555.6328 949.4424,2555.6328 949.4424,2555.6328 C949.4424,2555.6328 931.4424,2555.6328 931.4424,2545.6328 L931.4424,2519.6328 " fill="#E2E2F0" style="stroke:#181818;stroke-width:1.5;"/><path d="M931.4424,2519.6328 C931.4424,2529.6328 949.4424,2529.6328 949.4424,2529.6328 C949.4424,2529.6328 967.4424,2529.6328 967.4424,2519.6328 " fill="none" style="stroke:#181818;stroke-width:1.5;"/><rect fill="#EEEEEE" height="3" style="stroke:#EEEEEE;stroke-width:1.0;" width="1012.4077" x="0" y="113.7852"/><line style="stroke:#000000;stroke-width:1.0;" x1="0" x2="1012.4077" y1="113.7852" y2="113.7852"/><line style="stroke:#000000;stroke-width:1.0;" x1="0" x2="1012.4077" y1="116.7852" y2="116.7852"/><rect fill="#EEEEEE" height="24.3516" style="stroke:#000000;stroke-width:2.0;" width="154.8608" x="428.7734" y="102.6094"/><text fill="#000000" font-family="sans-serif" font-size="13" font-weight="bold" lengthAdjust="spacing" textLength="137.249" x="434.7734" y="120.1045">Menambah Pelanggan</text><polygon fill="#181818" points="279.9956,155.3125,289.9956,159.3125,279.9956,163.3125,283.9956,159.3125" style="stroke:#181818;stroke-width:1.0;"/><line style="stroke:#181818;stroke-width:1.0;" x1="55.5586" x2="285.9956" y1="159.3125" y2="159.3125"/><text fill="#000000" font-family="sans-serif" font-size="13" lengthAdjust="spacing" textLength="147.2593" x="62.5586" y="154.4561">Klik "Tambah Pelanggan"</text><polygon fill="#181818" points="66.5586,185.6641,56.5586,189.6641,66.5586,193.6641,62.5586,189.6641" style="stroke:#181818;stroke-width:1.0;"/><line style="stroke:#181818;stroke-width:1.0;stroke-dasharray:2.0,2.0;" x1="60.5586" x2="290.9956" y1="189.6641" y2="189.6641"/><text fill="#000000" font-family="sans-serif" font-size="13" lengthAdjust="spacing" textLength="89.5781" x="72.5586" y="184.8076">Tampilkan form</text><polygon fill="#181818" points="279.9956,227.1914,289.9956,231.1914,279.9956,235.1914,283.9956,231.1914" style="stroke:#181818;stroke-width:1.0;"/><line style="stroke:#181818;stroke-width:1.0;" x1="55.5586" x2="285.9956" y1="231.1914" y2="231.1914"/><text fill="#000000" font-family="sans-serif" font-size="13" lengthAdjust="spacing" textLength="106.2534" x="62.5586" y="226.335">Isi data pelanggan</text><path d="M296,202.6641 L296,244.6641 L410,244.6641 L410,212.6641 L400,202.6641 L296,202.6641 " fill="#FEFFDD" style="stroke:#181818;stroke-width:0.5;"/><path d="M400,202.6641 L400,212.6641 L410,212.6641 L400,202.6641 " fill="#FEFFDD" style="stroke:#181818;stroke-width:0.5;"/><text fill="#000000" font-family="sans-serif" font-size="13" lengthAdjust="spacing" textLength="42.6182" x="302" y="221.1592">- Nama</text><text fill="#000000" font-family="sans-serif" font-size="13" lengthAdjust="spacing" textLength="93.209" x="302" y="237.5107">- Nomor telepon</text><polygon fill="#181818" points="279.9956,268.7188,289.9956,272.7188,279.9956,276.7188,283.9956,272.7188" style="stroke:#181818;stroke-width:1.0;"/><line style="stroke:#181818;stroke-width:1.0;" x1="55.5586" x2="285.9956" y1="272.7188" y2="272.7188"/><text fill="#000000" font-family="sans-serif" font-size="13" lengthAdjust="spacing" textLength="44.0781" x="62.5586" y="267.8623">Simpan</text><polygon fill="#181818" points="486.3574,299.0703,496.3574,303.0703,486.3574,307.0703,490.3574,303.0703" style="stroke:#181818;stroke-width:1.0;"/><line style="stroke:#181818;stroke-width:1.0;" x1="291.9956" x2="492.3574" y1="303.0703" y2="303.0703"/><text fill="#000000" font-family="sans-serif" font-size="13" lengthAdjust="spacing" textLength="182.3618" x="298.9956" y="298.2139">where('phone', phone)-&gt;exists()</text><polygon fill="#181818" points="937.4424,329.4219,947.4424,333.4219,937.4424,337.4219,941.4424,333.4219" style="stroke:#181818;stroke-width:1.0;"/><line style="stroke:#181818;stroke-width:1.0;" x1="498.3574" x2="943.4424" y1="333.4219" y2="333.4219"/><text fill="#000000" font-family="sans-serif" font-size="13" lengthAdjust="spacing" textLength="278.5034" x="505.3574" y="328.5654">SELECT * FROM customers WHERE phone = ?</text><polygon fill="#181818" points="509.3574,359.7734,499.3574,363.7734,509.3574,367.7734,505.3574,363.7734" style="stroke:#181818;stroke-width:1.0;"/><line style="stroke:#181818;stroke-width:1.0;stroke-dasharray:2.0,2.0;" x1="503.3574" x2="948.4424" y1="363.7734" y2="363.7734"/><text fill="#000000" font-family="sans-serif" font-size="13" lengthAdjust="spacing" textLength="70.8018" x="515.3574" y="358.917">exists check</text><path d="M20,378.7734 L80.1709,378.7734 L80.1709,387.125 L70.1709,397.125 L20,397.125 L20,378.7734 " fill="#EEEEEE" style="stroke:#000000;stroke-width:1.5;"/><rect fill="none" height="185.9453" style="stroke:#000000;stroke-width:1.5;" width="972.4077" x="20" y="378.7734"/><text fill="#000000" font-family="sans-serif" font-size="13" font-weight="bold" lengthAdjust="spacing" textLength="15.1709" x="35" y="393.2686">alt</text><text fill="#000000" font-family="sans-serif" font-size="11" font-weight="bold" lengthAdjust="spacing" textLength="142.3984" x="95.1709" y="392.1924">[Nomor telepon sudah ada]</text><polygon fill="#181818" points="66.5586,415.4766,56.5586,419.4766,66.5586,423.4766,62.5586,419.4766" style="stroke:#181818;stroke-width:1.0;"/><line style="stroke:#181818;stroke-width:1.0;stroke-dasharray:2.0,2.0;" x1="60.5586" x2="290.9956" y1="419.4766" y2="419.4766"/><text fill="#000000" font-family="sans-serif" font-size="13" lengthAdjust="spacing" textLength="212.437" x="72.5586" y="414.6201">Error: Nomor telepon sudah terdaftar</text><line style="stroke:#000000;stroke-width:1.0;stroke-dasharray:2.0,2.0;" x1="20" x2="992.4077" y1="428.4766" y2="428.4766"/><text fill="#000000" font-family="sans-serif" font-size="11" font-weight="bold" lengthAdjust="spacing" textLength="69.6631" x="25" y="439.8955">[Nomor baru]</text><polygon fill="#181818" points="486.3574,461.6641,496.3574,465.6641,486.3574,469.6641,490.3574,465.6641" style="stroke:#181818;stroke-width:1.0;"/><line style="stroke:#181818;stroke-width:1.0;" x1="291.9956" x2="492.3574" y1="465.6641" y2="465.6641"/><text fill="#000000" font-family="sans-serif" font-size="13" lengthAdjust="spacing" textLength="70.0908" x="298.9956" y="460.8076">create(data)</text><polygon fill="#181818" points="937.4424,492.0156,947.4424,496.0156,937.4424,500.0156,941.4424,496.0156" style="stroke:#181818;stroke-width:1.0;"/><line style="stroke:#181818;stroke-width:1.0;" x1="498.3574" x2="943.4424" y1="496.0156" y2="496.0156"/><text fill="#000000" font-family="sans-serif" font-size="13" lengthAdjust="spacing" textLength="214.9126" x="505.3574" y="491.1592">INSERT INTO customers (points = 0)</text><polygon fill="#181818" points="509.3574,522.3672,499.3574,526.3672,509.3574,530.3672,505.3574,526.3672" style="stroke:#181818;stroke-width:1.0;"/><line style="stroke:#181818;stroke-width:1.0;stroke-dasharray:2.0,2.0;" x1="503.3574" x2="948.4424" y1="526.3672" y2="526.3672"/><text fill="#000000" font-family="sans-serif" font-size="13" lengthAdjust="spacing" textLength="100.4326" x="515.3574" y="521.5107">customer created</text><polygon fill="#181818" points="66.5586,552.7188,56.5586,556.7188,66.5586,560.7188,62.5586,556.7188" style="stroke:#181818;stroke-width:1.0;"/><line style="stroke:#181818;stroke-width:1.0;stroke-dasharray:2.0,2.0;" x1="60.5586" x2="290.9956" y1="556.7188" y2="556.7188"/><text fill="#000000" font-family="sans-serif" font-size="13" lengthAdjust="spacing" textLength="189.3569" x="72.5586" y="551.8623">Pelanggan berhasil ditambahkan</text><rect fill="#EEEEEE" height="3" style="stroke:#EEEEEE;stroke-width:1.0;" width="1012.4077" x="0" y="592.8945"/><line style="stroke:#000000;stroke-width:1.0;" x1="0" x2="1012.4077" y1="592.8945" y2="592.8945"/><line style="stroke:#000000;stroke-width:1.0;" x1="0" x2="1012.4077" y1="595.8945" y2="595.8945"/><rect fill="#EEEEEE" height="24.3516" style="stroke:#000000;stroke-width:2.0;" width="170.7554" x="420.8262" y="581.7188"/><text fill="#000000" font-family="sans-serif" font-size="13" font-weight="bold" lengthAdjust="spacing" textLength="153.1436" x="426.8262" y="599.2139">Melihat Detail Pelanggan</text><polygon fill="#181818" points="279.9956,634.4219,289.9956,638.4219,279.9956,642.4219,283.9956,638.4219" style="stroke:#181818;stroke-width:1.0;"/><line style="stroke:#181818;stroke-width:1.0;" x1="55.5586" x2="285.9956" y1="638.4219" y2="638.4219"/><text fill="#000000" font-family="sans-serif" font-size="13" lengthAdjust="spacing" textLength="88.9053" x="62.5586" y="633.5654">Pilih pelanggan</text><polygon fill="#181818" points="486.3574,664.7734,496.3574,668.7734,486.3574,672.7734,490.3574,668.7734" style="stroke:#181818;stroke-width:1.0;"/><line style="stroke:#181818;stroke-width:1.0;" x1="291.9956" x2="492.3574" y1="668.7734" y2="668.7734"/><text fill="#000000" font-family="sans-serif" font-size="13" lengthAdjust="spacing" textLength="39.7363" x="298.9956" y="663.917">find(id)</text><polygon fill="#181818" points="937.4424,695.125,947.4424,699.125,937.4424,703.125,941.4424,699.125" style="stroke:#181818;stroke-width:1.0;"/><line style="stroke:#181818;stroke-width:1.0;" x1="498.3574" x2="943.4424" y1="699.125" y2="699.125"/><text fill="#000000" font-family="sans-serif" font-size="13" lengthAdjust="spacing" textLength="164.6963" x="505.3574" y="694.2686">SELECT * FROM customers</text><polygon fill="#181818" points="509.3574,725.4766,499.3574,729.4766,509.3574,733.4766,505.3574,729.4766" style="stroke:#181818;stroke-width:1.0;"/><line style="stroke:#181818;stroke-width:1.0;stroke-dasharray:2.0,2.0;" x1="503.3574" x2="948.4424" y1="729.4766" y2="729.4766"/><text fill="#000000" font-family="sans-serif" font-size="13" lengthAdjust="spacing" textLength="82.3735" x="515.3574" y="724.6201">customer data</text><polygon fill="#181818" points="581.9331,755.8281,591.9331,759.8281,581.9331,763.8281,585.9331,759.8281" style="stroke:#181818;stroke-width:1.0;"/><line style="stroke:#181818;stroke-width:1.0;" x1="291.9956" x2="587.9331" y1="759.8281" y2="759.8281"/><text fill="#000000" font-family="sans-serif" font-size="13" lengthAdjust="spacing" textLength="237.2754" x="298.9956" y="754.9717">where('phone', customer.phone)-&gt;latest()</text><polygon fill="#181818" points="937.4424,786.1797,947.4424,790.1797,937.4424,794.1797,941.4424,790.1797" style="stroke:#181818;stroke-width:1.0;"/><line style="stroke:#181818;stroke-width:1.0;" x1="593.9331" x2="943.4424" y1="790.1797" y2="790.1797"/><text fill="#000000" font-family="sans-serif" font-size="13" lengthAdjust="spacing" textLength="195.0635" x="600.9331" y="785.3232">SELECT * FROM points_histories</text><polygon fill="#181818" points="604.9331,816.5313,594.9331,820.5313,604.9331,824.5313,600.9331,820.5313" style="stroke:#181818;stroke-width:1.0;"/><line style="stroke:#181818;stroke-width:1.0;stroke-dasharray:2.0,2.0;" x1="598.9331" x2="948.4424" y1="820.5313" y2="820.5313"/><text fill="#000000" font-family="sans-serif" font-size="13" lengthAdjust="spacing" textLength="76.5908" x="610.9331" y="815.6748">points history</text><polygon fill="#181818" points="683.7397,846.8828,693.7397,850.8828,683.7397,854.8828,687.7397,850.8828" style="stroke:#181818;stroke-width:1.0;"/><line style="stroke:#181818;stroke-width:1.0;" x1="291.9956" x2="689.7397" y1="850.8828" y2="850.8828"/><text fill="#000000" font-family="sans-serif" font-size="13" lengthAdjust="spacing" textLength="188.8301" x="298.9956" y="846.0264">where('customer_id', id)-&gt;latest()</text><polygon fill="#181818" points="937.4424,877.2344,947.4424,881.2344,937.4424,885.2344,941.4424,881.2344" style="stroke:#181818;stroke-width:1.0;"/><line style="stroke:#181818;stroke-width:1.0;" x1="695.7397" x2="943.4424" y1="881.2344" y2="881.2344"/><text fill="#000000" font-family="sans-serif" font-size="13" lengthAdjust="spacing" textLength="174.8271" x="702.7397" y="876.3779">SELECT * FROM transactions</text><polygon fill="#181818" points="706.7397,907.5859,696.7397,911.5859,706.7397,915.5859,702.7397,911.5859" style="stroke:#181818;stroke-width:1.0;"/><line style="stroke:#181818;stroke-width:1.0;stroke-dasharray:2.0,2.0;" x1="700.7397" x2="948.4424" y1="911.5859" y2="911.5859"/><text fill="#000000" font-family="sans-serif" font-size="13" lengthAdjust="spacing" textLength="89.5908" x="712.7397" y="906.7295">transactions list</text><polygon fill="#181818" points="66.5586,965.4648,56.5586,969.4648,66.5586,973.4648,62.5586,969.4648" style="stroke:#181818;stroke-width:1.0;"/><line style="stroke:#181818;stroke-width:1.0;stroke-dasharray:2.0,2.0;" x1="60.5586" x2="290.9956" y1="969.4648" y2="969.4648"/><text fill="#000000" font-family="sans-serif" font-size="13" lengthAdjust="spacing" textLength="158.9961" x="72.5586" y="964.6084">Tampilkan detail pelanggan</text><path d="M296,924.5859 L296,999.5859 L426,999.5859 L426,934.5859 L416,924.5859 L296,924.5859 " fill="#FEFFDD" style="stroke:#181818;stroke-width:0.5;"/><path d="M416,924.5859 L416,934.5859 L426,934.5859 L416,924.5859 " fill="#FEFFDD" style="stroke:#181818;stroke-width:0.5;"/><text fill="#000000" font-family="sans-serif" font-size="13" lengthAdjust="spacing" textLength="93.9644" x="302" y="943.0811">- Info pelanggan</text><text fill="#000000" font-family="sans-serif" font-size="13" lengthAdjust="spacing" textLength="65.0317" x="302" y="959.4326">- Total poin</text><text fill="#000000" font-family="sans-serif" font-size="13" lengthAdjust="spacing" textLength="82.3672" x="302" y="975.7842">- Riwayat poin</text><text fill="#000000" font-family="sans-serif" font-size="13" lengthAdjust="spacing" textLength="109.8081" x="302" y="992.1357">- Riwayat transaksi</text><rect fill="#EEEEEE" height="3" style="stroke:#EEEEEE;stroke-width:1.0;" width="1012.4077" x="0" y="1026.168"/><line style="stroke:#000000;stroke-width:1.0;" x1="0" x2="1012.4077" y1="1026.168" y2="1026.168"/><line style="stroke:#000000;stroke-width:1.0;" x1="0" x2="1012.4077" y1="1029.168" y2="1029.168"/><rect fill="#EEEEEE" height="24.3516" style="stroke:#000000;stroke-width:2.0;" width="242.96" x="384.7239" y="1014.9922"/><text fill="#000000" font-family="sans-serif" font-size="13" font-weight="bold" lengthAdjust="spacing" textLength="225.3481" x="390.7239" y="1032.4873">Menambah/Mengurangi Poin Manual</text><polygon fill="#181818" points="279.9956,1067.6953,289.9956,1071.6953,279.9956,1075.6953,283.9956,1071.6953" style="stroke:#181818;stroke-width:1.0;"/><line style="stroke:#181818;stroke-width:1.0;" x1="55.5586" x2="285.9956" y1="1071.6953" y2="1071.6953"/><text fill="#000000" font-family="sans-serif" font-size="13" lengthAdjust="spacing" textLength="90.8794" x="62.5586" y="1066.8389">Pilih "Atur Poin"</text><polygon fill="#181818" points="279.9956,1098.0469,289.9956,1102.0469,279.9956,1106.0469,283.9956,1102.0469" style="stroke:#181818;stroke-width:1.0;"/><line style="stroke:#181818;stroke-width:1.0;" x1="55.5586" x2="285.9956" y1="1102.0469" y2="1102.0469"/><text fill="#000000" font-family="sans-serif" font-size="13" lengthAdjust="spacing" textLength="150.2871" x="62.5586" y="1097.1904">Pilih aksi (tambah/kurang)</text><polygon fill="#181818" points="279.9956,1128.3984,289.9956,1132.3984,279.9956,1136.3984,283.9956,1132.3984" style="stroke:#181818;stroke-width:1.0;"/><line style="stroke:#181818;stroke-width:1.0;" x1="55.5586" x2="285.9956" y1="1132.3984" y2="1132.3984"/><text fill="#000000" font-family="sans-serif" font-size="13" lengthAdjust="spacing" textLength="129.3462" x="62.5586" y="1127.542">Masukkan jumlah poin</text><polygon fill="#181818" points="279.9956,1158.75,289.9956,1162.75,279.9956,1166.75,283.9956,1162.75" style="stroke:#181818;stroke-width:1.0;"/><line style="stroke:#181818;stroke-width:1.0;" x1="55.5586" x2="285.9956" y1="1162.75" y2="1162.75"/><text fill="#000000" font-family="sans-serif" font-size="13" lengthAdjust="spacing" textLength="101.1689" x="62.5586" y="1157.8936">Masukkan alasan</text><path d="M10,1177.75 L70.1709,1177.75 L70.1709,1186.1016 L60.1709,1196.1016 L10,1196.1016 L10,1177.75 " fill="#EEEEEE" style="stroke:#000000;stroke-width:1.5;"/><rect fill="none" height="554.3516" style="stroke:#000000;stroke-width:1.5;" width="992.4077" x="10" y="1177.75"/><text fill="#000000" font-family="sans-serif" font-size="13" font-weight="bold" lengthAdjust="spacing" textLength="15.1709" x="25" y="1192.2451">alt</text><text fill="#000000" font-family="sans-serif" font-size="11" font-weight="bold" lengthAdjust="spacing" textLength="76.3877" x="85.1709" y="1191.1689">[Tambah Poin]</text><polygon fill="#181818" points="486.3574,1214.4531,496.3574,1218.4531,486.3574,1222.4531,490.3574,1218.4531" style="stroke:#181818;stroke-width:1.0;"/><line style="stroke:#181818;stroke-width:1.0;" x1="291.9956" x2="492.3574" y1="1218.4531" y2="1218.4531"/><text fill="#000000" font-family="sans-serif" font-size="13" lengthAdjust="spacing" textLength="155.9746" x="298.9956" y="1213.5967">increment('points', amount)</text><polygon fill="#181818" points="937.4424,1244.8047,947.4424,1248.8047,937.4424,1252.8047,941.4424,1248.8047" style="stroke:#181818;stroke-width:1.0;"/><line style="stroke:#181818;stroke-width:1.0;" x1="498.3574" x2="943.4424" y1="1248.8047" y2="1248.8047"/><text fill="#000000" font-family="sans-serif" font-size="13" lengthAdjust="spacing" textLength="291.1797" x="505.3574" y="1243.9482">UPDATE customers SET points = points + amount</text><polygon fill="#181818" points="509.3574,1275.1563,499.3574,1279.1563,509.3574,1283.1563,505.3574,1279.1563" style="stroke:#181818;stroke-width:1.0;"/><line style="stroke:#181818;stroke-width:1.0;stroke-dasharray:2.0,2.0;" x1="503.3574" x2="948.4424" y1="1279.1563" y2="1279.1563"/><text fill="#000000" font-family="sans-serif" font-size="13" lengthAdjust="spacing" textLength="46.9917" x="515.3574" y="1274.2998">updated</text><polygon fill="#181818" points="581.9331,1324.8594,591.9331,1328.8594,581.9331,1332.8594,585.9331,1328.8594" style="stroke:#181818;stroke-width:1.0;"/><line style="stroke:#181818;stroke-width:1.0;" x1="291.9956" x2="587.9331" y1="1328.8594" y2="1328.8594"/><text fill="#000000" font-family="sans-serif" font-size="13" lengthAdjust="spacing" textLength="106.9263" x="298.9956" y="1324.0029">create(addHistory)</text><path d="M598,1292.1563 L598,1351.1563 L737,1351.1563 L737,1302.1563 L727,1292.1563 L598,1292.1563 " fill="#FEFFDD" style="stroke:#181818;stroke-width:0.5;"/><path d="M727,1292.1563 L727,1302.1563 L737,1302.1563 L727,1292.1563 " fill="#FEFFDD" style="stroke:#181818;stroke-width:0.5;"/><text fill="#000000" font-family="sans-serif" font-size="13" lengthAdjust="spacing" textLength="118.4346" x="604" y="1310.6514">action: 'manual_add'</text><text fill="#000000" font-family="sans-serif" font-size="13" lengthAdjust="spacing" textLength="92.8662" x="604" y="1327.0029">points: +amount</text><text fill="#000000" font-family="sans-serif" font-size="13" lengthAdjust="spacing" textLength="108.3989" x="604" y="1343.3545">description: alasan</text><polygon fill="#181818" points="937.4424,1374.5625,947.4424,1378.5625,937.4424,1382.5625,941.4424,1378.5625" style="stroke:#181818;stroke-width:1.0;"/><line style="stroke:#181818;stroke-width:1.0;" x1="593.9331" x2="943.4424" y1="1378.5625" y2="1378.5625"/><text fill="#000000" font-family="sans-serif" font-size="13" lengthAdjust="spacing" textLength="176.2744" x="600.9331" y="1373.7061">INSERT INTO points_histories</text><line style="stroke:#000000;stroke-width:1.0;stroke-dasharray:2.0,2.0;" x1="10" x2="1002.4077" y1="1387.5625" y2="1387.5625"/><text fill="#000000" font-family="sans-serif" font-size="11" font-weight="bold" lengthAdjust="spacing" textLength="75.77" x="15" y="1398.9814">[Kurangi Poin]</text><polygon fill="#181818" points="486.3574,1420.75,496.3574,1424.75,486.3574,1428.75,490.3574,1424.75" style="stroke:#181818;stroke-width:1.0;"/><line style="stroke:#181818;stroke-width:1.0;" x1="291.9956" x2="492.3574" y1="1424.75" y2="1424.75"/><text fill="#000000" font-family="sans-serif" font-size="13" lengthAdjust="spacing" textLength="39.7363" x="298.9956" y="1419.8936">find(id)</text><polygon fill="#181818" points="302.9956,1451.1016,292.9956,1455.1016,302.9956,1459.1016,298.9956,1455.1016" style="stroke:#181818;stroke-width:1.0;"/><line style="stroke:#181818;stroke-width:1.0;stroke-dasharray:2.0,2.0;" x1="296.9956" x2="497.3574" y1="1455.1016" y2="1455.1016"/><text fill="#000000" font-family="sans-serif" font-size="13" lengthAdjust="spacing" textLength="78.7617" x="308.9956" y="1450.2451">current points</text><path d="M20,1470.1016 L80.1709,1470.1016 L80.1709,1478.4531 L70.1709,1488.4531 L20,1488.4531 L20,1470.1016 " fill="#EEEEEE" style="stroke:#000000;stroke-width:1.5;"/><rect fill="none" height="255" style="stroke:#000000;stroke-width:1.5;" width="972.4077" x="20" y="1470.1016"/><text fill="#000000" font-family="sans-serif" font-size="13" font-weight="bold" lengthAdjust="spacing" textLength="15.1709" x="35" y="1484.5967">alt</text><text fill="#000000" font-family="sans-serif" font-size="11" font-weight="bold" lengthAdjust="spacing" textLength="66.6069" x="95.1709" y="1483.5205">[Poin cukup]</text><polygon fill="#181818" points="486.3574,1506.8047,496.3574,1510.8047,486.3574,1514.8047,490.3574,1510.8047" style="stroke:#181818;stroke-width:1.0;"/><line style="stroke:#181818;stroke-width:1.0;" x1="291.9956" x2="492.3574" y1="1510.8047" y2="1510.8047"/><text fill="#000000" font-family="sans-serif" font-size="13" lengthAdjust="spacing" textLength="160.3164" x="298.9956" y="1505.9482">decrement('points', amount)</text><polygon fill="#181818" points="937.4424,1537.1563,947.4424,1541.1563,937.4424,1545.1563,941.4424,1541.1563" style="stroke:#181818;stroke-width:1.0;"/><line style="stroke:#181818;stroke-width:1.0;" x1="498.3574" x2="943.4424" y1="1541.1563" y2="1541.1563"/><text fill="#000000" font-family="sans-serif" font-size="13" lengthAdjust="spacing" textLength="287.917" x="505.3574" y="1536.2998">UPDATE customers SET points = points - amount</text><polygon fill="#181818" points="509.3574,1567.5078,499.3574,1571.5078,509.3574,1575.5078,505.3574,1571.5078" style="stroke:#181818;stroke-width:1.0;"/><line style="stroke:#181818;stroke-width:1.0;stroke-dasharray:2.0,2.0;" x1="503.3574" x2="948.4424" y1="1571.5078" y2="1571.5078"/><text fill="#000000" font-family="sans-serif" font-size="13" lengthAdjust="spacing" textLength="46.9917" x="515.3574" y="1566.6514">updated</text><polygon fill="#181818" points="581.9331,1617.2109,591.9331,1621.2109,581.9331,1625.2109,585.9331,1621.2109" style="stroke:#181818;stroke-width:1.0;"/><line style="stroke:#181818;stroke-width:1.0;" x1="291.9956" x2="587.9331" y1="1621.2109" y2="1621.2109"/><text fill="#000000" font-family="sans-serif" font-size="13" lengthAdjust="spacing" textLength="124.2681" x="298.9956" y="1616.3545">create(deductHistory)</text><path d="M598,1584.5078 L598,1643.5078 L754,1643.5078 L754,1594.5078 L744,1584.5078 L598,1584.5078 " fill="#FEFFDD" style="stroke:#181818;stroke-width:0.5;"/><path d="M744,1584.5078 L744,1594.5078 L754,1594.5078 L744,1584.5078 " fill="#FEFFDD" style="stroke:#181818;stroke-width:0.5;"/><text fill="#000000" font-family="sans-serif" font-size="13" lengthAdjust="spacing" textLength="135.7764" x="604" y="1603.0029">action: 'manual_deduct'</text><text fill="#000000" font-family="sans-serif" font-size="13" lengthAdjust="spacing" textLength="89.6035" x="604" y="1619.3545">points: -amount</text><text fill="#000000" font-family="sans-serif" font-size="13" lengthAdjust="spacing" textLength="108.3989" x="604" y="1635.7061">description: alasan</text><polygon fill="#181818" points="937.4424,1666.9141,947.4424,1670.9141,937.4424,1674.9141,941.4424,1670.9141" style="stroke:#181818;stroke-width:1.0;"/><line style="stroke:#181818;stroke-width:1.0;" x1="593.9331" x2="943.4424" y1="1670.9141" y2="1670.9141"/><text fill="#000000" font-family="sans-serif" font-size="13" lengthAdjust="spacing" textLength="176.2744" x="600.9331" y="1666.0576">INSERT INTO points_histories</text><line style="stroke:#000000;stroke-width:1.0;stroke-dasharray:2.0,2.0;" x1="20" x2="992.4077" y1="1679.9141" y2="1679.9141"/><text fill="#000000" font-family="sans-serif" font-size="11" font-weight="bold" lengthAdjust="spacing" textLength="95.3369" x="25" y="1691.333">[Poin tidak cukup]</text><polygon fill="#181818" points="66.5586,1713.1016,56.5586,1717.1016,66.5586,1721.1016,62.5586,1717.1016" style="stroke:#181818;stroke-width:1.0;"/><line style="stroke:#181818;stroke-width:1.0;stroke-dasharray:2.0,2.0;" x1="60.5586" x2="290.9956" y1="1717.1016" y2="1717.1016"/><text fill="#000000" font-family="sans-serif" font-size="13" lengthAdjust="spacing" textLength="159.6816" x="72.5586" y="1712.2451">Error: Poin tidak mencukupi</text><polygon fill="#181818" points="66.5586,1757.4531,56.5586,1761.4531,66.5586,1765.4531,62.5586,1761.4531" style="stroke:#181818;stroke-width:1.0;"/><line style="stroke:#181818;stroke-width:1.0;stroke-dasharray:2.0,2.0;" x1="60.5586" x2="290.9956" y1="1761.4531" y2="1761.4531"/><text fill="#000000" font-family="sans-serif" font-size="13" lengthAdjust="spacing" textLength="128.6479" x="72.5586" y="1756.5967">Poin berhasil diupdate</text><rect fill="#EEEEEE" height="3" style="stroke:#EEEEEE;stroke-width:1.0;" width="1012.4077" x="0" y="1790.6289"/><line style="stroke:#000000;stroke-width:1.0;" x1="0" x2="1012.4077" y1="1790.6289" y2="1790.6289"/><line style="stroke:#000000;stroke-width:1.0;" x1="0" x2="1012.4077" y1="1793.6289" y2="1793.6289"/><rect fill="#EEEEEE" height="24.3516" style="stroke:#000000;stroke-width:2.0;" width="144.0127" x="434.1975" y="1779.4531"/><text fill="#000000" font-family="sans-serif" font-size="13" font-weight="bold" lengthAdjust="spacing" textLength="126.4009" x="440.1975" y="1796.9482">Mengedit Pelanggan</text><polygon fill="#181818" points="279.9956,1832.1563,289.9956,1836.1563,279.9956,1840.1563,283.9956,1836.1563" style="stroke:#181818;stroke-width:1.0;"/><line style="stroke:#181818;stroke-width:1.0;" x1="55.5586" x2="285.9956" y1="1836.1563" y2="1836.1563"/><text fill="#000000" font-family="sans-serif" font-size="13" lengthAdjust="spacing" textLength="49.1372" x="62.5586" y="1831.2998">Pilih edit</text><polygon fill="#181818" points="486.3574,1862.5078,496.3574,1866.5078,486.3574,1870.5078,490.3574,1866.5078" style="stroke:#181818;stroke-width:1.0;"/><line style="stroke:#181818;stroke-width:1.0;" x1="291.9956" x2="492.3574" y1="1866.5078" y2="1866.5078"/><text fill="#000000" font-family="sans-serif" font-size="13" lengthAdjust="spacing" textLength="39.7363" x="298.9956" y="1861.6514">find(id)</text><polygon fill="#181818" points="302.9956,1892.8594,292.9956,1896.8594,302.9956,1900.8594,298.9956,1896.8594" style="stroke:#181818;stroke-width:1.0;"/><line style="stroke:#181818;stroke-width:1.0;stroke-dasharray:2.0,2.0;" x1="296.9956" x2="497.3574" y1="1896.8594" y2="1896.8594"/><text fill="#000000" font-family="sans-serif" font-size="13" lengthAdjust="spacing" textLength="82.3735" x="308.9956" y="1892.0029">customer data</text><polygon fill="#181818" points="66.5586,1923.2109,56.5586,1927.2109,66.5586,1931.2109,62.5586,1927.2109" style="stroke:#181818;stroke-width:1.0;"/><line style="stroke:#181818;stroke-width:1.0;stroke-dasharray:2.0,2.0;" x1="60.5586" x2="290.9956" y1="1927.2109" y2="1927.2109"/><text fill="#000000" font-family="sans-serif" font-size="13" lengthAdjust="spacing" textLength="114.1499" x="72.5586" y="1922.3545">Tampilkan form edit</text><polygon fill="#181818" points="279.9956,1953.5625,289.9956,1957.5625,279.9956,1961.5625,283.9956,1957.5625" style="stroke:#181818;stroke-width:1.0;"/><line style="stroke:#181818;stroke-width:1.0;" x1="55.5586" x2="285.9956" y1="1957.5625" y2="1957.5625"/><text fill="#000000" font-family="sans-serif" font-size="13" lengthAdjust="spacing" textLength="59.9917" x="62.5586" y="1952.7061">Ubah data</text><polygon fill="#181818" points="279.9956,1983.9141,289.9956,1987.9141,279.9956,1991.9141,283.9956,1987.9141" style="stroke:#181818;stroke-width:1.0;"/><line style="stroke:#181818;stroke-width:1.0;" x1="55.5586" x2="285.9956" y1="1987.9141" y2="1987.9141"/><text fill="#000000" font-family="sans-serif" font-size="13" lengthAdjust="spacing" textLength="44.0781" x="62.5586" y="1983.0576">Simpan</text><polygon fill="#181818" points="486.3574,2014.2656,496.3574,2018.2656,486.3574,2022.2656,490.3574,2018.2656" style="stroke:#181818;stroke-width:1.0;"/><line style="stroke:#181818;stroke-width:1.0;" x1="291.9956" x2="492.3574" y1="2018.2656" y2="2018.2656"/><text fill="#000000" font-family="sans-serif" font-size="13" lengthAdjust="spacing" textLength="73.7217" x="298.9956" y="2013.4092">update(data)</text><polygon fill="#181818" points="937.4424,2044.6172,947.4424,2048.6172,937.4424,2052.6172,941.4424,2048.6172" style="stroke:#181818;stroke-width:1.0;"/><line style="stroke:#181818;stroke-width:1.0;" x1="498.3574" x2="943.4424" y1="2048.6172" y2="2048.6172"/><text fill="#000000" font-family="sans-serif" font-size="13" lengthAdjust="spacing" textLength="116.3018" x="505.3574" y="2043.7607">UPDATE customers</text><polygon fill="#181818" points="509.3574,2074.9688,499.3574,2078.9688,509.3574,2082.9688,505.3574,2078.9688" style="stroke:#181818;stroke-width:1.0;"/><line style="stroke:#181818;stroke-width:1.0;stroke-dasharray:2.0,2.0;" x1="503.3574" x2="948.4424" y1="2078.9688" y2="2078.9688"/><text fill="#000000" font-family="sans-serif" font-size="13" lengthAdjust="spacing" textLength="46.9917" x="515.3574" y="2074.1123">updated</text><polygon fill="#181818" points="66.5586,2105.3203,56.5586,2109.3203,66.5586,2113.3203,62.5586,2109.3203" style="stroke:#181818;stroke-width:1.0;"/><line style="stroke:#181818;stroke-width:1.0;stroke-dasharray:2.0,2.0;" x1="60.5586" x2="290.9956" y1="2109.3203" y2="2109.3203"/><text fill="#000000" font-family="sans-serif" font-size="13" lengthAdjust="spacing" textLength="164.7979" x="72.5586" y="2104.4639">Pelanggan berhasil diupdate</text><rect fill="#EEEEEE" height="3" style="stroke:#EEEEEE;stroke-width:1.0;" width="1012.4077" x="0" y="2138.4961"/><line style="stroke:#000000;stroke-width:1.0;" x1="0" x2="1012.4077" y1="2138.4961" y2="2138.4961"/><line style="stroke:#000000;stroke-width:1.0;" x1="0" x2="1012.4077" y1="2141.4961" y2="2141.4961"/><rect fill="#EEEEEE" height="24.3516" style="stroke:#000000;stroke-width:2.0;" width="159.1836" x="426.6121" y="2127.3203"/><text fill="#000000" font-family="sans-serif" font-size="13" font-weight="bold" lengthAdjust="spacing" textLength="141.5718" x="432.6121" y="2144.8154">Menghapus Pelanggan</text><polygon fill="#181818" points="279.9956,2180.0234,289.9956,2184.0234,279.9956,2188.0234,283.9956,2184.0234" style="stroke:#181818;stroke-width:1.0;"/><line style="stroke:#181818;stroke-width:1.0;" x1="55.5586" x2="285.9956" y1="2184.0234" y2="2184.0234"/><text fill="#000000" font-family="sans-serif" font-size="13" lengthAdjust="spacing" textLength="63.5972" x="62.5586" y="2179.167">Pilih hapus</text><polygon fill="#181818" points="66.5586,2210.375,56.5586,2214.375,66.5586,2218.375,62.5586,2214.375" style="stroke:#181818;stroke-width:1.0;"/><line style="stroke:#181818;stroke-width:1.0;stroke-dasharray:2.0,2.0;" x1="60.5586" x2="290.9956" y1="2214.375" y2="2214.375"/><text fill="#000000" font-family="sans-serif" font-size="13" lengthAdjust="spacing" textLength="107.6689" x="72.5586" y="2209.5186">Konfirmasi hapus?</text><polygon fill="#181818" points="279.9956,2240.7266,289.9956,2244.7266,279.9956,2248.7266,283.9956,2244.7266" style="stroke:#181818;stroke-width:1.0;"/><line style="stroke:#181818;stroke-width:1.0;" x1="55.5586" x2="285.9956" y1="2244.7266" y2="2244.7266"/><text fill="#000000" font-family="sans-serif" font-size="13" lengthAdjust="spacing" textLength="61.4072" x="62.5586" y="2239.8701">Konfirmasi</text><polygon fill="#181818" points="683.7397,2271.0781,693.7397,2275.0781,683.7397,2279.0781,687.7397,2275.0781" style="stroke:#181818;stroke-width:1.0;"/><line style="stroke:#181818;stroke-width:1.0;" x1="291.9956" x2="689.7397" y1="2275.0781" y2="2275.0781"/><text fill="#000000" font-family="sans-serif" font-size="13" lengthAdjust="spacing" textLength="190.9883" x="298.9956" y="2270.2217">where('customer_id', id)-&gt;exists()</text><polygon fill="#181818" points="937.4424,2301.4297,947.4424,2305.4297,937.4424,2309.4297,941.4424,2305.4297" style="stroke:#181818;stroke-width:1.0;"/><line style="stroke:#181818;stroke-width:1.0;" x1="695.7397" x2="943.4424" y1="2305.4297" y2="2305.4297"/><text fill="#000000" font-family="sans-serif" font-size="13" lengthAdjust="spacing" textLength="229.7026" x="702.7397" y="2300.5732">SELECT COUNT(*) FROM transactions</text><path d="M20,2320.4297 L80.1709,2320.4297 L80.1709,2328.7813 L70.1709,2338.7813 L20,2338.7813 L20,2320.4297 " fill="#EEEEEE" style="stroke:#000000;stroke-width:1.5;"/><rect fill="none" height="155.5938" style="stroke:#000000;stroke-width:1.5;" width="972.4077" x="20" y="2320.4297"/><text fill="#000000" font-family="sans-serif" font-size="13" font-weight="bold" lengthAdjust="spacing" textLength="15.1709" x="35" y="2334.9248">alt</text><text fill="#000000" font-family="sans-serif" font-size="11" font-weight="bold" lengthAdjust="spacing" textLength="149.7622" x="95.1709" y="2333.8486">[Pelanggan punya transaksi]</text><polygon fill="#181818" points="66.5586,2357.1328,56.5586,2361.1328,66.5586,2365.1328,62.5586,2361.1328" style="stroke:#181818;stroke-width:1.0;"/><line style="stroke:#181818;stroke-width:1.0;stroke-dasharray:2.0,2.0;" x1="60.5586" x2="290.9956" y1="2361.1328" y2="2361.1328"/><text fill="#000000" font-family="sans-serif" font-size="13" lengthAdjust="spacing" textLength="205.9624" x="72.5586" y="2356.2764">Error: Pelanggan tidak bisa dihapus</text><line style="stroke:#000000;stroke-width:1.0;stroke-dasharray:2.0,2.0;" x1="20" x2="992.4077" y1="2370.1328" y2="2370.1328"/><text fill="#000000" font-family="sans-serif" font-size="11" font-weight="bold" lengthAdjust="spacing" textLength="109.4307" x="25" y="2381.5518">[Tidak ada transaksi]</text><polygon fill="#181818" points="486.3574,2403.3203,496.3574,2407.3203,486.3574,2411.3203,490.3574,2407.3203" style="stroke:#181818;stroke-width:1.0;"/><line style="stroke:#181818;stroke-width:1.0;" x1="291.9956" x2="492.3574" y1="2407.3203" y2="2407.3203"/><text fill="#000000" font-family="sans-serif" font-size="13" lengthAdjust="spacing" textLength="54.1963" x="298.9956" y="2402.4639">delete(id)</text><polygon fill="#181818" points="937.4424,2433.6719,947.4424,2437.6719,937.4424,2441.6719,941.4424,2437.6719" style="stroke:#181818;stroke-width:1.0;"/><line style="stroke:#181818;stroke-width:1.0;" x1="498.3574" x2="943.4424" y1="2437.6719" y2="2437.6719"/><text fill="#000000" font-family="sans-serif" font-size="13" lengthAdjust="spacing" textLength="156.0254" x="505.3574" y="2432.8154">DELETE FROM customers</text><polygon fill="#181818" points="66.5586,2464.0234,56.5586,2468.0234,66.5586,2472.0234,62.5586,2468.0234" style="stroke:#181818;stroke-width:1.0;"/><line style="stroke:#181818;stroke-width:1.0;stroke-dasharray:2.0,2.0;" x1="60.5586" x2="290.9956" y1="2468.0234" y2="2468.0234"/><text fill="#000000" font-family="sans-serif" font-size="13" lengthAdjust="spacing" textLength="160.4561" x="72.5586" y="2463.167">Pelanggan berhasil dihapus</text><!--SRC=[dLR1Rjiu4BtpAmQ-s6xNxPu3E4KJUz4WTH8a2def48n5sc8jKG95RJP_lqDIaYbBTjpc4fbyCvoPzuP3Z4skuK5aCfKxLg0sCfO5AWEZwweqUIPe5xVYfvfyb_-ALwd5T0HOkiLX_4-rohb87QfPwo8VSgbC-KtIdduBuNwZ2uuqgX9Z8tCLGeDbnj7W6ai1Y-Q308ihnkPpM0c5sHeJoZ55jTsYWlcSrGd3xD8bSW6tzjSeEe2EcDs5cOLvYmiWJ27J7VdPv3fZVLStfGGR4HID6wPo8q3BRM8Om0pkC4F_aMTKVIDIKL0QGd6mo06VJpAZQh0wdCkshXVmcWWj9kCYoPKO_mNk_tHsAVwZwfQJAMjP9Al55NbQVbzUH_01_dcyNq5SxvRmuzloSUdDOGvVsEBAfRq_o7k4E17nZZ5CJJTwA2jEfKDkCmFerssfTKvkXeoCq1mt1ZKJAP7d8MlKLU0g32NM0esOs29F7UGmoPkxf-LZHF-Y-o35IU7aHUdzxSrwEJRO-WH-99MzbDP29rZA5BWqJZka2yjZBRrK9cXW8GmIvBG07-Xd4aYcd_L6AZwH_6nAsV7qRENsOl9TrvDIW_xKQ2gbafI6DEKDXe_tDNv9N7DBqKRH759puFVVza44_Tn6qaJm8Zd5Gwa7CGJuuK3C7j06qJaa141AyR2JtSuzYqUR-aPjyc3NBaMvmTHbx7u-obTy8ptq5dmakr86Lq1mTNscZsr5cArqPOGLgeeS7vVHwAkfjCEEZa7iSJ3nelsySzwdVUmAosfdi_zLPIbrgWlzE0fJBEqrPM-7vYxroGwriLJKPfbGXZJdL44aOvPNoWntzVF3uckq31hwQHb1szFrnyVQnN23LmLl-xeJLIFF-cf1pklnv4FfS6t_6X6DCyV52ncCwwsYTlKn20H8FcMiPU6jwZhPzPPn5qsdiS9RhDTMBWDtNTu6qZXIwVRgw9Qr9J2kj2OUwbFsrR4yEiN5rQugwao63k3YD9L_JESCEbLyXz8sy1FKSi6hs7JO7MHuY6LlEmuG3TcpWp2F4zuZ_G-8TxmxOepak1kaPs3s1XR4bJEIZGZzr1gOTTOc67E-tCtzj1Kq-CwQR1Putb0BL1cEg_TUOlw4_l7FzXRo7iv_LVaiwnV6Uy9bHpN9pdmx71GrmQ8gpwggGmwSSfkhZTGPkVUGBmCltXRosqEuVLmU7yBNzyztqUJ3T60Mk-cmJwwer1i68_2qWbipB-ErB97gvylWkY9ow_GC7NJPlRDIGHpthqMVo88I8POFtbI_yI2iWwAs-Xy0]--></g></svg>