<svg xmlns="http://www.w3.org/2000/svg" xmlns:xlink="http://www.w3.org/1999/xlink" contentStyleType="text/css" height="1642px" preserveAspectRatio="none" style="width:1127px;height:1642px;background:#FFFFFF;" version="1.1" viewBox="0 0 1127 1642" width="1127px" zoomAndPan="magnify"><title>Sequence Diagram</title><defs/><g><text fill="#000000" font-family="sans-serif" font-size="14" font-weight="bold" lengthAdjust="spacing" textLength="126.0479" x="501.7529" y="29.5332">Sequence Diagram</text><text fill="#000000" font-family="sans-serif" font-size="14" font-weight="bold" lengthAdjust="spacing" textLength="199.9033" x="464.8252" y="47.1426">Kelola Pengguna &amp; Undangan</text><rect fill="none" height="185.9453" style="stroke:#000000;stroke-width:1.5;" width="894.2466" x="226.3071" y="381.2891"/><rect fill="none" height="155.5938" style="stroke:#000000;stroke-width:1.5;" width="894.2466" x="226.3071" y="672.2891"/><rect fill="none" height="125.2422" style="stroke:#000000;stroke-width:1.5;" width="745.1021" x="226.3071" y="1418.5625"/><line style="stroke:#181818;stroke-width:0.5;stroke-dasharray:5.0,5.0;" x1="27" x2="27" y1="138.8281" y2="1560.8047"/><line style="stroke:#181818;stroke-width:0.5;stroke-dasharray:5.0,5.0;" x1="274.3071" x2="274.3071" y1="138.8281" y2="1560.8047"/><line style="stroke:#181818;stroke-width:0.5;stroke-dasharray:5.0,5.0;" x1="691.2305" x2="691.2305" y1="138.8281" y2="1560.8047"/><line style="stroke:#181818;stroke-width:0.5;stroke-dasharray:5.0,5.0;" x1="938.8506" x2="938.8506" y1="138.8281" y2="1560.8047"/><line style="stroke:#181818;stroke-width:0.5;stroke-dasharray:5.0,5.0;" x1="992.4092" x2="992.4092" y1="138.8281" y2="1560.8047"/><line style="stroke:#181818;stroke-width:0.5;stroke-dasharray:5.0,5.0;" x1="1067.2021" x2="1067.2021" y1="138.8281" y2="1560.8047"/><text fill="#000000" font-family="sans-serif" font-size="14" lengthAdjust="spacing" textLength="39.6826" x="5" y="135.752">Admin</text><ellipse cx="27.8413" cy="69.7188" fill="#E2E2F0" rx="8" ry="8" style="stroke:#181818;stroke-width:0.5;"/><path d="M27.8413,77.7188 L27.8413,104.7188 M14.8413,85.7188 L40.8413,85.7188 M27.8413,104.7188 L14.8413,119.7188 M27.8413,104.7188 L40.8413,119.7188 " fill="none" style="stroke:#181818;stroke-width:0.5;"/><text fill="#000000" font-family="sans-serif" font-size="14" lengthAdjust="spacing" textLength="39.6826" x="5" y="1574.3379">Admin</text><ellipse cx="27.8413" cy="1585.9141" fill="#E2E2F0" rx="8" ry="8" style="stroke:#181818;stroke-width:0.5;"/><path d="M27.8413,1593.9141 L27.8413,1620.9141 M14.8413,1601.9141 L40.8413,1601.9141 M27.8413,1620.9141 L14.8413,1635.9141 M27.8413,1620.9141 L40.8413,1635.9141 " fill="none" style="stroke:#181818;stroke-width:0.5;"/><rect fill="#E2E2F0" height="31.6094" rx="2.5" ry="2.5" style="stroke:#181818;stroke-width:0.5;" width="76.2549" x="236.3071" y="106.2188"/><text fill="#000000" font-family="sans-serif" font-size="14" lengthAdjust="spacing" textLength="62.2549" x="243.3071" y="127.752">UserPage</text><rect fill="#E2E2F0" height="31.6094" rx="2.5" ry="2.5" style="stroke:#181818;stroke-width:0.5;" width="76.2549" x="236.3071" y="1559.8047"/><text fill="#000000" font-family="sans-serif" font-size="14" lengthAdjust="spacing" textLength="62.2549" x="243.3071" y="1581.3379">UserPage</text><rect fill="#E2E2F0" height="31.6094" rx="2.5" ry="2.5" style="stroke:#181818;stroke-width:0.5;" width="104.248" x="639.2305" y="106.2188"/><text fill="#000000" font-family="sans-serif" font-size="14" lengthAdjust="spacing" textLength="90.248" x="646.2305" y="127.752">UserController</text><rect fill="#E2E2F0" height="31.6094" rx="2.5" ry="2.5" style="stroke:#181818;stroke-width:0.5;" width="104.248" x="639.2305" y="1559.8047"/><text fill="#000000" font-family="sans-serif" font-size="14" lengthAdjust="spacing" textLength="90.248" x="646.2305" y="1581.3379">UserController</text><rect fill="#E2E2F0" height="31.6094" rx="2.5" ry="2.5" style="stroke:#181818;stroke-width:0.5;" width="43.5586" x="917.8506" y="106.2188"/><text fill="#000000" font-family="sans-serif" font-size="14" lengthAdjust="spacing" textLength="29.5586" x="924.8506" y="127.752">User</text><rect fill="#E2E2F0" height="31.6094" rx="2.5" ry="2.5" style="stroke:#181818;stroke-width:0.5;" width="43.5586" x="917.8506" y="1559.8047"/><text fill="#000000" font-family="sans-serif" font-size="14" lengthAdjust="spacing" textLength="29.5586" x="924.8506" y="1581.3379">User</text><rect fill="#E2E2F0" height="31.6094" rx="2.5" ry="2.5" style="stroke:#181818;stroke-width:0.5;" width="42.793" x="971.4092" y="106.2188"/><text fill="#000000" font-family="sans-serif" font-size="14" lengthAdjust="spacing" textLength="28.793" x="978.4092" y="127.752">Role</text><rect fill="#E2E2F0" height="31.6094" rx="2.5" ry="2.5" style="stroke:#181818;stroke-width:0.5;" width="42.793" x="971.4092" y="1559.8047"/><text fill="#000000" font-family="sans-serif" font-size="14" lengthAdjust="spacing" textLength="28.793" x="978.4092" y="1581.3379">Role</text><rect fill="#E2E2F0" height="31.6094" rx="2.5" ry="2.5" style="stroke:#181818;stroke-width:0.5;" width="86.3516" x="1024.2021" y="106.2188"/><text fill="#000000" font-family="sans-serif" font-size="14" lengthAdjust="spacing" textLength="72.3516" x="1031.2021" y="127.752">MailService</text><rect fill="#E2E2F0" height="31.6094" rx="2.5" ry="2.5" style="stroke:#181818;stroke-width:0.5;" width="86.3516" x="1024.2021" y="1559.8047"/><text fill="#000000" font-family="sans-serif" font-size="14" lengthAdjust="spacing" textLength="72.3516" x="1031.2021" y="1581.3379">MailService</text><polygon fill="#181818" points="262.4346,167.1797,272.4346,171.1797,262.4346,175.1797,266.4346,171.1797" style="stroke:#181818;stroke-width:1.0;"/><line style="stroke:#181818;stroke-width:1.0;" x1="27.8413" x2="268.4346" y1="171.1797" y2="171.1797"/><text fill="#000000" font-family="sans-serif" font-size="13" lengthAdjust="spacing" textLength="181.4097" x="60.4331" y="166.3232">Mengakses halaman pengguna</text><polygon fill="#181818" points="679.3545,197.5313,689.3545,201.5313,679.3545,205.5313,683.3545,201.5313" style="stroke:#181818;stroke-width:1.0;"/><line style="stroke:#181818;stroke-width:1.0;" x1="274.4346" x2="685.3545" y1="201.5313" y2="201.5313"/><text fill="#000000" font-family="sans-serif" font-size="13" lengthAdjust="spacing" textLength="44.7891" x="460.5" y="196.6748">mount()</text><polygon fill="#181818" points="927.6299,227.8828,937.6299,231.8828,927.6299,235.8828,931.6299,231.8828" style="stroke:#181818;stroke-width:1.0;"/><line style="stroke:#181818;stroke-width:1.0;" x1="691.3545" x2="933.6299" y1="231.8828" y2="231.8828"/><text fill="#000000" font-family="sans-serif" font-size="13" lengthAdjust="spacing" textLength="97.0684" x="766.958" y="227.0264">with('role')-&gt;get()</text><polygon fill="#181818" points="285.4346,258.2344,275.4346,262.2344,285.4346,266.2344,281.4346,262.2344" style="stroke:#181818;stroke-width:1.0;"/><line style="stroke:#181818;stroke-width:1.0;stroke-dasharray:2.0,2.0;" x1="279.4346" x2="690.3545" y1="262.2344" y2="262.2344"/><text fill="#000000" font-family="sans-serif" font-size="13" lengthAdjust="spacing" textLength="83.0718" x="441.3586" y="257.3779">displayUsers()</text><polygon fill="#181818" points="262.4346,288.5859,272.4346,292.5859,262.4346,296.5859,266.4346,292.5859" style="stroke:#181818;stroke-width:1.0;"/><line style="stroke:#181818;stroke-width:1.0;" x1="27.8413" x2="268.4346" y1="292.5859" y2="292.5859"/><text fill="#000000" font-family="sans-serif" font-size="13" lengthAdjust="spacing" textLength="222.5933" x="39.8413" y="287.7295">Undang pengguna baru(email, role_id)</text><polygon fill="#181818" points="679.3545,318.9375,689.3545,322.9375,679.3545,326.9375,683.3545,322.9375" style="stroke:#181818;stroke-width:1.0;"/><line style="stroke:#181818;stroke-width:1.0;" x1="274.4346" x2="685.3545" y1="322.9375" y2="322.9375"/><text fill="#000000" font-family="sans-serif" font-size="13" lengthAdjust="spacing" textLength="116.3208" x="424.7341" y="318.0811">invite(email, role_id)</text><line style="stroke:#181818;stroke-width:1.0;" x1="691.3545" x2="733.3545" y1="353.2891" y2="353.2891"/><line style="stroke:#181818;stroke-width:1.0;" x1="733.3545" x2="733.3545" y1="353.2891" y2="366.2891"/><line style="stroke:#181818;stroke-width:1.0;" x1="692.3545" x2="733.3545" y1="366.2891" y2="366.2891"/><polygon fill="#181818" points="702.3545,362.2891,692.3545,366.2891,702.3545,370.2891,698.3545,366.2891" style="stroke:#181818;stroke-width:1.0;"/><text fill="#000000" font-family="sans-serif" font-size="13" lengthAdjust="spacing" textLength="130.7808" x="698.3545" y="348.4326">validate(email, role_id)</text><path d="M226.3071,381.2891 L286.478,381.2891 L286.478,389.6406 L276.478,399.6406 L226.3071,399.6406 L226.3071,381.2891 " fill="#EEEEEE" style="stroke:#000000;stroke-width:1.5;"/><rect fill="none" height="185.9453" style="stroke:#000000;stroke-width:1.5;" width="894.2466" x="226.3071" y="381.2891"/><text fill="#000000" font-family="sans-serif" font-size="13" font-weight="bold" lengthAdjust="spacing" textLength="15.1709" x="241.3071" y="395.7842">alt</text><text fill="#000000" font-family="sans-serif" font-size="11" font-weight="bold" lengthAdjust="spacing" textLength="124.0776" x="301.478" y="394.708">[Email Sudah Terdaftar]</text><polygon fill="#181818" points="285.4346,417.9922,275.4346,421.9922,285.4346,425.9922,281.4346,421.9922" style="stroke:#181818;stroke-width:1.0;"/><line style="stroke:#181818;stroke-width:1.0;stroke-dasharray:2.0,2.0;" x1="279.4346" x2="690.3545" y1="421.9922" y2="421.9922"/><text fill="#000000" font-family="sans-serif" font-size="13" lengthAdjust="spacing" textLength="200.6875" x="382.5508" y="417.1357">showError("Email sudah terdaftar")</text><line style="stroke:#000000;stroke-width:1.0;stroke-dasharray:2.0,2.0;" x1="226.3071" x2="1120.5537" y1="430.9922" y2="430.9922"/><text fill="#000000" font-family="sans-serif" font-size="11" font-weight="bold" lengthAdjust="spacing" textLength="66.0161" x="231.3071" y="442.4111">[Email Valid]</text><polygon fill="#181818" points="927.6299,464.1797,937.6299,468.1797,927.6299,472.1797,931.6299,468.1797" style="stroke:#181818;stroke-width:1.0;"/><line style="stroke:#181818;stroke-width:1.0;" x1="691.3545" x2="933.6299" y1="468.1797" y2="468.1797"/><text fill="#000000" font-family="sans-serif" font-size="13" lengthAdjust="spacing" textLength="224.2754" x="703.3545" y="463.3232">create(email, role_id, status='Pending')</text><polygon fill="#181818" points="927.6299,494.5313,937.6299,498.5313,927.6299,502.5313,931.6299,498.5313" style="stroke:#181818;stroke-width:1.0;"/><line style="stroke:#181818;stroke-width:1.0;" x1="691.3545" x2="933.6299" y1="498.5313" y2="498.5313"/><text fill="#000000" font-family="sans-serif" font-size="13" lengthAdjust="spacing" textLength="152.4707" x="739.2568" y="493.6748">generateActivationToken()</text><polygon fill="#181818" points="1055.3779,524.8828,1065.3779,528.8828,1055.3779,532.8828,1059.3779,528.8828" style="stroke:#181818;stroke-width:1.0;"/><line style="stroke:#181818;stroke-width:1.0;" x1="691.3545" x2="1061.3779" y1="528.8828" y2="528.8828"/><text fill="#000000" font-family="sans-serif" font-size="13" lengthAdjust="spacing" textLength="185.7007" x="786.5159" y="524.0264">sendInvitationEmail(user, token)</text><polygon fill="#181818" points="285.4346,555.2344,275.4346,559.2344,285.4346,563.2344,281.4346,559.2344" style="stroke:#181818;stroke-width:1.0;"/><line style="stroke:#181818;stroke-width:1.0;stroke-dasharray:2.0,2.0;" x1="279.4346" x2="690.3545" y1="559.2344" y2="559.2344"/><text fill="#000000" font-family="sans-serif" font-size="13" lengthAdjust="spacing" textLength="247.6665" x="359.0613" y="554.3779">showSuccess("Undangan berhasil dikirim")</text><polygon fill="#181818" points="262.4346,592.5859,272.4346,596.5859,262.4346,600.5859,266.4346,596.5859" style="stroke:#181818;stroke-width:1.0;"/><line style="stroke:#181818;stroke-width:1.0;" x1="27.8413" x2="268.4346" y1="596.5859" y2="596.5859"/><text fill="#000000" font-family="sans-serif" font-size="13" lengthAdjust="spacing" textLength="145.2534" x="78.5112" y="591.7295">Kirim ulang undangan(id)</text><polygon fill="#181818" points="679.3545,622.9375,689.3545,626.9375,679.3545,630.9375,683.3545,626.9375" style="stroke:#181818;stroke-width:1.0;"/><line style="stroke:#181818;stroke-width:1.0;" x1="274.4346" x2="685.3545" y1="626.9375" y2="626.9375"/><text fill="#000000" font-family="sans-serif" font-size="13" lengthAdjust="spacing" textLength="110.5571" x="427.616" y="622.0811">resendInvitation(id)</text><polygon fill="#181818" points="927.6299,653.2891,937.6299,657.2891,927.6299,661.2891,931.6299,657.2891" style="stroke:#181818;stroke-width:1.0;"/><line style="stroke:#181818;stroke-width:1.0;" x1="691.3545" x2="933.6299" y1="657.2891" y2="657.2891"/><text fill="#000000" font-family="sans-serif" font-size="13" lengthAdjust="spacing" textLength="39.7363" x="795.624" y="652.4326">find(id)</text><path d="M226.3071,672.2891 L286.478,672.2891 L286.478,680.6406 L276.478,690.6406 L226.3071,690.6406 L226.3071,672.2891 " fill="#EEEEEE" style="stroke:#000000;stroke-width:1.5;"/><rect fill="none" height="155.5938" style="stroke:#000000;stroke-width:1.5;" width="894.2466" x="226.3071" y="672.2891"/><text fill="#000000" font-family="sans-serif" font-size="13" font-weight="bold" lengthAdjust="spacing" textLength="15.1709" x="241.3071" y="686.7842">alt</text><text fill="#000000" font-family="sans-serif" font-size="11" font-weight="bold" lengthAdjust="spacing" textLength="124.0615" x="301.478" y="685.708">[Status Bukan Pending]</text><polygon fill="#181818" points="285.4346,708.9922,275.4346,712.9922,285.4346,716.9922,281.4346,712.9922" style="stroke:#181818;stroke-width:1.0;"/><line style="stroke:#181818;stroke-width:1.0;stroke-dasharray:2.0,2.0;" x1="279.4346" x2="690.3545" y1="712.9922" y2="712.9922"/><text fill="#000000" font-family="sans-serif" font-size="13" lengthAdjust="spacing" textLength="171.0566" x="397.3662" y="708.1357">showError("User sudah aktif")</text><line style="stroke:#000000;stroke-width:1.0;stroke-dasharray:2.0,2.0;" x1="226.3071" x2="1120.5537" y1="721.9922" y2="721.9922"/><text fill="#000000" font-family="sans-serif" font-size="11" font-weight="bold" lengthAdjust="spacing" textLength="87.3877" x="231.3071" y="733.4111">[Status Pending]</text><polygon fill="#181818" points="927.6299,755.1797,937.6299,759.1797,927.6299,763.1797,931.6299,759.1797" style="stroke:#181818;stroke-width:1.0;"/><line style="stroke:#181818;stroke-width:1.0;" x1="691.3545" x2="933.6299" y1="759.1797" y2="759.1797"/><text fill="#000000" font-family="sans-serif" font-size="13" lengthAdjust="spacing" textLength="152.4707" x="739.2568" y="754.3232">generateActivationToken()</text><polygon fill="#181818" points="1055.3779,785.5313,1065.3779,789.5313,1055.3779,793.5313,1059.3779,789.5313" style="stroke:#181818;stroke-width:1.0;"/><line style="stroke:#181818;stroke-width:1.0;" x1="691.3545" x2="1061.3779" y1="789.5313" y2="789.5313"/><text fill="#000000" font-family="sans-serif" font-size="13" lengthAdjust="spacing" textLength="185.7007" x="786.5159" y="784.6748">sendInvitationEmail(user, token)</text><polygon fill="#181818" points="285.4346,815.8828,275.4346,819.8828,285.4346,823.8828,281.4346,819.8828" style="stroke:#181818;stroke-width:1.0;"/><line style="stroke:#181818;stroke-width:1.0;stroke-dasharray:2.0,2.0;" x1="279.4346" x2="690.3545" y1="819.8828" y2="819.8828"/><text fill="#000000" font-family="sans-serif" font-size="13" lengthAdjust="spacing" textLength="267.9092" x="348.9399" y="815.0264">showSuccess("Email undangan dikirim ulang")</text><polygon fill="#181818" points="262.4346,853.2344,272.4346,857.2344,262.4346,861.2344,266.4346,857.2344" style="stroke:#181818;stroke-width:1.0;"/><line style="stroke:#181818;stroke-width:1.0;" x1="27.8413" x2="268.4346" y1="857.2344" y2="857.2344"/><text fill="#000000" font-family="sans-serif" font-size="13" lengthAdjust="spacing" textLength="174.167" x="64.0544" y="852.3779">Edit role pengguna(id, role_id)</text><polygon fill="#181818" points="679.3545,883.5859,689.3545,887.5859,679.3545,891.5859,683.3545,887.5859" style="stroke:#181818;stroke-width:1.0;"/><line style="stroke:#181818;stroke-width:1.0;" x1="274.4346" x2="685.3545" y1="887.5859" y2="887.5859"/><text fill="#000000" font-family="sans-serif" font-size="13" lengthAdjust="spacing" textLength="131.5234" x="417.1328" y="882.7295">updateRole(id, role_id)</text><polygon fill="#181818" points="927.6299,913.9375,937.6299,917.9375,927.6299,921.9375,931.6299,917.9375" style="stroke:#181818;stroke-width:1.0;"/><line style="stroke:#181818;stroke-width:1.0;" x1="691.3545" x2="933.6299" y1="917.9375" y2="917.9375"/><text fill="#000000" font-family="sans-serif" font-size="13" lengthAdjust="spacing" textLength="39.7363" x="795.624" y="913.0811">find(id)</text><polygon fill="#181818" points="980.8057,944.2891,990.8057,948.2891,980.8057,952.2891,984.8057,948.2891" style="stroke:#181818;stroke-width:1.0;"/><line style="stroke:#181818;stroke-width:1.0;" x1="691.3545" x2="986.8057" y1="948.2891" y2="948.2891"/><text fill="#000000" font-family="sans-serif" font-size="13" lengthAdjust="spacing" textLength="68.6436" x="807.7583" y="943.4326">find(role_id)</text><polygon fill="#181818" points="927.6299,974.6406,937.6299,978.6406,927.6299,982.6406,931.6299,978.6406" style="stroke:#181818;stroke-width:1.0;"/><line style="stroke:#181818;stroke-width:1.0;" x1="691.3545" x2="933.6299" y1="978.6406" y2="978.6406"/><text fill="#000000" font-family="sans-serif" font-size="13" lengthAdjust="spacing" textLength="87.4453" x="771.7695" y="973.7842">update(role_id)</text><polygon fill="#181818" points="285.4346,1004.9922,275.4346,1008.9922,285.4346,1012.9922,281.4346,1008.9922" style="stroke:#181818;stroke-width:1.0;"/><line style="stroke:#181818;stroke-width:1.0;stroke-dasharray:2.0,2.0;" x1="279.4346" x2="690.3545" y1="1008.9922" y2="1008.9922"/><text fill="#000000" font-family="sans-serif" font-size="13" lengthAdjust="spacing" textLength="234.6665" x="365.5613" y="1004.1357">showSuccess("Role berhasil diperbarui")</text><polygon fill="#181818" points="262.4346,1035.3438,272.4346,1039.3438,262.4346,1043.3438,266.4346,1039.3438" style="stroke:#181818;stroke-width:1.0;"/><line style="stroke:#181818;stroke-width:1.0;" x1="27.8413" x2="268.4346" y1="1039.3438" y2="1039.3438"/><text fill="#000000" font-family="sans-serif" font-size="13" lengthAdjust="spacing" textLength="148.8779" x="76.699" y="1034.4873">Nonaktifkan pengguna(id)</text><polygon fill="#181818" points="679.3545,1065.6953,689.3545,1069.6953,679.3545,1073.6953,683.3545,1069.6953" style="stroke:#181818;stroke-width:1.0;"/><line style="stroke:#181818;stroke-width:1.0;" x1="274.4346" x2="685.3545" y1="1069.6953" y2="1069.6953"/><text fill="#000000" font-family="sans-serif" font-size="13" lengthAdjust="spacing" textLength="78.0381" x="443.8755" y="1064.8389">deactivate(id)</text><polygon fill="#181818" points="927.6299,1096.0469,937.6299,1100.0469,927.6299,1104.0469,931.6299,1100.0469" style="stroke:#181818;stroke-width:1.0;"/><line style="stroke:#181818;stroke-width:1.0;" x1="691.3545" x2="933.6299" y1="1100.0469" y2="1100.0469"/><text fill="#000000" font-family="sans-serif" font-size="13" lengthAdjust="spacing" textLength="39.7363" x="795.624" y="1095.1904">find(id)</text><polygon fill="#181818" points="927.6299,1126.3984,937.6299,1130.3984,927.6299,1134.3984,931.6299,1130.3984" style="stroke:#181818;stroke-width:1.0;"/><line style="stroke:#181818;stroke-width:1.0;" x1="691.3545" x2="933.6299" y1="1130.3984" y2="1130.3984"/><text fill="#000000" font-family="sans-serif" font-size="13" lengthAdjust="spacing" textLength="134.0498" x="748.4673" y="1125.542">update(is_active=false)</text><polygon fill="#181818" points="285.4346,1156.75,275.4346,1160.75,285.4346,1164.75,281.4346,1160.75" style="stroke:#181818;stroke-width:1.0;"/><line style="stroke:#181818;stroke-width:1.0;stroke-dasharray:2.0,2.0;" x1="279.4346" x2="690.3545" y1="1160.75" y2="1160.75"/><text fill="#000000" font-family="sans-serif" font-size="13" lengthAdjust="spacing" textLength="286.0063" x="339.8914" y="1155.8936">showSuccess("Pengguna berhasil dinonaktifkan")</text><polygon fill="#181818" points="262.4346,1187.1016,272.4346,1191.1016,262.4346,1195.1016,266.4346,1191.1016" style="stroke:#181818;stroke-width:1.0;"/><line style="stroke:#181818;stroke-width:1.0;" x1="27.8413" x2="268.4346" y1="1191.1016" y2="1191.1016"/><text fill="#000000" font-family="sans-serif" font-size="13" lengthAdjust="spacing" textLength="126.4707" x="87.9026" y="1186.2451">Aktifkan pengguna(id)</text><polygon fill="#181818" points="679.3545,1217.4531,689.3545,1221.4531,679.3545,1225.4531,683.3545,1221.4531" style="stroke:#181818;stroke-width:1.0;"/><line style="stroke:#181818;stroke-width:1.0;" x1="274.4346" x2="685.3545" y1="1221.4531" y2="1221.4531"/><text fill="#000000" font-family="sans-serif" font-size="13" lengthAdjust="spacing" textLength="63.5781" x="451.1055" y="1216.5967">activate(id)</text><polygon fill="#181818" points="927.6299,1247.8047,937.6299,1251.8047,927.6299,1255.8047,931.6299,1251.8047" style="stroke:#181818;stroke-width:1.0;"/><line style="stroke:#181818;stroke-width:1.0;" x1="691.3545" x2="933.6299" y1="1251.8047" y2="1251.8047"/><text fill="#000000" font-family="sans-serif" font-size="13" lengthAdjust="spacing" textLength="39.7363" x="795.624" y="1246.9482">find(id)</text><polygon fill="#181818" points="927.6299,1278.1563,937.6299,1282.1563,927.6299,1286.1563,931.6299,1282.1563" style="stroke:#181818;stroke-width:1.0;"/><line style="stroke:#181818;stroke-width:1.0;" x1="691.3545" x2="933.6299" y1="1282.1563" y2="1282.1563"/><text fill="#000000" font-family="sans-serif" font-size="13" lengthAdjust="spacing" textLength="128.9907" x="750.9968" y="1277.2998">update(is_active=true)</text><polygon fill="#181818" points="285.4346,1308.5078,275.4346,1312.5078,285.4346,1316.5078,281.4346,1312.5078" style="stroke:#181818;stroke-width:1.0;"/><line style="stroke:#181818;stroke-width:1.0;stroke-dasharray:2.0,2.0;" x1="279.4346" x2="690.3545" y1="1312.5078" y2="1312.5078"/><text fill="#000000" font-family="sans-serif" font-size="13" lengthAdjust="spacing" textLength="264.3164" x="350.7363" y="1307.6514">showSuccess("Pengguna berhasil diaktifkan")</text><polygon fill="#181818" points="262.4346,1338.8594,272.4346,1342.8594,262.4346,1346.8594,266.4346,1342.8594" style="stroke:#181818;stroke-width:1.0;"/><line style="stroke:#181818;stroke-width:1.0;" x1="27.8413" x2="268.4346" y1="1342.8594" y2="1342.8594"/><text fill="#000000" font-family="sans-serif" font-size="13" lengthAdjust="spacing" textLength="117.8062" x="92.2349" y="1338.0029">Hapus pengguna(id)</text><polygon fill="#181818" points="679.3545,1369.2109,689.3545,1373.2109,679.3545,1377.2109,683.3545,1373.2109" style="stroke:#181818;stroke-width:1.0;"/><line style="stroke:#181818;stroke-width:1.0;" x1="274.4346" x2="685.3545" y1="1373.2109" y2="1373.2109"/><text fill="#000000" font-family="sans-serif" font-size="13" lengthAdjust="spacing" textLength="61.4072" x="452.1909" y="1368.3545">destroy(id)</text><polygon fill="#181818" points="927.6299,1399.5625,937.6299,1403.5625,927.6299,1407.5625,931.6299,1403.5625" style="stroke:#181818;stroke-width:1.0;"/><line style="stroke:#181818;stroke-width:1.0;" x1="691.3545" x2="933.6299" y1="1403.5625" y2="1403.5625"/><text fill="#000000" font-family="sans-serif" font-size="13" lengthAdjust="spacing" textLength="39.7363" x="795.624" y="1398.7061">find(id)</text><path d="M226.3071,1418.5625 L286.478,1418.5625 L286.478,1426.9141 L276.478,1436.9141 L226.3071,1436.9141 L226.3071,1418.5625 " fill="#EEEEEE" style="stroke:#000000;stroke-width:1.5;"/><rect fill="none" height="125.2422" style="stroke:#000000;stroke-width:1.5;" width="745.1021" x="226.3071" y="1418.5625"/><text fill="#000000" font-family="sans-serif" font-size="13" font-weight="bold" lengthAdjust="spacing" textLength="15.1709" x="241.3071" y="1433.0576">alt</text><text fill="#000000" font-family="sans-serif" font-size="11" font-weight="bold" lengthAdjust="spacing" textLength="193.7944" x="301.478" y="1431.9814">[User Masih Memiliki Data Transaksi]</text><polygon fill="#181818" points="285.4346,1455.2656,275.4346,1459.2656,285.4346,1463.2656,281.4346,1459.2656" style="stroke:#181818;stroke-width:1.0;"/><line style="stroke:#181818;stroke-width:1.0;stroke-dasharray:2.0,2.0;" x1="279.4346" x2="690.3545" y1="1459.2656" y2="1459.2656"/><text fill="#000000" font-family="sans-serif" font-size="13" lengthAdjust="spacing" textLength="392.9199" x="286.4346" y="1454.4092">showError("Tidak dapat menghapus user dengan riwayat transaksi")</text><line style="stroke:#000000;stroke-width:1.0;stroke-dasharray:2.0,2.0;" x1="226.3071" x2="971.4092" y1="1468.2656" y2="1468.2656"/><text fill="#000000" font-family="sans-serif" font-size="11" font-weight="bold" lengthAdjust="spacing" textLength="136.9307" x="231.3071" y="1479.6846">[User Tidak Memiliki Data]</text><polygon fill="#181818" points="927.6299,1501.4531,937.6299,1505.4531,927.6299,1509.4531,931.6299,1505.4531" style="stroke:#181818;stroke-width:1.0;"/><line style="stroke:#181818;stroke-width:1.0;" x1="691.3545" x2="933.6299" y1="1505.4531" y2="1505.4531"/><text fill="#000000" font-family="sans-serif" font-size="13" lengthAdjust="spacing" textLength="44.0781" x="793.4531" y="1500.5967">delete()</text><polygon fill="#181818" points="285.4346,1531.8047,275.4346,1535.8047,285.4346,1539.8047,281.4346,1535.8047" style="stroke:#181818;stroke-width:1.0;"/><line style="stroke:#181818;stroke-width:1.0;stroke-dasharray:2.0,2.0;" x1="279.4346" x2="690.3545" y1="1535.8047" y2="1535.8047"/><text fill="#000000" font-family="sans-serif" font-size="13" lengthAdjust="spacing" textLength="254.9346" x="355.4272" y="1530.9482">showSuccess("Pengguna berhasil dihapus")</text><!--SRC=[lLNRQjj047tNLmnwg6L8Vg2GWEi4MXAL43jzAeI9TYmjMgtKtPL3_hwpAycLPSMX5EedUwvdpfnPsrBg1WrMOEbNIpgZbAp5d5PAvXeoqevC53df5C6c3u4RYJdd_DHtf6g5y40wprkDy0cUj42TeuuYp5nj85w9IkeOq4Bu5d4t9pFPe7OGFrao3zmj-9yUJfthMZjJAqMc2rcVXdIEzDZnMAkkwEFziID5gJPazZBh_EacYW8mkBnc1F0PKXu6IqiM2bHOeOQc7ozYluzQSrHLjzebouX_U5FAfbVfYcJ1Q6cnlBpEQN0FXOMqZS8tZzcoQzAs8-xG2rxGj0bL3FS2VCrdAPPZ05BlfQFJYFKXOezA2fo9YL0vkFL6sBG22zYI4RXpQ2BWpnYpBUhNMsDgayHTWWq9RaY8bn4fItsr7xxZeKPFIsRe5CG5M8UkjLSBrewGEbyiftavQJASkSgStAEJjTxM9Uba79XkF4QkyCsp4O82agHbaY_0-OJbx52RDijOwKay21PUo1HeUGeXIsbavKVJOhgcE- -2LlbTjNrgCbcDeMD8oMWnVhATr28vB68JY80lRSaWUZRExS7hfry3baxkXXNqTQOL_Y-RdGu6OWOgExxc2RqLqWLL7AIVU7dCIRvjl9pzQKz2PgZjR8_tWsqkkAjtx9gTohSSwwCXuyzJnYTN_BtMOIdbwDcOoaCGTakWv3pwCKXfdqCMNUsGjtq6xE4n7W7MVs2TObvz1FYVu3hJ_YtQzw5-nOOb_ZwnblyitiwVMpYVb3iL_D9NKh52uGOTmjQWjlpmotF7j-KNjGI13Jge64OH0FdxuEv1yaQ-uXjxtL1kkC_GkCi_QZozL46AcC4F3csEjm2clxBV]--></g></svg>