<svg xmlns="http://www.w3.org/2000/svg" xmlns:xlink="http://www.w3.org/1999/xlink" contentStyleType="text/css" height="1808px" preserveAspectRatio="none" style="width:1155px;height:1808px;background:#FFFFFF;" version="1.1" viewBox="0 0 1155 1808" width="1155px" zoomAndPan="magnify"><defs/><g><rect fill="none" height="232.6484" style="stroke:#000000;stroke-width:1.5;" width="1128.5859" x="10" y="1477.0781"/><line style="stroke:#181818;stroke-width:0.5;stroke-dasharray:5.0,5.0;" x1="45" x2="45" y1="82.6094" y2="1726.7266"/><line style="stroke:#181818;stroke-width:0.5;stroke-dasharray:5.0,5.0;" x1="336.6543" x2="336.6543" y1="82.6094" y2="1726.7266"/><line style="stroke:#181818;stroke-width:0.5;stroke-dasharray:5.0,5.0;" x1="642.2085" x2="642.2085" y1="82.6094" y2="1726.7266"/><line style="stroke:#181818;stroke-width:0.5;stroke-dasharray:5.0,5.0;" x1="734.6978" x2="734.6978" y1="82.6094" y2="1726.7266"/><line style="stroke:#181818;stroke-width:0.5;stroke-dasharray:5.0,5.0;" x1="812.939" x2="812.939" y1="82.6094" y2="1726.7266"/><line style="stroke:#181818;stroke-width:0.5;stroke-dasharray:5.0,5.0;" x1="1094.6553" x2="1094.6553" y1="82.6094" y2="1726.7266"/><text fill="#000000" font-family="sans-serif" font-size="14" lengthAdjust="spacing" textLength="45.1172" x="20" y="79.5332">Pemilik</text><ellipse cx="45.5586" cy="13.5" fill="#E2E2F0" rx="8" ry="8" style="stroke:#181818;stroke-width:0.5;"/><path d="M45.5586,21.5 L45.5586,48.5 M32.5586,29.5 L58.5586,29.5 M45.5586,48.5 L32.5586,63.5 M45.5586,48.5 L58.5586,63.5 " fill="none" style="stroke:#181818;stroke-width:0.5;"/><text fill="#000000" font-family="sans-serif" font-size="14" lengthAdjust="spacing" textLength="45.1172" x="20" y="1740.2598">Pemilik</text><ellipse cx="45.5586" cy="1751.8359" fill="#E2E2F0" rx="8" ry="8" style="stroke:#181818;stroke-width:0.5;"/><path d="M45.5586,1759.8359 L45.5586,1786.8359 M32.5586,1767.8359 L58.5586,1767.8359 M45.5586,1786.8359 L32.5586,1801.8359 M45.5586,1786.8359 L58.5586,1801.8359 " fill="none" style="stroke:#181818;stroke-width:0.5;"/><rect fill="#E2E2F0" height="49.2188" rx="2.5" ry="2.5" style="stroke:#181818;stroke-width:0.5;" width="87.9443" x="293.6543" y="32.3906"/><text fill="#000000" font-family="sans-serif" font-size="14" lengthAdjust="spacing" textLength="73.9443" x="300.6543" y="53.9238">Peran Page</text><text fill="#000000" font-family="sans-serif" font-size="14" lengthAdjust="spacing" textLength="60.6758" x="307.2886" y="71.5332">(Livewire)</text><rect fill="#E2E2F0" height="49.2188" rx="2.5" ry="2.5" style="stroke:#181818;stroke-width:0.5;" width="87.9443" x="293.6543" y="1725.7266"/><text fill="#000000" font-family="sans-serif" font-size="14" lengthAdjust="spacing" textLength="73.9443" x="300.6543" y="1747.2598">Peran Page</text><text fill="#000000" font-family="sans-serif" font-size="14" lengthAdjust="spacing" textLength="60.6758" x="307.2886" y="1764.8691">(Livewire)</text><rect fill="#E2E2F0" height="49.2188" rx="2.5" ry="2.5" style="stroke:#181818;stroke-width:0.5;" width="82.4893" x="601.2085" y="32.3906"/><text fill="#000000" font-family="sans-serif" font-size="14" lengthAdjust="spacing" textLength="68.4893" x="608.2085" y="53.9238">SpatieRole</text><text fill="#000000" font-family="sans-serif" font-size="14" lengthAdjust="spacing" textLength="38.1309" x="623.3877" y="71.5332">Model</text><rect fill="#E2E2F0" height="49.2188" rx="2.5" ry="2.5" style="stroke:#181818;stroke-width:0.5;" width="82.4893" x="601.2085" y="1725.7266"/><text fill="#000000" font-family="sans-serif" font-size="14" lengthAdjust="spacing" textLength="68.4893" x="608.2085" y="1747.2598">SpatieRole</text><text fill="#000000" font-family="sans-serif" font-size="14" lengthAdjust="spacing" textLength="38.1309" x="623.3877" y="1764.8691">Model</text><rect fill="#E2E2F0" height="49.2188" rx="2.5" ry="2.5" style="stroke:#181818;stroke-width:0.5;" width="83.2412" x="693.6978" y="32.3906"/><text fill="#000000" font-family="sans-serif" font-size="14" lengthAdjust="spacing" textLength="69.2412" x="700.6978" y="53.9238">Permission</text><text fill="#000000" font-family="sans-serif" font-size="14" lengthAdjust="spacing" textLength="38.1309" x="716.2529" y="71.5332">Model</text><rect fill="#E2E2F0" height="49.2188" rx="2.5" ry="2.5" style="stroke:#181818;stroke-width:0.5;" width="83.2412" x="693.6978" y="1725.7266"/><text fill="#000000" font-family="sans-serif" font-size="14" lengthAdjust="spacing" textLength="69.2412" x="700.6978" y="1747.2598">Permission</text><text fill="#000000" font-family="sans-serif" font-size="14" lengthAdjust="spacing" textLength="38.1309" x="716.2529" y="1764.8691">Model</text><rect fill="#E2E2F0" height="49.2188" rx="2.5" ry="2.5" style="stroke:#181818;stroke-width:0.5;" width="52.1309" x="786.939" y="32.3906"/><text fill="#000000" font-family="sans-serif" font-size="14" lengthAdjust="spacing" textLength="29.5586" x="798.2251" y="53.9238">User</text><text fill="#000000" font-family="sans-serif" font-size="14" lengthAdjust="spacing" textLength="38.1309" x="793.939" y="71.5332">Model</text><rect fill="#E2E2F0" height="49.2188" rx="2.5" ry="2.5" style="stroke:#181818;stroke-width:0.5;" width="52.1309" x="786.939" y="1725.7266"/><text fill="#000000" font-family="sans-serif" font-size="14" lengthAdjust="spacing" textLength="29.5586" x="798.2251" y="1747.2598">User</text><text fill="#000000" font-family="sans-serif" font-size="14" lengthAdjust="spacing" textLength="38.1309" x="793.939" y="1764.8691">Model</text><text fill="#000000" font-family="sans-serif" font-size="14" lengthAdjust="spacing" textLength="59.9307" x="1062.6553" y="79.5332">Database</text><path d="M1077.6206,29 C1077.6206,19 1095.6206,19 1095.6206,19 C1095.6206,19 1113.6206,19 1113.6206,29 L1113.6206,55 C1113.6206,65 1095.6206,65 1095.6206,65 C1095.6206,65 1077.6206,65 1077.6206,55 L1077.6206,29 " fill="#E2E2F0" style="stroke:#181818;stroke-width:1.5;"/><path d="M1077.6206,29 C1077.6206,39 1095.6206,39 1095.6206,39 C1095.6206,39 1113.6206,39 1113.6206,29 " fill="none" style="stroke:#181818;stroke-width:1.5;"/><text fill="#000000" font-family="sans-serif" font-size="14" lengthAdjust="spacing" textLength="59.9307" x="1062.6553" y="1740.2598">Database</text><path d="M1077.6206,1753.3359 C1077.6206,1743.3359 1095.6206,1743.3359 1095.6206,1743.3359 C1095.6206,1743.3359 1113.6206,1743.3359 1113.6206,1753.3359 L1113.6206,1779.3359 C1113.6206,1789.3359 1095.6206,1789.3359 1095.6206,1789.3359 C1095.6206,1789.3359 1077.6206,1789.3359 1077.6206,1779.3359 L1077.6206,1753.3359 " fill="#E2E2F0" style="stroke:#181818;stroke-width:1.5;"/><path d="M1077.6206,1753.3359 C1077.6206,1763.3359 1095.6206,1763.3359 1095.6206,1763.3359 C1095.6206,1763.3359 1113.6206,1763.3359 1113.6206,1753.3359 " fill="none" style="stroke:#181818;stroke-width:1.5;"/><rect fill="#EEEEEE" height="3" style="stroke:#EEEEEE;stroke-width:1.0;" width="1148.5859" x="0" y="113.7852"/><line style="stroke:#000000;stroke-width:1.0;" x1="0" x2="1148.5859" y1="113.7852" y2="113.7852"/><line style="stroke:#000000;stroke-width:1.0;" x1="0" x2="1148.5859" y1="116.7852" y2="116.7852"/><rect fill="#EEEEEE" height="24.3516" style="stroke:#000000;stroke-width:2.0;" width="143.3145" x="502.6357" y="102.6094"/><text fill="#000000" font-family="sans-serif" font-size="13" font-weight="bold" lengthAdjust="spacing" textLength="125.7026" x="508.6357" y="120.1045">Melihat Daftar Peran</text><polygon fill="#181818" points="325.6265,155.3125,335.6265,159.3125,325.6265,163.3125,329.6265,159.3125" style="stroke:#181818;stroke-width:1.0;"/><line style="stroke:#181818;stroke-width:1.0;" x1="45.5586" x2="331.6265" y1="159.3125" y2="159.3125"/><text fill="#000000" font-family="sans-serif" font-size="13" lengthAdjust="spacing" textLength="67.1963" x="52.5586" y="154.4561">GET /peran</text><polygon fill="#181818" points="630.4531,185.6641,640.4531,189.6641,630.4531,193.6641,634.4531,189.6641" style="stroke:#181818;stroke-width:1.0;"/><line style="stroke:#181818;stroke-width:1.0;" x1="337.6265" x2="636.4531" y1="189.6641" y2="189.6641"/><text fill="#000000" font-family="sans-serif" font-size="13" lengthAdjust="spacing" textLength="144.7456" x="344.6265" y="184.8076">with('permissions')-&gt;get()</text><polygon fill="#181818" points="1083.6206,232.3672,1093.6206,236.3672,1083.6206,240.3672,1087.6206,236.3672" style="stroke:#181818;stroke-width:1.0;"/><line style="stroke:#181818;stroke-width:1.0;" x1="642.4531" x2="1089.6206" y1="236.3672" y2="236.3672"/><text fill="#000000" font-family="sans-serif" font-size="13" lengthAdjust="spacing" textLength="132.9136" x="649.4531" y="215.1592">SELECT * FROM roles</text><text fill="#000000" font-family="sans-serif" font-size="13" lengthAdjust="spacing" textLength="159.6753" x="649.4531" y="231.5107">JOIN role_has_permissions</text><polygon fill="#181818" points="653.4531,262.7188,643.4531,266.7188,653.4531,270.7188,649.4531,266.7188" style="stroke:#181818;stroke-width:1.0;"/><line style="stroke:#181818;stroke-width:1.0;stroke-dasharray:2.0,2.0;" x1="647.4531" x2="1094.6206" y1="266.7188" y2="266.7188"/><text fill="#000000" font-family="sans-serif" font-size="13" lengthAdjust="spacing" textLength="127.8735" x="659.4531" y="261.8623">roles with permissions</text><polygon fill="#181818" points="348.6265,293.0703,338.6265,297.0703,348.6265,301.0703,344.6265,297.0703" style="stroke:#181818;stroke-width:1.0;"/><line style="stroke:#181818;stroke-width:1.0;stroke-dasharray:2.0,2.0;" x1="342.6265" x2="641.4531" y1="297.0703" y2="297.0703"/><text fill="#000000" font-family="sans-serif" font-size="13" lengthAdjust="spacing" textLength="47.6772" x="354.6265" y="292.2139">roles list</text><polygon fill="#181818" points="56.5586,323.4219,46.5586,327.4219,56.5586,331.4219,52.5586,327.4219" style="stroke:#181818;stroke-width:1.0;"/><line style="stroke:#181818;stroke-width:1.0;stroke-dasharray:2.0,2.0;" x1="50.5586" x2="336.6265" y1="327.4219" y2="327.4219"/><text fill="#000000" font-family="sans-serif" font-size="13" lengthAdjust="spacing" textLength="133.6816" x="62.5586" y="322.5654">Tampilkan daftar peran</text><rect fill="#EEEEEE" height="3" style="stroke:#EEEEEE;stroke-width:1.0;" width="1148.5859" x="0" y="356.5977"/><line style="stroke:#000000;stroke-width:1.0;" x1="0" x2="1148.5859" y1="356.5977" y2="356.5977"/><line style="stroke:#000000;stroke-width:1.0;" x1="0" x2="1148.5859" y1="359.5977" y2="359.5977"/><rect fill="#EEEEEE" height="24.3516" style="stroke:#000000;stroke-width:2.0;" width="147.6436" x="500.4712" y="345.4219"/><text fill="#000000" font-family="sans-serif" font-size="13" font-weight="bold" lengthAdjust="spacing" textLength="130.0317" x="506.4712" y="362.917">Membuat Peran Baru</text><polygon fill="#181818" points="325.6265,398.125,335.6265,402.125,325.6265,406.125,329.6265,402.125" style="stroke:#181818;stroke-width:1.0;"/><line style="stroke:#181818;stroke-width:1.0;" x1="45.5586" x2="331.6265" y1="402.125" y2="402.125"/><text fill="#000000" font-family="sans-serif" font-size="13" lengthAdjust="spacing" textLength="119.7803" x="52.5586" y="397.2686">Klik "Tambah Peran"</text><polygon fill="#181818" points="723.3184,428.4766,733.3184,432.4766,723.3184,436.4766,727.3184,432.4766" style="stroke:#181818;stroke-width:1.0;"/><line style="stroke:#181818;stroke-width:1.0;" x1="337.6265" x2="729.3184" y1="432.4766" y2="432.4766"/><text fill="#000000" font-family="sans-serif" font-size="13" lengthAdjust="spacing" textLength="21.6646" x="344.6265" y="427.6201">all()</text><polygon fill="#181818" points="1083.6206,458.8281,1093.6206,462.8281,1083.6206,466.8281,1087.6206,462.8281" style="stroke:#181818;stroke-width:1.0;"/><line style="stroke:#181818;stroke-width:1.0;" x1="735.3184" x2="1089.6206" y1="462.8281" y2="462.8281"/><text fill="#000000" font-family="sans-serif" font-size="13" lengthAdjust="spacing" textLength="174.0908" x="742.3184" y="457.9717">SELECT * FROM permissions</text><polygon fill="#181818" points="746.3184,489.1797,736.3184,493.1797,746.3184,497.1797,742.3184,493.1797" style="stroke:#181818;stroke-width:1.0;"/><line style="stroke:#181818;stroke-width:1.0;stroke-dasharray:2.0,2.0;" x1="740.3184" x2="1094.6206" y1="493.1797" y2="493.1797"/><text fill="#000000" font-family="sans-serif" font-size="13" lengthAdjust="spacing" textLength="88.8545" x="752.3184" y="488.3232">permissions list</text><polygon fill="#181818" points="348.6265,519.5313,338.6265,523.5313,348.6265,527.5313,344.6265,523.5313" style="stroke:#181818;stroke-width:1.0;"/><line style="stroke:#181818;stroke-width:1.0;stroke-dasharray:2.0,2.0;" x1="342.6265" x2="734.3184" y1="523.5313" y2="523.5313"/><text fill="#000000" font-family="sans-serif" font-size="13" lengthAdjust="spacing" textLength="191.4897" x="354.6265" y="518.6748">permissions grouped by category</text><polygon fill="#181818" points="56.5586,549.8828,46.5586,553.8828,56.5586,557.8828,52.5586,553.8828" style="stroke:#181818;stroke-width:1.0;"/><line style="stroke:#181818;stroke-width:1.0;stroke-dasharray:2.0,2.0;" x1="50.5586" x2="336.6265" y1="553.8828" y2="553.8828"/><text fill="#000000" font-family="sans-serif" font-size="13" lengthAdjust="spacing" textLength="268.0679" x="62.5586" y="549.0264">Tampilkan form dengan checkbox permissions</text><polygon fill="#181818" points="325.6265,580.2344,335.6265,584.2344,325.6265,588.2344,329.6265,584.2344" style="stroke:#181818;stroke-width:1.0;"/><line style="stroke:#181818;stroke-width:1.0;" x1="45.5586" x2="331.6265" y1="584.2344" y2="584.2344"/><text fill="#000000" font-family="sans-serif" font-size="13" lengthAdjust="spacing" textLength="101.9053" x="52.5586" y="579.3779">Input nama peran</text><polygon fill="#181818" points="325.6265,610.5859,335.6265,614.5859,325.6265,618.5859,329.6265,614.5859" style="stroke:#181818;stroke-width:1.0;"/><line style="stroke:#181818;stroke-width:1.0;" x1="45.5586" x2="331.6265" y1="614.5859" y2="614.5859"/><text fill="#000000" font-family="sans-serif" font-size="13" lengthAdjust="spacing" textLength="97.5317" x="52.5586" y="609.7295">Pilih permissions</text><polygon fill="#181818" points="325.6265,640.9375,335.6265,644.9375,325.6265,648.9375,329.6265,644.9375" style="stroke:#181818;stroke-width:1.0;"/><line style="stroke:#181818;stroke-width:1.0;" x1="45.5586" x2="331.6265" y1="644.9375" y2="644.9375"/><text fill="#000000" font-family="sans-serif" font-size="13" lengthAdjust="spacing" textLength="40.46" x="52.5586" y="640.0811">Submit</text><polygon fill="#181818" points="630.4531,671.2891,640.4531,675.2891,630.4531,679.2891,634.4531,675.2891" style="stroke:#181818;stroke-width:1.0;"/><line style="stroke:#181818;stroke-width:1.0;" x1="337.6265" x2="636.4531" y1="675.2891" y2="675.2891"/><text fill="#000000" font-family="sans-serif" font-size="13" lengthAdjust="spacing" textLength="280.8267" x="344.6265" y="670.4326">create(['name' =&gt; name, 'guard_name' =&gt; 'web'])</text><polygon fill="#181818" points="1083.6206,701.6406,1093.6206,705.6406,1083.6206,709.6406,1087.6206,705.6406" style="stroke:#181818;stroke-width:1.0;"/><line style="stroke:#181818;stroke-width:1.0;" x1="642.4531" x2="1089.6206" y1="705.6406" y2="705.6406"/><text fill="#000000" font-family="sans-serif" font-size="13" lengthAdjust="spacing" textLength="114.1245" x="649.4531" y="700.7842">INSERT INTO roles</text><polygon fill="#181818" points="653.4531,731.9922,643.4531,735.9922,653.4531,739.9922,649.4531,735.9922" style="stroke:#181818;stroke-width:1.0;"/><line style="stroke:#181818;stroke-width:1.0;stroke-dasharray:2.0,2.0;" x1="647.4531" x2="1094.6206" y1="735.9922" y2="735.9922"/><text fill="#000000" font-family="sans-serif" font-size="13" lengthAdjust="spacing" textLength="68.6499" x="659.4531" y="731.1357">role created</text><polygon fill="#181818" points="630.4531,762.3438,640.4531,766.3438,630.4531,770.3438,634.4531,766.3438" style="stroke:#181818;stroke-width:1.0;"/><line style="stroke:#181818;stroke-width:1.0;" x1="337.6265" x2="636.4531" y1="766.3438" y2="766.3438"/><text fill="#000000" font-family="sans-serif" font-size="13" lengthAdjust="spacing" textLength="231.188" x="344.6265" y="761.4873">syncPermissions(selected_permissions)</text><polygon fill="#181818" points="1083.6206,792.6953,1093.6206,796.6953,1083.6206,800.6953,1087.6206,796.6953" style="stroke:#181818;stroke-width:1.0;"/><line style="stroke:#181818;stroke-width:1.0;" x1="642.4531" x2="1089.6206" y1="796.6953" y2="796.6953"/><text fill="#000000" font-family="sans-serif" font-size="13" lengthAdjust="spacing" textLength="212.3989" x="649.4531" y="791.8389">INSERT INTO role_has_permissions</text><polygon fill="#181818" points="653.4531,823.0469,643.4531,827.0469,653.4531,831.0469,649.4531,827.0469" style="stroke:#181818;stroke-width:1.0;"/><line style="stroke:#181818;stroke-width:1.0;stroke-dasharray:2.0,2.0;" x1="647.4531" x2="1094.6206" y1="827.0469" y2="827.0469"/><text fill="#000000" font-family="sans-serif" font-size="13" lengthAdjust="spacing" textLength="114.1563" x="659.4531" y="822.1904">permissions synced</text><polygon fill="#181818" points="56.5586,853.3984,46.5586,857.3984,56.5586,861.3984,52.5586,857.3984" style="stroke:#181818;stroke-width:1.0;"/><line style="stroke:#181818;stroke-width:1.0;stroke-dasharray:2.0,2.0;" x1="50.5586" x2="336.6265" y1="857.3984" y2="857.3984"/><text fill="#000000" font-family="sans-serif" font-size="13" lengthAdjust="spacing" textLength="122.8589" x="62.5586" y="852.542">Peran berhasil dibuat</text><rect fill="#EEEEEE" height="3" style="stroke:#EEEEEE;stroke-width:1.0;" width="1148.5859" x="0" y="886.5742"/><line style="stroke:#000000;stroke-width:1.0;" x1="0" x2="1148.5859" y1="886.5742" y2="886.5742"/><line style="stroke:#000000;stroke-width:1.0;" x1="0" x2="1148.5859" y1="889.5742" y2="889.5742"/><rect fill="#EEEEEE" height="24.3516" style="stroke:#000000;stroke-width:2.0;" width="122.3481" x="513.1189" y="875.3984"/><text fill="#000000" font-family="sans-serif" font-size="13" font-weight="bold" lengthAdjust="spacing" textLength="104.7363" x="519.1189" y="892.8936">Mengubah Peran</text><polygon fill="#181818" points="325.6265,928.1016,335.6265,932.1016,325.6265,936.1016,329.6265,932.1016" style="stroke:#181818;stroke-width:1.0;"/><line style="stroke:#181818;stroke-width:1.0;" x1="45.5586" x2="331.6265" y1="932.1016" y2="932.1016"/><text fill="#000000" font-family="sans-serif" font-size="13" lengthAdjust="spacing" textLength="121.4116" x="52.5586" y="927.2451">Pilih peran untuk edit</text><polygon fill="#181818" points="630.4531,958.4531,640.4531,962.4531,630.4531,966.4531,634.4531,962.4531" style="stroke:#181818;stroke-width:1.0;"/><line style="stroke:#181818;stroke-width:1.0;" x1="337.6265" x2="636.4531" y1="962.4531" y2="962.4531"/><text fill="#000000" font-family="sans-serif" font-size="13" lengthAdjust="spacing" textLength="157.752" x="344.6265" y="957.5967">find(id)-&gt;with('permissions')</text><polygon fill="#181818" points="348.6265,988.8047,338.6265,992.8047,348.6265,996.8047,344.6265,992.8047" style="stroke:#181818;stroke-width:1.0;"/><line style="stroke:#181818;stroke-width:1.0;stroke-dasharray:2.0,2.0;" x1="342.6265" x2="641.4531" y1="992.8047" y2="992.8047"/><text fill="#000000" font-family="sans-serif" font-size="13" lengthAdjust="spacing" textLength="50.5908" x="354.6265" y="987.9482">role data</text><polygon fill="#181818" points="325.6265,1019.1563,335.6265,1023.1563,325.6265,1027.1563,329.6265,1023.1563" style="stroke:#181818;stroke-width:1.0;"/><line style="stroke:#181818;stroke-width:1.0;" x1="45.5586" x2="331.6265" y1="1023.1563" y2="1023.1563"/><text fill="#000000" font-family="sans-serif" font-size="13" lengthAdjust="spacing" textLength="151.0171" x="52.5586" y="1018.2998">Update nama/permissions</text><polygon fill="#181818" points="325.6265,1049.5078,335.6265,1053.5078,325.6265,1057.5078,329.6265,1053.5078" style="stroke:#181818;stroke-width:1.0;"/><line style="stroke:#181818;stroke-width:1.0;" x1="45.5586" x2="331.6265" y1="1053.5078" y2="1053.5078"/><text fill="#000000" font-family="sans-serif" font-size="13" lengthAdjust="spacing" textLength="40.46" x="52.5586" y="1048.6514">Submit</text><polygon fill="#181818" points="630.4531,1079.8594,640.4531,1083.8594,630.4531,1087.8594,634.4531,1083.8594" style="stroke:#181818;stroke-width:1.0;"/><line style="stroke:#181818;stroke-width:1.0;" x1="337.6265" x2="636.4531" y1="1083.8594" y2="1083.8594"/><text fill="#000000" font-family="sans-serif" font-size="13" lengthAdjust="spacing" textLength="148.0527" x="344.6265" y="1079.0029">update(['name' =&gt; name])</text><polygon fill="#181818" points="1083.6206,1110.2109,1093.6206,1114.2109,1083.6206,1118.2109,1087.6206,1114.2109" style="stroke:#181818;stroke-width:1.0;"/><line style="stroke:#181818;stroke-width:1.0;" x1="642.4531" x2="1089.6206" y1="1114.2109" y2="1114.2109"/><text fill="#000000" font-family="sans-serif" font-size="13" lengthAdjust="spacing" textLength="84.519" x="649.4531" y="1109.3545">UPDATE roles</text><polygon fill="#181818" points="653.4531,1140.5625,643.4531,1144.5625,653.4531,1148.5625,649.4531,1144.5625" style="stroke:#181818;stroke-width:1.0;"/><line style="stroke:#181818;stroke-width:1.0;stroke-dasharray:2.0,2.0;" x1="647.4531" x2="1094.6206" y1="1144.5625" y2="1144.5625"/><text fill="#000000" font-family="sans-serif" font-size="13" lengthAdjust="spacing" textLength="46.9917" x="659.4531" y="1139.7061">updated</text><polygon fill="#181818" points="630.4531,1170.9141,640.4531,1174.9141,630.4531,1178.9141,634.4531,1174.9141" style="stroke:#181818;stroke-width:1.0;"/><line style="stroke:#181818;stroke-width:1.0;" x1="337.6265" x2="636.4531" y1="1174.9141" y2="1174.9141"/><text fill="#000000" font-family="sans-serif" font-size="13" lengthAdjust="spacing" textLength="206.6162" x="344.6265" y="1170.0576">syncPermissions(new_permissions)</text><polygon fill="#181818" points="1083.6206,1201.2656,1093.6206,1205.2656,1083.6206,1209.2656,1087.6206,1205.2656" style="stroke:#181818;stroke-width:1.0;"/><line style="stroke:#181818;stroke-width:1.0;" x1="642.4531" x2="1089.6206" y1="1205.2656" y2="1205.2656"/><text fill="#000000" font-family="sans-serif" font-size="13" lengthAdjust="spacing" textLength="339.1997" x="649.4531" y="1200.4092">DELETE FROM role_has_permissions WHERE role_id = ?</text><polygon fill="#181818" points="1083.6206,1231.6172,1093.6206,1235.6172,1083.6206,1239.6172,1087.6206,1235.6172" style="stroke:#181818;stroke-width:1.0;"/><line style="stroke:#181818;stroke-width:1.0;" x1="642.4531" x2="1089.6206" y1="1235.6172" y2="1235.6172"/><text fill="#000000" font-family="sans-serif" font-size="13" lengthAdjust="spacing" textLength="212.3989" x="649.4531" y="1230.7607">INSERT INTO role_has_permissions</text><polygon fill="#181818" points="653.4531,1261.9688,643.4531,1265.9688,653.4531,1269.9688,649.4531,1265.9688" style="stroke:#181818;stroke-width:1.0;"/><line style="stroke:#181818;stroke-width:1.0;stroke-dasharray:2.0,2.0;" x1="647.4531" x2="1094.6206" y1="1265.9688" y2="1265.9688"/><text fill="#000000" font-family="sans-serif" font-size="13" lengthAdjust="spacing" textLength="114.1563" x="659.4531" y="1261.1123">permissions synced</text><polygon fill="#181818" points="56.5586,1292.3203,46.5586,1296.3203,56.5586,1300.3203,52.5586,1296.3203" style="stroke:#181818;stroke-width:1.0;"/><line style="stroke:#181818;stroke-width:1.0;stroke-dasharray:2.0,2.0;" x1="50.5586" x2="336.6265" y1="1296.3203" y2="1296.3203"/><text fill="#000000" font-family="sans-serif" font-size="13" lengthAdjust="spacing" textLength="145.2534" x="62.5586" y="1291.4639">Peran berhasil diperbarui</text><rect fill="#EEEEEE" height="3" style="stroke:#EEEEEE;stroke-width:1.0;" width="1148.5859" x="0" y="1325.4961"/><line style="stroke:#000000;stroke-width:1.0;" x1="0" x2="1148.5859" y1="1325.4961" y2="1325.4961"/><line style="stroke:#000000;stroke-width:1.0;" x1="0" x2="1148.5859" y1="1328.4961" y2="1328.4961"/><rect fill="#EEEEEE" height="24.3516" style="stroke:#000000;stroke-width:2.0;" width="129.5781" x="509.5039" y="1314.3203"/><text fill="#000000" font-family="sans-serif" font-size="13" font-weight="bold" lengthAdjust="spacing" textLength="111.9663" x="515.5039" y="1331.8154">Menghapus Peran</text><polygon fill="#181818" points="325.6265,1367.0234,335.6265,1371.0234,325.6265,1375.0234,329.6265,1371.0234" style="stroke:#181818;stroke-width:1.0;"/><line style="stroke:#181818;stroke-width:1.0;" x1="45.5586" x2="331.6265" y1="1371.0234" y2="1371.0234"/><text fill="#000000" font-family="sans-serif" font-size="13" lengthAdjust="spacing" textLength="135.8716" x="52.5586" y="1366.167">Pilih peran untuk hapus</text><polygon fill="#181818" points="801.0044,1397.375,811.0044,1401.375,801.0044,1405.375,805.0044,1401.375" style="stroke:#181818;stroke-width:1.0;"/><line style="stroke:#181818;stroke-width:1.0;" x1="337.6265" x2="807.0044" y1="1401.375" y2="1401.375"/><text fill="#000000" font-family="sans-serif" font-size="13" lengthAdjust="spacing" textLength="198.9546" x="344.6265" y="1396.5186">whereHas('roles', role_id)-&gt;count()</text><polygon fill="#181818" points="1083.6206,1427.7266,1093.6206,1431.7266,1083.6206,1435.7266,1087.6206,1431.7266" style="stroke:#181818;stroke-width:1.0;"/><line style="stroke:#181818;stroke-width:1.0;" x1="813.0044" x2="1089.6206" y1="1431.7266" y2="1431.7266"/><text fill="#000000" font-family="sans-serif" font-size="13" lengthAdjust="spacing" textLength="258.6162" x="820.0044" y="1426.8701">SELECT COUNT(*) FROM model_has_roles</text><polygon fill="#181818" points="824.0044,1458.0781,814.0044,1462.0781,824.0044,1466.0781,820.0044,1462.0781" style="stroke:#181818;stroke-width:1.0;"/><line style="stroke:#181818;stroke-width:1.0;stroke-dasharray:2.0,2.0;" x1="818.0044" x2="1094.6206" y1="1462.0781" y2="1462.0781"/><text fill="#000000" font-family="sans-serif" font-size="13" lengthAdjust="spacing" textLength="60.7026" x="830.0044" y="1457.2217">user count</text><path d="M10,1477.0781 L70.1709,1477.0781 L70.1709,1485.4297 L60.1709,1495.4297 L10,1495.4297 L10,1477.0781 " fill="#EEEEEE" style="stroke:#000000;stroke-width:1.5;"/><rect fill="none" height="232.6484" style="stroke:#000000;stroke-width:1.5;" width="1128.5859" x="10" y="1477.0781"/><text fill="#000000" font-family="sans-serif" font-size="13" font-weight="bold" lengthAdjust="spacing" textLength="15.1709" x="25" y="1491.5732">alt</text><text fill="#000000" font-family="sans-serif" font-size="11" font-weight="bold" lengthAdjust="spacing" textLength="193.7622" x="85.1709" y="1490.4971">[Ada user yang menggunakan peran]</text><polygon fill="#181818" points="56.5586,1530.1328,46.5586,1534.1328,56.5586,1538.1328,52.5586,1534.1328" style="stroke:#181818;stroke-width:1.0;"/><line style="stroke:#181818;stroke-width:1.0;stroke-dasharray:2.0,2.0;" x1="50.5586" x2="336.6265" y1="1534.1328" y2="1534.1328"/><text fill="#000000" font-family="sans-serif" font-size="13" lengthAdjust="spacing" textLength="117.0825" x="62.5586" y="1512.9248">Tidak dapat dihapus</text><text fill="#000000" font-family="sans-serif" font-size="13" lengthAdjust="spacing" textLength="106.9453" x="62.5586" y="1529.2764">(masih digunakan)</text><line style="stroke:#000000;stroke-width:1.0;stroke-dasharray:2.0,2.0;" x1="10" x2="1138.5859" y1="1543.1328" y2="1543.1328"/><text fill="#000000" font-family="sans-serif" font-size="11" font-weight="bold" lengthAdjust="spacing" textLength="84.3584" x="15" y="1554.5518">[Tidak ada user]</text><polygon fill="#181818" points="630.4531,1576.3203,640.4531,1580.3203,630.4531,1584.3203,634.4531,1580.3203" style="stroke:#181818;stroke-width:1.0;"/><line style="stroke:#181818;stroke-width:1.0;" x1="337.6265" x2="636.4531" y1="1580.3203" y2="1580.3203"/><text fill="#000000" font-family="sans-serif" font-size="13" lengthAdjust="spacing" textLength="44.0781" x="344.6265" y="1575.4639">delete()</text><polygon fill="#181818" points="1083.6206,1606.6719,1093.6206,1610.6719,1083.6206,1614.6719,1087.6206,1610.6719" style="stroke:#181818;stroke-width:1.0;"/><line style="stroke:#181818;stroke-width:1.0;" x1="642.4531" x2="1089.6206" y1="1610.6719" y2="1610.6719"/><text fill="#000000" font-family="sans-serif" font-size="13" lengthAdjust="spacing" textLength="212.0181" x="649.4531" y="1605.8154">DELETE FROM roles WHERE id = ?</text><polygon fill="#181818" points="1083.6206,1637.0234,1093.6206,1641.0234,1083.6206,1645.0234,1087.6206,1641.0234" style="stroke:#181818;stroke-width:1.0;"/><line style="stroke:#181818;stroke-width:1.0;" x1="642.4531" x2="1089.6206" y1="1641.0234" y2="1641.0234"/><text fill="#000000" font-family="sans-serif" font-size="13" lengthAdjust="spacing" textLength="339.1997" x="649.4531" y="1636.167">DELETE FROM role_has_permissions WHERE role_id = ?</text><polygon fill="#181818" points="653.4531,1667.375,643.4531,1671.375,653.4531,1675.375,649.4531,1671.375" style="stroke:#181818;stroke-width:1.0;"/><line style="stroke:#181818;stroke-width:1.0;stroke-dasharray:2.0,2.0;" x1="647.4531" x2="1094.6206" y1="1671.375" y2="1671.375"/><text fill="#000000" font-family="sans-serif" font-size="13" lengthAdjust="spacing" textLength="42.6499" x="659.4531" y="1666.5186">deleted</text><polygon fill="#181818" points="56.5586,1697.7266,46.5586,1701.7266,56.5586,1705.7266,52.5586,1701.7266" style="stroke:#181818;stroke-width:1.0;"/><line style="stroke:#181818;stroke-width:1.0;stroke-dasharray:2.0,2.0;" x1="50.5586" x2="336.6265" y1="1701.7266" y2="1701.7266"/><text fill="#000000" font-family="sans-serif" font-size="13" lengthAdjust="spacing" textLength="132.9771" x="62.5586" y="1696.8701">Peran berhasil dihapus</text><!--SRC=[nLLDRzf04BtxLunoiOaIvOv4gX9eapO9Y0_rq5Hex9tOA-orPQzB-VUTzOAnmQHfB-M2T-VjVBnvEuk1JdEOKY9ZkGOiO5bGxcIOQnd839M6Yodbg62A8Rqexr7-f8tCgNTXmBCq9cDe7vXdg2KPsujwIWN5DVR4SIABGgQgYJlijj4ciIREhAkL8r2ZZmN1QF_1vj7GSGO3UA9OHgZPzAhH56fg6GmSSngkR-iA-l1vl82RpDYT_UOUq8UDr97dPdLgXTkxlWr9UxqAR82ZOH_cuyVntG8kuTDiyWGvMueNzMNoy5nzho8iLWqVpcW8rtM82bq5WYR6kczbQf6nB7GZKqQOclgmm2IJyPhB5BPcMvCb8_5B9iEoCCIyxARYgz721JloCRBWYnOdXnRr0UEOIJZiT5FHKNNJISDiwshwQwNMH8PvMcOamDz2W9h2DD- -JSXhcYSWI8Ny7KGKhFtqLokr3YuUL5PgK9ZWZiXJo9JlJhjffvXvwITIEntI2dBYvBtlBiSW5mQt9XXTWHkMc8jLlUjko7T_jFNsy3mVpnRyjvXOLPnAQkTVT8KkjYeuC5ru1SKKCBOfqhS3lYtfPhDCh7OMTOEi77tAsPcCGKWZqfrWLLZM8kmMQyq-0qgbopMGaBgZsbUfX2S5NzoEstpkde4PBbswM6PieKeOD__Q-hBoSTpwenulfwEFYt5NU-tnTtLMqUPyKqTyLJb2FREEcmhVxiSpcy5A2XZ0X_-W2Jxdyy2IjIuYpChYxuHH7McnLJyYFE8ZokaU2y-jg7QlzWMpO8AK7V2Og-57K-vkidnUU9Szos5Y41KBhQOrOfKcsSgfus2iuQD0kxT55KB2rOMbGZEoxCm1_dLDDYbmpGhbzvOPgghZ9pfXnY9Uxrpq78hvIRHOt0KwyhXl3YT7BCXURJudaRqcTdBu4_mTYZ8kMaAnkOZAS8w04vNO3fCIpcy0]--></g></svg>