<svg xmlns="http://www.w3.org/2000/svg" xmlns:xlink="http://www.w3.org/1999/xlink" contentStyleType="text/css" height="830px" preserveAspectRatio="none" style="width:867px;height:830px;background:#FFFFFF;" version="1.1" viewBox="0 0 867 830" width="867px" zoomAndPan="magnify"><title>Sequence Diagram</title><defs/><g><text fill="#000000" font-family="sans-serif" font-size="14" font-weight="bold" lengthAdjust="spacing" textLength="126.0479" x="369.678" y="29.5332">Sequence Diagram</text><text fill="#000000" font-family="sans-serif" font-size="14" font-weight="bold" lengthAdjust="spacing" textLength="154.0273" x="355.6882" y="47.1426">Pengelolaan Pengguna</text><line style="stroke:#181818;stroke-width:0.5;stroke-dasharray:5.0,5.0;" x1="27" x2="27" y1="138.8281" y2="748.5078"/><line style="stroke:#181818;stroke-width:0.5;stroke-dasharray:5.0,5.0;" x1="254.8198" x2="254.8198" y1="138.8281" y2="748.5078"/><line style="stroke:#181818;stroke-width:0.5;stroke-dasharray:5.0,5.0;" x1="516.3652" x2="516.3652" y1="138.8281" y2="748.5078"/><line style="stroke:#181818;stroke-width:0.5;stroke-dasharray:5.0,5.0;" x1="655.2969" x2="655.2969" y1="138.8281" y2="748.5078"/><line style="stroke:#181818;stroke-width:0.5;stroke-dasharray:5.0,5.0;" x1="818.0522" x2="818.0522" y1="138.8281" y2="748.5078"/><text fill="#000000" font-family="sans-serif" font-size="14" lengthAdjust="spacing" textLength="39.6826" x="5" y="135.752">Admin</text><ellipse cx="27.8413" cy="69.7188" fill="#E2E2F0" rx="8" ry="8" style="stroke:#181818;stroke-width:0.5;"/><path d="M27.8413,77.7188 L27.8413,104.7188 M14.8413,85.7188 L40.8413,85.7188 M27.8413,104.7188 L14.8413,119.7188 M27.8413,104.7188 L40.8413,119.7188 " fill="none" style="stroke:#181818;stroke-width:0.5;"/><text fill="#000000" font-family="sans-serif" font-size="14" lengthAdjust="spacing" textLength="39.6826" x="5" y="762.041">Admin</text><ellipse cx="27.8413" cy="773.6172" fill="#E2E2F0" rx="8" ry="8" style="stroke:#181818;stroke-width:0.5;"/><path d="M27.8413,781.6172 L27.8413,808.6172 M14.8413,789.6172 L40.8413,789.6172 M27.8413,808.6172 L14.8413,823.6172 M27.8413,808.6172 L40.8413,823.6172 " fill="none" style="stroke:#181818;stroke-width:0.5;"/><rect fill="#E2E2F0" height="31.6094" rx="2.5" ry="2.5" style="stroke:#181818;stroke-width:0.5;" width="76.2549" x="216.8198" y="106.2188"/><text fill="#000000" font-family="sans-serif" font-size="14" lengthAdjust="spacing" textLength="62.2549" x="223.8198" y="127.752">UserPage</text><rect fill="#E2E2F0" height="31.6094" rx="2.5" ry="2.5" style="stroke:#181818;stroke-width:0.5;" width="76.2549" x="216.8198" y="747.5078"/><text fill="#000000" font-family="sans-serif" font-size="14" lengthAdjust="spacing" textLength="62.2549" x="223.8198" y="769.041">UserPage</text><rect fill="#E2E2F0" height="31.6094" rx="2.5" ry="2.5" style="stroke:#181818;stroke-width:0.5;" width="104.248" x="464.3652" y="106.2188"/><text fill="#000000" font-family="sans-serif" font-size="14" lengthAdjust="spacing" textLength="90.248" x="471.3652" y="127.752">UserController</text><rect fill="#E2E2F0" height="31.6094" rx="2.5" ry="2.5" style="stroke:#181818;stroke-width:0.5;" width="104.248" x="464.3652" y="747.5078"/><text fill="#000000" font-family="sans-serif" font-size="14" lengthAdjust="spacing" textLength="90.248" x="471.3652" y="769.041">UserController</text><rect fill="#E2E2F0" height="31.6094" rx="2.5" ry="2.5" style="stroke:#181818;stroke-width:0.5;" width="85.5791" x="613.2969" y="106.2188"/><text fill="#000000" font-family="sans-serif" font-size="14" lengthAdjust="spacing" textLength="71.5791" x="620.2969" y="127.752">User Model</text><rect fill="#E2E2F0" height="31.6094" rx="2.5" ry="2.5" style="stroke:#181818;stroke-width:0.5;" width="85.5791" x="613.2969" y="747.5078"/><text fill="#000000" font-family="sans-serif" font-size="14" lengthAdjust="spacing" textLength="71.5791" x="620.2969" y="769.041">User Model</text><rect fill="#E2E2F0" height="31.6094" rx="2.5" ry="2.5" style="stroke:#181818;stroke-width:0.5;" width="86.3516" x="775.0522" y="106.2188"/><text fill="#000000" font-family="sans-serif" font-size="14" lengthAdjust="spacing" textLength="72.3516" x="782.0522" y="127.752">MailService</text><rect fill="#E2E2F0" height="31.6094" rx="2.5" ry="2.5" style="stroke:#181818;stroke-width:0.5;" width="86.3516" x="775.0522" y="747.5078"/><text fill="#000000" font-family="sans-serif" font-size="14" lengthAdjust="spacing" textLength="72.3516" x="782.0522" y="769.041">MailService</text><polygon fill="#181818" points="242.9473,167.1797,252.9473,171.1797,242.9473,175.1797,246.9473,171.1797" style="stroke:#181818;stroke-width:1.0;"/><line style="stroke:#181818;stroke-width:1.0;" x1="27.8413" x2="248.9473" y1="171.1797" y2="171.1797"/><text fill="#000000" font-family="sans-serif" font-size="13" lengthAdjust="spacing" textLength="166.207" x="58.2908" y="166.3232">Mengakses halaman pekerja</text><polygon fill="#181818" points="504.4893,197.5313,514.4893,201.5313,504.4893,205.5313,508.4893,201.5313" style="stroke:#181818;stroke-width:1.0;"/><line style="stroke:#181818;stroke-width:1.0;" x1="254.9473" x2="510.4893" y1="201.5313" y2="201.5313"/><text fill="#000000" font-family="sans-serif" font-size="13" lengthAdjust="spacing" textLength="44.7891" x="363.3237" y="196.6748">mount()</text><polygon fill="#181818" points="644.0864,227.8828,654.0864,231.8828,644.0864,235.8828,648.0864,231.8828" style="stroke:#181818;stroke-width:1.0;"/><line style="stroke:#181818;stroke-width:1.0;" x1="516.4893" x2="650.0864" y1="231.8828" y2="231.8828"/><text fill="#000000" font-family="sans-serif" font-size="13" lengthAdjust="spacing" textLength="41.1772" x="565.6992" y="227.0264">getAll()</text><polygon fill="#181818" points="265.9473,258.2344,255.9473,262.2344,265.9473,266.2344,261.9473,262.2344" style="stroke:#181818;stroke-width:1.0;"/><line style="stroke:#181818;stroke-width:1.0;stroke-dasharray:2.0,2.0;" x1="259.9473" x2="515.4893" y1="262.2344" y2="262.2344"/><text fill="#000000" font-family="sans-serif" font-size="13" lengthAdjust="spacing" textLength="83.0718" x="344.1824" y="257.3779">displayUsers()</text><polygon fill="#181818" points="242.9473,288.5859,252.9473,292.5859,242.9473,296.5859,246.9473,292.5859" style="stroke:#181818;stroke-width:1.0;"/><line style="stroke:#181818;stroke-width:1.0;" x1="27.8413" x2="248.9473" y1="292.5859" y2="292.5859"/><text fill="#000000" font-family="sans-serif" font-size="13" lengthAdjust="spacing" textLength="190.0806" x="46.354" y="287.7295">Menambah pengguna baru(data)</text><polygon fill="#181818" points="504.4893,318.9375,514.4893,322.9375,504.4893,326.9375,508.4893,322.9375" style="stroke:#181818;stroke-width:1.0;"/><line style="stroke:#181818;stroke-width:1.0;" x1="254.9473" x2="510.4893" y1="322.9375" y2="322.9375"/><text fill="#000000" font-family="sans-serif" font-size="13" lengthAdjust="spacing" textLength="171.9453" x="299.7456" y="318.0811">createUser(name, email, role)</text><polygon fill="#181818" points="644.0864,349.2891,654.0864,353.2891,644.0864,357.2891,648.0864,353.2891" style="stroke:#181818;stroke-width:1.0;"/><line style="stroke:#181818;stroke-width:1.0;" x1="516.4893" x2="650.0864" y1="353.2891" y2="353.2891"/><text fill="#000000" font-family="sans-serif" font-size="13" lengthAdjust="spacing" textLength="115.5972" x="528.4893" y="348.4326">create(name, email)</text><line style="stroke:#181818;stroke-width:1.0;" x1="656.0864" x2="698.0864" y1="383.6406" y2="383.6406"/><line style="stroke:#181818;stroke-width:1.0;" x1="698.0864" x2="698.0864" y1="383.6406" y2="396.6406"/><line style="stroke:#181818;stroke-width:1.0;" x1="657.0864" x2="698.0864" y1="396.6406" y2="396.6406"/><polygon fill="#181818" points="667.0864,392.6406,657.0864,396.6406,667.0864,400.6406,663.0864,396.6406" style="stroke:#181818;stroke-width:1.0;"/><text fill="#000000" font-family="sans-serif" font-size="13" lengthAdjust="spacing" textLength="148.1416" x="663.0864" y="378.7842">generateInvitationToken()</text><polygon fill="#181818" points="806.228,422.9922,816.228,426.9922,806.228,430.9922,810.228,426.9922" style="stroke:#181818;stroke-width:1.0;"/><line style="stroke:#181818;stroke-width:1.0;" x1="516.4893" x2="812.228" y1="426.9922" y2="426.9922"/><text fill="#000000" font-family="sans-serif" font-size="13" lengthAdjust="spacing" textLength="146.6753" x="594.021" y="422.1357">sendInvitationEmail(user)</text><polygon fill="#181818" points="527.4893,453.3438,517.4893,457.3438,527.4893,461.3438,523.4893,457.3438" style="stroke:#181818;stroke-width:1.0;"/><line style="stroke:#181818;stroke-width:1.0;stroke-dasharray:2.0,2.0;" x1="521.4893" x2="817.228" y1="457.3438" y2="457.3438"/><text fill="#000000" font-family="sans-serif" font-size="13" lengthAdjust="spacing" textLength="57.8081" x="638.4546" y="452.4873">emailSent</text><polygon fill="#181818" points="265.9473,483.6953,255.9473,487.6953,265.9473,491.6953,261.9473,487.6953" style="stroke:#181818;stroke-width:1.0;"/><line style="stroke:#181818;stroke-width:1.0;stroke-dasharray:2.0,2.0;" x1="259.9473" x2="515.4893" y1="487.6953" y2="487.6953"/><text fill="#000000" font-family="sans-serif" font-size="13" lengthAdjust="spacing" textLength="237.542" x="266.9473" y="482.8389">showSuccess("Email undangan terkirim")</text><polygon fill="#181818" points="242.9473,514.0469,252.9473,518.0469,242.9473,522.0469,246.9473,518.0469" style="stroke:#181818;stroke-width:1.0;"/><line style="stroke:#181818;stroke-width:1.0;" x1="27.8413" x2="248.9473" y1="518.0469" y2="518.0469"/><text fill="#000000" font-family="sans-serif" font-size="13" lengthAdjust="spacing" textLength="203.106" x="39.8413" y="513.1904">Mengubah data pengguna(id, data)</text><polygon fill="#181818" points="504.4893,544.3984,514.4893,548.3984,504.4893,552.3984,508.4893,548.3984" style="stroke:#181818;stroke-width:1.0;"/><line style="stroke:#181818;stroke-width:1.0;" x1="254.9473" x2="510.4893" y1="548.3984" y2="548.3984"/><text fill="#000000" font-family="sans-serif" font-size="13" lengthAdjust="spacing" textLength="118.5107" x="326.4629" y="543.542">updateUser(id, data)</text><polygon fill="#181818" points="644.0864,574.75,654.0864,578.75,644.0864,582.75,648.0864,578.75" style="stroke:#181818;stroke-width:1.0;"/><line style="stroke:#181818;stroke-width:1.0;" x1="516.4893" x2="650.0864" y1="578.75" y2="578.75"/><text fill="#000000" font-family="sans-serif" font-size="13" lengthAdjust="spacing" textLength="73.7217" x="549.427" y="573.8936">update(data)</text><polygon fill="#181818" points="265.9473,605.1016,255.9473,609.1016,265.9473,613.1016,261.9473,609.1016" style="stroke:#181818;stroke-width:1.0;"/><line style="stroke:#181818;stroke-width:1.0;stroke-dasharray:2.0,2.0;" x1="259.9473" x2="515.4893" y1="609.1016" y2="609.1016"/><text fill="#000000" font-family="sans-serif" font-size="13" lengthAdjust="spacing" textLength="88.1372" x="341.6497" y="604.2451">showSuccess()</text><polygon fill="#181818" points="242.9473,635.4531,252.9473,639.4531,242.9473,643.4531,246.9473,639.4531" style="stroke:#181818;stroke-width:1.0;"/><line style="stroke:#181818;stroke-width:1.0;" x1="27.8413" x2="248.9473" y1="639.4531" y2="639.4531"/><text fill="#000000" font-family="sans-serif" font-size="13" lengthAdjust="spacing" textLength="145.9644" x="68.4121" y="634.5967">Mengubah status aktif(id)</text><polygon fill="#181818" points="504.4893,665.8047,514.4893,669.8047,504.4893,673.8047,508.4893,669.8047" style="stroke:#181818;stroke-width:1.0;"/><line style="stroke:#181818;stroke-width:1.0;" x1="254.9473" x2="510.4893" y1="669.8047" y2="669.8047"/><text fill="#000000" font-family="sans-serif" font-size="13" lengthAdjust="spacing" textLength="89.5972" x="340.9197" y="664.9482">toggleActive(id)</text><polygon fill="#181818" points="644.0864,696.1563,654.0864,700.1563,644.0864,704.1563,648.0864,700.1563" style="stroke:#181818;stroke-width:1.0;"/><line style="stroke:#181818;stroke-width:1.0;" x1="516.4893" x2="650.0864" y1="700.1563" y2="700.1563"/><text fill="#000000" font-family="sans-serif" font-size="13" lengthAdjust="spacing" textLength="79.479" x="546.5483" y="695.2998">toggleActive()</text><polygon fill="#181818" points="265.9473,726.5078,255.9473,730.5078,265.9473,734.5078,261.9473,730.5078" style="stroke:#181818;stroke-width:1.0;"/><line style="stroke:#181818;stroke-width:1.0;stroke-dasharray:2.0,2.0;" x1="259.9473" x2="515.4893" y1="730.5078" y2="730.5078"/><text fill="#000000" font-family="sans-serif" font-size="13" lengthAdjust="spacing" textLength="185.542" x="292.9473" y="725.6514">showSuccess("Status berubah")</text><!--SRC=[TLBBRkCm3BphAmYV723zWHuA1EaUUX0GmDjRBupCLLJBb5UFBFRlIzbD4oFjJU8CESC1q-1umeWZ9FfRY0rfIWajxRop38OuKrGgk-m9kayAF3kqqlF61s9BFdX4XlgsXL4fD3b4Q7RzwBW1J32_bEXaPzo4dA5vJHGFeZFZhuTxS1yun-0znOMolwU03Ztv1TPhMAFp7SMpCuk2xfIQNS33ayZ18sYnYqEY12VqECe24mqKtr49N4bx8OsXS6utIZwrfALaAU-y_wnTXlKkJHx_LrD9e7if78zu4eKb8ZXYB6sF6JUtQYOIPgf3MccWBT0eQsn1Og2LXuLuIn9OtrXaYa9uuRFBc5tWts4W_jf3Tq9AnFsLyAiEQOj8RvJ03nTBy_1Ehc2rRZg5VrqnHawbRUPMADoZ1CeWzpAuwCRcknXigJ7KnR-oQ5s_XRieojHVehZ1hmaiU7kjVsVjPmT9jYu9SCZkZmYif7EmrjFEP7Uc1RlAhh2VXPjkcN-aMEKaYWy0]--></g></svg>