<svg xmlns="http://www.w3.org/2000/svg" xmlns:xlink="http://www.w3.org/1999/xlink" contentStyleType="text/css" height="1071px" preserveAspectRatio="none" style="width:1249px;height:1071px;background:#FFFFFF;" version="1.1" viewBox="0 0 1249 1071" width="1249px" zoomAndPan="magnify"><title>Sequence Diagram</title><defs/><g><text fill="#000000" font-family="sans-serif" font-size="14" font-weight="bold" lengthAdjust="spacing" textLength="126.0479" x="560.5117" y="29.5332">Sequence Diagram</text><text fill="#000000" font-family="sans-serif" font-size="14" font-weight="bold" lengthAdjust="spacing" textLength="142.3584" x="552.3564" y="47.1426">Melihat Detail Produk</text><rect fill="none" height="125.2422" style="stroke:#000000;stroke-width:1.5;" width="871.3613" x="300.9033" y="246.8828"/><rect fill="none" height="94.8906" style="stroke:#000000;stroke-width:1.5;" width="441.6406" x="10" y="446.8281"/><rect fill="none" height="94.8906" style="stroke:#000000;stroke-width:1.5;" width="441.6406" x="10" y="555.7188"/><rect fill="none" height="94.8906" style="stroke:#000000;stroke-width:1.5;" width="441.6406" x="10" y="664.6094"/><line style="stroke:#181818;stroke-width:0.5;stroke-dasharray:5.0,5.0;" x1="60" x2="60" y1="138.8281" y2="988.9609"/><line style="stroke:#181818;stroke-width:0.5;stroke-dasharray:5.0,5.0;" x1="375.9033" x2="375.9033" y1="138.8281" y2="988.9609"/><line style="stroke:#181818;stroke-width:0.5;stroke-dasharray:5.0,5.0;" x1="736.6499" x2="736.6499" y1="138.8281" y2="988.9609"/><line style="stroke:#181818;stroke-width:0.5;stroke-dasharray:5.0,5.0;" x1="1131.0166" x2="1131.0166" y1="138.8281" y2="988.9609"/><line style="stroke:#181818;stroke-width:0.5;stroke-dasharray:5.0,5.0;" x1="1207.2646" x2="1207.2646" y1="138.8281" y2="988.9609"/><text fill="#000000" font-family="sans-serif" font-size="14" lengthAdjust="spacing" textLength="74.7373" x="20" y="135.752">Pengunjung</text><ellipse cx="60.3687" cy="69.7188" fill="#E2E2F0" rx="8" ry="8" style="stroke:#181818;stroke-width:0.5;"/><path d="M60.3687,77.7188 L60.3687,104.7188 M47.3687,85.7188 L73.3687,85.7188 M60.3687,104.7188 L47.3687,119.7188 M60.3687,104.7188 L73.3687,119.7188 " fill="none" style="stroke:#181818;stroke-width:0.5;"/><text fill="#000000" font-family="sans-serif" font-size="14" lengthAdjust="spacing" textLength="74.7373" x="20" y="1002.4941">Pengunjung</text><ellipse cx="60.3687" cy="1014.0703" fill="#E2E2F0" rx="8" ry="8" style="stroke:#181818;stroke-width:0.5;"/><path d="M60.3687,1022.0703 L60.3687,1049.0703 M47.3687,1030.0703 L73.3687,1030.0703 M60.3687,1049.0703 L47.3687,1064.0703 M60.3687,1049.0703 L73.3687,1064.0703 " fill="none" style="stroke:#181818;stroke-width:0.5;"/><rect fill="#E2E2F0" height="31.6094" rx="2.5" ry="2.5" style="stroke:#181818;stroke-width:0.5;" width="130.7373" x="310.9033" y="106.2188"/><text fill="#000000" font-family="sans-serif" font-size="14" lengthAdjust="spacing" textLength="116.7373" x="317.9033" y="127.752">ProductDetailPage</text><rect fill="#E2E2F0" height="31.6094" rx="2.5" ry="2.5" style="stroke:#181818;stroke-width:0.5;" width="130.7373" x="310.9033" y="987.9609"/><text fill="#000000" font-family="sans-serif" font-size="14" lengthAdjust="spacing" textLength="116.7373" x="317.9033" y="1009.4941">ProductDetailPage</text><rect fill="#E2E2F0" height="31.6094" rx="2.5" ry="2.5" style="stroke:#181818;stroke-width:0.5;" width="158.7305" x="657.6499" y="106.2188"/><text fill="#000000" font-family="sans-serif" font-size="14" lengthAdjust="spacing" textLength="144.7305" x="664.6499" y="127.752">ProductDetailController</text><rect fill="#E2E2F0" height="31.6094" rx="2.5" ry="2.5" style="stroke:#181818;stroke-width:0.5;" width="158.7305" x="657.6499" y="987.9609"/><text fill="#000000" font-family="sans-serif" font-size="14" lengthAdjust="spacing" textLength="144.7305" x="664.6499" y="1009.4941">ProductDetailController</text><rect fill="#E2E2F0" height="31.6094" rx="2.5" ry="2.5" style="stroke:#181818;stroke-width:0.5;" width="62.248" x="1100.0166" y="106.2188"/><text fill="#000000" font-family="sans-serif" font-size="14" lengthAdjust="spacing" textLength="48.248" x="1107.0166" y="127.752">Product</text><rect fill="#E2E2F0" height="31.6094" rx="2.5" ry="2.5" style="stroke:#181818;stroke-width:0.5;" width="62.248" x="1100.0166" y="987.9609"/><text fill="#000000" font-family="sans-serif" font-size="14" lengthAdjust="spacing" textLength="48.248" x="1107.0166" y="1009.4941">Product</text><rect fill="#E2E2F0" height="31.6094" rx="2.5" ry="2.5" style="stroke:#181818;stroke-width:0.5;" width="70.8066" x="1172.2646" y="106.2188"/><text fill="#000000" font-family="sans-serif" font-size="14" lengthAdjust="spacing" textLength="56.8066" x="1179.2646" y="127.752">Category</text><rect fill="#E2E2F0" height="31.6094" rx="2.5" ry="2.5" style="stroke:#181818;stroke-width:0.5;" width="70.8066" x="1172.2646" y="987.9609"/><text fill="#000000" font-family="sans-serif" font-size="14" lengthAdjust="spacing" textLength="56.8066" x="1179.2646" y="1009.4941">Category</text><polygon fill="#181818" points="364.272,167.1797,374.272,171.1797,364.272,175.1797,368.272,171.1797" style="stroke:#181818;stroke-width:1.0;"/><line style="stroke:#181818;stroke-width:1.0;" x1="60.3687" x2="370.272" y1="171.1797" y2="171.1797"/><text fill="#000000" font-family="sans-serif" font-size="13" lengthAdjust="spacing" textLength="163.3062" x="136.6672" y="166.3232">Mengakses detail produk(id)</text><polygon fill="#181818" points="725.0151,197.5313,735.0151,201.5313,725.0151,205.5313,729.0151,201.5313" style="stroke:#181818;stroke-width:1.0;"/><line style="stroke:#181818;stroke-width:1.0;" x1="376.272" x2="731.0151" y1="201.5313" y2="201.5313"/><text fill="#000000" font-family="sans-serif" font-size="13" lengthAdjust="spacing" textLength="49.1245" x="532.0813" y="196.6748">show(id)</text><polygon fill="#181818" points="1119.1406,227.8828,1129.1406,231.8828,1119.1406,235.8828,1123.1406,231.8828" style="stroke:#181818;stroke-width:1.0;"/><line style="stroke:#181818;stroke-width:1.0;" x1="737.0151" x2="1125.1406" y1="231.8828" y2="231.8828"/><text fill="#000000" font-family="sans-serif" font-size="13" lengthAdjust="spacing" textLength="138.2583" x="864.9487" y="227.0264">with('category')-&gt;find(id)</text><path d="M300.9033,246.8828 L361.0742,246.8828 L361.0742,255.2344 L351.0742,265.2344 L300.9033,265.2344 L300.9033,246.8828 " fill="#EEEEEE" style="stroke:#000000;stroke-width:1.5;"/><rect fill="none" height="125.2422" style="stroke:#000000;stroke-width:1.5;" width="871.3613" x="300.9033" y="246.8828"/><text fill="#000000" font-family="sans-serif" font-size="13" font-weight="bold" lengthAdjust="spacing" textLength="15.1709" x="315.9033" y="261.3779">alt</text><text fill="#000000" font-family="sans-serif" font-size="11" font-weight="bold" lengthAdjust="spacing" textLength="104.5107" x="376.0742" y="260.3018">[Produk Ditemukan]</text><polygon fill="#181818" points="1119.1406,283.5859,1129.1406,287.5859,1119.1406,291.5859,1123.1406,287.5859" style="stroke:#181818;stroke-width:1.0;"/><line style="stroke:#181818;stroke-width:1.0;" x1="737.0151" x2="1125.1406" y1="287.5859" y2="287.5859"/><text fill="#000000" font-family="sans-serif" font-size="13" lengthAdjust="spacing" textLength="272.5557" x="797.8" y="282.7295">inRandomOrder()-&gt;where('id', '!=', id)-&gt;take(10)</text><polygon fill="#181818" points="387.272,313.9375,377.272,317.9375,387.272,321.9375,383.272,317.9375" style="stroke:#181818;stroke-width:1.0;"/><line style="stroke:#181818;stroke-width:1.0;stroke-dasharray:2.0,2.0;" x1="381.272" x2="736.0151" y1="317.9375" y2="317.9375"/><text fill="#000000" font-family="sans-serif" font-size="13" lengthAdjust="spacing" textLength="274.5869" x="419.3501" y="313.0811">displayProductDetail(product, related_products)</text><line style="stroke:#000000;stroke-width:1.0;stroke-dasharray:2.0,2.0;" x1="300.9033" x2="1172.2646" y1="326.9375" y2="326.9375"/><text fill="#000000" font-family="sans-serif" font-size="11" font-weight="bold" lengthAdjust="spacing" textLength="136.2969" x="305.9033" y="338.3564">[Produk Tidak Ditemukan]</text><polygon fill="#181818" points="387.272,360.125,377.272,364.125,387.272,368.125,383.272,364.125" style="stroke:#181818;stroke-width:1.0;"/><line style="stroke:#181818;stroke-width:1.0;stroke-dasharray:2.0,2.0;" x1="381.272" x2="736.0151" y1="364.125" y2="364.125"/><text fill="#000000" font-family="sans-serif" font-size="13" lengthAdjust="spacing" textLength="234.6665" x="439.3103" y="359.2686">showError404("Produk tidak ditemukan")</text><polygon fill="#181818" points="364.272,397.4766,374.272,401.4766,364.272,405.4766,368.272,401.4766" style="stroke:#181818;stroke-width:1.0;"/><line style="stroke:#181818;stroke-width:1.0;" x1="60.3687" x2="370.272" y1="401.4766" y2="401.4766"/><text fill="#000000" font-family="sans-serif" font-size="13" lengthAdjust="spacing" textLength="127.8989" x="154.3708" y="396.6201">Lihat informasi produk</text><polygon fill="#181818" points="71.3687,427.8281,61.3687,431.8281,71.3687,435.8281,67.3687,431.8281" style="stroke:#181818;stroke-width:1.0;"/><line style="stroke:#181818;stroke-width:1.0;stroke-dasharray:2.0,2.0;" x1="65.3687" x2="375.272" y1="431.8281" y2="431.8281"/><text fill="#000000" font-family="sans-serif" font-size="13" lengthAdjust="spacing" textLength="256.5088" x="90.0659" y="426.9717">Tampil nama, harga, kategori, deskripsi, foto</text><path d="M10,446.8281 L70.1709,446.8281 L70.1709,455.1797 L60.1709,465.1797 L10,465.1797 L10,446.8281 " fill="#EEEEEE" style="stroke:#000000;stroke-width:1.5;"/><rect fill="none" height="94.8906" style="stroke:#000000;stroke-width:1.5;" width="441.6406" x="10" y="446.8281"/><text fill="#000000" font-family="sans-serif" font-size="13" font-weight="bold" lengthAdjust="spacing" textLength="15.1709" x="25" y="461.3232">alt</text><text fill="#000000" font-family="sans-serif" font-size="11" font-weight="bold" lengthAdjust="spacing" textLength="95.9331" x="85.1709" y="460.2471">[Foto Produk Ada]</text><polygon fill="#181818" points="71.3687,483.5313,61.3687,487.5313,71.3687,491.5313,67.3687,487.5313" style="stroke:#181818;stroke-width:1.0;"/><line style="stroke:#181818;stroke-width:1.0;stroke-dasharray:2.0,2.0;" x1="65.3687" x2="375.272" y1="487.5313" y2="487.5313"/><text fill="#000000" font-family="sans-serif" font-size="13" lengthAdjust="spacing" textLength="107.6626" x="164.489" y="482.6748">Tampil foto produk</text><line style="stroke:#000000;stroke-width:1.0;stroke-dasharray:2.0,2.0;" x1="10" x2="451.6406" y1="496.5313" y2="496.5313"/><text fill="#000000" font-family="sans-serif" font-size="11" font-weight="bold" lengthAdjust="spacing" textLength="86.77" x="15" y="507.9502">[Foto Tidak Ada]</text><polygon fill="#181818" points="71.3687,529.7188,61.3687,533.7188,71.3687,537.7188,67.3687,533.7188" style="stroke:#181818;stroke-width:1.0;"/><line style="stroke:#181818;stroke-width:1.0;stroke-dasharray:2.0,2.0;" x1="65.3687" x2="375.272" y1="533.7188" y2="533.7188"/><text fill="#000000" font-family="sans-serif" font-size="13" lengthAdjust="spacing" textLength="202.3062" x="117.1672" y="528.8623">Tampil gambar default (no-img.jpg)</text><path d="M10,555.7188 L70.1709,555.7188 L70.1709,564.0703 L60.1709,574.0703 L10,574.0703 L10,555.7188 " fill="#EEEEEE" style="stroke:#000000;stroke-width:1.5;"/><rect fill="none" height="94.8906" style="stroke:#000000;stroke-width:1.5;" width="441.6406" x="10" y="555.7188"/><text fill="#000000" font-family="sans-serif" font-size="13" font-weight="bold" lengthAdjust="spacing" textLength="15.1709" x="25" y="570.2139">alt</text><text fill="#000000" font-family="sans-serif" font-size="11" font-weight="bold" lengthAdjust="spacing" textLength="75.7808" x="85.1709" y="569.1377">[Kategori Ada]</text><polygon fill="#181818" points="71.3687,592.4219,61.3687,596.4219,71.3687,600.4219,67.3687,596.4219" style="stroke:#181818;stroke-width:1.0;"/><line style="stroke:#181818;stroke-width:1.0;stroke-dasharray:2.0,2.0;" x1="65.3687" x2="375.272" y1="596.4219" y2="596.4219"/><text fill="#000000" font-family="sans-serif" font-size="13" lengthAdjust="spacing" textLength="124.998" x="155.8213" y="591.5654">Tampil nama kategori</text><line style="stroke:#000000;stroke-width:1.0;stroke-dasharray:2.0,2.0;" x1="10" x2="451.6406" y1="605.4219" y2="605.4219"/><text fill="#000000" font-family="sans-serif" font-size="11" font-weight="bold" lengthAdjust="spacing" textLength="107.5669" x="15" y="616.8408">[Kategori Tidak Ada]</text><polygon fill="#181818" points="71.3687,638.6094,61.3687,642.6094,71.3687,646.6094,67.3687,642.6094" style="stroke:#181818;stroke-width:1.0;"/><line style="stroke:#181818;stroke-width:1.0;stroke-dasharray:2.0,2.0;" x1="65.3687" x2="375.272" y1="642.6094" y2="642.6094"/><text fill="#000000" font-family="sans-serif" font-size="13" lengthAdjust="spacing" textLength="171.2788" x="132.6809" y="637.7529">Sembunyikan bagian kategori</text><path d="M10,664.6094 L70.1709,664.6094 L70.1709,672.9609 L60.1709,682.9609 L10,682.9609 L10,664.6094 " fill="#EEEEEE" style="stroke:#000000;stroke-width:1.5;"/><rect fill="none" height="94.8906" style="stroke:#000000;stroke-width:1.5;" width="441.6406" x="10" y="664.6094"/><text fill="#000000" font-family="sans-serif" font-size="13" font-weight="bold" lengthAdjust="spacing" textLength="15.1709" x="25" y="679.1045">alt</text><text fill="#000000" font-family="sans-serif" font-size="11" font-weight="bold" lengthAdjust="spacing" textLength="80.6899" x="85.1709" y="678.0283">[Deskripsi Ada]</text><polygon fill="#181818" points="71.3687,701.3125,61.3687,705.3125,71.3687,709.3125,67.3687,705.3125" style="stroke:#181818;stroke-width:1.0;"/><line style="stroke:#181818;stroke-width:1.0;stroke-dasharray:2.0,2.0;" x1="65.3687" x2="375.272" y1="705.3125" y2="705.3125"/><text fill="#000000" font-family="sans-serif" font-size="13" lengthAdjust="spacing" textLength="137.2744" x="149.6831" y="700.4561">Tampil deskripsi produk</text><line style="stroke:#000000;stroke-width:1.0;stroke-dasharray:2.0,2.0;" x1="10" x2="451.6406" y1="714.3125" y2="714.3125"/><text fill="#000000" font-family="sans-serif" font-size="11" font-weight="bold" lengthAdjust="spacing" textLength="112.4761" x="15" y="725.7314">[Deskripsi Tidak Ada]</text><polygon fill="#181818" points="71.3687,747.5,61.3687,751.5,71.3687,755.5,67.3687,751.5" style="stroke:#181818;stroke-width:1.0;"/><line style="stroke:#181818;stroke-width:1.0;stroke-dasharray:2.0,2.0;" x1="65.3687" x2="375.272" y1="751.5" y2="751.5"/><text fill="#000000" font-family="sans-serif" font-size="13" lengthAdjust="spacing" textLength="176.3252" x="130.1577" y="746.6436">Sembunyikan bagian deskripsi</text><polygon fill="#181818" points="364.272,784.8516,374.272,788.8516,364.272,792.8516,368.272,788.8516" style="stroke:#181818;stroke-width:1.0;"/><line style="stroke:#181818;stroke-width:1.0;" x1="60.3687" x2="370.272" y1="788.8516" y2="788.8516"/><text fill="#000000" font-family="sans-serif" font-size="13" lengthAdjust="spacing" textLength="123.3857" x="156.6274" y="783.9951">Klik tombol "Kembali"</text><polygon fill="#181818" points="71.3687,815.2031,61.3687,819.2031,71.3687,823.2031,67.3687,819.2031" style="stroke:#181818;stroke-width:1.0;"/><line style="stroke:#181818;stroke-width:1.0;stroke-dasharray:2.0,2.0;" x1="65.3687" x2="375.272" y1="819.2031" y2="819.2031"/><text fill="#000000" font-family="sans-serif" font-size="13" lengthAdjust="spacing" textLength="291.9033" x="72.3687" y="814.3467">Kembali ke halaman sebelumnya (browser history)</text><polygon fill="#181818" points="364.272,845.5547,374.272,849.5547,364.272,853.5547,368.272,849.5547" style="stroke:#181818;stroke-width:1.0;"/><line style="stroke:#181818;stroke-width:1.0;" x1="60.3687" x2="370.272" y1="849.5547" y2="849.5547"/><text fill="#000000" font-family="sans-serif" font-size="13" lengthAdjust="spacing" textLength="103.3208" x="166.6599" y="844.6982">Klik produk terkait</text><polygon fill="#181818" points="725.0151,875.9063,735.0151,879.9063,725.0151,883.9063,729.0151,879.9063" style="stroke:#181818;stroke-width:1.0;"/><line style="stroke:#181818;stroke-width:1.0;" x1="376.272" x2="731.0151" y1="879.9063" y2="879.9063"/><text fill="#000000" font-family="sans-serif" font-size="13" lengthAdjust="spacing" textLength="146.6943" x="483.2964" y="875.0498">show(related_product_id)</text><polygon fill="#181818" points="1119.1406,906.2578,1129.1406,910.2578,1119.1406,914.2578,1123.1406,910.2578" style="stroke:#181818;stroke-width:1.0;"/><line style="stroke:#181818;stroke-width:1.0;" x1="737.0151" x2="1125.1406" y1="910.2578" y2="910.2578"/><text fill="#000000" font-family="sans-serif" font-size="13" lengthAdjust="spacing" textLength="235.8281" x="816.1638" y="905.4014">with('category')-&gt;find(related_product_id)</text><polygon fill="#181818" points="1119.1406,936.6094,1129.1406,940.6094,1119.1406,944.6094,1123.1406,940.6094" style="stroke:#181818;stroke-width:1.0;"/><line style="stroke:#181818;stroke-width:1.0;" x1="737.0151" x2="1125.1406" y1="940.6094" y2="940.6094"/><text fill="#000000" font-family="sans-serif" font-size="13" lengthAdjust="spacing" textLength="370.1255" x="749.0151" y="935.7529">inRandomOrder()-&gt;where('id', '!=', related_product_id)-&gt;take(10)</text><polygon fill="#181818" points="387.272,966.9609,377.272,970.9609,387.272,974.9609,383.272,970.9609" style="stroke:#181818;stroke-width:1.0;"/><line style="stroke:#181818;stroke-width:1.0;stroke-dasharray:2.0,2.0;" x1="381.272" x2="736.0151" y1="970.9609" y2="970.9609"/><text fill="#000000" font-family="sans-serif" font-size="13" lengthAdjust="spacing" textLength="336.7432" x="388.272" y="966.1045">displayProductDetail(new_product, new_related_products)</text><!--SRC=[dLJ1Zjem4BtdAznS219KMsbFAnLf1Us5eY9srLCbDC53CXl7Jcr7YB_l9772qa91pO4azdjlthnuS0Nf2YoKmk6l6lKEL-WSPFYiADDYXzgZZI9FNg5u2H2n8CYOyrElK54ENYpG0ocnjaRMHHJ1pXihuZNghDPljSvY0Kxy84Uy7d4zJpkgG7l6D9ITxmJMNBY5hXVhVy3cHdjhb48RmFEBu6vpSxut1u-PiSTsS_uQHS6LcCwQgk99hDWr50wTa5rNLTjLGd8SDOWME6UWoyqXhCxRrGql7iZdoMWNgep6qzcUj6nX4IWV8k84FPPr0JeIVBqN8Bq1BKtvtKgq2VCFELfCHYH74p7wy9b_MMmwyr1WykbXV18OEf3aAWN7iyoIgdkR28kAtSbjM73Z29N3tjWhIRXeRr1lslvYhR6F3uz976Y-fScU5hEebXV2_TOU5z9xOqjm5BBjScLGZtyIhr1MdBs64YOY1vlnhUXIfGb_6LTOgXm_xeqtNRHV-Qblurb2i7v5kA7rrTl-MtRN_Kro1cKAbbtieUR2YJPJAhEFRrKM-cxiB8FRst9DaqDpdPk1VClH2vPfhO_4eOiKCkBRIQctikZZkkrbIFOid9F0V_WP9A-SYQKYFa2cJ8qIyPBve2Y-S2J2bYYG3uJYp3J_QQMewb8VGIIfDGU7LkJa67ySNwjKXHEBjW3o5qRwZm7PtZdYjsXt3FO5YNU3ViUGQpniXq5lNluUzjy0]--></g></svg>