<svg xmlns="http://www.w3.org/2000/svg" xmlns:xlink="http://www.w3.org/1999/xlink" contentStyleType="text/css" height="648px" preserveAspectRatio="none" style="width:804px;height:648px;background:#FFFFFF;" version="1.1" viewBox="0 0 804 648" width="804px" zoomAndPan="magnify"><title>Sequence Diagram</title><defs/><g><text fill="#000000" font-family="sans-serif" font-size="14" font-weight="bold" lengthAdjust="spacing" textLength="126.0479" x="337.9954" y="29.5332">Sequence Diagram</text><text fill="#000000" font-family="sans-serif" font-size="14" font-weight="bold" lengthAdjust="spacing" textLength="106.5791" x="347.7297" y="47.1426">Ekspor Laporan</text><rect fill="none" height="120.8906" style="stroke:#000000;stroke-width:1.5;" width="244.3193" x="521.7539" y="368.2891"/><line style="stroke:#181818;stroke-width:0.5;stroke-dasharray:5.0,5.0;" x1="39" x2="39" y1="138.8281" y2="566.8828"/><line style="stroke:#181818;stroke-width:0.5;stroke-dasharray:5.0,5.0;" x1="244.9336" x2="244.9336" y1="138.8281" y2="566.8828"/><line style="stroke:#181818;stroke-width:0.5;stroke-dasharray:5.0,5.0;" x1="424.2896" x2="424.2896" y1="138.8281" y2="566.8828"/><line style="stroke:#181818;stroke-width:0.5;stroke-dasharray:5.0,5.0;" x1="581.7539" x2="581.7539" y1="138.8281" y2="566.8828"/><line style="stroke:#181818;stroke-width:0.5;stroke-dasharray:5.0,5.0;" x1="760.1079" x2="760.1079" y1="138.8281" y2="566.8828"/><text fill="#000000" font-family="sans-serif" font-size="14" lengthAdjust="spacing" textLength="63.8408" x="5" y="135.752">Pengguna</text><ellipse cx="39.9204" cy="69.7188" fill="#E2E2F0" rx="8" ry="8" style="stroke:#181818;stroke-width:0.5;"/><path d="M39.9204,77.7188 L39.9204,104.7188 M26.9204,85.7188 L52.9204,85.7188 M39.9204,104.7188 L26.9204,119.7188 M39.9204,104.7188 L52.9204,119.7188 " fill="none" style="stroke:#181818;stroke-width:0.5;"/><text fill="#000000" font-family="sans-serif" font-size="14" lengthAdjust="spacing" textLength="63.8408" x="5" y="580.416">Pengguna</text><ellipse cx="39.9204" cy="591.9922" fill="#E2E2F0" rx="8" ry="8" style="stroke:#181818;stroke-width:0.5;"/><path d="M39.9204,599.9922 L39.9204,626.9922 M26.9204,607.9922 L52.9204,607.9922 M39.9204,626.9922 L26.9204,641.9922 M39.9204,626.9922 L52.9204,641.9922 " fill="none" style="stroke:#181818;stroke-width:0.5;"/><rect fill="#E2E2F0" height="31.6094" rx="2.5" ry="2.5" style="stroke:#181818;stroke-width:0.5;" width="88.7168" x="200.9336" y="106.2188"/><text fill="#000000" font-family="sans-serif" font-size="14" lengthAdjust="spacing" textLength="74.7168" x="207.9336" y="127.752">ReportPage</text><rect fill="#E2E2F0" height="31.6094" rx="2.5" ry="2.5" style="stroke:#181818;stroke-width:0.5;" width="88.7168" x="200.9336" y="565.8828"/><text fill="#000000" font-family="sans-serif" font-size="14" lengthAdjust="spacing" textLength="74.7168" x="207.9336" y="587.416">ReportPage</text><rect fill="#E2E2F0" height="31.6094" rx="2.5" ry="2.5" style="stroke:#181818;stroke-width:0.5;" width="116.71" x="366.2896" y="106.2188"/><text fill="#000000" font-family="sans-serif" font-size="14" lengthAdjust="spacing" textLength="102.71" x="373.2896" y="127.752">ReportController</text><rect fill="#E2E2F0" height="31.6094" rx="2.5" ry="2.5" style="stroke:#181818;stroke-width:0.5;" width="116.71" x="366.2896" y="565.8828"/><text fill="#000000" font-family="sans-serif" font-size="14" lengthAdjust="spacing" textLength="102.71" x="373.2896" y="587.416">ReportController</text><rect fill="#E2E2F0" height="31.6094" rx="2.5" ry="2.5" style="stroke:#181818;stroke-width:0.5;" width="101.1445" x="531.7539" y="106.2188"/><text fill="#000000" font-family="sans-serif" font-size="14" lengthAdjust="spacing" textLength="87.1445" x="538.7539" y="127.752">ExportService</text><rect fill="#E2E2F0" height="31.6094" rx="2.5" ry="2.5" style="stroke:#181818;stroke-width:0.5;" width="101.1445" x="531.7539" y="565.8828"/><text fill="#000000" font-family="sans-serif" font-size="14" lengthAdjust="spacing" textLength="87.1445" x="538.7539" y="587.416">ExportService</text><rect fill="#E2E2F0" height="31.6094" rx="2.5" ry="2.5" style="stroke:#181818;stroke-width:0.5;" width="73.9307" x="724.1079" y="106.2188"/><text fill="#000000" font-family="sans-serif" font-size="14" lengthAdjust="spacing" textLength="59.9307" x="731.1079" y="127.752">Database</text><rect fill="#E2E2F0" height="31.6094" rx="2.5" ry="2.5" style="stroke:#181818;stroke-width:0.5;" width="73.9307" x="724.1079" y="565.8828"/><text fill="#000000" font-family="sans-serif" font-size="14" lengthAdjust="spacing" textLength="59.9307" x="731.1079" y="587.416">Database</text><polygon fill="#181818" points="233.292,167.1797,243.292,171.1797,233.292,175.1797,237.292,171.1797" style="stroke:#181818;stroke-width:1.0;"/><line style="stroke:#181818;stroke-width:1.0;" x1="39.9204" x2="239.292" y1="171.1797" y2="171.1797"/><text fill="#000000" font-family="sans-serif" font-size="13" lengthAdjust="spacing" textLength="181.3716" x="51.9204" y="166.3232">Memilih jenis laporan &amp; periode</text><polygon fill="#181818" points="412.6445,197.5313,422.6445,201.5313,412.6445,205.5313,416.6445,201.5313" style="stroke:#181818;stroke-width:1.0;"/><line style="stroke:#181818;stroke-width:1.0;" x1="245.292" x2="418.6445" y1="201.5313" y2="201.5313"/><text fill="#000000" font-family="sans-serif" font-size="13" lengthAdjust="spacing" textLength="155.3525" x="257.292" y="196.6748">generateReport(type, filter)</text><polygon fill="#181818" points="749.0732,227.8828,759.0732,231.8828,749.0732,235.8828,753.0732,231.8828" style="stroke:#181818;stroke-width:1.0;"/><line style="stroke:#181818;stroke-width:1.0;" x1="424.6445" x2="755.0732" y1="231.8828" y2="231.8828"/><text fill="#000000" font-family="sans-serif" font-size="13" lengthAdjust="spacing" textLength="93.1963" x="546.2607" y="227.0264">queryData(filter)</text><polygon fill="#181818" points="435.6445,258.2344,425.6445,262.2344,435.6445,266.2344,431.6445,262.2344" style="stroke:#181818;stroke-width:1.0;"/><line style="stroke:#181818;stroke-width:1.0;stroke-dasharray:2.0,2.0;" x1="429.6445" x2="760.0732" y1="262.2344" y2="262.2344"/><text fill="#000000" font-family="sans-serif" font-size="13" lengthAdjust="spacing" textLength="25.3018" x="580.208" y="257.3779">data</text><polygon fill="#181818" points="233.292,288.5859,243.292,292.5859,233.292,296.5859,237.292,292.5859" style="stroke:#181818;stroke-width:1.0;"/><line style="stroke:#181818;stroke-width:1.0;" x1="39.9204" x2="239.292" y1="292.5859" y2="292.5859"/><text fill="#000000" font-family="sans-serif" font-size="13" lengthAdjust="spacing" textLength="138.6899" x="73.2612" y="287.7295">Klik Ekspor (PDF/Excel)</text><polygon fill="#181818" points="412.6445,318.9375,422.6445,322.9375,412.6445,326.9375,416.6445,322.9375" style="stroke:#181818;stroke-width:1.0;"/><line style="stroke:#181818;stroke-width:1.0;" x1="245.292" x2="418.6445" y1="322.9375" y2="322.9375"/><text fill="#000000" font-family="sans-serif" font-size="13" lengthAdjust="spacing" textLength="81.6309" x="294.1528" y="318.0811">export(format)</text><polygon fill="#181818" points="570.3262,349.2891,580.3262,353.2891,570.3262,357.2891,574.3262,353.2891" style="stroke:#181818;stroke-width:1.0;"/><line style="stroke:#181818;stroke-width:1.0;" x1="424.6445" x2="576.3262" y1="353.2891" y2="353.2891"/><text fill="#000000" font-family="sans-serif" font-size="13" lengthAdjust="spacing" textLength="133.6816" x="436.6445" y="348.4326">download(data, format)</text><path d="M521.7539,368.2891 L581.9248,368.2891 L581.9248,376.6406 L571.9248,386.6406 L521.7539,386.6406 L521.7539,368.2891 " fill="#EEEEEE" style="stroke:#000000;stroke-width:1.5;"/><rect fill="none" height="120.8906" style="stroke:#000000;stroke-width:1.5;" width="244.3193" x="521.7539" y="368.2891"/><text fill="#000000" font-family="sans-serif" font-size="13" font-weight="bold" lengthAdjust="spacing" textLength="15.1709" x="536.7539" y="382.7842">alt</text><text fill="#000000" font-family="sans-serif" font-size="11" font-weight="bold" lengthAdjust="spacing" textLength="69.6631" x="596.9248" y="381.708">[Format PDF]</text><line style="stroke:#181818;stroke-width:1.0;" x1="582.3262" x2="624.3262" y1="408.9922" y2="408.9922"/><line style="stroke:#181818;stroke-width:1.0;" x1="624.3262" x2="624.3262" y1="408.9922" y2="421.9922"/><line style="stroke:#181818;stroke-width:1.0;" x1="583.3262" x2="624.3262" y1="421.9922" y2="421.9922"/><polygon fill="#181818" points="593.3262,417.9922,583.3262,421.9922,593.3262,425.9922,589.3262,421.9922" style="stroke:#181818;stroke-width:1.0;"/><text fill="#000000" font-family="sans-serif" font-size="13" lengthAdjust="spacing" textLength="99.6836" x="589.3262" y="404.1357">renderDomPDF()</text><line style="stroke:#000000;stroke-width:1.0;stroke-dasharray:2.0,2.0;" x1="521.7539" x2="766.0732" y1="430.9922" y2="430.9922"/><text fill="#000000" font-family="sans-serif" font-size="11" font-weight="bold" lengthAdjust="spacing" textLength="76.4092" x="526.7539" y="442.4111">[Format Excel]</text><line style="stroke:#181818;stroke-width:1.0;" x1="582.3262" x2="624.3262" y1="468.1797" y2="468.1797"/><line style="stroke:#181818;stroke-width:1.0;" x1="624.3262" x2="624.3262" y1="468.1797" y2="481.1797"/><line style="stroke:#181818;stroke-width:1.0;" x1="583.3262" x2="624.3262" y1="481.1797" y2="481.1797"/><polygon fill="#181818" points="593.3262,477.1797,583.3262,481.1797,593.3262,485.1797,589.3262,481.1797" style="stroke:#181818;stroke-width:1.0;"/><text fill="#000000" font-family="sans-serif" font-size="13" lengthAdjust="spacing" textLength="164.7471" x="589.3262" y="463.3232">generateMaatwebsiteExcel()</text><polygon fill="#181818" points="435.6445,514.5313,425.6445,518.5313,435.6445,522.5313,431.6445,518.5313" style="stroke:#181818;stroke-width:1.0;"/><line style="stroke:#181818;stroke-width:1.0;stroke-dasharray:2.0,2.0;" x1="429.6445" x2="581.3262" y1="518.5313" y2="518.5313"/><text fill="#000000" font-family="sans-serif" font-size="13" lengthAdjust="spacing" textLength="58.519" x="474.2258" y="513.6748">fileStream</text><polygon fill="#181818" points="256.292,544.8828,246.292,548.8828,256.292,552.8828,252.292,548.8828" style="stroke:#181818;stroke-width:1.0;"/><line style="stroke:#181818;stroke-width:1.0;stroke-dasharray:2.0,2.0;" x1="250.292" x2="423.6445" y1="548.8828" y2="548.8828"/><text fill="#000000" font-family="sans-serif" font-size="13" lengthAdjust="spacing" textLength="106.2153" x="281.8606" y="544.0264">downloadPrompt()</text><!--SRC=[RP11JyCm38Nl-HNM3gYJcBXpG69hTu59rIfkNBpMbB3KAOd7jd-FsouIcyWXKkBFxpqxxYtt6B23IDy7ufes52EszEnior0J2mLZn8eZg2u8v1PRxNddOXzx7-0LzKOs1clHvwmaRji3ummmmbjK1VKGMziUMM2s9SMbL9SHs9R_bLUU9NZdA4pGwXegJWDKKVYnzIHJLDT4Ze8xZ5CnNnep1875a_h18soeiyv-mXUnZU2c0U0EUWhMDsGK6j2LeYqn1HIQScLoxkaUFgpJpSoD4ihbI-LqEU4yk6QfgD-BfD9euIR3YxDxkAmmA_FrGt6goSt_UjCuPlRXGuUIt8fgqFD7TXwRR13MF1V2e1DOZmzGIGDwb4zTWRYXaFjEQzdSa8kKwD7yba-pRn3bIBjeXKPkwEN6c05DMNLggYGGTcFED6KAMWRVzQADlm00]--></g></svg>