<svg xmlns="http://www.w3.org/2000/svg" xmlns:xlink="http://www.w3.org/1999/xlink" contentStyleType="text/css" height="2421px" preserveAspectRatio="none" style="width:1299px;height:2421px;background:#FFFFFF;" version="1.1" viewBox="0 0 1299 2421" width="1299px" zoomAndPan="magnify"><defs/><g><rect fill="none" height="274.1641" style="stroke:#000000;stroke-width:1.5;" width="1190.4849" x="10" y="320.4219"/><rect fill="none" height="79.0547" style="stroke:#000000;stroke-width:1.5;" width="1003.9946" x="196.4902" y="752.3438"/><rect fill="none" height="185.9453" style="stroke:#000000;stroke-width:1.5;" width="1190.4849" x="10" y="2106.5156"/><line style="stroke:#181818;stroke-width:0.5;stroke-dasharray:5.0,5.0;" x1="49" x2="49" y1="82.6094" y2="2339.8125"/><line style="stroke:#181818;stroke-width:0.5;stroke-dasharray:5.0,5.0;" x1="256.4902" x2="256.4902" y1="82.6094" y2="2339.8125"/><line style="stroke:#181818;stroke-width:0.5;stroke-dasharray:5.0,5.0;" x1="459.2251" x2="459.2251" y1="82.6094" y2="2339.8125"/><line style="stroke:#181818;stroke-width:0.5;stroke-dasharray:5.0,5.0;" x1="551.0181" x2="551.0181" y1="82.6094" y2="2339.8125"/><line style="stroke:#181818;stroke-width:0.5;stroke-dasharray:5.0,5.0;" x1="660.604" x2="660.604" y1="82.6094" y2="2339.8125"/><line style="stroke:#181818;stroke-width:0.5;stroke-dasharray:5.0,5.0;" x1="768.1968" x2="768.1968" y1="82.6094" y2="2339.8125"/><line style="stroke:#181818;stroke-width:0.5;stroke-dasharray:5.0,5.0;" x1="852.1411" x2="852.1411" y1="82.6094" y2="2339.8125"/><line style="stroke:#181818;stroke-width:0.5;stroke-dasharray:5.0,5.0;" x1="1156.5542" x2="1156.5542" y1="82.6094" y2="2339.8125"/><text fill="#000000" font-family="sans-serif" font-size="14" lengthAdjust="spacing" textLength="53.6963" x="20" y="79.5332">Inventori</text><ellipse cx="49.8481" cy="13.5" fill="#E2E2F0" rx="8" ry="8" style="stroke:#181818;stroke-width:0.5;"/><path d="M49.8481,21.5 L49.8481,48.5 M36.8481,29.5 L62.8481,29.5 M49.8481,48.5 L36.8481,63.5 M49.8481,48.5 L62.8481,63.5 " fill="none" style="stroke:#181818;stroke-width:0.5;"/><text fill="#000000" font-family="sans-serif" font-size="14" lengthAdjust="spacing" textLength="53.6963" x="20" y="2353.3457">Inventori</text><ellipse cx="49.8481" cy="2364.9219" fill="#E2E2F0" rx="8" ry="8" style="stroke:#181818;stroke-width:0.5;"/><path d="M49.8481,2372.9219 L49.8481,2399.9219 M36.8481,2380.9219 L62.8481,2380.9219 M49.8481,2399.9219 L36.8481,2414.9219 M49.8481,2399.9219 L62.8481,2414.9219 " fill="none" style="stroke:#181818;stroke-width:0.5;"/><rect fill="#E2E2F0" height="49.2188" rx="2.5" ry="2.5" style="stroke:#181818;stroke-width:0.5;" width="100.3789" x="206.4902" y="32.3906"/><text fill="#000000" font-family="sans-serif" font-size="14" lengthAdjust="spacing" textLength="86.3789" x="213.4902" y="53.9238">Material Page</text><text fill="#000000" font-family="sans-serif" font-size="14" lengthAdjust="spacing" textLength="60.6758" x="226.3418" y="71.5332">(Livewire)</text><rect fill="#E2E2F0" height="49.2188" rx="2.5" ry="2.5" style="stroke:#181818;stroke-width:0.5;" width="100.3789" x="206.4902" y="2338.8125"/><text fill="#000000" font-family="sans-serif" font-size="14" lengthAdjust="spacing" textLength="86.3789" x="213.4902" y="2360.3457">Material Page</text><text fill="#000000" font-family="sans-serif" font-size="14" lengthAdjust="spacing" textLength="60.6758" x="226.3418" y="2377.9551">(Livewire)</text><rect fill="#E2E2F0" height="49.2188" rx="2.5" ry="2.5" style="stroke:#181818;stroke-width:0.5;" width="63.793" x="428.2251" y="32.3906"/><text fill="#000000" font-family="sans-serif" font-size="14" lengthAdjust="spacing" textLength="49.793" x="435.2251" y="53.9238">Material</text><text fill="#000000" font-family="sans-serif" font-size="14" lengthAdjust="spacing" textLength="38.1309" x="441.0562" y="71.5332">Model</text><rect fill="#E2E2F0" height="49.2188" rx="2.5" ry="2.5" style="stroke:#181818;stroke-width:0.5;" width="63.793" x="428.2251" y="2338.8125"/><text fill="#000000" font-family="sans-serif" font-size="14" lengthAdjust="spacing" textLength="49.793" x="435.2251" y="2360.3457">Material</text><text fill="#000000" font-family="sans-serif" font-size="14" lengthAdjust="spacing" textLength="38.1309" x="441.0562" y="2377.9551">Model</text><rect fill="#E2E2F0" height="49.2188" rx="2.5" ry="2.5" style="stroke:#181818;stroke-width:0.5;" width="99.5859" x="502.0181" y="32.3906"/><text fill="#000000" font-family="sans-serif" font-size="14" lengthAdjust="spacing" textLength="85.5859" x="509.0181" y="53.9238">MaterialDetail</text><text fill="#000000" font-family="sans-serif" font-size="14" lengthAdjust="spacing" textLength="38.1309" x="532.7456" y="71.5332">Model</text><rect fill="#E2E2F0" height="49.2188" rx="2.5" ry="2.5" style="stroke:#181818;stroke-width:0.5;" width="99.5859" x="502.0181" y="2338.8125"/><text fill="#000000" font-family="sans-serif" font-size="14" lengthAdjust="spacing" textLength="85.5859" x="509.0181" y="2360.3457">MaterialDetail</text><text fill="#000000" font-family="sans-serif" font-size="14" lengthAdjust="spacing" textLength="38.1309" x="532.7456" y="2377.9551">Model</text><rect fill="#E2E2F0" height="49.2188" rx="2.5" ry="2.5" style="stroke:#181818;stroke-width:0.5;" width="99.5928" x="611.604" y="32.3906"/><text fill="#000000" font-family="sans-serif" font-size="14" lengthAdjust="spacing" textLength="85.5928" x="618.604" y="53.9238">MaterialBatch</text><text fill="#000000" font-family="sans-serif" font-size="14" lengthAdjust="spacing" textLength="38.1309" x="642.335" y="71.5332">Model</text><rect fill="#E2E2F0" height="49.2188" rx="2.5" ry="2.5" style="stroke:#181818;stroke-width:0.5;" width="99.5928" x="611.604" y="2338.8125"/><text fill="#000000" font-family="sans-serif" font-size="14" lengthAdjust="spacing" textLength="85.5928" x="618.604" y="2360.3457">MaterialBatch</text><text fill="#000000" font-family="sans-serif" font-size="14" lengthAdjust="spacing" textLength="38.1309" x="642.335" y="2377.9551">Model</text><rect fill="#E2E2F0" height="49.2188" rx="2.5" ry="2.5" style="stroke:#181818;stroke-width:0.5;" width="94.9443" x="721.1968" y="32.3906"/><text fill="#000000" font-family="sans-serif" font-size="14" lengthAdjust="spacing" textLength="80.9443" x="728.1968" y="53.9238">InventoryLog</text><text fill="#000000" font-family="sans-serif" font-size="14" lengthAdjust="spacing" textLength="38.1309" x="749.6035" y="71.5332">Model</text><rect fill="#E2E2F0" height="49.2188" rx="2.5" ry="2.5" style="stroke:#181818;stroke-width:0.5;" width="94.9443" x="721.1968" y="2338.8125"/><text fill="#000000" font-family="sans-serif" font-size="14" lengthAdjust="spacing" textLength="80.9443" x="728.1968" y="2360.3457">InventoryLog</text><text fill="#000000" font-family="sans-serif" font-size="14" lengthAdjust="spacing" textLength="38.1309" x="749.6035" y="2377.9551">Model</text><rect fill="#E2E2F0" height="49.2188" rx="2.5" ry="2.5" style="stroke:#181818;stroke-width:0.5;" width="52.1309" x="826.1411" y="32.3906"/><text fill="#000000" font-family="sans-serif" font-size="14" lengthAdjust="spacing" textLength="24.8965" x="839.7583" y="53.9238">Unit</text><text fill="#000000" font-family="sans-serif" font-size="14" lengthAdjust="spacing" textLength="38.1309" x="833.1411" y="71.5332">Model</text><rect fill="#E2E2F0" height="49.2188" rx="2.5" ry="2.5" style="stroke:#181818;stroke-width:0.5;" width="52.1309" x="826.1411" y="2338.8125"/><text fill="#000000" font-family="sans-serif" font-size="14" lengthAdjust="spacing" textLength="24.8965" x="839.7583" y="2360.3457">Unit</text><text fill="#000000" font-family="sans-serif" font-size="14" lengthAdjust="spacing" textLength="38.1309" x="833.1411" y="2377.9551">Model</text><text fill="#000000" font-family="sans-serif" font-size="14" lengthAdjust="spacing" textLength="59.9307" x="1124.5542" y="79.5332">Database</text><path d="M1139.5195,29 C1139.5195,19 1157.5195,19 1157.5195,19 C1157.5195,19 1175.5195,19 1175.5195,29 L1175.5195,55 C1175.5195,65 1157.5195,65 1157.5195,65 C1157.5195,65 1139.5195,65 1139.5195,55 L1139.5195,29 " fill="#E2E2F0" style="stroke:#181818;stroke-width:1.5;"/><path d="M1139.5195,29 C1139.5195,39 1157.5195,39 1157.5195,39 C1157.5195,39 1175.5195,39 1175.5195,29 " fill="none" style="stroke:#181818;stroke-width:1.5;"/><text fill="#000000" font-family="sans-serif" font-size="14" lengthAdjust="spacing" textLength="59.9307" x="1124.5542" y="2353.3457">Database</text><path d="M1139.5195,2366.4219 C1139.5195,2356.4219 1157.5195,2356.4219 1157.5195,2356.4219 C1157.5195,2356.4219 1175.5195,2356.4219 1175.5195,2366.4219 L1175.5195,2392.4219 C1175.5195,2402.4219 1157.5195,2402.4219 1157.5195,2402.4219 C1157.5195,2402.4219 1139.5195,2402.4219 1139.5195,2392.4219 L1139.5195,2366.4219 " fill="#E2E2F0" style="stroke:#181818;stroke-width:1.5;"/><path d="M1139.5195,2366.4219 C1139.5195,2376.4219 1157.5195,2376.4219 1157.5195,2376.4219 C1157.5195,2376.4219 1175.5195,2376.4219 1175.5195,2366.4219 " fill="none" style="stroke:#181818;stroke-width:1.5;"/><rect fill="#EEEEEE" height="3" style="stroke:#EEEEEE;stroke-width:1.0;" width="1292.0732" x="0" y="113.7852"/><line style="stroke:#000000;stroke-width:1.0;" x1="0" x2="1292.0732" y1="113.7852" y2="113.7852"/><line style="stroke:#000000;stroke-width:1.0;" x1="0" x2="1292.0732" y1="116.7852" y2="116.7852"/><rect fill="#EEEEEE" height="24.3516" style="stroke:#000000;stroke-width:2.0;" width="164.2554" x="563.9089" y="102.6094"/><text fill="#000000" font-family="sans-serif" font-size="13" font-weight="bold" lengthAdjust="spacing" textLength="146.6436" x="569.9089" y="120.1045">Menambah Bahan Baku</text><polygon fill="#181818" points="244.6797,155.3125,254.6797,159.3125,244.6797,163.3125,248.6797,159.3125" style="stroke:#181818;stroke-width:1.0;"/><line style="stroke:#181818;stroke-width:1.0;" x1="49.8481" x2="250.6797" y1="159.3125" y2="159.3125"/><text fill="#000000" font-family="sans-serif" font-size="13" lengthAdjust="spacing" textLength="122.6812" x="56.8481" y="154.4561">Klik "Tambah Bahan"</text><polygon fill="#181818" points="60.8481,185.6641,50.8481,189.6641,60.8481,193.6641,56.8481,189.6641" style="stroke:#181818;stroke-width:1.0;"/><line style="stroke:#181818;stroke-width:1.0;stroke-dasharray:2.0,2.0;" x1="54.8481" x2="255.6797" y1="189.6641" y2="189.6641"/><text fill="#000000" font-family="sans-serif" font-size="13" lengthAdjust="spacing" textLength="129.3398" x="66.8481" y="184.8076">Tampilkan form bahan</text><polygon fill="#181818" points="244.6797,243.543,254.6797,247.543,244.6797,251.543,248.6797,247.543" style="stroke:#181818;stroke-width:1.0;"/><line style="stroke:#181818;stroke-width:1.0;" x1="49.8481" x2="250.6797" y1="247.543" y2="247.543"/><text fill="#000000" font-family="sans-serif" font-size="13" lengthAdjust="spacing" textLength="81.6753" x="56.8481" y="242.6865">Isi data bahan</text><path d="M261,202.6641 L261,277.6641 L372,277.6641 L372,212.6641 L362,202.6641 L261,202.6641 " fill="#FEFFDD" style="stroke:#181818;stroke-width:0.5;"/><path d="M362,202.6641 L362,212.6641 L372,212.6641 L362,202.6641 " fill="#FEFFDD" style="stroke:#181818;stroke-width:0.5;"/><text fill="#000000" font-family="sans-serif" font-size="13" lengthAdjust="spacing" textLength="82.3799" x="267" y="221.1592">- Nama bahan</text><text fill="#000000" font-family="sans-serif" font-size="13" lengthAdjust="spacing" textLength="56.3608" x="267" y="237.5107">- Kategori</text><text fill="#000000" font-family="sans-serif" font-size="13" lengthAdjust="spacing" textLength="90.2891" x="267" y="253.8623">- Stok minimum</text><text fill="#000000" font-family="sans-serif" font-size="13" lengthAdjust="spacing" textLength="61.3945" x="267" y="270.2139">- Deskripsi</text><polygon fill="#181818" points="244.6797,301.4219,254.6797,305.4219,244.6797,309.4219,248.6797,305.4219" style="stroke:#181818;stroke-width:1.0;"/><line style="stroke:#181818;stroke-width:1.0;" x1="49.8481" x2="250.6797" y1="305.4219" y2="305.4219"/><text fill="#000000" font-family="sans-serif" font-size="13" lengthAdjust="spacing" textLength="90.3335" x="56.8481" y="300.5654">Tambah satuan</text><path d="M10,320.4219 L82.4346,320.4219 L82.4346,328.7734 L72.4346,338.7734 L10,338.7734 L10,320.4219 " fill="#EEEEEE" style="stroke:#000000;stroke-width:1.5;"/><rect fill="none" height="274.1641" style="stroke:#000000;stroke-width:1.5;" width="1190.4849" x="10" y="320.4219"/><text fill="#000000" font-family="sans-serif" font-size="13" font-weight="bold" lengthAdjust="spacing" textLength="27.4346" x="25" y="334.917">loop</text><text fill="#000000" font-family="sans-serif" font-size="11" font-weight="bold" lengthAdjust="spacing" textLength="111.8477" x="97.4346" y="333.8408">[Untuk setiap satuan]</text><polygon fill="#181818" points="244.6797,357.125,254.6797,361.125,244.6797,365.125,248.6797,361.125" style="stroke:#181818;stroke-width:1.0;"/><line style="stroke:#181818;stroke-width:1.0;" x1="49.8481" x2="250.6797" y1="361.125" y2="361.125"/><text fill="#000000" font-family="sans-serif" font-size="13" lengthAdjust="spacing" textLength="49.1372" x="56.8481" y="356.2686">Pilih unit</text><polygon fill="#181818" points="840.2065,387.4766,850.2065,391.4766,840.2065,395.4766,844.2065,391.4766" style="stroke:#181818;stroke-width:1.0;"/><line style="stroke:#181818;stroke-width:1.0;" x1="256.6797" x2="846.2065" y1="391.4766" y2="391.4766"/><text fill="#000000" font-family="sans-serif" font-size="13" lengthAdjust="spacing" textLength="21.6646" x="263.6797" y="386.6201">all()</text><polygon fill="#181818" points="1145.5195,417.8281,1155.5195,421.8281,1145.5195,425.8281,1149.5195,421.8281" style="stroke:#181818;stroke-width:1.0;"/><line style="stroke:#181818;stroke-width:1.0;" x1="852.2065" x2="1151.5195" y1="421.8281" y2="421.8281"/><text fill="#000000" font-family="sans-serif" font-size="13" lengthAdjust="spacing" textLength="132.1963" x="859.2065" y="416.9717">SELECT * FROM units</text><polygon fill="#181818" points="863.2065,448.1797,853.2065,452.1797,863.2065,456.1797,859.2065,452.1797" style="stroke:#181818;stroke-width:1.0;"/><line style="stroke:#181818;stroke-width:1.0;stroke-dasharray:2.0,2.0;" x1="857.2065" x2="1156.5195" y1="452.1797" y2="452.1797"/><text fill="#000000" font-family="sans-serif" font-size="13" lengthAdjust="spacing" textLength="46.96" x="869.2065" y="447.3232">units list</text><polygon fill="#181818" points="267.6797,478.5313,257.6797,482.5313,267.6797,486.5313,263.6797,482.5313" style="stroke:#181818;stroke-width:1.0;"/><line style="stroke:#181818;stroke-width:1.0;stroke-dasharray:2.0,2.0;" x1="261.6797" x2="851.2065" y1="482.5313" y2="482.5313"/><text fill="#000000" font-family="sans-serif" font-size="13" lengthAdjust="spacing" textLength="82.3862" x="273.6797" y="477.6748">available units</text><polygon fill="#181818" points="244.6797,508.8828,254.6797,512.8828,244.6797,516.8828,248.6797,512.8828" style="stroke:#181818;stroke-width:1.0;"/><line style="stroke:#181818;stroke-width:1.0;" x1="49.8481" x2="250.6797" y1="512.8828" y2="512.8828"/><text fill="#000000" font-family="sans-serif" font-size="13" lengthAdjust="spacing" textLength="151.0234" x="56.8481" y="508.0264">Masukkan kuantitas dasar</text><polygon fill="#181818" points="244.6797,539.2344,254.6797,543.2344,244.6797,547.2344,248.6797,543.2344" style="stroke:#181818;stroke-width:1.0;"/><line style="stroke:#181818;stroke-width:1.0;" x1="49.8481" x2="250.6797" y1="543.2344" y2="543.2344"/><text fill="#000000" font-family="sans-serif" font-size="13" lengthAdjust="spacing" textLength="182.8315" x="56.8481" y="538.3779">Tandai satuan utama (opsional)</text><line style="stroke:#181818;stroke-width:1.0;" x1="256.6797" x2="298.6797" y1="573.5859" y2="573.5859"/><line style="stroke:#181818;stroke-width:1.0;" x1="298.6797" x2="298.6797" y1="573.5859" y2="586.5859"/><line style="stroke:#181818;stroke-width:1.0;" x1="257.6797" x2="298.6797" y1="586.5859" y2="586.5859"/><polygon fill="#181818" points="267.6797,582.5859,257.6797,586.5859,267.6797,590.5859,263.6797,586.5859" style="stroke:#181818;stroke-width:1.0;"/><text fill="#000000" font-family="sans-serif" font-size="13" lengthAdjust="spacing" textLength="140.9053" x="263.6797" y="568.7295">Tambah ke array satuan</text><polygon fill="#181818" points="244.6797,619.9375,254.6797,623.9375,244.6797,627.9375,248.6797,623.9375" style="stroke:#181818;stroke-width:1.0;"/><line style="stroke:#181818;stroke-width:1.0;" x1="49.8481" x2="250.6797" y1="623.9375" y2="623.9375"/><text fill="#000000" font-family="sans-serif" font-size="13" lengthAdjust="spacing" textLength="83.8398" x="56.8481" y="619.0811">Simpan bahan</text><polygon fill="#181818" points="448.1216,650.2891,458.1216,654.2891,448.1216,658.2891,452.1216,654.2891" style="stroke:#181818;stroke-width:1.0;"/><line style="stroke:#181818;stroke-width:1.0;" x1="256.6797" x2="454.1216" y1="654.2891" y2="654.2891"/><text fill="#000000" font-family="sans-serif" font-size="13" lengthAdjust="spacing" textLength="118.4854" x="263.6797" y="649.4326">create(materialData)</text><polygon fill="#181818" points="1145.5195,691.8164,1155.5195,695.8164,1145.5195,699.8164,1149.5195,695.8164" style="stroke:#181818;stroke-width:1.0;"/><line style="stroke:#181818;stroke-width:1.0;" x1="460.1216" x2="1151.5195" y1="695.8164" y2="695.8164"/><text fill="#000000" font-family="sans-serif" font-size="13" lengthAdjust="spacing" textLength="138.6836" x="467.1216" y="690.96">INSERT INTO materials</text><path d="M1162,667.2891 L1162,709.2891 L1281,709.2891 L1281,677.2891 L1271,667.2891 L1162,667.2891 " fill="#FEFFDD" style="stroke:#181818;stroke-width:0.5;"/><path d="M1271,667.2891 L1271,677.2891 L1281,677.2891 L1271,667.2891 " fill="#FEFFDD" style="stroke:#181818;stroke-width:0.5;"/><text fill="#000000" font-family="sans-serif" font-size="13" lengthAdjust="spacing" textLength="98.5537" x="1168" y="685.7842">status = 'Kosong'</text><text fill="#000000" font-family="sans-serif" font-size="13" lengthAdjust="spacing" textLength="87.7944" x="1168" y="702.1357">is_active = true</text><polygon fill="#181818" points="471.1216,733.3438,461.1216,737.3438,471.1216,741.3438,467.1216,737.3438" style="stroke:#181818;stroke-width:1.0;"/><line style="stroke:#181818;stroke-width:1.0;stroke-dasharray:2.0,2.0;" x1="465.1216" x2="1156.5195" y1="737.3438" y2="737.3438"/><text fill="#000000" font-family="sans-serif" font-size="13" lengthAdjust="spacing" textLength="93.209" x="477.1216" y="732.4873">material created</text><path d="M196.4902,752.3438 L268.9248,752.3438 L268.9248,760.6953 L258.9248,770.6953 L196.4902,770.6953 L196.4902,752.3438 " fill="#EEEEEE" style="stroke:#000000;stroke-width:1.5;"/><rect fill="none" height="79.0547" style="stroke:#000000;stroke-width:1.5;" width="1003.9946" x="196.4902" y="752.3438"/><text fill="#000000" font-family="sans-serif" font-size="13" font-weight="bold" lengthAdjust="spacing" textLength="27.4346" x="211.4902" y="766.8389">loop</text><text fill="#000000" font-family="sans-serif" font-size="11" font-weight="bold" lengthAdjust="spacing" textLength="111.8477" x="283.9248" y="765.7627">[Untuk setiap satuan]</text><polygon fill="#181818" points="539.811,789.0469,549.811,793.0469,539.811,797.0469,543.811,793.0469" style="stroke:#181818;stroke-width:1.0;"/><line style="stroke:#181818;stroke-width:1.0;" x1="256.6797" x2="545.811" y1="793.0469" y2="793.0469"/><text fill="#000000" font-family="sans-serif" font-size="13" lengthAdjust="spacing" textLength="103.3271" x="263.6797" y="788.1904">create(detailData)</text><polygon fill="#181818" points="1145.5195,819.3984,1155.5195,823.3984,1145.5195,827.3984,1149.5195,823.3984" style="stroke:#181818;stroke-width:1.0;"/><line style="stroke:#181818;stroke-width:1.0;" x1="551.811" x2="1151.5195" y1="823.3984" y2="823.3984"/><text fill="#000000" font-family="sans-serif" font-size="13" lengthAdjust="spacing" textLength="176.9917" x="558.811" y="818.542">INSERT INTO material_details</text><polygon fill="#181818" points="60.8481,856.75,50.8481,860.75,60.8481,864.75,56.8481,860.75" style="stroke:#181818;stroke-width:1.0;"/><line style="stroke:#181818;stroke-width:1.0;stroke-dasharray:2.0,2.0;" x1="54.8481" x2="255.6797" y1="860.75" y2="860.75"/><text fill="#000000" font-family="sans-serif" font-size="13" lengthAdjust="spacing" textLength="164.7788" x="66.8481" y="855.8936">Bahan berhasil ditambahkan</text><rect fill="#EEEEEE" height="3" style="stroke:#EEEEEE;stroke-width:1.0;" width="1292.0732" x="0" y="889.9258"/><line style="stroke:#000000;stroke-width:1.0;" x1="0" x2="1292.0732" y1="889.9258" y2="889.9258"/><line style="stroke:#000000;stroke-width:1.0;" x1="0" x2="1292.0732" y1="892.9258" y2="892.9258"/><rect fill="#EEEEEE" height="24.3516" style="stroke:#000000;stroke-width:2.0;" width="145.4663" x="573.3035" y="878.75"/><text fill="#000000" font-family="sans-serif" font-size="13" font-weight="bold" lengthAdjust="spacing" textLength="127.8545" x="579.3035" y="896.2451">Melihat Batch Bahan</text><polygon fill="#181818" points="244.6797,931.4531,254.6797,935.4531,244.6797,939.4531,248.6797,935.4531" style="stroke:#181818;stroke-width:1.0;"/><line style="stroke:#181818;stroke-width:1.0;" x1="49.8481" x2="250.6797" y1="935.4531" y2="935.4531"/><text fill="#000000" font-family="sans-serif" font-size="13" lengthAdjust="spacing" textLength="64.3271" x="56.8481" y="930.5967">Pilih bahan</text><polygon fill="#181818" points="649.4004,961.8047,659.4004,965.8047,649.4004,969.8047,653.4004,965.8047" style="stroke:#181818;stroke-width:1.0;"/><line style="stroke:#181818;stroke-width:1.0;" x1="256.6797" x2="655.4004" y1="965.8047" y2="965.8047"/><text fill="#000000" font-family="sans-serif" font-size="13" lengthAdjust="spacing" textLength="261.7266" x="263.6797" y="960.9482">where('material_id', id)-&gt;orderBy('expired_at')</text><polygon fill="#181818" points="1145.5195,992.1563,1155.5195,996.1563,1145.5195,1000.1563,1149.5195,996.1563" style="stroke:#181818;stroke-width:1.0;"/><line style="stroke:#181818;stroke-width:1.0;" x1="661.4004" x2="1151.5195" y1="996.1563" y2="996.1563"/><text fill="#000000" font-family="sans-serif" font-size="13" lengthAdjust="spacing" textLength="381.4434" x="668.4004" y="991.2998">SELECT * FROM material_batches ORDER BY expired_at (FIFO)</text><polygon fill="#181818" points="672.4004,1022.5078,662.4004,1026.5078,672.4004,1030.5078,668.4004,1026.5078" style="stroke:#181818;stroke-width:1.0;"/><line style="stroke:#181818;stroke-width:1.0;stroke-dasharray:2.0,2.0;" x1="666.4004" x2="1156.5195" y1="1026.5078" y2="1026.5078"/><text fill="#000000" font-family="sans-serif" font-size="13" lengthAdjust="spacing" textLength="65.0317" x="678.4004" y="1021.6514">batches list</text><polygon fill="#181818" points="267.6797,1052.8594,257.6797,1056.8594,267.6797,1060.8594,263.6797,1056.8594" style="stroke:#181818;stroke-width:1.0;"/><line style="stroke:#181818;stroke-width:1.0;stroke-dasharray:2.0,2.0;" x1="261.6797" x2="660.4004" y1="1056.8594" y2="1056.8594"/><text fill="#000000" font-family="sans-serif" font-size="13" lengthAdjust="spacing" textLength="74.4453" x="273.6797" y="1052.0029">batches data</text><polygon fill="#181818" points="60.8481,1118.9141,50.8481,1122.9141,60.8481,1126.9141,56.8481,1122.9141" style="stroke:#181818;stroke-width:1.0;"/><line style="stroke:#181818;stroke-width:1.0;stroke-dasharray:2.0,2.0;" x1="54.8481" x2="255.6797" y1="1122.9141" y2="1122.9141"/><text fill="#000000" font-family="sans-serif" font-size="13" lengthAdjust="spacing" textLength="132.2344" x="66.8481" y="1118.0576">Tampilkan daftar batch</text><path d="M261,1069.8594 L261,1160.8594 L383,1160.8594 L383,1079.8594 L373,1069.8594 L261,1069.8594 " fill="#FEFFDD" style="stroke:#181818;stroke-width:0.5;"/><path d="M373,1069.8594 L373,1079.8594 L383,1079.8594 L373,1069.8594 " fill="#FEFFDD" style="stroke:#181818;stroke-width:0.5;"/><text fill="#000000" font-family="sans-serif" font-size="13" lengthAdjust="spacing" textLength="60.709" x="267" y="1088.3545">Info batch:</text><text fill="#000000" font-family="sans-serif" font-size="13" lengthAdjust="spacing" textLength="70.0654" x="267" y="1104.7061">- Qty tersisa</text><text fill="#000000" font-family="sans-serif" font-size="13" lengthAdjust="spacing" textLength="101.1689" x="267" y="1121.0576">- Tanggal expired</text><text fill="#000000" font-family="sans-serif" font-size="13" lengthAdjust="spacing" textLength="67.1963" x="267" y="1137.4092">- Harga beli</text><text fill="#000000" font-family="sans-serif" font-size="13" lengthAdjust="spacing" textLength="96.8208" x="267" y="1153.7607">- Tanggal masuk</text><rect fill="#EEEEEE" height="3" style="stroke:#EEEEEE;stroke-width:1.0;" width="1292.0732" x="0" y="1187.793"/><line style="stroke:#000000;stroke-width:1.0;" x1="0" x2="1292.0732" y1="1187.793" y2="1187.793"/><line style="stroke:#000000;stroke-width:1.0;" x1="0" x2="1292.0732" y1="1190.793" y2="1190.793"/><rect fill="#EEEEEE" height="24.3516" style="stroke:#000000;stroke-width:2.0;" width="198.2217" x="546.9258" y="1176.6172"/><text fill="#000000" font-family="sans-serif" font-size="13" font-weight="bold" lengthAdjust="spacing" textLength="180.6099" x="552.9258" y="1194.1123">Melihat Alur Pergerakan Stok</text><polygon fill="#181818" points="244.6797,1229.3203,254.6797,1233.3203,244.6797,1237.3203,248.6797,1233.3203" style="stroke:#181818;stroke-width:1.0;"/><line style="stroke:#181818;stroke-width:1.0;" x1="49.8481" x2="250.6797" y1="1233.3203" y2="1233.3203"/><text fill="#000000" font-family="sans-serif" font-size="13" lengthAdjust="spacing" textLength="88.7085" x="56.8481" y="1228.4639">Klik "Lihat Alur"</text><polygon fill="#181818" points="756.6689,1259.6719,766.6689,1263.6719,756.6689,1267.6719,760.6689,1263.6719" style="stroke:#181818;stroke-width:1.0;"/><line style="stroke:#181818;stroke-width:1.0;" x1="256.6797" x2="762.6689" y1="1263.6719" y2="1263.6719"/><text fill="#000000" font-family="sans-serif" font-size="13" lengthAdjust="spacing" textLength="181.6064" x="263.6797" y="1258.8154">where('material_id', id)-&gt;latest()</text><polygon fill="#181818" points="1145.5195,1290.0234,1155.5195,1294.0234,1145.5195,1298.0234,1149.5195,1294.0234" style="stroke:#181818;stroke-width:1.0;"/><line style="stroke:#181818;stroke-width:1.0;" x1="768.6689" x2="1151.5195" y1="1294.0234" y2="1294.0234"/><text fill="#000000" font-family="sans-serif" font-size="13" lengthAdjust="spacing" textLength="364.8506" x="775.6689" y="1289.167">SELECT * FROM inventory_logs ORDER BY created_at DESC</text><polygon fill="#181818" points="779.6689,1320.375,769.6689,1324.375,779.6689,1328.375,775.6689,1324.375" style="stroke:#181818;stroke-width:1.0;"/><line style="stroke:#181818;stroke-width:1.0;stroke-dasharray:2.0,2.0;" x1="773.6689" x2="1156.5195" y1="1324.375" y2="1324.375"/><text fill="#000000" font-family="sans-serif" font-size="13" lengthAdjust="spacing" textLength="43.3481" x="785.6689" y="1319.5186">logs list</text><polygon fill="#181818" points="267.6797,1350.7266,257.6797,1354.7266,267.6797,1358.7266,263.6797,1354.7266" style="stroke:#181818;stroke-width:1.0;"/><line style="stroke:#181818;stroke-width:1.0;stroke-dasharray:2.0,2.0;" x1="261.6797" x2="767.6689" y1="1354.7266" y2="1354.7266"/><text fill="#000000" font-family="sans-serif" font-size="13" lengthAdjust="spacing" textLength="80.209" x="273.6797" y="1349.8701">inventory logs</text><polygon fill="#181818" points="60.8481,1416.7813,50.8481,1420.7813,60.8481,1424.7813,56.8481,1420.7813" style="stroke:#181818;stroke-width:1.0;"/><line style="stroke:#181818;stroke-width:1.0;stroke-dasharray:2.0,2.0;" x1="54.8481" x2="255.6797" y1="1420.7813" y2="1420.7813"/><text fill="#000000" font-family="sans-serif" font-size="13" lengthAdjust="spacing" textLength="174.1353" x="66.8481" y="1415.9248">Tampilkan riwayat pergerakan</text><path d="M261,1367.7266 L261,1458.7266 L424,1458.7266 L424,1377.7266 L414,1367.7266 L261,1367.7266 " fill="#FEFFDD" style="stroke:#181818;stroke-width:0.5;"/><path d="M414,1367.7266 L414,1377.7266 L424,1377.7266 L414,1367.7266 " fill="#FEFFDD" style="stroke:#181818;stroke-width:0.5;"/><text fill="#000000" font-family="sans-serif" font-size="13" lengthAdjust="spacing" textLength="103.3398" x="267" y="1386.2217">Jenis pergerakan:</text><text fill="#000000" font-family="sans-serif" font-size="13" lengthAdjust="spacing" textLength="97.5381" x="267" y="1402.5732">- IN: Dari belanja</text><text fill="#000000" font-family="sans-serif" font-size="13" lengthAdjust="spacing" textLength="129.3145" x="267" y="1418.9248">- OUT: Untuk produksi</text><text fill="#000000" font-family="sans-serif" font-size="13" lengthAdjust="spacing" textLength="142.3462" x="267" y="1435.2764">- ADJ: Penyesuaian stok</text><text fill="#000000" font-family="sans-serif" font-size="13" lengthAdjust="spacing" textLength="127.1626" x="267" y="1451.6279">- LOSS: Rusak/Hilang</text><rect fill="#EEEEEE" height="3" style="stroke:#EEEEEE;stroke-width:1.0;" width="1292.0732" x="0" y="1485.6602"/><line style="stroke:#000000;stroke-width:1.0;" x1="0" x2="1292.0732" y1="1485.6602" y2="1485.6602"/><line style="stroke:#000000;stroke-width:1.0;" x1="0" x2="1292.0732" y1="1488.6602" y2="1488.6602"/><rect fill="#EEEEEE" height="24.3516" style="stroke:#000000;stroke-width:2.0;" width="118.0063" x="587.0334" y="1474.4844"/><text fill="#000000" font-family="sans-serif" font-size="13" font-weight="bold" lengthAdjust="spacing" textLength="100.3945" x="593.0334" y="1491.9795">Mengedit Bahan</text><polygon fill="#181818" points="244.6797,1527.1875,254.6797,1531.1875,244.6797,1535.1875,248.6797,1531.1875" style="stroke:#181818;stroke-width:1.0;"/><line style="stroke:#181818;stroke-width:1.0;" x1="49.8481" x2="250.6797" y1="1531.1875" y2="1531.1875"/><text fill="#000000" font-family="sans-serif" font-size="13" lengthAdjust="spacing" textLength="88.8989" x="56.8481" y="1526.3311">Pilih edit bahan</text><polygon fill="#181818" points="448.1216,1557.5391,458.1216,1561.5391,448.1216,1565.5391,452.1216,1561.5391" style="stroke:#181818;stroke-width:1.0;"/><line style="stroke:#181818;stroke-width:1.0;" x1="256.6797" x2="454.1216" y1="1561.5391" y2="1561.5391"/><text fill="#000000" font-family="sans-serif" font-size="13" lengthAdjust="spacing" textLength="179.4419" x="263.6797" y="1556.6826">find(id)-&gt;with('material_details')</text><polygon fill="#181818" points="1145.5195,1587.8906,1155.5195,1591.8906,1145.5195,1595.8906,1149.5195,1591.8906" style="stroke:#181818;stroke-width:1.0;"/><line style="stroke:#181818;stroke-width:1.0;" x1="460.1216" x2="1151.5195" y1="1591.8906" y2="1591.8906"/><text fill="#000000" font-family="sans-serif" font-size="13" lengthAdjust="spacing" textLength="132.2407" x="467.1216" y="1587.0342">SELECT dengan relasi</text><polygon fill="#181818" points="471.1216,1618.2422,461.1216,1622.2422,471.1216,1626.2422,467.1216,1622.2422" style="stroke:#181818;stroke-width:1.0;"/><line style="stroke:#181818;stroke-width:1.0;stroke-dasharray:2.0,2.0;" x1="465.1216" x2="1156.5195" y1="1622.2422" y2="1622.2422"/><text fill="#000000" font-family="sans-serif" font-size="13" lengthAdjust="spacing" textLength="75.1499" x="477.1216" y="1617.3857">material data</text><polygon fill="#181818" points="267.6797,1648.5938,257.6797,1652.5938,267.6797,1656.5938,263.6797,1652.5938" style="stroke:#181818;stroke-width:1.0;"/><line style="stroke:#181818;stroke-width:1.0;stroke-dasharray:2.0,2.0;" x1="261.6797" x2="459.1216" y1="1652.5938" y2="1652.5938"/><text fill="#000000" font-family="sans-serif" font-size="13" lengthAdjust="spacing" textLength="114.1563" x="273.6797" y="1647.7373">material with details</text><polygon fill="#181818" points="244.6797,1678.9453,254.6797,1682.9453,244.6797,1686.9453,248.6797,1682.9453" style="stroke:#181818;stroke-width:1.0;"/><line style="stroke:#181818;stroke-width:1.0;" x1="49.8481" x2="250.6797" y1="1682.9453" y2="1682.9453"/><text fill="#000000" font-family="sans-serif" font-size="13" lengthAdjust="spacing" textLength="59.9917" x="56.8481" y="1678.0889">Ubah data</text><polygon fill="#181818" points="244.6797,1709.2969,254.6797,1713.2969,244.6797,1717.2969,248.6797,1713.2969" style="stroke:#181818;stroke-width:1.0;"/><line style="stroke:#181818;stroke-width:1.0;" x1="49.8481" x2="250.6797" y1="1713.2969" y2="1713.2969"/><text fill="#000000" font-family="sans-serif" font-size="13" lengthAdjust="spacing" textLength="44.0781" x="56.8481" y="1708.4404">Simpan</text><polygon fill="#181818" points="448.1216,1739.6484,458.1216,1743.6484,448.1216,1747.6484,452.1216,1743.6484" style="stroke:#181818;stroke-width:1.0;"/><line style="stroke:#181818;stroke-width:1.0;" x1="256.6797" x2="454.1216" y1="1743.6484" y2="1743.6484"/><text fill="#000000" font-family="sans-serif" font-size="13" lengthAdjust="spacing" textLength="73.7217" x="263.6797" y="1738.792">update(data)</text><polygon fill="#181818" points="1145.5195,1770,1155.5195,1774,1145.5195,1778,1149.5195,1774" style="stroke:#181818;stroke-width:1.0;"/><line style="stroke:#181818;stroke-width:1.0;" x1="460.1216" x2="1151.5195" y1="1774" y2="1774"/><text fill="#000000" font-family="sans-serif" font-size="13" lengthAdjust="spacing" textLength="109.0781" x="467.1216" y="1769.1436">UPDATE materials</text><polygon fill="#181818" points="471.1216,1800.3516,461.1216,1804.3516,471.1216,1808.3516,467.1216,1804.3516" style="stroke:#181818;stroke-width:1.0;"/><line style="stroke:#181818;stroke-width:1.0;stroke-dasharray:2.0,2.0;" x1="465.1216" x2="1156.5195" y1="1804.3516" y2="1804.3516"/><text fill="#000000" font-family="sans-serif" font-size="13" lengthAdjust="spacing" textLength="46.9917" x="477.1216" y="1799.4951">updated</text><polygon fill="#181818" points="539.811,1830.7031,549.811,1834.7031,539.811,1838.7031,543.811,1834.7031" style="stroke:#181818;stroke-width:1.0;"/><line style="stroke:#181818;stroke-width:1.0;" x1="256.6797" x2="545.811" y1="1834.7031" y2="1834.7031"/><text fill="#000000" font-family="sans-serif" font-size="13" lengthAdjust="spacing" textLength="98.9727" x="263.6797" y="1829.8467">sync(newDetails)</text><polygon fill="#181818" points="1145.5195,1861.0547,1155.5195,1865.0547,1145.5195,1869.0547,1149.5195,1865.0547" style="stroke:#181818;stroke-width:1.0;"/><line style="stroke:#181818;stroke-width:1.0;" x1="551.811" x2="1151.5195" y1="1865.0547" y2="1865.0547"/><text fill="#000000" font-family="sans-serif" font-size="13" lengthAdjust="spacing" textLength="208.7935" x="558.811" y="1860.1982">DELETE &amp; INSERT material_details</text><polygon fill="#181818" points="60.8481,1891.4063,50.8481,1895.4063,60.8481,1899.4063,56.8481,1895.4063" style="stroke:#181818;stroke-width:1.0;"/><line style="stroke:#181818;stroke-width:1.0;stroke-dasharray:2.0,2.0;" x1="54.8481" x2="255.6797" y1="1895.4063" y2="1895.4063"/><text fill="#000000" font-family="sans-serif" font-size="13" lengthAdjust="spacing" textLength="140.2197" x="66.8481" y="1890.5498">Bahan berhasil diupdate</text><rect fill="#EEEEEE" height="3" style="stroke:#EEEEEE;stroke-width:1.0;" width="1292.0732" x="0" y="1924.582"/><line style="stroke:#000000;stroke-width:1.0;" x1="0" x2="1292.0732" y1="1924.582" y2="1924.582"/><line style="stroke:#000000;stroke-width:1.0;" x1="0" x2="1292.0732" y1="1927.582" y2="1927.582"/><rect fill="#EEEEEE" height="24.3516" style="stroke:#000000;stroke-width:2.0;" width="133.1772" x="579.448" y="1913.4063"/><text fill="#000000" font-family="sans-serif" font-size="13" font-weight="bold" lengthAdjust="spacing" textLength="115.5654" x="585.448" y="1930.9014">Menghapus Bahan</text><polygon fill="#181818" points="244.6797,1966.1094,254.6797,1970.1094,244.6797,1974.1094,248.6797,1970.1094" style="stroke:#181818;stroke-width:1.0;"/><line style="stroke:#181818;stroke-width:1.0;" x1="49.8481" x2="250.6797" y1="1970.1094" y2="1970.1094"/><text fill="#000000" font-family="sans-serif" font-size="13" lengthAdjust="spacing" textLength="103.3589" x="56.8481" y="1965.2529">Pilih hapus bahan</text><polygon fill="#181818" points="60.8481,1996.4609,50.8481,2000.4609,60.8481,2004.4609,56.8481,2000.4609" style="stroke:#181818;stroke-width:1.0;"/><line style="stroke:#181818;stroke-width:1.0;stroke-dasharray:2.0,2.0;" x1="54.8481" x2="255.6797" y1="2000.4609" y2="2000.4609"/><text fill="#000000" font-family="sans-serif" font-size="13" lengthAdjust="spacing" textLength="107.6689" x="66.8481" y="1995.6045">Konfirmasi hapus?</text><polygon fill="#181818" points="244.6797,2026.8125,254.6797,2030.8125,244.6797,2034.8125,248.6797,2030.8125" style="stroke:#181818;stroke-width:1.0;"/><line style="stroke:#181818;stroke-width:1.0;" x1="49.8481" x2="250.6797" y1="2030.8125" y2="2030.8125"/><text fill="#000000" font-family="sans-serif" font-size="13" lengthAdjust="spacing" textLength="61.4072" x="56.8481" y="2025.9561">Konfirmasi</text><polygon fill="#181818" points="448.1216,2057.1641,458.1216,2061.1641,448.1216,2065.1641,452.1216,2061.1641" style="stroke:#181818;stroke-width:1.0;"/><line style="stroke:#181818;stroke-width:1.0;" x1="256.6797" x2="454.1216" y1="2061.1641" y2="2061.1641"/><text fill="#000000" font-family="sans-serif" font-size="13" lengthAdjust="spacing" textLength="90.3145" x="263.6797" y="2056.3076">checkUsage(id)</text><polygon fill="#181818" points="1145.5195,2087.5156,1155.5195,2091.5156,1145.5195,2095.5156,1149.5195,2091.5156" style="stroke:#181818;stroke-width:1.0;"/><line style="stroke:#181818;stroke-width:1.0;" x1="460.1216" x2="1151.5195" y1="2091.5156" y2="2091.5156"/><text fill="#000000" font-family="sans-serif" font-size="13" lengthAdjust="spacing" textLength="363.7651" x="467.1216" y="2086.6592">SELECT FROM product_compositions WHERE material_id = ?</text><path d="M10,2106.5156 L70.1709,2106.5156 L70.1709,2114.8672 L60.1709,2124.8672 L10,2124.8672 L10,2106.5156 " fill="#EEEEEE" style="stroke:#000000;stroke-width:1.5;"/><rect fill="none" height="185.9453" style="stroke:#000000;stroke-width:1.5;" width="1190.4849" x="10" y="2106.5156"/><text fill="#000000" font-family="sans-serif" font-size="13" font-weight="bold" lengthAdjust="spacing" textLength="15.1709" x="25" y="2121.0107">alt</text><text fill="#000000" font-family="sans-serif" font-size="11" font-weight="bold" lengthAdjust="spacing" textLength="152.1685" x="85.1709" y="2119.9346">[Bahan digunakan di produk]</text><polygon fill="#181818" points="60.8481,2143.2188,50.8481,2147.2188,60.8481,2151.2188,56.8481,2147.2188" style="stroke:#181818;stroke-width:1.0;"/><line style="stroke:#181818;stroke-width:1.0;stroke-dasharray:2.0,2.0;" x1="54.8481" x2="255.6797" y1="2147.2188" y2="2147.2188"/><text fill="#000000" font-family="sans-serif" font-size="13" lengthAdjust="spacing" textLength="179.9561" x="66.8481" y="2142.3623">Peringatan: Akan dinonaktifkan</text><polygon fill="#181818" points="448.1216,2173.5703,458.1216,2177.5703,448.1216,2181.5703,452.1216,2177.5703" style="stroke:#181818;stroke-width:1.0;"/><line style="stroke:#181818;stroke-width:1.0;" x1="256.6797" x2="454.1216" y1="2177.5703" y2="2177.5703"/><text fill="#000000" font-family="sans-serif" font-size="13" lengthAdjust="spacing" textLength="161.0527" x="263.6797" y="2172.7139">update(['is_active' =&gt; false])</text><polygon fill="#181818" points="1145.5195,2203.9219,1155.5195,2207.9219,1145.5195,2211.9219,1149.5195,2207.9219" style="stroke:#181818;stroke-width:1.0;"/><line style="stroke:#181818;stroke-width:1.0;" x1="460.1216" x2="1151.5195" y1="2207.9219" y2="2207.9219"/><text fill="#000000" font-family="sans-serif" font-size="13" lengthAdjust="spacing" textLength="234.438" x="467.1216" y="2203.0654">UPDATE materials SET is_active = false</text><line style="stroke:#000000;stroke-width:1.0;stroke-dasharray:2.0,2.0;" x1="10" x2="1200.4849" y1="2216.9219" y2="2216.9219"/><text fill="#000000" font-family="sans-serif" font-size="11" font-weight="bold" lengthAdjust="spacing" textLength="94.1177" x="15" y="2228.3408">[Tidak digunakan]</text><polygon fill="#181818" points="448.1216,2250.1094,458.1216,2254.1094,448.1216,2258.1094,452.1216,2254.1094" style="stroke:#181818;stroke-width:1.0;"/><line style="stroke:#181818;stroke-width:1.0;" x1="256.6797" x2="454.1216" y1="2254.1094" y2="2254.1094"/><text fill="#000000" font-family="sans-serif" font-size="13" lengthAdjust="spacing" textLength="54.1963" x="263.6797" y="2249.2529">delete(id)</text><polygon fill="#181818" points="1145.5195,2280.4609,1155.5195,2284.4609,1145.5195,2288.4609,1149.5195,2284.4609" style="stroke:#181818;stroke-width:1.0;"/><line style="stroke:#181818;stroke-width:1.0;" x1="460.1216" x2="1151.5195" y1="2284.4609" y2="2284.4609"/><text fill="#000000" font-family="sans-serif" font-size="13" lengthAdjust="spacing" textLength="148.8018" x="467.1216" y="2279.6045">DELETE FROM materials</text><polygon fill="#181818" points="60.8481,2317.8125,50.8481,2321.8125,60.8481,2325.8125,56.8481,2321.8125" style="stroke:#181818;stroke-width:1.0;"/><line style="stroke:#181818;stroke-width:1.0;stroke-dasharray:2.0,2.0;" x1="54.8481" x2="255.6797" y1="2321.8125" y2="2321.8125"/><text fill="#000000" font-family="sans-serif" font-size="13" lengthAdjust="spacing" textLength="135.8779" x="66.8481" y="2316.9561">Bahan berhasil dihapus</text><!--SRC=[bLPTRoet47tVNp7AGu6gKT-Ho5Mu48KR22aVgghU2WtOBEuktfNj3PT_tx6zNdPlbYJD0y7Zu_7CcPbZS6So1HFvoYLz4L6EoeYTo54Qk9cXuKfW2YyOy- -oEnMl_2GKxzq0QcTint-NiupnrA62hHqvuWP50-yjxUWXcjsX3dQ69ZQaSfvcSHrAooPmBOMf0-mwOcXmYvh3A7on8GsZQ3206PTutEA1RZsWfC-aWC4WghY3spl7IH-UKf70pQg6ledi3jmIfCBtWH2vI1Doji_K4ROM6RKvd6W1DhGI8ZF3GOduO2A0MtZ6OzYnooTYAxQrj8kboH8u2YcEnT4PHbmdIkHQH5moi9vQRoo3rsWA6rEQPJanP8e4D3S2yx03zDTo_4MauW25fTGYVF9tZkC-O9fsUyvkrzO-6lPXEPwElwxWLtXOp6Vkg7QOqT3HveywCwH2czhvwbPyfTR1RSfhnwz5E4DT99RwXD8mmb2T6MfKr_0hb0n5cJOKndBUpOZ7J6BQQsJPO32X5b8Apu4mOhsLyAKuKb-67WYkGkVtOQSuVUyUm-1GD_IYQa1B3YVFo_5YHVzMSmX8tMmNRIWE3GFeF6Kwat67R49lS6TekCbiLC4lhL6IVmaZU2tZOH-qHiZ3JtML1NDBduEhiLk_byN67z6UlxPXybEvvUg0cdmnAgajG6BfTDDB7Od6IqO9RfzUtxk-425-TweFfmDNlDkfWXAiyni8rhkzonJZQdZkTlYFd1IIRT1qUf6_hBN1AnzRY-4QvelHU073l-3Y0ReFauTvBrIX328SS5DGtb057pQjMaGVY0x3lK7bZpIRP2BtcRVtdMZyOSv0uMgXqQrf6EAOcg0CrTaUKSKaGqHp0tAqSrRJcbefxjD2mGjNCLTeut5QzPwYJgjZDrLbIDVVgqjA9cr8RWZNNWWH7enDciMrCfGDRiim6Y-_XYAu-npIyU_SLc5MlXpY8_wLEE6PtESL1SqgVEDIwDgkhyNakK-l4v53LAFyrnTalbxroo7CLSQAHFigt8- -KKDpUUQwG45tQkBOxKpdosKV5eN6vFT7KaqP_rma6NCQea-CYeCrv-KY67iXMTULuYJCeLQZSg0xRrMih0-Z22nBb2PbSrs9NAjVV5J1LG1xCGJzQ4jZRONQkRagp6sINEJCYLch5AzVHlUhSKs5toJWZxEBvo2I-YntNSbFVgrf_XloE29woFClGIVVIEJdvD5VNzNwW7cXFr5iZwjNktdFKoRtGj7K2m_zqZhE5QZrgJlmNRBMPBUDSwqztF2wPj-PpIuxvfaMXbvZ3Ny-ZXSNvaaCw5dx4aMOXcPc8YwaanmcodcflLRDV4YV1FMXeV63Utz4qfEV6B5FVdhatdJ6tvtgPUt0u0xsr0Vy7__aVTGlbEQgyJ2xmn6d3rW9XiabYoj1q0zRRZo5RHUMRTHuZFxFy-gg6_q7]--></g></svg>