<svg xmlns="http://www.w3.org/2000/svg" xmlns:xlink="http://www.w3.org/1999/xlink" contentStyleType="text/css" height="796px" preserveAspectRatio="none" style="width:811px;height:796px;background:#FFFFFF;" version="1.1" viewBox="0 0 811 796" width="811px" zoomAndPan="magnify"><title>Sequence Diagram</title><defs/><g><text fill="#000000" font-family="sans-serif" font-size="14" font-weight="bold" lengthAdjust="spacing" textLength="126.0479" x="341.5088" y="29.5332">Sequence Diagram</text><text fill="#000000" font-family="sans-serif" font-size="14" font-weight="bold" lengthAdjust="spacing" textLength="108.9238" x="350.0708" y="47.1426">Mengakses FAQ</text><rect fill="none" height="94.8906" style="stroke:#000000;stroke-width:1.5;" width="445.4468" x="247.8232" y="246.8828"/><line style="stroke:#181818;stroke-width:0.5;stroke-dasharray:5.0,5.0;" x1="45" x2="45" y1="138.8281" y2="714.2891"/><line style="stroke:#181818;stroke-width:0.5;stroke-dasharray:5.0,5.0;" x1="294.8232" x2="294.8232" y1="138.8281" y2="714.2891"/><line style="stroke:#181818;stroke-width:0.5;stroke-dasharray:5.0,5.0;" x1="630.8013" x2="630.8013" y1="138.8281" y2="714.2891"/><line style="stroke:#181818;stroke-width:0.5;stroke-dasharray:5.0,5.0;" x1="783.2861" x2="783.2861" y1="138.8281" y2="714.2891"/><text fill="#000000" font-family="sans-serif" font-size="14" lengthAdjust="spacing" textLength="74.7373" x="5" y="135.752">Pengunjung</text><ellipse cx="45.3687" cy="69.7188" fill="#E2E2F0" rx="8" ry="8" style="stroke:#181818;stroke-width:0.5;"/><path d="M45.3687,77.7188 L45.3687,104.7188 M32.3687,85.7188 L58.3687,85.7188 M45.3687,104.7188 L32.3687,119.7188 M45.3687,104.7188 L58.3687,119.7188 " fill="none" style="stroke:#181818;stroke-width:0.5;"/><text fill="#000000" font-family="sans-serif" font-size="14" lengthAdjust="spacing" textLength="74.7373" x="5" y="727.8223">Pengunjung</text><ellipse cx="45.3687" cy="739.3984" fill="#E2E2F0" rx="8" ry="8" style="stroke:#181818;stroke-width:0.5;"/><path d="M45.3687,747.3984 L45.3687,774.3984 M32.3687,755.3984 L58.3687,755.3984 M45.3687,774.3984 L32.3687,789.3984 M45.3687,774.3984 L58.3687,789.3984 " fill="none" style="stroke:#181818;stroke-width:0.5;"/><rect fill="#E2E2F0" height="31.6094" rx="2.5" ry="2.5" style="stroke:#181818;stroke-width:0.5;" width="75.4756" x="257.8232" y="106.2188"/><text fill="#000000" font-family="sans-serif" font-size="14" lengthAdjust="spacing" textLength="61.4756" x="264.8232" y="127.752">FAQPage</text><rect fill="#E2E2F0" height="31.6094" rx="2.5" ry="2.5" style="stroke:#181818;stroke-width:0.5;" width="75.4756" x="257.8232" y="713.2891"/><text fill="#000000" font-family="sans-serif" font-size="14" lengthAdjust="spacing" textLength="61.4756" x="264.8232" y="734.8223">FAQPage</text><rect fill="#E2E2F0" height="31.6094" rx="2.5" ry="2.5" style="stroke:#181818;stroke-width:0.5;" width="103.4688" x="579.8013" y="106.2188"/><text fill="#000000" font-family="sans-serif" font-size="14" lengthAdjust="spacing" textLength="89.4688" x="586.8013" y="127.752">FAQController</text><rect fill="#E2E2F0" height="31.6094" rx="2.5" ry="2.5" style="stroke:#181818;stroke-width:0.5;" width="103.4688" x="579.8013" y="713.2891"/><text fill="#000000" font-family="sans-serif" font-size="14" lengthAdjust="spacing" textLength="89.4688" x="586.8013" y="734.8223">FAQController</text><rect fill="#E2E2F0" height="31.6094" rx="2.5" ry="2.5" style="stroke:#181818;stroke-width:0.5;" width="42.7793" x="762.2861" y="106.2188"/><text fill="#000000" font-family="sans-serif" font-size="14" lengthAdjust="spacing" textLength="28.7793" x="769.2861" y="127.752">FAQ</text><rect fill="#E2E2F0" height="31.6094" rx="2.5" ry="2.5" style="stroke:#181818;stroke-width:0.5;" width="42.7793" x="762.2861" y="713.2891"/><text fill="#000000" font-family="sans-serif" font-size="14" lengthAdjust="spacing" textLength="28.7793" x="769.2861" y="734.8223">FAQ</text><polygon fill="#181818" points="283.561,167.1797,293.561,171.1797,283.561,175.1797,287.561,171.1797" style="stroke:#181818;stroke-width:1.0;"/><line style="stroke:#181818;stroke-width:1.0;" x1="45.3687" x2="289.561" y1="171.1797" y2="171.1797"/><text fill="#000000" font-family="sans-serif" font-size="13" lengthAdjust="spacing" textLength="150.2935" x="95.3181" y="166.3232">Mengakses halaman FAQ</text><polygon fill="#181818" points="619.5356,197.5313,629.5356,201.5313,619.5356,205.5313,623.5356,201.5313" style="stroke:#181818;stroke-width:1.0;"/><line style="stroke:#181818;stroke-width:1.0;" x1="295.561" x2="625.5356" y1="201.5313" y2="201.5313"/><text fill="#000000" font-family="sans-serif" font-size="13" lengthAdjust="spacing" textLength="44.7891" x="441.1538" y="196.6748">mount()</text><polygon fill="#181818" points="771.6758,227.8828,781.6758,231.8828,771.6758,235.8828,775.6758,231.8828" style="stroke:#181818;stroke-width:1.0;"/><line style="stroke:#181818;stroke-width:1.0;" x1="631.5356" x2="777.6758" y1="231.8828" y2="231.8828"/><text fill="#000000" font-family="sans-serif" font-size="13" lengthAdjust="spacing" textLength="128.1401" x="643.5356" y="227.0264">orderBy('order')-&gt;get()</text><path d="M247.8232,246.8828 L307.9941,246.8828 L307.9941,255.2344 L297.9941,265.2344 L247.8232,265.2344 L247.8232,246.8828 " fill="#EEEEEE" style="stroke:#000000;stroke-width:1.5;"/><rect fill="none" height="94.8906" style="stroke:#000000;stroke-width:1.5;" width="445.4468" x="247.8232" y="246.8828"/><text fill="#000000" font-family="sans-serif" font-size="13" font-weight="bold" lengthAdjust="spacing" textLength="15.1709" x="262.8232" y="261.3779">alt</text><text fill="#000000" font-family="sans-serif" font-size="11" font-weight="bold" lengthAdjust="spacing" textLength="81.2808" x="322.9941" y="260.3018">[Ada Data FAQ]</text><polygon fill="#181818" points="306.561,283.5859,296.561,287.5859,306.561,291.5859,302.561,287.5859" style="stroke:#181818;stroke-width:1.0;"/><line style="stroke:#181818;stroke-width:1.0;stroke-dasharray:2.0,2.0;" x1="300.561" x2="630.5356" y1="287.5859" y2="287.5859"/><text fill="#000000" font-family="sans-serif" font-size="13" lengthAdjust="spacing" textLength="106.9199" x="410.0884" y="282.7295">displayFAQs(faqs)</text><line style="stroke:#000000;stroke-width:1.0;stroke-dasharray:2.0,2.0;" x1="247.8232" x2="693.27" y1="296.5859" y2="296.5859"/><text fill="#000000" font-family="sans-serif" font-size="11" font-weight="bold" lengthAdjust="spacing" textLength="86.1685" x="252.8232" y="308.0049">[Tidak Ada FAQ]</text><polygon fill="#181818" points="306.561,329.7734,296.561,333.7734,306.561,337.7734,302.561,333.7734" style="stroke:#181818;stroke-width:1.0;"/><line style="stroke:#181818;stroke-width:1.0;stroke-dasharray:2.0,2.0;" x1="300.561" x2="630.5356" y1="333.7734" y2="333.7734"/><text fill="#000000" font-family="sans-serif" font-size="13" lengthAdjust="spacing" textLength="311.9746" x="307.561" y="328.917">showEmptyMessage("Belum ada FAQ yang tersedia")</text><polygon fill="#181818" points="283.561,367.125,293.561,371.125,283.561,375.125,287.561,371.125" style="stroke:#181818;stroke-width:1.0;"/><line style="stroke:#181818;stroke-width:1.0;" x1="45.3687" x2="289.561" y1="371.125" y2="371.125"/><text fill="#000000" font-family="sans-serif" font-size="13" lengthAdjust="spacing" textLength="156.0825" x="92.4236" y="366.2686">Klik pertanyaan tertentu(id)</text><line style="stroke:#181818;stroke-width:1.0;stroke-dasharray:2.0,2.0;" x1="295.561" x2="337.561" y1="401.4766" y2="401.4766"/><line style="stroke:#181818;stroke-width:1.0;stroke-dasharray:2.0,2.0;" x1="337.561" x2="337.561" y1="401.4766" y2="414.4766"/><line style="stroke:#181818;stroke-width:1.0;stroke-dasharray:2.0,2.0;" x1="296.561" x2="337.561" y1="414.4766" y2="414.4766"/><polygon fill="#181818" points="306.561,410.4766,296.561,414.4766,306.561,418.4766,302.561,414.4766" style="stroke:#181818;stroke-width:1.0;"/><text fill="#000000" font-family="sans-serif" font-size="13" lengthAdjust="spacing" textLength="119.2344" x="302.561" y="396.6201">expandAccordion(id)</text><polygon fill="#181818" points="56.3687,440.8281,46.3687,444.8281,56.3687,448.8281,52.3687,444.8281" style="stroke:#181818;stroke-width:1.0;"/><line style="stroke:#181818;stroke-width:1.0;stroke-dasharray:2.0,2.0;" x1="50.3687" x2="294.561" y1="444.8281" y2="444.8281"/><text fill="#000000" font-family="sans-serif" font-size="13" lengthAdjust="spacing" textLength="159.707" x="90.6113" y="439.9717">Tampil jawaban pertanyaan</text><polygon fill="#181818" points="283.561,471.1797,293.561,475.1797,283.561,479.1797,287.561,475.1797" style="stroke:#181818;stroke-width:1.0;"/><line style="stroke:#181818;stroke-width:1.0;" x1="45.3687" x2="289.561" y1="475.1797" y2="475.1797"/><text fill="#000000" font-family="sans-serif" font-size="13" lengthAdjust="spacing" textLength="163.3125" x="88.8086" y="470.3232">Klik pertanyaan lain(new_id)</text><line style="stroke:#181818;stroke-width:1.0;stroke-dasharray:2.0,2.0;" x1="295.561" x2="337.561" y1="505.5313" y2="505.5313"/><line style="stroke:#181818;stroke-width:1.0;stroke-dasharray:2.0,2.0;" x1="337.561" x2="337.561" y1="505.5313" y2="518.5313"/><line style="stroke:#181818;stroke-width:1.0;stroke-dasharray:2.0,2.0;" x1="296.561" x2="337.561" y1="518.5313" y2="518.5313"/><polygon fill="#181818" points="306.561,514.5313,296.561,518.5313,306.561,522.5313,302.561,518.5313" style="stroke:#181818;stroke-width:1.0;"/><text fill="#000000" font-family="sans-serif" font-size="13" lengthAdjust="spacing" textLength="180.6479" x="302.561" y="500.6748">collapseAccordion(previous_id)</text><line style="stroke:#181818;stroke-width:1.0;stroke-dasharray:2.0,2.0;" x1="295.561" x2="337.561" y1="548.8828" y2="548.8828"/><line style="stroke:#181818;stroke-width:1.0;stroke-dasharray:2.0,2.0;" x1="337.561" x2="337.561" y1="548.8828" y2="561.8828"/><line style="stroke:#181818;stroke-width:1.0;stroke-dasharray:2.0,2.0;" x1="296.561" x2="337.561" y1="561.8828" y2="561.8828"/><polygon fill="#181818" points="306.561,557.8828,296.561,561.8828,306.561,565.8828,302.561,561.8828" style="stroke:#181818;stroke-width:1.0;"/><text fill="#000000" font-family="sans-serif" font-size="13" lengthAdjust="spacing" textLength="150.3125" x="302.561" y="544.0264">expandAccordion(new_id)</text><polygon fill="#181818" points="56.3687,588.2344,46.3687,592.2344,56.3687,596.2344,52.3687,592.2344" style="stroke:#181818;stroke-width:1.0;"/><line style="stroke:#181818;stroke-width:1.0;stroke-dasharray:2.0,2.0;" x1="50.3687" x2="294.561" y1="592.2344" y2="592.2344"/><text fill="#000000" font-family="sans-serif" font-size="13" lengthAdjust="spacing" textLength="189.3379" x="75.7959" y="587.3779">Tampil jawaban pertanyaan baru</text><polygon fill="#181818" points="283.561,618.5859,293.561,622.5859,283.561,626.5859,287.561,622.5859" style="stroke:#181818;stroke-width:1.0;"/><line style="stroke:#181818;stroke-width:1.0;" x1="45.3687" x2="289.561" y1="622.5859" y2="622.5859"/><text fill="#000000" font-family="sans-serif" font-size="13" lengthAdjust="spacing" textLength="226.1924" x="57.3687" y="617.7295">Klik pertanyaan yang sudah terbuka(id)</text><line style="stroke:#181818;stroke-width:1.0;stroke-dasharray:2.0,2.0;" x1="295.561" x2="337.561" y1="652.9375" y2="652.9375"/><line style="stroke:#181818;stroke-width:1.0;stroke-dasharray:2.0,2.0;" x1="337.561" x2="337.561" y1="652.9375" y2="665.9375"/><line style="stroke:#181818;stroke-width:1.0;stroke-dasharray:2.0,2.0;" x1="296.561" x2="337.561" y1="665.9375" y2="665.9375"/><polygon fill="#181818" points="306.561,661.9375,296.561,665.9375,306.561,669.9375,302.561,665.9375" style="stroke:#181818;stroke-width:1.0;"/><text fill="#000000" font-family="sans-serif" font-size="13" lengthAdjust="spacing" textLength="124.2808" x="302.561" y="648.0811">collapseAccordion(id)</text><polygon fill="#181818" points="56.3687,692.2891,46.3687,696.2891,56.3687,700.2891,52.3687,696.2891" style="stroke:#181818;stroke-width:1.0;"/><line style="stroke:#181818;stroke-width:1.0;stroke-dasharray:2.0,2.0;" x1="50.3687" x2="294.561" y1="696.2891" y2="696.2891"/><text fill="#000000" font-family="sans-serif" font-size="13" lengthAdjust="spacing" textLength="130.8062" x="105.0618" y="691.4326">Sembunyikan jawaban</text><!--SRC=[ZP71Jkj034NtynLMDgGBVe05KYYmUK8g0hqL4d8pVgd9n0dZ6Kh-7YTjLKIH-h9AxEDxhnrjMGQCs87IUoQfwO5KiQ4gS2DGaoIApYLEWU1fZy0jOsCpB_90qc2hf71VFJg7TUeZ52khPddBqXI02dzPsUhEV1BNFA0aA8nVcSqCtAzEUijUKkn3eBWZbYV4hZwvxlNXyjgKu0gEeJOOi4EPCMjDmDA0hi-IoeMpZwbKFLgjZvxYpLXUp2yNYylhXYR6OKXGUOHRJ3WBWJtJvC7Eimu1Hsjf-G_VTU4eAC4pUspdoT-6TDDlxxeXZVjpbyKDXTm1xdWOKHgmqojvni8anPyk-YTm2mF5X3AYhMbyiX-MI_QBUTy3I9zsDb_LjIt7lNpl7pIlu1cxWGEyuHRN9dRKFMySaAKKshx-DAxj5-AWTBGU8drmd_NrNCOVSl-H4zOOy_cmysarUznC1rld5ilpiNzDyaJTEil8hQdkuxWl]--></g></svg>