<svg xmlns="http://www.w3.org/2000/svg" xmlns:xlink="http://www.w3.org/1999/xlink" contentStyleType="text/css" height="1460px" preserveAspectRatio="none" style="width:1399px;height:1460px;background:#FFFFFF;" version="1.1" viewBox="0 0 1399 1460" width="1399px" zoomAndPan="magnify"><defs/><g><rect fill="none" height="48.7031" style="stroke:#000000;stroke-width:1.5;" width="684.0063" x="698.2021" y="826.0469"/><rect fill="none" height="216.2969" style="stroke:#000000;stroke-width:1.5;" width="1138.7495" x="243.459" y="963.4531"/><line style="stroke:#181818;stroke-width:0.5;stroke-dasharray:5.0,5.0;" x1="23" x2="23" y1="82.6094" y2="1378.8594"/><line style="stroke:#181818;stroke-width:0.5;stroke-dasharray:5.0,5.0;" x1="314.459" x2="314.459" y1="82.6094" y2="1378.8594"/><line style="stroke:#181818;stroke-width:0.5;stroke-dasharray:5.0,5.0;" x1="430.1895" x2="430.1895" y1="82.6094" y2="1378.8594"/><line style="stroke:#181818;stroke-width:0.5;stroke-dasharray:5.0,5.0;" x1="545.334" x2="545.334" y1="82.6094" y2="1378.8594"/><line style="stroke:#181818;stroke-width:0.5;stroke-dasharray:5.0,5.0;" x1="657.2715" x2="657.2715" y1="82.6094" y2="1378.8594"/><line style="stroke:#181818;stroke-width:0.5;stroke-dasharray:5.0,5.0;" x1="766.2021" x2="766.2021" y1="82.6094" y2="1378.8594"/><line style="stroke:#181818;stroke-width:0.5;stroke-dasharray:5.0,5.0;" x1="871.9258" x2="871.9258" y1="82.6094" y2="1378.8594"/><line style="stroke:#181818;stroke-width:0.5;stroke-dasharray:5.0,5.0;" x1="953.6084" x2="953.6084" y1="82.6094" y2="1378.8594"/><line style="stroke:#181818;stroke-width:0.5;stroke-dasharray:5.0,5.0;" x1="1062.8564" x2="1062.8564" y1="82.6094" y2="1378.8594"/><line style="stroke:#181818;stroke-width:0.5;stroke-dasharray:5.0,5.0;" x1="1338.2778" x2="1338.2778" y1="82.6094" y2="1378.8594"/><text fill="#000000" font-family="sans-serif" font-size="14" lengthAdjust="spacing" textLength="31.8965" x="5" y="79.5332">Kasir</text><ellipse cx="23.9482" cy="13.5" fill="#E2E2F0" rx="8" ry="8" style="stroke:#181818;stroke-width:0.5;"/><path d="M23.9482,21.5 L23.9482,48.5 M10.9482,29.5 L36.9482,29.5 M23.9482,48.5 L10.9482,63.5 M23.9482,48.5 L36.9482,63.5 " fill="none" style="stroke:#181818;stroke-width:0.5;"/><text fill="#000000" font-family="sans-serif" font-size="14" lengthAdjust="spacing" textLength="31.8965" x="5" y="1392.3926">Kasir</text><ellipse cx="23.9482" cy="1403.9688" fill="#E2E2F0" rx="8" ry="8" style="stroke:#181818;stroke-width:0.5;"/><path d="M23.9482,1411.9688 L23.9482,1438.9688 M10.9482,1419.9688 L36.9482,1419.9688 M23.9482,1438.9688 L10.9482,1453.9688 M23.9482,1438.9688 L36.9482,1453.9688 " fill="none" style="stroke:#181818;stroke-width:0.5;"/><rect fill="#E2E2F0" height="49.2188" rx="2.5" ry="2.5" style="stroke:#181818;stroke-width:0.5;" width="123.7305" x="253.459" y="32.3906"/><text fill="#000000" font-family="sans-serif" font-size="14" lengthAdjust="spacing" textLength="109.7305" x="260.459" y="53.9238">Transaction Page</text><text fill="#000000" font-family="sans-serif" font-size="14" lengthAdjust="spacing" textLength="60.6758" x="284.9863" y="71.5332">(Livewire)</text><rect fill="#E2E2F0" height="49.2188" rx="2.5" ry="2.5" style="stroke:#181818;stroke-width:0.5;" width="123.7305" x="253.459" y="1377.8594"/><text fill="#000000" font-family="sans-serif" font-size="14" lengthAdjust="spacing" textLength="109.7305" x="260.459" y="1399.3926">Transaction Page</text><text fill="#000000" font-family="sans-serif" font-size="14" lengthAdjust="spacing" textLength="60.6758" x="284.9863" y="1417.002">(Livewire)</text><rect fill="#E2E2F0" height="49.2188" rx="2.5" ry="2.5" style="stroke:#181818;stroke-width:0.5;" width="87.1445" x="387.1895" y="32.3906"/><text fill="#000000" font-family="sans-serif" font-size="14" lengthAdjust="spacing" textLength="73.1445" x="394.1895" y="53.9238">Transaction</text><text fill="#000000" font-family="sans-serif" font-size="14" lengthAdjust="spacing" textLength="38.1309" x="411.6963" y="71.5332">Model</text><rect fill="#E2E2F0" height="49.2188" rx="2.5" ry="2.5" style="stroke:#181818;stroke-width:0.5;" width="87.1445" x="387.1895" y="1377.8594"/><text fill="#000000" font-family="sans-serif" font-size="14" lengthAdjust="spacing" textLength="73.1445" x="394.1895" y="1399.3926">Transaction</text><text fill="#000000" font-family="sans-serif" font-size="14" lengthAdjust="spacing" textLength="38.1309" x="411.6963" y="1417.002">Model</text><rect fill="#E2E2F0" height="49.2188" rx="2.5" ry="2.5" style="stroke:#181818;stroke-width:0.5;" width="122.9375" x="484.334" y="32.3906"/><text fill="#000000" font-family="sans-serif" font-size="14" lengthAdjust="spacing" textLength="108.9375" x="491.334" y="53.9238">TransactionDetail</text><text fill="#000000" font-family="sans-serif" font-size="14" lengthAdjust="spacing" textLength="38.1309" x="526.7373" y="71.5332">Model</text><rect fill="#E2E2F0" height="49.2188" rx="2.5" ry="2.5" style="stroke:#181818;stroke-width:0.5;" width="122.9375" x="484.334" y="1377.8594"/><text fill="#000000" font-family="sans-serif" font-size="14" lengthAdjust="spacing" textLength="108.9375" x="491.334" y="1399.3926">TransactionDetail</text><text fill="#000000" font-family="sans-serif" font-size="14" lengthAdjust="spacing" textLength="38.1309" x="526.7373" y="1417.002">Model</text><rect fill="#E2E2F0" height="49.2188" rx="2.5" ry="2.5" style="stroke:#181818;stroke-width:0.5;" width="80.9307" x="617.2715" y="32.3906"/><text fill="#000000" font-family="sans-serif" font-size="14" lengthAdjust="spacing" textLength="66.9307" x="624.2715" y="53.9238">Production</text><text fill="#000000" font-family="sans-serif" font-size="14" lengthAdjust="spacing" textLength="38.1309" x="638.6714" y="71.5332">Model</text><rect fill="#E2E2F0" height="49.2188" rx="2.5" ry="2.5" style="stroke:#181818;stroke-width:0.5;" width="80.9307" x="617.2715" y="1377.8594"/><text fill="#000000" font-family="sans-serif" font-size="14" lengthAdjust="spacing" textLength="66.9307" x="624.2715" y="1399.3926">Production</text><text fill="#000000" font-family="sans-serif" font-size="14" lengthAdjust="spacing" textLength="38.1309" x="638.6714" y="1417.002">Model</text><rect fill="#E2E2F0" height="49.2188" rx="2.5" ry="2.5" style="stroke:#181818;stroke-width:0.5;" width="116.7236" x="708.2021" y="32.3906"/><text fill="#000000" font-family="sans-serif" font-size="14" lengthAdjust="spacing" textLength="102.7236" x="715.2021" y="53.9238">ProductionDetail</text><text fill="#000000" font-family="sans-serif" font-size="14" lengthAdjust="spacing" textLength="38.1309" x="747.4985" y="71.5332">Model</text><rect fill="#E2E2F0" height="49.2188" rx="2.5" ry="2.5" style="stroke:#181818;stroke-width:0.5;" width="116.7236" x="708.2021" y="1377.8594"/><text fill="#000000" font-family="sans-serif" font-size="14" lengthAdjust="spacing" textLength="102.7236" x="715.2021" y="1399.3926">ProductionDetail</text><text fill="#000000" font-family="sans-serif" font-size="14" lengthAdjust="spacing" textLength="38.1309" x="747.4985" y="1417.002">Model</text><rect fill="#E2E2F0" height="49.2188" rx="2.5" ry="2.5" style="stroke:#181818;stroke-width:0.5;" width="74.6826" x="834.9258" y="32.3906"/><text fill="#000000" font-family="sans-serif" font-size="14" lengthAdjust="spacing" textLength="60.6826" x="841.9258" y="53.9238">Customer</text><text fill="#000000" font-family="sans-serif" font-size="14" lengthAdjust="spacing" textLength="38.1309" x="853.2017" y="71.5332">Model</text><rect fill="#E2E2F0" height="49.2188" rx="2.5" ry="2.5" style="stroke:#181818;stroke-width:0.5;" width="74.6826" x="834.9258" y="1377.8594"/><text fill="#000000" font-family="sans-serif" font-size="14" lengthAdjust="spacing" textLength="60.6826" x="841.9258" y="1399.3926">Customer</text><text fill="#000000" font-family="sans-serif" font-size="14" lengthAdjust="spacing" textLength="38.1309" x="853.2017" y="1417.002">Model</text><rect fill="#E2E2F0" height="49.2188" rx="2.5" ry="2.5" style="stroke:#181818;stroke-width:0.5;" width="69.248" x="919.6084" y="32.3906"/><text fill="#000000" font-family="sans-serif" font-size="14" lengthAdjust="spacing" textLength="55.248" x="926.6084" y="53.9238">Payment</text><text fill="#000000" font-family="sans-serif" font-size="14" lengthAdjust="spacing" textLength="38.1309" x="935.167" y="71.5332">Model</text><rect fill="#E2E2F0" height="49.2188" rx="2.5" ry="2.5" style="stroke:#181818;stroke-width:0.5;" width="69.248" x="919.6084" y="1377.8594"/><text fill="#000000" font-family="sans-serif" font-size="14" lengthAdjust="spacing" textLength="55.248" x="926.6084" y="1399.3926">Payment</text><text fill="#000000" font-family="sans-serif" font-size="14" lengthAdjust="spacing" textLength="38.1309" x="935.167" y="1417.002">Model</text><rect fill="#E2E2F0" height="31.6094" rx="2.5" ry="2.5" style="stroke:#181818;stroke-width:0.5;" width="129.9375" x="998.8564" y="50"/><text fill="#000000" font-family="sans-serif" font-size="14" lengthAdjust="spacing" textLength="115.9375" x="1005.8564" y="71.5332">NotificationService</text><rect fill="#E2E2F0" height="31.6094" rx="2.5" ry="2.5" style="stroke:#181818;stroke-width:0.5;" width="129.9375" x="998.8564" y="1377.8594"/><text fill="#000000" font-family="sans-serif" font-size="14" lengthAdjust="spacing" textLength="115.9375" x="1005.8564" y="1399.3926">NotificationService</text><text fill="#000000" font-family="sans-serif" font-size="14" lengthAdjust="spacing" textLength="59.9307" x="1306.2778" y="79.5332">Database</text><path d="M1321.2432,29 C1321.2432,19 1339.2432,19 1339.2432,19 C1339.2432,19 1357.2432,19 1357.2432,29 L1357.2432,55 C1357.2432,65 1339.2432,65 1339.2432,65 C1339.2432,65 1321.2432,65 1321.2432,55 L1321.2432,29 " fill="#E2E2F0" style="stroke:#181818;stroke-width:1.5;"/><path d="M1321.2432,29 C1321.2432,39 1339.2432,39 1339.2432,39 C1339.2432,39 1357.2432,39 1357.2432,29 " fill="none" style="stroke:#181818;stroke-width:1.5;"/><text fill="#000000" font-family="sans-serif" font-size="14" lengthAdjust="spacing" textLength="59.9307" x="1306.2778" y="1392.3926">Database</text><path d="M1321.2432,1405.4688 C1321.2432,1395.4688 1339.2432,1395.4688 1339.2432,1395.4688 C1339.2432,1395.4688 1357.2432,1395.4688 1357.2432,1405.4688 L1357.2432,1431.4688 C1357.2432,1441.4688 1339.2432,1441.4688 1339.2432,1441.4688 C1339.2432,1441.4688 1321.2432,1441.4688 1321.2432,1431.4688 L1321.2432,1405.4688 " fill="#E2E2F0" style="stroke:#181818;stroke-width:1.5;"/><path d="M1321.2432,1405.4688 C1321.2432,1415.4688 1339.2432,1415.4688 1339.2432,1415.4688 C1339.2432,1415.4688 1357.2432,1415.4688 1357.2432,1405.4688 " fill="none" style="stroke:#181818;stroke-width:1.5;"/><rect fill="#EEEEEE" height="3" style="stroke:#EEEEEE;stroke-width:1.0;" width="1392.2085" x="0" y="113.7852"/><line style="stroke:#000000;stroke-width:1.0;" x1="0" x2="1392.2085" y1="113.7852" y2="113.7852"/><line style="stroke:#000000;stroke-width:1.0;" x1="0" x2="1392.2085" y1="116.7852" y2="116.7852"/><rect fill="#EEEEEE" height="24.3516" style="stroke:#000000;stroke-width:2.0;" width="131.7554" x="630.2266" y="102.6094"/><text fill="#000000" font-family="sans-serif" font-size="13" font-weight="bold" lengthAdjust="spacing" textLength="114.1436" x="636.2266" y="120.1045">Membuat Pesanan</text><polygon fill="#181818" points="303.3242,155.3125,313.3242,159.3125,303.3242,163.3125,307.3242,159.3125" style="stroke:#181818;stroke-width:1.0;"/><line style="stroke:#181818;stroke-width:1.0;" x1="23.9482" x2="309.3242" y1="159.3125" y2="159.3125"/><text fill="#000000" font-family="sans-serif" font-size="13" lengthAdjust="spacing" textLength="267.376" x="30.9482" y="154.4561">Pilih metode (pesanan-reguler/pesanan-kotak)</text><polygon fill="#181818" points="303.3242,185.6641,313.3242,189.6641,303.3242,193.6641,307.3242,189.6641" style="stroke:#181818;stroke-width:1.0;"/><line style="stroke:#181818;stroke-width:1.0;" x1="23.9482" x2="309.3242" y1="189.6641" y2="189.6641"/><text fill="#000000" font-family="sans-serif" font-size="13" lengthAdjust="spacing" textLength="135.1353" x="30.9482" y="184.8076">Pilih produk dan jumlah</text><polygon fill="#181818" points="303.3242,216.0156,313.3242,220.0156,303.3242,224.0156,307.3242,220.0156" style="stroke:#181818;stroke-width:1.0;"/><line style="stroke:#181818;stroke-width:1.0;" x1="23.9482" x2="309.3242" y1="220.0156" y2="220.0156"/><text fill="#000000" font-family="sans-serif" font-size="13" lengthAdjust="spacing" textLength="177.7725" x="30.9482" y="215.1592">Masukkan jadwal pengambilan</text><polygon fill="#181818" points="303.3242,246.3672,313.3242,250.3672,303.3242,254.3672,307.3242,250.3672" style="stroke:#181818;stroke-width:1.0;"/><line style="stroke:#181818;stroke-width:1.0;" x1="23.9482" x2="309.3242" y1="250.3672" y2="250.3672"/><text fill="#000000" font-family="sans-serif" font-size="13" lengthAdjust="spacing" textLength="152.5024" x="30.9482" y="245.5107">Masukkan data pelanggan</text><polygon fill="#181818" points="860.2671,276.7188,870.2671,280.7188,860.2671,284.7188,864.2671,280.7188" style="stroke:#181818;stroke-width:1.0;"/><line style="stroke:#181818;stroke-width:1.0;" x1="315.3242" x2="866.2671" y1="280.7188" y2="280.7188"/><text fill="#000000" font-family="sans-serif" font-size="13" lengthAdjust="spacing" textLength="189.9536" x="322.3242" y="275.8623">firstOrCreate(['phone' =&gt; phone])</text><polygon fill="#181818" points="326.3242,307.0703,316.3242,311.0703,326.3242,315.0703,322.3242,311.0703" style="stroke:#181818;stroke-width:1.0;"/><line style="stroke:#181818;stroke-width:1.0;stroke-dasharray:2.0,2.0;" x1="320.3242" x2="871.2671" y1="311.0703" y2="311.0703"/><text fill="#000000" font-family="sans-serif" font-size="13" lengthAdjust="spacing" textLength="53.46" x="332.3242" y="306.2139">customer</text><polygon fill="#181818" points="303.3242,337.4219,313.3242,341.4219,303.3242,345.4219,307.3242,341.4219" style="stroke:#181818;stroke-width:1.0;"/><line style="stroke:#181818;stroke-width:1.0;" x1="23.9482" x2="309.3242" y1="341.4219" y2="341.4219"/><text fill="#000000" font-family="sans-serif" font-size="13" lengthAdjust="spacing" textLength="87.4072" x="30.9482" y="336.5654">processOrder()</text><rect fill="#EEEEEE" height="3" style="stroke:#EEEEEE;stroke-width:1.0;" width="1392.2085" x="0" y="370.5977"/><line style="stroke:#000000;stroke-width:1.0;" x1="0" x2="1392.2085" y1="370.5977" y2="370.5977"/><line style="stroke:#000000;stroke-width:1.0;" x1="0" x2="1392.2085" y1="373.5977" y2="373.5977"/><rect fill="#EEEEEE" height="24.3516" style="stroke:#000000;stroke-width:2.0;" width="128.8799" x="631.6643" y="359.4219"/><text fill="#000000" font-family="sans-serif" font-size="13" font-weight="bold" lengthAdjust="spacing" textLength="111.2681" x="637.6643" y="376.917">Simpan Transaksi</text><polygon fill="#181818" points="418.7617,423.3008,428.7617,427.3008,418.7617,431.3008,422.7617,427.3008" style="stroke:#181818;stroke-width:1.0;"/><line style="stroke:#181818;stroke-width:1.0;" x1="315.3242" x2="424.7617" y1="427.3008" y2="427.3008"/><text fill="#000000" font-family="sans-serif" font-size="13" lengthAdjust="spacing" textLength="70.0908" x="322.3242" y="422.4443">create(data)</text><path d="M435,398.7734 L435,440.7734 L700,440.7734 L700,408.7734 L690,398.7734 L435,398.7734 " fill="#FEFFDD" style="stroke:#181818;stroke-width:0.5;"/><path d="M690,398.7734 L690,408.7734 L700,408.7734 L690,398.7734 " fill="#FEFFDD" style="stroke:#181818;stroke-width:0.5;"/><text fill="#000000" font-family="sans-serif" font-size="13" lengthAdjust="spacing" textLength="90.2319" x="441" y="417.2686">Status: 'Antrian'</text><text fill="#000000" font-family="sans-serif" font-size="13" lengthAdjust="spacing" textLength="244.0801" x="441" y="433.6201">Method: 'pesanan-reguler'/'pesanan-kotak'</text><polygon fill="#181818" points="1327.2432,464.8281,1337.2432,468.8281,1327.2432,472.8281,1331.2432,468.8281" style="stroke:#181818;stroke-width:1.0;"/><line style="stroke:#181818;stroke-width:1.0;" x1="430.7617" x2="1333.2432" y1="468.8281" y2="468.8281"/><text fill="#000000" font-family="sans-serif" font-size="13" lengthAdjust="spacing" textLength="156.0381" x="437.7617" y="463.9717">INSERT INTO transactions</text><polygon fill="#181818" points="441.7617,495.1797,431.7617,499.1797,441.7617,503.1797,437.7617,499.1797" style="stroke:#181818;stroke-width:1.0;"/><line style="stroke:#181818;stroke-width:1.0;stroke-dasharray:2.0,2.0;" x1="435.7617" x2="1338.2432" y1="499.1797" y2="499.1797"/><text fill="#000000" font-family="sans-serif" font-size="13" lengthAdjust="spacing" textLength="63.5908" x="447.7617" y="494.3232">transaction</text><polygon fill="#181818" points="533.8027,525.5313,543.8027,529.5313,533.8027,533.5313,537.8027,529.5313" style="stroke:#181818;stroke-width:1.0;"/><line style="stroke:#181818;stroke-width:1.0;" x1="315.3242" x2="539.8027" y1="529.5313" y2="529.5313"/><text fill="#000000" font-family="sans-serif" font-size="13" lengthAdjust="spacing" textLength="107.6372" x="322.3242" y="524.6748">createMany(items)</text><polygon fill="#181818" points="1327.2432,555.8828,1337.2432,559.8828,1327.2432,563.8828,1331.2432,559.8828" style="stroke:#181818;stroke-width:1.0;"/><line style="stroke:#181818;stroke-width:1.0;" x1="545.8027" x2="1333.2432" y1="559.8828" y2="559.8828"/><text fill="#000000" font-family="sans-serif" font-size="13" lengthAdjust="spacing" textLength="194.3462" x="552.8027" y="555.0264">INSERT INTO transaction_details</text><polygon fill="#181818" points="556.8027,586.2344,546.8027,590.2344,556.8027,594.2344,552.8027,590.2344" style="stroke:#181818;stroke-width:1.0;"/><line style="stroke:#181818;stroke-width:1.0;stroke-dasharray:2.0,2.0;" x1="550.8027" x2="1338.2432" y1="590.2344" y2="590.2344"/><text fill="#000000" font-family="sans-serif" font-size="13" lengthAdjust="spacing" textLength="37.5781" x="562.8027" y="585.3779">details</text><rect fill="#EEEEEE" height="3" style="stroke:#EEEEEE;stroke-width:1.0;" width="1392.2085" x="0" y="619.4102"/><line style="stroke:#000000;stroke-width:1.0;" x1="0" x2="1392.2085" y1="619.4102" y2="619.4102"/><line style="stroke:#000000;stroke-width:1.0;" x1="0" x2="1392.2085" y1="622.4102" y2="622.4102"/><rect fill="#EEEEEE" height="24.3516" style="stroke:#000000;stroke-width:2.0;" width="154.1372" x="619.0356" y="608.2344"/><text fill="#000000" font-family="sans-serif" font-size="13" font-weight="bold" lengthAdjust="spacing" textLength="136.5254" x="625.0356" y="625.7295">Buat Record Produksi</text><polygon fill="#181818" points="645.7368,688.4648,655.7368,692.4648,645.7368,696.4648,649.7368,692.4648" style="stroke:#181818;stroke-width:1.0;"/><line style="stroke:#181818;stroke-width:1.0;" x1="315.3242" x2="651.7368" y1="692.4648" y2="692.4648"/><text fill="#000000" font-family="sans-serif" font-size="13" lengthAdjust="spacing" textLength="70.0908" x="322.3242" y="687.6084">create(data)</text><path d="M662,647.5859 L662,722.5859 L883,722.5859 L883,657.5859 L873,647.5859 L662,647.5859 " fill="#FEFFDD" style="stroke:#181818;stroke-width:0.5;"/><path d="M873,647.5859 L873,657.5859 L883,657.5859 L873,647.5859 " fill="#FEFFDD" style="stroke:#181818;stroke-width:0.5;"/><text fill="#000000" font-family="sans-serif" font-size="13" lengthAdjust="spacing" textLength="200.1924" x="668" y="666.0811">production_number: auto-generate</text><text fill="#000000" font-family="sans-serif" font-size="13" lengthAdjust="spacing" textLength="180.6416" x="668" y="682.4326">transaction_id: link ke transaksi</text><text fill="#000000" font-family="sans-serif" font-size="13" lengthAdjust="spacing" textLength="184.9961" x="668" y="698.7842">method: sama dengan transaksi</text><text fill="#000000" font-family="sans-serif" font-size="13" lengthAdjust="spacing" textLength="88.061" x="668" y="715.1357">status: 'Antrian'</text><polygon fill="#181818" points="1327.2432,746.3438,1337.2432,750.3438,1327.2432,754.3438,1331.2432,750.3438" style="stroke:#181818;stroke-width:1.0;"/><line style="stroke:#181818;stroke-width:1.0;" x1="657.7368" x2="1333.2432" y1="750.3438" y2="750.3438"/><text fill="#000000" font-family="sans-serif" font-size="13" lengthAdjust="spacing" textLength="153.1563" x="664.7368" y="745.4873">INSERT INTO productions</text><polygon fill="#181818" points="668.7368,776.6953,658.7368,780.6953,668.7368,784.6953,664.7368,780.6953" style="stroke:#181818;stroke-width:1.0;"/><line style="stroke:#181818;stroke-width:1.0;stroke-dasharray:2.0,2.0;" x1="662.7368" x2="1338.2432" y1="780.6953" y2="780.6953"/><text fill="#000000" font-family="sans-serif" font-size="13" lengthAdjust="spacing" textLength="60.709" x="674.7368" y="775.8389">production</text><polygon fill="#181818" points="754.564,807.0469,764.564,811.0469,754.564,815.0469,758.564,811.0469" style="stroke:#181818;stroke-width:1.0;"/><line style="stroke:#181818;stroke-width:1.0;" x1="315.3242" x2="760.564" y1="811.0469" y2="811.0469"/><text fill="#000000" font-family="sans-serif" font-size="13" lengthAdjust="spacing" textLength="107.6372" x="322.3242" y="806.1904">createMany(items)</text><path d="M698.2021,826.0469 L770.6367,826.0469 L770.6367,834.3984 L760.6367,844.3984 L698.2021,844.3984 L698.2021,826.0469 " fill="#EEEEEE" style="stroke:#000000;stroke-width:1.5;"/><rect fill="none" height="48.7031" style="stroke:#000000;stroke-width:1.5;" width="684.0063" x="698.2021" y="826.0469"/><text fill="#000000" font-family="sans-serif" font-size="13" font-weight="bold" lengthAdjust="spacing" textLength="27.4346" x="713.2021" y="840.542">loop</text><text fill="#000000" font-family="sans-serif" font-size="11" font-weight="bold" lengthAdjust="spacing" textLength="99.0107" x="785.6367" y="839.4658">[Untuk setiap item]</text><polygon fill="#181818" points="1327.2432,862.75,1337.2432,866.75,1327.2432,870.75,1331.2432,866.75" style="stroke:#181818;stroke-width:1.0;"/><line style="stroke:#181818;stroke-width:1.0;" x1="766.564" x2="1333.2432" y1="866.75" y2="866.75"/><text fill="#000000" font-family="sans-serif" font-size="13" lengthAdjust="spacing" textLength="191.4644" x="773.564" y="861.8936">INSERT INTO production_details</text><polygon fill="#181818" points="777.564,900.1016,767.564,904.1016,777.564,908.1016,773.564,904.1016" style="stroke:#181818;stroke-width:1.0;"/><line style="stroke:#181818;stroke-width:1.0;stroke-dasharray:2.0,2.0;" x1="771.564" x2="1338.2432" y1="904.1016" y2="904.1016"/><text fill="#000000" font-family="sans-serif" font-size="13" lengthAdjust="spacing" textLength="37.5781" x="783.564" y="899.2451">details</text><rect fill="#EEEEEE" height="3" style="stroke:#EEEEEE;stroke-width:1.0;" width="1392.2085" x="0" y="933.2773"/><line style="stroke:#000000;stroke-width:1.0;" x1="0" x2="1392.2085" y1="933.2773" y2="933.2773"/><line style="stroke:#000000;stroke-width:1.0;" x1="0" x2="1392.2085" y1="936.2773" y2="936.2773"/><rect fill="#EEEEEE" height="24.3516" style="stroke:#000000;stroke-width:2.0;" width="214.1289" x="589.0398" y="922.1016"/><text fill="#000000" font-family="sans-serif" font-size="13" font-weight="bold" lengthAdjust="spacing" textLength="196.5171" x="595.0398" y="939.5967">Proses Pembayaran (DP/Lunas)</text><path d="M243.459,963.4531 L303.6299,963.4531 L303.6299,971.8047 L293.6299,981.8047 L243.459,981.8047 L243.459,963.4531 " fill="#EEEEEE" style="stroke:#000000;stroke-width:1.5;"/><rect fill="none" height="216.2969" style="stroke:#000000;stroke-width:1.5;" width="1138.7495" x="243.459" y="963.4531"/><text fill="#000000" font-family="sans-serif" font-size="13" font-weight="bold" lengthAdjust="spacing" textLength="15.1709" x="258.459" y="977.9482">alt</text><text fill="#000000" font-family="sans-serif" font-size="11" font-weight="bold" lengthAdjust="spacing" textLength="56.2407" x="318.6299" y="976.8721">[Bayar DP]</text><polygon fill="#181818" points="942.2324,1000.1563,952.2324,1004.1563,942.2324,1008.1563,946.2324,1004.1563" style="stroke:#181818;stroke-width:1.0;"/><line style="stroke:#181818;stroke-width:1.0;" x1="315.3242" x2="948.2324" y1="1004.1563" y2="1004.1563"/><text fill="#000000" font-family="sans-serif" font-size="13" lengthAdjust="spacing" textLength="91.7808" x="322.3242" y="999.2998">create(dp_data)</text><polygon fill="#181818" points="1327.2432,1030.5078,1337.2432,1034.5078,1327.2432,1038.5078,1331.2432,1034.5078" style="stroke:#181818;stroke-width:1.0;"/><line style="stroke:#181818;stroke-width:1.0;" x1="954.2324" x2="1333.2432" y1="1034.5078" y2="1034.5078"/><text fill="#000000" font-family="sans-serif" font-size="13" lengthAdjust="spacing" textLength="142.3081" x="961.2324" y="1029.6514">INSERT INTO payments</text><polygon fill="#181818" points="1051.8252,1060.8594,1061.8252,1064.8594,1051.8252,1068.8594,1055.8252,1064.8594" style="stroke:#181818;stroke-width:1.0;"/><line style="stroke:#181818;stroke-width:1.0;" x1="315.3242" x2="1057.8252" y1="1064.8594" y2="1064.8594"/><text fill="#000000" font-family="sans-serif" font-size="13" lengthAdjust="spacing" textLength="234.1079" x="322.3242" y="1060.0029">paymentDownPayment(invoice, amount)</text><line style="stroke:#000000;stroke-width:1.0;stroke-dasharray:2.0,2.0;" x1="243.459" x2="1382.2085" y1="1073.8594" y2="1073.8594"/><text fill="#000000" font-family="sans-serif" font-size="11" font-weight="bold" lengthAdjust="spacing" textLength="73.353" x="248.459" y="1085.2783">[Bayar Lunas]</text><polygon fill="#181818" points="942.2324,1107.0469,952.2324,1111.0469,942.2324,1115.0469,946.2324,1111.0469" style="stroke:#181818;stroke-width:1.0;"/><line style="stroke:#181818;stroke-width:1.0;" x1="315.3242" x2="948.2324" y1="1111.0469" y2="1111.0469"/><text fill="#000000" font-family="sans-serif" font-size="13" lengthAdjust="spacing" textLength="93.939" x="322.3242" y="1106.1904">create(full_data)</text><polygon fill="#181818" points="1327.2432,1137.3984,1337.2432,1141.3984,1327.2432,1145.3984,1331.2432,1141.3984" style="stroke:#181818;stroke-width:1.0;"/><line style="stroke:#181818;stroke-width:1.0;" x1="954.2324" x2="1333.2432" y1="1141.3984" y2="1141.3984"/><text fill="#000000" font-family="sans-serif" font-size="13" lengthAdjust="spacing" textLength="142.3081" x="961.2324" y="1136.542">INSERT INTO payments</text><polygon fill="#181818" points="1051.8252,1167.75,1061.8252,1171.75,1051.8252,1175.75,1055.8252,1171.75" style="stroke:#181818;stroke-width:1.0;"/><line style="stroke:#181818;stroke-width:1.0;" x1="315.3242" x2="1057.8252" y1="1171.75" y2="1171.75"/><text fill="#000000" font-family="sans-serif" font-size="13" lengthAdjust="spacing" textLength="212.437" x="322.3242" y="1166.8936">paymentCompleted(invoice, amount)</text><rect fill="#EEEEEE" height="3" style="stroke:#EEEEEE;stroke-width:1.0;" width="1392.2085" x="0" y="1207.9258"/><line style="stroke:#000000;stroke-width:1.0;" x1="0" x2="1392.2085" y1="1207.9258" y2="1207.9258"/><line style="stroke:#000000;stroke-width:1.0;" x1="0" x2="1392.2085" y1="1210.9258" y2="1210.9258"/><rect fill="#EEEEEE" height="24.3516" style="stroke:#000000;stroke-width:2.0;" width="112.9663" x="639.6211" y="1196.75"/><text fill="#000000" font-family="sans-serif" font-size="13" font-weight="bold" lengthAdjust="spacing" textLength="95.3545" x="645.6211" y="1214.2451">Kirim Notifikasi</text><polygon fill="#181818" points="1051.8252,1249.4531,1061.8252,1253.4531,1051.8252,1257.4531,1055.8252,1253.4531" style="stroke:#181818;stroke-width:1.0;"/><line style="stroke:#181818;stroke-width:1.0;" x1="315.3242" x2="1057.8252" y1="1253.4531" y2="1253.4531"/><text fill="#000000" font-family="sans-serif" font-size="13" lengthAdjust="spacing" textLength="177.0425" x="322.3242" y="1248.5967">orderQueued(invoice_number)</text><polygon fill="#181818" points="1327.2432,1279.8047,1337.2432,1283.8047,1327.2432,1287.8047,1331.2432,1283.8047" style="stroke:#181818;stroke-width:1.0;"/><line style="stroke:#181818;stroke-width:1.0;" x1="1063.8252" x2="1333.2432" y1="1283.8047" y2="1283.8047"/><text fill="#000000" font-family="sans-serif" font-size="13" lengthAdjust="spacing" textLength="229.728" x="1070.8252" y="1278.9482">INSERT INTO notifications (untuk kasir)</text><polygon fill="#181818" points="1327.2432,1310.1563,1337.2432,1314.1563,1327.2432,1318.1563,1331.2432,1314.1563" style="stroke:#181818;stroke-width:1.0;"/><line style="stroke:#181818;stroke-width:1.0;" x1="1063.8252" x2="1333.2432" y1="1314.1563" y2="1314.1563"/><text fill="#000000" font-family="sans-serif" font-size="13" lengthAdjust="spacing" textLength="251.418" x="1070.8252" y="1309.2998">INSERT INTO notifications (untuk produksi)</text><polygon fill="#181818" points="34.9482,1356.8594,24.9482,1360.8594,34.9482,1364.8594,30.9482,1360.8594" style="stroke:#181818;stroke-width:1.0;"/><line style="stroke:#181818;stroke-width:1.0;stroke-dasharray:2.0,2.0;" x1="28.9482" x2="314.3242" y1="1360.8594" y2="1360.8594"/><text fill="#000000" font-family="sans-serif" font-size="13" lengthAdjust="spacing" textLength="139.4897" x="40.9482" y="1339.6514">Pesanan berhasil dibuat</text><text fill="#000000" font-family="sans-serif" font-size="13" lengthAdjust="spacing" textLength="134.3989" x="40.9482" y="1356.0029">Masuk antrian produksi</text><!--SRC=[hLLDRzim3BthLn2zn0OMz1uW1PPwXw5DcpNPQHqAncOJpRPaI78__lqeouwThnO3Tef3Ff9FZnI5gTC6Rj1A8oeqJgQoGkNWOcLGMKoTr0eMkA575TtA5tgLXk8BG0khDsy-6_IevZgZ8a1xyrbyGWvbiHVr5cpx8GkZi_geGcyzXpxExtsdAbpNrkcIp13RsGwoutj9okqb3QPzt9rsybccw7aioRp8b1fmOnSPEboZ9KYw3tObCo6cKvXJkQxHmO8iAbGmdOgcLp2-QXimWOKiv1PASam2eYeWnuOsTK7cilkVQuTvV2wwyZhba769FtLPuFOOE4TRvxa7OFQA1LIaDbYkPO7g0x0_74CPjDamK0I0XtQIJk1P6klkpRKXT1Jz6bLRhMW4qojeldx7eiF2U50ZxNfoN9wFavArzoOZ4yMDaajPSZFQKSojz5BsP0Q3o8a34Kyz5aex0YCtMoS0bWvTRISm-ggSaQX6R9kJs-gCRGVAZov7UzgF1AaCV3enl5jSF9bDuFlTyjl3YdzMz-1wjnN9B1nwI70062hQNPZk17DKxv5qLDfOTBvFwZrb3QelkqlPERoMCp-I3vHgauMRTwHdV-y-ahFQePvKNQxzB63jz7X3YWp7C6J8JRBAXLGvvDJQkIvZohO35ajadZoMQizlZxgswqJFyvGmFR-T8CE3zMvnSFJpVIYqhk2dSdpPB3c95NW7auH1uCTSTZtYKmnfdUeKsotnLk8rWk_8ca2KB2vlQuKszXt3mi7CUo1PD2G6vmYRhEzVzHHQs70DpfD4WyiUf6jstQJp9lfLjJaYgLuqRyGlWAMkbOi55Rm30wk6wIV4dkkY-8_KhdLP5UGeEq6C1VUgtaWZon0cSpoS_JQTzildHqrrdwcTybWqa5CCrU2bi13LpQ3u4lySLBNtCkvdaqERJJdPFITCPikM0ZBfdnb-oFpU1WptP9T3_0K0]--></g></svg>