<svg xmlns="http://www.w3.org/2000/svg" xmlns:xlink="http://www.w3.org/1999/xlink" contentStyleType="text/css" height="1394px" preserveAspectRatio="none" style="width:1279px;height:1394px;background:#FFFFFF;" version="1.1" viewBox="0 0 1279 1394" width="1279px" zoomAndPan="magnify"><defs/><g><rect fill="none" height="79.0547" style="stroke:#000000;stroke-width:1.5;" width="440.9268" x="10" y="378.7734"/><rect fill="none" height="152.7578" style="stroke:#000000;stroke-width:1.5;" width="754.1426" x="10" y="593.2344"/><rect fill="none" height="152.7578" style="stroke:#000000;stroke-width:1.5;" width="754.1426" x="10" y="803.3438"/><line style="stroke:#181818;stroke-width:0.5;stroke-dasharray:5.0,5.0;" x1="37" x2="37" y1="82.6094" y2="1311.9688"/><line style="stroke:#181818;stroke-width:0.5;stroke-dasharray:5.0,5.0;" x1="216.7178" x2="216.7178" y1="82.6094" y2="1311.9688"/><line style="stroke:#181818;stroke-width:0.5;stroke-dasharray:5.0,5.0;" x1="390.5273" x2="390.5273" y1="82.6094" y2="1311.9688"/><line style="stroke:#181818;stroke-width:0.5;stroke-dasharray:5.0,5.0;" x1="723.4463" x2="723.4463" y1="82.6094" y2="1311.9688"/><line style="stroke:#181818;stroke-width:0.5;stroke-dasharray:5.0,5.0;" x1="965.3179" x2="965.3179" y1="82.6094" y2="1311.9688"/><line style="stroke:#181818;stroke-width:0.5;stroke-dasharray:5.0,5.0;" x1="1032.4487" x2="1032.4487" y1="82.6094" y2="1311.9688"/><line style="stroke:#181818;stroke-width:0.5;stroke-dasharray:5.0,5.0;" x1="1233.666" x2="1233.666" y1="82.6094" y2="1311.9688"/><text fill="#000000" font-family="sans-serif" font-size="14" lengthAdjust="spacing" textLength="29.5586" x="20" y="79.5332">User</text><ellipse cx="37.7793" cy="13.5" fill="#E2E2F0" rx="8" ry="8" style="stroke:#181818;stroke-width:0.5;"/><path d="M37.7793,21.5 L37.7793,48.5 M24.7793,29.5 L50.7793,29.5 M37.7793,48.5 L24.7793,63.5 M37.7793,48.5 L50.7793,63.5 " fill="none" style="stroke:#181818;stroke-width:0.5;"/><text fill="#000000" font-family="sans-serif" font-size="14" lengthAdjust="spacing" textLength="29.5586" x="20" y="1325.502">User</text><ellipse cx="37.7793" cy="1337.0781" fill="#E2E2F0" rx="8" ry="8" style="stroke:#181818;stroke-width:0.5;"/><path d="M37.7793,1345.0781 L37.7793,1372.0781 M24.7793,1353.0781 L50.7793,1353.0781 M37.7793,1372.0781 L24.7793,1387.0781 M37.7793,1372.0781 L50.7793,1387.0781 " fill="none" style="stroke:#181818;stroke-width:0.5;"/><rect fill="#E2E2F0" height="49.2188" rx="2.5" ry="2.5" style="stroke:#181818;stroke-width:0.5;" width="84.8408" x="174.7178" y="32.3906"/><text fill="#000000" font-family="sans-serif" font-size="14" lengthAdjust="spacing" textLength="70.8408" x="181.7178" y="53.9238">Login Page</text><text fill="#000000" font-family="sans-serif" font-size="14" lengthAdjust="spacing" textLength="45.1309" x="194.5728" y="71.5332">(Blade)</text><rect fill="#E2E2F0" height="49.2188" rx="2.5" ry="2.5" style="stroke:#181818;stroke-width:0.5;" width="84.8408" x="174.7178" y="1310.9688"/><text fill="#000000" font-family="sans-serif" font-size="14" lengthAdjust="spacing" textLength="70.8408" x="181.7178" y="1332.502">Login Page</text><text fill="#000000" font-family="sans-serif" font-size="14" lengthAdjust="spacing" textLength="45.1309" x="194.5728" y="1350.1113">(Blade)</text><rect fill="#E2E2F0" height="49.2188" rx="2.5" ry="2.5" style="stroke:#181818;stroke-width:0.5;" width="100.3994" x="340.5273" y="32.3906"/><text fill="#000000" font-family="sans-serif" font-size="14" lengthAdjust="spacing" textLength="86.3994" x="347.5273" y="53.9238">LoginRequest</text><text fill="#000000" font-family="sans-serif" font-size="14" lengthAdjust="spacing" textLength="60.6895" x="360.3823" y="71.5332">Controller</text><rect fill="#E2E2F0" height="49.2188" rx="2.5" ry="2.5" style="stroke:#181818;stroke-width:0.5;" width="100.3994" x="340.5273" y="1310.9688"/><text fill="#000000" font-family="sans-serif" font-size="14" lengthAdjust="spacing" textLength="86.3994" x="347.5273" y="1332.502">LoginRequest</text><text fill="#000000" font-family="sans-serif" font-size="14" lengthAdjust="spacing" textLength="60.6895" x="360.3823" y="1350.1113">Controller</text><rect fill="#E2E2F0" height="49.2188" rx="2.5" ry="2.5" style="stroke:#181818;stroke-width:0.5;" width="60.6963" x="693.4463" y="32.3906"/><text fill="#000000" font-family="sans-serif" font-size="14" lengthAdjust="spacing" textLength="28.7998" x="709.3945" y="53.9238">Auth</text><text fill="#000000" font-family="sans-serif" font-size="14" lengthAdjust="spacing" textLength="46.6963" x="700.4463" y="71.5332">Facade</text><rect fill="#E2E2F0" height="49.2188" rx="2.5" ry="2.5" style="stroke:#181818;stroke-width:0.5;" width="60.6963" x="693.4463" y="1310.9688"/><text fill="#000000" font-family="sans-serif" font-size="14" lengthAdjust="spacing" textLength="28.7998" x="709.3945" y="1332.502">Auth</text><text fill="#000000" font-family="sans-serif" font-size="14" lengthAdjust="spacing" textLength="46.6963" x="700.4463" y="1350.1113">Facade</text><rect fill="#E2E2F0" height="49.2188" rx="2.5" ry="2.5" style="stroke:#181818;stroke-width:0.5;" width="52.1309" x="939.3179" y="32.3906"/><text fill="#000000" font-family="sans-serif" font-size="14" lengthAdjust="spacing" textLength="29.5586" x="950.604" y="53.9238">User</text><text fill="#000000" font-family="sans-serif" font-size="14" lengthAdjust="spacing" textLength="38.1309" x="946.3179" y="71.5332">Model</text><rect fill="#E2E2F0" height="49.2188" rx="2.5" ry="2.5" style="stroke:#181818;stroke-width:0.5;" width="52.1309" x="939.3179" y="1310.9688"/><text fill="#000000" font-family="sans-serif" font-size="14" lengthAdjust="spacing" textLength="29.5586" x="950.604" y="1332.502">User</text><text fill="#000000" font-family="sans-serif" font-size="14" lengthAdjust="spacing" textLength="38.1309" x="946.3179" y="1350.1113">Model</text><rect fill="#E2E2F0" height="31.6094" rx="2.5" ry="2.5" style="stroke:#181818;stroke-width:0.5;" width="63.8066" x="1001.4487" y="50"/><text fill="#000000" font-family="sans-serif" font-size="14" lengthAdjust="spacing" textLength="49.8066" x="1008.4487" y="71.5332">Session</text><rect fill="#E2E2F0" height="31.6094" rx="2.5" ry="2.5" style="stroke:#181818;stroke-width:0.5;" width="63.8066" x="1001.4487" y="1310.9688"/><text fill="#000000" font-family="sans-serif" font-size="14" lengthAdjust="spacing" textLength="49.8066" x="1008.4487" y="1332.502">Session</text><text fill="#000000" font-family="sans-serif" font-size="14" lengthAdjust="spacing" textLength="59.9307" x="1201.666" y="79.5332">Database</text><path d="M1216.6313,29 C1216.6313,19 1234.6313,19 1234.6313,19 C1234.6313,19 1252.6313,19 1252.6313,29 L1252.6313,55 C1252.6313,65 1234.6313,65 1234.6313,65 C1234.6313,65 1216.6313,65 1216.6313,55 L1216.6313,29 " fill="#E2E2F0" style="stroke:#181818;stroke-width:1.5;"/><path d="M1216.6313,29 C1216.6313,39 1234.6313,39 1234.6313,39 C1234.6313,39 1252.6313,39 1252.6313,29 " fill="none" style="stroke:#181818;stroke-width:1.5;"/><text fill="#000000" font-family="sans-serif" font-size="14" lengthAdjust="spacing" textLength="59.9307" x="1201.666" y="1325.502">Database</text><path d="M1216.6313,1338.5781 C1216.6313,1328.5781 1234.6313,1328.5781 1234.6313,1328.5781 C1234.6313,1328.5781 1252.6313,1328.5781 1252.6313,1338.5781 L1252.6313,1364.5781 C1252.6313,1374.5781 1234.6313,1374.5781 1234.6313,1374.5781 C1234.6313,1374.5781 1216.6313,1374.5781 1216.6313,1364.5781 L1216.6313,1338.5781 " fill="#E2E2F0" style="stroke:#181818;stroke-width:1.5;"/><path d="M1216.6313,1338.5781 C1216.6313,1348.5781 1234.6313,1348.5781 1234.6313,1348.5781 C1234.6313,1348.5781 1252.6313,1348.5781 1252.6313,1338.5781 " fill="none" style="stroke:#181818;stroke-width:1.5;"/><rect fill="#EEEEEE" height="3" style="stroke:#EEEEEE;stroke-width:1.0;" width="1272.5967" x="0" y="113.7852"/><line style="stroke:#000000;stroke-width:1.0;" x1="0" x2="1272.5967" y1="113.7852" y2="113.7852"/><line style="stroke:#000000;stroke-width:1.0;" x1="0" x2="1272.5967" y1="116.7852" y2="116.7852"/><rect fill="#EEEEEE" height="24.3516" style="stroke:#000000;stroke-width:2.0;" width="152.709" x="559.9438" y="102.6094"/><text fill="#000000" font-family="sans-serif" font-size="13" font-weight="bold" lengthAdjust="spacing" textLength="135.0972" x="565.9438" y="120.1045">Akses Halaman Login</text><polygon fill="#181818" points="205.1382,155.3125,215.1382,159.3125,205.1382,163.3125,209.1382,159.3125" style="stroke:#181818;stroke-width:1.0;"/><line style="stroke:#181818;stroke-width:1.0;" x1="37.7793" x2="211.1382" y1="159.3125" y2="159.3125"/><text fill="#000000" font-family="sans-serif" font-size="13" lengthAdjust="spacing" textLength="61.4136" x="44.7793" y="154.4561">GET /login</text><polygon fill="#181818" points="48.7793,185.6641,38.7793,189.6641,48.7793,193.6641,44.7793,189.6641" style="stroke:#181818;stroke-width:1.0;"/><line style="stroke:#181818;stroke-width:1.0;stroke-dasharray:2.0,2.0;" x1="42.7793" x2="216.1382" y1="189.6641" y2="189.6641"/><text fill="#000000" font-family="sans-serif" font-size="13" lengthAdjust="spacing" textLength="120.6563" x="54.7793" y="184.8076">Tampilkan form login</text><rect fill="#EEEEEE" height="3" style="stroke:#EEEEEE;stroke-width:1.0;" width="1272.5967" x="0" y="218.8398"/><line style="stroke:#000000;stroke-width:1.0;" x1="0" x2="1272.5967" y1="218.8398" y2="218.8398"/><line style="stroke:#000000;stroke-width:1.0;" x1="0" x2="1272.5967" y1="221.8398" y2="221.8398"/><rect fill="#EEEEEE" height="24.3516" style="stroke:#000000;stroke-width:2.0;" width="100.6519" x="585.9724" y="207.6641"/><text fill="#000000" font-family="sans-serif" font-size="13" font-weight="bold" lengthAdjust="spacing" textLength="83.04" x="591.9724" y="225.1592">Submit Login</text><polygon fill="#181818" points="205.1382,260.3672,215.1382,264.3672,205.1382,268.3672,209.1382,264.3672" style="stroke:#181818;stroke-width:1.0;"/><line style="stroke:#181818;stroke-width:1.0;" x1="37.7793" x2="211.1382" y1="264.3672" y2="264.3672"/><text fill="#000000" font-family="sans-serif" font-size="13" lengthAdjust="spacing" textLength="141.5908" x="44.7793" y="259.5107">POST (email, password)</text><polygon fill="#181818" points="378.7271,290.7188,388.7271,294.7188,378.7271,298.7188,382.7271,294.7188" style="stroke:#181818;stroke-width:1.0;"/><line style="stroke:#181818;stroke-width:1.0;" x1="217.1382" x2="384.7271" y1="294.7188" y2="294.7188"/><text fill="#000000" font-family="sans-serif" font-size="13" lengthAdjust="spacing" textLength="79.4917" x="224.1382" y="289.8623">authenticate()</text><line style="stroke:#181818;stroke-width:1.0;" x1="390.7271" x2="432.7271" y1="337.9219" y2="337.9219"/><line style="stroke:#181818;stroke-width:1.0;" x1="432.7271" x2="432.7271" y1="337.9219" y2="350.9219"/><line style="stroke:#181818;stroke-width:1.0;" x1="391.7271" x2="432.7271" y1="350.9219" y2="350.9219"/><polygon fill="#181818" points="401.7271,346.9219,391.7271,350.9219,401.7271,354.9219,397.7271,350.9219" style="stroke:#181818;stroke-width:1.0;"/><text fill="#000000" font-family="sans-serif" font-size="13" lengthAdjust="spacing" textLength="53.4663" x="397.7271" y="333.0654">validate()</text><path d="M462.4663,307.7188 L462.4663,366.7188 L615.4663,366.7188 L615.4663,317.7188 L605.4663,307.7188 L462.4663,307.7188 " fill="#FEFFDD" style="stroke:#181818;stroke-width:0.5;"/><path d="M605.4663,307.7188 L605.4663,317.7188 L615.4663,317.7188 L605.4663,307.7188 " fill="#FEFFDD" style="stroke:#181818;stroke-width:0.5;"/><text fill="#000000" font-family="sans-serif" font-size="13" lengthAdjust="spacing" textLength="49.1372" x="468.4663" y="326.2139">Validasi:</text><text fill="#000000" font-family="sans-serif" font-size="13" lengthAdjust="spacing" textLength="132.2153" x="468.4663" y="342.5654">- email: required, email</text><text fill="#000000" font-family="sans-serif" font-size="13" lengthAdjust="spacing" textLength="118.498" x="468.4663" y="358.917">- password: required</text><path d="M10,378.7734 L70.1709,378.7734 L70.1709,387.125 L60.1709,397.125 L10,397.125 L10,378.7734 " fill="#EEEEEE" style="stroke:#000000;stroke-width:1.5;"/><rect fill="none" height="79.0547" style="stroke:#000000;stroke-width:1.5;" width="440.9268" x="10" y="378.7734"/><text fill="#000000" font-family="sans-serif" font-size="13" font-weight="bold" lengthAdjust="spacing" textLength="15.1709" x="25" y="393.2686">alt</text><text fill="#000000" font-family="sans-serif" font-size="11" font-weight="bold" lengthAdjust="spacing" textLength="82.5269" x="85.1709" y="392.1924">[Validasi Gagal]</text><polygon fill="#181818" points="228.1382,415.4766,218.1382,419.4766,228.1382,423.4766,224.1382,419.4766" style="stroke:#181818;stroke-width:1.0;"/><line style="stroke:#181818;stroke-width:1.0;stroke-dasharray:2.0,2.0;" x1="222.1382" x2="389.7271" y1="419.4766" y2="419.4766"/><text fill="#000000" font-family="sans-serif" font-size="13" lengthAdjust="spacing" textLength="114.188" x="234.1382" y="414.6201">ValidationException</text><polygon fill="#181818" points="48.7793,445.8281,38.7793,449.8281,48.7793,453.8281,44.7793,449.8281" style="stroke:#181818;stroke-width:1.0;"/><line style="stroke:#181818;stroke-width:1.0;stroke-dasharray:2.0,2.0;" x1="42.7793" x2="216.1382" y1="449.8281" y2="449.8281"/><text fill="#000000" font-family="sans-serif" font-size="13" lengthAdjust="spacing" textLength="137.9917" x="54.7793" y="444.9717">Tampilkan error validasi</text><polygon fill="#181818" points="711.7944,483.1797,721.7944,487.1797,711.7944,491.1797,715.7944,487.1797" style="stroke:#181818;stroke-width:1.0;"/><line style="stroke:#181818;stroke-width:1.0;" x1="390.7271" x2="717.7944" y1="487.1797" y2="487.1797"/><text fill="#000000" font-family="sans-serif" font-size="13" lengthAdjust="spacing" textLength="309.0674" x="397.7271" y="482.3232">attempt(['email' =&gt; $email, 'password' =&gt; $password])</text><polygon fill="#181818" points="953.3833,513.5313,963.3833,517.5313,953.3833,521.5313,957.3833,517.5313" style="stroke:#181818;stroke-width:1.0;"/><line style="stroke:#181818;stroke-width:1.0;" x1="723.7944" x2="959.3833" y1="517.5313" y2="517.5313"/><text fill="#000000" font-family="sans-serif" font-size="13" lengthAdjust="spacing" textLength="159.9038" x="730.7944" y="512.6748">where('email', email)-&gt;first()</text><polygon fill="#181818" points="1222.6313,543.8828,1232.6313,547.8828,1222.6313,551.8828,1226.6313,547.8828" style="stroke:#181818;stroke-width:1.0;"/><line style="stroke:#181818;stroke-width:1.0;" x1="965.3833" x2="1228.6313" y1="547.8828" y2="547.8828"/><text fill="#000000" font-family="sans-serif" font-size="13" lengthAdjust="spacing" textLength="245.248" x="972.3833" y="543.0264">SELECT * FROM users WHERE email = ?</text><polygon fill="#181818" points="976.3833,574.2344,966.3833,578.2344,976.3833,582.2344,972.3833,578.2344" style="stroke:#181818;stroke-width:1.0;"/><line style="stroke:#181818;stroke-width:1.0;stroke-dasharray:2.0,2.0;" x1="970.3833" x2="1233.6313" y1="578.2344" y2="578.2344"/><text fill="#000000" font-family="sans-serif" font-size="13" lengthAdjust="spacing" textLength="54.2026" x="982.3833" y="573.3779">user data</text><path d="M10,593.2344 L70.1709,593.2344 L70.1709,601.5859 L60.1709,611.5859 L10,611.5859 L10,593.2344 " fill="#EEEEEE" style="stroke:#000000;stroke-width:1.5;"/><rect fill="none" height="152.7578" style="stroke:#000000;stroke-width:1.5;" width="754.1426" x="10" y="593.2344"/><text fill="#000000" font-family="sans-serif" font-size="13" font-weight="bold" lengthAdjust="spacing" textLength="15.1709" x="25" y="607.7295">alt</text><text fill="#000000" font-family="sans-serif" font-size="11" font-weight="bold" lengthAdjust="spacing" textLength="122.8638" x="85.1709" y="606.6533">[User Tidak Ditemukan]</text><polygon fill="#181818" points="401.7271,629.9375,391.7271,633.9375,401.7271,637.9375,397.7271,633.9375" style="stroke:#181818;stroke-width:1.0;"/><line style="stroke:#181818;stroke-width:1.0;stroke-dasharray:2.0,2.0;" x1="395.7271" x2="722.7944" y1="633.9375" y2="633.9375"/><text fill="#000000" font-family="sans-serif" font-size="13" lengthAdjust="spacing" textLength="27.46" x="407.7271" y="629.0811">false</text><line style="stroke:#181818;stroke-width:1.0;" x1="390.7271" x2="432.7271" y1="664.2891" y2="664.2891"/><line style="stroke:#181818;stroke-width:1.0;" x1="432.7271" x2="432.7271" y1="664.2891" y2="677.2891"/><line style="stroke:#181818;stroke-width:1.0;" x1="391.7271" x2="432.7271" y1="677.2891" y2="677.2891"/><polygon fill="#181818" points="401.7271,673.2891,391.7271,677.2891,401.7271,681.2891,397.7271,677.2891" style="stroke:#181818;stroke-width:1.0;"/><text fill="#000000" font-family="sans-serif" font-size="13" lengthAdjust="spacing" textLength="96.0781" x="397.7271" y="659.4326">RateLimiter::hit()</text><polygon fill="#181818" points="228.1382,703.6406,218.1382,707.6406,228.1382,711.6406,224.1382,707.6406" style="stroke:#181818;stroke-width:1.0;"/><line style="stroke:#181818;stroke-width:1.0;stroke-dasharray:2.0,2.0;" x1="222.1382" x2="389.7271" y1="707.6406" y2="707.6406"/><text fill="#000000" font-family="sans-serif" font-size="13" lengthAdjust="spacing" textLength="149.5889" x="234.1382" y="702.7842">throw ValidationException</text><polygon fill="#181818" points="48.7793,733.9922,38.7793,737.9922,48.7793,741.9922,44.7793,737.9922" style="stroke:#181818;stroke-width:1.0;"/><line style="stroke:#181818;stroke-width:1.0;stroke-dasharray:2.0,2.0;" x1="42.7793" x2="216.1382" y1="737.9922" y2="737.9922"/><text fill="#000000" font-family="sans-serif" font-size="13" lengthAdjust="spacing" textLength="155.3589" x="54.7793" y="733.1357">Email atau password salah</text><line style="stroke:#181818;stroke-width:1.0;" x1="723.7944" x2="765.7944" y1="775.3438" y2="775.3438"/><line style="stroke:#181818;stroke-width:1.0;" x1="765.7944" x2="765.7944" y1="775.3438" y2="788.3438"/><line style="stroke:#181818;stroke-width:1.0;" x1="724.7944" x2="765.7944" y1="788.3438" y2="788.3438"/><polygon fill="#181818" points="734.7944,784.3438,724.7944,788.3438,734.7944,792.3438,730.7944,788.3438" style="stroke:#181818;stroke-width:1.0;"/><text fill="#000000" font-family="sans-serif" font-size="13" lengthAdjust="spacing" textLength="227.5889" x="730.7944" y="770.4873">Hash::check(password, user.password)</text><path d="M10,803.3438 L70.1709,803.3438 L70.1709,811.6953 L60.1709,821.6953 L10,821.6953 L10,803.3438 " fill="#EEEEEE" style="stroke:#000000;stroke-width:1.5;"/><rect fill="none" height="152.7578" style="stroke:#000000;stroke-width:1.5;" width="754.1426" x="10" y="803.3438"/><text fill="#000000" font-family="sans-serif" font-size="13" font-weight="bold" lengthAdjust="spacing" textLength="15.1709" x="25" y="817.8389">alt</text><text fill="#000000" font-family="sans-serif" font-size="11" font-weight="bold" lengthAdjust="spacing" textLength="91.6953" x="85.1709" y="816.7627">[Password Salah]</text><polygon fill="#181818" points="401.7271,840.0469,391.7271,844.0469,401.7271,848.0469,397.7271,844.0469" style="stroke:#181818;stroke-width:1.0;"/><line style="stroke:#181818;stroke-width:1.0;stroke-dasharray:2.0,2.0;" x1="395.7271" x2="722.7944" y1="844.0469" y2="844.0469"/><text fill="#000000" font-family="sans-serif" font-size="13" lengthAdjust="spacing" textLength="27.46" x="407.7271" y="839.1904">false</text><line style="stroke:#181818;stroke-width:1.0;" x1="390.7271" x2="432.7271" y1="874.3984" y2="874.3984"/><line style="stroke:#181818;stroke-width:1.0;" x1="432.7271" x2="432.7271" y1="874.3984" y2="887.3984"/><line style="stroke:#181818;stroke-width:1.0;" x1="391.7271" x2="432.7271" y1="887.3984" y2="887.3984"/><polygon fill="#181818" points="401.7271,883.3984,391.7271,887.3984,401.7271,891.3984,397.7271,887.3984" style="stroke:#181818;stroke-width:1.0;"/><text fill="#000000" font-family="sans-serif" font-size="13" lengthAdjust="spacing" textLength="96.0781" x="397.7271" y="869.542">RateLimiter::hit()</text><polygon fill="#181818" points="228.1382,913.75,218.1382,917.75,228.1382,921.75,224.1382,917.75" style="stroke:#181818;stroke-width:1.0;"/><line style="stroke:#181818;stroke-width:1.0;stroke-dasharray:2.0,2.0;" x1="222.1382" x2="389.7271" y1="917.75" y2="917.75"/><text fill="#000000" font-family="sans-serif" font-size="13" lengthAdjust="spacing" textLength="149.5889" x="234.1382" y="912.8936">throw ValidationException</text><polygon fill="#181818" points="48.7793,944.1016,38.7793,948.1016,48.7793,952.1016,44.7793,948.1016" style="stroke:#181818;stroke-width:1.0;"/><line style="stroke:#181818;stroke-width:1.0;stroke-dasharray:2.0,2.0;" x1="42.7793" x2="216.1382" y1="948.1016" y2="948.1016"/><text fill="#000000" font-family="sans-serif" font-size="13" lengthAdjust="spacing" textLength="155.3589" x="54.7793" y="943.2451">Email atau password salah</text><polygon fill="#181818" points="1021.3521,981.4531,1031.3521,985.4531,1021.3521,989.4531,1025.3521,985.4531" style="stroke:#181818;stroke-width:1.0;"/><line style="stroke:#181818;stroke-width:1.0;" x1="723.7944" x2="1027.3521" y1="985.4531" y2="985.4531"/><text fill="#000000" font-family="sans-serif" font-size="13" lengthAdjust="spacing" textLength="71.5381" x="730.7944" y="980.5967">regenerate()</text><polygon fill="#181818" points="734.7944,1011.8047,724.7944,1015.8047,734.7944,1019.8047,730.7944,1015.8047" style="stroke:#181818;stroke-width:1.0;"/><line style="stroke:#181818;stroke-width:1.0;stroke-dasharray:2.0,2.0;" x1="728.7944" x2="1032.3521" y1="1015.8047" y2="1015.8047"/><text fill="#000000" font-family="sans-serif" font-size="13" lengthAdjust="spacing" textLength="85.2681" x="740.7944" y="1010.9482">new session id</text><polygon fill="#181818" points="1021.3521,1042.1563,1031.3521,1046.1563,1021.3521,1050.1563,1025.3521,1046.1563" style="stroke:#181818;stroke-width:1.0;"/><line style="stroke:#181818;stroke-width:1.0;" x1="723.7944" x2="1027.3521" y1="1046.1563" y2="1046.1563"/><text fill="#000000" font-family="sans-serif" font-size="13" lengthAdjust="spacing" textLength="80.1963" x="730.7944" y="1041.2998">store(user_id)</text><polygon fill="#181818" points="401.7271,1072.5078,391.7271,1076.5078,401.7271,1080.5078,397.7271,1076.5078" style="stroke:#181818;stroke-width:1.0;"/><line style="stroke:#181818;stroke-width:1.0;stroke-dasharray:2.0,2.0;" x1="395.7271" x2="722.7944" y1="1076.5078" y2="1076.5078"/><text fill="#000000" font-family="sans-serif" font-size="13" lengthAdjust="spacing" textLength="22.4009" x="407.7271" y="1071.6514">true</text><line style="stroke:#181818;stroke-width:1.0;" x1="390.7271" x2="432.7271" y1="1106.8594" y2="1106.8594"/><line style="stroke:#181818;stroke-width:1.0;" x1="432.7271" x2="432.7271" y1="1106.8594" y2="1119.8594"/><line style="stroke:#181818;stroke-width:1.0;" x1="391.7271" x2="432.7271" y1="1119.8594" y2="1119.8594"/><polygon fill="#181818" points="401.7271,1115.8594,391.7271,1119.8594,401.7271,1123.8594,397.7271,1119.8594" style="stroke:#181818;stroke-width:1.0;"/><text fill="#000000" font-family="sans-serif" font-size="13" lengthAdjust="spacing" textLength="110.5254" x="397.7271" y="1102.0029">RateLimiter::clear()</text><rect fill="#EEEEEE" height="3" style="stroke:#EEEEEE;stroke-width:1.0;" width="1272.5967" x="0" y="1149.0352"/><line style="stroke:#000000;stroke-width:1.0;" x1="0" x2="1272.5967" y1="1149.0352" y2="1149.0352"/><line style="stroke:#000000;stroke-width:1.0;" x1="0" x2="1272.5967" y1="1152.0352" y2="1152.0352"/><rect fill="#EEEEEE" height="24.3516" style="stroke:#000000;stroke-width:2.0;" width="159.2153" x="556.6907" y="1137.8594"/><text fill="#000000" font-family="sans-serif" font-size="13" font-weight="bold" lengthAdjust="spacing" textLength="141.6035" x="562.6907" y="1155.3545">Redirect ke Dashboard</text><polygon fill="#181818" points="228.1382,1190.5625,218.1382,1194.5625,228.1382,1198.5625,224.1382,1194.5625" style="stroke:#181818;stroke-width:1.0;"/><line style="stroke:#181818;stroke-width:1.0;stroke-dasharray:2.0,2.0;" x1="222.1382" x2="389.7271" y1="1194.5625" y2="1194.5625"/><text fill="#000000" font-family="sans-serif" font-size="13" lengthAdjust="spacing" textLength="122.021" x="234.1382" y="1189.7061">redirect('/dashboard')</text><polygon fill="#181818" points="48.7793,1220.9141,38.7793,1224.9141,48.7793,1228.9141,44.7793,1224.9141" style="stroke:#181818;stroke-width:1.0;"/><line style="stroke:#181818;stroke-width:1.0;" x1="42.7793" x2="216.1382" y1="1224.9141" y2="1224.9141"/><text fill="#000000" font-family="sans-serif" font-size="13" lengthAdjust="spacing" textLength="95.3862" x="54.7793" y="1220.0576">GET /dashboard</text><path d="M42,1237.9141 L42,1296.9141 L278,1296.9141 L278,1247.9141 L268,1237.9141 L42,1237.9141 " fill="#FEFFDD" style="stroke:#181818;stroke-width:0.5;"/><path d="M268,1237.9141 L268,1247.9141 L278,1247.9141 L268,1237.9141 " fill="#FEFFDD" style="stroke:#181818;stroke-width:0.5;"/><text fill="#000000" font-family="sans-serif" font-size="13" lengthAdjust="spacing" textLength="215.2173" x="48" y="1256.4092">Middleware 'auth' memeriksa session</text><text fill="#000000" font-family="sans-serif" font-size="13" lengthAdjust="spacing" textLength="213.751" x="48" y="1272.7607">Middleware 'permission:*' memeriksa</text><text fill="#000000" font-family="sans-serif" font-size="13" lengthAdjust="spacing" textLength="210.2598" x="48" y="1289.1123">roles/permissions untuk akses menu</text><!--SRC=[rLN1Rjim3BtxAuXYW9sYMUy6ag5ftFRGeaMIROTb65YRYGNRiYV9pJv_b6J7SP42k-ucauyKtoD5Osfg1LyrgQ11PKGg6fG6BXxhlP3mWdlQocXHOaQJ2q0Dpdu6kgBVBMcpbRUrDAekIr83dftZa9lMv5jvXoddTJ1h64DiILlvL6TKEeJzTbzZs9gq5hLqaEuSP6Zm5JN1iZ-mSxa8WjaCRWfD6Xwmn0gbhmvciy1cX-dS6sAuJpPmNJgg7Z9bdyN4iC6g4MN1mRjQLU11DlEwVQs4-J3bo_Dw0n5LACehQ53hGwsoIPz-VXGg1cGjI395D1HDWg3tZ55lM8hC8sHj29JOvoO0-ERiMiHydeAxBmR5tH6AiYjlSAw-Xi4RaCp09Wi2BCqn4zpZ7cqCm53AGCp330kV_4cfiOS1UrOuKefdxgrBRsyTaxJ3m38OGrLZeX-Xgpc4sHm-TVg5VV7Usd_zPBLiC7INkdc9uP2JegXBqqamcSvtGcd3yXsHDcovY66TF2Qt6xY4kzNp4xJirl3z8LabFXHcy2LOBexKkbii3kpeUVLS-pVCi82bO2OjCtUw-097lTnXgUcTmAV-5VVvKV1qiOvnBcpH7tN3vAe-_7DF4iU7QswFum2QtqRkcz9hwHloW3gFupIdj8Xwz9MZ_NcOPyVzfS-rThd-KzRTEh7lOq-Ib7zidTMbyxf8Ee3khE9SlEOLIv4LwfTWYSv8OLHB7ptqaGnfIQZiKk25iwACNsrgeB2RJkUlDJ8HtZpd558TE0glinuRdgmVhupRUqT_SB9PeDxvlmJ0ayYoaWwe24AxgqAeg28b2esz3kzG3QbAU34kJz2CuZy5wUl1hw6LfYq0tPgkIBR3KleB]--></g></svg>