<svg xmlns="http://www.w3.org/2000/svg" xmlns:xlink="http://www.w3.org/1999/xlink" contentStyleType="text/css" height="958px" preserveAspectRatio="none" style="width:1208px;height:958px;background:#FFFFFF;" version="1.1" viewBox="0 0 1208 958" width="1208px" zoomAndPan="magnify"><title>Sequence Diagram</title><defs/><g><text fill="#000000" font-family="sans-serif" font-size="14" font-weight="bold" lengthAdjust="spacing" textLength="126.0479" x="542.8335" y="29.5332">Sequence Diagram</text><text fill="#000000" font-family="sans-serif" font-size="14" font-weight="bold" lengthAdjust="spacing" textLength="185.1855" x="513.2646" y="47.1426">Proses Belanja Bahan Baku</text><rect fill="none" height="109.4063" style="stroke:#000000;stroke-width:1.5;" width="1009.3291" x="10" y="320.5859"/><rect fill="none" height="79.0547" style="stroke:#000000;stroke-width:1.5;" width="650.8301" x="10" y="565.3984"/><rect fill="none" height="79.0547" style="stroke:#000000;stroke-width:1.5;" width="691.0566" x="511.6582" y="719.1563"/><line style="stroke:#181818;stroke-width:0.5;stroke-dasharray:5.0,5.0;" x1="73" x2="73" y1="138.8281" y2="875.9141"/><line style="stroke:#181818;stroke-width:0.5;stroke-dasharray:5.0,5.0;" x1="370.876" x2="370.876" y1="138.8281" y2="875.9141"/><line style="stroke:#181818;stroke-width:0.5;stroke-dasharray:5.0,5.0;" x1="585.6582" x2="585.6582" y1="138.8281" y2="875.9141"/><line style="stroke:#181818;stroke-width:0.5;stroke-dasharray:5.0,5.0;" x1="786.144" x2="786.144" y1="138.8281" y2="875.9141"/><line style="stroke:#181818;stroke-width:0.5;stroke-dasharray:5.0,5.0;" x1="957.0537" x2="957.0537" y1="138.8281" y2="875.9141"/><line style="stroke:#181818;stroke-width:0.5;stroke-dasharray:5.0,5.0;" x1="1068.3291" x2="1068.3291" y1="138.8281" y2="875.9141"/><line style="stroke:#181818;stroke-width:0.5;stroke-dasharray:5.0,5.0;" x1="1159.9219" x2="1159.9219" y1="138.8281" y2="875.9141"/><text fill="#000000" font-family="sans-serif" font-size="14" lengthAdjust="spacing" textLength="101.1787" x="20" y="135.752">Bagian Inventori</text><ellipse cx="73.5894" cy="69.7188" fill="#E2E2F0" rx="8" ry="8" style="stroke:#181818;stroke-width:0.5;"/><path d="M73.5894,77.7188 L73.5894,104.7188 M60.5894,85.7188 L86.5894,85.7188 M73.5894,104.7188 L60.5894,119.7188 M73.5894,104.7188 L86.5894,119.7188 " fill="none" style="stroke:#181818;stroke-width:0.5;"/><text fill="#000000" font-family="sans-serif" font-size="14" lengthAdjust="spacing" textLength="101.1787" x="20" y="889.4473">Bagian Inventori</text><ellipse cx="73.5894" cy="901.0234" fill="#E2E2F0" rx="8" ry="8" style="stroke:#181818;stroke-width:0.5;"/><path d="M73.5894,909.0234 L73.5894,936.0234 M60.5894,917.0234 L86.5894,917.0234 M73.5894,936.0234 L60.5894,951.0234 M73.5894,936.0234 L86.5894,951.0234 " fill="none" style="stroke:#181818;stroke-width:0.5;"/><rect fill="#E2E2F0" height="31.6094" rx="2.5" ry="2.5" style="stroke:#181818;stroke-width:0.5;" width="101.1787" x="320.876" y="106.2188"/><text fill="#000000" font-family="sans-serif" font-size="14" lengthAdjust="spacing" textLength="87.1787" x="327.876" y="127.752">ExpensePage</text><rect fill="#E2E2F0" height="31.6094" rx="2.5" ry="2.5" style="stroke:#181818;stroke-width:0.5;" width="101.1787" x="320.876" y="874.9141"/><text fill="#000000" font-family="sans-serif" font-size="14" lengthAdjust="spacing" textLength="87.1787" x="327.876" y="896.4473">ExpensePage</text><rect fill="#E2E2F0" height="31.6094" rx="2.5" ry="2.5" style="stroke:#181818;stroke-width:0.5;" width="129.1719" x="521.6582" y="106.2188"/><text fill="#000000" font-family="sans-serif" font-size="14" lengthAdjust="spacing" textLength="115.1719" x="528.6582" y="127.752">ExpenseController</text><rect fill="#E2E2F0" height="31.6094" rx="2.5" ry="2.5" style="stroke:#181818;stroke-width:0.5;" width="129.1719" x="521.6582" y="874.9141"/><text fill="#000000" font-family="sans-serif" font-size="14" lengthAdjust="spacing" textLength="115.1719" x="528.6582" y="896.4473">ExpenseController</text><rect fill="#E2E2F0" height="31.6094" rx="2.5" ry="2.5" style="stroke:#181818;stroke-width:0.5;" width="68.4824" x="752.144" y="106.2188"/><text fill="#000000" font-family="sans-serif" font-size="14" lengthAdjust="spacing" textLength="54.4824" x="759.144" y="127.752">Expense</text><rect fill="#E2E2F0" height="31.6094" rx="2.5" ry="2.5" style="stroke:#181818;stroke-width:0.5;" width="68.4824" x="752.144" y="874.9141"/><text fill="#000000" font-family="sans-serif" font-size="14" lengthAdjust="spacing" textLength="54.4824" x="759.144" y="896.4473">Expense</text><rect fill="#E2E2F0" height="31.6094" rx="2.5" ry="2.5" style="stroke:#181818;stroke-width:0.5;" width="104.2754" x="905.0537" y="106.2188"/><text fill="#000000" font-family="sans-serif" font-size="14" lengthAdjust="spacing" textLength="90.2754" x="912.0537" y="127.752">ExpenseDetail</text><rect fill="#E2E2F0" height="31.6094" rx="2.5" ry="2.5" style="stroke:#181818;stroke-width:0.5;" width="104.2754" x="905.0537" y="874.9141"/><text fill="#000000" font-family="sans-serif" font-size="14" lengthAdjust="spacing" textLength="90.2754" x="912.0537" y="896.4473">ExpenseDetail</text><rect fill="#E2E2F0" height="31.6094" rx="2.5" ry="2.5" style="stroke:#181818;stroke-width:0.5;" width="99.5928" x="1019.3291" y="106.2188"/><text fill="#000000" font-family="sans-serif" font-size="14" lengthAdjust="spacing" textLength="85.5928" x="1026.3291" y="127.752">MaterialBatch</text><rect fill="#E2E2F0" height="31.6094" rx="2.5" ry="2.5" style="stroke:#181818;stroke-width:0.5;" width="99.5928" x="1019.3291" y="874.9141"/><text fill="#000000" font-family="sans-serif" font-size="14" lengthAdjust="spacing" textLength="85.5928" x="1026.3291" y="896.4473">MaterialBatch</text><rect fill="#E2E2F0" height="31.6094" rx="2.5" ry="2.5" style="stroke:#181818;stroke-width:0.5;" width="63.793" x="1128.9219" y="106.2188"/><text fill="#000000" font-family="sans-serif" font-size="14" lengthAdjust="spacing" textLength="49.793" x="1135.9219" y="127.752">Material</text><rect fill="#E2E2F0" height="31.6094" rx="2.5" ry="2.5" style="stroke:#181818;stroke-width:0.5;" width="63.793" x="1128.9219" y="874.9141"/><text fill="#000000" font-family="sans-serif" font-size="14" lengthAdjust="spacing" textLength="49.793" x="1135.9219" y="896.4473">Material</text><polygon fill="#181818" points="359.4653,167.1797,369.4653,171.1797,359.4653,175.1797,363.4653,171.1797" style="stroke:#181818;stroke-width:1.0;"/><line style="stroke:#181818;stroke-width:1.0;" x1="73.5894" x2="365.4653" y1="171.1797" y2="171.1797"/><text fill="#000000" font-family="sans-serif" font-size="13" lengthAdjust="spacing" textLength="179.9497" x="132.5525" y="166.3232">Membuat rencana belanja baru</text><polygon fill="#181818" points="574.2441,197.5313,584.2441,201.5313,574.2441,205.5313,578.2441,201.5313" style="stroke:#181818;stroke-width:1.0;"/><line style="stroke:#181818;stroke-width:1.0;" x1="371.4653" x2="580.2441" y1="201.5313" y2="201.5313"/><text fill="#000000" font-family="sans-serif" font-size="13" lengthAdjust="spacing" textLength="190.7788" x="383.4653" y="196.6748">createExpense(supplier_id, date)</text><polygon fill="#181818" points="774.3853,227.8828,784.3853,231.8828,774.3853,235.8828,778.3853,231.8828" style="stroke:#181818;stroke-width:1.0;"/><line style="stroke:#181818;stroke-width:1.0;" x1="586.2441" x2="780.3853" y1="231.8828" y2="231.8828"/><text fill="#000000" font-family="sans-serif" font-size="13" lengthAdjust="spacing" textLength="140.188" x="616.2207" y="227.0264">create(supplier_id, date)</text><line style="stroke:#181818;stroke-width:1.0;" x1="786.3853" x2="828.3853" y1="262.2344" y2="262.2344"/><line style="stroke:#181818;stroke-width:1.0;" x1="828.3853" x2="828.3853" y1="262.2344" y2="275.2344"/><line style="stroke:#181818;stroke-width:1.0;" x1="787.3853" x2="828.3853" y1="275.2344" y2="275.2344"/><polygon fill="#181818" points="797.3853,271.2344,787.3853,275.2344,797.3853,279.2344,793.3853,275.2344" style="stroke:#181818;stroke-width:1.0;"/><text fill="#000000" font-family="sans-serif" font-size="13" lengthAdjust="spacing" textLength="156.8062" x="793.3853" y="257.3779">generateExpenseNumber()</text><polygon fill="#181818" points="382.4653,301.5859,372.4653,305.5859,382.4653,309.5859,378.4653,305.5859" style="stroke:#181818;stroke-width:1.0;"/><line style="stroke:#181818;stroke-width:1.0;stroke-dasharray:2.0,2.0;" x1="376.4653" x2="585.2441" y1="305.5859" y2="305.5859"/><text fill="#000000" font-family="sans-serif" font-size="13" lengthAdjust="spacing" textLength="119.9263" x="418.8916" y="300.7295">showExpenseForm()</text><path d="M10,320.5859 L82.4346,320.5859 L82.4346,328.9375 L72.4346,338.9375 L10,338.9375 L10,320.5859 " fill="#EEEEEE" style="stroke:#000000;stroke-width:1.5;"/><rect fill="none" height="109.4063" style="stroke:#000000;stroke-width:1.5;" width="1009.3291" x="10" y="320.5859"/><text fill="#000000" font-family="sans-serif" font-size="13" font-weight="bold" lengthAdjust="spacing" textLength="27.4346" x="25" y="335.0811">loop</text><text fill="#000000" font-family="sans-serif" font-size="11" font-weight="bold" lengthAdjust="spacing" textLength="100.23" x="97.4346" y="334.0049">[Untuk Setiap Item]</text><polygon fill="#181818" points="359.4653,357.2891,369.4653,361.2891,359.4653,365.2891,363.4653,361.2891" style="stroke:#181818;stroke-width:1.0;"/><line style="stroke:#181818;stroke-width:1.0;" x1="73.5894" x2="365.4653" y1="361.2891" y2="361.2891"/><text fill="#000000" font-family="sans-serif" font-size="13" lengthAdjust="spacing" textLength="207.3716" x="118.8416" y="356.4326">addItem(material_id, quantity, price)</text><polygon fill="#181818" points="574.2441,387.6406,584.2441,391.6406,574.2441,395.6406,578.2441,391.6406" style="stroke:#181818;stroke-width:1.0;"/><line style="stroke:#181818;stroke-width:1.0;" x1="371.4653" x2="580.2441" y1="391.6406" y2="391.6406"/><text fill="#000000" font-family="sans-serif" font-size="13" lengthAdjust="spacing" textLength="162.6079" x="397.5508" y="386.7842">addDetail(expense_id, data)</text><polygon fill="#181818" points="945.1914,417.9922,955.1914,421.9922,945.1914,425.9922,949.1914,421.9922" style="stroke:#181818;stroke-width:1.0;"/><line style="stroke:#181818;stroke-width:1.0;" x1="586.2441" x2="951.1914" y1="421.9922" y2="421.9922"/><text fill="#000000" font-family="sans-serif" font-size="13" lengthAdjust="spacing" textLength="270.2515" x="636.592" y="417.1357">create(expense_id, material_id, quantity, price)</text><polygon fill="#181818" points="359.4653,455.3438,369.4653,459.3438,359.4653,463.3438,363.4653,459.3438" style="stroke:#181818;stroke-width:1.0;"/><line style="stroke:#181818;stroke-width:1.0;" x1="73.5894" x2="365.4653" y1="459.3438" y2="459.3438"/><text fill="#000000" font-family="sans-serif" font-size="13" lengthAdjust="spacing" textLength="137.2935" x="153.8806" y="454.4873">Memulai proses belanja</text><polygon fill="#181818" points="574.2441,485.6953,584.2441,489.6953,574.2441,493.6953,578.2441,489.6953" style="stroke:#181818;stroke-width:1.0;"/><line style="stroke:#181818;stroke-width:1.0;" x1="371.4653" x2="580.2441" y1="489.6953" y2="489.6953"/><text fill="#000000" font-family="sans-serif" font-size="13" lengthAdjust="spacing" textLength="151.0298" x="403.3398" y="484.8389">startExpense(expense_id)</text><polygon fill="#181818" points="774.3853,516.0469,784.3853,520.0469,774.3853,524.0469,778.3853,520.0469" style="stroke:#181818;stroke-width:1.0;"/><line style="stroke:#181818;stroke-width:1.0;" x1="586.2441" x2="780.3853" y1="520.0469" y2="520.0469"/><text fill="#000000" font-family="sans-serif" font-size="13" lengthAdjust="spacing" textLength="176.1411" x="598.2441" y="515.1904">updateStatus("Dalam Proses")</text><polygon fill="#181818" points="382.4653,546.3984,372.4653,550.3984,382.4653,554.3984,378.4653,550.3984" style="stroke:#181818;stroke-width:1.0;"/><line style="stroke:#181818;stroke-width:1.0;stroke-dasharray:2.0,2.0;" x1="376.4653" x2="585.2441" y1="550.3984" y2="550.3984"/><text fill="#000000" font-family="sans-serif" font-size="13" lengthAdjust="spacing" textLength="98.249" x="429.7302" y="545.542">showInputForm()</text><path d="M10,565.3984 L82.4346,565.3984 L82.4346,573.75 L72.4346,583.75 L10,583.75 L10,565.3984 " fill="#EEEEEE" style="stroke:#000000;stroke-width:1.5;"/><rect fill="none" height="79.0547" style="stroke:#000000;stroke-width:1.5;" width="650.8301" x="10" y="565.3984"/><text fill="#000000" font-family="sans-serif" font-size="13" font-weight="bold" lengthAdjust="spacing" textLength="27.4346" x="25" y="579.8936">loop</text><text fill="#000000" font-family="sans-serif" font-size="11" font-weight="bold" lengthAdjust="spacing" textLength="100.23" x="97.4346" y="578.8174">[Untuk Setiap Item]</text><polygon fill="#181818" points="359.4653,602.1016,369.4653,606.1016,359.4653,610.1016,363.4653,606.1016" style="stroke:#181818;stroke-width:1.0;"/><line style="stroke:#181818;stroke-width:1.0;" x1="73.5894" x2="365.4653" y1="606.1016" y2="606.1016"/><text fill="#000000" font-family="sans-serif" font-size="13" lengthAdjust="spacing" textLength="273.876" x="85.5894" y="601.2451">inputActualData(quantity_get, price_get, expiry)</text><polygon fill="#181818" points="574.2441,632.4531,584.2441,636.4531,574.2441,640.4531,578.2441,636.4531" style="stroke:#181818;stroke-width:1.0;"/><line style="stroke:#181818;stroke-width:1.0;" x1="371.4653" x2="580.2441" y1="636.4531" y2="636.4531"/><text fill="#000000" font-family="sans-serif" font-size="13" lengthAdjust="spacing" textLength="162.6079" x="397.5508" y="631.5967">updateDetail(detail_id, data)</text><polygon fill="#181818" points="359.4653,669.8047,369.4653,673.8047,359.4653,677.8047,363.4653,673.8047" style="stroke:#181818;stroke-width:1.0;"/><line style="stroke:#181818;stroke-width:1.0;" x1="73.5894" x2="365.4653" y1="673.8047" y2="673.8047"/><text fill="#000000" font-family="sans-serif" font-size="13" lengthAdjust="spacing" textLength="132.2534" x="156.4006" y="668.9482">Menyelesaikan belanja</text><polygon fill="#181818" points="574.2441,700.1563,584.2441,704.1563,574.2441,708.1563,578.2441,704.1563" style="stroke:#181818;stroke-width:1.0;"/><line style="stroke:#181818;stroke-width:1.0;" x1="371.4653" x2="580.2441" y1="704.1563" y2="704.1563"/><text fill="#000000" font-family="sans-serif" font-size="13" lengthAdjust="spacing" textLength="89.5972" x="434.0562" y="699.2998">finishExpense()</text><path d="M511.6582,719.1563 L584.0928,719.1563 L584.0928,727.5078 L574.0928,737.5078 L511.6582,737.5078 L511.6582,719.1563 " fill="#EEEEEE" style="stroke:#000000;stroke-width:1.5;"/><rect fill="none" height="79.0547" style="stroke:#000000;stroke-width:1.5;" width="691.0566" x="511.6582" y="719.1563"/><text fill="#000000" font-family="sans-serif" font-size="13" font-weight="bold" lengthAdjust="spacing" textLength="27.4346" x="526.6582" y="733.6514">loop</text><text fill="#000000" font-family="sans-serif" font-size="11" font-weight="bold" lengthAdjust="spacing" textLength="100.23" x="599.0928" y="732.5752">[Untuk Setiap Item]</text><polygon fill="#181818" points="1057.1255,755.8594,1067.1255,759.8594,1057.1255,763.8594,1061.1255,759.8594" style="stroke:#181818;stroke-width:1.0;"/><line style="stroke:#181818;stroke-width:1.0;" x1="586.2441" x2="1063.1255" y1="759.8594" y2="759.8594"/><text fill="#000000" font-family="sans-serif" font-size="13" lengthAdjust="spacing" textLength="235.5615" x="709.9041" y="755.0029">create(material_id, quantity, expiry_date)</text><polygon fill="#181818" points="1148.8184,786.2109,1158.8184,790.2109,1148.8184,794.2109,1152.8184,790.2109" style="stroke:#181818;stroke-width:1.0;"/><line style="stroke:#181818;stroke-width:1.0;" x1="586.2441" x2="1154.8184" y1="790.2109" y2="790.2109"/><text fill="#000000" font-family="sans-serif" font-size="13" lengthAdjust="spacing" textLength="108.3799" x="819.3413" y="785.3545">recalculateStatus()</text><polygon fill="#181818" points="774.3853,823.5625,784.3853,827.5625,774.3853,831.5625,778.3853,827.5625" style="stroke:#181818;stroke-width:1.0;"/><line style="stroke:#181818;stroke-width:1.0;" x1="586.2441" x2="780.3853" y1="827.5625" y2="827.5625"/><text fill="#000000" font-family="sans-serif" font-size="13" lengthAdjust="spacing" textLength="137.1411" x="617.7441" y="822.7061">updateStatus("Selesai")</text><polygon fill="#181818" points="382.4653,853.9141,372.4653,857.9141,382.4653,861.9141,378.4653,857.9141" style="stroke:#181818;stroke-width:1.0;"/><line style="stroke:#181818;stroke-width:1.0;stroke-dasharray:2.0,2.0;" x1="376.4653" x2="585.2441" y1="857.9141" y2="857.9141"/><text fill="#000000" font-family="sans-serif" font-size="13" lengthAdjust="spacing" textLength="88.1372" x="434.7861" y="853.0576">showSuccess()</text><!--SRC=[bPHDQzj048Rl-oiMdLH8_q0FWSXAmGS5WoduK33ZrLIUUhNQx4TR__kEj6jRmKeWFiYMvfsFzvcL_OcC1GUzzFWQqIXiq7ley4bJPwH24z094IXebDiiaJL1npa_pSOD7hsiK8Fv3RA28nY-dg8GeCBWP551H_niRVvmgS5H8S6FTuAx1b9amGHPFF-pQ3nkkF4aUDuinbU32MxG6brIhHPLARPRZDKOW7HIr6yL3R1L0br1KCT9qLJBYXHiX60VykiZJok_oGRxGuGW7HC20_AGcHp0HS6AKRTYdNB8PV8ufO_MQaAtf_P1jXpu8bWrQdTNxQ9eTnLrQD3TIhx4_e2kJ7Kkm_dZy3V7lm-kvwZGms3b3nFYYVSQ2AnS1-o5vC_S5hJj-Bpii_TfXjV8F2YS7wHrf7YSCMlcaPCIw19JqylaaAN9OdspEDTzt0fDUmS-QY2EJsSnSvyZzu6tU25-w_G6TRGZs6s047rPrA3vbKYdkxX7kJOsXa-2f37dIOK8kcOGvSNOliEGpQMVF22vyntJD636savVCweBLCmPDNgW4xz-2r1-aI5_l53vs4VYr5ItVRspepJxFftHMMR3cGuLQCMhkcBEOx-xXMqoiB20RLIA_wUumdy0]--></g></svg>