<svg xmlns="http://www.w3.org/2000/svg" xmlns:xlink="http://www.w3.org/1999/xlink" contentStyleType="text/css" height="1899px" preserveAspectRatio="none" style="width:1337px;height:1899px;background:#FFFFFF;" version="1.1" viewBox="0 0 1337 1899" width="1337px" zoomAndPan="magnify"><defs/><g><rect fill="none" height="79.0547" style="stroke:#000000;stroke-width:1.5;" width="498.6206" x="10" y="378.7734"/><rect fill="none" height="152.7578" style="stroke:#000000;stroke-width:1.5;" width="811.8364" x="10" y="593.2344"/><rect fill="none" height="152.7578" style="stroke:#000000;stroke-width:1.5;" width="811.8364" x="10" y="803.3438"/><rect fill="none" height="148.1094" style="stroke:#000000;stroke-width:1.5;" width="811.8364" x="10" y="1075.1563"/><rect fill="none" height="293.7031" style="stroke:#000000;stroke-width:1.5;" width="498.6206" x="10" y="1507.0781"/><line style="stroke:#181818;stroke-width:0.5;stroke-dasharray:5.0,5.0;" x1="37" x2="37" y1="82.6094" y2="1817.7813"/><line style="stroke:#181818;stroke-width:0.5;stroke-dasharray:5.0,5.0;" x1="264.4014" x2="264.4014" y1="82.6094" y2="1817.7813"/><line style="stroke:#181818;stroke-width:0.5;stroke-dasharray:5.0,5.0;" x1="448.2212" x2="448.2212" y1="82.6094" y2="1817.7813"/><line style="stroke:#181818;stroke-width:0.5;stroke-dasharray:5.0,5.0;" x1="781.1401" x2="781.1401" y1="82.6094" y2="1817.7813"/><line style="stroke:#181818;stroke-width:0.5;stroke-dasharray:5.0,5.0;" x1="1023.0117" x2="1023.0117" y1="82.6094" y2="1817.7813"/><line style="stroke:#181818;stroke-width:0.5;stroke-dasharray:5.0,5.0;" x1="1090.1426" x2="1090.1426" y1="82.6094" y2="1817.7813"/><line style="stroke:#181818;stroke-width:0.5;stroke-dasharray:5.0,5.0;" x1="1291.3599" x2="1291.3599" y1="82.6094" y2="1817.7813"/><text fill="#000000" font-family="sans-serif" font-size="14" lengthAdjust="spacing" textLength="29.5586" x="20" y="79.5332">User</text><ellipse cx="37.7793" cy="13.5" fill="#E2E2F0" rx="8" ry="8" style="stroke:#181818;stroke-width:0.5;"/><path d="M37.7793,21.5 L37.7793,48.5 M24.7793,29.5 L50.7793,29.5 M37.7793,48.5 L24.7793,63.5 M37.7793,48.5 L50.7793,63.5 " fill="none" style="stroke:#181818;stroke-width:0.5;"/><text fill="#000000" font-family="sans-serif" font-size="14" lengthAdjust="spacing" textLength="29.5586" x="20" y="1831.3145">User</text><ellipse cx="37.7793" cy="1842.8906" fill="#E2E2F0" rx="8" ry="8" style="stroke:#181818;stroke-width:0.5;"/><path d="M37.7793,1850.8906 L37.7793,1877.8906 M24.7793,1858.8906 L50.7793,1858.8906 M37.7793,1877.8906 L24.7793,1892.8906 M37.7793,1877.8906 L50.7793,1892.8906 " fill="none" style="stroke:#181818;stroke-width:0.5;"/><rect fill="#E2E2F0" height="49.2188" rx="2.5" ry="2.5" style="stroke:#181818;stroke-width:0.5;" width="84.8408" x="222.4014" y="32.3906"/><text fill="#000000" font-family="sans-serif" font-size="14" lengthAdjust="spacing" textLength="70.8408" x="229.4014" y="53.9238">Login Page</text><text fill="#000000" font-family="sans-serif" font-size="14" lengthAdjust="spacing" textLength="45.1309" x="242.2563" y="71.5332">(Blade)</text><rect fill="#E2E2F0" height="49.2188" rx="2.5" ry="2.5" style="stroke:#181818;stroke-width:0.5;" width="84.8408" x="222.4014" y="1816.7813"/><text fill="#000000" font-family="sans-serif" font-size="14" lengthAdjust="spacing" textLength="70.8408" x="229.4014" y="1838.3145">Login Page</text><text fill="#000000" font-family="sans-serif" font-size="14" lengthAdjust="spacing" textLength="45.1309" x="242.2563" y="1855.9238">(Blade)</text><rect fill="#E2E2F0" height="49.2188" rx="2.5" ry="2.5" style="stroke:#181818;stroke-width:0.5;" width="100.3994" x="398.2212" y="32.3906"/><text fill="#000000" font-family="sans-serif" font-size="14" lengthAdjust="spacing" textLength="86.3994" x="405.2212" y="53.9238">LoginRequest</text><text fill="#000000" font-family="sans-serif" font-size="14" lengthAdjust="spacing" textLength="60.6895" x="418.0762" y="71.5332">Controller</text><rect fill="#E2E2F0" height="49.2188" rx="2.5" ry="2.5" style="stroke:#181818;stroke-width:0.5;" width="100.3994" x="398.2212" y="1816.7813"/><text fill="#000000" font-family="sans-serif" font-size="14" lengthAdjust="spacing" textLength="86.3994" x="405.2212" y="1838.3145">LoginRequest</text><text fill="#000000" font-family="sans-serif" font-size="14" lengthAdjust="spacing" textLength="60.6895" x="418.0762" y="1855.9238">Controller</text><rect fill="#E2E2F0" height="49.2188" rx="2.5" ry="2.5" style="stroke:#181818;stroke-width:0.5;" width="60.6963" x="751.1401" y="32.3906"/><text fill="#000000" font-family="sans-serif" font-size="14" lengthAdjust="spacing" textLength="28.7998" x="767.0884" y="53.9238">Auth</text><text fill="#000000" font-family="sans-serif" font-size="14" lengthAdjust="spacing" textLength="46.6963" x="758.1401" y="71.5332">Facade</text><rect fill="#E2E2F0" height="49.2188" rx="2.5" ry="2.5" style="stroke:#181818;stroke-width:0.5;" width="60.6963" x="751.1401" y="1816.7813"/><text fill="#000000" font-family="sans-serif" font-size="14" lengthAdjust="spacing" textLength="28.7998" x="767.0884" y="1838.3145">Auth</text><text fill="#000000" font-family="sans-serif" font-size="14" lengthAdjust="spacing" textLength="46.6963" x="758.1401" y="1855.9238">Facade</text><rect fill="#E2E2F0" height="49.2188" rx="2.5" ry="2.5" style="stroke:#181818;stroke-width:0.5;" width="52.1309" x="997.0117" y="32.3906"/><text fill="#000000" font-family="sans-serif" font-size="14" lengthAdjust="spacing" textLength="29.5586" x="1008.2979" y="53.9238">User</text><text fill="#000000" font-family="sans-serif" font-size="14" lengthAdjust="spacing" textLength="38.1309" x="1004.0117" y="71.5332">Model</text><rect fill="#E2E2F0" height="49.2188" rx="2.5" ry="2.5" style="stroke:#181818;stroke-width:0.5;" width="52.1309" x="997.0117" y="1816.7813"/><text fill="#000000" font-family="sans-serif" font-size="14" lengthAdjust="spacing" textLength="29.5586" x="1008.2979" y="1838.3145">User</text><text fill="#000000" font-family="sans-serif" font-size="14" lengthAdjust="spacing" textLength="38.1309" x="1004.0117" y="1855.9238">Model</text><rect fill="#E2E2F0" height="31.6094" rx="2.5" ry="2.5" style="stroke:#181818;stroke-width:0.5;" width="63.8066" x="1059.1426" y="50"/><text fill="#000000" font-family="sans-serif" font-size="14" lengthAdjust="spacing" textLength="49.8066" x="1066.1426" y="71.5332">Session</text><rect fill="#E2E2F0" height="31.6094" rx="2.5" ry="2.5" style="stroke:#181818;stroke-width:0.5;" width="63.8066" x="1059.1426" y="1816.7813"/><text fill="#000000" font-family="sans-serif" font-size="14" lengthAdjust="spacing" textLength="49.8066" x="1066.1426" y="1838.3145">Session</text><text fill="#000000" font-family="sans-serif" font-size="14" lengthAdjust="spacing" textLength="59.9307" x="1259.3599" y="79.5332">Database</text><path d="M1274.3252,29 C1274.3252,19 1292.3252,19 1292.3252,19 C1292.3252,19 1310.3252,19 1310.3252,29 L1310.3252,55 C1310.3252,65 1292.3252,65 1292.3252,65 C1292.3252,65 1274.3252,65 1274.3252,55 L1274.3252,29 " fill="#E2E2F0" style="stroke:#181818;stroke-width:1.5;"/><path d="M1274.3252,29 C1274.3252,39 1292.3252,39 1292.3252,39 C1292.3252,39 1310.3252,39 1310.3252,29 " fill="none" style="stroke:#181818;stroke-width:1.5;"/><text fill="#000000" font-family="sans-serif" font-size="14" lengthAdjust="spacing" textLength="59.9307" x="1259.3599" y="1831.3145">Database</text><path d="M1274.3252,1844.3906 C1274.3252,1834.3906 1292.3252,1834.3906 1292.3252,1834.3906 C1292.3252,1834.3906 1310.3252,1834.3906 1310.3252,1844.3906 L1310.3252,1870.3906 C1310.3252,1880.3906 1292.3252,1880.3906 1292.3252,1880.3906 C1292.3252,1880.3906 1274.3252,1880.3906 1274.3252,1870.3906 L1274.3252,1844.3906 " fill="#E2E2F0" style="stroke:#181818;stroke-width:1.5;"/><path d="M1274.3252,1844.3906 C1274.3252,1854.3906 1292.3252,1854.3906 1292.3252,1854.3906 C1292.3252,1854.3906 1310.3252,1854.3906 1310.3252,1844.3906 " fill="none" style="stroke:#181818;stroke-width:1.5;"/><rect fill="#EEEEEE" height="3" style="stroke:#EEEEEE;stroke-width:1.0;" width="1330.2905" x="0" y="113.7852"/><line style="stroke:#000000;stroke-width:1.0;" x1="0" x2="1330.2905" y1="113.7852" y2="113.7852"/><line style="stroke:#000000;stroke-width:1.0;" x1="0" x2="1330.2905" y1="116.7852" y2="116.7852"/><rect fill="#EEEEEE" height="24.3516" style="stroke:#000000;stroke-width:2.0;" width="152.709" x="588.7908" y="102.6094"/><text fill="#000000" font-family="sans-serif" font-size="13" font-weight="bold" lengthAdjust="spacing" textLength="135.0972" x="594.7908" y="120.1045">Akses Halaman Login</text><polygon fill="#181818" points="252.8218,155.3125,262.8218,159.3125,252.8218,163.3125,256.8218,159.3125" style="stroke:#181818;stroke-width:1.0;"/><line style="stroke:#181818;stroke-width:1.0;" x1="37.7793" x2="258.8218" y1="159.3125" y2="159.3125"/><text fill="#000000" font-family="sans-serif" font-size="13" lengthAdjust="spacing" textLength="61.4136" x="44.7793" y="154.4561">GET /login</text><polygon fill="#181818" points="48.7793,185.6641,38.7793,189.6641,48.7793,193.6641,44.7793,189.6641" style="stroke:#181818;stroke-width:1.0;"/><line style="stroke:#181818;stroke-width:1.0;stroke-dasharray:2.0,2.0;" x1="42.7793" x2="263.8218" y1="189.6641" y2="189.6641"/><text fill="#000000" font-family="sans-serif" font-size="13" lengthAdjust="spacing" textLength="120.6563" x="54.7793" y="184.8076">Tampilkan form login</text><rect fill="#EEEEEE" height="3" style="stroke:#EEEEEE;stroke-width:1.0;" width="1330.2905" x="0" y="218.8398"/><line style="stroke:#000000;stroke-width:1.0;" x1="0" x2="1330.2905" y1="218.8398" y2="218.8398"/><line style="stroke:#000000;stroke-width:1.0;" x1="0" x2="1330.2905" y1="221.8398" y2="221.8398"/><rect fill="#EEEEEE" height="24.3516" style="stroke:#000000;stroke-width:2.0;" width="100.6519" x="614.8193" y="207.6641"/><text fill="#000000" font-family="sans-serif" font-size="13" font-weight="bold" lengthAdjust="spacing" textLength="83.04" x="620.8193" y="225.1592">Submit Login</text><polygon fill="#181818" points="252.8218,260.3672,262.8218,264.3672,252.8218,268.3672,256.8218,264.3672" style="stroke:#181818;stroke-width:1.0;"/><line style="stroke:#181818;stroke-width:1.0;" x1="37.7793" x2="258.8218" y1="264.3672" y2="264.3672"/><text fill="#000000" font-family="sans-serif" font-size="13" lengthAdjust="spacing" textLength="141.5908" x="44.7793" y="259.5107">POST (email, password)</text><polygon fill="#181818" points="436.4209,290.7188,446.4209,294.7188,436.4209,298.7188,440.4209,294.7188" style="stroke:#181818;stroke-width:1.0;"/><line style="stroke:#181818;stroke-width:1.0;" x1="264.8218" x2="442.4209" y1="294.7188" y2="294.7188"/><text fill="#000000" font-family="sans-serif" font-size="13" lengthAdjust="spacing" textLength="79.4917" x="271.8218" y="289.8623">authenticate()</text><line style="stroke:#181818;stroke-width:1.0;" x1="448.4209" x2="490.4209" y1="337.9219" y2="337.9219"/><line style="stroke:#181818;stroke-width:1.0;" x1="490.4209" x2="490.4209" y1="337.9219" y2="350.9219"/><line style="stroke:#181818;stroke-width:1.0;" x1="449.4209" x2="490.4209" y1="350.9219" y2="350.9219"/><polygon fill="#181818" points="459.4209,346.9219,449.4209,350.9219,459.4209,354.9219,455.4209,350.9219" style="stroke:#181818;stroke-width:1.0;"/><text fill="#000000" font-family="sans-serif" font-size="13" lengthAdjust="spacing" textLength="53.4663" x="455.4209" y="333.0654">validate()</text><path d="M520.4663,307.7188 L520.4663,366.7188 L673.4663,366.7188 L673.4663,317.7188 L663.4663,307.7188 L520.4663,307.7188 " fill="#FEFFDD" style="stroke:#181818;stroke-width:0.5;"/><path d="M663.4663,307.7188 L663.4663,317.7188 L673.4663,317.7188 L663.4663,307.7188 " fill="#FEFFDD" style="stroke:#181818;stroke-width:0.5;"/><text fill="#000000" font-family="sans-serif" font-size="13" lengthAdjust="spacing" textLength="49.1372" x="526.4663" y="326.2139">Validasi:</text><text fill="#000000" font-family="sans-serif" font-size="13" lengthAdjust="spacing" textLength="132.2153" x="526.4663" y="342.5654">- email: required, email</text><text fill="#000000" font-family="sans-serif" font-size="13" lengthAdjust="spacing" textLength="118.498" x="526.4663" y="358.917">- password: required</text><path d="M10,378.7734 L70.1709,378.7734 L70.1709,387.125 L60.1709,397.125 L10,397.125 L10,378.7734 " fill="#EEEEEE" style="stroke:#000000;stroke-width:1.5;"/><rect fill="none" height="79.0547" style="stroke:#000000;stroke-width:1.5;" width="498.6206" x="10" y="378.7734"/><text fill="#000000" font-family="sans-serif" font-size="13" font-weight="bold" lengthAdjust="spacing" textLength="15.1709" x="25" y="393.2686">alt</text><text fill="#000000" font-family="sans-serif" font-size="11" font-weight="bold" lengthAdjust="spacing" textLength="82.5269" x="85.1709" y="392.1924">[Validasi Gagal]</text><polygon fill="#181818" points="275.8218,415.4766,265.8218,419.4766,275.8218,423.4766,271.8218,419.4766" style="stroke:#181818;stroke-width:1.0;"/><line style="stroke:#181818;stroke-width:1.0;stroke-dasharray:2.0,2.0;" x1="269.8218" x2="447.4209" y1="419.4766" y2="419.4766"/><text fill="#000000" font-family="sans-serif" font-size="13" lengthAdjust="spacing" textLength="114.188" x="281.8218" y="414.6201">ValidationException</text><polygon fill="#181818" points="48.7793,445.8281,38.7793,449.8281,48.7793,453.8281,44.7793,449.8281" style="stroke:#181818;stroke-width:1.0;"/><line style="stroke:#181818;stroke-width:1.0;stroke-dasharray:2.0,2.0;" x1="42.7793" x2="263.8218" y1="449.8281" y2="449.8281"/><text fill="#000000" font-family="sans-serif" font-size="13" lengthAdjust="spacing" textLength="137.9917" x="54.7793" y="444.9717">Tampilkan error validasi</text><polygon fill="#181818" points="769.4883,483.1797,779.4883,487.1797,769.4883,491.1797,773.4883,487.1797" style="stroke:#181818;stroke-width:1.0;"/><line style="stroke:#181818;stroke-width:1.0;" x1="448.4209" x2="775.4883" y1="487.1797" y2="487.1797"/><text fill="#000000" font-family="sans-serif" font-size="13" lengthAdjust="spacing" textLength="309.0674" x="455.4209" y="482.3232">attempt(['email' =&gt; $email, 'password' =&gt; $password])</text><polygon fill="#181818" points="1011.0771,513.5313,1021.0771,517.5313,1011.0771,521.5313,1015.0771,517.5313" style="stroke:#181818;stroke-width:1.0;"/><line style="stroke:#181818;stroke-width:1.0;" x1="781.4883" x2="1017.0771" y1="517.5313" y2="517.5313"/><text fill="#000000" font-family="sans-serif" font-size="13" lengthAdjust="spacing" textLength="159.9038" x="788.4883" y="512.6748">where('email', email)-&gt;first()</text><polygon fill="#181818" points="1280.3252,543.8828,1290.3252,547.8828,1280.3252,551.8828,1284.3252,547.8828" style="stroke:#181818;stroke-width:1.0;"/><line style="stroke:#181818;stroke-width:1.0;" x1="1023.0771" x2="1286.3252" y1="547.8828" y2="547.8828"/><text fill="#000000" font-family="sans-serif" font-size="13" lengthAdjust="spacing" textLength="245.248" x="1030.0771" y="543.0264">SELECT * FROM users WHERE email = ?</text><polygon fill="#181818" points="1034.0771,574.2344,1024.0771,578.2344,1034.0771,582.2344,1030.0771,578.2344" style="stroke:#181818;stroke-width:1.0;"/><line style="stroke:#181818;stroke-width:1.0;stroke-dasharray:2.0,2.0;" x1="1028.0771" x2="1291.3252" y1="578.2344" y2="578.2344"/><text fill="#000000" font-family="sans-serif" font-size="13" lengthAdjust="spacing" textLength="54.2026" x="1040.0771" y="573.3779">user data</text><path d="M10,593.2344 L70.1709,593.2344 L70.1709,601.5859 L60.1709,611.5859 L10,611.5859 L10,593.2344 " fill="#EEEEEE" style="stroke:#000000;stroke-width:1.5;"/><rect fill="none" height="152.7578" style="stroke:#000000;stroke-width:1.5;" width="811.8364" x="10" y="593.2344"/><text fill="#000000" font-family="sans-serif" font-size="13" font-weight="bold" lengthAdjust="spacing" textLength="15.1709" x="25" y="607.7295">alt</text><text fill="#000000" font-family="sans-serif" font-size="11" font-weight="bold" lengthAdjust="spacing" textLength="122.8638" x="85.1709" y="606.6533">[User Tidak Ditemukan]</text><polygon fill="#181818" points="459.4209,629.9375,449.4209,633.9375,459.4209,637.9375,455.4209,633.9375" style="stroke:#181818;stroke-width:1.0;"/><line style="stroke:#181818;stroke-width:1.0;stroke-dasharray:2.0,2.0;" x1="453.4209" x2="780.4883" y1="633.9375" y2="633.9375"/><text fill="#000000" font-family="sans-serif" font-size="13" lengthAdjust="spacing" textLength="27.46" x="465.4209" y="629.0811">false</text><line style="stroke:#181818;stroke-width:1.0;" x1="448.4209" x2="490.4209" y1="664.2891" y2="664.2891"/><line style="stroke:#181818;stroke-width:1.0;" x1="490.4209" x2="490.4209" y1="664.2891" y2="677.2891"/><line style="stroke:#181818;stroke-width:1.0;" x1="449.4209" x2="490.4209" y1="677.2891" y2="677.2891"/><polygon fill="#181818" points="459.4209,673.2891,449.4209,677.2891,459.4209,681.2891,455.4209,677.2891" style="stroke:#181818;stroke-width:1.0;"/><text fill="#000000" font-family="sans-serif" font-size="13" lengthAdjust="spacing" textLength="96.0781" x="455.4209" y="659.4326">RateLimiter::hit()</text><polygon fill="#181818" points="275.8218,703.6406,265.8218,707.6406,275.8218,711.6406,271.8218,707.6406" style="stroke:#181818;stroke-width:1.0;"/><line style="stroke:#181818;stroke-width:1.0;stroke-dasharray:2.0,2.0;" x1="269.8218" x2="447.4209" y1="707.6406" y2="707.6406"/><text fill="#000000" font-family="sans-serif" font-size="13" lengthAdjust="spacing" textLength="149.5889" x="281.8218" y="702.7842">throw ValidationException</text><polygon fill="#181818" points="48.7793,733.9922,38.7793,737.9922,48.7793,741.9922,44.7793,737.9922" style="stroke:#181818;stroke-width:1.0;"/><line style="stroke:#181818;stroke-width:1.0;stroke-dasharray:2.0,2.0;" x1="42.7793" x2="263.8218" y1="737.9922" y2="737.9922"/><text fill="#000000" font-family="sans-serif" font-size="13" lengthAdjust="spacing" textLength="155.3589" x="54.7793" y="733.1357">Email atau password salah</text><line style="stroke:#181818;stroke-width:1.0;" x1="781.4883" x2="823.4883" y1="775.3438" y2="775.3438"/><line style="stroke:#181818;stroke-width:1.0;" x1="823.4883" x2="823.4883" y1="775.3438" y2="788.3438"/><line style="stroke:#181818;stroke-width:1.0;" x1="782.4883" x2="823.4883" y1="788.3438" y2="788.3438"/><polygon fill="#181818" points="792.4883,784.3438,782.4883,788.3438,792.4883,792.3438,788.4883,788.3438" style="stroke:#181818;stroke-width:1.0;"/><text fill="#000000" font-family="sans-serif" font-size="13" lengthAdjust="spacing" textLength="227.5889" x="788.4883" y="770.4873">Hash::check(password, user.password)</text><path d="M10,803.3438 L70.1709,803.3438 L70.1709,811.6953 L60.1709,821.6953 L10,821.6953 L10,803.3438 " fill="#EEEEEE" style="stroke:#000000;stroke-width:1.5;"/><rect fill="none" height="152.7578" style="stroke:#000000;stroke-width:1.5;" width="811.8364" x="10" y="803.3438"/><text fill="#000000" font-family="sans-serif" font-size="13" font-weight="bold" lengthAdjust="spacing" textLength="15.1709" x="25" y="817.8389">alt</text><text fill="#000000" font-family="sans-serif" font-size="11" font-weight="bold" lengthAdjust="spacing" textLength="91.6953" x="85.1709" y="816.7627">[Password Salah]</text><polygon fill="#181818" points="459.4209,840.0469,449.4209,844.0469,459.4209,848.0469,455.4209,844.0469" style="stroke:#181818;stroke-width:1.0;"/><line style="stroke:#181818;stroke-width:1.0;stroke-dasharray:2.0,2.0;" x1="453.4209" x2="780.4883" y1="844.0469" y2="844.0469"/><text fill="#000000" font-family="sans-serif" font-size="13" lengthAdjust="spacing" textLength="27.46" x="465.4209" y="839.1904">false</text><line style="stroke:#181818;stroke-width:1.0;" x1="448.4209" x2="490.4209" y1="874.3984" y2="874.3984"/><line style="stroke:#181818;stroke-width:1.0;" x1="490.4209" x2="490.4209" y1="874.3984" y2="887.3984"/><line style="stroke:#181818;stroke-width:1.0;" x1="449.4209" x2="490.4209" y1="887.3984" y2="887.3984"/><polygon fill="#181818" points="459.4209,883.3984,449.4209,887.3984,459.4209,891.3984,455.4209,887.3984" style="stroke:#181818;stroke-width:1.0;"/><text fill="#000000" font-family="sans-serif" font-size="13" lengthAdjust="spacing" textLength="96.0781" x="455.4209" y="869.542">RateLimiter::hit()</text><polygon fill="#181818" points="275.8218,913.75,265.8218,917.75,275.8218,921.75,271.8218,917.75" style="stroke:#181818;stroke-width:1.0;"/><line style="stroke:#181818;stroke-width:1.0;stroke-dasharray:2.0,2.0;" x1="269.8218" x2="447.4209" y1="917.75" y2="917.75"/><text fill="#000000" font-family="sans-serif" font-size="13" lengthAdjust="spacing" textLength="149.5889" x="281.8218" y="912.8936">throw ValidationException</text><polygon fill="#181818" points="48.7793,944.1016,38.7793,948.1016,48.7793,952.1016,44.7793,948.1016" style="stroke:#181818;stroke-width:1.0;"/><line style="stroke:#181818;stroke-width:1.0;stroke-dasharray:2.0,2.0;" x1="42.7793" x2="263.8218" y1="948.1016" y2="948.1016"/><text fill="#000000" font-family="sans-serif" font-size="13" lengthAdjust="spacing" textLength="155.3589" x="54.7793" y="943.2451">Email atau password salah</text><rect fill="#EEEEEE" height="3" style="stroke:#EEEEEE;stroke-width:1.0;" width="1330.2905" x="0" y="984.2773"/><line style="stroke:#000000;stroke-width:1.0;" x1="0" x2="1330.2905" y1="984.2773" y2="984.2773"/><line style="stroke:#000000;stroke-width:1.0;" x1="0" x2="1330.2905" y1="987.2773" y2="987.2773"/><rect fill="#EEEEEE" height="24.3516" style="stroke:#000000;stroke-width:2.0;" width="120.9136" x="604.6885" y="973.1016"/><text fill="#000000" font-family="sans-serif" font-size="13" font-weight="bold" lengthAdjust="spacing" textLength="103.3018" x="610.6885" y="990.5967">Cek Status Akun</text><polygon fill="#181818" points="1011.0771,1025.8047,1021.0771,1029.8047,1011.0771,1033.8047,1015.0771,1029.8047" style="stroke:#181818;stroke-width:1.0;"/><line style="stroke:#181818;stroke-width:1.0;" x1="781.4883" x2="1017.0771" y1="1029.8047" y2="1029.8047"/><text fill="#000000" font-family="sans-serif" font-size="13" lengthAdjust="spacing" textLength="78.019" x="788.4883" y="1024.9482">checkActive()</text><polygon fill="#181818" points="1280.3252,1056.1563,1290.3252,1060.1563,1280.3252,1064.1563,1284.3252,1060.1563" style="stroke:#181818;stroke-width:1.0;"/><line style="stroke:#181818;stroke-width:1.0;" x1="1023.0771" x2="1286.3252" y1="1060.1563" y2="1060.1563"/><text fill="#000000" font-family="sans-serif" font-size="13" lengthAdjust="spacing" textLength="182.0444" x="1030.0771" y="1055.2998">SELECT is_active FROM users</text><path d="M10,1075.1563 L70.1709,1075.1563 L70.1709,1083.5078 L60.1709,1093.5078 L10,1093.5078 L10,1075.1563 " fill="#EEEEEE" style="stroke:#000000;stroke-width:1.5;"/><rect fill="none" height="148.1094" style="stroke:#000000;stroke-width:1.5;" width="811.8364" x="10" y="1075.1563"/><text fill="#000000" font-family="sans-serif" font-size="13" font-weight="bold" lengthAdjust="spacing" textLength="15.1709" x="25" y="1089.6514">alt</text><text fill="#000000" font-family="sans-serif" font-size="11" font-weight="bold" lengthAdjust="spacing" textLength="94.1123" x="85.1709" y="1088.5752">[Akun Tidak Aktif]</text><polygon fill="#181818" points="459.4209,1111.8594,449.4209,1115.8594,459.4209,1119.8594,455.4209,1115.8594" style="stroke:#181818;stroke-width:1.0;"/><line style="stroke:#181818;stroke-width:1.0;stroke-dasharray:2.0,2.0;" x1="453.4209" x2="780.4883" y1="1115.8594" y2="1115.8594"/><text fill="#000000" font-family="sans-serif" font-size="13" lengthAdjust="spacing" textLength="27.46" x="465.4209" y="1111.0029">false</text><polygon fill="#181818" points="275.8218,1142.2109,265.8218,1146.2109,275.8218,1150.2109,271.8218,1146.2109" style="stroke:#181818;stroke-width:1.0;"/><line style="stroke:#181818;stroke-width:1.0;stroke-dasharray:2.0,2.0;" x1="269.8218" x2="447.4209" y1="1146.2109" y2="1146.2109"/><text fill="#000000" font-family="sans-serif" font-size="13" lengthAdjust="spacing" textLength="149.5889" x="281.8218" y="1141.3545">throw ValidationException</text><polygon fill="#181818" points="48.7793,1191.9141,38.7793,1195.9141,48.7793,1199.9141,44.7793,1195.9141" style="stroke:#181818;stroke-width:1.0;"/><line style="stroke:#181818;stroke-width:1.0;stroke-dasharray:2.0,2.0;" x1="42.7793" x2="263.8218" y1="1195.9141" y2="1195.9141"/><text fill="#000000" font-family="sans-serif" font-size="13" lengthAdjust="spacing" textLength="88.1563" x="54.7793" y="1191.0576">Akun tidak aktif</text><path d="M269,1159.2109 L269,1218.2109 L420,1218.2109 L420,1169.2109 L410,1159.2109 L269,1159.2109 " fill="#FEFFDD" style="stroke:#181818;stroke-width:0.5;"/><path d="M410,1159.2109 L410,1169.2109 L420,1169.2109 L410,1159.2109 " fill="#FEFFDD" style="stroke:#181818;stroke-width:0.5;"/><text fill="#000000" font-family="sans-serif" font-size="13" lengthAdjust="spacing" textLength="62.1626" x="275" y="1177.7061">Penyebab:</text><text fill="#000000" font-family="sans-serif" font-size="13" lengthAdjust="spacing" textLength="91.749" x="275" y="1194.0576">- Belum aktivasi</text><text fill="#000000" font-family="sans-serif" font-size="13" lengthAdjust="spacing" textLength="130.7744" x="275" y="1210.4092">- Dinonaktifkan pemilik</text><polygon fill="#181818" points="1079.0459,1248.6172,1089.0459,1252.6172,1079.0459,1256.6172,1083.0459,1252.6172" style="stroke:#181818;stroke-width:1.0;"/><line style="stroke:#181818;stroke-width:1.0;" x1="781.4883" x2="1085.0459" y1="1252.6172" y2="1252.6172"/><text fill="#000000" font-family="sans-serif" font-size="13" lengthAdjust="spacing" textLength="71.5381" x="788.4883" y="1247.7607">regenerate()</text><polygon fill="#181818" points="792.4883,1278.9688,782.4883,1282.9688,792.4883,1286.9688,788.4883,1282.9688" style="stroke:#181818;stroke-width:1.0;"/><line style="stroke:#181818;stroke-width:1.0;stroke-dasharray:2.0,2.0;" x1="786.4883" x2="1090.0459" y1="1282.9688" y2="1282.9688"/><text fill="#000000" font-family="sans-serif" font-size="13" lengthAdjust="spacing" textLength="85.2681" x="798.4883" y="1278.1123">new session id</text><polygon fill="#181818" points="1079.0459,1309.3203,1089.0459,1313.3203,1079.0459,1317.3203,1083.0459,1313.3203" style="stroke:#181818;stroke-width:1.0;"/><line style="stroke:#181818;stroke-width:1.0;" x1="781.4883" x2="1085.0459" y1="1313.3203" y2="1313.3203"/><text fill="#000000" font-family="sans-serif" font-size="13" lengthAdjust="spacing" textLength="80.1963" x="788.4883" y="1308.4639">store(user_id)</text><polygon fill="#181818" points="459.4209,1339.6719,449.4209,1343.6719,459.4209,1347.6719,455.4209,1343.6719" style="stroke:#181818;stroke-width:1.0;"/><line style="stroke:#181818;stroke-width:1.0;stroke-dasharray:2.0,2.0;" x1="453.4209" x2="780.4883" y1="1343.6719" y2="1343.6719"/><text fill="#000000" font-family="sans-serif" font-size="13" lengthAdjust="spacing" textLength="22.4009" x="465.4209" y="1338.8154">true</text><line style="stroke:#181818;stroke-width:1.0;" x1="448.4209" x2="490.4209" y1="1374.0234" y2="1374.0234"/><line style="stroke:#181818;stroke-width:1.0;" x1="490.4209" x2="490.4209" y1="1374.0234" y2="1387.0234"/><line style="stroke:#181818;stroke-width:1.0;" x1="449.4209" x2="490.4209" y1="1387.0234" y2="1387.0234"/><polygon fill="#181818" points="459.4209,1383.0234,449.4209,1387.0234,459.4209,1391.0234,455.4209,1387.0234" style="stroke:#181818;stroke-width:1.0;"/><text fill="#000000" font-family="sans-serif" font-size="13" lengthAdjust="spacing" textLength="110.5254" x="455.4209" y="1369.167">RateLimiter::clear()</text><rect fill="#EEEEEE" height="3" style="stroke:#EEEEEE;stroke-width:1.0;" width="1330.2905" x="0" y="1416.1992"/><line style="stroke:#000000;stroke-width:1.0;" x1="0" x2="1330.2905" y1="1416.1992" y2="1416.1992"/><line style="stroke:#000000;stroke-width:1.0;" x1="0" x2="1330.2905" y1="1419.1992" y2="1419.1992"/><rect fill="#EEEEEE" height="24.3516" style="stroke:#000000;stroke-width:2.0;" width="225.707" x="552.2917" y="1405.0234"/><text fill="#000000" font-family="sans-serif" font-size="13" font-weight="bold" lengthAdjust="spacing" textLength="208.0952" x="558.2917" y="1422.5186">Redirect Berdasarkan Permission</text><polygon fill="#181818" points="1011.0771,1457.7266,1021.0771,1461.7266,1011.0771,1465.7266,1015.0771,1461.7266" style="stroke:#181818;stroke-width:1.0;"/><line style="stroke:#181818;stroke-width:1.0;" x1="448.4209" x2="1017.0771" y1="1461.7266" y2="1461.7266"/><text fill="#000000" font-family="sans-serif" font-size="13" lengthAdjust="spacing" textLength="116.3145" x="455.4209" y="1456.8701">hasAnyPermission()</text><polygon fill="#181818" points="1280.3252,1488.0781,1290.3252,1492.0781,1280.3252,1496.0781,1284.3252,1492.0781" style="stroke:#181818;stroke-width:1.0;"/><line style="stroke:#181818;stroke-width:1.0;" x1="1023.0771" x2="1286.3252" y1="1492.0781" y2="1492.0781"/><text fill="#000000" font-family="sans-serif" font-size="13" lengthAdjust="spacing" textLength="175.5571" x="1030.0771" y="1487.2217">SELECT permissions via roles</text><path d="M10,1507.0781 L70.1709,1507.0781 L70.1709,1515.4297 L60.1709,1525.4297 L10,1525.4297 L10,1507.0781 " fill="#EEEEEE" style="stroke:#000000;stroke-width:1.5;"/><rect fill="none" height="293.7031" style="stroke:#000000;stroke-width:1.5;" width="498.6206" x="10" y="1507.0781"/><text fill="#000000" font-family="sans-serif" font-size="13" font-weight="bold" lengthAdjust="spacing" textLength="15.1709" x="25" y="1521.5732">alt</text><text fill="#000000" font-family="sans-serif" font-size="11" font-weight="bold" lengthAdjust="spacing" textLength="130.2114" x="85.1709" y="1520.4971">[User Punya Permission]</text><polygon fill="#181818" points="275.8218,1543.7813,265.8218,1547.7813,275.8218,1551.7813,271.8218,1547.7813" style="stroke:#181818;stroke-width:1.0;"/><line style="stroke:#181818;stroke-width:1.0;stroke-dasharray:2.0,2.0;" x1="269.8218" x2="447.4209" y1="1547.7813" y2="1547.7813"/><text fill="#000000" font-family="sans-serif" font-size="13" lengthAdjust="spacing" textLength="122.021" x="281.8218" y="1542.9248">redirect('/dashboard')</text><polygon fill="#181818" points="48.7793,1574.1328,38.7793,1578.1328,48.7793,1582.1328,44.7793,1578.1328" style="stroke:#181818;stroke-width:1.0;"/><line style="stroke:#181818;stroke-width:1.0;" x1="42.7793" x2="263.8218" y1="1578.1328" y2="1578.1328"/><text fill="#000000" font-family="sans-serif" font-size="13" lengthAdjust="spacing" textLength="203.0425" x="54.7793" y="1573.2764">GET /dashboard sesuai permission</text><path d="M42,1591.1328 L42,1666.1328 L249,1666.1328 L249,1601.1328 L239,1591.1328 L42,1591.1328 " fill="#FEFFDD" style="stroke:#181818;stroke-width:0.5;"/><path d="M239,1591.1328 L239,1601.1328 L249,1601.1328 L239,1591.1328 " fill="#FEFFDD" style="stroke:#181818;stroke-width:0.5;"/><text fill="#000000" font-family="sans-serif" font-size="13" lengthAdjust="spacing" textLength="127.8989" x="48" y="1609.6279">Redirect berdasarkan:</text><text fill="#000000" font-family="sans-serif" font-size="13" lengthAdjust="spacing" textLength="144.1426" x="48" y="1625.9795">- kasir.* -&gt; Laporan Kasir</text><text fill="#000000" font-family="sans-serif" font-size="13" lengthAdjust="spacing" textLength="186.7925" x="48" y="1642.3311">- produksi.* -&gt; Laporan Produksi</text><text fill="#000000" font-family="sans-serif" font-size="13" lengthAdjust="spacing" textLength="186.0752" x="48" y="1658.6826">- inventori.* -&gt; Laporan Inventori</text><line style="stroke:#000000;stroke-width:1.0;stroke-dasharray:2.0,2.0;" x1="10" x2="508.6206" y1="1672.5391" y2="1672.5391"/><text fill="#000000" font-family="sans-serif" font-size="11" font-weight="bold" lengthAdjust="spacing" textLength="129.5938" x="15" y="1683.958">[User Tanpa Permission]</text><polygon fill="#181818" points="275.8218,1705.7266,265.8218,1709.7266,275.8218,1713.7266,271.8218,1709.7266" style="stroke:#181818;stroke-width:1.0;"/><line style="stroke:#181818;stroke-width:1.0;stroke-dasharray:2.0,2.0;" x1="269.8218" x2="447.4209" y1="1709.7266" y2="1709.7266"/><text fill="#000000" font-family="sans-serif" font-size="13" lengthAdjust="spacing" textLength="159.5991" x="281.8218" y="1704.8701">redirect('/menunggu-peran')</text><polygon fill="#181818" points="48.7793,1736.0781,38.7793,1740.0781,48.7793,1744.0781,44.7793,1740.0781" style="stroke:#181818;stroke-width:1.0;"/><line style="stroke:#181818;stroke-width:1.0;" x1="42.7793" x2="263.8218" y1="1740.0781" y2="1740.0781"/><text fill="#000000" font-family="sans-serif" font-size="13" lengthAdjust="spacing" textLength="132.9644" x="54.7793" y="1735.2217">GET /menunggu-peran</text><path d="M42,1753.0781 L42,1795.0781 L194,1795.0781 L194,1763.0781 L184,1753.0781 L42,1753.0781 " fill="#FEFFDD" style="stroke:#181818;stroke-width:0.5;"/><path d="M184,1753.0781 L184,1763.0781 L194,1763.0781 L184,1753.0781 " fill="#FEFFDD" style="stroke:#181818;stroke-width:0.5;"/><text fill="#000000" font-family="sans-serif" font-size="13" lengthAdjust="spacing" textLength="131.5171" x="48" y="1771.5732">User menunggu admin</text><text fill="#000000" font-family="sans-serif" font-size="13" lengthAdjust="spacing" textLength="111.2998" x="48" y="1787.9248">menugaskan peran</text><!--SRC=[rLPDRzim3BtxLn33W2P5qzuDf4FIPEkm5WsIR3kimy3OJ2pObZr9JjT_FqhoHrmanRRRShB9HufyVAA3aIaKVDQaWXAL4P4eKHfuSrViX8G5xkXH3gOPnZHy0wZ1sOz0b_Ip8cqUvKqXZIgoZ5I7PsS_P5APv56-nuZpEfWrz26sf4TvNyIKEOHzTszzs8gq5eLqaFevYD7W1ZN1h7bWvsmQ1ECnJ59D6cunmnobhmx6uy1cXz6rDuJmORw6gyorwY4ZzbbC26lCIv6b7BmjL0uUP3ElgaqkpCcKYuVL6WQKeyWke4IjdmeL3vlqrorH8I1pGP9RH4E3OH0qdZvgZvc8FK8MXa29NM82W2_EhaN8poDmvuMWU3f2KNpX3SxLrD1v0v8ns6H1W9bfCy47tA6D0UXAwHhpCCF4ptz5LDg73dkKE5AADRUlqzjJ-qrQCJ0Dnb1Uci6tCrVp6OoluMtDtrbJlBSsRz-PBHiCzQ5EBo4y9QHeKAUfAHYEhhT2QSFqjKWRDfk6i9hVpM_MS0xlbm_tKB5RmzVR-NBkGs4CxuBPj6sjFiNYm4hFi-V6l-OEKvW9xgJYpXqlli3UBBUOQNf1yA5_oNE-4wmkvZ5CX2twr3HCeegdFvx9tFN3DLUj743ptKZyK1ek_K1kKITX62KKfOC6VU7Qlkpqx7fVDBbMBjT_rZNVvHjAOMNGLBoPqifTvoEwSbHC8YFsz8gCXFw13dCW9q-JI-qbCacDsFuDKV_QkplJk3EnFREtGEnlGVAPDhW9w_SHJ2chSXUojtUsCS-4BAHBP2zsIRd8HEgyxIxfAQbUqNRdx4YIyWkijheolTOaFO6khU9OlERF5WqicJy4o-u8QqPLT6fvzgGLPOJABbeU_99YteIHuNuLBoTKjgq5gLpuMbW8XnaFn92WdiZd3lgA8ieMf64l4FXpIVfWQomg-Om7fvuSlQgh7PnTSR79fa3UYCF3kJTZTn-q5cEfhL0S5F921b1i_Ny2F-UMbKt7IYUDb0MXBiyTmrWMYXdxP4qje5H5NALQz36Bsjh2XDppPwzGBt0V6_CBMV6Tg9Siol9lwSf9LdAtgqPC0SfNEEi3NwV9LTC40CQvaBN76dUe_HrfylHko6y0]--></g></svg>