<svg xmlns="http://www.w3.org/2000/svg" xmlns:xlink="http://www.w3.org/1999/xlink" contentStyleType="text/css" height="2334px" preserveAspectRatio="none" style="width:1495px;height:2334px;background:#FFFFFF;" version="1.1" viewBox="0 0 1495 2334" width="1495px" zoomAndPan="magnify"><defs/><g><rect fill="none" height="442.2422" style="stroke:#000000;stroke-width:1.5;" width="1306.6323" x="10" y="756.9922"/><rect fill="none" height="138.2422" style="stroke:#000000;stroke-width:1.5;" width="392.0542" x="20" y="856.0469"/><rect fill="none" height="368.9219" style="stroke:#000000;stroke-width:1.5;" width="1095.8887" x="220.7437" y="1553.1016"/><rect fill="none" height="125.2422" style="stroke:#000000;stroke-width:1.5;" width="344.4741" x="20" y="2110.1328"/><line style="stroke:#181818;stroke-width:0.5;stroke-dasharray:5.0,5.0;" x1="48" x2="48" y1="82.6094" y2="2252.375"/><line style="stroke:#181818;stroke-width:0.5;stroke-dasharray:5.0,5.0;" x1="291.7437" x2="291.7437" y1="82.6094" y2="2252.375"/><line style="stroke:#181818;stroke-width:0.5;stroke-dasharray:5.0,5.0;" x1="574.1577" x2="574.1577" y1="82.6094" y2="2252.375"/><line style="stroke:#181818;stroke-width:0.5;stroke-dasharray:5.0,5.0;" x1="662.3022" x2="662.3022" y1="82.6094" y2="2252.375"/><line style="stroke:#181818;stroke-width:0.5;stroke-dasharray:5.0,5.0;" x1="767.5503" x2="767.5503" y1="82.6094" y2="2252.375"/><line style="stroke:#181818;stroke-width:0.5;stroke-dasharray:5.0,5.0;" x1="875.9497" x2="875.9497" y1="82.6094" y2="2252.375"/><line style="stroke:#181818;stroke-width:0.5;stroke-dasharray:5.0,5.0;" x1="971.6323" x2="971.6323" y1="82.6094" y2="2252.375"/><line style="stroke:#181818;stroke-width:0.5;stroke-dasharray:5.0,5.0;" x1="1094.1011" x2="1094.1011" y1="82.6094" y2="2252.375"/><line style="stroke:#181818;stroke-width:0.5;stroke-dasharray:5.0,5.0;" x1="1272.7017" x2="1272.7017" y1="82.6094" y2="2252.375"/><text fill="#000000" font-family="sans-serif" font-size="14" lengthAdjust="spacing" textLength="31.8965" x="30" y="79.5332">Kasir</text><ellipse cx="48.9482" cy="13.5" fill="#E2E2F0" rx="8" ry="8" style="stroke:#181818;stroke-width:0.5;"/><path d="M48.9482,21.5 L48.9482,48.5 M35.9482,29.5 L61.9482,29.5 M48.9482,48.5 L35.9482,63.5 M48.9482,48.5 L61.9482,63.5 " fill="none" style="stroke:#181818;stroke-width:0.5;"/><text fill="#000000" font-family="sans-serif" font-size="14" lengthAdjust="spacing" textLength="31.8965" x="30" y="2265.9082">Kasir</text><ellipse cx="48.9482" cy="2277.4844" fill="#E2E2F0" rx="8" ry="8" style="stroke:#181818;stroke-width:0.5;"/><path d="M48.9482,2285.4844 L48.9482,2312.4844 M35.9482,2293.4844 L61.9482,2293.4844 M48.9482,2312.4844 L35.9482,2327.4844 M48.9482,2312.4844 L61.9482,2327.4844 " fill="none" style="stroke:#181818;stroke-width:0.5;"/><rect fill="#E2E2F0" height="49.2188" rx="2.5" ry="2.5" style="stroke:#181818;stroke-width:0.5;" width="123.7305" x="230.7437" y="32.3906"/><text fill="#000000" font-family="sans-serif" font-size="14" lengthAdjust="spacing" textLength="109.7305" x="237.7437" y="53.9238">Transaction Page</text><text fill="#000000" font-family="sans-serif" font-size="14" lengthAdjust="spacing" textLength="60.6758" x="262.271" y="71.5332">(Livewire)</text><rect fill="#E2E2F0" height="49.2188" rx="2.5" ry="2.5" style="stroke:#181818;stroke-width:0.5;" width="123.7305" x="230.7437" y="2251.375"/><text fill="#000000" font-family="sans-serif" font-size="14" lengthAdjust="spacing" textLength="109.7305" x="237.7437" y="2272.9082">Transaction Page</text><text fill="#000000" font-family="sans-serif" font-size="14" lengthAdjust="spacing" textLength="60.6758" x="262.271" y="2290.5176">(Livewire)</text><rect fill="#E2E2F0" height="49.2188" rx="2.5" ry="2.5" style="stroke:#181818;stroke-width:0.5;" width="87.1445" x="531.1577" y="32.3906"/><text fill="#000000" font-family="sans-serif" font-size="14" lengthAdjust="spacing" textLength="73.1445" x="538.1577" y="53.9238">Transaction</text><text fill="#000000" font-family="sans-serif" font-size="14" lengthAdjust="spacing" textLength="38.1309" x="555.6646" y="71.5332">Model</text><rect fill="#E2E2F0" height="49.2188" rx="2.5" ry="2.5" style="stroke:#181818;stroke-width:0.5;" width="87.1445" x="531.1577" y="2251.375"/><text fill="#000000" font-family="sans-serif" font-size="14" lengthAdjust="spacing" textLength="73.1445" x="538.1577" y="2272.9082">Transaction</text><text fill="#000000" font-family="sans-serif" font-size="14" lengthAdjust="spacing" textLength="38.1309" x="555.6646" y="2290.5176">Model</text><rect fill="#E2E2F0" height="49.2188" rx="2.5" ry="2.5" style="stroke:#181818;stroke-width:0.5;" width="69.248" x="628.3022" y="32.3906"/><text fill="#000000" font-family="sans-serif" font-size="14" lengthAdjust="spacing" textLength="55.248" x="635.3022" y="53.9238">Payment</text><text fill="#000000" font-family="sans-serif" font-size="14" lengthAdjust="spacing" textLength="38.1309" x="643.8608" y="71.5332">Model</text><rect fill="#E2E2F0" height="49.2188" rx="2.5" ry="2.5" style="stroke:#181818;stroke-width:0.5;" width="69.248" x="628.3022" y="2251.375"/><text fill="#000000" font-family="sans-serif" font-size="14" lengthAdjust="spacing" textLength="55.248" x="635.3022" y="2272.9082">Payment</text><text fill="#000000" font-family="sans-serif" font-size="14" lengthAdjust="spacing" textLength="38.1309" x="643.8608" y="2290.5176">Model</text><rect fill="#E2E2F0" height="49.2188" rx="2.5" ry="2.5" style="stroke:#181818;stroke-width:0.5;" width="121.3994" x="707.5503" y="32.3906"/><text fill="#000000" font-family="sans-serif" font-size="14" lengthAdjust="spacing" textLength="107.3994" x="714.5503" y="53.9238">PaymentChannel</text><text fill="#000000" font-family="sans-serif" font-size="14" lengthAdjust="spacing" textLength="38.1309" x="749.1846" y="71.5332">Model</text><rect fill="#E2E2F0" height="49.2188" rx="2.5" ry="2.5" style="stroke:#181818;stroke-width:0.5;" width="121.3994" x="707.5503" y="2251.375"/><text fill="#000000" font-family="sans-serif" font-size="14" lengthAdjust="spacing" textLength="107.3994" x="714.5503" y="2272.9082">PaymentChannel</text><text fill="#000000" font-family="sans-serif" font-size="14" lengthAdjust="spacing" textLength="38.1309" x="749.1846" y="2290.5176">Model</text><rect fill="#E2E2F0" height="49.2188" rx="2.5" ry="2.5" style="stroke:#181818;stroke-width:0.5;" width="74.6826" x="838.9497" y="32.3906"/><text fill="#000000" font-family="sans-serif" font-size="14" lengthAdjust="spacing" textLength="60.6826" x="845.9497" y="53.9238">Customer</text><text fill="#000000" font-family="sans-serif" font-size="14" lengthAdjust="spacing" textLength="38.1309" x="857.2256" y="71.5332">Model</text><rect fill="#E2E2F0" height="49.2188" rx="2.5" ry="2.5" style="stroke:#181818;stroke-width:0.5;" width="74.6826" x="838.9497" y="2251.375"/><text fill="#000000" font-family="sans-serif" font-size="14" lengthAdjust="spacing" textLength="60.6826" x="845.9497" y="2272.9082">Customer</text><text fill="#000000" font-family="sans-serif" font-size="14" lengthAdjust="spacing" textLength="38.1309" x="857.2256" y="2290.5176">Model</text><rect fill="#E2E2F0" height="49.2188" rx="2.5" ry="2.5" style="stroke:#181818;stroke-width:0.5;" width="96.4688" x="923.6323" y="32.3906"/><text fill="#000000" font-family="sans-serif" font-size="14" lengthAdjust="spacing" textLength="82.4688" x="930.6323" y="53.9238">PointsHistory</text><text fill="#000000" font-family="sans-serif" font-size="14" lengthAdjust="spacing" textLength="38.1309" x="952.8013" y="71.5332">Model</text><rect fill="#E2E2F0" height="49.2188" rx="2.5" ry="2.5" style="stroke:#181818;stroke-width:0.5;" width="96.4688" x="923.6323" y="2251.375"/><text fill="#000000" font-family="sans-serif" font-size="14" lengthAdjust="spacing" textLength="82.4688" x="930.6323" y="2272.9082">PointsHistory</text><text fill="#000000" font-family="sans-serif" font-size="14" lengthAdjust="spacing" textLength="38.1309" x="952.8013" y="2290.5176">Model</text><rect fill="#E2E2F0" height="31.6094" rx="2.5" ry="2.5" style="stroke:#181818;stroke-width:0.5;" width="129.9375" x="1030.1011" y="50"/><text fill="#000000" font-family="sans-serif" font-size="14" lengthAdjust="spacing" textLength="115.9375" x="1037.1011" y="71.5332">NotificationService</text><rect fill="#E2E2F0" height="31.6094" rx="2.5" ry="2.5" style="stroke:#181818;stroke-width:0.5;" width="129.9375" x="1030.1011" y="2251.375"/><text fill="#000000" font-family="sans-serif" font-size="14" lengthAdjust="spacing" textLength="115.9375" x="1037.1011" y="2272.9082">NotificationService</text><text fill="#000000" font-family="sans-serif" font-size="14" lengthAdjust="spacing" textLength="59.9307" x="1240.7017" y="79.5332">Database</text><path d="M1255.667,29 C1255.667,19 1273.667,19 1273.667,19 C1273.667,19 1291.667,19 1291.667,29 L1291.667,55 C1291.667,65 1273.667,65 1273.667,65 C1273.667,65 1255.667,65 1255.667,55 L1255.667,29 " fill="#E2E2F0" style="stroke:#181818;stroke-width:1.5;"/><path d="M1255.667,29 C1255.667,39 1273.667,39 1273.667,39 C1273.667,39 1291.667,39 1291.667,29 " fill="none" style="stroke:#181818;stroke-width:1.5;"/><text fill="#000000" font-family="sans-serif" font-size="14" lengthAdjust="spacing" textLength="59.9307" x="1240.7017" y="2265.9082">Database</text><path d="M1255.667,2278.9844 C1255.667,2268.9844 1273.667,2268.9844 1273.667,2268.9844 C1273.667,2268.9844 1291.667,2268.9844 1291.667,2278.9844 L1291.667,2304.9844 C1291.667,2314.9844 1273.667,2314.9844 1273.667,2314.9844 C1273.667,2314.9844 1255.667,2314.9844 1255.667,2304.9844 L1255.667,2278.9844 " fill="#E2E2F0" style="stroke:#181818;stroke-width:1.5;"/><path d="M1255.667,2278.9844 C1255.667,2288.9844 1273.667,2288.9844 1273.667,2288.9844 C1273.667,2288.9844 1291.667,2288.9844 1291.667,2278.9844 " fill="none" style="stroke:#181818;stroke-width:1.5;"/><rect fill="#EEEEEE" height="3" style="stroke:#EEEEEE;stroke-width:1.0;" width="1488.0679" x="0" y="113.7852"/><line style="stroke:#000000;stroke-width:1.0;" x1="0" x2="1488.0679" y1="113.7852" y2="113.7852"/><line style="stroke:#000000;stroke-width:1.0;" x1="0" x2="1488.0679" y1="116.7852" y2="116.7852"/><rect fill="#EEEEEE" height="24.3516" style="stroke:#000000;stroke-width:2.0;" width="148.3799" x="669.844" y="102.6094"/><text fill="#000000" font-family="sans-serif" font-size="13" font-weight="bold" lengthAdjust="spacing" textLength="130.7681" x="675.844" y="120.1045">Melihat Transaksi DP</text><polygon fill="#181818" points="280.6089,155.3125,290.6089,159.3125,280.6089,163.3125,284.6089,159.3125" style="stroke:#181818;stroke-width:1.0;"/><line style="stroke:#181818;stroke-width:1.0;" x1="48.9482" x2="286.6089" y1="159.3125" y2="159.3125"/><text fill="#000000" font-family="sans-serif" font-size="13" lengthAdjust="spacing" textLength="146.5039" x="55.9482" y="154.4561">Filter status "Uang Muka"</text><polygon fill="#181818" points="562.73,185.6641,572.73,189.6641,562.73,193.6641,566.73,189.6641" style="stroke:#181818;stroke-width:1.0;"/><line style="stroke:#181818;stroke-width:1.0;" x1="292.6089" x2="568.73" y1="189.6641" y2="189.6641"/><text fill="#000000" font-family="sans-serif" font-size="13" lengthAdjust="spacing" textLength="258.1211" x="299.6089" y="184.8076">where('payment_status', 'Uang Muka')-&gt;get()</text><polygon fill="#181818" points="1261.667,216.0156,1271.667,220.0156,1261.667,224.0156,1265.667,220.0156" style="stroke:#181818;stroke-width:1.0;"/><line style="stroke:#181818;stroke-width:1.0;" x1="574.73" x2="1267.667" y1="220.0156" y2="220.0156"/><text fill="#000000" font-family="sans-serif" font-size="13" lengthAdjust="spacing" textLength="408.4717" x="581.73" y="215.1592">SELECT * FROM transactions WHERE payment_status = 'Uang Muka'</text><polygon fill="#181818" points="585.73,246.3672,575.73,250.3672,585.73,254.3672,581.73,250.3672" style="stroke:#181818;stroke-width:1.0;"/><line style="stroke:#181818;stroke-width:1.0;stroke-dasharray:2.0,2.0;" x1="579.73" x2="1272.667" y1="250.3672" y2="250.3672"/><text fill="#000000" font-family="sans-serif" font-size="13" lengthAdjust="spacing" textLength="91.7617" x="591.73" y="245.5107">DP transactions</text><polygon fill="#181818" points="303.6089,276.7188,293.6089,280.7188,303.6089,284.7188,299.6089,280.7188" style="stroke:#181818;stroke-width:1.0;"/><line style="stroke:#181818;stroke-width:1.0;stroke-dasharray:2.0,2.0;" x1="297.6089" x2="573.73" y1="280.7188" y2="280.7188"/><text fill="#000000" font-family="sans-serif" font-size="13" lengthAdjust="spacing" textLength="89.5908" x="309.6089" y="275.8623">transactions list</text><polygon fill="#181818" points="59.9482,307.0703,49.9482,311.0703,59.9482,315.0703,55.9482,311.0703" style="stroke:#181818;stroke-width:1.0;"/><line style="stroke:#181818;stroke-width:1.0;stroke-dasharray:2.0,2.0;" x1="53.9482" x2="291.6089" y1="311.0703" y2="311.0703"/><text fill="#000000" font-family="sans-serif" font-size="13" lengthAdjust="spacing" textLength="174.1226" x="65.9482" y="306.2139">Tampilkan daftar transaksi DP</text><rect fill="#EEEEEE" height="3" style="stroke:#EEEEEE;stroke-width:1.0;" width="1488.0679" x="0" y="340.2461"/><line style="stroke:#000000;stroke-width:1.0;" x1="0" x2="1488.0679" y1="340.2461" y2="340.2461"/><line style="stroke:#000000;stroke-width:1.0;" x1="0" x2="1488.0679" y1="343.2461" y2="343.2461"/><rect fill="#EEEEEE" height="24.3516" style="stroke:#000000;stroke-width:2.0;" width="223.4917" x="632.2881" y="329.0703"/><text fill="#000000" font-family="sans-serif" font-size="13" font-weight="bold" lengthAdjust="spacing" textLength="205.8799" x="638.2881" y="346.5654">Memilih Transaksi untuk Dilunasi</text><polygon fill="#181818" points="280.6089,381.7734,290.6089,385.7734,280.6089,389.7734,284.6089,385.7734" style="stroke:#181818;stroke-width:1.0;"/><line style="stroke:#181818;stroke-width:1.0;" x1="48.9482" x2="286.6089" y1="385.7734" y2="385.7734"/><text fill="#000000" font-family="sans-serif" font-size="13" lengthAdjust="spacing" textLength="80.1963" x="55.9482" y="380.917">Pilih transaksi</text><polygon fill="#181818" points="562.73,412.125,572.73,416.125,562.73,420.125,566.73,416.125" style="stroke:#181818;stroke-width:1.0;"/><line style="stroke:#181818;stroke-width:1.0;" x1="292.6089" x2="568.73" y1="416.125" y2="416.125"/><text fill="#000000" font-family="sans-serif" font-size="13" lengthAdjust="spacing" textLength="217.6294" x="299.6089" y="411.2686">find(id)-&gt;with(['payments', 'customer'])</text><polygon fill="#181818" points="1261.667,442.4766,1271.667,446.4766,1261.667,450.4766,1265.667,446.4766" style="stroke:#181818;stroke-width:1.0;"/><line style="stroke:#181818;stroke-width:1.0;" x1="574.73" x2="1267.667" y1="446.4766" y2="446.4766"/><text fill="#000000" font-family="sans-serif" font-size="13" lengthAdjust="spacing" textLength="132.2407" x="581.73" y="441.6201">SELECT dengan relasi</text><polygon fill="#181818" points="585.73,472.8281,575.73,476.8281,585.73,480.8281,581.73,476.8281" style="stroke:#181818;stroke-width:1.0;"/><line style="stroke:#181818;stroke-width:1.0;stroke-dasharray:2.0,2.0;" x1="579.73" x2="1272.667" y1="476.8281" y2="476.8281"/><text fill="#000000" font-family="sans-serif" font-size="13" lengthAdjust="spacing" textLength="92.5044" x="591.73" y="471.9717">transaction data</text><polygon fill="#181818" points="650.9263,503.1797,660.9263,507.1797,650.9263,511.1797,654.9263,507.1797" style="stroke:#181818;stroke-width:1.0;"/><line style="stroke:#181818;stroke-width:1.0;" x1="292.6089" x2="656.9263" y1="507.1797" y2="507.1797"/><text fill="#000000" font-family="sans-serif" font-size="13" lengthAdjust="spacing" textLength="272.5811" x="299.6089" y="502.3232">where('transaction_id', id)-&gt;sum('paid_amount')</text><polygon fill="#181818" points="1261.667,533.5313,1271.667,537.5313,1261.667,541.5313,1265.667,537.5313" style="stroke:#181818;stroke-width:1.0;"/><line style="stroke:#181818;stroke-width:1.0;" x1="662.9263" x2="1267.667" y1="537.5313" y2="537.5313"/><text fill="#000000" font-family="sans-serif" font-size="13" lengthAdjust="spacing" textLength="268.7534" x="669.9263" y="532.6748">SELECT SUM(paid_amount) FROM payments</text><polygon fill="#181818" points="673.9263,563.8828,663.9263,567.8828,673.9263,571.8828,669.9263,567.8828" style="stroke:#181818;stroke-width:1.0;"/><line style="stroke:#181818;stroke-width:1.0;stroke-dasharray:2.0,2.0;" x1="667.9263" x2="1272.667" y1="567.8828" y2="567.8828"/><text fill="#000000" font-family="sans-serif" font-size="13" lengthAdjust="spacing" textLength="52.7617" x="679.9263" y="563.0264">total paid</text><polygon fill="#181818" points="59.9482,613.5859,49.9482,617.5859,59.9482,621.5859,55.9482,617.5859" style="stroke:#181818;stroke-width:1.0;"/><line style="stroke:#181818;stroke-width:1.0;stroke-dasharray:2.0,2.0;" x1="53.9482" x2="291.6089" y1="617.5859" y2="617.5859"/><text fill="#000000" font-family="sans-serif" font-size="13" lengthAdjust="spacing" textLength="94.6563" x="65.9482" y="612.7295">Tampilkan detail</text><path d="M297,580.8828 L297,639.8828 L440,639.8828 L440,590.8828 L430,580.8828 L297,580.8828 " fill="#FEFFDD" style="stroke:#181818;stroke-width:0.5;"/><path d="M430,580.8828 L430,590.8828 L440,590.8828 L430,580.8828 " fill="#FEFFDD" style="stroke:#181818;stroke-width:0.5;"/><text fill="#000000" font-family="sans-serif" font-size="13" lengthAdjust="spacing" textLength="83.1035" x="303" y="599.3779">- Total tagihan</text><text fill="#000000" font-family="sans-serif" font-size="13" lengthAdjust="spacing" textLength="122.1099" x="303" y="615.7295">- Sudah dibayar (DP)</text><text fill="#000000" font-family="sans-serif" font-size="13" lengthAdjust="spacing" textLength="79.4917" x="303" y="632.0811">- Sisa tagihan</text><rect fill="#EEEEEE" height="3" style="stroke:#EEEEEE;stroke-width:1.0;" width="1488.0679" x="0" y="666.1133"/><line style="stroke:#000000;stroke-width:1.0;" x1="0" x2="1488.0679" y1="666.1133" y2="666.1133"/><line style="stroke:#000000;stroke-width:1.0;" x1="0" x2="1488.0679" y1="669.1133" y2="669.1133"/><rect fill="#EEEEEE" height="24.3516" style="stroke:#000000;stroke-width:2.0;" width="129.6099" x="679.229" y="654.9375"/><text fill="#000000" font-family="sans-serif" font-size="13" font-weight="bold" lengthAdjust="spacing" textLength="111.998" x="685.229" y="672.4326">Proses Pelunasan</text><polygon fill="#181818" points="280.6089,707.6406,290.6089,711.6406,280.6089,715.6406,284.6089,711.6406" style="stroke:#181818;stroke-width:1.0;"/><line style="stroke:#181818;stroke-width:1.0;" x1="48.9482" x2="286.6089" y1="711.6406" y2="711.6406"/><text fill="#000000" font-family="sans-serif" font-size="13" lengthAdjust="spacing" textLength="72.0967" x="55.9482" y="706.7842">Klik "Lunasi"</text><polygon fill="#181818" points="280.6089,737.9922,290.6089,741.9922,280.6089,745.9922,284.6089,741.9922" style="stroke:#181818;stroke-width:1.0;"/><line style="stroke:#181818;stroke-width:1.0;" x1="48.9482" x2="286.6089" y1="741.9922" y2="741.9922"/><text fill="#000000" font-family="sans-serif" font-size="13" lengthAdjust="spacing" textLength="147.418" x="55.9482" y="737.1357">Pilih metode pembayaran</text><path d="M10,756.9922 L70.1709,756.9922 L70.1709,765.3438 L60.1709,775.3438 L10,775.3438 L10,756.9922 " fill="#EEEEEE" style="stroke:#000000;stroke-width:1.5;"/><rect fill="none" height="442.2422" style="stroke:#000000;stroke-width:1.5;" width="1306.6323" x="10" y="756.9922"/><text fill="#000000" font-family="sans-serif" font-size="13" font-weight="bold" lengthAdjust="spacing" textLength="15.1709" x="25" y="771.4873">alt</text><text fill="#000000" font-family="sans-serif" font-size="11" font-weight="bold" lengthAdjust="spacing" textLength="105.1392" x="85.1709" y="770.4111">[Pembayaran Tunai]</text><polygon fill="#181818" points="280.6089,793.6953,290.6089,797.6953,280.6089,801.6953,284.6089,797.6953" style="stroke:#181818;stroke-width:1.0;"/><line style="stroke:#181818;stroke-width:1.0;" x1="48.9482" x2="286.6089" y1="797.6953" y2="797.6953"/><text fill="#000000" font-family="sans-serif" font-size="13" lengthAdjust="spacing" textLength="133.688" x="55.9482" y="792.8389">Masukkan jumlah uang</text><line style="stroke:#181818;stroke-width:1.0;" x1="292.6089" x2="334.6089" y1="828.0469" y2="828.0469"/><line style="stroke:#181818;stroke-width:1.0;" x1="334.6089" x2="334.6089" y1="828.0469" y2="841.0469"/><line style="stroke:#181818;stroke-width:1.0;" x1="293.6089" x2="334.6089" y1="841.0469" y2="841.0469"/><polygon fill="#181818" points="303.6089,837.0469,293.6089,841.0469,303.6089,845.0469,299.6089,841.0469" style="stroke:#181818;stroke-width:1.0;"/><text fill="#000000" font-family="sans-serif" font-size="13" lengthAdjust="spacing" textLength="87.4326" x="299.6089" y="823.1904">Validasi jumlah</text><path d="M20,856.0469 L80.1709,856.0469 L80.1709,864.3984 L70.1709,874.3984 L20,874.3984 L20,856.0469 " fill="#EEEEEE" style="stroke:#000000;stroke-width:1.5;"/><rect fill="none" height="138.2422" style="stroke:#000000;stroke-width:1.5;" width="392.0542" x="20" y="856.0469"/><text fill="#000000" font-family="sans-serif" font-size="13" font-weight="bold" lengthAdjust="spacing" textLength="15.1709" x="35" y="870.542">alt</text><text fill="#000000" font-family="sans-serif" font-size="11" font-weight="bold" lengthAdjust="spacing" textLength="74.5562" x="95.1709" y="869.4658">[Uang kurang]</text><polygon fill="#181818" points="59.9482,892.75,49.9482,896.75,59.9482,900.75,55.9482,896.75" style="stroke:#181818;stroke-width:1.0;"/><line style="stroke:#181818;stroke-width:1.0;stroke-dasharray:2.0,2.0;" x1="53.9482" x2="291.6089" y1="896.75" y2="896.75"/><text fill="#000000" font-family="sans-serif" font-size="13" lengthAdjust="spacing" textLength="219.6606" x="65.9482" y="891.8936">Error: Jumlah kurang dari sisa tagihan</text><line style="stroke:#000000;stroke-width:1.0;stroke-dasharray:2.0,2.0;" x1="20" x2="412.0542" y1="905.75" y2="905.75"/><text fill="#000000" font-family="sans-serif" font-size="11" font-weight="bold" lengthAdjust="spacing" textLength="70.2754" x="25" y="917.1689">[Uang cukup]</text><line style="stroke:#181818;stroke-width:1.0;" x1="292.6089" x2="334.6089" y1="942.9375" y2="942.9375"/><line style="stroke:#181818;stroke-width:1.0;" x1="334.6089" x2="334.6089" y1="942.9375" y2="955.9375"/><line style="stroke:#181818;stroke-width:1.0;" x1="293.6089" x2="334.6089" y1="955.9375" y2="955.9375"/><polygon fill="#181818" points="303.6089,951.9375,293.6089,955.9375,303.6089,959.9375,299.6089,955.9375" style="stroke:#181818;stroke-width:1.0;"/><text fill="#000000" font-family="sans-serif" font-size="13" lengthAdjust="spacing" textLength="100.4453" x="299.6089" y="938.0811">Hitung kembalian</text><polygon fill="#181818" points="59.9482,982.2891,49.9482,986.2891,59.9482,990.2891,55.9482,986.2891" style="stroke:#181818;stroke-width:1.0;"/><line style="stroke:#181818;stroke-width:1.0;stroke-dasharray:2.0,2.0;" x1="53.9482" x2="291.6089" y1="986.2891" y2="986.2891"/><text fill="#000000" font-family="sans-serif" font-size="13" lengthAdjust="spacing" textLength="122.8335" x="65.9482" y="981.4326">Tampilkan kembalian</text><line style="stroke:#000000;stroke-width:1.0;stroke-dasharray:2.0,2.0;" x1="10" x2="1316.6323" y1="1002.2891" y2="1002.2891"/><text fill="#000000" font-family="sans-serif" font-size="11" font-weight="bold" lengthAdjust="spacing" textLength="130.1846" x="15" y="1013.708">[Pembayaran Non-Tunai]</text><polygon fill="#181818" points="280.6089,1035.4766,290.6089,1039.4766,280.6089,1043.4766,284.6089,1039.4766" style="stroke:#181818;stroke-width:1.0;"/><line style="stroke:#181818;stroke-width:1.0;" x1="48.9482" x2="286.6089" y1="1039.4766" y2="1039.4766"/><text fill="#000000" font-family="sans-serif" font-size="13" lengthAdjust="spacing" textLength="149.5952" x="55.9482" y="1034.6201">Pilih channel pembayaran</text><polygon fill="#181818" points="756.25,1065.8281,766.25,1069.8281,756.25,1073.8281,760.25,1069.8281" style="stroke:#181818;stroke-width:1.0;"/><line style="stroke:#181818;stroke-width:1.0;" x1="292.6089" x2="762.25" y1="1069.8281" y2="1069.8281"/><text fill="#000000" font-family="sans-serif" font-size="13" lengthAdjust="spacing" textLength="167.8828" x="299.6089" y="1064.9717">where('is_active', true)-&gt;get()</text><polygon fill="#181818" points="1261.667,1096.1797,1271.667,1100.1797,1261.667,1104.1797,1265.667,1100.1797" style="stroke:#181818;stroke-width:1.0;"/><line style="stroke:#181818;stroke-width:1.0;" x1="768.25" x2="1267.667" y1="1100.1797" y2="1100.1797"/><text fill="#000000" font-family="sans-serif" font-size="13" lengthAdjust="spacing" textLength="213.8652" x="775.25" y="1095.3232">SELECT * FROM payment_channels</text><polygon fill="#181818" points="779.25,1126.5313,769.25,1130.5313,779.25,1134.5313,775.25,1130.5313" style="stroke:#181818;stroke-width:1.0;"/><line style="stroke:#181818;stroke-width:1.0;stroke-dasharray:2.0,2.0;" x1="773.25" x2="1272.667" y1="1130.5313" y2="1130.5313"/><text fill="#000000" font-family="sans-serif" font-size="13" lengthAdjust="spacing" textLength="71.5381" x="785.25" y="1125.6748">channels list</text><polygon fill="#181818" points="303.6089,1156.8828,293.6089,1160.8828,303.6089,1164.8828,299.6089,1160.8828" style="stroke:#181818;stroke-width:1.0;"/><line style="stroke:#181818;stroke-width:1.0;stroke-dasharray:2.0,2.0;" x1="297.6089" x2="767.25" y1="1160.8828" y2="1160.8828"/><text fill="#000000" font-family="sans-serif" font-size="13" lengthAdjust="spacing" textLength="106.9644" x="309.6089" y="1156.0264">available channels</text><polygon fill="#181818" points="280.6089,1187.2344,290.6089,1191.2344,280.6089,1195.2344,284.6089,1191.2344" style="stroke:#181818;stroke-width:1.0;"/><line style="stroke:#181818;stroke-width:1.0;" x1="48.9482" x2="286.6089" y1="1191.2344" y2="1191.2344"/><text fill="#000000" font-family="sans-serif" font-size="13" lengthAdjust="spacing" textLength="186.3989" x="55.9482" y="1186.3779">Pilih channel (QRIS/Transfer/dll)</text><polygon fill="#181818" points="280.6089,1224.5859,290.6089,1228.5859,280.6089,1232.5859,284.6089,1228.5859" style="stroke:#181818;stroke-width:1.0;"/><line style="stroke:#181818;stroke-width:1.0;" x1="48.9482" x2="286.6089" y1="1228.5859" y2="1228.5859"/><text fill="#000000" font-family="sans-serif" font-size="13" lengthAdjust="spacing" textLength="125.0171" x="55.9482" y="1223.7295">Konfirmasi pelunasan</text><rect fill="#EEEEEE" height="3" style="stroke:#EEEEEE;stroke-width:1.0;" width="1488.0679" x="0" y="1257.7617"/><line style="stroke:#000000;stroke-width:1.0;" x1="0" x2="1488.0679" y1="1257.7617" y2="1257.7617"/><line style="stroke:#000000;stroke-width:1.0;" x1="0" x2="1488.0679" y1="1260.7617" y2="1260.7617"/><rect fill="#EEEEEE" height="24.3516" style="stroke:#000000;stroke-width:2.0;" width="170.0571" x="659.0054" y="1246.5859"/><text fill="#000000" font-family="sans-serif" font-size="13" font-weight="bold" lengthAdjust="spacing" textLength="152.4453" x="665.0054" y="1264.0811">Menyimpan Pembayaran</text><polygon fill="#181818" points="650.9263,1318.6406,660.9263,1322.6406,650.9263,1326.6406,654.9263,1322.6406" style="stroke:#181818;stroke-width:1.0;"/><line style="stroke:#181818;stroke-width:1.0;" x1="292.6089" x2="656.9263" y1="1322.6406" y2="1322.6406"/><text fill="#000000" font-family="sans-serif" font-size="13" lengthAdjust="spacing" textLength="122.1099" x="299.6089" y="1317.7842">create(paymentData)</text><path d="M667,1285.9375 L667,1344.9375 L901,1344.9375 L901,1295.9375 L891,1285.9375 L667,1285.9375 " fill="#FEFFDD" style="stroke:#181818;stroke-width:0.5;"/><path d="M891,1285.9375 L891,1295.9375 L901,1295.9375 L891,1285.9375 " fill="#FEFFDD" style="stroke:#181818;stroke-width:0.5;"/><text fill="#000000" font-family="sans-serif" font-size="13" lengthAdjust="spacing" textLength="155.3906" x="673" y="1304.4326">paid_amount: sisa_tagihan</text><text fill="#000000" font-family="sans-serif" font-size="13" lengthAdjust="spacing" textLength="193.686" x="673" y="1320.7842">payment_method: tunai/non-tunai</text><text fill="#000000" font-family="sans-serif" font-size="13" lengthAdjust="spacing" textLength="213.186" x="673" y="1337.1357">payment_channel_id: (jika non-tunai)</text><polygon fill="#181818" points="1261.667,1368.3438,1271.667,1372.3438,1261.667,1376.3438,1265.667,1372.3438" style="stroke:#181818;stroke-width:1.0;"/><line style="stroke:#181818;stroke-width:1.0;" x1="662.9263" x2="1267.667" y1="1372.3438" y2="1372.3438"/><text fill="#000000" font-family="sans-serif" font-size="13" lengthAdjust="spacing" textLength="142.3081" x="669.9263" y="1367.4873">INSERT INTO payments</text><polygon fill="#181818" points="673.9263,1398.6953,663.9263,1402.6953,673.9263,1406.6953,669.9263,1402.6953" style="stroke:#181818;stroke-width:1.0;"/><line style="stroke:#181818;stroke-width:1.0;stroke-dasharray:2.0,2.0;" x1="667.9263" x2="1272.667" y1="1402.6953" y2="1402.6953"/><text fill="#000000" font-family="sans-serif" font-size="13" lengthAdjust="spacing" textLength="96.8335" x="679.9263" y="1397.8389">payment created</text><polygon fill="#181818" points="562.73,1429.0469,572.73,1433.0469,562.73,1437.0469,566.73,1433.0469" style="stroke:#181818;stroke-width:1.0;"/><line style="stroke:#181818;stroke-width:1.0;" x1="292.6089" x2="568.73" y1="1433.0469" y2="1433.0469"/><text fill="#000000" font-family="sans-serif" font-size="13" lengthAdjust="spacing" textLength="215.1729" x="299.6089" y="1428.1904">update(['payment_status' =&gt; 'Lunas'])</text><polygon fill="#181818" points="1261.667,1459.3984,1271.667,1463.3984,1261.667,1467.3984,1265.667,1463.3984" style="stroke:#181818;stroke-width:1.0;"/><line style="stroke:#181818;stroke-width:1.0;" x1="574.73" x2="1267.667" y1="1463.3984" y2="1463.3984"/><text fill="#000000" font-family="sans-serif" font-size="13" lengthAdjust="spacing" textLength="305.9126" x="581.73" y="1458.542">UPDATE transactions SET payment_status = 'Lunas'</text><polygon fill="#181818" points="585.73,1489.75,575.73,1493.75,585.73,1497.75,581.73,1493.75" style="stroke:#181818;stroke-width:1.0;"/><line style="stroke:#181818;stroke-width:1.0;stroke-dasharray:2.0,2.0;" x1="579.73" x2="1272.667" y1="1493.75" y2="1493.75"/><text fill="#000000" font-family="sans-serif" font-size="13" lengthAdjust="spacing" textLength="46.9917" x="591.73" y="1488.8936">updated</text><rect fill="#EEEEEE" height="3" style="stroke:#EEEEEE;stroke-width:1.0;" width="1488.0679" x="0" y="1522.9258"/><line style="stroke:#000000;stroke-width:1.0;" x1="0" x2="1488.0679" y1="1522.9258" y2="1522.9258"/><line style="stroke:#000000;stroke-width:1.0;" x1="0" x2="1488.0679" y1="1525.9258" y2="1525.9258"/><rect fill="#EEEEEE" height="24.3516" style="stroke:#000000;stroke-width:2.0;" width="186.6372" x="650.7153" y="1511.75"/><text fill="#000000" font-family="sans-serif" font-size="13" font-weight="bold" lengthAdjust="spacing" textLength="169.0254" x="656.7153" y="1529.2451">Menambah Poin Pelanggan</text><path d="M220.7437,1553.1016 L280.9146,1553.1016 L280.9146,1561.4531 L270.9146,1571.4531 L220.7437,1571.4531 L220.7437,1553.1016 " fill="#EEEEEE" style="stroke:#000000;stroke-width:1.5;"/><rect fill="none" height="368.9219" style="stroke:#000000;stroke-width:1.5;" width="1095.8887" x="220.7437" y="1553.1016"/><text fill="#000000" font-family="sans-serif" font-size="13" font-weight="bold" lengthAdjust="spacing" textLength="15.1709" x="235.7437" y="1567.5967">alt</text><text fill="#000000" font-family="sans-serif" font-size="11" font-weight="bold" lengthAdjust="spacing" textLength="110.6284" x="295.9146" y="1566.5205">[Pelanggan terdaftar]</text><polygon fill="#181818" points="562.73,1589.8047,572.73,1593.8047,562.73,1597.8047,566.73,1593.8047" style="stroke:#181818;stroke-width:1.0;"/><line style="stroke:#181818;stroke-width:1.0;" x1="292.6089" x2="568.73" y1="1593.8047" y2="1593.8047"/><text fill="#000000" font-family="sans-serif" font-size="13" lengthAdjust="spacing" textLength="92.4917" x="299.6089" y="1588.9482">get customer_id</text><polygon fill="#181818" points="303.6089,1620.1563,293.6089,1624.1563,303.6089,1628.1563,299.6089,1624.1563" style="stroke:#181818;stroke-width:1.0;"/><line style="stroke:#181818;stroke-width:1.0;stroke-dasharray:2.0,2.0;" x1="297.6089" x2="573.73" y1="1624.1563" y2="1624.1563"/><text fill="#000000" font-family="sans-serif" font-size="13" lengthAdjust="spacing" textLength="70.8081" x="309.6089" y="1619.2998">customer_id</text><line style="stroke:#181818;stroke-width:1.0;" x1="292.6089" x2="334.6089" y1="1659.1836" y2="1659.1836"/><line style="stroke:#181818;stroke-width:1.0;" x1="334.6089" x2="334.6089" y1="1659.1836" y2="1672.1836"/><line style="stroke:#181818;stroke-width:1.0;" x1="293.6089" x2="334.6089" y1="1672.1836" y2="1672.1836"/><polygon fill="#181818" points="303.6089,1668.1836,293.6089,1672.1836,303.6089,1676.1836,299.6089,1672.1836" style="stroke:#181818;stroke-width:1.0;"/><text fill="#000000" font-family="sans-serif" font-size="13" lengthAdjust="spacing" textLength="65.7681" x="299.6089" y="1654.3271">Hitung poin</text><path d="M376.7681,1637.1563 L376.7681,1679.1563 L602.7681,1679.1563 L602.7681,1647.1563 L592.7681,1637.1563 L376.7681,1637.1563 " fill="#FEFFDD" style="stroke:#181818;stroke-width:0.5;"/><path d="M592.7681,1637.1563 L592.7681,1647.1563 L602.7681,1647.1563 L592.7681,1637.1563 " fill="#FEFFDD" style="stroke:#181818;stroke-width:0.5;"/><text fill="#000000" font-family="sans-serif" font-size="13" lengthAdjust="spacing" textLength="205.6006" x="382.7681" y="1655.6514">points = floor(total_amount / 10000)</text><text fill="#000000" font-family="sans-serif" font-size="13" lengthAdjust="spacing" textLength="121.4243" x="382.7681" y="1672.0029">1 poin per Rp 10.000</text><polygon fill="#181818" points="864.291,1703.2109,874.291,1707.2109,864.291,1711.2109,868.291,1707.2109" style="stroke:#181818;stroke-width:1.0;"/><line style="stroke:#181818;stroke-width:1.0;" x1="292.6089" x2="870.291" y1="1707.2109" y2="1707.2109"/><text fill="#000000" font-family="sans-serif" font-size="13" lengthAdjust="spacing" textLength="195.0127" x="299.6089" y="1702.3545">increment('points', earned_points)</text><polygon fill="#181818" points="1261.667,1733.5625,1271.667,1737.5625,1261.667,1741.5625,1265.667,1737.5625" style="stroke:#181818;stroke-width:1.0;"/><line style="stroke:#181818;stroke-width:1.0;" x1="876.291" x2="1267.667" y1="1737.5625" y2="1737.5625"/><text fill="#000000" font-family="sans-serif" font-size="13" lengthAdjust="spacing" textLength="288.2979" x="883.291" y="1732.7061">UPDATE customers SET points = points + earned</text><polygon fill="#181818" points="887.291,1763.9141,877.291,1767.9141,887.291,1771.9141,883.291,1767.9141" style="stroke:#181818;stroke-width:1.0;"/><line style="stroke:#181818;stroke-width:1.0;stroke-dasharray:2.0,2.0;" x1="881.291" x2="1272.667" y1="1767.9141" y2="1767.9141"/><text fill="#000000" font-family="sans-serif" font-size="13" lengthAdjust="spacing" textLength="46.9917" x="893.291" y="1763.0576">updated</text><polygon fill="#181818" points="959.8667,1821.793,969.8667,1825.793,959.8667,1829.793,963.8667,1825.793" style="stroke:#181818;stroke-width:1.0;"/><line style="stroke:#181818;stroke-width:1.0;" x1="292.6089" x2="965.8667" y1="1825.793" y2="1825.793"/><text fill="#000000" font-family="sans-serif" font-size="13" lengthAdjust="spacing" textLength="119.9263" x="299.6089" y="1820.9365">create(pointsHistory)</text><path d="M976,1780.9141 L976,1855.9141 L1207,1855.9141 L1207,1790.9141 L1197,1780.9141 L976,1780.9141 " fill="#FEFFDD" style="stroke:#181818;stroke-width:0.5;"/><path d="M1197,1780.9141 L1197,1790.9141 L1207,1790.9141 L1197,1780.9141 " fill="#FEFFDD" style="stroke:#181818;stroke-width:0.5;"/><text fill="#000000" font-family="sans-serif" font-size="13" lengthAdjust="spacing" textLength="72.8965" x="982" y="1799.4092">action: 'earn'</text><text fill="#000000" font-family="sans-serif" font-size="13" lengthAdjust="spacing" textLength="131.9043" x="982" y="1815.7607">points: +earned_points</text><text fill="#000000" font-family="sans-serif" font-size="13" lengthAdjust="spacing" textLength="98.2808" x="982" y="1832.1123">transaction_id: id</text><text fill="#000000" font-family="sans-serif" font-size="13" lengthAdjust="spacing" textLength="210.9136" x="982" y="1848.4639">description: 'Pelunasan invoice #xxx'</text><polygon fill="#181818" points="1261.667,1879.6719,1271.667,1883.6719,1261.667,1887.6719,1265.667,1883.6719" style="stroke:#181818;stroke-width:1.0;"/><line style="stroke:#181818;stroke-width:1.0;" x1="971.8667" x2="1267.667" y1="1883.6719" y2="1883.6719"/><text fill="#000000" font-family="sans-serif" font-size="13" lengthAdjust="spacing" textLength="176.2744" x="978.8667" y="1878.8154">INSERT INTO points_histories</text><polygon fill="#181818" points="982.8667,1910.0234,972.8667,1914.0234,982.8667,1918.0234,978.8667,1914.0234" style="stroke:#181818;stroke-width:1.0;"/><line style="stroke:#181818;stroke-width:1.0;stroke-dasharray:2.0,2.0;" x1="976.8667" x2="1272.667" y1="1914.0234" y2="1914.0234"/><text fill="#000000" font-family="sans-serif" font-size="13" lengthAdjust="spacing" textLength="85.2617" x="988.8667" y="1909.167">history created</text><rect fill="#EEEEEE" height="3" style="stroke:#EEEEEE;stroke-width:1.0;" width="1488.0679" x="0" y="1950.1992"/><line style="stroke:#000000;stroke-width:1.0;" x1="0" x2="1488.0679" y1="1950.1992" y2="1950.1992"/><line style="stroke:#000000;stroke-width:1.0;" x1="0" x2="1488.0679" y1="1953.1992" y2="1953.1992"/><rect fill="#EEEEEE" height="24.3516" style="stroke:#000000;stroke-width:2.0;" width="112.9663" x="687.5508" y="1939.0234"/><text fill="#000000" font-family="sans-serif" font-size="13" font-weight="bold" lengthAdjust="spacing" textLength="95.3545" x="693.5508" y="1956.5186">Kirim Notifikasi</text><polygon fill="#181818" points="1083.0698,1991.7266,1093.0698,1995.7266,1083.0698,1999.7266,1087.0698,1995.7266" style="stroke:#181818;stroke-width:1.0;"/><line style="stroke:#181818;stroke-width:1.0;" x1="292.6089" x2="1089.0698" y1="1995.7266" y2="1995.7266"/><text fill="#000000" font-family="sans-serif" font-size="13" lengthAdjust="spacing" textLength="184.9771" x="299.6089" y="1990.8701">paymentCompleted(transaction)</text><polygon fill="#181818" points="1261.667,2033.2539,1271.667,2037.2539,1261.667,2041.2539,1265.667,2037.2539" style="stroke:#181818;stroke-width:1.0;"/><line style="stroke:#181818;stroke-width:1.0;" x1="1095.0698" x2="1267.667" y1="2037.2539" y2="2037.2539"/><text fill="#000000" font-family="sans-serif" font-size="13" lengthAdjust="spacing" textLength="154.5972" x="1102.0698" y="2032.3975">INSERT INTO notifications</text><path d="M1278,2008.7266 L1278,2050.7266 L1477,2050.7266 L1477,2018.7266 L1467,2008.7266 L1278,2008.7266 " fill="#FEFFDD" style="stroke:#181818;stroke-width:0.5;"/><path d="M1467,2008.7266 L1467,2018.7266 L1477,2018.7266 L1467,2008.7266 " fill="#FEFFDD" style="stroke:#181818;stroke-width:0.5;"/><text fill="#000000" font-family="sans-serif" font-size="13" lengthAdjust="spacing" textLength="144.4346" x="1284" y="2027.2217">title: 'Pelunasan Berhasil'</text><text fill="#000000" font-family="sans-serif" font-size="13" lengthAdjust="spacing" textLength="178.4009" x="1284" y="2043.5732">body: 'Invoice #xxx telah lunas'</text><polygon fill="#181818" points="59.9482,2091.1328,49.9482,2095.1328,59.9482,2099.1328,55.9482,2095.1328" style="stroke:#181818;stroke-width:1.0;"/><line style="stroke:#181818;stroke-width:1.0;stroke-dasharray:2.0,2.0;" x1="53.9482" x2="291.6089" y1="2095.1328" y2="2095.1328"/><text fill="#000000" font-family="sans-serif" font-size="13" lengthAdjust="spacing" textLength="114.188" x="65.9482" y="2073.9248">Pelunasan berhasil!</text><text fill="#000000" font-family="sans-serif" font-size="13" lengthAdjust="spacing" textLength="72.9727" x="65.9482" y="2090.2764">Cetak struk?</text><path d="M20,2110.1328 L80.1709,2110.1328 L80.1709,2118.4844 L70.1709,2128.4844 L20,2128.4844 L20,2110.1328 " fill="#EEEEEE" style="stroke:#000000;stroke-width:1.5;"/><rect fill="none" height="125.2422" style="stroke:#000000;stroke-width:1.5;" width="344.4741" x="20" y="2110.1328"/><text fill="#000000" font-family="sans-serif" font-size="13" font-weight="bold" lengthAdjust="spacing" textLength="15.1709" x="35" y="2124.6279">alt</text><text fill="#000000" font-family="sans-serif" font-size="11" font-weight="bold" lengthAdjust="spacing" textLength="68.46" x="95.1709" y="2123.5518">[Cetak Struk]</text><polygon fill="#181818" points="280.6089,2146.8359,290.6089,2150.8359,280.6089,2154.8359,284.6089,2150.8359" style="stroke:#181818;stroke-width:1.0;"/><line style="stroke:#181818;stroke-width:1.0;" x1="48.9482" x2="286.6089" y1="2150.8359" y2="2150.8359"/><text fill="#000000" font-family="sans-serif" font-size="13" lengthAdjust="spacing" textLength="54.1963" x="55.9482" y="2145.9795">Ya, cetak</text><polygon fill="#181818" points="59.9482,2177.1875,49.9482,2181.1875,59.9482,2185.1875,55.9482,2181.1875" style="stroke:#181818;stroke-width:1.0;"/><line style="stroke:#181818;stroke-width:1.0;stroke-dasharray:2.0,2.0;" x1="53.9482" x2="291.6089" y1="2181.1875" y2="2181.1875"/><text fill="#000000" font-family="sans-serif" font-size="13" lengthAdjust="spacing" textLength="127.1689" x="65.9482" y="2176.3311">Generate &amp; print struk</text><line style="stroke:#000000;stroke-width:1.0;stroke-dasharray:2.0,2.0;" x1="20" x2="364.4741" y1="2190.1875" y2="2190.1875"/><text fill="#000000" font-family="sans-serif" font-size="11" font-weight="bold" lengthAdjust="spacing" textLength="69.0723" x="25" y="2201.6064">[Tidak Cetak]</text><polygon fill="#181818" points="280.6089,2223.375,290.6089,2227.375,280.6089,2231.375,284.6089,2227.375" style="stroke:#181818;stroke-width:1.0;"/><line style="stroke:#181818;stroke-width:1.0;" x1="48.9482" x2="286.6089" y1="2227.375" y2="2227.375"/><text fill="#000000" font-family="sans-serif" font-size="13" lengthAdjust="spacing" textLength="31.7891" x="55.9482" y="2222.5186">Tidak</text><!--SRC=[XLPRRzis57xNhpZpW5bQcwLzDU0CI-mkNUBKYvqDGpCOZ4NRh2XAeAWa_lSxl4cYh7H-I6poExVlt4Ysgf1mGoecev98nRQi94B1Q2s9gCXMiKB0akpfeuXlsJDzOP8c8o2LENnJv54iYfHo0-mSX_WbEUPKg2xM7GtYhWv42CgxS7SKmg_gIXKvbG7GdVKK5qoewfhXdJm6RfYB47nNABPZMwBZM57vpBRKOCrvb195daX5OUQ_uDNiCegcKrXGpWv4EIAoYi5i2TDfP5Y7imj3vGG-CQweX4eHLLSmUY1Y3uiw8wD8tsjSXya9l1oefF6ujEHihDZuFOmRmN5oTh6dAawYRZ9Hp-no0glvxVng3J_3f_il2r0je8A_h-VtSmWLmxIhE9fTmbdV8GoggoOqsaGPME98VUJ2GuGXP09hafUCPqH0IdQAI2TZYNECvWmvxJ1Q2rLdC6Ey5gXaWDsb4MWq3NEwOoADMOgylJ1rYBzwTWslMrT3ut-_HsXAnHuzbvIZ_K6UEWo0BfkeySKLUfFR3dB3KlJ1k5RLkKuxIpSaBp3kSH8vmPuhguT5tC4bDjK-9EzROrGLYd3G0jzD2LM4yKWKYe9a-uEA0CvWRMGLsMEX2tEogbDoW9GzaIDcC9uj4tlCAjBWg4X1Ap8vNSgYejXwrAGGBPtcy8Qp34Qt9iMZuGJdL64NGqbpOnYDH8GhrEf_mnh56Ve2q5Em85MTwH2_rJb7tsiiTuCpVzeSQUnVXBDK5vh56eIsOreagwKNRILRBkTI5lZl3sl5Wh4G98EgIuuMfHm7YT6vhREwxAdqpbmpLMkpEaREdEYGvJQB8HRpO0CrzZfStHNYx4s-BE5REuAxZ7SzT1EwAMbMRNH1FrEiPYLhsemeBUJ0moFApoDdi38IheORA_xIJfP0P-CtUSO29a-SGg3g_qEC_xp_l3etlRoZyZpbFD4b79sKQI5sJEQwF4fVpMviYIFBSPrqESOoF-d_hQH4qTY5h5TA4dPSfwqdfcmsRTbueh0L3aMAVQqJU2umbSgbiaSbpfO9nDzOHg119MrpzeRBvxlL_7wD_zPVtfubxi85aaR3uxOkKntcr_uIW-a5Z4sRlp5h7vQptzRpS9Uivkk1dMMr3CvXQptrcI6OaOFP_7e6OS_jRNBi-F07kA7jKWggFD2BzGn-Lo2r1ZYy2_kewCtUBj4jSnjKWVwKvgc2eUvuKSZO375N6N0E7p_W9t7GZmQCDIdXliIhN_3EzxzDzOaJ_jqq0IOmbvfSt3t693Om9LBGT6D_knPs0hrC-KXTchpFxiixfobewSQopzCfGqQwxPRkQouPPildQAmDZWCA9_0kYCTTXZiOUKZTHKghhMIbqzUkBIQU2tmRme-lhw_ZKtgjquFDP6us1nC0ey60yw7QosFJLsRyOFtUCCbo-nJ5DhOF84-JEMrQygh8IqvHDkv4baG6DEILw3nxgt08AQOu3MA_fFA0rhcE-wb8ZtZvkKC7TezUUTpsPBlz-tkgLVZa5FxmAAxmuP7XwrZMsQzsgTkJbJuP6jx_aFUmrP1eQ1V-JWMLo27y1AL4Sgrckm7NkDipgtv8iRasrFy7]--></g></svg>