<svg xmlns="http://www.w3.org/2000/svg" xmlns:xlink="http://www.w3.org/1999/xlink" contentStyleType="text/css" height="576px" preserveAspectRatio="none" style="width:846px;height:576px;background:#FFFFFF;" version="1.1" viewBox="0 0 846 576" width="846px" zoomAndPan="magnify"><title>Sequence Diagram</title><defs/><g><text fill="#000000" font-family="sans-serif" font-size="14" font-weight="bold" lengthAdjust="spacing" textLength="126.0479" x="361.865" y="29.5332">Sequence Diagram</text><text fill="#000000" font-family="sans-serif" font-size="14" font-weight="bold" lengthAdjust="spacing" textLength="98.7998" x="375.489" y="47.1426">Proses Refund</text><rect fill="none" height="48.7031" style="stroke:#000000;stroke-width:1.5;" width="518.6279" x="322.1499" y="337.9375"/><line style="stroke:#181818;stroke-width:0.5;stroke-dasharray:5.0,5.0;" x1="23" x2="23" y1="138.8281" y2="494.6953"/><line style="stroke:#181818;stroke-width:0.5;stroke-dasharray:5.0,5.0;" x1="192.3442" x2="192.3442" y1="138.8281" y2="494.6953"/><line style="stroke:#181818;stroke-width:0.5;stroke-dasharray:5.0,5.0;" x1="391.1499" x2="391.1499" y1="138.8281" y2="494.6953"/><line style="stroke:#181818;stroke-width:0.5;stroke-dasharray:5.0,5.0;" x1="603.2202" x2="603.2202" y1="138.8281" y2="494.6953"/><line style="stroke:#181818;stroke-width:0.5;stroke-dasharray:5.0,5.0;" x1="707.3647" x2="707.3647" y1="138.8281" y2="494.6953"/><line style="stroke:#181818;stroke-width:0.5;stroke-dasharray:5.0,5.0;" x1="799.5298" x2="799.5298" y1="138.8281" y2="494.6953"/><text fill="#000000" font-family="sans-serif" font-size="14" lengthAdjust="spacing" textLength="31.8965" x="5" y="135.752">Kasir</text><ellipse cx="23.9482" cy="69.7188" fill="#E2E2F0" rx="8" ry="8" style="stroke:#181818;stroke-width:0.5;"/><path d="M23.9482,77.7188 L23.9482,104.7188 M10.9482,85.7188 L36.9482,85.7188 M23.9482,104.7188 L10.9482,119.7188 M23.9482,104.7188 L36.9482,119.7188 " fill="none" style="stroke:#181818;stroke-width:0.5;"/><text fill="#000000" font-family="sans-serif" font-size="14" lengthAdjust="spacing" textLength="31.8965" x="5" y="508.2285">Kasir</text><ellipse cx="23.9482" cy="519.8047" fill="#E2E2F0" rx="8" ry="8" style="stroke:#181818;stroke-width:0.5;"/><path d="M23.9482,527.8047 L23.9482,554.8047 M10.9482,535.8047 L36.9482,535.8047 M23.9482,554.8047 L10.9482,569.8047 M23.9482,554.8047 L36.9482,569.8047 " fill="none" style="stroke:#181818;stroke-width:0.5;"/><rect fill="#E2E2F0" height="31.6094" rx="2.5" ry="2.5" style="stroke:#181818;stroke-width:0.5;" width="90.2549" x="147.3442" y="106.2188"/><text fill="#000000" font-family="sans-serif" font-size="14" lengthAdjust="spacing" textLength="76.2549" x="154.3442" y="127.752">HistoryPage</text><rect fill="#E2E2F0" height="31.6094" rx="2.5" ry="2.5" style="stroke:#181818;stroke-width:0.5;" width="90.2549" x="147.3442" y="493.6953"/><text fill="#000000" font-family="sans-serif" font-size="14" lengthAdjust="spacing" textLength="76.2549" x="154.3442" y="515.2285">HistoryPage</text><rect fill="#E2E2F0" height="31.6094" rx="2.5" ry="2.5" style="stroke:#181818;stroke-width:0.5;" width="119.834" x="332.1499" y="106.2188"/><text fill="#000000" font-family="sans-serif" font-size="14" lengthAdjust="spacing" textLength="105.834" x="339.1499" y="127.752">RefundController</text><rect fill="#E2E2F0" height="31.6094" rx="2.5" ry="2.5" style="stroke:#181818;stroke-width:0.5;" width="119.834" x="332.1499" y="493.6953"/><text fill="#000000" font-family="sans-serif" font-size="14" lengthAdjust="spacing" textLength="105.834" x="339.1499" y="515.2285">RefundController</text><rect fill="#E2E2F0" height="31.6094" rx="2.5" ry="2.5" style="stroke:#181818;stroke-width:0.5;" width="87.1445" x="560.2202" y="106.2188"/><text fill="#000000" font-family="sans-serif" font-size="14" lengthAdjust="spacing" textLength="73.1445" x="567.2202" y="127.752">Transaction</text><rect fill="#E2E2F0" height="31.6094" rx="2.5" ry="2.5" style="stroke:#181818;stroke-width:0.5;" width="87.1445" x="560.2202" y="493.6953"/><text fill="#000000" font-family="sans-serif" font-size="14" lengthAdjust="spacing" textLength="73.1445" x="567.2202" y="515.2285">Transaction</text><rect fill="#E2E2F0" height="31.6094" rx="2.5" ry="2.5" style="stroke:#181818;stroke-width:0.5;" width="101.165" x="657.3647" y="106.2188"/><text fill="#000000" font-family="sans-serif" font-size="14" lengthAdjust="spacing" textLength="87.165" x="664.3647" y="127.752">Refund Model</text><rect fill="#E2E2F0" height="31.6094" rx="2.5" ry="2.5" style="stroke:#181818;stroke-width:0.5;" width="101.165" x="657.3647" y="493.6953"/><text fill="#000000" font-family="sans-serif" font-size="14" lengthAdjust="spacing" textLength="87.165" x="664.3647" y="515.2285">Refund Model</text><rect fill="#E2E2F0" height="31.6094" rx="2.5" ry="2.5" style="stroke:#181818;stroke-width:0.5;" width="62.248" x="768.5298" y="106.2188"/><text fill="#000000" font-family="sans-serif" font-size="14" lengthAdjust="spacing" textLength="48.248" x="775.5298" y="127.752">Product</text><rect fill="#E2E2F0" height="31.6094" rx="2.5" ry="2.5" style="stroke:#181818;stroke-width:0.5;" width="62.248" x="768.5298" y="493.6953"/><text fill="#000000" font-family="sans-serif" font-size="14" lengthAdjust="spacing" textLength="48.248" x="775.5298" y="515.2285">Product</text><polygon fill="#181818" points="180.4717,167.1797,190.4717,171.1797,180.4717,175.1797,184.4717,171.1797" style="stroke:#181818;stroke-width:1.0;"/><line style="stroke:#181818;stroke-width:1.0;" x1="23.9482" x2="186.4717" y1="171.1797" y2="171.1797"/><text fill="#000000" font-family="sans-serif" font-size="13" lengthAdjust="spacing" textLength="114.8862" x="50.7668" y="166.3232">Pilih transaksi lunas</text><polygon fill="#181818" points="380.0669,197.5313,390.0669,201.5313,380.0669,205.5313,384.0669,201.5313" style="stroke:#181818;stroke-width:1.0;"/><line style="stroke:#181818;stroke-width:1.0;" x1="192.4717" x2="386.0669" y1="201.5313" y2="201.5313"/><text fill="#000000" font-family="sans-serif" font-size="13" lengthAdjust="spacing" textLength="175.5952" x="204.4717" y="196.6748">cancelRequest(transaction_id)</text><polygon fill="#181818" points="591.7925,227.8828,601.7925,231.8828,591.7925,235.8828,595.7925,231.8828" style="stroke:#181818;stroke-width:1.0;"/><line style="stroke:#181818;stroke-width:1.0;" x1="392.0669" x2="597.7925" y1="231.8828" y2="231.8828"/><text fill="#000000" font-family="sans-serif" font-size="13" lengthAdjust="spacing" textLength="79.4727" x="458.1934" y="227.0264">checkStatus()</text><polygon fill="#181818" points="180.4717,258.2344,190.4717,262.2344,180.4717,266.2344,184.4717,262.2344" style="stroke:#181818;stroke-width:1.0;"/><line style="stroke:#181818;stroke-width:1.0;" x1="23.9482" x2="186.4717" y1="262.2344" y2="262.2344"/><text fill="#000000" font-family="sans-serif" font-size="13" lengthAdjust="spacing" textLength="144.5234" x="35.9482" y="257.3779">Masukkan alasan &amp; bukti</text><polygon fill="#181818" points="380.0669,288.5859,390.0669,292.5859,380.0669,296.5859,384.0669,292.5859" style="stroke:#181818;stroke-width:1.0;"/><line style="stroke:#181818;stroke-width:1.0;" x1="192.4717" x2="386.0669" y1="292.5859" y2="292.5859"/><text fill="#000000" font-family="sans-serif" font-size="13" lengthAdjust="spacing" textLength="121.3989" x="231.5698" y="287.7295">processRefund(data)</text><polygon fill="#181818" points="695.9473,318.9375,705.9473,322.9375,695.9473,326.9375,699.9473,322.9375" style="stroke:#181818;stroke-width:1.0;"/><line style="stroke:#181818;stroke-width:1.0;" x1="392.0669" x2="701.9473" y1="322.9375" y2="322.9375"/><text fill="#000000" font-family="sans-serif" font-size="13" lengthAdjust="spacing" textLength="70.0908" x="514.9617" y="318.0811">create(data)</text><path d="M322.1499,337.9375 L394.5845,337.9375 L394.5845,346.2891 L384.5845,356.2891 L322.1499,356.2891 L322.1499,337.9375 " fill="#EEEEEE" style="stroke:#000000;stroke-width:1.5;"/><rect fill="none" height="48.7031" style="stroke:#000000;stroke-width:1.5;" width="518.6279" x="322.1499" y="337.9375"/><text fill="#000000" font-family="sans-serif" font-size="13" font-weight="bold" lengthAdjust="spacing" textLength="27.4346" x="337.1499" y="352.4326">loop</text><text fill="#000000" font-family="sans-serif" font-size="11" font-weight="bold" lengthAdjust="spacing" textLength="133.2407" x="409.5845" y="351.3564">[Untuk Setiap Item Detail]</text><polygon fill="#181818" points="787.6538,374.6406,797.6538,378.6406,787.6538,382.6406,791.6538,378.6406" style="stroke:#181818;stroke-width:1.0;"/><line style="stroke:#181818;stroke-width:1.0;" x1="392.0669" x2="793.6538" y1="378.6406" y2="378.6406"/><text fill="#000000" font-family="sans-serif" font-size="13" lengthAdjust="spacing" textLength="80.2026" x="555.759" y="373.7842">addStock(qty)</text><polygon fill="#181818" points="591.7925,411.9922,601.7925,415.9922,591.7925,419.9922,595.7925,415.9922" style="stroke:#181818;stroke-width:1.0;"/><line style="stroke:#181818;stroke-width:1.0;" x1="392.0669" x2="597.7925" y1="415.9922" y2="415.9922"/><text fill="#000000" font-family="sans-serif" font-size="13" lengthAdjust="spacing" textLength="155.9302" x="419.9646" y="411.1357">updateStatus("Dibatalkan")</text><polygon fill="#181818" points="591.7925,442.3438,601.7925,446.3438,591.7925,450.3438,595.7925,446.3438" style="stroke:#181818;stroke-width:1.0;"/><line style="stroke:#181818;stroke-width:1.0;" x1="392.0669" x2="597.7925" y1="446.3438" y2="446.3438"/><text fill="#000000" font-family="sans-serif" font-size="13" lengthAdjust="spacing" textLength="187.7256" x="404.0669" y="441.4873">updatePaymentStatus("Refund")</text><polygon fill="#181818" points="203.4717,472.6953,193.4717,476.6953,203.4717,480.6953,199.4717,476.6953" style="stroke:#181818;stroke-width:1.0;"/><line style="stroke:#181818;stroke-width:1.0;stroke-dasharray:2.0,2.0;" x1="197.4717" x2="391.0669" y1="476.6953" y2="476.6953"/><text fill="#000000" font-family="sans-serif" font-size="13" lengthAdjust="spacing" textLength="88.1372" x="248.2007" y="471.8389">showSuccess()</text><!--SRC=[RPBBQiD034NtynN2Yv8i-WDT54goQ2a6uwIxGb77QY8ycN576ah-ll8ZzEcDmJgwzqgoz1m7p7W2eVT2qLDD8dYWky2729wYKdPEMGF1Ra5WotYmdkVOv2GaqD9RYPrpw3Lbg1vHE5U00XkK8vk0MIXx7Z0gLFSiXfqRSvcW- -PdVLRRfAWvXK2pKhlv2UqpHZ4_Jd6gx-l_HA1E7OLPu1TWqRlYTQerjNDBLBY-jK1m0mq7Fe9EDhqmX19Hd9KCQ3S6UBHLX7RSYUXAl_AySBTsXXYuhqVmIBxVAMgHrVglKOrI-XuZO42nrnMybbxvkzMGaxUpp3EjEbIy6BIJGIPKMhwxaD80Jr5BRmTJnW4Ub4wm9KKE3koPMvkn5RjkfydtgtSzhnsDH_oMl0ocIKlqQiklvX0iQhN-IpLuFjdVSe7dh0ju6LMEwMDN_3YBRU8J]--></g></svg>