<svg xmlns="http://www.w3.org/2000/svg" xmlns:xlink="http://www.w3.org/1999/xlink" contentStyleType="text/css" height="455px" preserveAspectRatio="none" style="width:593px;height:455px;background:#FFFFFF;" version="1.1" viewBox="0 0 593 455" width="593px" zoomAndPan="magnify"><title>Sequence Diagram</title><defs/><g><text fill="#000000" font-family="sans-serif" font-size="14" font-weight="bold" lengthAdjust="spacing" textLength="126.0479" x="235.0361" y="29.5332">Sequence Diagram</text><text fill="#000000" font-family="sans-serif" font-size="14" font-weight="bold" lengthAdjust="spacing" textLength="162.5928" x="216.7637" y="47.1426">Pengaturan Profil Usaha</text><rect fill="none" height="79.0547" style="stroke:#000000;stroke-width:1.5;" width="304.5508" x="282.5693" y="216.5313"/><line style="stroke:#181818;stroke-width:0.5;stroke-dasharray:5.0,5.0;" x1="27" x2="27" y1="138.8281" y2="373.2891"/><line style="stroke:#181818;stroke-width:0.5;stroke-dasharray:5.0,5.0;" x1="214.9961" x2="214.9961" y1="138.8281" y2="373.2891"/><line style="stroke:#181818;stroke-width:0.5;stroke-dasharray:5.0,5.0;" x1="349.5693" x2="349.5693" y1="138.8281" y2="373.2891"/><line style="stroke:#181818;stroke-width:0.5;stroke-dasharray:5.0,5.0;" x1="459.9414" x2="459.9414" y1="138.8281" y2="373.2891"/><line style="stroke:#181818;stroke-width:0.5;stroke-dasharray:5.0,5.0;" x1="545.0859" x2="545.0859" y1="138.8281" y2="373.2891"/><text fill="#000000" font-family="sans-serif" font-size="14" lengthAdjust="spacing" textLength="39.6826" x="5" y="135.752">Admin</text><ellipse cx="27.8413" cy="69.7188" fill="#E2E2F0" rx="8" ry="8" style="stroke:#181818;stroke-width:0.5;"/><path d="M27.8413,77.7188 L27.8413,104.7188 M14.8413,85.7188 L40.8413,85.7188 M27.8413,104.7188 L14.8413,119.7188 M27.8413,104.7188 L40.8413,119.7188 " fill="none" style="stroke:#181818;stroke-width:0.5;"/><text fill="#000000" font-family="sans-serif" font-size="14" lengthAdjust="spacing" textLength="39.6826" x="5" y="386.8223">Admin</text><ellipse cx="27.8413" cy="398.3984" fill="#E2E2F0" rx="8" ry="8" style="stroke:#181818;stroke-width:0.5;"/><path d="M27.8413,406.3984 L27.8413,433.3984 M14.8413,414.3984 L40.8413,414.3984 M27.8413,433.3984 L14.8413,448.3984 M27.8413,433.3984 L40.8413,448.3984 " fill="none" style="stroke:#181818;stroke-width:0.5;"/><rect fill="#E2E2F0" height="31.6094" rx="2.5" ry="2.5" style="stroke:#181818;stroke-width:0.5;" width="86.3789" x="171.9961" y="106.2188"/><text fill="#000000" font-family="sans-serif" font-size="14" lengthAdjust="spacing" textLength="72.3789" x="178.9961" y="127.752">ProfilePage</text><rect fill="#E2E2F0" height="31.6094" rx="2.5" ry="2.5" style="stroke:#181818;stroke-width:0.5;" width="86.3789" x="171.9961" y="372.2891"/><text fill="#000000" font-family="sans-serif" font-size="14" lengthAdjust="spacing" textLength="72.3789" x="178.9961" y="393.8223">ProfilePage</text><rect fill="#E2E2F0" height="31.6094" rx="2.5" ry="2.5" style="stroke:#181818;stroke-width:0.5;" width="114.3721" x="292.5693" y="106.2188"/><text fill="#000000" font-family="sans-serif" font-size="14" lengthAdjust="spacing" textLength="100.3721" x="299.5693" y="127.752">ProfileController</text><rect fill="#E2E2F0" height="31.6094" rx="2.5" ry="2.5" style="stroke:#181818;stroke-width:0.5;" width="114.3721" x="292.5693" y="372.2891"/><text fill="#000000" font-family="sans-serif" font-size="14" lengthAdjust="spacing" textLength="100.3721" x="299.5693" y="393.8223">ProfileController</text><rect fill="#E2E2F0" height="31.6094" rx="2.5" ry="2.5" style="stroke:#181818;stroke-width:0.5;" width="87.1445" x="416.9414" y="106.2188"/><text fill="#000000" font-family="sans-serif" font-size="14" lengthAdjust="spacing" textLength="73.1445" x="423.9414" y="127.752">StoreProfile</text><rect fill="#E2E2F0" height="31.6094" rx="2.5" ry="2.5" style="stroke:#181818;stroke-width:0.5;" width="87.1445" x="416.9414" y="372.2891"/><text fill="#000000" font-family="sans-serif" font-size="14" lengthAdjust="spacing" textLength="73.1445" x="423.9414" y="393.8223">StoreProfile</text><rect fill="#E2E2F0" height="31.6094" rx="2.5" ry="2.5" style="stroke:#181818;stroke-width:0.5;" width="63.0342" x="514.0859" y="106.2188"/><text fill="#000000" font-family="sans-serif" font-size="14" lengthAdjust="spacing" textLength="49.0342" x="521.0859" y="127.752">Storage</text><rect fill="#E2E2F0" height="31.6094" rx="2.5" ry="2.5" style="stroke:#181818;stroke-width:0.5;" width="63.0342" x="514.0859" y="372.2891"/><text fill="#000000" font-family="sans-serif" font-size="14" lengthAdjust="spacing" textLength="49.0342" x="521.0859" y="393.8223">Storage</text><polygon fill="#181818" points="203.1855,167.1797,213.1855,171.1797,203.1855,175.1797,207.1855,171.1797" style="stroke:#181818;stroke-width:1.0;"/><line style="stroke:#181818;stroke-width:1.0;" x1="27.8413" x2="209.1855" y1="171.1797" y2="171.1797"/><text fill="#000000" font-family="sans-serif" font-size="13" lengthAdjust="spacing" textLength="163.3442" x="39.8413" y="166.3232">Mengubah data usaha(data)</text><polygon fill="#181818" points="337.7554,197.5313,347.7554,201.5313,337.7554,205.5313,341.7554,201.5313" style="stroke:#181818;stroke-width:1.0;"/><line style="stroke:#181818;stroke-width:1.0;" x1="215.1855" x2="343.7554" y1="201.5313" y2="201.5313"/><text fill="#000000" font-family="sans-serif" font-size="13" lengthAdjust="spacing" textLength="110.5698" x="227.1855" y="196.6748">updateProfile(data)</text><path d="M282.5693,216.5313 L342.7402,216.5313 L342.7402,224.8828 L332.7402,234.8828 L282.5693,234.8828 L282.5693,216.5313 " fill="#EEEEEE" style="stroke:#000000;stroke-width:1.5;"/><rect fill="none" height="79.0547" style="stroke:#000000;stroke-width:1.5;" width="304.5508" x="282.5693" y="216.5313"/><text fill="#000000" font-family="sans-serif" font-size="13" font-weight="bold" lengthAdjust="spacing" textLength="15.1709" x="297.5693" y="231.0264">alt</text><text fill="#000000" font-family="sans-serif" font-size="11" font-weight="bold" lengthAdjust="spacing" textLength="105.7139" x="357.7402" y="229.9502">[Ubah Logo/Banner]</text><polygon fill="#181818" points="533.603,253.2344,543.603,257.2344,533.603,261.2344,537.603,257.2344" style="stroke:#181818;stroke-width:1.0;"/><line style="stroke:#181818;stroke-width:1.0;" x1="349.7554" x2="539.603" y1="257.2344" y2="257.2344"/><text fill="#000000" font-family="sans-serif" font-size="13" lengthAdjust="spacing" textLength="104.0508" x="395.6538" y="252.3779">uploadFile(image)</text><polygon fill="#181818" points="360.7554,283.5859,350.7554,287.5859,360.7554,291.5859,356.7554,287.5859" style="stroke:#181818;stroke-width:1.0;"/><line style="stroke:#181818;stroke-width:1.0;stroke-dasharray:2.0,2.0;" x1="354.7554" x2="544.603" y1="287.5859" y2="287.5859"/><text fill="#000000" font-family="sans-serif" font-size="13" lengthAdjust="spacing" textLength="43.3608" x="425.9988" y="282.7295">filePath</text><polygon fill="#181818" points="448.5137,320.9375,458.5137,324.9375,448.5137,328.9375,452.5137,324.9375" style="stroke:#181818;stroke-width:1.0;"/><line style="stroke:#181818;stroke-width:1.0;" x1="349.7554" x2="454.5137" y1="324.9375" y2="324.9375"/><text fill="#000000" font-family="sans-serif" font-size="13" lengthAdjust="spacing" textLength="73.7217" x="368.2737" y="320.0811">update(data)</text><polygon fill="#181818" points="226.1855,351.2891,216.1855,355.2891,226.1855,359.2891,222.1855,355.2891" style="stroke:#181818;stroke-width:1.0;"/><line style="stroke:#181818;stroke-width:1.0;stroke-dasharray:2.0,2.0;" x1="220.1855" x2="348.7554" y1="355.2891" y2="355.2891"/><text fill="#000000" font-family="sans-serif" font-size="13" lengthAdjust="spacing" textLength="88.1372" x="238.4019" y="350.4326">showSuccess()</text><!--SRC=[RP6nJiGm38PtFuLrqtKuiJCW7KLCd1GfTnkBIKqRaJebISNhuwOj4e9EKV_lo-ya-SFBH8b6pFmvipY-SCxKypduNj2n54u0nPV0Q3S4dpprwhoAOUcfp8a4JOhlFk0jqq00v4fCU3XtevS3KiQw0gqgtlc9fE1XDTXeMqMC-JTlevGKG-2qKkrloceHRsW5hFaBx1Ns2b0dmTE3zk4zNlG4yniDs54Xd9VfZyko0OqNg5LedlJNNhB5GA7WRJ5VOX_l7ab4RmhrKqL5UwrYYDGzBvOVTOYc0XgTzgtN6oW3i7G0csf-ElTPsjLOWZp4Bpixf-zqRE0R]--></g></svg>