<svg xmlns="http://www.w3.org/2000/svg" xmlns:xlink="http://www.w3.org/1999/xlink" contentStyleType="text/css" height="635px" preserveAspectRatio="none" style="width:704px;height:635px;background:#FFFFFF;" version="1.1" viewBox="0 0 704 635" width="704px" zoomAndPan="magnify"><title>Sequence Diagram</title><defs/><g><text fill="#000000" font-family="sans-serif" font-size="14" font-weight="bold" lengthAdjust="spacing" textLength="126.0479" x="290.4268" y="29.5332">Sequence Diagram</text><text fill="#000000" font-family="sans-serif" font-size="14" font-weight="bold" lengthAdjust="spacing" textLength="111.2412" x="297.8301" y="47.1426">Manajemen Shift</text><rect fill="none" height="381.0547" style="stroke:#000000;stroke-width:1.5;" width="687.9014" x="10" y="155.8281"/><line style="stroke:#181818;stroke-width:0.5;stroke-dasharray:5.0,5.0;" x1="38" x2="38" y1="138.8281" y2="553.8828"/><line style="stroke:#181818;stroke-width:0.5;stroke-dasharray:5.0,5.0;" x1="197.7095" x2="197.7095" y1="138.8281" y2="553.8828"/><line style="stroke:#181818;stroke-width:0.5;stroke-dasharray:5.0,5.0;" x1="354.6772" x2="354.6772" y1="138.8281" y2="553.8828"/><line style="stroke:#181818;stroke-width:0.5;stroke-dasharray:5.0,5.0;" x1="645.8672" x2="645.8672" y1="138.8281" y2="553.8828"/><text fill="#000000" font-family="sans-serif" font-size="14" lengthAdjust="spacing" textLength="31.8965" x="20" y="135.752">Kasir</text><ellipse cx="38.9482" cy="69.7188" fill="#E2E2F0" rx="8" ry="8" style="stroke:#181818;stroke-width:0.5;"/><path d="M38.9482,77.7188 L38.9482,104.7188 M25.9482,85.7188 L51.9482,85.7188 M38.9482,104.7188 L25.9482,119.7188 M38.9482,104.7188 L51.9482,119.7188 " fill="none" style="stroke:#181818;stroke-width:0.5;"/><text fill="#000000" font-family="sans-serif" font-size="14" lengthAdjust="spacing" textLength="31.8965" x="20" y="567.416">Kasir</text><ellipse cx="38.9482" cy="578.9922" fill="#E2E2F0" rx="8" ry="8" style="stroke:#181818;stroke-width:0.5;"/><path d="M38.9482,586.9922 L38.9482,613.9922 M25.9482,594.9922 L51.9482,594.9922 M38.9482,613.9922 L25.9482,628.9922 M38.9482,613.9922 L51.9482,628.9922 " fill="none" style="stroke:#181818;stroke-width:0.5;"/><rect fill="#E2E2F0" height="31.6094" rx="2.5" ry="2.5" style="stroke:#181818;stroke-width:0.5;" width="74.71" x="160.7095" y="106.2188"/><text fill="#000000" font-family="sans-serif" font-size="14" lengthAdjust="spacing" textLength="60.71" x="167.7095" y="127.752">ShiftPage</text><rect fill="#E2E2F0" height="31.6094" rx="2.5" ry="2.5" style="stroke:#181818;stroke-width:0.5;" width="74.71" x="160.7095" y="552.8828"/><text fill="#000000" font-family="sans-serif" font-size="14" lengthAdjust="spacing" textLength="60.71" x="167.7095" y="574.416">ShiftPage</text><rect fill="#E2E2F0" height="31.6094" rx="2.5" ry="2.5" style="stroke:#181818;stroke-width:0.5;" width="102.7031" x="303.6772" y="106.2188"/><text fill="#000000" font-family="sans-serif" font-size="14" lengthAdjust="spacing" textLength="88.7031" x="310.6772" y="127.752">ShiftController</text><rect fill="#E2E2F0" height="31.6094" rx="2.5" ry="2.5" style="stroke:#181818;stroke-width:0.5;" width="102.7031" x="303.6772" y="552.8828"/><text fill="#000000" font-family="sans-serif" font-size="14" lengthAdjust="spacing" textLength="88.7031" x="310.6772" y="574.416">ShiftController</text><rect fill="#E2E2F0" height="31.6094" rx="2.5" ry="2.5" style="stroke:#181818;stroke-width:0.5;" width="84.0342" x="603.8672" y="106.2188"/><text fill="#000000" font-family="sans-serif" font-size="14" lengthAdjust="spacing" textLength="70.0342" x="610.8672" y="127.752">Shift Model</text><rect fill="#E2E2F0" height="31.6094" rx="2.5" ry="2.5" style="stroke:#181818;stroke-width:0.5;" width="84.0342" x="603.8672" y="552.8828"/><text fill="#000000" font-family="sans-serif" font-size="14" lengthAdjust="spacing" textLength="70.0342" x="610.8672" y="574.416">Shift Model</text><path d="M10,155.8281 L70.1709,155.8281 L70.1709,164.1797 L60.1709,174.1797 L10,174.1797 L10,155.8281 " fill="#EEEEEE" style="stroke:#000000;stroke-width:1.5;"/><rect fill="none" height="381.0547" style="stroke:#000000;stroke-width:1.5;" width="687.9014" x="10" y="155.8281"/><text fill="#000000" font-family="sans-serif" font-size="13" font-weight="bold" lengthAdjust="spacing" textLength="15.1709" x="25" y="170.3232">alt</text><text fill="#000000" font-family="sans-serif" font-size="11" font-weight="bold" lengthAdjust="spacing" textLength="61.7192" x="85.1709" y="169.2471">[Buka Shift]</text><polygon fill="#181818" points="186.0645,192.5313,196.0645,196.5313,186.0645,200.5313,190.0645,196.5313" style="stroke:#181818;stroke-width:1.0;"/><line style="stroke:#181818;stroke-width:1.0;" x1="38.9482" x2="192.0645" y1="196.5313" y2="196.5313"/><text fill="#000000" font-family="sans-serif" font-size="13" lengthAdjust="spacing" textLength="135.1162" x="50.9482" y="191.6748">Buka shift(modal_awal)</text><polygon fill="#181818" points="343.0288,222.8828,353.0288,226.8828,343.0288,230.8828,347.0288,226.8828" style="stroke:#181818;stroke-width:1.0;"/><line style="stroke:#181818;stroke-width:1.0;" x1="198.0645" x2="349.0288" y1="226.8828" y2="226.8828"/><text fill="#000000" font-family="sans-serif" font-size="13" lengthAdjust="spacing" textLength="132.9644" x="210.0645" y="222.0264">openShift(modal_awal)</text><polygon fill="#181818" points="633.8843,253.2344,643.8843,257.2344,633.8843,261.2344,637.8843,257.2344" style="stroke:#181818;stroke-width:1.0;"/><line style="stroke:#181818;stroke-width:1.0;" x1="355.0288" x2="639.8843" y1="257.2344" y2="257.2344"/><text fill="#000000" font-family="sans-serif" font-size="13" lengthAdjust="spacing" textLength="223.2598" x="388.8267" y="252.3779">create(user_id, start_time, initial_cash)</text><polygon fill="#181818" points="209.0645,283.5859,199.0645,287.5859,209.0645,291.5859,205.0645,287.5859" style="stroke:#181818;stroke-width:1.0;"/><line style="stroke:#181818;stroke-width:1.0;stroke-dasharray:2.0,2.0;" x1="203.0645" x2="354.0288" y1="287.5859" y2="287.5859"/><text fill="#000000" font-family="sans-serif" font-size="13" lengthAdjust="spacing" textLength="91.0317" x="231.0308" y="282.7295">statusTerbuka()</text><line style="stroke:#000000;stroke-width:1.0;stroke-dasharray:2.0,2.0;" x1="10" x2="697.9014" y1="296.5859" y2="296.5859"/><text fill="#000000" font-family="sans-serif" font-size="11" font-weight="bold" lengthAdjust="spacing" textLength="65.3608" x="15" y="308.0049">[Tutup Shift]</text><polygon fill="#181818" points="186.0645,329.7734,196.0645,333.7734,186.0645,337.7734,190.0645,333.7734" style="stroke:#181818;stroke-width:1.0;"/><line style="stroke:#181818;stroke-width:1.0;" x1="38.9482" x2="192.0645" y1="333.7734" y2="333.7734"/><text fill="#000000" font-family="sans-serif" font-size="13" lengthAdjust="spacing" textLength="127.8926" x="54.5601" y="328.917">Tutup shift(uang_fisik)</text><polygon fill="#181818" points="343.0288,360.125,353.0288,364.125,343.0288,368.125,347.0288,364.125" style="stroke:#181818;stroke-width:1.0;"/><line style="stroke:#181818;stroke-width:1.0;" x1="198.0645" x2="349.0288" y1="364.125" y2="364.125"/><text fill="#000000" font-family="sans-serif" font-size="13" lengthAdjust="spacing" textLength="123.5571" x="214.7681" y="359.2686">closeShift(uang_fisik)</text><line style="stroke:#181818;stroke-width:1.0;" x1="355.0288" x2="397.0288" y1="394.4766" y2="394.4766"/><line style="stroke:#181818;stroke-width:1.0;" x1="397.0288" x2="397.0288" y1="394.4766" y2="407.4766"/><line style="stroke:#181818;stroke-width:1.0;" x1="356.0288" x2="397.0288" y1="407.4766" y2="407.4766"/><polygon fill="#181818" points="366.0288,403.4766,356.0288,407.4766,366.0288,411.4766,362.0288,407.4766" style="stroke:#181818;stroke-width:1.0;"/><text fill="#000000" font-family="sans-serif" font-size="13" lengthAdjust="spacing" textLength="121.3862" x="362.0288" y="389.6201">calculateTotalSales()</text><polygon fill="#181818" points="633.8843,433.8281,643.8843,437.8281,633.8843,441.8281,637.8843,437.8281" style="stroke:#181818;stroke-width:1.0;"/><line style="stroke:#181818;stroke-width:1.0;" x1="355.0288" x2="639.8843" y1="437.8281" y2="437.8281"/><text fill="#000000" font-family="sans-serif" font-size="13" lengthAdjust="spacing" textLength="266.8555" x="367.0288" y="432.9717">update(end_time, final_cash, status="Closed")</text><polygon fill="#181818" points="209.0645,464.1797,199.0645,468.1797,209.0645,472.1797,205.0645,468.1797" style="stroke:#181818;stroke-width:1.0;"/><line style="stroke:#181818;stroke-width:1.0;stroke-dasharray:2.0,2.0;" x1="203.0645" x2="354.0288" y1="468.1797" y2="468.1797"/><text fill="#000000" font-family="sans-serif" font-size="13" lengthAdjust="spacing" textLength="94.6245" x="229.2344" y="463.3232">showSummary()</text><polygon fill="#181818" points="186.0645,494.5313,196.0645,498.5313,186.0645,502.5313,190.0645,498.5313" style="stroke:#181818;stroke-width:1.0;"/><line style="stroke:#181818;stroke-width:1.0;" x1="38.9482" x2="192.0645" y1="498.5313" y2="498.5313"/><text fill="#000000" font-family="sans-serif" font-size="13" lengthAdjust="spacing" textLength="80.939" x="78.0369" y="493.6748">Cetak laporan</text><polygon fill="#181818" points="343.0288,524.8828,353.0288,528.8828,343.0288,532.8828,347.0288,528.8828" style="stroke:#181818;stroke-width:1.0;"/><line style="stroke:#181818;stroke-width:1.0;" x1="198.0645" x2="349.0288" y1="528.8828" y2="528.8828"/><text fill="#000000" font-family="sans-serif" font-size="13" lengthAdjust="spacing" textLength="72.9663" x="240.0635" y="524.0264">printReport()</text><!--SRC=[VP3DQiD038JlVWhXKmBf2nHQQDrRCOGwnq9GRSLHlTQwkrf2txxoJmcafdkTRpGp6pkM0GFs4EahaTHKKepOqfFZLg0cKGfPfgoEe5eGU65ipVCk9Gf-Kay2rPbFccLOgm-GlsBaa0D6A32UsKvOY7BD0uf2Fi5xIvcGQh-Y5buqUETeFbCLAmoKlY4twwLbEuNdrE7I1UmjwN3tQ2bmFyjnb3UzRz0TyO9kEw6cZrHXb1z8gdMecA3Ie3eGAcrIf73aPWTHhTzHkQSTiB2o6MkBlnf_InYfAHueV5YRpJOZ5maEITFmJ_DPdwidbFPuuiZTd-gryv6gTQguKkZgvAp-mIkw2Xt5pP-1QMZ6WIJDikh4icpQBHiUycBCQ_ALaMT_gLBVO_XUJjykAaYn0uU33oYtEuR0eczaceu_94ts0m00]--></g></svg>