<svg xmlns="http://www.w3.org/2000/svg" xmlns:xlink="http://www.w3.org/1999/xlink" contentStyleType="text/css" height="2547px" preserveAspectRatio="none" style="width:1235px;height:2547px;background:#FFFFFF;" version="1.1" viewBox="0 0 1235 2547" width="1235px" zoomAndPan="magnify"><title>Sequence Diagram: Mengelola Profil Usaha</title><defs/><g><text fill="#000000" font-family="sans-serif" font-size="14" font-weight="bold" lengthAdjust="spacing" textLength="288.6338" x="469.573" y="29.5332">Sequence Diagram: Mengelola Profil Usaha</text><rect fill="#FFFFFF" height="256.3398" style="stroke:#181818;stroke-width:1.0;" width="10" x="209.2593" y="197.9219"/><rect fill="#FFFFFF" height="151.7578" style="stroke:#181818;stroke-width:1.0;" width="10" x="420.3228" y="228.2734"/><rect fill="#FFFFFF" height="30.3516" style="stroke:#181818;stroke-width:1.0;" width="10" x="420.3228" y="603.1953"/><rect fill="#FFFFFF" height="281.6484" style="stroke:#181818;stroke-width:1.0;" width="10" x="420.3228" y="785.3047"/><rect fill="#FFFFFF" height="552.1641" style="stroke:#181818;stroke-width:1.0;" width="10" x="420.3228" y="1164.0078"/><rect fill="#FFFFFF" height="30.3516" style="stroke:#181818;stroke-width:1.0;" width="10" x="420.3228" y="1813.2266"/><rect fill="#FFFFFF" height="195.1094" style="stroke:#181818;stroke-width:1.0;" width="10" x="420.3228" y="1964.9844"/><rect fill="#FFFFFF" height="151.7578" style="stroke:#181818;stroke-width:1.0;" width="10" x="420.3228" y="2295.5"/><rect fill="#FFFFFF" height="91.0547" style="stroke:#181818;stroke-width:1.0;" width="10" x="687.3472" y="258.625"/><rect fill="#FFFFFF" height="91.0547" style="stroke:#181818;stroke-width:1.0;" width="10" x="687.3472" y="884.3594"/><rect fill="#FFFFFF" height="30.3516" style="stroke:#181818;stroke-width:1.0;" width="10" x="687.3472" y="1349.4688"/><rect fill="#FFFFFF" height="91.0547" style="stroke:#181818;stroke-width:1.0;" width="10" x="687.3472" y="1503.2266"/><rect fill="#FFFFFF" height="91.0547" style="stroke:#181818;stroke-width:1.0;" width="10" x="687.3472" y="2038.6875"/><rect fill="#FFFFFF" height="91.0547" style="stroke:#181818;stroke-width:1.0;" width="10" x="687.3472" y="2325.8516"/><rect fill="#FFFFFF" height="30.3516" style="stroke:#181818;stroke-width:1.0;" width="10" x="1162.2627" y="1288.7656"/><rect fill="#FFFFFF" height="30.3516" style="stroke:#181818;stroke-width:1.0;" width="10" x="1162.2627" y="1435.5234"/><rect fill="none" height="216.2969" style="stroke:#000000;stroke-width:1.5;" width="984.3931" x="151.3525" y="843.6563"/><rect fill="none" height="461.1094" style="stroke:#000000;stroke-width:1.5;" width="1067.4272" x="151.3525" y="1248.0625"/><rect fill="none" height="79.0547" style="stroke:#000000;stroke-width:1.5;" width="837.0293" x="371.7505" y="1394.8203"/><line style="stroke:#181818;stroke-width:0.5;stroke-dasharray:5.0,5.0;" x1="30" x2="30" y1="121.2188" y2="2465.2578"/><line style="stroke:#181818;stroke-width:0.5;stroke-dasharray:5.0,5.0;" x1="213.3525" x2="213.3525" y1="121.2188" y2="2465.2578"/><line style="stroke:#181818;stroke-width:0.5;stroke-dasharray:5.0,5.0;" x1="424.7505" x2="424.7505" y1="121.2188" y2="2465.2578"/><line style="stroke:#181818;stroke-width:0.5;stroke-dasharray:5.0,5.0;" x1="691.7749" x2="691.7749" y1="121.2188" y2="2465.2578"/><line style="stroke:#181818;stroke-width:0.5;stroke-dasharray:5.0,5.0;" x1="1091.8149" x2="1091.8149" y1="121.2188" y2="2465.2578"/><line style="stroke:#181818;stroke-width:0.5;stroke-dasharray:5.0,5.0;" x1="1166.7456" x2="1166.7456" y1="121.2188" y2="2465.2578"/><text fill="#000000" font-family="sans-serif" font-size="14" lengthAdjust="spacing" textLength="45.1172" x="5" y="118.1426">Pemilik</text><ellipse cx="30.5586" cy="52.1094" fill="#E2E2F0" rx="8" ry="8" style="stroke:#181818;stroke-width:0.5;"/><path d="M30.5586,60.1094 L30.5586,87.1094 M17.5586,68.1094 L43.5586,68.1094 M30.5586,87.1094 L17.5586,102.1094 M30.5586,87.1094 L43.5586,102.1094 " fill="none" style="stroke:#181818;stroke-width:0.5;"/><text fill="#000000" font-family="sans-serif" font-size="14" lengthAdjust="spacing" textLength="45.1172" x="5" y="2478.791">Pemilik</text><ellipse cx="30.5586" cy="2490.3672" fill="#E2E2F0" rx="8" ry="8" style="stroke:#181818;stroke-width:0.5;"/><path d="M30.5586,2498.3672 L30.5586,2525.3672 M17.5586,2506.3672 L43.5586,2506.3672 M30.5586,2525.3672 L17.5586,2540.3672 M30.5586,2525.3672 L43.5586,2540.3672 " fill="none" style="stroke:#181818;stroke-width:0.5;"/><rect fill="#E2E2F0" height="49.2188" rx="2.5" ry="2.5" style="stroke:#181818;stroke-width:0.5;" width="105.8135" x="161.3525" y="71"/><text fill="#000000" font-family="sans-serif" font-size="14" lengthAdjust="spacing" textLength="91.8135" x="168.3525" y="92.5332">Halaman Profil</text><text fill="#000000" font-family="sans-serif" font-size="14" lengthAdjust="spacing" textLength="40.4688" x="194.0249" y="110.1426">Usaha</text><rect fill="#E2E2F0" height="49.2188" rx="2.5" ry="2.5" style="stroke:#181818;stroke-width:0.5;" width="105.8135" x="161.3525" y="2464.2578"/><text fill="#000000" font-family="sans-serif" font-size="14" lengthAdjust="spacing" textLength="91.8135" x="168.3525" y="2485.791">Halaman Profil</text><text fill="#000000" font-family="sans-serif" font-size="14" lengthAdjust="spacing" textLength="40.4688" x="194.0249" y="2503.4004">Usaha</text><rect fill="#E2E2F0" height="49.2188" rx="2.5" ry="2.5" style="stroke:#181818;stroke-width:0.5;" width="87.1445" x="381.7505" y="71"/><text fill="#000000" font-family="sans-serif" font-size="14" lengthAdjust="spacing" textLength="73.1445" x="388.7505" y="92.5332">StoreProfile</text><text fill="#000000" font-family="sans-serif" font-size="14" lengthAdjust="spacing" textLength="72.3789" x="389.1333" y="110.1426">Component</text><rect fill="#E2E2F0" height="49.2188" rx="2.5" ry="2.5" style="stroke:#181818;stroke-width:0.5;" width="87.1445" x="381.7505" y="2464.2578"/><text fill="#000000" font-family="sans-serif" font-size="14" lengthAdjust="spacing" textLength="73.1445" x="388.7505" y="2485.791">StoreProfile</text><text fill="#000000" font-family="sans-serif" font-size="14" lengthAdjust="spacing" textLength="72.3789" x="389.1333" y="2503.4004">Component</text><rect fill="#E2E2F0" height="49.2188" rx="2.5" ry="2.5" style="stroke:#181818;stroke-width:0.5;" width="87.1445" x="648.7749" y="71"/><text fill="#000000" font-family="sans-serif" font-size="14" lengthAdjust="spacing" textLength="73.1445" x="655.7749" y="92.5332">StoreProfile</text><text fill="#000000" font-family="sans-serif" font-size="14" lengthAdjust="spacing" textLength="38.1309" x="673.2817" y="110.1426">Model</text><rect fill="#E2E2F0" height="49.2188" rx="2.5" ry="2.5" style="stroke:#181818;stroke-width:0.5;" width="87.1445" x="648.7749" y="2464.2578"/><text fill="#000000" font-family="sans-serif" font-size="14" lengthAdjust="spacing" textLength="73.1445" x="655.7749" y="2485.791">StoreProfile</text><text fill="#000000" font-family="sans-serif" font-size="14" lengthAdjust="spacing" textLength="38.1309" x="673.2817" y="2503.4004">Model</text><text fill="#000000" font-family="sans-serif" font-size="14" lengthAdjust="spacing" textLength="59.9307" x="1059.8149" y="118.1426">Database</text><path d="M1074.7803,67.6094 C1074.7803,57.6094 1092.7803,57.6094 1092.7803,57.6094 C1092.7803,57.6094 1110.7803,57.6094 1110.7803,67.6094 L1110.7803,93.6094 C1110.7803,103.6094 1092.7803,103.6094 1092.7803,103.6094 C1092.7803,103.6094 1074.7803,103.6094 1074.7803,93.6094 L1074.7803,67.6094 " fill="#E2E2F0" style="stroke:#181818;stroke-width:1.5;"/><path d="M1074.7803,67.6094 C1074.7803,77.6094 1092.7803,77.6094 1092.7803,77.6094 C1092.7803,77.6094 1110.7803,77.6094 1110.7803,67.6094 " fill="none" style="stroke:#181818;stroke-width:1.5;"/><text fill="#000000" font-family="sans-serif" font-size="14" lengthAdjust="spacing" textLength="59.9307" x="1059.8149" y="2478.791">Database</text><path d="M1074.7803,2491.8672 C1074.7803,2481.8672 1092.7803,2481.8672 1092.7803,2481.8672 C1092.7803,2481.8672 1110.7803,2481.8672 1110.7803,2491.8672 L1110.7803,2517.8672 C1110.7803,2527.8672 1092.7803,2527.8672 1092.7803,2527.8672 C1092.7803,2527.8672 1074.7803,2527.8672 1074.7803,2517.8672 L1074.7803,2491.8672 " fill="#E2E2F0" style="stroke:#181818;stroke-width:1.5;"/><path d="M1074.7803,2491.8672 C1074.7803,2501.8672 1092.7803,2501.8672 1092.7803,2501.8672 C1092.7803,2501.8672 1110.7803,2501.8672 1110.7803,2491.8672 " fill="none" style="stroke:#181818;stroke-width:1.5;"/><rect fill="#E2E2F0" height="31.6094" rx="2.5" ry="2.5" style="stroke:#181818;stroke-width:0.5;" width="63.0342" x="1135.7456" y="88.6094"/><text fill="#000000" font-family="sans-serif" font-size="14" lengthAdjust="spacing" textLength="49.0342" x="1142.7456" y="110.1426">Storage</text><rect fill="#E2E2F0" height="31.6094" rx="2.5" ry="2.5" style="stroke:#181818;stroke-width:0.5;" width="63.0342" x="1135.7456" y="2464.2578"/><text fill="#000000" font-family="sans-serif" font-size="14" lengthAdjust="spacing" textLength="49.0342" x="1142.7456" y="2485.791">Storage</text><rect fill="#FFFFFF" height="256.3398" style="stroke:#181818;stroke-width:1.0;" width="10" x="209.2593" y="197.9219"/><rect fill="#FFFFFF" height="151.7578" style="stroke:#181818;stroke-width:1.0;" width="10" x="420.3228" y="228.2734"/><rect fill="#FFFFFF" height="30.3516" style="stroke:#181818;stroke-width:1.0;" width="10" x="420.3228" y="603.1953"/><rect fill="#FFFFFF" height="281.6484" style="stroke:#181818;stroke-width:1.0;" width="10" x="420.3228" y="785.3047"/><rect fill="#FFFFFF" height="552.1641" style="stroke:#181818;stroke-width:1.0;" width="10" x="420.3228" y="1164.0078"/><rect fill="#FFFFFF" height="30.3516" style="stroke:#181818;stroke-width:1.0;" width="10" x="420.3228" y="1813.2266"/><rect fill="#FFFFFF" height="195.1094" style="stroke:#181818;stroke-width:1.0;" width="10" x="420.3228" y="1964.9844"/><rect fill="#FFFFFF" height="151.7578" style="stroke:#181818;stroke-width:1.0;" width="10" x="420.3228" y="2295.5"/><rect fill="#FFFFFF" height="91.0547" style="stroke:#181818;stroke-width:1.0;" width="10" x="687.3472" y="258.625"/><rect fill="#FFFFFF" height="91.0547" style="stroke:#181818;stroke-width:1.0;" width="10" x="687.3472" y="884.3594"/><rect fill="#FFFFFF" height="30.3516" style="stroke:#181818;stroke-width:1.0;" width="10" x="687.3472" y="1349.4688"/><rect fill="#FFFFFF" height="91.0547" style="stroke:#181818;stroke-width:1.0;" width="10" x="687.3472" y="1503.2266"/><rect fill="#FFFFFF" height="91.0547" style="stroke:#181818;stroke-width:1.0;" width="10" x="687.3472" y="2038.6875"/><rect fill="#FFFFFF" height="91.0547" style="stroke:#181818;stroke-width:1.0;" width="10" x="687.3472" y="2325.8516"/><rect fill="#FFFFFF" height="30.3516" style="stroke:#181818;stroke-width:1.0;" width="10" x="1162.2627" y="1288.7656"/><rect fill="#FFFFFF" height="30.3516" style="stroke:#181818;stroke-width:1.0;" width="10" x="1162.2627" y="1435.5234"/><rect fill="#EEEEEE" height="3" style="stroke:#EEEEEE;stroke-width:1.0;" width="1228.7798" x="0" y="152.3945"/><line style="stroke:#000000;stroke-width:1.0;" x1="0" x2="1228.7798" y1="152.3945" y2="152.3945"/><line style="stroke:#000000;stroke-width:1.0;" x1="0" x2="1228.7798" y1="155.3945" y2="155.3945"/><rect fill="#EEEEEE" height="24.3516" style="stroke:#000000;stroke-width:2.0;" width="141.8608" x="543.4595" y="141.2188"/><text fill="#000000" font-family="sans-serif" font-size="13" font-weight="bold" lengthAdjust="spacing" textLength="124.249" x="549.4595" y="158.7139">Melihat Profil Usaha</text><polygon fill="#181818" points="197.2593,193.9219,207.2593,197.9219,197.2593,201.9219,201.2593,197.9219" style="stroke:#181818;stroke-width:1.0;"/><line style="stroke:#181818;stroke-width:1.0;" x1="30.5586" x2="203.2593" y1="197.9219" y2="197.9219"/><text fill="#000000" font-family="sans-serif" font-size="13" lengthAdjust="spacing" textLength="159.7007" x="37.5586" y="193.0654">Akses halaman profil usaha</text><polygon fill="#181818" points="408.3228,224.2734,418.3228,228.2734,408.3228,232.2734,412.3228,228.2734" style="stroke:#181818;stroke-width:1.0;"/><line style="stroke:#181818;stroke-width:1.0;" x1="219.2593" x2="414.3228" y1="228.2734" y2="228.2734"/><text fill="#000000" font-family="sans-serif" font-size="13" lengthAdjust="spacing" textLength="44.7891" x="226.2593" y="223.417">mount()</text><polygon fill="#181818" points="675.3472,254.625,685.3472,258.625,675.3472,262.625,679.3472,258.625" style="stroke:#181818;stroke-width:1.0;"/><line style="stroke:#181818;stroke-width:1.0;" x1="430.3228" x2="681.3472" y1="258.625" y2="258.625"/><text fill="#000000" font-family="sans-serif" font-size="13" lengthAdjust="spacing" textLength="104.7427" x="437.3228" y="253.7686">StoreProfile::first()</text><polygon fill="#181818" points="1080.7803,284.9766,1090.7803,288.9766,1080.7803,292.9766,1084.7803,288.9766" style="stroke:#181818;stroke-width:1.0;"/><line style="stroke:#181818;stroke-width:1.0;" x1="697.3472" x2="1086.7803" y1="288.9766" y2="288.9766"/><text fill="#000000" font-family="sans-serif" font-size="13" lengthAdjust="spacing" textLength="230.4517" x="704.3472" y="284.1201">SELECT * FROM store_profiles LIMIT 1</text><polygon fill="#181818" points="708.3472,315.3281,698.3472,319.3281,708.3472,323.3281,704.3472,319.3281" style="stroke:#181818;stroke-width:1.0;"/><line style="stroke:#181818;stroke-width:1.0;stroke-dasharray:2.0,2.0;" x1="702.3472" x2="1091.7803" y1="319.3281" y2="319.3281"/><text fill="#000000" font-family="sans-serif" font-size="13" lengthAdjust="spacing" textLength="59.249" x="714.3472" y="314.4717">Data profil</text><polygon fill="#181818" points="441.3228,345.6797,431.3228,349.6797,441.3228,353.6797,437.3228,349.6797" style="stroke:#181818;stroke-width:1.0;"/><line style="stroke:#181818;stroke-width:1.0;stroke-dasharray:2.0,2.0;" x1="435.3228" x2="691.3472" y1="349.6797" y2="349.6797"/><text fill="#000000" font-family="sans-serif" font-size="13" lengthAdjust="spacing" textLength="119.9517" x="447.3228" y="344.8232">StoreProfile instance</text><polygon fill="#181818" points="230.2593,376.0313,220.2593,380.0313,230.2593,384.0313,226.2593,380.0313" style="stroke:#181818;stroke-width:1.0;"/><line style="stroke:#181818;stroke-width:1.0;stroke-dasharray:2.0,2.0;" x1="224.2593" x2="424.3228" y1="380.0313" y2="380.0313"/><text fill="#000000" font-family="sans-serif" font-size="13" lengthAdjust="spacing" textLength="103.3398" x="236.2593" y="375.1748">Render data profil</text><polygon fill="#181818" points="41.5586,450.2617,31.5586,454.2617,41.5586,458.2617,37.5586,454.2617" style="stroke:#181818;stroke-width:1.0;"/><line style="stroke:#181818;stroke-width:1.0;stroke-dasharray:2.0,2.0;" x1="35.5586" x2="213.2593" y1="454.2617" y2="454.2617"/><text fill="#000000" font-family="sans-serif" font-size="13" lengthAdjust="spacing" textLength="145.2344" x="47.5586" y="449.4053">Tampilkan halaman profil</text><path d="M224,393.0313 L224,501.0313 L381,501.0313 L381,403.0313 L371,393.0313 L224,393.0313 " fill="#FEFFDD" style="stroke:#181818;stroke-width:0.5;"/><path d="M371,393.0313 L371,403.0313 L381,403.0313 L371,393.0313 " fill="#FEFFDD" style="stroke:#181818;stroke-width:0.5;"/><text fill="#000000" font-family="sans-serif" font-size="13" lengthAdjust="spacing" textLength="80.9263" x="230" y="411.5264">Menampilkan:</text><text fill="#000000" font-family="sans-serif" font-size="13" lengthAdjust="spacing" textLength="70.8018" x="230" y="427.8779">- Nama toko</text><text fill="#000000" font-family="sans-serif" font-size="13" lengthAdjust="spacing" textLength="136.5635" x="230" y="444.2295">- Alamat, telepon, email</text><text fill="#000000" font-family="sans-serif" font-size="13" lengthAdjust="spacing" textLength="36.8608" x="230" y="460.5811">- Logo</text><text fill="#000000" font-family="sans-serif" font-size="13" lengthAdjust="spacing" textLength="61.3945" x="230" y="476.9326">- Deskripsi</text><text fill="#000000" font-family="sans-serif" font-size="13" lengthAdjust="spacing" textLength="103.3271" x="230" y="493.2842">- Jam operasional</text><rect fill="#EEEEEE" height="3" style="stroke:#EEEEEE;stroke-width:1.0;" width="1228.7798" x="0" y="527.3164"/><line style="stroke:#000000;stroke-width:1.0;" x1="0" x2="1228.7798" y1="527.3164" y2="527.3164"/><line style="stroke:#000000;stroke-width:1.0;" x1="0" x2="1228.7798" y1="530.3164" y2="530.3164"/><rect fill="#EEEEEE" height="24.3516" style="stroke:#000000;stroke-width:2.0;" width="184.479" x="522.1504" y="516.1406"/><text fill="#000000" font-family="sans-serif" font-size="13" font-weight="bold" lengthAdjust="spacing" textLength="166.8672" x="528.1504" y="533.6357">Mengubah Informasi Dasar</text><polygon fill="#181818" points="202.2593,568.8438,212.2593,572.8438,202.2593,576.8438,206.2593,572.8438" style="stroke:#181818;stroke-width:1.0;"/><line style="stroke:#181818;stroke-width:1.0;" x1="30.5586" x2="208.2593" y1="572.8438" y2="572.8438"/><text fill="#000000" font-family="sans-serif" font-size="13" lengthAdjust="spacing" textLength="89.5908" x="37.5586" y="567.9873">Klik tombol Edit</text><polygon fill="#181818" points="408.3228,599.1953,418.3228,603.1953,408.3228,607.1953,412.3228,603.1953" style="stroke:#181818;stroke-width:1.0;"/><line style="stroke:#181818;stroke-width:1.0;" x1="214.2593" x2="414.3228" y1="603.1953" y2="603.1953"/><text fill="#000000" font-family="sans-serif" font-size="13" lengthAdjust="spacing" textLength="91.7363" x="221.2593" y="598.3389">showEditForm()</text><polygon fill="#181818" points="225.2593,629.5469,215.2593,633.5469,225.2593,637.5469,221.2593,633.5469" style="stroke:#181818;stroke-width:1.0;"/><line style="stroke:#181818;stroke-width:1.0;stroke-dasharray:2.0,2.0;" x1="219.2593" x2="424.3228" y1="633.5469" y2="633.5469"/><text fill="#000000" font-family="sans-serif" font-size="13" lengthAdjust="spacing" textLength="114.1499" x="231.2593" y="628.6904">Tampilkan form edit</text><polygon fill="#181818" points="413.3228,659.8984,423.3228,663.8984,413.3228,667.8984,417.3228,663.8984" style="stroke:#181818;stroke-width:1.0;"/><line style="stroke:#181818;stroke-width:1.0;" x1="30.5586" x2="419.3228" y1="663.8984" y2="663.8984"/><text fill="#000000" font-family="sans-serif" font-size="13" lengthAdjust="spacing" textLength="142.1621" x="37.5586" y="659.042">set('name', 'Pawon Kue')</text><polygon fill="#181818" points="413.3228,690.25,423.3228,694.25,413.3228,698.25,417.3228,694.25" style="stroke:#181818;stroke-width:1.0;"/><line style="stroke:#181818;stroke-width:1.0;" x1="30.5586" x2="419.3228" y1="694.25" y2="694.25"/><text fill="#000000" font-family="sans-serif" font-size="13" lengthAdjust="spacing" textLength="186.9321" x="37.5586" y="689.3936">set('address', 'Jl. Mawar No. 10')</text><polygon fill="#181818" points="413.3228,720.6016,423.3228,724.6016,413.3228,728.6016,417.3228,724.6016" style="stroke:#181818;stroke-width:1.0;"/><line style="stroke:#181818;stroke-width:1.0;" x1="30.5586" x2="419.3228" y1="724.6016" y2="724.6016"/><text fill="#000000" font-family="sans-serif" font-size="13" lengthAdjust="spacing" textLength="158.8311" x="37.5586" y="719.7451">set('phone', '08123456789')</text><polygon fill="#181818" points="413.3228,750.9531,423.3228,754.9531,413.3228,758.9531,417.3228,754.9531" style="stroke:#181818;stroke-width:1.0;"/><line style="stroke:#181818;stroke-width:1.0;" x1="30.5586" x2="419.3228" y1="754.9531" y2="754.9531"/><text fill="#000000" font-family="sans-serif" font-size="13" lengthAdjust="spacing" textLength="195.8125" x="37.5586" y="750.0967">set('email', 'info@pawonkue.com')</text><polygon fill="#181818" points="408.3228,781.3047,418.3228,785.3047,408.3228,789.3047,412.3228,785.3047" style="stroke:#181818;stroke-width:1.0;"/><line style="stroke:#181818;stroke-width:1.0;" x1="30.5586" x2="414.3228" y1="785.3047" y2="785.3047"/><text fill="#000000" font-family="sans-serif" font-size="13" lengthAdjust="spacing" textLength="36.1182" x="37.5586" y="780.4482">save()</text><line style="stroke:#181818;stroke-width:1.0;" x1="430.3228" x2="472.3228" y1="815.6563" y2="815.6563"/><line style="stroke:#181818;stroke-width:1.0;" x1="472.3228" x2="472.3228" y1="815.6563" y2="828.6563"/><line style="stroke:#181818;stroke-width:1.0;" x1="431.3228" x2="472.3228" y1="828.6563" y2="828.6563"/><polygon fill="#181818" points="441.3228,824.6563,431.3228,828.6563,441.3228,832.6563,437.3228,828.6563" style="stroke:#181818;stroke-width:1.0;"/><text fill="#000000" font-family="sans-serif" font-size="13" lengthAdjust="spacing" textLength="53.4663" x="437.3228" y="810.7998">validate()</text><path d="M151.3525,843.6563 L211.5234,843.6563 L211.5234,852.0078 L201.5234,862.0078 L151.3525,862.0078 L151.3525,843.6563 " fill="#EEEEEE" style="stroke:#000000;stroke-width:1.5;"/><rect fill="none" height="216.2969" style="stroke:#000000;stroke-width:1.5;" width="984.3931" x="151.3525" y="843.6563"/><text fill="#000000" font-family="sans-serif" font-size="13" font-weight="bold" lengthAdjust="spacing" textLength="15.1709" x="166.3525" y="858.1514">alt</text><text fill="#000000" font-family="sans-serif" font-size="11" font-weight="bold" lengthAdjust="spacing" textLength="94.1445" x="226.5234" y="857.0752">[Validasi berhasil]</text><polygon fill="#181818" points="675.3472,880.3594,685.3472,884.3594,675.3472,888.3594,679.3472,884.3594" style="stroke:#181818;stroke-width:1.0;"/><line style="stroke:#181818;stroke-width:1.0;" x1="430.3228" x2="681.3472" y1="884.3594" y2="884.3594"/><text fill="#000000" font-family="sans-serif" font-size="13" lengthAdjust="spacing" textLength="144.1489" x="437.3228" y="879.5029">storeProfile-&gt;update([...])</text><polygon fill="#181818" points="1080.7803,910.7109,1090.7803,914.7109,1080.7803,918.7109,1084.7803,914.7109" style="stroke:#181818;stroke-width:1.0;"/><line style="stroke:#181818;stroke-width:1.0;" x1="697.3472" x2="1086.7803" y1="914.7109" y2="914.7109"/><text fill="#000000" font-family="sans-serif" font-size="13" lengthAdjust="spacing" textLength="177.7217" x="704.3472" y="909.8545">UPDATE store_profiles SET ...</text><polygon fill="#181818" points="708.3472,941.0625,698.3472,945.0625,708.3472,949.0625,704.3472,945.0625" style="stroke:#181818;stroke-width:1.0;"/><line style="stroke:#181818;stroke-width:1.0;stroke-dasharray:2.0,2.0;" x1="702.3472" x2="1091.7803" y1="945.0625" y2="945.0625"/><text fill="#000000" font-family="sans-serif" font-size="13" lengthAdjust="spacing" textLength="49.1309" x="714.3472" y="940.2061">Success</text><polygon fill="#181818" points="441.3228,971.4141,431.3228,975.4141,441.3228,979.4141,437.3228,975.4141" style="stroke:#181818;stroke-width:1.0;"/><line style="stroke:#181818;stroke-width:1.0;stroke-dasharray:2.0,2.0;" x1="435.3228" x2="691.3472" y1="975.4141" y2="975.4141"/><text fill="#000000" font-family="sans-serif" font-size="13" lengthAdjust="spacing" textLength="49.1499" x="447.3228" y="970.5576">Updated</text><polygon fill="#181818" points="225.2593,1001.7656,215.2593,1005.7656,225.2593,1009.7656,221.2593,1005.7656" style="stroke:#181818;stroke-width:1.0;"/><line style="stroke:#181818;stroke-width:1.0;stroke-dasharray:2.0,2.0;" x1="219.2593" x2="419.3228" y1="1005.7656" y2="1005.7656"/><text fill="#000000" font-family="sans-serif" font-size="13" lengthAdjust="spacing" textLength="132.2217" x="231.2593" y="1000.9092">Flash message sukses</text><line style="stroke:#000000;stroke-width:1.0;stroke-dasharray:2.0,2.0;" x1="151.3525" x2="1135.7456" y1="1014.7656" y2="1014.7656"/><text fill="#000000" font-family="sans-serif" font-size="11" font-weight="bold" lengthAdjust="spacing" textLength="80.6899" x="156.3525" y="1026.1846">[Validasi gagal]</text><polygon fill="#181818" points="225.2593,1047.9531,215.2593,1051.9531,225.2593,1055.9531,221.2593,1051.9531" style="stroke:#181818;stroke-width:1.0;"/><line style="stroke:#181818;stroke-width:1.0;stroke-dasharray:2.0,2.0;" x1="219.2593" x2="419.3228" y1="1051.9531" y2="1051.9531"/><text fill="#000000" font-family="sans-serif" font-size="13" lengthAdjust="spacing" textLength="137.9917" x="231.2593" y="1047.0967">Tampilkan error validasi</text><rect fill="#EEEEEE" height="3" style="stroke:#EEEEEE;stroke-width:1.0;" width="1228.7798" x="0" y="1088.1289"/><line style="stroke:#000000;stroke-width:1.0;" x1="0" x2="1228.7798" y1="1088.1289" y2="1088.1289"/><line style="stroke:#000000;stroke-width:1.0;" x1="0" x2="1228.7798" y1="1091.1289" y2="1091.1289"/><rect fill="#EEEEEE" height="24.3516" style="stroke:#000000;stroke-width:2.0;" width="117.981" x="555.3994" y="1076.9531"/><text fill="#000000" font-family="sans-serif" font-size="13" font-weight="bold" lengthAdjust="spacing" textLength="100.3691" x="561.3994" y="1094.4482">Mengubah Logo</text><polygon fill="#181818" points="202.2593,1129.6563,212.2593,1133.6563,202.2593,1137.6563,206.2593,1133.6563" style="stroke:#181818;stroke-width:1.0;"/><line style="stroke:#181818;stroke-width:1.0;" x1="30.5586" x2="208.2593" y1="1133.6563" y2="1133.6563"/><text fill="#000000" font-family="sans-serif" font-size="13" lengthAdjust="spacing" textLength="81.6689" x="37.5586" y="1128.7998">Klik ubah logo</text><polygon fill="#181818" points="408.3228,1160.0078,418.3228,1164.0078,408.3228,1168.0078,412.3228,1164.0078" style="stroke:#181818;stroke-width:1.0;"/><line style="stroke:#181818;stroke-width:1.0;" x1="30.5586" x2="414.3228" y1="1164.0078" y2="1164.0078"/><text fill="#000000" font-family="sans-serif" font-size="13" lengthAdjust="spacing" textLength="109.1162" x="37.5586" y="1159.1514">Upload file gambar</text><line style="stroke:#181818;stroke-width:1.0;" x1="430.3228" x2="472.3228" y1="1207.2109" y2="1207.2109"/><line style="stroke:#181818;stroke-width:1.0;" x1="472.3228" x2="472.3228" y1="1207.2109" y2="1220.2109"/><line style="stroke:#181818;stroke-width:1.0;" x1="431.3228" x2="472.3228" y1="1220.2109" y2="1220.2109"/><polygon fill="#181818" points="441.3228,1216.2109,431.3228,1220.2109,441.3228,1224.2109,437.3228,1220.2109" style="stroke:#181818;stroke-width:1.0;"/><text fill="#000000" font-family="sans-serif" font-size="13" lengthAdjust="spacing" textLength="89.5972" x="437.3228" y="1202.3545">validateImage()</text><path d="M548.5972,1177.0078 L548.5972,1236.0078 L703.5972,1236.0078 L703.5972,1187.0078 L693.5972,1177.0078 L548.5972,1177.0078 " fill="#FEFFDD" style="stroke:#181818;stroke-width:0.5;"/><path d="M693.5972,1177.0078 L693.5972,1187.0078 L703.5972,1187.0078 L693.5972,1177.0078 " fill="#FEFFDD" style="stroke:#181818;stroke-width:0.5;"/><text fill="#000000" font-family="sans-serif" font-size="13" lengthAdjust="spacing" textLength="49.1372" x="554.5972" y="1195.5029">Validasi:</text><text fill="#000000" font-family="sans-serif" font-size="13" lengthAdjust="spacing" textLength="134.3989" x="554.5972" y="1211.8545">- Format: jpg, jpeg, png</text><text fill="#000000" font-family="sans-serif" font-size="13" lengthAdjust="spacing" textLength="93.1836" x="554.5972" y="1228.2061">- Max size: 2MB</text><path d="M151.3525,1248.0625 L211.5234,1248.0625 L211.5234,1256.4141 L201.5234,1266.4141 L151.3525,1266.4141 L151.3525,1248.0625 " fill="#EEEEEE" style="stroke:#000000;stroke-width:1.5;"/><rect fill="none" height="461.1094" style="stroke:#000000;stroke-width:1.5;" width="1067.4272" x="151.3525" y="1248.0625"/><text fill="#000000" font-family="sans-serif" font-size="13" font-weight="bold" lengthAdjust="spacing" textLength="15.1709" x="166.3525" y="1262.5576">alt</text><text fill="#000000" font-family="sans-serif" font-size="11" font-weight="bold" lengthAdjust="spacing" textLength="54.3984" x="226.5234" y="1261.4814">[File valid]</text><polygon fill="#181818" points="1150.2627,1284.7656,1160.2627,1288.7656,1150.2627,1292.7656,1154.2627,1288.7656" style="stroke:#181818;stroke-width:1.0;"/><line style="stroke:#181818;stroke-width:1.0;" x1="430.3228" x2="1156.2627" y1="1288.7656" y2="1288.7656"/><text fill="#000000" font-family="sans-serif" font-size="13" lengthAdjust="spacing" textLength="97.4429" x="437.3228" y="1283.9092">store('logos', file)</text><polygon fill="#181818" points="441.3228,1315.1172,431.3228,1319.1172,441.3228,1323.1172,437.3228,1319.1172" style="stroke:#181818;stroke-width:1.0;"/><line style="stroke:#181818;stroke-width:1.0;stroke-dasharray:2.0,2.0;" x1="435.3228" x2="1166.2627" y1="1319.1172" y2="1319.1172"/><text fill="#000000" font-family="sans-serif" font-size="13" lengthAdjust="spacing" textLength="83.1226" x="447.3228" y="1314.2607">path logo baru</text><polygon fill="#181818" points="675.3472,1345.4688,685.3472,1349.4688,675.3472,1353.4688,679.3472,1349.4688" style="stroke:#181818;stroke-width:1.0;"/><line style="stroke:#181818;stroke-width:1.0;" x1="430.3228" x2="681.3472" y1="1349.4688" y2="1349.4688"/><text fill="#000000" font-family="sans-serif" font-size="13" lengthAdjust="spacing" textLength="182.4634" x="437.3228" y="1344.6123">storeProfile-&gt;logo (get old path)</text><polygon fill="#181818" points="441.3228,1375.8203,431.3228,1379.8203,441.3228,1383.8203,437.3228,1379.8203" style="stroke:#181818;stroke-width:1.0;"/><line style="stroke:#181818;stroke-width:1.0;stroke-dasharray:2.0,2.0;" x1="435.3228" x2="691.3472" y1="1379.8203" y2="1379.8203"/><text fill="#000000" font-family="sans-serif" font-size="13" lengthAdjust="spacing" textLength="74.4517" x="447.3228" y="1374.9639">old logo path</text><path d="M371.7505,1394.8203 L431.9214,1394.8203 L431.9214,1403.1719 L421.9214,1413.1719 L371.7505,1413.1719 L371.7505,1394.8203 " fill="#EEEEEE" style="stroke:#000000;stroke-width:1.5;"/><rect fill="none" height="79.0547" style="stroke:#000000;stroke-width:1.5;" width="837.0293" x="371.7505" y="1394.8203"/><text fill="#000000" font-family="sans-serif" font-size="13" font-weight="bold" lengthAdjust="spacing" textLength="15.1709" x="386.7505" y="1409.3154">alt</text><text fill="#000000" font-family="sans-serif" font-size="11" font-weight="bold" lengthAdjust="spacing" textLength="82.5054" x="446.9214" y="1408.2393">[Ada logo lama]</text><polygon fill="#181818" points="1150.2627,1431.5234,1160.2627,1435.5234,1150.2627,1439.5234,1154.2627,1435.5234" style="stroke:#181818;stroke-width:1.0;"/><line style="stroke:#181818;stroke-width:1.0;" x1="430.3228" x2="1156.2627" y1="1435.5234" y2="1435.5234"/><text fill="#000000" font-family="sans-serif" font-size="13" lengthAdjust="spacing" textLength="118.5298" x="437.3228" y="1430.667">delete(old logo path)</text><polygon fill="#181818" points="441.3228,1461.875,431.3228,1465.875,441.3228,1469.875,437.3228,1465.875" style="stroke:#181818;stroke-width:1.0;"/><line style="stroke:#181818;stroke-width:1.0;stroke-dasharray:2.0,2.0;" x1="435.3228" x2="1166.2627" y1="1465.875" y2="1465.875"/><text fill="#000000" font-family="sans-serif" font-size="13" lengthAdjust="spacing" textLength="44.8081" x="447.3228" y="1461.0186">Deleted</text><polygon fill="#181818" points="675.3472,1499.2266,685.3472,1503.2266,675.3472,1507.2266,679.3472,1503.2266" style="stroke:#181818;stroke-width:1.0;"/><line style="stroke:#181818;stroke-width:1.0;" x1="430.3228" x2="681.3472" y1="1503.2266" y2="1503.2266"/><text fill="#000000" font-family="sans-serif" font-size="13" lengthAdjust="spacing" textLength="238.0244" x="437.3228" y="1498.3701">storeProfile-&gt;update(['logo' =&gt; new path])</text><polygon fill="#181818" points="1080.7803,1529.5781,1090.7803,1533.5781,1080.7803,1537.5781,1084.7803,1533.5781" style="stroke:#181818;stroke-width:1.0;"/><line style="stroke:#181818;stroke-width:1.0;" x1="697.3472" x2="1086.7803" y1="1533.5781" y2="1533.5781"/><text fill="#000000" font-family="sans-serif" font-size="13" lengthAdjust="spacing" textLength="213.5098" x="704.3472" y="1528.7217">UPDATE store_profiles SET logo = ?</text><polygon fill="#181818" points="708.3472,1559.9297,698.3472,1563.9297,708.3472,1567.9297,704.3472,1563.9297" style="stroke:#181818;stroke-width:1.0;"/><line style="stroke:#181818;stroke-width:1.0;stroke-dasharray:2.0,2.0;" x1="702.3472" x2="1091.7803" y1="1563.9297" y2="1563.9297"/><text fill="#000000" font-family="sans-serif" font-size="13" lengthAdjust="spacing" textLength="49.1309" x="714.3472" y="1559.0732">Success</text><polygon fill="#181818" points="441.3228,1590.2813,431.3228,1594.2813,441.3228,1598.2813,437.3228,1594.2813" style="stroke:#181818;stroke-width:1.0;"/><line style="stroke:#181818;stroke-width:1.0;stroke-dasharray:2.0,2.0;" x1="435.3228" x2="691.3472" y1="1594.2813" y2="1594.2813"/><text fill="#000000" font-family="sans-serif" font-size="13" lengthAdjust="spacing" textLength="49.1499" x="447.3228" y="1589.4248">Updated</text><polygon fill="#181818" points="225.2593,1620.6328,215.2593,1624.6328,225.2593,1628.6328,221.2593,1624.6328" style="stroke:#181818;stroke-width:1.0;"/><line style="stroke:#181818;stroke-width:1.0;stroke-dasharray:2.0,2.0;" x1="219.2593" x2="419.3228" y1="1624.6328" y2="1624.6328"/><text fill="#000000" font-family="sans-serif" font-size="13" lengthAdjust="spacing" textLength="117.7871" x="231.2593" y="1619.7764">Tampilkan logo baru</text><polygon fill="#181818" points="225.2593,1650.9844,215.2593,1654.9844,225.2593,1658.9844,221.2593,1654.9844" style="stroke:#181818;stroke-width:1.0;"/><line style="stroke:#181818;stroke-width:1.0;stroke-dasharray:2.0,2.0;" x1="219.2593" x2="419.3228" y1="1654.9844" y2="1654.9844"/><text fill="#000000" font-family="sans-serif" font-size="13" lengthAdjust="spacing" textLength="132.2217" x="231.2593" y="1650.1279">Flash message sukses</text><line style="stroke:#000000;stroke-width:1.0;stroke-dasharray:2.0,2.0;" x1="151.3525" x2="1218.7798" y1="1663.9844" y2="1663.9844"/><text fill="#000000" font-family="sans-serif" font-size="11" font-weight="bold" lengthAdjust="spacing" textLength="83.1284" x="156.3525" y="1675.4033">[File tidak valid]</text><polygon fill="#181818" points="225.2593,1697.1719,215.2593,1701.1719,225.2593,1705.1719,221.2593,1701.1719" style="stroke:#181818;stroke-width:1.0;"/><line style="stroke:#181818;stroke-width:1.0;stroke-dasharray:2.0,2.0;" x1="219.2593" x2="419.3228" y1="1701.1719" y2="1701.1719"/><text fill="#000000" font-family="sans-serif" font-size="13" lengthAdjust="spacing" textLength="182.0635" x="231.2593" y="1696.3154">Error: Format/ukuran tidak valid</text><rect fill="#EEEEEE" height="3" style="stroke:#EEEEEE;stroke-width:1.0;" width="1228.7798" x="0" y="1737.3477"/><line style="stroke:#000000;stroke-width:1.0;" x1="0" x2="1228.7798" y1="1737.3477" y2="1737.3477"/><line style="stroke:#000000;stroke-width:1.0;" x1="0" x2="1228.7798" y1="1740.3477" y2="1740.3477"/><rect fill="#EEEEEE" height="24.3516" style="stroke:#000000;stroke-width:2.0;" width="184.4917" x="522.144" y="1726.1719"/><text fill="#000000" font-family="sans-serif" font-size="13" font-weight="bold" lengthAdjust="spacing" textLength="166.8799" x="528.144" y="1743.667">Mengatur Jam Operasional</text><polygon fill="#181818" points="202.2593,1778.875,212.2593,1782.875,202.2593,1786.875,206.2593,1782.875" style="stroke:#181818;stroke-width:1.0;"/><line style="stroke:#181818;stroke-width:1.0;" x1="30.5586" x2="208.2593" y1="1782.875" y2="1782.875"/><text fill="#000000" font-family="sans-serif" font-size="13" lengthAdjust="spacing" textLength="142.3462" x="37.5586" y="1778.0186">Klik atur jam operasional</text><polygon fill="#181818" points="408.3228,1809.2266,418.3228,1813.2266,408.3228,1817.2266,412.3228,1813.2266" style="stroke:#181818;stroke-width:1.0;"/><line style="stroke:#181818;stroke-width:1.0;" x1="214.2593" x2="414.3228" y1="1813.2266" y2="1813.2266"/><text fill="#000000" font-family="sans-serif" font-size="13" lengthAdjust="spacing" textLength="123.5444" x="221.2593" y="1808.3701">showScheduleForm()</text><polygon fill="#181818" points="225.2593,1839.5781,215.2593,1843.5781,225.2593,1847.5781,221.2593,1843.5781" style="stroke:#181818;stroke-width:1.0;"/><line style="stroke:#181818;stroke-width:1.0;stroke-dasharray:2.0,2.0;" x1="219.2593" x2="424.3228" y1="1843.5781" y2="1843.5781"/><text fill="#000000" font-family="sans-serif" font-size="13" lengthAdjust="spacing" textLength="130.0444" x="231.2593" y="1838.7217">Tampilkan form jadwal</text><polygon fill="#181818" points="413.3228,1869.9297,423.3228,1873.9297,413.3228,1877.9297,417.3228,1873.9297" style="stroke:#181818;stroke-width:1.0;"/><line style="stroke:#181818;stroke-width:1.0;" x1="30.5586" x2="419.3228" y1="1873.9297" y2="1873.9297"/><text fill="#000000" font-family="sans-serif" font-size="13" lengthAdjust="spacing" textLength="155.2002" x="37.5586" y="1869.0732">set('opening_hour', '08:00')</text><polygon fill="#181818" points="413.3228,1900.2813,423.3228,1904.2813,413.3228,1908.2813,417.3228,1904.2813" style="stroke:#181818;stroke-width:1.0;"/><line style="stroke:#181818;stroke-width:1.0;" x1="30.5586" x2="419.3228" y1="1904.2813" y2="1904.2813"/><text fill="#000000" font-family="sans-serif" font-size="13" lengthAdjust="spacing" textLength="149.3984" x="37.5586" y="1899.4248">set('closing_hour', '21:00')</text><polygon fill="#181818" points="413.3228,1930.6328,423.3228,1934.6328,413.3228,1938.6328,417.3228,1934.6328" style="stroke:#181818;stroke-width:1.0;"/><line style="stroke:#181818;stroke-width:1.0;" x1="30.5586" x2="419.3228" y1="1934.6328" y2="1934.6328"/><text fill="#000000" font-family="sans-serif" font-size="13" lengthAdjust="spacing" textLength="242.5186" x="37.5586" y="1929.7764">set('operating_days', ['Senin', 'Selasa', ...])</text><polygon fill="#181818" points="408.3228,1960.9844,418.3228,1964.9844,408.3228,1968.9844,412.3228,1964.9844" style="stroke:#181818;stroke-width:1.0;"/><line style="stroke:#181818;stroke-width:1.0;" x1="30.5586" x2="414.3228" y1="1964.9844" y2="1964.9844"/><text fill="#000000" font-family="sans-serif" font-size="13" lengthAdjust="spacing" textLength="90.3271" x="37.5586" y="1960.1279">saveSchedule()</text><line style="stroke:#181818;stroke-width:1.0;" x1="430.3228" x2="472.3228" y1="1995.3359" y2="1995.3359"/><line style="stroke:#181818;stroke-width:1.0;" x1="472.3228" x2="472.3228" y1="1995.3359" y2="2008.3359"/><line style="stroke:#181818;stroke-width:1.0;" x1="431.3228" x2="472.3228" y1="2008.3359" y2="2008.3359"/><polygon fill="#181818" points="441.3228,2004.3359,431.3228,2008.3359,441.3228,2012.3359,437.3228,2008.3359" style="stroke:#181818;stroke-width:1.0;"/><text fill="#000000" font-family="sans-serif" font-size="13" lengthAdjust="spacing" textLength="53.4663" x="437.3228" y="1990.4795">validate()</text><polygon fill="#181818" points="675.3472,2034.6875,685.3472,2038.6875,675.3472,2042.6875,679.3472,2038.6875" style="stroke:#181818;stroke-width:1.0;"/><line style="stroke:#181818;stroke-width:1.0;" x1="430.3228" x2="681.3472" y1="2038.6875" y2="2038.6875"/><text fill="#000000" font-family="sans-serif" font-size="13" lengthAdjust="spacing" textLength="144.1489" x="437.3228" y="2033.8311">storeProfile-&gt;update([...])</text><polygon fill="#181818" points="1080.7803,2065.0391,1090.7803,2069.0391,1080.7803,2073.0391,1084.7803,2069.0391" style="stroke:#181818;stroke-width:1.0;"/><line style="stroke:#181818;stroke-width:1.0;" x1="697.3472" x2="1086.7803" y1="2069.0391" y2="2069.0391"/><text fill="#000000" font-family="sans-serif" font-size="13" lengthAdjust="spacing" textLength="371.4331" x="704.3472" y="2064.1826">UPDATE store_profiles SET opening_hour = ?, closing_hour = ?</text><polygon fill="#181818" points="708.3472,2095.3906,698.3472,2099.3906,708.3472,2103.3906,704.3472,2099.3906" style="stroke:#181818;stroke-width:1.0;"/><line style="stroke:#181818;stroke-width:1.0;stroke-dasharray:2.0,2.0;" x1="702.3472" x2="1091.7803" y1="2099.3906" y2="2099.3906"/><text fill="#000000" font-family="sans-serif" font-size="13" lengthAdjust="spacing" textLength="49.1309" x="714.3472" y="2094.5342">Success</text><polygon fill="#181818" points="441.3228,2125.7422,431.3228,2129.7422,441.3228,2133.7422,437.3228,2129.7422" style="stroke:#181818;stroke-width:1.0;"/><line style="stroke:#181818;stroke-width:1.0;stroke-dasharray:2.0,2.0;" x1="435.3228" x2="691.3472" y1="2129.7422" y2="2129.7422"/><text fill="#000000" font-family="sans-serif" font-size="13" lengthAdjust="spacing" textLength="49.1499" x="447.3228" y="2124.8857">Updated</text><polygon fill="#181818" points="225.2593,2156.0938,215.2593,2160.0938,225.2593,2164.0938,221.2593,2160.0938" style="stroke:#181818;stroke-width:1.0;"/><line style="stroke:#181818;stroke-width:1.0;stroke-dasharray:2.0,2.0;" x1="219.2593" x2="424.3228" y1="2160.0938" y2="2160.0938"/><text fill="#000000" font-family="sans-serif" font-size="13" lengthAdjust="spacing" textLength="132.2217" x="231.2593" y="2155.2373">Flash message sukses</text><rect fill="#EEEEEE" height="3" style="stroke:#EEEEEE;stroke-width:1.0;" width="1228.7798" x="0" y="2189.2695"/><line style="stroke:#000000;stroke-width:1.0;" x1="0" x2="1228.7798" y1="2189.2695" y2="2189.2695"/><line style="stroke:#000000;stroke-width:1.0;" x1="0" x2="1228.7798" y1="2192.2695" y2="2192.2695"/><rect fill="#EEEEEE" height="24.3516" style="stroke:#000000;stroke-width:2.0;" width="144.749" x="542.0154" y="2178.0938"/><text fill="#000000" font-family="sans-serif" font-size="13" font-weight="bold" lengthAdjust="spacing" textLength="127.1372" x="548.0154" y="2195.5889">Mengubah Deskripsi</text><polygon fill="#181818" points="202.2593,2230.7969,212.2593,2234.7969,202.2593,2238.7969,206.2593,2234.7969" style="stroke:#181818;stroke-width:1.0;"/><line style="stroke:#181818;stroke-width:1.0;" x1="30.5586" x2="208.2593" y1="2234.7969" y2="2234.7969"/><text fill="#000000" font-family="sans-serif" font-size="13" lengthAdjust="spacing" textLength="77.3081" x="37.5586" y="2229.9404">Edit deskripsi</text><polygon fill="#181818" points="413.3228,2261.1484,423.3228,2265.1484,413.3228,2269.1484,417.3228,2265.1484" style="stroke:#181818;stroke-width:1.0;"/><line style="stroke:#181818;stroke-width:1.0;" x1="30.5586" x2="419.3228" y1="2265.1484" y2="2265.1484"/><text fill="#000000" font-family="sans-serif" font-size="13" lengthAdjust="spacing" textLength="233.1938" x="37.5586" y="2260.292">set('description', 'Toko kue tradisional...')</text><polygon fill="#181818" points="408.3228,2291.5,418.3228,2295.5,408.3228,2299.5,412.3228,2295.5" style="stroke:#181818;stroke-width:1.0;"/><line style="stroke:#181818;stroke-width:1.0;" x1="30.5586" x2="414.3228" y1="2295.5" y2="2295.5"/><text fill="#000000" font-family="sans-serif" font-size="13" lengthAdjust="spacing" textLength="101.1436" x="37.5586" y="2290.6436">saveDescription()</text><polygon fill="#181818" points="675.3472,2321.8516,685.3472,2325.8516,675.3472,2329.8516,679.3472,2325.8516" style="stroke:#181818;stroke-width:1.0;"/><line style="stroke:#181818;stroke-width:1.0;" x1="430.3228" x2="681.3472" y1="2325.8516" y2="2325.8516"/><text fill="#000000" font-family="sans-serif" font-size="13" lengthAdjust="spacing" textLength="230.7817" x="437.3228" y="2320.9951">storeProfile-&gt;update(['description' =&gt; ?])</text><polygon fill="#181818" points="1080.7803,2352.2031,1090.7803,2356.2031,1080.7803,2360.2031,1084.7803,2356.2031" style="stroke:#181818;stroke-width:1.0;"/><line style="stroke:#181818;stroke-width:1.0;" x1="697.3472" x2="1086.7803" y1="2356.2031" y2="2356.2031"/><text fill="#000000" font-family="sans-serif" font-size="13" lengthAdjust="spacing" textLength="251.7988" x="704.3472" y="2351.3467">UPDATE store_profiles SET description = ?</text><polygon fill="#181818" points="708.3472,2382.5547,698.3472,2386.5547,708.3472,2390.5547,704.3472,2386.5547" style="stroke:#181818;stroke-width:1.0;"/><line style="stroke:#181818;stroke-width:1.0;stroke-dasharray:2.0,2.0;" x1="702.3472" x2="1091.7803" y1="2386.5547" y2="2386.5547"/><text fill="#000000" font-family="sans-serif" font-size="13" lengthAdjust="spacing" textLength="49.1309" x="714.3472" y="2381.6982">Success</text><polygon fill="#181818" points="441.3228,2412.9063,431.3228,2416.9063,441.3228,2420.9063,437.3228,2416.9063" style="stroke:#181818;stroke-width:1.0;"/><line style="stroke:#181818;stroke-width:1.0;stroke-dasharray:2.0,2.0;" x1="435.3228" x2="691.3472" y1="2416.9063" y2="2416.9063"/><text fill="#000000" font-family="sans-serif" font-size="13" lengthAdjust="spacing" textLength="49.1499" x="447.3228" y="2412.0498">Updated</text><polygon fill="#181818" points="225.2593,2443.2578,215.2593,2447.2578,225.2593,2451.2578,221.2593,2447.2578" style="stroke:#181818;stroke-width:1.0;"/><line style="stroke:#181818;stroke-width:1.0;stroke-dasharray:2.0,2.0;" x1="219.2593" x2="424.3228" y1="2447.2578" y2="2447.2578"/><text fill="#000000" font-family="sans-serif" font-size="13" lengthAdjust="spacing" textLength="132.2217" x="231.2593" y="2442.4014">Flash message sukses</text><!--SRC=[jLRRSjis47tdL-puHNP7Lcttbd96Jkr87Zan4qqezoNfP5OYJC820HO4hRPVtrrG5r8NnssdBw80dBsVNS19fmJ4ulTAw9c0WSJKOXv297Ggb548OsiUf8Bx4ZCC0fmvOs4iSgda7B24SL2WTN8c2zGEZaQeC4UzbFgilTWH0qTjO4nwH8qId_KRanT62-qyD7uE6fb4A0-BWWGTJh4KS3HO_lC7W-jT1PZMP_4a2FfzYa_935qhEkZtWs0CfvSm2k5gNeeIicKuHGshV18e1_89dQ2GHeoEGyXDfTtnoUOe3c8-Ya9eUX-63zAMBM0KH0mSN1DoU3TyCu5luERZXmXAbljI6oPFxcwZsmcS1uDhEAqLSyXBnrX7xKZJ6aXTEgIo1ebes8izbaByA7GYB2GDFGrWpC4HS1p21FD2gZdbePsF9dmK1DhGryeqSm4mWLPI8IrFuJq9WZDpurTNhCTrmGabgF9T43cIGZwwCscD6OXoRcLHIhzwYpcOGbWifT6e0d8UsEAod3gjffZ1hNumDYSCfQT4sohfEwQiC_dKA1WcqgshLsPcmHit9BfJn5fsamBM3uB5MycghR0ouOux5BleTA4pneNHyAuIdPCs09F4Yh9ap5lLWmWNvEnxquFpisreaL5dCF3irVd5Tz__yEDFhtxUnlZiCKPI_ByKR7LUYTxCv4qaFeaz7AMJ9rIIQC2d0Ie7l_er9N4gR4PVBWp0Yj5bWsEdbrNX9J_rUhtVJZokmJLUhlbzFnvSJORRn8w74o1P3zsGEwvcCyhFIa7jvhqtbVZD5gMNtjMbkb5OPf2JDFKyb1KtSY0KJObrM2ccgDfIcm8BQsd4FIsnpBDWgzHDmZ5RTrdcZnGJUPNy-q8PJC3tPOhv5ErpXRZDoNUkHgkdLlxN3SLiHHV2Ov5swKVGRw5JVnJX7r3AlqG85z5rerEujZViWRUpAMeyMLRrkCDECotPqQroqkZq4fDLFGfqTPH0uLJRPLd2dw6E5prEXGEZ4g_j485gUupoCWpTpu9QdiAyIh36yg3nkwrewGuHnDgMnfCrR3k6TjW3BvkiJtPZPivy9VPLs_Y4Tw1_2Leil1l_kejy87ru_PzRwL1dj4lzWeRpN7F4sNcRSRNSa1ijNFBussfUMRBHH1zkFNILzJV2XysDiDk57lMuTMyqXtuyoqHIAV7omV-8oGBLSwEVR6cfqo-PgMmzjSEpdPa-KwPiWYxEzu2yruvX2Vx9FVcf4xDk5eW59HtfNprscoD-5THNH_rBvlc-TyfX1ZPZPoPseHcev-OkBtSukV-rifTbX-Vo-l7GeWNVyiJtrRkYbMxQdj6s8vfmXYVqL06wHC5PJ6HD7ih9rdqws0ZjV_uTwFgcCMx-r_yurmqD_tTY_mO0]--></g></svg>