<svg xmlns="http://www.w3.org/2000/svg" xmlns:xlink="http://www.w3.org/1999/xlink" contentStyleType="text/css" height="1080px" preserveAspectRatio="none" style="width:1291px;height:1080px;background:#FFFFFF;" version="1.1" viewBox="0 0 1291 1080" width="1291px" zoomAndPan="magnify"><title>Sequence Diagram</title><defs/><g><text fill="#000000" font-family="sans-serif" font-size="14" font-weight="bold" lengthAdjust="spacing" textLength="126.0479" x="581.4971" y="29.5332">Sequence Diagram</text><text fill="#000000" font-family="sans-serif" font-size="14" font-weight="bold" lengthAdjust="spacing" textLength="155.5723" x="566.7349" y="47.1426">Melihat Katalog Produk</text><rect fill="none" height="94.8906" style="stroke:#000000;stroke-width:1.5;" width="619.8115" x="594.4238" y="489.6953"/><rect fill="none" height="48.7031" style="stroke:#000000;stroke-width:1.5;" width="377.3779" x="10" y="871.75"/><line style="stroke:#181818;stroke-width:0.5;stroke-dasharray:5.0,5.0;" x1="60" x2="60" y1="138.8281" y2="998.1563"/><line style="stroke:#181818;stroke-width:0.5;stroke-dasharray:5.0,5.0;" x1="329.4268" x2="329.4268" y1="138.8281" y2="998.1563"/><line style="stroke:#181818;stroke-width:0.5;stroke-dasharray:5.0,5.0;" x1="665.4238" x2="665.4238" y1="138.8281" y2="998.1563"/><line style="stroke:#181818;stroke-width:0.5;stroke-dasharray:5.0,5.0;" x1="1172.9873" x2="1172.9873" y1="138.8281" y2="998.1563"/><line style="stroke:#181818;stroke-width:0.5;stroke-dasharray:5.0,5.0;" x1="1249.2354" x2="1249.2354" y1="138.8281" y2="998.1563"/><text fill="#000000" font-family="sans-serif" font-size="14" lengthAdjust="spacing" textLength="74.7373" x="20" y="135.752">Pengunjung</text><ellipse cx="60.3687" cy="69.7188" fill="#E2E2F0" rx="8" ry="8" style="stroke:#181818;stroke-width:0.5;"/><path d="M60.3687,77.7188 L60.3687,104.7188 M47.3687,85.7188 L73.3687,85.7188 M60.3687,104.7188 L47.3687,119.7188 M60.3687,104.7188 L73.3687,119.7188 " fill="none" style="stroke:#181818;stroke-width:0.5;"/><text fill="#000000" font-family="sans-serif" font-size="14" lengthAdjust="spacing" textLength="74.7373" x="20" y="1011.6895">Pengunjung</text><ellipse cx="60.3687" cy="1023.2656" fill="#E2E2F0" rx="8" ry="8" style="stroke:#181818;stroke-width:0.5;"/><path d="M60.3687,1031.2656 L60.3687,1058.2656 M47.3687,1039.2656 L73.3687,1039.2656 M60.3687,1058.2656 L47.3687,1073.2656 M60.3687,1058.2656 L73.3687,1073.2656 " fill="none" style="stroke:#181818;stroke-width:0.5;"/><rect fill="#E2E2F0" height="31.6094" rx="2.5" ry="2.5" style="stroke:#181818;stroke-width:0.5;" width="94.9512" x="282.4268" y="106.2188"/><text fill="#000000" font-family="sans-serif" font-size="14" lengthAdjust="spacing" textLength="80.9512" x="289.4268" y="127.752">CatalogPage</text><rect fill="#E2E2F0" height="31.6094" rx="2.5" ry="2.5" style="stroke:#181818;stroke-width:0.5;" width="94.9512" x="282.4268" y="997.1563"/><text fill="#000000" font-family="sans-serif" font-size="14" lengthAdjust="spacing" textLength="80.9512" x="289.4268" y="1018.6895">CatalogPage</text><rect fill="#E2E2F0" height="31.6094" rx="2.5" ry="2.5" style="stroke:#181818;stroke-width:0.5;" width="122.9443" x="604.4238" y="106.2188"/><text fill="#000000" font-family="sans-serif" font-size="14" lengthAdjust="spacing" textLength="108.9443" x="611.4238" y="127.752">CatalogController</text><rect fill="#E2E2F0" height="31.6094" rx="2.5" ry="2.5" style="stroke:#181818;stroke-width:0.5;" width="122.9443" x="604.4238" y="997.1563"/><text fill="#000000" font-family="sans-serif" font-size="14" lengthAdjust="spacing" textLength="108.9443" x="611.4238" y="1018.6895">CatalogController</text><rect fill="#E2E2F0" height="31.6094" rx="2.5" ry="2.5" style="stroke:#181818;stroke-width:0.5;" width="62.248" x="1141.9873" y="106.2188"/><text fill="#000000" font-family="sans-serif" font-size="14" lengthAdjust="spacing" textLength="48.248" x="1148.9873" y="127.752">Product</text><rect fill="#E2E2F0" height="31.6094" rx="2.5" ry="2.5" style="stroke:#181818;stroke-width:0.5;" width="62.248" x="1141.9873" y="997.1563"/><text fill="#000000" font-family="sans-serif" font-size="14" lengthAdjust="spacing" textLength="48.248" x="1148.9873" y="1018.6895">Product</text><rect fill="#E2E2F0" height="31.6094" rx="2.5" ry="2.5" style="stroke:#181818;stroke-width:0.5;" width="70.8066" x="1214.2354" y="106.2188"/><text fill="#000000" font-family="sans-serif" font-size="14" lengthAdjust="spacing" textLength="56.8066" x="1221.2354" y="127.752">Category</text><rect fill="#E2E2F0" height="31.6094" rx="2.5" ry="2.5" style="stroke:#181818;stroke-width:0.5;" width="70.8066" x="1214.2354" y="997.1563"/><text fill="#000000" font-family="sans-serif" font-size="14" lengthAdjust="spacing" textLength="56.8066" x="1221.2354" y="1018.6895">Category</text><polygon fill="#181818" points="317.9023,167.1797,327.9023,171.1797,317.9023,175.1797,321.9023,171.1797" style="stroke:#181818;stroke-width:1.0;"/><line style="stroke:#181818;stroke-width:1.0;" x1="60.3687" x2="323.9023" y1="171.1797" y2="171.1797"/><text fill="#000000" font-family="sans-serif" font-size="13" lengthAdjust="spacing" textLength="165.4897" x="112.3906" y="166.3232">Mengakses halaman katalog</text><polygon fill="#181818" points="653.896,197.5313,663.896,201.5313,653.896,205.5313,657.896,201.5313" style="stroke:#181818;stroke-width:1.0;"/><line style="stroke:#181818;stroke-width:1.0;" x1="329.9023" x2="659.896" y1="201.5313" y2="201.5313"/><text fill="#000000" font-family="sans-serif" font-size="13" lengthAdjust="spacing" textLength="311.9937" x="341.9023" y="196.6748">mount(method='Pesanan Reguler', category='Semua')</text><polygon fill="#181818" points="1161.1113,227.8828,1171.1113,231.8828,1161.1113,235.8828,1165.1113,231.8828" style="stroke:#181818;stroke-width:1.0;"/><line style="stroke:#181818;stroke-width:1.0;" x1="665.896" x2="1167.1113" y1="231.8828" y2="231.8828"/><text fill="#000000" font-family="sans-serif" font-size="13" lengthAdjust="spacing" textLength="294.9946" x="772.0063" y="227.0264">where('order_method', 'Pesanan Reguler')-&gt;take(5)</text><polygon fill="#181818" points="1237.6387,258.2344,1247.6387,262.2344,1237.6387,266.2344,1241.6387,262.2344" style="stroke:#181818;stroke-width:1.0;"/><line style="stroke:#181818;stroke-width:1.0;" x1="665.896" x2="1243.6387" y1="262.2344" y2="262.2344"/><text fill="#000000" font-family="sans-serif" font-size="13" lengthAdjust="spacing" textLength="21.6646" x="946.9351" y="257.3779">all()</text><polygon fill="#181818" points="340.9023,288.5859,330.9023,292.5859,340.9023,296.5859,336.9023,292.5859" style="stroke:#181818;stroke-width:1.0;"/><line style="stroke:#181818;stroke-width:1.0;stroke-dasharray:2.0,2.0;" x1="334.9023" x2="664.896" y1="292.5859" y2="292.5859"/><text fill="#000000" font-family="sans-serif" font-size="13" lengthAdjust="spacing" textLength="288.3169" x="353.7407" y="287.7295">displayProducts(products, categories, total_count)</text><polygon fill="#181818" points="317.9023,318.9375,327.9023,322.9375,317.9023,326.9375,321.9023,322.9375" style="stroke:#181818;stroke-width:1.0;"/><line style="stroke:#181818;stroke-width:1.0;" x1="60.3687" x2="323.9023" y1="322.9375" y2="322.9375"/><text fill="#000000" font-family="sans-serif" font-size="13" lengthAdjust="spacing" textLength="151.728" x="119.2715" y="318.0811">Pilih filter metode(method)</text><polygon fill="#181818" points="653.896,349.2891,663.896,353.2891,653.896,357.2891,657.896,353.2891" style="stroke:#181818;stroke-width:1.0;"/><line style="stroke:#181818;stroke-width:1.0;" x1="329.9023" x2="659.896" y1="353.2891" y2="353.2891"/><text fill="#000000" font-family="sans-serif" font-size="13" lengthAdjust="spacing" textLength="135.1099" x="430.3442" y="348.4326">filterByMethod(method)</text><polygon fill="#181818" points="1161.1113,379.6406,1171.1113,383.6406,1161.1113,387.6406,1165.1113,383.6406" style="stroke:#181818;stroke-width:1.0;"/><line style="stroke:#181818;stroke-width:1.0;" x1="665.896" x2="1167.1113" y1="383.6406" y2="383.6406"/><text fill="#000000" font-family="sans-serif" font-size="13" lengthAdjust="spacing" textLength="232.9336" x="803.0369" y="378.7842">where('order_method', method)-&gt;take(5)</text><polygon fill="#181818" points="340.9023,409.9922,330.9023,413.9922,340.9023,417.9922,336.9023,413.9922" style="stroke:#181818;stroke-width:1.0;"/><line style="stroke:#181818;stroke-width:1.0;stroke-dasharray:2.0,2.0;" x1="334.9023" x2="664.896" y1="413.9922" y2="413.9922"/><text fill="#000000" font-family="sans-serif" font-size="13" lengthAdjust="spacing" textLength="220.4097" x="387.6943" y="409.1357">updateProducts(products, total_count)</text><polygon fill="#181818" points="317.9023,440.3438,327.9023,444.3438,317.9023,448.3438,321.9023,444.3438" style="stroke:#181818;stroke-width:1.0;"/><line style="stroke:#181818;stroke-width:1.0;" x1="60.3687" x2="323.9023" y1="444.3438" y2="444.3438"/><text fill="#000000" font-family="sans-serif" font-size="13" lengthAdjust="spacing" textLength="178.4644" x="105.9033" y="439.4873">Pilih filter kategori(category_id)</text><polygon fill="#181818" points="653.896,470.6953,663.896,474.6953,653.896,478.6953,657.896,474.6953" style="stroke:#181818;stroke-width:1.0;"/><line style="stroke:#181818;stroke-width:1.0;" x1="329.9023" x2="659.896" y1="474.6953" y2="474.6953"/><text fill="#000000" font-family="sans-serif" font-size="13" lengthAdjust="spacing" textLength="168.3462" x="413.7261" y="469.8389">filterByCategory(category_id)</text><path d="M594.4238,489.6953 L654.5947,489.6953 L654.5947,498.0469 L644.5947,508.0469 L594.4238,508.0469 L594.4238,489.6953 " fill="#EEEEEE" style="stroke:#000000;stroke-width:1.5;"/><rect fill="none" height="94.8906" style="stroke:#000000;stroke-width:1.5;" width="619.8115" x="594.4238" y="489.6953"/><text fill="#000000" font-family="sans-serif" font-size="13" font-weight="bold" lengthAdjust="spacing" textLength="15.1709" x="609.4238" y="504.1904">alt</text><text fill="#000000" font-family="sans-serif" font-size="11" font-weight="bold" lengthAdjust="spacing" textLength="103.6138" x="669.5947" y="503.1143">[Category = Semua]</text><polygon fill="#181818" points="1161.1113,526.3984,1171.1113,530.3984,1161.1113,534.3984,1165.1113,530.3984" style="stroke:#181818;stroke-width:1.0;"/><line style="stroke:#181818;stroke-width:1.0;" x1="665.896" x2="1167.1113" y1="530.3984" y2="530.3984"/><text fill="#000000" font-family="sans-serif" font-size="13" lengthAdjust="spacing" textLength="280.6235" x="779.1919" y="525.542">where('order_method', current_method)-&gt;take(5)</text><line style="stroke:#000000;stroke-width:1.0;stroke-dasharray:2.0,2.0;" x1="594.4238" x2="1214.2354" y1="539.3984" y2="539.3984"/><text fill="#000000" font-family="sans-serif" font-size="11" font-weight="bold" lengthAdjust="spacing" textLength="100.2461" x="599.4238" y="550.8174">[Category Spesifik]</text><polygon fill="#181818" points="1161.1113,572.5859,1171.1113,576.5859,1161.1113,580.5859,1165.1113,576.5859" style="stroke:#181818;stroke-width:1.0;"/><line style="stroke:#181818;stroke-width:1.0;" x1="665.896" x2="1167.1113" y1="576.5859" y2="576.5859"/><text fill="#000000" font-family="sans-serif" font-size="13" lengthAdjust="spacing" textLength="483.2153" x="677.896" y="571.7295">where('order_method', current_method)-&gt;where('category_id', category_id)-&gt;take(5)</text><polygon fill="#181818" points="340.9023,609.9375,330.9023,613.9375,340.9023,617.9375,336.9023,613.9375" style="stroke:#181818;stroke-width:1.0;"/><line style="stroke:#181818;stroke-width:1.0;stroke-dasharray:2.0,2.0;" x1="334.9023" x2="664.896" y1="613.9375" y2="613.9375"/><text fill="#000000" font-family="sans-serif" font-size="13" lengthAdjust="spacing" textLength="220.4097" x="387.6943" y="609.0811">updateProducts(products, total_count)</text><polygon fill="#181818" points="317.9023,640.2891,327.9023,644.2891,317.9023,648.2891,321.9023,644.2891" style="stroke:#181818;stroke-width:1.0;"/><line style="stroke:#181818;stroke-width:1.0;" x1="60.3687" x2="323.9023" y1="644.2891" y2="644.2891"/><text fill="#000000" font-family="sans-serif" font-size="13" lengthAdjust="spacing" textLength="189.3062" x="100.4824" y="639.4326">Ketik di kolom pencarian(search)</text><polygon fill="#181818" points="653.896,670.6406,663.896,674.6406,653.896,678.6406,657.896,674.6406" style="stroke:#181818;stroke-width:1.0;"/><line style="stroke:#181818;stroke-width:1.0;" x1="329.9023" x2="659.896" y1="674.6406" y2="674.6406"/><text fill="#000000" font-family="sans-serif" font-size="13" lengthAdjust="spacing" textLength="137.998" x="428.9001" y="669.7842">searchProducts(search)</text><polygon fill="#181818" points="1161.1113,700.9922,1171.1113,704.9922,1161.1113,708.9922,1165.1113,704.9922" style="stroke:#181818;stroke-width:1.0;"/><line style="stroke:#181818;stroke-width:1.0;" x1="665.896" x2="1167.1113" y1="704.9922" y2="704.9922"/><text fill="#000000" font-family="sans-serif" font-size="13" lengthAdjust="spacing" textLength="480.1113" x="679.448" y="700.1357">where('name', 'like', '%search%')-&gt;where('order_method', current_method)-&gt;take(5)</text><polygon fill="#181818" points="340.9023,731.3438,330.9023,735.3438,340.9023,739.3438,336.9023,735.3438" style="stroke:#181818;stroke-width:1.0;"/><line style="stroke:#181818;stroke-width:1.0;stroke-dasharray:2.0,2.0;" x1="334.9023" x2="664.896" y1="735.3438" y2="735.3438"/><text fill="#000000" font-family="sans-serif" font-size="13" lengthAdjust="spacing" textLength="220.4097" x="387.6943" y="730.4873">updateProducts(products, total_count)</text><polygon fill="#181818" points="317.9023,761.6953,327.9023,765.6953,317.9023,769.6953,321.9023,765.6953" style="stroke:#181818;stroke-width:1.0;"/><line style="stroke:#181818;stroke-width:1.0;" x1="60.3687" x2="323.9023" y1="765.6953" y2="765.6953"/><text fill="#000000" font-family="sans-serif" font-size="13" lengthAdjust="spacing" textLength="145.082" x="122.5945" y="760.8389">Klik "Muat Lebih Banyak"</text><polygon fill="#181818" points="653.896,792.0469,663.896,796.0469,653.896,800.0469,657.896,796.0469" style="stroke:#181818;stroke-width:1.0;"/><line style="stroke:#181818;stroke-width:1.0;" x1="329.9023" x2="659.896" y1="796.0469" y2="796.0469"/><text fill="#000000" font-family="sans-serif" font-size="13" lengthAdjust="spacing" textLength="139.8008" x="427.9988" y="791.1904">loadMore(offset, limit=5)</text><polygon fill="#181818" points="1161.1113,822.3984,1171.1113,826.3984,1161.1113,830.3984,1165.1113,826.3984" style="stroke:#181818;stroke-width:1.0;"/><line style="stroke:#181818;stroke-width:1.0;" x1="665.896" x2="1167.1113" y1="826.3984" y2="826.3984"/><text fill="#000000" font-family="sans-serif" font-size="13" lengthAdjust="spacing" textLength="246.3462" x="796.3306" y="821.542">applyCurrentFilters()-&gt;skip(offset)-&gt;take(5)</text><polygon fill="#181818" points="340.9023,852.75,330.9023,856.75,340.9023,860.75,336.9023,856.75" style="stroke:#181818;stroke-width:1.0;"/><line style="stroke:#181818;stroke-width:1.0;stroke-dasharray:2.0,2.0;" x1="334.9023" x2="664.896" y1="856.75" y2="856.75"/><text fill="#000000" font-family="sans-serif" font-size="13" lengthAdjust="spacing" textLength="216.0869" x="389.8557" y="851.8936">appendProducts(additional_products)</text><path d="M10,871.75 L70.1709,871.75 L70.1709,880.1016 L60.1709,890.1016 L10,890.1016 L10,871.75 " fill="#EEEEEE" style="stroke:#000000;stroke-width:1.5;"/><rect fill="none" height="48.7031" style="stroke:#000000;stroke-width:1.5;" width="377.3779" x="10" y="871.75"/><text fill="#000000" font-family="sans-serif" font-size="13" font-weight="bold" lengthAdjust="spacing" textLength="15.1709" x="25" y="886.2451">alt</text><text fill="#000000" font-family="sans-serif" font-size="11" font-weight="bold" lengthAdjust="spacing" textLength="186.4199" x="85.1709" y="885.1689">[Semua Produk Sudah Ditampilkan]</text><polygon fill="#181818" points="71.3687,908.4531,61.3687,912.4531,71.3687,916.4531,67.3687,912.4531" style="stroke:#181818;stroke-width:1.0;"/><line style="stroke:#181818;stroke-width:1.0;stroke-dasharray:2.0,2.0;" x1="65.3687" x2="328.9023" y1="912.4531" y2="912.4531"/><text fill="#000000" font-family="sans-serif" font-size="13" lengthAdjust="spacing" textLength="245.5337" x="72.3687" y="907.5967">Sembunyikan tombol "Muat Lebih Banyak"</text><polygon fill="#181818" points="317.9023,945.8047,327.9023,949.8047,317.9023,953.8047,321.9023,949.8047" style="stroke:#181818;stroke-width:1.0;"/><line style="stroke:#181818;stroke-width:1.0;" x1="60.3687" x2="323.9023" y1="949.8047" y2="949.8047"/><text fill="#000000" font-family="sans-serif" font-size="13" lengthAdjust="spacing" textLength="64.3081" x="162.9814" y="944.9482">Klik produk</text><polygon fill="#181818" points="71.3687,976.1563,61.3687,980.1563,71.3687,984.1563,67.3687,980.1563" style="stroke:#181818;stroke-width:1.0;"/><line style="stroke:#181818;stroke-width:1.0;stroke-dasharray:2.0,2.0;" x1="65.3687" x2="328.9023" y1="980.1563" y2="980.1563"/><text fill="#000000" font-family="sans-serif" font-size="13" lengthAdjust="spacing" textLength="216.0552" x="87.1079" y="975.2998">Redirect ke halaman detail produk(id)</text><!--SRC=[hLHDYzim4BtxLmo19Gxi7lUoa8MkIo_RW4cMdWfXOasSgMJ9bMHA_dqdjfmFah9jsLnYDE_Dl3SQJT1iM_JOGA2V7TcA5XG2rlJ9S6sX8Xl9PrdaQ0XM2GAV6MlXVBSBChp32AyOqRWQIkzKfxCCg-WyJ4goTMT_TBQU00Rune7bF9E2aIjkqKQO50Erb9ezg2XlnWjdetV6a1zGnIMgBrp5FbOkhp9GxVn-8BvbMT813yzI3PvW8J9H1mgmGuCDMj13qKp21r0XeCPrDkODnPrJysb90Qq0brHtecbw3rMgCf-kgEbmEik49kHoAUHVE_AKJvrNvDT33g5SPPazF4VKb3-EvE9Do6XCFXoCWXM7rk0-cGvvcpwEAfZaEpeniQuEkcVNfakMguCj6xbW44bEKN8tExSz05xsYpvqGhpdBG4l3OsrkrQ9pXlo_q6oJaxpiV5hlgrylFvBO8OcmXY2EVINbe7ythLMTTxBkrXVMIGJw9HprLBWBUl_J9fWPwBFXknWuQokLTb7zFUL8ciPBj3Ek0PQUUle6MqU27srk-ZkS7GiSKHS-RJOq67M3Ul-_sw0tarF7l-slnzXKMJ0PD79plfA6vcc5xHxr9DpQyQXMZWHvhRRGF4U33SSvuyNxh1jpRuOb7xf9ota8ZLeRXFl3yA5AFTr58vASMHdHVFe8GrdFv5feyAgKxYJlHknQTbejCDKbNtUqUJJWRFfx9u588reDixSDDiFpCtMjCC2lqgy9CMUgWYQZajIKKGsYP8V7jLl]--></g></svg>