<svg xmlns="http://www.w3.org/2000/svg" xmlns:xlink="http://www.w3.org/1999/xlink" contentStyleType="text/css" height="3017px" preserveAspectRatio="none" style="width:970px;height:3017px;background:#FFFFFF;" version="1.1" viewBox="0 0 970 3017" width="970px" zoomAndPan="magnify"><defs/><g><rect fill="none" height="337.7031" style="stroke:#000000;stroke-width:1.5;" width="943.1006" x="10" y="595.9375"/><rect fill="none" height="109.4063" style="stroke:#000000;stroke-width:1.5;" width="724.2446" x="10" y="1485.9688"/><rect fill="none" height="139.7578" style="stroke:#000000;stroke-width:1.5;" width="730.5591" x="222.5415" y="1761.1328"/><rect fill="none" height="246.6484" style="stroke:#000000;stroke-width:1.5;" width="943.1006" x="10" y="2184.7031"/><rect fill="none" height="216.2969" style="stroke:#000000;stroke-width:1.5;" width="943.1006" x="10" y="2671.8125"/><line style="stroke:#181818;stroke-width:0.5;stroke-dasharray:5.0,5.0;" x1="45" x2="45" y1="82.6094" y2="2935.4609"/><line style="stroke:#181818;stroke-width:0.5;stroke-dasharray:5.0,5.0;" x1="272.5415" x2="272.5415" y1="82.6094" y2="2935.4609"/><line style="stroke:#181818;stroke-width:0.5;stroke-dasharray:5.0,5.0;" x1="534.9282" x2="534.9282" y1="82.6094" y2="2935.4609"/><line style="stroke:#181818;stroke-width:0.5;stroke-dasharray:5.0,5.0;" x1="612.0591" x2="612.0591" y1="82.6094" y2="2935.4609"/><line style="stroke:#181818;stroke-width:0.5;stroke-dasharray:5.0,5.0;" x1="693.5483" x2="693.5483" y1="82.6094" y2="2935.4609"/><line style="stroke:#181818;stroke-width:0.5;stroke-dasharray:5.0,5.0;" x1="909.1699" x2="909.1699" y1="82.6094" y2="2935.4609"/><text fill="#000000" font-family="sans-serif" font-size="14" lengthAdjust="spacing" textLength="45.1172" x="20" y="79.5332">Pemilik</text><ellipse cx="45.5586" cy="13.5" fill="#E2E2F0" rx="8" ry="8" style="stroke:#181818;stroke-width:0.5;"/><path d="M45.5586,21.5 L45.5586,48.5 M32.5586,29.5 L58.5586,29.5 M45.5586,48.5 L32.5586,63.5 M45.5586,48.5 L58.5586,63.5 " fill="none" style="stroke:#181818;stroke-width:0.5;"/><text fill="#000000" font-family="sans-serif" font-size="14" lengthAdjust="spacing" textLength="45.1172" x="20" y="2948.9941">Pemilik</text><ellipse cx="45.5586" cy="2960.5703" fill="#E2E2F0" rx="8" ry="8" style="stroke:#181818;stroke-width:0.5;"/><path d="M45.5586,2968.5703 L45.5586,2995.5703 M32.5586,2976.5703 L58.5586,2976.5703 M45.5586,2995.5703 L32.5586,3010.5703 M45.5586,2995.5703 L58.5586,3010.5703 " fill="none" style="stroke:#181818;stroke-width:0.5;"/><rect fill="#E2E2F0" height="49.2188" rx="2.5" ry="2.5" style="stroke:#181818;stroke-width:0.5;" width="80.1445" x="232.5415" y="32.3906"/><text fill="#000000" font-family="sans-serif" font-size="14" lengthAdjust="spacing" textLength="66.1445" x="239.5415" y="53.9238">User Page</text><text fill="#000000" font-family="sans-serif" font-size="14" lengthAdjust="spacing" textLength="60.6758" x="242.2759" y="71.5332">(Livewire)</text><rect fill="#E2E2F0" height="49.2188" rx="2.5" ry="2.5" style="stroke:#181818;stroke-width:0.5;" width="80.1445" x="232.5415" y="2934.4609"/><text fill="#000000" font-family="sans-serif" font-size="14" lengthAdjust="spacing" textLength="66.1445" x="239.5415" y="2955.9941">User Page</text><text fill="#000000" font-family="sans-serif" font-size="14" lengthAdjust="spacing" textLength="60.6758" x="242.2759" y="2973.6035">(Livewire)</text><rect fill="#E2E2F0" height="49.2188" rx="2.5" ry="2.5" style="stroke:#181818;stroke-width:0.5;" width="52.1309" x="508.9282" y="32.3906"/><text fill="#000000" font-family="sans-serif" font-size="14" lengthAdjust="spacing" textLength="29.5586" x="520.2144" y="53.9238">User</text><text fill="#000000" font-family="sans-serif" font-size="14" lengthAdjust="spacing" textLength="38.1309" x="515.9282" y="71.5332">Model</text><rect fill="#E2E2F0" height="49.2188" rx="2.5" ry="2.5" style="stroke:#181818;stroke-width:0.5;" width="52.1309" x="508.9282" y="2934.4609"/><text fill="#000000" font-family="sans-serif" font-size="14" lengthAdjust="spacing" textLength="29.5586" x="520.2144" y="2955.9941">User</text><text fill="#000000" font-family="sans-serif" font-size="14" lengthAdjust="spacing" textLength="38.1309" x="515.9282" y="2973.6035">Model</text><rect fill="#E2E2F0" height="49.2188" rx="2.5" ry="2.5" style="stroke:#181818;stroke-width:0.5;" width="82.4893" x="571.0591" y="32.3906"/><text fill="#000000" font-family="sans-serif" font-size="14" lengthAdjust="spacing" textLength="68.4893" x="578.0591" y="53.9238">SpatieRole</text><text fill="#000000" font-family="sans-serif" font-size="14" lengthAdjust="spacing" textLength="38.1309" x="593.2383" y="71.5332">Model</text><rect fill="#E2E2F0" height="49.2188" rx="2.5" ry="2.5" style="stroke:#181818;stroke-width:0.5;" width="82.4893" x="571.0591" y="2934.4609"/><text fill="#000000" font-family="sans-serif" font-size="14" lengthAdjust="spacing" textLength="68.4893" x="578.0591" y="2955.9941">SpatieRole</text><text fill="#000000" font-family="sans-serif" font-size="14" lengthAdjust="spacing" textLength="38.1309" x="593.2383" y="2973.6035">Model</text><rect fill="#E2E2F0" height="49.2188" rx="2.5" ry="2.5" style="stroke:#181818;stroke-width:0.5;" width="60.6963" x="663.5483" y="32.3906"/><text fill="#000000" font-family="sans-serif" font-size="14" lengthAdjust="spacing" textLength="32.6826" x="677.5552" y="53.9238">Hash</text><text fill="#000000" font-family="sans-serif" font-size="14" lengthAdjust="spacing" textLength="46.6963" x="670.5483" y="71.5332">Facade</text><rect fill="#E2E2F0" height="49.2188" rx="2.5" ry="2.5" style="stroke:#181818;stroke-width:0.5;" width="60.6963" x="663.5483" y="2934.4609"/><text fill="#000000" font-family="sans-serif" font-size="14" lengthAdjust="spacing" textLength="32.6826" x="677.5552" y="2955.9941">Hash</text><text fill="#000000" font-family="sans-serif" font-size="14" lengthAdjust="spacing" textLength="46.6963" x="670.5483" y="2973.6035">Facade</text><text fill="#000000" font-family="sans-serif" font-size="14" lengthAdjust="spacing" textLength="59.9307" x="877.1699" y="79.5332">Database</text><path d="M892.1353,29 C892.1353,19 910.1353,19 910.1353,19 C910.1353,19 928.1353,19 928.1353,29 L928.1353,55 C928.1353,65 910.1353,65 910.1353,65 C910.1353,65 892.1353,65 892.1353,55 L892.1353,29 " fill="#E2E2F0" style="stroke:#181818;stroke-width:1.5;"/><path d="M892.1353,29 C892.1353,39 910.1353,39 910.1353,39 C910.1353,39 928.1353,39 928.1353,29 " fill="none" style="stroke:#181818;stroke-width:1.5;"/><text fill="#000000" font-family="sans-serif" font-size="14" lengthAdjust="spacing" textLength="59.9307" x="877.1699" y="2948.9941">Database</text><path d="M892.1353,2962.0703 C892.1353,2952.0703 910.1353,2952.0703 910.1353,2952.0703 C910.1353,2952.0703 928.1353,2952.0703 928.1353,2962.0703 L928.1353,2988.0703 C928.1353,2998.0703 910.1353,2998.0703 910.1353,2998.0703 C910.1353,2998.0703 892.1353,2998.0703 892.1353,2988.0703 L892.1353,2962.0703 " fill="#E2E2F0" style="stroke:#181818;stroke-width:1.5;"/><path d="M892.1353,2962.0703 C892.1353,2972.0703 910.1353,2972.0703 910.1353,2972.0703 C910.1353,2972.0703 928.1353,2972.0703 928.1353,2962.0703 " fill="none" style="stroke:#181818;stroke-width:1.5;"/><rect fill="#EEEEEE" height="3" style="stroke:#EEEEEE;stroke-width:1.0;" width="963.1006" x="0" y="113.7852"/><line style="stroke:#000000;stroke-width:1.0;" x1="0" x2="963.1006" y1="113.7852" y2="113.7852"/><line style="stroke:#000000;stroke-width:1.0;" x1="0" x2="963.1006" y1="116.7852" y2="116.7852"/><rect fill="#EEEEEE" height="24.3516" style="stroke:#000000;stroke-width:2.0;" width="135.3862" x="413.8572" y="102.6094"/><text fill="#000000" font-family="sans-serif" font-size="13" font-weight="bold" lengthAdjust="spacing" textLength="117.7744" x="419.8572" y="120.1045">Menambah Pekerja</text><polygon fill="#181818" points="260.6138,155.3125,270.6138,159.3125,260.6138,163.3125,264.6138,159.3125" style="stroke:#181818;stroke-width:1.0;"/><line style="stroke:#181818;stroke-width:1.0;" x1="45.5586" x2="266.6138" y1="159.3125" y2="159.3125"/><text fill="#000000" font-family="sans-serif" font-size="13" lengthAdjust="spacing" textLength="129.1685" x="52.5586" y="154.4561">Klik "Tambah Pekerja"</text><polygon fill="#181818" points="600.3037,185.6641,610.3037,189.6641,600.3037,193.6641,604.3037,189.6641" style="stroke:#181818;stroke-width:1.0;"/><line style="stroke:#181818;stroke-width:1.0;" x1="272.6138" x2="606.3037" y1="189.6641" y2="189.6641"/><text fill="#000000" font-family="sans-serif" font-size="13" lengthAdjust="spacing" textLength="21.6646" x="279.6138" y="184.8076">all()</text><polygon fill="#181818" points="898.1353,216.0156,908.1353,220.0156,898.1353,224.0156,902.1353,220.0156" style="stroke:#181818;stroke-width:1.0;"/><line style="stroke:#181818;stroke-width:1.0;" x1="612.3037" x2="904.1353" y1="220.0156" y2="220.0156"/><text fill="#000000" font-family="sans-serif" font-size="13" lengthAdjust="spacing" textLength="132.9136" x="619.3037" y="215.1592">SELECT * FROM roles</text><polygon fill="#181818" points="623.3037,246.3672,613.3037,250.3672,623.3037,254.3672,619.3037,250.3672" style="stroke:#181818;stroke-width:1.0;"/><line style="stroke:#181818;stroke-width:1.0;stroke-dasharray:2.0,2.0;" x1="617.3037" x2="909.1353" y1="250.3672" y2="250.3672"/><text fill="#000000" font-family="sans-serif" font-size="13" lengthAdjust="spacing" textLength="47.6772" x="629.3037" y="245.5107">roles list</text><polygon fill="#181818" points="283.6138,276.7188,273.6138,280.7188,283.6138,284.7188,279.6138,280.7188" style="stroke:#181818;stroke-width:1.0;"/><line style="stroke:#181818;stroke-width:1.0;stroke-dasharray:2.0,2.0;" x1="277.6138" x2="611.3037" y1="280.7188" y2="280.7188"/><text fill="#000000" font-family="sans-serif" font-size="13" lengthAdjust="spacing" textLength="83.1035" x="289.6138" y="275.8623">available roles</text><polygon fill="#181818" points="56.5586,307.0703,46.5586,311.0703,56.5586,315.0703,52.5586,311.0703" style="stroke:#181818;stroke-width:1.0;"/><line style="stroke:#181818;stroke-width:1.0;stroke-dasharray:2.0,2.0;" x1="50.5586" x2="271.6138" y1="311.0703" y2="311.0703"/><text fill="#000000" font-family="sans-serif" font-size="13" lengthAdjust="spacing" textLength="203.0552" x="62.5586" y="306.2139">Tampilkan form dengan pilihan role</text><polygon fill="#181818" points="260.6138,381.3008,270.6138,385.3008,260.6138,389.3008,264.6138,385.3008" style="stroke:#181818;stroke-width:1.0;"/><line style="stroke:#181818;stroke-width:1.0;" x1="45.5586" x2="266.6138" y1="385.3008" y2="385.3008"/><text fill="#000000" font-family="sans-serif" font-size="13" lengthAdjust="spacing" textLength="88.1626" x="52.5586" y="380.4443">Isi data pekerja</text><path d="M277,324.0703 L277,432.0703 L392,432.0703 L392,334.0703 L382,324.0703 L277,324.0703 " fill="#FEFFDD" style="stroke:#181818;stroke-width:0.5;"/><path d="M382,324.0703 L382,334.0703 L392,334.0703 L382,324.0703 " fill="#FEFFDD" style="stroke:#181818;stroke-width:0.5;"/><text fill="#000000" font-family="sans-serif" font-size="13" lengthAdjust="spacing" textLength="42.6182" x="283" y="342.5654">- Nama</text><text fill="#000000" font-family="sans-serif" font-size="13" lengthAdjust="spacing" textLength="40.4473" x="283" y="358.917">- Email</text><text fill="#000000" font-family="sans-serif" font-size="13" lengthAdjust="spacing" textLength="93.209" x="283" y="375.2686">- Nomor telepon</text><text fill="#000000" font-family="sans-serif" font-size="13" lengthAdjust="spacing" textLength="65.019" x="283" y="391.6201">- Password</text><text fill="#000000" font-family="sans-serif" font-size="13" lengthAdjust="spacing" textLength="86.6963" x="283" y="407.9717">- Jenis kelamin</text><text fill="#000000" font-family="sans-serif" font-size="13" lengthAdjust="spacing" textLength="94.6499" x="283" y="424.3232">- Foto (opsional)</text><polygon fill="#181818" points="260.6138,455.5313,270.6138,459.5313,260.6138,463.5313,264.6138,459.5313" style="stroke:#181818;stroke-width:1.0;"/><line style="stroke:#181818;stroke-width:1.0;" x1="45.5586" x2="266.6138" y1="459.5313" y2="459.5313"/><text fill="#000000" font-family="sans-serif" font-size="13" lengthAdjust="spacing" textLength="49.8545" x="52.5586" y="454.6748">Pilih role</text><polygon fill="#181818" points="260.6138,485.8828,270.6138,489.8828,260.6138,493.8828,264.6138,489.8828" style="stroke:#181818;stroke-width:1.0;"/><line style="stroke:#181818;stroke-width:1.0;" x1="45.5586" x2="266.6138" y1="489.8828" y2="489.8828"/><text fill="#000000" font-family="sans-serif" font-size="13" lengthAdjust="spacing" textLength="44.0781" x="52.5586" y="485.0264">Simpan</text><polygon fill="#181818" points="522.9937,516.2344,532.9937,520.2344,522.9937,524.2344,526.9937,520.2344" style="stroke:#181818;stroke-width:1.0;"/><line style="stroke:#181818;stroke-width:1.0;" x1="272.6138" x2="528.9937" y1="520.2344" y2="520.2344"/><text fill="#000000" font-family="sans-serif" font-size="13" lengthAdjust="spacing" textLength="172.1929" x="279.6138" y="515.3779">where('email', email)-&gt;exists()</text><polygon fill="#181818" points="898.1353,546.5859,908.1353,550.5859,898.1353,554.5859,902.1353,550.5859" style="stroke:#181818;stroke-width:1.0;"/><line style="stroke:#181818;stroke-width:1.0;" x1="534.9937" x2="904.1353" y1="550.5859" y2="550.5859"/><text fill="#000000" font-family="sans-serif" font-size="13" lengthAdjust="spacing" textLength="245.248" x="541.9937" y="545.7295">SELECT * FROM users WHERE email = ?</text><polygon fill="#181818" points="545.9937,576.9375,535.9937,580.9375,545.9937,584.9375,541.9937,580.9375" style="stroke:#181818;stroke-width:1.0;"/><line style="stroke:#181818;stroke-width:1.0;stroke-dasharray:2.0,2.0;" x1="539.9937" x2="909.1353" y1="580.9375" y2="580.9375"/><text fill="#000000" font-family="sans-serif" font-size="13" lengthAdjust="spacing" textLength="70.8018" x="551.9937" y="576.0811">exists check</text><path d="M10,595.9375 L70.1709,595.9375 L70.1709,604.2891 L60.1709,614.2891 L10,614.2891 L10,595.9375 " fill="#EEEEEE" style="stroke:#000000;stroke-width:1.5;"/><rect fill="none" height="337.7031" style="stroke:#000000;stroke-width:1.5;" width="943.1006" x="10" y="595.9375"/><text fill="#000000" font-family="sans-serif" font-size="13" font-weight="bold" lengthAdjust="spacing" textLength="15.1709" x="25" y="610.4326">alt</text><text fill="#000000" font-family="sans-serif" font-size="11" font-weight="bold" lengthAdjust="spacing" textLength="119.8022" x="85.1709" y="609.3564">[Email sudah terdaftar]</text><polygon fill="#181818" points="56.5586,632.6406,46.5586,636.6406,56.5586,640.6406,52.5586,636.6406" style="stroke:#181818;stroke-width:1.0;"/><line style="stroke:#181818;stroke-width:1.0;stroke-dasharray:2.0,2.0;" x1="50.5586" x2="271.6138" y1="636.6406" y2="636.6406"/><text fill="#000000" font-family="sans-serif" font-size="13" lengthAdjust="spacing" textLength="171.2598" x="62.5586" y="631.7842">Error: Email sudah digunakan</text><line style="stroke:#000000;stroke-width:1.0;stroke-dasharray:2.0,2.0;" x1="10" x2="953.1006" y1="645.6406" y2="645.6406"/><text fill="#000000" font-family="sans-serif" font-size="11" font-weight="bold" lengthAdjust="spacing" textLength="63.5669" x="15" y="657.0596">[Email baru]</text><polygon fill="#181818" points="681.8965,678.8281,691.8965,682.8281,681.8965,686.8281,685.8965,682.8281" style="stroke:#181818;stroke-width:1.0;"/><line style="stroke:#181818;stroke-width:1.0;" x1="272.6138" x2="687.8965" y1="682.8281" y2="682.8281"/><text fill="#000000" font-family="sans-serif" font-size="13" lengthAdjust="spacing" textLength="96.0845" x="279.6138" y="677.9717">make(password)</text><polygon fill="#181818" points="283.6138,709.1797,273.6138,713.1797,283.6138,717.1797,279.6138,713.1797" style="stroke:#181818;stroke-width:1.0;"/><line style="stroke:#181818;stroke-width:1.0;stroke-dasharray:2.0,2.0;" x1="277.6138" x2="692.8965" y1="713.1797" y2="713.1797"/><text fill="#000000" font-family="sans-serif" font-size="13" lengthAdjust="spacing" textLength="101.8989" x="289.6138" y="708.3232">hashed password</text><polygon fill="#181818" points="522.9937,739.5313,532.9937,743.5313,522.9937,747.5313,526.9937,743.5313" style="stroke:#181818;stroke-width:1.0;"/><line style="stroke:#181818;stroke-width:1.0;" x1="272.6138" x2="528.9937" y1="743.5313" y2="743.5313"/><text fill="#000000" font-family="sans-serif" font-size="13" lengthAdjust="spacing" textLength="97.5381" x="279.6138" y="738.6748">create(userData)</text><polygon fill="#181818" points="898.1353,769.8828,908.1353,773.8828,898.1353,777.8828,902.1353,773.8828" style="stroke:#181818;stroke-width:1.0;"/><line style="stroke:#181818;stroke-width:1.0;" x1="534.9937" x2="904.1353" y1="773.8828" y2="773.8828"/><text fill="#000000" font-family="sans-serif" font-size="13" lengthAdjust="spacing" textLength="117.7363" x="541.9937" y="769.0264">INSERT INTO users</text><polygon fill="#181818" points="545.9937,800.2344,535.9937,804.2344,545.9937,808.2344,541.9937,804.2344" style="stroke:#181818;stroke-width:1.0;"/><line style="stroke:#181818;stroke-width:1.0;stroke-dasharray:2.0,2.0;" x1="539.9937" x2="909.1353" y1="804.2344" y2="804.2344"/><text fill="#000000" font-family="sans-serif" font-size="13" lengthAdjust="spacing" textLength="72.2617" x="551.9937" y="799.3779">user created</text><polygon fill="#181818" points="522.9937,830.5859,532.9937,834.5859,522.9937,838.5859,526.9937,834.5859" style="stroke:#181818;stroke-width:1.0;"/><line style="stroke:#181818;stroke-width:1.0;" x1="272.6138" x2="528.9937" y1="834.5859" y2="834.5859"/><text fill="#000000" font-family="sans-serif" font-size="13" lengthAdjust="spacing" textLength="148.1289" x="279.6138" y="829.7295">assignRole(selectedRole)</text><polygon fill="#181818" points="898.1353,860.9375,908.1353,864.9375,898.1353,868.9375,902.1353,864.9375" style="stroke:#181818;stroke-width:1.0;"/><line style="stroke:#181818;stroke-width:1.0;" x1="534.9937" x2="904.1353" y1="864.9375" y2="864.9375"/><text fill="#000000" font-family="sans-serif" font-size="13" lengthAdjust="spacing" textLength="184.9517" x="541.9937" y="860.0811">INSERT INTO model_has_roles</text><polygon fill="#181818" points="545.9937,891.2891,535.9937,895.2891,545.9937,899.2891,541.9937,895.2891" style="stroke:#181818;stroke-width:1.0;"/><line style="stroke:#181818;stroke-width:1.0;stroke-dasharray:2.0,2.0;" x1="539.9937" x2="909.1353" y1="895.2891" y2="895.2891"/><text fill="#000000" font-family="sans-serif" font-size="13" lengthAdjust="spacing" textLength="77.3271" x="551.9937" y="890.4326">role assigned</text><polygon fill="#181818" points="56.5586,921.6406,46.5586,925.6406,56.5586,929.6406,52.5586,925.6406" style="stroke:#181818;stroke-width:1.0;"/><line style="stroke:#181818;stroke-width:1.0;stroke-dasharray:2.0,2.0;" x1="50.5586" x2="271.6138" y1="925.6406" y2="925.6406"/><text fill="#000000" font-family="sans-serif" font-size="13" lengthAdjust="spacing" textLength="171.2661" x="62.5586" y="920.7842">Pekerja berhasil ditambahkan</text><rect fill="#EEEEEE" height="3" style="stroke:#EEEEEE;stroke-width:1.0;" width="963.1006" x="0" y="961.8164"/><line style="stroke:#000000;stroke-width:1.0;" x1="0" x2="963.1006" y1="961.8164" y2="961.8164"/><line style="stroke:#000000;stroke-width:1.0;" x1="0" x2="963.1006" y1="964.8164" y2="964.8164"/><rect fill="#EEEEEE" height="24.3516" style="stroke:#000000;stroke-width:2.0;" width="151.2808" x="405.9099" y="950.6406"/><text fill="#000000" font-family="sans-serif" font-size="13" font-weight="bold" lengthAdjust="spacing" textLength="133.6689" x="411.9099" y="968.1357">Melihat Detail Pekerja</text><polygon fill="#181818" points="260.6138,1003.3438,270.6138,1007.3438,260.6138,1011.3438,264.6138,1007.3438" style="stroke:#181818;stroke-width:1.0;"/><line style="stroke:#181818;stroke-width:1.0;" x1="45.5586" x2="266.6138" y1="1007.3438" y2="1007.3438"/><text fill="#000000" font-family="sans-serif" font-size="13" lengthAdjust="spacing" textLength="70.8145" x="52.5586" y="1002.4873">Pilih pekerja</text><polygon fill="#181818" points="522.9937,1033.6953,532.9937,1037.6953,522.9937,1041.6953,526.9937,1037.6953" style="stroke:#181818;stroke-width:1.0;"/><line style="stroke:#181818;stroke-width:1.0;" x1="272.6138" x2="528.9937" y1="1037.6953" y2="1037.6953"/><text fill="#000000" font-family="sans-serif" font-size="13" lengthAdjust="spacing" textLength="116.5747" x="279.6138" y="1032.8389">find(id)-&gt;with('roles')</text><polygon fill="#181818" points="898.1353,1064.0469,908.1353,1068.0469,898.1353,1072.0469,902.1353,1068.0469" style="stroke:#181818;stroke-width:1.0;"/><line style="stroke:#181818;stroke-width:1.0;" x1="534.9937" x2="904.1353" y1="1068.0469" y2="1068.0469"/><text fill="#000000" font-family="sans-serif" font-size="13" lengthAdjust="spacing" textLength="164.0298" x="541.9937" y="1063.1904">SELECT dengan relasi roles</text><polygon fill="#181818" points="545.9937,1094.3984,535.9937,1098.3984,545.9937,1102.3984,541.9937,1098.3984" style="stroke:#181818;stroke-width:1.0;"/><line style="stroke:#181818;stroke-width:1.0;stroke-dasharray:2.0,2.0;" x1="539.9937" x2="909.1353" y1="1098.3984" y2="1098.3984"/><text fill="#000000" font-family="sans-serif" font-size="13" lengthAdjust="spacing" textLength="83.8081" x="551.9937" y="1093.542">user with roles</text><polygon fill="#181818" points="600.3037,1124.75,610.3037,1128.75,600.3037,1132.75,604.3037,1128.75" style="stroke:#181818;stroke-width:1.0;"/><line style="stroke:#181818;stroke-width:1.0;" x1="272.6138" x2="606.3037" y1="1128.75" y2="1128.75"/><text fill="#000000" font-family="sans-serif" font-size="13" lengthAdjust="spacing" textLength="97.5254" x="279.6138" y="1123.8936">getPermissions()</text><polygon fill="#181818" points="898.1353,1155.1016,908.1353,1159.1016,898.1353,1163.1016,902.1353,1159.1016" style="stroke:#181818;stroke-width:1.0;"/><line style="stroke:#181818;stroke-width:1.0;" x1="612.3037" x2="904.1353" y1="1159.1016" y2="1159.1016"/><text fill="#000000" font-family="sans-serif" font-size="13" lengthAdjust="spacing" textLength="273.8315" x="619.3037" y="1154.2451">SELECT permissions via role_has_permissions</text><polygon fill="#181818" points="623.3037,1185.4531,613.3037,1189.4531,623.3037,1193.4531,619.3037,1189.4531" style="stroke:#181818;stroke-width:1.0;"/><line style="stroke:#181818;stroke-width:1.0;stroke-dasharray:2.0,2.0;" x1="617.3037" x2="909.1353" y1="1189.4531" y2="1189.4531"/><text fill="#000000" font-family="sans-serif" font-size="13" lengthAdjust="spacing" textLength="88.8545" x="629.3037" y="1184.5967">permissions list</text><polygon fill="#181818" points="56.5586,1243.332,46.5586,1247.332,56.5586,1251.332,52.5586,1247.332" style="stroke:#181818;stroke-width:1.0;"/><line style="stroke:#181818;stroke-width:1.0;stroke-dasharray:2.0,2.0;" x1="50.5586" x2="271.6138" y1="1247.332" y2="1247.332"/><text fill="#000000" font-family="sans-serif" font-size="13" lengthAdjust="spacing" textLength="140.9053" x="62.5586" y="1242.4756">Tampilkan detail pekerja</text><path d="M277,1202.4531 L277,1277.4531 L448,1277.4531 L448,1212.4531 L438,1202.4531 L277,1202.4531 " fill="#FEFFDD" style="stroke:#181818;stroke-width:0.5;"/><path d="M438,1202.4531 L438,1212.4531 L448,1212.4531 L438,1202.4531 " fill="#FEFFDD" style="stroke:#181818;stroke-width:0.5;"/><text fill="#000000" font-family="sans-serif" font-size="13" lengthAdjust="spacing" textLength="75.8735" x="283" y="1220.9482">- Info pekerja</text><text fill="#000000" font-family="sans-serif" font-size="13" lengthAdjust="spacing" textLength="109.0908" x="283" y="1237.2998">- Role yang dimiliki</text><text fill="#000000" font-family="sans-serif" font-size="13" lengthAdjust="spacing" textLength="150.2998" x="283" y="1253.6514">- Permission yang didapat</text><text fill="#000000" font-family="sans-serif" font-size="13" lengthAdjust="spacing" textLength="104.749" x="283" y="1270.0029">- Riwayat aktivitas</text><rect fill="#EEEEEE" height="3" style="stroke:#EEEEEE;stroke-width:1.0;" width="963.1006" x="0" y="1304.0352"/><line style="stroke:#000000;stroke-width:1.0;" x1="0" x2="963.1006" y1="1304.0352" y2="1304.0352"/><line style="stroke:#000000;stroke-width:1.0;" x1="0" x2="963.1006" y1="1307.0352" y2="1307.0352"/><rect fill="#EEEEEE" height="24.3516" style="stroke:#000000;stroke-width:2.0;" width="124.5381" x="419.2813" y="1292.8594"/><text fill="#000000" font-family="sans-serif" font-size="13" font-weight="bold" lengthAdjust="spacing" textLength="106.9263" x="425.2813" y="1310.3545">Mengedit Pekerja</text><polygon fill="#181818" points="260.6138,1345.5625,270.6138,1349.5625,260.6138,1353.5625,264.6138,1349.5625" style="stroke:#181818;stroke-width:1.0;"/><line style="stroke:#181818;stroke-width:1.0;" x1="45.5586" x2="266.6138" y1="1349.5625" y2="1349.5625"/><text fill="#000000" font-family="sans-serif" font-size="13" lengthAdjust="spacing" textLength="49.1372" x="52.5586" y="1344.7061">Pilih edit</text><polygon fill="#181818" points="522.9937,1375.9141,532.9937,1379.9141,522.9937,1383.9141,526.9937,1379.9141" style="stroke:#181818;stroke-width:1.0;"/><line style="stroke:#181818;stroke-width:1.0;" x1="272.6138" x2="528.9937" y1="1379.9141" y2="1379.9141"/><text fill="#000000" font-family="sans-serif" font-size="13" lengthAdjust="spacing" textLength="116.5747" x="279.6138" y="1375.0576">find(id)-&gt;with('roles')</text><polygon fill="#181818" points="283.6138,1406.2656,273.6138,1410.2656,283.6138,1414.2656,279.6138,1410.2656" style="stroke:#181818;stroke-width:1.0;"/><line style="stroke:#181818;stroke-width:1.0;stroke-dasharray:2.0,2.0;" x1="277.6138" x2="533.9937" y1="1410.2656" y2="1410.2656"/><text fill="#000000" font-family="sans-serif" font-size="13" lengthAdjust="spacing" textLength="54.2026" x="289.6138" y="1405.4092">user data</text><polygon fill="#181818" points="56.5586,1436.6172,46.5586,1440.6172,56.5586,1444.6172,52.5586,1440.6172" style="stroke:#181818;stroke-width:1.0;"/><line style="stroke:#181818;stroke-width:1.0;stroke-dasharray:2.0,2.0;" x1="50.5586" x2="271.6138" y1="1440.6172" y2="1440.6172"/><text fill="#000000" font-family="sans-serif" font-size="13" lengthAdjust="spacing" textLength="114.1499" x="62.5586" y="1435.7607">Tampilkan form edit</text><polygon fill="#181818" points="260.6138,1466.9688,270.6138,1470.9688,260.6138,1474.9688,264.6138,1470.9688" style="stroke:#181818;stroke-width:1.0;"/><line style="stroke:#181818;stroke-width:1.0;" x1="45.5586" x2="266.6138" y1="1470.9688" y2="1470.9688"/><text fill="#000000" font-family="sans-serif" font-size="13" lengthAdjust="spacing" textLength="59.9917" x="52.5586" y="1466.1123">Ubah data</text><path d="M10,1485.9688 L70.1709,1485.9688 L70.1709,1494.3203 L60.1709,1504.3203 L10,1504.3203 L10,1485.9688 " fill="#EEEEEE" style="stroke:#000000;stroke-width:1.5;"/><rect fill="none" height="109.4063" style="stroke:#000000;stroke-width:1.5;" width="724.2446" x="10" y="1485.9688"/><text fill="#000000" font-family="sans-serif" font-size="13" font-weight="bold" lengthAdjust="spacing" textLength="15.1709" x="25" y="1500.4639">alt</text><text fill="#000000" font-family="sans-serif" font-size="11" font-weight="bold" lengthAdjust="spacing" textLength="89.23" x="85.1709" y="1499.3877">[Ubah password]</text><polygon fill="#181818" points="260.6138,1522.6719,270.6138,1526.6719,260.6138,1530.6719,264.6138,1526.6719" style="stroke:#181818;stroke-width:1.0;"/><line style="stroke:#181818;stroke-width:1.0;" x1="45.5586" x2="266.6138" y1="1526.6719" y2="1526.6719"/><text fill="#000000" font-family="sans-serif" font-size="13" lengthAdjust="spacing" textLength="148.1289" x="52.5586" y="1521.8154">Masukkan password baru</text><polygon fill="#181818" points="681.8965,1553.0234,691.8965,1557.0234,681.8965,1561.0234,685.8965,1557.0234" style="stroke:#181818;stroke-width:1.0;"/><line style="stroke:#181818;stroke-width:1.0;" x1="272.6138" x2="687.8965" y1="1557.0234" y2="1557.0234"/><text fill="#000000" font-family="sans-serif" font-size="13" lengthAdjust="spacing" textLength="121.3735" x="279.6138" y="1552.167">make(newPassword)</text><polygon fill="#181818" points="283.6138,1583.375,273.6138,1587.375,283.6138,1591.375,279.6138,1587.375" style="stroke:#181818;stroke-width:1.0;"/><line style="stroke:#181818;stroke-width:1.0;stroke-dasharray:2.0,2.0;" x1="277.6138" x2="692.8965" y1="1587.375" y2="1587.375"/><text fill="#000000" font-family="sans-serif" font-size="13" lengthAdjust="spacing" textLength="101.8989" x="289.6138" y="1582.5186">hashed password</text><polygon fill="#181818" points="260.6138,1620.7266,270.6138,1624.7266,260.6138,1628.7266,264.6138,1624.7266" style="stroke:#181818;stroke-width:1.0;"/><line style="stroke:#181818;stroke-width:1.0;" x1="45.5586" x2="266.6138" y1="1624.7266" y2="1624.7266"/><text fill="#000000" font-family="sans-serif" font-size="13" lengthAdjust="spacing" textLength="117.0635" x="52.5586" y="1619.8701">Ubah role (opsional)</text><polygon fill="#181818" points="260.6138,1651.0781,270.6138,1655.0781,260.6138,1659.0781,264.6138,1655.0781" style="stroke:#181818;stroke-width:1.0;"/><line style="stroke:#181818;stroke-width:1.0;" x1="45.5586" x2="266.6138" y1="1655.0781" y2="1655.0781"/><text fill="#000000" font-family="sans-serif" font-size="13" lengthAdjust="spacing" textLength="44.0781" x="52.5586" y="1650.2217">Simpan</text><polygon fill="#181818" points="522.9937,1681.4297,532.9937,1685.4297,522.9937,1689.4297,526.9937,1685.4297" style="stroke:#181818;stroke-width:1.0;"/><line style="stroke:#181818;stroke-width:1.0;" x1="272.6138" x2="528.9937" y1="1685.4297" y2="1685.4297"/><text fill="#000000" font-family="sans-serif" font-size="13" lengthAdjust="spacing" textLength="73.7217" x="279.6138" y="1680.5732">update(data)</text><polygon fill="#181818" points="898.1353,1711.7813,908.1353,1715.7813,898.1353,1719.7813,902.1353,1715.7813" style="stroke:#181818;stroke-width:1.0;"/><line style="stroke:#181818;stroke-width:1.0;" x1="534.9937" x2="904.1353" y1="1715.7813" y2="1715.7813"/><text fill="#000000" font-family="sans-serif" font-size="13" lengthAdjust="spacing" textLength="88.1309" x="541.9937" y="1710.9248">UPDATE users</text><polygon fill="#181818" points="545.9937,1742.1328,535.9937,1746.1328,545.9937,1750.1328,541.9937,1746.1328" style="stroke:#181818;stroke-width:1.0;"/><line style="stroke:#181818;stroke-width:1.0;stroke-dasharray:2.0,2.0;" x1="539.9937" x2="909.1353" y1="1746.1328" y2="1746.1328"/><text fill="#000000" font-family="sans-serif" font-size="13" lengthAdjust="spacing" textLength="46.9917" x="551.9937" y="1741.2764">updated</text><path d="M222.5415,1761.1328 L282.7124,1761.1328 L282.7124,1769.4844 L272.7124,1779.4844 L222.5415,1779.4844 L222.5415,1761.1328 " fill="#EEEEEE" style="stroke:#000000;stroke-width:1.5;"/><rect fill="none" height="139.7578" style="stroke:#000000;stroke-width:1.5;" width="730.5591" x="222.5415" y="1761.1328"/><text fill="#000000" font-family="sans-serif" font-size="13" font-weight="bold" lengthAdjust="spacing" textLength="15.1709" x="237.5415" y="1775.6279">alt</text><text fill="#000000" font-family="sans-serif" font-size="11" font-weight="bold" lengthAdjust="spacing" textLength="77.6123" x="297.7124" y="1774.5518">[Role berubah]</text><polygon fill="#181818" points="522.9937,1797.8359,532.9937,1801.8359,522.9937,1805.8359,526.9937,1801.8359" style="stroke:#181818;stroke-width:1.0;"/><line style="stroke:#181818;stroke-width:1.0;" x1="272.6138" x2="528.9937" y1="1801.8359" y2="1801.8359"/><text fill="#000000" font-family="sans-serif" font-size="13" lengthAdjust="spacing" textLength="126.4326" x="279.6138" y="1796.9795">syncRoles([newRole])</text><polygon fill="#181818" points="898.1353,1828.1875,908.1353,1832.1875,898.1353,1836.1875,902.1353,1832.1875" style="stroke:#181818;stroke-width:1.0;"/><line style="stroke:#181818;stroke-width:1.0;" x1="534.9937" x2="904.1353" y1="1832.1875" y2="1832.1875"/><text fill="#000000" font-family="sans-serif" font-size="13" lengthAdjust="spacing" textLength="325.4824" x="541.9937" y="1827.3311">DELETE FROM model_has_roles WHERE model_id = ?</text><polygon fill="#181818" points="898.1353,1858.5391,908.1353,1862.5391,898.1353,1866.5391,902.1353,1862.5391" style="stroke:#181818;stroke-width:1.0;"/><line style="stroke:#181818;stroke-width:1.0;" x1="534.9937" x2="904.1353" y1="1862.5391" y2="1862.5391"/><text fill="#000000" font-family="sans-serif" font-size="13" lengthAdjust="spacing" textLength="184.9517" x="541.9937" y="1857.6826">INSERT INTO model_has_roles</text><polygon fill="#181818" points="545.9937,1888.8906,535.9937,1892.8906,545.9937,1896.8906,541.9937,1892.8906" style="stroke:#181818;stroke-width:1.0;"/><line style="stroke:#181818;stroke-width:1.0;stroke-dasharray:2.0,2.0;" x1="539.9937" x2="909.1353" y1="1892.8906" y2="1892.8906"/><text fill="#000000" font-family="sans-serif" font-size="13" lengthAdjust="spacing" textLength="66.479" x="551.9937" y="1888.0342">role synced</text><polygon fill="#181818" points="56.5586,1926.2422,46.5586,1930.2422,56.5586,1934.2422,52.5586,1930.2422" style="stroke:#181818;stroke-width:1.0;"/><line style="stroke:#181818;stroke-width:1.0;stroke-dasharray:2.0,2.0;" x1="50.5586" x2="271.6138" y1="1930.2422" y2="1930.2422"/><text fill="#000000" font-family="sans-serif" font-size="13" lengthAdjust="spacing" textLength="146.707" x="62.5586" y="1925.3857">Pekerja berhasil diupdate</text><rect fill="#EEEEEE" height="3" style="stroke:#EEEEEE;stroke-width:1.0;" width="963.1006" x="0" y="1959.418"/><line style="stroke:#000000;stroke-width:1.0;" x1="0" x2="963.1006" y1="1959.418" y2="1959.418"/><line style="stroke:#000000;stroke-width:1.0;" x1="0" x2="963.1006" y1="1962.418" y2="1962.418"/><rect fill="#EEEEEE" height="24.3516" style="stroke:#000000;stroke-width:2.0;" width="118.0444" x="422.5281" y="1948.2422"/><text fill="#000000" font-family="sans-serif" font-size="13" font-weight="bold" lengthAdjust="spacing" textLength="100.4326" x="428.5281" y="1965.7373">Reset Password</text><polygon fill="#181818" points="260.6138,2000.9453,270.6138,2004.9453,260.6138,2008.9453,264.6138,2004.9453" style="stroke:#181818;stroke-width:1.0;"/><line style="stroke:#181818;stroke-width:1.0;" x1="45.5586" x2="266.6138" y1="2004.9453" y2="2004.9453"/><text fill="#000000" font-family="sans-serif" font-size="13" lengthAdjust="spacing" textLength="132.0566" x="52.5586" y="2000.0889">Pilih "Reset Password"</text><polygon fill="#181818" points="56.5586,2031.2969,46.5586,2035.2969,56.5586,2039.2969,52.5586,2035.2969" style="stroke:#181818;stroke-width:1.0;"/><line style="stroke:#181818;stroke-width:1.0;stroke-dasharray:2.0,2.0;" x1="50.5586" x2="271.6138" y1="2035.2969" y2="2035.2969"/><text fill="#000000" font-family="sans-serif" font-size="13" lengthAdjust="spacing" textLength="122.0908" x="62.5586" y="2030.4404">Form reset password</text><polygon fill="#181818" points="260.6138,2061.6484,270.6138,2065.6484,260.6138,2069.6484,264.6138,2065.6484" style="stroke:#181818;stroke-width:1.0;"/><line style="stroke:#181818;stroke-width:1.0;" x1="45.5586" x2="266.6138" y1="2065.6484" y2="2065.6484"/><text fill="#000000" font-family="sans-serif" font-size="13" lengthAdjust="spacing" textLength="148.1289" x="52.5586" y="2060.792">Masukkan password baru</text><polygon fill="#181818" points="260.6138,2092,270.6138,2096,260.6138,2100,264.6138,2096" style="stroke:#181818;stroke-width:1.0;"/><line style="stroke:#181818;stroke-width:1.0;" x1="45.5586" x2="266.6138" y1="2096" y2="2096"/><text fill="#000000" font-family="sans-serif" font-size="13" lengthAdjust="spacing" textLength="120.6563" x="52.5586" y="2091.1436">Konfirmasi password</text><polygon fill="#181818" points="260.6138,2122.3516,270.6138,2126.3516,260.6138,2130.3516,264.6138,2126.3516" style="stroke:#181818;stroke-width:1.0;"/><line style="stroke:#181818;stroke-width:1.0;" x1="45.5586" x2="266.6138" y1="2126.3516" y2="2126.3516"/><text fill="#000000" font-family="sans-serif" font-size="13" lengthAdjust="spacing" textLength="44.0781" x="52.5586" y="2121.4951">Simpan</text><line style="stroke:#181818;stroke-width:1.0;" x1="272.6138" x2="314.6138" y1="2156.7031" y2="2156.7031"/><line style="stroke:#181818;stroke-width:1.0;" x1="314.6138" x2="314.6138" y1="2156.7031" y2="2169.7031"/><line style="stroke:#181818;stroke-width:1.0;" x1="273.6138" x2="314.6138" y1="2169.7031" y2="2169.7031"/><polygon fill="#181818" points="283.6138,2165.7031,273.6138,2169.7031,283.6138,2173.7031,279.6138,2169.7031" style="stroke:#181818;stroke-width:1.0;"/><text fill="#000000" font-family="sans-serif" font-size="13" lengthAdjust="spacing" textLength="143.7871" x="279.6138" y="2151.8467">Validasi password match</text><path d="M10,2184.7031 L70.1709,2184.7031 L70.1709,2193.0547 L60.1709,2203.0547 L10,2203.0547 L10,2184.7031 " fill="#EEEEEE" style="stroke:#000000;stroke-width:1.5;"/><rect fill="none" height="246.6484" style="stroke:#000000;stroke-width:1.5;" width="943.1006" x="10" y="2184.7031"/><text fill="#000000" font-family="sans-serif" font-size="13" font-weight="bold" lengthAdjust="spacing" textLength="15.1709" x="25" y="2199.1982">alt</text><text fill="#000000" font-family="sans-serif" font-size="11" font-weight="bold" lengthAdjust="spacing" textLength="119.2114" x="85.1709" y="2198.1221">[Password tidak sama]</text><polygon fill="#181818" points="56.5586,2221.4063,46.5586,2225.4063,56.5586,2229.4063,52.5586,2225.4063" style="stroke:#181818;stroke-width:1.0;"/><line style="stroke:#181818;stroke-width:1.0;stroke-dasharray:2.0,2.0;" x1="50.5586" x2="271.6138" y1="2225.4063" y2="2225.4063"/><text fill="#000000" font-family="sans-serif" font-size="13" lengthAdjust="spacing" textLength="161.8335" x="62.5586" y="2220.5498">Error: Password tidak cocok</text><line style="stroke:#000000;stroke-width:1.0;stroke-dasharray:2.0,2.0;" x1="10" x2="953.1006" y1="2234.4063" y2="2234.4063"/><text fill="#000000" font-family="sans-serif" font-size="11" font-weight="bold" lengthAdjust="spacing" textLength="94.1392" x="15" y="2245.8252">[Password cocok]</text><polygon fill="#181818" points="681.8965,2267.5938,691.8965,2271.5938,681.8965,2275.5938,685.8965,2271.5938" style="stroke:#181818;stroke-width:1.0;"/><line style="stroke:#181818;stroke-width:1.0;" x1="272.6138" x2="687.8965" y1="2271.5938" y2="2271.5938"/><text fill="#000000" font-family="sans-serif" font-size="13" lengthAdjust="spacing" textLength="121.3735" x="279.6138" y="2266.7373">make(newPassword)</text><polygon fill="#181818" points="283.6138,2297.9453,273.6138,2301.9453,283.6138,2305.9453,279.6138,2301.9453" style="stroke:#181818;stroke-width:1.0;"/><line style="stroke:#181818;stroke-width:1.0;stroke-dasharray:2.0,2.0;" x1="277.6138" x2="692.8965" y1="2301.9453" y2="2301.9453"/><text fill="#000000" font-family="sans-serif" font-size="13" lengthAdjust="spacing" textLength="101.8989" x="289.6138" y="2297.0889">hashed password</text><polygon fill="#181818" points="522.9937,2328.2969,532.9937,2332.2969,522.9937,2336.2969,526.9937,2332.2969" style="stroke:#181818;stroke-width:1.0;"/><line style="stroke:#181818;stroke-width:1.0;" x1="272.6138" x2="528.9937" y1="2332.2969" y2="2332.2969"/><text fill="#000000" font-family="sans-serif" font-size="13" lengthAdjust="spacing" textLength="238.3799" x="279.6138" y="2327.4404">update(['password' =&gt; hashedPassword])</text><polygon fill="#181818" points="898.1353,2358.6484,908.1353,2362.6484,898.1353,2366.6484,902.1353,2362.6484" style="stroke:#181818;stroke-width:1.0;"/><line style="stroke:#181818;stroke-width:1.0;" x1="534.9937" x2="904.1353" y1="2362.6484" y2="2362.6484"/><text fill="#000000" font-family="sans-serif" font-size="13" lengthAdjust="spacing" textLength="198.3198" x="541.9937" y="2357.792">UPDATE users SET password = ?</text><polygon fill="#181818" points="545.9937,2389,535.9937,2393,545.9937,2397,541.9937,2393" style="stroke:#181818;stroke-width:1.0;"/><line style="stroke:#181818;stroke-width:1.0;stroke-dasharray:2.0,2.0;" x1="539.9937" x2="909.1353" y1="2393" y2="2393"/><text fill="#000000" font-family="sans-serif" font-size="13" lengthAdjust="spacing" textLength="46.9917" x="551.9937" y="2388.1436">updated</text><polygon fill="#181818" points="56.5586,2419.3516,46.5586,2423.3516,56.5586,2427.3516,52.5586,2423.3516" style="stroke:#181818;stroke-width:1.0;"/><line style="stroke:#181818;stroke-width:1.0;stroke-dasharray:2.0,2.0;" x1="50.5586" x2="271.6138" y1="2423.3516" y2="2423.3516"/><text fill="#000000" font-family="sans-serif" font-size="13" lengthAdjust="spacing" textLength="148.8462" x="62.5586" y="2418.4951">Password berhasil direset</text><rect fill="#EEEEEE" height="3" style="stroke:#EEEEEE;stroke-width:1.0;" width="963.1006" x="0" y="2459.5273"/><line style="stroke:#000000;stroke-width:1.0;" x1="0" x2="963.1006" y1="2459.5273" y2="2459.5273"/><line style="stroke:#000000;stroke-width:1.0;" x1="0" x2="963.1006" y1="2462.5273" y2="2462.5273"/><rect fill="#EEEEEE" height="24.3516" style="stroke:#000000;stroke-width:2.0;" width="139.709" x="411.6958" y="2448.3516"/><text fill="#000000" font-family="sans-serif" font-size="13" font-weight="bold" lengthAdjust="spacing" textLength="122.0972" x="417.6958" y="2465.8467">Menghapus Pekerja</text><polygon fill="#181818" points="260.6138,2501.0547,270.6138,2505.0547,260.6138,2509.0547,264.6138,2505.0547" style="stroke:#181818;stroke-width:1.0;"/><line style="stroke:#181818;stroke-width:1.0;" x1="45.5586" x2="266.6138" y1="2505.0547" y2="2505.0547"/><text fill="#000000" font-family="sans-serif" font-size="13" lengthAdjust="spacing" textLength="63.5972" x="52.5586" y="2500.1982">Pilih hapus</text><polygon fill="#181818" points="56.5586,2531.4063,46.5586,2535.4063,56.5586,2539.4063,52.5586,2535.4063" style="stroke:#181818;stroke-width:1.0;"/><line style="stroke:#181818;stroke-width:1.0;stroke-dasharray:2.0,2.0;" x1="50.5586" x2="271.6138" y1="2535.4063" y2="2535.4063"/><text fill="#000000" font-family="sans-serif" font-size="13" lengthAdjust="spacing" textLength="107.6689" x="62.5586" y="2530.5498">Konfirmasi hapus?</text><polygon fill="#181818" points="260.6138,2561.7578,270.6138,2565.7578,260.6138,2569.7578,264.6138,2565.7578" style="stroke:#181818;stroke-width:1.0;"/><line style="stroke:#181818;stroke-width:1.0;" x1="45.5586" x2="266.6138" y1="2565.7578" y2="2565.7578"/><text fill="#000000" font-family="sans-serif" font-size="13" lengthAdjust="spacing" textLength="61.4072" x="52.5586" y="2560.9014">Konfirmasi</text><polygon fill="#181818" points="522.9937,2592.1094,532.9937,2596.1094,522.9937,2600.1094,526.9937,2596.1094" style="stroke:#181818;stroke-width:1.0;"/><line style="stroke:#181818;stroke-width:1.0;" x1="272.6138" x2="528.9937" y1="2596.1094" y2="2596.1094"/><text fill="#000000" font-family="sans-serif" font-size="13" lengthAdjust="spacing" textLength="90.3145" x="279.6138" y="2591.2529">checkUsage(id)</text><polygon fill="#181818" points="898.1353,2622.4609,908.1353,2626.4609,898.1353,2630.4609,902.1353,2626.4609" style="stroke:#181818;stroke-width:1.0;"/><line style="stroke:#181818;stroke-width:1.0;" x1="534.9937" x2="904.1353" y1="2626.4609" y2="2626.4609"/><text fill="#000000" font-family="sans-serif" font-size="13" lengthAdjust="spacing" textLength="286.4507" x="541.9937" y="2621.6045">SELECT FROM transactions WHERE user_id = ?</text><polygon fill="#181818" points="898.1353,2652.8125,908.1353,2656.8125,898.1353,2660.8125,902.1353,2656.8125" style="stroke:#181818;stroke-width:1.0;"/><line style="stroke:#181818;stroke-width:1.0;" x1="534.9937" x2="904.1353" y1="2656.8125" y2="2656.8125"/><text fill="#000000" font-family="sans-serif" font-size="13" lengthAdjust="spacing" textLength="294.7534" x="541.9937" y="2651.9561">SELECT FROM productions WHERE user involves</text><path d="M10,2671.8125 L70.1709,2671.8125 L70.1709,2680.1641 L60.1709,2690.1641 L10,2690.1641 L10,2671.8125 " fill="#EEEEEE" style="stroke:#000000;stroke-width:1.5;"/><rect fill="none" height="216.2969" style="stroke:#000000;stroke-width:1.5;" width="943.1006" x="10" y="2671.8125"/><text fill="#000000" font-family="sans-serif" font-size="13" font-weight="bold" lengthAdjust="spacing" textLength="15.1709" x="25" y="2686.3076">alt</text><text fill="#000000" font-family="sans-serif" font-size="11" font-weight="bold" lengthAdjust="spacing" textLength="129.0029" x="85.1709" y="2685.2314">[Pekerja punya aktivitas]</text><polygon fill="#181818" points="56.5586,2708.5156,46.5586,2712.5156,56.5586,2716.5156,52.5586,2712.5156" style="stroke:#181818;stroke-width:1.0;"/><line style="stroke:#181818;stroke-width:1.0;stroke-dasharray:2.0,2.0;" x1="50.5586" x2="271.6138" y1="2712.5156" y2="2712.5156"/><text fill="#000000" font-family="sans-serif" font-size="13" lengthAdjust="spacing" textLength="179.9561" x="62.5586" y="2707.6592">Peringatan: Akan dinonaktifkan</text><polygon fill="#181818" points="522.9937,2738.8672,532.9937,2742.8672,522.9937,2746.8672,526.9937,2742.8672" style="stroke:#181818;stroke-width:1.0;"/><line style="stroke:#181818;stroke-width:1.0;" x1="272.6138" x2="528.9937" y1="2742.8672" y2="2742.8672"/><text fill="#000000" font-family="sans-serif" font-size="13" lengthAdjust="spacing" textLength="161.0527" x="279.6138" y="2738.0107">update(['is_active' =&gt; false])</text><polygon fill="#181818" points="898.1353,2769.2188,908.1353,2773.2188,898.1353,2777.2188,902.1353,2773.2188" style="stroke:#181818;stroke-width:1.0;"/><line style="stroke:#181818;stroke-width:1.0;" x1="534.9937" x2="904.1353" y1="2773.2188" y2="2773.2188"/><text fill="#000000" font-family="sans-serif" font-size="13" lengthAdjust="spacing" textLength="213.4907" x="541.9937" y="2768.3623">UPDATE users SET is_active = false</text><line style="stroke:#000000;stroke-width:1.0;stroke-dasharray:2.0,2.0;" x1="10" x2="953.1006" y1="2782.2188" y2="2782.2188"/><text fill="#000000" font-family="sans-serif" font-size="11" font-weight="bold" lengthAdjust="spacing" textLength="105.1499" x="15" y="2793.6377">[Tidak ada aktivitas]</text><polygon fill="#181818" points="522.9937,2815.4063,532.9937,2819.4063,522.9937,2823.4063,526.9937,2819.4063" style="stroke:#181818;stroke-width:1.0;"/><line style="stroke:#181818;stroke-width:1.0;" x1="272.6138" x2="528.9937" y1="2819.4063" y2="2819.4063"/><text fill="#000000" font-family="sans-serif" font-size="13" lengthAdjust="spacing" textLength="54.1963" x="279.6138" y="2814.5498">delete(id)</text><polygon fill="#181818" points="898.1353,2845.7578,908.1353,2849.7578,898.1353,2853.7578,902.1353,2849.7578" style="stroke:#181818;stroke-width:1.0;"/><line style="stroke:#181818;stroke-width:1.0;" x1="534.9937" x2="904.1353" y1="2849.7578" y2="2849.7578"/><text fill="#000000" font-family="sans-serif" font-size="13" lengthAdjust="spacing" textLength="127.8545" x="541.9937" y="2844.9014">DELETE FROM users</text><polygon fill="#181818" points="898.1353,2876.1094,908.1353,2880.1094,898.1353,2884.1094,902.1353,2880.1094" style="stroke:#181818;stroke-width:1.0;"/><line style="stroke:#181818;stroke-width:1.0;" x1="534.9937" x2="904.1353" y1="2880.1094" y2="2880.1094"/><text fill="#000000" font-family="sans-serif" font-size="13" lengthAdjust="spacing" textLength="325.4824" x="541.9937" y="2875.2529">DELETE FROM model_has_roles WHERE model_id = ?</text><polygon fill="#181818" points="56.5586,2913.4609,46.5586,2917.4609,56.5586,2921.4609,52.5586,2917.4609" style="stroke:#181818;stroke-width:1.0;"/><line style="stroke:#181818;stroke-width:1.0;stroke-dasharray:2.0,2.0;" x1="50.5586" x2="271.6138" y1="2917.4609" y2="2917.4609"/><text fill="#000000" font-family="sans-serif" font-size="13" lengthAdjust="spacing" textLength="142.3652" x="62.5586" y="2912.6045">Pekerja berhasil dihapus</text><!--SRC=[hLRRRjj647tdLmpq8hceVq207CILZBYD4y6MsuUuCCRSbRGLkIHsLrBzzvsP9IdIeXK5wHF9kUrSpfmbfg5mCDUvoSmcAT45aveIRO31ezUamPL-igFFPgVtnkcB0Q0NuR7jaxqhbCx4Wh-x5Wyb1gFlYqotxVYxQ_S9_Vh9tc2AIei92nA50L_GQvZMBwIPNYV9P09tscB-WckgOgFTFmYJIL8L19TNakmO_k2lmQ9ZE4WILh8Hvp46pBBHHSBlB9jUZ-5Xzddssm9-WPlxhtVWIEEJwJLSDYuYWipuKFar9-8EJOOl98jkrLciZycDWT8fJRP12yl2vQ2qNT4xYSoQdkoM75TowmrmEw2CLIIs27I6MQr30d09Np17UPdbb40K5JaDEUXCbuKLoHoztnTEoSVlsXeF6vrXRgBwfWW5Z8hIcy9YTf5egu2FwKbdpjd6N8zq3oQdeHwwpAWOmtwjdHuDDQSt_1NaUN5vfV-b9dhgl-2kj_zRqdZuwzFiVXRTO08Vwdd4u34Af6kTRf84in3R07whQF11EuNBW8wg13WUoCovWeAqNPHPRItIZ1AT4UoYwWNTjXNYIa0wXXmtUbHMhRqG0rQqGB6cJwsWFBGVe1CeLf4wZK6Fk5u6V0pLxiljbuVP_O8UYw-nAsBHwGIBgq3ldaDfc9Lbu8uyeICbK_uuVLxEs_jCbJn7O1-TpE8gzF7HxNRN2_kY7OMZlYeJP4EbtLPLwyth462g0xV-r997BDPxqIrrQQmQ6KL0svkm7Wqbzs4lsgezTBGGj6kTfM-rbiDqLxlcX9KES-routbzV3-Zb0S3s1cKGDBJbgBBD6qFuPkJXA9YjzxXY5kxB1eT2oJ3LxGh6e74Cf4ccZDhfKBYyUXYzlXASy5DC3kQcs-nH6JbbQPvdZ4mDlkXQJN-CWWcm- -JgnnodC4ZtmSIGSX2FZlRUUHnXtwxuR2rsKasi7e__n524DJtPobhrIBbC-bsMohc4YKyqaRxutpwSJ6hwAEBRt5HiIK23ThGBUNGGo7-rQPiuaVVg5P- -_kOFgO4UZfAIFmDVLHq7gL62QF_FFjmLhhkvZcy4qiMvDvhhqDpGvx0xQ1hEUWvwOQXvyIi6N5oBgIEVs8AkpGkPrPgedqN1L7w9sQqkor7WcT8rt74JQs1R3RWun_4YGloZKDQfCKcte-D9ih-fwruv_ggeFrjM1iEON9LETVnUz3O1ZxnyUBGanfylTjmwY9hvdP0b4ozTOlPrHhBhJ-33yMk1qojyOl9XrC8UKi3yaVqw4d6lDftxSbs1eVMOnhacechoNsgD_Czjz8LQdla1SRkYcp7DwJ0hAgytDfNRDqRx_qSE4FtS40xXezofHbBn4TUI_uzE846uv-vWfqME2oHS7aE2XetgbIS8g8N0d5K_HdNXnCfwH1RUuhy3lzgFq6FvxDQHD9_]--></g></svg>