<svg xmlns="http://www.w3.org/2000/svg" xmlns:xlink="http://www.w3.org/1999/xlink" contentStyleType="text/css" height="939px" preserveAspectRatio="none" style="width:1423px;height:939px;background:#FFFFFF;" version="1.1" viewBox="0 0 1423 939" width="1423px" zoomAndPan="magnify"><title>Sequence Diagram</title><defs/><g><text fill="#000000" font-family="sans-serif" font-size="14" font-weight="bold" lengthAdjust="spacing" textLength="126.0479" x="647.5535" y="29.5332">Sequence Diagram</text><text fill="#000000" font-family="sans-serif" font-size="14" font-weight="bold" lengthAdjust="spacing" textLength="118.2275" x="651.4636" y="47.1426">Penggunaan Poin</text><rect fill="none" height="168.5938" style="stroke:#000000;stroke-width:1.5;" width="948.667" x="10" y="368.2891"/><line style="stroke:#181818;stroke-width:0.5;stroke-dasharray:5.0,5.0;" x1="38" x2="38" y1="138.8281" y2="857.3984"/><line style="stroke:#181818;stroke-width:0.5;stroke-dasharray:5.0,5.0;" x1="346.0601" x2="346.0601" y1="138.8281" y2="857.3984"/><line style="stroke:#181818;stroke-width:0.5;stroke-dasharray:5.0,5.0;" x1="728.4521" x2="728.4521" y1="138.8281" y2="857.3984"/><line style="stroke:#181818;stroke-width:0.5;stroke-dasharray:5.0,5.0;" x1="953.3257" x2="953.3257" y1="138.8281" y2="857.3984"/><line style="stroke:#181818;stroke-width:0.5;stroke-dasharray:5.0,5.0;" x1="1044.0083" x2="1044.0083" y1="138.8281" y2="857.3984"/><line style="stroke:#181818;stroke-width:0.5;stroke-dasharray:5.0,5.0;" x1="1368.686" x2="1368.686" y1="138.8281" y2="857.3984"/><text fill="#000000" font-family="sans-serif" font-size="14" lengthAdjust="spacing" textLength="31.8965" x="20" y="135.752">Kasir</text><ellipse cx="38.9482" cy="69.7188" fill="#E2E2F0" rx="8" ry="8" style="stroke:#181818;stroke-width:0.5;"/><path d="M38.9482,77.7188 L38.9482,104.7188 M25.9482,85.7188 L51.9482,85.7188 M38.9482,104.7188 L25.9482,119.7188 M38.9482,104.7188 L51.9482,119.7188 " fill="none" style="stroke:#181818;stroke-width:0.5;"/><text fill="#000000" font-family="sans-serif" font-size="14" lengthAdjust="spacing" textLength="31.8965" x="20" y="870.9316">Kasir</text><ellipse cx="38.9482" cy="882.5078" fill="#E2E2F0" rx="8" ry="8" style="stroke:#181818;stroke-width:0.5;"/><path d="M38.9482,890.5078 L38.9482,917.5078 M25.9482,898.5078 L51.9482,898.5078 M38.9482,917.5078 L25.9482,932.5078 M38.9482,917.5078 L51.9482,932.5078 " fill="none" style="stroke:#181818;stroke-width:0.5;"/><rect fill="#E2E2F0" height="31.6094" rx="2.5" ry="2.5" style="stroke:#181818;stroke-width:0.5;" width="119.8408" x="287.0601" y="106.2188"/><text fill="#000000" font-family="sans-serif" font-size="14" lengthAdjust="spacing" textLength="105.8408" x="294.0601" y="127.752">TransactionPage</text><rect fill="#E2E2F0" height="31.6094" rx="2.5" ry="2.5" style="stroke:#181818;stroke-width:0.5;" width="119.8408" x="287.0601" y="856.3984"/><text fill="#000000" font-family="sans-serif" font-size="14" lengthAdjust="spacing" textLength="105.8408" x="294.0601" y="877.9316">TransactionPage</text><rect fill="#E2E2F0" height="31.6094" rx="2.5" ry="2.5" style="stroke:#181818;stroke-width:0.5;" width="147.834" x="655.4521" y="106.2188"/><text fill="#000000" font-family="sans-serif" font-size="14" lengthAdjust="spacing" textLength="133.834" x="662.4521" y="127.752">TransactionController</text><rect fill="#E2E2F0" height="31.6094" rx="2.5" ry="2.5" style="stroke:#181818;stroke-width:0.5;" width="147.834" x="655.4521" y="856.3984"/><text fill="#000000" font-family="sans-serif" font-size="14" lengthAdjust="spacing" textLength="133.834" x="662.4521" y="877.9316">TransactionController</text><rect fill="#E2E2F0" height="31.6094" rx="2.5" ry="2.5" style="stroke:#181818;stroke-width:0.5;" width="74.6826" x="916.3257" y="106.2188"/><text fill="#000000" font-family="sans-serif" font-size="14" lengthAdjust="spacing" textLength="60.6826" x="923.3257" y="127.752">Customer</text><rect fill="#E2E2F0" height="31.6094" rx="2.5" ry="2.5" style="stroke:#181818;stroke-width:0.5;" width="74.6826" x="916.3257" y="856.3984"/><text fill="#000000" font-family="sans-serif" font-size="14" lengthAdjust="spacing" textLength="60.6826" x="923.3257" y="877.9316">Customer</text><rect fill="#E2E2F0" height="31.6094" rx="2.5" ry="2.5" style="stroke:#181818;stroke-width:0.5;" width="87.1445" x="1001.0083" y="106.2188"/><text fill="#000000" font-family="sans-serif" font-size="14" lengthAdjust="spacing" textLength="73.1445" x="1008.0083" y="127.752">Transaction</text><rect fill="#E2E2F0" height="31.6094" rx="2.5" ry="2.5" style="stroke:#181818;stroke-width:0.5;" width="87.1445" x="1001.0083" y="856.3984"/><text fill="#000000" font-family="sans-serif" font-size="14" lengthAdjust="spacing" textLength="73.1445" x="1008.0083" y="877.9316">Transaction</text><rect fill="#E2E2F0" height="31.6094" rx="2.5" ry="2.5" style="stroke:#181818;stroke-width:0.5;" width="96.4688" x="1320.686" y="106.2188"/><text fill="#000000" font-family="sans-serif" font-size="14" lengthAdjust="spacing" textLength="82.4688" x="1327.686" y="127.752">PointsHistory</text><rect fill="#E2E2F0" height="31.6094" rx="2.5" ry="2.5" style="stroke:#181818;stroke-width:0.5;" width="96.4688" x="1320.686" y="856.3984"/><text fill="#000000" font-family="sans-serif" font-size="14" lengthAdjust="spacing" textLength="82.4688" x="1327.686" y="877.9316">PointsHistory</text><polygon fill="#181818" points="334.9805,167.1797,344.9805,171.1797,334.9805,175.1797,338.9805,171.1797" style="stroke:#181818;stroke-width:1.0;"/><line style="stroke:#181818;stroke-width:1.0;" x1="38.9482" x2="340.9805" y1="171.1797" y2="171.1797"/><text fill="#000000" font-family="sans-serif" font-size="13" lengthAdjust="spacing" textLength="234.8696" x="75.5295" y="166.3232">Memproses transaksi dengan pelanggan</text><polygon fill="#181818" points="717.3691,197.5313,727.3691,201.5313,717.3691,205.5313,721.3691,201.5313" style="stroke:#181818;stroke-width:1.0;"/><line style="stroke:#181818;stroke-width:1.0;" x1="346.9805" x2="723.3691" y1="201.5313" y2="201.5313"/><text fill="#000000" font-family="sans-serif" font-size="13" lengthAdjust="spacing" textLength="169.7744" x="453.2876" y="196.6748">selectCustomer(customer_id)</text><polygon fill="#181818" points="941.667,227.8828,951.667,231.8828,941.667,235.8828,945.667,231.8828" style="stroke:#181818;stroke-width:1.0;"/><line style="stroke:#181818;stroke-width:1.0;" x1="729.3691" x2="947.667" y1="231.8828" y2="231.8828"/><text fill="#000000" font-family="sans-serif" font-size="13" lengthAdjust="spacing" textLength="100.4263" x="791.3049" y="227.0264">find(customer_id)</text><polygon fill="#181818" points="357.9805,258.2344,347.9805,262.2344,357.9805,266.2344,353.9805,262.2344" style="stroke:#181818;stroke-width:1.0;"/><line style="stroke:#181818;stroke-width:1.0;stroke-dasharray:2.0,2.0;" x1="351.9805" x2="728.3691" y1="262.2344" y2="262.2344"/><text fill="#000000" font-family="sans-serif" font-size="13" lengthAdjust="spacing" textLength="234.8442" x="420.7527" y="257.3779">showCustomerInfo(name, phone, points)</text><polygon fill="#181818" points="334.9805,288.5859,344.9805,292.5859,334.9805,296.5859,338.9805,292.5859" style="stroke:#181818;stroke-width:1.0;"/><line style="stroke:#181818;stroke-width:1.0;" x1="38.9482" x2="340.9805" y1="292.5859" y2="292.5859"/><text fill="#000000" font-family="sans-serif" font-size="13" lengthAdjust="spacing" textLength="284.0322" x="50.9482" y="287.7295">Input jumlah poin yang digunakan(points_to_use)</text><polygon fill="#181818" points="717.3691,318.9375,727.3691,322.9375,717.3691,326.9375,721.3691,322.9375" style="stroke:#181818;stroke-width:1.0;"/><line style="stroke:#181818;stroke-width:1.0;" x1="346.9805" x2="723.3691" y1="322.9375" y2="322.9375"/><text fill="#000000" font-family="sans-serif" font-size="13" lengthAdjust="spacing" textLength="234.8506" x="420.7495" y="318.0811">applyPoints(customer_id, points_to_use)</text><polygon fill="#181818" points="941.667,349.2891,951.667,353.2891,941.667,357.2891,945.667,353.2891" style="stroke:#181818;stroke-width:1.0;"/><line style="stroke:#181818;stroke-width:1.0;" x1="729.3691" x2="947.667" y1="353.2891" y2="353.2891"/><text fill="#000000" font-family="sans-serif" font-size="13" lengthAdjust="spacing" textLength="100.4263" x="791.3049" y="348.4326">find(customer_id)</text><path d="M10,368.2891 L70.1709,368.2891 L70.1709,376.6406 L60.1709,386.6406 L10,386.6406 L10,368.2891 " fill="#EEEEEE" style="stroke:#000000;stroke-width:1.5;"/><rect fill="none" height="168.5938" style="stroke:#000000;stroke-width:1.5;" width="948.667" x="10" y="368.2891"/><text fill="#000000" font-family="sans-serif" font-size="13" font-weight="bold" lengthAdjust="spacing" textLength="15.1709" x="25" y="382.7842">alt</text><text fill="#000000" font-family="sans-serif" font-size="11" font-weight="bold" lengthAdjust="spacing" textLength="111.2246" x="85.1709" y="381.708">[Poin Melebihi Saldo]</text><polygon fill="#181818" points="357.9805,404.9922,347.9805,408.9922,357.9805,412.9922,353.9805,408.9922" style="stroke:#181818;stroke-width:1.0;"/><line style="stroke:#181818;stroke-width:1.0;stroke-dasharray:2.0,2.0;" x1="351.9805" x2="728.3691" y1="408.9922" y2="408.9922"/><text fill="#000000" font-family="sans-serif" font-size="13" lengthAdjust="spacing" textLength="320.6582" x="377.8457" y="404.1357">showError("Poin tidak cukup. Saldo: {customer.points}")</text><line style="stroke:#000000;stroke-width:1.0;stroke-dasharray:2.0,2.0;" x1="10" x2="958.667" y1="417.9922" y2="417.9922"/><text fill="#000000" font-family="sans-serif" font-size="11" font-weight="bold" lengthAdjust="spacing" textLength="60.5" x="15" y="429.4111">[Poin Valid]</text><line style="stroke:#181818;stroke-width:1.0;" x1="729.3691" x2="771.3691" y1="455.1797" y2="455.1797"/><line style="stroke:#181818;stroke-width:1.0;" x1="771.3691" x2="771.3691" y1="455.1797" y2="468.1797"/><line style="stroke:#181818;stroke-width:1.0;" x1="730.3691" x2="771.3691" y1="468.1797" y2="468.1797"/><polygon fill="#181818" points="740.3691,464.1797,730.3691,468.1797,740.3691,472.1797,736.3691,468.1797" style="stroke:#181818;stroke-width:1.0;"/><text fill="#000000" font-family="sans-serif" font-size="13" lengthAdjust="spacing" textLength="210.2979" x="736.3691" y="450.3232">calculatePointsValue(points_to_use)</text><polygon fill="#181818" points="357.9805,494.5313,347.9805,498.5313,357.9805,502.5313,353.9805,498.5313" style="stroke:#181818;stroke-width:1.0;"/><line style="stroke:#181818;stroke-width:1.0;stroke-dasharray:2.0,2.0;" x1="351.9805" x2="728.3691" y1="498.5313" y2="498.5313"/><text fill="#000000" font-family="sans-serif" font-size="13" lengthAdjust="spacing" textLength="162.5825" x="456.8835" y="493.6748">showDiscount(points_value)</text><polygon fill="#181818" points="49.9482,524.8828,39.9482,528.8828,49.9482,532.8828,45.9482,528.8828" style="stroke:#181818;stroke-width:1.0;"/><line style="stroke:#181818;stroke-width:1.0;stroke-dasharray:2.0,2.0;" x1="43.9482" x2="345.9805" y1="528.8828" y2="528.8828"/><text fill="#000000" font-family="sans-serif" font-size="13" lengthAdjust="spacing" textLength="133.7007" x="126.114" y="524.0264">Tampil potongan harga</text><polygon fill="#181818" points="334.9805,562.2344,344.9805,566.2344,334.9805,570.2344,338.9805,566.2344" style="stroke:#181818;stroke-width:1.0;"/><line style="stroke:#181818;stroke-width:1.0;" x1="38.9482" x2="340.9805" y1="566.2344" y2="566.2344"/><text fill="#000000" font-family="sans-serif" font-size="13" lengthAdjust="spacing" textLength="212.4688" x="86.73" y="561.3779">Konfirmasi pembayaran dengan poin</text><polygon fill="#181818" points="717.3691,592.5859,727.3691,596.5859,717.3691,600.5859,721.3691,596.5859" style="stroke:#181818;stroke-width:1.0;"/><line style="stroke:#181818;stroke-width:1.0;" x1="346.9805" x2="723.3691" y1="596.5859" y2="596.5859"/><text fill="#000000" font-family="sans-serif" font-size="13" lengthAdjust="spacing" textLength="358.3887" x="358.9805" y="591.7295">processPaymentWithPoints(customer_id, points_to_use, total)</text><polygon fill="#181818" points="941.667,622.9375,951.667,626.9375,941.667,630.9375,945.667,626.9375" style="stroke:#181818;stroke-width:1.0;"/><line style="stroke:#181818;stroke-width:1.0;" x1="729.3691" x2="947.667" y1="626.9375" y2="626.9375"/><text fill="#000000" font-family="sans-serif" font-size="13" lengthAdjust="spacing" textLength="100.4263" x="791.3049" y="622.0811">find(customer_id)</text><polygon fill="#181818" points="941.667,653.2891,951.667,657.2891,941.667,661.2891,945.667,657.2891" style="stroke:#181818;stroke-width:1.0;"/><line style="stroke:#181818;stroke-width:1.0;" x1="729.3691" x2="947.667" y1="657.2891" y2="657.2891"/><text fill="#000000" font-family="sans-serif" font-size="13" lengthAdjust="spacing" textLength="197.9072" x="742.5645" y="652.4326">decrement('points', points_to_use)</text><polygon fill="#181818" points="1032.5806,683.6406,1042.5806,687.6406,1032.5806,691.6406,1036.5806,687.6406" style="stroke:#181818;stroke-width:1.0;"/><line style="stroke:#181818;stroke-width:1.0;" x1="729.3691" x2="1038.5806" y1="687.6406" y2="687.6406"/><text fill="#000000" font-family="sans-serif" font-size="13" lengthAdjust="spacing" textLength="283.626" x="745.1619" y="682.7842">create(customer_id, total, discount=points_value)</text><polygon fill="#181818" points="1356.9204,713.9922,1366.9204,717.9922,1356.9204,721.9922,1360.9204,717.9922" style="stroke:#181818;stroke-width:1.0;"/><line style="stroke:#181818;stroke-width:1.0;" x1="729.3691" x2="1362.9204" y1="717.9922" y2="717.9922"/><text fill="#000000" font-family="sans-serif" font-size="13" lengthAdjust="spacing" textLength="615.5513" x="741.3691" y="713.1357">create(customer_id, points_used=points_to_use, description="Digunakan pada transaksi #{transaction.id}")</text><polygon fill="#181818" points="357.9805,744.3438,347.9805,748.3438,357.9805,752.3438,353.9805,748.3438" style="stroke:#181818;stroke-width:1.0;"/><line style="stroke:#181818;stroke-width:1.0;stroke-dasharray:2.0,2.0;" x1="351.9805" x2="728.3691" y1="748.3438" y2="748.3438"/><text fill="#000000" font-family="sans-serif" font-size="13" lengthAdjust="spacing" textLength="220.2129" x="428.0684" y="743.4873">showSuccess("Pembayaran berhasil")</text><polygon fill="#181818" points="334.9805,774.6953,344.9805,778.6953,334.9805,782.6953,338.9805,778.6953" style="stroke:#181818;stroke-width:1.0;"/><line style="stroke:#181818;stroke-width:1.0;" x1="38.9482" x2="340.9805" y1="778.6953" y2="778.6953"/><text fill="#000000" font-family="sans-serif" font-size="13" lengthAdjust="spacing" textLength="154.6924" x="115.6182" y="773.8389">Batalkan penggunaan poin</text><polygon fill="#181818" points="717.3691,805.0469,727.3691,809.0469,717.3691,813.0469,721.3691,809.0469" style="stroke:#181818;stroke-width:1.0;"/><line style="stroke:#181818;stroke-width:1.0;" x1="346.9805" x2="723.3691" y1="809.0469" y2="809.0469"/><text fill="#000000" font-family="sans-serif" font-size="13" lengthAdjust="spacing" textLength="88.1372" x="494.1062" y="804.1904">removePoints()</text><polygon fill="#181818" points="357.9805,835.3984,347.9805,839.3984,357.9805,843.3984,353.9805,839.3984" style="stroke:#181818;stroke-width:1.0;"/><line style="stroke:#181818;stroke-width:1.0;stroke-dasharray:2.0,2.0;" x1="351.9805" x2="728.3691" y1="839.3984" y2="839.3984"/><text fill="#000000" font-family="sans-serif" font-size="13" lengthAdjust="spacing" textLength="88.1372" x="494.1062" y="834.542">resetDiscount()</text><!--SRC=[ZLJRYjim47tNLmpfmoQGvWC2ARH98SiIC9lGlXJ2H9h4QcJ9bUGjOUc_TopRkNYRjdwniCxCd3bpnk6eROaU2mZqeo8hQKKXu84-6dsm8Cb6ya947Gt1keN0GkE1OxxPZEpXK5b42vdJLWYKqNaOF67GVW0O89q4buXQwX9jXC76emqCrCvcN2d1DjbTpDpPw9qnr2JSp6-Hyof4LxINyzNTD4tmy-rzJJg6fUOK_fGGsLA8n1dUVs1MC8KL5QLtWGB4bEqOD2ZkctikoI0BW5OmiiRF6H_8a8mThQ5i3rkjHe8139kl6BRNLhszx8g6tFtiKZpQlHjQB6WCPUvi_KgqHtscZxQi8dol2eDvmi29wO7IzOYEQ8TDt3QwRHLeT4qQozAS6ZMkINMbBY5_Qq2WYSa7h9cXdSurhD4e9u2VVdUVlNT-c2O0KIiyWgoELJbfGgRmsgMUD1H-3KQ2JA2cm1SqMftpjar8DB8o6AbfX34LzNl-4vM53j9LDdRObpgmXMO9skWyXGqMfJOiIdJ903dw0mgogZ-A9sVtsXVyZKrIxF34EsRFjgbNvKfyjfVahSlmLF2-VTKn_-SanX1THFCVZcel5KbFTVhXGvFeuSviDy-rafvOnjlwgU2OtTI8DRiLgmdEbdU2Mp3NKRDU8ug2zBgiTtGsM7HUXH8LNctSkzTusUM9LhKT-dDSLxBMaKrraNn7FkSfcC6RRVc4t4-gTFc9zIV3ahcNrax3suAU0iMpSqRYDm00]--></g></svg>