<svg xmlns="http://www.w3.org/2000/svg" xmlns:xlink="http://www.w3.org/1999/xlink" contentStyleType="text/css" height="993px" preserveAspectRatio="none" style="width:1210px;height:993px;background:#FFFFFF;" version="1.1" viewBox="0 0 1210 993" width="1210px" zoomAndPan="magnify"><title>Sequence Diagram</title><defs/><g><text fill="#000000" font-family="sans-serif" font-size="14" font-weight="bold" lengthAdjust="spacing" textLength="126.0479" x="543.3501" y="29.5332">Sequence Diagram</text><text fill="#000000" font-family="sans-serif" font-size="14" font-weight="bold" lengthAdjust="spacing" textLength="110.4893" x="551.1294" y="47.1426">Proses Produksi</text><rect fill="none" height="111.4063" style="stroke:#000000;stroke-width:1.5;" width="701.9946" x="396.8091" y="459.3438"/><rect fill="none" height="48.7031" style="stroke:#000000;stroke-width:1.5;" width="681.9946" x="406.8091" y="515.0469"/><rect fill="none" height="187.9453" style="stroke:#000000;stroke-width:1.5;" width="991.0308" x="212.7173" y="584.75"/><rect fill="none" height="79.0547" style="stroke:#000000;stroke-width:1.5;" width="786.939" x="406.8091" y="610.1016"/><line style="stroke:#181818;stroke-width:0.5;stroke-dasharray:5.0,5.0;" x1="58" x2="58" y1="138.8281" y2="911.1016"/><line style="stroke:#181818;stroke-width:0.5;stroke-dasharray:5.0,5.0;" x1="278.7173" x2="278.7173" y1="138.8281" y2="911.1016"/><line style="stroke:#181818;stroke-width:0.5;stroke-dasharray:5.0,5.0;" x1="486.8091" x2="486.8091" y1="138.8281" y2="911.1016"/><line style="stroke:#181818;stroke-width:0.5;stroke-dasharray:5.0,5.0;" x1="687.2949" x2="687.2949" y1="138.8281" y2="911.1016"/><line style="stroke:#181818;stroke-width:0.5;stroke-dasharray:5.0,5.0;" x1="796.2256" x2="796.2256" y1="138.8281" y2="911.1016"/><line style="stroke:#181818;stroke-width:0.5;stroke-dasharray:5.0,5.0;" x1="934.9492" x2="934.9492" y1="138.8281" y2="911.1016"/><line style="stroke:#181818;stroke-width:0.5;stroke-dasharray:5.0,5.0;" x1="1046.0107" x2="1046.0107" y1="138.8281" y2="911.1016"/><line style="stroke:#181818;stroke-width:0.5;stroke-dasharray:5.0,5.0;" x1="1135.8037" x2="1135.8037" y1="138.8281" y2="911.1016"/><text fill="#000000" font-family="sans-serif" font-size="14" lengthAdjust="spacing" textLength="101.9512" x="5" y="135.752">Bagian Produksi</text><ellipse cx="58.9756" cy="69.7188" fill="#E2E2F0" rx="8" ry="8" style="stroke:#181818;stroke-width:0.5;"/><path d="M58.9756,77.7188 L58.9756,104.7188 M45.9756,85.7188 L71.9756,85.7188 M58.9756,104.7188 L45.9756,119.7188 M58.9756,104.7188 L71.9756,119.7188 " fill="none" style="stroke:#181818;stroke-width:0.5;"/><text fill="#000000" font-family="sans-serif" font-size="14" lengthAdjust="spacing" textLength="101.9512" x="5" y="924.6348">Bagian Produksi</text><ellipse cx="58.9756" cy="936.2109" fill="#E2E2F0" rx="8" ry="8" style="stroke:#181818;stroke-width:0.5;"/><path d="M58.9756,944.2109 L58.9756,971.2109 M45.9756,952.2109 L71.9756,952.2109 M58.9756,971.2109 L45.9756,986.2109 M58.9756,971.2109 L71.9756,986.2109 " fill="none" style="stroke:#181818;stroke-width:0.5;"/><rect fill="#E2E2F0" height="31.6094" rx="2.5" ry="2.5" style="stroke:#181818;stroke-width:0.5;" width="113.627" x="222.7173" y="106.2188"/><text fill="#000000" font-family="sans-serif" font-size="14" lengthAdjust="spacing" textLength="99.627" x="229.7173" y="127.752">ProductionPage</text><rect fill="#E2E2F0" height="31.6094" rx="2.5" ry="2.5" style="stroke:#181818;stroke-width:0.5;" width="113.627" x="222.7173" y="910.1016"/><text fill="#000000" font-family="sans-serif" font-size="14" lengthAdjust="spacing" textLength="99.627" x="229.7173" y="931.6348">ProductionPage</text><rect fill="#E2E2F0" height="31.6094" rx="2.5" ry="2.5" style="stroke:#181818;stroke-width:0.5;" width="141.6201" x="416.8091" y="106.2188"/><text fill="#000000" font-family="sans-serif" font-size="14" lengthAdjust="spacing" textLength="127.6201" x="423.8091" y="127.752">ProductionController</text><rect fill="#E2E2F0" height="31.6094" rx="2.5" ry="2.5" style="stroke:#181818;stroke-width:0.5;" width="141.6201" x="416.8091" y="910.1016"/><text fill="#000000" font-family="sans-serif" font-size="14" lengthAdjust="spacing" textLength="127.6201" x="423.8091" y="931.6348">ProductionController</text><rect fill="#E2E2F0" height="31.6094" rx="2.5" ry="2.5" style="stroke:#181818;stroke-width:0.5;" width="80.9307" x="647.2949" y="106.2188"/><text fill="#000000" font-family="sans-serif" font-size="14" lengthAdjust="spacing" textLength="66.9307" x="654.2949" y="127.752">Production</text><rect fill="#E2E2F0" height="31.6094" rx="2.5" ry="2.5" style="stroke:#181818;stroke-width:0.5;" width="80.9307" x="647.2949" y="910.1016"/><text fill="#000000" font-family="sans-serif" font-size="14" lengthAdjust="spacing" textLength="66.9307" x="654.2949" y="931.6348">Production</text><rect fill="#E2E2F0" height="31.6094" rx="2.5" ry="2.5" style="stroke:#181818;stroke-width:0.5;" width="116.7236" x="738.2256" y="106.2188"/><text fill="#000000" font-family="sans-serif" font-size="14" lengthAdjust="spacing" textLength="102.7236" x="745.2256" y="127.752">ProductionDetail</text><rect fill="#E2E2F0" height="31.6094" rx="2.5" ry="2.5" style="stroke:#181818;stroke-width:0.5;" width="116.7236" x="738.2256" y="910.1016"/><text fill="#000000" font-family="sans-serif" font-size="14" lengthAdjust="spacing" textLength="102.7236" x="745.2256" y="931.6348">ProductionDetail</text><rect fill="#E2E2F0" height="31.6094" rx="2.5" ry="2.5" style="stroke:#181818;stroke-width:0.5;" width="140.0615" x="864.9492" y="106.2188"/><text fill="#000000" font-family="sans-serif" font-size="14" lengthAdjust="spacing" textLength="126.0615" x="871.9492" y="127.752">ProductComposition</text><rect fill="#E2E2F0" height="31.6094" rx="2.5" ry="2.5" style="stroke:#181818;stroke-width:0.5;" width="140.0615" x="864.9492" y="910.1016"/><text fill="#000000" font-family="sans-serif" font-size="14" lengthAdjust="spacing" textLength="126.0615" x="871.9492" y="931.6348">ProductComposition</text><rect fill="#E2E2F0" height="31.6094" rx="2.5" ry="2.5" style="stroke:#181818;stroke-width:0.5;" width="63.793" x="1015.0107" y="106.2188"/><text fill="#000000" font-family="sans-serif" font-size="14" lengthAdjust="spacing" textLength="49.793" x="1022.0107" y="127.752">Material</text><rect fill="#E2E2F0" height="31.6094" rx="2.5" ry="2.5" style="stroke:#181818;stroke-width:0.5;" width="63.793" x="1015.0107" y="910.1016"/><text fill="#000000" font-family="sans-serif" font-size="14" lengthAdjust="spacing" textLength="49.793" x="1022.0107" y="931.6348">Material</text><rect fill="#E2E2F0" height="31.6094" rx="2.5" ry="2.5" style="stroke:#181818;stroke-width:0.5;" width="94.9443" x="1088.8037" y="106.2188"/><text fill="#000000" font-family="sans-serif" font-size="14" lengthAdjust="spacing" textLength="80.9443" x="1095.8037" y="127.752">InventoryLog</text><rect fill="#E2E2F0" height="31.6094" rx="2.5" ry="2.5" style="stroke:#181818;stroke-width:0.5;" width="94.9443" x="1088.8037" y="910.1016"/><text fill="#000000" font-family="sans-serif" font-size="14" lengthAdjust="spacing" textLength="80.9443" x="1095.8037" y="931.6348">InventoryLog</text><polygon fill="#181818" points="267.5308,167.1797,277.5308,171.1797,267.5308,175.1797,271.5308,171.1797" style="stroke:#181818;stroke-width:1.0;"/><line style="stroke:#181818;stroke-width:1.0;" x1="58.9756" x2="273.5308" y1="171.1797" y2="171.1797"/><text fill="#000000" font-family="sans-serif" font-size="13" lengthAdjust="spacing" textLength="162.5889" x="87.9587" y="166.3232">Mengakses antrian produksi</text><polygon fill="#181818" points="475.6191,197.5313,485.6191,201.5313,475.6191,205.5313,479.6191,201.5313" style="stroke:#181818;stroke-width:1.0;"/><line style="stroke:#181818;stroke-width:1.0;" x1="279.5308" x2="481.6191" y1="201.5313" y2="201.5313"/><text fill="#000000" font-family="sans-serif" font-size="13" lengthAdjust="spacing" textLength="65.7617" x="350.6941" y="196.6748">getQueue()</text><polygon fill="#181818" points="675.7603,227.8828,685.7603,231.8828,675.7603,235.8828,679.7603,231.8828" style="stroke:#181818;stroke-width:1.0;"/><line style="stroke:#181818;stroke-width:1.0;" x1="487.6191" x2="681.7603" y1="231.8828" y2="231.8828"/><text fill="#000000" font-family="sans-serif" font-size="13" lengthAdjust="spacing" textLength="143.0889" x="516.1453" y="227.0264">getPendingProductions()</text><polygon fill="#181818" points="290.5308,258.2344,280.5308,262.2344,290.5308,266.2344,286.5308,262.2344" style="stroke:#181818;stroke-width:1.0;"/><line style="stroke:#181818;stroke-width:1.0;stroke-dasharray:2.0,2.0;" x1="284.5308" x2="486.6191" y1="262.2344" y2="262.2344"/><text fill="#000000" font-family="sans-serif" font-size="13" lengthAdjust="spacing" textLength="88.1563" x="339.4968" y="257.3779">displayQueue()</text><polygon fill="#181818" points="267.5308,288.5859,277.5308,292.5859,267.5308,296.5859,271.5308,292.5859" style="stroke:#181818;stroke-width:1.0;"/><line style="stroke:#181818;stroke-width:1.0;" x1="58.9756" x2="273.5308" y1="292.5859" y2="292.5859"/><text fill="#000000" font-family="sans-serif" font-size="13" lengthAdjust="spacing" textLength="196.5552" x="70.9756" y="287.7295">Memilih pesanan untuk diproduksi</text><polygon fill="#181818" points="475.6191,318.9375,485.6191,322.9375,475.6191,326.9375,479.6191,322.9375" style="stroke:#181818;stroke-width:1.0;"/><line style="stroke:#181818;stroke-width:1.0;" x1="279.5308" x2="481.6191" y1="322.9375" y2="322.9375"/><text fill="#000000" font-family="sans-serif" font-size="13" lengthAdjust="spacing" textLength="132.2344" x="317.4578" y="318.0811">getProductionDetail(id)</text><polygon fill="#181818" points="784.5874,349.2891,794.5874,353.2891,784.5874,357.2891,788.5874,353.2891" style="stroke:#181818;stroke-width:1.0;"/><line style="stroke:#181818;stroke-width:1.0;" x1="487.6191" x2="790.5874" y1="353.2891" y2="353.2891"/><text fill="#000000" font-family="sans-serif" font-size="13" lengthAdjust="spacing" textLength="78.0317" x="603.0874" y="348.4326">getProducts()</text><polygon fill="#181818" points="290.5308,379.6406,280.5308,383.6406,290.5308,387.6406,286.5308,383.6406" style="stroke:#181818;stroke-width:1.0;"/><line style="stroke:#181818;stroke-width:1.0;stroke-dasharray:2.0,2.0;" x1="284.5308" x2="486.6191" y1="383.6406" y2="383.6406"/><text fill="#000000" font-family="sans-serif" font-size="13" lengthAdjust="spacing" textLength="127.1626" x="319.9937" y="378.7842">displayProductDetail()</text><polygon fill="#181818" points="267.5308,409.9922,277.5308,413.9922,267.5308,417.9922,271.5308,413.9922" style="stroke:#181818;stroke-width:1.0;"/><line style="stroke:#181818;stroke-width:1.0;" x1="58.9756" x2="273.5308" y1="413.9922" y2="413.9922"/><text fill="#000000" font-family="sans-serif" font-size="13" lengthAdjust="spacing" textLength="101.8735" x="118.3164" y="409.1357">Memulai produksi</text><polygon fill="#181818" points="475.6191,440.3438,485.6191,444.3438,475.6191,448.3438,479.6191,444.3438" style="stroke:#181818;stroke-width:1.0;"/><line style="stroke:#181818;stroke-width:1.0;" x1="279.5308" x2="481.6191" y1="444.3438" y2="444.3438"/><text fill="#000000" font-family="sans-serif" font-size="13" lengthAdjust="spacing" textLength="174.1479" x="296.501" y="439.4873">startProduction(production_id)</text><path d="M396.8091,459.3438 L469.2437,459.3438 L469.2437,467.6953 L459.2437,477.6953 L396.8091,477.6953 L396.8091,459.3438 " fill="#EEEEEE" style="stroke:#000000;stroke-width:1.5;"/><rect fill="none" height="111.4063" style="stroke:#000000;stroke-width:1.5;" width="701.9946" x="396.8091" y="459.3438"/><text fill="#000000" font-family="sans-serif" font-size="13" font-weight="bold" lengthAdjust="spacing" textLength="27.4346" x="411.8091" y="473.8389">loop</text><text fill="#000000" font-family="sans-serif" font-size="11" font-weight="bold" lengthAdjust="spacing" textLength="115.5054" x="484.2437" y="472.7627">[Untuk Setiap Produk]</text><polygon fill="#181818" points="922.98,496.0469,932.98,500.0469,922.98,504.0469,926.98,500.0469" style="stroke:#181818;stroke-width:1.0;"/><line style="stroke:#181818;stroke-width:1.0;" x1="487.6191" x2="928.98" y1="500.0469" y2="500.0469"/><text fill="#000000" font-family="sans-serif" font-size="13" lengthAdjust="spacing" textLength="127.9053" x="647.3469" y="495.1904">getRecipe(product_id)</text><path d="M406.8091,515.0469 L479.2437,515.0469 L479.2437,523.3984 L469.2437,533.3984 L406.8091,533.3984 L406.8091,515.0469 " fill="#EEEEEE" style="stroke:#000000;stroke-width:1.5;"/><rect fill="none" height="48.7031" style="stroke:#000000;stroke-width:1.5;" width="681.9946" x="406.8091" y="515.0469"/><text fill="#000000" font-family="sans-serif" font-size="13" font-weight="bold" lengthAdjust="spacing" textLength="27.4346" x="421.8091" y="529.542">loop</text><text fill="#000000" font-family="sans-serif" font-size="11" font-weight="bold" lengthAdjust="spacing" textLength="111.23" x="494.2437" y="528.4658">[Untuk Setiap Bahan]</text><polygon fill="#181818" points="1034.9072,551.75,1044.9072,555.75,1034.9072,559.75,1038.9072,555.75" style="stroke:#181818;stroke-width:1.0;"/><line style="stroke:#181818;stroke-width:1.0;" x1="487.6191" x2="1040.9072" y1="555.75" y2="555.75"/><text fill="#000000" font-family="sans-serif" font-size="13" lengthAdjust="spacing" textLength="163.2808" x="685.6228" y="550.8936">checkStock(material_id, qty)</text><path d="M212.7173,584.75 L272.8882,584.75 L272.8882,593.1016 L262.8882,603.1016 L212.7173,603.1016 L212.7173,584.75 " fill="#EEEEEE" style="stroke:#000000;stroke-width:1.5;"/><rect fill="none" height="187.9453" style="stroke:#000000;stroke-width:1.5;" width="991.0308" x="212.7173" y="584.75"/><text fill="#000000" font-family="sans-serif" font-size="13" font-weight="bold" lengthAdjust="spacing" textLength="15.1709" x="227.7173" y="599.2451">alt</text><text fill="#000000" font-family="sans-serif" font-size="11" font-weight="bold" lengthAdjust="spacing" textLength="144.2407" x="287.8882" y="598.1689">[Stok Semua Bahan Cukup]</text><path d="M406.8091,610.1016 L479.2437,610.1016 L479.2437,618.4531 L469.2437,628.4531 L406.8091,628.4531 L406.8091,610.1016 " fill="#EEEEEE" style="stroke:#000000;stroke-width:1.5;"/><rect fill="none" height="79.0547" style="stroke:#000000;stroke-width:1.5;" width="786.939" x="406.8091" y="610.1016"/><text fill="#000000" font-family="sans-serif" font-size="13" font-weight="bold" lengthAdjust="spacing" textLength="27.4346" x="421.8091" y="624.5967">loop</text><text fill="#000000" font-family="sans-serif" font-size="11" font-weight="bold" lengthAdjust="spacing" textLength="111.23" x="494.2437" y="623.5205">[Untuk Setiap Bahan]</text><polygon fill="#181818" points="1034.9072,646.8047,1044.9072,650.8047,1034.9072,654.8047,1038.9072,650.8047" style="stroke:#181818;stroke-width:1.0;"/><line style="stroke:#181818;stroke-width:1.0;" x1="487.6191" x2="1040.9072" y1="650.8047" y2="650.8047"/><text fill="#000000" font-family="sans-serif" font-size="13" lengthAdjust="spacing" textLength="114.1626" x="710.1819" y="645.9482">reduceQuantity(qty)</text><polygon fill="#181818" points="1124.2759,677.1563,1134.2759,681.1563,1124.2759,685.1563,1128.2759,681.1563" style="stroke:#181818;stroke-width:1.0;"/><line style="stroke:#181818;stroke-width:1.0;" x1="487.6191" x2="1130.2759" y1="681.1563" y2="681.1563"/><text fill="#000000" font-family="sans-serif" font-size="13" lengthAdjust="spacing" textLength="145.4375" x="739.2288" y="676.2998">create(action="produksi")</text><polygon fill="#181818" points="675.7603,714.5078,685.7603,718.5078,675.7603,722.5078,679.7603,718.5078" style="stroke:#181818;stroke-width:1.0;"/><line style="stroke:#181818;stroke-width:1.0;" x1="487.6191" x2="681.7603" y1="718.5078" y2="718.5078"/><text fill="#000000" font-family="sans-serif" font-size="13" lengthAdjust="spacing" textLength="176.1411" x="499.6191" y="713.6514">updateStatus("Dalam Proses")</text><line style="stroke:#000000;stroke-width:1.0;stroke-dasharray:2.0,2.0;" x1="212.7173" x2="1203.748" y1="727.5078" y2="727.5078"/><text fill="#000000" font-family="sans-serif" font-size="11" font-weight="bold" lengthAdjust="spacing" textLength="100.2246" x="217.7173" y="738.9268">[Stok Tidak Cukup]</text><polygon fill="#181818" points="290.5308,760.6953,280.5308,764.6953,290.5308,768.6953,286.5308,764.6953" style="stroke:#181818;stroke-width:1.0;"/><line style="stroke:#181818;stroke-width:1.0;stroke-dasharray:2.0,2.0;" x1="284.5308" x2="486.6191" y1="764.6953" y2="764.6953"/><text fill="#000000" font-family="sans-serif" font-size="13" lengthAdjust="spacing" textLength="184.0884" x="291.5308" y="759.8389">showError("Bahan tidak cukup")</text><polygon fill="#181818" points="267.5308,798.0469,277.5308,802.0469,267.5308,806.0469,271.5308,802.0469" style="stroke:#181818;stroke-width:1.0;"/><line style="stroke:#181818;stroke-width:1.0;" x1="58.9756" x2="273.5308" y1="802.0469" y2="802.0469"/><text fill="#000000" font-family="sans-serif" font-size="13" lengthAdjust="spacing" textLength="139.4644" x="99.521" y="797.1904">Menyelesaikan produksi</text><polygon fill="#181818" points="475.6191,828.3984,485.6191,832.3984,475.6191,836.3984,479.6191,832.3984" style="stroke:#181818;stroke-width:1.0;"/><line style="stroke:#181818;stroke-width:1.0;" x1="279.5308" x2="481.6191" y1="832.3984" y2="832.3984"/><text fill="#000000" font-family="sans-serif" font-size="13" lengthAdjust="spacing" textLength="139.4453" x="313.8523" y="827.542">finishProduction(results)</text><polygon fill="#181818" points="675.7603,858.75,685.7603,862.75,675.7603,866.75,679.7603,862.75" style="stroke:#181818;stroke-width:1.0;"/><line style="stroke:#181818;stroke-width:1.0;" x1="487.6191" x2="681.7603" y1="862.75" y2="862.75"/><text fill="#000000" font-family="sans-serif" font-size="13" lengthAdjust="spacing" textLength="137.1411" x="519.1191" y="857.8936">updateStatus("Selesai")</text><polygon fill="#181818" points="290.5308,889.1016,280.5308,893.1016,290.5308,897.1016,286.5308,893.1016" style="stroke:#181818;stroke-width:1.0;"/><line style="stroke:#181818;stroke-width:1.0;stroke-dasharray:2.0,2.0;" x1="284.5308" x2="486.6191" y1="893.1016" y2="893.1016"/><text fill="#000000" font-family="sans-serif" font-size="13" lengthAdjust="spacing" textLength="88.1372" x="339.5063" y="888.2451">showSuccess()</text><!--SRC=[bLJDojim4BphAOHFBhGlK6YXdzD388PySNihb4NUEeiLIPz-MlBsNLbEdAJneO6GH3ixEveT9una77WuoO1l2Ot25aE00Rze6enKQ29w8I95ZRAR8N93C73F3xFtDc2G_D6dCP0GeABridg1WS1Spoi91IHuLYH53aoKrLHMaQpPyyG2sgz16ckYjrgZBy1c3LZAXxNo1YEGBg3DKr1ZJyu6MhYQzXxN0fj2K4ZQX-BM_6RJh3_lx301jZiXChFyy9cl9p_A5iq0O_QD6tpsoLtyutf6DOmQCBucJ5Y_4_mxdnxAwHvDJsPORXHco8M_f-0qd2_TZyDFfEae7GOmF3gPc4PkMP7mw5jD_LNFvWwoecAkpjrFr2GDzDI04DdMPNxjhbz_PX52M-lazqb-Xv70pN4Jab-pnAOj6W_8wy4BnTIVKVzIlC0Hp5HRMDfCeewenYvQDTQdUVrCyrw-nNFXugs8_1QWesHWfZmbA8ooIMDo_plJ8wl5ryGneNYkhwCMs7QNfNbaHJLCtdogBbvMYwuRHtA8akkveOiGKwYh3MX-_CkJp3se0nRztwY7yKRvxNR3qVxvwhtrTLKk62Umok1Caeru3FqPDOUEnfN0_o93uNYpS8yXwHZkydyllIkCrNtoihOkASL_P1oulm00]--></g></svg>