<svg xmlns="http://www.w3.org/2000/svg" xmlns:xlink="http://www.w3.org/1999/xlink" contentStyleType="text/css" height="2288px" preserveAspectRatio="none" style="width:1104px;height:2288px;background:#FFFFFF;" version="1.1" viewBox="0 0 1104 2288" width="1104px" zoomAndPan="magnify"><title>Sequence Diagram</title><defs/><g><text fill="#000000" font-family="sans-serif" font-size="14" font-weight="bold" lengthAdjust="spacing" textLength="126.0479" x="488.4028" y="29.5332">Sequence Diagram</text><text fill="#000000" font-family="sans-serif" font-size="14" font-weight="bold" lengthAdjust="spacing" textLength="173.5303" x="464.6616" y="47.1426">Kelola Peran &amp; Hak Akses</text><rect fill="none" height="171.4297" style="stroke:#000000;stroke-width:1.5;" width="685.6587" x="329.9536" y="411.6406"/><rect fill="none" height="125.2422" style="stroke:#000000;stroke-width:1.5;" width="685.6587" x="329.9536" y="731.4766"/><rect fill="none" height="220.2969" style="stroke:#000000;stroke-width:1.5;" width="695.6587" x="329.9536" y="1143.8828"/><rect fill="none" height="48.7031" style="stroke:#000000;stroke-width:1.5;" width="340.5498" x="675.0625" y="1169.2344"/><rect fill="none" height="48.7031" style="stroke:#000000;stroke-width:1.5;" width="340.5498" x="675.0625" y="1278.125"/><rect fill="none" height="155.5938" style="stroke:#000000;stroke-width:1.5;" width="685.6587" x="329.9536" y="1499.5859"/><rect fill="none" height="125.2422" style="stroke:#000000;stroke-width:1.5;" width="685.6587" x="329.9536" y="1942.3438"/><line style="stroke:#181818;stroke-width:0.5;stroke-dasharray:5.0,5.0;" x1="27" x2="27" y1="138.8281" y2="2205.9922"/><line style="stroke:#181818;stroke-width:0.5;stroke-dasharray:5.0,5.0;" x1="376.9536" x2="376.9536" y1="138.8281" y2="2205.9922"/><line style="stroke:#181818;stroke-width:0.5;stroke-dasharray:5.0,5.0;" x1="736.0625" x2="736.0625" y1="138.8281" y2="2205.9922"/><line style="stroke:#181818;stroke-width:0.5;stroke-dasharray:5.0,5.0;" x1="983.8193" x2="983.8193" y1="138.8281" y2="2205.9922"/><line style="stroke:#181818;stroke-width:0.5;stroke-dasharray:5.0,5.0;" x1="1056.6123" x2="1056.6123" y1="138.8281" y2="2205.9922"/><text fill="#000000" font-family="sans-serif" font-size="14" lengthAdjust="spacing" textLength="39.6826" x="5" y="135.752">Admin</text><ellipse cx="27.8413" cy="69.7188" fill="#E2E2F0" rx="8" ry="8" style="stroke:#181818;stroke-width:0.5;"/><path d="M27.8413,77.7188 L27.8413,104.7188 M14.8413,85.7188 L40.8413,85.7188 M27.8413,104.7188 L14.8413,119.7188 M27.8413,104.7188 L40.8413,119.7188 " fill="none" style="stroke:#181818;stroke-width:0.5;"/><text fill="#000000" font-family="sans-serif" font-size="14" lengthAdjust="spacing" textLength="39.6826" x="5" y="2219.5254">Admin</text><ellipse cx="27.8413" cy="2231.1016" fill="#E2E2F0" rx="8" ry="8" style="stroke:#181818;stroke-width:0.5;"/><path d="M27.8413,2239.1016 L27.8413,2266.1016 M14.8413,2247.1016 L40.8413,2247.1016 M27.8413,2266.1016 L14.8413,2281.1016 M27.8413,2266.1016 L40.8413,2281.1016 " fill="none" style="stroke:#181818;stroke-width:0.5;"/><rect fill="#E2E2F0" height="31.6094" rx="2.5" ry="2.5" style="stroke:#181818;stroke-width:0.5;" width="75.4893" x="339.9536" y="106.2188"/><text fill="#000000" font-family="sans-serif" font-size="14" lengthAdjust="spacing" textLength="61.4893" x="346.9536" y="127.752">RolePage</text><rect fill="#E2E2F0" height="31.6094" rx="2.5" ry="2.5" style="stroke:#181818;stroke-width:0.5;" width="75.4893" x="339.9536" y="2204.9922"/><text fill="#000000" font-family="sans-serif" font-size="14" lengthAdjust="spacing" textLength="61.4893" x="346.9536" y="2226.5254">RolePage</text><rect fill="#E2E2F0" height="31.6094" rx="2.5" ry="2.5" style="stroke:#181818;stroke-width:0.5;" width="103.4824" x="685.0625" y="106.2188"/><text fill="#000000" font-family="sans-serif" font-size="14" lengthAdjust="spacing" textLength="89.4824" x="692.0625" y="127.752">RoleController</text><rect fill="#E2E2F0" height="31.6094" rx="2.5" ry="2.5" style="stroke:#181818;stroke-width:0.5;" width="103.4824" x="685.0625" y="2204.9922"/><text fill="#000000" font-family="sans-serif" font-size="14" lengthAdjust="spacing" textLength="89.4824" x="692.0625" y="2226.5254">RoleController</text><rect fill="#E2E2F0" height="31.6094" rx="2.5" ry="2.5" style="stroke:#181818;stroke-width:0.5;" width="42.793" x="962.8193" y="106.2188"/><text fill="#000000" font-family="sans-serif" font-size="14" lengthAdjust="spacing" textLength="28.793" x="969.8193" y="127.752">Role</text><rect fill="#E2E2F0" height="31.6094" rx="2.5" ry="2.5" style="stroke:#181818;stroke-width:0.5;" width="42.793" x="962.8193" y="2204.9922"/><text fill="#000000" font-family="sans-serif" font-size="14" lengthAdjust="spacing" textLength="28.793" x="969.8193" y="2226.5254">Role</text><rect fill="#E2E2F0" height="31.6094" rx="2.5" ry="2.5" style="stroke:#181818;stroke-width:0.5;" width="83.2412" x="1015.6123" y="106.2188"/><text fill="#000000" font-family="sans-serif" font-size="14" lengthAdjust="spacing" textLength="69.2412" x="1022.6123" y="127.752">Permission</text><rect fill="#E2E2F0" height="31.6094" rx="2.5" ry="2.5" style="stroke:#181818;stroke-width:0.5;" width="83.2412" x="1015.6123" y="2204.9922"/><text fill="#000000" font-family="sans-serif" font-size="14" lengthAdjust="spacing" textLength="69.2412" x="1022.6123" y="2226.5254">Permission</text><polygon fill="#181818" points="365.6982,167.1797,375.6982,171.1797,365.6982,175.1797,369.6982,171.1797" style="stroke:#181818;stroke-width:1.0;"/><line style="stroke:#181818;stroke-width:1.0;" x1="27.8413" x2="371.6982" y1="171.1797" y2="171.1797"/><text fill="#000000" font-family="sans-serif" font-size="13" lengthAdjust="spacing" textLength="156.8188" x="124.3604" y="166.3232">Mengakses halaman peran</text><polygon fill="#181818" points="724.8037,197.5313,734.8037,201.5313,724.8037,205.5313,728.8037,201.5313" style="stroke:#181818;stroke-width:1.0;"/><line style="stroke:#181818;stroke-width:1.0;" x1="377.6982" x2="730.8037" y1="201.5313" y2="201.5313"/><text fill="#000000" font-family="sans-serif" font-size="13" lengthAdjust="spacing" textLength="44.7891" x="534.8564" y="196.6748">mount()</text><polygon fill="#181818" points="972.2158,227.8828,982.2158,231.8828,972.2158,235.8828,976.2158,231.8828" style="stroke:#181818;stroke-width:1.0;"/><line style="stroke:#181818;stroke-width:1.0;" x1="736.8037" x2="978.2158" y1="231.8828" y2="231.8828"/><text fill="#000000" font-family="sans-serif" font-size="13" lengthAdjust="spacing" textLength="223.4121" x="748.8037" y="227.0264">withCount('users', 'permissions')-&gt;get()</text><polygon fill="#181818" points="1045.2329,258.2344,1055.2329,262.2344,1045.2329,266.2344,1049.2329,262.2344" style="stroke:#181818;stroke-width:1.0;"/><line style="stroke:#181818;stroke-width:1.0;" x1="736.8037" x2="1051.2329" y1="262.2344" y2="262.2344"/><text fill="#000000" font-family="sans-serif" font-size="13" lengthAdjust="spacing" textLength="145.4883" x="824.2742" y="257.3779">all()-&gt;groupBy('category')</text><polygon fill="#181818" points="388.6982,288.5859,378.6982,292.5859,388.6982,296.5859,384.6982,292.5859" style="stroke:#181818;stroke-width:1.0;"/><line style="stroke:#181818;stroke-width:1.0;stroke-dasharray:2.0,2.0;" x1="382.6982" x2="735.8037" y1="292.5859" y2="292.5859"/><text fill="#000000" font-family="sans-serif" font-size="13" lengthAdjust="spacing" textLength="176.2871" x="469.1074" y="287.7295">displayRolesAndPermissions()</text><polygon fill="#181818" points="365.6982,318.9375,375.6982,322.9375,365.6982,326.9375,369.6982,322.9375" style="stroke:#181818;stroke-width:1.0;"/><line style="stroke:#181818;stroke-width:1.0;" x1="27.8413" x2="371.6982" y1="322.9375" y2="322.9375"/><text fill="#000000" font-family="sans-serif" font-size="13" lengthAdjust="spacing" textLength="226.1606" x="89.6895" y="318.0811">Tambah peran baru(name, max_users)</text><polygon fill="#181818" points="724.8037,349.2891,734.8037,353.2891,724.8037,357.2891,728.8037,353.2891" style="stroke:#181818;stroke-width:1.0;"/><line style="stroke:#181818;stroke-width:1.0;" x1="377.6982" x2="730.8037" y1="353.2891" y2="353.2891"/><text fill="#000000" font-family="sans-serif" font-size="13" lengthAdjust="spacing" textLength="140.8799" x="486.811" y="348.4326">store(name, max_users)</text><line style="stroke:#181818;stroke-width:1.0;" x1="736.8037" x2="778.8037" y1="383.6406" y2="383.6406"/><line style="stroke:#181818;stroke-width:1.0;" x1="778.8037" x2="778.8037" y1="383.6406" y2="396.6406"/><line style="stroke:#181818;stroke-width:1.0;" x1="737.8037" x2="778.8037" y1="396.6406" y2="396.6406"/><polygon fill="#181818" points="747.8037,392.6406,737.8037,396.6406,747.8037,400.6406,743.8037,396.6406" style="stroke:#181818;stroke-width:1.0;"/><text fill="#000000" font-family="sans-serif" font-size="13" lengthAdjust="spacing" textLength="156.7871" x="743.8037" y="378.7842">validate(name, max_users)</text><path d="M329.9536,411.6406 L390.1245,411.6406 L390.1245,419.9922 L380.1245,429.9922 L329.9536,429.9922 L329.9536,411.6406 " fill="#EEEEEE" style="stroke:#000000;stroke-width:1.5;"/><rect fill="none" height="171.4297" style="stroke:#000000;stroke-width:1.5;" width="685.6587" x="329.9536" y="411.6406"/><text fill="#000000" font-family="sans-serif" font-size="13" font-weight="bold" lengthAdjust="spacing" textLength="15.1709" x="344.9536" y="426.1357">alt</text><text fill="#000000" font-family="sans-serif" font-size="11" font-weight="bold" lengthAdjust="spacing" textLength="95.3691" x="405.1245" y="425.0596">[Validasi Berhasil]</text><polygon fill="#181818" points="972.2158,448.3438,982.2158,452.3438,972.2158,456.3438,976.2158,452.3438" style="stroke:#181818;stroke-width:1.0;"/><line style="stroke:#181818;stroke-width:1.0;" x1="736.8037" x2="978.2158" y1="452.3438" y2="452.3438"/><text fill="#000000" font-family="sans-serif" font-size="13" lengthAdjust="spacing" textLength="148.1099" x="786.4548" y="447.4873">create(name, max_users)</text><polygon fill="#181818" points="388.6982,478.6953,378.6982,482.6953,388.6982,486.6953,384.6982,482.6953" style="stroke:#181818;stroke-width:1.0;"/><line style="stroke:#181818;stroke-width:1.0;stroke-dasharray:2.0,2.0;" x1="382.6982" x2="735.8037" y1="482.6953" y2="482.6953"/><text fill="#000000" font-family="sans-serif" font-size="13" lengthAdjust="spacing" textLength="259.2446" x="427.6287" y="477.8389">showSuccess("Peran berhasil ditambahkan")</text><line style="stroke:#000000;stroke-width:1.0;stroke-dasharray:2.0,2.0;" x1="329.9536" x2="1015.6123" y1="491.6953" y2="491.6953"/><text fill="#000000" font-family="sans-serif" font-size="11" font-weight="bold" lengthAdjust="spacing" textLength="131.4199" x="334.9536" y="503.1143">[Nama Peran Sudah Ada]</text><polygon fill="#181818" points="388.6982,524.8828,378.6982,528.8828,388.6982,532.8828,384.6982,528.8828" style="stroke:#181818;stroke-width:1.0;"/><line style="stroke:#181818;stroke-width:1.0;stroke-dasharray:2.0,2.0;" x1="382.6982" x2="735.8037" y1="528.8828" y2="528.8828"/><text fill="#000000" font-family="sans-serif" font-size="13" lengthAdjust="spacing" textLength="251.3037" x="431.5991" y="524.0264">showError("Nama peran sudah digunakan")</text><line style="stroke:#000000;stroke-width:1.0;stroke-dasharray:2.0,2.0;" x1="329.9536" x2="1015.6123" y1="537.8828" y2="537.8828"/><text fill="#000000" font-family="sans-serif" font-size="11" font-weight="bold" lengthAdjust="spacing" textLength="81.0122" x="334.9536" y="549.3018">[Max Users &lt; 1]</text><polygon fill="#181818" points="388.6982,571.0703,378.6982,575.0703,388.6982,579.0703,384.6982,575.0703" style="stroke:#181818;stroke-width:1.0;"/><line style="stroke:#181818;stroke-width:1.0;stroke-dasharray:2.0,2.0;" x1="382.6982" x2="735.8037" y1="575.0703" y2="575.0703"/><text fill="#000000" font-family="sans-serif" font-size="13" lengthAdjust="spacing" textLength="215.8521" x="449.325" y="570.2139">showError("Batas pekerja minimal 1")</text><polygon fill="#181818" points="365.6982,608.4219,375.6982,612.4219,365.6982,616.4219,369.6982,612.4219" style="stroke:#181818;stroke-width:1.0;"/><line style="stroke:#181818;stroke-width:1.0;" x1="27.8413" x2="371.6982" y1="612.4219" y2="612.4219"/><text fill="#000000" font-family="sans-serif" font-size="13" lengthAdjust="spacing" textLength="188.5825" x="108.4785" y="607.5654">Edit peran(id, name, max_users)</text><polygon fill="#181818" points="724.8037,638.7734,734.8037,642.7734,724.8037,646.7734,728.8037,642.7734" style="stroke:#181818;stroke-width:1.0;"/><line style="stroke:#181818;stroke-width:1.0;" x1="377.6982" x2="730.8037" y1="642.7734" y2="642.7734"/><text fill="#000000" font-family="sans-serif" font-size="13" lengthAdjust="spacing" textLength="169.0825" x="472.7097" y="637.917">update(id, name, max_users)</text><polygon fill="#181818" points="972.2158,669.125,982.2158,673.125,972.2158,677.125,976.2158,673.125" style="stroke:#181818;stroke-width:1.0;"/><line style="stroke:#181818;stroke-width:1.0;" x1="736.8037" x2="978.2158" y1="673.125" y2="673.125"/><text fill="#000000" font-family="sans-serif" font-size="13" lengthAdjust="spacing" textLength="39.7363" x="840.6416" y="668.2686">find(id)</text><line style="stroke:#181818;stroke-width:1.0;" x1="736.8037" x2="778.8037" y1="703.4766" y2="703.4766"/><line style="stroke:#181818;stroke-width:1.0;" x1="778.8037" x2="778.8037" y1="703.4766" y2="716.4766"/><line style="stroke:#181818;stroke-width:1.0;" x1="737.8037" x2="778.8037" y1="716.4766" y2="716.4766"/><polygon fill="#181818" points="747.8037,712.4766,737.8037,716.4766,747.8037,720.4766,743.8037,716.4766" style="stroke:#181818;stroke-width:1.0;"/><text fill="#000000" font-family="sans-serif" font-size="13" lengthAdjust="spacing" textLength="156.7871" x="743.8037" y="698.6201">validate(name, max_users)</text><path d="M329.9536,731.4766 L390.1245,731.4766 L390.1245,739.8281 L380.1245,749.8281 L329.9536,749.8281 L329.9536,731.4766 " fill="#EEEEEE" style="stroke:#000000;stroke-width:1.5;"/><rect fill="none" height="125.2422" style="stroke:#000000;stroke-width:1.5;" width="685.6587" x="329.9536" y="731.4766"/><text fill="#000000" font-family="sans-serif" font-size="13" font-weight="bold" lengthAdjust="spacing" textLength="15.1709" x="344.9536" y="745.9717">alt</text><text fill="#000000" font-family="sans-serif" font-size="11" font-weight="bold" lengthAdjust="spacing" textLength="95.3691" x="405.1245" y="744.8955">[Validasi Berhasil]</text><polygon fill="#181818" points="972.2158,768.1797,982.2158,772.1797,972.2158,776.1797,976.2158,772.1797" style="stroke:#181818;stroke-width:1.0;"/><line style="stroke:#181818;stroke-width:1.0;" x1="736.8037" x2="978.2158" y1="772.1797" y2="772.1797"/><text fill="#000000" font-family="sans-serif" font-size="13" lengthAdjust="spacing" textLength="151.7407" x="784.6394" y="767.3232">update(name, max_users)</text><polygon fill="#181818" points="388.6982,798.5313,378.6982,802.5313,388.6982,806.5313,384.6982,802.5313" style="stroke:#181818;stroke-width:1.0;"/><line style="stroke:#181818;stroke-width:1.0;stroke-dasharray:2.0,2.0;" x1="382.6982" x2="735.8037" y1="802.5313" y2="802.5313"/><text fill="#000000" font-family="sans-serif" font-size="13" lengthAdjust="spacing" textLength="242.6201" x="435.9409" y="797.6748">showSuccess("Peran berhasil diperbarui")</text><line style="stroke:#000000;stroke-width:1.0;stroke-dasharray:2.0,2.0;" x1="329.9536" x2="1015.6123" y1="811.5313" y2="811.5313"/><text fill="#000000" font-family="sans-serif" font-size="11" font-weight="bold" lengthAdjust="spacing" textLength="82.5269" x="334.9536" y="822.9502">[Validasi Gagal]</text><polygon fill="#181818" points="388.6982,844.7188,378.6982,848.7188,388.6982,852.7188,384.6982,848.7188" style="stroke:#181818;stroke-width:1.0;"/><line style="stroke:#181818;stroke-width:1.0;stroke-dasharray:2.0,2.0;" x1="382.6982" x2="735.8037" y1="848.7188" y2="848.7188"/><text fill="#000000" font-family="sans-serif" font-size="13" lengthAdjust="spacing" textLength="166.0039" x="474.249" y="843.8623">showError("Data tidak valid")</text><polygon fill="#181818" points="365.6982,882.0703,375.6982,886.0703,365.6982,890.0703,369.6982,886.0703" style="stroke:#181818;stroke-width:1.0;"/><line style="stroke:#181818;stroke-width:1.0;" x1="27.8413" x2="371.6982" y1="886.0703" y2="886.0703"/><text fill="#000000" font-family="sans-serif" font-size="13" lengthAdjust="spacing" textLength="210.2598" x="97.6399" y="881.2139">Buka konfigurasi permission(role_id)</text><polygon fill="#181818" points="724.8037,912.4219,734.8037,916.4219,724.8037,920.4219,728.8037,916.4219" style="stroke:#181818;stroke-width:1.0;"/><line style="stroke:#181818;stroke-width:1.0;" x1="377.6982" x2="730.8037" y1="916.4219" y2="916.4219"/><text fill="#000000" font-family="sans-serif" font-size="13" lengthAdjust="spacing" textLength="167.6289" x="473.4365" y="911.5654">getPermissionConfig(role_id)</text><polygon fill="#181818" points="972.2158,942.7734,982.2158,946.7734,972.2158,950.7734,976.2158,946.7734" style="stroke:#181818;stroke-width:1.0;"/><line style="stroke:#181818;stroke-width:1.0;" x1="736.8037" x2="978.2158" y1="946.7734" y2="946.7734"/><text fill="#000000" font-family="sans-serif" font-size="13" lengthAdjust="spacing" textLength="186.6592" x="767.1802" y="941.917">with('permissions')-&gt;find(role_id)</text><polygon fill="#181818" points="1045.2329,973.125,1055.2329,977.125,1045.2329,981.125,1049.2329,977.125" style="stroke:#181818;stroke-width:1.0;"/><line style="stroke:#181818;stroke-width:1.0;" x1="736.8037" x2="1051.2329" y1="977.125" y2="977.125"/><text fill="#000000" font-family="sans-serif" font-size="13" lengthAdjust="spacing" textLength="145.4883" x="824.2742" y="972.2686">all()-&gt;groupBy('category')</text><polygon fill="#181818" points="388.6982,1003.4766,378.6982,1007.4766,388.6982,1011.4766,384.6982,1007.4766" style="stroke:#181818;stroke-width:1.0;"/><line style="stroke:#181818;stroke-width:1.0;stroke-dasharray:2.0,2.0;" x1="382.6982" x2="735.8037" y1="1007.4766" y2="1007.4766"/><text fill="#000000" font-family="sans-serif" font-size="13" lengthAdjust="spacing" textLength="286.8252" x="413.8384" y="1002.6201">showPermissionForm(role, grouped_permissions)</text><polygon fill="#181818" points="365.6982,1033.8281,375.6982,1037.8281,365.6982,1041.8281,369.6982,1037.8281" style="stroke:#181818;stroke-width:1.0;"/><line style="stroke:#181818;stroke-width:1.0;" x1="27.8413" x2="371.6982" y1="1037.8281" y2="1037.8281"/><text fill="#000000" font-family="sans-serif" font-size="13" lengthAdjust="spacing" textLength="260.8442" x="72.3477" y="1032.9717">Toggle kategori permission(role_id, category)</text><polygon fill="#181818" points="724.8037,1064.1797,734.8037,1068.1797,724.8037,1072.1797,728.8037,1068.1797" style="stroke:#181818;stroke-width:1.0;"/><line style="stroke:#181818;stroke-width:1.0;" x1="377.6982" x2="730.8037" y1="1068.1797" y2="1068.1797"/><text fill="#000000" font-family="sans-serif" font-size="13" lengthAdjust="spacing" textLength="263.7324" x="425.3848" y="1063.3232">toggleCategoryPermissions(role_id, category)</text><polygon fill="#181818" points="972.2158,1094.5313,982.2158,1098.5313,972.2158,1102.5313,976.2158,1098.5313" style="stroke:#181818;stroke-width:1.0;"/><line style="stroke:#181818;stroke-width:1.0;" x1="736.8037" x2="978.2158" y1="1098.5313" y2="1098.5313"/><text fill="#000000" font-family="sans-serif" font-size="13" lengthAdjust="spacing" textLength="68.6436" x="826.188" y="1093.6748">find(role_id)</text><polygon fill="#181818" points="1045.2329,1124.8828,1055.2329,1128.8828,1045.2329,1132.8828,1049.2329,1128.8828" style="stroke:#181818;stroke-width:1.0;"/><line style="stroke:#181818;stroke-width:1.0;" x1="736.8037" x2="1051.2329" y1="1128.8828" y2="1128.8828"/><text fill="#000000" font-family="sans-serif" font-size="13" lengthAdjust="spacing" textLength="194.6255" x="799.7056" y="1124.0264">where('category', category)-&gt;get()</text><path d="M329.9536,1143.8828 L390.1245,1143.8828 L390.1245,1152.2344 L380.1245,1162.2344 L329.9536,1162.2344 L329.9536,1143.8828 " fill="#EEEEEE" style="stroke:#000000;stroke-width:1.5;"/><rect fill="none" height="220.2969" style="stroke:#000000;stroke-width:1.5;" width="695.6587" x="329.9536" y="1143.8828"/><text fill="#000000" font-family="sans-serif" font-size="13" font-weight="bold" lengthAdjust="spacing" textLength="15.1709" x="344.9536" y="1158.3779">alt</text><text fill="#000000" font-family="sans-serif" font-size="11" font-weight="bold" lengthAdjust="spacing" textLength="164.4092" x="405.1245" y="1157.3018">[Kategori Belum Dipilih Semua]</text><path d="M675.0625,1169.2344 L747.4971,1169.2344 L747.4971,1177.5859 L737.4971,1187.5859 L675.0625,1187.5859 L675.0625,1169.2344 " fill="#EEEEEE" style="stroke:#000000;stroke-width:1.5;"/><rect fill="none" height="48.7031" style="stroke:#000000;stroke-width:1.5;" width="340.5498" x="675.0625" y="1169.2344"/><text fill="#000000" font-family="sans-serif" font-size="13" font-weight="bold" lengthAdjust="spacing" textLength="27.4346" x="690.0625" y="1183.7295">loop</text><text fill="#000000" font-family="sans-serif" font-size="11" font-weight="bold" lengthAdjust="spacing" textLength="193.7568" x="762.4971" y="1182.6533">[Untuk setiap permission di kategori]</text><polygon fill="#181818" points="972.2158,1205.9375,982.2158,1209.9375,972.2158,1213.9375,976.2158,1209.9375" style="stroke:#181818;stroke-width:1.0;"/><line style="stroke:#181818;stroke-width:1.0;" x1="736.8037" x2="978.2158" y1="1209.9375" y2="1209.9375"/><text fill="#000000" font-family="sans-serif" font-size="13" lengthAdjust="spacing" textLength="174.8271" x="773.0962" y="1205.0811">givePermissionTo(permission)</text><polygon fill="#181818" points="388.6982,1243.2891,378.6982,1247.2891,388.6982,1251.2891,384.6982,1247.2891" style="stroke:#181818;stroke-width:1.0;"/><line style="stroke:#181818;stroke-width:1.0;stroke-dasharray:2.0,2.0;" x1="382.6982" x2="735.8037" y1="1247.2891" y2="1247.2891"/><text fill="#000000" font-family="sans-serif" font-size="13" lengthAdjust="spacing" textLength="313.4155" x="400.5432" y="1242.4326">showSuccess("Semua permission kategori diaktifkan")</text><line style="stroke:#000000;stroke-width:1.0;stroke-dasharray:2.0,2.0;" x1="329.9536" x2="1025.6123" y1="1256.2891" y2="1256.2891"/><text fill="#000000" font-family="sans-serif" font-size="11" font-weight="bold" lengthAdjust="spacing" textLength="164.4038" x="334.9536" y="1267.708">[Kategori Sudah Dipilih Semua]</text><path d="M675.0625,1278.125 L747.4971,1278.125 L747.4971,1286.4766 L737.4971,1296.4766 L675.0625,1296.4766 L675.0625,1278.125 " fill="#EEEEEE" style="stroke:#000000;stroke-width:1.5;"/><rect fill="none" height="48.7031" style="stroke:#000000;stroke-width:1.5;" width="340.5498" x="675.0625" y="1278.125"/><text fill="#000000" font-family="sans-serif" font-size="13" font-weight="bold" lengthAdjust="spacing" textLength="27.4346" x="690.0625" y="1292.6201">loop</text><text fill="#000000" font-family="sans-serif" font-size="11" font-weight="bold" lengthAdjust="spacing" textLength="193.7568" x="762.4971" y="1291.5439">[Untuk setiap permission di kategori]</text><polygon fill="#181818" points="972.2158,1314.8281,982.2158,1318.8281,972.2158,1322.8281,976.2158,1318.8281" style="stroke:#181818;stroke-width:1.0;"/><line style="stroke:#181818;stroke-width:1.0;" x1="736.8037" x2="978.2158" y1="1318.8281" y2="1318.8281"/><text fill="#000000" font-family="sans-serif" font-size="13" lengthAdjust="spacing" textLength="189.998" x="765.5107" y="1313.9717">revokePermissionTo(permission)</text><polygon fill="#181818" points="388.6982,1352.1797,378.6982,1356.1797,388.6982,1360.1797,384.6982,1356.1797" style="stroke:#181818;stroke-width:1.0;"/><line style="stroke:#181818;stroke-width:1.0;stroke-dasharray:2.0,2.0;" x1="382.6982" x2="735.8037" y1="1356.1797" y2="1356.1797"/><text fill="#000000" font-family="sans-serif" font-size="13" lengthAdjust="spacing" textLength="335.1055" x="389.6982" y="1351.3232">showSuccess("Semua permission kategori dinonaktifkan")</text><polygon fill="#181818" points="365.6982,1389.5313,375.6982,1393.5313,365.6982,1397.5313,369.6982,1393.5313" style="stroke:#181818;stroke-width:1.0;"/><line style="stroke:#181818;stroke-width:1.0;" x1="27.8413" x2="371.6982" y1="1393.5313" y2="1393.5313"/><text fill="#000000" font-family="sans-serif" font-size="13" lengthAdjust="spacing" textLength="299.1396" x="53.2" y="1388.6748">Toggle individual permission(role_id, permission_id)</text><polygon fill="#181818" points="724.8037,1419.8828,734.8037,1423.8828,724.8037,1427.8828,728.8037,1423.8828" style="stroke:#181818;stroke-width:1.0;"/><line style="stroke:#181818;stroke-width:1.0;" x1="377.6982" x2="730.8037" y1="1423.8828" y2="1423.8828"/><text fill="#000000" font-family="sans-serif" font-size="13" lengthAdjust="spacing" textLength="234.8252" x="439.8384" y="1419.0264">togglePermission(role_id, permission_id)</text><polygon fill="#181818" points="972.2158,1450.2344,982.2158,1454.2344,972.2158,1458.2344,976.2158,1454.2344" style="stroke:#181818;stroke-width:1.0;"/><line style="stroke:#181818;stroke-width:1.0;" x1="736.8037" x2="978.2158" y1="1454.2344" y2="1454.2344"/><text fill="#000000" font-family="sans-serif" font-size="13" lengthAdjust="spacing" textLength="68.6436" x="826.188" y="1449.3779">find(role_id)</text><polygon fill="#181818" points="1045.2329,1480.5859,1055.2329,1484.5859,1045.2329,1488.5859,1049.2329,1484.5859" style="stroke:#181818;stroke-width:1.0;"/><line style="stroke:#181818;stroke-width:1.0;" x1="736.8037" x2="1051.2329" y1="1484.5859" y2="1484.5859"/><text fill="#000000" font-family="sans-serif" font-size="13" lengthAdjust="spacing" textLength="109.8208" x="842.1079" y="1479.7295">find(permission_id)</text><path d="M329.9536,1499.5859 L390.1245,1499.5859 L390.1245,1507.9375 L380.1245,1517.9375 L329.9536,1517.9375 L329.9536,1499.5859 " fill="#EEEEEE" style="stroke:#000000;stroke-width:1.5;"/><rect fill="none" height="155.5938" style="stroke:#000000;stroke-width:1.5;" width="685.6587" x="329.9536" y="1499.5859"/><text fill="#000000" font-family="sans-serif" font-size="13" font-weight="bold" lengthAdjust="spacing" textLength="15.1709" x="344.9536" y="1514.0811">alt</text><text fill="#000000" font-family="sans-serif" font-size="11" font-weight="bold" lengthAdjust="spacing" textLength="145.4814" x="405.1245" y="1513.0049">[Permission Belum Dimiliki]</text><polygon fill="#181818" points="972.2158,1536.2891,982.2158,1540.2891,972.2158,1544.2891,976.2158,1540.2891" style="stroke:#181818;stroke-width:1.0;"/><line style="stroke:#181818;stroke-width:1.0;" x1="736.8037" x2="978.2158" y1="1540.2891" y2="1540.2891"/><text fill="#000000" font-family="sans-serif" font-size="13" lengthAdjust="spacing" textLength="174.8271" x="773.0962" y="1535.4326">givePermissionTo(permission)</text><polygon fill="#181818" points="388.6982,1566.6406,378.6982,1570.6406,388.6982,1574.6406,384.6982,1570.6406" style="stroke:#181818;stroke-width:1.0;"/><line style="stroke:#181818;stroke-width:1.0;stroke-dasharray:2.0,2.0;" x1="382.6982" x2="735.8037" y1="1570.6406" y2="1570.6406"/><text fill="#000000" font-family="sans-serif" font-size="13" lengthAdjust="spacing" textLength="239.7129" x="437.3945" y="1565.7842">showSuccess("Permission ditambahkan")</text><line style="stroke:#000000;stroke-width:1.0;stroke-dasharray:2.0,2.0;" x1="329.9536" x2="1015.6123" y1="1579.6406" y2="1579.6406"/><text fill="#000000" font-family="sans-serif" font-size="11" font-weight="bold" lengthAdjust="spacing" textLength="145.4761" x="334.9536" y="1591.0596">[Permission Sudah Dimiliki]</text><polygon fill="#181818" points="972.2158,1612.8281,982.2158,1616.8281,972.2158,1620.8281,976.2158,1616.8281" style="stroke:#181818;stroke-width:1.0;"/><line style="stroke:#181818;stroke-width:1.0;" x1="736.8037" x2="978.2158" y1="1616.8281" y2="1616.8281"/><text fill="#000000" font-family="sans-serif" font-size="13" lengthAdjust="spacing" textLength="189.998" x="765.5107" y="1611.9717">revokePermissionTo(permission)</text><polygon fill="#181818" points="388.6982,1643.1797,378.6982,1647.1797,388.6982,1651.1797,384.6982,1647.1797" style="stroke:#181818;stroke-width:1.0;"/><line style="stroke:#181818;stroke-width:1.0;stroke-dasharray:2.0,2.0;" x1="382.6982" x2="735.8037" y1="1647.1797" y2="1647.1797"/><text fill="#000000" font-family="sans-serif" font-size="13" lengthAdjust="spacing" textLength="207.1938" x="453.6541" y="1642.3232">showSuccess("Permission dicabut")</text><polygon fill="#181818" points="365.6982,1680.5313,375.6982,1684.5313,365.6982,1688.5313,369.6982,1684.5313" style="stroke:#181818;stroke-width:1.0;"/><line style="stroke:#181818;stroke-width:1.0;" x1="27.8413" x2="371.6982" y1="1684.5313" y2="1684.5313"/><text fill="#000000" font-family="sans-serif" font-size="13" lengthAdjust="spacing" textLength="325.8569" x="39.8413" y="1679.6748">Simpan konfigurasi permission(role_id, permission_ids[])</text><polygon fill="#181818" points="724.8037,1710.8828,734.8037,1714.8828,724.8037,1718.8828,728.8037,1714.8828" style="stroke:#181818;stroke-width:1.0;"/><line style="stroke:#181818;stroke-width:1.0;" x1="377.6982" x2="730.8037" y1="1714.8828" y2="1714.8828"/><text fill="#000000" font-family="sans-serif" font-size="13" lengthAdjust="spacing" textLength="246.3589" x="434.0715" y="1710.0264">syncPermissions(role_id, permission_ids[])</text><polygon fill="#181818" points="972.2158,1741.2344,982.2158,1745.2344,972.2158,1749.2344,976.2158,1745.2344" style="stroke:#181818;stroke-width:1.0;"/><line style="stroke:#181818;stroke-width:1.0;" x1="736.8037" x2="978.2158" y1="1745.2344" y2="1745.2344"/><text fill="#000000" font-family="sans-serif" font-size="13" lengthAdjust="spacing" textLength="68.6436" x="826.188" y="1740.3779">find(role_id)</text><polygon fill="#181818" points="972.2158,1771.5859,982.2158,1775.5859,972.2158,1779.5859,976.2158,1775.5859" style="stroke:#181818;stroke-width:1.0;"/><line style="stroke:#181818;stroke-width:1.0;" x1="736.8037" x2="978.2158" y1="1775.5859" y2="1775.5859"/><text fill="#000000" font-family="sans-serif" font-size="13" lengthAdjust="spacing" textLength="200.1099" x="760.4548" y="1770.7295">syncPermissions(permission_ids[])</text><polygon fill="#181818" points="388.6982,1801.9375,378.6982,1805.9375,388.6982,1809.9375,384.6982,1805.9375" style="stroke:#181818;stroke-width:1.0;"/><line style="stroke:#181818;stroke-width:1.0;stroke-dasharray:2.0,2.0;" x1="382.6982" x2="735.8037" y1="1805.9375" y2="1805.9375"/><text fill="#000000" font-family="sans-serif" font-size="13" lengthAdjust="spacing" textLength="283.791" x="415.3555" y="1801.0811">showSuccess("Hak akses berhasil disinkronkan")</text><polygon fill="#181818" points="365.6982,1832.2891,375.6982,1836.2891,365.6982,1840.2891,369.6982,1836.2891" style="stroke:#181818;stroke-width:1.0;"/><line style="stroke:#181818;stroke-width:1.0;" x1="27.8413" x2="371.6982" y1="1836.2891" y2="1836.2891"/><text fill="#000000" font-family="sans-serif" font-size="13" lengthAdjust="spacing" textLength="93.2153" x="156.1621" y="1831.4326">Hapus peran(id)</text><polygon fill="#181818" points="724.8037,1862.6406,734.8037,1866.6406,724.8037,1870.6406,728.8037,1866.6406" style="stroke:#181818;stroke-width:1.0;"/><line style="stroke:#181818;stroke-width:1.0;" x1="377.6982" x2="730.8037" y1="1866.6406" y2="1866.6406"/><text fill="#000000" font-family="sans-serif" font-size="13" lengthAdjust="spacing" textLength="61.4072" x="526.5474" y="1861.7842">destroy(id)</text><polygon fill="#181818" points="972.2158,1892.9922,982.2158,1896.9922,972.2158,1900.9922,976.2158,1896.9922" style="stroke:#181818;stroke-width:1.0;"/><line style="stroke:#181818;stroke-width:1.0;" x1="736.8037" x2="978.2158" y1="1896.9922" y2="1896.9922"/><text fill="#000000" font-family="sans-serif" font-size="13" lengthAdjust="spacing" textLength="39.7363" x="840.6416" y="1892.1357">find(id)</text><polygon fill="#181818" points="972.2158,1923.3438,982.2158,1927.3438,972.2158,1931.3438,976.2158,1927.3438" style="stroke:#181818;stroke-width:1.0;"/><line style="stroke:#181818;stroke-width:1.0;" x1="736.8037" x2="978.2158" y1="1927.3438" y2="1927.3438"/><text fill="#000000" font-family="sans-serif" font-size="13" lengthAdjust="spacing" textLength="92.8281" x="814.0957" y="1922.4873">users()-&gt;count()</text><path d="M329.9536,1942.3438 L390.1245,1942.3438 L390.1245,1950.6953 L380.1245,1960.6953 L329.9536,1960.6953 L329.9536,1942.3438 " fill="#EEEEEE" style="stroke:#000000;stroke-width:1.5;"/><rect fill="none" height="125.2422" style="stroke:#000000;stroke-width:1.5;" width="685.6587" x="329.9536" y="1942.3438"/><text fill="#000000" font-family="sans-serif" font-size="13" font-weight="bold" lengthAdjust="spacing" textLength="15.1709" x="344.9536" y="1956.8389">alt</text><text fill="#000000" font-family="sans-serif" font-size="11" font-weight="bold" lengthAdjust="spacing" textLength="139.9707" x="405.1245" y="1955.7627">[Peran Sedang Digunakan]</text><polygon fill="#181818" points="388.6982,1979.0469,378.6982,1983.0469,388.6982,1987.0469,384.6982,1983.0469" style="stroke:#181818;stroke-width:1.0;"/><line style="stroke:#181818;stroke-width:1.0;stroke-dasharray:2.0,2.0;" x1="382.6982" x2="735.8037" y1="1983.0469" y2="1983.0469"/><text fill="#000000" font-family="sans-serif" font-size="13" lengthAdjust="spacing" textLength="278.7764" x="417.8628" y="1978.1904">showError("Peran sedang digunakan oleh user")</text><line style="stroke:#000000;stroke-width:1.0;stroke-dasharray:2.0,2.0;" x1="329.9536" x2="1015.6123" y1="1992.0469" y2="1992.0469"/><text fill="#000000" font-family="sans-serif" font-size="11" font-weight="bold" lengthAdjust="spacing" textLength="128.9707" x="334.9536" y="2003.4658">[Peran Tidak Digunakan]</text><polygon fill="#181818" points="972.2158,2025.2344,982.2158,2029.2344,972.2158,2033.2344,976.2158,2029.2344" style="stroke:#181818;stroke-width:1.0;"/><line style="stroke:#181818;stroke-width:1.0;" x1="736.8037" x2="978.2158" y1="2029.2344" y2="2029.2344"/><text fill="#000000" font-family="sans-serif" font-size="13" lengthAdjust="spacing" textLength="44.0781" x="838.4707" y="2024.3779">delete()</text><polygon fill="#181818" points="388.6982,2055.5859,378.6982,2059.5859,388.6982,2063.5859,384.6982,2059.5859" style="stroke:#181818;stroke-width:1.0;"/><line style="stroke:#181818;stroke-width:1.0;stroke-dasharray:2.0,2.0;" x1="382.6982" x2="735.8037" y1="2059.5859" y2="2059.5859"/><text fill="#000000" font-family="sans-serif" font-size="13" lengthAdjust="spacing" textLength="230.3438" x="442.0791" y="2054.7295">showSuccess("Peran berhasil dihapus")</text><polygon fill="#181818" points="365.6982,2092.9375,375.6982,2096.9375,365.6982,2100.9375,369.6982,2096.9375" style="stroke:#181818;stroke-width:1.0;"/><line style="stroke:#181818;stroke-width:1.0;" x1="27.8413" x2="371.6982" y1="2096.9375" y2="2096.9375"/><text fill="#000000" font-family="sans-serif" font-size="13" lengthAdjust="spacing" textLength="118.5171" x="143.5112" y="2092.0811">Lihat detail peran(id)</text><polygon fill="#181818" points="724.8037,2123.2891,734.8037,2127.2891,724.8037,2131.2891,728.8037,2127.2891" style="stroke:#181818;stroke-width:1.0;"/><line style="stroke:#181818;stroke-width:1.0;" x1="377.6982" x2="730.8037" y1="2127.2891" y2="2127.2891"/><text fill="#000000" font-family="sans-serif" font-size="13" lengthAdjust="spacing" textLength="49.1245" x="532.6887" y="2122.4326">show(id)</text><polygon fill="#181818" points="972.2158,2153.6406,982.2158,2157.6406,972.2158,2161.6406,976.2158,2157.6406" style="stroke:#181818;stroke-width:1.0;"/><line style="stroke:#181818;stroke-width:1.0;" x1="736.8037" x2="978.2158" y1="2157.6406" y2="2157.6406"/><text fill="#000000" font-family="sans-serif" font-size="13" lengthAdjust="spacing" textLength="201.7285" x="759.6455" y="2152.7842">with('permissions', 'users')-&gt;find(id)</text><polygon fill="#181818" points="388.6982,2183.9922,378.6982,2187.9922,388.6982,2191.9922,384.6982,2187.9922" style="stroke:#181818;stroke-width:1.0;"/><line style="stroke:#181818;stroke-width:1.0;stroke-dasharray:2.0,2.0;" x1="382.6982" x2="735.8037" y1="2187.9922" y2="2187.9922"/><text fill="#000000" font-family="sans-serif" font-size="13" lengthAdjust="spacing" textLength="98.979" x="507.7615" y="2183.1357">showRoleDetail()</text><!--SRC=[jLPBRziu4BxhLmnyg1N0FVIwM1ImdRO14Y-C9jrBTn5C94PYHP5QaahgVxz3KY_BX9kWhI-soNbzCnzdnbHSDgYn1iF-QvdCs8uPWmLR2rv8o9YqJ2U9vLOmkEr4u99ZGJh_o6icb43OCuqIti0LLh2k33D9WfbL6XRhlEPo0MZ0_qh8b-KPRr1QM7nMWkt9bx__l3-zt2ffjHA2wI2oFHK95pV75nHFpOtXAhZUxvB4kuUtxyaF_04x9WjqWKA90ciAld4G4hfq8biIgLKhRNgHq1ztT4D7pzoMMt-yR0tJPhc2PJEuCikBj-yBDkhiTwI3GgJkNAkssHpIPOQM5KeVba6g3oZdfX5uS8ZCMkOZ04FcPi7VOVs0POWO7b2tgSIQhQ36x_S-heif3aDrO169xI3nX8Bd5DQfK8B2mj_-sd3OC5tIjqY0FfEqP9f5jNknFcvJgkVRDik8OEaYKEQXCqduhKTLeLnS94mO1dzHNJfctROv0Lxd6BNvGMkbquMN3qanNZxdHIjnOd67t-6BYmt-X7VdJ6tG4cqQLZ7z3O5opsiKyCxPaVcy71yezk0tvVaApjMYRNoUus9ZGX-vp4debnQfS_sJHIAOZd2yp-ZWzXCMACwbz99I2fQ4gm0bdijDMo5KIZvIwRIpEpwlb1e1k_TP6HDApsryAbklDv4xVhdf_AtwDC-aN_Dc7RhH-qUbQszj1LwHvVSJVwUFM1K5jTGgc8u1NK7lzmYozOhRxchQA69wCrB5q3wNZ1h427AYt_SpJx7hFjGD4srDCw3XWfSq5Eesl4kXL0DVf6qh6YQMOpC1HTmPi7hX6JqB_iH6B7Sg7LK3HnrPpdBLnp7rEAGsvrXP_ZXf10EKq5X-BHJDdbJr6y589QTuJXzHHosgDt_YUKkTAqQkyMp-g0B3zY_GUG6x_CLCpzDfj3yGggOgL3nvBJNEjQ-nPYVpPNBRqo0Um0iA-h8GCdneRRncjxocrUK7hMzM0FFrt-D9Vv1Pj1z4jCvNpb_CpSMjH56xFJ2iLvFPORYij9AX0ZFuLzYqPXYYHwXoPcW7FAGnmitE_4XpdJlhThUUQ6w5O3dAWchSxGJdPbNGC45Zs2A0SbHw7nC6qV6T7sgdXhkWSYOO3TxNJjhIPIJEbHkwj6JN8XVnd3dJwGz786slOOtjPs6lCOtGRQINtXL1-1y0]--></g></svg>