<svg xmlns="http://www.w3.org/2000/svg" xmlns:xlink="http://www.w3.org/1999/xlink" contentStyleType="text/css" height="952px" preserveAspectRatio="none" style="width:1469px;height:952px;background:#FFFFFF;" version="1.1" viewBox="0 0 1469 952" width="1469px" zoomAndPan="magnify"><title>Sequence Diagram</title><defs/><g><text fill="#000000" font-family="sans-serif" font-size="14" font-weight="bold" lengthAdjust="spacing" textLength="126.0479" x="670.49" y="29.5332">Sequence Diagram</text><text fill="#000000" font-family="sans-serif" font-size="14" font-weight="bold" lengthAdjust="spacing" textLength="184.4131" x="641.3074" y="47.1426">Mengakses Halaman Utama</text><line style="stroke:#181818;stroke-width:0.5;stroke-dasharray:5.0,5.0;" x1="45" x2="45" y1="138.8281" y2="869.9141"/><line style="stroke:#181818;stroke-width:0.5;stroke-dasharray:5.0,5.0;" x1="314.0757" x2="314.0757" y1="138.8281" y2="869.9141"/><line style="stroke:#181818;stroke-width:0.5;stroke-dasharray:5.0,5.0;" x1="809.2402" x2="809.2402" y1="138.8281" y2="869.9141"/><line style="stroke:#181818;stroke-width:0.5;stroke-dasharray:5.0,5.0;" x1="1230.4839" x2="1230.4839" y1="138.8281" y2="869.9141"/><line style="stroke:#181818;stroke-width:0.5;stroke-dasharray:5.0,5.0;" x1="1326.7319" x2="1326.7319" y1="138.8281" y2="869.9141"/><line style="stroke:#181818;stroke-width:0.5;stroke-dasharray:5.0,5.0;" x1="1427.2212" x2="1427.2212" y1="138.8281" y2="869.9141"/><text fill="#000000" font-family="sans-serif" font-size="14" lengthAdjust="spacing" textLength="74.7373" x="5" y="135.752">Pengunjung</text><ellipse cx="45.3687" cy="69.7188" fill="#E2E2F0" rx="8" ry="8" style="stroke:#181818;stroke-width:0.5;"/><path d="M45.3687,77.7188 L45.3687,104.7188 M32.3687,85.7188 L58.3687,85.7188 M45.3687,104.7188 L32.3687,119.7188 M45.3687,104.7188 L58.3687,119.7188 " fill="none" style="stroke:#181818;stroke-width:0.5;"/><text fill="#000000" font-family="sans-serif" font-size="14" lengthAdjust="spacing" textLength="74.7373" x="5" y="883.4473">Pengunjung</text><ellipse cx="45.3687" cy="895.0234" fill="#E2E2F0" rx="8" ry="8" style="stroke:#181818;stroke-width:0.5;"/><path d="M45.3687,903.0234 L45.3687,930.0234 M32.3687,911.0234 L58.3687,911.0234 M45.3687,930.0234 L32.3687,945.0234 M45.3687,930.0234 L58.3687,945.0234 " fill="none" style="stroke:#181818;stroke-width:0.5;"/><rect fill="#E2E2F0" height="31.6094" rx="2.5" ry="2.5" style="stroke:#181818;stroke-width:0.5;" width="96.5234" x="266.0757" y="106.2188"/><text fill="#000000" font-family="sans-serif" font-size="14" lengthAdjust="spacing" textLength="82.5234" x="273.0757" y="127.752">LandingPage</text><rect fill="#E2E2F0" height="31.6094" rx="2.5" ry="2.5" style="stroke:#181818;stroke-width:0.5;" width="96.5234" x="266.0757" y="868.9141"/><text fill="#000000" font-family="sans-serif" font-size="14" lengthAdjust="spacing" textLength="82.5234" x="273.0757" y="890.4473">LandingPage</text><rect fill="#E2E2F0" height="31.6094" rx="2.5" ry="2.5" style="stroke:#181818;stroke-width:0.5;" width="124.5166" x="747.2402" y="106.2188"/><text fill="#000000" font-family="sans-serif" font-size="14" lengthAdjust="spacing" textLength="110.5166" x="754.2402" y="127.752">LandingController</text><rect fill="#E2E2F0" height="31.6094" rx="2.5" ry="2.5" style="stroke:#181818;stroke-width:0.5;" width="124.5166" x="747.2402" y="868.9141"/><text fill="#000000" font-family="sans-serif" font-size="14" lengthAdjust="spacing" textLength="110.5166" x="754.2402" y="890.4473">LandingController</text><rect fill="#E2E2F0" height="31.6094" rx="2.5" ry="2.5" style="stroke:#181818;stroke-width:0.5;" width="62.248" x="1199.4839" y="106.2188"/><text fill="#000000" font-family="sans-serif" font-size="14" lengthAdjust="spacing" textLength="48.248" x="1206.4839" y="127.752">Product</text><rect fill="#E2E2F0" height="31.6094" rx="2.5" ry="2.5" style="stroke:#181818;stroke-width:0.5;" width="62.248" x="1199.4839" y="868.9141"/><text fill="#000000" font-family="sans-serif" font-size="14" lengthAdjust="spacing" textLength="48.248" x="1206.4839" y="890.4473">Product</text><rect fill="#E2E2F0" height="31.6094" rx="2.5" ry="2.5" style="stroke:#181818;stroke-width:0.5;" width="110.4893" x="1271.7319" y="106.2188"/><text fill="#000000" font-family="sans-serif" font-size="14" lengthAdjust="spacing" textLength="96.4893" x="1278.7319" y="127.752">BusinessProfile</text><rect fill="#E2E2F0" height="31.6094" rx="2.5" ry="2.5" style="stroke:#181818;stroke-width:0.5;" width="110.4893" x="1271.7319" y="868.9141"/><text fill="#000000" font-family="sans-serif" font-size="14" lengthAdjust="spacing" textLength="96.4893" x="1278.7319" y="890.4473">BusinessProfile</text><rect fill="#E2E2F0" height="31.6094" rx="2.5" ry="2.5" style="stroke:#181818;stroke-width:0.5;" width="70.8066" x="1392.2212" y="106.2188"/><text fill="#000000" font-family="sans-serif" font-size="14" lengthAdjust="spacing" textLength="56.8066" x="1399.2212" y="127.752">Category</text><rect fill="#E2E2F0" height="31.6094" rx="2.5" ry="2.5" style="stroke:#181818;stroke-width:0.5;" width="70.8066" x="1392.2212" y="868.9141"/><text fill="#000000" font-family="sans-serif" font-size="14" lengthAdjust="spacing" textLength="56.8066" x="1399.2212" y="890.4473">Category</text><polygon fill="#181818" points="302.3374,167.1797,312.3374,171.1797,302.3374,175.1797,306.3374,171.1797" style="stroke:#181818;stroke-width:1.0;"/><line style="stroke:#181818;stroke-width:1.0;" x1="45.3687" x2="308.3374" y1="171.1797" y2="171.1797"/><text fill="#000000" font-family="sans-serif" font-size="13" lengthAdjust="spacing" textLength="144.5488" x="107.5786" y="166.3232">Mengakses landing page</text><polygon fill="#181818" points="797.4985,197.5313,807.4985,201.5313,797.4985,205.5313,801.4985,201.5313" style="stroke:#181818;stroke-width:1.0;"/><line style="stroke:#181818;stroke-width:1.0;" x1="314.3374" x2="803.4985" y1="201.5313" y2="201.5313"/><text fill="#000000" font-family="sans-serif" font-size="13" lengthAdjust="spacing" textLength="44.7891" x="539.5234" y="196.6748">mount()</text><polygon fill="#181818" points="1314.9766,227.8828,1324.9766,231.8828,1314.9766,235.8828,1318.9766,231.8828" style="stroke:#181818;stroke-width:1.0;"/><line style="stroke:#181818;stroke-width:1.0;" x1="809.4985" x2="1320.9766" y1="231.8828" y2="231.8828"/><text fill="#000000" font-family="sans-serif" font-size="13" lengthAdjust="spacing" textLength="29.5991" x="1053.438" y="227.0264">first()</text><polygon fill="#181818" points="1218.6079,258.2344,1228.6079,262.2344,1218.6079,266.2344,1222.6079,262.2344" style="stroke:#181818;stroke-width:1.0;"/><line style="stroke:#181818;stroke-width:1.0;" x1="809.4985" x2="1224.6079" y1="262.2344" y2="262.2344"/><text fill="#000000" font-family="sans-serif" font-size="13" lengthAdjust="spacing" textLength="397.1094" x="821.4985" y="257.3779">where('is_recommended', true)-&gt;orderBy('total_sold', 'desc')-&gt;take(4)</text><polygon fill="#181818" points="1218.6079,288.5859,1228.6079,292.5859,1218.6079,296.5859,1222.6079,292.5859" style="stroke:#181818;stroke-width:1.0;"/><line style="stroke:#181818;stroke-width:1.0;" x1="809.4985" x2="1224.6079" y1="292.5859" y2="292.5859"/><text fill="#000000" font-family="sans-serif" font-size="13" lengthAdjust="spacing" textLength="99.3408" x="970.3828" y="287.7295">latest()-&gt;take(10)</text><polygon fill="#181818" points="1415.6245,318.9375,1425.6245,322.9375,1415.6245,326.9375,1419.6245,322.9375" style="stroke:#181818;stroke-width:1.0;"/><line style="stroke:#181818;stroke-width:1.0;" x1="809.4985" x2="1421.6245" y1="322.9375" y2="322.9375"/><text fill="#000000" font-family="sans-serif" font-size="13" lengthAdjust="spacing" textLength="21.6646" x="1107.7292" y="318.0811">all()</text><polygon fill="#181818" points="325.3374,349.2891,315.3374,353.2891,325.3374,357.2891,321.3374,353.2891" style="stroke:#181818;stroke-width:1.0;"/><line style="stroke:#181818;stroke-width:1.0;stroke-dasharray:2.0,2.0;" x1="319.3374" x2="808.4985" y1="353.2891" y2="353.2891"/><text fill="#000000" font-family="sans-serif" font-size="13" lengthAdjust="spacing" textLength="471.1611" x="326.3374" y="348.4326">displayLandingPage(profile, recommended_products, latest_products, categories)</text><polygon fill="#181818" points="302.3374,379.6406,312.3374,383.6406,302.3374,387.6406,306.3374,383.6406" style="stroke:#181818;stroke-width:1.0;"/><line style="stroke:#181818;stroke-width:1.0;" x1="45.3687" x2="308.3374" y1="383.6406" y2="383.6406"/><text fill="#000000" font-family="sans-serif" font-size="13" lengthAdjust="spacing" textLength="127.1626" x="116.2717" y="378.7842">Klik tombol WhatsApp</text><polygon fill="#181818" points="56.3687,409.9922,46.3687,413.9922,56.3687,417.9922,52.3687,413.9922" style="stroke:#181818;stroke-width:1.0;"/><line style="stroke:#181818;stroke-width:1.0;stroke-dasharray:2.0,2.0;" x1="50.3687" x2="313.3374" y1="413.9922" y2="413.9922"/><text fill="#000000" font-family="sans-serif" font-size="13" lengthAdjust="spacing" textLength="244.9688" x="57.3687" y="409.1357">Redirect ke WhatsApp dengan nomor toko</text><polygon fill="#181818" points="302.3374,440.3438,312.3374,444.3438,302.3374,448.3438,306.3374,444.3438" style="stroke:#181818;stroke-width:1.0;"/><line style="stroke:#181818;stroke-width:1.0;" x1="45.3687" x2="308.3374" y1="444.3438" y2="444.3438"/><text fill="#000000" font-family="sans-serif" font-size="13" lengthAdjust="spacing" textLength="166.2197" x="96.7432" y="439.4873">Klik produk unggulan/terbaru</text><polygon fill="#181818" points="56.3687,470.6953,46.3687,474.6953,56.3687,478.6953,52.3687,474.6953" style="stroke:#181818;stroke-width:1.0;"/><line style="stroke:#181818;stroke-width:1.0;stroke-dasharray:2.0,2.0;" x1="50.3687" x2="313.3374" y1="474.6953" y2="474.6953"/><text fill="#000000" font-family="sans-serif" font-size="13" lengthAdjust="spacing" textLength="197.2788" x="81.2136" y="469.8389">Redirect ke halaman detail produk</text><polygon fill="#181818" points="302.3374,501.0469,312.3374,505.0469,302.3374,509.0469,306.3374,505.0469" style="stroke:#181818;stroke-width:1.0;"/><line style="stroke:#181818;stroke-width:1.0;" x1="45.3687" x2="308.3374" y1="505.0469" y2="505.0469"/><text fill="#000000" font-family="sans-serif" font-size="13" lengthAdjust="spacing" textLength="158.8184" x="100.4438" y="500.1904">Klik tombol "Selengkapnya"</text><polygon fill="#181818" points="56.3687,531.3984,46.3687,535.3984,56.3687,539.3984,52.3687,535.3984" style="stroke:#181818;stroke-width:1.0;"/><line style="stroke:#181818;stroke-width:1.0;stroke-dasharray:2.0,2.0;" x1="50.3687" x2="313.3374" y1="535.3984" y2="535.3984"/><text fill="#000000" font-family="sans-serif" font-size="13" lengthAdjust="spacing" textLength="208.1206" x="75.7927" y="530.542">Redirect ke halaman katalog produk</text><polygon fill="#181818" points="302.3374,561.75,312.3374,565.75,302.3374,569.75,306.3374,565.75" style="stroke:#181818;stroke-width:1.0;"/><line style="stroke:#181818;stroke-width:1.0;" x1="45.3687" x2="308.3374" y1="565.75" y2="565.75"/><text fill="#000000" font-family="sans-serif" font-size="13" lengthAdjust="spacing" textLength="199.437" x="80.1345" y="560.8936">Gunakan kolom pencarian(search)</text><polygon fill="#181818" points="797.4985,592.1016,807.4985,596.1016,797.4985,600.1016,801.4985,596.1016" style="stroke:#181818;stroke-width:1.0;"/><line style="stroke:#181818;stroke-width:1.0;" x1="314.3374" x2="803.4985" y1="596.1016" y2="596.1016"/><text fill="#000000" font-family="sans-serif" font-size="13" lengthAdjust="spacing" textLength="137.998" x="492.9189" y="591.2451">searchProducts(search)</text><polygon fill="#181818" points="1218.6079,622.4531,1228.6079,626.4531,1218.6079,630.4531,1222.6079,626.4531" style="stroke:#181818;stroke-width:1.0;"/><line style="stroke:#181818;stroke-width:1.0;" x1="809.4985" x2="1224.6079" y1="626.4531" y2="626.4531"/><text fill="#000000" font-family="sans-serif" font-size="13" lengthAdjust="spacing" textLength="247.1777" x="896.4644" y="621.5967">where('name', 'like', '%search%')-&gt;take(10)</text><polygon fill="#181818" points="325.3374,652.8047,315.3374,656.8047,325.3374,660.8047,321.3374,656.8047" style="stroke:#181818;stroke-width:1.0;"/><line style="stroke:#181818;stroke-width:1.0;stroke-dasharray:2.0,2.0;" x1="319.3374" x2="808.4985" y1="656.8047" y2="656.8047"/><text fill="#000000" font-family="sans-serif" font-size="13" lengthAdjust="spacing" textLength="133.6626" x="495.0867" y="651.9482">displaySearchResults()</text><polygon fill="#181818" points="302.3374,683.1563,312.3374,687.1563,302.3374,691.1563,306.3374,687.1563" style="stroke:#181818;stroke-width:1.0;"/><line style="stroke:#181818;stroke-width:1.0;" x1="45.3687" x2="308.3374" y1="687.1563" y2="687.1563"/><text fill="#000000" font-family="sans-serif" font-size="13" lengthAdjust="spacing" textLength="223.2788" x="68.2136" y="682.2998">Pilih filter metode pemesanan(method)</text><polygon fill="#181818" points="797.4985,713.5078,807.4985,717.5078,797.4985,721.5078,801.4985,717.5078" style="stroke:#181818;stroke-width:1.0;"/><line style="stroke:#181818;stroke-width:1.0;" x1="314.3374" x2="803.4985" y1="717.5078" y2="717.5078"/><text fill="#000000" font-family="sans-serif" font-size="13" lengthAdjust="spacing" textLength="135.1099" x="494.363" y="712.6514">filterByMethod(method)</text><polygon fill="#181818" points="1218.6079,743.8594,1228.6079,747.8594,1218.6079,751.8594,1222.6079,747.8594" style="stroke:#181818;stroke-width:1.0;"/><line style="stroke:#181818;stroke-width:1.0;" x1="809.4985" x2="1224.6079" y1="747.8594" y2="747.8594"/><text fill="#000000" font-family="sans-serif" font-size="13" lengthAdjust="spacing" textLength="240.1636" x="899.9714" y="743.0029">where('order_method', method)-&gt;take(10)</text><polygon fill="#181818" points="325.3374,774.2109,315.3374,778.2109,325.3374,782.2109,321.3374,778.2109" style="stroke:#181818;stroke-width:1.0;"/><line style="stroke:#181818;stroke-width:1.0;stroke-dasharray:2.0,2.0;" x1="319.3374" x2="808.4985" y1="778.2109" y2="778.2109"/><text fill="#000000" font-family="sans-serif" font-size="13" lengthAdjust="spacing" textLength="143.7744" x="490.0308" y="773.3545">displayFilteredProducts()</text><polygon fill="#181818" points="302.3374,804.5625,312.3374,808.5625,302.3374,812.5625,306.3374,808.5625" style="stroke:#181818;stroke-width:1.0;"/><line style="stroke:#181818;stroke-width:1.0;" x1="45.3687" x2="308.3374" y1="808.5625" y2="808.5625"/><text fill="#000000" font-family="sans-serif" font-size="13" lengthAdjust="spacing" textLength="140.1943" x="109.7559" y="803.7061">Scroll ke bagian tertentu</text><line style="stroke:#181818;stroke-width:1.0;stroke-dasharray:2.0,2.0;" x1="314.3374" x2="356.3374" y1="838.9141" y2="838.9141"/><line style="stroke:#181818;stroke-width:1.0;stroke-dasharray:2.0,2.0;" x1="356.3374" x2="356.3374" y1="838.9141" y2="851.9141"/><line style="stroke:#181818;stroke-width:1.0;stroke-dasharray:2.0,2.0;" x1="315.3374" x2="356.3374" y1="851.9141" y2="851.9141"/><polygon fill="#181818" points="325.3374,847.9141,315.3374,851.9141,325.3374,855.9141,321.3374,851.9141" style="stroke:#181818;stroke-width:1.0;"/><text fill="#000000" font-family="sans-serif" font-size="13" lengthAdjust="spacing" textLength="157.5044" x="321.3374" y="834.0576">smoothScrollTo(section_id)</text><!--SRC=[ZLHDYzim4BtxLmo1nGvaQGizxM5Xuz8MkW6JRDjB8KoiMLkrF78bcP9_t_57lhEX9-5vJpDFJy_obUO67TRWwKzBdDE2lCU2demk67BYG2wAWWw6O3LIu9F6GlRyuWLnWPKd3r_HO8qCtuCiKOHvi0uccU0j_swvc01w-A6zbdea4uFETOCSOFACh3GNcGpjIS_PLJor79mrXjp0IazPcREgpKEFPSjJRDvwpN8iuRngCqoPdqr9CL1XtRO7qvSe6hN2_QCeWWSu7DKCWg0HnP5W7ICLHcrR3iaqaWyfpRjDhzhvGobRIkblIOwIMFkrezpMDR4Y5SyWk9Qczu_MANBpRH876z2ilJKT62loUInmm8gIZoSDZIZlXepWX_SxD7qH58qPv-yEehHl36wFR4-QmPWP74bQDuEZVZPEE2haWrcQ_FJIg6z6Ln1ilR46VfOO_5FJz3O9OSTzW2KfBTC2LBHdWUeyPc1R2oVOohxHlLTIWSIgQEKstab6D-ZQsrFACQ6A0cepzhWjVx8Y8v8gR7YBa_zhNw7ScotUxF-bPQmwdZMsXaR-9tGQEV64BY-dnu4QIcEo_O5n4IR6chgKYFH-lHkeT_5vACuoiEffI_AjaVvNxZBJHfUIOYCEGqt1AXB9DNbaaIo5qgeJoGDrlbtqq85n8RdF-Nh0HV98l2ttSz-SrDwHAufNUVT8T1UomK9y1TaHv1NRXwDd-ThQK0xS5olEva5RNckH-Wy0]--></g></svg>