<svg xmlns="http://www.w3.org/2000/svg" xmlns:xlink="http://www.w3.org/1999/xlink" contentStyleType="text/css" height="666px" preserveAspectRatio="none" style="width:792px;height:666px;background:#FFFFFF;" version="1.1" viewBox="0 0 792 666" width="792px" zoomAndPan="magnify"><title>Sequence Diagram</title><defs/><g><text fill="#000000" font-family="sans-serif" font-size="14" font-weight="bold" lengthAdjust="spacing" textLength="126.0479" x="334.4243" y="29.5332">Sequence Diagram</text><text fill="#000000" font-family="sans-serif" font-size="14" font-weight="bold" lengthAdjust="spacing" textLength="160.2412" x="317.3276" y="47.1426">Proses Login Pengguna</text><rect fill="none" height="247.1328" style="stroke:#000000;stroke-width:1.5;" width="585.9155" x="199.981" y="320.5859"/><rect fill="none" height="125.2422" style="stroke:#000000;stroke-width:1.5;" width="565.9155" x="209.981" y="389.2891"/><line style="stroke:#181818;stroke-width:0.5;stroke-dasharray:5.0,5.0;" x1="39" x2="39" y1="138.8281" y2="584.7188"/><line style="stroke:#181818;stroke-width:0.5;stroke-dasharray:5.0,5.0;" x1="259.981" x2="259.981" y1="138.8281" y2="584.7188"/><line style="stroke:#181818;stroke-width:0.5;stroke-dasharray:5.0,5.0;" x1="516.1948" x2="516.1948" y1="138.8281" y2="584.7188"/><line style="stroke:#181818;stroke-width:0.5;stroke-dasharray:5.0,5.0;" x1="648.5107" x2="648.5107" y1="138.8281" y2="584.7188"/><line style="stroke:#181818;stroke-width:0.5;stroke-dasharray:5.0,5.0;" x1="733.0898" x2="733.0898" y1="138.8281" y2="584.7188"/><text fill="#000000" font-family="sans-serif" font-size="14" lengthAdjust="spacing" textLength="63.8408" x="5" y="135.752">Pengguna</text><ellipse cx="39.9204" cy="69.7188" fill="#E2E2F0" rx="8" ry="8" style="stroke:#181818;stroke-width:0.5;"/><path d="M39.9204,77.7188 L39.9204,104.7188 M26.9204,85.7188 L52.9204,85.7188 M39.9204,104.7188 L26.9204,119.7188 M39.9204,104.7188 L52.9204,119.7188 " fill="none" style="stroke:#181818;stroke-width:0.5;"/><text fill="#000000" font-family="sans-serif" font-size="14" lengthAdjust="spacing" textLength="63.8408" x="5" y="598.252">Pengguna</text><ellipse cx="39.9204" cy="609.8281" fill="#E2E2F0" rx="8" ry="8" style="stroke:#181818;stroke-width:0.5;"/><path d="M39.9204,617.8281 L39.9204,644.8281 M26.9204,625.8281 L52.9204,625.8281 M39.9204,644.8281 L26.9204,659.8281 M39.9204,644.8281 L52.9204,659.8281 " fill="none" style="stroke:#181818;stroke-width:0.5;"/><rect fill="#E2E2F0" height="31.6094" rx="2.5" ry="2.5" style="stroke:#181818;stroke-width:0.5;" width="80.9512" x="219.981" y="106.2188"/><text fill="#000000" font-family="sans-serif" font-size="14" lengthAdjust="spacing" textLength="66.9512" x="226.981" y="127.752">LoginPage</text><rect fill="#E2E2F0" height="31.6094" rx="2.5" ry="2.5" style="stroke:#181818;stroke-width:0.5;" width="80.9512" x="219.981" y="583.7188"/><text fill="#000000" font-family="sans-serif" font-size="14" lengthAdjust="spacing" textLength="66.9512" x="226.981" y="605.252">LoginPage</text><rect fill="#E2E2F0" height="31.6094" rx="2.5" ry="2.5" style="stroke:#181818;stroke-width:0.5;" width="103.4893" x="465.1948" y="106.2188"/><text fill="#000000" font-family="sans-serif" font-size="14" lengthAdjust="spacing" textLength="89.4893" x="472.1948" y="127.752">AuthController</text><rect fill="#E2E2F0" height="31.6094" rx="2.5" ry="2.5" style="stroke:#181818;stroke-width:0.5;" width="103.4893" x="465.1948" y="583.7188"/><text fill="#000000" font-family="sans-serif" font-size="14" lengthAdjust="spacing" textLength="89.4893" x="472.1948" y="605.252">AuthController</text><rect fill="#E2E2F0" height="31.6094" rx="2.5" ry="2.5" style="stroke:#181818;stroke-width:0.5;" width="85.5791" x="606.5107" y="106.2188"/><text fill="#000000" font-family="sans-serif" font-size="14" lengthAdjust="spacing" textLength="71.5791" x="613.5107" y="127.752">User Model</text><rect fill="#E2E2F0" height="31.6094" rx="2.5" ry="2.5" style="stroke:#181818;stroke-width:0.5;" width="85.5791" x="606.5107" y="583.7188"/><text fill="#000000" font-family="sans-serif" font-size="14" lengthAdjust="spacing" textLength="71.5791" x="613.5107" y="605.252">User Model</text><rect fill="#E2E2F0" height="31.6094" rx="2.5" ry="2.5" style="stroke:#181818;stroke-width:0.5;" width="63.8066" x="702.0898" y="106.2188"/><text fill="#000000" font-family="sans-serif" font-size="14" lengthAdjust="spacing" textLength="49.8066" x="709.0898" y="127.752">Session</text><rect fill="#E2E2F0" height="31.6094" rx="2.5" ry="2.5" style="stroke:#181818;stroke-width:0.5;" width="63.8066" x="702.0898" y="583.7188"/><text fill="#000000" font-family="sans-serif" font-size="14" lengthAdjust="spacing" textLength="49.8066" x="709.0898" y="605.252">Session</text><polygon fill="#181818" points="248.4565,167.1797,258.4565,171.1797,248.4565,175.1797,252.4565,171.1797" style="stroke:#181818;stroke-width:1.0;"/><line style="stroke:#181818;stroke-width:1.0;" x1="39.9204" x2="254.4565" y1="171.1797" y2="171.1797"/><text fill="#000000" font-family="sans-serif" font-size="13" lengthAdjust="spacing" textLength="196.5361" x="51.9204" y="166.3232">Memasukkan email dan password</text><polygon fill="#181818" points="504.9395,197.5313,514.9395,201.5313,504.9395,205.5313,508.9395,201.5313" style="stroke:#181818;stroke-width:1.0;"/><line style="stroke:#181818;stroke-width:1.0;" x1="260.4565" x2="510.9395" y1="201.5313" y2="201.5313"/><text fill="#000000" font-family="sans-serif" font-size="13" lengthAdjust="spacing" textLength="172.6816" x="302.3572" y="196.6748">submitLogin(email, password)</text><polygon fill="#181818" points="637.3003,227.8828,647.3003,231.8828,637.3003,235.8828,641.3003,231.8828" style="stroke:#181818;stroke-width:1.0;"/><line style="stroke:#181818;stroke-width:1.0;" x1="516.9395" x2="643.3003" y1="231.8828" y2="231.8828"/><text fill="#000000" font-family="sans-serif" font-size="13" lengthAdjust="spacing" textLength="108.3608" x="528.9395" y="227.0264">findByEmail(email)</text><polygon fill="#181818" points="527.9395,258.2344,517.9395,262.2344,527.9395,266.2344,523.9395,262.2344" style="stroke:#181818;stroke-width:1.0;"/><line style="stroke:#181818;stroke-width:1.0;stroke-dasharray:2.0,2.0;" x1="521.9395" x2="648.3003" y1="262.2344" y2="262.2344"/><text fill="#000000" font-family="sans-serif" font-size="13" lengthAdjust="spacing" textLength="62.8608" x="551.6895" y="257.3779">return user</text><line style="stroke:#181818;stroke-width:1.0;" x1="516.9395" x2="558.9395" y1="292.5859" y2="292.5859"/><line style="stroke:#181818;stroke-width:1.0;" x1="558.9395" x2="558.9395" y1="292.5859" y2="305.5859"/><line style="stroke:#181818;stroke-width:1.0;" x1="517.9395" x2="558.9395" y1="305.5859" y2="305.5859"/><polygon fill="#181818" points="527.9395,301.5859,517.9395,305.5859,527.9395,309.5859,523.9395,305.5859" style="stroke:#181818;stroke-width:1.0;"/><text fill="#000000" font-family="sans-serif" font-size="13" lengthAdjust="spacing" textLength="110.5444" x="523.9395" y="287.7295">validatePassword()</text><path d="M199.981,320.5859 L260.1519,320.5859 L260.1519,328.9375 L250.1519,338.9375 L199.981,338.9375 L199.981,320.5859 " fill="#EEEEEE" style="stroke:#000000;stroke-width:1.5;"/><rect fill="none" height="247.1328" style="stroke:#000000;stroke-width:1.5;" width="585.9155" x="199.981" y="320.5859"/><text fill="#000000" font-family="sans-serif" font-size="13" font-weight="bold" lengthAdjust="spacing" textLength="15.1709" x="214.981" y="335.0811">alt</text><text fill="#000000" font-family="sans-serif" font-size="11" font-weight="bold" lengthAdjust="spacing" textLength="92.9146" x="275.1519" y="334.0049">[Kredensial Valid]</text><line style="stroke:#181818;stroke-width:1.0;" x1="516.9395" x2="558.9395" y1="361.2891" y2="361.2891"/><line style="stroke:#181818;stroke-width:1.0;" x1="558.9395" x2="558.9395" y1="361.2891" y2="374.2891"/><line style="stroke:#181818;stroke-width:1.0;" x1="517.9395" x2="558.9395" y1="374.2891" y2="374.2891"/><polygon fill="#181818" points="527.9395,370.2891,517.9395,374.2891,527.9395,378.2891,523.9395,374.2891" style="stroke:#181818;stroke-width:1.0;"/><text fill="#000000" font-family="sans-serif" font-size="13" lengthAdjust="spacing" textLength="88.1309" x="523.9395" y="356.4326">checkIsActive()</text><path d="M209.981,389.2891 L270.1519,389.2891 L270.1519,397.6406 L260.1519,407.6406 L209.981,407.6406 L209.981,389.2891 " fill="#EEEEEE" style="stroke:#000000;stroke-width:1.5;"/><rect fill="none" height="125.2422" style="stroke:#000000;stroke-width:1.5;" width="565.9155" x="209.981" y="389.2891"/><text fill="#000000" font-family="sans-serif" font-size="13" font-weight="bold" lengthAdjust="spacing" textLength="15.1709" x="224.981" y="403.7842">alt</text><text fill="#000000" font-family="sans-serif" font-size="11" font-weight="bold" lengthAdjust="spacing" textLength="62.3262" x="285.1519" y="402.708">[Akun Aktif]</text><polygon fill="#181818" points="721.9932,425.9922,731.9932,429.9922,721.9932,433.9922,725.9932,429.9922" style="stroke:#181818;stroke-width:1.0;"/><line style="stroke:#181818;stroke-width:1.0;" x1="516.9395" x2="727.9932" y1="429.9922" y2="429.9922"/><text fill="#000000" font-family="sans-serif" font-size="13" lengthAdjust="spacing" textLength="116.3271" x="567.3027" y="425.1357">createSession(user)</text><polygon fill="#181818" points="271.4565,456.3438,261.4565,460.3438,271.4565,464.3438,267.4565,460.3438" style="stroke:#181818;stroke-width:1.0;"/><line style="stroke:#181818;stroke-width:1.0;stroke-dasharray:2.0,2.0;" x1="265.4565" x2="515.9395" y1="460.3438" y2="460.3438"/><text fill="#000000" font-family="sans-serif" font-size="13" lengthAdjust="spacing" textLength="130.7744" x="323.3108" y="455.4873">redirectToDashboard()</text><line style="stroke:#000000;stroke-width:1.0;stroke-dasharray:2.0,2.0;" x1="209.981" x2="775.8965" y1="469.3438" y2="469.3438"/><text fill="#000000" font-family="sans-serif" font-size="11" font-weight="bold" lengthAdjust="spacing" textLength="94.1123" x="214.981" y="480.7627">[Akun Tidak Aktif]</text><polygon fill="#181818" points="271.4565,502.5313,261.4565,506.5313,271.4565,510.5313,267.4565,506.5313" style="stroke:#181818;stroke-width:1.0;"/><line style="stroke:#181818;stroke-width:1.0;stroke-dasharray:2.0,2.0;" x1="265.4565" x2="515.9395" y1="506.5313" y2="506.5313"/><text fill="#000000" font-family="sans-serif" font-size="13" lengthAdjust="spacing" textLength="165.2803" x="306.0579" y="501.6748">showError("Akun tidak aktif")</text><line style="stroke:#000000;stroke-width:1.0;stroke-dasharray:2.0,2.0;" x1="199.981" x2="785.8965" y1="522.5313" y2="522.5313"/><text fill="#000000" font-family="sans-serif" font-size="11" font-weight="bold" lengthAdjust="spacing" textLength="124.7007" x="204.981" y="533.9502">[Kredensial Tidak Valid]</text><polygon fill="#181818" points="271.4565,555.7188,261.4565,559.7188,271.4565,563.7188,267.4565,559.7188" style="stroke:#181818;stroke-width:1.0;"/><line style="stroke:#181818;stroke-width:1.0;stroke-dasharray:2.0,2.0;" x1="265.4565" x2="515.9395" y1="559.7188" y2="559.7188"/><text fill="#000000" font-family="sans-serif" font-size="13" lengthAdjust="spacing" textLength="232.4829" x="272.4565" y="554.8623">showError("Email atau password salah")</text><!--SRC=[RP71JiCm38RlUGghfqs25-20L0O7n2fLAd3YObhJHisS4ISWtXudtO1Az115zlV_l-FARFc80GyWz9w8Usf814UgdHqPUk98mPXeeoFeJWZSMXnLyy9jy482UpzQXfPu71EZCTX77w0w5of0WITH8usAjhT7v0XLKRMQLVhxTjsjKvnsdcFmpb4eIBrR8zaI6Z-GMnAQTRlJbrZFfTTrnXJyybgJu0eQEg2aUKO6lLa7WzwEAFBfms0KKR3UAIZfzM1ZcNLJo8iVR6kKKEwfKUxDyd3pTPU9XTiQhL-URGB551XItiAYAkKFT7R0IEt9ShFLxRa83u46Oh7eu3aZ1lJxe-idwkTxgVjeFqX5kPrrzPnOZsZVIkbNrNLP5KYpJdlPv5csA-oy70stWVhuw6zHfbUFPR1CaHDQGXvrxlcVgBE7JFxpBWGVDbNXO-4nyzN9YmTJ_FuyTd5TF_aVnx9cm8ZfvsU0eCD9hRFjDm00]--></g></svg>