<?xml version="1.0" encoding="us-ascii" standalone="no"?><svg xmlns="http://www.w3.org/2000/svg" xmlns:xlink="http://www.w3.org/1999/xlink" contentStyleType="text/css" height="2143px" preserveAspectRatio="none" style="width:506px;height:2143px;background:#FFFFFF;" version="1.1" viewBox="0 0 506 2143" width="506px" zoomAndPan="magnify"><defs/><g><text fill="#000000" font-family="sans-serif" font-size="14" font-weight="bold" lengthAdjust="spacing" textLength="352" x="70" y="24.5332">Use Case Diagram - Increment 2 (UC-01 s.d. UC-22)</text><!--cluster Increment 1 - Fitur Inti--><g id="cluster_Increment 1 - Fitur Inti"><rect fill="none" height="943" rx="2.5" ry="2.5" style="stroke:#181818;stroke-width:1.0;" width="337" x="163" y="45.6094"/><text fill="#000000" font-family="sans-serif" font-size="14" font-weight="bold" lengthAdjust="spacing" textLength="155" x="254" y="62.1426">Increment 1 - Fitur Inti</text></g><!--cluster Increment 2 - Fitur Lanjutan--><g id="cluster_Increment 2 - Fitur Lanjutan"><rect fill="none" height="1120" rx="2.5" ry="2.5" style="stroke:#181818;stroke-width:1.0;" width="317" x="173" y="1012.6094"/><text fill="#000000" font-family="sans-serif" font-size="14" font-weight="bold" lengthAdjust="spacing" textLength="193" x="235" y="1029.1426">Increment 2 - Fitur Lanjutan</text></g><g id="elem_UC01"><ellipse cx="331.4741" cy="944.5128" fill="#F1F1F1" rx="89.9741" ry="27.9034" style="stroke:#181818;stroke-width:0.5;"/><text fill="#000000" font-family="sans-serif" font-size="14" lengthAdjust="spacing" textLength="40" x="311.4741" y="939.4366">UC-01</text><text fill="#000000" font-family="sans-serif" font-size="14" lengthAdjust="spacing" textLength="111" x="275.9741" y="957.046">Login dan Logout</text></g><g id="elem_UC02"><ellipse cx="331.5158" cy="295.5128" fill="#F1F1F1" rx="114.0158" ry="27.9034" style="stroke:#181818;stroke-width:0.5;"/><text fill="#000000" font-family="sans-serif" font-size="14" lengthAdjust="spacing" textLength="40" x="311.5158" y="290.4366">UC-02</text><text fill="#000000" font-family="sans-serif" font-size="14" lengthAdjust="spacing" textLength="145" x="259.0158" y="308.046">Kelola Kategori Produk</text></g><g id="elem_UC03"><ellipse cx="331.4309" cy="387.7956" fill="#F1F1F1" rx="131.4309" ry="28.6862" style="stroke:#181818;stroke-width:0.5;"/><text fill="#000000" font-family="sans-serif" font-size="14" lengthAdjust="spacing" textLength="40" x="311.4309" y="382.7194">UC-03</text><text fill="#000000" font-family="sans-serif" font-size="14" lengthAdjust="spacing" textLength="175" x="243.9309" y="400.3288">Kelola Satuan dan Konversi</text></g><g id="elem_UC04"><ellipse cx="331.6604" cy="479.5128" fill="#F1F1F1" rx="78.6604" ry="27.9034" style="stroke:#181818;stroke-width:0.5;"/><text fill="#000000" font-family="sans-serif" font-size="14" lengthAdjust="spacing" textLength="40" x="311.6604" y="474.4366">UC-04</text><text fill="#000000" font-family="sans-serif" font-size="14" lengthAdjust="spacing" textLength="95" x="284.1604" y="492.046">Kelola Supplier</text></g><g id="elem_UC05"><ellipse cx="331.3381" cy="570.5128" fill="#F1F1F1" rx="96.3381" ry="27.9034" style="stroke:#181818;stroke-width:0.5;"/><text fill="#000000" font-family="sans-serif" font-size="14" lengthAdjust="spacing" textLength="40" x="311.3381" y="565.4366">UC-05</text><text fill="#000000" font-family="sans-serif" font-size="14" lengthAdjust="spacing" textLength="120" x="271.3381" y="583.046">Kelola Bahan Baku</text></g><g id="elem_UC06"><ellipse cx="331.6249" cy="661.5128" fill="#F1F1F1" rx="75.1249" ry="27.9034" style="stroke:#181818;stroke-width:0.5;"/><text fill="#000000" font-family="sans-serif" font-size="14" lengthAdjust="spacing" textLength="40" x="311.6249" y="656.4366">UC-06</text><text fill="#000000" font-family="sans-serif" font-size="14" lengthAdjust="spacing" textLength="90" x="286.6249" y="674.046">Kelola Belanja</text></g><g id="elem_UC07"><ellipse cx="331.7431" cy="202.458" fill="#F1F1F1" rx="134.7431" ry="29.3486" style="stroke:#181818;stroke-width:0.5;"/><text fill="#000000" font-family="sans-serif" font-size="14" lengthAdjust="spacing" textLength="40" x="311.7431" y="197.3818">UC-07</text><text fill="#000000" font-family="sans-serif" font-size="14" lengthAdjust="spacing" textLength="184" x="239.7431" y="214.9912">Kelola Produk dan Komposisi</text></g><g id="elem_UC08"><ellipse cx="331.2817" cy="109.5128" fill="#F1F1F1" rx="80.7817" ry="27.9034" style="stroke:#181818;stroke-width:0.5;"/><text fill="#000000" font-family="sans-serif" font-size="14" lengthAdjust="spacing" textLength="40" x="311.2817" y="104.4366">UC-08</text><text fill="#000000" font-family="sans-serif" font-size="14" lengthAdjust="spacing" textLength="98" x="282.2817" y="122.046">Kelola Produksi</text></g><g id="elem_UC09"><ellipse cx="331.6438" cy="757.5381" fill="#F1F1F1" rx="152.6438" ry="32.9288" style="stroke:#181818;stroke-width:0.5;"/><text fill="#000000" font-family="sans-serif" font-size="14" lengthAdjust="spacing" textLength="40" x="311.6438" y="752.462">UC-09</text><text fill="#000000" font-family="sans-serif" font-size="14" lengthAdjust="spacing" textLength="230" x="216.6438" y="770.0713">Membuat Pesanan dan Pembayaran</text></g><g id="elem_UC10"><ellipse cx="331.6457" cy="853.5128" fill="#F1F1F1" rx="87.1457" ry="27.9034" style="stroke:#181818;stroke-width:0.5;"/><text fill="#000000" font-family="sans-serif" font-size="14" lengthAdjust="spacing" textLength="40" x="311.6457" y="848.4366">UC-10</text><text fill="#000000" font-family="sans-serif" font-size="14" lengthAdjust="spacing" textLength="107" x="278.1457" y="866.046">Kelola Shift Kasir</text></g><g id="elem_UC11"><ellipse cx="331.7301" cy="1534.5554" fill="#F1F1F1" rx="142.7301" ry="30.946" style="stroke:#181818;stroke-width:0.5;"/><text fill="#000000" font-family="sans-serif" font-size="14" lengthAdjust="spacing" textLength="40" x="311.7301" y="1529.4792">UC-11</text><text fill="#000000" font-family="sans-serif" font-size="14" lengthAdjust="spacing" textLength="205" x="229.2301" y="1547.0886">Kelola Pengguna dan Undangan</text></g><g id="elem_UC12"><ellipse cx="331.3942" cy="1629.5882" fill="#F1F1F1" rx="132.8942" ry="28.9788" style="stroke:#181818;stroke-width:0.5;"/><text fill="#000000" font-family="sans-serif" font-size="14" lengthAdjust="spacing" textLength="40" x="311.3942" y="1624.512">UC-12</text><text fill="#000000" font-family="sans-serif" font-size="14" lengthAdjust="spacing" textLength="179" x="241.8942" y="1642.1214">Kelola Peran dan Hak Akses</text></g><g id="elem_UC13"><ellipse cx="331.3087" cy="1721.5128" fill="#F1F1F1" rx="113.3087" ry="27.9034" style="stroke:#181818;stroke-width:0.5;"/><text fill="#000000" font-family="sans-serif" font-size="14" lengthAdjust="spacing" textLength="40" x="311.3087" y="1716.4366">UC-13</text><text fill="#000000" font-family="sans-serif" font-size="14" lengthAdjust="spacing" textLength="144" x="259.3087" y="1734.046">Profil dan Pembayaran</text></g><g id="elem_UC14"><ellipse cx="331.4823" cy="1813.5058" fill="#F1F1F1" rx="129.9823" ry="28.3965" style="stroke:#181818;stroke-width:0.5;"/><text fill="#000000" font-family="sans-serif" font-size="14" lengthAdjust="spacing" textLength="40" x="311.4823" y="1808.4297">UC-14</text><text fill="#000000" font-family="sans-serif" font-size="14" lengthAdjust="spacing" textLength="171" x="245.9823" y="1826.039">Kelola Pelanggan dan Poin</text></g><g id="elem_UC15"><ellipse cx="331.4823" cy="1905.5058" fill="#F1F1F1" rx="129.9823" ry="28.3965" style="stroke:#181818;stroke-width:0.5;"/><text fill="#000000" font-family="sans-serif" font-size="14" lengthAdjust="spacing" textLength="40" x="311.4823" y="1900.4297">UC-15</text><text fill="#000000" font-family="sans-serif" font-size="14" lengthAdjust="spacing" textLength="171" x="245.9823" y="1918.039">Akses dan Ekspor Laporan</text></g><g id="elem_UC16"><ellipse cx="331.3823" cy="1997.5128" fill="#F1F1F1" rx="70.8823" ry="27.9034" style="stroke:#181818;stroke-width:0.5;"/><text fill="#000000" font-family="sans-serif" font-size="14" lengthAdjust="spacing" textLength="40" x="311.3823" y="1992.4366">UC-16</text><text fill="#000000" font-family="sans-serif" font-size="14" lengthAdjust="spacing" textLength="84" x="289.3823" y="2010.046">Aktivasi Akun</text></g><g id="elem_UC17"><ellipse cx="331.6518" cy="1076.5128" fill="#F1F1F1" rx="107.6518" ry="27.9034" style="stroke:#181818;stroke-width:0.5;"/><text fill="#000000" font-family="sans-serif" font-size="14" lengthAdjust="spacing" textLength="40" x="311.6518" y="1071.4366">UC-17</text><text fill="#000000" font-family="sans-serif" font-size="14" lengthAdjust="spacing" textLength="136" x="263.6518" y="1089.046">Kelola Stock Opname</text></g><g id="elem_UC18"><ellipse cx="331.3087" cy="1167.5128" fill="#F1F1F1" rx="113.3087" ry="27.9034" style="stroke:#181818;stroke-width:0.5;"/><text fill="#000000" font-family="sans-serif" font-size="14" lengthAdjust="spacing" textLength="40" x="311.3087" y="1162.4366">UC-18</text><text fill="#000000" font-family="sans-serif" font-size="14" lengthAdjust="spacing" textLength="144" x="259.3087" y="1180.046">Kelola Alur Persediaan</text></g><g id="elem_UC19"><ellipse cx="331.3883" cy="1258.5128" fill="#F1F1F1" rx="91.3883" ry="27.9034" style="stroke:#181818;stroke-width:0.5;"/><text fill="#000000" font-family="sans-serif" font-size="14" lengthAdjust="spacing" textLength="40" x="311.3883" y="1253.4366">UC-19</text><text fill="#000000" font-family="sans-serif" font-size="14" lengthAdjust="spacing" textLength="113" x="274.8883" y="1271.046">Penggunaan Poin</text></g><g id="elem_UC20"><ellipse cx="331.4508" cy="2088.5128" fill="#F1F1F1" rx="127.4508" ry="27.9034" style="stroke:#181818;stroke-width:0.5;"/><text fill="#000000" font-family="sans-serif" font-size="14" lengthAdjust="spacing" textLength="40" x="311.4508" y="2083.4366">UC-20</text><text fill="#000000" font-family="sans-serif" font-size="14" lengthAdjust="spacing" textLength="164" x="249.4508" y="2101.046">Mengakses Landing Page</text></g><g id="elem_UC21"><ellipse cx="331.4594" cy="1349.5128" fill="#F1F1F1" rx="98.4594" ry="27.9034" style="stroke:#181818;stroke-width:0.5;"/><text fill="#000000" font-family="sans-serif" font-size="14" lengthAdjust="spacing" textLength="40" x="311.4594" y="1344.4366">UC-21</text><text fill="#000000" font-family="sans-serif" font-size="14" lengthAdjust="spacing" textLength="123" x="269.9594" y="1362.046">Kelola Profil Pribadi</text></g><g id="elem_UC22"><ellipse cx="331.4889" cy="1440.5128" fill="#F1F1F1" rx="81.4889" ry="27.9034" style="stroke:#181818;stroke-width:0.5;"/><text fill="#000000" font-family="sans-serif" font-size="14" lengthAdjust="spacing" textLength="40" x="311.4889" y="1435.4366">UC-22</text><text fill="#000000" font-family="sans-serif" font-size="14" lengthAdjust="spacing" textLength="99" x="281.9889" y="1453.046">Kelola Notifikasi</text></g><!--entity Inventori--><g id="elem_Inventori"><ellipse cx="62.5" cy="495.1094" fill="#F1F1F1" rx="8" ry="8" style="stroke:#181818;stroke-width:0.5;"/><path d="M62.5,503.1094 L62.5,530.1094 M49.5,511.1094 L75.5,511.1094 M62.5,530.1094 L49.5,545.1094 M62.5,530.1094 L75.5,545.1094 " fill="none" style="stroke:#181818;stroke-width:0.5;"/><text fill="#000000" font-family="sans-serif" font-size="14" lengthAdjust="spacing" textLength="102" x="11.5" y="561.1426">Bagian Inventori</text></g><!--entity Produksi--><g id="elem_Produksi"><ellipse cx="62.5" cy="79.1094" fill="#F1F1F1" rx="8" ry="8" style="stroke:#181818;stroke-width:0.5;"/><path d="M62.5,87.1094 L62.5,114.1094 M49.5,95.1094 L75.5,95.1094 M62.5,114.1094 L49.5,129.1094 M62.5,114.1094 L75.5,129.1094 " fill="none" style="stroke:#181818;stroke-width:0.5;"/><text fill="#000000" font-family="sans-serif" font-size="14" lengthAdjust="spacing" textLength="103" x="11" y="145.1426">Bagian Produksi</text></g><!--entity Kasir--><g id="elem_Kasir"><ellipse cx="62.5" cy="823.1094" fill="#F1F1F1" rx="8" ry="8" style="stroke:#181818;stroke-width:0.5;"/><path d="M62.5,831.1094 L62.5,858.1094 M49.5,839.1094 L75.5,839.1094 M62.5,858.1094 L49.5,873.1094 M62.5,858.1094 L75.5,873.1094 " fill="none" style="stroke:#181818;stroke-width:0.5;"/><text fill="#000000" font-family="sans-serif" font-size="14" lengthAdjust="spacing" textLength="32" x="46.5" y="889.1426">Kasir</text></g><!--entity Admin--><g id="elem_Admin"><ellipse cx="62.5" cy="1691.1094" fill="#F1F1F1" rx="8" ry="8" style="stroke:#181818;stroke-width:0.5;"/><path d="M62.5,1699.1094 L62.5,1726.1094 M49.5,1707.1094 L75.5,1707.1094 M62.5,1726.1094 L49.5,1741.1094 M62.5,1726.1094 L75.5,1741.1094 " fill="none" style="stroke:#181818;stroke-width:0.5;"/><text fill="#000000" font-family="sans-serif" font-size="14" lengthAdjust="spacing" textLength="39" x="43" y="1757.1426">Admin</text></g><!--entity AllUser--><g id="elem_AllUser"><ellipse cx="62.5" cy="1319.1094" fill="#F1F1F1" rx="8" ry="8" style="stroke:#181818;stroke-width:0.5;"/><path d="M62.5,1327.1094 L62.5,1354.1094 M49.5,1335.1094 L75.5,1335.1094 M62.5,1354.1094 L49.5,1369.1094 M62.5,1354.1094 L75.5,1369.1094 " fill="none" style="stroke:#181818;stroke-width:0.5;"/><text fill="#000000" font-family="sans-serif" font-size="14" lengthAdjust="spacing" textLength="113" x="6" y="1385.1426">Semua Pengguna</text></g><!--entity NewUser--><g id="elem_NewUser"><ellipse cx="62.5" cy="1956.1094" fill="#F1F1F1" rx="8" ry="8" style="stroke:#181818;stroke-width:0.5;"/><path d="M62.5,1964.1094 L62.5,1991.1094 M49.5,1972.1094 L75.5,1972.1094 M62.5,1991.1094 L49.5,2006.1094 M62.5,1991.1094 L75.5,2006.1094 " fill="none" style="stroke:#181818;stroke-width:0.5;"/><text fill="#000000" font-family="sans-serif" font-size="14" lengthAdjust="spacing" textLength="99" x="13" y="2022.1426">Pengguna Baru</text></g><!--entity Visitor--><g id="elem_Visitor"><ellipse cx="62.5" cy="2069.1094" fill="#F1F1F1" rx="8" ry="8" style="stroke:#181818;stroke-width:0.5;"/><path d="M62.5,2077.1094 L62.5,2104.1094 M49.5,2085.1094 L75.5,2085.1094 M62.5,2104.1094 L49.5,2119.1094 M62.5,2104.1094 L75.5,2119.1094 " fill="none" style="stroke:#181818;stroke-width:0.5;"/><text fill="#000000" font-family="sans-serif" font-size="14" lengthAdjust="spacing" textLength="76" x="24.5" y="2135.1426">Pengunjung</text></g><!--link AllUser to UC01--><g id="link_AllUser_UC01"><path d="M64.97,1310.3694 C69.36,1245.4594 86.71,1114.7594 155,1032.6094 C183,998.9294 221.4786,978.9599 258.4686,965.3599 " fill="none" id="AllUser-to-UC01" style="stroke:#181818;stroke-width:1.0;"/><polygon fill="#181818" points="264.1,963.2894,254.2725,962.6408,259.4071,965.0148,257.0332,970.1494,264.1,963.2894" style="stroke:#181818;stroke-width:1.0;"/></g><!--link Inventori to UC02--><g id="link_Inventori_UC02"><path d="M72.65,486.4694 C84.52,444.4494 109.33,378.7494 155,341.6094 C175.65,324.8194 195.9905,315.6376 221.7405,308.8076 " fill="none" id="Inventori-to-UC02" style="stroke:#181818;stroke-width:1.0;"/><polygon fill="#181818" points="227.54,307.2694,217.8153,305.7105,222.7071,308.5513,219.8663,313.4431,227.54,307.2694" style="stroke:#181818;stroke-width:1.0;"/></g><!--link Inventori to UC03--><g id="link_Inventori_UC03"><path d="M94.11,486.2594 C110.36,467.7994 131.77,446.9794 155,433.6094 C176.98,420.9594 196.6919,413.2997 221.3419,406.5697 " fill="none" id="Inventori-to-UC03" style="stroke:#181818;stroke-width:1.0;"/><polygon fill="#181818" points="227.13,404.9894,217.3942,403.501,222.3065,406.3063,219.5013,411.2186,227.13,404.9894" style="stroke:#181818;stroke-width:1.0;"/></g><!--link Inventori to UC04--><g id="link_Inventori_UC04"><path d="M113.72,516.9594 C155.19,509.8094 208.587,500.6076 254.697,492.6676 " fill="none" id="Inventori-to-UC04" style="stroke:#181818;stroke-width:1.0;"/><polygon fill="#181818" points="260.61,491.6494,251.0617,489.2347,255.6825,492.4979,252.4193,497.1187,260.61,491.6494" style="stroke:#181818;stroke-width:1.0;"/></g><!--link Inventori to UC05--><g id="link_Inventori_UC05"><path d="M113.72,534.0694 C151.41,540.4294 197.9337,548.2609 241.7837,555.6609 " fill="none" id="Inventori-to-UC05" style="stroke:#181818;stroke-width:1.0;"/><polygon fill="#181818" points="247.7,556.6594,239.4911,551.2175,242.7697,555.8274,238.1599,559.106,247.7,556.6594" style="stroke:#181818;stroke-width:1.0;"/></g><!--link Inventori to UC06--><g id="link_Inventori_UC06"><path d="M95.09,565.0094 C111.27,582.8194 132.33,602.7294 155,615.6094 C187.31,633.9694 221.248,643.9953 254.778,650.7453 " fill="none" id="Inventori-to-UC06" style="stroke:#181818;stroke-width:1.0;"/><polygon fill="#181818" points="260.66,651.9294,252.6264,646.2319,255.7583,650.9426,251.0476,654.0745,260.66,651.9294" style="stroke:#181818;stroke-width:1.0;"/></g><!--link Inventori to UC07--><g id="link_Inventori_UC07"><path d="M65.18,486.5394 C69.92,426.7994 87.8,312.9994 155,249.6094 C171.18,234.3494 186.0555,225.8195 207.3855,218.7395 " fill="none" id="Inventori-to-UC07" style="stroke:#181818;stroke-width:1.0;"/><polygon fill="#181818" points="213.08,216.8494,203.2781,215.8883,208.3346,218.4245,205.7984,223.4809,213.08,216.8494" style="stroke:#181818;stroke-width:1.0;"/></g><!--link Produksi to UC08--><g id="link_Produksi_UC08"><path d="M114.03,109.6094 C152.44,109.6094 200.01,109.6094 244.25,109.6094 " fill="none" id="Produksi-to-UC08" style="stroke:#181818;stroke-width:1.0;"/><polygon fill="#181818" points="250.25,109.6094,241.25,105.6094,245.25,109.6094,241.25,113.6094,250.25,109.6094" style="stroke:#181818;stroke-width:1.0;"/></g><!--link Kasir to UC09--><g id="link_Kasir_UC09"><path d="M78.64,844.8894 C96.46,834.8794 127.17,818.4594 155,807.6094 C179.06,798.2294 199.8145,791.4205 224.8045,784.2205 " fill="none" id="Kasir-to-UC09" style="stroke:#181818;stroke-width:1.0;"/><polygon fill="#181818" points="230.57,782.5594,220.8144,781.2074,225.7654,783.9436,223.0292,788.8947,230.57,782.5594" style="stroke:#181818;stroke-width:1.0;"/></g><!--link Kasir to UC10--><g id="link_Kasir_UC10"><path d="M78.62,853.6094 C110.06,853.6094 178.54,853.6094 238.41,853.6094 " fill="none" id="Kasir-to-UC10" style="stroke:#181818;stroke-width:1.0;"/><polygon fill="#181818" points="244.41,853.6094,235.41,849.6094,239.41,853.6094,235.41,857.6094,244.41,853.6094" style="stroke:#181818;stroke-width:1.0;"/></g><!--link Admin to UC11--><g id="link_Admin_UC11"><path d="M79.83,1682.3094 C94.88,1650.8294 120.16,1607.8894 155,1582.6094 C173.15,1569.4394 189.0147,1561.7055 210.7347,1554.7655 " fill="none" id="Admin-to-UC11" style="stroke:#181818;stroke-width:1.0;"/><polygon fill="#181818" points="216.45,1552.9394,206.6595,1551.8684,211.6872,1554.4612,209.0944,1559.4889,216.45,1552.9394" style="stroke:#181818;stroke-width:1.0;"/></g><!--link Admin to UC12--><g id="link_Admin_UC12"><path d="M82.25,1710.7194 C100.39,1700.5394 128.89,1685.4694 155,1675.6094 C181.23,1665.7094 204.6218,1658.6343 231.5618,1651.6543 " fill="none" id="Admin-to-UC12" style="stroke:#181818;stroke-width:1.0;"/><polygon fill="#181818" points="237.37,1650.1494,227.6544,1648.5345,232.5298,1651.4034,229.6609,1656.2788,237.37,1650.1494" style="stroke:#181818;stroke-width:1.0;"/></g><!--link Admin to UC13--><g id="link_Admin_UC13"><path d="M82.27,1721.6094 C110.59,1721.6094 160.38,1721.6094 211.92,1721.6094 " fill="none" id="Admin-to-UC13" style="stroke:#181818;stroke-width:1.0;"/><polygon fill="#181818" points="217.92,1721.6094,208.92,1717.6094,212.92,1721.6094,208.92,1725.6094,217.92,1721.6094" style="stroke:#181818;stroke-width:1.0;"/></g><!--link Admin to UC14--><g id="link_Admin_UC14"><path d="M82.3,1732.2094 C100.46,1742.1294 128.98,1756.8394 155,1766.6094 C182.31,1776.8694 206.9962,1784.3275 234.7962,1791.6175 " fill="none" id="Admin-to-UC14" style="stroke:#181818;stroke-width:1.0;"/><polygon fill="#181818" points="240.6,1793.1394,232.909,1786.9873,235.7635,1791.8711,230.8797,1794.7257,240.6,1793.1394" style="stroke:#181818;stroke-width:1.0;"/></g><!--link Admin to UC15--><g id="link_Admin_UC15"><path d="M79.83,1760.7194 C94.88,1792.0294 120.16,1834.6894 155,1859.6094 C174.6,1873.6294 192.397,1881.6996 215.797,1888.4796 " fill="none" id="Admin-to-UC15" style="stroke:#181818;stroke-width:1.0;"/><polygon fill="#181818" points="221.56,1890.1494,214.0287,1883.8027,216.7575,1888.7579,211.8024,1891.4867,221.56,1890.1494" style="stroke:#181818;stroke-width:1.0;"/></g><!--link NewUser to UC16--><g id="link_NewUser_UC16"><path d="M112.16,1988.6094 C153.75,1990.3294 208.1051,1992.5617 254.8151,1994.4917 " fill="none" id="NewUser-to-UC16" style="stroke:#181818;stroke-width:1.0;"/><polygon fill="#181818" points="260.81,1994.7394,251.9828,1990.3712,255.8143,1994.533,251.6525,1998.3644,260.81,1994.7394" style="stroke:#181818;stroke-width:1.0;"/></g><!--link Inventori to UC17--><g id="link_Inventori_UC17"><path d="M71.7,564.6094 C82.71,617.2294 102.78,713.8994 119,796.6094 C135.71,881.8094 102.76,919.2694 155,988.6094 C179.82,1021.5494 214.7633,1040.8992 250.6433,1054.3792 " fill="none" id="Inventori-to-UC17" style="stroke:#181818;stroke-width:1.0;"/><polygon fill="#181818" points="256.26,1056.4894,249.2417,1049.5797,251.5794,1054.7309,246.4282,1057.0686,256.26,1056.4894" style="stroke:#181818;stroke-width:1.0;"/></g><!--link Inventori to UC18--><g id="link_Inventori_UC18"><path d="M72.73,564.8994 C84.79,617.4294 105.93,713.5894 119,796.6094 C130.3,868.3894 107.5,1066.6194 155,1121.6094 C172.09,1141.3994 190.7522,1151.6078 216.0022,1158.5078 " fill="none" id="Inventori-to-UC18" style="stroke:#181818;stroke-width:1.0;"/><polygon fill="#181818" points="221.79,1160.0894,214.1627,1153.8584,216.9668,1158.7714,212.0539,1161.5755,221.79,1160.0894" style="stroke:#181818;stroke-width:1.0;"/></g><!--link Kasir to UC19--><g id="link_Kasir_UC19"><path d="M68.42,892.6394 C79.7,975.9394 109.96,1167.2594 155,1212.6094 C177.75,1235.5194 204.5322,1246.2942 235.5222,1252.3742 " fill="none" id="Kasir-to-UC19" style="stroke:#181818;stroke-width:1.0;"/><polygon fill="#181818" points="241.41,1253.5294,233.3485,1247.8715,236.5035,1252.5668,231.8083,1255.7218,241.41,1253.5294" style="stroke:#181818;stroke-width:1.0;"/></g><!--link Visitor to UC20--><g id="link_Visitor_UC20"><path d="M100.63,2098.0794 C128.21,2096.9394 161.5551,2095.5664 199.9051,2093.9864 " fill="none" id="Visitor-to-UC20" style="stroke:#181818;stroke-width:1.0;"/><polygon fill="#181818" points="205.9,2093.7394,196.743,2090.1132,200.9042,2093.9452,197.0723,2098.1065,205.9,2093.7394" style="stroke:#181818;stroke-width:1.0;"/></g><!--link AllUser to UC21--><g id="link_AllUser_UC21"><path d="M119.15,1349.6094 C152.01,1349.6094 188.54,1349.6094 226.82,1349.6094 " fill="none" id="AllUser-to-UC21" style="stroke:#181818;stroke-width:1.0;"/><polygon fill="#181818" points="232.82,1349.6094,223.82,1345.6094,227.82,1349.6094,223.82,1353.6094,232.82,1349.6094" style="stroke:#181818;stroke-width:1.0;"/></g><!--link AllUser to UC22--><g id="link_AllUser_UC22"><path d="M119.34,1379.2694 C130.94,1384.8094 143.22,1390.2194 155,1394.6094 C189.39,1407.4194 222.9843,1416.705 255.7543,1424.535 " fill="none" id="AllUser-to-UC22" style="stroke:#181818;stroke-width:1.0;"/><polygon fill="#181818" points="261.59,1425.9294,253.766,1419.9473,256.7269,1424.7674,251.9068,1427.7283,261.59,1425.9294" style="stroke:#181818;stroke-width:1.0;"/></g><!--SRC=[bLLDRzim3BtxLmYvj3saY9IF9eSDIB8CAzfbGRFir0iRguvgMpPagKKnxB-F_f0LArkt-c1O51ybFZxIMkY4art1oHBmzKb0f20bVN8jzugdN6h2oFbksHzGKbo6bmG_6Ri8WeG_Qg8peaHqq2GKYk-ro6HGn4BcKCR8OHz3nBVw5Kyejq562Gy2sEjCaTu28W4Iptd6Gp8bUWGAj_AyDYeBJLpKJdPXVMwW4AhQgRwiUHwcGbRcwikQjpmrG3PSHf6HKEyd2JBG0kqUMO0obSEQl_WEHZuP6LMxFqGXq1u4P-J3NnxSkbulxrPVL-llX99p8GzS2St3YxT0BMcavyf1iJYVXJOAoT98oC-045FmVLc-NbMeUtcRHKAI48d3hypewfgxvO3wlknUtl0aIm2fqpn2uXjsBOBvY66Bs88sK9zoas7TL5CUH0rzrCYXJ9udWYlhEl9Tnwth0WuOUm6niSvZttdYd7a2yWcivyJtl6ezwmIRUwTvLWXtyIiVDlLWpdNgkyxkvLUUFXZGgAu2PCFD1ctmYXqXBNBc8Ud0iNCGs5PEqBib7GI__bjPsAgIlxnVKwpLr2sIQ7Hvrr9NPqthUFUbZXJRAcMcEudlgCsJ-cgZx0Yd6dg-G4pcSS4BY_8LHr5noFsZIFvC9_N5HaT7nw0eeiXM8XCjo9STHTbLrwWyLt6HPoKP-7O7ZOEAaivuyCDCoZ1QF6C5CItJOYSrrXzwFjofTAkpVKo-vH9IReFuwgHEdVC4YuUi5ZmKuAuyhO-jvw87HhtQL3noPYxHUinvK3OefOwbhWX3oOH2HcI3mxw9m0PrXEwizQFGuzugwxjHuW52ss7Crmzp-bbdMZoA6DfsPEoVRNAtkfrlhu_dy5l-pJ-1zFiVwydPrioQsAbfU6eQdPh6fwR9gUagi1F7MgP1LKUxd7MME2VUcJvxC_soxsresbsoxdBONOwwIsoQvkzfBTWAVhAex1CJIhUJ7ugo-T4sbb9atIgXOZm32tu3]--></g></svg>