<svg xmlns="http://www.w3.org/2000/svg" xmlns:xlink="http://www.w3.org/1999/xlink" contentStyleType="text/css" height="695px" preserveAspectRatio="none" style="width:1190px;height:695px;background:#FFFFFF;" version="1.1" viewBox="0 0 1190 695" width="1190px" zoomAndPan="magnify"><title>Activity Diagram</title><defs/><g><text fill="#000000" font-family="sans-serif" font-size="14" font-weight="bold" lengthAdjust="spacing" textLength="110.4824" x="538.6169" y="34.5332">Activity Diagram</text><text fill="#000000" font-family="sans-serif" font-size="14" font-weight="bold" lengthAdjust="spacing" textLength="133.0273" x="527.3445" y="52.1426">Kelola Profil Pribadi</text><ellipse cx="611.6436" cy="76.2188" fill="#222222" rx="10" ry="10" style="stroke:#222222;stroke-width:1.0;"/><rect fill="#F1F1F1" height="35.0938" rx="12.5" ry="12.5" style="stroke:#181818;stroke-width:0.5;" width="257.4863" x="482.9004" y="106.2188"/><text fill="#000000" font-family="sans-serif" font-size="12" lengthAdjust="spacing" textLength="237.4863" x="492.9004" y="128.6758">Pengguna mengakses halaman profil pribadi</text><rect fill="#F1F1F1" height="50.1875" rx="12.5" ry="12.5" style="stroke:#181818;stroke-width:0.5;" width="187.4082" x="517.9395" y="161.3125"/><text fill="#000000" font-family="sans-serif" font-size="12" lengthAdjust="spacing" textLength="167.4082" x="527.9395" y="183.7695">Sistem menampilkan data profil</text><text fill="#000000" font-family="sans-serif" font-size="12" lengthAdjust="spacing" textLength="156.0586" x="527.9395" y="198.8633">(nama, email, role, foto profil)</text><polygon fill="#F1F1F1" points="265.0713,231.5,350.0635,231.5,362.0635,243.5,350.0635,255.5,265.0713,255.5,253.0713,243.5,265.0713,231.5" style="stroke:#181818;stroke-width:0.5;"/><text fill="#000000" font-family="sans-serif" font-size="11" lengthAdjust="spacing" textLength="47.0723" x="311.5674" y="266.9189">Edit Profil</text><text fill="#000000" font-family="sans-serif" font-size="11" lengthAdjust="spacing" textLength="84.9922" x="265.0713" y="248.001">Aksi yang dipilih?</text><rect fill="#F1F1F1" height="35.0938" rx="12.5" ry="12.5" style="stroke:#181818;stroke-width:0.5;" width="210.7344" x="202.2002" y="289.3359"/><text fill="#000000" font-family="sans-serif" font-size="12" lengthAdjust="spacing" textLength="190.7344" x="212.2002" y="311.793">Sistem menampilkan form edit profil</text><rect fill="#F1F1F1" height="35.0938" rx="12.5" ry="12.5" style="stroke:#181818;stroke-width:0.5;" width="266.1875" x="174.4736" y="345.6875"/><text fill="#000000" font-family="sans-serif" font-size="12" lengthAdjust="spacing" textLength="246.1875" x="184.4736" y="368.1445">Pengguna ubah nama, email, atau upload foto</text><polygon fill="#F1F1F1" points="32,402.0391,152.4736,402.0391,164.4736,414.0391,152.4736,426.0391,32,426.0391,20,414.0391,32,402.0391" style="stroke:#181818;stroke-width:0.5;"/><text fill="#000000" font-family="sans-serif" font-size="11" lengthAdjust="spacing" textLength="13.4546" x="96.2368" y="437.458">Ya</text><text fill="#000000" font-family="sans-serif" font-size="11" lengthAdjust="spacing" textLength="120.4736" x="32" y="418.54">Email sudah digunakan?</text><rect fill="#F1F1F1" height="50.1875" rx="12.5" ry="12.5" style="stroke:#181818;stroke-width:0.5;" width="142.5781" x="20.9478" y="459.875"/><text fill="#000000" font-family="sans-serif" font-size="12" lengthAdjust="spacing" textLength="120.0352" x="30.9478" y="482.332">Sistem tampilkan error</text><text fill="#000000" font-family="sans-serif" font-size="12" lengthAdjust="spacing" textLength="122.5781" x="30.9478" y="497.4258">"Email sudah terdaftar"</text><ellipse cx="92.2368" cy="556.0625" fill="none" rx="11" ry="11" style="stroke:#222222;stroke-width:1.0;"/><ellipse cx="92.2368" cy="556.0625" fill="#222222" rx="6" ry="6" style="stroke:#222222;stroke-width:1.0;"/><polygon fill="#F1F1F1" points="196.6272,400.2031,304.8386,400.2031,316.8386,414.0391,304.8386,427.875,196.6272,427.875,184.6272,414.0391,196.6272,400.2031" style="stroke:#181818;stroke-width:0.5;"/><text fill="#000000" font-family="sans-serif" font-size="11" lengthAdjust="spacing" textLength="13.4546" x="254.7329" y="439.2939">Ya</text><text fill="#000000" font-family="sans-serif" font-size="11" lengthAdjust="spacing" textLength="108.2114" x="196.6272" y="411.6221">Format foto tidak valid</text><text fill="#000000" font-family="sans-serif" font-size="11" lengthAdjust="spacing" textLength="62.6807" x="196.6272" y="425.458">atau &gt; 2MB?</text><text fill="#000000" font-family="sans-serif" font-size="11" lengthAdjust="spacing" textLength="57.4707" x="316.8386" y="411.6221">Validasi OK</text><rect fill="#F1F1F1" height="35.0938" rx="12.5" ry="12.5" style="stroke:#181818;stroke-width:0.5;" width="124.7246" x="188.3706" y="461.7109"/><text fill="#000000" font-family="sans-serif" font-size="12" lengthAdjust="spacing" textLength="104.7246" x="198.3706" y="484.168">Sistem tolak upload</text><rect fill="#F1F1F1" height="35.0938" rx="12.5" ry="12.5" style="stroke:#181818;stroke-width:0.5;" width="147.377" x="177.0444" y="531.8047"/><text fill="#000000" font-family="sans-serif" font-size="12" lengthAdjust="spacing" textLength="127.377" x="187.0444" y="554.2617">Tampilkan error validasi</text><ellipse cx="250.7329" cy="610.3633" fill="none" rx="11" ry="11" style="stroke:#222222;stroke-width:1.0;"/><ellipse cx="250.7329" cy="610.3633" fill="#222222" rx="6" ry="6" style="stroke:#222222;stroke-width:1.0;"/><rect fill="#F1F1F1" height="35.0938" rx="12.5" ry="12.5" style="stroke:#181818;stroke-width:0.5;" width="152.7441" x="397.1206" y="449.4102"/><text fill="#000000" font-family="sans-serif" font-size="12" lengthAdjust="spacing" textLength="132.7441" x="407.1206" y="471.8672">Sistem update data profil</text><rect fill="#F1F1F1" height="35.0938" rx="12.5" ry="12.5" style="stroke:#181818;stroke-width:0.5;" width="202.0684" x="372.4585" y="519.5039"/><text fill="#000000" font-family="sans-serif" font-size="12" lengthAdjust="spacing" textLength="182.0684" x="382.4585" y="541.9609">Sistem tampilkan notifikasi sukses</text><rect fill="#F1F1F1" height="35.0938" rx="12.5" ry="12.5" style="stroke:#181818;stroke-width:0.5;" width="258.1426" x="344.4214" y="587.0625"/><text fill="#000000" font-family="sans-serif" font-size="12" lengthAdjust="spacing" textLength="238.1426" x="354.4214" y="609.5195">Sistem refresh halaman dengan data terbaru</text><polygon fill="#F1F1F1" points="842.8152,231.5,920.4651,231.5,932.4651,243.5,920.4651,255.5,842.8152,255.5,830.8152,243.5,842.8152,231.5" style="stroke:#181818;stroke-width:0.5;"/><text fill="#000000" font-family="sans-serif" font-size="11" lengthAdjust="spacing" textLength="77.6499" x="842.8152" y="248.001">Ubah Password</text><rect fill="#F1F1F1" height="50.1875" rx="12.5" ry="12.5" style="stroke:#181818;stroke-width:0.5;" width="193.3906" x="784.9448" y="275.5"/><text fill="#000000" font-family="sans-serif" font-size="12" lengthAdjust="spacing" textLength="173.3906" x="794.9448" y="297.957">Sistem tampilkan form password</text><text fill="#000000" font-family="sans-serif" font-size="12" lengthAdjust="spacing" textLength="126.0352" x="794.9448" y="313.0508">(lama, baru, konfirmasi)</text><rect fill="#F1F1F1" height="35.0938" rx="12.5" ry="12.5" style="stroke:#181818;stroke-width:0.5;" width="158.7676" x="802.2563" y="346.9453"/><text fill="#000000" font-family="sans-serif" font-size="12" lengthAdjust="spacing" textLength="138.7676" x="812.2563" y="369.4023">Pengguna input password</text><polygon fill="#F1F1F1" points="640.9194,403.2969,751.5854,403.2969,763.5854,415.2969,751.5854,427.2969,640.9194,427.2969,628.9194,415.2969,640.9194,403.2969" style="stroke:#181818;stroke-width:0.5;"/><text fill="#000000" font-family="sans-serif" font-size="11" lengthAdjust="spacing" textLength="13.4546" x="700.2524" y="438.7158">Ya</text><text fill="#000000" font-family="sans-serif" font-size="11" lengthAdjust="spacing" textLength="110.666" x="640.9194" y="419.7979">Password lama salah?</text><rect fill="#F1F1F1" height="35.0938" rx="12.5" ry="12.5" style="stroke:#181818;stroke-width:0.5;" width="147.377" x="622.564" y="461.1328"/><text fill="#000000" font-family="sans-serif" font-size="12" lengthAdjust="spacing" textLength="127.377" x="632.564" y="483.5898">Tampilkan error validasi</text><ellipse cx="696.2524" cy="542.2266" fill="none" rx="11" ry="11" style="stroke:#222222;stroke-width:1.0;"/><ellipse cx="696.2524" cy="542.2266" fill="#222222" rx="6" ry="6" style="stroke:#222222;stroke-width:1.0;"/><polygon fill="#F1F1F1" points="804.8931,401.4609,939.7075,401.4609,951.7075,415.2969,939.7075,429.1328,804.8931,429.1328,792.8931,415.2969,804.8931,401.4609" style="stroke:#181818;stroke-width:0.5;"/><text fill="#000000" font-family="sans-serif" font-size="11" lengthAdjust="spacing" textLength="13.4546" x="876.3003" y="440.5518">Ya</text><text fill="#000000" font-family="sans-serif" font-size="11" lengthAdjust="spacing" textLength="134.8145" x="804.8931" y="412.8799">Password baru &lt; 8 karakter</text><text fill="#000000" font-family="sans-serif" font-size="11" lengthAdjust="spacing" textLength="127.8052" x="804.8931" y="426.7158">atau tidak ada kombinasi?</text><text fill="#000000" font-family="sans-serif" font-size="11" lengthAdjust="spacing" textLength="24.46" x="951.7075" y="412.8799">Valid</text><rect fill="#F1F1F1" height="35.0938" rx="12.5" ry="12.5" style="stroke:#181818;stroke-width:0.5;" width="184.7188" x="779.9409" y="462.9688"/><text fill="#000000" font-family="sans-serif" font-size="12" lengthAdjust="spacing" textLength="164.7188" x="789.9409" y="485.4258">Tampilkan error validasi format</text><ellipse cx="872.3003" cy="544.0625" fill="none" rx="11" ry="11" style="stroke:#222222;stroke-width:1.0;"/><ellipse cx="872.3003" cy="544.0625" fill="#222222" rx="6" ry="6" style="stroke:#222222;stroke-width:1.0;"/><rect fill="#F1F1F1" height="35.0938" rx="12.5" ry="12.5" style="stroke:#181818;stroke-width:0.5;" width="151.4023" x="991.9868" y="450.668"/><text fill="#000000" font-family="sans-serif" font-size="12" lengthAdjust="spacing" textLength="131.4023" x="1001.9868" y="473.125">Sistem update password</text><rect fill="#F1F1F1" height="35.0938" rx="12.5" ry="12.5" style="stroke:#181818;stroke-width:0.5;" width="166.0566" x="984.6597" y="520.7617"/><text fill="#000000" font-family="sans-serif" font-size="12" lengthAdjust="spacing" textLength="146.0566" x="994.6597" y="543.2188">Tampilkan notifikasi sukses</text><ellipse cx="611.6436" cy="673.1563" fill="none" rx="11" ry="11" style="stroke:#222222;stroke-width:1.0;"/><ellipse cx="611.6436" cy="673.1563" fill="#222222" rx="6" ry="6" style="stroke:#222222;stroke-width:1.0;"/><line style="stroke:#181818;stroke-width:1.0;" x1="611.6436" x2="611.6436" y1="86.2188" y2="106.2188"/><polygon fill="#181818" points="607.6436,96.2188,611.6436,106.2188,615.6436,96.2188,611.6436,100.2188" style="stroke:#181818;stroke-width:1.0;"/><line style="stroke:#181818;stroke-width:1.0;" x1="611.6436" x2="611.6436" y1="141.3125" y2="161.3125"/><polygon fill="#181818" points="607.6436,151.3125,611.6436,161.3125,615.6436,151.3125,611.6436,155.3125" style="stroke:#181818;stroke-width:1.0;"/><line style="stroke:#181818;stroke-width:1.0;" x1="307.5674" x2="307.5674" y1="324.4297" y2="345.6875"/><polygon fill="#181818" points="303.5674,335.6875,307.5674,345.6875,311.5674,335.6875,307.5674,339.6875" style="stroke:#181818;stroke-width:1.0;"/><line style="stroke:#181818;stroke-width:1.0;" x1="92.2368" x2="92.2368" y1="510.0625" y2="545.0625"/><polygon fill="#181818" points="88.2368,535.0625,92.2368,545.0625,96.2368,535.0625,92.2368,539.0625" style="stroke:#181818;stroke-width:1.0;"/><line style="stroke:#181818;stroke-width:1.0;" x1="250.7329" x2="250.7329" y1="496.8047" y2="531.8047"/><polygon fill="#181818" points="246.7329,521.8047,250.7329,531.8047,254.7329,521.8047,250.7329,525.8047" style="stroke:#181818;stroke-width:1.0;"/><line style="stroke:#181818;stroke-width:1.0;" x1="250.7329" x2="250.7329" y1="566.8984" y2="599.3633"/><polygon fill="#181818" points="246.7329,589.3633,250.7329,599.3633,254.7329,589.3633,250.7329,593.3633" style="stroke:#181818;stroke-width:1.0;"/><line style="stroke:#181818;stroke-width:1.0;" x1="473.4927" x2="473.4927" y1="484.5039" y2="519.5039"/><polygon fill="#181818" points="469.4927,509.5039,473.4927,519.5039,477.4927,509.5039,473.4927,513.5039" style="stroke:#181818;stroke-width:1.0;"/><line style="stroke:#181818;stroke-width:1.0;" x1="473.4927" x2="473.4927" y1="554.5977" y2="587.0625"/><polygon fill="#181818" points="469.4927,577.0625,473.4927,587.0625,477.4927,577.0625,473.4927,581.0625" style="stroke:#181818;stroke-width:1.0;"/><line style="stroke:#181818;stroke-width:1.0;" x1="92.2368" x2="92.2368" y1="426.0391" y2="459.875"/><polygon fill="#181818" points="88.2368,449.875,92.2368,459.875,96.2368,449.875,92.2368,453.875" style="stroke:#181818;stroke-width:1.0;"/><line style="stroke:#181818;stroke-width:1.0;" x1="250.7329" x2="250.7329" y1="427.875" y2="461.7109"/><polygon fill="#181818" points="246.7329,451.7109,250.7329,461.7109,254.7329,451.7109,250.7329,455.7109" style="stroke:#181818;stroke-width:1.0;"/><line style="stroke:#181818;stroke-width:1.0;" x1="164.4736" x2="184.6272" y1="414.0391" y2="414.0391"/><polygon fill="#181818" points="174.6272,410.0391,184.6272,414.0391,174.6272,418.0391,178.6272,414.0391" style="stroke:#181818;stroke-width:1.0;"/><line style="stroke:#181818;stroke-width:1.0;" x1="307.5674" x2="307.5674" y1="380.7813" y2="387.0391"/><line style="stroke:#181818;stroke-width:1.0;" x1="307.5674" x2="92.2368" y1="387.0391" y2="387.0391"/><line style="stroke:#181818;stroke-width:1.0;" x1="92.2368" x2="92.2368" y1="387.0391" y2="402.0391"/><polygon fill="#181818" points="88.2368,392.0391,92.2368,402.0391,96.2368,392.0391,92.2368,396.0391" style="stroke:#181818;stroke-width:1.0;"/><line style="stroke:#181818;stroke-width:1.0;" x1="316.8386" x2="473.4927" y1="414.0391" y2="414.0391"/><line style="stroke:#181818;stroke-width:1.0;" x1="473.4927" x2="473.4927" y1="414.0391" y2="449.4102"/><polygon fill="#181818" points="469.4927,439.4102,473.4927,449.4102,477.4927,439.4102,473.4927,443.4102" style="stroke:#181818;stroke-width:1.0;"/><line style="stroke:#181818;stroke-width:1.0;" x1="473.4927" x2="473.4927" y1="622.1563" y2="627.1563"/><line style="stroke:#181818;stroke-width:1.0;" x1="473.4927" x2="307.5674" y1="627.1563" y2="627.1563"/><line style="stroke:#181818;stroke-width:1.0;" x1="307.5674" x2="307.5674" y1="627.1563" y2="642.1563"/><polygon fill="#181818" points="303.5674,632.1563,307.5674,642.1563,311.5674,632.1563,307.5674,636.1563" style="stroke:#181818;stroke-width:1.0;"/><line style="stroke:#181818;stroke-width:1.0;" x1="881.6401" x2="881.6401" y1="325.6875" y2="346.9453"/><polygon fill="#181818" points="877.6401,336.9453,881.6401,346.9453,885.6401,336.9453,881.6401,340.9453" style="stroke:#181818;stroke-width:1.0;"/><line style="stroke:#181818;stroke-width:1.0;" x1="696.2524" x2="696.2524" y1="496.2266" y2="531.2266"/><polygon fill="#181818" points="692.2524,521.2266,696.2524,531.2266,700.2524,521.2266,696.2524,525.2266" style="stroke:#181818;stroke-width:1.0;"/><line style="stroke:#181818;stroke-width:1.0;" x1="872.3003" x2="872.3003" y1="498.0625" y2="533.0625"/><polygon fill="#181818" points="868.3003,523.0625,872.3003,533.0625,876.3003,523.0625,872.3003,527.0625" style="stroke:#181818;stroke-width:1.0;"/><line style="stroke:#181818;stroke-width:1.0;" x1="1067.688" x2="1067.688" y1="485.7617" y2="520.7617"/><polygon fill="#181818" points="1063.688,510.7617,1067.688,520.7617,1071.688,510.7617,1067.688,514.7617" style="stroke:#181818;stroke-width:1.0;"/><line style="stroke:#181818;stroke-width:1.0;" x1="696.2524" x2="696.2524" y1="427.2969" y2="461.1328"/><polygon fill="#181818" points="692.2524,451.1328,696.2524,461.1328,700.2524,451.1328,696.2524,455.1328" style="stroke:#181818;stroke-width:1.0;"/><line style="stroke:#181818;stroke-width:1.0;" x1="872.3003" x2="872.3003" y1="429.1328" y2="462.9688"/><polygon fill="#181818" points="868.3003,452.9688,872.3003,462.9688,876.3003,452.9688,872.3003,456.9688" style="stroke:#181818;stroke-width:1.0;"/><line style="stroke:#181818;stroke-width:1.0;" x1="763.5854" x2="792.8931" y1="415.2969" y2="415.2969"/><polygon fill="#181818" points="782.8931,411.2969,792.8931,415.2969,782.8931,419.2969,786.8931,415.2969" style="stroke:#181818;stroke-width:1.0;"/><line style="stroke:#181818;stroke-width:1.0;" x1="881.6401" x2="881.6401" y1="382.0391" y2="387.0391"/><line style="stroke:#181818;stroke-width:1.0;" x1="881.6401" x2="696.2524" y1="387.0391" y2="387.0391"/><line style="stroke:#181818;stroke-width:1.0;" x1="696.2524" x2="696.2524" y1="387.0391" y2="403.2969"/><polygon fill="#181818" points="692.2524,393.2969,696.2524,403.2969,700.2524,393.2969,696.2524,397.2969" style="stroke:#181818;stroke-width:1.0;"/><line style="stroke:#181818;stroke-width:1.0;" x1="951.7075" x2="1067.688" y1="415.2969" y2="415.2969"/><line style="stroke:#181818;stroke-width:1.0;" x1="1067.688" x2="1067.688" y1="415.2969" y2="450.668"/><polygon fill="#181818" points="1063.688,440.668,1067.688,450.668,1071.688,440.668,1067.688,444.668" style="stroke:#181818;stroke-width:1.0;"/><line style="stroke:#181818;stroke-width:1.0;" x1="1067.688" x2="1067.688" y1="555.8555" y2="627.1563"/><line style="stroke:#181818;stroke-width:1.0;" x1="1067.688" x2="881.6401" y1="627.1563" y2="627.1563"/><line style="stroke:#181818;stroke-width:1.0;" x1="881.6401" x2="881.6401" y1="627.1563" y2="642.1563"/><polygon fill="#181818" points="877.6401,632.1563,881.6401,642.1563,885.6401,632.1563,881.6401,636.1563" style="stroke:#181818;stroke-width:1.0;"/><line style="stroke:#181818;stroke-width:1.0;" x1="307.5674" x2="307.5674" y1="255.5" y2="289.3359"/><polygon fill="#181818" points="303.5674,279.3359,307.5674,289.3359,311.5674,279.3359,307.5674,283.3359" style="stroke:#181818;stroke-width:1.0;"/><line style="stroke:#181818;stroke-width:1.0;" x1="881.6401" x2="881.6401" y1="255.5" y2="275.5"/><polygon fill="#181818" points="877.6401,265.5,881.6401,275.5,885.6401,265.5,881.6401,269.5" style="stroke:#181818;stroke-width:1.0;"/><line style="stroke:#181818;stroke-width:1.0;" x1="362.0635" x2="830.8152" y1="243.5" y2="243.5"/><polygon fill="#181818" points="820.8152,239.5,830.8152,243.5,820.8152,247.5,824.8152,243.5" style="stroke:#181818;stroke-width:1.0;"/><line style="stroke:#181818;stroke-width:1.0;" x1="611.6436" x2="611.6436" y1="211.5" y2="216.5"/><line style="stroke:#181818;stroke-width:1.0;" x1="611.6436" x2="307.5674" y1="216.5" y2="216.5"/><line style="stroke:#181818;stroke-width:1.0;" x1="307.5674" x2="307.5674" y1="216.5" y2="231.5"/><polygon fill="#181818" points="303.5674,221.5,307.5674,231.5,311.5674,221.5,307.5674,225.5" style="stroke:#181818;stroke-width:1.0;"/><line style="stroke:#181818;stroke-width:1.0;" x1="932.4651" x2="1164.7163" y1="243.5" y2="243.5"/><line style="stroke:#181818;stroke-width:1.0;" x1="1164.7163" x2="1164.7163" y1="243.5" y2="642.1563"/><polygon fill="#181818" points="1160.7163,632.1563,1164.7163,642.1563,1168.7163,632.1563,1164.7163,636.1563" style="stroke:#181818;stroke-width:1.0;"/><line style="stroke:#181818;stroke-width:1.0;" x1="307.5674" x2="1164.7163" y1="642.1563" y2="642.1563"/><line style="stroke:#181818;stroke-width:1.0;" x1="611.6436" x2="611.6436" y1="642.1563" y2="662.1563"/><polygon fill="#181818" points="607.6436,652.1563,611.6436,662.1563,615.6436,652.1563,611.6436,656.1563" style="stroke:#181818;stroke-width:1.0;"/><!--SRC=[bLD1Rjim4Bpp5OkSRC2ddWehI96YwIKeOY1DW0A-h4DAMf0Y1NAL8h_FKbHLsx4Dn0VPbcPdXhEZPCdt6B43V65w9NvxRB4t45uOc-2LOc9du7Pw23y86q5l_RrnmI5iOgZ9oHVjK9DIYJ6oMc-CRvh18tJo0sqo2LfqsA67lapqPQ9IwqTARBgCnAudPmMZaN42Rlr2xkCAJ8VaLX23Coke0uS9iAoKeXeMjpOHlA5lG9FGKFjj2TmQ3uixJJmPNIgGpod9EiGEJ4OMsgeWvuCCEspXm8bu763eNK0z-YaJuoNxkSieI8EMEKsPGsHcJt-mMDctmxCP4sE8Mt-rpy4cQgmbtgjgdamS-l6FSScCgZ_b6CWb7oQD5bxHaTxwqUqDVFdr_R87MQgTJlLVP_txq5eXnKJdh2oU9m0yt7yK6NfPiDdVSdKX31-OQhAPB0svIX_1qTJHf7RkcCwjcseakUqm3cN8U4rrsTCSsLFUx0PJ-XkYBjceqqx6ZlGJKehfnZfazXNOu6kIx1CjZwiZRzZ0yznHJVu9GoQ390TeJo_eioiu8CyUuHg-WfLttKeaKo5AHL2Z-Ezsv8NlS-fZ9iYNUt2s0OUP70cTsNjPORcgKUqT]--></g></svg>