<svg xmlns="http://www.w3.org/2000/svg" xmlns:xlink="http://www.w3.org/1999/xlink" contentStyleType="text/css" height="1506px" preserveAspectRatio="none" style="width:1703px;height:1506px;background:#FFFFFF;" version="1.1" viewBox="0 0 1703 1506" width="1703px" zoomAndPan="magnify"><defs/><g><rect fill="none" height="22.6406" style="stroke:none;stroke-width:1.0;" width="1670.9457" x="15" y="12.4551"/><ellipse cx="656.9432" cy="50.0957" fill="#222222" rx="10" ry="10" style="stroke:#222222;stroke-width:1.0;"/><rect fill="#F1F1F1" height="35.0938" rx="12.5" ry="12.5" style="stroke:#181818;stroke-width:0.5;" width="213.4297" x="550.2284" y="80.0957"/><text fill="#000000" font-family="sans-serif" font-size="12" lengthAdjust="spacing" textLength="193.4297" x="560.2284" y="102.5527">Membuka halaman Antrian Produksi</text><rect fill="#F1F1F1" height="35.0938" rx="12.5" ry="12.5" style="stroke:#181818;stroke-width:0.5;" width="141.3945" x="586.246" y="135.1895"/><text fill="#000000" font-family="sans-serif" font-size="12" lengthAdjust="spacing" textLength="121.3945" x="596.246" y="157.6465">Melihat daftar produksi</text><polygon fill="#F1F1F1" points="594.2599,190.2832,719.6266,190.2832,731.6266,202.2832,719.6266,214.2832,594.2599,214.2832,582.2599,202.2832,594.2599,190.2832" style="stroke:#181818;stroke-width:0.5;"/><text fill="#000000" font-family="sans-serif" font-size="11" lengthAdjust="spacing" textLength="125.3667" x="594.2599" y="206.7842">Ada produksi menunggu?</text><text fill="#000000" font-family="sans-serif" font-size="11" lengthAdjust="spacing" textLength="13.4546" x="568.8053" y="199.8662">Ya</text><text fill="#000000" font-family="sans-serif" font-size="11" lengthAdjust="spacing" textLength="26.8984" x="731.6266" y="199.8662">Tidak</text><rect fill="#F1F1F1" height="35.0938" rx="12.5" ry="12.5" style="stroke:#181818;stroke-width:0.5;" width="210.0898" x="342.4128" y="234.2832"/><text fill="#000000" font-family="sans-serif" font-size="12" lengthAdjust="spacing" textLength="190.0898" x="352.4128" y="256.7402">Memilih produksi yang akan dimulai</text><rect fill="#F1F1F1" height="35.0938" rx="12.5" ry="12.5" style="stroke:#181818;stroke-width:0.5;" width="159.3887" x="367.7634" y="289.377"/><text fill="#000000" font-family="sans-serif" font-size="12" lengthAdjust="spacing" textLength="139.3887" x="377.7634" y="311.834">Memeriksa detail produksi</text><rect fill="#F1F1F1" height="35.0938" rx="12.5" ry="12.5" style="stroke:#181818;stroke-width:0.5;" width="172.7363" x="146.8823" y="498.6582"/><text fill="#000000" font-family="sans-serif" font-size="12" lengthAdjust="spacing" textLength="152.7363" x="156.8823" y="521.1152">Memilih pekerja yang terlibat</text><rect fill="#F1F1F1" height="35.0938" rx="12.5" ry="12.5" style="stroke:#181818;stroke-width:0.5;" width="185.3984" x="140.5513" y="553.752"/><text fill="#000000" font-family="sans-serif" font-size="12" lengthAdjust="spacing" textLength="165.3984" x="150.5513" y="576.209">Mengkonfirmasi mulai produksi</text><rect fill="#F1F1F1" height="35.0938" rx="12.5" ry="12.5" style="stroke:#181818;stroke-width:0.5;" width="166.0742" x="150.2134" y="833.0254"/><text fill="#000000" font-family="sans-serif" font-size="12" lengthAdjust="spacing" textLength="146.0742" x="160.2134" y="855.4824">Melakukan proses produksi</text><polygon fill="#F1F1F1" points="190.1448,888.1191,276.3562,888.1191,288.3562,900.1191,276.3562,912.1191,190.1448,912.1191,178.1448,900.1191,190.1448,888.1191" style="stroke:#181818;stroke-width:0.5;"/><text fill="#000000" font-family="sans-serif" font-size="11" lengthAdjust="spacing" textLength="86.2114" x="190.1448" y="904.6201">Produksi selesai?</text><text fill="#000000" font-family="sans-serif" font-size="11" lengthAdjust="spacing" textLength="13.4546" x="164.6902" y="897.7021">Ya</text><text fill="#000000" font-family="sans-serif" font-size="11" lengthAdjust="spacing" textLength="51.9761" x="288.3562" y="897.7021">Dibatalkan</text><rect fill="#F1F1F1" height="35.0938" rx="12.5" ry="12.5" style="stroke:#181818;stroke-width:0.5;" width="162.084" x="21" y="932.1191"/><text fill="#000000" font-family="sans-serif" font-size="12" lengthAdjust="spacing" textLength="142.084" x="31" y="954.5762">Menandai produksi selesai</text><rect fill="#F1F1F1" height="35.0938" rx="12.5" ry="12.5" style="stroke:#181818;stroke-width:0.5;" width="140.7266" x="294.0957" y="932.1191"/><text fill="#000000" font-family="sans-serif" font-size="12" lengthAdjust="spacing" textLength="120.7266" x="304.0957" y="954.5762">Membatalkan produksi</text><polygon fill="#F1F1F1" points="233.2505,1360.5996,245.2505,1372.5996,233.2505,1384.5996,221.2505,1372.5996,233.2505,1360.5996" style="stroke:#181818;stroke-width:0.5;"/><rect fill="#F1F1F1" height="35.0938" rx="12.5" ry="12.5" style="stroke:#181818;stroke-width:0.5;" width="118.7305" x="602.2998" y="553.752"/><text fill="#000000" font-family="sans-serif" font-size="12" lengthAdjust="spacing" textLength="98.7305" x="612.2998" y="576.209">Menunda produksi</text><rect fill="#F1F1F1" height="35.0938" rx="12.5" ry="12.5" style="stroke:#181818;stroke-width:0.5;" width="97.373" x="773.6581" y="234.2832"/><text fill="#000000" font-family="sans-serif" font-size="12" lengthAdjust="spacing" textLength="77.373" x="783.6581" y="256.7402">Tidak ada aksi</text><polygon fill="#F1F1F1" points="656.9432,1428.5996,668.9432,1440.5996,656.9432,1452.5996,644.9432,1440.5996,656.9432,1428.5996" style="stroke:#181818;stroke-width:0.5;"/><ellipse cx="656.9432" cy="1483.5996" fill="none" rx="11" ry="11" style="stroke:#222222;stroke-width:1.0;"/><ellipse cx="656.9432" cy="1483.5996" fill="#222222" rx="6" ry="6" style="stroke:#222222;stroke-width:1.0;"/><line style="stroke:#000000;stroke-width:1.5;" x1="15" x2="15" y1="12.4551" y2="1494.5996"/><rect fill="#F1F1F1" height="35.0938" rx="12.5" ry="12.5" style="stroke:#181818;stroke-width:0.5;" width="216.7813" x="1231.7701" y="344.4707"/><text fill="#000000" font-family="sans-serif" font-size="12" lengthAdjust="spacing" textLength="196.7813" x="1241.7701" y="366.9277">Memeriksa ketersediaan bahan baku</text><polygon fill="#F1F1F1" points="1291.5389,399.5645,1388.7826,399.5645,1400.7826,411.5645,1388.7826,423.5645,1291.5389,423.5645,1279.5389,411.5645,1291.5389,399.5645" style="stroke:#181818;stroke-width:0.5;"/><text fill="#000000" font-family="sans-serif" font-size="11" lengthAdjust="spacing" textLength="97.2437" x="1291.5389" y="416.0654">Bahan baku cukup?</text><text fill="#000000" font-family="sans-serif" font-size="11" lengthAdjust="spacing" textLength="13.4546" x="1266.0844" y="409.1475">Ya</text><text fill="#000000" font-family="sans-serif" font-size="11" lengthAdjust="spacing" textLength="26.8984" x="1400.7826" y="409.1475">Tidak</text><rect fill="#F1F1F1" height="35.0938" rx="12.5" ry="12.5" style="stroke:#181818;stroke-width:0.5;" width="181.3906" x="1035.2582" y="443.5645"/><text fill="#000000" font-family="sans-serif" font-size="12" lengthAdjust="spacing" textLength="161.3906" x="1045.2582" y="466.0215">Menampilkan konfirmasi mulai</text><path d="M1233.3412,605.041 L1233.3412,622.3926 L1213.3412,626.3926 L1233.3412,630.3926 L1233.3412,647.7441 A0,0 0 0 0 1233.3412,647.7441 L1408.2909,647.7441 A0,0 0 0 0 1408.2909,647.7441 L1408.2909,615.041 L1398.2909,605.041 L1233.3412,605.041 A0,0 0 0 0 1233.3412,605.041 " fill="#FEFFDD" style="stroke:#181818;stroke-width:0.5;"/><path d="M1398.2909,605.041 L1398.2909,615.041 L1408.2909,615.041 L1398.2909,605.041 " fill="#FEFFDD" style="stroke:#181818;stroke-width:0.5;"/><text fill="#000000" font-family="sans-serif" font-size="13" lengthAdjust="spacing" textLength="153.9497" x="1239.3412" y="623.5361">Pengurangan berdasarkan</text><text fill="#000000" font-family="sans-serif" font-size="13" lengthAdjust="spacing" textLength="101.1563" x="1239.3412" y="639.8877">komposisi produk</text><rect fill="#F1F1F1" height="35.0938" rx="12.5" ry="12.5" style="stroke:#181818;stroke-width:0.5;" width="174.7754" x="1038.5658" y="608.8457"/><text fill="#000000" font-family="sans-serif" font-size="12" lengthAdjust="spacing" textLength="154.7754" x="1048.5658" y="631.3027">Mengurangi stok bahan baku</text><rect fill="#F1F1F1" height="35.0938" rx="12.5" ry="12.5" style="stroke:#181818;stroke-width:0.5;" width="137.3984" x="1057.2543" y="667.7441"/><text fill="#000000" font-family="sans-serif" font-size="12" lengthAdjust="spacing" textLength="117.3984" x="1067.2543" y="690.2012">Mencatat log inventori</text><rect fill="#F1F1F1" height="35.0938" rx="12.5" ry="12.5" style="stroke:#181818;stroke-width:0.5;" width="138.0605" x="1056.9232" y="722.8379"/><text fill="#000000" font-family="sans-serif" font-size="12" lengthAdjust="spacing" textLength="118.0605" x="1066.9232" y="745.2949">Update status: Proses</text><rect fill="#F1F1F1" height="35.0938" rx="12.5" ry="12.5" style="stroke:#181818;stroke-width:0.5;" width="196.7129" x="1027.597" y="777.9316"/><text fill="#000000" font-family="sans-serif" font-size="12" lengthAdjust="spacing" textLength="176.7129" x="1037.597" y="800.3887">Kirim notifikasi (Produksi dimulai)</text><rect fill="#F1F1F1" height="35.0938" rx="12.5" ry="12.5" style="stroke:#181818;stroke-width:0.5;" width="167.416" x="911.037" y="987.2129"/><text fill="#000000" font-family="sans-serif" font-size="12" lengthAdjust="spacing" textLength="147.416" x="921.037" y="1009.6699">Menambah stok produk jadi</text><rect fill="#F1F1F1" height="35.0938" rx="12.5" ry="12.5" style="stroke:#181818;stroke-width:0.5;" width="140.0703" x="924.7098" y="1042.3066"/><text fill="#000000" font-family="sans-serif" font-size="12" lengthAdjust="spacing" textLength="120.0703" x="934.7098" y="1064.7637">Update status: Selesai</text><rect fill="#F1F1F1" height="35.0938" rx="12.5" ry="12.5" style="stroke:#181818;stroke-width:0.5;" width="196.0508" x="896.7196" y="1097.4004"/><text fill="#000000" font-family="sans-serif" font-size="12" lengthAdjust="spacing" textLength="176.0508" x="906.7196" y="1119.8574">Kirim notifikasi (Produksi selesai)</text><rect fill="#F1F1F1" height="35.0938" rx="12.5" ry="12.5" style="stroke:#181818;stroke-width:0.5;" width="227.4277" x="881.0311" y="1201.4121"/><text fill="#000000" font-family="sans-serif" font-size="12" lengthAdjust="spacing" textLength="207.4277" x="891.0311" y="1223.8691">Update status transaksi: Dapat Diambil</text><rect fill="#F1F1F1" height="35.0938" rx="12.5" ry="12.5" style="stroke:#181818;stroke-width:0.5;" width="144.0313" x="922.7294" y="1271.5059"/><text fill="#000000" font-family="sans-serif" font-size="12" lengthAdjust="spacing" textLength="124.0313" x="932.7294" y="1293.9629">Kirim notifikasi ke Kasir</text><polygon fill="#F1F1F1" points="958.9708,1152.4941,1030.5192,1152.4941,1042.5192,1164.4941,1030.5192,1176.4941,958.9708,1176.4941,946.9708,1164.4941,958.9708,1152.4941" style="stroke:#181818;stroke-width:0.5;"/><text fill="#000000" font-family="sans-serif" font-size="11" lengthAdjust="spacing" textLength="13.4546" x="998.745" y="1187.9131">Ya</text><text fill="#000000" font-family="sans-serif" font-size="11" lengthAdjust="spacing" textLength="71.5483" x="958.9708" y="1168.9951">Dari pesanan?</text><text fill="#000000" font-family="sans-serif" font-size="11" lengthAdjust="spacing" textLength="43.4146" x="1042.5192" y="1162.0771">Siap Beli</text><polygon fill="#F1F1F1" points="994.745,1326.5996,1006.745,1338.5996,994.745,1350.5996,982.745,1338.5996,994.745,1326.5996" style="stroke:#181818;stroke-width:0.5;"/><rect fill="#F1F1F1" height="35.0938" rx="12.5" ry="12.5" style="stroke:#181818;stroke-width:0.5;" width="196.1152" x="1159.1044" y="987.2129"/><text fill="#000000" font-family="sans-serif" font-size="12" lengthAdjust="spacing" textLength="176.1152" x="1169.1044" y="1009.6699">Mengembalikan stok bahan baku</text><rect fill="#F1F1F1" height="35.0938" rx="12.5" ry="12.5" style="stroke:#181818;stroke-width:0.5;" width="157.4141" x="1178.455" y="1042.3066"/><text fill="#000000" font-family="sans-serif" font-size="12" lengthAdjust="spacing" textLength="137.4141" x="1188.455" y="1064.7637">Update status: Dibatalkan</text><rect fill="#F1F1F1" height="35.0938" rx="12.5" ry="12.5" style="stroke:#181818;stroke-width:0.5;" width="213.4063" x="1150.4589" y="1097.4004"/><text fill="#000000" font-family="sans-serif" font-size="12" lengthAdjust="spacing" textLength="193.4063" x="1160.4589" y="1119.8574">Kirim notifikasi (Produksi dibatalkan)</text><rect fill="#F1F1F1" height="35.0938" rx="12.5" ry="12.5" style="stroke:#181818;stroke-width:0.5;" width="252.1543" x="1428.2909" y="443.5645"/><text fill="#000000" font-family="sans-serif" font-size="12" lengthAdjust="spacing" textLength="232.1543" x="1438.2909" y="466.0215">Menampilkan peringatan bahan tidak cukup</text><rect fill="#F1F1F1" height="35.0938" rx="12.5" ry="12.5" style="stroke:#181818;stroke-width:0.5;" width="231.4707" x="1438.6327" y="498.6582"/><text fill="#000000" font-family="sans-serif" font-size="12" lengthAdjust="spacing" textLength="211.4707" x="1448.6327" y="521.1152">Menampilkan daftar bahan yang kurang</text><polygon fill="#F1F1F1" points="1340.1608,1394.5996,1352.1608,1406.5996,1340.1608,1418.5996,1328.1608,1406.5996,1340.1608,1394.5996" style="stroke:#181818;stroke-width:0.5;"/><line style="stroke:#000000;stroke-width:1.5;" x1="875.0311" x2="875.0311" y1="12.4551" y2="1494.5996"/><line style="stroke:#000000;stroke-width:1.5;" x1="1684.4452" x2="1684.4452" y1="12.4551" y2="1494.5996"/><line style="stroke:#181818;stroke-width:1.0;" x1="656.9432" x2="656.9432" y1="60.0957" y2="80.0957"/><polygon fill="#181818" points="652.9432,70.0957,656.9432,80.0957,660.9432,70.0957,656.9432,74.0957" style="stroke:#181818;stroke-width:1.0;"/><line style="stroke:#181818;stroke-width:1.0;" x1="656.9432" x2="656.9432" y1="115.1895" y2="135.1895"/><polygon fill="#181818" points="652.9432,125.1895,656.9432,135.1895,660.9432,125.1895,656.9432,129.1895" style="stroke:#181818;stroke-width:1.0;"/><line style="stroke:#181818;stroke-width:1.0;" x1="447.4578" x2="447.4578" y1="269.377" y2="289.377"/><polygon fill="#181818" points="443.4578,279.377,447.4578,289.377,451.4578,279.377,447.4578,283.377" style="stroke:#181818;stroke-width:1.0;"/><line style="stroke:#181818;stroke-width:1.0;" x1="233.2505" x2="233.2505" y1="533.752" y2="553.752"/><polygon fill="#181818" points="229.2505,543.752,233.2505,553.752,237.2505,543.752,233.2505,547.752" style="stroke:#181818;stroke-width:1.0;"/><line style="stroke:#181818;stroke-width:1.0;" x1="178.1448" x2="102.042" y1="900.1191" y2="900.1191"/><line style="stroke:#181818;stroke-width:1.0;" x1="102.042" x2="102.042" y1="900.1191" y2="932.1191"/><polygon fill="#181818" points="98.042,922.1191,102.042,932.1191,106.042,922.1191,102.042,926.1191" style="stroke:#181818;stroke-width:1.0;"/><line style="stroke:#181818;stroke-width:1.0;" x1="288.3562" x2="364.459" y1="900.1191" y2="900.1191"/><line style="stroke:#181818;stroke-width:1.0;" x1="364.459" x2="364.459" y1="900.1191" y2="932.1191"/><polygon fill="#181818" points="360.459,922.1191,364.459,932.1191,368.459,922.1191,364.459,926.1191" style="stroke:#181818;stroke-width:1.0;"/><line style="stroke:#181818;stroke-width:1.0;" x1="233.2505" x2="233.2505" y1="868.1191" y2="888.1191"/><polygon fill="#181818" points="229.2505,878.1191,233.2505,888.1191,237.2505,878.1191,233.2505,882.1191" style="stroke:#181818;stroke-width:1.0;"/><line style="stroke:#181818;stroke-width:1.0;" x1="582.2599" x2="447.4578" y1="202.2832" y2="202.2832"/><line style="stroke:#181818;stroke-width:1.0;" x1="447.4578" x2="447.4578" y1="202.2832" y2="234.2832"/><polygon fill="#181818" points="443.4578,224.2832,447.4578,234.2832,451.4578,224.2832,447.4578,228.2832" style="stroke:#181818;stroke-width:1.0;"/><line style="stroke:#181818;stroke-width:1.0;" x1="731.6266" x2="822.3446" y1="202.2832" y2="202.2832"/><line style="stroke:#181818;stroke-width:1.0;" x1="822.3446" x2="822.3446" y1="202.2832" y2="234.2832"/><polygon fill="#181818" points="818.3446,224.2832,822.3446,234.2832,826.3446,224.2832,822.3446,228.2832" style="stroke:#181818;stroke-width:1.0;"/><line style="stroke:#181818;stroke-width:1.0;" x1="822.3446" x2="822.3446" y1="269.377" y2="1440.5996"/><line style="stroke:#181818;stroke-width:1.0;" x1="822.3446" x2="668.9432" y1="1440.5996" y2="1440.5996"/><polygon fill="#181818" points="678.9432,1436.5996,668.9432,1440.5996,678.9432,1444.5996,674.9432,1440.5996" style="stroke:#181818;stroke-width:1.0;"/><line style="stroke:#181818;stroke-width:1.0;" x1="656.9432" x2="656.9432" y1="170.2832" y2="190.2832"/><polygon fill="#181818" points="652.9432,180.2832,656.9432,190.2832,660.9432,180.2832,656.9432,184.2832" style="stroke:#181818;stroke-width:1.0;"/><line style="stroke:#181818;stroke-width:1.0;" x1="656.9432" x2="656.9432" y1="1452.5996" y2="1472.5996"/><polygon fill="#181818" points="652.9432,1462.5996,656.9432,1472.5996,660.9432,1462.5996,656.9432,1466.5996" style="stroke:#181818;stroke-width:1.0;"/><line style="stroke:#181818;stroke-width:1.0;" x1="1125.9535" x2="1125.9535" y1="643.9395" y2="667.7441"/><polygon fill="#181818" points="1121.9535,657.7441,1125.9535,667.7441,1129.9535,657.7441,1125.9535,661.7441" style="stroke:#181818;stroke-width:1.0;"/><line style="stroke:#181818;stroke-width:1.0;" x1="1125.9535" x2="1125.9535" y1="702.8379" y2="722.8379"/><polygon fill="#181818" points="1121.9535,712.8379,1125.9535,722.8379,1129.9535,712.8379,1125.9535,716.8379" style="stroke:#181818;stroke-width:1.0;"/><line style="stroke:#181818;stroke-width:1.0;" x1="1125.9535" x2="1125.9535" y1="757.9316" y2="777.9316"/><polygon fill="#181818" points="1121.9535,767.9316,1125.9535,777.9316,1129.9535,767.9316,1125.9535,771.9316" style="stroke:#181818;stroke-width:1.0;"/><line style="stroke:#181818;stroke-width:1.0;" x1="994.745" x2="994.745" y1="1022.3066" y2="1042.3066"/><polygon fill="#181818" points="990.745,1032.3066,994.745,1042.3066,998.745,1032.3066,994.745,1036.3066" style="stroke:#181818;stroke-width:1.0;"/><line style="stroke:#181818;stroke-width:1.0;" x1="994.745" x2="994.745" y1="1077.4004" y2="1097.4004"/><polygon fill="#181818" points="990.745,1087.4004,994.745,1097.4004,998.745,1087.4004,994.745,1091.4004" style="stroke:#181818;stroke-width:1.0;"/><line style="stroke:#181818;stroke-width:1.0;" x1="994.745" x2="994.745" y1="1236.5059" y2="1271.5059"/><polygon fill="#181818" points="990.745,1261.5059,994.745,1271.5059,998.745,1261.5059,994.745,1265.5059" style="stroke:#181818;stroke-width:1.0;"/><line style="stroke:#181818;stroke-width:1.0;" x1="994.745" x2="994.745" y1="1176.4941" y2="1201.4121"/><polygon fill="#181818" points="990.745,1191.4121,994.745,1201.4121,998.745,1191.4121,994.745,1195.4121" style="stroke:#181818;stroke-width:1.0;"/><line style="stroke:#181818;stroke-width:1.0;" x1="1042.5192" x2="1118.4589" y1="1164.4941" y2="1164.4941"/><polygon fill="#181818" points="1114.4589,1244.0059,1118.4589,1254.0059,1122.4589,1244.0059,1118.4589,1248.0059" style="stroke:#181818;stroke-width:1.0;"/><line style="stroke:#181818;stroke-width:1.0;" x1="1118.4589" x2="1118.4589" y1="1164.4941" y2="1338.5996"/><line style="stroke:#181818;stroke-width:1.0;" x1="1118.4589" x2="1006.745" y1="1338.5996" y2="1338.5996"/><polygon fill="#181818" points="1016.745,1334.5996,1006.745,1338.5996,1016.745,1342.5996,1012.745,1338.5996" style="stroke:#181818;stroke-width:1.0;"/><line style="stroke:#181818;stroke-width:1.0;" x1="994.745" x2="994.745" y1="1306.5996" y2="1326.5996"/><polygon fill="#181818" points="990.745,1316.5996,994.745,1326.5996,998.745,1316.5996,994.745,1320.5996" style="stroke:#181818;stroke-width:1.0;"/><line style="stroke:#181818;stroke-width:1.0;" x1="994.745" x2="994.745" y1="1132.4941" y2="1152.4941"/><polygon fill="#181818" points="990.745,1142.4941,994.745,1152.4941,998.745,1142.4941,994.745,1146.4941" style="stroke:#181818;stroke-width:1.0;"/><line style="stroke:#181818;stroke-width:1.0;" x1="1257.162" x2="1257.162" y1="1022.3066" y2="1042.3066"/><polygon fill="#181818" points="1253.162,1032.3066,1257.162,1042.3066,1261.162,1032.3066,1257.162,1036.3066" style="stroke:#181818;stroke-width:1.0;"/><line style="stroke:#181818;stroke-width:1.0;" x1="1257.162" x2="1257.162" y1="1077.4004" y2="1097.4004"/><polygon fill="#181818" points="1253.162,1087.4004,1257.162,1097.4004,1261.162,1087.4004,1257.162,1091.4004" style="stroke:#181818;stroke-width:1.0;"/><line style="stroke:#181818;stroke-width:1.0;" x1="1554.368" x2="1554.368" y1="478.6582" y2="498.6582"/><polygon fill="#181818" points="1550.368,488.6582,1554.368,498.6582,1558.368,488.6582,1554.368,492.6582" style="stroke:#181818;stroke-width:1.0;"/><line style="stroke:#181818;stroke-width:1.0;" x1="1279.5389" x2="1125.9535" y1="411.5645" y2="411.5645"/><line style="stroke:#181818;stroke-width:1.0;" x1="1125.9535" x2="1125.9535" y1="411.5645" y2="443.5645"/><polygon fill="#181818" points="1121.9535,433.5645,1125.9535,443.5645,1129.9535,433.5645,1125.9535,437.5645" style="stroke:#181818;stroke-width:1.0;"/><line style="stroke:#181818;stroke-width:1.0;" x1="1400.7826" x2="1554.368" y1="411.5645" y2="411.5645"/><line style="stroke:#181818;stroke-width:1.0;" x1="1554.368" x2="1554.368" y1="411.5645" y2="443.5645"/><polygon fill="#181818" points="1550.368,433.5645,1554.368,443.5645,1558.368,433.5645,1554.368,437.5645" style="stroke:#181818;stroke-width:1.0;"/><line style="stroke:#181818;stroke-width:1.0;" x1="1340.1608" x2="1340.1608" y1="379.5645" y2="399.5645"/><polygon fill="#181818" points="1336.1608,389.5645,1340.1608,399.5645,1344.1608,389.5645,1340.1608,393.5645" style="stroke:#181818;stroke-width:1.0;"/><line style="stroke:#181818;stroke-width:1.0;" x1="447.4578" x2="447.4578" y1="324.4707" y2="329.4707"/><line style="stroke:#181818;stroke-width:1.0;" x1="447.4578" x2="1340.1608" y1="329.4707" y2="329.4707"/><line style="stroke:#181818;stroke-width:1.0;" x1="1340.1608" x2="1340.1608" y1="329.4707" y2="344.4707"/><polygon fill="#181818" points="1336.1608,334.4707,1340.1608,344.4707,1344.1608,334.4707,1340.1608,338.4707" style="stroke:#181818;stroke-width:1.0;"/><line style="stroke:#181818;stroke-width:1.0;" x1="1125.9535" x2="1125.9535" y1="478.6582" y2="483.6582"/><line style="stroke:#181818;stroke-width:1.0;" x1="1125.9535" x2="233.2505" y1="483.6582" y2="483.6582"/><line style="stroke:#181818;stroke-width:1.0;" x1="233.2505" x2="233.2505" y1="483.6582" y2="498.6582"/><polygon fill="#181818" points="229.2505,488.6582,233.2505,498.6582,237.2505,488.6582,233.2505,492.6582" style="stroke:#181818;stroke-width:1.0;"/><line style="stroke:#181818;stroke-width:1.0;" x1="233.2505" x2="233.2505" y1="588.8457" y2="593.8457"/><line style="stroke:#181818;stroke-width:1.0;" x1="233.2505" x2="1125.9535" y1="593.8457" y2="593.8457"/><line style="stroke:#181818;stroke-width:1.0;" x1="1125.9535" x2="1125.9535" y1="593.8457" y2="608.8457"/><polygon fill="#181818" points="1121.9535,598.8457,1125.9535,608.8457,1129.9535,598.8457,1125.9535,602.8457" style="stroke:#181818;stroke-width:1.0;"/><line style="stroke:#181818;stroke-width:1.0;" x1="1125.9535" x2="1125.9535" y1="813.0254" y2="818.0254"/><line style="stroke:#181818;stroke-width:1.0;" x1="1125.9535" x2="233.2505" y1="818.0254" y2="818.0254"/><line style="stroke:#181818;stroke-width:1.0;" x1="233.2505" x2="233.2505" y1="818.0254" y2="833.0254"/><polygon fill="#181818" points="229.2505,823.0254,233.2505,833.0254,237.2505,823.0254,233.2505,827.0254" style="stroke:#181818;stroke-width:1.0;"/><line style="stroke:#181818;stroke-width:1.0;" x1="102.042" x2="102.042" y1="967.2129" y2="972.2129"/><line style="stroke:#181818;stroke-width:1.0;" x1="102.042" x2="994.745" y1="972.2129" y2="972.2129"/><line style="stroke:#181818;stroke-width:1.0;" x1="994.745" x2="994.745" y1="972.2129" y2="987.2129"/><polygon fill="#181818" points="990.745,977.2129,994.745,987.2129,998.745,977.2129,994.745,981.2129" style="stroke:#181818;stroke-width:1.0;"/><line style="stroke:#181818;stroke-width:1.0;" x1="364.459" x2="364.459" y1="967.2129" y2="972.2129"/><line style="stroke:#181818;stroke-width:1.0;" x1="364.459" x2="1257.162" y1="972.2129" y2="972.2129"/><line style="stroke:#181818;stroke-width:1.0;" x1="1257.162" x2="1257.162" y1="972.2129" y2="987.2129"/><polygon fill="#181818" points="1253.162,977.2129,1257.162,987.2129,1261.162,977.2129,1257.162,981.2129" style="stroke:#181818;stroke-width:1.0;"/><line style="stroke:#181818;stroke-width:1.0;" x1="994.745" x2="994.745" y1="1350.5996" y2="1354.5996"/><line style="stroke:#181818;stroke-width:1.0;" x1="994.745" x2="203.2505" y1="1354.5996" y2="1354.5996"/><line style="stroke:#181818;stroke-width:1.0;" x1="203.2505" x2="203.2505" y1="1354.5996" y2="1372.5996"/><line style="stroke:#181818;stroke-width:1.0;" x1="203.2505" x2="221.2505" y1="1372.5996" y2="1372.5996"/><polygon fill="#181818" points="211.2505,1368.5996,221.2505,1372.5996,211.2505,1376.5996,215.2505,1372.5996" style="stroke:#181818;stroke-width:1.0;"/><line style="stroke:#181818;stroke-width:1.0;" x1="1257.162" x2="1257.162" y1="1132.4941" y2="1372.5996"/><line style="stroke:#181818;stroke-width:1.0;" x1="1257.162" x2="245.2505" y1="1372.5996" y2="1372.5996"/><polygon fill="#181818" points="255.2505,1368.5996,245.2505,1372.5996,255.2505,1376.5996,251.2505,1372.5996" style="stroke:#181818;stroke-width:1.0;"/><line style="stroke:#181818;stroke-width:1.0;" x1="1554.368" x2="1554.368" y1="533.752" y2="538.752"/><line style="stroke:#181818;stroke-width:1.0;" x1="1554.368" x2="661.665" y1="538.752" y2="538.752"/><line style="stroke:#181818;stroke-width:1.0;" x1="661.665" x2="661.665" y1="538.752" y2="553.752"/><polygon fill="#181818" points="657.665,543.752,661.665,553.752,665.665,543.752,661.665,547.752" style="stroke:#181818;stroke-width:1.0;"/><line style="stroke:#181818;stroke-width:1.0;" x1="233.2505" x2="233.2505" y1="1384.5996" y2="1406.5996"/><line style="stroke:#181818;stroke-width:1.0;" x1="233.2505" x2="1328.1608" y1="1406.5996" y2="1406.5996"/><polygon fill="#181818" points="1318.1608,1402.5996,1328.1608,1406.5996,1318.1608,1410.5996,1322.1608,1406.5996" style="stroke:#181818;stroke-width:1.0;"/><line style="stroke:#181818;stroke-width:1.0;" x1="661.665" x2="661.665" y1="588.8457" y2="1388.5996"/><line style="stroke:#181818;stroke-width:1.0;" x1="661.665" x2="1370.1608" y1="1388.5996" y2="1388.5996"/><line style="stroke:#181818;stroke-width:1.0;" x1="1370.1608" x2="1370.1608" y1="1388.5996" y2="1406.5996"/><line style="stroke:#181818;stroke-width:1.0;" x1="1370.1608" x2="1352.1608" y1="1406.5996" y2="1406.5996"/><polygon fill="#181818" points="1362.1608,1402.5996,1352.1608,1406.5996,1362.1608,1410.5996,1358.1608,1406.5996" style="stroke:#181818;stroke-width:1.0;"/><line style="stroke:#181818;stroke-width:1.0;" x1="1340.1608" x2="1340.1608" y1="1418.5996" y2="1422.5996"/><line style="stroke:#181818;stroke-width:1.0;" x1="1340.1608" x2="626.9432" y1="1422.5996" y2="1422.5996"/><line style="stroke:#181818;stroke-width:1.0;" x1="626.9432" x2="626.9432" y1="1422.5996" y2="1440.5996"/><line style="stroke:#181818;stroke-width:1.0;" x1="626.9432" x2="644.9432" y1="1440.5996" y2="1440.5996"/><polygon fill="#181818" points="634.9432,1436.5996,644.9432,1440.5996,634.9432,1444.5996,638.9432,1440.5996" style="stroke:#181818;stroke-width:1.0;"/><text fill="#000000" font-family="sans-serif" font-size="18" lengthAdjust="spacing" textLength="70.0313" x="409.9999" y="31.1406">Produksi</text><text fill="#000000" font-family="sans-serif" font-size="18" lengthAdjust="spacing" textLength="55.0107" x="1252.2328" y="31.1406">Sistem</text><!--SRC=[ZLNBRkCm3BpxAtYCVo4-B5haLXGeaDt37fcAiLd9iY792ooGZozbn_ApGNpmI-HmXgIesuThLASztp8Vq8Ni-4xrfTC85HgiqSAB3OxbEHeMqSHmXG4KNiK7shIIyHKEBmhJBwZ9ThOikryvX8ei7FvYde5SCGuBp6Jw7sq9g2MKuhepA7YZ8JdM7a5HG3QpU76zlztEx0FLjxM7fa3Eas8Ks0jM_LrtCy_8-3Kjm6UdktP3zevgiMxPH8QwiLTsDKQ54zK4sbEQCZk3k6icJUuB1yd2qF05Gx48LQv3h6GlOytb9uJE2Jo33utUQ8-NRGA1ux8AwHV0n-WOpSafzEX4ySn2DtNRUFOZexH4LlMO2nQV6AHJJ5C2stzaG-Dc0ev_MeL2GbelTFuOUyoJdws_iUCwWlALTKp5OSpgs2Jvqwat8ZxMhks3F4fdx8aKnvCXZxpR4walh9eLQ7Gf5dQBZqt1fWwJIWqb6-3W2zKAQPsryrwuHwcxyyiV48mfEA4JKM8f-dwKloK4GTh7emGwmWbRgVw9HHQROkku8Qa9tkJfbhPaFC7XpDZ2gyoU9GDfExxkAndyJd5tOTotIyUTDXbtwUYmqoNFrxACE8OZp8zxSA-U4z_dIwecZKMsdvbioiXlLgZpn-CZpRfMPgcCWv0cQ8ZUmwGizbtk1yDWtWyvtS-Kf_Ug71gpKsHmczHa6nN7_XrGdB1t68pbJ6lQx1i0]--></g></svg>