<svg xmlns="http://www.w3.org/2000/svg" xmlns:xlink="http://www.w3.org/1999/xlink" contentStyleType="text/css" height="1164px" preserveAspectRatio="none" style="width:2953px;height:1164px;background:#FFFFFF;" version="1.1" viewBox="0 0 2953 1164" width="2953px" zoomAndPan="magnify"><defs/><g><rect fill="none" height="22.6406" style="stroke:none;stroke-width:1.0;" width="2920.835" x="15" y="12.4551"/><ellipse cx="848.5176" cy="50.0957" fill="#222222" rx="10" ry="10" style="stroke:#222222;stroke-width:1.0;"/><rect fill="#F1F1F1" height="35.0938" rx="12.5" ry="12.5" style="stroke:#181818;stroke-width:0.5;" width="190.7715" x="753.1318" y="80.0957"/><text fill="#000000" font-family="sans-serif" font-size="12" lengthAdjust="spacing" textLength="170.7715" x="763.1318" y="102.5527">Membuka halaman Bahan Baku</text><polygon fill="#F1F1F1" points="149.6191,135.1895,176.5176,135.1895,188.5176,147.1895,176.5176,159.1895,149.6191,159.1895,137.6191,147.1895,149.6191,135.1895" style="stroke:#181818;stroke-width:0.5;"/><text fill="#000000" font-family="sans-serif" font-size="11" lengthAdjust="spacing" textLength="40.353" x="167.0684" y="170.6084">Tambah</text><text fill="#000000" font-family="sans-serif" font-size="11" lengthAdjust="spacing" textLength="26.8984" x="149.6191" y="151.6904">Aksi?</text><rect fill="#F1F1F1" height="35.0938" rx="12.5" ry="12.5" style="stroke:#181818;stroke-width:0.5;" width="164.0762" x="81.0303" y="192.1084"/><text fill="#000000" font-family="sans-serif" font-size="12" lengthAdjust="spacing" textLength="144.0762" x="91.0303" y="214.5654">Klik tombol Tambah Bahan</text><path d="M260.4395,247.2021 L260.4395,297.2568 L240.4395,301.2568 L260.4395,305.2568 L260.4395,355.3115 A0,0 0 0 0 260.4395,355.3115 L377.562,355.3115 A0,0 0 0 0 377.562,355.3115 L377.562,257.2021 L367.562,247.2021 L260.4395,247.2021 A0,0 0 0 0 260.4395,247.2021 " fill="#FEFFDD" style="stroke:#181818;stroke-width:0.5;"/><path d="M367.562,247.2021 L367.562,257.2021 L377.562,257.2021 L367.562,247.2021 " fill="#FEFFDD" style="stroke:#181818;stroke-width:0.5;"/><text fill="#000000" font-family="sans-serif" font-size="13" lengthAdjust="spacing" textLength="70.8335" x="266.4395" y="265.6973">Data bahan:</text><text fill="#000000" font-family="sans-serif" font-size="13" lengthAdjust="spacing" textLength="82.3799" x="266.4395" y="282.0488">- Nama bahan</text><text fill="#000000" font-family="sans-serif" font-size="13" lengthAdjust="spacing" textLength="96.1226" x="266.4395" y="298.4004">- Kategori bahan</text><text fill="#000000" font-family="sans-serif" font-size="13" lengthAdjust="spacing" textLength="90.2891" x="266.4395" y="314.752">- Stok minimum</text><text fill="#000000" font-family="sans-serif" font-size="13" lengthAdjust="spacing" textLength="61.3945" x="266.4395" y="331.1035">- Deskripsi</text><text fill="#000000" font-family="sans-serif" font-size="13" lengthAdjust="spacing" textLength="72.249" x="266.4395" y="347.4551">- Status aktif</text><rect fill="#F1F1F1" height="35.0938" rx="12.5" ry="12.5" style="stroke:#181818;stroke-width:0.5;" width="154.7422" x="85.6973" y="283.71"/><text fill="#000000" font-family="sans-serif" font-size="12" lengthAdjust="spacing" textLength="134.7422" x="95.6973" y="306.167">Mengisi form bahan baku</text><rect fill="#F1F1F1" height="35.0938" rx="12.5" ry="12.5" style="stroke:#181818;stroke-width:0.5;" width="162.1133" x="82.0117" y="390.3115"/><text fill="#000000" font-family="sans-serif" font-size="12" lengthAdjust="spacing" textLength="142.1133" x="92.0117" y="412.7686">Menentukan satuan bahan</text><rect fill="#F1F1F1" height="35.0938" rx="12.5" ry="12.5" style="stroke:#181818;stroke-width:0.5;" width="112.7129" x="106.7119" y="522.2412"/><text fill="#000000" font-family="sans-serif" font-size="12" lengthAdjust="spacing" textLength="92.7129" x="116.7119" y="544.6982">Pilih satuan (unit)</text><rect fill="#F1F1F1" height="35.0938" rx="12.5" ry="12.5" style="stroke:#181818;stroke-width:0.5;" width="159.4063" x="83.3652" y="592.335"/><text fill="#000000" font-family="sans-serif" font-size="12" lengthAdjust="spacing" textLength="139.4063" x="93.3652" y="614.792">Masukkan kuantitas dasar</text><rect fill="#F1F1F1" height="35.0938" rx="12.5" ry="12.5" style="stroke:#181818;stroke-width:0.5;" width="234.1367" x="46" y="662.4287"/><text fill="#000000" font-family="sans-serif" font-size="12" lengthAdjust="spacing" textLength="214.1367" x="56" y="684.8857">Tandai sebagai satuan utama (opsional)</text><polygon fill="#F1F1F1" points="111.7019,460.4053,214.4348,460.4053,226.4348,472.4053,214.4348,484.4053,111.7019,484.4053,99.7019,472.4053,111.7019,460.4053" style="stroke:#181818;stroke-width:0.5;"/><text fill="#000000" font-family="sans-serif" font-size="11" lengthAdjust="spacing" textLength="13.4546" x="167.0684" y="495.8242">Ya</text><text fill="#000000" font-family="sans-serif" font-size="11" lengthAdjust="spacing" textLength="102.7329" x="111.7019" y="476.9063">Tambah satuan lagi?</text><text fill="#000000" font-family="sans-serif" font-size="11" lengthAdjust="spacing" textLength="26.8984" x="72.8035" y="469.9883">Tidak</text><rect fill="#F1F1F1" height="35.0938" rx="12.5" ry="12.5" style="stroke:#181818;stroke-width:0.5;" width="148.0859" x="89.0254" y="756.5225"/><text fill="#000000" font-family="sans-serif" font-size="12" lengthAdjust="spacing" textLength="128.0859" x="99.0254" y="778.9795">Menyimpan bahan baku</text><polygon fill="#F1F1F1" points="468.4995,135.1895,495.3979,135.1895,507.3979,147.1895,495.3979,159.1895,468.4995,159.1895,456.4995,147.1895,468.4995,135.1895" style="stroke:#181818;stroke-width:0.5;"/><text fill="#000000" font-family="sans-serif" font-size="11" lengthAdjust="spacing" textLength="18.9546" x="485.9487" y="170.6084">Edit</text><text fill="#000000" font-family="sans-serif" font-size="11" lengthAdjust="spacing" textLength="26.8984" x="468.4995" y="151.6904">Aksi?</text><rect fill="#F1F1F1" height="35.0938" rx="12.5" ry="12.5" style="stroke:#181818;stroke-width:0.5;" width="188.7734" x="387.562" y="192.1084"/><text fill="#000000" font-family="sans-serif" font-size="12" lengthAdjust="spacing" textLength="168.7734" x="397.562" y="214.5654">Memilih bahan yang akan diedit</text><rect fill="#F1F1F1" height="35.0938" rx="12.5" ry="12.5" style="stroke:#181818;stroke-width:0.5;" width="140.1055" x="411.896" y="247.2021"/><text fill="#000000" font-family="sans-serif" font-size="12" lengthAdjust="spacing" textLength="120.1055" x="421.896" y="269.6592">Mengubah data bahan</text><rect fill="#F1F1F1" height="35.0938" rx="12.5" ry="12.5" style="stroke:#181818;stroke-width:0.5;" width="142.748" x="410.5747" y="317.2959"/><text fill="#000000" font-family="sans-serif" font-size="12" lengthAdjust="spacing" textLength="122.748" x="420.5747" y="339.7529">Menyimpan perubahan</text><polygon fill="#F1F1F1" points="685.9399,135.1895,712.8384,135.1895,724.8384,147.1895,712.8384,159.1895,685.9399,159.1895,673.9399,147.1895,685.9399,135.1895" style="stroke:#181818;stroke-width:0.5;"/><text fill="#000000" font-family="sans-serif" font-size="11" lengthAdjust="spacing" textLength="55.0376" x="703.3892" y="170.6084">Lihat Batch</text><text fill="#000000" font-family="sans-serif" font-size="11" lengthAdjust="spacing" textLength="26.8984" x="685.9399" y="151.6904">Aksi?</text><rect fill="#F1F1F1" height="35.0938" rx="12.5" ry="12.5" style="stroke:#181818;stroke-width:0.5;" width="127.3965" x="635.6909" y="192.1084"/><text fill="#000000" font-family="sans-serif" font-size="12" lengthAdjust="spacing" textLength="107.3965" x="645.6909" y="214.5654">Memilih bahan baku</text><rect fill="#F1F1F1" height="35.0938" rx="12.5" ry="12.5" style="stroke:#181818;stroke-width:0.5;" width="198.1074" x="600.3354" y="422.8779"/><text fill="#000000" font-family="sans-serif" font-size="12" lengthAdjust="spacing" textLength="178.1074" x="610.3354" y="445.335">Memilih batch yang akan dihapus</text><rect fill="#F1F1F1" height="35.0938" rx="12.5" ry="12.5" style="stroke:#181818;stroke-width:0.5;" width="152.7559" x="623.0112" y="492.9717"/><text fill="#000000" font-family="sans-serif" font-size="12" lengthAdjust="spacing" textLength="132.7559" x="633.0112" y="515.4287">Konfirmasi penghapusan</text><polygon fill="#F1F1F1" points="665.4492,373.96,733.3291,373.96,745.3291,385.96,733.3291,397.96,665.4492,397.96,653.4492,385.96,665.4492,373.96" style="stroke:#181818;stroke-width:0.5;"/><text fill="#000000" font-family="sans-serif" font-size="11" lengthAdjust="spacing" textLength="13.4546" x="703.3892" y="409.3789">Ya</text><text fill="#000000" font-family="sans-serif" font-size="11" lengthAdjust="spacing" textLength="67.8799" x="665.4492" y="390.4609">Hapus batch?</text><text fill="#000000" font-family="sans-serif" font-size="11" lengthAdjust="spacing" textLength="26.8984" x="626.5508" y="383.543">Tidak</text><polygon fill="#F1F1F1" points="699.3892,763.2646,711.3892,775.2646,699.3892,787.2646,687.3892,775.2646,699.3892,763.2646" style="stroke:#181818;stroke-width:0.5;"/><polygon fill="#F1F1F1" points="1004.1523,135.1895,1031.0508,135.1895,1043.0508,147.1895,1031.0508,159.1895,1004.1523,159.1895,992.1523,147.1895,1004.1523,135.1895" style="stroke:#181818;stroke-width:0.5;"/><text fill="#000000" font-family="sans-serif" font-size="11" lengthAdjust="spacing" textLength="46.4707" x="1021.6016" y="170.6084">Lihat Alur</text><text fill="#000000" font-family="sans-serif" font-size="11" lengthAdjust="spacing" textLength="26.8984" x="1004.1523" y="151.6904">Aksi?</text><text fill="#000000" font-family="sans-serif" font-size="11" lengthAdjust="spacing" textLength="31.7969" x="1043.0508" y="144.7725">Hapus</text><rect fill="#F1F1F1" height="35.0938" rx="12.5" ry="12.5" style="stroke:#181818;stroke-width:0.5;" width="127.3965" x="953.9033" y="192.1084"/><text fill="#000000" font-family="sans-serif" font-size="12" lengthAdjust="spacing" textLength="107.3965" x="963.9033" y="214.5654">Memilih bahan baku</text><rect fill="#F1F1F1" height="35.0938" rx="12.5" ry="12.5" style="stroke:#181818;stroke-width:0.5;" width="202.1211" x="1091.2998" y="462.8975"/><text fill="#000000" font-family="sans-serif" font-size="12" lengthAdjust="spacing" textLength="182.1211" x="1101.2998" y="485.3545">Memilih bahan yang akan dihapus</text><rect fill="#F1F1F1" height="35.0938" rx="12.5" ry="12.5" style="stroke:#181818;stroke-width:0.5;" width="152.7559" x="1115.9824" y="532.9912"/><text fill="#000000" font-family="sans-serif" font-size="12" lengthAdjust="spacing" textLength="132.7559" x="1125.9824" y="555.4482">Konfirmasi penghapusan</text><line style="stroke:#000000;stroke-width:1.5;" x1="15" x2="15" y1="12.4551" y2="1152.9912"/><rect fill="#F1F1F1" height="35.0938" rx="12.5" ry="12.5" style="stroke:#181818;stroke-width:0.5;" width="125.416" x="1435.7881" y="826.6162"/><text fill="#000000" font-family="sans-serif" font-size="12" lengthAdjust="spacing" textLength="105.416" x="1445.7881" y="849.0732">Validasi data bahan</text><polygon fill="#F1F1F1" points="1470.98,881.71,1526.0122,881.71,1538.0122,893.71,1526.0122,905.71,1470.98,905.71,1458.98,893.71,1470.98,881.71" style="stroke:#181818;stroke-width:0.5;"/><text fill="#000000" font-family="sans-serif" font-size="11" lengthAdjust="spacing" textLength="55.0322" x="1470.98" y="898.2109">Data valid?</text><text fill="#000000" font-family="sans-serif" font-size="11" lengthAdjust="spacing" textLength="13.4546" x="1445.5254" y="891.293">Ya</text><text fill="#000000" font-family="sans-serif" font-size="11" lengthAdjust="spacing" textLength="26.8984" x="1538.0122" y="891.293">Tidak</text><rect fill="#F1F1F1" height="35.0938" rx="12.5" ry="12.5" style="stroke:#181818;stroke-width:0.5;" width="150.7461" x="1332.0869" y="915.71"/><text fill="#000000" font-family="sans-serif" font-size="12" lengthAdjust="spacing" textLength="130.7461" x="1342.0869" y="938.167">Menyimpan ke database</text><rect fill="#F1F1F1" height="35.0938" rx="12.5" ry="12.5" style="stroke:#181818;stroke-width:0.5;" width="120.7285" x="1347.0957" y="970.8037"/><text fill="#000000" font-family="sans-serif" font-size="12" lengthAdjust="spacing" textLength="100.7285" x="1357.0957" y="993.2607">Set status: Kosong</text><rect fill="#F1F1F1" height="35.0938" rx="12.5" ry="12.5" style="stroke:#181818;stroke-width:0.5;" width="168.0781" x="1323.4209" y="1025.8975"/><text fill="#000000" font-family="sans-serif" font-size="12" lengthAdjust="spacing" textLength="148.0781" x="1333.4209" y="1048.3545">Menampilkan pesan sukses</text><rect fill="#F1F1F1" height="35.0938" rx="12.5" ry="12.5" style="stroke:#181818;stroke-width:0.5;" width="156.0664" x="1511.499" y="915.71"/><text fill="#000000" font-family="sans-serif" font-size="12" lengthAdjust="spacing" textLength="136.0664" x="1521.499" y="938.167">Menampilkan pesan error</text><polygon fill="#F1F1F1" points="1498.4961,1066.9912,1510.4961,1078.9912,1498.4961,1090.9912,1486.4961,1078.9912,1498.4961,1066.9912" style="stroke:#181818;stroke-width:0.5;"/><rect fill="#F1F1F1" height="35.0938" rx="12.5" ry="12.5" style="stroke:#181818;stroke-width:0.5;" width="88.7129" x="1717.248" y="387.3896"/><text fill="#000000" font-family="sans-serif" font-size="12" lengthAdjust="spacing" textLength="68.7129" x="1727.248" y="409.8467">Validasi data</text><rect fill="#F1F1F1" height="35.0938" rx="12.5" ry="12.5" style="stroke:#181818;stroke-width:0.5;" width="122.0879" x="1700.5605" y="457.4834"/><text fill="#000000" font-family="sans-serif" font-size="12" lengthAdjust="spacing" textLength="102.0879" x="1710.5605" y="479.9404">Update data bahan</text><rect fill="#F1F1F1" height="35.0938" rx="12.5" ry="12.5" style="stroke:#181818;stroke-width:0.5;" width="168.0781" x="1677.5654" y="527.5771"/><text fill="#000000" font-family="sans-serif" font-size="12" lengthAdjust="spacing" textLength="148.0781" x="1687.5654" y="550.0342">Menampilkan pesan sukses</text><path d="M2033.7197,247.2021 L2033.7197,289.0811 L2013.7197,293.0811 L2033.7197,297.0811 L2033.7197,338.96 A0,0 0 0 0 2033.7197,338.96 L2158.7642,338.96 A0,0 0 0 0 2158.7642,338.96 L2158.7642,257.2021 L2148.7642,247.2021 L2033.7197,247.2021 A0,0 0 0 0 2033.7197,247.2021 " fill="#FEFFDD" style="stroke:#181818;stroke-width:0.5;"/><path d="M2148.7642,247.2021 L2148.7642,257.2021 L2158.7642,257.2021 L2148.7642,247.2021 " fill="#FEFFDD" style="stroke:#181818;stroke-width:0.5;"/><text fill="#000000" font-family="sans-serif" font-size="13" lengthAdjust="spacing" textLength="102.5845" x="2039.7197" y="265.6973">Info batch (FIFO):</text><text fill="#000000" font-family="sans-serif" font-size="13" lengthAdjust="spacing" textLength="96.8208" x="2039.7197" y="282.0488">- Tanggal masuk</text><text fill="#000000" font-family="sans-serif" font-size="13" lengthAdjust="spacing" textLength="104.0444" x="2039.7197" y="298.4004">- Kuantitas tersisa</text><text fill="#000000" font-family="sans-serif" font-size="13" lengthAdjust="spacing" textLength="101.1689" x="2039.7197" y="314.752">- Tanggal expired</text><text fill="#000000" font-family="sans-serif" font-size="13" lengthAdjust="spacing" textLength="67.1963" x="2039.7197" y="331.1035">- Harga beli</text><rect fill="#F1F1F1" height="35.0938" rx="12.5" ry="12.5" style="stroke:#181818;stroke-width:0.5;" width="158.0762" x="1855.6436" y="275.5342"/><text fill="#000000" font-family="sans-serif" font-size="12" lengthAdjust="spacing" textLength="138.0762" x="1865.6436" y="297.9912">Menampilkan daftar batch</text><rect fill="#F1F1F1" height="35.0938" rx="12.5" ry="12.5" style="stroke:#181818;stroke-width:0.5;" width="115.4023" x="1876.9805" y="563.0654"/><text fill="#000000" font-family="sans-serif" font-size="12" lengthAdjust="spacing" textLength="95.4023" x="1886.9805" y="585.5225">Menghapus batch</text><rect fill="#F1F1F1" height="35.0938" rx="12.5" ry="12.5" style="stroke:#181818;stroke-width:0.5;" width="146.7559" x="1861.3037" y="633.1592"/><text fill="#000000" font-family="sans-serif" font-size="12" lengthAdjust="spacing" textLength="126.7559" x="1871.3037" y="655.6162">Update total stok bahan</text><rect fill="#F1F1F1" height="35.0938" rx="12.5" ry="12.5" style="stroke:#181818;stroke-width:0.5;" width="116.7207" x="1876.3213" y="703.2529"/><text fill="#000000" font-family="sans-serif" font-size="12" lengthAdjust="spacing" textLength="96.7207" x="1886.3213" y="725.71">Catat log inventori</text><path d="M2410.8599,247.2021 L2410.8599,289.0811 L2390.8599,293.0811 L2410.8599,297.0811 L2410.8599,338.96 A0,0 0 0 0 2410.8599,338.96 L2564.8052,338.96 A0,0 0 0 0 2564.8052,338.96 L2564.8052,257.2021 L2554.8052,247.2021 L2410.8599,247.2021 A0,0 0 0 0 2410.8599,247.2021 " fill="#FEFFDD" style="stroke:#181818;stroke-width:0.5;"/><path d="M2554.8052,247.2021 L2554.8052,257.2021 L2564.8052,257.2021 L2554.8052,247.2021 " fill="#FEFFDD" style="stroke:#181818;stroke-width:0.5;"/><text fill="#000000" font-family="sans-serif" font-size="13" lengthAdjust="spacing" textLength="78.0508" x="2416.8599" y="265.6973">Log inventori:</text><text fill="#000000" font-family="sans-serif" font-size="13" lengthAdjust="spacing" textLength="125.7153" x="2416.8599" y="282.0488">- Masuk (dari belanja)</text><text fill="#000000" font-family="sans-serif" font-size="13" lengthAdjust="spacing" textLength="106.9263" x="2416.8599" y="298.4004">- Keluar (produksi)</text><text fill="#000000" font-family="sans-serif" font-size="13" lengthAdjust="spacing" textLength="132.9453" x="2416.8599" y="314.752">- Rusak/Hilang (hitung)</text><text fill="#000000" font-family="sans-serif" font-size="13" lengthAdjust="spacing" textLength="83.1099" x="2416.8599" y="331.1035">- Penyesuaian</text><rect fill="#F1F1F1" height="35.0938" rx="12.5" ry="12.5" style="stroke:#181818;stroke-width:0.5;" width="222.0957" x="2168.7642" y="275.5342"/><text fill="#000000" font-family="sans-serif" font-size="12" lengthAdjust="spacing" textLength="202.0957" x="2178.7642" y="297.9912">Menampilkan riwayat pergerakan stok</text><polygon fill="#F1F1F1" points="2692.0439,603.085,2832.1006,603.085,2844.1006,615.085,2832.1006,627.085,2692.0439,627.085,2680.0439,615.085,2692.0439,603.085" style="stroke:#181818;stroke-width:0.5;"/><text fill="#000000" font-family="sans-serif" font-size="11" lengthAdjust="spacing" textLength="140.0566" x="2692.0439" y="619.5859">Bahan digunakan di produk?</text><text fill="#000000" font-family="sans-serif" font-size="11" lengthAdjust="spacing" textLength="13.4546" x="2666.5894" y="612.668">Ya</text><text fill="#000000" font-family="sans-serif" font-size="11" lengthAdjust="spacing" textLength="26.8984" x="2844.1006" y="612.668">Tidak</text><rect fill="#F1F1F1" height="35.0938" rx="12.5" ry="12.5" style="stroke:#181818;stroke-width:0.5;" width="151.4141" x="2592.4829" y="637.085"/><text fill="#000000" font-family="sans-serif" font-size="12" lengthAdjust="spacing" textLength="131.4141" x="2602.4829" y="659.542">Menampilkan peringatan</text><rect fill="#F1F1F1" height="35.0938" rx="12.5" ry="12.5" style="stroke:#181818;stroke-width:0.5;" width="186.7695" x="2574.8052" y="707.1787"/><text fill="#000000" font-family="sans-serif" font-size="12" lengthAdjust="spacing" textLength="166.7695" x="2584.8052" y="729.6357">Nonaktifkan bahan (soft delete)</text><rect fill="#F1F1F1" height="35.0938" rx="12.5" ry="12.5" style="stroke:#181818;stroke-width:0.5;" width="148.7598" x="2781.5747" y="637.085"/><text fill="#000000" font-family="sans-serif" font-size="12" lengthAdjust="spacing" textLength="128.7598" x="2791.5747" y="659.542">Hapus bahan permanen</text><polygon fill="#F1F1F1" points="2762.0723,748.2725,2774.0723,760.2725,2762.0723,772.2725,2750.0723,760.2725,2762.0723,748.2725" style="stroke:#181818;stroke-width:0.5;"/><rect fill="#F1F1F1" height="35.0938" rx="12.5" ry="12.5" style="stroke:#181818;stroke-width:0.5;" width="168.0781" x="2678.0332" y="807.2725"/><text fill="#000000" font-family="sans-serif" font-size="12" lengthAdjust="spacing" textLength="148.0781" x="2688.0332" y="829.7295">Menampilkan pesan sukses</text><ellipse cx="2083.8101" cy="1141.9912" fill="none" rx="11" ry="11" style="stroke:#222222;stroke-width:1.0;"/><ellipse cx="2083.8101" cy="1141.9912" fill="#222222" rx="6" ry="6" style="stroke:#222222;stroke-width:1.0;"/><line style="stroke:#000000;stroke-width:1.5;" x1="1308.4209" x2="1308.4209" y1="12.4551" y2="1152.9912"/><line style="stroke:#000000;stroke-width:1.5;" x1="2934.3345" x2="2934.3345" y1="12.4551" y2="1152.9912"/><line style="stroke:#181818;stroke-width:1.0;" x1="848.5176" x2="848.5176" y1="60.0957" y2="80.0957"/><polygon fill="#181818" points="844.5176,70.0957,848.5176,80.0957,852.5176,70.0957,848.5176,74.0957" style="stroke:#181818;stroke-width:1.0;"/><line style="stroke:#181818;stroke-width:1.0;" x1="163.0684" x2="163.0684" y1="227.2021" y2="283.71"/><polygon fill="#181818" points="159.0684,273.71,163.0684,283.71,167.0684,273.71,163.0684,277.71" style="stroke:#181818;stroke-width:1.0;"/><line style="stroke:#181818;stroke-width:1.0;" x1="163.0684" x2="163.0684" y1="318.8037" y2="390.3115"/><polygon fill="#181818" points="159.0684,380.3115,163.0684,390.3115,167.0684,380.3115,163.0684,384.3115" style="stroke:#181818;stroke-width:1.0;"/><line style="stroke:#181818;stroke-width:1.0;" x1="163.0684" x2="163.0684" y1="557.335" y2="592.335"/><polygon fill="#181818" points="159.0684,582.335,163.0684,592.335,167.0684,582.335,163.0684,586.335" style="stroke:#181818;stroke-width:1.0;"/><line style="stroke:#181818;stroke-width:1.0;" x1="163.0684" x2="163.0684" y1="627.4287" y2="662.4287"/><polygon fill="#181818" points="159.0684,652.4287,163.0684,662.4287,167.0684,652.4287,163.0684,656.4287" style="stroke:#181818;stroke-width:1.0;"/><line style="stroke:#181818;stroke-width:1.0;" x1="163.0684" x2="163.0684" y1="484.4053" y2="522.2412"/><polygon fill="#181818" points="159.0684,512.2412,163.0684,522.2412,167.0684,512.2412,163.0684,516.2412" style="stroke:#181818;stroke-width:1.0;"/><line style="stroke:#181818;stroke-width:1.0;" x1="163.0684" x2="163.0684" y1="697.5225" y2="709.5225"/><line style="stroke:#181818;stroke-width:1.0;" x1="163.0684" x2="292.1367" y1="709.5225" y2="709.5225"/><polygon fill="#181818" points="288.1367,600.9639,292.1367,590.9639,296.1367,600.9639,292.1367,596.9639" style="stroke:#181818;stroke-width:1.0;"/><line style="stroke:#181818;stroke-width:1.0;" x1="292.1367" x2="292.1367" y1="472.4053" y2="709.5225"/><line style="stroke:#181818;stroke-width:1.0;" x1="292.1367" x2="226.4348" y1="472.4053" y2="472.4053"/><polygon fill="#181818" points="236.4348,468.4053,226.4348,472.4053,236.4348,476.4053,232.4348,472.4053" style="stroke:#181818;stroke-width:1.0;"/><line style="stroke:#181818;stroke-width:1.0;" x1="99.7019" x2="34" y1="472.4053" y2="472.4053"/><polygon fill="#181818" points="30,586.9639,34,596.9639,38,586.9639,34,590.9639" style="stroke:#181818;stroke-width:1.0;"/><line style="stroke:#181818;stroke-width:1.0;" x1="34" x2="34" y1="472.4053" y2="721.5225"/><line style="stroke:#181818;stroke-width:1.0;" x1="34" x2="163.0684" y1="721.5225" y2="721.5225"/><line style="stroke:#181818;stroke-width:1.0;" x1="163.0684" x2="163.0684" y1="721.5225" y2="756.5225"/><polygon fill="#181818" points="159.0684,746.5225,163.0684,756.5225,167.0684,746.5225,163.0684,750.5225" style="stroke:#181818;stroke-width:1.0;"/><line style="stroke:#181818;stroke-width:1.0;" x1="163.0684" x2="163.0684" y1="425.4053" y2="460.4053"/><polygon fill="#181818" points="159.0684,450.4053,163.0684,460.4053,167.0684,450.4053,163.0684,454.4053" style="stroke:#181818;stroke-width:1.0;"/><line style="stroke:#181818;stroke-width:1.0;" x1="481.9487" x2="481.9487" y1="227.2021" y2="247.2021"/><polygon fill="#181818" points="477.9487,237.2021,481.9487,247.2021,485.9487,237.2021,481.9487,241.2021" style="stroke:#181818;stroke-width:1.0;"/><line style="stroke:#181818;stroke-width:1.0;" x1="481.9487" x2="481.9487" y1="282.2959" y2="317.2959"/><polygon fill="#181818" points="477.9487,307.2959,481.9487,317.2959,485.9487,307.2959,481.9487,311.2959" style="stroke:#181818;stroke-width:1.0;"/><line style="stroke:#181818;stroke-width:1.0;" x1="699.3892" x2="699.3892" y1="457.9717" y2="492.9717"/><polygon fill="#181818" points="695.3892,482.9717,699.3892,492.9717,703.3892,482.9717,699.3892,486.9717" style="stroke:#181818;stroke-width:1.0;"/><line style="stroke:#181818;stroke-width:1.0;" x1="699.3892" x2="699.3892" y1="397.96" y2="422.8779"/><polygon fill="#181818" points="695.3892,412.8779,699.3892,422.8779,703.3892,412.8779,699.3892,416.8779" style="stroke:#181818;stroke-width:1.0;"/><line style="stroke:#181818;stroke-width:1.0;" x1="653.4492" x2="590.3354" y1="385.96" y2="385.96"/><polygon fill="#181818" points="586.3354,570.6123,590.3354,580.6123,594.3354,570.6123,590.3354,574.6123" style="stroke:#181818;stroke-width:1.0;"/><line style="stroke:#181818;stroke-width:1.0;" x1="590.3354" x2="590.3354" y1="385.96" y2="775.2646"/><line style="stroke:#181818;stroke-width:1.0;" x1="590.3354" x2="687.3892" y1="775.2646" y2="775.2646"/><polygon fill="#181818" points="677.3892,771.2646,687.3892,775.2646,677.3892,779.2646,681.3892,775.2646" style="stroke:#181818;stroke-width:1.0;"/><line style="stroke:#181818;stroke-width:1.0;" x1="1192.3604" x2="1192.3604" y1="497.9912" y2="532.9912"/><polygon fill="#181818" points="1188.3604,522.9912,1192.3604,532.9912,1196.3604,522.9912,1192.3604,526.9912" style="stroke:#181818;stroke-width:1.0;"/><line style="stroke:#181818;stroke-width:1.0;" x1="163.0684" x2="163.0684" y1="159.1895" y2="192.1084"/><polygon fill="#181818" points="159.0684,182.1084,163.0684,192.1084,167.0684,182.1084,163.0684,186.1084" style="stroke:#181818;stroke-width:1.0;"/><line style="stroke:#181818;stroke-width:1.0;" x1="481.9487" x2="481.9487" y1="159.1895" y2="192.1084"/><polygon fill="#181818" points="477.9487,182.1084,481.9487,192.1084,485.9487,182.1084,481.9487,186.1084" style="stroke:#181818;stroke-width:1.0;"/><line style="stroke:#181818;stroke-width:1.0;" x1="699.3892" x2="699.3892" y1="159.1895" y2="192.1084"/><polygon fill="#181818" points="695.3892,182.1084,699.3892,192.1084,703.3892,182.1084,699.3892,186.1084" style="stroke:#181818;stroke-width:1.0;"/><line style="stroke:#181818;stroke-width:1.0;" x1="699.3892" x2="699.3892" y1="787.2646" y2="1110.9912"/><polygon fill="#181818" points="695.3892,1100.9912,699.3892,1110.9912,703.3892,1100.9912,699.3892,1104.9912" style="stroke:#181818;stroke-width:1.0;"/><line style="stroke:#181818;stroke-width:1.0;" x1="1017.6016" x2="1017.6016" y1="159.1895" y2="192.1084"/><polygon fill="#181818" points="1013.6016,182.1084,1017.6016,192.1084,1021.6016,182.1084,1017.6016,186.1084" style="stroke:#181818;stroke-width:1.0;"/><line style="stroke:#181818;stroke-width:1.0;" x1="188.5176" x2="456.4995" y1="147.1895" y2="147.1895"/><polygon fill="#181818" points="446.4995,143.1895,456.4995,147.1895,446.4995,151.1895,450.4995,147.1895" style="stroke:#181818;stroke-width:1.0;"/><line style="stroke:#181818;stroke-width:1.0;" x1="507.3979" x2="673.9399" y1="147.1895" y2="147.1895"/><polygon fill="#181818" points="663.9399,143.1895,673.9399,147.1895,663.9399,151.1895,667.9399,147.1895" style="stroke:#181818;stroke-width:1.0;"/><line style="stroke:#181818;stroke-width:1.0;" x1="724.8384" x2="992.1523" y1="147.1895" y2="147.1895"/><polygon fill="#181818" points="982.1523,143.1895,992.1523,147.1895,982.1523,151.1895,986.1523,147.1895" style="stroke:#181818;stroke-width:1.0;"/><line style="stroke:#181818;stroke-width:1.0;" x1="848.5176" x2="848.5176" y1="115.1895" y2="120.1895"/><line style="stroke:#181818;stroke-width:1.0;" x1="848.5176" x2="163.0684" y1="120.1895" y2="120.1895"/><line style="stroke:#181818;stroke-width:1.0;" x1="163.0684" x2="163.0684" y1="120.1895" y2="135.1895"/><polygon fill="#181818" points="159.0684,125.1895,163.0684,135.1895,167.0684,125.1895,163.0684,129.1895" style="stroke:#181818;stroke-width:1.0;"/><line style="stroke:#181818;stroke-width:1.0;" x1="1043.0508" x2="1192.3604" y1="147.1895" y2="147.1895"/><line style="stroke:#181818;stroke-width:1.0;" x1="1192.3604" x2="1192.3604" y1="147.1895" y2="462.8975"/><polygon fill="#181818" points="1188.3604,452.8975,1192.3604,462.8975,1196.3604,452.8975,1192.3604,456.8975" style="stroke:#181818;stroke-width:1.0;"/><line style="stroke:#181818;stroke-width:1.0;" x1="699.3892" x2="1303.4209" y1="1110.9912" y2="1110.9912"/><line style="stroke:#181818;stroke-width:1.0;" x1="1407.46" x2="1407.46" y1="950.8037" y2="970.8037"/><polygon fill="#181818" points="1403.46,960.8037,1407.46,970.8037,1411.46,960.8037,1407.46,964.8037" style="stroke:#181818;stroke-width:1.0;"/><line style="stroke:#181818;stroke-width:1.0;" x1="1407.46" x2="1407.46" y1="1005.8975" y2="1025.8975"/><polygon fill="#181818" points="1403.46,1015.8975,1407.46,1025.8975,1411.46,1015.8975,1407.46,1019.8975" style="stroke:#181818;stroke-width:1.0;"/><line style="stroke:#181818;stroke-width:1.0;" x1="1458.98" x2="1407.46" y1="893.71" y2="893.71"/><line style="stroke:#181818;stroke-width:1.0;" x1="1407.46" x2="1407.46" y1="893.71" y2="915.71"/><polygon fill="#181818" points="1403.46,905.71,1407.46,915.71,1411.46,905.71,1407.46,909.71" style="stroke:#181818;stroke-width:1.0;"/><line style="stroke:#181818;stroke-width:1.0;" x1="1538.0122" x2="1589.5322" y1="893.71" y2="893.71"/><line style="stroke:#181818;stroke-width:1.0;" x1="1589.5322" x2="1589.5322" y1="893.71" y2="915.71"/><polygon fill="#181818" points="1585.5322,905.71,1589.5322,915.71,1593.5322,905.71,1589.5322,909.71" style="stroke:#181818;stroke-width:1.0;"/><line style="stroke:#181818;stroke-width:1.0;" x1="1407.46" x2="1407.46" y1="1060.9912" y2="1078.9912"/><line style="stroke:#181818;stroke-width:1.0;" x1="1407.46" x2="1486.4961" y1="1078.9912" y2="1078.9912"/><polygon fill="#181818" points="1476.4961,1074.9912,1486.4961,1078.9912,1476.4961,1082.9912,1480.4961,1078.9912" style="stroke:#181818;stroke-width:1.0;"/><line style="stroke:#181818;stroke-width:1.0;" x1="1589.5322" x2="1589.5322" y1="950.8037" y2="1078.9912"/><line style="stroke:#181818;stroke-width:1.0;" x1="1589.5322" x2="1510.4961" y1="1078.9912" y2="1078.9912"/><polygon fill="#181818" points="1520.4961,1074.9912,1510.4961,1078.9912,1520.4961,1082.9912,1516.4961,1078.9912" style="stroke:#181818;stroke-width:1.0;"/><line style="stroke:#181818;stroke-width:1.0;" x1="1498.4961" x2="1498.4961" y1="861.71" y2="881.71"/><polygon fill="#181818" points="1494.4961,871.71,1498.4961,881.71,1502.4961,871.71,1498.4961,875.71" style="stroke:#181818;stroke-width:1.0;"/><line style="stroke:#181818;stroke-width:1.0;" x1="1761.6045" x2="1761.6045" y1="422.4834" y2="457.4834"/><polygon fill="#181818" points="1757.6045,447.4834,1761.6045,457.4834,1765.6045,447.4834,1761.6045,451.4834" style="stroke:#181818;stroke-width:1.0;"/><line style="stroke:#181818;stroke-width:1.0;" x1="1761.6045" x2="1761.6045" y1="492.5771" y2="527.5771"/><polygon fill="#181818" points="1757.6045,517.5771,1761.6045,527.5771,1765.6045,517.5771,1761.6045,521.5771" style="stroke:#181818;stroke-width:1.0;"/><line style="stroke:#181818;stroke-width:1.0;" x1="1934.6816" x2="1934.6816" y1="598.1592" y2="633.1592"/><polygon fill="#181818" points="1930.6816,623.1592,1934.6816,633.1592,1938.6816,623.1592,1934.6816,627.1592" style="stroke:#181818;stroke-width:1.0;"/><line style="stroke:#181818;stroke-width:1.0;" x1="1934.6816" x2="1934.6816" y1="668.2529" y2="703.2529"/><polygon fill="#181818" points="1930.6816,693.2529,1934.6816,703.2529,1938.6816,693.2529,1934.6816,697.2529" style="stroke:#181818;stroke-width:1.0;"/><line style="stroke:#181818;stroke-width:1.0;" x1="2668.1899" x2="2668.1899" y1="672.1787" y2="707.1787"/><polygon fill="#181818" points="2664.1899,697.1787,2668.1899,707.1787,2672.1899,697.1787,2668.1899,701.1787" style="stroke:#181818;stroke-width:1.0;"/><line style="stroke:#181818;stroke-width:1.0;" x1="2680.0439" x2="2668.1899" y1="615.085" y2="615.085"/><line style="stroke:#181818;stroke-width:1.0;" x1="2668.1899" x2="2668.1899" y1="615.085" y2="637.085"/><polygon fill="#181818" points="2664.1899,627.085,2668.1899,637.085,2672.1899,627.085,2668.1899,631.085" style="stroke:#181818;stroke-width:1.0;"/><line style="stroke:#181818;stroke-width:1.0;" x1="2844.1006" x2="2855.9546" y1="615.085" y2="615.085"/><line style="stroke:#181818;stroke-width:1.0;" x1="2855.9546" x2="2855.9546" y1="615.085" y2="637.085"/><polygon fill="#181818" points="2851.9546,627.085,2855.9546,637.085,2859.9546,627.085,2855.9546,631.085" style="stroke:#181818;stroke-width:1.0;"/><line style="stroke:#181818;stroke-width:1.0;" x1="2668.1899" x2="2668.1899" y1="742.2725" y2="760.2725"/><line style="stroke:#181818;stroke-width:1.0;" x1="2668.1899" x2="2750.0723" y1="760.2725" y2="760.2725"/><polygon fill="#181818" points="2740.0723,756.2725,2750.0723,760.2725,2740.0723,764.2725,2744.0723,760.2725" style="stroke:#181818;stroke-width:1.0;"/><line style="stroke:#181818;stroke-width:1.0;" x1="2855.9546" x2="2855.9546" y1="672.1787" y2="760.2725"/><line style="stroke:#181818;stroke-width:1.0;" x1="2855.9546" x2="2774.0723" y1="760.2725" y2="760.2725"/><polygon fill="#181818" points="2784.0723,756.2725,2774.0723,760.2725,2784.0723,764.2725,2780.0723,760.2725" style="stroke:#181818;stroke-width:1.0;"/><line style="stroke:#181818;stroke-width:1.0;" x1="2762.0723" x2="2762.0723" y1="772.2725" y2="807.2725"/><polygon fill="#181818" points="2758.0723,797.2725,2762.0723,807.2725,2766.0723,797.2725,2762.0723,801.2725" style="stroke:#181818;stroke-width:1.0;"/><line style="stroke:#181818;stroke-width:1.0;" x1="1498.4961" x2="1498.4961" y1="1090.9912" y2="1110.9912"/><polygon fill="#181818" points="1494.4961,1100.9912,1498.4961,1110.9912,1502.4961,1100.9912,1498.4961,1104.9912" style="stroke:#181818;stroke-width:1.0;"/><line style="stroke:#181818;stroke-width:1.0;" x1="1761.6045" x2="1761.6045" y1="562.6709" y2="1110.9912"/><polygon fill="#181818" points="1757.6045,1100.9912,1761.6045,1110.9912,1765.6045,1100.9912,1761.6045,1104.9912" style="stroke:#181818;stroke-width:1.0;"/><line style="stroke:#181818;stroke-width:1.0;" x1="2279.812" x2="2279.812" y1="310.6279" y2="1110.9912"/><polygon fill="#181818" points="2275.812,1100.9912,2279.812,1110.9912,2283.812,1100.9912,2279.812,1104.9912" style="stroke:#181818;stroke-width:1.0;"/><line style="stroke:#181818;stroke-width:1.0;" x1="2762.0723" x2="2762.0723" y1="842.3662" y2="1110.9912"/><polygon fill="#181818" points="2758.0723,1100.9912,2762.0723,1110.9912,2766.0723,1100.9912,2762.0723,1104.9912" style="stroke:#181818;stroke-width:1.0;"/><line style="stroke:#181818;stroke-width:1.0;" x1="1313.4209" x2="2762.0723" y1="1110.9912" y2="1110.9912"/><line style="stroke:#181818;stroke-width:1.0;" x1="163.0684" x2="163.0684" y1="791.6162" y2="809.1162"/><line style="stroke:#181818;stroke-width:1.0;" x1="163.0684" x2="1498.4961" y1="809.1162" y2="809.1162"/><line style="stroke:#181818;stroke-width:1.0;" x1="1498.4961" x2="1498.4961" y1="809.1162" y2="826.6162"/><polygon fill="#181818" points="1494.4961,816.6162,1498.4961,826.6162,1502.4961,816.6162,1498.4961,820.6162" style="stroke:#181818;stroke-width:1.0;"/><line style="stroke:#181818;stroke-width:1.0;" x1="481.9487" x2="481.9487" y1="352.3896" y2="369.8896"/><line style="stroke:#181818;stroke-width:1.0;" x1="481.9487" x2="1761.6045" y1="369.8896" y2="369.8896"/><line style="stroke:#181818;stroke-width:1.0;" x1="1761.6045" x2="1761.6045" y1="369.8896" y2="387.3896"/><polygon fill="#181818" points="1757.6045,377.3896,1761.6045,387.3896,1765.6045,377.3896,1761.6045,381.3896" style="stroke:#181818;stroke-width:1.0;"/><line style="stroke:#181818;stroke-width:1.0;" x1="699.3892" x2="699.3892" y1="227.2021" y2="243.8682"/><line style="stroke:#181818;stroke-width:1.0;" x1="699.3892" x2="1934.6816" y1="243.8682" y2="243.8682"/><line style="stroke:#181818;stroke-width:1.0;" x1="1934.6816" x2="1934.6816" y1="243.8682" y2="275.5342"/><polygon fill="#181818" points="1930.6816,265.5342,1934.6816,275.5342,1938.6816,265.5342,1934.6816,269.5342" style="stroke:#181818;stroke-width:1.0;"/><line style="stroke:#181818;stroke-width:1.0;" x1="699.3892" x2="699.3892" y1="528.0654" y2="545.5654"/><line style="stroke:#181818;stroke-width:1.0;" x1="699.3892" x2="1934.6816" y1="545.5654" y2="545.5654"/><line style="stroke:#181818;stroke-width:1.0;" x1="1934.6816" x2="1934.6816" y1="545.5654" y2="563.0654"/><polygon fill="#181818" points="1930.6816,553.0654,1934.6816,563.0654,1938.6816,553.0654,1934.6816,557.0654" style="stroke:#181818;stroke-width:1.0;"/><line style="stroke:#181818;stroke-width:1.0;" x1="1934.6816" x2="1934.6816" y1="738.3467" y2="750.8057"/><line style="stroke:#181818;stroke-width:1.0;" x1="1934.6816" x2="699.3892" y1="750.8057" y2="750.8057"/><line style="stroke:#181818;stroke-width:1.0;" x1="699.3892" x2="699.3892" y1="750.8057" y2="763.2646"/><polygon fill="#181818" points="695.3892,753.2646,699.3892,763.2646,703.3892,753.2646,699.3892,757.2646" style="stroke:#181818;stroke-width:1.0;"/><line style="stroke:#181818;stroke-width:1.0;" x1="1934.6816" x2="1934.6816" y1="310.6279" y2="342.2939"/><line style="stroke:#181818;stroke-width:1.0;" x1="1934.6816" x2="699.3892" y1="342.2939" y2="342.2939"/><line style="stroke:#181818;stroke-width:1.0;" x1="699.3892" x2="699.3892" y1="342.2939" y2="373.96"/><polygon fill="#181818" points="695.3892,363.96,699.3892,373.96,703.3892,363.96,699.3892,367.96" style="stroke:#181818;stroke-width:1.0;"/><line style="stroke:#181818;stroke-width:1.0;" x1="1017.6016" x2="1017.6016" y1="227.2021" y2="243.8682"/><line style="stroke:#181818;stroke-width:1.0;" x1="1017.6016" x2="2279.812" y1="243.8682" y2="243.8682"/><line style="stroke:#181818;stroke-width:1.0;" x1="2279.812" x2="2279.812" y1="243.8682" y2="275.5342"/><polygon fill="#181818" points="2275.812,265.5342,2279.812,275.5342,2283.812,265.5342,2279.812,269.5342" style="stroke:#181818;stroke-width:1.0;"/><line style="stroke:#181818;stroke-width:1.0;" x1="1192.3604" x2="1192.3604" y1="568.085" y2="585.585"/><line style="stroke:#181818;stroke-width:1.0;" x1="1192.3604" x2="2762.0723" y1="585.585" y2="585.585"/><line style="stroke:#181818;stroke-width:1.0;" x1="2762.0723" x2="2762.0723" y1="585.585" y2="603.085"/><polygon fill="#181818" points="2758.0723,593.085,2762.0723,603.085,2766.0723,593.085,2762.0723,597.085" style="stroke:#181818;stroke-width:1.0;"/><line style="stroke:#181818;stroke-width:1.0;" x1="848.5176" x2="848.5176" y1="1110.9912" y2="1115.9912"/><line style="stroke:#181818;stroke-width:1.0;" x1="848.5176" x2="2083.8101" y1="1115.9912" y2="1115.9912"/><line style="stroke:#181818;stroke-width:1.0;" x1="2083.8101" x2="2083.8101" y1="1115.9912" y2="1130.9912"/><polygon fill="#181818" points="2079.8101,1120.9912,2083.8101,1130.9912,2087.8101,1120.9912,2083.8101,1124.9912" style="stroke:#181818;stroke-width:1.0;"/><text fill="#000000" font-family="sans-serif" font-size="18" lengthAdjust="spacing" textLength="69.0381" x="627.1914" y="31.1406">Inventori</text><text fill="#000000" font-family="sans-serif" font-size="18" lengthAdjust="spacing" textLength="55.0107" x="2093.8723" y="31.1406">Sistem</text><!--SRC=[hLPDRzim3BtdL-Ze78RTayFGhIjQfEsAjHkm8pCpDcTPClJHha1-_2Z97qeoPnkm71nR8cc-nqVA-nlrZCffG_k5TM3SOdM7xTOt86gGq88Ixw6EryQl5mlQYUAYiVHkALoDIXHFq6wXNYu4_rORIOrmkjrgAT96ybwdxJjK5LaIEsrQiOrXjp5is5NQeJ1KrIu-2d493fBLgbzv8-uvexGsBct0OSNv7oq_Ejs8bXIrlXqNBz4sXZfBcHauRmKqZdPn4LKPKuaFOzfC4LEYX6NhcFK8AbvUQf8uS34OIQW2JMH5yGsM_Hivt0D96eqAhyWjrzFk7LZVX5SrlEt8WHKbM32PoHEe4aXOt48L_bCaxm8tXMPqMe7iOpAS8JageLaUmdgbjXlWPAM8b_qZMOVjFXb_1Sd-NBjoh4fc6rGHo_KSp4Pj7C2UNjTWZB85YncgHtJ2ncgin4PRhQhrWJEq7Sb0J8SsLC8t5cqFKjf3W3C-Q8ms8ozzmHVH-qJN7qkkIo8YQv4-S1jBc6Xx1LMnVlYk96IdJEi-gE6Oi8o83eq_fl8CxRt_buuVyBTnpt0q0_EMQd3SfEvx_LTepueapw247OyJjkV8Cmr-etOw6OZYwkRgqtBgSvPuLO4KRUY6gTN7bd1eB5auiSUV7Hain_LhC1MpX99ccliORY3e6ZeU2J6nEIaFb8JSSm7KmJNJxKQh7PasLB1ZGSJjeM1Z3YT4ZWAgfqooeBq0d7QCs8OvbyaWMdnWRJWXTILeW3VJAN_iWoIG2-dD_zM7eHTuvSZS0nMQI5-0CYELsnpA99CuB4LHGXZ_A47z6Cl4Qa7fMO55PtJ9ZK3JpcSkGlFsccIeN56JywgQTX-uFz5weFuqEHHDOZ1Av9_7GwQEiyeufIwK9Pt39LLUzV54WZOxRxDnO4XLB8fS9FTyJ8HZhnbFWCBgdHCbIdIuF3TQXmwfKsp-Ia1rF5VFpADanDyRkbly0W00]--></g></svg>