<svg xmlns="http://www.w3.org/2000/svg" xmlns:xlink="http://www.w3.org/1999/xlink" contentStyleType="text/css" height="1072px" preserveAspectRatio="none" style="width:1940px;height:1072px;background:#FFFFFF;" version="1.1" viewBox="0 0 1940 1072" width="1940px" zoomAndPan="magnify"><defs/><g><rect fill="none" height="22.6406" style="stroke:none;stroke-width:1.0;" width="1907.4663" x="15" y="12.4551"/><ellipse cx="308.4004" cy="50.0957" fill="#222222" rx="10" ry="10" style="stroke:#222222;stroke-width:1.0;"/><rect fill="#F1F1F1" height="35.0938" rx="12.5" ry="12.5" style="stroke:#181818;stroke-width:0.5;" width="190.748" x="213.0264" y="80.0957"/><text fill="#000000" font-family="sans-serif" font-size="12" lengthAdjust="spacing" textLength="170.748" x="223.0264" y="102.5527">Membuka halaman Profil Usaha</text><polygon fill="#F1F1F1" points="85.9326,286.002,112.8311,286.002,124.8311,298.002,112.8311,310.002,85.9326,310.002,73.9326,298.002,85.9326,286.002" style="stroke:#181818;stroke-width:0.5;"/><text fill="#000000" font-family="sans-serif" font-size="11" lengthAdjust="spacing" textLength="99.6445" x="103.3818" y="321.4209">Edit Informasi Dasar</text><text fill="#000000" font-family="sans-serif" font-size="11" lengthAdjust="spacing" textLength="26.8984" x="85.9326" y="302.5029">Aksi?</text><rect fill="#F1F1F1" height="35.0938" rx="12.5" ry="12.5" style="stroke:#181818;stroke-width:0.5;" width="136.0801" x="31.3418" y="342.9209"/><text fill="#000000" font-family="sans-serif" font-size="12" lengthAdjust="spacing" textLength="116.0801" x="41.3418" y="365.3779">Mengubah nama toko</text><rect fill="#F1F1F1" height="35.0938" rx="12.5" ry="12.5" style="stroke:#181818;stroke-width:0.5;" width="116.0645" x="41.3496" y="398.0146"/><text fill="#000000" font-family="sans-serif" font-size="12" lengthAdjust="spacing" textLength="96.0645" x="51.3496" y="420.4717">Mengubah alamat</text><rect fill="#F1F1F1" height="35.0938" rx="12.5" ry="12.5" style="stroke:#181818;stroke-width:0.5;" width="156.7637" x="21" y="453.1084"/><text fill="#000000" font-family="sans-serif" font-size="12" lengthAdjust="spacing" textLength="136.7637" x="31" y="475.5654">Mengubah nomor telepon</text><rect fill="#F1F1F1" height="35.0938" rx="12.5" ry="12.5" style="stroke:#181818;stroke-width:0.5;" width="108.7227" x="45.0205" y="523.2021"/><text fill="#000000" font-family="sans-serif" font-size="12" lengthAdjust="spacing" textLength="88.7227" x="55.0205" y="545.6592">Mengubah email</text><rect fill="#F1F1F1" height="35.0938" rx="12.5" ry="12.5" style="stroke:#181818;stroke-width:0.5;" width="142.748" x="28.0078" y="593.2959"/><text fill="#000000" font-family="sans-serif" font-size="12" lengthAdjust="spacing" textLength="122.748" x="38.0078" y="615.7529">Menyimpan perubahan</text><polygon fill="#F1F1F1" points="271.8252,286.002,298.7236,286.002,310.7236,298.002,298.7236,310.002,271.8252,310.002,259.8252,298.002,271.8252,286.002" style="stroke:#181818;stroke-width:0.5;"/><text fill="#000000" font-family="sans-serif" font-size="11" lengthAdjust="spacing" textLength="53.8237" x="289.2744" y="321.4209">Ubah Logo</text><text fill="#000000" font-family="sans-serif" font-size="11" lengthAdjust="spacing" textLength="26.8984" x="271.8252" y="302.5029">Aksi?</text><rect fill="#F1F1F1" height="35.0938" rx="12.5" ry="12.5" style="stroke:#181818;stroke-width:0.5;" width="134.7383" x="217.9053" y="342.9209"/><text fill="#000000" font-family="sans-serif" font-size="12" lengthAdjust="spacing" textLength="114.7383" x="227.9053" y="365.3779">Klik tombol ubah logo</text><rect fill="#F1F1F1" height="35.0938" rx="12.5" ry="12.5" style="stroke:#181818;stroke-width:0.5;" width="124.0332" x="223.2578" y="398.0146"/><text fill="#000000" font-family="sans-serif" font-size="12" lengthAdjust="spacing" textLength="104.0332" x="233.2578" y="420.4717">Memilih file gambar</text><polygon fill="#F1F1F1" points="475.3555,286.002,502.2539,286.002,514.2539,298.002,502.2539,310.002,475.3555,310.002,463.3555,298.002,475.3555,286.002" style="stroke:#181818;stroke-width:0.5;"/><text fill="#000000" font-family="sans-serif" font-size="11" lengthAdjust="spacing" textLength="106.3799" x="492.8047" y="321.4209">Atur Jam Operasional</text><text fill="#000000" font-family="sans-serif" font-size="11" lengthAdjust="spacing" textLength="26.8984" x="475.3555" y="302.5029">Aksi?</text><text fill="#000000" font-family="sans-serif" font-size="11" lengthAdjust="spacing" textLength="74.583" x="514.2539" y="295.585">Ubah Deskripsi</text><rect fill="#F1F1F1" height="35.0938" rx="12.5" ry="12.5" style="stroke:#181818;stroke-width:0.5;" width="122.7207" x="427.4443" y="342.9209"/><text fill="#000000" font-family="sans-serif" font-size="12" lengthAdjust="spacing" textLength="102.7207" x="437.4443" y="365.3779">Mengatur jam buka</text><rect fill="#F1F1F1" height="35.0938" rx="12.5" ry="12.5" style="stroke:#181818;stroke-width:0.5;" width="123.3887" x="427.1104" y="398.0146"/><text fill="#000000" font-family="sans-serif" font-size="12" lengthAdjust="spacing" textLength="103.3887" x="437.1104" y="420.4717">Mengatur jam tutup</text><rect fill="#F1F1F1" height="35.0938" rx="12.5" ry="12.5" style="stroke:#181818;stroke-width:0.5;" width="150.0605" x="413.7744" y="453.1084"/><text fill="#000000" font-family="sans-serif" font-size="12" lengthAdjust="spacing" textLength="130.0605" x="423.7744" y="475.5654">Memilih hari operasional</text><rect fill="#F1F1F1" height="35.0938" rx="12.5" ry="12.5" style="stroke:#181818;stroke-width:0.5;" width="142.748" x="417.4307" y="523.2021"/><text fill="#000000" font-family="sans-serif" font-size="12" lengthAdjust="spacing" textLength="122.748" x="427.4307" y="545.6592">Menyimpan perubahan</text><rect fill="#F1F1F1" height="35.0938" rx="12.5" ry="12.5" style="stroke:#181818;stroke-width:0.5;" width="153.4121" x="609.1846" y="501.3467"/><text fill="#000000" font-family="sans-serif" font-size="12" lengthAdjust="spacing" textLength="133.4121" x="619.1846" y="523.8037">Mengubah deskripsi toko</text><rect fill="#F1F1F1" height="35.0938" rx="12.5" ry="12.5" style="stroke:#181818;stroke-width:0.5;" width="142.748" x="614.5166" y="571.4404"/><text fill="#000000" font-family="sans-serif" font-size="12" lengthAdjust="spacing" textLength="122.748" x="624.5166" y="593.8975">Menyimpan perubahan</text><line style="stroke:#000000;stroke-width:1.5;" x1="15" x2="15" y1="12.4551" y2="1060.0771"/><path d="M1455.3296,125.1895 L1455.3296,191.5957 L1435.3296,195.5957 L1455.3296,199.5957 L1455.3296,266.002 A0,0 0 0 0 1455.3296,266.002 L1579.6567,266.002 A0,0 0 0 0 1579.6567,266.002 L1579.6567,135.1895 L1569.6567,125.1895 L1455.3296,125.1895 A0,0 0 0 0 1455.3296,125.1895 " fill="#FEFFDD" style="stroke:#181818;stroke-width:0.5;"/><path d="M1569.6567,125.1895 L1569.6567,135.1895 L1579.6567,135.1895 L1569.6567,125.1895 " fill="#FEFFDD" style="stroke:#181818;stroke-width:0.5;"/><text fill="#000000" font-family="sans-serif" font-size="13" lengthAdjust="spacing" textLength="62.8608" x="1461.3296" y="143.6846">Data profil:</text><text fill="#000000" font-family="sans-serif" font-size="13" lengthAdjust="spacing" textLength="70.8018" x="1461.3296" y="160.0361">- Nama toko</text><text fill="#000000" font-family="sans-serif" font-size="13" lengthAdjust="spacing" textLength="48.4009" x="1461.3296" y="176.3877">- Alamat</text><text fill="#000000" font-family="sans-serif" font-size="13" lengthAdjust="spacing" textLength="93.209" x="1461.3296" y="192.7393">- Nomor telepon</text><text fill="#000000" font-family="sans-serif" font-size="13" lengthAdjust="spacing" textLength="40.4473" x="1461.3296" y="209.0908">- Email</text><text fill="#000000" font-family="sans-serif" font-size="13" lengthAdjust="spacing" textLength="65.0444" x="1461.3296" y="225.4424">- Logo toko</text><text fill="#000000" font-family="sans-serif" font-size="13" lengthAdjust="spacing" textLength="61.3945" x="1461.3296" y="241.7939">- Deskripsi</text><text fill="#000000" font-family="sans-serif" font-size="13" lengthAdjust="spacing" textLength="103.3271" x="1461.3296" y="258.1455">- Jam operasional</text><rect fill="#F1F1F1" height="35.0938" rx="12.5" ry="12.5" style="stroke:#181818;stroke-width:0.5;" width="188.7559" x="1246.5737" y="178.0488"/><text fill="#000000" font-family="sans-serif" font-size="12" lengthAdjust="spacing" textLength="168.7559" x="1256.5737" y="200.5059">Menampilkan data profil saat ini</text><rect fill="#F1F1F1" height="35.0938" rx="12.5" ry="12.5" style="stroke:#181818;stroke-width:0.5;" width="88.7129" x="903.3154" y="663.3896"/><text fill="#000000" font-family="sans-serif" font-size="12" lengthAdjust="spacing" textLength="68.7129" x="913.3154" y="685.8467">Validasi data</text><polygon fill="#F1F1F1" points="920.1558,733.4834,975.188,733.4834,987.188,745.4834,975.188,757.4834,920.1558,757.4834,908.1558,745.4834,920.1558,733.4834" style="stroke:#181818;stroke-width:0.5;"/><text fill="#000000" font-family="sans-serif" font-size="11" lengthAdjust="spacing" textLength="55.0322" x="920.1558" y="749.9844">Data valid?</text><text fill="#000000" font-family="sans-serif" font-size="11" lengthAdjust="spacing" textLength="13.4546" x="894.7012" y="743.0664">Ya</text><text fill="#000000" font-family="sans-serif" font-size="11" lengthAdjust="spacing" textLength="26.8984" x="987.188" y="743.0664">Tidak</text><rect fill="#F1F1F1" height="35.0938" rx="12.5" ry="12.5" style="stroke:#181818;stroke-width:0.5;" width="114.7285" x="799.2715" y="767.4834"/><text fill="#000000" font-family="sans-serif" font-size="12" lengthAdjust="spacing" textLength="94.7285" x="809.2715" y="789.9404">Update data profil</text><rect fill="#F1F1F1" height="35.0938" rx="12.5" ry="12.5" style="stroke:#181818;stroke-width:0.5;" width="168.0781" x="772.5967" y="837.5771"/><text fill="#000000" font-family="sans-serif" font-size="12" lengthAdjust="spacing" textLength="148.0781" x="782.5967" y="860.0342">Menampilkan pesan sukses</text><rect fill="#F1F1F1" height="35.0938" rx="12.5" ry="12.5" style="stroke:#181818;stroke-width:0.5;" width="156.0664" x="960.6748" y="767.4834"/><text fill="#000000" font-family="sans-serif" font-size="12" lengthAdjust="spacing" textLength="136.0664" x="970.6748" y="789.9404">Menampilkan pesan error</text><polygon fill="#F1F1F1" points="947.6719,878.6709,959.6719,890.6709,947.6719,902.6709,935.6719,890.6709,947.6719,878.6709" style="stroke:#181818;stroke-width:0.5;"/><path d="M1396.8452,453.1084 L1396.8452,486.8115 L1376.8452,490.8115 L1396.8452,494.8115 L1396.8452,528.5146 A0,0 0 0 0 1396.8452,528.5146 L1550.8096,528.5146 A0,0 0 0 0 1550.8096,528.5146 L1550.8096,463.1084 L1540.8096,453.1084 L1396.8452,453.1084 A0,0 0 0 0 1396.8452,453.1084 " fill="#FEFFDD" style="stroke:#181818;stroke-width:0.5;"/><path d="M1540.8096,453.1084 L1540.8096,463.1084 L1550.8096,463.1084 L1540.8096,453.1084 " fill="#FEFFDD" style="stroke:#181818;stroke-width:0.5;"/><text fill="#000000" font-family="sans-serif" font-size="13" lengthAdjust="spacing" textLength="132.9644" x="1402.8452" y="471.6035">Format yang didukung:</text><text fill="#000000" font-family="sans-serif" font-size="13" lengthAdjust="spacing" textLength="70.7891" x="1402.8452" y="487.9551">- JPG/JPEG</text><text fill="#000000" font-family="sans-serif" font-size="13" lengthAdjust="spacing" textLength="36.1118" x="1402.8452" y="504.3066">- PNG</text><text fill="#000000" font-family="sans-serif" font-size="13" lengthAdjust="spacing" textLength="62.8418" x="1402.8452" y="520.6582">- Max 2MB</text><rect fill="#F1F1F1" height="35.0938" rx="12.5" ry="12.5" style="stroke:#181818;stroke-width:0.5;" width="118.0391" x="1258.8062" y="473.2646"/><text fill="#000000" font-family="sans-serif" font-size="12" lengthAdjust="spacing" textLength="98.0391" x="1268.8062" y="495.7217">Validasi format file</text><polygon fill="#F1F1F1" points="1284.5088,563.5146,1351.1426,563.5146,1363.1426,575.5146,1351.1426,587.5146,1284.5088,587.5146,1272.5088,575.5146,1284.5088,563.5146" style="stroke:#181818;stroke-width:0.5;"/><text fill="#000000" font-family="sans-serif" font-size="11" lengthAdjust="spacing" textLength="66.6338" x="1284.5088" y="580.0156">Format valid?</text><text fill="#000000" font-family="sans-serif" font-size="11" lengthAdjust="spacing" textLength="13.4546" x="1259.0542" y="573.0977">Ya</text><text fill="#000000" font-family="sans-serif" font-size="11" lengthAdjust="spacing" textLength="26.8984" x="1363.1426" y="573.0977">Tidak</text><rect fill="#F1F1F1" height="35.0938" rx="12.5" ry="12.5" style="stroke:#181818;stroke-width:0.5;" width="100.7012" x="1171.1025" y="597.5146"/><text fill="#000000" font-family="sans-serif" font-size="12" lengthAdjust="spacing" textLength="80.7012" x="1181.1025" y="619.9717">Resize gambar</text><rect fill="#F1F1F1" height="35.0938" rx="12.5" ry="12.5" style="stroke:#181818;stroke-width:0.5;" width="120.0547" x="1161.4258" y="667.6084"/><text fill="#000000" font-family="sans-serif" font-size="12" lengthAdjust="spacing" textLength="100.0547" x="1171.4258" y="690.0654">Simpan ke storage</text><rect fill="#F1F1F1" height="35.0938" rx="12.5" ry="12.5" style="stroke:#181818;stroke-width:0.5;" width="162.7402" x="1140.083" y="737.7021"/><text fill="#000000" font-family="sans-serif" font-size="12" lengthAdjust="spacing" textLength="142.7402" x="1150.083" y="760.1592">Hapus logo lama (jika ada)</text><rect fill="#F1F1F1" height="35.0938" rx="12.5" ry="12.5" style="stroke:#181818;stroke-width:0.5;" width="176.791" x="1133.0576" y="807.7959"/><text fill="#000000" font-family="sans-serif" font-size="12" lengthAdjust="spacing" textLength="156.791" x="1143.0576" y="830.2529">Update path logo di database</text><rect fill="#F1F1F1" height="35.0938" rx="12.5" ry="12.5" style="stroke:#181818;stroke-width:0.5;" width="189.4238" x="1126.7412" y="877.8896"/><text fill="#000000" font-family="sans-serif" font-size="12" lengthAdjust="spacing" textLength="169.4238" x="1136.7412" y="900.3467">Menampilkan preview logo baru</text><rect fill="#F1F1F1" height="35.0938" rx="12.5" ry="12.5" style="stroke:#181818;stroke-width:0.5;" width="156.0664" x="1336.165" y="597.5146"/><text fill="#000000" font-family="sans-serif" font-size="12" lengthAdjust="spacing" textLength="136.0664" x="1346.165" y="619.9717">Menampilkan pesan error</text><polygon fill="#F1F1F1" points="1317.8257,918.9834,1329.8257,930.9834,1317.8257,942.9834,1305.8257,930.9834,1317.8257,918.9834" style="stroke:#181818;stroke-width:0.5;"/><rect fill="#F1F1F1" height="35.0938" rx="12.5" ry="12.5" style="stroke:#181818;stroke-width:0.5;" width="84.6934" x="1612.502" y="593.2959"/><text fill="#000000" font-family="sans-serif" font-size="12" lengthAdjust="spacing" textLength="64.6934" x="1622.502" y="615.7529">Validasi jam</text><rect fill="#F1F1F1" height="35.0938" rx="12.5" ry="12.5" style="stroke:#181818;stroke-width:0.5;" width="146.7441" x="1581.4766" y="663.3896"/><text fill="#000000" font-family="sans-serif" font-size="12" lengthAdjust="spacing" textLength="126.7441" x="1591.4766" y="685.8467">Update jam operasional</text><rect fill="#F1F1F1" height="35.0938" rx="12.5" ry="12.5" style="stroke:#181818;stroke-width:0.5;" width="168.0781" x="1570.8096" y="733.4834"/><text fill="#000000" font-family="sans-serif" font-size="12" lengthAdjust="spacing" textLength="148.0781" x="1580.8096" y="755.9404">Menampilkan pesan sukses</text><rect fill="#F1F1F1" height="35.0938" rx="12.5" ry="12.5" style="stroke:#181818;stroke-width:0.5;" width="109.3789" x="1778.2373" y="641.5342"/><text fill="#000000" font-family="sans-serif" font-size="12" lengthAdjust="spacing" textLength="89.3789" x="1788.2373" y="663.9912">Update deskripsi</text><rect fill="#F1F1F1" height="35.0938" rx="12.5" ry="12.5" style="stroke:#181818;stroke-width:0.5;" width="168.0781" x="1748.8877" y="711.6279"/><text fill="#000000" font-family="sans-serif" font-size="12" lengthAdjust="spacing" textLength="148.0781" x="1758.8877" y="734.085">Menampilkan pesan sukses</text><rect fill="#F1F1F1" height="35.0938" rx="12.5" ry="12.5" style="stroke:#181818;stroke-width:0.5;" width="140.0527" x="1270.9253" y="982.9834"/><text fill="#000000" font-family="sans-serif" font-size="12" lengthAdjust="spacing" textLength="120.0527" x="1280.9253" y="1005.4404">Refresh tampilan profil</text><ellipse cx="1340.9517" cy="1049.0771" fill="none" rx="11" ry="11" style="stroke:#222222;stroke-width:1.0;"/><ellipse cx="1340.9517" cy="1049.0771" fill="#222222" rx="6" ry="6" style="stroke:#222222;stroke-width:1.0;"/><line style="stroke:#000000;stroke-width:1.5;" x1="766.5967" x2="766.5967" y1="12.4551" y2="1060.0771"/><line style="stroke:#000000;stroke-width:1.5;" x1="1920.9658" x2="1920.9658" y1="12.4551" y2="1060.0771"/><line style="stroke:#181818;stroke-width:1.0;" x1="308.4004" x2="308.4004" y1="60.0957" y2="80.0957"/><polygon fill="#181818" points="304.4004,70.0957,308.4004,80.0957,312.4004,70.0957,308.4004,74.0957" style="stroke:#181818;stroke-width:1.0;"/><line style="stroke:#181818;stroke-width:1.0;" x1="99.3818" x2="99.3818" y1="378.0146" y2="398.0146"/><polygon fill="#181818" points="95.3818,388.0146,99.3818,398.0146,103.3818,388.0146,99.3818,392.0146" style="stroke:#181818;stroke-width:1.0;"/><line style="stroke:#181818;stroke-width:1.0;" x1="99.3818" x2="99.3818" y1="433.1084" y2="453.1084"/><polygon fill="#181818" points="95.3818,443.1084,99.3818,453.1084,103.3818,443.1084,99.3818,447.1084" style="stroke:#181818;stroke-width:1.0;"/><line style="stroke:#181818;stroke-width:1.0;" x1="99.3818" x2="99.3818" y1="488.2021" y2="523.2021"/><polygon fill="#181818" points="95.3818,513.2021,99.3818,523.2021,103.3818,513.2021,99.3818,517.2021" style="stroke:#181818;stroke-width:1.0;"/><line style="stroke:#181818;stroke-width:1.0;" x1="99.3818" x2="99.3818" y1="558.2959" y2="593.2959"/><polygon fill="#181818" points="95.3818,583.2959,99.3818,593.2959,103.3818,583.2959,99.3818,587.2959" style="stroke:#181818;stroke-width:1.0;"/><line style="stroke:#181818;stroke-width:1.0;" x1="285.2744" x2="285.2744" y1="378.0146" y2="398.0146"/><polygon fill="#181818" points="281.2744,388.0146,285.2744,398.0146,289.2744,388.0146,285.2744,392.0146" style="stroke:#181818;stroke-width:1.0;"/><line style="stroke:#181818;stroke-width:1.0;" x1="488.8047" x2="488.8047" y1="378.0146" y2="398.0146"/><polygon fill="#181818" points="484.8047,388.0146,488.8047,398.0146,492.8047,388.0146,488.8047,392.0146" style="stroke:#181818;stroke-width:1.0;"/><line style="stroke:#181818;stroke-width:1.0;" x1="488.8047" x2="488.8047" y1="433.1084" y2="453.1084"/><polygon fill="#181818" points="484.8047,443.1084,488.8047,453.1084,492.8047,443.1084,488.8047,447.1084" style="stroke:#181818;stroke-width:1.0;"/><line style="stroke:#181818;stroke-width:1.0;" x1="488.8047" x2="488.8047" y1="488.2021" y2="523.2021"/><polygon fill="#181818" points="484.8047,513.2021,488.8047,523.2021,492.8047,513.2021,488.8047,517.2021" style="stroke:#181818;stroke-width:1.0;"/><line style="stroke:#181818;stroke-width:1.0;" x1="685.8906" x2="685.8906" y1="536.4404" y2="571.4404"/><polygon fill="#181818" points="681.8906,561.4404,685.8906,571.4404,689.8906,561.4404,685.8906,565.4404" style="stroke:#181818;stroke-width:1.0;"/><line style="stroke:#181818;stroke-width:1.0;" x1="99.3818" x2="99.3818" y1="310.002" y2="342.9209"/><polygon fill="#181818" points="95.3818,332.9209,99.3818,342.9209,103.3818,332.9209,99.3818,336.9209" style="stroke:#181818;stroke-width:1.0;"/><line style="stroke:#181818;stroke-width:1.0;" x1="285.2744" x2="285.2744" y1="310.002" y2="342.9209"/><polygon fill="#181818" points="281.2744,332.9209,285.2744,342.9209,289.2744,332.9209,285.2744,336.9209" style="stroke:#181818;stroke-width:1.0;"/><line style="stroke:#181818;stroke-width:1.0;" x1="488.8047" x2="488.8047" y1="310.002" y2="342.9209"/><polygon fill="#181818" points="484.8047,332.9209,488.8047,342.9209,492.8047,332.9209,488.8047,336.9209" style="stroke:#181818;stroke-width:1.0;"/><line style="stroke:#181818;stroke-width:1.0;" x1="124.8311" x2="259.8252" y1="298.002" y2="298.002"/><polygon fill="#181818" points="249.8252,294.002,259.8252,298.002,249.8252,302.002,253.8252,298.002" style="stroke:#181818;stroke-width:1.0;"/><line style="stroke:#181818;stroke-width:1.0;" x1="310.7236" x2="463.3555" y1="298.002" y2="298.002"/><polygon fill="#181818" points="453.3555,294.002,463.3555,298.002,453.3555,302.002,457.3555,298.002" style="stroke:#181818;stroke-width:1.0;"/><line style="stroke:#181818;stroke-width:1.0;" x1="1340.9517" x2="1340.9517" y1="213.1426" y2="271.002"/><line style="stroke:#181818;stroke-width:1.0;" x1="1340.9517" x2="99.3818" y1="271.002" y2="271.002"/><line style="stroke:#181818;stroke-width:1.0;" x1="99.3818" x2="99.3818" y1="271.002" y2="286.002"/><polygon fill="#181818" points="95.3818,276.002,99.3818,286.002,103.3818,276.002,99.3818,280.002" style="stroke:#181818;stroke-width:1.0;"/><line style="stroke:#181818;stroke-width:1.0;" x1="514.2539" x2="685.8906" y1="298.002" y2="298.002"/><line style="stroke:#181818;stroke-width:1.0;" x1="685.8906" x2="685.8906" y1="298.002" y2="501.3467"/><polygon fill="#181818" points="681.8906,491.3467,685.8906,501.3467,689.8906,491.3467,685.8906,495.3467" style="stroke:#181818;stroke-width:1.0;"/><line style="stroke:#181818;stroke-width:1.0;" x1="856.6357" x2="856.6357" y1="802.5771" y2="837.5771"/><polygon fill="#181818" points="852.6357,827.5771,856.6357,837.5771,860.6357,827.5771,856.6357,831.5771" style="stroke:#181818;stroke-width:1.0;"/><line style="stroke:#181818;stroke-width:1.0;" x1="908.1558" x2="856.6357" y1="745.4834" y2="745.4834"/><line style="stroke:#181818;stroke-width:1.0;" x1="856.6357" x2="856.6357" y1="745.4834" y2="767.4834"/><polygon fill="#181818" points="852.6357,757.4834,856.6357,767.4834,860.6357,757.4834,856.6357,761.4834" style="stroke:#181818;stroke-width:1.0;"/><line style="stroke:#181818;stroke-width:1.0;" x1="987.188" x2="1038.708" y1="745.4834" y2="745.4834"/><line style="stroke:#181818;stroke-width:1.0;" x1="1038.708" x2="1038.708" y1="745.4834" y2="767.4834"/><polygon fill="#181818" points="1034.708,757.4834,1038.708,767.4834,1042.708,757.4834,1038.708,761.4834" style="stroke:#181818;stroke-width:1.0;"/><line style="stroke:#181818;stroke-width:1.0;" x1="856.6357" x2="856.6357" y1="872.6709" y2="890.6709"/><line style="stroke:#181818;stroke-width:1.0;" x1="856.6357" x2="935.6719" y1="890.6709" y2="890.6709"/><polygon fill="#181818" points="925.6719,886.6709,935.6719,890.6709,925.6719,894.6709,929.6719,890.6709" style="stroke:#181818;stroke-width:1.0;"/><line style="stroke:#181818;stroke-width:1.0;" x1="1038.708" x2="1038.708" y1="802.5771" y2="890.6709"/><line style="stroke:#181818;stroke-width:1.0;" x1="1038.708" x2="959.6719" y1="890.6709" y2="890.6709"/><polygon fill="#181818" points="969.6719,886.6709,959.6719,890.6709,969.6719,894.6709,965.6719,890.6709" style="stroke:#181818;stroke-width:1.0;"/><line style="stroke:#181818;stroke-width:1.0;" x1="947.6719" x2="947.6719" y1="698.4834" y2="733.4834"/><polygon fill="#181818" points="943.6719,723.4834,947.6719,733.4834,951.6719,723.4834,947.6719,727.4834" style="stroke:#181818;stroke-width:1.0;"/><line style="stroke:#181818;stroke-width:1.0;" x1="1221.4531" x2="1221.4531" y1="632.6084" y2="667.6084"/><polygon fill="#181818" points="1217.4531,657.6084,1221.4531,667.6084,1225.4531,657.6084,1221.4531,661.6084" style="stroke:#181818;stroke-width:1.0;"/><line style="stroke:#181818;stroke-width:1.0;" x1="1221.4531" x2="1221.4531" y1="702.7021" y2="737.7021"/><polygon fill="#181818" points="1217.4531,727.7021,1221.4531,737.7021,1225.4531,727.7021,1221.4531,731.7021" style="stroke:#181818;stroke-width:1.0;"/><line style="stroke:#181818;stroke-width:1.0;" x1="1221.4531" x2="1221.4531" y1="772.7959" y2="807.7959"/><polygon fill="#181818" points="1217.4531,797.7959,1221.4531,807.7959,1225.4531,797.7959,1221.4531,801.7959" style="stroke:#181818;stroke-width:1.0;"/><line style="stroke:#181818;stroke-width:1.0;" x1="1221.4531" x2="1221.4531" y1="842.8896" y2="877.8896"/><polygon fill="#181818" points="1217.4531,867.8896,1221.4531,877.8896,1225.4531,867.8896,1221.4531,871.8896" style="stroke:#181818;stroke-width:1.0;"/><line style="stroke:#181818;stroke-width:1.0;" x1="1272.5088" x2="1221.4531" y1="575.5146" y2="575.5146"/><line style="stroke:#181818;stroke-width:1.0;" x1="1221.4531" x2="1221.4531" y1="575.5146" y2="597.5146"/><polygon fill="#181818" points="1217.4531,587.5146,1221.4531,597.5146,1225.4531,587.5146,1221.4531,591.5146" style="stroke:#181818;stroke-width:1.0;"/><line style="stroke:#181818;stroke-width:1.0;" x1="1363.1426" x2="1414.1982" y1="575.5146" y2="575.5146"/><line style="stroke:#181818;stroke-width:1.0;" x1="1414.1982" x2="1414.1982" y1="575.5146" y2="597.5146"/><polygon fill="#181818" points="1410.1982,587.5146,1414.1982,597.5146,1418.1982,587.5146,1414.1982,591.5146" style="stroke:#181818;stroke-width:1.0;"/><line style="stroke:#181818;stroke-width:1.0;" x1="1221.4531" x2="1221.4531" y1="912.9834" y2="930.9834"/><line style="stroke:#181818;stroke-width:1.0;" x1="1221.4531" x2="1305.8257" y1="930.9834" y2="930.9834"/><polygon fill="#181818" points="1295.8257,926.9834,1305.8257,930.9834,1295.8257,934.9834,1299.8257,930.9834" style="stroke:#181818;stroke-width:1.0;"/><line style="stroke:#181818;stroke-width:1.0;" x1="1414.1982" x2="1414.1982" y1="632.6084" y2="930.9834"/><line style="stroke:#181818;stroke-width:1.0;" x1="1414.1982" x2="1329.8257" y1="930.9834" y2="930.9834"/><polygon fill="#181818" points="1339.8257,926.9834,1329.8257,930.9834,1339.8257,934.9834,1335.8257,930.9834" style="stroke:#181818;stroke-width:1.0;"/><line style="stroke:#181818;stroke-width:1.0;" x1="1317.8257" x2="1317.8257" y1="508.3584" y2="563.5146"/><polygon fill="#181818" points="1313.8257,553.5146,1317.8257,563.5146,1321.8257,553.5146,1317.8257,557.5146" style="stroke:#181818;stroke-width:1.0;"/><line style="stroke:#181818;stroke-width:1.0;" x1="1654.8486" x2="1654.8486" y1="628.3896" y2="663.3896"/><polygon fill="#181818" points="1650.8486,653.3896,1654.8486,663.3896,1658.8486,653.3896,1654.8486,657.3896" style="stroke:#181818;stroke-width:1.0;"/><line style="stroke:#181818;stroke-width:1.0;" x1="1654.8486" x2="1654.8486" y1="698.4834" y2="733.4834"/><polygon fill="#181818" points="1650.8486,723.4834,1654.8486,733.4834,1658.8486,723.4834,1654.8486,727.4834" style="stroke:#181818;stroke-width:1.0;"/><line style="stroke:#181818;stroke-width:1.0;" x1="1832.9268" x2="1832.9268" y1="676.6279" y2="711.6279"/><polygon fill="#181818" points="1828.9268,701.6279,1832.9268,711.6279,1836.9268,701.6279,1832.9268,705.6279" style="stroke:#181818;stroke-width:1.0;"/><line style="stroke:#181818;stroke-width:1.0;" x1="947.6719" x2="947.6719" y1="902.6709" y2="962.9834"/><polygon fill="#181818" points="943.6719,952.9834,947.6719,962.9834,951.6719,952.9834,947.6719,956.9834" style="stroke:#181818;stroke-width:1.0;"/><line style="stroke:#181818;stroke-width:1.0;" x1="1317.8257" x2="1317.8257" y1="942.9834" y2="962.9834"/><polygon fill="#181818" points="1313.8257,952.9834,1317.8257,962.9834,1321.8257,952.9834,1317.8257,956.9834" style="stroke:#181818;stroke-width:1.0;"/><line style="stroke:#181818;stroke-width:1.0;" x1="1654.8486" x2="1654.8486" y1="768.5771" y2="962.9834"/><polygon fill="#181818" points="1650.8486,952.9834,1654.8486,962.9834,1658.8486,952.9834,1654.8486,956.9834" style="stroke:#181818;stroke-width:1.0;"/><line style="stroke:#181818;stroke-width:1.0;" x1="1832.9268" x2="1832.9268" y1="746.7217" y2="962.9834"/><polygon fill="#181818" points="1828.9268,952.9834,1832.9268,962.9834,1836.9268,952.9834,1832.9268,956.9834" style="stroke:#181818;stroke-width:1.0;"/><line style="stroke:#181818;stroke-width:1.0;" x1="947.6719" x2="1832.9268" y1="962.9834" y2="962.9834"/><line style="stroke:#181818;stroke-width:1.0;" x1="1340.9517" x2="1340.9517" y1="1018.0771" y2="1038.0771"/><polygon fill="#181818" points="1336.9517,1028.0771,1340.9517,1038.0771,1344.9517,1028.0771,1340.9517,1032.0771" style="stroke:#181818;stroke-width:1.0;"/><line style="stroke:#181818;stroke-width:1.0;" x1="308.4004" x2="308.4004" y1="115.1895" y2="134.1191"/><line style="stroke:#181818;stroke-width:1.0;" x1="308.4004" x2="1340.9517" y1="134.1191" y2="134.1191"/><line style="stroke:#181818;stroke-width:1.0;" x1="1340.9517" x2="1340.9517" y1="134.1191" y2="178.0488"/><polygon fill="#181818" points="1336.9517,168.0488,1340.9517,178.0488,1344.9517,168.0488,1340.9517,172.0488" style="stroke:#181818;stroke-width:1.0;"/><line style="stroke:#181818;stroke-width:1.0;" x1="99.3818" x2="99.3818" y1="628.3896" y2="645.8896"/><line style="stroke:#181818;stroke-width:1.0;" x1="99.3818" x2="947.6719" y1="645.8896" y2="645.8896"/><line style="stroke:#181818;stroke-width:1.0;" x1="947.6719" x2="947.6719" y1="645.8896" y2="663.3896"/><polygon fill="#181818" points="943.6719,653.3896,947.6719,663.3896,951.6719,653.3896,947.6719,657.3896" style="stroke:#181818;stroke-width:1.0;"/><line style="stroke:#181818;stroke-width:1.0;" x1="285.2744" x2="285.2744" y1="433.1084" y2="445.6865"/><line style="stroke:#181818;stroke-width:1.0;" x1="285.2744" x2="1317.8257" y1="445.6865" y2="445.6865"/><line style="stroke:#181818;stroke-width:1.0;" x1="1317.8257" x2="1317.8257" y1="445.6865" y2="473.2646"/><polygon fill="#181818" points="1313.8257,463.2646,1317.8257,473.2646,1321.8257,463.2646,1317.8257,467.2646" style="stroke:#181818;stroke-width:1.0;"/><line style="stroke:#181818;stroke-width:1.0;" x1="488.8047" x2="488.8047" y1="558.2959" y2="575.7959"/><line style="stroke:#181818;stroke-width:1.0;" x1="488.8047" x2="1654.8486" y1="575.7959" y2="575.7959"/><line style="stroke:#181818;stroke-width:1.0;" x1="1654.8486" x2="1654.8486" y1="575.7959" y2="593.2959"/><polygon fill="#181818" points="1650.8486,583.2959,1654.8486,593.2959,1658.8486,583.2959,1654.8486,587.2959" style="stroke:#181818;stroke-width:1.0;"/><line style="stroke:#181818;stroke-width:1.0;" x1="685.8906" x2="685.8906" y1="606.5342" y2="624.0342"/><line style="stroke:#181818;stroke-width:1.0;" x1="685.8906" x2="1832.9268" y1="624.0342" y2="624.0342"/><line style="stroke:#181818;stroke-width:1.0;" x1="1832.9268" x2="1832.9268" y1="624.0342" y2="641.5342"/><polygon fill="#181818" points="1828.9268,631.5342,1832.9268,641.5342,1836.9268,631.5342,1832.9268,635.5342" style="stroke:#181818;stroke-width:1.0;"/><line style="stroke:#181818;stroke-width:1.0;" x1="308.4004" x2="308.4004" y1="962.9834" y2="967.9834"/><line style="stroke:#181818;stroke-width:1.0;" x1="308.4004" x2="1340.9517" y1="967.9834" y2="967.9834"/><line style="stroke:#181818;stroke-width:1.0;" x1="1340.9517" x2="1340.9517" y1="967.9834" y2="982.9834"/><polygon fill="#181818" points="1336.9517,972.9834,1340.9517,982.9834,1344.9517,972.9834,1340.9517,976.9834" style="stroke:#181818;stroke-width:1.0;"/><text fill="#000000" font-family="sans-serif" font-size="18" lengthAdjust="spacing" textLength="58.0078" x="361.7944" y="31.1406">Pemilik</text><text fill="#000000" font-family="sans-serif" font-size="18" lengthAdjust="spacing" textLength="55.0107" x="1316.2759" y="31.1406">Sistem</text><!--SRC=[jLN9Rjj03BthAtYq3qM17gr3uI9kbjQfaTG5UgGXMgAbMJ0pIfl27zzPP4bs4gT04H-46VAHGpuktgz8SCFrFhCEZSjcInARjaQei4614bP6RRc1jSKAyopRtxDr9FO1A55eRceFAj0Xw8IqY0vOSfv9vGWCbvNB02u6oCnVty6jTmzErIhUvk4rbnHAA0EE6j9AHib283Vnz5MLQZ2w85iRrfRZxGO5A4q6BIk9JKQoW1223xfFahSmcTUMFqx1LIHXiYZOmRNSAYEydO_IefbwTm0XmRBTO0No46b-eeWKkLEf7CT_ggIGoY1yPA4zVpxgeCKE7Zyzqn7x0nikGeI1wX4g91IfVGY0FgsVc9A8jcljZMXSf7nGZikeoVglRMjBDa6eiGIJx_xfUdhEXenHfZEH1MzJWD7w2UNhm4CePF8u52Vw_kAFdconKGr4nXgFx0aBo0fy1WGbYWsQrmcBfNNH9e6FsZByFYV48yeI2YxQkfNbhDFvjbfTlhzPBIvxmUfsE2_nDtnOVZeadlhjg3YTypFbkIFBVuxpYVBxr1irWNNAO4aZtHNgraPg8FGWJ7RiPnOBdEPFwgxH9HPzSh49DcZffGumzC3qAy5zEEtRjS7SjIRExBTXPf_jY30x6C0x3mwxANz6xbhNwfCsgT3mU2FypzZvDphpZjNTyROPV9-PfiH46e1-TxsOS-p-uW0xMK3_dC5X-0z-NWqq5MwqwEzeQyXMuA91R9AqG_nVXjBPNm00]--></g></svg>