<svg xmlns="http://www.w3.org/2000/svg" xmlns:xlink="http://www.w3.org/1999/xlink" contentStyleType="text/css" height="745px" preserveAspectRatio="none" style="width:580px;height:745px;background:#FFFFFF;" version="1.1" viewBox="0 0 580 745" width="580px" zoomAndPan="magnify"><title>Activity Diagram</title><defs/><g><text fill="#000000" font-family="sans-serif" font-size="14" font-weight="bold" lengthAdjust="spacing" textLength="110.4824" x="233.29" y="34.5332">Activity Diagram</text><text fill="#000000" font-family="sans-serif" font-size="14" font-weight="bold" lengthAdjust="spacing" textLength="152.5029" x="212.2798" y="52.1426">Kelola Alur Persediaan</text><ellipse cx="299.0693" cy="76.2188" fill="#222222" rx="10" ry="10" style="stroke:#222222;stroke-width:1.0;"/><rect fill="#F1F1F1" height="35.0938" rx="12.5" ry="12.5" style="stroke:#181818;stroke-width:0.5;" width="262.1504" x="167.9941" y="106.2188"/><text fill="#000000" font-family="sans-serif" font-size="12" lengthAdjust="spacing" textLength="242.1504" x="177.9941" y="128.6758">Inventori mengakses halaman log persediaan</text><rect fill="#F1F1F1" height="35.0938" rx="12.5" ry="12.5" style="stroke:#181818;stroke-width:0.5;" width="248.7617" x="174.6885" y="161.3125"/><text fill="#000000" font-family="sans-serif" font-size="12" lengthAdjust="spacing" textLength="228.7617" x="184.6885" y="183.7695">Sistem menampilkan daftar log mutasi stok</text><rect fill="#F1F1F1" height="35.0938" rx="12.5" ry="12.5" style="stroke:#181818;stroke-width:0.5;" width="170.7617" x="213.6885" y="216.4063"/><text fill="#000000" font-family="sans-serif" font-size="12" lengthAdjust="spacing" textLength="150.7617" x="223.6885" y="238.8633">Filter data per bahan/produk</text><path d="M352.6497,261.5 L352.6497,320.5547 L535.5085,320.5547 L535.5085,271.5 L525.5085,261.5 L352.6497,261.5 " fill="#FEFFDD" style="stroke:#181818;stroke-width:0.5;"/><path d="M525.5085,261.5 L525.5085,271.5 L535.5085,271.5 L525.5085,261.5 " fill="#FEFFDD" style="stroke:#181818;stroke-width:0.5;"/><text fill="#000000" font-family="sans-serif" font-size="13" lengthAdjust="spacing" textLength="161.8589" x="358.6497" y="279.9951">Transparansi mutasi barang</text><text fill="#000000" font-family="sans-serif" font-size="13" lengthAdjust="spacing" textLength="138.0361" x="358.6497" y="296.3467">untuk audit dan tracking</text><text fill="#000000" font-family="sans-serif" font-size="13" lengthAdjust="spacing" textLength="89.6226" x="358.6497" y="312.6982">perubahan stok</text><polygon fill="#F1F1F1" points="257.489,320.5547,340.6497,320.5547,352.6497,332.5547,340.6497,344.5547,257.489,344.5547,245.489,332.5547,257.489,320.5547" style="stroke:#181818;stroke-width:0.5;"/><text fill="#000000" font-family="sans-serif" font-size="11" lengthAdjust="spacing" textLength="83.1606" x="257.489" y="337.0557">Data ditemukan?</text><text fill="#000000" font-family="sans-serif" font-size="11" lengthAdjust="spacing" textLength="13.4546" x="232.0344" y="330.1377">Ya</text><text fill="#000000" font-family="sans-serif" font-size="11" lengthAdjust="spacing" textLength="26.8984" x="352.6497" y="330.1377">Tidak</text><rect fill="#F1F1F1" height="35.0938" rx="12.5" ry="12.5" style="stroke:#181818;stroke-width:0.5;" width="225.418" x="36.3447" y="354.5547"/><text fill="#000000" font-family="sans-serif" font-size="12" lengthAdjust="spacing" textLength="205.418" x="46.3447" y="377.0117">Sistem menampilkan log masuk/keluar</text><rect fill="#F1F1F1" height="35.0938" rx="12.5" ry="12.5" style="stroke:#181818;stroke-width:0.5;" width="209.4277" x="44.3398" y="409.6484"/><text fill="#000000" font-family="sans-serif" font-size="12" lengthAdjust="spacing" textLength="189.4277" x="54.3398" y="432.1055">Sistem menampilkan saldo berjalan</text><rect fill="#F1F1F1" height="35.0938" rx="12.5" ry="12.5" style="stroke:#181818;stroke-width:0.5;" width="276.1074" x="11" y="513.6602"/><text fill="#000000" font-family="sans-serif" font-size="12" lengthAdjust="spacing" textLength="256.1074" x="21" y="536.1172">Sistem menampilkan ID Belanja/Produksi terkait</text><rect fill="#F1F1F1" height="35.0938" rx="12.5" ry="12.5" style="stroke:#181818;stroke-width:0.5;" width="224.0879" x="37.0098" y="583.7539"/><text fill="#000000" font-family="sans-serif" font-size="12" lengthAdjust="spacing" textLength="204.0879" x="47.0098" y="606.2109">Tampilkan informasi transaksi lengkap</text><polygon fill="#F1F1F1" points="96.4653,464.7422,201.6421,464.7422,213.6421,476.7422,201.6421,488.7422,96.4653,488.7422,84.4653,476.7422,96.4653,464.7422" style="stroke:#181818;stroke-width:0.5;"/><text fill="#000000" font-family="sans-serif" font-size="11" lengthAdjust="spacing" textLength="13.4546" x="153.0537" y="500.1611">Ya</text><text fill="#000000" font-family="sans-serif" font-size="11" lengthAdjust="spacing" textLength="105.1768" x="96.4653" y="481.2432">Lihat detail referensi?</text><polygon fill="#F1F1F1" points="149.0537,638.8477,161.0537,650.8477,149.0537,662.8477,137.0537,650.8477,149.0537,638.8477" style="stroke:#181818;stroke-width:0.5;"/><rect fill="#F1F1F1" height="35.0938" rx="12.5" ry="12.5" style="stroke:#181818;stroke-width:0.5;" width="187.4141" x="355.3779" y="354.5547"/><text fill="#000000" font-family="sans-serif" font-size="12" lengthAdjust="spacing" textLength="167.4141" x="365.3779" y="377.0117">Sistem tampilkan daftar kosong</text><rect fill="#F1F1F1" height="35.0938" rx="12.5" ry="12.5" style="stroke:#181818;stroke-width:0.5;" width="239.9551" x="329.1074" y="409.6484"/><text fill="#000000" font-family="sans-serif" font-size="12" lengthAdjust="spacing" textLength="219.9551" x="339.1074" y="432.1055">Tampilkan pesan "Tidak ada mutasi stok"</text><polygon fill="#F1F1F1" points="299.0693,668.8477,311.0693,680.8477,299.0693,692.8477,287.0693,680.8477,299.0693,668.8477" style="stroke:#181818;stroke-width:0.5;"/><ellipse cx="299.0693" cy="723.8477" fill="none" rx="11" ry="11" style="stroke:#222222;stroke-width:1.0;"/><ellipse cx="299.0693" cy="723.8477" fill="#222222" rx="6" ry="6" style="stroke:#222222;stroke-width:1.0;"/><line style="stroke:#181818;stroke-width:1.0;" x1="299.0693" x2="299.0693" y1="86.2188" y2="106.2188"/><polygon fill="#181818" points="295.0693,96.2188,299.0693,106.2188,303.0693,96.2188,299.0693,100.2188" style="stroke:#181818;stroke-width:1.0;"/><line style="stroke:#181818;stroke-width:1.0;" x1="299.0693" x2="299.0693" y1="141.3125" y2="161.3125"/><polygon fill="#181818" points="295.0693,151.3125,299.0693,161.3125,303.0693,151.3125,299.0693,155.3125" style="stroke:#181818;stroke-width:1.0;"/><line style="stroke:#181818;stroke-width:1.0;" x1="299.0693" x2="299.0693" y1="196.4063" y2="216.4063"/><polygon fill="#181818" points="295.0693,206.4063,299.0693,216.4063,303.0693,206.4063,299.0693,210.4063" style="stroke:#181818;stroke-width:1.0;"/><line style="stroke:#181818;stroke-width:1.0;" x1="149.0537" x2="149.0537" y1="389.6484" y2="409.6484"/><polygon fill="#181818" points="145.0537,399.6484,149.0537,409.6484,153.0537,399.6484,149.0537,403.6484" style="stroke:#181818;stroke-width:1.0;"/><line style="stroke:#181818;stroke-width:1.0;" x1="149.0537" x2="149.0537" y1="548.7539" y2="583.7539"/><polygon fill="#181818" points="145.0537,573.7539,149.0537,583.7539,153.0537,573.7539,149.0537,577.7539" style="stroke:#181818;stroke-width:1.0;"/><line style="stroke:#181818;stroke-width:1.0;" x1="149.0537" x2="149.0537" y1="488.7422" y2="513.6602"/><polygon fill="#181818" points="145.0537,503.6602,149.0537,513.6602,153.0537,503.6602,149.0537,507.6602" style="stroke:#181818;stroke-width:1.0;"/><line style="stroke:#181818;stroke-width:1.0;" x1="213.6421" x2="297.1074" y1="476.7422" y2="476.7422"/><polygon fill="#181818" points="293.1074,556.2539,297.1074,566.2539,301.1074,556.2539,297.1074,560.2539" style="stroke:#181818;stroke-width:1.0;"/><line style="stroke:#181818;stroke-width:1.0;" x1="297.1074" x2="297.1074" y1="476.7422" y2="650.8477"/><line style="stroke:#181818;stroke-width:1.0;" x1="297.1074" x2="161.0537" y1="650.8477" y2="650.8477"/><polygon fill="#181818" points="171.0537,646.8477,161.0537,650.8477,171.0537,654.8477,167.0537,650.8477" style="stroke:#181818;stroke-width:1.0;"/><line style="stroke:#181818;stroke-width:1.0;" x1="149.0537" x2="149.0537" y1="618.8477" y2="638.8477"/><polygon fill="#181818" points="145.0537,628.8477,149.0537,638.8477,153.0537,628.8477,149.0537,632.8477" style="stroke:#181818;stroke-width:1.0;"/><line style="stroke:#181818;stroke-width:1.0;" x1="149.0537" x2="149.0537" y1="444.7422" y2="464.7422"/><polygon fill="#181818" points="145.0537,454.7422,149.0537,464.7422,153.0537,454.7422,149.0537,458.7422" style="stroke:#181818;stroke-width:1.0;"/><line style="stroke:#181818;stroke-width:1.0;" x1="449.085" x2="449.085" y1="389.6484" y2="409.6484"/><polygon fill="#181818" points="445.085,399.6484,449.085,409.6484,453.085,399.6484,449.085,403.6484" style="stroke:#181818;stroke-width:1.0;"/><line style="stroke:#181818;stroke-width:1.0;" x1="245.489" x2="149.0537" y1="332.5547" y2="332.5547"/><line style="stroke:#181818;stroke-width:1.0;" x1="149.0537" x2="149.0537" y1="332.5547" y2="354.5547"/><polygon fill="#181818" points="145.0537,344.5547,149.0537,354.5547,153.0537,344.5547,149.0537,348.5547" style="stroke:#181818;stroke-width:1.0;"/><line style="stroke:#181818;stroke-width:1.0;" x1="352.6497" x2="449.085" y1="332.5547" y2="332.5547"/><line style="stroke:#181818;stroke-width:1.0;" x1="449.085" x2="449.085" y1="332.5547" y2="354.5547"/><polygon fill="#181818" points="445.085,344.5547,449.085,354.5547,453.085,344.5547,449.085,348.5547" style="stroke:#181818;stroke-width:1.0;"/><line style="stroke:#181818;stroke-width:1.0;" x1="149.0537" x2="149.0537" y1="662.8477" y2="680.8477"/><line style="stroke:#181818;stroke-width:1.0;" x1="149.0537" x2="287.0693" y1="680.8477" y2="680.8477"/><polygon fill="#181818" points="277.0693,676.8477,287.0693,680.8477,277.0693,684.8477,281.0693,680.8477" style="stroke:#181818;stroke-width:1.0;"/><line style="stroke:#181818;stroke-width:1.0;" x1="449.085" x2="449.085" y1="444.7422" y2="680.8477"/><line style="stroke:#181818;stroke-width:1.0;" x1="449.085" x2="311.0693" y1="680.8477" y2="680.8477"/><polygon fill="#181818" points="321.0693,676.8477,311.0693,680.8477,321.0693,684.8477,317.0693,680.8477" style="stroke:#181818;stroke-width:1.0;"/><line style="stroke:#181818;stroke-width:1.0;" x1="299.0693" x2="299.0693" y1="251.5" y2="320.5547"/><polygon fill="#181818" points="295.0693,310.5547,299.0693,320.5547,303.0693,310.5547,299.0693,314.5547" style="stroke:#181818;stroke-width:1.0;"/><line style="stroke:#181818;stroke-width:1.0;" x1="299.0693" x2="299.0693" y1="692.8477" y2="712.8477"/><polygon fill="#181818" points="295.0693,702.8477,299.0693,712.8477,303.0693,702.8477,299.0693,706.8477" style="stroke:#181818;stroke-width:1.0;"/><!--SRC=[TPAxRiCm34LtVGNHAPsonqFH8YXGj4E0PYdGXObecvLC6H9Le7zVokdxuK60mSDx-Ig1PSQC4-1H-PdrvNx4cI0T5OSapYbh9BXy2yAMSJ3wKMuffeXm6Mk67UL2dX6DBufPtUP6daaqPOQ9PC1GgC284ISKY6c0-IEbSvjxBafJ8t6QEGPZFFOcjA1JLImCHLFedDjSSrJA1YWs5JZWYBAUS_BLujp3Qjj2dasocjJ5EUX80gi7F7TWtrzsYm-M6jQ1OiNS_KiMZ3x1WVAJTICdRdcQynsFgE19aIDawYcJ5FvLmN_QDrku8bDzmlLkwSVQjbu3idQVYViFdgLFUMh3qOnIiF7HnXrmFl4addj7iH2izkmnV9-0_XntI2N9yDRyfyzCnTwpHG7GuzULd7NkvE8aAK7cOLJBtxU2sc5P_-_ueVqE5goYrOIgxSYSfLL_j3ji8TjeNJQwY3TfQBhjhjBiNW40]--></g></svg>