<svg xmlns="http://www.w3.org/2000/svg" xmlns:xlink="http://www.w3.org/1999/xlink" contentStyleType="text/css" height="1025px" preserveAspectRatio="none" style="width:421px;height:1025px;background:#FFFFFF;" version="1.1" viewBox="0 0 421 1025" width="421px" zoomAndPan="magnify"><title>Activity Diagram</title><defs/><g><text fill="#000000" font-family="sans-serif" font-size="14" font-weight="bold" lengthAdjust="spacing" textLength="110.4824" x="154" y="34.5332">Activity Diagram</text><text fill="#000000" font-family="sans-serif" font-size="14" font-weight="bold" lengthAdjust="spacing" textLength="155.5586" x="131.4619" y="52.1426">Stock Opname (Hitung)</text><ellipse cx="210.7412" cy="76.2188" fill="#222222" rx="10" ry="10" style="stroke:#222222;stroke-width:1.0;"/><rect fill="#F1F1F1" height="35.0938" rx="12.5" ry="12.5" style="stroke:#181818;stroke-width:0.5;" width="256.8184" x="82.332" y="106.2188"/><text fill="#000000" font-family="sans-serif" font-size="12" lengthAdjust="spacing" textLength="236.8184" x="92.332" y="128.6758">Bagian Inventori mengakses halaman hitung</text><rect fill="#F1F1F1" height="35.0938" rx="12.5" ry="12.5" style="stroke:#181818;stroke-width:0.5;" width="248.123" x="86.6797" y="161.3125"/><text fill="#000000" font-family="sans-serif" font-size="12" lengthAdjust="spacing" textLength="228.123" x="96.6797" y="183.7695">Sistem menampilkan daftar rencana hitung</text><rect fill="#F1F1F1" height="35.0938" rx="12.5" ry="12.5" style="stroke:#181818;stroke-width:0.5;" width="152.75" x="134.3662" y="216.4063"/><text fill="#000000" font-family="sans-serif" font-size="12" lengthAdjust="spacing" textLength="132.75" x="144.3662" y="238.8633">Membuat rencana hitung</text><rect fill="#F1F1F1" height="35.0938" rx="12.5" ry="12.5" style="stroke:#181818;stroke-width:0.5;" width="258.7344" x="81.374" y="271.5"/><text fill="#000000" font-family="sans-serif" font-size="12" lengthAdjust="spacing" textLength="238.7344" x="91.374" y="293.957">Sistem generate nomor HC-YYMMDD-XXXX</text><rect fill="#F1F1F1" height="35.0938" rx="12.5" ry="12.5" style="stroke:#181818;stroke-width:0.5;" width="166.7598" x="127.3613" y="326.5938"/><text fill="#000000" font-family="sans-serif" font-size="12" lengthAdjust="spacing" textLength="146.7598" x="137.3613" y="349.0508">Memulai penghitungan stok</text><rect fill="#F1F1F1" height="35.0938" rx="12.5" ry="12.5" style="stroke:#181818;stroke-width:0.5;" width="267.4238" x="77.0293" y="381.6875"/><text fill="#000000" font-family="sans-serif" font-size="12" lengthAdjust="spacing" textLength="247.4238" x="87.0293" y="404.1445">Sistem menampilkan kuantitas sistem per item</text><rect fill="#F1F1F1" height="35.0938" rx="12.5" ry="12.5" style="stroke:#181818;stroke-width:0.5;" width="178.0801" x="121.7012" y="480.7813"/><text fill="#000000" font-family="sans-serif" font-size="12" lengthAdjust="spacing" textLength="158.0801" x="131.7012" y="503.2383">Memasukkan kuantitas aktual</text><rect fill="#F1F1F1" height="35.0938" rx="12.5" ry="12.5" style="stroke:#181818;stroke-width:0.5;" width="208.0859" x="106.6982" y="543.375"/><text fill="#000000" font-family="sans-serif" font-size="12" lengthAdjust="spacing" textLength="188.0859" x="116.6982" y="565.832">Sistem menghitung selisih otomatis</text><polygon fill="#F1F1F1" points="210.7412,436.7813,222.7412,448.7813,210.7412,460.7813,198.7412,448.7813,210.7412,436.7813" style="stroke:#181818;stroke-width:0.5;"/><polygon fill="#F1F1F1" points="175.8882,598.4688,245.5942,598.4688,257.5942,610.4688,245.5942,622.4688,175.8882,622.4688,163.8882,610.4688,175.8882,598.4688" style="stroke:#181818;stroke-width:0.5;"/><text fill="#000000" font-family="sans-serif" font-size="11" lengthAdjust="spacing" textLength="69.7061" x="175.8882" y="614.9697">Ada item lain?</text><text fill="#000000" font-family="sans-serif" font-size="11" lengthAdjust="spacing" textLength="13.4546" x="257.5942" y="608.0518">Ya</text><rect fill="#F1F1F1" height="35.0938" rx="12.5" ry="12.5" style="stroke:#181818;stroke-width:0.5;" width="192.1074" x="114.6875" y="664.7217"/><text fill="#000000" font-family="sans-serif" font-size="12" lengthAdjust="spacing" textLength="172.1074" x="124.6875" y="687.1787">Menyelesaikan perhitungan stok</text><rect fill="#555555" height="6" rx="2.5" ry="2.5" style="stroke:#555555;stroke-width:1.0;" width="399.4824" x="11" y="719.8154"/><rect fill="#F1F1F1" height="35.0938" rx="12.5" ry="12.5" style="stroke:#181818;stroke-width:0.5;" width="170.0762" x="23" y="745.8154"/><text fill="#000000" font-family="sans-serif" font-size="12" lengthAdjust="spacing" textLength="150.0762" x="33" y="768.2725">Sistem menyesuaikan batch</text><rect fill="#F1F1F1" height="35.0938" rx="12.5" ry="12.5" style="stroke:#181818;stroke-width:0.5;" width="177.4063" x="221.0762" y="745.8154"/><text fill="#000000" font-family="sans-serif" font-size="12" lengthAdjust="spacing" textLength="157.4063" x="231.0762" y="768.2725">Sistem mencatat log inventori</text><rect fill="#555555" height="6" rx="2.5" ry="2.5" style="stroke:#555555;stroke-width:1.0;" width="399.4824" x="11" y="800.9092"/><rect fill="#F1F1F1" height="35.0938" rx="12.5" ry="12.5" style="stroke:#181818;stroke-width:0.5;" width="136.0566" x="142.7129" y="826.9092"/><text fill="#000000" font-family="sans-serif" font-size="12" lengthAdjust="spacing" textLength="116.0566" x="152.7129" y="849.3662">Melihat riwayat hitung</text><rect fill="#F1F1F1" height="35.0938" rx="12.5" ry="12.5" style="stroke:#181818;stroke-width:0.5;" width="144.7402" x="138.3711" y="882.0029"/><text fill="#000000" font-family="sans-serif" font-size="12" lengthAdjust="spacing" textLength="124.7402" x="148.3711" y="904.46">Melihat alur persediaan</text><rect fill="#F1F1F1" height="35.0938" rx="12.5" ry="12.5" style="stroke:#181818;stroke-width:0.5;" width="260.1348" x="80.6738" y="937.0967"/><text fill="#000000" font-family="sans-serif" font-size="12" lengthAdjust="spacing" textLength="240.1348" x="90.6738" y="959.5537">Sistem menampilkan log perubahan inventori</text><ellipse cx="210.7412" cy="1003.1904" fill="none" rx="11" ry="11" style="stroke:#222222;stroke-width:1.0;"/><ellipse cx="210.7412" cy="1003.1904" fill="#222222" rx="6" ry="6" style="stroke:#222222;stroke-width:1.0;"/><line style="stroke:#181818;stroke-width:1.0;" x1="210.7412" x2="210.7412" y1="86.2188" y2="106.2188"/><polygon fill="#181818" points="206.7412,96.2188,210.7412,106.2188,214.7412,96.2188,210.7412,100.2188" style="stroke:#181818;stroke-width:1.0;"/><line style="stroke:#181818;stroke-width:1.0;" x1="210.7412" x2="210.7412" y1="141.3125" y2="161.3125"/><polygon fill="#181818" points="206.7412,151.3125,210.7412,161.3125,214.7412,151.3125,210.7412,155.3125" style="stroke:#181818;stroke-width:1.0;"/><line style="stroke:#181818;stroke-width:1.0;" x1="210.7412" x2="210.7412" y1="196.4063" y2="216.4063"/><polygon fill="#181818" points="206.7412,206.4063,210.7412,216.4063,214.7412,206.4063,210.7412,210.4063" style="stroke:#181818;stroke-width:1.0;"/><line style="stroke:#181818;stroke-width:1.0;" x1="210.7412" x2="210.7412" y1="251.5" y2="271.5"/><polygon fill="#181818" points="206.7412,261.5,210.7412,271.5,214.7412,261.5,210.7412,265.5" style="stroke:#181818;stroke-width:1.0;"/><line style="stroke:#181818;stroke-width:1.0;" x1="210.7412" x2="210.7412" y1="306.5938" y2="326.5938"/><polygon fill="#181818" points="206.7412,316.5938,210.7412,326.5938,214.7412,316.5938,210.7412,320.5938" style="stroke:#181818;stroke-width:1.0;"/><line style="stroke:#181818;stroke-width:1.0;" x1="210.7412" x2="210.7412" y1="361.6875" y2="381.6875"/><polygon fill="#181818" points="206.7412,371.6875,210.7412,381.6875,214.7412,371.6875,210.7412,375.6875" style="stroke:#181818;stroke-width:1.0;"/><line style="stroke:#181818;stroke-width:1.0;" x1="210.7412" x2="210.7412" y1="515.875" y2="543.375"/><polygon fill="#181818" points="206.7412,533.375,210.7412,543.375,214.7412,533.375,210.7412,537.375" style="stroke:#181818;stroke-width:1.0;"/><line style="stroke:#181818;stroke-width:1.0;" x1="210.7412" x2="210.7412" y1="460.7813" y2="480.7813"/><polygon fill="#181818" points="206.7412,470.7813,210.7412,480.7813,214.7412,470.7813,210.7412,474.7813" style="stroke:#181818;stroke-width:1.0;"/><line style="stroke:#181818;stroke-width:1.0;" x1="257.5942" x2="326.7842" y1="610.4688" y2="610.4688"/><polygon fill="#181818" points="322.7842,535.875,326.7842,525.875,330.7842,535.875,326.7842,531.875" style="stroke:#181818;stroke-width:1.0;"/><line style="stroke:#181818;stroke-width:1.0;" x1="326.7842" x2="326.7842" y1="448.7813" y2="610.4688"/><line style="stroke:#181818;stroke-width:1.0;" x1="326.7842" x2="222.7412" y1="448.7813" y2="448.7813"/><polygon fill="#181818" points="232.7412,444.7813,222.7412,448.7813,232.7412,452.7813,228.7412,448.7813" style="stroke:#181818;stroke-width:1.0;"/><line style="stroke:#181818;stroke-width:1.0;" x1="210.7412" x2="210.7412" y1="578.4688" y2="598.4688"/><polygon fill="#181818" points="206.7412,588.4688,210.7412,598.4688,214.7412,588.4688,210.7412,592.4688" style="stroke:#181818;stroke-width:1.0;"/><line style="stroke:#181818;stroke-width:1.0;" x1="210.7412" x2="210.7412" y1="416.7813" y2="436.7813"/><polygon fill="#181818" points="206.7412,426.7813,210.7412,436.7813,214.7412,426.7813,210.7412,430.7813" style="stroke:#181818;stroke-width:1.0;"/><line style="stroke:#181818;stroke-width:1.0;" x1="210.7412" x2="210.7412" y1="622.4688" y2="664.7217"/><polygon fill="#181818" points="206.7412,654.7217,210.7412,664.7217,214.7412,654.7217,210.7412,658.7217" style="stroke:#181818;stroke-width:1.0;"/><text fill="#000000" font-family="sans-serif" font-size="11" lengthAdjust="spacing" textLength="26.8984" x="214.7412" y="644.8047">Tidak</text><line style="stroke:#181818;stroke-width:1.0;" x1="108.0381" x2="108.0381" y1="725.8154" y2="745.8154"/><polygon fill="#181818" points="104.0381,735.8154,108.0381,745.8154,112.0381,735.8154,108.0381,739.8154" style="stroke:#181818;stroke-width:1.0;"/><line style="stroke:#181818;stroke-width:1.0;" x1="309.7793" x2="309.7793" y1="725.8154" y2="745.8154"/><polygon fill="#181818" points="305.7793,735.8154,309.7793,745.8154,313.7793,735.8154,309.7793,739.8154" style="stroke:#181818;stroke-width:1.0;"/><line style="stroke:#181818;stroke-width:1.0;" x1="108.0381" x2="108.0381" y1="780.9092" y2="800.9092"/><polygon fill="#181818" points="104.0381,790.9092,108.0381,800.9092,112.0381,790.9092,108.0381,794.9092" style="stroke:#181818;stroke-width:1.0;"/><line style="stroke:#181818;stroke-width:1.0;" x1="309.7793" x2="309.7793" y1="780.9092" y2="800.9092"/><polygon fill="#181818" points="305.7793,790.9092,309.7793,800.9092,313.7793,790.9092,309.7793,794.9092" style="stroke:#181818;stroke-width:1.0;"/><line style="stroke:#181818;stroke-width:1.0;" x1="210.7412" x2="210.7412" y1="699.8154" y2="719.8154"/><polygon fill="#181818" points="206.7412,709.8154,210.7412,719.8154,214.7412,709.8154,210.7412,713.8154" style="stroke:#181818;stroke-width:1.0;"/><line style="stroke:#181818;stroke-width:1.0;" x1="210.7412" x2="210.7412" y1="806.9092" y2="826.9092"/><polygon fill="#181818" points="206.7412,816.9092,210.7412,826.9092,214.7412,816.9092,210.7412,820.9092" style="stroke:#181818;stroke-width:1.0;"/><line style="stroke:#181818;stroke-width:1.0;" x1="210.7412" x2="210.7412" y1="862.0029" y2="882.0029"/><polygon fill="#181818" points="206.7412,872.0029,210.7412,882.0029,214.7412,872.0029,210.7412,876.0029" style="stroke:#181818;stroke-width:1.0;"/><line style="stroke:#181818;stroke-width:1.0;" x1="210.7412" x2="210.7412" y1="917.0967" y2="937.0967"/><polygon fill="#181818" points="206.7412,927.0967,210.7412,937.0967,214.7412,927.0967,210.7412,931.0967" style="stroke:#181818;stroke-width:1.0;"/><line style="stroke:#181818;stroke-width:1.0;" x1="210.7412" x2="210.7412" y1="972.1904" y2="992.1904"/><polygon fill="#181818" points="206.7412,982.1904,210.7412,992.1904,214.7412,982.1904,210.7412,986.1904" style="stroke:#181818;stroke-width:1.0;"/><!--SRC=[RL6xRkD03EptArZQXNyW0d98paMkC58unHcuPYmn4h4lOPTAuBy_IdAGd2_Rx2vcE3CagvSqeY0IMfKtqSjnmCYKMqMVatCg6fWUhY3j1Rsn_wIZvjRJyvWGcJPFebFgjyvLHL5tzuXUaEXNUkEakGX5JZryvKe30g9XmrBIkBkZLEKuCn172Twm3g-cGuLJYuHFwe7ZUOB-3rmrUavSe4mfnrpewUVkT3eSzllTRpkDMmIc0A7Hugp5vbOr- -zp-0d91e1ATGL7BYJsCAt28qCTsPbbKIV_RmcyJWZDolWKl_fIvI1L1igQ8rHgSrMazq5iufk73eiLMTxqOqjIQNF2rktkNwI3Nxj95mvS8REpPRjfoRtcuc_zBrodjU0CROTc8H5wSxcbjb3B4t9Fyh78nd7gQD6T_OCCypha7HUxl-nf1H2cCkUgt0cGlX_oh6-SwOp1Vb-Sh8dH_GK0]--></g></svg>