<svg xmlns="http://www.w3.org/2000/svg" xmlns:xlink="http://www.w3.org/1999/xlink" contentStyleType="text/css" height="1387px" preserveAspectRatio="none" style="width:1671px;height:1387px;background:#FFFFFF;" version="1.1" viewBox="0 0 1671 1387" width="1671px" zoomAndPan="magnify"><defs/><g><rect fill="none" height="22.6406" style="stroke:none;stroke-width:1.0;" width="1638.2866" x="15" y="12.4551"/><ellipse cx="350.4941" cy="50.0957" fill="#222222" rx="10" ry="10" style="stroke:#222222;stroke-width:1.0;"/><rect fill="#F1F1F1" height="35.0938" rx="12.5" ry="12.5" style="stroke:#181818;stroke-width:0.5;" width="160.0742" x="270.457" y="80.0957"/><text fill="#000000" font-family="sans-serif" font-size="12" lengthAdjust="spacing" textLength="140.0742" x="280.457" y="102.5527">Membuka halaman Hitung</text><rect fill="#F1F1F1" height="35.0938" rx="12.5" ry="12.5" style="stroke:#181818;stroke-width:0.5;" width="180.1016" x="260.4434" y="135.1895"/><text fill="#000000" font-family="sans-serif" font-size="12" lengthAdjust="spacing" textLength="160.1016" x="270.4434" y="157.6465">Membuat rencana hitung baru</text><path d="M427.5068,180.2832 L427.5068,213.9863 L407.5068,217.9863 L427.5068,221.9863 L427.5068,255.6895 A0,0 0 0 0 427.5068,255.6895 L587.2285,255.6895 A0,0 0 0 0 587.2285,255.6895 L587.2285,190.2832 L577.2285,180.2832 L427.5068,180.2832 A0,0 0 0 0 427.5068,180.2832 " fill="#FEFFDD" style="stroke:#181818;stroke-width:0.5;"/><path d="M577.2285,180.2832 L577.2285,190.2832 L587.2285,190.2832 L577.2285,180.2832 " fill="#FEFFDD" style="stroke:#181818;stroke-width:0.5;"/><text fill="#000000" font-family="sans-serif" font-size="13" lengthAdjust="spacing" textLength="60.6899" x="433.5068" y="198.7783">Jenis aksi:</text><text fill="#000000" font-family="sans-serif" font-size="13" lengthAdjust="spacing" textLength="138.7217" x="433.5068" y="215.1299">- Hitung (stock opname)</text><text fill="#000000" font-family="sans-serif" font-size="13" lengthAdjust="spacing" textLength="120.6436" x="433.5068" y="231.4814">- Rusak (catat rusak)</text><text fill="#000000" font-family="sans-serif" font-size="13" lengthAdjust="spacing" textLength="123.5571" x="433.5068" y="247.833">- Hilang (catat hilang)</text><rect fill="#F1F1F1" height="35.0938" rx="12.5" ry="12.5" style="stroke:#181818;stroke-width:0.5;" width="114.0254" x="293.4814" y="200.4395"/><text fill="#000000" font-family="sans-serif" font-size="12" lengthAdjust="spacing" textLength="94.0254" x="303.4814" y="222.8965">Memilih jenis aksi</text><polygon fill="#F1F1F1" points="108.5144,275.6895,162.929,275.6895,174.929,287.6895,162.929,299.6895,108.5144,299.6895,96.5144,287.6895,108.5144,275.6895" style="stroke:#181818;stroke-width:0.5;"/><text fill="#000000" font-family="sans-serif" font-size="11" lengthAdjust="spacing" textLength="31.7969" x="139.7217" y="311.1084">Hitung</text><text fill="#000000" font-family="sans-serif" font-size="11" lengthAdjust="spacing" textLength="54.4146" x="108.5144" y="292.1904">Jenis aksi?</text><rect fill="#F1F1F1" height="35.0938" rx="12.5" ry="12.5" style="stroke:#181818;stroke-width:0.5;" width="202.1211" x="34.6611" y="332.6084"/><text fill="#000000" font-family="sans-serif" font-size="12" lengthAdjust="spacing" textLength="182.1211" x="44.6611" y="355.0654">Memilih bahan yang akan dihitung</text><rect fill="#F1F1F1" height="35.0938" rx="12.5" ry="12.5" style="stroke:#181818;stroke-width:0.5;" width="164.7559" x="53.3438" y="387.7021"/><text fill="#000000" font-family="sans-serif" font-size="12" lengthAdjust="spacing" textLength="144.7559" x="63.3438" y="410.1592">Menyimpan rencana hitung</text><rect fill="#F1F1F1" height="35.0938" rx="12.5" ry="12.5" style="stroke:#181818;stroke-width:0.5;" width="141.418" x="65.0127" y="628.9717"/><text fill="#000000" font-family="sans-serif" font-size="12" lengthAdjust="spacing" textLength="121.418" x="75.0127" y="651.4287">Memulai penghitungan</text><rect fill="#F1F1F1" height="35.0938" rx="12.5" ry="12.5" style="stroke:#181818;stroke-width:0.5;" width="229.4434" x="21" y="753.0889"/><text fill="#000000" font-family="sans-serif" font-size="12" lengthAdjust="spacing" textLength="209.4434" x="31" y="775.5459">Memasukkan jumlah aktual hasil hitung</text><polygon fill="#F1F1F1" points="418.6511,275.6895,473.0657,275.6895,485.0657,287.6895,473.0657,299.6895,418.6511,299.6895,406.6511,287.6895,418.6511,275.6895" style="stroke:#181818;stroke-width:0.5;"/><text fill="#000000" font-family="sans-serif" font-size="11" lengthAdjust="spacing" textLength="31.1792" x="449.8584" y="311.1084">Rusak</text><text fill="#000000" font-family="sans-serif" font-size="11" lengthAdjust="spacing" textLength="54.4146" x="418.6511" y="292.1904">Jenis aksi?</text><text fill="#000000" font-family="sans-serif" font-size="11" lengthAdjust="spacing" textLength="31.1846" x="485.0657" y="285.2725">Hilang</text><rect fill="#F1F1F1" height="35.0938" rx="12.5" ry="12.5" style="stroke:#181818;stroke-width:0.5;" width="166.7246" x="362.4961" y="628.9717"/><text fill="#000000" font-family="sans-serif" font-size="12" lengthAdjust="spacing" textLength="146.7246" x="372.4961" y="651.4287">Memulai proses catat rusak</text><rect fill="#F1F1F1" height="35.0938" rx="12.5" ry="12.5" style="stroke:#181818;stroke-width:0.5;" width="176.0586" x="357.8291" y="691.0303"/><text fill="#000000" font-family="sans-serif" font-size="12" lengthAdjust="spacing" textLength="156.0586" x="367.8291" y="713.4873">Mengkonfirmasi jumlah rusak</text><rect fill="#F1F1F1" height="35.0938" rx="12.5" ry="12.5" style="stroke:#181818;stroke-width:0.5;" width="169.4082" x="596.6113" y="746.124"/><text fill="#000000" font-family="sans-serif" font-size="12" lengthAdjust="spacing" textLength="149.4082" x="606.6113" y="768.5811">Memulai proses catat hilang</text><rect fill="#F1F1F1" height="35.0938" rx="12.5" ry="12.5" style="stroke:#181818;stroke-width:0.5;" width="178.7422" x="591.9443" y="808.1826"/><text fill="#000000" font-family="sans-serif" font-size="12" lengthAdjust="spacing" textLength="158.7422" x="601.9443" y="830.6396">Mengkonfirmasi jumlah hilang</text><line style="stroke:#000000;stroke-width:1.5;" x1="15" x2="15" y1="12.4551" y2="1375.4326"/><rect fill="#F1F1F1" height="35.0938" rx="12.5" ry="12.5" style="stroke:#181818;stroke-width:0.5;" width="265.4082" x="853.2407" y="442.7959"/><text fill="#000000" font-family="sans-serif" font-size="12" lengthAdjust="spacing" textLength="245.4082" x="863.2407" y="465.2529">Generate nomor hitung (HC-YYMMDD-XXXX)</text><rect fill="#F1F1F1" height="35.0938" rx="12.5" ry="12.5" style="stroke:#181818;stroke-width:0.5;" width="251.4863" x="860.2017" y="504.8545"/><text fill="#000000" font-family="sans-serif" font-size="12" lengthAdjust="spacing" textLength="231.4863" x="870.2017" y="527.3115">Menyimpan hitung dengan status: Rencana</text><rect fill="#F1F1F1" height="35.0938" rx="12.5" ry="12.5" style="stroke:#181818;stroke-width:0.5;" width="156.0781" x="907.9058" y="566.9131"/><text fill="#000000" font-family="sans-serif" font-size="12" lengthAdjust="spacing" textLength="136.0781" x="917.9058" y="589.3701">Menyimpan hitung details</text><rect fill="#F1F1F1" height="35.0938" rx="12.5" ry="12.5" style="stroke:#181818;stroke-width:0.5;" width="138.0605" x="916.9146" y="691.0303"/><text fill="#000000" font-family="sans-serif" font-size="12" lengthAdjust="spacing" textLength="118.0605" x="926.9146" y="713.4873">Update status: Proses</text><rect fill="#F1F1F1" height="35.0938" rx="12.5" ry="12.5" style="stroke:#181818;stroke-width:0.5;" width="216.0781" x="877.9058" y="815.1475"/><text fill="#000000" font-family="sans-serif" font-size="12" lengthAdjust="spacing" textLength="196.0781" x="887.9058" y="837.6045">Menghitung selisih (sistem vs aktual)</text><polygon fill="#F1F1F1" points="956.2883,877.2061,1015.6013,877.2061,1027.6013,889.2061,1015.6013,901.2061,956.2883,901.2061,944.2883,889.2061,956.2883,877.2061" style="stroke:#181818;stroke-width:0.5;"/><text fill="#000000" font-family="sans-serif" font-size="11" lengthAdjust="spacing" textLength="59.313" x="956.2883" y="893.707">Ada selisih?</text><text fill="#000000" font-family="sans-serif" font-size="11" lengthAdjust="spacing" textLength="13.4546" x="930.8337" y="886.7891">Ya</text><text fill="#000000" font-family="sans-serif" font-size="11" lengthAdjust="spacing" textLength="26.8984" x="1027.6013" y="886.7891">Tidak</text><rect fill="#F1F1F1" height="35.0938" rx="12.5" ry="12.5" style="stroke:#181818;stroke-width:0.5;" width="131.3926" x="818.7021" y="911.2061"/><text fill="#000000" font-family="sans-serif" font-size="12" lengthAdjust="spacing" textLength="111.3926" x="828.7021" y="933.6631">Mencatat adjustment</text><rect fill="#F1F1F1" height="35.0938" rx="12.5" ry="12.5" style="stroke:#181818;stroke-width:0.5;" width="150.0957" x="809.3506" y="981.2998"/><text fill="#000000" font-family="sans-serif" font-size="12" lengthAdjust="spacing" textLength="130.0957" x="819.3506" y="1003.7568">Update stok bahan baku</text><rect fill="#F1F1F1" height="35.0938" rx="12.5" ry="12.5" style="stroke:#181818;stroke-width:0.5;" width="207.4238" x="780.6865" y="1036.3936"/><text fill="#000000" font-family="sans-serif" font-size="12" lengthAdjust="spacing" textLength="187.4238" x="790.6865" y="1058.8506">Mencatat log inventori (adjustment)</text><rect fill="#F1F1F1" height="35.0938" rx="12.5" ry="12.5" style="stroke:#181818;stroke-width:0.5;" width="158.7617" x="1008.1104" y="911.2061"/><text fill="#000000" font-family="sans-serif" font-size="12" lengthAdjust="spacing" textLength="138.7617" x="1018.1104" y="933.6631">Tidak ada perubahan stok</text><polygon fill="#F1F1F1" points="985.9448,1077.4873,997.9448,1089.4873,985.9448,1101.4873,973.9448,1089.4873,985.9448,1077.4873" style="stroke:#181818;stroke-width:0.5;"/><rect fill="#F1F1F1" height="35.0938" rx="12.5" ry="12.5" style="stroke:#181818;stroke-width:0.5;" width="160.0742" x="1224.5635" y="332.6084"/><text fill="#000000" font-family="sans-serif" font-size="12" lengthAdjust="spacing" textLength="140.0742" x="1234.5635" y="355.0654">Memilih bahan yang rusak</text><rect fill="#F1F1F1" height="35.0938" rx="12.5" ry="12.5" style="stroke:#181818;stroke-width:0.5;" width="162.7227" x="1223.2393" y="387.7021"/><text fill="#000000" font-family="sans-serif" font-size="12" lengthAdjust="spacing" textLength="142.7227" x="1233.2393" y="410.1592">Memasukkan jumlah rusak</text><rect fill="#F1F1F1" height="35.0938" rx="12.5" ry="12.5" style="stroke:#181818;stroke-width:0.5;" width="128.7266" x="1240.2373" y="442.7959"/><text fill="#000000" font-family="sans-serif" font-size="12" lengthAdjust="spacing" textLength="108.7266" x="1250.2373" y="465.2529">Menyimpan rencana</text><rect fill="#F1F1F1" height="35.0938" rx="12.5" ry="12.5" style="stroke:#181818;stroke-width:0.5;" width="143.4102" x="1232.8955" y="504.8545"/><text fill="#000000" font-family="sans-serif" font-size="12" lengthAdjust="spacing" textLength="123.4102" x="1242.8955" y="527.3115">Generate nomor hitung</text><rect fill="#F1F1F1" height="35.0938" rx="12.5" ry="12.5" style="stroke:#181818;stroke-width:0.5;" width="215.457" x="1196.8721" y="566.9131"/><text fill="#000000" font-family="sans-serif" font-size="12" lengthAdjust="spacing" textLength="195.457" x="1206.8721" y="589.3701">Menyimpan dengan status: Rencana</text><rect fill="#F1F1F1" height="35.0938" rx="12.5" ry="12.5" style="stroke:#181818;stroke-width:0.5;" width="174.7754" x="1217.2129" y="753.0889"/><text fill="#000000" font-family="sans-serif" font-size="12" lengthAdjust="spacing" textLength="154.7754" x="1227.2129" y="775.5459">Mengurangi stok bahan baku</text><rect fill="#F1F1F1" height="35.0938" rx="12.5" ry="12.5" style="stroke:#181818;stroke-width:0.5;" width="178.0684" x="1215.5664" y="815.1475"/><text fill="#000000" font-family="sans-serif" font-size="12" lengthAdjust="spacing" textLength="158.0684" x="1225.5664" y="837.6045">Mencatat log inventori (rusak)</text><rect fill="#F1F1F1" height="35.0938" rx="12.5" ry="12.5" style="stroke:#181818;stroke-width:0.5;" width="162.7578" x="1458.6787" y="435.8311"/><text fill="#000000" font-family="sans-serif" font-size="12" lengthAdjust="spacing" textLength="142.7578" x="1468.6787" y="458.2881">Memilih bahan yang hilang</text><rect fill="#F1F1F1" height="35.0938" rx="12.5" ry="12.5" style="stroke:#181818;stroke-width:0.5;" width="165.4063" x="1457.3545" y="497.8896"/><text fill="#000000" font-family="sans-serif" font-size="12" lengthAdjust="spacing" textLength="145.4063" x="1467.3545" y="520.3467">Memasukkan jumlah hilang</text><rect fill="#F1F1F1" height="35.0938" rx="12.5" ry="12.5" style="stroke:#181818;stroke-width:0.5;" width="128.7266" x="1475.6943" y="559.9482"/><text fill="#000000" font-family="sans-serif" font-size="12" lengthAdjust="spacing" textLength="108.7266" x="1485.6943" y="582.4053">Menyimpan rencana</text><rect fill="#F1F1F1" height="35.0938" rx="12.5" ry="12.5" style="stroke:#181818;stroke-width:0.5;" width="143.4102" x="1468.3525" y="622.0068"/><text fill="#000000" font-family="sans-serif" font-size="12" lengthAdjust="spacing" textLength="123.4102" x="1478.3525" y="644.4639">Generate nomor hitung</text><rect fill="#F1F1F1" height="35.0938" rx="12.5" ry="12.5" style="stroke:#181818;stroke-width:0.5;" width="215.457" x="1432.3291" y="684.0654"/><text fill="#000000" font-family="sans-serif" font-size="12" lengthAdjust="spacing" textLength="195.457" x="1442.3291" y="706.5225">Menyimpan dengan status: Rencana</text><rect fill="#F1F1F1" height="35.0938" rx="12.5" ry="12.5" style="stroke:#181818;stroke-width:0.5;" width="174.7754" x="1452.6699" y="870.2412"/><text fill="#000000" font-family="sans-serif" font-size="12" lengthAdjust="spacing" textLength="154.7754" x="1462.6699" y="892.6982">Mengurangi stok bahan baku</text><rect fill="#F1F1F1" height="35.0938" rx="12.5" ry="12.5" style="stroke:#181818;stroke-width:0.5;" width="180.752" x="1449.6816" y="940.335"/><text fill="#000000" font-family="sans-serif" font-size="12" lengthAdjust="spacing" textLength="160.752" x="1459.6816" y="962.792">Mencatat log inventori (hilang)</text><rect fill="#F1F1F1" height="35.0938" rx="12.5" ry="12.5" style="stroke:#181818;stroke-width:0.5;" width="176.0996" x="1121.1865" y="1141.4873"/><text fill="#000000" font-family="sans-serif" font-size="12" lengthAdjust="spacing" textLength="156.0996" x="1131.1865" y="1163.9443">Update status hitung: Selesai</text><path d="M1338.9629,1186.5811 L1338.9629,1228.46 L1318.9629,1232.46 L1338.9629,1236.46 L1338.9629,1278.3389 A0,0 0 0 0 1338.9629,1278.3389 L1446.6465,1278.3389 A0,0 0 0 0 1446.6465,1278.3389 L1446.6465,1196.5811 L1436.6465,1186.5811 L1338.9629,1186.5811 A0,0 0 0 0 1338.9629,1186.5811 " fill="#FEFFDD" style="stroke:#181818;stroke-width:0.5;"/><path d="M1436.6465,1186.5811 L1436.6465,1196.5811 L1446.6465,1196.5811 L1436.6465,1186.5811 " fill="#FEFFDD" style="stroke:#181818;stroke-width:0.5;"/><text fill="#000000" font-family="sans-serif" font-size="13" lengthAdjust="spacing" textLength="80.228" x="1344.9629" y="1205.0762">Status bahan:</text><text fill="#000000" font-family="sans-serif" font-size="13" lengthAdjust="spacing" textLength="58.519" x="1344.9629" y="1221.4277">- Tersedia</text><text fill="#000000" font-family="sans-serif" font-size="13" lengthAdjust="spacing" textLength="86.6836" x="1344.9629" y="1237.7793">- Hampir Habis</text><text fill="#000000" font-family="sans-serif" font-size="13" lengthAdjust="spacing" textLength="52.0317" x="1344.9629" y="1254.1309">- Kosong</text><text fill="#000000" font-family="sans-serif" font-size="13" lengthAdjust="spacing" textLength="52.019" x="1344.9629" y="1270.4824">- Expired</text><rect fill="#F1F1F1" height="35.0938" rx="12.5" ry="12.5" style="stroke:#181818;stroke-width:0.5;" width="219.4531" x="1099.5098" y="1214.9131"/><text fill="#000000" font-family="sans-serif" font-size="12" lengthAdjust="spacing" textLength="199.4531" x="1109.5098" y="1237.3701">Update status bahan baku (jika perlu)</text><rect fill="#F1F1F1" height="35.0938" rx="12.5" ry="12.5" style="stroke:#181818;stroke-width:0.5;" width="184.0508" x="1117.2109" y="1298.3389"/><text fill="#000000" font-family="sans-serif" font-size="12" lengthAdjust="spacing" textLength="164.0508" x="1127.2109" y="1320.7959">Kirim notifikasi (Hitung selesai)</text><ellipse cx="1209.2363" cy="1364.4326" fill="none" rx="11" ry="11" style="stroke:#222222;stroke-width:1.0;"/><ellipse cx="1209.2363" cy="1364.4326" fill="#222222" rx="6" ry="6" style="stroke:#222222;stroke-width:1.0;"/><line style="stroke:#000000;stroke-width:1.5;" x1="774.6865" x2="774.6865" y1="12.4551" y2="1375.4326"/><line style="stroke:#000000;stroke-width:1.5;" x1="1651.7861" x2="1651.7861" y1="12.4551" y2="1375.4326"/><line style="stroke:#181818;stroke-width:1.0;" x1="350.4941" x2="350.4941" y1="60.0957" y2="80.0957"/><polygon fill="#181818" points="346.4941,70.0957,350.4941,80.0957,354.4941,70.0957,350.4941,74.0957" style="stroke:#181818;stroke-width:1.0;"/><line style="stroke:#181818;stroke-width:1.0;" x1="350.4941" x2="350.4941" y1="115.1895" y2="135.1895"/><polygon fill="#181818" points="346.4941,125.1895,350.4941,135.1895,354.4941,125.1895,350.4941,129.1895" style="stroke:#181818;stroke-width:1.0;"/><line style="stroke:#181818;stroke-width:1.0;" x1="350.4941" x2="350.4941" y1="170.2832" y2="200.4395"/><polygon fill="#181818" points="346.4941,190.4395,350.4941,200.4395,354.4941,190.4395,350.4941,194.4395" style="stroke:#181818;stroke-width:1.0;"/><line style="stroke:#181818;stroke-width:1.0;" x1="135.7217" x2="135.7217" y1="367.7021" y2="387.7021"/><polygon fill="#181818" points="131.7217,377.7021,135.7217,387.7021,139.7217,377.7021,135.7217,381.7021" style="stroke:#181818;stroke-width:1.0;"/><line style="stroke:#181818;stroke-width:1.0;" x1="445.8584" x2="445.8584" y1="664.0654" y2="691.0303"/><polygon fill="#181818" points="441.8584,681.0303,445.8584,691.0303,449.8584,681.0303,445.8584,685.0303" style="stroke:#181818;stroke-width:1.0;"/><line style="stroke:#181818;stroke-width:1.0;" x1="681.3154" x2="681.3154" y1="781.2178" y2="808.1826"/><polygon fill="#181818" points="677.3154,798.1826,681.3154,808.1826,685.3154,798.1826,681.3154,802.1826" style="stroke:#181818;stroke-width:1.0;"/><line style="stroke:#181818;stroke-width:1.0;" x1="135.7217" x2="135.7217" y1="299.6895" y2="332.6084"/><polygon fill="#181818" points="131.7217,322.6084,135.7217,332.6084,139.7217,322.6084,135.7217,326.6084" style="stroke:#181818;stroke-width:1.0;"/><line style="stroke:#181818;stroke-width:1.0;" x1="174.929" x2="406.6511" y1="287.6895" y2="287.6895"/><polygon fill="#181818" points="396.6511,283.6895,406.6511,287.6895,396.6511,291.6895,400.6511,287.6895" style="stroke:#181818;stroke-width:1.0;"/><line style="stroke:#181818;stroke-width:1.0;" x1="350.4941" x2="350.4941" y1="235.5332" y2="260.6895"/><line style="stroke:#181818;stroke-width:1.0;" x1="350.4941" x2="135.7217" y1="260.6895" y2="260.6895"/><line style="stroke:#181818;stroke-width:1.0;" x1="135.7217" x2="135.7217" y1="260.6895" y2="275.6895"/><polygon fill="#181818" points="131.7217,265.6895,135.7217,275.6895,139.7217,265.6895,135.7217,269.6895" style="stroke:#181818;stroke-width:1.0;"/><line style="stroke:#181818;stroke-width:1.0;" x1="985.9448" x2="985.9448" y1="477.8896" y2="504.8545"/><polygon fill="#181818" points="981.9448,494.8545,985.9448,504.8545,989.9448,494.8545,985.9448,498.8545" style="stroke:#181818;stroke-width:1.0;"/><line style="stroke:#181818;stroke-width:1.0;" x1="985.9448" x2="985.9448" y1="539.9482" y2="566.9131"/><polygon fill="#181818" points="981.9448,556.9131,985.9448,566.9131,989.9448,556.9131,985.9448,560.9131" style="stroke:#181818;stroke-width:1.0;"/><line style="stroke:#181818;stroke-width:1.0;" x1="884.3984" x2="884.3984" y1="946.2998" y2="981.2998"/><polygon fill="#181818" points="880.3984,971.2998,884.3984,981.2998,888.3984,971.2998,884.3984,975.2998" style="stroke:#181818;stroke-width:1.0;"/><line style="stroke:#181818;stroke-width:1.0;" x1="884.3984" x2="884.3984" y1="1016.3936" y2="1036.3936"/><polygon fill="#181818" points="880.3984,1026.3936,884.3984,1036.3936,888.3984,1026.3936,884.3984,1030.3936" style="stroke:#181818;stroke-width:1.0;"/><line style="stroke:#181818;stroke-width:1.0;" x1="944.2883" x2="884.3984" y1="889.2061" y2="889.2061"/><line style="stroke:#181818;stroke-width:1.0;" x1="884.3984" x2="884.3984" y1="889.2061" y2="911.2061"/><polygon fill="#181818" points="880.3984,901.2061,884.3984,911.2061,888.3984,901.2061,884.3984,905.2061" style="stroke:#181818;stroke-width:1.0;"/><line style="stroke:#181818;stroke-width:1.0;" x1="1027.6013" x2="1087.4912" y1="889.2061" y2="889.2061"/><line style="stroke:#181818;stroke-width:1.0;" x1="1087.4912" x2="1087.4912" y1="889.2061" y2="911.2061"/><polygon fill="#181818" points="1083.4912,901.2061,1087.4912,911.2061,1091.4912,901.2061,1087.4912,905.2061" style="stroke:#181818;stroke-width:1.0;"/><line style="stroke:#181818;stroke-width:1.0;" x1="884.3984" x2="884.3984" y1="1071.4873" y2="1089.4873"/><line style="stroke:#181818;stroke-width:1.0;" x1="884.3984" x2="973.9448" y1="1089.4873" y2="1089.4873"/><polygon fill="#181818" points="963.9448,1085.4873,973.9448,1089.4873,963.9448,1093.4873,967.9448,1089.4873" style="stroke:#181818;stroke-width:1.0;"/><line style="stroke:#181818;stroke-width:1.0;" x1="1087.4912" x2="1087.4912" y1="946.2998" y2="1089.4873"/><line style="stroke:#181818;stroke-width:1.0;" x1="1087.4912" x2="997.9448" y1="1089.4873" y2="1089.4873"/><polygon fill="#181818" points="1007.9448,1085.4873,997.9448,1089.4873,1007.9448,1093.4873,1003.9448,1089.4873" style="stroke:#181818;stroke-width:1.0;"/><line style="stroke:#181818;stroke-width:1.0;" x1="985.9448" x2="985.9448" y1="850.2412" y2="877.2061"/><polygon fill="#181818" points="981.9448,867.2061,985.9448,877.2061,989.9448,867.2061,985.9448,871.2061" style="stroke:#181818;stroke-width:1.0;"/><line style="stroke:#181818;stroke-width:1.0;" x1="1304.6006" x2="1304.6006" y1="367.7021" y2="387.7021"/><polygon fill="#181818" points="1300.6006,377.7021,1304.6006,387.7021,1308.6006,377.7021,1304.6006,381.7021" style="stroke:#181818;stroke-width:1.0;"/><line style="stroke:#181818;stroke-width:1.0;" x1="1304.6006" x2="1304.6006" y1="422.7959" y2="442.7959"/><polygon fill="#181818" points="1300.6006,432.7959,1304.6006,442.7959,1308.6006,432.7959,1304.6006,436.7959" style="stroke:#181818;stroke-width:1.0;"/><line style="stroke:#181818;stroke-width:1.0;" x1="1304.6006" x2="1304.6006" y1="477.8896" y2="504.8545"/><polygon fill="#181818" points="1300.6006,494.8545,1304.6006,504.8545,1308.6006,494.8545,1304.6006,498.8545" style="stroke:#181818;stroke-width:1.0;"/><line style="stroke:#181818;stroke-width:1.0;" x1="1304.6006" x2="1304.6006" y1="539.9482" y2="566.9131"/><polygon fill="#181818" points="1300.6006,556.9131,1304.6006,566.9131,1308.6006,556.9131,1304.6006,560.9131" style="stroke:#181818;stroke-width:1.0;"/><line style="stroke:#181818;stroke-width:1.0;" x1="1304.6006" x2="1304.6006" y1="788.1826" y2="815.1475"/><polygon fill="#181818" points="1300.6006,805.1475,1304.6006,815.1475,1308.6006,805.1475,1304.6006,809.1475" style="stroke:#181818;stroke-width:1.0;"/><line style="stroke:#181818;stroke-width:1.0;" x1="1540.0576" x2="1540.0576" y1="470.9248" y2="497.8896"/><polygon fill="#181818" points="1536.0576,487.8896,1540.0576,497.8896,1544.0576,487.8896,1540.0576,491.8896" style="stroke:#181818;stroke-width:1.0;"/><line style="stroke:#181818;stroke-width:1.0;" x1="1540.0576" x2="1540.0576" y1="532.9834" y2="559.9482"/><polygon fill="#181818" points="1536.0576,549.9482,1540.0576,559.9482,1544.0576,549.9482,1540.0576,553.9482" style="stroke:#181818;stroke-width:1.0;"/><line style="stroke:#181818;stroke-width:1.0;" x1="1540.0576" x2="1540.0576" y1="595.042" y2="622.0068"/><polygon fill="#181818" points="1536.0576,612.0068,1540.0576,622.0068,1544.0576,612.0068,1540.0576,616.0068" style="stroke:#181818;stroke-width:1.0;"/><line style="stroke:#181818;stroke-width:1.0;" x1="1540.0576" x2="1540.0576" y1="657.1006" y2="684.0654"/><polygon fill="#181818" points="1536.0576,674.0654,1540.0576,684.0654,1544.0576,674.0654,1540.0576,678.0654" style="stroke:#181818;stroke-width:1.0;"/><line style="stroke:#181818;stroke-width:1.0;" x1="1540.0576" x2="1540.0576" y1="905.335" y2="940.335"/><polygon fill="#181818" points="1536.0576,930.335,1540.0576,940.335,1544.0576,930.335,1540.0576,934.335" style="stroke:#181818;stroke-width:1.0;"/><line style="stroke:#181818;stroke-width:1.0;" x1="985.9448" x2="985.9448" y1="1101.4873" y2="1121.4873"/><polygon fill="#181818" points="981.9448,1111.4873,985.9448,1121.4873,989.9448,1111.4873,985.9448,1115.4873" style="stroke:#181818;stroke-width:1.0;"/><line style="stroke:#181818;stroke-width:1.0;" x1="1304.6006" x2="1304.6006" y1="850.2412" y2="1121.4873"/><polygon fill="#181818" points="1300.6006,1111.4873,1304.6006,1121.4873,1308.6006,1111.4873,1304.6006,1115.4873" style="stroke:#181818;stroke-width:1.0;"/><line style="stroke:#181818;stroke-width:1.0;" x1="1540.0576" x2="1540.0576" y1="975.4287" y2="1121.4873"/><polygon fill="#181818" points="1536.0576,1111.4873,1540.0576,1121.4873,1544.0576,1111.4873,1540.0576,1115.4873" style="stroke:#181818;stroke-width:1.0;"/><line style="stroke:#181818;stroke-width:1.0;" x1="985.9448" x2="1540.0576" y1="1121.4873" y2="1121.4873"/><line style="stroke:#181818;stroke-width:1.0;" x1="1209.2363" x2="1209.2363" y1="1176.5811" y2="1214.9131"/><polygon fill="#181818" points="1205.2363,1204.9131,1209.2363,1214.9131,1213.2363,1204.9131,1209.2363,1208.9131" style="stroke:#181818;stroke-width:1.0;"/><line style="stroke:#181818;stroke-width:1.0;" x1="1209.2363" x2="1209.2363" y1="1250.0068" y2="1298.3389"/><polygon fill="#181818" points="1205.2363,1288.3389,1209.2363,1298.3389,1213.2363,1288.3389,1209.2363,1292.3389" style="stroke:#181818;stroke-width:1.0;"/><line style="stroke:#181818;stroke-width:1.0;" x1="1209.2363" x2="1209.2363" y1="1333.4326" y2="1353.4326"/><polygon fill="#181818" points="1205.2363,1343.4326,1209.2363,1353.4326,1213.2363,1343.4326,1209.2363,1347.4326" style="stroke:#181818;stroke-width:1.0;"/><line style="stroke:#181818;stroke-width:1.0;" x1="135.7217" x2="135.7217" y1="422.7959" y2="427.7959"/><line style="stroke:#181818;stroke-width:1.0;" x1="135.7217" x2="985.9448" y1="427.7959" y2="427.7959"/><line style="stroke:#181818;stroke-width:1.0;" x1="985.9448" x2="985.9448" y1="427.7959" y2="442.7959"/><polygon fill="#181818" points="981.9448,432.7959,985.9448,442.7959,989.9448,432.7959,985.9448,436.7959" style="stroke:#181818;stroke-width:1.0;"/><line style="stroke:#181818;stroke-width:1.0;" x1="985.9448" x2="985.9448" y1="602.0068" y2="611.4717"/><line style="stroke:#181818;stroke-width:1.0;" x1="985.9448" x2="135.7217" y1="611.4717" y2="611.4717"/><line style="stroke:#181818;stroke-width:1.0;" x1="135.7217" x2="135.7217" y1="611.4717" y2="628.9717"/><polygon fill="#181818" points="131.7217,618.9717,135.7217,628.9717,139.7217,618.9717,135.7217,622.9717" style="stroke:#181818;stroke-width:1.0;"/><line style="stroke:#181818;stroke-width:1.0;" x1="135.7217" x2="135.7217" y1="664.0654" y2="673.5303"/><line style="stroke:#181818;stroke-width:1.0;" x1="135.7217" x2="985.9448" y1="673.5303" y2="673.5303"/><line style="stroke:#181818;stroke-width:1.0;" x1="985.9448" x2="985.9448" y1="673.5303" y2="691.0303"/><polygon fill="#181818" points="981.9448,681.0303,985.9448,691.0303,989.9448,681.0303,985.9448,685.0303" style="stroke:#181818;stroke-width:1.0;"/><line style="stroke:#181818;stroke-width:1.0;" x1="985.9448" x2="985.9448" y1="726.124" y2="735.5889"/><line style="stroke:#181818;stroke-width:1.0;" x1="985.9448" x2="135.7217" y1="735.5889" y2="735.5889"/><line style="stroke:#181818;stroke-width:1.0;" x1="135.7217" x2="135.7217" y1="735.5889" y2="753.0889"/><polygon fill="#181818" points="131.7217,743.0889,135.7217,753.0889,139.7217,743.0889,135.7217,747.0889" style="stroke:#181818;stroke-width:1.0;"/><line style="stroke:#181818;stroke-width:1.0;" x1="135.7217" x2="135.7217" y1="788.1826" y2="797.6475"/><line style="stroke:#181818;stroke-width:1.0;" x1="135.7217" x2="985.9448" y1="797.6475" y2="797.6475"/><line style="stroke:#181818;stroke-width:1.0;" x1="985.9448" x2="985.9448" y1="797.6475" y2="815.1475"/><polygon fill="#181818" points="981.9448,805.1475,985.9448,815.1475,989.9448,805.1475,985.9448,809.1475" style="stroke:#181818;stroke-width:1.0;"/><line style="stroke:#181818;stroke-width:1.0;" x1="1304.6006" x2="1304.6006" y1="602.0068" y2="611.4717"/><line style="stroke:#181818;stroke-width:1.0;" x1="1304.6006" x2="445.8584" y1="611.4717" y2="611.4717"/><line style="stroke:#181818;stroke-width:1.0;" x1="445.8584" x2="445.8584" y1="611.4717" y2="628.9717"/><polygon fill="#181818" points="441.8584,618.9717,445.8584,628.9717,449.8584,618.9717,445.8584,622.9717" style="stroke:#181818;stroke-width:1.0;"/><line style="stroke:#181818;stroke-width:1.0;" x1="445.8584" x2="445.8584" y1="726.124" y2="735.5889"/><line style="stroke:#181818;stroke-width:1.0;" x1="445.8584" x2="1304.6006" y1="735.5889" y2="735.5889"/><line style="stroke:#181818;stroke-width:1.0;" x1="1304.6006" x2="1304.6006" y1="735.5889" y2="753.0889"/><polygon fill="#181818" points="1300.6006,743.0889,1304.6006,753.0889,1308.6006,743.0889,1304.6006,747.0889" style="stroke:#181818;stroke-width:1.0;"/><line style="stroke:#181818;stroke-width:1.0;" x1="1540.0576" x2="1540.0576" y1="719.1592" y2="731.124"/><line style="stroke:#181818;stroke-width:1.0;" x1="1540.0576" x2="681.3154" y1="731.124" y2="731.124"/><line style="stroke:#181818;stroke-width:1.0;" x1="681.3154" x2="681.3154" y1="731.124" y2="746.124"/><polygon fill="#181818" points="677.3154,736.124,681.3154,746.124,685.3154,736.124,681.3154,740.124" style="stroke:#181818;stroke-width:1.0;"/><line style="stroke:#181818;stroke-width:1.0;" x1="681.3154" x2="681.3154" y1="843.2764" y2="855.2412"/><line style="stroke:#181818;stroke-width:1.0;" x1="681.3154" x2="1540.0576" y1="855.2412" y2="855.2412"/><line style="stroke:#181818;stroke-width:1.0;" x1="1540.0576" x2="1540.0576" y1="855.2412" y2="870.2412"/><polygon fill="#181818" points="1536.0576,860.2412,1540.0576,870.2412,1544.0576,860.2412,1540.0576,864.2412" style="stroke:#181818;stroke-width:1.0;"/><line style="stroke:#181818;stroke-width:1.0;" x1="445.8584" x2="445.8584" y1="299.6895" y2="303.6895"/><line style="stroke:#181818;stroke-width:1.0;" x1="445.8584" x2="1304.6006" y1="303.6895" y2="303.6895"/><line style="stroke:#181818;stroke-width:1.0;" x1="1304.6006" x2="1304.6006" y1="303.6895" y2="332.6084"/><polygon fill="#181818" points="1300.6006,322.6084,1304.6006,332.6084,1308.6006,322.6084,1304.6006,326.6084" style="stroke:#181818;stroke-width:1.0;"/><line style="stroke:#181818;stroke-width:1.0;" x1="350.4941" x2="350.4941" y1="1121.4873" y2="1126.4873"/><line style="stroke:#181818;stroke-width:1.0;" x1="350.4941" x2="1209.2363" y1="1126.4873" y2="1126.4873"/><line style="stroke:#181818;stroke-width:1.0;" x1="1209.2363" x2="1209.2363" y1="1126.4873" y2="1141.4873"/><polygon fill="#181818" points="1205.2363,1131.4873,1209.2363,1141.4873,1213.2363,1131.4873,1209.2363,1135.4873" style="stroke:#181818;stroke-width:1.0;"/><text fill="#000000" font-family="sans-serif" font-size="18" lengthAdjust="spacing" textLength="69.0381" x="360.3242" y="31.1406">Inventori</text><text fill="#000000" font-family="sans-serif" font-size="18" lengthAdjust="spacing" textLength="55.0107" x="1185.731" y="31.1406">Sistem</text><!--SRC=[pLLBZzem4BxdLymnEV07oA6gkbMtNI5Li9NASI26375ivCUgA_7ZEuwTnxAag58FvG0sy_xcyypbgteHocb3bymwD2vRhaIxymr2ZH9RLF18pgjZcGJem0YrHyKAdG1sQ7oPTMAILCD9ABA0ZQKoKze9C7IiNGRmRH0i-RP8ZY6tJkyRq6U5hIWwoTfRR23VemlXmgL85XA3HHJKtQt8XAeW1CeoEa0-HlbGWAk5WZm62Yu0XZHtM7Dnhy4VDdogg4w59ZNrIksP1M_BZUBkwx8XwqHxYGPVX186kLobMsrwSFB7JuljThLwU5Zyv4_npdlIguGwyerRuBnTmZh6dDTsID9ESvdqiI_JIoGui-DeXMeszn_dAcJUH_zkj1NtlAFrJS3jv5k9DMFeF4ecZILv3whLa1DO8SboDtBRAS2BJPwAYNLewySAU-MXhrkCFUsTHbfWTVBMjPnlEKg72dMJEh_3nfStpAK-0lNbGZvwIna9QGNaprH5KYRpxiwXaG4tFaO8mPADgkWGwmdcCpHTzqI_pTBk7PHp-B-LNd7txqZxpikVo7c7VHsJOFAGH-V7Hgi36Iw4RXGnGnjl60gwtSVP7iO9KeuD22CXpeuviEDicKNxIlnVmdsTumsyfoh_4l0qcSii4ZyRtBwTD0c09Mo451PvNrp9nu2GdwZf7fVqnTLUsKoKusPv5iQAYZ0k3MpFPFXdHxRxuqbRhOxTyVCl5ebgN27B9pBKXZCTE213bRP763uXHmxEYrAVizy0]--></g></svg>