<svg xmlns="http://www.w3.org/2000/svg" xmlns:xlink="http://www.w3.org/1999/xlink" contentStyleType="text/css" height="1006px" preserveAspectRatio="none" style="width:2766px;height:1006px;background:#FFFFFF;" version="1.1" viewBox="0 0 2766 1006" width="2766px" zoomAndPan="magnify"><defs/><g><rect fill="none" height="22.6406" style="stroke:none;stroke-width:1.0;" width="2733.8169" x="15" y="12.4551"/><ellipse cx="799.4736" cy="50.0957" fill="#222222" rx="10" ry="10" style="stroke:#222222;stroke-width:1.0;"/><rect fill="#F1F1F1" height="35.0938" rx="12.5" ry="12.5" style="stroke:#181818;stroke-width:0.5;" width="229.4316" x="684.7578" y="80.0957"/><text fill="#000000" font-family="sans-serif" font-size="12" lengthAdjust="spacing" textLength="209.4316" x="694.7578" y="102.5527">Membuka halaman Peran &amp; Hak Akses</text><polygon fill="#F1F1F1" points="139.2773,135.1895,166.1758,135.1895,178.1758,147.1895,166.1758,159.1895,139.2773,159.1895,127.2773,147.1895,139.2773,135.1895" style="stroke:#181818;stroke-width:0.5;"/><text fill="#000000" font-family="sans-serif" font-size="11" lengthAdjust="spacing" textLength="40.353" x="156.7266" y="170.6084">Tambah</text><text fill="#000000" font-family="sans-serif" font-size="11" lengthAdjust="spacing" textLength="26.8984" x="139.2773" y="151.6904">Aksi?</text><rect fill="#F1F1F1" height="35.0938" rx="12.5" ry="12.5" style="stroke:#181818;stroke-width:0.5;" width="161.3984" x="72.0273" y="192.1084"/><text fill="#000000" font-family="sans-serif" font-size="12" lengthAdjust="spacing" textLength="141.3984" x="82.0273" y="214.5654">Klik tombol Tambah Peran</text><rect fill="#F1F1F1" height="35.0938" rx="12.5" ry="12.5" style="stroke:#181818;stroke-width:0.5;" width="128.7266" x="88.3633" y="247.2021"/><text fill="#000000" font-family="sans-serif" font-size="12" lengthAdjust="spacing" textLength="108.7266" x="98.3633" y="269.6592">Mengisi nama peran</text><path d="M266.75,302.2959 L266.75,344.1748 L246.75,348.1748 L266.75,352.1748 L266.75,394.0537 A0,0 0 0 0 266.75,394.0537 L532.0015,394.0537 A0,0 0 0 0 532.0015,394.0537 L532.0015,312.2959 L522.0015,302.2959 L266.75,302.2959 A0,0 0 0 0 266.75,302.2959 " fill="#FEFFDD" style="stroke:#181818;stroke-width:0.5;"/><path d="M522.0015,302.2959 L522.0015,312.2959 L532.0015,312.2959 L522.0015,302.2959 " fill="#FEFFDD" style="stroke:#181818;stroke-width:0.5;"/><text fill="#000000" font-family="sans-serif" font-size="13" lengthAdjust="spacing" textLength="98.979" x="272.75" y="320.791">Grup permission:</text><text fill="#000000" font-family="sans-serif" font-size="13" lengthAdjust="spacing" textLength="214.5952" x="272.75" y="337.1426">- Kasir (pesanan, pembayaran, struk)</text><text fill="#000000" font-family="sans-serif" font-size="13" lengthAdjust="spacing" textLength="196.5171" x="272.75" y="353.4941">- Produksi (antrian, mulai, selesai)</text><text fill="#000000" font-family="sans-serif" font-size="13" lengthAdjust="spacing" textLength="202.3442" x="272.75" y="369.8457">- Inventori (produk, bahan, belanja)</text><text fill="#000000" font-family="sans-serif" font-size="13" lengthAdjust="spacing" textLength="244.2515" x="272.75" y="386.1973">- Manajemen (pekerja, pelanggan, setting)</text><rect fill="#F1F1F1" height="35.0938" rx="12.5" ry="12.5" style="stroke:#181818;stroke-width:0.5;" width="188.0469" x="58.7031" y="330.6279"/><text fill="#000000" font-family="sans-serif" font-size="12" lengthAdjust="spacing" textLength="168.0469" x="68.7031" y="353.085">Memilih hak akses (permission)</text><rect fill="#F1F1F1" height="35.0938" rx="12.5" ry="12.5" style="stroke:#181818;stroke-width:0.5;" width="213.4531" x="46" y="489.3193"/><text fill="#000000" font-family="sans-serif" font-size="12" lengthAdjust="spacing" textLength="193.4531" x="56" y="511.7764">Centang permission yang diinginkan</text><polygon fill="#F1F1F1" points="101.0647,427.4834,204.3884,427.4834,216.3884,439.4834,204.3884,451.4834,101.0647,451.4834,89.0647,439.4834,101.0647,427.4834" style="stroke:#181818;stroke-width:0.5;"/><text fill="#000000" font-family="sans-serif" font-size="11" lengthAdjust="spacing" textLength="13.4546" x="156.7266" y="462.9023">Ya</text><text fill="#000000" font-family="sans-serif" font-size="11" lengthAdjust="spacing" textLength="103.3237" x="101.0647" y="443.9844">Pilih permission lagi?</text><text fill="#000000" font-family="sans-serif" font-size="11" lengthAdjust="spacing" textLength="26.8984" x="62.1663" y="437.0664">Tidak</text><rect fill="#F1F1F1" height="35.0938" rx="12.5" ry="12.5" style="stroke:#181818;stroke-width:0.5;" width="116.0527" x="94.7002" y="583.4131"/><text fill="#000000" font-family="sans-serif" font-size="12" lengthAdjust="spacing" textLength="96.0527" x="104.7002" y="605.8701">Menyimpan peran</text><polygon fill="#F1F1F1" points="628.6108,135.1895,655.5093,135.1895,667.5093,147.1895,655.5093,159.1895,628.6108,159.1895,616.6108,147.1895,628.6108,135.1895" style="stroke:#181818;stroke-width:0.5;"/><text fill="#000000" font-family="sans-serif" font-size="11" lengthAdjust="spacing" textLength="18.9546" x="646.0601" y="170.6084">Edit</text><text fill="#000000" font-family="sans-serif" font-size="11" lengthAdjust="spacing" textLength="26.8984" x="628.6108" y="151.6904">Aksi?</text><rect fill="#F1F1F1" height="35.0938" rx="12.5" ry="12.5" style="stroke:#181818;stroke-width:0.5;" width="186.0957" x="549.0122" y="192.1084"/><text fill="#000000" font-family="sans-serif" font-size="12" lengthAdjust="spacing" textLength="166.0957" x="559.0122" y="214.5654">Memilih peran yang akan diedit</text><rect fill="#F1F1F1" height="35.0938" rx="12.5" ry="12.5" style="stroke:#181818;stroke-width:0.5;" width="200.1172" x="542.0015" y="302.2959"/><text fill="#000000" font-family="sans-serif" font-size="12" lengthAdjust="spacing" textLength="180.1172" x="552.0015" y="324.7529">Mengubah nama peran (opsional)</text><rect fill="#F1F1F1" height="35.0938" rx="12.5" ry="12.5" style="stroke:#181818;stroke-width:0.5;" width="138.0664" x="573.0269" y="372.3896"/><text fill="#000000" font-family="sans-serif" font-size="12" lengthAdjust="spacing" textLength="118.0664" x="583.0269" y="394.8467">Mengubah permission</text><rect fill="#F1F1F1" height="35.0938" rx="12.5" ry="12.5" style="stroke:#181818;stroke-width:0.5;" width="142.748" x="570.686" y="440.9131"/><text fill="#000000" font-family="sans-serif" font-size="12" lengthAdjust="spacing" textLength="122.748" x="580.686" y="463.3701">Menyimpan perubahan</text><polygon fill="#F1F1F1" points="958.4219,135.1895,985.3203,135.1895,997.3203,147.1895,985.3203,159.1895,958.4219,159.1895,946.4219,147.1895,958.4219,135.1895" style="stroke:#181818;stroke-width:0.5;"/><text fill="#000000" font-family="sans-serif" font-size="11" lengthAdjust="spacing" textLength="55.0322" x="975.8711" y="170.6084">Lihat Detail</text><text fill="#000000" font-family="sans-serif" font-size="11" lengthAdjust="spacing" textLength="26.8984" x="958.4219" y="151.6904">Aksi?</text><text fill="#000000" font-family="sans-serif" font-size="11" lengthAdjust="spacing" textLength="31.7969" x="997.3203" y="144.7725">Hapus</text><rect fill="#F1F1F1" height="35.0938" rx="12.5" ry="12.5" style="stroke:#181818;stroke-width:0.5;" width="95.3633" x="924.1895" y="192.1084"/><text fill="#000000" font-family="sans-serif" font-size="12" lengthAdjust="spacing" textLength="75.3633" x="934.1895" y="214.5654">Memilih peran</text><rect fill="#F1F1F1" height="35.0938" rx="12.5" ry="12.5" style="stroke:#181818;stroke-width:0.5;" width="199.4434" x="1040.9033" y="369.6279"/><text fill="#000000" font-family="sans-serif" font-size="12" lengthAdjust="spacing" textLength="179.4434" x="1050.9033" y="392.085">Memilih peran yang akan dihapus</text><rect fill="#F1F1F1" height="35.0938" rx="12.5" ry="12.5" style="stroke:#181818;stroke-width:0.5;" width="152.7559" x="1064.2471" y="438.1514"/><text fill="#000000" font-family="sans-serif" font-size="12" lengthAdjust="spacing" textLength="132.7559" x="1074.2471" y="460.6084">Konfirmasi penghapusan</text><line style="stroke:#000000;stroke-width:1.5;" x1="15" x2="15" y1="12.4551" y2="994.8818"/><rect fill="#F1F1F1" height="35.0938" rx="12.5" ry="12.5" style="stroke:#181818;stroke-width:0.5;" width="129.4004" x="1358.8892" y="653.5068"/><text fill="#000000" font-family="sans-serif" font-size="12" lengthAdjust="spacing" textLength="109.4004" x="1368.8892" y="675.9639">Validasi nama peran</text><polygon fill="#F1F1F1" points="1378.6414,723.6006,1468.5374,723.6006,1480.5374,735.6006,1468.5374,747.6006,1378.6414,747.6006,1366.6414,735.6006,1378.6414,723.6006" style="stroke:#181818;stroke-width:0.5;"/><text fill="#000000" font-family="sans-serif" font-size="11" lengthAdjust="spacing" textLength="89.896" x="1378.6414" y="740.1016">Nama sudah ada?</text><text fill="#000000" font-family="sans-serif" font-size="11" lengthAdjust="spacing" textLength="13.4546" x="1353.1868" y="733.1836">Ya</text><text fill="#000000" font-family="sans-serif" font-size="11" lengthAdjust="spacing" textLength="26.8984" x="1480.5374" y="733.1836">Tidak</text><rect fill="#F1F1F1" height="35.0938" rx="12.5" ry="12.5" style="stroke:#181818;stroke-width:0.5;" width="156.0664" x="1250.3467" y="757.6006"/><text fill="#000000" font-family="sans-serif" font-size="12" lengthAdjust="spacing" textLength="136.0664" x="1260.3467" y="780.0576">Menampilkan pesan error</text><rect fill="#F1F1F1" height="35.0938" rx="12.5" ry="12.5" style="stroke:#181818;stroke-width:0.5;" width="184.7715" x="1426.4131" y="757.6006"/><text fill="#000000" font-family="sans-serif" font-size="12" lengthAdjust="spacing" textLength="164.7715" x="1436.4131" y="780.0576">Menyimpan peran ke database</text><rect fill="#F1F1F1" height="35.0938" rx="12.5" ry="12.5" style="stroke:#181818;stroke-width:0.5;" width="175.3906" x="1431.1035" y="812.6943"/><text fill="#000000" font-family="sans-serif" font-size="12" lengthAdjust="spacing" textLength="155.3906" x="1441.1035" y="835.1514">Menyimpan relasi permission</text><rect fill="#F1F1F1" height="35.0938" rx="12.5" ry="12.5" style="stroke:#181818;stroke-width:0.5;" width="168.0781" x="1434.7598" y="867.7881"/><text fill="#000000" font-family="sans-serif" font-size="12" lengthAdjust="spacing" textLength="148.0781" x="1444.7598" y="890.2451">Menampilkan pesan sukses</text><polygon fill="#F1F1F1" points="1423.5894,908.8818,1435.5894,920.8818,1423.5894,932.8818,1411.5894,920.8818,1423.5894,908.8818" style="stroke:#181818;stroke-width:0.5;"/><rect fill="#F1F1F1" height="35.0938" rx="12.5" ry="12.5" style="stroke:#181818;stroke-width:0.5;" width="264.7871" x="1621.1846" y="247.2021"/><text fill="#000000" font-family="sans-serif" font-size="12" lengthAdjust="spacing" textLength="244.7871" x="1631.1846" y="269.6592">Menampilkan form dengan permission saat ini</text><rect fill="#F1F1F1" height="35.0938" rx="12.5" ry="12.5" style="stroke:#181818;stroke-width:0.5;" width="119.4102" x="1693.873" y="511.0068"/><text fill="#000000" font-family="sans-serif" font-size="12" lengthAdjust="spacing" textLength="99.4102" x="1703.873" y="533.4639">Update data peran</text><rect fill="#F1F1F1" height="35.0938" rx="12.5" ry="12.5" style="stroke:#181818;stroke-width:0.5;" width="135.3828" x="1685.8867" y="581.1006"/><text fill="#000000" font-family="sans-serif" font-size="12" lengthAdjust="spacing" textLength="115.3828" x="1695.8867" y="603.5576">Sync permission baru</text><path d="M1857.6172,651.1943 L1857.6172,676.7217 L1837.6172,680.7217 L1857.6172,684.7217 L1857.6172,710.249 A0,0 0 0 0 1857.6172,710.249 L2047.0078,710.249 A0,0 0 0 0 2047.0078,710.249 L2047.0078,661.1943 L2037.0078,651.1943 L1857.6172,651.1943 A0,0 0 0 0 1857.6172,651.1943 " fill="#FEFFDD" style="stroke:#181818;stroke-width:0.5;"/><path d="M2037.0078,651.1943 L2037.0078,661.1943 L2047.0078,661.1943 L2037.0078,651.1943 " fill="#FEFFDD" style="stroke:#181818;stroke-width:0.5;"/><text fill="#000000" font-family="sans-serif" font-size="13" lengthAdjust="spacing" textLength="130.0762" x="1863.6172" y="669.6895">Perubahan permission</text><text fill="#000000" font-family="sans-serif" font-size="13" lengthAdjust="spacing" textLength="134.4307" x="1863.6172" y="686.041">langsung berlaku untuk</text><text fill="#000000" font-family="sans-serif" font-size="13" lengthAdjust="spacing" textLength="168.3906" x="1863.6172" y="702.3926">semua user dengan peran ini</text><rect fill="#F1F1F1" height="35.0938" rx="12.5" ry="12.5" style="stroke:#181818;stroke-width:0.5;" width="168.0781" x="1669.5391" y="663.1748"/><text fill="#000000" font-family="sans-serif" font-size="12" lengthAdjust="spacing" textLength="148.0781" x="1679.5391" y="685.6318">Menampilkan pesan sukses</text><rect fill="#F1F1F1" height="35.0938" rx="12.5" ry="12.5" style="stroke:#181818;stroke-width:0.5;" width="157.4141" x="2100.0156" y="247.2021"/><text fill="#000000" font-family="sans-serif" font-size="12" lengthAdjust="spacing" textLength="137.4141" x="2110.0156" y="269.6592">Menampilkan detail peran</text><rect fill="#F1F1F1" height="35.0938" rx="12.5" ry="12.5" style="stroke:#181818;stroke-width:0.5;" width="186.7402" x="2085.3525" y="302.2959"/><text fill="#000000" font-family="sans-serif" font-size="12" lengthAdjust="spacing" textLength="166.7402" x="2095.3525" y="324.7529">Menampilkan daftar permission</text><rect fill="#F1F1F1" height="35.0938" rx="12.5" ry="12.5" style="stroke:#181818;stroke-width:0.5;" width="243.4297" x="2057.0078" y="372.3896"/><text fill="#000000" font-family="sans-serif" font-size="12" lengthAdjust="spacing" textLength="223.4297" x="2067.0078" y="394.8467">Menampilkan user yang memiliki peran ini</text><polygon fill="#F1F1F1" points="2477.2566,508.2451,2614.8586,508.2451,2626.8586,520.2451,2614.8586,532.2451,2477.2566,532.2451,2465.2566,520.2451,2477.2566,508.2451" style="stroke:#181818;stroke-width:0.5;"/><text fill="#000000" font-family="sans-serif" font-size="11" lengthAdjust="spacing" textLength="137.6021" x="2477.2566" y="524.7461">Peran digunakan oleh user?</text><text fill="#000000" font-family="sans-serif" font-size="11" lengthAdjust="spacing" textLength="13.4546" x="2451.802" y="517.8281">Ya</text><text fill="#000000" font-family="sans-serif" font-size="11" lengthAdjust="spacing" textLength="26.8984" x="2626.8586" y="517.8281">Tidak</text><rect fill="#F1F1F1" height="35.0938" rx="12.5" ry="12.5" style="stroke:#181818;stroke-width:0.5;" width="151.4141" x="2357.1309" y="542.2451"/><text fill="#000000" font-family="sans-serif" font-size="12" lengthAdjust="spacing" textLength="131.4141" x="2367.1309" y="564.7021">Menampilkan peringatan</text><rect fill="#F1F1F1" height="35.0938" rx="12.5" ry="12.5" style="stroke:#181818;stroke-width:0.5;" width="151.4199" x="2357.1279" y="612.3389"/><text fill="#000000" font-family="sans-serif" font-size="12" lengthAdjust="spacing" textLength="131.4199" x="2367.1279" y="634.7959">Peran tidak bisa dihapus</text><rect fill="#F1F1F1" height="35.0938" rx="12.5" ry="12.5" style="stroke:#181818;stroke-width:0.5;" width="244.8008" x="2310.4375" y="682.4326"/><text fill="#000000" font-family="sans-serif" font-size="12" lengthAdjust="spacing" textLength="224.8008" x="2320.4375" y="704.8896">Tampilkan daftar user yang menggunakan</text><rect fill="#F1F1F1" height="35.0938" rx="12.5" ry="12.5" style="stroke:#181818;stroke-width:0.5;" width="148.0508" x="2585.252" y="542.2451"/><text fill="#000000" font-family="sans-serif" font-size="12" lengthAdjust="spacing" textLength="128.0508" x="2595.252" y="564.7021">Hapus relasi permission</text><rect fill="#F1F1F1" height="35.0938" rx="12.5" ry="12.5" style="stroke:#181818;stroke-width:0.5;" width="88.7129" x="2614.9209" y="612.3389"/><text fill="#000000" font-family="sans-serif" font-size="12" lengthAdjust="spacing" textLength="68.7129" x="2624.9209" y="634.7959">Hapus peran</text><rect fill="#F1F1F1" height="35.0938" rx="12.5" ry="12.5" style="stroke:#181818;stroke-width:0.5;" width="168.0781" x="2575.2383" y="682.4326"/><text fill="#000000" font-family="sans-serif" font-size="12" lengthAdjust="spacing" textLength="148.0781" x="2585.2383" y="704.8896">Menampilkan pesan sukses</text><polygon fill="#F1F1F1" points="2546.0576,723.5264,2558.0576,735.5264,2546.0576,747.5264,2534.0576,735.5264,2546.0576,723.5264" style="stroke:#181818;stroke-width:0.5;"/><ellipse cx="1910.9917" cy="983.8818" fill="none" rx="11" ry="11" style="stroke:#222222;stroke-width:1.0;"/><ellipse cx="1910.9917" cy="983.8818" fill="#222222" rx="6" ry="6" style="stroke:#222222;stroke-width:1.0;"/><line style="stroke:#000000;stroke-width:1.5;" x1="1244.3467" x2="1244.3467" y1="12.4551" y2="994.8818"/><line style="stroke:#000000;stroke-width:1.5;" x1="2747.3164" x2="2747.3164" y1="12.4551" y2="994.8818"/><line style="stroke:#181818;stroke-width:1.0;" x1="799.4736" x2="799.4736" y1="60.0957" y2="80.0957"/><polygon fill="#181818" points="795.4736,70.0957,799.4736,80.0957,803.4736,70.0957,799.4736,74.0957" style="stroke:#181818;stroke-width:1.0;"/><line style="stroke:#181818;stroke-width:1.0;" x1="152.7266" x2="152.7266" y1="227.2021" y2="247.2021"/><polygon fill="#181818" points="148.7266,237.2021,152.7266,247.2021,156.7266,237.2021,152.7266,241.2021" style="stroke:#181818;stroke-width:1.0;"/><line style="stroke:#181818;stroke-width:1.0;" x1="152.7266" x2="152.7266" y1="282.2959" y2="330.6279"/><polygon fill="#181818" points="148.7266,320.6279,152.7266,330.6279,156.7266,320.6279,152.7266,324.6279" style="stroke:#181818;stroke-width:1.0;"/><line style="stroke:#181818;stroke-width:1.0;" x1="152.7266" x2="152.7266" y1="451.4834" y2="489.3193"/><polygon fill="#181818" points="148.7266,479.3193,152.7266,489.3193,156.7266,479.3193,152.7266,483.3193" style="stroke:#181818;stroke-width:1.0;"/><line style="stroke:#181818;stroke-width:1.0;" x1="152.7266" x2="152.7266" y1="524.4131" y2="536.4131"/><line style="stroke:#181818;stroke-width:1.0;" x1="152.7266" x2="271.4531" y1="536.4131" y2="536.4131"/><polygon fill="#181818" points="267.4531,497.9482,271.4531,487.9482,275.4531,497.9482,271.4531,493.9482" style="stroke:#181818;stroke-width:1.0;"/><line style="stroke:#181818;stroke-width:1.0;" x1="271.4531" x2="271.4531" y1="439.4834" y2="536.4131"/><line style="stroke:#181818;stroke-width:1.0;" x1="271.4531" x2="216.3884" y1="439.4834" y2="439.4834"/><polygon fill="#181818" points="226.3884,435.4834,216.3884,439.4834,226.3884,443.4834,222.3884,439.4834" style="stroke:#181818;stroke-width:1.0;"/><line style="stroke:#181818;stroke-width:1.0;" x1="89.0647" x2="34" y1="439.4834" y2="439.4834"/><polygon fill="#181818" points="30,483.9482,34,493.9482,38,483.9482,34,487.9482" style="stroke:#181818;stroke-width:1.0;"/><line style="stroke:#181818;stroke-width:1.0;" x1="34" x2="34" y1="439.4834" y2="548.4131"/><line style="stroke:#181818;stroke-width:1.0;" x1="34" x2="152.7266" y1="548.4131" y2="548.4131"/><line style="stroke:#181818;stroke-width:1.0;" x1="152.7266" x2="152.7266" y1="548.4131" y2="583.4131"/><polygon fill="#181818" points="148.7266,573.4131,152.7266,583.4131,156.7266,573.4131,152.7266,577.4131" style="stroke:#181818;stroke-width:1.0;"/><line style="stroke:#181818;stroke-width:1.0;" x1="152.7266" x2="152.7266" y1="365.7217" y2="427.4834"/><polygon fill="#181818" points="148.7266,417.4834,152.7266,427.4834,156.7266,417.4834,152.7266,421.4834" style="stroke:#181818;stroke-width:1.0;"/><line style="stroke:#181818;stroke-width:1.0;" x1="642.0601" x2="642.0601" y1="337.3896" y2="372.3896"/><polygon fill="#181818" points="638.0601,362.3896,642.0601,372.3896,646.0601,362.3896,642.0601,366.3896" style="stroke:#181818;stroke-width:1.0;"/><line style="stroke:#181818;stroke-width:1.0;" x1="642.0601" x2="642.0601" y1="407.4834" y2="440.9131"/><polygon fill="#181818" points="638.0601,430.9131,642.0601,440.9131,646.0601,430.9131,642.0601,434.9131" style="stroke:#181818;stroke-width:1.0;"/><line style="stroke:#181818;stroke-width:1.0;" x1="1140.625" x2="1140.625" y1="404.7217" y2="438.1514"/><polygon fill="#181818" points="1136.625,428.1514,1140.625,438.1514,1144.625,428.1514,1140.625,432.1514" style="stroke:#181818;stroke-width:1.0;"/><line style="stroke:#181818;stroke-width:1.0;" x1="152.7266" x2="152.7266" y1="159.1895" y2="192.1084"/><polygon fill="#181818" points="148.7266,182.1084,152.7266,192.1084,156.7266,182.1084,152.7266,186.1084" style="stroke:#181818;stroke-width:1.0;"/><line style="stroke:#181818;stroke-width:1.0;" x1="642.0601" x2="642.0601" y1="159.1895" y2="192.1084"/><polygon fill="#181818" points="638.0601,182.1084,642.0601,192.1084,646.0601,182.1084,642.0601,186.1084" style="stroke:#181818;stroke-width:1.0;"/><line style="stroke:#181818;stroke-width:1.0;" x1="971.8711" x2="971.8711" y1="159.1895" y2="192.1084"/><polygon fill="#181818" points="967.8711,182.1084,971.8711,192.1084,975.8711,182.1084,971.8711,186.1084" style="stroke:#181818;stroke-width:1.0;"/><line style="stroke:#181818;stroke-width:1.0;" x1="178.1758" x2="616.6108" y1="147.1895" y2="147.1895"/><polygon fill="#181818" points="606.6108,143.1895,616.6108,147.1895,606.6108,151.1895,610.6108,147.1895" style="stroke:#181818;stroke-width:1.0;"/><line style="stroke:#181818;stroke-width:1.0;" x1="667.5093" x2="946.4219" y1="147.1895" y2="147.1895"/><polygon fill="#181818" points="936.4219,143.1895,946.4219,147.1895,936.4219,151.1895,940.4219,147.1895" style="stroke:#181818;stroke-width:1.0;"/><line style="stroke:#181818;stroke-width:1.0;" x1="799.4736" x2="799.4736" y1="115.1895" y2="120.1895"/><line style="stroke:#181818;stroke-width:1.0;" x1="799.4736" x2="152.7266" y1="120.1895" y2="120.1895"/><line style="stroke:#181818;stroke-width:1.0;" x1="152.7266" x2="152.7266" y1="120.1895" y2="135.1895"/><polygon fill="#181818" points="148.7266,125.1895,152.7266,135.1895,156.7266,125.1895,152.7266,129.1895" style="stroke:#181818;stroke-width:1.0;"/><line style="stroke:#181818;stroke-width:1.0;" x1="997.3203" x2="1140.625" y1="147.1895" y2="147.1895"/><line style="stroke:#181818;stroke-width:1.0;" x1="1140.625" x2="1140.625" y1="147.1895" y2="369.6279"/><polygon fill="#181818" points="1136.625,359.6279,1140.625,369.6279,1144.625,359.6279,1140.625,363.6279" style="stroke:#181818;stroke-width:1.0;"/><line style="stroke:#181818;stroke-width:1.0;" x1="1518.7988" x2="1518.7988" y1="792.6943" y2="812.6943"/><polygon fill="#181818" points="1514.7988,802.6943,1518.7988,812.6943,1522.7988,802.6943,1518.7988,806.6943" style="stroke:#181818;stroke-width:1.0;"/><line style="stroke:#181818;stroke-width:1.0;" x1="1518.7988" x2="1518.7988" y1="847.7881" y2="867.7881"/><polygon fill="#181818" points="1514.7988,857.7881,1518.7988,867.7881,1522.7988,857.7881,1518.7988,861.7881" style="stroke:#181818;stroke-width:1.0;"/><line style="stroke:#181818;stroke-width:1.0;" x1="1366.6414" x2="1328.3799" y1="735.6006" y2="735.6006"/><line style="stroke:#181818;stroke-width:1.0;" x1="1328.3799" x2="1328.3799" y1="735.6006" y2="757.6006"/><polygon fill="#181818" points="1324.3799,747.6006,1328.3799,757.6006,1332.3799,747.6006,1328.3799,751.6006" style="stroke:#181818;stroke-width:1.0;"/><line style="stroke:#181818;stroke-width:1.0;" x1="1480.5374" x2="1518.7988" y1="735.6006" y2="735.6006"/><line style="stroke:#181818;stroke-width:1.0;" x1="1518.7988" x2="1518.7988" y1="735.6006" y2="757.6006"/><polygon fill="#181818" points="1514.7988,747.6006,1518.7988,757.6006,1522.7988,747.6006,1518.7988,751.6006" style="stroke:#181818;stroke-width:1.0;"/><line style="stroke:#181818;stroke-width:1.0;" x1="1328.3799" x2="1328.3799" y1="792.6943" y2="920.8818"/><line style="stroke:#181818;stroke-width:1.0;" x1="1328.3799" x2="1411.5894" y1="920.8818" y2="920.8818"/><polygon fill="#181818" points="1401.5894,916.8818,1411.5894,920.8818,1401.5894,924.8818,1405.5894,920.8818" style="stroke:#181818;stroke-width:1.0;"/><line style="stroke:#181818;stroke-width:1.0;" x1="1518.7988" x2="1518.7988" y1="902.8818" y2="920.8818"/><line style="stroke:#181818;stroke-width:1.0;" x1="1518.7988" x2="1435.5894" y1="920.8818" y2="920.8818"/><polygon fill="#181818" points="1445.5894,916.8818,1435.5894,920.8818,1445.5894,924.8818,1441.5894,920.8818" style="stroke:#181818;stroke-width:1.0;"/><line style="stroke:#181818;stroke-width:1.0;" x1="1423.5894" x2="1423.5894" y1="688.6006" y2="723.6006"/><polygon fill="#181818" points="1419.5894,713.6006,1423.5894,723.6006,1427.5894,713.6006,1423.5894,717.6006" style="stroke:#181818;stroke-width:1.0;"/><line style="stroke:#181818;stroke-width:1.0;" x1="1753.5781" x2="1753.5781" y1="546.1006" y2="581.1006"/><polygon fill="#181818" points="1749.5781,571.1006,1753.5781,581.1006,1757.5781,571.1006,1753.5781,575.1006" style="stroke:#181818;stroke-width:1.0;"/><line style="stroke:#181818;stroke-width:1.0;" x1="1753.5781" x2="1753.5781" y1="616.1943" y2="663.1748"/><polygon fill="#181818" points="1749.5781,653.1748,1753.5781,663.1748,1757.5781,653.1748,1753.5781,657.1748" style="stroke:#181818;stroke-width:1.0;"/><line style="stroke:#181818;stroke-width:1.0;" x1="2178.7227" x2="2178.7227" y1="282.2959" y2="302.2959"/><polygon fill="#181818" points="2174.7227,292.2959,2178.7227,302.2959,2182.7227,292.2959,2178.7227,296.2959" style="stroke:#181818;stroke-width:1.0;"/><line style="stroke:#181818;stroke-width:1.0;" x1="2178.7227" x2="2178.7227" y1="337.3896" y2="372.3896"/><polygon fill="#181818" points="2174.7227,362.3896,2178.7227,372.3896,2182.7227,362.3896,2178.7227,366.3896" style="stroke:#181818;stroke-width:1.0;"/><line style="stroke:#181818;stroke-width:1.0;" x1="2432.8379" x2="2432.8379" y1="577.3389" y2="612.3389"/><polygon fill="#181818" points="2428.8379,602.3389,2432.8379,612.3389,2436.8379,602.3389,2432.8379,606.3389" style="stroke:#181818;stroke-width:1.0;"/><line style="stroke:#181818;stroke-width:1.0;" x1="2432.8379" x2="2432.8379" y1="647.4326" y2="682.4326"/><polygon fill="#181818" points="2428.8379,672.4326,2432.8379,682.4326,2436.8379,672.4326,2432.8379,676.4326" style="stroke:#181818;stroke-width:1.0;"/><line style="stroke:#181818;stroke-width:1.0;" x1="2659.2773" x2="2659.2773" y1="577.3389" y2="612.3389"/><polygon fill="#181818" points="2655.2773,602.3389,2659.2773,612.3389,2663.2773,602.3389,2659.2773,606.3389" style="stroke:#181818;stroke-width:1.0;"/><line style="stroke:#181818;stroke-width:1.0;" x1="2659.2773" x2="2659.2773" y1="647.4326" y2="682.4326"/><polygon fill="#181818" points="2655.2773,672.4326,2659.2773,682.4326,2663.2773,672.4326,2659.2773,676.4326" style="stroke:#181818;stroke-width:1.0;"/><line style="stroke:#181818;stroke-width:1.0;" x1="2465.2566" x2="2432.8379" y1="520.2451" y2="520.2451"/><line style="stroke:#181818;stroke-width:1.0;" x1="2432.8379" x2="2432.8379" y1="520.2451" y2="542.2451"/><polygon fill="#181818" points="2428.8379,532.2451,2432.8379,542.2451,2436.8379,532.2451,2432.8379,536.2451" style="stroke:#181818;stroke-width:1.0;"/><line style="stroke:#181818;stroke-width:1.0;" x1="2626.8586" x2="2659.2773" y1="520.2451" y2="520.2451"/><line style="stroke:#181818;stroke-width:1.0;" x1="2659.2773" x2="2659.2773" y1="520.2451" y2="542.2451"/><polygon fill="#181818" points="2655.2773,532.2451,2659.2773,542.2451,2663.2773,532.2451,2659.2773,536.2451" style="stroke:#181818;stroke-width:1.0;"/><line style="stroke:#181818;stroke-width:1.0;" x1="2432.8379" x2="2432.8379" y1="717.5264" y2="735.5264"/><line style="stroke:#181818;stroke-width:1.0;" x1="2432.8379" x2="2534.0576" y1="735.5264" y2="735.5264"/><polygon fill="#181818" points="2524.0576,731.5264,2534.0576,735.5264,2524.0576,739.5264,2528.0576,735.5264" style="stroke:#181818;stroke-width:1.0;"/><line style="stroke:#181818;stroke-width:1.0;" x1="2659.2773" x2="2659.2773" y1="717.5264" y2="735.5264"/><line style="stroke:#181818;stroke-width:1.0;" x1="2659.2773" x2="2558.0576" y1="735.5264" y2="735.5264"/><polygon fill="#181818" points="2568.0576,731.5264,2558.0576,735.5264,2568.0576,739.5264,2564.0576,735.5264" style="stroke:#181818;stroke-width:1.0;"/><line style="stroke:#181818;stroke-width:1.0;" x1="1423.5894" x2="1423.5894" y1="932.8818" y2="952.8818"/><polygon fill="#181818" points="1419.5894,942.8818,1423.5894,952.8818,1427.5894,942.8818,1423.5894,946.8818" style="stroke:#181818;stroke-width:1.0;"/><line style="stroke:#181818;stroke-width:1.0;" x1="1753.5781" x2="1753.5781" y1="698.2686" y2="952.8818"/><polygon fill="#181818" points="1749.5781,942.8818,1753.5781,952.8818,1757.5781,942.8818,1753.5781,946.8818" style="stroke:#181818;stroke-width:1.0;"/><line style="stroke:#181818;stroke-width:1.0;" x1="2178.7227" x2="2178.7227" y1="407.4834" y2="952.8818"/><polygon fill="#181818" points="2174.7227,942.8818,2178.7227,952.8818,2182.7227,942.8818,2178.7227,946.8818" style="stroke:#181818;stroke-width:1.0;"/><line style="stroke:#181818;stroke-width:1.0;" x1="2546.0576" x2="2546.0576" y1="747.5264" y2="952.8818"/><polygon fill="#181818" points="2542.0576,942.8818,2546.0576,952.8818,2550.0576,942.8818,2546.0576,946.8818" style="stroke:#181818;stroke-width:1.0;"/><line style="stroke:#181818;stroke-width:1.0;" x1="1423.5894" x2="2546.0576" y1="952.8818" y2="952.8818"/><line style="stroke:#181818;stroke-width:1.0;" x1="152.7266" x2="152.7266" y1="618.5068" y2="636.0068"/><line style="stroke:#181818;stroke-width:1.0;" x1="152.7266" x2="1423.5894" y1="636.0068" y2="636.0068"/><line style="stroke:#181818;stroke-width:1.0;" x1="1423.5894" x2="1423.5894" y1="636.0068" y2="653.5068"/><polygon fill="#181818" points="1419.5894,643.5068,1423.5894,653.5068,1427.5894,643.5068,1423.5894,647.5068" style="stroke:#181818;stroke-width:1.0;"/><line style="stroke:#181818;stroke-width:1.0;" x1="642.0601" x2="642.0601" y1="227.2021" y2="232.2021"/><line style="stroke:#181818;stroke-width:1.0;" x1="642.0601" x2="1753.5781" y1="232.2021" y2="232.2021"/><line style="stroke:#181818;stroke-width:1.0;" x1="1753.5781" x2="1753.5781" y1="232.2021" y2="247.2021"/><polygon fill="#181818" points="1749.5781,237.2021,1753.5781,247.2021,1757.5781,237.2021,1753.5781,241.2021" style="stroke:#181818;stroke-width:1.0;"/><line style="stroke:#181818;stroke-width:1.0;" x1="1753.5781" x2="1753.5781" y1="282.2959" y2="287.2959"/><line style="stroke:#181818;stroke-width:1.0;" x1="1753.5781" x2="642.0601" y1="287.2959" y2="287.2959"/><line style="stroke:#181818;stroke-width:1.0;" x1="642.0601" x2="642.0601" y1="287.2959" y2="302.2959"/><polygon fill="#181818" points="638.0601,292.2959,642.0601,302.2959,646.0601,292.2959,642.0601,296.2959" style="stroke:#181818;stroke-width:1.0;"/><line style="stroke:#181818;stroke-width:1.0;" x1="642.0601" x2="642.0601" y1="476.0068" y2="493.5068"/><line style="stroke:#181818;stroke-width:1.0;" x1="642.0601" x2="1753.5781" y1="493.5068" y2="493.5068"/><line style="stroke:#181818;stroke-width:1.0;" x1="1753.5781" x2="1753.5781" y1="493.5068" y2="511.0068"/><polygon fill="#181818" points="1749.5781,501.0068,1753.5781,511.0068,1757.5781,501.0068,1753.5781,505.0068" style="stroke:#181818;stroke-width:1.0;"/><line style="stroke:#181818;stroke-width:1.0;" x1="971.8711" x2="971.8711" y1="227.2021" y2="232.2021"/><line style="stroke:#181818;stroke-width:1.0;" x1="971.8711" x2="2178.7227" y1="232.2021" y2="232.2021"/><line style="stroke:#181818;stroke-width:1.0;" x1="2178.7227" x2="2178.7227" y1="232.2021" y2="247.2021"/><polygon fill="#181818" points="2174.7227,237.2021,2178.7227,247.2021,2182.7227,237.2021,2178.7227,241.2021" style="stroke:#181818;stroke-width:1.0;"/><line style="stroke:#181818;stroke-width:1.0;" x1="1140.625" x2="1140.625" y1="473.2451" y2="490.7451"/><line style="stroke:#181818;stroke-width:1.0;" x1="1140.625" x2="2546.0576" y1="490.7451" y2="490.7451"/><line style="stroke:#181818;stroke-width:1.0;" x1="2546.0576" x2="2546.0576" y1="490.7451" y2="508.2451"/><polygon fill="#181818" points="2542.0576,498.2451,2546.0576,508.2451,2550.0576,498.2451,2546.0576,502.2451" style="stroke:#181818;stroke-width:1.0;"/><line style="stroke:#181818;stroke-width:1.0;" x1="799.4736" x2="799.4736" y1="952.8818" y2="957.8818"/><line style="stroke:#181818;stroke-width:1.0;" x1="799.4736" x2="1910.9917" y1="957.8818" y2="957.8818"/><line style="stroke:#181818;stroke-width:1.0;" x1="1910.9917" x2="1910.9917" y1="957.8818" y2="972.8818"/><polygon fill="#181818" points="1906.9917,962.8818,1910.9917,972.8818,1914.9917,962.8818,1910.9917,966.8818" style="stroke:#181818;stroke-width:1.0;"/><text fill="#000000" font-family="sans-serif" font-size="18" lengthAdjust="spacing" textLength="58.0078" x="600.6694" y="31.1406">Pemilik</text><text fill="#000000" font-family="sans-serif" font-size="18" lengthAdjust="spacing" textLength="55.0107" x="1968.3262" y="31.1406">Sistem</text><!--SRC=[bLNRZjD037tFL_W9fHByGFE0420MBOigxOB4eqFSn9kPIJGNKAL-F9wPj4bBkvG-Z9BwZ7ryVCb-GveLz_l2URI-M3-GhaEFqA52ZGOsPELy1NVOmxlUaQkAWhTGoZE_NO7lo43vXBh6RbM0_DRtuWxyeEj1GJPa9rKsFv1fsJ4OSG_ZR3XO8vrEmlU0CHoKWj7i70zcbP5cy0IMsywdLu1FDemmmzRJts_W7XtRwC6XGVDQC49dXpO-Esz3lpf2DtPeWkG49HflEI9qKCW292NtUOP-Dh_8-C4ATaotNeCa6M_KfD0yumnzaBZFfAD68_Ladp6I453R9WxaFPisuyaqARLPZTyTAu9oanIPymE5RTIUHPmVns0YtdkX9QwNq5ryRrY2iEaFKakaoVKJDpY9SApEZlKe9JylpVwHdIUzpxZlgEJgjJB61laQ3IuqKdviyDWg9uGb6kgHLP_YIP60h1tin5AvKuQN249FqA376XrLbr1Mr1QQioJLI-5To2q-gSJRd5EYybVNVspOPsRxunITD75cc4g0CKR395UkQhgainsiXaP69ITwAAT3zC26bpxEOvisn9cR2mFbCCRRg5RL6UXSbbDvGshhgto_ZQ9ybd_P0Ul7dVcv95sZ3LLnW-ANftjp8BBmEPdY8BaWyjPa5VO1Wl6XduoET408Zkn2I3b5lWlpThd4NxWJmJ-GHrR_BlLDbMsIinF1JioubKLyiJ17JCefjPNEP7XEhLgaKzxX6Dn_jcWNxqn1xmUpPQlp09ascQwd6TNBduk6ss2Ilq5Hb_ZUiW2ih2bffkM8Pdy-BW6esU4fmGHvEjTkAOyisipafPsIP7fnKsJ4ecOtxuzyojTr68i_]--></g></svg>