<svg xmlns="http://www.w3.org/2000/svg" xmlns:xlink="http://www.w3.org/1999/xlink" contentStyleType="text/css" height="558px" preserveAspectRatio="none" style="width:536px;height:558px;background:#FFFFFF;" version="1.1" viewBox="0 0 536 558" width="536px" zoomAndPan="magnify"><title>Activity Diagram</title><defs/><g><text fill="#000000" font-family="sans-serif" font-size="14" font-weight="bold" lengthAdjust="spacing" textLength="110.4824" x="211.3711" y="34.5332">Activity Diagram</text><text fill="#000000" font-family="sans-serif" font-size="14" font-weight="bold" lengthAdjust="spacing" textLength="199.9307" x="166.647" y="52.1426">Aktivasi Akun Pengguna Baru</text><ellipse cx="291.2847" cy="76.2188" fill="#222222" rx="10" ry="10" style="stroke:#222222;stroke-width:1.0;"/><rect fill="#F1F1F1" height="35.0938" rx="12.5" ry="12.5" style="stroke:#181818;stroke-width:0.5;" width="247.4902" x="167.5396" y="106.2188"/><text fill="#000000" font-family="sans-serif" font-size="12" lengthAdjust="spacing" textLength="227.4902" x="177.5396" y="128.6758">Pengguna baru menerima email undangan</text><rect fill="#F1F1F1" height="35.0938" rx="12.5" ry="12.5" style="stroke:#181818;stroke-width:0.5;" width="174.0664" x="204.2515" y="161.3125"/><text fill="#000000" font-family="sans-serif" font-size="12" lengthAdjust="spacing" textLength="154.0664" x="214.2515" y="183.7695">Mengakses link aktivasi valid</text><rect fill="#F1F1F1" height="35.0938" rx="12.5" ry="12.5" style="stroke:#181818;stroke-width:0.5;" width="159.3828" x="211.5933" y="216.4063"/><text fill="#000000" font-family="sans-serif" font-size="12" lengthAdjust="spacing" textLength="139.3828" x="221.5933" y="238.8633">Sistem memvalidasi token</text><polygon fill="#F1F1F1" points="260.1001,271.5,322.4692,271.5,334.4692,283.5,322.4692,295.5,260.1001,295.5,248.1001,283.5,260.1001,271.5" style="stroke:#181818;stroke-width:0.5;"/><text fill="#000000" font-family="sans-serif" font-size="11" lengthAdjust="spacing" textLength="62.3691" x="260.1001" y="288.001">Token valid?</text><text fill="#000000" font-family="sans-serif" font-size="11" lengthAdjust="spacing" textLength="13.4546" x="234.6455" y="281.083">Ya</text><text fill="#000000" font-family="sans-serif" font-size="11" lengthAdjust="spacing" textLength="26.8984" x="334.4692" y="281.083">Tidak</text><rect fill="#F1F1F1" height="35.0938" rx="12.5" ry="12.5" style="stroke:#181818;stroke-width:0.5;" width="293.457" x="11" y="305.5"/><text fill="#000000" font-family="sans-serif" font-size="12" lengthAdjust="spacing" textLength="273.457" x="21" y="327.957">Sistem menampilkan formulir pengaturan password</text><rect fill="#F1F1F1" height="35.0938" rx="12.5" ry="12.5" style="stroke:#181818;stroke-width:0.5;" width="236.1172" x="39.6699" y="360.5938"/><text fill="#000000" font-family="sans-serif" font-size="12" lengthAdjust="spacing" textLength="216.1172" x="49.6699" y="383.0508">Mengatur password dengan kriteria valid</text><rect fill="#F1F1F1" height="35.0938" rx="12.5" ry="12.5" style="stroke:#181818;stroke-width:0.5;" width="160.7363" x="77.3604" y="415.6875"/><text fill="#000000" font-family="sans-serif" font-size="12" lengthAdjust="spacing" textLength="140.7363" x="87.3604" y="438.1445">Sistem mengaktifkan akun</text><rect fill="#F1F1F1" height="35.0938" rx="12.5" ry="12.5" style="stroke:#181818;stroke-width:0.5;" width="190.1035" x="62.6768" y="470.7813"/><text fill="#000000" font-family="sans-serif" font-size="12" lengthAdjust="spacing" textLength="170.1035" x="72.6768" y="493.2383">Redirect ke halaman dashboard</text><ellipse cx="157.7285" cy="536.875" fill="none" rx="11" ry="11" style="stroke:#222222;stroke-width:1.0;"/><ellipse cx="157.7285" cy="536.875" fill="#222222" rx="6" ry="6" style="stroke:#222222;stroke-width:1.0;"/><rect fill="#F1F1F1" height="35.0938" rx="12.5" ry="12.5" style="stroke:#181818;stroke-width:0.5;" width="200.7676" x="324.457" y="305.5"/><text fill="#000000" font-family="sans-serif" font-size="12" lengthAdjust="spacing" textLength="180.7676" x="334.457" y="327.957">Tampilkan pesan token tidak valid</text><ellipse cx="424.8408" cy="371.5938" fill="none" rx="11" ry="11" style="stroke:#222222;stroke-width:1.0;"/><ellipse cx="424.8408" cy="371.5938" fill="#222222" rx="6" ry="6" style="stroke:#222222;stroke-width:1.0;"/><line style="stroke:#181818;stroke-width:1.0;" x1="291.2847" x2="291.2847" y1="86.2188" y2="106.2188"/><polygon fill="#181818" points="287.2847,96.2188,291.2847,106.2188,295.2847,96.2188,291.2847,100.2188" style="stroke:#181818;stroke-width:1.0;"/><line style="stroke:#181818;stroke-width:1.0;" x1="291.2847" x2="291.2847" y1="141.3125" y2="161.3125"/><polygon fill="#181818" points="287.2847,151.3125,291.2847,161.3125,295.2847,151.3125,291.2847,155.3125" style="stroke:#181818;stroke-width:1.0;"/><line style="stroke:#181818;stroke-width:1.0;" x1="291.2847" x2="291.2847" y1="196.4063" y2="216.4063"/><polygon fill="#181818" points="287.2847,206.4063,291.2847,216.4063,295.2847,206.4063,291.2847,210.4063" style="stroke:#181818;stroke-width:1.0;"/><line style="stroke:#181818;stroke-width:1.0;" x1="157.7285" x2="157.7285" y1="340.5938" y2="360.5938"/><polygon fill="#181818" points="153.7285,350.5938,157.7285,360.5938,161.7285,350.5938,157.7285,354.5938" style="stroke:#181818;stroke-width:1.0;"/><line style="stroke:#181818;stroke-width:1.0;" x1="157.7285" x2="157.7285" y1="395.6875" y2="415.6875"/><polygon fill="#181818" points="153.7285,405.6875,157.7285,415.6875,161.7285,405.6875,157.7285,409.6875" style="stroke:#181818;stroke-width:1.0;"/><line style="stroke:#181818;stroke-width:1.0;" x1="157.7285" x2="157.7285" y1="450.7813" y2="470.7813"/><polygon fill="#181818" points="153.7285,460.7813,157.7285,470.7813,161.7285,460.7813,157.7285,464.7813" style="stroke:#181818;stroke-width:1.0;"/><line style="stroke:#181818;stroke-width:1.0;" x1="157.7285" x2="157.7285" y1="505.875" y2="525.875"/><polygon fill="#181818" points="153.7285,515.875,157.7285,525.875,161.7285,515.875,157.7285,519.875" style="stroke:#181818;stroke-width:1.0;"/><line style="stroke:#181818;stroke-width:1.0;" x1="424.8408" x2="424.8408" y1="340.5938" y2="360.5938"/><polygon fill="#181818" points="420.8408,350.5938,424.8408,360.5938,428.8408,350.5938,424.8408,354.5938" style="stroke:#181818;stroke-width:1.0;"/><line style="stroke:#181818;stroke-width:1.0;" x1="248.1001" x2="157.7285" y1="283.5" y2="283.5"/><line style="stroke:#181818;stroke-width:1.0;" x1="157.7285" x2="157.7285" y1="283.5" y2="305.5"/><polygon fill="#181818" points="153.7285,295.5,157.7285,305.5,161.7285,295.5,157.7285,299.5" style="stroke:#181818;stroke-width:1.0;"/><line style="stroke:#181818;stroke-width:1.0;" x1="334.4692" x2="424.8408" y1="283.5" y2="283.5"/><line style="stroke:#181818;stroke-width:1.0;" x1="424.8408" x2="424.8408" y1="283.5" y2="305.5"/><polygon fill="#181818" points="420.8408,295.5,424.8408,305.5,428.8408,295.5,424.8408,299.5" style="stroke:#181818;stroke-width:1.0;"/><line style="stroke:#181818;stroke-width:1.0;" x1="291.2847" x2="291.2847" y1="251.5" y2="271.5"/><polygon fill="#181818" points="287.2847,261.5,291.2847,271.5,295.2847,261.5,291.2847,265.5" style="stroke:#181818;stroke-width:1.0;"/><!--SRC=[NL0nRiCm3Dpr2ex95zAXSD4rGD5aAT25YMcRa4G94fsYlo_bE6vH3O9qnzFTgNgMZ0KZu5NvnlfzcZ0JfAlYcCGvPGq4tKh2A-Deqv_IUKEmCdH-5dWZ6STP45wmpCvLnQBkiA4NGo6IKE68G14vm2mzoeZov0v7cqDVgK9WyO2FfsyOk3V-n5KfsWDnGHgboPD97G-mExVpVVXv3phPPVU1UmUsVhM2CNFmA32a4kV01NBprRaObh7MhrJCRL4TLsR3eM-8W2-irW8VsVvvZ2txq4pGlcMbtwddGbS5Jp1Xm6YqbPWk2H-6LLDs52fP6oler_3dBNEcQllI6hHD_0rmLqlFW_i1]--></g></svg>