<svg xmlns="http://www.w3.org/2000/svg" xmlns:xlink="http://www.w3.org/1999/xlink" contentStyleType="text/css" height="1326px" preserveAspectRatio="none" style="width:694px;height:1326px;background:#FFFFFF;" version="1.1" viewBox="0 0 694 1326" width="694px" zoomAndPan="magnify"><title>Activity Diagram</title><defs/><g><text fill="#000000" font-family="sans-serif" font-size="14" font-weight="bold" lengthAdjust="spacing" textLength="110.4824" x="290.4368" y="34.5332">Activity Diagram</text><text fill="#000000" font-family="sans-serif" font-size="14" font-weight="bold" lengthAdjust="spacing" textLength="210.0273" x="240.6643" y="52.1426">Mengelola Produk &amp; Komposisi</text><ellipse cx="356.1733" cy="76.2188" fill="#222222" rx="10" ry="10" style="stroke:#222222;stroke-width:1.0;"/><rect fill="#F1F1F1" height="35.0938" rx="12.5" ry="12.5" style="stroke:#181818;stroke-width:0.5;" width="260.8145" x="225.7661" y="106.2188"/><text fill="#000000" font-family="sans-serif" font-size="12" lengthAdjust="spacing" textLength="240.8145" x="235.7661" y="128.6758">Bagian Inventori mengakses halaman produk</text><rect fill="#F1F1F1" height="35.0938" rx="12.5" ry="12.5" style="stroke:#181818;stroke-width:0.5;" width="205.4199" x="253.4634" y="161.3125"/><text fill="#000000" font-family="sans-serif" font-size="12" lengthAdjust="spacing" textLength="185.4199" x="263.4634" y="183.7695">Sistem menampilkan daftar produk</text><polygon fill="#F1F1F1" points="342.7241,216.4063,369.6226,216.4063,381.6226,228.4063,369.6226,240.4063,342.7241,240.4063,330.7241,228.4063,342.7241,216.4063" style="stroke:#181818;stroke-width:0.5;"/><text fill="#000000" font-family="sans-serif" font-size="11" lengthAdjust="spacing" textLength="26.8984" x="342.7241" y="232.9072">Aksi?</text><text fill="#000000" font-family="sans-serif" font-size="11" lengthAdjust="spacing" textLength="78.2622" x="252.4619" y="225.9893">Tambah Produk</text><text fill="#000000" font-family="sans-serif" font-size="11" lengthAdjust="spacing" textLength="64.2061" x="381.6226" y="225.9893">Ubah Produk</text><rect fill="#F1F1F1" height="50.1875" rx="12.5" ry="12.5" style="stroke:#181818;stroke-width:0.5;" width="208.7422" x="17.6914" y="250.4063"/><text fill="#000000" font-family="sans-serif" font-size="12" lengthAdjust="spacing" textLength="136.0605" x="27.6914" y="272.8633">Mengisi form produk baru</text><text fill="#000000" font-family="sans-serif" font-size="12" lengthAdjust="spacing" textLength="188.7422" x="27.6914" y="287.957">(nama, deskripsi, kategori, gambar)</text><rect fill="#F1F1F1" height="35.0938" rx="12.5" ry="12.5" style="stroke:#181818;stroke-width:0.5;" width="152.7383" x="45.6934" y="335.5938"/><text fill="#000000" font-family="sans-serif" font-size="12" lengthAdjust="spacing" textLength="132.7383" x="55.6934" y="358.0508">Menentukan jumlah PCS</text><rect fill="#F1F1F1" height="35.0938" rx="12.5" ry="12.5" style="stroke:#181818;stroke-width:0.5;" width="222.125" x="11" y="405.6875"/><text fill="#000000" font-family="sans-serif" font-size="12" lengthAdjust="spacing" textLength="202.125" x="21" y="428.1445">Menambahkan komposisi bahan baku</text><rect fill="#F1F1F1" height="35.0938" rx="12.5" ry="12.5" style="stroke:#181818;stroke-width:0.5;" width="127.3965" x="58.3643" y="504.7813"/><text fill="#000000" font-family="sans-serif" font-size="12" lengthAdjust="spacing" textLength="107.3965" x="68.3643" y="527.2383">Memilih bahan baku</text><rect fill="#F1F1F1" height="35.0938" rx="12.5" ry="12.5" style="stroke:#181818;stroke-width:0.5;" width="195.4824" x="24.3213" y="559.875"/><text fill="#000000" font-family="sans-serif" font-size="12" lengthAdjust="spacing" textLength="175.4824" x="34.3213" y="582.332">Menentukan satuan penggunaan</text><rect fill="#F1F1F1" height="35.0938" rx="12.5" ry="12.5" style="stroke:#181818;stroke-width:0.5;" width="194.8027" x="24.6611" y="622.4688"/><text fill="#000000" font-family="sans-serif" font-size="12" lengthAdjust="spacing" textLength="174.8027" x="34.6611" y="644.9258">Menentukan jumlah penggunaan</text><rect fill="#F1F1F1" height="35.0938" rx="12.5" ry="12.5" style="stroke:#181818;stroke-width:0.5;" width="214.127" x="14.999" y="677.5625"/><text fill="#000000" font-family="sans-serif" font-size="12" lengthAdjust="spacing" textLength="194.127" x="24.999" y="700.0195">Sistem menghitung harga per bahan</text><polygon fill="#F1F1F1" points="122.0625,460.7813,134.0625,472.7813,122.0625,484.7813,110.0625,472.7813,122.0625,460.7813" style="stroke:#181818;stroke-width:0.5;"/><polygon fill="#F1F1F1" points="71.9153,732.6563,172.2097,732.6563,184.2097,744.6563,172.2097,756.6563,71.9153,756.6563,59.9153,744.6563,71.9153,732.6563" style="stroke:#181818;stroke-width:0.5;"/><text fill="#000000" font-family="sans-serif" font-size="11" lengthAdjust="spacing" textLength="100.2944" x="71.9153" y="749.1572">Tambah bahan lain?</text><text fill="#000000" font-family="sans-serif" font-size="11" lengthAdjust="spacing" textLength="13.4546" x="184.2097" y="742.2393">Ya</text><rect fill="#F1F1F1" height="35.0938" rx="12.5" ry="12.5" style="stroke:#181818;stroke-width:0.5;" width="174.1016" x="35.0117" y="891.8271"/><text fill="#000000" font-family="sans-serif" font-size="12" lengthAdjust="spacing" textLength="154.1016" x="45.0117" y="914.2842">Input nama dan jumlah biaya</text><polygon fill="#F1F1F1" points="122.0625,847.8271,134.0625,859.8271,122.0625,871.8271,110.0625,859.8271,122.0625,847.8271" style="stroke:#181818;stroke-width:0.5;"/><polygon fill="#F1F1F1" points="74.061,946.9209,170.064,946.9209,182.064,958.9209,170.064,970.9209,74.061,970.9209,62.061,958.9209,74.061,946.9209" style="stroke:#181818;stroke-width:0.5;"/><text fill="#000000" font-family="sans-serif" font-size="11" lengthAdjust="spacing" textLength="96.0029" x="74.061" y="963.4219">Tambah biaya lain?</text><text fill="#000000" font-family="sans-serif" font-size="11" lengthAdjust="spacing" textLength="13.4546" x="182.064" y="956.5039">Ya</text><polygon fill="#F1F1F1" points="84.4514,798.9092,159.6736,798.9092,171.6736,810.9092,159.6736,822.9092,84.4514,822.9092,72.4514,810.9092,84.4514,798.9092" style="stroke:#181818;stroke-width:0.5;"/><text fill="#000000" font-family="sans-serif" font-size="11" lengthAdjust="spacing" textLength="13.4546" x="126.0625" y="834.3281">Ya</text><text fill="#000000" font-family="sans-serif" font-size="11" lengthAdjust="spacing" textLength="75.2222" x="84.4514" y="815.4102">Ada biaya lain?</text><text fill="#000000" font-family="sans-serif" font-size="11" lengthAdjust="spacing" textLength="26.8984" x="171.6736" y="808.4922">Tidak</text><polygon fill="#F1F1F1" points="122.0625,995.6738,134.0625,1007.6738,122.0625,1019.6738,110.0625,1007.6738,122.0625,995.6738" style="stroke:#181818;stroke-width:0.5;"/><text fill="#000000" font-family="sans-serif" font-size="11" lengthAdjust="spacing" textLength="26.8984" x="128.0625" y="993.2568">Tidak</text><path d="M234.4395,1035.8691 L234.4395,1053.2207 L214.4395,1057.2207 L234.4395,1061.2207 L234.4395,1078.5723 A0,0 0 0 0 234.4395,1078.5723 L476.8965,1078.5723 A0,0 0 0 0 476.8965,1078.5723 L476.8965,1045.8691 L466.8965,1035.8691 L234.4395,1035.8691 A0,0 0 0 0 234.4395,1035.8691 " fill="#FEFFDD" style="stroke:#181818;stroke-width:0.5;"/><path d="M466.8965,1035.8691 L466.8965,1045.8691 L476.8965,1045.8691 L466.8965,1035.8691 " fill="#FEFFDD" style="stroke:#181818;stroke-width:0.5;"/><text fill="#000000" font-family="sans-serif" font-size="13" lengthAdjust="spacing" textLength="211.7134" x="240.4395" y="1054.3643">Modal = Total komposisi + Biaya lain</text><text fill="#000000" font-family="sans-serif" font-size="13" lengthAdjust="spacing" textLength="221.457" x="240.4395" y="1070.7158">Modal per PCS = Modal / Jumlah PCS</text><rect fill="#F1F1F1" height="35.0938" rx="12.5" ry="12.5" style="stroke:#181818;stroke-width:0.5;" width="184.7539" x="29.6855" y="1039.6738"/><text fill="#000000" font-family="sans-serif" font-size="12" lengthAdjust="spacing" textLength="164.7539" x="39.6855" y="1062.1309">Sistem menghitung total modal</text><rect fill="#F1F1F1" height="35.0938" rx="12.5" ry="12.5" style="stroke:#181818;stroke-width:0.5;" width="102.7285" x="70.6982" y="1098.5723"/><text fill="#000000" font-family="sans-serif" font-size="12" lengthAdjust="spacing" textLength="82.7285" x="80.6982" y="1121.0293">Input harga jual</text><rect fill="#F1F1F1" height="35.0938" rx="12.5" ry="12.5" style="stroke:#181818;stroke-width:0.5;" width="141.418" x="51.3535" y="1153.666"/><text fill="#000000" font-family="sans-serif" font-size="12" lengthAdjust="spacing" textLength="121.418" x="61.3535" y="1176.123">Pilih metode penjualan</text><rect fill="#F1F1F1" height="35.0938" rx="12.5" ry="12.5" style="stroke:#181818;stroke-width:0.5;" width="131.0586" x="56.5332" y="1208.7598"/><text fill="#000000" font-family="sans-serif" font-size="12" lengthAdjust="spacing" textLength="111.0586" x="66.5332" y="1231.2168">Status produk = Aktif</text><rect fill="#F1F1F1" height="35.0938" rx="12.5" ry="12.5" style="stroke:#181818;stroke-width:0.5;" width="101.3633" x="539.2866" y="250.4063"/><text fill="#000000" font-family="sans-serif" font-size="12" lengthAdjust="spacing" textLength="81.3633" x="549.2866" y="272.8633">Memilih produk</text><rect fill="#F1F1F1" height="35.0938" rx="12.5" ry="12.5" style="stroke:#181818;stroke-width:0.5;" width="186.7754" x="496.5806" y="320.5"/><text fill="#000000" font-family="sans-serif" font-size="12" lengthAdjust="spacing" textLength="166.7754" x="506.5806" y="342.957">Mengubah data atau komposisi</text><rect fill="#F1F1F1" height="35.0938" rx="12.5" ry="12.5" style="stroke:#181818;stroke-width:0.5;" width="157.3906" x="511.2729" y="390.5938"/><text fill="#000000" font-family="sans-serif" font-size="12" lengthAdjust="spacing" textLength="137.3906" x="521.2729" y="413.0508">Sistem memperbarui data</text><polygon fill="#F1F1F1" points="356.1733,1249.8535,368.1733,1261.8535,356.1733,1273.8535,344.1733,1261.8535,356.1733,1249.8535" style="stroke:#181818;stroke-width:0.5;"/><ellipse cx="356.1733" cy="1304.8535" fill="none" rx="11" ry="11" style="stroke:#222222;stroke-width:1.0;"/><ellipse cx="356.1733" cy="1304.8535" fill="#222222" rx="6" ry="6" style="stroke:#222222;stroke-width:1.0;"/><line style="stroke:#181818;stroke-width:1.0;" x1="356.1733" x2="356.1733" y1="86.2188" y2="106.2188"/><polygon fill="#181818" points="352.1733,96.2188,356.1733,106.2188,360.1733,96.2188,356.1733,100.2188" style="stroke:#181818;stroke-width:1.0;"/><line style="stroke:#181818;stroke-width:1.0;" x1="356.1733" x2="356.1733" y1="141.3125" y2="161.3125"/><polygon fill="#181818" points="352.1733,151.3125,356.1733,161.3125,360.1733,151.3125,356.1733,155.3125" style="stroke:#181818;stroke-width:1.0;"/><line style="stroke:#181818;stroke-width:1.0;" x1="122.0625" x2="122.0625" y1="300.5938" y2="335.5938"/><polygon fill="#181818" points="118.0625,325.5938,122.0625,335.5938,126.0625,325.5938,122.0625,329.5938" style="stroke:#181818;stroke-width:1.0;"/><line style="stroke:#181818;stroke-width:1.0;" x1="122.0625" x2="122.0625" y1="370.6875" y2="405.6875"/><polygon fill="#181818" points="118.0625,395.6875,122.0625,405.6875,126.0625,395.6875,122.0625,399.6875" style="stroke:#181818;stroke-width:1.0;"/><line style="stroke:#181818;stroke-width:1.0;" x1="122.0625" x2="122.0625" y1="539.875" y2="559.875"/><polygon fill="#181818" points="118.0625,549.875,122.0625,559.875,126.0625,549.875,122.0625,553.875" style="stroke:#181818;stroke-width:1.0;"/><line style="stroke:#181818;stroke-width:1.0;" x1="122.0625" x2="122.0625" y1="594.9688" y2="622.4688"/><polygon fill="#181818" points="118.0625,612.4688,122.0625,622.4688,126.0625,612.4688,122.0625,616.4688" style="stroke:#181818;stroke-width:1.0;"/><line style="stroke:#181818;stroke-width:1.0;" x1="122.0625" x2="122.0625" y1="657.5625" y2="677.5625"/><polygon fill="#181818" points="118.0625,667.5625,122.0625,677.5625,126.0625,667.5625,122.0625,671.5625" style="stroke:#181818;stroke-width:1.0;"/><line style="stroke:#181818;stroke-width:1.0;" x1="122.0625" x2="122.0625" y1="484.7813" y2="504.7813"/><polygon fill="#181818" points="118.0625,494.7813,122.0625,504.7813,126.0625,494.7813,122.0625,498.7813" style="stroke:#181818;stroke-width:1.0;"/><line style="stroke:#181818;stroke-width:1.0;" x1="184.2097" x2="241.126" y1="744.6563" y2="744.6563"/><polygon fill="#181818" points="237.126,614.9688,241.126,604.9688,245.126,614.9688,241.126,610.9688" style="stroke:#181818;stroke-width:1.0;"/><line style="stroke:#181818;stroke-width:1.0;" x1="241.126" x2="241.126" y1="472.7813" y2="744.6563"/><line style="stroke:#181818;stroke-width:1.0;" x1="241.126" x2="134.0625" y1="472.7813" y2="472.7813"/><polygon fill="#181818" points="144.0625,468.7813,134.0625,472.7813,144.0625,476.7813,140.0625,472.7813" style="stroke:#181818;stroke-width:1.0;"/><line style="stroke:#181818;stroke-width:1.0;" x1="122.0625" x2="122.0625" y1="712.6563" y2="732.6563"/><polygon fill="#181818" points="118.0625,722.6563,122.0625,732.6563,126.0625,722.6563,122.0625,726.6563" style="stroke:#181818;stroke-width:1.0;"/><line style="stroke:#181818;stroke-width:1.0;" x1="122.0625" x2="122.0625" y1="440.7813" y2="460.7813"/><polygon fill="#181818" points="118.0625,450.7813,122.0625,460.7813,126.0625,450.7813,122.0625,454.7813" style="stroke:#181818;stroke-width:1.0;"/><line style="stroke:#181818;stroke-width:1.0;" x1="122.0625" x2="122.0625" y1="871.8271" y2="891.8271"/><polygon fill="#181818" points="118.0625,881.8271,122.0625,891.8271,126.0625,881.8271,122.0625,885.8271" style="stroke:#181818;stroke-width:1.0;"/><line style="stroke:#181818;stroke-width:1.0;" x1="182.064" x2="221.1133" y1="958.9209" y2="958.9209"/><polygon fill="#181818" points="217.1133,919.374,221.1133,909.374,225.1133,919.374,221.1133,915.374" style="stroke:#181818;stroke-width:1.0;"/><line style="stroke:#181818;stroke-width:1.0;" x1="221.1133" x2="221.1133" y1="859.8271" y2="958.9209"/><line style="stroke:#181818;stroke-width:1.0;" x1="221.1133" x2="134.0625" y1="859.8271" y2="859.8271"/><polygon fill="#181818" points="144.0625,855.8271,134.0625,859.8271,144.0625,863.8271,140.0625,859.8271" style="stroke:#181818;stroke-width:1.0;"/><line style="stroke:#181818;stroke-width:1.0;" x1="122.0625" x2="122.0625" y1="926.9209" y2="946.9209"/><polygon fill="#181818" points="118.0625,936.9209,122.0625,946.9209,126.0625,936.9209,122.0625,940.9209" style="stroke:#181818;stroke-width:1.0;"/><line style="stroke:#181818;stroke-width:1.0;" x1="122.0625" x2="122.0625" y1="822.9092" y2="847.8271"/><polygon fill="#181818" points="118.0625,837.8271,122.0625,847.8271,126.0625,837.8271,122.0625,841.8271" style="stroke:#181818;stroke-width:1.0;"/><line style="stroke:#181818;stroke-width:1.0;" x1="171.6736" x2="243.1133" y1="810.9092" y2="810.9092"/><polygon fill="#181818" points="239.1133,906.292,243.1133,916.292,247.1133,906.292,243.1133,910.292" style="stroke:#181818;stroke-width:1.0;"/><line style="stroke:#181818;stroke-width:1.0;" x1="243.1133" x2="243.1133" y1="810.9092" y2="1007.6738"/><line style="stroke:#181818;stroke-width:1.0;" x1="243.1133" x2="134.0625" y1="1007.6738" y2="1007.6738"/><polygon fill="#181818" points="144.0625,1003.6738,134.0625,1007.6738,144.0625,1011.6738,140.0625,1007.6738" style="stroke:#181818;stroke-width:1.0;"/><line style="stroke:#181818;stroke-width:1.0;" x1="122.0625" x2="122.0625" y1="970.9209" y2="995.6738"/><polygon fill="#181818" points="118.0625,985.6738,122.0625,995.6738,126.0625,985.6738,122.0625,989.6738" style="stroke:#181818;stroke-width:1.0;"/><line style="stroke:#181818;stroke-width:1.0;" x1="122.0625" x2="122.0625" y1="756.6563" y2="798.9092"/><polygon fill="#181818" points="118.0625,788.9092,122.0625,798.9092,126.0625,788.9092,122.0625,792.9092" style="stroke:#181818;stroke-width:1.0;"/><text fill="#000000" font-family="sans-serif" font-size="11" lengthAdjust="spacing" textLength="26.8984" x="126.0625" y="778.9922">Tidak</text><line style="stroke:#181818;stroke-width:1.0;" x1="122.0625" x2="122.0625" y1="1019.6738" y2="1039.6738"/><polygon fill="#181818" points="118.0625,1029.6738,122.0625,1039.6738,126.0625,1029.6738,122.0625,1033.6738" style="stroke:#181818;stroke-width:1.0;"/><line style="stroke:#181818;stroke-width:1.0;" x1="122.0625" x2="122.0625" y1="1074.7676" y2="1098.5723"/><polygon fill="#181818" points="118.0625,1088.5723,122.0625,1098.5723,126.0625,1088.5723,122.0625,1092.5723" style="stroke:#181818;stroke-width:1.0;"/><line style="stroke:#181818;stroke-width:1.0;" x1="122.0625" x2="122.0625" y1="1133.666" y2="1153.666"/><polygon fill="#181818" points="118.0625,1143.666,122.0625,1153.666,126.0625,1143.666,122.0625,1147.666" style="stroke:#181818;stroke-width:1.0;"/><line style="stroke:#181818;stroke-width:1.0;" x1="122.0625" x2="122.0625" y1="1188.7598" y2="1208.7598"/><polygon fill="#181818" points="118.0625,1198.7598,122.0625,1208.7598,126.0625,1198.7598,122.0625,1202.7598" style="stroke:#181818;stroke-width:1.0;"/><line style="stroke:#181818;stroke-width:1.0;" x1="589.9683" x2="589.9683" y1="285.5" y2="320.5"/><polygon fill="#181818" points="585.9683,310.5,589.9683,320.5,593.9683,310.5,589.9683,314.5" style="stroke:#181818;stroke-width:1.0;"/><line style="stroke:#181818;stroke-width:1.0;" x1="589.9683" x2="589.9683" y1="355.5938" y2="390.5938"/><polygon fill="#181818" points="585.9683,380.5938,589.9683,390.5938,593.9683,380.5938,589.9683,384.5938" style="stroke:#181818;stroke-width:1.0;"/><line style="stroke:#181818;stroke-width:1.0;" x1="330.7241" x2="122.0625" y1="228.4063" y2="228.4063"/><line style="stroke:#181818;stroke-width:1.0;" x1="122.0625" x2="122.0625" y1="228.4063" y2="250.4063"/><polygon fill="#181818" points="118.0625,240.4063,122.0625,250.4063,126.0625,240.4063,122.0625,244.4063" style="stroke:#181818;stroke-width:1.0;"/><line style="stroke:#181818;stroke-width:1.0;" x1="381.6226" x2="589.9683" y1="228.4063" y2="228.4063"/><line style="stroke:#181818;stroke-width:1.0;" x1="589.9683" x2="589.9683" y1="228.4063" y2="250.4063"/><polygon fill="#181818" points="585.9683,240.4063,589.9683,250.4063,593.9683,240.4063,589.9683,244.4063" style="stroke:#181818;stroke-width:1.0;"/><line style="stroke:#181818;stroke-width:1.0;" x1="122.0625" x2="122.0625" y1="1243.8535" y2="1261.8535"/><line style="stroke:#181818;stroke-width:1.0;" x1="122.0625" x2="344.1733" y1="1261.8535" y2="1261.8535"/><polygon fill="#181818" points="334.1733,1257.8535,344.1733,1261.8535,334.1733,1265.8535,338.1733,1261.8535" style="stroke:#181818;stroke-width:1.0;"/><line style="stroke:#181818;stroke-width:1.0;" x1="589.9683" x2="589.9683" y1="425.6875" y2="1261.8535"/><line style="stroke:#181818;stroke-width:1.0;" x1="589.9683" x2="368.1733" y1="1261.8535" y2="1261.8535"/><polygon fill="#181818" points="378.1733,1257.8535,368.1733,1261.8535,378.1733,1265.8535,374.1733,1261.8535" style="stroke:#181818;stroke-width:1.0;"/><line style="stroke:#181818;stroke-width:1.0;" x1="356.1733" x2="356.1733" y1="196.4063" y2="216.4063"/><polygon fill="#181818" points="352.1733,206.4063,356.1733,216.4063,360.1733,206.4063,356.1733,210.4063" style="stroke:#181818;stroke-width:1.0;"/><line style="stroke:#181818;stroke-width:1.0;" x1="356.1733" x2="356.1733" y1="1273.8535" y2="1293.8535"/><polygon fill="#181818" points="352.1733,1283.8535,356.1733,1293.8535,360.1733,1283.8535,356.1733,1287.8535" style="stroke:#181818;stroke-width:1.0;"/><!--SRC=[RLDDRzim3BtxL_0q95Y6tHDqGxfTsg90WMI70RqmjIAp-Z8agaF__IWhTema1WnOvYFv-1wL3FaU8ph0DwOFuizTXxs2yCQeWsyQ9hOAjgSW_2RKWdxrpyfhPOD5U8cXpGQ-m5DmVKYKg6aIO-HcVO-QqCE3_r2UGoHmaeKcgGGTMdGIwuViJRFUKMBb2W9TJzP8hCMZr9aW3HrXiJM9VYw1E-LXiKTtmEx4ODc0FEj2J3Z0CKHtIeK3nlpg5r8PLz2gP2BrYLPWa9KMNYlGfL9SRgOQGZWN3k_PsTBYrwx69i3GkY3CEBQqwUHyG9ChDgfU8G-Vfon7bheht6NFX9oBD3A9pXxHtuQTgDs4dTNK7N7sMWIF6WKSQ_ivG_ZNaPWyobdfMIGlGbE2nL-isdxxiQSMpKo8mP4MuK3uYMDAzMPCkY74mF31zvcXM28-JyCCXJONYPVyvitc_AuuAfjAMlbH4SgtT9pvU2qJ1qOBBhHeQmqVM44atPtvFvSetC5-m9xz_mht4xKBSD5TTaYIwlaxF4wBDJ8RMit8LOMgR-zvvBD-6NR8AGwjAkQNqEZdUiUoEsdS-plO6gRZfgb2_BbnMUf6ZbTika6vG5ja17dpUSRDXMvE1YktYmQmD1e4JXpwvZy0]--></g></svg>