<svg xmlns="http://www.w3.org/2000/svg" xmlns:xlink="http://www.w3.org/1999/xlink" contentStyleType="text/css" height="809px" preserveAspectRatio="none" style="width:2523px;height:809px;background:#FFFFFF;" version="1.1" viewBox="0 0 2523 809" width="2523px" zoomAndPan="magnify"><defs/><g><rect fill="none" height="22.6406" style="stroke:none;stroke-width:1.0;" width="2490.6741" x="15" y="12.4551"/><ellipse cx="715.5007" cy="50.0957" fill="#222222" rx="10" ry="10" style="stroke:#222222;stroke-width:1.0;"/><rect fill="#F1F1F1" height="35.0938" rx="12.5" ry="12.5" style="stroke:#181818;stroke-width:0.5;" width="236.7852" x="597.1082" y="80.0957"/><text fill="#000000" font-family="sans-serif" font-size="12" lengthAdjust="spacing" textLength="216.7852" x="607.1082" y="102.5527">Membuka halaman Metode Pembayaran</text><polygon fill="#F1F1F1" points="109.5986,135.1895,136.4971,135.1895,148.4971,147.1895,136.4971,159.1895,109.5986,159.1895,97.5986,147.1895,109.5986,135.1895" style="stroke:#181818;stroke-width:0.5;"/><text fill="#000000" font-family="sans-serif" font-size="11" lengthAdjust="spacing" textLength="40.353" x="127.0479" y="170.6084">Tambah</text><text fill="#000000" font-family="sans-serif" font-size="11" lengthAdjust="spacing" textLength="26.8984" x="109.5986" y="151.6904">Aksi?</text><rect fill="#F1F1F1" height="35.0938" rx="12.5" ry="12.5" style="stroke:#181818;stroke-width:0.5;" width="174.0781" x="36.0088" y="192.1084"/><text fill="#000000" font-family="sans-serif" font-size="12" lengthAdjust="spacing" textLength="154.0781" x="46.0088" y="214.5654">Klik tombol Tambah Channel</text><path d="M245.0957,247.2021 L245.0957,289.0811 L225.0957,293.0811 L245.0957,297.0811 L245.0957,338.96 A0,0 0 0 0 245.0957,338.96 L488.5874,338.96 A0,0 0 0 0 488.5874,338.96 L488.5874,257.2021 L478.5874,247.2021 L245.0957,247.2021 A0,0 0 0 0 245.0957,247.2021 " fill="#FEFFDD" style="stroke:#181818;stroke-width:0.5;"/><path d="M478.5874,247.2021 L478.5874,257.2021 L488.5874,257.2021 L478.5874,247.2021 " fill="#FEFFDD" style="stroke:#181818;stroke-width:0.5;"/><text fill="#000000" font-family="sans-serif" font-size="13" lengthAdjust="spacing" textLength="80.2217" x="251.0957" y="265.6973">Data channel:</text><text fill="#000000" font-family="sans-serif" font-size="13" lengthAdjust="spacing" textLength="190.7026" x="251.0957" y="282.0488">- Nama (BCA, Mandiri, QRIS, dll)</text><text fill="#000000" font-family="sans-serif" font-size="13" lengthAdjust="spacing" textLength="222.4917" x="251.0957" y="298.4004">- Tipe (Bank Transfer, E-Wallet, QRIS)</text><text fill="#000000" font-family="sans-serif" font-size="13" lengthAdjust="spacing" textLength="132.228" x="251.0957" y="314.752">- Nomor rekening/akun</text><text fill="#000000" font-family="sans-serif" font-size="13" lengthAdjust="spacing" textLength="140.1626" x="251.0957" y="331.1035">- Nama pemilik rekening</text><rect fill="#F1F1F1" height="35.0938" rx="12.5" ry="12.5" style="stroke:#181818;stroke-width:0.5;" width="204.0957" x="21" y="275.5342"/><text fill="#000000" font-family="sans-serif" font-size="12" lengthAdjust="spacing" textLength="184.0957" x="31" y="297.9912">Mengisi form channel pembayaran</text><rect fill="#F1F1F1" height="35.0938" rx="12.5" ry="12.5" style="stroke:#181818;stroke-width:0.5;" width="146.7383" x="49.6787" y="373.96"/><text fill="#000000" font-family="sans-serif" font-size="12" lengthAdjust="spacing" textLength="126.7383" x="59.6787" y="396.417">Menentukan status aktif</text><rect fill="#F1F1F1" height="35.0938" rx="12.5" ry="12.5" style="stroke:#181818;stroke-width:0.5;" width="127.3965" x="59.3496" y="444.0537"/><text fill="#000000" font-family="sans-serif" font-size="12" lengthAdjust="spacing" textLength="107.3965" x="69.3496" y="466.5107">Menyimpan channel</text><polygon fill="#F1F1F1" points="583.8579,135.1895,610.7563,135.1895,622.7563,147.1895,610.7563,159.1895,583.8579,159.1895,571.8579,147.1895,583.8579,135.1895" style="stroke:#181818;stroke-width:0.5;"/><text fill="#000000" font-family="sans-serif" font-size="11" lengthAdjust="spacing" textLength="18.9546" x="601.3071" y="170.6084">Edit</text><text fill="#000000" font-family="sans-serif" font-size="11" lengthAdjust="spacing" textLength="26.8984" x="583.8579" y="151.6904">Aksi?</text><rect fill="#F1F1F1" height="35.0938" rx="12.5" ry="12.5" style="stroke:#181818;stroke-width:0.5;" width="197.4395" x="498.5874" y="192.1084"/><text fill="#000000" font-family="sans-serif" font-size="12" lengthAdjust="spacing" textLength="177.4395" x="508.5874" y="214.5654">Memilih channel yang akan diedit</text><rect fill="#F1F1F1" height="35.0938" rx="12.5" ry="12.5" style="stroke:#181818;stroke-width:0.5;" width="148.7715" x="522.9214" y="247.2021"/><text fill="#000000" font-family="sans-serif" font-size="12" lengthAdjust="spacing" textLength="128.7715" x="532.9214" y="269.6592">Mengubah data channel</text><rect fill="#F1F1F1" height="35.0938" rx="12.5" ry="12.5" style="stroke:#181818;stroke-width:0.5;" width="142.748" x="525.9331" y="317.2959"/><text fill="#000000" font-family="sans-serif" font-size="12" lengthAdjust="spacing" textLength="122.748" x="535.9331" y="339.7529">Menyimpan perubahan</text><polygon fill="#F1F1F1" points="892.1514,135.1895,919.0498,135.1895,931.0498,147.1895,919.0498,159.1895,892.1514,159.1895,880.1514,147.1895,892.1514,135.1895" style="stroke:#181818;stroke-width:0.5;"/><text fill="#000000" font-family="sans-serif" font-size="11" lengthAdjust="spacing" textLength="67.8745" x="909.6006" y="170.6084">Toggle Status</text><text fill="#000000" font-family="sans-serif" font-size="11" lengthAdjust="spacing" textLength="26.8984" x="892.1514" y="151.6904">Aksi?</text><text fill="#000000" font-family="sans-serif" font-size="11" lengthAdjust="spacing" textLength="31.7969" x="931.0498" y="144.7725">Hapus</text><rect fill="#F1F1F1" height="35.0938" rx="12.5" ry="12.5" style="stroke:#181818;stroke-width:0.5;" width="106.707" x="852.2471" y="192.1084"/><text fill="#000000" font-family="sans-serif" font-size="12" lengthAdjust="spacing" textLength="86.707" x="862.2471" y="214.5654">Memilih channel</text><rect fill="#F1F1F1" height="35.0938" rx="12.5" ry="12.5" style="stroke:#181818;stroke-width:0.5;" width="146.0703" x="832.5654" y="247.2021"/><text fill="#000000" font-family="sans-serif" font-size="12" lengthAdjust="spacing" textLength="126.0703" x="842.5654" y="269.6592">Klik toggle aktif/nonaktif</text><rect fill="#F1F1F1" height="35.0938" rx="12.5" ry="12.5" style="stroke:#181818;stroke-width:0.5;" width="210.7871" x="988.6357" y="271.6162"/><text fill="#000000" font-family="sans-serif" font-size="12" lengthAdjust="spacing" textLength="190.7871" x="998.6357" y="294.0732">Memilih channel yang akan dihapus</text><rect fill="#F1F1F1" height="35.0938" rx="12.5" ry="12.5" style="stroke:#181818;stroke-width:0.5;" width="152.7559" x="1017.6514" y="341.71"/><text fill="#000000" font-family="sans-serif" font-size="12" lengthAdjust="spacing" textLength="132.7559" x="1027.6514" y="364.167">Konfirmasi penghapusan</text><line style="stroke:#000000;stroke-width:1.5;" x1="15" x2="15" y1="12.4551" y2="797.2881"/><rect fill="#F1F1F1" height="35.0938" rx="12.5" ry="12.5" style="stroke:#181818;stroke-width:0.5;" width="88.7129" x="1340.1416" y="512.5771"/><text fill="#000000" font-family="sans-serif" font-size="12" lengthAdjust="spacing" textLength="68.7129" x="1350.1416" y="535.0342">Validasi data</text><polygon fill="#F1F1F1" points="1356.9819,581.1006,1412.0142,581.1006,1424.0142,593.1006,1412.0142,605.1006,1356.9819,605.1006,1344.9819,593.1006,1356.9819,581.1006" style="stroke:#181818;stroke-width:0.5;"/><text fill="#000000" font-family="sans-serif" font-size="11" lengthAdjust="spacing" textLength="55.0322" x="1356.9819" y="597.6016">Data valid?</text><text fill="#000000" font-family="sans-serif" font-size="11" lengthAdjust="spacing" textLength="13.4546" x="1331.5273" y="590.6836">Ya</text><text fill="#000000" font-family="sans-serif" font-size="11" lengthAdjust="spacing" textLength="26.8984" x="1424.0142" y="590.6836">Tidak</text><rect fill="#F1F1F1" height="35.0938" rx="12.5" ry="12.5" style="stroke:#181818;stroke-width:0.5;" width="150.7461" x="1218.0889" y="615.1006"/><text fill="#000000" font-family="sans-serif" font-size="12" lengthAdjust="spacing" textLength="130.7461" x="1228.0889" y="637.5576">Menyimpan ke database</text><rect fill="#F1F1F1" height="35.0938" rx="12.5" ry="12.5" style="stroke:#181818;stroke-width:0.5;" width="168.0781" x="1209.4229" y="670.1943"/><text fill="#000000" font-family="sans-serif" font-size="12" lengthAdjust="spacing" textLength="148.0781" x="1219.4229" y="692.6514">Menampilkan pesan sukses</text><rect fill="#F1F1F1" height="35.0938" rx="12.5" ry="12.5" style="stroke:#181818;stroke-width:0.5;" width="156.0664" x="1397.501" y="615.1006"/><text fill="#000000" font-family="sans-serif" font-size="12" lengthAdjust="spacing" textLength="136.0664" x="1407.501" y="637.5576">Menampilkan pesan error</text><polygon fill="#F1F1F1" points="1384.498,711.2881,1396.498,723.2881,1384.498,735.2881,1372.498,723.2881,1384.498,711.2881" style="stroke:#181818;stroke-width:0.5;"/><rect fill="#F1F1F1" height="35.0938" rx="12.5" ry="12.5" style="stroke:#181818;stroke-width:0.5;" width="88.7129" x="1603.25" y="387.3896"/><text fill="#000000" font-family="sans-serif" font-size="12" lengthAdjust="spacing" textLength="68.7129" x="1613.25" y="409.8467">Validasi data</text><rect fill="#F1F1F1" height="35.0938" rx="12.5" ry="12.5" style="stroke:#181818;stroke-width:0.5;" width="130.7539" x="1582.2295" y="457.4834"/><text fill="#000000" font-family="sans-serif" font-size="12" lengthAdjust="spacing" textLength="110.7539" x="1592.2295" y="479.9404">Update data channel</text><rect fill="#F1F1F1" height="35.0938" rx="12.5" ry="12.5" style="stroke:#181818;stroke-width:0.5;" width="168.0781" x="1563.5674" y="526.0068"/><text fill="#000000" font-family="sans-serif" font-size="12" lengthAdjust="spacing" textLength="148.0781" x="1573.5674" y="548.4639">Menampilkan pesan sukses</text><polygon fill="#F1F1F1" points="1905.1396,317.2959,1980.3511,317.2959,1992.3511,329.2959,1980.3511,341.2959,1905.1396,341.2959,1893.1396,329.2959,1905.1396,317.2959" style="stroke:#181818;stroke-width:0.5;"/><text fill="#000000" font-family="sans-serif" font-size="11" lengthAdjust="spacing" textLength="75.2114" x="1905.1396" y="333.7969">Status saat ini?</text><text fill="#000000" font-family="sans-serif" font-size="11" lengthAdjust="spacing" textLength="21.3931" x="1871.7466" y="326.8789">Aktif</text><text fill="#000000" font-family="sans-serif" font-size="11" lengthAdjust="spacing" textLength="40.353" x="1992.3511" y="326.8789">Nonaktif</text><rect fill="#F1F1F1" height="35.0938" rx="12.5" ry="12.5" style="stroke:#181818;stroke-width:0.5;" width="124.0508" x="1789.5183" y="351.2959"/><text fill="#000000" font-family="sans-serif" font-size="12" lengthAdjust="spacing" textLength="104.0508" x="1799.5183" y="373.7529">Set status: Nonaktif</text><rect fill="#F1F1F1" height="35.0938" rx="12.5" ry="12.5" style="stroke:#181818;stroke-width:0.5;" width="176.7441" x="1763.1716" y="421.3896"/><text fill="#000000" font-family="sans-serif" font-size="12" lengthAdjust="spacing" textLength="156.7441" x="1773.1716" y="443.8467">Channel tidak muncul di kasir</text><rect fill="#F1F1F1" height="35.0938" rx="12.5" ry="12.5" style="stroke:#181818;stroke-width:0.5;" width="103.3672" x="1982.2634" y="351.2959"/><text fill="#000000" font-family="sans-serif" font-size="12" lengthAdjust="spacing" textLength="83.3672" x="1992.2634" y="373.7529">Set status: Aktif</text><rect fill="#F1F1F1" height="35.0938" rx="12.5" ry="12.5" style="stroke:#181818;stroke-width:0.5;" width="148.0625" x="1959.9158" y="421.3896"/><text fill="#000000" font-family="sans-serif" font-size="12" lengthAdjust="spacing" textLength="128.0625" x="1969.9158" y="443.8467">Channel muncul di kasir</text><polygon fill="#F1F1F1" points="1942.7454,462.4834,1954.7454,474.4834,1942.7454,486.4834,1930.7454,474.4834,1942.7454,462.4834" style="stroke:#181818;stroke-width:0.5;"/><rect fill="#F1F1F1" height="35.0938" rx="12.5" ry="12.5" style="stroke:#181818;stroke-width:0.5;" width="168.0781" x="1858.7063" y="519.9131"/><text fill="#000000" font-family="sans-serif" font-size="12" lengthAdjust="spacing" textLength="148.0781" x="1868.7063" y="542.3701">Menampilkan pesan sukses</text><polygon fill="#F1F1F1" points="2246.4731,411.8037,2384.6982,411.8037,2396.6982,423.8037,2384.6982,435.8037,2246.4731,435.8037,2234.4731,423.8037,2246.4731,411.8037" style="stroke:#181818;stroke-width:0.5;"/><text fill="#000000" font-family="sans-serif" font-size="11" lengthAdjust="spacing" textLength="138.2251" x="2246.4731" y="428.3047">Channel pernah digunakan?</text><text fill="#000000" font-family="sans-serif" font-size="11" lengthAdjust="spacing" textLength="13.4546" x="2221.0186" y="421.3867">Ya</text><text fill="#000000" font-family="sans-serif" font-size="11" lengthAdjust="spacing" textLength="26.8984" x="2396.6982" y="421.3867">Tidak</text><rect fill="#F1F1F1" height="35.0938" rx="12.5" ry="12.5" style="stroke:#181818;stroke-width:0.5;" width="151.4141" x="2139.3298" y="445.8037"/><text fill="#000000" font-family="sans-serif" font-size="12" lengthAdjust="spacing" textLength="131.4141" x="2149.3298" y="468.2607">Menampilkan peringatan</text><rect fill="#F1F1F1" height="35.0938" rx="12.5" ry="12.5" style="stroke:#181818;stroke-width:0.5;" width="164.0996" x="2132.9871" y="514.3271"/><text fill="#000000" font-family="sans-serif" font-size="12" lengthAdjust="spacing" textLength="144.0996" x="2142.9871" y="536.7842">Channel tidak bisa dihapus</text><rect fill="#F1F1F1" height="35.0938" rx="12.5" ry="12.5" style="stroke:#181818;stroke-width:0.5;" width="194.1172" x="2117.9783" y="582.8506"/><text fill="#000000" font-family="sans-serif" font-size="12" lengthAdjust="spacing" textLength="174.1172" x="2127.9783" y="605.3076">Sarankan untuk nonaktifkan saja</text><rect fill="#F1F1F1" height="35.0938" rx="12.5" ry="12.5" style="stroke:#181818;stroke-width:0.5;" width="100.0566" x="2366.1062" y="445.8037"/><text fill="#000000" font-family="sans-serif" font-size="12" lengthAdjust="spacing" textLength="80.0566" x="2376.1062" y="468.2607">Hapus channel</text><rect fill="#F1F1F1" height="35.0938" rx="12.5" ry="12.5" style="stroke:#181818;stroke-width:0.5;" width="168.0781" x="2332.0955" y="514.3271"/><text fill="#000000" font-family="sans-serif" font-size="12" lengthAdjust="spacing" textLength="148.0781" x="2342.0955" y="536.7842">Menampilkan pesan sukses</text><polygon fill="#F1F1F1" points="2315.5857,623.9443,2327.5857,635.9443,2315.5857,647.9443,2303.5857,635.9443,2315.5857,623.9443" style="stroke:#181818;stroke-width:0.5;"/><ellipse cx="1752.6455" cy="786.2881" fill="none" rx="11" ry="11" style="stroke:#222222;stroke-width:1.0;"/><ellipse cx="1752.6455" cy="786.2881" fill="#222222" rx="6" ry="6" style="stroke:#222222;stroke-width:1.0;"/><line style="stroke:#000000;stroke-width:1.5;" x1="1203.4229" x2="1203.4229" y1="12.4551" y2="797.2881"/><line style="stroke:#000000;stroke-width:1.5;" x1="2504.1736" x2="2504.1736" y1="12.4551" y2="797.2881"/><line style="stroke:#181818;stroke-width:1.0;" x1="715.5007" x2="715.5007" y1="60.0957" y2="80.0957"/><polygon fill="#181818" points="711.5007,70.0957,715.5007,80.0957,719.5007,70.0957,715.5007,74.0957" style="stroke:#181818;stroke-width:1.0;"/><line style="stroke:#181818;stroke-width:1.0;" x1="123.0479" x2="123.0479" y1="227.2021" y2="275.5342"/><polygon fill="#181818" points="119.0479,265.5342,123.0479,275.5342,127.0479,265.5342,123.0479,269.5342" style="stroke:#181818;stroke-width:1.0;"/><line style="stroke:#181818;stroke-width:1.0;" x1="123.0479" x2="123.0479" y1="310.6279" y2="373.96"/><polygon fill="#181818" points="119.0479,363.96,123.0479,373.96,127.0479,363.96,123.0479,367.96" style="stroke:#181818;stroke-width:1.0;"/><line style="stroke:#181818;stroke-width:1.0;" x1="123.0479" x2="123.0479" y1="409.0537" y2="444.0537"/><polygon fill="#181818" points="119.0479,434.0537,123.0479,444.0537,127.0479,434.0537,123.0479,438.0537" style="stroke:#181818;stroke-width:1.0;"/><line style="stroke:#181818;stroke-width:1.0;" x1="597.3071" x2="597.3071" y1="227.2021" y2="247.2021"/><polygon fill="#181818" points="593.3071,237.2021,597.3071,247.2021,601.3071,237.2021,597.3071,241.2021" style="stroke:#181818;stroke-width:1.0;"/><line style="stroke:#181818;stroke-width:1.0;" x1="597.3071" x2="597.3071" y1="282.2959" y2="317.2959"/><polygon fill="#181818" points="593.3071,307.2959,597.3071,317.2959,601.3071,307.2959,597.3071,311.2959" style="stroke:#181818;stroke-width:1.0;"/><line style="stroke:#181818;stroke-width:1.0;" x1="905.6006" x2="905.6006" y1="227.2021" y2="247.2021"/><polygon fill="#181818" points="901.6006,237.2021,905.6006,247.2021,909.6006,237.2021,905.6006,241.2021" style="stroke:#181818;stroke-width:1.0;"/><line style="stroke:#181818;stroke-width:1.0;" x1="1094.0293" x2="1094.0293" y1="306.71" y2="341.71"/><polygon fill="#181818" points="1090.0293,331.71,1094.0293,341.71,1098.0293,331.71,1094.0293,335.71" style="stroke:#181818;stroke-width:1.0;"/><line style="stroke:#181818;stroke-width:1.0;" x1="123.0479" x2="123.0479" y1="159.1895" y2="192.1084"/><polygon fill="#181818" points="119.0479,182.1084,123.0479,192.1084,127.0479,182.1084,123.0479,186.1084" style="stroke:#181818;stroke-width:1.0;"/><line style="stroke:#181818;stroke-width:1.0;" x1="597.3071" x2="597.3071" y1="159.1895" y2="192.1084"/><polygon fill="#181818" points="593.3071,182.1084,597.3071,192.1084,601.3071,182.1084,597.3071,186.1084" style="stroke:#181818;stroke-width:1.0;"/><line style="stroke:#181818;stroke-width:1.0;" x1="905.6006" x2="905.6006" y1="159.1895" y2="192.1084"/><polygon fill="#181818" points="901.6006,182.1084,905.6006,192.1084,909.6006,182.1084,905.6006,186.1084" style="stroke:#181818;stroke-width:1.0;"/><line style="stroke:#181818;stroke-width:1.0;" x1="148.4971" x2="571.8579" y1="147.1895" y2="147.1895"/><polygon fill="#181818" points="561.8579,143.1895,571.8579,147.1895,561.8579,151.1895,565.8579,147.1895" style="stroke:#181818;stroke-width:1.0;"/><line style="stroke:#181818;stroke-width:1.0;" x1="622.7563" x2="880.1514" y1="147.1895" y2="147.1895"/><polygon fill="#181818" points="870.1514,143.1895,880.1514,147.1895,870.1514,151.1895,874.1514,147.1895" style="stroke:#181818;stroke-width:1.0;"/><line style="stroke:#181818;stroke-width:1.0;" x1="715.5007" x2="715.5007" y1="115.1895" y2="120.1895"/><line style="stroke:#181818;stroke-width:1.0;" x1="715.5007" x2="123.0479" y1="120.1895" y2="120.1895"/><line style="stroke:#181818;stroke-width:1.0;" x1="123.0479" x2="123.0479" y1="120.1895" y2="135.1895"/><polygon fill="#181818" points="119.0479,125.1895,123.0479,135.1895,127.0479,125.1895,123.0479,129.1895" style="stroke:#181818;stroke-width:1.0;"/><line style="stroke:#181818;stroke-width:1.0;" x1="931.0498" x2="1094.0293" y1="147.1895" y2="147.1895"/><line style="stroke:#181818;stroke-width:1.0;" x1="1094.0293" x2="1094.0293" y1="147.1895" y2="271.6162"/><polygon fill="#181818" points="1090.0293,261.6162,1094.0293,271.6162,1098.0293,261.6162,1094.0293,265.6162" style="stroke:#181818;stroke-width:1.0;"/><line style="stroke:#181818;stroke-width:1.0;" x1="1293.4619" x2="1293.4619" y1="650.1943" y2="670.1943"/><polygon fill="#181818" points="1289.4619,660.1943,1293.4619,670.1943,1297.4619,660.1943,1293.4619,664.1943" style="stroke:#181818;stroke-width:1.0;"/><line style="stroke:#181818;stroke-width:1.0;" x1="1344.9819" x2="1293.4619" y1="593.1006" y2="593.1006"/><line style="stroke:#181818;stroke-width:1.0;" x1="1293.4619" x2="1293.4619" y1="593.1006" y2="615.1006"/><polygon fill="#181818" points="1289.4619,605.1006,1293.4619,615.1006,1297.4619,605.1006,1293.4619,609.1006" style="stroke:#181818;stroke-width:1.0;"/><line style="stroke:#181818;stroke-width:1.0;" x1="1424.0142" x2="1475.5342" y1="593.1006" y2="593.1006"/><line style="stroke:#181818;stroke-width:1.0;" x1="1475.5342" x2="1475.5342" y1="593.1006" y2="615.1006"/><polygon fill="#181818" points="1471.5342,605.1006,1475.5342,615.1006,1479.5342,605.1006,1475.5342,609.1006" style="stroke:#181818;stroke-width:1.0;"/><line style="stroke:#181818;stroke-width:1.0;" x1="1293.4619" x2="1293.4619" y1="705.2881" y2="723.2881"/><line style="stroke:#181818;stroke-width:1.0;" x1="1293.4619" x2="1372.498" y1="723.2881" y2="723.2881"/><polygon fill="#181818" points="1362.498,719.2881,1372.498,723.2881,1362.498,727.2881,1366.498,723.2881" style="stroke:#181818;stroke-width:1.0;"/><line style="stroke:#181818;stroke-width:1.0;" x1="1475.5342" x2="1475.5342" y1="650.1943" y2="723.2881"/><line style="stroke:#181818;stroke-width:1.0;" x1="1475.5342" x2="1396.498" y1="723.2881" y2="723.2881"/><polygon fill="#181818" points="1406.498,719.2881,1396.498,723.2881,1406.498,727.2881,1402.498,723.2881" style="stroke:#181818;stroke-width:1.0;"/><line style="stroke:#181818;stroke-width:1.0;" x1="1384.498" x2="1384.498" y1="547.6709" y2="581.1006"/><polygon fill="#181818" points="1380.498,571.1006,1384.498,581.1006,1388.498,571.1006,1384.498,575.1006" style="stroke:#181818;stroke-width:1.0;"/><line style="stroke:#181818;stroke-width:1.0;" x1="1647.6064" x2="1647.6064" y1="422.4834" y2="457.4834"/><polygon fill="#181818" points="1643.6064,447.4834,1647.6064,457.4834,1651.6064,447.4834,1647.6064,451.4834" style="stroke:#181818;stroke-width:1.0;"/><line style="stroke:#181818;stroke-width:1.0;" x1="1647.6064" x2="1647.6064" y1="492.5771" y2="526.0068"/><polygon fill="#181818" points="1643.6064,516.0068,1647.6064,526.0068,1651.6064,516.0068,1647.6064,520.0068" style="stroke:#181818;stroke-width:1.0;"/><line style="stroke:#181818;stroke-width:1.0;" x1="1851.5437" x2="1851.5437" y1="386.3896" y2="421.3896"/><polygon fill="#181818" points="1847.5437,411.3896,1851.5437,421.3896,1855.5437,411.3896,1851.5437,415.3896" style="stroke:#181818;stroke-width:1.0;"/><line style="stroke:#181818;stroke-width:1.0;" x1="2033.947" x2="2033.947" y1="386.3896" y2="421.3896"/><polygon fill="#181818" points="2029.947,411.3896,2033.947,421.3896,2037.947,411.3896,2033.947,415.3896" style="stroke:#181818;stroke-width:1.0;"/><line style="stroke:#181818;stroke-width:1.0;" x1="1893.1396" x2="1851.5437" y1="329.2959" y2="329.2959"/><line style="stroke:#181818;stroke-width:1.0;" x1="1851.5437" x2="1851.5437" y1="329.2959" y2="351.2959"/><polygon fill="#181818" points="1847.5437,341.2959,1851.5437,351.2959,1855.5437,341.2959,1851.5437,345.2959" style="stroke:#181818;stroke-width:1.0;"/><line style="stroke:#181818;stroke-width:1.0;" x1="1992.3511" x2="2033.947" y1="329.2959" y2="329.2959"/><line style="stroke:#181818;stroke-width:1.0;" x1="2033.947" x2="2033.947" y1="329.2959" y2="351.2959"/><polygon fill="#181818" points="2029.947,341.2959,2033.947,351.2959,2037.947,341.2959,2033.947,345.2959" style="stroke:#181818;stroke-width:1.0;"/><line style="stroke:#181818;stroke-width:1.0;" x1="1851.5437" x2="1851.5437" y1="456.4834" y2="474.4834"/><line style="stroke:#181818;stroke-width:1.0;" x1="1851.5437" x2="1930.7454" y1="474.4834" y2="474.4834"/><polygon fill="#181818" points="1920.7454,470.4834,1930.7454,474.4834,1920.7454,478.4834,1924.7454,474.4834" style="stroke:#181818;stroke-width:1.0;"/><line style="stroke:#181818;stroke-width:1.0;" x1="2033.947" x2="2033.947" y1="456.4834" y2="474.4834"/><line style="stroke:#181818;stroke-width:1.0;" x1="2033.947" x2="1954.7454" y1="474.4834" y2="474.4834"/><polygon fill="#181818" points="1964.7454,470.4834,1954.7454,474.4834,1964.7454,478.4834,1960.7454,474.4834" style="stroke:#181818;stroke-width:1.0;"/><line style="stroke:#181818;stroke-width:1.0;" x1="1942.7454" x2="1942.7454" y1="486.4834" y2="519.9131"/><polygon fill="#181818" points="1938.7454,509.9131,1942.7454,519.9131,1946.7454,509.9131,1942.7454,513.9131" style="stroke:#181818;stroke-width:1.0;"/><line style="stroke:#181818;stroke-width:1.0;" x1="2215.0369" x2="2215.0369" y1="480.8975" y2="514.3271"/><polygon fill="#181818" points="2211.0369,504.3271,2215.0369,514.3271,2219.0369,504.3271,2215.0369,508.3271" style="stroke:#181818;stroke-width:1.0;"/><line style="stroke:#181818;stroke-width:1.0;" x1="2215.0369" x2="2215.0369" y1="549.4209" y2="582.8506"/><polygon fill="#181818" points="2211.0369,572.8506,2215.0369,582.8506,2219.0369,572.8506,2215.0369,576.8506" style="stroke:#181818;stroke-width:1.0;"/><line style="stroke:#181818;stroke-width:1.0;" x1="2416.1345" x2="2416.1345" y1="480.8975" y2="514.3271"/><polygon fill="#181818" points="2412.1345,504.3271,2416.1345,514.3271,2420.1345,504.3271,2416.1345,508.3271" style="stroke:#181818;stroke-width:1.0;"/><line style="stroke:#181818;stroke-width:1.0;" x1="2234.4731" x2="2215.0369" y1="423.8037" y2="423.8037"/><line style="stroke:#181818;stroke-width:1.0;" x1="2215.0369" x2="2215.0369" y1="423.8037" y2="445.8037"/><polygon fill="#181818" points="2211.0369,435.8037,2215.0369,445.8037,2219.0369,435.8037,2215.0369,439.8037" style="stroke:#181818;stroke-width:1.0;"/><line style="stroke:#181818;stroke-width:1.0;" x1="2396.6982" x2="2416.1345" y1="423.8037" y2="423.8037"/><line style="stroke:#181818;stroke-width:1.0;" x1="2416.1345" x2="2416.1345" y1="423.8037" y2="445.8037"/><polygon fill="#181818" points="2412.1345,435.8037,2416.1345,445.8037,2420.1345,435.8037,2416.1345,439.8037" style="stroke:#181818;stroke-width:1.0;"/><line style="stroke:#181818;stroke-width:1.0;" x1="2215.0369" x2="2215.0369" y1="617.9443" y2="635.9443"/><line style="stroke:#181818;stroke-width:1.0;" x1="2215.0369" x2="2303.5857" y1="635.9443" y2="635.9443"/><polygon fill="#181818" points="2293.5857,631.9443,2303.5857,635.9443,2293.5857,639.9443,2297.5857,635.9443" style="stroke:#181818;stroke-width:1.0;"/><line style="stroke:#181818;stroke-width:1.0;" x1="2416.1345" x2="2416.1345" y1="549.4209" y2="635.9443"/><line style="stroke:#181818;stroke-width:1.0;" x1="2416.1345" x2="2327.5857" y1="635.9443" y2="635.9443"/><polygon fill="#181818" points="2337.5857,631.9443,2327.5857,635.9443,2337.5857,639.9443,2333.5857,635.9443" style="stroke:#181818;stroke-width:1.0;"/><line style="stroke:#181818;stroke-width:1.0;" x1="1384.498" x2="1384.498" y1="735.2881" y2="755.2881"/><polygon fill="#181818" points="1380.498,745.2881,1384.498,755.2881,1388.498,745.2881,1384.498,749.2881" style="stroke:#181818;stroke-width:1.0;"/><line style="stroke:#181818;stroke-width:1.0;" x1="1647.6064" x2="1647.6064" y1="561.1006" y2="755.2881"/><polygon fill="#181818" points="1643.6064,745.2881,1647.6064,755.2881,1651.6064,745.2881,1647.6064,749.2881" style="stroke:#181818;stroke-width:1.0;"/><line style="stroke:#181818;stroke-width:1.0;" x1="1942.7454" x2="1942.7454" y1="555.0068" y2="755.2881"/><polygon fill="#181818" points="1938.7454,745.2881,1942.7454,755.2881,1946.7454,745.2881,1942.7454,749.2881" style="stroke:#181818;stroke-width:1.0;"/><line style="stroke:#181818;stroke-width:1.0;" x1="2315.5857" x2="2315.5857" y1="647.9443" y2="755.2881"/><polygon fill="#181818" points="2311.5857,745.2881,2315.5857,755.2881,2319.5857,745.2881,2315.5857,749.2881" style="stroke:#181818;stroke-width:1.0;"/><line style="stroke:#181818;stroke-width:1.0;" x1="1384.498" x2="2315.5857" y1="755.2881" y2="755.2881"/><line style="stroke:#181818;stroke-width:1.0;" x1="123.0479" x2="123.0479" y1="479.1475" y2="496.6475"/><line style="stroke:#181818;stroke-width:1.0;" x1="123.0479" x2="1384.498" y1="496.6475" y2="496.6475"/><line style="stroke:#181818;stroke-width:1.0;" x1="1384.498" x2="1384.498" y1="496.6475" y2="512.5771"/><polygon fill="#181818" points="1380.498,502.5771,1384.498,512.5771,1388.498,502.5771,1384.498,506.5771" style="stroke:#181818;stroke-width:1.0;"/><line style="stroke:#181818;stroke-width:1.0;" x1="597.3071" x2="597.3071" y1="352.3896" y2="369.8896"/><line style="stroke:#181818;stroke-width:1.0;" x1="597.3071" x2="1647.6064" y1="369.8896" y2="369.8896"/><line style="stroke:#181818;stroke-width:1.0;" x1="1647.6064" x2="1647.6064" y1="369.8896" y2="387.3896"/><polygon fill="#181818" points="1643.6064,377.3896,1647.6064,387.3896,1651.6064,377.3896,1647.6064,381.3896" style="stroke:#181818;stroke-width:1.0;"/><line style="stroke:#181818;stroke-width:1.0;" x1="905.6006" x2="905.6006" y1="282.2959" y2="299.7959"/><line style="stroke:#181818;stroke-width:1.0;" x1="905.6006" x2="1942.7454" y1="299.7959" y2="299.7959"/><line style="stroke:#181818;stroke-width:1.0;" x1="1942.7454" x2="1942.7454" y1="299.7959" y2="317.2959"/><polygon fill="#181818" points="1938.7454,307.2959,1942.7454,317.2959,1946.7454,307.2959,1942.7454,311.2959" style="stroke:#181818;stroke-width:1.0;"/><line style="stroke:#181818;stroke-width:1.0;" x1="1094.0293" x2="1094.0293" y1="376.8037" y2="394.3037"/><line style="stroke:#181818;stroke-width:1.0;" x1="1094.0293" x2="2315.5857" y1="394.3037" y2="394.3037"/><line style="stroke:#181818;stroke-width:1.0;" x1="2315.5857" x2="2315.5857" y1="394.3037" y2="411.8037"/><polygon fill="#181818" points="2311.5857,401.8037,2315.5857,411.8037,2319.5857,401.8037,2315.5857,405.8037" style="stroke:#181818;stroke-width:1.0;"/><line style="stroke:#181818;stroke-width:1.0;" x1="715.5007" x2="715.5007" y1="755.2881" y2="760.2881"/><line style="stroke:#181818;stroke-width:1.0;" x1="715.5007" x2="1752.6455" y1="760.2881" y2="760.2881"/><line style="stroke:#181818;stroke-width:1.0;" x1="1752.6455" x2="1752.6455" y1="760.2881" y2="775.2881"/><polygon fill="#181818" points="1748.6455,765.2881,1752.6455,775.2881,1756.6455,765.2881,1752.6455,769.2881" style="stroke:#181818;stroke-width:1.0;"/><text fill="#000000" font-family="sans-serif" font-size="18" lengthAdjust="spacing" textLength="58.0078" x="580.2075" y="31.1406">Pemilik</text><text fill="#000000" font-family="sans-serif" font-size="18" lengthAdjust="spacing" textLength="55.0107" x="1826.2928" y="31.1406">Sistem</text><!--SRC=[ZLN1Zjem4Btp5NC4YTNUuL1HkbAhYbLRQAiU1p99t3ZZo7Og8V7n7TiacuWDWWEIcJTlPjuycyitgfLMrMNcF5e_M-seFhOLGeaQQsJOaJSPWS2EU4QBl9xDL0xpJUNKXmNuaXZc1vHekPY1V5PVXGwygOz6Gmh0jaHcqki4s14NoYd8ZQtXb4BG30e451jFO5LH-dW4-8GUE_Jg-jiJl4gJCF-utInXXvmfgvRm_SUN_H8ohHSzxA0Q4XXo1GSfuNAoItXv-erQaqyPR-1NKniBbYfYnSKpLYsFwpL9inuIeyHPR3eU-a69lQZ98EhwrW5MNkLlCfnLtKZmD9GdVbtsodcgBmdv2xNAK1JBH8C1AkmXol8l0Ffj_C5kbb6LYcB-4HsjHt6i6wL3amsvq6fREN89Gjg9RWUfNYtkvP2rngux7LIUUepPDsPvoPHFP9VUV5VQS2fxIvoH2r5Cw3D5aZImJnjSbGqSSQDfGpQ0EZizfkhgPoC7cc2-ezF4g0TJ59fW7vV_oCphqHMAoT4opsnuu9tRQKBfL0OSeWV5RrriGk9WVNloLp-knEj3tXY-NbRmOUjGjtngjMm0Aj7A3ctHvKvGRoPutsViNVEGqlFFs3ocwCX5PSZgD3QSAri70pJYg1YQTalGTzi_LPQ3_LJHSY2Ul7Y3CQmy4s8gdjJvg1oEEqo2XXSnKBJX8O7E1l59mRzuxvP6YSR6UkJ6nqMaR_bFCCtiFm00]--></g></svg>