<svg xmlns="http://www.w3.org/2000/svg" xmlns:xlink="http://www.w3.org/1999/xlink" contentStyleType="text/css" height="922px" preserveAspectRatio="none" style="width:1444px;height:922px;background:#FFFFFF;" version="1.1" viewBox="0 0 1444 922" width="1444px" zoomAndPan="magnify"><title>Activity Diagram</title><defs/><g><text fill="#000000" font-family="sans-serif" font-size="14" font-weight="bold" lengthAdjust="spacing" textLength="110.4824" x="665.3047" y="34.5332">Activity Diagram</text><text fill="#000000" font-family="sans-serif" font-size="14" font-weight="bold" lengthAdjust="spacing" textLength="155.5723" x="642.7598" y="52.1426">Melihat Katalog Produk</text><ellipse cx="723.5459" cy="76.2188" fill="#222222" rx="10" ry="10" style="stroke:#222222;stroke-width:1.0;"/><rect fill="#F1F1F1" height="35.0938" rx="12.5" ry="12.5" style="stroke:#181818;stroke-width:0.5;" width="240.1543" x="603.4688" y="106.2188"/><text fill="#000000" font-family="sans-serif" font-size="12" lengthAdjust="spacing" textLength="220.1543" x="613.4688" y="128.6758">Pengunjung mengakses halaman katalog</text><rect fill="#F1F1F1" height="35.0938" rx="12.5" ry="12.5" style="stroke:#181818;stroke-width:0.5;" width="214.1152" x="616.4883" y="161.3125"/><text fill="#000000" font-family="sans-serif" font-size="12" lengthAdjust="spacing" textLength="194.1152" x="626.4883" y="183.7695">Sistem load halaman katalog produk</text><rect fill="#F1F1F1" height="35.0938" rx="12.5" ry="12.5" style="stroke:#181818;stroke-width:0.5;" width="245.9668" x="600.5625" y="216.4063"/><text fill="#000000" font-family="sans-serif" font-size="12" lengthAdjust="spacing" textLength="225.9668" x="610.5625" y="238.8633">Sistem set default filter "Pesanan Reguler"</text><rect fill="#F1F1F1" height="35.0938" rx="12.5" ry="12.5" style="stroke:#181818;stroke-width:0.5;" width="285.1191" x="580.9863" y="271.5"/><text fill="#000000" font-family="sans-serif" font-size="12" lengthAdjust="spacing" textLength="265.1191" x="590.9863" y="293.957">Sistem tampilkan filter kategori + kolom pencarian</text><rect fill="#F1F1F1" height="35.0938" rx="12.5" ry="12.5" style="stroke:#181818;stroke-width:0.5;" width="268.1152" x="589.4883" y="326.5938"/><text fill="#000000" font-family="sans-serif" font-size="12" lengthAdjust="spacing" textLength="248.1152" x="599.4883" y="349.0508">Sistem tampilkan 5 produk pertama dalam grid</text><rect fill="#F1F1F1" height="35.0938" rx="12.5" ry="12.5" style="stroke:#181818;stroke-width:0.5;" width="246.1133" x="600.4893" y="381.6875"/><text fill="#000000" font-family="sans-serif" font-size="12" lengthAdjust="spacing" textLength="226.1133" x="610.4893" y="404.1445">Sistem tampilkan info total produk tersedia</text><polygon fill="#F1F1F1" points="41.1875,480.7813,184.8965,480.7813,196.8965,492.7813,184.8965,504.7813,41.1875,504.7813,29.1875,492.7813,41.1875,480.7813" style="stroke:#181818;stroke-width:0.5;"/><text fill="#000000" font-family="sans-serif" font-size="11" lengthAdjust="spacing" textLength="84.3691" x="117.042" y="516.2002">Pilih filter metode</text><text fill="#000000" font-family="sans-serif" font-size="11" lengthAdjust="spacing" textLength="143.709" x="41.1875" y="497.2822">Pengunjung melakukan aksi?</text><rect fill="#F1F1F1" height="35.0938" rx="12.5" ry="12.5" style="stroke:#181818;stroke-width:0.5;" width="204.084" x="11" y="538.6172"/><text fill="#000000" font-family="sans-serif" font-size="12" lengthAdjust="spacing" textLength="184.084" x="21" y="561.0742">Sistem filter produk sesuai metode</text><rect fill="#F1F1F1" height="35.0938" rx="12.5" ry="12.5" style="stroke:#181818;stroke-width:0.5;" width="164.7441" x="30.6699" y="608.7109"/><text fill="#000000" font-family="sans-serif" font-size="12" lengthAdjust="spacing" textLength="144.7441" x="40.6699" y="631.168">Reset ke 5 produk pertama</text><polygon fill="#F1F1F1" points="296.9709,480.7813,359.947,480.7813,371.947,492.7813,359.947,504.7813,296.9709,504.7813,284.9709,492.7813,296.9709,480.7813" style="stroke:#181818;stroke-width:0.5;"/><text fill="#000000" font-family="sans-serif" font-size="11" lengthAdjust="spacing" textLength="62.9761" x="296.9709" y="497.2822">Pilih kategori</text><rect fill="#F1F1F1" height="35.0938" rx="12.5" ry="12.5" style="stroke:#181818;stroke-width:0.5;" width="206.75" x="225.084" y="524.7813"/><text fill="#000000" font-family="sans-serif" font-size="12" lengthAdjust="spacing" textLength="186.75" x="235.084" y="547.2383">Sistem filter produk sesuai kategori</text><rect fill="#F1F1F1" height="35.0938" rx="12.5" ry="12.5" style="stroke:#181818;stroke-width:0.5;" width="164.7441" x="246.0869" y="594.875"/><text fill="#000000" font-family="sans-serif" font-size="12" lengthAdjust="spacing" textLength="144.7441" x="256.0869" y="617.332">Reset ke 5 produk pertama</text><polygon fill="#F1F1F1" points="517.2874,480.7813,593.1111,480.7813,605.1111,492.7813,593.1111,504.7813,517.2874,504.7813,505.2874,492.7813,517.2874,480.7813" style="stroke:#181818;stroke-width:0.5;"/><text fill="#000000" font-family="sans-serif" font-size="11" lengthAdjust="spacing" textLength="75.8237" x="517.2874" y="497.2822">Ketik pencarian</text><rect fill="#F1F1F1" height="35.0938" rx="12.5" ry="12.5" style="stroke:#181818;stroke-width:0.5;" width="226.7305" x="441.834" y="524.7813"/><text fill="#000000" font-family="sans-serif" font-size="12" lengthAdjust="spacing" textLength="206.7305" x="451.834" y="547.2383">Sistem cari produk by nama (real-time)</text><rect fill="#F1F1F1" height="35.0938" rx="12.5" ry="12.5" style="stroke:#181818;stroke-width:0.5;" width="164.7441" x="472.8271" y="594.875"/><text fill="#000000" font-family="sans-serif" font-size="12" lengthAdjust="spacing" textLength="144.7441" x="482.8271" y="617.332">Reset ke 5 produk pertama</text><polygon fill="#F1F1F1" points="865.4194,480.7813,988.1812,480.7813,1000.1812,492.7813,988.1812,504.7813,865.4194,504.7813,853.4194,492.7813,865.4194,480.7813" style="stroke:#181818;stroke-width:0.5;"/><text fill="#000000" font-family="sans-serif" font-size="11" lengthAdjust="spacing" textLength="122.7617" x="865.4194" y="497.2822">Klik "Muat Lebih Banyak"</text><polygon fill="#F1F1F1" points="880.0208,524.7813,973.5798,524.7813,985.5798,536.7813,973.5798,548.7813,880.0208,548.7813,868.0208,536.7813,880.0208,524.7813" style="stroke:#181818;stroke-width:0.5;"/><text fill="#000000" font-family="sans-serif" font-size="11" lengthAdjust="spacing" textLength="93.5591" x="880.0208" y="541.2822">Masih ada produk?</text><text fill="#000000" font-family="sans-serif" font-size="11" lengthAdjust="spacing" textLength="13.4546" x="854.5662" y="534.3643">Ya</text><text fill="#000000" font-family="sans-serif" font-size="11" lengthAdjust="spacing" textLength="26.8984" x="985.5798" y="534.3643">Tidak</text><rect fill="#F1F1F1" height="35.0938" rx="12.5" ry="12.5" style="stroke:#181818;stroke-width:0.5;" width="208.7656" x="698.5645" y="558.7813"/><text fill="#000000" font-family="sans-serif" font-size="12" lengthAdjust="spacing" textLength="188.7656" x="708.5645" y="581.2383">Sistem tambah 5 produk berikutnya</text><rect fill="#F1F1F1" height="35.0938" rx="12.5" ry="12.5" style="stroke:#181818;stroke-width:0.5;" width="246.6465" x="927.3301" y="558.7813"/><text fill="#000000" font-family="sans-serif" font-size="12" lengthAdjust="spacing" textLength="226.6465" x="937.3301" y="581.2383">Sembunyikan tombol "Muat Lebih Banyak"</text><polygon fill="#F1F1F1" points="926.8003,599.875,938.8003,611.875,926.8003,623.875,914.8003,611.875,926.8003,599.875" style="stroke:#181818;stroke-width:0.5;"/><polygon fill="#F1F1F1" points="1257.8269,480.7813,1312.2415,480.7813,1324.2415,492.7813,1312.2415,504.7813,1257.8269,504.7813,1245.8269,492.7813,1257.8269,480.7813" style="stroke:#181818;stroke-width:0.5;"/><text fill="#000000" font-family="sans-serif" font-size="11" lengthAdjust="spacing" textLength="54.4146" x="1257.8269" y="497.2822">Klik produk</text><rect fill="#F1F1F1" height="35.0938" rx="12.5" ry="12.5" style="stroke:#181818;stroke-width:0.5;" width="202.1152" x="1183.9766" y="524.7813"/><text fill="#000000" font-family="sans-serif" font-size="12" lengthAdjust="spacing" textLength="182.1152" x="1193.9766" y="547.2383">Arahkan ke halaman detail produk</text><ellipse cx="1285.0342" cy="605.875" fill="none" rx="11" ry="11" style="stroke:#222222;stroke-width:1.0;"/><ellipse cx="1285.0342" cy="605.875" fill="#222222" rx="6" ry="6" style="stroke:#222222;stroke-width:1.0;"/><polygon fill="#F1F1F1" points="651.396,703.8047,795.6958,703.8047,807.6958,715.8047,795.6958,727.8047,651.396,727.8047,639.396,715.8047,651.396,703.8047" style="stroke:#181818;stroke-width:0.5;"/><text fill="#000000" font-family="sans-serif" font-size="11" lengthAdjust="spacing" textLength="144.2998" x="651.396" y="720.3057">Hasil filter/pencarian kosong?</text><text fill="#000000" font-family="sans-serif" font-size="11" lengthAdjust="spacing" textLength="13.4546" x="625.9414" y="713.3877">Ya</text><text fill="#000000" font-family="sans-serif" font-size="11" lengthAdjust="spacing" textLength="26.8984" x="807.6958" y="713.3877">Tidak</text><rect fill="#F1F1F1" height="35.0938" rx="12.5" ry="12.5" style="stroke:#181818;stroke-width:0.5;" width="261.9863" x="482.3755" y="737.8047"/><text fill="#000000" font-family="sans-serif" font-size="12" lengthAdjust="spacing" textLength="241.9863" x="492.3755" y="760.2617">Tampilkan pesan "Tidak ada produk tersedia"</text><rect fill="#F1F1F1" height="35.0938" rx="12.5" ry="12.5" style="stroke:#181818;stroke-width:0.5;" width="138.7227" x="764.3618" y="737.8047"/><text fill="#000000" font-family="sans-serif" font-size="12" lengthAdjust="spacing" textLength="118.7227" x="774.3618" y="760.2617">Tampilkan grid produk</text><polygon fill="#F1F1F1" points="723.5459,778.8984,735.5459,790.8984,723.5459,802.8984,711.5459,790.8984,723.5459,778.8984" style="stroke:#181818;stroke-width:0.5;"/><polygon fill="#F1F1F1" points="723.5459,436.7813,735.5459,448.7813,723.5459,460.7813,711.5459,448.7813,723.5459,436.7813" style="stroke:#181818;stroke-width:0.5;"/><polygon fill="#F1F1F1" points="646.4922,822.8984,800.5996,822.8984,812.5996,834.8984,800.5996,846.8984,646.4922,846.8984,634.4922,834.8984,646.4922,822.8984" style="stroke:#181818;stroke-width:0.5;"/><text fill="#000000" font-family="sans-serif" font-size="11" lengthAdjust="spacing" textLength="154.1074" x="646.4922" y="839.3994">Pengunjung masih di halaman?</text><text fill="#000000" font-family="sans-serif" font-size="11" lengthAdjust="spacing" textLength="13.4546" x="812.5996" y="832.4814">Ya</text><ellipse cx="723.5459" cy="900.1514" fill="none" rx="11" ry="11" style="stroke:#222222;stroke-width:1.0;"/><ellipse cx="723.5459" cy="900.1514" fill="#222222" rx="6" ry="6" style="stroke:#222222;stroke-width:1.0;"/><line style="stroke:#181818;stroke-width:1.0;" x1="723.5459" x2="723.5459" y1="86.2188" y2="106.2188"/><polygon fill="#181818" points="719.5459,96.2188,723.5459,106.2188,727.5459,96.2188,723.5459,100.2188" style="stroke:#181818;stroke-width:1.0;"/><line style="stroke:#181818;stroke-width:1.0;" x1="723.5459" x2="723.5459" y1="141.3125" y2="161.3125"/><polygon fill="#181818" points="719.5459,151.3125,723.5459,161.3125,727.5459,151.3125,723.5459,155.3125" style="stroke:#181818;stroke-width:1.0;"/><line style="stroke:#181818;stroke-width:1.0;" x1="723.5459" x2="723.5459" y1="196.4063" y2="216.4063"/><polygon fill="#181818" points="719.5459,206.4063,723.5459,216.4063,727.5459,206.4063,723.5459,210.4063" style="stroke:#181818;stroke-width:1.0;"/><line style="stroke:#181818;stroke-width:1.0;" x1="723.5459" x2="723.5459" y1="251.5" y2="271.5"/><polygon fill="#181818" points="719.5459,261.5,723.5459,271.5,727.5459,261.5,723.5459,265.5" style="stroke:#181818;stroke-width:1.0;"/><line style="stroke:#181818;stroke-width:1.0;" x1="723.5459" x2="723.5459" y1="306.5938" y2="326.5938"/><polygon fill="#181818" points="719.5459,316.5938,723.5459,326.5938,727.5459,316.5938,723.5459,320.5938" style="stroke:#181818;stroke-width:1.0;"/><line style="stroke:#181818;stroke-width:1.0;" x1="723.5459" x2="723.5459" y1="361.6875" y2="381.6875"/><polygon fill="#181818" points="719.5459,371.6875,723.5459,381.6875,727.5459,371.6875,723.5459,375.6875" style="stroke:#181818;stroke-width:1.0;"/><line style="stroke:#181818;stroke-width:1.0;" x1="113.042" x2="113.042" y1="573.7109" y2="608.7109"/><polygon fill="#181818" points="109.042,598.7109,113.042,608.7109,117.042,598.7109,113.042,602.7109" style="stroke:#181818;stroke-width:1.0;"/><line style="stroke:#181818;stroke-width:1.0;" x1="328.459" x2="328.459" y1="559.875" y2="594.875"/><polygon fill="#181818" points="324.459,584.875,328.459,594.875,332.459,584.875,328.459,588.875" style="stroke:#181818;stroke-width:1.0;"/><line style="stroke:#181818;stroke-width:1.0;" x1="555.1992" x2="555.1992" y1="559.875" y2="594.875"/><polygon fill="#181818" points="551.1992,584.875,555.1992,594.875,559.1992,584.875,555.1992,588.875" style="stroke:#181818;stroke-width:1.0;"/><line style="stroke:#181818;stroke-width:1.0;" x1="868.0208" x2="802.9473" y1="536.7813" y2="536.7813"/><line style="stroke:#181818;stroke-width:1.0;" x1="802.9473" x2="802.9473" y1="536.7813" y2="558.7813"/><polygon fill="#181818" points="798.9473,548.7813,802.9473,558.7813,806.9473,548.7813,802.9473,552.7813" style="stroke:#181818;stroke-width:1.0;"/><line style="stroke:#181818;stroke-width:1.0;" x1="985.5798" x2="1050.6533" y1="536.7813" y2="536.7813"/><line style="stroke:#181818;stroke-width:1.0;" x1="1050.6533" x2="1050.6533" y1="536.7813" y2="558.7813"/><polygon fill="#181818" points="1046.6533,548.7813,1050.6533,558.7813,1054.6533,548.7813,1050.6533,552.7813" style="stroke:#181818;stroke-width:1.0;"/><line style="stroke:#181818;stroke-width:1.0;" x1="802.9473" x2="802.9473" y1="593.875" y2="611.875"/><line style="stroke:#181818;stroke-width:1.0;" x1="802.9473" x2="914.8003" y1="611.875" y2="611.875"/><polygon fill="#181818" points="904.8003,607.875,914.8003,611.875,904.8003,615.875,908.8003,611.875" style="stroke:#181818;stroke-width:1.0;"/><line style="stroke:#181818;stroke-width:1.0;" x1="1050.6533" x2="1050.6533" y1="593.875" y2="611.875"/><line style="stroke:#181818;stroke-width:1.0;" x1="1050.6533" x2="938.8003" y1="611.875" y2="611.875"/><polygon fill="#181818" points="948.8003,607.875,938.8003,611.875,948.8003,615.875,944.8003,611.875" style="stroke:#181818;stroke-width:1.0;"/><line style="stroke:#181818;stroke-width:1.0;" x1="1285.0342" x2="1285.0342" y1="559.875" y2="594.875"/><polygon fill="#181818" points="1281.0342,584.875,1285.0342,594.875,1289.0342,584.875,1285.0342,588.875" style="stroke:#181818;stroke-width:1.0;"/><line style="stroke:#181818;stroke-width:1.0;" x1="113.042" x2="113.042" y1="504.7813" y2="538.6172"/><polygon fill="#181818" points="109.042,528.6172,113.042,538.6172,117.042,528.6172,113.042,532.6172" style="stroke:#181818;stroke-width:1.0;"/><line style="stroke:#181818;stroke-width:1.0;" x1="113.042" x2="113.042" y1="643.8047" y2="683.8047"/><polygon fill="#181818" points="109.042,673.8047,113.042,683.8047,117.042,673.8047,113.042,677.8047" style="stroke:#181818;stroke-width:1.0;"/><line style="stroke:#181818;stroke-width:1.0;" x1="328.459" x2="328.459" y1="504.7813" y2="524.7813"/><polygon fill="#181818" points="324.459,514.7813,328.459,524.7813,332.459,514.7813,328.459,518.7813" style="stroke:#181818;stroke-width:1.0;"/><line style="stroke:#181818;stroke-width:1.0;" x1="328.459" x2="328.459" y1="629.9688" y2="683.8047"/><polygon fill="#181818" points="324.459,673.8047,328.459,683.8047,332.459,673.8047,328.459,677.8047" style="stroke:#181818;stroke-width:1.0;"/><line style="stroke:#181818;stroke-width:1.0;" x1="555.1992" x2="555.1992" y1="504.7813" y2="524.7813"/><polygon fill="#181818" points="551.1992,514.7813,555.1992,524.7813,559.1992,514.7813,555.1992,518.7813" style="stroke:#181818;stroke-width:1.0;"/><line style="stroke:#181818;stroke-width:1.0;" x1="555.1992" x2="555.1992" y1="629.9688" y2="683.8047"/><polygon fill="#181818" points="551.1992,673.8047,555.1992,683.8047,559.1992,673.8047,555.1992,677.8047" style="stroke:#181818;stroke-width:1.0;"/><line style="stroke:#181818;stroke-width:1.0;" x1="926.8003" x2="926.8003" y1="504.7813" y2="524.7813"/><polygon fill="#181818" points="922.8003,514.7813,926.8003,524.7813,930.8003,514.7813,926.8003,518.7813" style="stroke:#181818;stroke-width:1.0;"/><line style="stroke:#181818;stroke-width:1.0;" x1="926.8003" x2="926.8003" y1="623.875" y2="683.8047"/><polygon fill="#181818" points="922.8003,673.8047,926.8003,683.8047,930.8003,673.8047,926.8003,677.8047" style="stroke:#181818;stroke-width:1.0;"/><line style="stroke:#181818;stroke-width:1.0;" x1="1285.0342" x2="1285.0342" y1="504.7813" y2="524.7813"/><polygon fill="#181818" points="1281.0342,514.7813,1285.0342,524.7813,1289.0342,514.7813,1285.0342,518.7813" style="stroke:#181818;stroke-width:1.0;"/><line style="stroke:#181818;stroke-width:1.0;" x1="196.8965" x2="284.9709" y1="492.7813" y2="492.7813"/><polygon fill="#181818" points="274.9709,488.7813,284.9709,492.7813,274.9709,496.7813,278.9709,492.7813" style="stroke:#181818;stroke-width:1.0;"/><line style="stroke:#181818;stroke-width:1.0;" x1="371.947" x2="505.2874" y1="492.7813" y2="492.7813"/><polygon fill="#181818" points="495.2874,488.7813,505.2874,492.7813,495.2874,496.7813,499.2874,492.7813" style="stroke:#181818;stroke-width:1.0;"/><line style="stroke:#181818;stroke-width:1.0;" x1="605.1111" x2="853.4194" y1="492.7813" y2="492.7813"/><polygon fill="#181818" points="843.4194,488.7813,853.4194,492.7813,843.4194,496.7813,847.4194,492.7813" style="stroke:#181818;stroke-width:1.0;"/><line style="stroke:#181818;stroke-width:1.0;" x1="1000.1812" x2="1245.8269" y1="492.7813" y2="492.7813"/><polygon fill="#181818" points="1235.8269,488.7813,1245.8269,492.7813,1235.8269,496.7813,1239.8269,492.7813" style="stroke:#181818;stroke-width:1.0;"/><line style="stroke:#181818;stroke-width:1.0;" x1="723.5459" x2="723.5459" y1="460.7813" y2="465.7813"/><line style="stroke:#181818;stroke-width:1.0;" x1="723.5459" x2="113.042" y1="465.7813" y2="465.7813"/><line style="stroke:#181818;stroke-width:1.0;" x1="113.042" x2="113.042" y1="465.7813" y2="480.7813"/><polygon fill="#181818" points="109.042,470.7813,113.042,480.7813,117.042,470.7813,113.042,474.7813" style="stroke:#181818;stroke-width:1.0;"/><line style="stroke:#181818;stroke-width:1.0;" x1="1324.2415" x2="1400.0918" y1="492.7813" y2="492.7813"/><line style="stroke:#181818;stroke-width:1.0;" x1="1400.0918" x2="1400.0918" y1="492.7813" y2="683.8047"/><polygon fill="#181818" points="1396.0918,673.8047,1400.0918,683.8047,1404.0918,673.8047,1400.0918,677.8047" style="stroke:#181818;stroke-width:1.0;"/><line style="stroke:#181818;stroke-width:1.0;" x1="113.042" x2="1400.0918" y1="683.8047" y2="683.8047"/><line style="stroke:#181818;stroke-width:1.0;" x1="639.396" x2="613.3687" y1="715.8047" y2="715.8047"/><line style="stroke:#181818;stroke-width:1.0;" x1="613.3687" x2="613.3687" y1="715.8047" y2="737.8047"/><polygon fill="#181818" points="609.3687,727.8047,613.3687,737.8047,617.3687,727.8047,613.3687,731.8047" style="stroke:#181818;stroke-width:1.0;"/><line style="stroke:#181818;stroke-width:1.0;" x1="807.6958" x2="833.7231" y1="715.8047" y2="715.8047"/><line style="stroke:#181818;stroke-width:1.0;" x1="833.7231" x2="833.7231" y1="715.8047" y2="737.8047"/><polygon fill="#181818" points="829.7231,727.8047,833.7231,737.8047,837.7231,727.8047,833.7231,731.8047" style="stroke:#181818;stroke-width:1.0;"/><line style="stroke:#181818;stroke-width:1.0;" x1="613.3687" x2="613.3687" y1="772.8984" y2="790.8984"/><line style="stroke:#181818;stroke-width:1.0;" x1="613.3687" x2="711.5459" y1="790.8984" y2="790.8984"/><polygon fill="#181818" points="701.5459,786.8984,711.5459,790.8984,701.5459,794.8984,705.5459,790.8984" style="stroke:#181818;stroke-width:1.0;"/><line style="stroke:#181818;stroke-width:1.0;" x1="833.7231" x2="833.7231" y1="772.8984" y2="790.8984"/><line style="stroke:#181818;stroke-width:1.0;" x1="833.7231" x2="735.5459" y1="790.8984" y2="790.8984"/><polygon fill="#181818" points="745.5459,786.8984,735.5459,790.8984,745.5459,794.8984,741.5459,790.8984" style="stroke:#181818;stroke-width:1.0;"/><line style="stroke:#181818;stroke-width:1.0;" x1="723.5459" x2="723.5459" y1="683.8047" y2="703.8047"/><polygon fill="#181818" points="719.5459,693.8047,723.5459,703.8047,727.5459,693.8047,723.5459,697.8047" style="stroke:#181818;stroke-width:1.0;"/><line style="stroke:#181818;stroke-width:1.0;" x1="812.5996" x2="1418.0918" y1="834.8984" y2="834.8984"/><polygon fill="#181818" points="1414.0918,663.8047,1418.0918,653.8047,1422.0918,663.8047,1418.0918,659.8047" style="stroke:#181818;stroke-width:1.0;"/><line style="stroke:#181818;stroke-width:1.0;" x1="1418.0918" x2="1418.0918" y1="448.7813" y2="834.8984"/><line style="stroke:#181818;stroke-width:1.0;" x1="1418.0918" x2="735.5459" y1="448.7813" y2="448.7813"/><polygon fill="#181818" points="745.5459,444.7813,735.5459,448.7813,745.5459,452.7813,741.5459,448.7813" style="stroke:#181818;stroke-width:1.0;"/><line style="stroke:#181818;stroke-width:1.0;" x1="723.5459" x2="723.5459" y1="802.8984" y2="822.8984"/><polygon fill="#181818" points="719.5459,812.8984,723.5459,822.8984,727.5459,812.8984,723.5459,816.8984" style="stroke:#181818;stroke-width:1.0;"/><line style="stroke:#181818;stroke-width:1.0;" x1="723.5459" x2="723.5459" y1="416.7813" y2="436.7813"/><polygon fill="#181818" points="719.5459,426.7813,723.5459,436.7813,727.5459,426.7813,723.5459,430.7813" style="stroke:#181818;stroke-width:1.0;"/><line style="stroke:#181818;stroke-width:1.0;" x1="723.5459" x2="723.5459" y1="846.8984" y2="889.1514"/><polygon fill="#181818" points="719.5459,879.1514,723.5459,889.1514,727.5459,879.1514,723.5459,883.1514" style="stroke:#181818;stroke-width:1.0;"/><text fill="#000000" font-family="sans-serif" font-size="11" lengthAdjust="spacing" textLength="26.8984" x="727.5459" y="869.2344">Tidak</text><!--SRC=[dLHDYzj03BtxLmYV4ihIKoy9j6pfeR0DXDsz57gHCugjpdZ6pCWj-VULlvri3cLzCjQRzvwUHawMVOCHQy2Jy1-Moqk53K4u2PR1PvcmE8B7iGZV64j5__87SboXm1CAkb32CGRJsYnBWb6otP5ysVhVhI-XrbUqYH9KwB163tOuiyzsBvo4Qd01pMqLcfvndyseH0A6pjWwWJCxeGZvaH9wFVHCPUievWkdODsmireRiSfBPOWC7y065sfeo9ymClfxXpwD-egA-XN1TFQWZ6pkmTcV0qXGvzCvbKna6BM1I0sXPA0Fds5pbOr3stO4cX1_sO9Kv1N16kxakoO9XhRzyUwPnCVoAAVvjiWZUB-0dwcBpTARXWOCkKI3gLvookW_rIRuE_IUIDWk8tWhs7sVA8eB-6u6cqZe7eHhshv7qgbYVcZrrlwWGhlzYlw2Db-qEzG1avRGu4Ws3-KdBi2rKLKgi5h42ufiMr7gnMFlOVFA1kqj2TL5wo_StG49TH7SFOih9c_uVAUlGNmLusF4gYFLNARDCYJ8Rbwi2PeaDDarztnNlsiQRXp-ntbQka0f-F9kDBlNUIcQRZaXxzjU9JglHhuQq6quAvfkvwvC3pw7hOA_5UiFwcgf-WaQdlfMcvm6am-VUvbzzv_Ifly1]--></g></svg>