<svg xmlns="http://www.w3.org/2000/svg" xmlns:xlink="http://www.w3.org/1999/xlink" contentStyleType="text/css" height="731px" preserveAspectRatio="none" style="width:2193px;height:731px;background:#FFFFFF;" version="1.1" viewBox="0 0 2193 731" width="2193px" zoomAndPan="magnify"><defs/><g><rect fill="none" height="22.6406" style="stroke:none;stroke-width:1.0;" width="2160.811" x="15" y="12.4551"/><ellipse cx="596.2671" cy="50.0957" fill="#222222" rx="10" ry="10" style="stroke:#222222;stroke-width:1.0;"/><rect fill="#F1F1F1" height="35.0938" rx="12.5" ry="12.5" style="stroke:#181818;stroke-width:0.5;" width="169.4141" x="511.5601" y="80.0957"/><text fill="#000000" font-family="sans-serif" font-size="12" lengthAdjust="spacing" textLength="149.4141" x="521.5601" y="102.5527">Membuka halaman Supplier</text><polygon fill="#F1F1F1" points="94.2529,135.1895,121.1514,135.1895,133.1514,147.1895,121.1514,159.1895,94.2529,159.1895,82.2529,147.1895,94.2529,135.1895" style="stroke:#181818;stroke-width:0.5;"/><text fill="#000000" font-family="sans-serif" font-size="11" lengthAdjust="spacing" textLength="40.353" x="111.7021" y="170.6084">Tambah</text><text fill="#000000" font-family="sans-serif" font-size="11" lengthAdjust="spacing" textLength="26.8984" x="94.2529" y="151.6904">Aksi?</text><rect fill="#F1F1F1" height="35.0938" rx="12.5" ry="12.5" style="stroke:#181818;stroke-width:0.5;" width="173.4043" x="21" y="192.1084"/><text fill="#000000" font-family="sans-serif" font-size="12" lengthAdjust="spacing" textLength="153.4043" x="31" y="214.5654">Klik tombol Tambah Supplier</text><path d="M194.7227,247.2021 L194.7227,280.9053 L174.7227,284.9053 L194.7227,288.9053 L194.7227,322.6084 A0,0 0 0 0 194.7227,322.6084 L335.6616,322.6084 A0,0 0 0 0 335.6616,322.6084 L335.6616,257.2021 L325.6616,247.2021 L194.7227,247.2021 A0,0 0 0 0 194.7227,247.2021 " fill="#FEFFDD" style="stroke:#181818;stroke-width:0.5;"/><path d="M325.6616,247.2021 L325.6616,257.2021 L335.6616,257.2021 L325.6616,247.2021 " fill="#FEFFDD" style="stroke:#181818;stroke-width:0.5;"/><text fill="#000000" font-family="sans-serif" font-size="13" lengthAdjust="spacing" textLength="80.209" x="200.7227" y="265.6973">Data supplier:</text><text fill="#000000" font-family="sans-serif" font-size="13" lengthAdjust="spacing" textLength="119.939" x="200.7227" y="282.0488">- Nama supplier/toko</text><text fill="#000000" font-family="sans-serif" font-size="13" lengthAdjust="spacing" textLength="93.209" x="200.7227" y="298.4004">- Nomor telepon</text><text fill="#000000" font-family="sans-serif" font-size="13" lengthAdjust="spacing" textLength="48.4009" x="200.7227" y="314.752">- Alamat</text><rect fill="#F1F1F1" height="35.0938" rx="12.5" ry="12.5" style="stroke:#181818;stroke-width:0.5;" width="134.041" x="40.6816" y="267.3584"/><text fill="#000000" font-family="sans-serif" font-size="12" lengthAdjust="spacing" textLength="114.041" x="50.6816" y="289.8154">Mengisi form supplier</text><rect fill="#F1F1F1" height="35.0938" rx="12.5" ry="12.5" style="stroke:#181818;stroke-width:0.5;" width="127.3848" x="44.0098" y="357.6084"/><text fill="#000000" font-family="sans-serif" font-size="12" lengthAdjust="spacing" textLength="107.3848" x="54.0098" y="380.0654">Menyimpan supplier</text><polygon fill="#F1F1F1" points="430.9263,135.1895,457.8247,135.1895,469.8247,147.1895,457.8247,159.1895,430.9263,159.1895,418.9263,147.1895,430.9263,135.1895" style="stroke:#181818;stroke-width:0.5;"/><text fill="#000000" font-family="sans-serif" font-size="11" lengthAdjust="spacing" textLength="18.9546" x="448.3755" y="170.6084">Edit</text><text fill="#000000" font-family="sans-serif" font-size="11" lengthAdjust="spacing" textLength="26.8984" x="430.9263" y="151.6904">Aksi?</text><rect fill="#F1F1F1" height="35.0938" rx="12.5" ry="12.5" style="stroke:#181818;stroke-width:0.5;" width="197.4277" x="345.6616" y="192.1084"/><text fill="#000000" font-family="sans-serif" font-size="12" lengthAdjust="spacing" textLength="177.4277" x="355.6616" y="214.5654">Memilih supplier yang akan diedit</text><rect fill="#F1F1F1" height="35.0938" rx="12.5" ry="12.5" style="stroke:#181818;stroke-width:0.5;" width="148.7598" x="369.9956" y="247.2021"/><text fill="#000000" font-family="sans-serif" font-size="12" lengthAdjust="spacing" textLength="128.7598" x="379.9956" y="269.6592">Mengubah data supplier</text><rect fill="#F1F1F1" height="35.0938" rx="12.5" ry="12.5" style="stroke:#181818;stroke-width:0.5;" width="142.748" x="373.0015" y="317.2959"/><text fill="#000000" font-family="sans-serif" font-size="12" lengthAdjust="spacing" textLength="122.748" x="383.0015" y="339.7529">Menyimpan perubahan</text><polygon fill="#F1F1F1" points="637.0132,135.1895,663.9116,135.1895,675.9116,147.1895,663.9116,159.1895,637.0132,159.1895,625.0132,147.1895,637.0132,135.1895" style="stroke:#181818;stroke-width:0.5;"/><text fill="#000000" font-family="sans-serif" font-size="11" lengthAdjust="spacing" textLength="66.0322" x="654.4624" y="170.6084">Lihat Riwayat</text><text fill="#000000" font-family="sans-serif" font-size="11" lengthAdjust="spacing" textLength="26.8984" x="637.0132" y="151.6904">Aksi?</text><text fill="#000000" font-family="sans-serif" font-size="11" lengthAdjust="spacing" textLength="31.7969" x="675.9116" y="144.7725">Hapus</text><rect fill="#F1F1F1" height="35.0938" rx="12.5" ry="12.5" style="stroke:#181818;stroke-width:0.5;" width="106.6953" x="597.1147" y="192.1084"/><text fill="#000000" font-family="sans-serif" font-size="12" lengthAdjust="spacing" textLength="86.6953" x="607.1147" y="214.5654">Memilih supplier</text><rect fill="#F1F1F1" height="35.0938" rx="12.5" ry="12.5" style="stroke:#181818;stroke-width:0.5;" width="210.7754" x="730.4946" y="263.4404"/><text fill="#000000" font-family="sans-serif" font-size="12" lengthAdjust="spacing" textLength="190.7754" x="740.4946" y="285.8975">Memilih supplier yang akan dihapus</text><rect fill="#F1F1F1" height="35.0938" rx="12.5" ry="12.5" style="stroke:#181818;stroke-width:0.5;" width="152.7559" x="759.5044" y="333.5342"/><text fill="#000000" font-family="sans-serif" font-size="12" lengthAdjust="spacing" textLength="132.7559" x="769.5044" y="355.9912">Konfirmasi penghapusan</text><line style="stroke:#000000;stroke-width:1.5;" x1="15" x2="15" y1="12.4551" y2="719.9092"/><rect fill="#F1F1F1" height="35.0938" rx="12.5" ry="12.5" style="stroke:#181818;stroke-width:0.5;" width="88.7129" x="1081.9888" y="427.7021"/><text fill="#000000" font-family="sans-serif" font-size="12" lengthAdjust="spacing" textLength="68.7129" x="1091.9888" y="450.1592">Validasi data</text><polygon fill="#F1F1F1" points="1098.8291,497.7959,1153.8613,497.7959,1165.8613,509.7959,1153.8613,521.7959,1098.8291,521.7959,1086.8291,509.7959,1098.8291,497.7959" style="stroke:#181818;stroke-width:0.5;"/><text fill="#000000" font-family="sans-serif" font-size="11" lengthAdjust="spacing" textLength="55.0322" x="1098.8291" y="514.2969">Data valid?</text><text fill="#000000" font-family="sans-serif" font-size="11" lengthAdjust="spacing" textLength="13.4546" x="1073.3745" y="507.3789">Ya</text><text fill="#000000" font-family="sans-serif" font-size="11" lengthAdjust="spacing" textLength="26.8984" x="1165.8613" y="507.3789">Tidak</text><rect fill="#F1F1F1" height="35.0938" rx="12.5" ry="12.5" style="stroke:#181818;stroke-width:0.5;" width="150.7461" x="959.936" y="531.7959"/><text fill="#000000" font-family="sans-serif" font-size="12" lengthAdjust="spacing" textLength="130.7461" x="969.936" y="554.2529">Menyimpan ke database</text><rect fill="#F1F1F1" height="35.0938" rx="12.5" ry="12.5" style="stroke:#181818;stroke-width:0.5;" width="168.0781" x="951.27" y="592.8154"/><text fill="#000000" font-family="sans-serif" font-size="12" lengthAdjust="spacing" textLength="148.0781" x="961.27" y="615.2725">Menampilkan pesan sukses</text><rect fill="#F1F1F1" height="35.0938" rx="12.5" ry="12.5" style="stroke:#181818;stroke-width:0.5;" width="156.0664" x="1139.3481" y="531.7959"/><text fill="#000000" font-family="sans-serif" font-size="12" lengthAdjust="spacing" textLength="136.0664" x="1149.3481" y="554.2529">Menampilkan pesan error</text><polygon fill="#F1F1F1" points="1126.3452,633.9092,1138.3452,645.9092,1126.3452,657.9092,1114.3452,645.9092,1126.3452,633.9092" style="stroke:#181818;stroke-width:0.5;"/><rect fill="#F1F1F1" height="35.0938" rx="12.5" ry="12.5" style="stroke:#181818;stroke-width:0.5;" width="88.7129" x="1345.0972" y="387.3896"/><text fill="#000000" font-family="sans-serif" font-size="12" lengthAdjust="spacing" textLength="68.7129" x="1355.0972" y="409.8467">Validasi data</text><rect fill="#F1F1F1" height="35.0938" rx="12.5" ry="12.5" style="stroke:#181818;stroke-width:0.5;" width="130.7422" x="1324.0825" y="457.4834"/><text fill="#000000" font-family="sans-serif" font-size="12" lengthAdjust="spacing" textLength="110.7422" x="1334.0825" y="479.9404">Update data supplier</text><rect fill="#F1F1F1" height="35.0938" rx="12.5" ry="12.5" style="stroke:#181818;stroke-width:0.5;" width="168.0781" x="1305.4146" y="527.5771"/><text fill="#000000" font-family="sans-serif" font-size="12" lengthAdjust="spacing" textLength="148.0781" x="1315.4146" y="550.0342">Menampilkan pesan sukses</text><path d="M1678.2388,247.2021 L1678.2388,289.0811 L1658.2388,293.0811 L1678.2388,297.0811 L1678.2388,338.96 A0,0 0 0 0 1678.2388,338.96 L1794.625,338.96 A0,0 0 0 0 1794.625,338.96 L1794.625,257.2021 L1784.625,247.2021 L1678.2388,247.2021 A0,0 0 0 0 1678.2388,247.2021 " fill="#FEFFDD" style="stroke:#181818;stroke-width:0.5;"/><path d="M1784.625,247.2021 L1784.625,257.2021 L1794.625,257.2021 L1784.625,247.2021 " fill="#FEFFDD" style="stroke:#181818;stroke-width:0.5;"/><text fill="#000000" font-family="sans-serif" font-size="13" lengthAdjust="spacing" textLength="95.3862" x="1684.2388" y="265.6973">Riwayat belanja:</text><text fill="#000000" font-family="sans-serif" font-size="13" lengthAdjust="spacing" textLength="92.4854" x="1684.2388" y="282.0488">- Nomor belanja</text><text fill="#000000" font-family="sans-serif" font-size="13" lengthAdjust="spacing" textLength="54.9199" x="1684.2388" y="298.4004">- Tanggal</text><text fill="#000000" font-family="sans-serif" font-size="13" lengthAdjust="spacing" textLength="82.3799" x="1684.2388" y="314.752">- Total belanja</text><text fill="#000000" font-family="sans-serif" font-size="13" lengthAdjust="spacing" textLength="44.7954" x="1684.2388" y="331.1035">- Status</text><rect fill="#F1F1F1" height="35.0938" rx="12.5" ry="12.5" style="stroke:#181818;stroke-width:0.5;" width="174.7461" x="1483.4927" y="275.5342"/><text fill="#000000" font-family="sans-serif" font-size="12" lengthAdjust="spacing" textLength="154.7461" x="1493.4927" y="297.9912">Menampilkan riwayat belanja</text><polygon fill="#F1F1F1" points="1908.3379,403.6279,2064.2715,403.6279,2076.2715,415.6279,2064.2715,427.6279,1908.3379,427.6279,1896.3379,415.6279,1908.3379,403.6279" style="stroke:#181818;stroke-width:0.5;"/><text fill="#000000" font-family="sans-serif" font-size="11" lengthAdjust="spacing" textLength="155.9336" x="1908.3379" y="420.1289">Supplier punya riwayat belanja?</text><text fill="#000000" font-family="sans-serif" font-size="11" lengthAdjust="spacing" textLength="13.4546" x="1882.8833" y="413.2109">Ya</text><text fill="#000000" font-family="sans-serif" font-size="11" lengthAdjust="spacing" textLength="26.8984" x="2076.2715" y="413.2109">Tidak</text><rect fill="#F1F1F1" height="35.0938" rx="12.5" ry="12.5" style="stroke:#181818;stroke-width:0.5;" width="151.4141" x="1810.6309" y="437.6279"/><text fill="#000000" font-family="sans-serif" font-size="12" lengthAdjust="spacing" textLength="131.4141" x="1820.6309" y="460.085">Menampilkan peringatan</text><rect fill="#F1F1F1" height="35.0938" rx="12.5" ry="12.5" style="stroke:#181818;stroke-width:0.5;" width="163.4258" x="1804.625" y="507.7217"/><text fill="#000000" font-family="sans-serif" font-size="12" lengthAdjust="spacing" textLength="143.4258" x="1814.625" y="530.1787">Supplier tidak bisa dihapus</text><rect fill="#F1F1F1" height="35.0938" rx="12.5" ry="12.5" style="stroke:#181818;stroke-width:0.5;" width="100.0449" x="2036.249" y="437.6279"/><text fill="#000000" font-family="sans-serif" font-size="12" lengthAdjust="spacing" textLength="80.0449" x="2046.249" y="460.085">Hapus supplier</text><rect fill="#F1F1F1" height="35.0938" rx="12.5" ry="12.5" style="stroke:#181818;stroke-width:0.5;" width="168.0781" x="2002.2324" y="507.7217"/><text fill="#000000" font-family="sans-serif" font-size="12" lengthAdjust="spacing" textLength="148.0781" x="2012.2324" y="530.1787">Menampilkan pesan sukses</text><polygon fill="#F1F1F1" points="1986.3047,548.8154,1998.3047,560.8154,1986.3047,572.8154,1974.3047,560.8154,1986.3047,548.8154" style="stroke:#181818;stroke-width:0.5;"/><ellipse cx="1516.6704" cy="708.9092" fill="none" rx="11" ry="11" style="stroke:#222222;stroke-width:1.0;"/><ellipse cx="1516.6704" cy="708.9092" fill="#222222" rx="6" ry="6" style="stroke:#222222;stroke-width:1.0;"/><line style="stroke:#000000;stroke-width:1.5;" x1="945.27" x2="945.27" y1="12.4551" y2="719.9092"/><line style="stroke:#000000;stroke-width:1.5;" x1="2174.3105" x2="2174.3105" y1="12.4551" y2="719.9092"/><line style="stroke:#181818;stroke-width:1.0;" x1="596.2671" x2="596.2671" y1="60.0957" y2="80.0957"/><polygon fill="#181818" points="592.2671,70.0957,596.2671,80.0957,600.2671,70.0957,596.2671,74.0957" style="stroke:#181818;stroke-width:1.0;"/><line style="stroke:#181818;stroke-width:1.0;" x1="107.7021" x2="107.7021" y1="227.2021" y2="267.3584"/><polygon fill="#181818" points="103.7021,257.3584,107.7021,267.3584,111.7021,257.3584,107.7021,261.3584" style="stroke:#181818;stroke-width:1.0;"/><line style="stroke:#181818;stroke-width:1.0;" x1="107.7021" x2="107.7021" y1="302.4521" y2="357.6084"/><polygon fill="#181818" points="103.7021,347.6084,107.7021,357.6084,111.7021,347.6084,107.7021,351.6084" style="stroke:#181818;stroke-width:1.0;"/><line style="stroke:#181818;stroke-width:1.0;" x1="444.3755" x2="444.3755" y1="227.2021" y2="247.2021"/><polygon fill="#181818" points="440.3755,237.2021,444.3755,247.2021,448.3755,237.2021,444.3755,241.2021" style="stroke:#181818;stroke-width:1.0;"/><line style="stroke:#181818;stroke-width:1.0;" x1="444.3755" x2="444.3755" y1="282.2959" y2="317.2959"/><polygon fill="#181818" points="440.3755,307.2959,444.3755,317.2959,448.3755,307.2959,444.3755,311.2959" style="stroke:#181818;stroke-width:1.0;"/><line style="stroke:#181818;stroke-width:1.0;" x1="835.8823" x2="835.8823" y1="298.5342" y2="333.5342"/><polygon fill="#181818" points="831.8823,323.5342,835.8823,333.5342,839.8823,323.5342,835.8823,327.5342" style="stroke:#181818;stroke-width:1.0;"/><line style="stroke:#181818;stroke-width:1.0;" x1="107.7021" x2="107.7021" y1="159.1895" y2="192.1084"/><polygon fill="#181818" points="103.7021,182.1084,107.7021,192.1084,111.7021,182.1084,107.7021,186.1084" style="stroke:#181818;stroke-width:1.0;"/><line style="stroke:#181818;stroke-width:1.0;" x1="444.3755" x2="444.3755" y1="159.1895" y2="192.1084"/><polygon fill="#181818" points="440.3755,182.1084,444.3755,192.1084,448.3755,182.1084,444.3755,186.1084" style="stroke:#181818;stroke-width:1.0;"/><line style="stroke:#181818;stroke-width:1.0;" x1="650.4624" x2="650.4624" y1="159.1895" y2="192.1084"/><polygon fill="#181818" points="646.4624,182.1084,650.4624,192.1084,654.4624,182.1084,650.4624,186.1084" style="stroke:#181818;stroke-width:1.0;"/><line style="stroke:#181818;stroke-width:1.0;" x1="133.1514" x2="418.9263" y1="147.1895" y2="147.1895"/><polygon fill="#181818" points="408.9263,143.1895,418.9263,147.1895,408.9263,151.1895,412.9263,147.1895" style="stroke:#181818;stroke-width:1.0;"/><line style="stroke:#181818;stroke-width:1.0;" x1="469.8247" x2="625.0132" y1="147.1895" y2="147.1895"/><polygon fill="#181818" points="615.0132,143.1895,625.0132,147.1895,615.0132,151.1895,619.0132,147.1895" style="stroke:#181818;stroke-width:1.0;"/><line style="stroke:#181818;stroke-width:1.0;" x1="596.2671" x2="596.2671" y1="115.1895" y2="120.1895"/><line style="stroke:#181818;stroke-width:1.0;" x1="596.2671" x2="107.7021" y1="120.1895" y2="120.1895"/><line style="stroke:#181818;stroke-width:1.0;" x1="107.7021" x2="107.7021" y1="120.1895" y2="135.1895"/><polygon fill="#181818" points="103.7021,125.1895,107.7021,135.1895,111.7021,125.1895,107.7021,129.1895" style="stroke:#181818;stroke-width:1.0;"/><line style="stroke:#181818;stroke-width:1.0;" x1="675.9116" x2="835.8823" y1="147.1895" y2="147.1895"/><line style="stroke:#181818;stroke-width:1.0;" x1="835.8823" x2="835.8823" y1="147.1895" y2="263.4404"/><polygon fill="#181818" points="831.8823,253.4404,835.8823,263.4404,839.8823,253.4404,835.8823,257.4404" style="stroke:#181818;stroke-width:1.0;"/><line style="stroke:#181818;stroke-width:1.0;" x1="1035.3091" x2="1035.3091" y1="566.8896" y2="592.8154"/><polygon fill="#181818" points="1031.3091,582.8154,1035.3091,592.8154,1039.3091,582.8154,1035.3091,586.8154" style="stroke:#181818;stroke-width:1.0;"/><line style="stroke:#181818;stroke-width:1.0;" x1="1086.8291" x2="1035.3091" y1="509.7959" y2="509.7959"/><line style="stroke:#181818;stroke-width:1.0;" x1="1035.3091" x2="1035.3091" y1="509.7959" y2="531.7959"/><polygon fill="#181818" points="1031.3091,521.7959,1035.3091,531.7959,1039.3091,521.7959,1035.3091,525.7959" style="stroke:#181818;stroke-width:1.0;"/><line style="stroke:#181818;stroke-width:1.0;" x1="1165.8613" x2="1217.3813" y1="509.7959" y2="509.7959"/><line style="stroke:#181818;stroke-width:1.0;" x1="1217.3813" x2="1217.3813" y1="509.7959" y2="531.7959"/><polygon fill="#181818" points="1213.3813,521.7959,1217.3813,531.7959,1221.3813,521.7959,1217.3813,525.7959" style="stroke:#181818;stroke-width:1.0;"/><line style="stroke:#181818;stroke-width:1.0;" x1="1035.3091" x2="1035.3091" y1="627.9092" y2="645.9092"/><line style="stroke:#181818;stroke-width:1.0;" x1="1035.3091" x2="1114.3452" y1="645.9092" y2="645.9092"/><polygon fill="#181818" points="1104.3452,641.9092,1114.3452,645.9092,1104.3452,649.9092,1108.3452,645.9092" style="stroke:#181818;stroke-width:1.0;"/><line style="stroke:#181818;stroke-width:1.0;" x1="1217.3813" x2="1217.3813" y1="566.8896" y2="645.9092"/><line style="stroke:#181818;stroke-width:1.0;" x1="1217.3813" x2="1138.3452" y1="645.9092" y2="645.9092"/><polygon fill="#181818" points="1148.3452,641.9092,1138.3452,645.9092,1148.3452,649.9092,1144.3452,645.9092" style="stroke:#181818;stroke-width:1.0;"/><line style="stroke:#181818;stroke-width:1.0;" x1="1126.3452" x2="1126.3452" y1="462.7959" y2="497.7959"/><polygon fill="#181818" points="1122.3452,487.7959,1126.3452,497.7959,1130.3452,487.7959,1126.3452,491.7959" style="stroke:#181818;stroke-width:1.0;"/><line style="stroke:#181818;stroke-width:1.0;" x1="1389.4536" x2="1389.4536" y1="422.4834" y2="457.4834"/><polygon fill="#181818" points="1385.4536,447.4834,1389.4536,457.4834,1393.4536,447.4834,1389.4536,451.4834" style="stroke:#181818;stroke-width:1.0;"/><line style="stroke:#181818;stroke-width:1.0;" x1="1389.4536" x2="1389.4536" y1="492.5771" y2="527.5771"/><polygon fill="#181818" points="1385.4536,517.5771,1389.4536,527.5771,1393.4536,517.5771,1389.4536,521.5771" style="stroke:#181818;stroke-width:1.0;"/><line style="stroke:#181818;stroke-width:1.0;" x1="1886.3379" x2="1886.3379" y1="472.7217" y2="507.7217"/><polygon fill="#181818" points="1882.3379,497.7217,1886.3379,507.7217,1890.3379,497.7217,1886.3379,501.7217" style="stroke:#181818;stroke-width:1.0;"/><line style="stroke:#181818;stroke-width:1.0;" x1="2086.2715" x2="2086.2715" y1="472.7217" y2="507.7217"/><polygon fill="#181818" points="2082.2715,497.7217,2086.2715,507.7217,2090.2715,497.7217,2086.2715,501.7217" style="stroke:#181818;stroke-width:1.0;"/><line style="stroke:#181818;stroke-width:1.0;" x1="1896.3379" x2="1886.3379" y1="415.6279" y2="415.6279"/><line style="stroke:#181818;stroke-width:1.0;" x1="1886.3379" x2="1886.3379" y1="415.6279" y2="437.6279"/><polygon fill="#181818" points="1882.3379,427.6279,1886.3379,437.6279,1890.3379,427.6279,1886.3379,431.6279" style="stroke:#181818;stroke-width:1.0;"/><line style="stroke:#181818;stroke-width:1.0;" x1="2076.2715" x2="2086.2715" y1="415.6279" y2="415.6279"/><line style="stroke:#181818;stroke-width:1.0;" x1="2086.2715" x2="2086.2715" y1="415.6279" y2="437.6279"/><polygon fill="#181818" points="2082.2715,427.6279,2086.2715,437.6279,2090.2715,427.6279,2086.2715,431.6279" style="stroke:#181818;stroke-width:1.0;"/><line style="stroke:#181818;stroke-width:1.0;" x1="1886.3379" x2="1886.3379" y1="542.8154" y2="560.8154"/><line style="stroke:#181818;stroke-width:1.0;" x1="1886.3379" x2="1974.3047" y1="560.8154" y2="560.8154"/><polygon fill="#181818" points="1964.3047,556.8154,1974.3047,560.8154,1964.3047,564.8154,1968.3047,560.8154" style="stroke:#181818;stroke-width:1.0;"/><line style="stroke:#181818;stroke-width:1.0;" x1="2086.2715" x2="2086.2715" y1="542.8154" y2="560.8154"/><line style="stroke:#181818;stroke-width:1.0;" x1="2086.2715" x2="1998.3047" y1="560.8154" y2="560.8154"/><polygon fill="#181818" points="2008.3047,556.8154,1998.3047,560.8154,2008.3047,564.8154,2004.3047,560.8154" style="stroke:#181818;stroke-width:1.0;"/><line style="stroke:#181818;stroke-width:1.0;" x1="1126.3452" x2="1126.3452" y1="657.9092" y2="677.9092"/><polygon fill="#181818" points="1122.3452,667.9092,1126.3452,677.9092,1130.3452,667.9092,1126.3452,671.9092" style="stroke:#181818;stroke-width:1.0;"/><line style="stroke:#181818;stroke-width:1.0;" x1="1389.4536" x2="1389.4536" y1="562.6709" y2="677.9092"/><polygon fill="#181818" points="1385.4536,667.9092,1389.4536,677.9092,1393.4536,667.9092,1389.4536,671.9092" style="stroke:#181818;stroke-width:1.0;"/><line style="stroke:#181818;stroke-width:1.0;" x1="1570.8657" x2="1570.8657" y1="310.6279" y2="677.9092"/><polygon fill="#181818" points="1566.8657,667.9092,1570.8657,677.9092,1574.8657,667.9092,1570.8657,671.9092" style="stroke:#181818;stroke-width:1.0;"/><line style="stroke:#181818;stroke-width:1.0;" x1="1986.3047" x2="1986.3047" y1="572.8154" y2="677.9092"/><polygon fill="#181818" points="1982.3047,667.9092,1986.3047,677.9092,1990.3047,667.9092,1986.3047,671.9092" style="stroke:#181818;stroke-width:1.0;"/><line style="stroke:#181818;stroke-width:1.0;" x1="1126.3452" x2="1986.3047" y1="677.9092" y2="677.9092"/><line style="stroke:#181818;stroke-width:1.0;" x1="107.7021" x2="107.7021" y1="392.7021" y2="410.2021"/><line style="stroke:#181818;stroke-width:1.0;" x1="107.7021" x2="1126.3452" y1="410.2021" y2="410.2021"/><line style="stroke:#181818;stroke-width:1.0;" x1="1126.3452" x2="1126.3452" y1="410.2021" y2="427.7021"/><polygon fill="#181818" points="1122.3452,417.7021,1126.3452,427.7021,1130.3452,417.7021,1126.3452,421.7021" style="stroke:#181818;stroke-width:1.0;"/><line style="stroke:#181818;stroke-width:1.0;" x1="444.3755" x2="444.3755" y1="352.3896" y2="369.8896"/><line style="stroke:#181818;stroke-width:1.0;" x1="444.3755" x2="1389.4536" y1="369.8896" y2="369.8896"/><line style="stroke:#181818;stroke-width:1.0;" x1="1389.4536" x2="1389.4536" y1="369.8896" y2="387.3896"/><polygon fill="#181818" points="1385.4536,377.3896,1389.4536,387.3896,1393.4536,377.3896,1389.4536,381.3896" style="stroke:#181818;stroke-width:1.0;"/><line style="stroke:#181818;stroke-width:1.0;" x1="650.4624" x2="650.4624" y1="227.2021" y2="243.8682"/><line style="stroke:#181818;stroke-width:1.0;" x1="650.4624" x2="1570.8657" y1="243.8682" y2="243.8682"/><line style="stroke:#181818;stroke-width:1.0;" x1="1570.8657" x2="1570.8657" y1="243.8682" y2="275.5342"/><polygon fill="#181818" points="1566.8657,265.5342,1570.8657,275.5342,1574.8657,265.5342,1570.8657,269.5342" style="stroke:#181818;stroke-width:1.0;"/><line style="stroke:#181818;stroke-width:1.0;" x1="835.8823" x2="835.8823" y1="368.6279" y2="386.1279"/><line style="stroke:#181818;stroke-width:1.0;" x1="835.8823" x2="1986.3047" y1="386.1279" y2="386.1279"/><line style="stroke:#181818;stroke-width:1.0;" x1="1986.3047" x2="1986.3047" y1="386.1279" y2="403.6279"/><polygon fill="#181818" points="1982.3047,393.6279,1986.3047,403.6279,1990.3047,393.6279,1986.3047,397.6279" style="stroke:#181818;stroke-width:1.0;"/><line style="stroke:#181818;stroke-width:1.0;" x1="596.2671" x2="596.2671" y1="677.9092" y2="682.9092"/><line style="stroke:#181818;stroke-width:1.0;" x1="596.2671" x2="1516.6704" y1="682.9092" y2="682.9092"/><line style="stroke:#181818;stroke-width:1.0;" x1="1516.6704" x2="1516.6704" y1="682.9092" y2="697.9092"/><polygon fill="#181818" points="1512.6704,687.9092,1516.6704,697.9092,1520.6704,687.9092,1516.6704,691.9092" style="stroke:#181818;stroke-width:1.0;"/><text fill="#000000" font-family="sans-serif" font-size="18" lengthAdjust="spacing" textLength="69.0381" x="445.616" y="31.1406">Inventori</text><text fill="#000000" font-family="sans-serif" font-size="18" lengthAdjust="spacing" textLength="55.0107" x="1532.2849" y="31.1406">Sistem</text><!--SRC=[dLJBJkH03BpdAtna3eXxve2GM0d4uy00qXuTnPEOz4lT7T18-NZw4K8o4CJk72ArNNQNgzepNAjNKbvR7WhdqVgYl2DPzHr2Ym8bAjZrnWWckoqAtiF9HUVuV0E-9GKdZoWhR3S5X5zv8xW3hsMb1UJ4h3OXxaWrx1ZssafmYvpIdi1oq_fq1BX4ZnEc78EdS1yuJU4phplzcT9IM_0ao6WrHI_Y5BafgJhTamuJemDB4yPSqacVOSVEanmoz1a5rnZOru7P31L5IMHV8s2IvYzkHWwBQpfAzHKwsYxoA0sBBY0CkKIdS-GoX8IZe7MulTlyL4FMwf5_69NtcMEg_kBSdvfzRZRCdi3OMBBWTb843gWQm7XFpHJgPcxsqULwRjNsM5X3Dg9G_OkovPC91rfh_ODOA_FUSeiU7lWD3_ZRmLS9pndOt18g4gXUSEKrFonHvT6Z7SDJz34etg3uF6kFuWjgvz7txfkddH_C5PhU_O_7RImSnRxHQizMHdTCy3kbrgsCid_iF9XU7V1OdzNzc5bgMJN1TpLRaAcfZri05JjS4lr-Hv84Htx-Pk7IzkHl-5lKfdW7]--></g></svg>