<svg xmlns="http://www.w3.org/2000/svg" xmlns:xlink="http://www.w3.org/1999/xlink" contentStyleType="text/css" height="1918px" preserveAspectRatio="none" style="width:1217px;height:1918px;background:#FFFFFF;" version="1.1" viewBox="0 0 1217 1918" width="1217px" zoomAndPan="magnify"><defs/><g><rect fill="none" height="22.6406" style="stroke:none;stroke-width:1.0;" width="1184.7261" x="15" y="12.4551"/><ellipse cx="332.8313" cy="50.0957" fill="#222222" rx="10" ry="10" style="stroke:#222222;stroke-width:1.0;"/><rect fill="#F1F1F1" height="35.0938" rx="12.5" ry="12.5" style="stroke:#181818;stroke-width:0.5;" width="165.418" x="250.1223" y="80.0957"/><text fill="#000000" font-family="sans-serif" font-size="12" lengthAdjust="spacing" textLength="145.418" x="260.1223" y="102.5527">Membuka halaman Belanja</text><rect fill="#555555" height="6" rx="2.5" ry="2.5" style="stroke:#555555;stroke-width:1.0;" width="376.8457" x="144.4084" y="135.1895"/><rect fill="#F1F1F1" height="35.0938" rx="12.5" ry="12.5" style="stroke:#181818;stroke-width:0.5;" width="134.7383" x="158.4084" y="161.1895"/><text fill="#000000" font-family="sans-serif" font-size="12" lengthAdjust="spacing" textLength="114.7383" x="168.4084" y="183.6465">Melihat daftar belanja</text><rect fill="#F1F1F1" height="35.0938" rx="12.5" ry="12.5" style="stroke:#181818;stroke-width:0.5;" width="186.1074" x="321.1467" y="161.1895"/><text fill="#000000" font-family="sans-serif" font-size="12" lengthAdjust="spacing" textLength="166.1074" x="331.1467" y="183.6465">Membuat rencana belanja baru</text><rect fill="#555555" height="6" rx="2.5" ry="2.5" style="stroke:#555555;stroke-width:1.0;" width="376.8457" x="144.4084" y="216.2832"/><rect fill="#F1F1F1" height="35.0938" rx="12.5" ry="12.5" style="stroke:#181818;stroke-width:0.5;" width="106.6953" x="279.4836" y="291.2012"/><text fill="#000000" font-family="sans-serif" font-size="12" lengthAdjust="spacing" textLength="86.6953" x="289.4836" y="313.6582">Memilih supplier</text><rect fill="#F1F1F1" height="35.0938" rx="12.5" ry="12.5" style="stroke:#181818;stroke-width:0.5;" width="165.4414" x="250.1106" y="346.2949"/><text fill="#000000" font-family="sans-serif" font-size="12" lengthAdjust="spacing" textLength="145.4414" x="260.1106" y="368.752">Menambahkan bahan baku</text><rect fill="#F1F1F1" height="35.0938" rx="12.5" ry="12.5" style="stroke:#181818;stroke-width:0.5;" width="176.7441" x="244.4592" y="401.3887"/><text fill="#000000" font-family="sans-serif" font-size="12" lengthAdjust="spacing" textLength="156.7441" x="254.4592" y="423.8457">Memasukkan jumlah rencana</text><rect fill="#F1F1F1" height="35.0938" rx="12.5" ry="12.5" style="stroke:#181818;stroke-width:0.5;" width="178.748" x="243.4573" y="456.4824"/><text fill="#000000" font-family="sans-serif" font-size="12" lengthAdjust="spacing" textLength="158.748" x="253.4573" y="478.9395">Memasukkan harga perkiraan</text><rect fill="#F1F1F1" height="35.0938" rx="12.5" ry="12.5" style="stroke:#181818;stroke-width:0.5;" width="170.7617" x="247.4504" y="511.5762"/><text fill="#000000" font-family="sans-serif" font-size="12" lengthAdjust="spacing" textLength="150.7617" x="257.4504" y="534.0332">Menyimpan rencana belanja</text><polygon fill="#F1F1F1" points="272.906,242.2832,392.7566,242.2832,404.7566,254.2832,392.7566,266.2832,272.906,266.2832,260.906,254.2832,272.906,242.2832" style="stroke:#181818;stroke-width:0.5;"/><text fill="#000000" font-family="sans-serif" font-size="11" lengthAdjust="spacing" textLength="13.4546" x="336.8313" y="277.7021">Ya</text><text fill="#000000" font-family="sans-serif" font-size="11" lengthAdjust="spacing" textLength="119.8506" x="272.906" y="258.7842">Membuat rencana baru?</text><text fill="#000000" font-family="sans-serif" font-size="11" lengthAdjust="spacing" textLength="26.8984" x="234.0076" y="251.8662">Tidak</text><polygon fill="#F1F1F1" points="332.8313,787.0449,344.8313,799.0449,332.8313,811.0449,320.8313,799.0449,332.8313,787.0449" style="stroke:#181818;stroke-width:0.5;"/><rect fill="#F1F1F1" height="35.0938" rx="12.5" ry="12.5" style="stroke:#181818;stroke-width:0.5;" width="184.7539" x="240.4543" y="831.0449"/><text fill="#000000" font-family="sans-serif" font-size="12" lengthAdjust="spacing" textLength="164.7539" x="250.4543" y="853.502">Memilih belanja untuk diproses</text><polygon fill="#F1F1F1" points="297.3633,886.1387,368.2993,886.1387,380.2993,898.1387,368.2993,910.1387,297.3633,910.1387,285.3633,898.1387,297.3633,886.1387" style="stroke:#181818;stroke-width:0.5;"/><text fill="#000000" font-family="sans-serif" font-size="11" lengthAdjust="spacing" textLength="70.936" x="297.3633" y="902.6396">Mulai belanja?</text><text fill="#000000" font-family="sans-serif" font-size="11" lengthAdjust="spacing" textLength="13.4546" x="271.9087" y="895.7217">Ya</text><text fill="#000000" font-family="sans-serif" font-size="11" lengthAdjust="spacing" textLength="51.9761" x="380.2993" y="895.7217">Dibatalkan</text><rect fill="#F1F1F1" height="35.0938" rx="12.5" ry="12.5" style="stroke:#181818;stroke-width:0.5;" width="178.7422" x="55.6006" y="930.1387"/><text fill="#000000" font-family="sans-serif" font-size="12" lengthAdjust="spacing" textLength="158.7422" x="65.6006" y="952.5957">Mengkonfirmasi mulai belanja</text><rect fill="#F1F1F1" height="35.0938" rx="12.5" ry="12.5" style="stroke:#181818;stroke-width:0.5;" width="136.7363" x="76.6035" y="1095.4199"/><text fill="#000000" font-family="sans-serif" font-size="12" lengthAdjust="spacing" textLength="116.7363" x="86.6035" y="1117.877">Melakukan pembelian</text><rect fill="#F1F1F1" height="35.0938" rx="12.5" ry="12.5" style="stroke:#181818;stroke-width:0.5;" width="135.3887" x="77.2773" y="1150.5137"/><text fill="#000000" font-family="sans-serif" font-size="12" lengthAdjust="spacing" textLength="115.3887" x="87.2773" y="1172.9707">Mengisi jumlah aktual</text><rect fill="#F1F1F1" height="35.0938" rx="12.5" ry="12.5" style="stroke:#181818;stroke-width:0.5;" width="130.7305" x="79.6064" y="1205.6074"/><text fill="#000000" font-family="sans-serif" font-size="12" lengthAdjust="spacing" textLength="110.7305" x="89.6064" y="1228.0645">Mengisi harga aktual</text><rect fill="#F1F1F1" height="35.0938" rx="12.5" ry="12.5" style="stroke:#181818;stroke-width:0.5;" width="199.4316" x="45.2559" y="1260.7012"/><text fill="#000000" font-family="sans-serif" font-size="12" lengthAdjust="spacing" textLength="179.4316" x="55.2559" y="1283.1582">Mengisi tanggal expired (jika ada)</text><polygon fill="#F1F1F1" points="85.3525,1315.7949,204.5908,1315.7949,216.5908,1327.7949,204.5908,1339.7949,85.3525,1339.7949,73.3525,1327.7949,85.3525,1315.7949" style="stroke:#181818;stroke-width:0.5;"/><text fill="#000000" font-family="sans-serif" font-size="11" lengthAdjust="spacing" textLength="119.2383" x="85.3525" y="1332.2959">Jumlah sesuai rencana?</text><text fill="#000000" font-family="sans-serif" font-size="11" lengthAdjust="spacing" textLength="13.4546" x="59.8979" y="1325.3779">Ya</text><text fill="#000000" font-family="sans-serif" font-size="11" lengthAdjust="spacing" textLength="26.8984" x="216.5908" y="1325.3779">Tidak</text><rect fill="#F1F1F1" height="35.0938" rx="12.5" ry="12.5" style="stroke:#181818;stroke-width:0.5;" width="84.7051" x="21" y="1349.7949"/><text fill="#000000" font-family="sans-serif" font-size="12" lengthAdjust="spacing" textLength="64.7051" x="31" y="1372.252">Melanjutkan</text><rect fill="#F1F1F1" height="35.0938" rx="12.5" ry="12.5" style="stroke:#181818;stroke-width:0.5;" width="106.0391" x="173.5713" y="1349.7949"/><text fill="#000000" font-family="sans-serif" font-size="12" lengthAdjust="spacing" textLength="86.0391" x="183.5713" y="1372.252">Mencatat selisih</text><polygon fill="#F1F1F1" points="144.9717,1390.8887,156.9717,1402.8887,144.9717,1414.8887,132.9717,1402.8887,144.9717,1390.8887" style="stroke:#181818;stroke-width:0.5;"/><rect fill="#F1F1F1" height="35.0938" rx="12.5" ry="12.5" style="stroke:#181818;stroke-width:0.5;" width="142.0801" x="73.9316" y="1434.8887"/><text fill="#000000" font-family="sans-serif" font-size="12" lengthAdjust="spacing" textLength="122.0801" x="83.9316" y="1457.3457">Menyelesaikan belanja</text><rect fill="#F1F1F1" height="35.0938" rx="12.5" ry="12.5" style="stroke:#181818;stroke-width:0.5;" width="134.0703" x="453.6558" y="930.1387"/><text fill="#000000" font-family="sans-serif" font-size="12" lengthAdjust="spacing" textLength="114.0703" x="463.6558" y="952.5957">Membatalkan belanja</text><polygon fill="#F1F1F1" points="332.8313,1840.8574,344.8313,1852.8574,332.8313,1864.8574,320.8313,1852.8574,332.8313,1840.8574" style="stroke:#181818;stroke-width:0.5;"/><line style="stroke:#000000;stroke-width:1.5;" x1="15" x2="15" y1="12.4551" y2="1906.8574"/><rect fill="#F1F1F1" height="35.0938" rx="12.5" ry="12.5" style="stroke:#181818;stroke-width:0.5;" width="270.0898" x="767.946" y="566.6699"/><text fill="#000000" font-family="sans-serif" font-size="12" lengthAdjust="spacing" textLength="250.0898" x="777.946" y="589.127">Generate nomor belanja (BP-YYMMDD-XXXX)</text><rect fill="#F1F1F1" height="35.0938" rx="12.5" ry="12.5" style="stroke:#181818;stroke-width:0.5;" width="264.1602" x="770.9109" y="621.7637"/><text fill="#000000" font-family="sans-serif" font-size="12" lengthAdjust="spacing" textLength="244.1602" x="780.9109" y="644.2207">Menyimpan expense dengan status: Rencana</text><rect fill="#F1F1F1" height="35.0938" rx="12.5" ry="12.5" style="stroke:#181818;stroke-width:0.5;" width="168.752" x="818.615" y="676.8574"/><text fill="#000000" font-family="sans-serif" font-size="12" lengthAdjust="spacing" textLength="148.752" x="828.615" y="699.3145">Menyimpan expense details</text><rect fill="#F1F1F1" height="35.0938" rx="12.5" ry="12.5" style="stroke:#181818;stroke-width:0.5;" width="234.7754" x="785.6033" y="731.9512"/><text fill="#000000" font-family="sans-serif" font-size="12" lengthAdjust="spacing" textLength="214.7754" x="795.6033" y="754.4082">Kirim notifikasi (Rencana belanja dibuat)</text><rect fill="#F1F1F1" height="35.0938" rx="12.5" ry="12.5" style="stroke:#181818;stroke-width:0.5;" width="138.0605" x="646.1011" y="985.2324"/><text fill="#000000" font-family="sans-serif" font-size="12" lengthAdjust="spacing" textLength="118.0605" x="656.1011" y="1007.6895">Update status: Proses</text><rect fill="#F1F1F1" height="35.0938" rx="12.5" ry="12.5" style="stroke:#181818;stroke-width:0.5;" width="190.0566" x="620.103" y="1040.3262"/><text fill="#000000" font-family="sans-serif" font-size="12" lengthAdjust="spacing" textLength="170.0566" x="630.103" y="1062.7832">Kirim notifikasi (Belanja dimulai)</text><path d="M852.5366,1479.9824 L852.5366,1513.6855 L832.5366,1517.6855 L852.5366,1521.6855 L852.5366,1555.3887 A0,0 0 0 0 852.5366,1555.3887 L967.4756,1555.3887 A0,0 0 0 0 967.4756,1555.3887 L967.4756,1489.9824 L957.4756,1479.9824 L852.5366,1479.9824 A0,0 0 0 0 852.5366,1479.9824 " fill="#FEFFDD" style="stroke:#181818;stroke-width:0.5;"/><path d="M957.4756,1479.9824 L957.4756,1489.9824 L967.4756,1489.9824 L957.4756,1479.9824 " fill="#FEFFDD" style="stroke:#181818;stroke-width:0.5;"/><text fill="#000000" font-family="sans-serif" font-size="13" lengthAdjust="spacing" textLength="93.939" x="858.5366" y="1498.4775">Batch mencatat:</text><text fill="#000000" font-family="sans-serif" font-size="13" lengthAdjust="spacing" textLength="56.3545" x="858.5366" y="1514.8291">- Quantity</text><text fill="#000000" font-family="sans-serif" font-size="13" lengthAdjust="spacing" textLength="80.9326" x="858.5366" y="1531.1807">- Expired date</text><text fill="#000000" font-family="sans-serif" font-size="13" lengthAdjust="spacing" textLength="67.1963" x="858.5366" y="1547.5322">- Harga beli</text><rect fill="#F1F1F1" height="35.0938" rx="12.5" ry="12.5" style="stroke:#181818;stroke-width:0.5;" width="234.8105" x="597.7261" y="1500.1387"/><text fill="#000000" font-family="sans-serif" font-size="12" lengthAdjust="spacing" textLength="214.8105" x="607.7261" y="1522.5957">Membuat batch baru untuk setiap bahan</text><rect fill="#F1F1F1" height="35.0938" rx="12.5" ry="12.5" style="stroke:#181818;stroke-width:0.5;" width="171.4355" x="629.4136" y="1575.3887"/><text fill="#000000" font-family="sans-serif" font-size="12" lengthAdjust="spacing" textLength="151.4355" x="639.4136" y="1597.8457">Menambah stok bahan baku</text><rect fill="#F1F1F1" height="35.0938" rx="12.5" ry="12.5" style="stroke:#181818;stroke-width:0.5;" width="178.1094" x="626.0767" y="1630.4824"/><text fill="#000000" font-family="sans-serif" font-size="12" lengthAdjust="spacing" textLength="158.1094" x="636.0767" y="1652.9395">Menghitung grand total aktual</text><rect fill="#F1F1F1" height="35.0938" rx="12.5" ry="12.5" style="stroke:#181818;stroke-width:0.5;" width="140.0703" x="645.0962" y="1685.5762"/><text fill="#000000" font-family="sans-serif" font-size="12" lengthAdjust="spacing" textLength="120.0703" x="655.0962" y="1708.0332">Update status: Selesai</text><rect fill="#F1F1F1" height="35.0938" rx="12.5" ry="12.5" style="stroke:#181818;stroke-width:0.5;" width="137.3984" x="646.4321" y="1740.6699"/><text fill="#000000" font-family="sans-serif" font-size="12" lengthAdjust="spacing" textLength="117.3984" x="656.4321" y="1763.127">Mencatat log inventori</text><rect fill="#F1F1F1" height="35.0938" rx="12.5" ry="12.5" style="stroke:#181818;stroke-width:0.5;" width="189.3945" x="620.4341" y="1795.7637"/><text fill="#000000" font-family="sans-serif" font-size="12" lengthAdjust="spacing" textLength="169.3945" x="630.4341" y="1818.2207">Kirim notifikasi (Belanja selesai)</text><rect fill="#F1F1F1" height="35.0938" rx="12.5" ry="12.5" style="stroke:#181818;stroke-width:0.5;" width="157.4141" x="1012.1436" y="985.2324"/><text fill="#000000" font-family="sans-serif" font-size="12" lengthAdjust="spacing" textLength="137.4141" x="1022.1436" y="1007.6895">Update status: Dibatalkan</text><rect fill="#F1F1F1" height="35.0938" rx="12.5" ry="12.5" style="stroke:#181818;stroke-width:0.5;" width="206.75" x="987.4756" y="1040.3262"/><text fill="#000000" font-family="sans-serif" font-size="12" lengthAdjust="spacing" textLength="186.75" x="997.4756" y="1062.7832">Kirim notifikasi (Belanja dibatalkan)</text><ellipse cx="902.991" cy="1895.8574" fill="none" rx="11" ry="11" style="stroke:#222222;stroke-width:1.0;"/><ellipse cx="902.991" cy="1895.8574" fill="#222222" rx="6" ry="6" style="stroke:#222222;stroke-width:1.0;"/><line style="stroke:#000000;stroke-width:1.5;" x1="591.7261" x2="591.7261" y1="12.4551" y2="1906.8574"/><line style="stroke:#000000;stroke-width:1.5;" x1="1198.2256" x2="1198.2256" y1="12.4551" y2="1906.8574"/><line style="stroke:#181818;stroke-width:1.0;" x1="332.8313" x2="332.8313" y1="60.0957" y2="80.0957"/><polygon fill="#181818" points="328.8313,70.0957,332.8313,80.0957,336.8313,70.0957,332.8313,74.0957" style="stroke:#181818;stroke-width:1.0;"/><line style="stroke:#181818;stroke-width:1.0;" x1="225.7776" x2="225.7776" y1="141.1895" y2="161.1895"/><polygon fill="#181818" points="221.7776,151.1895,225.7776,161.1895,229.7776,151.1895,225.7776,155.1895" style="stroke:#181818;stroke-width:1.0;"/><line style="stroke:#181818;stroke-width:1.0;" x1="414.2004" x2="414.2004" y1="141.1895" y2="161.1895"/><polygon fill="#181818" points="410.2004,151.1895,414.2004,161.1895,418.2004,151.1895,414.2004,155.1895" style="stroke:#181818;stroke-width:1.0;"/><line style="stroke:#181818;stroke-width:1.0;" x1="225.7776" x2="225.7776" y1="196.2832" y2="216.2832"/><polygon fill="#181818" points="221.7776,206.2832,225.7776,216.2832,229.7776,206.2832,225.7776,210.2832" style="stroke:#181818;stroke-width:1.0;"/><line style="stroke:#181818;stroke-width:1.0;" x1="414.2004" x2="414.2004" y1="196.2832" y2="216.2832"/><polygon fill="#181818" points="410.2004,206.2832,414.2004,216.2832,418.2004,206.2832,414.2004,210.2832" style="stroke:#181818;stroke-width:1.0;"/><line style="stroke:#181818;stroke-width:1.0;" x1="332.8313" x2="332.8313" y1="115.1895" y2="135.1895"/><polygon fill="#181818" points="328.8313,125.1895,332.8313,135.1895,336.8313,125.1895,332.8313,129.1895" style="stroke:#181818;stroke-width:1.0;"/><line style="stroke:#181818;stroke-width:1.0;" x1="332.8313" x2="332.8313" y1="326.2949" y2="346.2949"/><polygon fill="#181818" points="328.8313,336.2949,332.8313,346.2949,336.8313,336.2949,332.8313,340.2949" style="stroke:#181818;stroke-width:1.0;"/><line style="stroke:#181818;stroke-width:1.0;" x1="332.8313" x2="332.8313" y1="381.3887" y2="401.3887"/><polygon fill="#181818" points="328.8313,391.3887,332.8313,401.3887,336.8313,391.3887,332.8313,395.3887" style="stroke:#181818;stroke-width:1.0;"/><line style="stroke:#181818;stroke-width:1.0;" x1="332.8313" x2="332.8313" y1="436.4824" y2="456.4824"/><polygon fill="#181818" points="328.8313,446.4824,332.8313,456.4824,336.8313,446.4824,332.8313,450.4824" style="stroke:#181818;stroke-width:1.0;"/><line style="stroke:#181818;stroke-width:1.0;" x1="332.8313" x2="332.8313" y1="491.5762" y2="511.5762"/><polygon fill="#181818" points="328.8313,501.5762,332.8313,511.5762,336.8313,501.5762,332.8313,505.5762" style="stroke:#181818;stroke-width:1.0;"/><line style="stroke:#181818;stroke-width:1.0;" x1="332.8313" x2="332.8313" y1="266.2832" y2="291.2012"/><polygon fill="#181818" points="328.8313,281.2012,332.8313,291.2012,336.8313,281.2012,332.8313,285.2012" style="stroke:#181818;stroke-width:1.0;"/><line style="stroke:#181818;stroke-width:1.0;" x1="260.906" x2="187.7864" y1="254.2832" y2="254.2832"/><polygon fill="#181818" points="183.7864,519.123,187.7864,529.123,191.7864,519.123,187.7864,523.123" style="stroke:#181818;stroke-width:1.0;"/><line style="stroke:#181818;stroke-width:1.0;" x1="187.7864" x2="187.7864" y1="254.2832" y2="799.0449"/><line style="stroke:#181818;stroke-width:1.0;" x1="187.7864" x2="320.8313" y1="799.0449" y2="799.0449"/><polygon fill="#181818" points="310.8313,795.0449,320.8313,799.0449,310.8313,803.0449,314.8313,799.0449" style="stroke:#181818;stroke-width:1.0;"/><line style="stroke:#181818;stroke-width:1.0;" x1="332.8313" x2="332.8313" y1="222.2832" y2="242.2832"/><polygon fill="#181818" points="328.8313,232.2832,332.8313,242.2832,336.8313,232.2832,332.8313,236.2832" style="stroke:#181818;stroke-width:1.0;"/><line style="stroke:#181818;stroke-width:1.0;" x1="332.8313" x2="332.8313" y1="811.0449" y2="831.0449"/><polygon fill="#181818" points="328.8313,821.0449,332.8313,831.0449,336.8313,821.0449,332.8313,825.0449" style="stroke:#181818;stroke-width:1.0;"/><line style="stroke:#181818;stroke-width:1.0;" x1="144.9717" x2="144.9717" y1="1130.5137" y2="1150.5137"/><polygon fill="#181818" points="140.9717,1140.5137,144.9717,1150.5137,148.9717,1140.5137,144.9717,1144.5137" style="stroke:#181818;stroke-width:1.0;"/><line style="stroke:#181818;stroke-width:1.0;" x1="144.9717" x2="144.9717" y1="1185.6074" y2="1205.6074"/><polygon fill="#181818" points="140.9717,1195.6074,144.9717,1205.6074,148.9717,1195.6074,144.9717,1199.6074" style="stroke:#181818;stroke-width:1.0;"/><line style="stroke:#181818;stroke-width:1.0;" x1="144.9717" x2="144.9717" y1="1240.7012" y2="1260.7012"/><polygon fill="#181818" points="140.9717,1250.7012,144.9717,1260.7012,148.9717,1250.7012,144.9717,1254.7012" style="stroke:#181818;stroke-width:1.0;"/><line style="stroke:#181818;stroke-width:1.0;" x1="73.3525" x2="63.3525" y1="1327.7949" y2="1327.7949"/><line style="stroke:#181818;stroke-width:1.0;" x1="63.3525" x2="63.3525" y1="1327.7949" y2="1349.7949"/><polygon fill="#181818" points="59.3525,1339.7949,63.3525,1349.7949,67.3525,1339.7949,63.3525,1343.7949" style="stroke:#181818;stroke-width:1.0;"/><line style="stroke:#181818;stroke-width:1.0;" x1="216.5908" x2="226.5908" y1="1327.7949" y2="1327.7949"/><line style="stroke:#181818;stroke-width:1.0;" x1="226.5908" x2="226.5908" y1="1327.7949" y2="1349.7949"/><polygon fill="#181818" points="222.5908,1339.7949,226.5908,1349.7949,230.5908,1339.7949,226.5908,1343.7949" style="stroke:#181818;stroke-width:1.0;"/><line style="stroke:#181818;stroke-width:1.0;" x1="63.3525" x2="63.3525" y1="1384.8887" y2="1402.8887"/><line style="stroke:#181818;stroke-width:1.0;" x1="63.3525" x2="132.9717" y1="1402.8887" y2="1402.8887"/><polygon fill="#181818" points="122.9717,1398.8887,132.9717,1402.8887,122.9717,1406.8887,126.9717,1402.8887" style="stroke:#181818;stroke-width:1.0;"/><line style="stroke:#181818;stroke-width:1.0;" x1="226.5908" x2="226.5908" y1="1384.8887" y2="1402.8887"/><line style="stroke:#181818;stroke-width:1.0;" x1="226.5908" x2="156.9717" y1="1402.8887" y2="1402.8887"/><polygon fill="#181818" points="166.9717,1398.8887,156.9717,1402.8887,166.9717,1406.8887,162.9717,1402.8887" style="stroke:#181818;stroke-width:1.0;"/><line style="stroke:#181818;stroke-width:1.0;" x1="144.9717" x2="144.9717" y1="1295.7949" y2="1315.7949"/><polygon fill="#181818" points="140.9717,1305.7949,144.9717,1315.7949,148.9717,1305.7949,144.9717,1309.7949" style="stroke:#181818;stroke-width:1.0;"/><line style="stroke:#181818;stroke-width:1.0;" x1="144.9717" x2="144.9717" y1="1414.8887" y2="1434.8887"/><polygon fill="#181818" points="140.9717,1424.8887,144.9717,1434.8887,148.9717,1424.8887,144.9717,1428.8887" style="stroke:#181818;stroke-width:1.0;"/><line style="stroke:#181818;stroke-width:1.0;" x1="285.3633" x2="144.9717" y1="898.1387" y2="898.1387"/><line style="stroke:#181818;stroke-width:1.0;" x1="144.9717" x2="144.9717" y1="898.1387" y2="930.1387"/><polygon fill="#181818" points="140.9717,920.1387,144.9717,930.1387,148.9717,920.1387,144.9717,924.1387" style="stroke:#181818;stroke-width:1.0;"/><line style="stroke:#181818;stroke-width:1.0;" x1="380.2993" x2="520.6909" y1="898.1387" y2="898.1387"/><line style="stroke:#181818;stroke-width:1.0;" x1="520.6909" x2="520.6909" y1="898.1387" y2="930.1387"/><polygon fill="#181818" points="516.6909,920.1387,520.6909,930.1387,524.6909,920.1387,520.6909,924.1387" style="stroke:#181818;stroke-width:1.0;"/><line style="stroke:#181818;stroke-width:1.0;" x1="332.8313" x2="332.8313" y1="866.1387" y2="886.1387"/><polygon fill="#181818" points="328.8313,876.1387,332.8313,886.1387,336.8313,876.1387,332.8313,880.1387" style="stroke:#181818;stroke-width:1.0;"/><line style="stroke:#181818;stroke-width:1.0;" x1="902.991" x2="902.991" y1="601.7637" y2="621.7637"/><polygon fill="#181818" points="898.991,611.7637,902.991,621.7637,906.991,611.7637,902.991,615.7637" style="stroke:#181818;stroke-width:1.0;"/><line style="stroke:#181818;stroke-width:1.0;" x1="902.991" x2="902.991" y1="656.8574" y2="676.8574"/><polygon fill="#181818" points="898.991,666.8574,902.991,676.8574,906.991,666.8574,902.991,670.8574" style="stroke:#181818;stroke-width:1.0;"/><line style="stroke:#181818;stroke-width:1.0;" x1="902.991" x2="902.991" y1="711.9512" y2="731.9512"/><polygon fill="#181818" points="898.991,721.9512,902.991,731.9512,906.991,721.9512,902.991,725.9512" style="stroke:#181818;stroke-width:1.0;"/><line style="stroke:#181818;stroke-width:1.0;" x1="715.1313" x2="715.1313" y1="1020.3262" y2="1040.3262"/><polygon fill="#181818" points="711.1313,1030.3262,715.1313,1040.3262,719.1313,1030.3262,715.1313,1034.3262" style="stroke:#181818;stroke-width:1.0;"/><line style="stroke:#181818;stroke-width:1.0;" x1="715.1313" x2="715.1313" y1="1535.2324" y2="1575.3887"/><polygon fill="#181818" points="711.1313,1565.3887,715.1313,1575.3887,719.1313,1565.3887,715.1313,1569.3887" style="stroke:#181818;stroke-width:1.0;"/><line style="stroke:#181818;stroke-width:1.0;" x1="715.1313" x2="715.1313" y1="1610.4824" y2="1630.4824"/><polygon fill="#181818" points="711.1313,1620.4824,715.1313,1630.4824,719.1313,1620.4824,715.1313,1624.4824" style="stroke:#181818;stroke-width:1.0;"/><line style="stroke:#181818;stroke-width:1.0;" x1="715.1313" x2="715.1313" y1="1665.5762" y2="1685.5762"/><polygon fill="#181818" points="711.1313,1675.5762,715.1313,1685.5762,719.1313,1675.5762,715.1313,1679.5762" style="stroke:#181818;stroke-width:1.0;"/><line style="stroke:#181818;stroke-width:1.0;" x1="715.1313" x2="715.1313" y1="1720.6699" y2="1740.6699"/><polygon fill="#181818" points="711.1313,1730.6699,715.1313,1740.6699,719.1313,1730.6699,715.1313,1734.6699" style="stroke:#181818;stroke-width:1.0;"/><line style="stroke:#181818;stroke-width:1.0;" x1="715.1313" x2="715.1313" y1="1775.7637" y2="1795.7637"/><polygon fill="#181818" points="711.1313,1785.7637,715.1313,1795.7637,719.1313,1785.7637,715.1313,1789.7637" style="stroke:#181818;stroke-width:1.0;"/><line style="stroke:#181818;stroke-width:1.0;" x1="1090.8506" x2="1090.8506" y1="1020.3262" y2="1040.3262"/><polygon fill="#181818" points="1086.8506,1030.3262,1090.8506,1040.3262,1094.8506,1030.3262,1090.8506,1034.3262" style="stroke:#181818;stroke-width:1.0;"/><line style="stroke:#181818;stroke-width:1.0;" x1="332.8313" x2="332.8313" y1="546.6699" y2="551.6699"/><line style="stroke:#181818;stroke-width:1.0;" x1="332.8313" x2="902.991" y1="551.6699" y2="551.6699"/><line style="stroke:#181818;stroke-width:1.0;" x1="902.991" x2="902.991" y1="551.6699" y2="566.6699"/><polygon fill="#181818" points="898.991,556.6699,902.991,566.6699,906.991,556.6699,902.991,560.6699" style="stroke:#181818;stroke-width:1.0;"/><line style="stroke:#181818;stroke-width:1.0;" x1="902.991" x2="902.991" y1="767.0449" y2="774.5859"/><line style="stroke:#181818;stroke-width:1.0;" x1="902.991" x2="332.8313" y1="774.5859" y2="774.5859"/><line style="stroke:#181818;stroke-width:1.0;" x1="332.8313" x2="332.8313" y1="774.5859" y2="787.0449"/><polygon fill="#181818" points="328.8313,777.0449,332.8313,787.0449,336.8313,777.0449,332.8313,781.0449" style="stroke:#181818;stroke-width:1.0;"/><line style="stroke:#181818;stroke-width:1.0;" x1="144.9717" x2="144.9717" y1="965.2324" y2="970.2324"/><line style="stroke:#181818;stroke-width:1.0;" x1="144.9717" x2="715.1313" y1="970.2324" y2="970.2324"/><line style="stroke:#181818;stroke-width:1.0;" x1="715.1313" x2="715.1313" y1="970.2324" y2="985.2324"/><polygon fill="#181818" points="711.1313,975.2324,715.1313,985.2324,719.1313,975.2324,715.1313,979.2324" style="stroke:#181818;stroke-width:1.0;"/><line style="stroke:#181818;stroke-width:1.0;" x1="715.1313" x2="715.1313" y1="1075.4199" y2="1080.4199"/><line style="stroke:#181818;stroke-width:1.0;" x1="715.1313" x2="144.9717" y1="1080.4199" y2="1080.4199"/><line style="stroke:#181818;stroke-width:1.0;" x1="144.9717" x2="144.9717" y1="1080.4199" y2="1095.4199"/><polygon fill="#181818" points="140.9717,1085.4199,144.9717,1095.4199,148.9717,1085.4199,144.9717,1089.4199" style="stroke:#181818;stroke-width:1.0;"/><line style="stroke:#181818;stroke-width:1.0;" x1="144.9717" x2="144.9717" y1="1469.9824" y2="1474.9824"/><line style="stroke:#181818;stroke-width:1.0;" x1="144.9717" x2="715.1313" y1="1474.9824" y2="1474.9824"/><line style="stroke:#181818;stroke-width:1.0;" x1="715.1313" x2="715.1313" y1="1474.9824" y2="1500.1387"/><polygon fill="#181818" points="711.1313,1490.1387,715.1313,1500.1387,719.1313,1490.1387,715.1313,1494.1387" style="stroke:#181818;stroke-width:1.0;"/><line style="stroke:#181818;stroke-width:1.0;" x1="520.6909" x2="520.6909" y1="965.2324" y2="970.2324"/><line style="stroke:#181818;stroke-width:1.0;" x1="520.6909" x2="1090.8506" y1="970.2324" y2="970.2324"/><line style="stroke:#181818;stroke-width:1.0;" x1="1090.8506" x2="1090.8506" y1="970.2324" y2="985.2324"/><polygon fill="#181818" points="1086.8506,975.2324,1090.8506,985.2324,1094.8506,975.2324,1090.8506,979.2324" style="stroke:#181818;stroke-width:1.0;"/><line style="stroke:#181818;stroke-width:1.0;" x1="715.1313" x2="715.1313" y1="1830.8574" y2="1834.8574"/><line style="stroke:#181818;stroke-width:1.0;" x1="715.1313" x2="302.8313" y1="1834.8574" y2="1834.8574"/><line style="stroke:#181818;stroke-width:1.0;" x1="302.8313" x2="302.8313" y1="1834.8574" y2="1852.8574"/><line style="stroke:#181818;stroke-width:1.0;" x1="302.8313" x2="320.8313" y1="1852.8574" y2="1852.8574"/><polygon fill="#181818" points="310.8313,1848.8574,320.8313,1852.8574,310.8313,1856.8574,314.8313,1852.8574" style="stroke:#181818;stroke-width:1.0;"/><line style="stroke:#181818;stroke-width:1.0;" x1="1090.8506" x2="1090.8506" y1="1075.4199" y2="1852.8574"/><line style="stroke:#181818;stroke-width:1.0;" x1="1090.8506" x2="344.8313" y1="1852.8574" y2="1852.8574"/><polygon fill="#181818" points="354.8313,1848.8574,344.8313,1852.8574,354.8313,1856.8574,350.8313,1852.8574" style="stroke:#181818;stroke-width:1.0;"/><line style="stroke:#181818;stroke-width:1.0;" x1="332.8313" x2="332.8313" y1="1864.8574" y2="1869.8574"/><line style="stroke:#181818;stroke-width:1.0;" x1="332.8313" x2="902.991" y1="1869.8574" y2="1869.8574"/><line style="stroke:#181818;stroke-width:1.0;" x1="902.991" x2="902.991" y1="1869.8574" y2="1884.8574"/><polygon fill="#181818" points="898.991,1874.8574,902.991,1884.8574,906.991,1874.8574,902.991,1878.8574" style="stroke:#181818;stroke-width:1.0;"/><text fill="#000000" font-family="sans-serif" font-size="18" lengthAdjust="spacing" textLength="69.0381" x="268.844" y="31.1406">Inventori</text><text fill="#000000" font-family="sans-serif" font-size="18" lengthAdjust="spacing" textLength="55.0107" x="867.4705" y="31.1406">Sistem</text><!--SRC=[bLFBZjf04BpxA_fe7_W1E4H2H7a9QRERIE7OhCVZPXwsvX5b9Ju-xSSOOq2R-624kwQwfwhw_CN-5ZOqZiwP3-X2jjuBSumAeKQD1YriXKPxmasMLOrJ6V3364qr1YYnuaDmJ90E0IYHRC8n5-ESiAzeCG7XY2vkCc5Bw3apgY2_mJBcGm6X5XRo0nOJ8t5lyB5jDGctIPyjcYFMYWVcd_wjubGqwAFgQgTeDDQfnsszHYSHMk4KEKHxONyZqt9zSP6Xth_EB-I3CEVXn2TXXSCWm3QccGI2VFkqEXps-zrkzOkVuePV_6c5zG9AOIN_PKj2z6juNinx2mz8se_rR-J8SET05Idq1FdpGl-IEgd7zfdGJ97_e19LqPb2LPQTPy6OH4_7emrHCKdh6Y-uw-1Vr4W9SiyuArLZAtAc6ydCqGzb_DcMdOX9XgUntuDRRgVRzUp5d7PsdPHW3aXdUSkvupZFpPR4T6DKK8M8Ub4ROdAt5D1AYRgpXfme8J_nT80bpiVfzFewyFE58Yin1kj6jsbOUuf1fI6l79l1c8EbOaxDezGZjZTqQjsdHsZXaVfbUSU1j9L73AzrlvEZ-ru4mdPOjk4qMo70aQp3EDAsFsF6gTRZrnLyZsW3XRVfmyTHgyxiwUFdNkFEcdIDliFrldCq6dLluwsiAKGhGJhaaw49xCcLOOjilGoQN0W6ANKZWL9stasU7qYk5sj7B1vgLhjub4MJ4F-x4HVkVzYAQOnDsd9Mhyt-0W00]--></g></svg>