<svg xmlns="http://www.w3.org/2000/svg" xmlns:xlink="http://www.w3.org/1999/xlink" contentStyleType="text/css" height="1559px" preserveAspectRatio="none" style="width:2356px;height:1559px;background:#FFFFFF;" version="1.1" viewBox="0 0 2356 1559" width="2356px" zoomAndPan="magnify"><defs/><g><rect fill="none" height="22.6406" style="stroke:none;stroke-width:1.0;" width="2323.0767" x="15" y="12.4551"/><ellipse cx="656.697" cy="50.0957" fill="#222222" rx="10" ry="10" style="stroke:#222222;stroke-width:1.0;"/><rect fill="#F1F1F1" height="35.0938" rx="12.5" ry="12.5" style="stroke:#181818;stroke-width:0.5;" width="163.4082" x="574.9929" y="80.0957"/><text fill="#000000" font-family="sans-serif" font-size="12" lengthAdjust="spacing" textLength="143.4082" x="584.9929" y="102.5527">Membuka halaman Produk</text><polygon fill="#F1F1F1" points="317.0356,135.1895,343.9341,135.1895,355.9341,147.1895,343.9341,159.1895,317.0356,159.1895,305.0356,147.1895,317.0356,135.1895" style="stroke:#181818;stroke-width:0.5;"/><text fill="#000000" font-family="sans-serif" font-size="11" lengthAdjust="spacing" textLength="40.353" x="334.4849" y="170.6084">Tambah</text><text fill="#000000" font-family="sans-serif" font-size="11" lengthAdjust="spacing" textLength="26.8984" x="317.0356" y="151.6904">Aksi?</text><rect fill="#F1F1F1" height="35.0938" rx="12.5" ry="12.5" style="stroke:#181818;stroke-width:0.5;" width="167.3984" x="246.7856" y="192.1084"/><text fill="#000000" font-family="sans-serif" font-size="12" lengthAdjust="spacing" textLength="147.3984" x="256.7856" y="214.5654">Klik tombol Tambah Produk</text><path d="M414.8394,247.2021 L414.8394,305.4326 L394.8394,309.4326 L414.8394,313.4326 L414.8394,371.6631 A0,0 0 0 0 414.8394,371.6631 L561.5483,371.6631 A0,0 0 0 0 561.5483,371.6631 L561.5483,257.2021 L551.5483,247.2021 L414.8394,247.2021 A0,0 0 0 0 414.8394,247.2021 " fill="#FEFFDD" style="stroke:#181818;stroke-width:0.5;"/><path d="M551.5483,247.2021 L551.5483,257.2021 L561.5483,257.2021 L551.5483,247.2021 " fill="#FEFFDD" style="stroke:#181818;stroke-width:0.5;"/><text fill="#000000" font-family="sans-serif" font-size="13" lengthAdjust="spacing" textLength="74.4326" x="420.8394" y="265.6973">Data produk:</text><text fill="#000000" font-family="sans-serif" font-size="13" lengthAdjust="spacing" textLength="85.979" x="420.8394" y="282.0488">- Nama produk</text><text fill="#000000" font-family="sans-serif" font-size="13" lengthAdjust="spacing" textLength="56.3608" x="420.8394" y="298.4004">- Kategori</text><text fill="#000000" font-family="sans-serif" font-size="13" lengthAdjust="spacing" textLength="67.1963" x="420.8394" y="314.752">- Harga jual</text><text fill="#000000" font-family="sans-serif" font-size="13" lengthAdjust="spacing" textLength="61.3945" x="420.8394" y="331.1035">- Deskripsi</text><text fill="#000000" font-family="sans-serif" font-size="13" lengthAdjust="spacing" textLength="98.2617" x="420.8394" y="347.4551">- Gambar produk</text><text fill="#000000" font-family="sans-serif" font-size="13" lengthAdjust="spacing" textLength="125.709" x="420.8394" y="363.8066">- Masa simpan (suhu)</text><rect fill="#F1F1F1" height="35.0938" rx="12.5" ry="12.5" style="stroke:#181818;stroke-width:0.5;" width="128.709" x="266.1304" y="291.8857"/><text fill="#000000" font-family="sans-serif" font-size="12" lengthAdjust="spacing" textLength="108.709" x="276.1304" y="314.3428">Mengisi form produk</text><rect fill="#F1F1F1" height="35.0938" rx="12.5" ry="12.5" style="stroke:#181818;stroke-width:0.5;" width="154.0859" x="253.4419" y="406.6631"/><text fill="#000000" font-family="sans-serif" font-size="12" lengthAdjust="spacing" textLength="134.0859" x="263.4419" y="429.1201">Menentukan jenis produk</text><polygon fill="#F1F1F1" points="274.8323,476.7568,386.1375,476.7568,398.1375,488.7568,386.1375,500.7568,274.8323,500.7568,262.8323,488.7568,274.8323,476.7568" style="stroke:#181818;stroke-width:0.5;"/><text fill="#000000" font-family="sans-serif" font-size="11" lengthAdjust="spacing" textLength="111.3052" x="274.8323" y="493.2578">Produk dengan resep?</text><text fill="#000000" font-family="sans-serif" font-size="11" lengthAdjust="spacing" textLength="13.4546" x="249.3777" y="486.3398">Ya</text><text fill="#000000" font-family="sans-serif" font-size="11" lengthAdjust="spacing" textLength="26.8984" x="398.1375" y="486.3398">Tidak</text><rect fill="#F1F1F1" height="35.0938" rx="12.5" ry="12.5" style="stroke:#181818;stroke-width:0.5;" width="192.7695" x="46.6846" y="520.7568"/><text fill="#000000" font-family="sans-serif" font-size="12" lengthAdjust="spacing" textLength="172.7695" x="56.6846" y="543.2139">Menambahkan komposisi bahan</text><rect fill="#F1F1F1" height="35.0938" rx="12.5" ry="12.5" style="stroke:#181818;stroke-width:0.5;" width="108.7344" x="88.7021" y="639.5898"/><text fill="#000000" font-family="sans-serif" font-size="12" lengthAdjust="spacing" textLength="88.7344" x="98.7021" y="662.0469">Pilih bahan baku</text><rect fill="#F1F1F1" height="35.0938" rx="12.5" ry="12.5" style="stroke:#181818;stroke-width:0.5;" width="113.375" x="86.3818" y="694.6836"/><text fill="#000000" font-family="sans-serif" font-size="12" lengthAdjust="spacing" textLength="93.375" x="96.3818" y="717.1406">Masukkan jumlah</text><rect fill="#F1F1F1" height="35.0938" rx="12.5" ry="12.5" style="stroke:#181818;stroke-width:0.5;" width="82.0391" x="102.0498" y="755.9805"/><text fill="#000000" font-family="sans-serif" font-size="12" lengthAdjust="spacing" textLength="62.0391" x="112.0498" y="778.4375">Pilih satuan</text><polygon fill="#F1F1F1" points="92.9221,582.6709,193.2166,582.6709,205.2166,594.6709,193.2166,606.6709,92.9221,606.6709,80.9221,594.6709,92.9221,582.6709" style="stroke:#181818;stroke-width:0.5;"/><text fill="#000000" font-family="sans-serif" font-size="11" lengthAdjust="spacing" textLength="13.4546" x="147.0693" y="618.0898">Ya</text><text fill="#000000" font-family="sans-serif" font-size="11" lengthAdjust="spacing" textLength="100.2944" x="92.9221" y="599.1719">Tambah bahan lagi?</text><text fill="#000000" font-family="sans-serif" font-size="11" lengthAdjust="spacing" textLength="26.8984" x="54.0237" y="592.2539">Tidak</text><rect fill="#F1F1F1" height="35.0938" rx="12.5" ry="12.5" style="stroke:#181818;stroke-width:0.5;" width="244.1387" x="21" y="850.0742"/><text fill="#000000" font-family="sans-serif" font-size="12" lengthAdjust="spacing" textLength="224.1387" x="31" y="872.5313">Menambahkan biaya tambahan (opsional)</text><rect fill="#F1F1F1" height="35.0938" rx="12.5" ry="12.5" style="stroke:#181818;stroke-width:0.5;" width="102.7109" x="91.7139" y="982.0039"/><text fill="#000000" font-family="sans-serif" font-size="12" lengthAdjust="spacing" textLength="82.7109" x="101.7139" y="1004.4609">Pilih jenis biaya</text><rect fill="#F1F1F1" height="35.0938" rx="12.5" ry="12.5" style="stroke:#181818;stroke-width:0.5;" width="120.0488" x="83.0449" y="1051.3809"/><text fill="#000000" font-family="sans-serif" font-size="12" lengthAdjust="spacing" textLength="100.0488" x="93.0449" y="1073.8379">Masukkan nominal</text><polygon fill="#F1F1F1" points="95.0679,920.168,191.0708,920.168,203.0708,932.168,191.0708,944.168,95.0679,944.168,83.0679,932.168,95.0679,920.168" style="stroke:#181818;stroke-width:0.5;"/><text fill="#000000" font-family="sans-serif" font-size="11" lengthAdjust="spacing" textLength="13.4546" x="147.0693" y="955.5869">Ya</text><text fill="#000000" font-family="sans-serif" font-size="11" lengthAdjust="spacing" textLength="96.0029" x="95.0679" y="936.6689">Tambah biaya lagi?</text><text fill="#000000" font-family="sans-serif" font-size="11" lengthAdjust="spacing" textLength="26.8984" x="56.1694" y="929.751">Tidak</text><polygon fill="#F1F1F1" points="330.4849,1177.373,342.4849,1189.373,330.4849,1201.373,318.4849,1189.373,330.4849,1177.373" style="stroke:#181818;stroke-width:0.5;"/><rect fill="#F1F1F1" height="35.0938" rx="12.5" ry="12.5" style="stroke:#181818;stroke-width:0.5;" width="122.0527" x="269.4585" y="1221.373"/><text fill="#000000" font-family="sans-serif" font-size="12" lengthAdjust="spacing" textLength="102.0527" x="279.4585" y="1243.8301">Menyimpan produk</text><polygon fill="#F1F1F1" points="654.147,135.1895,681.0454,135.1895,693.0454,147.1895,681.0454,159.1895,654.147,159.1895,642.147,147.1895,654.147,135.1895" style="stroke:#181818;stroke-width:0.5;"/><text fill="#000000" font-family="sans-serif" font-size="11" lengthAdjust="spacing" textLength="18.9546" x="671.5962" y="170.6084">Edit</text><text fill="#000000" font-family="sans-serif" font-size="11" lengthAdjust="spacing" textLength="26.8984" x="654.147" y="151.6904">Aksi?</text><rect fill="#F1F1F1" height="35.0938" rx="12.5" ry="12.5" style="stroke:#181818;stroke-width:0.5;" width="192.0957" x="571.5483" y="192.1084"/><text fill="#000000" font-family="sans-serif" font-size="12" lengthAdjust="spacing" textLength="172.0957" x="581.5483" y="214.5654">Memilih produk yang akan diedit</text><rect fill="#F1F1F1" height="35.0938" rx="12.5" ry="12.5" style="stroke:#181818;stroke-width:0.5;" width="143.4277" x="595.8823" y="247.2021"/><text fill="#000000" font-family="sans-serif" font-size="12" lengthAdjust="spacing" textLength="123.4277" x="605.8823" y="269.6592">Mengubah data produk</text><rect fill="#F1F1F1" height="35.0938" rx="12.5" ry="12.5" style="stroke:#181818;stroke-width:0.5;" width="142.748" x="596.2222" y="317.2959"/><text fill="#000000" font-family="sans-serif" font-size="12" lengthAdjust="spacing" textLength="122.748" x="606.2222" y="339.7529">Menyimpan perubahan</text><polygon fill="#F1F1F1" points="862.9165,135.1895,889.8149,135.1895,901.8149,147.1895,889.8149,159.1895,862.9165,159.1895,850.9165,147.1895,862.9165,135.1895" style="stroke:#181818;stroke-width:0.5;"/><text fill="#000000" font-family="sans-serif" font-size="11" lengthAdjust="spacing" textLength="31.7969" x="880.3657" y="170.6084">Hapus</text><text fill="#000000" font-family="sans-serif" font-size="11" lengthAdjust="spacing" textLength="26.8984" x="862.9165" y="151.6904">Aksi?</text><text fill="#000000" font-family="sans-serif" font-size="11" lengthAdjust="spacing" textLength="55.0322" x="901.8149" y="144.7725">Lihat Detail</text><rect fill="#F1F1F1" height="35.0938" rx="12.5" ry="12.5" style="stroke:#181818;stroke-width:0.5;" width="205.4434" x="773.644" y="192.1084"/><text fill="#000000" font-family="sans-serif" font-size="12" lengthAdjust="spacing" textLength="185.4434" x="783.644" y="214.5654">Memilih produk yang akan dihapus</text><rect fill="#F1F1F1" height="35.0938" rx="12.5" ry="12.5" style="stroke:#181818;stroke-width:0.5;" width="152.7559" x="799.9878" y="247.2021"/><text fill="#000000" font-family="sans-serif" font-size="12" lengthAdjust="spacing" textLength="132.7559" x="809.9878" y="269.6592">Konfirmasi penghapusan</text><rect fill="#F1F1F1" height="35.0938" rx="12.5" ry="12.5" style="stroke:#181818;stroke-width:0.5;" width="101.3633" x="989.0874" y="700.8867"/><text fill="#000000" font-family="sans-serif" font-size="12" lengthAdjust="spacing" textLength="81.3633" x="999.0874" y="723.3438">Memilih produk</text><line style="stroke:#000000;stroke-width:1.5;" x1="15" x2="15" y1="12.4551" y2="1547.748"/><path d="M1279.2065,1124.6699 L1279.2065,1142.0215 L1259.2065,1146.0215 L1279.2065,1150.0215 L1279.2065,1167.373 A0,0 0 0 0 1279.2065,1167.373 L1472.2915,1167.373 A0,0 0 0 0 1472.2915,1167.373 L1472.2915,1134.6699 L1462.2915,1124.6699 L1279.2065,1124.6699 A0,0 0 0 0 1279.2065,1124.6699 " fill="#FEFFDD" style="stroke:#181818;stroke-width:0.5;"/><path d="M1462.2915,1124.6699 L1462.2915,1134.6699 L1472.2915,1134.6699 L1462.2915,1124.6699 " fill="#FEFFDD" style="stroke:#181818;stroke-width:0.5;"/><text fill="#000000" font-family="sans-serif" font-size="13" lengthAdjust="spacing" textLength="172.085" x="1285.2065" y="1143.165">Modal = &#931;(harga bahan &#215; qty)</text><text fill="#000000" font-family="sans-serif" font-size="13" lengthAdjust="spacing" textLength="120.4087" x="1306.8774" y="1159.5166">+ &#931;(biaya tambahan)</text><rect fill="#F1F1F1" height="35.0938" rx="12.5" ry="12.5" style="stroke:#181818;stroke-width:0.5;" width="158.7559" x="1100.4507" y="1128.4746"/><text fill="#000000" font-family="sans-serif" font-size="12" lengthAdjust="spacing" textLength="138.7559" x="1110.4507" y="1150.9316">Menghitung modal produk</text><rect fill="#F1F1F1" height="35.0938" rx="12.5" ry="12.5" style="stroke:#181818;stroke-width:0.5;" width="124.7363" x="1492.2915" y="520.7568"/><text fill="#000000" font-family="sans-serif" font-size="12" lengthAdjust="spacing" textLength="104.7363" x="1502.2915" y="543.2139">Produk tanpa resep</text><rect fill="#F1F1F1" height="35.0938" rx="12.5" ry="12.5" style="stroke:#181818;stroke-width:0.5;" width="128.7383" x="1302.875" y="1276.4668"/><text fill="#000000" font-family="sans-serif" font-size="12" lengthAdjust="spacing" textLength="108.7383" x="1312.875" y="1298.9238">Validasi data produk</text><polygon fill="#F1F1F1" points="1339.728,1331.5605,1394.7603,1331.5605,1406.7603,1343.5605,1394.7603,1355.5605,1339.728,1355.5605,1327.728,1343.5605,1339.728,1331.5605" style="stroke:#181818;stroke-width:0.5;"/><text fill="#000000" font-family="sans-serif" font-size="11" lengthAdjust="spacing" textLength="55.0322" x="1339.728" y="1348.0615">Data valid?</text><text fill="#000000" font-family="sans-serif" font-size="11" lengthAdjust="spacing" textLength="13.4546" x="1314.2734" y="1341.1436">Ya</text><text fill="#000000" font-family="sans-serif" font-size="11" lengthAdjust="spacing" textLength="26.8984" x="1406.7603" y="1341.1436">Tidak</text><rect fill="#F1F1F1" height="35.0938" rx="12.5" ry="12.5" style="stroke:#181818;stroke-width:0.5;" width="150.7461" x="1200.835" y="1365.5605"/><text fill="#000000" font-family="sans-serif" font-size="12" lengthAdjust="spacing" textLength="130.7461" x="1210.835" y="1388.0176">Menyimpan ke database</text><rect fill="#F1F1F1" height="35.0938" rx="12.5" ry="12.5" style="stroke:#181818;stroke-width:0.5;" width="168.0781" x="1192.1689" y="1420.6543"/><text fill="#000000" font-family="sans-serif" font-size="12" lengthAdjust="spacing" textLength="148.0781" x="1202.1689" y="1443.1113">Menampilkan pesan sukses</text><rect fill="#F1F1F1" height="35.0938" rx="12.5" ry="12.5" style="stroke:#181818;stroke-width:0.5;" width="156.0664" x="1380.2471" y="1365.5605"/><text fill="#000000" font-family="sans-serif" font-size="12" lengthAdjust="spacing" textLength="136.0664" x="1390.2471" y="1388.0176">Menampilkan pesan error</text><polygon fill="#F1F1F1" points="1367.2441,1461.748,1379.2441,1473.748,1367.2441,1485.748,1355.2441,1473.748,1367.2441,1461.748" style="stroke:#181818;stroke-width:0.5;"/><rect fill="#F1F1F1" height="35.0938" rx="12.5" ry="12.5" style="stroke:#181818;stroke-width:0.5;" width="88.7129" x="1666.7104" y="387.3896"/><text fill="#000000" font-family="sans-serif" font-size="12" lengthAdjust="spacing" textLength="68.7129" x="1676.7104" y="409.8467">Validasi data</text><rect fill="#F1F1F1" height="35.0938" rx="12.5" ry="12.5" style="stroke:#181818;stroke-width:0.5;" width="125.4102" x="1648.3618" y="457.4834"/><text fill="#000000" font-family="sans-serif" font-size="12" lengthAdjust="spacing" textLength="105.4102" x="1658.3618" y="479.9404">Update data produk</text><rect fill="#F1F1F1" height="35.0938" rx="12.5" ry="12.5" style="stroke:#181818;stroke-width:0.5;" width="168.0781" x="1627.0278" y="527.5771"/><text fill="#000000" font-family="sans-serif" font-size="12" lengthAdjust="spacing" textLength="148.0781" x="1637.0278" y="550.0342">Menampilkan pesan sukses</text><polygon fill="#F1F1F1" points="1902.813,317.2959,2039.7813,317.2959,2051.7813,329.2959,2039.7813,341.2959,1902.813,341.2959,1890.813,329.2959,1902.813,317.2959" style="stroke:#181818;stroke-width:0.5;"/><text fill="#000000" font-family="sans-serif" font-size="11" lengthAdjust="spacing" textLength="136.9683" x="1902.813" y="333.7969">Produk pernah di transaksi?</text><text fill="#000000" font-family="sans-serif" font-size="11" lengthAdjust="spacing" textLength="13.4546" x="1877.3584" y="326.8789">Ya</text><text fill="#000000" font-family="sans-serif" font-size="11" lengthAdjust="spacing" textLength="26.8984" x="2051.7813" y="326.8789">Tidak</text><rect fill="#F1F1F1" height="35.0938" rx="12.5" ry="12.5" style="stroke:#181818;stroke-width:0.5;" width="151.4141" x="1805.106" y="351.2959"/><text fill="#000000" font-family="sans-serif" font-size="12" lengthAdjust="spacing" textLength="131.4141" x="1815.106" y="373.7529">Menampilkan peringatan</text><rect fill="#F1F1F1" height="35.0938" rx="12.5" ry="12.5" style="stroke:#181818;stroke-width:0.5;" width="117.4004" x="1822.1128" y="421.3896"/><text fill="#000000" font-family="sans-serif" font-size="12" lengthAdjust="spacing" textLength="97.4004" x="1832.1128" y="443.8467">Soft delete produk</text><rect fill="#F1F1F1" height="35.0938" rx="12.5" ry="12.5" style="stroke:#181818;stroke-width:0.5;" width="152.082" x="1985.7402" y="351.2959"/><text fill="#000000" font-family="sans-serif" font-size="12" lengthAdjust="spacing" textLength="132.082" x="1995.7402" y="373.7529">Hapus produk permanen</text><polygon fill="#F1F1F1" points="1971.2971,462.4834,1983.2971,474.4834,1971.2971,486.4834,1959.2971,474.4834,1971.2971,462.4834" style="stroke:#181818;stroke-width:0.5;"/><rect fill="#F1F1F1" height="35.0938" rx="12.5" ry="12.5" style="stroke:#181818;stroke-width:0.5;" width="168.0781" x="1887.2581" y="521.4834"/><text fill="#000000" font-family="sans-serif" font-size="12" lengthAdjust="spacing" textLength="148.0781" x="1897.2581" y="543.9404">Menampilkan pesan sukses</text><rect fill="#F1F1F1" height="35.0938" rx="12.5" ry="12.5" style="stroke:#181818;stroke-width:0.5;" width="163.4141" x="2158.4922" y="762.1836"/><text fill="#000000" font-family="sans-serif" font-size="12" lengthAdjust="spacing" textLength="143.4141" x="2168.4922" y="784.6406">Menampilkan detail produk</text><rect fill="#F1F1F1" height="35.0938" rx="12.5" ry="12.5" style="stroke:#181818;stroke-width:0.5;" width="184.7539" x="2147.8223" y="832.2773"/><text fill="#000000" font-family="sans-serif" font-size="12" lengthAdjust="spacing" textLength="164.7539" x="2157.8223" y="854.7344">Menampilkan komposisi bahan</text><rect fill="#F1F1F1" height="35.0938" rx="12.5" ry="12.5" style="stroke:#181818;stroke-width:0.5;" width="180.0957" x="2150.1514" y="902.3711"/><text fill="#000000" font-family="sans-serif" font-size="12" lengthAdjust="spacing" textLength="160.0957" x="2160.1514" y="924.8281">Menampilkan biaya tambahan</text><rect fill="#F1F1F1" height="35.0938" rx="12.5" ry="12.5" style="stroke:#181818;stroke-width:0.5;" width="181.4023" x="2149.498" y="972.4648"/><text fill="#000000" font-family="sans-serif" font-size="12" lengthAdjust="spacing" textLength="161.4023" x="2159.498" y="994.9219">Menampilkan riwayat produksi</text><ellipse cx="1700.1677" cy="1536.748" fill="none" rx="11" ry="11" style="stroke:#222222;stroke-width:1.0;"/><ellipse cx="1700.1677" cy="1536.748" fill="#222222" rx="6" ry="6" style="stroke:#222222;stroke-width:1.0;"/><line style="stroke:#000000;stroke-width:1.5;" x1="1094.4507" x2="1094.4507" y1="12.4551" y2="1547.748"/><line style="stroke:#000000;stroke-width:1.5;" x1="2336.5762" x2="2336.5762" y1="12.4551" y2="1547.748"/><line style="stroke:#181818;stroke-width:1.0;" x1="656.697" x2="656.697" y1="60.0957" y2="80.0957"/><polygon fill="#181818" points="652.697,70.0957,656.697,80.0957,660.697,70.0957,656.697,74.0957" style="stroke:#181818;stroke-width:1.0;"/><line style="stroke:#181818;stroke-width:1.0;" x1="330.4849" x2="330.4849" y1="227.2021" y2="291.8857"/><polygon fill="#181818" points="326.4849,281.8857,330.4849,291.8857,334.4849,281.8857,330.4849,285.8857" style="stroke:#181818;stroke-width:1.0;"/><line style="stroke:#181818;stroke-width:1.0;" x1="330.4849" x2="330.4849" y1="326.9795" y2="406.6631"/><polygon fill="#181818" points="326.4849,396.6631,330.4849,406.6631,334.4849,396.6631,330.4849,400.6631" style="stroke:#181818;stroke-width:1.0;"/><line style="stroke:#181818;stroke-width:1.0;" x1="143.0693" x2="143.0693" y1="674.6836" y2="694.6836"/><polygon fill="#181818" points="139.0693,684.6836,143.0693,694.6836,147.0693,684.6836,143.0693,688.6836" style="stroke:#181818;stroke-width:1.0;"/><line style="stroke:#181818;stroke-width:1.0;" x1="143.0693" x2="143.0693" y1="729.7773" y2="755.9805"/><polygon fill="#181818" points="139.0693,745.9805,143.0693,755.9805,147.0693,745.9805,143.0693,749.9805" style="stroke:#181818;stroke-width:1.0;"/><line style="stroke:#181818;stroke-width:1.0;" x1="143.0693" x2="143.0693" y1="606.6709" y2="639.5898"/><polygon fill="#181818" points="139.0693,629.5898,143.0693,639.5898,147.0693,629.5898,143.0693,633.5898" style="stroke:#181818;stroke-width:1.0;"/><line style="stroke:#181818;stroke-width:1.0;" x1="143.0693" x2="143.0693" y1="791.0742" y2="803.0742"/><line style="stroke:#181818;stroke-width:1.0;" x1="143.0693" x2="217.2166" y1="803.0742" y2="803.0742"/><polygon fill="#181818" points="213.2166,703.3125,217.2166,693.3125,221.2166,703.3125,217.2166,699.3125" style="stroke:#181818;stroke-width:1.0;"/><line style="stroke:#181818;stroke-width:1.0;" x1="217.2166" x2="217.2166" y1="594.6709" y2="803.0742"/><line style="stroke:#181818;stroke-width:1.0;" x1="217.2166" x2="205.2166" y1="594.6709" y2="594.6709"/><polygon fill="#181818" points="215.2166,590.6709,205.2166,594.6709,215.2166,598.6709,211.2166,594.6709" style="stroke:#181818;stroke-width:1.0;"/><line style="stroke:#181818;stroke-width:1.0;" x1="80.9221" x2="68.9221" y1="594.6709" y2="594.6709"/><polygon fill="#181818" points="64.9221,689.3125,68.9221,699.3125,72.9221,689.3125,68.9221,693.3125" style="stroke:#181818;stroke-width:1.0;"/><line style="stroke:#181818;stroke-width:1.0;" x1="68.9221" x2="68.9221" y1="594.6709" y2="815.0742"/><line style="stroke:#181818;stroke-width:1.0;" x1="68.9221" x2="143.0693" y1="815.0742" y2="815.0742"/><line style="stroke:#181818;stroke-width:1.0;" x1="143.0693" x2="143.0693" y1="815.0742" y2="850.0742"/><polygon fill="#181818" points="139.0693,840.0742,143.0693,850.0742,147.0693,840.0742,143.0693,844.0742" style="stroke:#181818;stroke-width:1.0;"/><line style="stroke:#181818;stroke-width:1.0;" x1="143.0693" x2="143.0693" y1="555.8506" y2="582.6709"/><polygon fill="#181818" points="139.0693,572.6709,143.0693,582.6709,147.0693,572.6709,143.0693,576.6709" style="stroke:#181818;stroke-width:1.0;"/><line style="stroke:#181818;stroke-width:1.0;" x1="143.0693" x2="143.0693" y1="1017.0977" y2="1051.3809"/><polygon fill="#181818" points="139.0693,1041.3809,143.0693,1051.3809,147.0693,1041.3809,143.0693,1045.3809" style="stroke:#181818;stroke-width:1.0;"/><line style="stroke:#181818;stroke-width:1.0;" x1="143.0693" x2="143.0693" y1="944.168" y2="982.0039"/><polygon fill="#181818" points="139.0693,972.0039,143.0693,982.0039,147.0693,972.0039,143.0693,976.0039" style="stroke:#181818;stroke-width:1.0;"/><line style="stroke:#181818;stroke-width:1.0;" x1="143.0693" x2="143.0693" y1="1086.4746" y2="1096.4746"/><line style="stroke:#181818;stroke-width:1.0;" x1="143.0693" x2="215.0938" y1="1096.4746" y2="1096.4746"/><polygon fill="#181818" points="211.0938,1025.6797,215.0938,1015.6797,219.0938,1025.6797,215.0938,1021.6797" style="stroke:#181818;stroke-width:1.0;"/><line style="stroke:#181818;stroke-width:1.0;" x1="215.0938" x2="215.0938" y1="932.168" y2="1096.4746"/><line style="stroke:#181818;stroke-width:1.0;" x1="215.0938" x2="203.0708" y1="932.168" y2="932.168"/><polygon fill="#181818" points="213.0708,928.168,203.0708,932.168,213.0708,936.168,209.0708,932.168" style="stroke:#181818;stroke-width:1.0;"/><line style="stroke:#181818;stroke-width:1.0;" x1="83.0679" x2="71.0449" y1="932.168" y2="932.168"/><polygon fill="#181818" points="67.0449,1021.3809,71.0449,1031.3809,75.0449,1021.3809,71.0449,1025.3809" style="stroke:#181818;stroke-width:1.0;"/><line style="stroke:#181818;stroke-width:1.0;" x1="71.0449" x2="71.0449" y1="932.168" y2="1113.4746"/><line style="stroke:#181818;stroke-width:1.0;" x1="71.0449" x2="1179.8286" y1="1113.4746" y2="1113.4746"/><line style="stroke:#181818;stroke-width:1.0;" x1="1179.8286" x2="1179.8286" y1="1113.4746" y2="1128.4746"/><polygon fill="#181818" points="1175.8286,1118.4746,1179.8286,1128.4746,1183.8286,1118.4746,1179.8286,1122.4746" style="stroke:#181818;stroke-width:1.0;"/><line style="stroke:#181818;stroke-width:1.0;" x1="143.0693" x2="143.0693" y1="885.168" y2="920.168"/><polygon fill="#181818" points="139.0693,910.168,143.0693,920.168,147.0693,910.168,143.0693,914.168" style="stroke:#181818;stroke-width:1.0;"/><line style="stroke:#181818;stroke-width:1.0;" x1="262.8323" x2="143.0693" y1="488.7568" y2="488.7568"/><line style="stroke:#181818;stroke-width:1.0;" x1="143.0693" x2="143.0693" y1="488.7568" y2="520.7568"/><polygon fill="#181818" points="139.0693,510.7568,143.0693,520.7568,147.0693,510.7568,143.0693,514.7568" style="stroke:#181818;stroke-width:1.0;"/><line style="stroke:#181818;stroke-width:1.0;" x1="330.4849" x2="330.4849" y1="441.7568" y2="476.7568"/><polygon fill="#181818" points="326.4849,466.7568,330.4849,476.7568,334.4849,466.7568,330.4849,470.7568" style="stroke:#181818;stroke-width:1.0;"/><line style="stroke:#181818;stroke-width:1.0;" x1="330.4849" x2="330.4849" y1="1201.373" y2="1221.373"/><polygon fill="#181818" points="326.4849,1211.373,330.4849,1221.373,334.4849,1211.373,330.4849,1215.373" style="stroke:#181818;stroke-width:1.0;"/><line style="stroke:#181818;stroke-width:1.0;" x1="667.5962" x2="667.5962" y1="227.2021" y2="247.2021"/><polygon fill="#181818" points="663.5962,237.2021,667.5962,247.2021,671.5962,237.2021,667.5962,241.2021" style="stroke:#181818;stroke-width:1.0;"/><line style="stroke:#181818;stroke-width:1.0;" x1="667.5962" x2="667.5962" y1="282.2959" y2="317.2959"/><polygon fill="#181818" points="663.5962,307.2959,667.5962,317.2959,671.5962,307.2959,667.5962,311.2959" style="stroke:#181818;stroke-width:1.0;"/><line style="stroke:#181818;stroke-width:1.0;" x1="876.3657" x2="876.3657" y1="227.2021" y2="247.2021"/><polygon fill="#181818" points="872.3657,237.2021,876.3657,247.2021,880.3657,237.2021,876.3657,241.2021" style="stroke:#181818;stroke-width:1.0;"/><line style="stroke:#181818;stroke-width:1.0;" x1="330.4849" x2="330.4849" y1="159.1895" y2="192.1084"/><polygon fill="#181818" points="326.4849,182.1084,330.4849,192.1084,334.4849,182.1084,330.4849,186.1084" style="stroke:#181818;stroke-width:1.0;"/><line style="stroke:#181818;stroke-width:1.0;" x1="667.5962" x2="667.5962" y1="159.1895" y2="192.1084"/><polygon fill="#181818" points="663.5962,182.1084,667.5962,192.1084,671.5962,182.1084,667.5962,186.1084" style="stroke:#181818;stroke-width:1.0;"/><line style="stroke:#181818;stroke-width:1.0;" x1="876.3657" x2="876.3657" y1="159.1895" y2="192.1084"/><polygon fill="#181818" points="872.3657,182.1084,876.3657,192.1084,880.3657,182.1084,876.3657,186.1084" style="stroke:#181818;stroke-width:1.0;"/><line style="stroke:#181818;stroke-width:1.0;" x1="355.9341" x2="642.147" y1="147.1895" y2="147.1895"/><polygon fill="#181818" points="632.147,143.1895,642.147,147.1895,632.147,151.1895,636.147,147.1895" style="stroke:#181818;stroke-width:1.0;"/><line style="stroke:#181818;stroke-width:1.0;" x1="693.0454" x2="850.9165" y1="147.1895" y2="147.1895"/><polygon fill="#181818" points="840.9165,143.1895,850.9165,147.1895,840.9165,151.1895,844.9165,147.1895" style="stroke:#181818;stroke-width:1.0;"/><line style="stroke:#181818;stroke-width:1.0;" x1="656.697" x2="656.697" y1="115.1895" y2="120.1895"/><line style="stroke:#181818;stroke-width:1.0;" x1="656.697" x2="330.4849" y1="120.1895" y2="120.1895"/><line style="stroke:#181818;stroke-width:1.0;" x1="330.4849" x2="330.4849" y1="120.1895" y2="135.1895"/><polygon fill="#181818" points="326.4849,125.1895,330.4849,135.1895,334.4849,125.1895,330.4849,129.1895" style="stroke:#181818;stroke-width:1.0;"/><line style="stroke:#181818;stroke-width:1.0;" x1="901.8149" x2="1039.769" y1="147.1895" y2="147.1895"/><line style="stroke:#181818;stroke-width:1.0;" x1="1039.769" x2="1039.769" y1="147.1895" y2="700.8867"/><polygon fill="#181818" points="1035.769,690.8867,1039.769,700.8867,1043.769,690.8867,1039.769,694.8867" style="stroke:#181818;stroke-width:1.0;"/><line style="stroke:#181818;stroke-width:1.0;" x1="1276.208" x2="1276.208" y1="1400.6543" y2="1420.6543"/><polygon fill="#181818" points="1272.208,1410.6543,1276.208,1420.6543,1280.208,1410.6543,1276.208,1414.6543" style="stroke:#181818;stroke-width:1.0;"/><line style="stroke:#181818;stroke-width:1.0;" x1="1327.728" x2="1276.208" y1="1343.5605" y2="1343.5605"/><line style="stroke:#181818;stroke-width:1.0;" x1="1276.208" x2="1276.208" y1="1343.5605" y2="1365.5605"/><polygon fill="#181818" points="1272.208,1355.5605,1276.208,1365.5605,1280.208,1355.5605,1276.208,1359.5605" style="stroke:#181818;stroke-width:1.0;"/><line style="stroke:#181818;stroke-width:1.0;" x1="1406.7603" x2="1458.2803" y1="1343.5605" y2="1343.5605"/><line style="stroke:#181818;stroke-width:1.0;" x1="1458.2803" x2="1458.2803" y1="1343.5605" y2="1365.5605"/><polygon fill="#181818" points="1454.2803,1355.5605,1458.2803,1365.5605,1462.2803,1355.5605,1458.2803,1359.5605" style="stroke:#181818;stroke-width:1.0;"/><line style="stroke:#181818;stroke-width:1.0;" x1="1276.208" x2="1276.208" y1="1455.748" y2="1473.748"/><line style="stroke:#181818;stroke-width:1.0;" x1="1276.208" x2="1355.2441" y1="1473.748" y2="1473.748"/><polygon fill="#181818" points="1345.2441,1469.748,1355.2441,1473.748,1345.2441,1477.748,1349.2441,1473.748" style="stroke:#181818;stroke-width:1.0;"/><line style="stroke:#181818;stroke-width:1.0;" x1="1458.2803" x2="1458.2803" y1="1400.6543" y2="1473.748"/><line style="stroke:#181818;stroke-width:1.0;" x1="1458.2803" x2="1379.2441" y1="1473.748" y2="1473.748"/><polygon fill="#181818" points="1389.2441,1469.748,1379.2441,1473.748,1389.2441,1477.748,1385.2441,1473.748" style="stroke:#181818;stroke-width:1.0;"/><line style="stroke:#181818;stroke-width:1.0;" x1="1367.2441" x2="1367.2441" y1="1311.5605" y2="1331.5605"/><polygon fill="#181818" points="1363.2441,1321.5605,1367.2441,1331.5605,1371.2441,1321.5605,1367.2441,1325.5605" style="stroke:#181818;stroke-width:1.0;"/><line style="stroke:#181818;stroke-width:1.0;" x1="1711.0669" x2="1711.0669" y1="422.4834" y2="457.4834"/><polygon fill="#181818" points="1707.0669,447.4834,1711.0669,457.4834,1715.0669,447.4834,1711.0669,451.4834" style="stroke:#181818;stroke-width:1.0;"/><line style="stroke:#181818;stroke-width:1.0;" x1="1711.0669" x2="1711.0669" y1="492.5771" y2="527.5771"/><polygon fill="#181818" points="1707.0669,517.5771,1711.0669,527.5771,1715.0669,517.5771,1711.0669,521.5771" style="stroke:#181818;stroke-width:1.0;"/><line style="stroke:#181818;stroke-width:1.0;" x1="1880.813" x2="1880.813" y1="386.3896" y2="421.3896"/><polygon fill="#181818" points="1876.813,411.3896,1880.813,421.3896,1884.813,411.3896,1880.813,415.3896" style="stroke:#181818;stroke-width:1.0;"/><line style="stroke:#181818;stroke-width:1.0;" x1="1890.813" x2="1880.813" y1="329.2959" y2="329.2959"/><line style="stroke:#181818;stroke-width:1.0;" x1="1880.813" x2="1880.813" y1="329.2959" y2="351.2959"/><polygon fill="#181818" points="1876.813,341.2959,1880.813,351.2959,1884.813,341.2959,1880.813,345.2959" style="stroke:#181818;stroke-width:1.0;"/><line style="stroke:#181818;stroke-width:1.0;" x1="2051.7813" x2="2061.7813" y1="329.2959" y2="329.2959"/><line style="stroke:#181818;stroke-width:1.0;" x1="2061.7813" x2="2061.7813" y1="329.2959" y2="351.2959"/><polygon fill="#181818" points="2057.7813,341.2959,2061.7813,351.2959,2065.7813,341.2959,2061.7813,345.2959" style="stroke:#181818;stroke-width:1.0;"/><line style="stroke:#181818;stroke-width:1.0;" x1="1880.813" x2="1880.813" y1="456.4834" y2="474.4834"/><line style="stroke:#181818;stroke-width:1.0;" x1="1880.813" x2="1959.2971" y1="474.4834" y2="474.4834"/><polygon fill="#181818" points="1949.2971,470.4834,1959.2971,474.4834,1949.2971,478.4834,1953.2971,474.4834" style="stroke:#181818;stroke-width:1.0;"/><line style="stroke:#181818;stroke-width:1.0;" x1="2061.7813" x2="2061.7813" y1="386.3896" y2="474.4834"/><line style="stroke:#181818;stroke-width:1.0;" x1="2061.7813" x2="1983.2971" y1="474.4834" y2="474.4834"/><polygon fill="#181818" points="1993.2971,470.4834,1983.2971,474.4834,1993.2971,478.4834,1989.2971,474.4834" style="stroke:#181818;stroke-width:1.0;"/><line style="stroke:#181818;stroke-width:1.0;" x1="1971.2971" x2="1971.2971" y1="486.4834" y2="521.4834"/><polygon fill="#181818" points="1967.2971,511.4834,1971.2971,521.4834,1975.2971,511.4834,1971.2971,515.4834" style="stroke:#181818;stroke-width:1.0;"/><line style="stroke:#181818;stroke-width:1.0;" x1="2240.1992" x2="2240.1992" y1="797.2773" y2="832.2773"/><polygon fill="#181818" points="2236.1992,822.2773,2240.1992,832.2773,2244.1992,822.2773,2240.1992,826.2773" style="stroke:#181818;stroke-width:1.0;"/><line style="stroke:#181818;stroke-width:1.0;" x1="2240.1992" x2="2240.1992" y1="867.3711" y2="902.3711"/><polygon fill="#181818" points="2236.1992,892.3711,2240.1992,902.3711,2244.1992,892.3711,2240.1992,896.3711" style="stroke:#181818;stroke-width:1.0;"/><line style="stroke:#181818;stroke-width:1.0;" x1="2240.1992" x2="2240.1992" y1="937.4648" y2="972.4648"/><polygon fill="#181818" points="2236.1992,962.4648,2240.1992,972.4648,2244.1992,962.4648,2240.1992,966.4648" style="stroke:#181818;stroke-width:1.0;"/><line style="stroke:#181818;stroke-width:1.0;" x1="1367.2441" x2="1367.2441" y1="1485.748" y2="1505.748"/><polygon fill="#181818" points="1363.2441,1495.748,1367.2441,1505.748,1371.2441,1495.748,1367.2441,1499.748" style="stroke:#181818;stroke-width:1.0;"/><line style="stroke:#181818;stroke-width:1.0;" x1="1711.0669" x2="1711.0669" y1="562.6709" y2="1505.748"/><polygon fill="#181818" points="1707.0669,1495.748,1711.0669,1505.748,1715.0669,1495.748,1711.0669,1499.748" style="stroke:#181818;stroke-width:1.0;"/><line style="stroke:#181818;stroke-width:1.0;" x1="1971.2971" x2="1971.2971" y1="556.5771" y2="1505.748"/><polygon fill="#181818" points="1967.2971,1495.748,1971.2971,1505.748,1975.2971,1495.748,1971.2971,1499.748" style="stroke:#181818;stroke-width:1.0;"/><line style="stroke:#181818;stroke-width:1.0;" x1="2240.1992" x2="2240.1992" y1="1007.5586" y2="1505.748"/><polygon fill="#181818" points="2236.1992,1495.748,2240.1992,1505.748,2244.1992,1495.748,2240.1992,1499.748" style="stroke:#181818;stroke-width:1.0;"/><line style="stroke:#181818;stroke-width:1.0;" x1="1367.2441" x2="2240.1992" y1="1505.748" y2="1505.748"/><line style="stroke:#181818;stroke-width:1.0;" x1="398.1375" x2="1554.6597" y1="488.7568" y2="488.7568"/><line style="stroke:#181818;stroke-width:1.0;" x1="1554.6597" x2="1554.6597" y1="488.7568" y2="520.7568"/><polygon fill="#181818" points="1550.6597,510.7568,1554.6597,520.7568,1558.6597,510.7568,1554.6597,514.7568" style="stroke:#181818;stroke-width:1.0;"/><line style="stroke:#181818;stroke-width:1.0;" x1="1179.8286" x2="1179.8286" y1="1163.5684" y2="1171.373"/><line style="stroke:#181818;stroke-width:1.0;" x1="1179.8286" x2="300.4849" y1="1171.373" y2="1171.373"/><line style="stroke:#181818;stroke-width:1.0;" x1="300.4849" x2="300.4849" y1="1171.373" y2="1189.373"/><line style="stroke:#181818;stroke-width:1.0;" x1="300.4849" x2="318.4849" y1="1189.373" y2="1189.373"/><polygon fill="#181818" points="308.4849,1185.373,318.4849,1189.373,308.4849,1193.373,312.4849,1189.373" style="stroke:#181818;stroke-width:1.0;"/><line style="stroke:#181818;stroke-width:1.0;" x1="1554.6597" x2="1554.6597" y1="555.8506" y2="1189.373"/><line style="stroke:#181818;stroke-width:1.0;" x1="1554.6597" x2="342.4849" y1="1189.373" y2="1189.373"/><polygon fill="#181818" points="352.4849,1185.373,342.4849,1189.373,352.4849,1193.373,348.4849,1189.373" style="stroke:#181818;stroke-width:1.0;"/><line style="stroke:#181818;stroke-width:1.0;" x1="330.4849" x2="330.4849" y1="1256.4668" y2="1261.4668"/><line style="stroke:#181818;stroke-width:1.0;" x1="330.4849" x2="1367.2441" y1="1261.4668" y2="1261.4668"/><line style="stroke:#181818;stroke-width:1.0;" x1="1367.2441" x2="1367.2441" y1="1261.4668" y2="1276.4668"/><polygon fill="#181818" points="1363.2441,1266.4668,1367.2441,1276.4668,1371.2441,1266.4668,1367.2441,1270.4668" style="stroke:#181818;stroke-width:1.0;"/><line style="stroke:#181818;stroke-width:1.0;" x1="667.5962" x2="667.5962" y1="352.3896" y2="369.8896"/><line style="stroke:#181818;stroke-width:1.0;" x1="667.5962" x2="1711.0669" y1="369.8896" y2="369.8896"/><line style="stroke:#181818;stroke-width:1.0;" x1="1711.0669" x2="1711.0669" y1="369.8896" y2="387.3896"/><polygon fill="#181818" points="1707.0669,377.3896,1711.0669,387.3896,1715.0669,377.3896,1711.0669,381.3896" style="stroke:#181818;stroke-width:1.0;"/><line style="stroke:#181818;stroke-width:1.0;" x1="876.3657" x2="876.3657" y1="282.2959" y2="299.7959"/><line style="stroke:#181818;stroke-width:1.0;" x1="876.3657" x2="1971.2971" y1="299.7959" y2="299.7959"/><line style="stroke:#181818;stroke-width:1.0;" x1="1971.2971" x2="1971.2971" y1="299.7959" y2="317.2959"/><polygon fill="#181818" points="1967.2971,307.2959,1971.2971,317.2959,1975.2971,307.2959,1971.2971,311.2959" style="stroke:#181818;stroke-width:1.0;"/><line style="stroke:#181818;stroke-width:1.0;" x1="1039.769" x2="1039.769" y1="735.9805" y2="744.6836"/><line style="stroke:#181818;stroke-width:1.0;" x1="1039.769" x2="2240.1992" y1="744.6836" y2="744.6836"/><line style="stroke:#181818;stroke-width:1.0;" x1="2240.1992" x2="2240.1992" y1="744.6836" y2="762.1836"/><polygon fill="#181818" points="2236.1992,752.1836,2240.1992,762.1836,2244.1992,752.1836,2240.1992,756.1836" style="stroke:#181818;stroke-width:1.0;"/><line style="stroke:#181818;stroke-width:1.0;" x1="656.697" x2="656.697" y1="1505.748" y2="1510.748"/><line style="stroke:#181818;stroke-width:1.0;" x1="656.697" x2="1700.1677" y1="1510.748" y2="1510.748"/><line style="stroke:#181818;stroke-width:1.0;" x1="1700.1677" x2="1700.1677" y1="1510.748" y2="1525.748"/><polygon fill="#181818" points="1696.1677,1515.748,1700.1677,1525.748,1704.1677,1515.748,1700.1677,1519.748" style="stroke:#181818;stroke-width:1.0;"/><text fill="#000000" font-family="sans-serif" font-size="18" lengthAdjust="spacing" textLength="69.0381" x="520.2063" y="31.1406">Inventori</text><text fill="#000000" font-family="sans-serif" font-size="18" lengthAdjust="spacing" textLength="55.0107" x="1688.0081" y="31.1406">Sistem</text><!--SRC=[bLLBZjD04Dtx5BMCXRX0B8IG1Z5e21ff08bbHUxODUwFwS-C8kKU782ZiETCLBSTnuxZ-NWHfRlhzrwzhZvyrWz2UsFfa3cFrcVhZL3Rq23KA56XXbjhoj0KMKOxM7re7BtFmTT2m-eRgYtMUGRyhMyaDU2DsXe9tS7WcSutGbVa27R6AcX79zfu0PQgsgSbm1Lwx2tM_TPR-Cgrz9l3tWrwKN7fmyOrsWhXFg0Sjgw4QoorxcJqAHPdpsDjq24uKYqZNhbGXmwMq6KgC2q68CmOCwJXNcXo4p3f9nBLOOUIKREX5Kwq0sy_CU_pTk4IMp5UOrHhN6I9Dr0NWzNmvx4cAOxCTrOWiOezuKecaLFqMv9qjDjY4uhfCQCEJK8IbCIwkEJiq8TnBKp9iGegiSddHKumRGdt23wj8xU6Us4qolnvTCdpUNHT5vBr4Znj577Eru0ut97pGXqcgAgQVD0LA5EYd3J-efBZjqccx-3VdrMTvDdnyFSt_FBxAPxulOc6KyxoSTKdDGxL2kdcEDQz03tg5Zlz5KT5q-warSDe01nHxhjhCDFrX9Br3vISahLQdkxhsIL8D_aXsYrgly_LY1HcYquKPpfgISOMjiBnB_VJ2LSyWNlk8wmrTWO-USz6siUIVBv4Z4fowv327ba76BEK9DXhDEP2LE-CbJ6pmeRH3N-EtDx_UyiBSJdm4pGj8Bt6DhZNGwsZMv_tnkWTMHNBREFTY4VBc4PJaV7hI161jwWTZkkQ3yS1cIKUfduyYzPtPkTvo4h1n8mvkQoDXFc8YkFnyoRqkJ9UHEVg2pFX-NNnIF95B2wsUfokJF6MktlnWPXOJ4V71GDBZspX-noEYgo3pi-_QRF_]--></g></svg>