<svg xmlns="http://www.w3.org/2000/svg" xmlns:xlink="http://www.w3.org/1999/xlink" contentStyleType="text/css" height="589px" preserveAspectRatio="none" style="width:728px;height:589px;background:#FFFFFF;" version="1.1" viewBox="0 0 728 589" width="728px" zoomAndPan="magnify"><title>Activity Diagram</title><defs/><g><text fill="#000000" font-family="sans-serif" font-size="14" font-weight="bold" lengthAdjust="spacing" textLength="110.4824" x="307.376" y="34.5332">Activity Diagram</text><text fill="#000000" font-family="sans-serif" font-size="14" font-weight="bold" lengthAdjust="spacing" textLength="128.3516" x="298.4414" y="52.1426">Mengelola Supplier</text><ellipse cx="364.1172" cy="76.2188" fill="#222222" rx="10" ry="10" style="stroke:#222222;stroke-width:1.0;"/><rect fill="#F1F1F1" height="35.0938" rx="12.5" ry="12.5" style="stroke:#181818;stroke-width:0.5;" width="266.1465" x="231.0439" y="106.2188"/><text fill="#000000" font-family="sans-serif" font-size="12" lengthAdjust="spacing" textLength="246.1465" x="241.0439" y="128.6758">Bagian Inventori mengakses halaman supplier</text><rect fill="#F1F1F1" height="35.0938" rx="12.5" ry="12.5" style="stroke:#181818;stroke-width:0.5;" width="210.752" x="258.7412" y="161.3125"/><text fill="#000000" font-family="sans-serif" font-size="12" lengthAdjust="spacing" textLength="190.752" x="268.7412" y="183.7695">Sistem menampilkan daftar supplier</text><polygon fill="#F1F1F1" points="108.5898,216.4063,135.4883,216.4063,147.4883,228.4063,135.4883,240.4063,108.5898,240.4063,96.5898,228.4063,108.5898,216.4063" style="stroke:#181818;stroke-width:0.5;"/><text fill="#000000" font-family="sans-serif" font-size="11" lengthAdjust="spacing" textLength="40.353" x="126.0391" y="251.8252">Tambah</text><text fill="#000000" font-family="sans-serif" font-size="11" lengthAdjust="spacing" textLength="26.8984" x="108.5898" y="232.9072">Aksi?</text><rect fill="#F1F1F1" height="35.0938" rx="12.5" ry="12.5" style="stroke:#181818;stroke-width:0.5;" width="161.3926" x="41.3428" y="274.2422"/><text fill="#000000" font-family="sans-serif" font-size="12" lengthAdjust="spacing" textLength="141.3926" x="51.3428" y="296.6992">Mengisi form supplier baru</text><rect fill="#F1F1F1" height="35.0938" rx="12.5" ry="12.5" style="stroke:#181818;stroke-width:0.5;" width="209.4043" x="17.3369" y="343.1719"/><text fill="#000000" font-family="sans-serif" font-size="12" lengthAdjust="spacing" textLength="189.4043" x="27.3369" y="365.6289">(Nama, Kontak, Alamat, Link Maps)</text><rect fill="#F1F1F1" height="35.0938" rx="12.5" ry="12.5" style="stroke:#181818;stroke-width:0.5;" width="154.0742" x="45.002" y="412.1016"/><text fill="#000000" font-family="sans-serif" font-size="12" lengthAdjust="spacing" textLength="134.0742" x="55.002" y="434.5586">Menyimpan data supplier</text><rect fill="#F1F1F1" height="35.0938" rx="12.5" ry="12.5" style="stroke:#181818;stroke-width:0.5;" width="222.0781" x="11" y="481.0313"/><text fill="#000000" font-family="sans-serif" font-size="12" lengthAdjust="spacing" textLength="202.0781" x="21" y="503.4883">Sistem menampilkan notifikasi sukses</text><polygon fill="#F1F1F1" points="350.9688,216.4063,377.2656,216.4063,389.2656,228.4063,377.2656,240.4063,350.9688,240.4063,338.9688,228.4063,350.9688,216.4063" style="stroke:#181818;stroke-width:0.5;"/><text fill="#000000" font-family="sans-serif" font-size="11" lengthAdjust="spacing" textLength="26.2969" x="350.9688" y="232.9072">Ubah</text><text fill="#000000" font-family="sans-serif" font-size="11" lengthAdjust="spacing" textLength="31.7969" x="389.2656" y="225.9893">Hapus</text><rect fill="#F1F1F1" height="35.0938" rx="12.5" ry="12.5" style="stroke:#181818;stroke-width:0.5;" width="106.6953" x="310.7695" y="260.4063"/><text fill="#000000" font-family="sans-serif" font-size="12" lengthAdjust="spacing" textLength="86.6953" x="320.7695" y="282.8633">Memilih supplier</text><rect fill="#F1F1F1" height="35.0938" rx="12.5" ry="12.5" style="stroke:#181818;stroke-width:0.5;" width="148.7598" x="289.7373" y="329.3359"/><text fill="#000000" font-family="sans-serif" font-size="12" lengthAdjust="spacing" textLength="128.7598" x="299.7373" y="351.793">Mengubah data supplier</text><rect fill="#F1F1F1" height="35.0938" rx="12.5" ry="12.5" style="stroke:#181818;stroke-width:0.5;" width="142.748" x="292.7432" y="398.2656"/><text fill="#000000" font-family="sans-serif" font-size="12" lengthAdjust="spacing" textLength="122.748" x="302.7432" y="420.7227">Menyimpan perubahan</text><rect fill="#F1F1F1" height="35.0938" rx="12.5" ry="12.5" style="stroke:#181818;stroke-width:0.5;" width="222.0781" x="253.0781" y="467.1953"/><text fill="#000000" font-family="sans-serif" font-size="12" lengthAdjust="spacing" textLength="202.0781" x="263.0781" y="489.6523">Sistem menampilkan notifikasi sukses</text><rect fill="#F1F1F1" height="35.0938" rx="12.5" ry="12.5" style="stroke:#181818;stroke-width:0.5;" width="106.6953" x="552.8477" y="270.3242"/><text fill="#000000" font-family="sans-serif" font-size="12" lengthAdjust="spacing" textLength="86.6953" x="562.8477" y="292.7813">Memilih supplier</text><rect fill="#F1F1F1" height="35.0938" rx="12.5" ry="12.5" style="stroke:#181818;stroke-width:0.5;" width="152.7559" x="529.8174" y="339.2539"/><text fill="#000000" font-family="sans-serif" font-size="12" lengthAdjust="spacing" textLength="132.7559" x="539.8174" y="361.7109">Konfirmasi penghapusan</text><rect fill="#F1F1F1" height="35.0938" rx="12.5" ry="12.5" style="stroke:#181818;stroke-width:0.5;" width="168.0781" x="522.1563" y="408.1836"/><text fill="#000000" font-family="sans-serif" font-size="12" lengthAdjust="spacing" textLength="148.0781" x="532.1563" y="430.6406">Sistem menghapus supplier</text><rect fill="#F1F1F1" height="35.0938" rx="12.5" ry="12.5" style="stroke:#181818;stroke-width:0.5;" width="222.0781" x="495.1563" y="477.1133"/><text fill="#000000" font-family="sans-serif" font-size="12" lengthAdjust="spacing" textLength="202.0781" x="505.1563" y="499.5703">Sistem menampilkan notifikasi sukses</text><ellipse cx="364.1172" cy="567.125" fill="none" rx="11" ry="11" style="stroke:#222222;stroke-width:1.0;"/><ellipse cx="364.1172" cy="567.125" fill="#222222" rx="6" ry="6" style="stroke:#222222;stroke-width:1.0;"/><line style="stroke:#181818;stroke-width:1.0;" x1="364.1172" x2="364.1172" y1="86.2188" y2="106.2188"/><polygon fill="#181818" points="360.1172,96.2188,364.1172,106.2188,368.1172,96.2188,364.1172,100.2188" style="stroke:#181818;stroke-width:1.0;"/><line style="stroke:#181818;stroke-width:1.0;" x1="364.1172" x2="364.1172" y1="141.3125" y2="161.3125"/><polygon fill="#181818" points="360.1172,151.3125,364.1172,161.3125,368.1172,151.3125,364.1172,155.3125" style="stroke:#181818;stroke-width:1.0;"/><line style="stroke:#181818;stroke-width:1.0;" x1="122.0391" x2="122.0391" y1="309.3359" y2="343.1719"/><polygon fill="#181818" points="118.0391,333.1719,122.0391,343.1719,126.0391,333.1719,122.0391,337.1719" style="stroke:#181818;stroke-width:1.0;"/><line style="stroke:#181818;stroke-width:1.0;" x1="122.0391" x2="122.0391" y1="378.2656" y2="412.1016"/><polygon fill="#181818" points="118.0391,402.1016,122.0391,412.1016,126.0391,402.1016,122.0391,406.1016" style="stroke:#181818;stroke-width:1.0;"/><line style="stroke:#181818;stroke-width:1.0;" x1="122.0391" x2="122.0391" y1="447.1953" y2="481.0313"/><polygon fill="#181818" points="118.0391,471.0313,122.0391,481.0313,126.0391,471.0313,122.0391,475.0313" style="stroke:#181818;stroke-width:1.0;"/><line style="stroke:#181818;stroke-width:1.0;" x1="364.1172" x2="364.1172" y1="295.5" y2="329.3359"/><polygon fill="#181818" points="360.1172,319.3359,364.1172,329.3359,368.1172,319.3359,364.1172,323.3359" style="stroke:#181818;stroke-width:1.0;"/><line style="stroke:#181818;stroke-width:1.0;" x1="364.1172" x2="364.1172" y1="364.4297" y2="398.2656"/><polygon fill="#181818" points="360.1172,388.2656,364.1172,398.2656,368.1172,388.2656,364.1172,392.2656" style="stroke:#181818;stroke-width:1.0;"/><line style="stroke:#181818;stroke-width:1.0;" x1="364.1172" x2="364.1172" y1="433.3594" y2="467.1953"/><polygon fill="#181818" points="360.1172,457.1953,364.1172,467.1953,368.1172,457.1953,364.1172,461.1953" style="stroke:#181818;stroke-width:1.0;"/><line style="stroke:#181818;stroke-width:1.0;" x1="606.1953" x2="606.1953" y1="305.418" y2="339.2539"/><polygon fill="#181818" points="602.1953,329.2539,606.1953,339.2539,610.1953,329.2539,606.1953,333.2539" style="stroke:#181818;stroke-width:1.0;"/><line style="stroke:#181818;stroke-width:1.0;" x1="606.1953" x2="606.1953" y1="374.3477" y2="408.1836"/><polygon fill="#181818" points="602.1953,398.1836,606.1953,408.1836,610.1953,398.1836,606.1953,402.1836" style="stroke:#181818;stroke-width:1.0;"/><line style="stroke:#181818;stroke-width:1.0;" x1="606.1953" x2="606.1953" y1="443.2773" y2="477.1133"/><polygon fill="#181818" points="602.1953,467.1133,606.1953,477.1133,610.1953,467.1133,606.1953,471.1133" style="stroke:#181818;stroke-width:1.0;"/><line style="stroke:#181818;stroke-width:1.0;" x1="122.0391" x2="122.0391" y1="240.4063" y2="274.2422"/><polygon fill="#181818" points="118.0391,264.2422,122.0391,274.2422,126.0391,264.2422,122.0391,268.2422" style="stroke:#181818;stroke-width:1.0;"/><line style="stroke:#181818;stroke-width:1.0;" x1="122.0391" x2="122.0391" y1="516.125" y2="536.125"/><polygon fill="#181818" points="118.0391,526.125,122.0391,536.125,126.0391,526.125,122.0391,530.125" style="stroke:#181818;stroke-width:1.0;"/><line style="stroke:#181818;stroke-width:1.0;" x1="364.1172" x2="364.1172" y1="240.4063" y2="260.4063"/><polygon fill="#181818" points="360.1172,250.4063,364.1172,260.4063,368.1172,250.4063,364.1172,254.4063" style="stroke:#181818;stroke-width:1.0;"/><line style="stroke:#181818;stroke-width:1.0;" x1="364.1172" x2="364.1172" y1="502.2891" y2="556.125"/><polygon fill="#181818" points="360.1172,546.125,364.1172,556.125,368.1172,546.125,364.1172,550.125" style="stroke:#181818;stroke-width:1.0;"/><line style="stroke:#181818;stroke-width:1.0;" x1="147.4883" x2="338.9688" y1="228.4063" y2="228.4063"/><polygon fill="#181818" points="328.9688,224.4063,338.9688,228.4063,328.9688,232.4063,332.9688,228.4063" style="stroke:#181818;stroke-width:1.0;"/><line style="stroke:#181818;stroke-width:1.0;" x1="364.1172" x2="364.1172" y1="196.4063" y2="201.4063"/><line style="stroke:#181818;stroke-width:1.0;" x1="364.1172" x2="122.0391" y1="201.4063" y2="201.4063"/><line style="stroke:#181818;stroke-width:1.0;" x1="122.0391" x2="122.0391" y1="201.4063" y2="216.4063"/><polygon fill="#181818" points="118.0391,206.4063,122.0391,216.4063,126.0391,206.4063,122.0391,210.4063" style="stroke:#181818;stroke-width:1.0;"/><line style="stroke:#181818;stroke-width:1.0;" x1="389.2656" x2="606.1953" y1="228.4063" y2="228.4063"/><line style="stroke:#181818;stroke-width:1.0;" x1="606.1953" x2="606.1953" y1="228.4063" y2="270.3242"/><polygon fill="#181818" points="602.1953,260.3242,606.1953,270.3242,610.1953,260.3242,606.1953,264.3242" style="stroke:#181818;stroke-width:1.0;"/><line style="stroke:#181818;stroke-width:1.0;" x1="606.1953" x2="606.1953" y1="512.207" y2="536.125"/><polygon fill="#181818" points="602.1953,526.125,606.1953,536.125,610.1953,526.125,606.1953,530.125" style="stroke:#181818;stroke-width:1.0;"/><line style="stroke:#181818;stroke-width:1.0;" x1="122.0391" x2="606.1953" y1="536.125" y2="536.125"/><!--SRC=[dPAzJiCm4CTtFyMDYPGdQ0OKn022iWGsbclh92VRPyk-LEhROwUbL2X20g__hvyj9qCSCA83t0iTIKxzX463tmkEdfKI4gkXkuZmG3XczmTlDO_QUelGpo5Oqb6f91X5RUvn96HuugDcyP70PI-Qf1DCQD5bBLqohThqb4Ixua4No9gi7d38JJScHGDKdKbqLuDCcg5wGxV3gLQGpwQmK28OV7JN5EmmpktPKBtcrGQUFGkQ1he28Gsy41lOOaXrUoqwaGiBWk0DmAAkaB8N6iXW7azpkM6hj4qQ2kzx0LnmlyeTMPf-jXRuELjN9x-1Wex5XVntcEeHmvpgNodoqmmKNSc633ILnChMMVZdm_21Xln7V52V]--></g></svg>