<svg xmlns="http://www.w3.org/2000/svg" xmlns:xlink="http://www.w3.org/1999/xlink" contentStyleType="text/css" height="829px" preserveAspectRatio="none" style="width:424px;height:829px;background:#FFFFFF;" version="1.1" viewBox="0 0 424 829" width="424px" zoomAndPan="magnify"><title>Activity Diagram</title><defs/><g><text fill="#000000" font-family="sans-serif" font-size="14" font-weight="bold" lengthAdjust="spacing" textLength="110.4824" x="155.5029" y="34.5332">Activity Diagram</text><text fill="#000000" font-family="sans-serif" font-size="14" font-weight="bold" lengthAdjust="spacing" textLength="270.7305" x="75.3789" y="52.1426">Pengaturan Profil &amp; Metode Pembayaran</text><ellipse cx="197.4189" cy="76.2188" fill="#222222" rx="10" ry="10" style="stroke:#222222;stroke-width:1.0;"/><rect fill="#F1F1F1" height="35.0938" rx="12.5" ry="12.5" style="stroke:#181818;stroke-width:0.5;" width="232.1328" x="81.3525" y="106.2188"/><text fill="#000000" font-family="sans-serif" font-size="12" lengthAdjust="spacing" textLength="212.1328" x="91.3525" y="128.6758">Admin mengakses halaman pengaturan</text><rect fill="#F1F1F1" height="35.0938" rx="12.5" ry="12.5" style="stroke:#181818;stroke-width:0.5;" width="222.7637" x="86.0371" y="161.3125"/><text fill="#000000" font-family="sans-serif" font-size="12" lengthAdjust="spacing" textLength="202.7637" x="96.0371" y="183.7695">Sistem menampilkan form pengaturan</text><rect fill="#F1F1F1" height="35.0938" rx="12.5" ry="12.5" style="stroke:#181818;stroke-width:0.5;" width="185.457" x="104.6904" y="265.3242"/><text fill="#000000" font-family="sans-serif" font-size="12" lengthAdjust="spacing" textLength="165.457" x="114.6904" y="287.7813">Mengubah logo dan nama toko</text><polygon fill="#F1F1F1" points="152.1755,320.418,242.6624,320.418,254.6624,332.418,242.6624,344.418,152.1755,344.418,140.1755,332.418,152.1755,320.418" style="stroke:#181818;stroke-width:0.5;"/><text fill="#000000" font-family="sans-serif" font-size="11" lengthAdjust="spacing" textLength="90.4868" x="152.1755" y="336.9189">Format logo valid?</text><text fill="#000000" font-family="sans-serif" font-size="11" lengthAdjust="spacing" textLength="13.4546" x="126.7209" y="330.001">Ya</text><text fill="#000000" font-family="sans-serif" font-size="11" lengthAdjust="spacing" textLength="26.8984" x="254.6624" y="330.001">Tidak</text><rect fill="#F1F1F1" height="35.0938" rx="12.5" ry="12.5" style="stroke:#181818;stroke-width:0.5;" width="176.0938" x="11" y="354.418"/><text fill="#000000" font-family="sans-serif" font-size="12" lengthAdjust="spacing" textLength="156.0938" x="21" y="376.875">Sistem update metadata toko</text><rect fill="#F1F1F1" height="35.0938" rx="12.5" ry="12.5" style="stroke:#181818;stroke-width:0.5;" width="166.0566" x="16.0186" y="409.5117"/><text fill="#000000" font-family="sans-serif" font-size="12" lengthAdjust="spacing" textLength="146.0566" x="26.0186" y="431.9688">Tampilkan notifikasi sukses</text><rect fill="#F1F1F1" height="35.0938" rx="12.5" ry="12.5" style="stroke:#181818;stroke-width:0.5;" width="124.7246" x="233.4287" y="354.418"/><text fill="#000000" font-family="sans-serif" font-size="12" lengthAdjust="spacing" textLength="104.7246" x="243.4287" y="376.875">Sistem tolak upload</text><rect fill="#F1F1F1" height="35.0938" rx="12.5" ry="12.5" style="stroke:#181818;stroke-width:0.5;" width="177.3945" x="207.0938" y="409.5117"/><text fill="#000000" font-family="sans-serif" font-size="12" lengthAdjust="spacing" textLength="157.3945" x="217.0938" y="431.9688">Tampilkan pesan error format</text><polygon fill="#F1F1F1" points="197.4189,450.6055,209.4189,462.6055,197.4189,474.6055,185.4189,462.6055,197.4189,450.6055" style="stroke:#181818;stroke-width:0.5;"/><polygon fill="#F1F1F1" points="151.2517,216.4063,243.5862,216.4063,255.5862,228.4063,243.5862,240.4063,151.2517,240.4063,139.2517,228.4063,151.2517,216.4063" style="stroke:#181818;stroke-width:0.5;"/><text fill="#000000" font-family="sans-serif" font-size="11" lengthAdjust="spacing" textLength="13.4546" x="201.4189" y="251.8252">Ya</text><text fill="#000000" font-family="sans-serif" font-size="11" lengthAdjust="spacing" textLength="92.3345" x="151.2517" y="232.9072">Update profil toko?</text><polygon fill="#F1F1F1" points="197.4189,494.6055,209.4189,506.6055,197.4189,518.6055,185.4189,506.6055,197.4189,494.6055" style="stroke:#181818;stroke-width:0.5;"/><rect fill="#F1F1F1" height="35.0938" rx="12.5" ry="12.5" style="stroke:#181818;stroke-width:0.5;" width="223.4492" x="85.6943" y="587.5234"/><text fill="#000000" font-family="sans-serif" font-size="12" lengthAdjust="spacing" textLength="203.4492" x="95.6943" y="609.9805">Aktifkan/Matikan channel pembayaran</text><rect fill="#F1F1F1" height="35.0938" rx="12.5" ry="12.5" style="stroke:#181818;stroke-width:0.5;" width="232.7891" x="81.0244" y="642.6172"/><text fill="#000000" font-family="sans-serif" font-size="12" lengthAdjust="spacing" textLength="212.7891" x="91.0244" y="665.0742">Sistem simpan pengaturan pembayaran</text><rect fill="#F1F1F1" height="35.0938" rx="12.5" ry="12.5" style="stroke:#181818;stroke-width:0.5;" width="214.7773" x="90.0303" y="697.7109"/><text fill="#000000" font-family="sans-serif" font-size="12" lengthAdjust="spacing" textLength="194.7773" x="100.0303" y="720.168">Perubahan muncul di struk dan POS</text><polygon fill="#F1F1F1" points="127.0952,538.6055,267.7427,538.6055,279.7427,550.6055,267.7427,562.6055,127.0952,562.6055,115.0952,550.6055,127.0952,538.6055" style="stroke:#181818;stroke-width:0.5;"/><text fill="#000000" font-family="sans-serif" font-size="11" lengthAdjust="spacing" textLength="13.4546" x="201.4189" y="574.0244">Ya</text><text fill="#000000" font-family="sans-serif" font-size="11" lengthAdjust="spacing" textLength="140.6475" x="127.0952" y="555.1064">Kelola metode pembayaran?</text><polygon fill="#F1F1F1" points="197.4189,752.8047,209.4189,764.8047,197.4189,776.8047,185.4189,764.8047,197.4189,752.8047" style="stroke:#181818;stroke-width:0.5;"/><ellipse cx="197.4189" cy="807.8047" fill="none" rx="11" ry="11" style="stroke:#222222;stroke-width:1.0;"/><ellipse cx="197.4189" cy="807.8047" fill="#222222" rx="6" ry="6" style="stroke:#222222;stroke-width:1.0;"/><line style="stroke:#181818;stroke-width:1.0;" x1="197.4189" x2="197.4189" y1="86.2188" y2="106.2188"/><polygon fill="#181818" points="193.4189,96.2188,197.4189,106.2188,201.4189,96.2188,197.4189,100.2188" style="stroke:#181818;stroke-width:1.0;"/><line style="stroke:#181818;stroke-width:1.0;" x1="197.4189" x2="197.4189" y1="141.3125" y2="161.3125"/><polygon fill="#181818" points="193.4189,151.3125,197.4189,161.3125,201.4189,151.3125,197.4189,155.3125" style="stroke:#181818;stroke-width:1.0;"/><line style="stroke:#181818;stroke-width:1.0;" x1="99.0469" x2="99.0469" y1="389.5117" y2="409.5117"/><polygon fill="#181818" points="95.0469,399.5117,99.0469,409.5117,103.0469,399.5117,99.0469,403.5117" style="stroke:#181818;stroke-width:1.0;"/><line style="stroke:#181818;stroke-width:1.0;" x1="295.791" x2="295.791" y1="389.5117" y2="409.5117"/><polygon fill="#181818" points="291.791,399.5117,295.791,409.5117,299.791,399.5117,295.791,403.5117" style="stroke:#181818;stroke-width:1.0;"/><line style="stroke:#181818;stroke-width:1.0;" x1="140.1755" x2="99.0469" y1="332.418" y2="332.418"/><line style="stroke:#181818;stroke-width:1.0;" x1="99.0469" x2="99.0469" y1="332.418" y2="354.418"/><polygon fill="#181818" points="95.0469,344.418,99.0469,354.418,103.0469,344.418,99.0469,348.418" style="stroke:#181818;stroke-width:1.0;"/><line style="stroke:#181818;stroke-width:1.0;" x1="254.6624" x2="295.791" y1="332.418" y2="332.418"/><line style="stroke:#181818;stroke-width:1.0;" x1="295.791" x2="295.791" y1="332.418" y2="354.418"/><polygon fill="#181818" points="291.791,344.418,295.791,354.418,299.791,344.418,295.791,348.418" style="stroke:#181818;stroke-width:1.0;"/><line style="stroke:#181818;stroke-width:1.0;" x1="99.0469" x2="99.0469" y1="444.6055" y2="462.6055"/><line style="stroke:#181818;stroke-width:1.0;" x1="99.0469" x2="185.4189" y1="462.6055" y2="462.6055"/><polygon fill="#181818" points="175.4189,458.6055,185.4189,462.6055,175.4189,466.6055,179.4189,462.6055" style="stroke:#181818;stroke-width:1.0;"/><line style="stroke:#181818;stroke-width:1.0;" x1="295.791" x2="295.791" y1="444.6055" y2="462.6055"/><line style="stroke:#181818;stroke-width:1.0;" x1="295.791" x2="209.4189" y1="462.6055" y2="462.6055"/><polygon fill="#181818" points="219.4189,458.6055,209.4189,462.6055,219.4189,466.6055,215.4189,462.6055" style="stroke:#181818;stroke-width:1.0;"/><line style="stroke:#181818;stroke-width:1.0;" x1="197.4189" x2="197.4189" y1="300.418" y2="320.418"/><polygon fill="#181818" points="193.4189,310.418,197.4189,320.418,201.4189,310.418,197.4189,314.418" style="stroke:#181818;stroke-width:1.0;"/><line style="stroke:#181818;stroke-width:1.0;" x1="197.4189" x2="197.4189" y1="240.4063" y2="265.3242"/><polygon fill="#181818" points="193.4189,255.3242,197.4189,265.3242,201.4189,255.3242,197.4189,259.3242" style="stroke:#181818;stroke-width:1.0;"/><line style="stroke:#181818;stroke-width:1.0;" x1="255.5862" x2="398.4883" y1="228.4063" y2="228.4063"/><polygon fill="#181818" points="394.4883,359.9648,398.4883,369.9648,402.4883,359.9648,398.4883,363.9648" style="stroke:#181818;stroke-width:1.0;"/><line style="stroke:#181818;stroke-width:1.0;" x1="398.4883" x2="398.4883" y1="228.4063" y2="506.6055"/><line style="stroke:#181818;stroke-width:1.0;" x1="398.4883" x2="209.4189" y1="506.6055" y2="506.6055"/><polygon fill="#181818" points="219.4189,502.6055,209.4189,506.6055,219.4189,510.6055,215.4189,506.6055" style="stroke:#181818;stroke-width:1.0;"/><line style="stroke:#181818;stroke-width:1.0;" x1="197.4189" x2="197.4189" y1="474.6055" y2="494.6055"/><polygon fill="#181818" points="193.4189,484.6055,197.4189,494.6055,201.4189,484.6055,197.4189,488.6055" style="stroke:#181818;stroke-width:1.0;"/><line style="stroke:#181818;stroke-width:1.0;" x1="197.4189" x2="197.4189" y1="196.4063" y2="216.4063"/><polygon fill="#181818" points="193.4189,206.4063,197.4189,216.4063,201.4189,206.4063,197.4189,210.4063" style="stroke:#181818;stroke-width:1.0;"/><line style="stroke:#181818;stroke-width:1.0;" x1="197.4189" x2="197.4189" y1="622.6172" y2="642.6172"/><polygon fill="#181818" points="193.4189,632.6172,197.4189,642.6172,201.4189,632.6172,197.4189,636.6172" style="stroke:#181818;stroke-width:1.0;"/><line style="stroke:#181818;stroke-width:1.0;" x1="197.4189" x2="197.4189" y1="677.7109" y2="697.7109"/><polygon fill="#181818" points="193.4189,687.7109,197.4189,697.7109,201.4189,687.7109,197.4189,691.7109" style="stroke:#181818;stroke-width:1.0;"/><line style="stroke:#181818;stroke-width:1.0;" x1="197.4189" x2="197.4189" y1="562.6055" y2="587.5234"/><polygon fill="#181818" points="193.4189,577.5234,197.4189,587.5234,201.4189,577.5234,197.4189,581.5234" style="stroke:#181818;stroke-width:1.0;"/><line style="stroke:#181818;stroke-width:1.0;" x1="279.7427" x2="323.8135" y1="550.6055" y2="550.6055"/><polygon fill="#181818" points="319.8135,650.1641,323.8135,660.1641,327.8135,650.1641,323.8135,654.1641" style="stroke:#181818;stroke-width:1.0;"/><line style="stroke:#181818;stroke-width:1.0;" x1="323.8135" x2="323.8135" y1="550.6055" y2="764.8047"/><line style="stroke:#181818;stroke-width:1.0;" x1="323.8135" x2="209.4189" y1="764.8047" y2="764.8047"/><polygon fill="#181818" points="219.4189,760.8047,209.4189,764.8047,219.4189,768.8047,215.4189,764.8047" style="stroke:#181818;stroke-width:1.0;"/><line style="stroke:#181818;stroke-width:1.0;" x1="197.4189" x2="197.4189" y1="732.8047" y2="752.8047"/><polygon fill="#181818" points="193.4189,742.8047,197.4189,752.8047,201.4189,742.8047,197.4189,746.8047" style="stroke:#181818;stroke-width:1.0;"/><line style="stroke:#181818;stroke-width:1.0;" x1="197.4189" x2="197.4189" y1="518.6055" y2="538.6055"/><polygon fill="#181818" points="193.4189,528.6055,197.4189,538.6055,201.4189,528.6055,197.4189,532.6055" style="stroke:#181818;stroke-width:1.0;"/><line style="stroke:#181818;stroke-width:1.0;" x1="197.4189" x2="197.4189" y1="776.8047" y2="796.8047"/><polygon fill="#181818" points="193.4189,786.8047,197.4189,796.8047,201.4189,786.8047,197.4189,790.8047" style="stroke:#181818;stroke-width:1.0;"/><!--SRC=[RP4_QyD03CLtVmfD9Pcw9qC9b2ubr91qA7HHVB8jxYztSY3VlhATX0JtXkD0Jx_tJYgMGyAC7h0HFhDS3ZqcWjW8TZ5KbR0uWjsr2E-CdQf_GqsXGnao1gXpRDd12-n9eY6eoP_meb1jBu9PgitEU0xWnnvRg42F3hssfZjbMsqEN8Jyg4AVs5cjjp7x9r75BQo-aq4XIBElH1lVrY0z1LZzuBe2FPkzDWqdxC75Be9Hbb9n4cydnGZwK3pAB3cZOxFWJAnhi66szIIeZqVMf3hUKuSetBB5mb26yR-pYbmXM1tPe5t29JgqQk4Ycd-XYOhUb7FCqrXGhjHWkAtcUvhE9pbbZJ77PQJxCfOpsbdDgUpNFGgF7asF8P1xQ9ezRY4B-_IqjQMofZoENKj-2CtWmEWG90zssa7zTTZUiXQ9gVe3]--></g></svg>