<svg xmlns="http://www.w3.org/2000/svg" xmlns:xlink="http://www.w3.org/1999/xlink" contentStyleType="text/css" height="1406px" preserveAspectRatio="none" style="width:1374px;height:1406px;background:#FFFFFF;" version="1.1" viewBox="0 0 1374 1406" width="1374px" zoomAndPan="magnify"><defs/><g><rect fill="none" height="22.6406" style="stroke:none;stroke-width:1.0;" width="1341.6487" x="15" y="12.4551"/><ellipse cx="281.1145" cy="50.0957" fill="#222222" rx="10" ry="10" style="stroke:#222222;stroke-width:1.0;"/><rect fill="#F1F1F1" height="35.0938" rx="12.5" ry="12.5" style="stroke:#181818;stroke-width:0.5;" width="177.4004" x="192.4143" y="80.0957"/><text fill="#000000" font-family="sans-serif" font-size="12" lengthAdjust="spacing" textLength="157.4004" x="202.4143" y="102.5527">Membuka halaman Transaksi</text><rect fill="#F1F1F1" height="35.0938" rx="12.5" ry="12.5" style="stroke:#181818;stroke-width:0.5;" width="150.0488" x="206.0901" y="135.1895"/><text fill="#000000" font-family="sans-serif" font-size="12" lengthAdjust="spacing" textLength="130.0488" x="216.0901" y="157.6465">Filter status: Uang Muka</text><rect fill="#F1F1F1" height="35.0938" rx="12.5" ry="12.5" style="stroke:#181818;stroke-width:0.5;" width="215.4277" x="173.4006" y="190.2832"/><text fill="#000000" font-family="sans-serif" font-size="12" lengthAdjust="spacing" textLength="195.4277" x="183.4006" y="212.7402">Memilih transaksi yang akan dilunasi</text><rect fill="#F1F1F1" height="35.0938" rx="12.5" ry="12.5" style="stroke:#181818;stroke-width:0.5;" width="117.3828" x="222.4231" y="245.377"/><text fill="#000000" font-family="sans-serif" font-size="12" lengthAdjust="spacing" textLength="97.3828" x="232.4231" y="267.834">Klik tombol Lunasi</text><rect fill="#F1F1F1" height="35.0938" rx="12.5" ry="12.5" style="stroke:#181818;stroke-width:0.5;" width="174.7402" x="193.7444" y="418.5801"/><text fill="#000000" font-family="sans-serif" font-size="12" lengthAdjust="spacing" textLength="154.7402" x="203.7444" y="441.0371">Memilih metode pembayaran</text><polygon fill="#F1F1F1" points="259.7107,473.6738,302.5183,473.6738,314.5183,485.6738,302.5183,497.6738,259.7107,497.6738,247.7107,485.6738,259.7107,473.6738" style="stroke:#181818;stroke-width:0.5;"/><text fill="#000000" font-family="sans-serif" font-size="11" lengthAdjust="spacing" textLength="42.8076" x="259.7107" y="490.1748">Metode?</text><text fill="#000000" font-family="sans-serif" font-size="11" lengthAdjust="spacing" textLength="27.5161" x="220.1946" y="483.2568">Tunai</text><text fill="#000000" font-family="sans-serif" font-size="11" lengthAdjust="spacing" textLength="51.3584" x="314.5183" y="483.2568">Non-Tunai</text><rect fill="#F1F1F1" height="35.0938" rx="12.5" ry="12.5" style="stroke:#181818;stroke-width:0.5;" width="206.0879" x="21" y="517.6738"/><text fill="#000000" font-family="sans-serif" font-size="12" lengthAdjust="spacing" textLength="186.0879" x="31" y="540.1309">Memasukkan jumlah uang diterima</text><path d="M546.5601,522.0449 L546.5601,531.2207 L526.5601,535.2207 L546.5601,539.2207 L546.5601,548.3965 A0,0 0 0 0 546.5601,548.3965 L730.8472,548.3965 A0,0 0 0 0 730.8472,548.3965 L730.8472,532.0449 L720.8472,522.0449 L546.5601,522.0449 A0,0 0 0 0 546.5601,522.0449 " fill="#FEFFDD" style="stroke:#181818;stroke-width:0.5;"/><path d="M720.8472,522.0449 L720.8472,532.0449 L730.8472,532.0449 L720.8472,522.0449 " fill="#FEFFDD" style="stroke:#181818;stroke-width:0.5;"/><text fill="#000000" font-family="sans-serif" font-size="13" lengthAdjust="spacing" textLength="163.2871" x="552.5601" y="540.54">Channel: QRIS, Transfer, dll</text><rect fill="#F1F1F1" height="35.0938" rx="12.5" ry="12.5" style="stroke:#181818;stroke-width:0.5;" width="176.75" x="349.8101" y="517.6738"/><text fill="#000000" font-family="sans-serif" font-size="12" lengthAdjust="spacing" textLength="156.75" x="359.8101" y="540.1309">Memilih channel pembayaran</text><polygon fill="#F1F1F1" points="281.1145,693.8613,293.1145,705.8613,281.1145,717.8613,269.1145,705.8613,281.1145,693.8613" style="stroke:#181818;stroke-width:0.5;"/><rect fill="#F1F1F1" height="35.0938" rx="12.5" ry="12.5" style="stroke:#181818;stroke-width:0.5;" width="135.4004" x="213.4143" y="737.8613"/><text fill="#000000" font-family="sans-serif" font-size="12" lengthAdjust="spacing" textLength="115.4004" x="223.4143" y="760.3184">Konfirmasi pelunasan</text><rect fill="#F1F1F1" height="35.0938" rx="12.5" ry="12.5" style="stroke:#181818;stroke-width:0.5;" width="160.0801" x="201.0745" y="1272.9629"/><text fill="#000000" font-family="sans-serif" font-size="12" lengthAdjust="spacing" textLength="140.0801" x="211.0745" y="1295.4199">Mencetak struk pelunasan</text><polygon fill="#F1F1F1" points="250.2415,1224.0449,311.9875,1224.0449,323.9875,1236.0449,311.9875,1248.0449,250.2415,1248.0449,238.2415,1236.0449,250.2415,1224.0449" style="stroke:#181818;stroke-width:0.5;"/><text fill="#000000" font-family="sans-serif" font-size="11" lengthAdjust="spacing" textLength="13.4546" x="285.1145" y="1259.4639">Ya</text><text fill="#000000" font-family="sans-serif" font-size="11" lengthAdjust="spacing" textLength="61.7461" x="250.2415" y="1240.5459">Cetak struk?</text><text fill="#000000" font-family="sans-serif" font-size="11" lengthAdjust="spacing" textLength="26.8984" x="323.9875" y="1233.6279">Tidak</text><polygon fill="#F1F1F1" points="281.1145,1328.0566,293.1145,1340.0566,281.1145,1352.0566,269.1145,1340.0566,281.1145,1328.0566" style="stroke:#181818;stroke-width:0.5;"/><ellipse cx="281.1145" cy="1383.0566" fill="none" rx="11" ry="11" style="stroke:#222222;stroke-width:1.0;"/><ellipse cx="281.1145" cy="1383.0566" fill="#222222" rx="6" ry="6" style="stroke:#222222;stroke-width:1.0;"/><line style="stroke:#000000;stroke-width:1.5;" x1="15" x2="15" y1="12.4551" y2="1394.0566"/><path d="M1172.0393,290.4707 L1172.0393,340.5254 L1152.0393,344.5254 L1172.0393,348.5254 L1172.0393,398.5801 A0,0 0 0 0 1172.0393,398.5801 L1315.1492,398.5801 A0,0 0 0 0 1315.1492,398.5801 L1315.1492,300.4707 L1305.1492,290.4707 L1172.0393,290.4707 A0,0 0 0 0 1172.0393,290.4707 " fill="#FEFFDD" style="stroke:#181818;stroke-width:0.5;"/><path d="M1305.1492,290.4707 L1305.1492,300.4707 L1315.1492,300.4707 L1305.1492,290.4707 " fill="#FEFFDD" style="stroke:#181818;stroke-width:0.5;"/><text fill="#000000" font-family="sans-serif" font-size="13" lengthAdjust="spacing" textLength="80.9263" x="1178.0393" y="308.9658">Info transaksi:</text><text fill="#000000" font-family="sans-serif" font-size="13" lengthAdjust="spacing" textLength="91.0254" x="1178.0393" y="325.3174">- Nomor invoice</text><text fill="#000000" font-family="sans-serif" font-size="13" lengthAdjust="spacing" textLength="106.958" x="1178.0393" y="341.6689">- Nama pelanggan</text><text fill="#000000" font-family="sans-serif" font-size="13" lengthAdjust="spacing" textLength="83.1035" x="1178.0393" y="358.0205">- Total tagihan</text><text fill="#000000" font-family="sans-serif" font-size="13" lengthAdjust="spacing" textLength="122.1099" x="1178.0393" y="374.3721">- Sudah dibayar (DP)</text><text fill="#000000" font-family="sans-serif" font-size="13" lengthAdjust="spacing" textLength="79.4917" x="1178.0393" y="390.7236">- Sisa tagihan</text><rect fill="#F1F1F1" height="35.0938" rx="12.5" ry="12.5" style="stroke:#181818;stroke-width:0.5;" width="174.7402" x="977.2991" y="326.9785"/><text fill="#000000" font-family="sans-serif" font-size="12" lengthAdjust="spacing" textLength="154.7402" x="987.2991" y="349.4355">Menampilkan detail transaksi</text><polygon fill="#F1F1F1" points="852.5583,572.7676,962.6389,572.7676,974.6389,584.7676,962.6389,596.7676,852.5583,596.7676,840.5583,584.7676,852.5583,572.7676" style="stroke:#181818;stroke-width:0.5;"/><text fill="#000000" font-family="sans-serif" font-size="11" lengthAdjust="spacing" textLength="110.0806" x="852.5583" y="589.2686">Uang &gt;= sisa tagihan?</text><text fill="#000000" font-family="sans-serif" font-size="11" lengthAdjust="spacing" textLength="13.4546" x="827.1038" y="582.3506">Ya</text><text fill="#000000" font-family="sans-serif" font-size="11" lengthAdjust="spacing" textLength="26.8984" x="974.6389" y="582.3506">Tidak</text><rect fill="#F1F1F1" height="35.0938" rx="12.5" ry="12.5" style="stroke:#181818;stroke-width:0.5;" width="140.7441" x="741.8472" y="606.7676"/><text fill="#000000" font-family="sans-serif" font-size="12" lengthAdjust="spacing" textLength="120.7441" x="751.8472" y="629.2246">Menghitung kembalian</text><rect fill="#F1F1F1" height="35.0938" rx="12.5" ry="12.5" style="stroke:#181818;stroke-width:0.5;" width="200.7734" x="902.5913" y="606.7676"/><text fill="#000000" font-family="sans-serif" font-size="12" lengthAdjust="spacing" textLength="180.7734" x="912.5913" y="629.2246">Menampilkan pesan kurang bayar</text><ellipse cx="1002.978" cy="672.8613" fill="none" rx="11" ry="11" style="stroke:#222222;stroke-width:1.0;"/><ellipse cx="1002.978" cy="672.8613" fill="#222222" rx="6" ry="6" style="stroke:#222222;stroke-width:1.0;"/><rect fill="#F1F1F1" height="35.0938" rx="12.5" ry="12.5" style="stroke:#181818;stroke-width:0.5;" width="178.7598" x="975.2893" y="792.9551"/><text fill="#000000" font-family="sans-serif" font-size="12" lengthAdjust="spacing" textLength="158.7598" x="985.2893" y="815.4121">Menyimpan data pembayaran</text><rect fill="#F1F1F1" height="35.0938" rx="12.5" ry="12.5" style="stroke:#181818;stroke-width:0.5;" width="184.7598" x="972.2893" y="848.0488"/><text fill="#000000" font-family="sans-serif" font-size="12" lengthAdjust="spacing" textLength="164.7598" x="982.2893" y="870.5059">Update status transaksi: Lunas</text><path d="M1175.0657,952.0605 L1175.0657,969.4121 L1155.0657,973.4121 L1175.0657,977.4121 L1175.0657,994.7637 A0,0 0 0 0 1175.0657,994.7637 L1326.1482,994.7637 A0,0 0 0 0 1326.1482,994.7637 L1326.1482,962.0605 L1316.1482,952.0605 L1175.0657,952.0605 A0,0 0 0 0 1175.0657,952.0605 " fill="#FEFFDD" style="stroke:#181818;stroke-width:0.5;"/><path d="M1316.1482,952.0605 L1316.1482,962.0605 L1326.1482,962.0605 L1316.1482,952.0605 " fill="#FEFFDD" style="stroke:#181818;stroke-width:0.5;"/><text fill="#000000" font-family="sans-serif" font-size="13" lengthAdjust="spacing" textLength="120.3325" x="1181.0657" y="970.5557">Poin = Total / 10.000</text><text fill="#000000" font-family="sans-serif" font-size="13" lengthAdjust="spacing" textLength="130.0825" x="1181.0657" y="986.9072">(1 poin per Rp 10.000)</text><rect fill="#F1F1F1" height="35.0938" rx="12.5" ry="12.5" style="stroke:#181818;stroke-width:0.5;" width="180.793" x="974.2727" y="955.8652"/><text fill="#000000" font-family="sans-serif" font-size="12" lengthAdjust="spacing" textLength="160.793" x="984.2727" y="978.3223">Menghitung poin yang didapat</text><rect fill="#F1F1F1" height="35.0938" rx="12.5" ry="12.5" style="stroke:#181818;stroke-width:0.5;" width="165.4473" x="981.9456" y="1014.7637"/><text fill="#000000" font-family="sans-serif" font-size="12" lengthAdjust="spacing" textLength="145.4473" x="991.9456" y="1037.2207">Menambah poin pelanggan</text><rect fill="#F1F1F1" height="35.0938" rx="12.5" ry="12.5" style="stroke:#181818;stroke-width:0.5;" width="116.0469" x="1006.6458" y="1069.8574"/><text fill="#000000" font-family="sans-serif" font-size="12" lengthAdjust="spacing" textLength="96.0469" x="1016.6458" y="1092.3145">Catat riwayat poin</text><polygon fill="#F1F1F1" points="1013.2974,903.1426,1116.041,903.1426,1128.041,915.1426,1116.041,927.1426,1013.2974,927.1426,1001.2974,915.1426,1013.2974,903.1426" style="stroke:#181818;stroke-width:0.5;"/><text fill="#000000" font-family="sans-serif" font-size="11" lengthAdjust="spacing" textLength="13.4546" x="1068.6692" y="938.5615">Ya</text><text fill="#000000" font-family="sans-serif" font-size="11" lengthAdjust="spacing" textLength="102.7437" x="1013.2974" y="919.6436">Pelanggan terdaftar?</text><text fill="#000000" font-family="sans-serif" font-size="11" lengthAdjust="spacing" textLength="26.8984" x="1128.041" y="912.7256">Tidak</text><polygon fill="#F1F1F1" points="1064.6692,1124.9512,1076.6692,1136.9512,1064.6692,1148.9512,1052.6692,1136.9512,1064.6692,1124.9512" style="stroke:#181818;stroke-width:0.5;"/><rect fill="#F1F1F1" height="35.0938" rx="12.5" ry="12.5" style="stroke:#181818;stroke-width:0.5;" width="210.7461" x="959.2961" y="1168.9512"/><text fill="#000000" font-family="sans-serif" font-size="12" lengthAdjust="spacing" textLength="190.7461" x="969.2961" y="1191.4082">Kirim notifikasi (Pelunasan berhasil)</text><line style="stroke:#000000;stroke-width:1.5;" x1="735.8472" x2="735.8472" y1="12.4551" y2="1394.0566"/><line style="stroke:#000000;stroke-width:1.5;" x1="1355.1482" x2="1355.1482" y1="12.4551" y2="1394.0566"/><line style="stroke:#181818;stroke-width:1.0;" x1="281.1145" x2="281.1145" y1="60.0957" y2="80.0957"/><polygon fill="#181818" points="277.1145,70.0957,281.1145,80.0957,285.1145,70.0957,281.1145,74.0957" style="stroke:#181818;stroke-width:1.0;"/><line style="stroke:#181818;stroke-width:1.0;" x1="281.1145" x2="281.1145" y1="115.1895" y2="135.1895"/><polygon fill="#181818" points="277.1145,125.1895,281.1145,135.1895,285.1145,125.1895,281.1145,129.1895" style="stroke:#181818;stroke-width:1.0;"/><line style="stroke:#181818;stroke-width:1.0;" x1="281.1145" x2="281.1145" y1="170.2832" y2="190.2832"/><polygon fill="#181818" points="277.1145,180.2832,281.1145,190.2832,285.1145,180.2832,281.1145,184.2832" style="stroke:#181818;stroke-width:1.0;"/><line style="stroke:#181818;stroke-width:1.0;" x1="281.1145" x2="281.1145" y1="225.377" y2="245.377"/><polygon fill="#181818" points="277.1145,235.377,281.1145,245.377,285.1145,235.377,281.1145,239.377" style="stroke:#181818;stroke-width:1.0;"/><line style="stroke:#181818;stroke-width:1.0;" x1="247.7107" x2="124.0439" y1="485.6738" y2="485.6738"/><line style="stroke:#181818;stroke-width:1.0;" x1="124.0439" x2="124.0439" y1="485.6738" y2="517.6738"/><polygon fill="#181818" points="120.0439,507.6738,124.0439,517.6738,128.0439,507.6738,124.0439,511.6738" style="stroke:#181818;stroke-width:1.0;"/><line style="stroke:#181818;stroke-width:1.0;" x1="314.5183" x2="438.1851" y1="485.6738" y2="485.6738"/><line style="stroke:#181818;stroke-width:1.0;" x1="438.1851" x2="438.1851" y1="485.6738" y2="517.6738"/><polygon fill="#181818" points="434.1851,507.6738,438.1851,517.6738,442.1851,507.6738,438.1851,511.6738" style="stroke:#181818;stroke-width:1.0;"/><line style="stroke:#181818;stroke-width:1.0;" x1="438.1851" x2="438.1851" y1="552.7676" y2="705.8613"/><line style="stroke:#181818;stroke-width:1.0;" x1="438.1851" x2="293.1145" y1="705.8613" y2="705.8613"/><polygon fill="#181818" points="303.1145,701.8613,293.1145,705.8613,303.1145,709.8613,299.1145,705.8613" style="stroke:#181818;stroke-width:1.0;"/><line style="stroke:#181818;stroke-width:1.0;" x1="281.1145" x2="281.1145" y1="453.6738" y2="473.6738"/><polygon fill="#181818" points="277.1145,463.6738,281.1145,473.6738,285.1145,463.6738,281.1145,467.6738" style="stroke:#181818;stroke-width:1.0;"/><line style="stroke:#181818;stroke-width:1.0;" x1="281.1145" x2="281.1145" y1="717.8613" y2="737.8613"/><polygon fill="#181818" points="277.1145,727.8613,281.1145,737.8613,285.1145,727.8613,281.1145,731.8613" style="stroke:#181818;stroke-width:1.0;"/><line style="stroke:#181818;stroke-width:1.0;" x1="281.1145" x2="281.1145" y1="1248.0449" y2="1272.9629"/><polygon fill="#181818" points="277.1145,1262.9629,281.1145,1272.9629,285.1145,1262.9629,281.1145,1266.9629" style="stroke:#181818;stroke-width:1.0;"/><line style="stroke:#181818;stroke-width:1.0;" x1="323.9875" x2="371.1545" y1="1236.0449" y2="1236.0449"/><polygon fill="#181818" points="367.1545,1280.5098,371.1545,1290.5098,375.1545,1280.5098,371.1545,1284.5098" style="stroke:#181818;stroke-width:1.0;"/><line style="stroke:#181818;stroke-width:1.0;" x1="371.1545" x2="371.1545" y1="1236.0449" y2="1340.0566"/><line style="stroke:#181818;stroke-width:1.0;" x1="371.1545" x2="293.1145" y1="1340.0566" y2="1340.0566"/><polygon fill="#181818" points="303.1145,1336.0566,293.1145,1340.0566,303.1145,1344.0566,299.1145,1340.0566" style="stroke:#181818;stroke-width:1.0;"/><line style="stroke:#181818;stroke-width:1.0;" x1="281.1145" x2="281.1145" y1="1308.0566" y2="1328.0566"/><polygon fill="#181818" points="277.1145,1318.0566,281.1145,1328.0566,285.1145,1318.0566,281.1145,1322.0566" style="stroke:#181818;stroke-width:1.0;"/><line style="stroke:#181818;stroke-width:1.0;" x1="281.1145" x2="281.1145" y1="1352.0566" y2="1372.0566"/><polygon fill="#181818" points="277.1145,1362.0566,281.1145,1372.0566,285.1145,1362.0566,281.1145,1366.0566" style="stroke:#181818;stroke-width:1.0;"/><line style="stroke:#181818;stroke-width:1.0;" x1="1002.978" x2="1002.978" y1="641.8613" y2="661.8613"/><polygon fill="#181818" points="998.978,651.8613,1002.978,661.8613,1006.978,651.8613,1002.978,655.8613" style="stroke:#181818;stroke-width:1.0;"/><line style="stroke:#181818;stroke-width:1.0;" x1="840.5583" x2="812.2192" y1="584.7676" y2="584.7676"/><line style="stroke:#181818;stroke-width:1.0;" x1="812.2192" x2="812.2192" y1="584.7676" y2="606.7676"/><polygon fill="#181818" points="808.2192,596.7676,812.2192,606.7676,816.2192,596.7676,812.2192,600.7676" style="stroke:#181818;stroke-width:1.0;"/><line style="stroke:#181818;stroke-width:1.0;" x1="974.6389" x2="1002.978" y1="584.7676" y2="584.7676"/><line style="stroke:#181818;stroke-width:1.0;" x1="1002.978" x2="1002.978" y1="584.7676" y2="606.7676"/><polygon fill="#181818" points="998.978,596.7676,1002.978,606.7676,1006.978,596.7676,1002.978,600.7676" style="stroke:#181818;stroke-width:1.0;"/><line style="stroke:#181818;stroke-width:1.0;" x1="812.2192" x2="812.2192" y1="641.8613" y2="688.8613"/><line style="stroke:#181818;stroke-width:1.0;" x1="812.2192" x2="251.1145" y1="688.8613" y2="688.8613"/><line style="stroke:#181818;stroke-width:1.0;" x1="251.1145" x2="251.1145" y1="688.8613" y2="705.8613"/><line style="stroke:#181818;stroke-width:1.0;" x1="251.1145" x2="269.1145" y1="705.8613" y2="705.8613"/><polygon fill="#181818" points="259.1145,701.8613,269.1145,705.8613,259.1145,709.8613,263.1145,705.8613" style="stroke:#181818;stroke-width:1.0;"/><line style="stroke:#181818;stroke-width:1.0;" x1="1064.6692" x2="1064.6692" y1="828.0488" y2="848.0488"/><polygon fill="#181818" points="1060.6692,838.0488,1064.6692,848.0488,1068.6692,838.0488,1064.6692,842.0488" style="stroke:#181818;stroke-width:1.0;"/><line style="stroke:#181818;stroke-width:1.0;" x1="1064.6692" x2="1064.6692" y1="990.959" y2="1014.7637"/><polygon fill="#181818" points="1060.6692,1004.7637,1064.6692,1014.7637,1068.6692,1004.7637,1064.6692,1008.7637" style="stroke:#181818;stroke-width:1.0;"/><line style="stroke:#181818;stroke-width:1.0;" x1="1064.6692" x2="1064.6692" y1="1049.8574" y2="1069.8574"/><polygon fill="#181818" points="1060.6692,1059.8574,1064.6692,1069.8574,1068.6692,1059.8574,1064.6692,1063.8574" style="stroke:#181818;stroke-width:1.0;"/><line style="stroke:#181818;stroke-width:1.0;" x1="1064.6692" x2="1064.6692" y1="927.1426" y2="955.8652"/><polygon fill="#181818" points="1060.6692,945.8652,1064.6692,955.8652,1068.6692,945.8652,1064.6692,949.8652" style="stroke:#181818;stroke-width:1.0;"/><line style="stroke:#181818;stroke-width:1.0;" x1="1128.041" x2="1336.1482" y1="915.1426" y2="915.1426"/><polygon fill="#181818" points="1332.1482,1018.5059,1336.1482,1028.5059,1340.1482,1018.5059,1336.1482,1022.5059" style="stroke:#181818;stroke-width:1.0;"/><line style="stroke:#181818;stroke-width:1.0;" x1="1336.1482" x2="1336.1482" y1="915.1426" y2="1136.9512"/><line style="stroke:#181818;stroke-width:1.0;" x1="1336.1482" x2="1076.6692" y1="1136.9512" y2="1136.9512"/><polygon fill="#181818" points="1086.6692,1132.9512,1076.6692,1136.9512,1086.6692,1140.9512,1082.6692,1136.9512" style="stroke:#181818;stroke-width:1.0;"/><line style="stroke:#181818;stroke-width:1.0;" x1="1064.6692" x2="1064.6692" y1="1104.9512" y2="1124.9512"/><polygon fill="#181818" points="1060.6692,1114.9512,1064.6692,1124.9512,1068.6692,1114.9512,1064.6692,1118.9512" style="stroke:#181818;stroke-width:1.0;"/><line style="stroke:#181818;stroke-width:1.0;" x1="1064.6692" x2="1064.6692" y1="883.1426" y2="903.1426"/><polygon fill="#181818" points="1060.6692,893.1426,1064.6692,903.1426,1068.6692,893.1426,1064.6692,897.1426" style="stroke:#181818;stroke-width:1.0;"/><line style="stroke:#181818;stroke-width:1.0;" x1="1064.6692" x2="1064.6692" y1="1148.9512" y2="1168.9512"/><polygon fill="#181818" points="1060.6692,1158.9512,1064.6692,1168.9512,1068.6692,1158.9512,1064.6692,1162.9512" style="stroke:#181818;stroke-width:1.0;"/><line style="stroke:#181818;stroke-width:1.0;" x1="281.1145" x2="281.1145" y1="280.4707" y2="291.2246"/><line style="stroke:#181818;stroke-width:1.0;" x1="281.1145" x2="1064.6692" y1="291.2246" y2="291.2246"/><line style="stroke:#181818;stroke-width:1.0;" x1="1064.6692" x2="1064.6692" y1="291.2246" y2="326.9785"/><polygon fill="#181818" points="1060.6692,316.9785,1064.6692,326.9785,1068.6692,316.9785,1064.6692,320.9785" style="stroke:#181818;stroke-width:1.0;"/><line style="stroke:#181818;stroke-width:1.0;" x1="1064.6692" x2="1064.6692" y1="362.0723" y2="397.8262"/><line style="stroke:#181818;stroke-width:1.0;" x1="1064.6692" x2="281.1145" y1="397.8262" y2="397.8262"/><line style="stroke:#181818;stroke-width:1.0;" x1="281.1145" x2="281.1145" y1="397.8262" y2="418.5801"/><polygon fill="#181818" points="277.1145,408.5801,281.1145,418.5801,285.1145,408.5801,281.1145,412.5801" style="stroke:#181818;stroke-width:1.0;"/><line style="stroke:#181818;stroke-width:1.0;" x1="124.0439" x2="124.0439" y1="552.7676" y2="557.7676"/><line style="stroke:#181818;stroke-width:1.0;" x1="124.0439" x2="907.5986" y1="557.7676" y2="557.7676"/><line style="stroke:#181818;stroke-width:1.0;" x1="907.5986" x2="907.5986" y1="557.7676" y2="572.7676"/><polygon fill="#181818" points="903.5986,562.7676,907.5986,572.7676,911.5986,562.7676,907.5986,566.7676" style="stroke:#181818;stroke-width:1.0;"/><line style="stroke:#181818;stroke-width:1.0;" x1="281.1145" x2="281.1145" y1="772.9551" y2="777.9551"/><line style="stroke:#181818;stroke-width:1.0;" x1="281.1145" x2="1064.6692" y1="777.9551" y2="777.9551"/><line style="stroke:#181818;stroke-width:1.0;" x1="1064.6692" x2="1064.6692" y1="777.9551" y2="792.9551"/><polygon fill="#181818" points="1060.6692,782.9551,1064.6692,792.9551,1068.6692,782.9551,1064.6692,786.9551" style="stroke:#181818;stroke-width:1.0;"/><line style="stroke:#181818;stroke-width:1.0;" x1="1064.6692" x2="1064.6692" y1="1204.0449" y2="1209.0449"/><line style="stroke:#181818;stroke-width:1.0;" x1="1064.6692" x2="281.1145" y1="1209.0449" y2="1209.0449"/><line style="stroke:#181818;stroke-width:1.0;" x1="281.1145" x2="281.1145" y1="1209.0449" y2="1224.0449"/><polygon fill="#181818" points="277.1145,1214.0449,281.1145,1224.0449,285.1145,1214.0449,281.1145,1218.0449" style="stroke:#181818;stroke-width:1.0;"/><text fill="#000000" font-family="sans-serif" font-size="18" lengthAdjust="spacing" textLength="41.0098" x="354.9187" y="31.1406">Kasir</text><text fill="#000000" font-family="sans-serif" font-size="18" lengthAdjust="spacing" textLength="55.0107" x="1017.9923" y="31.1406">Sistem</text><!--SRC=[TLF1Rjim3BtxAtXCW7PBhpQw7J8CAB8KMTCUTcHYEUOiIuOaRmYGZnyfENQCTZaO2FNqoFVuTDcW9tV9V40NidohsaFV8DIeiKK3hmwDnyPJaUNVIGVbW96XzpcyeJd1bi555k-HfXh25GzdESQ6EKhIlS58iT7KGB3jmMhuCHIpovvyKEr5M0os7UbuImKaFH4McR51WQDJ7JA09rFPwJ3doZqyszOw8FF7qb6b2ek0JccUvOGcbbvjGAR54zL3PT-NMFEK1poZWyMttJALoUE8KwO4wS_J3eQDabiLRAcuIni9qB0agc2nZVMlImYrCh1uPRaap01o5NtVYCpVVQkvUozkbSJ-Kik62Yf-Hc_aZx16rxyyWh-PRkpn2rE3eOavrHHwnZSocoOPJOwKzee7eXARENuqlrEUlqtlf5kKLOn07soNQ4n9LHerCJvRStyZy-hKLN9qwyZp6gLdTWbWjbpvhHCmXvylJ_kx5CHAkJiejRwsJoj9SqoBsLXJaME7ILOlAOixcSNiJ6qd8SE0ir7ojuvhQWZvJS1IN8VLxgw90bvOYHM_dNSxkFM_isJIWoZPz0x3VpJl1FSuHFGpFAm-hLQhuMpna6WwVe8ltN2sd3inxV70cHhWmwYfPRvcnO6R_cN58KAAR9Q7mSryGnn5eQMA6l5IL2SpuQ1SpIMzB2RRnPSrlzc6lNDzyw4Vn-dyTZKVzOyf-mS0]--></g></svg>