<svg xmlns="http://www.w3.org/2000/svg" xmlns:xlink="http://www.w3.org/1999/xlink" contentStyleType="text/css" height="655px" preserveAspectRatio="none" style="width:496px;height:655px;background:#FFFFFF;" version="1.1" viewBox="0 0 496 655" width="496px" zoomAndPan="magnify"><title>Activity Diagram</title><defs/><g><text fill="#000000" font-family="sans-serif" font-size="14" font-weight="bold" lengthAdjust="spacing" textLength="110.4824" x="191.7012" y="34.5332">Activity Diagram</text><text fill="#000000" font-family="sans-serif" font-size="14" font-weight="bold" lengthAdjust="spacing" textLength="199.9717" x="146.9565" y="52.1426">Mengelola Peran &amp; Hak Akses</text><ellipse cx="248.7896" cy="76.2188" fill="#222222" rx="10" ry="10" style="stroke:#222222;stroke-width:1.0;"/><rect fill="#F1F1F1" height="35.0938" rx="12.5" ry="12.5" style="stroke:#181818;stroke-width:0.5;" width="202.1035" x="147.7378" y="106.2188"/><text fill="#000000" font-family="sans-serif" font-size="12" lengthAdjust="spacing" textLength="182.1035" x="157.7378" y="128.6758">Admin mengakses halaman peran</text><rect fill="#F1F1F1" height="35.0938" rx="12.5" ry="12.5" style="stroke:#181818;stroke-width:0.5;" width="199.4199" x="149.0796" y="161.3125"/><text fill="#000000" font-family="sans-serif" font-size="12" lengthAdjust="spacing" textLength="179.4199" x="159.0796" y="183.7695">Sistem menampilkan daftar peran</text><polygon fill="#F1F1F1" points="235.3403,216.4063,262.2388,216.4063,274.2388,228.4063,262.2388,240.4063,235.3403,240.4063,223.3403,228.4063,235.3403,216.4063" style="stroke:#181818;stroke-width:0.5;"/><text fill="#000000" font-family="sans-serif" font-size="11" lengthAdjust="spacing" textLength="26.8984" x="235.3403" y="232.9072">Aksi?</text><text fill="#000000" font-family="sans-serif" font-size="11" lengthAdjust="spacing" textLength="72.7622" x="150.5781" y="225.9893">Tambah Peran</text><text fill="#000000" font-family="sans-serif" font-size="11" lengthAdjust="spacing" textLength="77.6338" x="274.2388" y="225.9893">Atur Permission</text><rect fill="#F1F1F1" height="35.0938" rx="12.5" ry="12.5" style="stroke:#181818;stroke-width:0.5;" width="156.0781" x="47.6943" y="250.4063"/><text fill="#000000" font-family="sans-serif" font-size="12" lengthAdjust="spacing" textLength="136.0781" x="57.6943" y="272.8633">Mengisi nama peran baru</text><rect fill="#F1F1F1" height="35.0938" rx="12.5" ry="12.5" style="stroke:#181818;stroke-width:0.5;" width="229.4668" x="11" y="305.5"/><text fill="#000000" font-family="sans-serif" font-size="12" lengthAdjust="spacing" textLength="209.4668" x="21" y="327.957">Menentukan batas maksimal pengguna</text><rect fill="#F1F1F1" height="35.0938" rx="12.5" ry="12.5" style="stroke:#181818;stroke-width:0.5;" width="116.0527" x="67.707" y="360.5938"/><text fill="#000000" font-family="sans-serif" font-size="12" lengthAdjust="spacing" textLength="96.0527" x="77.707" y="383.0508">Menyimpan peran</text><rect fill="#F1F1F1" height="35.0938" rx="12.5" ry="12.5" style="stroke:#181818;stroke-width:0.5;" width="95.3633" x="324.1641" y="250.4063"/><text fill="#000000" font-family="sans-serif" font-size="12" lengthAdjust="spacing" textLength="75.3633" x="334.1641" y="272.8633">Memilih peran</text><rect fill="#F1F1F1" height="35.0938" rx="12.5" ry="12.5" style="stroke:#181818;stroke-width:0.5;" width="222.7578" x="260.4668" y="305.5"/><text fill="#000000" font-family="sans-serif" font-size="12" lengthAdjust="spacing" textLength="202.7578" x="270.4668" y="327.957">Sistem menampilkan daftar hak akses</text><rect fill="#F1F1F1" height="35.0938" rx="12.5" ry="12.5" style="stroke:#181818;stroke-width:0.5;" width="174.0781" x="284.8066" y="415.6875"/><text fill="#000000" font-family="sans-serif" font-size="12" lengthAdjust="spacing" textLength="154.0781" x="294.8066" y="438.1445">Pilih/Hapus hak akses modul</text><polygon fill="#F1F1F1" points="371.8457,360.5938,383.8457,372.5938,371.8457,384.5938,359.8457,372.5938,371.8457,360.5938" style="stroke:#181818;stroke-width:0.5;"/><polygon fill="#F1F1F1" points="321.0808,470.7813,422.6106,470.7813,434.6106,482.7813,422.6106,494.7813,321.0808,494.7813,309.0808,482.7813,321.0808,470.7813" style="stroke:#181818;stroke-width:0.5;"/><text fill="#000000" font-family="sans-serif" font-size="11" lengthAdjust="spacing" textLength="101.5298" x="321.0808" y="487.2822">Ada perubahan lain?</text><text fill="#000000" font-family="sans-serif" font-size="11" lengthAdjust="spacing" textLength="13.4546" x="434.6106" y="480.3643">Ya</text><rect fill="#F1F1F1" height="35.0938" rx="12.5" ry="12.5" style="stroke:#181818;stroke-width:0.5;" width="179.416" x="282.1377" y="537.0342"/><text fill="#000000" font-family="sans-serif" font-size="12" lengthAdjust="spacing" textLength="159.416" x="292.1377" y="559.4912">Simpan konfigurasi hak akses</text><polygon fill="#F1F1F1" points="248.7896,578.1279,260.7896,590.1279,248.7896,602.1279,236.7896,590.1279,248.7896,578.1279" style="stroke:#181818;stroke-width:0.5;"/><ellipse cx="248.7896" cy="633.1279" fill="none" rx="11" ry="11" style="stroke:#222222;stroke-width:1.0;"/><ellipse cx="248.7896" cy="633.1279" fill="#222222" rx="6" ry="6" style="stroke:#222222;stroke-width:1.0;"/><line style="stroke:#181818;stroke-width:1.0;" x1="248.7896" x2="248.7896" y1="86.2188" y2="106.2188"/><polygon fill="#181818" points="244.7896,96.2188,248.7896,106.2188,252.7896,96.2188,248.7896,100.2188" style="stroke:#181818;stroke-width:1.0;"/><line style="stroke:#181818;stroke-width:1.0;" x1="248.7896" x2="248.7896" y1="141.3125" y2="161.3125"/><polygon fill="#181818" points="244.7896,151.3125,248.7896,161.3125,252.7896,151.3125,248.7896,155.3125" style="stroke:#181818;stroke-width:1.0;"/><line style="stroke:#181818;stroke-width:1.0;" x1="125.7334" x2="125.7334" y1="285.5" y2="305.5"/><polygon fill="#181818" points="121.7334,295.5,125.7334,305.5,129.7334,295.5,125.7334,299.5" style="stroke:#181818;stroke-width:1.0;"/><line style="stroke:#181818;stroke-width:1.0;" x1="125.7334" x2="125.7334" y1="340.5938" y2="360.5938"/><polygon fill="#181818" points="121.7334,350.5938,125.7334,360.5938,129.7334,350.5938,125.7334,354.5938" style="stroke:#181818;stroke-width:1.0;"/><line style="stroke:#181818;stroke-width:1.0;" x1="371.8457" x2="371.8457" y1="285.5" y2="305.5"/><polygon fill="#181818" points="367.8457,295.5,371.8457,305.5,375.8457,295.5,371.8457,299.5" style="stroke:#181818;stroke-width:1.0;"/><line style="stroke:#181818;stroke-width:1.0;" x1="371.8457" x2="371.8457" y1="384.5938" y2="415.6875"/><polygon fill="#181818" points="367.8457,405.6875,371.8457,415.6875,375.8457,405.6875,371.8457,409.6875" style="stroke:#181818;stroke-width:1.0;"/><line style="stroke:#181818;stroke-width:1.0;" x1="434.6106" x2="470.8848" y1="482.7813" y2="482.7813"/><polygon fill="#181818" points="466.8848,443.2344,470.8848,433.2344,474.8848,443.2344,470.8848,439.2344" style="stroke:#181818;stroke-width:1.0;"/><line style="stroke:#181818;stroke-width:1.0;" x1="470.8848" x2="470.8848" y1="372.5938" y2="482.7813"/><line style="stroke:#181818;stroke-width:1.0;" x1="470.8848" x2="383.8457" y1="372.5938" y2="372.5938"/><polygon fill="#181818" points="393.8457,368.5938,383.8457,372.5938,393.8457,376.5938,389.8457,372.5938" style="stroke:#181818;stroke-width:1.0;"/><line style="stroke:#181818;stroke-width:1.0;" x1="371.8457" x2="371.8457" y1="450.7813" y2="470.7813"/><polygon fill="#181818" points="367.8457,460.7813,371.8457,470.7813,375.8457,460.7813,371.8457,464.7813" style="stroke:#181818;stroke-width:1.0;"/><line style="stroke:#181818;stroke-width:1.0;" x1="371.8457" x2="371.8457" y1="340.5938" y2="360.5938"/><polygon fill="#181818" points="367.8457,350.5938,371.8457,360.5938,375.8457,350.5938,371.8457,354.5938" style="stroke:#181818;stroke-width:1.0;"/><line style="stroke:#181818;stroke-width:1.0;" x1="371.8457" x2="371.8457" y1="494.7813" y2="537.0342"/><polygon fill="#181818" points="367.8457,527.0342,371.8457,537.0342,375.8457,527.0342,371.8457,531.0342" style="stroke:#181818;stroke-width:1.0;"/><text fill="#000000" font-family="sans-serif" font-size="11" lengthAdjust="spacing" textLength="26.8984" x="375.8457" y="517.1172">Tidak</text><line style="stroke:#181818;stroke-width:1.0;" x1="223.3403" x2="125.7334" y1="228.4063" y2="228.4063"/><line style="stroke:#181818;stroke-width:1.0;" x1="125.7334" x2="125.7334" y1="228.4063" y2="250.4063"/><polygon fill="#181818" points="121.7334,240.4063,125.7334,250.4063,129.7334,240.4063,125.7334,244.4063" style="stroke:#181818;stroke-width:1.0;"/><line style="stroke:#181818;stroke-width:1.0;" x1="274.2388" x2="371.8457" y1="228.4063" y2="228.4063"/><line style="stroke:#181818;stroke-width:1.0;" x1="371.8457" x2="371.8457" y1="228.4063" y2="250.4063"/><polygon fill="#181818" points="367.8457,240.4063,371.8457,250.4063,375.8457,240.4063,371.8457,244.4063" style="stroke:#181818;stroke-width:1.0;"/><line style="stroke:#181818;stroke-width:1.0;" x1="125.7334" x2="125.7334" y1="395.6875" y2="590.1279"/><line style="stroke:#181818;stroke-width:1.0;" x1="125.7334" x2="236.7896" y1="590.1279" y2="590.1279"/><polygon fill="#181818" points="226.7896,586.1279,236.7896,590.1279,226.7896,594.1279,230.7896,590.1279" style="stroke:#181818;stroke-width:1.0;"/><line style="stroke:#181818;stroke-width:1.0;" x1="371.8457" x2="371.8457" y1="572.1279" y2="590.1279"/><line style="stroke:#181818;stroke-width:1.0;" x1="371.8457" x2="260.7896" y1="590.1279" y2="590.1279"/><polygon fill="#181818" points="270.7896,586.1279,260.7896,590.1279,270.7896,594.1279,266.7896,590.1279" style="stroke:#181818;stroke-width:1.0;"/><line style="stroke:#181818;stroke-width:1.0;" x1="248.7896" x2="248.7896" y1="196.4063" y2="216.4063"/><polygon fill="#181818" points="244.7896,206.4063,248.7896,216.4063,252.7896,206.4063,248.7896,210.4063" style="stroke:#181818;stroke-width:1.0;"/><line style="stroke:#181818;stroke-width:1.0;" x1="248.7896" x2="248.7896" y1="602.1279" y2="622.1279"/><polygon fill="#181818" points="244.7896,612.1279,248.7896,622.1279,252.7896,612.1279,248.7896,616.1279" style="stroke:#181818;stroke-width:1.0;"/><!--SRC=[TP6xQWD134Nx-GfLmIv2UXiI32dS10ns4qWZUxKxOfxC8y5_7yrix7MJhGRfIFVgRZRi8oPqW9V2trokHusH85mAJi4hLRXOWjrV4zuP9w6__0VvYMom20TAwE49zcXWPp9bfNB1LDHcDpZsu8J4LWUD5fsmiKrirUR8kP1h0Bh8raXhm55cRuJY4LQoaz_MK3HvM9tGdL7Fcci5ycsQ4yuCiWJdGJXZgjjxbtoffbSBPd3YXHrQGVqqLOyBU6KN5tjaCubwgQd9ESwPmwBfsBA-eRts_pLQaka9p6IYI5ZwimyUsggNFSQQ5nHS6Afz780VpROv6lgPLN8G2Oli9HtEiFh4sTtpwua7D7TR_IWJ_CXJJIX9FVWXF_0e_oj4zGi0]--></g></svg>