<svg xmlns="http://www.w3.org/2000/svg" xmlns:xlink="http://www.w3.org/1999/xlink" contentStyleType="text/css" height="1091px" preserveAspectRatio="none" style="width:1325px;height:1091px;background:#FFFFFF;" version="1.1" viewBox="0 0 1325 1091" width="1325px" zoomAndPan="magnify"><title>Activity Diagram</title><defs/><g><text fill="#000000" font-family="sans-serif" font-size="14" font-weight="bold" lengthAdjust="spacing" textLength="110.4824" x="605.8516" y="34.5332">Activity Diagram</text><text fill="#000000" font-family="sans-serif" font-size="14" font-weight="bold" lengthAdjust="spacing" textLength="182.8066" x="569.6895" y="52.1426">Penggunaan Poin Loyalitas</text><ellipse cx="870.4888" cy="76.2188" fill="#222222" rx="10" ry="10" style="stroke:#222222;stroke-width:1.0;"/><rect fill="#F1F1F1" height="35.0938" rx="12.5" ry="12.5" style="stroke:#181818;stroke-width:0.5;" width="224.0996" x="758.439" y="106.2188"/><text fill="#000000" font-family="sans-serif" font-size="12" lengthAdjust="spacing" textLength="204.0996" x="768.439" y="128.6758">Kasir memproses transaksi pelanggan</text><rect fill="#F1F1F1" height="35.0938" rx="12.5" ry="12.5" style="stroke:#181818;stroke-width:0.5;" width="228.7988" x="756.0894" y="161.3125"/><text fill="#000000" font-family="sans-serif" font-size="12" lengthAdjust="spacing" textLength="208.7988" x="766.0894" y="183.7695">Sistem cek apakah pelanggan terdaftar</text><path d="M933.8606,206.4063 L933.8606,298.1641 L1154.907,298.1641 L1154.907,216.4063 L1144.907,206.4063 L933.8606,206.4063 " fill="#FEFFDD" style="stroke:#181818;stroke-width:0.5;"/><path d="M1144.907,206.4063 L1144.907,216.4063 L1154.907,216.4063 L1144.907,206.4063 " fill="#FEFFDD" style="stroke:#181818;stroke-width:0.5;"/><text fill="#000000" font-family="sans-serif" font-size="13" font-weight="bold" lengthAdjust="spacing" textLength="159.6118" x="939.8606" y="224.9014">Aturan Penggunaan Poin:</text><text fill="#000000" font-family="sans-serif" font-size="13" lengthAdjust="spacing" textLength="142.2383" x="939.8606" y="241.2529">&#8226; 1 poin = Rp 100 diskon</text><text fill="#000000" font-family="sans-serif" font-size="13" lengthAdjust="spacing" textLength="145.4819" x="939.8606" y="257.6045">&#8226; Harus kelipatan 10 poin</text><text fill="#000000" font-family="sans-serif" font-size="13" lengthAdjust="spacing" textLength="184.0313" x="939.8606" y="273.9561">&#8226; Maksimal = sisa tagihan &#247; 100</text><text fill="#000000" font-family="sans-serif" font-size="13" lengthAdjust="spacing" textLength="200.0464" x="939.8606" y="290.3076">&#8226; Tidak boleh &gt; saldo poin tersedia</text><polygon fill="#F1F1F1" points="819.1169,298.1641,921.8606,298.1641,933.8606,310.1641,921.8606,322.1641,819.1169,322.1641,807.1169,310.1641,819.1169,298.1641" style="stroke:#181818;stroke-width:0.5;"/><text fill="#000000" font-family="sans-serif" font-size="11" lengthAdjust="spacing" textLength="102.7437" x="819.1169" y="314.665">Pelanggan terdaftar?</text><text fill="#000000" font-family="sans-serif" font-size="11" lengthAdjust="spacing" textLength="13.4546" x="793.6624" y="307.7471">Ya</text><text fill="#000000" font-family="sans-serif" font-size="11" lengthAdjust="spacing" textLength="26.8984" x="933.8606" y="307.7471">Tidak</text><rect fill="#F1F1F1" height="35.0938" rx="12.5" ry="12.5" style="stroke:#181818;stroke-width:0.5;" width="228.7988" x="422.793" y="332.1641"/><text fill="#000000" font-family="sans-serif" font-size="12" lengthAdjust="spacing" textLength="208.7988" x="432.793" y="354.6211">Sistem tampilkan saldo poin pelanggan</text><rect fill="#F1F1F1" height="35.0938" rx="12.5" ry="12.5" style="stroke:#181818;stroke-width:0.5;" width="229.4727" x="422.4561" y="387.2578"/><text fill="#000000" font-family="sans-serif" font-size="12" lengthAdjust="spacing" textLength="209.4727" x="432.4561" y="409.7148">Kasir input jumlah poin yang digunakan</text><rect fill="#F1F1F1" height="35.0938" rx="12.5" ry="12.5" style="stroke:#181818;stroke-width:0.5;" width="155.4043" x="459.4902" y="442.3516"/><text fill="#000000" font-family="sans-serif" font-size="12" lengthAdjust="spacing" textLength="135.4043" x="469.4902" y="464.8086">Sistem validasi input poin</text><polygon fill="#F1F1F1" points="41.1167,497.4453,184.8149,497.4453,196.8149,509.4453,184.8149,521.4453,41.1167,521.4453,29.1167,509.4453,41.1167,497.4453" style="stroke:#181818;stroke-width:0.5;"/><text fill="#000000" font-family="sans-serif" font-size="11" lengthAdjust="spacing" textLength="13.4546" x="116.9658" y="532.8643">Ya</text><text fill="#000000" font-family="sans-serif" font-size="11" lengthAdjust="spacing" textLength="143.6982" x="41.1167" y="513.9463">Poin melebihi saldo tersedia?</text><rect fill="#F1F1F1" height="35.0938" rx="12.5" ry="12.5" style="stroke:#181818;stroke-width:0.5;" width="203.9316" x="11" y="555.2813"/><text fill="#000000" font-family="sans-serif" font-size="12" lengthAdjust="spacing" textLength="183.9316" x="21" y="577.7383">Tampilkan error "Poin tidak cukup"</text><ellipse cx="112.9658" cy="625.293" fill="none" rx="11" ry="11" style="stroke:#222222;stroke-width:1.0;"/><ellipse cx="112.9658" cy="625.293" fill="#222222" rx="6" ry="6" style="stroke:#222222;stroke-width:1.0;"/><polygon fill="#F1F1F1" points="292.1536,497.4453,415.6941,497.4453,427.6941,509.4453,415.6941,521.4453,292.1536,521.4453,280.1536,509.4453,292.1536,497.4453" style="stroke:#181818;stroke-width:0.5;"/><text fill="#000000" font-family="sans-serif" font-size="11" lengthAdjust="spacing" textLength="13.4546" x="357.9238" y="532.8643">Ya</text><text fill="#000000" font-family="sans-serif" font-size="11" lengthAdjust="spacing" textLength="123.5405" x="292.1536" y="513.9463">Poin bukan kelipatan 10?</text><rect fill="#F1F1F1" height="35.0938" rx="12.5" ry="12.5" style="stroke:#181818;stroke-width:0.5;" width="238.1211" x="234.8633" y="555.2813"/><text fill="#000000" font-family="sans-serif" font-size="12" lengthAdjust="spacing" textLength="218.1211" x="244.8633" y="577.7383">Sistem otomatis bulatkan ke kelipatan 10</text><rect fill="#F1F1F1" height="35.0938" rx="12.5" ry="12.5" style="stroke:#181818;stroke-width:0.5;" width="257.9844" x="224.9316" y="614.293"/><text fill="#000000" font-family="sans-serif" font-size="12" lengthAdjust="spacing" textLength="237.9844" x="234.9316" y="636.75">Tampilkan warning "Poin harus kelipatan 10"</text><polygon fill="#F1F1F1" points="558.97,497.4453,780.2214,497.4453,792.2214,509.4453,780.2214,521.4453,558.97,521.4453,546.97,509.4453,558.97,497.4453" style="stroke:#181818;stroke-width:0.5;"/><text fill="#000000" font-family="sans-serif" font-size="11" lengthAdjust="spacing" textLength="13.4546" x="673.5957" y="532.8643">Ya</text><text fill="#000000" font-family="sans-serif" font-size="11" lengthAdjust="spacing" textLength="221.2515" x="558.97" y="513.9463">Poin melebihi maksimal (sisa tagihan &#247; 100)?</text><text fill="#000000" font-family="sans-serif" font-size="11" lengthAdjust="spacing" textLength="24.46" x="792.2214" y="507.0283">Valid</text><rect fill="#F1F1F1" height="35.0938" rx="12.5" ry="12.5" style="stroke:#181818;stroke-width:0.5;" width="223.4492" x="557.8711" y="555.2813"/><text fill="#000000" font-family="sans-serif" font-size="12" lengthAdjust="spacing" textLength="203.4492" x="567.8711" y="577.7383">Sistem batasi poin sesuai sisa tagihan</text><rect fill="#F1F1F1" height="35.0938" rx="12.5" ry="12.5" style="stroke:#181818;stroke-width:0.5;" width="333.3594" x="502.916" y="614.293"/><text fill="#000000" font-family="sans-serif" font-size="12" lengthAdjust="spacing" textLength="313.3594" x="512.916" y="636.75">Tampilkan warning "Poin tidak boleh melebihi sisa tagihan"</text><rect fill="#F1F1F1" height="35.0938" rx="12.5" ry="12.5" style="stroke:#181818;stroke-width:0.5;" width="217.1094" x="856.2754" y="551.3633"/><text fill="#000000" font-family="sans-serif" font-size="12" lengthAdjust="spacing" textLength="197.1094" x="866.2754" y="573.8203">Sistem hitung diskon (poin &#215; Rp 100)</text><rect fill="#F1F1F1" height="35.0938" rx="12.5" ry="12.5" style="stroke:#181818;stroke-width:0.5;" width="162.7637" x="883.4482" y="610.375"/><text fill="#000000" font-family="sans-serif" font-size="12" lengthAdjust="spacing" textLength="142.7637" x="893.4482" y="632.832">Tampilkan potongan harga</text><polygon fill="#F1F1F1" points="431.1025,689.3867,643.2822,689.3867,655.2822,701.3867,643.2822,713.3867,431.1025,713.3867,419.1025,701.3867,431.1025,689.3867" style="stroke:#181818;stroke-width:0.5;"/><text fill="#000000" font-family="sans-serif" font-size="11" lengthAdjust="spacing" textLength="212.1797" x="431.1025" y="705.8877">Kasir konfirmasi pembayaran dengan poin?</text><text fill="#000000" font-family="sans-serif" font-size="11" lengthAdjust="spacing" textLength="13.4546" x="405.6479" y="698.9697">Ya</text><text fill="#000000" font-family="sans-serif" font-size="11" lengthAdjust="spacing" textLength="25.0723" x="655.2822" y="698.9697">Batal</text><rect fill="#F1F1F1" height="35.0938" rx="12.5" ry="12.5" style="stroke:#181818;stroke-width:0.5;" width="216.7988" x="290.4395" y="723.3867"/><text fill="#000000" font-family="sans-serif" font-size="12" lengthAdjust="spacing" textLength="196.7988" x="300.4395" y="745.8438">Sistem kurangi saldo poin pelanggan</text><rect fill="#F1F1F1" height="35.0938" rx="12.5" ry="12.5" style="stroke:#181818;stroke-width:0.5;" width="292.6133" x="252.5322" y="778.4805"/><text fill="#000000" font-family="sans-serif" font-size="12" lengthAdjust="spacing" textLength="272.6133" x="262.5322" y="800.9375">Sistem catat ke PointsHistory (action: "Tukar Poin")</text><rect fill="#F1F1F1" height="35.0938" rx="12.5" ry="12.5" style="stroke:#181818;stroke-width:0.5;" width="255.4766" x="271.1006" y="833.5742"/><text fill="#000000" font-family="sans-serif" font-size="12" lengthAdjust="spacing" textLength="235.4766" x="281.1006" y="856.0313">Sistem update total transaksi dengan diskon</text><rect fill="#F1F1F1" height="35.0938" rx="12.5" ry="12.5" style="stroke:#181818;stroke-width:0.5;" width="213.4414" x="292.1182" y="888.668"/><text fill="#000000" font-family="sans-serif" font-size="12" lengthAdjust="spacing" textLength="193.4414" x="302.1182" y="911.125">Total bayar berkurang sesuai diskon</text><rect fill="#F1F1F1" height="35.0938" rx="12.5" ry="12.5" style="stroke:#181818;stroke-width:0.5;" width="264.8281" x="266.4248" y="943.7617"/><text fill="#000000" font-family="sans-serif" font-size="12" lengthAdjust="spacing" textLength="244.8281" x="276.4248" y="966.2188">Tampilkan struk dengan detail poin digunakan</text><rect fill="#F1F1F1" height="35.0938" rx="12.5" ry="12.5" style="stroke:#181818;stroke-width:0.5;" width="192.1367" x="579.4775" y="723.3867"/><text fill="#000000" font-family="sans-serif" font-size="12" lengthAdjust="spacing" textLength="172.1367" x="589.4775" y="745.8438">Kasir batalkan penggunaan poin</text><rect fill="#F1F1F1" height="35.0938" rx="12.5" ry="12.5" style="stroke:#181818;stroke-width:0.5;" width="150.7227" x="600.1846" y="778.4805"/><text fill="#000000" font-family="sans-serif" font-size="12" lengthAdjust="spacing" textLength="130.7227" x="610.1846" y="800.9375">Sistem reset diskon ke 0</text><rect fill="#F1F1F1" height="35.0938" rx="12.5" ry="12.5" style="stroke:#181818;stroke-width:0.5;" width="220.8008" x="565.1455" y="833.5742"/><text fill="#000000" font-family="sans-serif" font-size="12" lengthAdjust="spacing" textLength="200.8008" x="575.1455" y="856.0313">Lanjutkan transaksi tanpa diskon poin</text><polygon fill="#F1F1F1" points="537.1924,984.8555,549.1924,996.8555,537.1924,1008.8555,525.1924,996.8555,537.1924,984.8555" style="stroke:#181818;stroke-width:0.5;"/><rect fill="#F1F1F1" height="35.0938" rx="12.5" ry="12.5" style="stroke:#181818;stroke-width:0.5;" width="220.8008" x="1093.3848" y="332.1641"/><text fill="#000000" font-family="sans-serif" font-size="12" lengthAdjust="spacing" textLength="200.8008" x="1103.3848" y="354.6211">Lanjutkan transaksi tanpa diskon poin</text><polygon fill="#F1F1F1" points="870.4888,1014.8555,882.4888,1026.8555,870.4888,1038.8555,858.4888,1026.8555,870.4888,1014.8555" style="stroke:#181818;stroke-width:0.5;"/><ellipse cx="870.4888" cy="1069.8555" fill="none" rx="11" ry="11" style="stroke:#222222;stroke-width:1.0;"/><ellipse cx="870.4888" cy="1069.8555" fill="#222222" rx="6" ry="6" style="stroke:#222222;stroke-width:1.0;"/><line style="stroke:#181818;stroke-width:1.0;" x1="870.4888" x2="870.4888" y1="86.2188" y2="106.2188"/><polygon fill="#181818" points="866.4888,96.2188,870.4888,106.2188,874.4888,96.2188,870.4888,100.2188" style="stroke:#181818;stroke-width:1.0;"/><line style="stroke:#181818;stroke-width:1.0;" x1="870.4888" x2="870.4888" y1="141.3125" y2="161.3125"/><polygon fill="#181818" points="866.4888,151.3125,870.4888,161.3125,874.4888,151.3125,870.4888,155.3125" style="stroke:#181818;stroke-width:1.0;"/><line style="stroke:#181818;stroke-width:1.0;" x1="537.1924" x2="537.1924" y1="367.2578" y2="387.2578"/><polygon fill="#181818" points="533.1924,377.2578,537.1924,387.2578,541.1924,377.2578,537.1924,381.2578" style="stroke:#181818;stroke-width:1.0;"/><line style="stroke:#181818;stroke-width:1.0;" x1="537.1924" x2="537.1924" y1="422.3516" y2="442.3516"/><polygon fill="#181818" points="533.1924,432.3516,537.1924,442.3516,541.1924,432.3516,537.1924,436.3516" style="stroke:#181818;stroke-width:1.0;"/><line style="stroke:#181818;stroke-width:1.0;" x1="112.9658" x2="112.9658" y1="590.375" y2="614.293"/><polygon fill="#181818" points="108.9658,604.293,112.9658,614.293,116.9658,604.293,112.9658,608.293" style="stroke:#181818;stroke-width:1.0;"/><line style="stroke:#181818;stroke-width:1.0;" x1="353.9238" x2="353.9238" y1="590.375" y2="614.293"/><polygon fill="#181818" points="349.9238,604.293,353.9238,614.293,357.9238,604.293,353.9238,608.293" style="stroke:#181818;stroke-width:1.0;"/><line style="stroke:#181818;stroke-width:1.0;" x1="669.5957" x2="669.5957" y1="590.375" y2="614.293"/><polygon fill="#181818" points="665.5957,604.293,669.5957,614.293,673.5957,604.293,669.5957,608.293" style="stroke:#181818;stroke-width:1.0;"/><line style="stroke:#181818;stroke-width:1.0;" x1="964.8301" x2="964.8301" y1="586.457" y2="610.375"/><polygon fill="#181818" points="960.8301,600.375,964.8301,610.375,968.8301,600.375,964.8301,604.375" style="stroke:#181818;stroke-width:1.0;"/><line style="stroke:#181818;stroke-width:1.0;" x1="112.9658" x2="112.9658" y1="521.4453" y2="555.2813"/><polygon fill="#181818" points="108.9658,545.2813,112.9658,555.2813,116.9658,545.2813,112.9658,549.2813" style="stroke:#181818;stroke-width:1.0;"/><line style="stroke:#181818;stroke-width:1.0;" x1="353.9238" x2="353.9238" y1="521.4453" y2="555.2813"/><polygon fill="#181818" points="349.9238,545.2813,353.9238,555.2813,357.9238,545.2813,353.9238,549.2813" style="stroke:#181818;stroke-width:1.0;"/><line style="stroke:#181818;stroke-width:1.0;" x1="353.9238" x2="353.9238" y1="649.3867" y2="669.3867"/><polygon fill="#181818" points="349.9238,659.3867,353.9238,669.3867,357.9238,659.3867,353.9238,663.3867" style="stroke:#181818;stroke-width:1.0;"/><line style="stroke:#181818;stroke-width:1.0;" x1="669.5957" x2="669.5957" y1="521.4453" y2="555.2813"/><polygon fill="#181818" points="665.5957,545.2813,669.5957,555.2813,673.5957,545.2813,669.5957,549.2813" style="stroke:#181818;stroke-width:1.0;"/><line style="stroke:#181818;stroke-width:1.0;" x1="669.5957" x2="669.5957" y1="649.3867" y2="669.3867"/><polygon fill="#181818" points="665.5957,659.3867,669.5957,669.3867,673.5957,659.3867,669.5957,663.3867" style="stroke:#181818;stroke-width:1.0;"/><line style="stroke:#181818;stroke-width:1.0;" x1="196.8149" x2="280.1536" y1="509.4453" y2="509.4453"/><polygon fill="#181818" points="270.1536,505.4453,280.1536,509.4453,270.1536,513.4453,274.1536,509.4453" style="stroke:#181818;stroke-width:1.0;"/><line style="stroke:#181818;stroke-width:1.0;" x1="427.6941" x2="546.97" y1="509.4453" y2="509.4453"/><polygon fill="#181818" points="536.97,505.4453,546.97,509.4453,536.97,513.4453,540.97,509.4453" style="stroke:#181818;stroke-width:1.0;"/><line style="stroke:#181818;stroke-width:1.0;" x1="537.1924" x2="537.1924" y1="477.4453" y2="482.4453"/><line style="stroke:#181818;stroke-width:1.0;" x1="537.1924" x2="112.9658" y1="482.4453" y2="482.4453"/><line style="stroke:#181818;stroke-width:1.0;" x1="112.9658" x2="112.9658" y1="482.4453" y2="497.4453"/><polygon fill="#181818" points="108.9658,487.4453,112.9658,497.4453,116.9658,487.4453,112.9658,491.4453" style="stroke:#181818;stroke-width:1.0;"/><line style="stroke:#181818;stroke-width:1.0;" x1="792.2214" x2="964.8301" y1="509.4453" y2="509.4453"/><line style="stroke:#181818;stroke-width:1.0;" x1="964.8301" x2="964.8301" y1="509.4453" y2="551.3633"/><polygon fill="#181818" points="960.8301,541.3633,964.8301,551.3633,968.8301,541.3633,964.8301,545.3633" style="stroke:#181818;stroke-width:1.0;"/><line style="stroke:#181818;stroke-width:1.0;" x1="964.8301" x2="964.8301" y1="645.4688" y2="669.3867"/><polygon fill="#181818" points="960.8301,659.3867,964.8301,669.3867,968.8301,659.3867,964.8301,663.3867" style="stroke:#181818;stroke-width:1.0;"/><line style="stroke:#181818;stroke-width:1.0;" x1="353.9238" x2="964.8301" y1="669.3867" y2="669.3867"/><line style="stroke:#181818;stroke-width:1.0;" x1="398.8389" x2="398.8389" y1="758.4805" y2="778.4805"/><polygon fill="#181818" points="394.8389,768.4805,398.8389,778.4805,402.8389,768.4805,398.8389,772.4805" style="stroke:#181818;stroke-width:1.0;"/><line style="stroke:#181818;stroke-width:1.0;" x1="398.8389" x2="398.8389" y1="813.5742" y2="833.5742"/><polygon fill="#181818" points="394.8389,823.5742,398.8389,833.5742,402.8389,823.5742,398.8389,827.5742" style="stroke:#181818;stroke-width:1.0;"/><line style="stroke:#181818;stroke-width:1.0;" x1="398.8389" x2="398.8389" y1="868.668" y2="888.668"/><polygon fill="#181818" points="394.8389,878.668,398.8389,888.668,402.8389,878.668,398.8389,882.668" style="stroke:#181818;stroke-width:1.0;"/><line style="stroke:#181818;stroke-width:1.0;" x1="398.8389" x2="398.8389" y1="923.7617" y2="943.7617"/><polygon fill="#181818" points="394.8389,933.7617,398.8389,943.7617,402.8389,933.7617,398.8389,937.7617" style="stroke:#181818;stroke-width:1.0;"/><line style="stroke:#181818;stroke-width:1.0;" x1="675.5459" x2="675.5459" y1="758.4805" y2="778.4805"/><polygon fill="#181818" points="671.5459,768.4805,675.5459,778.4805,679.5459,768.4805,675.5459,772.4805" style="stroke:#181818;stroke-width:1.0;"/><line style="stroke:#181818;stroke-width:1.0;" x1="675.5459" x2="675.5459" y1="813.5742" y2="833.5742"/><polygon fill="#181818" points="671.5459,823.5742,675.5459,833.5742,679.5459,823.5742,675.5459,827.5742" style="stroke:#181818;stroke-width:1.0;"/><line style="stroke:#181818;stroke-width:1.0;" x1="419.1025" x2="398.8389" y1="701.3867" y2="701.3867"/><line style="stroke:#181818;stroke-width:1.0;" x1="398.8389" x2="398.8389" y1="701.3867" y2="723.3867"/><polygon fill="#181818" points="394.8389,713.3867,398.8389,723.3867,402.8389,713.3867,398.8389,717.3867" style="stroke:#181818;stroke-width:1.0;"/><line style="stroke:#181818;stroke-width:1.0;" x1="655.2822" x2="675.5459" y1="701.3867" y2="701.3867"/><line style="stroke:#181818;stroke-width:1.0;" x1="675.5459" x2="675.5459" y1="701.3867" y2="723.3867"/><polygon fill="#181818" points="671.5459,713.3867,675.5459,723.3867,679.5459,713.3867,675.5459,717.3867" style="stroke:#181818;stroke-width:1.0;"/><line style="stroke:#181818;stroke-width:1.0;" x1="398.8389" x2="398.8389" y1="978.8555" y2="996.8555"/><line style="stroke:#181818;stroke-width:1.0;" x1="398.8389" x2="525.1924" y1="996.8555" y2="996.8555"/><polygon fill="#181818" points="515.1924,992.8555,525.1924,996.8555,515.1924,1000.8555,519.1924,996.8555" style="stroke:#181818;stroke-width:1.0;"/><line style="stroke:#181818;stroke-width:1.0;" x1="675.5459" x2="675.5459" y1="868.668" y2="996.8555"/><line style="stroke:#181818;stroke-width:1.0;" x1="675.5459" x2="549.1924" y1="996.8555" y2="996.8555"/><polygon fill="#181818" points="559.1924,992.8555,549.1924,996.8555,559.1924,1000.8555,555.1924,996.8555" style="stroke:#181818;stroke-width:1.0;"/><line style="stroke:#181818;stroke-width:1.0;" x1="537.1924" x2="537.1924" y1="669.3867" y2="689.3867"/><polygon fill="#181818" points="533.1924,679.3867,537.1924,689.3867,541.1924,679.3867,537.1924,683.3867" style="stroke:#181818;stroke-width:1.0;"/><line style="stroke:#181818;stroke-width:1.0;" x1="807.1169" x2="537.1924" y1="310.1641" y2="310.1641"/><line style="stroke:#181818;stroke-width:1.0;" x1="537.1924" x2="537.1924" y1="310.1641" y2="332.1641"/><polygon fill="#181818" points="533.1924,322.1641,537.1924,332.1641,541.1924,322.1641,537.1924,326.1641" style="stroke:#181818;stroke-width:1.0;"/><line style="stroke:#181818;stroke-width:1.0;" x1="933.8606" x2="1203.7852" y1="310.1641" y2="310.1641"/><line style="stroke:#181818;stroke-width:1.0;" x1="1203.7852" x2="1203.7852" y1="310.1641" y2="332.1641"/><polygon fill="#181818" points="1199.7852,322.1641,1203.7852,332.1641,1207.7852,322.1641,1203.7852,326.1641" style="stroke:#181818;stroke-width:1.0;"/><line style="stroke:#181818;stroke-width:1.0;" x1="537.1924" x2="537.1924" y1="1008.8555" y2="1026.8555"/><line style="stroke:#181818;stroke-width:1.0;" x1="537.1924" x2="858.4888" y1="1026.8555" y2="1026.8555"/><polygon fill="#181818" points="848.4888,1022.8555,858.4888,1026.8555,848.4888,1030.8555,852.4888,1026.8555" style="stroke:#181818;stroke-width:1.0;"/><line style="stroke:#181818;stroke-width:1.0;" x1="1203.7852" x2="1203.7852" y1="367.2578" y2="1026.8555"/><line style="stroke:#181818;stroke-width:1.0;" x1="1203.7852" x2="882.4888" y1="1026.8555" y2="1026.8555"/><polygon fill="#181818" points="892.4888,1022.8555,882.4888,1026.8555,892.4888,1030.8555,888.4888,1026.8555" style="stroke:#181818;stroke-width:1.0;"/><line style="stroke:#181818;stroke-width:1.0;" x1="870.4888" x2="870.4888" y1="196.4063" y2="298.1641"/><polygon fill="#181818" points="866.4888,288.1641,870.4888,298.1641,874.4888,288.1641,870.4888,292.1641" style="stroke:#181818;stroke-width:1.0;"/><line style="stroke:#181818;stroke-width:1.0;" x1="870.4888" x2="870.4888" y1="1038.8555" y2="1058.8555"/><polygon fill="#181818" points="866.4888,1048.8555,870.4888,1058.8555,874.4888,1048.8555,870.4888,1052.8555" style="stroke:#181818;stroke-width:1.0;"/><!--SRC=[ZLLBRXin3DtFAGYlRA-QhOsqID55WAP0q1W52dH3U-GPPZII875IUDTRTDzBz02vIKzIwcDx71j1iZ0Iy_7nyP5KGaV6eSSUSCFqHBnxQD4fi1l6nfggOcAjuAO4uHDX8-WVvbwPfXaCee5xImRkx0urCOQg2eoUgyLd3EIXLxtpDgW0xD44x0A1Kneb6ysoMZnGODN3HdM03ZjiZr5WvMlS2jkogcWBq_lpo8SPSAiCJB_Zh0BvsHCozevq9zY0khRWeiXHuOJD4iM1WU5nw7Mi7d4xGK5DiR_k02x4Jz9cBNabBU8p87qacP6YLrgjgQLINWG7LHEUwKtKguDOvRtrC4aKB7Kws0pTu2RB0pYmTUaFfOCwb5iFCRjJcXoo_7RrxdAbqeHbsoDJa3oDd5DFifUNnFr4RqYSoV9Qz4CuIIegJuGTVEZZw7lKC0qKKERJK2jPptybyTtiLRLhuOzh4_baamOKLqSSRz2QhLnRhThHP4OS8-am_HP7V2wZ9HxINeJEYj8av_atV7MfWuigd1XjuiAAMGsM6gQcxUd6v3qKrYtvFhMg-ZNkv2uDr2eHn6glcjGDWcxebNKVepTYASUXHtiutCgtrkzW6by1QnOmMSb2-HITpCxJ1rSZAs3BCj3ZOHUjsQ6n8GcNEeArybdgVfJdwEFfiX-w0wjY99qxUt6RUMmVfISzCYQx6fSdp-BuOXsFTjoKLq7nVhnYpVW8xj0y3kbGZjtAqZlSuu-Ke_bcNQkuVELrUYDFvgYC5PCzDIrBzdn-mz4uUF7qBkPpYVxxzGUkiZdNPIKBPGdUdfrhGfVeb_rrNiE5yooWrUYAteyNRV-wHTqGHST_0l9C_GS0]--></g></svg>