<svg xmlns="http://www.w3.org/2000/svg" xmlns:xlink="http://www.w3.org/1999/xlink" contentStyleType="text/css" height="1237px" preserveAspectRatio="none" style="width:688px;height:1237px;background:#FFFFFF;" version="1.1" viewBox="0 0 688 1237" width="688px" zoomAndPan="magnify"><title>Activity Diagram</title><defs/><g><text fill="#000000" font-family="sans-serif" font-size="14" font-weight="bold" lengthAdjust="spacing" textLength="110.4824" x="287.6448" y="34.5332">Activity Diagram</text><text fill="#000000" font-family="sans-serif" font-size="14" font-weight="bold" lengthAdjust="spacing" textLength="142.3584" x="271.7068" y="52.1426">Melihat Detail Produk</text><ellipse cx="414.4172" cy="76.2188" fill="#222222" rx="10" ry="10" style="stroke:#222222;stroke-width:1.0;"/><rect fill="#F1F1F1" height="50.1875" rx="12.5" ry="12.5" style="stroke:#181818;stroke-width:0.5;" width="217.4609" x="305.6868" y="106.2188"/><text fill="#000000" font-family="sans-serif" font-size="12" lengthAdjust="spacing" textLength="197.4609" x="315.6868" y="128.6758">Pengunjung klik produk dari halaman</text><text fill="#000000" font-family="sans-serif" font-size="12" lengthAdjust="spacing" textLength="102.0703" x="315.6868" y="143.7695">utama atau katalog</text><rect fill="#F1F1F1" height="35.0938" rx="12.5" ry="12.5" style="stroke:#181818;stroke-width:0.5;" width="238.8125" x="295.011" y="176.4063"/><text fill="#000000" font-family="sans-serif" font-size="12" lengthAdjust="spacing" textLength="218.8125" x="305.011" y="198.8633">Sistem load data produk dengan kategori</text><polygon fill="#F1F1F1" points="367.0281,231.5,461.8064,231.5,473.8064,243.5,461.8064,255.5,367.0281,255.5,355.0281,243.5,367.0281,231.5" style="stroke:#181818;stroke-width:0.5;"/><text fill="#000000" font-family="sans-serif" font-size="11" lengthAdjust="spacing" textLength="94.7783" x="367.0281" y="248.001">Produk ditemukan?</text><text fill="#000000" font-family="sans-serif" font-size="11" lengthAdjust="spacing" textLength="13.4546" x="341.5735" y="241.083">Ya</text><text fill="#000000" font-family="sans-serif" font-size="11" lengthAdjust="spacing" textLength="26.8984" x="473.8064" y="241.083">Tidak</text><rect fill="#F1F1F1" height="35.0938" rx="12.5" ry="12.5" style="stroke:#181818;stroke-width:0.5;" width="228.7578" x="125.0557" y="265.5"/><text fill="#000000" font-family="sans-serif" font-size="12" lengthAdjust="spacing" textLength="208.7578" x="135.0557" y="287.957">Sistem set meta description untuk SEO</text><rect fill="#F1F1F1" height="35.0938" rx="12.5" ry="12.5" style="stroke:#181818;stroke-width:0.5;" width="205.9238" x="136.4727" y="320.5938"/><text fill="#000000" font-family="sans-serif" font-size="12" lengthAdjust="spacing" textLength="185.9238" x="146.4727" y="343.0508">Sistem tampilkan tombol "Kembali"</text><polygon fill="#F1F1F1" points="196.3208,375.6875,282.5483,375.6875,294.5483,387.6875,282.5483,399.6875,196.3208,399.6875,184.3208,387.6875,196.3208,375.6875" style="stroke:#181818;stroke-width:0.5;"/><text fill="#000000" font-family="sans-serif" font-size="11" lengthAdjust="spacing" textLength="86.2275" x="196.3208" y="392.1885">Foto produk ada?</text><text fill="#000000" font-family="sans-serif" font-size="11" lengthAdjust="spacing" textLength="13.4546" x="170.8662" y="385.2705">Ya</text><text fill="#000000" font-family="sans-serif" font-size="11" lengthAdjust="spacing" textLength="26.8984" x="294.5483" y="385.2705">Tidak</text><rect fill="#F1F1F1" height="35.0938" rx="12.5" ry="12.5" style="stroke:#181818;stroke-width:0.5;" width="208.0977" x="16.8384" y="409.6875"/><text fill="#000000" font-family="sans-serif" font-size="12" lengthAdjust="spacing" textLength="188.0977" x="26.8384" y="432.1445">Tampilkan foto produk di sisi kanan</text><rect fill="#F1F1F1" height="35.0938" rx="12.5" ry="12.5" style="stroke:#181818;stroke-width:0.5;" width="226.0918" x="244.936" y="409.6875"/><text fill="#000000" font-family="sans-serif" font-size="12" lengthAdjust="spacing" textLength="206.0918" x="254.936" y="432.1445">Tampilkan gambar default (no-img.jpg)</text><polygon fill="#F1F1F1" points="239.4346,450.7813,251.4346,462.7813,239.4346,474.7813,227.4346,462.7813,239.4346,450.7813" style="stroke:#181818;stroke-width:0.5;"/><rect fill="#F1F1F1" height="35.0938" rx="12.5" ry="12.5" style="stroke:#181818;stroke-width:0.5;" width="232.7773" x="123.0459" y="494.7813"/><text fill="#000000" font-family="sans-serif" font-size="12" lengthAdjust="spacing" textLength="212.7773" x="133.0459" y="517.2383">Tampilkan nama produk dan jumlah pcs</text><rect fill="#F1F1F1" height="35.0938" rx="12.5" ry="12.5" style="stroke:#181818;stroke-width:0.5;" width="149.4043" x="164.7324" y="549.875"/><text fill="#000000" font-family="sans-serif" font-size="12" lengthAdjust="spacing" textLength="129.4043" x="174.7324" y="572.332">Tampilkan harga produk</text><rect fill="#F1F1F1" height="35.0938" rx="12.5" ry="12.5" style="stroke:#181818;stroke-width:0.5;" width="161.4043" x="158.7324" y="653.8867"/><text fill="#000000" font-family="sans-serif" font-size="12" lengthAdjust="spacing" textLength="141.4043" x="168.7324" y="676.3438">Tampilkan kategori produk</text><polygon fill="#F1F1F1" points="205.1858,604.9688,273.6833,604.9688,285.6833,616.9688,273.6833,628.9688,205.1858,628.9688,193.1858,616.9688,205.1858,604.9688" style="stroke:#181818;stroke-width:0.5;"/><text fill="#000000" font-family="sans-serif" font-size="11" lengthAdjust="spacing" textLength="13.4546" x="243.4346" y="640.3877">Ya</text><text fill="#000000" font-family="sans-serif" font-size="11" lengthAdjust="spacing" textLength="68.4976" x="205.1858" y="621.4697">Kategori ada?</text><polygon fill="#F1F1F1" points="239.4346,708.9805,251.4346,720.9805,239.4346,732.9805,227.4346,720.9805,239.4346,708.9805" style="stroke:#181818;stroke-width:0.5;"/><rect fill="#F1F1F1" height="35.0938" rx="12.5" ry="12.5" style="stroke:#181818;stroke-width:0.5;" width="166.0625" x="156.4033" y="801.8984"/><text fill="#000000" font-family="sans-serif" font-size="12" lengthAdjust="spacing" textLength="146.0625" x="166.4033" y="824.3555">Tampilkan deskripsi produk</text><polygon fill="#F1F1F1" points="203.0562,752.9805,275.813,752.9805,287.813,764.9805,275.813,776.9805,203.0562,776.9805,191.0562,764.9805,203.0562,752.9805" style="stroke:#181818;stroke-width:0.5;"/><text fill="#000000" font-family="sans-serif" font-size="11" lengthAdjust="spacing" textLength="13.4546" x="243.4346" y="788.3994">Ya</text><text fill="#000000" font-family="sans-serif" font-size="11" lengthAdjust="spacing" textLength="72.7568" x="203.0562" y="769.4814">Deskripsi ada?</text><polygon fill="#F1F1F1" points="239.4346,856.9922,251.4346,868.9922,239.4346,880.9922,227.4346,868.9922,239.4346,856.9922" style="stroke:#181818;stroke-width:0.5;"/><rect fill="#F1F1F1" height="50.1875" rx="12.5" ry="12.5" style="stroke:#181818;stroke-width:0.5;" width="201.418" x="138.7256" y="900.9922"/><text fill="#000000" font-family="sans-serif" font-size="12" lengthAdjust="spacing" textLength="181.418" x="148.7256" y="923.4492">Sistem load max 10 produk terkait</text><text fill="#000000" font-family="sans-serif" font-size="12" lengthAdjust="spacing" textLength="180.082" x="148.7256" y="938.543">(random dari kategori yang sama)</text><rect fill="#F1F1F1" height="35.0938" rx="12.5" ry="12.5" style="stroke:#181818;stroke-width:0.5;" width="204.6055" x="137.1318" y="971.1797"/><text fill="#000000" font-family="sans-serif" font-size="12" lengthAdjust="spacing" textLength="184.6055" x="147.1318" y="993.6367">Tampilkan bagian "Produk Terkait"</text><polygon fill="#F1F1F1" points="56.853,1026.2734,163.2544,1026.2734,175.2544,1038.2734,163.2544,1050.2734,56.853,1050.2734,44.853,1038.2734,56.853,1026.2734" style="stroke:#181818;stroke-width:0.5;"/><text fill="#000000" font-family="sans-serif" font-size="11" lengthAdjust="spacing" textLength="79.4761" x="114.0537" y="1061.6924">Tombol Kembali</text><text fill="#000000" font-family="sans-serif" font-size="11" lengthAdjust="spacing" textLength="106.4014" x="56.853" y="1042.7744">Pengunjung klik aksi?</text><rect fill="#F1F1F1" height="50.1875" rx="12.5" ry="12.5" style="stroke:#181818;stroke-width:0.5;" width="198.1074" x="11" y="1084.1094"/><text fill="#000000" font-family="sans-serif" font-size="12" lengthAdjust="spacing" textLength="178.1074" x="21" y="1106.5664">Arahkan ke halaman sebelumnya</text><text fill="#000000" font-family="sans-serif" font-size="12" lengthAdjust="spacing" textLength="160.752" x="21" y="1121.6602">menggunakan browser history</text><polygon fill="#F1F1F1" points="279.7756,1026.2734,367.2009,1026.2734,379.2009,1038.2734,367.2009,1050.2734,279.7756,1050.2734,267.7756,1038.2734,279.7756,1026.2734" style="stroke:#181818;stroke-width:0.5;"/><text fill="#000000" font-family="sans-serif" font-size="11" lengthAdjust="spacing" textLength="87.4253" x="279.7756" y="1042.7744">Klik produk terkait</text><rect fill="#F1F1F1" height="35.0938" rx="12.5" ry="12.5" style="stroke:#181818;stroke-width:0.5;" width="188.7617" x="229.1074" y="1070.2734"/><text fill="#000000" font-family="sans-serif" font-size="12" lengthAdjust="spacing" textLength="168.7617" x="239.1074" y="1092.7305">Arahkan ke detail produk terkait</text><rect fill="#F1F1F1" height="35.0938" rx="12.5" ry="12.5" style="stroke:#181818;stroke-width:0.5;" width="176.7441" x="501.0278" y="265.5"/><text fill="#000000" font-family="sans-serif" font-size="12" lengthAdjust="spacing" textLength="156.7441" x="511.0278" y="287.957">Tampilkan halaman error 404</text><polygon fill="#F1F1F1" points="414.4172,1160.2969,426.4172,1172.2969,414.4172,1184.2969,402.4172,1172.2969,414.4172,1160.2969" style="stroke:#181818;stroke-width:0.5;"/><ellipse cx="414.4172" cy="1215.2969" fill="none" rx="11" ry="11" style="stroke:#222222;stroke-width:1.0;"/><ellipse cx="414.4172" cy="1215.2969" fill="#222222" rx="6" ry="6" style="stroke:#222222;stroke-width:1.0;"/><line style="stroke:#181818;stroke-width:1.0;" x1="414.4172" x2="414.4172" y1="86.2188" y2="106.2188"/><polygon fill="#181818" points="410.4172,96.2188,414.4172,106.2188,418.4172,96.2188,414.4172,100.2188" style="stroke:#181818;stroke-width:1.0;"/><line style="stroke:#181818;stroke-width:1.0;" x1="414.4172" x2="414.4172" y1="156.4063" y2="176.4063"/><polygon fill="#181818" points="410.4172,166.4063,414.4172,176.4063,418.4172,166.4063,414.4172,170.4063" style="stroke:#181818;stroke-width:1.0;"/><line style="stroke:#181818;stroke-width:1.0;" x1="239.4346" x2="239.4346" y1="300.5938" y2="320.5938"/><polygon fill="#181818" points="235.4346,310.5938,239.4346,320.5938,243.4346,310.5938,239.4346,314.5938" style="stroke:#181818;stroke-width:1.0;"/><line style="stroke:#181818;stroke-width:1.0;" x1="184.3208" x2="120.8872" y1="387.6875" y2="387.6875"/><line style="stroke:#181818;stroke-width:1.0;" x1="120.8872" x2="120.8872" y1="387.6875" y2="409.6875"/><polygon fill="#181818" points="116.8872,399.6875,120.8872,409.6875,124.8872,399.6875,120.8872,403.6875" style="stroke:#181818;stroke-width:1.0;"/><line style="stroke:#181818;stroke-width:1.0;" x1="294.5483" x2="357.9819" y1="387.6875" y2="387.6875"/><line style="stroke:#181818;stroke-width:1.0;" x1="357.9819" x2="357.9819" y1="387.6875" y2="409.6875"/><polygon fill="#181818" points="353.9819,399.6875,357.9819,409.6875,361.9819,399.6875,357.9819,403.6875" style="stroke:#181818;stroke-width:1.0;"/><line style="stroke:#181818;stroke-width:1.0;" x1="120.8872" x2="120.8872" y1="444.7813" y2="462.7813"/><line style="stroke:#181818;stroke-width:1.0;" x1="120.8872" x2="227.4346" y1="462.7813" y2="462.7813"/><polygon fill="#181818" points="217.4346,458.7813,227.4346,462.7813,217.4346,466.7813,221.4346,462.7813" style="stroke:#181818;stroke-width:1.0;"/><line style="stroke:#181818;stroke-width:1.0;" x1="357.9819" x2="357.9819" y1="444.7813" y2="462.7813"/><line style="stroke:#181818;stroke-width:1.0;" x1="357.9819" x2="251.4346" y1="462.7813" y2="462.7813"/><polygon fill="#181818" points="261.4346,458.7813,251.4346,462.7813,261.4346,466.7813,257.4346,462.7813" style="stroke:#181818;stroke-width:1.0;"/><line style="stroke:#181818;stroke-width:1.0;" x1="239.4346" x2="239.4346" y1="355.6875" y2="375.6875"/><polygon fill="#181818" points="235.4346,365.6875,239.4346,375.6875,243.4346,365.6875,239.4346,369.6875" style="stroke:#181818;stroke-width:1.0;"/><line style="stroke:#181818;stroke-width:1.0;" x1="239.4346" x2="239.4346" y1="474.7813" y2="494.7813"/><polygon fill="#181818" points="235.4346,484.7813,239.4346,494.7813,243.4346,484.7813,239.4346,488.7813" style="stroke:#181818;stroke-width:1.0;"/><line style="stroke:#181818;stroke-width:1.0;" x1="239.4346" x2="239.4346" y1="529.875" y2="549.875"/><polygon fill="#181818" points="235.4346,539.875,239.4346,549.875,243.4346,539.875,239.4346,543.875" style="stroke:#181818;stroke-width:1.0;"/><line style="stroke:#181818;stroke-width:1.0;" x1="239.4346" x2="239.4346" y1="628.9688" y2="653.8867"/><polygon fill="#181818" points="235.4346,643.8867,239.4346,653.8867,243.4346,643.8867,239.4346,647.8867" style="stroke:#181818;stroke-width:1.0;"/><line style="stroke:#181818;stroke-width:1.0;" x1="285.6833" x2="330.1367" y1="616.9688" y2="616.9688"/><polygon fill="#181818" points="326.1367,661.4336,330.1367,671.4336,334.1367,661.4336,330.1367,665.4336" style="stroke:#181818;stroke-width:1.0;"/><line style="stroke:#181818;stroke-width:1.0;" x1="330.1367" x2="330.1367" y1="616.9688" y2="720.9805"/><line style="stroke:#181818;stroke-width:1.0;" x1="330.1367" x2="251.4346" y1="720.9805" y2="720.9805"/><polygon fill="#181818" points="261.4346,716.9805,251.4346,720.9805,261.4346,724.9805,257.4346,720.9805" style="stroke:#181818;stroke-width:1.0;"/><line style="stroke:#181818;stroke-width:1.0;" x1="239.4346" x2="239.4346" y1="688.9805" y2="708.9805"/><polygon fill="#181818" points="235.4346,698.9805,239.4346,708.9805,243.4346,698.9805,239.4346,702.9805" style="stroke:#181818;stroke-width:1.0;"/><line style="stroke:#181818;stroke-width:1.0;" x1="239.4346" x2="239.4346" y1="584.9688" y2="604.9688"/><polygon fill="#181818" points="235.4346,594.9688,239.4346,604.9688,243.4346,594.9688,239.4346,598.9688" style="stroke:#181818;stroke-width:1.0;"/><line style="stroke:#181818;stroke-width:1.0;" x1="239.4346" x2="239.4346" y1="776.9805" y2="801.8984"/><polygon fill="#181818" points="235.4346,791.8984,239.4346,801.8984,243.4346,791.8984,239.4346,795.8984" style="stroke:#181818;stroke-width:1.0;"/><line style="stroke:#181818;stroke-width:1.0;" x1="287.813" x2="332.4658" y1="764.9805" y2="764.9805"/><polygon fill="#181818" points="328.4658,809.4453,332.4658,819.4453,336.4658,809.4453,332.4658,813.4453" style="stroke:#181818;stroke-width:1.0;"/><line style="stroke:#181818;stroke-width:1.0;" x1="332.4658" x2="332.4658" y1="764.9805" y2="868.9922"/><line style="stroke:#181818;stroke-width:1.0;" x1="332.4658" x2="251.4346" y1="868.9922" y2="868.9922"/><polygon fill="#181818" points="261.4346,864.9922,251.4346,868.9922,261.4346,872.9922,257.4346,868.9922" style="stroke:#181818;stroke-width:1.0;"/><line style="stroke:#181818;stroke-width:1.0;" x1="239.4346" x2="239.4346" y1="836.9922" y2="856.9922"/><polygon fill="#181818" points="235.4346,846.9922,239.4346,856.9922,243.4346,846.9922,239.4346,850.9922" style="stroke:#181818;stroke-width:1.0;"/><line style="stroke:#181818;stroke-width:1.0;" x1="239.4346" x2="239.4346" y1="732.9805" y2="752.9805"/><polygon fill="#181818" points="235.4346,742.9805,239.4346,752.9805,243.4346,742.9805,239.4346,746.9805" style="stroke:#181818;stroke-width:1.0;"/><line style="stroke:#181818;stroke-width:1.0;" x1="239.4346" x2="239.4346" y1="880.9922" y2="900.9922"/><polygon fill="#181818" points="235.4346,890.9922,239.4346,900.9922,243.4346,890.9922,239.4346,894.9922" style="stroke:#181818;stroke-width:1.0;"/><line style="stroke:#181818;stroke-width:1.0;" x1="239.4346" x2="239.4346" y1="951.1797" y2="971.1797"/><polygon fill="#181818" points="235.4346,961.1797,239.4346,971.1797,243.4346,961.1797,239.4346,965.1797" style="stroke:#181818;stroke-width:1.0;"/><line style="stroke:#181818;stroke-width:1.0;" x1="110.0537" x2="110.0537" y1="1050.2734" y2="1084.1094"/><polygon fill="#181818" points="106.0537,1074.1094,110.0537,1084.1094,114.0537,1074.1094,110.0537,1078.1094" style="stroke:#181818;stroke-width:1.0;"/><line style="stroke:#181818;stroke-width:1.0;" x1="110.0537" x2="110.0537" y1="1134.2969" y2="1154.2969"/><polygon fill="#181818" points="106.0537,1144.2969,110.0537,1154.2969,114.0537,1144.2969,110.0537,1148.2969" style="stroke:#181818;stroke-width:1.0;"/><line style="stroke:#181818;stroke-width:1.0;" x1="323.4883" x2="323.4883" y1="1050.2734" y2="1070.2734"/><polygon fill="#181818" points="319.4883,1060.2734,323.4883,1070.2734,327.4883,1060.2734,323.4883,1064.2734" style="stroke:#181818;stroke-width:1.0;"/><line style="stroke:#181818;stroke-width:1.0;" x1="323.4883" x2="323.4883" y1="1105.3672" y2="1154.2969"/><polygon fill="#181818" points="319.4883,1144.2969,323.4883,1154.2969,327.4883,1144.2969,323.4883,1148.2969" style="stroke:#181818;stroke-width:1.0;"/><line style="stroke:#181818;stroke-width:1.0;" x1="175.2544" x2="267.7756" y1="1038.2734" y2="1038.2734"/><polygon fill="#181818" points="257.7756,1034.2734,267.7756,1038.2734,257.7756,1042.2734,261.7756,1038.2734" style="stroke:#181818;stroke-width:1.0;"/><line style="stroke:#181818;stroke-width:1.0;" x1="239.4346" x2="239.4346" y1="1006.2734" y2="1011.2734"/><line style="stroke:#181818;stroke-width:1.0;" x1="239.4346" x2="110.0537" y1="1011.2734" y2="1011.2734"/><line style="stroke:#181818;stroke-width:1.0;" x1="110.0537" x2="110.0537" y1="1011.2734" y2="1026.2734"/><polygon fill="#181818" points="106.0537,1016.2734,110.0537,1026.2734,114.0537,1016.2734,110.0537,1020.2734" style="stroke:#181818;stroke-width:1.0;"/><line style="stroke:#181818;stroke-width:1.0;" x1="379.2009" x2="452.8691" y1="1038.2734" y2="1038.2734"/><line style="stroke:#181818;stroke-width:1.0;" x1="452.8691" x2="452.8691" y1="1038.2734" y2="1154.2969"/><polygon fill="#181818" points="448.8691,1144.2969,452.8691,1154.2969,456.8691,1144.2969,452.8691,1148.2969" style="stroke:#181818;stroke-width:1.0;"/><line style="stroke:#181818;stroke-width:1.0;" x1="110.0537" x2="452.8691" y1="1154.2969" y2="1154.2969"/><line style="stroke:#181818;stroke-width:1.0;" x1="355.0281" x2="239.4346" y1="243.5" y2="243.5"/><line style="stroke:#181818;stroke-width:1.0;" x1="239.4346" x2="239.4346" y1="243.5" y2="265.5"/><polygon fill="#181818" points="235.4346,255.5,239.4346,265.5,243.4346,255.5,239.4346,259.5" style="stroke:#181818;stroke-width:1.0;"/><line style="stroke:#181818;stroke-width:1.0;" x1="473.8064" x2="589.3999" y1="243.5" y2="243.5"/><line style="stroke:#181818;stroke-width:1.0;" x1="589.3999" x2="589.3999" y1="243.5" y2="265.5"/><polygon fill="#181818" points="585.3999,255.5,589.3999,265.5,593.3999,255.5,589.3999,259.5" style="stroke:#181818;stroke-width:1.0;"/><line style="stroke:#181818;stroke-width:1.0;" x1="239.4346" x2="239.4346" y1="1154.2969" y2="1172.2969"/><line style="stroke:#181818;stroke-width:1.0;" x1="239.4346" x2="402.4172" y1="1172.2969" y2="1172.2969"/><polygon fill="#181818" points="392.4172,1168.2969,402.4172,1172.2969,392.4172,1176.2969,396.4172,1172.2969" style="stroke:#181818;stroke-width:1.0;"/><line style="stroke:#181818;stroke-width:1.0;" x1="589.3999" x2="589.3999" y1="300.5938" y2="1172.2969"/><line style="stroke:#181818;stroke-width:1.0;" x1="589.3999" x2="426.4172" y1="1172.2969" y2="1172.2969"/><polygon fill="#181818" points="436.4172,1168.2969,426.4172,1172.2969,436.4172,1176.2969,432.4172,1172.2969" style="stroke:#181818;stroke-width:1.0;"/><line style="stroke:#181818;stroke-width:1.0;" x1="414.4172" x2="414.4172" y1="211.5" y2="231.5"/><polygon fill="#181818" points="410.4172,221.5,414.4172,231.5,418.4172,221.5,414.4172,225.5" style="stroke:#181818;stroke-width:1.0;"/><line style="stroke:#181818;stroke-width:1.0;" x1="414.4172" x2="414.4172" y1="1184.2969" y2="1204.2969"/><polygon fill="#181818" points="410.4172,1194.2969,414.4172,1204.2969,418.4172,1194.2969,414.4172,1198.2969" style="stroke:#181818;stroke-width:1.0;"/><!--SRC=[ZLCzRzim4DtrAmwUvA552cIAXoA0soKeOi1U2dWvMpHr5daKo5DQ__kUzLN93e9ee0Q-UtplxbsgY6kCw06FGcyabss9jO5m5BI1iqn8d87d_XBMX5RHU_vb79Kei3Q2v60JGz5KMPO4esHF6yEsuNF35Yf75TJjDHGO2Kfqw97tt8Z-0GKRgFHqmQwox6bBIOm75x1GlE1OgvJ8LwIn8P92wGJvfhyahMagvEzBaD8mvBzncO5-0ryo0bwrAaywHgg50aF3eiNR7w-h6LPrrUIK3IJuGt2mU37-W8uM7Quzhg__3186VLZWtUCjwMvaEqtW1K6YHEg7aJjQuvA1V4S5Lk-MMrGHKGsSi742EOSlvEtNSssNFG4NTFglS5BArqwFGs0uDzvX2VKnhMwX9KOxO6_illIz_upNOKupfXk1LywrIPME8tsAj1Z17x3E4kJnBtnx6AoBYHMIx3cFo4NmNI17gHVKl2PjrVAkAmUqfBz5dxTTHtIRXzlOOvLezBJhijH7QUBlEMBPjimCkw5fFHZNUBxWdhsIAYksCcBuaqo4KYs6U9dafftFPDLwg-y_KtHBEuTEctaNnLb0EeqcnX3XyU5nbNL5kloXplu1]--></g></svg>