<svg xmlns="http://www.w3.org/2000/svg" xmlns:xlink="http://www.w3.org/1999/xlink" contentStyleType="text/css" height="1329px" preserveAspectRatio="none" style="width:1598px;height:1329px;background:#FFFFFF;" version="1.1" viewBox="0 0 1598 1329" width="1598px" zoomAndPan="magnify"><title>Activity Diagram</title><defs/><g><text fill="#000000" font-family="sans-serif" font-size="14" font-weight="bold" lengthAdjust="spacing" textLength="110.4824" x="742.4806" y="34.5332">Activity Diagram</text><text fill="#000000" font-family="sans-serif" font-size="14" font-weight="bold" lengthAdjust="spacing" textLength="229.4961" x="682.9738" y="52.1426">Kelola Pelanggan &amp; Poin Loyalitas</text><ellipse cx="783.9189" cy="76.2188" fill="#222222" rx="10" ry="10" style="stroke:#222222;stroke-width:1.0;"/><rect fill="#F1F1F1" height="35.0938" rx="12.5" ry="12.5" style="stroke:#181818;stroke-width:0.5;" width="258.1426" x="654.8477" y="106.2188"/><text fill="#000000" font-family="sans-serif" font-size="12" lengthAdjust="spacing" textLength="238.1426" x="664.8477" y="128.6758">Kasir/Admin mengakses halaman pelanggan</text><rect fill="#F1F1F1" height="35.0938" rx="12.5" ry="12.5" style="stroke:#181818;stroke-width:0.5;" width="224.7852" x="671.5264" y="161.3125"/><text fill="#000000" font-family="sans-serif" font-size="12" lengthAdjust="spacing" textLength="204.7852" x="681.5264" y="183.7695">Sistem menampilkan daftar pelanggan</text><polygon fill="#F1F1F1" points="201.6484,216.4063,286.6406,216.4063,298.6406,228.4063,286.6406,240.4063,201.6484,240.4063,189.6484,228.4063,201.6484,216.4063" style="stroke:#181818;stroke-width:0.5;"/><text fill="#000000" font-family="sans-serif" font-size="11" lengthAdjust="spacing" textLength="96.0137" x="248.1445" y="251.8252">Tambah Pelanggan</text><text fill="#000000" font-family="sans-serif" font-size="11" lengthAdjust="spacing" textLength="84.9922" x="201.6484" y="232.9072">Aksi yang dipilih?</text><rect fill="#F1F1F1" height="35.0938" rx="12.5" ry="12.5" style="stroke:#181818;stroke-width:0.5;" width="177.4297" x="155.4297" y="273.3252"/><text fill="#000000" font-family="sans-serif" font-size="12" lengthAdjust="spacing" textLength="157.4297" x="165.4297" y="295.7822">Admin klik tambah pelanggan</text><rect fill="#F1F1F1" height="35.0938" rx="12.5" ry="12.5" style="stroke:#181818;stroke-width:0.5;" width="183.4473" x="152.4209" y="328.4189"/><text fill="#000000" font-family="sans-serif" font-size="12" lengthAdjust="spacing" textLength="163.4473" x="162.4209" y="350.876">Input nama dan nomor telepon</text><rect fill="#F1F1F1" height="35.0938" rx="12.5" ry="12.5" style="stroke:#181818;stroke-width:0.5;" width="129.3828" x="179.4531" y="383.5127"/><text fill="#000000" font-family="sans-serif" font-size="12" lengthAdjust="spacing" textLength="109.3828" x="189.4531" y="405.9697">Sistem validasi input</text><polygon fill="#F1F1F1" points="166.4866,438.6064,321.8025,438.6064,333.8025,450.6064,321.8025,462.6064,166.4866,462.6064,154.4866,450.6064,166.4866,438.6064" style="stroke:#181818;stroke-width:0.5;"/><text fill="#000000" font-family="sans-serif" font-size="11" lengthAdjust="spacing" textLength="155.3159" x="166.4866" y="455.1074">Nomor telepon sudah terdaftar?</text><text fill="#000000" font-family="sans-serif" font-size="11" lengthAdjust="spacing" textLength="13.4546" x="141.032" y="448.1895">Ya</text><text fill="#000000" font-family="sans-serif" font-size="11" lengthAdjust="spacing" textLength="26.8984" x="333.8025" y="448.1895">Tidak</text><rect fill="#F1F1F1" height="35.0938" rx="12.5" ry="12.5" style="stroke:#181818;stroke-width:0.5;" width="235.9355" x="11" y="472.6064"/><text fill="#000000" font-family="sans-serif" font-size="12" lengthAdjust="spacing" textLength="215.9355" x="21" y="495.0635">Tampilkan error "Nomor sudah terdaftar"</text><ellipse cx="128.9678" cy="553.7002" fill="none" rx="11" ry="11" style="stroke:#222222;stroke-width:1.0;"/><ellipse cx="128.9678" cy="553.7002" fill="#222222" rx="6" ry="6" style="stroke:#222222;stroke-width:1.0;"/><rect fill="#F1F1F1" height="35.0938" rx="12.5" ry="12.5" style="stroke:#181818;stroke-width:0.5;" width="184.7715" x="266.9355" y="472.6064"/><text fill="#000000" font-family="sans-serif" font-size="12" lengthAdjust="spacing" textLength="164.7715" x="276.9355" y="495.0635">Sistem simpan data pelanggan</text><rect fill="#F1F1F1" height="35.0938" rx="12.5" ry="12.5" style="stroke:#181818;stroke-width:0.5;" width="166.0566" x="276.293" y="542.7002"/><text fill="#000000" font-family="sans-serif" font-size="12" lengthAdjust="spacing" textLength="146.0566" x="286.293" y="565.1572">Tampilkan notifikasi sukses</text><polygon fill="#F1F1F1" points="515.7949,216.4063,590.4102,216.4063,602.4102,228.4063,590.4102,240.4063,515.7949,240.4063,503.7949,228.4063,515.7949,216.4063" style="stroke:#181818;stroke-width:0.5;"/><text fill="#000000" font-family="sans-serif" font-size="11" lengthAdjust="spacing" textLength="13.4546" x="557.1025" y="251.8252">Ya</text><text fill="#000000" font-family="sans-serif" font-size="11" lengthAdjust="spacing" textLength="74.6152" x="515.7949" y="232.9072">Edit Pelanggan</text><rect fill="#F1F1F1" height="35.0938" rx="12.5" ry="12.5" style="stroke:#181818;stroke-width:0.5;" width="138.084" x="484.0605" y="273.3252"/><text fill="#000000" font-family="sans-serif" font-size="12" lengthAdjust="spacing" textLength="118.084" x="494.0605" y="295.7822">Admin pilih pelanggan</text><rect fill="#F1F1F1" height="35.0938" rx="12.5" ry="12.5" style="stroke:#181818;stroke-width:0.5;" width="180.7695" x="462.7178" y="328.4189"/><text fill="#000000" font-family="sans-serif" font-size="12" lengthAdjust="spacing" textLength="160.7695" x="472.7178" y="350.876">Edit nama atau nomor telepon</text><rect fill="#F1F1F1" height="35.0938" rx="12.5" ry="12.5" style="stroke:#181818;stroke-width:0.5;" width="129.3828" x="488.4111" y="383.5127"/><text fill="#000000" font-family="sans-serif" font-size="12" lengthAdjust="spacing" textLength="109.3828" x="498.4111" y="405.9697">Sistem validasi input</text><rect fill="#F1F1F1" height="35.0938" rx="12.5" ry="12.5" style="stroke:#181818;stroke-width:0.5;" width="182.791" x="461.707" y="438.6064"/><text fill="#000000" font-family="sans-serif" font-size="12" lengthAdjust="spacing" textLength="162.791" x="471.707" y="461.0635">Sistem update data pelanggan</text><rect fill="#F1F1F1" height="35.0938" rx="12.5" ry="12.5" style="stroke:#181818;stroke-width:0.5;" width="166.0566" x="470.0742" y="508.7002"/><text fill="#000000" font-family="sans-serif" font-size="12" lengthAdjust="spacing" textLength="146.0566" x="480.0742" y="531.1572">Tampilkan notifikasi sukses</text><polygon fill="#F1F1F1" points="868.3726,216.4063,923.4048,216.4063,935.4048,228.4063,923.4048,240.4063,868.3726,240.4063,856.3726,228.4063,868.3726,216.4063" style="stroke:#181818;stroke-width:0.5;"/><text fill="#000000" font-family="sans-serif" font-size="11" lengthAdjust="spacing" textLength="13.4546" x="899.8887" y="251.8252">Ya</text><text fill="#000000" font-family="sans-serif" font-size="11" lengthAdjust="spacing" textLength="55.0322" x="868.3726" y="232.9072">Lihat Detail</text><rect fill="#F1F1F1" height="35.0938" rx="12.5" ry="12.5" style="stroke:#181818;stroke-width:0.5;" width="138.084" x="826.8467" y="273.3252"/><text fill="#000000" font-family="sans-serif" font-size="12" lengthAdjust="spacing" textLength="118.084" x="836.8467" y="295.7822">Admin pilih pelanggan</text><rect fill="#F1F1F1" height="35.0938" rx="12.5" ry="12.5" style="stroke:#181818;stroke-width:0.5;" width="202.7773" x="794.5" y="328.4189"/><text fill="#000000" font-family="sans-serif" font-size="12" lengthAdjust="spacing" textLength="182.7773" x="804.5" y="350.876">Sistem tampilkan detail pelanggan</text><rect fill="#F1F1F1" height="35.0938" rx="12.5" ry="12.5" style="stroke:#181818;stroke-width:0.5;" width="169.4082" x="811.1846" y="383.5127"/><text fill="#000000" font-family="sans-serif" font-size="12" lengthAdjust="spacing" textLength="149.4082" x="821.1846" y="405.9697">Sistem tampilkan saldo poin</text><rect fill="#F1F1F1" height="35.0938" rx="12.5" ry="12.5" style="stroke:#181818;stroke-width:0.5;" width="188.7324" x="801.5225" y="438.6064"/><text fill="#000000" font-family="sans-serif" font-size="12" lengthAdjust="spacing" textLength="168.7324" x="811.5225" y="461.0635">Sistem tampilkan total transaksi</text><rect fill="#F1F1F1" height="35.0938" rx="12.5" ry="12.5" style="stroke:#181818;stroke-width:0.5;" width="178.7305" x="806.5234" y="508.7002"/><text fill="#000000" font-family="sans-serif" font-size="12" lengthAdjust="spacing" textLength="158.7305" x="816.5234" y="531.1572">Sistem tampilkan riwayat poin</text><rect fill="#F1F1F1" height="35.0938" rx="12.5" ry="12.5" style="stroke:#181818;stroke-width:0.5;" width="144.0605" x="823.8584" y="627.7119"/><text fill="#000000" font-family="sans-serif" font-size="12" lengthAdjust="spacing" textLength="124.0605" x="833.8584" y="650.1689">Admin klik tambah poin</text><rect fill="#555555" height="6" rx="2.5" ry="2.5" style="stroke:#555555;stroke-width:1.0;" width="481.387" x="654.498" y="682.8057"/><rect fill="#F1F1F1" height="35.0938" rx="12.5" ry="12.5" style="stroke:#181818;stroke-width:0.5;" width="126.7168" x="705.835" y="757.7236"/><text fill="#000000" font-family="sans-serif" font-size="12" lengthAdjust="spacing" textLength="106.7168" x="715.835" y="780.1807">Upload foto story IG</text><rect fill="#F1F1F1" height="35.0938" rx="12.5" ry="12.5" style="stroke:#181818;stroke-width:0.5;" width="181.3906" x="678.498" y="816.7354"/><text fill="#000000" font-family="sans-serif" font-size="12" lengthAdjust="spacing" textLength="161.3906" x="688.498" y="839.1924">Sistem validasi format gambar</text><rect fill="#F1F1F1" height="35.0938" rx="12.5" ry="12.5" style="stroke:#181818;stroke-width:0.5;" width="142.7129" x="697.8369" y="871.8291"/><text fill="#000000" font-family="sans-serif" font-size="12" lengthAdjust="spacing" textLength="122.7129" x="707.8369" y="894.2861">Sistem simpan gambar</text><rect fill="#F1F1F1" height="35.0938" rx="12.5" ry="12.5" style="stroke:#181818;stroke-width:0.5;" width="136.0625" x="701.1621" y="941.9229"/><text fill="#000000" font-family="sans-serif" font-size="12" lengthAdjust="spacing" textLength="116.0625" x="711.1621" y="964.3799">Sistem tambah 5 poin</text><rect fill="#F1F1F1" height="35.0938" rx="12.5" ry="12.5" style="stroke:#181818;stroke-width:0.5;" width="169.3965" x="684.4951" y="997.0166"/><text fill="#000000" font-family="sans-serif" font-size="12" lengthAdjust="spacing" textLength="149.3965" x="694.4951" y="1019.4736">Sistem catat ke riwayat poin</text><polygon fill="#F1F1F1" points="695.2119,708.8057,843.1748,708.8057,855.1748,720.8057,843.1748,732.8057,695.2119,732.8057,683.2119,720.8057,695.2119,708.8057" style="stroke:#181818;stroke-width:0.5;"/><text fill="#000000" font-family="sans-serif" font-size="11" lengthAdjust="spacing" textLength="13.4546" x="773.1934" y="744.2246">Ya</text><text fill="#000000" font-family="sans-serif" font-size="11" lengthAdjust="spacing" textLength="147.9629" x="695.2119" y="725.3066">Upload bukti Story Instagram?</text><polygon fill="#F1F1F1" points="769.1934,1052.1104,781.1934,1064.1104,769.1934,1076.1104,757.1934,1064.1104,769.1934,1052.1104" style="stroke:#181818;stroke-width:0.5;"/><rect fill="#F1F1F1" height="35.0938" rx="12.5" ry="12.5" style="stroke:#181818;stroke-width:0.5;" width="156.7402" x="932.2139" y="757.7236"/><text fill="#000000" font-family="sans-serif" font-size="12" lengthAdjust="spacing" textLength="136.7402" x="942.2139" y="780.1807">Upload foto rating Gmaps</text><rect fill="#F1F1F1" height="35.0938" rx="12.5" ry="12.5" style="stroke:#181818;stroke-width:0.5;" width="181.3906" x="919.8887" y="816.7354"/><text fill="#000000" font-family="sans-serif" font-size="12" lengthAdjust="spacing" textLength="161.3906" x="929.8887" y="839.1924">Sistem validasi format gambar</text><rect fill="#F1F1F1" height="35.0938" rx="12.5" ry="12.5" style="stroke:#181818;stroke-width:0.5;" width="142.7129" x="939.2275" y="871.8291"/><text fill="#000000" font-family="sans-serif" font-size="12" lengthAdjust="spacing" textLength="122.7129" x="949.2275" y="894.2861">Sistem simpan gambar</text><rect fill="#F1F1F1" height="35.0938" rx="12.5" ry="12.5" style="stroke:#181818;stroke-width:0.5;" width="142.7363" x="939.2158" y="941.9229"/><text fill="#000000" font-family="sans-serif" font-size="12" lengthAdjust="spacing" textLength="122.7363" x="949.2158" y="964.3799">Sistem tambah 10 poin</text><rect fill="#F1F1F1" height="35.0938" rx="12.5" ry="12.5" style="stroke:#181818;stroke-width:0.5;" width="169.3965" x="925.8857" y="997.0166"/><text fill="#000000" font-family="sans-serif" font-size="12" lengthAdjust="spacing" textLength="149.3965" x="935.8857" y="1019.4736">Sistem catat ke riwayat poin</text><polygon fill="#F1F1F1" points="925.283,708.8057,1095.885,708.8057,1107.885,720.8057,1095.885,732.8057,925.283,732.8057,913.283,720.8057,925.283,708.8057" style="stroke:#181818;stroke-width:0.5;"/><text fill="#000000" font-family="sans-serif" font-size="11" lengthAdjust="spacing" textLength="13.4546" x="1014.584" y="744.2246">Ya</text><text fill="#000000" font-family="sans-serif" font-size="11" lengthAdjust="spacing" textLength="170.6021" x="925.283" y="725.3066">Upload bukti Rating Google Maps?</text><polygon fill="#F1F1F1" points="1010.584,1052.1104,1022.584,1064.1104,1010.584,1076.1104,998.584,1064.1104,1010.584,1052.1104" style="stroke:#181818;stroke-width:0.5;"/><rect fill="#555555" height="6" rx="2.5" ry="2.5" style="stroke:#555555;stroke-width:1.0;" width="481.387" x="654.498" y="1096.1104"/><rect fill="#F1F1F1" height="35.0938" rx="12.5" ry="12.5" style="stroke:#181818;stroke-width:0.5;" width="214.1445" x="788.8164" y="1122.1104"/><text fill="#000000" font-family="sans-serif" font-size="12" lengthAdjust="spacing" textLength="194.1445" x="798.8164" y="1144.5674">Sistem update saldo poin pelanggan</text><rect fill="#F1F1F1" height="35.0938" rx="12.5" ry="12.5" style="stroke:#181818;stroke-width:0.5;" width="166.0566" x="812.8604" y="1177.2041"/><text fill="#000000" font-family="sans-serif" font-size="12" lengthAdjust="spacing" textLength="146.0566" x="822.8604" y="1199.6611">Tampilkan notifikasi sukses</text><polygon fill="#F1F1F1" points="802.9553,578.7939,988.822,578.7939,1000.822,590.7939,988.822,602.7939,802.9553,602.7939,790.9553,590.7939,802.9553,578.7939" style="stroke:#181818;stroke-width:0.5;"/><text fill="#000000" font-family="sans-serif" font-size="11" lengthAdjust="spacing" textLength="13.4546" x="899.8887" y="614.2129">Ya</text><text fill="#000000" font-family="sans-serif" font-size="11" lengthAdjust="spacing" textLength="185.8667" x="802.9553" y="595.2949">Tambah poin dari aktivitas marketing?</text><polygon fill="#F1F1F1" points="895.8887,1232.2979,907.8887,1244.2979,895.8887,1256.2979,883.8887,1244.2979,895.8887,1232.2979" style="stroke:#181818;stroke-width:0.5;"/><polygon fill="#F1F1F1" points="1205.5479,216.4063,1293.0054,216.4063,1305.0054,228.4063,1293.0054,240.4063,1205.5479,240.4063,1193.5479,228.4063,1205.5479,216.4063" style="stroke:#181818;stroke-width:0.5;"/><text fill="#000000" font-family="sans-serif" font-size="11" lengthAdjust="spacing" textLength="13.4546" x="1253.2766" y="251.8252">Ya</text><text fill="#000000" font-family="sans-serif" font-size="11" lengthAdjust="spacing" textLength="87.4575" x="1205.5479" y="232.9072">Hapus Pelanggan</text><text fill="#000000" font-family="sans-serif" font-size="11" lengthAdjust="spacing" textLength="75.8291" x="1305.0054" y="225.9893">Cari Pelanggan</text><rect fill="#F1F1F1" height="35.0938" rx="12.5" ry="12.5" style="stroke:#181818;stroke-width:0.5;" width="138.084" x="1180.2346" y="273.3252"/><text fill="#000000" font-family="sans-serif" font-size="12" lengthAdjust="spacing" textLength="118.084" x="1190.2346" y="295.7822">Admin pilih pelanggan</text><rect fill="#F1F1F1" height="35.0938" rx="12.5" ry="12.5" style="stroke:#181818;stroke-width:0.5;" width="112.7129" x="1192.9202" y="328.4189"/><text fill="#000000" font-family="sans-serif" font-size="12" lengthAdjust="spacing" textLength="92.7129" x="1202.9202" y="350.876">Konfirmasi hapus</text><rect fill="#F1F1F1" height="35.0938" rx="12.5" ry="12.5" style="stroke:#181818;stroke-width:0.5;" width="178.7832" x="1159.885" y="383.5127"/><text fill="#000000" font-family="sans-serif" font-size="12" lengthAdjust="spacing" textLength="158.7832" x="1169.885" y="405.9697">Sistem hapus data pelanggan</text><rect fill="#F1F1F1" height="35.0938" rx="12.5" ry="12.5" style="stroke:#181818;stroke-width:0.5;" width="166.0566" x="1166.2483" y="438.6064"/><text fill="#000000" font-family="sans-serif" font-size="12" lengthAdjust="spacing" textLength="146.0566" x="1176.2483" y="461.0635">Tampilkan notifikasi sukses</text><rect fill="#F1F1F1" height="35.0938" rx="12.5" ry="12.5" style="stroke:#181818;stroke-width:0.5;" width="187.4258" x="1379.343" y="683.7119"/><text fill="#000000" font-family="sans-serif" font-size="12" lengthAdjust="spacing" textLength="167.4258" x="1389.343" y="706.1689">Admin input keyword pencarian</text><rect fill="#F1F1F1" height="35.0938" rx="12.5" ry="12.5" style="stroke:#181818;stroke-width:0.5;" width="228.7754" x="1358.6682" y="753.8057"/><text fill="#000000" font-family="sans-serif" font-size="12" lengthAdjust="spacing" textLength="208.7754" x="1368.6682" y="776.2627">Sistem filter berdasarkan nama/telepon</text><rect fill="#F1F1F1" height="35.0938" rx="12.5" ry="12.5" style="stroke:#181818;stroke-width:0.5;" width="159.4063" x="1393.3528" y="812.8174"/><text fill="#000000" font-family="sans-serif" font-size="12" lengthAdjust="spacing" textLength="139.4063" x="1403.3528" y="835.2744">Tampilkan hasil pencarian</text><ellipse cx="783.9189" cy="1307.2979" fill="none" rx="11" ry="11" style="stroke:#222222;stroke-width:1.0;"/><ellipse cx="783.9189" cy="1307.2979" fill="#222222" rx="6" ry="6" style="stroke:#222222;stroke-width:1.0;"/><line style="stroke:#181818;stroke-width:1.0;" x1="783.9189" x2="783.9189" y1="86.2188" y2="106.2188"/><polygon fill="#181818" points="779.9189,96.2188,783.9189,106.2188,787.9189,96.2188,783.9189,100.2188" style="stroke:#181818;stroke-width:1.0;"/><line style="stroke:#181818;stroke-width:1.0;" x1="783.9189" x2="783.9189" y1="141.3125" y2="161.3125"/><polygon fill="#181818" points="779.9189,151.3125,783.9189,161.3125,787.9189,151.3125,783.9189,155.3125" style="stroke:#181818;stroke-width:1.0;"/><line style="stroke:#181818;stroke-width:1.0;" x1="244.1445" x2="244.1445" y1="308.4189" y2="328.4189"/><polygon fill="#181818" points="240.1445,318.4189,244.1445,328.4189,248.1445,318.4189,244.1445,322.4189" style="stroke:#181818;stroke-width:1.0;"/><line style="stroke:#181818;stroke-width:1.0;" x1="244.1445" x2="244.1445" y1="363.5127" y2="383.5127"/><polygon fill="#181818" points="240.1445,373.5127,244.1445,383.5127,248.1445,373.5127,244.1445,377.5127" style="stroke:#181818;stroke-width:1.0;"/><line style="stroke:#181818;stroke-width:1.0;" x1="128.9678" x2="128.9678" y1="507.7002" y2="542.7002"/><polygon fill="#181818" points="124.9678,532.7002,128.9678,542.7002,132.9678,532.7002,128.9678,536.7002" style="stroke:#181818;stroke-width:1.0;"/><line style="stroke:#181818;stroke-width:1.0;" x1="359.3213" x2="359.3213" y1="507.7002" y2="542.7002"/><polygon fill="#181818" points="355.3213,532.7002,359.3213,542.7002,363.3213,532.7002,359.3213,536.7002" style="stroke:#181818;stroke-width:1.0;"/><line style="stroke:#181818;stroke-width:1.0;" x1="154.4866" x2="128.9678" y1="450.6064" y2="450.6064"/><line style="stroke:#181818;stroke-width:1.0;" x1="128.9678" x2="128.9678" y1="450.6064" y2="472.6064"/><polygon fill="#181818" points="124.9678,462.6064,128.9678,472.6064,132.9678,462.6064,128.9678,466.6064" style="stroke:#181818;stroke-width:1.0;"/><line style="stroke:#181818;stroke-width:1.0;" x1="333.8025" x2="359.3213" y1="450.6064" y2="450.6064"/><line style="stroke:#181818;stroke-width:1.0;" x1="359.3213" x2="359.3213" y1="450.6064" y2="472.6064"/><polygon fill="#181818" points="355.3213,462.6064,359.3213,472.6064,363.3213,462.6064,359.3213,466.6064" style="stroke:#181818;stroke-width:1.0;"/><line style="stroke:#181818;stroke-width:1.0;" x1="359.3213" x2="359.3213" y1="577.7939" y2="583.7939"/><line style="stroke:#181818;stroke-width:1.0;" x1="359.3213" x2="244.1445" y1="583.7939" y2="583.7939"/><line style="stroke:#181818;stroke-width:1.0;" x1="244.1445" x2="244.1445" y1="583.7939" y2="1276.2979"/><polygon fill="#181818" points="240.1445,1266.2979,244.1445,1276.2979,248.1445,1266.2979,244.1445,1270.2979" style="stroke:#181818;stroke-width:1.0;"/><line style="stroke:#181818;stroke-width:1.0;" x1="244.1445" x2="244.1445" y1="418.6064" y2="438.6064"/><polygon fill="#181818" points="240.1445,428.6064,244.1445,438.6064,248.1445,428.6064,244.1445,432.6064" style="stroke:#181818;stroke-width:1.0;"/><line style="stroke:#181818;stroke-width:1.0;" x1="553.1025" x2="553.1025" y1="308.4189" y2="328.4189"/><polygon fill="#181818" points="549.1025,318.4189,553.1025,328.4189,557.1025,318.4189,553.1025,322.4189" style="stroke:#181818;stroke-width:1.0;"/><line style="stroke:#181818;stroke-width:1.0;" x1="553.1025" x2="553.1025" y1="363.5127" y2="383.5127"/><polygon fill="#181818" points="549.1025,373.5127,553.1025,383.5127,557.1025,373.5127,553.1025,377.5127" style="stroke:#181818;stroke-width:1.0;"/><line style="stroke:#181818;stroke-width:1.0;" x1="553.1025" x2="553.1025" y1="418.6064" y2="438.6064"/><polygon fill="#181818" points="549.1025,428.6064,553.1025,438.6064,557.1025,428.6064,553.1025,432.6064" style="stroke:#181818;stroke-width:1.0;"/><line style="stroke:#181818;stroke-width:1.0;" x1="553.1025" x2="553.1025" y1="473.7002" y2="508.7002"/><polygon fill="#181818" points="549.1025,498.7002,553.1025,508.7002,557.1025,498.7002,553.1025,502.7002" style="stroke:#181818;stroke-width:1.0;"/><line style="stroke:#181818;stroke-width:1.0;" x1="895.8887" x2="895.8887" y1="308.4189" y2="328.4189"/><polygon fill="#181818" points="891.8887,318.4189,895.8887,328.4189,899.8887,318.4189,895.8887,322.4189" style="stroke:#181818;stroke-width:1.0;"/><line style="stroke:#181818;stroke-width:1.0;" x1="895.8887" x2="895.8887" y1="363.5127" y2="383.5127"/><polygon fill="#181818" points="891.8887,373.5127,895.8887,383.5127,899.8887,373.5127,895.8887,377.5127" style="stroke:#181818;stroke-width:1.0;"/><line style="stroke:#181818;stroke-width:1.0;" x1="895.8887" x2="895.8887" y1="418.6064" y2="438.6064"/><polygon fill="#181818" points="891.8887,428.6064,895.8887,438.6064,899.8887,428.6064,895.8887,432.6064" style="stroke:#181818;stroke-width:1.0;"/><line style="stroke:#181818;stroke-width:1.0;" x1="895.8887" x2="895.8887" y1="473.7002" y2="508.7002"/><polygon fill="#181818" points="891.8887,498.7002,895.8887,508.7002,899.8887,498.7002,895.8887,502.7002" style="stroke:#181818;stroke-width:1.0;"/><line style="stroke:#181818;stroke-width:1.0;" x1="769.1934" x2="769.1934" y1="792.8174" y2="816.7354"/><polygon fill="#181818" points="765.1934,806.7354,769.1934,816.7354,773.1934,806.7354,769.1934,810.7354" style="stroke:#181818;stroke-width:1.0;"/><line style="stroke:#181818;stroke-width:1.0;" x1="769.1934" x2="769.1934" y1="851.8291" y2="871.8291"/><polygon fill="#181818" points="765.1934,861.8291,769.1934,871.8291,773.1934,861.8291,769.1934,865.8291" style="stroke:#181818;stroke-width:1.0;"/><line style="stroke:#181818;stroke-width:1.0;" x1="769.1934" x2="769.1934" y1="906.9229" y2="941.9229"/><polygon fill="#181818" points="765.1934,931.9229,769.1934,941.9229,773.1934,931.9229,769.1934,935.9229" style="stroke:#181818;stroke-width:1.0;"/><line style="stroke:#181818;stroke-width:1.0;" x1="769.1934" x2="769.1934" y1="977.0166" y2="997.0166"/><polygon fill="#181818" points="765.1934,987.0166,769.1934,997.0166,773.1934,987.0166,769.1934,991.0166" style="stroke:#181818;stroke-width:1.0;"/><line style="stroke:#181818;stroke-width:1.0;" x1="769.1934" x2="769.1934" y1="732.8057" y2="757.7236"/><polygon fill="#181818" points="765.1934,747.7236,769.1934,757.7236,773.1934,747.7236,769.1934,751.7236" style="stroke:#181818;stroke-width:1.0;"/><line style="stroke:#181818;stroke-width:1.0;" x1="855.1748" x2="869.8887" y1="720.8057" y2="720.8057"/><polygon fill="#181818" points="865.8887,879.376,869.8887,889.376,873.8887,879.376,869.8887,883.376" style="stroke:#181818;stroke-width:1.0;"/><line style="stroke:#181818;stroke-width:1.0;" x1="869.8887" x2="869.8887" y1="720.8057" y2="1064.1104"/><line style="stroke:#181818;stroke-width:1.0;" x1="869.8887" x2="781.1934" y1="1064.1104" y2="1064.1104"/><polygon fill="#181818" points="791.1934,1060.1104,781.1934,1064.1104,791.1934,1068.1104,787.1934,1064.1104" style="stroke:#181818;stroke-width:1.0;"/><line style="stroke:#181818;stroke-width:1.0;" x1="769.1934" x2="769.1934" y1="1032.1104" y2="1052.1104"/><polygon fill="#181818" points="765.1934,1042.1104,769.1934,1052.1104,773.1934,1042.1104,769.1934,1046.1104" style="stroke:#181818;stroke-width:1.0;"/><line style="stroke:#181818;stroke-width:1.0;" x1="1010.584" x2="1010.584" y1="792.8174" y2="816.7354"/><polygon fill="#181818" points="1006.584,806.7354,1010.584,816.7354,1014.584,806.7354,1010.584,810.7354" style="stroke:#181818;stroke-width:1.0;"/><line style="stroke:#181818;stroke-width:1.0;" x1="1010.584" x2="1010.584" y1="851.8291" y2="871.8291"/><polygon fill="#181818" points="1006.584,861.8291,1010.584,871.8291,1014.584,861.8291,1010.584,865.8291" style="stroke:#181818;stroke-width:1.0;"/><line style="stroke:#181818;stroke-width:1.0;" x1="1010.584" x2="1010.584" y1="906.9229" y2="941.9229"/><polygon fill="#181818" points="1006.584,931.9229,1010.584,941.9229,1014.584,931.9229,1010.584,935.9229" style="stroke:#181818;stroke-width:1.0;"/><line style="stroke:#181818;stroke-width:1.0;" x1="1010.584" x2="1010.584" y1="977.0166" y2="997.0166"/><polygon fill="#181818" points="1006.584,987.0166,1010.584,997.0166,1014.584,987.0166,1010.584,991.0166" style="stroke:#181818;stroke-width:1.0;"/><line style="stroke:#181818;stroke-width:1.0;" x1="1010.584" x2="1010.584" y1="732.8057" y2="757.7236"/><polygon fill="#181818" points="1006.584,747.7236,1010.584,757.7236,1014.584,747.7236,1010.584,751.7236" style="stroke:#181818;stroke-width:1.0;"/><line style="stroke:#181818;stroke-width:1.0;" x1="1107.885" x2="1119.885" y1="720.8057" y2="720.8057"/><polygon fill="#181818" points="1115.885,879.376,1119.885,889.376,1123.885,879.376,1119.885,883.376" style="stroke:#181818;stroke-width:1.0;"/><line style="stroke:#181818;stroke-width:1.0;" x1="1119.885" x2="1119.885" y1="720.8057" y2="1064.1104"/><line style="stroke:#181818;stroke-width:1.0;" x1="1119.885" x2="1022.584" y1="1064.1104" y2="1064.1104"/><polygon fill="#181818" points="1032.584,1060.1104,1022.584,1064.1104,1032.584,1068.1104,1028.584,1064.1104" style="stroke:#181818;stroke-width:1.0;"/><line style="stroke:#181818;stroke-width:1.0;" x1="1010.584" x2="1010.584" y1="1032.1104" y2="1052.1104"/><polygon fill="#181818" points="1006.584,1042.1104,1010.584,1052.1104,1014.584,1042.1104,1010.584,1046.1104" style="stroke:#181818;stroke-width:1.0;"/><line style="stroke:#181818;stroke-width:1.0;" x1="769.1934" x2="769.1934" y1="688.8057" y2="708.8057"/><polygon fill="#181818" points="765.1934,698.8057,769.1934,708.8057,773.1934,698.8057,769.1934,702.8057" style="stroke:#181818;stroke-width:1.0;"/><line style="stroke:#181818;stroke-width:1.0;" x1="1010.584" x2="1010.584" y1="688.8057" y2="708.8057"/><polygon fill="#181818" points="1006.584,698.8057,1010.584,708.8057,1014.584,698.8057,1010.584,702.8057" style="stroke:#181818;stroke-width:1.0;"/><line style="stroke:#181818;stroke-width:1.0;" x1="769.1934" x2="769.1934" y1="1076.1104" y2="1096.1104"/><polygon fill="#181818" points="765.1934,1086.1104,769.1934,1096.1104,773.1934,1086.1104,769.1934,1090.1104" style="stroke:#181818;stroke-width:1.0;"/><line style="stroke:#181818;stroke-width:1.0;" x1="1010.584" x2="1010.584" y1="1076.1104" y2="1096.1104"/><polygon fill="#181818" points="1006.584,1086.1104,1010.584,1096.1104,1014.584,1086.1104,1010.584,1090.1104" style="stroke:#181818;stroke-width:1.0;"/><line style="stroke:#181818;stroke-width:1.0;" x1="895.8887" x2="895.8887" y1="662.8057" y2="682.8057"/><polygon fill="#181818" points="891.8887,672.8057,895.8887,682.8057,899.8887,672.8057,895.8887,676.8057" style="stroke:#181818;stroke-width:1.0;"/><line style="stroke:#181818;stroke-width:1.0;" x1="895.8887" x2="895.8887" y1="1102.1104" y2="1122.1104"/><polygon fill="#181818" points="891.8887,1112.1104,895.8887,1122.1104,899.8887,1112.1104,895.8887,1116.1104" style="stroke:#181818;stroke-width:1.0;"/><line style="stroke:#181818;stroke-width:1.0;" x1="895.8887" x2="895.8887" y1="1157.2041" y2="1177.2041"/><polygon fill="#181818" points="891.8887,1167.2041,895.8887,1177.2041,899.8887,1167.2041,895.8887,1171.2041" style="stroke:#181818;stroke-width:1.0;"/><line style="stroke:#181818;stroke-width:1.0;" x1="895.8887" x2="895.8887" y1="602.7939" y2="627.7119"/><polygon fill="#181818" points="891.8887,617.7119,895.8887,627.7119,899.8887,617.7119,895.8887,621.7119" style="stroke:#181818;stroke-width:1.0;"/><line style="stroke:#181818;stroke-width:1.0;" x1="1000.822" x2="1145.885" y1="590.7939" y2="590.7939"/><polygon fill="#181818" points="1141.885,914.4229,1145.885,924.4229,1149.885,914.4229,1145.885,918.4229" style="stroke:#181818;stroke-width:1.0;"/><line style="stroke:#181818;stroke-width:1.0;" x1="1145.885" x2="1145.885" y1="590.7939" y2="1244.2979"/><line style="stroke:#181818;stroke-width:1.0;" x1="1145.885" x2="907.8887" y1="1244.2979" y2="1244.2979"/><polygon fill="#181818" points="917.8887,1240.2979,907.8887,1244.2979,917.8887,1248.2979,913.8887,1244.2979" style="stroke:#181818;stroke-width:1.0;"/><line style="stroke:#181818;stroke-width:1.0;" x1="895.8887" x2="895.8887" y1="1212.2979" y2="1232.2979"/><polygon fill="#181818" points="891.8887,1222.2979,895.8887,1232.2979,899.8887,1222.2979,895.8887,1226.2979" style="stroke:#181818;stroke-width:1.0;"/><line style="stroke:#181818;stroke-width:1.0;" x1="895.8887" x2="895.8887" y1="543.7939" y2="578.7939"/><polygon fill="#181818" points="891.8887,568.7939,895.8887,578.7939,899.8887,568.7939,895.8887,572.7939" style="stroke:#181818;stroke-width:1.0;"/><line style="stroke:#181818;stroke-width:1.0;" x1="1249.2766" x2="1249.2766" y1="308.4189" y2="328.4189"/><polygon fill="#181818" points="1245.2766,318.4189,1249.2766,328.4189,1253.2766,318.4189,1249.2766,322.4189" style="stroke:#181818;stroke-width:1.0;"/><line style="stroke:#181818;stroke-width:1.0;" x1="1249.2766" x2="1249.2766" y1="363.5127" y2="383.5127"/><polygon fill="#181818" points="1245.2766,373.5127,1249.2766,383.5127,1253.2766,373.5127,1249.2766,377.5127" style="stroke:#181818;stroke-width:1.0;"/><line style="stroke:#181818;stroke-width:1.0;" x1="1249.2766" x2="1249.2766" y1="418.6064" y2="438.6064"/><polygon fill="#181818" points="1245.2766,428.6064,1249.2766,438.6064,1253.2766,428.6064,1249.2766,432.6064" style="stroke:#181818;stroke-width:1.0;"/><line style="stroke:#181818;stroke-width:1.0;" x1="1473.0559" x2="1473.0559" y1="718.8057" y2="753.8057"/><polygon fill="#181818" points="1469.0559,743.8057,1473.0559,753.8057,1477.0559,743.8057,1473.0559,747.8057" style="stroke:#181818;stroke-width:1.0;"/><line style="stroke:#181818;stroke-width:1.0;" x1="1473.0559" x2="1473.0559" y1="788.8994" y2="812.8174"/><polygon fill="#181818" points="1469.0559,802.8174,1473.0559,812.8174,1477.0559,802.8174,1473.0559,806.8174" style="stroke:#181818;stroke-width:1.0;"/><line style="stroke:#181818;stroke-width:1.0;" x1="244.1445" x2="244.1445" y1="240.4063" y2="273.3252"/><polygon fill="#181818" points="240.1445,263.3252,244.1445,273.3252,248.1445,263.3252,244.1445,267.3252" style="stroke:#181818;stroke-width:1.0;"/><line style="stroke:#181818;stroke-width:1.0;" x1="553.1025" x2="553.1025" y1="240.4063" y2="273.3252"/><polygon fill="#181818" points="549.1025,263.3252,553.1025,273.3252,557.1025,263.3252,553.1025,267.3252" style="stroke:#181818;stroke-width:1.0;"/><line style="stroke:#181818;stroke-width:1.0;" x1="553.1025" x2="553.1025" y1="543.7939" y2="1276.2979"/><polygon fill="#181818" points="549.1025,1266.2979,553.1025,1276.2979,557.1025,1266.2979,553.1025,1270.2979" style="stroke:#181818;stroke-width:1.0;"/><line style="stroke:#181818;stroke-width:1.0;" x1="895.8887" x2="895.8887" y1="240.4063" y2="273.3252"/><polygon fill="#181818" points="891.8887,263.3252,895.8887,273.3252,899.8887,263.3252,895.8887,267.3252" style="stroke:#181818;stroke-width:1.0;"/><line style="stroke:#181818;stroke-width:1.0;" x1="895.8887" x2="895.8887" y1="1256.2979" y2="1276.2979"/><polygon fill="#181818" points="891.8887,1266.2979,895.8887,1276.2979,899.8887,1266.2979,895.8887,1270.2979" style="stroke:#181818;stroke-width:1.0;"/><line style="stroke:#181818;stroke-width:1.0;" x1="1249.2766" x2="1249.2766" y1="240.4063" y2="273.3252"/><polygon fill="#181818" points="1245.2766,263.3252,1249.2766,273.3252,1253.2766,263.3252,1249.2766,267.3252" style="stroke:#181818;stroke-width:1.0;"/><line style="stroke:#181818;stroke-width:1.0;" x1="1249.2766" x2="1249.2766" y1="473.7002" y2="1276.2979"/><polygon fill="#181818" points="1245.2766,1266.2979,1249.2766,1276.2979,1253.2766,1266.2979,1249.2766,1270.2979" style="stroke:#181818;stroke-width:1.0;"/><line style="stroke:#181818;stroke-width:1.0;" x1="298.6406" x2="503.7949" y1="228.4063" y2="228.4063"/><polygon fill="#181818" points="493.7949,224.4063,503.7949,228.4063,493.7949,232.4063,497.7949,228.4063" style="stroke:#181818;stroke-width:1.0;"/><line style="stroke:#181818;stroke-width:1.0;" x1="602.4102" x2="856.3726" y1="228.4063" y2="228.4063"/><polygon fill="#181818" points="846.3726,224.4063,856.3726,228.4063,846.3726,232.4063,850.3726,228.4063" style="stroke:#181818;stroke-width:1.0;"/><line style="stroke:#181818;stroke-width:1.0;" x1="935.4048" x2="1193.5479" y1="228.4063" y2="228.4063"/><polygon fill="#181818" points="1183.5479,224.4063,1193.5479,228.4063,1183.5479,232.4063,1187.5479,228.4063" style="stroke:#181818;stroke-width:1.0;"/><line style="stroke:#181818;stroke-width:1.0;" x1="783.9189" x2="783.9189" y1="196.4063" y2="201.4063"/><line style="stroke:#181818;stroke-width:1.0;" x1="783.9189" x2="244.1445" y1="201.4063" y2="201.4063"/><line style="stroke:#181818;stroke-width:1.0;" x1="244.1445" x2="244.1445" y1="201.4063" y2="216.4063"/><polygon fill="#181818" points="240.1445,206.4063,244.1445,216.4063,248.1445,206.4063,244.1445,210.4063" style="stroke:#181818;stroke-width:1.0;"/><line style="stroke:#181818;stroke-width:1.0;" x1="1305.0054" x2="1473.0559" y1="228.4063" y2="228.4063"/><line style="stroke:#181818;stroke-width:1.0;" x1="1473.0559" x2="1473.0559" y1="228.4063" y2="683.7119"/><polygon fill="#181818" points="1469.0559,673.7119,1473.0559,683.7119,1477.0559,673.7119,1473.0559,677.7119" style="stroke:#181818;stroke-width:1.0;"/><line style="stroke:#181818;stroke-width:1.0;" x1="1473.0559" x2="1473.0559" y1="847.9111" y2="1276.2979"/><polygon fill="#181818" points="1469.0559,1266.2979,1473.0559,1276.2979,1477.0559,1266.2979,1473.0559,1270.2979" style="stroke:#181818;stroke-width:1.0;"/><line style="stroke:#181818;stroke-width:1.0;" x1="244.1445" x2="1473.0559" y1="1276.2979" y2="1276.2979"/><line style="stroke:#181818;stroke-width:1.0;" x1="783.9189" x2="783.9189" y1="1276.2979" y2="1296.2979"/><polygon fill="#181818" points="779.9189,1286.2979,783.9189,1296.2979,787.9189,1286.2979,783.9189,1290.2979" style="stroke:#181818;stroke-width:1.0;"/><!--SRC=[nLRDJjn03BxdAImErRALolRGotAeKAaeWbQ8XKEbNincabYPp4Gp3cXlVPO-Mf-adidV4fPIMgJcj8a_sz_diJthIp8rEgm0rqotn9jLWRK2ksRChKaI9jOAZZeZ71FcWlvcpfIs6k52QJHvZWPUmOKb0-TsWveOVP9uHiV9yWmzkOEZj19hfKoEfLSU2jHOYLlT1pXCbYlohAe0mgecNOevnKoYRACIoc1sL7g2ZNo2b0H9nVjzu48Pc5rXTOF5o6i_0NcMRVfIKmdS8hP2HiIfgHi6oOoIr82nbNN0IglQzf2Etwq8J4KKK71fRO7KbsqNy4qgMLYvLi90y2ksb6B4gq6eSawSzzeO4z-zmy73iwtZYz9UYLeXKcx5wnXwgkfOFCQfpabQOvaoAeCQtuI3QL7Af9J5Nqb85DHzJ8ctoZfHqnKudiM3qaRNM5aXr3otjBsjgKMFsYdgQK63Z7CgaE5OCP9-beYE1O-j6MCyZVEeKmkr3CTZ2BQC6jYXyJ8Sz1ZCqHrkXFmOQcYzhkk3HGha2B2C0uiUAdIbOZBvxWxSCHX3-255U3Bhok6bptjTQuift3II3bPitGPEZSnzs14xymrvEy_CiWrD7HnF3X_2fdqXB2efGHwekiVntG0y1UiKlvjediBMqd8CfTfn0lqp3anVAy0SoVo-OfSO3WPEhCrboNx6slzvqLpdMudN_ohSsyLBLqxUxdVQWztMhO5ngbvimtt2kl5_kUBEhCb8AYnPYX3c_Wp7J_-okM3s8KprxbijxaefykREkbGIcBLWf_ie8ott2To4EyNBIWW9PICVt5_38vj2UEZjO6t14c4PJZClM3pcyrLJISXuzI_dS_dqy_kFwI9OmkjsmZhpvLRdYgrheivurMz1yCBC8mL4VyuEBcjfkZUBnKBWit7T3RiJP3IapyctttqKln_8X_ggyAT4Bj1V]--></g></svg>