<svg xmlns="http://www.w3.org/2000/svg" xmlns:xlink="http://www.w3.org/1999/xlink" contentStyleType="text/css" height="1002px" preserveAspectRatio="none" style="width:678px;height:1002px;background:#FFFFFF;" version="1.1" viewBox="0 0 678 1002" width="678px" zoomAndPan="magnify"><title>Activity Diagram</title><defs/><g><text fill="#000000" font-family="sans-serif" font-size="14" font-weight="bold" lengthAdjust="spacing" textLength="110.4824" x="282.7246" y="34.5332">Activity Diagram</text><text fill="#000000" font-family="sans-serif" font-size="14" font-weight="bold" lengthAdjust="spacing" textLength="210.0273" x="232.9521" y="52.1426">Mengelola Produk &amp; Komposisi</text><ellipse cx="402.8096" cy="76.2188" fill="#222222" rx="10" ry="10" style="stroke:#222222;stroke-width:1.0;"/><rect fill="#F1F1F1" height="35.0938" rx="12.5" ry="12.5" style="stroke:#181818;stroke-width:0.5;" width="260.8145" x="272.4023" y="106.2188"/><text fill="#000000" font-family="sans-serif" font-size="12" lengthAdjust="spacing" textLength="240.8145" x="282.4023" y="128.6758">Bagian Inventori mengakses halaman produk</text><rect fill="#F1F1F1" height="35.0938" rx="12.5" ry="12.5" style="stroke:#181818;stroke-width:0.5;" width="205.4199" x="300.0996" y="161.3125"/><text fill="#000000" font-family="sans-serif" font-size="12" lengthAdjust="spacing" textLength="185.4199" x="310.0996" y="183.7695">Sistem menampilkan daftar produk</text><polygon fill="#F1F1F1" points="389.3604,216.4063,416.2588,216.4063,428.2588,228.4063,416.2588,240.4063,389.3604,240.4063,377.3604,228.4063,389.3604,216.4063" style="stroke:#181818;stroke-width:0.5;"/><text fill="#000000" font-family="sans-serif" font-size="11" lengthAdjust="spacing" textLength="26.8984" x="389.3604" y="232.9072">Aksi?</text><text fill="#000000" font-family="sans-serif" font-size="11" lengthAdjust="spacing" textLength="78.2622" x="299.0981" y="225.9893">Tambah Produk</text><text fill="#000000" font-family="sans-serif" font-size="11" lengthAdjust="spacing" textLength="64.2061" x="428.2588" y="225.9893">Ubah Produk</text><rect fill="#F1F1F1" height="35.0938" rx="12.5" ry="12.5" style="stroke:#181818;stroke-width:0.5;" width="156.0605" x="153.0449" y="250.4063"/><text fill="#000000" font-family="sans-serif" font-size="12" lengthAdjust="spacing" textLength="136.0605" x="163.0449" y="272.8633">Mengisi form produk baru</text><rect fill="#F1F1F1" height="35.0938" rx="12.5" ry="12.5" style="stroke:#181818;stroke-width:0.5;" width="183.4414" x="139.3545" y="305.5"/><text fill="#000000" font-family="sans-serif" font-size="12" lengthAdjust="spacing" textLength="163.4414" x="149.3545" y="327.957">Menentukan harga dan margin</text><rect fill="#F1F1F1" height="35.0938" rx="12.5" ry="12.5" style="stroke:#181818;stroke-width:0.5;" width="176.7383" x="142.7061" y="360.5938"/><text fill="#000000" font-family="sans-serif" font-size="12" lengthAdjust="spacing" textLength="156.7383" x="152.7061" y="383.0508">Sistem menyimpan data awal</text><polygon fill="#F1F1F1" points="173.9053,415.6875,288.2451,415.6875,300.2451,427.6875,288.2451,439.6875,173.9053,439.6875,161.9053,427.6875,173.9053,415.6875" style="stroke:#181818;stroke-width:0.5;"/><text fill="#000000" font-family="sans-serif" font-size="11" lengthAdjust="spacing" textLength="114.3398" x="173.9053" y="432.1885">Ada Resep/Komposisi?</text><text fill="#000000" font-family="sans-serif" font-size="11" lengthAdjust="spacing" textLength="13.4546" x="148.4507" y="425.2705">Ya</text><text fill="#000000" font-family="sans-serif" font-size="11" lengthAdjust="spacing" textLength="26.8984" x="300.2451" y="425.2705">Tidak</text><rect fill="#F1F1F1" height="35.0938" rx="12.5" ry="12.5" style="stroke:#181818;stroke-width:0.5;" width="127.3965" x="46.3379" y="504.7813"/><text fill="#000000" font-family="sans-serif" font-size="12" lengthAdjust="spacing" textLength="107.3965" x="56.3379" y="527.2383">Memilih bahan baku</text><rect fill="#F1F1F1" height="35.0938" rx="12.5" ry="12.5" style="stroke:#181818;stroke-width:0.5;" width="195.4824" x="12.2949" y="559.875"/><text fill="#000000" font-family="sans-serif" font-size="12" lengthAdjust="spacing" textLength="175.4824" x="22.2949" y="582.332">Menentukan satuan penggunaan</text><rect fill="#F1F1F1" height="35.0938" rx="12.5" ry="12.5" style="stroke:#181818;stroke-width:0.5;" width="194.8027" x="12.6348" y="622.4688"/><text fill="#000000" font-family="sans-serif" font-size="12" lengthAdjust="spacing" textLength="174.8027" x="22.6348" y="644.9258">Menentukan jumlah penggunaan</text><rect fill="#F1F1F1" height="35.0938" rx="12.5" ry="12.5" style="stroke:#181818;stroke-width:0.5;" width="198.0723" x="11" y="677.5625"/><text fill="#000000" font-family="sans-serif" font-size="12" lengthAdjust="spacing" textLength="178.0723" x="21" y="700.0195">Sistem menghitung estimasi HPP</text><polygon fill="#F1F1F1" points="110.0361,449.6875,122.0361,461.6875,110.0361,473.6875,98.0361,461.6875,110.0361,449.6875" style="stroke:#181818;stroke-width:0.5;"/><polygon fill="#F1F1F1" points="59.8889,732.6563,160.1833,732.6563,172.1833,744.6563,160.1833,756.6563,59.8889,756.6563,47.8889,744.6563,59.8889,732.6563" style="stroke:#181818;stroke-width:0.5;"/><text fill="#000000" font-family="sans-serif" font-size="11" lengthAdjust="spacing" textLength="100.2944" x="59.8889" y="749.1572">Tambah bahan lain?</text><text fill="#000000" font-family="sans-serif" font-size="11" lengthAdjust="spacing" textLength="13.4546" x="172.1833" y="742.2393">Ya</text><rect fill="#F1F1F1" height="35.0938" rx="12.5" ry="12.5" style="stroke:#181818;stroke-width:0.5;" width="150.7227" x="34.6748" y="798.9092"/><text fill="#000000" font-family="sans-serif" font-size="12" lengthAdjust="spacing" textLength="130.7227" x="44.6748" y="821.3662">Simpan komposisi resep</text><rect fill="#F1F1F1" height="35.0938" rx="12.5" ry="12.5" style="stroke:#181818;stroke-width:0.5;" width="198.084" x="253.0723" y="449.6875"/><text fill="#000000" font-family="sans-serif" font-size="12" lengthAdjust="spacing" textLength="178.084" x="263.0723" y="472.1445">Atur stok manual (untuk siap beli)</text><polygon fill="#F1F1F1" points="231.0752,840.0029,243.0752,852.0029,231.0752,864.0029,219.0752,852.0029,231.0752,840.0029" style="stroke:#181818;stroke-width:0.5;"/><rect fill="#F1F1F1" height="35.0938" rx="12.5" ry="12.5" style="stroke:#181818;stroke-width:0.5;" width="131.0586" x="165.5459" y="884.0029"/><text fill="#000000" font-family="sans-serif" font-size="12" lengthAdjust="spacing" textLength="111.0586" x="175.5459" y="906.46">Status produk = Aktif</text><rect fill="#F1F1F1" height="35.0938" rx="12.5" ry="12.5" style="stroke:#181818;stroke-width:0.5;" width="101.3633" x="523.8623" y="250.4063"/><text fill="#000000" font-family="sans-serif" font-size="12" lengthAdjust="spacing" textLength="81.3633" x="533.8623" y="272.8633">Memilih produk</text><rect fill="#F1F1F1" height="35.0938" rx="12.5" ry="12.5" style="stroke:#181818;stroke-width:0.5;" width="186.7754" x="481.1563" y="305.5"/><text fill="#000000" font-family="sans-serif" font-size="12" lengthAdjust="spacing" textLength="166.7754" x="491.1563" y="327.957">Mengubah data atau komposisi</text><rect fill="#F1F1F1" height="35.0938" rx="12.5" ry="12.5" style="stroke:#181818;stroke-width:0.5;" width="157.3906" x="495.8486" y="360.5938"/><text fill="#000000" font-family="sans-serif" font-size="12" lengthAdjust="spacing" textLength="137.3906" x="505.8486" y="383.0508">Sistem memperbarui data</text><polygon fill="#F1F1F1" points="402.8096,925.0967,414.8096,937.0967,402.8096,949.0967,390.8096,937.0967,402.8096,925.0967" style="stroke:#181818;stroke-width:0.5;"/><ellipse cx="402.8096" cy="980.0967" fill="none" rx="11" ry="11" style="stroke:#222222;stroke-width:1.0;"/><ellipse cx="402.8096" cy="980.0967" fill="#222222" rx="6" ry="6" style="stroke:#222222;stroke-width:1.0;"/><line style="stroke:#181818;stroke-width:1.0;" x1="402.8096" x2="402.8096" y1="86.2188" y2="106.2188"/><polygon fill="#181818" points="398.8096,96.2188,402.8096,106.2188,406.8096,96.2188,402.8096,100.2188" style="stroke:#181818;stroke-width:1.0;"/><line style="stroke:#181818;stroke-width:1.0;" x1="402.8096" x2="402.8096" y1="141.3125" y2="161.3125"/><polygon fill="#181818" points="398.8096,151.3125,402.8096,161.3125,406.8096,151.3125,402.8096,155.3125" style="stroke:#181818;stroke-width:1.0;"/><line style="stroke:#181818;stroke-width:1.0;" x1="231.0752" x2="231.0752" y1="285.5" y2="305.5"/><polygon fill="#181818" points="227.0752,295.5,231.0752,305.5,235.0752,295.5,231.0752,299.5" style="stroke:#181818;stroke-width:1.0;"/><line style="stroke:#181818;stroke-width:1.0;" x1="231.0752" x2="231.0752" y1="340.5938" y2="360.5938"/><polygon fill="#181818" points="227.0752,350.5938,231.0752,360.5938,235.0752,350.5938,231.0752,354.5938" style="stroke:#181818;stroke-width:1.0;"/><line style="stroke:#181818;stroke-width:1.0;" x1="110.0361" x2="110.0361" y1="539.875" y2="559.875"/><polygon fill="#181818" points="106.0361,549.875,110.0361,559.875,114.0361,549.875,110.0361,553.875" style="stroke:#181818;stroke-width:1.0;"/><line style="stroke:#181818;stroke-width:1.0;" x1="110.0361" x2="110.0361" y1="594.9688" y2="622.4688"/><polygon fill="#181818" points="106.0361,612.4688,110.0361,622.4688,114.0361,612.4688,110.0361,616.4688" style="stroke:#181818;stroke-width:1.0;"/><line style="stroke:#181818;stroke-width:1.0;" x1="110.0361" x2="110.0361" y1="657.5625" y2="677.5625"/><polygon fill="#181818" points="106.0361,667.5625,110.0361,677.5625,114.0361,667.5625,110.0361,671.5625" style="stroke:#181818;stroke-width:1.0;"/><line style="stroke:#181818;stroke-width:1.0;" x1="110.0361" x2="110.0361" y1="473.6875" y2="504.7813"/><polygon fill="#181818" points="106.0361,494.7813,110.0361,504.7813,114.0361,494.7813,110.0361,498.7813" style="stroke:#181818;stroke-width:1.0;"/><line style="stroke:#181818;stroke-width:1.0;" x1="172.1833" x2="221.0723" y1="744.6563" y2="744.6563"/><polygon fill="#181818" points="217.0723,614.9688,221.0723,604.9688,225.0723,614.9688,221.0723,610.9688" style="stroke:#181818;stroke-width:1.0;"/><line style="stroke:#181818;stroke-width:1.0;" x1="221.0723" x2="221.0723" y1="461.6875" y2="744.6563"/><line style="stroke:#181818;stroke-width:1.0;" x1="221.0723" x2="122.0361" y1="461.6875" y2="461.6875"/><polygon fill="#181818" points="132.0361,457.6875,122.0361,461.6875,132.0361,465.6875,128.0361,461.6875" style="stroke:#181818;stroke-width:1.0;"/><line style="stroke:#181818;stroke-width:1.0;" x1="110.0361" x2="110.0361" y1="712.6563" y2="732.6563"/><polygon fill="#181818" points="106.0361,722.6563,110.0361,732.6563,114.0361,722.6563,110.0361,726.6563" style="stroke:#181818;stroke-width:1.0;"/><line style="stroke:#181818;stroke-width:1.0;" x1="110.0361" x2="110.0361" y1="756.6563" y2="798.9092"/><polygon fill="#181818" points="106.0361,788.9092,110.0361,798.9092,114.0361,788.9092,110.0361,792.9092" style="stroke:#181818;stroke-width:1.0;"/><text fill="#000000" font-family="sans-serif" font-size="11" lengthAdjust="spacing" textLength="26.8984" x="114.0361" y="778.9922">Tidak</text><line style="stroke:#181818;stroke-width:1.0;" x1="161.9053" x2="110.0361" y1="427.6875" y2="427.6875"/><line style="stroke:#181818;stroke-width:1.0;" x1="110.0361" x2="110.0361" y1="427.6875" y2="449.6875"/><polygon fill="#181818" points="106.0361,439.6875,110.0361,449.6875,114.0361,439.6875,110.0361,443.6875" style="stroke:#181818;stroke-width:1.0;"/><line style="stroke:#181818;stroke-width:1.0;" x1="300.2451" x2="352.1143" y1="427.6875" y2="427.6875"/><line style="stroke:#181818;stroke-width:1.0;" x1="352.1143" x2="352.1143" y1="427.6875" y2="449.6875"/><polygon fill="#181818" points="348.1143,439.6875,352.1143,449.6875,356.1143,439.6875,352.1143,443.6875" style="stroke:#181818;stroke-width:1.0;"/><line style="stroke:#181818;stroke-width:1.0;" x1="110.0361" x2="110.0361" y1="834.0029" y2="852.0029"/><line style="stroke:#181818;stroke-width:1.0;" x1="110.0361" x2="219.0752" y1="852.0029" y2="852.0029"/><polygon fill="#181818" points="209.0752,848.0029,219.0752,852.0029,209.0752,856.0029,213.0752,852.0029" style="stroke:#181818;stroke-width:1.0;"/><line style="stroke:#181818;stroke-width:1.0;" x1="352.1143" x2="352.1143" y1="484.7813" y2="852.0029"/><line style="stroke:#181818;stroke-width:1.0;" x1="352.1143" x2="243.0752" y1="852.0029" y2="852.0029"/><polygon fill="#181818" points="253.0752,848.0029,243.0752,852.0029,253.0752,856.0029,249.0752,852.0029" style="stroke:#181818;stroke-width:1.0;"/><line style="stroke:#181818;stroke-width:1.0;" x1="231.0752" x2="231.0752" y1="395.6875" y2="415.6875"/><polygon fill="#181818" points="227.0752,405.6875,231.0752,415.6875,235.0752,405.6875,231.0752,409.6875" style="stroke:#181818;stroke-width:1.0;"/><line style="stroke:#181818;stroke-width:1.0;" x1="231.0752" x2="231.0752" y1="864.0029" y2="884.0029"/><polygon fill="#181818" points="227.0752,874.0029,231.0752,884.0029,235.0752,874.0029,231.0752,878.0029" style="stroke:#181818;stroke-width:1.0;"/><line style="stroke:#181818;stroke-width:1.0;" x1="574.5439" x2="574.5439" y1="285.5" y2="305.5"/><polygon fill="#181818" points="570.5439,295.5,574.5439,305.5,578.5439,295.5,574.5439,299.5" style="stroke:#181818;stroke-width:1.0;"/><line style="stroke:#181818;stroke-width:1.0;" x1="574.5439" x2="574.5439" y1="340.5938" y2="360.5938"/><polygon fill="#181818" points="570.5439,350.5938,574.5439,360.5938,578.5439,350.5938,574.5439,354.5938" style="stroke:#181818;stroke-width:1.0;"/><line style="stroke:#181818;stroke-width:1.0;" x1="377.3604" x2="231.0752" y1="228.4063" y2="228.4063"/><line style="stroke:#181818;stroke-width:1.0;" x1="231.0752" x2="231.0752" y1="228.4063" y2="250.4063"/><polygon fill="#181818" points="227.0752,240.4063,231.0752,250.4063,235.0752,240.4063,231.0752,244.4063" style="stroke:#181818;stroke-width:1.0;"/><line style="stroke:#181818;stroke-width:1.0;" x1="428.2588" x2="574.5439" y1="228.4063" y2="228.4063"/><line style="stroke:#181818;stroke-width:1.0;" x1="574.5439" x2="574.5439" y1="228.4063" y2="250.4063"/><polygon fill="#181818" points="570.5439,240.4063,574.5439,250.4063,578.5439,240.4063,574.5439,244.4063" style="stroke:#181818;stroke-width:1.0;"/><line style="stroke:#181818;stroke-width:1.0;" x1="231.0752" x2="231.0752" y1="919.0967" y2="937.0967"/><line style="stroke:#181818;stroke-width:1.0;" x1="231.0752" x2="390.8096" y1="937.0967" y2="937.0967"/><polygon fill="#181818" points="380.8096,933.0967,390.8096,937.0967,380.8096,941.0967,384.8096,937.0967" style="stroke:#181818;stroke-width:1.0;"/><line style="stroke:#181818;stroke-width:1.0;" x1="574.5439" x2="574.5439" y1="395.6875" y2="937.0967"/><line style="stroke:#181818;stroke-width:1.0;" x1="574.5439" x2="414.8096" y1="937.0967" y2="937.0967"/><polygon fill="#181818" points="424.8096,933.0967,414.8096,937.0967,424.8096,941.0967,420.8096,937.0967" style="stroke:#181818;stroke-width:1.0;"/><line style="stroke:#181818;stroke-width:1.0;" x1="402.8096" x2="402.8096" y1="196.4063" y2="216.4063"/><polygon fill="#181818" points="398.8096,206.4063,402.8096,216.4063,406.8096,206.4063,402.8096,210.4063" style="stroke:#181818;stroke-width:1.0;"/><line style="stroke:#181818;stroke-width:1.0;" x1="402.8096" x2="402.8096" y1="949.0967" y2="969.0967"/><polygon fill="#181818" points="398.8096,959.0967,402.8096,969.0967,406.8096,959.0967,402.8096,963.0967" style="stroke:#181818;stroke-width:1.0;"/><!--SRC=[TP9DQzn038RlyojqAhk7qhkNfcpf8Q4KbcvoAFIYZSSUPJwPqIJatrTZU-qsD3uO6xsI7hrIiHGIPlI0ZqpFnAzdWqb3V6GSOr2AYPs6unA4RuIZg7-77pgCsaM7SCgnhnO-mFVeKonKIAd2c5brNt4a370NddNWc0cyPA4jke11XrvYQSe-gEvCXRLl2lI9d9LOZuFKMIMA1jWTRQ4lUs2Z0-pkqL_GB0Hx1V9q3KmOO8ZPBwbmmLmFQrXOQYjlC8yeJG9u-QAmA3QGL_9fmc04V44t2wRNXD8Z_DH5fq_hv2lPBvnnsfDrqiZhxuBXoP4HCYCTBcWNlhy4AsT1hiqf6Moi0J6yBtsgteaXxqgtsKP3NCC8kZ1v5BzkJwV36sHuCIJBlzeyipga86DI-NV8ZpVtrAFTIaYloJrxzKQAYbUpGBlIwhQChKHtv9gXSBIoa53HmQwskQ0G9hXeH_ibE_GqRBlepYmEbUkoFyFHCWq7DJTv-C-5pDvVxsezczgayxOPwqR-zZ1yqhcT54rYQJJn27XIVm00]--></g></svg>