<svg xmlns="http://www.w3.org/2000/svg" xmlns:xlink="http://www.w3.org/1999/xlink" contentStyleType="text/css" height="643px" preserveAspectRatio="none" style="width:361px;height:643px;background:#FFFFFF;" version="1.1" viewBox="0 0 361 643" width="361px" zoomAndPan="magnify"><title>Activity Diagram</title><defs/><g><text fill="#000000" font-family="sans-serif" font-size="14" font-weight="bold" lengthAdjust="spacing" textLength="110.4824" x="123.9961" y="34.5332">Activity Diagram</text><text fill="#000000" font-family="sans-serif" font-size="14" font-weight="bold" lengthAdjust="spacing" textLength="196.8203" x="80.8271" y="52.1426">Mengelola Satuan &amp; Konversi</text><ellipse cx="174.2437" cy="76.2188" fill="#222222" rx="10" ry="10" style="stroke:#222222;stroke-width:1.0;"/><rect fill="#F1F1F1" height="35.0938" rx="12.5" ry="12.5" style="stroke:#181818;stroke-width:0.5;" width="260.1523" x="44.1675" y="106.2188"/><text fill="#000000" font-family="sans-serif" font-size="12" lengthAdjust="spacing" textLength="240.1523" x="54.1675" y="128.6758">Bagian Inventori mengakses halaman satuan</text><rect fill="#F1F1F1" height="35.0938" rx="12.5" ry="12.5" style="stroke:#181818;stroke-width:0.5;" width="204.7578" x="71.8647" y="161.3125"/><text fill="#000000" font-family="sans-serif" font-size="12" lengthAdjust="spacing" textLength="184.7578" x="81.8647" y="183.7695">Sistem menampilkan daftar satuan</text><polygon fill="#F1F1F1" points="139.3853,216.4063,209.1021,216.4063,221.1021,228.4063,209.1021,240.4063,139.3853,240.4063,127.3853,228.4063,139.3853,216.4063" style="stroke:#181818;stroke-width:0.5;"/><text fill="#000000" font-family="sans-serif" font-size="11" lengthAdjust="spacing" textLength="69.7168" x="139.3853" y="232.9072">Jenis Satuan?</text><text fill="#000000" font-family="sans-serif" font-size="11" lengthAdjust="spacing" textLength="67.2622" x="60.123" y="225.9893">Satuan Dasar</text><text fill="#000000" font-family="sans-serif" font-size="11" lengthAdjust="spacing" textLength="78.8906" x="221.1021" y="225.9893">Satuan Turunan</text><rect fill="#F1F1F1" height="35.0938" rx="12.5" ry="12.5" style="stroke:#181818;stroke-width:0.5;" width="146.75" x="11" y="250.4063"/><text fill="#000000" font-family="sans-serif" font-size="12" lengthAdjust="spacing" textLength="126.75" x="21" y="272.8633">Menambah satuan baru</text><rect fill="#F1F1F1" height="35.0938" rx="12.5" ry="12.5" style="stroke:#181818;stroke-width:0.5;" width="135.3887" x="16.6807" y="305.5"/><text fill="#000000" font-family="sans-serif" font-size="12" lengthAdjust="spacing" textLength="115.3887" x="26.6807" y="327.957">Tanpa faktor konversi</text><rect fill="#F1F1F1" height="35.0938" rx="12.5" ry="12.5" style="stroke:#181818;stroke-width:0.5;" width="137.375" x="15.6875" y="360.5938"/><text fill="#000000" font-family="sans-serif" font-size="12" lengthAdjust="spacing" textLength="117.375" x="25.6875" y="383.0508">Contoh: gram, ml, pcs</text><rect fill="#F1F1F1" height="35.0938" rx="12.5" ry="12.5" style="stroke:#181818;stroke-width:0.5;" width="163.4316" x="182.3965" y="250.4063"/><text fill="#000000" font-family="sans-serif" font-size="12" lengthAdjust="spacing" textLength="143.4316" x="192.3965" y="272.8633">Menambah satuan turunan</text><rect fill="#F1F1F1" height="35.0938" rx="12.5" ry="12.5" style="stroke:#181818;stroke-width:0.5;" width="134.0527" x="197.0859" y="305.5"/><text fill="#000000" font-family="sans-serif" font-size="12" lengthAdjust="spacing" textLength="114.0527" x="207.0859" y="327.957">Memilih satuan dasar</text><rect fill="#F1F1F1" height="35.0938" rx="12.5" ry="12.5" style="stroke:#181818;stroke-width:0.5;" width="172.7246" x="177.75" y="360.5938"/><text fill="#000000" font-family="sans-serif" font-size="12" lengthAdjust="spacing" textLength="152.7246" x="187.75" y="383.0508">Memasukkan faktor konversi</text><rect fill="#F1F1F1" height="35.0938" rx="12.5" ry="12.5" style="stroke:#181818;stroke-width:0.5;" width="146.7324" x="190.7461" y="415.6875"/><text fill="#000000" font-family="sans-serif" font-size="12" lengthAdjust="spacing" textLength="126.7324" x="200.7461" y="438.1445">Contoh: kg (1000 gram)</text><polygon fill="#F1F1F1" points="174.2437,456.7813,186.2437,468.7813,174.2437,480.7813,162.2437,468.7813,174.2437,456.7813" style="stroke:#181818;stroke-width:0.5;"/><rect fill="#F1F1F1" height="35.0938" rx="12.5" ry="12.5" style="stroke:#181818;stroke-width:0.5;" width="148.0801" x="100.2036" y="500.7813"/><text fill="#000000" font-family="sans-serif" font-size="12" lengthAdjust="spacing" textLength="128.0801" x="110.2036" y="523.2383">Menyimpan data satuan</text><rect fill="#F1F1F1" height="35.0938" rx="12.5" ry="12.5" style="stroke:#181818;stroke-width:0.5;" width="198.0664" x="75.2104" y="555.875"/><text fill="#000000" font-family="sans-serif" font-size="12" lengthAdjust="spacing" textLength="178.0664" x="85.2104" y="578.332">Sistem memvalidasi relasi satuan</text><ellipse cx="174.2437" cy="621.9688" fill="none" rx="11" ry="11" style="stroke:#222222;stroke-width:1.0;"/><ellipse cx="174.2437" cy="621.9688" fill="#222222" rx="6" ry="6" style="stroke:#222222;stroke-width:1.0;"/><line style="stroke:#181818;stroke-width:1.0;" x1="174.2437" x2="174.2437" y1="86.2188" y2="106.2188"/><polygon fill="#181818" points="170.2437,96.2188,174.2437,106.2188,178.2437,96.2188,174.2437,100.2188" style="stroke:#181818;stroke-width:1.0;"/><line style="stroke:#181818;stroke-width:1.0;" x1="174.2437" x2="174.2437" y1="141.3125" y2="161.3125"/><polygon fill="#181818" points="170.2437,151.3125,174.2437,161.3125,178.2437,151.3125,174.2437,155.3125" style="stroke:#181818;stroke-width:1.0;"/><line style="stroke:#181818;stroke-width:1.0;" x1="84.375" x2="84.375" y1="285.5" y2="305.5"/><polygon fill="#181818" points="80.375,295.5,84.375,305.5,88.375,295.5,84.375,299.5" style="stroke:#181818;stroke-width:1.0;"/><line style="stroke:#181818;stroke-width:1.0;" x1="84.375" x2="84.375" y1="340.5938" y2="360.5938"/><polygon fill="#181818" points="80.375,350.5938,84.375,360.5938,88.375,350.5938,84.375,354.5938" style="stroke:#181818;stroke-width:1.0;"/><line style="stroke:#181818;stroke-width:1.0;" x1="264.1123" x2="264.1123" y1="285.5" y2="305.5"/><polygon fill="#181818" points="260.1123,295.5,264.1123,305.5,268.1123,295.5,264.1123,299.5" style="stroke:#181818;stroke-width:1.0;"/><line style="stroke:#181818;stroke-width:1.0;" x1="264.1123" x2="264.1123" y1="340.5938" y2="360.5938"/><polygon fill="#181818" points="260.1123,350.5938,264.1123,360.5938,268.1123,350.5938,264.1123,354.5938" style="stroke:#181818;stroke-width:1.0;"/><line style="stroke:#181818;stroke-width:1.0;" x1="264.1123" x2="264.1123" y1="395.6875" y2="415.6875"/><polygon fill="#181818" points="260.1123,405.6875,264.1123,415.6875,268.1123,405.6875,264.1123,409.6875" style="stroke:#181818;stroke-width:1.0;"/><line style="stroke:#181818;stroke-width:1.0;" x1="127.3853" x2="84.375" y1="228.4063" y2="228.4063"/><line style="stroke:#181818;stroke-width:1.0;" x1="84.375" x2="84.375" y1="228.4063" y2="250.4063"/><polygon fill="#181818" points="80.375,240.4063,84.375,250.4063,88.375,240.4063,84.375,244.4063" style="stroke:#181818;stroke-width:1.0;"/><line style="stroke:#181818;stroke-width:1.0;" x1="221.1021" x2="264.1123" y1="228.4063" y2="228.4063"/><line style="stroke:#181818;stroke-width:1.0;" x1="264.1123" x2="264.1123" y1="228.4063" y2="250.4063"/><polygon fill="#181818" points="260.1123,240.4063,264.1123,250.4063,268.1123,240.4063,264.1123,244.4063" style="stroke:#181818;stroke-width:1.0;"/><line style="stroke:#181818;stroke-width:1.0;" x1="84.375" x2="84.375" y1="395.6875" y2="468.7813"/><line style="stroke:#181818;stroke-width:1.0;" x1="84.375" x2="162.2437" y1="468.7813" y2="468.7813"/><polygon fill="#181818" points="152.2437,464.7813,162.2437,468.7813,152.2437,472.7813,156.2437,468.7813" style="stroke:#181818;stroke-width:1.0;"/><line style="stroke:#181818;stroke-width:1.0;" x1="264.1123" x2="264.1123" y1="450.7813" y2="468.7813"/><line style="stroke:#181818;stroke-width:1.0;" x1="264.1123" x2="186.2437" y1="468.7813" y2="468.7813"/><polygon fill="#181818" points="196.2437,464.7813,186.2437,468.7813,196.2437,472.7813,192.2437,468.7813" style="stroke:#181818;stroke-width:1.0;"/><line style="stroke:#181818;stroke-width:1.0;" x1="174.2437" x2="174.2437" y1="196.4063" y2="216.4063"/><polygon fill="#181818" points="170.2437,206.4063,174.2437,216.4063,178.2437,206.4063,174.2437,210.4063" style="stroke:#181818;stroke-width:1.0;"/><line style="stroke:#181818;stroke-width:1.0;" x1="174.2437" x2="174.2437" y1="480.7813" y2="500.7813"/><polygon fill="#181818" points="170.2437,490.7813,174.2437,500.7813,178.2437,490.7813,174.2437,494.7813" style="stroke:#181818;stroke-width:1.0;"/><line style="stroke:#181818;stroke-width:1.0;" x1="174.2437" x2="174.2437" y1="535.875" y2="555.875"/><polygon fill="#181818" points="170.2437,545.875,174.2437,555.875,178.2437,545.875,174.2437,549.875" style="stroke:#181818;stroke-width:1.0;"/><line style="stroke:#181818;stroke-width:1.0;" x1="174.2437" x2="174.2437" y1="590.9688" y2="610.9688"/><polygon fill="#181818" points="170.2437,600.9688,174.2437,610.9688,178.2437,600.9688,174.2437,604.9688" style="stroke:#181818;stroke-width:1.0;"/><!--SRC=[VP0zRm8n38Rt_0fF5KWCTBqRghOiRSK4OvSNoDrP-Jh5FYJ-VHDwqALjbaXvRB-F8uxZY8n0E2gVMI-x0QEbT5JqAHgZhDxIymnfm-XBzMVSsjXRdpne1vqGwO4-KZpRB6oCABAQvWKz5_9MdgEcp1HA4vnOeG4UeJ2vDhUcsR6e3RK2OMJl2ZkXAtFk9OOxMhpRo397FYr91njfCHji8CXBG-KqsphdW67kfWFor7wZFSh6rC4L9NApyynUKn4T6gexhYZu5Or7QOtrOkyn-obF4V6F8FscxOq6zdo7fshuWo2Jgul-x-9wMZokr-khrBB8n1DtnjJa2uVnEbRnoq-6CpoNIAPiVRrk9Q9fD5y0]--></g></svg>