<svg xmlns="http://www.w3.org/2000/svg" xmlns:xlink="http://www.w3.org/1999/xlink" contentStyleType="text/css" height="971px" preserveAspectRatio="none" style="width:733px;height:971px;background:#FFFFFF;" version="1.1" viewBox="0 0 733 971" width="733px" zoomAndPan="magnify"><title>Activity Diagram</title><defs/><g><text fill="#000000" font-family="sans-serif" font-size="14" font-weight="bold" lengthAdjust="spacing" textLength="110.4824" x="310.0732" y="34.5332">Activity Diagram</text><text fill="#000000" font-family="sans-serif" font-size="14" font-weight="bold" lengthAdjust="spacing" textLength="110.4893" x="310.0698" y="52.1426">Proses Produksi</text><ellipse cx="421.1514" cy="76.2188" fill="#222222" rx="10" ry="10" style="stroke:#222222;stroke-width:1.0;"/><rect fill="#F1F1F1" height="35.0938" rx="12.5" ry="12.5" style="stroke:#181818;stroke-width:0.5;" width="270.1426" x="286.0801" y="106.2188"/><text fill="#000000" font-family="sans-serif" font-size="12" lengthAdjust="spacing" textLength="250.1426" x="296.0801" y="128.6758">Bagian Produksi mengakses halaman produksi</text><rect fill="#F1F1F1" height="35.0938" rx="12.5" ry="12.5" style="stroke:#181818;stroke-width:0.5;" width="214.0859" x="314.1084" y="161.3125"/><text fill="#000000" font-family="sans-serif" font-size="12" lengthAdjust="spacing" textLength="194.0859" x="324.1084" y="183.7695">Sistem menampilkan daftar produksi</text><rect fill="#F1F1F1" height="35.0938" rx="12.5" ry="12.5" style="stroke:#181818;stroke-width:0.5;" width="219.459" x="311.4219" y="216.4063"/><text fill="#000000" font-family="sans-serif" font-size="12" lengthAdjust="spacing" textLength="199.459" x="321.4219" y="238.8633">Mengakses antrian pesanan/produksi</text><rect fill="#F1F1F1" height="35.0938" rx="12.5" ry="12.5" style="stroke:#181818;stroke-width:0.5;" width="298.1563" x="272.0732" y="271.5"/><text fill="#000000" font-family="sans-serif" font-size="12" lengthAdjust="spacing" textLength="278.1563" x="282.0732" y="293.957">Sistem menampilkan pesanan yang perlu diproduksi</text><rect fill="#F1F1F1" height="35.0938" rx="12.5" ry="12.5" style="stroke:#181818;stroke-width:0.5;" width="201.4355" x="320.4336" y="326.5938"/><text fill="#000000" font-family="sans-serif" font-size="12" lengthAdjust="spacing" textLength="181.4355" x="330.4336" y="349.0508">Memilih pesanan untuk diproduksi</text><rect fill="#F1F1F1" height="35.0938" rx="12.5" ry="12.5" style="stroke:#181818;stroke-width:0.5;" width="252.7988" x="294.752" y="381.6875"/><text fill="#000000" font-family="sans-serif" font-size="12" lengthAdjust="spacing" textLength="232.7988" x="304.752" y="404.1445">Sistem menampilkan detail produk pesanan</text><rect fill="#F1F1F1" height="35.0938" rx="12.5" ry="12.5" style="stroke:#181818;stroke-width:0.5;" width="114.0371" x="364.1328" y="436.7813"/><text fill="#000000" font-family="sans-serif" font-size="12" lengthAdjust="spacing" textLength="94.0371" x="374.1328" y="459.2383">Memulai produksi</text><polygon fill="#F1F1F1" points="374.0603,491.875,468.2424,491.875,480.2424,503.875,468.2424,515.875,374.0603,515.875,362.0603,503.875,374.0603,491.875" style="stroke:#181818;stroke-width:0.5;"/><text fill="#000000" font-family="sans-serif" font-size="11" lengthAdjust="spacing" textLength="94.1821" x="374.0603" y="508.376">Stok bahan cukup?</text><text fill="#000000" font-family="sans-serif" font-size="11" lengthAdjust="spacing" textLength="13.4546" x="348.6057" y="501.458">Ya</text><text fill="#000000" font-family="sans-serif" font-size="11" lengthAdjust="spacing" textLength="26.8984" x="480.2424" y="501.458">Tidak</text><rect fill="#555555" height="6" rx="2.5" ry="2.5" style="stroke:#555555;stroke-width:1.0;" width="455.4883" x="11" y="525.875"/><rect fill="#F1F1F1" height="35.0938" rx="12.5" ry="12.5" style="stroke:#181818;stroke-width:0.5;" width="224.082" x="23" y="551.875"/><text fill="#000000" font-family="sans-serif" font-size="12" lengthAdjust="spacing" textLength="204.082" x="33" y="574.332">Sistem mengurangi stok bahan (FIFO)</text><rect fill="#F1F1F1" height="35.0938" rx="12.5" ry="12.5" style="stroke:#181818;stroke-width:0.5;" width="177.4063" x="275.082" y="551.875"/><text fill="#000000" font-family="sans-serif" font-size="12" lengthAdjust="spacing" textLength="157.4063" x="285.082" y="574.332">Sistem mencatat log inventori</text><rect fill="#555555" height="6" rx="2.5" ry="2.5" style="stroke:#555555;stroke-width:1.0;" width="455.4883" x="11" y="606.9688"/><rect fill="#F1F1F1" height="35.0938" rx="12.5" ry="12.5" style="stroke:#181818;stroke-width:0.5;" width="151.5723" x="161.958" y="632.9688"/><text fill="#000000" font-family="sans-serif" font-size="12" lengthAdjust="spacing" textLength="131.5723" x="171.958" y="655.4258">Status = "Dalam Proses"</text><rect fill="#F1F1F1" height="35.0938" rx="12.5" ry="12.5" style="stroke:#181818;stroke-width:0.5;" width="170.0703" x="152.709" y="688.0625"/><text fill="#000000" font-family="sans-serif" font-size="12" lengthAdjust="spacing" textLength="150.0703" x="162.709" y="710.5195">Melaksanakan produksi fisik</text><rect fill="#F1F1F1" height="35.0938" rx="12.5" ry="12.5" style="stroke:#181818;stroke-width:0.5;" width="148.7363" x="163.376" y="743.1563"/><text fill="#000000" font-family="sans-serif" font-size="12" lengthAdjust="spacing" textLength="128.7363" x="173.376" y="765.6133">Menyelesaikan produksi</text><rect fill="#F1F1F1" height="35.0938" rx="12.5" ry="12.5" style="stroke:#181818;stroke-width:0.5;" width="255.459" x="110.0146" y="798.25"/><text fill="#000000" font-family="sans-serif" font-size="12" lengthAdjust="spacing" textLength="235.459" x="120.0146" y="820.707">Sistem update status produksi dan transaksi</text><rect fill="#F1F1F1" height="35.0938" rx="12.5" ry="12.5" style="stroke:#181818;stroke-width:0.5;" width="115.5723" x="179.958" y="853.3438"/><text fill="#000000" font-family="sans-serif" font-size="12" lengthAdjust="spacing" textLength="95.5723" x="189.958" y="875.8008">Status = "Selesai"</text><rect fill="#F1F1F1" height="35.0938" rx="12.5" ry="12.5" style="stroke:#181818;stroke-width:0.5;" width="236.1406" x="486.4883" y="525.875"/><text fill="#000000" font-family="sans-serif" font-size="12" lengthAdjust="spacing" textLength="216.1406" x="496.4883" y="548.332">Tampilkan peringatan bahan tidak cukup</text><polygon fill="#F1F1F1" points="421.1514,894.4375,433.1514,906.4375,421.1514,918.4375,409.1514,906.4375,421.1514,894.4375" style="stroke:#181818;stroke-width:0.5;"/><ellipse cx="421.1514" cy="949.4375" fill="none" rx="11" ry="11" style="stroke:#222222;stroke-width:1.0;"/><ellipse cx="421.1514" cy="949.4375" fill="#222222" rx="6" ry="6" style="stroke:#222222;stroke-width:1.0;"/><line style="stroke:#181818;stroke-width:1.0;" x1="421.1514" x2="421.1514" y1="86.2188" y2="106.2188"/><polygon fill="#181818" points="417.1514,96.2188,421.1514,106.2188,425.1514,96.2188,421.1514,100.2188" style="stroke:#181818;stroke-width:1.0;"/><line style="stroke:#181818;stroke-width:1.0;" x1="421.1514" x2="421.1514" y1="141.3125" y2="161.3125"/><polygon fill="#181818" points="417.1514,151.3125,421.1514,161.3125,425.1514,151.3125,421.1514,155.3125" style="stroke:#181818;stroke-width:1.0;"/><line style="stroke:#181818;stroke-width:1.0;" x1="421.1514" x2="421.1514" y1="196.4063" y2="216.4063"/><polygon fill="#181818" points="417.1514,206.4063,421.1514,216.4063,425.1514,206.4063,421.1514,210.4063" style="stroke:#181818;stroke-width:1.0;"/><line style="stroke:#181818;stroke-width:1.0;" x1="421.1514" x2="421.1514" y1="251.5" y2="271.5"/><polygon fill="#181818" points="417.1514,261.5,421.1514,271.5,425.1514,261.5,421.1514,265.5" style="stroke:#181818;stroke-width:1.0;"/><line style="stroke:#181818;stroke-width:1.0;" x1="421.1514" x2="421.1514" y1="306.5938" y2="326.5938"/><polygon fill="#181818" points="417.1514,316.5938,421.1514,326.5938,425.1514,316.5938,421.1514,320.5938" style="stroke:#181818;stroke-width:1.0;"/><line style="stroke:#181818;stroke-width:1.0;" x1="421.1514" x2="421.1514" y1="361.6875" y2="381.6875"/><polygon fill="#181818" points="417.1514,371.6875,421.1514,381.6875,425.1514,371.6875,421.1514,375.6875" style="stroke:#181818;stroke-width:1.0;"/><line style="stroke:#181818;stroke-width:1.0;" x1="421.1514" x2="421.1514" y1="416.7813" y2="436.7813"/><polygon fill="#181818" points="417.1514,426.7813,421.1514,436.7813,425.1514,426.7813,421.1514,430.7813" style="stroke:#181818;stroke-width:1.0;"/><line style="stroke:#181818;stroke-width:1.0;" x1="135.041" x2="135.041" y1="531.875" y2="551.875"/><polygon fill="#181818" points="131.041,541.875,135.041,551.875,139.041,541.875,135.041,545.875" style="stroke:#181818;stroke-width:1.0;"/><line style="stroke:#181818;stroke-width:1.0;" x1="363.7852" x2="363.7852" y1="531.875" y2="551.875"/><polygon fill="#181818" points="359.7852,541.875,363.7852,551.875,367.7852,541.875,363.7852,545.875" style="stroke:#181818;stroke-width:1.0;"/><line style="stroke:#181818;stroke-width:1.0;" x1="135.041" x2="135.041" y1="586.9688" y2="606.9688"/><polygon fill="#181818" points="131.041,596.9688,135.041,606.9688,139.041,596.9688,135.041,600.9688" style="stroke:#181818;stroke-width:1.0;"/><line style="stroke:#181818;stroke-width:1.0;" x1="363.7852" x2="363.7852" y1="586.9688" y2="606.9688"/><polygon fill="#181818" points="359.7852,596.9688,363.7852,606.9688,367.7852,596.9688,363.7852,600.9688" style="stroke:#181818;stroke-width:1.0;"/><line style="stroke:#181818;stroke-width:1.0;" x1="237.7441" x2="237.7441" y1="612.9688" y2="632.9688"/><polygon fill="#181818" points="233.7441,622.9688,237.7441,632.9688,241.7441,622.9688,237.7441,626.9688" style="stroke:#181818;stroke-width:1.0;"/><line style="stroke:#181818;stroke-width:1.0;" x1="237.7441" x2="237.7441" y1="668.0625" y2="688.0625"/><polygon fill="#181818" points="233.7441,678.0625,237.7441,688.0625,241.7441,678.0625,237.7441,682.0625" style="stroke:#181818;stroke-width:1.0;"/><line style="stroke:#181818;stroke-width:1.0;" x1="237.7441" x2="237.7441" y1="723.1563" y2="743.1563"/><polygon fill="#181818" points="233.7441,733.1563,237.7441,743.1563,241.7441,733.1563,237.7441,737.1563" style="stroke:#181818;stroke-width:1.0;"/><line style="stroke:#181818;stroke-width:1.0;" x1="237.7441" x2="237.7441" y1="778.25" y2="798.25"/><polygon fill="#181818" points="233.7441,788.25,237.7441,798.25,241.7441,788.25,237.7441,792.25" style="stroke:#181818;stroke-width:1.0;"/><line style="stroke:#181818;stroke-width:1.0;" x1="237.7441" x2="237.7441" y1="833.3438" y2="853.3438"/><polygon fill="#181818" points="233.7441,843.3438,237.7441,853.3438,241.7441,843.3438,237.7441,847.3438" style="stroke:#181818;stroke-width:1.0;"/><line style="stroke:#181818;stroke-width:1.0;" x1="362.0603" x2="237.7441" y1="503.875" y2="503.875"/><line style="stroke:#181818;stroke-width:1.0;" x1="237.7441" x2="237.7441" y1="503.875" y2="525.875"/><polygon fill="#181818" points="233.7441,515.875,237.7441,525.875,241.7441,515.875,237.7441,519.875" style="stroke:#181818;stroke-width:1.0;"/><line style="stroke:#181818;stroke-width:1.0;" x1="480.2424" x2="604.5586" y1="503.875" y2="503.875"/><line style="stroke:#181818;stroke-width:1.0;" x1="604.5586" x2="604.5586" y1="503.875" y2="525.875"/><polygon fill="#181818" points="600.5586,515.875,604.5586,525.875,608.5586,515.875,604.5586,519.875" style="stroke:#181818;stroke-width:1.0;"/><line style="stroke:#181818;stroke-width:1.0;" x1="237.7441" x2="237.7441" y1="888.4375" y2="906.4375"/><line style="stroke:#181818;stroke-width:1.0;" x1="237.7441" x2="409.1514" y1="906.4375" y2="906.4375"/><polygon fill="#181818" points="399.1514,902.4375,409.1514,906.4375,399.1514,910.4375,403.1514,906.4375" style="stroke:#181818;stroke-width:1.0;"/><line style="stroke:#181818;stroke-width:1.0;" x1="604.5586" x2="604.5586" y1="560.9688" y2="906.4375"/><line style="stroke:#181818;stroke-width:1.0;" x1="604.5586" x2="433.1514" y1="906.4375" y2="906.4375"/><polygon fill="#181818" points="443.1514,902.4375,433.1514,906.4375,443.1514,910.4375,439.1514,906.4375" style="stroke:#181818;stroke-width:1.0;"/><line style="stroke:#181818;stroke-width:1.0;" x1="421.1514" x2="421.1514" y1="471.875" y2="491.875"/><polygon fill="#181818" points="417.1514,481.875,421.1514,491.875,425.1514,481.875,421.1514,485.875" style="stroke:#181818;stroke-width:1.0;"/><line style="stroke:#181818;stroke-width:1.0;" x1="421.1514" x2="421.1514" y1="918.4375" y2="938.4375"/><polygon fill="#181818" points="417.1514,928.4375,421.1514,938.4375,425.1514,928.4375,421.1514,932.4375" style="stroke:#181818;stroke-width:1.0;"/><!--SRC=[VL9DQyCm3BtxLuYTqjFkBMDibC8EOuFqCjX5Ivn4s963BHVwxwSqMPf2cI_-q7jFJvAJ8numOWzO2Pr8pcM7WuLG2RQ1ZH4IR-5b3iAUi5NqDt_6a6m2tUhi4XcJ1AEOxIksXBoyGs-vHJT2E_JOQsYOGpkpBIc9xKSCzWDvfz4Q6nLQWzuN1MI9e_XW4pBou_zACmhEoArUeizGqurkJvww1PTPihk5tFDd1SdF_lwuarhsI2lZXXeeIWaEVh1JPfLT7fut89rbABvmOq1N4wAx7CQrIjZcgBu9qbMWEBmTFZQxXGRO8l4zSeM20ZwqG7ooB27IHBDSNpDkIqNb14_mi1zd0zDC7oQeLkIrxLgUMmqD6aha5WIVhTSMaBkPwzfD7ceKgsLSKYqojH94AqouOYnsoabLdLYVB1H7gj5D_TeULmEEf5z3z3WrI4ROr6TbSasD_iemc5y0]--></g></svg>