<svg xmlns="http://www.w3.org/2000/svg" xmlns:xlink="http://www.w3.org/1999/xlink" contentStyleType="text/css" height="1458px" preserveAspectRatio="none" style="width:619px;height:1458px;background:#FFFFFF;" version="1.1" viewBox="0 0 619 1458" width="619px" zoomAndPan="magnify"><title>Activity Diagram</title><defs/><g><text fill="#000000" font-family="sans-serif" font-size="14" font-weight="bold" lengthAdjust="spacing" textLength="110.4824" x="253.0615" y="34.5332">Activity Diagram</text><text fill="#000000" font-family="sans-serif" font-size="14" font-weight="bold" lengthAdjust="spacing" textLength="185.1855" x="215.71" y="52.1426">Proses Belanja Bahan Baku</text><ellipse cx="309.8027" cy="76.2188" fill="#222222" rx="10" ry="10" style="stroke:#222222;stroke-width:1.0;"/><rect fill="#F1F1F1" height="35.0938" rx="12.5" ry="12.5" style="stroke:#181818;stroke-width:0.5;" width="262.8242" x="178.3906" y="106.2188"/><text fill="#000000" font-family="sans-serif" font-size="12" lengthAdjust="spacing" textLength="242.8242" x="188.3906" y="128.6758">Bagian Inventori mengakses halaman belanja</text><rect fill="#F1F1F1" height="35.0938" rx="12.5" ry="12.5" style="stroke:#181818;stroke-width:0.5;" width="254.1289" x="182.7383" y="161.3125"/><text fill="#000000" font-family="sans-serif" font-size="12" lengthAdjust="spacing" textLength="234.1289" x="192.7383" y="183.7695">Sistem menampilkan daftar rencana belanja</text><rect fill="#F1F1F1" height="35.0938" rx="12.5" ry="12.5" style="stroke:#181818;stroke-width:0.5;" width="186.1074" x="216.749" y="216.4063"/><text fill="#000000" font-family="sans-serif" font-size="12" lengthAdjust="spacing" textLength="166.1074" x="226.749" y="238.8633">Membuat rencana belanja baru</text><rect fill="#F1F1F1" height="35.0938" rx="12.5" ry="12.5" style="stroke:#181818;stroke-width:0.5;" width="106.6953" x="256.4551" y="271.5"/><text fill="#000000" font-family="sans-serif" font-size="12" lengthAdjust="spacing" textLength="86.6953" x="266.4551" y="293.957">Memilih supplier</text><rect fill="#F1F1F1" height="35.0938" rx="12.5" ry="12.5" style="stroke:#181818;stroke-width:0.5;" width="170.7852" x="224.4102" y="326.5938"/><text fill="#000000" font-family="sans-serif" font-size="12" lengthAdjust="spacing" textLength="150.7852" x="234.4102" y="349.0508">Menentukan tanggal belanja</text><rect fill="#F1F1F1" height="35.0938" rx="12.5" ry="12.5" style="stroke:#181818;stroke-width:0.5;" width="108.7344" x="255.4355" y="425.6875"/><text fill="#000000" font-family="sans-serif" font-size="12" lengthAdjust="spacing" textLength="88.7344" x="265.4355" y="448.1445">Pilih bahan baku</text><rect fill="#F1F1F1" height="35.0938" rx="12.5" ry="12.5" style="stroke:#181818;stroke-width:0.5;" width="171.4355" x="224.085" y="480.7813"/><text fill="#000000" font-family="sans-serif" font-size="12" lengthAdjust="spacing" textLength="151.4355" x="234.085" y="503.2383">Tentukan satuan dan jumlah</text><rect fill="#F1F1F1" height="35.0938" rx="12.5" ry="12.5" style="stroke:#181818;stroke-width:0.5;" width="156.0605" x="231.7725" y="535.875"/><text fill="#000000" font-family="sans-serif" font-size="12" lengthAdjust="spacing" textLength="136.0605" x="241.7725" y="558.332">Masukkan estimasi harga</text><polygon fill="#F1F1F1" points="309.8027,381.6875,321.8027,393.6875,309.8027,405.6875,297.8027,393.6875,309.8027,381.6875" style="stroke:#181818;stroke-width:0.5;"/><polygon fill="#F1F1F1" points="264.5593,590.9688,355.0461,590.9688,367.0461,602.9688,355.0461,614.9688,264.5593,614.9688,252.5593,602.9688,264.5593,590.9688" style="stroke:#181818;stroke-width:0.5;"/><text fill="#000000" font-family="sans-serif" font-size="11" lengthAdjust="spacing" textLength="90.4868" x="264.5593" y="607.4697">Tambah item lain?</text><text fill="#000000" font-family="sans-serif" font-size="11" lengthAdjust="spacing" textLength="13.4546" x="367.0461" y="600.5518">Ya</text><rect fill="#F1F1F1" height="35.0938" rx="12.5" ry="12.5" style="stroke:#181818;stroke-width:0.5;" width="186.7637" x="216.4209" y="657.2217"/><text fill="#000000" font-family="sans-serif" font-size="12" lengthAdjust="spacing" textLength="166.7637" x="226.4209" y="679.6787">Sistem generate nomor belanja</text><rect fill="#F1F1F1" height="35.0938" rx="12.5" ry="12.5" style="stroke:#181818;stroke-width:0.5;" width="149.4219" x="235.0918" y="712.3154"/><text fill="#000000" font-family="sans-serif" font-size="12" lengthAdjust="spacing" textLength="129.4219" x="245.0918" y="734.7725">Simpan rencana belanja</text><path d="M380.9121,771.1514 L380.9121,780.9561 L360.9121,784.9561 L380.9121,788.9561 L380.9121,798.7607 A0,0 0 0 0 380.9121,798.7607 L540.0322,798.7607 A0,0 0 0 0 540.0322,798.7607 L540.0322,781.1514 L530.0322,771.1514 L380.9121,771.1514 A0,0 0 0 0 380.9121,771.1514 " fill="#FEFFDD" style="stroke:#181818;stroke-width:0.5;"/><path d="M530.0322,771.1514 L530.0322,781.1514 L540.0322,781.1514 L530.0322,771.1514 " fill="#FEFFDD" style="stroke:#181818;stroke-width:0.5;"/><text fill="#000000" font-family="sans-serif" font-size="14" font-weight="bold" lengthAdjust="spacing" textLength="138.1201" x="386.9121" y="790.6846">Memulai Belanja ===</text><rect fill="#F1F1F1" height="35.0938" rx="12.5" ry="12.5" style="stroke:#181818;stroke-width:0.5;" width="102.2188" x="258.6934" y="767.4092"/><text fill="#000000" font-family="sans-serif" font-size="12" lengthAdjust="spacing" textLength="82.2188" x="268.6934" y="789.8662">Status = "Draft"</text><rect fill="#F1F1F1" height="35.0938" rx="12.5" ry="12.5" style="stroke:#181818;stroke-width:0.5;" width="123.2305" x="248.1875" y="822.5029"/><text fill="#000000" font-family="sans-serif" font-size="12" lengthAdjust="spacing" textLength="103.2305" x="258.1875" y="844.96">Klik "Mulai Belanja"</text><rect fill="#F1F1F1" height="35.0938" rx="12.5" ry="12.5" style="stroke:#181818;stroke-width:0.5;" width="232.0801" x="193.7627" y="877.5967"/><text fill="#000000" font-family="sans-serif" font-size="12" lengthAdjust="spacing" textLength="212.0801" x="203.7627" y="900.0537">Sistem menampilkan formulir input hasil</text><rect fill="#F1F1F1" height="35.0938" rx="12.5" ry="12.5" style="stroke:#181818;stroke-width:0.5;" width="185.4336" x="217.0859" y="976.6904"/><text fill="#000000" font-family="sans-serif" font-size="12" lengthAdjust="spacing" textLength="165.4336" x="227.0859" y="999.1475">Masukkan jumlah yang didapat</text><rect fill="#F1F1F1" height="35.0938" rx="12.5" ry="12.5" style="stroke:#181818;stroke-width:0.5;" width="144.0723" x="237.7666" y="1031.7842"/><text fill="#000000" font-family="sans-serif" font-size="12" lengthAdjust="spacing" textLength="124.0723" x="247.7666" y="1054.2412">Masukkan harga aktual</text><rect fill="#F1F1F1" height="35.0938" rx="12.5" ry="12.5" style="stroke:#181818;stroke-width:0.5;" width="188.0996" x="215.7529" y="1086.8779"/><text fill="#000000" font-family="sans-serif" font-size="12" lengthAdjust="spacing" textLength="168.0996" x="225.7529" y="1109.335">Masukkan tanggal kedaluwarsa</text><polygon fill="#F1F1F1" points="309.8027,932.6904,321.8027,944.6904,309.8027,956.6904,297.8027,944.6904,309.8027,932.6904" style="stroke:#181818;stroke-width:0.5;"/><polygon fill="#F1F1F1" points="274.9497,1141.9717,344.6558,1141.9717,356.6558,1153.9717,344.6558,1165.9717,274.9497,1165.9717,262.9497,1153.9717,274.9497,1141.9717" style="stroke:#181818;stroke-width:0.5;"/><text fill="#000000" font-family="sans-serif" font-size="11" lengthAdjust="spacing" textLength="69.7061" x="274.9497" y="1158.4727">Ada item lain?</text><text fill="#000000" font-family="sans-serif" font-size="11" lengthAdjust="spacing" textLength="13.4546" x="356.6558" y="1151.5547">Ya</text><rect fill="#F1F1F1" height="35.0938" rx="12.5" ry="12.5" style="stroke:#181818;stroke-width:0.5;" width="153.2598" x="233.1729" y="1208.2246"/><text fill="#000000" font-family="sans-serif" font-size="12" lengthAdjust="spacing" textLength="133.2598" x="243.1729" y="1230.6816">Klik "Selesaikan Belanja"</text><rect fill="#555555" height="6" rx="2.5" ry="2.5" style="stroke:#555555;stroke-width:1.0;" width="597.6055" x="11" y="1263.3184"/><rect fill="#F1F1F1" height="35.0938" rx="12.5" ry="12.5" style="stroke:#181818;stroke-width:0.5;" width="190.0859" x="23" y="1289.3184"/><text fill="#000000" font-family="sans-serif" font-size="12" lengthAdjust="spacing" textLength="170.0859" x="33" y="1311.7754">Sistem buat batch baru per item</text><rect fill="#F1F1F1" height="35.0938" rx="12.5" ry="12.5" style="stroke:#181818;stroke-width:0.5;" width="158.7559" x="241.0859" y="1289.3184"/><text fill="#000000" font-family="sans-serif" font-size="12" lengthAdjust="spacing" textLength="138.7559" x="251.0859" y="1311.7754">Sistem update stok bahan</text><rect fill="#F1F1F1" height="35.0938" rx="12.5" ry="12.5" style="stroke:#181818;stroke-width:0.5;" width="168.7637" x="427.8418" y="1289.3184"/><text fill="#000000" font-family="sans-serif" font-size="12" lengthAdjust="spacing" textLength="148.7637" x="437.8418" y="1311.7754">Sistem update status bahan</text><rect fill="#555555" height="6" rx="2.5" ry="2.5" style="stroke:#555555;stroke-width:1.0;" width="597.6055" x="11" y="1344.4121"/><rect fill="#F1F1F1" height="35.0938" rx="12.5" ry="12.5" style="stroke:#181818;stroke-width:0.5;" width="157.6074" x="230.999" y="1370.4121"/><text fill="#000000" font-family="sans-serif" font-size="12" lengthAdjust="spacing" textLength="137.6074" x="240.999" y="1392.8691">Status belanja = "Selesai"</text><ellipse cx="309.8027" cy="1436.5059" fill="none" rx="11" ry="11" style="stroke:#222222;stroke-width:1.0;"/><ellipse cx="309.8027" cy="1436.5059" fill="#222222" rx="6" ry="6" style="stroke:#222222;stroke-width:1.0;"/><line style="stroke:#181818;stroke-width:1.0;" x1="309.8027" x2="309.8027" y1="86.2188" y2="106.2188"/><polygon fill="#181818" points="305.8027,96.2188,309.8027,106.2188,313.8027,96.2188,309.8027,100.2188" style="stroke:#181818;stroke-width:1.0;"/><line style="stroke:#181818;stroke-width:1.0;" x1="309.8027" x2="309.8027" y1="141.3125" y2="161.3125"/><polygon fill="#181818" points="305.8027,151.3125,309.8027,161.3125,313.8027,151.3125,309.8027,155.3125" style="stroke:#181818;stroke-width:1.0;"/><line style="stroke:#181818;stroke-width:1.0;" x1="309.8027" x2="309.8027" y1="196.4063" y2="216.4063"/><polygon fill="#181818" points="305.8027,206.4063,309.8027,216.4063,313.8027,206.4063,309.8027,210.4063" style="stroke:#181818;stroke-width:1.0;"/><line style="stroke:#181818;stroke-width:1.0;" x1="309.8027" x2="309.8027" y1="251.5" y2="271.5"/><polygon fill="#181818" points="305.8027,261.5,309.8027,271.5,313.8027,261.5,309.8027,265.5" style="stroke:#181818;stroke-width:1.0;"/><line style="stroke:#181818;stroke-width:1.0;" x1="309.8027" x2="309.8027" y1="306.5938" y2="326.5938"/><polygon fill="#181818" points="305.8027,316.5938,309.8027,326.5938,313.8027,316.5938,309.8027,320.5938" style="stroke:#181818;stroke-width:1.0;"/><line style="stroke:#181818;stroke-width:1.0;" x1="309.8027" x2="309.8027" y1="460.7813" y2="480.7813"/><polygon fill="#181818" points="305.8027,470.7813,309.8027,480.7813,313.8027,470.7813,309.8027,474.7813" style="stroke:#181818;stroke-width:1.0;"/><line style="stroke:#181818;stroke-width:1.0;" x1="309.8027" x2="309.8027" y1="515.875" y2="535.875"/><polygon fill="#181818" points="305.8027,525.875,309.8027,535.875,313.8027,525.875,309.8027,529.875" style="stroke:#181818;stroke-width:1.0;"/><line style="stroke:#181818;stroke-width:1.0;" x1="309.8027" x2="309.8027" y1="405.6875" y2="425.6875"/><polygon fill="#181818" points="305.8027,415.6875,309.8027,425.6875,313.8027,415.6875,309.8027,419.6875" style="stroke:#181818;stroke-width:1.0;"/><line style="stroke:#181818;stroke-width:1.0;" x1="367.0461" x2="407.5205" y1="602.9688" y2="602.9688"/><polygon fill="#181818" points="403.5205,508.3281,407.5205,498.3281,411.5205,508.3281,407.5205,504.3281" style="stroke:#181818;stroke-width:1.0;"/><line style="stroke:#181818;stroke-width:1.0;" x1="407.5205" x2="407.5205" y1="393.6875" y2="602.9688"/><line style="stroke:#181818;stroke-width:1.0;" x1="407.5205" x2="321.8027" y1="393.6875" y2="393.6875"/><polygon fill="#181818" points="331.8027,389.6875,321.8027,393.6875,331.8027,397.6875,327.8027,393.6875" style="stroke:#181818;stroke-width:1.0;"/><line style="stroke:#181818;stroke-width:1.0;" x1="309.8027" x2="309.8027" y1="570.9688" y2="590.9688"/><polygon fill="#181818" points="305.8027,580.9688,309.8027,590.9688,313.8027,580.9688,309.8027,584.9688" style="stroke:#181818;stroke-width:1.0;"/><line style="stroke:#181818;stroke-width:1.0;" x1="309.8027" x2="309.8027" y1="361.6875" y2="381.6875"/><polygon fill="#181818" points="305.8027,371.6875,309.8027,381.6875,313.8027,371.6875,309.8027,375.6875" style="stroke:#181818;stroke-width:1.0;"/><line style="stroke:#181818;stroke-width:1.0;" x1="309.8027" x2="309.8027" y1="614.9688" y2="657.2217"/><polygon fill="#181818" points="305.8027,647.2217,309.8027,657.2217,313.8027,647.2217,309.8027,651.2217" style="stroke:#181818;stroke-width:1.0;"/><text fill="#000000" font-family="sans-serif" font-size="11" lengthAdjust="spacing" textLength="26.8984" x="313.8027" y="637.3047">Tidak</text><line style="stroke:#181818;stroke-width:1.0;" x1="309.8027" x2="309.8027" y1="692.3154" y2="712.3154"/><polygon fill="#181818" points="305.8027,702.3154,309.8027,712.3154,313.8027,702.3154,309.8027,706.3154" style="stroke:#181818;stroke-width:1.0;"/><line style="stroke:#181818;stroke-width:1.0;" x1="309.8027" x2="309.8027" y1="747.4092" y2="767.4092"/><polygon fill="#181818" points="305.8027,757.4092,309.8027,767.4092,313.8027,757.4092,309.8027,761.4092" style="stroke:#181818;stroke-width:1.0;"/><line style="stroke:#181818;stroke-width:1.0;" x1="309.8027" x2="309.8027" y1="802.5029" y2="822.5029"/><polygon fill="#181818" points="305.8027,812.5029,309.8027,822.5029,313.8027,812.5029,309.8027,816.5029" style="stroke:#181818;stroke-width:1.0;"/><line style="stroke:#181818;stroke-width:1.0;" x1="309.8027" x2="309.8027" y1="857.5967" y2="877.5967"/><polygon fill="#181818" points="305.8027,867.5967,309.8027,877.5967,313.8027,867.5967,309.8027,871.5967" style="stroke:#181818;stroke-width:1.0;"/><line style="stroke:#181818;stroke-width:1.0;" x1="309.8027" x2="309.8027" y1="1011.7842" y2="1031.7842"/><polygon fill="#181818" points="305.8027,1021.7842,309.8027,1031.7842,313.8027,1021.7842,309.8027,1025.7842" style="stroke:#181818;stroke-width:1.0;"/><line style="stroke:#181818;stroke-width:1.0;" x1="309.8027" x2="309.8027" y1="1066.8779" y2="1086.8779"/><polygon fill="#181818" points="305.8027,1076.8779,309.8027,1086.8779,313.8027,1076.8779,309.8027,1080.8779" style="stroke:#181818;stroke-width:1.0;"/><line style="stroke:#181818;stroke-width:1.0;" x1="309.8027" x2="309.8027" y1="956.6904" y2="976.6904"/><polygon fill="#181818" points="305.8027,966.6904,309.8027,976.6904,313.8027,966.6904,309.8027,970.6904" style="stroke:#181818;stroke-width:1.0;"/><line style="stroke:#181818;stroke-width:1.0;" x1="356.6558" x2="415.8525" y1="1153.9717" y2="1153.9717"/><polygon fill="#181818" points="411.8525,1059.3311,415.8525,1049.3311,419.8525,1059.3311,415.8525,1055.3311" style="stroke:#181818;stroke-width:1.0;"/><line style="stroke:#181818;stroke-width:1.0;" x1="415.8525" x2="415.8525" y1="944.6904" y2="1153.9717"/><line style="stroke:#181818;stroke-width:1.0;" x1="415.8525" x2="321.8027" y1="944.6904" y2="944.6904"/><polygon fill="#181818" points="331.8027,940.6904,321.8027,944.6904,331.8027,948.6904,327.8027,944.6904" style="stroke:#181818;stroke-width:1.0;"/><line style="stroke:#181818;stroke-width:1.0;" x1="309.8027" x2="309.8027" y1="1121.9717" y2="1141.9717"/><polygon fill="#181818" points="305.8027,1131.9717,309.8027,1141.9717,313.8027,1131.9717,309.8027,1135.9717" style="stroke:#181818;stroke-width:1.0;"/><line style="stroke:#181818;stroke-width:1.0;" x1="309.8027" x2="309.8027" y1="912.6904" y2="932.6904"/><polygon fill="#181818" points="305.8027,922.6904,309.8027,932.6904,313.8027,922.6904,309.8027,926.6904" style="stroke:#181818;stroke-width:1.0;"/><line style="stroke:#181818;stroke-width:1.0;" x1="309.8027" x2="309.8027" y1="1165.9717" y2="1208.2246"/><polygon fill="#181818" points="305.8027,1198.2246,309.8027,1208.2246,313.8027,1198.2246,309.8027,1202.2246" style="stroke:#181818;stroke-width:1.0;"/><text fill="#000000" font-family="sans-serif" font-size="11" lengthAdjust="spacing" textLength="26.8984" x="313.8027" y="1188.3076">Tidak</text><line style="stroke:#181818;stroke-width:1.0;" x1="118.043" x2="118.043" y1="1269.3184" y2="1289.3184"/><polygon fill="#181818" points="114.043,1279.3184,118.043,1289.3184,122.043,1279.3184,118.043,1283.3184" style="stroke:#181818;stroke-width:1.0;"/><line style="stroke:#181818;stroke-width:1.0;" x1="320.4639" x2="320.4639" y1="1269.3184" y2="1289.3184"/><polygon fill="#181818" points="316.4639,1279.3184,320.4639,1289.3184,324.4639,1279.3184,320.4639,1283.3184" style="stroke:#181818;stroke-width:1.0;"/><line style="stroke:#181818;stroke-width:1.0;" x1="512.2236" x2="512.2236" y1="1269.3184" y2="1289.3184"/><polygon fill="#181818" points="508.2236,1279.3184,512.2236,1289.3184,516.2236,1279.3184,512.2236,1283.3184" style="stroke:#181818;stroke-width:1.0;"/><line style="stroke:#181818;stroke-width:1.0;" x1="118.043" x2="118.043" y1="1324.4121" y2="1344.4121"/><polygon fill="#181818" points="114.043,1334.4121,118.043,1344.4121,122.043,1334.4121,118.043,1338.4121" style="stroke:#181818;stroke-width:1.0;"/><line style="stroke:#181818;stroke-width:1.0;" x1="320.4639" x2="320.4639" y1="1324.4121" y2="1344.4121"/><polygon fill="#181818" points="316.4639,1334.4121,320.4639,1344.4121,324.4639,1334.4121,320.4639,1338.4121" style="stroke:#181818;stroke-width:1.0;"/><line style="stroke:#181818;stroke-width:1.0;" x1="512.2236" x2="512.2236" y1="1324.4121" y2="1344.4121"/><polygon fill="#181818" points="508.2236,1334.4121,512.2236,1344.4121,516.2236,1334.4121,512.2236,1338.4121" style="stroke:#181818;stroke-width:1.0;"/><line style="stroke:#181818;stroke-width:1.0;" x1="309.8027" x2="309.8027" y1="1243.3184" y2="1263.3184"/><polygon fill="#181818" points="305.8027,1253.3184,309.8027,1263.3184,313.8027,1253.3184,309.8027,1257.3184" style="stroke:#181818;stroke-width:1.0;"/><line style="stroke:#181818;stroke-width:1.0;" x1="309.8027" x2="309.8027" y1="1350.4121" y2="1370.4121"/><polygon fill="#181818" points="305.8027,1360.4121,309.8027,1370.4121,313.8027,1360.4121,309.8027,1364.4121" style="stroke:#181818;stroke-width:1.0;"/><line style="stroke:#181818;stroke-width:1.0;" x1="309.8027" x2="309.8027" y1="1405.5059" y2="1425.5059"/><polygon fill="#181818" points="305.8027,1415.5059,309.8027,1425.5059,313.8027,1415.5059,309.8027,1419.5059" style="stroke:#181818;stroke-width:1.0;"/><!--SRC=[XLAxRkD03EptAmXNIN4_O4DtY97c41W8O3S7N3EoDXAp3otsaI1_VzoLxIJE0L6XOZaSpWoP3Fk024SuPdxX_BQV43JDnunnzafbpbRJtQb8zunHq7_zOvoJJhJL5luPjCK4BtzJb4ePCQlr5YFBss__edsU8vFJVeIfNHCidDJwfNkZrdjEMRiAWGjiZHG7F0aHHUsFyFY0tMdN5-Jh2lM8PIcpvObI2S6oZkt9YuPIMJFyECA-qwceWqPM9D_wiNNspKmlPZRBy-7SdP1Ba-RfkJYBwGJO8HLJ0JfbTaWi5kCex0ivlKuiATuSu8IRk5grOF_hbZZHpH_SgXy_3pp0Y9vp5gE8ZiYQ_Epc-2ah5sJKrs3sMUGbwcXr7oMybP3vMGWYZrCrs7KTIJf5HbyM9szA-u4gK6O_M3Qqsds4hFw_dgSv2XD7aWCgMVmcjbTfNb9Pig8toPu6iHcGhuDhUH6Cv6klQ-UT6Jt0bbV4z2NPkm7VnRfOsskh4xZIlljJOiOiGqzEsu7roCUfdHK57Hl_fa49eupvr532K7ULycoM-_aUsPPrmjOLD16NBPwlkhje5g527zG_]--></g></svg>