<svg xmlns="http://www.w3.org/2000/svg" xmlns:xlink="http://www.w3.org/1999/xlink" contentStyleType="text/css" height="959px" preserveAspectRatio="none" style="width:1002px;height:959px;background:#FFFFFF;" version="1.1" viewBox="0 0 1002 959" width="1002px" zoomAndPan="magnify"><title>Activity Diagram</title><defs/><g><text fill="#000000" font-family="sans-serif" font-size="14" font-weight="bold" lengthAdjust="spacing" textLength="110.4824" x="444.583" y="34.5332">Activity Diagram</text><text fill="#000000" font-family="sans-serif" font-size="14" font-weight="bold" lengthAdjust="spacing" textLength="108.917" x="445.3657" y="52.1426">Kelola Notifikasi</text><ellipse cx="638.0969" cy="76.2188" fill="#222222" rx="10" ry="10" style="stroke:#222222;stroke-width:1.0;"/><rect fill="#F1F1F1" height="50.1875" rx="12.5" ry="12.5" style="stroke:#181818;stroke-width:0.5;" width="211.4375" x="532.3782" y="106.2188"/><text fill="#000000" font-family="sans-serif" font-size="12" lengthAdjust="spacing" textLength="191.4375" x="542.3782" y="128.6758">Sistem menampilkan badge counter</text><text fill="#000000" font-family="sans-serif" font-size="12" lengthAdjust="spacing" textLength="174.0996" x="542.3782" y="143.7695">notifikasi belum dibaca di navbar</text><polygon fill="#F1F1F1" points="602.3254,176.4063,673.8684,176.4063,685.8684,188.4063,673.8684,200.4063,602.3254,200.4063,590.3254,188.4063,602.3254,176.4063" style="stroke:#181818;stroke-width:0.5;"/><text fill="#000000" font-family="sans-serif" font-size="11" lengthAdjust="spacing" textLength="71.543" x="602.3254" y="192.9072">Ada notifikasi?</text><text fill="#000000" font-family="sans-serif" font-size="11" lengthAdjust="spacing" textLength="13.4546" x="576.8708" y="185.9893">Ya</text><text fill="#000000" font-family="sans-serif" font-size="11" lengthAdjust="spacing" textLength="26.8984" x="685.8684" y="185.9893">Tidak</text><rect fill="#F1F1F1" height="35.0938" rx="12.5" ry="12.5" style="stroke:#181818;stroke-width:0.5;" width="223.4551" x="267.1313" y="210.4063"/><text fill="#000000" font-family="sans-serif" font-size="12" lengthAdjust="spacing" textLength="203.4551" x="277.1313" y="232.8633">Pengguna klik icon notifikasi di navbar</text><rect fill="#F1F1F1" height="50.1875" rx="12.5" ry="12.5" style="stroke:#181818;stroke-width:0.5;" width="167.4043" x="295.1567" y="265.5"/><text fill="#000000" font-family="sans-serif" font-size="12" lengthAdjust="spacing" textLength="147.4043" x="305.1567" y="287.957">Sistem tampilkan dropdown</text><text fill="#000000" font-family="sans-serif" font-size="12" lengthAdjust="spacing" textLength="124.0547" x="305.1567" y="303.0508">max 5 notifikasi terbaru</text><rect fill="#F1F1F1" height="50.1875" rx="12.5" ry="12.5" style="stroke:#181818;stroke-width:0.5;" width="182.75" x="287.4839" y="335.6875"/><text fill="#000000" font-family="sans-serif" font-size="12" lengthAdjust="spacing" textLength="162.75" x="297.4839" y="358.1445">Sistem tampilkan judul, pesan,</text><text fill="#000000" font-family="sans-serif" font-size="12" lengthAdjust="spacing" textLength="122.7422" x="297.4839" y="373.2383">waktu, dan status baca</text><polygon fill="#F1F1F1" points="79.4795,405.875,177.3193,405.875,189.3193,417.875,177.3193,429.875,79.4795,429.875,67.4795,417.875,79.4795,405.875" style="stroke:#181818;stroke-width:0.5;"/><text fill="#000000" font-family="sans-serif" font-size="11" lengthAdjust="spacing" textLength="103.936" x="132.3994" y="441.2939">Klik notifikasi tertentu</text><text fill="#000000" font-family="sans-serif" font-size="11" lengthAdjust="spacing" textLength="97.8398" x="79.4795" y="422.376">Pengguna klik aksi?</text><rect fill="#F1F1F1" height="50.1875" rx="12.5" ry="12.5" style="stroke:#181818;stroke-width:0.5;" width="176.7676" x="40.0156" y="463.7109"/><text fill="#000000" font-family="sans-serif" font-size="12" lengthAdjust="spacing" textLength="156.7676" x="50.0156" y="486.168">Sistem tandai sebagai dibaca</text><text fill="#000000" font-family="sans-serif" font-size="12" lengthAdjust="spacing" textLength="126.7148" x="50.0156" y="501.2617">(set read_at timestamp)</text><rect fill="#F1F1F1" height="35.0938" rx="12.5" ry="12.5" style="stroke:#181818;stroke-width:0.5;" width="234.7988" x="11" y="548.8984"/><text fill="#000000" font-family="sans-serif" font-size="12" lengthAdjust="spacing" textLength="214.7988" x="21" y="571.3555">Sistem update badge counter (kurang 1)</text><rect fill="#F1F1F1" height="35.0938" rx="12.5" ry="12.5" style="stroke:#181818;stroke-width:0.5;" width="201.4063" x="27.6963" y="666.7461"/><text fill="#000000" font-family="sans-serif" font-size="12" lengthAdjust="spacing" textLength="181.4063" x="37.6963" y="689.2031">Sistem redirect ke halaman terkait</text><polygon fill="#F1F1F1" points="76.7349,617.8281,180.064,617.8281,192.064,629.8281,180.064,641.8281,76.7349,641.8281,64.7349,629.8281,76.7349,617.8281" style="stroke:#181818;stroke-width:0.5;"/><text fill="#000000" font-family="sans-serif" font-size="11" lengthAdjust="spacing" textLength="13.4546" x="132.3994" y="653.2471">Ya</text><text fill="#000000" font-family="sans-serif" font-size="11" lengthAdjust="spacing" textLength="103.3291" x="76.7349" y="634.3291">Notifikasi punya link?</text><polygon fill="#F1F1F1" points="128.3994,721.8398,140.3994,733.8398,128.3994,745.8398,116.3994,733.8398,128.3994,721.8398" style="stroke:#181818;stroke-width:0.5;"/><polygon fill="#F1F1F1" points="317.6772,405.875,408.0298,405.875,420.0298,417.875,408.0298,429.875,317.6772,429.875,305.6772,417.875,317.6772,405.875" style="stroke:#181818;stroke-width:0.5;"/><text fill="#000000" font-family="sans-serif" font-size="11" lengthAdjust="spacing" textLength="90.3525" x="317.6772" y="422.376">Klik "Lihat Semua"</text><rect fill="#F1F1F1" height="35.0938" rx="12.5" ry="12.5" style="stroke:#181818;stroke-width:0.5;" width="214.1094" x="255.7988" y="449.875"/><text fill="#000000" font-family="sans-serif" font-size="12" lengthAdjust="spacing" textLength="194.1094" x="265.7988" y="472.332">Arahkan ke halaman daftar notifikasi</text><rect fill="#F1F1F1" height="50.1875" rx="12.5" ry="12.5" style="stroke:#181818;stroke-width:0.5;" width="200.7383" x="262.4844" y="519.9688"/><text fill="#000000" font-family="sans-serif" font-size="12" lengthAdjust="spacing" textLength="180.7383" x="272.4844" y="542.4258">Sistem tampilkan semua notifikasi</text><text fill="#000000" font-family="sans-serif" font-size="12" lengthAdjust="spacing" textLength="98.7598" x="272.4844" y="557.5195">dengan pagination</text><polygon fill="#F1F1F1" points="514.8179,405.875,687.1118,405.875,699.1118,417.875,687.1118,429.875,514.8179,429.875,502.8179,417.875,514.8179,405.875" style="stroke:#181818;stroke-width:0.5;"/><text fill="#000000" font-family="sans-serif" font-size="11" lengthAdjust="spacing" textLength="172.2939" x="514.8179" y="422.376">Klik "Tandai Semua Sudah Dibaca"</text><rect fill="#F1F1F1" height="50.1875" rx="12.5" ry="12.5" style="stroke:#181818;stroke-width:0.5;" width="186.084" x="507.9229" y="449.875"/><text fill="#000000" font-family="sans-serif" font-size="12" lengthAdjust="spacing" textLength="166.084" x="517.9229" y="472.332">Sistem update semua notifikasi</text><text fill="#000000" font-family="sans-serif" font-size="12" lengthAdjust="spacing" textLength="155.4316" x="517.9229" y="487.4258">belum dibaca menjadi dibaca</text><rect fill="#F1F1F1" height="35.0938" rx="12.5" ry="12.5" style="stroke:#181818;stroke-width:0.5;" width="222.1133" x="489.9082" y="535.0625"/><text fill="#000000" font-family="sans-serif" font-size="12" lengthAdjust="spacing" textLength="202.1133" x="499.9082" y="557.5195">Sistem reset badge counter menjadi 0</text><rect fill="#F1F1F1" height="35.0938" rx="12.5" ry="12.5" style="stroke:#181818;stroke-width:0.5;" width="166.0566" x="517.9365" y="603.9922"/><text fill="#000000" font-family="sans-serif" font-size="12" lengthAdjust="spacing" textLength="146.0566" x="527.9365" y="626.4492">Tampilkan notifikasi sukses</text><rect fill="#F1F1F1" height="35.0938" rx="12.5" ry="12.5" style="stroke:#181818;stroke-width:0.5;" width="160.7422" x="298.4878" y="785.8398"/><text fill="#000000" font-family="sans-serif" font-size="12" lengthAdjust="spacing" textLength="140.7422" x="308.4878" y="808.2969">Status notifikasi diperbarui</text><rect fill="#F1F1F1" height="35.0938" rx="12.5" ry="12.5" style="stroke:#181818;stroke-width:0.5;" width="197.457" x="280.1304" y="840.9336"/><text fill="#000000" font-family="sans-serif" font-size="12" lengthAdjust="spacing" textLength="177.457" x="290.1304" y="863.3906">Badge counter notifikasi diupdate</text><rect fill="#F1F1F1" height="35.0938" rx="12.5" ry="12.5" style="stroke:#181818;stroke-width:0.5;" width="230.627" x="761.0215" y="210.4063"/><text fill="#000000" font-family="sans-serif" font-size="12" lengthAdjust="spacing" textLength="210.627" x="771.0215" y="232.8633">Tampilkan pesan "Belum ada notifikasi"</text><polygon fill="#F1F1F1" points="638.0969,882.0273,650.0969,894.0273,638.0969,906.0273,626.0969,894.0273,638.0969,882.0273" style="stroke:#181818;stroke-width:0.5;"/><ellipse cx="638.0969" cy="937.0273" fill="none" rx="11" ry="11" style="stroke:#222222;stroke-width:1.0;"/><ellipse cx="638.0969" cy="937.0273" fill="#222222" rx="6" ry="6" style="stroke:#222222;stroke-width:1.0;"/><line style="stroke:#181818;stroke-width:1.0;" x1="638.0969" x2="638.0969" y1="86.2188" y2="106.2188"/><polygon fill="#181818" points="634.0969,96.2188,638.0969,106.2188,642.0969,96.2188,638.0969,100.2188" style="stroke:#181818;stroke-width:1.0;"/><line style="stroke:#181818;stroke-width:1.0;" x1="378.8589" x2="378.8589" y1="245.5" y2="265.5"/><polygon fill="#181818" points="374.8589,255.5,378.8589,265.5,382.8589,255.5,378.8589,259.5" style="stroke:#181818;stroke-width:1.0;"/><line style="stroke:#181818;stroke-width:1.0;" x1="378.8589" x2="378.8589" y1="315.6875" y2="335.6875"/><polygon fill="#181818" points="374.8589,325.6875,378.8589,335.6875,382.8589,325.6875,378.8589,329.6875" style="stroke:#181818;stroke-width:1.0;"/><line style="stroke:#181818;stroke-width:1.0;" x1="128.3994" x2="128.3994" y1="513.8984" y2="548.8984"/><polygon fill="#181818" points="124.3994,538.8984,128.3994,548.8984,132.3994,538.8984,128.3994,542.8984" style="stroke:#181818;stroke-width:1.0;"/><line style="stroke:#181818;stroke-width:1.0;" x1="128.3994" x2="128.3994" y1="641.8281" y2="666.7461"/><polygon fill="#181818" points="124.3994,656.7461,128.3994,666.7461,132.3994,656.7461,128.3994,660.7461" style="stroke:#181818;stroke-width:1.0;"/><line style="stroke:#181818;stroke-width:1.0;" x1="192.064" x2="239.1025" y1="629.8281" y2="629.8281"/><polygon fill="#181818" points="235.1025,674.293,239.1025,684.293,243.1025,674.293,239.1025,678.293" style="stroke:#181818;stroke-width:1.0;"/><line style="stroke:#181818;stroke-width:1.0;" x1="239.1025" x2="239.1025" y1="629.8281" y2="733.8398"/><line style="stroke:#181818;stroke-width:1.0;" x1="239.1025" x2="140.3994" y1="733.8398" y2="733.8398"/><polygon fill="#181818" points="150.3994,729.8398,140.3994,733.8398,150.3994,737.8398,146.3994,733.8398" style="stroke:#181818;stroke-width:1.0;"/><line style="stroke:#181818;stroke-width:1.0;" x1="128.3994" x2="128.3994" y1="701.8398" y2="721.8398"/><polygon fill="#181818" points="124.3994,711.8398,128.3994,721.8398,132.3994,711.8398,128.3994,715.8398" style="stroke:#181818;stroke-width:1.0;"/><line style="stroke:#181818;stroke-width:1.0;" x1="128.3994" x2="128.3994" y1="583.9922" y2="617.8281"/><polygon fill="#181818" points="124.3994,607.8281,128.3994,617.8281,132.3994,607.8281,128.3994,611.8281" style="stroke:#181818;stroke-width:1.0;"/><line style="stroke:#181818;stroke-width:1.0;" x1="362.8535" x2="362.8535" y1="484.9688" y2="519.9688"/><polygon fill="#181818" points="358.8535,509.9688,362.8535,519.9688,366.8535,509.9688,362.8535,513.9688" style="stroke:#181818;stroke-width:1.0;"/><line style="stroke:#181818;stroke-width:1.0;" x1="600.9648" x2="600.9648" y1="500.0625" y2="535.0625"/><polygon fill="#181818" points="596.9648,525.0625,600.9648,535.0625,604.9648,525.0625,600.9648,529.0625" style="stroke:#181818;stroke-width:1.0;"/><line style="stroke:#181818;stroke-width:1.0;" x1="600.9648" x2="600.9648" y1="570.1563" y2="603.9922"/><polygon fill="#181818" points="596.9648,593.9922,600.9648,603.9922,604.9648,593.9922,600.9648,597.9922" style="stroke:#181818;stroke-width:1.0;"/><line style="stroke:#181818;stroke-width:1.0;" x1="128.3994" x2="128.3994" y1="429.875" y2="463.7109"/><polygon fill="#181818" points="124.3994,453.7109,128.3994,463.7109,132.3994,453.7109,128.3994,457.7109" style="stroke:#181818;stroke-width:1.0;"/><line style="stroke:#181818;stroke-width:1.0;" x1="128.3994" x2="128.3994" y1="745.8398" y2="765.8398"/><polygon fill="#181818" points="124.3994,755.8398,128.3994,765.8398,132.3994,755.8398,128.3994,759.8398" style="stroke:#181818;stroke-width:1.0;"/><line style="stroke:#181818;stroke-width:1.0;" x1="362.8535" x2="362.8535" y1="429.875" y2="449.875"/><polygon fill="#181818" points="358.8535,439.875,362.8535,449.875,366.8535,439.875,362.8535,443.875" style="stroke:#181818;stroke-width:1.0;"/><line style="stroke:#181818;stroke-width:1.0;" x1="362.8535" x2="362.8535" y1="570.1563" y2="765.8398"/><polygon fill="#181818" points="358.8535,755.8398,362.8535,765.8398,366.8535,755.8398,362.8535,759.8398" style="stroke:#181818;stroke-width:1.0;"/><line style="stroke:#181818;stroke-width:1.0;" x1="600.9648" x2="600.9648" y1="429.875" y2="449.875"/><polygon fill="#181818" points="596.9648,439.875,600.9648,449.875,604.9648,439.875,600.9648,443.875" style="stroke:#181818;stroke-width:1.0;"/><line style="stroke:#181818;stroke-width:1.0;" x1="600.9648" x2="600.9648" y1="639.0859" y2="765.8398"/><polygon fill="#181818" points="596.9648,755.8398,600.9648,765.8398,604.9648,755.8398,600.9648,759.8398" style="stroke:#181818;stroke-width:1.0;"/><line style="stroke:#181818;stroke-width:1.0;" x1="189.3193" x2="305.6772" y1="417.875" y2="417.875"/><polygon fill="#181818" points="295.6772,413.875,305.6772,417.875,295.6772,421.875,299.6772,417.875" style="stroke:#181818;stroke-width:1.0;"/><line style="stroke:#181818;stroke-width:1.0;" x1="420.0298" x2="502.8179" y1="417.875" y2="417.875"/><polygon fill="#181818" points="492.8179,413.875,502.8179,417.875,492.8179,421.875,496.8179,417.875" style="stroke:#181818;stroke-width:1.0;"/><line style="stroke:#181818;stroke-width:1.0;" x1="378.8589" x2="378.8589" y1="385.875" y2="390.875"/><line style="stroke:#181818;stroke-width:1.0;" x1="378.8589" x2="128.3994" y1="390.875" y2="390.875"/><line style="stroke:#181818;stroke-width:1.0;" x1="128.3994" x2="128.3994" y1="390.875" y2="405.875"/><polygon fill="#181818" points="124.3994,395.875,128.3994,405.875,132.3994,395.875,128.3994,399.875" style="stroke:#181818;stroke-width:1.0;"/><line style="stroke:#181818;stroke-width:1.0;" x1="699.1118" x2="747.0215" y1="417.875" y2="417.875"/><line style="stroke:#181818;stroke-width:1.0;" x1="747.0215" x2="747.0215" y1="417.875" y2="765.8398"/><polygon fill="#181818" points="743.0215,755.8398,747.0215,765.8398,751.0215,755.8398,747.0215,759.8398" style="stroke:#181818;stroke-width:1.0;"/><line style="stroke:#181818;stroke-width:1.0;" x1="128.3994" x2="747.0215" y1="765.8398" y2="765.8398"/><line style="stroke:#181818;stroke-width:1.0;" x1="378.8589" x2="378.8589" y1="765.8398" y2="785.8398"/><polygon fill="#181818" points="374.8589,775.8398,378.8589,785.8398,382.8589,775.8398,378.8589,779.8398" style="stroke:#181818;stroke-width:1.0;"/><line style="stroke:#181818;stroke-width:1.0;" x1="378.8589" x2="378.8589" y1="820.9336" y2="840.9336"/><polygon fill="#181818" points="374.8589,830.9336,378.8589,840.9336,382.8589,830.9336,378.8589,834.9336" style="stroke:#181818;stroke-width:1.0;"/><line style="stroke:#181818;stroke-width:1.0;" x1="590.3254" x2="378.8589" y1="188.4063" y2="188.4063"/><line style="stroke:#181818;stroke-width:1.0;" x1="378.8589" x2="378.8589" y1="188.4063" y2="210.4063"/><polygon fill="#181818" points="374.8589,200.4063,378.8589,210.4063,382.8589,200.4063,378.8589,204.4063" style="stroke:#181818;stroke-width:1.0;"/><line style="stroke:#181818;stroke-width:1.0;" x1="685.8684" x2="876.335" y1="188.4063" y2="188.4063"/><line style="stroke:#181818;stroke-width:1.0;" x1="876.335" x2="876.335" y1="188.4063" y2="210.4063"/><polygon fill="#181818" points="872.335,200.4063,876.335,210.4063,880.335,200.4063,876.335,204.4063" style="stroke:#181818;stroke-width:1.0;"/><line style="stroke:#181818;stroke-width:1.0;" x1="378.8589" x2="378.8589" y1="876.0273" y2="894.0273"/><line style="stroke:#181818;stroke-width:1.0;" x1="378.8589" x2="626.0969" y1="894.0273" y2="894.0273"/><polygon fill="#181818" points="616.0969,890.0273,626.0969,894.0273,616.0969,898.0273,620.0969,894.0273" style="stroke:#181818;stroke-width:1.0;"/><line style="stroke:#181818;stroke-width:1.0;" x1="876.335" x2="876.335" y1="245.5" y2="894.0273"/><line style="stroke:#181818;stroke-width:1.0;" x1="876.335" x2="650.0969" y1="894.0273" y2="894.0273"/><polygon fill="#181818" points="660.0969,890.0273,650.0969,894.0273,660.0969,898.0273,656.0969,894.0273" style="stroke:#181818;stroke-width:1.0;"/><line style="stroke:#181818;stroke-width:1.0;" x1="638.0969" x2="638.0969" y1="156.4063" y2="176.4063"/><polygon fill="#181818" points="634.0969,166.4063,638.0969,176.4063,642.0969,166.4063,638.0969,170.4063" style="stroke:#181818;stroke-width:1.0;"/><line style="stroke:#181818;stroke-width:1.0;" x1="638.0969" x2="638.0969" y1="906.0273" y2="926.0273"/><polygon fill="#181818" points="634.0969,916.0273,638.0969,926.0273,642.0969,916.0273,638.0969,920.0273" style="stroke:#181818;stroke-width:1.0;"/><!--SRC=[VLGzZzim3DtzAuXC2P2X7ReaGt67RbSK1PAbW862iHYR9vis9Egkz-yhVoIHcjvbS0ABJ-_nFJBUiWpei0Eib5zOtmuD3WHzfLZtKXJAsX8yB8VmZR6ErQKyKTkt23zwvJDRz5mKNj5fiJkmL-gW8y5kuDQYm0bDJL3rGPHSAN85mOdQq87X4rOOlq3mvOHkNnHyXlM3GRZLVjs0DYIm_eMR0k9dzvEaheCWs9OjSDLBKfxUDbKlklIgohX-CFshbDBX7_YIOgFC20pl8P-32UqM1l8esr9UqMhOWeadqGCD7iPsPl3q69l9nQ9D6deQt-JiIg9XRZEN80OPF9smHbvyAsNjIS4Hcj-eeDoH7xLkzdVuC1XKolE0jGqEfORF2U3wOvH-2nc686y8BOkzY-DVBaU67LKAbg315hjeJwIpo7hZ8J5ypbcfzJJHJhQildCJcpfG5t2L6FBWi1cZI2utU8uJc1Yv_uz_bmZzU65IMug90SM30MiMLEvb_w6kunp590mEmM0JbsECOxLvp_PxpcpyuyOyexcaUY_UqHXpdjq5yoafFrwRJ6RA1-l9prKtqvVvdeSssvrXte35mzrZnffLpitjYycVzP4DscK_RqAcJO7LuzGkPckzYiX9J_p_w8VYBm00]--></g></svg>