<svg xmlns="http://www.w3.org/2000/svg" xmlns:xlink="http://www.w3.org/1999/xlink" contentStyleType="text/css" height="1255px" preserveAspectRatio="none" style="width:501px;height:1255px;background:#FFFFFF;" version="1.1" viewBox="0 0 501 1255" width="501px" zoomAndPan="magnify"><title>Activity Diagram</title><defs/><g><text fill="#000000" font-family="sans-serif" font-size="14" font-weight="bold" lengthAdjust="spacing" textLength="110.4824" x="193.8896" y="34.5332">Activity Diagram</text><text fill="#000000" font-family="sans-serif" font-size="14" font-weight="bold" lengthAdjust="spacing" textLength="204.6543" x="146.8037" y="52.1426">Proses Pembayaran &amp; Riwayat</text><ellipse cx="251.4658" cy="76.2188" fill="#222222" rx="10" ry="10" style="stroke:#222222;stroke-width:1.0;"/><rect fill="#F1F1F1" height="35.0938" rx="12.5" ry="12.5" style="stroke:#181818;stroke-width:0.5;" width="225.418" x="138.7568" y="106.2188"/><text fill="#000000" font-family="sans-serif" font-size="12" lengthAdjust="spacing" textLength="205.418" x="148.7568" y="128.6758">Kasir mengakses formulir pembayaran</text><rect fill="#F1F1F1" height="35.0938" rx="12.5" ry="12.5" style="stroke:#181818;stroke-width:0.5;" width="214.748" x="144.0918" y="161.3125"/><text fill="#000000" font-family="sans-serif" font-size="12" lengthAdjust="spacing" textLength="194.748" x="154.0918" y="183.7695">Sistem menampilkan detail transaksi</text><rect fill="#F1F1F1" height="35.0938" rx="12.5" ry="12.5" style="stroke:#181818;stroke-width:0.5;" width="174.7402" x="164.0957" y="216.4063"/><text fill="#000000" font-family="sans-serif" font-size="12" lengthAdjust="spacing" textLength="154.7402" x="174.0957" y="238.8633">Memilih metode pembayaran</text><rect fill="#F1F1F1" height="50.1875" rx="12.5" ry="12.5" style="stroke:#181818;stroke-width:0.5;" width="248.1172" x="127.4072" y="271.5"/><text fill="#000000" font-family="sans-serif" font-size="12" lengthAdjust="spacing" textLength="228.1172" x="137.4072" y="293.957">Sistem menampilkan portal sesuai channel</text><text fill="#000000" font-family="sans-serif" font-size="12" lengthAdjust="spacing" textLength="175.3652" x="137.4072" y="309.0508">(Cash, Transfer, E-Wallet, QRIS)</text><rect fill="#F1F1F1" height="35.0938" rx="12.5" ry="12.5" style="stroke:#181818;stroke-width:0.5;" width="194.0703" x="154.4307" y="341.6875"/><text fill="#000000" font-family="sans-serif" font-size="12" lengthAdjust="spacing" textLength="174.0703" x="164.4307" y="364.1445">Kasir memasukkan jumlah bayar</text><rect fill="#F1F1F1" height="35.0938" rx="12.5" ry="12.5" style="stroke:#181818;stroke-width:0.5;" width="229.4375" x="136.7471" y="396.7813"/><text fill="#000000" font-family="sans-serif" font-size="12" lengthAdjust="spacing" textLength="209.4375" x="146.7471" y="419.2383">Sistem menghitung kembalian otomatis</text><polygon fill="#F1F1F1" points="182.3694,451.875,320.5623,451.875,332.5623,463.875,320.5623,475.875,182.3694,475.875,170.3694,463.875,182.3694,451.875" style="stroke:#181818;stroke-width:0.5;"/><text fill="#000000" font-family="sans-serif" font-size="11" lengthAdjust="spacing" textLength="138.1929" x="182.3694" y="468.376">Jumlah pembayaran cukup?</text><text fill="#000000" font-family="sans-serif" font-size="11" lengthAdjust="spacing" textLength="26.8984" x="143.4709" y="461.458">Tidak</text><text fill="#000000" font-family="sans-serif" font-size="11" lengthAdjust="spacing" textLength="13.4546" x="332.5623" y="461.458">Ya</text><rect fill="#F1F1F1" height="35.0938" rx="12.5" ry="12.5" style="stroke:#181818;stroke-width:0.5;" width="198.752" x="27.2744" y="485.875"/><text fill="#000000" font-family="sans-serif" font-size="12" lengthAdjust="spacing" textLength="178.752" x="37.2744" y="508.332">Sistem menampilkan sisa tagihan</text><rect fill="#F1F1F1" height="35.0938" rx="12.5" ry="12.5" style="stroke:#181818;stroke-width:0.5;" width="231.3008" x="11" y="540.9688"/><text fill="#000000" font-family="sans-serif" font-size="12" lengthAdjust="spacing" textLength="211.3008" x="21" y="563.4258">Tampilkan pesan "Pembayaran kurang"</text><ellipse cx="126.6504" cy="607.0625" fill="none" rx="11" ry="11" style="stroke:#222222;stroke-width:1.0;"/><ellipse cx="126.6504" cy="607.0625" fill="#222222" rx="6" ry="6" style="stroke:#222222;stroke-width:1.0;"/><rect fill="#F1F1F1" height="35.0938" rx="12.5" ry="12.5" style="stroke:#181818;stroke-width:0.5;" width="199.4141" x="276.5742" y="485.875"/><text fill="#000000" font-family="sans-serif" font-size="12" lengthAdjust="spacing" textLength="179.4141" x="286.5742" y="508.332">Kasir mengonfirmasi pembayaran</text><rect fill="#F1F1F1" height="35.0938" rx="12.5" ry="12.5" style="stroke:#181818;stroke-width:0.5;" width="227.9609" x="262.3008" y="540.9688"/><text fill="#000000" font-family="sans-serif" font-size="12" lengthAdjust="spacing" textLength="207.9609" x="272.3008" y="563.4258">Sistem update status transaksi "Lunas"</text><rect fill="#F1F1F1" height="35.0938" rx="12.5" ry="12.5" style="stroke:#181818;stroke-width:0.5;" width="171.4063" x="290.5781" y="596.0625"/><text fill="#000000" font-family="sans-serif" font-size="12" lengthAdjust="spacing" textLength="151.4063" x="300.5781" y="618.5195">Sistem generate struk digital</text><rect fill="#F1F1F1" height="35.0938" rx="12.5" ry="12.5" style="stroke:#181818;stroke-width:0.5;" width="171.4063" x="290.5781" y="700.0742"/><text fill="#000000" font-family="sans-serif" font-size="12" lengthAdjust="spacing" textLength="151.4063" x="300.5781" y="722.5313">Mencetak struk pembayaran</text><polygon fill="#F1F1F1" points="345.4082,651.1563,407.1543,651.1563,419.1543,663.1563,407.1543,675.1563,345.4082,675.1563,333.4082,663.1563,345.4082,651.1563" style="stroke:#181818;stroke-width:0.5;"/><text fill="#000000" font-family="sans-serif" font-size="11" lengthAdjust="spacing" textLength="13.4546" x="380.2813" y="686.5752">Ya</text><text fill="#000000" font-family="sans-serif" font-size="11" lengthAdjust="spacing" textLength="61.7461" x="345.4082" y="667.6572">Cetak struk?</text><polygon fill="#F1F1F1" points="376.2813,755.168,388.2813,767.168,376.2813,779.168,364.2813,767.168,376.2813,755.168" style="stroke:#181818;stroke-width:0.5;"/><rect fill="#F1F1F1" height="35.0938" rx="12.5" ry="12.5" style="stroke:#181818;stroke-width:0.5;" width="164.7324" x="293.915" y="799.168"/><text fill="#000000" font-family="sans-serif" font-size="12" lengthAdjust="spacing" textLength="144.7324" x="303.915" y="821.625">Sistem kurangi stok produk</text><rect fill="#F1F1F1" height="35.0938" rx="12.5" ry="12.5" style="stroke:#181818;stroke-width:0.5;" width="168.7637" x="291.8994" y="854.2617"/><text fill="#000000" font-family="sans-serif" font-size="12" lengthAdjust="spacing" textLength="148.7637" x="301.8994" y="876.7188">Sistem catat data keuangan</text><rect fill="#F1F1F1" height="35.0938" rx="12.5" ry="12.5" style="stroke:#181818;stroke-width:0.5;" width="166.0566" x="293.2529" y="909.3555"/><text fill="#000000" font-family="sans-serif" font-size="12" lengthAdjust="spacing" textLength="146.0566" x="303.2529" y="931.8125">Tampilkan notifikasi sukses</text><rect fill="#F1F1F1" height="35.0938" rx="12.5" ry="12.5" style="stroke:#181818;stroke-width:0.5;" width="202.748" x="150.0918" y="1013.3672"/><text fill="#000000" font-family="sans-serif" font-size="12" lengthAdjust="spacing" textLength="182.748" x="160.0918" y="1035.8242">Kasir mengakses halaman riwayat</text><rect fill="#F1F1F1" height="35.0938" rx="12.5" ry="12.5" style="stroke:#181818;stroke-width:0.5;" width="216.7461" x="143.0928" y="1068.4609"/><text fill="#000000" font-family="sans-serif" font-size="12" lengthAdjust="spacing" textLength="196.7461" x="153.0928" y="1090.918">Sistem menampilkan daftar transaksi</text><rect fill="#F1F1F1" height="35.0938" rx="12.5" ry="12.5" style="stroke:#181818;stroke-width:0.5;" width="195.4238" x="153.7539" y="1123.5547"/><text fill="#000000" font-family="sans-serif" font-size="12" lengthAdjust="spacing" textLength="175.4238" x="163.7539" y="1146.0117">Filter berdasarkan periode/status</text><polygon fill="#F1F1F1" points="193.9951,964.4492,308.9365,964.4492,320.9365,976.4492,308.9365,988.4492,193.9951,988.4492,181.9951,976.4492,193.9951,964.4492" style="stroke:#181818;stroke-width:0.5;"/><text fill="#000000" font-family="sans-serif" font-size="11" lengthAdjust="spacing" textLength="13.4546" x="255.4658" y="999.8682">Ya</text><text fill="#000000" font-family="sans-serif" font-size="11" lengthAdjust="spacing" textLength="114.9414" x="193.9951" y="980.9502">Lihat riwayat transaksi?</text><polygon fill="#F1F1F1" points="251.4658,1178.6484,263.4658,1190.6484,251.4658,1202.6484,239.4658,1190.6484,251.4658,1178.6484" style="stroke:#181818;stroke-width:0.5;"/><ellipse cx="251.4658" cy="1233.6484" fill="none" rx="11" ry="11" style="stroke:#222222;stroke-width:1.0;"/><ellipse cx="251.4658" cy="1233.6484" fill="#222222" rx="6" ry="6" style="stroke:#222222;stroke-width:1.0;"/><line style="stroke:#181818;stroke-width:1.0;" x1="251.4658" x2="251.4658" y1="86.2188" y2="106.2188"/><polygon fill="#181818" points="247.4658,96.2188,251.4658,106.2188,255.4658,96.2188,251.4658,100.2188" style="stroke:#181818;stroke-width:1.0;"/><line style="stroke:#181818;stroke-width:1.0;" x1="251.4658" x2="251.4658" y1="141.3125" y2="161.3125"/><polygon fill="#181818" points="247.4658,151.3125,251.4658,161.3125,255.4658,151.3125,251.4658,155.3125" style="stroke:#181818;stroke-width:1.0;"/><line style="stroke:#181818;stroke-width:1.0;" x1="251.4658" x2="251.4658" y1="196.4063" y2="216.4063"/><polygon fill="#181818" points="247.4658,206.4063,251.4658,216.4063,255.4658,206.4063,251.4658,210.4063" style="stroke:#181818;stroke-width:1.0;"/><line style="stroke:#181818;stroke-width:1.0;" x1="251.4658" x2="251.4658" y1="251.5" y2="271.5"/><polygon fill="#181818" points="247.4658,261.5,251.4658,271.5,255.4658,261.5,251.4658,265.5" style="stroke:#181818;stroke-width:1.0;"/><line style="stroke:#181818;stroke-width:1.0;" x1="251.4658" x2="251.4658" y1="321.6875" y2="341.6875"/><polygon fill="#181818" points="247.4658,331.6875,251.4658,341.6875,255.4658,331.6875,251.4658,335.6875" style="stroke:#181818;stroke-width:1.0;"/><line style="stroke:#181818;stroke-width:1.0;" x1="251.4658" x2="251.4658" y1="376.7813" y2="396.7813"/><polygon fill="#181818" points="247.4658,386.7813,251.4658,396.7813,255.4658,386.7813,251.4658,390.7813" style="stroke:#181818;stroke-width:1.0;"/><line style="stroke:#181818;stroke-width:1.0;" x1="126.6504" x2="126.6504" y1="520.9688" y2="540.9688"/><polygon fill="#181818" points="122.6504,530.9688,126.6504,540.9688,130.6504,530.9688,126.6504,534.9688" style="stroke:#181818;stroke-width:1.0;"/><line style="stroke:#181818;stroke-width:1.0;" x1="126.6504" x2="126.6504" y1="576.0625" y2="596.0625"/><polygon fill="#181818" points="122.6504,586.0625,126.6504,596.0625,130.6504,586.0625,126.6504,590.0625" style="stroke:#181818;stroke-width:1.0;"/><line style="stroke:#181818;stroke-width:1.0;" x1="376.2813" x2="376.2813" y1="520.9688" y2="540.9688"/><polygon fill="#181818" points="372.2813,530.9688,376.2813,540.9688,380.2813,530.9688,376.2813,534.9688" style="stroke:#181818;stroke-width:1.0;"/><line style="stroke:#181818;stroke-width:1.0;" x1="376.2813" x2="376.2813" y1="576.0625" y2="596.0625"/><polygon fill="#181818" points="372.2813,586.0625,376.2813,596.0625,380.2813,586.0625,376.2813,590.0625" style="stroke:#181818;stroke-width:1.0;"/><line style="stroke:#181818;stroke-width:1.0;" x1="376.2813" x2="376.2813" y1="675.1563" y2="700.0742"/><polygon fill="#181818" points="372.2813,690.0742,376.2813,700.0742,380.2813,690.0742,376.2813,694.0742" style="stroke:#181818;stroke-width:1.0;"/><line style="stroke:#181818;stroke-width:1.0;" x1="419.1543" x2="471.9844" y1="663.1563" y2="663.1563"/><polygon fill="#181818" points="467.9844,707.6211,471.9844,717.6211,475.9844,707.6211,471.9844,711.6211" style="stroke:#181818;stroke-width:1.0;"/><line style="stroke:#181818;stroke-width:1.0;" x1="471.9844" x2="471.9844" y1="663.1563" y2="767.168"/><line style="stroke:#181818;stroke-width:1.0;" x1="471.9844" x2="388.2813" y1="767.168" y2="767.168"/><polygon fill="#181818" points="398.2813,763.168,388.2813,767.168,398.2813,771.168,394.2813,767.168" style="stroke:#181818;stroke-width:1.0;"/><line style="stroke:#181818;stroke-width:1.0;" x1="376.2813" x2="376.2813" y1="735.168" y2="755.168"/><polygon fill="#181818" points="372.2813,745.168,376.2813,755.168,380.2813,745.168,376.2813,749.168" style="stroke:#181818;stroke-width:1.0;"/><line style="stroke:#181818;stroke-width:1.0;" x1="376.2813" x2="376.2813" y1="631.1563" y2="651.1563"/><polygon fill="#181818" points="372.2813,641.1563,376.2813,651.1563,380.2813,641.1563,376.2813,645.1563" style="stroke:#181818;stroke-width:1.0;"/><line style="stroke:#181818;stroke-width:1.0;" x1="376.2813" x2="376.2813" y1="779.168" y2="799.168"/><polygon fill="#181818" points="372.2813,789.168,376.2813,799.168,380.2813,789.168,376.2813,793.168" style="stroke:#181818;stroke-width:1.0;"/><line style="stroke:#181818;stroke-width:1.0;" x1="376.2813" x2="376.2813" y1="834.2617" y2="854.2617"/><polygon fill="#181818" points="372.2813,844.2617,376.2813,854.2617,380.2813,844.2617,376.2813,848.2617" style="stroke:#181818;stroke-width:1.0;"/><line style="stroke:#181818;stroke-width:1.0;" x1="376.2813" x2="376.2813" y1="889.3555" y2="909.3555"/><polygon fill="#181818" points="372.2813,899.3555,376.2813,909.3555,380.2813,899.3555,376.2813,903.3555" style="stroke:#181818;stroke-width:1.0;"/><line style="stroke:#181818;stroke-width:1.0;" x1="170.3694" x2="126.6504" y1="463.875" y2="463.875"/><line style="stroke:#181818;stroke-width:1.0;" x1="126.6504" x2="126.6504" y1="463.875" y2="485.875"/><polygon fill="#181818" points="122.6504,475.875,126.6504,485.875,130.6504,475.875,126.6504,479.875" style="stroke:#181818;stroke-width:1.0;"/><line style="stroke:#181818;stroke-width:1.0;" x1="332.5623" x2="376.2813" y1="463.875" y2="463.875"/><line style="stroke:#181818;stroke-width:1.0;" x1="376.2813" x2="376.2813" y1="463.875" y2="485.875"/><polygon fill="#181818" points="372.2813,475.875,376.2813,485.875,380.2813,475.875,376.2813,479.875" style="stroke:#181818;stroke-width:1.0;"/><line style="stroke:#181818;stroke-width:1.0;" x1="376.2813" x2="376.2813" y1="944.4492" y2="949.4492"/><line style="stroke:#181818;stroke-width:1.0;" x1="376.2813" x2="251.4658" y1="949.4492" y2="949.4492"/><line style="stroke:#181818;stroke-width:1.0;" x1="251.4658" x2="251.4658" y1="949.4492" y2="964.4492"/><polygon fill="#181818" points="247.4658,954.4492,251.4658,964.4492,255.4658,954.4492,251.4658,958.4492" style="stroke:#181818;stroke-width:1.0;"/><line style="stroke:#181818;stroke-width:1.0;" x1="251.4658" x2="251.4658" y1="431.875" y2="451.875"/><polygon fill="#181818" points="247.4658,441.875,251.4658,451.875,255.4658,441.875,251.4658,445.875" style="stroke:#181818;stroke-width:1.0;"/><line style="stroke:#181818;stroke-width:1.0;" x1="251.4658" x2="251.4658" y1="1048.4609" y2="1068.4609"/><polygon fill="#181818" points="247.4658,1058.4609,251.4658,1068.4609,255.4658,1058.4609,251.4658,1062.4609" style="stroke:#181818;stroke-width:1.0;"/><line style="stroke:#181818;stroke-width:1.0;" x1="251.4658" x2="251.4658" y1="1103.5547" y2="1123.5547"/><polygon fill="#181818" points="247.4658,1113.5547,251.4658,1123.5547,255.4658,1113.5547,251.4658,1117.5547" style="stroke:#181818;stroke-width:1.0;"/><line style="stroke:#181818;stroke-width:1.0;" x1="251.4658" x2="251.4658" y1="988.4492" y2="1013.3672"/><polygon fill="#181818" points="247.4658,1003.3672,251.4658,1013.3672,255.4658,1003.3672,251.4658,1007.3672" style="stroke:#181818;stroke-width:1.0;"/><line style="stroke:#181818;stroke-width:1.0;" x1="320.9365" x2="369.8389" y1="976.4492" y2="976.4492"/><polygon fill="#181818" points="365.8389,1076.0078,369.8389,1086.0078,373.8389,1076.0078,369.8389,1080.0078" style="stroke:#181818;stroke-width:1.0;"/><line style="stroke:#181818;stroke-width:1.0;" x1="369.8389" x2="369.8389" y1="976.4492" y2="1190.6484"/><line style="stroke:#181818;stroke-width:1.0;" x1="369.8389" x2="263.4658" y1="1190.6484" y2="1190.6484"/><polygon fill="#181818" points="273.4658,1186.6484,263.4658,1190.6484,273.4658,1194.6484,269.4658,1190.6484" style="stroke:#181818;stroke-width:1.0;"/><line style="stroke:#181818;stroke-width:1.0;" x1="251.4658" x2="251.4658" y1="1158.6484" y2="1178.6484"/><polygon fill="#181818" points="247.4658,1168.6484,251.4658,1178.6484,255.4658,1168.6484,251.4658,1172.6484" style="stroke:#181818;stroke-width:1.0;"/><line style="stroke:#181818;stroke-width:1.0;" x1="251.4658" x2="251.4658" y1="1202.6484" y2="1222.6484"/><polygon fill="#181818" points="247.4658,1212.6484,251.4658,1222.6484,255.4658,1212.6484,251.4658,1216.6484" style="stroke:#181818;stroke-width:1.0;"/><!--SRC=[XLDDQzj04BtlhnXyA3Ouz6uVIabRI9j06XjA8PU9D9Ac-oLsPrloxpkIRCl6ATLX4TARD-_DcysMGuy9FM0b_9lbTTTXJn0hmJO6OuJ54Nmy_8HFZAsYdyDZYfaoF99_mLSb2F0EdlYFleinMJ29sNp3p0ayXHRj06vYyiNff_vKjJMR7MSXFy3Gz-oiKjKao0v40LbBUMlCve4yE-uK9x6c_rBqCGawqBO56QeEGo3t79QtcBirx0VcXj8QFj_yGET8rl3zwMwt6ZeTPNlCnGvSluftsC7Oxw9Rsx6Kq88Tn3XMQ9JeKJWh3pUm_3fLpcAXAhRq7rOW7GLOxhb6kpAWpricCcS43OAxmUQ8siyEAUkvE4l05ZtRnOJC4dj3BXCiV-AXnHn830qdDSWNWppNKVeQXPG6fUGv2bZSbu1vSGbkAL2QuAbOgBbbdVw46OzX6BUQgfqGfm4SfOra3nIg6NEbZ4BDpKnvx3svvi6mrgHO5tifhaBr0Ee6DQYYs3U66Q9mmtOOY8QkMxCrKxinndiDG21DwptFuih5rSPtwD0h_Q5q-y-aQspqpfnl_8ZymauemGkb6ZEcAVR4UW7UJy6SP8vn_mK0]--></g></svg>