<svg xmlns="http://www.w3.org/2000/svg" xmlns:xlink="http://www.w3.org/1999/xlink" contentStyleType="text/css" height="1112px" preserveAspectRatio="none" style="width:2678px;height:1112px;background:#FFFFFF;" version="1.1" viewBox="0 0 2678 1112" width="2678px" zoomAndPan="magnify"><defs/><g><rect fill="none" height="22.6406" style="stroke:none;stroke-width:1.0;" width="2645.6616" x="15" y="12.4551"/><ellipse cx="676.8237" cy="50.0957" fill="#222222" rx="10" ry="10" style="stroke:#222222;stroke-width:1.0;"/><rect fill="#F1F1F1" height="35.0938" rx="12.5" ry="12.5" style="stroke:#181818;stroke-width:0.5;" width="166.0742" x="593.7866" y="80.0957"/><text fill="#000000" font-family="sans-serif" font-size="12" lengthAdjust="spacing" textLength="146.0742" x="603.7866" y="102.5527">Membuka halaman Pekerja</text><polygon fill="#F1F1F1" points="92.583,135.1895,119.4814,135.1895,131.4814,147.1895,119.4814,159.1895,92.583,159.1895,80.583,147.1895,92.583,135.1895" style="stroke:#181818;stroke-width:0.5;"/><text fill="#000000" font-family="sans-serif" font-size="11" lengthAdjust="spacing" textLength="40.353" x="110.0322" y="170.6084">Tambah</text><text fill="#000000" font-family="sans-serif" font-size="11" lengthAdjust="spacing" textLength="26.8984" x="92.583" y="151.6904">Aksi?</text><rect fill="#F1F1F1" height="35.0938" rx="12.5" ry="12.5" style="stroke:#181818;stroke-width:0.5;" width="170.0645" x="21" y="192.1084"/><text fill="#000000" font-family="sans-serif" font-size="12" lengthAdjust="spacing" textLength="150.0645" x="31" y="214.5654">Klik tombol Tambah Pekerja</text><path d="M191.7197,247.2021 L191.7197,305.4326 L171.7197,309.4326 L191.7197,313.4326 L191.7197,371.6631 A0,0 0 0 0 191.7197,371.6631 L307.3696,371.6631 A0,0 0 0 0 307.3696,371.6631 L307.3696,257.2021 L297.3696,247.2021 L191.7197,247.2021 A0,0 0 0 0 191.7197,247.2021 " fill="#FEFFDD" style="stroke:#181818;stroke-width:0.5;"/><path d="M297.3696,247.2021 L297.3696,257.2021 L307.3696,257.2021 L297.3696,247.2021 " fill="#FEFFDD" style="stroke:#181818;stroke-width:0.5;"/><text fill="#000000" font-family="sans-serif" font-size="13" lengthAdjust="spacing" textLength="77.3208" x="197.7197" y="265.6973">Data pekerja:</text><text fill="#000000" font-family="sans-serif" font-size="13" lengthAdjust="spacing" textLength="42.6182" x="197.7197" y="282.0488">- Nama</text><text fill="#000000" font-family="sans-serif" font-size="13" lengthAdjust="spacing" textLength="76.5654" x="197.7197" y="298.4004">- Email (unik)</text><text fill="#000000" font-family="sans-serif" font-size="13" lengthAdjust="spacing" textLength="93.209" x="197.7197" y="314.752">- Nomor telepon</text><text fill="#000000" font-family="sans-serif" font-size="13" lengthAdjust="spacing" textLength="65.019" x="197.7197" y="331.1035">- Password</text><text fill="#000000" font-family="sans-serif" font-size="13" lengthAdjust="spacing" textLength="86.6963" x="197.7197" y="347.4551">- Jenis kelamin</text><text fill="#000000" font-family="sans-serif" font-size="13" lengthAdjust="spacing" textLength="94.6499" x="197.7197" y="363.8066">- Foto (opsional)</text><rect fill="#F1F1F1" height="35.0938" rx="12.5" ry="12.5" style="stroke:#181818;stroke-width:0.5;" width="131.375" x="40.3447" y="291.8857"/><text fill="#000000" font-family="sans-serif" font-size="12" lengthAdjust="spacing" textLength="111.375" x="50.3447" y="314.3428">Mengisi form pekerja</text><path d="M189.3818,406.6631 L189.3818,448.542 L169.3818,452.542 L189.3818,456.542 L189.3818,498.4209 A0,0 0 0 0 189.3818,498.4209 L323.0845,498.4209 A0,0 0 0 0 323.0845,498.4209 L323.0845,416.6631 L313.0845,406.6631 L189.3818,406.6631 A0,0 0 0 0 189.3818,406.6631 " fill="#FEFFDD" style="stroke:#181818;stroke-width:0.5;"/><path d="M313.0845,406.6631 L313.0845,416.6631 L323.0845,416.6631 L313.0845,406.6631 " fill="#FEFFDD" style="stroke:#181818;stroke-width:0.5;"/><text fill="#000000" font-family="sans-serif" font-size="13" lengthAdjust="spacing" textLength="88.1626" x="195.3818" y="425.1582">Peran tersedia:</text><text fill="#000000" font-family="sans-serif" font-size="13" lengthAdjust="spacing" textLength="37.5591" x="195.3818" y="441.5098">- Kasir</text><text fill="#000000" font-family="sans-serif" font-size="13" lengthAdjust="spacing" textLength="58.519" x="195.3818" y="457.8613">- Produksi</text><text fill="#000000" font-family="sans-serif" font-size="13" lengthAdjust="spacing" textLength="57.8018" x="195.3818" y="474.2129">- Inventori</text><text fill="#000000" font-family="sans-serif" font-size="13" lengthAdjust="spacing" textLength="112.7026" x="195.3818" y="490.5645">- (atau custom role)</text><rect fill="#F1F1F1" height="35.0938" rx="12.5" ry="12.5" style="stroke:#181818;stroke-width:0.5;" width="126.6992" x="42.6826" y="434.9951"/><text fill="#000000" font-family="sans-serif" font-size="12" lengthAdjust="spacing" textLength="106.6992" x="52.6826" y="457.4521">Memilih peran (role)</text><rect fill="#F1F1F1" height="35.0938" rx="12.5" ry="12.5" style="stroke:#181818;stroke-width:0.5;" width="124.7188" x="43.6729" y="533.4209"/><text fill="#000000" font-family="sans-serif" font-size="12" lengthAdjust="spacing" textLength="104.7188" x="53.6729" y="555.8779">Menyimpan pekerja</text><polygon fill="#F1F1F1" points="417.0161,135.1895,443.9146,135.1895,455.9146,147.1895,443.9146,159.1895,417.0161,159.1895,405.0161,147.1895,417.0161,135.1895" style="stroke:#181818;stroke-width:0.5;"/><text fill="#000000" font-family="sans-serif" font-size="11" lengthAdjust="spacing" textLength="18.9546" x="434.4653" y="170.6084">Edit</text><text fill="#000000" font-family="sans-serif" font-size="11" lengthAdjust="spacing" textLength="26.8984" x="417.0161" y="151.6904">Aksi?</text><rect fill="#F1F1F1" height="35.0938" rx="12.5" ry="12.5" style="stroke:#181818;stroke-width:0.5;" width="194.7617" x="333.0845" y="192.1084"/><text fill="#000000" font-family="sans-serif" font-size="12" lengthAdjust="spacing" textLength="174.7617" x="343.0845" y="214.5654">Memilih pekerja yang akan diedit</text><rect fill="#F1F1F1" height="35.0938" rx="12.5" ry="12.5" style="stroke:#181818;stroke-width:0.5;" width="146.0938" x="357.4185" y="247.2021"/><text fill="#000000" font-family="sans-serif" font-size="12" lengthAdjust="spacing" textLength="126.0938" x="367.4185" y="269.6592">Mengubah data pekerja</text><rect fill="#F1F1F1" height="35.0938" rx="12.5" ry="12.5" style="stroke:#181818;stroke-width:0.5;" width="173.4043" x="343.7632" y="366.2139"/><text fill="#000000" font-family="sans-serif" font-size="12" lengthAdjust="spacing" textLength="153.4043" x="353.7632" y="388.6709">Memasukkan password baru</text><polygon fill="#F1F1F1" points="389.1912,317.2959,471.7395,317.2959,483.7395,329.2959,471.7395,341.2959,389.1912,341.2959,377.1912,329.2959,389.1912,317.2959" style="stroke:#181818;stroke-width:0.5;"/><text fill="#000000" font-family="sans-serif" font-size="11" lengthAdjust="spacing" textLength="13.4546" x="434.4653" y="352.7148">Ya</text><text fill="#000000" font-family="sans-serif" font-size="11" lengthAdjust="spacing" textLength="82.5483" x="389.1912" y="333.7969">Ubah password?</text><text fill="#000000" font-family="sans-serif" font-size="11" lengthAdjust="spacing" textLength="26.8984" x="483.7395" y="326.8789">Tidak</text><polygon fill="#F1F1F1" points="430.4653,426.2256,442.4653,438.2256,430.4653,450.2256,418.4653,438.2256,430.4653,426.2256" style="stroke:#181818;stroke-width:0.5;"/><rect fill="#F1F1F1" height="35.0938" rx="12.5" ry="12.5" style="stroke:#181818;stroke-width:0.5;" width="166.7656" x="347.0825" y="485.2256"/><text fill="#000000" font-family="sans-serif" font-size="12" lengthAdjust="spacing" textLength="146.7656" x="357.0825" y="507.6826">Mengubah peran (opsional)</text><rect fill="#F1F1F1" height="35.0938" rx="12.5" ry="12.5" style="stroke:#181818;stroke-width:0.5;" width="142.748" x="359.0913" y="555.3193"/><text fill="#000000" font-family="sans-serif" font-size="12" lengthAdjust="spacing" textLength="122.748" x="369.0913" y="577.7764">Menyimpan perubahan</text><polygon fill="#F1F1F1" points="579.7329,135.1895,606.6313,135.1895,618.6313,147.1895,606.6313,159.1895,579.7329,159.1895,567.7329,147.1895,579.7329,135.1895" style="stroke:#181818;stroke-width:0.5;"/><text fill="#000000" font-family="sans-serif" font-size="11" lengthAdjust="spacing" textLength="55.0322" x="597.1821" y="170.6084">Lihat Detail</text><text fill="#000000" font-family="sans-serif" font-size="11" lengthAdjust="spacing" textLength="26.8984" x="579.7329" y="151.6904">Aksi?</text><rect fill="#F1F1F1" height="35.0938" rx="12.5" ry="12.5" style="stroke:#181818;stroke-width:0.5;" width="104.0293" x="541.1675" y="192.1084"/><text fill="#000000" font-family="sans-serif" font-size="12" lengthAdjust="spacing" textLength="84.0293" x="551.1675" y="214.5654">Memilih pekerja</text><polygon fill="#F1F1F1" points="843.1138,135.1895,870.0122,135.1895,882.0122,147.1895,870.0122,159.1895,843.1138,159.1895,831.1138,147.1895,843.1138,135.1895" style="stroke:#181818;stroke-width:0.5;"/><text fill="#000000" font-family="sans-serif" font-size="11" lengthAdjust="spacing" textLength="80.0884" x="860.563" y="170.6084">Reset Password</text><text fill="#000000" font-family="sans-serif" font-size="11" lengthAdjust="spacing" textLength="26.8984" x="843.1138" y="151.6904">Aksi?</text><text fill="#000000" font-family="sans-serif" font-size="11" lengthAdjust="spacing" textLength="31.7969" x="882.0122" y="144.7725">Hapus</text><rect fill="#F1F1F1" height="35.0938" rx="12.5" ry="12.5" style="stroke:#181818;stroke-width:0.5;" width="104.0293" x="804.5483" y="192.1084"/><text fill="#000000" font-family="sans-serif" font-size="12" lengthAdjust="spacing" textLength="84.0293" x="814.5483" y="214.5654">Memilih pekerja</text><rect fill="#F1F1F1" height="35.0938" rx="12.5" ry="12.5" style="stroke:#181818;stroke-width:0.5;" width="130.0391" x="791.5435" y="247.2021"/><text fill="#000000" font-family="sans-serif" font-size="12" lengthAdjust="spacing" textLength="110.0391" x="801.5435" y="269.6592">Klik Reset Password</text><rect fill="#F1F1F1" height="35.0938" rx="12.5" ry="12.5" style="stroke:#181818;stroke-width:0.5;" width="173.4043" x="769.8608" y="317.2959"/><text fill="#000000" font-family="sans-serif" font-size="12" lengthAdjust="spacing" textLength="153.4043" x="779.8608" y="339.7529">Memasukkan password baru</text><rect fill="#F1F1F1" height="35.0938" rx="12.5" ry="12.5" style="stroke:#181818;stroke-width:0.5;" width="131.375" x="790.8755" y="387.3896"/><text fill="#000000" font-family="sans-serif" font-size="12" lengthAdjust="spacing" textLength="111.375" x="800.8755" y="409.8467">Konfirmasi password</text><rect fill="#F1F1F1" height="35.0938" rx="12.5" ry="12.5" style="stroke:#181818;stroke-width:0.5;" width="208.1094" x="953.2651" y="414.2607"/><text fill="#000000" font-family="sans-serif" font-size="12" lengthAdjust="spacing" textLength="188.1094" x="963.2651" y="436.7178">Memilih pekerja yang akan dihapus</text><rect fill="#F1F1F1" height="35.0938" rx="12.5" ry="12.5" style="stroke:#181818;stroke-width:0.5;" width="152.7559" x="980.9419" y="484.3545"/><text fill="#000000" font-family="sans-serif" font-size="12" lengthAdjust="spacing" textLength="132.7559" x="990.9419" y="506.8115">Konfirmasi penghapusan</text><line style="stroke:#000000;stroke-width:1.5;" x1="15" x2="15" y1="12.4551" y2="1100.0771"/><rect fill="#F1F1F1" height="35.0938" rx="12.5" ry="12.5" style="stroke:#181818;stroke-width:0.5;" width="88.7129" x="1296.0874" y="603.5146"/><text fill="#000000" font-family="sans-serif" font-size="12" lengthAdjust="spacing" textLength="68.7129" x="1306.0874" y="625.9717">Validasi data</text><polygon fill="#F1F1F1" points="1285.1082,673.6084,1395.7795,673.6084,1407.7795,685.6084,1395.7795,697.6084,1285.1082,697.6084,1273.1082,685.6084,1285.1082,673.6084" style="stroke:#181818;stroke-width:0.5;"/><text fill="#000000" font-family="sans-serif" font-size="11" lengthAdjust="spacing" textLength="110.6714" x="1285.1082" y="690.1094">Email sudah terdaftar?</text><text fill="#000000" font-family="sans-serif" font-size="11" lengthAdjust="spacing" textLength="13.4546" x="1259.6536" y="683.1914">Ya</text><text fill="#000000" font-family="sans-serif" font-size="11" lengthAdjust="spacing" textLength="26.8984" x="1407.7795" y="683.1914">Tidak</text><rect fill="#F1F1F1" height="35.0938" rx="12.5" ry="12.5" style="stroke:#181818;stroke-width:0.5;" width="156.0664" x="1171.3745" y="707.6084"/><text fill="#000000" font-family="sans-serif" font-size="12" lengthAdjust="spacing" textLength="136.0664" x="1181.3745" y="730.0654">Menampilkan pesan error</text><rect fill="#F1F1F1" height="35.0938" rx="12.5" ry="12.5" style="stroke:#181818;stroke-width:0.5;" width="102.7051" x="1380.1274" y="707.6084"/><text fill="#000000" font-family="sans-serif" font-size="12" lengthAdjust="spacing" textLength="82.7051" x="1390.1274" y="730.0654">Hash password</text><rect fill="#F1F1F1" height="35.0938" rx="12.5" ry="12.5" style="stroke:#181818;stroke-width:0.5;" width="150.7461" x="1356.1069" y="777.7021"/><text fill="#000000" font-family="sans-serif" font-size="12" lengthAdjust="spacing" textLength="130.7461" x="1366.1069" y="800.1592">Menyimpan ke database</text><rect fill="#F1F1F1" height="35.0938" rx="12.5" ry="12.5" style="stroke:#181818;stroke-width:0.5;" width="122.0469" x="1370.4565" y="847.7959"/><text fill="#000000" font-family="sans-serif" font-size="12" lengthAdjust="spacing" textLength="102.0469" x="1380.4565" y="870.2529">Assign role ke user</text><rect fill="#F1F1F1" height="35.0938" rx="12.5" ry="12.5" style="stroke:#181818;stroke-width:0.5;" width="168.0781" x="1347.4409" y="917.8896"/><text fill="#000000" font-family="sans-serif" font-size="12" lengthAdjust="spacing" textLength="148.0781" x="1357.4409" y="940.3467">Menampilkan pesan sukses</text><polygon fill="#F1F1F1" points="1340.4438,958.9834,1352.4438,970.9834,1340.4438,982.9834,1328.4438,970.9834,1340.4438,958.9834" style="stroke:#181818;stroke-width:0.5;"/><rect fill="#F1F1F1" height="35.0938" rx="12.5" ry="12.5" style="stroke:#181818;stroke-width:0.5;" width="88.7129" x="1565.2017" y="625.4131"/><text fill="#000000" font-family="sans-serif" font-size="12" lengthAdjust="spacing" textLength="68.7129" x="1575.2017" y="647.8701">Validasi data</text><rect fill="#F1F1F1" height="35.0938" rx="12.5" ry="12.5" style="stroke:#181818;stroke-width:0.5;" width="128.0762" x="1545.52" y="695.5068"/><text fill="#000000" font-family="sans-serif" font-size="12" lengthAdjust="spacing" textLength="108.0762" x="1555.52" y="717.9639">Update data pekerja</text><rect fill="#F1F1F1" height="35.0938" rx="12.5" ry="12.5" style="stroke:#181818;stroke-width:0.5;" width="97.373" x="1560.8716" y="814.5186"/><text fill="#000000" font-family="sans-serif" font-size="12" lengthAdjust="spacing" textLength="77.373" x="1570.8716" y="836.9756">Sync role baru</text><rect fill="#F1F1F1" height="35.0938" rx="12.5" ry="12.5" style="stroke:#181818;stroke-width:0.5;" width="107.375" x="1555.8706" y="884.6123"/><text fill="#000000" font-family="sans-serif" font-size="12" lengthAdjust="spacing" textLength="87.375" x="1565.8706" y="907.0693">Hapus role lama</text><polygon fill="#F1F1F1" points="1573.4751,765.6006,1645.6411,765.6006,1657.6411,777.6006,1645.6411,789.6006,1573.4751,789.6006,1561.4751,777.6006,1573.4751,765.6006" style="stroke:#181818;stroke-width:0.5;"/><text fill="#000000" font-family="sans-serif" font-size="11" lengthAdjust="spacing" textLength="13.4546" x="1613.5581" y="801.0195">Ya</text><text fill="#000000" font-family="sans-serif" font-size="11" lengthAdjust="spacing" textLength="72.166" x="1573.4751" y="782.1016">Role berubah?</text><text fill="#000000" font-family="sans-serif" font-size="11" lengthAdjust="spacing" textLength="26.8984" x="1657.6411" y="775.1836">Tidak</text><polygon fill="#F1F1F1" points="1609.5581,944.624,1621.5581,956.624,1609.5581,968.624,1597.5581,956.624,1609.5581,944.624" style="stroke:#181818;stroke-width:0.5;"/><rect fill="#F1F1F1" height="35.0938" rx="12.5" ry="12.5" style="stroke:#181818;stroke-width:0.5;" width="168.0781" x="1525.519" y="1002.9834"/><text fill="#000000" font-family="sans-serif" font-size="12" lengthAdjust="spacing" textLength="148.0781" x="1535.519" y="1025.4404">Menampilkan pesan sukses</text><rect fill="#F1F1F1" height="35.0938" rx="12.5" ry="12.5" style="stroke:#181818;stroke-width:0.5;" width="166.0801" x="1714.2583" y="247.2021"/><text fill="#000000" font-family="sans-serif" font-size="12" lengthAdjust="spacing" textLength="146.0801" x="1724.2583" y="269.6592">Menampilkan detail pekerja</text><rect fill="#F1F1F1" height="35.0938" rx="12.5" ry="12.5" style="stroke:#181818;stroke-width:0.5;" width="187.4023" x="1703.5972" y="317.2959"/><text fill="#000000" font-family="sans-serif" font-size="12" lengthAdjust="spacing" textLength="167.4023" x="1713.5972" y="339.7529">Menampilkan role &amp; permission</text><path d="M1906.9946,387.3896 L1906.9946,421.0928 L1886.9946,425.0928 L1906.9946,429.0928 L1906.9946,462.7959 A0,0 0 0 0 1906.9946,462.7959 L2081.1826,462.7959 A0,0 0 0 0 2081.1826,462.7959 L2081.1826,397.3896 L2071.1826,387.3896 L1906.9946,387.3896 A0,0 0 0 0 1906.9946,387.3896 " fill="#FEFFDD" style="stroke:#181818;stroke-width:0.5;"/><path d="M2071.1826,387.3896 L2071.1826,397.3896 L2081.1826,397.3896 L2071.1826,387.3896 " fill="#FEFFDD" style="stroke:#181818;stroke-width:0.5;"/><text fill="#000000" font-family="sans-serif" font-size="13" lengthAdjust="spacing" textLength="52.0127" x="1912.9946" y="405.8848">Aktivitas:</text><text fill="#000000" font-family="sans-serif" font-size="13" lengthAdjust="spacing" textLength="135.1226" x="1912.9946" y="422.2363">- Transaksi yang dibuat</text><text fill="#000000" font-family="sans-serif" font-size="13" lengthAdjust="spacing" textLength="153.188" x="1912.9946" y="438.5879">- Produksi yang dikerjakan</text><text fill="#000000" font-family="sans-serif" font-size="13" lengthAdjust="spacing" textLength="86.709" x="1912.9946" y="454.9395">- Login terakhir</text><rect fill="#F1F1F1" height="35.0938" rx="12.5" ry="12.5" style="stroke:#181818;stroke-width:0.5;" width="179.3926" x="1707.6021" y="407.5459"/><text fill="#000000" font-family="sans-serif" font-size="12" lengthAdjust="spacing" textLength="159.3926" x="1717.6021" y="430.0029">Menampilkan riwayat aktivitas</text><rect fill="#F1F1F1" height="35.0938" rx="12.5" ry="12.5" style="stroke:#181818;stroke-width:0.5;" width="130.0566" x="2110.1934" y="457.4834"/><text fill="#000000" font-family="sans-serif" font-size="12" lengthAdjust="spacing" textLength="110.0566" x="2120.1934" y="479.9404">Hash password baru</text><rect fill="#F1F1F1" height="35.0938" rx="12.5" ry="12.5" style="stroke:#181818;stroke-width:0.5;" width="156.0781" x="2097.1826" y="527.5771"/><text fill="#000000" font-family="sans-serif" font-size="12" lengthAdjust="spacing" textLength="136.0781" x="2107.1826" y="550.0342">Update password pekerja</text><rect fill="#F1F1F1" height="35.0938" rx="12.5" ry="12.5" style="stroke:#181818;stroke-width:0.5;" width="168.0781" x="2091.1826" y="597.6709"/><text fill="#000000" font-family="sans-serif" font-size="12" lengthAdjust="spacing" textLength="148.0781" x="2101.1826" y="620.1279">Menampilkan pesan sukses</text><polygon fill="#F1F1F1" points="2387.6396,554.4482,2555.7871,554.4482,2567.7871,566.4482,2555.7871,578.4482,2387.6396,578.4482,2375.6396,566.4482,2387.6396,554.4482" style="stroke:#181818;stroke-width:0.5;"/><text fill="#000000" font-family="sans-serif" font-size="11" lengthAdjust="spacing" textLength="168.1475" x="2387.6396" y="570.9492">Pekerja punya transaksi/produksi?</text><text fill="#000000" font-family="sans-serif" font-size="11" lengthAdjust="spacing" textLength="13.4546" x="2362.1851" y="564.0313">Ya</text><text fill="#000000" font-family="sans-serif" font-size="11" lengthAdjust="spacing" textLength="26.8984" x="2567.7871" y="564.0313">Tidak</text><rect fill="#F1F1F1" height="35.0938" rx="12.5" ry="12.5" style="stroke:#181818;stroke-width:0.5;" width="151.4141" x="2289.9326" y="588.4482"/><text fill="#000000" font-family="sans-serif" font-size="12" lengthAdjust="spacing" textLength="131.4141" x="2299.9326" y="610.9053">Menampilkan peringatan</text><rect fill="#F1F1F1" height="35.0938" rx="12.5" ry="12.5" style="stroke:#181818;stroke-width:0.5;" width="192.7578" x="2269.2607" y="658.542"/><text fill="#000000" font-family="sans-serif" font-size="12" lengthAdjust="spacing" textLength="172.7578" x="2279.2607" y="680.999">Nonaktifkan pekerja (soft delete)</text><rect fill="#F1F1F1" height="35.0938" rx="12.5" ry="12.5" style="stroke:#181818;stroke-width:0.5;" width="154.748" x="2500.4131" y="588.4482"/><text fill="#000000" font-family="sans-serif" font-size="12" lengthAdjust="spacing" textLength="134.748" x="2510.4131" y="610.9053">Hapus pekerja permanen</text><polygon fill="#F1F1F1" points="2471.7134,699.6357,2483.7134,711.6357,2471.7134,723.6357,2459.7134,711.6357,2471.7134,699.6357" style="stroke:#181818;stroke-width:0.5;"/><rect fill="#F1F1F1" height="35.0938" rx="12.5" ry="12.5" style="stroke:#181818;stroke-width:0.5;" width="168.0781" x="2387.6743" y="758.6357"/><text fill="#000000" font-family="sans-serif" font-size="12" lengthAdjust="spacing" textLength="148.0781" x="2397.6743" y="781.0928">Menampilkan pesan sukses</text><ellipse cx="1880.9399" cy="1089.0771" fill="none" rx="11" ry="11" style="stroke:#222222;stroke-width:1.0;"/><ellipse cx="1880.9399" cy="1089.0771" fill="#222222" rx="6" ry="6" style="stroke:#222222;stroke-width:1.0;"/><line style="stroke:#000000;stroke-width:1.5;" x1="1165.3745" x2="1165.3745" y1="12.4551" y2="1100.0771"/><line style="stroke:#000000;stroke-width:1.5;" x1="2659.1611" x2="2659.1611" y1="12.4551" y2="1100.0771"/><line style="stroke:#181818;stroke-width:1.0;" x1="676.8237" x2="676.8237" y1="60.0957" y2="80.0957"/><polygon fill="#181818" points="672.8237,70.0957,676.8237,80.0957,680.8237,70.0957,676.8237,74.0957" style="stroke:#181818;stroke-width:1.0;"/><line style="stroke:#181818;stroke-width:1.0;" x1="106.0322" x2="106.0322" y1="227.2021" y2="291.8857"/><polygon fill="#181818" points="102.0322,281.8857,106.0322,291.8857,110.0322,281.8857,106.0322,285.8857" style="stroke:#181818;stroke-width:1.0;"/><line style="stroke:#181818;stroke-width:1.0;" x1="106.0322" x2="106.0322" y1="326.9795" y2="434.9951"/><polygon fill="#181818" points="102.0322,424.9951,106.0322,434.9951,110.0322,424.9951,106.0322,428.9951" style="stroke:#181818;stroke-width:1.0;"/><line style="stroke:#181818;stroke-width:1.0;" x1="106.0322" x2="106.0322" y1="470.0889" y2="533.4209"/><polygon fill="#181818" points="102.0322,523.4209,106.0322,533.4209,110.0322,523.4209,106.0322,527.4209" style="stroke:#181818;stroke-width:1.0;"/><line style="stroke:#181818;stroke-width:1.0;" x1="430.4653" x2="430.4653" y1="227.2021" y2="247.2021"/><polygon fill="#181818" points="426.4653,237.2021,430.4653,247.2021,434.4653,237.2021,430.4653,241.2021" style="stroke:#181818;stroke-width:1.0;"/><line style="stroke:#181818;stroke-width:1.0;" x1="430.4653" x2="430.4653" y1="341.2959" y2="366.2139"/><polygon fill="#181818" points="426.4653,356.2139,430.4653,366.2139,434.4653,356.2139,430.4653,360.2139" style="stroke:#181818;stroke-width:1.0;"/><line style="stroke:#181818;stroke-width:1.0;" x1="483.7395" x2="527.1675" y1="329.2959" y2="329.2959"/><polygon fill="#181818" points="523.1675,373.7607,527.1675,383.7607,531.1675,373.7607,527.1675,377.7607" style="stroke:#181818;stroke-width:1.0;"/><line style="stroke:#181818;stroke-width:1.0;" x1="527.1675" x2="527.1675" y1="329.2959" y2="438.2256"/><line style="stroke:#181818;stroke-width:1.0;" x1="527.1675" x2="442.4653" y1="438.2256" y2="438.2256"/><polygon fill="#181818" points="452.4653,434.2256,442.4653,438.2256,452.4653,442.2256,448.4653,438.2256" style="stroke:#181818;stroke-width:1.0;"/><line style="stroke:#181818;stroke-width:1.0;" x1="430.4653" x2="430.4653" y1="401.3076" y2="426.2256"/><polygon fill="#181818" points="426.4653,416.2256,430.4653,426.2256,434.4653,416.2256,430.4653,420.2256" style="stroke:#181818;stroke-width:1.0;"/><line style="stroke:#181818;stroke-width:1.0;" x1="430.4653" x2="430.4653" y1="282.2959" y2="317.2959"/><polygon fill="#181818" points="426.4653,307.2959,430.4653,317.2959,434.4653,307.2959,430.4653,311.2959" style="stroke:#181818;stroke-width:1.0;"/><line style="stroke:#181818;stroke-width:1.0;" x1="430.4653" x2="430.4653" y1="450.2256" y2="485.2256"/><polygon fill="#181818" points="426.4653,475.2256,430.4653,485.2256,434.4653,475.2256,430.4653,479.2256" style="stroke:#181818;stroke-width:1.0;"/><line style="stroke:#181818;stroke-width:1.0;" x1="430.4653" x2="430.4653" y1="520.3193" y2="555.3193"/><polygon fill="#181818" points="426.4653,545.3193,430.4653,555.3193,434.4653,545.3193,430.4653,549.3193" style="stroke:#181818;stroke-width:1.0;"/><line style="stroke:#181818;stroke-width:1.0;" x1="856.563" x2="856.563" y1="227.2021" y2="247.2021"/><polygon fill="#181818" points="852.563,237.2021,856.563,247.2021,860.563,237.2021,856.563,241.2021" style="stroke:#181818;stroke-width:1.0;"/><line style="stroke:#181818;stroke-width:1.0;" x1="856.563" x2="856.563" y1="282.2959" y2="317.2959"/><polygon fill="#181818" points="852.563,307.2959,856.563,317.2959,860.563,307.2959,856.563,311.2959" style="stroke:#181818;stroke-width:1.0;"/><line style="stroke:#181818;stroke-width:1.0;" x1="856.563" x2="856.563" y1="352.3896" y2="387.3896"/><polygon fill="#181818" points="852.563,377.3896,856.563,387.3896,860.563,377.3896,856.563,381.3896" style="stroke:#181818;stroke-width:1.0;"/><line style="stroke:#181818;stroke-width:1.0;" x1="1057.3198" x2="1057.3198" y1="449.3545" y2="484.3545"/><polygon fill="#181818" points="1053.3198,474.3545,1057.3198,484.3545,1061.3198,474.3545,1057.3198,478.3545" style="stroke:#181818;stroke-width:1.0;"/><line style="stroke:#181818;stroke-width:1.0;" x1="106.0322" x2="106.0322" y1="159.1895" y2="192.1084"/><polygon fill="#181818" points="102.0322,182.1084,106.0322,192.1084,110.0322,182.1084,106.0322,186.1084" style="stroke:#181818;stroke-width:1.0;"/><line style="stroke:#181818;stroke-width:1.0;" x1="430.4653" x2="430.4653" y1="159.1895" y2="192.1084"/><polygon fill="#181818" points="426.4653,182.1084,430.4653,192.1084,434.4653,182.1084,430.4653,186.1084" style="stroke:#181818;stroke-width:1.0;"/><line style="stroke:#181818;stroke-width:1.0;" x1="593.1821" x2="593.1821" y1="159.1895" y2="192.1084"/><polygon fill="#181818" points="589.1821,182.1084,593.1821,192.1084,597.1821,182.1084,593.1821,186.1084" style="stroke:#181818;stroke-width:1.0;"/><line style="stroke:#181818;stroke-width:1.0;" x1="856.563" x2="856.563" y1="159.1895" y2="192.1084"/><polygon fill="#181818" points="852.563,182.1084,856.563,192.1084,860.563,182.1084,856.563,186.1084" style="stroke:#181818;stroke-width:1.0;"/><line style="stroke:#181818;stroke-width:1.0;" x1="131.4814" x2="405.0161" y1="147.1895" y2="147.1895"/><polygon fill="#181818" points="395.0161,143.1895,405.0161,147.1895,395.0161,151.1895,399.0161,147.1895" style="stroke:#181818;stroke-width:1.0;"/><line style="stroke:#181818;stroke-width:1.0;" x1="455.9146" x2="567.7329" y1="147.1895" y2="147.1895"/><polygon fill="#181818" points="557.7329,143.1895,567.7329,147.1895,557.7329,151.1895,561.7329,147.1895" style="stroke:#181818;stroke-width:1.0;"/><line style="stroke:#181818;stroke-width:1.0;" x1="618.6313" x2="831.1138" y1="147.1895" y2="147.1895"/><polygon fill="#181818" points="821.1138,143.1895,831.1138,147.1895,821.1138,151.1895,825.1138,147.1895" style="stroke:#181818;stroke-width:1.0;"/><line style="stroke:#181818;stroke-width:1.0;" x1="676.8237" x2="676.8237" y1="115.1895" y2="120.1895"/><line style="stroke:#181818;stroke-width:1.0;" x1="676.8237" x2="106.0322" y1="120.1895" y2="120.1895"/><line style="stroke:#181818;stroke-width:1.0;" x1="106.0322" x2="106.0322" y1="120.1895" y2="135.1895"/><polygon fill="#181818" points="102.0322,125.1895,106.0322,135.1895,110.0322,125.1895,106.0322,129.1895" style="stroke:#181818;stroke-width:1.0;"/><line style="stroke:#181818;stroke-width:1.0;" x1="882.0122" x2="1057.3198" y1="147.1895" y2="147.1895"/><line style="stroke:#181818;stroke-width:1.0;" x1="1057.3198" x2="1057.3198" y1="147.1895" y2="414.2607"/><polygon fill="#181818" points="1053.3198,404.2607,1057.3198,414.2607,1061.3198,404.2607,1057.3198,408.2607" style="stroke:#181818;stroke-width:1.0;"/><line style="stroke:#181818;stroke-width:1.0;" x1="1431.48" x2="1431.48" y1="742.7021" y2="777.7021"/><polygon fill="#181818" points="1427.48,767.7021,1431.48,777.7021,1435.48,767.7021,1431.48,771.7021" style="stroke:#181818;stroke-width:1.0;"/><line style="stroke:#181818;stroke-width:1.0;" x1="1431.48" x2="1431.48" y1="812.7959" y2="847.7959"/><polygon fill="#181818" points="1427.48,837.7959,1431.48,847.7959,1435.48,837.7959,1431.48,841.7959" style="stroke:#181818;stroke-width:1.0;"/><line style="stroke:#181818;stroke-width:1.0;" x1="1431.48" x2="1431.48" y1="882.8896" y2="917.8896"/><polygon fill="#181818" points="1427.48,907.8896,1431.48,917.8896,1435.48,907.8896,1431.48,911.8896" style="stroke:#181818;stroke-width:1.0;"/><line style="stroke:#181818;stroke-width:1.0;" x1="1273.1082" x2="1249.4077" y1="685.6084" y2="685.6084"/><line style="stroke:#181818;stroke-width:1.0;" x1="1249.4077" x2="1249.4077" y1="685.6084" y2="707.6084"/><polygon fill="#181818" points="1245.4077,697.6084,1249.4077,707.6084,1253.4077,697.6084,1249.4077,701.6084" style="stroke:#181818;stroke-width:1.0;"/><line style="stroke:#181818;stroke-width:1.0;" x1="1407.7795" x2="1431.48" y1="685.6084" y2="685.6084"/><line style="stroke:#181818;stroke-width:1.0;" x1="1431.48" x2="1431.48" y1="685.6084" y2="707.6084"/><polygon fill="#181818" points="1427.48,697.6084,1431.48,707.6084,1435.48,697.6084,1431.48,701.6084" style="stroke:#181818;stroke-width:1.0;"/><line style="stroke:#181818;stroke-width:1.0;" x1="1249.4077" x2="1249.4077" y1="742.7021" y2="970.9834"/><line style="stroke:#181818;stroke-width:1.0;" x1="1249.4077" x2="1328.4438" y1="970.9834" y2="970.9834"/><polygon fill="#181818" points="1318.4438,966.9834,1328.4438,970.9834,1318.4438,974.9834,1322.4438,970.9834" style="stroke:#181818;stroke-width:1.0;"/><line style="stroke:#181818;stroke-width:1.0;" x1="1431.48" x2="1431.48" y1="952.9834" y2="970.9834"/><line style="stroke:#181818;stroke-width:1.0;" x1="1431.48" x2="1352.4438" y1="970.9834" y2="970.9834"/><polygon fill="#181818" points="1362.4438,966.9834,1352.4438,970.9834,1362.4438,974.9834,1358.4438,970.9834" style="stroke:#181818;stroke-width:1.0;"/><line style="stroke:#181818;stroke-width:1.0;" x1="1340.4438" x2="1340.4438" y1="638.6084" y2="673.6084"/><polygon fill="#181818" points="1336.4438,663.6084,1340.4438,673.6084,1344.4438,663.6084,1340.4438,667.6084" style="stroke:#181818;stroke-width:1.0;"/><line style="stroke:#181818;stroke-width:1.0;" x1="1609.5581" x2="1609.5581" y1="660.5068" y2="695.5068"/><polygon fill="#181818" points="1605.5581,685.5068,1609.5581,695.5068,1613.5581,685.5068,1609.5581,689.5068" style="stroke:#181818;stroke-width:1.0;"/><line style="stroke:#181818;stroke-width:1.0;" x1="1609.5581" x2="1609.5581" y1="849.6123" y2="884.6123"/><polygon fill="#181818" points="1605.5581,874.6123,1609.5581,884.6123,1613.5581,874.6123,1609.5581,878.6123" style="stroke:#181818;stroke-width:1.0;"/><line style="stroke:#181818;stroke-width:1.0;" x1="1609.5581" x2="1609.5581" y1="789.6006" y2="814.5186"/><polygon fill="#181818" points="1605.5581,804.5186,1609.5581,814.5186,1613.5581,804.5186,1609.5581,808.5186" style="stroke:#181818;stroke-width:1.0;"/><line style="stroke:#181818;stroke-width:1.0;" x1="1657.6411" x2="1673.2456" y1="777.6006" y2="777.6006"/><polygon fill="#181818" points="1669.2456,857.1123,1673.2456,867.1123,1677.2456,857.1123,1673.2456,861.1123" style="stroke:#181818;stroke-width:1.0;"/><line style="stroke:#181818;stroke-width:1.0;" x1="1673.2456" x2="1673.2456" y1="777.6006" y2="956.624"/><line style="stroke:#181818;stroke-width:1.0;" x1="1673.2456" x2="1621.5581" y1="956.624" y2="956.624"/><polygon fill="#181818" points="1631.5581,952.624,1621.5581,956.624,1631.5581,960.624,1627.5581,956.624" style="stroke:#181818;stroke-width:1.0;"/><line style="stroke:#181818;stroke-width:1.0;" x1="1609.5581" x2="1609.5581" y1="919.7061" y2="944.624"/><polygon fill="#181818" points="1605.5581,934.624,1609.5581,944.624,1613.5581,934.624,1609.5581,938.624" style="stroke:#181818;stroke-width:1.0;"/><line style="stroke:#181818;stroke-width:1.0;" x1="1609.5581" x2="1609.5581" y1="730.6006" y2="765.6006"/><polygon fill="#181818" points="1605.5581,755.6006,1609.5581,765.6006,1613.5581,755.6006,1609.5581,759.6006" style="stroke:#181818;stroke-width:1.0;"/><line style="stroke:#181818;stroke-width:1.0;" x1="1609.5581" x2="1609.5581" y1="968.624" y2="1002.9834"/><polygon fill="#181818" points="1605.5581,992.9834,1609.5581,1002.9834,1613.5581,992.9834,1609.5581,996.9834" style="stroke:#181818;stroke-width:1.0;"/><line style="stroke:#181818;stroke-width:1.0;" x1="1797.2983" x2="1797.2983" y1="282.2959" y2="317.2959"/><polygon fill="#181818" points="1793.2983,307.2959,1797.2983,317.2959,1801.2983,307.2959,1797.2983,311.2959" style="stroke:#181818;stroke-width:1.0;"/><line style="stroke:#181818;stroke-width:1.0;" x1="1797.2983" x2="1797.2983" y1="352.3896" y2="407.5459"/><polygon fill="#181818" points="1793.2983,397.5459,1797.2983,407.5459,1801.2983,397.5459,1797.2983,401.5459" style="stroke:#181818;stroke-width:1.0;"/><line style="stroke:#181818;stroke-width:1.0;" x1="2175.2217" x2="2175.2217" y1="492.5771" y2="527.5771"/><polygon fill="#181818" points="2171.2217,517.5771,2175.2217,527.5771,2179.2217,517.5771,2175.2217,521.5771" style="stroke:#181818;stroke-width:1.0;"/><line style="stroke:#181818;stroke-width:1.0;" x1="2175.2217" x2="2175.2217" y1="562.6709" y2="597.6709"/><polygon fill="#181818" points="2171.2217,587.6709,2175.2217,597.6709,2179.2217,587.6709,2175.2217,591.6709" style="stroke:#181818;stroke-width:1.0;"/><line style="stroke:#181818;stroke-width:1.0;" x1="2365.6396" x2="2365.6396" y1="623.542" y2="658.542"/><polygon fill="#181818" points="2361.6396,648.542,2365.6396,658.542,2369.6396,648.542,2365.6396,652.542" style="stroke:#181818;stroke-width:1.0;"/><line style="stroke:#181818;stroke-width:1.0;" x1="2375.6396" x2="2365.6396" y1="566.4482" y2="566.4482"/><line style="stroke:#181818;stroke-width:1.0;" x1="2365.6396" x2="2365.6396" y1="566.4482" y2="588.4482"/><polygon fill="#181818" points="2361.6396,578.4482,2365.6396,588.4482,2369.6396,578.4482,2365.6396,582.4482" style="stroke:#181818;stroke-width:1.0;"/><line style="stroke:#181818;stroke-width:1.0;" x1="2567.7871" x2="2577.7871" y1="566.4482" y2="566.4482"/><line style="stroke:#181818;stroke-width:1.0;" x1="2577.7871" x2="2577.7871" y1="566.4482" y2="588.4482"/><polygon fill="#181818" points="2573.7871,578.4482,2577.7871,588.4482,2581.7871,578.4482,2577.7871,582.4482" style="stroke:#181818;stroke-width:1.0;"/><line style="stroke:#181818;stroke-width:1.0;" x1="2365.6396" x2="2365.6396" y1="693.6357" y2="711.6357"/><line style="stroke:#181818;stroke-width:1.0;" x1="2365.6396" x2="2459.7134" y1="711.6357" y2="711.6357"/><polygon fill="#181818" points="2449.7134,707.6357,2459.7134,711.6357,2449.7134,715.6357,2453.7134,711.6357" style="stroke:#181818;stroke-width:1.0;"/><line style="stroke:#181818;stroke-width:1.0;" x1="2577.7871" x2="2577.7871" y1="623.542" y2="711.6357"/><line style="stroke:#181818;stroke-width:1.0;" x1="2577.7871" x2="2483.7134" y1="711.6357" y2="711.6357"/><polygon fill="#181818" points="2493.7134,707.6357,2483.7134,711.6357,2493.7134,715.6357,2489.7134,711.6357" style="stroke:#181818;stroke-width:1.0;"/><line style="stroke:#181818;stroke-width:1.0;" x1="2471.7134" x2="2471.7134" y1="723.6357" y2="758.6357"/><polygon fill="#181818" points="2467.7134,748.6357,2471.7134,758.6357,2475.7134,748.6357,2471.7134,752.6357" style="stroke:#181818;stroke-width:1.0;"/><line style="stroke:#181818;stroke-width:1.0;" x1="1340.4438" x2="1340.4438" y1="982.9834" y2="1058.0771"/><polygon fill="#181818" points="1336.4438,1048.0771,1340.4438,1058.0771,1344.4438,1048.0771,1340.4438,1052.0771" style="stroke:#181818;stroke-width:1.0;"/><line style="stroke:#181818;stroke-width:1.0;" x1="1609.5581" x2="1609.5581" y1="1038.0771" y2="1058.0771"/><polygon fill="#181818" points="1605.5581,1048.0771,1609.5581,1058.0771,1613.5581,1048.0771,1609.5581,1052.0771" style="stroke:#181818;stroke-width:1.0;"/><line style="stroke:#181818;stroke-width:1.0;" x1="1797.2983" x2="1797.2983" y1="442.6396" y2="1058.0771"/><polygon fill="#181818" points="1793.2983,1048.0771,1797.2983,1058.0771,1801.2983,1048.0771,1797.2983,1052.0771" style="stroke:#181818;stroke-width:1.0;"/><line style="stroke:#181818;stroke-width:1.0;" x1="2175.2217" x2="2175.2217" y1="632.7646" y2="1058.0771"/><polygon fill="#181818" points="2171.2217,1048.0771,2175.2217,1058.0771,2179.2217,1048.0771,2175.2217,1052.0771" style="stroke:#181818;stroke-width:1.0;"/><line style="stroke:#181818;stroke-width:1.0;" x1="2471.7134" x2="2471.7134" y1="793.7295" y2="1058.0771"/><polygon fill="#181818" points="2467.7134,1048.0771,2471.7134,1058.0771,2475.7134,1048.0771,2471.7134,1052.0771" style="stroke:#181818;stroke-width:1.0;"/><line style="stroke:#181818;stroke-width:1.0;" x1="1340.4438" x2="2471.7134" y1="1058.0771" y2="1058.0771"/><line style="stroke:#181818;stroke-width:1.0;" x1="106.0322" x2="106.0322" y1="568.5146" y2="586.0146"/><line style="stroke:#181818;stroke-width:1.0;" x1="106.0322" x2="1340.4438" y1="586.0146" y2="586.0146"/><line style="stroke:#181818;stroke-width:1.0;" x1="1340.4438" x2="1340.4438" y1="586.0146" y2="603.5146"/><polygon fill="#181818" points="1336.4438,593.5146,1340.4438,603.5146,1344.4438,593.5146,1340.4438,597.5146" style="stroke:#181818;stroke-width:1.0;"/><line style="stroke:#181818;stroke-width:1.0;" x1="430.4653" x2="430.4653" y1="590.4131" y2="607.9131"/><line style="stroke:#181818;stroke-width:1.0;" x1="430.4653" x2="1609.5581" y1="607.9131" y2="607.9131"/><line style="stroke:#181818;stroke-width:1.0;" x1="1609.5581" x2="1609.5581" y1="607.9131" y2="625.4131"/><polygon fill="#181818" points="1605.5581,615.4131,1609.5581,625.4131,1613.5581,615.4131,1609.5581,619.4131" style="stroke:#181818;stroke-width:1.0;"/><line style="stroke:#181818;stroke-width:1.0;" x1="593.1821" x2="593.1821" y1="227.2021" y2="232.2021"/><line style="stroke:#181818;stroke-width:1.0;" x1="593.1821" x2="1797.2983" y1="232.2021" y2="232.2021"/><line style="stroke:#181818;stroke-width:1.0;" x1="1797.2983" x2="1797.2983" y1="232.2021" y2="247.2021"/><polygon fill="#181818" points="1793.2983,237.2021,1797.2983,247.2021,1801.2983,237.2021,1797.2983,241.2021" style="stroke:#181818;stroke-width:1.0;"/><line style="stroke:#181818;stroke-width:1.0;" x1="856.563" x2="856.563" y1="422.4834" y2="439.9834"/><line style="stroke:#181818;stroke-width:1.0;" x1="856.563" x2="2175.2217" y1="439.9834" y2="439.9834"/><line style="stroke:#181818;stroke-width:1.0;" x1="2175.2217" x2="2175.2217" y1="439.9834" y2="457.4834"/><polygon fill="#181818" points="2171.2217,447.4834,2175.2217,457.4834,2179.2217,447.4834,2175.2217,451.4834" style="stroke:#181818;stroke-width:1.0;"/><line style="stroke:#181818;stroke-width:1.0;" x1="1057.3198" x2="1057.3198" y1="519.4482" y2="536.9482"/><line style="stroke:#181818;stroke-width:1.0;" x1="1057.3198" x2="2471.7134" y1="536.9482" y2="536.9482"/><line style="stroke:#181818;stroke-width:1.0;" x1="2471.7134" x2="2471.7134" y1="536.9482" y2="554.4482"/><polygon fill="#181818" points="2467.7134,544.4482,2471.7134,554.4482,2475.7134,544.4482,2471.7134,548.4482" style="stroke:#181818;stroke-width:1.0;"/><line style="stroke:#181818;stroke-width:1.0;" x1="676.8237" x2="676.8237" y1="1058.0771" y2="1063.0771"/><line style="stroke:#181818;stroke-width:1.0;" x1="676.8237" x2="1880.9399" y1="1063.0771" y2="1063.0771"/><line style="stroke:#181818;stroke-width:1.0;" x1="1880.9399" x2="1880.9399" y1="1063.0771" y2="1078.0771"/><polygon fill="#181818" points="1876.9399,1068.0771,1880.9399,1078.0771,1884.9399,1068.0771,1880.9399,1072.0771" style="stroke:#181818;stroke-width:1.0;"/><text fill="#000000" font-family="sans-serif" font-size="18" lengthAdjust="spacing" textLength="58.0078" x="561.1833" y="31.1406">Pemilik</text><text fill="#000000" font-family="sans-serif" font-size="18" lengthAdjust="spacing" textLength="55.0107" x="1884.7625" y="31.1406">Sistem</text><!--SRC=[bLR9Rjim4BtxA-PKo8UYT_jG14YAjbbWP2dGuoWQMrD9f41I2GpuupiajSQMuVWWW9pXBEyz3dtOKCKb5uU5TMZSOdLFLTeK23cMMA623HLa_k5wiU0j95U5vUzBS3afI9wnIZ5VBa1-gri90avNgIuX6eQZmU6Ur8ujmrQR2kgnIMb7O7YNkx04k4Q7dSkgtViA3r9FlxYfa4j86iN5Sl3GbJRWgAHQgtvtWzQ-QvFr6xz9iOM2f44Ut7vefo7HjMMji8n1IMMXkh3esl1uvLAU4NGIeqjQphIn2IwEZAMCHutSecKpb6TqrWYi_SOlzKRAQJFi98970w-D5NmXP9olJksvgYNj1E7mEJonTLGTekSVB3cJGY2Ju2Clpt84rpQPa2ZbPxWLRVIq_yKEyPWGgvhB8gIqyYLZj8a1gRGaCf4ynUZ8JxG2NqlAUXAghRsWK5MAbaRsAsjvfqB_tgEnPDRd2h62Ajbr1nLlOvEXg2CjtsJiOes7_aPyu3lW2NjKEq2V9MEXrOtKtNZHPoFjVe3rnTkxnkVWh53g3asqZf2YQMRm7BKrhQ9LPw_czR4yZ7T4zHc1h5vgMT2v7XyzEsaCVhh5fxrwZIGEZRMwg1iRBNxqNDxo6TvdsBxZ71rSanETNyBwB4ZZx5a8DpqoSGYjVV7GLsmzCQTy-1ttKXiMZj_OePsPBLUTVHWhpqAvHMapQZJZj45tD6OwOoXIClOETth7OLfXaRVZQJfWJaFvI9PSFsCl1pC-6DFJFHxdBi7gLgijcyfBSpf5Jl0pcJNZ8AsIUzCyQtEYIe9UFpqpSd_gH2ToSuDf_aPwwDid5Uf6xH5Sn_YtkcNtaY5jMEta0glHrNkG8I62sXR3mm69rLideYx9TI_St3ptzxOxvjMDYjJ7kNi6q-WaVq1qlVWF]--></g></svg>