<svg xmlns="http://www.w3.org/2000/svg" xmlns:xlink="http://www.w3.org/1999/xlink" contentStyleType="text/css" height="1955px" preserveAspectRatio="none" style="width:1024px;height:1955px;background:#FFFFFF;" version="1.1" viewBox="0 0 1024 1955" width="1024px" zoomAndPan="magnify"><defs/><g><rect fill="none" height="22.6406" style="stroke:none;stroke-width:1.0;" width="991.23" x="15" y="12.4551"/><ellipse cx="370.5891" cy="50.0957" fill="#222222" rx="10" ry="10" style="stroke:#222222;stroke-width:1.0;"/><rect fill="#F1F1F1" height="35.0938" rx="12.5" ry="12.5" style="stroke:#181818;stroke-width:0.5;" width="150.7285" x="295.2249" y="80.0957"/><text fill="#000000" font-family="sans-serif" font-size="12" lengthAdjust="spacing" textLength="130.7285" x="305.2249" y="102.5527">Membuka halaman POS</text><rect fill="#F1F1F1" height="35.0938" rx="12.5" ry="12.5" style="stroke:#181818;stroke-width:0.5;" width="138.7285" x="301.2249" y="135.1895"/><text fill="#000000" font-family="sans-serif" font-size="12" lengthAdjust="spacing" textLength="118.7285" x="311.2249" y="157.6465">Memilih jenis pesanan</text><polygon fill="#F1F1F1" points="332.0596,190.2832,409.1187,190.2832,421.1187,202.2832,409.1187,214.2832,332.0596,214.2832,320.0596,202.2832,332.0596,190.2832" style="stroke:#181818;stroke-width:0.5;"/><text fill="#000000" font-family="sans-serif" font-size="11" lengthAdjust="spacing" textLength="77.0591" x="332.0596" y="206.7842">Jenis pesanan?</text><text fill="#000000" font-family="sans-serif" font-size="11" lengthAdjust="spacing" textLength="43.4146" x="276.645" y="199.8662">Siap Beli</text><text fill="#000000" font-family="sans-serif" font-size="11" lengthAdjust="spacing" textLength="116.1875" x="421.1187" y="199.8662">Pesanan Reguler/Kotak</text><rect fill="#F1F1F1" height="35.0938" rx="12.5" ry="12.5" style="stroke:#181818;stroke-width:0.5;" width="166.7363" x="118.8931" y="224.2832"/><text fill="#000000" font-family="sans-serif" font-size="12" lengthAdjust="spacing" textLength="146.7363" x="128.8931" y="246.7402">Memilih produk dari katalog</text><rect fill="#F1F1F1" height="35.0938" rx="12.5" ry="12.5" style="stroke:#181818;stroke-width:0.5;" width="171.4297" x="116.5464" y="279.377"/><text fill="#000000" font-family="sans-serif" font-size="12" lengthAdjust="spacing" textLength="151.4297" x="126.5464" y="301.834">Menambahkan ke keranjang</text><polygon fill="#F1F1F1" points="167.1021,334.4707,237.4204,334.4707,249.4204,346.4707,237.4204,358.4707,167.1021,358.4707,155.1021,346.4707,167.1021,334.4707" style="stroke:#181818;stroke-width:0.5;"/><text fill="#000000" font-family="sans-serif" font-size="11" lengthAdjust="spacing" textLength="70.3184" x="167.1021" y="350.9717">Stok tersedia?</text><text fill="#000000" font-family="sans-serif" font-size="11" lengthAdjust="spacing" textLength="13.4546" x="141.6475" y="344.0537">Ya</text><text fill="#000000" font-family="sans-serif" font-size="11" lengthAdjust="spacing" textLength="26.8984" x="249.4204" y="344.0537">Tidak</text><rect fill="#F1F1F1" height="35.0938" rx="12.5" ry="12.5" style="stroke:#181818;stroke-width:0.5;" width="158.7559" x="21" y="368.4707"/><text fill="#000000" font-family="sans-serif" font-size="12" lengthAdjust="spacing" textLength="138.7559" x="31" y="390.9277">Mengatur jumlah pesanan</text><rect fill="#F1F1F1" height="35.0938" rx="12.5" ry="12.5" style="stroke:#181818;stroke-width:0.5;" width="208.7773" x="199.7559" y="368.4707"/><text fill="#000000" font-family="sans-serif" font-size="12" lengthAdjust="spacing" textLength="188.7773" x="209.7559" y="390.9277">Menampilkan peringatan stok habis</text><ellipse cx="304.1445" cy="449.5645" fill="none" rx="11" ry="11" style="stroke:#222222;stroke-width:1.0;"/><ellipse cx="304.1445" cy="449.5645" fill="#222222" rx="6" ry="6" style="stroke:#222222;stroke-width:1.0;"/><rect fill="#F1F1F1" height="35.0938" rx="12.5" ry="12.5" style="stroke:#181818;stroke-width:0.5;" width="166.7363" x="455.5488" y="224.2832"/><text fill="#000000" font-family="sans-serif" font-size="12" lengthAdjust="spacing" textLength="146.7363" x="465.5488" y="246.7402">Memilih produk dari katalog</text><rect fill="#F1F1F1" height="35.0938" rx="12.5" ry="12.5" style="stroke:#181818;stroke-width:0.5;" width="171.4297" x="453.2021" y="279.377"/><text fill="#000000" font-family="sans-serif" font-size="12" lengthAdjust="spacing" textLength="151.4297" x="463.2021" y="301.834">Menambahkan ke keranjang</text><rect fill="#F1F1F1" height="35.0938" rx="12.5" ry="12.5" style="stroke:#181818;stroke-width:0.5;" width="158.7559" x="459.5391" y="334.4707"/><text fill="#000000" font-family="sans-serif" font-size="12" lengthAdjust="spacing" textLength="138.7559" x="469.5391" y="356.9277">Mengatur jumlah pesanan</text><rect fill="#F1F1F1" height="35.0938" rx="12.5" ry="12.5" style="stroke:#181818;stroke-width:0.5;" width="200.7676" x="438.5332" y="404.5645"/><text fill="#000000" font-family="sans-serif" font-size="12" lengthAdjust="spacing" textLength="180.7676" x="448.5332" y="427.0215">Memasukkan jadwal pengambilan</text><polygon fill="#F1F1F1" points="370.5891,470.5645,382.5891,482.5645,370.5891,494.5645,358.5891,482.5645,370.5891,470.5645" style="stroke:#181818;stroke-width:0.5;"/><rect fill="#F1F1F1" height="35.0938" rx="12.5" ry="12.5" style="stroke:#181818;stroke-width:0.5;" width="233.4688" x="253.8547" y="514.5645"/><text fill="#000000" font-family="sans-serif" font-size="12" lengthAdjust="spacing" textLength="213.4688" x="263.8547" y="537.0215">Memasukkan data pelanggan (opsional)</text><polygon fill="#F1F1F1" points="319.2173,569.6582,421.9609,569.6582,433.9609,581.6582,421.9609,593.6582,319.2173,593.6582,307.2173,581.6582,319.2173,569.6582" style="stroke:#181818;stroke-width:0.5;"/><text fill="#000000" font-family="sans-serif" font-size="11" lengthAdjust="spacing" textLength="102.7437" x="319.2173" y="586.1592">Pelanggan terdaftar?</text><text fill="#000000" font-family="sans-serif" font-size="11" lengthAdjust="spacing" textLength="13.4546" x="293.7627" y="579.2412">Ya</text><text fill="#000000" font-family="sans-serif" font-size="11" lengthAdjust="spacing" textLength="26.8984" x="433.9609" y="579.2412">Tidak</text><rect fill="#F1F1F1" height="35.0938" rx="12.5" ry="12.5" style="stroke:#181818;stroke-width:0.5;" width="164.7734" x="179.4763" y="603.6582"/><text fill="#000000" font-family="sans-serif" font-size="12" lengthAdjust="spacing" textLength="144.7734" x="189.4763" y="626.1152">Mengambil data pelanggan</text><rect fill="#F1F1F1" height="35.0938" rx="12.5" ry="12.5" style="stroke:#181818;stroke-width:0.5;" width="163.4141" x="180.156" y="658.752"/><text fill="#000000" font-family="sans-serif" font-size="12" lengthAdjust="spacing" textLength="143.4141" x="190.156" y="681.209">Menampilkan poin tersedia</text><rect fill="#F1F1F1" height="35.0938" rx="12.5" ry="12.5" style="stroke:#181818;stroke-width:0.5;" width="146.7559" x="188.4851" y="762.7637"/><text fill="#000000" font-family="sans-serif" font-size="12" lengthAdjust="spacing" textLength="126.7559" x="198.4851" y="785.2207">Menghitung diskon poin</text><polygon fill="#F1F1F1" points="224.5554,713.8457,299.1707,713.8457,311.1707,725.8457,299.1707,737.8457,224.5554,737.8457,212.5554,725.8457,224.5554,713.8457" style="stroke:#181818;stroke-width:0.5;"/><text fill="#000000" font-family="sans-serif" font-size="11" lengthAdjust="spacing" textLength="13.4546" x="265.863" y="749.2646">Ya</text><text fill="#000000" font-family="sans-serif" font-size="11" lengthAdjust="spacing" textLength="74.6152" x="224.5554" y="730.3467">Gunakan poin?</text><text fill="#000000" font-family="sans-serif" font-size="11" lengthAdjust="spacing" textLength="26.8984" x="311.1707" y="723.4287">Tidak</text><polygon fill="#F1F1F1" points="261.863,817.8574,273.863,829.8574,261.863,841.8574,249.863,829.8574,261.863,817.8574" style="stroke:#181818;stroke-width:0.5;"/><rect fill="#F1F1F1" height="35.0938" rx="12.5" ry="12.5" style="stroke:#181818;stroke-width:0.5;" width="204.1484" x="377.241" y="603.6582"/><text fill="#000000" font-family="sans-serif" font-size="12" lengthAdjust="spacing" textLength="184.1484" x="387.241" y="626.1152">Melanjutkan tanpa data pelanggan</text><polygon fill="#F1F1F1" points="370.5891,847.8574,382.5891,859.8574,370.5891,871.8574,358.5891,859.8574,370.5891,847.8574" style="stroke:#181818;stroke-width:0.5;"/><rect fill="#F1F1F1" height="35.0938" rx="12.5" ry="12.5" style="stroke:#181818;stroke-width:0.5;" width="158.1055" x="291.5364" y="891.8574"/><text fill="#000000" font-family="sans-serif" font-size="12" lengthAdjust="spacing" textLength="138.1055" x="301.5364" y="914.3145">Menghitung total pesanan</text><rect fill="#F1F1F1" height="35.0938" rx="12.5" ry="12.5" style="stroke:#181818;stroke-width:0.5;" width="174.7402" x="283.219" y="946.9512"/><text fill="#000000" font-family="sans-serif" font-size="12" lengthAdjust="spacing" textLength="154.7402" x="293.219" y="969.4082">Memilih metode pembayaran</text><polygon fill="#F1F1F1" points="322.5876,1002.0449,418.5906,1002.0449,430.5906,1014.0449,418.5906,1026.0449,322.5876,1026.0449,310.5876,1014.0449,322.5876,1002.0449" style="stroke:#181818;stroke-width:0.5;"/><text fill="#000000" font-family="sans-serif" font-size="11" lengthAdjust="spacing" textLength="96.0029" x="322.5876" y="1018.5459">Jenis pembayaran?</text><text fill="#000000" font-family="sans-serif" font-size="11" lengthAdjust="spacing" textLength="29.9707" x="280.6169" y="1011.6279">Lunas</text><text fill="#000000" font-family="sans-serif" font-size="11" lengthAdjust="spacing" textLength="56.2515" x="430.5906" y="1011.6279">Uang Muka</text><rect fill="#F1F1F1" height="35.0938" rx="12.5" ry="12.5" style="stroke:#181818;stroke-width:0.5;" width="163.3965" x="100.9009" y="1036.0449"/><text fill="#000000" font-family="sans-serif" font-size="12" lengthAdjust="spacing" textLength="143.3965" x="110.9009" y="1058.502">Memasukkan jumlah bayar</text><rect fill="#F1F1F1" height="35.0938" rx="12.5" ry="12.5" style="stroke:#181818;stroke-width:0.5;" width="140.7441" x="112.2271" y="1091.1387"/><text fill="#000000" font-family="sans-serif" font-size="12" lengthAdjust="spacing" textLength="120.7441" x="122.2271" y="1113.5957">Menghitung kembalian</text><rect fill="#F1F1F1" height="35.0938" rx="12.5" ry="12.5" style="stroke:#181818;stroke-width:0.5;" width="216.084" x="74.5571" y="1146.2324"/><text fill="#000000" font-family="sans-serif" font-size="12" lengthAdjust="spacing" textLength="196.084" x="84.5571" y="1168.6895">Menyimpan transaksi (status: Lunas)</text><path d="M285.3228,1254.6152 L285.3228,1263.791 L265.3228,1267.791 L285.3228,1271.791 L285.3228,1280.9668 A0,0 0 0 0 285.3228,1280.9668 L416.5498,1280.9668 A0,0 0 0 0 416.5498,1280.9668 L416.5498,1264.6152 L406.5498,1254.6152 L285.3228,1254.6152 A0,0 0 0 0 285.3228,1254.6152 " fill="#FEFFDD" style="stroke:#181818;stroke-width:0.5;"/><path d="M406.5498,1254.6152 L406.5498,1264.6152 L416.5498,1264.6152 L406.5498,1254.6152 " fill="#FEFFDD" style="stroke:#181818;stroke-width:0.5;"/><text fill="#000000" font-family="sans-serif" font-size="13" lengthAdjust="spacing" textLength="110.2271" x="291.3228" y="1273.1104">1 poin = Rp 10.000</text><rect fill="#F1F1F1" height="35.0938" rx="12.5" ry="12.5" style="stroke:#181818;stroke-width:0.5;" width="165.4473" x="99.8755" y="1250.2441"/><text fill="#000000" font-family="sans-serif" font-size="12" lengthAdjust="spacing" textLength="145.4473" x="109.8755" y="1272.7012">Menambah poin pelanggan</text><polygon fill="#F1F1F1" points="131.2273,1201.3262,233.9709,1201.3262,245.9709,1213.3262,233.9709,1225.3262,131.2273,1225.3262,119.2273,1213.3262,131.2273,1201.3262" style="stroke:#181818;stroke-width:0.5;"/><text fill="#000000" font-family="sans-serif" font-size="11" lengthAdjust="spacing" textLength="13.4546" x="186.5991" y="1236.7451">Ya</text><text fill="#000000" font-family="sans-serif" font-size="11" lengthAdjust="spacing" textLength="102.7437" x="131.2273" y="1217.8271">Pelanggan terdaftar?</text><text fill="#000000" font-family="sans-serif" font-size="11" lengthAdjust="spacing" textLength="26.8984" x="245.9709" y="1210.9092">Tidak</text><polygon fill="#F1F1F1" points="182.5991,1305.3379,194.5991,1317.3379,182.5991,1329.3379,170.5991,1317.3379,182.5991,1305.3379" style="stroke:#181818;stroke-width:0.5;"/><rect fill="#F1F1F1" height="35.0938" rx="12.5" ry="12.5" style="stroke:#181818;stroke-width:0.5;" width="150.0488" x="483.5547" y="1036.0449"/><text fill="#000000" font-family="sans-serif" font-size="12" lengthAdjust="spacing" textLength="130.0488" x="493.5547" y="1058.502">Memasukkan jumlah DP</text><rect fill="#F1F1F1" height="35.0938" rx="12.5" ry="12.5" style="stroke:#181818;stroke-width:0.5;" width="200.0586" x="458.5498" y="1091.1387"/><text fill="#000000" font-family="sans-serif" font-size="12" lengthAdjust="spacing" textLength="180.0586" x="468.5498" y="1113.5957">Menyimpan transaksi (status: DP)</text><polygon fill="#F1F1F1" points="370.5891,1335.3379,382.5891,1347.3379,370.5891,1359.3379,358.5891,1347.3379,370.5891,1335.3379" style="stroke:#181818;stroke-width:0.5;"/><rect fill="#F1F1F1" height="35.0938" rx="12.5" ry="12.5" style="stroke:#181818;stroke-width:0.5;" width="152.7148" x="294.2317" y="1822.8184"/><text fill="#000000" font-family="sans-serif" font-size="12" lengthAdjust="spacing" textLength="132.7148" x="304.2317" y="1845.2754">Mencetak struk transaksi</text><polygon fill="#F1F1F1" points="339.7161,1773.9004,401.4622,1773.9004,413.4622,1785.9004,401.4622,1797.9004,339.7161,1797.9004,327.7161,1785.9004,339.7161,1773.9004" style="stroke:#181818;stroke-width:0.5;"/><text fill="#000000" font-family="sans-serif" font-size="11" lengthAdjust="spacing" textLength="13.4546" x="374.5891" y="1809.3193">Ya</text><text fill="#000000" font-family="sans-serif" font-size="11" lengthAdjust="spacing" textLength="61.7461" x="339.7161" y="1790.4014">Cetak struk?</text><text fill="#000000" font-family="sans-serif" font-size="11" lengthAdjust="spacing" textLength="26.8984" x="413.4622" y="1783.4834">Tidak</text><polygon fill="#F1F1F1" points="370.5891,1877.9121,382.5891,1889.9121,370.5891,1901.9121,358.5891,1889.9121,370.5891,1877.9121" style="stroke:#181818;stroke-width:0.5;"/><ellipse cx="370.5891" cy="1932.9121" fill="none" rx="11" ry="11" style="stroke:#222222;stroke-width:1.0;"/><ellipse cx="370.5891" cy="1932.9121" fill="#222222" rx="6" ry="6" style="stroke:#222222;stroke-width:1.0;"/><line style="stroke:#000000;stroke-width:1.5;" x1="15" x2="15" y1="12.4551" y2="1943.9121"/><rect fill="#F1F1F1" height="35.0938" rx="12.5" ry="12.5" style="stroke:#181818;stroke-width:0.5;" width="160.0684" x="750.9756" y="1379.3379"/><text fill="#000000" font-family="sans-serif" font-size="12" lengthAdjust="spacing" textLength="140.0684" x="760.9756" y="1401.7949">Menyimpan data transaksi</text><rect fill="#F1F1F1" height="35.0938" rx="12.5" ry="12.5" style="stroke:#181818;stroke-width:0.5;" width="165.4004" x="748.3096" y="1434.4316"/><text fill="#000000" font-family="sans-serif" font-size="12" lengthAdjust="spacing" textLength="145.4004" x="758.3096" y="1456.8887">Menyimpan detail transaksi</text><polygon fill="#F1F1F1" points="792.4802,1489.5254,869.5393,1489.5254,881.5393,1501.5254,869.5393,1513.5254,792.4802,1513.5254,780.4802,1501.5254,792.4802,1489.5254" style="stroke:#181818;stroke-width:0.5;"/><text fill="#000000" font-family="sans-serif" font-size="11" lengthAdjust="spacing" textLength="77.0591" x="792.4802" y="1506.0264">Jenis pesanan?</text><text fill="#000000" font-family="sans-serif" font-size="11" lengthAdjust="spacing" textLength="43.4146" x="737.0657" y="1499.1084">Siap Beli</text><text fill="#000000" font-family="sans-serif" font-size="11" lengthAdjust="spacing" textLength="116.1875" x="881.5393" y="1499.1084">Pesanan Reguler/Kotak</text><rect fill="#F1F1F1" height="35.0938" rx="12.5" ry="12.5" style="stroke:#181818;stroke-width:0.5;" width="148.7422" x="668.6084" y="1523.5254"/><text fill="#000000" font-family="sans-serif" font-size="12" lengthAdjust="spacing" textLength="128.7422" x="678.6084" y="1545.9824">Mengurangi stok produk</text><rect fill="#F1F1F1" height="35.0938" rx="12.5" ry="12.5" style="stroke:#181818;stroke-width:0.5;" width="140.0703" x="672.9443" y="1578.6191"/><text fill="#000000" font-family="sans-serif" font-size="12" lengthAdjust="spacing" textLength="120.0703" x="682.9443" y="1601.0762">Update status: Selesai</text><rect fill="#F1F1F1" height="35.0938" rx="12.5" ry="12.5" style="stroke:#181818;stroke-width:0.5;" width="156.0605" x="841.0098" y="1523.5254"/><text fill="#000000" font-family="sans-serif" font-size="12" lengthAdjust="spacing" textLength="136.0605" x="851.0098" y="1545.9824">Membuat record produksi</text><rect fill="#F1F1F1" height="35.0938" rx="12.5" ry="12.5" style="stroke:#181818;stroke-width:0.5;" width="138.7344" x="849.6729" y="1578.6191"/><text fill="#000000" font-family="sans-serif" font-size="12" lengthAdjust="spacing" textLength="118.7344" x="859.6729" y="1601.0762">Update status: Antrian</text><rect fill="#F1F1F1" height="35.0938" rx="12.5" ry="12.5" style="stroke:#181818;stroke-width:0.5;" width="163.3789" x="837.3506" y="1633.7129"/><text fill="#000000" font-family="sans-serif" font-size="12" lengthAdjust="spacing" textLength="143.3789" x="847.3506" y="1656.1699">Kirim notifikasi ke Produksi</text><polygon fill="#F1F1F1" points="831.0098,1674.8066,843.0098,1686.8066,831.0098,1698.8066,819.0098,1686.8066,831.0098,1674.8066" style="stroke:#181818;stroke-width:0.5;"/><rect fill="#F1F1F1" height="35.0938" rx="12.5" ry="12.5" style="stroke:#181818;stroke-width:0.5;" width="144.0313" x="758.9941" y="1718.8066"/><text fill="#000000" font-family="sans-serif" font-size="12" lengthAdjust="spacing" textLength="124.0313" x="768.9941" y="1741.2637">Kirim notifikasi ke Kasir</text><line style="stroke:#000000;stroke-width:1.5;" x1="662.6084" x2="662.6084" y1="12.4551" y2="1943.9121"/><line style="stroke:#000000;stroke-width:1.5;" x1="1004.7295" x2="1004.7295" y1="12.4551" y2="1943.9121"/><line style="stroke:#181818;stroke-width:1.0;" x1="370.5891" x2="370.5891" y1="60.0957" y2="80.0957"/><polygon fill="#181818" points="366.5891,70.0957,370.5891,80.0957,374.5891,70.0957,370.5891,74.0957" style="stroke:#181818;stroke-width:1.0;"/><line style="stroke:#181818;stroke-width:1.0;" x1="370.5891" x2="370.5891" y1="115.1895" y2="135.1895"/><polygon fill="#181818" points="366.5891,125.1895,370.5891,135.1895,374.5891,125.1895,370.5891,129.1895" style="stroke:#181818;stroke-width:1.0;"/><line style="stroke:#181818;stroke-width:1.0;" x1="202.2612" x2="202.2612" y1="259.377" y2="279.377"/><polygon fill="#181818" points="198.2612,269.377,202.2612,279.377,206.2612,269.377,202.2612,273.377" style="stroke:#181818;stroke-width:1.0;"/><line style="stroke:#181818;stroke-width:1.0;" x1="304.1445" x2="304.1445" y1="403.5645" y2="438.5645"/><polygon fill="#181818" points="300.1445,428.5645,304.1445,438.5645,308.1445,428.5645,304.1445,432.5645" style="stroke:#181818;stroke-width:1.0;"/><line style="stroke:#181818;stroke-width:1.0;" x1="155.1021" x2="100.3779" y1="346.4707" y2="346.4707"/><line style="stroke:#181818;stroke-width:1.0;" x1="100.3779" x2="100.3779" y1="346.4707" y2="368.4707"/><polygon fill="#181818" points="96.3779,358.4707,100.3779,368.4707,104.3779,358.4707,100.3779,362.4707" style="stroke:#181818;stroke-width:1.0;"/><line style="stroke:#181818;stroke-width:1.0;" x1="249.4204" x2="304.1445" y1="346.4707" y2="346.4707"/><line style="stroke:#181818;stroke-width:1.0;" x1="304.1445" x2="304.1445" y1="346.4707" y2="368.4707"/><polygon fill="#181818" points="300.1445,358.4707,304.1445,368.4707,308.1445,358.4707,304.1445,362.4707" style="stroke:#181818;stroke-width:1.0;"/><line style="stroke:#181818;stroke-width:1.0;" x1="100.3779" x2="100.3779" y1="403.5645" y2="482.5645"/><line style="stroke:#181818;stroke-width:1.0;" x1="100.3779" x2="358.5891" y1="482.5645" y2="482.5645"/><polygon fill="#181818" points="348.5891,478.5645,358.5891,482.5645,348.5891,486.5645,352.5891,482.5645" style="stroke:#181818;stroke-width:1.0;"/><line style="stroke:#181818;stroke-width:1.0;" x1="202.2612" x2="202.2612" y1="314.4707" y2="334.4707"/><polygon fill="#181818" points="198.2612,324.4707,202.2612,334.4707,206.2612,324.4707,202.2612,328.4707" style="stroke:#181818;stroke-width:1.0;"/><line style="stroke:#181818;stroke-width:1.0;" x1="538.917" x2="538.917" y1="259.377" y2="279.377"/><polygon fill="#181818" points="534.917,269.377,538.917,279.377,542.917,269.377,538.917,273.377" style="stroke:#181818;stroke-width:1.0;"/><line style="stroke:#181818;stroke-width:1.0;" x1="538.917" x2="538.917" y1="314.4707" y2="334.4707"/><polygon fill="#181818" points="534.917,324.4707,538.917,334.4707,542.917,324.4707,538.917,328.4707" style="stroke:#181818;stroke-width:1.0;"/><line style="stroke:#181818;stroke-width:1.0;" x1="538.917" x2="538.917" y1="369.5645" y2="404.5645"/><polygon fill="#181818" points="534.917,394.5645,538.917,404.5645,542.917,394.5645,538.917,398.5645" style="stroke:#181818;stroke-width:1.0;"/><line style="stroke:#181818;stroke-width:1.0;" x1="320.0596" x2="202.2612" y1="202.2832" y2="202.2832"/><line style="stroke:#181818;stroke-width:1.0;" x1="202.2612" x2="202.2612" y1="202.2832" y2="224.2832"/><polygon fill="#181818" points="198.2612,214.2832,202.2612,224.2832,206.2612,214.2832,202.2612,218.2832" style="stroke:#181818;stroke-width:1.0;"/><line style="stroke:#181818;stroke-width:1.0;" x1="421.1187" x2="538.917" y1="202.2832" y2="202.2832"/><line style="stroke:#181818;stroke-width:1.0;" x1="538.917" x2="538.917" y1="202.2832" y2="224.2832"/><polygon fill="#181818" points="534.917,214.2832,538.917,224.2832,542.917,214.2832,538.917,218.2832" style="stroke:#181818;stroke-width:1.0;"/><line style="stroke:#181818;stroke-width:1.0;" x1="538.917" x2="538.917" y1="439.6582" y2="482.5645"/><line style="stroke:#181818;stroke-width:1.0;" x1="538.917" x2="382.5891" y1="482.5645" y2="482.5645"/><polygon fill="#181818" points="392.5891,478.5645,382.5891,482.5645,392.5891,486.5645,388.5891,482.5645" style="stroke:#181818;stroke-width:1.0;"/><line style="stroke:#181818;stroke-width:1.0;" x1="370.5891" x2="370.5891" y1="170.2832" y2="190.2832"/><polygon fill="#181818" points="366.5891,180.2832,370.5891,190.2832,374.5891,180.2832,370.5891,184.2832" style="stroke:#181818;stroke-width:1.0;"/><line style="stroke:#181818;stroke-width:1.0;" x1="370.5891" x2="370.5891" y1="494.5645" y2="514.5645"/><polygon fill="#181818" points="366.5891,504.5645,370.5891,514.5645,374.5891,504.5645,370.5891,508.5645" style="stroke:#181818;stroke-width:1.0;"/><line style="stroke:#181818;stroke-width:1.0;" x1="261.863" x2="261.863" y1="638.752" y2="658.752"/><polygon fill="#181818" points="257.863,648.752,261.863,658.752,265.863,648.752,261.863,652.752" style="stroke:#181818;stroke-width:1.0;"/><line style="stroke:#181818;stroke-width:1.0;" x1="261.863" x2="261.863" y1="737.8457" y2="762.7637"/><polygon fill="#181818" points="257.863,752.7637,261.863,762.7637,265.863,752.7637,261.863,756.7637" style="stroke:#181818;stroke-width:1.0;"/><line style="stroke:#181818;stroke-width:1.0;" x1="311.1707" x2="345.241" y1="725.8457" y2="725.8457"/><polygon fill="#181818" points="341.241,770.3105,345.241,780.3105,349.241,770.3105,345.241,774.3105" style="stroke:#181818;stroke-width:1.0;"/><line style="stroke:#181818;stroke-width:1.0;" x1="345.241" x2="345.241" y1="725.8457" y2="829.8574"/><line style="stroke:#181818;stroke-width:1.0;" x1="345.241" x2="273.863" y1="829.8574" y2="829.8574"/><polygon fill="#181818" points="283.863,825.8574,273.863,829.8574,283.863,833.8574,279.863,829.8574" style="stroke:#181818;stroke-width:1.0;"/><line style="stroke:#181818;stroke-width:1.0;" x1="261.863" x2="261.863" y1="797.8574" y2="817.8574"/><polygon fill="#181818" points="257.863,807.8574,261.863,817.8574,265.863,807.8574,261.863,811.8574" style="stroke:#181818;stroke-width:1.0;"/><line style="stroke:#181818;stroke-width:1.0;" x1="261.863" x2="261.863" y1="693.8457" y2="713.8457"/><polygon fill="#181818" points="257.863,703.8457,261.863,713.8457,265.863,703.8457,261.863,707.8457" style="stroke:#181818;stroke-width:1.0;"/><line style="stroke:#181818;stroke-width:1.0;" x1="307.2173" x2="261.863" y1="581.6582" y2="581.6582"/><line style="stroke:#181818;stroke-width:1.0;" x1="261.863" x2="261.863" y1="581.6582" y2="603.6582"/><polygon fill="#181818" points="257.863,593.6582,261.863,603.6582,265.863,593.6582,261.863,597.6582" style="stroke:#181818;stroke-width:1.0;"/><line style="stroke:#181818;stroke-width:1.0;" x1="433.9609" x2="479.3152" y1="581.6582" y2="581.6582"/><line style="stroke:#181818;stroke-width:1.0;" x1="479.3152" x2="479.3152" y1="581.6582" y2="603.6582"/><polygon fill="#181818" points="475.3152,593.6582,479.3152,603.6582,483.3152,593.6582,479.3152,597.6582" style="stroke:#181818;stroke-width:1.0;"/><line style="stroke:#181818;stroke-width:1.0;" x1="261.863" x2="261.863" y1="841.8574" y2="859.8574"/><line style="stroke:#181818;stroke-width:1.0;" x1="261.863" x2="358.5891" y1="859.8574" y2="859.8574"/><polygon fill="#181818" points="348.5891,855.8574,358.5891,859.8574,348.5891,863.8574,352.5891,859.8574" style="stroke:#181818;stroke-width:1.0;"/><line style="stroke:#181818;stroke-width:1.0;" x1="479.3152" x2="479.3152" y1="638.752" y2="859.8574"/><line style="stroke:#181818;stroke-width:1.0;" x1="479.3152" x2="382.5891" y1="859.8574" y2="859.8574"/><polygon fill="#181818" points="392.5891,855.8574,382.5891,859.8574,392.5891,863.8574,388.5891,859.8574" style="stroke:#181818;stroke-width:1.0;"/><line style="stroke:#181818;stroke-width:1.0;" x1="370.5891" x2="370.5891" y1="549.6582" y2="569.6582"/><polygon fill="#181818" points="366.5891,559.6582,370.5891,569.6582,374.5891,559.6582,370.5891,563.6582" style="stroke:#181818;stroke-width:1.0;"/><line style="stroke:#181818;stroke-width:1.0;" x1="370.5891" x2="370.5891" y1="871.8574" y2="891.8574"/><polygon fill="#181818" points="366.5891,881.8574,370.5891,891.8574,374.5891,881.8574,370.5891,885.8574" style="stroke:#181818;stroke-width:1.0;"/><line style="stroke:#181818;stroke-width:1.0;" x1="370.5891" x2="370.5891" y1="926.9512" y2="946.9512"/><polygon fill="#181818" points="366.5891,936.9512,370.5891,946.9512,374.5891,936.9512,370.5891,940.9512" style="stroke:#181818;stroke-width:1.0;"/><line style="stroke:#181818;stroke-width:1.0;" x1="182.5991" x2="182.5991" y1="1071.1387" y2="1091.1387"/><polygon fill="#181818" points="178.5991,1081.1387,182.5991,1091.1387,186.5991,1081.1387,182.5991,1085.1387" style="stroke:#181818;stroke-width:1.0;"/><line style="stroke:#181818;stroke-width:1.0;" x1="182.5991" x2="182.5991" y1="1126.2324" y2="1146.2324"/><polygon fill="#181818" points="178.5991,1136.2324,182.5991,1146.2324,186.5991,1136.2324,182.5991,1140.2324" style="stroke:#181818;stroke-width:1.0;"/><line style="stroke:#181818;stroke-width:1.0;" x1="182.5991" x2="182.5991" y1="1225.3262" y2="1250.2441"/><polygon fill="#181818" points="178.5991,1240.2441,182.5991,1250.2441,186.5991,1240.2441,182.5991,1244.2441" style="stroke:#181818;stroke-width:1.0;"/><line style="stroke:#181818;stroke-width:1.0;" x1="245.9709" x2="426.5498" y1="1213.3262" y2="1213.3262"/><polygon fill="#181818" points="422.5498,1257.791,426.5498,1267.791,430.5498,1257.791,426.5498,1261.791" style="stroke:#181818;stroke-width:1.0;"/><line style="stroke:#181818;stroke-width:1.0;" x1="426.5498" x2="426.5498" y1="1213.3262" y2="1317.3379"/><line style="stroke:#181818;stroke-width:1.0;" x1="426.5498" x2="194.5991" y1="1317.3379" y2="1317.3379"/><polygon fill="#181818" points="204.5991,1313.3379,194.5991,1317.3379,204.5991,1321.3379,200.5991,1317.3379" style="stroke:#181818;stroke-width:1.0;"/><line style="stroke:#181818;stroke-width:1.0;" x1="182.5991" x2="182.5991" y1="1285.3379" y2="1305.3379"/><polygon fill="#181818" points="178.5991,1295.3379,182.5991,1305.3379,186.5991,1295.3379,182.5991,1299.3379" style="stroke:#181818;stroke-width:1.0;"/><line style="stroke:#181818;stroke-width:1.0;" x1="182.5991" x2="182.5991" y1="1181.3262" y2="1201.3262"/><polygon fill="#181818" points="178.5991,1191.3262,182.5991,1201.3262,186.5991,1191.3262,182.5991,1195.3262" style="stroke:#181818;stroke-width:1.0;"/><line style="stroke:#181818;stroke-width:1.0;" x1="558.5791" x2="558.5791" y1="1071.1387" y2="1091.1387"/><polygon fill="#181818" points="554.5791,1081.1387,558.5791,1091.1387,562.5791,1081.1387,558.5791,1085.1387" style="stroke:#181818;stroke-width:1.0;"/><line style="stroke:#181818;stroke-width:1.0;" x1="310.5876" x2="182.5991" y1="1014.0449" y2="1014.0449"/><line style="stroke:#181818;stroke-width:1.0;" x1="182.5991" x2="182.5991" y1="1014.0449" y2="1036.0449"/><polygon fill="#181818" points="178.5991,1026.0449,182.5991,1036.0449,186.5991,1026.0449,182.5991,1030.0449" style="stroke:#181818;stroke-width:1.0;"/><line style="stroke:#181818;stroke-width:1.0;" x1="430.5906" x2="558.5791" y1="1014.0449" y2="1014.0449"/><line style="stroke:#181818;stroke-width:1.0;" x1="558.5791" x2="558.5791" y1="1014.0449" y2="1036.0449"/><polygon fill="#181818" points="554.5791,1026.0449,558.5791,1036.0449,562.5791,1026.0449,558.5791,1030.0449" style="stroke:#181818;stroke-width:1.0;"/><line style="stroke:#181818;stroke-width:1.0;" x1="182.5991" x2="182.5991" y1="1329.3379" y2="1347.3379"/><line style="stroke:#181818;stroke-width:1.0;" x1="182.5991" x2="358.5891" y1="1347.3379" y2="1347.3379"/><polygon fill="#181818" points="348.5891,1343.3379,358.5891,1347.3379,348.5891,1351.3379,352.5891,1347.3379" style="stroke:#181818;stroke-width:1.0;"/><line style="stroke:#181818;stroke-width:1.0;" x1="558.5791" x2="558.5791" y1="1126.2324" y2="1347.3379"/><line style="stroke:#181818;stroke-width:1.0;" x1="558.5791" x2="382.5891" y1="1347.3379" y2="1347.3379"/><polygon fill="#181818" points="392.5891,1343.3379,382.5891,1347.3379,392.5891,1351.3379,388.5891,1347.3379" style="stroke:#181818;stroke-width:1.0;"/><line style="stroke:#181818;stroke-width:1.0;" x1="370.5891" x2="370.5891" y1="982.0449" y2="1002.0449"/><polygon fill="#181818" points="366.5891,992.0449,370.5891,1002.0449,374.5891,992.0449,370.5891,996.0449" style="stroke:#181818;stroke-width:1.0;"/><line style="stroke:#181818;stroke-width:1.0;" x1="370.5891" x2="370.5891" y1="1797.9004" y2="1822.8184"/><polygon fill="#181818" points="366.5891,1812.8184,370.5891,1822.8184,374.5891,1812.8184,370.5891,1816.8184" style="stroke:#181818;stroke-width:1.0;"/><line style="stroke:#181818;stroke-width:1.0;" x1="413.4622" x2="456.9465" y1="1785.9004" y2="1785.9004"/><polygon fill="#181818" points="452.9465,1830.3652,456.9465,1840.3652,460.9465,1830.3652,456.9465,1834.3652" style="stroke:#181818;stroke-width:1.0;"/><line style="stroke:#181818;stroke-width:1.0;" x1="456.9465" x2="456.9465" y1="1785.9004" y2="1889.9121"/><line style="stroke:#181818;stroke-width:1.0;" x1="456.9465" x2="382.5891" y1="1889.9121" y2="1889.9121"/><polygon fill="#181818" points="392.5891,1885.9121,382.5891,1889.9121,392.5891,1893.9121,388.5891,1889.9121" style="stroke:#181818;stroke-width:1.0;"/><line style="stroke:#181818;stroke-width:1.0;" x1="370.5891" x2="370.5891" y1="1857.9121" y2="1877.9121"/><polygon fill="#181818" points="366.5891,1867.9121,370.5891,1877.9121,374.5891,1867.9121,370.5891,1871.9121" style="stroke:#181818;stroke-width:1.0;"/><line style="stroke:#181818;stroke-width:1.0;" x1="370.5891" x2="370.5891" y1="1901.9121" y2="1921.9121"/><polygon fill="#181818" points="366.5891,1911.9121,370.5891,1921.9121,374.5891,1911.9121,370.5891,1915.9121" style="stroke:#181818;stroke-width:1.0;"/><line style="stroke:#181818;stroke-width:1.0;" x1="831.0098" x2="831.0098" y1="1414.4316" y2="1434.4316"/><polygon fill="#181818" points="827.0098,1424.4316,831.0098,1434.4316,835.0098,1424.4316,831.0098,1428.4316" style="stroke:#181818;stroke-width:1.0;"/><line style="stroke:#181818;stroke-width:1.0;" x1="742.9795" x2="742.9795" y1="1558.6191" y2="1578.6191"/><polygon fill="#181818" points="738.9795,1568.6191,742.9795,1578.6191,746.9795,1568.6191,742.9795,1572.6191" style="stroke:#181818;stroke-width:1.0;"/><line style="stroke:#181818;stroke-width:1.0;" x1="919.04" x2="919.04" y1="1558.6191" y2="1578.6191"/><polygon fill="#181818" points="915.04,1568.6191,919.04,1578.6191,923.04,1568.6191,919.04,1572.6191" style="stroke:#181818;stroke-width:1.0;"/><line style="stroke:#181818;stroke-width:1.0;" x1="919.04" x2="919.04" y1="1613.7129" y2="1633.7129"/><polygon fill="#181818" points="915.04,1623.7129,919.04,1633.7129,923.04,1623.7129,919.04,1627.7129" style="stroke:#181818;stroke-width:1.0;"/><line style="stroke:#181818;stroke-width:1.0;" x1="780.4802" x2="742.9795" y1="1501.5254" y2="1501.5254"/><line style="stroke:#181818;stroke-width:1.0;" x1="742.9795" x2="742.9795" y1="1501.5254" y2="1523.5254"/><polygon fill="#181818" points="738.9795,1513.5254,742.9795,1523.5254,746.9795,1513.5254,742.9795,1517.5254" style="stroke:#181818;stroke-width:1.0;"/><line style="stroke:#181818;stroke-width:1.0;" x1="881.5393" x2="919.04" y1="1501.5254" y2="1501.5254"/><line style="stroke:#181818;stroke-width:1.0;" x1="919.04" x2="919.04" y1="1501.5254" y2="1523.5254"/><polygon fill="#181818" points="915.04,1513.5254,919.04,1523.5254,923.04,1513.5254,919.04,1517.5254" style="stroke:#181818;stroke-width:1.0;"/><line style="stroke:#181818;stroke-width:1.0;" x1="742.9795" x2="742.9795" y1="1613.7129" y2="1686.8066"/><line style="stroke:#181818;stroke-width:1.0;" x1="742.9795" x2="819.0098" y1="1686.8066" y2="1686.8066"/><polygon fill="#181818" points="809.0098,1682.8066,819.0098,1686.8066,809.0098,1690.8066,813.0098,1686.8066" style="stroke:#181818;stroke-width:1.0;"/><line style="stroke:#181818;stroke-width:1.0;" x1="919.04" x2="919.04" y1="1668.8066" y2="1686.8066"/><line style="stroke:#181818;stroke-width:1.0;" x1="919.04" x2="843.0098" y1="1686.8066" y2="1686.8066"/><polygon fill="#181818" points="853.0098,1682.8066,843.0098,1686.8066,853.0098,1690.8066,849.0098,1686.8066" style="stroke:#181818;stroke-width:1.0;"/><line style="stroke:#181818;stroke-width:1.0;" x1="831.0098" x2="831.0098" y1="1469.5254" y2="1489.5254"/><polygon fill="#181818" points="827.0098,1479.5254,831.0098,1489.5254,835.0098,1479.5254,831.0098,1483.5254" style="stroke:#181818;stroke-width:1.0;"/><line style="stroke:#181818;stroke-width:1.0;" x1="831.0098" x2="831.0098" y1="1698.8066" y2="1718.8066"/><polygon fill="#181818" points="827.0098,1708.8066,831.0098,1718.8066,835.0098,1708.8066,831.0098,1712.8066" style="stroke:#181818;stroke-width:1.0;"/><line style="stroke:#181818;stroke-width:1.0;" x1="370.5891" x2="370.5891" y1="1359.3379" y2="1364.3379"/><line style="stroke:#181818;stroke-width:1.0;" x1="370.5891" x2="831.0098" y1="1364.3379" y2="1364.3379"/><line style="stroke:#181818;stroke-width:1.0;" x1="831.0098" x2="831.0098" y1="1364.3379" y2="1379.3379"/><polygon fill="#181818" points="827.0098,1369.3379,831.0098,1379.3379,835.0098,1369.3379,831.0098,1373.3379" style="stroke:#181818;stroke-width:1.0;"/><line style="stroke:#181818;stroke-width:1.0;" x1="831.0098" x2="831.0098" y1="1753.9004" y2="1758.9004"/><line style="stroke:#181818;stroke-width:1.0;" x1="831.0098" x2="370.5891" y1="1758.9004" y2="1758.9004"/><line style="stroke:#181818;stroke-width:1.0;" x1="370.5891" x2="370.5891" y1="1758.9004" y2="1773.9004"/><polygon fill="#181818" points="366.5891,1763.9004,370.5891,1773.9004,374.5891,1763.9004,370.5891,1767.9004" style="stroke:#181818;stroke-width:1.0;"/><text fill="#000000" font-family="sans-serif" font-size="18" lengthAdjust="spacing" textLength="41.0098" x="318.2993" y="31.1406">Kasir</text><text fill="#000000" font-family="sans-serif" font-size="18" lengthAdjust="spacing" textLength="55.0107" x="806.1636" y="31.1406">Sistem</text><!--SRC=[fLLBRzim3BxxL_2ONBRqsc0OjXKOiAoOqQo77PbQiHd9ag47XWBvyQCiMt5UHOePGP3myNqaFudUhz2HtHVEe_N5_QDeDq4YDAYmHGtbh_MojvAY1dP2auDEEDIebqL1MvZzcDe-py4tGiDiJTZ1Lw5eNW0_6Q6pfWeIAhG44ZqgKo_728tj1Xl9h5BmnwBUeHxS_LUaMtiZmGlhH4MOwVvWuXcHQlJ1mYwq2fj3lT4hb1Cm-qqLokCKR3jIaRmJbY80_tIHhC4DkMMEPLkNa7H5srHS0YqJ3po9EYXXFwwC7qd-k_-tcuhmw8ACkJki_g9YFyUt6r8n9fLQJCCg9kSWTjSr_vsPpf7HgEQ3h6LsyR0htFBnE9jsAYgIdC1DMngdQaXdtKuq_HuqZZ7N9Mt81rr3HKwQ57j5qTJjcPb1kBnTy96ArUtmhEh3d3ATPn7LOTfPo5PuKmbsi6QlQC-kmsZE_Vpa9jtyNAuaPnyzaNfWbn57qNIYhzHsiG76TYWTmOolhW_k7XB3oMnlqV7e_2MbJgICZpPUWAMwyTa4S9V2Fy5J1tUB3ul58Zjvc7tEMo9DRiypyy4ZxvwhCteeRvd2GpdFGkxNvBnezyKafTSyvosFNC8Zd-M9yrqRJjU1CsjAQoFTzA7Yvuvf1OmrheLYDCQ_QN5i0dgmuiNOQa2DfLt2_QAzFHoM5LbgemIq9SbRFgwLCkUFP_rILFzEuExtmyiXJk4R3qSoamtouY9uEVYd4pmIVk3iL-W_]--></g></svg>