<svg xmlns="http://www.w3.org/2000/svg" xmlns:xlink="http://www.w3.org/1999/xlink" contentStyleType="text/css" height="1026px" preserveAspectRatio="none" style="width:1095px;height:1026px;background:#FFFFFF;" version="1.1" viewBox="0 0 1095 1026" width="1095px" zoomAndPan="magnify"><defs/><g><ellipse cx="547.873" cy="20" fill="#222222" rx="10" ry="10" style="stroke:#222222;stroke-width:1.0;"/><path d="M668.9277,46.1953 L668.9277,63.5469 L648.9277,67.5469 L668.9277,71.5469 L668.9277,88.8984 A0,0 0 0 0 668.9277,88.8984 L814.2212,88.8984 A0,0 0 0 0 814.2212,88.8984 L814.2212,56.1953 L804.2212,46.1953 L668.9277,46.1953 A0,0 0 0 0 668.9277,46.1953 " fill="#FEFFDD" style="stroke:#181818;stroke-width:0.5;"/><path d="M804.2212,46.1953 L804.2212,56.1953 L814.2212,56.1953 L804.2212,46.1953 " fill="#FEFFDD" style="stroke:#181818;stroke-width:0.5;"/><text fill="#000000" font-family="sans-serif" font-size="13" lengthAdjust="spacing" textLength="124.2935" x="674.9277" y="64.6904">Dijalankan setiap hari</text><text fill="#000000" font-family="sans-serif" font-size="13" lengthAdjust="spacing" textLength="67.2217" x="674.9277" y="81.042">pukul 08:00</text><rect fill="#F1F1F1" height="35.0938" rx="12.5" ry="12.5" style="stroke:#181818;stroke-width:0.5;" width="202.1094" x="446.8184" y="50"/><text fill="#000000" font-family="sans-serif" font-size="12" lengthAdjust="spacing" textLength="182.1094" x="456.8184" y="72.457">Menjalankan scheduled command</text><rect fill="#555555" height="6" rx="2.5" ry="2.5" style="stroke:#555555;stroke-width:1.0;" width="1072.1963" x="11" y="108.8984"/><rect fill="#F1F1F1" height="35.0938" rx="12.5" ry="12.5" style="stroke:#181818;stroke-width:0.5;" width="141.4063" x="269.2566" y="134.8984"/><text fill="#000000" font-family="sans-serif" font-size="12" lengthAdjust="spacing" textLength="121.4063" x="279.2566" y="157.3555">Mengecek stok rendah</text><rect fill="#F1F1F1" height="35.0938" rx="12.5" ry="12.5" style="stroke:#181818;stroke-width:0.5;" width="114.7227" x="282.5984" y="204.9922"/><text fill="#000000" font-family="sans-serif" font-size="12" lengthAdjust="spacing" textLength="94.7227" x="292.5984" y="227.4492">Query bahan aktif</text><rect fill="#F1F1F1" height="35.0938" rx="12.5" ry="12.5" style="stroke:#181818;stroke-width:0.5;" width="174.752" x="252.5837" y="336.9219"/><text fill="#000000" font-family="sans-serif" font-size="12" lengthAdjust="spacing" textLength="154.752" x="262.5837" y="359.3789">Hitung total stok dari batches</text><polygon fill="#F1F1F1" points="294.1094,407.0156,385.8101,407.0156,397.8101,419.0156,385.8101,431.0156,294.1094,431.0156,282.1094,419.0156,294.1094,407.0156" style="stroke:#181818;stroke-width:0.5;"/><text fill="#000000" font-family="sans-serif" font-size="11" lengthAdjust="spacing" textLength="91.7007" x="294.1094" y="423.5166">Stok &lt;= Minimum?</text><text fill="#000000" font-family="sans-serif" font-size="11" lengthAdjust="spacing" textLength="13.4546" x="268.6548" y="416.5986">Ya</text><text fill="#000000" font-family="sans-serif" font-size="11" lengthAdjust="spacing" textLength="26.8984" x="397.8101" y="416.5986">Tidak</text><polygon fill="#F1F1F1" points="177.0176,441.0156,223.7998,441.0156,235.7998,453.0156,223.7998,465.0156,177.0176,465.0156,165.0176,453.0156,177.0176,441.0156" style="stroke:#181818;stroke-width:0.5;"/><text fill="#000000" font-family="sans-serif" font-size="11" lengthAdjust="spacing" textLength="46.7822" x="177.0176" y="457.5166">Stok = 0?</text><text fill="#000000" font-family="sans-serif" font-size="11" lengthAdjust="spacing" textLength="13.4546" x="151.563" y="450.5986">Ya</text><text fill="#000000" font-family="sans-serif" font-size="11" lengthAdjust="spacing" textLength="26.8984" x="235.7998" y="450.5986">Tidak</text><rect fill="#F1F1F1" height="35.0938" rx="12.5" ry="12.5" style="stroke:#181818;stroke-width:0.5;" width="141.4121" x="41" y="475.0156"/><text fill="#000000" font-family="sans-serif" font-size="12" lengthAdjust="spacing" textLength="121.4121" x="51" y="497.4727">Update status: Kosong</text><rect fill="#F1F1F1" height="35.0938" rx="12.5" ry="12.5" style="stroke:#181818;stroke-width:0.5;" width="173.3984" x="202.4121" y="475.0156"/><text fill="#000000" font-family="sans-serif" font-size="12" lengthAdjust="spacing" textLength="153.3984" x="212.4121" y="497.4727">Update status: Hampir Habis</text><polygon fill="#F1F1F1" points="200.4087,516.1094,212.4087,528.1094,200.4087,540.1094,188.4087,528.1094,200.4087,516.1094" style="stroke:#181818;stroke-width:0.5;"/><rect fill="#F1F1F1" height="35.0938" rx="12.5" ry="12.5" style="stroke:#181818;stroke-width:0.5;" width="131.3926" x="134.7124" y="565.0742"/><text fill="#000000" font-family="sans-serif" font-size="12" lengthAdjust="spacing" textLength="111.3926" x="144.7124" y="587.5313">Catat untuk notifikasi</text><rect fill="#F1F1F1" height="35.0938" rx="12.5" ry="12.5" style="stroke:#181818;stroke-width:0.5;" width="147.4004" x="405.8105" y="441.0156"/><text fill="#000000" font-family="sans-serif" font-size="12" lengthAdjust="spacing" textLength="127.4004" x="415.8105" y="463.4727">Update status: Tersedia</text><polygon fill="#F1F1F1" points="339.9597,606.168,351.9597,618.168,339.9597,630.168,327.9597,618.168,339.9597,606.168" style="stroke:#181818;stroke-width:0.5;"/><polygon fill="#F1F1F1" points="292.5652,275.0859,387.3542,275.0859,399.3542,287.0859,387.3542,299.0859,292.5652,299.0859,280.5652,287.0859,292.5652,275.0859" style="stroke:#181818;stroke-width:0.5;"/><text fill="#000000" font-family="sans-serif" font-size="11" lengthAdjust="spacing" textLength="19.5723" x="343.9597" y="310.5049">Ada</text><text fill="#000000" font-family="sans-serif" font-size="11" lengthAdjust="spacing" textLength="94.7891" x="292.5652" y="291.5869">Untuk setiap bahan</text><text fill="#000000" font-family="sans-serif" font-size="11" lengthAdjust="spacing" textLength="36.0776" x="244.4875" y="284.6689">Selesai</text><rect fill="#F1F1F1" height="35.0938" rx="12.5" ry="12.5" style="stroke:#181818;stroke-width:0.5;" width="187.4258" x="246.2468" y="738.0859"/><text fill="#000000" font-family="sans-serif" font-size="12" lengthAdjust="spacing" textLength="167.4258" x="256.2468" y="760.543">Buat notifikasi alert stok rendah</text><rect fill="#F1F1F1" height="35.0938" rx="12.5" ry="12.5" style="stroke:#181818;stroke-width:0.5;" width="243.4355" x="218.2419" y="808.1797"/><text fill="#000000" font-family="sans-serif" font-size="12" lengthAdjust="spacing" textLength="223.4355" x="228.2419" y="830.6367">Kirim ke user dengan permission inventori</text><polygon fill="#F1F1F1" points="280.0237,689.168,399.8958,689.168,411.8958,701.168,399.8958,713.168,280.0237,713.168,268.0237,701.168,280.0237,689.168" style="stroke:#181818;stroke-width:0.5;"/><text fill="#000000" font-family="sans-serif" font-size="11" lengthAdjust="spacing" textLength="13.4546" x="343.9597" y="724.5869">Ya</text><text fill="#000000" font-family="sans-serif" font-size="11" lengthAdjust="spacing" textLength="119.8721" x="280.0237" y="705.6689">Ada bahan stok rendah?</text><text fill="#000000" font-family="sans-serif" font-size="11" lengthAdjust="spacing" textLength="26.8984" x="411.8958" y="698.751">Tidak</text><polygon fill="#F1F1F1" points="339.9597,868.1914,351.9597,880.1914,339.9597,892.1914,327.9597,880.1914,339.9597,868.1914" style="stroke:#181818;stroke-width:0.5;"/><rect fill="#F1F1F1" height="35.0938" rx="12.5" ry="12.5" style="stroke:#181818;stroke-width:0.5;" width="154.7598" x="779.5986" y="155.0273"/><text fill="#000000" font-family="sans-serif" font-size="12" lengthAdjust="spacing" textLength="134.7598" x="789.5986" y="177.4844">Mengecek bahan expired</text><rect fill="#F1F1F1" height="35.0938" rx="12.5" ry="12.5" style="stroke:#181818;stroke-width:0.5;" width="123.3828" x="795.2871" y="225.1211"/><text fill="#000000" font-family="sans-serif" font-size="12" lengthAdjust="spacing" textLength="103.3828" x="805.2871" y="247.5781">Query batches aktif</text><polygon fill="#F1F1F1" points="655.7278,382.0508,776.7976,382.0508,788.7976,394.0508,776.7976,406.0508,655.7278,406.0508,643.7278,394.0508,655.7278,382.0508" style="stroke:#181818;stroke-width:0.5;"/><text fill="#000000" font-family="sans-serif" font-size="11" lengthAdjust="spacing" textLength="13.4546" x="720.2627" y="417.4697">Ya</text><text fill="#000000" font-family="sans-serif" font-size="11" lengthAdjust="spacing" textLength="121.0698" x="655.7278" y="398.5518">Expired date &lt;= Hari ini?</text><rect fill="#F1F1F1" height="35.0938" rx="12.5" ry="12.5" style="stroke:#181818;stroke-width:0.5;" width="178.1035" x="627.2109" y="439.8867"/><text fill="#000000" font-family="sans-serif" font-size="12" lengthAdjust="spacing" textLength="158.1035" x="637.2109" y="462.3438">Update status bahan: Expired</text><rect fill="#F1F1F1" height="35.0938" rx="12.5" ry="12.5" style="stroke:#181818;stroke-width:0.5;" width="131.3926" x="650.5664" y="509.9805"/><text fill="#000000" font-family="sans-serif" font-size="12" lengthAdjust="spacing" textLength="111.3926" x="660.5664" y="532.4375">Catat untuk notifikasi</text><polygon fill="#F1F1F1" points="863.7627,382.0508,998.2979,382.0508,1010.2979,394.0508,998.2979,406.0508,863.7627,406.0508,851.7627,394.0508,863.7627,382.0508" style="stroke:#181818;stroke-width:0.5;"/><text fill="#000000" font-family="sans-serif" font-size="11" lengthAdjust="spacing" textLength="13.4546" x="935.0303" y="417.4697">Ya</text><text fill="#000000" font-family="sans-serif" font-size="11" lengthAdjust="spacing" textLength="134.5352" x="863.7627" y="398.5518">Expired date &lt;= 7 hari lagi?</text><text fill="#000000" font-family="sans-serif" font-size="11" lengthAdjust="spacing" textLength="26.8984" x="1010.2979" y="391.6338">Tidak</text><rect fill="#F1F1F1" height="35.0938" rx="12.5" ry="12.5" style="stroke:#181818;stroke-width:0.5;" width="211.4316" x="825.3145" y="439.8867"/><text fill="#000000" font-family="sans-serif" font-size="12" lengthAdjust="spacing" textLength="191.4316" x="835.3145" y="462.3438">Catat untuk notifikasi (akan expired)</text><polygon fill="#F1F1F1" points="811.4236,295.2148,902.5334,295.2148,914.5334,307.2148,902.5334,319.2148,811.4236,319.2148,799.4236,307.2148,811.4236,295.2148" style="stroke:#181818;stroke-width:0.5;"/><text fill="#000000" font-family="sans-serif" font-size="11" lengthAdjust="spacing" textLength="19.5723" x="860.9785" y="330.6338">Ada</text><text fill="#000000" font-family="sans-serif" font-size="11" lengthAdjust="spacing" textLength="91.1099" x="811.4236" y="311.7158">Untuk setiap batch</text><text fill="#000000" font-family="sans-serif" font-size="11" lengthAdjust="spacing" textLength="36.0776" x="763.3459" y="304.7979">Selesai</text><rect fill="#F1F1F1" height="35.0938" rx="12.5" ry="12.5" style="stroke:#181818;stroke-width:0.5;" width="164.0762" x="774.9404" y="717.957"/><text fill="#000000" font-family="sans-serif" font-size="12" lengthAdjust="spacing" textLength="144.0762" x="784.9404" y="740.4141">Buat notifikasi alert expired</text><rect fill="#F1F1F1" height="35.0938" rx="12.5" ry="12.5" style="stroke:#181818;stroke-width:0.5;" width="243.4355" x="735.2607" y="788.0508"/><text fill="#000000" font-family="sans-serif" font-size="12" lengthAdjust="spacing" textLength="223.4355" x="745.2607" y="810.5078">Kirim ke user dengan permission inventori</text><polygon fill="#F1F1F1" points="774.7229,669.0391,939.2341,669.0391,951.2341,681.0391,939.2341,693.0391,774.7229,693.0391,762.7229,681.0391,774.7229,669.0391" style="stroke:#181818;stroke-width:0.5;"/><text fill="#000000" font-family="sans-serif" font-size="11" lengthAdjust="spacing" textLength="13.4546" x="860.9785" y="704.458">Ya</text><text fill="#000000" font-family="sans-serif" font-size="11" lengthAdjust="spacing" textLength="164.5112" x="774.7229" y="685.54">Ada bahan expired/akan expired?</text><text fill="#000000" font-family="sans-serif" font-size="11" lengthAdjust="spacing" textLength="26.8984" x="951.2341" y="678.6221">Tidak</text><polygon fill="#F1F1F1" points="856.9785,848.0625,868.9785,860.0625,856.9785,872.0625,844.9785,860.0625,856.9785,848.0625" style="stroke:#181818;stroke-width:0.5;"/><rect fill="#555555" height="6" rx="2.5" ry="2.5" style="stroke:#555555;stroke-width:1.0;" width="1072.1963" x="11" y="912.1914"/><rect fill="#F1F1F1" height="35.0938" rx="12.5" ry="12.5" style="stroke:#181818;stroke-width:0.5;" width="136.7598" x="479.4932" y="938.1914"/><text fill="#000000" font-family="sans-serif" font-size="12" lengthAdjust="spacing" textLength="116.7598" x="489.4932" y="960.6484">Log hasil pengecekan</text><ellipse cx="547.873" cy="1004.2852" fill="none" rx="11" ry="11" style="stroke:#222222;stroke-width:1.0;"/><ellipse cx="547.873" cy="1004.2852" fill="#222222" rx="6" ry="6" style="stroke:#222222;stroke-width:1.0;"/><line style="stroke:#181818;stroke-width:1.0;" x1="547.873" x2="547.873" y1="30" y2="50"/><polygon fill="#181818" points="543.873,40,547.873,50,551.873,40,547.873,44" style="stroke:#181818;stroke-width:1.0;"/><line style="stroke:#181818;stroke-width:1.0;" x1="339.9597" x2="339.9597" y1="169.9922" y2="204.9922"/><polygon fill="#181818" points="335.9597,194.9922,339.9597,204.9922,343.9597,194.9922,339.9597,198.9922" style="stroke:#181818;stroke-width:1.0;"/><line style="stroke:#181818;stroke-width:1.0;" x1="165.0176" x2="111.7061" y1="453.0156" y2="453.0156"/><line style="stroke:#181818;stroke-width:1.0;" x1="111.7061" x2="111.7061" y1="453.0156" y2="475.0156"/><polygon fill="#181818" points="107.7061,465.0156,111.7061,475.0156,115.7061,465.0156,111.7061,469.0156" style="stroke:#181818;stroke-width:1.0;"/><line style="stroke:#181818;stroke-width:1.0;" x1="235.7998" x2="289.1113" y1="453.0156" y2="453.0156"/><line style="stroke:#181818;stroke-width:1.0;" x1="289.1113" x2="289.1113" y1="453.0156" y2="475.0156"/><polygon fill="#181818" points="285.1113,465.0156,289.1113,475.0156,293.1113,465.0156,289.1113,469.0156" style="stroke:#181818;stroke-width:1.0;"/><line style="stroke:#181818;stroke-width:1.0;" x1="111.7061" x2="111.7061" y1="510.1094" y2="528.1094"/><line style="stroke:#181818;stroke-width:1.0;" x1="111.7061" x2="188.4087" y1="528.1094" y2="528.1094"/><polygon fill="#181818" points="178.4087,524.1094,188.4087,528.1094,178.4087,532.1094,182.4087,528.1094" style="stroke:#181818;stroke-width:1.0;"/><line style="stroke:#181818;stroke-width:1.0;" x1="289.1113" x2="289.1113" y1="510.1094" y2="528.1094"/><line style="stroke:#181818;stroke-width:1.0;" x1="289.1113" x2="212.4087" y1="528.1094" y2="528.1094"/><polygon fill="#181818" points="222.4087,524.1094,212.4087,528.1094,222.4087,532.1094,218.4087,528.1094" style="stroke:#181818;stroke-width:1.0;"/><line style="stroke:#181818;stroke-width:1.0;" x1="200.4087" x2="200.4087" y1="540.1094" y2="565.0742"/><polygon fill="#181818" points="196.4087,555.0742,200.4087,565.0742,204.4087,555.0742,200.4087,559.0742" style="stroke:#181818;stroke-width:1.0;"/><line style="stroke:#181818;stroke-width:1.0;" x1="282.1094" x2="200.4087" y1="419.0156" y2="419.0156"/><line style="stroke:#181818;stroke-width:1.0;" x1="200.4087" x2="200.4087" y1="419.0156" y2="441.0156"/><polygon fill="#181818" points="196.4087,431.0156,200.4087,441.0156,204.4087,431.0156,200.4087,435.0156" style="stroke:#181818;stroke-width:1.0;"/><line style="stroke:#181818;stroke-width:1.0;" x1="397.8101" x2="479.5107" y1="419.0156" y2="419.0156"/><line style="stroke:#181818;stroke-width:1.0;" x1="479.5107" x2="479.5107" y1="419.0156" y2="441.0156"/><polygon fill="#181818" points="475.5107,431.0156,479.5107,441.0156,483.5107,431.0156,479.5107,435.0156" style="stroke:#181818;stroke-width:1.0;"/><line style="stroke:#181818;stroke-width:1.0;" x1="200.4087" x2="200.4087" y1="600.168" y2="618.168"/><line style="stroke:#181818;stroke-width:1.0;" x1="200.4087" x2="327.9597" y1="618.168" y2="618.168"/><polygon fill="#181818" points="317.9597,614.168,327.9597,618.168,317.9597,622.168,321.9597,618.168" style="stroke:#181818;stroke-width:1.0;"/><line style="stroke:#181818;stroke-width:1.0;" x1="479.5107" x2="479.5107" y1="476.1094" y2="618.168"/><line style="stroke:#181818;stroke-width:1.0;" x1="479.5107" x2="351.9597" y1="618.168" y2="618.168"/><polygon fill="#181818" points="361.9597,614.168,351.9597,618.168,361.9597,622.168,357.9597,618.168" style="stroke:#181818;stroke-width:1.0;"/><line style="stroke:#181818;stroke-width:1.0;" x1="339.9597" x2="339.9597" y1="372.0156" y2="407.0156"/><polygon fill="#181818" points="335.9597,397.0156,339.9597,407.0156,343.9597,397.0156,339.9597,401.0156" style="stroke:#181818;stroke-width:1.0;"/><line style="stroke:#181818;stroke-width:1.0;" x1="339.9597" x2="339.9597" y1="299.0859" y2="336.9219"/><polygon fill="#181818" points="335.9597,326.9219,339.9597,336.9219,343.9597,326.9219,339.9597,330.9219" style="stroke:#181818;stroke-width:1.0;"/><line style="stroke:#181818;stroke-width:1.0;" x1="339.9597" x2="339.9597" y1="630.168" y2="642.168"/><line style="stroke:#181818;stroke-width:1.0;" x1="339.9597" x2="575.2109" y1="642.168" y2="642.168"/><polygon fill="#181818" points="571.2109,479.6445,575.2109,469.6445,579.2109,479.6445,575.2109,475.6445" style="stroke:#181818;stroke-width:1.0;"/><line style="stroke:#181818;stroke-width:1.0;" x1="575.2109" x2="575.2109" y1="287.0859" y2="642.168"/><line style="stroke:#181818;stroke-width:1.0;" x1="575.2109" x2="399.3542" y1="287.0859" y2="287.0859"/><polygon fill="#181818" points="409.3542,283.0859,399.3542,287.0859,409.3542,291.0859,405.3542,287.0859" style="stroke:#181818;stroke-width:1.0;"/><line style="stroke:#181818;stroke-width:1.0;" x1="280.5652" x2="27" y1="287.0859" y2="287.0859"/><polygon fill="#181818" points="23,465.6445,27,475.6445,31,465.6445,27,469.6445" style="stroke:#181818;stroke-width:1.0;"/><line style="stroke:#181818;stroke-width:1.0;" x1="27" x2="27" y1="287.0859" y2="654.168"/><line style="stroke:#181818;stroke-width:1.0;" x1="27" x2="339.9597" y1="654.168" y2="654.168"/><line style="stroke:#181818;stroke-width:1.0;" x1="339.9597" x2="339.9597" y1="654.168" y2="689.168"/><polygon fill="#181818" points="335.9597,679.168,339.9597,689.168,343.9597,679.168,339.9597,683.168" style="stroke:#181818;stroke-width:1.0;"/><line style="stroke:#181818;stroke-width:1.0;" x1="339.9597" x2="339.9597" y1="240.0859" y2="275.0859"/><polygon fill="#181818" points="335.9597,265.0859,339.9597,275.0859,343.9597,265.0859,339.9597,269.0859" style="stroke:#181818;stroke-width:1.0;"/><line style="stroke:#181818;stroke-width:1.0;" x1="339.9597" x2="339.9597" y1="773.1797" y2="808.1797"/><polygon fill="#181818" points="335.9597,798.1797,339.9597,808.1797,343.9597,798.1797,339.9597,802.1797" style="stroke:#181818;stroke-width:1.0;"/><line style="stroke:#181818;stroke-width:1.0;" x1="339.9597" x2="339.9597" y1="713.168" y2="738.0859"/><polygon fill="#181818" points="335.9597,728.0859,339.9597,738.0859,343.9597,728.0859,339.9597,732.0859" style="stroke:#181818;stroke-width:1.0;"/><line style="stroke:#181818;stroke-width:1.0;" x1="411.8958" x2="471.6775" y1="701.168" y2="701.168"/><polygon fill="#181818" points="467.6775,780.6797,471.6775,790.6797,475.6775,780.6797,471.6775,784.6797" style="stroke:#181818;stroke-width:1.0;"/><line style="stroke:#181818;stroke-width:1.0;" x1="471.6775" x2="471.6775" y1="701.168" y2="880.1914"/><line style="stroke:#181818;stroke-width:1.0;" x1="471.6775" x2="351.9597" y1="880.1914" y2="880.1914"/><polygon fill="#181818" points="361.9597,876.1914,351.9597,880.1914,361.9597,884.1914,357.9597,880.1914" style="stroke:#181818;stroke-width:1.0;"/><line style="stroke:#181818;stroke-width:1.0;" x1="339.9597" x2="339.9597" y1="843.2734" y2="868.1914"/><polygon fill="#181818" points="335.9597,858.1914,339.9597,868.1914,343.9597,858.1914,339.9597,862.1914" style="stroke:#181818;stroke-width:1.0;"/><line style="stroke:#181818;stroke-width:1.0;" x1="856.9785" x2="856.9785" y1="190.1211" y2="225.1211"/><polygon fill="#181818" points="852.9785,215.1211,856.9785,225.1211,860.9785,215.1211,856.9785,219.1211" style="stroke:#181818;stroke-width:1.0;"/><line style="stroke:#181818;stroke-width:1.0;" x1="716.2627" x2="716.2627" y1="474.9805" y2="509.9805"/><polygon fill="#181818" points="712.2627,499.9805,716.2627,509.9805,720.2627,499.9805,716.2627,503.9805" style="stroke:#181818;stroke-width:1.0;"/><line style="stroke:#181818;stroke-width:1.0;" x1="716.2627" x2="716.2627" y1="406.0508" y2="439.8867"/><polygon fill="#181818" points="712.2627,429.8867,716.2627,439.8867,720.2627,429.8867,716.2627,433.8867" style="stroke:#181818;stroke-width:1.0;"/><line style="stroke:#181818;stroke-width:1.0;" x1="716.2627" x2="716.2627" y1="545.0742" y2="610.0391"/><polygon fill="#181818" points="712.2627,600.0391,716.2627,610.0391,720.2627,600.0391,716.2627,604.0391" style="stroke:#181818;stroke-width:1.0;"/><line style="stroke:#181818;stroke-width:1.0;" x1="931.0303" x2="931.0303" y1="406.0508" y2="439.8867"/><polygon fill="#181818" points="927.0303,429.8867,931.0303,439.8867,935.0303,429.8867,931.0303,433.8867" style="stroke:#181818;stroke-width:1.0;"/><line style="stroke:#181818;stroke-width:1.0;" x1="931.0303" x2="931.0303" y1="474.9805" y2="610.0391"/><polygon fill="#181818" points="927.0303,600.0391,931.0303,610.0391,935.0303,600.0391,931.0303,604.0391" style="stroke:#181818;stroke-width:1.0;"/><line style="stroke:#181818;stroke-width:1.0;" x1="788.7976" x2="851.7627" y1="394.0508" y2="394.0508"/><polygon fill="#181818" points="841.7627,390.0508,851.7627,394.0508,841.7627,398.0508,845.7627,394.0508" style="stroke:#181818;stroke-width:1.0;"/><line style="stroke:#181818;stroke-width:1.0;" x1="856.9785" x2="856.9785" y1="319.2148" y2="357.0508"/><line style="stroke:#181818;stroke-width:1.0;" x1="856.9785" x2="716.2627" y1="357.0508" y2="357.0508"/><line style="stroke:#181818;stroke-width:1.0;" x1="716.2627" x2="716.2627" y1="357.0508" y2="382.0508"/><polygon fill="#181818" points="712.2627,372.0508,716.2627,382.0508,720.2627,372.0508,716.2627,376.0508" style="stroke:#181818;stroke-width:1.0;"/><line style="stroke:#181818;stroke-width:1.0;" x1="1010.2979" x2="1051.1963" y1="394.0508" y2="394.0508"/><line style="stroke:#181818;stroke-width:1.0;" x1="1051.1963" x2="1051.1963" y1="394.0508" y2="610.0391"/><polygon fill="#181818" points="1047.1963,600.0391,1051.1963,610.0391,1055.1963,600.0391,1051.1963,604.0391" style="stroke:#181818;stroke-width:1.0;"/><line style="stroke:#181818;stroke-width:1.0;" x1="716.2627" x2="1051.1963" y1="610.0391" y2="610.0391"/><line style="stroke:#181818;stroke-width:1.0;" x1="856.9785" x2="856.9785" y1="610.0391" y2="622.0391"/><line style="stroke:#181818;stroke-width:1.0;" x1="856.9785" x2="1069.1963" y1="622.0391" y2="622.0391"/><polygon fill="#181818" points="1065.1963,479.6445,1069.1963,469.6445,1073.1963,479.6445,1069.1963,475.6445" style="stroke:#181818;stroke-width:1.0;"/><line style="stroke:#181818;stroke-width:1.0;" x1="1069.1963" x2="1069.1963" y1="307.2148" y2="622.0391"/><line style="stroke:#181818;stroke-width:1.0;" x1="1069.1963" x2="914.5334" y1="307.2148" y2="307.2148"/><polygon fill="#181818" points="924.5334,303.2148,914.5334,307.2148,924.5334,311.2148,920.5334,307.2148" style="stroke:#181818;stroke-width:1.0;"/><line style="stroke:#181818;stroke-width:1.0;" x1="799.4236" x2="615.2109" y1="307.2148" y2="307.2148"/><polygon fill="#181818" points="611.2109,465.6445,615.2109,475.6445,619.2109,465.6445,615.2109,469.6445" style="stroke:#181818;stroke-width:1.0;"/><line style="stroke:#181818;stroke-width:1.0;" x1="615.2109" x2="615.2109" y1="307.2148" y2="634.0391"/><line style="stroke:#181818;stroke-width:1.0;" x1="615.2109" x2="856.9785" y1="634.0391" y2="634.0391"/><line style="stroke:#181818;stroke-width:1.0;" x1="856.9785" x2="856.9785" y1="634.0391" y2="669.0391"/><polygon fill="#181818" points="852.9785,659.0391,856.9785,669.0391,860.9785,659.0391,856.9785,663.0391" style="stroke:#181818;stroke-width:1.0;"/><line style="stroke:#181818;stroke-width:1.0;" x1="856.9785" x2="856.9785" y1="260.2148" y2="295.2148"/><polygon fill="#181818" points="852.9785,285.2148,856.9785,295.2148,860.9785,285.2148,856.9785,289.2148" style="stroke:#181818;stroke-width:1.0;"/><line style="stroke:#181818;stroke-width:1.0;" x1="856.9785" x2="856.9785" y1="753.0508" y2="788.0508"/><polygon fill="#181818" points="852.9785,778.0508,856.9785,788.0508,860.9785,778.0508,856.9785,782.0508" style="stroke:#181818;stroke-width:1.0;"/><line style="stroke:#181818;stroke-width:1.0;" x1="856.9785" x2="856.9785" y1="693.0391" y2="717.957"/><polygon fill="#181818" points="852.9785,707.957,856.9785,717.957,860.9785,707.957,856.9785,711.957" style="stroke:#181818;stroke-width:1.0;"/><line style="stroke:#181818;stroke-width:1.0;" x1="951.2341" x2="988.6963" y1="681.0391" y2="681.0391"/><polygon fill="#181818" points="984.6963,760.5508,988.6963,770.5508,992.6963,760.5508,988.6963,764.5508" style="stroke:#181818;stroke-width:1.0;"/><line style="stroke:#181818;stroke-width:1.0;" x1="988.6963" x2="988.6963" y1="681.0391" y2="860.0625"/><line style="stroke:#181818;stroke-width:1.0;" x1="988.6963" x2="868.9785" y1="860.0625" y2="860.0625"/><polygon fill="#181818" points="878.9785,856.0625,868.9785,860.0625,878.9785,864.0625,874.9785,860.0625" style="stroke:#181818;stroke-width:1.0;"/><line style="stroke:#181818;stroke-width:1.0;" x1="856.9785" x2="856.9785" y1="823.1445" y2="848.0625"/><polygon fill="#181818" points="852.9785,838.0625,856.9785,848.0625,860.9785,838.0625,856.9785,842.0625" style="stroke:#181818;stroke-width:1.0;"/><line style="stroke:#181818;stroke-width:1.0;" x1="339.9597" x2="339.9597" y1="114.8984" y2="134.8984"/><polygon fill="#181818" points="335.9597,124.8984,339.9597,134.8984,343.9597,124.8984,339.9597,128.8984" style="stroke:#181818;stroke-width:1.0;"/><line style="stroke:#181818;stroke-width:1.0;" x1="856.9785" x2="856.9785" y1="114.8984" y2="155.0273"/><polygon fill="#181818" points="852.9785,145.0273,856.9785,155.0273,860.9785,145.0273,856.9785,149.0273" style="stroke:#181818;stroke-width:1.0;"/><line style="stroke:#181818;stroke-width:1.0;" x1="339.9597" x2="339.9597" y1="892.1914" y2="912.1914"/><polygon fill="#181818" points="335.9597,902.1914,339.9597,912.1914,343.9597,902.1914,339.9597,906.1914" style="stroke:#181818;stroke-width:1.0;"/><line style="stroke:#181818;stroke-width:1.0;" x1="856.9785" x2="856.9785" y1="872.0625" y2="912.1914"/><polygon fill="#181818" points="852.9785,902.1914,856.9785,912.1914,860.9785,902.1914,856.9785,906.1914" style="stroke:#181818;stroke-width:1.0;"/><line style="stroke:#181818;stroke-width:1.0;" x1="547.873" x2="547.873" y1="85.0938" y2="108.8984"/><polygon fill="#181818" points="543.873,98.8984,547.873,108.8984,551.873,98.8984,547.873,102.8984" style="stroke:#181818;stroke-width:1.0;"/><line style="stroke:#181818;stroke-width:1.0;" x1="547.873" x2="547.873" y1="918.1914" y2="938.1914"/><polygon fill="#181818" points="543.873,928.1914,547.873,938.1914,551.873,928.1914,547.873,932.1914" style="stroke:#181818;stroke-width:1.0;"/><line style="stroke:#181818;stroke-width:1.0;" x1="547.873" x2="547.873" y1="973.2852" y2="993.2852"/><polygon fill="#181818" points="543.873,983.2852,547.873,993.2852,551.873,983.2852,547.873,987.2852" style="stroke:#181818;stroke-width:1.0;"/><!--SRC=[hLJBRjj03BphAtYqJlMjWTIWw2E0WJI7micXHyPBIUnAky8- -W3oyQLMhYKxSeqKEKaGPuV3uMYVjkm3TR3QxXfIiIMNFsK-e0jPSKVcExPeD1hm-xA2dUqwDAhCZ0q4ZkicP02VUO9IOEoXGSTIwAEEBQolYlKw8wDWE9LbbNLQYW13avfsfC47gy4919iobSRwrqZkDpnY8yoe0rTZyMV3BS7gmOIe_tPCe1pOm-g3mZpX4iU6GpGr11km7Vie4IVu85FvyW0yl70bXWouTzTmnuQxsBtF8JHaOFLjndo4lORrML2IyT0h5Cl4tH1z0RVMMrENHpXglKnrpmhrPO8DTZqxUJooFw4nYgkZByKdb5CGar-o0wvOe-VfsDdEfrtloNbIZBEZXsxojb_CbbhooFcqoS4dMSj-bRDjBvfMV8mYTn8AAD4CpqEIiBVik0DD43qvK98ewT2JwzXxjWRO_20JhDkF-spKSO0KIi0QsPn4SvHClyHjKalXJ3cw74-1BSHpCEPcv8Raj8HkC-HJWdSsKCTR6HKMS3EN-ABLBubuc_vXQB7-XuvbSbYXdYpBByJiVmAqftupx_EI9D6fLQ-Lek6IIzTRLdonjLZekHMQCKfeIhbTRP_z0G00]--></g></svg>