<svg xmlns="http://www.w3.org/2000/svg" xmlns:xlink="http://www.w3.org/1999/xlink" contentStyleType="text/css" height="745px" preserveAspectRatio="none" style="width:2009px;height:745px;background:#FFFFFF;" version="1.1" viewBox="0 0 2009 745" width="2009px" zoomAndPan="magnify"><defs/><g><rect fill="none" height="22.6406" style="stroke:none;stroke-width:1.0;" width="1976.4512" x="15" y="12.4551"/><ellipse cx="441.8613" cy="50.0957" fill="#222222" rx="10" ry="10" style="stroke:#222222;stroke-width:1.0;"/><rect fill="#F1F1F1" height="35.0938" rx="12.5" ry="12.5" style="stroke:#181818;stroke-width:0.5;" width="211.4375" x="336.1426" y="80.0957"/><text fill="#000000" font-family="sans-serif" font-size="12" lengthAdjust="spacing" textLength="191.4375" x="346.1426" y="102.5527">Membuka halaman Kategori Produk</text><polygon fill="#F1F1F1" points="94.5869,135.1895,121.4854,135.1895,133.4854,147.1895,121.4854,159.1895,94.5869,159.1895,82.5869,147.1895,94.5869,135.1895" style="stroke:#181818;stroke-width:0.5;"/><text fill="#000000" font-family="sans-serif" font-size="11" lengthAdjust="spacing" textLength="40.353" x="112.0361" y="170.6084">Tambah</text><text fill="#000000" font-family="sans-serif" font-size="11" lengthAdjust="spacing" textLength="26.8984" x="94.5869" y="151.6904">Aksi?</text><rect fill="#F1F1F1" height="35.0938" rx="12.5" ry="12.5" style="stroke:#181818;stroke-width:0.5;" width="174.0723" x="21" y="192.1084"/><text fill="#000000" font-family="sans-serif" font-size="12" lengthAdjust="spacing" textLength="154.0723" x="31" y="214.5654">Klik tombol Tambah Kategori</text><rect fill="#F1F1F1" height="35.0938" rx="12.5" ry="12.5" style="stroke:#181818;stroke-width:0.5;" width="140.7266" x="37.6729" y="247.2021"/><text fill="#000000" font-family="sans-serif" font-size="12" lengthAdjust="spacing" textLength="120.7266" x="47.6729" y="269.6592">Mengisi nama kategori</text><rect fill="#F1F1F1" height="35.0938" rx="12.5" ry="12.5" style="stroke:#181818;stroke-width:0.5;" width="168.0605" x="24.0059" y="317.2959"/><text fill="#000000" font-family="sans-serif" font-size="12" lengthAdjust="spacing" textLength="148.0605" x="34.0059" y="339.7529">Mengisi deskripsi (opsional)</text><rect fill="#F1F1F1" height="35.0938" rx="12.5" ry="12.5" style="stroke:#181818;stroke-width:0.5;" width="128.0527" x="44.0098" y="387.3896"/><text fill="#000000" font-family="sans-serif" font-size="12" lengthAdjust="spacing" textLength="108.0527" x="54.0098" y="409.8467">Menyimpan kategori</text><polygon fill="#F1F1F1" points="290.6709,135.1895,317.5693,135.1895,329.5693,147.1895,317.5693,159.1895,290.6709,159.1895,278.6709,147.1895,290.6709,135.1895" style="stroke:#181818;stroke-width:0.5;"/><text fill="#000000" font-family="sans-serif" font-size="11" lengthAdjust="spacing" textLength="18.9546" x="308.1201" y="170.6084">Edit</text><text fill="#000000" font-family="sans-serif" font-size="11" lengthAdjust="spacing" textLength="26.8984" x="290.6709" y="151.6904">Aksi?</text><rect fill="#F1F1F1" height="35.0938" rx="12.5" ry="12.5" style="stroke:#181818;stroke-width:0.5;" width="198.0957" x="205.0723" y="192.1084"/><text fill="#000000" font-family="sans-serif" font-size="12" lengthAdjust="spacing" textLength="178.0957" x="215.0723" y="214.5654">Memilih kategori yang akan diedit</text><rect fill="#F1F1F1" height="35.0938" rx="12.5" ry="12.5" style="stroke:#181818;stroke-width:0.5;" width="149.4277" x="229.4063" y="247.2021"/><text fill="#000000" font-family="sans-serif" font-size="12" lengthAdjust="spacing" textLength="129.4277" x="239.4063" y="269.6592">Mengubah data kategori</text><rect fill="#F1F1F1" height="35.0938" rx="12.5" ry="12.5" style="stroke:#181818;stroke-width:0.5;" width="142.748" x="232.7461" y="317.2959"/><text fill="#000000" font-family="sans-serif" font-size="12" lengthAdjust="spacing" textLength="122.748" x="242.7461" y="339.7529">Menyimpan perubahan</text><polygon fill="#F1F1F1" points="533.4463,135.1895,560.3447,135.1895,572.3447,147.1895,560.3447,159.1895,533.4463,159.1895,521.4463,147.1895,533.4463,135.1895" style="stroke:#181818;stroke-width:0.5;"/><text fill="#000000" font-family="sans-serif" font-size="11" lengthAdjust="spacing" textLength="61.7622" x="550.8955" y="170.6084">Lihat Produk</text><text fill="#000000" font-family="sans-serif" font-size="11" lengthAdjust="spacing" textLength="26.8984" x="533.4463" y="151.6904">Aksi?</text><text fill="#000000" font-family="sans-serif" font-size="11" lengthAdjust="spacing" textLength="31.7969" x="572.3447" y="144.7725">Hapus</text><rect fill="#F1F1F1" height="35.0938" rx="12.5" ry="12.5" style="stroke:#181818;stroke-width:0.5;" width="107.3633" x="493.2139" y="192.1084"/><text fill="#000000" font-family="sans-serif" font-size="12" lengthAdjust="spacing" textLength="87.3633" x="503.2139" y="214.5654">Memilih kategori</text><rect fill="#F1F1F1" height="35.0938" rx="12.5" ry="12.5" style="stroke:#181818;stroke-width:0.5;" width="211.4434" x="622.6577" y="278.3311"/><text fill="#000000" font-family="sans-serif" font-size="12" lengthAdjust="spacing" textLength="191.4434" x="632.6577" y="300.7881">Memilih kategori yang akan dihapus</text><rect fill="#F1F1F1" height="35.0938" rx="12.5" ry="12.5" style="stroke:#181818;stroke-width:0.5;" width="152.7559" x="652.0015" y="348.4248"/><text fill="#000000" font-family="sans-serif" font-size="12" lengthAdjust="spacing" textLength="132.7559" x="662.0015" y="370.8818">Konfirmasi penghapusan</text><line style="stroke:#000000;stroke-width:1.5;" x1="15" x2="15" y1="12.4551" y2="733.7295"/><rect fill="#F1F1F1" height="35.0938" rx="12.5" ry="12.5" style="stroke:#181818;stroke-width:0.5;" width="141.4004" x="942.4702" y="457.4834"/><text fill="#000000" font-family="sans-serif" font-size="12" lengthAdjust="spacing" textLength="121.4004" x="952.4702" y="479.9404">Validasi nama kategori</text><polygon fill="#F1F1F1" points="968.2224,517.542,1058.1184,517.542,1070.1184,529.542,1058.1184,541.542,968.2224,541.542,956.2224,529.542,968.2224,517.542" style="stroke:#181818;stroke-width:0.5;"/><text fill="#000000" font-family="sans-serif" font-size="11" lengthAdjust="spacing" textLength="89.896" x="968.2224" y="534.043">Nama sudah ada?</text><text fill="#000000" font-family="sans-serif" font-size="11" lengthAdjust="spacing" textLength="13.4546" x="942.7678" y="527.125">Ya</text><text fill="#000000" font-family="sans-serif" font-size="11" lengthAdjust="spacing" textLength="26.8984" x="1070.1184" y="527.125">Tidak</text><rect fill="#F1F1F1" height="35.0938" rx="12.5" ry="12.5" style="stroke:#181818;stroke-width:0.5;" width="156.0664" x="844.1011" y="551.542"/><text fill="#000000" font-family="sans-serif" font-size="12" lengthAdjust="spacing" textLength="136.0664" x="854.1011" y="573.999">Menampilkan pesan error</text><rect fill="#F1F1F1" height="35.0938" rx="12.5" ry="12.5" style="stroke:#181818;stroke-width:0.5;" width="150.7461" x="1028.8335" y="551.542"/><text fill="#000000" font-family="sans-serif" font-size="12" lengthAdjust="spacing" textLength="130.7461" x="1038.8335" y="573.999">Menyimpan ke database</text><rect fill="#F1F1F1" height="35.0938" rx="12.5" ry="12.5" style="stroke:#181818;stroke-width:0.5;" width="168.0781" x="1020.1675" y="606.6357"/><text fill="#000000" font-family="sans-serif" font-size="12" lengthAdjust="spacing" textLength="148.0781" x="1030.1675" y="629.0928">Menampilkan pesan sukses</text><polygon fill="#F1F1F1" points="1013.1704,647.7295,1025.1704,659.7295,1013.1704,671.7295,1001.1704,659.7295,1013.1704,647.7295" style="stroke:#181818;stroke-width:0.5;"/><rect fill="#F1F1F1" height="35.0938" rx="12.5" ry="12.5" style="stroke:#181818;stroke-width:0.5;" width="88.7129" x="1237.9282" y="387.3896"/><text fill="#000000" font-family="sans-serif" font-size="12" lengthAdjust="spacing" textLength="68.7129" x="1247.9282" y="409.8467">Validasi data</text><rect fill="#F1F1F1" height="35.0938" rx="12.5" ry="12.5" style="stroke:#181818;stroke-width:0.5;" width="131.4102" x="1216.5796" y="457.4834"/><text fill="#000000" font-family="sans-serif" font-size="12" lengthAdjust="spacing" textLength="111.4102" x="1226.5796" y="479.9404">Update data kategori</text><rect fill="#F1F1F1" height="35.0938" rx="12.5" ry="12.5" style="stroke:#181818;stroke-width:0.5;" width="168.0781" x="1198.2456" y="517.542"/><text fill="#000000" font-family="sans-serif" font-size="12" lengthAdjust="spacing" textLength="148.0781" x="1208.2456" y="539.999">Menampilkan pesan sukses</text><rect fill="#F1F1F1" height="35.0938" rx="12.5" ry="12.5" style="stroke:#181818;stroke-width:0.5;" width="247.4551" x="1376.3237" y="247.2021"/><text fill="#000000" font-family="sans-serif" font-size="12" lengthAdjust="spacing" textLength="227.4551" x="1386.3237" y="269.6592">Menampilkan daftar produk dalam kategori</text><rect fill="#F1F1F1" height="35.0938" rx="12.5" ry="12.5" style="stroke:#181818;stroke-width:0.5;" width="170.0762" x="1415.0132" y="317.2959"/><text fill="#000000" font-family="sans-serif" font-size="12" lengthAdjust="spacing" textLength="150.0762" x="1425.0132" y="339.7529">Menampilkan jumlah produk</text><polygon fill="#F1F1F1" points="1745.5918,418.5186,1872.1455,418.5186,1884.1455,430.5186,1872.1455,442.5186,1745.5918,442.5186,1733.5918,430.5186,1745.5918,418.5186" style="stroke:#181818;stroke-width:0.5;"/><text fill="#000000" font-family="sans-serif" font-size="11" lengthAdjust="spacing" textLength="126.5537" x="1745.5918" y="435.0195">Kategori memiliki produk?</text><text fill="#000000" font-family="sans-serif" font-size="11" lengthAdjust="spacing" textLength="13.4546" x="1720.1372" y="428.1016">Ya</text><text fill="#000000" font-family="sans-serif" font-size="11" lengthAdjust="spacing" textLength="26.8984" x="1884.1455" y="428.1016">Tidak</text><rect fill="#F1F1F1" height="35.0938" rx="12.5" ry="12.5" style="stroke:#181818;stroke-width:0.5;" width="151.4141" x="1640.1187" y="452.5186"/><text fill="#000000" font-family="sans-serif" font-size="12" lengthAdjust="spacing" textLength="131.4141" x="1650.1187" y="474.9756">Menampilkan peringatan</text><rect fill="#F1F1F1" height="35.0938" rx="12.5" ry="12.5" style="stroke:#181818;stroke-width:0.5;" width="164.0938" x="1633.7788" y="512.5771"/><text fill="#000000" font-family="sans-serif" font-size="12" lengthAdjust="spacing" textLength="144.0938" x="1643.7788" y="535.0342">Kategori tidak bisa dihapus</text><rect fill="#F1F1F1" height="35.0938" rx="12.5" ry="12.5" style="stroke:#181818;stroke-width:0.5;" width="100.7129" x="1851.5552" y="452.5186"/><text fill="#000000" font-family="sans-serif" font-size="12" lengthAdjust="spacing" textLength="80.7129" x="1861.5552" y="474.9756">Hapus kategori</text><rect fill="#F1F1F1" height="35.0938" rx="12.5" ry="12.5" style="stroke:#181818;stroke-width:0.5;" width="168.0781" x="1817.8726" y="512.5771"/><text fill="#000000" font-family="sans-serif" font-size="12" lengthAdjust="spacing" textLength="148.0781" x="1827.8726" y="535.0342">Menampilkan pesan sukses</text><polygon fill="#F1F1F1" points="1808.8687,553.6709,1820.8687,565.6709,1808.8687,577.6709,1796.8687,565.6709,1808.8687,553.6709" style="stroke:#181818;stroke-width:0.5;"/><ellipse cx="1395.0171" cy="722.7295" fill="none" rx="11" ry="11" style="stroke:#222222;stroke-width:1.0;"/><ellipse cx="1395.0171" cy="722.7295" fill="#222222" rx="6" ry="6" style="stroke:#222222;stroke-width:1.0;"/><line style="stroke:#000000;stroke-width:1.5;" x1="838.1011" x2="838.1011" y1="12.4551" y2="733.7295"/><line style="stroke:#000000;stroke-width:1.5;" x1="1989.9507" x2="1989.9507" y1="12.4551" y2="733.7295"/><line style="stroke:#181818;stroke-width:1.0;" x1="441.8613" x2="441.8613" y1="60.0957" y2="80.0957"/><polygon fill="#181818" points="437.8613,70.0957,441.8613,80.0957,445.8613,70.0957,441.8613,74.0957" style="stroke:#181818;stroke-width:1.0;"/><line style="stroke:#181818;stroke-width:1.0;" x1="108.0361" x2="108.0361" y1="227.2021" y2="247.2021"/><polygon fill="#181818" points="104.0361,237.2021,108.0361,247.2021,112.0361,237.2021,108.0361,241.2021" style="stroke:#181818;stroke-width:1.0;"/><line style="stroke:#181818;stroke-width:1.0;" x1="108.0361" x2="108.0361" y1="282.2959" y2="317.2959"/><polygon fill="#181818" points="104.0361,307.2959,108.0361,317.2959,112.0361,307.2959,108.0361,311.2959" style="stroke:#181818;stroke-width:1.0;"/><line style="stroke:#181818;stroke-width:1.0;" x1="108.0361" x2="108.0361" y1="352.3896" y2="387.3896"/><polygon fill="#181818" points="104.0361,377.3896,108.0361,387.3896,112.0361,377.3896,108.0361,381.3896" style="stroke:#181818;stroke-width:1.0;"/><line style="stroke:#181818;stroke-width:1.0;" x1="304.1201" x2="304.1201" y1="227.2021" y2="247.2021"/><polygon fill="#181818" points="300.1201,237.2021,304.1201,247.2021,308.1201,237.2021,304.1201,241.2021" style="stroke:#181818;stroke-width:1.0;"/><line style="stroke:#181818;stroke-width:1.0;" x1="304.1201" x2="304.1201" y1="282.2959" y2="317.2959"/><polygon fill="#181818" points="300.1201,307.2959,304.1201,317.2959,308.1201,307.2959,304.1201,311.2959" style="stroke:#181818;stroke-width:1.0;"/><line style="stroke:#181818;stroke-width:1.0;" x1="728.3794" x2="728.3794" y1="313.4248" y2="348.4248"/><polygon fill="#181818" points="724.3794,338.4248,728.3794,348.4248,732.3794,338.4248,728.3794,342.4248" style="stroke:#181818;stroke-width:1.0;"/><line style="stroke:#181818;stroke-width:1.0;" x1="108.0361" x2="108.0361" y1="159.1895" y2="192.1084"/><polygon fill="#181818" points="104.0361,182.1084,108.0361,192.1084,112.0361,182.1084,108.0361,186.1084" style="stroke:#181818;stroke-width:1.0;"/><line style="stroke:#181818;stroke-width:1.0;" x1="304.1201" x2="304.1201" y1="159.1895" y2="192.1084"/><polygon fill="#181818" points="300.1201,182.1084,304.1201,192.1084,308.1201,182.1084,304.1201,186.1084" style="stroke:#181818;stroke-width:1.0;"/><line style="stroke:#181818;stroke-width:1.0;" x1="546.8955" x2="546.8955" y1="159.1895" y2="192.1084"/><polygon fill="#181818" points="542.8955,182.1084,546.8955,192.1084,550.8955,182.1084,546.8955,186.1084" style="stroke:#181818;stroke-width:1.0;"/><line style="stroke:#181818;stroke-width:1.0;" x1="133.4854" x2="278.6709" y1="147.1895" y2="147.1895"/><polygon fill="#181818" points="268.6709,143.1895,278.6709,147.1895,268.6709,151.1895,272.6709,147.1895" style="stroke:#181818;stroke-width:1.0;"/><line style="stroke:#181818;stroke-width:1.0;" x1="329.5693" x2="521.4463" y1="147.1895" y2="147.1895"/><polygon fill="#181818" points="511.4463,143.1895,521.4463,147.1895,511.4463,151.1895,515.4463,147.1895" style="stroke:#181818;stroke-width:1.0;"/><line style="stroke:#181818;stroke-width:1.0;" x1="441.8613" x2="441.8613" y1="115.1895" y2="120.1895"/><line style="stroke:#181818;stroke-width:1.0;" x1="441.8613" x2="108.0361" y1="120.1895" y2="120.1895"/><line style="stroke:#181818;stroke-width:1.0;" x1="108.0361" x2="108.0361" y1="120.1895" y2="135.1895"/><polygon fill="#181818" points="104.0361,125.1895,108.0361,135.1895,112.0361,125.1895,108.0361,129.1895" style="stroke:#181818;stroke-width:1.0;"/><line style="stroke:#181818;stroke-width:1.0;" x1="572.3447" x2="728.3794" y1="147.1895" y2="147.1895"/><line style="stroke:#181818;stroke-width:1.0;" x1="728.3794" x2="728.3794" y1="147.1895" y2="278.3311"/><polygon fill="#181818" points="724.3794,268.3311,728.3794,278.3311,732.3794,268.3311,728.3794,272.3311" style="stroke:#181818;stroke-width:1.0;"/><line style="stroke:#181818;stroke-width:1.0;" x1="1104.2065" x2="1104.2065" y1="586.6357" y2="606.6357"/><polygon fill="#181818" points="1100.2065,596.6357,1104.2065,606.6357,1108.2065,596.6357,1104.2065,600.6357" style="stroke:#181818;stroke-width:1.0;"/><line style="stroke:#181818;stroke-width:1.0;" x1="956.2224" x2="922.1343" y1="529.542" y2="529.542"/><line style="stroke:#181818;stroke-width:1.0;" x1="922.1343" x2="922.1343" y1="529.542" y2="551.542"/><polygon fill="#181818" points="918.1343,541.542,922.1343,551.542,926.1343,541.542,922.1343,545.542" style="stroke:#181818;stroke-width:1.0;"/><line style="stroke:#181818;stroke-width:1.0;" x1="1070.1184" x2="1104.2065" y1="529.542" y2="529.542"/><line style="stroke:#181818;stroke-width:1.0;" x1="1104.2065" x2="1104.2065" y1="529.542" y2="551.542"/><polygon fill="#181818" points="1100.2065,541.542,1104.2065,551.542,1108.2065,541.542,1104.2065,545.542" style="stroke:#181818;stroke-width:1.0;"/><line style="stroke:#181818;stroke-width:1.0;" x1="922.1343" x2="922.1343" y1="586.6357" y2="659.7295"/><line style="stroke:#181818;stroke-width:1.0;" x1="922.1343" x2="1001.1704" y1="659.7295" y2="659.7295"/><polygon fill="#181818" points="991.1704,655.7295,1001.1704,659.7295,991.1704,663.7295,995.1704,659.7295" style="stroke:#181818;stroke-width:1.0;"/><line style="stroke:#181818;stroke-width:1.0;" x1="1104.2065" x2="1104.2065" y1="641.7295" y2="659.7295"/><line style="stroke:#181818;stroke-width:1.0;" x1="1104.2065" x2="1025.1704" y1="659.7295" y2="659.7295"/><polygon fill="#181818" points="1035.1704,655.7295,1025.1704,659.7295,1035.1704,663.7295,1031.1704,659.7295" style="stroke:#181818;stroke-width:1.0;"/><line style="stroke:#181818;stroke-width:1.0;" x1="1013.1704" x2="1013.1704" y1="492.5771" y2="517.542"/><polygon fill="#181818" points="1009.1704,507.542,1013.1704,517.542,1017.1704,507.542,1013.1704,511.542" style="stroke:#181818;stroke-width:1.0;"/><line style="stroke:#181818;stroke-width:1.0;" x1="1282.2847" x2="1282.2847" y1="422.4834" y2="457.4834"/><polygon fill="#181818" points="1278.2847,447.4834,1282.2847,457.4834,1286.2847,447.4834,1282.2847,451.4834" style="stroke:#181818;stroke-width:1.0;"/><line style="stroke:#181818;stroke-width:1.0;" x1="1282.2847" x2="1282.2847" y1="492.5771" y2="517.542"/><polygon fill="#181818" points="1278.2847,507.542,1282.2847,517.542,1286.2847,507.542,1282.2847,511.542" style="stroke:#181818;stroke-width:1.0;"/><line style="stroke:#181818;stroke-width:1.0;" x1="1500.0513" x2="1500.0513" y1="282.2959" y2="317.2959"/><polygon fill="#181818" points="1496.0513,307.2959,1500.0513,317.2959,1504.0513,307.2959,1500.0513,311.2959" style="stroke:#181818;stroke-width:1.0;"/><line style="stroke:#181818;stroke-width:1.0;" x1="1715.8257" x2="1715.8257" y1="487.6123" y2="512.5771"/><polygon fill="#181818" points="1711.8257,502.5771,1715.8257,512.5771,1719.8257,502.5771,1715.8257,506.5771" style="stroke:#181818;stroke-width:1.0;"/><line style="stroke:#181818;stroke-width:1.0;" x1="1901.9116" x2="1901.9116" y1="487.6123" y2="512.5771"/><polygon fill="#181818" points="1897.9116,502.5771,1901.9116,512.5771,1905.9116,502.5771,1901.9116,506.5771" style="stroke:#181818;stroke-width:1.0;"/><line style="stroke:#181818;stroke-width:1.0;" x1="1733.5918" x2="1715.8257" y1="430.5186" y2="430.5186"/><line style="stroke:#181818;stroke-width:1.0;" x1="1715.8257" x2="1715.8257" y1="430.5186" y2="452.5186"/><polygon fill="#181818" points="1711.8257,442.5186,1715.8257,452.5186,1719.8257,442.5186,1715.8257,446.5186" style="stroke:#181818;stroke-width:1.0;"/><line style="stroke:#181818;stroke-width:1.0;" x1="1884.1455" x2="1901.9116" y1="430.5186" y2="430.5186"/><line style="stroke:#181818;stroke-width:1.0;" x1="1901.9116" x2="1901.9116" y1="430.5186" y2="452.5186"/><polygon fill="#181818" points="1897.9116,442.5186,1901.9116,452.5186,1905.9116,442.5186,1901.9116,446.5186" style="stroke:#181818;stroke-width:1.0;"/><line style="stroke:#181818;stroke-width:1.0;" x1="1715.8257" x2="1715.8257" y1="547.6709" y2="565.6709"/><line style="stroke:#181818;stroke-width:1.0;" x1="1715.8257" x2="1796.8687" y1="565.6709" y2="565.6709"/><polygon fill="#181818" points="1786.8687,561.6709,1796.8687,565.6709,1786.8687,569.6709,1790.8687,565.6709" style="stroke:#181818;stroke-width:1.0;"/><line style="stroke:#181818;stroke-width:1.0;" x1="1901.9116" x2="1901.9116" y1="547.6709" y2="565.6709"/><line style="stroke:#181818;stroke-width:1.0;" x1="1901.9116" x2="1820.8687" y1="565.6709" y2="565.6709"/><polygon fill="#181818" points="1830.8687,561.6709,1820.8687,565.6709,1830.8687,569.6709,1826.8687,565.6709" style="stroke:#181818;stroke-width:1.0;"/><line style="stroke:#181818;stroke-width:1.0;" x1="1013.1704" x2="1013.1704" y1="671.7295" y2="691.7295"/><polygon fill="#181818" points="1009.1704,681.7295,1013.1704,691.7295,1017.1704,681.7295,1013.1704,685.7295" style="stroke:#181818;stroke-width:1.0;"/><line style="stroke:#181818;stroke-width:1.0;" x1="1282.2847" x2="1282.2847" y1="552.6357" y2="691.7295"/><polygon fill="#181818" points="1278.2847,681.7295,1282.2847,691.7295,1286.2847,681.7295,1282.2847,685.7295" style="stroke:#181818;stroke-width:1.0;"/><line style="stroke:#181818;stroke-width:1.0;" x1="1500.0513" x2="1500.0513" y1="352.3896" y2="691.7295"/><polygon fill="#181818" points="1496.0513,681.7295,1500.0513,691.7295,1504.0513,681.7295,1500.0513,685.7295" style="stroke:#181818;stroke-width:1.0;"/><line style="stroke:#181818;stroke-width:1.0;" x1="1808.8687" x2="1808.8687" y1="577.6709" y2="691.7295"/><polygon fill="#181818" points="1804.8687,681.7295,1808.8687,691.7295,1812.8687,681.7295,1808.8687,685.7295" style="stroke:#181818;stroke-width:1.0;"/><line style="stroke:#181818;stroke-width:1.0;" x1="1013.1704" x2="1808.8687" y1="691.7295" y2="691.7295"/><line style="stroke:#181818;stroke-width:1.0;" x1="108.0361" x2="108.0361" y1="422.4834" y2="439.9834"/><line style="stroke:#181818;stroke-width:1.0;" x1="108.0361" x2="1013.1704" y1="439.9834" y2="439.9834"/><line style="stroke:#181818;stroke-width:1.0;" x1="1013.1704" x2="1013.1704" y1="439.9834" y2="457.4834"/><polygon fill="#181818" points="1009.1704,447.4834,1013.1704,457.4834,1017.1704,447.4834,1013.1704,451.4834" style="stroke:#181818;stroke-width:1.0;"/><line style="stroke:#181818;stroke-width:1.0;" x1="304.1201" x2="304.1201" y1="352.3896" y2="369.8896"/><line style="stroke:#181818;stroke-width:1.0;" x1="304.1201" x2="1282.2847" y1="369.8896" y2="369.8896"/><line style="stroke:#181818;stroke-width:1.0;" x1="1282.2847" x2="1282.2847" y1="369.8896" y2="387.3896"/><polygon fill="#181818" points="1278.2847,377.3896,1282.2847,387.3896,1286.2847,377.3896,1282.2847,381.3896" style="stroke:#181818;stroke-width:1.0;"/><line style="stroke:#181818;stroke-width:1.0;" x1="546.8955" x2="546.8955" y1="227.2021" y2="232.2021"/><line style="stroke:#181818;stroke-width:1.0;" x1="546.8955" x2="1500.0513" y1="232.2021" y2="232.2021"/><line style="stroke:#181818;stroke-width:1.0;" x1="1500.0513" x2="1500.0513" y1="232.2021" y2="247.2021"/><polygon fill="#181818" points="1496.0513,237.2021,1500.0513,247.2021,1504.0513,237.2021,1500.0513,241.2021" style="stroke:#181818;stroke-width:1.0;"/><line style="stroke:#181818;stroke-width:1.0;" x1="728.3794" x2="728.3794" y1="383.5186" y2="401.0186"/><line style="stroke:#181818;stroke-width:1.0;" x1="728.3794" x2="1808.8687" y1="401.0186" y2="401.0186"/><line style="stroke:#181818;stroke-width:1.0;" x1="1808.8687" x2="1808.8687" y1="401.0186" y2="418.5186"/><polygon fill="#181818" points="1804.8687,408.5186,1808.8687,418.5186,1812.8687,408.5186,1808.8687,412.5186" style="stroke:#181818;stroke-width:1.0;"/><line style="stroke:#181818;stroke-width:1.0;" x1="441.8613" x2="441.8613" y1="691.7295" y2="696.7295"/><line style="stroke:#181818;stroke-width:1.0;" x1="441.8613" x2="1395.0171" y1="696.7295" y2="696.7295"/><line style="stroke:#181818;stroke-width:1.0;" x1="1395.0171" x2="1395.0171" y1="696.7295" y2="711.7295"/><polygon fill="#181818" points="1391.0171,701.7295,1395.0171,711.7295,1399.0171,701.7295,1395.0171,705.7295" style="stroke:#181818;stroke-width:1.0;"/><text fill="#000000" font-family="sans-serif" font-size="18" lengthAdjust="spacing" textLength="69.0381" x="392.0315" y="31.1406">Inventori</text><text fill="#000000" font-family="sans-serif" font-size="18" lengthAdjust="spacing" textLength="55.0107" x="1386.5205" y="31.1406">Sistem</text><!--SRC=[dLJBQiD03BpxA_QO_49oA3qKMjAKGX_GeymgjhfFTjU5W3- -Mjjnd3PEGtqGNbQQ6Orajm_s2sroWTeY9WYfM6tHb8q2KOC60rPi86752U8vEDceTL7GJYnkLQIRfKWrMh5u1LD2lIm4FwkD9YMICwNJehyO8TPznXPjHP64PNoXpjz9Z2gGvxU5u-WiwEKnPK_6ixJJsYwqBnGJchPFVGTD4ivJTI6tyfJlOYDPA4WOc_g0lg439nXFMZ6hnyWHGt2XHq8TaKrW9dLQSf29GaA24YAkBq76HaMC0wQLjEjrTl2_FB-Jb7gsTZB30TcGfdhiL-p1LW8oaIJakedNJPvFLdTc48DyZo5dWVtRvWmqrBzvFk0Sz8NEP_fzf1hIi8DNzZshTof0mextNlWEc4-yz9VqVZP6isD- -1QEWXVtu9lududKkN2WsZYxes2obvwdqrtD6vzD6ZzFqt4e6hHTiyU1RCNpiPEj7E5INcTHKeHJYUUNlMl-XszNRtaV-V_ZVF4D]--></g></svg>