<svg xmlns="http://www.w3.org/2000/svg" xmlns:xlink="http://www.w3.org/1999/xlink" contentStyleType="text/css" height="537px" preserveAspectRatio="none" style="width:557px;height:537px;background:#FFFFFF;" version="1.1" viewBox="0 0 557 537" width="557px" zoomAndPan="magnify"><title>Activity Diagram</title><defs/><g><text fill="#000000" font-family="sans-serif" font-size="14" font-weight="bold" lengthAdjust="spacing" textLength="110.4824" x="221.96" y="34.5332">Activity Diagram</text><text fill="#000000" font-family="sans-serif" font-size="14" font-weight="bold" lengthAdjust="spacing" textLength="160.2412" x="197.0806" y="52.1426">Proses Login Pengguna</text><ellipse cx="327.0413" cy="76.2188" fill="#222222" rx="10" ry="10" style="stroke:#222222;stroke-width:1.0;"/><rect fill="#F1F1F1" height="35.0938" rx="12.5" ry="12.5" style="stroke:#181818;stroke-width:0.5;" width="217.4727" x="218.3049" y="106.2188"/><text fill="#000000" font-family="sans-serif" font-size="12" lengthAdjust="spacing" textLength="197.4727" x="228.3049" y="128.6758">Pengguna mengakses halaman login</text><rect fill="#F1F1F1" height="35.0938" rx="12.5" ry="12.5" style="stroke:#181818;stroke-width:0.5;" width="201.418" x="226.3323" y="161.3125"/><text fill="#000000" font-family="sans-serif" font-size="12" lengthAdjust="spacing" textLength="181.418" x="236.3323" y="183.7695">Memasukkan email dan password</text><rect fill="#F1F1F1" height="35.0938" rx="12.5" ry="12.5" style="stroke:#181818;stroke-width:0.5;" width="184.7246" x="234.679" y="216.4063"/><text fill="#000000" font-family="sans-serif" font-size="12" lengthAdjust="spacing" textLength="164.7246" x="244.679" y="238.8633">Sistem memvalidasi kredensial</text><polygon fill="#F1F1F1" points="285.1548,271.5,368.9277,271.5,380.9277,283.5,368.9277,295.5,285.1548,295.5,273.1548,283.5,285.1548,271.5" style="stroke:#181818;stroke-width:0.5;"/><text fill="#000000" font-family="sans-serif" font-size="11" lengthAdjust="spacing" textLength="83.7729" x="285.1548" y="288.001">Kredensial valid?</text><text fill="#000000" font-family="sans-serif" font-size="11" lengthAdjust="spacing" textLength="13.4546" x="259.7002" y="281.083">Ya</text><text fill="#000000" font-family="sans-serif" font-size="11" lengthAdjust="spacing" textLength="26.8984" x="380.9277" y="281.083">Tidak</text><rect fill="#F1F1F1" height="35.0938" rx="12.5" ry="12.5" style="stroke:#181818;stroke-width:0.5;" width="183.3887" x="86.0122" y="305.5"/><text fill="#000000" font-family="sans-serif" font-size="12" lengthAdjust="spacing" textLength="163.3887" x="96.0122" y="327.957">Sistem memeriksa status akun</text><polygon fill="#F1F1F1" points="150.4966,360.5938,204.9165,360.5938,216.9165,372.5938,204.9165,384.5938,150.4966,384.5938,138.4966,372.5938,150.4966,360.5938" style="stroke:#181818;stroke-width:0.5;"/><text fill="#000000" font-family="sans-serif" font-size="11" lengthAdjust="spacing" textLength="54.4199" x="150.4966" y="377.0947">Akun aktif?</text><text fill="#000000" font-family="sans-serif" font-size="11" lengthAdjust="spacing" textLength="13.4546" x="125.042" y="370.1768">Ya</text><text fill="#000000" font-family="sans-serif" font-size="11" lengthAdjust="spacing" textLength="26.8984" x="216.9165" y="370.1768">Tidak</text><rect fill="#F1F1F1" height="35.0938" rx="12.5" ry="12.5" style="stroke:#181818;stroke-width:0.5;" width="114.043" x="24.3477" y="394.5938"/><text fill="#000000" font-family="sans-serif" font-size="12" lengthAdjust="spacing" textLength="94.043" x="34.3477" y="417.0508">Membuat session</text><rect fill="#F1F1F1" height="35.0938" rx="12.5" ry="12.5" style="stroke:#181818;stroke-width:0.5;" width="140.7383" x="11" y="449.6875"/><text fill="#000000" font-family="sans-serif" font-size="12" lengthAdjust="spacing" textLength="120.7383" x="21" y="472.1445">Redirect ke dashboard</text><ellipse cx="81.3691" cy="515.7813" fill="none" rx="11" ry="11" style="stroke:#222222;stroke-width:1.0;"/><ellipse cx="81.3691" cy="515.7813" fill="#222222" rx="6" ry="6" style="stroke:#222222;stroke-width:1.0;"/><rect fill="#F1F1F1" height="35.0938" rx="12.5" ry="12.5" style="stroke:#181818;stroke-width:0.5;" width="204.6113" x="171.7383" y="394.5938"/><text fill="#000000" font-family="sans-serif" font-size="12" lengthAdjust="spacing" textLength="184.6113" x="181.7383" y="417.0508">Tampilkan pesan "Akun tidak aktif"</text><ellipse cx="274.0439" cy="460.6875" fill="none" rx="11" ry="11" style="stroke:#222222;stroke-width:1.0;"/><ellipse cx="274.0439" cy="460.6875" fill="#222222" rx="6" ry="6" style="stroke:#222222;stroke-width:1.0;"/><rect fill="#F1F1F1" height="35.0938" rx="12.5" ry="12.5" style="stroke:#181818;stroke-width:0.5;" width="140.0527" x="406.3496" y="305.5"/><text fill="#000000" font-family="sans-serif" font-size="12" lengthAdjust="spacing" textLength="120.0527" x="416.3496" y="327.957">Tampilkan pesan error</text><ellipse cx="476.376" cy="371.5938" fill="none" rx="11" ry="11" style="stroke:#222222;stroke-width:1.0;"/><ellipse cx="476.376" cy="371.5938" fill="#222222" rx="6" ry="6" style="stroke:#222222;stroke-width:1.0;"/><line style="stroke:#181818;stroke-width:1.0;" x1="327.0413" x2="327.0413" y1="86.2188" y2="106.2188"/><polygon fill="#181818" points="323.0413,96.2188,327.0413,106.2188,331.0413,96.2188,327.0413,100.2188" style="stroke:#181818;stroke-width:1.0;"/><line style="stroke:#181818;stroke-width:1.0;" x1="327.0413" x2="327.0413" y1="141.3125" y2="161.3125"/><polygon fill="#181818" points="323.0413,151.3125,327.0413,161.3125,331.0413,151.3125,327.0413,155.3125" style="stroke:#181818;stroke-width:1.0;"/><line style="stroke:#181818;stroke-width:1.0;" x1="327.0413" x2="327.0413" y1="196.4063" y2="216.4063"/><polygon fill="#181818" points="323.0413,206.4063,327.0413,216.4063,331.0413,206.4063,327.0413,210.4063" style="stroke:#181818;stroke-width:1.0;"/><line style="stroke:#181818;stroke-width:1.0;" x1="81.3691" x2="81.3691" y1="429.6875" y2="449.6875"/><polygon fill="#181818" points="77.3691,439.6875,81.3691,449.6875,85.3691,439.6875,81.3691,443.6875" style="stroke:#181818;stroke-width:1.0;"/><line style="stroke:#181818;stroke-width:1.0;" x1="81.3691" x2="81.3691" y1="484.7813" y2="504.7813"/><polygon fill="#181818" points="77.3691,494.7813,81.3691,504.7813,85.3691,494.7813,81.3691,498.7813" style="stroke:#181818;stroke-width:1.0;"/><line style="stroke:#181818;stroke-width:1.0;" x1="274.0439" x2="274.0439" y1="429.6875" y2="449.6875"/><polygon fill="#181818" points="270.0439,439.6875,274.0439,449.6875,278.0439,439.6875,274.0439,443.6875" style="stroke:#181818;stroke-width:1.0;"/><line style="stroke:#181818;stroke-width:1.0;" x1="138.4966" x2="81.3691" y1="372.5938" y2="372.5938"/><line style="stroke:#181818;stroke-width:1.0;" x1="81.3691" x2="81.3691" y1="372.5938" y2="394.5938"/><polygon fill="#181818" points="77.3691,384.5938,81.3691,394.5938,85.3691,384.5938,81.3691,388.5938" style="stroke:#181818;stroke-width:1.0;"/><line style="stroke:#181818;stroke-width:1.0;" x1="216.9165" x2="274.0439" y1="372.5938" y2="372.5938"/><line style="stroke:#181818;stroke-width:1.0;" x1="274.0439" x2="274.0439" y1="372.5938" y2="394.5938"/><polygon fill="#181818" points="270.0439,384.5938,274.0439,394.5938,278.0439,384.5938,274.0439,388.5938" style="stroke:#181818;stroke-width:1.0;"/><line style="stroke:#181818;stroke-width:1.0;" x1="177.7065" x2="177.7065" y1="340.5938" y2="360.5938"/><polygon fill="#181818" points="173.7065,350.5938,177.7065,360.5938,181.7065,350.5938,177.7065,354.5938" style="stroke:#181818;stroke-width:1.0;"/><line style="stroke:#181818;stroke-width:1.0;" x1="476.376" x2="476.376" y1="340.5938" y2="360.5938"/><polygon fill="#181818" points="472.376,350.5938,476.376,360.5938,480.376,350.5938,476.376,354.5938" style="stroke:#181818;stroke-width:1.0;"/><line style="stroke:#181818;stroke-width:1.0;" x1="273.1548" x2="177.7065" y1="283.5" y2="283.5"/><line style="stroke:#181818;stroke-width:1.0;" x1="177.7065" x2="177.7065" y1="283.5" y2="305.5"/><polygon fill="#181818" points="173.7065,295.5,177.7065,305.5,181.7065,295.5,177.7065,299.5" style="stroke:#181818;stroke-width:1.0;"/><line style="stroke:#181818;stroke-width:1.0;" x1="380.9277" x2="476.376" y1="283.5" y2="283.5"/><line style="stroke:#181818;stroke-width:1.0;" x1="476.376" x2="476.376" y1="283.5" y2="305.5"/><polygon fill="#181818" points="472.376,295.5,476.376,305.5,480.376,295.5,476.376,299.5" style="stroke:#181818;stroke-width:1.0;"/><line style="stroke:#181818;stroke-width:1.0;" x1="327.0413" x2="327.0413" y1="251.5" y2="271.5"/><polygon fill="#181818" points="323.0413,261.5,327.0413,271.5,331.0413,261.5,327.0413,265.5" style="stroke:#181818;stroke-width:1.0;"/><!--SRC=[RP1DQiD038NtSmgHbNE5P142tRM5q6HJw4QnPLlCdnd9ARrzDKvI0kai1etqtiVJYESqOS48s2fVM7-E8qu4kLKSSd9EMGF1_ZQ45yR1r5_fKBAGm5iUEC61qZ3C2PqJnQ9kSsz0j09zLOuOC6A2K1rRjtcdY39xRoshE41drOGYtxbqDZ-oA4K3n0i6xb0OVA6EaZ26hNFSG_Fwru15j5k3ZfIW-SIr0piF52hi1S42wYo0VhOGLL8vUtjPIxb_8YmKotgUKS7s4CutupBve8uBjGgUR04Ppnbh-ljSD4_BWu8GD2VRmpzmJnWd3lKB9XAxLqiGhQfhdDL_gDHnxvw0Jp0g9PUhV_5UVRy0]--></g></svg>