<svg xmlns="http://www.w3.org/2000/svg" xmlns:xlink="http://www.w3.org/1999/xlink" contentStyleType="text/css" height="700px" preserveAspectRatio="none" style="width:447px;height:700px;background:#FFFFFF;" version="1.1" viewBox="0 0 447 700" width="447px" zoomAndPan="magnify"><title>Activity Diagram</title><defs/><g><text fill="#000000" font-family="sans-serif" font-size="14" font-weight="bold" lengthAdjust="spacing" textLength="110.4824" x="167.1527" y="34.5332">Activity Diagram</text><text fill="#000000" font-family="sans-serif" font-size="14" font-weight="bold" lengthAdjust="spacing" textLength="150.1514" x="147.3182" y="52.1426">Manajemen Shift Kasir</text><ellipse cx="209.7402" cy="76.2188" fill="#222222" rx="10" ry="10" style="stroke:#222222;stroke-width:1.0;"/><rect fill="#F1F1F1" height="35.0938" rx="12.5" ry="12.5" style="stroke:#181818;stroke-width:0.5;" width="148.707" x="135.3867" y="106.2188"/><text fill="#000000" font-family="sans-serif" font-size="12" lengthAdjust="spacing" textLength="128.707" x="145.3867" y="128.6758">Kasir memulai hari kerja</text><rect fill="#F1F1F1" height="35.0938" rx="12.5" ry="12.5" style="stroke:#181818;stroke-width:0.5;" width="158.0762" x="130.7021" y="161.3125"/><text fill="#000000" font-family="sans-serif" font-size="12" lengthAdjust="spacing" textLength="138.0762" x="140.7021" y="183.7695">Mengakses halaman Shift</text><polygon fill="#F1F1F1" points="178.5557,216.4063,240.9248,216.4063,252.9248,228.4063,240.9248,240.4063,178.5557,240.4063,166.5557,228.4063,178.5557,216.4063" style="stroke:#181818;stroke-width:0.5;"/><text fill="#000000" font-family="sans-serif" font-size="11" lengthAdjust="spacing" textLength="62.3691" x="178.5557" y="232.9072">Status Shift?</text><text fill="#000000" font-family="sans-serif" font-size="11" lengthAdjust="spacing" textLength="68.4761" x="98.0796" y="225.9893">Belum Dibuka</text><text fill="#000000" font-family="sans-serif" font-size="11" lengthAdjust="spacing" textLength="75.2168" x="252.9248" y="225.9893">Sudah Terbuka</text><rect fill="#F1F1F1" height="35.0938" rx="12.5" ry="12.5" style="stroke:#181818;stroke-width:0.5;" width="160.7305" x="17.3369" y="250.4063"/><text fill="#000000" font-family="sans-serif" font-size="12" lengthAdjust="spacing" textLength="140.7305" x="27.3369" y="272.8633">Masukkan modal kas awal</text><rect fill="#F1F1F1" height="35.0938" rx="12.5" ry="12.5" style="stroke:#181818;stroke-width:0.5;" width="173.4043" x="11" y="305.5"/><text fill="#000000" font-family="sans-serif" font-size="12" lengthAdjust="spacing" textLength="153.4043" x="21" y="327.957">Sistem mencatat waktu buka</text><rect fill="#F1F1F1" height="35.0938" rx="12.5" ry="12.5" style="stroke:#181818;stroke-width:0.5;" width="145.5781" x="24.9131" y="375.5938"/><text fill="#000000" font-family="sans-serif" font-size="12" lengthAdjust="spacing" textLength="125.5781" x="34.9131" y="398.0508">Shift status = "Terbuka"</text><rect fill="#F1F1F1" height="35.0938" rx="12.5" ry="12.5" style="stroke:#181818;stroke-width:0.5;" width="151.3848" x="22.0098" y="445.6875"/><text fill="#000000" font-family="sans-serif" font-size="12" lengthAdjust="spacing" textLength="131.3848" x="32.0098" y="468.1445">Mulai melayani transaksi</text><ellipse cx="97.7021" cy="526.7813" fill="none" rx="11" ry="11" style="stroke:#222222;stroke-width:1.0;"/><ellipse cx="97.7021" cy="526.7813" fill="#222222" rx="6" ry="6" style="stroke:#222222;stroke-width:1.0;"/><rect fill="#F1F1F1" height="35.0938" rx="12.5" ry="12.5" style="stroke:#181818;stroke-width:0.5;" width="129.377" x="257.0898" y="250.4063"/><text fill="#000000" font-family="sans-serif" font-size="12" lengthAdjust="spacing" textLength="109.377" x="267.0898" y="272.8633">Melayani transaksi...</text><rect fill="#F1F1F1" height="35.0938" rx="12.5" ry="12.5" style="stroke:#181818;stroke-width:0.5;" width="188.0938" x="227.7314" y="354.418"/><text fill="#000000" font-family="sans-serif" font-size="12" lengthAdjust="spacing" textLength="168.0938" x="237.7314" y="376.875">Sistem merekap total penjualan</text><rect fill="#F1F1F1" height="35.0938" rx="12.5" ry="12.5" style="stroke:#181818;stroke-width:0.5;" width="214.748" x="214.4043" y="424.5117"/><text fill="#000000" font-family="sans-serif" font-size="12" lengthAdjust="spacing" textLength="194.748" x="224.4043" y="446.9688">Kasir memasukkan jumlah uang fisik</text><rect fill="#F1F1F1" height="35.0938" rx="12.5" ry="12.5" style="stroke:#181818;stroke-width:0.5;" width="159.4004" x="242.0781" y="494.6055"/><text fill="#000000" font-family="sans-serif" font-size="12" lengthAdjust="spacing" textLength="139.4004" x="252.0781" y="517.0625">Sistem menghitung selisih</text><rect fill="#F1F1F1" height="35.0938" rx="12.5" ry="12.5" style="stroke:#181818;stroke-width:0.5;" width="139.5781" x="251.9893" y="557.7813"/><text fill="#000000" font-family="sans-serif" font-size="12" lengthAdjust="spacing" textLength="119.5781" x="261.9893" y="580.2383">Shift status = "Ditutup"</text><rect fill="#F1F1F1" height="35.0938" rx="12.5" ry="12.5" style="stroke:#181818;stroke-width:0.5;" width="120.0547" x="261.751" y="612.875"/><text fill="#000000" font-family="sans-serif" font-size="12" lengthAdjust="spacing" textLength="100.0547" x="271.751" y="635.332">Cetak laporan shift</text><ellipse cx="321.7783" cy="678.9688" fill="none" rx="11" ry="11" style="stroke:#222222;stroke-width:1.0;"/><ellipse cx="321.7783" cy="678.9688" fill="#222222" rx="6" ry="6" style="stroke:#222222;stroke-width:1.0;"/><polygon fill="#F1F1F1" points="278.6672,305.5,364.8894,305.5,376.8894,317.5,364.8894,329.5,278.6672,329.5,266.6672,317.5,278.6672,305.5" style="stroke:#181818;stroke-width:0.5;"/><text fill="#000000" font-family="sans-serif" font-size="11" lengthAdjust="spacing" textLength="13.4546" x="325.7783" y="340.9189">Ya</text><text fill="#000000" font-family="sans-serif" font-size="11" lengthAdjust="spacing" textLength="86.2222" x="278.6672" y="322.001">Ingin Tutup Shift?</text><text fill="#000000" font-family="sans-serif" font-size="11" lengthAdjust="spacing" textLength="26.8984" x="376.8894" y="315.083">Tidak</text><ellipse cx="425.7878" cy="317.5" fill="none" rx="11" ry="11" style="stroke:#222222;stroke-width:1.0;"/><ellipse cx="425.7878" cy="317.5" fill="#222222" rx="6" ry="6" style="stroke:#222222;stroke-width:1.0;"/><line style="stroke:#181818;stroke-width:1.0;" x1="209.7402" x2="209.7402" y1="86.2188" y2="106.2188"/><polygon fill="#181818" points="205.7402,96.2188,209.7402,106.2188,213.7402,96.2188,209.7402,100.2188" style="stroke:#181818;stroke-width:1.0;"/><line style="stroke:#181818;stroke-width:1.0;" x1="209.7402" x2="209.7402" y1="141.3125" y2="161.3125"/><polygon fill="#181818" points="205.7402,151.3125,209.7402,161.3125,213.7402,151.3125,209.7402,155.3125" style="stroke:#181818;stroke-width:1.0;"/><line style="stroke:#181818;stroke-width:1.0;" x1="97.7021" x2="97.7021" y1="285.5" y2="305.5"/><polygon fill="#181818" points="93.7021,295.5,97.7021,305.5,101.7021,295.5,97.7021,299.5" style="stroke:#181818;stroke-width:1.0;"/><line style="stroke:#181818;stroke-width:1.0;" x1="97.7021" x2="97.7021" y1="340.5938" y2="375.5938"/><polygon fill="#181818" points="93.7021,365.5938,97.7021,375.5938,101.7021,365.5938,97.7021,369.5938" style="stroke:#181818;stroke-width:1.0;"/><line style="stroke:#181818;stroke-width:1.0;" x1="97.7021" x2="97.7021" y1="410.6875" y2="445.6875"/><polygon fill="#181818" points="93.7021,435.6875,97.7021,445.6875,101.7021,435.6875,97.7021,439.6875" style="stroke:#181818;stroke-width:1.0;"/><line style="stroke:#181818;stroke-width:1.0;" x1="97.7021" x2="97.7021" y1="480.7813" y2="515.7813"/><polygon fill="#181818" points="93.7021,505.7813,97.7021,515.7813,101.7021,505.7813,97.7021,509.7813" style="stroke:#181818;stroke-width:1.0;"/><line style="stroke:#181818;stroke-width:1.0;" x1="321.7783" x2="321.7783" y1="389.5117" y2="424.5117"/><polygon fill="#181818" points="317.7783,414.5117,321.7783,424.5117,325.7783,414.5117,321.7783,418.5117" style="stroke:#181818;stroke-width:1.0;"/><line style="stroke:#181818;stroke-width:1.0;" x1="321.7783" x2="321.7783" y1="459.6055" y2="494.6055"/><polygon fill="#181818" points="317.7783,484.6055,321.7783,494.6055,325.7783,484.6055,321.7783,488.6055" style="stroke:#181818;stroke-width:1.0;"/><line style="stroke:#181818;stroke-width:1.0;" x1="321.7783" x2="321.7783" y1="529.6992" y2="557.7813"/><polygon fill="#181818" points="317.7783,547.7813,321.7783,557.7813,325.7783,547.7813,321.7783,551.7813" style="stroke:#181818;stroke-width:1.0;"/><line style="stroke:#181818;stroke-width:1.0;" x1="321.7783" x2="321.7783" y1="592.875" y2="612.875"/><polygon fill="#181818" points="317.7783,602.875,321.7783,612.875,325.7783,602.875,321.7783,606.875" style="stroke:#181818;stroke-width:1.0;"/><line style="stroke:#181818;stroke-width:1.0;" x1="321.7783" x2="321.7783" y1="647.9688" y2="667.9688"/><polygon fill="#181818" points="317.7783,657.9688,321.7783,667.9688,325.7783,657.9688,321.7783,661.9688" style="stroke:#181818;stroke-width:1.0;"/><line style="stroke:#181818;stroke-width:1.0;" x1="321.7783" x2="321.7783" y1="329.5" y2="354.418"/><polygon fill="#181818" points="317.7783,344.418,321.7783,354.418,325.7783,344.418,321.7783,348.418" style="stroke:#181818;stroke-width:1.0;"/><line style="stroke:#181818;stroke-width:1.0;" x1="376.8894" x2="414.7878" y1="317.5" y2="317.5"/><polygon fill="#181818" points="404.7878,313.5,414.7878,317.5,404.7878,321.5,408.7878,317.5" style="stroke:#181818;stroke-width:1.0;"/><line style="stroke:#181818;stroke-width:1.0;" x1="321.7783" x2="321.7783" y1="285.5" y2="305.5"/><polygon fill="#181818" points="317.7783,295.5,321.7783,305.5,325.7783,295.5,321.7783,299.5" style="stroke:#181818;stroke-width:1.0;"/><line style="stroke:#181818;stroke-width:1.0;" x1="166.5557" x2="97.7021" y1="228.4063" y2="228.4063"/><line style="stroke:#181818;stroke-width:1.0;" x1="97.7021" x2="97.7021" y1="228.4063" y2="250.4063"/><polygon fill="#181818" points="93.7021,240.4063,97.7021,250.4063,101.7021,240.4063,97.7021,244.4063" style="stroke:#181818;stroke-width:1.0;"/><line style="stroke:#181818;stroke-width:1.0;" x1="252.9248" x2="321.7783" y1="228.4063" y2="228.4063"/><line style="stroke:#181818;stroke-width:1.0;" x1="321.7783" x2="321.7783" y1="228.4063" y2="250.4063"/><polygon fill="#181818" points="317.7783,240.4063,321.7783,250.4063,325.7783,240.4063,321.7783,244.4063" style="stroke:#181818;stroke-width:1.0;"/><line style="stroke:#181818;stroke-width:1.0;" x1="209.7402" x2="209.7402" y1="196.4063" y2="216.4063"/><polygon fill="#181818" points="205.7402,206.4063,209.7402,216.4063,213.7402,206.4063,209.7402,210.4063" style="stroke:#181818;stroke-width:1.0;"/><!--SRC=[RL6xRi904EplArPKqF01M56KX2QAgA29b6O2YxtSmvPlBuY_pu9DdhYmV3SpkpFZx2Lrw149MvKFqTEwGSVKRXLrcvnJqS3qC8Aq5DJ6Vaih91muSg9r8tkb5sJfdSkANjtYSgB8iGG8DUY5FFS7L6wnubJ3Pyvs7H0n3gYSaprDrmejURYwdv4sjc3woA54M_rUF6QEx5cia8lt9exj3e4yCk68K0teMh9ojFrf2nj8HtWjT9PV2HVFULXsHvCDzsTqCiAhY-t80ISa8UsHidcM0SxQTev3PhDRTcXeL5-j_PFDv_D1UKxud6f9j2bQkZynNyS9loFqxD6HjcenEqw7OgsbwfluLVMraKE9mKmLf9hsaiLNDwQckX4jniWSZDFyvFpfPcb4CplvGNbYXQU0hhM8b8V_TqKlzPm_XeesieEVtK3JJlPkU7y2]--></g></svg>