<svg xmlns="http://www.w3.org/2000/svg" xmlns:xlink="http://www.w3.org/1999/xlink" contentStyleType="text/css" height="1055px" preserveAspectRatio="none" style="width:1856px;height:1055px;background:#FFFFFF;" version="1.1" viewBox="0 0 1856 1055" width="1856px" zoomAndPan="magnify"><defs/><g><rect fill="none" height="22.6406" style="stroke:none;stroke-width:1.0;" width="1823.9375" x="15" y="12.4551"/><ellipse cx="812.8088" cy="50.0957" fill="#222222" rx="10" ry="10" style="stroke:#222222;stroke-width:1.0;"/><rect fill="#F1F1F1" height="35.0938" rx="12.5" ry="12.5" style="stroke:#181818;stroke-width:0.5;" width="150.7402" x="737.4387" y="80.0957"/><text fill="#000000" font-family="sans-serif" font-size="12" lengthAdjust="spacing" textLength="130.7402" x="747.4387" y="102.5527">Membuka halaman login</text><rect fill="#F1F1F1" height="35.0938" rx="12.5" ry="12.5" style="stroke:#181818;stroke-width:0.5;" width="123.3711" x="751.1232" y="135.1895"/><text fill="#000000" font-family="sans-serif" font-size="12" lengthAdjust="spacing" textLength="103.3711" x="761.1232" y="157.6465">Memasukkan email</text><rect fill="#F1F1F1" height="35.0938" rx="12.5" ry="12.5" style="stroke:#181818;stroke-width:0.5;" width="146.0527" x="739.7824" y="190.2832"/><text fill="#000000" font-family="sans-serif" font-size="12" lengthAdjust="spacing" textLength="126.0527" x="749.7824" y="212.7402">Memasukkan password</text><rect fill="#F1F1F1" height="35.0938" rx="12.5" ry="12.5" style="stroke:#181818;stroke-width:0.5;" width="111.3828" x="757.1174" y="245.377"/><text fill="#000000" font-family="sans-serif" font-size="12" lengthAdjust="spacing" textLength="91.3828" x="767.1174" y="267.834">Klik tombol Login</text><rect fill="#F1F1F1" height="35.0938" rx="12.5" ry="12.5" style="stroke:#181818;stroke-width:0.5;" width="120.7227" x="56.3438" y="763.0332"/><text fill="#000000" font-family="sans-serif" font-size="12" lengthAdjust="spacing" textLength="100.7227" x="66.3438" y="785.4902">Melihat Dashboard</text><path d="M232.4102,808.127 L232.4102,850.0059 L212.4102,854.0059 L232.4102,858.0059 L232.4102,899.8848 A0,0 0 0 0 232.4102,899.8848 L461.1499,899.8848 A0,0 0 0 0 461.1499,899.8848 L461.1499,818.127 L451.1499,808.127 L232.4102,808.127 A0,0 0 0 0 232.4102,808.127 " fill="#FEFFDD" style="stroke:#181818;stroke-width:0.5;"/><path d="M451.1499,808.127 L451.1499,818.127 L461.1499,818.127 L451.1499,808.127 " fill="#FEFFDD" style="stroke:#181818;stroke-width:0.5;"/><text fill="#000000" font-family="sans-serif" font-size="13" lengthAdjust="spacing" textLength="182.1016" x="238.4102" y="826.6221">Menu yang tampil berdasarkan:</text><text fill="#000000" font-family="sans-serif" font-size="13" lengthAdjust="spacing" textLength="128.9526" x="238.4102" y="842.9736">- kasir.* -&gt; Menu Kasir</text><text fill="#000000" font-family="sans-serif" font-size="13" lengthAdjust="spacing" textLength="171.6025" x="238.4102" y="859.3252">- produksi.* -&gt; Menu Produksi</text><text fill="#000000" font-family="sans-serif" font-size="13" lengthAdjust="spacing" textLength="170.8853" x="238.4102" y="875.6768">- inventori.* -&gt; Menu Inventori</text><text fill="#000000" font-family="sans-serif" font-size="13" lengthAdjust="spacing" textLength="207.7397" x="238.4102" y="892.0283">- manajemen.* -&gt; Menu Manajemen</text><rect fill="#F1F1F1" height="35.0938" rx="12.5" ry="12.5" style="stroke:#181818;stroke-width:0.5;" width="191.4102" x="21" y="836.459"/><text fill="#000000" font-family="sans-serif" font-size="12" lengthAdjust="spacing" textLength="171.4102" x="31" y="858.916">Melihat menu sesuai permission</text><rect fill="#F1F1F1" height="35.0938" rx="12.5" ry="12.5" style="stroke:#181818;stroke-width:0.5;" width="216.5996" x="471.1499" y="597.752"/><text fill="#000000" font-family="sans-serif" font-size="12" lengthAdjust="spacing" textLength="196.5996" x="481.1499" y="620.209">Menampilkan error "Password salah"</text><rect fill="#F1F1F1" height="35.0938" rx="12.5" ry="12.5" style="stroke:#181818;stroke-width:0.5;" width="244.6074" x="697.7495" y="498.6582"/><text fill="#000000" font-family="sans-serif" font-size="12" lengthAdjust="spacing" textLength="224.6074" x="707.7495" y="521.1152">Menampilkan error "User tidak ditemukan"</text><rect fill="#F1F1F1" height="35.0938" rx="12.5" ry="12.5" style="stroke:#181818;stroke-width:0.5;" width="163.3906" x="952.3569" y="399.5645"/><text fill="#000000" font-family="sans-serif" font-size="12" lengthAdjust="spacing" textLength="143.3906" x="962.3569" y="422.0215">Menampilkan error validasi</text><ellipse cx="812.8088" cy="1032.8848" fill="none" rx="11" ry="11" style="stroke:#222222;stroke-width:1.0;"/><ellipse cx="812.8088" cy="1032.8848" fill="#222222" rx="6" ry="6" style="stroke:#222222;stroke-width:1.0;"/><line style="stroke:#000000;stroke-width:1.5;" x1="15" x2="15" y1="12.4551" y2="1043.8848"/><rect fill="#F1F1F1" height="35.0938" rx="12.5" ry="12.5" style="stroke:#181818;stroke-width:0.5;" width="128.7207" x="1695.8613" y="300.4707"/><text fill="#000000" font-family="sans-serif" font-size="12" lengthAdjust="spacing" textLength="108.7207" x="1705.8613" y="322.9277">Validasi format input</text><polygon fill="#F1F1F1" points="1726.9048,355.5645,1793.5386,355.5645,1805.5386,367.5645,1793.5386,379.5645,1726.9048,379.5645,1714.9048,367.5645,1726.9048,355.5645" style="stroke:#181818;stroke-width:0.5;"/><text fill="#000000" font-family="sans-serif" font-size="11" lengthAdjust="spacing" textLength="66.6338" x="1726.9048" y="372.0654">Format valid?</text><text fill="#000000" font-family="sans-serif" font-size="11" lengthAdjust="spacing" textLength="13.4546" x="1701.4502" y="365.1475">Ya</text><text fill="#000000" font-family="sans-serif" font-size="11" lengthAdjust="spacing" textLength="26.8984" x="1805.5386" y="365.1475">Tidak</text><rect fill="#F1F1F1" height="35.0938" rx="12.5" ry="12.5" style="stroke:#181818;stroke-width:0.5;" width="191.4102" x="1494.4512" y="399.5645"/><text fill="#000000" font-family="sans-serif" font-size="12" lengthAdjust="spacing" textLength="171.4102" x="1504.4512" y="422.0215">Mencari user berdasarkan email</text><polygon fill="#F1F1F1" points="1548.5813,454.6582,1631.7312,454.6582,1643.7312,466.6582,1631.7312,478.6582,1548.5813,478.6582,1536.5813,466.6582,1548.5813,454.6582" style="stroke:#181818;stroke-width:0.5;"/><text fill="#000000" font-family="sans-serif" font-size="11" lengthAdjust="spacing" textLength="83.1499" x="1548.5813" y="471.1592">User ditemukan?</text><text fill="#000000" font-family="sans-serif" font-size="11" lengthAdjust="spacing" textLength="13.4546" x="1523.1267" y="464.2412">Ya</text><text fill="#000000" font-family="sans-serif" font-size="11" lengthAdjust="spacing" textLength="26.8984" x="1643.7312" y="464.2412">Tidak</text><rect fill="#F1F1F1" height="35.0938" rx="12.5" ry="12.5" style="stroke:#181818;stroke-width:0.5;" width="123.3711" x="1341.0649" y="498.6582"/><text fill="#000000" font-family="sans-serif" font-size="12" lengthAdjust="spacing" textLength="103.3711" x="1351.0649" y="521.1152">Verifikasi password</text><polygon fill="#F1F1F1" points="1359.9482,553.752,1445.5527,553.752,1457.5527,565.752,1445.5527,577.752,1359.9482,577.752,1347.9482,565.752,1359.9482,553.752" style="stroke:#181818;stroke-width:0.5;"/><text fill="#000000" font-family="sans-serif" font-size="11" lengthAdjust="spacing" textLength="85.6045" x="1359.9482" y="570.2529">Password benar?</text><text fill="#000000" font-family="sans-serif" font-size="11" lengthAdjust="spacing" textLength="13.4546" x="1334.4937" y="563.335">Ya</text><text fill="#000000" font-family="sans-serif" font-size="11" lengthAdjust="spacing" textLength="26.8984" x="1457.5527" y="563.335">Tidak</text><rect fill="#F1F1F1" height="35.0938" rx="12.5" ry="12.5" style="stroke:#181818;stroke-width:0.5;" width="114.043" x="1168.0991" y="597.752"/><text fill="#000000" font-family="sans-serif" font-size="12" lengthAdjust="spacing" textLength="94.043" x="1178.0991" y="620.209">Membuat session</text><rect fill="#F1F1F1" height="35.0938" rx="12.5" ry="12.5" style="stroke:#181818;stroke-width:0.5;" width="198.7461" x="1125.7476" y="652.8457"/><text fill="#000000" font-family="sans-serif" font-size="12" lengthAdjust="spacing" textLength="178.7461" x="1135.7476" y="675.3027">Mengambil roles dan permissions</text><rect fill="#F1F1F1" height="35.0938" rx="12.5" ry="12.5" style="stroke:#181818;stroke-width:0.5;" width="142.7305" x="1153.7554" y="707.9395"/><text fill="#000000" font-family="sans-serif" font-size="12" lengthAdjust="spacing" textLength="122.7305" x="1163.7554" y="730.3965">Redirect ke Dashboard</text><polygon fill="#F1F1F1" points="1402.7505,909.8848,1414.7505,921.8848,1402.7505,933.8848,1390.7505,921.8848,1402.7505,909.8848" style="stroke:#181818;stroke-width:0.5;"/><polygon fill="#F1F1F1" points="1590.1563,943.8848,1602.1563,955.8848,1590.1563,967.8848,1578.1563,955.8848,1590.1563,943.8848" style="stroke:#181818;stroke-width:0.5;"/><polygon fill="#F1F1F1" points="1760.2217,977.8848,1772.2217,989.8848,1760.2217,1001.8848,1748.2217,989.8848,1760.2217,977.8848" style="stroke:#181818;stroke-width:0.5;"/><line style="stroke:#000000;stroke-width:1.5;" x1="1119.7476" x2="1119.7476" y1="12.4551" y2="1043.8848"/><line style="stroke:#000000;stroke-width:1.5;" x1="1837.437" x2="1837.437" y1="12.4551" y2="1043.8848"/><line style="stroke:#181818;stroke-width:1.0;" x1="812.8088" x2="812.8088" y1="60.0957" y2="80.0957"/><polygon fill="#181818" points="808.8088,70.0957,812.8088,80.0957,816.8088,70.0957,812.8088,74.0957" style="stroke:#181818;stroke-width:1.0;"/><line style="stroke:#181818;stroke-width:1.0;" x1="812.8088" x2="812.8088" y1="115.1895" y2="135.1895"/><polygon fill="#181818" points="808.8088,125.1895,812.8088,135.1895,816.8088,125.1895,812.8088,129.1895" style="stroke:#181818;stroke-width:1.0;"/><line style="stroke:#181818;stroke-width:1.0;" x1="812.8088" x2="812.8088" y1="170.2832" y2="190.2832"/><polygon fill="#181818" points="808.8088,180.2832,812.8088,190.2832,816.8088,180.2832,812.8088,184.2832" style="stroke:#181818;stroke-width:1.0;"/><line style="stroke:#181818;stroke-width:1.0;" x1="812.8088" x2="812.8088" y1="225.377" y2="245.377"/><polygon fill="#181818" points="808.8088,235.377,812.8088,245.377,816.8088,235.377,812.8088,239.377" style="stroke:#181818;stroke-width:1.0;"/><line style="stroke:#181818;stroke-width:1.0;" x1="116.7051" x2="116.7051" y1="798.127" y2="836.459"/><polygon fill="#181818" points="112.7051,826.459,116.7051,836.459,120.7051,826.459,116.7051,830.459" style="stroke:#181818;stroke-width:1.0;"/><line style="stroke:#181818;stroke-width:1.0;" x1="1225.1206" x2="1225.1206" y1="632.8457" y2="652.8457"/><polygon fill="#181818" points="1221.1206,642.8457,1225.1206,652.8457,1229.1206,642.8457,1225.1206,646.8457" style="stroke:#181818;stroke-width:1.0;"/><line style="stroke:#181818;stroke-width:1.0;" x1="1225.1206" x2="1225.1206" y1="687.9395" y2="707.9395"/><polygon fill="#181818" points="1221.1206,697.9395,1225.1206,707.9395,1229.1206,697.9395,1225.1206,701.9395" style="stroke:#181818;stroke-width:1.0;"/><line style="stroke:#181818;stroke-width:1.0;" x1="1347.9482" x2="1225.1206" y1="565.752" y2="565.752"/><line style="stroke:#181818;stroke-width:1.0;" x1="1225.1206" x2="1225.1206" y1="565.752" y2="597.752"/><polygon fill="#181818" points="1221.1206,587.752,1225.1206,597.752,1229.1206,587.752,1225.1206,591.752" style="stroke:#181818;stroke-width:1.0;"/><line style="stroke:#181818;stroke-width:1.0;" x1="1402.7505" x2="1402.7505" y1="533.752" y2="553.752"/><polygon fill="#181818" points="1398.7505,543.752,1402.7505,553.752,1406.7505,543.752,1402.7505,547.752" style="stroke:#181818;stroke-width:1.0;"/><line style="stroke:#181818;stroke-width:1.0;" x1="1536.5813" x2="1402.7505" y1="466.6582" y2="466.6582"/><line style="stroke:#181818;stroke-width:1.0;" x1="1402.7505" x2="1402.7505" y1="466.6582" y2="498.6582"/><polygon fill="#181818" points="1398.7505,488.6582,1402.7505,498.6582,1406.7505,488.6582,1402.7505,492.6582" style="stroke:#181818;stroke-width:1.0;"/><line style="stroke:#181818;stroke-width:1.0;" x1="1402.7505" x2="1402.7505" y1="933.8848" y2="955.8848"/><line style="stroke:#181818;stroke-width:1.0;" x1="1402.7505" x2="1578.1563" y1="955.8848" y2="955.8848"/><polygon fill="#181818" points="1568.1563,951.8848,1578.1563,955.8848,1568.1563,959.8848,1572.1563,955.8848" style="stroke:#181818;stroke-width:1.0;"/><line style="stroke:#181818;stroke-width:1.0;" x1="1590.1563" x2="1590.1563" y1="434.6582" y2="454.6582"/><polygon fill="#181818" points="1586.1563,444.6582,1590.1563,454.6582,1594.1563,444.6582,1590.1563,448.6582" style="stroke:#181818;stroke-width:1.0;"/><line style="stroke:#181818;stroke-width:1.0;" x1="1714.9048" x2="1590.1563" y1="367.5645" y2="367.5645"/><line style="stroke:#181818;stroke-width:1.0;" x1="1590.1563" x2="1590.1563" y1="367.5645" y2="399.5645"/><polygon fill="#181818" points="1586.1563,389.5645,1590.1563,399.5645,1594.1563,389.5645,1590.1563,393.5645" style="stroke:#181818;stroke-width:1.0;"/><line style="stroke:#181818;stroke-width:1.0;" x1="1590.1563" x2="1590.1563" y1="967.8848" y2="989.8848"/><line style="stroke:#181818;stroke-width:1.0;" x1="1590.1563" x2="1748.2217" y1="989.8848" y2="989.8848"/><polygon fill="#181818" points="1738.2217,985.8848,1748.2217,989.8848,1738.2217,993.8848,1742.2217,989.8848" style="stroke:#181818;stroke-width:1.0;"/><line style="stroke:#181818;stroke-width:1.0;" x1="1760.2217" x2="1760.2217" y1="335.5645" y2="355.5645"/><polygon fill="#181818" points="1756.2217,345.5645,1760.2217,355.5645,1764.2217,345.5645,1760.2217,349.5645" style="stroke:#181818;stroke-width:1.0;"/><line style="stroke:#181818;stroke-width:1.0;" x1="812.8088" x2="812.8088" y1="280.4707" y2="285.4707"/><line style="stroke:#181818;stroke-width:1.0;" x1="812.8088" x2="1760.2217" y1="285.4707" y2="285.4707"/><line style="stroke:#181818;stroke-width:1.0;" x1="1760.2217" x2="1760.2217" y1="285.4707" y2="300.4707"/><polygon fill="#181818" points="1756.2217,290.4707,1760.2217,300.4707,1764.2217,290.4707,1760.2217,294.4707" style="stroke:#181818;stroke-width:1.0;"/><line style="stroke:#181818;stroke-width:1.0;" x1="1225.1206" x2="1225.1206" y1="743.0332" y2="748.0332"/><line style="stroke:#181818;stroke-width:1.0;" x1="1225.1206" x2="116.7051" y1="748.0332" y2="748.0332"/><line style="stroke:#181818;stroke-width:1.0;" x1="116.7051" x2="116.7051" y1="748.0332" y2="763.0332"/><polygon fill="#181818" points="112.7051,753.0332,116.7051,763.0332,120.7051,753.0332,116.7051,757.0332" style="stroke:#181818;stroke-width:1.0;"/><line style="stroke:#181818;stroke-width:1.0;" x1="1457.5527" x2="1469.5527" y1="565.752" y2="565.752"/><line style="stroke:#181818;stroke-width:1.0;" x1="1469.5527" x2="1469.5527" y1="565.752" y2="583.752"/><line style="stroke:#181818;stroke-width:1.0;" x1="1469.5527" x2="579.4497" y1="583.752" y2="583.752"/><line style="stroke:#181818;stroke-width:1.0;" x1="579.4497" x2="579.4497" y1="583.752" y2="597.752"/><polygon fill="#181818" points="575.4497,587.752,579.4497,597.752,583.4497,587.752,579.4497,591.752" style="stroke:#181818;stroke-width:1.0;"/><line style="stroke:#181818;stroke-width:1.0;" x1="116.7051" x2="116.7051" y1="871.5527" y2="921.8848"/><line style="stroke:#181818;stroke-width:1.0;" x1="116.7051" x2="1390.7505" y1="921.8848" y2="921.8848"/><polygon fill="#181818" points="1380.7505,917.8848,1390.7505,921.8848,1380.7505,925.8848,1384.7505,921.8848" style="stroke:#181818;stroke-width:1.0;"/><line style="stroke:#181818;stroke-width:1.0;" x1="579.4497" x2="579.4497" y1="632.8457" y2="903.8848"/><line style="stroke:#181818;stroke-width:1.0;" x1="579.4497" x2="1432.7505" y1="903.8848" y2="903.8848"/><line style="stroke:#181818;stroke-width:1.0;" x1="1432.7505" x2="1432.7505" y1="903.8848" y2="921.8848"/><line style="stroke:#181818;stroke-width:1.0;" x1="1432.7505" x2="1414.7505" y1="921.8848" y2="921.8848"/><polygon fill="#181818" points="1424.7505,917.8848,1414.7505,921.8848,1424.7505,925.8848,1420.7505,921.8848" style="stroke:#181818;stroke-width:1.0;"/><line style="stroke:#181818;stroke-width:1.0;" x1="1643.7312" x2="1655.7312" y1="466.6582" y2="466.6582"/><line style="stroke:#181818;stroke-width:1.0;" x1="1655.7312" x2="1655.7312" y1="466.6582" y2="484.6582"/><line style="stroke:#181818;stroke-width:1.0;" x1="1655.7312" x2="820.0532" y1="484.6582" y2="484.6582"/><line style="stroke:#181818;stroke-width:1.0;" x1="820.0532" x2="820.0532" y1="484.6582" y2="498.6582"/><polygon fill="#181818" points="816.0532,488.6582,820.0532,498.6582,824.0532,488.6582,820.0532,492.6582" style="stroke:#181818;stroke-width:1.0;"/><line style="stroke:#181818;stroke-width:1.0;" x1="820.0532" x2="820.0532" y1="533.752" y2="937.8848"/><line style="stroke:#181818;stroke-width:1.0;" x1="820.0532" x2="1620.1563" y1="937.8848" y2="937.8848"/><line style="stroke:#181818;stroke-width:1.0;" x1="1620.1563" x2="1620.1563" y1="937.8848" y2="955.8848"/><line style="stroke:#181818;stroke-width:1.0;" x1="1620.1563" x2="1602.1563" y1="955.8848" y2="955.8848"/><polygon fill="#181818" points="1612.1563,951.8848,1602.1563,955.8848,1612.1563,959.8848,1608.1563,955.8848" style="stroke:#181818;stroke-width:1.0;"/><line style="stroke:#181818;stroke-width:1.0;" x1="1805.5386" x2="1817.5386" y1="367.5645" y2="367.5645"/><line style="stroke:#181818;stroke-width:1.0;" x1="1817.5386" x2="1817.5386" y1="367.5645" y2="385.5645"/><line style="stroke:#181818;stroke-width:1.0;" x1="1817.5386" x2="1034.0522" y1="385.5645" y2="385.5645"/><line style="stroke:#181818;stroke-width:1.0;" x1="1034.0522" x2="1034.0522" y1="385.5645" y2="399.5645"/><polygon fill="#181818" points="1030.0522,389.5645,1034.0522,399.5645,1038.0522,389.5645,1034.0522,393.5645" style="stroke:#181818;stroke-width:1.0;"/><line style="stroke:#181818;stroke-width:1.0;" x1="1034.0522" x2="1034.0522" y1="434.6582" y2="971.8848"/><line style="stroke:#181818;stroke-width:1.0;" x1="1034.0522" x2="1790.2217" y1="971.8848" y2="971.8848"/><line style="stroke:#181818;stroke-width:1.0;" x1="1790.2217" x2="1790.2217" y1="971.8848" y2="989.8848"/><line style="stroke:#181818;stroke-width:1.0;" x1="1790.2217" x2="1772.2217" y1="989.8848" y2="989.8848"/><polygon fill="#181818" points="1782.2217,985.8848,1772.2217,989.8848,1782.2217,993.8848,1778.2217,989.8848" style="stroke:#181818;stroke-width:1.0;"/><line style="stroke:#181818;stroke-width:1.0;" x1="1760.2217" x2="1760.2217" y1="1001.8848" y2="1006.8848"/><line style="stroke:#181818;stroke-width:1.0;" x1="1760.2217" x2="812.8088" y1="1006.8848" y2="1006.8848"/><line style="stroke:#181818;stroke-width:1.0;" x1="812.8088" x2="812.8088" y1="1006.8848" y2="1021.8848"/><polygon fill="#181818" points="808.8088,1011.8848,812.8088,1021.8848,816.8088,1011.8848,812.8088,1015.8848" style="stroke:#181818;stroke-width:1.0;"/><text fill="#000000" font-family="sans-serif" font-size="18" lengthAdjust="spacing" textLength="38.0039" x="548.3718" y="31.1406">User</text><text fill="#000000" font-family="sans-serif" font-size="18" lengthAdjust="spacing" textLength="55.0107" x="1451.0869" y="31.1406">Sistem</text><!--SRC=[TLHDRwD03BtpAwoUqahT7v18tKkrqYeRgTfjA-tH52Uup0Vo3AagyUFh0P90e7D0yERv-TdZeNq996qM8ahCrZkoULCXb6ZGeWFZ3-ms7OwXgIg5z8tD5AenX0ylXQ9RmnL4RtDlu4yVdBN_E4IoRRP-HSC51eQz5uiHsDLDL0RlOVMhXuw9ylCMOaaELl_nDWDTciszeJ0qwXPo4bL16Tb9fEwHf599KB3cr5hSJAmJV2NXFLV9pCN-QVVyajIUXcrDwr0MrGQBsZkj8508xDtcUjSTqEPiGBoX04Ng6udbZXoks7-fOA6t21N18uOozpZsD_6OLjkVubL6mwNw-IR-l6_9DSbqWpnoD2Kx7mc43sMSm02x5Fo9xW0HRQtLZSvcVSMzXzHk-N47zmzzu3PzprYr-AAf0e-8JmCqux8xaejUnkJV9sp6rf76TzA2H-pT2PkmoHLTqSij9nC8LiywozLi25pNXsuqHRp0pNb-WbwgykRIMCt1- -dCBGelYNOZ7XFlCkY3z4KscyajI1s7Exd9-a3z5VWw-m80]--></g></svg>