<svg xmlns="http://www.w3.org/2000/svg" xmlns:xlink="http://www.w3.org/1999/xlink" contentStyleType="text/css" height="533px" preserveAspectRatio="none" style="width:437px;height:533px;background:#FFFFFF;" version="1.1" viewBox="0 0 437 533" width="437px" zoomAndPan="magnify"><title>Activity Diagram</title><defs/><g><text fill="#000000" font-family="sans-serif" font-size="14" font-weight="bold" lengthAdjust="spacing" textLength="110.4824" x="162.0439" y="34.5332">Activity Diagram</text><text fill="#000000" font-family="sans-serif" font-size="14" font-weight="bold" lengthAdjust="spacing" textLength="153.2549" x="140.6577" y="52.1426">Mengelola Bahan Baku</text><ellipse cx="232.9473" cy="76.2188" fill="#222222" rx="10" ry="10" style="stroke:#222222;stroke-width:1.0;"/><rect fill="#F1F1F1" height="35.0938" rx="12.5" ry="12.5" style="stroke:#181818;stroke-width:0.5;" width="286.8477" x="89.5234" y="106.2188"/><text fill="#000000" font-family="sans-serif" font-size="12" lengthAdjust="spacing" textLength="266.8477" x="99.5234" y="128.6758">Bagian Inventori mengakses halaman bahan baku</text><rect fill="#F1F1F1" height="35.0938" rx="12.5" ry="12.5" style="stroke:#181818;stroke-width:0.5;" width="280.8242" x="92.5352" y="161.3125"/><text fill="#000000" font-family="sans-serif" font-size="12" lengthAdjust="spacing" textLength="260.8242" x="102.5352" y="183.7695">Sistem menampilkan daftar bahan dengan status</text><polygon fill="#F1F1F1" points="219.498,216.4063,246.3965,216.4063,258.3965,228.4063,246.3965,240.4063,219.498,240.4063,207.498,228.4063,219.498,216.4063" style="stroke:#181818;stroke-width:0.5;"/><text fill="#000000" font-family="sans-serif" font-size="11" lengthAdjust="spacing" textLength="26.8984" x="219.498" y="232.9072">Aksi?</text><text fill="#000000" font-family="sans-serif" font-size="11" lengthAdjust="spacing" textLength="40.353" x="167.145" y="225.9893">Tambah</text><text fill="#000000" font-family="sans-serif" font-size="11" lengthAdjust="spacing" textLength="26.2969" x="258.3965" y="225.9893">Ubah</text><rect fill="#F1F1F1" height="35.0938" rx="12.5" ry="12.5" style="stroke:#181818;stroke-width:0.5;" width="182.0938" x="33.0078" y="250.4063"/><text fill="#000000" font-family="sans-serif" font-size="12" lengthAdjust="spacing" textLength="162.0938" x="43.0078" y="272.8633">Mengisi form bahan baku baru</text><rect fill="#F1F1F1" height="35.0938" rx="12.5" ry="12.5" style="stroke:#181818;stroke-width:0.5;" width="226.1094" x="11" y="305.5"/><text fill="#000000" font-family="sans-serif" font-size="12" lengthAdjust="spacing" textLength="206.1094" x="21" y="327.957">Menentukan satuan dan stok minimum</text><rect fill="#F1F1F1" height="35.0938" rx="12.5" ry="12.5" style="stroke:#181818;stroke-width:0.5;" width="108.7168" x="69.6963" y="360.5938"/><text fill="#000000" font-family="sans-serif" font-size="12" lengthAdjust="spacing" textLength="88.7168" x="79.6963" y="383.0508">Menyimpan data</text><rect fill="#F1F1F1" height="35.0938" rx="12.5" ry="12.5" style="stroke:#181818;stroke-width:0.5;" width="202.2734" x="22.918" y="415.6875"/><text fill="#000000" font-family="sans-serif" font-size="12" lengthAdjust="spacing" textLength="182.2734" x="32.918" y="438.1445">Sistem set status awal = "Kosong"</text><rect fill="#F1F1F1" height="35.0938" rx="12.5" ry="12.5" style="stroke:#181818;stroke-width:0.5;" width="127.3965" x="278.1416" y="250.4063"/><text fill="#000000" font-family="sans-serif" font-size="12" lengthAdjust="spacing" textLength="107.3965" x="288.1416" y="272.8633">Memilih bahan baku</text><rect fill="#F1F1F1" height="35.0938" rx="12.5" ry="12.5" style="stroke:#181818;stroke-width:0.5;" width="169.4609" x="257.1094" y="305.5"/><text fill="#000000" font-family="sans-serif" font-size="12" lengthAdjust="spacing" textLength="149.4609" x="267.1094" y="327.957">Mengubah data bahan baku</text><rect fill="#F1F1F1" height="35.0938" rx="12.5" ry="12.5" style="stroke:#181818;stroke-width:0.5;" width="142.748" x="270.4658" y="360.5938"/><text fill="#000000" font-family="sans-serif" font-size="12" lengthAdjust="spacing" textLength="122.748" x="280.4658" y="383.0508">Menyimpan perubahan</text><rect fill="#F1F1F1" height="35.0938" rx="12.5" ry="12.5" style="stroke:#181818;stroke-width:0.5;" width="157.3906" x="263.1445" y="415.6875"/><text fill="#000000" font-family="sans-serif" font-size="12" lengthAdjust="spacing" textLength="137.3906" x="273.1445" y="438.1445">Sistem memperbarui data</text><polygon fill="#F1F1F1" points="232.9473,456.7813,244.9473,468.7813,232.9473,480.7813,220.9473,468.7813,232.9473,456.7813" style="stroke:#181818;stroke-width:0.5;"/><ellipse cx="232.9473" cy="511.7813" fill="none" rx="11" ry="11" style="stroke:#222222;stroke-width:1.0;"/><ellipse cx="232.9473" cy="511.7813" fill="#222222" rx="6" ry="6" style="stroke:#222222;stroke-width:1.0;"/><line style="stroke:#181818;stroke-width:1.0;" x1="232.9473" x2="232.9473" y1="86.2188" y2="106.2188"/><polygon fill="#181818" points="228.9473,96.2188,232.9473,106.2188,236.9473,96.2188,232.9473,100.2188" style="stroke:#181818;stroke-width:1.0;"/><line style="stroke:#181818;stroke-width:1.0;" x1="232.9473" x2="232.9473" y1="141.3125" y2="161.3125"/><polygon fill="#181818" points="228.9473,151.3125,232.9473,161.3125,236.9473,151.3125,232.9473,155.3125" style="stroke:#181818;stroke-width:1.0;"/><line style="stroke:#181818;stroke-width:1.0;" x1="124.0547" x2="124.0547" y1="285.5" y2="305.5"/><polygon fill="#181818" points="120.0547,295.5,124.0547,305.5,128.0547,295.5,124.0547,299.5" style="stroke:#181818;stroke-width:1.0;"/><line style="stroke:#181818;stroke-width:1.0;" x1="124.0547" x2="124.0547" y1="340.5938" y2="360.5938"/><polygon fill="#181818" points="120.0547,350.5938,124.0547,360.5938,128.0547,350.5938,124.0547,354.5938" style="stroke:#181818;stroke-width:1.0;"/><line style="stroke:#181818;stroke-width:1.0;" x1="124.0547" x2="124.0547" y1="395.6875" y2="415.6875"/><polygon fill="#181818" points="120.0547,405.6875,124.0547,415.6875,128.0547,405.6875,124.0547,409.6875" style="stroke:#181818;stroke-width:1.0;"/><line style="stroke:#181818;stroke-width:1.0;" x1="341.8398" x2="341.8398" y1="285.5" y2="305.5"/><polygon fill="#181818" points="337.8398,295.5,341.8398,305.5,345.8398,295.5,341.8398,299.5" style="stroke:#181818;stroke-width:1.0;"/><line style="stroke:#181818;stroke-width:1.0;" x1="341.8398" x2="341.8398" y1="340.5938" y2="360.5938"/><polygon fill="#181818" points="337.8398,350.5938,341.8398,360.5938,345.8398,350.5938,341.8398,354.5938" style="stroke:#181818;stroke-width:1.0;"/><line style="stroke:#181818;stroke-width:1.0;" x1="341.8398" x2="341.8398" y1="395.6875" y2="415.6875"/><polygon fill="#181818" points="337.8398,405.6875,341.8398,415.6875,345.8398,405.6875,341.8398,409.6875" style="stroke:#181818;stroke-width:1.0;"/><line style="stroke:#181818;stroke-width:1.0;" x1="207.498" x2="124.0547" y1="228.4063" y2="228.4063"/><line style="stroke:#181818;stroke-width:1.0;" x1="124.0547" x2="124.0547" y1="228.4063" y2="250.4063"/><polygon fill="#181818" points="120.0547,240.4063,124.0547,250.4063,128.0547,240.4063,124.0547,244.4063" style="stroke:#181818;stroke-width:1.0;"/><line style="stroke:#181818;stroke-width:1.0;" x1="258.3965" x2="341.8398" y1="228.4063" y2="228.4063"/><line style="stroke:#181818;stroke-width:1.0;" x1="341.8398" x2="341.8398" y1="228.4063" y2="250.4063"/><polygon fill="#181818" points="337.8398,240.4063,341.8398,250.4063,345.8398,240.4063,341.8398,244.4063" style="stroke:#181818;stroke-width:1.0;"/><line style="stroke:#181818;stroke-width:1.0;" x1="124.0547" x2="124.0547" y1="450.7813" y2="468.7813"/><line style="stroke:#181818;stroke-width:1.0;" x1="124.0547" x2="220.9473" y1="468.7813" y2="468.7813"/><polygon fill="#181818" points="210.9473,464.7813,220.9473,468.7813,210.9473,472.7813,214.9473,468.7813" style="stroke:#181818;stroke-width:1.0;"/><line style="stroke:#181818;stroke-width:1.0;" x1="341.8398" x2="341.8398" y1="450.7813" y2="468.7813"/><line style="stroke:#181818;stroke-width:1.0;" x1="341.8398" x2="244.9473" y1="468.7813" y2="468.7813"/><polygon fill="#181818" points="254.9473,464.7813,244.9473,468.7813,254.9473,472.7813,250.9473,468.7813" style="stroke:#181818;stroke-width:1.0;"/><line style="stroke:#181818;stroke-width:1.0;" x1="232.9473" x2="232.9473" y1="196.4063" y2="216.4063"/><polygon fill="#181818" points="228.9473,206.4063,232.9473,216.4063,236.9473,206.4063,232.9473,210.4063" style="stroke:#181818;stroke-width:1.0;"/><line style="stroke:#181818;stroke-width:1.0;" x1="232.9473" x2="232.9473" y1="480.7813" y2="500.7813"/><polygon fill="#181818" points="228.9473,490.7813,232.9473,500.7813,236.9473,490.7813,232.9473,494.7813" style="stroke:#181818;stroke-width:1.0;"/><!--SRC=[RP4nRiCm34LtdOB8v5p1GL4aw58KdP9kNPYOjWc9ac3HANBxqeRQ9a0rSE3_v7-4YkUOSK81l2XVMM_74JD1kYWEAJgdh85WNqLuOHpC_HdVAGuKKa0uu8ZHgf-TAugJklQ00rllDLufQfeOnDpe2nKOCQ2OTbwdpZQrS-sHYv8iBfJCmPlIOM-xggrRnYFOTftBpZdkeTdxmizRq94YD2SKSsuTs6iND2uCVPhaBiVAP64_5YERbw1YEzUyPN_o81nPPlaptbZoQb2ipOfRI2iIu1S6U8BDMoef3fkTer08cezxAE70uyFTlxIpTTU0V-KAa6cQL_cHGaXCMMxZoaYnuzw-8cNt3G00]--></g></svg>