<svg xmlns="http://www.w3.org/2000/svg" xmlns:xlink="http://www.w3.org/1999/xlink" contentStyleType="text/css" height="627px" preserveAspectRatio="none" style="width:487px;height:627px;background:#FFFFFF;" version="1.1" viewBox="0 0 487 627" width="487px" zoomAndPan="magnify"><defs/><g><ellipse cx="171.3843" cy="20" fill="#222222" rx="10" ry="10" style="stroke:#222222;stroke-width:1.0;"/><path d="M292.439,46.1953 L292.439,63.5469 L272.439,67.5469 L292.439,71.5469 L292.439,88.8984 A0,0 0 0 0 292.439,88.8984 L475.3105,88.8984 A0,0 0 0 0 475.3105,88.8984 L475.3105,56.1953 L465.3105,46.1953 L292.439,46.1953 A0,0 0 0 0 292.439,46.1953 " fill="#FEFFDD" style="stroke:#181818;stroke-width:0.5;"/><path d="M465.3105,46.1953 L465.3105,56.1953 L475.3105,56.1953 L465.3105,46.1953 " fill="#FEFFDD" style="stroke:#181818;stroke-width:0.5;"/><text fill="#000000" font-family="sans-serif" font-size="13" lengthAdjust="spacing" textLength="124.2935" x="298.439" y="64.6904">Dijalankan setiap hari</text><text fill="#000000" font-family="sans-serif" font-size="13" lengthAdjust="spacing" textLength="161.8716" x="298.439" y="81.042">pukul 00:00 (tengah malam)</text><rect fill="#F1F1F1" height="35.0938" rx="12.5" ry="12.5" style="stroke:#181818;stroke-width:0.5;" width="202.1094" x="70.3296" y="50"/><text fill="#000000" font-family="sans-serif" font-size="12" lengthAdjust="spacing" textLength="182.1094" x="80.3296" y="72.457">Menjalankan scheduled command</text><rect fill="#F1F1F1" height="35.0938" rx="12.5" ry="12.5" style="stroke:#181818;stroke-width:0.5;" width="132.0547" x="105.3569" y="108.8984"/><text fill="#000000" font-family="sans-serif" font-size="12" lengthAdjust="spacing" textLength="112.0547" x="115.3569" y="131.3555">Query semua produk</text><polygon fill="#F1F1F1" points="147.9932,220.9111,194.7754,220.9111,206.7754,232.9111,194.7754,244.9111,147.9932,244.9111,135.9932,232.9111,147.9932,220.9111" style="stroke:#181818;stroke-width:0.5;"/><text fill="#000000" font-family="sans-serif" font-size="11" lengthAdjust="spacing" textLength="46.7822" x="147.9932" y="237.4121">Stok &gt; 0?</text><text fill="#000000" font-family="sans-serif" font-size="11" lengthAdjust="spacing" textLength="13.4546" x="122.5386" y="230.4941">Ya</text><text fill="#000000" font-family="sans-serif" font-size="11" lengthAdjust="spacing" textLength="26.8984" x="206.7754" y="230.4941">Tidak</text><rect fill="#F1F1F1" height="35.0938" rx="12.5" ry="12.5" style="stroke:#181818;stroke-width:0.5;" width="132.0547" x="38" y="254.9111"/><text fill="#000000" font-family="sans-serif" font-size="12" lengthAdjust="spacing" textLength="112.0547" x="48" y="277.3682">Reset stok menjadi 0</text><rect fill="#F1F1F1" height="35.0938" rx="12.5" ry="12.5" style="stroke:#181818;stroke-width:0.5;" width="118.7188" x="44.668" y="316.5869"/><text fill="#000000" font-family="sans-serif" font-size="12" lengthAdjust="spacing" textLength="98.7188" x="54.668" y="339.0439">Mencatat log reset</text><rect fill="#F1F1F1" height="35.0938" rx="12.5" ry="12.5" style="stroke:#181818;stroke-width:0.5;" width="97.373" x="190.0547" y="254.9111"/><text fill="#000000" font-family="sans-serif" font-size="12" lengthAdjust="spacing" textLength="77.373" x="200.0547" y="277.3682">Skip (sudah 0)</text><polygon fill="#F1F1F1" points="171.3843,357.6807,183.3843,369.6807,171.3843,381.6807,159.3843,369.6807,171.3843,357.6807" style="stroke:#181818;stroke-width:0.5;"/><polygon fill="#F1F1F1" points="122.467,163.9922,220.3015,163.9922,232.3015,175.9922,220.3015,187.9922,122.467,187.9922,110.467,175.9922,122.467,163.9922" style="stroke:#181818;stroke-width:0.5;"/><text fill="#000000" font-family="sans-serif" font-size="11" lengthAdjust="spacing" textLength="19.5723" x="175.3843" y="199.4111">Ada</text><text fill="#000000" font-family="sans-serif" font-size="11" lengthAdjust="spacing" textLength="97.8345" x="122.467" y="180.4932">Untuk setiap produk</text><text fill="#000000" font-family="sans-serif" font-size="11" lengthAdjust="spacing" textLength="36.0776" x="74.3894" y="173.5752">Selesai</text><rect fill="#F1F1F1" height="35.0938" rx="12.5" ry="12.5" style="stroke:#181818;stroke-width:0.5;" width="98.0469" x="122.3608" y="423.6807"/><text fill="#000000" font-family="sans-serif" font-size="12" lengthAdjust="spacing" textLength="78.0469" x="132.3608" y="446.1377">Log hasil reset</text><rect fill="#F1F1F1" height="35.0938" rx="12.5" ry="12.5" style="stroke:#181818;stroke-width:0.5;" width="206.0527" x="68.3579" y="478.7744"/><text fill="#000000" font-family="sans-serif" font-size="12" lengthAdjust="spacing" textLength="186.0527" x="78.3579" y="501.2314">Kirim notifikasi (Reset stok selesai)</text><path d="M202.3843,523.8682 L202.3843,565.7471 L182.3843,569.7471 L202.3843,573.7471 L202.3843,615.626 A0,0 0 0 0 202.3843,615.626 L366.4604,615.626 A0,0 0 0 0 366.4604,615.626 L366.4604,533.8682 L356.4604,523.8682 L202.3843,523.8682 A0,0 0 0 0 202.3843,523.8682 " fill="#FEFFDD" style="stroke:#181818;stroke-width:0.5;"/><path d="M356.4604,523.8682 L356.4604,533.8682 L366.4604,533.8682 L356.4604,523.8682 " fill="#FEFFDD" style="stroke:#181818;stroke-width:0.5;"/><text fill="#000000" font-family="sans-serif" font-size="13" lengthAdjust="spacing" textLength="115.6226" x="208.3843" y="542.3633">Alasan reset harian:</text><text fill="#000000" font-family="sans-serif" font-size="13" lengthAdjust="spacing" textLength="133.6753" x="208.3843" y="558.7148">Produk kue/roti bersifat</text><text fill="#000000" font-family="sans-serif" font-size="13" lengthAdjust="spacing" textLength="143.0762" x="208.3843" y="575.0664">perishable (mudah basi),</text><text fill="#000000" font-family="sans-serif" font-size="13" lengthAdjust="spacing" textLength="111.2935" x="208.3843" y="591.418">sehingga stok tidak</text><text fill="#000000" font-family="sans-serif" font-size="13" lengthAdjust="spacing" textLength="121.3926" x="208.3843" y="607.7695">akumulatif antar hari.</text><ellipse cx="171.3843" cy="569.7471" fill="none" rx="11" ry="11" style="stroke:#222222;stroke-width:1.0;"/><ellipse cx="171.3843" cy="569.7471" fill="#222222" rx="6" ry="6" style="stroke:#222222;stroke-width:1.0;"/><line style="stroke:#181818;stroke-width:1.0;" x1="171.3843" x2="171.3843" y1="30" y2="50"/><polygon fill="#181818" points="167.3843,40,171.3843,50,175.3843,40,171.3843,44" style="stroke:#181818;stroke-width:1.0;"/><line style="stroke:#181818;stroke-width:1.0;" x1="171.3843" x2="171.3843" y1="85.0938" y2="108.8984"/><polygon fill="#181818" points="167.3843,98.8984,171.3843,108.8984,175.3843,98.8984,171.3843,102.8984" style="stroke:#181818;stroke-width:1.0;"/><line style="stroke:#181818;stroke-width:1.0;" x1="104.0273" x2="104.0273" y1="290.0049" y2="316.5869"/><polygon fill="#181818" points="100.0273,306.5869,104.0273,316.5869,108.0273,306.5869,104.0273,310.5869" style="stroke:#181818;stroke-width:1.0;"/><line style="stroke:#181818;stroke-width:1.0;" x1="135.9932" x2="104.0273" y1="232.9111" y2="232.9111"/><line style="stroke:#181818;stroke-width:1.0;" x1="104.0273" x2="104.0273" y1="232.9111" y2="254.9111"/><polygon fill="#181818" points="100.0273,244.9111,104.0273,254.9111,108.0273,244.9111,104.0273,248.9111" style="stroke:#181818;stroke-width:1.0;"/><line style="stroke:#181818;stroke-width:1.0;" x1="206.7754" x2="238.7412" y1="232.9111" y2="232.9111"/><line style="stroke:#181818;stroke-width:1.0;" x1="238.7412" x2="238.7412" y1="232.9111" y2="254.9111"/><polygon fill="#181818" points="234.7412,244.9111,238.7412,254.9111,242.7412,244.9111,238.7412,248.9111" style="stroke:#181818;stroke-width:1.0;"/><line style="stroke:#181818;stroke-width:1.0;" x1="104.0273" x2="104.0273" y1="351.6807" y2="369.6807"/><line style="stroke:#181818;stroke-width:1.0;" x1="104.0273" x2="159.3843" y1="369.6807" y2="369.6807"/><polygon fill="#181818" points="149.3843,365.6807,159.3843,369.6807,149.3843,373.6807,153.3843,369.6807" style="stroke:#181818;stroke-width:1.0;"/><line style="stroke:#181818;stroke-width:1.0;" x1="238.7412" x2="238.7412" y1="290.0049" y2="369.6807"/><line style="stroke:#181818;stroke-width:1.0;" x1="238.7412" x2="183.3843" y1="369.6807" y2="369.6807"/><polygon fill="#181818" points="193.3843,365.6807,183.3843,369.6807,193.3843,373.6807,189.3843,369.6807" style="stroke:#181818;stroke-width:1.0;"/><line style="stroke:#181818;stroke-width:1.0;" x1="171.3843" x2="171.3843" y1="187.9922" y2="220.9111"/><polygon fill="#181818" points="167.3843,210.9111,171.3843,220.9111,175.3843,210.9111,171.3843,214.9111" style="stroke:#181818;stroke-width:1.0;"/><line style="stroke:#181818;stroke-width:1.0;" x1="171.3843" x2="171.3843" y1="381.6807" y2="391.6807"/><line style="stroke:#181818;stroke-width:1.0;" x1="171.3843" x2="309.4277" y1="391.6807" y2="391.6807"/><polygon fill="#181818" points="305.4277,296.5869,309.4277,286.5869,313.4277,296.5869,309.4277,292.5869" style="stroke:#181818;stroke-width:1.0;"/><line style="stroke:#181818;stroke-width:1.0;" x1="309.4277" x2="309.4277" y1="175.9922" y2="391.6807"/><line style="stroke:#181818;stroke-width:1.0;" x1="309.4277" x2="232.3015" y1="175.9922" y2="175.9922"/><polygon fill="#181818" points="242.3015,171.9922,232.3015,175.9922,242.3015,179.9922,238.3015,175.9922" style="stroke:#181818;stroke-width:1.0;"/><line style="stroke:#181818;stroke-width:1.0;" x1="110.467" x2="24" y1="175.9922" y2="175.9922"/><polygon fill="#181818" points="20,282.5869,24,292.5869,28,282.5869,24,286.5869" style="stroke:#181818;stroke-width:1.0;"/><line style="stroke:#181818;stroke-width:1.0;" x1="24" x2="24" y1="175.9922" y2="403.6807"/><line style="stroke:#181818;stroke-width:1.0;" x1="24" x2="171.3843" y1="403.6807" y2="403.6807"/><line style="stroke:#181818;stroke-width:1.0;" x1="171.3843" x2="171.3843" y1="403.6807" y2="423.6807"/><polygon fill="#181818" points="167.3843,413.6807,171.3843,423.6807,175.3843,413.6807,171.3843,417.6807" style="stroke:#181818;stroke-width:1.0;"/><line style="stroke:#181818;stroke-width:1.0;" x1="171.3843" x2="171.3843" y1="143.9922" y2="163.9922"/><polygon fill="#181818" points="167.3843,153.9922,171.3843,163.9922,175.3843,153.9922,171.3843,157.9922" style="stroke:#181818;stroke-width:1.0;"/><line style="stroke:#181818;stroke-width:1.0;" x1="171.3843" x2="171.3843" y1="458.7744" y2="478.7744"/><polygon fill="#181818" points="167.3843,468.7744,171.3843,478.7744,175.3843,468.7744,171.3843,472.7744" style="stroke:#181818;stroke-width:1.0;"/><line style="stroke:#181818;stroke-width:1.0;" x1="171.3843" x2="171.3843" y1="513.8682" y2="558.7471"/><polygon fill="#181818" points="167.3843,548.7471,171.3843,558.7471,175.3843,548.7471,171.3843,552.7471" style="stroke:#181818;stroke-width:1.0;"/><!--SRC=[LLBBJiCm4BpxA_QOI0XoJYLG9Mw010GE7BVrDbxyIEI7458_ddMQgiMtU6PdPoO-3fmoUMY6lI5T7CNsg5B6c5N_Gk4R7GQB0T8AQzXFtcFG6nMcJ11vD5a1FFA5Ifbn1eEH1PYBBGwwhkywQ3A54GrueVfMKT1GHPJgtmh5Nvdq1M6EaovsezIFOKVGV8PSx5dr1BR02PgjnbOs0F11_EV9mZrq3oraGm6QhnMiftydcOTKERwcqWpTvW9BqZrcpE2c4MBbda1oIGnyi4Px9JPOdg59HKkKhbsPGVEX9bfD3-Ge8RUIxLaq3IPsP-N-YIFx6fqFR0M1vifVMYUb0FcUrV-UjmwJTBmeBHLZwENwTQa5RA6xABAmevZuW7LYfiZ9uAwwyelddQniRmHAP3YC8vuMvnfJRj4MNnoAES0WBs5PStlvMty0]--></g></svg>