<svg xmlns="http://www.w3.org/2000/svg" xmlns:xlink="http://www.w3.org/1999/xlink" contentStyleType="text/css" height="864px" preserveAspectRatio="none" style="width:426px;height:864px;background:#FFFFFF;" version="1.1" viewBox="0 0 426 864" width="426px" zoomAndPan="magnify"><title>Activity Diagram</title><defs/><g><text fill="#000000" font-family="sans-serif" font-size="14" font-weight="bold" lengthAdjust="spacing" textLength="110.4824" x="156.6738" y="34.5332">Activity Diagram</text><text fill="#000000" font-family="sans-serif" font-size="14" font-weight="bold" lengthAdjust="spacing" textLength="245.0547" x="89.3877" y="52.1426">Proses Refund (Pengembalian Dana)</text><ellipse cx="205.2485" cy="76.2188" fill="#222222" rx="10" ry="10" style="stroke:#222222;stroke-width:1.0;"/><rect fill="#F1F1F1" height="35.0938" rx="12.5" ry="12.5" style="stroke:#181818;stroke-width:0.5;" width="204.7344" x="102.8813" y="106.2188"/><text fill="#000000" font-family="sans-serif" font-size="12" lengthAdjust="spacing" textLength="184.7344" x="112.8813" y="128.6758">Kasir mengakses riwayat transaksi</text><rect fill="#F1F1F1" height="35.0938" rx="12.5" ry="12.5" style="stroke:#181818;stroke-width:0.5;" width="210.0957" x="100.2007" y="161.3125"/><text fill="#000000" font-family="sans-serif" font-size="12" lengthAdjust="spacing" textLength="190.0957" x="110.2007" y="183.7695">Memilih transaksi yang sudah lunas</text><rect fill="#F1F1F1" height="35.0938" rx="12.5" ry="12.5" style="stroke:#181818;stroke-width:0.5;" width="187.2676" x="111.6147" y="216.4063"/><text fill="#000000" font-family="sans-serif" font-size="12" lengthAdjust="spacing" textLength="167.2676" x="121.6147" y="238.8633">Memilih opsi "Refund/Batalkan"</text><rect fill="#F1F1F1" height="35.0938" rx="12.5" ry="12.5" style="stroke:#181818;stroke-width:0.5;" width="196.1035" x="107.1968" y="271.5"/><text fill="#000000" font-family="sans-serif" font-size="12" lengthAdjust="spacing" textLength="176.1035" x="117.1968" y="293.957">Memasukkan alasan pembatalan</text><rect fill="#F1F1F1" height="35.0938" rx="12.5" ry="12.5" style="stroke:#181818;stroke-width:0.5;" width="206.1289" x="102.1841" y="326.5938"/><text fill="#000000" font-family="sans-serif" font-size="12" lengthAdjust="spacing" textLength="186.1289" x="112.1841" y="349.0508">Unggah bukti pendukung (jika ada)</text><rect fill="#F1F1F1" height="35.0938" rx="12.5" ry="12.5" style="stroke:#181818;stroke-width:0.5;" width="183.4238" x="113.5366" y="381.6875"/><text fill="#000000" font-family="sans-serif" font-size="12" lengthAdjust="spacing" textLength="163.4238" x="123.5366" y="404.1445">Memilih metode pengembalian</text><polygon fill="#F1F1F1" points="183.8447,436.7813,226.6523,436.7813,238.6523,448.7813,226.6523,460.7813,183.8447,460.7813,171.8447,448.7813,183.8447,436.7813" style="stroke:#181818;stroke-width:0.5;"/><text fill="#000000" font-family="sans-serif" font-size="11" lengthAdjust="spacing" textLength="42.8076" x="183.8447" y="453.2822">Metode?</text><text fill="#000000" font-family="sans-serif" font-size="11" lengthAdjust="spacing" textLength="27.5161" x="144.3286" y="446.3643">Tunai</text><text fill="#000000" font-family="sans-serif" font-size="11" lengthAdjust="spacing" textLength="40.9546" x="238.6523" y="446.3643">Transfer</text><rect fill="#F1F1F1" height="35.0938" rx="12.5" ry="12.5" style="stroke:#181818;stroke-width:0.5;" width="176.082" x="11" y="470.7813"/><text fill="#000000" font-family="sans-serif" font-size="12" lengthAdjust="spacing" textLength="156.082" x="21" y="493.2383">Kasir memberikan uang tunai</text><rect fill="#F1F1F1" height="35.0938" rx="12.5" ry="12.5" style="stroke:#181818;stroke-width:0.5;" width="208.748" x="207.082" y="470.7813"/><text fill="#000000" font-family="sans-serif" font-size="12" lengthAdjust="spacing" textLength="188.748" x="217.082" y="493.2383">Kasir memasukkan nomor rekening</text><rect fill="#F1F1F1" height="35.0938" rx="12.5" ry="12.5" style="stroke:#181818;stroke-width:0.5;" width="152.0762" x="235.418" y="525.875"/><text fill="#000000" font-family="sans-serif" font-size="12" lengthAdjust="spacing" textLength="132.0762" x="245.418" y="548.332">Melakukan transfer dana</text><polygon fill="#F1F1F1" points="205.2485,566.9688,217.2485,578.9688,205.2485,590.9688,193.2485,578.9688,205.2485,566.9688" style="stroke:#181818;stroke-width:0.5;"/><rect fill="#F1F1F1" height="35.0938" rx="12.5" ry="12.5" style="stroke:#181818;stroke-width:0.5;" width="199.4023" x="105.5474" y="610.9688"/><text fill="#000000" font-family="sans-serif" font-size="12" lengthAdjust="spacing" textLength="179.4023" x="115.5474" y="633.4258">Sistem memvalidasi status refund</text><rect fill="#F1F1F1" height="35.0938" rx="12.5" ry="12.5" style="stroke:#181818;stroke-width:0.5;" width="210.0898" x="100.2036" y="666.0625"/><text fill="#000000" font-family="sans-serif" font-size="12" lengthAdjust="spacing" textLength="190.0898" x="110.2036" y="688.5195">Sistem mengembalikan stok produk</text><rect fill="#F1F1F1" height="35.0938" rx="12.5" ry="12.5" style="stroke:#181818;stroke-width:0.5;" width="184.2676" x="113.1147" y="721.1563"/><text fill="#000000" font-family="sans-serif" font-size="12" lengthAdjust="spacing" textLength="164.2676" x="123.1147" y="743.6133">Status transaksi = "Dibatalkan"</text><rect fill="#F1F1F1" height="35.0938" rx="12.5" ry="12.5" style="stroke:#181818;stroke-width:0.5;" width="184.9531" x="112.772" y="776.25"/><text fill="#000000" font-family="sans-serif" font-size="12" lengthAdjust="spacing" textLength="164.9531" x="122.772" y="798.707">Status pembayaran = "Refund"</text><ellipse cx="205.2485" cy="842.3438" fill="none" rx="11" ry="11" style="stroke:#222222;stroke-width:1.0;"/><ellipse cx="205.2485" cy="842.3438" fill="#222222" rx="6" ry="6" style="stroke:#222222;stroke-width:1.0;"/><line style="stroke:#181818;stroke-width:1.0;" x1="205.2485" x2="205.2485" y1="86.2188" y2="106.2188"/><polygon fill="#181818" points="201.2485,96.2188,205.2485,106.2188,209.2485,96.2188,205.2485,100.2188" style="stroke:#181818;stroke-width:1.0;"/><line style="stroke:#181818;stroke-width:1.0;" x1="205.2485" x2="205.2485" y1="141.3125" y2="161.3125"/><polygon fill="#181818" points="201.2485,151.3125,205.2485,161.3125,209.2485,151.3125,205.2485,155.3125" style="stroke:#181818;stroke-width:1.0;"/><line style="stroke:#181818;stroke-width:1.0;" x1="205.2485" x2="205.2485" y1="196.4063" y2="216.4063"/><polygon fill="#181818" points="201.2485,206.4063,205.2485,216.4063,209.2485,206.4063,205.2485,210.4063" style="stroke:#181818;stroke-width:1.0;"/><line style="stroke:#181818;stroke-width:1.0;" x1="205.2485" x2="205.2485" y1="251.5" y2="271.5"/><polygon fill="#181818" points="201.2485,261.5,205.2485,271.5,209.2485,261.5,205.2485,265.5" style="stroke:#181818;stroke-width:1.0;"/><line style="stroke:#181818;stroke-width:1.0;" x1="205.2485" x2="205.2485" y1="306.5938" y2="326.5938"/><polygon fill="#181818" points="201.2485,316.5938,205.2485,326.5938,209.2485,316.5938,205.2485,320.5938" style="stroke:#181818;stroke-width:1.0;"/><line style="stroke:#181818;stroke-width:1.0;" x1="205.2485" x2="205.2485" y1="361.6875" y2="381.6875"/><polygon fill="#181818" points="201.2485,371.6875,205.2485,381.6875,209.2485,371.6875,205.2485,375.6875" style="stroke:#181818;stroke-width:1.0;"/><line style="stroke:#181818;stroke-width:1.0;" x1="311.4561" x2="311.4561" y1="505.875" y2="525.875"/><polygon fill="#181818" points="307.4561,515.875,311.4561,525.875,315.4561,515.875,311.4561,519.875" style="stroke:#181818;stroke-width:1.0;"/><line style="stroke:#181818;stroke-width:1.0;" x1="171.8447" x2="99.041" y1="448.7813" y2="448.7813"/><line style="stroke:#181818;stroke-width:1.0;" x1="99.041" x2="99.041" y1="448.7813" y2="470.7813"/><polygon fill="#181818" points="95.041,460.7813,99.041,470.7813,103.041,460.7813,99.041,464.7813" style="stroke:#181818;stroke-width:1.0;"/><line style="stroke:#181818;stroke-width:1.0;" x1="238.6523" x2="311.4561" y1="448.7813" y2="448.7813"/><line style="stroke:#181818;stroke-width:1.0;" x1="311.4561" x2="311.4561" y1="448.7813" y2="470.7813"/><polygon fill="#181818" points="307.4561,460.7813,311.4561,470.7813,315.4561,460.7813,311.4561,464.7813" style="stroke:#181818;stroke-width:1.0;"/><line style="stroke:#181818;stroke-width:1.0;" x1="99.041" x2="99.041" y1="505.875" y2="578.9688"/><line style="stroke:#181818;stroke-width:1.0;" x1="99.041" x2="193.2485" y1="578.9688" y2="578.9688"/><polygon fill="#181818" points="183.2485,574.9688,193.2485,578.9688,183.2485,582.9688,187.2485,578.9688" style="stroke:#181818;stroke-width:1.0;"/><line style="stroke:#181818;stroke-width:1.0;" x1="311.4561" x2="311.4561" y1="560.9688" y2="578.9688"/><line style="stroke:#181818;stroke-width:1.0;" x1="311.4561" x2="217.2485" y1="578.9688" y2="578.9688"/><polygon fill="#181818" points="227.2485,574.9688,217.2485,578.9688,227.2485,582.9688,223.2485,578.9688" style="stroke:#181818;stroke-width:1.0;"/><line style="stroke:#181818;stroke-width:1.0;" x1="205.2485" x2="205.2485" y1="416.7813" y2="436.7813"/><polygon fill="#181818" points="201.2485,426.7813,205.2485,436.7813,209.2485,426.7813,205.2485,430.7813" style="stroke:#181818;stroke-width:1.0;"/><line style="stroke:#181818;stroke-width:1.0;" x1="205.2485" x2="205.2485" y1="590.9688" y2="610.9688"/><polygon fill="#181818" points="201.2485,600.9688,205.2485,610.9688,209.2485,600.9688,205.2485,604.9688" style="stroke:#181818;stroke-width:1.0;"/><line style="stroke:#181818;stroke-width:1.0;" x1="205.2485" x2="205.2485" y1="646.0625" y2="666.0625"/><polygon fill="#181818" points="201.2485,656.0625,205.2485,666.0625,209.2485,656.0625,205.2485,660.0625" style="stroke:#181818;stroke-width:1.0;"/><line style="stroke:#181818;stroke-width:1.0;" x1="205.2485" x2="205.2485" y1="701.1563" y2="721.1563"/><polygon fill="#181818" points="201.2485,711.1563,205.2485,721.1563,209.2485,711.1563,205.2485,715.1563" style="stroke:#181818;stroke-width:1.0;"/><line style="stroke:#181818;stroke-width:1.0;" x1="205.2485" x2="205.2485" y1="756.25" y2="776.25"/><polygon fill="#181818" points="201.2485,766.25,205.2485,776.25,209.2485,766.25,205.2485,770.25" style="stroke:#181818;stroke-width:1.0;"/><line style="stroke:#181818;stroke-width:1.0;" x1="205.2485" x2="205.2485" y1="811.3438" y2="831.3438"/><polygon fill="#181818" points="201.2485,821.3438,205.2485,831.3438,209.2485,821.3438,205.2485,825.3438" style="stroke:#181818;stroke-width:1.0;"/><!--SRC=[NPAzRiCm38HtFGMHAPwwnoYA5jcA047JRbtec7POsPGXKIdozgMSNzIBOTt78tboyYmJHXm1zyf7rjFkW1D1s2lsGPnJre7WzIB2ch4t-bksCIHAy45TbXQMMvAUnWO7He4r2bRE9SMeRlMEYIEC1g0l9P5_yOGA6b6I7N7jLXiQUU33_GnEA3satE81XYoO7g0mcRuuTtvwGyN1eongDnEOihTFm06JlQOob14ePl0bVMz-JVRAfaYRVROkon_s2DXYzT1a90qj5UgsbtNW3fQRMNcfG0yaiFoqwRXoOCzjrR6Xo6MANBRGGjIEXaI6bmqxYlyhhdDB64E4I9w4fQ_Fr8O6zBd8UYc7rZ8sJscviyLtd9J6udEqKLip1KjViwKznrG_8DU5YbtIu66AmP8eoBdaVWdFi5XpSq_uIiofdkotaOASRy9aSvlS7m00]--></g></svg>