<svg xmlns="http://www.w3.org/2000/svg" xmlns:xlink="http://www.w3.org/1999/xlink" contentStyleType="text/css" height="1236px" preserveAspectRatio="none" style="width:2969px;height:1236px;background:#FFFFFF;" version="1.1" viewBox="0 0 2969 1236" width="2969px" zoomAndPan="magnify"><defs/><g><rect fill="none" height="22.6406" style="stroke:none;stroke-width:1.0;" width="2936.9775" x="15" y="12.4551"/><ellipse cx="1464.2738" cy="50.0957" fill="#222222" rx="10" ry="10" style="stroke:#222222;stroke-width:1.0;"/><rect fill="#F1F1F1" height="35.0938" rx="12.5" ry="12.5" style="stroke:#181818;stroke-width:0.5;" width="150.7402" x="1388.9037" y="80.0957"/><text fill="#000000" font-family="sans-serif" font-size="12" lengthAdjust="spacing" textLength="130.7402" x="1398.9037" y="102.5527">Membuka halaman login</text><rect fill="#F1F1F1" height="35.0938" rx="12.5" ry="12.5" style="stroke:#181818;stroke-width:0.5;" width="123.3711" x="1402.5883" y="135.1895"/><text fill="#000000" font-family="sans-serif" font-size="12" lengthAdjust="spacing" textLength="103.3711" x="1412.5883" y="157.6465">Memasukkan email</text><rect fill="#F1F1F1" height="35.0938" rx="12.5" ry="12.5" style="stroke:#181818;stroke-width:0.5;" width="146.0527" x="1391.2475" y="190.2832"/><text fill="#000000" font-family="sans-serif" font-size="12" lengthAdjust="spacing" textLength="126.0527" x="1401.2475" y="212.7402">Memasukkan password</text><rect fill="#F1F1F1" height="35.0938" rx="12.5" ry="12.5" style="stroke:#181818;stroke-width:0.5;" width="111.3828" x="1408.5824" y="245.377"/><text fill="#000000" font-family="sans-serif" font-size="12" lengthAdjust="spacing" textLength="91.3828" x="1418.5824" y="267.834">Klik tombol Login</text><rect fill="#F1F1F1" height="35.0938" rx="12.5" ry="12.5" style="stroke:#181818;stroke-width:0.5;" width="120.7227" x="56.3438" y="866.0332"/><text fill="#000000" font-family="sans-serif" font-size="12" lengthAdjust="spacing" textLength="100.7227" x="66.3438" y="888.4902">Melihat Dashboard</text><path d="M232.4102,921.127 L232.4102,963.0059 L212.4102,967.0059 L232.4102,971.0059 L232.4102,1012.8848 A0,0 0 0 0 232.4102,1012.8848 L461.1499,1012.8848 A0,0 0 0 0 461.1499,1012.8848 L461.1499,931.127 L451.1499,921.127 L232.4102,921.127 A0,0 0 0 0 232.4102,921.127 " fill="#FEFFDD" style="stroke:#181818;stroke-width:0.5;"/><path d="M451.1499,921.127 L451.1499,931.127 L461.1499,931.127 L451.1499,921.127 " fill="#FEFFDD" style="stroke:#181818;stroke-width:0.5;"/><text fill="#000000" font-family="sans-serif" font-size="13" lengthAdjust="spacing" textLength="182.1016" x="238.4102" y="939.6221">Menu yang tampil berdasarkan:</text><text fill="#000000" font-family="sans-serif" font-size="13" lengthAdjust="spacing" textLength="128.9526" x="238.4102" y="955.9736">- kasir.* -&gt; Menu Kasir</text><text fill="#000000" font-family="sans-serif" font-size="13" lengthAdjust="spacing" textLength="171.6025" x="238.4102" y="972.3252">- produksi.* -&gt; Menu Produksi</text><text fill="#000000" font-family="sans-serif" font-size="13" lengthAdjust="spacing" textLength="170.8853" x="238.4102" y="988.6768">- inventori.* -&gt; Menu Inventori</text><text fill="#000000" font-family="sans-serif" font-size="13" lengthAdjust="spacing" textLength="207.7397" x="238.4102" y="1005.0283">- manajemen.* -&gt; Menu Manajemen</text><rect fill="#F1F1F1" height="35.0938" rx="12.5" ry="12.5" style="stroke:#181818;stroke-width:0.5;" width="191.4102" x="21" y="949.459"/><text fill="#000000" font-family="sans-serif" font-size="12" lengthAdjust="spacing" textLength="171.4102" x="31" y="971.916">Melihat menu sesuai permission</text><rect fill="#F1F1F1" height="35.0938" rx="12.5" ry="12.5" style="stroke:#181818;stroke-width:0.5;" width="233.9785" x="479.9155" y="810.9395"/><text fill="#000000" font-family="sans-serif" font-size="12" lengthAdjust="spacing" textLength="213.9785" x="489.9155" y="833.3965">Redirect ke halaman "Menunggu Peran"</text><rect fill="#F1F1F1" height="35.0938" rx="12.5" ry="12.5" style="stroke:#181818;stroke-width:0.5;" width="251.5098" x="471.1499" y="866.0332"/><text fill="#000000" font-family="sans-serif" font-size="12" lengthAdjust="spacing" textLength="231.5098" x="481.1499" y="888.4902">Melihat pesan menunggu penugasan peran</text><rect fill="#F1F1F1" height="35.0938" rx="12.5" ry="12.5" style="stroke:#181818;stroke-width:0.5;" width="137.3926" x="528.2085" y="921.127"/><text fill="#000000" font-family="sans-serif" font-size="12" lengthAdjust="spacing" textLength="117.3926" x="538.2085" y="943.584">Hubungi administrator</text><path d="M965.9253,641.752 L965.9253,667.2793 L945.9253,671.2793 L965.9253,675.2793 L965.9253,700.8066 A0,0 0 0 0 965.9253,700.8066 L1140.1323,700.8066 A0,0 0 0 0 1140.1323,700.8066 L1140.1323,651.752 L1130.1323,641.752 L965.9253,641.752 A0,0 0 0 0 965.9253,641.752 " fill="#FEFFDD" style="stroke:#181818;stroke-width:0.5;"/><path d="M1130.1323,641.752 L1130.1323,651.752 L1140.1323,651.752 L1130.1323,641.752 " fill="#FEFFDD" style="stroke:#181818;stroke-width:0.5;"/><text fill="#000000" font-family="sans-serif" font-size="13" lengthAdjust="spacing" textLength="153.207" x="971.9253" y="660.2471">Akun bisa nonaktif karena:</text><text fill="#000000" font-family="sans-serif" font-size="13" lengthAdjust="spacing" textLength="91.749" x="971.9253" y="676.5986">- Belum aktivasi</text><text fill="#000000" font-family="sans-serif" font-size="13" lengthAdjust="spacing" textLength="130.7744" x="971.9253" y="692.9502">- Dinonaktifkan pemilik</text><rect fill="#F1F1F1" height="35.0938" rx="12.5" ry="12.5" style="stroke:#181818;stroke-width:0.5;" width="213.2656" x="732.6597" y="653.7324"/><text fill="#000000" font-family="sans-serif" font-size="12" lengthAdjust="spacing" textLength="193.2656" x="742.6597" y="676.1895">Menampilkan error "Akun tidak aktif"</text><rect fill="#F1F1F1" height="35.0938" rx="12.5" ry="12.5" style="stroke:#181818;stroke-width:0.5;" width="216.5996" x="1150.1323" y="597.752"/><text fill="#000000" font-family="sans-serif" font-size="12" lengthAdjust="spacing" textLength="196.5996" x="1160.1323" y="620.209">Menampilkan error "Password salah"</text><rect fill="#F1F1F1" height="35.0938" rx="12.5" ry="12.5" style="stroke:#181818;stroke-width:0.5;" width="244.6074" x="1376.7319" y="498.6582"/><text fill="#000000" font-family="sans-serif" font-size="12" lengthAdjust="spacing" textLength="224.6074" x="1386.7319" y="521.1152">Menampilkan error "User tidak ditemukan"</text><rect fill="#F1F1F1" height="35.0938" rx="12.5" ry="12.5" style="stroke:#181818;stroke-width:0.5;" width="163.3906" x="1631.3394" y="399.5645"/><text fill="#000000" font-family="sans-serif" font-size="12" lengthAdjust="spacing" textLength="143.3906" x="1641.3394" y="422.0215">Menampilkan error validasi</text><ellipse cx="1464.2738" cy="1213.8848" fill="none" rx="11" ry="11" style="stroke:#222222;stroke-width:1.0;"/><ellipse cx="1464.2738" cy="1213.8848" fill="#222222" rx="6" ry="6" style="stroke:#222222;stroke-width:1.0;"/><line style="stroke:#000000;stroke-width:1.5;" x1="15" x2="15" y1="12.4551" y2="1224.8848"/><rect fill="#F1F1F1" height="35.0938" rx="12.5" ry="12.5" style="stroke:#181818;stroke-width:0.5;" width="128.7207" x="2808.9014" y="300.4707"/><text fill="#000000" font-family="sans-serif" font-size="12" lengthAdjust="spacing" textLength="108.7207" x="2818.9014" y="322.9277">Validasi format input</text><polygon fill="#F1F1F1" points="2839.9448,355.5645,2906.5786,355.5645,2918.5786,367.5645,2906.5786,379.5645,2839.9448,379.5645,2827.9448,367.5645,2839.9448,355.5645" style="stroke:#181818;stroke-width:0.5;"/><text fill="#000000" font-family="sans-serif" font-size="11" lengthAdjust="spacing" textLength="66.6338" x="2839.9448" y="372.0654">Format valid?</text><text fill="#000000" font-family="sans-serif" font-size="11" lengthAdjust="spacing" textLength="13.4546" x="2814.4902" y="365.1475">Ya</text><text fill="#000000" font-family="sans-serif" font-size="11" lengthAdjust="spacing" textLength="26.8984" x="2918.5786" y="365.1475">Tidak</text><rect fill="#F1F1F1" height="35.0938" rx="12.5" ry="12.5" style="stroke:#181818;stroke-width:0.5;" width="191.4102" x="2607.4912" y="399.5645"/><text fill="#000000" font-family="sans-serif" font-size="12" lengthAdjust="spacing" textLength="171.4102" x="2617.4912" y="422.0215">Mencari user berdasarkan email</text><polygon fill="#F1F1F1" points="2661.6213,454.6582,2744.7712,454.6582,2756.7712,466.6582,2744.7712,478.6582,2661.6213,478.6582,2649.6213,466.6582,2661.6213,454.6582" style="stroke:#181818;stroke-width:0.5;"/><text fill="#000000" font-family="sans-serif" font-size="11" lengthAdjust="spacing" textLength="83.1499" x="2661.6213" y="471.1592">User ditemukan?</text><text fill="#000000" font-family="sans-serif" font-size="11" lengthAdjust="spacing" textLength="13.4546" x="2636.1667" y="464.2412">Ya</text><text fill="#000000" font-family="sans-serif" font-size="11" lengthAdjust="spacing" textLength="26.8984" x="2756.7712" y="464.2412">Tidak</text><rect fill="#F1F1F1" height="35.0938" rx="12.5" ry="12.5" style="stroke:#181818;stroke-width:0.5;" width="123.3711" x="2454.105" y="498.6582"/><text fill="#000000" font-family="sans-serif" font-size="12" lengthAdjust="spacing" textLength="103.3711" x="2464.105" y="521.1152">Verifikasi password</text><polygon fill="#F1F1F1" points="2472.9883,553.752,2558.5928,553.752,2570.5928,565.752,2558.5928,577.752,2472.9883,577.752,2460.9883,565.752,2472.9883,553.752" style="stroke:#181818;stroke-width:0.5;"/><text fill="#000000" font-family="sans-serif" font-size="11" lengthAdjust="spacing" textLength="85.6045" x="2472.9883" y="570.2529">Password benar?</text><text fill="#000000" font-family="sans-serif" font-size="11" lengthAdjust="spacing" textLength="13.4546" x="2447.5337" y="563.335">Ya</text><text fill="#000000" font-family="sans-serif" font-size="11" lengthAdjust="spacing" textLength="26.8984" x="2570.5928" y="563.335">Tidak</text><polygon fill="#F1F1F1" points="2291.0361,597.752,2398.6353,597.752,2410.6353,609.752,2398.6353,621.752,2291.0361,621.752,2279.0361,609.752,2291.0361,597.752" style="stroke:#181818;stroke-width:0.5;"/><text fill="#000000" font-family="sans-serif" font-size="11" lengthAdjust="spacing" textLength="107.5991" x="2291.0361" y="614.2529">Akun aktif (is_active)?</text><text fill="#000000" font-family="sans-serif" font-size="11" lengthAdjust="spacing" textLength="13.4546" x="2265.5815" y="607.335">Ya</text><text fill="#000000" font-family="sans-serif" font-size="11" lengthAdjust="spacing" textLength="26.8984" x="2410.6353" y="607.335">Tidak</text><rect fill="#F1F1F1" height="35.0938" rx="12.5" ry="12.5" style="stroke:#181818;stroke-width:0.5;" width="114.043" x="2099.187" y="641.752"/><text fill="#000000" font-family="sans-serif" font-size="12" lengthAdjust="spacing" textLength="94.043" x="2109.187" y="664.209">Membuat session</text><rect fill="#F1F1F1" height="35.0938" rx="12.5" ry="12.5" style="stroke:#181818;stroke-width:0.5;" width="198.7461" x="2056.8354" y="711.8457"/><text fill="#000000" font-family="sans-serif" font-size="12" lengthAdjust="spacing" textLength="178.7461" x="2066.8354" y="734.3027">Mengambil roles dan permissions</text><polygon fill="#F1F1F1" points="2096.9036,766.9395,2215.5134,766.9395,2227.5134,778.9395,2215.5134,790.9395,2096.9036,790.9395,2084.9036,778.9395,2096.9036,766.9395" style="stroke:#181818;stroke-width:0.5;"/><text fill="#000000" font-family="sans-serif" font-size="11" lengthAdjust="spacing" textLength="118.6099" x="2096.9036" y="783.4404">User punya permission?</text><text fill="#000000" font-family="sans-serif" font-size="11" lengthAdjust="spacing" textLength="13.4546" x="2071.449" y="776.5225">Ya</text><text fill="#000000" font-family="sans-serif" font-size="11" lengthAdjust="spacing" textLength="26.8984" x="2227.5134" y="776.5225">Tidak</text><rect fill="#F1F1F1" height="35.0938" rx="12.5" ry="12.5" style="stroke:#181818;stroke-width:0.5;" width="242.1055" x="1804.73" y="810.9395"/><text fill="#000000" font-family="sans-serif" font-size="12" lengthAdjust="spacing" textLength="222.1055" x="1814.73" y="833.3965">Redirect ke Dashboard sesuai permission</text><polygon fill="#F1F1F1" points="2156.2085,1022.8848,2168.2085,1034.8848,2156.2085,1046.8848,2144.2085,1034.8848,2156.2085,1022.8848" style="stroke:#181818;stroke-width:0.5;"/><polygon fill="#F1F1F1" points="2344.8357,1056.8848,2356.8357,1068.8848,2344.8357,1080.8848,2332.8357,1068.8848,2344.8357,1056.8848" style="stroke:#181818;stroke-width:0.5;"/><polygon fill="#F1F1F1" points="2515.7905,1090.8848,2527.7905,1102.8848,2515.7905,1114.8848,2503.7905,1102.8848,2515.7905,1090.8848" style="stroke:#181818;stroke-width:0.5;"/><polygon fill="#F1F1F1" points="2703.1963,1124.8848,2715.1963,1136.8848,2703.1963,1148.8848,2691.1963,1136.8848,2703.1963,1124.8848" style="stroke:#181818;stroke-width:0.5;"/><polygon fill="#F1F1F1" points="2873.2617,1158.8848,2885.2617,1170.8848,2873.2617,1182.8848,2861.2617,1170.8848,2873.2617,1158.8848" style="stroke:#181818;stroke-width:0.5;"/><line style="stroke:#000000;stroke-width:1.5;" x1="1798.73" x2="1798.73" y1="12.4551" y2="1224.8848"/><line style="stroke:#000000;stroke-width:1.5;" x1="2950.4771" x2="2950.4771" y1="12.4551" y2="1224.8848"/><line style="stroke:#181818;stroke-width:1.0;" x1="1464.2738" x2="1464.2738" y1="60.0957" y2="80.0957"/><polygon fill="#181818" points="1460.2738,70.0957,1464.2738,80.0957,1468.2738,70.0957,1464.2738,74.0957" style="stroke:#181818;stroke-width:1.0;"/><line style="stroke:#181818;stroke-width:1.0;" x1="1464.2738" x2="1464.2738" y1="115.1895" y2="135.1895"/><polygon fill="#181818" points="1460.2738,125.1895,1464.2738,135.1895,1468.2738,125.1895,1464.2738,129.1895" style="stroke:#181818;stroke-width:1.0;"/><line style="stroke:#181818;stroke-width:1.0;" x1="1464.2738" x2="1464.2738" y1="170.2832" y2="190.2832"/><polygon fill="#181818" points="1460.2738,180.2832,1464.2738,190.2832,1468.2738,180.2832,1464.2738,184.2832" style="stroke:#181818;stroke-width:1.0;"/><line style="stroke:#181818;stroke-width:1.0;" x1="1464.2738" x2="1464.2738" y1="225.377" y2="245.377"/><polygon fill="#181818" points="1460.2738,235.377,1464.2738,245.377,1468.2738,235.377,1464.2738,239.377" style="stroke:#181818;stroke-width:1.0;"/><line style="stroke:#181818;stroke-width:1.0;" x1="116.7051" x2="116.7051" y1="901.127" y2="949.459"/><polygon fill="#181818" points="112.7051,939.459,116.7051,949.459,120.7051,939.459,116.7051,943.459" style="stroke:#181818;stroke-width:1.0;"/><line style="stroke:#181818;stroke-width:1.0;" x1="596.9048" x2="596.9048" y1="846.0332" y2="866.0332"/><polygon fill="#181818" points="592.9048,856.0332,596.9048,866.0332,600.9048,856.0332,596.9048,860.0332" style="stroke:#181818;stroke-width:1.0;"/><line style="stroke:#181818;stroke-width:1.0;" x1="596.9048" x2="596.9048" y1="901.127" y2="921.127"/><polygon fill="#181818" points="592.9048,911.127,596.9048,921.127,600.9048,911.127,596.9048,915.127" style="stroke:#181818;stroke-width:1.0;"/><line style="stroke:#181818;stroke-width:1.0;" x1="2156.2085" x2="2156.2085" y1="676.8457" y2="711.8457"/><polygon fill="#181818" points="2152.2085,701.8457,2156.2085,711.8457,2160.2085,701.8457,2156.2085,705.8457" style="stroke:#181818;stroke-width:1.0;"/><line style="stroke:#181818;stroke-width:1.0;" x1="2084.9036" x2="1925.7827" y1="778.9395" y2="778.9395"/><line style="stroke:#181818;stroke-width:1.0;" x1="1925.7827" x2="1925.7827" y1="778.9395" y2="810.9395"/><polygon fill="#181818" points="1921.7827,800.9395,1925.7827,810.9395,1929.7827,800.9395,1925.7827,804.9395" style="stroke:#181818;stroke-width:1.0;"/><line style="stroke:#181818;stroke-width:1.0;" x1="2156.2085" x2="2156.2085" y1="746.9395" y2="766.9395"/><polygon fill="#181818" points="2152.2085,756.9395,2156.2085,766.9395,2160.2085,756.9395,2156.2085,760.9395" style="stroke:#181818;stroke-width:1.0;"/><line style="stroke:#181818;stroke-width:1.0;" x1="2279.0361" x2="2156.2085" y1="609.752" y2="609.752"/><line style="stroke:#181818;stroke-width:1.0;" x1="2156.2085" x2="2156.2085" y1="609.752" y2="641.752"/><polygon fill="#181818" points="2152.2085,631.752,2156.2085,641.752,2160.2085,631.752,2156.2085,635.752" style="stroke:#181818;stroke-width:1.0;"/><line style="stroke:#181818;stroke-width:1.0;" x1="2156.2085" x2="2156.2085" y1="1046.8848" y2="1068.8848"/><line style="stroke:#181818;stroke-width:1.0;" x1="2156.2085" x2="2332.8357" y1="1068.8848" y2="1068.8848"/><polygon fill="#181818" points="2322.8357,1064.8848,2332.8357,1068.8848,2322.8357,1072.8848,2326.8357,1068.8848" style="stroke:#181818;stroke-width:1.0;"/><line style="stroke:#181818;stroke-width:1.0;" x1="2460.9883" x2="2344.8357" y1="565.752" y2="565.752"/><line style="stroke:#181818;stroke-width:1.0;" x1="2344.8357" x2="2344.8357" y1="565.752" y2="597.752"/><polygon fill="#181818" points="2340.8357,587.752,2344.8357,597.752,2348.8357,587.752,2344.8357,591.752" style="stroke:#181818;stroke-width:1.0;"/><line style="stroke:#181818;stroke-width:1.0;" x1="2344.8357" x2="2344.8357" y1="1080.8848" y2="1102.8848"/><line style="stroke:#181818;stroke-width:1.0;" x1="2344.8357" x2="2503.7905" y1="1102.8848" y2="1102.8848"/><polygon fill="#181818" points="2493.7905,1098.8848,2503.7905,1102.8848,2493.7905,1106.8848,2497.7905,1102.8848" style="stroke:#181818;stroke-width:1.0;"/><line style="stroke:#181818;stroke-width:1.0;" x1="2515.7905" x2="2515.7905" y1="533.752" y2="553.752"/><polygon fill="#181818" points="2511.7905,543.752,2515.7905,553.752,2519.7905,543.752,2515.7905,547.752" style="stroke:#181818;stroke-width:1.0;"/><line style="stroke:#181818;stroke-width:1.0;" x1="2649.6213" x2="2515.7905" y1="466.6582" y2="466.6582"/><line style="stroke:#181818;stroke-width:1.0;" x1="2515.7905" x2="2515.7905" y1="466.6582" y2="498.6582"/><polygon fill="#181818" points="2511.7905,488.6582,2515.7905,498.6582,2519.7905,488.6582,2515.7905,492.6582" style="stroke:#181818;stroke-width:1.0;"/><line style="stroke:#181818;stroke-width:1.0;" x1="2515.7905" x2="2515.7905" y1="1114.8848" y2="1136.8848"/><line style="stroke:#181818;stroke-width:1.0;" x1="2515.7905" x2="2691.1963" y1="1136.8848" y2="1136.8848"/><polygon fill="#181818" points="2681.1963,1132.8848,2691.1963,1136.8848,2681.1963,1140.8848,2685.1963,1136.8848" style="stroke:#181818;stroke-width:1.0;"/><line style="stroke:#181818;stroke-width:1.0;" x1="2703.1963" x2="2703.1963" y1="434.6582" y2="454.6582"/><polygon fill="#181818" points="2699.1963,444.6582,2703.1963,454.6582,2707.1963,444.6582,2703.1963,448.6582" style="stroke:#181818;stroke-width:1.0;"/><line style="stroke:#181818;stroke-width:1.0;" x1="2827.9448" x2="2703.1963" y1="367.5645" y2="367.5645"/><line style="stroke:#181818;stroke-width:1.0;" x1="2703.1963" x2="2703.1963" y1="367.5645" y2="399.5645"/><polygon fill="#181818" points="2699.1963,389.5645,2703.1963,399.5645,2707.1963,389.5645,2703.1963,393.5645" style="stroke:#181818;stroke-width:1.0;"/><line style="stroke:#181818;stroke-width:1.0;" x1="2703.1963" x2="2703.1963" y1="1148.8848" y2="1170.8848"/><line style="stroke:#181818;stroke-width:1.0;" x1="2703.1963" x2="2861.2617" y1="1170.8848" y2="1170.8848"/><polygon fill="#181818" points="2851.2617,1166.8848,2861.2617,1170.8848,2851.2617,1174.8848,2855.2617,1170.8848" style="stroke:#181818;stroke-width:1.0;"/><line style="stroke:#181818;stroke-width:1.0;" x1="2873.2617" x2="2873.2617" y1="335.5645" y2="355.5645"/><polygon fill="#181818" points="2869.2617,345.5645,2873.2617,355.5645,2877.2617,345.5645,2873.2617,349.5645" style="stroke:#181818;stroke-width:1.0;"/><line style="stroke:#181818;stroke-width:1.0;" x1="1464.2738" x2="1464.2738" y1="280.4707" y2="285.4707"/><line style="stroke:#181818;stroke-width:1.0;" x1="1464.2738" x2="2873.2617" y1="285.4707" y2="285.4707"/><line style="stroke:#181818;stroke-width:1.0;" x1="2873.2617" x2="2873.2617" y1="285.4707" y2="300.4707"/><polygon fill="#181818" points="2869.2617,290.4707,2873.2617,300.4707,2877.2617,290.4707,2873.2617,294.4707" style="stroke:#181818;stroke-width:1.0;"/><line style="stroke:#181818;stroke-width:1.0;" x1="1925.7827" x2="1925.7827" y1="846.0332" y2="851.0332"/><line style="stroke:#181818;stroke-width:1.0;" x1="1925.7827" x2="116.7051" y1="851.0332" y2="851.0332"/><line style="stroke:#181818;stroke-width:1.0;" x1="116.7051" x2="116.7051" y1="851.0332" y2="866.0332"/><polygon fill="#181818" points="112.7051,856.0332,116.7051,866.0332,120.7051,856.0332,116.7051,860.0332" style="stroke:#181818;stroke-width:1.0;"/><line style="stroke:#181818;stroke-width:1.0;" x1="2227.5134" x2="2239.5134" y1="778.9395" y2="778.9395"/><line style="stroke:#181818;stroke-width:1.0;" x1="2239.5134" x2="2239.5134" y1="778.9395" y2="796.9395"/><line style="stroke:#181818;stroke-width:1.0;" x1="2239.5134" x2="596.9048" y1="796.9395" y2="796.9395"/><line style="stroke:#181818;stroke-width:1.0;" x1="596.9048" x2="596.9048" y1="796.9395" y2="810.9395"/><polygon fill="#181818" points="592.9048,800.9395,596.9048,810.9395,600.9048,800.9395,596.9048,804.9395" style="stroke:#181818;stroke-width:1.0;"/><line style="stroke:#181818;stroke-width:1.0;" x1="116.7051" x2="116.7051" y1="984.5527" y2="1034.8848"/><line style="stroke:#181818;stroke-width:1.0;" x1="116.7051" x2="2144.2085" y1="1034.8848" y2="1034.8848"/><polygon fill="#181818" points="2134.2085,1030.8848,2144.2085,1034.8848,2134.2085,1038.8848,2138.2085,1034.8848" style="stroke:#181818;stroke-width:1.0;"/><line style="stroke:#181818;stroke-width:1.0;" x1="596.9048" x2="596.9048" y1="956.2207" y2="1016.8848"/><line style="stroke:#181818;stroke-width:1.0;" x1="596.9048" x2="2186.2085" y1="1016.8848" y2="1016.8848"/><line style="stroke:#181818;stroke-width:1.0;" x1="2186.2085" x2="2186.2085" y1="1016.8848" y2="1034.8848"/><line style="stroke:#181818;stroke-width:1.0;" x1="2186.2085" x2="2168.2085" y1="1034.8848" y2="1034.8848"/><polygon fill="#181818" points="2178.2085,1030.8848,2168.2085,1034.8848,2178.2085,1038.8848,2174.2085,1034.8848" style="stroke:#181818;stroke-width:1.0;"/><line style="stroke:#181818;stroke-width:1.0;" x1="2410.6353" x2="2422.6353" y1="609.752" y2="609.752"/><line style="stroke:#181818;stroke-width:1.0;" x1="2422.6353" x2="2422.6353" y1="609.752" y2="627.752"/><line style="stroke:#181818;stroke-width:1.0;" x1="2422.6353" x2="839.2925" y1="627.752" y2="627.752"/><line style="stroke:#181818;stroke-width:1.0;" x1="839.2925" x2="839.2925" y1="627.752" y2="653.7324"/><polygon fill="#181818" points="835.2925,643.7324,839.2925,653.7324,843.2925,643.7324,839.2925,647.7324" style="stroke:#181818;stroke-width:1.0;"/><line style="stroke:#181818;stroke-width:1.0;" x1="839.2925" x2="839.2925" y1="688.8262" y2="1050.8848"/><line style="stroke:#181818;stroke-width:1.0;" x1="839.2925" x2="2374.8357" y1="1050.8848" y2="1050.8848"/><line style="stroke:#181818;stroke-width:1.0;" x1="2374.8357" x2="2374.8357" y1="1050.8848" y2="1068.8848"/><line style="stroke:#181818;stroke-width:1.0;" x1="2374.8357" x2="2356.8357" y1="1068.8848" y2="1068.8848"/><polygon fill="#181818" points="2366.8357,1064.8848,2356.8357,1068.8848,2366.8357,1072.8848,2362.8357,1068.8848" style="stroke:#181818;stroke-width:1.0;"/><line style="stroke:#181818;stroke-width:1.0;" x1="2570.5928" x2="2582.5928" y1="565.752" y2="565.752"/><line style="stroke:#181818;stroke-width:1.0;" x1="2582.5928" x2="2582.5928" y1="565.752" y2="583.752"/><line style="stroke:#181818;stroke-width:1.0;" x1="2582.5928" x2="1258.4321" y1="583.752" y2="583.752"/><line style="stroke:#181818;stroke-width:1.0;" x1="1258.4321" x2="1258.4321" y1="583.752" y2="597.752"/><polygon fill="#181818" points="1254.4321,587.752,1258.4321,597.752,1262.4321,587.752,1258.4321,591.752" style="stroke:#181818;stroke-width:1.0;"/><line style="stroke:#181818;stroke-width:1.0;" x1="1258.4321" x2="1258.4321" y1="632.8457" y2="1084.8848"/><line style="stroke:#181818;stroke-width:1.0;" x1="1258.4321" x2="2545.7905" y1="1084.8848" y2="1084.8848"/><line style="stroke:#181818;stroke-width:1.0;" x1="2545.7905" x2="2545.7905" y1="1084.8848" y2="1102.8848"/><line style="stroke:#181818;stroke-width:1.0;" x1="2545.7905" x2="2527.7905" y1="1102.8848" y2="1102.8848"/><polygon fill="#181818" points="2537.7905,1098.8848,2527.7905,1102.8848,2537.7905,1106.8848,2533.7905,1102.8848" style="stroke:#181818;stroke-width:1.0;"/><line style="stroke:#181818;stroke-width:1.0;" x1="2756.7712" x2="2768.7712" y1="466.6582" y2="466.6582"/><line style="stroke:#181818;stroke-width:1.0;" x1="2768.7712" x2="2768.7712" y1="466.6582" y2="484.6582"/><line style="stroke:#181818;stroke-width:1.0;" x1="2768.7712" x2="1499.0356" y1="484.6582" y2="484.6582"/><line style="stroke:#181818;stroke-width:1.0;" x1="1499.0356" x2="1499.0356" y1="484.6582" y2="498.6582"/><polygon fill="#181818" points="1495.0356,488.6582,1499.0356,498.6582,1503.0356,488.6582,1499.0356,492.6582" style="stroke:#181818;stroke-width:1.0;"/><line style="stroke:#181818;stroke-width:1.0;" x1="1499.0356" x2="1499.0356" y1="533.752" y2="1118.8848"/><line style="stroke:#181818;stroke-width:1.0;" x1="1499.0356" x2="2733.1963" y1="1118.8848" y2="1118.8848"/><line style="stroke:#181818;stroke-width:1.0;" x1="2733.1963" x2="2733.1963" y1="1118.8848" y2="1136.8848"/><line style="stroke:#181818;stroke-width:1.0;" x1="2733.1963" x2="2715.1963" y1="1136.8848" y2="1136.8848"/><polygon fill="#181818" points="2725.1963,1132.8848,2715.1963,1136.8848,2725.1963,1140.8848,2721.1963,1136.8848" style="stroke:#181818;stroke-width:1.0;"/><line style="stroke:#181818;stroke-width:1.0;" x1="2918.5786" x2="2930.5786" y1="367.5645" y2="367.5645"/><line style="stroke:#181818;stroke-width:1.0;" x1="2930.5786" x2="2930.5786" y1="367.5645" y2="385.5645"/><line style="stroke:#181818;stroke-width:1.0;" x1="2930.5786" x2="1713.0347" y1="385.5645" y2="385.5645"/><line style="stroke:#181818;stroke-width:1.0;" x1="1713.0347" x2="1713.0347" y1="385.5645" y2="399.5645"/><polygon fill="#181818" points="1709.0347,389.5645,1713.0347,399.5645,1717.0347,389.5645,1713.0347,393.5645" style="stroke:#181818;stroke-width:1.0;"/><line style="stroke:#181818;stroke-width:1.0;" x1="1713.0347" x2="1713.0347" y1="434.6582" y2="1152.8848"/><line style="stroke:#181818;stroke-width:1.0;" x1="1713.0347" x2="2903.2617" y1="1152.8848" y2="1152.8848"/><line style="stroke:#181818;stroke-width:1.0;" x1="2903.2617" x2="2903.2617" y1="1152.8848" y2="1170.8848"/><line style="stroke:#181818;stroke-width:1.0;" x1="2903.2617" x2="2885.2617" y1="1170.8848" y2="1170.8848"/><polygon fill="#181818" points="2895.2617,1166.8848,2885.2617,1170.8848,2895.2617,1174.8848,2891.2617,1170.8848" style="stroke:#181818;stroke-width:1.0;"/><line style="stroke:#181818;stroke-width:1.0;" x1="2873.2617" x2="2873.2617" y1="1182.8848" y2="1187.8848"/><line style="stroke:#181818;stroke-width:1.0;" x1="2873.2617" x2="1464.2738" y1="1187.8848" y2="1187.8848"/><line style="stroke:#181818;stroke-width:1.0;" x1="1464.2738" x2="1464.2738" y1="1187.8848" y2="1202.8848"/><polygon fill="#181818" points="1460.2738,1192.8848,1464.2738,1202.8848,1468.2738,1192.8848,1464.2738,1196.8848" style="stroke:#181818;stroke-width:1.0;"/><text fill="#000000" font-family="sans-serif" font-size="18" lengthAdjust="spacing" textLength="38.0039" x="887.863" y="31.1406">User</text><text fill="#000000" font-family="sans-serif" font-size="18" lengthAdjust="spacing" textLength="55.0107" x="2347.0981" y="31.1406">Sistem</text><!--SRC=[dLNRYjj037ttLuWy9ONq0n9eQLcMbcrWwMMXJqME5LkrPyRCZ5CMyl7LZEEi5u_JK3-4YKRdI3gMvDCFH_QKEO_MPviTgRoh4IfiKA66nfIijz6EhgjhCSc9czUc5ftxOsmXreU6Q_16vQQ1BpquEtrZvqcTiiqJDboWOpWOgz03wxRpui47MDxtfcDmURy2Nv66vKzSPI2FHDDxj0oTP0ivMM51EqedECMVG1LAWe8bfjIY9sIHy8ai7xWEoRoaFznU3e7jyNmjOJNQ9DlW-g7kD63jmvdTBznxFj9g5dAkJ2INmXqvnqPlKnwwH9Lp0zOqvA08afDL705kYfWOBgAqdNx64VXgQZ7uLohOqjv3JN27hieDYXIIR8Sy8jecqKdZgU-uPBGTDLo969T8s-j-YdHtQpBQU0BBPUMJrm2xGFQCkWIFgXMvHtsscS6i8RIGVVi6rkzwWeVmVzQxjQReQiSZmEFPD8jXVIJjZHs3FW-sMPICB_uc4MY4sWss98fq4KMQN5BZ29RVPNJh6xfas1sB45ANfLH85lLY-z_Tq98JFZNGjN8eqVLJW3DlU_EfoyMT0Gl5MXQGHP5hwYj5y-7w15qjFqndx9QuZAmr5XPn3VZWto-3HEbNcp7YStOeRhfV9pLQYPFgmZLyfAPJCT8HassqXZiUcEA-9iMofxER6c0gKFPFOLAYNDQea_weHfAy3f3D4gT8urBhbRxi-pFr2sqseKjG7S-VfctM0-MBQDhiBm00]--></g></svg>