<svg xmlns="http://www.w3.org/2000/svg" xmlns:xlink="http://www.w3.org/1999/xlink" contentStyleType="text/css" height="1485px" preserveAspectRatio="none" style="width:1482px;height:1485px;background:#FFFFFF;" version="1.1" viewBox="0 0 1482 1485" width="1482px" zoomAndPan="magnify"><defs/><g><rect fill="none" height="22.6406" style="stroke:none;stroke-width:1.0;" width="1449.374" x="15" y="12.4551"/><ellipse cx="336.1738" cy="50.0957" fill="#222222" rx="10" ry="10" style="stroke:#222222;stroke-width:1.0;"/><rect fill="#F1F1F1" height="35.0938" rx="12.5" ry="12.5" style="stroke:#181818;stroke-width:0.5;" width="177.4004" x="247.4736" y="80.0957"/><text fill="#000000" font-family="sans-serif" font-size="12" lengthAdjust="spacing" textLength="157.4004" x="257.4736" y="102.5527">Membuka halaman Transaksi</text><rect fill="#F1F1F1" height="35.0938" rx="12.5" ry="12.5" style="stroke:#181818;stroke-width:0.5;" width="227.4688" x="222.4395" y="135.1895"/><text fill="#000000" font-family="sans-serif" font-size="12" lengthAdjust="spacing" textLength="207.4688" x="232.4395" y="157.6465">Memilih pesanan yang akan dibatalkan</text><rect fill="#F1F1F1" height="35.0938" rx="12.5" ry="12.5" style="stroke:#181818;stroke-width:0.5;" width="158.75" x="256.7988" y="190.2832"/><text fill="#000000" font-family="sans-serif" font-size="12" lengthAdjust="spacing" textLength="138.75" x="266.7988" y="212.7402">Menekan tombol Batalkan</text><rect fill="#F1F1F1" height="35.0938" rx="12.5" ry="12.5" style="stroke:#181818;stroke-width:0.5;" width="142.0566" x="45.6914" y="833.7764"/><text fill="#000000" font-family="sans-serif" font-size="12" lengthAdjust="spacing" textLength="122.0566" x="55.6914" y="856.2334">Mengkonfirmasi refund</text><rect fill="#F1F1F1" height="35.0938" rx="12.5" ry="12.5" style="stroke:#181818;stroke-width:0.5;" width="191.4395" x="21" y="903.8701"/><text fill="#000000" font-family="sans-serif" font-size="12" lengthAdjust="spacing" textLength="171.4395" x="31" y="926.3271">Memproses pengembalian uang</text><line style="stroke:#000000;stroke-width:1.5;" x1="15" x2="15" y1="12.4551" y2="1473.4443"/><rect fill="#F1F1F1" height="35.0938" rx="12.5" ry="12.5" style="stroke:#181818;stroke-width:0.5;" width="163.4023" x="877.416" y="245.377"/><text fill="#000000" font-family="sans-serif" font-size="12" lengthAdjust="spacing" textLength="143.4023" x="887.416" y="267.834">Memeriksa status pesanan</text><polygon fill="#F1F1F1" points="640.6821,300.4707,723.2466,300.4707,735.2466,312.4707,723.2466,324.4707,640.6821,324.4707,628.6821,312.4707,640.6821,300.4707" style="stroke:#181818;stroke-width:0.5;"/><text fill="#000000" font-family="sans-serif" font-size="11" lengthAdjust="spacing" textLength="72.1445" x="685.9644" y="335.8896">Antrian/Proses</text><text fill="#000000" font-family="sans-serif" font-size="11" lengthAdjust="spacing" textLength="82.5645" x="640.6821" y="316.9717">Status pesanan?</text><rect fill="#F1F1F1" height="35.0938" rx="12.5" ry="12.5" style="stroke:#181818;stroke-width:0.5;" width="159.4063" x="602.2612" y="406.3076"/><text fill="#000000" font-family="sans-serif" font-size="12" lengthAdjust="spacing" textLength="139.4063" x="612.2612" y="428.7646">Mengecek status produksi</text><polygon fill="#F1F1F1" points="622.0417,461.4014,741.887,461.4014,753.887,473.4014,741.887,485.4014,622.0417,485.4014,610.0417,473.4014,622.0417,461.4014" style="stroke:#181818;stroke-width:0.5;"/><text fill="#000000" font-family="sans-serif" font-size="11" lengthAdjust="spacing" textLength="119.8452" x="622.0417" y="477.9023">Produksi sudah dimulai?</text><text fill="#000000" font-family="sans-serif" font-size="11" lengthAdjust="spacing" textLength="13.4546" x="596.5872" y="470.9844">Ya</text><text fill="#000000" font-family="sans-serif" font-size="11" lengthAdjust="spacing" textLength="31.1792" x="753.887" y="470.9844">Belum</text><rect fill="#F1F1F1" height="35.0938" rx="12.5" ry="12.5" style="stroke:#181818;stroke-width:0.5;" width="140.7266" x="510.3843" y="495.4014"/><text fill="#000000" font-family="sans-serif" font-size="12" lengthAdjust="spacing" textLength="120.7266" x="520.3843" y="517.8584">Membatalkan produksi</text><rect fill="#F1F1F1" height="35.0938" rx="12.5" ry="12.5" style="stroke:#181818;stroke-width:0.5;" width="196.1152" x="482.6899" y="550.4951"/><text fill="#000000" font-family="sans-serif" font-size="12" lengthAdjust="spacing" textLength="176.1152" x="492.6899" y="572.9521">Mengembalikan stok bahan baku</text><rect fill="#F1F1F1" height="35.0938" rx="12.5" ry="12.5" style="stroke:#181818;stroke-width:0.5;" width="168.752" x="698.8052" y="495.4014"/><text fill="#000000" font-family="sans-serif" font-size="12" lengthAdjust="spacing" textLength="148.752" x="708.8052" y="517.8584">Menghapus record produksi</text><polygon fill="#F1F1F1" points="681.9644,591.5889,693.9644,603.5889,681.9644,615.5889,669.9644,603.5889,681.9644,591.5889" style="stroke:#181818;stroke-width:0.5;"/><polygon fill="#F1F1F1" points="630.2971,357.3896,733.6316,357.3896,745.6316,369.3896,733.6316,381.3896,630.2971,381.3896,618.2971,369.3896,630.2971,357.3896" style="stroke:#181818;stroke-width:0.5;"/><text fill="#000000" font-family="sans-serif" font-size="11" lengthAdjust="spacing" textLength="13.4546" x="685.9644" y="392.8086">Ya</text><text fill="#000000" font-family="sans-serif" font-size="11" lengthAdjust="spacing" textLength="103.3345" x="630.2971" y="373.8906">Ada produksi terkait?</text><text fill="#000000" font-family="sans-serif" font-size="11" lengthAdjust="spacing" textLength="26.8984" x="745.6316" y="366.9727">Tidak</text><polygon fill="#F1F1F1" points="681.9644,635.5889,693.9644,647.5889,681.9644,659.5889,669.9644,647.5889,681.9644,635.5889" style="stroke:#181818;stroke-width:0.5;"/><rect fill="#F1F1F1" height="35.0938" rx="12.5" ry="12.5" style="stroke:#181818;stroke-width:0.5;" width="148.7188" x="607.605" y="679.5889"/><text fill="#000000" font-family="sans-serif" font-size="12" lengthAdjust="spacing" textLength="128.7188" x="617.605" y="702.0459">Memeriksa pembayaran</text><polygon fill="#F1F1F1" points="637.0164,734.6826,726.9124,734.6826,738.9124,746.6826,726.9124,758.6826,637.0164,758.6826,625.0164,746.6826,637.0164,734.6826" style="stroke:#181818;stroke-width:0.5;"/><text fill="#000000" font-family="sans-serif" font-size="11" lengthAdjust="spacing" textLength="89.896" x="637.0164" y="751.1836">Ada pembayaran?</text><text fill="#000000" font-family="sans-serif" font-size="11" lengthAdjust="spacing" textLength="13.4546" x="611.5618" y="744.2656">Ya</text><text fill="#000000" font-family="sans-serif" font-size="11" lengthAdjust="spacing" textLength="26.8984" x="738.9124" y="744.2656">Tidak</text><rect fill="#F1F1F1" height="35.0938" rx="12.5" ry="12.5" style="stroke:#181818;stroke-width:0.5;" width="218.1348" x="469.686" y="778.6826"/><text fill="#000000" font-family="sans-serif" font-size="12" lengthAdjust="spacing" textLength="198.1348" x="479.686" y="801.1396">Menghitung total yang harus direfund</text><rect fill="#F1F1F1" height="35.0938" rx="12.5" ry="12.5" style="stroke:#181818;stroke-width:0.5;" width="144.7285" x="506.3892" y="958.9639"/><text fill="#000000" font-family="sans-serif" font-size="12" lengthAdjust="spacing" textLength="124.7285" x="516.3892" y="981.4209">Membuat record refund</text><rect fill="#F1F1F1" height="35.0938" rx="12.5" ry="12.5" style="stroke:#181818;stroke-width:0.5;" width="145.4023" x="506.0522" y="1014.0576"/><text fill="#000000" font-family="sans-serif" font-size="12" lengthAdjust="spacing" textLength="125.4023" x="516.0522" y="1036.5146">Mencatat jumlah refund</text><rect fill="#F1F1F1" height="35.0938" rx="12.5" ry="12.5" style="stroke:#181818;stroke-width:0.5;" width="168.7871" x="494.3599" y="1118.0693"/><text fill="#000000" font-family="sans-serif" font-size="12" lengthAdjust="spacing" textLength="148.7871" x="504.3599" y="1140.5264">Mengurangi poin pelanggan</text><rect fill="#F1F1F1" height="35.0938" rx="12.5" ry="12.5" style="stroke:#181818;stroke-width:0.5;" width="218.7852" x="469.3608" y="1188.1631"/><text fill="#000000" font-family="sans-serif" font-size="12" lengthAdjust="spacing" textLength="198.7852" x="479.3608" y="1210.6201">Mencatat riwayat poin (pengurangan)</text><polygon fill="#F1F1F1" points="480.9082,1069.1514,676.5986,1069.1514,688.5986,1081.1514,676.5986,1093.1514,480.9082,1093.1514,468.9082,1081.1514,480.9082,1069.1514" style="stroke:#181818;stroke-width:0.5;"/><text fill="#000000" font-family="sans-serif" font-size="11" lengthAdjust="spacing" textLength="13.4546" x="582.7534" y="1104.5703">Ya</text><text fill="#000000" font-family="sans-serif" font-size="11" lengthAdjust="spacing" textLength="195.6904" x="480.9082" y="1085.6523">Pelanggan dapat poin dari transaksi ini?</text><text fill="#000000" font-family="sans-serif" font-size="11" lengthAdjust="spacing" textLength="26.8984" x="688.5986" y="1078.7344">Tidak</text><polygon fill="#F1F1F1" points="578.7534,1243.2568,590.7534,1255.2568,578.7534,1267.2568,566.7534,1255.2568,578.7534,1243.2568" style="stroke:#181818;stroke-width:0.5;"/><rect fill="#F1F1F1" height="35.0938" rx="12.5" ry="12.5" style="stroke:#181818;stroke-width:0.5;" width="110.0586" x="730.146" y="778.6826"/><text fill="#000000" font-family="sans-serif" font-size="12" lengthAdjust="spacing" textLength="90.0586" x="740.146" y="801.1396">Tidak ada refund</text><polygon fill="#F1F1F1" points="681.9644,1277.2568,693.9644,1289.2568,681.9644,1301.2568,669.9644,1289.2568,681.9644,1277.2568" style="stroke:#181818;stroke-width:0.5;"/><rect fill="#F1F1F1" height="35.0938" rx="12.5" ry="12.5" style="stroke:#181818;stroke-width:0.5;" width="208.7656" x="577.5815" y="1321.2568"/><text fill="#000000" font-family="sans-serif" font-size="12" lengthAdjust="spacing" textLength="188.7656" x="587.5815" y="1343.7139">Update status transaksi: Dibatalkan</text><rect fill="#F1F1F1" height="35.0938" rx="12.5" ry="12.5" style="stroke:#181818;stroke-width:0.5;" width="214.0918" x="574.9185" y="1376.3506"/><text fill="#000000" font-family="sans-serif" font-size="12" lengthAdjust="spacing" textLength="194.0918" x="584.9185" y="1398.8076">Kirim notifikasi (Pesanan dibatalkan)</text><polygon fill="#F1F1F1" points="1006.2651,300.4707,1088.8296,300.4707,1100.8296,312.4707,1088.8296,324.4707,1006.2651,324.4707,994.2651,312.4707,1006.2651,300.4707" style="stroke:#181818;stroke-width:0.5;"/><text fill="#000000" font-family="sans-serif" font-size="11" lengthAdjust="spacing" textLength="36.0776" x="1051.5474" y="335.8896">Selesai</text><text fill="#000000" font-family="sans-serif" font-size="11" lengthAdjust="spacing" textLength="82.5645" x="1006.2651" y="316.9717">Status pesanan?</text><text fill="#000000" font-family="sans-serif" font-size="11" lengthAdjust="spacing" textLength="51.9761" x="1100.8296" y="310.0537">Dibatalkan</text><rect fill="#F1F1F1" height="35.0938" rx="12.5" ry="12.5" style="stroke:#181818;stroke-width:0.5;" width="255.9805" x="919.5571" y="357.3896"/><text fill="#000000" font-family="sans-serif" font-size="12" lengthAdjust="spacing" textLength="235.9805" x="929.5571" y="379.8467">Menampilkan error "Pesanan sudah selesai"</text><rect fill="#F1F1F1" height="35.0938" rx="12.5" ry="12.5" style="stroke:#181818;stroke-width:0.5;" width="273.3359" x="1185.5376" y="862.9521"/><text fill="#000000" font-family="sans-serif" font-size="12" lengthAdjust="spacing" textLength="253.3359" x="1195.5376" y="885.4092">Menampilkan error "Pesanan sudah dibatalkan"</text><ellipse cx="959.1172" cy="1462.4443" fill="none" rx="11" ry="11" style="stroke:#222222;stroke-width:1.0;"/><ellipse cx="959.1172" cy="1462.4443" fill="#222222" rx="6" ry="6" style="stroke:#222222;stroke-width:1.0;"/><line style="stroke:#000000;stroke-width:1.5;" x1="453.9082" x2="453.9082" y1="12.4551" y2="1473.4443"/><line style="stroke:#000000;stroke-width:1.5;" x1="1462.8735" x2="1462.8735" y1="12.4551" y2="1473.4443"/><line style="stroke:#181818;stroke-width:1.0;" x1="336.1738" x2="336.1738" y1="60.0957" y2="80.0957"/><polygon fill="#181818" points="332.1738,70.0957,336.1738,80.0957,340.1738,70.0957,336.1738,74.0957" style="stroke:#181818;stroke-width:1.0;"/><line style="stroke:#181818;stroke-width:1.0;" x1="336.1738" x2="336.1738" y1="115.1895" y2="135.1895"/><polygon fill="#181818" points="332.1738,125.1895,336.1738,135.1895,340.1738,125.1895,336.1738,129.1895" style="stroke:#181818;stroke-width:1.0;"/><line style="stroke:#181818;stroke-width:1.0;" x1="336.1738" x2="336.1738" y1="170.2832" y2="190.2832"/><polygon fill="#181818" points="332.1738,180.2832,336.1738,190.2832,340.1738,180.2832,336.1738,184.2832" style="stroke:#181818;stroke-width:1.0;"/><line style="stroke:#181818;stroke-width:1.0;" x1="116.7197" x2="116.7197" y1="868.8701" y2="903.8701"/><polygon fill="#181818" points="112.7197,893.8701,116.7197,903.8701,120.7197,893.8701,116.7197,897.8701" style="stroke:#181818;stroke-width:1.0;"/><line style="stroke:#181818;stroke-width:1.0;" x1="580.7476" x2="580.7476" y1="530.4951" y2="550.4951"/><polygon fill="#181818" points="576.7476,540.4951,580.7476,550.4951,584.7476,540.4951,580.7476,544.4951" style="stroke:#181818;stroke-width:1.0;"/><line style="stroke:#181818;stroke-width:1.0;" x1="610.0417" x2="580.7476" y1="473.4014" y2="473.4014"/><line style="stroke:#181818;stroke-width:1.0;" x1="580.7476" x2="580.7476" y1="473.4014" y2="495.4014"/><polygon fill="#181818" points="576.7476,485.4014,580.7476,495.4014,584.7476,485.4014,580.7476,489.4014" style="stroke:#181818;stroke-width:1.0;"/><line style="stroke:#181818;stroke-width:1.0;" x1="753.887" x2="783.1812" y1="473.4014" y2="473.4014"/><line style="stroke:#181818;stroke-width:1.0;" x1="783.1812" x2="783.1812" y1="473.4014" y2="495.4014"/><polygon fill="#181818" points="779.1812,485.4014,783.1812,495.4014,787.1812,485.4014,783.1812,489.4014" style="stroke:#181818;stroke-width:1.0;"/><line style="stroke:#181818;stroke-width:1.0;" x1="580.7476" x2="580.7476" y1="585.5889" y2="603.5889"/><line style="stroke:#181818;stroke-width:1.0;" x1="580.7476" x2="669.9644" y1="603.5889" y2="603.5889"/><polygon fill="#181818" points="659.9644,599.5889,669.9644,603.5889,659.9644,607.5889,663.9644,603.5889" style="stroke:#181818;stroke-width:1.0;"/><line style="stroke:#181818;stroke-width:1.0;" x1="783.1812" x2="783.1812" y1="530.4951" y2="603.5889"/><line style="stroke:#181818;stroke-width:1.0;" x1="783.1812" x2="693.9644" y1="603.5889" y2="603.5889"/><polygon fill="#181818" points="703.9644,599.5889,693.9644,603.5889,703.9644,607.5889,699.9644,603.5889" style="stroke:#181818;stroke-width:1.0;"/><line style="stroke:#181818;stroke-width:1.0;" x1="681.9644" x2="681.9644" y1="441.4014" y2="461.4014"/><polygon fill="#181818" points="677.9644,451.4014,681.9644,461.4014,685.9644,451.4014,681.9644,455.4014" style="stroke:#181818;stroke-width:1.0;"/><line style="stroke:#181818;stroke-width:1.0;" x1="681.9644" x2="681.9644" y1="381.3896" y2="406.3076"/><polygon fill="#181818" points="677.9644,396.3076,681.9644,406.3076,685.9644,396.3076,681.9644,400.3076" style="stroke:#181818;stroke-width:1.0;"/><line style="stroke:#181818;stroke-width:1.0;" x1="745.6316" x2="887.5571" y1="369.3896" y2="369.3896"/><polygon fill="#181818" points="883.5571,500.9482,887.5571,510.9482,891.5571,500.9482,887.5571,504.9482" style="stroke:#181818;stroke-width:1.0;"/><line style="stroke:#181818;stroke-width:1.0;" x1="887.5571" x2="887.5571" y1="369.3896" y2="647.5889"/><line style="stroke:#181818;stroke-width:1.0;" x1="887.5571" x2="693.9644" y1="647.5889" y2="647.5889"/><polygon fill="#181818" points="703.9644,643.5889,693.9644,647.5889,703.9644,651.5889,699.9644,647.5889" style="stroke:#181818;stroke-width:1.0;"/><line style="stroke:#181818;stroke-width:1.0;" x1="681.9644" x2="681.9644" y1="615.5889" y2="635.5889"/><polygon fill="#181818" points="677.9644,625.5889,681.9644,635.5889,685.9644,625.5889,681.9644,629.5889" style="stroke:#181818;stroke-width:1.0;"/><line style="stroke:#181818;stroke-width:1.0;" x1="681.9644" x2="681.9644" y1="659.5889" y2="679.5889"/><polygon fill="#181818" points="677.9644,669.5889,681.9644,679.5889,685.9644,669.5889,681.9644,673.5889" style="stroke:#181818;stroke-width:1.0;"/><line style="stroke:#181818;stroke-width:1.0;" x1="578.7534" x2="578.7534" y1="994.0576" y2="1014.0576"/><polygon fill="#181818" points="574.7534,1004.0576,578.7534,1014.0576,582.7534,1004.0576,578.7534,1008.0576" style="stroke:#181818;stroke-width:1.0;"/><line style="stroke:#181818;stroke-width:1.0;" x1="578.7534" x2="578.7534" y1="1153.1631" y2="1188.1631"/><polygon fill="#181818" points="574.7534,1178.1631,578.7534,1188.1631,582.7534,1178.1631,578.7534,1182.1631" style="stroke:#181818;stroke-width:1.0;"/><line style="stroke:#181818;stroke-width:1.0;" x1="578.7534" x2="578.7534" y1="1093.1514" y2="1118.0693"/><polygon fill="#181818" points="574.7534,1108.0693,578.7534,1118.0693,582.7534,1108.0693,578.7534,1112.0693" style="stroke:#181818;stroke-width:1.0;"/><line style="stroke:#181818;stroke-width:1.0;" x1="688.5986" x2="700.5986" y1="1081.1514" y2="1081.1514"/><polygon fill="#181818" points="696.5986,1160.6631,700.5986,1170.6631,704.5986,1160.6631,700.5986,1164.6631" style="stroke:#181818;stroke-width:1.0;"/><line style="stroke:#181818;stroke-width:1.0;" x1="700.5986" x2="700.5986" y1="1081.1514" y2="1255.2568"/><line style="stroke:#181818;stroke-width:1.0;" x1="700.5986" x2="590.7534" y1="1255.2568" y2="1255.2568"/><polygon fill="#181818" points="600.7534,1251.2568,590.7534,1255.2568,600.7534,1259.2568,596.7534,1255.2568" style="stroke:#181818;stroke-width:1.0;"/><line style="stroke:#181818;stroke-width:1.0;" x1="578.7534" x2="578.7534" y1="1223.2568" y2="1243.2568"/><polygon fill="#181818" points="574.7534,1233.2568,578.7534,1243.2568,582.7534,1233.2568,578.7534,1237.2568" style="stroke:#181818;stroke-width:1.0;"/><line style="stroke:#181818;stroke-width:1.0;" x1="578.7534" x2="578.7534" y1="1049.1514" y2="1069.1514"/><polygon fill="#181818" points="574.7534,1059.1514,578.7534,1069.1514,582.7534,1059.1514,578.7534,1063.1514" style="stroke:#181818;stroke-width:1.0;"/><line style="stroke:#181818;stroke-width:1.0;" x1="625.0164" x2="578.7534" y1="746.6826" y2="746.6826"/><line style="stroke:#181818;stroke-width:1.0;" x1="578.7534" x2="578.7534" y1="746.6826" y2="778.6826"/><polygon fill="#181818" points="574.7534,768.6826,578.7534,778.6826,582.7534,768.6826,578.7534,772.6826" style="stroke:#181818;stroke-width:1.0;"/><line style="stroke:#181818;stroke-width:1.0;" x1="738.9124" x2="785.1753" y1="746.6826" y2="746.6826"/><line style="stroke:#181818;stroke-width:1.0;" x1="785.1753" x2="785.1753" y1="746.6826" y2="778.6826"/><polygon fill="#181818" points="781.1753,768.6826,785.1753,778.6826,789.1753,768.6826,785.1753,772.6826" style="stroke:#181818;stroke-width:1.0;"/><line style="stroke:#181818;stroke-width:1.0;" x1="578.7534" x2="578.7534" y1="1267.2568" y2="1289.2568"/><line style="stroke:#181818;stroke-width:1.0;" x1="578.7534" x2="669.9644" y1="1289.2568" y2="1289.2568"/><polygon fill="#181818" points="659.9644,1285.2568,669.9644,1289.2568,659.9644,1293.2568,663.9644,1289.2568" style="stroke:#181818;stroke-width:1.0;"/><line style="stroke:#181818;stroke-width:1.0;" x1="785.1753" x2="785.1753" y1="813.7764" y2="1289.2568"/><line style="stroke:#181818;stroke-width:1.0;" x1="785.1753" x2="693.9644" y1="1289.2568" y2="1289.2568"/><polygon fill="#181818" points="703.9644,1285.2568,693.9644,1289.2568,703.9644,1293.2568,699.9644,1289.2568" style="stroke:#181818;stroke-width:1.0;"/><line style="stroke:#181818;stroke-width:1.0;" x1="681.9644" x2="681.9644" y1="714.6826" y2="734.6826"/><polygon fill="#181818" points="677.9644,724.6826,681.9644,734.6826,685.9644,724.6826,681.9644,728.6826" style="stroke:#181818;stroke-width:1.0;"/><line style="stroke:#181818;stroke-width:1.0;" x1="681.9644" x2="681.9644" y1="1301.2568" y2="1321.2568"/><polygon fill="#181818" points="677.9644,1311.2568,681.9644,1321.2568,685.9644,1311.2568,681.9644,1315.2568" style="stroke:#181818;stroke-width:1.0;"/><line style="stroke:#181818;stroke-width:1.0;" x1="681.9644" x2="681.9644" y1="1356.3506" y2="1376.3506"/><polygon fill="#181818" points="677.9644,1366.3506,681.9644,1376.3506,685.9644,1366.3506,681.9644,1370.3506" style="stroke:#181818;stroke-width:1.0;"/><line style="stroke:#181818;stroke-width:1.0;" x1="681.9644" x2="681.9644" y1="324.4707" y2="357.3896"/><polygon fill="#181818" points="677.9644,347.3896,681.9644,357.3896,685.9644,347.3896,681.9644,351.3896" style="stroke:#181818;stroke-width:1.0;"/><line style="stroke:#181818;stroke-width:1.0;" x1="681.9644" x2="681.9644" y1="1411.4443" y2="1431.4443"/><polygon fill="#181818" points="677.9644,1421.4443,681.9644,1431.4443,685.9644,1421.4443,681.9644,1425.4443" style="stroke:#181818;stroke-width:1.0;"/><line style="stroke:#181818;stroke-width:1.0;" x1="1047.5474" x2="1047.5474" y1="324.4707" y2="357.3896"/><polygon fill="#181818" points="1043.5474,347.3896,1047.5474,357.3896,1051.5474,347.3896,1047.5474,351.3896" style="stroke:#181818;stroke-width:1.0;"/><line style="stroke:#181818;stroke-width:1.0;" x1="1047.5474" x2="1047.5474" y1="392.4834" y2="1431.4443"/><polygon fill="#181818" points="1043.5474,1421.4443,1047.5474,1431.4443,1051.5474,1421.4443,1047.5474,1425.4443" style="stroke:#181818;stroke-width:1.0;"/><line style="stroke:#181818;stroke-width:1.0;" x1="735.2466" x2="994.2651" y1="312.4707" y2="312.4707"/><polygon fill="#181818" points="984.2651,308.4707,994.2651,312.4707,984.2651,316.4707,988.2651,312.4707" style="stroke:#181818;stroke-width:1.0;"/><line style="stroke:#181818;stroke-width:1.0;" x1="959.1172" x2="959.1172" y1="280.4707" y2="285.4707"/><line style="stroke:#181818;stroke-width:1.0;" x1="959.1172" x2="681.9644" y1="285.4707" y2="285.4707"/><line style="stroke:#181818;stroke-width:1.0;" x1="681.9644" x2="681.9644" y1="285.4707" y2="300.4707"/><polygon fill="#181818" points="677.9644,290.4707,681.9644,300.4707,685.9644,290.4707,681.9644,294.4707" style="stroke:#181818;stroke-width:1.0;"/><line style="stroke:#181818;stroke-width:1.0;" x1="1100.8296" x2="1322.2056" y1="312.4707" y2="312.4707"/><line style="stroke:#181818;stroke-width:1.0;" x1="1322.2056" x2="1322.2056" y1="312.4707" y2="862.9521"/><polygon fill="#181818" points="1318.2056,852.9521,1322.2056,862.9521,1326.2056,852.9521,1322.2056,856.9521" style="stroke:#181818;stroke-width:1.0;"/><line style="stroke:#181818;stroke-width:1.0;" x1="1322.2056" x2="1322.2056" y1="898.0459" y2="1431.4443"/><polygon fill="#181818" points="1318.2056,1421.4443,1322.2056,1431.4443,1326.2056,1421.4443,1322.2056,1425.4443" style="stroke:#181818;stroke-width:1.0;"/><line style="stroke:#181818;stroke-width:1.0;" x1="681.9644" x2="1322.2056" y1="1431.4443" y2="1431.4443"/><line style="stroke:#181818;stroke-width:1.0;" x1="959.1172" x2="959.1172" y1="1431.4443" y2="1451.4443"/><polygon fill="#181818" points="955.1172,1441.4443,959.1172,1451.4443,963.1172,1441.4443,959.1172,1445.4443" style="stroke:#181818;stroke-width:1.0;"/><line style="stroke:#181818;stroke-width:1.0;" x1="336.1738" x2="336.1738" y1="225.377" y2="230.377"/><line style="stroke:#181818;stroke-width:1.0;" x1="336.1738" x2="959.1172" y1="230.377" y2="230.377"/><line style="stroke:#181818;stroke-width:1.0;" x1="959.1172" x2="959.1172" y1="230.377" y2="245.377"/><polygon fill="#181818" points="955.1172,235.377,959.1172,245.377,963.1172,235.377,959.1172,239.377" style="stroke:#181818;stroke-width:1.0;"/><line style="stroke:#181818;stroke-width:1.0;" x1="578.7534" x2="578.7534" y1="813.7764" y2="818.7764"/><line style="stroke:#181818;stroke-width:1.0;" x1="578.7534" x2="116.7197" y1="818.7764" y2="818.7764"/><line style="stroke:#181818;stroke-width:1.0;" x1="116.7197" x2="116.7197" y1="818.7764" y2="833.7764"/><polygon fill="#181818" points="112.7197,823.7764,116.7197,833.7764,120.7197,823.7764,116.7197,827.7764" style="stroke:#181818;stroke-width:1.0;"/><line style="stroke:#181818;stroke-width:1.0;" x1="116.7197" x2="116.7197" y1="938.9639" y2="943.9639"/><line style="stroke:#181818;stroke-width:1.0;" x1="116.7197" x2="578.7534" y1="943.9639" y2="943.9639"/><line style="stroke:#181818;stroke-width:1.0;" x1="578.7534" x2="578.7534" y1="943.9639" y2="958.9639"/><polygon fill="#181818" points="574.7534,948.9639,578.7534,958.9639,582.7534,948.9639,578.7534,952.9639" style="stroke:#181818;stroke-width:1.0;"/><text fill="#000000" font-family="sans-serif" font-size="18" lengthAdjust="spacing" textLength="41.0098" x="213.9492" y="31.1406">Kasir</text><text fill="#000000" font-family="sans-serif" font-size="18" lengthAdjust="spacing" textLength="55.0107" x="930.8855" y="31.1406">Sistem</text><!--SRC=[ZLIxRkGm3Epz5KIgTNNzRX4ak2uu8C3cYYlfjMpph1VqG1307t-KRScx6oSuLx8u78x8aQONzEIcoWTqeJh-4gg98yA04XLgU7EeFOwUJdEC90rWXKVDiG_KFU38gvOQ32XvESEqI9l1gCP8U2wHQZgJ3q9DCvLmD7e4hXkYpvmCeWuEvvlDnnh283GSddHmXFh7gpDU-Be2_XBygKMmphIHTK8GRaGA9UaFBi3q9Mszk8Ynb5spJWLI5eduDPFwsEB0nrHH8krIh_GgDsA7UbF0A4a9v8CPeS61bmsESSCAwGKSdeMCglvCCA1byKvSZ6jt2WdTKbTjD6_KuhZGRA4gAru7OPEg3tHf22LUkbk2N_Tre13P4C5m0nPl3EXOPajET56tEpsULlFTy8n6T-GKH-0-CScry_1PKUuZzovojJtwxBUR0KKCkNKx_Fh20mpmDoh94_zI-UmE8Rbkd_oFbdEieRHqxC5yQu3qjtRHVMHeJqkkpOIVFREeSlJEKrWh7MnEHrtVE-TgvBTZBwVOnHtdVq0U-VNHxrtpsxOOHBv4vRH7-7dr4Cp85tAaG9j07HkU6y9TMrwFxSrOnLT9qJUt_omaxr2TZQjHMPglcd3EE7Z8pCjbzGlyuLGj9zsa_I_3fZ2Hp2tWPzBOwXy0]--></g></svg>