<svg xmlns="http://www.w3.org/2000/svg" xmlns:xlink="http://www.w3.org/1999/xlink" contentStyleType="text/css" height="448px" preserveAspectRatio="none" style="width:322px;height:448px;background:#FFFFFF;" version="1.1" viewBox="0 0 322 448" width="322px" zoomAndPan="magnify"><title>Activity Diagram</title><defs/><g><text fill="#000000" font-family="sans-serif" font-size="14" font-weight="bold" lengthAdjust="spacing" textLength="110.4824" x="104.6543" y="34.5332">Activity Diagram</text><text fill="#000000" font-family="sans-serif" font-size="14" font-weight="bold" lengthAdjust="spacing" textLength="160.2412" x="79.7749" y="52.1426">Proses Login Pengguna</text><ellipse cx="161.5669" cy="76.2188" fill="#222222" rx="10" ry="10" style="stroke:#222222;stroke-width:1.0;"/><rect fill="#F1F1F1" height="35.0938" rx="12.5" ry="12.5" style="stroke:#181818;stroke-width:0.5;" width="217.4727" x="52.8306" y="106.2188"/><text fill="#000000" font-family="sans-serif" font-size="12" lengthAdjust="spacing" textLength="197.4727" x="62.8306" y="128.6758">Pengguna mengakses halaman login</text><rect fill="#F1F1F1" height="35.0938" rx="12.5" ry="12.5" style="stroke:#181818;stroke-width:0.5;" width="201.418" x="60.8579" y="161.3125"/><text fill="#000000" font-family="sans-serif" font-size="12" lengthAdjust="spacing" textLength="181.418" x="70.8579" y="183.7695">Memasukkan email dan password</text><rect fill="#F1F1F1" height="35.0938" rx="12.5" ry="12.5" style="stroke:#181818;stroke-width:0.5;" width="184.7246" x="69.2046" y="216.4063"/><text fill="#000000" font-family="sans-serif" font-size="12" lengthAdjust="spacing" textLength="164.7246" x="79.2046" y="238.8633">Sistem memvalidasi kredensial</text><polygon fill="#F1F1F1" points="119.6804,271.5,203.4534,271.5,215.4534,283.5,203.4534,295.5,119.6804,295.5,107.6804,283.5,119.6804,271.5" style="stroke:#181818;stroke-width:0.5;"/><text fill="#000000" font-family="sans-serif" font-size="11" lengthAdjust="spacing" textLength="83.7729" x="119.6804" y="288.001">Kredensial valid?</text><text fill="#000000" font-family="sans-serif" font-size="11" lengthAdjust="spacing" textLength="13.4546" x="94.2258" y="281.083">Ya</text><text fill="#000000" font-family="sans-serif" font-size="11" lengthAdjust="spacing" textLength="26.8984" x="215.4534" y="281.083">Tidak</text><rect fill="#F1F1F1" height="35.0938" rx="12.5" ry="12.5" style="stroke:#181818;stroke-width:0.5;" width="114.043" x="24.3477" y="305.5"/><text fill="#000000" font-family="sans-serif" font-size="12" lengthAdjust="spacing" textLength="94.043" x="34.3477" y="327.957">Membuat session</text><rect fill="#F1F1F1" height="35.0938" rx="12.5" ry="12.5" style="stroke:#181818;stroke-width:0.5;" width="140.7383" x="11" y="360.5938"/><text fill="#000000" font-family="sans-serif" font-size="12" lengthAdjust="spacing" textLength="120.7383" x="21" y="383.0508">Redirect ke dashboard</text><ellipse cx="81.3691" cy="426.6875" fill="none" rx="11" ry="11" style="stroke:#222222;stroke-width:1.0;"/><ellipse cx="81.3691" cy="426.6875" fill="#222222" rx="6" ry="6" style="stroke:#222222;stroke-width:1.0;"/><rect fill="#F1F1F1" height="35.0938" rx="12.5" ry="12.5" style="stroke:#181818;stroke-width:0.5;" width="140.0527" x="171.7383" y="305.5"/><text fill="#000000" font-family="sans-serif" font-size="12" lengthAdjust="spacing" textLength="120.0527" x="181.7383" y="327.957">Tampilkan pesan error</text><ellipse cx="241.7646" cy="371.5938" fill="none" rx="11" ry="11" style="stroke:#222222;stroke-width:1.0;"/><ellipse cx="241.7646" cy="371.5938" fill="#222222" rx="6" ry="6" style="stroke:#222222;stroke-width:1.0;"/><line style="stroke:#181818;stroke-width:1.0;" x1="161.5669" x2="161.5669" y1="86.2188" y2="106.2188"/><polygon fill="#181818" points="157.5669,96.2188,161.5669,106.2188,165.5669,96.2188,161.5669,100.2188" style="stroke:#181818;stroke-width:1.0;"/><line style="stroke:#181818;stroke-width:1.0;" x1="161.5669" x2="161.5669" y1="141.3125" y2="161.3125"/><polygon fill="#181818" points="157.5669,151.3125,161.5669,161.3125,165.5669,151.3125,161.5669,155.3125" style="stroke:#181818;stroke-width:1.0;"/><line style="stroke:#181818;stroke-width:1.0;" x1="161.5669" x2="161.5669" y1="196.4063" y2="216.4063"/><polygon fill="#181818" points="157.5669,206.4063,161.5669,216.4063,165.5669,206.4063,161.5669,210.4063" style="stroke:#181818;stroke-width:1.0;"/><line style="stroke:#181818;stroke-width:1.0;" x1="81.3691" x2="81.3691" y1="340.5938" y2="360.5938"/><polygon fill="#181818" points="77.3691,350.5938,81.3691,360.5938,85.3691,350.5938,81.3691,354.5938" style="stroke:#181818;stroke-width:1.0;"/><line style="stroke:#181818;stroke-width:1.0;" x1="81.3691" x2="81.3691" y1="395.6875" y2="415.6875"/><polygon fill="#181818" points="77.3691,405.6875,81.3691,415.6875,85.3691,405.6875,81.3691,409.6875" style="stroke:#181818;stroke-width:1.0;"/><line style="stroke:#181818;stroke-width:1.0;" x1="241.7646" x2="241.7646" y1="340.5938" y2="360.5938"/><polygon fill="#181818" points="237.7646,350.5938,241.7646,360.5938,245.7646,350.5938,241.7646,354.5938" style="stroke:#181818;stroke-width:1.0;"/><line style="stroke:#181818;stroke-width:1.0;" x1="107.6804" x2="81.3691" y1="283.5" y2="283.5"/><line style="stroke:#181818;stroke-width:1.0;" x1="81.3691" x2="81.3691" y1="283.5" y2="305.5"/><polygon fill="#181818" points="77.3691,295.5,81.3691,305.5,85.3691,295.5,81.3691,299.5" style="stroke:#181818;stroke-width:1.0;"/><line style="stroke:#181818;stroke-width:1.0;" x1="215.4534" x2="241.7646" y1="283.5" y2="283.5"/><line style="stroke:#181818;stroke-width:1.0;" x1="241.7646" x2="241.7646" y1="283.5" y2="305.5"/><polygon fill="#181818" points="237.7646,295.5,241.7646,305.5,245.7646,295.5,241.7646,299.5" style="stroke:#181818;stroke-width:1.0;"/><line style="stroke:#181818;stroke-width:1.0;" x1="161.5669" x2="161.5669" y1="251.5" y2="271.5"/><polygon fill="#181818" points="157.5669,261.5,161.5669,271.5,165.5669,261.5,161.5669,265.5" style="stroke:#181818;stroke-width:1.0;"/><!--SRC=[JKwxJWD13Epz5IwJNqWAX4G7I1594ud6kNNkh7rgxGlYx_560U5gD0_FQ9JIg5D6cankOj_7XHfZdOpcMW1CB34-FqHy4PhT_LaElIehljLP2XwupFDQ242Dki7kby3iWE9mBfGeKy4q4dlOlNCcNMDqof4a38uQgNxL7bm_YXfdVv1lb2IG2iREWOiAfJs0N77p-aVWtVIqHLkuuEPCMq2_qN9PoT0Ng5JllRCV7AJpP1ZPQtMvL1gTGrEh3JWfu-RahV7nvqIvIHfZ6-kOt7lj_nCbo1L-0000]--></g></svg>