<svg xmlns="http://www.w3.org/2000/svg" xmlns:xlink="http://www.w3.org/1999/xlink" contentStyleType="text/css" height="848px" preserveAspectRatio="none" style="width:3419px;height:848px;background:#FFFFFF;" version="1.1" viewBox="0 0 3419 848" width="3419px" zoomAndPan="magnify"><defs/><g><rect fill="none" height="22.6406" style="stroke:none;stroke-width:1.0;" width="3386.9351" x="15" y="12.4551"/><ellipse cx="812.3223" cy="50.0957" fill="#222222" rx="10" ry="10" style="stroke:#222222;stroke-width:1.0;"/><rect fill="#F1F1F1" height="35.0938" rx="12.5" ry="12.5" style="stroke:#181818;stroke-width:0.5;" width="182.7734" x="720.9355" y="80.0957"/><text fill="#000000" font-family="sans-serif" font-size="12" lengthAdjust="spacing" textLength="162.7734" x="730.9355" y="102.5527">Membuka halaman Pelanggan</text><polygon fill="#F1F1F1" points="100.9326,135.1895,127.8311,135.1895,139.8311,147.1895,127.8311,159.1895,100.9326,159.1895,88.9326,147.1895,100.9326,135.1895" style="stroke:#181818;stroke-width:0.5;"/><text fill="#000000" font-family="sans-serif" font-size="11" lengthAdjust="spacing" textLength="40.353" x="118.3818" y="170.6084">Tambah</text><text fill="#000000" font-family="sans-serif" font-size="11" lengthAdjust="spacing" textLength="26.8984" x="100.9326" y="151.6904">Aksi?</text><rect fill="#F1F1F1" height="35.0938" rx="12.5" ry="12.5" style="stroke:#181818;stroke-width:0.5;" width="186.7637" x="21" y="192.1084"/><text fill="#000000" font-family="sans-serif" font-size="12" lengthAdjust="spacing" textLength="166.7637" x="31" y="214.5654">Klik tombol Tambah Pelanggan</text><path d="M208.4189,247.2021 L208.4189,272.7295 L188.4189,276.7295 L208.4189,280.7295 L208.4189,306.2568 A0,0 0 0 0 208.4189,306.2568 L358.7461,306.2568 A0,0 0 0 0 358.7461,306.2568 L358.7461,257.2021 L348.7461,247.2021 L208.4189,247.2021 A0,0 0 0 0 208.4189,247.2021 " fill="#FEFFDD" style="stroke:#181818;stroke-width:0.5;"/><path d="M348.7461,247.2021 L348.7461,257.2021 L358.7461,257.2021 L348.7461,247.2021 " fill="#FEFFDD" style="stroke:#181818;stroke-width:0.5;"/><text fill="#000000" font-family="sans-serif" font-size="13" lengthAdjust="spacing" textLength="95.4116" x="214.4189" y="265.6973">Data pelanggan:</text><text fill="#000000" font-family="sans-serif" font-size="13" lengthAdjust="spacing" textLength="42.6182" x="214.4189" y="282.0488">- Nama</text><text fill="#000000" font-family="sans-serif" font-size="13" lengthAdjust="spacing" textLength="129.3271" x="214.4189" y="298.4004">- Nomor telepon (unik)</text><rect fill="#F1F1F1" height="35.0938" rx="12.5" ry="12.5" style="stroke:#181818;stroke-width:0.5;" width="148.0742" x="40.3447" y="259.1826"/><text fill="#000000" font-family="sans-serif" font-size="12" lengthAdjust="spacing" textLength="128.0742" x="50.3447" y="281.6396">Mengisi form pelanggan</text><rect fill="#F1F1F1" height="35.0938" rx="12.5" ry="12.5" style="stroke:#181818;stroke-width:0.5;" width="141.418" x="43.6729" y="341.2568"/><text fill="#000000" font-family="sans-serif" font-size="12" lengthAdjust="spacing" textLength="121.418" x="53.6729" y="363.7139">Menyimpan pelanggan</text><polygon fill="#F1F1F1" points="461.0273,135.1895,487.9258,135.1895,499.9258,147.1895,487.9258,159.1895,461.0273,159.1895,449.0273,147.1895,461.0273,135.1895" style="stroke:#181818;stroke-width:0.5;"/><text fill="#000000" font-family="sans-serif" font-size="11" lengthAdjust="spacing" textLength="18.9546" x="478.4766" y="170.6084">Edit</text><text fill="#000000" font-family="sans-serif" font-size="11" lengthAdjust="spacing" textLength="26.8984" x="461.0273" y="151.6904">Aksi?</text><rect fill="#F1F1F1" height="35.0938" rx="12.5" ry="12.5" style="stroke:#181818;stroke-width:0.5;" width="211.4609" x="368.7461" y="192.1084"/><text fill="#000000" font-family="sans-serif" font-size="12" lengthAdjust="spacing" textLength="191.4609" x="378.7461" y="214.5654">Memilih pelanggan yang akan diedit</text><rect fill="#F1F1F1" height="35.0938" rx="12.5" ry="12.5" style="stroke:#181818;stroke-width:0.5;" width="162.793" x="393.0801" y="247.2021"/><text fill="#000000" font-family="sans-serif" font-size="12" lengthAdjust="spacing" textLength="142.793" x="403.0801" y="269.6592">Mengubah data pelanggan</text><rect fill="#F1F1F1" height="35.0938" rx="12.5" ry="12.5" style="stroke:#181818;stroke-width:0.5;" width="142.748" x="403.1025" y="317.2959"/><text fill="#000000" font-family="sans-serif" font-size="12" lengthAdjust="spacing" textLength="122.748" x="413.1025" y="339.7529">Menyimpan perubahan</text><polygon fill="#F1F1F1" points="637.1221,135.1895,664.0205,135.1895,676.0205,147.1895,664.0205,159.1895,637.1221,159.1895,625.1221,147.1895,637.1221,135.1895" style="stroke:#181818;stroke-width:0.5;"/><text fill="#000000" font-family="sans-serif" font-size="11" lengthAdjust="spacing" textLength="55.0322" x="654.5713" y="170.6084">Lihat Detail</text><text fill="#000000" font-family="sans-serif" font-size="11" lengthAdjust="spacing" textLength="26.8984" x="637.1221" y="151.6904">Aksi?</text><rect fill="#F1F1F1" height="35.0938" rx="12.5" ry="12.5" style="stroke:#181818;stroke-width:0.5;" width="120.7285" x="590.207" y="192.1084"/><text fill="#000000" font-family="sans-serif" font-size="12" lengthAdjust="spacing" textLength="100.7285" x="600.207" y="214.5654">Memilih pelanggan</text><polygon fill="#F1F1F1" points="1082.8494,135.1895,1109.7478,135.1895,1121.7478,147.1895,1109.7478,159.1895,1082.8494,159.1895,1070.8494,147.1895,1082.8494,135.1895" style="stroke:#181818;stroke-width:0.5;"/><text fill="#000000" font-family="sans-serif" font-size="11" lengthAdjust="spacing" textLength="45.2461" x="1100.2986" y="170.6084">Atur Poin</text><text fill="#000000" font-family="sans-serif" font-size="11" lengthAdjust="spacing" textLength="26.8984" x="1082.8494" y="151.6904">Aksi?</text><text fill="#000000" font-family="sans-serif" font-size="11" lengthAdjust="spacing" textLength="31.7969" x="1121.7478" y="144.7725">Hapus</text><rect fill="#F1F1F1" height="35.0938" rx="12.5" ry="12.5" style="stroke:#181818;stroke-width:0.5;" width="120.7285" x="1035.9343" y="192.1084"/><text fill="#000000" font-family="sans-serif" font-size="12" lengthAdjust="spacing" textLength="100.7285" x="1045.9343" y="214.5654">Memilih pelanggan</text><rect fill="#F1F1F1" height="35.0938" rx="12.5" ry="12.5" style="stroke:#181818;stroke-width:0.5;" width="112.0332" x="1040.282" y="247.2021"/><text fill="#000000" font-family="sans-serif" font-size="12" lengthAdjust="spacing" textLength="92.0332" x="1050.282" y="269.6592">Memilih aksi poin</text><polygon fill="#F1F1F1" points="1070.9229,317.2959,1121.6743,317.2959,1133.6743,329.2959,1121.6743,341.2959,1070.9229,341.2959,1058.9229,329.2959,1070.9229,317.2959" style="stroke:#181818;stroke-width:0.5;"/><text fill="#000000" font-family="sans-serif" font-size="11" lengthAdjust="spacing" textLength="50.7515" x="1070.9229" y="333.7969">Aksi poin?</text><text fill="#000000" font-family="sans-serif" font-size="11" lengthAdjust="spacing" textLength="79.4868" x="979.436" y="326.8789">Tambah Manual</text><text fill="#000000" font-family="sans-serif" font-size="11" lengthAdjust="spacing" textLength="77.0483" x="1133.6743" y="326.8789">Kurangi Manual</text><rect fill="#F1F1F1" height="35.0938" rx="12.5" ry="12.5" style="stroke:#181818;stroke-width:0.5;" width="156.0664" x="873.7793" y="361.2959"/><text fill="#000000" font-family="sans-serif" font-size="12" lengthAdjust="spacing" textLength="136.0664" x="883.7793" y="383.7529">Memasukkan jumlah poin</text><rect fill="#F1F1F1" height="35.0938" rx="12.5" ry="12.5" style="stroke:#181818;stroke-width:0.5;" width="130.0566" x="886.7842" y="431.3896"/><text fill="#000000" font-family="sans-serif" font-size="12" lengthAdjust="spacing" textLength="110.0566" x="896.7842" y="453.8467">Memasukkan alasan</text><rect fill="#F1F1F1" height="35.0938" rx="12.5" ry="12.5" style="stroke:#181818;stroke-width:0.5;" width="156.0664" x="1162.7515" y="361.2959"/><text fill="#000000" font-family="sans-serif" font-size="12" lengthAdjust="spacing" textLength="136.0664" x="1172.7515" y="383.7529">Memasukkan jumlah poin</text><rect fill="#F1F1F1" height="35.0938" rx="12.5" ry="12.5" style="stroke:#181818;stroke-width:0.5;" width="130.0566" x="1175.7563" y="431.3896"/><text fill="#000000" font-family="sans-serif" font-size="12" lengthAdjust="spacing" textLength="110.0566" x="1185.7563" y="453.8467">Memasukkan alasan</text><polygon fill="#F1F1F1" points="1096.2986,680.6709,1108.2986,692.6709,1096.2986,704.6709,1084.2986,692.6709,1096.2986,680.6709" style="stroke:#181818;stroke-width:0.5;"/><rect fill="#F1F1F1" height="35.0938" rx="12.5" ry="12.5" style="stroke:#181818;stroke-width:0.5;" width="224.8086" x="1328.8179" y="317.3311"/><text fill="#000000" font-family="sans-serif" font-size="12" lengthAdjust="spacing" textLength="204.8086" x="1338.8179" y="339.7881">Memilih pelanggan yang akan dihapus</text><rect fill="#F1F1F1" height="35.0938" rx="12.5" ry="12.5" style="stroke:#181818;stroke-width:0.5;" width="152.7559" x="1364.8442" y="387.4248"/><text fill="#000000" font-family="sans-serif" font-size="12" lengthAdjust="spacing" textLength="132.7559" x="1374.8442" y="409.8818">Konfirmasi penghapusan</text><line style="stroke:#000000;stroke-width:1.5;" x1="15" x2="15" y1="12.4551" y2="836.7646"/><rect fill="#F1F1F1" height="35.0938" rx="12.5" ry="12.5" style="stroke:#181818;stroke-width:0.5;" width="142.0742" x="1662.665" y="411.3506"/><text fill="#000000" font-family="sans-serif" font-size="12" lengthAdjust="spacing" textLength="122.0742" x="1672.665" y="433.8076">Validasi nomor telepon</text><polygon fill="#F1F1F1" points="1667.3503,481.4443,1800.054,481.4443,1812.054,493.4443,1800.054,505.4443,1667.3503,505.4443,1655.3503,493.4443,1667.3503,481.4443" style="stroke:#181818;stroke-width:0.5;"/><text fill="#000000" font-family="sans-serif" font-size="11" lengthAdjust="spacing" textLength="132.7036" x="1667.3503" y="497.9453">Nomor telepon sudah ada?</text><text fill="#000000" font-family="sans-serif" font-size="11" lengthAdjust="spacing" textLength="13.4546" x="1641.8958" y="491.0273">Ya</text><text fill="#000000" font-family="sans-serif" font-size="11" lengthAdjust="spacing" textLength="26.8984" x="1812.054" y="491.0273">Tidak</text><rect fill="#F1F1F1" height="35.0938" rx="12.5" ry="12.5" style="stroke:#181818;stroke-width:0.5;" width="156.0664" x="1564.2974" y="515.4443"/><text fill="#000000" font-family="sans-serif" font-size="12" lengthAdjust="spacing" textLength="136.0664" x="1574.2974" y="537.9014">Menampilkan pesan error</text><rect fill="#F1F1F1" height="35.0938" rx="12.5" ry="12.5" style="stroke:#181818;stroke-width:0.5;" width="157.4082" x="1563.6265" y="585.5381"/><text fill="#000000" font-family="sans-serif" font-size="12" lengthAdjust="spacing" textLength="137.4082" x="1573.6265" y="607.9951">Nomor telepon harus unik</text><rect fill="#F1F1F1" height="35.0938" rx="12.5" ry="12.5" style="stroke:#181818;stroke-width:0.5;" width="150.7461" x="1749.7007" y="515.4443"/><text fill="#000000" font-family="sans-serif" font-size="12" lengthAdjust="spacing" textLength="130.7461" x="1759.7007" y="537.9014">Menyimpan ke database</text><rect fill="#F1F1F1" height="35.0938" rx="12.5" ry="12.5" style="stroke:#181818;stroke-width:0.5;" width="105.3887" x="1772.3794" y="585.5381"/><text fill="#000000" font-family="sans-serif" font-size="12" lengthAdjust="spacing" textLength="85.3887" x="1782.3794" y="607.9951">Set poin awal: 0</text><rect fill="#F1F1F1" height="35.0938" rx="12.5" ry="12.5" style="stroke:#181818;stroke-width:0.5;" width="168.0781" x="1741.0347" y="655.6318"/><text fill="#000000" font-family="sans-serif" font-size="12" lengthAdjust="spacing" textLength="148.0781" x="1751.0347" y="678.0889">Menampilkan pesan sukses</text><polygon fill="#F1F1F1" points="1733.7021,696.7256,1745.7021,708.7256,1733.7021,720.7256,1721.7021,708.7256,1733.7021,696.7256" style="stroke:#181818;stroke-width:0.5;"/><rect fill="#F1F1F1" height="35.0938" rx="12.5" ry="12.5" style="stroke:#181818;stroke-width:0.5;" width="88.7129" x="1958.7954" y="387.3896"/><text fill="#000000" font-family="sans-serif" font-size="12" lengthAdjust="spacing" textLength="68.7129" x="1968.7954" y="409.8467">Validasi data</text><rect fill="#F1F1F1" height="35.0938" rx="12.5" ry="12.5" style="stroke:#181818;stroke-width:0.5;" width="144.7754" x="1930.7642" y="457.4834"/><text fill="#000000" font-family="sans-serif" font-size="12" lengthAdjust="spacing" textLength="124.7754" x="1940.7642" y="479.9404">Update data pelanggan</text><rect fill="#F1F1F1" height="35.0938" rx="12.5" ry="12.5" style="stroke:#181818;stroke-width:0.5;" width="168.0781" x="1919.1128" y="527.5771"/><text fill="#000000" font-family="sans-serif" font-size="12" lengthAdjust="spacing" textLength="148.0781" x="1929.1128" y="550.0342">Menampilkan pesan sukses</text><rect fill="#F1F1F1" height="35.0938" rx="12.5" ry="12.5" style="stroke:#181818;stroke-width:0.5;" width="182.7793" x="2097.8325" y="247.2021"/><text fill="#000000" font-family="sans-serif" font-size="12" lengthAdjust="spacing" textLength="162.7793" x="2107.8325" y="269.6592">Menampilkan detail pelanggan</text><rect fill="#F1F1F1" height="35.0938" rx="12.5" ry="12.5" style="stroke:#181818;stroke-width:0.5;" width="143.4043" x="2117.52" y="317.2959"/><text fill="#000000" font-family="sans-serif" font-size="12" lengthAdjust="spacing" textLength="123.4043" x="2127.52" y="339.7529">Menampilkan total poin</text><path d="M2288.5884,387.3896 L2288.5884,421.0928 L2268.5884,425.0928 L2288.5884,429.0928 L2288.5884,462.7959 A0,0 0 0 0 2288.5884,462.7959 L2469.9873,462.7959 A0,0 0 0 0 2469.9873,462.7959 L2469.9873,397.3896 L2459.9873,387.3896 L2288.5884,387.3896 A0,0 0 0 0 2288.5884,387.3896 " fill="#FEFFDD" style="stroke:#181818;stroke-width:0.5;"/><path d="M2459.9873,387.3896 L2459.9873,397.3896 L2469.9873,397.3896 L2459.9873,387.3896 " fill="#FEFFDD" style="stroke:#181818;stroke-width:0.5;"/><text fill="#000000" font-family="sans-serif" font-size="13" lengthAdjust="spacing" textLength="78.0381" x="2294.5884" y="405.8848">Riwayat poin:</text><text fill="#000000" font-family="sans-serif" font-size="13" lengthAdjust="spacing" textLength="160.3989" x="2294.5884" y="422.2363">- Dapat poin (dari transaksi)</text><text fill="#000000" font-family="sans-serif" font-size="13" lengthAdjust="spacing" textLength="118.498" x="2294.5884" y="438.5879">- Pakai poin (diskon)</text><text fill="#000000" font-family="sans-serif" font-size="13" lengthAdjust="spacing" textLength="122.1099" x="2294.5884" y="454.9395">- Tanggal &amp; deskripsi</text><rect fill="#F1F1F1" height="35.0938" rx="12.5" ry="12.5" style="stroke:#181818;stroke-width:0.5;" width="158.7324" x="2109.856" y="407.5459"/><text fill="#000000" font-family="sans-serif" font-size="12" lengthAdjust="spacing" textLength="138.7324" x="2119.856" y="430.0029">Menampilkan riwayat poin</text><path d="M2301.2534,497.7959 L2301.2534,539.6748 L2281.2534,543.6748 L2301.2534,547.6748 L2301.2534,589.5537 A0,0 0 0 0 2301.2534,589.5537 L2442.9287,589.5537 A0,0 0 0 0 2442.9287,589.5537 L2442.9287,507.7959 L2432.9287,497.7959 L2301.2534,497.7959 A0,0 0 0 0 2301.2534,497.7959 " fill="#FEFFDD" style="stroke:#181818;stroke-width:0.5;"/><path d="M2432.9287,497.7959 L2432.9287,507.7959 L2442.9287,507.7959 L2432.9287,497.7959 " fill="#FEFFDD" style="stroke:#181818;stroke-width:0.5;"/><text fill="#000000" font-family="sans-serif" font-size="13" lengthAdjust="spacing" textLength="105.479" x="2307.2534" y="516.291">Riwayat transaksi:</text><text fill="#000000" font-family="sans-serif" font-size="13" lengthAdjust="spacing" textLength="91.0254" x="2307.2534" y="532.6426">- Nomor invoice</text><text fill="#000000" font-family="sans-serif" font-size="13" lengthAdjust="spacing" textLength="82.3799" x="2307.2534" y="548.9941">- Total belanja</text><text fill="#000000" font-family="sans-serif" font-size="13" lengthAdjust="spacing" textLength="120.6753" x="2307.2534" y="565.3457">- Status pembayaran</text><text fill="#000000" font-family="sans-serif" font-size="13" lengthAdjust="spacing" textLength="54.9199" x="2307.2534" y="581.6973">- Tanggal</text><rect fill="#F1F1F1" height="35.0938" rx="12.5" ry="12.5" style="stroke:#181818;stroke-width:0.5;" width="184.0625" x="2097.1909" y="526.1279"/><text fill="#000000" font-family="sans-serif" font-size="12" lengthAdjust="spacing" textLength="164.0625" x="2107.1909" y="548.585">Menampilkan riwayat transaksi</text><rect fill="#F1F1F1" height="35.0938" rx="12.5" ry="12.5" style="stroke:#181818;stroke-width:0.5;" width="165.4473" x="2480.6289" y="501.4834"/><text fill="#000000" font-family="sans-serif" font-size="12" lengthAdjust="spacing" textLength="145.4473" x="2490.6289" y="523.9404">Menambah poin pelanggan</text><rect fill="#F1F1F1" height="35.0938" rx="12.5" ry="12.5" style="stroke:#181818;stroke-width:0.5;" width="166.7305" x="2479.9873" y="571.5771"/><text fill="#000000" font-family="sans-serif" font-size="12" lengthAdjust="spacing" textLength="146.7305" x="2489.9873" y="594.0342">Catat riwayat poin (manual)</text><polygon fill="#F1F1F1" points="2822.0532,501.4834,2882.5962,501.4834,2894.5962,513.4834,2882.5962,525.4834,2822.0532,525.4834,2810.0532,513.4834,2822.0532,501.4834" style="stroke:#181818;stroke-width:0.5;"/><text fill="#000000" font-family="sans-serif" font-size="11" lengthAdjust="spacing" textLength="60.543" x="2822.0532" y="517.9844">Poin cukup?</text><text fill="#000000" font-family="sans-serif" font-size="11" lengthAdjust="spacing" textLength="13.4546" x="2796.5986" y="511.0664">Ya</text><text fill="#000000" font-family="sans-serif" font-size="11" lengthAdjust="spacing" textLength="26.8984" x="2894.5962" y="511.0664">Tidak</text><rect fill="#F1F1F1" height="35.0938" rx="12.5" ry="12.5" style="stroke:#181818;stroke-width:0.5;" width="168.7871" x="2676.7178" y="535.4834"/><text fill="#000000" font-family="sans-serif" font-size="12" lengthAdjust="spacing" textLength="148.7871" x="2686.7178" y="557.9404">Mengurangi poin pelanggan</text><rect fill="#F1F1F1" height="35.0938" rx="12.5" ry="12.5" style="stroke:#181818;stroke-width:0.5;" width="166.7305" x="2677.7461" y="605.5771"/><text fill="#000000" font-family="sans-serif" font-size="12" lengthAdjust="spacing" textLength="146.7305" x="2687.7461" y="628.0342">Catat riwayat poin (manual)</text><rect fill="#F1F1F1" height="35.0938" rx="12.5" ry="12.5" style="stroke:#181818;stroke-width:0.5;" width="156.0664" x="2865.5049" y="535.4834"/><text fill="#000000" font-family="sans-serif" font-size="12" lengthAdjust="spacing" textLength="136.0664" x="2875.5049" y="557.9404">Menampilkan pesan error</text><polygon fill="#F1F1F1" points="2852.3247,646.6709,2864.3247,658.6709,2852.3247,670.6709,2840.3247,658.6709,2852.3247,646.6709" style="stroke:#181818;stroke-width:0.5;"/><rect fill="#F1F1F1" height="35.0938" rx="12.5" ry="12.5" style="stroke:#181818;stroke-width:0.5;" width="168.0781" x="2623.7996" y="739.6709"/><text fill="#000000" font-family="sans-serif" font-size="12" lengthAdjust="spacing" textLength="148.0781" x="2633.7996" y="762.1279">Menampilkan pesan sukses</text><polygon fill="#F1F1F1" points="3146.769,457.5186,3285.5903,457.5186,3297.5903,469.5186,3285.5903,481.5186,3146.769,481.5186,3134.769,469.5186,3146.769,457.5186" style="stroke:#181818;stroke-width:0.5;"/><text fill="#000000" font-family="sans-serif" font-size="11" lengthAdjust="spacing" textLength="138.8213" x="3146.769" y="474.0195">Pelanggan punya transaksi?</text><text fill="#000000" font-family="sans-serif" font-size="11" lengthAdjust="spacing" textLength="13.4546" x="3121.3145" y="467.1016">Ya</text><text fill="#000000" font-family="sans-serif" font-size="11" lengthAdjust="spacing" textLength="26.8984" x="3297.5903" y="467.1016">Tidak</text><rect fill="#F1F1F1" height="35.0938" rx="12.5" ry="12.5" style="stroke:#181818;stroke-width:0.5;" width="151.4141" x="3044.2568" y="491.5186"/><text fill="#000000" font-family="sans-serif" font-size="12" lengthAdjust="spacing" textLength="131.4141" x="3054.2568" y="513.9756">Menampilkan peringatan</text><rect fill="#F1F1F1" height="35.0938" rx="12.5" ry="12.5" style="stroke:#181818;stroke-width:0.5;" width="176.7852" x="3031.5713" y="561.6123"/><text fill="#000000" font-family="sans-serif" font-size="12" lengthAdjust="spacing" textLength="156.7852" x="3041.5713" y="584.0693">Pelanggan tidak bisa dihapus</text><rect fill="#F1F1F1" height="35.0938" rx="12.5" ry="12.5" style="stroke:#181818;stroke-width:0.5;" width="114.0781" x="3255.3564" y="491.5186"/><text fill="#000000" font-family="sans-serif" font-size="12" lengthAdjust="spacing" textLength="94.0781" x="3265.3564" y="513.9756">Hapus pelanggan</text><rect fill="#F1F1F1" height="35.0938" rx="12.5" ry="12.5" style="stroke:#181818;stroke-width:0.5;" width="168.0781" x="3228.3564" y="561.6123"/><text fill="#000000" font-family="sans-serif" font-size="12" lengthAdjust="spacing" textLength="148.0781" x="3238.3564" y="584.0693">Menampilkan pesan sukses</text><polygon fill="#F1F1F1" points="3216.1797,602.7061,3228.1797,614.7061,3216.1797,626.7061,3204.1797,614.7061,3216.1797,602.7061" style="stroke:#181818;stroke-width:0.5;"/><ellipse cx="2443.8623" cy="825.7646" fill="none" rx="11" ry="11" style="stroke:#222222;stroke-width:1.0;"/><ellipse cx="2443.8623" cy="825.7646" fill="#222222" rx="6" ry="6" style="stroke:#222222;stroke-width:1.0;"/><line style="stroke:#000000;stroke-width:1.5;" x1="1557.6265" x2="1557.6265" y1="12.4551" y2="836.7646"/><line style="stroke:#000000;stroke-width:1.5;" x1="3400.4346" x2="3400.4346" y1="12.4551" y2="836.7646"/><line style="stroke:#181818;stroke-width:1.0;" x1="812.3223" x2="812.3223" y1="60.0957" y2="80.0957"/><polygon fill="#181818" points="808.3223,70.0957,812.3223,80.0957,816.3223,70.0957,812.3223,74.0957" style="stroke:#181818;stroke-width:1.0;"/><line style="stroke:#181818;stroke-width:1.0;" x1="114.3818" x2="114.3818" y1="227.2021" y2="259.1826"/><polygon fill="#181818" points="110.3818,249.1826,114.3818,259.1826,118.3818,249.1826,114.3818,253.1826" style="stroke:#181818;stroke-width:1.0;"/><line style="stroke:#181818;stroke-width:1.0;" x1="114.3818" x2="114.3818" y1="294.2764" y2="341.2568"/><polygon fill="#181818" points="110.3818,331.2568,114.3818,341.2568,118.3818,331.2568,114.3818,335.2568" style="stroke:#181818;stroke-width:1.0;"/><line style="stroke:#181818;stroke-width:1.0;" x1="474.4766" x2="474.4766" y1="227.2021" y2="247.2021"/><polygon fill="#181818" points="470.4766,237.2021,474.4766,247.2021,478.4766,237.2021,474.4766,241.2021" style="stroke:#181818;stroke-width:1.0;"/><line style="stroke:#181818;stroke-width:1.0;" x1="474.4766" x2="474.4766" y1="282.2959" y2="317.2959"/><polygon fill="#181818" points="470.4766,307.2959,474.4766,317.2959,478.4766,307.2959,474.4766,311.2959" style="stroke:#181818;stroke-width:1.0;"/><line style="stroke:#181818;stroke-width:1.0;" x1="1096.2986" x2="1096.2986" y1="227.2021" y2="247.2021"/><polygon fill="#181818" points="1092.2986,237.2021,1096.2986,247.2021,1100.2986,237.2021,1096.2986,241.2021" style="stroke:#181818;stroke-width:1.0;"/><line style="stroke:#181818;stroke-width:1.0;" x1="951.8125" x2="951.8125" y1="396.3896" y2="431.3896"/><polygon fill="#181818" points="947.8125,421.3896,951.8125,431.3896,955.8125,421.3896,951.8125,425.3896" style="stroke:#181818;stroke-width:1.0;"/><line style="stroke:#181818;stroke-width:1.0;" x1="1240.7847" x2="1240.7847" y1="396.3896" y2="431.3896"/><polygon fill="#181818" points="1236.7847,421.3896,1240.7847,431.3896,1244.7847,421.3896,1240.7847,425.3896" style="stroke:#181818;stroke-width:1.0;"/><line style="stroke:#181818;stroke-width:1.0;" x1="1058.9229" x2="951.8125" y1="329.2959" y2="329.2959"/><line style="stroke:#181818;stroke-width:1.0;" x1="951.8125" x2="951.8125" y1="329.2959" y2="361.2959"/><polygon fill="#181818" points="947.8125,351.2959,951.8125,361.2959,955.8125,351.2959,951.8125,355.2959" style="stroke:#181818;stroke-width:1.0;"/><line style="stroke:#181818;stroke-width:1.0;" x1="1133.6743" x2="1240.7847" y1="329.2959" y2="329.2959"/><line style="stroke:#181818;stroke-width:1.0;" x1="1240.7847" x2="1240.7847" y1="329.2959" y2="361.2959"/><polygon fill="#181818" points="1236.7847,351.2959,1240.7847,361.2959,1244.7847,351.2959,1240.7847,355.2959" style="stroke:#181818;stroke-width:1.0;"/><line style="stroke:#181818;stroke-width:1.0;" x1="1096.2986" x2="1096.2986" y1="282.2959" y2="317.2959"/><polygon fill="#181818" points="1092.2986,307.2959,1096.2986,317.2959,1100.2986,307.2959,1096.2986,311.2959" style="stroke:#181818;stroke-width:1.0;"/><line style="stroke:#181818;stroke-width:1.0;" x1="1441.2222" x2="1441.2222" y1="352.4248" y2="387.4248"/><polygon fill="#181818" points="1437.2222,377.4248,1441.2222,387.4248,1445.2222,377.4248,1441.2222,381.4248" style="stroke:#181818;stroke-width:1.0;"/><line style="stroke:#181818;stroke-width:1.0;" x1="114.3818" x2="114.3818" y1="159.1895" y2="192.1084"/><polygon fill="#181818" points="110.3818,182.1084,114.3818,192.1084,118.3818,182.1084,114.3818,186.1084" style="stroke:#181818;stroke-width:1.0;"/><line style="stroke:#181818;stroke-width:1.0;" x1="474.4766" x2="474.4766" y1="159.1895" y2="192.1084"/><polygon fill="#181818" points="470.4766,182.1084,474.4766,192.1084,478.4766,182.1084,474.4766,186.1084" style="stroke:#181818;stroke-width:1.0;"/><line style="stroke:#181818;stroke-width:1.0;" x1="650.5713" x2="650.5713" y1="159.1895" y2="192.1084"/><polygon fill="#181818" points="646.5713,182.1084,650.5713,192.1084,654.5713,182.1084,650.5713,186.1084" style="stroke:#181818;stroke-width:1.0;"/><line style="stroke:#181818;stroke-width:1.0;" x1="1096.2986" x2="1096.2986" y1="159.1895" y2="192.1084"/><polygon fill="#181818" points="1092.2986,182.1084,1096.2986,192.1084,1100.2986,182.1084,1096.2986,186.1084" style="stroke:#181818;stroke-width:1.0;"/><line style="stroke:#181818;stroke-width:1.0;" x1="139.8311" x2="449.0273" y1="147.1895" y2="147.1895"/><polygon fill="#181818" points="439.0273,143.1895,449.0273,147.1895,439.0273,151.1895,443.0273,147.1895" style="stroke:#181818;stroke-width:1.0;"/><line style="stroke:#181818;stroke-width:1.0;" x1="499.9258" x2="625.1221" y1="147.1895" y2="147.1895"/><polygon fill="#181818" points="615.1221,143.1895,625.1221,147.1895,615.1221,151.1895,619.1221,147.1895" style="stroke:#181818;stroke-width:1.0;"/><line style="stroke:#181818;stroke-width:1.0;" x1="676.0205" x2="1070.8494" y1="147.1895" y2="147.1895"/><polygon fill="#181818" points="1060.8494,143.1895,1070.8494,147.1895,1060.8494,151.1895,1064.8494,147.1895" style="stroke:#181818;stroke-width:1.0;"/><line style="stroke:#181818;stroke-width:1.0;" x1="812.3223" x2="812.3223" y1="115.1895" y2="120.1895"/><line style="stroke:#181818;stroke-width:1.0;" x1="812.3223" x2="114.3818" y1="120.1895" y2="120.1895"/><line style="stroke:#181818;stroke-width:1.0;" x1="114.3818" x2="114.3818" y1="120.1895" y2="135.1895"/><polygon fill="#181818" points="110.3818,125.1895,114.3818,135.1895,118.3818,125.1895,114.3818,129.1895" style="stroke:#181818;stroke-width:1.0;"/><line style="stroke:#181818;stroke-width:1.0;" x1="1121.7478" x2="1441.2222" y1="147.1895" y2="147.1895"/><line style="stroke:#181818;stroke-width:1.0;" x1="1441.2222" x2="1441.2222" y1="147.1895" y2="317.3311"/><polygon fill="#181818" points="1437.2222,307.3311,1441.2222,317.3311,1445.2222,307.3311,1441.2222,311.3311" style="stroke:#181818;stroke-width:1.0;"/><line style="stroke:#181818;stroke-width:1.0;" x1="1642.3306" x2="1642.3306" y1="550.5381" y2="585.5381"/><polygon fill="#181818" points="1638.3306,575.5381,1642.3306,585.5381,1646.3306,575.5381,1642.3306,579.5381" style="stroke:#181818;stroke-width:1.0;"/><line style="stroke:#181818;stroke-width:1.0;" x1="1825.0737" x2="1825.0737" y1="550.5381" y2="585.5381"/><polygon fill="#181818" points="1821.0737,575.5381,1825.0737,585.5381,1829.0737,575.5381,1825.0737,579.5381" style="stroke:#181818;stroke-width:1.0;"/><line style="stroke:#181818;stroke-width:1.0;" x1="1825.0737" x2="1825.0737" y1="620.6318" y2="655.6318"/><polygon fill="#181818" points="1821.0737,645.6318,1825.0737,655.6318,1829.0737,645.6318,1825.0737,649.6318" style="stroke:#181818;stroke-width:1.0;"/><line style="stroke:#181818;stroke-width:1.0;" x1="1655.3503" x2="1642.3306" y1="493.4443" y2="493.4443"/><line style="stroke:#181818;stroke-width:1.0;" x1="1642.3306" x2="1642.3306" y1="493.4443" y2="515.4443"/><polygon fill="#181818" points="1638.3306,505.4443,1642.3306,515.4443,1646.3306,505.4443,1642.3306,509.4443" style="stroke:#181818;stroke-width:1.0;"/><line style="stroke:#181818;stroke-width:1.0;" x1="1812.054" x2="1825.0737" y1="493.4443" y2="493.4443"/><line style="stroke:#181818;stroke-width:1.0;" x1="1825.0737" x2="1825.0737" y1="493.4443" y2="515.4443"/><polygon fill="#181818" points="1821.0737,505.4443,1825.0737,515.4443,1829.0737,505.4443,1825.0737,509.4443" style="stroke:#181818;stroke-width:1.0;"/><line style="stroke:#181818;stroke-width:1.0;" x1="1642.3306" x2="1642.3306" y1="620.6318" y2="708.7256"/><line style="stroke:#181818;stroke-width:1.0;" x1="1642.3306" x2="1721.7021" y1="708.7256" y2="708.7256"/><polygon fill="#181818" points="1711.7021,704.7256,1721.7021,708.7256,1711.7021,712.7256,1715.7021,708.7256" style="stroke:#181818;stroke-width:1.0;"/><line style="stroke:#181818;stroke-width:1.0;" x1="1825.0737" x2="1825.0737" y1="690.7256" y2="708.7256"/><line style="stroke:#181818;stroke-width:1.0;" x1="1825.0737" x2="1745.7021" y1="708.7256" y2="708.7256"/><polygon fill="#181818" points="1755.7021,704.7256,1745.7021,708.7256,1755.7021,712.7256,1751.7021,708.7256" style="stroke:#181818;stroke-width:1.0;"/><line style="stroke:#181818;stroke-width:1.0;" x1="1733.7021" x2="1733.7021" y1="446.4443" y2="481.4443"/><polygon fill="#181818" points="1729.7021,471.4443,1733.7021,481.4443,1737.7021,471.4443,1733.7021,475.4443" style="stroke:#181818;stroke-width:1.0;"/><line style="stroke:#181818;stroke-width:1.0;" x1="2003.1519" x2="2003.1519" y1="422.4834" y2="457.4834"/><polygon fill="#181818" points="1999.1519,447.4834,2003.1519,457.4834,2007.1519,447.4834,2003.1519,451.4834" style="stroke:#181818;stroke-width:1.0;"/><line style="stroke:#181818;stroke-width:1.0;" x1="2003.1519" x2="2003.1519" y1="492.5771" y2="527.5771"/><polygon fill="#181818" points="1999.1519,517.5771,2003.1519,527.5771,2007.1519,517.5771,2003.1519,521.5771" style="stroke:#181818;stroke-width:1.0;"/><line style="stroke:#181818;stroke-width:1.0;" x1="2189.2222" x2="2189.2222" y1="282.2959" y2="317.2959"/><polygon fill="#181818" points="2185.2222,307.2959,2189.2222,317.2959,2193.2222,307.2959,2189.2222,311.2959" style="stroke:#181818;stroke-width:1.0;"/><line style="stroke:#181818;stroke-width:1.0;" x1="2189.2222" x2="2189.2222" y1="352.3896" y2="407.5459"/><polygon fill="#181818" points="2185.2222,397.5459,2189.2222,407.5459,2193.2222,397.5459,2189.2222,401.5459" style="stroke:#181818;stroke-width:1.0;"/><line style="stroke:#181818;stroke-width:1.0;" x1="2189.2222" x2="2189.2222" y1="442.6396" y2="526.1279"/><polygon fill="#181818" points="2185.2222,516.1279,2189.2222,526.1279,2193.2222,516.1279,2189.2222,520.1279" style="stroke:#181818;stroke-width:1.0;"/><line style="stroke:#181818;stroke-width:1.0;" x1="2563.3525" x2="2563.3525" y1="536.5771" y2="571.5771"/><polygon fill="#181818" points="2559.3525,561.5771,2563.3525,571.5771,2567.3525,561.5771,2563.3525,565.5771" style="stroke:#181818;stroke-width:1.0;"/><line style="stroke:#181818;stroke-width:1.0;" x1="2761.1113" x2="2761.1113" y1="570.5771" y2="605.5771"/><polygon fill="#181818" points="2757.1113,595.5771,2761.1113,605.5771,2765.1113,595.5771,2761.1113,599.5771" style="stroke:#181818;stroke-width:1.0;"/><line style="stroke:#181818;stroke-width:1.0;" x1="2810.0532" x2="2761.1113" y1="513.4834" y2="513.4834"/><line style="stroke:#181818;stroke-width:1.0;" x1="2761.1113" x2="2761.1113" y1="513.4834" y2="535.4834"/><polygon fill="#181818" points="2757.1113,525.4834,2761.1113,535.4834,2765.1113,525.4834,2761.1113,529.4834" style="stroke:#181818;stroke-width:1.0;"/><line style="stroke:#181818;stroke-width:1.0;" x1="2894.5962" x2="2943.5381" y1="513.4834" y2="513.4834"/><line style="stroke:#181818;stroke-width:1.0;" x1="2943.5381" x2="2943.5381" y1="513.4834" y2="535.4834"/><polygon fill="#181818" points="2939.5381,525.4834,2943.5381,535.4834,2947.5381,525.4834,2943.5381,529.4834" style="stroke:#181818;stroke-width:1.0;"/><line style="stroke:#181818;stroke-width:1.0;" x1="2761.1113" x2="2761.1113" y1="640.6709" y2="658.6709"/><line style="stroke:#181818;stroke-width:1.0;" x1="2761.1113" x2="2840.3247" y1="658.6709" y2="658.6709"/><polygon fill="#181818" points="2830.3247,654.6709,2840.3247,658.6709,2830.3247,662.6709,2834.3247,658.6709" style="stroke:#181818;stroke-width:1.0;"/><line style="stroke:#181818;stroke-width:1.0;" x1="2943.5381" x2="2943.5381" y1="570.5771" y2="658.6709"/><line style="stroke:#181818;stroke-width:1.0;" x1="2943.5381" x2="2864.3247" y1="658.6709" y2="658.6709"/><polygon fill="#181818" points="2874.3247,654.6709,2864.3247,658.6709,2874.3247,662.6709,2870.3247,658.6709" style="stroke:#181818;stroke-width:1.0;"/><line style="stroke:#181818;stroke-width:1.0;" x1="3119.9639" x2="3119.9639" y1="526.6123" y2="561.6123"/><polygon fill="#181818" points="3115.9639,551.6123,3119.9639,561.6123,3123.9639,551.6123,3119.9639,555.6123" style="stroke:#181818;stroke-width:1.0;"/><line style="stroke:#181818;stroke-width:1.0;" x1="3312.3955" x2="3312.3955" y1="526.6123" y2="561.6123"/><polygon fill="#181818" points="3308.3955,551.6123,3312.3955,561.6123,3316.3955,551.6123,3312.3955,555.6123" style="stroke:#181818;stroke-width:1.0;"/><line style="stroke:#181818;stroke-width:1.0;" x1="3134.769" x2="3119.9639" y1="469.5186" y2="469.5186"/><line style="stroke:#181818;stroke-width:1.0;" x1="3119.9639" x2="3119.9639" y1="469.5186" y2="491.5186"/><polygon fill="#181818" points="3115.9639,481.5186,3119.9639,491.5186,3123.9639,481.5186,3119.9639,485.5186" style="stroke:#181818;stroke-width:1.0;"/><line style="stroke:#181818;stroke-width:1.0;" x1="3297.5903" x2="3312.3955" y1="469.5186" y2="469.5186"/><line style="stroke:#181818;stroke-width:1.0;" x1="3312.3955" x2="3312.3955" y1="469.5186" y2="491.5186"/><polygon fill="#181818" points="3308.3955,481.5186,3312.3955,491.5186,3316.3955,481.5186,3312.3955,485.5186" style="stroke:#181818;stroke-width:1.0;"/><line style="stroke:#181818;stroke-width:1.0;" x1="3119.9639" x2="3119.9639" y1="596.7061" y2="614.7061"/><line style="stroke:#181818;stroke-width:1.0;" x1="3119.9639" x2="3204.1797" y1="614.7061" y2="614.7061"/><polygon fill="#181818" points="3194.1797,610.7061,3204.1797,614.7061,3194.1797,618.7061,3198.1797,614.7061" style="stroke:#181818;stroke-width:1.0;"/><line style="stroke:#181818;stroke-width:1.0;" x1="3312.3955" x2="3312.3955" y1="596.7061" y2="614.7061"/><line style="stroke:#181818;stroke-width:1.0;" x1="3312.3955" x2="3228.1797" y1="614.7061" y2="614.7061"/><polygon fill="#181818" points="3238.1797,610.7061,3228.1797,614.7061,3238.1797,618.7061,3234.1797,614.7061" style="stroke:#181818;stroke-width:1.0;"/><line style="stroke:#181818;stroke-width:1.0;" x1="1733.7021" x2="1733.7021" y1="720.7256" y2="794.7646"/><polygon fill="#181818" points="1729.7021,784.7646,1733.7021,794.7646,1737.7021,784.7646,1733.7021,788.7646" style="stroke:#181818;stroke-width:1.0;"/><line style="stroke:#181818;stroke-width:1.0;" x1="2003.1519" x2="2003.1519" y1="562.6709" y2="794.7646"/><polygon fill="#181818" points="1999.1519,784.7646,2003.1519,794.7646,2007.1519,784.7646,2003.1519,788.7646" style="stroke:#181818;stroke-width:1.0;"/><line style="stroke:#181818;stroke-width:1.0;" x1="2189.2222" x2="2189.2222" y1="561.2217" y2="794.7646"/><polygon fill="#181818" points="2185.2222,784.7646,2189.2222,794.7646,2193.2222,784.7646,2189.2222,788.7646" style="stroke:#181818;stroke-width:1.0;"/><line style="stroke:#181818;stroke-width:1.0;" x1="2707.8386" x2="2707.8386" y1="774.7646" y2="794.7646"/><polygon fill="#181818" points="2703.8386,784.7646,2707.8386,794.7646,2711.8386,784.7646,2707.8386,788.7646" style="stroke:#181818;stroke-width:1.0;"/><line style="stroke:#181818;stroke-width:1.0;" x1="3216.1797" x2="3216.1797" y1="626.7061" y2="794.7646"/><polygon fill="#181818" points="3212.1797,784.7646,3216.1797,794.7646,3220.1797,784.7646,3216.1797,788.7646" style="stroke:#181818;stroke-width:1.0;"/><line style="stroke:#181818;stroke-width:1.0;" x1="1733.7021" x2="3216.1797" y1="794.7646" y2="794.7646"/><line style="stroke:#181818;stroke-width:1.0;" x1="114.3818" x2="114.3818" y1="376.3506" y2="393.8506"/><line style="stroke:#181818;stroke-width:1.0;" x1="114.3818" x2="1733.7021" y1="393.8506" y2="393.8506"/><line style="stroke:#181818;stroke-width:1.0;" x1="1733.7021" x2="1733.7021" y1="393.8506" y2="411.3506"/><polygon fill="#181818" points="1729.7021,401.3506,1733.7021,411.3506,1737.7021,401.3506,1733.7021,405.3506" style="stroke:#181818;stroke-width:1.0;"/><line style="stroke:#181818;stroke-width:1.0;" x1="474.4766" x2="474.4766" y1="352.3896" y2="369.8896"/><line style="stroke:#181818;stroke-width:1.0;" x1="474.4766" x2="2003.1519" y1="369.8896" y2="369.8896"/><line style="stroke:#181818;stroke-width:1.0;" x1="2003.1519" x2="2003.1519" y1="369.8896" y2="387.3896"/><polygon fill="#181818" points="1999.1519,377.3896,2003.1519,387.3896,2007.1519,377.3896,2003.1519,381.3896" style="stroke:#181818;stroke-width:1.0;"/><line style="stroke:#181818;stroke-width:1.0;" x1="650.5713" x2="650.5713" y1="227.2021" y2="232.2021"/><line style="stroke:#181818;stroke-width:1.0;" x1="650.5713" x2="2189.2222" y1="232.2021" y2="232.2021"/><line style="stroke:#181818;stroke-width:1.0;" x1="2189.2222" x2="2189.2222" y1="232.2021" y2="247.2021"/><polygon fill="#181818" points="2185.2222,237.2021,2189.2222,247.2021,2193.2222,237.2021,2189.2222,241.2021" style="stroke:#181818;stroke-width:1.0;"/><line style="stroke:#181818;stroke-width:1.0;" x1="951.8125" x2="951.8125" y1="466.4834" y2="483.9834"/><line style="stroke:#181818;stroke-width:1.0;" x1="951.8125" x2="2563.3525" y1="483.9834" y2="483.9834"/><line style="stroke:#181818;stroke-width:1.0;" x1="2563.3525" x2="2563.3525" y1="483.9834" y2="501.4834"/><polygon fill="#181818" points="2559.3525,491.4834,2563.3525,501.4834,2567.3525,491.4834,2563.3525,495.4834" style="stroke:#181818;stroke-width:1.0;"/><line style="stroke:#181818;stroke-width:1.0;" x1="1240.7847" x2="1240.7847" y1="466.4834" y2="483.9834"/><line style="stroke:#181818;stroke-width:1.0;" x1="1240.7847" x2="2852.3247" y1="483.9834" y2="483.9834"/><line style="stroke:#181818;stroke-width:1.0;" x1="2852.3247" x2="2852.3247" y1="483.9834" y2="501.4834"/><polygon fill="#181818" points="2848.3247,491.4834,2852.3247,501.4834,2856.3247,491.4834,2852.3247,495.4834" style="stroke:#181818;stroke-width:1.0;"/><line style="stroke:#181818;stroke-width:1.0;" x1="2563.3525" x2="2563.3525" y1="606.6709" y2="674.6709"/><line style="stroke:#181818;stroke-width:1.0;" x1="2563.3525" x2="1066.2986" y1="674.6709" y2="674.6709"/><line style="stroke:#181818;stroke-width:1.0;" x1="1066.2986" x2="1066.2986" y1="674.6709" y2="692.6709"/><line style="stroke:#181818;stroke-width:1.0;" x1="1066.2986" x2="1084.2986" y1="692.6709" y2="692.6709"/><polygon fill="#181818" points="1074.2986,688.6709,1084.2986,692.6709,1074.2986,696.6709,1078.2986,692.6709" style="stroke:#181818;stroke-width:1.0;"/><line style="stroke:#181818;stroke-width:1.0;" x1="2852.3247" x2="2852.3247" y1="670.6709" y2="692.6709"/><line style="stroke:#181818;stroke-width:1.0;" x1="2852.3247" x2="1108.2986" y1="692.6709" y2="692.6709"/><polygon fill="#181818" points="1118.2986,688.6709,1108.2986,692.6709,1118.2986,696.6709,1114.2986,692.6709" style="stroke:#181818;stroke-width:1.0;"/><line style="stroke:#181818;stroke-width:1.0;" x1="1096.2986" x2="1096.2986" y1="704.6709" y2="722.1709"/><line style="stroke:#181818;stroke-width:1.0;" x1="1096.2986" x2="2707.8386" y1="722.1709" y2="722.1709"/><line style="stroke:#181818;stroke-width:1.0;" x1="2707.8386" x2="2707.8386" y1="722.1709" y2="739.6709"/><polygon fill="#181818" points="2703.8386,729.6709,2707.8386,739.6709,2711.8386,729.6709,2707.8386,733.6709" style="stroke:#181818;stroke-width:1.0;"/><line style="stroke:#181818;stroke-width:1.0;" x1="1441.2222" x2="1441.2222" y1="422.5186" y2="440.0186"/><line style="stroke:#181818;stroke-width:1.0;" x1="1441.2222" x2="3216.1797" y1="440.0186" y2="440.0186"/><line style="stroke:#181818;stroke-width:1.0;" x1="3216.1797" x2="3216.1797" y1="440.0186" y2="457.5186"/><polygon fill="#181818" points="3212.1797,447.5186,3216.1797,457.5186,3220.1797,447.5186,3216.1797,451.5186" style="stroke:#181818;stroke-width:1.0;"/><line style="stroke:#181818;stroke-width:1.0;" x1="812.3223" x2="812.3223" y1="794.7646" y2="799.7646"/><line style="stroke:#181818;stroke-width:1.0;" x1="812.3223" x2="2443.8623" y1="799.7646" y2="799.7646"/><line style="stroke:#181818;stroke-width:1.0;" x1="2443.8623" x2="2443.8623" y1="799.7646" y2="814.7646"/><polygon fill="#181818" points="2439.8623,804.7646,2443.8623,814.7646,2447.8623,804.7646,2443.8623,808.7646" style="stroke:#181818;stroke-width:1.0;"/><text fill="#000000" font-family="sans-serif" font-size="18" lengthAdjust="spacing" textLength="58.0078" x="757.3093" y="31.1406">Pemilik</text><text fill="#000000" font-family="sans-serif" font-size="18" lengthAdjust="spacing" textLength="55.0107" x="2451.5251" y="31.1406">Sistem</text><!--SRC=[jLR9Rjim4BtxA-PKs8S2FTk78cWA54XJ64rQeCTnH5iJSGEN1WRyyHrIYYZ9Izm2zK4soSUPDsyM-R0MYYGrXvaFwC9iUI_K9ZO8DKfKg64j9EhT3lLgDgCjp6yQJnyN46gXOVw8QeFrOWRyMTwn6GX6ROo4zc1uEKFkXTwH9zWQfy2E3xK90Xpjwf2N0BSOi82MtUvx-CQyoi8euo08AQnXGb5Jqz8HkiecywBtlYTbEQY9w_muF90FGXrQx4-KL25JrKC70tZIOkpSnuf3nWfxUNxXeYFQUaTbIJRPl-UdSCwuLK6CpTNeeeSKK0iHqWjMd5arOwjTJ8s0YXNRe1S3cmyYW3Ma0LzGBk73wX8X7nil_EfLFzgsuMRFHxd_N55eYHpw6khifbLTH8OzVmCcFnK9lZQeXfZAf1fbUdMSBPTWrsGhMUhk_x2y46TjNmZzJC1VgSO0jo8WoUi2FyjtwB_A1YzI32QWp6bSZSkvHpXwmJs60UQedRuF8AMPRj5sUp2lq144XzeZnxteCMjE7RrYo3T6bxF7J5h2Eux3DuwifmljTyItz_O6wHwtd7G-wT-6daJXawNQ936VovHu21YucIpFDZR7jgRyJt0-NGGt8JfOinH_Km7zVefWciTN5tb_CbdX7dL4EUftXLohISFdg2H3YhafW2Uuny5P_sDKZ2KtcyxQb7v6VE8-2gCwWxbgsKqyj8FgBhBCEpgAOApOVumfwPeI1K-nYVRaJ2vJgELwBlZh1JWvfAyR_sNW3aRlvT5nRdJDlw2D_X-6SvtkTJLxP_IMd4fJrR94-UZyICjgzpPjr7iiJNlD2z6Hth72mxGNUo492XloE2Pv-fsOepzPnDUyyjed_nqoTlO7]--></g></svg>