<svg xmlns="http://www.w3.org/2000/svg" xmlns:xlink="http://www.w3.org/1999/xlink" contentStyleType="text/css" height="1011px" preserveAspectRatio="none" style="width:848px;height:1011px;background:#FFFFFF;" version="1.1" viewBox="0 0 848 1011" width="848px" zoomAndPan="magnify"><title>Activity Diagram</title><defs/><g><text fill="#000000" font-family="sans-serif" font-size="14" font-weight="bold" lengthAdjust="spacing" textLength="110.4824" x="367.71" y="34.5332">Activity Diagram</text><text fill="#000000" font-family="sans-serif" font-size="14" font-weight="bold" lengthAdjust="spacing" textLength="135.3926" x="355.2549" y="52.1426">Transaksi Penjualan</text><ellipse cx="424.4512" cy="76.2188" fill="#222222" rx="10" ry="10" style="stroke:#222222;stroke-width:1.0;"/><rect fill="#F1F1F1" height="35.0938" rx="12.5" ry="12.5" style="stroke:#181818;stroke-width:0.5;" width="197.4102" x="325.7461" y="106.2188"/><text fill="#000000" font-family="sans-serif" font-size="12" lengthAdjust="spacing" textLength="177.4102" x="335.7461" y="128.6758">Kasir mengakses daftar transaksi</text><rect fill="#F1F1F1" height="35.0938" rx="12.5" ry="12.5" style="stroke:#181818;stroke-width:0.5;" width="216.7461" x="316.0781" y="161.3125"/><text fill="#000000" font-family="sans-serif" font-size="12" lengthAdjust="spacing" textLength="196.7461" x="326.0781" y="183.7695">Sistem menampilkan daftar transaksi</text><polygon fill="#F1F1F1" points="103.5105,216.4063,180.5696,216.4063,192.5696,228.4063,180.5696,240.4063,103.5105,240.4063,91.5105,228.4063,103.5105,216.4063" style="stroke:#181818;stroke-width:0.5;"/><text fill="#000000" font-family="sans-serif" font-size="11" lengthAdjust="spacing" textLength="28.1284" x="146.04" y="251.8252">Kotak</text><text fill="#000000" font-family="sans-serif" font-size="11" lengthAdjust="spacing" textLength="77.0591" x="103.5105" y="232.9072">Jenis pesanan?</text><rect fill="#F1F1F1" height="35.0938" rx="12.5" ry="12.5" style="stroke:#181818;stroke-width:0.5;" width="151.4141" x="66.333" y="274.2422"/><text fill="#000000" font-family="sans-serif" font-size="12" lengthAdjust="spacing" textLength="131.4141" x="76.333" y="296.6992">Membuat pesanan kotak</text><rect fill="#F1F1F1" height="35.0938" rx="12.5" ry="12.5" style="stroke:#181818;stroke-width:0.5;" width="262.0801" x="11" y="343.1719"/><text fill="#000000" font-family="sans-serif" font-size="12" lengthAdjust="spacing" textLength="242.0801" x="21" y="365.6289">Sistem generate invoice OK-YYMMDD-XXXX</text><polygon fill="#F1F1F1" points="405.1904,216.4063,443.7119,216.4063,455.7119,228.4063,443.7119,240.4063,405.1904,240.4063,393.1904,228.4063,405.1904,216.4063" style="stroke:#181818;stroke-width:0.5;"/><text fill="#000000" font-family="sans-serif" font-size="11" lengthAdjust="spacing" textLength="38.5215" x="405.1904" y="232.9072">Reguler</text><text fill="#000000" font-family="sans-serif" font-size="11" lengthAdjust="spacing" textLength="43.4146" x="455.7119" y="225.9893">Siap Beli</text><rect fill="#F1F1F1" height="35.0938" rx="12.5" ry="12.5" style="stroke:#181818;stroke-width:0.5;" width="160.0859" x="344.4082" y="260.4063"/><text fill="#000000" font-family="sans-serif" font-size="12" lengthAdjust="spacing" textLength="140.0859" x="354.4082" y="282.8633">Membuat pesanan reguler</text><rect fill="#F1F1F1" height="35.0938" rx="12.5" ry="12.5" style="stroke:#181818;stroke-width:0.5;" width="262.7422" x="293.0801" y="329.3359"/><text fill="#000000" font-family="sans-serif" font-size="12" lengthAdjust="spacing" textLength="242.7422" x="303.0801" y="351.793">Sistem generate invoice OR-YYMMDD-XXXX</text><rect fill="#F1F1F1" height="35.0938" rx="12.5" ry="12.5" style="stroke:#181818;stroke-width:0.5;" width="168.7344" x="622.4951" y="270.3242"/><text fill="#000000" font-family="sans-serif" font-size="12" lengthAdjust="spacing" textLength="148.7344" x="632.4951" y="292.7813">Membuat transaksi siap beli</text><rect fill="#F1F1F1" height="35.0938" rx="12.5" ry="12.5" style="stroke:#181818;stroke-width:0.5;" width="262.0801" x="575.8223" y="339.2539"/><text fill="#000000" font-family="sans-serif" font-size="12" lengthAdjust="spacing" textLength="242.0801" x="585.8223" y="361.7109">Sistem generate invoice OS-YYMMDD-XXXX</text><rect fill="#F1F1F1" height="35.0938" rx="12.5" ry="12.5" style="stroke:#181818;stroke-width:0.5;" width="206.7676" x="321.0674" y="418.2656"/><text fill="#000000" font-family="sans-serif" font-size="12" lengthAdjust="spacing" textLength="186.7676" x="331.0674" y="440.7227">Menambahkan produk ke transaksi</text><rect fill="#F1F1F1" height="35.0938" rx="12.5" ry="12.5" style="stroke:#181818;stroke-width:0.5;" width="217.4551" x="315.7236" y="473.3594"/><text fill="#000000" font-family="sans-serif" font-size="12" lengthAdjust="spacing" textLength="197.4551" x="325.7236" y="495.8164">Sistem menghitung subtotal dan total</text><rect fill="#F1F1F1" height="35.0938" rx="12.5" ry="12.5" style="stroke:#181818;stroke-width:0.5;" width="177.4414" x="335.7305" y="528.4531"/><text fill="#000000" font-family="sans-serif" font-size="12" lengthAdjust="spacing" textLength="157.4414" x="345.7305" y="550.9102">Memasukkan data pelanggan</text><rect fill="#F1F1F1" height="35.0938" rx="12.5" ry="12.5" style="stroke:#181818;stroke-width:0.5;" width="268.8125" x="290.0449" y="583.5469"/><text fill="#000000" font-family="sans-serif" font-size="12" lengthAdjust="spacing" textLength="248.8125" x="300.0449" y="606.0039">Sistem mencari atau membuat data pelanggan</text><rect fill="#F1F1F1" height="35.0938" rx="12.5" ry="12.5" style="stroke:#181818;stroke-width:0.5;" width="152.7266" x="348.0879" y="638.6406"/><text fill="#000000" font-family="sans-serif" font-size="12" lengthAdjust="spacing" textLength="132.7266" x="358.0879" y="661.0977">Memproses pembayaran</text><polygon fill="#F1F1F1" points="355.3547,693.7344,493.5476,693.7344,505.5476,705.7344,493.5476,717.7344,355.3547,717.7344,343.3547,705.7344,355.3547,693.7344" style="stroke:#181818;stroke-width:0.5;"/><text fill="#000000" font-family="sans-serif" font-size="11" lengthAdjust="spacing" textLength="138.1929" x="355.3547" y="710.2354">Jumlah pembayaran cukup?</text><text fill="#000000" font-family="sans-serif" font-size="11" lengthAdjust="spacing" textLength="13.4546" x="329.9001" y="703.3174">Ya</text><text fill="#000000" font-family="sans-serif" font-size="11" lengthAdjust="spacing" textLength="26.8984" x="505.5476" y="703.3174">Tidak</text><rect fill="#F1F1F1" height="35.0938" rx="12.5" ry="12.5" style="stroke:#181818;stroke-width:0.5;" width="179.4102" x="224.5308" y="727.7344"/><text fill="#000000" font-family="sans-serif" font-size="12" lengthAdjust="spacing" textLength="159.4102" x="234.5308" y="750.1914">Sistem mencatat pembayaran</text><rect fill="#F1F1F1" height="35.0938" rx="12.5" ry="12.5" style="stroke:#181818;stroke-width:0.5;" width="163.3906" x="232.5405" y="782.8281"/><text fill="#000000" font-family="sans-serif" font-size="12" lengthAdjust="spacing" textLength="143.3906" x="242.5405" y="805.2852">Sistem menghasilkan struk</text><rect fill="#F1F1F1" height="35.0938" rx="12.5" ry="12.5" style="stroke:#181818;stroke-width:0.5;" width="171.4063" x="228.5327" y="837.9219"/><text fill="#000000" font-family="sans-serif" font-size="12" lengthAdjust="spacing" textLength="151.4063" x="238.5327" y="860.3789">Mencetak struk pembayaran</text><rect fill="#F1F1F1" height="35.0938" rx="12.5" ry="12.5" style="stroke:#181818;stroke-width:0.5;" width="221.4512" x="423.9409" y="727.7344"/><text fill="#000000" font-family="sans-serif" font-size="12" lengthAdjust="spacing" textLength="201.4512" x="433.9409" y="750.1914">Tampilkan pesan pembayaran kurang</text><polygon fill="#F1F1F1" points="424.4512,879.0156,436.4512,891.0156,424.4512,903.0156,412.4512,891.0156,424.4512,879.0156" style="stroke:#181818;stroke-width:0.5;"/><rect fill="#F1F1F1" height="35.0938" rx="12.5" ry="12.5" style="stroke:#181818;stroke-width:0.5;" width="151.3789" x="348.7617" y="923.0156"/><text fill="#000000" font-family="sans-serif" font-size="12" lengthAdjust="spacing" textLength="131.3789" x="358.7617" y="945.4727">Melihat riwayat transaksi</text><ellipse cx="424.4512" cy="989.1094" fill="none" rx="11" ry="11" style="stroke:#222222;stroke-width:1.0;"/><ellipse cx="424.4512" cy="989.1094" fill="#222222" rx="6" ry="6" style="stroke:#222222;stroke-width:1.0;"/><line style="stroke:#181818;stroke-width:1.0;" x1="424.4512" x2="424.4512" y1="86.2188" y2="106.2188"/><polygon fill="#181818" points="420.4512,96.2188,424.4512,106.2188,428.4512,96.2188,424.4512,100.2188" style="stroke:#181818;stroke-width:1.0;"/><line style="stroke:#181818;stroke-width:1.0;" x1="424.4512" x2="424.4512" y1="141.3125" y2="161.3125"/><polygon fill="#181818" points="420.4512,151.3125,424.4512,161.3125,428.4512,151.3125,424.4512,155.3125" style="stroke:#181818;stroke-width:1.0;"/><line style="stroke:#181818;stroke-width:1.0;" x1="142.04" x2="142.04" y1="309.3359" y2="343.1719"/><polygon fill="#181818" points="138.04,333.1719,142.04,343.1719,146.04,333.1719,142.04,337.1719" style="stroke:#181818;stroke-width:1.0;"/><line style="stroke:#181818;stroke-width:1.0;" x1="424.4512" x2="424.4512" y1="295.5" y2="329.3359"/><polygon fill="#181818" points="420.4512,319.3359,424.4512,329.3359,428.4512,319.3359,424.4512,323.3359" style="stroke:#181818;stroke-width:1.0;"/><line style="stroke:#181818;stroke-width:1.0;" x1="706.8623" x2="706.8623" y1="305.418" y2="339.2539"/><polygon fill="#181818" points="702.8623,329.2539,706.8623,339.2539,710.8623,329.2539,706.8623,333.2539" style="stroke:#181818;stroke-width:1.0;"/><line style="stroke:#181818;stroke-width:1.0;" x1="142.04" x2="142.04" y1="240.4063" y2="274.2422"/><polygon fill="#181818" points="138.04,264.2422,142.04,274.2422,146.04,264.2422,142.04,268.2422" style="stroke:#181818;stroke-width:1.0;"/><line style="stroke:#181818;stroke-width:1.0;" x1="142.04" x2="142.04" y1="378.2656" y2="398.2656"/><polygon fill="#181818" points="138.04,388.2656,142.04,398.2656,146.04,388.2656,142.04,392.2656" style="stroke:#181818;stroke-width:1.0;"/><line style="stroke:#181818;stroke-width:1.0;" x1="424.4512" x2="424.4512" y1="240.4063" y2="260.4063"/><polygon fill="#181818" points="420.4512,250.4063,424.4512,260.4063,428.4512,250.4063,424.4512,254.4063" style="stroke:#181818;stroke-width:1.0;"/><line style="stroke:#181818;stroke-width:1.0;" x1="424.4512" x2="424.4512" y1="364.4297" y2="418.2656"/><polygon fill="#181818" points="420.4512,408.2656,424.4512,418.2656,428.4512,408.2656,424.4512,412.2656" style="stroke:#181818;stroke-width:1.0;"/><line style="stroke:#181818;stroke-width:1.0;" x1="192.5696" x2="393.1904" y1="228.4063" y2="228.4063"/><polygon fill="#181818" points="383.1904,224.4063,393.1904,228.4063,383.1904,232.4063,387.1904,228.4063" style="stroke:#181818;stroke-width:1.0;"/><line style="stroke:#181818;stroke-width:1.0;" x1="424.4512" x2="424.4512" y1="196.4063" y2="201.4063"/><line style="stroke:#181818;stroke-width:1.0;" x1="424.4512" x2="142.04" y1="201.4063" y2="201.4063"/><line style="stroke:#181818;stroke-width:1.0;" x1="142.04" x2="142.04" y1="201.4063" y2="216.4063"/><polygon fill="#181818" points="138.04,206.4063,142.04,216.4063,146.04,206.4063,142.04,210.4063" style="stroke:#181818;stroke-width:1.0;"/><line style="stroke:#181818;stroke-width:1.0;" x1="455.7119" x2="706.8623" y1="228.4063" y2="228.4063"/><line style="stroke:#181818;stroke-width:1.0;" x1="706.8623" x2="706.8623" y1="228.4063" y2="270.3242"/><polygon fill="#181818" points="702.8623,260.3242,706.8623,270.3242,710.8623,260.3242,706.8623,264.3242" style="stroke:#181818;stroke-width:1.0;"/><line style="stroke:#181818;stroke-width:1.0;" x1="706.8623" x2="706.8623" y1="374.3477" y2="398.2656"/><polygon fill="#181818" points="702.8623,388.2656,706.8623,398.2656,710.8623,388.2656,706.8623,392.2656" style="stroke:#181818;stroke-width:1.0;"/><line style="stroke:#181818;stroke-width:1.0;" x1="142.04" x2="706.8623" y1="398.2656" y2="398.2656"/><line style="stroke:#181818;stroke-width:1.0;" x1="424.4512" x2="424.4512" y1="453.3594" y2="473.3594"/><polygon fill="#181818" points="420.4512,463.3594,424.4512,473.3594,428.4512,463.3594,424.4512,467.3594" style="stroke:#181818;stroke-width:1.0;"/><line style="stroke:#181818;stroke-width:1.0;" x1="424.4512" x2="424.4512" y1="508.4531" y2="528.4531"/><polygon fill="#181818" points="420.4512,518.4531,424.4512,528.4531,428.4512,518.4531,424.4512,522.4531" style="stroke:#181818;stroke-width:1.0;"/><line style="stroke:#181818;stroke-width:1.0;" x1="424.4512" x2="424.4512" y1="563.5469" y2="583.5469"/><polygon fill="#181818" points="420.4512,573.5469,424.4512,583.5469,428.4512,573.5469,424.4512,577.5469" style="stroke:#181818;stroke-width:1.0;"/><line style="stroke:#181818;stroke-width:1.0;" x1="424.4512" x2="424.4512" y1="618.6406" y2="638.6406"/><polygon fill="#181818" points="420.4512,628.6406,424.4512,638.6406,428.4512,628.6406,424.4512,632.6406" style="stroke:#181818;stroke-width:1.0;"/><line style="stroke:#181818;stroke-width:1.0;" x1="314.2358" x2="314.2358" y1="762.8281" y2="782.8281"/><polygon fill="#181818" points="310.2358,772.8281,314.2358,782.8281,318.2358,772.8281,314.2358,776.8281" style="stroke:#181818;stroke-width:1.0;"/><line style="stroke:#181818;stroke-width:1.0;" x1="314.2358" x2="314.2358" y1="817.9219" y2="837.9219"/><polygon fill="#181818" points="310.2358,827.9219,314.2358,837.9219,318.2358,827.9219,314.2358,831.9219" style="stroke:#181818;stroke-width:1.0;"/><line style="stroke:#181818;stroke-width:1.0;" x1="343.3547" x2="314.2358" y1="705.7344" y2="705.7344"/><line style="stroke:#181818;stroke-width:1.0;" x1="314.2358" x2="314.2358" y1="705.7344" y2="727.7344"/><polygon fill="#181818" points="310.2358,717.7344,314.2358,727.7344,318.2358,717.7344,314.2358,721.7344" style="stroke:#181818;stroke-width:1.0;"/><line style="stroke:#181818;stroke-width:1.0;" x1="505.5476" x2="534.6665" y1="705.7344" y2="705.7344"/><line style="stroke:#181818;stroke-width:1.0;" x1="534.6665" x2="534.6665" y1="705.7344" y2="727.7344"/><polygon fill="#181818" points="530.6665,717.7344,534.6665,727.7344,538.6665,717.7344,534.6665,721.7344" style="stroke:#181818;stroke-width:1.0;"/><line style="stroke:#181818;stroke-width:1.0;" x1="314.2358" x2="314.2358" y1="873.0156" y2="891.0156"/><line style="stroke:#181818;stroke-width:1.0;" x1="314.2358" x2="412.4512" y1="891.0156" y2="891.0156"/><polygon fill="#181818" points="402.4512,887.0156,412.4512,891.0156,402.4512,895.0156,406.4512,891.0156" style="stroke:#181818;stroke-width:1.0;"/><line style="stroke:#181818;stroke-width:1.0;" x1="534.6665" x2="534.6665" y1="762.8281" y2="891.0156"/><line style="stroke:#181818;stroke-width:1.0;" x1="534.6665" x2="436.4512" y1="891.0156" y2="891.0156"/><polygon fill="#181818" points="446.4512,887.0156,436.4512,891.0156,446.4512,895.0156,442.4512,891.0156" style="stroke:#181818;stroke-width:1.0;"/><line style="stroke:#181818;stroke-width:1.0;" x1="424.4512" x2="424.4512" y1="673.7344" y2="693.7344"/><polygon fill="#181818" points="420.4512,683.7344,424.4512,693.7344,428.4512,683.7344,424.4512,687.7344" style="stroke:#181818;stroke-width:1.0;"/><line style="stroke:#181818;stroke-width:1.0;" x1="424.4512" x2="424.4512" y1="903.0156" y2="923.0156"/><polygon fill="#181818" points="420.4512,913.0156,424.4512,923.0156,428.4512,913.0156,424.4512,917.0156" style="stroke:#181818;stroke-width:1.0;"/><line style="stroke:#181818;stroke-width:1.0;" x1="424.4512" x2="424.4512" y1="958.1094" y2="978.1094"/><polygon fill="#181818" points="420.4512,968.1094,424.4512,978.1094,428.4512,968.1094,424.4512,972.1094" style="stroke:#181818;stroke-width:1.0;"/><!--SRC=[XLB1ZXen3BtdAto4m_u07AgkE1MXLWk7HUh532RZ9kE94cUh_VjwPXOAb6fp64tYbsVdlLS2IyAC7M2Z_CRwlcqn4VIDek_5EMMD15y_Yh1Yz8R-ARkCKZ0KXXyalof6D71HpEeMQooSeIFn1g02HpnP0VHyPUaMMovAtO31Bd4CA0zGZaym-qR21H8L59GlSz2M16RhNZ7C7TXQRAWxLDGp1i9GMqwrZpwUX38g0SjRpmt1z_NJVh_Ph5PFhxQMZcAnehLx8LyZvQdFO_uyGJxhyFAWmspBcE2P8j_DVdarb05nCCHd_DixVZdooJbZD4aFs0wIfjmVQu10_z7UjwnLF9HwK1CjcWS2uzzo8Egmr31PesZFDu-zHxcXQ30pMBdQPdhAFs0Zia6682I3uBl5JSxcrYvYUtKEJGqrNMpUu_n6XR6XZbxyPRe3-DRYDoQgQAxd89Wi3LakfiER-vCpEpvU4hMxX7Bq_7g-KEthh-MEtDf0cNyRGg-5BjedzmS0]--></g></svg>