<svg xmlns="http://www.w3.org/2000/svg" xmlns:xlink="http://www.w3.org/1999/xlink" contentStyleType="text/css" height="947px" preserveAspectRatio="none" style="width:897px;height:947px;background:#FFFFFF;" version="1.1" viewBox="0 0 897 947" width="897px" zoomAndPan="magnify"><title>Activity Diagram</title><defs/><g><text fill="#000000" font-family="sans-serif" font-size="14" font-weight="bold" lengthAdjust="spacing" textLength="110.4824" x="391.9746" y="34.5332">Activity Diagram</text><text fill="#000000" font-family="sans-serif" font-size="14" font-weight="bold" lengthAdjust="spacing" textLength="289.4131" x="302.5093" y="52.1426">Mengakses Halaman Utama (Landing Page)</text><ellipse cx="454.2158" cy="76.2188" fill="#222222" rx="10" ry="10" style="stroke:#222222;stroke-width:1.0;"/><rect fill="#F1F1F1" height="35.0938" rx="12.5" ry="12.5" style="stroke:#181818;stroke-width:0.5;" width="248.1641" x="330.1338" y="106.2188"/><text fill="#000000" font-family="sans-serif" font-size="12" lengthAdjust="spacing" textLength="228.1641" x="340.1338" y="128.6758">Pengunjung mengakses URL landing page</text><rect fill="#F1F1F1" height="35.0938" rx="12.5" ry="12.5" style="stroke:#181818;stroke-width:0.5;" width="168.7461" x="369.8428" y="161.3125"/><text fill="#000000" font-family="sans-serif" font-size="12" lengthAdjust="spacing" textLength="148.7461" x="379.8428" y="183.7695">Sistem load halaman utama</text><rect fill="#F1F1F1" height="50.1875" rx="12.5" ry="12.5" style="stroke:#181818;stroke-width:0.5;" width="235.4375" x="336.4971" y="216.4063"/><text fill="#000000" font-family="sans-serif" font-size="12" lengthAdjust="spacing" textLength="180.0879" x="346.4971" y="238.8633">Sistem menampilkan bagian Hero</text><text fill="#000000" font-family="sans-serif" font-size="12" lengthAdjust="spacing" textLength="215.4375" x="346.4971" y="253.957">(banner, nama toko, tagline, tombol WA)</text><rect fill="#F1F1F1" height="50.1875" rx="12.5" ry="12.5" style="stroke:#181818;stroke-width:0.5;" width="179.3984" x="364.5166" y="286.5938"/><text fill="#000000" font-family="sans-serif" font-size="12" lengthAdjust="spacing" textLength="159.3984" x="374.5166" y="309.0508">Sistem query 4 produk terlaris</text><text fill="#000000" font-family="sans-serif" font-size="12" lengthAdjust="spacing" textLength="127.7227" x="374.5166" y="324.1445">(is_recommended=true)</text><polygon fill="#F1F1F1" points="398.864,356.7813,509.5676,356.7813,521.5676,368.7813,509.5676,380.7813,398.864,380.7813,386.864,368.7813,398.864,356.7813" style="stroke:#181818;stroke-width:0.5;"/><text fill="#000000" font-family="sans-serif" font-size="11" lengthAdjust="spacing" textLength="110.7036" x="398.864" y="373.2822">Ada produk unggulan?</text><text fill="#000000" font-family="sans-serif" font-size="11" lengthAdjust="spacing" textLength="13.4546" x="373.4094" y="366.3643">Ya</text><text fill="#000000" font-family="sans-serif" font-size="11" lengthAdjust="spacing" textLength="26.8984" x="521.5676" y="366.3643">Tidak</text><rect fill="#F1F1F1" height="35.0938" rx="12.5" ry="12.5" style="stroke:#181818;stroke-width:0.5;" width="210.7871" x="208.6172" y="390.7813"/><text fill="#000000" font-family="sans-serif" font-size="12" lengthAdjust="spacing" textLength="190.7871" x="218.6172" y="413.2383">Tampilkan bagian Produk Unggulan</text><rect fill="#F1F1F1" height="35.0938" rx="12.5" ry="12.5" style="stroke:#181818;stroke-width:0.5;" width="310.0332" x="439.4043" y="390.7813"/><text fill="#000000" font-family="sans-serif" font-size="12" lengthAdjust="spacing" textLength="290.0332" x="449.4043" y="413.2383">Tampilkan pesan "Tidak ada produk unggulan saat ini"</text><polygon fill="#F1F1F1" points="454.2158,431.875,466.2158,443.875,454.2158,455.875,442.2158,443.875,454.2158,431.875" style="stroke:#181818;stroke-width:0.5;"/><rect fill="#F1F1F1" height="35.0938" rx="12.5" ry="12.5" style="stroke:#181818;stroke-width:0.5;" width="232.7715" x="337.8301" y="475.875"/><text fill="#000000" font-family="sans-serif" font-size="12" lengthAdjust="spacing" textLength="212.7715" x="347.8301" y="498.332">Sistem menampilkan Info Poin Loyalitas</text><rect fill="#F1F1F1" height="35.0938" rx="12.5" ry="12.5" style="stroke:#181818;stroke-width:0.5;" width="234.7871" x="336.8223" y="530.9688"/><text fill="#000000" font-family="sans-serif" font-size="12" lengthAdjust="spacing" textLength="214.7871" x="346.8223" y="553.4258">Sistem load max 10 produk dengan filter</text><rect fill="#F1F1F1" height="50.1875" rx="12.5" ry="12.5" style="stroke:#181818;stroke-width:0.5;" width="195.7461" x="356.3428" y="586.0625"/><text fill="#000000" font-family="sans-serif" font-size="12" lengthAdjust="spacing" textLength="164.0859" x="366.3428" y="608.5195">Tampilkan bagian Daftar Menu</text><text fill="#000000" font-family="sans-serif" font-size="12" lengthAdjust="spacing" textLength="175.7461" x="366.3428" y="623.6133">(kolom pencarian + filter metode)</text><rect fill="#F1F1F1" height="50.1875" rx="12.5" ry="12.5" style="stroke:#181818;stroke-width:0.5;" width="238.7773" x="334.8271" y="656.25"/><text fill="#000000" font-family="sans-serif" font-size="12" lengthAdjust="spacing" textLength="218.7773" x="344.8271" y="678.707">Sistem menampilkan bagian Lokasi Toko</text><text fill="#000000" font-family="sans-serif" font-size="12" lengthAdjust="spacing" textLength="162.0762" x="344.8271" y="693.8008">(alamat, foto, jam operasional)</text><rect fill="#F1F1F1" height="35.0938" rx="12.5" ry="12.5" style="stroke:#181818;stroke-width:0.5;" width="237.4473" x="335.4922" y="726.4375"/><text fill="#000000" font-family="sans-serif" font-size="12" lengthAdjust="spacing" textLength="217.4473" x="345.4922" y="748.8945">Sistem menampilkan bagian Cara Pesan</text><polygon fill="#F1F1F1" points="40.5054,781.5313,146.9067,781.5313,158.9067,793.5313,146.9067,805.5313,40.5054,805.5313,28.5054,793.5313,40.5054,781.5313" style="stroke:#181818;stroke-width:0.5;"/><text fill="#000000" font-family="sans-serif" font-size="11" lengthAdjust="spacing" textLength="57.4546" x="97.7061" y="816.9502">Tombol WA</text><text fill="#000000" font-family="sans-serif" font-size="11" lengthAdjust="spacing" textLength="106.4014" x="40.5054" y="798.0322">Pengunjung klik aksi?</text><rect fill="#F1F1F1" height="35.0938" rx="12.5" ry="12.5" style="stroke:#181818;stroke-width:0.5;" width="165.4121" x="11" y="839.3672"/><text fill="#000000" font-family="sans-serif" font-size="12" lengthAdjust="spacing" textLength="145.4121" x="21" y="861.8242">Arahkan ke WhatsApp toko</text><polygon fill="#F1F1F1" points="260.2625,781.5313,314.677,781.5313,326.677,793.5313,314.677,805.5313,260.2625,805.5313,248.2625,793.5313,260.2625,781.5313" style="stroke:#181818;stroke-width:0.5;"/><text fill="#000000" font-family="sans-serif" font-size="11" lengthAdjust="spacing" textLength="54.4146" x="260.2625" y="798.0322">Klik produk</text><rect fill="#F1F1F1" height="35.0938" rx="12.5" ry="12.5" style="stroke:#181818;stroke-width:0.5;" width="202.1152" x="186.4121" y="825.5313"/><text fill="#000000" font-family="sans-serif" font-size="12" lengthAdjust="spacing" textLength="182.1152" x="196.4121" y="847.9883">Arahkan ke halaman detail produk</text><polygon fill="#F1F1F1" points="475.73,781.5313,552.7622,781.5313,564.7622,793.5313,552.7622,805.5313,475.73,805.5313,463.73,793.5313,475.73,781.5313" style="stroke:#181818;stroke-width:0.5;"/><text fill="#000000" font-family="sans-serif" font-size="11" lengthAdjust="spacing" textLength="77.0322" x="475.73" y="798.0322">Pencarian/Filter</text><rect fill="#F1F1F1" height="35.0938" rx="12.5" ry="12.5" style="stroke:#181818;stroke-width:0.5;" width="211.4375" x="408.5273" y="825.5313"/><text fill="#000000" font-family="sans-serif" font-size="12" lengthAdjust="spacing" textLength="191.4375" x="418.5273" y="847.9883">Update tampilan produk sesuai filter</text><polygon fill="#F1F1F1" points="693.9695,781.5313,803.427,781.5313,815.427,793.5313,803.427,805.5313,693.9695,805.5313,681.9695,793.5313,693.9695,781.5313" style="stroke:#181818;stroke-width:0.5;"/><text fill="#000000" font-family="sans-serif" font-size="11" lengthAdjust="spacing" textLength="109.4575" x="693.9695" y="798.0322">Tombol Selengkapnya</text><rect fill="#F1F1F1" height="35.0938" rx="12.5" ry="12.5" style="stroke:#181818;stroke-width:0.5;" width="217.4668" x="639.9648" y="825.5313"/><text fill="#000000" font-family="sans-serif" font-size="12" lengthAdjust="spacing" textLength="197.4668" x="649.9648" y="847.9883">Arahkan ke halaman katalog lengkap</text><ellipse cx="454.2158" cy="925.4609" fill="none" rx="11" ry="11" style="stroke:#222222;stroke-width:1.0;"/><ellipse cx="454.2158" cy="925.4609" fill="#222222" rx="6" ry="6" style="stroke:#222222;stroke-width:1.0;"/><line style="stroke:#181818;stroke-width:1.0;" x1="454.2158" x2="454.2158" y1="86.2188" y2="106.2188"/><polygon fill="#181818" points="450.2158,96.2188,454.2158,106.2188,458.2158,96.2188,454.2158,100.2188" style="stroke:#181818;stroke-width:1.0;"/><line style="stroke:#181818;stroke-width:1.0;" x1="454.2158" x2="454.2158" y1="141.3125" y2="161.3125"/><polygon fill="#181818" points="450.2158,151.3125,454.2158,161.3125,458.2158,151.3125,454.2158,155.3125" style="stroke:#181818;stroke-width:1.0;"/><line style="stroke:#181818;stroke-width:1.0;" x1="454.2158" x2="454.2158" y1="196.4063" y2="216.4063"/><polygon fill="#181818" points="450.2158,206.4063,454.2158,216.4063,458.2158,206.4063,454.2158,210.4063" style="stroke:#181818;stroke-width:1.0;"/><line style="stroke:#181818;stroke-width:1.0;" x1="454.2158" x2="454.2158" y1="266.5938" y2="286.5938"/><polygon fill="#181818" points="450.2158,276.5938,454.2158,286.5938,458.2158,276.5938,454.2158,280.5938" style="stroke:#181818;stroke-width:1.0;"/><line style="stroke:#181818;stroke-width:1.0;" x1="386.864" x2="314.0107" y1="368.7813" y2="368.7813"/><line style="stroke:#181818;stroke-width:1.0;" x1="314.0107" x2="314.0107" y1="368.7813" y2="390.7813"/><polygon fill="#181818" points="310.0107,380.7813,314.0107,390.7813,318.0107,380.7813,314.0107,384.7813" style="stroke:#181818;stroke-width:1.0;"/><line style="stroke:#181818;stroke-width:1.0;" x1="521.5676" x2="594.4209" y1="368.7813" y2="368.7813"/><line style="stroke:#181818;stroke-width:1.0;" x1="594.4209" x2="594.4209" y1="368.7813" y2="390.7813"/><polygon fill="#181818" points="590.4209,380.7813,594.4209,390.7813,598.4209,380.7813,594.4209,384.7813" style="stroke:#181818;stroke-width:1.0;"/><line style="stroke:#181818;stroke-width:1.0;" x1="314.0107" x2="314.0107" y1="425.875" y2="443.875"/><line style="stroke:#181818;stroke-width:1.0;" x1="314.0107" x2="442.2158" y1="443.875" y2="443.875"/><polygon fill="#181818" points="432.2158,439.875,442.2158,443.875,432.2158,447.875,436.2158,443.875" style="stroke:#181818;stroke-width:1.0;"/><line style="stroke:#181818;stroke-width:1.0;" x1="594.4209" x2="594.4209" y1="425.875" y2="443.875"/><line style="stroke:#181818;stroke-width:1.0;" x1="594.4209" x2="466.2158" y1="443.875" y2="443.875"/><polygon fill="#181818" points="476.2158,439.875,466.2158,443.875,476.2158,447.875,472.2158,443.875" style="stroke:#181818;stroke-width:1.0;"/><line style="stroke:#181818;stroke-width:1.0;" x1="454.2158" x2="454.2158" y1="336.7813" y2="356.7813"/><polygon fill="#181818" points="450.2158,346.7813,454.2158,356.7813,458.2158,346.7813,454.2158,350.7813" style="stroke:#181818;stroke-width:1.0;"/><line style="stroke:#181818;stroke-width:1.0;" x1="454.2158" x2="454.2158" y1="455.875" y2="475.875"/><polygon fill="#181818" points="450.2158,465.875,454.2158,475.875,458.2158,465.875,454.2158,469.875" style="stroke:#181818;stroke-width:1.0;"/><line style="stroke:#181818;stroke-width:1.0;" x1="454.2158" x2="454.2158" y1="510.9688" y2="530.9688"/><polygon fill="#181818" points="450.2158,520.9688,454.2158,530.9688,458.2158,520.9688,454.2158,524.9688" style="stroke:#181818;stroke-width:1.0;"/><line style="stroke:#181818;stroke-width:1.0;" x1="454.2158" x2="454.2158" y1="566.0625" y2="586.0625"/><polygon fill="#181818" points="450.2158,576.0625,454.2158,586.0625,458.2158,576.0625,454.2158,580.0625" style="stroke:#181818;stroke-width:1.0;"/><line style="stroke:#181818;stroke-width:1.0;" x1="454.2158" x2="454.2158" y1="636.25" y2="656.25"/><polygon fill="#181818" points="450.2158,646.25,454.2158,656.25,458.2158,646.25,454.2158,650.25" style="stroke:#181818;stroke-width:1.0;"/><line style="stroke:#181818;stroke-width:1.0;" x1="454.2158" x2="454.2158" y1="706.4375" y2="726.4375"/><polygon fill="#181818" points="450.2158,716.4375,454.2158,726.4375,458.2158,716.4375,454.2158,720.4375" style="stroke:#181818;stroke-width:1.0;"/><line style="stroke:#181818;stroke-width:1.0;" x1="93.7061" x2="93.7061" y1="805.5313" y2="839.3672"/><polygon fill="#181818" points="89.7061,829.3672,93.7061,839.3672,97.7061,829.3672,93.7061,833.3672" style="stroke:#181818;stroke-width:1.0;"/><line style="stroke:#181818;stroke-width:1.0;" x1="93.7061" x2="93.7061" y1="874.4609" y2="894.4609"/><polygon fill="#181818" points="89.7061,884.4609,93.7061,894.4609,97.7061,884.4609,93.7061,888.4609" style="stroke:#181818;stroke-width:1.0;"/><line style="stroke:#181818;stroke-width:1.0;" x1="287.4697" x2="287.4697" y1="805.5313" y2="825.5313"/><polygon fill="#181818" points="283.4697,815.5313,287.4697,825.5313,291.4697,815.5313,287.4697,819.5313" style="stroke:#181818;stroke-width:1.0;"/><line style="stroke:#181818;stroke-width:1.0;" x1="287.4697" x2="287.4697" y1="860.625" y2="894.4609"/><polygon fill="#181818" points="283.4697,884.4609,287.4697,894.4609,291.4697,884.4609,287.4697,888.4609" style="stroke:#181818;stroke-width:1.0;"/><line style="stroke:#181818;stroke-width:1.0;" x1="514.2461" x2="514.2461" y1="805.5313" y2="825.5313"/><polygon fill="#181818" points="510.2461,815.5313,514.2461,825.5313,518.2461,815.5313,514.2461,819.5313" style="stroke:#181818;stroke-width:1.0;"/><line style="stroke:#181818;stroke-width:1.0;" x1="514.2461" x2="514.2461" y1="860.625" y2="894.4609"/><polygon fill="#181818" points="510.2461,884.4609,514.2461,894.4609,518.2461,884.4609,514.2461,888.4609" style="stroke:#181818;stroke-width:1.0;"/><line style="stroke:#181818;stroke-width:1.0;" x1="748.6982" x2="748.6982" y1="805.5313" y2="825.5313"/><polygon fill="#181818" points="744.6982,815.5313,748.6982,825.5313,752.6982,815.5313,748.6982,819.5313" style="stroke:#181818;stroke-width:1.0;"/><line style="stroke:#181818;stroke-width:1.0;" x1="748.6982" x2="748.6982" y1="860.625" y2="894.4609"/><polygon fill="#181818" points="744.6982,884.4609,748.6982,894.4609,752.6982,884.4609,748.6982,888.4609" style="stroke:#181818;stroke-width:1.0;"/><line style="stroke:#181818;stroke-width:1.0;" x1="158.9067" x2="248.2625" y1="793.5313" y2="793.5313"/><polygon fill="#181818" points="238.2625,789.5313,248.2625,793.5313,238.2625,797.5313,242.2625,793.5313" style="stroke:#181818;stroke-width:1.0;"/><line style="stroke:#181818;stroke-width:1.0;" x1="326.677" x2="463.73" y1="793.5313" y2="793.5313"/><polygon fill="#181818" points="453.73,789.5313,463.73,793.5313,453.73,797.5313,457.73,793.5313" style="stroke:#181818;stroke-width:1.0;"/><line style="stroke:#181818;stroke-width:1.0;" x1="564.7622" x2="681.9695" y1="793.5313" y2="793.5313"/><polygon fill="#181818" points="671.9695,789.5313,681.9695,793.5313,671.9695,797.5313,675.9695,793.5313" style="stroke:#181818;stroke-width:1.0;"/><line style="stroke:#181818;stroke-width:1.0;" x1="454.2158" x2="454.2158" y1="761.5313" y2="766.5313"/><line style="stroke:#181818;stroke-width:1.0;" x1="454.2158" x2="93.7061" y1="766.5313" y2="766.5313"/><line style="stroke:#181818;stroke-width:1.0;" x1="93.7061" x2="93.7061" y1="766.5313" y2="781.5313"/><polygon fill="#181818" points="89.7061,771.5313,93.7061,781.5313,97.7061,771.5313,93.7061,775.5313" style="stroke:#181818;stroke-width:1.0;"/><line style="stroke:#181818;stroke-width:1.0;" x1="815.427" x2="871.4316" y1="793.5313" y2="793.5313"/><line style="stroke:#181818;stroke-width:1.0;" x1="871.4316" x2="871.4316" y1="793.5313" y2="894.4609"/><polygon fill="#181818" points="867.4316,884.4609,871.4316,894.4609,875.4316,884.4609,871.4316,888.4609" style="stroke:#181818;stroke-width:1.0;"/><line style="stroke:#181818;stroke-width:1.0;" x1="93.7061" x2="871.4316" y1="894.4609" y2="894.4609"/><line style="stroke:#181818;stroke-width:1.0;" x1="454.2158" x2="454.2158" y1="894.4609" y2="914.4609"/><polygon fill="#181818" points="450.2158,904.4609,454.2158,914.4609,458.2158,904.4609,454.2158,908.4609" style="stroke:#181818;stroke-width:1.0;"/><!--SRC=[XLDTYzj037pthn3tbD10M-XJGYcXHxdI54oJS1GEYXBBZcxNg-skN9f_NpbnJ6ZwuGUlGQDPQMQS7OU82Ll0lV8FrkFwW950zegDXA9GLa-m78fmpzWO-Ybyfj2WovJX0Jss662hTi1aXQ7Yq4293KsB8YicBUQbmRlmt5cX7JktNrRW1tWq-AAOhpahjU05ApWCn5rFl2Z6eX5W6zaxg-smOJiUACbJcEmm14ep2FqaAavcO6ju3cGVqkx4m-DoUaNrlQDqX3SGarIT0wNaCN4sAixV4ksbjSiggjvgwiWQkOR9ii8BtjPfEjlWtHJqG04cNt5QW3tppUyJbkUExT2nACXdWic6AtGtFP6olUzEHS3R-o0ZAd3WE-Cn_Ue_Y_Cnr0AbS82L7D6pOhxQ_QHnYp_XzQiBVzLR4w1cRqgO6pTRt6DjVeAPtvb6JhoqDcpOcsXMVJ5qsX0g5Kt_xTbA76Q6ZTbaN2UlTGQrgBdsR86KICa04j3_X-cz1HZANZF3zHPTfSrvDWbTvj6ZpHY4i-pBX8UUp14y7b3pCiPJTWQBUhvFFSbPezkcIqmhKcG_mAwQoui-Bp-Sr1aOjh529Sjdlqpl-Ta2-oywvD62aMMOUatUTdCOmn7_Fef3HIyD3DWn95ab5hy0]--></g></svg>