<svg xmlns="http://www.w3.org/2000/svg" xmlns:xlink="http://www.w3.org/1999/xlink" contentStyleType="text/css" height="723px" preserveAspectRatio="none" style="width:1750px;height:723px;background:#FFFFFF;" version="1.1" viewBox="0 0 1750 723" width="1750px" zoomAndPan="magnify"><defs/><g><rect fill="none" height="22.6406" style="stroke:none;stroke-width:1.0;" width="1717.0586" x="15" y="12.4551"/><ellipse cx="467.595" cy="50.0957" fill="#222222" rx="10" ry="10" style="stroke:#222222;stroke-width:1.0;"/><rect fill="#F1F1F1" height="35.0938" rx="12.5" ry="12.5" style="stroke:#181818;stroke-width:0.5;" width="163.4199" x="385.885" y="80.0957"/><text fill="#000000" font-family="sans-serif" font-size="12" lengthAdjust="spacing" textLength="143.4199" x="395.885" y="102.5527">Membuka halaman Satuan</text><polygon fill="#F1F1F1" points="91.2559,135.1895,118.1543,135.1895,130.1543,147.1895,118.1543,159.1895,91.2559,159.1895,79.2559,147.1895,91.2559,135.1895" style="stroke:#181818;stroke-width:0.5;"/><text fill="#000000" font-family="sans-serif" font-size="11" lengthAdjust="spacing" textLength="40.353" x="108.7051" y="170.6084">Tambah</text><text fill="#000000" font-family="sans-serif" font-size="11" lengthAdjust="spacing" textLength="26.8984" x="91.2559" y="151.6904">Aksi?</text><rect fill="#F1F1F1" height="35.0938" rx="12.5" ry="12.5" style="stroke:#181818;stroke-width:0.5;" width="167.4102" x="21" y="192.1084"/><text fill="#000000" font-family="sans-serif" font-size="12" lengthAdjust="spacing" textLength="147.4102" x="31" y="214.5654">Klik tombol Tambah Satuan</text><path d="M188.7285,247.2021 L188.7285,272.7295 L168.7285,276.7295 L188.7285,280.7295 L188.7285,306.2568 A0,0 0 0 0 188.7285,306.2568 L411.2983,306.2568 A0,0 0 0 0 411.2983,306.2568 L411.2983,257.2021 L401.2983,247.2021 L188.7285,247.2021 A0,0 0 0 0 188.7285,247.2021 " fill="#FEFFDD" style="stroke:#181818;stroke-width:0.5;"/><path d="M401.2983,247.2021 L401.2983,257.2021 L411.2983,257.2021 L401.2983,247.2021 " fill="#FEFFDD" style="stroke:#181818;stroke-width:0.5;"/><text fill="#000000" font-family="sans-serif" font-size="13" lengthAdjust="spacing" textLength="73.7153" x="194.7285" y="265.6973">Data satuan:</text><text fill="#000000" font-family="sans-serif" font-size="13" lengthAdjust="spacing" textLength="201.5698" x="194.7285" y="282.0488">- Nama satuan (Kilogram, Liter, dll)</text><text fill="#000000" font-family="sans-serif" font-size="13" lengthAdjust="spacing" textLength="147.3735" x="194.7285" y="298.4004">- Simbol/Alias (kg, L, pcs)</text><rect fill="#F1F1F1" height="35.0938" rx="12.5" ry="12.5" style="stroke:#181818;stroke-width:0.5;" width="128.0469" x="40.6816" y="259.1826"/><text fill="#000000" font-family="sans-serif" font-size="12" lengthAdjust="spacing" textLength="108.0469" x="50.6816" y="281.6396">Mengisi form satuan</text><rect fill="#F1F1F1" height="35.0938" rx="12.5" ry="12.5" style="stroke:#181818;stroke-width:0.5;" width="121.3906" x="44.0098" y="341.2568"/><text fill="#000000" font-family="sans-serif" font-size="12" lengthAdjust="spacing" textLength="101.3906" x="54.0098" y="363.7139">Menyimpan satuan</text><polygon fill="#F1F1F1" points="513.5659,135.1895,540.4644,135.1895,552.4644,147.1895,540.4644,159.1895,513.5659,159.1895,501.5659,147.1895,513.5659,135.1895" style="stroke:#181818;stroke-width:0.5;"/><text fill="#000000" font-family="sans-serif" font-size="11" lengthAdjust="spacing" textLength="18.9546" x="531.0151" y="170.6084">Edit</text><text fill="#000000" font-family="sans-serif" font-size="11" lengthAdjust="spacing" textLength="26.8984" x="513.5659" y="151.6904">Aksi?</text><text fill="#000000" font-family="sans-serif" font-size="11" lengthAdjust="spacing" textLength="31.7969" x="552.4644" y="144.7725">Hapus</text><rect fill="#F1F1F1" height="35.0938" rx="12.5" ry="12.5" style="stroke:#181818;stroke-width:0.5;" width="191.4336" x="431.2983" y="192.1084"/><text fill="#000000" font-family="sans-serif" font-size="12" lengthAdjust="spacing" textLength="171.4336" x="441.2983" y="214.5654">Memilih satuan yang akan diedit</text><rect fill="#F1F1F1" height="35.0938" rx="12.5" ry="12.5" style="stroke:#181818;stroke-width:0.5;" width="142.7656" x="455.6323" y="247.2021"/><text fill="#000000" font-family="sans-serif" font-size="12" lengthAdjust="spacing" textLength="122.7656" x="465.6323" y="269.6592">Mengubah data satuan</text><rect fill="#F1F1F1" height="35.0938" rx="12.5" ry="12.5" style="stroke:#181818;stroke-width:0.5;" width="142.748" x="455.6411" y="317.2959"/><text fill="#000000" font-family="sans-serif" font-size="12" lengthAdjust="spacing" textLength="122.748" x="465.6411" y="339.7529">Menyimpan perubahan</text><rect fill="#F1F1F1" height="35.0938" rx="12.5" ry="12.5" style="stroke:#181818;stroke-width:0.5;" width="204.7813" x="632.7319" y="255.2646"/><text fill="#000000" font-family="sans-serif" font-size="12" lengthAdjust="spacing" textLength="184.7813" x="642.7319" y="277.7217">Memilih satuan yang akan dihapus</text><rect fill="#F1F1F1" height="35.0938" rx="12.5" ry="12.5" style="stroke:#181818;stroke-width:0.5;" width="152.7559" x="658.7446" y="325.3584"/><text fill="#000000" font-family="sans-serif" font-size="12" lengthAdjust="spacing" textLength="132.7559" x="668.7446" y="347.8154">Konfirmasi penghapusan</text><line style="stroke:#000000;stroke-width:1.5;" x1="15" x2="15" y1="12.4551" y2="711.7334"/><rect fill="#F1F1F1" height="35.0938" rx="12.5" ry="12.5" style="stroke:#181818;stroke-width:0.5;" width="88.7129" x="972.2261" y="411.3506"/><text fill="#000000" font-family="sans-serif" font-size="12" lengthAdjust="spacing" textLength="68.7129" x="982.2261" y="433.8076">Validasi data</text><polygon fill="#F1F1F1" points="954.2134,481.4443,1078.9517,481.4443,1090.9517,493.4443,1078.9517,505.4443,954.2134,505.4443,942.2134,493.4443,954.2134,481.4443" style="stroke:#181818;stroke-width:0.5;"/><text fill="#000000" font-family="sans-serif" font-size="11" lengthAdjust="spacing" textLength="124.7383" x="954.2134" y="497.9453">Nama/simbol sudah ada?</text><text fill="#000000" font-family="sans-serif" font-size="11" lengthAdjust="spacing" textLength="13.4546" x="928.7588" y="491.0273">Ya</text><text fill="#000000" font-family="sans-serif" font-size="11" lengthAdjust="spacing" textLength="26.8984" x="1090.9517" y="491.0273">Tidak</text><rect fill="#F1F1F1" height="35.0938" rx="12.5" ry="12.5" style="stroke:#181818;stroke-width:0.5;" width="156.0664" x="847.5132" y="515.4443"/><text fill="#000000" font-family="sans-serif" font-size="12" lengthAdjust="spacing" textLength="136.0664" x="857.5132" y="537.9014">Menampilkan pesan error</text><rect fill="#F1F1F1" height="35.0938" rx="12.5" ry="12.5" style="stroke:#181818;stroke-width:0.5;" width="150.7461" x="1032.2456" y="515.4443"/><text fill="#000000" font-family="sans-serif" font-size="12" lengthAdjust="spacing" textLength="130.7461" x="1042.2456" y="537.9014">Menyimpan ke database</text><rect fill="#F1F1F1" height="35.0938" rx="12.5" ry="12.5" style="stroke:#181818;stroke-width:0.5;" width="168.0781" x="1023.5796" y="584.6396"/><text fill="#000000" font-family="sans-serif" font-size="12" lengthAdjust="spacing" textLength="148.0781" x="1033.5796" y="607.0967">Menampilkan pesan sukses</text><polygon fill="#F1F1F1" points="1016.5825,625.7334,1028.5825,637.7334,1016.5825,649.7334,1004.5825,637.7334,1016.5825,625.7334" style="stroke:#181818;stroke-width:0.5;"/><rect fill="#F1F1F1" height="35.0938" rx="12.5" ry="12.5" style="stroke:#181818;stroke-width:0.5;" width="88.7129" x="1241.3403" y="387.3896"/><text fill="#000000" font-family="sans-serif" font-size="12" lengthAdjust="spacing" textLength="68.7129" x="1251.3403" y="409.8467">Validasi data</text><rect fill="#F1F1F1" height="35.0938" rx="12.5" ry="12.5" style="stroke:#181818;stroke-width:0.5;" width="124.748" x="1223.3228" y="457.4834"/><text fill="#000000" font-family="sans-serif" font-size="12" lengthAdjust="spacing" textLength="104.748" x="1233.3228" y="479.9404">Update data satuan</text><rect fill="#F1F1F1" height="35.0938" rx="12.5" ry="12.5" style="stroke:#181818;stroke-width:0.5;" width="168.0781" x="1201.6577" y="527.5771"/><text fill="#000000" font-family="sans-serif" font-size="12" lengthAdjust="spacing" textLength="148.0781" x="1211.6577" y="550.0342">Menampilkan pesan sukses</text><polygon fill="#F1F1F1" points="1480.4517,395.4521,1620.519,395.4521,1632.519,407.4521,1620.519,419.4521,1480.4517,419.4521,1468.4517,407.4521,1480.4517,395.4521" style="stroke:#181818;stroke-width:0.5;"/><text fill="#000000" font-family="sans-serif" font-size="11" lengthAdjust="spacing" textLength="140.0674" x="1480.4517" y="411.9531">Satuan digunakan di bahan?</text><text fill="#000000" font-family="sans-serif" font-size="11" lengthAdjust="spacing" textLength="13.4546" x="1454.9971" y="405.0352">Ya</text><text fill="#000000" font-family="sans-serif" font-size="11" lengthAdjust="spacing" textLength="26.8984" x="1632.519" y="405.0352">Tidak</text><rect fill="#F1F1F1" height="35.0938" rx="12.5" ry="12.5" style="stroke:#181818;stroke-width:0.5;" width="151.4141" x="1382.7446" y="429.4521"/><text fill="#000000" font-family="sans-serif" font-size="12" lengthAdjust="spacing" textLength="131.4141" x="1392.7446" y="451.9092">Menampilkan peringatan</text><rect fill="#F1F1F1" height="35.0938" rx="12.5" ry="12.5" style="stroke:#181818;stroke-width:0.5;" width="157.4316" x="1379.7358" y="499.5459"/><text fill="#000000" font-family="sans-serif" font-size="12" lengthAdjust="spacing" textLength="137.4316" x="1389.7358" y="522.0029">Satuan tidak bisa dihapus</text><rect fill="#F1F1F1" height="35.0938" rx="12.5" ry="12.5" style="stroke:#181818;stroke-width:0.5;" width="94.0508" x="1595.4937" y="429.4521"/><text fill="#000000" font-family="sans-serif" font-size="12" lengthAdjust="spacing" textLength="74.0508" x="1605.4937" y="451.9092">Hapus satuan</text><rect fill="#F1F1F1" height="35.0938" rx="12.5" ry="12.5" style="stroke:#181818;stroke-width:0.5;" width="168.0781" x="1558.48" y="499.5459"/><text fill="#000000" font-family="sans-serif" font-size="12" lengthAdjust="spacing" textLength="148.0781" x="1568.48" y="522.0029">Menampilkan pesan sukses</text><polygon fill="#F1F1F1" points="1550.4854,540.6396,1562.4854,552.6396,1550.4854,564.6396,1538.4854,552.6396,1550.4854,540.6396" style="stroke:#181818;stroke-width:0.5;"/><ellipse cx="1226.2766" cy="700.7334" fill="none" rx="11" ry="11" style="stroke:#222222;stroke-width:1.0;"/><ellipse cx="1226.2766" cy="700.7334" fill="#222222" rx="6" ry="6" style="stroke:#222222;stroke-width:1.0;"/><line style="stroke:#000000;stroke-width:1.5;" x1="841.5132" x2="841.5132" y1="12.4551" y2="711.7334"/><line style="stroke:#000000;stroke-width:1.5;" x1="1730.5581" x2="1730.5581" y1="12.4551" y2="711.7334"/><line style="stroke:#181818;stroke-width:1.0;" x1="467.595" x2="467.595" y1="60.0957" y2="80.0957"/><polygon fill="#181818" points="463.595,70.0957,467.595,80.0957,471.595,70.0957,467.595,74.0957" style="stroke:#181818;stroke-width:1.0;"/><line style="stroke:#181818;stroke-width:1.0;" x1="104.7051" x2="104.7051" y1="227.2021" y2="259.1826"/><polygon fill="#181818" points="100.7051,249.1826,104.7051,259.1826,108.7051,249.1826,104.7051,253.1826" style="stroke:#181818;stroke-width:1.0;"/><line style="stroke:#181818;stroke-width:1.0;" x1="104.7051" x2="104.7051" y1="294.2764" y2="341.2568"/><polygon fill="#181818" points="100.7051,331.2568,104.7051,341.2568,108.7051,331.2568,104.7051,335.2568" style="stroke:#181818;stroke-width:1.0;"/><line style="stroke:#181818;stroke-width:1.0;" x1="527.0151" x2="527.0151" y1="227.2021" y2="247.2021"/><polygon fill="#181818" points="523.0151,237.2021,527.0151,247.2021,531.0151,237.2021,527.0151,241.2021" style="stroke:#181818;stroke-width:1.0;"/><line style="stroke:#181818;stroke-width:1.0;" x1="527.0151" x2="527.0151" y1="282.2959" y2="317.2959"/><polygon fill="#181818" points="523.0151,307.2959,527.0151,317.2959,531.0151,307.2959,527.0151,311.2959" style="stroke:#181818;stroke-width:1.0;"/><line style="stroke:#181818;stroke-width:1.0;" x1="735.1226" x2="735.1226" y1="290.3584" y2="325.3584"/><polygon fill="#181818" points="731.1226,315.3584,735.1226,325.3584,739.1226,315.3584,735.1226,319.3584" style="stroke:#181818;stroke-width:1.0;"/><line style="stroke:#181818;stroke-width:1.0;" x1="104.7051" x2="104.7051" y1="159.1895" y2="192.1084"/><polygon fill="#181818" points="100.7051,182.1084,104.7051,192.1084,108.7051,182.1084,104.7051,186.1084" style="stroke:#181818;stroke-width:1.0;"/><line style="stroke:#181818;stroke-width:1.0;" x1="527.0151" x2="527.0151" y1="159.1895" y2="192.1084"/><polygon fill="#181818" points="523.0151,182.1084,527.0151,192.1084,531.0151,182.1084,527.0151,186.1084" style="stroke:#181818;stroke-width:1.0;"/><line style="stroke:#181818;stroke-width:1.0;" x1="130.1543" x2="501.5659" y1="147.1895" y2="147.1895"/><polygon fill="#181818" points="491.5659,143.1895,501.5659,147.1895,491.5659,151.1895,495.5659,147.1895" style="stroke:#181818;stroke-width:1.0;"/><line style="stroke:#181818;stroke-width:1.0;" x1="467.595" x2="467.595" y1="115.1895" y2="120.1895"/><line style="stroke:#181818;stroke-width:1.0;" x1="467.595" x2="104.7051" y1="120.1895" y2="120.1895"/><line style="stroke:#181818;stroke-width:1.0;" x1="104.7051" x2="104.7051" y1="120.1895" y2="135.1895"/><polygon fill="#181818" points="100.7051,125.1895,104.7051,135.1895,108.7051,125.1895,104.7051,129.1895" style="stroke:#181818;stroke-width:1.0;"/><line style="stroke:#181818;stroke-width:1.0;" x1="552.4644" x2="735.1226" y1="147.1895" y2="147.1895"/><line style="stroke:#181818;stroke-width:1.0;" x1="735.1226" x2="735.1226" y1="147.1895" y2="255.2646"/><polygon fill="#181818" points="731.1226,245.2646,735.1226,255.2646,739.1226,245.2646,735.1226,249.2646" style="stroke:#181818;stroke-width:1.0;"/><line style="stroke:#181818;stroke-width:1.0;" x1="1107.6187" x2="1107.6187" y1="550.5381" y2="584.6396"/><polygon fill="#181818" points="1103.6187,574.6396,1107.6187,584.6396,1111.6187,574.6396,1107.6187,578.6396" style="stroke:#181818;stroke-width:1.0;"/><line style="stroke:#181818;stroke-width:1.0;" x1="942.2134" x2="925.5464" y1="493.4443" y2="493.4443"/><line style="stroke:#181818;stroke-width:1.0;" x1="925.5464" x2="925.5464" y1="493.4443" y2="515.4443"/><polygon fill="#181818" points="921.5464,505.4443,925.5464,515.4443,929.5464,505.4443,925.5464,509.4443" style="stroke:#181818;stroke-width:1.0;"/><line style="stroke:#181818;stroke-width:1.0;" x1="1090.9517" x2="1107.6187" y1="493.4443" y2="493.4443"/><line style="stroke:#181818;stroke-width:1.0;" x1="1107.6187" x2="1107.6187" y1="493.4443" y2="515.4443"/><polygon fill="#181818" points="1103.6187,505.4443,1107.6187,515.4443,1111.6187,505.4443,1107.6187,509.4443" style="stroke:#181818;stroke-width:1.0;"/><line style="stroke:#181818;stroke-width:1.0;" x1="925.5464" x2="925.5464" y1="550.5381" y2="637.7334"/><line style="stroke:#181818;stroke-width:1.0;" x1="925.5464" x2="1004.5825" y1="637.7334" y2="637.7334"/><polygon fill="#181818" points="994.5825,633.7334,1004.5825,637.7334,994.5825,641.7334,998.5825,637.7334" style="stroke:#181818;stroke-width:1.0;"/><line style="stroke:#181818;stroke-width:1.0;" x1="1107.6187" x2="1107.6187" y1="619.7334" y2="637.7334"/><line style="stroke:#181818;stroke-width:1.0;" x1="1107.6187" x2="1028.5825" y1="637.7334" y2="637.7334"/><polygon fill="#181818" points="1038.5825,633.7334,1028.5825,637.7334,1038.5825,641.7334,1034.5825,637.7334" style="stroke:#181818;stroke-width:1.0;"/><line style="stroke:#181818;stroke-width:1.0;" x1="1016.5825" x2="1016.5825" y1="446.4443" y2="481.4443"/><polygon fill="#181818" points="1012.5825,471.4443,1016.5825,481.4443,1020.5825,471.4443,1016.5825,475.4443" style="stroke:#181818;stroke-width:1.0;"/><line style="stroke:#181818;stroke-width:1.0;" x1="1285.6968" x2="1285.6968" y1="422.4834" y2="457.4834"/><polygon fill="#181818" points="1281.6968,447.4834,1285.6968,457.4834,1289.6968,447.4834,1285.6968,451.4834" style="stroke:#181818;stroke-width:1.0;"/><line style="stroke:#181818;stroke-width:1.0;" x1="1285.6968" x2="1285.6968" y1="492.5771" y2="527.5771"/><polygon fill="#181818" points="1281.6968,517.5771,1285.6968,527.5771,1289.6968,517.5771,1285.6968,521.5771" style="stroke:#181818;stroke-width:1.0;"/><line style="stroke:#181818;stroke-width:1.0;" x1="1458.4517" x2="1458.4517" y1="464.5459" y2="499.5459"/><polygon fill="#181818" points="1454.4517,489.5459,1458.4517,499.5459,1462.4517,489.5459,1458.4517,493.5459" style="stroke:#181818;stroke-width:1.0;"/><line style="stroke:#181818;stroke-width:1.0;" x1="1642.519" x2="1642.519" y1="464.5459" y2="499.5459"/><polygon fill="#181818" points="1638.519,489.5459,1642.519,499.5459,1646.519,489.5459,1642.519,493.5459" style="stroke:#181818;stroke-width:1.0;"/><line style="stroke:#181818;stroke-width:1.0;" x1="1468.4517" x2="1458.4517" y1="407.4521" y2="407.4521"/><line style="stroke:#181818;stroke-width:1.0;" x1="1458.4517" x2="1458.4517" y1="407.4521" y2="429.4521"/><polygon fill="#181818" points="1454.4517,419.4521,1458.4517,429.4521,1462.4517,419.4521,1458.4517,423.4521" style="stroke:#181818;stroke-width:1.0;"/><line style="stroke:#181818;stroke-width:1.0;" x1="1632.519" x2="1642.519" y1="407.4521" y2="407.4521"/><line style="stroke:#181818;stroke-width:1.0;" x1="1642.519" x2="1642.519" y1="407.4521" y2="429.4521"/><polygon fill="#181818" points="1638.519,419.4521,1642.519,429.4521,1646.519,419.4521,1642.519,423.4521" style="stroke:#181818;stroke-width:1.0;"/><line style="stroke:#181818;stroke-width:1.0;" x1="1458.4517" x2="1458.4517" y1="534.6396" y2="552.6396"/><line style="stroke:#181818;stroke-width:1.0;" x1="1458.4517" x2="1538.4854" y1="552.6396" y2="552.6396"/><polygon fill="#181818" points="1528.4854,548.6396,1538.4854,552.6396,1528.4854,556.6396,1532.4854,552.6396" style="stroke:#181818;stroke-width:1.0;"/><line style="stroke:#181818;stroke-width:1.0;" x1="1642.519" x2="1642.519" y1="534.6396" y2="552.6396"/><line style="stroke:#181818;stroke-width:1.0;" x1="1642.519" x2="1562.4854" y1="552.6396" y2="552.6396"/><polygon fill="#181818" points="1572.4854,548.6396,1562.4854,552.6396,1572.4854,556.6396,1568.4854,552.6396" style="stroke:#181818;stroke-width:1.0;"/><line style="stroke:#181818;stroke-width:1.0;" x1="1016.5825" x2="1016.5825" y1="649.7334" y2="669.7334"/><polygon fill="#181818" points="1012.5825,659.7334,1016.5825,669.7334,1020.5825,659.7334,1016.5825,663.7334" style="stroke:#181818;stroke-width:1.0;"/><line style="stroke:#181818;stroke-width:1.0;" x1="1285.6968" x2="1285.6968" y1="562.6709" y2="669.7334"/><polygon fill="#181818" points="1281.6968,659.7334,1285.6968,669.7334,1289.6968,659.7334,1285.6968,663.7334" style="stroke:#181818;stroke-width:1.0;"/><line style="stroke:#181818;stroke-width:1.0;" x1="1550.4854" x2="1550.4854" y1="564.6396" y2="669.7334"/><polygon fill="#181818" points="1546.4854,659.7334,1550.4854,669.7334,1554.4854,659.7334,1550.4854,663.7334" style="stroke:#181818;stroke-width:1.0;"/><line style="stroke:#181818;stroke-width:1.0;" x1="1016.5825" x2="1550.4854" y1="669.7334" y2="669.7334"/><line style="stroke:#181818;stroke-width:1.0;" x1="104.7051" x2="104.7051" y1="376.3506" y2="393.8506"/><line style="stroke:#181818;stroke-width:1.0;" x1="104.7051" x2="1016.5825" y1="393.8506" y2="393.8506"/><line style="stroke:#181818;stroke-width:1.0;" x1="1016.5825" x2="1016.5825" y1="393.8506" y2="411.3506"/><polygon fill="#181818" points="1012.5825,401.3506,1016.5825,411.3506,1020.5825,401.3506,1016.5825,405.3506" style="stroke:#181818;stroke-width:1.0;"/><line style="stroke:#181818;stroke-width:1.0;" x1="527.0151" x2="527.0151" y1="352.3896" y2="369.8896"/><line style="stroke:#181818;stroke-width:1.0;" x1="527.0151" x2="1285.6968" y1="369.8896" y2="369.8896"/><line style="stroke:#181818;stroke-width:1.0;" x1="1285.6968" x2="1285.6968" y1="369.8896" y2="387.3896"/><polygon fill="#181818" points="1281.6968,377.3896,1285.6968,387.3896,1289.6968,377.3896,1285.6968,381.3896" style="stroke:#181818;stroke-width:1.0;"/><line style="stroke:#181818;stroke-width:1.0;" x1="735.1226" x2="735.1226" y1="360.4521" y2="377.9521"/><line style="stroke:#181818;stroke-width:1.0;" x1="735.1226" x2="1550.4854" y1="377.9521" y2="377.9521"/><line style="stroke:#181818;stroke-width:1.0;" x1="1550.4854" x2="1550.4854" y1="377.9521" y2="395.4521"/><polygon fill="#181818" points="1546.4854,385.4521,1550.4854,395.4521,1554.4854,385.4521,1550.4854,389.4521" style="stroke:#181818;stroke-width:1.0;"/><line style="stroke:#181818;stroke-width:1.0;" x1="467.595" x2="467.595" y1="669.7334" y2="674.7334"/><line style="stroke:#181818;stroke-width:1.0;" x1="467.595" x2="1226.2766" y1="674.7334" y2="674.7334"/><line style="stroke:#181818;stroke-width:1.0;" x1="1226.2766" x2="1226.2766" y1="674.7334" y2="689.7334"/><polygon fill="#181818" points="1222.2766,679.7334,1226.2766,689.7334,1230.2766,679.7334,1226.2766,683.7334" style="stroke:#181818;stroke-width:1.0;"/><text fill="#000000" font-family="sans-serif" font-size="18" lengthAdjust="spacing" textLength="69.0381" x="393.7375" y="31.1406">Inventori</text><text fill="#000000" font-family="sans-serif" font-size="18" lengthAdjust="spacing" textLength="55.0107" x="1258.5303" y="31.1406">Sistem</text><!--SRC=[bLHBQzn03BxxL-ZeXIsvxnvAe8MMJNBPD92ZtD7QmlDYD2u4_ECx3-_MswOXyM5WHjBta8Jdx_ONsUW2pur43B7PtPFffX5XG8q6BHmnJcZtJSCdQ6z7uSyRY0DPQ1_HT3Xi6aZVxg1vXEXCvpJKmAMonE_9zYmC9nSCo2fYNIG8t0-nN06-OCGbOxSyVOA7f6LvXFR0slK1pHRkE5BOWj9wSqazSXPnSwiP1TgnJrbRy3-bPf1LXR9SBj9UsFY4lDPLZld84idCDV49DIjC9bIIkChAdSa2RwHGWqmgsKU5brOzurbVvKFZMO-9qPEaaq9meGAI5agjJJpZTSaYSQJ2tg7G_Yr8cKOXsPyzywdABV3_JFAhubZPvjL2BCY6DG_dth-WxG4pZM9ALQlfJddcwi_mzdztrrF8EHzhyEw7JnTw7VWDpzLf-mtz91-tDkIoXUVWx8c3oR9yibb2__UGUriNFy7qarq0eHX_ppu4jdtoQbVJNV1YNWheMF1QuUihKvnVTUpTcrBFz4DmllaD]--></g></svg>