<svg xmlns="http://www.w3.org/2000/svg" xmlns:xlink="http://www.w3.org/1999/xlink" contentStyleType="text/css" height="592px" preserveAspectRatio="none" style="width:618px;height:592px;background:#FFFFFF;" version="1.1" viewBox="0 0 618 592" width="618px" zoomAndPan="magnify"><title>Activity Diagram</title><defs/><g><text fill="#000000" font-family="sans-serif" font-size="14" font-weight="bold" lengthAdjust="spacing" textLength="110.4824" x="252.7432" y="34.5332">Activity Diagram</text><text fill="#000000" font-family="sans-serif" font-size="14" font-weight="bold" lengthAdjust="spacing" textLength="154.0273" x="230.9707" y="52.1426">Pengelolaan Pengguna</text><ellipse cx="309.4844" cy="76.2188" fill="#222222" rx="10" ry="10" style="stroke:#222222;stroke-width:1.0;"/><rect fill="#F1F1F1" height="35.0938" rx="12.5" ry="12.5" style="stroke:#181818;stroke-width:0.5;" width="210.7695" x="204.0996" y="106.2188"/><text fill="#000000" font-family="sans-serif" font-size="12" lengthAdjust="spacing" textLength="190.7695" x="214.0996" y="128.6758">Admin mengakses halaman pekerja</text><rect fill="#F1F1F1" height="35.0938" rx="12.5" ry="12.5" style="stroke:#181818;stroke-width:0.5;" width="222.1191" x="198.4248" y="161.3125"/><text fill="#000000" font-family="sans-serif" font-size="12" lengthAdjust="spacing" textLength="202.1191" x="208.4248" y="183.7695">Sistem menampilkan daftar pengguna</text><polygon fill="#F1F1F1" points="96.5928,216.4063,123.4912,216.4063,135.4912,228.4063,123.4912,240.4063,96.5928,240.4063,84.5928,228.4063,96.5928,216.4063" style="stroke:#181818;stroke-width:0.5;"/><text fill="#000000" font-family="sans-serif" font-size="11" lengthAdjust="spacing" textLength="40.353" x="114.042" y="251.8252">Tambah</text><text fill="#000000" font-family="sans-serif" font-size="11" lengthAdjust="spacing" textLength="26.8984" x="96.5928" y="232.9072">Aksi?</text><rect fill="#F1F1F1" height="35.0938" rx="12.5" ry="12.5" style="stroke:#181818;stroke-width:0.5;" width="172.7598" x="23.6621" y="274.2422"/><text fill="#000000" font-family="sans-serif" font-size="12" lengthAdjust="spacing" textLength="152.7598" x="33.6621" y="296.6992">Mengisi form pengguna baru</text><rect fill="#F1F1F1" height="35.0938" rx="12.5" ry="12.5" style="stroke:#181818;stroke-width:0.5;" width="151.3848" x="34.3496" y="344.3359"/><text fill="#000000" font-family="sans-serif" font-size="12" lengthAdjust="spacing" textLength="131.3848" x="44.3496" y="366.793">Memasukkan email valid</text><rect fill="#F1F1F1" height="35.0938" rx="12.5" ry="12.5" style="stroke:#181818;stroke-width:0.5;" width="108.7168" x="55.6836" y="414.4297"/><text fill="#000000" font-family="sans-serif" font-size="12" lengthAdjust="spacing" textLength="88.7168" x="65.6836" y="436.8867">Menyimpan data</text><rect fill="#F1F1F1" height="35.0938" rx="12.5" ry="12.5" style="stroke:#181818;stroke-width:0.5;" width="198.084" x="11" y="484.5234"/><text fill="#000000" font-family="sans-serif" font-size="12" lengthAdjust="spacing" textLength="178.084" x="21" y="506.9805">Sistem mengirim email undangan</text><polygon fill="#F1F1F1" points="295.999,216.4063,322.2959,216.4063,334.2959,228.4063,322.2959,240.4063,295.999,240.4063,283.999,228.4063,295.999,216.4063" style="stroke:#181818;stroke-width:0.5;"/><text fill="#000000" font-family="sans-serif" font-size="11" lengthAdjust="spacing" textLength="26.2969" x="295.999" y="232.9072">Ubah</text><text fill="#000000" font-family="sans-serif" font-size="11" lengthAdjust="spacing" textLength="67.8745" x="334.2959" y="225.9893">Toggle Status</text><rect fill="#F1F1F1" height="35.0938" rx="12.5" ry="12.5" style="stroke:#181818;stroke-width:0.5;" width="118.0625" x="250.1162" y="260.4063"/><text fill="#000000" font-family="sans-serif" font-size="12" lengthAdjust="spacing" textLength="98.0625" x="260.1162" y="282.8633">Memilih pengguna</text><rect fill="#F1F1F1" height="35.0938" rx="12.5" ry="12.5" style="stroke:#181818;stroke-width:0.5;" width="160.127" x="229.084" y="330.5"/><text fill="#000000" font-family="sans-serif" font-size="12" lengthAdjust="spacing" textLength="140.127" x="239.084" y="352.957">Mengubah data pengguna</text><rect fill="#F1F1F1" height="35.0938" rx="12.5" ry="12.5" style="stroke:#181818;stroke-width:0.5;" width="142.748" x="237.7734" y="400.5938"/><text fill="#000000" font-family="sans-serif" font-size="12" lengthAdjust="spacing" textLength="122.748" x="247.7734" y="423.0508">Menyimpan perubahan</text><rect fill="#F1F1F1" height="35.0938" rx="12.5" ry="12.5" style="stroke:#181818;stroke-width:0.5;" width="157.3906" x="230.4521" y="470.6875"/><text fill="#000000" font-family="sans-serif" font-size="12" lengthAdjust="spacing" textLength="137.3906" x="240.4521" y="493.1445">Sistem memperbarui data</text><rect fill="#F1F1F1" height="35.0938" rx="12.5" ry="12.5" style="stroke:#181818;stroke-width:0.5;" width="118.0625" x="449.5586" y="305.3711"/><text fill="#000000" font-family="sans-serif" font-size="12" lengthAdjust="spacing" textLength="98.0625" x="459.5586" y="327.8281">Memilih pengguna</text><rect fill="#F1F1F1" height="35.0938" rx="12.5" ry="12.5" style="stroke:#181818;stroke-width:0.5;" width="137.4043" x="439.8877" y="375.4648"/><text fill="#000000" font-family="sans-serif" font-size="12" lengthAdjust="spacing" textLength="117.4043" x="449.8877" y="397.9219">Mengubah status aktif</text><rect fill="#F1F1F1" height="35.0938" rx="12.5" ry="12.5" style="stroke:#181818;stroke-width:0.5;" width="198.7578" x="409.2109" y="445.5586"/><text fill="#000000" font-family="sans-serif" font-size="12" lengthAdjust="spacing" textLength="178.7578" x="419.2109" y="468.0156">Sistem toggle status aktif/nonaktif</text><ellipse cx="309.4844" cy="570.6172" fill="none" rx="11" ry="11" style="stroke:#222222;stroke-width:1.0;"/><ellipse cx="309.4844" cy="570.6172" fill="#222222" rx="6" ry="6" style="stroke:#222222;stroke-width:1.0;"/><line style="stroke:#181818;stroke-width:1.0;" x1="309.4844" x2="309.4844" y1="86.2188" y2="106.2188"/><polygon fill="#181818" points="305.4844,96.2188,309.4844,106.2188,313.4844,96.2188,309.4844,100.2188" style="stroke:#181818;stroke-width:1.0;"/><line style="stroke:#181818;stroke-width:1.0;" x1="309.4844" x2="309.4844" y1="141.3125" y2="161.3125"/><polygon fill="#181818" points="305.4844,151.3125,309.4844,161.3125,313.4844,151.3125,309.4844,155.3125" style="stroke:#181818;stroke-width:1.0;"/><line style="stroke:#181818;stroke-width:1.0;" x1="110.042" x2="110.042" y1="309.3359" y2="344.3359"/><polygon fill="#181818" points="106.042,334.3359,110.042,344.3359,114.042,334.3359,110.042,338.3359" style="stroke:#181818;stroke-width:1.0;"/><line style="stroke:#181818;stroke-width:1.0;" x1="110.042" x2="110.042" y1="379.4297" y2="414.4297"/><polygon fill="#181818" points="106.042,404.4297,110.042,414.4297,114.042,404.4297,110.042,408.4297" style="stroke:#181818;stroke-width:1.0;"/><line style="stroke:#181818;stroke-width:1.0;" x1="110.042" x2="110.042" y1="449.5234" y2="484.5234"/><polygon fill="#181818" points="106.042,474.5234,110.042,484.5234,114.042,474.5234,110.042,478.5234" style="stroke:#181818;stroke-width:1.0;"/><line style="stroke:#181818;stroke-width:1.0;" x1="309.1475" x2="309.1475" y1="295.5" y2="330.5"/><polygon fill="#181818" points="305.1475,320.5,309.1475,330.5,313.1475,320.5,309.1475,324.5" style="stroke:#181818;stroke-width:1.0;"/><line style="stroke:#181818;stroke-width:1.0;" x1="309.1475" x2="309.1475" y1="365.5938" y2="400.5938"/><polygon fill="#181818" points="305.1475,390.5938,309.1475,400.5938,313.1475,390.5938,309.1475,394.5938" style="stroke:#181818;stroke-width:1.0;"/><line style="stroke:#181818;stroke-width:1.0;" x1="309.1475" x2="309.1475" y1="435.6875" y2="470.6875"/><polygon fill="#181818" points="305.1475,460.6875,309.1475,470.6875,313.1475,460.6875,309.1475,464.6875" style="stroke:#181818;stroke-width:1.0;"/><line style="stroke:#181818;stroke-width:1.0;" x1="508.5898" x2="508.5898" y1="340.4648" y2="375.4648"/><polygon fill="#181818" points="504.5898,365.4648,508.5898,375.4648,512.5898,365.4648,508.5898,369.4648" style="stroke:#181818;stroke-width:1.0;"/><line style="stroke:#181818;stroke-width:1.0;" x1="508.5898" x2="508.5898" y1="410.5586" y2="445.5586"/><polygon fill="#181818" points="504.5898,435.5586,508.5898,445.5586,512.5898,435.5586,508.5898,439.5586" style="stroke:#181818;stroke-width:1.0;"/><line style="stroke:#181818;stroke-width:1.0;" x1="110.042" x2="110.042" y1="240.4063" y2="274.2422"/><polygon fill="#181818" points="106.042,264.2422,110.042,274.2422,114.042,264.2422,110.042,268.2422" style="stroke:#181818;stroke-width:1.0;"/><line style="stroke:#181818;stroke-width:1.0;" x1="110.042" x2="110.042" y1="519.6172" y2="539.6172"/><polygon fill="#181818" points="106.042,529.6172,110.042,539.6172,114.042,529.6172,110.042,533.6172" style="stroke:#181818;stroke-width:1.0;"/><line style="stroke:#181818;stroke-width:1.0;" x1="309.1475" x2="309.1475" y1="240.4063" y2="260.4063"/><polygon fill="#181818" points="305.1475,250.4063,309.1475,260.4063,313.1475,250.4063,309.1475,254.4063" style="stroke:#181818;stroke-width:1.0;"/><line style="stroke:#181818;stroke-width:1.0;" x1="309.1475" x2="309.1475" y1="505.7813" y2="539.6172"/><polygon fill="#181818" points="305.1475,529.6172,309.1475,539.6172,313.1475,529.6172,309.1475,533.6172" style="stroke:#181818;stroke-width:1.0;"/><line style="stroke:#181818;stroke-width:1.0;" x1="135.4912" x2="283.999" y1="228.4063" y2="228.4063"/><polygon fill="#181818" points="273.999,224.4063,283.999,228.4063,273.999,232.4063,277.999,228.4063" style="stroke:#181818;stroke-width:1.0;"/><line style="stroke:#181818;stroke-width:1.0;" x1="309.4844" x2="309.4844" y1="196.4063" y2="201.4063"/><line style="stroke:#181818;stroke-width:1.0;" x1="309.4844" x2="110.042" y1="201.4063" y2="201.4063"/><line style="stroke:#181818;stroke-width:1.0;" x1="110.042" x2="110.042" y1="201.4063" y2="216.4063"/><polygon fill="#181818" points="106.042,206.4063,110.042,216.4063,114.042,206.4063,110.042,210.4063" style="stroke:#181818;stroke-width:1.0;"/><line style="stroke:#181818;stroke-width:1.0;" x1="334.2959" x2="508.5898" y1="228.4063" y2="228.4063"/><line style="stroke:#181818;stroke-width:1.0;" x1="508.5898" x2="508.5898" y1="228.4063" y2="305.3711"/><polygon fill="#181818" points="504.5898,295.3711,508.5898,305.3711,512.5898,295.3711,508.5898,299.3711" style="stroke:#181818;stroke-width:1.0;"/><line style="stroke:#181818;stroke-width:1.0;" x1="508.5898" x2="508.5898" y1="480.6523" y2="539.6172"/><polygon fill="#181818" points="504.5898,529.6172,508.5898,539.6172,512.5898,529.6172,508.5898,533.6172" style="stroke:#181818;stroke-width:1.0;"/><line style="stroke:#181818;stroke-width:1.0;" x1="110.042" x2="508.5898" y1="539.6172" y2="539.6172"/><line style="stroke:#181818;stroke-width:1.0;" x1="309.4844" x2="309.4844" y1="539.6172" y2="559.6172"/><polygon fill="#181818" points="305.4844,549.6172,309.4844,559.6172,313.4844,549.6172,309.4844,553.6172" style="stroke:#181818;stroke-width:1.0;"/><!--SRC=[ZP6nRWCX38Ptdi9ZCdNF3LMahfKg9TsoE3cESm63m1SfRrzpkLuJgKEP4Fxi_xEedZXZmGXu4RgIt0uZPWlf8kWI6oCamS9-AS8ReLFwn1-MdGqf83AqkviOZQc2HSnktqTYYFgCljeA8mQC2cRhRVd2pkmELCN6Xc3C5BmMUnoqMvdxiCuO6c2pzvLUjo2ZPTWSCPvnt1hGitjNa2h1a4fSk-2CPUf-W8XrycsstYZ05GFrQv5l5FESAxWy_bevAXINjebxr4suCpPK2ytgisdCKciK1HeVv5V5IT4vuu_YOf1jQLHBUDQ8McaBqI8vvs-EoJdzauEWJ7NxFu4wmu1UQ7XEaVkqH-254o-avPu6_TQKpJS0]--></g></svg>