<svg xmlns="http://www.w3.org/2000/svg" xmlns:xlink="http://www.w3.org/1999/xlink" contentStyleType="text/css" height="578px" preserveAspectRatio="none" style="width:728px;height:578px;background:#FFFFFF;" version="1.1" viewBox="0 0 728 578" width="728px" zoomAndPan="magnify"><title>Activity Diagram</title><defs/><g><text fill="#000000" font-family="sans-serif" font-size="14" font-weight="bold" lengthAdjust="spacing" textLength="110.4824" x="307.376" y="34.5332">Activity Diagram</text><text fill="#000000" font-family="sans-serif" font-size="14" font-weight="bold" lengthAdjust="spacing" textLength="129.1309" x="298.0518" y="52.1426">Mengelola Kategori</text><ellipse cx="364.1172" cy="76.2188" fill="#222222" rx="10" ry="10" style="stroke:#222222;stroke-width:1.0;"/><rect fill="#F1F1F1" height="35.0938" rx="12.5" ry="12.5" style="stroke:#181818;stroke-width:0.5;" width="266.8145" x="230.71" y="106.2188"/><text fill="#000000" font-family="sans-serif" font-size="12" lengthAdjust="spacing" textLength="246.8145" x="240.71" y="128.6758">Bagian Inventori mengakses halaman kategori</text><rect fill="#F1F1F1" height="35.0938" rx="12.5" ry="12.5" style="stroke:#181818;stroke-width:0.5;" width="211.4199" x="258.4072" y="161.3125"/><text fill="#000000" font-family="sans-serif" font-size="12" lengthAdjust="spacing" textLength="191.4199" x="268.4072" y="183.7695">Sistem menampilkan daftar kategori</text><polygon fill="#F1F1F1" points="108.5898,216.4063,135.4883,216.4063,147.4883,228.4063,135.4883,240.4063,108.5898,240.4063,96.5898,228.4063,108.5898,216.4063" style="stroke:#181818;stroke-width:0.5;"/><text fill="#000000" font-family="sans-serif" font-size="11" lengthAdjust="spacing" textLength="40.353" x="126.0391" y="251.8252">Tambah</text><text fill="#000000" font-family="sans-serif" font-size="11" lengthAdjust="spacing" textLength="26.8984" x="108.5898" y="232.9072">Aksi?</text><rect fill="#F1F1F1" height="35.0938" rx="12.5" ry="12.5" style="stroke:#181818;stroke-width:0.5;" width="162.0605" x="41.0088" y="274.2422"/><text fill="#000000" font-family="sans-serif" font-size="12" lengthAdjust="spacing" textLength="142.0605" x="51.0088" y="296.6992">Mengisi form kategori baru</text><rect fill="#F1F1F1" height="35.0938" rx="12.5" ry="12.5" style="stroke:#181818;stroke-width:0.5;" width="154.7422" x="44.668" y="343.1719"/><text fill="#000000" font-family="sans-serif" font-size="12" lengthAdjust="spacing" textLength="134.7422" x="54.668" y="365.6289">Menyimpan data kategori</text><rect fill="#F1F1F1" height="35.0938" rx="12.5" ry="12.5" style="stroke:#181818;stroke-width:0.5;" width="222.0781" x="11" y="412.1016"/><text fill="#000000" font-family="sans-serif" font-size="12" lengthAdjust="spacing" textLength="202.0781" x="21" y="434.5586">Sistem menampilkan notifikasi sukses</text><polygon fill="#F1F1F1" points="350.9688,216.4063,377.2656,216.4063,389.2656,228.4063,377.2656,240.4063,350.9688,240.4063,338.9688,228.4063,350.9688,216.4063" style="stroke:#181818;stroke-width:0.5;"/><text fill="#000000" font-family="sans-serif" font-size="11" lengthAdjust="spacing" textLength="26.2969" x="350.9688" y="232.9072">Ubah</text><text fill="#000000" font-family="sans-serif" font-size="11" lengthAdjust="spacing" textLength="31.7969" x="389.2656" y="225.9893">Hapus</text><rect fill="#F1F1F1" height="35.0938" rx="12.5" ry="12.5" style="stroke:#181818;stroke-width:0.5;" width="107.3633" x="310.4355" y="260.4063"/><text fill="#000000" font-family="sans-serif" font-size="12" lengthAdjust="spacing" textLength="87.3633" x="320.4355" y="282.8633">Memilih kategori</text><rect fill="#F1F1F1" height="35.0938" rx="12.5" ry="12.5" style="stroke:#181818;stroke-width:0.5;" width="149.4277" x="289.4033" y="329.3359"/><text fill="#000000" font-family="sans-serif" font-size="12" lengthAdjust="spacing" textLength="129.4277" x="299.4033" y="351.793">Mengubah data kategori</text><rect fill="#F1F1F1" height="35.0938" rx="12.5" ry="12.5" style="stroke:#181818;stroke-width:0.5;" width="142.748" x="292.7432" y="398.2656"/><text fill="#000000" font-family="sans-serif" font-size="12" lengthAdjust="spacing" textLength="122.748" x="302.7432" y="420.7227">Menyimpan perubahan</text><rect fill="#F1F1F1" height="35.0938" rx="12.5" ry="12.5" style="stroke:#181818;stroke-width:0.5;" width="222.0781" x="253.0781" y="467.1953"/><text fill="#000000" font-family="sans-serif" font-size="12" lengthAdjust="spacing" textLength="202.0781" x="263.0781" y="489.6523">Sistem menampilkan notifikasi sukses</text><rect fill="#F1F1F1" height="35.0938" rx="12.5" ry="12.5" style="stroke:#181818;stroke-width:0.5;" width="107.3633" x="552.5137" y="263.4063"/><text fill="#000000" font-family="sans-serif" font-size="12" lengthAdjust="spacing" textLength="87.3633" x="562.5137" y="285.8633">Memilih kategori</text><rect fill="#F1F1F1" height="35.0938" rx="12.5" ry="12.5" style="stroke:#181818;stroke-width:0.5;" width="152.7559" x="529.8174" y="332.3359"/><text fill="#000000" font-family="sans-serif" font-size="12" lengthAdjust="spacing" textLength="132.7559" x="539.8174" y="354.793">Konfirmasi penghapusan</text><rect fill="#F1F1F1" height="35.0938" rx="12.5" ry="12.5" style="stroke:#181818;stroke-width:0.5;" width="168.7461" x="521.8223" y="401.2656"/><text fill="#000000" font-family="sans-serif" font-size="12" lengthAdjust="spacing" textLength="148.7461" x="531.8223" y="423.7227">Sistem menghapus kategori</text><rect fill="#F1F1F1" height="35.0938" rx="12.5" ry="12.5" style="stroke:#181818;stroke-width:0.5;" width="222.0781" x="495.1563" y="470.1953"/><text fill="#000000" font-family="sans-serif" font-size="12" lengthAdjust="spacing" textLength="202.0781" x="505.1563" y="492.6523">Sistem menampilkan notifikasi sukses</text><ellipse cx="364.1172" cy="556.2891" fill="none" rx="11" ry="11" style="stroke:#222222;stroke-width:1.0;"/><ellipse cx="364.1172" cy="556.2891" fill="#222222" rx="6" ry="6" style="stroke:#222222;stroke-width:1.0;"/><line style="stroke:#181818;stroke-width:1.0;" x1="364.1172" x2="364.1172" y1="86.2188" y2="106.2188"/><polygon fill="#181818" points="360.1172,96.2188,364.1172,106.2188,368.1172,96.2188,364.1172,100.2188" style="stroke:#181818;stroke-width:1.0;"/><line style="stroke:#181818;stroke-width:1.0;" x1="364.1172" x2="364.1172" y1="141.3125" y2="161.3125"/><polygon fill="#181818" points="360.1172,151.3125,364.1172,161.3125,368.1172,151.3125,364.1172,155.3125" style="stroke:#181818;stroke-width:1.0;"/><line style="stroke:#181818;stroke-width:1.0;" x1="122.0391" x2="122.0391" y1="309.3359" y2="343.1719"/><polygon fill="#181818" points="118.0391,333.1719,122.0391,343.1719,126.0391,333.1719,122.0391,337.1719" style="stroke:#181818;stroke-width:1.0;"/><line style="stroke:#181818;stroke-width:1.0;" x1="122.0391" x2="122.0391" y1="378.2656" y2="412.1016"/><polygon fill="#181818" points="118.0391,402.1016,122.0391,412.1016,126.0391,402.1016,122.0391,406.1016" style="stroke:#181818;stroke-width:1.0;"/><line style="stroke:#181818;stroke-width:1.0;" x1="364.1172" x2="364.1172" y1="295.5" y2="329.3359"/><polygon fill="#181818" points="360.1172,319.3359,364.1172,329.3359,368.1172,319.3359,364.1172,323.3359" style="stroke:#181818;stroke-width:1.0;"/><line style="stroke:#181818;stroke-width:1.0;" x1="364.1172" x2="364.1172" y1="364.4297" y2="398.2656"/><polygon fill="#181818" points="360.1172,388.2656,364.1172,398.2656,368.1172,388.2656,364.1172,392.2656" style="stroke:#181818;stroke-width:1.0;"/><line style="stroke:#181818;stroke-width:1.0;" x1="364.1172" x2="364.1172" y1="433.3594" y2="467.1953"/><polygon fill="#181818" points="360.1172,457.1953,364.1172,467.1953,368.1172,457.1953,364.1172,461.1953" style="stroke:#181818;stroke-width:1.0;"/><line style="stroke:#181818;stroke-width:1.0;" x1="606.1953" x2="606.1953" y1="298.5" y2="332.3359"/><polygon fill="#181818" points="602.1953,322.3359,606.1953,332.3359,610.1953,322.3359,606.1953,326.3359" style="stroke:#181818;stroke-width:1.0;"/><line style="stroke:#181818;stroke-width:1.0;" x1="606.1953" x2="606.1953" y1="367.4297" y2="401.2656"/><polygon fill="#181818" points="602.1953,391.2656,606.1953,401.2656,610.1953,391.2656,606.1953,395.2656" style="stroke:#181818;stroke-width:1.0;"/><line style="stroke:#181818;stroke-width:1.0;" x1="606.1953" x2="606.1953" y1="436.3594" y2="470.1953"/><polygon fill="#181818" points="602.1953,460.1953,606.1953,470.1953,610.1953,460.1953,606.1953,464.1953" style="stroke:#181818;stroke-width:1.0;"/><line style="stroke:#181818;stroke-width:1.0;" x1="122.0391" x2="122.0391" y1="240.4063" y2="274.2422"/><polygon fill="#181818" points="118.0391,264.2422,122.0391,274.2422,126.0391,264.2422,122.0391,268.2422" style="stroke:#181818;stroke-width:1.0;"/><line style="stroke:#181818;stroke-width:1.0;" x1="122.0391" x2="122.0391" y1="447.1953" y2="525.2891"/><polygon fill="#181818" points="118.0391,515.2891,122.0391,525.2891,126.0391,515.2891,122.0391,519.2891" style="stroke:#181818;stroke-width:1.0;"/><line style="stroke:#181818;stroke-width:1.0;" x1="364.1172" x2="364.1172" y1="240.4063" y2="260.4063"/><polygon fill="#181818" points="360.1172,250.4063,364.1172,260.4063,368.1172,250.4063,364.1172,254.4063" style="stroke:#181818;stroke-width:1.0;"/><line style="stroke:#181818;stroke-width:1.0;" x1="364.1172" x2="364.1172" y1="502.2891" y2="545.2891"/><polygon fill="#181818" points="360.1172,535.2891,364.1172,545.2891,368.1172,535.2891,364.1172,539.2891" style="stroke:#181818;stroke-width:1.0;"/><line style="stroke:#181818;stroke-width:1.0;" x1="147.4883" x2="338.9688" y1="228.4063" y2="228.4063"/><polygon fill="#181818" points="328.9688,224.4063,338.9688,228.4063,328.9688,232.4063,332.9688,228.4063" style="stroke:#181818;stroke-width:1.0;"/><line style="stroke:#181818;stroke-width:1.0;" x1="364.1172" x2="364.1172" y1="196.4063" y2="201.4063"/><line style="stroke:#181818;stroke-width:1.0;" x1="364.1172" x2="122.0391" y1="201.4063" y2="201.4063"/><line style="stroke:#181818;stroke-width:1.0;" x1="122.0391" x2="122.0391" y1="201.4063" y2="216.4063"/><polygon fill="#181818" points="118.0391,206.4063,122.0391,216.4063,126.0391,206.4063,122.0391,210.4063" style="stroke:#181818;stroke-width:1.0;"/><line style="stroke:#181818;stroke-width:1.0;" x1="389.2656" x2="606.1953" y1="228.4063" y2="228.4063"/><line style="stroke:#181818;stroke-width:1.0;" x1="606.1953" x2="606.1953" y1="228.4063" y2="263.4063"/><polygon fill="#181818" points="602.1953,253.4063,606.1953,263.4063,610.1953,253.4063,606.1953,257.4063" style="stroke:#181818;stroke-width:1.0;"/><line style="stroke:#181818;stroke-width:1.0;" x1="606.1953" x2="606.1953" y1="505.2891" y2="525.2891"/><polygon fill="#181818" points="602.1953,515.2891,606.1953,525.2891,610.1953,515.2891,606.1953,519.2891" style="stroke:#181818;stroke-width:1.0;"/><line style="stroke:#181818;stroke-width:1.0;" x1="122.0391" x2="606.1953" y1="525.2891" y2="525.2891"/><!--SRC=[dP51JiCm44NtFiKiaoia2rJ40bInQjcncRPsFB8zjkn9fTuUEvHIeGW9iltl_tboYYDEc3407eNE99UTnQGX7WMdo4e9YTUmkORmH3XL-frVDK_QHu-mHT5JpAHK4SoYXaUS21bU-AnPQW2XikYABc3HOwYPktP6DUoeY0wDmP38kvgUqDIbEqYHWMxZ2Ztq85OpT7iC1xIzWleDpOKAWOavt5fmm3oFD-128ItJWdV3IxfYm578aCCwMkPcFYhjYuRcyTOEBnfVuu4ysP-hJMgkwEh9Rw6aSwEG_oxJFMEQI_-hnJQoeHnQDrKXsnehjpw3VpuCdyZKVn-J-W00]--></g></svg>