<svg xmlns="http://www.w3.org/2000/svg" xmlns:xlink="http://www.w3.org/1999/xlink" contentStyleType="text/css" height="1757px" preserveAspectRatio="none" style="width:1666px;height:1757px;background:#FFFFFF;" version="1.1" viewBox="0 0 1666 1757" width="1666px" zoomAndPan="magnify"><title>UC-08: Kelola Produksi</title><defs/><g><text fill="#000000" font-family="sans-serif" font-size="14" font-weight="bold" lengthAdjust="spacing" textLength="154.8135" x="751.8701" y="29.5332">UC-08: Kelola Produksi</text><rect fill="none" height="400.4063" style="stroke:#000000;stroke-width:1.5;" width="1415.7036" x="233.8501" y="667.1953"/><rect fill="none" height="79.0547" style="stroke:#000000;stroke-width:1.5;" width="1062.7876" x="576.7661" y="738.7344"/><rect fill="none" height="216.2969" style="stroke:#000000;stroke-width:1.5;" width="1405.7036" x="233.8501" y="1290.7109"/><line style="stroke:#181818;stroke-width:0.5;stroke-dasharray:5.0,5.0;" x1="58" x2="58" y1="121.2188" y2="1675.7656"/><line style="stroke:#181818;stroke-width:0.5;stroke-dasharray:5.0,5.0;" x1="312.8501" x2="312.8501" y1="121.2188" y2="1675.7656"/><line style="stroke:#181818;stroke-width:0.5;stroke-dasharray:5.0,5.0;" x1="484.1187" x2="484.1187" y1="121.2188" y2="1675.7656"/><line style="stroke:#181818;stroke-width:0.5;stroke-dasharray:5.0,5.0;" x1="645.7661" x2="645.7661" y1="121.2188" y2="1675.7656"/><line style="stroke:#181818;stroke-width:0.5;stroke-dasharray:5.0,5.0;" x1="963.0518" x2="963.0518" y1="121.2188" y2="1675.7656"/><line style="stroke:#181818;stroke-width:0.5;stroke-dasharray:5.0,5.0;" x1="1114.0029" x2="1114.0029" y1="121.2188" y2="1675.7656"/><line style="stroke:#181818;stroke-width:0.5;stroke-dasharray:5.0,5.0;" x1="1273.7471" x2="1273.7471" y1="121.2188" y2="1675.7656"/><line style="stroke:#181818;stroke-width:0.5;stroke-dasharray:5.0,5.0;" x1="1417.3535" x2="1417.3535" y1="121.2188" y2="1675.7656"/><line style="stroke:#181818;stroke-width:0.5;stroke-dasharray:5.0,5.0;" x1="1595.623" x2="1595.623" y1="121.2188" y2="1675.7656"/><text fill="#000000" font-family="sans-serif" font-size="14" lengthAdjust="spacing" textLength="101.9512" x="5" y="118.1426">Bagian Produksi</text><ellipse cx="58.9756" cy="52.1094" fill="#E2E2F0" rx="8" ry="8" style="stroke:#181818;stroke-width:0.5;"/><path d="M58.9756,60.1094 L58.9756,87.1094 M45.9756,68.1094 L71.9756,68.1094 M58.9756,87.1094 L45.9756,102.1094 M58.9756,87.1094 L71.9756,102.1094 " fill="none" style="stroke:#181818;stroke-width:0.5;"/><text fill="#000000" font-family="sans-serif" font-size="14" lengthAdjust="spacing" textLength="101.9512" x="5" y="1689.2988">Bagian Produksi</text><ellipse cx="58.9756" cy="1700.875" fill="#E2E2F0" rx="8" ry="8" style="stroke:#181818;stroke-width:0.5;"/><path d="M58.9756,1708.875 L58.9756,1735.875 M45.9756,1716.875 L71.9756,1716.875 M58.9756,1735.875 L45.9756,1750.875 M58.9756,1735.875 L71.9756,1750.875 " fill="none" style="stroke:#181818;stroke-width:0.5;"/><rect fill="#E2E2F0" height="49.2188" rx="2.5" ry="2.5" style="stroke:#181818;stroke-width:0.5;" width="139.2686" x="243.8501" y="71"/><text fill="#000000" font-family="sans-serif" font-size="14" lengthAdjust="spacing" textLength="114.3857" x="256.2915" y="92.5332">Halaman Produksi</text><text fill="#000000" font-family="sans-serif" font-size="14" lengthAdjust="spacing" textLength="125.2686" x="250.8501" y="110.1426">(livewire/production)</text><rect fill="#E2E2F0" height="49.2188" rx="2.5" ry="2.5" style="stroke:#181818;stroke-width:0.5;" width="139.2686" x="243.8501" y="1674.7656"/><text fill="#000000" font-family="sans-serif" font-size="14" lengthAdjust="spacing" textLength="114.3857" x="256.2915" y="1696.2988">Halaman Produksi</text><text fill="#000000" font-family="sans-serif" font-size="14" lengthAdjust="spacing" textLength="125.2686" x="250.8501" y="1713.9082">(livewire/production)</text><rect fill="#E2E2F0" height="49.2188" rx="2.5" ry="2.5" style="stroke:#181818;stroke-width:0.5;" width="183.6475" x="393.1187" y="71"/><text fill="#000000" font-family="sans-serif" font-size="14" lengthAdjust="spacing" textLength="169.6475" x="400.1187" y="92.5332">Production\AntrianProduksi</text><text fill="#000000" font-family="sans-serif" font-size="14" lengthAdjust="spacing" textLength="60.6758" x="454.6045" y="110.1426">(Livewire)</text><rect fill="#E2E2F0" height="49.2188" rx="2.5" ry="2.5" style="stroke:#181818;stroke-width:0.5;" width="183.6475" x="393.1187" y="1674.7656"/><text fill="#000000" font-family="sans-serif" font-size="14" lengthAdjust="spacing" textLength="169.6475" x="400.1187" y="1696.2988">Production\AntrianProduksi</text><text fill="#000000" font-family="sans-serif" font-size="14" lengthAdjust="spacing" textLength="60.6758" x="454.6045" y="1713.9082">(Livewire)</text><rect fill="#E2E2F0" height="49.2188" rx="2.5" ry="2.5" style="stroke:#181818;stroke-width:0.5;" width="118.2754" x="586.7661" y="71"/><text fill="#000000" font-family="sans-serif" font-size="14" lengthAdjust="spacing" textLength="104.2754" x="593.7661" y="92.5332">Production\Mulai</text><text fill="#000000" font-family="sans-serif" font-size="14" lengthAdjust="spacing" textLength="60.6758" x="615.5659" y="110.1426">(Livewire)</text><rect fill="#E2E2F0" height="49.2188" rx="2.5" ry="2.5" style="stroke:#181818;stroke-width:0.5;" width="118.2754" x="586.7661" y="1674.7656"/><text fill="#000000" font-family="sans-serif" font-size="14" lengthAdjust="spacing" textLength="104.2754" x="593.7661" y="1696.2988">Production\Mulai</text><text fill="#000000" font-family="sans-serif" font-size="14" lengthAdjust="spacing" textLength="60.6758" x="615.5659" y="1713.9082">(Livewire)</text><rect fill="#E2E2F0" height="31.6094" rx="2.5" ry="2.5" style="stroke:#181818;stroke-width:0.5;" width="122.9512" x="902.0518" y="88.6094"/><text fill="#000000" font-family="sans-serif" font-size="14" lengthAdjust="spacing" textLength="108.9512" x="909.0518" y="110.1426">Production Model</text><rect fill="#E2E2F0" height="31.6094" rx="2.5" ry="2.5" style="stroke:#181818;stroke-width:0.5;" width="122.9512" x="902.0518" y="1674.7656"/><text fill="#000000" font-family="sans-serif" font-size="14" lengthAdjust="spacing" textLength="108.9512" x="909.0518" y="1696.2988">Production Model</text><rect fill="#E2E2F0" height="31.6094" rx="2.5" ry="2.5" style="stroke:#181818;stroke-width:0.5;" width="158.7441" x="1035.0029" y="88.6094"/><text fill="#000000" font-family="sans-serif" font-size="14" lengthAdjust="spacing" textLength="144.7441" x="1042.0029" y="110.1426">ProductionDetail Model</text><rect fill="#E2E2F0" height="31.6094" rx="2.5" ry="2.5" style="stroke:#181818;stroke-width:0.5;" width="158.7441" x="1035.0029" y="1674.7656"/><text fill="#000000" font-family="sans-serif" font-size="14" lengthAdjust="spacing" textLength="144.7441" x="1042.0029" y="1696.2988">ProductionDetail Model</text><rect fill="#E2E2F0" height="31.6094" rx="2.5" ry="2.5" style="stroke:#181818;stroke-width:0.5;" width="141.6064" x="1203.7471" y="88.6094"/><text fill="#000000" font-family="sans-serif" font-size="14" lengthAdjust="spacing" textLength="127.6064" x="1210.7471" y="110.1426">MaterialDetail Model</text><rect fill="#E2E2F0" height="31.6094" rx="2.5" ry="2.5" style="stroke:#181818;stroke-width:0.5;" width="141.6064" x="1203.7471" y="1674.7656"/><text fill="#000000" font-family="sans-serif" font-size="14" lengthAdjust="spacing" textLength="127.6064" x="1210.7471" y="1696.2988">MaterialDetail Model</text><rect fill="#E2E2F0" height="31.6094" rx="2.5" ry="2.5" style="stroke:#181818;stroke-width:0.5;" width="125.2754" x="1355.3535" y="88.6094"/><text fill="#000000" font-family="sans-serif" font-size="14" lengthAdjust="spacing" textLength="111.2754" x="1362.3535" y="110.1426">Notification Model</text><rect fill="#E2E2F0" height="31.6094" rx="2.5" ry="2.5" style="stroke:#181818;stroke-width:0.5;" width="125.2754" x="1355.3535" y="1674.7656"/><text fill="#000000" font-family="sans-serif" font-size="14" lengthAdjust="spacing" textLength="111.2754" x="1362.3535" y="1696.2988">Notification Model</text><text fill="#000000" font-family="sans-serif" font-size="14" lengthAdjust="spacing" textLength="59.9307" x="1563.623" y="118.1426">Database</text><path d="M1578.5884,67.6094 C1578.5884,57.6094 1596.5884,57.6094 1596.5884,57.6094 C1596.5884,57.6094 1614.5884,57.6094 1614.5884,67.6094 L1614.5884,93.6094 C1614.5884,103.6094 1596.5884,103.6094 1596.5884,103.6094 C1596.5884,103.6094 1578.5884,103.6094 1578.5884,93.6094 L1578.5884,67.6094 " fill="#E2E2F0" style="stroke:#181818;stroke-width:1.5;"/><path d="M1578.5884,67.6094 C1578.5884,77.6094 1596.5884,77.6094 1596.5884,77.6094 C1596.5884,77.6094 1614.5884,77.6094 1614.5884,67.6094 " fill="none" style="stroke:#181818;stroke-width:1.5;"/><text fill="#000000" font-family="sans-serif" font-size="14" lengthAdjust="spacing" textLength="59.9307" x="1563.623" y="1689.2988">Database</text><path d="M1578.5884,1702.375 C1578.5884,1692.375 1596.5884,1692.375 1596.5884,1692.375 C1596.5884,1692.375 1614.5884,1692.375 1614.5884,1702.375 L1614.5884,1728.375 C1614.5884,1738.375 1596.5884,1738.375 1596.5884,1738.375 C1596.5884,1738.375 1578.5884,1738.375 1578.5884,1728.375 L1578.5884,1702.375 " fill="#E2E2F0" style="stroke:#181818;stroke-width:1.5;"/><path d="M1578.5884,1702.375 C1578.5884,1712.375 1596.5884,1712.375 1596.5884,1712.375 C1596.5884,1712.375 1614.5884,1712.375 1614.5884,1702.375 " fill="none" style="stroke:#181818;stroke-width:1.5;"/><rect fill="#EEEEEE" height="3" style="stroke:#EEEEEE;stroke-width:1.0;" width="1659.5537" x="0" y="152.3945"/><line style="stroke:#000000;stroke-width:1.0;" x1="0" x2="1659.5537" y1="152.3945" y2="152.3945"/><line style="stroke:#000000;stroke-width:1.0;" x1="0" x2="1659.5537" y1="155.3945" y2="155.3945"/><rect fill="#EEEEEE" height="24.3516" style="stroke:#000000;stroke-width:2.0;" width="157.0127" x="751.2705" y="141.2188"/><text fill="#000000" font-family="sans-serif" font-size="13" font-weight="bold" lengthAdjust="spacing" textLength="139.4009" x="757.2705" y="158.7139">Lihat Antrian Produksi</text><polygon fill="#181818" points="301.4844,193.9219,311.4844,197.9219,301.4844,201.9219,305.4844,197.9219" style="stroke:#181818;stroke-width:1.0;"/><line style="stroke:#181818;stroke-width:1.0;" x1="58.9756" x2="307.4844" y1="197.9219" y2="197.9219"/><text fill="#000000" font-family="sans-serif" font-size="13" lengthAdjust="spacing" textLength="156.7998" x="65.9756" y="193.0654">Membuka /produksi/antrian</text><polygon fill="#181818" points="472.9424,224.2734,482.9424,228.2734,472.9424,232.2734,476.9424,228.2734" style="stroke:#181818;stroke-width:1.0;"/><line style="stroke:#181818;stroke-width:1.0;" x1="313.4844" x2="478.9424" y1="228.2734" y2="228.2734"/><text fill="#000000" font-family="sans-serif" font-size="13" lengthAdjust="spacing" textLength="44.7891" x="320.4844" y="223.417">mount()</text><polygon fill="#181818" points="1584.5884,287.3281,1594.5884,291.3281,1584.5884,295.3281,1588.5884,291.3281" style="stroke:#181818;stroke-width:1.0;"/><line style="stroke:#181818;stroke-width:1.0;" x1="484.9424" x2="1590.5884" y1="291.3281" y2="291.3281"/><text fill="#000000" font-family="sans-serif" font-size="13" lengthAdjust="spacing" textLength="228.3188" x="491.9424" y="253.7686">SELECT productions JOIN transactions</text><text fill="#000000" font-family="sans-serif" font-size="13" lengthAdjust="spacing" textLength="167.9019" x="491.9424" y="270.1201">WHERE status = 'Menunggu'</text><text fill="#000000" font-family="sans-serif" font-size="13" lengthAdjust="spacing" textLength="149.1255" x="491.9424" y="286.4717">AND method != 'siap_beli'</text><polygon fill="#181818" points="495.9424,317.6797,485.9424,321.6797,495.9424,325.6797,491.9424,321.6797" style="stroke:#181818;stroke-width:1.0;"/><line style="stroke:#181818;stroke-width:1.0;stroke-dasharray:2.0,2.0;" x1="489.9424" x2="1595.5884" y1="321.6797" y2="321.6797"/><text fill="#000000" font-family="sans-serif" font-size="13" lengthAdjust="spacing" textLength="132.2534" x="501.9424" y="316.8232">Daftar antrian pesanan</text><polygon fill="#181818" points="324.4844,348.0313,314.4844,352.0313,324.4844,356.0313,320.4844,352.0313" style="stroke:#181818;stroke-width:1.0;"/><line style="stroke:#181818;stroke-width:1.0;stroke-dasharray:2.0,2.0;" x1="318.4844" x2="483.9424" y1="352.0313" y2="352.0313"/><text fill="#000000" font-family="sans-serif" font-size="13" lengthAdjust="spacing" textLength="138.7471" x="330.4844" y="347.1748">Render antrian produksi</text><rect fill="#EEEEEE" height="3" style="stroke:#EEEEEE;stroke-width:1.0;" width="1659.5537" x="0" y="381.207"/><line style="stroke:#000000;stroke-width:1.0;" x1="0" x2="1659.5537" y1="381.207" y2="381.207"/><line style="stroke:#000000;stroke-width:1.0;" x1="0" x2="1659.5537" y1="384.207" y2="384.207"/><rect fill="#EEEEEE" height="24.3516" style="stroke:#000000;stroke-width:2.0;" width="167.1563" x="746.1987" y="370.0313"/><text fill="#000000" font-family="sans-serif" font-size="13" font-weight="bold" lengthAdjust="spacing" textLength="149.5444" x="752.1987" y="387.5264">Mulai Produksi Pesanan</text><polygon fill="#181818" points="301.4844,422.7344,311.4844,426.7344,301.4844,430.7344,305.4844,426.7344" style="stroke:#181818;stroke-width:1.0;"/><line style="stroke:#181818;stroke-width:1.0;" x1="58.9756" x2="307.4844" y1="426.7344" y2="426.7344"/><text fill="#000000" font-family="sans-serif" font-size="13" lengthAdjust="spacing" textLength="195.8379" x="65.9756" y="421.8779">Klik Mulai Produksi pada pesanan</text><polygon fill="#181818" points="633.9038,453.0859,643.9038,457.0859,633.9038,461.0859,637.9038,457.0859" style="stroke:#181818;stroke-width:1.0;"/><line style="stroke:#181818;stroke-width:1.0;" x1="313.4844" x2="639.9038" y1="457.0859" y2="457.0859"/><text fill="#000000" font-family="sans-serif" font-size="13" lengthAdjust="spacing" textLength="123.5698" x="320.4844" y="452.2295">mount($productionId)</text><polygon fill="#181818" points="951.5273,483.4375,961.5273,487.4375,951.5273,491.4375,955.5273,487.4375" style="stroke:#181818;stroke-width:1.0;"/><line style="stroke:#181818;stroke-width:1.0;" x1="645.9038" x2="957.5273" y1="487.4375" y2="487.4375"/><text fill="#000000" font-family="sans-serif" font-size="13" lengthAdjust="spacing" textLength="293.6235" x="652.9038" y="482.5811">Production::findOrFail($id)-&gt;load(['details.product'])</text><polygon fill="#181818" points="1584.5884,513.7891,1594.5884,517.7891,1584.5884,521.7891,1588.5884,517.7891" style="stroke:#181818;stroke-width:1.0;"/><line style="stroke:#181818;stroke-width:1.0;" x1="963.5273" x2="1590.5884" y1="517.7891" y2="517.7891"/><text fill="#000000" font-family="sans-serif" font-size="13" lengthAdjust="spacing" textLength="234.1333" x="970.5273" y="512.9326">SELECT productions, production_details</text><polygon fill="#181818" points="656.9038,544.1406,646.9038,548.1406,656.9038,552.1406,652.9038,548.1406" style="stroke:#181818;stroke-width:1.0;"/><line style="stroke:#181818;stroke-width:1.0;stroke-dasharray:2.0,2.0;" x1="650.9038" x2="1595.5884" y1="548.1406" y2="548.1406"/><text fill="#000000" font-family="sans-serif" font-size="13" lengthAdjust="spacing" textLength="80.209" x="662.9038" y="543.2842">Data produksi</text><polygon fill="#181818" points="301.4844,574.4922,311.4844,578.4922,301.4844,582.4922,305.4844,578.4922" style="stroke:#181818;stroke-width:1.0;"/><line style="stroke:#181818;stroke-width:1.0;" x1="58.9756" x2="307.4844" y1="578.4922" y2="578.4922"/><text fill="#000000" font-family="sans-serif" font-size="13" lengthAdjust="spacing" textLength="207.3716" x="65.9756" y="573.6357">Isi jumlah hasil produksi lalu simpan</text><polygon fill="#181818" points="633.9038,604.8438,643.9038,608.8438,633.9038,612.8438,637.9038,608.8438" style="stroke:#181818;stroke-width:1.0;"/><line style="stroke:#181818;stroke-width:1.0;" x1="313.4844" x2="639.9038" y1="608.8438" y2="608.8438"/><text fill="#000000" font-family="sans-serif" font-size="13" lengthAdjust="spacing" textLength="36.1182" x="320.4844" y="603.9873">save()</text><line style="stroke:#181818;stroke-width:1.0;" x1="645.9038" x2="687.9038" y1="639.1953" y2="639.1953"/><line style="stroke:#181818;stroke-width:1.0;" x1="687.9038" x2="687.9038" y1="639.1953" y2="652.1953"/><line style="stroke:#181818;stroke-width:1.0;" x1="646.9038" x2="687.9038" y1="652.1953" y2="652.1953"/><polygon fill="#181818" points="656.9038,648.1953,646.9038,652.1953,656.9038,656.1953,652.9038,652.1953" style="stroke:#181818;stroke-width:1.0;"/><text fill="#000000" font-family="sans-serif" font-size="13" lengthAdjust="spacing" textLength="192.9561" x="652.9038" y="634.3389">Cek ketersediaan stok tiap bahan</text><path d="M233.8501,667.1953 L294.021,667.1953 L294.021,675.5469 L284.021,685.5469 L233.8501,685.5469 L233.8501,667.1953 " fill="#EEEEEE" style="stroke:#000000;stroke-width:1.5;"/><rect fill="none" height="400.4063" style="stroke:#000000;stroke-width:1.5;" width="1415.7036" x="233.8501" y="667.1953"/><text fill="#000000" font-family="sans-serif" font-size="13" font-weight="bold" lengthAdjust="spacing" textLength="15.1709" x="248.8501" y="681.6904">alt</text><text fill="#000000" font-family="sans-serif" font-size="11" font-weight="bold" lengthAdjust="spacing" textLength="156.4653" x="309.021" y="680.6143">[Stok bahan tidak mencukupi]</text><polygon fill="#181818" points="324.4844,703.8984,314.4844,707.8984,324.4844,711.8984,320.4844,707.8984" style="stroke:#181818;stroke-width:1.0;"/><line style="stroke:#181818;stroke-width:1.0;stroke-dasharray:2.0,2.0;" x1="318.4844" x2="644.9038" y1="707.8984" y2="707.8984"/><text fill="#000000" font-family="sans-serif" font-size="13" lengthAdjust="spacing" textLength="151.0425" x="330.4844" y="703.042">Pesan error bahan kurang</text><line style="stroke:#000000;stroke-width:1.0;stroke-dasharray:2.0,2.0;" x1="233.8501" x2="1649.5537" y1="716.8984" y2="716.8984"/><text fill="#000000" font-family="sans-serif" font-size="11" font-weight="bold" lengthAdjust="spacing" textLength="92.2861" x="238.8501" y="728.3174">[Stok mencukupi]</text><path d="M576.7661,738.7344 L649.2007,738.7344 L649.2007,747.0859 L639.2007,757.0859 L576.7661,757.0859 L576.7661,738.7344 " fill="#EEEEEE" style="stroke:#000000;stroke-width:1.5;"/><rect fill="none" height="79.0547" style="stroke:#000000;stroke-width:1.5;" width="1062.7876" x="576.7661" y="738.7344"/><text fill="#000000" font-family="sans-serif" font-size="13" font-weight="bold" lengthAdjust="spacing" textLength="27.4346" x="591.7661" y="753.2295">loop</text><text fill="#000000" font-family="sans-serif" font-size="11" font-weight="bold" lengthAdjust="spacing" textLength="168.0938" x="664.2007" y="752.1533">[Setiap bahan dalam komposisi]</text><polygon fill="#181818" points="1262.5503,775.4375,1272.5503,779.4375,1262.5503,783.4375,1266.5503,779.4375" style="stroke:#181818;stroke-width:1.0;"/><line style="stroke:#181818;stroke-width:1.0;" x1="645.9038" x2="1268.5503" y1="779.4375" y2="779.4375"/><text fill="#000000" font-family="sans-serif" font-size="13" lengthAdjust="spacing" textLength="138.7598" x="652.9038" y="774.5811">Kurangi supply_quantity</text><polygon fill="#181818" points="1584.5884,805.7891,1594.5884,809.7891,1584.5884,813.7891,1588.5884,809.7891" style="stroke:#181818;stroke-width:1.0;"/><line style="stroke:#181818;stroke-width:1.0;" x1="1274.5503" x2="1590.5884" y1="809.7891" y2="809.7891"/><text fill="#000000" font-family="sans-serif" font-size="13" lengthAdjust="spacing" textLength="147.3862" x="1281.5503" y="804.9326">UPDATE material_details</text><polygon fill="#181818" points="1102.375,843.1406,1112.375,847.1406,1102.375,851.1406,1106.375,847.1406" style="stroke:#181818;stroke-width:1.0;"/><line style="stroke:#181818;stroke-width:1.0;" x1="645.9038" x2="1108.375" y1="847.1406" y2="847.1406"/><text fill="#000000" font-family="sans-serif" font-size="13" lengthAdjust="spacing" textLength="260.0698" x="652.9038" y="842.2842">ProductionDetail::update(['quantity_get'=&gt;...])</text><polygon fill="#181818" points="1584.5884,873.4922,1594.5884,877.4922,1584.5884,881.4922,1588.5884,877.4922" style="stroke:#181818;stroke-width:1.0;"/><line style="stroke:#181818;stroke-width:1.0;" x1="1114.375" x2="1590.5884" y1="877.4922" y2="877.4922"/><text fill="#000000" font-family="sans-serif" font-size="13" lengthAdjust="spacing" textLength="161.8589" x="1121.375" y="872.6357">UPDATE production_details</text><polygon fill="#181818" points="951.5273,903.8438,961.5273,907.8438,951.5273,911.8438,955.5273,907.8438" style="stroke:#181818;stroke-width:1.0;"/><line style="stroke:#181818;stroke-width:1.0;" x1="645.9038" x2="957.5273" y1="907.8438" y2="907.8438"/><text fill="#000000" font-family="sans-serif" font-size="13" lengthAdjust="spacing" textLength="237.9355" x="652.9038" y="902.9873">$production-&gt;update(['status'=&gt;'Selesai'])</text><polygon fill="#181818" points="1584.5884,934.1953,1594.5884,938.1953,1584.5884,942.1953,1588.5884,938.1953" style="stroke:#181818;stroke-width:1.0;"/><line style="stroke:#181818;stroke-width:1.0;" x1="963.5273" x2="1590.5884" y1="938.1953" y2="938.1953"/><text fill="#000000" font-family="sans-serif" font-size="13" lengthAdjust="spacing" textLength="123.5508" x="970.5273" y="933.3389">UPDATE productions</text><polygon fill="#181818" points="1584.5884,964.5469,1594.5884,968.5469,1584.5884,972.5469,1588.5884,968.5469" style="stroke:#181818;stroke-width:1.0;"/><line style="stroke:#181818;stroke-width:1.0;" x1="645.9038" x2="1590.5884" y1="968.5469" y2="968.5469"/><text fill="#000000" font-family="sans-serif" font-size="13" lengthAdjust="spacing" textLength="295.0454" x="652.9038" y="963.6904">UPDATE transactions SET status = 'Dapat Diambil'</text><polygon fill="#181818" points="1405.9912,994.8984,1415.9912,998.8984,1405.9912,1002.8984,1409.9912,998.8984" style="stroke:#181818;stroke-width:1.0;"/><line style="stroke:#181818;stroke-width:1.0;" x1="645.9038" x2="1411.9912" y1="998.8984" y2="998.8984"/><text fill="#000000" font-family="sans-serif" font-size="13" lengthAdjust="spacing" textLength="284.5337" x="652.9038" y="994.042">Notification::create(['type'=&gt;'production_done',...])</text><polygon fill="#181818" points="1584.5884,1025.25,1594.5884,1029.25,1584.5884,1033.25,1588.5884,1029.25" style="stroke:#181818;stroke-width:1.0;"/><line style="stroke:#181818;stroke-width:1.0;" x1="1417.9912" x2="1590.5884" y1="1029.25" y2="1029.25"/><text fill="#000000" font-family="sans-serif" font-size="13" lengthAdjust="spacing" textLength="154.5972" x="1424.9912" y="1024.3936">INSERT INTO notifications</text><polygon fill="#181818" points="324.4844,1055.6016,314.4844,1059.6016,324.4844,1063.6016,320.4844,1059.6016" style="stroke:#181818;stroke-width:1.0;"/><line style="stroke:#181818;stroke-width:1.0;stroke-dasharray:2.0,2.0;" x1="318.4844" x2="644.9038" y1="1059.6016" y2="1059.6016"/><text fill="#000000" font-family="sans-serif" font-size="13" lengthAdjust="spacing" textLength="195.4507" x="330.4844" y="1054.7451">Notifikasi sukses &#8594; redirect daftar</text><rect fill="#EEEEEE" height="3" style="stroke:#EEEEEE;stroke-width:1.0;" width="1659.5537" x="0" y="1095.7773"/><line style="stroke:#000000;stroke-width:1.0;" x1="0" x2="1659.5537" y1="1095.7773" y2="1095.7773"/><line style="stroke:#000000;stroke-width:1.0;" x1="0" x2="1659.5537" y1="1098.7773" y2="1098.7773"/><rect fill="#EEEEEE" height="24.3516" style="stroke:#000000;stroke-width:2.0;" width="131.7554" x="763.8992" y="1084.6016"/><text fill="#000000" font-family="sans-serif" font-size="13" font-weight="bold" lengthAdjust="spacing" textLength="114.1436" x="769.8992" y="1102.0967">Produksi Siap Beli</text><polygon fill="#181818" points="301.4844,1137.3047,311.4844,1141.3047,301.4844,1145.3047,305.4844,1141.3047" style="stroke:#181818;stroke-width:1.0;"/><line style="stroke:#181818;stroke-width:1.0;" x1="58.9756" x2="307.4844" y1="1141.3047" y2="1141.3047"/><text fill="#000000" font-family="sans-serif" font-size="13" lengthAdjust="spacing" textLength="181.3589" x="65.9756" y="1136.4482">Klik Tambah Produksi Siap Beli</text><polygon fill="#181818" points="633.9038,1167.6563,643.9038,1171.6563,633.9038,1175.6563,637.9038,1171.6563" style="stroke:#181818;stroke-width:1.0;"/><line style="stroke:#181818;stroke-width:1.0;" x1="313.4844" x2="639.9038" y1="1171.6563" y2="1171.6563"/><text fill="#000000" font-family="sans-serif" font-size="13" lengthAdjust="spacing" textLength="119.939" x="320.4844" y="1166.7998">mountReadyToBuy()</text><polygon fill="#181818" points="301.4844,1198.0078,311.4844,1202.0078,301.4844,1206.0078,305.4844,1202.0078" style="stroke:#181818;stroke-width:1.0;"/><line style="stroke:#181818;stroke-width:1.0;" x1="58.9756" x2="307.4844" y1="1202.0078" y2="1202.0078"/><text fill="#000000" font-family="sans-serif" font-size="13" lengthAdjust="spacing" textLength="230.5088" x="65.9756" y="1197.1514">Isi produk &amp; jumlah rencana lalu simpan</text><polygon fill="#181818" points="633.9038,1228.3594,643.9038,1232.3594,633.9038,1236.3594,637.9038,1232.3594" style="stroke:#181818;stroke-width:1.0;"/><line style="stroke:#181818;stroke-width:1.0;" x1="313.4844" x2="639.9038" y1="1232.3594" y2="1232.3594"/><text fill="#000000" font-family="sans-serif" font-size="13" lengthAdjust="spacing" textLength="111.2681" x="320.4844" y="1227.5029">saveReadyToBuy()</text><line style="stroke:#181818;stroke-width:1.0;" x1="645.9038" x2="687.9038" y1="1262.7109" y2="1262.7109"/><line style="stroke:#181818;stroke-width:1.0;" x1="687.9038" x2="687.9038" y1="1262.7109" y2="1275.7109"/><line style="stroke:#181818;stroke-width:1.0;" x1="646.9038" x2="687.9038" y1="1275.7109" y2="1275.7109"/><polygon fill="#181818" points="656.9038,1271.7109,646.9038,1275.7109,656.9038,1279.7109,652.9038,1275.7109" style="stroke:#181818;stroke-width:1.0;"/><text fill="#000000" font-family="sans-serif" font-size="13" lengthAdjust="spacing" textLength="90.3335" x="652.9038" y="1257.8545">Cek stok bahan</text><path d="M233.8501,1290.7109 L294.021,1290.7109 L294.021,1299.0625 L284.021,1309.0625 L233.8501,1309.0625 L233.8501,1290.7109 " fill="#EEEEEE" style="stroke:#000000;stroke-width:1.5;"/><rect fill="none" height="216.2969" style="stroke:#000000;stroke-width:1.5;" width="1405.7036" x="233.8501" y="1290.7109"/><text fill="#000000" font-family="sans-serif" font-size="13" font-weight="bold" lengthAdjust="spacing" textLength="15.1709" x="248.8501" y="1305.2061">alt</text><text fill="#000000" font-family="sans-serif" font-size="11" font-weight="bold" lengthAdjust="spacing" textLength="95.3423" x="309.021" y="1304.1299">[Stok tidak cukup]</text><polygon fill="#181818" points="324.4844,1327.4141,314.4844,1331.4141,324.4844,1335.4141,320.4844,1331.4141" style="stroke:#181818;stroke-width:1.0;"/><line style="stroke:#181818;stroke-width:1.0;stroke-dasharray:2.0,2.0;" x1="318.4844" x2="644.9038" y1="1331.4141" y2="1331.4141"/><text fill="#000000" font-family="sans-serif" font-size="13" lengthAdjust="spacing" textLength="151.0425" x="330.4844" y="1326.5576">Pesan error bahan kurang</text><line style="stroke:#000000;stroke-width:1.0;stroke-dasharray:2.0,2.0;" x1="233.8501" x2="1639.5537" y1="1340.4141" y2="1340.4141"/><text fill="#000000" font-family="sans-serif" font-size="11" font-weight="bold" lengthAdjust="spacing" textLength="41.5454" x="238.8501" y="1351.833">[Cukup]</text><polygon fill="#181818" points="951.5273,1373.6016,961.5273,1377.6016,951.5273,1381.6016,955.5273,1377.6016" style="stroke:#181818;stroke-width:1.0;"/><line style="stroke:#181818;stroke-width:1.0;" x1="645.9038" x2="957.5273" y1="1377.6016" y2="1377.6016"/><text fill="#000000" font-family="sans-serif" font-size="13" lengthAdjust="spacing" textLength="255.6201" x="652.9038" y="1372.7451">Production::create(['method'=&gt;'siap_beli',...])</text><polygon fill="#181818" points="1584.5884,1403.9531,1594.5884,1407.9531,1584.5884,1411.9531,1588.5884,1407.9531" style="stroke:#181818;stroke-width:1.0;"/><line style="stroke:#181818;stroke-width:1.0;" x1="963.5273" x2="1590.5884" y1="1407.9531" y2="1407.9531"/><text fill="#000000" font-family="sans-serif" font-size="13" lengthAdjust="spacing" textLength="153.1563" x="970.5273" y="1403.0967">INSERT INTO productions</text><polygon fill="#181818" points="1102.375,1434.3047,1112.375,1438.3047,1102.375,1442.3047,1106.375,1438.3047" style="stroke:#181818;stroke-width:1.0;"/><line style="stroke:#181818;stroke-width:1.0;" x1="645.9038" x2="1108.375" y1="1438.3047" y2="1438.3047"/><text fill="#000000" font-family="sans-serif" font-size="13" lengthAdjust="spacing" textLength="161.1162" x="652.9038" y="1433.4482">ProductionDetail::insert([...])</text><polygon fill="#181818" points="1584.5884,1464.6563,1594.5884,1468.6563,1584.5884,1472.6563,1588.5884,1468.6563" style="stroke:#181818;stroke-width:1.0;"/><line style="stroke:#181818;stroke-width:1.0;" x1="1114.375" x2="1590.5884" y1="1468.6563" y2="1468.6563"/><text fill="#000000" font-family="sans-serif" font-size="13" lengthAdjust="spacing" textLength="191.4644" x="1121.375" y="1463.7998">INSERT INTO production_details</text><polygon fill="#181818" points="324.4844,1495.0078,314.4844,1499.0078,324.4844,1503.0078,320.4844,1499.0078" style="stroke:#181818;stroke-width:1.0;"/><line style="stroke:#181818;stroke-width:1.0;stroke-dasharray:2.0,2.0;" x1="318.4844" x2="644.9038" y1="1499.0078" y2="1499.0078"/><text fill="#000000" font-family="sans-serif" font-size="13" lengthAdjust="spacing" textLength="96.8081" x="330.4844" y="1494.1514">Notifikasi sukses</text><polygon fill="#181818" points="301.4844,1532.3594,311.4844,1536.3594,301.4844,1540.3594,305.4844,1536.3594" style="stroke:#181818;stroke-width:1.0;"/><line style="stroke:#181818;stroke-width:1.0;" x1="58.9756" x2="307.4844" y1="1536.3594" y2="1536.3594"/><text fill="#000000" font-family="sans-serif" font-size="13" lengthAdjust="spacing" textLength="197.2661" x="65.9756" y="1531.5029">Klik Selesaikan Produksi Siap Beli</text><polygon fill="#181818" points="633.9038,1562.7109,643.9038,1566.7109,633.9038,1570.7109,637.9038,1566.7109" style="stroke:#181818;stroke-width:1.0;"/><line style="stroke:#181818;stroke-width:1.0;" x1="313.4844" x2="639.9038" y1="1566.7109" y2="1566.7109"/><text fill="#000000" font-family="sans-serif" font-size="13" lengthAdjust="spacing" textLength="39.0063" x="320.4844" y="1561.8545">finish()</text><polygon fill="#181818" points="1584.5884,1593.0625,1594.5884,1597.0625,1584.5884,1601.0625,1588.5884,1597.0625" style="stroke:#181818;stroke-width:1.0;"/><line style="stroke:#181818;stroke-width:1.0;" x1="645.9038" x2="1590.5884" y1="1597.0625" y2="1597.0625"/><text fill="#000000" font-family="sans-serif" font-size="13" lengthAdjust="spacing" textLength="299.8569" x="652.9038" y="1592.2061">UPDATE products SET stock = stock + quantity_get</text><polygon fill="#181818" points="951.5273,1623.4141,961.5273,1627.4141,951.5273,1631.4141,955.5273,1627.4141" style="stroke:#181818;stroke-width:1.0;"/><line style="stroke:#181818;stroke-width:1.0;" x1="645.9038" x2="957.5273" y1="1627.4141" y2="1627.4141"/><text fill="#000000" font-family="sans-serif" font-size="13" lengthAdjust="spacing" textLength="237.9355" x="652.9038" y="1622.5576">$production-&gt;update(['status'=&gt;'Selesai'])</text><polygon fill="#181818" points="324.4844,1653.7656,314.4844,1657.7656,324.4844,1661.7656,320.4844,1657.7656" style="stroke:#181818;stroke-width:1.0;"/><line style="stroke:#181818;stroke-width:1.0;stroke-dasharray:2.0,2.0;" x1="318.4844" x2="644.9038" y1="1657.7656" y2="1657.7656"/><text fill="#000000" font-family="sans-serif" font-size="13" lengthAdjust="spacing" textLength="96.8081" x="330.4844" y="1652.9092">Notifikasi sukses</text><!--SRC=[hLPTRjj647xdAQP6K4fevFGn8201bgWWRYpRiEJs8IgCaRYMjbmkMUuoWIxG0_I8EKc6N95SyKTEWZnHd9rlPdRccu_IN0i6ZxFHxsyz-C14B13kqpZ8GiKT1xSwJk5YYZkEih9V02fuL2nr4amrt_84fOQBzoWmijpMSY3u9_QPf-nDajksciToMA3_vEppAVg-ybYlhwHEAQ4LwEOOoA2FvxCuIcB9fEwFjCW4jl65zKKqBEA0YG9G6mjR7y9d6hcmSCRGWLcWPdG5qKBGGI_eDjRycM-nKLnXDku1QjoWOd3X7t-PCgQECnx33T-ZBfjNZGd6OoSV9emcnLWyMB1eauK8PchayWODnidFSx_c03o8uapgmT1fdkJU_jI3vVncFbj1pGC5VznTtu9EKIeqbhNyw_tyOGvAeyuKZC5TC9d9tIvpr_BgreU8wNqSm2zqeZWcJnickEluKnXrrkJZiyOKZiL3mXHAkaIxnEhc3qm6p49KYq3TAqXJT-tUH6jtxuFWOTCvmG2h_6KJJrbOjl1LtQBhOEYSEkMm1XSzo-1vprm6T-axui_W5G-6euc8CHXyT8E2K-ho6DpzU-WqulGFwhNrydGCL3QzUOUSTbRRJZjpJPtu9ui4xc6FYcXVEe90aO7YKNAcFGe_iK5NGvgECnP2o6Y_50iuqeYKZaFGH1ZOu9uoE2WqB7DZyKv70OP4BhdDmYpX3a0pINM5Okh0qfHaqO33Z1YySvYWhIjYsd5472UmP7Lk27AHX30FhRZAVThP9WqL84uLIJYeB4d4uUdVZ1ZAzS6WJtpBCJxU-rUhEKH7dQdc1a0KTxfodYHiQfhdPGc92oCgbScVTaoxuydbvIMH2Q2_XWxsTELlyThQXD6aIc_4WHAxIoPe6jmjqlUmkLL2TsxBrHOaMeQLfKO-9gIVFiTemuNR6QZMOWzikVQyRShC1VGXONdvTbi8xxukErd7A4kxlbtE7rRqMDs1jAAgSrGrwKDQDA9Dg9Y2B__z3odjHCgsceYOYwEJio5NjqggbZbNfoIiFSgsejlJ0hVzp-lQ0yFWi8gdsO5sk2qBHWdWrr8VKbeY4ijl5eQJyD-e4QfIW5eGZ1GK-_lZCZ3hWR-WtHL3p6SkvqZzbQlOqKDqco8liltyfdD9uz63ZsSskplRcVNkPwLXO0VHZkiTsdzLNYORVG2vsdT-9zfwK2vul0rflytpDx05plcvElKTRVaA]--></g></svg>