<svg xmlns="http://www.w3.org/2000/svg" xmlns:xlink="http://www.w3.org/1999/xlink" contentStyleType="text/css" height="1318px" preserveAspectRatio="none" style="width:1167px;height:1318px;background:#FFFFFF;" version="1.1" viewBox="0 0 1167 1318" width="1167px" zoomAndPan="magnify"><title>UC-10: Kelola Shift Kasir</title><defs/><g><text fill="#000000" font-family="sans-serif" font-size="14" font-weight="bold" lengthAdjust="spacing" textLength="164.9238" x="502.167" y="29.5332">UC-10: Kelola Shift Kasir</text><rect fill="none" height="494.6484" style="stroke:#000000;stroke-width:1.5;" width="1150.2578" x="10" y="275.9766"/><rect fill="none" height="251.3516" style="stroke:#000000;stroke-width:1.5;" width="953.8369" x="196.4209" y="466.0859"/><line style="stroke:#181818;stroke-width:0.5;stroke-dasharray:5.0,5.0;" x1="38" x2="38" y1="121.2188" y2="1235.9531"/><line style="stroke:#181818;stroke-width:0.5;stroke-dasharray:5.0,5.0;" x1="277.4209" x2="277.4209" y1="121.2188" y2="1235.9531"/><line style="stroke:#181818;stroke-width:0.5;stroke-dasharray:5.0,5.0;" x1="553.1582" x2="553.1582" y1="121.2188" y2="1235.9531"/><line style="stroke:#181818;stroke-width:0.5;stroke-dasharray:5.0,5.0;" x1="850.3735" x2="850.3735" y1="121.2188" y2="1235.9531"/><line style="stroke:#181818;stroke-width:0.5;stroke-dasharray:5.0,5.0;" x1="1106.3271" x2="1106.3271" y1="121.2188" y2="1235.9531"/><text fill="#000000" font-family="sans-serif" font-size="14" lengthAdjust="spacing" textLength="31.8965" x="20" y="118.1426">Kasir</text><ellipse cx="38.9482" cy="52.1094" fill="#E2E2F0" rx="8" ry="8" style="stroke:#181818;stroke-width:0.5;"/><path d="M38.9482,60.1094 L38.9482,87.1094 M25.9482,68.1094 L51.9482,68.1094 M38.9482,87.1094 L25.9482,102.1094 M38.9482,87.1094 L51.9482,102.1094 " fill="none" style="stroke:#181818;stroke-width:0.5;"/><text fill="#000000" font-family="sans-serif" font-size="14" lengthAdjust="spacing" textLength="31.8965" x="20" y="1249.4863">Kasir</text><ellipse cx="38.9482" cy="1261.0625" fill="#E2E2F0" rx="8" ry="8" style="stroke:#181818;stroke-width:0.5;"/><path d="M38.9482,1269.0625 L38.9482,1296.0625 M25.9482,1277.0625 L51.9482,1277.0625 M38.9482,1296.0625 L25.9482,1311.0625 M38.9482,1296.0625 L51.9482,1311.0625 " fill="none" style="stroke:#181818;stroke-width:0.5;"/><rect fill="#E2E2F0" height="49.2188" rx="2.5" ry="2.5" style="stroke:#181818;stroke-width:0.5;" width="142.3721" x="206.4209" y="71"/><text fill="#000000" font-family="sans-serif" font-size="14" lengthAdjust="spacing" textLength="120.5996" x="217.3071" y="92.5332">Halaman Transaksi</text><text fill="#000000" font-family="sans-serif" font-size="14" lengthAdjust="spacing" textLength="128.3721" x="213.4209" y="110.1426">(livewire/transaction)</text><rect fill="#E2E2F0" height="49.2188" rx="2.5" ry="2.5" style="stroke:#181818;stroke-width:0.5;" width="142.3721" x="206.4209" y="1234.9531"/><text fill="#000000" font-family="sans-serif" font-size="14" lengthAdjust="spacing" textLength="120.5996" x="217.3071" y="1256.4863">Halaman Transaksi</text><text fill="#000000" font-family="sans-serif" font-size="14" lengthAdjust="spacing" textLength="128.3721" x="213.4209" y="1274.0957">(livewire/transaction)</text><rect fill="#E2E2F0" height="49.2188" rx="2.5" ry="2.5" style="stroke:#181818;stroke-width:0.5;" width="125.2822" x="491.1582" y="71"/><text fill="#000000" font-family="sans-serif" font-size="14" lengthAdjust="spacing" textLength="111.2822" x="498.1582" y="92.5332">Transaction\Index</text><text fill="#000000" font-family="sans-serif" font-size="14" lengthAdjust="spacing" textLength="60.6758" x="523.4614" y="110.1426">(Livewire)</text><rect fill="#E2E2F0" height="49.2188" rx="2.5" ry="2.5" style="stroke:#181818;stroke-width:0.5;" width="125.2822" x="491.1582" y="1234.9531"/><text fill="#000000" font-family="sans-serif" font-size="14" lengthAdjust="spacing" textLength="111.2822" x="498.1582" y="1256.4863">Transaction\Index</text><text fill="#000000" font-family="sans-serif" font-size="14" lengthAdjust="spacing" textLength="60.6758" x="523.4614" y="1274.0957">(Livewire)</text><rect fill="#E2E2F0" height="31.6094" rx="2.5" ry="2.5" style="stroke:#181818;stroke-width:0.5;" width="84.0342" x="808.3735" y="88.6094"/><text fill="#000000" font-family="sans-serif" font-size="14" lengthAdjust="spacing" textLength="70.0342" x="815.3735" y="110.1426">Shift Model</text><rect fill="#E2E2F0" height="31.6094" rx="2.5" ry="2.5" style="stroke:#181818;stroke-width:0.5;" width="84.0342" x="808.3735" y="1234.9531"/><text fill="#000000" font-family="sans-serif" font-size="14" lengthAdjust="spacing" textLength="70.0342" x="815.3735" y="1256.4863">Shift Model</text><text fill="#000000" font-family="sans-serif" font-size="14" lengthAdjust="spacing" textLength="59.9307" x="1074.3271" y="118.1426">Database</text><path d="M1089.2925,67.6094 C1089.2925,57.6094 1107.2925,57.6094 1107.2925,57.6094 C1107.2925,57.6094 1125.2925,57.6094 1125.2925,67.6094 L1125.2925,93.6094 C1125.2925,103.6094 1107.2925,103.6094 1107.2925,103.6094 C1107.2925,103.6094 1089.2925,103.6094 1089.2925,93.6094 L1089.2925,67.6094 " fill="#E2E2F0" style="stroke:#181818;stroke-width:1.5;"/><path d="M1089.2925,67.6094 C1089.2925,77.6094 1107.2925,77.6094 1107.2925,77.6094 C1107.2925,77.6094 1125.2925,77.6094 1125.2925,67.6094 " fill="none" style="stroke:#181818;stroke-width:1.5;"/><text fill="#000000" font-family="sans-serif" font-size="14" lengthAdjust="spacing" textLength="59.9307" x="1074.3271" y="1249.4863">Database</text><path d="M1089.2925,1262.5625 C1089.2925,1252.5625 1107.2925,1252.5625 1107.2925,1252.5625 C1107.2925,1252.5625 1125.2925,1252.5625 1125.2925,1262.5625 L1125.2925,1288.5625 C1125.2925,1298.5625 1107.2925,1298.5625 1107.2925,1298.5625 C1107.2925,1298.5625 1089.2925,1298.5625 1089.2925,1288.5625 L1089.2925,1262.5625 " fill="#E2E2F0" style="stroke:#181818;stroke-width:1.5;"/><path d="M1089.2925,1262.5625 C1089.2925,1272.5625 1107.2925,1272.5625 1107.2925,1272.5625 C1107.2925,1272.5625 1125.2925,1272.5625 1125.2925,1262.5625 " fill="none" style="stroke:#181818;stroke-width:1.5;"/><polygon fill="#181818" points="265.6069,149.5703,275.6069,153.5703,265.6069,157.5703,269.6069,153.5703" style="stroke:#181818;stroke-width:1.0;"/><line style="stroke:#181818;stroke-width:1.0;" x1="38.9482" x2="271.6069" y1="153.5703" y2="153.5703"/><text fill="#000000" font-family="sans-serif" font-size="13" lengthAdjust="spacing" textLength="147.3799" x="45.9482" y="148.7139">Membuka /kasir/transaksi</text><polygon fill="#181818" points="541.7993,179.9219,551.7993,183.9219,541.7993,187.9219,545.7993,183.9219" style="stroke:#181818;stroke-width:1.0;"/><line style="stroke:#181818;stroke-width:1.0;" x1="277.6069" x2="547.7993" y1="183.9219" y2="183.9219"/><text fill="#000000" font-family="sans-serif" font-size="13" lengthAdjust="spacing" textLength="44.7891" x="284.6069" y="179.0654">mount()</text><polygon fill="#181818" points="1095.2925,226.625,1105.2925,230.625,1095.2925,234.625,1099.2925,230.625" style="stroke:#181818;stroke-width:1.0;"/><line style="stroke:#181818;stroke-width:1.0;" x1="553.7993" x2="1101.2925" y1="230.625" y2="230.625"/><text fill="#000000" font-family="sans-serif" font-size="13" lengthAdjust="spacing" textLength="219.8828" x="560.7993" y="209.417">SELECT shifts WHERE status = 'Aktif'</text><text fill="#000000" font-family="sans-serif" font-size="13" lengthAdjust="spacing" textLength="174.8716" x="560.7993" y="225.7686">AND opened_by = auth()-&gt;id()</text><polygon fill="#181818" points="564.7993,256.9766,554.7993,260.9766,564.7993,264.9766,560.7993,260.9766" style="stroke:#181818;stroke-width:1.0;"/><line style="stroke:#181818;stroke-width:1.0;stroke-dasharray:2.0,2.0;" x1="558.7993" x2="1106.2925" y1="260.9766" y2="260.9766"/><text fill="#000000" font-family="sans-serif" font-size="13" lengthAdjust="spacing" textLength="106.228" x="570.7993" y="256.1201">Shift aktif atau null</text><path d="M10,275.9766 L70.1709,275.9766 L70.1709,284.3281 L60.1709,294.3281 L10,294.3281 L10,275.9766 " fill="#EEEEEE" style="stroke:#000000;stroke-width:1.5;"/><rect fill="none" height="494.6484" style="stroke:#000000;stroke-width:1.5;" width="1150.2578" x="10" y="275.9766"/><text fill="#000000" font-family="sans-serif" font-size="13" font-weight="bold" lengthAdjust="spacing" textLength="15.1709" x="25" y="290.4717">alt</text><text fill="#000000" font-family="sans-serif" font-size="11" font-weight="bold" lengthAdjust="spacing" textLength="110.0161" x="85.1709" y="289.3955">[Tidak ada shift aktif]</text><polygon fill="#181818" points="288.6069,312.6797,278.6069,316.6797,288.6069,320.6797,284.6069,316.6797" style="stroke:#181818;stroke-width:1.0;"/><line style="stroke:#181818;stroke-width:1.0;stroke-dasharray:2.0,2.0;" x1="282.6069" x2="552.7993" y1="316.6797" y2="316.6797"/><text fill="#000000" font-family="sans-serif" font-size="13" lengthAdjust="spacing" textLength="192.9243" x="294.6069" y="311.8232">Tampilkan modal Buka Shift Baru</text><polygon fill="#181818" points="265.6069,343.0313,275.6069,347.0313,265.6069,351.0313,269.6069,347.0313" style="stroke:#181818;stroke-width:1.0;"/><line style="stroke:#181818;stroke-width:1.0;" x1="38.9482" x2="271.6069" y1="347.0313" y2="347.0313"/><text fill="#000000" font-family="sans-serif" font-size="13" lengthAdjust="spacing" textLength="106.209" x="45.9482" y="342.1748">Isi modal awal kas</text><polygon fill="#181818" points="265.6069,373.3828,275.6069,377.3828,265.6069,381.3828,269.6069,377.3828" style="stroke:#181818;stroke-width:1.0;"/><line style="stroke:#181818;stroke-width:1.0;" x1="38.9482" x2="271.6069" y1="377.3828" y2="377.3828"/><text fill="#000000" font-family="sans-serif" font-size="13" lengthAdjust="spacing" textLength="83.8145" x="45.9482" y="372.5264">Klik Buka Shift</text><polygon fill="#181818" points="541.7993,403.7344,551.7993,407.7344,541.7993,411.7344,545.7993,407.7344" style="stroke:#181818;stroke-width:1.0;"/><line style="stroke:#181818;stroke-width:1.0;" x1="277.6069" x2="547.7993" y1="407.7344" y2="407.7344"/><text fill="#000000" font-family="sans-serif" font-size="13" lengthAdjust="spacing" textLength="130.7935" x="284.6069" y="402.8779">openShift($initialCash)</text><line style="stroke:#181818;stroke-width:1.0;" x1="553.7993" x2="595.7993" y1="438.0859" y2="438.0859"/><line style="stroke:#181818;stroke-width:1.0;" x1="595.7993" x2="595.7993" y1="438.0859" y2="451.0859"/><line style="stroke:#181818;stroke-width:1.0;" x1="554.7993" x2="595.7993" y1="451.0859" y2="451.0859"/><polygon fill="#181818" points="564.7993,447.0859,554.7993,451.0859,564.7993,455.0859,560.7993,451.0859" style="stroke:#181818;stroke-width:1.0;"/><text fill="#000000" font-family="sans-serif" font-size="13" lengthAdjust="spacing" textLength="282.5913" x="560.7993" y="433.2295">validate(['initial_cash'=&gt;'required|numeric|min:0'])</text><path d="M196.4209,466.0859 L256.5918,466.0859 L256.5918,474.4375 L246.5918,484.4375 L196.4209,484.4375 L196.4209,466.0859 " fill="#EEEEEE" style="stroke:#000000;stroke-width:1.5;"/><rect fill="none" height="251.3516" style="stroke:#000000;stroke-width:1.5;" width="953.8369" x="196.4209" y="466.0859"/><text fill="#000000" font-family="sans-serif" font-size="13" font-weight="bold" lengthAdjust="spacing" textLength="15.1709" x="211.4209" y="480.5811">alt</text><text fill="#000000" font-family="sans-serif" font-size="11" font-weight="bold" lengthAdjust="spacing" textLength="80.6899" x="271.5918" y="479.5049">[Validasi gagal]</text><polygon fill="#181818" points="288.6069,502.7891,278.6069,506.7891,288.6069,510.7891,284.6069,506.7891" style="stroke:#181818;stroke-width:1.0;"/><line style="stroke:#181818;stroke-width:1.0;stroke-dasharray:2.0,2.0;" x1="282.6069" x2="552.7993" y1="506.7891" y2="506.7891"/><text fill="#000000" font-family="sans-serif" font-size="13" lengthAdjust="spacing" textLength="99.7407" x="294.6069" y="501.9326">Pesan kesalahan</text><line style="stroke:#000000;stroke-width:1.0;stroke-dasharray:2.0,2.0;" x1="196.4209" x2="1150.2578" y1="515.7891" y2="515.7891"/><text fill="#000000" font-family="sans-serif" font-size="11" font-weight="bold" lengthAdjust="spacing" textLength="50.7354" x="201.4209" y="527.208">[Berhasil]</text><polygon fill="#181818" points="838.3906,614.3828,848.3906,618.3828,838.3906,622.3828,842.3906,618.3828" style="stroke:#181818;stroke-width:1.0;"/><line style="stroke:#181818;stroke-width:1.0;" x1="553.7993" x2="844.3906" y1="618.3828" y2="618.3828"/><text fill="#000000" font-family="sans-serif" font-size="13" lengthAdjust="spacing" textLength="187.0527" x="560.7993" y="548.1201">Shift::create(['shift_number'=&gt;...,</text><text fill="#000000" font-family="sans-serif" font-size="13" lengthAdjust="spacing" textLength="131.46" x="560.7993" y="564.4717">'opened_by'=&gt;$userId,</text><text fill="#000000" font-family="sans-serif" font-size="13" lengthAdjust="spacing" textLength="113.3374" x="560.7993" y="580.8232">'start_time'=&gt;now(),</text><text fill="#000000" font-family="sans-serif" font-size="13" lengthAdjust="spacing" textLength="138.6646" x="560.7993" y="597.1748">'initial_cash'=&gt;$amount,</text><text fill="#000000" font-family="sans-serif" font-size="13" lengthAdjust="spacing" textLength="93.0186" x="560.7993" y="613.5264">'status'=&gt;'Aktif'])</text><polygon fill="#181818" points="1095.2925,644.7344,1105.2925,648.7344,1095.2925,652.7344,1099.2925,648.7344" style="stroke:#181818;stroke-width:1.0;"/><line style="stroke:#181818;stroke-width:1.0;" x1="850.3906" x2="1101.2925" y1="648.7344" y2="648.7344"/><text fill="#000000" font-family="sans-serif" font-size="13" lengthAdjust="spacing" textLength="116.2891" x="857.3906" y="643.8779">INSERT INTO shifts</text><polygon fill="#181818" points="861.3906,675.0859,851.3906,679.0859,861.3906,683.0859,857.3906,679.0859" style="stroke:#181818;stroke-width:1.0;"/><line style="stroke:#181818;stroke-width:1.0;stroke-dasharray:2.0,2.0;" x1="855.3906" x2="1106.2925" y1="679.0859" y2="679.0859"/><text fill="#000000" font-family="sans-serif" font-size="13" lengthAdjust="spacing" textLength="55.6436" x="867.3906" y="674.2295">Shift baru</text><polygon fill="#181818" points="288.6069,705.4375,278.6069,709.4375,288.6069,713.4375,284.6069,709.4375" style="stroke:#181818;stroke-width:1.0;"/><line style="stroke:#181818;stroke-width:1.0;stroke-dasharray:2.0,2.0;" x1="282.6069" x2="552.7993" y1="709.4375" y2="709.4375"/><text fill="#000000" font-family="sans-serif" font-size="13" lengthAdjust="spacing" textLength="184.9707" x="294.6069" y="704.5811">Tampil halaman daftar transaksi</text><line style="stroke:#000000;stroke-width:1.0;stroke-dasharray:2.0,2.0;" x1="10" x2="1160.2578" y1="725.4375" y2="725.4375"/><text fill="#000000" font-family="sans-serif" font-size="11" font-weight="bold" lengthAdjust="spacing" textLength="80.0562" x="15" y="736.8564">[Ada shift aktif]</text><polygon fill="#181818" points="288.6069,758.625,278.6069,762.625,288.6069,766.625,284.6069,762.625" style="stroke:#181818;stroke-width:1.0;"/><line style="stroke:#181818;stroke-width:1.0;stroke-dasharray:2.0,2.0;" x1="282.6069" x2="552.7993" y1="762.625" y2="762.625"/><text fill="#000000" font-family="sans-serif" font-size="13" lengthAdjust="spacing" textLength="181.3589" x="294.6069" y="757.7686">Tampil daftar transaksi berjalan</text><polygon fill="#181818" points="265.6069,812.3281,275.6069,816.3281,265.6069,820.3281,269.6069,816.3281" style="stroke:#181818;stroke-width:1.0;"/><line style="stroke:#181818;stroke-width:1.0;" x1="38.9482" x2="271.6069" y1="816.3281" y2="816.3281"/><text fill="#000000" font-family="sans-serif" font-size="13" lengthAdjust="spacing" textLength="214.6587" x="45.9482" y="795.1201">Mengelola pesanan dan pembayaran</text><text fill="#000000" font-family="sans-serif" font-size="13" lengthAdjust="spacing" textLength="119.228" x="45.9482" y="811.4717">selama shift berjalan</text><polygon fill="#181818" points="265.6069,842.6797,275.6069,846.6797,265.6069,850.6797,269.6069,846.6797" style="stroke:#181818;stroke-width:1.0;"/><line style="stroke:#181818;stroke-width:1.0;" x1="38.9482" x2="271.6069" y1="846.6797" y2="846.6797"/><text fill="#000000" font-family="sans-serif" font-size="13" lengthAdjust="spacing" textLength="87.4263" x="45.9482" y="841.8232">Klik Tutup Shift</text><polygon fill="#181818" points="541.7993,873.0313,551.7993,877.0313,541.7993,881.0313,545.7993,877.0313" style="stroke:#181818;stroke-width:1.0;"/><line style="stroke:#181818;stroke-width:1.0;" x1="277.6069" x2="547.7993" y1="877.0313" y2="877.0313"/><text fill="#000000" font-family="sans-serif" font-size="13" lengthAdjust="spacing" textLength="111.2681" x="284.6069" y="872.1748">requestCloseShift()</text><polygon fill="#181818" points="1095.2925,919.7344,1105.2925,923.7344,1095.2925,927.7344,1099.2925,923.7344" style="stroke:#181818;stroke-width:1.0;"/><line style="stroke:#181818;stroke-width:1.0;" x1="553.7993" x2="1101.2925" y1="923.7344" y2="923.7344"/><text fill="#000000" font-family="sans-serif" font-size="13" lengthAdjust="spacing" textLength="268.7534" x="560.7993" y="902.5264">SELECT SUM(paid_amount) FROM payments</text><text fill="#000000" font-family="sans-serif" font-size="13" lengthAdjust="spacing" textLength="115.2354" x="560.7993" y="918.8779">WHERE shift_id = ?</text><polygon fill="#181818" points="564.7993,950.0859,554.7993,954.0859,564.7993,958.0859,560.7993,954.0859" style="stroke:#181818;stroke-width:1.0;"/><line style="stroke:#181818;stroke-width:1.0;stroke-dasharray:2.0,2.0;" x1="558.7993" x2="1106.2925" y1="954.0859" y2="954.0859"/><text fill="#000000" font-family="sans-serif" font-size="13" lengthAdjust="spacing" textLength="88.8989" x="570.7993" y="949.2295">Total penjualan</text><polygon fill="#181818" points="288.6069,996.7891,278.6069,1000.7891,288.6069,1004.7891,284.6069,1000.7891" style="stroke:#181818;stroke-width:1.0;"/><line style="stroke:#181818;stroke-width:1.0;stroke-dasharray:2.0,2.0;" x1="282.6069" x2="552.7993" y1="1000.7891" y2="1000.7891"/><text fill="#000000" font-family="sans-serif" font-size="13" lengthAdjust="spacing" textLength="189.2871" x="294.6069" y="979.5811">Tampil konfirmasi ringkasan shift</text><text fill="#000000" font-family="sans-serif" font-size="13" lengthAdjust="spacing" textLength="252.1924" x="294.6069" y="995.9326">(total transaksi, total pendapatan, kas akhir)</text><polygon fill="#181818" points="265.6069,1027.1406,275.6069,1031.1406,265.6069,1035.1406,269.6069,1031.1406" style="stroke:#181818;stroke-width:1.0;"/><line style="stroke:#181818;stroke-width:1.0;" x1="38.9482" x2="271.6069" y1="1031.1406" y2="1031.1406"/><text fill="#000000" font-family="sans-serif" font-size="13" lengthAdjust="spacing" textLength="121.3862" x="45.9482" y="1026.2842">Konfirmasi tutup shift</text><polygon fill="#181818" points="541.7993,1057.4922,551.7993,1061.4922,541.7993,1065.4922,545.7993,1061.4922" style="stroke:#181818;stroke-width:1.0;"/><line style="stroke:#181818;stroke-width:1.0;" x1="277.6069" x2="547.7993" y1="1061.4922" y2="1061.4922"/><text fill="#000000" font-family="sans-serif" font-size="13" lengthAdjust="spacing" textLength="65.019" x="284.6069" y="1056.6357">closeShift()</text><polygon fill="#181818" points="838.3906,1153.25,848.3906,1157.25,838.3906,1161.25,842.3906,1157.25" style="stroke:#181818;stroke-width:1.0;"/><line style="stroke:#181818;stroke-width:1.0;" x1="553.7993" x2="844.3906" y1="1157.25" y2="1157.25"/><text fill="#000000" font-family="sans-serif" font-size="13" lengthAdjust="spacing" textLength="195.292" x="560.7993" y="1086.9873">$shift-&gt;update(['status'=&gt;'Ditutup',</text><text fill="#000000" font-family="sans-serif" font-size="13" lengthAdjust="spacing" textLength="109.7446" x="560.7993" y="1103.3389">'end_time'=&gt;now(),</text><text fill="#000000" font-family="sans-serif" font-size="13" lengthAdjust="spacing" textLength="125.6582" x="560.7993" y="1119.6904">'closed_by'=&gt;$userId,</text><text fill="#000000" font-family="sans-serif" font-size="13" lengthAdjust="spacing" textLength="117.7109" x="560.7993" y="1136.042">'total_sales'=&gt;$total,</text><text fill="#000000" font-family="sans-serif" font-size="13" lengthAdjust="spacing" textLength="148.0527" x="560.7993" y="1152.3936">'final_cash'=&gt;$finalCash])</text><polygon fill="#181818" points="1095.2925,1183.6016,1105.2925,1187.6016,1095.2925,1191.6016,1099.2925,1187.6016" style="stroke:#181818;stroke-width:1.0;"/><line style="stroke:#181818;stroke-width:1.0;" x1="850.3906" x2="1101.2925" y1="1187.6016" y2="1187.6016"/><text fill="#000000" font-family="sans-serif" font-size="13" lengthAdjust="spacing" textLength="232.9019" x="857.3906" y="1182.7451">UPDATE shifts SET status = 'Ditutup', ...</text><polygon fill="#181818" points="288.6069,1213.9531,278.6069,1217.9531,288.6069,1221.9531,284.6069,1217.9531" style="stroke:#181818;stroke-width:1.0;"/><line style="stroke:#181818;stroke-width:1.0;stroke-dasharray:2.0,2.0;" x1="282.6069" x2="552.7993" y1="1217.9531" y2="1217.9531"/><text fill="#000000" font-family="sans-serif" font-size="13" lengthAdjust="spacing" textLength="193.6606" x="294.6069" y="1213.0967">Redirect ke halaman laporan shift</text><!--SRC=[bLJlRzem4FsUl-9K8GMaqdPVaSR4hwcefQqWT1_6X8x4W1l7oModh5B_-9sT462XbVObOFlk_ExTUpRS20RpGVlBJGVkc4W5mcpBrmRkK7FbUHYQLC65Mrq0QfXhfhmCbU4Xpr0QkBX5WGbA21HAZR7c2zaK_9Njk6BNncs6XgUovVAVETkTvWU7aCLYB2FsXmhSbmMAf46QPAbaqfnc5aWdQSI42tDhj_GYDBX2pU1YMFvp4SE-vzaEeDrrI3emOSagZn6kOzjYYPUQyEon3Qlkxa2Ivj8qMrwrPS-7_GxCHlUZGG3Qtg_Xn-reEW9jqEGQleBVYmrV-mlPUnX2cZ79ekNgZGumDzjcgztb4TKSzg5zUblH7Tfae1voaBaGD15X8E0Hne0H5bSMGHx04R2gmG2JZ8kO1fIa4GhesswBsdrKEMMT4ZBMl8p47Ns8bbh8dU3nKHsF0iwmPLjrvyq6bznm50FKszOfp9ECLnJKc67DdtwPiGmfnV_QzHNxdPCSedUP9qpny3tXidFZ_xBbB2FFBfMWRt23WZRFa_74D14HqrVW5YN5CK4YwJErfUHQNlT8KkL0EfrGiGAZutv9W5PC4SQhgwlBXVIh2TDM8oVUnf7T9ZaeipGyORGlqrspPNV_QRE1Jc9bFCd7jbx8ntKAHtZssXi_p4RJW7w2nrA0Bh3KKmq_h8gXVoOMs9QMZd1DiE5W2k9BHfxZhFSVwgiL0gBiXIwHdgrNiwJS54zHPiVbS4Zwdwpm3Qd2GcfcyPNNLwMyCoeDSfDdfKpFQDJAYcap4AbcXLO_TlTiFcbcoADbCQGMV9y-JY33juHYzKAMjdUYu17v-ziPKmUf8LEHH5voX_aJpk9KhhbAhAWLbnio8h7WojFxQ5oTYizBCFl24MRqMiXBwrmQpPQhLesPGsNZ-D4VyHD-IConi1eklztDizAz1_4EkRl1jv8cR3K3k0lgRd7TBCcbp5PfkANTNtDvv1QtieyAcQDkZFdJi1UCze_oR1GSFSaLB23NdXt2b4NqteI67elA3WApLEs7uFq5]--></g></svg>