<svg xmlns="http://www.w3.org/2000/svg" xmlns:xlink="http://www.w3.org/1999/xlink" contentStyleType="text/css" height="1579px" preserveAspectRatio="none" style="width:1635px;height:1579px;background:#FFFFFF;" version="1.1" viewBox="0 0 1635 1579" width="1635px" zoomAndPan="magnify"><title>UC-07: Kelola Produk dan Komposisi</title><defs/><g><text fill="#000000" font-family="sans-serif" font-size="14" font-weight="bold" lengthAdjust="spacing" textLength="247.3721" x="689.844" y="29.5332">UC-07: Kelola Produk dan Komposisi</text><rect fill="none" height="493.4609" style="stroke:#000000;stroke-width:1.5;" width="1301.4888" x="316.5713" y="503.7891"/><rect fill="none" height="79.0547" style="stroke:#000000;stroke-width:1.5;" width="1016.686" x="591.374" y="727.0859"/><rect fill="none" height="79.0547" style="stroke:#000000;stroke-width:1.5;" width="1016.686" x="591.374" y="820.1406"/><line style="stroke:#181818;stroke-width:0.5;stroke-dasharray:5.0,5.0;" x1="58" x2="58" y1="121.2188" y2="1497.5234"/><line style="stroke:#181818;stroke-width:0.5;stroke-dasharray:5.0,5.0;" x1="386.5713" x2="386.5713" y1="121.2188" y2="1497.5234"/><line style="stroke:#181818;stroke-width:0.5;stroke-dasharray:5.0,5.0;" x1="650.374" x2="650.374" y1="121.2188" y2="1497.5234"/><line style="stroke:#181818;stroke-width:0.5;stroke-dasharray:5.0,5.0;" x1="852.5811" x2="852.5811" y1="121.2188" y2="1497.5234"/><line style="stroke:#181818;stroke-width:0.5;stroke-dasharray:5.0,5.0;" x1="1057.2617" x2="1057.2617" y1="121.2188" y2="1497.5234"/><line style="stroke:#181818;stroke-width:0.5;stroke-dasharray:5.0,5.0;" x1="1217.3438" x2="1217.3438" y1="121.2188" y2="1497.5234"/><line style="stroke:#181818;stroke-width:0.5;stroke-dasharray:5.0,5.0;" x1="1344.1641" x2="1344.1641" y1="121.2188" y2="1497.5234"/><line style="stroke:#181818;stroke-width:0.5;stroke-dasharray:5.0,5.0;" x1="1564.1294" x2="1564.1294" y1="121.2188" y2="1497.5234"/><text fill="#000000" font-family="sans-serif" font-size="14" lengthAdjust="spacing" textLength="101.1787" x="5" y="118.1426">Bagian Inventori</text><ellipse cx="58.5894" cy="52.1094" fill="#E2E2F0" rx="8" ry="8" style="stroke:#181818;stroke-width:0.5;"/><path d="M58.5894,60.1094 L58.5894,87.1094 M45.5894,68.1094 L71.5894,68.1094 M58.5894,87.1094 L45.5894,102.1094 M58.5894,87.1094 L71.5894,102.1094 " fill="none" style="stroke:#181818;stroke-width:0.5;"/><text fill="#000000" font-family="sans-serif" font-size="14" lengthAdjust="spacing" textLength="101.1787" x="5" y="1511.0566">Bagian Inventori</text><ellipse cx="58.5894" cy="1522.6328" fill="#E2E2F0" rx="8" ry="8" style="stroke:#181818;stroke-width:0.5;"/><path d="M58.5894,1530.6328 L58.5894,1557.6328 M45.5894,1538.6328 L71.5894,1538.6328 M58.5894,1557.6328 L45.5894,1572.6328 M58.5894,1557.6328 L71.5894,1572.6328 " fill="none" style="stroke:#181818;stroke-width:0.5;"/><rect fill="#E2E2F0" height="49.2188" rx="2.5" ry="2.5" style="stroke:#181818;stroke-width:0.5;" width="120.5859" x="326.5713" y="71"/><text fill="#000000" font-family="sans-serif" font-size="14" lengthAdjust="spacing" textLength="104.2754" x="334.7266" y="92.5332">Halaman Produk</text><text fill="#000000" font-family="sans-serif" font-size="14" lengthAdjust="spacing" textLength="106.5859" x="333.5713" y="110.1426">(livewire/product)</text><rect fill="#E2E2F0" height="49.2188" rx="2.5" ry="2.5" style="stroke:#181818;stroke-width:0.5;" width="120.5859" x="326.5713" y="1496.5234"/><text fill="#000000" font-family="sans-serif" font-size="14" lengthAdjust="spacing" textLength="104.2754" x="334.7266" y="1518.0566">Halaman Produk</text><text fill="#000000" font-family="sans-serif" font-size="14" lengthAdjust="spacing" textLength="106.5859" x="333.5713" y="1535.666">(livewire/product)</text><rect fill="#E2E2F0" height="49.2188" rx="2.5" ry="2.5" style="stroke:#181818;stroke-width:0.5;" width="98.7998" x="601.374" y="71"/><text fill="#000000" font-family="sans-serif" font-size="14" lengthAdjust="spacing" textLength="84.7998" x="608.374" y="92.5332">Product\Form</text><text fill="#000000" font-family="sans-serif" font-size="14" lengthAdjust="spacing" textLength="60.6758" x="620.436" y="110.1426">(Livewire)</text><rect fill="#E2E2F0" height="49.2188" rx="2.5" ry="2.5" style="stroke:#181818;stroke-width:0.5;" width="98.7998" x="601.374" y="1496.5234"/><text fill="#000000" font-family="sans-serif" font-size="14" lengthAdjust="spacing" textLength="84.7998" x="608.374" y="1518.0566">Product\Form</text><text fill="#000000" font-family="sans-serif" font-size="14" lengthAdjust="spacing" textLength="60.6758" x="620.436" y="1535.666">(Livewire)</text><rect fill="#E2E2F0" height="31.6094" rx="2.5" ry="2.5" style="stroke:#181818;stroke-width:0.5;" width="104.2686" x="800.5811" y="88.6094"/><text fill="#000000" font-family="sans-serif" font-size="14" lengthAdjust="spacing" textLength="90.2686" x="807.5811" y="110.1426">Product Model</text><rect fill="#E2E2F0" height="31.6094" rx="2.5" ry="2.5" style="stroke:#181818;stroke-width:0.5;" width="104.2686" x="800.5811" y="1496.5234"/><text fill="#000000" font-family="sans-serif" font-size="14" lengthAdjust="spacing" textLength="90.2686" x="807.5811" y="1518.0566">Product Model</text><rect fill="#E2E2F0" height="31.6094" rx="2.5" ry="2.5" style="stroke:#181818;stroke-width:0.5;" width="182.082" x="966.2617" y="88.6094"/><text fill="#000000" font-family="sans-serif" font-size="14" lengthAdjust="spacing" textLength="168.082" x="973.2617" y="110.1426">ProductComposition Model</text><rect fill="#E2E2F0" height="31.6094" rx="2.5" ry="2.5" style="stroke:#181818;stroke-width:0.5;" width="182.082" x="966.2617" y="1496.5234"/><text fill="#000000" font-family="sans-serif" font-size="14" lengthAdjust="spacing" textLength="168.082" x="973.2617" y="1518.0566">ProductComposition Model</text><rect fill="#E2E2F0" height="31.6094" rx="2.5" ry="2.5" style="stroke:#181818;stroke-width:0.5;" width="119.8203" x="1158.3438" y="88.6094"/><text fill="#000000" font-family="sans-serif" font-size="14" lengthAdjust="spacing" textLength="105.8203" x="1165.3438" y="110.1426">OtherCost Model</text><rect fill="#E2E2F0" height="31.6094" rx="2.5" ry="2.5" style="stroke:#181818;stroke-width:0.5;" width="119.8203" x="1158.3438" y="1496.5234"/><text fill="#000000" font-family="sans-serif" font-size="14" lengthAdjust="spacing" textLength="105.8203" x="1165.3438" y="1518.0566">OtherCost Model</text><rect fill="#E2E2F0" height="31.6094" rx="2.5" ry="2.5" style="stroke:#181818;stroke-width:0.5;" width="112.8271" x="1288.1641" y="88.6094"/><text fill="#000000" font-family="sans-serif" font-size="14" lengthAdjust="spacing" textLength="98.8271" x="1295.1641" y="110.1426">Category Model</text><rect fill="#E2E2F0" height="31.6094" rx="2.5" ry="2.5" style="stroke:#181818;stroke-width:0.5;" width="112.8271" x="1288.1641" y="1496.5234"/><text fill="#000000" font-family="sans-serif" font-size="14" lengthAdjust="spacing" textLength="98.8271" x="1295.1641" y="1518.0566">Category Model</text><text fill="#000000" font-family="sans-serif" font-size="14" lengthAdjust="spacing" textLength="59.9307" x="1532.1294" y="118.1426">Database</text><path d="M1547.0947,67.6094 C1547.0947,57.6094 1565.0947,57.6094 1565.0947,57.6094 C1565.0947,57.6094 1583.0947,57.6094 1583.0947,67.6094 L1583.0947,93.6094 C1583.0947,103.6094 1565.0947,103.6094 1565.0947,103.6094 C1565.0947,103.6094 1547.0947,103.6094 1547.0947,93.6094 L1547.0947,67.6094 " fill="#E2E2F0" style="stroke:#181818;stroke-width:1.5;"/><path d="M1547.0947,67.6094 C1547.0947,77.6094 1565.0947,77.6094 1565.0947,77.6094 C1565.0947,77.6094 1583.0947,77.6094 1583.0947,67.6094 " fill="none" style="stroke:#181818;stroke-width:1.5;"/><text fill="#000000" font-family="sans-serif" font-size="14" lengthAdjust="spacing" textLength="59.9307" x="1532.1294" y="1511.0566">Database</text><path d="M1547.0947,1524.1328 C1547.0947,1514.1328 1565.0947,1514.1328 1565.0947,1514.1328 C1565.0947,1514.1328 1583.0947,1514.1328 1583.0947,1524.1328 L1583.0947,1550.1328 C1583.0947,1560.1328 1565.0947,1560.1328 1565.0947,1560.1328 C1565.0947,1560.1328 1547.0947,1560.1328 1547.0947,1550.1328 L1547.0947,1524.1328 " fill="#E2E2F0" style="stroke:#181818;stroke-width:1.5;"/><path d="M1547.0947,1524.1328 C1547.0947,1534.1328 1565.0947,1534.1328 1565.0947,1534.1328 C1565.0947,1534.1328 1583.0947,1534.1328 1583.0947,1524.1328 " fill="none" style="stroke:#181818;stroke-width:1.5;"/><polygon fill="#181818" points="374.8643,149.5703,384.8643,153.5703,374.8643,157.5703,378.8643,153.5703" style="stroke:#181818;stroke-width:1.0;"/><line style="stroke:#181818;stroke-width:1.0;" x1="58.5894" x2="380.8643" y1="153.5703" y2="153.5703"/><text fill="#000000" font-family="sans-serif" font-size="13" lengthAdjust="spacing" textLength="237.3706" x="65.5894" y="148.7139">Membuka /produk &#8594; klik Tambah Produk</text><polygon fill="#181818" points="638.7739,179.9219,648.7739,183.9219,638.7739,187.9219,642.7739,183.9219" style="stroke:#181818;stroke-width:1.0;"/><line style="stroke:#181818;stroke-width:1.0;" x1="386.8643" x2="644.7739" y1="183.9219" y2="183.9219"/><text fill="#000000" font-family="sans-serif" font-size="13" lengthAdjust="spacing" textLength="44.7891" x="393.8643" y="179.0654">mount()</text><polygon fill="#181818" points="1553.0947,210.2734,1563.0947,214.2734,1553.0947,218.2734,1557.0947,214.2734" style="stroke:#181818;stroke-width:1.0;"/><line style="stroke:#181818;stroke-width:1.0;" x1="650.7739" x2="1559.0947" y1="214.2734" y2="214.2734"/><text fill="#000000" font-family="sans-serif" font-size="13" lengthAdjust="spacing" textLength="278.1733" x="657.7739" y="209.417">SELECT categories, materials, units, type_costs</text><polygon fill="#181818" points="661.7739,240.625,651.7739,244.625,661.7739,248.625,657.7739,244.625" style="stroke:#181818;stroke-width:1.0;"/><line style="stroke:#181818;stroke-width:1.0;stroke-dasharray:2.0,2.0;" x1="655.7739" x2="1564.0947" y1="244.625" y2="244.625"/><text fill="#000000" font-family="sans-serif" font-size="13" lengthAdjust="spacing" textLength="81.6499" x="667.7739" y="239.7686">Data referensi</text><polygon fill="#181818" points="397.8643,270.9766,387.8643,274.9766,397.8643,278.9766,393.8643,274.9766" style="stroke:#181818;stroke-width:1.0;"/><line style="stroke:#181818;stroke-width:1.0;stroke-dasharray:2.0,2.0;" x1="391.8643" x2="649.7739" y1="274.9766" y2="274.9766"/><text fill="#000000" font-family="sans-serif" font-size="13" lengthAdjust="spacing" textLength="111.979" x="403.8643" y="270.1201">Tampil form produk</text><rect fill="#EEEEEE" height="3" style="stroke:#EEEEEE;stroke-width:1.0;" width="1628.0601" x="0" y="304.1523"/><line style="stroke:#000000;stroke-width:1.0;" x1="0" x2="1628.0601" y1="304.1523" y2="304.1523"/><line style="stroke:#000000;stroke-width:1.0;" x1="0" x2="1628.0601" y1="307.1523" y2="307.1523"/><rect fill="#EEEEEE" height="24.3516" style="stroke:#000000;stroke-width:2.0;" width="115.8481" x="756.106" y="292.9766"/><text fill="#000000" font-family="sans-serif" font-size="13" font-weight="bold" lengthAdjust="spacing" textLength="98.2363" x="762.106" y="310.4717">Tambah Produk</text><polygon fill="#181818" points="374.8643,362.0313,384.8643,366.0313,374.8643,370.0313,378.8643,366.0313" style="stroke:#181818;stroke-width:1.0;"/><line style="stroke:#181818;stroke-width:1.0;" x1="58.5894" x2="380.8643" y1="366.0313" y2="366.0313"/><text fill="#000000" font-family="sans-serif" font-size="13" lengthAdjust="spacing" textLength="171.2534" x="65.5894" y="344.8232">Isi nama, metode, pcs, harga,</text><text fill="#000000" font-family="sans-serif" font-size="13" lengthAdjust="spacing" textLength="165.4644" x="65.5894" y="361.1748">komposisi, biaya lalu simpan</text><polygon fill="#181818" points="638.7739,392.3828,648.7739,396.3828,638.7739,400.3828,642.7739,396.3828" style="stroke:#181818;stroke-width:1.0;"/><line style="stroke:#181818;stroke-width:1.0;" x1="386.8643" x2="644.7739" y1="396.3828" y2="396.3828"/><text fill="#000000" font-family="sans-serif" font-size="13" lengthAdjust="spacing" textLength="36.1182" x="393.8643" y="391.5264">save()</text><line style="stroke:#181818;stroke-width:1.0;" x1="650.7739" x2="692.7739" y1="475.7891" y2="475.7891"/><line style="stroke:#181818;stroke-width:1.0;" x1="692.7739" x2="692.7739" y1="475.7891" y2="488.7891"/><line style="stroke:#181818;stroke-width:1.0;" x1="651.7739" x2="692.7739" y1="488.7891" y2="488.7891"/><polygon fill="#181818" points="661.7739,484.7891,651.7739,488.7891,661.7739,492.7891,657.7739,488.7891" style="stroke:#181818;stroke-width:1.0;"/><text fill="#000000" font-family="sans-serif" font-size="13" lengthAdjust="spacing" textLength="161.6875" x="657.7739" y="421.8779">validate(['name'=&gt;'required',</text><text fill="#000000" font-family="sans-serif" font-size="13" lengthAdjust="spacing" textLength="187.9414" x="657.7739" y="438.2295">'method'=&gt;'required|array|min:1',</text><text fill="#000000" font-family="sans-serif" font-size="13" lengthAdjust="spacing" textLength="131.8154" x="657.7739" y="454.5811">'pcs'=&gt;'required|min:1',</text><text fill="#000000" font-family="sans-serif" font-size="13" lengthAdjust="spacing" textLength="173.7417" x="657.7739" y="470.9326">'image'=&gt;'nullable|max:2048'])</text><path d="M316.5713,503.7891 L376.7422,503.7891 L376.7422,512.1406 L366.7422,522.1406 L316.5713,522.1406 L316.5713,503.7891 " fill="#EEEEEE" style="stroke:#000000;stroke-width:1.5;"/><rect fill="none" height="493.4609" style="stroke:#000000;stroke-width:1.5;" width="1301.4888" x="316.5713" y="503.7891"/><text fill="#000000" font-family="sans-serif" font-size="13" font-weight="bold" lengthAdjust="spacing" textLength="15.1709" x="331.5713" y="518.2842">alt</text><text fill="#000000" font-family="sans-serif" font-size="11" font-weight="bold" lengthAdjust="spacing" textLength="80.6899" x="391.7422" y="517.208">[Validasi gagal]</text><polygon fill="#181818" points="397.8643,540.4922,387.8643,544.4922,397.8643,548.4922,393.8643,544.4922" style="stroke:#181818;stroke-width:1.0;"/><line style="stroke:#181818;stroke-width:1.0;stroke-dasharray:2.0,2.0;" x1="391.8643" x2="649.7739" y1="544.4922" y2="544.4922"/><text fill="#000000" font-family="sans-serif" font-size="13" lengthAdjust="spacing" textLength="99.7407" x="403.8643" y="539.6357">Pesan kesalahan</text><line style="stroke:#000000;stroke-width:1.0;stroke-dasharray:2.0,2.0;" x1="316.5713" x2="1618.0601" y1="553.4922" y2="553.4922"/><text fill="#000000" font-family="sans-serif" font-size="11" font-weight="bold" lengthAdjust="spacing" textLength="50.7354" x="321.5713" y="564.9111">[Berhasil]</text><polygon fill="#181818" points="840.7153,586.6797,850.7153,590.6797,840.7153,594.6797,844.7153,590.6797" style="stroke:#181818;stroke-width:1.0;"/><line style="stroke:#181818;stroke-width:1.0;" x1="650.7739" x2="846.7153" y1="590.6797" y2="590.6797"/><text fill="#000000" font-family="sans-serif" font-size="13" lengthAdjust="spacing" textLength="114.8735" x="657.7739" y="585.8232">Product::create([...])</text><polygon fill="#181818" points="1553.0947,617.0313,1563.0947,621.0313,1553.0947,625.0313,1557.0947,621.0313" style="stroke:#181818;stroke-width:1.0;"/><line style="stroke:#181818;stroke-width:1.0;" x1="852.7153" x2="1559.0947" y1="621.0313" y2="621.0313"/><text fill="#000000" font-family="sans-serif" font-size="13" lengthAdjust="spacing" textLength="135.8081" x="859.7153" y="616.1748">INSERT INTO products</text><polygon fill="#181818" points="863.7153,647.3828,853.7153,651.3828,863.7153,655.3828,859.7153,651.3828" style="stroke:#181818;stroke-width:1.0;"/><line style="stroke:#181818;stroke-width:1.0;stroke-dasharray:2.0,2.0;" x1="857.7153" x2="1564.0947" y1="651.3828" y2="651.3828"/><text fill="#000000" font-family="sans-serif" font-size="13" lengthAdjust="spacing" textLength="74.4326" x="869.7153" y="646.5264">Product baru</text><polygon fill="#181818" points="1332.5776,677.7344,1342.5776,681.7344,1332.5776,685.7344,1336.5776,681.7344" style="stroke:#181818;stroke-width:1.0;"/><line style="stroke:#181818;stroke-width:1.0;" x1="650.7739" x2="1338.5776" y1="681.7344" y2="681.7344"/><text fill="#000000" font-family="sans-serif" font-size="13" lengthAdjust="spacing" textLength="174.1543" x="657.7739" y="676.8779">Sync product_categories pivot</text><polygon fill="#181818" points="1553.0947,708.0859,1563.0947,712.0859,1553.0947,716.0859,1557.0947,712.0859" style="stroke:#181818;stroke-width:1.0;"/><line style="stroke:#181818;stroke-width:1.0;" x1="1344.5776" x2="1559.0947" y1="712.0859" y2="712.0859"/><text fill="#000000" font-family="sans-serif" font-size="13" lengthAdjust="spacing" textLength="196.5171" x="1351.5776" y="707.2295">INSERT INTO product_categories</text><path d="M591.374,727.0859 L663.8086,727.0859 L663.8086,735.4375 L653.8086,745.4375 L591.374,745.4375 L591.374,727.0859 " fill="#EEEEEE" style="stroke:#000000;stroke-width:1.5;"/><rect fill="none" height="79.0547" style="stroke:#000000;stroke-width:1.5;" width="1016.686" x="591.374" y="727.0859"/><text fill="#000000" font-family="sans-serif" font-size="13" font-weight="bold" lengthAdjust="spacing" textLength="27.4346" x="606.374" y="741.5811">loop</text><text fill="#000000" font-family="sans-serif" font-size="11" font-weight="bold" lengthAdjust="spacing" textLength="123.4707" x="678.8086" y="740.5049">[Setiap item komposisi]</text><polygon fill="#181818" points="1045.3027,763.7891,1055.3027,767.7891,1045.3027,771.7891,1049.3027,767.7891" style="stroke:#181818;stroke-width:1.0;"/><line style="stroke:#181818;stroke-width:1.0;" x1="650.7739" x2="1051.3027" y1="767.7891" y2="767.7891"/><text fill="#000000" font-family="sans-serif" font-size="13" lengthAdjust="spacing" textLength="187.1289" x="657.7739" y="762.9326">ProductComposition::create([...])</text><polygon fill="#181818" points="1553.0947,794.1406,1563.0947,798.1406,1553.0947,802.1406,1557.0947,798.1406" style="stroke:#181818;stroke-width:1.0;"/><line style="stroke:#181818;stroke-width:1.0;" x1="1057.3027" x2="1559.0947" y1="798.1406" y2="798.1406"/><text fill="#000000" font-family="sans-serif" font-size="13" lengthAdjust="spacing" textLength="212.4053" x="1064.3027" y="793.2842">INSERT INTO product_compositions</text><path d="M591.374,820.1406 L663.8086,820.1406 L663.8086,828.4922 L653.8086,838.4922 L591.374,838.4922 L591.374,820.1406 " fill="#EEEEEE" style="stroke:#000000;stroke-width:1.5;"/><rect fill="none" height="79.0547" style="stroke:#000000;stroke-width:1.5;" width="1016.686" x="591.374" y="820.1406"/><text fill="#000000" font-family="sans-serif" font-size="13" font-weight="bold" lengthAdjust="spacing" textLength="27.4346" x="606.374" y="834.6357">loop</text><text fill="#000000" font-family="sans-serif" font-size="11" font-weight="bold" lengthAdjust="spacing" textLength="126.5322" x="678.8086" y="833.5596">[Setiap biaya tambahan]</text><polygon fill="#181818" points="1206.2539,856.8438,1216.2539,860.8438,1206.2539,864.8438,1210.2539,860.8438" style="stroke:#181818;stroke-width:1.0;"/><line style="stroke:#181818;stroke-width:1.0;" x1="650.7739" x2="1212.2539" y1="860.8438" y2="860.8438"/><text fill="#000000" font-family="sans-serif" font-size="13" lengthAdjust="spacing" textLength="129.3145" x="657.7739" y="855.9873">OtherCost::create([...])</text><polygon fill="#181818" points="1553.0947,887.1953,1563.0947,891.1953,1553.0947,895.1953,1557.0947,891.1953" style="stroke:#181818;stroke-width:1.0;"/><line style="stroke:#181818;stroke-width:1.0;" x1="1218.2539" x2="1559.0947" y1="891.1953" y2="891.1953"/><text fill="#000000" font-family="sans-serif" font-size="13" lengthAdjust="spacing" textLength="153.1499" x="1225.2539" y="886.3389">INSERT INTO other_costs</text><polygon fill="#181818" points="840.7153,924.5469,850.7153,928.5469,840.7153,932.5469,844.7153,928.5469" style="stroke:#181818;stroke-width:1.0;"/><line style="stroke:#181818;stroke-width:1.0;" x1="650.7739" x2="846.7153" y1="928.5469" y2="928.5469"/><text fill="#000000" font-family="sans-serif" font-size="13" lengthAdjust="spacing" textLength="176.6997" x="657.7739" y="923.6904">Hitung ulang $product-&gt;capital</text><polygon fill="#181818" points="1553.0947,954.8984,1563.0947,958.8984,1553.0947,962.8984,1557.0947,958.8984" style="stroke:#181818;stroke-width:1.0;"/><line style="stroke:#181818;stroke-width:1.0;" x1="852.7153" x2="1559.0947" y1="958.8984" y2="958.8984"/><text fill="#000000" font-family="sans-serif" font-size="13" lengthAdjust="spacing" textLength="198.3325" x="859.7153" y="954.042">UPDATE products SET capital = ?</text><polygon fill="#181818" points="397.8643,985.25,387.8643,989.25,397.8643,993.25,393.8643,989.25" style="stroke:#181818;stroke-width:1.0;"/><line style="stroke:#181818;stroke-width:1.0;stroke-dasharray:2.0,2.0;" x1="391.8643" x2="649.7739" y1="989.25" y2="989.25"/><text fill="#000000" font-family="sans-serif" font-size="13" lengthAdjust="spacing" textLength="195.4507" x="403.8643" y="984.3936">Notifikasi sukses &#8594; redirect daftar</text><rect fill="#EEEEEE" height="3" style="stroke:#EEEEEE;stroke-width:1.0;" width="1628.0601" x="0" y="1025.4258"/><line style="stroke:#000000;stroke-width:1.0;" x1="0" x2="1628.0601" y1="1025.4258" y2="1025.4258"/><line style="stroke:#000000;stroke-width:1.0;" x1="0" x2="1628.0601" y1="1028.4258" y2="1028.4258"/><rect fill="#EEEEEE" height="24.3516" style="stroke:#000000;stroke-width:2.0;" width="120.1772" x="753.9414" y="1014.25"/><text fill="#000000" font-family="sans-serif" font-size="13" font-weight="bold" lengthAdjust="spacing" textLength="102.5654" x="759.9414" y="1031.7451">Ubah Komposisi</text><polygon fill="#181818" points="374.8643,1066.9531,384.8643,1070.9531,374.8643,1074.9531,378.8643,1070.9531" style="stroke:#181818;stroke-width:1.0;"/><line style="stroke:#181818;stroke-width:1.0;" x1="58.5894" x2="380.8643" y1="1070.9531" y2="1070.9531"/><text fill="#000000" font-family="sans-serif" font-size="13" lengthAdjust="spacing" textLength="304.2749" x="65.5894" y="1066.0967">Buka rincian produk &#8594; ubah jumlah bahan &#8594; simpan</text><polygon fill="#181818" points="638.7739,1097.3047,648.7739,1101.3047,638.7739,1105.3047,642.7739,1101.3047" style="stroke:#181818;stroke-width:1.0;"/><line style="stroke:#181818;stroke-width:1.0;" x1="386.8643" x2="644.7739" y1="1101.3047" y2="1101.3047"/><text fill="#000000" font-family="sans-serif" font-size="13" lengthAdjust="spacing" textLength="239.9097" x="393.8643" y="1096.4482">updateComposition($compositionId, $qty)</text><polygon fill="#181818" points="1045.3027,1127.6563,1055.3027,1131.6563,1045.3027,1135.6563,1049.3027,1131.6563" style="stroke:#181818;stroke-width:1.0;"/><line style="stroke:#181818;stroke-width:1.0;" x1="650.7739" x2="1051.3027" y1="1131.6563" y2="1131.6563"/><text fill="#000000" font-family="sans-serif" font-size="13" lengthAdjust="spacing" textLength="382.5288" x="657.7739" y="1126.7998">ProductComposition::find($id)-&gt;update(['material_quantity'=&gt;$qty])</text><polygon fill="#181818" points="1553.0947,1158.0078,1563.0947,1162.0078,1553.0947,1166.0078,1557.0947,1162.0078" style="stroke:#181818;stroke-width:1.0;"/><line style="stroke:#181818;stroke-width:1.0;" x1="1057.3027" x2="1559.0947" y1="1162.0078" y2="1162.0078"/><text fill="#000000" font-family="sans-serif" font-size="13" lengthAdjust="spacing" textLength="182.7998" x="1064.3027" y="1157.1514">UPDATE product_compositions</text><polygon fill="#181818" points="840.7153,1188.3594,850.7153,1192.3594,840.7153,1196.3594,844.7153,1192.3594" style="stroke:#181818;stroke-width:1.0;"/><line style="stroke:#181818;stroke-width:1.0;" x1="650.7739" x2="846.7153" y1="1192.3594" y2="1192.3594"/><text fill="#000000" font-family="sans-serif" font-size="13" lengthAdjust="spacing" textLength="112.0171" x="657.7739" y="1187.5029">Hitung ulang modal</text><polygon fill="#181818" points="1553.0947,1218.7109,1563.0947,1222.7109,1553.0947,1226.7109,1557.0947,1222.7109" style="stroke:#181818;stroke-width:1.0;"/><line style="stroke:#181818;stroke-width:1.0;" x1="852.7153" x2="1559.0947" y1="1222.7109" y2="1222.7109"/><text fill="#000000" font-family="sans-serif" font-size="13" lengthAdjust="spacing" textLength="198.3325" x="859.7153" y="1217.8545">UPDATE products SET capital = ?</text><polygon fill="#181818" points="397.8643,1249.0625,387.8643,1253.0625,397.8643,1257.0625,393.8643,1253.0625" style="stroke:#181818;stroke-width:1.0;"/><line style="stroke:#181818;stroke-width:1.0;stroke-dasharray:2.0,2.0;" x1="391.8643" x2="649.7739" y1="1253.0625" y2="1253.0625"/><text fill="#000000" font-family="sans-serif" font-size="13" lengthAdjust="spacing" textLength="96.8081" x="403.8643" y="1248.2061">Notifikasi sukses</text><rect fill="#EEEEEE" height="3" style="stroke:#EEEEEE;stroke-width:1.0;" width="1628.0601" x="0" y="1282.2383"/><line style="stroke:#000000;stroke-width:1.0;" x1="0" x2="1628.0601" y1="1282.2383" y2="1282.2383"/><line style="stroke:#000000;stroke-width:1.0;" x1="0" x2="1628.0601" y1="1285.2383" y2="1285.2383"/><rect fill="#EEEEEE" height="24.3516" style="stroke:#000000;stroke-width:2.0;" width="174.3799" x="726.8401" y="1271.0625"/><text fill="#000000" font-family="sans-serif" font-size="13" font-weight="bold" lengthAdjust="spacing" textLength="156.7681" x="732.8401" y="1288.5576">Tambah Biaya Tambahan</text><polygon fill="#181818" points="374.8643,1323.7656,384.8643,1327.7656,374.8643,1331.7656,378.8643,1327.7656" style="stroke:#181818;stroke-width:1.0;"/><line style="stroke:#181818;stroke-width:1.0;" x1="58.5894" x2="380.8643" y1="1327.7656" y2="1327.7656"/><text fill="#000000" font-family="sans-serif" font-size="13" lengthAdjust="spacing" textLength="218.5879" x="65.5894" y="1322.9092">Pilih jenis biaya, isi nominal &#8594; simpan</text><polygon fill="#181818" points="638.7739,1354.1172,648.7739,1358.1172,638.7739,1362.1172,642.7739,1358.1172" style="stroke:#181818;stroke-width:1.0;"/><line style="stroke:#181818;stroke-width:1.0;" x1="386.8643" x2="644.7739" y1="1358.1172" y2="1358.1172"/><text fill="#000000" font-family="sans-serif" font-size="13" lengthAdjust="spacing" textLength="62.8481" x="393.8643" y="1353.2607">saveCost()</text><polygon fill="#181818" points="1206.2539,1384.4688,1216.2539,1388.4688,1206.2539,1392.4688,1210.2539,1388.4688" style="stroke:#181818;stroke-width:1.0;"/><line style="stroke:#181818;stroke-width:1.0;" x1="650.7739" x2="1212.2539" y1="1388.4688" y2="1388.4688"/><text fill="#000000" font-family="sans-serif" font-size="13" lengthAdjust="spacing" textLength="387.7529" x="657.7739" y="1383.6123">OtherCost::create(['product_id'=&gt;..., 'type_cost_id'=&gt;..., 'price'=&gt;...])</text><polygon fill="#181818" points="1553.0947,1414.8203,1563.0947,1418.8203,1553.0947,1422.8203,1557.0947,1418.8203" style="stroke:#181818;stroke-width:1.0;"/><line style="stroke:#181818;stroke-width:1.0;" x1="1218.2539" x2="1559.0947" y1="1418.8203" y2="1418.8203"/><text fill="#000000" font-family="sans-serif" font-size="13" lengthAdjust="spacing" textLength="153.1499" x="1225.2539" y="1413.9639">INSERT INTO other_costs</text><polygon fill="#181818" points="840.7153,1445.1719,850.7153,1449.1719,840.7153,1453.1719,844.7153,1449.1719" style="stroke:#181818;stroke-width:1.0;"/><line style="stroke:#181818;stroke-width:1.0;" x1="650.7739" x2="846.7153" y1="1449.1719" y2="1449.1719"/><text fill="#000000" font-family="sans-serif" font-size="13" lengthAdjust="spacing" textLength="112.0171" x="657.7739" y="1444.3154">Hitung ulang modal</text><polygon fill="#181818" points="397.8643,1475.5234,387.8643,1479.5234,397.8643,1483.5234,393.8643,1479.5234" style="stroke:#181818;stroke-width:1.0;"/><line style="stroke:#181818;stroke-width:1.0;stroke-dasharray:2.0,2.0;" x1="391.8643" x2="649.7739" y1="1479.5234" y2="1479.5234"/><text fill="#000000" font-family="sans-serif" font-size="13" lengthAdjust="spacing" textLength="96.8081" x="403.8643" y="1474.667">Notifikasi sukses</text><!--SRC=[dLNRRkCs47tNLmo207O0EzqM1Le8i8krdMA3lHcDio_D8XXBj3qLHIeavQs1FFS3-edzaWubMP5inPlT5rs6Cvp3cJE7ZfmKS3iTllebXBT2QeamDphE4uXHmLkTPjgIfI30o6a3PnDS4ozSgwrGRA0pG0ktLfWWG-CeeWoLWxCtA35bltAlEzMNj1LVo8WVCc-9t4KH-8d4btRWl5o-k_jTcvJZtbLnfV_Kur6SkJC8tkjOoCAniXI6JjzfUJ97MZN26jQEq8zk8ynKMzUAi5rPfkZ4MfjTqxCobTunEboY5N0sgxuAfzaa27mrOJWkYXF2Uv4kymIXB5m2__tpBoII4bXWkiHDLU70E_kWka8Xf3fNhdyHr2Q_Ffk4S7FrxcgwWAW4HC8E8ELlGoZvCrVa-ELscRYF-7Gsc4rWsDxQOmOZLi88nUHePAXnCxoC9AouZL123uBHg8qQHgE3qrvR0iNCOKJ2SQ46a4KCPeDcZOCxbUpvE80buGv1eip1KifLxog1nQquh41ZUOkIk16Y_sUFauhUQDmpuY5dkiKzpjPZ31iTDysFQ0pk7bDIuO-52yDhhJ-jK8hhOakLIubBAHvJ_3lywTNFl_O-NmGe7NmgqlE9rxX66G1qrN4kBCzHma-96pwba4oQYJ0R3Zo86RTe7-x_mZ0oeZZbvUKbfuQMsvuKrnzkhlvOy6ln4QePjUnQzRvpOrYYoOD332sUCzbsAjflUFz4ESXegvsFRRgV0DE8zIcbrXdS24UO0JcHGaqDNZn4T33LzG4Q2yT5WgEua-YUV7tPX8eFKPQ4TGN_kOyTAEs-lhNGTAEoptTE-yXgR6iK9oZoXbokrf1BvETvTPZXECACN479BghSpcUl5rSrIrXFl9WK4J22tu9dcFn1ErfHuWblyyGo1xoMyT3mu32PObmvD461cONYrij4VVySAyN4Yw8X5VdhgA6DkO_xAqzvMg2eT65zNYBop2j0ezNzyqOlh-C1d3-uNPU6V9LHAr9n_vpYY-6upC8winVQ-uUSBmfoErO8d-1pbQ63RkrojvdsqjQcEkPsVaypNzJ9fhHF2fulAfuVDsvEahX3Gf4jPs80li5AitHopjFTyeBk1-1Or4yDJszVE_9YpgCqW5vzlpMDcQ58b7z5GruuQT_MXPTLz7y0]--></g></svg>