<svg xmlns="http://www.w3.org/2000/svg" xmlns:xlink="http://www.w3.org/1999/xlink" contentStyleType="text/css" height="1162px" preserveAspectRatio="none" style="width:1214px;height:1162px;background:#FFFFFF;" version="1.1" viewBox="0 0 1214 1162" width="1214px" zoomAndPan="magnify"><title>UC-02: Kelola Kategori Produk</title><defs/><g><text fill="#000000" font-family="sans-serif" font-size="14" font-weight="bold" lengthAdjust="spacing" textLength="203.8135" x="501.3872" y="29.5332">UC-02: Kelola Kategori Produk</text><rect fill="none" height="216.2969" style="stroke:#000000;stroke-width:1.5;" width="1187.5879" x="10" y="454.7344"/><line style="stroke:#181818;stroke-width:0.5;stroke-dasharray:5.0,5.0;" x1="73" x2="73" y1="121.2188" y2="1080.25"/><line style="stroke:#181818;stroke-width:0.5;stroke-dasharray:5.0,5.0;" x1="315.0288" x2="315.0288" y1="121.2188" y2="1080.25"/><line style="stroke:#181818;stroke-width:0.5;stroke-dasharray:5.0,5.0;" x1="574.1621" x2="574.1621" y1="121.2188" y2="1080.25"/><line style="stroke:#181818;stroke-width:0.5;stroke-dasharray:5.0,5.0;" x1="839.042" x2="839.042" y1="121.2188" y2="1080.25"/><line style="stroke:#181818;stroke-width:0.5;stroke-dasharray:5.0,5.0;" x1="1153.6572" x2="1153.6572" y1="121.2188" y2="1080.25"/><text fill="#000000" font-family="sans-serif" font-size="14" lengthAdjust="spacing" textLength="101.1787" x="20" y="118.1426">Bagian Inventori</text><ellipse cx="73.5894" cy="52.1094" fill="#E2E2F0" rx="8" ry="8" style="stroke:#181818;stroke-width:0.5;"/><path d="M73.5894,60.1094 L73.5894,87.1094 M60.5894,68.1094 L86.5894,68.1094 M73.5894,87.1094 L60.5894,102.1094 M73.5894,87.1094 L86.5894,102.1094 " fill="none" style="stroke:#181818;stroke-width:0.5;"/><text fill="#000000" font-family="sans-serif" font-size="14" lengthAdjust="spacing" textLength="101.1787" x="20" y="1093.7832">Bagian Inventori</text><ellipse cx="73.5894" cy="1105.3594" fill="#E2E2F0" rx="8" ry="8" style="stroke:#181818;stroke-width:0.5;"/><path d="M73.5894,1113.3594 L73.5894,1140.3594 M60.5894,1121.3594 L86.5894,1121.3594 M73.5894,1140.3594 L60.5894,1155.3594 M73.5894,1140.3594 L86.5894,1155.3594 " fill="none" style="stroke:#181818;stroke-width:0.5;"/><rect fill="#E2E2F0" height="49.2188" rx="2.5" ry="2.5" style="stroke:#181818;stroke-width:0.5;" width="127.5859" x="252.0288" y="71"/><text fill="#000000" font-family="sans-serif" font-size="14" lengthAdjust="spacing" textLength="112.0615" x="259.791" y="92.5332">Halaman Kategori</text><text fill="#000000" font-family="sans-serif" font-size="14" lengthAdjust="spacing" textLength="113.5859" x="259.0288" y="110.1426">(livewire/category)</text><rect fill="#E2E2F0" height="49.2188" rx="2.5" ry="2.5" style="stroke:#181818;stroke-width:0.5;" width="127.5859" x="252.0288" y="1079.25"/><text fill="#000000" font-family="sans-serif" font-size="14" lengthAdjust="spacing" textLength="112.0615" x="259.791" y="1100.7832">Halaman Kategori</text><text fill="#000000" font-family="sans-serif" font-size="14" lengthAdjust="spacing" textLength="113.5859" x="259.0288" y="1118.3926">(livewire/category)</text><rect fill="#E2E2F0" height="49.2188" rx="2.5" ry="2.5" style="stroke:#181818;stroke-width:0.5;" width="108.9443" x="520.1621" y="71"/><text fill="#000000" font-family="sans-serif" font-size="14" lengthAdjust="spacing" textLength="94.9443" x="527.1621" y="92.5332">Category\Index</text><text fill="#000000" font-family="sans-serif" font-size="14" lengthAdjust="spacing" textLength="60.6758" x="544.2964" y="110.1426">(Livewire)</text><rect fill="#E2E2F0" height="49.2188" rx="2.5" ry="2.5" style="stroke:#181818;stroke-width:0.5;" width="108.9443" x="520.1621" y="1079.25"/><text fill="#000000" font-family="sans-serif" font-size="14" lengthAdjust="spacing" textLength="94.9443" x="527.1621" y="1100.7832">Category\Index</text><text fill="#000000" font-family="sans-serif" font-size="14" lengthAdjust="spacing" textLength="60.6758" x="544.2964" y="1118.3926">(Livewire)</text><rect fill="#E2E2F0" height="31.6094" rx="2.5" ry="2.5" style="stroke:#181818;stroke-width:0.5;" width="112.8271" x="783.042" y="88.6094"/><text fill="#000000" font-family="sans-serif" font-size="14" lengthAdjust="spacing" textLength="98.8271" x="790.042" y="110.1426">Category Model</text><rect fill="#E2E2F0" height="31.6094" rx="2.5" ry="2.5" style="stroke:#181818;stroke-width:0.5;" width="112.8271" x="783.042" y="1079.25"/><text fill="#000000" font-family="sans-serif" font-size="14" lengthAdjust="spacing" textLength="98.8271" x="790.042" y="1100.7832">Category Model</text><text fill="#000000" font-family="sans-serif" font-size="14" lengthAdjust="spacing" textLength="59.9307" x="1121.6572" y="118.1426">Database</text><path d="M1136.6226,67.6094 C1136.6226,57.6094 1154.6226,57.6094 1154.6226,57.6094 C1154.6226,57.6094 1172.6226,57.6094 1172.6226,67.6094 L1172.6226,93.6094 C1172.6226,103.6094 1154.6226,103.6094 1154.6226,103.6094 C1154.6226,103.6094 1136.6226,103.6094 1136.6226,93.6094 L1136.6226,67.6094 " fill="#E2E2F0" style="stroke:#181818;stroke-width:1.5;"/><path d="M1136.6226,67.6094 C1136.6226,77.6094 1154.6226,77.6094 1154.6226,77.6094 C1154.6226,77.6094 1172.6226,77.6094 1172.6226,67.6094 " fill="none" style="stroke:#181818;stroke-width:1.5;"/><text fill="#000000" font-family="sans-serif" font-size="14" lengthAdjust="spacing" textLength="59.9307" x="1121.6572" y="1093.7832">Database</text><path d="M1136.6226,1106.8594 C1136.6226,1096.8594 1154.6226,1096.8594 1154.6226,1096.8594 C1154.6226,1096.8594 1172.6226,1096.8594 1172.6226,1106.8594 L1172.6226,1132.8594 C1172.6226,1142.8594 1154.6226,1142.8594 1154.6226,1142.8594 C1154.6226,1142.8594 1136.6226,1142.8594 1136.6226,1132.8594 L1136.6226,1106.8594 " fill="#E2E2F0" style="stroke:#181818;stroke-width:1.5;"/><path d="M1136.6226,1106.8594 C1136.6226,1116.8594 1154.6226,1116.8594 1154.6226,1116.8594 C1154.6226,1116.8594 1172.6226,1116.8594 1172.6226,1106.8594 " fill="none" style="stroke:#181818;stroke-width:1.5;"/><polygon fill="#181818" points="303.8218,149.5703,313.8218,153.5703,303.8218,157.5703,307.8218,153.5703" style="stroke:#181818;stroke-width:1.0;"/><line style="stroke:#181818;stroke-width:1.0;" x1="73.5894" x2="309.8218" y1="153.5703" y2="153.5703"/><text fill="#000000" font-family="sans-serif" font-size="13" lengthAdjust="spacing" textLength="110.5508" x="80.5894" y="148.7139">Membuka /kategori</text><polygon fill="#181818" points="562.6343,179.9219,572.6343,183.9219,562.6343,187.9219,566.6343,183.9219" style="stroke:#181818;stroke-width:1.0;"/><line style="stroke:#181818;stroke-width:1.0;" x1="315.8218" x2="568.6343" y1="183.9219" y2="183.9219"/><text fill="#000000" font-family="sans-serif" font-size="13" lengthAdjust="spacing" textLength="44.7891" x="322.8218" y="179.0654">mount()</text><polygon fill="#181818" points="1142.6226,210.2734,1152.6226,214.2734,1142.6226,218.2734,1146.6226,214.2734" style="stroke:#181818;stroke-width:1.0;"/><line style="stroke:#181818;stroke-width:1.0;" x1="574.6343" x2="1148.6226" y1="214.2734" y2="214.2734"/><text fill="#000000" font-family="sans-serif" font-size="13" lengthAdjust="spacing" textLength="221.8062" x="581.6343" y="209.417">SELECT categories ORDER BY name</text><polygon fill="#181818" points="585.6343,240.625,575.6343,244.625,585.6343,248.625,581.6343,244.625" style="stroke:#181818;stroke-width:1.0;"/><line style="stroke:#181818;stroke-width:1.0;stroke-dasharray:2.0,2.0;" x1="579.6343" x2="1153.6226" y1="244.625" y2="244.625"/><text fill="#000000" font-family="sans-serif" font-size="13" lengthAdjust="spacing" textLength="125.0171" x="591.6343" y="239.7686">Collection&lt;Category&gt;</text><polygon fill="#181818" points="326.8218,270.9766,316.8218,274.9766,326.8218,278.9766,322.8218,274.9766" style="stroke:#181818;stroke-width:1.0;"/><line style="stroke:#181818;stroke-width:1.0;stroke-dasharray:2.0,2.0;" x1="320.8218" x2="573.6343" y1="274.9766" y2="274.9766"/><text fill="#000000" font-family="sans-serif" font-size="13" lengthAdjust="spacing" textLength="129.3525" x="332.8218" y="270.1201">Render daftar kategori</text><rect fill="#EEEEEE" height="3" style="stroke:#EEEEEE;stroke-width:1.0;" width="1207.5879" x="0" y="304.1523"/><line style="stroke:#000000;stroke-width:1.0;" x1="0" x2="1207.5879" y1="304.1523" y2="304.1523"/><line style="stroke:#000000;stroke-width:1.0;" x1="0" x2="1207.5879" y1="307.1523" y2="307.1523"/><rect fill="#EEEEEE" height="24.3516" style="stroke:#000000;stroke-width:2.0;" width="123.7954" x="541.8962" y="292.9766"/><text fill="#000000" font-family="sans-serif" font-size="13" font-weight="bold" lengthAdjust="spacing" textLength="106.1836" x="547.8962" y="310.4717">Tambah Kategori</text><polygon fill="#181818" points="303.8218,362.0313,313.8218,366.0313,303.8218,370.0313,307.8218,366.0313" style="stroke:#181818;stroke-width:1.0;"/><line style="stroke:#181818;stroke-width:1.0;" x1="73.5894" x2="309.8218" y1="366.0313" y2="366.0313"/><text fill="#000000" font-family="sans-serif" font-size="13" lengthAdjust="spacing" textLength="130.7871" x="80.5894" y="344.8232">Mengisi nama kategori</text><text fill="#000000" font-family="sans-serif" font-size="13" lengthAdjust="spacing" textLength="90.3145" x="80.5894" y="361.1748">lalu klik Simpan</text><polygon fill="#181818" points="562.6343,392.3828,572.6343,396.3828,562.6343,400.3828,566.6343,396.3828" style="stroke:#181818;stroke-width:1.0;"/><line style="stroke:#181818;stroke-width:1.0;" x1="315.8218" x2="568.6343" y1="396.3828" y2="396.3828"/><text fill="#000000" font-family="sans-serif" font-size="13" lengthAdjust="spacing" textLength="36.1182" x="322.8218" y="391.5264">save()</text><line style="stroke:#181818;stroke-width:1.0;" x1="574.6343" x2="616.6343" y1="426.7344" y2="426.7344"/><line style="stroke:#181818;stroke-width:1.0;" x1="616.6343" x2="616.6343" y1="426.7344" y2="439.7344"/><line style="stroke:#181818;stroke-width:1.0;" x1="575.6343" x2="616.6343" y1="439.7344" y2="439.7344"/><polygon fill="#181818" points="585.6343,435.7344,575.6343,439.7344,585.6343,443.7344,581.6343,439.7344" style="stroke:#181818;stroke-width:1.0;"/><text fill="#000000" font-family="sans-serif" font-size="13" lengthAdjust="spacing" textLength="250.8213" x="581.6343" y="421.8779">validate(['name' =&gt; 'required|min:3|unique'])</text><path d="M10,454.7344 L70.1709,454.7344 L70.1709,463.0859 L60.1709,473.0859 L10,473.0859 L10,454.7344 " fill="#EEEEEE" style="stroke:#000000;stroke-width:1.5;"/><rect fill="none" height="216.2969" style="stroke:#000000;stroke-width:1.5;" width="1187.5879" x="10" y="454.7344"/><text fill="#000000" font-family="sans-serif" font-size="13" font-weight="bold" lengthAdjust="spacing" textLength="15.1709" x="25" y="469.2295">alt</text><text fill="#000000" font-family="sans-serif" font-size="11" font-weight="bold" lengthAdjust="spacing" textLength="80.6899" x="85.1709" y="468.1533">[Validasi gagal]</text><polygon fill="#181818" points="326.8218,491.4375,316.8218,495.4375,326.8218,499.4375,322.8218,495.4375" style="stroke:#181818;stroke-width:1.0;"/><line style="stroke:#181818;stroke-width:1.0;stroke-dasharray:2.0,2.0;" x1="320.8218" x2="573.6343" y1="495.4375" y2="495.4375"/><text fill="#000000" font-family="sans-serif" font-size="13" lengthAdjust="spacing" textLength="161.8779" x="332.8218" y="490.5811">Tampilkan pesan kesalahan</text><polygon fill="#181818" points="84.5894,521.7891,74.5894,525.7891,84.5894,529.7891,80.5894,525.7891" style="stroke:#181818;stroke-width:1.0;"/><line style="stroke:#181818;stroke-width:1.0;stroke-dasharray:2.0,2.0;" x1="78.5894" x2="314.8218" y1="525.7891" y2="525.7891"/><text fill="#000000" font-family="sans-serif" font-size="13" lengthAdjust="spacing" textLength="83.8271" x="90.5894" y="520.9326">Pesan validasi</text><line style="stroke:#000000;stroke-width:1.0;stroke-dasharray:2.0,2.0;" x1="10" x2="1197.5879" y1="534.7891" y2="534.7891"/><text fill="#000000" font-family="sans-serif" font-size="11" font-weight="bold" lengthAdjust="spacing" textLength="94.1445" x="15" y="546.208">[Validasi berhasil]</text><polygon fill="#181818" points="827.4556,567.9766,837.4556,571.9766,827.4556,575.9766,831.4556,571.9766" style="stroke:#181818;stroke-width:1.0;"/><line style="stroke:#181818;stroke-width:1.0;" x1="574.6343" x2="833.4556" y1="571.9766" y2="571.9766"/><text fill="#000000" font-family="sans-serif" font-size="13" lengthAdjust="spacing" textLength="211.6245" x="581.6343" y="567.1201">Category::create(['name' =&gt; $name])</text><polygon fill="#181818" points="1142.6226,598.3281,1152.6226,602.3281,1142.6226,606.3281,1146.6226,602.3281" style="stroke:#181818;stroke-width:1.0;"/><line style="stroke:#181818;stroke-width:1.0;" x1="839.4556" x2="1148.6226" y1="602.3281" y2="602.3281"/><text fill="#000000" font-family="sans-serif" font-size="13" lengthAdjust="spacing" textLength="145.9263" x="846.4556" y="597.4717">INSERT INTO categories</text><polygon fill="#181818" points="850.4556,628.6797,840.4556,632.6797,850.4556,636.6797,846.4556,632.6797" style="stroke:#181818;stroke-width:1.0;"/><line style="stroke:#181818;stroke-width:1.0;stroke-dasharray:2.0,2.0;" x1="844.4556" x2="1153.6226" y1="632.6797" y2="632.6797"/><text fill="#000000" font-family="sans-serif" font-size="13" lengthAdjust="spacing" textLength="82.3799" x="856.4556" y="627.8232">Category baru</text><polygon fill="#181818" points="326.8218,659.0313,316.8218,663.0313,326.8218,667.0313,322.8218,663.0313" style="stroke:#181818;stroke-width:1.0;"/><line style="stroke:#181818;stroke-width:1.0;stroke-dasharray:2.0,2.0;" x1="320.8218" x2="573.6343" y1="663.0313" y2="663.0313"/><text fill="#000000" font-family="sans-serif" font-size="13" lengthAdjust="spacing" textLength="234.8125" x="332.8218" y="658.1748">Tampilkan notifikasi sukses &amp; list terbaru</text><rect fill="#EEEEEE" height="3" style="stroke:#EEEEEE;stroke-width:1.0;" width="1207.5879" x="0" y="699.207"/><line style="stroke:#000000;stroke-width:1.0;" x1="0" x2="1207.5879" y1="699.207" y2="699.207"/><line style="stroke:#000000;stroke-width:1.0;" x1="0" x2="1207.5879" y1="702.207" y2="702.207"/><rect fill="#EEEEEE" height="24.3516" style="stroke:#000000;stroke-width:2.0;" width="106.4536" x="550.5671" y="688.0313"/><text fill="#000000" font-family="sans-serif" font-size="13" font-weight="bold" lengthAdjust="spacing" textLength="88.8418" x="556.5671" y="705.5264">Ubah Kategori</text><polygon fill="#181818" points="303.8218,740.7344,313.8218,744.7344,303.8218,748.7344,307.8218,744.7344" style="stroke:#181818;stroke-width:1.0;"/><line style="stroke:#181818;stroke-width:1.0;" x1="73.5894" x2="309.8218" y1="744.7344" y2="744.7344"/><text fill="#000000" font-family="sans-serif" font-size="13" lengthAdjust="spacing" textLength="218.2324" x="80.5894" y="739.8779">Klik ikon edit, ubah nama, lalu simpan</text><polygon fill="#181818" points="562.6343,771.0859,572.6343,775.0859,562.6343,779.0859,566.6343,775.0859" style="stroke:#181818;stroke-width:1.0;"/><line style="stroke:#181818;stroke-width:1.0;" x1="315.8218" x2="568.6343" y1="775.0859" y2="775.0859"/><text fill="#000000" font-family="sans-serif" font-size="13" lengthAdjust="spacing" textLength="90.3081" x="322.8218" y="770.2295">edit($id), save()</text><polygon fill="#181818" points="827.4556,801.4375,837.4556,805.4375,827.4556,809.4375,831.4556,805.4375" style="stroke:#181818;stroke-width:1.0;"/><line style="stroke:#181818;stroke-width:1.0;" x1="574.6343" x2="833.4556" y1="805.4375" y2="805.4375"/><text fill="#000000" font-family="sans-serif" font-size="13" lengthAdjust="spacing" textLength="213.5034" x="581.6343" y="800.5811">Category::findOrFail($id)-&gt;update(...)</text><polygon fill="#181818" points="1142.6226,831.7891,1152.6226,835.7891,1142.6226,839.7891,1146.6226,835.7891" style="stroke:#181818;stroke-width:1.0;"/><line style="stroke:#181818;stroke-width:1.0;" x1="839.4556" x2="1148.6226" y1="835.7891" y2="835.7891"/><text fill="#000000" font-family="sans-serif" font-size="13" lengthAdjust="spacing" textLength="291.167" x="846.4556" y="830.9326">UPDATE categories SET name = ? WHERE id = ?</text><polygon fill="#181818" points="326.8218,862.1406,316.8218,866.1406,326.8218,870.1406,322.8218,866.1406" style="stroke:#181818;stroke-width:1.0;"/><line style="stroke:#181818;stroke-width:1.0;stroke-dasharray:2.0,2.0;" x1="320.8218" x2="573.6343" y1="866.1406" y2="866.1406"/><text fill="#000000" font-family="sans-serif" font-size="13" lengthAdjust="spacing" textLength="96.8081" x="332.8218" y="861.2842">Notifikasi sukses</text><rect fill="#EEEEEE" height="3" style="stroke:#EEEEEE;stroke-width:1.0;" width="1207.5879" x="0" y="895.3164"/><line style="stroke:#000000;stroke-width:1.0;" x1="0" x2="1207.5879" y1="895.3164" y2="895.3164"/><line style="stroke:#000000;stroke-width:1.0;" x1="0" x2="1207.5879" y1="898.3164" y2="898.3164"/><rect fill="#EEEEEE" height="24.3516" style="stroke:#000000;stroke-width:2.0;" width="113.6836" x="546.9521" y="884.1406"/><text fill="#000000" font-family="sans-serif" font-size="13" font-weight="bold" lengthAdjust="spacing" textLength="96.0718" x="552.9521" y="901.6357">Hapus Kategori</text><polygon fill="#181818" points="303.8218,936.8438,313.8218,940.8438,303.8218,944.8438,307.8218,940.8438" style="stroke:#181818;stroke-width:1.0;"/><line style="stroke:#181818;stroke-width:1.0;" x1="73.5894" x2="309.8218" y1="940.8438" y2="940.8438"/><text fill="#000000" font-family="sans-serif" font-size="13" lengthAdjust="spacing" textLength="142.3716" x="80.5894" y="935.9873">Klik hapus pada kategori</text><polygon fill="#181818" points="562.6343,967.1953,572.6343,971.1953,562.6343,975.1953,566.6343,971.1953" style="stroke:#181818;stroke-width:1.0;"/><line style="stroke:#181818;stroke-width:1.0;" x1="315.8218" x2="568.6343" y1="971.1953" y2="971.1953"/><text fill="#000000" font-family="sans-serif" font-size="13" lengthAdjust="spacing" textLength="61.4263" x="322.8218" y="966.3389">delete($id)</text><polygon fill="#181818" points="827.4556,997.5469,837.4556,1001.5469,827.4556,1005.5469,831.4556,1001.5469" style="stroke:#181818;stroke-width:1.0;"/><line style="stroke:#181818;stroke-width:1.0;" x1="574.6343" x2="833.4556" y1="1001.5469" y2="1001.5469"/><text fill="#000000" font-family="sans-serif" font-size="13" lengthAdjust="spacing" textLength="198.3262" x="581.6343" y="996.6904">Category::findOrFail($id)-&gt;delete()</text><polygon fill="#181818" points="1142.6226,1027.8984,1152.6226,1031.8984,1142.6226,1035.8984,1146.6226,1031.8984" style="stroke:#181818;stroke-width:1.0;"/><line style="stroke:#181818;stroke-width:1.0;" x1="839.4556" x2="1148.6226" y1="1031.8984" y2="1031.8984"/><text fill="#000000" font-family="sans-serif" font-size="13" lengthAdjust="spacing" textLength="243.8198" x="846.4556" y="1027.042">DELETE FROM categories WHERE id = ?</text><polygon fill="#181818" points="326.8218,1058.25,316.8218,1062.25,326.8218,1066.25,322.8218,1062.25" style="stroke:#181818;stroke-width:1.0;"/><line style="stroke:#181818;stroke-width:1.0;stroke-dasharray:2.0,2.0;" x1="320.8218" x2="573.6343" y1="1062.25" y2="1062.25"/><text fill="#000000" font-family="sans-serif" font-size="13" lengthAdjust="spacing" textLength="190.0171" x="332.8218" y="1057.3936">Notifikasi sukses &amp; list diperbarui</text><!--SRC=[dLJRRjf047ttLunGL40AITM-MOMgO4U9SW5nILMLFWnu0YElryvwJLef7z_TnJX0dKRjY-sTdPazvynPQzQ2O3RelF_WmpM9L21SewPLgXX6AesAsFDmgLC5ZJwk62LSoGr94-06O0wpd9INeTAyv0obXiOb2anCtgxDNBO4R-Y95Pqljx5VRLTxp_HqM3iez-VpAndHJrDwKvPkAmPfagNI75zV1hTfH6ARMOPSn8jGum9pWaPGVhcaeEzvbW1qUWwC3xUKB8eOuJmkqNisRlUhetr8qaBgLjkhGdO_wFim2M_2mHHAbamv3CT1E8R-Dv2Oa1VqeNFOQf0AGKlDgVoqGzpRxri16vCHH4643neLLEYyRXUcc2nm_JAsRlSFKdB5ELiCM9NEfK1HG2muXWadHiWwgZbkw9ZftlO61HjjgVMzQGaseTk3fgB7mamiUavO-X-V2ycF1JL_j3qK6kvTXG6pmXKA3w2Eh66KiOYDYJBApJCsJu5h0n5W2zAaMeu-Z5p2fkpgaJ13hivOa5gRzz4nlKDp-DNIzvUAZjYSs2-37GwBTXE_kfk4uwbvJOTxOpVPkr7NdmGBLCMRv6Mg-O5ZooGlujpOwHq8pZLeKgw1yOHpmEplyx-sC-OubK0HwrCeRBermoau3-IlZj_cjquuQf_ME-4r7HzOHaDrWInSTQTNPCucPsTdfaMTaBDHy6KQxb-TIJXrjmQwy1c-NeRZ43YoYzhxSNUibHFc4hCYVqkPjKlAC7gv77LQ6B1aA5W-_wj2sU8L2GBpzp0IN8o7j_iw_3lrdKqYphP6OUyt]--></g></svg>