<svg xmlns="http://www.w3.org/2000/svg" xmlns:xlink="http://www.w3.org/1999/xlink" contentStyleType="text/css" height="1193px" preserveAspectRatio="none" style="width:1062px;height:1193px;background:#FFFFFF;" version="1.1" viewBox="0 0 1062 1193" width="1062px" zoomAndPan="magnify"><title>UC-04: Kelola Supplier</title><defs/><g><text fill="#000000" font-family="sans-serif" font-size="14" font-weight="bold" lengthAdjust="spacing" textLength="150.917" x="451.7874" y="29.5332">UC-04: Kelola Supplier</text><rect fill="none" height="259.6484" style="stroke:#000000;stroke-width:1.5;" width="1035.4917" x="10" y="503.7891"/><line style="stroke:#181818;stroke-width:0.5;stroke-dasharray:5.0,5.0;" x1="73" x2="73" y1="121.2188" y2="1110.9531"/><line style="stroke:#181818;stroke-width:0.5;stroke-dasharray:5.0,5.0;" x1="280.5034" x2="280.5034" y1="121.2188" y2="1110.9531"/><line style="stroke:#181818;stroke-width:0.5;stroke-dasharray:5.0,5.0;" x1="511.5576" x2="511.5576" y1="121.2188" y2="1110.9531"/><line style="stroke:#181818;stroke-width:0.5;stroke-dasharray:5.0,5.0;" x1="738.3491" x2="738.3491" y1="121.2188" y2="1110.9531"/><line style="stroke:#181818;stroke-width:0.5;stroke-dasharray:5.0,5.0;" x1="1001.561" x2="1001.561" y1="121.2188" y2="1110.9531"/><text fill="#000000" font-family="sans-serif" font-size="14" lengthAdjust="spacing" textLength="101.1787" x="20" y="118.1426">Bagian Inventori</text><ellipse cx="73.5894" cy="52.1094" fill="#E2E2F0" rx="8" ry="8" style="stroke:#181818;stroke-width:0.5;"/><path d="M73.5894,60.1094 L73.5894,87.1094 M60.5894,68.1094 L86.5894,68.1094 M73.5894,87.1094 L60.5894,102.1094 M73.5894,87.1094 L86.5894,102.1094 " fill="none" style="stroke:#181818;stroke-width:0.5;"/><text fill="#000000" font-family="sans-serif" font-size="14" lengthAdjust="spacing" textLength="101.1787" x="20" y="1124.4863">Bagian Inventori</text><ellipse cx="73.5894" cy="1136.0625" fill="#E2E2F0" rx="8" ry="8" style="stroke:#181818;stroke-width:0.5;"/><path d="M73.5894,1144.0625 L73.5894,1171.0625 M60.5894,1152.0625 L86.5894,1152.0625 M73.5894,1171.0625 L60.5894,1186.0625 M73.5894,1171.0625 L86.5894,1186.0625 " fill="none" style="stroke:#181818;stroke-width:0.5;"/><rect fill="#E2E2F0" height="49.2188" rx="2.5" ry="2.5" style="stroke:#181818;stroke-width:0.5;" width="125.2822" x="218.5034" y="71"/><text fill="#000000" font-family="sans-serif" font-size="14" lengthAdjust="spacing" textLength="111.2822" x="225.5034" y="92.5332">Halaman Supplier</text><text fill="#000000" font-family="sans-serif" font-size="14" lengthAdjust="spacing" textLength="108.917" x="226.686" y="110.1426">(livewire/supplier)</text><rect fill="#E2E2F0" height="49.2188" rx="2.5" ry="2.5" style="stroke:#181818;stroke-width:0.5;" width="125.2822" x="218.5034" y="1109.9531"/><text fill="#000000" font-family="sans-serif" font-size="14" lengthAdjust="spacing" textLength="111.2822" x="225.5034" y="1131.4863">Halaman Supplier</text><text fill="#000000" font-family="sans-serif" font-size="14" lengthAdjust="spacing" textLength="108.917" x="226.686" y="1149.0957">(livewire/supplier)</text><rect fill="#E2E2F0" height="49.2188" rx="2.5" ry="2.5" style="stroke:#181818;stroke-width:0.5;" width="101.917" x="461.5576" y="71"/><text fill="#000000" font-family="sans-serif" font-size="14" lengthAdjust="spacing" textLength="87.917" x="468.5576" y="92.5332">Supplier\Form</text><text fill="#000000" font-family="sans-serif" font-size="14" lengthAdjust="spacing" textLength="60.6758" x="482.1782" y="110.1426">(Livewire)</text><rect fill="#E2E2F0" height="49.2188" rx="2.5" ry="2.5" style="stroke:#181818;stroke-width:0.5;" width="101.917" x="461.5576" y="1109.9531"/><text fill="#000000" font-family="sans-serif" font-size="14" lengthAdjust="spacing" textLength="87.917" x="468.5576" y="1131.4863">Supplier\Form</text><text fill="#000000" font-family="sans-serif" font-size="14" lengthAdjust="spacing" textLength="60.6758" x="482.1782" y="1149.0957">(Livewire)</text><rect fill="#E2E2F0" height="31.6094" rx="2.5" ry="2.5" style="stroke:#181818;stroke-width:0.5;" width="107.3857" x="685.3491" y="88.6094"/><text fill="#000000" font-family="sans-serif" font-size="14" lengthAdjust="spacing" textLength="93.3857" x="692.3491" y="110.1426">Supplier Model</text><rect fill="#E2E2F0" height="31.6094" rx="2.5" ry="2.5" style="stroke:#181818;stroke-width:0.5;" width="107.3857" x="685.3491" y="1109.9531"/><text fill="#000000" font-family="sans-serif" font-size="14" lengthAdjust="spacing" textLength="93.3857" x="692.3491" y="1131.4863">Supplier Model</text><text fill="#000000" font-family="sans-serif" font-size="14" lengthAdjust="spacing" textLength="59.9307" x="969.561" y="118.1426">Database</text><path d="M984.5264,67.6094 C984.5264,57.6094 1002.5264,57.6094 1002.5264,57.6094 C1002.5264,57.6094 1020.5264,57.6094 1020.5264,67.6094 L1020.5264,93.6094 C1020.5264,103.6094 1002.5264,103.6094 1002.5264,103.6094 C1002.5264,103.6094 984.5264,103.6094 984.5264,93.6094 L984.5264,67.6094 " fill="#E2E2F0" style="stroke:#181818;stroke-width:1.5;"/><path d="M984.5264,67.6094 C984.5264,77.6094 1002.5264,77.6094 1002.5264,77.6094 C1002.5264,77.6094 1020.5264,77.6094 1020.5264,67.6094 " fill="none" style="stroke:#181818;stroke-width:1.5;"/><text fill="#000000" font-family="sans-serif" font-size="14" lengthAdjust="spacing" textLength="59.9307" x="969.561" y="1124.4863">Database</text><path d="M984.5264,1137.5625 C984.5264,1127.5625 1002.5264,1127.5625 1002.5264,1127.5625 C1002.5264,1127.5625 1020.5264,1127.5625 1020.5264,1137.5625 L1020.5264,1163.5625 C1020.5264,1173.5625 1002.5264,1173.5625 1002.5264,1173.5625 C1002.5264,1173.5625 984.5264,1173.5625 984.5264,1163.5625 L984.5264,1137.5625 " fill="#E2E2F0" style="stroke:#181818;stroke-width:1.5;"/><path d="M984.5264,1137.5625 C984.5264,1147.5625 1002.5264,1147.5625 1002.5264,1147.5625 C1002.5264,1147.5625 1020.5264,1147.5625 1020.5264,1137.5625 " fill="none" style="stroke:#181818;stroke-width:1.5;"/><polygon fill="#181818" points="269.1445,149.5703,279.1445,153.5703,269.1445,157.5703,273.1445,153.5703" style="stroke:#181818;stroke-width:1.0;"/><line style="stroke:#181818;stroke-width:1.0;" x1="73.5894" x2="275.1445" y1="153.5703" y2="153.5703"/><text fill="#000000" font-family="sans-serif" font-size="13" lengthAdjust="spacing" textLength="109.8271" x="80.5894" y="148.7139">Membuka /supplier</text><polygon fill="#181818" points="500.5161,179.9219,510.5161,183.9219,500.5161,187.9219,504.5161,183.9219" style="stroke:#181818;stroke-width:1.0;"/><line style="stroke:#181818;stroke-width:1.0;" x1="281.1445" x2="506.5161" y1="183.9219" y2="183.9219"/><text fill="#000000" font-family="sans-serif" font-size="13" lengthAdjust="spacing" textLength="44.7891" x="288.1445" y="179.0654">mount()</text><polygon fill="#181818" points="990.5264,210.2734,1000.5264,214.2734,990.5264,218.2734,994.5264,214.2734" style="stroke:#181818;stroke-width:1.0;"/><line style="stroke:#181818;stroke-width:1.0;" x1="512.5161" x2="996.5264" y1="214.2734" y2="214.2734"/><text fill="#000000" font-family="sans-serif" font-size="13" lengthAdjust="spacing" textLength="106.209" x="519.5161" y="209.417">SELECT suppliers</text><polygon fill="#181818" points="523.5161,240.625,513.5161,244.625,523.5161,248.625,519.5161,244.625" style="stroke:#181818;stroke-width:1.0;"/><line style="stroke:#181818;stroke-width:1.0;stroke-dasharray:2.0,2.0;" x1="517.5161" x2="1001.5264" y1="244.625" y2="244.625"/><text fill="#000000" font-family="sans-serif" font-size="13" lengthAdjust="spacing" textLength="119.9644" x="529.5161" y="239.7686">Collection&lt;Supplier&gt;</text><polygon fill="#181818" points="292.1445,270.9766,282.1445,274.9766,292.1445,278.9766,288.1445,274.9766" style="stroke:#181818;stroke-width:1.0;"/><line style="stroke:#181818;stroke-width:1.0;stroke-dasharray:2.0,2.0;" x1="286.1445" x2="511.5161" y1="274.9766" y2="274.9766"/><text fill="#000000" font-family="sans-serif" font-size="13" lengthAdjust="spacing" textLength="128.6289" x="298.1445" y="270.1201">Render daftar supplier</text><rect fill="#EEEEEE" height="3" style="stroke:#EEEEEE;stroke-width:1.0;" width="1055.4917" x="0" y="304.1523"/><line style="stroke:#000000;stroke-width:1.0;" x1="0" x2="1055.4917" y1="304.1523" y2="304.1523"/><line style="stroke:#000000;stroke-width:1.0;" x1="0" x2="1055.4917" y1="307.1523" y2="307.1523"/><rect fill="#EEEEEE" height="24.3516" style="stroke:#000000;stroke-width:2.0;" width="123.0718" x="466.21" y="292.9766"/><text fill="#000000" font-family="sans-serif" font-size="13" font-weight="bold" lengthAdjust="spacing" textLength="105.46" x="472.21" y="310.4717">Tambah Supplier</text><polygon fill="#181818" points="269.1445,362.0313,279.1445,366.0313,269.1445,370.0313,273.1445,366.0313" style="stroke:#181818;stroke-width:1.0;"/><line style="stroke:#181818;stroke-width:1.0;" x1="73.5894" x2="275.1445" y1="366.0313" y2="366.0313"/><text fill="#000000" font-family="sans-serif" font-size="13" lengthAdjust="spacing" textLength="123.5571" x="80.5894" y="344.8232">Klik Tambah Supplier</text><text fill="#000000" font-family="sans-serif" font-size="13" lengthAdjust="spacing" textLength="135.1035" x="80.5894" y="361.1748">lalu isi form lalu simpan</text><polygon fill="#181818" points="500.5161,392.3828,510.5161,396.3828,500.5161,400.3828,504.5161,396.3828" style="stroke:#181818;stroke-width:1.0;"/><line style="stroke:#181818;stroke-width:1.0;" x1="281.1445" x2="506.5161" y1="396.3828" y2="396.3828"/><text fill="#000000" font-family="sans-serif" font-size="13" lengthAdjust="spacing" textLength="36.1182" x="288.1445" y="391.5264">save()</text><line style="stroke:#181818;stroke-width:1.0;" x1="512.5161" x2="554.5161" y1="475.7891" y2="475.7891"/><line style="stroke:#181818;stroke-width:1.0;" x1="554.5161" x2="554.5161" y1="475.7891" y2="488.7891"/><line style="stroke:#181818;stroke-width:1.0;" x1="513.5161" x2="554.5161" y1="488.7891" y2="488.7891"/><polygon fill="#181818" points="523.5161,484.7891,513.5161,488.7891,523.5161,492.7891,519.5161,488.7891" style="stroke:#181818;stroke-width:1.0;"/><text fill="#000000" font-family="sans-serif" font-size="13" lengthAdjust="spacing" textLength="196.8535" x="519.5161" y="421.8779">validate(['name'=&gt;'required|min:3',</text><text fill="#000000" font-family="sans-serif" font-size="13" lengthAdjust="spacing" textLength="109.6875" x="519.5161" y="438.2295">'phone'=&gt;'nullable',</text><text fill="#000000" font-family="sans-serif" font-size="13" lengthAdjust="spacing" textLength="149.8872" x="519.5161" y="454.5811">'maps_link'=&gt;'nullable|url',</text><text fill="#000000" font-family="sans-serif" font-size="13" lengthAdjust="spacing" textLength="212.5259" x="519.5161" y="470.9326">'image'=&gt;'nullable|image|max:2048'])</text><path d="M10,503.7891 L70.1709,503.7891 L70.1709,512.1406 L60.1709,522.1406 L10,522.1406 L10,503.7891 " fill="#EEEEEE" style="stroke:#000000;stroke-width:1.5;"/><rect fill="none" height="259.6484" style="stroke:#000000;stroke-width:1.5;" width="1035.4917" x="10" y="503.7891"/><text fill="#000000" font-family="sans-serif" font-size="13" font-weight="bold" lengthAdjust="spacing" textLength="15.1709" x="25" y="518.2842">alt</text><text fill="#000000" font-family="sans-serif" font-size="11" font-weight="bold" lengthAdjust="spacing" textLength="80.6899" x="85.1709" y="517.208">[Validasi gagal]</text><polygon fill="#181818" points="292.1445,540.4922,282.1445,544.4922,292.1445,548.4922,288.1445,544.4922" style="stroke:#181818;stroke-width:1.0;"/><line style="stroke:#181818;stroke-width:1.0;stroke-dasharray:2.0,2.0;" x1="286.1445" x2="511.5161" y1="544.4922" y2="544.4922"/><text fill="#000000" font-family="sans-serif" font-size="13" lengthAdjust="spacing" textLength="146.707" x="298.1445" y="539.6357">Pesan kesalahan validasi</text><polygon fill="#181818" points="84.5894,570.8438,74.5894,574.8438,84.5894,578.8438,80.5894,574.8438" style="stroke:#181818;stroke-width:1.0;"/><line style="stroke:#181818;stroke-width:1.0;stroke-dasharray:2.0,2.0;" x1="78.5894" x2="280.1445" y1="574.8438" y2="574.8438"/><text fill="#000000" font-family="sans-serif" font-size="13" lengthAdjust="spacing" textLength="91.0254" x="90.5894" y="569.9873">Tampilkan error</text><line style="stroke:#000000;stroke-width:1.0;stroke-dasharray:2.0,2.0;" x1="10" x2="1045.4917" y1="583.8438" y2="583.8438"/><text fill="#000000" font-family="sans-serif" font-size="11" font-weight="bold" lengthAdjust="spacing" textLength="50.7354" x="15" y="595.2627">[Berhasil]</text><line style="stroke:#181818;stroke-width:1.0;" x1="512.5161" x2="554.5161" y1="621.0313" y2="621.0313"/><line style="stroke:#181818;stroke-width:1.0;" x1="554.5161" x2="554.5161" y1="621.0313" y2="634.0313"/><line style="stroke:#181818;stroke-width:1.0;" x1="513.5161" x2="554.5161" y1="634.0313" y2="634.0313"/><polygon fill="#181818" points="523.5161,630.0313,513.5161,634.0313,523.5161,638.0313,519.5161,634.0313" style="stroke:#181818;stroke-width:1.0;"/><text fill="#000000" font-family="sans-serif" font-size="13" lengthAdjust="spacing" textLength="179.9561" x="519.5161" y="616.1748">Handle upload gambar jika ada</text><polygon fill="#181818" points="727.042,660.3828,737.042,664.3828,727.042,668.3828,731.042,664.3828" style="stroke:#181818;stroke-width:1.0;"/><line style="stroke:#181818;stroke-width:1.0;" x1="512.5161" x2="733.042" y1="664.3828" y2="664.3828"/><text fill="#000000" font-family="sans-serif" font-size="13" lengthAdjust="spacing" textLength="117.7681" x="519.5161" y="659.5264">Supplier::create([...])</text><polygon fill="#181818" points="990.5264,690.7344,1000.5264,694.7344,990.5264,698.7344,994.5264,694.7344" style="stroke:#181818;stroke-width:1.0;"/><line style="stroke:#181818;stroke-width:1.0;" x1="739.042" x2="996.5264" y1="694.7344" y2="694.7344"/><text fill="#000000" font-family="sans-serif" font-size="13" lengthAdjust="spacing" textLength="137.9727" x="746.042" y="689.8779">INSERT INTO suppliers</text><polygon fill="#181818" points="750.042,721.0859,740.042,725.0859,750.042,729.0859,746.042,725.0859" style="stroke:#181818;stroke-width:1.0;"/><line style="stroke:#181818;stroke-width:1.0;stroke-dasharray:2.0,2.0;" x1="744.042" x2="1001.5264" y1="725.0859" y2="725.0859"/><text fill="#000000" font-family="sans-serif" font-size="13" lengthAdjust="spacing" textLength="77.3271" x="756.042" y="720.2295">Supplier baru</text><polygon fill="#181818" points="292.1445,751.4375,282.1445,755.4375,292.1445,759.4375,288.1445,755.4375" style="stroke:#181818;stroke-width:1.0;"/><line style="stroke:#181818;stroke-width:1.0;stroke-dasharray:2.0,2.0;" x1="286.1445" x2="511.5161" y1="755.4375" y2="755.4375"/><text fill="#000000" font-family="sans-serif" font-size="13" lengthAdjust="spacing" textLength="207.3716" x="298.1445" y="750.5811">Notifikasi sukses &amp; daftar diperbarui</text><rect fill="#EEEEEE" height="3" style="stroke:#EEEEEE;stroke-width:1.0;" width="1055.4917" x="0" y="791.6133"/><line style="stroke:#000000;stroke-width:1.0;" x1="0" x2="1055.4917" y1="791.6133" y2="791.6133"/><line style="stroke:#000000;stroke-width:1.0;" x1="0" x2="1055.4917" y1="794.6133" y2="794.6133"/><rect fill="#EEEEEE" height="24.3516" style="stroke:#000000;stroke-width:2.0;" width="105.73" x="474.8809" y="780.4375"/><text fill="#000000" font-family="sans-serif" font-size="13" font-weight="bold" lengthAdjust="spacing" textLength="88.1182" x="480.8809" y="797.9326">Ubah Supplier</text><polygon fill="#181818" points="269.1445,833.1406,279.1445,837.1406,269.1445,841.1406,273.1445,837.1406" style="stroke:#181818;stroke-width:1.0;"/><line style="stroke:#181818;stroke-width:1.0;" x1="73.5894" x2="275.1445" y1="837.1406" y2="837.1406"/><text fill="#000000" font-family="sans-serif" font-size="13" lengthAdjust="spacing" textLength="183.5552" x="80.5894" y="832.2842">Klik edit, ubah data, lalu simpan</text><polygon fill="#181818" points="500.5161,863.4922,510.5161,867.4922,500.5161,871.4922,504.5161,867.4922" style="stroke:#181818;stroke-width:1.0;"/><line style="stroke:#181818;stroke-width:1.0;" x1="281.1445" x2="506.5161" y1="867.4922" y2="867.4922"/><text fill="#000000" font-family="sans-serif" font-size="13" lengthAdjust="spacing" textLength="90.3081" x="288.1445" y="862.6357">edit($id), save()</text><polygon fill="#181818" points="727.042,893.8438,737.042,897.8438,727.042,901.8438,731.042,897.8438" style="stroke:#181818;stroke-width:1.0;"/><line style="stroke:#181818;stroke-width:1.0;" x1="512.5161" x2="733.042" y1="897.8438" y2="897.8438"/><text fill="#000000" font-family="sans-serif" font-size="13" lengthAdjust="spacing" textLength="137.2744" x="519.5161" y="892.9873">Supplier::findOrFail($id)</text><polygon fill="#181818" points="990.5264,924.1953,1000.5264,928.1953,990.5264,932.1953,994.5264,928.1953" style="stroke:#181818;stroke-width:1.0;"/><line style="stroke:#181818;stroke-width:1.0;" x1="739.042" x2="996.5264" y1="928.1953" y2="928.1953"/><text fill="#000000" font-family="sans-serif" font-size="13" lengthAdjust="spacing" textLength="193.9844" x="746.042" y="923.3389">SELECT suppliers WHERE id = ?</text><polygon fill="#181818" points="750.042,954.5469,740.042,958.5469,750.042,962.5469,746.042,958.5469" style="stroke:#181818;stroke-width:1.0;"/><line style="stroke:#181818;stroke-width:1.0;stroke-dasharray:2.0,2.0;" x1="744.042" x2="1001.5264" y1="958.5469" y2="958.5469"/><text fill="#000000" font-family="sans-serif" font-size="13" lengthAdjust="spacing" textLength="88.1563" x="756.042" y="953.6904">Supplier record</text><line style="stroke:#181818;stroke-width:1.0;" x1="512.5161" x2="554.5161" y1="988.8984" y2="988.8984"/><line style="stroke:#181818;stroke-width:1.0;" x1="554.5161" x2="554.5161" y1="988.8984" y2="1001.8984"/><line style="stroke:#181818;stroke-width:1.0;" x1="513.5161" x2="554.5161" y1="1001.8984" y2="1001.8984"/><polygon fill="#181818" points="523.5161,997.8984,513.5161,1001.8984,523.5161,1005.8984,519.5161,1001.8984" style="stroke:#181818;stroke-width:1.0;"/><text fill="#000000" font-family="sans-serif" font-size="13" lengthAdjust="spacing" textLength="177.0615" x="519.5161" y="984.042">validate &amp; handle gambar baru</text><polygon fill="#181818" points="727.042,1028.25,737.042,1032.25,727.042,1036.25,731.042,1032.25" style="stroke:#181818;stroke-width:1.0;"/><line style="stroke:#181818;stroke-width:1.0;" x1="512.5161" x2="733.042" y1="1032.25" y2="1032.25"/><text fill="#000000" font-family="sans-serif" font-size="13" lengthAdjust="spacing" textLength="131.1553" x="519.5161" y="1027.3936">$supplier-&gt;update([...])</text><polygon fill="#181818" points="990.5264,1058.6016,1000.5264,1062.6016,990.5264,1066.6016,994.5264,1062.6016" style="stroke:#181818;stroke-width:1.0;"/><line style="stroke:#181818;stroke-width:1.0;" x1="739.042" x2="996.5264" y1="1062.6016" y2="1062.6016"/><text fill="#000000" font-family="sans-serif" font-size="13" lengthAdjust="spacing" textLength="239.4844" x="746.042" y="1057.7451">UPDATE suppliers SET ... WHERE id = ?</text><polygon fill="#181818" points="292.1445,1088.9531,282.1445,1092.9531,292.1445,1096.9531,288.1445,1092.9531" style="stroke:#181818;stroke-width:1.0;"/><line style="stroke:#181818;stroke-width:1.0;stroke-dasharray:2.0,2.0;" x1="286.1445" x2="511.5161" y1="1092.9531" y2="1092.9531"/><text fill="#000000" font-family="sans-serif" font-size="13" lengthAdjust="spacing" textLength="96.8081" x="298.1445" y="1088.0967">Notifikasi sukses</text><!--SRC=[ZLDTRzem57tthxX2rG09kchhmnGDfW6fMlLJV7GFOveksC0TZfqv2Uq3FtutBea8ecjV8Ba-npdd-3YbL2kOzDjdvm5SAsqrmYYBOqtA2O7pr3gezN19QE3AR9JX0TK04vWaZ8ZHfJId64qAjKlK636ku4zDGzD6FP5J7vFThEcvZwIUgjoICxsmBcBcpOxvGkZRABQ6ltwS1RTMAksHnSXFXCGKPvWeg0rsJnuqw0cHwuTsrsi9u5P5isoDK0eL-JnVBpyTG6GpapQQeXpbwuDU0AFm9koFeU0cOj23TfNRjrghUKhMV2qaTlStAfKCbP6iJE8YHLTkAKId0sECPhWgBKAdS-3YMjFw43Kr6dK6b10iE5hmRmb5dE0nZmbkrA75lUKDQk9GLUDdtM2awfrktQc_6H-Kt4PaWi_rrjJKunN3ypMJQOqphVmqmZZvhScizrUscTD-bI9SLZXRFzb6-1nyEZl_Kl_L5AXJUFGAsCqIbwW5mB4G7rJ2HLpphyOLFsrs98Q_U6Pa7bsGfnMJNZD6EMUTK9hRqbDknUY3tIj1NAAHV7EoM5kKh8KpT_27k48eyP1NAMLGlWR1t2aVvkdfATk3Ah1erzNTA1oE-MzylrSnW5t9NjaSM53sIZntDgK5Q-KKasoTg0G-58MJ52kNKqbm4Ntj9kyedPAKjY3BaVcTQxrLinpVE27PR1rjtAk1BSZ8UtU1f3rR70tiy3h2Zyjm6099wC0tyKPiJisjaszU04vizLA1tTdxkFzdugJGq-vciTmxzgCU9W-3x-DmpyCe70FZgrxUTRZY7m00]--></g></svg>