<svg xmlns="http://www.w3.org/2000/svg" xmlns:xlink="http://www.w3.org/1999/xlink" contentStyleType="text/css" height="892px" preserveAspectRatio="none" style="width:946px;height:892px;background:#FFFFFF;" version="1.1" viewBox="0 0 946 892" width="946px" zoomAndPan="magnify"><title>UC-01: Login dan Logout</title><defs/><g><text fill="#000000" font-family="sans-serif" font-size="14" font-weight="bold" lengthAdjust="spacing" textLength="167.1934" x="385.8767" y="29.5332">UC-01: Login dan Logout</text><rect fill="none" height="155.5938" style="stroke:#000000;stroke-width:1.5;" width="592.1436" x="10" y="441.7344"/><line style="stroke:#181818;stroke-width:0.5;stroke-dasharray:5.0,5.0;" x1="54" x2="54" y1="121.2188" y2="810.4375"/><line style="stroke:#181818;stroke-width:0.5;stroke-dasharray:5.0,5.0;" x1="345.9707" x2="345.9707" y1="121.2188" y2="810.4375"/><line style="stroke:#181818;stroke-width:0.5;stroke-dasharray:5.0,5.0;" x1="537.1992" x2="537.1992" y1="121.2188" y2="810.4375"/><line style="stroke:#181818;stroke-width:0.5;stroke-dasharray:5.0,5.0;" x1="682.4966" x2="682.4966" y1="121.2188" y2="810.4375"/><line style="stroke:#181818;stroke-width:0.5;stroke-dasharray:5.0,5.0;" x1="901.0161" x2="901.0161" y1="121.2188" y2="810.4375"/><text fill="#000000" font-family="sans-serif" font-size="14" lengthAdjust="spacing" textLength="63.8408" x="20" y="118.1426">Pengguna</text><ellipse cx="54.9204" cy="52.1094" fill="#E2E2F0" rx="8" ry="8" style="stroke:#181818;stroke-width:0.5;"/><path d="M54.9204,60.1094 L54.9204,87.1094 M41.9204,68.1094 L67.9204,68.1094 M54.9204,87.1094 L41.9204,102.1094 M54.9204,87.1094 L67.9204,102.1094 " fill="none" style="stroke:#181818;stroke-width:0.5;"/><text fill="#000000" font-family="sans-serif" font-size="14" lengthAdjust="spacing" textLength="63.8408" x="20" y="823.9707">Pengguna</text><ellipse cx="54.9204" cy="835.5469" fill="#E2E2F0" rx="8" ry="8" style="stroke:#181818;stroke-width:0.5;"/><path d="M54.9204,843.5469 L54.9204,870.5469 M41.9204,851.5469 L67.9204,851.5469 M54.9204,870.5469 L41.9204,885.5469 M54.9204,870.5469 L67.9204,885.5469 " fill="none" style="stroke:#181818;stroke-width:0.5;"/><rect fill="#E2E2F0" height="49.2188" rx="2.5" ry="2.5" style="stroke:#181818;stroke-width:0.5;" width="118.2959" x="286.9707" y="71"/><text fill="#000000" font-family="sans-serif" font-size="14" lengthAdjust="spacing" textLength="94.1719" x="299.0327" y="92.5332">Halaman Login</text><text fill="#000000" font-family="sans-serif" font-size="14" lengthAdjust="spacing" textLength="104.2959" x="293.9707" y="110.1426">(login.blade.php)</text><rect fill="#E2E2F0" height="49.2188" rx="2.5" ry="2.5" style="stroke:#181818;stroke-width:0.5;" width="118.2959" x="286.9707" y="809.4375"/><text fill="#000000" font-family="sans-serif" font-size="14" lengthAdjust="spacing" textLength="94.1719" x="299.0327" y="830.9707">Halaman Login</text><text fill="#000000" font-family="sans-serif" font-size="14" lengthAdjust="spacing" textLength="104.2959" x="293.9707" y="848.5801">(login.blade.php)</text><rect fill="#E2E2F0" height="49.2188" rx="2.5" ry="2.5" style="stroke:#181818;stroke-width:0.5;" width="108.9443" x="483.1992" y="71"/><text fill="#000000" font-family="sans-serif" font-size="14" lengthAdjust="spacing" textLength="94.9443" x="490.1992" y="92.5332">LoginController</text><text fill="#000000" font-family="sans-serif" font-size="14" lengthAdjust="spacing" textLength="91.8203" x="491.7612" y="110.1426">/ Livewire Auth</text><rect fill="#E2E2F0" height="49.2188" rx="2.5" ry="2.5" style="stroke:#181818;stroke-width:0.5;" width="108.9443" x="483.1992" y="809.4375"/><text fill="#000000" font-family="sans-serif" font-size="14" lengthAdjust="spacing" textLength="94.9443" x="490.1992" y="830.9707">LoginController</text><text fill="#000000" font-family="sans-serif" font-size="14" lengthAdjust="spacing" textLength="91.8203" x="491.7612" y="848.5801">/ Livewire Auth</text><rect fill="#E2E2F0" height="31.6094" rx="2.5" ry="2.5" style="stroke:#181818;stroke-width:0.5;" width="85.5791" x="640.4966" y="88.6094"/><text fill="#000000" font-family="sans-serif" font-size="14" lengthAdjust="spacing" textLength="71.5791" x="647.4966" y="110.1426">User Model</text><rect fill="#E2E2F0" height="31.6094" rx="2.5" ry="2.5" style="stroke:#181818;stroke-width:0.5;" width="85.5791" x="640.4966" y="809.4375"/><text fill="#000000" font-family="sans-serif" font-size="14" lengthAdjust="spacing" textLength="71.5791" x="647.4966" y="830.9707">User Model</text><text fill="#000000" font-family="sans-serif" font-size="14" lengthAdjust="spacing" textLength="59.9307" x="869.0161" y="118.1426">Database</text><path d="M883.9814,67.6094 C883.9814,57.6094 901.9814,57.6094 901.9814,57.6094 C901.9814,57.6094 919.9814,57.6094 919.9814,67.6094 L919.9814,93.6094 C919.9814,103.6094 901.9814,103.6094 901.9814,103.6094 C901.9814,103.6094 883.9814,103.6094 883.9814,93.6094 L883.9814,67.6094 " fill="#E2E2F0" style="stroke:#181818;stroke-width:1.5;"/><path d="M883.9814,67.6094 C883.9814,77.6094 901.9814,77.6094 901.9814,77.6094 C901.9814,77.6094 919.9814,77.6094 919.9814,67.6094 " fill="none" style="stroke:#181818;stroke-width:1.5;"/><text fill="#000000" font-family="sans-serif" font-size="14" lengthAdjust="spacing" textLength="59.9307" x="869.0161" y="823.9707">Database</text><path d="M883.9814,837.0469 C883.9814,827.0469 901.9814,827.0469 901.9814,827.0469 C901.9814,827.0469 919.9814,827.0469 919.9814,837.0469 L919.9814,863.0469 C919.9814,873.0469 901.9814,873.0469 901.9814,873.0469 C901.9814,873.0469 883.9814,873.0469 883.9814,863.0469 L883.9814,837.0469 " fill="#E2E2F0" style="stroke:#181818;stroke-width:1.5;"/><path d="M883.9814,837.0469 C883.9814,847.0469 901.9814,847.0469 901.9814,847.0469 C901.9814,847.0469 919.9814,847.0469 919.9814,837.0469 " fill="none" style="stroke:#181818;stroke-width:1.5;"/><rect fill="#EEEEEE" height="3" style="stroke:#EEEEEE;stroke-width:1.0;" width="939.9468" x="0" y="152.3945"/><line style="stroke:#000000;stroke-width:1.0;" x1="0" x2="939.9468" y1="152.3945" y2="152.3945"/><line style="stroke:#000000;stroke-width:1.0;" x1="0" x2="939.9468" y1="155.3945" y2="155.3945"/><rect fill="#EEEEEE" height="24.3516" style="stroke:#000000;stroke-width:2.0;" width="52.9873" x="443.4797" y="141.2188"/><text fill="#000000" font-family="sans-serif" font-size="13" font-weight="bold" lengthAdjust="spacing" textLength="35.3755" x="449.4797" y="158.7139">Login</text><polygon fill="#181818" points="334.1187,193.9219,344.1187,197.9219,334.1187,201.9219,338.1187,197.9219" style="stroke:#181818;stroke-width:1.0;"/><line style="stroke:#181818;stroke-width:1.0;" x1="54.9204" x2="340.1187" y1="197.9219" y2="197.9219"/><text fill="#000000" font-family="sans-serif" font-size="13" lengthAdjust="spacing" textLength="145.2471" x="61.9204" y="193.0654">Membuka halaman /login</text><polygon fill="#181818" points="65.9204,224.2734,55.9204,228.2734,65.9204,232.2734,61.9204,228.2734" style="stroke:#181818;stroke-width:1.0;"/><line style="stroke:#181818;stroke-width:1.0;stroke-dasharray:2.0,2.0;" x1="59.9204" x2="345.1187" y1="228.2734" y2="228.2734"/><text fill="#000000" font-family="sans-serif" font-size="13" lengthAdjust="spacing" textLength="138.0044" x="71.9204" y="223.417">Menampilkan form login</text><polygon fill="#181818" points="334.1187,270.9766,344.1187,274.9766,334.1187,278.9766,338.1187,274.9766" style="stroke:#181818;stroke-width:1.0;"/><line style="stroke:#181818;stroke-width:1.0;" x1="54.9204" x2="340.1187" y1="274.9766" y2="274.9766"/><text fill="#000000" font-family="sans-serif" font-size="13" lengthAdjust="spacing" textLength="151.0044" x="61.9204" y="253.7686">Mengisi email &amp; password</text><text fill="#000000" font-family="sans-serif" font-size="13" lengthAdjust="spacing" textLength="62.1372" x="61.9204" y="270.1201">lalu submit</text><polygon fill="#181818" points="525.6714,301.3281,535.6714,305.3281,525.6714,309.3281,529.6714,305.3281" style="stroke:#181818;stroke-width:1.0;"/><line style="stroke:#181818;stroke-width:1.0;" x1="346.1187" x2="531.6714" y1="305.3281" y2="305.3281"/><text fill="#000000" font-family="sans-serif" font-size="13" lengthAdjust="spacing" textLength="145.939" x="353.1187" y="300.4717">attempt(email, password)</text><polygon fill="#181818" points="671.2861,331.6797,681.2861,335.6797,671.2861,339.6797,675.2861,335.6797" style="stroke:#181818;stroke-width:1.0;"/><line style="stroke:#181818;stroke-width:1.0;" x1="537.6714" x2="677.2861" y1="335.6797" y2="335.6797"/><text fill="#000000" font-family="sans-serif" font-size="13" lengthAdjust="spacing" textLength="121.6147" x="544.6714" y="330.8232">where('email')-&gt;first()</text><polygon fill="#181818" points="889.9814,362.0313,899.9814,366.0313,889.9814,370.0313,893.9814,366.0313" style="stroke:#181818;stroke-width:1.0;"/><line style="stroke:#181818;stroke-width:1.0;" x1="683.2861" x2="895.9814" y1="366.0313" y2="366.0313"/><text fill="#000000" font-family="sans-serif" font-size="13" lengthAdjust="spacing" textLength="194.6953" x="690.2861" y="361.1748">SELECT users WHERE email = ?</text><polygon fill="#181818" points="694.2861,392.3828,684.2861,396.3828,694.2861,400.3828,690.2861,396.3828" style="stroke:#181818;stroke-width:1.0;"/><line style="stroke:#181818;stroke-width:1.0;stroke-dasharray:2.0,2.0;" x1="688.2861" x2="900.9814" y1="396.3828" y2="396.3828"/><text fill="#000000" font-family="sans-serif" font-size="13" lengthAdjust="spacing" textLength="67.9072" x="700.2861" y="391.5264">User record</text><polygon fill="#181818" points="548.6714,422.7344,538.6714,426.7344,548.6714,430.7344,544.6714,426.7344" style="stroke:#181818;stroke-width:1.0;"/><line style="stroke:#181818;stroke-width:1.0;stroke-dasharray:2.0,2.0;" x1="542.6714" x2="682.2861" y1="426.7344" y2="426.7344"/><text fill="#000000" font-family="sans-serif" font-size="13" lengthAdjust="spacing" textLength="79.479" x="554.6714" y="421.8779">User instance</text><path d="M10,441.7344 L70.1709,441.7344 L70.1709,450.0859 L60.1709,460.0859 L10,460.0859 L10,441.7344 " fill="#EEEEEE" style="stroke:#000000;stroke-width:1.5;"/><rect fill="none" height="155.5938" style="stroke:#000000;stroke-width:1.5;" width="592.1436" x="10" y="441.7344"/><text fill="#000000" font-family="sans-serif" font-size="13" font-weight="bold" lengthAdjust="spacing" textLength="15.1709" x="25" y="456.2295">alt</text><text fill="#000000" font-family="sans-serif" font-size="11" font-weight="bold" lengthAdjust="spacing" textLength="215.1714" x="85.1709" y="455.1533">[Email tidak ditemukan / password salah]</text><polygon fill="#181818" points="357.1187,478.4375,347.1187,482.4375,357.1187,486.4375,353.1187,482.4375" style="stroke:#181818;stroke-width:1.0;"/><line style="stroke:#181818;stroke-width:1.0;stroke-dasharray:2.0,2.0;" x1="351.1187" x2="536.6714" y1="482.4375" y2="482.4375"/><text fill="#000000" font-family="sans-serif" font-size="13" lengthAdjust="spacing" textLength="167.5527" x="363.1187" y="477.5811">Kembalikan error 'auth.failed'</text><polygon fill="#181818" points="65.9204,508.7891,55.9204,512.7891,65.9204,516.7891,61.9204,512.7891" style="stroke:#181818;stroke-width:1.0;"/><line style="stroke:#181818;stroke-width:1.0;stroke-dasharray:2.0,2.0;" x1="59.9204" x2="345.1187" y1="512.7891" y2="512.7891"/><text fill="#000000" font-family="sans-serif" font-size="13" lengthAdjust="spacing" textLength="267.1982" x="71.9204" y="507.9326">Tampilkan pesan "Email atau password salah"</text><line style="stroke:#000000;stroke-width:1.0;stroke-dasharray:2.0,2.0;" x1="10" x2="602.1436" y1="521.7891" y2="521.7891"/><text fill="#000000" font-family="sans-serif" font-size="11" font-weight="bold" lengthAdjust="spacing" textLength="82.5" x="15" y="533.208">[Login berhasil]</text><polygon fill="#181818" points="357.1187,554.9766,347.1187,558.9766,357.1187,562.9766,353.1187,558.9766" style="stroke:#181818;stroke-width:1.0;"/><line style="stroke:#181818;stroke-width:1.0;stroke-dasharray:2.0,2.0;" x1="351.1187" x2="536.6714" y1="558.9766" y2="558.9766"/><text fill="#000000" font-family="sans-serif" font-size="13" lengthAdjust="spacing" textLength="134.4116" x="363.1187" y="554.1201">Redirect ke /dashboard</text><polygon fill="#181818" points="65.9204,585.3281,55.9204,589.3281,65.9204,593.3281,61.9204,589.3281" style="stroke:#181818;stroke-width:1.0;"/><line style="stroke:#181818;stroke-width:1.0;stroke-dasharray:2.0,2.0;" x1="59.9204" x2="345.1187" y1="589.3281" y2="589.3281"/><text fill="#000000" font-family="sans-serif" font-size="13" lengthAdjust="spacing" textLength="178.4961" x="71.9204" y="584.4717">Tampilkan halaman dashboard</text><rect fill="#EEEEEE" height="3" style="stroke:#EEEEEE;stroke-width:1.0;" width="939.9468" x="0" y="625.5039"/><line style="stroke:#000000;stroke-width:1.0;" x1="0" x2="939.9468" y1="625.5039" y2="625.5039"/><line style="stroke:#000000;stroke-width:1.0;" x1="0" x2="939.9468" y1="628.5039" y2="628.5039"/><rect fill="#EEEEEE" height="24.3516" style="stroke:#000000;stroke-width:2.0;" width="61.6455" x="439.1506" y="614.3281"/><text fill="#000000" font-family="sans-serif" font-size="13" font-weight="bold" lengthAdjust="spacing" textLength="44.0337" x="445.1506" y="631.8232">Logout</text><polygon fill="#181818" points="334.1187,667.0313,344.1187,671.0313,334.1187,675.0313,338.1187,671.0313" style="stroke:#181818;stroke-width:1.0;"/><line style="stroke:#181818;stroke-width:1.0;" x1="54.9204" x2="340.1187" y1="671.0313" y2="671.0313"/><text fill="#000000" font-family="sans-serif" font-size="13" lengthAdjust="spacing" textLength="139.4834" x="61.9204" y="666.1748">Menekan tombol Logout</text><polygon fill="#181818" points="525.6714,697.3828,535.6714,701.3828,525.6714,705.3828,529.6714,701.3828" style="stroke:#181818;stroke-width:1.0;"/><line style="stroke:#181818;stroke-width:1.0;" x1="346.1187" x2="531.6714" y1="701.3828" y2="701.3828"/><text fill="#000000" font-family="sans-serif" font-size="13" lengthAdjust="spacing" textLength="44.0781" x="353.1187" y="696.5264">logout()</text><polygon fill="#181818" points="889.9814,727.7344,899.9814,731.7344,889.9814,735.7344,893.9814,731.7344" style="stroke:#181818;stroke-width:1.0;"/><line style="stroke:#181818;stroke-width:1.0;" x1="537.6714" x2="895.9814" y1="731.7344" y2="731.7344"/><text fill="#000000" font-family="sans-serif" font-size="13" lengthAdjust="spacing" textLength="103.3398" x="544.6714" y="726.8779">Invalidate session</text><polygon fill="#181818" points="357.1187,758.0859,347.1187,762.0859,357.1187,766.0859,353.1187,762.0859" style="stroke:#181818;stroke-width:1.0;"/><line style="stroke:#181818;stroke-width:1.0;stroke-dasharray:2.0,2.0;" x1="351.1187" x2="536.6714" y1="762.0859" y2="762.0859"/><text fill="#000000" font-family="sans-serif" font-size="13" lengthAdjust="spacing" textLength="100.439" x="363.1187" y="757.2295">Redirect ke /login</text><polygon fill="#181818" points="65.9204,788.4375,55.9204,792.4375,65.9204,796.4375,61.9204,792.4375" style="stroke:#181818;stroke-width:1.0;"/><line style="stroke:#181818;stroke-width:1.0;stroke-dasharray:2.0,2.0;" x1="59.9204" x2="345.1187" y1="792.4375" y2="792.4375"/><text fill="#000000" font-family="sans-serif" font-size="13" lengthAdjust="spacing" textLength="144.5234" x="71.9204" y="787.5811">Tampilkan halaman login</text><!--SRC=[VLF1Zjem4BtxAqOvB44gq5wHe2eGQLTbfMgxsrwuJF10HZXsP3lBxzTsGhOigxs04xytyzxCYsUl25xMaw_Vvh0rHzOWKSUJQRqGkFV6GlQBzF7OQim07Rmuig91wtdF3MeFsJqgh3iMwvtELVoVbWebJPkg6IVQ7wRpDIt1rqPxQvGYkzCpsF8hdTaI_6XzbMZnS4sB_U7HI5A3dFGa97eiqH5ac_wK09kL48j5Rswn48a_MIP1StYakcnF25NlOPR4YtW9au2Aw8ZIM3UiJW5nCBQ63dLJIn_PCL2DhE0E6dJkRApSQOMg1TUMDVk-z38vcmDwJtNZyyJvCb368bv3Bo3vcyEv8alvA457uydomDRvV2m6ICHlLdFuNMoBzJEquRs3l_V5Kz5hMi1tiLaDnlgwoOMbVUZxVwr1OxfdxJpgFOLGA0z5AkTPuWaa1mjj7Criq0ykpBCI09sDOKG_mxXHSGIJjI5R8mo0wI5K8paA-7U3Vnx6tf0BlrdNEEotVTSh4wJ2xhirbsGhTAnk1JoH3FdQUpWHp2IwgZGOR7_I-9ACDp1fUObK-4e-ofIcoFIcBeswV4pNUrVfPVwsvxYt1_qQXXDoJE38EJPQV2R_mwZU2kzW_m00]--></g></svg>