<svg xmlns="http://www.w3.org/2000/svg" xmlns:xlink="http://www.w3.org/1999/xlink" contentStyleType="text/css" height="1793px" preserveAspectRatio="none" style="width:1958px;height:1793px;background:#FFFFFF;" version="1.1" viewBox="0 0 1958 1793" width="1958px" zoomAndPan="magnify"><title>UC-06: Kelola Belanja</title><defs/><g><text fill="#000000" font-family="sans-serif" font-size="14" font-weight="bold" lengthAdjust="spacing" textLength="144.71" x="902.9714" y="29.5332">UC-06: Kelola Belanja</text><rect fill="none" height="216.2969" style="stroke:#000000;stroke-width:1.5;" width="1708.5576" x="223.0952" y="471.0859"/><rect fill="none" height="79.0547" style="stroke:#000000;stroke-width:1.5;" width="1272.5684" x="659.0845" y="1004.8984"/><rect fill="none" height="370.0547" style="stroke:#000000;stroke-width:1.5;" width="1292.5684" x="649.0845" y="1294.0625"/><rect fill="none" height="200.4609" style="stroke:#000000;stroke-width:1.5;" width="1272.5684" x="659.0845" y="1395.9531"/><line style="stroke:#181818;stroke-width:0.5;stroke-dasharray:5.0,5.0;" x1="58" x2="58" y1="121.2188" y2="1711.4688"/><line style="stroke:#181818;stroke-width:0.5;stroke-dasharray:5.0,5.0;" x1="296.0952" x2="296.0952" y1="121.2188" y2="1711.4688"/><line style="stroke:#181818;stroke-width:0.5;stroke-dasharray:5.0,5.0;" x1="515.439" x2="515.439" y1="121.2188" y2="1711.4688"/><line style="stroke:#181818;stroke-width:0.5;stroke-dasharray:5.0,5.0;" x1="721.0845" x2="721.0845" y1="121.2188" y2="1711.4688"/><line style="stroke:#181818;stroke-width:0.5;stroke-dasharray:5.0,5.0;" x1="1101.4121" x2="1101.4121" y1="121.2188" y2="1711.4688"/><line style="stroke:#181818;stroke-width:0.5;stroke-dasharray:5.0,5.0;" x1="1239.915" x2="1239.915" y1="121.2188" y2="1711.4688"/><line style="stroke:#181818;stroke-width:0.5;stroke-dasharray:5.0,5.0;" x1="1393.2109" x2="1393.2109" y1="121.2188" y2="1711.4688"/><line style="stroke:#181818;stroke-width:0.5;stroke-dasharray:5.0,5.0;" x1="1544.8242" x2="1544.8242" y1="121.2188" y2="1711.4688"/><line style="stroke:#181818;stroke-width:0.5;stroke-dasharray:5.0,5.0;" x1="1694.4307" x2="1694.4307" y1="121.2188" y2="1711.4688"/><line style="stroke:#181818;stroke-width:0.5;stroke-dasharray:5.0,5.0;" x1="1887.7222" x2="1887.7222" y1="121.2188" y2="1711.4688"/><text fill="#000000" font-family="sans-serif" font-size="14" lengthAdjust="spacing" textLength="101.1787" x="5" y="118.1426">Bagian Inventori</text><ellipse cx="58.5894" cy="52.1094" fill="#E2E2F0" rx="8" ry="8" style="stroke:#181818;stroke-width:0.5;"/><path d="M58.5894,60.1094 L58.5894,87.1094 M45.5894,68.1094 L71.5894,68.1094 M58.5894,87.1094 L45.5894,102.1094 M58.5894,87.1094 L71.5894,102.1094 " fill="none" style="stroke:#181818;stroke-width:0.5;"/><text fill="#000000" font-family="sans-serif" font-size="14" lengthAdjust="spacing" textLength="101.1787" x="5" y="1725.002">Bagian Inventori</text><ellipse cx="58.5894" cy="1736.5781" fill="#E2E2F0" rx="8" ry="8" style="stroke:#181818;stroke-width:0.5;"/><path d="M58.5894,1744.5781 L58.5894,1771.5781 M45.5894,1752.5781 L71.5894,1752.5781 M58.5894,1771.5781 L45.5894,1786.5781 M58.5894,1771.5781 L71.5894,1786.5781 " fill="none" style="stroke:#181818;stroke-width:0.5;"/><rect fill="#E2E2F0" height="49.2188" rx="2.5" ry="2.5" style="stroke:#181818;stroke-width:0.5;" width="126.8203" x="233.0952" y="71"/><text fill="#000000" font-family="sans-serif" font-size="14" lengthAdjust="spacing" textLength="106.6201" x="243.1953" y="92.5332">Halaman Belanja</text><text fill="#000000" font-family="sans-serif" font-size="14" lengthAdjust="spacing" textLength="112.8203" x="240.0952" y="110.1426">(livewire/expense)</text><rect fill="#E2E2F0" height="49.2188" rx="2.5" ry="2.5" style="stroke:#181818;stroke-width:0.5;" width="126.8203" x="233.0952" y="1710.4688"/><text fill="#000000" font-family="sans-serif" font-size="14" lengthAdjust="spacing" textLength="106.6201" x="243.1953" y="1732.002">Halaman Belanja</text><text fill="#000000" font-family="sans-serif" font-size="14" lengthAdjust="spacing" textLength="112.8203" x="240.0952" y="1749.6113">(livewire/expense)</text><rect fill="#E2E2F0" height="49.2188" rx="2.5" ry="2.5" style="stroke:#181818;stroke-width:0.5;" width="105.0342" x="463.439" y="71"/><text fill="#000000" font-family="sans-serif" font-size="14" lengthAdjust="spacing" textLength="91.0342" x="470.439" y="92.5332">Expense\Form</text><text fill="#000000" font-family="sans-serif" font-size="14" lengthAdjust="spacing" textLength="60.6758" x="485.6182" y="110.1426">(Livewire)</text><rect fill="#E2E2F0" height="49.2188" rx="2.5" ry="2.5" style="stroke:#181818;stroke-width:0.5;" width="105.0342" x="463.439" y="1710.4688"/><text fill="#000000" font-family="sans-serif" font-size="14" lengthAdjust="spacing" textLength="91.0342" x="470.439" y="1732.002">Expense\Form</text><text fill="#000000" font-family="sans-serif" font-size="14" lengthAdjust="spacing" textLength="60.6758" x="485.6182" y="1749.6113">(Livewire)</text><rect fill="#E2E2F0" height="49.2188" rx="2.5" ry="2.5" style="stroke:#181818;stroke-width:0.5;" width="105.8271" x="669.0845" y="71"/><text fill="#000000" font-family="sans-serif" font-size="14" lengthAdjust="spacing" textLength="91.8271" x="676.0845" y="92.5332">Expense\Mulai</text><text fill="#000000" font-family="sans-serif" font-size="14" lengthAdjust="spacing" textLength="60.6758" x="691.6602" y="110.1426">(Livewire)</text><rect fill="#E2E2F0" height="49.2188" rx="2.5" ry="2.5" style="stroke:#181818;stroke-width:0.5;" width="105.8271" x="669.0845" y="1710.4688"/><text fill="#000000" font-family="sans-serif" font-size="14" lengthAdjust="spacing" textLength="91.8271" x="676.0845" y="1732.002">Expense\Mulai</text><text fill="#000000" font-family="sans-serif" font-size="14" lengthAdjust="spacing" textLength="60.6758" x="691.6602" y="1749.6113">(Livewire)</text><rect fill="#E2E2F0" height="31.6094" rx="2.5" ry="2.5" style="stroke:#181818;stroke-width:0.5;" width="110.5029" x="1046.4121" y="88.6094"/><text fill="#000000" font-family="sans-serif" font-size="14" lengthAdjust="spacing" textLength="96.5029" x="1053.4121" y="110.1426">Expense Model</text><rect fill="#E2E2F0" height="31.6094" rx="2.5" ry="2.5" style="stroke:#181818;stroke-width:0.5;" width="110.5029" x="1046.4121" y="1710.4688"/><text fill="#000000" font-family="sans-serif" font-size="14" lengthAdjust="spacing" textLength="96.5029" x="1053.4121" y="1732.002">Expense Model</text><rect fill="#E2E2F0" height="31.6094" rx="2.5" ry="2.5" style="stroke:#181818;stroke-width:0.5;" width="146.2959" x="1166.915" y="88.6094"/><text fill="#000000" font-family="sans-serif" font-size="14" lengthAdjust="spacing" textLength="132.2959" x="1173.915" y="110.1426">ExpenseDetail Model</text><rect fill="#E2E2F0" height="31.6094" rx="2.5" ry="2.5" style="stroke:#181818;stroke-width:0.5;" width="146.2959" x="1166.915" y="1710.4688"/><text fill="#000000" font-family="sans-serif" font-size="14" lengthAdjust="spacing" textLength="132.2959" x="1173.915" y="1732.002">ExpenseDetail Model</text><rect fill="#E2E2F0" height="31.6094" rx="2.5" ry="2.5" style="stroke:#181818;stroke-width:0.5;" width="141.6133" x="1323.2109" y="88.6094"/><text fill="#000000" font-family="sans-serif" font-size="14" lengthAdjust="spacing" textLength="127.6133" x="1330.2109" y="110.1426">MaterialBatch Model</text><rect fill="#E2E2F0" height="31.6094" rx="2.5" ry="2.5" style="stroke:#181818;stroke-width:0.5;" width="141.6133" x="1323.2109" y="1710.4688"/><text fill="#000000" font-family="sans-serif" font-size="14" lengthAdjust="spacing" textLength="127.6133" x="1330.2109" y="1732.002">MaterialBatch Model</text><rect fill="#E2E2F0" height="31.6094" rx="2.5" ry="2.5" style="stroke:#181818;stroke-width:0.5;" width="141.6064" x="1474.8242" y="88.6094"/><text fill="#000000" font-family="sans-serif" font-size="14" lengthAdjust="spacing" textLength="127.6064" x="1481.8242" y="110.1426">MaterialDetail Model</text><rect fill="#E2E2F0" height="31.6094" rx="2.5" ry="2.5" style="stroke:#181818;stroke-width:0.5;" width="141.6064" x="1474.8242" y="1710.4688"/><text fill="#000000" font-family="sans-serif" font-size="14" lengthAdjust="spacing" textLength="127.6064" x="1481.8242" y="1732.002">MaterialDetail Model</text><rect fill="#E2E2F0" height="31.6094" rx="2.5" ry="2.5" style="stroke:#181818;stroke-width:0.5;" width="136.9648" x="1626.4307" y="88.6094"/><text fill="#000000" font-family="sans-serif" font-size="14" lengthAdjust="spacing" textLength="122.9648" x="1633.4307" y="110.1426">InventoryLog Model</text><rect fill="#E2E2F0" height="31.6094" rx="2.5" ry="2.5" style="stroke:#181818;stroke-width:0.5;" width="136.9648" x="1626.4307" y="1710.4688"/><text fill="#000000" font-family="sans-serif" font-size="14" lengthAdjust="spacing" textLength="122.9648" x="1633.4307" y="1732.002">InventoryLog Model</text><text fill="#000000" font-family="sans-serif" font-size="14" lengthAdjust="spacing" textLength="59.9307" x="1855.7222" y="118.1426">Database</text><path d="M1870.6875,67.6094 C1870.6875,57.6094 1888.6875,57.6094 1888.6875,57.6094 C1888.6875,57.6094 1906.6875,57.6094 1906.6875,67.6094 L1906.6875,93.6094 C1906.6875,103.6094 1888.6875,103.6094 1888.6875,103.6094 C1888.6875,103.6094 1870.6875,103.6094 1870.6875,93.6094 L1870.6875,67.6094 " fill="#E2E2F0" style="stroke:#181818;stroke-width:1.5;"/><path d="M1870.6875,67.6094 C1870.6875,77.6094 1888.6875,77.6094 1888.6875,77.6094 C1888.6875,77.6094 1906.6875,77.6094 1906.6875,67.6094 " fill="none" style="stroke:#181818;stroke-width:1.5;"/><text fill="#000000" font-family="sans-serif" font-size="14" lengthAdjust="spacing" textLength="59.9307" x="1855.7222" y="1725.002">Database</text><path d="M1870.6875,1738.0781 C1870.6875,1728.0781 1888.6875,1728.0781 1888.6875,1728.0781 C1888.6875,1728.0781 1906.6875,1728.0781 1906.6875,1738.0781 L1906.6875,1764.0781 C1906.6875,1774.0781 1888.6875,1774.0781 1888.6875,1774.0781 C1888.6875,1774.0781 1870.6875,1774.0781 1870.6875,1764.0781 L1870.6875,1738.0781 " fill="#E2E2F0" style="stroke:#181818;stroke-width:1.5;"/><path d="M1870.6875,1738.0781 C1870.6875,1748.0781 1888.6875,1748.0781 1888.6875,1748.0781 C1888.6875,1748.0781 1906.6875,1748.0781 1906.6875,1738.0781 " fill="none" style="stroke:#181818;stroke-width:1.5;"/><rect fill="#EEEEEE" height="3" style="stroke:#EEEEEE;stroke-width:1.0;" width="1951.6528" x="0" y="152.3945"/><line style="stroke:#000000;stroke-width:1.0;" x1="0" x2="1951.6528" y1="152.3945" y2="152.3945"/><line style="stroke:#000000;stroke-width:1.0;" x1="0" x2="1951.6528" y1="155.3945" y2="155.3945"/><rect fill="#EEEEEE" height="24.3516" style="stroke:#000000;stroke-width:2.0;" width="182.3271" x="884.6628" y="141.2188"/><text fill="#000000" font-family="sans-serif" font-size="13" font-weight="bold" lengthAdjust="spacing" textLength="164.7153" x="890.6628" y="158.7139">Membuat Rencana Belanja</text><polygon fill="#181818" points="284.5054,193.9219,294.5054,197.9219,284.5054,201.9219,288.5054,197.9219" style="stroke:#181818;stroke-width:1.0;"/><line style="stroke:#181818;stroke-width:1.0;" x1="58.5894" x2="290.5054" y1="197.9219" y2="197.9219"/><text fill="#000000" font-family="sans-serif" font-size="13" lengthAdjust="spacing" textLength="194.7461" x="65.5894" y="193.0654">Membuka /belanja &#8594; klik Tambah</text><polygon fill="#181818" points="503.9561,224.2734,513.9561,228.2734,503.9561,232.2734,507.9561,228.2734" style="stroke:#181818;stroke-width:1.0;"/><line style="stroke:#181818;stroke-width:1.0;" x1="296.5054" x2="509.9561" y1="228.2734" y2="228.2734"/><text fill="#000000" font-family="sans-serif" font-size="13" lengthAdjust="spacing" textLength="44.7891" x="303.5054" y="223.417">mount()</text><polygon fill="#181818" points="1876.6875,254.625,1886.6875,258.625,1876.6875,262.625,1880.6875,258.625" style="stroke:#181818;stroke-width:1.0;"/><line style="stroke:#181818;stroke-width:1.0;" x1="515.9561" x2="1882.6875" y1="258.625" y2="258.625"/><text fill="#000000" font-family="sans-serif" font-size="13" lengthAdjust="spacing" textLength="200.8525" x="522.9561" y="253.7686">SELECT suppliers, materials, units</text><polygon fill="#181818" points="526.9561,284.9766,516.9561,288.9766,526.9561,292.9766,522.9561,288.9766" style="stroke:#181818;stroke-width:1.0;"/><line style="stroke:#181818;stroke-width:1.0;stroke-dasharray:2.0,2.0;" x1="520.9561" x2="1887.6875" y1="288.9766" y2="288.9766"/><text fill="#000000" font-family="sans-serif" font-size="13" lengthAdjust="spacing" textLength="81.6499" x="532.9561" y="284.1201">Data referensi</text><polygon fill="#181818" points="307.5054,315.3281,297.5054,319.3281,307.5054,323.3281,303.5054,319.3281" style="stroke:#181818;stroke-width:1.0;"/><line style="stroke:#181818;stroke-width:1.0;stroke-dasharray:2.0,2.0;" x1="301.5054" x2="514.9561" y1="319.3281" y2="319.3281"/><text fill="#000000" font-family="sans-serif" font-size="13" lengthAdjust="spacing" textLength="164.7471" x="313.5054" y="314.4717">Tampil form rencana belanja</text><polygon fill="#181818" points="284.5054,362.0313,294.5054,366.0313,284.5054,370.0313,288.5054,366.0313" style="stroke:#181818;stroke-width:1.0;"/><line style="stroke:#181818;stroke-width:1.0;" x1="58.5894" x2="290.5054" y1="366.0313" y2="366.0313"/><text fill="#000000" font-family="sans-serif" font-size="13" lengthAdjust="spacing" textLength="170.5234" x="65.5894" y="344.8232">Pilih supplier, isi item belanja,</text><text fill="#000000" font-family="sans-serif" font-size="13" lengthAdjust="spacing" textLength="90.3145" x="65.5894" y="361.1748">lalu klik Simpan</text><polygon fill="#181818" points="503.9561,392.3828,513.9561,396.3828,503.9561,400.3828,507.9561,396.3828" style="stroke:#181818;stroke-width:1.0;"/><line style="stroke:#181818;stroke-width:1.0;" x1="296.5054" x2="509.9561" y1="396.3828" y2="396.3828"/><text fill="#000000" font-family="sans-serif" font-size="13" lengthAdjust="spacing" textLength="36.1182" x="303.5054" y="391.5264">save()</text><line style="stroke:#181818;stroke-width:1.0;" x1="515.9561" x2="557.9561" y1="443.0859" y2="443.0859"/><line style="stroke:#181818;stroke-width:1.0;" x1="557.9561" x2="557.9561" y1="443.0859" y2="456.0859"/><line style="stroke:#181818;stroke-width:1.0;" x1="516.9561" x2="557.9561" y1="456.0859" y2="456.0859"/><polygon fill="#181818" points="526.9561,452.0859,516.9561,456.0859,526.9561,460.0859,522.9561,456.0859" style="stroke:#181818;stroke-width:1.0;"/><text fill="#000000" font-family="sans-serif" font-size="13" lengthAdjust="spacing" textLength="192.042" x="522.9561" y="421.8779">validate(['supplier_id'=&gt;'required',</text><text fill="#000000" font-family="sans-serif" font-size="13" lengthAdjust="spacing" textLength="146.9736" x="522.9561" y="438.2295">'items'=&gt;'required|min:1'])</text><path d="M223.0952,471.0859 L283.2661,471.0859 L283.2661,479.4375 L273.2661,489.4375 L223.0952,489.4375 L223.0952,471.0859 " fill="#EEEEEE" style="stroke:#000000;stroke-width:1.5;"/><rect fill="none" height="216.2969" style="stroke:#000000;stroke-width:1.5;" width="1708.5576" x="223.0952" y="471.0859"/><text fill="#000000" font-family="sans-serif" font-size="13" font-weight="bold" lengthAdjust="spacing" textLength="15.1709" x="238.0952" y="485.5811">alt</text><text fill="#000000" font-family="sans-serif" font-size="11" font-weight="bold" lengthAdjust="spacing" textLength="80.6899" x="298.2661" y="484.5049">[Validasi gagal]</text><polygon fill="#181818" points="307.5054,507.7891,297.5054,511.7891,307.5054,515.7891,303.5054,511.7891" style="stroke:#181818;stroke-width:1.0;"/><line style="stroke:#181818;stroke-width:1.0;stroke-dasharray:2.0,2.0;" x1="301.5054" x2="514.9561" y1="511.7891" y2="511.7891"/><text fill="#000000" font-family="sans-serif" font-size="13" lengthAdjust="spacing" textLength="99.7407" x="313.5054" y="506.9326">Pesan kesalahan</text><line style="stroke:#000000;stroke-width:1.0;stroke-dasharray:2.0,2.0;" x1="223.0952" x2="1931.6528" y1="520.7891" y2="520.7891"/><text fill="#000000" font-family="sans-serif" font-size="11" font-weight="bold" lengthAdjust="spacing" textLength="50.7354" x="228.0952" y="532.208">[Berhasil]</text><polygon fill="#181818" points="1089.6636,553.9766,1099.6636,557.9766,1089.6636,561.9766,1093.6636,557.9766" style="stroke:#181818;stroke-width:1.0;"/><line style="stroke:#181818;stroke-width:1.0;" x1="515.9561" x2="1095.6636" y1="557.9766" y2="557.9766"/><text fill="#000000" font-family="sans-serif" font-size="13" lengthAdjust="spacing" textLength="336.4575" x="522.9561" y="553.1201">Expense::create(['expense_number'=&gt;..., 'status'=&gt;'Draft'])</text><polygon fill="#181818" points="1876.6875,584.3281,1886.6875,588.3281,1876.6875,592.3281,1880.6875,588.3281" style="stroke:#181818;stroke-width:1.0;"/><line style="stroke:#181818;stroke-width:1.0;" x1="1101.6636" x2="1882.6875" y1="588.3281" y2="588.3281"/><text fill="#000000" font-family="sans-serif" font-size="13" lengthAdjust="spacing" textLength="141.5972" x="1108.6636" y="583.4717">INSERT INTO expenses</text><polygon fill="#181818" points="1228.063,614.6797,1238.063,618.6797,1228.063,622.6797,1232.063,618.6797" style="stroke:#181818;stroke-width:1.0;"/><line style="stroke:#181818;stroke-width:1.0;" x1="515.9561" x2="1234.063" y1="618.6797" y2="618.6797"/><text fill="#000000" font-family="sans-serif" font-size="13" lengthAdjust="spacing" textLength="180.6162" x="522.9561" y="613.8232">ExpenseDetail::insert([items...])</text><polygon fill="#181818" points="1876.6875,645.0313,1886.6875,649.0313,1876.6875,653.0313,1880.6875,649.0313" style="stroke:#181818;stroke-width:1.0;"/><line style="stroke:#181818;stroke-width:1.0;" x1="1240.063" x2="1882.6875" y1="649.0313" y2="649.0313"/><text fill="#000000" font-family="sans-serif" font-size="13" lengthAdjust="spacing" textLength="179.9053" x="1247.063" y="644.1748">INSERT INTO expense_details</text><polygon fill="#181818" points="307.5054,675.3828,297.5054,679.3828,307.5054,683.3828,303.5054,679.3828" style="stroke:#181818;stroke-width:1.0;"/><line style="stroke:#181818;stroke-width:1.0;stroke-dasharray:2.0,2.0;" x1="301.5054" x2="514.9561" y1="679.3828" y2="679.3828"/><text fill="#000000" font-family="sans-serif" font-size="13" lengthAdjust="spacing" textLength="195.4507" x="313.5054" y="674.5264">Notifikasi sukses &#8594; redirect daftar</text><rect fill="#EEEEEE" height="3" style="stroke:#EEEEEE;stroke-width:1.0;" width="1951.6528" x="0" y="715.5586"/><line style="stroke:#000000;stroke-width:1.0;" x1="0" x2="1951.6528" y1="715.5586" y2="715.5586"/><line style="stroke:#000000;stroke-width:1.0;" x1="0" x2="1951.6528" y1="718.5586" y2="718.5586"/><rect fill="#EEEEEE" height="24.3516" style="stroke:#000000;stroke-width:2.0;" width="100.6899" x="925.4814" y="704.3828"/><text fill="#000000" font-family="sans-serif" font-size="13" font-weight="bold" lengthAdjust="spacing" textLength="83.0781" x="931.4814" y="721.8779">Mulai Belanja</text><polygon fill="#181818" points="284.5054,757.0859,294.5054,761.0859,284.5054,765.0859,288.5054,761.0859" style="stroke:#181818;stroke-width:1.0;"/><line style="stroke:#181818;stroke-width:1.0;" x1="58.5894" x2="290.5054" y1="761.0859" y2="761.0859"/><text fill="#000000" font-family="sans-serif" font-size="13" lengthAdjust="spacing" textLength="190.4106" x="65.5894" y="756.2295">Buka rincian &#8594; klik Mulai Belanja</text><polygon fill="#181818" points="709.998,787.4375,719.998,791.4375,709.998,795.4375,713.998,791.4375" style="stroke:#181818;stroke-width:1.0;"/><line style="stroke:#181818;stroke-width:1.0;" x1="296.5054" x2="715.998" y1="791.4375" y2="791.4375"/><text fill="#000000" font-family="sans-serif" font-size="13" lengthAdjust="spacing" textLength="112.0107" x="303.5054" y="786.5811">mount($expenseId)</text><polygon fill="#181818" points="1089.6636,817.7891,1099.6636,821.7891,1089.6636,825.7891,1093.6636,821.7891" style="stroke:#181818;stroke-width:1.0;"/><line style="stroke:#181818;stroke-width:1.0;" x1="721.998" x2="1095.6636" y1="821.7891" y2="821.7891"/><text fill="#000000" font-family="sans-serif" font-size="13" lengthAdjust="spacing" textLength="355.6655" x="728.998" y="816.9326">Expense::findOrFail($id)-&gt;load(['details.material','details.unit'])</text><polygon fill="#181818" points="1876.6875,848.1406,1886.6875,852.1406,1876.6875,856.1406,1880.6875,852.1406" style="stroke:#181818;stroke-width:1.0;"/><line style="stroke:#181818;stroke-width:1.0;" x1="1101.6636" x2="1882.6875" y1="852.1406" y2="852.1406"/><text fill="#000000" font-family="sans-serif" font-size="13" lengthAdjust="spacing" textLength="219.686" x="1108.6636" y="847.2842">SELECT expenses &amp; expense_details</text><polygon fill="#181818" points="732.998,878.4922,722.998,882.4922,732.998,886.4922,728.998,882.4922" style="stroke:#181818;stroke-width:1.0;"/><line style="stroke:#181818;stroke-width:1.0;stroke-dasharray:2.0,2.0;" x1="726.998" x2="1887.6875" y1="882.4922" y2="882.4922"/><text fill="#000000" font-family="sans-serif" font-size="13" lengthAdjust="spacing" textLength="153.2324" x="738.998" y="877.6357">Expense dengan detailnya</text><polygon fill="#181818" points="307.5054,908.8438,297.5054,912.8438,307.5054,916.8438,303.5054,912.8438" style="stroke:#181818;stroke-width:1.0;"/><line style="stroke:#181818;stroke-width:1.0;stroke-dasharray:2.0,2.0;" x1="301.5054" x2="720.998" y1="912.8438" y2="912.8438"/><text fill="#000000" font-family="sans-serif" font-size="13" lengthAdjust="spacing" textLength="160.3926" x="313.5054" y="907.9873">Tampil form isi hasil belanja</text><polygon fill="#181818" points="284.5054,955.5469,294.5054,959.5469,284.5054,963.5469,288.5054,959.5469" style="stroke:#181818;stroke-width:1.0;"/><line style="stroke:#181818;stroke-width:1.0;" x1="58.5894" x2="290.5054" y1="959.5469" y2="959.5469"/><text fill="#000000" font-family="sans-serif" font-size="13" lengthAdjust="spacing" textLength="175.5952" x="65.5894" y="938.3389">Isi jumlah aktual, harga aktual,</text><text fill="#000000" font-family="sans-serif" font-size="13" lengthAdjust="spacing" textLength="213.916" x="65.5894" y="954.6904">dan tanggal kedaluwarsa lalu simpan</text><polygon fill="#181818" points="709.998,985.8984,719.998,989.8984,709.998,993.8984,713.998,989.8984" style="stroke:#181818;stroke-width:1.0;"/><line style="stroke:#181818;stroke-width:1.0;" x1="296.5054" x2="715.998" y1="989.8984" y2="989.8984"/><text fill="#000000" font-family="sans-serif" font-size="13" lengthAdjust="spacing" textLength="36.1182" x="303.5054" y="985.042">save()</text><path d="M659.0845,1004.8984 L731.519,1004.8984 L731.519,1013.25 L721.519,1023.25 L659.0845,1023.25 L659.0845,1004.8984 " fill="#EEEEEE" style="stroke:#000000;stroke-width:1.5;"/><rect fill="none" height="79.0547" style="stroke:#000000;stroke-width:1.5;" width="1272.5684" x="659.0845" y="1004.8984"/><text fill="#000000" font-family="sans-serif" font-size="13" font-weight="bold" lengthAdjust="spacing" textLength="27.4346" x="674.0845" y="1019.3936">loop</text><text fill="#000000" font-family="sans-serif" font-size="11" font-weight="bold" lengthAdjust="spacing" textLength="66.0107" x="746.519" y="1018.3174">[Setiap item]</text><polygon fill="#181818" points="1228.063,1041.6016,1238.063,1045.6016,1228.063,1049.6016,1232.063,1045.6016" style="stroke:#181818;stroke-width:1.0;"/><line style="stroke:#181818;stroke-width:1.0;" x1="721.998" x2="1234.063" y1="1045.6016" y2="1045.6016"/><text fill="#000000" font-family="sans-serif" font-size="13" lengthAdjust="spacing" textLength="248.5107" x="728.998" y="1040.7451">ExpenseDetail::update(['quantity_get'=&gt;...])</text><polygon fill="#181818" points="1876.6875,1071.9531,1886.6875,1075.9531,1876.6875,1079.9531,1880.6875,1075.9531" style="stroke:#181818;stroke-width:1.0;"/><line style="stroke:#181818;stroke-width:1.0;" x1="1240.063" x2="1882.6875" y1="1075.9531" y2="1075.9531"/><text fill="#000000" font-family="sans-serif" font-size="13" lengthAdjust="spacing" textLength="150.2998" x="1247.063" y="1071.0967">UPDATE expense_details</text><polygon fill="#181818" points="1089.6636,1109.3047,1099.6636,1113.3047,1089.6636,1117.3047,1093.6636,1113.3047" style="stroke:#181818;stroke-width:1.0;"/><line style="stroke:#181818;stroke-width:1.0;" x1="721.998" x2="1095.6636" y1="1113.3047" y2="1113.3047"/><text fill="#000000" font-family="sans-serif" font-size="13" lengthAdjust="spacing" textLength="227.0811" x="728.998" y="1108.4482">$expense-&gt;update(['status'=&gt;'Dimulai'])</text><polygon fill="#181818" points="1876.6875,1139.6563,1886.6875,1143.6563,1876.6875,1147.6563,1880.6875,1143.6563" style="stroke:#181818;stroke-width:1.0;"/><line style="stroke:#181818;stroke-width:1.0;" x1="1101.6636" x2="1882.6875" y1="1143.6563" y2="1143.6563"/><text fill="#000000" font-family="sans-serif" font-size="13" lengthAdjust="spacing" textLength="242.3027" x="1108.6636" y="1138.7998">UPDATE expenses SET status = 'Dimulai'</text><polygon fill="#181818" points="307.5054,1170.0078,297.5054,1174.0078,307.5054,1178.0078,303.5054,1174.0078" style="stroke:#181818;stroke-width:1.0;"/><line style="stroke:#181818;stroke-width:1.0;stroke-dasharray:2.0,2.0;" x1="301.5054" x2="720.998" y1="1174.0078" y2="1174.0078"/><text fill="#000000" font-family="sans-serif" font-size="13" lengthAdjust="spacing" textLength="96.8081" x="313.5054" y="1169.1514">Notifikasi sukses</text><rect fill="#EEEEEE" height="3" style="stroke:#EEEEEE;stroke-width:1.0;" width="1951.6528" x="0" y="1203.1836"/><line style="stroke:#000000;stroke-width:1.0;" x1="0" x2="1951.6528" y1="1203.1836" y2="1203.1836"/><line style="stroke:#000000;stroke-width:1.0;" x1="0" x2="1951.6528" y1="1206.1836" y2="1206.1836"/><rect fill="#EEEEEE" height="24.3516" style="stroke:#000000;stroke-width:2.0;" width="134.6816" x="908.4856" y="1192.0078"/><text fill="#000000" font-family="sans-serif" font-size="13" font-weight="bold" lengthAdjust="spacing" textLength="117.0698" x="914.4856" y="1209.5029">Selesaikan Belanja</text><polygon fill="#181818" points="284.5054,1244.7109,294.5054,1248.7109,284.5054,1252.7109,288.5054,1248.7109" style="stroke:#181818;stroke-width:1.0;"/><line style="stroke:#181818;stroke-width:1.0;" x1="58.5894" x2="290.5054" y1="1248.7109" y2="1248.7109"/><text fill="#000000" font-family="sans-serif" font-size="13" lengthAdjust="spacing" textLength="135.1353" x="65.5894" y="1243.8545">Klik Selesaikan Belanja</text><polygon fill="#181818" points="709.998,1275.0625,719.998,1279.0625,709.998,1283.0625,713.998,1279.0625" style="stroke:#181818;stroke-width:1.0;"/><line style="stroke:#181818;stroke-width:1.0;" x1="296.5054" x2="715.998" y1="1279.0625" y2="1279.0625"/><text fill="#000000" font-family="sans-serif" font-size="13" lengthAdjust="spacing" textLength="39.0063" x="303.5054" y="1274.2061">finish()</text><path d="M649.0845,1294.0625 L709.2554,1294.0625 L709.2554,1302.4141 L699.2554,1312.4141 L649.0845,1312.4141 L649.0845,1294.0625 " fill="#EEEEEE" style="stroke:#000000;stroke-width:1.5;"/><rect fill="none" height="370.0547" style="stroke:#000000;stroke-width:1.5;" width="1292.5684" x="649.0845" y="1294.0625"/><text fill="#000000" font-family="sans-serif" font-size="13" font-weight="bold" lengthAdjust="spacing" textLength="15.1709" x="664.0845" y="1308.5576">alt</text><text fill="#000000" font-family="sans-serif" font-size="11" font-weight="bold" lengthAdjust="spacing" textLength="130.5015" x="724.2554" y="1307.4814">[Semua quantity_get = 0]</text><polygon fill="#181818" points="1089.6636,1330.7656,1099.6636,1334.7656,1089.6636,1338.7656,1093.6636,1334.7656" style="stroke:#181818;stroke-width:1.0;"/><line style="stroke:#181818;stroke-width:1.0;" x1="721.998" x2="1095.6636" y1="1334.7656" y2="1334.7656"/><text fill="#000000" font-family="sans-serif" font-size="13" lengthAdjust="spacing" textLength="218.4292" x="728.998" y="1329.9092">$expense-&gt;update(['status'=&gt;'Gagal'])</text><polygon fill="#181818" points="1876.6875,1361.1172,1886.6875,1365.1172,1876.6875,1369.1172,1880.6875,1365.1172" style="stroke:#181818;stroke-width:1.0;"/><line style="stroke:#181818;stroke-width:1.0;" x1="1101.6636" x2="1882.6875" y1="1365.1172" y2="1365.1172"/><text fill="#000000" font-family="sans-serif" font-size="13" lengthAdjust="spacing" textLength="233.6509" x="1108.6636" y="1360.2607">UPDATE expenses SET status = 'Gagal'</text><line style="stroke:#000000;stroke-width:1.0;stroke-dasharray:2.0,2.0;" x1="649.0845" x2="1941.6528" y1="1374.1172" y2="1374.1172"/><text fill="#000000" font-family="sans-serif" font-size="11" font-weight="bold" lengthAdjust="spacing" textLength="120.4199" x="654.0845" y="1385.5361">[Ada item yang masuk]</text><path d="M659.0845,1395.9531 L731.519,1395.9531 L731.519,1404.3047 L721.519,1414.3047 L659.0845,1414.3047 L659.0845,1395.9531 " fill="#EEEEEE" style="stroke:#000000;stroke-width:1.5;"/><rect fill="none" height="200.4609" style="stroke:#000000;stroke-width:1.5;" width="1272.5684" x="659.0845" y="1395.9531"/><text fill="#000000" font-family="sans-serif" font-size="13" font-weight="bold" lengthAdjust="spacing" textLength="27.4346" x="674.0845" y="1410.4482">loop</text><text fill="#000000" font-family="sans-serif" font-size="11" font-weight="bold" lengthAdjust="spacing" textLength="195.2822" x="746.519" y="1409.3721">[Setiap item dengan quantity_get &gt; 0]</text><polygon fill="#181818" points="1382.0176,1432.6563,1392.0176,1436.6563,1382.0176,1440.6563,1386.0176,1436.6563" style="stroke:#181818;stroke-width:1.0;"/><line style="stroke:#181818;stroke-width:1.0;" x1="721.998" x2="1388.0176" y1="1436.6563" y2="1436.6563"/><text fill="#000000" font-family="sans-serif" font-size="13" lengthAdjust="spacing" textLength="356.0527" x="728.998" y="1431.7998">MaterialBatch::create(['material_id'=&gt;..., 'batch_quantity'=&gt;...])</text><polygon fill="#181818" points="1876.6875,1463.0078,1886.6875,1467.0078,1876.6875,1471.0078,1880.6875,1467.0078" style="stroke:#181818;stroke-width:1.0;"/><line style="stroke:#181818;stroke-width:1.0;" x1="1394.0176" x2="1882.6875" y1="1467.0078" y2="1467.0078"/><text fill="#000000" font-family="sans-serif" font-size="13" lengthAdjust="spacing" textLength="184.9453" x="1401.0176" y="1462.1514">INSERT INTO material_batches</text><polygon fill="#181818" points="1533.6274,1493.3594,1543.6274,1497.3594,1533.6274,1501.3594,1537.6274,1497.3594" style="stroke:#181818;stroke-width:1.0;"/><line style="stroke:#181818;stroke-width:1.0;" x1="721.998" x2="1539.6274" y1="1497.3594" y2="1497.3594"/><text fill="#000000" font-family="sans-serif" font-size="13" lengthAdjust="spacing" textLength="240.6523" x="728.998" y="1492.5029">Perbarui supply_quantity (stok gabungan)</text><polygon fill="#181818" points="1876.6875,1523.7109,1886.6875,1527.7109,1876.6875,1531.7109,1880.6875,1527.7109" style="stroke:#181818;stroke-width:1.0;"/><line style="stroke:#181818;stroke-width:1.0;" x1="1545.6274" x2="1882.6875" y1="1527.7109" y2="1527.7109"/><text fill="#000000" font-family="sans-serif" font-size="13" lengthAdjust="spacing" textLength="147.3862" x="1552.6274" y="1522.8545">UPDATE material_details</text><polygon fill="#181818" points="1682.9131,1554.0625,1692.9131,1558.0625,1682.9131,1562.0625,1686.9131,1558.0625" style="stroke:#181818;stroke-width:1.0;"/><line style="stroke:#181818;stroke-width:1.0;" x1="721.998" x2="1688.9131" y1="1558.0625" y2="1558.0625"/><text fill="#000000" font-family="sans-serif" font-size="13" lengthAdjust="spacing" textLength="261.4092" x="728.998" y="1553.2061">InventoryLog::create(['action'=&gt;'expense', ...])</text><polygon fill="#181818" points="1876.6875,1584.4141,1886.6875,1588.4141,1876.6875,1592.4141,1880.6875,1588.4141" style="stroke:#181818;stroke-width:1.0;"/><line style="stroke:#181818;stroke-width:1.0;" x1="1694.9131" x2="1882.6875" y1="1588.4141" y2="1588.4141"/><text fill="#000000" font-family="sans-serif" font-size="13" lengthAdjust="spacing" textLength="169.7744" x="1701.9131" y="1583.5576">INSERT INTO inventory_logs</text><polygon fill="#181818" points="1089.6636,1621.7656,1099.6636,1625.7656,1089.6636,1629.7656,1093.6636,1625.7656" style="stroke:#181818;stroke-width:1.0;"/><line style="stroke:#181818;stroke-width:1.0;" x1="721.998" x2="1095.6636" y1="1625.7656" y2="1625.7656"/><text fill="#000000" font-family="sans-serif" font-size="13" lengthAdjust="spacing" textLength="226.3765" x="728.998" y="1620.9092">$expense-&gt;update(['status'=&gt;'Selesai'])</text><polygon fill="#181818" points="1876.6875,1652.1172,1886.6875,1656.1172,1876.6875,1660.1172,1880.6875,1656.1172" style="stroke:#181818;stroke-width:1.0;"/><line style="stroke:#181818;stroke-width:1.0;" x1="1101.6636" x2="1882.6875" y1="1656.1172" y2="1656.1172"/><text fill="#000000" font-family="sans-serif" font-size="13" lengthAdjust="spacing" textLength="241.5981" x="1108.6636" y="1651.2607">UPDATE expenses SET status = 'Selesai'</text><polygon fill="#181818" points="307.5054,1689.4688,297.5054,1693.4688,307.5054,1697.4688,303.5054,1693.4688" style="stroke:#181818;stroke-width:1.0;"/><line style="stroke:#181818;stroke-width:1.0;stroke-dasharray:2.0,2.0;" x1="301.5054" x2="720.998" y1="1693.4688" y2="1693.4688"/><text fill="#000000" font-family="sans-serif" font-size="13" lengthAdjust="spacing" textLength="195.4507" x="313.5054" y="1688.6123">Notifikasi sukses &#8594; redirect daftar</text><!--SRC=[fLRDZjis4BxhAGQBeBO1UvDUUX1W0_7QQHVPJHQnDvUuC4OMRJEcA8MaTcEWvpv07x5FqY4fQILRSf7sOalKV9oVRxuX3JU2mUFDwCql8Rnd8XK8KoPGViKWm8r95LnDSSTHmgryOf8M-1MWXaVDL92XCdp3CvG6hdv3WGdP5V2Lx0l-n9wvOg_Pzun9pGOE-PcpvoPoxZ-lLkzIbH3khi1vUxjuaoPPAibz1_0-5yZFa6xrCXJkqvW9Prsik8LMsnapo4KDuHTQ0FTecE8efcWs-nh0lL-mF_D07pgTb7mSxz9T3K9ltZX6Wn5IYbUpuia7FGs2yHZkMHBbQE0JankK5Uam7WUMMXXD756XDpmWl8uAYx___0iEWXzWYKc4-y2QMVC6Jo4aQIvDVn0qbgtTR1h2Odutlrc2phDCSARq49AY1FIOIsvqC9l2w7nNcmeejcMA6E6dcrT1KsWP5N9BdydQPnYLRTtCxu4BlgyY6GBN7BXXIMa_N4c18lSfBtX2nUzAMUCJQylunEm91IToMFzBhtIxvd5lFEafzYsdxerxvBHdWz3rrJyIBiEVUxyF0XG6FhjTADWTxb0405srU62QL7cWNu5x2fu9weafKti2j-0c3I64vLiORXJpGHTgNiiyYPYY2A-lhuVGqmPDxWAUATmQ6oSqzYh9l_smc7zQqj_o8nHxwROuQfrVXU7Nmf3JipBzBwv8vDyvgm4k-5h7panVADc7rF0jFzZgwln0uRcc9mg8Xes1cD935J0PUodPCTCjeAbLZ-9oOuTe9Pu6g6geviGgHVIgYFms7WHDYmjqRRcCFwftb6d_5Oy7eub8CIRsYkolIy7rXjMI5PwbhOsqGh4bN_3JMJaBmPwcK0xQcCaT5S1RooEUPT8gNgj6rwXTyhqbWwzvGgqDU30vYY7PgnsMRoiParU3SaSg8HN4fELdL1h1gLet1NqQVA7eGAHf1WjcE6PkE53ld1DngL_ph53yjvo6DpV7zOuPBvskrdrycBrTpi_AxBhktxgWx9ZHf79SaoTFBBoBwQPVJSpJe7PW64C5xgRlJ3nE90icQ0BHiknModitOiyCEzcX5kTwR_cn0t71aXoXNb-AzqqhKpzGh5_jTEsUPPUBvS5-uhwDqPyhH-f5EkweDhJdQMELCccaCN5fj2NoSg48eN7fg8thKkZ-ZF6pEh8swz99hG-XjcNR3AqsSpkukTqML_FUOiyW5Q7AkJzdZvLdw6kJ7kW8YtARje-W2JwfT1N0onHl2w2y1OLGloRLga9tMvvAot31NMy8BqKeuMqbuEM6Qv7kh7-hoF_PPKNJ_zS-A-7jm-47ZxL_0000]--></g></svg>