<svg xmlns="http://www.w3.org/2000/svg" xmlns:xlink="http://www.w3.org/1999/xlink" contentStyleType="text/css" height="1426px" preserveAspectRatio="none" style="width:1661px;height:1426px;background:#FFFFFF;" version="1.1" viewBox="0 0 1661 1426" width="1661px" zoomAndPan="magnify"><title>UC-09: Membuat Pesanan dan Pembayaran</title><defs/><g><text fill="#000000" font-family="sans-serif" font-size="14" font-weight="bold" lengthAdjust="spacing" textLength="287.8682" x="687.8115" y="29.5332">UC-09: Membuat Pesanan dan Pembayaran</text><rect fill="none" height="570" style="stroke:#000000;stroke-width:1.5;" width="1459.7671" x="194.7241" y="726.8984"/><rect fill="none" height="79.0547" style="stroke:#000000;stroke-width:1.5;" width="1269.7856" x="374.7056" y="859.1406"/><rect fill="none" height="246.6484" style="stroke:#000000;stroke-width:1.5;" width="1269.7856" x="374.7056" y="1012.8984"/><line style="stroke:#181818;stroke-width:0.5;stroke-dasharray:5.0,5.0;" x1="23" x2="23" y1="121.2188" y2="1344.25"/><line style="stroke:#181818;stroke-width:0.5;stroke-dasharray:5.0,5.0;" x1="284.7241" x2="284.7241" y1="121.2188" y2="1344.25"/><line style="stroke:#181818;stroke-width:0.5;stroke-dasharray:5.0,5.0;" x1="471.7056" x2="471.7056" y1="121.2188" y2="1344.25"/><line style="stroke:#181818;stroke-width:0.5;stroke-dasharray:5.0,5.0;" x1="855.9482" x2="855.9482" y1="121.2188" y2="1344.25"/><line style="stroke:#181818;stroke-width:0.5;stroke-dasharray:5.0,5.0;" x1="1013.1133" x2="1013.1133" y1="121.2188" y2="1344.25"/><line style="stroke:#181818;stroke-width:0.5;stroke-dasharray:5.0,5.0;" x1="1161.0713" x2="1161.0713" y1="121.2188" y2="1344.25"/><line style="stroke:#181818;stroke-width:0.5;stroke-dasharray:5.0,5.0;" x1="1288.3398" x2="1288.3398" y1="121.2188" y2="1344.25"/><line style="stroke:#181818;stroke-width:0.5;stroke-dasharray:5.0,5.0;" x1="1422.291" x2="1422.291" y1="121.2188" y2="1344.25"/><line style="stroke:#181818;stroke-width:0.5;stroke-dasharray:5.0,5.0;" x1="1600.5605" x2="1600.5605" y1="121.2188" y2="1344.25"/><text fill="#000000" font-family="sans-serif" font-size="14" lengthAdjust="spacing" textLength="31.8965" x="5" y="118.1426">Kasir</text><ellipse cx="23.9482" cy="52.1094" fill="#E2E2F0" rx="8" ry="8" style="stroke:#181818;stroke-width:0.5;"/><path d="M23.9482,60.1094 L23.9482,87.1094 M10.9482,68.1094 L36.9482,68.1094 M23.9482,87.1094 L10.9482,102.1094 M23.9482,87.1094 L36.9482,102.1094 " fill="none" style="stroke:#181818;stroke-width:0.5;"/><text fill="#000000" font-family="sans-serif" font-size="14" lengthAdjust="spacing" textLength="31.8965" x="5" y="1357.7832">Kasir</text><ellipse cx="23.9482" cy="1369.3594" fill="#E2E2F0" rx="8" ry="8" style="stroke:#181818;stroke-width:0.5;"/><path d="M23.9482,1377.3594 L23.9482,1404.3594 M10.9482,1385.3594 L36.9482,1385.3594 M23.9482,1404.3594 L10.9482,1419.3594 M23.9482,1404.3594 L36.9482,1419.3594 " fill="none" style="stroke:#181818;stroke-width:0.5;"/><rect fill="#E2E2F0" height="49.2188" rx="2.5" ry="2.5" style="stroke:#181818;stroke-width:0.5;" width="161.875" x="204.7241" y="71"/><text fill="#000000" font-family="sans-serif" font-size="14" lengthAdjust="spacing" textLength="147.875" x="211.7241" y="92.5332">Halaman Buat Pesanan</text><text fill="#000000" font-family="sans-serif" font-size="14" lengthAdjust="spacing" textLength="128.3721" x="221.4756" y="110.1426">(livewire/transaction)</text><rect fill="#E2E2F0" height="49.2188" rx="2.5" ry="2.5" style="stroke:#181818;stroke-width:0.5;" width="161.875" x="204.7241" y="1343.25"/><text fill="#000000" font-family="sans-serif" font-size="14" lengthAdjust="spacing" textLength="147.875" x="211.7241" y="1364.7832">Halaman Buat Pesanan</text><text fill="#000000" font-family="sans-serif" font-size="14" lengthAdjust="spacing" textLength="128.3721" x="221.4756" y="1382.3926">(livewire/transaction)</text><rect fill="#E2E2F0" height="49.2188" rx="2.5" ry="2.5" style="stroke:#181818;stroke-width:0.5;" width="175.1025" x="384.7056" y="71"/><text fill="#000000" font-family="sans-serif" font-size="14" lengthAdjust="spacing" textLength="161.1025" x="391.7056" y="92.5332">Transaction\BuatPesanan</text><text fill="#000000" font-family="sans-serif" font-size="14" lengthAdjust="spacing" textLength="60.6758" x="441.9189" y="110.1426">(Livewire)</text><rect fill="#E2E2F0" height="49.2188" rx="2.5" ry="2.5" style="stroke:#181818;stroke-width:0.5;" width="175.1025" x="384.7056" y="1343.25"/><text fill="#000000" font-family="sans-serif" font-size="14" lengthAdjust="spacing" textLength="161.1025" x="391.7056" y="1364.7832">Transaction\BuatPesanan</text><text fill="#000000" font-family="sans-serif" font-size="14" lengthAdjust="spacing" textLength="60.6758" x="441.9189" y="1382.3926">(Livewire)</text><rect fill="#E2E2F0" height="31.6094" rx="2.5" ry="2.5" style="stroke:#181818;stroke-width:0.5;" width="129.165" x="791.9482" y="88.6094"/><text fill="#000000" font-family="sans-serif" font-size="14" lengthAdjust="spacing" textLength="115.165" x="798.9482" y="110.1426">Transaction Model</text><rect fill="#E2E2F0" height="31.6094" rx="2.5" ry="2.5" style="stroke:#181818;stroke-width:0.5;" width="129.165" x="791.9482" y="1343.25"/><text fill="#000000" font-family="sans-serif" font-size="14" lengthAdjust="spacing" textLength="115.165" x="798.9482" y="1364.7832">Transaction Model</text><rect fill="#E2E2F0" height="31.6094" rx="2.5" ry="2.5" style="stroke:#181818;stroke-width:0.5;" width="164.958" x="931.1133" y="88.6094"/><text fill="#000000" font-family="sans-serif" font-size="14" lengthAdjust="spacing" textLength="150.958" x="938.1133" y="110.1426">TransactionDetail Model</text><rect fill="#E2E2F0" height="31.6094" rx="2.5" ry="2.5" style="stroke:#181818;stroke-width:0.5;" width="164.958" x="931.1133" y="1343.25"/><text fill="#000000" font-family="sans-serif" font-size="14" lengthAdjust="spacing" textLength="150.958" x="938.1133" y="1364.7832">TransactionDetail Model</text><rect fill="#E2E2F0" height="31.6094" rx="2.5" ry="2.5" style="stroke:#181818;stroke-width:0.5;" width="111.2686" x="1106.0713" y="88.6094"/><text fill="#000000" font-family="sans-serif" font-size="14" lengthAdjust="spacing" textLength="97.2686" x="1113.0713" y="110.1426">Payment Model</text><rect fill="#E2E2F0" height="31.6094" rx="2.5" ry="2.5" style="stroke:#181818;stroke-width:0.5;" width="111.2686" x="1106.0713" y="1343.25"/><text fill="#000000" font-family="sans-serif" font-size="14" lengthAdjust="spacing" textLength="97.2686" x="1113.0713" y="1364.7832">Payment Model</text><rect fill="#E2E2F0" height="31.6094" rx="2.5" ry="2.5" style="stroke:#181818;stroke-width:0.5;" width="122.9512" x="1227.3398" y="88.6094"/><text fill="#000000" font-family="sans-serif" font-size="14" lengthAdjust="spacing" textLength="108.9512" x="1234.3398" y="110.1426">Production Model</text><rect fill="#E2E2F0" height="31.6094" rx="2.5" ry="2.5" style="stroke:#181818;stroke-width:0.5;" width="122.9512" x="1227.3398" y="1343.25"/><text fill="#000000" font-family="sans-serif" font-size="14" lengthAdjust="spacing" textLength="108.9512" x="1234.3398" y="1364.7832">Production Model</text><rect fill="#E2E2F0" height="31.6094" rx="2.5" ry="2.5" style="stroke:#181818;stroke-width:0.5;" width="125.2754" x="1360.291" y="88.6094"/><text fill="#000000" font-family="sans-serif" font-size="14" lengthAdjust="spacing" textLength="111.2754" x="1367.291" y="110.1426">Notification Model</text><rect fill="#E2E2F0" height="31.6094" rx="2.5" ry="2.5" style="stroke:#181818;stroke-width:0.5;" width="125.2754" x="1360.291" y="1343.25"/><text fill="#000000" font-family="sans-serif" font-size="14" lengthAdjust="spacing" textLength="111.2754" x="1367.291" y="1364.7832">Notification Model</text><text fill="#000000" font-family="sans-serif" font-size="14" lengthAdjust="spacing" textLength="59.9307" x="1568.5605" y="118.1426">Database</text><path d="M1583.5259,67.6094 C1583.5259,57.6094 1601.5259,57.6094 1601.5259,57.6094 C1601.5259,57.6094 1619.5259,57.6094 1619.5259,67.6094 L1619.5259,93.6094 C1619.5259,103.6094 1601.5259,103.6094 1601.5259,103.6094 C1601.5259,103.6094 1583.5259,103.6094 1583.5259,93.6094 L1583.5259,67.6094 " fill="#E2E2F0" style="stroke:#181818;stroke-width:1.5;"/><path d="M1583.5259,67.6094 C1583.5259,77.6094 1601.5259,77.6094 1601.5259,77.6094 C1601.5259,77.6094 1619.5259,77.6094 1619.5259,67.6094 " fill="none" style="stroke:#181818;stroke-width:1.5;"/><text fill="#000000" font-family="sans-serif" font-size="14" lengthAdjust="spacing" textLength="59.9307" x="1568.5605" y="1357.7832">Database</text><path d="M1583.5259,1370.8594 C1583.5259,1360.8594 1601.5259,1360.8594 1601.5259,1360.8594 C1601.5259,1360.8594 1619.5259,1360.8594 1619.5259,1370.8594 L1619.5259,1396.8594 C1619.5259,1406.8594 1601.5259,1406.8594 1601.5259,1406.8594 C1601.5259,1406.8594 1583.5259,1406.8594 1583.5259,1396.8594 L1583.5259,1370.8594 " fill="#E2E2F0" style="stroke:#181818;stroke-width:1.5;"/><path d="M1583.5259,1370.8594 C1583.5259,1380.8594 1601.5259,1380.8594 1601.5259,1380.8594 C1601.5259,1380.8594 1619.5259,1380.8594 1619.5259,1370.8594 " fill="none" style="stroke:#181818;stroke-width:1.5;"/><polygon fill="#181818" points="273.6616,149.5703,283.6616,153.5703,273.6616,157.5703,277.6616,153.5703" style="stroke:#181818;stroke-width:1.0;"/><line style="stroke:#181818;stroke-width:1.0;" x1="23.9482" x2="279.6616" y1="153.5703" y2="153.5703"/><text fill="#000000" font-family="sans-serif" font-size="13" lengthAdjust="spacing" textLength="174.8716" x="30.9482" y="148.7139">Membuka /kasir/buat-pesanan</text><polygon fill="#181818" points="460.2568,179.9219,470.2568,183.9219,460.2568,187.9219,464.2568,183.9219" style="stroke:#181818;stroke-width:1.0;"/><line style="stroke:#181818;stroke-width:1.0;" x1="285.6616" x2="466.2568" y1="183.9219" y2="183.9219"/><text fill="#000000" font-family="sans-serif" font-size="13" lengthAdjust="spacing" textLength="44.7891" x="292.6616" y="179.0654">mount()</text><polygon fill="#181818" points="1589.5259,210.2734,1599.5259,214.2734,1589.5259,218.2734,1593.5259,214.2734" style="stroke:#181818;stroke-width:1.0;"/><line style="stroke:#181818;stroke-width:1.0;" x1="472.2568" x2="1595.5259" y1="214.2734" y2="214.2734"/><text fill="#000000" font-family="sans-serif" font-size="13" lengthAdjust="spacing" textLength="350.4224" x="479.2568" y="209.417">SELECT products (active), payment_channels, shifts (active)</text><polygon fill="#181818" points="483.2568,240.625,473.2568,244.625,483.2568,248.625,479.2568,244.625" style="stroke:#181818;stroke-width:1.0;"/><line style="stroke:#181818;stroke-width:1.0;stroke-dasharray:2.0,2.0;" x1="477.2568" x2="1600.5259" y1="244.625" y2="244.625"/><text fill="#000000" font-family="sans-serif" font-size="13" lengthAdjust="spacing" textLength="81.6499" x="489.2568" y="239.7686">Data referensi</text><polygon fill="#181818" points="296.6616,270.9766,286.6616,274.9766,296.6616,278.9766,292.6616,274.9766" style="stroke:#181818;stroke-width:1.0;"/><line style="stroke:#181818;stroke-width:1.0;stroke-dasharray:2.0,2.0;" x1="290.6616" x2="471.2568" y1="274.9766" y2="274.9766"/><text fill="#000000" font-family="sans-serif" font-size="13" lengthAdjust="spacing" textLength="122.1099" x="302.6616" y="270.1201">Tampil form pesanan</text><polygon fill="#181818" points="273.6616,301.3281,283.6616,305.3281,273.6616,309.3281,277.6616,305.3281" style="stroke:#181818;stroke-width:1.0;"/><line style="stroke:#181818;stroke-width:1.0;" x1="23.9482" x2="279.6616" y1="305.3281" y2="305.3281"/><text fill="#000000" font-family="sans-serif" font-size="13" lengthAdjust="spacing" textLength="237.7134" x="30.9482" y="300.4717">Memilih metode (Reguler/Kotak/SiapBeli)</text><polygon fill="#181818" points="460.2568,331.6797,470.2568,335.6797,460.2568,339.6797,464.2568,335.6797" style="stroke:#181818;stroke-width:1.0;"/><line style="stroke:#181818;stroke-width:1.0;" x1="285.6616" x2="466.2568" y1="335.6797" y2="335.6797"/><text fill="#000000" font-family="sans-serif" font-size="13" lengthAdjust="spacing" textLength="73.7153" x="292.6616" y="330.8232">Set $method</text><polygon fill="#181818" points="273.6616,362.0313,283.6616,366.0313,273.6616,370.0313,277.6616,366.0313" style="stroke:#181818;stroke-width:1.0;"/><line style="stroke:#181818;stroke-width:1.0;" x1="23.9482" x2="279.6616" y1="366.0313" y2="366.0313"/><text fill="#000000" font-family="sans-serif" font-size="13" lengthAdjust="spacing" textLength="183.5488" x="30.9482" y="361.1748">Menambahkan produk &amp; jumlah</text><polygon fill="#181818" points="460.2568,392.3828,470.2568,396.3828,460.2568,400.3828,464.2568,396.3828" style="stroke:#181818;stroke-width:1.0;"/><line style="stroke:#181818;stroke-width:1.0;" x1="285.6616" x2="466.2568" y1="396.3828" y2="396.3828"/><text fill="#000000" font-family="sans-serif" font-size="13" lengthAdjust="spacing" textLength="148.8589" x="292.6616" y="391.5264">addItem($productId, $qty)</text><polygon fill="#181818" points="1589.5259,422.7344,1599.5259,426.7344,1589.5259,430.7344,1593.5259,426.7344" style="stroke:#181818;stroke-width:1.0;"/><line style="stroke:#181818;stroke-width:1.0;" x1="472.2568" x2="1595.5259" y1="426.7344" y2="426.7344"/><text fill="#000000" font-family="sans-serif" font-size="13" lengthAdjust="spacing" textLength="191.8198" x="479.2568" y="421.8779">SELECT products WHERE id = ?</text><polygon fill="#181818" points="483.2568,453.0859,473.2568,457.0859,483.2568,461.0859,479.2568,457.0859" style="stroke:#181818;stroke-width:1.0;"/><line style="stroke:#181818;stroke-width:1.0;stroke-dasharray:2.0,2.0;" x1="477.2568" x2="1600.5259" y1="457.0859" y2="457.0859"/><text fill="#000000" font-family="sans-serif" font-size="13" lengthAdjust="spacing" textLength="168.3906" x="489.2568" y="452.2295">Product dengan harga &amp; stok</text><line style="stroke:#181818;stroke-width:1.0;" x1="472.2568" x2="514.2568" y1="487.4375" y2="487.4375"/><line style="stroke:#181818;stroke-width:1.0;" x1="514.2568" x2="514.2568" y1="487.4375" y2="500.4375"/><line style="stroke:#181818;stroke-width:1.0;" x1="473.2568" x2="514.2568" y1="500.4375" y2="500.4375"/><polygon fill="#181818" points="483.2568,496.4375,473.2568,500.4375,483.2568,504.4375,479.2568,500.4375" style="stroke:#181818;stroke-width:1.0;"/><text fill="#000000" font-family="sans-serif" font-size="13" lengthAdjust="spacing" textLength="164.0488" x="479.2568" y="482.5811">Hitung subtotal &amp; grand total</text><polygon fill="#181818" points="296.6616,526.7891,286.6616,530.7891,296.6616,534.7891,292.6616,530.7891" style="stroke:#181818;stroke-width:1.0;"/><line style="stroke:#181818;stroke-width:1.0;stroke-dasharray:2.0,2.0;" x1="290.6616" x2="471.2568" y1="530.7891" y2="530.7891"/><text fill="#000000" font-family="sans-serif" font-size="13" lengthAdjust="spacing" textLength="162.5952" x="302.6616" y="525.9326">Perbarui tampilan keranjang</text><polygon fill="#181818" points="273.6616,573.4922,283.6616,577.4922,273.6616,581.4922,277.6616,577.4922" style="stroke:#181818;stroke-width:1.0;"/><line style="stroke:#181818;stroke-width:1.0;" x1="23.9482" x2="279.6616" y1="577.4922" y2="577.4922"/><text fill="#000000" font-family="sans-serif" font-size="13" lengthAdjust="spacing" textLength="182.8252" x="30.9482" y="556.2842">Isi nama pelanggan, nomor HP,</text><text fill="#000000" font-family="sans-serif" font-size="13" lengthAdjust="spacing" textLength="174.8906" x="30.9482" y="572.6357">tanggal ambil (untuk pesanan)</text><polygon fill="#181818" points="460.2568,603.8438,470.2568,607.8438,460.2568,611.8438,464.2568,607.8438" style="stroke:#181818;stroke-width:1.0;"/><line style="stroke:#181818;stroke-width:1.0;" x1="285.6616" x2="466.2568" y1="607.8438" y2="607.8438"/><text fill="#000000" font-family="sans-serif" font-size="13" lengthAdjust="spacing" textLength="105.498" x="292.6616" y="602.9873">Set customer data</text><polygon fill="#181818" points="273.6616,634.1953,283.6616,638.1953,273.6616,642.1953,277.6616,638.1953" style="stroke:#181818;stroke-width:1.0;"/><line style="stroke:#181818;stroke-width:1.0;" x1="23.9482" x2="279.6616" y1="638.1953" y2="638.1953"/><text fill="#000000" font-family="sans-serif" font-size="13" lengthAdjust="spacing" textLength="102.5908" x="30.9482" y="633.3389">Klik Proses Bayar</text><polygon fill="#181818" points="460.2568,664.5469,470.2568,668.5469,460.2568,672.5469,464.2568,668.5469" style="stroke:#181818;stroke-width:1.0;"/><line style="stroke:#181818;stroke-width:1.0;" x1="285.6616" x2="466.2568" y1="668.5469" y2="668.5469"/><text fill="#000000" font-family="sans-serif" font-size="13" lengthAdjust="spacing" textLength="105.479" x="292.6616" y="663.6904">processPayment()</text><line style="stroke:#181818;stroke-width:1.0;" x1="472.2568" x2="514.2568" y1="698.8984" y2="698.8984"/><line style="stroke:#181818;stroke-width:1.0;" x1="514.2568" x2="514.2568" y1="698.8984" y2="711.8984"/><line style="stroke:#181818;stroke-width:1.0;" x1="473.2568" x2="514.2568" y1="711.8984" y2="711.8984"/><polygon fill="#181818" points="483.2568,707.8984,473.2568,711.8984,483.2568,715.8984,479.2568,711.8984" style="stroke:#181818;stroke-width:1.0;"/><text fill="#000000" font-family="sans-serif" font-size="13" lengthAdjust="spacing" textLength="217.7817" x="479.2568" y="694.042">validate(['items'=&gt;'required|min:1', ...])</text><path d="M194.7241,726.8984 L254.895,726.8984 L254.895,735.25 L244.895,745.25 L194.7241,745.25 L194.7241,726.8984 " fill="#EEEEEE" style="stroke:#000000;stroke-width:1.5;"/><rect fill="none" height="570" style="stroke:#000000;stroke-width:1.5;" width="1459.7671" x="194.7241" y="726.8984"/><text fill="#000000" font-family="sans-serif" font-size="13" font-weight="bold" lengthAdjust="spacing" textLength="15.1709" x="209.7241" y="741.3936">alt</text><text fill="#000000" font-family="sans-serif" font-size="11" font-weight="bold" lengthAdjust="spacing" textLength="83.7407" x="269.895" y="740.3174">[Tidak ada item]</text><polygon fill="#181818" points="296.6616,763.6016,286.6616,767.6016,296.6616,771.6016,292.6616,767.6016" style="stroke:#181818;stroke-width:1.0;"/><line style="stroke:#181818;stroke-width:1.0;stroke-dasharray:2.0,2.0;" x1="290.6616" x2="471.2568" y1="767.6016" y2="767.6016"/><text fill="#000000" font-family="sans-serif" font-size="13" lengthAdjust="spacing" textLength="80.9453" x="302.6616" y="762.7451">Validasi gagal</text><line style="stroke:#000000;stroke-width:1.0;stroke-dasharray:2.0,2.0;" x1="194.7241" x2="1654.4912" y1="776.6016" y2="776.6016"/><text fill="#000000" font-family="sans-serif" font-size="11" font-weight="bold" lengthAdjust="spacing" textLength="50.7354" x="199.7241" y="788.0205">[Berhasil]</text><polygon fill="#181818" points="844.5308,809.7891,854.5308,813.7891,844.5308,817.7891,848.5308,813.7891" style="stroke:#181818;stroke-width:1.0;"/><line style="stroke:#181818;stroke-width:1.0;" x1="472.2568" x2="850.5308" y1="813.7891" y2="813.7891"/><text fill="#000000" font-family="sans-serif" font-size="13" lengthAdjust="spacing" textLength="360.2739" x="479.2568" y="808.9326">Transaction::create(['invoice_number'=&gt;..., 'status'=&gt;'Aktif', ...])</text><polygon fill="#181818" points="1589.5259,840.1406,1599.5259,844.1406,1589.5259,848.1406,1593.5259,844.1406" style="stroke:#181818;stroke-width:1.0;"/><line style="stroke:#181818;stroke-width:1.0;" x1="856.5308" x2="1595.5259" y1="844.1406" y2="844.1406"/><text fill="#000000" font-family="sans-serif" font-size="13" lengthAdjust="spacing" textLength="156.0381" x="863.5308" y="839.2842">INSERT INTO transactions</text><path d="M374.7056,859.1406 L447.1401,859.1406 L447.1401,867.4922 L437.1401,877.4922 L374.7056,877.4922 L374.7056,859.1406 " fill="#EEEEEE" style="stroke:#000000;stroke-width:1.5;"/><rect fill="none" height="79.0547" style="stroke:#000000;stroke-width:1.5;" width="1269.7856" x="374.7056" y="859.1406"/><text fill="#000000" font-family="sans-serif" font-size="13" font-weight="bold" lengthAdjust="spacing" textLength="27.4346" x="389.7056" y="873.6357">loop</text><text fill="#000000" font-family="sans-serif" font-size="11" font-weight="bold" lengthAdjust="spacing" textLength="113.6953" x="462.1401" y="872.5596">[Setiap item pesanan]</text><polygon fill="#181818" points="1001.5923,895.8438,1011.5923,899.8438,1001.5923,903.8438,1005.5923,899.8438" style="stroke:#181818;stroke-width:1.0;"/><line style="stroke:#181818;stroke-width:1.0;" x1="472.2568" x2="1007.5923" y1="899.8438" y2="899.8438"/><text fill="#000000" font-family="sans-serif" font-size="13" lengthAdjust="spacing" textLength="290.3735" x="479.2568" y="894.9873">TransactionDetail::create(['transaction_id'=&gt;..., ...])</text><polygon fill="#181818" points="1589.5259,926.1953,1599.5259,930.1953,1589.5259,934.1953,1593.5259,930.1953" style="stroke:#181818;stroke-width:1.0;"/><line style="stroke:#181818;stroke-width:1.0;" x1="1013.5923" x2="1595.5259" y1="930.1953" y2="930.1953"/><text fill="#000000" font-family="sans-serif" font-size="13" lengthAdjust="spacing" textLength="194.3462" x="1020.5923" y="925.3389">INSERT INTO transaction_details</text><polygon fill="#181818" points="1149.7056,963.5469,1159.7056,967.5469,1149.7056,971.5469,1153.7056,967.5469" style="stroke:#181818;stroke-width:1.0;"/><line style="stroke:#181818;stroke-width:1.0;" x1="472.2568" x2="1155.7056" y1="967.5469" y2="967.5469"/><text fill="#000000" font-family="sans-serif" font-size="13" lengthAdjust="spacing" textLength="335.8354" x="479.2568" y="962.6904">Payment::create(['transaction_id'=&gt;..., 'paid_amount'=&gt;...])</text><polygon fill="#181818" points="1589.5259,993.8984,1599.5259,997.8984,1589.5259,1001.8984,1593.5259,997.8984" style="stroke:#181818;stroke-width:1.0;"/><line style="stroke:#181818;stroke-width:1.0;" x1="1161.7056" x2="1595.5259" y1="997.8984" y2="997.8984"/><text fill="#000000" font-family="sans-serif" font-size="13" lengthAdjust="spacing" textLength="142.3081" x="1168.7056" y="993.042">INSERT INTO payments</text><path d="M374.7056,1012.8984 L434.8765,1012.8984 L434.8765,1021.25 L424.8765,1031.25 L374.7056,1031.25 L374.7056,1012.8984 " fill="#EEEEEE" style="stroke:#000000;stroke-width:1.5;"/><rect fill="none" height="246.6484" style="stroke:#000000;stroke-width:1.5;" width="1269.7856" x="374.7056" y="1012.8984"/><text fill="#000000" font-family="sans-serif" font-size="13" font-weight="bold" lengthAdjust="spacing" textLength="15.1709" x="389.7056" y="1027.3936">alt</text><text fill="#000000" font-family="sans-serif" font-size="11" font-weight="bold" lengthAdjust="spacing" textLength="130.7915" x="449.8765" y="1026.3174">[Metode bukan Siap Beli]</text><polygon fill="#181818" points="1276.8154,1049.6016,1286.8154,1053.6016,1276.8154,1057.6016,1280.8154,1053.6016" style="stroke:#181818;stroke-width:1.0;"/><line style="stroke:#181818;stroke-width:1.0;" x1="472.2568" x2="1282.8154" y1="1053.6016" y2="1053.6016"/><text fill="#000000" font-family="sans-serif" font-size="13" lengthAdjust="spacing" textLength="251.3672" x="479.2568" y="1048.7451">Production::create(['transaction_id'=&gt;..., ...])</text><polygon fill="#181818" points="1589.5259,1079.9531,1599.5259,1083.9531,1589.5259,1087.9531,1593.5259,1083.9531" style="stroke:#181818;stroke-width:1.0;"/><line style="stroke:#181818;stroke-width:1.0;" x1="1288.8154" x2="1595.5259" y1="1083.9531" y2="1083.9531"/><text fill="#000000" font-family="sans-serif" font-size="13" lengthAdjust="spacing" textLength="153.1563" x="1295.8154" y="1079.0967">INSERT INTO productions</text><polygon fill="#181818" points="1410.9287,1110.3047,1420.9287,1114.3047,1410.9287,1118.3047,1414.9287,1114.3047" style="stroke:#181818;stroke-width:1.0;"/><line style="stroke:#181818;stroke-width:1.0;" x1="472.2568" x2="1416.9287" y1="1114.3047" y2="1114.3047"/><text fill="#000000" font-family="sans-serif" font-size="13" lengthAdjust="spacing" textLength="249.1011" x="479.2568" y="1109.4482">Notification::create(['type'=&gt;'new_order',...])</text><polygon fill="#181818" points="1589.5259,1140.6563,1599.5259,1144.6563,1589.5259,1148.6563,1593.5259,1144.6563" style="stroke:#181818;stroke-width:1.0;"/><line style="stroke:#181818;stroke-width:1.0;" x1="1422.9287" x2="1595.5259" y1="1144.6563" y2="1144.6563"/><text fill="#000000" font-family="sans-serif" font-size="13" lengthAdjust="spacing" textLength="154.5972" x="1429.9287" y="1139.7998">INSERT INTO notifications</text><line style="stroke:#000000;stroke-width:1.0;stroke-dasharray:2.0,2.0;" x1="374.7056" x2="1644.4912" y1="1153.6563" y2="1153.6563"/><text fill="#000000" font-family="sans-serif" font-size="11" font-weight="bold" lengthAdjust="spacing" textLength="53.7861" x="379.7056" y="1165.0752">[Siap Beli]</text><polygon fill="#181818" points="1589.5259,1186.8438,1599.5259,1190.8438,1589.5259,1194.8438,1593.5259,1190.8438" style="stroke:#181818;stroke-width:1.0;"/><line style="stroke:#181818;stroke-width:1.0;" x1="472.2568" x2="1595.5259" y1="1190.8438" y2="1190.8438"/><text fill="#000000" font-family="sans-serif" font-size="13" lengthAdjust="spacing" textLength="330.8779" x="479.2568" y="1185.9873">UPDATE products SET stock = stock - qty WHERE id = ?</text><polygon fill="#181818" points="844.5308,1217.1953,854.5308,1221.1953,844.5308,1225.1953,848.5308,1221.1953" style="stroke:#181818;stroke-width:1.0;"/><line style="stroke:#181818;stroke-width:1.0;" x1="472.2568" x2="850.5308" y1="1221.1953" y2="1221.1953"/><text fill="#000000" font-family="sans-serif" font-size="13" lengthAdjust="spacing" textLength="240.8174" x="479.2568" y="1216.3389">$transaction-&gt;update(['status'=&gt;'Selesai'])</text><polygon fill="#181818" points="1589.5259,1247.5469,1599.5259,1251.5469,1589.5259,1255.5469,1593.5259,1251.5469" style="stroke:#181818;stroke-width:1.0;"/><line style="stroke:#181818;stroke-width:1.0;" x1="856.5308" x2="1595.5259" y1="1251.5469" y2="1251.5469"/><text fill="#000000" font-family="sans-serif" font-size="13" lengthAdjust="spacing" textLength="126.4326" x="863.5308" y="1246.6904">UPDATE transactions</text><polygon fill="#181818" points="296.6616,1284.8984,286.6616,1288.8984,296.6616,1292.8984,292.6616,1288.8984" style="stroke:#181818;stroke-width:1.0;"/><line style="stroke:#181818;stroke-width:1.0;stroke-dasharray:2.0,2.0;" x1="290.6616" x2="471.2568" y1="1288.8984" y2="1288.8984"/><text fill="#000000" font-family="sans-serif" font-size="13" lengthAdjust="spacing" textLength="151.0107" x="302.6616" y="1284.042">Redirect ke halaman struk</text><polygon fill="#181818" points="273.6616,1322.25,283.6616,1326.25,273.6616,1330.25,277.6616,1326.25" style="stroke:#181818;stroke-width:1.0;"/><line style="stroke:#181818;stroke-width:1.0;" x1="23.9482" x2="279.6616" y1="1326.25" y2="1326.25"/><text fill="#000000" font-family="sans-serif" font-size="13" lengthAdjust="spacing" textLength="228.3442" x="30.9482" y="1321.3936">Mencetak / mengunduh struk (opsional)</text><!--SRC=[bLPHRzf847xthnX5KG49mjtZ8JMd4f0IfUcXuFGUBYSqU2UmzNhjxgwJHkgFxwnjO37EzVg0W67ccs-_cVsCaquHF5oDVljZ0dUKhKjqi22B6ZK8VYquXgzeK4SH9YutS7QBLfepG0iFbanKe74oaGLg1sVNg33Zicc0ywZxIZxJYpGqTWna6KVcUb11V9RqSWmH7r8U7ptE0UPZ0rENNkLPaMlIxirwkCi5gIev_bPzVZDrHWwb2WhgG4VH0bypRXgaDf6kN9EBiatb4Eoe-9Gx-IGJRDLKuJfTeCCrMeApMVEfvZkD8ZyF65rMeZRZJ176gH_Os8zsLDHQHZx3P-urd42Mbzhr1z4-v7-VJIUmd7-SNyLGrBGjzBrYppGOGb4VV9LiKMjITWXsAv-2b6WsXT5n6qyQ33sH8Mrbs6rFFCQiu5ayvIQ37U7Jiqabjv2HOr6WVq-RKf4Pt-OEq_5IOZ4b9GTTvroIWtEks-RY55KZh_isvGskZfl2E_XIPWgtNKWen8sZh7_UI7CZXd3-rRt-3mt_lfxVpq4AU0z_TeZKh0W8qXlciaMpGQPYNPuUOmSrrzALUWEsN3iMGN7wXjTRGFMjK-S5cJMQKeAh1ET6AN795zIRjZ8tLW9hWpmFpjimgI7eF6Cxk5uC7xMhOWfOFHvSdnU9fMj6z-OGafBFat4Nlz7jXhTAfbu6InQcte2wK5ZEXAnjxbzxTuF4PrIIkr3_dvxaYTdU-ykUeQybUududaaz-RqtX8kBYty74Ie7CIUdF5u4dnq1TAdtkS9aNJR8Huzu_GccPBOSKiSbbpltuTK-ECvaaXXgEEddN2QqqcMs9iFacCeGUjQXAokk7rA-_dkAiCFRRTVDf-NyFkQt-2y87DP6dAholF1oyvMeJhE_KG0jae7Z7H6jum7TeCLAYXtT7JS8WNx2S2MgLCjbf4NKbYqqridksq-9z0gKOeMLdzMnYbS8raMhCRDADBy4TxMrU0lLu1q5lAMSojQoyqaG-0NDMYYT1FSfzfJ5uG4nWV0P4b9uBSWlawQNLMu4BzhmqFzGtzLQ1uZLiFoo_uScllvXCViGpm-Mjvp7ti2Ib3slVXy1c-Mn5PuWxM_EUQ3WwB8ickjyk2DBKhpPijSSg7L56ZP7jwDhwVRN-vu4kmDxS4hil_M_6kjCcKPLqSc38-5DJc7CJoIzARKejtKszFF2SZTKW-W7]--></g></svg>