<svg xmlns="http://www.w3.org/2000/svg" xmlns:xlink="http://www.w3.org/1999/xlink" contentStyleType="text/css" height="1428px" preserveAspectRatio="none" style="width:1229px;height:1428px;background:#FFFFFF;" version="1.1" viewBox="0 0 1229 1428" width="1229px" zoomAndPan="magnify"><title>UC-03: Kelola Satuan dan Konversi</title><defs/><g><text fill="#000000" font-family="sans-serif" font-size="14" font-weight="bold" lengthAdjust="spacing" textLength="234.165" x="493.6855" y="29.5332">UC-03: Kelola Satuan dan Konversi</text><rect fill="none" height="155.5938" style="stroke:#000000;stroke-width:1.5;" width="957.0171" x="255.519" y="454.7344"/><rect fill="none" height="171.9453" style="stroke:#000000;stroke-width:1.5;" width="957.0171" x="255.519" y="805.4375"/><rect fill="none" height="155.5938" style="stroke:#000000;stroke-width:1.5;" width="957.0171" x="255.519" y="1173.4922"/><line style="stroke:#181818;stroke-width:0.5;stroke-dasharray:5.0,5.0;" x1="58" x2="58" y1="121.2188" y2="1346.0859"/><line style="stroke:#181818;stroke-width:0.5;stroke-dasharray:5.0,5.0;" x1="324.519" x2="324.519" y1="121.2188" y2="1346.0859"/><line style="stroke:#181818;stroke-width:0.5;stroke-dasharray:5.0,5.0;" x1="572.0093" x2="572.0093" y1="121.2188" y2="1346.0859"/><line style="stroke:#181818;stroke-width:0.5;stroke-dasharray:5.0,5.0;" x1="897.6553" x2="897.6553" y1="121.2188" y2="1346.0859"/><line style="stroke:#181818;stroke-width:0.5;stroke-dasharray:5.0,5.0;" x1="1168.6055" x2="1168.6055" y1="121.2188" y2="1346.0859"/><text fill="#000000" font-family="sans-serif" font-size="14" lengthAdjust="spacing" textLength="101.1787" x="5" y="118.1426">Bagian Inventori</text><ellipse cx="58.5894" cy="52.1094" fill="#E2E2F0" rx="8" ry="8" style="stroke:#181818;stroke-width:0.5;"/><path d="M58.5894,60.1094 L58.5894,87.1094 M45.5894,68.1094 L71.5894,68.1094 M58.5894,87.1094 L45.5894,102.1094 M58.5894,87.1094 L71.5894,102.1094 " fill="none" style="stroke:#181818;stroke-width:0.5;"/><text fill="#000000" font-family="sans-serif" font-size="14" lengthAdjust="spacing" textLength="101.1787" x="5" y="1359.6191">Bagian Inventori</text><ellipse cx="58.5894" cy="1371.1953" fill="#E2E2F0" rx="8" ry="8" style="stroke:#181818;stroke-width:0.5;"/><path d="M58.5894,1379.1953 L58.5894,1406.1953 M45.5894,1387.1953 L71.5894,1387.1953 M58.5894,1406.1953 L45.5894,1421.1953 M58.5894,1406.1953 L71.5894,1421.1953 " fill="none" style="stroke:#181818;stroke-width:0.5;"/><rect fill="#E2E2F0" height="49.2188" rx="2.5" ry="2.5" style="stroke:#181818;stroke-width:0.5;" width="118.2891" x="265.519" y="71"/><text fill="#000000" font-family="sans-serif" font-size="14" lengthAdjust="spacing" textLength="104.2891" x="272.519" y="92.5332">Halaman Satuan</text><text fill="#000000" font-family="sans-serif" font-size="14" lengthAdjust="spacing" textLength="82.4619" x="283.4326" y="110.1426">(livewire/unit)</text><rect fill="#E2E2F0" height="49.2188" rx="2.5" ry="2.5" style="stroke:#181818;stroke-width:0.5;" width="118.2891" x="265.519" y="1345.0859"/><text fill="#000000" font-family="sans-serif" font-size="14" lengthAdjust="spacing" textLength="104.2891" x="272.519" y="1366.6191">Halaman Satuan</text><text fill="#000000" font-family="sans-serif" font-size="14" lengthAdjust="spacing" textLength="82.4619" x="283.4326" y="1384.2285">(livewire/unit)</text><rect fill="#E2E2F0" height="49.2188" rx="2.5" ry="2.5" style="stroke:#181818;stroke-width:0.5;" width="77.0342" x="534.0093" y="71"/><text fill="#000000" font-family="sans-serif" font-size="14" lengthAdjust="spacing" textLength="63.0342" x="541.0093" y="92.5332">Unit\Index</text><text fill="#000000" font-family="sans-serif" font-size="14" lengthAdjust="spacing" textLength="60.6758" x="542.1885" y="110.1426">(Livewire)</text><rect fill="#E2E2F0" height="49.2188" rx="2.5" ry="2.5" style="stroke:#181818;stroke-width:0.5;" width="77.0342" x="534.0093" y="1345.0859"/><text fill="#000000" font-family="sans-serif" font-size="14" lengthAdjust="spacing" textLength="63.0342" x="541.0093" y="1366.6191">Unit\Index</text><text fill="#000000" font-family="sans-serif" font-size="14" lengthAdjust="spacing" textLength="60.6758" x="542.1885" y="1384.2285">(Livewire)</text><rect fill="#E2E2F0" height="31.6094" rx="2.5" ry="2.5" style="stroke:#181818;stroke-width:0.5;" width="80.917" x="857.6553" y="88.6094"/><text fill="#000000" font-family="sans-serif" font-size="14" lengthAdjust="spacing" textLength="66.917" x="864.6553" y="110.1426">Unit Model</text><rect fill="#E2E2F0" height="31.6094" rx="2.5" ry="2.5" style="stroke:#181818;stroke-width:0.5;" width="80.917" x="857.6553" y="1345.0859"/><text fill="#000000" font-family="sans-serif" font-size="14" lengthAdjust="spacing" textLength="66.917" x="864.6553" y="1366.6191">Unit Model</text><text fill="#000000" font-family="sans-serif" font-size="14" lengthAdjust="spacing" textLength="59.9307" x="1136.6055" y="118.1426">Database</text><path d="M1151.5708,67.6094 C1151.5708,57.6094 1169.5708,57.6094 1169.5708,57.6094 C1169.5708,57.6094 1187.5708,57.6094 1187.5708,67.6094 L1187.5708,93.6094 C1187.5708,103.6094 1169.5708,103.6094 1169.5708,103.6094 C1169.5708,103.6094 1151.5708,103.6094 1151.5708,93.6094 L1151.5708,67.6094 " fill="#E2E2F0" style="stroke:#181818;stroke-width:1.5;"/><path d="M1151.5708,67.6094 C1151.5708,77.6094 1169.5708,77.6094 1169.5708,77.6094 C1169.5708,77.6094 1187.5708,77.6094 1187.5708,67.6094 " fill="none" style="stroke:#181818;stroke-width:1.5;"/><text fill="#000000" font-family="sans-serif" font-size="14" lengthAdjust="spacing" textLength="59.9307" x="1136.6055" y="1359.6191">Database</text><path d="M1151.5708,1372.6953 C1151.5708,1362.6953 1169.5708,1362.6953 1169.5708,1362.6953 C1169.5708,1362.6953 1187.5708,1362.6953 1187.5708,1372.6953 L1187.5708,1398.6953 C1187.5708,1408.6953 1169.5708,1408.6953 1169.5708,1408.6953 C1169.5708,1408.6953 1151.5708,1408.6953 1151.5708,1398.6953 L1151.5708,1372.6953 " fill="#E2E2F0" style="stroke:#181818;stroke-width:1.5;"/><path d="M1151.5708,1372.6953 C1151.5708,1382.6953 1169.5708,1382.6953 1169.5708,1382.6953 C1169.5708,1382.6953 1187.5708,1382.6953 1187.5708,1372.6953 " fill="none" style="stroke:#181818;stroke-width:1.5;"/><polygon fill="#181818" points="312.6636,149.5703,322.6636,153.5703,312.6636,157.5703,316.6636,153.5703" style="stroke:#181818;stroke-width:1.0;"/><line style="stroke:#181818;stroke-width:1.0;" x1="58.5894" x2="318.6636" y1="153.5703" y2="153.5703"/><text fill="#000000" font-family="sans-serif" font-size="13" lengthAdjust="spacing" textLength="103.3335" x="65.5894" y="148.7139">Membuka /satuan</text><polygon fill="#181818" points="560.5264,179.9219,570.5264,183.9219,560.5264,187.9219,564.5264,183.9219" style="stroke:#181818;stroke-width:1.0;"/><line style="stroke:#181818;stroke-width:1.0;" x1="324.6636" x2="566.5264" y1="183.9219" y2="183.9219"/><text fill="#000000" font-family="sans-serif" font-size="13" lengthAdjust="spacing" textLength="44.7891" x="331.6636" y="179.0654">mount()</text><polygon fill="#181818" points="1157.5708,210.2734,1167.5708,214.2734,1157.5708,218.2734,1161.5708,214.2734" style="stroke:#181818;stroke-width:1.0;"/><line style="stroke:#181818;stroke-width:1.0;" x1="572.5264" x2="1163.5708" y1="214.2734" y2="214.2734"/><text fill="#000000" font-family="sans-serif" font-size="13" lengthAdjust="spacing" textLength="223.2725" x="579.5264" y="209.417">SELECT units (with base_unit relation)</text><polygon fill="#181818" points="583.5264,240.625,573.5264,244.625,583.5264,248.625,579.5264,244.625" style="stroke:#181818;stroke-width:1.0;"/><line style="stroke:#181818;stroke-width:1.0;stroke-dasharray:2.0,2.0;" x1="577.5264" x2="1168.5708" y1="244.625" y2="244.625"/><text fill="#000000" font-family="sans-serif" font-size="13" lengthAdjust="spacing" textLength="95.3862" x="589.5264" y="239.7686">Collection&lt;Unit&gt;</text><polygon fill="#181818" points="335.6636,270.9766,325.6636,274.9766,335.6636,278.9766,331.6636,274.9766" style="stroke:#181818;stroke-width:1.0;"/><line style="stroke:#181818;stroke-width:1.0;stroke-dasharray:2.0,2.0;" x1="329.6636" x2="571.5264" y1="274.9766" y2="274.9766"/><text fill="#000000" font-family="sans-serif" font-size="13" lengthAdjust="spacing" textLength="218.2515" x="341.6636" y="270.1201">Render daftar satuan dasar &amp; turunan</text><rect fill="#EEEEEE" height="3" style="stroke:#EEEEEE;stroke-width:1.0;" width="1222.5361" x="0" y="304.1523"/><line style="stroke:#000000;stroke-width:1.0;" x1="0" x2="1222.5361" y1="304.1523" y2="304.1523"/><line style="stroke:#000000;stroke-width:1.0;" x1="0" x2="1222.5361" y1="307.1523" y2="307.1523"/><rect fill="#EEEEEE" height="24.3516" style="stroke:#000000;stroke-width:2.0;" width="154.1563" x="534.1899" y="292.9766"/><text fill="#000000" font-family="sans-serif" font-size="13" font-weight="bold" lengthAdjust="spacing" textLength="136.5444" x="540.1899" y="310.4717">Tambah Satuan Dasar</text><polygon fill="#181818" points="312.6636,362.0313,322.6636,366.0313,312.6636,370.0313,316.6636,366.0313" style="stroke:#181818;stroke-width:1.0;"/><line style="stroke:#181818;stroke-width:1.0;" x1="58.5894" x2="318.6636" y1="366.0313" y2="366.0313"/><text fill="#000000" font-family="sans-serif" font-size="13" lengthAdjust="spacing" textLength="152.4707" x="65.5894" y="344.8232">Mengisi nama &amp; singkatan</text><text fill="#000000" font-family="sans-serif" font-size="13" lengthAdjust="spacing" textLength="214.627" x="65.5894" y="361.1748">(tanpa pilih satuan induk) lalu simpan</text><polygon fill="#181818" points="560.5264,392.3828,570.5264,396.3828,560.5264,400.3828,564.5264,396.3828" style="stroke:#181818;stroke-width:1.0;"/><line style="stroke:#181818;stroke-width:1.0;" x1="324.6636" x2="566.5264" y1="396.3828" y2="396.3828"/><text fill="#000000" font-family="sans-serif" font-size="13" lengthAdjust="spacing" textLength="36.1182" x="331.6636" y="391.5264">save()</text><line style="stroke:#181818;stroke-width:1.0;" x1="572.5264" x2="614.5264" y1="426.7344" y2="426.7344"/><line style="stroke:#181818;stroke-width:1.0;" x1="614.5264" x2="614.5264" y1="426.7344" y2="439.7344"/><line style="stroke:#181818;stroke-width:1.0;" x1="573.5264" x2="614.5264" y1="439.7344" y2="439.7344"/><polygon fill="#181818" points="583.5264,435.7344,573.5264,439.7344,583.5264,443.7344,579.5264,439.7344" style="stroke:#181818;stroke-width:1.0;"/><text fill="#000000" font-family="sans-serif" font-size="13" lengthAdjust="spacing" textLength="311.5874" x="579.5264" y="421.8779">validate(['name'=&gt;'required|unique','alias'=&gt;'required'])</text><path d="M255.519,454.7344 L315.6899,454.7344 L315.6899,463.0859 L305.6899,473.0859 L255.519,473.0859 L255.519,454.7344 " fill="#EEEEEE" style="stroke:#000000;stroke-width:1.5;"/><rect fill="none" height="155.5938" style="stroke:#000000;stroke-width:1.5;" width="957.0171" x="255.519" y="454.7344"/><text fill="#000000" font-family="sans-serif" font-size="13" font-weight="bold" lengthAdjust="spacing" textLength="15.1709" x="270.519" y="469.2295">alt</text><text fill="#000000" font-family="sans-serif" font-size="11" font-weight="bold" lengthAdjust="spacing" textLength="80.6899" x="330.6899" y="468.1533">[Validasi gagal]</text><polygon fill="#181818" points="335.6636,491.4375,325.6636,495.4375,335.6636,499.4375,331.6636,495.4375" style="stroke:#181818;stroke-width:1.0;"/><line style="stroke:#181818;stroke-width:1.0;stroke-dasharray:2.0,2.0;" x1="329.6636" x2="571.5264" y1="495.4375" y2="495.4375"/><text fill="#000000" font-family="sans-serif" font-size="13" lengthAdjust="spacing" textLength="99.7407" x="341.6636" y="490.5811">Pesan kesalahan</text><line style="stroke:#000000;stroke-width:1.0;stroke-dasharray:2.0,2.0;" x1="255.519" x2="1212.5361" y1="504.4375" y2="504.4375"/><text fill="#000000" font-family="sans-serif" font-size="11" font-weight="bold" lengthAdjust="spacing" textLength="50.7354" x="260.519" y="515.8564">[Berhasil]</text><polygon fill="#181818" points="886.1138,537.625,896.1138,541.625,886.1138,545.625,890.1138,541.625" style="stroke:#181818;stroke-width:1.0;"/><line style="stroke:#181818;stroke-width:1.0;" x1="572.5264" x2="892.1138" y1="541.625" y2="541.625"/><text fill="#000000" font-family="sans-serif" font-size="13" lengthAdjust="spacing" textLength="259.2319" x="579.5264" y="536.7686">Unit::create(['name'=&gt;$name,'alias'=&gt;$alias])</text><polygon fill="#181818" points="1157.5708,567.9766,1167.5708,571.9766,1157.5708,575.9766,1161.5708,571.9766" style="stroke:#181818;stroke-width:1.0;"/><line style="stroke:#181818;stroke-width:1.0;" x1="898.1138" x2="1163.5708" y1="571.9766" y2="571.9766"/><text fill="#000000" font-family="sans-serif" font-size="13" lengthAdjust="spacing" textLength="247.457" x="905.1138" y="567.1201">INSERT INTO units (base_unit_id = NULL)</text><polygon fill="#181818" points="335.6636,598.3281,325.6636,602.3281,335.6636,606.3281,331.6636,602.3281" style="stroke:#181818;stroke-width:1.0;"/><line style="stroke:#181818;stroke-width:1.0;stroke-dasharray:2.0,2.0;" x1="329.6636" x2="571.5264" y1="602.3281" y2="602.3281"/><text fill="#000000" font-family="sans-serif" font-size="13" lengthAdjust="spacing" textLength="96.8081" x="341.6636" y="597.4717">Notifikasi sukses</text><rect fill="#EEEEEE" height="3" style="stroke:#EEEEEE;stroke-width:1.0;" width="1222.5361" x="0" y="638.5039"/><line style="stroke:#000000;stroke-width:1.0;" x1="0" x2="1222.5361" y1="638.5039" y2="638.5039"/><line style="stroke:#000000;stroke-width:1.0;" x1="0" x2="1222.5361" y1="641.5039" y2="641.5039"/><rect fill="#EEEEEE" height="24.3516" style="stroke:#000000;stroke-width:2.0;" width="170.0127" x="526.2617" y="627.3281"/><text fill="#000000" font-family="sans-serif" font-size="13" font-weight="bold" lengthAdjust="spacing" textLength="152.4009" x="532.2617" y="644.8232">Tambah Satuan Turunan</text><polygon fill="#181818" points="312.6636,696.3828,322.6636,700.3828,312.6636,704.3828,316.6636,700.3828" style="stroke:#181818;stroke-width:1.0;"/><line style="stroke:#181818;stroke-width:1.0;" x1="58.5894" x2="318.6636" y1="700.3828" y2="700.3828"/><text fill="#000000" font-family="sans-serif" font-size="13" lengthAdjust="spacing" textLength="213.8779" x="65.5894" y="679.1748">Memilih satuan induk, mengisi nama,</text><text fill="#000000" font-family="sans-serif" font-size="13" lengthAdjust="spacing" textLength="242.0742" x="65.5894" y="695.5264">singkatan, dan faktor konversi lalu simpan</text><polygon fill="#181818" points="560.5264,726.7344,570.5264,730.7344,560.5264,734.7344,564.5264,730.7344" style="stroke:#181818;stroke-width:1.0;"/><line style="stroke:#181818;stroke-width:1.0;" x1="324.6636" x2="566.5264" y1="730.7344" y2="730.7344"/><text fill="#000000" font-family="sans-serif" font-size="13" lengthAdjust="spacing" textLength="36.1182" x="331.6636" y="725.8779">save()</text><line style="stroke:#181818;stroke-width:1.0;" x1="572.5264" x2="614.5264" y1="777.4375" y2="777.4375"/><line style="stroke:#181818;stroke-width:1.0;" x1="614.5264" x2="614.5264" y1="777.4375" y2="790.4375"/><line style="stroke:#181818;stroke-width:1.0;" x1="573.5264" x2="614.5264" y1="790.4375" y2="790.4375"/><polygon fill="#181818" points="583.5264,786.4375,573.5264,790.4375,583.5264,794.4375,579.5264,790.4375" style="stroke:#181818;stroke-width:1.0;"/><text fill="#000000" font-family="sans-serif" font-size="13" lengthAdjust="spacing" textLength="202.8965" x="579.5264" y="756.2295">validate(['base_unit_id'=&gt;'required',</text><text fill="#000000" font-family="sans-serif" font-size="13" lengthAdjust="spacing" textLength="293.4395" x="579.5264" y="772.5811">'conversion_factor'=&gt;'required|numeric|min:0.001'])</text><path d="M255.519,805.4375 L315.6899,805.4375 L315.6899,813.7891 L305.6899,823.7891 L255.519,823.7891 L255.519,805.4375 " fill="#EEEEEE" style="stroke:#000000;stroke-width:1.5;"/><rect fill="none" height="171.9453" style="stroke:#000000;stroke-width:1.5;" width="957.0171" x="255.519" y="805.4375"/><text fill="#000000" font-family="sans-serif" font-size="13" font-weight="bold" lengthAdjust="spacing" textLength="15.1709" x="270.519" y="819.9326">alt</text><text fill="#000000" font-family="sans-serif" font-size="11" font-weight="bold" lengthAdjust="spacing" textLength="80.6899" x="330.6899" y="818.8564">[Validasi gagal]</text><polygon fill="#181818" points="335.6636,842.1406,325.6636,846.1406,335.6636,850.1406,331.6636,846.1406" style="stroke:#181818;stroke-width:1.0;"/><line style="stroke:#181818;stroke-width:1.0;stroke-dasharray:2.0,2.0;" x1="329.6636" x2="571.5264" y1="846.1406" y2="846.1406"/><text fill="#000000" font-family="sans-serif" font-size="13" lengthAdjust="spacing" textLength="99.7407" x="341.6636" y="841.2842">Pesan kesalahan</text><line style="stroke:#000000;stroke-width:1.0;stroke-dasharray:2.0,2.0;" x1="255.519" x2="1212.5361" y1="855.1406" y2="855.1406"/><text fill="#000000" font-family="sans-serif" font-size="11" font-weight="bold" lengthAdjust="spacing" textLength="50.7354" x="260.519" y="866.5596">[Berhasil]</text><polygon fill="#181818" points="886.1138,904.6797,896.1138,908.6797,886.1138,912.6797,890.1138,908.6797" style="stroke:#181818;stroke-width:1.0;"/><line style="stroke:#181818;stroke-width:1.0;" x1="572.5264" x2="892.1138" y1="908.6797" y2="908.6797"/><text fill="#000000" font-family="sans-serif" font-size="13" lengthAdjust="spacing" textLength="207.3081" x="579.5264" y="887.4717">Unit::create([..., 'base_unit_id'=&gt;$id,</text><text fill="#000000" font-family="sans-serif" font-size="13" lengthAdjust="spacing" textLength="170.4409" x="579.5264" y="903.8232">'conversion_factor'=&gt;$factor])</text><polygon fill="#181818" points="1157.5708,935.0313,1167.5708,939.0313,1157.5708,943.0313,1161.5708,939.0313" style="stroke:#181818;stroke-width:1.0;"/><line style="stroke:#181818;stroke-width:1.0;" x1="898.1138" x2="1163.5708" y1="939.0313" y2="939.0313"/><text fill="#000000" font-family="sans-serif" font-size="13" lengthAdjust="spacing" textLength="113.4072" x="905.1138" y="934.1748">INSERT INTO units</text><polygon fill="#181818" points="335.6636,965.3828,325.6636,969.3828,335.6636,973.3828,331.6636,969.3828" style="stroke:#181818;stroke-width:1.0;"/><line style="stroke:#181818;stroke-width:1.0;stroke-dasharray:2.0,2.0;" x1="329.6636" x2="571.5264" y1="969.3828" y2="969.3828"/><text fill="#000000" font-family="sans-serif" font-size="13" lengthAdjust="spacing" textLength="96.8081" x="341.6636" y="964.5264">Notifikasi sukses</text><rect fill="#EEEEEE" height="3" style="stroke:#EEEEEE;stroke-width:1.0;" width="1222.5361" x="0" y="1005.5586"/><line style="stroke:#000000;stroke-width:1.0;" x1="0" x2="1222.5361" y1="1005.5586" y2="1005.5586"/><line style="stroke:#000000;stroke-width:1.0;" x1="0" x2="1222.5361" y1="1008.5586" y2="1008.5586"/><rect fill="#EEEEEE" height="24.3516" style="stroke:#000000;stroke-width:2.0;" width="104.2954" x="559.1204" y="994.3828"/><text fill="#000000" font-family="sans-serif" font-size="13" font-weight="bold" lengthAdjust="spacing" textLength="86.6836" x="565.1204" y="1011.8779">Hapus Satuan</text><polygon fill="#181818" points="312.6636,1047.0859,322.6636,1051.0859,312.6636,1055.0859,316.6636,1051.0859" style="stroke:#181818;stroke-width:1.0;"/><line style="stroke:#181818;stroke-width:1.0;" x1="58.5894" x2="318.6636" y1="1051.0859" y2="1051.0859"/><text fill="#000000" font-family="sans-serif" font-size="13" lengthAdjust="spacing" textLength="135.1543" x="65.5894" y="1046.2295">Klik hapus pada satuan</text><polygon fill="#181818" points="560.5264,1077.4375,570.5264,1081.4375,560.5264,1085.4375,564.5264,1081.4375" style="stroke:#181818;stroke-width:1.0;"/><line style="stroke:#181818;stroke-width:1.0;" x1="324.6636" x2="566.5264" y1="1081.4375" y2="1081.4375"/><text fill="#000000" font-family="sans-serif" font-size="13" lengthAdjust="spacing" textLength="61.4263" x="331.6636" y="1076.5811">delete($id)</text><polygon fill="#181818" points="1157.5708,1124.1406,1167.5708,1128.1406,1157.5708,1132.1406,1161.5708,1128.1406" style="stroke:#181818;stroke-width:1.0;"/><line style="stroke:#181818;stroke-width:1.0;" x1="572.5264" x2="1163.5708" y1="1128.1406" y2="1128.1406"/><text fill="#000000" font-family="sans-serif" font-size="13" lengthAdjust="spacing" textLength="212.3481" x="579.5264" y="1106.9326">SELECT COUNT(*) FROM materials</text><text fill="#000000" font-family="sans-serif" font-size="13" lengthAdjust="spacing" textLength="112.3535" x="579.5264" y="1123.2842">WHERE unit_id = ?</text><polygon fill="#181818" points="583.5264,1154.4922,573.5264,1158.4922,583.5264,1162.4922,579.5264,1158.4922" style="stroke:#181818;stroke-width:1.0;"/><line style="stroke:#181818;stroke-width:1.0;stroke-dasharray:2.0,2.0;" x1="577.5264" x2="1168.5708" y1="1158.4922" y2="1158.4922"/><text fill="#000000" font-family="sans-serif" font-size="13" lengthAdjust="spacing" textLength="109.1162" x="589.5264" y="1153.6357">Jumlah pemakaian</text><path d="M255.519,1173.4922 L315.6899,1173.4922 L315.6899,1181.8438 L305.6899,1191.8438 L255.519,1191.8438 L255.519,1173.4922 " fill="#EEEEEE" style="stroke:#000000;stroke-width:1.5;"/><rect fill="none" height="155.5938" style="stroke:#000000;stroke-width:1.5;" width="957.0171" x="255.519" y="1173.4922"/><text fill="#000000" font-family="sans-serif" font-size="13" font-weight="bold" lengthAdjust="spacing" textLength="15.1709" x="270.519" y="1187.9873">alt</text><text fill="#000000" font-family="sans-serif" font-size="11" font-weight="bold" lengthAdjust="spacing" textLength="143.6284" x="330.6899" y="1186.9111">[Satuan sedang digunakan]</text><polygon fill="#181818" points="335.6636,1210.1953,325.6636,1214.1953,335.6636,1218.1953,331.6636,1214.1953" style="stroke:#181818;stroke-width:1.0;"/><line style="stroke:#181818;stroke-width:1.0;stroke-dasharray:2.0,2.0;" x1="329.6636" x2="571.5264" y1="1214.1953" y2="1214.1953"/><text fill="#000000" font-family="sans-serif" font-size="13" lengthAdjust="spacing" textLength="223.8628" x="341.6636" y="1209.3389">Pesan error "Satuan masih digunakan"</text><line style="stroke:#000000;stroke-width:1.0;stroke-dasharray:2.0,2.0;" x1="255.519" x2="1212.5361" y1="1223.1953" y2="1223.1953"/><text fill="#000000" font-family="sans-serif" font-size="11" font-weight="bold" lengthAdjust="spacing" textLength="83.1123" x="260.519" y="1234.6143">[Aman dihapus]</text><polygon fill="#181818" points="886.1138,1256.3828,896.1138,1260.3828,886.1138,1264.3828,890.1138,1260.3828" style="stroke:#181818;stroke-width:1.0;"/><line style="stroke:#181818;stroke-width:1.0;" x1="572.5264" x2="892.1138" y1="1260.3828" y2="1260.3828"/><text fill="#000000" font-family="sans-serif" font-size="13" lengthAdjust="spacing" textLength="98.979" x="579.5264" y="1255.5264">Unit::destroy($id)</text><polygon fill="#181818" points="1157.5708,1286.7344,1167.5708,1290.7344,1157.5708,1294.7344,1161.5708,1290.7344" style="stroke:#181818;stroke-width:1.0;"/><line style="stroke:#181818;stroke-width:1.0;" x1="898.1138" x2="1163.5708" y1="1290.7344" y2="1290.7344"/><text fill="#000000" font-family="sans-serif" font-size="13" lengthAdjust="spacing" textLength="211.3008" x="905.1138" y="1285.8779">DELETE FROM units WHERE id = ?</text><polygon fill="#181818" points="335.6636,1317.0859,325.6636,1321.0859,335.6636,1325.0859,331.6636,1321.0859" style="stroke:#181818;stroke-width:1.0;"/><line style="stroke:#181818;stroke-width:1.0;stroke-dasharray:2.0,2.0;" x1="329.6636" x2="571.5264" y1="1321.0859" y2="1321.0859"/><text fill="#000000" font-family="sans-serif" font-size="13" lengthAdjust="spacing" textLength="96.8081" x="341.6636" y="1316.2295">Notifikasi sukses</text><!--SRC=[nPLjRzem4CVVvrES41faefHfxwB1D1wcTgLqej2z65Dr9GTOSPpCTkWczSFldF1OO5kbINkHnF7TnV-xtzcnmag2SUUiyJQ0AvA9HBX5cw62aA-hH2r96-5vEBM9Xb8RvuBdBtbQyOGe0HeO6z9UYjgAgKXHMIXTeCIO_OfFJLHLYYKz2atdcHBMpwFk13tkHutPDfbSgf1-S4X_5L9uTv8uJHGlUXW2rqb8ib32h_cR5wB51pG4fUvgb3jqsvxdvC9PAnSGm3N53rc4S6vohPwRTTRDWW74IQPirVSsKyxURGTms-ltEYDmEHceFWgx0BVIlPi0JHAjI9JlTTjmjl_5JY8bJPtrdPFSsltqHjcGk1AQESmiQZ1hAePVNe7DTAPOhjTimWZZ1roikNLpZsRp84yr5qQ0OZ0SRuIQHrmP1uVlAK8gf5Yibn4gp28V9CgCNUFqU64CBkbvNNRCIvI2EL3rQuLNfKgpLT7qFMEcuHENw7j6bLg5VT3icYhVV0-bXRiycXNFSOxI0pXMeyzaM6t4TuaB5acIaRT9BpZmMKnhsnr1FWo2gQOzUMNtt4egvmEM0zlGDVhBmMrlEEB7w6RDVuF-NeJGXC6ut_TFo1uaLin4vB8pMMJ8UCpw2CjHGVaOpVW0LmtY7SQrYTemhkMRUOQHsyFHQa__ExYxYU-HP0sLwMgvHDtFyaDahmrK5fCMqwTOgA1HRpJU_0VwzNgz1i-JA8lmbFfoCVhBldXn1rnWcfbr0no0lv8YWaNkacA8SFhKOb74wN4Yfq-kpiruCAg-zk7ZyEOQOYw75YZDH7svw0rxi6tczqSEiKzPp6M7b6ACaFyAERULRaFSSNC8nPpxDsBRxm2IrkxViWgDkIQBRMIfeFh1_Kv2aMV-Hx8X6QkJdqNkHo1rEVjHhqYwsBn5lgjKNqBi5m00]--></g></svg>