<svg xmlns="http://www.w3.org/2000/svg" xmlns:xlink="http://www.w3.org/1999/xlink" contentStyleType="text/css" height="1299px" preserveAspectRatio="none" style="width:1458px;height:1299px;background:#FFFFFF;" version="1.1" viewBox="0 0 1458 1299" width="1458px" zoomAndPan="magnify"><title>UC-05: Kelola Bahan Baku</title><defs/><g><text fill="#000000" font-family="sans-serif" font-size="14" font-weight="bold" lengthAdjust="spacing" textLength="175.8203" x="637.1873" y="29.5332">UC-05: Kelola Bahan Baku</text><rect fill="none" height="277" style="stroke:#000000;stroke-width:1.5;" width="1431.1948" x="10" y="471.0859"/><line style="stroke:#181818;stroke-width:0.5;stroke-dasharray:5.0,5.0;" x1="73" x2="73" y1="121.2188" y2="1217.0078"/><line style="stroke:#181818;stroke-width:0.5;stroke-dasharray:5.0,5.0;" x1="369.9121" x2="369.9121" y1="121.2188" y2="1217.0078"/><line style="stroke:#181818;stroke-width:0.5;stroke-dasharray:5.0,5.0;" x1="619.3208" x2="619.3208" y1="121.2188" y2="1217.0078"/><line style="stroke:#181818;stroke-width:0.5;stroke-dasharray:5.0,5.0;" x1="922.4331" x2="922.4331" y1="121.2188" y2="1217.0078"/><line style="stroke:#181818;stroke-width:0.5;stroke-dasharray:5.0,5.0;" x1="1056.2466" x2="1056.2466" y1="121.2188" y2="1217.0078"/><line style="stroke:#181818;stroke-width:0.5;stroke-dasharray:5.0,5.0;" x1="1397.2642" x2="1397.2642" y1="121.2188" y2="1217.0078"/><text fill="#000000" font-family="sans-serif" font-size="14" lengthAdjust="spacing" textLength="101.1787" x="20" y="118.1426">Bagian Inventori</text><ellipse cx="73.5894" cy="52.1094" fill="#E2E2F0" rx="8" ry="8" style="stroke:#181818;stroke-width:0.5;"/><path d="M73.5894,60.1094 L73.5894,87.1094 M60.5894,68.1094 L86.5894,68.1094 M73.5894,87.1094 L60.5894,102.1094 M73.5894,87.1094 L86.5894,102.1094 " fill="none" style="stroke:#181818;stroke-width:0.5;"/><text fill="#000000" font-family="sans-serif" font-size="14" lengthAdjust="spacing" textLength="101.1787" x="20" y="1230.541">Bagian Inventori</text><ellipse cx="73.5894" cy="1242.1172" fill="#E2E2F0" rx="8" ry="8" style="stroke:#181818;stroke-width:0.5;"/><path d="M73.5894,1250.1172 L73.5894,1277.1172 M60.5894,1258.1172 L86.5894,1258.1172 M73.5894,1277.1172 L60.5894,1292.1172 M73.5894,1277.1172 L86.5894,1292.1172 " fill="none" style="stroke:#181818;stroke-width:0.5;"/><rect fill="#E2E2F0" height="49.2188" rx="2.5" ry="2.5" style="stroke:#181818;stroke-width:0.5;" width="150.1992" x="294.9121" y="71"/><text fill="#000000" font-family="sans-serif" font-size="14" lengthAdjust="spacing" textLength="136.1992" x="301.9121" y="92.5332">Halaman Bahan Baku</text><text fill="#000000" font-family="sans-serif" font-size="14" lengthAdjust="spacing" textLength="109.6826" x="315.1704" y="110.1426">(livewire/material)</text><rect fill="#E2E2F0" height="49.2188" rx="2.5" ry="2.5" style="stroke:#181818;stroke-width:0.5;" width="150.1992" x="294.9121" y="1216.0078"/><text fill="#000000" font-family="sans-serif" font-size="14" lengthAdjust="spacing" textLength="136.1992" x="301.9121" y="1237.541">Halaman Bahan Baku</text><text fill="#000000" font-family="sans-serif" font-size="14" lengthAdjust="spacing" textLength="109.6826" x="315.1704" y="1255.1504">(livewire/material)</text><rect fill="#E2E2F0" height="49.2188" rx="2.5" ry="2.5" style="stroke:#181818;stroke-width:0.5;" width="100.3447" x="569.3208" y="71"/><text fill="#000000" font-family="sans-serif" font-size="14" lengthAdjust="spacing" textLength="86.3447" x="576.3208" y="92.5332">Material\Form</text><text fill="#000000" font-family="sans-serif" font-size="14" lengthAdjust="spacing" textLength="60.6758" x="589.1553" y="110.1426">(Livewire)</text><rect fill="#E2E2F0" height="49.2188" rx="2.5" ry="2.5" style="stroke:#181818;stroke-width:0.5;" width="100.3447" x="569.3208" y="1216.0078"/><text fill="#000000" font-family="sans-serif" font-size="14" lengthAdjust="spacing" textLength="86.3447" x="576.3208" y="1237.541">Material\Form</text><text fill="#000000" font-family="sans-serif" font-size="14" lengthAdjust="spacing" textLength="60.6758" x="589.1553" y="1255.1504">(Livewire)</text><rect fill="#E2E2F0" height="31.6094" rx="2.5" ry="2.5" style="stroke:#181818;stroke-width:0.5;" width="105.8135" x="870.4331" y="88.6094"/><text fill="#000000" font-family="sans-serif" font-size="14" lengthAdjust="spacing" textLength="91.8135" x="877.4331" y="110.1426">Material Model</text><rect fill="#E2E2F0" height="31.6094" rx="2.5" ry="2.5" style="stroke:#181818;stroke-width:0.5;" width="105.8135" x="870.4331" y="1216.0078"/><text fill="#000000" font-family="sans-serif" font-size="14" lengthAdjust="spacing" textLength="91.8135" x="877.4331" y="1237.541">Material Model</text><rect fill="#E2E2F0" height="31.6094" rx="2.5" ry="2.5" style="stroke:#181818;stroke-width:0.5;" width="141.6064" x="986.2466" y="88.6094"/><text fill="#000000" font-family="sans-serif" font-size="14" lengthAdjust="spacing" textLength="127.6064" x="993.2466" y="110.1426">MaterialDetail Model</text><rect fill="#E2E2F0" height="31.6094" rx="2.5" ry="2.5" style="stroke:#181818;stroke-width:0.5;" width="141.6064" x="986.2466" y="1216.0078"/><text fill="#000000" font-family="sans-serif" font-size="14" lengthAdjust="spacing" textLength="127.6064" x="993.2466" y="1237.541">MaterialDetail Model</text><text fill="#000000" font-family="sans-serif" font-size="14" lengthAdjust="spacing" textLength="59.9307" x="1365.2642" y="118.1426">Database</text><path d="M1380.2295,67.6094 C1380.2295,57.6094 1398.2295,57.6094 1398.2295,57.6094 C1398.2295,57.6094 1416.2295,57.6094 1416.2295,67.6094 L1416.2295,93.6094 C1416.2295,103.6094 1398.2295,103.6094 1398.2295,103.6094 C1398.2295,103.6094 1380.2295,103.6094 1380.2295,93.6094 L1380.2295,67.6094 " fill="#E2E2F0" style="stroke:#181818;stroke-width:1.5;"/><path d="M1380.2295,67.6094 C1380.2295,77.6094 1398.2295,77.6094 1398.2295,77.6094 C1398.2295,77.6094 1416.2295,77.6094 1416.2295,67.6094 " fill="none" style="stroke:#181818;stroke-width:1.5;"/><text fill="#000000" font-family="sans-serif" font-size="14" lengthAdjust="spacing" textLength="59.9307" x="1365.2642" y="1230.541">Database</text><path d="M1380.2295,1243.6172 C1380.2295,1233.6172 1398.2295,1233.6172 1398.2295,1233.6172 C1398.2295,1233.6172 1416.2295,1233.6172 1416.2295,1243.6172 L1416.2295,1269.6172 C1416.2295,1279.6172 1398.2295,1279.6172 1398.2295,1279.6172 C1398.2295,1279.6172 1380.2295,1279.6172 1380.2295,1269.6172 L1380.2295,1243.6172 " fill="#E2E2F0" style="stroke:#181818;stroke-width:1.5;"/><path d="M1380.2295,1243.6172 C1380.2295,1253.6172 1398.2295,1253.6172 1398.2295,1253.6172 C1398.2295,1253.6172 1416.2295,1253.6172 1416.2295,1243.6172 " fill="none" style="stroke:#181818;stroke-width:1.5;"/><polygon fill="#181818" points="358.0117,149.5703,368.0117,153.5703,358.0117,157.5703,362.0117,153.5703" style="stroke:#181818;stroke-width:1.0;"/><line style="stroke:#181818;stroke-width:1.0;" x1="73.5894" x2="364.0117" y1="153.5703" y2="153.5703"/><text fill="#000000" font-family="sans-serif" font-size="13" lengthAdjust="spacing" textLength="132.9707" x="80.5894" y="148.7139">Membuka /bahan-baku</text><polygon fill="#181818" points="607.4932,179.9219,617.4932,183.9219,607.4932,187.9219,611.4932,183.9219" style="stroke:#181818;stroke-width:1.0;"/><line style="stroke:#181818;stroke-width:1.0;" x1="370.0117" x2="613.4932" y1="183.9219" y2="183.9219"/><text fill="#000000" font-family="sans-serif" font-size="13" lengthAdjust="spacing" textLength="44.7891" x="377.0117" y="179.0654">mount()</text><polygon fill="#181818" points="1386.2295,210.2734,1396.2295,214.2734,1386.2295,218.2734,1390.2295,214.2734" style="stroke:#181818;stroke-width:1.0;"/><line style="stroke:#181818;stroke-width:1.0;" x1="619.4932" x2="1392.2295" y1="214.2734" y2="214.2734"/><text fill="#000000" font-family="sans-serif" font-size="13" lengthAdjust="spacing" textLength="174.8145" x="626.4932" y="209.417">SELECT materials WITH units</text><polygon fill="#181818" points="630.4932,240.625,620.4932,244.625,630.4932,248.625,626.4932,244.625" style="stroke:#181818;stroke-width:1.0;"/><line style="stroke:#181818;stroke-width:1.0;stroke-dasharray:2.0,2.0;" x1="624.4932" x2="1397.2295" y1="244.625" y2="244.625"/><text fill="#000000" font-family="sans-serif" font-size="13" lengthAdjust="spacing" textLength="118.5044" x="636.4932" y="239.7686">Collection&lt;Material&gt;</text><polygon fill="#181818" points="381.0117,270.9766,371.0117,274.9766,381.0117,278.9766,377.0117,274.9766" style="stroke:#181818;stroke-width:1.0;"/><line style="stroke:#181818;stroke-width:1.0;stroke-dasharray:2.0,2.0;" x1="375.0117" x2="618.4932" y1="274.9766" y2="274.9766"/><text fill="#000000" font-family="sans-serif" font-size="13" lengthAdjust="spacing" textLength="225.4814" x="387.0117" y="270.1201">Render daftar bahan baku beserta stok</text><rect fill="#EEEEEE" height="3" style="stroke:#EEEEEE;stroke-width:1.0;" width="1451.1948" x="0" y="304.1523"/><line style="stroke:#000000;stroke-width:1.0;" x1="0" x2="1451.1948" y1="304.1523" y2="304.1523"/><line style="stroke:#000000;stroke-width:1.0;" x1="0" x2="1451.1948" y1="307.1523" y2="307.1523"/><rect fill="#EEEEEE" height="24.3516" style="stroke:#000000;stroke-width:2.0;" width="146.1963" x="652.4993" y="292.9766"/><text fill="#000000" font-family="sans-serif" font-size="13" font-weight="bold" lengthAdjust="spacing" textLength="128.5845" x="658.4993" y="310.4717">Tambah Bahan Baku</text><polygon fill="#181818" points="358.0117,362.0313,368.0117,366.0313,358.0117,370.0313,362.0117,366.0313" style="stroke:#181818;stroke-width:1.0;"/><line style="stroke:#181818;stroke-width:1.0;" x1="73.5894" x2="364.0117" y1="366.0313" y2="366.0313"/><text fill="#000000" font-family="sans-serif" font-size="13" lengthAdjust="spacing" textLength="141.5972" x="80.5894" y="344.8232">Klik Tambah lalu isi form</text><text fill="#000000" font-family="sans-serif" font-size="13" lengthAdjust="spacing" textLength="272.4224" x="80.5894" y="361.1748">(nama, satuan, harga beli, gambar) lalu simpan</text><polygon fill="#181818" points="607.4932,392.3828,617.4932,396.3828,607.4932,400.3828,611.4932,396.3828" style="stroke:#181818;stroke-width:1.0;"/><line style="stroke:#181818;stroke-width:1.0;" x1="370.0117" x2="613.4932" y1="396.3828" y2="396.3828"/><text fill="#000000" font-family="sans-serif" font-size="13" lengthAdjust="spacing" textLength="36.1182" x="377.0117" y="391.5264">save()</text><line style="stroke:#181818;stroke-width:1.0;" x1="619.4932" x2="661.4932" y1="443.0859" y2="443.0859"/><line style="stroke:#181818;stroke-width:1.0;" x1="661.4932" x2="661.4932" y1="443.0859" y2="456.0859"/><line style="stroke:#181818;stroke-width:1.0;" x1="620.4932" x2="661.4932" y1="456.0859" y2="456.0859"/><polygon fill="#181818" points="630.4932,452.0859,620.4932,456.0859,630.4932,460.0859,626.4932,456.0859" style="stroke:#181818;stroke-width:1.0;"/><text fill="#000000" font-family="sans-serif" font-size="13" lengthAdjust="spacing" textLength="204.1025" x="626.4932" y="421.8779">validate(['name'=&gt;'required|unique',</text><text fill="#000000" font-family="sans-serif" font-size="13" lengthAdjust="spacing" textLength="289.8467" x="626.4932" y="438.2295">'image'=&gt;'nullable|mimes:jpg,jpeg,png|max:2048'])</text><path d="M10,471.0859 L70.1709,471.0859 L70.1709,479.4375 L60.1709,489.4375 L10,489.4375 L10,471.0859 " fill="#EEEEEE" style="stroke:#000000;stroke-width:1.5;"/><rect fill="none" height="277" style="stroke:#000000;stroke-width:1.5;" width="1431.1948" x="10" y="471.0859"/><text fill="#000000" font-family="sans-serif" font-size="13" font-weight="bold" lengthAdjust="spacing" textLength="15.1709" x="25" y="485.5811">alt</text><text fill="#000000" font-family="sans-serif" font-size="11" font-weight="bold" lengthAdjust="spacing" textLength="80.6899" x="85.1709" y="484.5049">[Validasi gagal]</text><polygon fill="#181818" points="381.0117,507.7891,371.0117,511.7891,381.0117,515.7891,377.0117,511.7891" style="stroke:#181818;stroke-width:1.0;"/><line style="stroke:#181818;stroke-width:1.0;stroke-dasharray:2.0,2.0;" x1="375.0117" x2="618.4932" y1="511.7891" y2="511.7891"/><text fill="#000000" font-family="sans-serif" font-size="13" lengthAdjust="spacing" textLength="99.7407" x="387.0117" y="506.9326">Pesan kesalahan</text><polygon fill="#181818" points="84.5894,538.1406,74.5894,542.1406,84.5894,546.1406,80.5894,542.1406" style="stroke:#181818;stroke-width:1.0;"/><line style="stroke:#181818;stroke-width:1.0;stroke-dasharray:2.0,2.0;" x1="78.5894" x2="369.0117" y1="542.1406" y2="542.1406"/><text fill="#000000" font-family="sans-serif" font-size="13" lengthAdjust="spacing" textLength="91.0254" x="90.5894" y="537.2842">Tampilkan error</text><line style="stroke:#000000;stroke-width:1.0;stroke-dasharray:2.0,2.0;" x1="10" x2="1441.1948" y1="551.1406" y2="551.1406"/><text fill="#000000" font-family="sans-serif" font-size="11" font-weight="bold" lengthAdjust="spacing" textLength="50.7354" x="15" y="562.5596">[Berhasil]</text><polygon fill="#181818" points="911.3398,584.3281,921.3398,588.3281,911.3398,592.3281,915.3398,588.3281" style="stroke:#181818;stroke-width:1.0;"/><line style="stroke:#181818;stroke-width:1.0;" x1="619.4932" x2="917.3398" y1="588.3281" y2="588.3281"/><text fill="#000000" font-family="sans-serif" font-size="13" lengthAdjust="spacing" textLength="116.3081" x="626.4932" y="583.4717">Material::create([...])</text><polygon fill="#181818" points="1386.2295,614.6797,1396.2295,618.6797,1386.2295,622.6797,1390.2295,618.6797" style="stroke:#181818;stroke-width:1.0;"/><line style="stroke:#181818;stroke-width:1.0;" x1="923.3398" x2="1392.2295" y1="618.6797" y2="618.6797"/><text fill="#000000" font-family="sans-serif" font-size="13" lengthAdjust="spacing" textLength="138.6836" x="930.3398" y="613.8232">INSERT INTO materials</text><polygon fill="#181818" points="934.3398,645.0313,924.3398,649.0313,934.3398,653.0313,930.3398,649.0313" style="stroke:#181818;stroke-width:1.0;"/><line style="stroke:#181818;stroke-width:1.0;stroke-dasharray:2.0,2.0;" x1="928.3398" x2="1397.2295" y1="649.0313" y2="649.0313"/><text fill="#000000" font-family="sans-serif" font-size="13" lengthAdjust="spacing" textLength="75.8672" x="940.3398" y="644.1748">Material baru</text><polygon fill="#181818" points="1045.0498,675.3828,1055.0498,679.3828,1045.0498,683.3828,1049.0498,679.3828" style="stroke:#181818;stroke-width:1.0;"/><line style="stroke:#181818;stroke-width:1.0;" x1="619.4932" x2="1051.0498" y1="679.3828" y2="679.3828"/><text fill="#000000" font-family="sans-serif" font-size="13" lengthAdjust="spacing" textLength="254.2363" x="626.4932" y="674.5264">MaterialDetail::create(['material_id'=&gt;$id,...])</text><polygon fill="#181818" points="1386.2295,705.7344,1396.2295,709.7344,1386.2295,713.7344,1390.2295,709.7344" style="stroke:#181818;stroke-width:1.0;"/><line style="stroke:#181818;stroke-width:1.0;" x1="1057.0498" x2="1392.2295" y1="709.7344" y2="709.7344"/><text fill="#000000" font-family="sans-serif" font-size="13" lengthAdjust="spacing" textLength="317.1797" x="1064.0498" y="704.8779">INSERT INTO material_details (satuan &amp; harga utama)</text><polygon fill="#181818" points="381.0117,736.0859,371.0117,740.0859,381.0117,744.0859,377.0117,740.0859" style="stroke:#181818;stroke-width:1.0;"/><line style="stroke:#181818;stroke-width:1.0;stroke-dasharray:2.0,2.0;" x1="375.0117" x2="618.4932" y1="740.0859" y2="740.0859"/><text fill="#000000" font-family="sans-serif" font-size="13" lengthAdjust="spacing" textLength="207.3716" x="387.0117" y="735.2295">Notifikasi sukses &amp; daftar diperbarui</text><rect fill="#EEEEEE" height="3" style="stroke:#EEEEEE;stroke-width:1.0;" width="1451.1948" x="0" y="776.2617"/><line style="stroke:#000000;stroke-width:1.0;" x1="0" x2="1451.1948" y1="776.2617" y2="776.2617"/><line style="stroke:#000000;stroke-width:1.0;" x1="0" x2="1451.1948" y1="779.2617" y2="779.2617"/><rect fill="#EEEEEE" height="24.3516" style="stroke:#000000;stroke-width:2.0;" width="128.8545" x="661.1702" y="765.0859"/><text fill="#000000" font-family="sans-serif" font-size="13" font-weight="bold" lengthAdjust="spacing" textLength="111.2427" x="667.1702" y="782.5811">Ubah Bahan Baku</text><polygon fill="#181818" points="358.0117,817.7891,368.0117,821.7891,358.0117,825.7891,362.0117,821.7891" style="stroke:#181818;stroke-width:1.0;"/><line style="stroke:#181818;stroke-width:1.0;" x1="73.5894" x2="364.0117" y1="821.7891" y2="821.7891"/><text fill="#000000" font-family="sans-serif" font-size="13" lengthAdjust="spacing" textLength="183.5552" x="80.5894" y="816.9326">Klik edit, ubah data, lalu simpan</text><polygon fill="#181818" points="607.4932,848.1406,617.4932,852.1406,607.4932,856.1406,611.4932,852.1406" style="stroke:#181818;stroke-width:1.0;"/><line style="stroke:#181818;stroke-width:1.0;" x1="370.0117" x2="613.4932" y1="852.1406" y2="852.1406"/><text fill="#000000" font-family="sans-serif" font-size="13" lengthAdjust="spacing" textLength="90.3081" x="377.0117" y="847.2842">edit($id), save()</text><polygon fill="#181818" points="911.3398,878.4922,921.3398,882.4922,911.3398,886.4922,915.3398,882.4922" style="stroke:#181818;stroke-width:1.0;"/><line style="stroke:#181818;stroke-width:1.0;" x1="619.4932" x2="917.3398" y1="882.4922" y2="882.4922"/><text fill="#000000" font-family="sans-serif" font-size="13" lengthAdjust="spacing" textLength="135.8145" x="626.4932" y="877.6357">Material::findOrFail($id)</text><polygon fill="#181818" points="1386.2295,908.8438,1396.2295,912.8438,1386.2295,916.8438,1390.2295,912.8438" style="stroke:#181818;stroke-width:1.0;"/><line style="stroke:#181818;stroke-width:1.0;" x1="923.3398" x2="1392.2295" y1="912.8438" y2="912.8438"/><text fill="#000000" font-family="sans-serif" font-size="13" lengthAdjust="spacing" textLength="194.6953" x="930.3398" y="907.9873">SELECT materials WHERE id = ?</text><polygon fill="#181818" points="934.3398,939.1953,924.3398,943.1953,934.3398,947.1953,930.3398,943.1953" style="stroke:#181818;stroke-width:1.0;"/><line style="stroke:#181818;stroke-width:1.0;stroke-dasharray:2.0,2.0;" x1="928.3398" x2="1397.2295" y1="943.1953" y2="943.1953"/><text fill="#000000" font-family="sans-serif" font-size="13" lengthAdjust="spacing" textLength="86.6963" x="940.3398" y="938.3389">Material record</text><line style="stroke:#181818;stroke-width:1.0;" x1="619.4932" x2="661.4932" y1="973.5469" y2="973.5469"/><line style="stroke:#181818;stroke-width:1.0;" x1="661.4932" x2="661.4932" y1="973.5469" y2="986.5469"/><line style="stroke:#181818;stroke-width:1.0;" x1="620.4932" x2="661.4932" y1="986.5469" y2="986.5469"/><polygon fill="#181818" points="630.4932,982.5469,620.4932,986.5469,630.4932,990.5469,626.4932,986.5469" style="stroke:#181818;stroke-width:1.0;"/><text fill="#000000" font-family="sans-serif" font-size="13" lengthAdjust="spacing" textLength="219.7114" x="626.4932" y="968.6904">validate &amp; handle upload gambar baru</text><polygon fill="#181818" points="911.3398,1012.8984,921.3398,1016.8984,911.3398,1020.8984,915.3398,1016.8984" style="stroke:#181818;stroke-width:1.0;"/><line style="stroke:#181818;stroke-width:1.0;" x1="619.4932" x2="917.3398" y1="1016.8984" y2="1016.8984"/><text fill="#000000" font-family="sans-serif" font-size="13" lengthAdjust="spacing" textLength="131.8662" x="626.4932" y="1012.042">$material-&gt;update([...])</text><polygon fill="#181818" points="1386.2295,1043.25,1396.2295,1047.25,1386.2295,1051.25,1390.2295,1047.25" style="stroke:#181818;stroke-width:1.0;"/><line style="stroke:#181818;stroke-width:1.0;" x1="923.3398" x2="1392.2295" y1="1047.25" y2="1047.25"/><text fill="#000000" font-family="sans-serif" font-size="13" lengthAdjust="spacing" textLength="196.8535" x="930.3398" y="1042.3936">UPDATE materials WHERE id = ?</text><polygon fill="#181818" points="1045.0498,1073.6016,1055.0498,1077.6016,1045.0498,1081.6016,1049.0498,1077.6016" style="stroke:#181818;stroke-width:1.0;"/><line style="stroke:#181818;stroke-width:1.0;" x1="619.4932" x2="1051.0498" y1="1077.6016" y2="1077.6016"/><text fill="#000000" font-family="sans-serif" font-size="13" lengthAdjust="spacing" textLength="322.1626" x="626.4932" y="1072.7451">MaterialDetail::updateOrCreate(['material_id'=&gt;$id], [...])</text><polygon fill="#181818" points="1386.2295,1103.9531,1396.2295,1107.9531,1386.2295,1111.9531,1390.2295,1107.9531" style="stroke:#181818;stroke-width:1.0;"/><line style="stroke:#181818;stroke-width:1.0;" x1="1057.0498" x2="1392.2295" y1="1107.9531" y2="1107.9531"/><text fill="#000000" font-family="sans-serif" font-size="13" lengthAdjust="spacing" textLength="288.6279" x="1064.0498" y="1103.0967">UPDATE material_details WHERE material_id = ?</text><polygon fill="#181818" points="911.3398,1134.3047,921.3398,1138.3047,911.3398,1142.3047,915.3398,1138.3047" style="stroke:#181818;stroke-width:1.0;"/><line style="stroke:#181818;stroke-width:1.0;" x1="619.4932" x2="917.3398" y1="1138.3047" y2="1138.3047"/><text fill="#000000" font-family="sans-serif" font-size="13" lengthAdjust="spacing" textLength="207.3652" x="626.4932" y="1133.4482">Hitung ulang stok &amp; status minimum</text><polygon fill="#181818" points="1386.2295,1164.6563,1396.2295,1168.6563,1386.2295,1172.6563,1390.2295,1168.6563" style="stroke:#181818;stroke-width:1.0;"/><line style="stroke:#181818;stroke-width:1.0;" x1="923.3398" x2="1392.2295" y1="1168.6563" y2="1168.6563"/><text fill="#000000" font-family="sans-serif" font-size="13" lengthAdjust="spacing" textLength="286.0889" x="930.3398" y="1163.7998">UPDATE materials SET status = ? WHERE id = ?</text><polygon fill="#181818" points="381.0117,1195.0078,371.0117,1199.0078,381.0117,1203.0078,377.0117,1199.0078" style="stroke:#181818;stroke-width:1.0;"/><line style="stroke:#181818;stroke-width:1.0;stroke-dasharray:2.0,2.0;" x1="375.0117" x2="618.4932" y1="1199.0078" y2="1199.0078"/><text fill="#000000" font-family="sans-serif" font-size="13" lengthAdjust="spacing" textLength="96.8081" x="387.0117" y="1194.1514">Notifikasi sukses</text><!--SRC=[ZLHTRzD047o_Nx6gAf98JgaGICWYGUIZQWMbg4tB0q5e4r_SRSvdzpuA3_tnxDbncWI7ziM9xsRsPcVdxCWf2TV3xl6x63vBbIk40TwYvkVI2u5pbniu661Al7Qc7wJc1Je0j71jfH456aTpAb0xE3X5XLd9hIjCTLlHW_nDHhxEq4b3g3eb-uRaxsts-Mf_EZt9JSRCBojcHHZcMP5hFh-P1UTv8bM9h9VAbMRqI3gaJKwrK34IT3X3A-5WjFfNGGP2X9wXso_Lnt0kivbV8hoUXOQxis1Ps0c8jTmOijnhr-w8zLBO7mrYk1f_6GydK1jZuVlPv1Iy9cV5Q03TxJB3N2avTvJh3tKR_SsQQrcNKYSiCy65GmEbDWZQO2PPlaEmBbyAqUl113FUtfWNz7exFNvMjAnn2fK7iWIBQa2Qfns1HUTHHt2B9aK-Gr44QI2OJiMmbB7xJSvOV92xncniFw0Y7ePi_sZnKRBLwxUClFSSYUIHNRhtiXLDTOioJCjDxPN2cPAF6MNIndT56jqLCeqAdJvc-2T-S_psVUjdHw1oS5FMvbvIJ549W2OdlqdBnYpvgO95ZAgQO41mAGx65AIM39B6v4P8nR4PI7FBbNUAzhTp6QzVutXkPDdbqT4HguDjO1sMiwzNuyi9_qmkdXB3u5LGzXJdmHk_AsGZx4_8Ql59JAi-v1SbREuX9L6jRuF_FtM_aX9deLr515wjCk8T1wUpn_ElkQC5BSDeh5zQQPcsYd92XJIX8H8SyJB1ro_Ahqp8HU03DbpkwBbS1doRE-v4ZH7TEyW5wUJ2d73J9Liq3lBVMtywlXm39T23Z-APSHevpqtox8qfhTO9VzjzeN9CLXUoIiF_UZciPNNxlaWsKjdOolMtqQV9U5yhukMXgywwCCEzuViPmKf9G_fsTAo3LydPgDMWQyU0Kt9Uf-0LyZDyADbAwpY_5ZBIbFdiXLPSZISraG_TTkP5kHT_0G00]--></g></svg>