<?xml version="1.0" encoding="us-ascii" standalone="no"?><svg xmlns="http://www.w3.org/2000/svg" xmlns:xlink="http://www.w3.org/1999/xlink" contentStyleType="text/css" height="2833px" preserveAspectRatio="none" style="width:1768px;height:2833px;background:#FFFFFF;" version="1.1" viewBox="0 0 1768 2833" width="1768px" zoomAndPan="magnify"><defs/><g><text fill="#000000" font-family="sans-serif" font-size="14" font-weight="bold" lengthAdjust="spacing" textLength="132" x="814.25" y="29.5332">Sequence Diagram</text><text fill="#000000" font-family="sans-serif" font-size="14" font-weight="bold" lengthAdjust="spacing" textLength="287" x="736.75" y="47.1426">Membuat Pesanan &amp; Pembayaran (UC-09)</text><rect fill="none" height="125.2422" style="stroke:#000000;stroke-width:1.5;" width="338.5" x="200" y="260.8828"/><rect fill="none" height="383.5391" style="stroke:#000000;stroke-width:1.5;" width="1342.5" x="20" y="469.1797"/><rect fill="none" height="290.4844" style="stroke:#000000;stroke-width:1.5;" width="1162.5" x="190" y="555.2344"/><rect fill="none" height="138.2422" style="stroke:#000000;stroke-width:1.5;" width="391" x="200" y="610.9375"/><rect fill="none" height="187.9453" style="stroke:#000000;stroke-width:1.5;" width="1089.5" x="200" y="927.4219"/><rect fill="none" height="48.7031" style="stroke:#000000;stroke-width:1.5;" width="870" x="409.5" y="1029.3125"/><rect fill="none" height="1372.9453" style="stroke:#000000;stroke-width:1.5;" width="1741.5" x="10" y="1361.8281"/><rect fill="none" height="347.8672" style="stroke:#000000;stroke-width:1.5;" width="1628.5" x="20" y="1615.4766"/><rect fill="none" height="159.5938" style="stroke:#000000;stroke-width:1.5;" width="435.5" x="544" y="2081.3984"/><rect fill="none" height="48.7031" style="stroke:#000000;stroke-width:1.5;" width="415.5" x="554" y="2106.75"/><rect fill="none" height="48.7031" style="stroke:#000000;stroke-width:1.5;" width="415.5" x="554" y="2185.2891"/><rect fill="none" height="242.4844" style="stroke:#000000;stroke-width:1.5;" width="726.5" x="778.5" y="2285.3438"/><rect fill="none" height="94.8906" style="stroke:#000000;stroke-width:1.5;" width="356" x="788.5" y="2379.75"/><rect fill="none" height="94.8906" style="stroke:#000000;stroke-width:1.5;" width="953" x="788.5" y="2572.1797"/><line style="stroke:#181818;stroke-width:0.5;stroke-dasharray:5.0,5.0;" x1="49" x2="49" y1="138.8281" y2="2751.7734"/><line style="stroke:#181818;stroke-width:0.5;stroke-dasharray:5.0,5.0;" x1="250" x2="250" y1="138.8281" y2="2751.7734"/><line style="stroke:#181818;stroke-width:0.5;stroke-dasharray:5.0,5.0;" x1="473.5" x2="473.5" y1="138.8281" y2="2751.7734"/><line style="stroke:#181818;stroke-width:0.5;stroke-dasharray:5.0,5.0;" x1="630" x2="630" y1="138.8281" y2="2751.7734"/><line style="stroke:#181818;stroke-width:0.5;stroke-dasharray:5.0,5.0;" x1="878.5" x2="878.5" y1="138.8281" y2="2751.7734"/><line style="stroke:#181818;stroke-width:0.5;stroke-dasharray:5.0,5.0;" x1="1089.5" x2="1089.5" y1="138.8281" y2="2751.7734"/><line style="stroke:#181818;stroke-width:0.5;stroke-dasharray:5.0,5.0;" x1="1206.5" x2="1206.5" y1="138.8281" y2="2751.7734"/><line style="stroke:#181818;stroke-width:0.5;stroke-dasharray:5.0,5.0;" x1="1310.5" x2="1310.5" y1="138.8281" y2="2751.7734"/><line style="stroke:#181818;stroke-width:0.5;stroke-dasharray:5.0,5.0;" x1="1389.5" x2="1389.5" y1="138.8281" y2="2751.7734"/><line style="stroke:#181818;stroke-width:0.5;stroke-dasharray:5.0,5.0;" x1="1471.5" x2="1471.5" y1="138.8281" y2="2751.7734"/><line style="stroke:#181818;stroke-width:0.5;stroke-dasharray:5.0,5.0;" x1="1577.5" x2="1577.5" y1="138.8281" y2="2751.7734"/><line style="stroke:#181818;stroke-width:0.5;stroke-dasharray:5.0,5.0;" x1="1689.5" x2="1689.5" y1="138.8281" y2="2751.7734"/><text fill="#000000" font-family="sans-serif" font-size="14" lengthAdjust="spacing" textLength="32" x="30" y="135.752">Kasir</text><ellipse cx="49" cy="69.7188" fill="#E2E2F0" rx="8" ry="8" style="stroke:#181818;stroke-width:0.5;"/><path d="M49,77.7188 L49,104.7188 M36,85.7188 L62,85.7188 M49,104.7188 L36,119.7188 M49,104.7188 L62,119.7188 " fill="none" style="stroke:#181818;stroke-width:0.5;"/><text fill="#000000" font-family="sans-serif" font-size="14" lengthAdjust="spacing" textLength="32" x="30" y="2765.3066">Kasir</text><ellipse cx="49" cy="2776.8828" fill="#E2E2F0" rx="8" ry="8" style="stroke:#181818;stroke-width:0.5;"/><path d="M49,2784.8828 L49,2811.8828 M36,2792.8828 L62,2792.8828 M49,2811.8828 L36,2826.8828 M49,2811.8828 L62,2826.8828 " fill="none" style="stroke:#181818;stroke-width:0.5;"/><rect fill="#E2E2F0" height="31.6094" rx="2.5" ry="2.5" style="stroke:#181818;stroke-width:0.5;" width="80" x="210" y="106.2188"/><text fill="#000000" font-family="sans-serif" font-size="14" lengthAdjust="spacing" textLength="66" x="217" y="127.752">IndexPage</text><rect fill="#E2E2F0" height="31.6094" rx="2.5" ry="2.5" style="stroke:#181818;stroke-width:0.5;" width="80" x="210" y="2750.7734"/><text fill="#000000" font-family="sans-serif" font-size="14" lengthAdjust="spacing" textLength="66" x="217" y="2772.3066">IndexPage</text><rect fill="#E2E2F0" height="31.6094" rx="2.5" ry="2.5" style="stroke:#181818;stroke-width:0.5;" width="109" x="419.5" y="106.2188"/><text fill="#000000" font-family="sans-serif" font-size="14" lengthAdjust="spacing" textLength="95" x="426.5" y="127.752">IndexController</text><rect fill="#E2E2F0" height="31.6094" rx="2.5" ry="2.5" style="stroke:#181818;stroke-width:0.5;" width="109" x="419.5" y="2750.7734"/><text fill="#000000" font-family="sans-serif" font-size="14" lengthAdjust="spacing" textLength="95" x="426.5" y="2772.3066">IndexController</text><rect fill="#E2E2F0" height="31.6094" rx="2.5" ry="2.5" style="stroke:#181818;stroke-width:0.5;" width="132" x="564" y="106.2188"/><text fill="#000000" font-family="sans-serif" font-size="14" lengthAdjust="spacing" textLength="118" x="571" y="127.752">BuatPesananPage</text><rect fill="#E2E2F0" height="31.6094" rx="2.5" ry="2.5" style="stroke:#181818;stroke-width:0.5;" width="132" x="564" y="2750.7734"/><text fill="#000000" font-family="sans-serif" font-size="14" lengthAdjust="spacing" textLength="118" x="571" y="2772.3066">BuatPesananPage</text><rect fill="#E2E2F0" height="31.6094" rx="2.5" ry="2.5" style="stroke:#181818;stroke-width:0.5;" width="161" x="798.5" y="106.2188"/><text fill="#000000" font-family="sans-serif" font-size="14" lengthAdjust="spacing" textLength="147" x="805.5" y="127.752">BuatPesananController</text><rect fill="#E2E2F0" height="31.6094" rx="2.5" ry="2.5" style="stroke:#181818;stroke-width:0.5;" width="161" x="798.5" y="2750.7734"/><text fill="#000000" font-family="sans-serif" font-size="14" lengthAdjust="spacing" textLength="147" x="805.5" y="2772.3066">BuatPesananController</text><rect fill="#E2E2F0" height="31.6094" rx="2.5" ry="2.5" style="stroke:#181818;stroke-width:0.5;" width="89" x="1045.5" y="106.2188"/><text fill="#000000" font-family="sans-serif" font-size="14" lengthAdjust="spacing" textLength="75" x="1052.5" y="127.752">Transaction</text><rect fill="#E2E2F0" height="31.6094" rx="2.5" ry="2.5" style="stroke:#181818;stroke-width:0.5;" width="89" x="1045.5" y="2750.7734"/><text fill="#000000" font-family="sans-serif" font-size="14" lengthAdjust="spacing" textLength="75" x="1052.5" y="2772.3066">Transaction</text><rect fill="#E2E2F0" height="31.6094" rx="2.5" ry="2.5" style="stroke:#181818;stroke-width:0.5;" width="125" x="1144.5" y="106.2188"/><text fill="#000000" font-family="sans-serif" font-size="14" lengthAdjust="spacing" textLength="111" x="1151.5" y="127.752">TransactionDetail</text><rect fill="#E2E2F0" height="31.6094" rx="2.5" ry="2.5" style="stroke:#181818;stroke-width:0.5;" width="125" x="1144.5" y="2750.7734"/><text fill="#000000" font-family="sans-serif" font-size="14" lengthAdjust="spacing" textLength="111" x="1151.5" y="2772.3066">TransactionDetail</text><rect fill="#E2E2F0" height="31.6094" rx="2.5" ry="2.5" style="stroke:#181818;stroke-width:0.5;" width="63" x="1279.5" y="106.2188"/><text fill="#000000" font-family="sans-serif" font-size="14" lengthAdjust="spacing" textLength="49" x="1286.5" y="127.752">Product</text><rect fill="#E2E2F0" height="31.6094" rx="2.5" ry="2.5" style="stroke:#181818;stroke-width:0.5;" width="63" x="1279.5" y="2750.7734"/><text fill="#000000" font-family="sans-serif" font-size="14" lengthAdjust="spacing" textLength="49" x="1286.5" y="2772.3066">Product</text><rect fill="#E2E2F0" height="31.6094" rx="2.5" ry="2.5" style="stroke:#181818;stroke-width:0.5;" width="75" x="1352.5" y="106.2188"/><text fill="#000000" font-family="sans-serif" font-size="14" lengthAdjust="spacing" textLength="61" x="1359.5" y="127.752">Customer</text><rect fill="#E2E2F0" height="31.6094" rx="2.5" ry="2.5" style="stroke:#181818;stroke-width:0.5;" width="75" x="1352.5" y="2750.7734"/><text fill="#000000" font-family="sans-serif" font-size="14" lengthAdjust="spacing" textLength="61" x="1359.5" y="2772.3066">Customer</text><rect fill="#E2E2F0" height="31.6094" rx="2.5" ry="2.5" style="stroke:#181818;stroke-width:0.5;" width="69" x="1437.5" y="106.2188"/><text fill="#000000" font-family="sans-serif" font-size="14" lengthAdjust="spacing" textLength="55" x="1444.5" y="127.752">Payment</text><rect fill="#E2E2F0" height="31.6094" rx="2.5" ry="2.5" style="stroke:#181818;stroke-width:0.5;" width="69" x="1437.5" y="2750.7734"/><text fill="#000000" font-family="sans-serif" font-size="14" lengthAdjust="spacing" textLength="55" x="1444.5" y="2772.3066">Payment</text><rect fill="#E2E2F0" height="31.6094" rx="2.5" ry="2.5" style="stroke:#181818;stroke-width:0.5;" width="122" x="1516.5" y="106.2188"/><text fill="#000000" font-family="sans-serif" font-size="14" lengthAdjust="spacing" textLength="108" x="1523.5" y="127.752">PaymentChannel</text><rect fill="#E2E2F0" height="31.6094" rx="2.5" ry="2.5" style="stroke:#181818;stroke-width:0.5;" width="122" x="1516.5" y="2750.7734"/><text fill="#000000" font-family="sans-serif" font-size="14" lengthAdjust="spacing" textLength="108" x="1523.5" y="2772.3066">PaymentChannel</text><rect fill="#E2E2F0" height="31.6094" rx="2.5" ry="2.5" style="stroke:#181818;stroke-width:0.5;" width="83" x="1648.5" y="106.2188"/><text fill="#000000" font-family="sans-serif" font-size="14" lengthAdjust="spacing" textLength="69" x="1655.5" y="127.752">Notification</text><rect fill="#E2E2F0" height="31.6094" rx="2.5" ry="2.5" style="stroke:#181818;stroke-width:0.5;" width="83" x="1648.5" y="2750.7734"/><text fill="#000000" font-family="sans-serif" font-size="14" lengthAdjust="spacing" textLength="69" x="1655.5" y="2772.3066">Notification</text><rect fill="#EEEEEE" height="3" style="stroke:#EEEEEE;stroke-width:1.0;" width="1761.5" x="0" y="170.0039"/><line style="stroke:#000000;stroke-width:1.0;" x1="0" x2="1761.5" y1="170.0039" y2="170.0039"/><line style="stroke:#000000;stroke-width:1.0;" x1="0" x2="1761.5" y1="173.0039" y2="173.0039"/><rect fill="#EEEEEE" height="24.3516" style="stroke:#000000;stroke-width:2.0;" width="226" x="767.75" y="158.8281"/><text fill="#000000" font-family="sans-serif" font-size="13" font-weight="bold" lengthAdjust="spacing" textLength="208" x="773.75" y="176.3232">Fase 1: Membuat Transaksi Awal</text><polygon fill="#181818" points="238,211.5313,248,215.5313,238,219.5313,242,215.5313" style="stroke:#181818;stroke-width:1.0;"/><line style="stroke:#181818;stroke-width:1.0;" x1="49" x2="244" y1="215.5313" y2="215.5313"/><text fill="#000000" font-family="sans-serif" font-size="13" lengthAdjust="spacing" textLength="177" x="61" y="210.6748">Mengakses halaman transaksi</text><polygon fill="#181818" points="462,241.8828,472,245.8828,462,249.8828,466,245.8828" style="stroke:#181818;stroke-width:1.0;"/><line style="stroke:#181818;stroke-width:1.0;" x1="250" x2="468" y1="245.8828" y2="245.8828"/><text fill="#000000" font-family="sans-serif" font-size="13" lengthAdjust="spacing" textLength="104" x="310" y="241.0264">checkActiveShift()</text><path d="M200,260.8828 L261,260.8828 L261,269.2344 L251,279.2344 L200,279.2344 L200,260.8828 " fill="#EEEEEE" style="stroke:#000000;stroke-width:1.5;"/><rect fill="none" height="125.2422" style="stroke:#000000;stroke-width:1.5;" width="338.5" x="200" y="260.8828"/><text fill="#000000" font-family="sans-serif" font-size="13" font-weight="bold" lengthAdjust="spacing" textLength="16" x="215" y="275.3779">alt</text><text fill="#000000" font-family="sans-serif" font-size="11" font-weight="bold" lengthAdjust="spacing" textLength="95" x="276" y="274.3018">[Shift Tidak Aktif]</text><polygon fill="#181818" points="261,297.5859,251,301.5859,261,305.5859,257,301.5859" style="stroke:#181818;stroke-width:1.0;"/><line style="stroke:#181818;stroke-width:1.0;stroke-dasharray:2.0,2.0;" x1="255" x2="473" y1="301.5859" y2="301.5859"/><text fill="#000000" font-family="sans-serif" font-size="13" lengthAdjust="spacing" textLength="188" x="268" y="296.7295">showError("Tidak ada sesi aktif")</text><line style="stroke:#000000;stroke-width:1.0;stroke-dasharray:2.0,2.0;" x1="200" x2="538.5" y1="310.5859" y2="310.5859"/><text fill="#000000" font-family="sans-serif" font-size="11" font-weight="bold" lengthAdjust="spacing" textLength="62" x="205" y="322.0049">[Shift Aktif]</text><polygon fill="#181818" points="462,343.7734,472,347.7734,462,351.7734,466,347.7734" style="stroke:#181818;stroke-width:1.0;"/><line style="stroke:#181818;stroke-width:1.0;" x1="250" x2="468" y1="347.7734" y2="347.7734"/><text fill="#000000" font-family="sans-serif" font-size="13" lengthAdjust="spacing" textLength="121" x="301.5" y="342.917">getProducts(method)</text><polygon fill="#181818" points="261,374.125,251,378.125,261,382.125,257,378.125" style="stroke:#181818;stroke-width:1.0;"/><line style="stroke:#181818;stroke-width:1.0;stroke-dasharray:2.0,2.0;" x1="255" x2="473" y1="378.125" y2="378.125"/><text fill="#000000" font-family="sans-serif" font-size="13" lengthAdjust="spacing" textLength="101" x="311.5" y="373.2686">displayProducts()</text><polygon fill="#181818" points="238,430.8281,248,434.8281,238,438.8281,242,434.8281" style="stroke:#181818;stroke-width:1.0;"/><line style="stroke:#181818;stroke-width:1.0;" x1="49" x2="244" y1="434.8281" y2="434.8281"/><text fill="#000000" font-family="sans-serif" font-size="13" lengthAdjust="spacing" textLength="125" x="87" y="429.9717">Pilih metode pesanan</text><path d="M255,398.125 L255,457.125 L414,457.125 L414,408.125 L404,398.125 L255,398.125 " fill="#FEFFDD" style="stroke:#181818;stroke-width:0.5;"/><path d="M404,398.125 L404,408.125 L414,408.125 L404,398.125 " fill="#FEFFDD" style="stroke:#181818;stroke-width:0.5;"/><text fill="#000000" font-family="sans-serif" font-size="13" lengthAdjust="spacing" textLength="138" x="261" y="416.6201">- Pesanan Reguler (OR)</text><text fill="#000000" font-family="sans-serif" font-size="13" lengthAdjust="spacing" textLength="128" x="261" y="432.9717">- Pesanan Kotak (OK)</text><text fill="#000000" font-family="sans-serif" font-size="13" lengthAdjust="spacing" textLength="91" x="261" y="449.3232">- Siap Beli (OS)</text><path d="M20,469.1797 L93,469.1797 L93,477.5313 L83,487.5313 L20,487.5313 L20,469.1797 " fill="#EEEEEE" style="stroke:#000000;stroke-width:1.5;"/><rect fill="none" height="383.5391" style="stroke:#000000;stroke-width:1.5;" width="1342.5" x="20" y="469.1797"/><text fill="#000000" font-family="sans-serif" font-size="13" font-weight="bold" lengthAdjust="spacing" textLength="28" x="35" y="483.6748">loop</text><text fill="#000000" font-family="sans-serif" font-size="11" font-weight="bold" lengthAdjust="spacing" textLength="132" x="108" y="482.5986">[Menambahkan Produk]</text><polygon fill="#181818" points="238,505.8828,248,509.8828,238,513.8828,242,509.8828" style="stroke:#181818;stroke-width:1.0;"/><line style="stroke:#181818;stroke-width:1.0;" x1="49" x2="244" y1="509.8828" y2="509.8828"/><text fill="#000000" font-family="sans-serif" font-size="13" lengthAdjust="spacing" textLength="148" x="75.5" y="505.0264">selectProduct(product_id)</text><polygon fill="#181818" points="462,536.2344,472,540.2344,462,544.2344,466,540.2344" style="stroke:#181818;stroke-width:1.0;"/><line style="stroke:#181818;stroke-width:1.0;" x1="250" x2="468" y1="540.2344" y2="540.2344"/><text fill="#000000" font-family="sans-serif" font-size="13" lengthAdjust="spacing" textLength="127" x="298.5" y="535.3779">addToCart(product_id)</text><path d="M190,555.2344 L251,555.2344 L251,563.5859 L241,573.5859 L190,573.5859 L190,555.2344 " fill="#EEEEEE" style="stroke:#000000;stroke-width:1.5;"/><rect fill="none" height="290.4844" style="stroke:#000000;stroke-width:1.5;" width="1162.5" x="190" y="555.2344"/><text fill="#000000" font-family="sans-serif" font-size="13" font-weight="bold" lengthAdjust="spacing" textLength="16" x="205" y="569.7295">alt</text><text fill="#000000" font-family="sans-serif" font-size="11" font-weight="bold" lengthAdjust="spacing" textLength="108" x="266" y="568.6533">[Method = Siap Beli]</text><polygon fill="#181818" points="1299,591.9375,1309,595.9375,1299,599.9375,1303,595.9375" style="stroke:#181818;stroke-width:1.0;"/><line style="stroke:#181818;stroke-width:1.0;" x1="474" x2="1305" y1="595.9375" y2="595.9375"/><text fill="#000000" font-family="sans-serif" font-size="13" lengthAdjust="spacing" textLength="111" x="837" y="591.0811">getAvailableStock()</text><path d="M200,610.9375 L261,610.9375 L261,619.2891 L251,629.2891 L200,629.2891 L200,610.9375 " fill="#EEEEEE" style="stroke:#000000;stroke-width:1.5;"/><rect fill="none" height="138.2422" style="stroke:#000000;stroke-width:1.5;" width="391" x="200" y="610.9375"/><text fill="#000000" font-family="sans-serif" font-size="13" font-weight="bold" lengthAdjust="spacing" textLength="16" x="215" y="625.4326">alt</text><text fill="#000000" font-family="sans-serif" font-size="11" font-weight="bold" lengthAdjust="spacing" textLength="66" x="276" y="624.3564">[Stok Habis]</text><polygon fill="#181818" points="261,647.6406,251,651.6406,261,655.6406,257,651.6406" style="stroke:#181818;stroke-width:1.0;"/><line style="stroke:#181818;stroke-width:1.0;stroke-dasharray:2.0,2.0;" x1="255" x2="473" y1="651.6406" y2="651.6406"/><text fill="#000000" font-family="sans-serif" font-size="13" lengthAdjust="spacing" textLength="158" x="283" y="646.7842">showWarning("Stok habis")</text><line style="stroke:#000000;stroke-width:1.0;stroke-dasharray:2.0,2.0;" x1="200" x2="591" y1="660.6406" y2="660.6406"/><text fill="#000000" font-family="sans-serif" font-size="11" font-weight="bold" lengthAdjust="spacing" textLength="85" x="205" y="672.0596">[Stok Tersedia]</text><line style="stroke:#181818;stroke-width:1.0;" x1="474" x2="516" y1="697.8281" y2="697.8281"/><line style="stroke:#181818;stroke-width:1.0;" x1="516" x2="516" y1="697.8281" y2="710.8281"/><line style="stroke:#181818;stroke-width:1.0;" x1="475" x2="516" y1="710.8281" y2="710.8281"/><polygon fill="#181818" points="485,706.8281,475,710.8281,485,714.8281,481,710.8281" style="stroke:#181818;stroke-width:1.0;"/><text fill="#000000" font-family="sans-serif" font-size="13" lengthAdjust="spacing" textLength="98" x="481" y="692.9717">addToCartArray()</text><polygon fill="#181818" points="261,737.1797,251,741.1797,261,745.1797,257,741.1797" style="stroke:#181818;stroke-width:1.0;"/><line style="stroke:#181818;stroke-width:1.0;stroke-dasharray:2.0,2.0;" x1="255" x2="473" y1="741.1797" y2="741.1797"/><text fill="#000000" font-family="sans-serif" font-size="13" lengthAdjust="spacing" textLength="71" x="326.5" y="736.3232">updateCart()</text><line style="stroke:#000000;stroke-width:1.0;stroke-dasharray:2.0,2.0;" x1="190" x2="1352.5" y1="757.1797" y2="757.1797"/><text fill="#000000" font-family="sans-serif" font-size="11" font-weight="bold" lengthAdjust="spacing" textLength="95" x="195" y="768.5986">[Method Lainnya]</text><line style="stroke:#181818;stroke-width:1.0;" x1="474" x2="516" y1="794.3672" y2="794.3672"/><line style="stroke:#181818;stroke-width:1.0;" x1="516" x2="516" y1="794.3672" y2="807.3672"/><line style="stroke:#181818;stroke-width:1.0;" x1="475" x2="516" y1="807.3672" y2="807.3672"/><polygon fill="#181818" points="485,803.3672,475,807.3672,485,811.3672,481,807.3672" style="stroke:#181818;stroke-width:1.0;"/><text fill="#000000" font-family="sans-serif" font-size="13" lengthAdjust="spacing" textLength="98" x="481" y="789.5107">addToCartArray()</text><polygon fill="#181818" points="261,833.7188,251,837.7188,261,841.7188,257,837.7188" style="stroke:#181818;stroke-width:1.0;"/><line style="stroke:#181818;stroke-width:1.0;stroke-dasharray:2.0,2.0;" x1="255" x2="473" y1="837.7188" y2="837.7188"/><text fill="#000000" font-family="sans-serif" font-size="13" lengthAdjust="spacing" textLength="71" x="326.5" y="832.8623">updateCart()</text><polygon fill="#181818" points="238,878.0703,248,882.0703,238,886.0703,242,882.0703" style="stroke:#181818;stroke-width:1.0;"/><line style="stroke:#181818;stroke-width:1.0;" x1="49" x2="244" y1="882.0703" y2="882.0703"/><text fill="#000000" font-family="sans-serif" font-size="13" lengthAdjust="spacing" textLength="81" x="109" y="877.2139">Klik Checkout</text><polygon fill="#181818" points="462,908.4219,472,912.4219,462,916.4219,466,912.4219" style="stroke:#181818;stroke-width:1.0;"/><line style="stroke:#181818;stroke-width:1.0;" x1="250" x2="468" y1="912.4219" y2="912.4219"/><text fill="#000000" font-family="sans-serif" font-size="13" lengthAdjust="spacing" textLength="61" x="331.5" y="907.5654">checkout()</text><path d="M200,927.4219 L261,927.4219 L261,935.7734 L251,945.7734 L200,945.7734 L200,927.4219 " fill="#EEEEEE" style="stroke:#000000;stroke-width:1.5;"/><rect fill="none" height="187.9453" style="stroke:#000000;stroke-width:1.5;" width="1089.5" x="200" y="927.4219"/><text fill="#000000" font-family="sans-serif" font-size="13" font-weight="bold" lengthAdjust="spacing" textLength="16" x="215" y="941.917">alt</text><text fill="#000000" font-family="sans-serif" font-size="11" font-weight="bold" lengthAdjust="spacing" textLength="108" x="276" y="940.8408">[Keranjang Kosong]</text><polygon fill="#181818" points="261,964.125,251,968.125,261,972.125,257,968.125" style="stroke:#181818;stroke-width:1.0;"/><line style="stroke:#181818;stroke-width:1.0;stroke-dasharray:2.0,2.0;" x1="255" x2="473" y1="968.125" y2="968.125"/><text fill="#000000" font-family="sans-serif" font-size="13" lengthAdjust="spacing" textLength="200" x="262" y="963.2686">showWarning("Keranjang kosong")</text><line style="stroke:#000000;stroke-width:1.0;stroke-dasharray:2.0,2.0;" x1="200" x2="1289.5" y1="977.125" y2="977.125"/><text fill="#000000" font-family="sans-serif" font-size="11" font-weight="bold" lengthAdjust="spacing" textLength="103" x="205" y="988.5439">[Keranjang Ada Isi]</text><polygon fill="#181818" points="1078,1010.3125,1088,1014.3125,1078,1018.3125,1082,1014.3125" style="stroke:#181818;stroke-width:1.0;"/><line style="stroke:#181818;stroke-width:1.0;" x1="474" x2="1084" y1="1014.3125" y2="1014.3125"/><text fill="#000000" font-family="sans-serif" font-size="13" lengthAdjust="spacing" textLength="121" x="721.5" y="1009.4561">create(status='temp')</text><path d="M409.5,1029.3125 L482.5,1029.3125 L482.5,1037.6641 L472.5,1047.6641 L409.5,1047.6641 L409.5,1029.3125 " fill="#EEEEEE" style="stroke:#000000;stroke-width:1.5;"/><rect fill="none" height="48.7031" style="stroke:#000000;stroke-width:1.5;" width="870" x="409.5" y="1029.3125"/><text fill="#000000" font-family="sans-serif" font-size="13" font-weight="bold" lengthAdjust="spacing" textLength="28" x="424.5" y="1043.8076">loop</text><text fill="#000000" font-family="sans-serif" font-size="11" font-weight="bold" lengthAdjust="spacing" textLength="109" x="497.5" y="1042.7314">[Setiap Item di Cart]</text><polygon fill="#181818" points="1195,1066.0156,1205,1070.0156,1195,1074.0156,1199,1070.0156" style="stroke:#181818;stroke-width:1.0;"/><line style="stroke:#181818;stroke-width:1.0;" x1="474" x2="1201" y1="1070.0156" y2="1070.0156"/><text fill="#000000" font-family="sans-serif" font-size="13" lengthAdjust="spacing" textLength="255" x="713" y="1065.1592">create(transaction_id, product_id, qty, price)</text><polygon fill="#181818" points="618,1103.3672,628,1107.3672,618,1111.3672,622,1107.3672" style="stroke:#181818;stroke-width:1.0;"/><line style="stroke:#181818;stroke-width:1.0;stroke-dasharray:2.0,2.0;" x1="474" x2="624" y1="1107.3672" y2="1107.3672"/><text fill="#000000" font-family="sans-serif" font-size="13" lengthAdjust="spacing" textLength="132" x="486" y="1102.5107">redirect(transaction_id)</text><rect fill="#EEEEEE" height="3" style="stroke:#EEEEEE;stroke-width:1.0;" width="1761.5" x="0" y="1143.543"/><line style="stroke:#000000;stroke-width:1.0;" x1="0" x2="1761.5" y1="1143.543" y2="1143.543"/><line style="stroke:#000000;stroke-width:1.0;" x1="0" x2="1761.5" y1="1146.543" y2="1146.543"/><rect fill="#EEEEEE" height="24.3516" style="stroke:#000000;stroke-width:2.0;" width="205" x="778.25" y="1132.3672"/><text fill="#000000" font-family="sans-serif" font-size="13" font-weight="bold" lengthAdjust="spacing" textLength="187" x="784.25" y="1149.8623">Fase 2: Input Data Pelanggan</text><polygon fill="#181818" points="618,1196.2461,628,1200.2461,618,1204.2461,622,1200.2461" style="stroke:#181818;stroke-width:1.0;"/><line style="stroke:#181818;stroke-width:1.0;" x1="49" x2="624" y1="1200.2461" y2="1200.2461"/><text fill="#000000" font-family="sans-serif" font-size="13" lengthAdjust="spacing" textLength="120" x="279.5" y="1195.3896">Input data pelanggan</text><path d="M635,1171.7188 L635,1213.7188 L724,1213.7188 L724,1181.7188 L714,1171.7188 L635,1171.7188 " fill="#FEFFDD" style="stroke:#181818;stroke-width:0.5;"/><path d="M714,1171.7188 L714,1181.7188 L724,1181.7188 L714,1171.7188 " fill="#FEFFDD" style="stroke:#181818;stroke-width:0.5;"/><text fill="#000000" font-family="sans-serif" font-size="13" lengthAdjust="spacing" textLength="42" x="641" y="1190.2139">- Nama</text><text fill="#000000" font-family="sans-serif" font-size="13" lengthAdjust="spacing" textLength="68" x="641" y="1206.5654">- Nomor HP</text><polygon fill="#181818" points="867,1237.7734,877,1241.7734,867,1245.7734,871,1241.7734" style="stroke:#181818;stroke-width:1.0;"/><line style="stroke:#181818;stroke-width:1.0;" x1="630" x2="873" y1="1241.7734" y2="1241.7734"/><text fill="#000000" font-family="sans-serif" font-size="13" lengthAdjust="spacing" textLength="118" x="695.5" y="1236.917">storeCustomer(data)</text><polygon fill="#181818" points="1378,1268.125,1388,1272.125,1378,1276.125,1382,1272.125" style="stroke:#181818;stroke-width:1.0;"/><line style="stroke:#181818;stroke-width:1.0;" x1="879" x2="1384" y1="1272.125" y2="1272.125"/><text fill="#000000" font-family="sans-serif" font-size="13" lengthAdjust="spacing" textLength="173" x="1048" y="1267.2686">create(name, phone, address)</text><polygon fill="#181818" points="641,1298.4766,631,1302.4766,641,1306.4766,637,1302.4766" style="stroke:#181818;stroke-width:1.0;"/><line style="stroke:#181818;stroke-width:1.0;stroke-dasharray:2.0,2.0;" x1="635" x2="878" y1="1302.4766" y2="1302.4766"/><text fill="#000000" font-family="sans-serif" font-size="13" lengthAdjust="spacing" textLength="107" x="701" y="1297.6201">customerCreated()</text><rect fill="#EEEEEE" height="3" style="stroke:#EEEEEE;stroke-width:1.0;" width="1761.5" x="0" y="1331.6523"/><line style="stroke:#000000;stroke-width:1.0;" x1="0" x2="1761.5" y1="1331.6523" y2="1331.6523"/><line style="stroke:#000000;stroke-width:1.0;" x1="0" x2="1761.5" y1="1334.6523" y2="1334.6523"/><rect fill="#EEEEEE" height="24.3516" style="stroke:#000000;stroke-width:2.0;" width="126" x="817.75" y="1320.4766"/><text fill="#000000" font-family="sans-serif" font-size="13" font-weight="bold" lengthAdjust="spacing" textLength="108" x="823.75" y="1337.9717">Fase 3: Pilih Aksi</text><path d="M10,1361.8281 L71,1361.8281 L71,1370.1797 L61,1380.1797 L10,1380.1797 L10,1361.8281 " fill="#EEEEEE" style="stroke:#000000;stroke-width:1.5;"/><rect fill="none" height="1372.9453" style="stroke:#000000;stroke-width:1.5;" width="1741.5" x="10" y="1361.8281"/><text fill="#000000" font-family="sans-serif" font-size="13" font-weight="bold" lengthAdjust="spacing" textLength="16" x="25" y="1376.3232">alt</text><text fill="#000000" font-family="sans-serif" font-size="11" font-weight="bold" lengthAdjust="spacing" textLength="78" x="86" y="1375.2471">[Simpan Draft]</text><polygon fill="#181818" points="618,1398.5313,628,1402.5313,618,1406.5313,622,1402.5313" style="stroke:#181818;stroke-width:1.0;"/><line style="stroke:#181818;stroke-width:1.0;" x1="49" x2="624" y1="1402.5313" y2="1402.5313"/><text fill="#000000" font-family="sans-serif" font-size="13" lengthAdjust="spacing" textLength="111" x="284" y="1397.6748">Klik "Simpan Draft"</text><polygon fill="#181818" points="867,1428.8828,877,1432.8828,867,1436.8828,871,1432.8828" style="stroke:#181818;stroke-width:1.0;"/><line style="stroke:#181818;stroke-width:1.0;" x1="630" x2="873" y1="1432.8828" y2="1432.8828"/><text fill="#000000" font-family="sans-serif" font-size="13" lengthAdjust="spacing" textLength="34" x="737.5" y="1428.0264">save()</text><polygon fill="#181818" points="1078,1459.2344,1088,1463.2344,1078,1467.2344,1082,1463.2344" style="stroke:#181818;stroke-width:1.0;"/><line style="stroke:#181818;stroke-width:1.0;" x1="879" x2="1084" y1="1463.2344" y2="1463.2344"/><text fill="#000000" font-family="sans-serif" font-size="13" lengthAdjust="spacing" textLength="122" x="923.5" y="1458.3779">update(status='Draft')</text><polygon fill="#181818" points="641,1489.5859,631,1493.5859,641,1497.5859,637,1493.5859" style="stroke:#181818;stroke-width:1.0;"/><line style="stroke:#181818;stroke-width:1.0;stroke-dasharray:2.0,2.0;" x1="635" x2="878" y1="1493.5859" y2="1493.5859"/><text fill="#000000" font-family="sans-serif" font-size="13" lengthAdjust="spacing" textLength="187" x="661" y="1488.7295">showSuccess("Draft tersimpan")</text><line style="stroke:#000000;stroke-width:1.0;stroke-dasharray:2.0,2.0;" x1="10" x2="1751.5" y1="1502.5859" y2="1502.5859"/><text fill="#000000" font-family="sans-serif" font-size="11" font-weight="bold" lengthAdjust="spacing" textLength="119" x="15" y="1514.0049">[Proses Pembayaran]</text><polygon fill="#181818" points="618,1535.7734,628,1539.7734,618,1543.7734,622,1539.7734" style="stroke:#181818;stroke-width:1.0;"/><line style="stroke:#181818;stroke-width:1.0;" x1="49" x2="624" y1="1539.7734" y2="1539.7734"/><text fill="#000000" font-family="sans-serif" font-size="13" lengthAdjust="spacing" textLength="70" x="304.5" y="1534.917">Klik "Bayar"</text><polygon fill="#181818" points="618,1566.125,628,1570.125,618,1574.125,622,1570.125" style="stroke:#181818;stroke-width:1.0;"/><line style="stroke:#181818;stroke-width:1.0;" x1="49" x2="624" y1="1570.125" y2="1570.125"/><text fill="#000000" font-family="sans-serif" font-size="13" lengthAdjust="spacing" textLength="129" x="275" y="1565.2686">Pilih grup pembayaran</text><polygon fill="#181818" points="867,1596.4766,877,1600.4766,867,1604.4766,871,1600.4766" style="stroke:#181818;stroke-width:1.0;"/><line style="stroke:#181818;stroke-width:1.0;" x1="630" x2="873" y1="1600.4766" y2="1600.4766"/><text fill="#000000" font-family="sans-serif" font-size="13" lengthAdjust="spacing" textLength="173" x="668" y="1595.6201">updatedPaymentGroup(group)</text><path d="M20,1615.4766 L81,1615.4766 L81,1623.8281 L71,1633.8281 L20,1633.8281 L20,1615.4766 " fill="#EEEEEE" style="stroke:#000000;stroke-width:1.5;"/><rect fill="none" height="347.8672" style="stroke:#000000;stroke-width:1.5;" width="1628.5" x="20" y="1615.4766"/><text fill="#000000" font-family="sans-serif" font-size="13" font-weight="bold" lengthAdjust="spacing" textLength="16" x="35" y="1629.9717">alt</text><text fill="#000000" font-family="sans-serif" font-size="11" font-weight="bold" lengthAdjust="spacing" textLength="63" x="96" y="1628.8955">[Non-Tunai]</text><line style="stroke:#181818;stroke-width:1.0;" x1="879" x2="921" y1="1656.1797" y2="1656.1797"/><line style="stroke:#181818;stroke-width:1.0;" x1="921" x2="921" y1="1656.1797" y2="1669.1797"/><line style="stroke:#181818;stroke-width:1.0;" x1="880" x2="921" y1="1669.1797" y2="1669.1797"/><polygon fill="#181818" points="890,1665.1797,880,1669.1797,890,1673.1797,886,1669.1797" style="stroke:#181818;stroke-width:1.0;"/><text fill="#000000" font-family="sans-serif" font-size="13" lengthAdjust="spacing" textLength="119" x="886" y="1651.3232">loadPaymentTypes()</text><polygon fill="#181818" points="641,1695.5313,631,1699.5313,641,1703.5313,637,1699.5313" style="stroke:#181818;stroke-width:1.0;"/><line style="stroke:#181818;stroke-width:1.0;stroke-dasharray:2.0,2.0;" x1="635" x2="878" y1="1699.5313" y2="1699.5313"/><text fill="#000000" font-family="sans-serif" font-size="13" lengthAdjust="spacing" textLength="136" x="686.5" y="1694.6748">displayPaymentTypes()</text><polygon fill="#181818" points="618,1725.8828,628,1729.8828,618,1733.8828,622,1729.8828" style="stroke:#181818;stroke-width:1.0;"/><line style="stroke:#181818;stroke-width:1.0;" x1="49" x2="624" y1="1729.8828" y2="1729.8828"/><text fill="#000000" font-family="sans-serif" font-size="13" lengthAdjust="spacing" textLength="125" x="277" y="1725.0264">Pilih tipe pembayaran</text><polygon fill="#181818" points="867,1756.2344,877,1760.2344,867,1764.2344,871,1760.2344" style="stroke:#181818;stroke-width:1.0;"/><line style="stroke:#181818;stroke-width:1.0;" x1="630" x2="873" y1="1760.2344" y2="1760.2344"/><text fill="#000000" font-family="sans-serif" font-size="13" lengthAdjust="spacing" textLength="174" x="667.5" y="1755.3779">updatedPaymentMethod(type)</text><line style="stroke:#181818;stroke-width:1.0;" x1="879" x2="921" y1="1790.5859" y2="1790.5859"/><line style="stroke:#181818;stroke-width:1.0;" x1="921" x2="921" y1="1790.5859" y2="1803.5859"/><line style="stroke:#181818;stroke-width:1.0;" x1="880" x2="921" y1="1803.5859" y2="1803.5859"/><polygon fill="#181818" points="890,1799.5859,880,1803.5859,890,1807.5859,886,1803.5859" style="stroke:#181818;stroke-width:1.0;"/><text fill="#000000" font-family="sans-serif" font-size="13" lengthAdjust="spacing" textLength="138" x="886" y="1785.7295">loadPaymentChannels()</text><polygon fill="#181818" points="641,1829.9375,631,1833.9375,641,1837.9375,637,1833.9375" style="stroke:#181818;stroke-width:1.0;"/><line style="stroke:#181818;stroke-width:1.0;stroke-dasharray:2.0,2.0;" x1="635" x2="878" y1="1833.9375" y2="1833.9375"/><text fill="#000000" font-family="sans-serif" font-size="13" lengthAdjust="spacing" textLength="155" x="677" y="1829.0811">displayPaymentChannels()</text><polygon fill="#181818" points="618,1860.2891,628,1864.2891,618,1868.2891,622,1864.2891" style="stroke:#181818;stroke-width:1.0;"/><line style="stroke:#181818;stroke-width:1.0;" x1="49" x2="624" y1="1864.2891" y2="1864.2891"/><text fill="#000000" font-family="sans-serif" font-size="13" lengthAdjust="spacing" textLength="74" x="302.5" y="1859.4326">Pilih channel</text><polygon fill="#181818" points="867,1890.6406,877,1894.6406,867,1898.6406,871,1894.6406" style="stroke:#181818;stroke-width:1.0;"/><line style="stroke:#181818;stroke-width:1.0;" x1="630" x2="873" y1="1894.6406" y2="1894.6406"/><text fill="#000000" font-family="sans-serif" font-size="13" lengthAdjust="spacing" textLength="225" x="642" y="1889.7842">updatedPaymentChannelId(channel_id)</text><polygon fill="#181818" points="1565.5,1920.9922,1575.5,1924.9922,1565.5,1928.9922,1569.5,1924.9922" style="stroke:#181818;stroke-width:1.0;"/><line style="stroke:#181818;stroke-width:1.0;" x1="879" x2="1571.5" y1="1924.9922" y2="1924.9922"/><text fill="#000000" font-family="sans-serif" font-size="13" lengthAdjust="spacing" textLength="90" x="1183.25" y="1920.1357">find(channel_id)</text><polygon fill="#181818" points="641,1951.3438,631,1955.3438,641,1959.3438,637,1955.3438" style="stroke:#181818;stroke-width:1.0;"/><line style="stroke:#181818;stroke-width:1.0;stroke-dasharray:2.0,2.0;" x1="635" x2="878" y1="1955.3438" y2="1955.3438"/><text fill="#000000" font-family="sans-serif" font-size="13" lengthAdjust="spacing" textLength="119" x="695" y="1950.4873">displayBankDetails()</text><polygon fill="#181818" points="618,1988.6953,628,1992.6953,618,1996.6953,622,1992.6953" style="stroke:#181818;stroke-width:1.0;"/><line style="stroke:#181818;stroke-width:1.0;" x1="49" x2="624" y1="1992.6953" y2="1992.6953"/><text fill="#000000" font-family="sans-serif" font-size="13" lengthAdjust="spacing" textLength="157" x="261" y="1987.8389">Input jumlah &amp; upload bukti</text><polygon fill="#181818" points="867,2019.0469,877,2023.0469,867,2027.0469,871,2023.0469" style="stroke:#181818;stroke-width:1.0;"/><line style="stroke:#181818;stroke-width:1.0;" x1="630" x2="873" y1="2023.0469" y2="2023.0469"/><text fill="#000000" font-family="sans-serif" font-size="13" lengthAdjust="spacing" textLength="115" x="697" y="2018.1904">pay(amount, image)</text><line style="stroke:#181818;stroke-width:1.0;" x1="879" x2="921" y1="2053.3984" y2="2053.3984"/><line style="stroke:#181818;stroke-width:1.0;" x1="921" x2="921" y1="2053.3984" y2="2066.3984"/><line style="stroke:#181818;stroke-width:1.0;" x1="880" x2="921" y1="2066.3984" y2="2066.3984"/><polygon fill="#181818" points="890,2062.3984,880,2066.3984,890,2070.3984,886,2066.3984" style="stroke:#181818;stroke-width:1.0;"/><text fill="#000000" font-family="sans-serif" font-size="13" lengthAdjust="spacing" textLength="51" x="886" y="2048.542">validate()</text><path d="M544,2081.3984 L605,2081.3984 L605,2089.75 L595,2099.75 L544,2099.75 L544,2081.3984 " fill="#EEEEEE" style="stroke:#000000;stroke-width:1.5;"/><rect fill="none" height="159.5938" style="stroke:#000000;stroke-width:1.5;" width="435.5" x="544" y="2081.3984"/><text fill="#000000" font-family="sans-serif" font-size="13" font-weight="bold" lengthAdjust="spacing" textLength="16" x="559" y="2095.8936">alt</text><text fill="#000000" font-family="sans-serif" font-size="11" font-weight="bold" lengthAdjust="spacing" textLength="108" x="620" y="2094.8174">[Method = Siap Beli]</text><path d="M554,2106.75 L615,2106.75 L615,2115.1016 L605,2125.1016 L554,2125.1016 L554,2106.75 " fill="#EEEEEE" style="stroke:#000000;stroke-width:1.5;"/><rect fill="none" height="48.7031" style="stroke:#000000;stroke-width:1.5;" width="415.5" x="554" y="2106.75"/><text fill="#000000" font-family="sans-serif" font-size="13" font-weight="bold" lengthAdjust="spacing" textLength="16" x="569" y="2121.2451">alt</text><text fill="#000000" font-family="sans-serif" font-size="11" font-weight="bold" lengthAdjust="spacing" textLength="115" x="630" y="2120.1689">[Pembayaran &lt; Total]</text><polygon fill="#181818" points="641,2143.4531,631,2147.4531,641,2151.4531,637,2147.4531" style="stroke:#181818;stroke-width:1.0;"/><line style="stroke:#181818;stroke-width:1.0;stroke-dasharray:2.0,2.0;" x1="635" x2="878" y1="2147.4531" y2="2147.4531"/><text fill="#000000" font-family="sans-serif" font-size="13" lengthAdjust="spacing" textLength="182" x="663.5" y="2142.5967">showError("Harus lunas 100%")</text><line style="stroke:#000000;stroke-width:1.0;stroke-dasharray:2.0,2.0;" x1="544" x2="979.5" y1="2163.4531" y2="2163.4531"/><text fill="#000000" font-family="sans-serif" font-size="11" font-weight="bold" lengthAdjust="spacing" textLength="139" x="549" y="2174.8721">[Method = Reguler/Kotak]</text><path d="M554,2185.2891 L615,2185.2891 L615,2193.6406 L605,2203.6406 L554,2203.6406 L554,2185.2891 " fill="#EEEEEE" style="stroke:#000000;stroke-width:1.5;"/><rect fill="none" height="48.7031" style="stroke:#000000;stroke-width:1.5;" width="415.5" x="554" y="2185.2891"/><text fill="#000000" font-family="sans-serif" font-size="13" font-weight="bold" lengthAdjust="spacing" textLength="16" x="569" y="2199.7842">alt</text><text fill="#000000" font-family="sans-serif" font-size="11" font-weight="bold" lengthAdjust="spacing" textLength="139" x="630" y="2198.708">[Pembayaran &lt; 50% Total]</text><polygon fill="#181818" points="641,2221.9922,631,2225.9922,641,2229.9922,637,2225.9922" style="stroke:#181818;stroke-width:1.0;"/><line style="stroke:#181818;stroke-width:1.0;stroke-dasharray:2.0,2.0;" x1="635" x2="878" y1="2225.9922" y2="2225.9922"/><text fill="#000000" font-family="sans-serif" font-size="13" lengthAdjust="spacing" textLength="181" x="664" y="2221.1357">showError("Minimum DP 50%")</text><polygon fill="#181818" points="1460,2266.3438,1470,2270.3438,1460,2274.3438,1464,2270.3438" style="stroke:#181818;stroke-width:1.0;"/><line style="stroke:#181818;stroke-width:1.0;" x1="879" x2="1466" y1="2270.3438" y2="2270.3438"/><text fill="#000000" font-family="sans-serif" font-size="13" lengthAdjust="spacing" textLength="270" x="1040.5" y="2265.4873">create(transaction_id, amount, method, image)</text><path d="M778.5,2285.3438 L839.5,2285.3438 L839.5,2293.6953 L829.5,2303.6953 L778.5,2303.6953 L778.5,2285.3438 " fill="#EEEEEE" style="stroke:#000000;stroke-width:1.5;"/><rect fill="none" height="242.4844" style="stroke:#000000;stroke-width:1.5;" width="726.5" x="778.5" y="2285.3438"/><text fill="#000000" font-family="sans-serif" font-size="13" font-weight="bold" lengthAdjust="spacing" textLength="16" x="793.5" y="2299.8389">alt</text><text fill="#000000" font-family="sans-serif" font-size="11" font-weight="bold" lengthAdjust="spacing" textLength="108" x="854.5" y="2298.7627">[Method = Siap Beli]</text><polygon fill="#181818" points="1299,2341.3984,1309,2345.3984,1299,2349.3984,1303,2345.3984" style="stroke:#181818;stroke-width:1.0;"/><line style="stroke:#181818;stroke-width:1.0;" x1="879" x2="1305" y1="2345.3984" y2="2345.3984"/><text fill="#000000" font-family="sans-serif" font-size="13" lengthAdjust="spacing" textLength="81" x="1054.5" y="2340.542">reduceStock()</text><path d="M1316,2308.6953 L1316,2367.6953 L1490,2367.6953 L1490,2318.6953 L1480,2308.6953 L1316,2308.6953 " fill="#FEFFDD" style="stroke:#181818;stroke-width:0.5;"/><path d="M1480,2308.6953 L1480,2318.6953 L1490,2318.6953 L1480,2308.6953 " fill="#FEFFDD" style="stroke:#181818;stroke-width:0.5;"/><text fill="#000000" font-family="sans-serif" font-size="13" lengthAdjust="spacing" textLength="120" x="1322" y="2327.1904">Reduce stock untuk:</text><text fill="#000000" font-family="sans-serif" font-size="13" lengthAdjust="spacing" textLength="102" x="1322" y="2343.542">- Recipe products</text><text fill="#000000" font-family="sans-serif" font-size="13" lengthAdjust="spacing" textLength="153" x="1322" y="2359.8936">- Ready-to-sell via batches</text><path d="M788.5,2379.75 L849.5,2379.75 L849.5,2388.1016 L839.5,2398.1016 L788.5,2398.1016 L788.5,2379.75 " fill="#EEEEEE" style="stroke:#000000;stroke-width:1.5;"/><rect fill="none" height="94.8906" style="stroke:#000000;stroke-width:1.5;" width="356" x="788.5" y="2379.75"/><text fill="#000000" font-family="sans-serif" font-size="13" font-weight="bold" lengthAdjust="spacing" textLength="16" x="803.5" y="2394.2451">alt</text><text fill="#000000" font-family="sans-serif" font-size="11" font-weight="bold" lengthAdjust="spacing" textLength="160" x="864.5" y="2393.1689">[Pembayaran = Total (Lunas)]</text><polygon fill="#181818" points="1078,2416.4531,1088,2420.4531,1078,2424.4531,1082,2420.4531" style="stroke:#181818;stroke-width:1.0;"/><line style="stroke:#181818;stroke-width:1.0;" x1="879" x2="1084" y1="2420.4531" y2="2420.4531"/><text fill="#000000" font-family="sans-serif" font-size="13" lengthAdjust="spacing" textLength="138" x="915.5" y="2415.5967">update(status='Selesai')</text><line style="stroke:#000000;stroke-width:1.0;stroke-dasharray:2.0,2.0;" x1="788.5" x2="1144.5" y1="2429.4531" y2="2429.4531"/><text fill="#000000" font-family="sans-serif" font-size="11" font-weight="bold" lengthAdjust="spacing" textLength="115" x="793.5" y="2440.8721">[Pembayaran &lt; Total]</text><polygon fill="#181818" points="1078,2462.6406,1088,2466.6406,1078,2470.6406,1082,2466.6406" style="stroke:#181818;stroke-width:1.0;"/><line style="stroke:#181818;stroke-width:1.0;" x1="879" x2="1084" y1="2466.6406" y2="2466.6406"/><text fill="#000000" font-family="sans-serif" font-size="13" lengthAdjust="spacing" textLength="187" x="891" y="2461.7842">update(status='Belum Diproses')</text><line style="stroke:#000000;stroke-width:1.0;stroke-dasharray:2.0,2.0;" x1="778.5" x2="1505" y1="2482.6406" y2="2482.6406"/><text fill="#000000" font-family="sans-serif" font-size="11" font-weight="bold" lengthAdjust="spacing" textLength="95" x="783.5" y="2494.0596">[Method Lainnya]</text><polygon fill="#181818" points="1078,2515.8281,1088,2519.8281,1078,2523.8281,1082,2519.8281" style="stroke:#181818;stroke-width:1.0;"/><line style="stroke:#181818;stroke-width:1.0;" x1="879" x2="1084" y1="2519.8281" y2="2519.8281"/><text fill="#000000" font-family="sans-serif" font-size="13" lengthAdjust="spacing" textLength="187" x="891" y="2514.9717">update(status='Belum Diproses')</text><polygon fill="#181818" points="1678,2553.1797,1688,2557.1797,1678,2561.1797,1682,2557.1797" style="stroke:#181818;stroke-width:1.0;"/><line style="stroke:#181818;stroke-width:1.0;" x1="879" x2="1684" y1="2557.1797" y2="2557.1797"/><text fill="#000000" font-family="sans-serif" font-size="13" lengthAdjust="spacing" textLength="127" x="1221" y="2552.3232">send("Order Queued")</text><path d="M788.5,2572.1797 L849.5,2572.1797 L849.5,2580.5313 L839.5,2590.5313 L788.5,2590.5313 L788.5,2572.1797 " fill="#EEEEEE" style="stroke:#000000;stroke-width:1.5;"/><rect fill="none" height="94.8906" style="stroke:#000000;stroke-width:1.5;" width="953" x="788.5" y="2572.1797"/><text fill="#000000" font-family="sans-serif" font-size="13" font-weight="bold" lengthAdjust="spacing" textLength="16" x="803.5" y="2586.6748">alt</text><text fill="#000000" font-family="sans-serif" font-size="11" font-weight="bold" lengthAdjust="spacing" textLength="121" x="864.5" y="2585.5986">[Pembayaran &gt;= Total]</text><polygon fill="#181818" points="1678,2608.8828,1688,2612.8828,1678,2616.8828,1682,2612.8828" style="stroke:#181818;stroke-width:1.0;"/><line style="stroke:#181818;stroke-width:1.0;" x1="879" x2="1684" y1="2612.8828" y2="2612.8828"/><text fill="#000000" font-family="sans-serif" font-size="13" lengthAdjust="spacing" textLength="164" x="1202.5" y="2608.0264">send("Payment Completed")</text><line style="stroke:#000000;stroke-width:1.0;stroke-dasharray:2.0,2.0;" x1="788.5" x2="1741.5" y1="2621.8828" y2="2621.8828"/><text fill="#000000" font-family="sans-serif" font-size="11" font-weight="bold" lengthAdjust="spacing" textLength="115" x="793.5" y="2633.3018">[Pembayaran &lt; Total]</text><polygon fill="#181818" points="1678,2655.0703,1688,2659.0703,1678,2663.0703,1682,2659.0703" style="stroke:#181818;stroke-width:1.0;"/><line style="stroke:#181818;stroke-width:1.0;" x1="879" x2="1684" y1="2659.0703" y2="2659.0703"/><text fill="#000000" font-family="sans-serif" font-size="13" lengthAdjust="spacing" textLength="190" x="1189.5" y="2654.2139">send("Payment Down Payment")</text><polygon fill="#181818" points="641,2692.4219,631,2696.4219,641,2700.4219,637,2696.4219" style="stroke:#181818;stroke-width:1.0;"/><line style="stroke:#181818;stroke-width:1.0;stroke-dasharray:2.0,2.0;" x1="635" x2="878" y1="2696.4219" y2="2696.4219"/><text fill="#000000" font-family="sans-serif" font-size="13" lengthAdjust="spacing" textLength="89" x="710" y="2691.5654">showSuccess()</text><polygon fill="#181818" points="641,2722.7734,631,2726.7734,641,2730.7734,637,2726.7734" style="stroke:#181818;stroke-width:1.0;"/><line style="stroke:#181818;stroke-width:1.0;stroke-dasharray:2.0,2.0;" x1="635" x2="878" y1="2726.7734" y2="2726.7734"/><text fill="#000000" font-family="sans-serif" font-size="13" lengthAdjust="spacing" textLength="138" x="685.5" y="2721.917">redirect(detail_pesanan)</text><!--SRC=[bLTRRzis57xNhpWGq4K6QYpTi8S5Sm5BtXOZJUh57eO20ueJYP5PIQGgKkdyxtT8wcPPJb8_s8BuyJltYrN6HOaL5g3Orvg9cDqofJ1bovod0c8cDAiyJtETCzWs45XnJEdEl-AM5GyrQjWmXG85_41FnGCUY550y7Sql_nrvdaOQrc1VuEALpwWWWZLdXClITOyvYKA3VvQ9Eo_3OcsaFLcuZIIGbSopvcZMKV7c91KQJJfUCBDMSo8BHonxSW6HQfpAUpvxlRi-OffvBb3hOvHcqecTQpjsMR44DLAow8H7uqEDtWeoFlkugV9isYFGZ0dTnDT7sFkfEQFFCPE_xkTvoqMy0Sg1k-ke0sTCoDJ79RVC8V5mlEQyC3yFOK135IaX60AzfXZGQ7LxIMF00OM4IpUipXRaaEUs7RF7tKmyp3NO9zXnnFCO9cHKXxGXsxCMtwrbzz-hofP1Rw3OOAKZwGI6hm_yrXEIZkY0KKlEcMwSRGA2gRtCfcTI4cuAdCyT3XY5ScfiHkUypqGYKmOb2vJF24rWugdUqsqyoxTxrbQK_f0yF5-TdHm8pMP4NoySQ-t74i8MSxfrTRA1SFeURcKfN4lKj7iCxfejSkixcF55CjPt9ePbExtCsyjxPs1IRAJ4UN22SX-cPZSMX_1ejVC7hKkUq-fwhowVAB4neUSRRMCis3MmMnajSpW6X-uwbvFXVOVh0GNQU1R_DxW_Px8XTQSx5YbMCBnX6nirxAgy33GPIoqBXFKp7fW88U2tSbhxF-0N8W3UjyZx5b1HiXaLjtaF8F858YizKdHqBl0z4dowGsZqlg28gKSKbAathCUxT6PHRUbqhzVKYcj5VTwytOcj775IFD0QTIrMbneLfGNWnonURbbscJ7cWwfUC2OEVBKRjLJwRuTKhwzXJxtti9NVJ0lUCnwDtMo6kD2Orn5yQyeoqTiJQcstUkdArYBijQmGerKSpaPcbBnZ7gNPNJ0n03B5ZWkvplgQUv15ZIehZU32Wrjg48JAchM5MjxTc0ePrve_H0DN4grpCZOlHJqGrbKqJnrk5QbkA68x8N4HBwrxEUs_onDGpRss3hZ1VLqM5NugCUj8Uooon_2V8iRAezFh4dIi4y3by1T6jYh5psgvJSvjwtZc4m9V0i2MWkKbTUKiiixwavcJFHBm3FgXWRXztamHZb7f5LTKkIE-0PcEGEIPY3-MScw35BpFMfuTrBCTxN0liyvBrYIN6BBi3jGonzK-z0BxG2PHdOFqtPeNhAn7S_QubfKe4dCx0MbcptWTNfFW5zGFNOtNbQveLudGNEb6pozxhIdqBr7Biw3Hdg7A3AtOAbWedrC5_oNkiXnJ_jeNHf7mKDDQyCuUKfgx5Z8MkYtm0lQ68VrOH5Fc7DR8Q-Vd-Pui0J_1ZlQ1VAZMJKkhMRtkSQgLf1JbYfuTtdvndz-U2tQzUD7kssSL-2NopUlL-AM2rxK1QmsvjwK2aFdDp7zT7uCjFvrMzcHdr_ZpR3VHcWsrF797dBKojlFlOMQXXrdGEBhx6fmEgVps9PZimgEpZ0vpBMSqxwLmnD7U41DKreDFU66mqdzZ5o_S6w7u8E9wUp4_TDDU4jxda9-CLgHNf5JqtpaJnDFNjhUVF5z6z5tqauanztExgvKx_x7Ag52_QjcDKlyKGuCp7k_6DbtGjJq6uXaKUPCTsmlEUeiqKf-ezsx-STrnfIfONWwAhiD9h4jwtFp3y9jCFy3]--></g></svg>