<?xml version="1.0" encoding="us-ascii" standalone="no"?><svg xmlns="http://www.w3.org/2000/svg" xmlns:xlink="http://www.w3.org/1999/xlink" contentStyleType="text/css" height="2229px" preserveAspectRatio="none" style="width:1072px;height:2229px;background:#FFFFFF;" version="1.1" viewBox="0 0 1072 2229" width="1072px" zoomAndPan="magnify"><defs/><g><text fill="#000000" font-family="sans-serif" font-size="14" font-weight="bold" lengthAdjust="spacing" textLength="277" x="393.75" y="29.5332">Sequence Diagram: Mengelola Supplier</text><rect fill="#FFFFFF" height="242.8125" style="stroke:#181818;stroke-width:1.0;" width="10" x="193" y="197.9219"/><rect fill="#FFFFFF" height="182.1094" style="stroke:#181818;stroke-width:1.0;" width="10" x="402" y="228.2734"/><rect fill="#FFFFFF" height="225.4609" style="stroke:#181818;stroke-width:1.0;" width="10" x="402" y="667.1953"/><rect fill="#FFFFFF" height="217.8125" style="stroke:#181818;stroke-width:1.0;" width="10" x="402" y="997.7109"/><rect fill="#FFFFFF" height="30.3516" style="stroke:#181818;stroke-width:1.0;" width="10" x="402" y="1356.2813"/><rect fill="#FFFFFF" height="195.1094" style="stroke:#181818;stroke-width:1.0;" width="10" x="402" y="1447.3359"/><rect fill="#FFFFFF" height="359.7031" style="stroke:#181818;stroke-width:1.0;" width="10" x="402" y="1777.8516"/><rect fill="#FFFFFF" height="121.4063" style="stroke:#181818;stroke-width:1.0;" width="10" x="675" y="258.625"/><rect fill="#FFFFFF" height="91.0547" style="stroke:#181818;stroke-width:1.0;" width="10" x="675" y="740.8984"/><rect fill="#FFFFFF" height="121.4063" style="stroke:#181818;stroke-width:1.0;" width="10" x="675" y="1028.0625"/><rect fill="#FFFFFF" height="91.0547" style="stroke:#181818;stroke-width:1.0;" width="10" x="675" y="1521.0391"/><rect fill="#FFFFFF" height="91.0547" style="stroke:#181818;stroke-width:1.0;" width="10" x="675" y="1808.2031"/><rect fill="#FFFFFF" height="91.0547" style="stroke:#181818;stroke-width:1.0;" width="10" x="675" y="1954.9609"/><rect fill="none" height="216.2969" style="stroke:#000000;stroke-width:1.5;" width="930" x="125.5" y="1914.2578"/><line style="stroke:#181818;stroke-width:0.5;stroke-dasharray:5.0,5.0;" x1="35" x2="35" y1="121.2188" y2="2147.5547"/><line style="stroke:#181818;stroke-width:0.5;stroke-dasharray:5.0,5.0;" x1="197.5" x2="197.5" y1="121.2188" y2="2147.5547"/><line style="stroke:#181818;stroke-width:0.5;stroke-dasharray:5.0,5.0;" x1="406.5" x2="406.5" y1="121.2188" y2="2147.5547"/><line style="stroke:#181818;stroke-width:0.5;stroke-dasharray:5.0,5.0;" x1="680" x2="680" y1="121.2188" y2="2147.5547"/><line style="stroke:#181818;stroke-width:0.5;stroke-dasharray:5.0,5.0;" x1="1011.5" x2="1011.5" y1="121.2188" y2="2147.5547"/><text fill="#000000" font-family="sans-serif" font-size="14" lengthAdjust="spacing" textLength="54" x="5" y="118.1426">Inventori</text><ellipse cx="35" cy="52.1094" fill="#E2E2F0" rx="8" ry="8" style="stroke:#181818;stroke-width:0.5;"/><path d="M35,60.1094 L35,87.1094 M22,68.1094 L48,68.1094 M35,87.1094 L22,102.1094 M35,87.1094 L48,102.1094 " fill="none" style="stroke:#181818;stroke-width:0.5;"/><text fill="#000000" font-family="sans-serif" font-size="14" lengthAdjust="spacing" textLength="54" x="5" y="2161.0879">Inventori</text><ellipse cx="35" cy="2172.6641" fill="#E2E2F0" rx="8" ry="8" style="stroke:#181818;stroke-width:0.5;"/><path d="M35,2180.6641 L35,2207.6641 M22,2188.6641 L48,2188.6641 M35,2207.6641 L22,2222.6641 M35,2207.6641 L48,2222.6641 " fill="none" style="stroke:#181818;stroke-width:0.5;"/><rect fill="#E2E2F0" height="31.6094" rx="2.5" ry="2.5" style="stroke:#181818;stroke-width:0.5;" width="125" x="135.5" y="88.6094"/><text fill="#000000" font-family="sans-serif" font-size="14" lengthAdjust="spacing" textLength="111" x="142.5" y="110.1426">Halaman Supplier</text><rect fill="#E2E2F0" height="31.6094" rx="2.5" ry="2.5" style="stroke:#181818;stroke-width:0.5;" width="125" x="135.5" y="2146.5547"/><text fill="#000000" font-family="sans-serif" font-size="14" lengthAdjust="spacing" textLength="111" x="142.5" y="2168.0879">Halaman Supplier</text><rect fill="#E2E2F0" height="49.2188" rx="2.5" ry="2.5" style="stroke:#181818;stroke-width:0.5;" width="99" x="357.5" y="71"/><text fill="#000000" font-family="sans-serif" font-size="14" lengthAdjust="spacing" textLength="85" x="364.5" y="92.5332">SupplierIndex</text><text fill="#000000" font-family="sans-serif" font-size="14" lengthAdjust="spacing" textLength="73" x="370.5" y="110.1426">Component</text><rect fill="#E2E2F0" height="49.2188" rx="2.5" ry="2.5" style="stroke:#181818;stroke-width:0.5;" width="99" x="357.5" y="2146.5547"/><text fill="#000000" font-family="sans-serif" font-size="14" lengthAdjust="spacing" textLength="85" x="364.5" y="2168.0879">SupplierIndex</text><text fill="#000000" font-family="sans-serif" font-size="14" lengthAdjust="spacing" textLength="73" x="370.5" y="2185.6973">Component</text><rect fill="#E2E2F0" height="49.2188" rx="2.5" ry="2.5" style="stroke:#181818;stroke-width:0.5;" width="66" x="647" y="71"/><text fill="#000000" font-family="sans-serif" font-size="14" lengthAdjust="spacing" textLength="52" x="654" y="92.5332">Supplier</text><text fill="#000000" font-family="sans-serif" font-size="14" lengthAdjust="spacing" textLength="38" x="661" y="110.1426">Model</text><rect fill="#E2E2F0" height="49.2188" rx="2.5" ry="2.5" style="stroke:#181818;stroke-width:0.5;" width="66" x="647" y="2146.5547"/><text fill="#000000" font-family="sans-serif" font-size="14" lengthAdjust="spacing" textLength="52" x="654" y="2168.0879">Supplier</text><text fill="#000000" font-family="sans-serif" font-size="14" lengthAdjust="spacing" textLength="38" x="661" y="2185.6973">Model</text><text fill="#000000" font-family="sans-serif" font-size="14" lengthAdjust="spacing" textLength="61" x="978.5" y="118.1426">Database</text><path d="M994,67.6094 C994,57.6094 1012,57.6094 1012,57.6094 C1012,57.6094 1030,57.6094 1030,67.6094 L1030,93.6094 C1030,103.6094 1012,103.6094 1012,103.6094 C1012,103.6094 994,103.6094 994,93.6094 L994,67.6094 " fill="#E2E2F0" style="stroke:#181818;stroke-width:1.5;"/><path d="M994,67.6094 C994,77.6094 1012,77.6094 1012,77.6094 C1012,77.6094 1030,77.6094 1030,67.6094 " fill="none" style="stroke:#181818;stroke-width:1.5;"/><text fill="#000000" font-family="sans-serif" font-size="14" lengthAdjust="spacing" textLength="61" x="978.5" y="2161.0879">Database</text><path d="M994,2174.1641 C994,2164.1641 1012,2164.1641 1012,2164.1641 C1012,2164.1641 1030,2164.1641 1030,2174.1641 L1030,2200.1641 C1030,2210.1641 1012,2210.1641 1012,2210.1641 C1012,2210.1641 994,2210.1641 994,2200.1641 L994,2174.1641 " fill="#E2E2F0" style="stroke:#181818;stroke-width:1.5;"/><path d="M994,2174.1641 C994,2184.1641 1012,2184.1641 1012,2184.1641 C1012,2184.1641 1030,2184.1641 1030,2174.1641 " fill="none" style="stroke:#181818;stroke-width:1.5;"/><rect fill="#FFFFFF" height="242.8125" style="stroke:#181818;stroke-width:1.0;" width="10" x="193" y="197.9219"/><rect fill="#FFFFFF" height="182.1094" style="stroke:#181818;stroke-width:1.0;" width="10" x="402" y="228.2734"/><rect fill="#FFFFFF" height="225.4609" style="stroke:#181818;stroke-width:1.0;" width="10" x="402" y="667.1953"/><rect fill="#FFFFFF" height="217.8125" style="stroke:#181818;stroke-width:1.0;" width="10" x="402" y="997.7109"/><rect fill="#FFFFFF" height="30.3516" style="stroke:#181818;stroke-width:1.0;" width="10" x="402" y="1356.2813"/><rect fill="#FFFFFF" height="195.1094" style="stroke:#181818;stroke-width:1.0;" width="10" x="402" y="1447.3359"/><rect fill="#FFFFFF" height="359.7031" style="stroke:#181818;stroke-width:1.0;" width="10" x="402" y="1777.8516"/><rect fill="#FFFFFF" height="121.4063" style="stroke:#181818;stroke-width:1.0;" width="10" x="675" y="258.625"/><rect fill="#FFFFFF" height="91.0547" style="stroke:#181818;stroke-width:1.0;" width="10" x="675" y="740.8984"/><rect fill="#FFFFFF" height="121.4063" style="stroke:#181818;stroke-width:1.0;" width="10" x="675" y="1028.0625"/><rect fill="#FFFFFF" height="91.0547" style="stroke:#181818;stroke-width:1.0;" width="10" x="675" y="1521.0391"/><rect fill="#FFFFFF" height="91.0547" style="stroke:#181818;stroke-width:1.0;" width="10" x="675" y="1808.2031"/><rect fill="#FFFFFF" height="91.0547" style="stroke:#181818;stroke-width:1.0;" width="10" x="675" y="1954.9609"/><rect fill="#EEEEEE" height="3" style="stroke:#EEEEEE;stroke-width:1.0;" width="1065.5" x="0" y="152.3945"/><line style="stroke:#000000;stroke-width:1.0;" x1="0" x2="1065.5" y1="152.3945" y2="152.3945"/><line style="stroke:#000000;stroke-width:1.0;" x1="0" x2="1065.5" y1="155.3945" y2="155.3945"/><rect fill="#EEEEEE" height="24.3516" style="stroke:#000000;stroke-width:2.0;" width="165" x="450.25" y="141.2188"/><text fill="#000000" font-family="sans-serif" font-size="13" font-weight="bold" lengthAdjust="spacing" textLength="147" x="456.25" y="158.7139">Melihat Daftar Supplier</text><polygon fill="#181818" points="181,193.9219,191,197.9219,181,201.9219,185,197.9219" style="stroke:#181818;stroke-width:1.0;"/><line style="stroke:#181818;stroke-width:1.0;" x1="35" x2="187" y1="197.9219" y2="197.9219"/><text fill="#000000" font-family="sans-serif" font-size="13" lengthAdjust="spacing" textLength="139" x="42" y="193.0654">Akses halaman supplier</text><polygon fill="#181818" points="390,224.2734,400,228.2734,390,232.2734,394,228.2734" style="stroke:#181818;stroke-width:1.0;"/><line style="stroke:#181818;stroke-width:1.0;" x1="203" x2="396" y1="228.2734" y2="228.2734"/><text fill="#000000" font-family="sans-serif" font-size="13" lengthAdjust="spacing" textLength="44" x="210" y="223.417">mount()</text><polygon fill="#181818" points="663,254.625,673,258.625,663,262.625,667,258.625" style="stroke:#181818;stroke-width:1.0;"/><line style="stroke:#181818;stroke-width:1.0;" x1="412" x2="669" y1="258.625" y2="258.625"/><text fill="#000000" font-family="sans-serif" font-size="13" lengthAdjust="spacing" textLength="218" x="419" y="253.7686">Supplier::withCount('expenses')-&gt;get()</text><polygon fill="#181818" points="1000,284.9766,1010,288.9766,1000,292.9766,1004,288.9766" style="stroke:#181818;stroke-width:1.0;"/><line style="stroke:#181818;stroke-width:1.0;" x1="685" x2="1006" y1="288.9766" y2="288.9766"/><text fill="#000000" font-family="sans-serif" font-size="13" lengthAdjust="spacing" textLength="157" x="692" y="284.1201">SELECT * FROM suppliers</text><polygon fill="#181818" points="1000,315.3281,1010,319.3281,1000,323.3281,1004,319.3281" style="stroke:#181818;stroke-width:1.0;"/><line style="stroke:#181818;stroke-width:1.0;" x1="685" x2="1006" y1="319.3281" y2="319.3281"/><text fill="#000000" font-family="sans-serif" font-size="13" lengthAdjust="spacing" textLength="158" x="692" y="314.4717">SELECT COUNT expenses</text><polygon fill="#181818" points="696,345.6797,686,349.6797,696,353.6797,692,349.6797" style="stroke:#181818;stroke-width:1.0;"/><line style="stroke:#181818;stroke-width:1.0;stroke-dasharray:2.0,2.0;" x1="690" x2="1011" y1="349.6797" y2="349.6797"/><text fill="#000000" font-family="sans-serif" font-size="13" lengthAdjust="spacing" textLength="76" x="702" y="344.8232">Data supplier</text><polygon fill="#181818" points="423,376.0313,413,380.0313,423,384.0313,419,380.0313" style="stroke:#181818;stroke-width:1.0;"/><line style="stroke:#181818;stroke-width:1.0;stroke-dasharray:2.0,2.0;" x1="417" x2="679" y1="380.0313" y2="380.0313"/><text fill="#000000" font-family="sans-serif" font-size="13" lengthAdjust="spacing" textLength="106" x="429" y="375.1748">Collection supplier</text><polygon fill="#181818" points="214,406.3828,204,410.3828,214,414.3828,210,410.3828" style="stroke:#181818;stroke-width:1.0;"/><line style="stroke:#181818;stroke-width:1.0;stroke-dasharray:2.0,2.0;" x1="208" x2="406" y1="410.3828" y2="410.3828"/><text fill="#000000" font-family="sans-serif" font-size="13" lengthAdjust="spacing" textLength="77" x="220" y="405.5264">Render daftar</text><polygon fill="#181818" points="46,436.7344,36,440.7344,46,444.7344,42,440.7344" style="stroke:#181818;stroke-width:1.0;"/><line style="stroke:#181818;stroke-width:1.0;stroke-dasharray:2.0,2.0;" x1="40" x2="197" y1="440.7344" y2="440.7344"/><text fill="#000000" font-family="sans-serif" font-size="13" lengthAdjust="spacing" textLength="112" x="52" y="435.8779">Tampilkan halaman</text><rect fill="#EEEEEE" height="3" style="stroke:#EEEEEE;stroke-width:1.0;" width="1065.5" x="0" y="469.9102"/><line style="stroke:#000000;stroke-width:1.0;" x1="0" x2="1065.5" y1="469.9102" y2="469.9102"/><line style="stroke:#000000;stroke-width:1.0;" x1="0" x2="1065.5" y1="472.9102" y2="472.9102"/><rect fill="#EEEEEE" height="24.3516" style="stroke:#000000;stroke-width:2.0;" width="147" x="459.25" y="458.7344"/><text fill="#000000" font-family="sans-serif" font-size="13" font-weight="bold" lengthAdjust="spacing" textLength="129" x="465.25" y="476.2295">Menambah Supplier</text><polygon fill="#181818" points="186,511.4375,196,515.4375,186,519.4375,190,515.4375" style="stroke:#181818;stroke-width:1.0;"/><line style="stroke:#181818;stroke-width:1.0;" x1="35" x2="192" y1="515.4375" y2="515.4375"/><text fill="#000000" font-family="sans-serif" font-size="13" lengthAdjust="spacing" textLength="115" x="42" y="510.5811">Klik tombol Tambah</text><polygon fill="#181818" points="46,541.7891,36,545.7891,46,549.7891,42,545.7891" style="stroke:#181818;stroke-width:1.0;"/><line style="stroke:#181818;stroke-width:1.0;stroke-dasharray:2.0,2.0;" x1="40" x2="197" y1="545.7891" y2="545.7891"/><text fill="#000000" font-family="sans-serif" font-size="13" lengthAdjust="spacing" textLength="127" x="52" y="540.9326">Tampilkan modal form</text><polygon fill="#181818" points="395,572.1406,405,576.1406,395,580.1406,399,576.1406" style="stroke:#181818;stroke-width:1.0;"/><line style="stroke:#181818;stroke-width:1.0;" x1="35" x2="401" y1="576.1406" y2="576.1406"/><text fill="#000000" font-family="sans-serif" font-size="13" lengthAdjust="spacing" textLength="170" x="42" y="571.2842">set('name', 'Toko Bahan Kue')</text><polygon fill="#181818" points="395,602.4922,405,606.4922,395,610.4922,399,606.4922" style="stroke:#181818;stroke-width:1.0;"/><line style="stroke:#181818;stroke-width:1.0;" x1="35" x2="401" y1="606.4922" y2="606.4922"/><text fill="#000000" font-family="sans-serif" font-size="13" lengthAdjust="spacing" textLength="154" x="42" y="601.6357">set('phone', '08123456789')</text><polygon fill="#181818" points="395,632.8438,405,636.8438,395,640.8438,399,636.8438" style="stroke:#181818;stroke-width:1.0;"/><line style="stroke:#181818;stroke-width:1.0;" x1="35" x2="401" y1="636.8438" y2="636.8438"/><text fill="#000000" font-family="sans-serif" font-size="13" lengthAdjust="spacing" textLength="151" x="42" y="631.9873">set('address', 'Jl. Pasar...')</text><polygon fill="#181818" points="390,663.1953,400,667.1953,390,671.1953,394,667.1953" style="stroke:#181818;stroke-width:1.0;"/><line style="stroke:#181818;stroke-width:1.0;" x1="35" x2="396" y1="667.1953" y2="667.1953"/><text fill="#000000" font-family="sans-serif" font-size="13" lengthAdjust="spacing" textLength="34" x="42" y="662.3389">save()</text><line style="stroke:#181818;stroke-width:1.0;" x1="412" x2="454" y1="697.5469" y2="697.5469"/><line style="stroke:#181818;stroke-width:1.0;" x1="454" x2="454" y1="697.5469" y2="710.5469"/><line style="stroke:#181818;stroke-width:1.0;" x1="413" x2="454" y1="710.5469" y2="710.5469"/><polygon fill="#181818" points="423,706.5469,413,710.5469,423,714.5469,419,710.5469" style="stroke:#181818;stroke-width:1.0;"/><text fill="#000000" font-family="sans-serif" font-size="13" lengthAdjust="spacing" textLength="51" x="419" y="692.6904">validate()</text><polygon fill="#181818" points="663,736.8984,673,740.8984,663,744.8984,667,740.8984" style="stroke:#181818;stroke-width:1.0;"/><line style="stroke:#181818;stroke-width:1.0;" x1="412" x2="669" y1="740.8984" y2="740.8984"/><text fill="#000000" font-family="sans-serif" font-size="13" lengthAdjust="spacing" textLength="119" x="419" y="736.042">Supplier::create([...])</text><polygon fill="#181818" points="1000,767.25,1010,771.25,1000,775.25,1004,771.25" style="stroke:#181818;stroke-width:1.0;"/><line style="stroke:#181818;stroke-width:1.0;" x1="685" x2="1006" y1="771.25" y2="771.25"/><text fill="#000000" font-family="sans-serif" font-size="13" lengthAdjust="spacing" textLength="135" x="692" y="766.3936">INSERT INTO suppliers</text><polygon fill="#181818" points="696,797.6016,686,801.6016,696,805.6016,692,801.6016" style="stroke:#181818;stroke-width:1.0;"/><line style="stroke:#181818;stroke-width:1.0;stroke-dasharray:2.0,2.0;" x1="690" x2="1011" y1="801.6016" y2="801.6016"/><text fill="#000000" font-family="sans-serif" font-size="13" lengthAdjust="spacing" textLength="51" x="702" y="796.7451">Success</text><polygon fill="#181818" points="423,827.9531,413,831.9531,423,835.9531,419,831.9531" style="stroke:#181818;stroke-width:1.0;"/><line style="stroke:#181818;stroke-width:1.0;stroke-dasharray:2.0,2.0;" x1="417" x2="679" y1="831.9531" y2="831.9531"/><text fill="#000000" font-family="sans-serif" font-size="13" lengthAdjust="spacing" textLength="76" x="429" y="827.0967">Supplier baru</text><polygon fill="#181818" points="209,858.3047,199,862.3047,209,866.3047,205,862.3047" style="stroke:#181818;stroke-width:1.0;"/><line style="stroke:#181818;stroke-width:1.0;stroke-dasharray:2.0,2.0;" x1="203" x2="401" y1="862.3047" y2="862.3047"/><text fill="#000000" font-family="sans-serif" font-size="13" lengthAdjust="spacing" textLength="71" x="215" y="857.4482">Tutup modal</text><polygon fill="#181818" points="209,888.6563,199,892.6563,209,896.6563,205,892.6563" style="stroke:#181818;stroke-width:1.0;"/><line style="stroke:#181818;stroke-width:1.0;stroke-dasharray:2.0,2.0;" x1="203" x2="406" y1="892.6563" y2="892.6563"/><text fill="#000000" font-family="sans-serif" font-size="13" lengthAdjust="spacing" textLength="135" x="215" y="887.7998">Flash message sukses</text><rect fill="#EEEEEE" height="3" style="stroke:#EEEEEE;stroke-width:1.0;" width="1065.5" x="0" y="921.832"/><line style="stroke:#000000;stroke-width:1.0;" x1="0" x2="1065.5" y1="921.832" y2="921.832"/><line style="stroke:#000000;stroke-width:1.0;" x1="0" x2="1065.5" y1="924.832" y2="924.832"/><rect fill="#EEEEEE" height="24.3516" style="stroke:#000000;stroke-width:2.0;" width="173" x="446.25" y="910.6563"/><text fill="#000000" font-family="sans-serif" font-size="13" font-weight="bold" lengthAdjust="spacing" textLength="155" x="452.25" y="928.1514">Melihat Riwayat Belanja</text><polygon fill="#181818" points="186,963.3594,196,967.3594,186,971.3594,190,967.3594" style="stroke:#181818;stroke-width:1.0;"/><line style="stroke:#181818;stroke-width:1.0;" x1="35" x2="192" y1="967.3594" y2="967.3594"/><text fill="#000000" font-family="sans-serif" font-size="13" lengthAdjust="spacing" textLength="107" x="42" y="962.5029">Klik nama supplier</text><polygon fill="#181818" points="390,993.7109,400,997.7109,390,1001.7109,394,997.7109" style="stroke:#181818;stroke-width:1.0;"/><line style="stroke:#181818;stroke-width:1.0;" x1="198" x2="396" y1="997.7109" y2="997.7109"/><text fill="#000000" font-family="sans-serif" font-size="13" lengthAdjust="spacing" textLength="124" x="205" y="992.8545">showHistory(supplier)</text><polygon fill="#181818" points="663,1024.0625,673,1028.0625,663,1032.0625,667,1028.0625" style="stroke:#181818;stroke-width:1.0;"/><line style="stroke:#181818;stroke-width:1.0;" x1="412" x2="669" y1="1028.0625" y2="1028.0625"/><text fill="#000000" font-family="sans-serif" font-size="13" lengthAdjust="spacing" textLength="244" x="419" y="1023.2061">supplier-&gt;expenses()-&gt;with('details')-&gt;get()</text><polygon fill="#181818" points="1000,1054.4141,1010,1058.4141,1000,1062.4141,1004,1058.4141" style="stroke:#181818;stroke-width:1.0;"/><line style="stroke:#181818;stroke-width:1.0;" x1="685" x2="1006" y1="1058.4141" y2="1058.4141"/><text fill="#000000" font-family="sans-serif" font-size="13" lengthAdjust="spacing" textLength="303" x="692" y="1053.5576">SELECT * FROM expenses WHERE supplier_id = ?</text><polygon fill="#181818" points="1000,1084.7656,1010,1088.7656,1000,1092.7656,1004,1088.7656" style="stroke:#181818;stroke-width:1.0;"/><line style="stroke:#181818;stroke-width:1.0;" x1="685" x2="1006" y1="1088.7656" y2="1088.7656"/><text fill="#000000" font-family="sans-serif" font-size="13" lengthAdjust="spacing" textLength="199" x="692" y="1083.9092">SELECT * FROM expense_details</text><polygon fill="#181818" points="696,1115.1172,686,1119.1172,696,1123.1172,692,1119.1172" style="stroke:#181818;stroke-width:1.0;"/><line style="stroke:#181818;stroke-width:1.0;stroke-dasharray:2.0,2.0;" x1="690" x2="1011" y1="1119.1172" y2="1119.1172"/><text fill="#000000" font-family="sans-serif" font-size="13" lengthAdjust="spacing" textLength="91" x="702" y="1114.2607">Riwayat belanja</text><polygon fill="#181818" points="423,1145.4688,413,1149.4688,423,1153.4688,419,1149.4688" style="stroke:#181818;stroke-width:1.0;"/><line style="stroke:#181818;stroke-width:1.0;stroke-dasharray:2.0,2.0;" x1="417" x2="679" y1="1149.4688" y2="1149.4688"/><text fill="#000000" font-family="sans-serif" font-size="13" lengthAdjust="spacing" textLength="110" x="429" y="1144.6123">Collection expense</text><polygon fill="#181818" points="209,1211.5234,199,1215.5234,209,1219.5234,205,1215.5234" style="stroke:#181818;stroke-width:1.0;"/><line style="stroke:#181818;stroke-width:1.0;stroke-dasharray:2.0,2.0;" x1="203" x2="406" y1="1215.5234" y2="1215.5234"/><text fill="#000000" font-family="sans-serif" font-size="13" lengthAdjust="spacing" textLength="143" x="215" y="1210.667">Tampilkan modal riwayat</text><path d="M417,1162.4688 L417,1253.4688 L569,1253.4688 L569,1172.4688 L559,1162.4688 L417,1162.4688 " fill="#FEFFDD" style="stroke:#181818;stroke-width:0.5;"/><path d="M559,1162.4688 L559,1172.4688 L569,1172.4688 L559,1162.4688 " fill="#FEFFDD" style="stroke:#181818;stroke-width:0.5;"/><text fill="#000000" font-family="sans-serif" font-size="13" lengthAdjust="spacing" textLength="131" x="423" y="1180.9639">Riwayat menampilkan:</text><text fill="#000000" font-family="sans-serif" font-size="13" lengthAdjust="spacing" textLength="98" x="423" y="1197.3154">- Tanggal belanja</text><text fill="#000000" font-family="sans-serif" font-size="13" lengthAdjust="spacing" textLength="99" x="423" y="1213.667">- Total pembelian</text><text fill="#000000" font-family="sans-serif" font-size="13" lengthAdjust="spacing" textLength="111" x="423" y="1230.0186">- Bahan yang dibeli</text><text fill="#000000" font-family="sans-serif" font-size="13" lengthAdjust="spacing" textLength="121" x="423" y="1246.3701">- Status pembayaran</text><rect fill="#EEEEEE" height="3" style="stroke:#EEEEEE;stroke-width:1.0;" width="1065.5" x="0" y="1280.4023"/><line style="stroke:#000000;stroke-width:1.0;" x1="0" x2="1065.5" y1="1280.4023" y2="1280.4023"/><line style="stroke:#000000;stroke-width:1.0;" x1="0" x2="1065.5" y1="1283.4023" y2="1283.4023"/><rect fill="#EEEEEE" height="24.3516" style="stroke:#000000;stroke-width:2.0;" width="135" x="465.25" y="1269.2266"/><text fill="#000000" font-family="sans-serif" font-size="13" font-weight="bold" lengthAdjust="spacing" textLength="117" x="471.25" y="1286.7217">Mengedit Supplier</text><polygon fill="#181818" points="186,1321.9297,196,1325.9297,186,1329.9297,190,1325.9297" style="stroke:#181818;stroke-width:1.0;"/><line style="stroke:#181818;stroke-width:1.0;" x1="35" x2="192" y1="1325.9297" y2="1325.9297"/><text fill="#000000" font-family="sans-serif" font-size="13" lengthAdjust="spacing" textLength="92" x="42" y="1321.0732">Klik tombol Edit</text><polygon fill="#181818" points="390,1352.2813,400,1356.2813,390,1360.2813,394,1356.2813" style="stroke:#181818;stroke-width:1.0;"/><line style="stroke:#181818;stroke-width:1.0;" x1="198" x2="396" y1="1356.2813" y2="1356.2813"/><text fill="#000000" font-family="sans-serif" font-size="13" lengthAdjust="spacing" textLength="74" x="205" y="1351.4248">edit(supplier)</text><polygon fill="#181818" points="209,1382.6328,199,1386.6328,209,1390.6328,205,1386.6328" style="stroke:#181818;stroke-width:1.0;"/><line style="stroke:#181818;stroke-width:1.0;stroke-dasharray:2.0,2.0;" x1="203" x2="406" y1="1386.6328" y2="1386.6328"/><text fill="#000000" font-family="sans-serif" font-size="13" lengthAdjust="spacing" textLength="113" x="215" y="1381.7764">Tampilkan form edit</text><polygon fill="#181818" points="395,1412.9844,405,1416.9844,395,1420.9844,399,1416.9844" style="stroke:#181818;stroke-width:1.0;"/><line style="stroke:#181818;stroke-width:1.0;" x1="35" x2="401" y1="1416.9844" y2="1416.9844"/><text fill="#000000" font-family="sans-serif" font-size="13" lengthAdjust="spacing" textLength="59" x="42" y="1412.1279">Ubah data</text><polygon fill="#181818" points="390,1443.3359,400,1447.3359,390,1451.3359,394,1447.3359" style="stroke:#181818;stroke-width:1.0;"/><line style="stroke:#181818;stroke-width:1.0;" x1="35" x2="396" y1="1447.3359" y2="1447.3359"/><text fill="#000000" font-family="sans-serif" font-size="13" lengthAdjust="spacing" textLength="47" x="42" y="1442.4795">update()</text><line style="stroke:#181818;stroke-width:1.0;" x1="412" x2="454" y1="1477.6875" y2="1477.6875"/><line style="stroke:#181818;stroke-width:1.0;" x1="454" x2="454" y1="1477.6875" y2="1490.6875"/><line style="stroke:#181818;stroke-width:1.0;" x1="413" x2="454" y1="1490.6875" y2="1490.6875"/><polygon fill="#181818" points="423,1486.6875,413,1490.6875,423,1494.6875,419,1490.6875" style="stroke:#181818;stroke-width:1.0;"/><text fill="#000000" font-family="sans-serif" font-size="13" lengthAdjust="spacing" textLength="51" x="419" y="1472.8311">validate()</text><polygon fill="#181818" points="663,1517.0391,673,1521.0391,663,1525.0391,667,1521.0391" style="stroke:#181818;stroke-width:1.0;"/><line style="stroke:#181818;stroke-width:1.0;" x1="412" x2="669" y1="1521.0391" y2="1521.0391"/><text fill="#000000" font-family="sans-serif" font-size="13" lengthAdjust="spacing" textLength="124" x="419" y="1516.1826">supplier-&gt;update([...])</text><polygon fill="#181818" points="1000,1547.3906,1010,1551.3906,1000,1555.3906,1004,1551.3906" style="stroke:#181818;stroke-width:1.0;"/><line style="stroke:#181818;stroke-width:1.0;" x1="685" x2="1006" y1="1551.3906" y2="1551.3906"/><text fill="#000000" font-family="sans-serif" font-size="13" lengthAdjust="spacing" textLength="153" x="692" y="1546.5342">UPDATE suppliers SET ...</text><polygon fill="#181818" points="696,1577.7422,686,1581.7422,696,1585.7422,692,1581.7422" style="stroke:#181818;stroke-width:1.0;"/><line style="stroke:#181818;stroke-width:1.0;stroke-dasharray:2.0,2.0;" x1="690" x2="1011" y1="1581.7422" y2="1581.7422"/><text fill="#000000" font-family="sans-serif" font-size="13" lengthAdjust="spacing" textLength="51" x="702" y="1576.8857">Success</text><polygon fill="#181818" points="423,1608.0938,413,1612.0938,423,1616.0938,419,1612.0938" style="stroke:#181818;stroke-width:1.0;"/><line style="stroke:#181818;stroke-width:1.0;stroke-dasharray:2.0,2.0;" x1="417" x2="679" y1="1612.0938" y2="1612.0938"/><text fill="#000000" font-family="sans-serif" font-size="13" lengthAdjust="spacing" textLength="48" x="429" y="1607.2373">Updated</text><polygon fill="#181818" points="209,1638.4453,199,1642.4453,209,1646.4453,205,1642.4453" style="stroke:#181818;stroke-width:1.0;"/><line style="stroke:#181818;stroke-width:1.0;stroke-dasharray:2.0,2.0;" x1="203" x2="406" y1="1642.4453" y2="1642.4453"/><text fill="#000000" font-family="sans-serif" font-size="13" lengthAdjust="spacing" textLength="135" x="215" y="1637.5889">Flash message sukses</text><rect fill="#EEEEEE" height="3" style="stroke:#EEEEEE;stroke-width:1.0;" width="1065.5" x="0" y="1671.6211"/><line style="stroke:#000000;stroke-width:1.0;" x1="0" x2="1065.5" y1="1671.6211" y2="1671.6211"/><line style="stroke:#000000;stroke-width:1.0;" x1="0" x2="1065.5" y1="1674.6211" y2="1674.6211"/><rect fill="#EEEEEE" height="24.3516" style="stroke:#000000;stroke-width:2.0;" width="149" x="458.25" y="1660.4453"/><text fill="#000000" font-family="sans-serif" font-size="13" font-weight="bold" lengthAdjust="spacing" textLength="131" x="464.25" y="1677.9404">Menghapus Supplier</text><polygon fill="#181818" points="186,1713.1484,196,1717.1484,186,1721.1484,190,1717.1484" style="stroke:#181818;stroke-width:1.0;"/><line style="stroke:#181818;stroke-width:1.0;" x1="35" x2="192" y1="1717.1484" y2="1717.1484"/><text fill="#000000" font-family="sans-serif" font-size="13" lengthAdjust="spacing" textLength="106" x="42" y="1712.292">Klik tombol Hapus</text><polygon fill="#181818" points="46,1743.5,36,1747.5,46,1751.5,42,1747.5" style="stroke:#181818;stroke-width:1.0;"/><line style="stroke:#181818;stroke-width:1.0;stroke-dasharray:2.0,2.0;" x1="40" x2="197" y1="1747.5" y2="1747.5"/><text fill="#000000" font-family="sans-serif" font-size="13" lengthAdjust="spacing" textLength="100" x="52" y="1742.6436">Konfirmasi hapus</text><polygon fill="#181818" points="390,1773.8516,400,1777.8516,390,1781.8516,394,1777.8516" style="stroke:#181818;stroke-width:1.0;"/><line style="stroke:#181818;stroke-width:1.0;" x1="35" x2="396" y1="1777.8516" y2="1777.8516"/><text fill="#000000" font-family="sans-serif" font-size="13" lengthAdjust="spacing" textLength="88" x="42" y="1772.9951">delete(supplier)</text><polygon fill="#181818" points="663,1804.2031,673,1808.2031,663,1812.2031,667,1808.2031" style="stroke:#181818;stroke-width:1.0;"/><line style="stroke:#181818;stroke-width:1.0;" x1="412" x2="669" y1="1808.2031" y2="1808.2031"/><text fill="#000000" font-family="sans-serif" font-size="13" lengthAdjust="spacing" textLength="173" x="419" y="1803.3467">supplier-&gt;expenses()-&gt;count()</text><polygon fill="#181818" points="1000,1834.5547,1010,1838.5547,1000,1842.5547,1004,1838.5547" style="stroke:#181818;stroke-width:1.0;"/><line style="stroke:#181818;stroke-width:1.0;" x1="685" x2="1006" y1="1838.5547" y2="1838.5547"/><text fill="#000000" font-family="sans-serif" font-size="13" lengthAdjust="spacing" textLength="200" x="692" y="1833.6982">SELECT COUNT FROM expenses</text><polygon fill="#181818" points="696,1864.9063,686,1868.9063,696,1872.9063,692,1868.9063" style="stroke:#181818;stroke-width:1.0;"/><line style="stroke:#181818;stroke-width:1.0;stroke-dasharray:2.0,2.0;" x1="690" x2="1011" y1="1868.9063" y2="1868.9063"/><text fill="#000000" font-family="sans-serif" font-size="13" lengthAdjust="spacing" textLength="32" x="702" y="1864.0498">count</text><polygon fill="#181818" points="423,1895.2578,413,1899.2578,423,1903.2578,419,1899.2578" style="stroke:#181818;stroke-width:1.0;"/><line style="stroke:#181818;stroke-width:1.0;stroke-dasharray:2.0,2.0;" x1="417" x2="679" y1="1899.2578" y2="1899.2578"/><text fill="#000000" font-family="sans-serif" font-size="13" lengthAdjust="spacing" textLength="83" x="429" y="1894.4014">jumlah belanja</text><path d="M125.5,1914.2578 L186.5,1914.2578 L186.5,1922.6094 L176.5,1932.6094 L125.5,1932.6094 L125.5,1914.2578 " fill="#EEEEEE" style="stroke:#000000;stroke-width:1.5;"/><rect fill="none" height="216.2969" style="stroke:#000000;stroke-width:1.5;" width="930" x="125.5" y="1914.2578"/><text fill="#000000" font-family="sans-serif" font-size="13" font-weight="bold" lengthAdjust="spacing" textLength="16" x="140.5" y="1928.7529">alt</text><text fill="#000000" font-family="sans-serif" font-size="11" font-weight="bold" lengthAdjust="spacing" textLength="145" x="201.5" y="1927.6768">[Tidak ada riwayat belanja]</text><polygon fill="#181818" points="663,1950.9609,673,1954.9609,663,1958.9609,667,1954.9609" style="stroke:#181818;stroke-width:1.0;"/><line style="stroke:#181818;stroke-width:1.0;" x1="412" x2="669" y1="1954.9609" y2="1954.9609"/><text fill="#000000" font-family="sans-serif" font-size="13" lengthAdjust="spacing" textLength="100" x="419" y="1950.1045">supplier-&gt;delete()</text><polygon fill="#181818" points="1000,1981.3125,1010,1985.3125,1000,1989.3125,1004,1985.3125" style="stroke:#181818;stroke-width:1.0;"/><line style="stroke:#181818;stroke-width:1.0;" x1="685" x2="1006" y1="1985.3125" y2="1985.3125"/><text fill="#000000" font-family="sans-serif" font-size="13" lengthAdjust="spacing" textLength="148" x="692" y="1980.4561">DELETE FROM suppliers</text><polygon fill="#181818" points="696,2011.6641,686,2015.6641,696,2019.6641,692,2015.6641" style="stroke:#181818;stroke-width:1.0;"/><line style="stroke:#181818;stroke-width:1.0;stroke-dasharray:2.0,2.0;" x1="690" x2="1011" y1="2015.6641" y2="2015.6641"/><text fill="#000000" font-family="sans-serif" font-size="13" lengthAdjust="spacing" textLength="51" x="702" y="2010.8076">Success</text><polygon fill="#181818" points="423,2042.0156,413,2046.0156,423,2050.0156,419,2046.0156" style="stroke:#181818;stroke-width:1.0;"/><line style="stroke:#181818;stroke-width:1.0;stroke-dasharray:2.0,2.0;" x1="417" x2="679" y1="2046.0156" y2="2046.0156"/><text fill="#000000" font-family="sans-serif" font-size="13" lengthAdjust="spacing" textLength="44" x="429" y="2041.1592">Deleted</text><polygon fill="#181818" points="209,2072.3672,199,2076.3672,209,2080.3672,205,2076.3672" style="stroke:#181818;stroke-width:1.0;"/><line style="stroke:#181818;stroke-width:1.0;stroke-dasharray:2.0,2.0;" x1="203" x2="401" y1="2076.3672" y2="2076.3672"/><text fill="#000000" font-family="sans-serif" font-size="13" lengthAdjust="spacing" textLength="135" x="215" y="2071.5107">Flash message sukses</text><line style="stroke:#000000;stroke-width:1.0;stroke-dasharray:2.0,2.0;" x1="125.5" x2="1055.5" y1="2085.3672" y2="2085.3672"/><text fill="#000000" font-family="sans-serif" font-size="11" font-weight="bold" lengthAdjust="spacing" textLength="114" x="130.5" y="2096.7861">[Ada riwayat belanja]</text><polygon fill="#181818" points="209,2118.5547,199,2122.5547,209,2126.5547,205,2122.5547" style="stroke:#181818;stroke-width:1.0;"/><line style="stroke:#181818;stroke-width:1.0;stroke-dasharray:2.0,2.0;" x1="203" x2="401" y1="2122.5547" y2="2122.5547"/><text fill="#000000" font-family="sans-serif" font-size="13" lengthAdjust="spacing" textLength="180" x="215" y="2117.6982">Error: Supplier memiliki riwayat</text><!--SRC=[dLRRSjiu37tNLs3oucHddUdUkvvnTcBB7NkpQZgMClkmxNHWYv5OKwHAKKdpzmjITr-IjazoW0CGmC4XOxWH34BskMHooy3dc6ZC9X0mcJ2X149OvhdWJ7iURetIi98FJD8F3bZ0oijH6xxbEKe3PqiKcA5iOyuiPZd4DBwLZDcNztAkibn9okYmuN7iUncec0a72RmO3MwmO73crx-SmvzvtdHAbGkUeW4VxmtgjXIOJZrl1UChM4xWUbUm0jAwsgBfa1ha3sWObRoqo702cIgbER_eNA4NMbSmQJDF9e_Sf7C77B4lEPEKV7GnlahO83Bm0XlfpoXqySzY7i4Fy6Pz6xJd5mU0-UtTsmYQd9u_Wt5rjcsygpjmPgfsheHWT9xgDHMpNWMXGz84rep6ho5sG-fZGjiwOLOJY33BkTZHXEf9zN7BUjWIimscnyTy8_WEZCesIjXaX3kMF5Cn2hXNEgi2gO-29ZUYp6pq8umYjLCmmvIWDoKRNGnHUKhROs6lNl_qyo-__lRx7w__tCTW76jM51RrjxY4TrYWlhoyxCFmWHrXcJmFA3WjdFKU4h_LpBh-esGVZZEzUXikrX5zejiUpnsHORdTKcaTXUqWDwZB4-H5fIdpQcwTyOt08eMCac72w2oxuaDY- -fOyqTyek-C2PIVy90scdvlmnev5AbwNFA2vFzqtZYFYgDnZg-QxJqdHLYXd8zYPf2BRv98amJ-NIxMYpRxHnx35Fvw8UfZVM1lx4txcwhzemggeqzniBU_kiguDt6fwAjvaXeFsaCpAvegU4BcCUMIIK8vccgSJHcov2mZ8oVfMLibWYT2GyojtLb3WwOi79JIQyAIji6Ut4WqOJ4tBqjqGQYMQHjoakBz4LZnkeXX-uswxkmDOM_jrbBcjQQ-Jd7TDjM1poZkxfr_7NKhGc_A8WA2FoUwEvSrFa7rrofB9YdcnCIBWrvQM7SLtYXvptM61GUNe9qIFNcCclqEeMttdwtWnDioK5TlH2v1Dw1FPIQ8msP11tFoK1Y8YB8TO8oD47hB371ORDtQXNFtaja_sqfzgfIet7iaBUIGopgmAjTtsMDd7DHQ5_CChqpGFnRNf_keGXTQAzsxh3EMSIAOjzS0IT0RxiZ_]--></g></svg>