<?xml version="1.0" encoding="UTF-8" standalone="no"?><svg xmlns="http://www.w3.org/2000/svg" xmlns:xlink="http://www.w3.org/1999/xlink" contentScriptType="application/ecmascript" contentStyleType="text/css" height="902px" preserveAspectRatio="none" style="width:1552px;height:902px;" version="1.1" viewBox="0 0 1552 902" width="1552px" zoomAndPan="magnify"><defs><filter height="300%" id="f117au8rv82ae7" width="300%" x="-1" y="-1"><feGaussianBlur result="blurOut" stdDeviation="2.0"/><feColorMatrix in="blurOut" result="blurOut2" type="matrix" values="0 0 0 0 0 0 0 0 0 0 0 0 0 0 0 0 0 0 .4 0"/><feOffset dx="4.0" dy="4.0" in="blurOut2" result="blurOut3"/><feBlend in="SourceGraphic" in2="blurOut3" mode="normal"/></filter></defs><g><text fill="#000000" font-family="sans-serif" font-size="18" lengthAdjust="spacing" textLength="188" x="681" y="28.6855">Activity Diagram - Login</text><ellipse cx="983.8594" cy="42.6406" fill="#000000" filter="url(#f117au8rv82ae7)" rx="10" ry="10" style="stroke:none;stroke-width:1.0;"/><rect fill="#FEFECE" filter="url(#f117au8rv82ae7)" height="35.0938" rx="12.5" ry="12.5" style="stroke:#A80036;stroke-width:1.5;" width="218" x="874.8594" y="72.6406"/><text fill="#000000" font-family="sans-serif" font-size="12" lengthAdjust="spacing" textLength="198" x="884.8594" y="95.0977">Pengguna membuka halaman login</text><rect fill="#FEFECE" filter="url(#f117au8rv82ae7)" height="35.0938" rx="12.5" ry="12.5" style="stroke:#A80036;stroke-width:1.5;" width="272" x="847.8594" y="127.7344"/><text fill="#000000" font-family="sans-serif" font-size="12" lengthAdjust="spacing" textLength="252" x="857.8594" y="150.1914">Pengguna memasukkan email dan password</text><rect fill="#FEFECE" filter="url(#f117au8rv82ae7)" height="35.0938" rx="12.5" ry="12.5" style="stroke:#A80036;stroke-width:1.5;" width="218" x="874.8594" y="182.8281"/><text fill="#000000" font-family="sans-serif" font-size="12" lengthAdjust="spacing" textLength="198" x="884.8594" y="205.2852">Pengguna mengklik tombol "Masuk"</text><rect fill="#FFFFFF" filter="url(#f117au8rv82ae7)" height="657.2656" style="stroke:#000000;stroke-width:2.0;" width="1524" x="11" y="227.9219"/><path d="M192,227.9219 L192,238.5313 L182,248.5313 L11,248.5313 " fill="none" style="stroke:#000000;stroke-width:2.0;"/><text fill="#000000" font-family="sans-serif" font-size="14" lengthAdjust="spacing" textLength="171" x="14" y="243.4551">Sistem (Livewire &amp; Laravel)</text><rect fill="#FEFECE" filter="url(#f117au8rv82ae7)" height="35.0938" rx="12.5" ry="12.5" style="stroke:#A80036;stroke-width:1.5;" width="122" x="922.8594" y="265.5313"/><text fill="#000000" font-family="sans-serif" font-size="12" lengthAdjust="spacing" textLength="102" x="932.8594" y="287.9883">Validasi input form</text><polygon fill="#FEFECE" filter="url(#f117au8rv82ae7)" points="942.8594,320.625,1024.8594,320.625,1036.8594,332.625,1024.8594,344.625,942.8594,344.625,930.8594,332.625,942.8594,320.625" style="stroke:#A80036;stroke-width:1.5;"/><text fill="#000000" font-family="sans-serif" font-size="11" lengthAdjust="spacing" textLength="82" x="942.8594" y="337.126">Validasi sukses?</text><text fill="#000000" font-family="sans-serif" font-size="11" lengthAdjust="spacing" textLength="14" x="916.8594" y="330.208">Ya</text><text fill="#000000" font-family="sans-serif" font-size="11" lengthAdjust="spacing" textLength="25" x="1036.8594" y="330.208">Tidak</text><rect fill="#FEFECE" filter="url(#f117au8rv82ae7)" height="35.0938" rx="12.5" ry="12.5" style="stroke:#A80036;stroke-width:1.5;" width="118" x="450.7188" y="354.625"/><text fill="#000000" font-family="sans-serif" font-size="12" lengthAdjust="spacing" textLength="98" x="460.7188" y="377.082">Cek Rate Limiting</text><polygon fill="#FEFECE" filter="url(#f117au8rv82ae7)" points="444.2188,409.7188,575.2188,409.7188,587.2188,421.7188,575.2188,433.7188,444.2188,433.7188,432.2188,421.7188,444.2188,409.7188" style="stroke:#A80036;stroke-width:1.5;"/><text fill="#000000" font-family="sans-serif" font-size="11" lengthAdjust="spacing" textLength="131" x="444.2188" y="426.2197">Terlalu banyak percobaan?</text><text fill="#000000" font-family="sans-serif" font-size="11" lengthAdjust="spacing" textLength="14" x="418.2188" y="419.3018">Ya</text><text fill="#000000" font-family="sans-serif" font-size="11" lengthAdjust="spacing" textLength="25" x="587.2188" y="419.3018">Tidak</text><rect fill="#FEFECE" filter="url(#f117au8rv82ae7)" height="35.0938" rx="12.5" ry="12.5" style="stroke:#A80036;stroke-width:1.5;" width="197" x="23" y="443.7188"/><text fill="#000000" font-family="sans-serif" font-size="12" lengthAdjust="spacing" textLength="177" x="33" y="466.1758">Tampilkan pesan error (Throttle)</text><ellipse cx="121.5" cy="509.8125" fill="#FFFFFF" filter="url(#f117au8rv82ae7)" rx="11" ry="11" style="stroke:#000000;stroke-width:1.0;"/><ellipse cx="121.5" cy="509.8125" fill="#000000" rx="6" ry="6" style="stroke:#7F7F7F;stroke-width:1.0;"/><rect fill="#FEFECE" filter="url(#f117au8rv82ae7)" height="35.0938" rx="12.5" ry="12.5" style="stroke:#A80036;stroke-width:1.5;" width="191" x="842.4375" y="443.7188"/><text fill="#000000" font-family="sans-serif" font-size="12" lengthAdjust="spacing" textLength="171" x="852.4375" y="466.1758">Auth::attempt(email, password)</text><polygon fill="#FEFECE" filter="url(#f117au8rv82ae7)" points="894.9375,498.8125,980.9375,498.8125,992.9375,510.8125,980.9375,522.8125,894.9375,522.8125,882.9375,510.8125,894.9375,498.8125" style="stroke:#A80036;stroke-width:1.5;"/><text fill="#000000" font-family="sans-serif" font-size="11" lengthAdjust="spacing" textLength="86" x="894.9375" y="515.3135">Kombinasi benar?</text><text fill="#000000" font-family="sans-serif" font-size="11" lengthAdjust="spacing" textLength="14" x="868.9375" y="508.3955">Ya</text><text fill="#000000" font-family="sans-serif" font-size="11" lengthAdjust="spacing" textLength="25" x="992.9375" y="508.3955">Tidak</text><rect fill="#FEFECE" filter="url(#f117au8rv82ae7)" height="35.0938" rx="12.5" ry="12.5" style="stroke:#A80036;stroke-width:1.5;" width="106" x="638.875" y="532.8125"/><text fill="#000000" font-family="sans-serif" font-size="12" lengthAdjust="spacing" textLength="86" x="648.875" y="555.2695">Ambil data user</text><polygon fill="#FEFECE" filter="url(#f117au8rv82ae7)" points="601.375,587.9063,782.375,587.9063,794.375,599.9063,782.375,611.9063,601.375,611.9063,589.375,599.9063,601.375,587.9063" style="stroke:#A80036;stroke-width:1.5;"/><text fill="#000000" font-family="sans-serif" font-size="11" lengthAdjust="spacing" textLength="181" x="601.375" y="604.4072">Akun sudah diaktivasi (activated_at)?</text><text fill="#000000" font-family="sans-serif" font-size="11" lengthAdjust="spacing" textLength="14" x="575.375" y="597.4893">Ya</text><text fill="#000000" font-family="sans-serif" font-size="11" lengthAdjust="spacing" textLength="25" x="794.375" y="597.4893">Tidak</text><polygon fill="#FEFECE" filter="url(#f117au8rv82ae7)" points="437.75,621.9063,545.75,621.9063,557.75,633.9063,545.75,645.9063,437.75,645.9063,425.75,633.9063,437.75,621.9063" style="stroke:#A80036;stroke-width:1.5;"/><text fill="#000000" font-family="sans-serif" font-size="11" lengthAdjust="spacing" textLength="108" x="437.75" y="638.4072">Akun aktif (is_active)?</text><text fill="#000000" font-family="sans-serif" font-size="11" lengthAdjust="spacing" textLength="14" x="411.75" y="631.4893">Ya</text><text fill="#000000" font-family="sans-serif" font-size="11" lengthAdjust="spacing" textLength="25" x="557.75" y="631.4893">Tidak</text><rect fill="#FEFECE" filter="url(#f117au8rv82ae7)" height="35.0938" rx="12.5" ry="12.5" style="stroke:#A80036;stroke-width:1.5;" width="120" x="299.5" y="655.9063"/><text fill="#000000" font-family="sans-serif" font-size="12" lengthAdjust="spacing" textLength="100" x="309.5" y="678.3633">Clear Rate Limiter</text><rect fill="#FEFECE" filter="url(#f117au8rv82ae7)" height="35.0938" rx="12.5" ry="12.5" style="stroke:#A80036;stroke-width:1.5;" width="134" x="292.5" y="726"/><text fill="#000000" font-family="sans-serif" font-size="12" lengthAdjust="spacing" textLength="114" x="302.5" y="748.457">Regenerasi Session</text><rect fill="#FEFECE" filter="url(#f117au8rv82ae7)" height="35.0938" rx="12.5" ry="12.5" style="stroke:#A80036;stroke-width:1.5;" width="259" x="230" y="796.0938"/><text fill="#000000" font-family="sans-serif" font-size="12" lengthAdjust="spacing" textLength="239" x="240" y="818.5508">Redirect ke Dashboard (Ringkasan Umum)</text><ellipse cx="359.5" cy="862.1875" fill="#FFFFFF" filter="url(#f117au8rv82ae7)" rx="11" ry="11" style="stroke:#000000;stroke-width:1.0;"/><ellipse cx="359.5" cy="862.1875" fill="#000000" rx="6" ry="6" style="stroke:#7F7F7F;stroke-width:1.0;"/><rect fill="#FEFECE" filter="url(#f117au8rv82ae7)" height="35.0938" rx="12.5" ry="12.5" style="stroke:#A80036;stroke-width:1.5;" width="230" x="509" y="655.9063"/><text fill="#000000" font-family="sans-serif" font-size="12" lengthAdjust="spacing" textLength="210" x="519" y="678.3633">Tampilkan pesan "Akun dinonaktifkan"</text><rect fill="#FEFECE" filter="url(#f117au8rv82ae7)" height="35.0938" rx="12.5" ry="12.5" style="stroke:#A80036;stroke-width:1.5;" width="58" x="595" y="726"/><text fill="#000000" font-family="sans-serif" font-size="12" lengthAdjust="spacing" textLength="38" x="605" y="748.457">Logout</text><ellipse cx="624" cy="807.0938" fill="#FFFFFF" filter="url(#f117au8rv82ae7)" rx="11" ry="11" style="stroke:#000000;stroke-width:1.0;"/><ellipse cx="624" cy="807.0938" fill="#000000" rx="6" ry="6" style="stroke:#7F7F7F;stroke-width:1.0;"/><rect fill="#FEFECE" filter="url(#f117au8rv82ae7)" height="35.0938" rx="12.5" ry="12.5" style="stroke:#A80036;stroke-width:1.5;" width="246" x="769" y="621.9063"/><text fill="#000000" font-family="sans-serif" font-size="12" lengthAdjust="spacing" textLength="226" x="779" y="644.3633">Tampilkan pesan "Akun belum diaktivasi"</text><rect fill="#FEFECE" filter="url(#f117au8rv82ae7)" height="35.0938" rx="12.5" ry="12.5" style="stroke:#A80036;stroke-width:1.5;" width="58" x="863" y="692"/><text fill="#000000" font-family="sans-serif" font-size="12" lengthAdjust="spacing" textLength="38" x="873" y="714.457">Logout</text><ellipse cx="892" cy="773.0938" fill="#FFFFFF" filter="url(#f117au8rv82ae7)" rx="11" ry="11" style="stroke:#000000;stroke-width:1.0;"/><ellipse cx="892" cy="773.0938" fill="#000000" rx="6" ry="6" style="stroke:#7F7F7F;stroke-width:1.0;"/><rect fill="#FEFECE" filter="url(#f117au8rv82ae7)" height="35.0938" rx="12.5" ry="12.5" style="stroke:#A80036;stroke-width:1.5;" width="152" x="1108" y="532.8125"/><text fill="#000000" font-family="sans-serif" font-size="12" lengthAdjust="spacing" textLength="132" x="1118" y="555.2695">Tambah hit Rate Limiter</text><rect fill="#FEFECE" filter="url(#f117au8rv82ae7)" height="35.0938" rx="12.5" ry="12.5" style="stroke:#A80036;stroke-width:1.5;" width="278" x="1045" y="587.9063"/><text fill="#000000" font-family="sans-serif" font-size="12" lengthAdjust="spacing" textLength="258" x="1055" y="610.3633">Tampilkan pesan "Salah email atau password"</text><ellipse cx="1184" cy="669" fill="#FFFFFF" filter="url(#f117au8rv82ae7)" rx="11" ry="11" style="stroke:#000000;stroke-width:1.0;"/><ellipse cx="1184" cy="669" fill="#000000" rx="6" ry="6" style="stroke:#7F7F7F;stroke-width:1.0;"/><rect fill="#FEFECE" filter="url(#f117au8rv82ae7)" height="35.0938" rx="12.5" ry="12.5" style="stroke:#A80036;stroke-width:1.5;" width="190" x="1333" y="354.625"/><text fill="#000000" font-family="sans-serif" font-size="12" lengthAdjust="spacing" textLength="170" x="1343" y="377.082">Tampilkan pesan validasi error</text><ellipse cx="1428" cy="420.7188" fill="#FFFFFF" filter="url(#f117au8rv82ae7)" rx="11" ry="11" style="stroke:#000000;stroke-width:1.0;"/><ellipse cx="1428" cy="420.7188" fill="#000000" rx="6" ry="6" style="stroke:#7F7F7F;stroke-width:1.0;"/><line style="stroke:#A80036;stroke-width:1.5;" x1="983.8594" x2="983.8594" y1="52.6406" y2="72.6406"/><polygon fill="#A80036" points="979.8594,62.6406,983.8594,72.6406,987.8594,62.6406,983.8594,66.6406" style="stroke:#A80036;stroke-width:1.0;"/><line style="stroke:#A80036;stroke-width:1.5;" x1="983.8594" x2="983.8594" y1="107.7344" y2="127.7344"/><polygon fill="#A80036" points="979.8594,117.7344,983.8594,127.7344,987.8594,117.7344,983.8594,121.7344" style="stroke:#A80036;stroke-width:1.0;"/><line style="stroke:#A80036;stroke-width:1.5;" x1="983.8594" x2="983.8594" y1="162.8281" y2="182.8281"/><polygon fill="#A80036" points="979.8594,172.8281,983.8594,182.8281,987.8594,172.8281,983.8594,176.8281" style="stroke:#A80036;stroke-width:1.0;"/><line style="stroke:#A80036;stroke-width:1.5;" x1="121.5" x2="121.5" y1="478.8125" y2="498.8125"/><polygon fill="#A80036" points="117.5,488.8125,121.5,498.8125,125.5,488.8125,121.5,492.8125" style="stroke:#A80036;stroke-width:1.0;"/><line style="stroke:#A80036;stroke-width:1.5;" x1="359.5" x2="359.5" y1="691" y2="726"/><polygon fill="#A80036" points="355.5,716,359.5,726,363.5,716,359.5,720" style="stroke:#A80036;stroke-width:1.0;"/><line style="stroke:#A80036;stroke-width:1.5;" x1="359.5" x2="359.5" y1="761.0938" y2="796.0938"/><polygon fill="#A80036" points="355.5,786.0938,359.5,796.0938,363.5,786.0938,359.5,790.0938" style="stroke:#A80036;stroke-width:1.0;"/><line style="stroke:#A80036;stroke-width:1.5;" x1="359.5" x2="359.5" y1="831.1875" y2="851.1875"/><polygon fill="#A80036" points="355.5,841.1875,359.5,851.1875,363.5,841.1875,359.5,845.1875" style="stroke:#A80036;stroke-width:1.0;"/><line style="stroke:#A80036;stroke-width:1.5;" x1="624" x2="624" y1="691" y2="726"/><polygon fill="#A80036" points="620,716,624,726,628,716,624,720" style="stroke:#A80036;stroke-width:1.0;"/><line style="stroke:#A80036;stroke-width:1.5;" x1="624" x2="624" y1="761.0938" y2="796.0938"/><polygon fill="#A80036" points="620,786.0938,624,796.0938,628,786.0938,624,790.0938" style="stroke:#A80036;stroke-width:1.0;"/><line style="stroke:#A80036;stroke-width:1.5;" x1="425.75" x2="359.5" y1="633.9063" y2="633.9063"/><line style="stroke:#A80036;stroke-width:1.5;" x1="359.5" x2="359.5" y1="633.9063" y2="655.9063"/><polygon fill="#A80036" points="355.5,645.9063,359.5,655.9063,363.5,645.9063,359.5,649.9063" style="stroke:#A80036;stroke-width:1.0;"/><line style="stroke:#A80036;stroke-width:1.5;" x1="557.75" x2="624" y1="633.9063" y2="633.9063"/><line style="stroke:#A80036;stroke-width:1.5;" x1="624" x2="624" y1="633.9063" y2="655.9063"/><polygon fill="#A80036" points="620,645.9063,624,655.9063,628,645.9063,624,649.9063" style="stroke:#A80036;stroke-width:1.0;"/><line style="stroke:#A80036;stroke-width:1.5;" x1="892" x2="892" y1="657" y2="692"/><polygon fill="#A80036" points="888,682,892,692,896,682,892,686" style="stroke:#A80036;stroke-width:1.0;"/><line style="stroke:#A80036;stroke-width:1.5;" x1="892" x2="892" y1="727.0938" y2="762.0938"/><polygon fill="#A80036" points="888,752.0938,892,762.0938,896,752.0938,892,756.0938" style="stroke:#A80036;stroke-width:1.0;"/><line style="stroke:#A80036;stroke-width:1.5;" x1="589.375" x2="491.75" y1="599.9063" y2="599.9063"/><line style="stroke:#A80036;stroke-width:1.5;" x1="491.75" x2="491.75" y1="599.9063" y2="621.9063"/><polygon fill="#A80036" points="487.75,611.9063,491.75,621.9063,495.75,611.9063,491.75,615.9063" style="stroke:#A80036;stroke-width:1.0;"/><line style="stroke:#A80036;stroke-width:1.5;" x1="794.375" x2="892" y1="599.9063" y2="599.9063"/><line style="stroke:#A80036;stroke-width:1.5;" x1="892" x2="892" y1="599.9063" y2="621.9063"/><polygon fill="#A80036" points="888,611.9063,892,621.9063,896,611.9063,892,615.9063" style="stroke:#A80036;stroke-width:1.0;"/><line style="stroke:#A80036;stroke-width:1.5;" x1="691.875" x2="691.875" y1="567.9063" y2="587.9063"/><polygon fill="#A80036" points="687.875,577.9063,691.875,587.9063,695.875,577.9063,691.875,581.9063" style="stroke:#A80036;stroke-width:1.0;"/><line style="stroke:#A80036;stroke-width:1.5;" x1="1184" x2="1184" y1="567.9063" y2="587.9063"/><polygon fill="#A80036" points="1180,577.9063,1184,587.9063,1188,577.9063,1184,581.9063" style="stroke:#A80036;stroke-width:1.0;"/><line style="stroke:#A80036;stroke-width:1.5;" x1="1184" x2="1184" y1="623" y2="658"/><polygon fill="#A80036" points="1180,648,1184,658,1188,648,1184,652" style="stroke:#A80036;stroke-width:1.0;"/><line style="stroke:#A80036;stroke-width:1.5;" x1="882.9375" x2="691.875" y1="510.8125" y2="510.8125"/><line style="stroke:#A80036;stroke-width:1.5;" x1="691.875" x2="691.875" y1="510.8125" y2="532.8125"/><polygon fill="#A80036" points="687.875,522.8125,691.875,532.8125,695.875,522.8125,691.875,526.8125" style="stroke:#A80036;stroke-width:1.0;"/><line style="stroke:#A80036;stroke-width:1.5;" x1="992.9375" x2="1184" y1="510.8125" y2="510.8125"/><line style="stroke:#A80036;stroke-width:1.5;" x1="1184" x2="1184" y1="510.8125" y2="532.8125"/><polygon fill="#A80036" points="1180,522.8125,1184,532.8125,1188,522.8125,1184,526.8125" style="stroke:#A80036;stroke-width:1.0;"/><line style="stroke:#A80036;stroke-width:1.5;" x1="937.9375" x2="937.9375" y1="478.8125" y2="498.8125"/><polygon fill="#A80036" points="933.9375,488.8125,937.9375,498.8125,941.9375,488.8125,937.9375,492.8125" style="stroke:#A80036;stroke-width:1.0;"/><line style="stroke:#A80036;stroke-width:1.5;" x1="432.2188" x2="121.5" y1="421.7188" y2="421.7188"/><line style="stroke:#A80036;stroke-width:1.5;" x1="121.5" x2="121.5" y1="421.7188" y2="443.7188"/><polygon fill="#A80036" points="117.5,433.7188,121.5,443.7188,125.5,433.7188,121.5,437.7188" style="stroke:#A80036;stroke-width:1.0;"/><line style="stroke:#A80036;stroke-width:1.5;" x1="587.2188" x2="937.9375" y1="421.7188" y2="421.7188"/><line style="stroke:#A80036;stroke-width:1.5;" x1="937.9375" x2="937.9375" y1="421.7188" y2="443.7188"/><polygon fill="#A80036" points="933.9375,433.7188,937.9375,443.7188,941.9375,433.7188,937.9375,437.7188" style="stroke:#A80036;stroke-width:1.0;"/><line style="stroke:#A80036;stroke-width:1.5;" x1="509.7188" x2="509.7188" y1="389.7188" y2="409.7188"/><polygon fill="#A80036" points="505.7188,399.7188,509.7188,409.7188,513.7188,399.7188,509.7188,403.7188" style="stroke:#A80036;stroke-width:1.0;"/><line style="stroke:#A80036;stroke-width:1.5;" x1="1428" x2="1428" y1="389.7188" y2="409.7188"/><polygon fill="#A80036" points="1424,399.7188,1428,409.7188,1432,399.7188,1428,403.7188" style="stroke:#A80036;stroke-width:1.0;"/><line style="stroke:#A80036;stroke-width:1.5;" x1="930.8594" x2="509.7188" y1="332.625" y2="332.625"/><line style="stroke:#A80036;stroke-width:1.5;" x1="509.7188" x2="509.7188" y1="332.625" y2="354.625"/><polygon fill="#A80036" points="505.7188,344.625,509.7188,354.625,513.7188,344.625,509.7188,348.625" style="stroke:#A80036;stroke-width:1.0;"/><line style="stroke:#A80036;stroke-width:1.5;" x1="1036.8594" x2="1428" y1="332.625" y2="332.625"/><line style="stroke:#A80036;stroke-width:1.5;" x1="1428" x2="1428" y1="332.625" y2="354.625"/><polygon fill="#A80036" points="1424,344.625,1428,354.625,1432,344.625,1428,348.625" style="stroke:#A80036;stroke-width:1.0;"/><line style="stroke:#A80036;stroke-width:1.5;" x1="983.8594" x2="983.8594" y1="300.625" y2="320.625"/><polygon fill="#A80036" points="979.8594,310.625,983.8594,320.625,987.8594,310.625,983.8594,314.625" style="stroke:#A80036;stroke-width:1.0;"/><line style="stroke:#A80036;stroke-width:1.5;" x1="983.8594" x2="983.8594" y1="217.9219" y2="265.5313"/><polygon fill="#A80036" points="979.8594,255.5313,983.8594,265.5313,987.8594,255.5313,983.8594,259.5313" style="stroke:#A80036;stroke-width:1.0;"/><!--MD5=[8d6977914d5bf49c67609bc7bd14ff37]
@startuml activity-login
title Activity Diagram - Login

skinparam ConditionEndStyle hline

start
:Pengguna membuka halaman login;
:Pengguna memasukkan email dan password;
:Pengguna mengklik tombol "Masuk";

partition "Sistem (Livewire & Laravel)" {
    :Validasi input form;
    if (Validasi sukses?) then (Ya)
        :Cek Rate Limiting;
        if (Terlalu banyak percobaan?) then (Ya)
            :Tampilkan pesan error (Throttle);
            stop
        else (Tidak)
            :Auth::attempt(email, password);
            if (Kombinasi benar?) then (Ya)
                :Ambil data user;
                if (Akun sudah diaktivasi (activated_at)?) then (Ya)
                    if (Akun aktif (is_active)?) then (Ya)
                        :Clear Rate Limiter;
                        :Regenerasi Session;
                        :Redirect ke Dashboard (Ringkasan Umum);
                        stop
                    else (Tidak)
                        :Tampilkan pesan "Akun dinonaktifkan";
                        :Logout;
                        stop
                    endif
                else (Tidak)
                    :Tampilkan pesan "Akun belum diaktivasi";
                    :Logout;
                    stop
                endif
            else (Tidak)
                :Tambah hit Rate Limiter;
                :Tampilkan pesan "Salah email atau password";
                stop
            endif
        endif
    else (Tidak)
        :Tampilkan pesan validasi error;
        stop
    endif
}

@enduml

PlantUML version 1.2021.00(Sun Jan 10 17:25:05 WIB 2021)
(MIT source distribution)
Java Runtime: Java(TM) SE Runtime Environment
JVM: Java HotSpot(TM) 64-Bit Server VM
Default Encoding: UTF-8
Language: en
Country: US
--></g></svg>