<?xml version="1.0" encoding="UTF-8" standalone="no"?><svg xmlns="http://www.w3.org/2000/svg" xmlns:xlink="http://www.w3.org/1999/xlink" contentScriptType="application/ecmascript" contentStyleType="text/css" height="1164px" preserveAspectRatio="none" style="width:888px;height:1164px;" version="1.1" viewBox="0 0 888 1164" width="888px" zoomAndPan="magnify"><defs><filter height="300%" id="f18ybat4fmbvhc" width="300%" x="-1" y="-1"><feGaussianBlur result="blurOut" stdDeviation="2.0"/><feColorMatrix in="blurOut" result="blurOut2" type="matrix" values="0 0 0 0 0 0 0 0 0 0 0 0 0 0 0 0 0 0 .4 0"/><feOffset dx="4.0" dy="4.0" in="blurOut2" result="blurOut3"/><feBlend in="SourceGraphic" in2="blurOut3" mode="normal"/></filter></defs><g><text fill="#000000" font-family="sans-serif" font-size="18" lengthAdjust="spacing" textLength="213" x="335.5" y="30.6855">Sequence Diagram - Login</text><rect fill="#FFFFFF" filter="url(#f18ybat4fmbvhc)" height="814.6172" style="stroke:#000000;stroke-width:2.0;" width="864" x="10" y="247.3047"/><rect fill="#FFFFFF" height="765.9141" style="stroke:none;stroke-width:1.0;" width="864" x="10" y="296.0078"/><rect fill="#FFFFFF" filter="url(#f18ybat4fmbvhc)" height="705.7266" style="stroke:#000000;stroke-width:2.0;" width="844" x="20" y="349.1953"/><rect fill="#FFFFFF" height="626.6719" style="stroke:none;stroke-width:1.0;" width="844" x="20" y="428.25"/><rect fill="#FFFFFF" filter="url(#f18ybat4fmbvhc)" height="505.7813" style="stroke:#000000;stroke-width:2.0;" width="749.5" x="30" y="542.1406"/><rect fill="#FFFFFF" height="396.375" style="stroke:none;stroke-width:1.0;" width="749.5" x="30" y="651.5469"/><rect fill="#FFFFFF" filter="url(#f18ybat4fmbvhc)" height="275.4844" style="stroke:#000000;stroke-width:2.0;" width="694.5" x="40" y="765.4375"/><rect fill="#FFFFFF" height="76.5391" style="stroke:none;stroke-width:1.0;" width="694.5" x="40" y="844.4922"/><rect fill="#FFFFFF" height="119.8906" style="stroke:none;stroke-width:1.0;" width="694.5" x="40" y="921.0313"/><line style="stroke:#A80036;stroke-width:1.0;stroke-dasharray:5.0,5.0;" x1="85" x2="85" y1="126.25" y2="1078.9219"/><line style="stroke:#A80036;stroke-width:1.0;stroke-dasharray:5.0,5.0;" x1="339" x2="339" y1="126.25" y2="1078.9219"/><line style="stroke:#A80036;stroke-width:1.0;stroke-dasharray:5.0,5.0;" x1="591.5" x2="591.5" y1="126.25" y2="1078.9219"/><line style="stroke:#A80036;stroke-width:1.0;stroke-dasharray:5.0,5.0;" x1="685.5" x2="685.5" y1="126.25" y2="1078.9219"/><line style="stroke:#A80036;stroke-width:1.0;stroke-dasharray:5.0,5.0;" x1="751.5" x2="751.5" y1="126.25" y2="1078.9219"/><line style="stroke:#A80036;stroke-width:1.0;stroke-dasharray:5.0,5.0;" x1="820" x2="820" y1="126.25" y2="1078.9219"/><text fill="#000000" font-family="sans-serif" font-size="14" lengthAdjust="spacing" textLength="65" x="50" y="123.1738">Pengguna</text><ellipse cx="85.5" cy="51.6406" fill="#FEFECE" filter="url(#f18ybat4fmbvhc)" rx="8" ry="8" style="stroke:#A80036;stroke-width:2.0;"/><path d="M85.5,59.6406 L85.5,86.6406 M72.5,67.6406 L98.5,67.6406 M85.5,86.6406 L72.5,101.6406 M85.5,86.6406 L98.5,101.6406 " fill="none" filter="url(#f18ybat4fmbvhc)" style="stroke:#A80036;stroke-width:2.0;"/><text fill="#000000" font-family="sans-serif" font-size="14" lengthAdjust="spacing" textLength="65" x="50" y="1092.4551">Pengguna</text><ellipse cx="85.5" cy="1105.5313" fill="#FEFECE" filter="url(#f18ybat4fmbvhc)" rx="8" ry="8" style="stroke:#A80036;stroke-width:2.0;"/><path d="M85.5,1113.5313 L85.5,1140.5313 M72.5,1121.5313 L98.5,1121.5313 M85.5,1140.5313 L72.5,1155.5313 M85.5,1140.5313 L98.5,1155.5313 " fill="none" filter="url(#f18ybat4fmbvhc)" style="stroke:#A80036;stroke-width:2.0;"/><text fill="#000000" font-family="sans-serif" font-size="14" lengthAdjust="spacing" textLength="133" x="270" y="123.1738">Auth/Login (Livewire)</text><path d="M319,80.6406 L319,104.6406 M319,92.6406 L336,92.6406 " fill="none" filter="url(#f18ybat4fmbvhc)" style="stroke:#A80036;stroke-width:2.0;"/><ellipse cx="348" cy="92.6406" fill="#FEFECE" filter="url(#f18ybat4fmbvhc)" rx="12" ry="12" style="stroke:#A80036;stroke-width:2.0;"/><text fill="#000000" font-family="sans-serif" font-size="14" lengthAdjust="spacing" textLength="133" x="270" y="1092.4551">Auth/Login (Livewire)</text><path d="M319,1099.5313 L319,1123.5313 M319,1111.5313 L336,1111.5313 " fill="none" filter="url(#f18ybat4fmbvhc)" style="stroke:#A80036;stroke-width:2.0;"/><ellipse cx="348" cy="1111.5313" fill="#FEFECE" filter="url(#f18ybat4fmbvhc)" rx="12" ry="12" style="stroke:#A80036;stroke-width:2.0;"/><text fill="#000000" font-family="sans-serif" font-size="14" lengthAdjust="spacing" textLength="84" x="546.5" y="123.1738">Auth::attempt</text><ellipse cx="591.5" cy="92.6406" fill="#FEFECE" filter="url(#f18ybat4fmbvhc)" rx="12" ry="12" style="stroke:#A80036;stroke-width:2.0;"/><polygon fill="#A80036" points="587.5,80.6406,593.5,75.6406,591.5,80.6406,593.5,85.6406,587.5,80.6406" style="stroke:#A80036;stroke-width:1.0;"/><text fill="#000000" font-family="sans-serif" font-size="14" lengthAdjust="spacing" textLength="84" x="546.5" y="1092.4551">Auth::attempt</text><ellipse cx="591.5" cy="1111.5313" fill="#FEFECE" filter="url(#f18ybat4fmbvhc)" rx="12" ry="12" style="stroke:#A80036;stroke-width:2.0;"/><polygon fill="#A80036" points="587.5,1099.5313,593.5,1094.5313,591.5,1099.5313,593.5,1104.5313,587.5,1099.5313" style="stroke:#A80036;stroke-width:1.0;"/><text fill="#000000" font-family="sans-serif" font-size="14" lengthAdjust="spacing" textLength="72" x="646.5" y="123.1738">RateLimiter</text><ellipse cx="685.5" cy="92.6406" fill="#FEFECE" filter="url(#f18ybat4fmbvhc)" rx="12" ry="12" style="stroke:#A80036;stroke-width:2.0;"/><polygon fill="#A80036" points="681.5,80.6406,687.5,75.6406,685.5,80.6406,687.5,85.6406,681.5,80.6406" style="stroke:#A80036;stroke-width:1.0;"/><text fill="#000000" font-family="sans-serif" font-size="14" lengthAdjust="spacing" textLength="72" x="646.5" y="1092.4551">RateLimiter</text><ellipse cx="685.5" cy="1111.5313" fill="#FEFECE" filter="url(#f18ybat4fmbvhc)" rx="12" ry="12" style="stroke:#A80036;stroke-width:2.0;"/><polygon fill="#A80036" points="681.5,1099.5313,687.5,1094.5313,685.5,1099.5313,687.5,1104.5313,681.5,1099.5313" style="stroke:#A80036;stroke-width:1.0;"/><text fill="#000000" font-family="sans-serif" font-size="14" lengthAdjust="spacing" textLength="29" x="734.5" y="123.1738">User</text><ellipse cx="752" cy="92.6406" fill="#FEFECE" filter="url(#f18ybat4fmbvhc)" rx="12" ry="12" style="stroke:#A80036;stroke-width:2.0;"/><line style="stroke:#A80036;stroke-width:2.0;" x1="740" x2="764" y1="106.6406" y2="106.6406"/><text fill="#000000" font-family="sans-serif" font-size="14" lengthAdjust="spacing" textLength="29" x="734.5" y="1092.4551">User</text><ellipse cx="752" cy="1111.5313" fill="#FEFECE" filter="url(#f18ybat4fmbvhc)" rx="12" ry="12" style="stroke:#A80036;stroke-width:2.0;"/><line style="stroke:#A80036;stroke-width:2.0;" x1="740" x2="764" y1="1125.5313" y2="1125.5313"/><text fill="#000000" font-family="sans-serif" font-size="14" lengthAdjust="spacing" textLength="61" x="787" y="123.1738">Database</text><path d="M802.5,72.6406 C802.5,62.6406 820.5,62.6406 820.5,62.6406 C820.5,62.6406 838.5,62.6406 838.5,72.6406 L838.5,98.6406 C838.5,108.6406 820.5,108.6406 820.5,108.6406 C820.5,108.6406 802.5,108.6406 802.5,98.6406 L802.5,72.6406 " fill="#FEFECE" filter="url(#f18ybat4fmbvhc)" style="stroke:#000000;stroke-width:1.5;"/><path d="M802.5,72.6406 C802.5,82.6406 820.5,82.6406 820.5,82.6406 C820.5,82.6406 838.5,82.6406 838.5,72.6406 " fill="none" style="stroke:#000000;stroke-width:1.5;"/><text fill="#000000" font-family="sans-serif" font-size="14" lengthAdjust="spacing" textLength="61" x="787" y="1092.4551">Database</text><path d="M802.5,1105.5313 C802.5,1095.5313 820.5,1095.5313 820.5,1095.5313 C820.5,1095.5313 838.5,1095.5313 838.5,1105.5313 L838.5,1131.5313 C838.5,1141.5313 820.5,1141.5313 820.5,1141.5313 C820.5,1141.5313 802.5,1141.5313 802.5,1131.5313 L802.5,1105.5313 " fill="#FEFECE" filter="url(#f18ybat4fmbvhc)" style="stroke:#000000;stroke-width:1.5;"/><path d="M802.5,1105.5313 C802.5,1115.5313 820.5,1115.5313 820.5,1115.5313 C820.5,1115.5313 838.5,1115.5313 838.5,1105.5313 " fill="none" style="stroke:#000000;stroke-width:1.5;"/><polygon fill="#A80036" points="327.5,154.6016,337.5,158.6016,327.5,162.6016,331.5,158.6016" style="stroke:#A80036;stroke-width:1.0;"/><line style="stroke:#A80036;stroke-width:1.0;" x1="85.5" x2="333.5" y1="158.6016" y2="158.6016"/><text fill="#000000" font-family="sans-serif" font-size="13" lengthAdjust="spacing" textLength="135" x="92.5" y="153.7451">Input email &amp; password</text><polygon fill="#A80036" points="327.5,184.9531,337.5,188.9531,327.5,192.9531,331.5,188.9531" style="stroke:#A80036;stroke-width:1.0;"/><line style="stroke:#A80036;stroke-width:1.0;" x1="85.5" x2="333.5" y1="188.9531" y2="188.9531"/><text fill="#000000" font-family="sans-serif" font-size="13" lengthAdjust="spacing" textLength="75" x="92.5" y="184.0967">Klik "Masuk"</text><line style="stroke:#A80036;stroke-width:1.0;" x1="339.5" x2="381.5" y1="219.3047" y2="219.3047"/><line style="stroke:#A80036;stroke-width:1.0;" x1="381.5" x2="381.5" y1="219.3047" y2="232.3047"/><line style="stroke:#A80036;stroke-width:1.0;" x1="340.5" x2="381.5" y1="232.3047" y2="232.3047"/><polygon fill="#A80036" points="350.5,228.3047,340.5,232.3047,350.5,236.3047,346.5,232.3047" style="stroke:#A80036;stroke-width:1.0;"/><text fill="#000000" font-family="sans-serif" font-size="13" lengthAdjust="spacing" textLength="51" x="346.5" y="214.4482">validate()</text><path d="M10,247.3047 L71,247.3047 L71,255.3047 L61,265.3047 L10,265.3047 L10,247.3047 " fill="#EEEEEE" style="stroke:#000000;stroke-width:1.0;"/><rect fill="none" height="814.6172" style="stroke:#000000;stroke-width:2.0;" width="864" x="10" y="247.3047"/><text fill="#000000" font-family="sans-serif" font-size="13" font-weight="bold" lengthAdjust="spacing" textLength="16" x="25" y="261.7998">alt</text><text fill="#000000" font-family="sans-serif" font-size="11" font-weight="bold" lengthAdjust="spacing" textLength="84" x="86" y="260.7236">[Validasi Gagal]</text><polygon fill="#A80036" points="96.5,284.0078,86.5,288.0078,96.5,292.0078,92.5,288.0078" style="stroke:#A80036;stroke-width:1.0;"/><line style="stroke:#A80036;stroke-width:1.0;" x1="90.5" x2="338.5" y1="288.0078" y2="288.0078"/><text fill="#000000" font-family="sans-serif" font-size="13" lengthAdjust="spacing" textLength="135" x="102.5" y="283.1514">Tampilkan error validasi</text><line style="stroke:#000000;stroke-width:1.0;stroke-dasharray:2.0,2.0;" x1="10" x2="874" y1="297.0078" y2="297.0078"/><text fill="#000000" font-family="sans-serif" font-size="11" font-weight="bold" lengthAdjust="spacing" textLength="96" x="15" y="308.4268">[Validasi Sukses]</text><polygon fill="#A80036" points="673.5,330.1953,683.5,334.1953,673.5,338.1953,677.5,334.1953" style="stroke:#A80036;stroke-width:1.0;"/><line style="stroke:#A80036;stroke-width:1.0;" x1="339.5" x2="679.5" y1="334.1953" y2="334.1953"/><text fill="#000000" font-family="sans-serif" font-size="13" lengthAdjust="spacing" textLength="189" x="346.5" y="329.3389">tooManyAttempts(throttleKey, 5)</text><path d="M20,349.1953 L81,349.1953 L81,357.1953 L71,367.1953 L20,367.1953 L20,349.1953 " fill="#EEEEEE" style="stroke:#000000;stroke-width:1.0;"/><rect fill="none" height="705.7266" style="stroke:#000000;stroke-width:2.0;" width="844" x="20" y="349.1953"/><text fill="#000000" font-family="sans-serif" font-size="13" font-weight="bold" lengthAdjust="spacing" textLength="16" x="35" y="363.6904">alt</text><text fill="#000000" font-family="sans-serif" font-size="11" font-weight="bold" lengthAdjust="spacing" textLength="77" x="96" y="362.6143">[Rate Limited]</text><polygon fill="#A80036" points="350.5,385.8984,340.5,389.8984,350.5,393.8984,346.5,389.8984" style="stroke:#A80036;stroke-width:1.0;"/><line style="stroke:#A80036;stroke-width:1.0;" x1="344.5" x2="684.5" y1="389.8984" y2="389.8984"/><text fill="#000000" font-family="sans-serif" font-size="13" lengthAdjust="spacing" textLength="22" x="356.5" y="385.042">true</text><polygon fill="#A80036" points="96.5,416.25,86.5,420.25,96.5,424.25,92.5,420.25" style="stroke:#A80036;stroke-width:1.0;"/><line style="stroke:#A80036;stroke-width:1.0;" x1="90.5" x2="338.5" y1="420.25" y2="420.25"/><text fill="#000000" font-family="sans-serif" font-size="13" lengthAdjust="spacing" textLength="133" x="102.5" y="415.3936">Tampilkan error throttle</text><line style="stroke:#000000;stroke-width:1.0;stroke-dasharray:2.0,2.0;" x1="20" x2="864" y1="429.25" y2="429.25"/><text fill="#000000" font-family="sans-serif" font-size="11" font-weight="bold" lengthAdjust="spacing" textLength="98" x="25" y="440.6689">[Not Rate Limited]</text><polygon fill="#A80036" points="579.5,462.4375,589.5,466.4375,579.5,470.4375,583.5,466.4375" style="stroke:#A80036;stroke-width:1.0;"/><line style="stroke:#A80036;stroke-width:1.0;" x1="339.5" x2="585.5" y1="466.4375" y2="466.4375"/><text fill="#000000" font-family="sans-serif" font-size="13" lengthAdjust="spacing" textLength="228" x="346.5" y="461.5811">attempt(['email', 'password'], remember)</text><polygon fill="#A80036" points="808.5,492.7891,818.5,496.7891,808.5,500.7891,812.5,496.7891" style="stroke:#A80036;stroke-width:1.0;"/><line style="stroke:#A80036;stroke-width:1.0;" x1="591.5" x2="814.5" y1="496.7891" y2="496.7891"/><text fill="#000000" font-family="sans-serif" font-size="13" lengthAdjust="spacing" textLength="205" x="598.5" y="491.9326">select * from users where email = ?</text><polygon fill="#A80036" points="602.5,523.1406,592.5,527.1406,602.5,531.1406,598.5,527.1406" style="stroke:#A80036;stroke-width:1.0;"/><line style="stroke:#A80036;stroke-width:1.0;" x1="596.5" x2="819.5" y1="527.1406" y2="527.1406"/><text fill="#000000" font-family="sans-serif" font-size="13" lengthAdjust="spacing" textLength="158" x="608.5" y="522.2842">data user &amp; hash password</text><path d="M30,542.1406 L91,542.1406 L91,550.1406 L81,560.1406 L30,560.1406 L30,542.1406 " fill="#EEEEEE" style="stroke:#000000;stroke-width:1.0;"/><rect fill="none" height="505.7813" style="stroke:#000000;stroke-width:2.0;" width="749.5" x="30" y="542.1406"/><text fill="#000000" font-family="sans-serif" font-size="13" font-weight="bold" lengthAdjust="spacing" textLength="16" x="45" y="556.6357">alt</text><text fill="#000000" font-family="sans-serif" font-size="11" font-weight="bold" lengthAdjust="spacing" textLength="97" x="106" y="555.5596">[Otentikasi Gagal]</text><polygon fill="#A80036" points="350.5,578.8438,340.5,582.8438,350.5,586.8438,346.5,582.8438" style="stroke:#A80036;stroke-width:1.0;"/><line style="stroke:#A80036;stroke-width:1.0;" x1="344.5" x2="590.5" y1="582.8438" y2="582.8438"/><text fill="#000000" font-family="sans-serif" font-size="13" lengthAdjust="spacing" textLength="27" x="356.5" y="577.9873">false</text><polygon fill="#A80036" points="673.5,609.1953,683.5,613.1953,673.5,617.1953,677.5,613.1953" style="stroke:#A80036;stroke-width:1.0;"/><line style="stroke:#A80036;stroke-width:1.0;" x1="339.5" x2="679.5" y1="613.1953" y2="613.1953"/><text fill="#000000" font-family="sans-serif" font-size="13" lengthAdjust="spacing" textLength="85" x="346.5" y="608.3389">hit(throttleKey)</text><polygon fill="#A80036" points="96.5,639.5469,86.5,643.5469,96.5,647.5469,92.5,643.5469" style="stroke:#A80036;stroke-width:1.0;"/><line style="stroke:#A80036;stroke-width:1.0;" x1="90.5" x2="338.5" y1="643.5469" y2="643.5469"/><text fill="#000000" font-family="sans-serif" font-size="13" lengthAdjust="spacing" textLength="230" x="102.5" y="638.6904">Tampilkan error "Salah email/password"</text><line style="stroke:#000000;stroke-width:1.0;stroke-dasharray:2.0,2.0;" x1="30" x2="779.5" y1="652.5469" y2="652.5469"/><text fill="#000000" font-family="sans-serif" font-size="11" font-weight="bold" lengthAdjust="spacing" textLength="112" x="35" y="663.9658">[Otentikasi Berhasil]</text><polygon fill="#A80036" points="350.5,685.7344,340.5,689.7344,350.5,693.7344,346.5,689.7344" style="stroke:#A80036;stroke-width:1.0;"/><line style="stroke:#A80036;stroke-width:1.0;" x1="344.5" x2="590.5" y1="689.7344" y2="689.7344"/><text fill="#000000" font-family="sans-serif" font-size="13" lengthAdjust="spacing" textLength="22" x="356.5" y="684.8779">true</text><polygon fill="#A80036" points="579.5,716.0859,589.5,720.0859,579.5,724.0859,583.5,720.0859" style="stroke:#A80036;stroke-width:1.0;"/><line style="stroke:#A80036;stroke-width:1.0;" x1="339.5" x2="585.5" y1="720.0859" y2="720.0859"/><text fill="#000000" font-family="sans-serif" font-size="13" lengthAdjust="spacing" textLength="33" x="346.5" y="715.2295">user()</text><polygon fill="#A80036" points="740,746.4375,750,750.4375,740,754.4375,744,750.4375" style="stroke:#A80036;stroke-width:1.0;"/><line style="stroke:#A80036;stroke-width:1.0;" x1="591.5" x2="746" y1="750.4375" y2="750.4375"/><text fill="#000000" font-family="sans-serif" font-size="13" lengthAdjust="spacing" textLength="69" x="598.5" y="745.5811">current user</text><path d="M40,765.4375 L101,765.4375 L101,773.4375 L91,783.4375 L40,783.4375 L40,765.4375 " fill="#EEEEEE" style="stroke:#000000;stroke-width:1.0;"/><rect fill="none" height="275.4844" style="stroke:#000000;stroke-width:2.0;" width="694.5" x="40" y="765.4375"/><text fill="#000000" font-family="sans-serif" font-size="13" font-weight="bold" lengthAdjust="spacing" textLength="16" x="55" y="779.9326">alt</text><text fill="#000000" font-family="sans-serif" font-size="11" font-weight="bold" lengthAdjust="spacing" textLength="201" x="116" y="778.8564">[Akun Belum Aktivasi (!activated_at)]</text><polygon fill="#A80036" points="579.5,802.1406,589.5,806.1406,579.5,810.1406,583.5,806.1406" style="stroke:#A80036;stroke-width:1.0;"/><line style="stroke:#A80036;stroke-width:1.0;" x1="339.5" x2="585.5" y1="806.1406" y2="806.1406"/><text fill="#000000" font-family="sans-serif" font-size="13" lengthAdjust="spacing" textLength="43" x="346.5" y="801.2842">logout()</text><polygon fill="#A80036" points="96.5,832.4922,86.5,836.4922,96.5,840.4922,92.5,836.4922" style="stroke:#A80036;stroke-width:1.0;"/><line style="stroke:#A80036;stroke-width:1.0;" x1="90.5" x2="338.5" y1="836.4922" y2="836.4922"/><text fill="#000000" font-family="sans-serif" font-size="13" lengthAdjust="spacing" textLength="199" x="102.5" y="831.6357">Tampilkan error "Belum diaktifkan"</text><line style="stroke:#000000;stroke-width:1.0;stroke-dasharray:2.0,2.0;" x1="40" x2="734.5" y1="845.4922" y2="845.4922"/><text fill="#000000" font-family="sans-serif" font-size="11" font-weight="bold" lengthAdjust="spacing" textLength="177" x="45" y="856.9111">[Akun Dinonaktifkan (!is_active)]</text><polygon fill="#A80036" points="579.5,878.6797,589.5,882.6797,579.5,886.6797,583.5,882.6797" style="stroke:#A80036;stroke-width:1.0;"/><line style="stroke:#A80036;stroke-width:1.0;" x1="339.5" x2="585.5" y1="882.6797" y2="882.6797"/><text fill="#000000" font-family="sans-serif" font-size="13" lengthAdjust="spacing" textLength="43" x="346.5" y="877.8232">logout()</text><polygon fill="#A80036" points="96.5,909.0313,86.5,913.0313,96.5,917.0313,92.5,913.0313" style="stroke:#A80036;stroke-width:1.0;"/><line style="stroke:#A80036;stroke-width:1.0;" x1="90.5" x2="338.5" y1="913.0313" y2="913.0313"/><text fill="#000000" font-family="sans-serif" font-size="13" lengthAdjust="spacing" textLength="181" x="102.5" y="908.1748">Tampilkan error "Dinonaktifkan"</text><line style="stroke:#000000;stroke-width:1.0;stroke-dasharray:2.0,2.0;" x1="40" x2="734.5" y1="922.0313" y2="922.0313"/><text fill="#000000" font-family="sans-serif" font-size="11" font-weight="bold" lengthAdjust="spacing" textLength="67" x="45" y="933.4502">[Akun Valid]</text><polygon fill="#A80036" points="673.5,955.2188,683.5,959.2188,673.5,963.2188,677.5,959.2188" style="stroke:#A80036;stroke-width:1.0;"/><line style="stroke:#A80036;stroke-width:1.0;" x1="339.5" x2="679.5" y1="959.2188" y2="959.2188"/><text fill="#000000" font-family="sans-serif" font-size="13" lengthAdjust="spacing" textLength="99" x="346.5" y="954.3623">clear(throttleKey)</text><line style="stroke:#A80036;stroke-width:1.0;" x1="339.5" x2="381.5" y1="989.5703" y2="989.5703"/><line style="stroke:#A80036;stroke-width:1.0;" x1="381.5" x2="381.5" y1="989.5703" y2="1002.5703"/><line style="stroke:#A80036;stroke-width:1.0;" x1="340.5" x2="381.5" y1="1002.5703" y2="1002.5703"/><polygon fill="#A80036" points="350.5,998.5703,340.5,1002.5703,350.5,1006.5703,346.5,1002.5703" style="stroke:#A80036;stroke-width:1.0;"/><text fill="#000000" font-family="sans-serif" font-size="13" lengthAdjust="spacing" textLength="124" x="346.5" y="984.7139">Session::regenerate()</text><polygon fill="#A80036" points="96.5,1028.9219,86.5,1032.9219,96.5,1036.9219,92.5,1032.9219" style="stroke:#A80036;stroke-width:1.0;"/><line style="stroke:#A80036;stroke-width:1.0;" x1="90.5" x2="338.5" y1="1032.9219" y2="1032.9219"/><text fill="#000000" font-family="sans-serif" font-size="13" lengthAdjust="spacing" textLength="132" x="102.5" y="1028.0654">Redirect ke Dashboard</text><!--MD5=[ab389bba4797a005d6bee47bcb4912ce]
@startuml sequence-login
title Sequence Diagram - Login

actor Pengguna
boundary "Auth/Login (Livewire)" as LoginView
control "Auth::attempt" as Auth
control "RateLimiter" as Limiter
entity "User" as UserModel
database Database

Pengguna -> LoginView : Input email & password
Pengguna -> LoginView : Klik "Masuk"

LoginView -> LoginView : validate()
alt Validasi Gagal
    LoginView -> Pengguna : Tampilkan error validasi
else Validasi Sukses
    LoginView -> Limiter : tooManyAttempts(throttleKey, 5)
    alt Rate Limited
        Limiter -> LoginView : true
        LoginView -> Pengguna : Tampilkan error throttle
    else Not Rate Limited
        LoginView -> Auth : attempt(['email', 'password'], remember)
        
        Auth -> Database : select * from users where email = ?
        Database -> Auth : data user & hash password
        
        alt Otentikasi Gagal
            Auth -> LoginView : false
            LoginView -> Limiter : hit(throttleKey)
            LoginView -> Pengguna : Tampilkan error "Salah email/password"
        else Otentikasi Berhasil
            Auth -> LoginView : true
            LoginView -> Auth : user()
            Auth -> UserModel : current user
            
            alt Akun Belum Aktivasi (!activated_at)
                LoginView -> Auth : logout()
                LoginView -> Pengguna : Tampilkan error "Belum diaktifkan"
            else Akun Dinonaktifkan (!is_active)
                LoginView -> Auth : logout()
                LoginView -> Pengguna : Tampilkan error "Dinonaktifkan"
            else Akun Valid
                LoginView -> Limiter : clear(throttleKey)
                LoginView -> LoginView : Session::regenerate()
                LoginView -> Pengguna : Redirect ke Dashboard
            end
        end
    end
end

@enduml

PlantUML version 1.2021.00(Sun Jan 10 17:25:05 WIB 2021)
(MIT source distribution)
Java Runtime: Java(TM) SE Runtime Environment
JVM: Java HotSpot(TM) 64-Bit Server VM
Default Encoding: UTF-8
Language: en
Country: US
--></g></svg>