<svg xmlns="http://www.w3.org/2000/svg" xmlns:xlink="http://www.w3.org/1999/xlink" contentStyleType="text/css" height="1040px" preserveAspectRatio="none" style="width:1493px;height:1040px;background:#FFFFFF;" version="1.1" viewBox="0 0 1493 1040" width="1493px" zoomAndPan="magnify"><title>UC-12: Kelola Peran dan Hak Akses</title><defs/><g><text fill="#000000" font-family="sans-serif" font-size="14" font-weight="bold" lengthAdjust="spacing" textLength="237.3164" x="623.9075" y="29.5332">UC-12: Kelola Peran dan Hak Akses</text><rect fill="none" height="216.2969" style="stroke:#000000;stroke-width:1.5;" width="1200.1064" x="276.0249" y="438.3828"/><line style="stroke:#181818;stroke-width:0.5;stroke-dasharray:5.0,5.0;" x1="27" x2="27" y1="121.2188" y2="958.8438"/><line style="stroke:#181818;stroke-width:0.5;stroke-dasharray:5.0,5.0;" x1="341.0249" x2="341.0249" y1="121.2188" y2="958.8438"/><line style="stroke:#181818;stroke-width:0.5;stroke-dasharray:5.0,5.0;" x1="615.1934" x2="615.1934" y1="121.2188" y2="958.8438"/><line style="stroke:#181818;stroke-width:0.5;stroke-dasharray:5.0,5.0;" x1="1069.5596" x2="1069.5596" y1="121.2188" y2="958.8438"/><line style="stroke:#181818;stroke-width:0.5;stroke-dasharray:5.0,5.0;" x1="1184.373" x2="1184.373" y1="121.2188" y2="958.8438"/><line style="stroke:#181818;stroke-width:0.5;stroke-dasharray:5.0,5.0;" x1="1432.2007" x2="1432.2007" y1="121.2188" y2="958.8438"/><text fill="#000000" font-family="sans-serif" font-size="14" lengthAdjust="spacing" textLength="39.6826" x="5" y="118.1426">Admin</text><ellipse cx="27.8413" cy="52.1094" fill="#E2E2F0" rx="8" ry="8" style="stroke:#181818;stroke-width:0.5;"/><path d="M27.8413,60.1094 L27.8413,87.1094 M14.8413,68.1094 L40.8413,68.1094 M27.8413,87.1094 L14.8413,102.1094 M27.8413,87.1094 L40.8413,102.1094 " fill="none" style="stroke:#181818;stroke-width:0.5;"/><text fill="#000000" font-family="sans-serif" font-size="14" lengthAdjust="spacing" textLength="39.6826" x="5" y="972.377">Admin</text><ellipse cx="27.8413" cy="983.9531" fill="#E2E2F0" rx="8" ry="8" style="stroke:#181818;stroke-width:0.5;"/><path d="M27.8413,991.9531 L27.8413,1018.9531 M14.8413,999.9531 L40.8413,999.9531 M27.8413,1018.9531 L14.8413,1033.9531 M27.8413,1018.9531 L40.8413,1033.9531 " fill="none" style="stroke:#181818;stroke-width:0.5;"/><rect fill="#E2E2F0" height="49.2188" rx="2.5" ry="2.5" style="stroke:#181818;stroke-width:0.5;" width="111.2754" x="286.0249" y="71"/><text fill="#000000" font-family="sans-serif" font-size="14" lengthAdjust="spacing" textLength="97.2754" x="293.0249" y="92.5332">Halaman Peran</text><text fill="#000000" font-family="sans-serif" font-size="14" lengthAdjust="spacing" textLength="95.6963" x="293.8145" y="110.1426">(livewire/peran)</text><rect fill="#E2E2F0" height="49.2188" rx="2.5" ry="2.5" style="stroke:#181818;stroke-width:0.5;" width="111.2754" x="286.0249" y="957.8438"/><text fill="#000000" font-family="sans-serif" font-size="14" lengthAdjust="spacing" textLength="97.2754" x="293.0249" y="979.377">Halaman Peran</text><text fill="#000000" font-family="sans-serif" font-size="14" lengthAdjust="spacing" textLength="95.6963" x="293.8145" y="996.9863">(livewire/peran)</text><rect fill="#E2E2F0" height="49.2188" rx="2.5" ry="2.5" style="stroke:#181818;stroke-width:0.5;" width="80.9307" x="575.1934" y="71"/><text fill="#000000" font-family="sans-serif" font-size="14" lengthAdjust="spacing" textLength="66.9307" x="582.1934" y="92.5332">Role\Index</text><text fill="#000000" font-family="sans-serif" font-size="14" lengthAdjust="spacing" textLength="60.6758" x="585.3208" y="110.1426">(Livewire)</text><rect fill="#E2E2F0" height="49.2188" rx="2.5" ry="2.5" style="stroke:#181818;stroke-width:0.5;" width="80.9307" x="575.1934" y="957.8438"/><text fill="#000000" font-family="sans-serif" font-size="14" lengthAdjust="spacing" textLength="66.9307" x="582.1934" y="979.377">Role\Index</text><text fill="#000000" font-family="sans-serif" font-size="14" lengthAdjust="spacing" textLength="60.6758" x="585.3208" y="996.9863">(Livewire)</text><rect fill="#E2E2F0" height="49.2188" rx="2.5" ry="2.5" style="stroke:#181818;stroke-width:0.5;" width="84.8135" x="1027.5596" y="71"/><text fill="#000000" font-family="sans-serif" font-size="14" lengthAdjust="spacing" textLength="70.8135" x="1034.5596" y="92.5332">Role Model</text><text fill="#000000" font-family="sans-serif" font-size="14" lengthAdjust="spacing" textLength="49.0205" x="1045.4561" y="110.1426">(Spatie)</text><rect fill="#E2E2F0" height="49.2188" rx="2.5" ry="2.5" style="stroke:#181818;stroke-width:0.5;" width="84.8135" x="1027.5596" y="957.8438"/><text fill="#000000" font-family="sans-serif" font-size="14" lengthAdjust="spacing" textLength="70.8135" x="1034.5596" y="979.377">Role Model</text><text fill="#000000" font-family="sans-serif" font-size="14" lengthAdjust="spacing" textLength="49.0205" x="1045.4561" y="996.9863">(Spatie)</text><rect fill="#E2E2F0" height="49.2188" rx="2.5" ry="2.5" style="stroke:#181818;stroke-width:0.5;" width="125.2617" x="1122.373" y="71"/><text fill="#000000" font-family="sans-serif" font-size="14" lengthAdjust="spacing" textLength="111.2617" x="1129.373" y="92.5332">Permission Model</text><text fill="#000000" font-family="sans-serif" font-size="14" lengthAdjust="spacing" textLength="49.0205" x="1160.4937" y="110.1426">(Spatie)</text><rect fill="#E2E2F0" height="49.2188" rx="2.5" ry="2.5" style="stroke:#181818;stroke-width:0.5;" width="125.2617" x="1122.373" y="957.8438"/><text fill="#000000" font-family="sans-serif" font-size="14" lengthAdjust="spacing" textLength="111.2617" x="1129.373" y="979.377">Permission Model</text><text fill="#000000" font-family="sans-serif" font-size="14" lengthAdjust="spacing" textLength="49.0205" x="1160.4937" y="996.9863">(Spatie)</text><text fill="#000000" font-family="sans-serif" font-size="14" lengthAdjust="spacing" textLength="59.9307" x="1400.2007" y="118.1426">Database</text><path d="M1415.166,67.6094 C1415.166,57.6094 1433.166,57.6094 1433.166,57.6094 C1433.166,57.6094 1451.166,57.6094 1451.166,67.6094 L1451.166,93.6094 C1451.166,103.6094 1433.166,103.6094 1433.166,103.6094 C1433.166,103.6094 1415.166,103.6094 1415.166,93.6094 L1415.166,67.6094 " fill="#E2E2F0" style="stroke:#181818;stroke-width:1.5;"/><path d="M1415.166,67.6094 C1415.166,77.6094 1433.166,77.6094 1433.166,77.6094 C1433.166,77.6094 1451.166,77.6094 1451.166,67.6094 " fill="none" style="stroke:#181818;stroke-width:1.5;"/><text fill="#000000" font-family="sans-serif" font-size="14" lengthAdjust="spacing" textLength="59.9307" x="1400.2007" y="972.377">Database</text><path d="M1415.166,985.4531 C1415.166,975.4531 1433.166,975.4531 1433.166,975.4531 C1433.166,975.4531 1451.166,975.4531 1451.166,985.4531 L1451.166,1011.4531 C1451.166,1021.4531 1433.166,1021.4531 1433.166,1021.4531 C1433.166,1021.4531 1415.166,1021.4531 1415.166,1011.4531 L1415.166,985.4531 " fill="#E2E2F0" style="stroke:#181818;stroke-width:1.5;"/><path d="M1415.166,985.4531 C1415.166,995.4531 1433.166,995.4531 1433.166,995.4531 C1433.166,995.4531 1451.166,995.4531 1451.166,985.4531 " fill="none" style="stroke:#181818;stroke-width:1.5;"/><polygon fill="#181818" points="329.6626,149.5703,339.6626,153.5703,329.6626,157.5703,333.6626,153.5703" style="stroke:#181818;stroke-width:1.0;"/><line style="stroke:#181818;stroke-width:1.0;" x1="27.8413" x2="335.6626" y1="153.5703" y2="153.5703"/><text fill="#000000" font-family="sans-serif" font-size="13" lengthAdjust="spacing" textLength="97.5508" x="34.8413" y="148.7139">Membuka /peran</text><polygon fill="#181818" points="603.6587,179.9219,613.6587,183.9219,603.6587,187.9219,607.6587,183.9219" style="stroke:#181818;stroke-width:1.0;"/><line style="stroke:#181818;stroke-width:1.0;" x1="341.6626" x2="609.6587" y1="183.9219" y2="183.9219"/><text fill="#000000" font-family="sans-serif" font-size="13" lengthAdjust="spacing" textLength="44.7891" x="348.6626" y="179.0654">mount()</text><polygon fill="#181818" points="1421.166,210.2734,1431.166,214.2734,1421.166,218.2734,1425.166,214.2734" style="stroke:#181818;stroke-width:1.0;"/><line style="stroke:#181818;stroke-width:1.0;" x1="615.6587" x2="1427.166" y1="214.2734" y2="214.2734"/><text fill="#000000" font-family="sans-serif" font-size="13" lengthAdjust="spacing" textLength="270.1943" x="622.6587" y="209.417">SELECT roles WITH permissions, users_count</text><polygon fill="#181818" points="626.6587,240.625,616.6587,244.625,626.6587,248.625,622.6587,244.625" style="stroke:#181818;stroke-width:1.0;"/><line style="stroke:#181818;stroke-width:1.0;stroke-dasharray:2.0,2.0;" x1="620.6587" x2="1432.166" y1="244.625" y2="244.625"/><text fill="#000000" font-family="sans-serif" font-size="13" lengthAdjust="spacing" textLength="72.2617" x="632.6587" y="239.7686">Daftar peran</text><polygon fill="#181818" points="352.6626,270.9766,342.6626,274.9766,352.6626,278.9766,348.6626,274.9766" style="stroke:#181818;stroke-width:1.0;"/><line style="stroke:#181818;stroke-width:1.0;stroke-dasharray:2.0,2.0;" x1="346.6626" x2="614.6587" y1="274.9766" y2="274.9766"/><text fill="#000000" font-family="sans-serif" font-size="13" lengthAdjust="spacing" textLength="116.3525" x="358.6626" y="270.1201">Render daftar peran</text><rect fill="#EEEEEE" height="3" style="stroke:#EEEEEE;stroke-width:1.0;" width="1486.1313" x="0" y="304.1523"/><line style="stroke:#000000;stroke-width:1.0;" x1="0" x2="1486.1313" y1="304.1523" y2="304.1523"/><line style="stroke:#000000;stroke-width:1.0;" x1="0" x2="1486.1313" y1="307.1523" y2="307.1523"/><rect fill="#EEEEEE" height="24.3516" style="stroke:#000000;stroke-width:2.0;" width="107.1963" x="689.4675" y="292.9766"/><text fill="#000000" font-family="sans-serif" font-size="13" font-weight="bold" lengthAdjust="spacing" textLength="89.5845" x="695.4675" y="310.4717">Tambah Peran</text><polygon fill="#181818" points="329.6626,345.6797,339.6626,349.6797,329.6626,353.6797,333.6626,349.6797" style="stroke:#181818;stroke-width:1.0;"/><line style="stroke:#181818;stroke-width:1.0;" x1="27.8413" x2="335.6626" y1="349.6797" y2="349.6797"/><text fill="#000000" font-family="sans-serif" font-size="13" lengthAdjust="spacing" textLength="233.3525" x="34.8413" y="344.8232">Klik Tambah Peran, isi form, klik Simpan</text><polygon fill="#181818" points="603.6587,376.0313,613.6587,380.0313,603.6587,384.0313,607.6587,380.0313" style="stroke:#181818;stroke-width:1.0;"/><line style="stroke:#181818;stroke-width:1.0;" x1="341.6626" x2="609.6587" y1="380.0313" y2="380.0313"/><text fill="#000000" font-family="sans-serif" font-size="13" lengthAdjust="spacing" textLength="223.2407" x="348.6626" y="375.1748">save(name, max_users, permissions[])</text><line style="stroke:#181818;stroke-width:1.0;" x1="615.6587" x2="657.6587" y1="410.3828" y2="410.3828"/><line style="stroke:#181818;stroke-width:1.0;" x1="657.6587" x2="657.6587" y1="410.3828" y2="423.3828"/><line style="stroke:#181818;stroke-width:1.0;" x1="616.6587" x2="657.6587" y1="423.3828" y2="423.3828"/><polygon fill="#181818" points="626.6587,419.3828,616.6587,423.3828,626.6587,427.3828,622.6587,423.3828" style="stroke:#181818;stroke-width:1.0;"/><text fill="#000000" font-family="sans-serif" font-size="13" lengthAdjust="spacing" textLength="240.2207" x="622.6587" y="405.5264">validate(['name'=&gt;'required|unique:roles'])</text><path d="M276.0249,438.3828 L336.1958,438.3828 L336.1958,446.7344 L326.1958,456.7344 L276.0249,456.7344 L276.0249,438.3828 " fill="#EEEEEE" style="stroke:#000000;stroke-width:1.5;"/><rect fill="none" height="216.2969" style="stroke:#000000;stroke-width:1.5;" width="1200.1064" x="276.0249" y="438.3828"/><text fill="#000000" font-family="sans-serif" font-size="13" font-weight="bold" lengthAdjust="spacing" textLength="15.1709" x="291.0249" y="452.8779">alt</text><text fill="#000000" font-family="sans-serif" font-size="11" font-weight="bold" lengthAdjust="spacing" textLength="80.6899" x="351.1958" y="451.8018">[Validasi gagal]</text><polygon fill="#181818" points="352.6626,475.0859,342.6626,479.0859,352.6626,483.0859,348.6626,479.0859" style="stroke:#181818;stroke-width:1.0;"/><line style="stroke:#181818;stroke-width:1.0;stroke-dasharray:2.0,2.0;" x1="346.6626" x2="614.6587" y1="479.0859" y2="479.0859"/><text fill="#000000" font-family="sans-serif" font-size="13" lengthAdjust="spacing" textLength="99.7407" x="358.6626" y="474.2295">Pesan kesalahan</text><line style="stroke:#000000;stroke-width:1.0;stroke-dasharray:2.0,2.0;" x1="276.0249" x2="1476.1313" y1="488.0859" y2="488.0859"/><text fill="#000000" font-family="sans-serif" font-size="11" font-weight="bold" lengthAdjust="spacing" textLength="50.7354" x="281.0249" y="499.5049">[Berhasil]</text><polygon fill="#181818" points="1057.9663,521.2734,1067.9663,525.2734,1057.9663,529.2734,1061.9663,525.2734" style="stroke:#181818;stroke-width:1.0;"/><line style="stroke:#181818;stroke-width:1.0;" x1="615.6587" x2="1063.9663" y1="525.2734" y2="525.2734"/><text fill="#000000" font-family="sans-serif" font-size="13" lengthAdjust="spacing" textLength="430.3076" x="622.6587" y="520.417">Role::create(['name'=&gt;$name, 'max_users'=&gt;$max, 'guard_name'=&gt;'web'])</text><polygon fill="#181818" points="1421.166,551.625,1431.166,555.625,1421.166,559.625,1425.166,555.625" style="stroke:#181818;stroke-width:1.0;"/><line style="stroke:#181818;stroke-width:1.0;" x1="1069.9663" x2="1427.166" y1="555.625" y2="555.625"/><text fill="#000000" font-family="sans-serif" font-size="13" lengthAdjust="spacing" textLength="114.1245" x="1076.9663" y="550.7686">INSERT INTO roles</text><polygon fill="#181818" points="1057.9663,581.9766,1067.9663,585.9766,1057.9663,589.9766,1061.9663,585.9766" style="stroke:#181818;stroke-width:1.0;"/><line style="stroke:#181818;stroke-width:1.0;" x1="615.6587" x2="1063.9663" y1="585.9766" y2="585.9766"/><text fill="#000000" font-family="sans-serif" font-size="13" lengthAdjust="spacing" textLength="223.5962" x="622.6587" y="581.1201">$role-&gt;syncPermissions($permissions)</text><polygon fill="#181818" points="1421.166,612.3281,1431.166,616.3281,1421.166,620.3281,1425.166,616.3281" style="stroke:#181818;stroke-width:1.0;"/><line style="stroke:#181818;stroke-width:1.0;" x1="1069.9663" x2="1427.166" y1="616.3281" y2="616.3281"/><text fill="#000000" font-family="sans-serif" font-size="13" lengthAdjust="spacing" textLength="212.3989" x="1076.9663" y="611.4717">INSERT INTO role_has_permissions</text><polygon fill="#181818" points="352.6626,642.6797,342.6626,646.6797,352.6626,650.6797,348.6626,646.6797" style="stroke:#181818;stroke-width:1.0;"/><line style="stroke:#181818;stroke-width:1.0;stroke-dasharray:2.0,2.0;" x1="346.6626" x2="614.6587" y1="646.6797" y2="646.6797"/><text fill="#000000" font-family="sans-serif" font-size="13" lengthAdjust="spacing" textLength="96.8081" x="358.6626" y="641.8232">Notifikasi sukses</text><rect fill="#EEEEEE" height="3" style="stroke:#EEEEEE;stroke-width:1.0;" width="1486.1313" x="0" y="682.8555"/><line style="stroke:#000000;stroke-width:1.0;" x1="0" x2="1486.1313" y1="682.8555" y2="682.8555"/><line style="stroke:#000000;stroke-width:1.0;" x1="0" x2="1486.1313" y1="685.8555" y2="685.8555"/><rect fill="#EEEEEE" height="24.3516" style="stroke:#000000;stroke-width:2.0;" width="163.5508" x="661.2903" y="671.6797"/><text fill="#000000" font-family="sans-serif" font-size="13" font-weight="bold" lengthAdjust="spacing" textLength="145.939" x="667.2903" y="689.1748">Ubah Permission Peran</text><polygon fill="#181818" points="329.6626,724.3828,339.6626,728.3828,329.6626,732.3828,333.6626,728.3828" style="stroke:#181818;stroke-width:1.0;"/><line style="stroke:#181818;stroke-width:1.0;" x1="27.8413" x2="335.6626" y1="728.3828" y2="728.3828"/><text fill="#000000" font-family="sans-serif" font-size="13" lengthAdjust="spacing" textLength="289.8213" x="34.8413" y="723.5264">Pilih peran &#8594; centang/hapus hak akses &#8594; Simpan</text><polygon fill="#181818" points="603.6587,754.7344,613.6587,758.7344,603.6587,762.7344,607.6587,758.7344" style="stroke:#181818;stroke-width:1.0;"/><line style="stroke:#181818;stroke-width:1.0;" x1="341.6626" x2="609.6587" y1="758.7344" y2="758.7344"/><text fill="#000000" font-family="sans-serif" font-size="13" lengthAdjust="spacing" textLength="249.9961" x="348.6626" y="753.8779">updatePermissions($roleId, $permissions[])</text><polygon fill="#181818" points="1057.9663,785.0859,1067.9663,789.0859,1057.9663,793.0859,1061.9663,789.0859" style="stroke:#181818;stroke-width:1.0;"/><line style="stroke:#181818;stroke-width:1.0;" x1="615.6587" x2="1063.9663" y1="789.0859" y2="789.0859"/><text fill="#000000" font-family="sans-serif" font-size="13" lengthAdjust="spacing" textLength="138.7153" x="622.6587" y="784.2295">Role::findOrFail($roleId)</text><polygon fill="#181818" points="1421.166,815.4375,1431.166,819.4375,1421.166,823.4375,1425.166,819.4375" style="stroke:#181818;stroke-width:1.0;"/><line style="stroke:#181818;stroke-width:1.0;" x1="1069.9663" x2="1427.166" y1="819.4375" y2="819.4375"/><text fill="#000000" font-family="sans-serif" font-size="13" lengthAdjust="spacing" textLength="170.1362" x="1076.9663" y="814.5811">SELECT roles WHERE id = ?</text><polygon fill="#181818" points="1057.9663,845.7891,1067.9663,849.7891,1057.9663,853.7891,1061.9663,849.7891" style="stroke:#181818;stroke-width:1.0;"/><line style="stroke:#181818;stroke-width:1.0;" x1="615.6587" x2="1063.9663" y1="849.7891" y2="849.7891"/><text fill="#000000" font-family="sans-serif" font-size="13" lengthAdjust="spacing" textLength="223.5962" x="622.6587" y="844.9326">$role-&gt;syncPermissions($permissions)</text><polygon fill="#181818" points="1421.166,876.1406,1431.166,880.1406,1421.166,884.1406,1425.166,880.1406" style="stroke:#181818;stroke-width:1.0;"/><line style="stroke:#181818;stroke-width:1.0;" x1="1069.9663" x2="1427.166" y1="880.1406" y2="880.1406"/><text fill="#000000" font-family="sans-serif" font-size="13" lengthAdjust="spacing" textLength="339.1997" x="1076.9663" y="875.2842">DELETE FROM role_has_permissions WHERE role_id = ?</text><polygon fill="#181818" points="1421.166,906.4922,1431.166,910.4922,1421.166,914.4922,1425.166,910.4922" style="stroke:#181818;stroke-width:1.0;"/><line style="stroke:#181818;stroke-width:1.0;" x1="1069.9663" x2="1427.166" y1="910.4922" y2="910.4922"/><text fill="#000000" font-family="sans-serif" font-size="13" lengthAdjust="spacing" textLength="269.4707" x="1076.9663" y="905.6357">INSERT INTO role_has_permissions (new set)</text><polygon fill="#181818" points="352.6626,936.8438,342.6626,940.8438,352.6626,944.8438,348.6626,940.8438" style="stroke:#181818;stroke-width:1.0;"/><line style="stroke:#181818;stroke-width:1.0;stroke-dasharray:2.0,2.0;" x1="346.6626" x2="614.6587" y1="940.8438" y2="940.8438"/><text fill="#000000" font-family="sans-serif" font-size="13" lengthAdjust="spacing" textLength="96.8081" x="358.6626" y="935.9873">Notifikasi sukses</text><!--SRC=[fLJDRjf04BxlKumG4Y21elPe2QeGY43vGq3IGrAX0I-mydhjxAv38lNS1-WZzaawkpO41nAbwi5ucPblvljcPcs5bHnkprfVlWPmmMKY4KPSeuAGdW56S1ePRXZ3XKqqL4x3MAWAe05_OYbgAnOYHMMXCa29CS5yWWTLb-A9RuJc9wapD3piJl1D6JLE97zu6AgGFnFcii3aqMT9d2QAAti8WQiav98GanIjAEATmzlByKGe5iQ8H1r5ENUE2j7Y70s7Igyu-O1Ubp6l5reTho20AnxFimWXryQSqJbtX0E8aqpPUeFjJCxVwmOmwL_spwQWYQk1xyFf0D8TFzE4p71jPWk7PhqkjCfPUxYqg26lkfTwHspCgPEQnhSNnzfjc68yntKnt7RxhPuBAQ9IJ1E44R1CTDo4o3ad8awFApNunEiAOzw469zdNa1pNzJzZpTjs0C_eHJKTbw_hxaKjNQdflbZHYiG_ioKUCnuu3jLenmeBTpvUAAsmXLA1d2i2IDkI6L4lnBNH9fBcccNwpK1ts0whqiJ-6CGB3Gl4QhcscexSSv6VyYqob27iotn3Pyxcl2QSZlpuVMaFvxIQtgJ3_u34bKNqEgO5xLuNLnJh-urz5CrPgHsjWTwfrVNYHLB4RcMcinVTjeWlpAtnJ9ixyvxkpCIKgppLOC_ltx3WWgWMfsiCSqChEaZWYwlzxs_HLdgrg2asAaOXaseVhHB1-DR2XNUw7CKSfkXmGwQLRw4W_wu3oA4DdnZ_pMMWpezgZFjm_duvkheK8hQtbKG-EV1GbrHDmst3VQv0Vy5]--></g></svg>