<svg xmlns="http://www.w3.org/2000/svg" xmlns:xlink="http://www.w3.org/1999/xlink" contentStyleType="text/css" height="1343px" preserveAspectRatio="none" style="width:1075px;height:1343px;background:#FFFFFF;" version="1.1" viewBox="0 0 1075 1343" width="1075px" zoomAndPan="magnify"><title>UC-20: Mengakses Landing Page</title><defs/><g><text fill="#000000" font-family="sans-serif" font-size="14" font-weight="bold" lengthAdjust="spacing" textLength="220.165" x="423.5596" y="29.5332">UC-20: Mengakses Landing Page</text><rect fill="none" height="170.1094" style="stroke:#000000;stroke-width:1.5;" width="1048.2842" x="10" y="651.8438"/><line style="stroke:#181818;stroke-width:0.5;stroke-dasharray:5.0,5.0;" x1="60" x2="60" y1="121.2188" y2="1261.5234"/><line style="stroke:#181818;stroke-width:0.5;stroke-dasharray:5.0,5.0;" x1="253.9707" x2="253.9707" y1="121.2188" y2="1261.5234"/><line style="stroke:#181818;stroke-width:0.5;stroke-dasharray:5.0,5.0;" x1="503.0737" x2="503.0737" y1="121.2188" y2="1261.5234"/><line style="stroke:#181818;stroke-width:0.5;stroke-dasharray:5.0,5.0;" x1="630.2388" x2="630.2388" y1="121.2188" y2="1261.5234"/><line style="stroke:#181818;stroke-width:0.5;stroke-dasharray:5.0,5.0;" x1="748.5073" x2="748.5073" y1="121.2188" y2="1261.5234"/><line style="stroke:#181818;stroke-width:0.5;stroke-dasharray:5.0,5.0;" x1="1014.3535" x2="1014.3535" y1="121.2188" y2="1261.5234"/><text fill="#000000" font-family="sans-serif" font-size="14" lengthAdjust="spacing" textLength="74.7373" x="20" y="118.1426">Pengunjung</text><ellipse cx="60.3687" cy="52.1094" fill="#E2E2F0" rx="8" ry="8" style="stroke:#181818;stroke-width:0.5;"/><path d="M60.3687,60.1094 L60.3687,87.1094 M47.3687,68.1094 L73.3687,68.1094 M60.3687,87.1094 L47.3687,102.1094 M60.3687,87.1094 L73.3687,102.1094 " fill="none" style="stroke:#181818;stroke-width:0.5;"/><text fill="#000000" font-family="sans-serif" font-size="14" lengthAdjust="spacing" textLength="74.7373" x="20" y="1275.0566">Pengunjung</text><ellipse cx="60.3687" cy="1286.6328" fill="#E2E2F0" rx="8" ry="8" style="stroke:#181818;stroke-width:0.5;"/><path d="M60.3687,1294.6328 L60.3687,1321.6328 M47.3687,1302.6328 L73.3687,1302.6328 M60.3687,1321.6328 L47.3687,1336.6328 M60.3687,1321.6328 L73.3687,1336.6328 " fill="none" style="stroke:#181818;stroke-width:0.5;"/><rect fill="#E2E2F0" height="49.2188" rx="2.5" ry="2.5" style="stroke:#181818;stroke-width:0.5;" width="133.8682" x="187.9707" y="71"/><text fill="#000000" font-family="sans-serif" font-size="14" lengthAdjust="spacing" textLength="109.7441" x="200.0327" y="92.5332">Halaman Landing</text><text fill="#000000" font-family="sans-serif" font-size="14" lengthAdjust="spacing" textLength="119.8682" x="194.9707" y="110.1426">(landing.blade.php)</text><rect fill="#E2E2F0" height="49.2188" rx="2.5" ry="2.5" style="stroke:#181818;stroke-width:0.5;" width="133.8682" x="187.9707" y="1260.5234"/><text fill="#000000" font-family="sans-serif" font-size="14" lengthAdjust="spacing" textLength="109.7441" x="200.0327" y="1282.0566">Halaman Landing</text><text fill="#000000" font-family="sans-serif" font-size="14" lengthAdjust="spacing" textLength="119.8682" x="194.9707" y="1299.666">(landing.blade.php)</text><rect fill="#E2E2F0" height="31.6094" rx="2.5" ry="2.5" style="stroke:#181818;stroke-width:0.5;" width="129.165" x="439.0737" y="88.6094"/><text fill="#000000" font-family="sans-serif" font-size="14" lengthAdjust="spacing" textLength="115.165" x="446.0737" y="110.1426">StoreProfile Model</text><rect fill="#E2E2F0" height="31.6094" rx="2.5" ry="2.5" style="stroke:#181818;stroke-width:0.5;" width="129.165" x="439.0737" y="1260.5234"/><text fill="#000000" font-family="sans-serif" font-size="14" lengthAdjust="spacing" textLength="115.165" x="446.0737" y="1282.0566">StoreProfile Model</text><rect fill="#E2E2F0" height="31.6094" rx="2.5" ry="2.5" style="stroke:#181818;stroke-width:0.5;" width="104.2686" x="578.2388" y="88.6094"/><text fill="#000000" font-family="sans-serif" font-size="14" lengthAdjust="spacing" textLength="90.2686" x="585.2388" y="110.1426">Product Model</text><rect fill="#E2E2F0" height="31.6094" rx="2.5" ry="2.5" style="stroke:#181818;stroke-width:0.5;" width="104.2686" x="578.2388" y="1260.5234"/><text fill="#000000" font-family="sans-serif" font-size="14" lengthAdjust="spacing" textLength="90.2686" x="585.2388" y="1282.0566">Product Model</text><rect fill="#E2E2F0" height="31.6094" rx="2.5" ry="2.5" style="stroke:#181818;stroke-width:0.5;" width="112.8271" x="692.5073" y="88.6094"/><text fill="#000000" font-family="sans-serif" font-size="14" lengthAdjust="spacing" textLength="98.8271" x="699.5073" y="110.1426">Category Model</text><rect fill="#E2E2F0" height="31.6094" rx="2.5" ry="2.5" style="stroke:#181818;stroke-width:0.5;" width="112.8271" x="692.5073" y="1260.5234"/><text fill="#000000" font-family="sans-serif" font-size="14" lengthAdjust="spacing" textLength="98.8271" x="699.5073" y="1282.0566">Category Model</text><text fill="#000000" font-family="sans-serif" font-size="14" lengthAdjust="spacing" textLength="59.9307" x="982.3535" y="118.1426">Database</text><path d="M997.3188,67.6094 C997.3188,57.6094 1015.3188,57.6094 1015.3188,57.6094 C1015.3188,57.6094 1033.3188,57.6094 1033.3188,67.6094 L1033.3188,93.6094 C1033.3188,103.6094 1015.3188,103.6094 1015.3188,103.6094 C1015.3188,103.6094 997.3188,103.6094 997.3188,93.6094 L997.3188,67.6094 " fill="#E2E2F0" style="stroke:#181818;stroke-width:1.5;"/><path d="M997.3188,67.6094 C997.3188,77.6094 1015.3188,77.6094 1015.3188,77.6094 C1015.3188,77.6094 1033.3188,77.6094 1033.3188,67.6094 " fill="none" style="stroke:#181818;stroke-width:1.5;"/><text fill="#000000" font-family="sans-serif" font-size="14" lengthAdjust="spacing" textLength="59.9307" x="982.3535" y="1275.0566">Database</text><path d="M997.3188,1288.1328 C997.3188,1278.1328 1015.3188,1278.1328 1015.3188,1278.1328 C1015.3188,1278.1328 1033.3188,1278.1328 1033.3188,1288.1328 L1033.3188,1314.1328 C1033.3188,1324.1328 1015.3188,1324.1328 1015.3188,1324.1328 C1015.3188,1324.1328 997.3188,1324.1328 997.3188,1314.1328 L997.3188,1288.1328 " fill="#E2E2F0" style="stroke:#181818;stroke-width:1.5;"/><path d="M997.3188,1288.1328 C997.3188,1298.1328 1015.3188,1298.1328 1015.3188,1298.1328 C1015.3188,1298.1328 1033.3188,1298.1328 1033.3188,1288.1328 " fill="none" style="stroke:#181818;stroke-width:1.5;"/><rect fill="#EEEEEE" height="3" style="stroke:#EEEEEE;stroke-width:1.0;" width="1068.2842" x="0" y="152.3945"/><line style="stroke:#000000;stroke-width:1.0;" x1="0" x2="1068.2842" y1="152.3945" y2="152.3945"/><line style="stroke:#000000;stroke-width:1.0;" x1="0" x2="1068.2842" y1="155.3945" y2="155.3945"/><rect fill="#EEEEEE" height="24.3516" style="stroke:#000000;stroke-width:2.0;" width="115.1499" x="476.5671" y="141.2188"/><text fill="#000000" font-family="sans-serif" font-size="13" font-weight="bold" lengthAdjust="spacing" textLength="97.5381" x="482.5671" y="158.7139">Halaman Utama</text><polygon fill="#181818" points="242.9048,193.9219,252.9048,197.9219,242.9048,201.9219,246.9048,197.9219" style="stroke:#181818;stroke-width:1.0;"/><line style="stroke:#181818;stroke-width:1.0;" x1="60.3687" x2="248.9048" y1="197.9219" y2="197.9219"/><text fill="#000000" font-family="sans-serif" font-size="13" lengthAdjust="spacing" textLength="33.9473" x="67.3687" y="193.0654">GET /</text><polygon fill="#181818" points="491.6563,224.2734,501.6563,228.2734,491.6563,232.2734,495.6563,228.2734" style="stroke:#181818;stroke-width:1.0;"/><line style="stroke:#181818;stroke-width:1.0;" x1="254.9048" x2="497.6563" y1="228.2734" y2="228.2734"/><text fill="#000000" font-family="sans-serif" font-size="13" lengthAdjust="spacing" textLength="104.7427" x="261.9048" y="223.417">StoreProfile::first()</text><polygon fill="#181818" points="1003.3188,254.625,1013.3188,258.625,1003.3188,262.625,1007.3188,258.625" style="stroke:#181818;stroke-width:1.0;"/><line style="stroke:#181818;stroke-width:1.0;" x1="503.6563" x2="1009.3188" y1="258.625" y2="258.625"/><text fill="#000000" font-family="sans-serif" font-size="13" lengthAdjust="spacing" textLength="179.8989" x="510.6563" y="253.7686">SELECT store_profiles LIMIT 1</text><polygon fill="#181818" points="514.6563,284.9766,504.6563,288.9766,514.6563,292.9766,510.6563,288.9766" style="stroke:#181818;stroke-width:1.0;"/><line style="stroke:#181818;stroke-width:1.0;stroke-dasharray:2.0,2.0;" x1="508.6563" x2="1014.3188" y1="288.9766" y2="288.9766"/><text fill="#000000" font-family="sans-serif" font-size="13" lengthAdjust="spacing" textLength="57.8018" x="520.6563" y="284.1201">Profil toko</text><polygon fill="#181818" points="265.9048,315.3281,255.9048,319.3281,265.9048,323.3281,261.9048,319.3281" style="stroke:#181818;stroke-width:1.0;"/><line style="stroke:#181818;stroke-width:1.0;stroke-dasharray:2.0,2.0;" x1="259.9048" x2="502.6563" y1="319.3281" y2="319.3281"/><text fill="#000000" font-family="sans-serif" font-size="13" lengthAdjust="spacing" textLength="224.7515" x="271.9048" y="314.4717">nama, tagline, banner, jam operasional</text><polygon fill="#181818" points="71.3687,345.6797,61.3687,349.6797,71.3687,353.6797,67.3687,349.6797" style="stroke:#181818;stroke-width:1.0;"/><line style="stroke:#181818;stroke-width:1.0;stroke-dasharray:2.0,2.0;" x1="65.3687" x2="253.9048" y1="349.6797" y2="349.6797"/><text fill="#000000" font-family="sans-serif" font-size="13" lengthAdjust="spacing" textLength="132.228" x="77.3687" y="344.8232">Tampil halaman utama</text><rect fill="#EEEEEE" height="3" style="stroke:#EEEEEE;stroke-width:1.0;" width="1068.2842" x="0" y="378.8555"/><line style="stroke:#000000;stroke-width:1.0;" x1="0" x2="1068.2842" y1="378.8555" y2="378.8555"/><line style="stroke:#000000;stroke-width:1.0;" x1="0" x2="1068.2842" y1="381.8555" y2="381.8555"/><rect fill="#EEEEEE" height="24.3516" style="stroke:#000000;stroke-width:2.0;" width="113.6772" x="477.3035" y="367.6797"/><text fill="#000000" font-family="sans-serif" font-size="13" font-weight="bold" lengthAdjust="spacing" textLength="96.0654" x="483.3035" y="385.1748">Katalog Produk</text><polygon fill="#181818" points="242.9048,420.3828,252.9048,424.3828,242.9048,428.3828,246.9048,424.3828" style="stroke:#181818;stroke-width:1.0;"/><line style="stroke:#181818;stroke-width:1.0;" x1="60.3687" x2="248.9048" y1="424.3828" y2="424.3828"/><text fill="#000000" font-family="sans-serif" font-size="13" lengthAdjust="spacing" textLength="119.9517" x="67.3687" y="419.5264">GET /landing-produk</text><polygon fill="#181818" points="618.373,450.7344,628.373,454.7344,618.373,458.7344,622.373,454.7344" style="stroke:#181818;stroke-width:1.0;"/><line style="stroke:#181818;stroke-width:1.0;" x1="254.9048" x2="624.373" y1="454.7344" y2="454.7344"/><text fill="#000000" font-family="sans-serif" font-size="13" lengthAdjust="spacing" textLength="324.9365" x="261.9048" y="449.8779">Product::where('is_active',true)-&gt;with('categories')-&gt;get()</text><polygon fill="#181818" points="1003.3188,481.0859,1013.3188,485.0859,1003.3188,489.0859,1007.3188,485.0859" style="stroke:#181818;stroke-width:1.0;"/><line style="stroke:#181818;stroke-width:1.0;" x1="630.373" x2="1009.3188" y1="485.0859" y2="485.0859"/><text fill="#000000" font-family="sans-serif" font-size="13" lengthAdjust="spacing" textLength="232.2798" x="637.373" y="480.2295">SELECT products WHERE is_active = 1</text><polygon fill="#181818" points="641.373,511.4375,631.373,515.4375,641.373,519.4375,637.373,515.4375" style="stroke:#181818;stroke-width:1.0;"/><line style="stroke:#181818;stroke-width:1.0;stroke-dasharray:2.0,2.0;" x1="635.373" x2="1014.3188" y1="515.4375" y2="515.4375"/><text fill="#000000" font-family="sans-serif" font-size="13" lengthAdjust="spacing" textLength="106.2153" x="647.373" y="510.5811">Daftar produk aktif</text><polygon fill="#181818" points="736.9209,541.7891,746.9209,545.7891,736.9209,549.7891,740.9209,545.7891" style="stroke:#181818;stroke-width:1.0;"/><line style="stroke:#181818;stroke-width:1.0;" x1="254.9048" x2="742.9209" y1="545.7891" y2="545.7891"/><text fill="#000000" font-family="sans-serif" font-size="13" lengthAdjust="spacing" textLength="224.2437" x="261.9048" y="540.9326">Category::where('is_active',true)-&gt;get()</text><polygon fill="#181818" points="1003.3188,572.1406,1013.3188,576.1406,1003.3188,580.1406,1007.3188,576.1406" style="stroke:#181818;stroke-width:1.0;"/><line style="stroke:#181818;stroke-width:1.0;" x1="748.9209" x2="1009.3188" y1="576.1406" y2="576.1406"/><text fill="#000000" font-family="sans-serif" font-size="13" lengthAdjust="spacing" textLength="242.3979" x="755.9209" y="571.2842">SELECT categories WHERE is_active = 1</text><polygon fill="#181818" points="265.9048,602.4922,255.9048,606.4922,265.9048,610.4922,261.9048,606.4922" style="stroke:#181818;stroke-width:1.0;"/><line style="stroke:#181818;stroke-width:1.0;stroke-dasharray:2.0,2.0;" x1="259.9048" x2="1014.3188" y1="606.4922" y2="606.4922"/><text fill="#000000" font-family="sans-serif" font-size="13" lengthAdjust="spacing" textLength="85.2617" x="271.9048" y="601.6357">Daftar kategori</text><polygon fill="#181818" points="71.3687,632.8438,61.3687,636.8438,71.3687,640.8438,67.3687,636.8438" style="stroke:#181818;stroke-width:1.0;"/><line style="stroke:#181818;stroke-width:1.0;stroke-dasharray:2.0,2.0;" x1="65.3687" x2="253.9048" y1="636.8438" y2="636.8438"/><text fill="#000000" font-family="sans-serif" font-size="13" lengthAdjust="spacing" textLength="127.8989" x="77.3687" y="631.9873">Tampil katalog produk</text><path d="M10,651.8438 L70.1709,651.8438 L70.1709,660.1953 L60.1709,670.1953 L10,670.1953 L10,651.8438 " fill="#EEEEEE" style="stroke:#000000;stroke-width:1.5;"/><rect fill="none" height="170.1094" style="stroke:#000000;stroke-width:1.5;" width="1048.2842" x="10" y="651.8438"/><text fill="#000000" font-family="sans-serif" font-size="13" font-weight="bold" lengthAdjust="spacing" textLength="15.1709" x="25" y="666.3389">alt</text><text fill="#000000" font-family="sans-serif" font-size="11" font-weight="bold" lengthAdjust="spacing" textLength="156.4492" x="85.1709" y="665.2627">[Pengunjung mencari produk]</text><polygon fill="#181818" points="242.9048,688.5469,252.9048,692.5469,242.9048,696.5469,246.9048,692.5469" style="stroke:#181818;stroke-width:1.0;"/><line style="stroke:#181818;stroke-width:1.0;" x1="60.3687" x2="248.9048" y1="692.5469" y2="692.5469"/><text fill="#000000" font-family="sans-serif" font-size="13" lengthAdjust="spacing" textLength="91.0444" x="67.3687" y="687.6904">Ketik kata kunci</text><polygon fill="#181818" points="618.373,718.8984,628.373,722.8984,618.373,726.8984,622.373,722.8984" style="stroke:#181818;stroke-width:1.0;"/><line style="stroke:#181818;stroke-width:1.0;" x1="254.9048" x2="624.373" y1="722.8984" y2="722.8984"/><text fill="#000000" font-family="sans-serif" font-size="13" lengthAdjust="spacing" textLength="291.9033" x="261.9048" y="718.042">Product::where('name','like',"%$keyword%")-&gt;get()</text><polygon fill="#181818" points="1003.3188,749.25,1013.3188,753.25,1003.3188,757.25,1007.3188,753.25" style="stroke:#181818;stroke-width:1.0;"/><line style="stroke:#181818;stroke-width:1.0;" x1="630.373" x2="1009.3188" y1="753.25" y2="753.25"/><text fill="#000000" font-family="sans-serif" font-size="13" lengthAdjust="spacing" textLength="234.8125" x="637.373" y="748.3936">SELECT products WHERE name LIKE ?</text><polygon fill="#181818" points="265.9048,779.6016,255.9048,783.6016,265.9048,787.6016,261.9048,783.6016" style="stroke:#181818;stroke-width:1.0;"/><line style="stroke:#181818;stroke-width:1.0;stroke-dasharray:2.0,2.0;" x1="259.9048" x2="1014.3188" y1="783.6016" y2="783.6016"/><text fill="#000000" font-family="sans-serif" font-size="13" lengthAdjust="spacing" textLength="89.6035" x="271.9048" y="778.7451">Hasil pencarian</text><polygon fill="#181818" points="71.3687,809.9531,61.3687,813.9531,71.3687,817.9531,67.3687,813.9531" style="stroke:#181818;stroke-width:1.0;"/><line style="stroke:#181818;stroke-width:1.0;stroke-dasharray:2.0,2.0;" x1="65.3687" x2="253.9048" y1="813.9531" y2="813.9531"/><text fill="#000000" font-family="sans-serif" font-size="13" lengthAdjust="spacing" textLength="155.3589" x="77.3687" y="809.0967">Tampil produk yang sesuai</text><rect fill="#EEEEEE" height="3" style="stroke:#EEEEEE;stroke-width:1.0;" width="1068.2842" x="0" y="850.1289"/><line style="stroke:#000000;stroke-width:1.0;" x1="0" x2="1068.2842" y1="850.1289" y2="850.1289"/><line style="stroke:#000000;stroke-width:1.0;" x1="0" x2="1068.2842" y1="853.1289" y2="853.1289"/><rect fill="#EEEEEE" height="24.3516" style="stroke:#000000;stroke-width:2.0;" width="101.4072" x="483.4385" y="838.9531"/><text fill="#000000" font-family="sans-serif" font-size="13" font-weight="bold" lengthAdjust="spacing" textLength="83.7954" x="489.4385" y="856.4482">Detail Produk</text><polygon fill="#181818" points="242.9048,891.6563,252.9048,895.6563,242.9048,899.6563,246.9048,895.6563" style="stroke:#181818;stroke-width:1.0;"/><line style="stroke:#181818;stroke-width:1.0;" x1="60.3687" x2="248.9048" y1="895.6563" y2="895.6563"/><text fill="#000000" font-family="sans-serif" font-size="13" lengthAdjust="spacing" textLength="142.3652" x="67.3687" y="890.7998">GET /landing-produk/{id}</text><polygon fill="#181818" points="618.373,922.0078,628.373,926.0078,618.373,930.0078,622.373,926.0078" style="stroke:#181818;stroke-width:1.0;"/><line style="stroke:#181818;stroke-width:1.0;" x1="254.9048" x2="624.373" y1="926.0078" y2="926.0078"/><text fill="#000000" font-family="sans-serif" font-size="13" lengthAdjust="spacing" textLength="271.9209" x="261.9048" y="921.1514">Product::where('is_active',true)-&gt;findOrFail($id)</text><polygon fill="#181818" points="1003.3188,952.3594,1013.3188,956.3594,1003.3188,960.3594,1007.3188,956.3594" style="stroke:#181818;stroke-width:1.0;"/><line style="stroke:#181818;stroke-width:1.0;" x1="630.373" x2="1009.3188" y1="956.3594" y2="956.3594"/><text fill="#000000" font-family="sans-serif" font-size="13" lengthAdjust="spacing" textLength="299.1143" x="637.373" y="951.5029">SELECT products WHERE id = ? AND is_active = 1</text><polygon fill="#181818" points="641.373,982.7109,631.373,986.7109,641.373,990.7109,637.373,986.7109" style="stroke:#181818;stroke-width:1.0;"/><line style="stroke:#181818;stroke-width:1.0;stroke-dasharray:2.0,2.0;" x1="635.373" x2="1014.3188" y1="986.7109" y2="986.7109"/><text fill="#000000" font-family="sans-serif" font-size="13" lengthAdjust="spacing" textLength="70.8208" x="647.373" y="981.8545">Data produk</text><polygon fill="#181818" points="265.9048,1013.0625,255.9048,1017.0625,265.9048,1021.0625,261.9048,1017.0625" style="stroke:#181818;stroke-width:1.0;"/><line style="stroke:#181818;stroke-width:1.0;stroke-dasharray:2.0,2.0;" x1="259.9048" x2="629.373" y1="1017.0625" y2="1017.0625"/><text fill="#000000" font-family="sans-serif" font-size="13" lengthAdjust="spacing" textLength="184.9707" x="271.9048" y="1012.2061">Nama, deskripsi, harga, gambar</text><polygon fill="#181818" points="71.3687,1043.4141,61.3687,1047.4141,71.3687,1051.4141,67.3687,1047.4141" style="stroke:#181818;stroke-width:1.0;"/><line style="stroke:#181818;stroke-width:1.0;stroke-dasharray:2.0,2.0;" x1="65.3687" x2="253.9048" y1="1047.4141" y2="1047.4141"/><text fill="#000000" font-family="sans-serif" font-size="13" lengthAdjust="spacing" textLength="170.5361" x="77.3687" y="1042.5576">Tampil halaman detail produk</text><rect fill="#EEEEEE" height="3" style="stroke:#EEEEEE;stroke-width:1.0;" width="1068.2842" x="0" y="1076.5898"/><line style="stroke:#000000;stroke-width:1.0;" x1="0" x2="1068.2842" y1="1076.5898" y2="1076.5898"/><line style="stroke:#000000;stroke-width:1.0;" x1="0" x2="1068.2842" y1="1079.5898" y2="1079.5898"/><rect fill="#EEEEEE" height="24.3516" style="stroke:#000000;stroke-width:2.0;" width="102.8545" x="482.7148" y="1065.4141"/><text fill="#000000" font-family="sans-serif" font-size="13" font-weight="bold" lengthAdjust="spacing" textLength="85.2427" x="488.7148" y="1082.9092">Halaman FAQ</text><polygon fill="#181818" points="242.9048,1118.1172,252.9048,1122.1172,242.9048,1126.1172,246.9048,1122.1172" style="stroke:#181818;stroke-width:1.0;"/><line style="stroke:#181818;stroke-width:1.0;" x1="60.3687" x2="248.9048" y1="1122.1172" y2="1122.1172"/><text fill="#000000" font-family="sans-serif" font-size="13" lengthAdjust="spacing" textLength="98.2744" x="67.3687" y="1117.2607">GET /landing-faq</text><polygon fill="#181818" points="491.6563,1148.4688,501.6563,1152.4688,491.6563,1156.4688,495.6563,1152.4688" style="stroke:#181818;stroke-width:1.0;"/><line style="stroke:#181818;stroke-width:1.0;" x1="254.9048" x2="497.6563" y1="1152.4688" y2="1152.4688"/><text fill="#000000" font-family="sans-serif" font-size="13" lengthAdjust="spacing" textLength="104.7427" x="261.9048" y="1147.6123">StoreProfile::first()</text><polygon fill="#181818" points="1003.3188,1178.8203,1013.3188,1182.8203,1003.3188,1186.8203,1007.3188,1182.8203" style="stroke:#181818;stroke-width:1.0;"/><line style="stroke:#181818;stroke-width:1.0;" x1="503.6563" x2="1009.3188" y1="1182.8203" y2="1182.8203"/><text fill="#000000" font-family="sans-serif" font-size="13" lengthAdjust="spacing" textLength="179.8989" x="510.6563" y="1177.9639">SELECT store_profiles LIMIT 1</text><polygon fill="#181818" points="514.6563,1209.1719,504.6563,1213.1719,514.6563,1217.1719,510.6563,1213.1719" style="stroke:#181818;stroke-width:1.0;"/><line style="stroke:#181818;stroke-width:1.0;stroke-dasharray:2.0,2.0;" x1="508.6563" x2="1014.3188" y1="1213.1719" y2="1213.1719"/><text fill="#000000" font-family="sans-serif" font-size="13" lengthAdjust="spacing" textLength="91.7808" x="520.6563" y="1208.3154">Info kontak toko</text><polygon fill="#181818" points="71.3687,1239.5234,61.3687,1243.5234,71.3687,1247.5234,67.3687,1243.5234" style="stroke:#181818;stroke-width:1.0;"/><line style="stroke:#181818;stroke-width:1.0;stroke-dasharray:2.0,2.0;" x1="65.3687" x2="253.9048" y1="1243.5234" y2="1243.5234"/><text fill="#000000" font-family="sans-serif" font-size="13" lengthAdjust="spacing" textLength="122.8208" x="77.3687" y="1238.667">Tampil halaman FAQ</text><!--SRC=[nLHDRzim3BtxLn11YwH0qcux6aYBDawNe1_hjdIx32YOI7PKER8doGkAOVzzjAMuTh_IxhAJPOgattjyfXKsvN0z6dnu5y85LmbAmmsSes929N252Gy2NDXCG-UAhWjrMwYa0sZWcp22ua6Eseg5o55Pw4mmnHMgJOCVgfUwq_uyHSRtysM-vwlvkbtwbPhnAvt5WX1TP8odLQAFL85s0TsmOc7RkMNaYTmHMfva-gwHl0cvR8OMvsWuT29_gfAYao0O3c53wzhI0uR3m9E7mM7598IFunaS1EMvZ3L1Xz1a5eQnqCRsze9cJbaJdL3c-7myce4f2svobq3Jc5vCP_0-Y4vWyAYvUmERoUn1ongR8j1zi9YaGl4-p54fhljmYol8SgxHY4nXwi5NLHMv46QuogdtqhClIlQL7cUaKPebJd3vl21- -8EyoclAKyyftBo5uNh9DUzrXRaXnubVlDktkk1xWyEriCjUT-469hZfKYpXNiIwqmCHStTbuFja_6KCTLSOjgHi08amjgXTeGIKLiGrv9PRmlhr1T0EOAlk0S9xGYzXT79wRDANF3yiwKVZ9GymjN3_vyAAgmLgiRa6U3IuCsw5hDg0BDH2L3clcHlPZDXtKo7fqTdTaVnkdMcsswd507ZzlCfkvFopCHnHNKkB2JasXTmnGLK3V48DFyix9Egqs0eK0LUiyd34BLB6sonyy5kmF__iurWezacVqcTxEuAzoRsCB744nvVHwunCm_CJRd-ZvdPPxGJ6ZTGYDw9FFxbEA9BWQevw-ovWJhsDonexylJuytOrO_pvFvRbLCKPo4nPb6vZRkL9R8A_]--></g></svg>