<svg xmlns="http://www.w3.org/2000/svg" xmlns:xlink="http://www.w3.org/1999/xlink" contentStyleType="text/css" height="1331px" preserveAspectRatio="none" style="width:1660px;height:1331px;background:#FFFFFF;" version="1.1" viewBox="0 0 1660 1331" width="1660px" zoomAndPan="magnify"><title>UC-17: Kelola Stock Opname</title><defs/><g><text fill="#000000" font-family="sans-serif" font-size="14" font-weight="bold" lengthAdjust="spacing" textLength="192.9375" x="729.5801" y="29.5332">UC-17: Kelola Stock Opname</text><rect fill="none" height="79.0547" style="stroke:#000000;stroke-width:1.5;" width="1198.9585" x="444.1392" y="516.4375"/><rect fill="none" height="139.7578" style="stroke:#000000;stroke-width:1.5;" width="1198.9585" x="444.1392" y="1001.7109"/><line style="stroke:#181818;stroke-width:0.5;stroke-dasharray:5.0,5.0;" x1="58" x2="58" y1="121.2188" y2="1249.5234"/><line style="stroke:#181818;stroke-width:0.5;stroke-dasharray:5.0,5.0;" x1="264.458" x2="264.458" y1="121.2188" y2="1249.5234"/><line style="stroke:#181818;stroke-width:0.5;stroke-dasharray:5.0,5.0;" x1="500.1392" x2="500.1392" y1="121.2188" y2="1249.5234"/><line style="stroke:#181818;stroke-width:0.5;stroke-dasharray:5.0,5.0;" x1="947.2817" x2="947.2817" y1="121.2188" y2="1249.5234"/><line style="stroke:#181818;stroke-width:0.5;stroke-dasharray:5.0,5.0;" x1="1109.9868" x2="1109.9868" y1="121.2188" y2="1249.5234"/><line style="stroke:#181818;stroke-width:0.5;stroke-dasharray:5.0,5.0;" x1="1256.269" x2="1256.269" y1="121.2188" y2="1249.5234"/><line style="stroke:#181818;stroke-width:0.5;stroke-dasharray:5.0,5.0;" x1="1405.8755" x2="1405.8755" y1="121.2188" y2="1249.5234"/><line style="stroke:#181818;stroke-width:0.5;stroke-dasharray:5.0,5.0;" x1="1599.167" x2="1599.167" y1="121.2188" y2="1249.5234"/><text fill="#000000" font-family="sans-serif" font-size="14" lengthAdjust="spacing" textLength="101.1787" x="5" y="118.1426">Bagian Inventori</text><ellipse cx="58.5894" cy="52.1094" fill="#E2E2F0" rx="8" ry="8" style="stroke:#181818;stroke-width:0.5;"/><path d="M58.5894,60.1094 L58.5894,87.1094 M45.5894,68.1094 L71.5894,68.1094 M58.5894,87.1094 L45.5894,102.1094 M58.5894,87.1094 L71.5894,102.1094 " fill="none" style="stroke:#181818;stroke-width:0.5;"/><text fill="#000000" font-family="sans-serif" font-size="14" lengthAdjust="spacing" textLength="101.1787" x="5" y="1263.0566">Bagian Inventori</text><ellipse cx="58.5894" cy="1274.6328" fill="#E2E2F0" rx="8" ry="8" style="stroke:#181818;stroke-width:0.5;"/><path d="M58.5894,1282.6328 L58.5894,1309.6328 M45.5894,1290.6328 L71.5894,1290.6328 M58.5894,1309.6328 L45.5894,1324.6328 M58.5894,1309.6328 L71.5894,1324.6328 " fill="none" style="stroke:#181818;stroke-width:0.5;"/><rect fill="#E2E2F0" height="49.2188" rx="2.5" ry="2.5" style="stroke:#181818;stroke-width:0.5;" width="166.5166" x="181.458" y="71"/><text fill="#000000" font-family="sans-serif" font-size="14" lengthAdjust="spacing" textLength="152.5166" x="188.458" y="92.5332">Halaman Stock Opname</text><text fill="#000000" font-family="sans-serif" font-size="14" lengthAdjust="spacing" textLength="98.0342" x="215.6992" y="110.1426">(livewire/hitung)</text><rect fill="#E2E2F0" height="49.2188" rx="2.5" ry="2.5" style="stroke:#181818;stroke-width:0.5;" width="166.5166" x="181.458" y="1248.5234"/><text fill="#000000" font-family="sans-serif" font-size="14" lengthAdjust="spacing" textLength="152.5166" x="188.458" y="1270.0566">Halaman Stock Opname</text><text fill="#000000" font-family="sans-serif" font-size="14" lengthAdjust="spacing" textLength="98.0342" x="215.6992" y="1287.666">(livewire/hitung)</text><rect fill="#E2E2F0" height="49.2188" rx="2.5" ry="2.5" style="stroke:#181818;stroke-width:0.5;" width="92.6064" x="454.1392" y="71"/><text fill="#000000" font-family="sans-serif" font-size="14" lengthAdjust="spacing" textLength="78.6064" x="461.1392" y="92.5332">Hitung\Index</text><text fill="#000000" font-family="sans-serif" font-size="14" lengthAdjust="spacing" textLength="60.6758" x="470.1045" y="110.1426">(Livewire)</text><rect fill="#E2E2F0" height="49.2188" rx="2.5" ry="2.5" style="stroke:#181818;stroke-width:0.5;" width="92.6064" x="454.1392" y="1248.5234"/><text fill="#000000" font-family="sans-serif" font-size="14" lengthAdjust="spacing" textLength="78.6064" x="461.1392" y="1270.0566">Hitung\Index</text><text fill="#000000" font-family="sans-serif" font-size="14" lengthAdjust="spacing" textLength="60.6758" x="470.1045" y="1287.666">(Livewire)</text><rect fill="#E2E2F0" height="31.6094" rx="2.5" ry="2.5" style="stroke:#181818;stroke-width:0.5;" width="96.4893" x="899.2817" y="88.6094"/><text fill="#000000" font-family="sans-serif" font-size="14" lengthAdjust="spacing" textLength="82.4893" x="906.2817" y="110.1426">Hitung Model</text><rect fill="#E2E2F0" height="31.6094" rx="2.5" ry="2.5" style="stroke:#181818;stroke-width:0.5;" width="96.4893" x="899.2817" y="1248.5234"/><text fill="#000000" font-family="sans-serif" font-size="14" lengthAdjust="spacing" textLength="82.4893" x="906.2817" y="1270.0566">Hitung Model</text><rect fill="#E2E2F0" height="31.6094" rx="2.5" ry="2.5" style="stroke:#181818;stroke-width:0.5;" width="132.2822" x="1043.9868" y="88.6094"/><text fill="#000000" font-family="sans-serif" font-size="14" lengthAdjust="spacing" textLength="118.2822" x="1050.9868" y="110.1426">HitungDetail Model</text><rect fill="#E2E2F0" height="31.6094" rx="2.5" ry="2.5" style="stroke:#181818;stroke-width:0.5;" width="132.2822" x="1043.9868" y="1248.5234"/><text fill="#000000" font-family="sans-serif" font-size="14" lengthAdjust="spacing" textLength="118.2822" x="1050.9868" y="1270.0566">HitungDetail Model</text><rect fill="#E2E2F0" height="31.6094" rx="2.5" ry="2.5" style="stroke:#181818;stroke-width:0.5;" width="141.6064" x="1186.269" y="88.6094"/><text fill="#000000" font-family="sans-serif" font-size="14" lengthAdjust="spacing" textLength="127.6064" x="1193.269" y="110.1426">MaterialDetail Model</text><rect fill="#E2E2F0" height="31.6094" rx="2.5" ry="2.5" style="stroke:#181818;stroke-width:0.5;" width="141.6064" x="1186.269" y="1248.5234"/><text fill="#000000" font-family="sans-serif" font-size="14" lengthAdjust="spacing" textLength="127.6064" x="1193.269" y="1270.0566">MaterialDetail Model</text><rect fill="#E2E2F0" height="31.6094" rx="2.5" ry="2.5" style="stroke:#181818;stroke-width:0.5;" width="136.9648" x="1337.8755" y="88.6094"/><text fill="#000000" font-family="sans-serif" font-size="14" lengthAdjust="spacing" textLength="122.9648" x="1344.8755" y="110.1426">InventoryLog Model</text><rect fill="#E2E2F0" height="31.6094" rx="2.5" ry="2.5" style="stroke:#181818;stroke-width:0.5;" width="136.9648" x="1337.8755" y="1248.5234"/><text fill="#000000" font-family="sans-serif" font-size="14" lengthAdjust="spacing" textLength="122.9648" x="1344.8755" y="1270.0566">InventoryLog Model</text><text fill="#000000" font-family="sans-serif" font-size="14" lengthAdjust="spacing" textLength="59.9307" x="1567.167" y="118.1426">Database</text><path d="M1582.1323,67.6094 C1582.1323,57.6094 1600.1323,57.6094 1600.1323,57.6094 C1600.1323,57.6094 1618.1323,57.6094 1618.1323,67.6094 L1618.1323,93.6094 C1618.1323,103.6094 1600.1323,103.6094 1600.1323,103.6094 C1600.1323,103.6094 1582.1323,103.6094 1582.1323,93.6094 L1582.1323,67.6094 " fill="#E2E2F0" style="stroke:#181818;stroke-width:1.5;"/><path d="M1582.1323,67.6094 C1582.1323,77.6094 1600.1323,77.6094 1600.1323,77.6094 C1600.1323,77.6094 1618.1323,77.6094 1618.1323,67.6094 " fill="none" style="stroke:#181818;stroke-width:1.5;"/><text fill="#000000" font-family="sans-serif" font-size="14" lengthAdjust="spacing" textLength="59.9307" x="1567.167" y="1263.0566">Database</text><path d="M1582.1323,1276.1328 C1582.1323,1266.1328 1600.1323,1266.1328 1600.1323,1266.1328 C1600.1323,1266.1328 1618.1323,1266.1328 1618.1323,1276.1328 L1618.1323,1302.1328 C1618.1323,1312.1328 1600.1323,1312.1328 1600.1323,1312.1328 C1600.1323,1312.1328 1582.1323,1312.1328 1582.1323,1302.1328 L1582.1323,1276.1328 " fill="#E2E2F0" style="stroke:#181818;stroke-width:1.5;"/><path d="M1582.1323,1276.1328 C1582.1323,1286.1328 1600.1323,1286.1328 1600.1323,1286.1328 C1600.1323,1286.1328 1618.1323,1286.1328 1618.1323,1276.1328 " fill="none" style="stroke:#181818;stroke-width:1.5;"/><polygon fill="#181818" points="252.7163,149.5703,262.7163,153.5703,252.7163,157.5703,256.7163,153.5703" style="stroke:#181818;stroke-width:1.0;"/><line style="stroke:#181818;stroke-width:1.0;" x1="58.5894" x2="258.7163" y1="153.5703" y2="153.5703"/><text fill="#000000" font-family="sans-serif" font-size="13" lengthAdjust="spacing" textLength="99.7217" x="65.5894" y="148.7139">Membuka /hitung</text><polygon fill="#181818" points="488.4424,179.9219,498.4424,183.9219,488.4424,187.9219,492.4424,183.9219" style="stroke:#181818;stroke-width:1.0;"/><line style="stroke:#181818;stroke-width:1.0;" x1="264.7163" x2="494.4424" y1="183.9219" y2="183.9219"/><text fill="#000000" font-family="sans-serif" font-size="13" lengthAdjust="spacing" textLength="44.7891" x="271.7163" y="179.0654">mount()</text><polygon fill="#181818" points="1588.1323,210.2734,1598.1323,214.2734,1588.1323,218.2734,1592.1323,214.2734" style="stroke:#181818;stroke-width:1.0;"/><line style="stroke:#181818;stroke-width:1.0;" x1="500.4424" x2="1594.1323" y1="214.2734" y2="214.2734"/><text fill="#000000" font-family="sans-serif" font-size="13" lengthAdjust="spacing" textLength="278.9097" x="507.4424" y="209.417">SELECT hitungs ORDER BY hitung_date DESC</text><polygon fill="#181818" points="511.4424,240.625,501.4424,244.625,511.4424,248.625,507.4424,244.625" style="stroke:#181818;stroke-width:1.0;"/><line style="stroke:#181818;stroke-width:1.0;stroke-dasharray:2.0,2.0;" x1="505.4424" x2="1599.1323" y1="244.625" y2="244.625"/><text fill="#000000" font-family="sans-serif" font-size="13" lengthAdjust="spacing" textLength="119.9453" x="517.4424" y="239.7686">Daftar stock opname</text><polygon fill="#181818" points="275.7163,270.9766,265.7163,274.9766,275.7163,278.9766,271.7163,274.9766" style="stroke:#181818;stroke-width:1.0;"/><line style="stroke:#181818;stroke-width:1.0;stroke-dasharray:2.0,2.0;" x1="269.7163" x2="499.4424" y1="274.9766" y2="274.9766"/><text fill="#000000" font-family="sans-serif" font-size="13" lengthAdjust="spacing" textLength="156.8125" x="281.7163" y="270.1201">Render daftar sesi opname</text><rect fill="#EEEEEE" height="3" style="stroke:#EEEEEE;stroke-width:1.0;" width="1653.0977" x="0" y="304.1523"/><line style="stroke:#000000;stroke-width:1.0;" x1="0" x2="1653.0977" y1="304.1523" y2="304.1523"/><line style="stroke:#000000;stroke-width:1.0;" x1="0" x2="1653.0977" y1="307.1523" y2="307.1523"/><rect fill="#EEEEEE" height="24.3516" style="stroke:#000000;stroke-width:2.0;" width="145.4727" x="753.8125" y="292.9766"/><text fill="#000000" font-family="sans-serif" font-size="13" font-weight="bold" lengthAdjust="spacing" textLength="127.8608" x="759.8125" y="310.4717">Mulai Stock Opname</text><polygon fill="#181818" points="252.7163,345.6797,262.7163,349.6797,252.7163,353.6797,256.7163,349.6797" style="stroke:#181818;stroke-width:1.0;"/><line style="stroke:#181818;stroke-width:1.0;" x1="58.5894" x2="258.7163" y1="349.6797" y2="349.6797"/><text fill="#000000" font-family="sans-serif" font-size="13" lengthAdjust="spacing" textLength="145.2217" x="65.5894" y="344.8232">Klik Mulai Stock Opname</text><polygon fill="#181818" points="488.4424,376.0313,498.4424,380.0313,488.4424,384.0313,492.4424,380.0313" style="stroke:#181818;stroke-width:1.0;"/><line style="stroke:#181818;stroke-width:1.0;" x1="264.7163" x2="494.4424" y1="380.0313" y2="380.0313"/><text fill="#000000" font-family="sans-serif" font-size="13" lengthAdjust="spacing" textLength="44.7891" x="271.7163" y="375.1748">create()</text><polygon fill="#181818" points="935.5264,406.3828,945.5264,410.3828,935.5264,414.3828,939.5264,410.3828" style="stroke:#181818;stroke-width:1.0;"/><line style="stroke:#181818;stroke-width:1.0;" x1="500.4424" x2="941.5264" y1="410.3828" y2="410.3828"/><text fill="#000000" font-family="sans-serif" font-size="13" lengthAdjust="spacing" textLength="423.084" x="507.4424" y="405.5264">Hitung::create(['hitung_number'=&gt;..., 'status'=&gt;'Draft', 'user_id'=&gt;$userId])</text><polygon fill="#181818" points="1588.1323,436.7344,1598.1323,440.7344,1588.1323,444.7344,1592.1323,440.7344" style="stroke:#181818;stroke-width:1.0;"/><line style="stroke:#181818;stroke-width:1.0;" x1="947.5264" x2="1594.1323" y1="440.7344" y2="440.7344"/><text fill="#000000" font-family="sans-serif" font-size="13" lengthAdjust="spacing" textLength="127.8672" x="954.5264" y="435.8779">INSERT INTO hitungs</text><polygon fill="#181818" points="1588.1323,467.0859,1598.1323,471.0859,1588.1323,475.0859,1592.1323,471.0859" style="stroke:#181818;stroke-width:1.0;"/><line style="stroke:#181818;stroke-width:1.0;" x1="500.4424" x2="1594.1323" y1="471.0859" y2="471.0859"/><text fill="#000000" font-family="sans-serif" font-size="13" lengthAdjust="spacing" textLength="281.0615" x="507.4424" y="466.2295">SELECT material_batches JOIN material_details</text><polygon fill="#181818" points="511.4424,497.4375,501.4424,501.4375,511.4424,505.4375,507.4424,501.4375" style="stroke:#181818;stroke-width:1.0;"/><line style="stroke:#181818;stroke-width:1.0;stroke-dasharray:2.0,2.0;" x1="505.4424" x2="1599.1323" y1="501.4375" y2="501.4375"/><text fill="#000000" font-family="sans-serif" font-size="13" lengthAdjust="spacing" textLength="104.0571" x="517.4424" y="496.5811">Semua batch aktif</text><path d="M444.1392,516.4375 L516.5737,516.4375 L516.5737,524.7891 L506.5737,534.7891 L444.1392,534.7891 L444.1392,516.4375 " fill="#EEEEEE" style="stroke:#000000;stroke-width:1.5;"/><rect fill="none" height="79.0547" style="stroke:#000000;stroke-width:1.5;" width="1198.9585" x="444.1392" y="516.4375"/><text fill="#000000" font-family="sans-serif" font-size="13" font-weight="bold" lengthAdjust="spacing" textLength="27.4346" x="459.1392" y="530.9326">loop</text><text fill="#000000" font-family="sans-serif" font-size="11" font-weight="bold" lengthAdjust="spacing" textLength="72.73" x="531.5737" y="529.8564">[Setiap batch]</text><polygon fill="#181818" points="1098.1279,553.1406,1108.1279,557.1406,1098.1279,561.1406,1102.1279,557.1406" style="stroke:#181818;stroke-width:1.0;"/><line style="stroke:#181818;stroke-width:1.0;" x1="500.4424" x2="1104.1279" y1="557.1406" y2="557.1406"/><text fill="#000000" font-family="sans-serif" font-size="13" lengthAdjust="spacing" textLength="585.6855" x="507.4424" y="552.2842">HitungDetail::create(['hitung_id'=&gt;..., 'material_id'=&gt;..., 'material_batch_id'=&gt;..., 'quantity_expect'=&gt;...])</text><polygon fill="#181818" points="1588.1323,583.4922,1598.1323,587.4922,1588.1323,591.4922,1592.1323,587.4922" style="stroke:#181818;stroke-width:1.0;"/><line style="stroke:#181818;stroke-width:1.0;" x1="1110.1279" x2="1594.1323" y1="587.4922" y2="587.4922"/><text fill="#000000" font-family="sans-serif" font-size="13" lengthAdjust="spacing" textLength="166.1753" x="1117.1279" y="582.6357">INSERT INTO hitung_details</text><polygon fill="#181818" points="275.7163,620.8438,265.7163,624.8438,275.7163,628.8438,271.7163,624.8438" style="stroke:#181818;stroke-width:1.0;"/><line style="stroke:#181818;stroke-width:1.0;stroke-dasharray:2.0,2.0;" x1="269.7163" x2="499.4424" y1="624.8438" y2="624.8438"/><text fill="#000000" font-family="sans-serif" font-size="13" lengthAdjust="spacing" textLength="211.7261" x="281.7163" y="619.9873">Redirect ke halaman rincian opname</text><rect fill="#EEEEEE" height="3" style="stroke:#EEEEEE;stroke-width:1.0;" width="1653.0977" x="0" y="654.0195"/><line style="stroke:#000000;stroke-width:1.0;" x1="0" x2="1653.0977" y1="654.0195" y2="654.0195"/><line style="stroke:#000000;stroke-width:1.0;" x1="0" x2="1653.0977" y1="657.0195" y2="657.0195"/><rect fill="#EEEEEE" height="24.3516" style="stroke:#000000;stroke-width:2.0;" width="110.0908" x="771.5034" y="642.8438"/><text fill="#000000" font-family="sans-serif" font-size="13" font-weight="bold" lengthAdjust="spacing" textLength="92.479" x="777.5034" y="660.3389">Isi Hasil Aktual</text><polygon fill="#181818" points="252.7163,695.5469,262.7163,699.5469,252.7163,703.5469,256.7163,699.5469" style="stroke:#181818;stroke-width:1.0;"/><line style="stroke:#181818;stroke-width:1.0;" x1="58.5894" x2="258.7163" y1="699.5469" y2="699.5469"/><text fill="#000000" font-family="sans-serif" font-size="13" lengthAdjust="spacing" textLength="182.127" x="65.5894" y="694.6904">Isi quantity_actual setiap bahan</text><polygon fill="#181818" points="488.4424,725.8984,498.4424,729.8984,488.4424,733.8984,492.4424,729.8984" style="stroke:#181818;stroke-width:1.0;"/><line style="stroke:#181818;stroke-width:1.0;" x1="264.7163" x2="494.4424" y1="729.8984" y2="729.8984"/><text fill="#000000" font-family="sans-serif" font-size="13" lengthAdjust="spacing" textLength="179.9497" x="271.7163" y="725.042">updateDetail($detailId, $actual)</text><polygon fill="#181818" points="1098.1279,756.25,1108.1279,760.25,1098.1279,764.25,1102.1279,760.25" style="stroke:#181818;stroke-width:1.0;"/><line style="stroke:#181818;stroke-width:1.0;" x1="500.4424" x2="1104.1279" y1="760.25" y2="760.25"/><text fill="#000000" font-family="sans-serif" font-size="13" lengthAdjust="spacing" textLength="342.0879" x="507.4424" y="755.3936">HitungDetail::find($id)-&gt;update(['quantity_actual'=&gt;$actual])</text><polygon fill="#181818" points="1588.1323,786.6016,1598.1323,790.6016,1588.1323,794.6016,1592.1323,790.6016" style="stroke:#181818;stroke-width:1.0;"/><line style="stroke:#181818;stroke-width:1.0;" x1="1110.1279" x2="1594.1323" y1="790.6016" y2="790.6016"/><text fill="#000000" font-family="sans-serif" font-size="13" lengthAdjust="spacing" textLength="136.5698" x="1117.1279" y="785.7451">UPDATE hitung_details</text><polygon fill="#181818" points="275.7163,816.9531,265.7163,820.9531,275.7163,824.9531,271.7163,820.9531" style="stroke:#181818;stroke-width:1.0;"/><line style="stroke:#181818;stroke-width:1.0;stroke-dasharray:2.0,2.0;" x1="269.7163" x2="499.4424" y1="820.9531" y2="820.9531"/><text fill="#000000" font-family="sans-serif" font-size="13" lengthAdjust="spacing" textLength="140.1689" x="281.7163" y="816.0967">Tampil selisih diperbarui</text><rect fill="#EEEEEE" height="3" style="stroke:#EEEEEE;stroke-width:1.0;" width="1653.0977" x="0" y="850.1289"/><line style="stroke:#000000;stroke-width:1.0;" x1="0" x2="1653.0977" y1="850.1289" y2="850.1289"/><line style="stroke:#000000;stroke-width:1.0;" x1="0" x2="1653.0977" y1="853.1289" y2="853.1289"/><rect fill="#EEEEEE" height="24.3516" style="stroke:#000000;stroke-width:2.0;" width="179.4644" x="736.8167" y="838.9531"/><text fill="#000000" font-family="sans-serif" font-size="13" font-weight="bold" lengthAdjust="spacing" textLength="161.8525" x="742.8167" y="856.4482">Selesaikan Stock Opname</text><polygon fill="#181818" points="252.7163,891.6563,262.7163,895.6563,252.7163,899.6563,256.7163,895.6563" style="stroke:#181818;stroke-width:1.0;"/><line style="stroke:#181818;stroke-width:1.0;" x1="58.5894" x2="258.7163" y1="895.6563" y2="895.6563"/><text fill="#000000" font-family="sans-serif" font-size="13" lengthAdjust="spacing" textLength="177.7534" x="65.5894" y="890.7998">Klik Selesaikan Stock Opname</text><polygon fill="#181818" points="488.4424,922.0078,498.4424,926.0078,488.4424,930.0078,492.4424,926.0078" style="stroke:#181818;stroke-width:1.0;"/><line style="stroke:#181818;stroke-width:1.0;" x1="264.7163" x2="494.4424" y1="926.0078" y2="926.0078"/><text fill="#000000" font-family="sans-serif" font-size="13" lengthAdjust="spacing" textLength="39.0063" x="271.7163" y="921.1514">finish()</text><polygon fill="#181818" points="1098.1279,952.3594,1108.1279,956.3594,1098.1279,960.3594,1102.1279,956.3594" style="stroke:#181818;stroke-width:1.0;"/><line style="stroke:#181818;stroke-width:1.0;" x1="500.4424" x2="1104.1279" y1="956.3594" y2="956.3594"/><text fill="#000000" font-family="sans-serif" font-size="13" lengthAdjust="spacing" textLength="232.9336" x="507.4424" y="951.5029">HitungDetail::where('hitung_id',...)-&gt;get()</text><polygon fill="#181818" points="1588.1323,982.7109,1598.1323,986.7109,1588.1323,990.7109,1592.1323,986.7109" style="stroke:#181818;stroke-width:1.0;"/><line style="stroke:#181818;stroke-width:1.0;" x1="1110.1279" x2="1594.1323" y1="986.7109" y2="986.7109"/><text fill="#000000" font-family="sans-serif" font-size="13" lengthAdjust="spacing" textLength="134.4116" x="1117.1279" y="981.8545">SELECT hitung_details</text><path d="M444.1392,1001.7109 L516.5737,1001.7109 L516.5737,1010.0625 L506.5737,1020.0625 L444.1392,1020.0625 L444.1392,1001.7109 " fill="#EEEEEE" style="stroke:#000000;stroke-width:1.5;"/><rect fill="none" height="139.7578" style="stroke:#000000;stroke-width:1.5;" width="1198.9585" x="444.1392" y="1001.7109"/><text fill="#000000" font-family="sans-serif" font-size="13" font-weight="bold" lengthAdjust="spacing" textLength="27.4346" x="459.1392" y="1016.2061">loop</text><text fill="#000000" font-family="sans-serif" font-size="11" font-weight="bold" lengthAdjust="spacing" textLength="184.5884" x="531.5737" y="1015.1299">[Setiap item dengan selisih negatif]</text><polygon fill="#181818" points="1245.0723,1038.4141,1255.0723,1042.4141,1245.0723,1046.4141,1249.0723,1042.4141" style="stroke:#181818;stroke-width:1.0;"/><line style="stroke:#181818;stroke-width:1.0;" x1="500.4424" x2="1251.0723" y1="1042.4141" y2="1042.4141"/><text fill="#000000" font-family="sans-serif" font-size="13" lengthAdjust="spacing" textLength="154.6606" x="507.4424" y="1037.5576">Sesuaikan supply_quantity</text><polygon fill="#181818" points="1588.1323,1068.7656,1598.1323,1072.7656,1588.1323,1076.7656,1592.1323,1072.7656" style="stroke:#181818;stroke-width:1.0;"/><line style="stroke:#181818;stroke-width:1.0;" x1="1257.0723" x2="1594.1323" y1="1072.7656" y2="1072.7656"/><text fill="#000000" font-family="sans-serif" font-size="13" lengthAdjust="spacing" textLength="147.3862" x="1264.0723" y="1067.9092">UPDATE material_details</text><polygon fill="#181818" points="1394.3579,1099.1172,1404.3579,1103.1172,1394.3579,1107.1172,1398.3579,1103.1172" style="stroke:#181818;stroke-width:1.0;"/><line style="stroke:#181818;stroke-width:1.0;" x1="500.4424" x2="1400.3579" y1="1103.1172" y2="1103.1172"/><text fill="#000000" font-family="sans-serif" font-size="13" lengthAdjust="spacing" textLength="244.0674" x="507.4424" y="1098.2607">InventoryLog::create(['action'=&gt;'hitung',...])</text><polygon fill="#181818" points="1588.1323,1129.4688,1598.1323,1133.4688,1588.1323,1137.4688,1592.1323,1133.4688" style="stroke:#181818;stroke-width:1.0;"/><line style="stroke:#181818;stroke-width:1.0;" x1="1406.3579" x2="1594.1323" y1="1133.4688" y2="1133.4688"/><text fill="#000000" font-family="sans-serif" font-size="13" lengthAdjust="spacing" textLength="169.7744" x="1413.3579" y="1128.6123">INSERT INTO inventory_logs</text><polygon fill="#181818" points="935.5264,1166.8203,945.5264,1170.8203,935.5264,1174.8203,939.5264,1170.8203" style="stroke:#181818;stroke-width:1.0;"/><line style="stroke:#181818;stroke-width:1.0;" x1="500.4424" x2="941.5264" y1="1170.8203" y2="1170.8203"/><text fill="#000000" font-family="sans-serif" font-size="13" lengthAdjust="spacing" textLength="305.7729" x="507.4424" y="1165.9639">$hitung-&gt;update(['status'=&gt;'Selesai','is_finish'=&gt;true])</text><polygon fill="#181818" points="1588.1323,1197.1719,1598.1323,1201.1719,1588.1323,1205.1719,1592.1323,1201.1719" style="stroke:#181818;stroke-width:1.0;"/><line style="stroke:#181818;stroke-width:1.0;" x1="947.5264" x2="1594.1323" y1="1201.1719" y2="1201.1719"/><text fill="#000000" font-family="sans-serif" font-size="13" lengthAdjust="spacing" textLength="98.2617" x="954.5264" y="1196.3154">UPDATE hitungs</text><polygon fill="#181818" points="275.7163,1227.5234,265.7163,1231.5234,275.7163,1235.5234,271.7163,1231.5234" style="stroke:#181818;stroke-width:1.0;"/><line style="stroke:#181818;stroke-width:1.0;stroke-dasharray:2.0,2.0;" x1="269.7163" x2="499.4424" y1="1231.5234" y2="1231.5234"/><text fill="#000000" font-family="sans-serif" font-size="13" lengthAdjust="spacing" textLength="96.8081" x="281.7163" y="1226.667">Notifikasi sukses</text><!--SRC=[ZLLjRzf03FwUNs4X9422Jliq2ObAXI2LjPIfq4dJEY6Jk73AvPBbxlhox-Va4Xf2aFQ9dC_ssO-VnnXX9C7JRFJrsnZkI2OIOMsI889LgZ0cpyF091bqfhWNg62XNacnGNG0DJnfohmKCoC2aQ8oqBb5YJ7xrNCygxuKh_GcClfo4CQg_Q28_YdehH5Tt3u_BrH8xnnsNuOv_raIfudYvzk2O9c490i_PoZERPu-6HIovkyCBVvBD9G9b6SHV74ng4Beupwf5yKdvnoYmHrgWevVVhaYffwNmmcZwmAOCImftja8eSJCowtvxH66CSI9LQO_y8wc_DwVZc4zlv_FDk0YDQmU_VaZJ7-LXYtNGE3FrpFFdyBeDAUFBmOpqCK04qU2MlvZUO_4GyeWBDr9YyhRcqnWQIMA4nR0PD9ey4wAgCMnhT4W8owvsMbjqEFoC1wNhhzxPQ_AnZlAUfFhgwkh8VIqGMCr7tj-ngNts6Ivggq8sTRDFnVXdu5NIrrXkdXOpnyt_BDPLS1w5v6FI-fiTsY20sdulbeyV5h3WZsw1VurnHQXY0ACZ7ZnP9AaR3O2KsVt04wV_QHY1OCpdODHTEc0EDRIPYlUgT_yjKnkOJwsz9vIO9oTSOBwwvUHEZRCfBd0ff1r7XY820xb3ic42lATKwFLWbbsYvh5U1CPY_ASLBd7iLZUNRcJhi0xe6fZbqrpGRX6-brNwY8SGjV5D_Lr6UuNeS9-LuI3qRNBoSWtYibPvhuOlHRiddxuDvjv4xOso3OOfo9lJWej3X2AbB8TPbOKIAr9aaOHDNRn1HLUy6u3YtiK-j3_Vr3U3fHHlyR08LE74TfJlhfQ83XPNaS8wZ8GXc88IUsvtgf_HNlCvT8Gn-cgplMbhMjKspIL7zjgFXnuwjkOo9bs6mzL2tuCzN-0cWHvwY9H-UPndHKu51AgGjlq8wfaMvdip_JJs85Tbxd6lizrLuwuD-m9lNL3PBF9BBMlknCYjZFm8M706KkMdBOH_mLu_m00]--></g></svg>