<svg xmlns="http://www.w3.org/2000/svg" xmlns:xlink="http://www.w3.org/1999/xlink" contentStyleType="text/css" height="977px" preserveAspectRatio="none" style="width:1223px;height:977px;background:#FFFFFF;" version="1.1" viewBox="0 0 1223 977" width="1223px" zoomAndPan="magnify"><title>UC-15: Akses dan Ekspor Laporan</title><defs/><g><text fill="#000000" font-family="sans-serif" font-size="14" font-weight="bold" lengthAdjust="spacing" textLength="229.5098" x="492.7703" y="29.5332">UC-15: Akses dan Ekspor Laporan</text><line style="stroke:#181818;stroke-width:0.5;stroke-dasharray:5.0,5.0;" x1="39" x2="39" y1="121.2188" y2="895.6563"/><line style="stroke:#181818;stroke-width:0.5;stroke-dasharray:5.0,5.0;" x1="246.8403" x2="246.8403" y1="121.2188" y2="895.6563"/><line style="stroke:#181818;stroke-width:0.5;stroke-dasharray:5.0,5.0;" x1="482.418" x2="482.418" y1="121.2188" y2="895.6563"/><line style="stroke:#181818;stroke-width:0.5;stroke-dasharray:5.0,5.0;" x1="591.9346" x2="591.9346" y1="121.2188" y2="895.6563"/><line style="stroke:#181818;stroke-width:0.5;stroke-dasharray:5.0,5.0;" x1="850.3521" x2="850.3521" y1="121.2188" y2="895.6563"/><line style="stroke:#181818;stroke-width:0.5;stroke-dasharray:5.0,5.0;" x1="1177.1196" x2="1177.1196" y1="121.2188" y2="895.6563"/><text fill="#000000" font-family="sans-serif" font-size="14" lengthAdjust="spacing" textLength="63.8408" x="5" y="118.1426">Pengguna</text><ellipse cx="39.9204" cy="52.1094" fill="#E2E2F0" rx="8" ry="8" style="stroke:#181818;stroke-width:0.5;"/><path d="M39.9204,60.1094 L39.9204,87.1094 M26.9204,68.1094 L52.9204,68.1094 M39.9204,87.1094 L26.9204,102.1094 M39.9204,87.1094 L52.9204,102.1094 " fill="none" style="stroke:#181818;stroke-width:0.5;"/><text fill="#000000" font-family="sans-serif" font-size="14" lengthAdjust="spacing" textLength="63.8408" x="5" y="909.1895">Pengguna</text><ellipse cx="39.9204" cy="920.7656" fill="#E2E2F0" rx="8" ry="8" style="stroke:#181818;stroke-width:0.5;"/><path d="M39.9204,928.7656 L39.9204,955.7656 M26.9204,936.7656 L52.9204,936.7656 M39.9204,955.7656 L26.9204,970.7656 M39.9204,955.7656 L52.9204,970.7656 " fill="none" style="stroke:#181818;stroke-width:0.5;"/><rect fill="#E2E2F0" height="49.2188" rx="2.5" ry="2.5" style="stroke:#181818;stroke-width:0.5;" width="125.2959" x="184.8403" y="71"/><text fill="#000000" font-family="sans-serif" font-size="14" lengthAdjust="spacing" textLength="111.2959" x="191.8403" y="92.5332">Halaman Laporan</text><text fill="#000000" font-family="sans-serif" font-size="14" lengthAdjust="spacing" textLength="106.5928" x="194.1919" y="110.1426">(livewire/laporan)</text><rect fill="#E2E2F0" height="49.2188" rx="2.5" ry="2.5" style="stroke:#181818;stroke-width:0.5;" width="125.2959" x="184.8403" y="894.6563"/><text fill="#000000" font-family="sans-serif" font-size="14" lengthAdjust="spacing" textLength="111.2959" x="191.8403" y="916.1895">Halaman Laporan</text><text fill="#000000" font-family="sans-serif" font-size="14" lengthAdjust="spacing" textLength="106.5928" x="194.1919" y="933.7988">(livewire/laporan)</text><rect fill="#E2E2F0" height="49.2188" rx="2.5" ry="2.5" style="stroke:#181818;stroke-width:0.5;" width="103.5166" x="431.418" y="71"/><text fill="#000000" font-family="sans-serif" font-size="14" lengthAdjust="spacing" textLength="89.5166" x="438.418" y="92.5332">Laporan\Index</text><text fill="#000000" font-family="sans-serif" font-size="14" lengthAdjust="spacing" textLength="60.6758" x="452.8384" y="110.1426">(Livewire)</text><rect fill="#E2E2F0" height="49.2188" rx="2.5" ry="2.5" style="stroke:#181818;stroke-width:0.5;" width="103.5166" x="431.418" y="894.6563"/><text fill="#000000" font-family="sans-serif" font-size="14" lengthAdjust="spacing" textLength="89.5166" x="438.418" y="916.1895">Laporan\Index</text><text fill="#000000" font-family="sans-serif" font-size="14" lengthAdjust="spacing" textLength="60.6758" x="452.8384" y="933.7988">(Livewire)</text><rect fill="#E2E2F0" height="31.6094" rx="2.5" ry="2.5" style="stroke:#181818;stroke-width:0.5;" width="95.7031" x="544.9346" y="88.6094"/><text fill="#000000" font-family="sans-serif" font-size="14" lengthAdjust="spacing" textLength="81.7031" x="551.9346" y="110.1426">PdfController</text><rect fill="#E2E2F0" height="31.6094" rx="2.5" ry="2.5" style="stroke:#181818;stroke-width:0.5;" width="95.7031" x="544.9346" y="894.6563"/><text fill="#000000" font-family="sans-serif" font-size="14" lengthAdjust="spacing" textLength="81.7031" x="551.9346" y="916.1895">PdfController</text><rect fill="#E2E2F0" height="49.2188" rx="2.5" ry="2.5" style="stroke:#181818;stroke-width:0.5;" width="101.917" x="800.3521" y="71"/><text fill="#000000" font-family="sans-serif" font-size="14" lengthAdjust="spacing" textLength="68.4756" x="817.0728" y="92.5332">XXXExport</text><text fill="#000000" font-family="sans-serif" font-size="14" lengthAdjust="spacing" textLength="87.917" x="807.3521" y="110.1426">(Maatwebsite)</text><rect fill="#E2E2F0" height="49.2188" rx="2.5" ry="2.5" style="stroke:#181818;stroke-width:0.5;" width="101.917" x="800.3521" y="894.6563"/><text fill="#000000" font-family="sans-serif" font-size="14" lengthAdjust="spacing" textLength="68.4756" x="817.0728" y="916.1895">XXXExport</text><text fill="#000000" font-family="sans-serif" font-size="14" lengthAdjust="spacing" textLength="87.917" x="807.3521" y="933.7988">(Maatwebsite)</text><text fill="#000000" font-family="sans-serif" font-size="14" lengthAdjust="spacing" textLength="59.9307" x="1145.1196" y="118.1426">Database</text><path d="M1160.085,67.6094 C1160.085,57.6094 1178.085,57.6094 1178.085,57.6094 C1178.085,57.6094 1196.085,57.6094 1196.085,67.6094 L1196.085,93.6094 C1196.085,103.6094 1178.085,103.6094 1178.085,103.6094 C1178.085,103.6094 1160.085,103.6094 1160.085,93.6094 L1160.085,67.6094 " fill="#E2E2F0" style="stroke:#181818;stroke-width:1.5;"/><path d="M1160.085,67.6094 C1160.085,77.6094 1178.085,77.6094 1178.085,77.6094 C1178.085,77.6094 1196.085,77.6094 1196.085,67.6094 " fill="none" style="stroke:#181818;stroke-width:1.5;"/><text fill="#000000" font-family="sans-serif" font-size="14" lengthAdjust="spacing" textLength="59.9307" x="1145.1196" y="909.1895">Database</text><path d="M1160.085,922.2656 C1160.085,912.2656 1178.085,912.2656 1178.085,912.2656 C1178.085,912.2656 1196.085,912.2656 1196.085,922.2656 L1196.085,948.2656 C1196.085,958.2656 1178.085,958.2656 1178.085,958.2656 C1178.085,958.2656 1160.085,958.2656 1160.085,948.2656 L1160.085,922.2656 " fill="#E2E2F0" style="stroke:#181818;stroke-width:1.5;"/><path d="M1160.085,922.2656 C1160.085,932.2656 1178.085,932.2656 1178.085,932.2656 C1178.085,932.2656 1196.085,932.2656 1196.085,922.2656 " fill="none" style="stroke:#181818;stroke-width:1.5;"/><polygon fill="#181818" points="235.4883,149.5703,245.4883,153.5703,235.4883,157.5703,239.4883,153.5703" style="stroke:#181818;stroke-width:1.0;"/><line style="stroke:#181818;stroke-width:1.0;" x1="39.9204" x2="241.4883" y1="153.5703" y2="153.5703"/><text fill="#000000" font-family="sans-serif" font-size="13" lengthAdjust="spacing" textLength="107.6689" x="46.9204" y="148.7139">Membuka /laporan</text><polygon fill="#181818" points="471.1763,179.9219,481.1763,183.9219,471.1763,187.9219,475.1763,183.9219" style="stroke:#181818;stroke-width:1.0;"/><line style="stroke:#181818;stroke-width:1.0;" x1="247.4883" x2="477.1763" y1="183.9219" y2="183.9219"/><text fill="#000000" font-family="sans-serif" font-size="13" lengthAdjust="spacing" textLength="44.7891" x="254.4883" y="179.0654">mount()</text><polygon fill="#181818" points="258.4883,210.2734,248.4883,214.2734,258.4883,218.2734,254.4883,214.2734" style="stroke:#181818;stroke-width:1.0;"/><line style="stroke:#181818;stroke-width:1.0;stroke-dasharray:2.0,2.0;" x1="252.4883" x2="482.1763" y1="214.2734" y2="214.2734"/><text fill="#000000" font-family="sans-serif" font-size="13" lengthAdjust="spacing" textLength="147.3989" x="264.4883" y="209.417">Render form filter laporan</text><polygon fill="#181818" points="235.4883,256.9766,245.4883,260.9766,235.4883,264.9766,239.4883,260.9766" style="stroke:#181818;stroke-width:1.0;"/><line style="stroke:#181818;stroke-width:1.0;" x1="39.9204" x2="241.4883" y1="260.9766" y2="260.9766"/><text fill="#000000" font-family="sans-serif" font-size="13" lengthAdjust="spacing" textLength="105.5044" x="46.9204" y="239.7686">Pilih jenis laporan,</text><text fill="#000000" font-family="sans-serif" font-size="13" lengthAdjust="spacing" textLength="183.5679" x="46.9204" y="256.1201">rentang tanggal, filter tambahan</text><polygon fill="#181818" points="471.1763,287.3281,481.1763,291.3281,471.1763,295.3281,475.1763,291.3281" style="stroke:#181818;stroke-width:1.0;"/><line style="stroke:#181818;stroke-width:1.0;" x1="247.4883" x2="477.1763" y1="291.3281" y2="291.3281"/><text fill="#000000" font-family="sans-serif" font-size="13" lengthAdjust="spacing" textLength="211.688" x="254.4883" y="286.4717">applyFilter($type, $from, $to, $filters)</text><polygon fill="#181818" points="1166.085,334.0313,1176.085,338.0313,1166.085,342.0313,1170.085,338.0313" style="stroke:#181818;stroke-width:1.0;"/><line style="stroke:#181818;stroke-width:1.0;" x1="483.1763" x2="1172.085" y1="338.0313" y2="338.0313"/><text fill="#000000" font-family="sans-serif" font-size="13" lengthAdjust="spacing" textLength="356.2178" x="490.1763" y="316.8232">SELECT ... FROM transactions/expenses/productions/hitungs</text><text fill="#000000" font-family="sans-serif" font-size="13" lengthAdjust="spacing" textLength="197.939" x="490.1763" y="333.1748">WHERE date BETWEEN ? AND ?</text><polygon fill="#181818" points="494.1763,364.3828,484.1763,368.3828,494.1763,372.3828,490.1763,368.3828" style="stroke:#181818;stroke-width:1.0;"/><line style="stroke:#181818;stroke-width:1.0;stroke-dasharray:2.0,2.0;" x1="488.1763" x2="1177.085" y1="368.3828" y2="368.3828"/><text fill="#000000" font-family="sans-serif" font-size="13" lengthAdjust="spacing" textLength="74.439" x="500.1763" y="363.5264">Data laporan</text><polygon fill="#181818" points="258.4883,394.7344,248.4883,398.7344,258.4883,402.7344,254.4883,398.7344" style="stroke:#181818;stroke-width:1.0;"/><line style="stroke:#181818;stroke-width:1.0;stroke-dasharray:2.0,2.0;" x1="252.4883" x2="482.1763" y1="398.7344" y2="398.7344"/><text fill="#000000" font-family="sans-serif" font-size="13" lengthAdjust="spacing" textLength="193.6797" x="264.4883" y="393.8779">Render tabel &amp; ringkasan laporan</text><rect fill="#EEEEEE" height="3" style="stroke:#EEEEEE;stroke-width:1.0;" width="1216.0503" x="0" y="427.9102"/><line style="stroke:#000000;stroke-width:1.0;" x1="0" x2="1216.0503" y1="427.9102" y2="427.9102"/><line style="stroke:#000000;stroke-width:1.0;" x1="0" x2="1216.0503" y1="430.9102" y2="430.9102"/><rect fill="#EEEEEE" height="24.3516" style="stroke:#000000;stroke-width:2.0;" width="91.2954" x="562.3774" y="416.7344"/><text fill="#000000" font-family="sans-serif" font-size="13" font-weight="bold" lengthAdjust="spacing" textLength="73.6836" x="568.3774" y="434.2295">Ekspor PDF</text><polygon fill="#181818" points="235.4883,469.4375,245.4883,473.4375,235.4883,477.4375,239.4883,473.4375" style="stroke:#181818;stroke-width:1.0;"/><line style="stroke:#181818;stroke-width:1.0;" x1="39.9204" x2="241.4883" y1="473.4375" y2="473.4375"/><text fill="#000000" font-family="sans-serif" font-size="13" lengthAdjust="spacing" textLength="94.6309" x="46.9204" y="468.5811">Klik Ekspor PDF</text><polygon fill="#181818" points="580.7861,499.7891,590.7861,503.7891,580.7861,507.7891,584.7861,503.7891" style="stroke:#181818;stroke-width:1.0;"/><line style="stroke:#181818;stroke-width:1.0;" x1="247.4883" x2="586.7861" y1="503.7891" y2="503.7891"/><text fill="#000000" font-family="sans-serif" font-size="13" lengthAdjust="spacing" textLength="280.7251" x="254.4883" y="498.9326">GET /laporan/export-pdf?type=...&amp;from=...&amp;to=...</text><polygon fill="#181818" points="1166.085,530.1406,1176.085,534.1406,1166.085,538.1406,1170.085,534.1406" style="stroke:#181818;stroke-width:1.0;"/><line style="stroke:#181818;stroke-width:1.0;" x1="592.7861" x2="1172.085" y1="534.1406" y2="534.1406"/><text fill="#000000" font-family="sans-serif" font-size="13" lengthAdjust="spacing" textLength="111.2935" x="599.7861" y="529.2842">Query data laporan</text><polygon fill="#181818" points="603.7861,560.4922,593.7861,564.4922,603.7861,568.4922,599.7861,564.4922" style="stroke:#181818;stroke-width:1.0;"/><line style="stroke:#181818;stroke-width:1.0;stroke-dasharray:2.0,2.0;" x1="597.7861" x2="1177.085" y1="564.4922" y2="564.4922"/><text fill="#000000" font-family="sans-serif" font-size="13" lengthAdjust="spacing" textLength="27.46" x="609.7861" y="559.6357">Data</text><line style="stroke:#181818;stroke-width:1.0;" x1="592.7861" x2="634.7861" y1="594.8438" y2="594.8438"/><line style="stroke:#181818;stroke-width:1.0;" x1="634.7861" x2="634.7861" y1="594.8438" y2="607.8438"/><line style="stroke:#181818;stroke-width:1.0;" x1="593.7861" x2="634.7861" y1="607.8438" y2="607.8438"/><polygon fill="#181818" points="603.7861,603.8438,593.7861,607.8438,603.7861,611.8438,599.7861,607.8438" style="stroke:#181818;stroke-width:1.0;"/><text fill="#000000" font-family="sans-serif" font-size="13" lengthAdjust="spacing" textLength="244.5244" x="599.7861" y="589.9873">$pdf = PDF::loadView('laporan.pdf', $data)</text><polygon fill="#181818" points="50.9204,634.1953,40.9204,638.1953,50.9204,642.1953,46.9204,638.1953" style="stroke:#181818;stroke-width:1.0;"/><line style="stroke:#181818;stroke-width:1.0;stroke-dasharray:2.0,2.0;" x1="44.9204" x2="591.7861" y1="638.1953" y2="638.1953"/><text fill="#000000" font-family="sans-serif" font-size="13" lengthAdjust="spacing" textLength="209.1235" x="56.9204" y="633.3389">return $pdf-&gt;download('laporan.pdf')</text><rect fill="#EEEEEE" height="3" style="stroke:#EEEEEE;stroke-width:1.0;" width="1216.0503" x="0" y="667.3711"/><line style="stroke:#000000;stroke-width:1.0;" x1="0" x2="1216.0503" y1="667.3711" y2="667.3711"/><line style="stroke:#000000;stroke-width:1.0;" x1="0" x2="1216.0503" y1="670.3711" y2="670.3711"/><rect fill="#EEEEEE" height="24.3516" style="stroke:#000000;stroke-width:2.0;" width="99.2681" x="558.3911" y="656.1953"/><text fill="#000000" font-family="sans-serif" font-size="13" font-weight="bold" lengthAdjust="spacing" textLength="81.6563" x="564.3911" y="673.6904">Ekspor Excel</text><polygon fill="#181818" points="235.4883,708.8984,245.4883,712.8984,235.4883,716.8984,239.4883,712.8984" style="stroke:#181818;stroke-width:1.0;"/><line style="stroke:#181818;stroke-width:1.0;" x1="39.9204" x2="241.4883" y1="712.8984" y2="712.8984"/><text fill="#000000" font-family="sans-serif" font-size="13" lengthAdjust="spacing" textLength="100.4199" x="46.9204" y="708.042">Klik Ekspor Excel</text><polygon fill="#181818" points="839.3105,739.25,849.3105,743.25,839.3105,747.25,843.3105,743.25" style="stroke:#181818;stroke-width:1.0;"/><line style="stroke:#181818;stroke-width:1.0;" x1="247.4883" x2="845.3105" y1="743.25" y2="743.25"/><text fill="#000000" font-family="sans-serif" font-size="13" lengthAdjust="spacing" textLength="151.7344" x="254.4883" y="738.3936">GET /laporan/export-excel</text><polygon fill="#181818" points="1166.085,769.6016,1176.085,773.6016,1166.085,777.6016,1170.085,773.6016" style="stroke:#181818;stroke-width:1.0;"/><line style="stroke:#181818;stroke-width:1.0;" x1="851.3105" x2="1172.085" y1="773.6016" y2="773.6016"/><text fill="#000000" font-family="sans-serif" font-size="13" lengthAdjust="spacing" textLength="133.6753" x="858.3105" y="768.7451">Query data sesuai filter</text><polygon fill="#181818" points="862.3105,799.9531,852.3105,803.9531,862.3105,807.9531,858.3105,803.9531" style="stroke:#181818;stroke-width:1.0;"/><line style="stroke:#181818;stroke-width:1.0;stroke-dasharray:2.0,2.0;" x1="856.3105" x2="1177.085" y1="803.9531" y2="803.9531"/><text fill="#000000" font-family="sans-serif" font-size="13" lengthAdjust="spacing" textLength="27.46" x="868.3105" y="799.0967">Data</text><line style="stroke:#181818;stroke-width:1.0;" x1="851.3105" x2="893.3105" y1="834.3047" y2="834.3047"/><line style="stroke:#181818;stroke-width:1.0;" x1="893.3105" x2="893.3105" y1="834.3047" y2="847.3047"/><line style="stroke:#181818;stroke-width:1.0;" x1="852.3105" x2="893.3105" y1="847.3047" y2="847.3047"/><polygon fill="#181818" points="862.3105,843.3047,852.3105,847.3047,862.3105,851.3047,858.3105,847.3047" style="stroke:#181818;stroke-width:1.0;"/><text fill="#000000" font-family="sans-serif" font-size="13" lengthAdjust="spacing" textLength="312.7744" x="858.3105" y="829.4482">Excel::download(new XxxExport($data), 'laporan.xlsx')</text><polygon fill="#181818" points="50.9204,873.6563,40.9204,877.6563,50.9204,881.6563,46.9204,877.6563" style="stroke:#181818;stroke-width:1.0;"/><line style="stroke:#181818;stroke-width:1.0;stroke-dasharray:2.0,2.0;" x1="44.9204" x2="850.3105" y1="877.6563" y2="877.6563"/><text fill="#000000" font-family="sans-serif" font-size="13" lengthAdjust="spacing" textLength="113.4453" x="56.9204" y="872.7998">Download file Excel</text><!--SRC=[VLDDR-8m4BtdLumGQa7YGtlOIoIAMaYtgssxBDjkEN0npG1U73kodINzzpisYPjKg9V4yRptFEzvOhaL2C-puPUlCLmV31f8cOJaO7AbuPxHayaeOg-MFZiBbBjT8La7c85dWphAcRRybUTCMkZSCS4oObUqjUm9_W-FNEDOdBRwdlc7ux7Dh1dhxpB5aeZt5V54cAaiLnAbRRCMwNQcfDLA2DGUw7Qi5ctOQhLAIjAtfFl0c3tYnd1RIIVbAufJEKgPPHjc43hpQkKXyvieScPXUELRZ-41iqrnO53RYjosAuT6OyXK8Msl7uKj60R-4iccXgtI6MoviBIkbJwSjE22x-4lIcvgo60jDSankGFts34ng4KiopPiVxuVbkVYxTRZUbtxbkC0kbkjCdfPvTQ-P5eDNv7t67udzydi2KQZ4TmkVpw0fIOCJGHNqeonp57Is8nphTAYsjnpMyYTMSkNksIPq4HPX9lawIL97c4Aruzpc4Rp6nz8eqCNUiZXazZeQb301MWkTmTcQE12U9D9FRgB-IrC9X_I_27ueG48CLLZ4yEtv2bSghD6Kp7Cq-tKvJMX02vSOdvXbNj55REEwbU1-itvVJTI-Gn7E9TDMYXqwI2OkBxYM2YMkkPwbvNCY8gNT4jEklzE9xvp68D6MsZfDOPNgJfAfz1czvln-B7_F20F2H4r_fFpCQ67Ds1dCg4vAHYlfhLEfgNiq_aWqWBuZpWE5YMrjohBKxbtocS0mNWfJ4dEMueXj7abuXh2okz_]--></g></svg>