<svg xmlns="http://www.w3.org/2000/svg" xmlns:xlink="http://www.w3.org/1999/xlink" contentStyleType="text/css" height="1273px" preserveAspectRatio="none" style="width:1209px;height:1273px;background:#FFFFFF;" version="1.1" viewBox="0 0 1209 1273" width="1209px" zoomAndPan="magnify"><title>UC-11: Kelola Pengguna dan Undangan</title><defs/><g><text fill="#000000" font-family="sans-serif" font-size="14" font-weight="bold" lengthAdjust="spacing" textLength="263.6895" x="468.7014" y="29.5332">UC-11: Kelola Pengguna dan Undangan</text><rect fill="none" height="398.8906" style="stroke:#000000;stroke-width:1.5;" width="1182.0923" x="10" y="579.4922"/><rect fill="none" height="277" style="stroke:#000000;stroke-width:1.5;" width="1162.0923" x="20" y="694.3828"/><line style="stroke:#181818;stroke-width:0.5;stroke-dasharray:5.0,5.0;" x1="52" x2="52" y1="121.2188" y2="1191.4922"/><line style="stroke:#181818;stroke-width:0.5;stroke-dasharray:5.0,5.0;" x1="212.75" x2="212.75" y1="121.2188" y2="1191.4922"/><line style="stroke:#181818;stroke-width:0.5;stroke-dasharray:5.0,5.0;" x1="398.46" x2="398.46" y1="121.2188" y2="1191.4922"/><line style="stroke:#181818;stroke-width:0.5;stroke-dasharray:5.0,5.0;" x1="834.1895" x2="834.1895" y1="121.2188" y2="1191.4922"/><line style="stroke:#181818;stroke-width:0.5;stroke-dasharray:5.0,5.0;" x1="929.7686" x2="929.7686" y1="121.2188" y2="1191.4922"/><line style="stroke:#181818;stroke-width:0.5;stroke-dasharray:5.0,5.0;" x1="1021.582" x2="1021.582" y1="121.2188" y2="1191.4922"/><line style="stroke:#181818;stroke-width:0.5;stroke-dasharray:5.0,5.0;" x1="1138.1616" x2="1138.1616" y1="121.2188" y2="1191.4922"/><text fill="#000000" font-family="sans-serif" font-size="14" lengthAdjust="spacing" textLength="39.6826" x="30" y="118.1426">Admin</text><ellipse cx="52.8413" cy="52.1094" fill="#E2E2F0" rx="8" ry="8" style="stroke:#181818;stroke-width:0.5;"/><path d="M52.8413,60.1094 L52.8413,87.1094 M39.8413,68.1094 L65.8413,68.1094 M52.8413,87.1094 L39.8413,102.1094 M52.8413,87.1094 L65.8413,102.1094 " fill="none" style="stroke:#181818;stroke-width:0.5;"/><text fill="#000000" font-family="sans-serif" font-size="14" lengthAdjust="spacing" textLength="39.6826" x="30" y="1205.0254">Admin</text><ellipse cx="52.8413" cy="1216.6016" fill="#E2E2F0" rx="8" ry="8" style="stroke:#181818;stroke-width:0.5;"/><path d="M52.8413,1224.6016 L52.8413,1251.6016 M39.8413,1232.6016 L65.8413,1232.6016 M52.8413,1251.6016 L39.8413,1266.6016 M52.8413,1251.6016 L65.8413,1266.6016 " fill="none" style="stroke:#181818;stroke-width:0.5;"/><rect fill="#E2E2F0" height="49.2188" rx="2.5" ry="2.5" style="stroke:#181818;stroke-width:0.5;" width="121.3857" x="152.75" y="71"/><text fill="#000000" font-family="sans-serif" font-size="14" lengthAdjust="spacing" textLength="107.3857" x="159.75" y="92.5332">Halaman Pekerja</text><text fill="#000000" font-family="sans-serif" font-size="14" lengthAdjust="spacing" textLength="105.8066" x="160.5396" y="110.1426">(livewire/pekerja)</text><rect fill="#E2E2F0" height="49.2188" rx="2.5" ry="2.5" style="stroke:#181818;stroke-width:0.5;" width="121.3857" x="152.75" y="1190.4922"/><text fill="#000000" font-family="sans-serif" font-size="14" lengthAdjust="spacing" textLength="107.3857" x="159.75" y="1212.0254">Halaman Pekerja</text><text fill="#000000" font-family="sans-serif" font-size="14" lengthAdjust="spacing" textLength="105.8066" x="160.5396" y="1229.6348">(livewire/pekerja)</text><rect fill="#E2E2F0" height="49.2188" rx="2.5" ry="2.5" style="stroke:#181818;stroke-width:0.5;" width="81.6963" x="358.46" y="71"/><text fill="#000000" font-family="sans-serif" font-size="14" lengthAdjust="spacing" textLength="67.6963" x="365.46" y="92.5332">User\Index</text><text fill="#000000" font-family="sans-serif" font-size="14" lengthAdjust="spacing" textLength="60.6758" x="368.9702" y="110.1426">(Livewire)</text><rect fill="#E2E2F0" height="49.2188" rx="2.5" ry="2.5" style="stroke:#181818;stroke-width:0.5;" width="81.6963" x="358.46" y="1190.4922"/><text fill="#000000" font-family="sans-serif" font-size="14" lengthAdjust="spacing" textLength="67.6963" x="365.46" y="1212.0254">User\Index</text><text fill="#000000" font-family="sans-serif" font-size="14" lengthAdjust="spacing" textLength="60.6758" x="368.9702" y="1229.6348">(Livewire)</text><rect fill="#E2E2F0" height="31.6094" rx="2.5" ry="2.5" style="stroke:#181818;stroke-width:0.5;" width="85.5791" x="792.1895" y="88.6094"/><text fill="#000000" font-family="sans-serif" font-size="14" lengthAdjust="spacing" textLength="71.5791" x="799.1895" y="110.1426">User Model</text><rect fill="#E2E2F0" height="31.6094" rx="2.5" ry="2.5" style="stroke:#181818;stroke-width:0.5;" width="85.5791" x="792.1895" y="1190.4922"/><text fill="#000000" font-family="sans-serif" font-size="14" lengthAdjust="spacing" textLength="71.5791" x="799.1895" y="1212.0254">User Model</text><rect fill="#E2E2F0" height="49.2188" rx="2.5" ry="2.5" style="stroke:#181818;stroke-width:0.5;" width="84.8135" x="887.7686" y="71"/><text fill="#000000" font-family="sans-serif" font-size="14" lengthAdjust="spacing" textLength="70.8135" x="894.7686" y="92.5332">Role Model</text><text fill="#000000" font-family="sans-serif" font-size="14" lengthAdjust="spacing" textLength="49.0205" x="905.665" y="110.1426">(Spatie)</text><rect fill="#E2E2F0" height="49.2188" rx="2.5" ry="2.5" style="stroke:#181818;stroke-width:0.5;" width="84.8135" x="887.7686" y="1190.4922"/><text fill="#000000" font-family="sans-serif" font-size="14" lengthAdjust="spacing" textLength="70.8135" x="894.7686" y="1212.0254">Role Model</text><text fill="#000000" font-family="sans-serif" font-size="14" lengthAdjust="spacing" textLength="49.0205" x="905.665" y="1229.6348">(Spatie)</text><rect fill="#E2E2F0" height="49.2188" rx="2.5" ry="2.5" style="stroke:#181818;stroke-width:0.5;" width="79.3584" x="982.582" y="71"/><text fill="#000000" font-family="sans-serif" font-size="14" lengthAdjust="spacing" textLength="25.6689" x="1009.4268" y="92.5332">Mail</text><text fill="#000000" font-family="sans-serif" font-size="14" lengthAdjust="spacing" textLength="65.3584" x="989.582" y="110.1426">(Invitation)</text><rect fill="#E2E2F0" height="49.2188" rx="2.5" ry="2.5" style="stroke:#181818;stroke-width:0.5;" width="79.3584" x="982.582" y="1190.4922"/><text fill="#000000" font-family="sans-serif" font-size="14" lengthAdjust="spacing" textLength="25.6689" x="1009.4268" y="1212.0254">Mail</text><text fill="#000000" font-family="sans-serif" font-size="14" lengthAdjust="spacing" textLength="65.3584" x="989.582" y="1229.6348">(Invitation)</text><text fill="#000000" font-family="sans-serif" font-size="14" lengthAdjust="spacing" textLength="59.9307" x="1106.1616" y="118.1426">Database</text><path d="M1121.127,67.6094 C1121.127,57.6094 1139.127,57.6094 1139.127,57.6094 C1139.127,57.6094 1157.127,57.6094 1157.127,67.6094 L1157.127,93.6094 C1157.127,103.6094 1139.127,103.6094 1139.127,103.6094 C1139.127,103.6094 1121.127,103.6094 1121.127,93.6094 L1121.127,67.6094 " fill="#E2E2F0" style="stroke:#181818;stroke-width:1.5;"/><path d="M1121.127,67.6094 C1121.127,77.6094 1139.127,77.6094 1139.127,77.6094 C1139.127,77.6094 1157.127,77.6094 1157.127,67.6094 " fill="none" style="stroke:#181818;stroke-width:1.5;"/><text fill="#000000" font-family="sans-serif" font-size="14" lengthAdjust="spacing" textLength="59.9307" x="1106.1616" y="1205.0254">Database</text><path d="M1121.127,1218.1016 C1121.127,1208.1016 1139.127,1208.1016 1139.127,1208.1016 C1139.127,1208.1016 1157.127,1208.1016 1157.127,1218.1016 L1157.127,1244.1016 C1157.127,1254.1016 1139.127,1254.1016 1139.127,1254.1016 C1139.127,1254.1016 1121.127,1254.1016 1121.127,1244.1016 L1121.127,1218.1016 " fill="#E2E2F0" style="stroke:#181818;stroke-width:1.5;"/><path d="M1121.127,1218.1016 C1121.127,1228.1016 1139.127,1228.1016 1139.127,1228.1016 C1139.127,1228.1016 1157.127,1228.1016 1157.127,1218.1016 " fill="none" style="stroke:#181818;stroke-width:1.5;"/><polygon fill="#181818" points="201.4429,149.5703,211.4429,153.5703,201.4429,157.5703,205.4429,153.5703" style="stroke:#181818;stroke-width:1.0;"/><line style="stroke:#181818;stroke-width:1.0;" x1="52.8413" x2="207.4429" y1="153.5703" y2="153.5703"/><text fill="#000000" font-family="sans-serif" font-size="13" lengthAdjust="spacing" textLength="106.939" x="59.8413" y="148.7139">Membuka /pekerja</text><polygon fill="#181818" points="387.3081,179.9219,397.3081,183.9219,387.3081,187.9219,391.3081,183.9219" style="stroke:#181818;stroke-width:1.0;"/><line style="stroke:#181818;stroke-width:1.0;" x1="213.4429" x2="393.3081" y1="183.9219" y2="183.9219"/><text fill="#000000" font-family="sans-serif" font-size="13" lengthAdjust="spacing" textLength="44.7891" x="220.4429" y="179.0654">mount()</text><polygon fill="#181818" points="1127.127,210.2734,1137.127,214.2734,1127.127,218.2734,1131.127,214.2734" style="stroke:#181818;stroke-width:1.0;"/><line style="stroke:#181818;stroke-width:1.0;" x1="399.3081" x2="1133.127" y1="214.2734" y2="214.2734"/><text fill="#000000" font-family="sans-serif" font-size="13" lengthAdjust="spacing" textLength="154.5845" x="406.3081" y="209.417">SELECT users WITH roles</text><polygon fill="#181818" points="410.3081,240.625,400.3081,244.625,410.3081,248.625,406.3081,244.625" style="stroke:#181818;stroke-width:1.0;"/><line style="stroke:#181818;stroke-width:1.0;stroke-dasharray:2.0,2.0;" x1="404.3081" x2="1138.127" y1="244.625" y2="244.625"/><text fill="#000000" font-family="sans-serif" font-size="13" lengthAdjust="spacing" textLength="96.8525" x="416.3081" y="239.7686">Daftar pengguna</text><polygon fill="#181818" points="224.4429,270.9766,214.4429,274.9766,224.4429,278.9766,220.4429,274.9766" style="stroke:#181818;stroke-width:1.0;"/><line style="stroke:#181818;stroke-width:1.0;stroke-dasharray:2.0,2.0;" x1="218.4429" x2="398.3081" y1="274.9766" y2="274.9766"/><text fill="#000000" font-family="sans-serif" font-size="13" lengthAdjust="spacing" textLength="140.9434" x="230.4429" y="270.1201">Render daftar pengguna</text><rect fill="#EEEEEE" height="3" style="stroke:#EEEEEE;stroke-width:1.0;" width="1202.0923" x="0" y="304.1523"/><line style="stroke:#000000;stroke-width:1.0;" x1="0" x2="1202.0923" y1="304.1523" y2="304.1523"/><line style="stroke:#000000;stroke-width:1.0;" x1="0" x2="1202.0923" y1="307.1523" y2="307.1523"/><rect fill="#EEEEEE" height="24.3516" style="stroke:#000000;stroke-width:2.0;" width="118.0063" x="542.043" y="292.9766"/><text fill="#000000" font-family="sans-serif" font-size="13" font-weight="bold" lengthAdjust="spacing" textLength="100.3945" x="548.043" y="310.4717">Kirim Undangan</text><polygon fill="#181818" points="201.4429,362.0313,211.4429,366.0313,201.4429,370.0313,205.4429,366.0313" style="stroke:#181818;stroke-width:1.0;"/><line style="stroke:#181818;stroke-width:1.0;" x1="52.8413" x2="207.4429" y1="366.0313" y2="366.0313"/><text fill="#000000" font-family="sans-serif" font-size="13" lengthAdjust="spacing" textLength="136.6016" x="59.8413" y="344.8232">Klik Undang Pengguna,</text><text fill="#000000" font-family="sans-serif" font-size="13" lengthAdjust="spacing" textLength="101.1055" x="59.8413" y="361.1748">isi form, klik Kirim</text><polygon fill="#181818" points="387.3081,392.3828,397.3081,396.3828,387.3081,400.3828,391.3081,396.3828" style="stroke:#181818;stroke-width:1.0;"/><line style="stroke:#181818;stroke-width:1.0;" x1="213.4429" x2="393.3081" y1="396.3828" y2="396.3828"/><text fill="#000000" font-family="sans-serif" font-size="13" lengthAdjust="spacing" textLength="156.0635" x="220.4429" y="391.5264">invite(name, email, role_id)</text><polygon fill="#181818" points="918.1753,422.7344,928.1753,426.7344,918.1753,430.7344,922.1753,426.7344" style="stroke:#181818;stroke-width:1.0;"/><line style="stroke:#181818;stroke-width:1.0;" x1="399.3081" x2="924.1753" y1="426.7344" y2="426.7344"/><text fill="#000000" font-family="sans-serif" font-size="13" lengthAdjust="spacing" textLength="145.2217" x="406.3081" y="421.8779">Role::findOrFail($role_id)</text><polygon fill="#181818" points="1127.127,453.0859,1137.127,457.0859,1127.127,461.0859,1131.127,457.0859" style="stroke:#181818;stroke-width:1.0;"/><line style="stroke:#181818;stroke-width:1.0;" x1="930.1753" x2="1133.127" y1="457.0859" y2="457.0859"/><text fill="#000000" font-family="sans-serif" font-size="13" lengthAdjust="spacing" textLength="170.1362" x="937.1753" y="452.2295">SELECT roles WHERE id = ?</text><polygon fill="#181818" points="941.1753,483.4375,931.1753,487.4375,941.1753,491.4375,937.1753,487.4375" style="stroke:#181818;stroke-width:1.0;"/><line style="stroke:#181818;stroke-width:1.0;stroke-dasharray:2.0,2.0;" x1="935.1753" x2="1138.127" y1="487.4375" y2="487.4375"/><text fill="#000000" font-family="sans-serif" font-size="13" lengthAdjust="spacing" textLength="26.7363" x="947.1753" y="482.5811">Role</text><polygon fill="#181818" points="1127.127,530.1406,1137.127,534.1406,1127.127,538.1406,1131.127,534.1406" style="stroke:#181818;stroke-width:1.0;"/><line style="stroke:#181818;stroke-width:1.0;" x1="399.3081" x2="1133.127" y1="534.1406" y2="534.1406"/><text fill="#000000" font-family="sans-serif" font-size="13" lengthAdjust="spacing" textLength="258.6162" x="406.3081" y="512.9326">SELECT COUNT(*) FROM model_has_roles</text><text fill="#000000" font-family="sans-serif" font-size="13" lengthAdjust="spacing" textLength="113.0708" x="406.3081" y="529.2842">WHERE role_id = ?</text><polygon fill="#181818" points="410.3081,560.4922,400.3081,564.4922,410.3081,568.4922,406.3081,564.4922" style="stroke:#181818;stroke-width:1.0;"/><line style="stroke:#181818;stroke-width:1.0;stroke-dasharray:2.0,2.0;" x1="404.3081" x2="1138.127" y1="564.4922" y2="564.4922"/><text fill="#000000" font-family="sans-serif" font-size="13" lengthAdjust="spacing" textLength="148.1606" x="416.3081" y="559.6357">Jumlah pengguna saat ini</text><path d="M10,579.4922 L70.1709,579.4922 L70.1709,587.8438 L60.1709,597.8438 L10,597.8438 L10,579.4922 " fill="#EEEEEE" style="stroke:#000000;stroke-width:1.5;"/><rect fill="none" height="398.8906" style="stroke:#000000;stroke-width:1.5;" width="1182.0923" x="10" y="579.4922"/><text fill="#000000" font-family="sans-serif" font-size="13" font-weight="bold" lengthAdjust="spacing" textLength="15.1709" x="25" y="593.9873">alt</text><text fill="#000000" font-family="sans-serif" font-size="11" font-weight="bold" lengthAdjust="spacing" textLength="190.6846" x="85.1709" y="592.9111">[Batas pengguna pada peran penuh]</text><polygon fill="#181818" points="224.4429,616.1953,214.4429,620.1953,224.4429,624.1953,220.4429,620.1953" style="stroke:#181818;stroke-width:1.0;"/><line style="stroke:#181818;stroke-width:1.0;stroke-dasharray:2.0,2.0;" x1="218.4429" x2="398.3081" y1="620.1953" y2="620.1953"/><text fill="#000000" font-family="sans-serif" font-size="13" lengthAdjust="spacing" textLength="161.8652" x="230.4429" y="615.3389">Pesan error batas kapasitas</text><line style="stroke:#000000;stroke-width:1.0;stroke-dasharray:2.0,2.0;" x1="10" x2="1192.0923" y1="629.1953" y2="629.1953"/><text fill="#000000" font-family="sans-serif" font-size="11" font-weight="bold" lengthAdjust="spacing" textLength="83.7461" x="15" y="640.6143">[Masih tersedia]</text><line style="stroke:#181818;stroke-width:1.0;" x1="399.3081" x2="441.3081" y1="666.3828" y2="666.3828"/><line style="stroke:#181818;stroke-width:1.0;" x1="441.3081" x2="441.3081" y1="666.3828" y2="679.3828"/><line style="stroke:#181818;stroke-width:1.0;" x1="400.3081" x2="441.3081" y1="679.3828" y2="679.3828"/><polygon fill="#181818" points="410.3081,675.3828,400.3081,679.3828,410.3081,683.3828,406.3081,679.3828" style="stroke:#181818;stroke-width:1.0;"/><text fill="#000000" font-family="sans-serif" font-size="13" lengthAdjust="spacing" textLength="186.3418" x="406.3081" y="661.5264">validate([email=&gt;'unique:users'])</text><path d="M20,694.3828 L80.1709,694.3828 L80.1709,702.7344 L70.1709,712.7344 L20,712.7344 L20,694.3828 " fill="#EEEEEE" style="stroke:#000000;stroke-width:1.5;"/><rect fill="none" height="277" style="stroke:#000000;stroke-width:1.5;" width="1162.0923" x="20" y="694.3828"/><text fill="#000000" font-family="sans-serif" font-size="13" font-weight="bold" lengthAdjust="spacing" textLength="15.1709" x="35" y="708.8779">alt</text><text fill="#000000" font-family="sans-serif" font-size="11" font-weight="bold" lengthAdjust="spacing" textLength="119.8022" x="95.1709" y="707.8018">[Email sudah terdaftar]</text><polygon fill="#181818" points="224.4429,731.0859,214.4429,735.0859,224.4429,739.0859,220.4429,735.0859" style="stroke:#181818;stroke-width:1.0;"/><line style="stroke:#181818;stroke-width:1.0;stroke-dasharray:2.0,2.0;" x1="218.4429" x2="398.3081" y1="735.0859" y2="735.0859"/><text fill="#000000" font-family="sans-serif" font-size="13" lengthAdjust="spacing" textLength="151.0171" x="230.4429" y="730.2295">Pesan error email duplikat</text><line style="stroke:#000000;stroke-width:1.0;stroke-dasharray:2.0,2.0;" x1="20" x2="1182.0923" y1="744.0859" y2="744.0859"/><text fill="#000000" font-family="sans-serif" font-size="11" font-weight="bold" lengthAdjust="spacing" textLength="50.7354" x="25" y="755.5049">[Berhasil]</text><polygon fill="#181818" points="822.979,777.2734,832.979,781.2734,822.979,785.2734,826.979,781.2734" style="stroke:#181818;stroke-width:1.0;"/><line style="stroke:#181818;stroke-width:1.0;" x1="399.3081" x2="828.979" y1="781.2734" y2="781.2734"/><text fill="#000000" font-family="sans-serif" font-size="13" lengthAdjust="spacing" textLength="411.6709" x="406.3081" y="776.417">User::create([..., 'invitation_token'=&gt;Str::random(60), 'is_active'=&gt;false])</text><polygon fill="#181818" points="1127.127,807.625,1137.127,811.625,1127.127,815.625,1131.127,811.625" style="stroke:#181818;stroke-width:1.0;"/><line style="stroke:#181818;stroke-width:1.0;" x1="834.979" x2="1133.127" y1="811.625" y2="811.625"/><text fill="#000000" font-family="sans-serif" font-size="13" lengthAdjust="spacing" textLength="117.7363" x="841.979" y="806.7686">INSERT INTO users</text><polygon fill="#181818" points="918.1753,837.9766,928.1753,841.9766,918.1753,845.9766,922.1753,841.9766" style="stroke:#181818;stroke-width:1.0;"/><line style="stroke:#181818;stroke-width:1.0;" x1="399.3081" x2="924.1753" y1="841.9766" y2="841.9766"/><text fill="#000000" font-family="sans-serif" font-size="13" lengthAdjust="spacing" textLength="163.668" x="406.3081" y="837.1201">$user-&gt;assignRole($role_id)</text><polygon fill="#181818" points="1127.127,868.3281,1137.127,872.3281,1127.127,876.3281,1131.127,872.3281" style="stroke:#181818;stroke-width:1.0;"/><line style="stroke:#181818;stroke-width:1.0;" x1="930.1753" x2="1133.127" y1="872.3281" y2="872.3281"/><text fill="#000000" font-family="sans-serif" font-size="13" lengthAdjust="spacing" textLength="184.9517" x="937.1753" y="867.4717">INSERT INTO model_has_roles</text><polygon fill="#181818" points="1010.2612,898.6797,1020.2612,902.6797,1010.2612,906.6797,1014.2612,902.6797" style="stroke:#181818;stroke-width:1.0;"/><line style="stroke:#181818;stroke-width:1.0;" x1="399.3081" x2="1016.2612" y1="902.6797" y2="902.6797"/><text fill="#000000" font-family="sans-serif" font-size="13" lengthAdjust="spacing" textLength="288.6406" x="406.3081" y="897.8232">Mail::to($email)-&gt;send(new InvitationMail($token))</text><polygon fill="#181818" points="63.8413,929.0313,53.8413,933.0313,63.8413,937.0313,59.8413,933.0313" style="stroke:#181818;stroke-width:1.0;"/><line style="stroke:#181818;stroke-width:1.0;stroke-dasharray:2.0,2.0;" x1="57.8413" x2="1021.2612" y1="933.0313" y2="933.0313"/><text fill="#000000" font-family="sans-serif" font-size="13" lengthAdjust="spacing" textLength="140.1753" x="69.8413" y="928.1748">Email undangan terkirim</text><polygon fill="#181818" points="224.4429,959.3828,214.4429,963.3828,224.4429,967.3828,220.4429,963.3828" style="stroke:#181818;stroke-width:1.0;"/><line style="stroke:#181818;stroke-width:1.0;stroke-dasharray:2.0,2.0;" x1="218.4429" x2="398.3081" y1="963.3828" y2="963.3828"/><text fill="#000000" font-family="sans-serif" font-size="13" lengthAdjust="spacing" textLength="96.8081" x="230.4429" y="958.5264">Notifikasi sukses</text><rect fill="#EEEEEE" height="3" style="stroke:#EEEEEE;stroke-width:1.0;" width="1202.0923" x="0" y="1006.5586"/><line style="stroke:#000000;stroke-width:1.0;" x1="0" x2="1202.0923" y1="1006.5586" y2="1006.5586"/><line style="stroke:#000000;stroke-width:1.0;" x1="0" x2="1202.0923" y1="1009.5586" y2="1009.5586"/><rect fill="#EEEEEE" height="24.3516" style="stroke:#000000;stroke-width:2.0;" width="158.46" x="521.8162" y="995.3828"/><text fill="#000000" font-family="sans-serif" font-size="13" font-weight="bold" lengthAdjust="spacing" textLength="140.8481" x="527.8162" y="1012.8779">Nonaktifkan Pengguna</text><polygon fill="#181818" points="201.4429,1048.0859,211.4429,1052.0859,201.4429,1056.0859,205.4429,1052.0859" style="stroke:#181818;stroke-width:1.0;"/><line style="stroke:#181818;stroke-width:1.0;" x1="52.8413" x2="207.4429" y1="1052.0859" y2="1052.0859"/><text fill="#000000" font-family="sans-serif" font-size="13" lengthAdjust="spacing" textLength="136.5762" x="59.8413" y="1047.2295">Klik toggle aktif/nonaktif</text><polygon fill="#181818" points="387.3081,1078.4375,397.3081,1082.4375,387.3081,1086.4375,391.3081,1082.4375" style="stroke:#181818;stroke-width:1.0;"/><line style="stroke:#181818;stroke-width:1.0;" x1="213.4429" x2="393.3081" y1="1082.4375" y2="1082.4375"/><text fill="#000000" font-family="sans-serif" font-size="13" lengthAdjust="spacing" textLength="122.8398" x="220.4429" y="1077.5811">toggleActive($userId)</text><polygon fill="#181818" points="822.979,1108.7891,832.979,1112.7891,822.979,1116.7891,826.979,1112.7891" style="stroke:#181818;stroke-width:1.0;"/><line style="stroke:#181818;stroke-width:1.0;" x1="399.3081" x2="828.979" y1="1112.7891" y2="1112.7891"/><text fill="#000000" font-family="sans-serif" font-size="13" lengthAdjust="spacing" textLength="306.6172" x="406.3081" y="1107.9326">User::findOrFail($id)-&gt;update(['is_active'=&gt;!$current])</text><polygon fill="#181818" points="1127.127,1139.1406,1137.127,1143.1406,1127.127,1147.1406,1131.127,1143.1406" style="stroke:#181818;stroke-width:1.0;"/><line style="stroke:#181818;stroke-width:1.0;" x1="834.979" x2="1133.127" y1="1143.1406" y2="1143.1406"/><text fill="#000000" font-family="sans-serif" font-size="13" lengthAdjust="spacing" textLength="193.2607" x="841.979" y="1138.2842">UPDATE users SET is_active = ?</text><polygon fill="#181818" points="224.4429,1169.4922,214.4429,1173.4922,224.4429,1177.4922,220.4429,1173.4922" style="stroke:#181818;stroke-width:1.0;"/><line style="stroke:#181818;stroke-width:1.0;stroke-dasharray:2.0,2.0;" x1="218.4429" x2="398.3081" y1="1173.4922" y2="1173.4922"/><text fill="#000000" font-family="sans-serif" font-size="13" lengthAdjust="spacing" textLength="96.8081" x="230.4429" y="1168.6357">Notifikasi sukses</text><!--SRC=[ZLHDJzj04BtxLqmH4awLG7lfmL9I4M942abGFigXgQ8XteIjxRMxkmxz-PqT6-CaeFP0i7VVFC-yUJDMsaJ0ughp-NC0joB94eHxeRRRGY54g62Xw7UBolDmRJCD9vTHAjK9e05-ydBKLgvbZih2oGqcc5BKlOY5_eLBvITo9vwb5XTvUTJYqEzIFEz7BepGo-LGHU8FHTrLKINwAalpJ0bbZqDWb4KYOPHxvRTzr3IZ0lcSU6SvMbcnkeity2EK3ZbKEsa9dAaIxOvdGk_aMdWHMdn48-1aK3qnPD3tFDO4EZskC82HI1-B6E6bUiyTk-kwf03Ih53MRtdraRiVz0EOXNVXrHmAgil0mt1-0vfIDjwW3vrzYW5kB6h8gyOrgUfKfeAqrTJJVQZNxSAjr3AjEmtTxc4PjucCg_lQ7UsbaaR29jDf6s87O9gtAfHEI-4hJ4KRH4fAjhcKbOmEogvx4l1Z46oaYYRwcaByqpgaHXqenVB0mqqu3K56q8MlBreTyBwhzTLaCPxx7rjmFPsCg3CKiNf2isBcfIgfgpoQ_8rYlnLfWa-rm60GBIaWFKmizCalvlKknuX-X2RHwQnuyW3UQjszC8GGMjFyFJ93Z3aQygVnH48-7D7B4rZoYOWaxhFi9RV3H99xXV-3sz3jdHLA_Yv4m2Ox-zcYM9Tdw6x1514oRMaQkljtVimBKP6J8z1I22VO5vfabCaXHUzrQWD-38Ar5fpW-Vbv6yvaFOOhcyL2dNLxCqieaYpAKl_BfvO3cHKj9rePTBj1-XxN0Q_SBrqUZcVXT4x_vfDoh8xpQJZbr44wFJH6RfKxRrZGnHtPi4b_u9tZ3pKMIi0lGM0p_vJrQtLwXiRLLpHAhujen5F0ChJA31eSt0uUsw3gNl4opzJ0c4VplVwDCoitr2uQPrF4XhEbptlkp-s7SQOm9aZCcxtoxZjRmcRRBIrSnb-eAl2jfL02BxblFaizFDm6HzveRWFgGgTNvAMRzopmuNHTQ4qSP8CZ2opk1vVpi5ggit0ETIJFy__9ynS0]--></g></svg>