<svg xmlns="http://www.w3.org/2000/svg" xmlns:xlink="http://www.w3.org/1999/xlink" contentStyleType="text/css" height="693px" preserveAspectRatio="none" style="width:1282px;height:693px;background:#FFFFFF;" version="1.1" viewBox="0 0 1282 693" width="1282px" zoomAndPan="magnify"><title>UC-13: Kelola Metode Pembayaran</title><defs/><g><text fill="#000000" font-family="sans-serif" font-size="14" font-weight="bold" lengthAdjust="spacing" textLength="231.0684" x="521.6084" y="29.5332">UC-13: Kelola Metode Pembayaran</text><rect fill="none" height="155.5938" style="stroke:#000000;stroke-width:1.5;" width="982.4844" x="282.8008" y="438.3828"/><line style="stroke:#181818;stroke-width:0.5;stroke-dasharray:5.0,5.0;" x1="27" x2="27" y1="121.2188" y2="610.9766"/><line style="stroke:#181818;stroke-width:0.5;stroke-dasharray:5.0,5.0;" x1="393.8008" x2="393.8008" y1="121.2188" y2="610.9766"/><line style="stroke:#181818;stroke-width:0.5;stroke-dasharray:5.0,5.0;" x1="620.3931" x2="620.3931" y1="121.2188" y2="610.9766"/><line style="stroke:#181818;stroke-width:0.5;stroke-dasharray:5.0,5.0;" x1="1002.5337" x2="1002.5337" y1="121.2188" y2="610.9766"/><line style="stroke:#181818;stroke-width:0.5;stroke-dasharray:5.0,5.0;" x1="1221.3545" x2="1221.3545" y1="121.2188" y2="610.9766"/><text fill="#000000" font-family="sans-serif" font-size="14" lengthAdjust="spacing" textLength="39.6826" x="5" y="118.1426">Admin</text><ellipse cx="27.8413" cy="52.1094" fill="#E2E2F0" rx="8" ry="8" style="stroke:#181818;stroke-width:0.5;"/><path d="M27.8413,60.1094 L27.8413,87.1094 M14.8413,68.1094 L40.8413,68.1094 M27.8413,87.1094 L14.8413,102.1094 M27.8413,87.1094 L40.8413,102.1094 " fill="none" style="stroke:#181818;stroke-width:0.5;"/><text fill="#000000" font-family="sans-serif" font-size="14" lengthAdjust="spacing" textLength="39.6826" x="5" y="624.5098">Admin</text><ellipse cx="27.8413" cy="636.0859" fill="#E2E2F0" rx="8" ry="8" style="stroke:#181818;stroke-width:0.5;"/><path d="M27.8413,644.0859 L27.8413,671.0859 M14.8413,652.0859 L40.8413,652.0859 M27.8413,671.0859 L14.8413,686.0859 M27.8413,671.0859 L40.8413,686.0859 " fill="none" style="stroke:#181818;stroke-width:0.5;"/><rect fill="#E2E2F0" height="49.2188" rx="2.5" ry="2.5" style="stroke:#181818;stroke-width:0.5;" width="203.8818" x="292.8008" y="71"/><text fill="#000000" font-family="sans-serif" font-size="14" lengthAdjust="spacing" textLength="189.8818" x="299.8008" y="92.5332">Halaman Metode Pembayaran</text><text fill="#000000" font-family="sans-serif" font-size="14" lengthAdjust="spacing" textLength="133.041" x="328.2212" y="110.1426">(livewire/profil-usaha)</text><rect fill="#E2E2F0" height="49.2188" rx="2.5" ry="2.5" style="stroke:#181818;stroke-width:0.5;" width="203.8818" x="292.8008" y="609.9766"/><text fill="#000000" font-family="sans-serif" font-size="14" lengthAdjust="spacing" textLength="189.8818" x="299.8008" y="631.5098">Halaman Metode Pembayaran</text><text fill="#000000" font-family="sans-serif" font-size="14" lengthAdjust="spacing" textLength="133.041" x="328.2212" y="649.1191">(livewire/profil-usaha)</text><rect fill="#E2E2F0" height="49.2188" rx="2.5" ry="2.5" style="stroke:#181818;stroke-width:0.5;" width="107.3857" x="567.3931" y="71"/><text fill="#000000" font-family="sans-serif" font-size="14" lengthAdjust="spacing" textLength="93.3857" x="574.3931" y="92.5332">Payment\Index</text><text fill="#000000" font-family="sans-serif" font-size="14" lengthAdjust="spacing" textLength="60.6758" x="590.748" y="110.1426">(Livewire)</text><rect fill="#E2E2F0" height="49.2188" rx="2.5" ry="2.5" style="stroke:#181818;stroke-width:0.5;" width="107.3857" x="567.3931" y="609.9766"/><text fill="#000000" font-family="sans-serif" font-size="14" lengthAdjust="spacing" textLength="93.3857" x="574.3931" y="631.5098">Payment\Index</text><text fill="#000000" font-family="sans-serif" font-size="14" lengthAdjust="spacing" textLength="60.6758" x="590.748" y="649.1191">(Livewire)</text><rect fill="#E2E2F0" height="31.6094" rx="2.5" ry="2.5" style="stroke:#181818;stroke-width:0.5;" width="163.4199" x="921.5337" y="88.6094"/><text fill="#000000" font-family="sans-serif" font-size="14" lengthAdjust="spacing" textLength="149.4199" x="928.5337" y="110.1426">PaymentChannel Model</text><rect fill="#E2E2F0" height="31.6094" rx="2.5" ry="2.5" style="stroke:#181818;stroke-width:0.5;" width="163.4199" x="921.5337" y="609.9766"/><text fill="#000000" font-family="sans-serif" font-size="14" lengthAdjust="spacing" textLength="149.4199" x="928.5337" y="631.5098">PaymentChannel Model</text><text fill="#000000" font-family="sans-serif" font-size="14" lengthAdjust="spacing" textLength="59.9307" x="1189.3545" y="118.1426">Database</text><path d="M1204.3198,67.6094 C1204.3198,57.6094 1222.3198,57.6094 1222.3198,57.6094 C1222.3198,57.6094 1240.3198,57.6094 1240.3198,67.6094 L1240.3198,93.6094 C1240.3198,103.6094 1222.3198,103.6094 1222.3198,103.6094 C1222.3198,103.6094 1204.3198,103.6094 1204.3198,93.6094 L1204.3198,67.6094 " fill="#E2E2F0" style="stroke:#181818;stroke-width:1.5;"/><path d="M1204.3198,67.6094 C1204.3198,77.6094 1222.3198,77.6094 1222.3198,77.6094 C1222.3198,77.6094 1240.3198,77.6094 1240.3198,67.6094 " fill="none" style="stroke:#181818;stroke-width:1.5;"/><text fill="#000000" font-family="sans-serif" font-size="14" lengthAdjust="spacing" textLength="59.9307" x="1189.3545" y="624.5098">Database</text><path d="M1204.3198,637.5859 C1204.3198,627.5859 1222.3198,627.5859 1222.3198,627.5859 C1222.3198,627.5859 1240.3198,627.5859 1240.3198,637.5859 L1240.3198,663.5859 C1240.3198,673.5859 1222.3198,673.5859 1222.3198,673.5859 C1222.3198,673.5859 1204.3198,673.5859 1204.3198,663.5859 L1204.3198,637.5859 " fill="#E2E2F0" style="stroke:#181818;stroke-width:1.5;"/><path d="M1204.3198,637.5859 C1204.3198,647.5859 1222.3198,647.5859 1222.3198,647.5859 C1222.3198,647.5859 1240.3198,647.5859 1240.3198,637.5859 " fill="none" style="stroke:#181818;stroke-width:1.5;"/><polygon fill="#181818" points="382.7417,149.5703,392.7417,153.5703,382.7417,157.5703,386.7417,153.5703" style="stroke:#181818;stroke-width:1.0;"/><line style="stroke:#181818;stroke-width:1.0;" x1="27.8413" x2="388.7417" y1="153.5703" y2="153.5703"/><text fill="#000000" font-family="sans-serif" font-size="13" lengthAdjust="spacing" textLength="286.8633" x="34.8413" y="148.7139">Membuka /profil-usaha (tab Metode Pembayaran)</text><polygon fill="#181818" points="609.0859,179.9219,619.0859,183.9219,609.0859,187.9219,613.0859,183.9219" style="stroke:#181818;stroke-width:1.0;"/><line style="stroke:#181818;stroke-width:1.0;" x1="394.7417" x2="615.0859" y1="183.9219" y2="183.9219"/><text fill="#000000" font-family="sans-serif" font-size="13" lengthAdjust="spacing" textLength="44.7891" x="401.7417" y="179.0654">mount()</text><polygon fill="#181818" points="1210.3198,210.2734,1220.3198,214.2734,1210.3198,218.2734,1214.3198,214.2734" style="stroke:#181818;stroke-width:1.0;"/><line style="stroke:#181818;stroke-width:1.0;" x1="621.0859" x2="1216.3198" y1="214.2734" y2="214.2734"/><text fill="#000000" font-family="sans-serif" font-size="13" lengthAdjust="spacing" textLength="163.3125" x="628.0859" y="209.417">SELECT payment_channels</text><polygon fill="#181818" points="632.0859,240.625,622.0859,244.625,632.0859,248.625,628.0859,244.625" style="stroke:#181818;stroke-width:1.0;"/><line style="stroke:#181818;stroke-width:1.0;stroke-dasharray:2.0,2.0;" x1="626.0859" x2="1221.3198" y1="244.625" y2="244.625"/><text fill="#000000" font-family="sans-serif" font-size="13" lengthAdjust="spacing" textLength="150.3125" x="638.0859" y="239.7686">Data metode pembayaran</text><polygon fill="#181818" points="405.7417,270.9766,395.7417,274.9766,405.7417,278.9766,401.7417,274.9766" style="stroke:#181818;stroke-width:1.0;"/><line style="stroke:#181818;stroke-width:1.0;stroke-dasharray:2.0,2.0;" x1="399.7417" x2="620.0859" y1="274.9766" y2="274.9766"/><text fill="#000000" font-family="sans-serif" font-size="13" lengthAdjust="spacing" textLength="202.3442" x="411.7417" y="270.1201">Render daftar metode pembayaran</text><rect fill="#EEEEEE" height="3" style="stroke:#EEEEEE;stroke-width:1.0;" width="1275.2852" x="0" y="304.1523"/><line style="stroke:#000000;stroke-width:1.0;" x1="0" x2="1275.2852" y1="304.1523" y2="304.1523"/><line style="stroke:#000000;stroke-width:1.0;" x1="0" x2="1275.2852" y1="307.1523" y2="307.1523"/><rect fill="#EEEEEE" height="24.3516" style="stroke:#000000;stroke-width:2.0;" width="197.498" x="538.8936" y="292.9766"/><text fill="#000000" font-family="sans-serif" font-size="13" font-weight="bold" lengthAdjust="spacing" textLength="179.8862" x="544.8936" y="310.4717">Tambah Metode Pembayaran</text><polygon fill="#181818" points="382.7417,345.6797,392.7417,349.6797,382.7417,353.6797,386.7417,349.6797" style="stroke:#181818;stroke-width:1.0;"/><line style="stroke:#181818;stroke-width:1.0;" x1="27.8413" x2="388.7417" y1="349.6797" y2="349.6797"/><text fill="#000000" font-family="sans-serif" font-size="13" lengthAdjust="spacing" textLength="342.9004" x="34.8413" y="344.8232">Buka Metode Pembayaran &#8594; Tambah &#8594; isi form &#8594; Simpan</text><polygon fill="#181818" points="609.0859,376.0313,619.0859,380.0313,609.0859,384.0313,613.0859,380.0313" style="stroke:#181818;stroke-width:1.0;"/><line style="stroke:#181818;stroke-width:1.0;" x1="394.7417" x2="615.0859" y1="380.0313" y2="380.0313"/><text fill="#000000" font-family="sans-serif" font-size="13" lengthAdjust="spacing" textLength="135.8462" x="401.7417" y="375.1748">savePaymentChannel()</text><line style="stroke:#181818;stroke-width:1.0;" x1="621.0859" x2="663.0859" y1="410.3828" y2="410.3828"/><line style="stroke:#181818;stroke-width:1.0;" x1="663.0859" x2="663.0859" y1="410.3828" y2="423.3828"/><line style="stroke:#181818;stroke-width:1.0;" x1="622.0859" x2="663.0859" y1="423.3828" y2="423.3828"/><polygon fill="#181818" points="632.0859,419.3828,622.0859,423.3828,632.0859,427.3828,628.0859,423.3828" style="stroke:#181818;stroke-width:1.0;"/><text fill="#000000" font-family="sans-serif" font-size="13" lengthAdjust="spacing" textLength="368.1577" x="628.0859" y="405.5264">validate(['type'=&gt;'required', 'qris_image'=&gt;'required_if:type,qris'])</text><path d="M282.8008,438.3828 L342.9717,438.3828 L342.9717,446.7344 L332.9717,456.7344 L282.8008,456.7344 L282.8008,438.3828 " fill="#EEEEEE" style="stroke:#000000;stroke-width:1.5;"/><rect fill="none" height="155.5938" style="stroke:#000000;stroke-width:1.5;" width="982.4844" x="282.8008" y="438.3828"/><text fill="#000000" font-family="sans-serif" font-size="13" font-weight="bold" lengthAdjust="spacing" textLength="15.1709" x="297.8008" y="452.8779">alt</text><text fill="#000000" font-family="sans-serif" font-size="11" font-weight="bold" lengthAdjust="spacing" textLength="80.6899" x="357.9717" y="451.8018">[Validasi gagal]</text><polygon fill="#181818" points="405.7417,475.0859,395.7417,479.0859,405.7417,483.0859,401.7417,479.0859" style="stroke:#181818;stroke-width:1.0;"/><line style="stroke:#181818;stroke-width:1.0;stroke-dasharray:2.0,2.0;" x1="399.7417" x2="620.0859" y1="479.0859" y2="479.0859"/><text fill="#000000" font-family="sans-serif" font-size="13" lengthAdjust="spacing" textLength="99.7407" x="411.7417" y="474.2295">Pesan kesalahan</text><line style="stroke:#000000;stroke-width:1.0;stroke-dasharray:2.0,2.0;" x1="282.8008" x2="1265.2852" y1="488.0859" y2="488.0859"/><text fill="#000000" font-family="sans-serif" font-size="11" font-weight="bold" lengthAdjust="spacing" textLength="50.7354" x="287.8008" y="499.5049">[Berhasil]</text><polygon fill="#181818" points="991.2437,521.2734,1001.2437,525.2734,991.2437,529.2734,995.2437,525.2734" style="stroke:#181818;stroke-width:1.0;"/><line style="stroke:#181818;stroke-width:1.0;" x1="621.0859" x2="997.2437" y1="525.2734" y2="525.2734"/><text fill="#000000" font-family="sans-serif" font-size="13" lengthAdjust="spacing" textLength="169.7998" x="628.0859" y="520.417">PaymentChannel::create([...])</text><polygon fill="#181818" points="1210.3198,551.625,1220.3198,555.625,1210.3198,559.625,1214.3198,555.625" style="stroke:#181818;stroke-width:1.0;"/><line style="stroke:#181818;stroke-width:1.0;" x1="1003.2437" x2="1216.3198" y1="555.625" y2="555.625"/><text fill="#000000" font-family="sans-serif" font-size="13" lengthAdjust="spacing" textLength="195.0762" x="1010.2437" y="550.7686">INSERT INTO payment_channels</text><polygon fill="#181818" points="405.7417,581.9766,395.7417,585.9766,405.7417,589.9766,401.7417,585.9766" style="stroke:#181818;stroke-width:1.0;"/><line style="stroke:#181818;stroke-width:1.0;stroke-dasharray:2.0,2.0;" x1="399.7417" x2="620.0859" y1="585.9766" y2="585.9766"/><text fill="#000000" font-family="sans-serif" font-size="13" lengthAdjust="spacing" textLength="96.8081" x="411.7417" y="581.1201">Notifikasi sukses</text><!--SRC=[VPB1Rjf048Rl-nGZBWOfK5MzMJ9I3KYDcgGeq5nAX0OyXXMxQsTtJSeBz07wY7sIZXVIo9XoiNTtvXlz_ynuwHN1zr7_uwSOlf8g5C8z-I8Zc99UuG4j6Y5mxGiBdS-PbgO3w22SH8dMoxKiqNZeV4656aqRNvYkadjwbPO-bBR8fUfN3hVO2vMU9Bqs2qtneCdunUBMPFIJwRiJVGHEuL6XoyBmuI8ysg8nfE2UfQY0dLx2WyZGumeTGMTyEeMSSIf4S0RzOH0MinkzgdO83UNGPQXjj2TgfcRFDSQWYyhuRa-SH-hiSHh3R78t6SsXF8QNwwDQ9yOfz2yMh8M3FaeetqVLhl_FoYDnForac7kq5r2H9317lcxRrY19pZkJrcrf9_xvzVkjIdsKJa9UM1qkCwbvIbUwv71FpGd-fsLjT8zAybYf-oFoXvAYP1XPUgbuRRBe1g8NAzrIQjmq8akPntNsJHsEddi2bOUdK8brRt23IW1SwUcK77lUyLVnNXZ18oD8oMwPlumE6viOGzDk7Ayj1HU3mO3rG2FxRLbk7sQJnpd_vj_Q6tDLxqFXPIvtjJjNxHmvmKiX_W80]--></g></svg>