<svg xmlns="http://www.w3.org/2000/svg" xmlns:xlink="http://www.w3.org/1999/xlink" contentStyleType="text/css" height="1289px" preserveAspectRatio="none" style="width:1319px;height:1289px;background:#FFFFFF;" version="1.1" viewBox="0 0 1319 1289" width="1319px" zoomAndPan="magnify"><title>UC-21: Kelola Profil Pribadi</title><defs/><g><text fill="#000000" font-family="sans-serif" font-size="14" font-weight="bold" lengthAdjust="spacing" textLength="182.0342" x="564.8489" y="29.5332">UC-21: Kelola Profil Pribadi</text><rect fill="none" height="155.5938" style="stroke:#000000;stroke-width:1.5;" width="1031.835" x="270.897" y="1034.3594"/><line style="stroke:#181818;stroke-width:0.5;stroke-dasharray:5.0,5.0;" x1="39" x2="39" y1="121.2188" y2="1206.9531"/><line style="stroke:#181818;stroke-width:0.5;stroke-dasharray:5.0,5.0;" x1="332.897" x2="332.897" y1="121.2188" y2="1206.9531"/><line style="stroke:#181818;stroke-width:0.5;stroke-dasharray:5.0,5.0;" x1="608.3433" x2="608.3433" y1="121.2188" y2="1206.9531"/><line style="stroke:#181818;stroke-width:0.5;stroke-dasharray:5.0,5.0;" x1="928.252" x2="928.252" y1="121.2188" y2="1206.9531"/><line style="stroke:#181818;stroke-width:0.5;stroke-dasharray:5.0,5.0;" x1="1258.8013" x2="1258.8013" y1="121.2188" y2="1206.9531"/><text fill="#000000" font-family="sans-serif" font-size="14" lengthAdjust="spacing" textLength="63.8408" x="5" y="118.1426">Pengguna</text><ellipse cx="39.9204" cy="52.1094" fill="#E2E2F0" rx="8" ry="8" style="stroke:#181818;stroke-width:0.5;"/><path d="M39.9204,60.1094 L39.9204,87.1094 M26.9204,68.1094 L52.9204,68.1094 M39.9204,87.1094 L26.9204,102.1094 M39.9204,87.1094 L52.9204,102.1094 " fill="none" style="stroke:#181818;stroke-width:0.5;"/><text fill="#000000" font-family="sans-serif" font-size="14" lengthAdjust="spacing" textLength="63.8408" x="5" y="1220.4863">Pengguna</text><ellipse cx="39.9204" cy="1232.0625" fill="#E2E2F0" rx="8" ry="8" style="stroke:#181818;stroke-width:0.5;"/><path d="M39.9204,1240.0625 L39.9204,1267.0625 M26.9204,1248.0625 L52.9204,1248.0625 M39.9204,1267.0625 L26.9204,1282.0625 M39.9204,1267.0625 L52.9204,1282.0625 " fill="none" style="stroke:#181818;stroke-width:0.5;"/><rect fill="#E2E2F0" height="49.2188" rx="2.5" ry="2.5" style="stroke:#181818;stroke-width:0.5;" width="105.8135" x="280.897" y="71"/><text fill="#000000" font-family="sans-serif" font-size="14" lengthAdjust="spacing" textLength="91.8135" x="287.897" y="92.5332">Halaman Profil</text><text fill="#000000" font-family="sans-serif" font-size="14" lengthAdjust="spacing" textLength="90.2344" x="288.6865" y="110.1426">(livewire/profil)</text><rect fill="#E2E2F0" height="49.2188" rx="2.5" ry="2.5" style="stroke:#181818;stroke-width:0.5;" width="105.8135" x="280.897" y="1205.9531"/><text fill="#000000" font-family="sans-serif" font-size="14" lengthAdjust="spacing" textLength="91.8135" x="287.897" y="1227.4863">Halaman Profil</text><text fill="#000000" font-family="sans-serif" font-size="14" lengthAdjust="spacing" textLength="90.2344" x="288.6865" y="1245.0957">(livewire/profil)</text><rect fill="#E2E2F0" height="49.2188" rx="2.5" ry="2.5" style="stroke:#181818;stroke-width:0.5;" width="91.8203" x="563.3433" y="71"/><text fill="#000000" font-family="sans-serif" font-size="14" lengthAdjust="spacing" textLength="77.8203" x="570.3433" y="92.5332">Profile\Index</text><text fill="#000000" font-family="sans-serif" font-size="14" lengthAdjust="spacing" textLength="60.6758" x="578.9155" y="110.1426">(Livewire)</text><rect fill="#E2E2F0" height="49.2188" rx="2.5" ry="2.5" style="stroke:#181818;stroke-width:0.5;" width="91.8203" x="563.3433" y="1205.9531"/><text fill="#000000" font-family="sans-serif" font-size="14" lengthAdjust="spacing" textLength="77.8203" x="570.3433" y="1227.4863">Profile\Index</text><text fill="#000000" font-family="sans-serif" font-size="14" lengthAdjust="spacing" textLength="60.6758" x="578.9155" y="1245.0957">(Livewire)</text><rect fill="#E2E2F0" height="31.6094" rx="2.5" ry="2.5" style="stroke:#181818;stroke-width:0.5;" width="85.5791" x="886.252" y="88.6094"/><text fill="#000000" font-family="sans-serif" font-size="14" lengthAdjust="spacing" textLength="71.5791" x="893.252" y="110.1426">User Model</text><rect fill="#E2E2F0" height="31.6094" rx="2.5" ry="2.5" style="stroke:#181818;stroke-width:0.5;" width="85.5791" x="886.252" y="1205.9531"/><text fill="#000000" font-family="sans-serif" font-size="14" lengthAdjust="spacing" textLength="71.5791" x="893.252" y="1227.4863">User Model</text><text fill="#000000" font-family="sans-serif" font-size="14" lengthAdjust="spacing" textLength="59.9307" x="1226.8013" y="118.1426">Database</text><path d="M1241.7666,67.6094 C1241.7666,57.6094 1259.7666,57.6094 1259.7666,57.6094 C1259.7666,57.6094 1277.7666,57.6094 1277.7666,67.6094 L1277.7666,93.6094 C1277.7666,103.6094 1259.7666,103.6094 1259.7666,103.6094 C1259.7666,103.6094 1241.7666,103.6094 1241.7666,93.6094 L1241.7666,67.6094 " fill="#E2E2F0" style="stroke:#181818;stroke-width:1.5;"/><path d="M1241.7666,67.6094 C1241.7666,77.6094 1259.7666,77.6094 1259.7666,77.6094 C1259.7666,77.6094 1277.7666,77.6094 1277.7666,67.6094 " fill="none" style="stroke:#181818;stroke-width:1.5;"/><text fill="#000000" font-family="sans-serif" font-size="14" lengthAdjust="spacing" textLength="59.9307" x="1226.8013" y="1220.4863">Database</text><path d="M1241.7666,1233.5625 C1241.7666,1223.5625 1259.7666,1223.5625 1259.7666,1223.5625 C1259.7666,1223.5625 1277.7666,1223.5625 1277.7666,1233.5625 L1277.7666,1259.5625 C1277.7666,1269.5625 1259.7666,1269.5625 1259.7666,1269.5625 C1259.7666,1269.5625 1241.7666,1269.5625 1241.7666,1259.5625 L1241.7666,1233.5625 " fill="#E2E2F0" style="stroke:#181818;stroke-width:1.5;"/><path d="M1241.7666,1233.5625 C1241.7666,1243.5625 1259.7666,1243.5625 1259.7666,1243.5625 C1259.7666,1243.5625 1277.7666,1243.5625 1277.7666,1233.5625 " fill="none" style="stroke:#181818;stroke-width:1.5;"/><polygon fill="#181818" points="321.8037,149.5703,331.8037,153.5703,321.8037,157.5703,325.8037,153.5703" style="stroke:#181818;stroke-width:1.0;"/><line style="stroke:#181818;stroke-width:1.0;" x1="39.9204" x2="327.8037" y1="153.5703" y2="153.5703"/><text fill="#000000" font-family="sans-serif" font-size="13" lengthAdjust="spacing" textLength="92.479" x="46.9204" y="148.7139">Membuka /profil</text><polygon fill="#181818" points="597.2534,179.9219,607.2534,183.9219,597.2534,187.9219,601.2534,183.9219" style="stroke:#181818;stroke-width:1.0;"/><line style="stroke:#181818;stroke-width:1.0;" x1="333.8037" x2="603.2534" y1="183.9219" y2="183.9219"/><text fill="#000000" font-family="sans-serif" font-size="13" lengthAdjust="spacing" textLength="44.7891" x="340.8037" y="179.0654">mount()</text><polygon fill="#181818" points="917.0415,210.2734,927.0415,214.2734,917.0415,218.2734,921.0415,214.2734" style="stroke:#181818;stroke-width:1.0;"/><line style="stroke:#181818;stroke-width:1.0;" x1="609.2534" x2="923.0415" y1="214.2734" y2="214.2734"/><text fill="#000000" font-family="sans-serif" font-size="13" lengthAdjust="spacing" textLength="79.8281" x="616.2534" y="209.417">auth()-&gt;user()</text><polygon fill="#181818" points="1247.7666,240.625,1257.7666,244.625,1247.7666,248.625,1251.7666,244.625" style="stroke:#181818;stroke-width:1.0;"/><line style="stroke:#181818;stroke-width:1.0;" x1="929.0415" x2="1253.7666" y1="244.625" y2="244.625"/><text fill="#000000" font-family="sans-serif" font-size="13" lengthAdjust="spacing" textLength="209.168" x="936.0415" y="239.7686">SELECT users WHERE id = auth_id</text><polygon fill="#181818" points="620.2534,270.9766,610.2534,274.9766,620.2534,278.9766,616.2534,274.9766" style="stroke:#181818;stroke-width:1.0;"/><line style="stroke:#181818;stroke-width:1.0;stroke-dasharray:2.0,2.0;" x1="614.2534" x2="1258.7666" y1="274.9766" y2="274.9766"/><text fill="#000000" font-family="sans-serif" font-size="13" lengthAdjust="spacing" textLength="88.9116" x="626.2534" y="270.1201">Data pengguna</text><polygon fill="#181818" points="344.8037,301.3281,334.8037,305.3281,344.8037,309.3281,340.8037,305.3281" style="stroke:#181818;stroke-width:1.0;"/><line style="stroke:#181818;stroke-width:1.0;stroke-dasharray:2.0,2.0;" x1="338.8037" x2="608.2534" y1="305.3281" y2="305.3281"/><text fill="#000000" font-family="sans-serif" font-size="13" lengthAdjust="spacing" textLength="104.0381" x="350.8037" y="300.4717">Render form profil</text><rect fill="#EEEEEE" height="3" style="stroke:#EEEEEE;stroke-width:1.0;" width="1312.7319" x="0" y="334.5039"/><line style="stroke:#000000;stroke-width:1.0;" x1="0" x2="1312.7319" y1="334.5039" y2="334.5039"/><line style="stroke:#000000;stroke-width:1.0;" x1="0" x2="1312.7319" y1="337.5039" y2="337.5039"/><rect fill="#EEEEEE" height="24.3516" style="stroke:#000000;stroke-width:2.0;" width="118.7363" x="596.9978" y="323.3281"/><text fill="#000000" font-family="sans-serif" font-size="13" font-weight="bold" lengthAdjust="spacing" textLength="101.1245" x="602.9978" y="340.8232">Ubah Data Profil</text><polygon fill="#181818" points="321.8037,376.0313,331.8037,380.0313,321.8037,384.0313,325.8037,380.0313" style="stroke:#181818;stroke-width:1.0;"/><line style="stroke:#181818;stroke-width:1.0;" x1="39.9204" x2="327.8037" y1="380.0313" y2="380.0313"/><text fill="#000000" font-family="sans-serif" font-size="13" lengthAdjust="spacing" textLength="221.4697" x="46.9204" y="375.1748">Ubah nama / nomor HP &#8594; klik Simpan</text><polygon fill="#181818" points="597.2534,406.3828,607.2534,410.3828,597.2534,414.3828,601.2534,410.3828" style="stroke:#181818;stroke-width:1.0;"/><line style="stroke:#181818;stroke-width:1.0;" x1="333.8037" x2="603.2534" y1="410.3828" y2="410.3828"/><text fill="#000000" font-family="sans-serif" font-size="13" lengthAdjust="spacing" textLength="36.1182" x="340.8037" y="405.5264">save()</text><line style="stroke:#181818;stroke-width:1.0;" x1="609.2534" x2="651.2534" y1="440.7344" y2="440.7344"/><line style="stroke:#181818;stroke-width:1.0;" x1="651.2534" x2="651.2534" y1="440.7344" y2="453.7344"/><line style="stroke:#181818;stroke-width:1.0;" x1="610.2534" x2="651.2534" y1="453.7344" y2="453.7344"/><polygon fill="#181818" points="620.2534,449.7344,610.2534,453.7344,620.2534,457.7344,616.2534,453.7344" style="stroke:#181818;stroke-width:1.0;"/><text fill="#000000" font-family="sans-serif" font-size="13" lengthAdjust="spacing" textLength="275.7041" x="616.2534" y="435.8779">validate(['name'=&gt;'required','phone'=&gt;'nullable'])</text><polygon fill="#181818" points="917.0415,480.0859,927.0415,484.0859,917.0415,488.0859,921.0415,484.0859" style="stroke:#181818;stroke-width:1.0;"/><line style="stroke:#181818;stroke-width:1.0;" x1="609.2534" x2="923.0415" y1="484.0859" y2="484.0859"/><text fill="#000000" font-family="sans-serif" font-size="13" lengthAdjust="spacing" textLength="295.7881" x="616.2534" y="479.2295">$user-&gt;update(['name'=&gt;$name,'phone'=&gt;$phone])</text><polygon fill="#181818" points="1247.7666,510.4375,1257.7666,514.4375,1247.7666,518.4375,1251.7666,514.4375" style="stroke:#181818;stroke-width:1.0;"/><line style="stroke:#181818;stroke-width:1.0;" x1="929.0415" x2="1253.7666" y1="514.4375" y2="514.4375"/><text fill="#000000" font-family="sans-serif" font-size="13" lengthAdjust="spacing" textLength="306.7251" x="936.0415" y="509.5811">UPDATE users SET name=?, phone=? WHERE id=?</text><polygon fill="#181818" points="344.8037,540.7891,334.8037,544.7891,344.8037,548.7891,340.8037,544.7891" style="stroke:#181818;stroke-width:1.0;"/><line style="stroke:#181818;stroke-width:1.0;stroke-dasharray:2.0,2.0;" x1="338.8037" x2="608.2534" y1="544.7891" y2="544.7891"/><text fill="#000000" font-family="sans-serif" font-size="13" lengthAdjust="spacing" textLength="96.8081" x="350.8037" y="539.9326">Notifikasi sukses</text><rect fill="#EEEEEE" height="3" style="stroke:#EEEEEE;stroke-width:1.0;" width="1312.7319" x="0" y="573.9648"/><line style="stroke:#000000;stroke-width:1.0;" x1="0" x2="1312.7319" y1="573.9648" y2="573.9648"/><line style="stroke:#000000;stroke-width:1.0;" x1="0" x2="1312.7319" y1="576.9648" y2="576.9648"/><rect fill="#EEEEEE" height="24.3516" style="stroke:#000000;stroke-width:2.0;" width="118.7109" x="597.0105" y="562.7891"/><text fill="#000000" font-family="sans-serif" font-size="13" font-weight="bold" lengthAdjust="spacing" textLength="101.0991" x="603.0105" y="580.2842">Ubah Foto Profil</text><polygon fill="#181818" points="321.8037,615.4922,331.8037,619.4922,321.8037,623.4922,325.8037,619.4922" style="stroke:#181818;stroke-width:1.0;"/><line style="stroke:#181818;stroke-width:1.0;" x1="39.9204" x2="327.8037" y1="619.4922" y2="619.4922"/><text fill="#000000" font-family="sans-serif" font-size="13" lengthAdjust="spacing" textLength="165.8579" x="46.9204" y="614.6357">Pilih foto baru &#8594; klik Unggah</text><polygon fill="#181818" points="597.2534,645.8438,607.2534,649.8438,597.2534,653.8438,601.2534,649.8438" style="stroke:#181818;stroke-width:1.0;"/><line style="stroke:#181818;stroke-width:1.0;" x1="333.8037" x2="603.2534" y1="649.8438" y2="649.8438"/><text fill="#000000" font-family="sans-serif" font-size="13" lengthAdjust="spacing" textLength="121.4307" x="340.8037" y="644.9873">uploadPhoto($photo)</text><line style="stroke:#181818;stroke-width:1.0;" x1="609.2534" x2="651.2534" y1="680.1953" y2="680.1953"/><line style="stroke:#181818;stroke-width:1.0;" x1="651.2534" x2="651.2534" y1="680.1953" y2="693.1953"/><line style="stroke:#181818;stroke-width:1.0;" x1="610.2534" x2="651.2534" y1="693.1953" y2="693.1953"/><polygon fill="#181818" points="620.2534,689.1953,610.2534,693.1953,620.2534,697.1953,616.2534,693.1953" style="stroke:#181818;stroke-width:1.0;"/><text fill="#000000" font-family="sans-serif" font-size="13" lengthAdjust="spacing" textLength="265.2813" x="616.2534" y="675.3389">validate(['photo'=&gt;'required|image|max:2048'])</text><line style="stroke:#181818;stroke-width:1.0;" x1="609.2534" x2="651.2534" y1="723.5469" y2="723.5469"/><line style="stroke:#181818;stroke-width:1.0;" x1="651.2534" x2="651.2534" y1="723.5469" y2="736.5469"/><line style="stroke:#181818;stroke-width:1.0;" x1="610.2534" x2="651.2534" y1="736.5469" y2="736.5469"/><polygon fill="#181818" points="620.2534,732.5469,610.2534,736.5469,620.2534,740.5469,616.2534,736.5469" style="stroke:#181818;stroke-width:1.0;"/><text fill="#000000" font-family="sans-serif" font-size="13" lengthAdjust="spacing" textLength="179.3784" x="616.2534" y="718.6904">$photo-&gt;store('avatars','public')</text><polygon fill="#181818" points="917.0415,762.8984,927.0415,766.8984,917.0415,770.8984,921.0415,766.8984" style="stroke:#181818;stroke-width:1.0;"/><line style="stroke:#181818;stroke-width:1.0;" x1="609.2534" x2="923.0415" y1="766.8984" y2="766.8984"/><text fill="#000000" font-family="sans-serif" font-size="13" lengthAdjust="spacing" textLength="188.1699" x="616.2534" y="762.042">$user-&gt;update(['image'=&gt;$path])</text><polygon fill="#181818" points="1247.7666,793.25,1257.7666,797.25,1247.7666,801.25,1251.7666,797.25" style="stroke:#181818;stroke-width:1.0;"/><line style="stroke:#181818;stroke-width:1.0;" x1="929.0415" x2="1253.7666" y1="797.25" y2="797.25"/><text fill="#000000" font-family="sans-serif" font-size="13" lengthAdjust="spacing" textLength="265.8652" x="936.0415" y="792.3936">UPDATE users SET image = ? WHERE id = ?</text><polygon fill="#181818" points="344.8037,823.6016,334.8037,827.6016,344.8037,831.6016,340.8037,827.6016" style="stroke:#181818;stroke-width:1.0;"/><line style="stroke:#181818;stroke-width:1.0;stroke-dasharray:2.0,2.0;" x1="338.8037" x2="608.2534" y1="827.6016" y2="827.6016"/><text fill="#000000" font-family="sans-serif" font-size="13" lengthAdjust="spacing" textLength="209.1807" x="350.8037" y="822.7451">Notifikasi sukses + avatar diperbarui</text><rect fill="#EEEEEE" height="3" style="stroke:#EEEEEE;stroke-width:1.0;" width="1312.7319" x="0" y="856.7773"/><line style="stroke:#000000;stroke-width:1.0;" x1="0" x2="1312.7319" y1="856.7773" y2="856.7773"/><line style="stroke:#000000;stroke-width:1.0;" x1="0" x2="1312.7319" y1="859.7773" y2="859.7773"/><rect fill="#EEEEEE" height="24.3516" style="stroke:#000000;stroke-width:2.0;" width="120.9072" x="595.9124" y="845.6016"/><text fill="#000000" font-family="sans-serif" font-size="13" font-weight="bold" lengthAdjust="spacing" textLength="103.2954" x="601.9124" y="863.0967">Ubah Kata Sandi</text><polygon fill="#181818" points="321.8037,898.3047,331.8037,902.3047,321.8037,906.3047,325.8037,902.3047" style="stroke:#181818;stroke-width:1.0;"/><line style="stroke:#181818;stroke-width:1.0;" x1="39.9204" x2="327.8037" y1="902.3047" y2="902.3047"/><text fill="#000000" font-family="sans-serif" font-size="13" lengthAdjust="spacing" textLength="269.8833" x="46.9204" y="897.4482">Isi kata sandi lama, baru, konfirmasi &#8594; Simpan</text><polygon fill="#181818" points="597.2534,928.6563,607.2534,932.6563,597.2534,936.6563,601.2534,932.6563" style="stroke:#181818;stroke-width:1.0;"/><line style="stroke:#181818;stroke-width:1.0;" x1="333.8037" x2="603.2534" y1="932.6563" y2="932.6563"/><text fill="#000000" font-family="sans-serif" font-size="13" lengthAdjust="spacing" textLength="251.4497" x="340.8037" y="927.7998">changePassword($current, $new, $confirm)</text><line style="stroke:#181818;stroke-width:1.0;" x1="609.2534" x2="651.2534" y1="963.0078" y2="963.0078"/><line style="stroke:#181818;stroke-width:1.0;" x1="651.2534" x2="651.2534" y1="963.0078" y2="976.0078"/><line style="stroke:#181818;stroke-width:1.0;" x1="610.2534" x2="651.2534" y1="976.0078" y2="976.0078"/><polygon fill="#181818" points="620.2534,972.0078,610.2534,976.0078,620.2534,980.0078,616.2534,976.0078" style="stroke:#181818;stroke-width:1.0;"/><text fill="#000000" font-family="sans-serif" font-size="13" lengthAdjust="spacing" textLength="264.7607" x="616.2534" y="958.1514">validate(['new_password'=&gt;'min:8|confirmed'])</text><line style="stroke:#181818;stroke-width:1.0;" x1="609.2534" x2="651.2534" y1="1006.3594" y2="1006.3594"/><line style="stroke:#181818;stroke-width:1.0;" x1="651.2534" x2="651.2534" y1="1006.3594" y2="1019.3594"/><line style="stroke:#181818;stroke-width:1.0;" x1="610.2534" x2="651.2534" y1="1019.3594" y2="1019.3594"/><polygon fill="#181818" points="620.2534,1015.3594,610.2534,1019.3594,620.2534,1023.3594,616.2534,1019.3594" style="stroke:#181818;stroke-width:1.0;"/><text fill="#000000" font-family="sans-serif" font-size="13" lengthAdjust="spacing" textLength="235.1807" x="616.2534" y="1001.5029">Hash::check($current, $user-&gt;password)</text><path d="M270.897,1034.3594 L331.0679,1034.3594 L331.0679,1042.7109 L321.0679,1052.7109 L270.897,1052.7109 L270.897,1034.3594 " fill="#EEEEEE" style="stroke:#000000;stroke-width:1.5;"/><rect fill="none" height="155.5938" style="stroke:#000000;stroke-width:1.5;" width="1031.835" x="270.897" y="1034.3594"/><text fill="#000000" font-family="sans-serif" font-size="13" font-weight="bold" lengthAdjust="spacing" textLength="15.1709" x="285.897" y="1048.8545">alt</text><text fill="#000000" font-family="sans-serif" font-size="11" font-weight="bold" lengthAdjust="spacing" textLength="135.0991" x="346.0679" y="1047.7783">[Kata sandi saat ini salah]</text><polygon fill="#181818" points="344.8037,1071.0625,334.8037,1075.0625,344.8037,1079.0625,340.8037,1075.0625" style="stroke:#181818;stroke-width:1.0;"/><line style="stroke:#181818;stroke-width:1.0;stroke-dasharray:2.0,2.0;" x1="338.8037" x2="608.2534" y1="1075.0625" y2="1075.0625"/><text fill="#000000" font-family="sans-serif" font-size="13" lengthAdjust="spacing" textLength="67.9199" x="350.8037" y="1070.2061">Pesan error</text><line style="stroke:#000000;stroke-width:1.0;stroke-dasharray:2.0,2.0;" x1="270.897" x2="1302.7319" y1="1084.0625" y2="1084.0625"/><text fill="#000000" font-family="sans-serif" font-size="11" font-weight="bold" lengthAdjust="spacing" textLength="50.7354" x="275.897" y="1095.4814">[Berhasil]</text><polygon fill="#181818" points="917.0415,1117.25,927.0415,1121.25,917.0415,1125.25,921.0415,1121.25" style="stroke:#181818;stroke-width:1.0;"/><line style="stroke:#181818;stroke-width:1.0;" x1="609.2534" x2="923.0415" y1="1121.25" y2="1121.25"/><text fill="#000000" font-family="sans-serif" font-size="13" lengthAdjust="spacing" textLength="284.9653" x="616.2534" y="1116.3936">$user-&gt;update(['password'=&gt;Hash::make($new)])</text><polygon fill="#181818" points="1247.7666,1147.6016,1257.7666,1151.6016,1247.7666,1155.6016,1251.7666,1151.6016" style="stroke:#181818;stroke-width:1.0;"/><line style="stroke:#181818;stroke-width:1.0;" x1="929.0415" x2="1253.7666" y1="1151.6016" y2="1151.6016"/><text fill="#000000" font-family="sans-serif" font-size="13" lengthAdjust="spacing" textLength="286.0952" x="936.0415" y="1146.7451">UPDATE users SET password = ? WHERE id = ?</text><polygon fill="#181818" points="344.8037,1177.9531,334.8037,1181.9531,344.8037,1185.9531,340.8037,1181.9531" style="stroke:#181818;stroke-width:1.0;"/><line style="stroke:#181818;stroke-width:1.0;stroke-dasharray:2.0,2.0;" x1="338.8037" x2="608.2534" y1="1181.9531" y2="1181.9531"/><text fill="#000000" font-family="sans-serif" font-size="13" lengthAdjust="spacing" textLength="96.8081" x="350.8037" y="1177.0967">Notifikasi sukses</text><!--SRC=[ZLJDRjf04BxxAKO8oKO5fOrwY2mPL08LKPBA2g4zD54qs0DUURthhct88US-G1-nJzBTjKCWa9GBNdRccv_lczcIbPnWTjux_UJ39N794K8b5uph3vjZp1m7er8gQ8KabijAO0kmW5b1oibHbInYEOeIMXFacA5eq7V2usn5QwRe9BSt7OlxpcYzYwlzwUxkGiJqg75N3Qu6dCiibu94kOio-U5QniGtvTX_Jembph4WQ8sQatKO3Ht7OdfzMuCFrvJDgnIXASynjyQwIUX39YjHUXrdSsNicrG-O5KcNgVNh_ILTjjOZDjewCDqV3K-lmLZBk37P7mp1XP3O74FB7P6G-ZjPZGrGzuGlPrtK_ODQPeKBAJAeAdS2GAOpJ6fqOrwGV2gN-iXj4Hm0a9cMj5927z__u6KinIcBDF47YAXm1Mzvc3Bl4BEDEVa_NHrS7A3lgleLwNrYzskcoVQpTo9YdESStBltwQpROZIREQxyThc-nAgRG_t1-YUXQClj-E6xkdurdHBmQ0B5X4CDX84WuFKVfCbMx0K2mP5bHPKl33xLPRoJMP3nbcY5T4kSrJL2waphICcXqYjSYun3XEDyKn3fJoAOUkvJV4Jot19Jna- -gSVFv_jiRiLfaxJwnTwcSbpSQM7HHL6eshEMUGUhulDQPN0CZbA28lGWp_Ote8ZHO0FKDSACSj96ORPYp2NPkIdA6Ashyk5Zf4QUs7jvddgMeMwa4gnO2epMOnQRqz_bA1OKeX5iPOgzjfHfPGsTA4jQAr_ephGSVj1wuUyYMH4p9ZmpvwQ27fTtX5lWaNY-r52KRfTGotCSyoEWxoi6QaxBX1BOC8Sk9v3W4E4XwITWPIIoY6k7yuXgKGJmtVztvs8hQxgIZDCoJCKTNHJ0F-VaES8-qDokEhzNTNlelCF]--></g></svg>