<svg xmlns="http://www.w3.org/2000/svg" xmlns:xlink="http://www.w3.org/1999/xlink" contentStyleType="text/css" height="847px" preserveAspectRatio="none" style="width:1906px;height:847px;background:#FFFFFF;" version="1.1" viewBox="0 0 1906 847" width="1906px" zoomAndPan="magnify"><title>UC-16: Aktivasi Akun</title><defs/><g><text fill="#000000" font-family="sans-serif" font-size="14" font-weight="bold" lengthAdjust="spacing" textLength="141.5928" x="883.2336" y="29.5332">UC-16: Aktivasi Akun</text><rect fill="none" height="458.5938" style="stroke:#000000;stroke-width:1.5;" width="1889.0601" x="10" y="289.9766"/><rect fill="none" height="229.2969" style="stroke:#000000;stroke-width:1.5;" width="1869.0601" x="20" y="512.2734"/><line style="stroke:#181818;stroke-width:0.5;stroke-dasharray:5.0,5.0;" x1="81" x2="81" y1="121.2188" y2="765.5703"/><line style="stroke:#181818;stroke-width:0.5;stroke-dasharray:5.0,5.0;" x1="309.1528" x2="309.1528" y1="121.2188" y2="765.5703"/><line style="stroke:#181818;stroke-width:0.5;stroke-dasharray:5.0,5.0;" x1="593.3325" x2="593.3325" y1="121.2188" y2="765.5703"/><line style="stroke:#181818;stroke-width:0.5;stroke-dasharray:5.0,5.0;" x1="1301.7686" x2="1301.7686" y1="121.2188" y2="765.5703"/><line style="stroke:#181818;stroke-width:0.5;stroke-dasharray:5.0,5.0;" x1="1845.1294" x2="1845.1294" y1="121.2188" y2="765.5703"/><text fill="#000000" font-family="sans-serif" font-size="14" lengthAdjust="spacing" textLength="97.3027" x="30" y="118.1426">Pengguna Baru</text><ellipse cx="81.6514" cy="52.1094" fill="#E2E2F0" rx="8" ry="8" style="stroke:#181818;stroke-width:0.5;"/><path d="M81.6514,60.1094 L81.6514,87.1094 M68.6514,68.1094 L94.6514,68.1094 M81.6514,87.1094 L68.6514,102.1094 M81.6514,87.1094 L94.6514,102.1094 " fill="none" style="stroke:#181818;stroke-width:0.5;"/><text fill="#000000" font-family="sans-serif" font-size="14" lengthAdjust="spacing" textLength="97.3027" x="30" y="779.1035">Pengguna Baru</text><ellipse cx="81.6514" cy="790.6797" fill="#E2E2F0" rx="8" ry="8" style="stroke:#181818;stroke-width:0.5;"/><path d="M81.6514,798.6797 L81.6514,825.6797 M68.6514,806.6797 L94.6514,806.6797 M81.6514,825.6797 L68.6514,840.6797 M81.6514,825.6797 L94.6514,840.6797 " fill="none" style="stroke:#181818;stroke-width:0.5;"/><rect fill="#E2E2F0" height="49.2188" rx="2.5" ry="2.5" style="stroke:#181818;stroke-width:0.5;" width="152.5166" x="233.1528" y="71"/><text fill="#000000" font-family="sans-serif" font-size="14" lengthAdjust="spacing" textLength="108.1514" x="255.3354" y="92.5332">Halaman Aktivasi</text><text fill="#000000" font-family="sans-serif" font-size="14" lengthAdjust="spacing" textLength="138.5166" x="240.1528" y="110.1426">(aktivasi-akun/{token})</text><rect fill="#E2E2F0" height="49.2188" rx="2.5" ry="2.5" style="stroke:#181818;stroke-width:0.5;" width="152.5166" x="233.1528" y="764.5703"/><text fill="#000000" font-family="sans-serif" font-size="14" lengthAdjust="spacing" textLength="108.1514" x="255.3354" y="786.1035">Halaman Aktivasi</text><text fill="#000000" font-family="sans-serif" font-size="14" lengthAdjust="spacing" textLength="138.5166" x="240.1528" y="803.7129">(aktivasi-akun/{token})</text><rect fill="#E2E2F0" height="49.2188" rx="2.5" ry="2.5" style="stroke:#181818;stroke-width:0.5;" width="114.3857" x="536.3325" y="71"/><text fill="#000000" font-family="sans-serif" font-size="14" lengthAdjust="spacing" textLength="100.3857" x="543.3325" y="92.5332">ActivateAccount</text><text fill="#000000" font-family="sans-serif" font-size="14" lengthAdjust="spacing" textLength="60.6758" x="563.1875" y="110.1426">(Livewire)</text><rect fill="#E2E2F0" height="49.2188" rx="2.5" ry="2.5" style="stroke:#181818;stroke-width:0.5;" width="114.3857" x="536.3325" y="764.5703"/><text fill="#000000" font-family="sans-serif" font-size="14" lengthAdjust="spacing" textLength="100.3857" x="543.3325" y="786.1035">ActivateAccount</text><text fill="#000000" font-family="sans-serif" font-size="14" lengthAdjust="spacing" textLength="60.6758" x="563.1875" y="803.7129">(Livewire)</text><rect fill="#E2E2F0" height="31.6094" rx="2.5" ry="2.5" style="stroke:#181818;stroke-width:0.5;" width="85.5791" x="1259.7686" y="88.6094"/><text fill="#000000" font-family="sans-serif" font-size="14" lengthAdjust="spacing" textLength="71.5791" x="1266.7686" y="110.1426">User Model</text><rect fill="#E2E2F0" height="31.6094" rx="2.5" ry="2.5" style="stroke:#181818;stroke-width:0.5;" width="85.5791" x="1259.7686" y="764.5703"/><text fill="#000000" font-family="sans-serif" font-size="14" lengthAdjust="spacing" textLength="71.5791" x="1266.7686" y="786.1035">User Model</text><text fill="#000000" font-family="sans-serif" font-size="14" lengthAdjust="spacing" textLength="59.9307" x="1813.1294" y="118.1426">Database</text><path d="M1828.0947,67.6094 C1828.0947,57.6094 1846.0947,57.6094 1846.0947,57.6094 C1846.0947,57.6094 1864.0947,57.6094 1864.0947,67.6094 L1864.0947,93.6094 C1864.0947,103.6094 1846.0947,103.6094 1846.0947,103.6094 C1846.0947,103.6094 1828.0947,103.6094 1828.0947,93.6094 L1828.0947,67.6094 " fill="#E2E2F0" style="stroke:#181818;stroke-width:1.5;"/><path d="M1828.0947,67.6094 C1828.0947,77.6094 1846.0947,77.6094 1846.0947,77.6094 C1846.0947,77.6094 1864.0947,77.6094 1864.0947,67.6094 " fill="none" style="stroke:#181818;stroke-width:1.5;"/><text fill="#000000" font-family="sans-serif" font-size="14" lengthAdjust="spacing" textLength="59.9307" x="1813.1294" y="779.1035">Database</text><path d="M1828.0947,792.1797 C1828.0947,782.1797 1846.0947,782.1797 1846.0947,782.1797 C1846.0947,782.1797 1864.0947,782.1797 1864.0947,792.1797 L1864.0947,818.1797 C1864.0947,828.1797 1846.0947,828.1797 1846.0947,828.1797 C1846.0947,828.1797 1828.0947,828.1797 1828.0947,818.1797 L1828.0947,792.1797 " fill="#E2E2F0" style="stroke:#181818;stroke-width:1.5;"/><path d="M1828.0947,792.1797 C1828.0947,802.1797 1846.0947,802.1797 1846.0947,802.1797 C1846.0947,802.1797 1864.0947,802.1797 1864.0947,792.1797 " fill="none" style="stroke:#181818;stroke-width:1.5;"/><polygon fill="#181818" points="297.4111,149.5703,307.4111,153.5703,297.4111,157.5703,301.4111,153.5703" style="stroke:#181818;stroke-width:1.0;"/><line style="stroke:#181818;stroke-width:1.0;" x1="81.6514" x2="303.4111" y1="153.5703" y2="153.5703"/><text fill="#000000" font-family="sans-serif" font-size="13" lengthAdjust="spacing" textLength="203.7598" x="88.6514" y="148.7139">Membuka tautan aktivasi dari email</text><polygon fill="#181818" points="581.5254,179.9219,591.5254,183.9219,581.5254,187.9219,585.5254,183.9219" style="stroke:#181818;stroke-width:1.0;"/><line style="stroke:#181818;stroke-width:1.0;" x1="309.4111" x2="587.5254" y1="183.9219" y2="183.9219"/><text fill="#000000" font-family="sans-serif" font-size="13" lengthAdjust="spacing" textLength="83.8208" x="316.4111" y="179.0654">mount($token)</text><polygon fill="#181818" points="1290.5581,210.2734,1300.5581,214.2734,1290.5581,218.2734,1294.5581,214.2734" style="stroke:#181818;stroke-width:1.0;"/><line style="stroke:#181818;stroke-width:1.0;" x1="593.5254" x2="1296.5581" y1="214.2734" y2="214.2734"/><text fill="#000000" font-family="sans-serif" font-size="13" lengthAdjust="spacing" textLength="258.2036" x="600.5254" y="209.417">User::where('invitation_token',$token)-&gt;first()</text><polygon fill="#181818" points="1834.0947,240.625,1844.0947,244.625,1834.0947,248.625,1838.0947,244.625" style="stroke:#181818;stroke-width:1.0;"/><line style="stroke:#181818;stroke-width:1.0;" x1="1302.5581" x2="1840.0947" y1="244.625" y2="244.625"/><text fill="#000000" font-family="sans-serif" font-size="13" lengthAdjust="spacing" textLength="253.9697" x="1309.5581" y="239.7686">SELECT users WHERE invitation_token = ?</text><polygon fill="#181818" points="1313.5581,270.9766,1303.5581,274.9766,1313.5581,278.9766,1309.5581,274.9766" style="stroke:#181818;stroke-width:1.0;"/><line style="stroke:#181818;stroke-width:1.0;stroke-dasharray:2.0,2.0;" x1="1307.5581" x2="1845.0947" y1="274.9766" y2="274.9766"/><text fill="#000000" font-family="sans-serif" font-size="13" lengthAdjust="spacing" textLength="80.209" x="1319.5581" y="270.1201">User atau null</text><path d="M10,289.9766 L70.1709,289.9766 L70.1709,298.3281 L60.1709,308.3281 L10,308.3281 L10,289.9766 " fill="#EEEEEE" style="stroke:#000000;stroke-width:1.5;"/><rect fill="none" height="458.5938" style="stroke:#000000;stroke-width:1.5;" width="1889.0601" x="10" y="289.9766"/><text fill="#000000" font-family="sans-serif" font-size="13" font-weight="bold" lengthAdjust="spacing" textLength="15.1709" x="25" y="304.4717">alt</text><text fill="#000000" font-family="sans-serif" font-size="11" font-weight="bold" lengthAdjust="spacing" textLength="126.5161" x="85.1709" y="303.3955">[Token tidak ditemukan]</text><polygon fill="#181818" points="320.4111,326.6797,310.4111,330.6797,320.4111,334.6797,316.4111,330.6797" style="stroke:#181818;stroke-width:1.0;"/><line style="stroke:#181818;stroke-width:1.0;stroke-dasharray:2.0,2.0;" x1="314.4111" x2="592.5254" y1="330.6797" y2="330.6797"/><text fill="#000000" font-family="sans-serif" font-size="13" lengthAdjust="spacing" textLength="202.8774" x="326.4111" y="325.8232">Tampil halaman "Token tidak valid"</text><line style="stroke:#000000;stroke-width:1.0;stroke-dasharray:2.0,2.0;" x1="10" x2="1899.0601" y1="339.6797" y2="339.6797"/><text fill="#000000" font-family="sans-serif" font-size="11" font-weight="bold" lengthAdjust="spacing" textLength="186.4199" x="15" y="351.0986">[Token ditemukan &amp; belum expired]</text><polygon fill="#181818" points="320.4111,372.8672,310.4111,376.8672,320.4111,380.8672,316.4111,376.8672" style="stroke:#181818;stroke-width:1.0;"/><line style="stroke:#181818;stroke-width:1.0;stroke-dasharray:2.0,2.0;" x1="314.4111" x2="592.5254" y1="376.8672" y2="376.8672"/><text fill="#000000" font-family="sans-serif" font-size="13" lengthAdjust="spacing" textLength="200.8843" x="326.4111" y="372.0107">Tampil form pengaturan kata sandi</text><polygon fill="#181818" points="297.4111,419.5703,307.4111,423.5703,297.4111,427.5703,301.4111,423.5703" style="stroke:#181818;stroke-width:1.0;"/><line style="stroke:#181818;stroke-width:1.0;" x1="81.6514" x2="303.4111" y1="423.5703" y2="423.5703"/><text fill="#000000" font-family="sans-serif" font-size="13" lengthAdjust="spacing" textLength="182.7998" x="88.6514" y="402.3623">Mengisi kata sandi &amp; konfirmasi</text><text fill="#000000" font-family="sans-serif" font-size="13" lengthAdjust="spacing" textLength="91.0254" x="88.6514" y="418.7139">lalu klik Aktivasi</text><polygon fill="#181818" points="581.5254,449.9219,591.5254,453.9219,581.5254,457.9219,585.5254,453.9219" style="stroke:#181818;stroke-width:1.0;"/><line style="stroke:#181818;stroke-width:1.0;" x1="309.4111" x2="587.5254" y1="453.9219" y2="453.9219"/><text fill="#000000" font-family="sans-serif" font-size="13" lengthAdjust="spacing" textLength="260.1143" x="316.4111" y="449.0654">activate($password, $passwordConfirmation)</text><line style="stroke:#181818;stroke-width:1.0;" x1="593.5254" x2="635.5254" y1="484.2734" y2="484.2734"/><line style="stroke:#181818;stroke-width:1.0;" x1="635.5254" x2="635.5254" y1="484.2734" y2="497.2734"/><line style="stroke:#181818;stroke-width:1.0;" x1="594.5254" x2="635.5254" y1="497.2734" y2="497.2734"/><polygon fill="#181818" points="604.5254,493.2734,594.5254,497.2734,604.5254,501.2734,600.5254,497.2734" style="stroke:#181818;stroke-width:1.0;"/><text fill="#000000" font-family="sans-serif" font-size="13" lengthAdjust="spacing" textLength="284.7559" x="600.5254" y="479.417">validate(['password'=&gt;'required|min:8|confirmed'])</text><path d="M20,512.2734 L80.1709,512.2734 L80.1709,520.625 L70.1709,530.625 L20,530.625 L20,512.2734 " fill="#EEEEEE" style="stroke:#000000;stroke-width:1.5;"/><rect fill="none" height="229.2969" style="stroke:#000000;stroke-width:1.5;" width="1869.0601" x="20" y="512.2734"/><text fill="#000000" font-family="sans-serif" font-size="13" font-weight="bold" lengthAdjust="spacing" textLength="15.1709" x="35" y="526.7686">alt</text><text fill="#000000" font-family="sans-serif" font-size="11" font-weight="bold" lengthAdjust="spacing" textLength="80.6899" x="95.1709" y="525.6924">[Validasi gagal]</text><polygon fill="#181818" points="320.4111,548.9766,310.4111,552.9766,320.4111,556.9766,316.4111,552.9766" style="stroke:#181818;stroke-width:1.0;"/><line style="stroke:#181818;stroke-width:1.0;stroke-dasharray:2.0,2.0;" x1="314.4111" x2="592.5254" y1="552.9766" y2="552.9766"/><text fill="#000000" font-family="sans-serif" font-size="13" lengthAdjust="spacing" textLength="140.918" x="326.4111" y="548.1201">Tampil pesan kesalahan</text><line style="stroke:#000000;stroke-width:1.0;stroke-dasharray:2.0,2.0;" x1="20" x2="1889.0601" y1="561.9766" y2="561.9766"/><text fill="#000000" font-family="sans-serif" font-size="11" font-weight="bold" lengthAdjust="spacing" textLength="50.7354" x="25" y="573.3955">[Berhasil]</text><polygon fill="#181818" points="1290.5581,595.1641,1300.5581,599.1641,1290.5581,603.1641,1294.5581,599.1641" style="stroke:#181818;stroke-width:1.0;"/><line style="stroke:#181818;stroke-width:1.0;" x1="593.5254" x2="1296.5581" y1="599.1641" y2="599.1641"/><text fill="#000000" font-family="sans-serif" font-size="13" lengthAdjust="spacing" textLength="685.0327" x="600.5254" y="594.3076">$user-&gt;update(['password'=&gt;Hash::make($password), 'is_active'=&gt;true, 'activated_at'=&gt;now(), 'invitation_token'=&gt;null])</text><polygon fill="#181818" points="1834.0947,625.5156,1844.0947,629.5156,1834.0947,633.5156,1838.0947,629.5156" style="stroke:#181818;stroke-width:1.0;"/><line style="stroke:#181818;stroke-width:1.0;" x1="1302.5581" x2="1840.0947" y1="629.5156" y2="629.5156"/><text fill="#000000" font-family="sans-serif" font-size="13" lengthAdjust="spacing" textLength="519.5366" x="1309.5581" y="624.6592">UPDATE users SET password=?, is_active=1, activated_at=now(), invitation_token=NULL</text><line style="stroke:#181818;stroke-width:1.0;" x1="593.5254" x2="635.5254" y1="659.8672" y2="659.8672"/><line style="stroke:#181818;stroke-width:1.0;" x1="635.5254" x2="635.5254" y1="659.8672" y2="672.8672"/><line style="stroke:#181818;stroke-width:1.0;" x1="594.5254" x2="635.5254" y1="672.8672" y2="672.8672"/><polygon fill="#181818" points="604.5254,668.8672,594.5254,672.8672,604.5254,676.8672,600.5254,672.8672" style="stroke:#181818;stroke-width:1.0;"/><text fill="#000000" font-family="sans-serif" font-size="13" lengthAdjust="spacing" textLength="102.6099" x="600.5254" y="655.0107">Auth::login($user)</text><polygon fill="#181818" points="320.4111,699.2188,310.4111,703.2188,320.4111,707.2188,316.4111,703.2188" style="stroke:#181818;stroke-width:1.0;"/><line style="stroke:#181818;stroke-width:1.0;stroke-dasharray:2.0,2.0;" x1="314.4111" x2="592.5254" y1="703.2188" y2="703.2188"/><text fill="#000000" font-family="sans-serif" font-size="13" lengthAdjust="spacing" textLength="130.7998" x="326.4111" y="698.3623">Redirect ke dashboard</text><polygon fill="#181818" points="92.6514,729.5703,82.6514,733.5703,92.6514,737.5703,88.6514,733.5703" style="stroke:#181818;stroke-width:1.0;"/><line style="stroke:#181818;stroke-width:1.0;stroke-dasharray:2.0,2.0;" x1="86.6514" x2="308.4111" y1="733.5703" y2="733.5703"/><text fill="#000000" font-family="sans-serif" font-size="13" lengthAdjust="spacing" textLength="157.5361" x="98.6514" y="728.7139">Tampil halaman dashboard</text><!--SRC=[VLDTQzj047o_Nx6OK4jWK_9IYi0E_e8yE24aTlhGXh2MDlQXqqaztTc5fl-zUsTPjUCq3pQdqypixkp8Igi8bfF-vPS4HhcLMwmb7vmM0bDR6kZSaLwldKOOet4Tm1fkQRUioOWAZPMfh51Rw5oZmW9rA_93HzWS-yXwdt_RCYVz9muIZv9sf_nHwi6MHcbQEcsPFfTRsab3UyQaBAfIaxQdDDy8t9GPgO3oZ-59P6XnXJL1PzgS0c0w5gBf7_h3q4S2DrIiN8vWqLaUuT0tP6WaK85I2G_qXBQD10hVPtGHnef5-yAZsZQIS4oItOOCHLsfjzAYbQL-3hHkhw7tXo_Ir3QAHKlrEjDn0W-p-Moo0CVtDNoxdjtFuAqC3E1AJCVGFoyDFBm3xPJYXIeBYu2tCiCSCccfuBcr03XglxLbWKKb5MoQpNQEkLjKCki8Kkpm_hvLWq-m8kKAe5yLho_xMFsbD0LKd36qpZ0vvuQXHfr9mSHtLgNNabVp3yRbybApVKL8dKBb85SoRvF8Ckzi3vkyHHSLrlMkD5aFskEa4VGMnwVzduW45xp8z-w1sXqCkuP-EZ_vQo5rylKrtQjHrdsA_L1-3u-1oOEiSOsABpyqgQBQMyF_2ZTXNy7uCPaDQvpHJr9muPFJ7xhglD5hh3T9Kc1-v4BSWwwiduCzn1Xh7F7LmQxi6ItVwd8N1UJRGFChpjfJ75ewo_BoRZfQp9eiFymMSAWwkEf1MtLmsOFZUeEcsjjYWzlbV7u- -z5-HixoWAfSInq57-B_EdrF6QyijUmoV_VrPbMYoG9w7nu6Dc4y-p2EuQGpuNz_0G00]--></g></svg>