<svg xmlns="http://www.w3.org/2000/svg" xmlns:xlink="http://www.w3.org/1999/xlink" contentStyleType="text/css" height="1041px" preserveAspectRatio="none" style="width:1520px;height:1041px;background:#FFFFFF;" version="1.1" viewBox="0 0 1520 1041" width="1520px" zoomAndPan="magnify"><title>UC-18: Kelola Alur Persediaan</title><defs/><g><text fill="#000000" font-family="sans-serif" font-size="14" font-weight="bold" lengthAdjust="spacing" textLength="201.5098" x="655.6262" y="29.5332">UC-18: Kelola Alur Persediaan</text><line style="stroke:#181818;stroke-width:0.5;stroke-dasharray:5.0,5.0;" x1="58" x2="58" y1="121.2188" y2="959.7109"/><line style="stroke:#181818;stroke-width:0.5;stroke-dasharray:5.0,5.0;" x1="303.9951" x2="303.9951" y1="121.2188" y2="959.7109"/><line style="stroke:#181818;stroke-width:0.5;stroke-dasharray:5.0,5.0;" x1="637.8472" x2="637.8472" y1="121.2188" y2="959.7109"/><line style="stroke:#181818;stroke-width:0.5;stroke-dasharray:5.0,5.0;" x1="1078.4976" x2="1078.4976" y1="121.2188" y2="959.7109"/><line style="stroke:#181818;stroke-width:0.5;stroke-dasharray:5.0,5.0;" x1="1474.8315" x2="1474.8315" y1="121.2188" y2="959.7109"/><text fill="#000000" font-family="sans-serif" font-size="14" lengthAdjust="spacing" textLength="101.1787" x="5" y="118.1426">Bagian Inventori</text><ellipse cx="58.5894" cy="52.1094" fill="#E2E2F0" rx="8" ry="8" style="stroke:#181818;stroke-width:0.5;"/><path d="M58.5894,60.1094 L58.5894,87.1094 M45.5894,68.1094 L71.5894,68.1094 M58.5894,87.1094 L45.5894,102.1094 M58.5894,87.1094 L71.5894,102.1094 " fill="none" style="stroke:#181818;stroke-width:0.5;"/><text fill="#000000" font-family="sans-serif" font-size="14" lengthAdjust="spacing" textLength="101.1787" x="5" y="973.2441">Bagian Inventori</text><ellipse cx="58.5894" cy="984.8203" fill="#E2E2F0" rx="8" ry="8" style="stroke:#181818;stroke-width:0.5;"/><path d="M58.5894,992.8203 L58.5894,1019.8203 M45.5894,1000.8203 L71.5894,1000.8203 M58.5894,1019.8203 L45.5894,1034.8203 M58.5894,1019.8203 L71.5894,1034.8203 " fill="none" style="stroke:#181818;stroke-width:0.5;"/><rect fill="#E2E2F0" height="49.2188" rx="2.5" ry="2.5" style="stroke:#181818;stroke-width:0.5;" width="98.8135" x="254.9951" y="71"/><text fill="#000000" font-family="sans-serif" font-size="14" lengthAdjust="spacing" textLength="84.8135" x="261.9951" y="92.5332">Halaman Alur</text><text fill="#000000" font-family="sans-serif" font-size="14" lengthAdjust="spacing" textLength="83.2344" x="262.7847" y="110.1426">(livewire/alur)</text><rect fill="#E2E2F0" height="49.2188" rx="2.5" ry="2.5" style="stroke:#181818;stroke-width:0.5;" width="98.8135" x="254.9951" y="958.7109"/><text fill="#000000" font-family="sans-serif" font-size="14" lengthAdjust="spacing" textLength="84.8135" x="261.9951" y="980.2441">Halaman Alur</text><text fill="#000000" font-family="sans-serif" font-size="14" lengthAdjust="spacing" textLength="83.2344" x="262.7847" y="997.8535">(livewire/alur)</text><rect fill="#E2E2F0" height="49.2188" rx="2.5" ry="2.5" style="stroke:#181818;stroke-width:0.5;" width="77.0342" x="599.8472" y="71"/><text fill="#000000" font-family="sans-serif" font-size="14" lengthAdjust="spacing" textLength="63.0342" x="606.8472" y="92.5332">Alur\Index</text><text fill="#000000" font-family="sans-serif" font-size="14" lengthAdjust="spacing" textLength="60.6758" x="608.0264" y="110.1426">(Livewire)</text><rect fill="#E2E2F0" height="49.2188" rx="2.5" ry="2.5" style="stroke:#181818;stroke-width:0.5;" width="77.0342" x="599.8472" y="958.7109"/><text fill="#000000" font-family="sans-serif" font-size="14" lengthAdjust="spacing" textLength="63.0342" x="606.8472" y="980.2441">Alur\Index</text><text fill="#000000" font-family="sans-serif" font-size="14" lengthAdjust="spacing" textLength="60.6758" x="608.0264" y="997.8535">(Livewire)</text><rect fill="#E2E2F0" height="31.6094" rx="2.5" ry="2.5" style="stroke:#181818;stroke-width:0.5;" width="136.9648" x="1010.4976" y="88.6094"/><text fill="#000000" font-family="sans-serif" font-size="14" lengthAdjust="spacing" textLength="122.9648" x="1017.4976" y="110.1426">InventoryLog Model</text><rect fill="#E2E2F0" height="31.6094" rx="2.5" ry="2.5" style="stroke:#181818;stroke-width:0.5;" width="136.9648" x="1010.4976" y="958.7109"/><text fill="#000000" font-family="sans-serif" font-size="14" lengthAdjust="spacing" textLength="122.9648" x="1017.4976" y="980.2441">InventoryLog Model</text><text fill="#000000" font-family="sans-serif" font-size="14" lengthAdjust="spacing" textLength="59.9307" x="1442.8315" y="118.1426">Database</text><path d="M1457.7969,67.6094 C1457.7969,57.6094 1475.7969,57.6094 1475.7969,57.6094 C1475.7969,57.6094 1493.7969,57.6094 1493.7969,67.6094 L1493.7969,93.6094 C1493.7969,103.6094 1475.7969,103.6094 1475.7969,103.6094 C1475.7969,103.6094 1457.7969,103.6094 1457.7969,93.6094 L1457.7969,67.6094 " fill="#E2E2F0" style="stroke:#181818;stroke-width:1.5;"/><path d="M1457.7969,67.6094 C1457.7969,77.6094 1475.7969,77.6094 1475.7969,77.6094 C1475.7969,77.6094 1493.7969,77.6094 1493.7969,67.6094 " fill="none" style="stroke:#181818;stroke-width:1.5;"/><text fill="#000000" font-family="sans-serif" font-size="14" lengthAdjust="spacing" textLength="59.9307" x="1442.8315" y="973.2441">Database</text><path d="M1457.7969,986.3203 C1457.7969,976.3203 1475.7969,976.3203 1475.7969,976.3203 C1475.7969,976.3203 1493.7969,976.3203 1493.7969,986.3203 L1493.7969,1012.3203 C1493.7969,1022.3203 1475.7969,1022.3203 1475.7969,1022.3203 C1475.7969,1022.3203 1457.7969,1022.3203 1457.7969,1012.3203 L1457.7969,986.3203 " fill="#E2E2F0" style="stroke:#181818;stroke-width:1.5;"/><path d="M1457.7969,986.3203 C1457.7969,996.3203 1475.7969,996.3203 1475.7969,996.3203 C1475.7969,996.3203 1493.7969,996.3203 1493.7969,986.3203 " fill="none" style="stroke:#181818;stroke-width:1.5;"/><polygon fill="#181818" points="292.4019,149.5703,302.4019,153.5703,292.4019,157.5703,296.4019,153.5703" style="stroke:#181818;stroke-width:1.0;"/><line style="stroke:#181818;stroke-width:1.0;" x1="58.5894" x2="298.4019" y1="153.5703" y2="153.5703"/><text fill="#000000" font-family="sans-serif" font-size="13" lengthAdjust="spacing" textLength="154.6353" x="65.5894" y="148.7139">Membuka /alur-persediaan</text><polygon fill="#181818" points="626.3643,179.9219,636.3643,183.9219,626.3643,187.9219,630.3643,183.9219" style="stroke:#181818;stroke-width:1.0;"/><line style="stroke:#181818;stroke-width:1.0;" x1="304.4019" x2="632.3643" y1="183.9219" y2="183.9219"/><text fill="#000000" font-family="sans-serif" font-size="13" lengthAdjust="spacing" textLength="44.7891" x="311.4019" y="179.0654">mount()</text><polygon fill="#181818" points="1066.98,210.2734,1076.98,214.2734,1066.98,218.2734,1070.98,214.2734" style="stroke:#181818;stroke-width:1.0;"/><line style="stroke:#181818;stroke-width:1.0;" x1="638.3643" x2="1072.98" y1="214.2734" y2="214.2734"/><text fill="#000000" font-family="sans-serif" font-size="13" lengthAdjust="spacing" textLength="416.6157" x="645.3643" y="209.417">InventoryLog::with(['material','user','materialBatch'])-&gt;latest()-&gt;paginate()</text><polygon fill="#181818" points="1463.7969,240.625,1473.7969,244.625,1463.7969,248.625,1467.7969,244.625" style="stroke:#181818;stroke-width:1.0;"/><line style="stroke:#181818;stroke-width:1.0;" x1="1078.98" x2="1469.7969" y1="244.625" y2="244.625"/><text fill="#000000" font-family="sans-serif" font-size="13" lengthAdjust="spacing" textLength="372.8169" x="1085.98" y="239.7686">SELECT inventory_logs JOIN materials, users, material_batches</text><polygon fill="#181818" points="649.3643,270.9766,639.3643,274.9766,649.3643,278.9766,645.3643,274.9766" style="stroke:#181818;stroke-width:1.0;"/><line style="stroke:#181818;stroke-width:1.0;stroke-dasharray:2.0,2.0;" x1="643.3643" x2="1474.7969" y1="274.9766" y2="274.9766"/><text fill="#000000" font-family="sans-serif" font-size="13" lengthAdjust="spacing" textLength="109.1099" x="655.3643" y="270.1201">Daftar log inventori</text><polygon fill="#181818" points="315.4019,301.3281,305.4019,305.3281,315.4019,309.3281,311.4019,305.3281" style="stroke:#181818;stroke-width:1.0;"/><line style="stroke:#181818;stroke-width:1.0;stroke-dasharray:2.0,2.0;" x1="309.4019" x2="637.3643" y1="305.3281" y2="305.3281"/><text fill="#000000" font-family="sans-serif" font-size="13" lengthAdjust="spacing" textLength="168.3906" x="321.4019" y="300.4717">Render daftar log persediaan</text><rect fill="#EEEEEE" height="3" style="stroke:#EEEEEE;stroke-width:1.0;" width="1513.7622" x="0" y="334.5039"/><line style="stroke:#000000;stroke-width:1.0;" x1="0" x2="1513.7622" y1="334.5039" y2="334.5039"/><line style="stroke:#000000;stroke-width:1.0;" x1="0" x2="1513.7622" y1="337.5039" y2="337.5039"/><rect fill="#EEEEEE" height="24.3516" style="stroke:#000000;stroke-width:2.0;" width="76.8291" x="718.4666" y="323.3281"/><text fill="#000000" font-family="sans-serif" font-size="13" font-weight="bold" lengthAdjust="spacing" textLength="59.2173" x="724.4666" y="340.8232">Filter Log</text><polygon fill="#181818" points="292.4019,376.0313,302.4019,380.0313,292.4019,384.0313,296.4019,380.0313" style="stroke:#181818;stroke-width:1.0;"/><line style="stroke:#181818;stroke-width:1.0;" x1="58.5894" x2="298.4019" y1="380.0313" y2="380.0313"/><text fill="#000000" font-family="sans-serif" font-size="13" lengthAdjust="spacing" textLength="221.8125" x="65.5894" y="375.1748">Memilih filter material / action / tanggal</text><polygon fill="#181818" points="626.3643,406.3828,636.3643,410.3828,626.3643,414.3828,630.3643,410.3828" style="stroke:#181818;stroke-width:1.0;"/><line style="stroke:#181818;stroke-width:1.0;" x1="304.4019" x2="632.3643" y1="410.3828" y2="410.3828"/><text fill="#000000" font-family="sans-serif" font-size="13" lengthAdjust="spacing" textLength="247.8252" x="311.4019" y="405.5264">applyFilter($materialId, $action, $from, $to)</text><polygon fill="#181818" points="1066.98,436.7344,1076.98,440.7344,1066.98,444.7344,1070.98,440.7344" style="stroke:#181818;stroke-width:1.0;"/><line style="stroke:#181818;stroke-width:1.0;" x1="638.3643" x2="1072.98" y1="440.7344" y2="440.7344"/><text fill="#000000" font-family="sans-serif" font-size="13" lengthAdjust="spacing" textLength="224.707" x="645.3643" y="435.8779">InventoryLog::query()-&gt;when(...)-&gt;get()</text><polygon fill="#181818" points="1463.7969,467.0859,1473.7969,471.0859,1463.7969,475.0859,1467.7969,471.0859" style="stroke:#181818;stroke-width:1.0;"/><line style="stroke:#181818;stroke-width:1.0;" x1="1078.98" x2="1469.7969" y1="471.0859" y2="471.0859"/><text fill="#000000" font-family="sans-serif" font-size="13" lengthAdjust="spacing" textLength="204.458" x="1085.98" y="466.2295">SELECT inventory_logs WHERE ...</text><polygon fill="#181818" points="649.3643,497.4375,639.3643,501.4375,649.3643,505.4375,645.3643,501.4375" style="stroke:#181818;stroke-width:1.0;"/><line style="stroke:#181818;stroke-width:1.0;stroke-dasharray:2.0,2.0;" x1="643.3643" x2="1474.7969" y1="501.4375" y2="501.4375"/><text fill="#000000" font-family="sans-serif" font-size="13" lengthAdjust="spacing" textLength="70.8081" x="655.3643" y="496.5811">Filtered logs</text><polygon fill="#181818" points="315.4019,527.7891,305.4019,531.7891,315.4019,535.7891,311.4019,531.7891" style="stroke:#181818;stroke-width:1.0;"/><line style="stroke:#181818;stroke-width:1.0;stroke-dasharray:2.0,2.0;" x1="309.4019" x2="637.3643" y1="531.7891" y2="531.7891"/><text fill="#000000" font-family="sans-serif" font-size="13" lengthAdjust="spacing" textLength="101.8862" x="321.4019" y="526.9326">Perbarui tampilan</text><rect fill="#EEEEEE" height="3" style="stroke:#EEEEEE;stroke-width:1.0;" width="1513.7622" x="0" y="560.9648"/><line style="stroke:#000000;stroke-width:1.0;" x1="0" x2="1513.7622" y1="560.9648" y2="560.9648"/><line style="stroke:#000000;stroke-width:1.0;" x1="0" x2="1513.7622" y1="563.9648" y2="563.9648"/><rect fill="#EEEEEE" height="24.3516" style="stroke:#000000;stroke-width:2.0;" width="238.6943" x="637.5339" y="549.7891"/><text fill="#000000" font-family="sans-serif" font-size="13" font-weight="bold" lengthAdjust="spacing" textLength="221.0825" x="643.5339" y="567.2842">Lihat Detail &amp; Navigasi ke Referensi</text><polygon fill="#181818" points="292.4019,602.4922,302.4019,606.4922,292.4019,610.4922,296.4019,606.4922" style="stroke:#181818;stroke-width:1.0;"/><line style="stroke:#181818;stroke-width:1.0;" x1="58.5894" x2="298.4019" y1="606.4922" y2="606.4922"/><text fill="#000000" font-family="sans-serif" font-size="13" lengthAdjust="spacing" textLength="70.8081" x="65.5894" y="601.6357">Klik entri log</text><polygon fill="#181818" points="626.3643,632.8438,636.3643,636.8438,626.3643,640.8438,630.3643,636.8438" style="stroke:#181818;stroke-width:1.0;"/><line style="stroke:#181818;stroke-width:1.0;" x1="304.4019" x2="632.3643" y1="636.8438" y2="636.8438"/><text fill="#000000" font-family="sans-serif" font-size="13" lengthAdjust="spacing" textLength="107.6626" x="311.4019" y="631.9873">showDetail($logId)</text><polygon fill="#181818" points="1066.98,663.1953,1076.98,667.1953,1066.98,671.1953,1070.98,667.1953" style="stroke:#181818;stroke-width:1.0;"/><line style="stroke:#181818;stroke-width:1.0;" x1="638.3643" x2="1072.98" y1="667.1953" y2="667.1953"/><text fill="#000000" font-family="sans-serif" font-size="13" lengthAdjust="spacing" textLength="182.8125" x="645.3643" y="662.3389">InventoryLog::findOrFail($logId)</text><polygon fill="#181818" points="1463.7969,693.5469,1473.7969,697.5469,1463.7969,701.5469,1467.7969,697.5469" style="stroke:#181818;stroke-width:1.0;"/><line style="stroke:#181818;stroke-width:1.0;" x1="1078.98" x2="1469.7969" y1="697.5469" y2="697.5469"/><text fill="#000000" font-family="sans-serif" font-size="13" lengthAdjust="spacing" textLength="225.7861" x="1085.98" y="692.6904">SELECT inventory_logs WHERE id = ?</text><polygon fill="#181818" points="649.3643,723.8984,639.3643,727.8984,649.3643,731.8984,645.3643,727.8984" style="stroke:#181818;stroke-width:1.0;"/><line style="stroke:#181818;stroke-width:1.0;stroke-dasharray:2.0,2.0;" x1="643.3643" x2="1474.7969" y1="727.8984" y2="727.8984"/><text fill="#000000" font-family="sans-serif" font-size="13" lengthAdjust="spacing" textLength="56.3799" x="655.3643" y="723.042">Log detail</text><polygon fill="#181818" points="315.4019,754.25,305.4019,758.25,315.4019,762.25,311.4019,758.25" style="stroke:#181818;stroke-width:1.0;"/><line style="stroke:#181818;stroke-width:1.0;stroke-dasharray:2.0,2.0;" x1="309.4019" x2="637.3643" y1="758.25" y2="758.25"/><text fill="#000000" font-family="sans-serif" font-size="13" lengthAdjust="spacing" textLength="309.9624" x="321.4019" y="753.3936">Tampil detail log (aksi, jumlah, stok setelah, referensi)</text><polygon fill="#181818" points="292.4019,784.6016,302.4019,788.6016,292.4019,792.6016,296.4019,788.6016" style="stroke:#181818;stroke-width:1.0;"/><line style="stroke:#181818;stroke-width:1.0;" x1="58.5894" x2="298.4019" y1="788.6016" y2="788.6016"/><text fill="#000000" font-family="sans-serif" font-size="13" lengthAdjust="spacing" textLength="114.8926" x="65.5894" y="783.7451">Klik tautan referensi</text><polygon fill="#181818" points="626.3643,814.9531,636.3643,818.9531,626.3643,822.9531,630.3643,818.9531" style="stroke:#181818;stroke-width:1.0;"/><line style="stroke:#181818;stroke-width:1.0;" x1="304.4019" x2="632.3643" y1="818.9531" y2="818.9531"/><text fill="#000000" font-family="sans-serif" font-size="13" lengthAdjust="spacing" textLength="237.0088" x="311.4019" y="814.0967">keRincian($referenceType, $referenceId)</text><line style="stroke:#181818;stroke-width:1.0;" x1="638.3643" x2="680.3643" y1="898.3594" y2="898.3594"/><line style="stroke:#181818;stroke-width:1.0;" x1="680.3643" x2="680.3643" y1="898.3594" y2="911.3594"/><line style="stroke:#181818;stroke-width:1.0;" x1="639.3643" x2="680.3643" y1="911.3594" y2="911.3594"/><polygon fill="#181818" points="649.3643,907.3594,639.3643,911.3594,649.3643,915.3594,645.3643,911.3594" style="stroke:#181818;stroke-width:1.0;"/><text fill="#000000" font-family="sans-serif" font-size="13" lengthAdjust="spacing" textLength="253.6587" x="645.3643" y="844.4482">Tentukan route berdasarkan reference_type</text><text fill="#000000" font-family="sans-serif" font-size="13" lengthAdjust="spacing" textLength="152.1406" x="645.3643" y="860.7998">(expense&#8594;belanja.rincian,</text><text fill="#000000" font-family="sans-serif" font-size="13" lengthAdjust="spacing" textLength="166.5815" x="645.3643" y="877.1514">production&#8594;produksi.rincian,</text><text fill="#000000" font-family="sans-serif" font-size="13" lengthAdjust="spacing" textLength="128.2925" x="645.3643" y="893.5029">hitung&#8594;hitung.rincian)</text><polygon fill="#181818" points="315.4019,937.7109,305.4019,941.7109,315.4019,945.7109,311.4019,941.7109" style="stroke:#181818;stroke-width:1.0;"/><line style="stroke:#181818;stroke-width:1.0;stroke-dasharray:2.0,2.0;" x1="309.4019" x2="637.3643" y1="941.7109" y2="941.7109"/><text fill="#000000" font-family="sans-serif" font-size="13" lengthAdjust="spacing" textLength="218.2261" x="321.4019" y="936.8545">Redirect ke halaman rincian dokumen</text><!--SRC=[bPHTRjf04CVVVOeHGiL8GDIt2ebK9H25XZHLIjg7fee6Th0tNk-wk-iGBj03z8WzISSs1gAuKlfYx-ny_6T_7g-NNX7SdlNVlXl29IcZ43wetC9diew4HDH1W2jlBBJ664dKCDEFf7b3jW0Tt3goGORMovNCK7jeNQ32bEEACdSwLFAHDjBI2RBTBNE-IjeypobZxsPQq1Edp7SfLVIPIJEZMV9vIjt6TcuYk3A2L1dDLca40ZqkqH6q9hjLwP-CWw3e6VgdPHz3kA9qcIS8POFzx73kmbs4xHiOGcfoxSDkiDyg_BNa48vx6WutqiVXzqwAdgn4rUbrSXRcLxqpHh-AEp-w_LF5EuuBzqypXgpPOf6wRg4n6G_XotG-FLk0h4NkbOaSVBoUVOAwekj1eS6lUkT-MOYG2oPZw3y_p0JN7YrmbNrDUNooFQ4RuWzZGHpYZoW5en6SIyLg1GWOZLxYbKh6iAvYwhxW17YifD6yyAYZ25KJSCmojQtAX-qwToPwqAwoUR6s9kMNDw_yB3zpiji2zIOc7Gu60rv6v5yD_Dl5z6OAdDU0jEgKH079DRBa_sg9DfTyw3IJQWTmBcFqC26FKi4R-8IFCa8d8I66l-QAceqNQ2-LJ83BMrdeDU5piTbKLSCsXyp4AncjfHRNzlmuxt_WI04ZUD_0fvWGKVRJ26THCjb5b8CMOk9a3nxoL67S0-TD0euybPQjqNI39Z8USvwiGrGJe8Hkf5xnjHQsTt4hMcmpue7Qso-e7UKl-CcN1wkOt1CioGfqQ9E3xehkFHVaQusUCcw3_lpwlUJ-zGCERANTkzEPDI8l9vhTfS7dFlB7qkSwOb-rg3tTV_olWc_FbI_69zxTnhi442R9KzB1Nm00]--></g></svg>